<?xml version="1.0" encoding="utf-8"?>
<!-- Generator: Adobe Illustrator 21.1.0, SVG Export Plug-In . SVG Version: 6.00 Build 0)  -->
<svg version="1.1" id="hol" xmlns="http://www.w3.org/2000/svg" xmlns:xlink="http://www.w3.org/1999/xlink" x="0px" y="0px"
	 viewBox="0 0 507.1178 257.106" enable-background="new 0 0 507.1178 257.106" xml:space="preserve">
<g>
	<path fill-rule="evenodd" clip-rule="evenodd" d="M233.259,257.106c-1.1897-0.0417-2.3777-0.0856-3.562-0.1287
		c-10.9917-0.4011-21.7605-0.7945-32.4116-0.0153h-0.036c-5.9655-0.4672-12.0645-0.9711-18.0681-1.5579
		c-5.9828-0.5845-11.8474-1.2504-17.348-2.0407c-6.0848,0.379-12.1768,0.3441-18.2673,0.3087
		c-6.5707-0.0378-13.1423-0.0757-19.7206,0.4099h-0.0255c-5.6826-0.1959-11.5591-0.6182-17.4461-1.0409
		c-9.303-0.6684-18.6341-1.3385-27.1681-1.1194c-5.2713,0.6832-9.9541,0.6041-14.616,0.5258
		c-3.6805-0.0618-7.3488-0.1236-11.2893,0.1933c-1.6563,0.3954-3.1507,0.7018-4.5785,0.9082
		c-1.4445,0.2089-2.8247,0.3181-4.2381,0.3181h-0.1531l-0.0694-0.1386c-0.0524-0.1052-0.1117-0.1644-0.1701-0.2228l-0.3382-0.3385
		l0.4708-0.0842c7.6708-1.372,14.8014-1.3425,22.8365-1.3093c1.0987,0.0045,2.2025,0.0085,3.7485,0.0088
		c0.5516-0.4992,1.3944-0.7518,2.3437-0.8782c0.8858-0.1182,1.8553-0.1284,2.7612-0.1293v-0.0833
		c-9.3096-3.5569-17.8849-12.0034-25.9121-19.9109c-4.195-4.1323-8.2409-8.1179-12.1513-11.1677l-0.0176-0.0147
		c-0.521-0.4909-1.7028-1.5154-3.253-2.8599c-5.917-5.1295-17.1865-14.8997-17.9751-17.8177
		c-3.4509-6.3476-6.8822-13.667-9.8399-21.0617c-2.7879-6.9698-5.1579-14.0113-6.7312-20.3745L0,157.3478l0.0992-0.0992
		c0.157-0.157,0.3149-0.3149,0.4972-0.4059l0.1377-0.0689l0.123,0.0924c0.1675,0.1256,1.1772,0.5735,2.2637,0.8127
		c0.5547,0.1219,1.1214,0.1857,1.5849,0.1171c-0.015-4.1857-0.5-4.3271-2.418-4.8887c-0.2889-0.0842-0.6075-0.1777-0.9371-0.2849
		l-0.1729-0.0564v-0.1808v-0.648v-0.2752l0.2744,0.0272l1.2909,0.1275c3.4245,0.3396,7.5869,0.7523,11.7493,0.9456
		c2.4075-2.8933,4.8118-5.7214,7.2179-8.5512c9.4547-11.1192,18.934-22.2679,26.5918-34.9549l0.0196-0.0261
		c0.1259-0.1573,0.3027-0.3643,0.5224-0.6222c0.9161-1.0744,2.5699-3.0121,2.7831-3.7622
		c-1.2325-0.6383-2.0202-1.3105-2.4526-1.9933c-0.5689-0.8986-0.5354-1.806-0.0983-2.6822
		c0.4173-0.8365,1.2093-1.6393,2.1903-2.3723c2.473-1.8482,6.1945-3.2876,8.0677-3.7037l0.0468-0.006
		c6.3765-0.18,12.6453-0.1622,18.9856,0.0269c6.3493,0.1894,12.761,0.5497,19.4156,1.0531l0.0403,0.0068
		c3.3174,0.803,7.6272,1.4712,12.0813,1.9451c4.6358,0.4933,9.4297,0.7764,13.4235,0.7829
		c0.5862-0.9712,1.9602-2.8528,3.5484-5.0267c3.219-4.4053,7.3276-10.0276,7.4279-11.5168l-0.4323-0.8286
		c-1.6798-3.2099-2.6555-5.0746-2.5883-8.3747l0.0028-0.1309l0.1074-0.0721c0.1304-0.0867,0.4969-0.149,0.9521-0.2259
		c0.5553-0.0936,1.2572-0.2115,1.6804-0.3782c0.0958-2.2187,0.1947-4.7565,0.273-7.4826
		c-0.2636-5.6327-0.1687-13.3313-0.1021-18.7053l0.0275-2.2915c-0.2585-5.2742-0.7599-10.1169-1.6384-13.7061l-0.0754-0.3087h0.3175
		c0.1006,0,0.8323-0.6264,1.5996-1.2832c0.7121-0.6097,1.4545-1.2453,1.8745-1.4904l0.0683-0.0264
		c9.0655-2.1816,20.3264-3.3829,31.593-3.2763c10.3368,0.0978,20.6827,1.2963,29.3485,3.8474
		c3.5512,0.231,7.3511,1.0579,11.209,1.8973c4.6426,1.0102,9.3713,2.0392,13.8155,2.0593c0.9882-1.4641,2.2048-2.9262,3.5198-4.3194
		c1.5723-1.6656,3.2896-3.2372,4.9246-4.6012c1.6728-2.2587,7.5779-9.9225,12.0629-15.4267c2.8142-3.454,5.11-6.0701,5.5627-6.0352
		l0.1896,0.0147l0.0368,0.1854c0.1659,0.8291,1.6215,2.1498,3.3614,3.4676c1.7736,1.3436,3.8376,2.6719,5.1655,3.4974l0.0596,0.0527
		c0.1196,0.1434,0.4036,0.4658,0.7855,0.8989c2.4778,2.8105,9.1556,10.3859,8.6261,12.6368l-0.0496,0.2106l-0.2149-0.0192
		c-3.1323-0.2807-6.806-1.7195-10.1285-3.0206c-1.8238-0.7146-3.5427-1.3873-4.991-1.7977
		c-4.2791,0.4864-6.444-0.5029-9.4731-1.8882c-0.5057-0.231-1.0366-0.4737-1.6214-0.7291l-0.1083-0.0898
		c-0.108-0.1619-0.178-0.3209-0.2367-0.4794c-0.8192,0.458-3.7607,3.6397-6.8808,7.2213
		c-3.8307,4.3974-7.8863,9.3727-8.6505,10.6917c3.1394,0.3535,6.5319,1.5063,10.0071,2.6875
		c3.257,1.1072,6.5886,2.2396,9.8226,2.7502l0.0966,0.0363c0.3785,0.2435,0.9411,0.4405,1.586,0.6662
		c1.0074,0.3526,2.2107,0.7741,3.3208,1.5735l0.0973,0.07l0.0062,0.1193c0.2038,3.8776-1.9863,5.6336-4.1998,7.4075
		c-1.732,1.3882-3.4792,2.7899-3.9985,5.2631c1.6021,4.8566,3.3037,9.7895,5.0267,14.7852
		c3.0787,8.9268,6.2277,18.0561,8.994,27.2777l0.0056,0.0233c0.9675,4.8753,3.5459,7.9937,6.1509,11.1438
		c2.4005,2.903,4.824,5.8346,6.0758,10.1911c0.5108,0.8481,0.9218,1.3751,1.5472,1.7672c0.6458,0.4042,1.544,0.6851,3.0308,1.0388
		l0.0715,0.0301c1.8984,1.1506,2.4687,2.0273,2.8553,2.6218c0.5207,0.8005,0.6548,1.0063,4.5493,0.5831l0.163,0.0403
		c2.5511,1.6775,7.7151,2.008,12.985,2.3451c5.3847,0.3441,10.8808,0.6965,13.9538,2.5138c4.1142,0.2548,8.562,1.1982,13.1,2.1606
		c4.6857,0.9935,9.4694,2.0084,14.0562,2.2994l0.1134,0.0352c2.6183,1.5792,9.6721,2.1405,16.473,2.6805
		c4.7719,0.3793,9.421,0.7486,12.3777,1.4618c2.1697,0.1686,4.5286,0.6961,7.0095,1.2509c1.8063,0.4037,3.6788,0.8226,5.5939,1.1265
		l0.1448,0.0229l0.0501,0.1381c0.7348,2.0316,1.4783,4.2372,2.2468,6.5194c1.7751,5.2696,3.6899,10.9528,5.9851,15.9097
		c0.8977,0.383,2.0922,0.7137,3.3965,0.9374c1.2792,0.2191,2.6609,0.3359,3.9716,0.3016l0.2021-0.0054l0.0468,0.1976
		c0.3849,1.6333,0.7892,3.4616,1.2098,5.3662c1.7609,7.9693,3.8254,17.3104,7.2757,24.3315
		c9.2429,0.6469,18.6301,1.5078,28.08,2.484c9.5159,0.983,19.0678,2.0803,28.5959,3.1949l0.2216,0.0258v0.2222v0.648v0.2239
		l-0.2236,0.0241c-3.7352,0.4016-4.1293,2.5727-3.8093,5.5531c0.0803,0.7472,0.2021,1.5316,0.3286,2.3496
		c0.241,1.5539,0.5006,3.2301,0.5327,4.9476c0.2171,0.0989,0.5857,0.1902,1.0078,0.2937c0.5125,0.1259,1.1016,0.271,1.6466,0.4887
		l0.0723,0.0439c3.5456,3.1201,8.0025,9.7466,11.8553,16.8746c3.9708,7.3454,7.3069,15.2363,8.3478,20.3777
		c8.869,0.8257,18.2661,0.553,27.6052,0.2817c0.9754-0.028,1.9504-0.0569,2.9239-0.0836l0.2565-0.0074l0.0002,0.2563v0.504v0.2395
		l-0.2412,0.0094c-3.6121,0.1389-7.6121,0.0955-11.6415,0.0521c-6.3469-0.0686-12.7692-0.1386-17.8617,0.504
		c-0.0488,0.1211-0.0989,0.2736-0.1494,0.4249l-0.0629,0.1885l-0.1968-0.0184c-5.3033-0.5035-11.262-0.3595-17.3182-0.2126
		c-8.6403,0.209-17.4808,0.423-24.9495-1.2268c-4.0742-0.0408-7.6887,0.2713-11.2277,0.5769
		c-2.4205,0.2089-4.8062,0.4152-7.3123,0.5034l-0.0312-0.0008c-3.0668-0.2852-6.0953-0.5017-9.1224-0.718
		c-13.6321,0-27.337,1.0794-41.0423,2.1583c-22.0561,1.7365-44.1156,3.4736-65.8916,0.7206
		c-8.1649,0.0014-16.4123,1.1671-24.6611,2.3329c-10.7759,1.5233-21.5578,3.0472-32.216,1.9874
		c-3.2944,0.072-6.6045,0.216-9.9133,0.3597H233.259L233.259,257.106z M134.9306,49.6202c0.0672,4.8858-0.011,9.8326-0.1403,14.2682
		c0.153,3.2845,0.4303,5.7819,0.9096,6.5378c0.5323,0.0513,1.0823,0.2214,1.7,0.4116c0.7166,0.2211,1.529,0.472,2.4928,0.5851
		c0.7211-0.0644,1.3411-0.1159,1.9842-0.1684c3.6224-0.2968,7.8815-0.6463,11.2235-1.5706
		c-0.1996-1.5143-4.6681-8.8132-9.197-15.8264c-4.0094-6.209-8.0272-12.1711-9.1653-13.6845
		c0.0017,0.6576-0.0051,1.5009-0.0156,2.4857C134.8331,44.9223,134.8983,47.2638,134.9306,49.6202L134.9306,49.6202z
		 M213.1254,255.6136c7.0376-0.0646,14.1644-0.1301,21.2295,0.2744c2.6235-0.0717,5.4465-0.1255,8.318-0.1347
		c2.8741-0.0091,5.7928,0.0269,8.5995,0.1347c7.1096-0.1154,14.3807-1.1248,21.695-2.1399
		c11.0276-1.531,22.1547-3.075,33.0397-1.6035c3.9118,0.0493,28.1449,0.2684,42.6138-0.1848
		c3.2108-0.1003,5.9399-0.2344,7.856-0.4102c1.0842-0.0995,1.8881-0.1894,2.3434-0.2645
		c-5.4576-0.4992-10.9548-0.6936-16.4061-0.8864c-8.5788-0.3033-17.0442-0.6032-25.0759-2.0772
		c-6.5418-0.1448-12.9282-0.807-19.2419-1.4615c-6.3499-0.6585-12.6287-1.3096-18.8926-1.4179v0.0012
		c-17.7446,0-35.4666-1.0896-53.1153-2.1744c-17.4884-1.0749-34.9061-2.1458-52.2011-2.1467
		c-14.5653,1.1627-29.3729-1.031-43.717-3.1564c-4.2287-0.6264-8.4175-1.2472-12.5045-1.7694
		c0.4586,1.3581,3.026,3.2667,4.6911,4.5034c0.3172,0.2358,0.6038,0.4484,0.8311,0.6241l0.0978,0.0754v0.1219v0.504l0.0003,0.1531
		l-0.1389,0.0695c-0.7175,0.3586-2.867-1.3272-5.1449-3.1145c-2.1719-1.7039-4.4674-3.5048-5.4836-3.6258
		c-11.382,0.7651-22.8305-0.0553-34.1751-0.8685c-7.7151-0.553-15.3825-1.103-22.9277-1.1475
		c0.8345,1.9335,5.1914,4.8838,8.9716,7.4421c3.0198,2.0438,5.6821,3.8449,6.0154,4.8527c0.8957,0.278,1.9465,1.0528,3.0889,1.8943
		c1.1307,0.8326,2.3542,1.734,3.5614,2.2513l0.1525,0.0652v0.1641c0,0.2038,0.0008,0.4077,0.0272,0.6044
		c8.7738-0.4201,17.9073,0.2729,27.1324,0.9726c7.3516,0.5575,14.7623,1.1194,22.0938,1.1248
		c1.3844-1.177,11.6226-1.2374,23.7444-0.7798c17.3818,0.6562,38.7023,2.3326,43.1339,3.3021
		C199.7717,255.7361,206.4093,255.6752,213.1254,255.6136L213.1254,255.6136z M328.5953,247.3799
		c12.1981,0.2585,24.6591,0.5233,35.0201,3.1073c1.2339,0,1.2702-0.0059,4.3599-0.6922c0.1771-0.4079-0.4008-2.5548-1.2631-5.2648
		c-1.6157-5.0763-4.2834-12.0183-4.9195-13.5924c-1.0803-0.9752-7.0314-1.9644-14.3218-2.821
		c-12.2511-1.44-28.2217-2.4735-31.4031-2.4735l-0.036-0.0031c-3.429-0.5145-14.4459-1.4633-23.4105-1.8411
		c-6.0488-0.2548-11.1487-0.2548-12.3001,0.3067l-0.1602,0.0779l-0.1259-0.1259c-0.6965-0.6965-1.1636-1.783-1.3719-2.9454
		c-0.1613-0.898-0.1693-1.8459-0.0108-2.6955c0.1619-0.8691,0.4992-1.6424,1.0247-2.1679c0.3456-0.3456,0.7725-0.5851,1.2827-0.6766
		l0.0859-0.0012c4.8663,0.8481,10.1511,1.114,15.5067,1.3833c3.2672,0.1641,6.5613,0.3299,9.809,0.6299
		c6.1191,0.335,12.4197,1.0585,18.7869,1.7895c4.5924,0.527,9.2205,1.0585,13.8359,1.4505v0.0003
		c0.5099,0.0181,1.2263,0.0363,2.1025,0.0578c6.2033,0.1539,20.3926,0.5077,23.8725,2.4681
		c9.8246,1.1282,9.8875,1.3581,11.2686,6.4902c0.4731,1.7584,1.1067,4.1136,2.3802,7.3046c2.1002,0.6778,3.0334,0.3297,3.335-0.5757
		c0.383-1.1491-0.1125-3.1802-0.6129-5.231c-0.6125-2.5095-1.2322-5.0496-0.3024-6.3097l0.0641-0.087l0.1057-0.0127
		c2.2051-0.269,4.6871-0.1786,7.2692-0.0848c0.8943,0.0323,1.8022,0.0658,2.702,0.0839l0.1369,0.0025l0.0712,0.1157
		c1.3796,2.2422,2.0676,5.3269,2.7737,8.4943c0.4794,2.1521,0.9683,4.3438,1.6901,6.3241c2.2841,2.1254,18.225,2.5143,29.7711,2.795
		c5.3187,0.1293,9.7104,0.2364,11.4421,0.485c4.3137,0.1724,8.6873,0.7141,13.1122,1.2623
		c6.7082,0.8308,13.5369,1.6764,20.3755,1.2668c-0.0187-0.512-1.2583-2.6484-2.9398-5.3207c-3.4453-5.4768-8.7673-13.03-9.4669-14
		c-12.5309-0.945-25.0597-2.1152-37.5166-3.2777c-14.9697-1.3975-29.8369-2.7856-44.5742-3.7684
		c-13.4816,0-26.2474-1.8297-38.9636-3.6521c-7.4605-1.069-14.9054-2.1362-22.4529-2.8278c-8.1193,0-16.0948-1.0488-23.9879-2.0869
		c-7.7088-1.0137-15.3397-2.0172-22.9556-2.0172l-0.0458-0.0051c-13.811-2.6254-27.3944-4.3885-40.9436-5.5851
		c-13.5587-1.1971-27.07-1.8275-40.7364-2.187l-0.0544-0.0068c-1.2422-0.3104-3.2548-0.351-5.2668-0.3906
		c-2.9962-0.0592-5.9922-0.1202-6.7014-1.129c-23.2472-2.5852-46.3346-4.6868-69.359-6.4026
		c-23.0743-1.7195-46.0741-3.0518-69.1004-4.0949c-1.6449,0.0306-3.2893,0.0854-4.9221,0.1395
		c-5.8425,0.1927-11.5523,0.3807-17.2672-0.5139c2.9514,11.0239,15.0412,21.3452,26.2006,30.8701
		c5.2523,4.4833,10.3003,8.7914,14.1052,12.9249c1.5613,0,2.4704-0.002,3.3769-0.004c8.875-0.0221,17.6366-0.0439,27.1349,1.23
		v-0.0003l0.9255,0.0763c5.2979,0.4408,23.6287,1.9655,26.9308,0.1905c-0.1559-0.4301-0.9981-1.2376-1.8332-2.0396
		c-0.8725-0.8382-1.7391-1.6713-1.9267-2.2323c-4.5326-4.0241-10.7949-10.6487-16.1065-17.3251
		c-4.3444-5.4613-8.0586-10.9642-9.6829-15.1223l-0.1329-0.3408h0.3654c0.1621,0,0.3246,0.0003,0.582,0.0859l0.1309,0.0995
		c0.6131,0.9348,1.2717,1.9973,1.9585,3.1065c2.4185,3.9036,5.2061,8.4025,8.7265,11.5316l0.0371,0.042
		c2.5733,3.6105,6.9933,9.1644,11.6252,14.0287c3.3647,3.5339,6.84,6.7017,9.792,8.4875c4.2698,0.8053,8.8276,1.3717,13.4595,1.9465
		c6.8632,0.8518,13.8923,1.7246,20.4758,3.4435c7.6635,0.7642,15.592,0.3657,23.5607-0.0354
		c9.9703-0.5015,20.0052-1.0063,29.7011,0.7534c2.1529,0.0975,4.4473,0.1211,6.8182,0.1449
		c6.3797,0.0646,13.3203,0.1349,19.4718,1.6554c12.636,0.3963,25.2104,0.972,37.8504,1.6733
		c12.6655,0.7025,25.3907,1.5304,38.3071,2.4299l0.0125,0.0009C312.3751,247.0358,320.4266,247.2066,328.5953,247.3799
		L328.5953,247.3799z M469.1676,240.1807c1.3054,1.8148,2.8463,3.6312,4.2846,5.0831c0.0352-0.009,0.0703-0.0153,0.1046-0.0201
		c-0.2174-2.2785-3.2814-9.2815-6.5327-15.5852c-2.8442-5.5139-5.7985-10.4768-7.0452-11.1977
		c0.0746,1.2005,0.1174,2.2601,0.1545,3.2069c0.218,5.5236,0.2823,7.1512,6.2391,13.7097l0.0479,0.0771
		C466.9589,236.8347,467.9637,238.5068,469.1676,240.1807L469.1676,240.1807z M405.4077,230.4114
		c-1.1608-0.9317-1.6954-1.7297-1.7742-2.3924c-0.0646-0.5466,0.163-0.9936,0.5992-1.3445
		c0.3991-0.3212,0.9794-0.5581,1.6662-0.7135c2.1628-0.4901,5.4766-0.1902,7.4784,0.7926l0.1301,0.0638l0.0093,0.1442
		c0.1763,2.778-1.37,3.5272-3.3906,3.6556c-0.8506,0.0539-1.7812-0.0071-2.6966-0.0669c-0.6378-0.0414-1.2687-0.0831-1.8657-0.0831
		L405.4077,230.4114L405.4077,230.4114z M52.3996,228.6174c-0.915-0.6761-1.7657-2.9225-2.5759-5.0636
		c-0.7299-1.9281-1.427-3.7692-2.0166-4.1417l-0.1094-0.1533c-0.3399-1.4159-2.2099-5.082-4.2457-9.0728
		c-3.0611-6.0004-6.493-12.7284-5.7351-14.0077l0.1165-0.1964l0.2058,0.0981c0.7679,0.3654,1.5568,1.8705,2.4591,3.5915
		c1.025,1.9556,2.2025,4.2018,3.5589,5.2188l0.1006,0.0754v0.1236c0,2.514,2.2575,6.4814,4.5791,10.5608
		c2.7105,4.7633,5.5074,9.6789,4.993,12.8072l-0.0343,0.2101h-0.2117h-0.936v-0.2501L52.3996,228.6174L52.3996,228.6174z
		 M439.7505,223.407c5.7685,0.2109,11.5687,0.4232,17.0963,1.3762h1.8165c0.8178-2.5325,0.923-4.6571,0.4913-6.4265
		c-0.4161-1.7056-1.3329-3.0867-2.5872-4.1882c-1.2659-1.1118-2.8771-1.9428-4.6686-2.5401
		c-5.1585-1.7195-11.7901-1.5007-16.0362-0.4651l-0.2222,0.0541l-0.0726-0.2183l-0.1712-0.5136
		c-3.3117-0.7461-6.7073-1.3739-10.1619-1.9066c-2.1543-0.1947-4.3526-0.4275-6.4851-0.701
		c-1.658-0.2129-3.2771-0.451-4.8038-0.7141c-10.1761-1.0199-20.6351-1.4709-30.8271-1.9105
		c-6.9945-0.3016-13.8637-0.5981-20.4123-1.0672l-0.0487-0.0088c-12.1844-3.3784-25.0036-5.1764-37.8332-6.1472
		c-12.8444-0.972-25.6873-1.1163-37.9174-1.188l-0.0362-0.002c-11.808-1.8-24.1541-3.492-36.4303-4.8138
		c-12.2822-1.3224-24.499-2.2768-36.0434-2.6003l-0.0479-0.006c-2.4546-0.5587-4.9439-1.1594-7.4387-1.7614
		c-6.5327-1.5757-13.1077-3.1626-19.0369-3.9946l-0.0575-0.0144c-5.847-2.3137-16.8381-6.1041-26.9419-8.8524
		c-7.1609-1.9477-13.8696-3.3712-17.9663-3.3712l-0.1338-0.0392c-5.038-3.2116-10.5494-3.6986-15.8153-4.1635
		c-0.6599-0.0581-1.3133-0.116-2.0744-0.1902l-0.1372-0.0136l-0.0618-0.123c-0.0462-0.0921-0.0913-0.1854-0.1242-0.271
		c-5.4255-1.582-10.8626-1.9355-16.185-2.2808c-5.1242-0.3327-10.1441-0.6587-14.9729-2.0641
		c-8.4744-0.4124-17.075-0.4468-25.6326-0.4802c-9.3334-0.0366-18.6177-0.0734-27.6205-0.5984l-0.0187-0.002
		c-6.3836-0.8326-12.5714-0.9284-18.6953-1.023c-6.4616-0.0998-12.8529-0.1993-19.3331-1.1569
		c0.7807,3.782,2.3737,8.5391,4.229,13.3733c1.9009,4.9533,4.0723,9.976,5.9292,14.1219c6.7977,1.6551,16.242,1.2625,24.9406,0.9
		c3.5198-0.1465,6.9191-0.2882,9.9459-0.2882l0.0272,0.002c9.7183,1.0715,19.6829,1.9727,29.7162,2.6538
		c9.5202,0.646,19.0982,1.0953,28.5815,1.3053l0.0215,0.0009c18.3728,2.0172,36.754,3.926,55.1923,5.5891
		c18.4513,1.6642,36.9884,3.0861,55.675,4.1301l0.163,0.0723c0.0181,0.0181,5.1681,0.4844,11.7045,1.0757
		c10.8749,0.9836,25.5555,2.3125,27.4065,2.8157c20.7185,3.1289,41.3487,5.2871,62.2608,7.4746
		c7.0035,0.7325,14.0397,1.4687,21.094,2.2425l0.0428,0.0088c7.1849,2.0826,15.7127,2.4273,23.9975,2.7618
		c3.1348,0.1264,6.2357,0.252,9.1993,0.4674c8.426,0.0002,16.7516,0.983,25.13,1.9717c7.8154,0.9227,15.6779,1.8508,23.688,1.9893
		l0.0468,0.0049C426.989,222.9398,433.351,223.1728,439.7505,223.407L439.7505,223.407z M413.9972,206.6681
		c3.814,0.3821,7.5895,0.8447,11.2969,1.4159c3.4012,0.307,6.694,0.5196,9.4405,0.6443l0.1658,0.0723
		c0.0066,0.0065-0.0056-0.0056,0.5046-0.3793c-0.2551-5.9179-2.2983-7.6558-4.7977-9.7792
		c-1.368-1.1625-2.8698-2.4386-4.3027-4.5459c-2.5974-0.2033-4.9308-0.5341-6.9953-0.8269
		c-2.8327-0.4022-5.1571-0.7319-6.9489-0.5564c-3.7882,0.3708-5.2438,3.1104-4.3325,12.6181
		C409.7015,205.8347,411.7476,206.2795,413.9972,206.6681L413.9972,206.6681z M222.2575,223.6173
		c-1.5511-0.432-2.8726-0.7294-3.9844-0.9797c-5.3994-1.2141-6.0874-1.3691-4.2562-9.61l0.0352-0.0842
		c2.0171-3.026,6.1177-4.0345,10.7603-3.9305c6.5311,0.146,14.1619,2.4931,18.4958,4.4898l0.1094,0.0987
		c2.3426,3.9276,1.3481,6.3882-1.2129,7.9154c-4.6089,2.7485-14.4176,2.33-18.438,2.1586
		c-0.6389-0.0272-1.1284-0.0482-1.4428-0.0482L222.2575,223.6173L222.2575,223.6173z M443.0364,222.8797l-0.432-0.216
		l-0.1387-0.0695v-0.1531c0-0.2342,0.0004-0.4686,0.0859-0.726l0.0507-0.1528l0.1582-0.0173
		c0.6565-0.0729,1.3138-0.146,2.0432-0.146h0.2501v0.25c0,0.2764,0.0002,0.553,0.0668,0.8872l0.0595,0.2988h-0.3044
		c-0.5687,0-1.1379,0.0002-1.6977,0.07L443.0364,222.8797L443.0364,222.8797z M447.1036,209.9781
		c0.9587,0.1276,1.931,0.2571,3.0997,0.403c0.4144-0.0564,0.8195-0.0677,1.2231-0.0697c-0.1754-1.2136-0.1953-1.9724-0.4583-12.7072
		c-1.4802-0.1885-2.9083-0.3215-4.3325-0.451c-0.0031,0.8501-0.019,1.7124-0.0352,2.5857
		C446.538,203.0262,446.4723,206.4855,447.1036,209.9781L447.1036,209.9781z M438.4706,200.1331
		c-0.4039,3.8449-0.4147,3.9563,4.2866,9.3864c0.4646,0.0074,0.9309,0.0573,1.4369,0.1139
		c0.0029-0.4286,0.0105-1.0261,0.0187-1.6988c0.045-3.7321,0.1185-9.8598-0.5128-11.4647c-0.4683-0.038-0.9289-0.0944-1.381-0.1505
		c-1.3865-0.1718-2.6935-0.3345-3.538,0.131C438.6954,197.9941,438.571,199.177,438.4706,200.1331L438.4706,200.1331z
		 M437.6191,208.9894c0.3008,0.0776,0.5984,0.1953,0.8949,0.3138h1.2297c0.0538-0.1032,0.1199-0.1893,0.1899-0.2682l-1.728-2.1118
		c-0.1095,0.0011-0.2167,0.0066-0.3187,0.0247C437.5962,208.287,437.5715,208.4261,437.6191,208.9894L437.6191,208.9894z
		 M402.3666,199.082c0.9042,2.4131,1.794,4.788,1.6807,6.4948c0.6089-0.1097,1.2186-0.2143,1.8289-0.2801
		c-0.1403-2.5753,0.1755-4.7928,0.436-6.6246c0.1885-1.3269,0.3478-2.4491,0.2789-3.3355
		c-0.1461-1.8725-1.4091-2.7238-5.9567-2.4006C400.7058,194.6507,401.5426,196.8832,402.3666,199.082L402.3666,199.082z
		 M394.3754,204.984c2.0121,0.0267,4.2393,0.0567,6.6524,0.2152c0.3937,0,0.7872-0.0003,1.188,0.034
		c-0.4067-1.6583-1.4057-4.962-2.3437-7.8381c-0.8552-2.6223-1.6347-4.8668-1.817-5.0975c-0.5298-0.057-1.7288-0.146-3.2309-0.2571
		c-4.2174-0.313-10.796-0.802-11.8593-1.3173h-0.7997c-1.4374,10.5664,0.7713,13.2352,5.9369,13.9552
		C389.8624,204.9237,391.9643,204.952,394.3754,204.984L394.3754,204.984z M381.4384,203.1073
		c-0.0436,0.271-0.0828,0.5465-0.098,0.845c0.3807-0.0343,0.4861-0.0587,0.6006-0.1534c-0.0986-0.2455-0.1976-0.485-0.2934-0.6916
		H381.4384L381.4384,203.1073z M367.1201,202.5834c3.4656,0.4388,7.0852,0.7795,11.2062,0.9595
		c0.3169-0.0604,0.6251-0.0703,0.9742-0.0717c0.0777-0.2951,0.1931-0.5862,0.309-0.8765
		c-0.017-14.3583-7.7684-14.5539-18.0973-14.8135c-1.4332-0.0357-2.916-0.0743-4.4214-0.1486
		c-0.2656,0.5851-0.4575,3.6488-0.5054,6.7374c-0.0453,2.9081,0.0479,5.8099,0.3413,6.6792
		C360.4068,201.6174,363.6986,202.1502,367.1201,202.5834L367.1201,202.5834z M434.287,200.2048
		c0.442,0.4102,0.855,0.7937,1.2167,1.1401c0.0603-0.0159,0.119-0.0241,0.1766-0.0287c0.2546-1.0335,0.4025-2.0387,0.4867-2.9985
		c0.082-0.9358,0.1029-1.83,0.1058-2.6655l-7.1703-1.195C429.7113,195.9557,432.2954,198.3549,434.287,200.2048L434.287,200.2048z
		 M348.1846,199.87c1.7192,0.1684,3.2136,0.3147,4.2551,0.4331h1.908c0.074-1.9057,0.1384-3.3494,0.1905-4.5473
		c0.1477-3.3591,0.2103-4.7996,0.1627-8.5397c-6.3235-1.449-13.064-1.8771-19.4882-2.2847
		c-1.8987-0.1205-3.7715-0.2398-5.5757-0.3807c-0.0031,1.2005-0.0244,2.4789-0.0468,3.7814
		c-0.0474,2.7686-0.0969,5.6514,0.0394,8.8784C332.7557,198.36,341.9662,199.262,348.1846,199.87L348.1846,199.87z
		 M317.7062,196.2306c2.7318,0.231,5.4567,0.4621,8.0816,0.6168v-0.0002h1.415c0.0201-0.4987,0.0595-1.2016,0.1057-2.0319
		c0.2044-3.693,0.5488-9.9201,0.0034-10.8022l-2.3559-0.2764c-7.6178-0.8969-14.6727-1.7272-21.8182-1.8672
		c-0.6132,1.7612-1.2693,4.9586-1.1605,7.9991c0.0757,2.1124,0.5215,4.1422,1.611,5.5397
		C308.0861,195.4157,312.9078,195.8244,317.7062,196.2306L317.7062,196.2306z M288.6817,195.4696
		c1.5963,0.0468,3.0473,0.0904,4.2021,0.1539v-0.0002c1.088,0,2.2399-0.0179,3.3823-0.0709
		c1.0826-0.0502,2.1716-0.1327,3.2145-0.2599c0.0743-3.043-0.4909-5.7317-1.4731-8.1825c-0.9955-2.4848-2.4222-4.731-4.0433-6.8539
		c-2.7205-0.6109-6.3572-1.1667-9.9462-1.5494c-3.4548-0.368-6.8601-0.5757-9.3523-0.5162
		c-0.5145,0.9533-0.5585,3.6139-0.6049,6.4437c-0.059,3.6039-0.1239,7.4758-1.2308,8.7437v0.453
		C276.2051,195.0997,283.2849,195.31,288.6817,195.4696L288.6817,195.4696z M378.7373,193.5919
		c0.1491,0.252,0.3013,0.5105,0.4963,0.8479c0.1253-0.1448,0.2492-0.2713,0.3722-0.3946c-0.032-0.7285-0.0394-1.3462-0.0456-1.8635
		c-0.027-2.3156-0.0301-2.4086-2.704-2.4619C377.1519,190.9106,377.9207,192.21,378.7373,193.5919L378.7373,193.5919z
		 M249.8012,190.7062c6.7742,0.3637,17.9963,0.9664,19.7767,2.397h0.9329c0.4955-2.1257,0.849-4.9308,1.0369-7.6751
		c0.2009-2.9355,0.212-5.7977,0.0068-7.6802c-2.6612-1.2765-7.6462-1.9738-12.6462-2.3528
		c-4.9637-0.3762-9.9445-0.4371-12.6913-0.4399c-0.3657,1.8334-0.9805,4.9989-1.3521,8.0591
		c-0.3717,3.0591-0.504,6.0075,0.0927,7.3772C245.6085,190.4806,247.43,190.579,249.8012,190.7062L249.8012,190.7062z
		 M390.9779,189.5315c1.7949,0.2869,3.5889,0.5738,5.3832,0.8354c0.9525-0.0034,1.2671-0.3566,1.2671-0.8453
		c0-0.6829-0.4984-1.6336-0.8915-2.3842c-0.1324-0.2526-0.2549-0.485-0.3447-0.6815l-2.126-0.2622
		c-6.8629-0.8481-14.0584-1.7376-20.4559-2.0117c0.1454,1.0919,0.4601,3.2156,2.0472,3.5232
		C380.5668,187.8676,385.78,188.701,390.9779,189.5315L390.9779,189.5315z M234.3614,189.7336
		c2.6149,0.1449,5.1361,0.2846,7.3828,0.4876c0.231-0.053,0.455-0.0666,0.7064-0.0697c0.0096-2.7304,0.1771-5.4547,0.3401-8.1068
		c0.1712-2.7853,0.3382-5.4924,0.3104-8.0433c-3.045-1.3156-16.1206-2.0781-22.9697-2.4778
		c-1.6957-0.0986-3.0096-0.1766-3.7092-0.235c-1.8507,1.4388-1.1353,9.112-0.6863,13.9223
		c0.0811,0.8697,0.1548,1.6478,0.2013,2.2678C220.655,188.9737,227.8057,189.3708,234.3614,189.7336L234.3614,189.7336z
		 M194.9395,183.6777c5.6647,1.4182,11.533,2.8879,17.4588,3.8092c0.9918-0.0136,1.3074-1.9304,1.3074-4.4402h-0.0012
		c0-3.1042-0.5145-7.0645-0.851-9.6577c-0.1349-1.04-0.2415-1.8635-0.2761-2.327c-0.593-0.5984-3.428-1.1044-6.9424-1.5078
		c-6.1557-0.7067-14.3314-1.055-16.4452-1.078c-0.3824,1.8199-0.6318,3.9456-0.7673,6.1503
		c-0.1531,2.4855-0.1621,5.0721-0.0578,7.4384C190.5228,182.5711,192.7154,183.121,194.9395,183.6777L194.9395,183.6777z
		 M355.6863,185.0795c5.1531,0.8453,10.3051,1.6906,15.3277,2.2638h2.0591c-0.072-2.257-5.6783-10.0625-6.376-11.0254
		c-8.7523-0.2903-17.447-0.9369-26.0577-1.8416c-8.6465-0.9082-17.2174-2.0792-25.683-3.4118
		c-2.3463-0.2109-5.1199-0.7668-7.9214-1.3278c-5.4984-1.1013-11.1085-2.2249-13.553-0.7869
		c-1.7861,1.0506-1.8522,3.5791,1.152,8.7143c0.5723,0.1664,1.6662,0.2883,2.6152,0.3932c0.8079,0.0893,1.5182,0.1678,1.8141,0.2897
		c4.7078,0.2531,9.7025,0.775,14.7688,1.4394c5.0777,0.6661,10.2183,1.4749,15.2121,2.3009
		C337.462,182.0892,346.5777,183.585,355.6863,185.0795L355.6863,185.0795z M298.8748,185.7337
		c0.2563,0.4082,0.504,0.8028,0.7209,1.1608c0.1111-0.0544,0.2208-0.0969,0.3311-0.1352c0.333-2.664,0.3373-2.7535,0.2709-4.9422
		c-0.6808-0.4947-1.3425-0.7144-1.9633-0.7708c-0.58-0.0527-1.1324,0.036-1.6339,0.1769
		C296.723,182.3097,297.8632,184.1239,298.8748,185.7337L298.8748,185.7337z M380.5325,181.7292
		c3.0082-0.135,6.3417-0.2844,10.1058,1.2954l0.0811,0.0003c0.7733,0.0048,3.7877,0.0235,4.5692-0.504
		c-0.5017-3.4237-1.6653-6.9052-2.7938-10.2813c-1.1758-3.518-2.3148-6.9233-2.6399-10.0581
		c-3.5342-0.4683-7.0954-0.9383-10.6758-1.4105c-24.9568-3.2928-50.8593-6.711-75.1615-10.7295l-0.2919-0.0221
		c-10.3394-0.7781-12.3251-0.9286-17.3665-8.9858c-2.8605-2.2408-5.6064-7.2216-8.1794-11.8897
		c-2.6249-4.7617-5.0692-9.1947-7.1655-9.9215c-11.2079-1.3141-22.2984-3.0543-33.2609-4.7735
		c-8.2196-1.2892-16.3683-2.5674-24.4505-3.6473c-10.0559-0.3986-20.2096-1.8046-30.3293-3.2054
		c-11.8448-1.6395-23.6441-3.2728-35.1697-3.2728l-0.0479-0.0051c-3.1223-0.612-6.171-1.26-9.1726-1.8978
		c-10.6818-2.2703-20.7748-4.4149-31.898-4.4325c-0.1299,0.2137-0.2152,0.4141-0.2588,0.6023
		c-0.1471,0.6333,0.1715,1.1716,0.7758,1.6259c0.6565,0.4935,1.6413,0.8901,2.7482,1.2061c2.6237,0.749,5.9091,1.0347,7.2661,1.1061
		l0.0652,0.0128c10.5225,3.5073,25.8741,4.3427,37.6413,4.983l0.8135,0.0442l0.0332,0.004c7.0674,1.3462,8.754,2.023,8.3239,4.2809
		c-0.1403,0.7376-0.5269,1.6313-1.0261,2.7862c-0.5825,1.3478-1.3224,3.0597-1.9936,5.2741l-0.0887,0.1267
		c-0.1775,0.1332-5.4669,12.4342-9.2024,22.4725c-1.944,5.2243-3.454,9.8181-3.5765,11.7264
		c2.063,0.1329,4.1281,0.267,6.2175,0.3977c-0.0289-0.2741-0.03-0.5429-0.03-0.8116v-0.1534l0.1386-0.0691
		c0.0879-0.0439,0.1701-0.0689,0.2554-0.0828c-1.0242-2.8868,0.6642-6.8253,2.2054-10.4188
		c0.8802-2.0528,1.7115-3.9912,1.9397-5.512l0.0703-0.1406c2.5342-2.5342,3.7097-5.656,4.807-8.5717
		c2.0588-5.4695,3.8531-10.2354,13.534-9.4286l0.0363,0.006c5.7696,1.3643,11.6938,1.989,17.6734,2.6195
		c5.0502,0.5323,10.1413,1.0692,15.2207,2.0585l0.0918,0.0371c5.8637,3.909,4.4963,16.7584,3.3831,27.2172
		c-0.3804,3.5736-0.7304,6.8658-0.7503,9.4133c0.5023,0.055,1.2815,0.163,2.236,0.294c4.2757,0.5873,12.0977,1.6608,13.354,0.6967
		l-0.0433-0.0326c-0.0831-0.0649-0.1553-0.121-0.2134-0.1502l-0.1295-0.0652l-0.0079-0.1445
		c-0.288-5.4374-0.4502-10.9324-0.3869-16.3327c0.0629-5.4042,0.3515-10.7065,0.9637-15.7493l0.0715-0.1474
		c3.8174-3.8174,16.0546-1.9811,25.2263-0.6046c2.8486,0.4275,5.4003,0.8107,7.2978,0.9644l0.1182,0.0411
		c1.9695,1.3048,5.345,5.5015,8.7925,10.7045c3.358,5.0673,6.7964,11.1031,9.0765,16.3554
		c2.3052,5.3095,3.4237,9.8464,2.0957,11.8502c-0.1625,0.2455-0.362,0.4538-0.5973,0.6228
		c-0.0352,0.106-0.0703,0.2149-0.1063,0.3373c1.0187,0.0856,2.0449,0.2276,3.1053,0.3736c1.857,0.256,3.8251,0.5267,6.0846,0.5374
		c0.1219-0.1995,0.2435-0.4002,0.3569-0.5893c1.3782-2.2952,1.677-2.793,5.6143-2.793l0.0508,0.0049
		c7.3417,1.5454,15.0472,2.4072,22.8144,3.2749c6.6744,0.7458,13.3959,1.4972,19.9969,2.6963
		c0.4488,0.0116,0.991,0.0244,1.6132,0.0377c7.2587,0.1596,25.5861,0.5627,28.6985,3.3367l0.0507,0.0635
		C372.3906,182.0945,376.0985,181.9281,380.5325,181.7292L380.5325,181.7292z M77.5417,183.1966
		c-0.8396-1.237-3.9402-7.0755-5.995-11.6617c-1.3484-3.0087-2.234-5.5239-1.7515-6.0063l0.1267-0.1267l0.1613,0.0808
		c0.1032,0.0515,4.0266,6.8697,6.5974,11.9899c1.3997,2.7885,2.4148,5.11,2.2413,5.6597l-0.055,0.1749h-0.1831h-0.936v-0.25
		L77.5417,183.1966L77.5417,183.1966z M175.032,178.005c4.2647,1.1216,8.2446,2.1685,10.2262,3.1938
		c0.074-0.0241,0.1457-0.0366,0.2146-0.0422c0.5099-2.4418,0.7679-4.8648,0.8901-7.2202c0.123-2.374,0.1083-4.6783,0.0743-6.861
		c-4.4427-2.4953-21.1932-3.7032-25.941-4.0402l0.0076,0.0567c-0.322,1.5398-0.5372,2.882-0.6709,4.2837
		c-0.1321,1.3839-0.1857,2.8378-0.1868,4.6111C160.7397,174.244,168.251,176.2212,175.032,178.005L175.032,178.005z
		 M265.8696,174.4895c8.6381,1.1069,17.4135,2.2314,26.2531,3.1289c0.0732-0.0292,0.1432-0.0454,0.2112-0.0547
		c-0.0947-1.0137-0.7711-1.9113-1.2498-2.5472c-0.1448-0.1922-0.2744-0.3634-0.3699-0.5142
		c-7.1552-1.09-14.5528-1.6396-21.9129-2.1864c-10.9769-0.8152-21.8728-1.6251-31.7798-4.2094l-0.0927-0.0459
		c-2.876-2.2827-10.6775-2.4363-17.46-2.5699c-3.7092-0.0729-7.1172-0.1401-9.2869-0.5485l-0.032-0.0088
		c-10.3864-3.4436-22.4294-3.922-33.5081-4.362c-3.2471-0.129-6.4128-0.2548-9.4136-0.4492l-0.0147-0.0009
		c-0.3696-0.0462-1.0273-0.1545-1.8317-0.2869c-2.7856-0.4584-7.3848-1.2155-8.3225-0.7466l-0.2565,0.1281l-0.091-0.2727
		c-0.0504-0.1516-0.07-0.2707-0.0788-0.3758c-0.3742-0.0726-0.7821-0.1585-1.2251-0.252c-1.7742-0.3764-4.1125-0.8728-5.9831-0.8728
		v-0.0011c-1.6234,0-2.8803,0.3767-3.0141,1.5661c3.2496,0.4238,6.4987,0.8504,9.7036,1.3377
		c8.4109,0.3881,17.2763,1.9743,26.2196,3.5742c6.0642,1.0849,12.1654,2.1767,18.2033,2.9058l0.0595,0.0147
		c2.2941,0.8739,5.2382,0.828,8.2403,0.7812h0.0011c2.8556-0.0445,5.7646-0.0902,8.2701,0.644
		c0.6945,0.0255,1.5488,0.0485,2.5328,0.0742c7.34,0.1931,21.8126,0.5738,26.6729,3.7483
		C252.6854,172.7995,259.2377,173.6397,265.8696,174.4895L265.8696,174.4895z M154.8646,172.1206l1.4026,0.4626h1.0429
		c1.2569-8.2856,0.131-10.5916-3.7576-11.1931c-1.565-0.2421-3.5782-0.224-6.0503-0.2021c-0.7217,0.0065-1.4831,0.0127-2.285,0.0136
		c-0.6659,1.2404-1.3382,2.8777-1.561,4.5366c-0.1644,1.2231-0.0839,2.4582,0.4243,3.5504
		C147.5238,169.6913,151.0645,170.8634,154.8646,172.1206L154.8646,172.1206z M134.3906,167.0273
		c2.0682,0.4314,4.2327,0.8433,6.3745,1.2359h1.1154c0.2066-0.5491,0.538-1.9981,0.8382-3.5129
		c0.3115-1.5715,0.5856-3.2029,0.6466-3.9674c-1.9344,0.0626-4.682-0.4402-7.3491-0.9289c-3.5345-0.6474-6.927-1.2694-7.8998-0.5216
		c0.138,2.2379,0.3322,3.6266,0.4909,4.7627c0.0816,0.5851,0.1553,1.1052,0.2061,1.6299
		C130.4994,166.1766,132.3958,166.6112,134.3906,167.0273L134.3906,167.0273z M122.9902,164.7465l1.5126,0.265
		c0.3691-0.2081,0.781-0.4198,1.2022-0.6316c-0.0731-0.0459-0.1386-0.0833-0.1885-0.1083l-0.3092-0.155l0.244-0.244
		c0.0499-0.0499,0.1176-0.0961,0.1928-0.1398c-0.0303-0.0573-0.0502-0.1128-0.0502-0.1877v-0.1031l0.0734-0.0734
		c0.1276-0.1276,0.256-0.256,0.4357-0.3495c0.0652-2.753,0.0641-2.8664-0.1279-4.4059c-2.4916-0.9318-5.5258-1.5685-8.5535-1.944
		c-3.4713-0.4303-6.9296-0.5173-9.5522-0.3098c-0.0318,0.8757-0.0539,1.8808,0.0604,2.9197
		c0.1185,1.076,0.3844,2.1917,0.9368,3.2417C113.6497,163.1064,117.9743,163.8661,122.9902,164.7465L122.9902,164.7465z
		 M99.2194,160.0039c0.5794,1.1512,1.8318,1.8613,4.3152,2.1393h2.3355c0.2832-1.0392-0.184-4.4212-0.3651-5.7367l-0.0465-0.3476
		c-5.0944-0.7835-5.4037-0.8291-6.5996-0.8316C98.6967,157.2724,98.6491,158.8717,99.2194,160.0039L99.2194,160.0039z
		 M95.5108,160.8526c0.1531,0.0536,0.3161,0.1165,0.5102,0.2107h1.5185c0.0884-1.3145-0.5919-2.7703-0.9694-3.5796l-0.0011-0.0011
		l-0.0598-0.129c-0.1309-0.0249-0.2489-0.0337-0.3614-0.0372C95.7192,158.7266,95.6991,158.8493,95.5108,160.8526L95.5108,160.8526z
		 M52.5506,160.2318c2.751,0.0754,5.5332,0.1517,8.2777,0.2562c1.9712-0.0703,3.9436-0.1411,5.9454-0.1448
		c0.2013-0.5641,0.2064-0.7073,0.1511-2.107c-3.5626-0.2146-7.1161-0.4754-10.6333-0.7339c-5.891-0.4329-11.687-0.86-17.1672-1.044
		c0.0399,1.6565-0.0213,2.2087-0.0845,2.783c-0.0164,0.1491-0.0326,0.2993-0.0476,0.4703
		C43.2335,159.9758,47.8477,160.1031,52.5506,160.2318L52.5506,160.2318z M90.0085,160.4628
		c0.7625,0.0063,1.48,0.0119,2.1118,0.0247c0.3027-0.0604,0.606-0.1202,0.9147-0.1389l0.2764-1.025
		c1.2155-4.4995,3.5408-13.1043,3.6241-16.6147c-1.1548-0.326-2.361-0.773-3.3001-1.4227c-0.9037-0.6245-1.5619-1.4335-1.707-2.4926
		c-0.7728,0.7541-2.3349,3.3494-4.0643,6.4746c-3.1714,5.7317-6.8459,13.1848-7.3587,14.5117
		C82.6532,160.4019,86.7538,160.4362,90.0085,160.4628L90.0085,160.4628z M69.3876,158.6141
		c0.053,0.4796,0.1066,0.9683,0.1621,1.5148c0.2761,0.0054,0.644,0.0196,1.0644,0.0346c2.0489,0.0737,5.4125,0.1947,7.0432-0.3724
		c-0.4337-0.2648-1.3238-0.4831-2.3726-0.6591C73.2045,158.7825,70.5416,158.6362,69.3876,158.6141L69.3876,158.6141z
		 M21.1357,158.7518c4.083-0.3277,11.3301-0.9105,13.8367,0.5113h1.4083c0.1842-0.5972,0.3214-1.1253,0.3849-1.6341
		c0.0621-0.4975,0.0547-0.9814-0.0493-1.5004c-2.664-0.4702-7.8083-1.1466-12.0209-1.3268
		c-2.7519-0.1177-5.0904-0.0284-6.0282,0.4637l-0.0076,0.2803c-0.0278,0.9362-0.0779,2.6314,0.5142,3.3514
		C19.6523,158.8703,20.3326,158.8164,21.1357,158.7518L21.1357,158.7518z M12.496,158.6393
		c0.7058,0.0647,1.4122,0.1358,2.1248,0.2639c0.0836,0.0005,0.2086,0.0054,0.3461,0.0107c0.536,0.0207,1.2878,0.0488,1.9633-0.2081
		c-0.1304-1.3079-0.2596-2.6169-0.3314-3.9302h-0.017v-0.0011c-0.7793,0-1.7357,0.5856-2.5328,1.362
		c-0.8031,0.7824-1.4326,1.747-1.5526,2.4965L12.496,158.6393L12.496,158.6393z M111.1762,153.859
		c10.8451,1.3669,24.4505,3.7964,28.1545,4.6837c1.6166-0.0692,3.2695-0.0714,4.9229-0.0714
		c0.3611-0.8731,0.5258-1.2779,0.5953-1.6266c0.0573-0.2874,0.0539-0.557,0.0473-1.0408c-0.0028-0.2296-0.0065-0.4936-0.0065-0.6826
		v-0.1406l0.1222-0.0732c2.1515-1.2909,6.7935-15.9009,8.3211-20.7102c0.1661-0.523,0.2968-0.9335,0.3815-1.1931
		c-0.0451-0.055-0.0825-0.1066-0.1151-0.1531l-0.0011-0.0012l0.0006-0.0003c-0.0269-0.038-0.0513-0.0714-0.0677-0.0879
		l-0.0663-0.0664c-0.0581,0.1021-0.1511,0.1721-0.3277,0.3047l-0.2384,0.1789l-0.1091-0.2177
		c-0.0641,0.08-0.1281,0.1633-0.1925,0.248l0.0632,0.0632l0.2155,0.2154l-0.2534,0.1689c-1.0746,0.7163-1.7952,2.2734-2.588,3.987
		c-1.216,2.6288-2.5985,5.6154-5.7447,6.7674l-0.0615,0.0139c-7.3618,0.7433-14.7608,0.9825-22.0924,0.769
		c-7.5141-0.2188-14.9573-0.9142-22.2182-2.0293c-0.2047,1.2469-0.663,2.5189-1.1415,3.8486
		c-0.6803,1.8902-1.404,3.9019-1.476,6.0973C99.186,152.608,104.6974,153.0423,111.1762,153.859L111.1762,153.859z
		 M153.572,132.2774l-0.0173,0.1086c0.0346-0.032,0.0709-0.0609,0.1091-0.087C153.6347,132.2907,153.6041,132.2839,153.572,132.2774
		L153.572,132.2774z M6.6665,158.2552c0.3676,0.0014,0.7364,0.011,1.1157,0.072h2.8392c0.3121-0.7228,0.8215-1.4533,1.2997-2.1396
		c0.5182-0.7438,0.9998-1.434,1.1123-1.9401c-0.7931-0.1199-2.1113-0.2248-3.3639-0.2905c-1.3292-0.07-2.573-0.0978-3.0181-0.0533
		c-0.1709,0.4983-0.2577,1.1701-0.2577,1.9196C6.3938,156.5932,6.4854,157.4368,6.6665,158.2552L6.6665,158.2552z M45.3688,155.2626
		c9.1962-0.1295,24.0996-0.3399,32.2798,2.9206h0.8467c0.7852-2.7077,2.791-5.4227,4.7395-8.0592
		c2.0795-2.8145,4.093-5.5389,4.4181-7.9951l0.0487-0.119c1.3484-1.7699,6.3726-10.5681,10.2878-18.1953
		c2.6308-5.1253,4.7577-9.7058,4.915-11.2235c-2.535-0.9941-5.4-1.6656-8.4538-2.1387c-1.7745-0.1355-3.6043-0.2664-5.4675-0.3988
		c-3.9146-0.2784-7.9795-0.567-12.0231-0.9402c-5.1897-0.2478-10.2135-0.555-14.5159-1.4094
		c-2.0514-0.2061-4.4487-0.644-6.3085-0.9836v-0.0003c-1.2628-0.2301-2.2742-0.4149-2.7411-0.4473
		c-0.8555,1.2385-1.7167,2.5648-2.5926,3.9155c-2.2555,3.4775-4.6168,7.1178-7.3531,9.9598
		c-2.4429,3.0611-4.7594,6.1826-7.0858,9.3178c-3.9263,5.2917-7.8834,10.624-12.4892,15.7283
		c-0.4938,0.7596-1.4873,1.7651-2.5518,2.8423c-1.7067,1.7272-3.6037,3.6462-3.7891,4.8792
		c3.1578,0.8002,6.7388,0.8411,10.4207,0.8824c4.4697,0.0502,9.0879,0.1026,13.3248,1.5049
		C42.5191,155.3027,43.8645,155.2833,45.3688,155.2626L45.3688,155.2626z M77.0128,108.6168l1.9525,0.0905
		c5.2654,0.2432,10.6302,0.4915,15.5285,1.2478c2.0035,0.153,3.9418,0.3129,5.7923,0.4921
		c1.0644-0.0005,1.8204-0.3713,2.3454-0.9532c0.578-0.6406,0.8912-1.5432,1.0344-2.4982c0.146-0.9746,0.1154-2.0036,0.0082-2.8738
		c-0.131-1.0658-0.3373-1.8581-0.4615-1.9746c-3.384-0.7455-19.4309-1.6446-32.5176-1.0981
		c-8.1493,0.3405-15.1265,1.2336-17.104,3.0583c0.0014,0.1312,0.0071,0.2671,0.0349,0.4207
		C60.27,106.6966,68.5916,107.8399,77.0128,108.6168L77.0128,108.6168z M154.148,131.3833l0.0221,0.0187l0.0096,0.0012
		l0.0093-0.0405l-0.0099,0.0051L154.148,131.3833L154.148,131.3833z M154.2444,130.9686l0.0119,0.0119
		c0.0397-0.3133,0.0312-0.5622,0.0034-0.7784l-0.2463,0.5746C154.0834,130.8269,154.1625,130.8867,154.2444,130.9686
		L154.2444,130.9686z M157.5196,120.445c-0.1389,1.0548-0.2852,2.1722-0.3152,3.405c0.4173-1.5146,1.2285-2.9942,2.0551-4.5005
		c1.1931-2.1742,2.4188-4.4082,2.4761-6.8205c-2.0103-0.5318-17.8078-0.4671-32.2206,0.0077
		c-11.5957,0.3818-22.2656,1.029-24.0846,1.8411c0.0006,0.4504,0.0048,0.9045,0.0471,1.3904
		c5.078-0.1786,10.5199,0.1596,16.075,0.5051c4.5641,0.2838,9.2055,0.5729,13.7897,0.5819c0.032-0.1403,0.0873-0.2534,0.1432-0.3654
		l0.2225-0.445l0.2225,0.445c0.0425,0.0854,0.1372,0.1885,0.2409,0.2934c2.6053-0.0043,5.118-0.163,7.6209-0.3209
		c4.4779-0.2826,8.9269-0.5636,13.7619,0.0349l0.2058,0.0255l0.0127,0.2078C157.8484,117.9443,157.6899,119.1498,157.5196,120.445
		L157.5196,120.445z M254.7967,115.3664c3.5595,0.3144,7.0889,0.6265,10.5156,1.0568h0.4876
		c0.0269-0.322,0.0408-0.6386,0.0408-0.9479c0-2.9616-1.2479-5.0584-3.0288-6.4687c-1.7963-1.4218-4.1386-2.1557-6.3003-2.378
		c-0.3561-0.0365-0.7098-0.0587-1.0579-0.0677l0.1247,0.2498l-0.2727,0.0907c-0.197,0.0655-0.3342,0.1343-0.4706,0.2024
		l-0.2925,0.1463l-0.0638-0.32c-0.0575-0.2883-0.1154-0.5273-0.1723-0.7574l-0.4898-0.0596l0.0637,0.4236
		c-0.7993,0.3197-0.7999,0.3197-1.385,0.1527l-0.5528-0.1579l0.4933-0.2959c0.2435-0.146,0.3484-0.2086,0.5661-0.2217
		c-4.9986-0.6094-5.1174-0.6049-6.5475-0.5397l-0.2608,0.0119v-0.2608v-0.3949c-3.581,0.6755-21.0583-2.8307-28.1729-4.2579
		l-0.0003,0.0009c-1.5678-0.3141-2.6314-0.527-2.9148-0.57c-6.4163-0.0012-12.8586-0.6299-19.2152-1.2501
		c-6.1308-0.5981-12.183-1.1886-18.0698-1.1976l-4.4575,7.0917c9.4816,0.7087,19.0545,2.0676,28.7189,3.4396
		c9.3541,1.3275,18.7946,2.668,28.3252,3.4415l0.0555,0.0116C237.719,113.8579,246.3449,114.6198,254.7967,115.3664
		L254.7967,115.3664z M105.8451,106.7097c-0.3489,2.344-0.3232,4.8983,1.4417,5.1778c6.2374-0.2092,12.5691-0.3334,18.9584-0.4581
		c11.0596-0.216,22.2948-0.4357,33.5707-1.112c0.013-0.0752,0.0309-0.15,0.0519-0.2237
		c-9.3974-1.9426-19.0216-2.6099-28.0686-3.2363c-1.1262-0.0777-2.2391-0.1551-3.3089-0.2313l-0.0352-0.0048
		c-0.8895-0.1924-2.2051-0.5301-3.7536-0.9275c-5.7044-1.463-14.6231-3.7502-18.0179-2.7901l-0.0649,0.2443
		C106.4194,103.9048,106.0594,105.2711,105.8451,106.7097L105.8451,106.7097z M153.7183,103.25
		c5.523,0.6874,11.1104,1.1556,16.4854,1.2926c0.1227-0.14,0.3484-0.4856,0.6287-0.959c0.3149-0.5315,0.6871-1.209,1.046-1.927
		c0.9884-1.9766,1.9446-4.3101,1.4287-4.7409c-3.7103,0.4717-7.4259,0.1882-11.0883-0.0904
		c-2.8811-0.2194-5.7302-0.4363-8.4974-0.2792h-0.0204c-0.9162-0.0277-2.465-0.1595-4.3897-0.3228
		c-3.8659-0.3286-9.2509-0.7864-13.9-0.7864c-5.0613,0-9.2293,0.5182-9.4524,2.293c1.2212,0.5689,2.77,0.8033,4.3449,1.0411
		c1.891,0.2857,3.8211,0.5777,5.3507,1.4664C141.3207,101.4151,147.473,102.4728,153.7183,103.25L153.7183,103.25z M51.1427,99.9309
		c-0.7668,1.0417-0.917,2.1574,0.4042,3.1702c0.3506-0.0207,0.6951-0.1774,1.029-0.3897v-0.0011
		c0.3104-0.1973,0.6083-0.4394,0.8949-0.6718l0.0008-0.0009l0.216-0.1746l0.0966-0.0479C65.4545,98.924,77.874,99.4,90.1945,99.8725
		c4.5394,0.1737,9.0663,0.3476,13.5272,0.3518c0.1667-0.4232,0.1083-0.6698,0.0601-0.875c-0.0788-0.3357-0.14-0.5992,0.2696-1.048
		c-0.0445-0.3249-0.0541-0.6401-0.0561-0.923c-8.0572-1.1339-16.0954-1.8791-24.0503-2.1373
		c-8.0039-0.2599-15.9293-0.0278-23.7124,0.794c-0.1579,0.0989-0.3297,0.2026-0.5187,0.3174
		C54.3977,97.1536,52.2043,98.4884,51.1427,99.9309L51.1427,99.9309z M223.5713,98.659c9.9281,0.9352,19.9315,2.033,30.0807,3.3642
		h1.3198c-0.2183-1.4624-3.7145-3.532-8.318-5.6432c-8.7837-4.0283-21.5328-8.0977-23.652-8.6204
		c-5.404-0.5576-10.6198-1.4264-15.7598-2.2822c-8.0841-1.3461-15.9837-2.6617-24.1143-2.6815
		c-0.2616,0.8382-0.9014,2.0038-1.6095,3.2961c-0.72,1.3141-1.5137,2.7624-2.0378,4.0966c-0.7656,1.9494-0.9556,3.655,0.5638,4.2784
		c2.0846,0.1082,4.3801,0.2701,6.7309,0.5474c2.3672,0.2789,4.7996,0.6752,7.1458,1.2515
		C203.7728,96.9489,213.6314,97.7228,223.5713,98.659L223.5713,98.659z M252.2157,92.0123
		c-0.2151,2.295-0.5666,6.0474,1.9545,6.5548h0.3118c-0.0031-1.2872-0.6194-3.9192-1.2957-5.7753
		c-0.2183-0.5993-0.4422-1.1143-0.6508-1.4698c-0.0927-0.1579-0.1732-0.2784-0.2356-0.3526
		C252.2852,91.2643,252.2525,91.6175,252.2157,92.0123L252.2157,92.0123z M243.292,93.1904
		c2.0823,1.093,4.2304,2.2209,6.4349,3.0727h0.7962c0.0556-1.8836-0.0352-3.8287-0.2483-5.6528
		c-0.2146-1.8374-0.5539-3.5484-0.993-4.9478c-0.3546-0.0267-0.6823-0.0541-1.0165-0.0803
		c-2.3584-0.1877-4.9272-0.392-7.0475-0.1298c-2.7881,0.3447-4.8027,1.5174-4.4787,4.6848
		C238.8557,90.8621,241.0365,92.0067,243.292,93.1904L243.292,93.1904z M146.4914,93.1972
		c7.8412,0.0366,17.3239,0.0817,19.711,0.9059c1.0995-0.0014,2.1926-0.0589,3.3191-0.1179c1.7065-0.0893,3.492-0.1831,5.4371-0.0969
		l0.1658,0.0722c0.0366,0.0366-0.0388-0.0652-0.0122-0.085c0.2061-0.1536,0.5003-0.5139,0.8476-1.0151
		c0.3603-0.5198,0.7708-1.1832,1.1968-1.9227c1.8496-3.2113,4.0567-7.8687,3.7715-8.589
		c-11.1634-1.2611-23.0443-1.127-34.4364-0.9989c-3.4089,0.0383-6.7757,0.0763-9.9252,0.0774
		c-0.4337,0.6874-1.2889,1.8513-2.2623,3.1774c-2.1254,2.8959-4.8262,6.5761-4.8262,7.5166v0.25h-0.25
		c-0.14,0-0.2894,0.0403-0.4411,0.0888c-0.0156,0.0844-0.0224,0.1749-0.0255,0.2769c1.0349,0,2.084,0.0002,3.1405,0.0085h0.0011
		c1.1469,0.0088,2.3017,0.0272,3.4518,0.0629l0.1698,0.0723C135.7906,93.1468,140.6857,93.17,146.4914,93.1972L146.4914,93.1972z
		 M230.1262,87.8077c1.6767,0.4966,3.4231,1.0142,4.132,1.5806c0.0437-0.012,0.0859-0.0198,0.1276-0.0255
		c-0.0011-0.2971-0.0039-0.4958-0.0062-0.6732c-0.0233-1.7586-0.0241-1.8502,1.216-3.3514l0.0754-0.091h0.1168
		c0.5669,0,2.9446-0.3251,4.858-0.8079c0.9105-0.2299,1.7056-0.4879,2.1152-0.7492c-2.4426-1.1154-6.7462-2.054-11.0497-2.6153
		c-4.5697-0.5958-9.1253-0.7656-11.4415-0.2741v0.5079c1.3802,0.6404,2.5203,0.6086,3.4339,0.5831
		c1.9221-0.053,2.9486-0.0802,3.2527,4.8235C227.6019,87.0602,228.8435,87.4276,230.1262,87.8077L230.1262,87.8077z
		 M221.3904,85.8337c1.0168,0.0732,2.0384,0.2081,3.0603,0.3445c0.1054-0.038,0.2214-0.0541,0.341-0.0613
		c-0.0482-0.7151-0.0527-1.4201-0.0533-2.0798c-0.6469-0.1564-0.904-0.161-3.7545-0.1613l-0.011,0.1956
		C220.9442,84.5839,220.9195,85.0386,221.3904,85.8337L221.3904,85.8337z M214.8407,84.8186
		c0.7693,0.2151,1.5392,0.4303,2.8284,0.646l0.1072,0.002h0.002c0.2957,0.0071,0.849,0.0213,1.1277-0.1582
		c-0.0003-0.8274-0.0085-0.9244-0.199-1.3611c-0.7446,0.0062-1.5106,0.0521-2.2453,0.0966
		c-1.0463,0.0638-2.0333,0.1239-2.8622,0.0595c-0.0437,0.0743-0.0862,0.1531-0.123,0.2344h0.0002
		c-0.0167,0.0366-0.0317,0.0748-0.0464,0.1122C213.9571,84.5717,214.3987,84.6953,214.8407,84.8186L214.8407,84.8186z
		 M199.724,83.1966c2.6475,0.3254,5.3192,0.6543,7.979,0.9686c0.2432-0.0406,0.4878-0.0794,0.7325-0.1066
		c-3.3837-3.1031-15.7155-8.6998-19.5945-10.4596c-0.5219-0.2369-0.9082-0.4113-1.1254-0.5513l-0.0045,0.0216
		c-4.1023-0.8915-14.0105-2.8344-21.8628-3.255c-4.7582-0.2548-8.7454,0.0411-10.1639,1.4595l-0.0734,0.0735h-0.1032
		c-1.7161,0-9.54,0.4842-15.584,1.0905c-3.5708,0.3583-6.5024,0.7477-7.1192,1.0797c0.1429,1.1375,0.6321,2.2558,1.1452,3.4273
		c0.3926,0.8966,0.8005,1.8252,1.0842,2.8284c2.2556-0.0354,4.621,0.2166,7.043,0.476c4.1238,0.4413,8.4132,0.9005,12.5121-0.0349
		l0.0439-0.0059C169.9387,79.5325,184.4439,81.3167,199.724,83.1966L199.724,83.1966z M238.4816,80.7203
		c4.2075,0.6687,7.8305,1.4349,9.2407,2.2178c0.6255-0.0581,1.2415-0.0655,1.9012-0.0663
		c-0.6792-6.2628-3.164-12.5659-5.5446-18.604c-1.6339-4.1448-3.2196-8.1661-4.146-11.9818
		c-1.5461,0.8156-6.8888,6.082-11.84,11.3953c-4.8589,5.2141-9.3203,10.4412-9.4051,11.4905
		c0.3394,1.0854,0.6803,2.1725,1.082,3.3214C221.9848,78.666,231.1379,79.5529,238.4816,80.7203L238.4816,80.7203z
		 M213.4312,81.6744c0.0966,0.0504,0.2013,0.1088,0.328,0.1902c0.1576,0.002,0.3564,0.0091,0.5718,0.0176
		c1.0601,0.042,2.5585,0.1009,3.6187-0.5392c-0.0369-0.2753-0.0471-0.5204-0.0502-0.7566
		c-1.4227,0.1302-2.8185,0.2631-4.2126,0.3958C213.4673,81.3356,213.4358,81.4076,213.4312,81.6744L213.4312,81.6744z
		 M202.5253,77.77c2.7309,1.3467,5.1432,2.7646,5.9315,3.7267c-0.1596-2.5628-2.1374-5.1381-3.9229-7.4634
		c-1.3133-1.7104-2.5257-3.289-2.8842-4.6882c-1.8658-2.1138-4.2021-5.4374-6.7433-9.0522
		c-5.8595-8.3356-12.8206-18.235-17.3699-18.1808c-1.2232,1.9933-2.503,4.574-3.7304,7.4095
		c-0.167,0.4791-0.3401,0.9683-0.5179,1.4664c-1.0726,3.0067-2.3253,6.3193-3.5019,9.3402
		c-1.004,3.1762-1.7957,6.1849-2.2394,8.6221c3.8591-0.2985,8.6145,0.0062,13.2928,0.9153
		c4.3367,0.8427,8.6105,2.2059,12.0464,4.0884C194.5021,74.2218,198.8215,75.9439,202.5253,77.77L202.5253,77.77z M169.316,60.1597
		c0.5627-1.7798,1.1914-3.6113,1.8635-5.4227c0.6823-1.8386,1.4097-3.6584,2.1572-5.3856c1.2192-3.4994,2.1104-6.3998,2.215-7.6266
		c-6.1452-0.756-12.2196-1.0264-18.1868-1.2912c-5.0836-0.2259-10.0908-0.4481-14.9907-0.9618
		c-0.2486,0.8054-0.8212,1.334-1.404,1.8734c-0.7172,0.6636-1.4528,1.3456-1.4828,2.6008
		c2.6926,3.6284,5.0156,7.9206,7.3942,12.3151c2.4236,4.4785,4.9062,9.0644,7.884,13.14c1.8184-0.104,3.6485-0.1927,5.4927-0.2719
		c1.8162-0.0782,3.6612-0.1485,5.5236-0.2188C166.5102,67.216,167.853,63.9162,169.316,60.1597L169.316,60.1597z M201.4858,67.5077
		c3.0966,4.4223,6.1049,9.0278,9.1961,13.9275c0.5182-0.3532,1.7663-1.8403,3.0016-3.4506
		c1.5228-1.9848,2.9996-4.1247,3.0602-4.5576c-1.1568-4.2483-2.5634-8.4957-3.9398-12.6516
		c-1.2623-3.8123-2.4999-7.549-3.502-11.1609c-4.2815-1.605-8.9334-3.0609-13.5374-4.2148
		c-4.2551-1.0664-8.4677-1.8751-12.3086-2.3066c0.9218,2.3114,3.7324,5.8283,6.0463,8.7231
		c0.8022,1.0038,1.546,1.9344,2.1254,2.7062l0.0003-0.0002C195.1217,58.7362,198.3481,63.0264,201.4858,67.5077L201.4858,67.5077z
		 M215.2338,78.3542c0.2089-0.0649,0.4541-0.0065,0.7291,0.3351c0.9524-0.0562,1.0695-0.0703,1.6172-0.2668
		c-0.1174-0.7041-0.2347-1.4032-0.345-2.0251c-0.5298,0.2041-1.078,0.5312-1.478,0.9884
		C215.5178,77.6591,215.3316,77.9823,215.2338,78.3542L215.2338,78.3542z M212.6413,58.068
		c1.5996,5.1259,3.9546,11.0812,5.3076,14.2809c1.0843-0.4875,9.4048-9.2854,15.3383-15.5591
		c2.7329-2.8893,4.9649-5.2487,5.779-6.0304c-0.0352-1.7649-0.9397-3.6216-1.8411-5.4726c-0.7829-1.6073-1.5645-3.2116-1.804-4.7948
		c-3.1051-0.5694-9.1848,0.6282-14.4567,2.6617c-4.6043,1.7759-8.5732,4.1763-9.3473,6.5637l-0.0385,0.1199l-0.1208,0.0399
		c-0.15,0.0499-0.3166,0.1548-0.4864,0.2664C210.877,51.7445,211.5978,54.7243,212.6413,58.068L212.6413,58.068z M239.5367,47.7049
		c0.1839,0.4521,0.3688,0.9048,0.57,1.406c0.8737-0.3949,2.338-1.9678,3.6916-3.4214c0.8254-0.8858,1.6115-1.7294,2.2212-2.2569
		c-0.0213-0.1021-0.032-0.1988-0.0366-0.2855c-1.0174-0.2268-2.0114-0.4717-2.9619-0.705c-2.1081-0.5182-4.0076-0.985-5.8295-1.1616
		C237.6411,43.0492,238.6074,45.4221,239.5367,47.7049L239.5367,47.7049z M196.4367,44.8912
		c4.5584,1.2084,9.2123,2.4421,13.9442,3.4728c2.5007-2.0339,5.1443-4.0811,8.0308-5.7164c2.873-1.6276,5.9843-2.8463,9.4258-3.2377
		c0.0031-0.0763,0.0085-0.154,0.0198-0.2327c-1.4908-0.3189-3.1649-0.6888-4.8821-1.0676
		c-11.1606-2.4625-24.3036-5.3614-34.5623-4.4439c0.0578,0.3683,0.1157,0.7741,0.1738,1.1804l0.0179,0.1239l-0.0882,0.0879
		c-0.3804,0.3804-0.8147,0.7594-1.2572,1.1452c-1.6052,1.4001-3.3338,2.9089-3.4177,5.5347
		C187.9436,42.6399,192.149,43.7545,196.4367,44.8912L196.4367,44.8912z M136.8391,40.417
		c0.4059,0.6091,0.9249,1.2198,1.4692,1.6302h0.1624c0.4121-0.5128,0.832-1.0173,1.2529-1.5046
		c0.3864-0.4476,0.7793-0.8867,1.1716-1.3148c-1.7674-0.6619-3.13-0.5355-4.5312-0.405l-0.3022,0.0284
		c0.0918,0.3826,0.3776,0.9671,0.7764,1.565L136.8391,40.417L136.8391,40.417z M233.8985,38.8188
		c4.0246,0.9425,8.0243,1.8791,11.9622,2.7178c0.1877-0.0501,0.3977-0.0609,0.6126-0.0638
		c0.1596-0.5334,0.3359-0.9363,0.4796-1.2631c0.3214-0.7302,0.445-1.0114-0.4799-1.6486c-4.5541-1.5174-9.241-2.9455-13.8849-4.2288
		c-4.5641-1.2609-9.0865-2.3817-13.4005-3.3086c-5.5945-0.6026-11.9381-1.804-18.5309-3.0523
		c-14.61-2.7666-30.4515-5.7651-42.0188-2.9736v0.1157c2.4205,0.6426,5.258,1.5426,8.0473,2.7244
		c2.2501,0.9533,4.4697,2.0902,6.4128,3.4219c1.1764,0.1942,2.4378,0.3464,3.7576,0.4669c0.184-0.0377,0.3728-0.0726,0.5669-0.1035
		c2.7116-0.4303,6.3901-0.2035,8.6547,0.5854l0.9544,0.0306c2.5067,0.0802,5.0071,0.1607,7.3562,0.3042v-0.0003
		C207.0978,32.5432,220.6426,35.7149,233.8985,38.8188L233.8985,38.8188z M186.0367,32.7059
		c-3.1504-0.1024-6.2864-0.2183-9.1528-0.4765c-0.8263,0.1738-1.5213,0.4173-1.9916,0.7339
		c-0.5122,0.3447-0.7393,0.7821-0.5332,1.3139c0.337,0.8697,1.6829,1.9953,4.5162,3.4044l0.1026,0.0513l0.0281,0.112
		c0.2231,0.8926,1.2399,1.8791,2.2224,2.8324c0.1681,0.163,0.3362,0.3265,0.4802,0.4682c0.0822-0.0212,0.1604-0.0294,0.2373-0.0323
		c0.7407-1.0652,1.4085-2.1269,2.0574-3.1584c1.0315-1.6401,2.018-3.2068,3.1986-4.6315
		C186.9103,33.09,186.5129,32.8836,186.0367,32.7059L186.0367,32.7059z M156.4679,39.0527
		c5.1758,0.0723,19.0023,0.267,21.7806,1.7705h0.9901c0.0051-0.1065,0.0159-0.2148,0.0408-0.3268
		c-5.9754-6.287-10.3099-10.0412-15.3204-12.2176h-0.0009c-5.0332-2.1864-10.7796-2.7947-19.5914-2.7955l-1.1971,0.2276
		c-8.7848,1.6642-9.9689,1.8904-8.3171,11.6657c1.8729,0.8527,6.1781,0.9057,10.4358,0.9576
		c3.7553,0.0457,7.4744,0.0918,9.54,0.6914C155.1558,39.0345,155.721,39.0425,156.4679,39.0527L156.4679,39.0527z M256.923,16.1187
		c2.2258,0.6347,4.5068,1.2856,6.2708,2.0245h0.2319c-0.6038-3.0623-3.1405-7.0328-5.7138-9.057
		c-0.8314-0.6542-1.6617-1.0995-2.4202-1.2347c-0.7217-0.1284-1.3831,0.0295-1.9194,0.5664
		c-0.8932,0.8943-1.4748,2.8077-1.4941,6.1328C253.2946,15.0846,255.0906,15.5965,256.923,16.1187L256.923,16.1187z
		 M242.3761,12.9447c1.8672,0.8136,4.3197,1.7516,4.9629,1.9576c1.2441-0.0388,2.789-2.4041,3.5796-5.0626V9.8388
		c0.2827-0.9499,0.4652-1.9352,0.4995-2.8633c0.034-0.9171-0.0757-1.7802-0.3756-2.4984c-0.5204-1.2469-1.6396-2.0645-3.6193-1.9684
		c-1.5812,1.7195-2.9259,3.6613-4.2712,5.6049c-0.9057,1.3082-1.8122,2.6192-2.7902,3.8627
		C240.6305,12.1607,241.4194,12.5281,242.3761,12.9447L242.3761,12.9447z"/>
</g>
</svg>
