<?xml version="1.0" encoding="utf-8"?>
<!-- Generator: Adobe Illustrator 21.1.0, SVG Export Plug-In . SVG Version: 6.00 Build 0)  -->
<svg version="1.1" id="h" xmlns="http://www.w3.org/2000/svg" xmlns:xlink="http://www.w3.org/1999/xlink" x="0px" y="0px"
	 viewBox="0 0 494.928 181.152" enable-background="new 0 0 494.928 181.152" xml:space="preserve">
<g>
	<path fill-rule="evenodd" clip-rule="evenodd" d="M137.736,181.152c-1.44-0.432-2.88-0.864-4.32-1.296
		c-14.616-3.312-30.312-8.208-44.136-12.24c-6.768-0.864-12.744-4.176-19.224-4.68c-15.912-0.432-31.824-0.864-47.736-1.224
		c-7.416-4.32-15.84-8.352-22.32-12.888c0-12.888,0-25.776,0-38.664c13.896-6.912,14.688-4.176,25.2,3.096
		c4.248,0,13.176,0,17.136-1.584c0.72-2.592,1.512-5.184,2.304-7.776c13.536,0.072,51.768,5.328,61.488-4.392
		c3.816-8.64,7.848-17.352,11.448-26.064c-22.032-1.2961-44.064-2.592-66.096-3.816c1.152-2.664,2.088-4.824,3.456-7.2
		c30.528-12.312,62.208-25.416,93.024-38.088c0.288-0.432,0.288-0.432,2.376-12.312c-5.328,0,1.728-10.296,2.304-12.024
		c0.504,0,1.08,0.072,1.656,0.144c1.512,6.768,0.144,5.76,6.984,7.92c-3.672,4.104-8.856,7.992-5.976,14.76
		c7.272-0.648,7.272-0.648,9.072-1.008c1.44-0.72,1.44-0.72,1.8-0.648c0,0.216,0.072,0.504,0.144,0.792
		c16.632-1.44,33.336-2.88,50.04-4.248c21.456,0.864,21.456,0.864,52.92,2.664c61.56,3.24,123.12,6.48,184.68,9.72
		c12.4561,2.52,12.4561,2.52,13.3201,2.88c9,25.776,18.504,51.552,27.6479,77.904c0,1.8719-6.552,10.944-7.416,12.384
		c0,4.3199,0.576,9.36,0.6479,14.4c-29.8799,3.888-59.976,7.344-89.784,10.872c-12.816,3.816-29.088,1.584-41.4,5.256
		c-12.6,1.008-25.1281,3.672-36.936,4.464c-0.36,0.216-2.52,0.36-3.024,0.576c-32.544,1.944-65.736,10.224-97.56,12.024
		c-6.048,3.6-20.016,0.144-25.56,3.456C175.176,175.32,155.664,181.152,137.736,181.152L137.736,181.152z M138.096,178.416
		c-55.656-15.48-55.656-15.48-56.52-15.912c0.144-0.144,0.288-0.216,0.504-0.288c34.848-3.312,69.696-6.624,104.616-9.864
		c25.416-5.04,54.072-2.664,79.92-7.776c13.248-0.648,26.568-3.168,39.744-3.744c3.024-0.36,6.12-0.648,9.2159-0.936
		c55.7281-2.952,112.68-11.736,168.984-15.84c0.144,2.16,0.2881,4.392,0.432,6.624C362.448,142.488,239.328,155.088,117.216,167.4
		c0,0.864,0.072,1.728,0.144,2.592c15.912-1.008,36.36-2.016,52.776-5.256c104.688-10.44,209.88-20.304,315.144-31.176
		c-0.072,0.504-0.144,1.08-0.144,1.656c-115.704,13.968-230.904,28.44-345.96,43.2C138.816,178.416,138.456,178.416,138.096,178.416
		L138.096,178.416z M72.576,160.272c-16.56-0.432-33.048-0.864-49.536-1.296C2.736,147.312,2.736,147.312,2.448,146.88
		c0.144-11.592,0.288-23.184,0.432-34.704c2.088-0.144,21.744,3.888,21.96,4.176c9.144-0.576,18.216-2.016,27.72-1.512
		c0.504,11.808,1.008,23.616,1.584,35.424c10.152-0.072,11.736-0.288,29.016-0.72c0.504-10.152-1.296-21.024-1.08-30.672
		c60.48-2.88,60.48-2.88,60.84-3.096c1.512-0.288,18.648-4.392,19.08-3.744c-5.184,2.52-10.368,5.112-15.48,7.704
		c-21.312,0.576-42.048-0.216-62.64-0.072c0.648,19.656,0.648,19.656,1.224,30.24c6.408-2.952,15.336-2.736,22.896-2.952
		c44.856-3.384,90.216-4.968,135.576-9.576c4.68,0,10.152-1.296,15.264-1.152c0,0.648-5.544,1.152-6.264,1.584
		c2.16,0.576,6.192-1.008,8.64-2.232c76.536-7.848,153-16.344,230.0399-23.472c-0.576,2.448-3.9599,6.4799-5.6159,8.9279
		C347.904,134.064,210.24,147.168,72.576,160.272L72.576,160.272z M23.616,155.088c-6.552-4.176-13.104-8.28-19.584-12.3839
		c-0.144-9.72-0.288-19.44-0.432-29.16c6.84,2.088,13.68,4.248,20.52,6.408c0.072,11.736,0.144,23.544,0.216,35.352
		C24.048,155.232,23.832,155.16,23.616,155.088L23.616,155.088z M42.12,150.552c-0.288,0-14.328,0-15.912-0.792
		c-0.072-9.7921-0.144-19.584-0.216-29.376c7.128,0.072,14.328,0.144,21.528,0.216c0.648,25.92,0.648,25.92,0.576,29.952
		C46.08,150.552,44.064,150.552,42.12,150.552L42.12,150.552z M21.096,150.336c-2.376-1.512-2.52-1.8-14.256-9.072
		c-0.072-1.5121-0.144-3.024-0.144-4.4641c2.592-0.288,5.184-0.504,7.776-0.72c2.808-18.504,2.664-22.176,2.088-0.72
		c1.584,0,3.24,0,4.896,0c0.072,13.32,0.072,13.32-0.144,14.904C21.24,150.264,21.168,150.264,21.096,150.336L21.096,150.336z
		 M44.28,147.816c-5.112-0.216-10.224-0.432-15.264-0.576c-0.072-4.104-0.144-8.208-0.216-12.24
		c5.472-0.432,10.944-0.864,16.416-1.296c0,4.68,0,9.36,0.072,14.0399C44.928,147.744,44.568,147.744,44.28,147.816L44.28,147.816z
		 M56.52,147.6c-0.144-4.68-0.288-9.36-0.36-14.04c7.848-0.36,15.696-0.648,23.616-0.936c0.144,4.68,0.288,9.36,0.504,14.112
		C72.36,147.024,64.44,147.312,56.52,147.6L56.52,147.6z M87.696,145.296c-0.288-4.464-0.504-8.928-0.72-13.392
		c3.24,0,6.552,0,9.864,0c0,0.216,0,0.432,0,0.72c5.616,1.008,7.56,1.152,14.4,2.52C109.296,137.448,89.712,145.296,87.696,145.296
		L87.696,145.296z M97.92,144.72c0-0.216,0-0.432,0-0.576c9.792-4.3199,19.944-8.856,30.096-13.032
		c0.504-0.72,31.608-14.76,32.04-14.976c4.968-0.936,6.192-5.184,7.632-9.432c6.552-14.544,13.104-29.0161,19.728-43.488
		c95.616,0,192.168,0.792,288.36,1.368c3.816,12.096,10.296,25.632,13.536,38.7361c0.216,0.144,2.088,4.536,1.9439,5.976
		c-4.1039,0.36-8.2079,0.792-12.2399,1.224c0.288-3.096,0.576-6.192,0.936-9.216c3.312-11.016-8.064-24.84-11.376-34.92
		c-5.616,0.36-11.232,0.72-16.776,1.08c4.6081,15.192,9,27.936,7.9201,44.928c-19.2961,2.088-40.752,5.904-59.76,5.904
		c-1.008-2.376-1.728-4.176-2.304-6.192c0.504-0.0721,0.504-0.0721,0.72-0.36c-0.432-0.072-0.792-0.144-1.152-0.144
		c0-0.72,0-0.72,0.216-0.936c-1.944-0.648-18.864-45.432-19.08-45.792c-9.504-0.072-19.008-0.072-28.44-0.072
		c0.36,1.224,0.72,2.448,1.08,3.744c-0.216,0-0.36,0-0.504,0c0-0.216,0-0.36,0-0.504c-53.28,0.576-106.56,1.224-159.84,1.872
		c-5.184,8.064-12.888,30.024-16.776,39.672c62.712-0.648,126.288-5.616,189.576-7.2c0,0.288,0,0.576,0.072,0.936
		c-0.288,0.216-185.472,11.592-195.048,12.312c-15.048,6.624-30.024,13.248-45,19.944c-1.152,2.592-2.304,5.256-3.384,7.92
		C112.68,143.856,105.264,144.288,97.92,144.72L97.92,144.72z M246.456,137.808c1.8,0,3.6,0,5.4,0
		C250.056,137.808,248.256,137.808,246.456,137.808L246.456,137.808z M6.696,133.992c-0.144-5.544-0.288-11.016-0.36-16.488
		c1.944,0.072,4.032,1.368,6.624,1.872c0.144,4.392-0.36,9.288-1.008,14.184C11.376,133.776,11.376,133.776,6.696,133.992
		L6.696,133.992z M114.48,132.696c-5.256-0.792-10.44-1.584-15.624-2.376c0.216-1.8,0.216-1.8,1.8-7.776c6.984,0,13.968,0,21.024,0
		c0,1.152-5.4,8.568-6.48,10.152C114.912,132.696,114.696,132.696,114.48,132.696L114.48,132.696z M19.8,132.552
		c-0.216-0.072-0.216-0.072-0.288-10.728c0.864-0.0721,0.864-0.0721,1.728,0.216c0.072,3.384,0.144,6.7679,0.288,10.224
		C21.168,132.624,20.232,132.552,19.8,132.552L19.8,132.552z M28.8,132.12c0-2.952,0-5.904,0-8.856
		c4.176,0.072,8.352,0.144,12.6,0.216c0,1.944,0.072,5.256-0.72,7.776C36.72,131.544,32.76,131.832,28.8,132.12L28.8,132.12z
		 M119.52,131.76c0.72-2.88,4.176-6.84,5.76-9.144c4.608,0.072,9.216,0.144,13.896,0.216
		C126.936,128.592,126.936,128.592,119.52,131.76L119.52,131.76z M43.92,130.896c-0.792-0.216,0.36-6.768,0.36-7.272
		c0.144,0,0.36,0,0.576,0c0,2.376,0,4.752,0.072,7.2C44.568,130.824,44.208,130.824,43.92,130.896L43.92,130.896z M56.016,130.752
		c-1.368-0.6479,3.456-4.248,3.672-4.392c0.648-3.384,0.936-7.056,1.008-10.08c-1.8,0.144-3.528,0.288-5.256,0.504
		c-0.144-1.656-0.288-3.24-0.36-4.824c-3.312,0-6.624,0-9.864,0c0.576-2.736,0.576-2.736,1.44-5.112
		c8.784-0.072,39.024,0.288,46.8,0.576c-1.152,1.368-6.624,3.744-8.496,4.752c-6.48,4.536-9,5.976-12.24,8.208
		c-0.072-2.16-0.072-2.16,0.576-9.504c-3.816,0.504-7.632,1.008-11.448,1.584c-0.216,0.936-0.36,9.72-0.648,11.88
		c2.376,0,4.608-1.728,7.056-1.44c-2.304,2.808-9.792,4.968-11.736,7.848C56.304,130.752,56.16,130.752,56.016,130.752
		L56.016,130.752z M62.64,130.68c0-0.216,0-0.432,0.072-0.576c1.152-0.432,3.456-2.808,4.464-2.808c0,0.072,0.072,0.144,0.144,0.216
		c-0.288,0.288-0.576,0.576-0.864,0.936c0.288,0.072,1.656-0.648,1.944-1.224c-0.288-0.072-0.576-0.144-0.864-0.216
		c2.376-2.16,8.568-6.984,11.52-7.704c0.144,3.4561,0.288,6.912,0.432,10.44C77.112,130.896,65.376,130.608,62.64,130.68
		L62.64,130.68z M86.976,129.24c-0.072-2.304-0.144-4.5359-0.216-6.768c3.528,0,7.128,0,10.728,0.072
		c0,1.584-0.72,4.464-1.44,6.4799C93.024,129.096,90,129.168,86.976,129.24L86.976,129.24z M55.8,125.784
		c-0.216-5.544-2.016-5.832,2.16-6.192C57.96,120.96,57.888,125.208,55.8,125.784L55.8,125.784z M64.296,120.744
		c0.072-1.944,0.144-3.888,0.216-5.7599c1.728-0.72,3.456-0.72,5.688-0.864c-0.216,1.656-0.36,3.384-0.504,5.112
		C67.896,119.736,66.096,120.24,64.296,120.744L64.296,120.744z M84.816,115.92c0.144-0.504,1.224-2.16,1.944-1.08
		c0-0.216,15.192-9.576,16.416-9.432c0.288,1.44-0.504,2.88-1.08,4.392c0.36,0,0.792,0.072,1.224,0.144
		c-1.512,4.896-1.512,4.896-1.8,5.112C95.904,115.344,90.36,115.632,84.816,115.92L84.816,115.92z M104.76,114.84
		c0.072-0.72,0.288-0.936,1.656-4.608c18,1.44,18,1.44,19.512,1.368c4.32-13.752,10.44-26.712,15.048-39.96
		c-6.624,0.576-13.248,1.152-19.872,1.8c0-1.152,0.648-2.0161,0.576-2.52c-0.36-0.216-0.72,0-0.864-0.144
		c-21.6,0-43.848-2.448-65.016-3.672c0.072-0.72,0.072-0.72,0.72-2.0161C99.216,63,141.48,61.92,184.68,62.28
		c-0.936,2.808-2.736,6.048-4.248,9.144c-21.528,2.16-19.512-0.144-25.56,16.776c-1.44,3.024-2.52,5.76-2.88,6.12
		c-1.008-4.032,6.552-18.72,7.704-23.76c-5.904,0.072-11.808,0.216-17.64,0.36c-5.112,14.256-10.224,28.872-15.984,42.984
		C118.944,114.192,111.816,114.48,104.76,114.84L104.76,114.84z M129.24,113.76c5.04-13.3921,9.648-27.144,14.76-40.032
		c3.888-0.144,7.776-0.216,11.736-0.288c-2.808,11.016-8.64,28.296-13.68,39.672C137.736,113.328,133.488,113.544,129.24,113.76
		L129.24,113.76z M18.576,112.536c-1.944-0.288-6.552-1.44-7.2-2.088c2.304-2.304,5.112,0.072,7.704,1.944
		C18.864,112.392,18.72,112.464,18.576,112.536L18.576,112.536z M178.416,106.632c-0.576-0.288,11.88-29.16,13.752-33.768
		c0.864-0.144,1.728-0.288,2.592-0.36c-0.072,11.16-0.144,22.32-0.144,33.552C189.216,106.2,183.816,106.416,178.416,106.632
		L178.416,106.632z M197.496,105.912c0-11.088,0-22.176,0-33.264c7.344-0.144,14.688-0.216,22.104-0.288
		c-0.144,10.8-0.216,21.672-0.288,32.544C212.04,105.192,204.768,105.552,197.496,105.912L197.496,105.912z M222.12,104.904
		c0.072-10.944,0.144-21.816,0.216-32.688c7.56-0.072,15.12-0.144,22.68-0.216c-0.072,10.584-0.144,21.24-0.216,31.896
		C237.24,104.184,229.68,104.544,222.12,104.904L222.12,104.904z M247.68,104.04c0-10.7281,0-21.384,0-32.04
		c5.976-0.072,11.952-0.144,18-0.144c1.296,9.576,0.72,20.664,0.576,31.32C260.064,103.464,253.872,103.752,247.68,104.04
		L247.68,104.04z M269.28,102.96c-0.288-10.44-0.504-20.808-0.72-31.176c6.84-0.072,13.68-0.144,20.52-0.144
		c0.144,9.648,1.584,20.088,1.296,30.456C289.8,102.312,289.8,102.312,269.28,102.96L269.28,102.96z M293.4,102.096
		c-0.288-1.872-0.288-1.872-1.584-30.6721c7.848-0.072,15.696-0.144,23.544-0.144c-0.0721,9.936-0.0721,19.872-0.0721,29.88
		C315,101.376,315,101.376,293.4,102.096L293.4,102.096z M318.24,101.16c0-10.008,0-19.944,0-29.88
		c4.968-0.072,9.936-0.144,14.976-0.216c-0.072,9.792-0.144,19.584-0.216,29.448C328.032,100.728,323.136,100.944,318.24,101.16
		L318.24,101.16z M397.08,100.656c-3.168-2.376-12.6-26.208-16.2-34.128c16.704-0.144,33.624,0.2881,51.12,0.7921
		c2.304,7.56,4.608,15.12,6.912,22.68c0.3599,1.008,2.304,5.904,2.0879,7.272C426.456,99.504,410.904,99.864,397.08,100.656
		L397.08,100.656z M336.096,100.44c0-9.792,0-19.584,0-29.376c4.104-0.072,8.208-0.072,12.384-0.072
		c0.432,0.72,2.304,4.968,2.592,6.552c0.216,0.216,9,20.088,8.424,21.888C351.648,99.72,343.872,100.08,336.096,100.44
		L336.096,100.44z M400.176,97.632c-0.144-0.072-0.864-27.648-0.72-27.864c12.9601-0.072,12.9601-0.072,22.824,0.216
		c-0.288,8.64-0.576,17.28-0.864,25.992C414.288,96.48,407.232,97.056,400.176,97.632L400.176,97.632z M467.64,95.976
		c-2.304-7.272-4.608-14.472-6.8401-21.672c1.3681-0.072,2.952-1.008,4.6801,0.504c1.224,2.592,9,18.216,8.28,20.448
		C469.296,95.976,469.296,95.976,467.64,95.976L467.64,95.976z M424.44,95.904c0.432-20.88,0.432-20.88,0.72-25.92
		c1.512,0,3.096,0,4.68,0c0.864,2.952,7.848,22.968,7.416,24.912C432.936,95.184,428.688,95.544,424.44,95.904L424.44,95.904z
		 M396.72,93.528c-6.48-13.608-11.592-23.544-10.944-24.192c3.528,0.072,7.056,0.144,10.584,0.216
		c0.792,7.56,0.648,15.984,0.648,24.048C396.864,93.528,396.792,93.528,396.72,93.528L396.72,93.528z M64.656,61.92
		c0-0.216,0-0.432,0-0.576c8.136-1.152,18.936-10.224,27-10.8c0,0.216,0,0.432,0,0.72c1.008,0,2.016,0,3.024,0
		c0,1.08-11.304,8.856-12.6,9.792C76.248,61.344,70.416,61.632,64.656,61.92L64.656,61.92z M457.5599,61.632
		c-89.5679-0.504-179.1359-0.936-268.7039-1.368c0-0.288,0-0.576,0-0.864c-15.84-0.144-31.608-0.288-47.376-0.36
		c0-1.5121,5.904-4.104,7.416-4.968c88.992,2.16,178.344,2.664,267.84,3.384c50.76,0.72,50.76,0.72,56.6641,1.008
		c1.008,2.88,1.008,2.88,0.936,3.168C468.72,61.632,463.104,61.632,457.5599,61.632L457.5599,61.632z M87.336,60.984
		c0-1.008,11.232-8.712,12.744-9.792c2.016-0.216,44.856-1.656,50.256-1.656c-5.112,3.24-10.224,6.48-15.336,9.72
		C119.088,59.832,103.176,60.408,87.336,60.984L87.336,60.984z M461.8799,55.296c-0.288-0.072-0.576-0.072-0.864-0.072
		c-2.664-16.92-2.664-16.92-3.096-21.384c2.304,0.432,4.68,0.864,7.056,1.296c0.576,0.936,7.2719,18.864,6.984,20.16
		C468.576,55.296,465.192,55.296,461.8799,55.296L461.8799,55.296z M452.16,55.152c-5.328-0.144-10.656-0.216-15.912-0.288
		c0-5.5439,0-11.088,0.072-16.56c4.176,0.0721,4.176,0.0721,19.296,1.008c1.2241,4.032,2.16,10.584,2.376,15.768
		C456.048,55.08,454.104,55.08,452.16,55.152L452.16,55.152z M432.936,54.936c-6.552-0.144-13.104-0.288-19.584-0.432
		c-0.216-5.904-0.432-11.808-0.576-17.64c6.84,0.36,13.68,0.72,20.52,1.152c0,5.616,0,11.232,0.0721,16.848
		C433.08,55.08,433.08,55.08,432.936,54.936L432.936,54.936z M403.92,54.576c-4.752-0.072-9.504-0.144-14.184-0.216
		c-1.944-17.136-1.944-17.136-1.944-18.576c6.768-0.288,14.832,0.432,22.248,1.08c0.144,5.832,0.288,11.7361,0.432,17.64
		C408.24,54.504,406.08,54.504,403.92,54.576L403.92,54.576z M376.2,54.36c-0.144-3.888-1.8-7.344-2.52-10.296
		c-0.288-0.072-0.576-0.144-0.864-0.144c-0.72-1.6559-1.368-3.312-2.016-4.896c-0.936-0.144-1.872-0.288-2.808-0.36
		c-0.144-1.368-0.288-2.736-0.432-4.104c5.76,0.288,11.52,0.576,17.28,0.864c0.648,6.192,1.368,12.4561,2.088,18.72
		C383.328,54.216,379.728,54.288,376.2,54.36L376.2,54.36z M365.04,54.072c-68.544-0.864-137.088-1.728-205.56-2.52
		c-1.8-0.144-3.6-0.288-5.328-0.432c0-1.8,1.728-0.864,2.448-1.944c72,0,143.856,3.168,216.36,3.528c0,0.432,0,0.864,0.072,1.296
		C370.368,54,367.704,54,365.04,54.072L365.04,54.072z M119.88,39.312c-0.072-0.072-0.144-0.144-0.144-0.216
		c8.496-3.528,27.72-13.464,36.36-13.248c-0.216,0.288-0.216,0.288-24.12,12.888C127.944,38.88,123.912,39.096,119.88,39.312
		L119.88,39.312z M361.656,38.592c-17.28-0.576-17.28-0.576-18.144-0.7921c-0.6479-1.944-1.008-3.456-1.1519-4.5359
		c7.344,0.36,14.76,0.72,22.176,1.08c0.144,1.368,0.288,2.736,0.432,4.176C363.816,38.52,362.736,38.52,361.656,38.592
		L361.656,38.592z M139.68,38.304c0-0.792,24.336-13.248,24.336-13.248c12.168-1.728,30.456-4.536,43.2-3.528
		c-7.2,4.752-14.4,9.504-21.6,14.328C170.28,36.648,154.944,37.44,139.68,38.304L139.68,38.304z M254.016,37.656
		c-20.952-0.504-41.904-1.008-62.856-1.5121c0-1.584,20.736-13.8239,22.68-15.408c11.664-0.72,24.192,0.792,36.216,1.368
		c0,4.464,5.112,10.584,5.112,15.336C254.88,37.656,254.88,37.656,254.016,37.656L254.016,37.656z M333.936,37.656
		c-6.624-0.216-19.8,1.224-21.6-6.192c8.928,0.504,17.856,1.008,26.784,1.584c0.36,1.512,0.72,3.024,1.152,4.536
		C338.112,37.584,336.024,37.584,333.936,37.656L333.936,37.656z M311.256,36.936c-8.064-0.36-16.128-0.648-24.12-0.936
		c-1.368-5.256-1.368-5.256-1.296-5.904c6.984,0.36,14.04,0.72,21.096,1.08c1.512,0.288,4.248,3.672,5.904,5.4
		C312.696,36.792,312.696,36.792,311.256,36.936L311.256,36.936z M450.936,36.216c-65.736-3.672-131.472-7.272-197.208-10.872
		c-0.36-1.008-0.72-2.016-1.008-3.024c66.744,3.312,134.568,6.624,201.816,10.656c0.288,0.36,0.432,2.088,0.36,3.24
		C453.528,36.216,452.232,36.216,450.936,36.216L450.936,36.216z M282.096,35.856c-8.208-0.288-16.344-0.576-24.48-0.864
		c-1.656-1.656-2.376-5.04-2.52-6.552c8.712,0.36,18.216,0.792,27.36,1.512c1.656,5.328,1.656,5.328,1.584,5.904
		C283.392,35.856,282.744,35.856,282.096,35.856L282.096,35.856z"/>
</g>
</svg>
