<?xml version="1.0" encoding="utf-8"?>
<!-- Generator: Adobe Illustrator 21.1.0, SVG Export Plug-In . SVG Version: 6.00 Build 0)  -->
<svg version="1.1" xmlns="http://www.w3.org/2000/svg" xmlns:xlink="http://www.w3.org/1999/xlink" x="0px" y="0px"
	 viewBox="0 0 126.4332 56.0534" enable-background="new 0 0 126.4332 56.0534" xml:space="preserve">
<g>
	<path fill-rule="evenodd" clip-rule="evenodd" d="M11.0783,56.0534c1.9769,0,3.8917-0.8856,5.8893-1.4003
		c2.0798-0.906,4.3654-1.0503,6.5276-1.6886c1.4-0.1647,2.6974-0.7617,4.0771-0.9881c0.5972-0.3297,1.3178-0.3297,1.8533-0.6591
		c0.7824-0.0618,1.3589-0.4119,2.1002-0.5559c0.4737-0.2265,1.0913-0.3297,1.5032-0.4737c0.4944-0.2265,1.0295-0.2265,1.4621-0.4326
		c0.9471-0.1236,1.7708-0.7412,2.6356-0.8031c1.3178-0.5766,2.7388-0.803,4.036-1.2971c1.112-0.3297,2.1623-0.5973,3.1711-0.9062
		c1.4003-0.6588,2.9857-0.803,4.386-1.2354c1.7708-0.3293,3.3358-0.8237,5.0451-1.2767c0.9266-0.3501,1.7501-0.7001,2.6767-0.8855
		c0.3912-0.144,0.6795-0.2675,1.0709-0.3293c1.8737-0.5973,3.8095-1.1942,5.7243-1.565c1.9357-0.5352,3.7272-1.2354,5.7863-1.6268
		c4.489-0.3705,8.8957-0.453,13.364-0.144c0.7001,0,1.3178,0.0618,2.018,0.0825c1.1531,0.0615,2.1416,0.0204,3.274,0.0822
		c3.5008-0.0207,7.3514-0.3912,9.1633-3.4183c0.8855-1.3178,0.9884-3.1505,1.5857-4.5919c0.3501-0.2265,0.8855-0.3293,0.9884-0.8237
		c0.0618-0.7206-0.4736-1.1736-0.2472-1.7915c0.0825-1.3797-0.5355-2.5328-1.3178-3.2122c-0.1443-0.144-0.309-0.2265-0.3708-0.3705
		l3.5212-2.2859c0.0618-0.0618,0.0825-0.1236,0.1647-0.1236c0.0618-0.0204,0.1236-0.1233,0.1854-0.1647
		c0.8856-0.4737,1.5239-1.1736,2.4505-1.6061c0.8235-0.9266,1.6472-1.1121,2.4299-1.8119c0.453-0.2472,0.8649-0.4119,1.256-0.7002
		c1.8533-1.4621,3.6448-2.5742,5.4156-4.1184c0.5355-0.3705,1.0295-0.6588,1.5032-1.0089c0.4941-0.3914,0.9678-0.5972,1.4001-1.0091
		c0.7826-0.5559,1.7297-0.8238,2.4916-1.4825c0.5766-0.4737,1.1738-0.659,1.7504-1.0295c0.6588-0.7209,1.6061-1.1328,2.4299-1.7093
		c1.0502-0.5148,1.7501-1.3383,2.7799-1.9562l0.6999-0.7619c0.2679-0.5148,0.618-1.1531,0.4119-1.8119
		c-0.4119-0.3294-1.0089-0.6177-1.6061-0.5973c-2.8828,0.1854-5.8893,0-8.4631,1.1738c-0.309,0.2058-0.5559,0.453-0.8649,0.5148
		l-2.5946,1.5854c-1.0913,0.5972-2.2652,1.1945-3.2122,1.915c-3.6244,1.7297-6.857,3.8506-10.6047,5.457
		c-0.4326,0.1647-0.7415,0.3705-1.112,0.5352c-0.3708,0.0825-0.5972,0.2678-0.9678,0.3501
		c-2.3476,1.2356-4.6332,2.3063-6.8777,3.6654c-0.9884,0.5352-1.6886,1.1118-2.7388,1.5443c-0.0618,0-0.144,0.0822-0.1647,0.144
		l-1.5854,0.9063c-0.3912,0.1235-0.7413,0.1647-1.112-0.1032c-0.8855-0.5559-1.6061-1.5029-2.4503-2.1209
		c-1.2149-0.9677-2.2652-1.9151-3.583-2.6974c-0.5355-0.1647-0.9473-0.6591-1.6061-0.803
		c-0.7415-0.2472-1.2149-0.7413-1.9976-0.8237c-1.6886-0.5766-3.4387-0.762-5.2095-0.8649
		c-0.2883,0.0414-0.4326,0.1854-0.6798,0.1236c-0.144-0.144,0.0825-0.3705-0.0618-0.5355c0.0618-0.4734,0.2265-0.7206,0.3708-1.1324
		c0-0.0207,0.0618-0.0411,0.1236-0.0825c0.2472-0.3294,0.597-0.8853,0.2883-1.3589c-0.4737-0.6384-0.8648-1.0913-1.4003-1.6472
		c-0.1029-0.0414-0.144-0.0825-0.144-0.0825c-0.0618,0-0.1236,0-0.2061,0c-0.4119,0.2676-0.1236,0.8649-0.1236,1.2149
		c0.1236,0.2472,0.0414,0.3708,0.1236,0.5148c-2.2652,0.6591-5.1477,0.2472-7.454,1.1531
		c-0.0414,0.1236-0.0825,0.1854-0.1032,0.2472c0.0207,0.1029,0.1443,0.2265,0.2883,0.2469l7.1249-0.2058v1.5239
		c-0.453,0.597-1.3385,0.144-1.9358,0.4941c-0.4119,0-0.7002-0.0411-1.0502,0.0411c-1.7501,0.0618-3.3976,0.5148-5.1273,0.4737
		c-1.0499,0.1854-2.018,0.3708-3.0268,0.1854c-1.3178-1.0296-1.9355-2.6564-3.3976-3.7684c-0.0207,0-0.0825,0-0.1443,0
		c-0.0618,0.0207-0.1029,0.0825-0.1647,0.1647c-0.0411,0.2678,0.2265,0.3501,0.2472,0.5972
		c0.7823,1.1324,1.6679,2.0387,2.1827,3.274c-0.8441,0.2265-1.7708,0.2472-2.6974,0.4737c-1.4621,0-2.9035,0.2675-4.3449,0.35
		l-0.4323-0.7208c-0.2883-0.1029-0.618-0.0204-0.8855,0.1236c-0.1029,0.0825-0.1029,0.1236-0.144,0.2061l-0.0825,0.6795
		c-0.5148,0.1647-1.2561,0.2883-1.7708,0.2058c-0.6795-0.7206-1.0091-1.3589-1.6679-2.018c-0.3915-0.6176-0.968-1.1118-1.2974-1.709
		l2.5328-4.2214c0-0.2882,0.309-0.3705,0.2679-0.7205c0.3294-0.453,0.5559-1.0295,0.8853-1.5239
		c0.6591-1.1324,1.4003-2.2238,1.874-3.5416c0.1854-0.309,0.5766-0.5766,0.4941-1.0298c-0.3705-0.9471-1.0913-1.6883-2.0591-1.9148
		c-0.5148-0.0207-0.9059-0.0618-1.4207,0.0618c-0.7208,0.3087-1.4621,0.2057-1.9769,0.7412
		c-0.5973,0.2469-1.112,0.5147-1.6061,0.8648c-0.6591,0.6795-0.9473,1.2767-1.5239,1.9355c-0.2265,0.309-0.453,0.6795-0.6794,0.9059
		c-0.0825-0.0411-0.1443,0.0618-0.0825,0.1236l-1.9148,2.4916c-1.5446,1.6886-2.8417,3.4801-4.386,5.2098
		c-0.8445,1.0706-1.6886,1.9973-2.3681,3.0268l-1.3796,1.565l-4.0774-1.3385c-2.9032-0.4941-5.5803-1.5443-8.1748-2.4092
		c-0.7619-0.2265-1.3796-0.2883-2.0387-0.5148c-1.5236-0.144-3.0886,0.2883-4.489,0c-0.1236,0.0411-0.1851,0.0618-0.2265,0.2058
		l0.2883,0.3501l1.7297,0.6797c0.6384,0.0822,1.2149,0.5766,1.874,0.6588c3.7681,1.6268,7.8659,2.8624,11.5107,4.5507
		c0.3294,0.0825,0.6384,0.1029,0.8856,0.2265c0.0411,0,0.0618,0.0618,0.0618,0.1032c-0.1443,0.1851-0.3297,0.3705-0.3297,0.6381
		c0.8238,1.421,2.327,1.7711,3.4801,2.7389c1.3385,0.7823,2.5121,1.6061,3.9535,2.2856c0.3708,0.2679,0.7826,0.4326,1.1738,0.659
		c3.9949,2.1003,7.969,4.2214,11.9225,6.3011c0.6591,0.4116,1.2563,0.7206,1.8533,1.1736c1.1942,0.8444,2.4917,1.6061,3.8095,2.327
		c0.1647,0.144,0.3912,0.2471,0.4326,0.4529c-0.0414,0.2676-0.1236,0.5148-0.3501,0.6591c0.1029,0.1647-0.0414,0.2469-0.0825,0.3705
		c-0.0618,0.0618-0.0822,0.0825-0.2058,0.1236c-0.0207,0.0411-0.0825,0.0825-0.1236,0.1646l-9.1429,3.2947l-2.1827,0.8441
		c-1.5443,0.3501-3.1093,0.9474-4.6743,1.3796c-1.0913,0.4944-2.1002,0.8238-3.274,1.1531
		c-1.9973,0.4737-3.7888,1.4003-5.6214,1.9976c-0.7415,0.2469-1.4621,0.4737-2.2034,0.803
		c-1.4825,0.3912-2.7799,1.0502-4.242,1.5443c-1.8326,0.4529-3.5416,1.0502-5.3538,1.709c-0.7413,0.309-1.5236,0.4532-2.1827,0.7209
		c-1.6886,0.2883-3.4183,1.1121-5.0037,1.6268c-0.9473,0.5148-2.2445,0.5766-3.1918,0.8442C3.0064,53.9943,1.4414,53.9943,0,54.4884
		c0,0,0,0.0825,0.0411,0.1029c0.5355,0.3708,1.1945-0.0822,1.7915,0.1029c1.7504,0,3.3976,0.2472,5.0655,0.5355
		c0.3915,0.1443,0.7415,0.206,1.112,0.3501C9.0811,55.7651,10.0692,55.8887,11.0783,56.0534L11.0783,56.0534z M11.4077,55.7651
		l0.7001-0.0825c0.0207,0,0.0618-0.0204,0.0825-0.1029c-0.1236-0.3294-0.453-0.4941-0.7827-0.762
		c-1.256-0.2265-2.5945-0.2265-3.7888,0.2472c0.1647,0.2471,0.6177,0.1029,0.9678,0.309
		C9.5544,55.5386,10.4811,55.6622,11.4077,55.7651L11.4077,55.7651z M12.7256,55.5797l3.4183-1.0089
		c0,0,0.0207-0.0207,0.0411-0.0825l-1.5032-1.0706l-0.7824-0.1854l-0.144-0.2883c0.1233-0.2061,0.3498-0.3708,0.6381-0.3708
		c1.0916,0,2.1212-0.2675,3.0889-0.4323c2.2856-0.4326,4.4682-1.1532,6.548-1.9769c1.1738-0.4941,2.3681-0.8031,3.5419-1.1324
		c0.5766-0.1443,1.1942-0.3297,1.7297-0.4326c0.3705-0.1854,0.7413-0.144,1.0502-0.3501c0.7206-0.2472,1.4618-0.3705,2.1416-0.6588
		c1.9973-0.8031,4.0359-1.5033,6.0332-2.1623c1.4414-0.4323,2.6974-1.0295,4.0978-1.4414c1.6886-0.4736,3.1915-1.1738,4.7772-1.6472
		c0.659-0.3501,1.4003-0.4944,1.9973-0.803c1.0295-0.3297,2.1623-0.7827,3.1918-1.071c1.2149-0.6588,2.6975-0.9678,3.8917-1.5032
		c1.6064-0.5766,3.2125-0.9884,4.8393-1.5854c2.8621-1.6886,6.2805-0.9678,9.2662-0.1029c0.3294,0.1647,0.6176,0.3705,0.6384,0.7617
		c0,0.1854,0,0.309,0,0.4326c0.1647,0.144,0.3501-0.1236,0.5352-0.1443c0.1032,0,0.1032,0.0618,0.1854,0.0825
		c1.4003-0.2471,2.9035,0.0618,4.2007-0.5147c0.2883-0.1443,0.5766-0.2472,0.7413-0.4326
		c-0.0615-0.1647-0.2058-0.1647-0.3087-0.2675c-0.7002-0.4119-1.3592-0.762-2.1005-1.0706
		c-1.1943-0.6591-2.7182-0.5766-3.9946-0.8856c-0.3708-0.2061-0.7209-0.1029-1.0709-0.2883
		c-1.256-0.1029-2.3885-0.3708-3.583-0.3708c-3.9946,0.5148-8.3602,0.8856-11.9225,2.471
		c-1.0295,0.3708-1.9769,0.4118-2.9035,0.9062c-2.1002,0.7413-4.2211,1.3796-6.1773,2.2238
		c-0.8444,0.1443-1.5857,0.6591-2.327,0.7413c-1.1324,0.4737-2.1416,0.8444-3.1918,1.2149c-1.2971,0.309-2.471,0.7209-3.7063,1.0503
		c-1.1327,0.5558-2.2241,0.8441-3.3976,1.2356c-0.515,0.0204-0.9473,0.2469-1.4621,0.3501
		c-0.309,0.1647-0.6177,0.2675-0.8855,0.4116c-0.5559,0.2679-1.1942,0.3501-1.6472,0.6591c-0.0825,0-0.1236-0.0207-0.2265-0.0207
		l-0.7412,0.3501c-0.4737,0.0414-0.7619,0.1854-1.2149,0.3708c-1.6886,0.6176-3.3358,1.1324-4.839,1.7915
		c-0.4533,0.144-0.8855,0.3501-1.2974,0.4529c-1.0089,0.2058-1.8119,0.5148-2.7181,0.8031
		c-0.4737,0.2057-1.0707,0.2882-1.4618,0.5766c-0.4944,0.0207-0.8031,0.3501-1.2356,0.4118
		c-0.6591,0.1647-1.1324,0.453-1.7504,0.4737c-0.8853,0.0618-1.5647,0.597-2.4296,0.7206
		c-0.3297,0.1647-0.6591,0.3089-1.0298,0.3912c-0.597,0.1236-1.0499,0.5766-1.7708,0.6179
		c-0.4737,0.3912-1.1324,0.2265-1.6886,0.4941c-0.3087,0-0.5148,0.1236-0.7617,0.1443l-2.4299,0.9059
		c0.8031,0.2676,1.709,0.0822,2.5739,0.3705c0.9884,0.165,1.709,0.0825,2.5328-0.3294C7.9897,54.2619,8.278,54.2,8.5045,54.1794
		c1.0913,0.3297,2.8621-0.2058,3.7063,0.7826c0.1854,0.2469,0.3708,0.3912,0.4737,0.6177H12.7256L12.7256,55.5797z M84.8171,39.6416
		c1.0913-0.1233,2.1416,0,3.274,0c1.2356-0.3087,2.3474,0.0207,3.5212-0.3087c0.4737,0,0.8031-0.2679,1.256-0.1854
		c1.9151-0.8237,3.5212-1.9973,4.2625-3.933c0.0618-0.5559,0.3501-0.8648,0.3708-1.3589c0.1854-0.5355,0.3501-1.0295,0.2883-1.565
		c-0.6177,0.0618-1.1942,0.3708-1.9151,0.4323c-0.8238,0.3501-1.7501,0.2061-2.4503-0.1647
		c-0.2883-0.2058-0.3501-0.4734-0.5562-0.6177c-0.0204-0.1646-0.0204-0.2676-0.1029-0.3293l0.3708,1.0913
		c0,0.0204,0,0.1029-0.0207,0.1236c-0.3501,0.1851-0.7001,0.3294-1.1531,0.4734c-0.6795,0-1.3178,0.2267-1.9562,0.2882
		c-0.0411-0.0411-0.0825-0.1233-0.1647-0.1851c-1.9976,0.144-4.036-0.309-6.054-0.1647c-3.2122-0.3708-6.3629-0.309-9.493-0.6591
		c-1.4414-0.0207-2.8621-0.1647-4.2211-0.3707c-0.9266-0.3501-1.7297-0.3501-2.5945-0.4941c-0.5148,0-1.0091-0.1443-1.4621-0.2265
		c-0.6177-0.2061-1.1942-0.2265-1.7915-0.3708c-2.5946-0.3087-5.1891-0.9471-7.7012-1.2767
		c-1.3592-0.4116-2.6359-0.4941-3.9331-0.8648c-3.2536-0.6381-6.3215-1.668-9.4926-2.5328c-1.9151-0.6177-3.892-1.3178-5.6835-1.853
		c-0.9266-0.2472-1.6268-0.6591-2.4916-0.9474c-0.3705-0.2472-0.8649-0.309-1.1736-0.5355
		c-0.8237-0.2265-1.565-0.5148-2.2859-0.7823c-1.8944-0.5973-3.4594-1.5443-5.2095-2.1416
		c0.6384,1.1739,2.0591,1.4621,3.0475,2.4091c1.2971,0.6795,2.3681,1.5032,3.6859,2.1209c2.5738,1.5032,5.3331,2.7181,7.8248,4.201
		c0.309,0.2264,0.6384,0.3705,0.8855,0.5148c1.8326,0.7413,3.2947,1.8326,5.0037,2.6356c2.2034,1.4825,4.489,2.6768,6.7334,4.1182
		c1.2563,0.5355,2.3476-0.597,3.6037-0.597c0.9471-0.1236,1.9973-0.2679,2.9032-0.5766c2.1212-0.3912,4.2214-0.6591,6.3011-0.762
		c0.8649,0.0207,1.7297,0.1236,2.4917,0.2472c0.8856-0.0207,1.6886,0.494,2.4917,0.4529c0.6795,0.2883,1.4207,0.0411,2.1416,0.4119
		c0.5766,0.1029,1.0707,0.4119,1.6061,0.5558c0.8853,0.3912,1.5443,0.9267,2.3474,1.2768c0.0618,0.0207,0.1029,0.0825,0.1647,0.1646
		c-0.0618,0.3501-0.453,0.5148-0.7206,0.6795l-1.2563,0.4944c-0.3294,0.1029-0.6177,0.3087-0.8852,0.1029
		c-1.0914,0.0411-2.3681-0.0825-3.3154,0.5147c0,0.0618,0,0.1443-0.0822,0.1854c-0.0825,0-0.0207-0.1443-0.1443-0.1236
		c-0.0618,0.0411,0.0618,0.1236,0.0618,0.144c2.9653,0.0825,5.951-0.144,8.9575,0c0.6177,0,1.1943,0.0618,1.7297,0.0618
		C82.8609,39.5594,83.8287,39.4358,84.8171,39.6416L84.8171,39.6416z M94.3098,37.0678l1.3179-0.4941
		c0.0207-0.0207,0.0618-0.0414,0.0825-0.1443c-0.0618-0.0411,0,0-0.0825-0.0822l-1.4414,0.4323
		c-0.0822,0.0411-0.144,0.0618-0.144,0.1443C94.104,36.9856,94.1862,37.0471,94.3098,37.0678L94.3098,37.0678z M93.9597,36.4294
		c0.8649-0.0822,1.7504-0.4736,2.4094-0.9677c0.0204-0.0618,0.0204-0.1029,0-0.1854c0-0.0411-0.0414-0.0411-0.1236-0.0618
		c-0.453,0.2472-0.9885,0.6179-1.6475,0.5562l-0.2883,0.2676l-0.4941,0.2676C93.8157,36.3472,93.8775,36.4705,93.9597,36.4294
		L93.9597,36.4294z M65.6875,35.2145c0.0204,0,0.0822,0,0.144,0C65.7904,35.2145,65.7286,35.2145,65.6875,35.2145L65.6875,35.2145z
		 M95.5043,34.8644l0.2676-0.0822c0.1029-0.4119,0.2472-1.0502-0.0618-1.4414c-0.309,0.0411-0.6384,0.2469-0.7824,0.5559
		c0,0.0825,0.0411,0.1647,0.144,0.2061c0.0618-0.0414,0.1236-0.0414,0.2061-0.1032c0.0822,0,0.1233,0.1236,0.1233,0.1443
		c-0.0618,0.1236-0.1851,0.1854-0.2883,0.2883c-0.0411,0.0618-0.0411,0.1236,0,0.2058L95.5043,34.8644L95.5043,34.8644z
		 M60.2101,34.6379l0.0822-0.2676c0-0.0411-0.0204-0.1029-0.0618-0.1029l-0.0204,0.2265c-0.0207,0.0617-0.0825,0.0617-0.1647,0.1235
		C60.0454,34.6379,60.1894,34.7408,60.2101,34.6379L60.2101,34.6379z M94.1862,32.4345c0.5973,0.0207,1.1531,0,1.8122-0.144
		c1.0502-0.2883,2.0798-0.6591,2.9446-1.1738c-0.0825-0.2265-0.4326-0.144-0.5766-0.1029c-0.3501,0.0825-0.659,0.1443-0.9473,0.1029
		c-0.0822,0-0.1029,0.0414-0.1851,0.1443l-1.3796-0.3501c-0.8033,0.2058-1.5857-0.3294-2.5123-0.2883
		c-0.0618-0.0206-0.1236-0.0824-0.1236-0.0824c0,0.1236-0.0822,0.1236-0.1029,0.2265l0.5148,1.3181L94.1862,32.4345L94.1862,32.4345
		z M88.8531,32.0023h1.112c0.1029-0.0207,0.0822-0.1443,0.0204-0.2472c-0.6588,0-1.3382-0.144-2.0591-0.144
		c-0.7206,0.0204-1.3385-0.1236-1.9973,0c-1.0295-0.3708-2.1416-0.0414-3.0682-0.3501c-1.3385-0.1647-2.677-0.0208-3.9949-0.2472
		c-2.5121-0.4118-4.983-0.5148-7.4336-0.803c-1.6061-0.2265-3.2122-0.4119-4.7772-0.6177
		c-1.8944-0.2679-3.7684-0.4737-5.5599-0.7413c-0.453-0.1031-0.8649-0.1854-1.1942-0.2679c-0.5766,0-1.0089-0.3501-1.5854-0.2469
		c-0.968-0.4119-1.874-0.3915-2.8828-0.6798c-0.8031-0.1029-1.5239-0.2469-2.2859-0.3087
		c-1.0088-0.1443-1.9562-0.3297-2.9239-0.5562c-1.0502-0.597-2.3888-0.597-3.5212-1.1117c-0.5559-0.0618-0.9267-0.1854-1.4414-0.309
		c-1.6886-0.5558-3.274-1.2356-4.8801-1.6061c-1.8326-0.7002-3.4801-1.5239-5.3952-2.1416
		c-1.3178-0.5765-2.471-1.4621-3.9535-1.6061l5.601,2.6563c0.4323,0.144,0.9267,0.3705,1.4207,0.5355
		c0.3912,0.1852,0.8441,0.2469,1.1531,0.4734c1.0091,0.1854,1.9562,0.7413,2.9239,0.8856c0.3708,0.1854,0.8238,0.2883,1.1738,0.3294
		c0.6795,0.2883,1.4825,0.3708,2.2238,0.7002c1.8122,0.5559,3.6448,1.0913,5.4159,1.4207c1.6883,0.5766,3.3976,0.8649,5.0655,1.1739
		c1.4825,0.3293,3.0886,0.5559,4.5507,0.9059c0.5559,0.0207,1.0296,0.2679,1.5443,0.1647c2.0798,0.4326,4.2007,0.5973,6.2598,0.9885
		c0.4944,0.1443,0.8649-0.0822,1.2563,0.1032c1.4414,0.144,2.7796,0.3294,4.18,0.6176c2.2238-0.0618,4.4889,0.5148,6.6305,0.453
		c0.453,0.0618,0.8649,0,1.256,0.1029c0.3708-0.0618,0.8031,0,1.0295,0.0411c1.0298,0.3297,2.0387-0.0822,3.0064,0.2268
		c0.6384-0.1236,1.112,0.1028,1.6679,0C87.9057,31.9404,88.3794,31.9197,88.8531,32.0023L88.8531,32.0023z M98.8812,30.3962
		c-0.2883-0.8238-1.256-1.5857-1.9973-2.1005c-0.8031-0.5765-2.1416-0.947-2.986-0.2883c-0.3912,0.4326-0.6177,0.8445-0.6795,1.3592
		c0,0.0618,0.0618,0.144,0.0618,0.144l0.2883,0.1443l0.3912-0.1854l0.8237,0.3293l0.2883-0.0204l1.8122,0.3087
		c0.0618,0,0.1029,0.1443,0.2058,0.1647c0.0825,0,0.1029-0.0204,0.2265-0.0411l0.5972,0.0825
		c0.144-0.0618,0.2265-0.165,0.4323-0.1443L98.8812,30.3962L98.8812,30.3962z M87.5764,30.355
		c2.0387,0.2469,3.4801-0.618,5.148-1.2563c0.2676-0.9266,1.0295-1.6883,2.018-1.9355c0.1854-0.0207,0.3912-0.0207,0.5355-0.0825
		l1.8119,0.8444c0.3294-0.2471,0.8442-0.618,1.2974-0.2679c0.1851,0.2061,0.1233,0.1236,0.2058,0.1443
		c-0.309-1.2974-1.4825-1.8326-2.5327-2.4299c-3.6652-1.6061-7.9895-2.6357-11.7371-3.5829
		c-0.2883-0.144-0.5151-0.0204-0.6797,0.1236c-2.3474,1.4207-5.1273,1.9973-7.7012,3.1093c-0.309,0.0825-0.6591,0.2061-1.0295,0.309
		c-1.1738,0.5148-2.3888,0.803-3.5419,1.2149c-0.597-0.1032-0.5355-0.8031-0.8031-1.1739c-0.453-1.2767-0.947-2.4091-1.3178-3.727
		c-0.3708-0.5148-0.4737-1.1945-0.8238-1.6886c-0.1647-0.453-0.2676-0.7412-0.3087-1.2356
		c0.1029-0.4734,0.6588-0.5559,0.9882-0.8235l0.7415-0.4326l2.6357-1.4618c0.0618-0.0207,0.0618-0.0414,0.144-0.1032l1.8329-0.803
		c-1.2974-0.597-3.0271-0.6795-4.5508-0.8031c-0.4326,0-0.7415,0.2061-1.112,0.2061c-0.2883,0.2883-0.2061,0.8852-0.6795,0.9882
		c-0.3297,0.0414-0.4736-0.1029-0.5766-0.3087c-0.0618-0.2061-0.0618-0.3707-0.0414-0.5148l-8.5867,0.7206
		c-1.2971,0.0618-2.5121,0.2265-3.7477,0.3912c-2.2238,0.5151-4.53,0.3297-6.7127,0.8444c-0.1647,0.0204-0.2061,0.0822-0.2883,0.144
		l-4.2831,0.6384c-0.0825-0.0204,0,0-0.1236-0.0411c-0.0618,0-0.0204,0.1029-0.1029,0.144c0,0.0414-0.1443-0.1233-0.0618-0.1028
		l-0.3501,0.1028l0.7413,0.0414l0.3501-0.1647c1.1942,0.1647,2.4299,0.0204,3.6241,0.0618c3.1507,0,6.3011-0.6384,9.4104-0.3708
		c1.4414,0.0207,3.0475,0.0207,4.2421,0.3912l6.0126,0.5148c0.0825,0.0414,0.0618,0.206,0.0618,0.3297
		c-3.6448-0.1032-7.3925-0.5766-11.0577-0.1443c-1.1738,0-2.2856,0.3294-3.3976,0.3912c-3.9949,0.206-7.9691,0.5765-11.9225,1.2356
		c-0.2265,0.144-0.453,0.2472-0.6384,0.3087l-0.0414,0.968c1.2149,1.2149,2.7388,1.9973,4.4274,2.6357
		c0.2469,0.0825,0.3912,0.1647,0.6177,0.1647l2.9035,0.9473c0.6999,0.3501,1.5443,0.3501,2.2856,0.6795
		c6.5069,1.1324,12.911,2.3681,19.3972,3.2122c3.5212,0.7209,7.0013,0.8649,10.4607,1.3592c1.4825,0.144,2.9446,0.1029,4.386,0.1851
		C85.9496,30.2108,86.7526,30.1697,87.5764,30.355L87.5764,30.355z M68.1585,27.0807c0.2676,0.0414,0.5765-0.0618,0.7823-0.1851
		l0.1647-0.3501c-0.144-1.1739-0.8853-2.2445-1.4-3.2947c-0.2265-0.2882-0.309-0.7209-0.5355-1.0091
		c-0.144-0.5352-0.5559-0.9677-0.7206-1.4618c-0.4533-0.7002-1.0091-1.4415-1.7915-1.7711c-0.7826-0.0204-1.5032,0-2.224,0
		c-0.5148,0.0414-0.8235,0.3501-1.0296,0.7416c-0.5355,1.1735-0.906,2.6149-0.7413,3.9535
		c-0.0207,0.8237,0.2265,1.6679,0.7413,2.2238c1.8326,1.1945,4.2832,0.4944,6.3629,1.0913
		C67.932,26.9985,68.0556,27.0603,68.1585,27.0807L68.1585,27.0807z M58.151,26.1541c0.6177,0.1236,1.3178-0.0822,1.7501-0.5148
		l-0.2472-1.853c0.0414-0.0825,0.0414-0.1032,0.1032-0.2267c-0.2679-0.6795,0-1.4207-0.0414-2.1413
		c0.1443-0.3501,0.0414-0.6591,0.2679-0.9267c-0.0618-0.4118,0.3087-0.9062-0.0618-1.2767
		c-0.0618-0.1236-0.1236-0.1647-0.1647-0.2265l-3.4183-0.0618c-0.309-0.1443-0.7824-0.1029-1.112,0.144
		c-0.5766,0.5765-0.803,1.2767-0.8853,2.0797l0.0411,1.0913c-0.0411,0.0618-0.0618,0.0618-0.1236,0.1443l-0.0825,0.4941
		c0.0618,0.0207,0.0618,0.0207,0.1443,0.0825c0.0207,1.0913,0.5148,2.1208,1.1942,2.8621
		C56.2564,26.2573,57.2655,25.969,58.151,26.1541L58.151,26.1541z M53.0234,25.2481l0.2679-0.0822
		c0.0204-0.0618,0.0822-0.0825,0.1029-0.2061l-0.144-0.6177l-0.309-1.8122c0-0.0822,0.0822-0.0822,0.0822-0.2057l0.0618-0.762
		l0.2883-0.8855l0.1236-0.4323l0.3708-0.8856c0-0.0204-0.0411-0.1236-0.0618-0.144c-2.0387-0.0618-4.4067,0.7412-6.2186,1.5443
		c-0.2265,0.0825-0.2472,0.2472-0.3912,0.3912c-0.2679,0.9474-0.0207,2.0387,0.4323,2.8417
		c0.0618,0.0618,0.0825,0.0825,0.2058,0.1029c0.3708,0.5148,1.112,0.6591,1.7915,0.7826L53.0234,25.2481L53.0234,25.2481z
		 M92.6419,23.6831c2.018-0.2676,3.3565-1.6472,5.2098-2.2856c0.2058-0.1854,0.309-0.2883,0.5355-0.3294
		c2.821-1.7297,5.6421-3.3772,8.4835-5.0862c2.2241-1.7504,4.6332-2.8828,6.9395-4.5714c0.7209-0.3705,1.2974-0.7823,1.9151-1.1735
		c0.8648-0.6591,1.8119-1.0298,2.5739-1.6886c0.8237-0.4119,1.4003-0.9266,2.2652-1.2974c0.5355-0.3705,1.0502-0.6588,1.5443-1.05
		c0.4326-0.2061,0.762-0.5151,1.256-0.2472c0.4944,0.1647,0.5766,0.7619,0.803,1.112c0.5151-0.4736,1.4621-0.7209,1.4003-1.6064
		c-0.0822-0.3087-0.4119-0.4323-0.6795-0.5559c-0.2058-0.0411-0.3501-0.2472-0.4119-0.4737c0-0.2265,0.1647-0.3705,0.1443-0.5147
		c-4.201-0.2676-8.4016,0.7413-11.5313,3.1093c-0.3708,0.4118-0.968,0.4118-1.3181,0.7826
		c-1.709,1.0499-3.4798,1.9766-5.2302,2.8828c-0.1854,0.2058-0.453,0.2265-0.6588,0.3705
		c-0.4326,0.2265-0.8445,0.4119-1.2149,0.6591c-0.9267,0.3705-1.5446,1.0089-2.5327,1.4003
		c-4.0567,1.709-7.7632,3.5827-11.4285,5.5803l-3.3154,2.0385l-1.6265,0.9884l6.857,1.9769L92.6419,23.6831L92.6419,23.6831z
		 M32.3495,19.5854l1.9151-0.3087c0.0411-0.0414,0.0411-0.0825,0-0.1443l-0.453-0.144l-0.3501-0.2061l-4.5714-1.3796l-0.2883,0.2061
		c-0.0207,0-0.0825-0.0207-0.144-0.0618c-0.0825-0.0825,0-0.2265-0.0825-0.3297c-1.3796-0.4323-2.677-1.0295-4.1389-1.3796
		c-2.7592-0.453-5.3334-1.9973-7.9483-1.05c-0.5148,0.1647-0.9473,0-1.4414,0c0.6795,0.1647,1.1531,0.4734,1.8326,0.6999
		c2.1416,1.0298,4.5714,1.5239,6.5276,2.5741c1.1736,0.5148,2.4914,0.5766,3.7477,0.6588c0.0411,0.0414,0.144,0.0618,0.144,0.0618
		c0.0207,0.0414,0.0207,0.1236,0.0825,0.2061C28.8694,19.5854,30.5992,19.4207,32.3495,19.5854L32.3495,19.5854z M32.7821,18.1028
		c0.597,0,1.2764-0.2058,1.9355-0.144c1.9151-0.0618,3.3565-1.0913,4.695-1.9976c0.1851-0.0618,0.2676-0.1028,0.4116-0.1854
		c0.3915-0.6588,0.7619-1.2147,1.1327-1.853c0.7824-0.9473,1.2354-2.1212,1.8944-3.0271c1.4003-2.3474,2.7181-4.6125,3.9742-6.9806
		l-6.6098-0.5766c-3.1918,4.2007-6.857,8.072-9.9459,12.2522c-0.3705,0.4734-0.7824,0.9059-1.0913,1.4825L32.7821,18.1028
		L32.7821,18.1028z M37.8476,17.6705l2.3474-0.1235c0.0207-0.0207,0.0411-0.0825,0.0411-0.1443l-1.2149-0.5559l-1.256,0.7002
		C37.724,17.5881,37.7651,17.691,37.8476,17.6705L37.8476,17.6705z M41.9247,16.9497l1.7708-0.144
		c-0.3294-1.1945-1.2971-2.018-1.9151-3.1093c-0.0204-0.0618-0.0822-0.1236-0.0822-0.1236l-0.453,0.5766L40.504,15.673
		c0.0204,0.1443,0.2265,0.1647,0.2265,0.3297l0.1236,0.2883c-0.0414,0.1851-0.1236,0.4116,0.0204,0.5766L41.9247,16.9497
		L41.9247,16.9497z M47.2578,16.3525l0.3297-0.0822c0.1029-0.0618,0.1236-0.2061,0.1236-0.309
		c-0.0207-0.0411-0.0618-0.0618-0.1236-0.1028c-0.1029-0.0825-0.2265,0-0.3297,0.1028c-0.0822,0.0825-0.0411,0.2472-0.0615,0.3912
		H47.2578L47.2578,16.3525z M56.0095,15.2611c0.0204,0,0.0618,0,0.1029-0.0204l-2.1623-2.7181l1.421,1.8943l0.5765,0.8442H56.0095
		L56.0095,15.2611z M68.2821,13.8404l0.6795-1.6886l-0.659,0.1647c-0.0204,0.0414-0.0204,0.0618-0.0822,0.0825v1.4414
		C68.2614,13.9022,68.2614,13.8611,68.2821,13.8404L68.2821,13.8404z M14.6817,13.7168l1.3592-0.2265
		c-0.0207-0.144-0.3708-0.1647-0.5355-0.1647c-0.0618,0.0618-0.0618,0.1029-0.144,0.2058
		C15.2172,13.6964,14.9085,13.5728,14.6817,13.7168L14.6817,13.7168z M12.6845,13.3256l2.0591-0.1443
		c-0.9267-0.3498-2.018-0.0615-3.0679-0.1233c-0.2061,0.0411-0.2679,0.0411-0.3915,0.0411c-0.0618,0.0207-0.0618,0.0822,0,0.1029
		L12.6845,13.3256L12.6845,13.3256z M10.9958,13.1813l0.0414-0.0204c-0.0207-0.0618-0.1032-0.0411-0.1854-0.0618
		C10.8726,13.0992,10.9341,13.202,10.9958,13.1813L10.9958,13.1813z M60.9307,12.2549c2.3063-0.2471,4.7154-0.0414,7.0013-0.3707
		c0.3294-0.1029,0.597-0.0411,0.7824-0.2472l-0.0822-0.2676l0.7617,0.1236c-0.0615-0.7413-0.7413-1.1739-1.256-1.7504l0.1236,1.1531
		c0.0411,0.1029,0.1443,0.1443,0.1854,0.3294c-0.0411,0.1443-0.1647,0.2883-0.3294,0.3501c-2.2652,0-4.5921,0.2679-6.8159,0.5973
		C61.1161,12.2136,61.0132,12.2549,60.9307,12.2549L60.9307,12.2549z M125.9592,5.1508l0.0414-0.8648l-0.8855-0.3708
		c-0.144,0.0618-0.2676,0.309-0.2058,0.5147l0.7413,0.3501l0.2676,0.3912L125.9592,5.1508L125.9592,5.1508z M47.0727,3.4004
		L47.361,2.762c-1.4003-0.3294-3.2329-0.1854-4.5508-1.0503c-0.1236,0.165,0.2058,0.309,0.2676,0.5148l1.1324,0.4532
		c0.7826,0.144,1.5857,0.2676,2.3477,0.5559c0.1851,0.1028,0.3705,0.1028,0.4734,0.2264L47.0727,3.4004L47.0727,3.4004z"/>
</g>
</svg>
