<?xml version="1.0" encoding="utf-8"?>
<!-- Generator: Adobe Illustrator 21.1.0, SVG Export Plug-In . SVG Version: 6.00 Build 0)  -->
<svg version="1.1" xmlns="http://www.w3.org/2000/svg" xmlns:xlink="http://www.w3.org/1999/xlink" x="0px" y="0px"
	 viewBox="0 0 218.931 98.6252" enable-background="new 0 0 218.931 98.6252" xml:space="preserve">
<g>
	<path fill-rule="evenodd" clip-rule="evenodd" d="M184.3447,98.6244l-0.0295-0.0028c-0.8844-0.0828-1.7705-0.1661-2.6651-0.2747
		l-0.0116-0.002c-20.6989-4.8325-33.3326-7.7745-41.0468-9.5706c-10.7005-2.4914-11.9492-2.7822-12.1385-2.8653
		c-12.9844-2.9687-12.9889-2.9699-24.7419-5.7416c-8.8016-1.4714-8.803-1.472-10.7376-1.8586l-0.0255-0.0034
		c-1.0726-0.1375-2.1461-0.2755-3.1992-0.4371c-5.8062,1.1058-5.8119,1.1069-10.2518,1.8561l-0.0048,0.0008
		c-5.6917,0.7147-5.7353,0.7206-10.1982,1.1561c0.002,0.0348,0.006,0.0717,0.013,0.111c1.2104,0.6991,1.2198,0.7056,2.0188,1.2567
		l0.0329,0.0363c0.1338,0.2412,0.2971,0.4861,0.4592,0.7299v0.0005l0.0082,0.0124l0.0181,0.059v0.4717v0.0579l-0.0482,0.032
		c-0.0369,0.0247-0.0749,0.0561-0.112,0.0901c-0.0377,0.0346-0.0797,0.0766-0.1213,0.1182l-0.0318,0.032l-0.0445-0.0003h-0.9159
		l-0.0456-0.0102c-0.8308-0.3875-0.8359-0.3898-2.4815-1.3774h-0.2931c-0.3456,0.2719-0.3512,0.2781-0.5034,0.5065l-0.032,0.0485
		h-0.0578h-0.3886l-0.0363-0.0067c-4.123-1.4845-4.1519-1.4948-4.6071-1.5746c-1.8366,0.055-3.6751,0.1102-5.5279,0.1691
		c-1.8476,0.0587-3.7,0.1214-5.5604,0.1909l-0.0037,0.0003h-8.9918l-0.0153-0.0012c-0.4048-0.0576-0.8053-0.1114-1.205-0.1647
		v0.0002l-0.0136-0.0016l-0.0224-0.0054c-1.1149-0.39-1.1154-0.3904-2.0373-0.8373l-0.0295-0.0207
		c-0.0686-0.0687-0.1976-0.1684-0.3467-0.2843l0.0003-0.0003c-0.2398-0.1857-0.5343-0.4136-0.76-0.6551
		c-0.4731-0.3621-0.4782-0.3674-1.3139-1.3422l-0.0068-0.0088c-0.2492-0.3603-0.4992-0.7214-0.7512-1.1132l-0.0051-0.0088
		l-0.0292-0.0566c-0.4643-0.9009-0.9295-1.8038-1.4134-2.7179l-0.004-0.0079c-0.6021-1.4142-0.9853-2.3928-1.2716-3.1235
		c-0.2381-0.6083-0.4093-1.0443-0.5865-1.4245l-0.0082-0.0247c-0.0505-0.2531-0.1245-0.5073-0.2007-0.7618
		c-0.413-0.097-0.8243-0.1945-1.3592-0.3235c-0.4808-0.1157-0.9618-0.2347-1.4411-0.3577l-0.0062-0.0016
		c-2.3326-0.7495-2.3332-0.75-3.1734-1.114l-0.0436-0.034c-0.0697-0.0927-0.07-0.093-0.5786-0.3875l-0.0493-0.0623
		c-0.0876-0.2923-0.0879-0.2925-0.0879-0.7804l0.0144-0.0533c0.0363-0.0637,0.0765-0.1368,0.1182-0.214l0.0006-0.0005
		c0.0754-0.1386,0.1553-0.2858,0.244-0.4275l0.0102-0.0135c0.176-0.203,0.3356-0.3926,0.4972-0.5849
		c0.2027-0.2411,0.4099-0.4875,0.6132-0.7197l0.0105-0.0104c1.6764-1.4565,1.6962-1.4733,2.7714-2.2797
		c0.1624-1.5423,0.1647-1.5516,0.3586-2.3006l0.0108-0.0258c0.366-0.6475,0.3662-0.6477,0.7597-1.1256l0.0306-0.0258
		c0.8235-0.46,1.404-0.7965,1.965-1.1219c0.7104-0.412,1.3913-0.8068,2.5316-1.4315l0.0093-0.0043
		c0.356-0.1545,0.8306-0.3887,1.4516-0.6951c0.788-0.3892,1.8161-0.8969,3.1762-1.5219c0.1548-0.1017,0.7072-0.3603,1.2747-0.6251
		v-0.0002c0.5298-0.2469,1.0735-0.4998,1.2886-0.618c-0.1012-0.0776-0.2123-0.1487-0.3163-0.2151v0.0002
		c-0.1579-0.1003-0.3039-0.1932-0.4019-0.2991c-0.0808-0.0365-0.1465-0.0798-0.2426-0.1425h-0.0003
		c-0.127-0.0831-0.3155-0.2057-0.688-0.4076l-0.0085-0.0052c-0.436-0.2905-0.7526-0.4841-0.9853-0.6267
		c-0.2999-0.1831-0.4686-0.286-0.5743-0.4005c-0.076-0.0349-0.1375-0.074-0.2066-0.1182c-0.0978-0.0627-0.2168-0.1386-0.4368-0.2328
		l-0.0164-0.009c-2.0015-1.3011-3.2477-2.0999-4.2131-2.7185c-1.1421-0.7318-1.8904-1.2118-3.1073-2.0227
		c-0.1658-0.0774-0.2767-0.1448-0.3852-0.2103c-0.1171-0.0712-0.2336-0.142-0.4368-0.2291l-0.0286-0.0181
		c-0.436-0.3813-0.4371-0.3824-2.6425-1.7609c-0.1939-0.0834-0.3155-0.1552-0.436-0.2257
		c-0.1137-0.0669-0.2279-0.1344-0.4175-0.2154l-0.0397-0.0292c-0.078-0.0909-0.5199-0.3976-1.0443-0.7358
		c-0.5119-0.3302-1.0998-0.6882-1.5055-0.9043l-0.015-0.0096c-0.1449-0.1114-0.2965-0.2106-0.4348-0.3011
		c-0.1973-0.1287-0.3705-0.2423-0.4796-0.3608c-0.0757-0.0346-0.1375-0.074-0.2072-0.1186c-0.0972-0.062-0.216-0.1377-0.4371-0.2327
		l-0.0437-0.0345c-0.0295-0.0397-1.3385-0.8666-2.6473-1.6931c-1.2212-0.7714-2.4426-1.5427-2.6714-1.7162
		c-0.1828-0.0793-0.4569-0.2389-0.7084-0.3997c-0.273-0.174-0.5236-0.3535-0.6097-0.4388c-0.22-0.0959-0.3583-0.184-1.048-0.6231
		c-0.4952-0.3154-1.2855-0.8186-2.6654-1.6794l-0.0249-0.0216c-0.0794-0.093-0.2004-0.1638-0.5726-0.3826
		c-0.3232-0.19-0.8283-0.487-1.6225-0.9833l-0.0292-0.027c-0.0255-0.0341-0.1242-0.0946-0.4555-0.2976
		c-0.4121-0.2523-1.1702-0.7166-2.569-1.6188L7.0152,29.923c-0.0269-0.0363-0.1304-0.0983-0.3884-0.2536
		c-0.3002-0.1806-0.8017-0.4827-1.6376-1.0253l-0.0275-0.0252c-0.0298-0.0394-0.4578-0.3116-0.8858-0.5834
		c-0.4017-0.2552-0.8039-0.5106-0.9184-0.6106c-0.1828-0.0805-0.4524-0.2381-0.6993-0.3957
		c-0.2755-0.1755-0.5284-0.3575-0.6117-0.4412c-0.201-0.1008-0.4184-0.2213-0.6415-0.3446H1.2045
		c-0.1179-0.0652-0.2393-0.1324-0.3705-0.2032l-0.0326-0.027c-0.3657-0.4501-0.3662-0.4507-0.7044-1.0709l-0.0091-0.0207
		C0.0003,24.6293,0,24.629,0,23.9749l0.0079-0.04c0.0269-0.0671,0.0541-0.142,0.0814-0.2196v-0.0004l0.0003-0.0009l0.0828-0.2451
		l0.019-0.0341c0.3955-0.4802,0.396-0.4807,1.0984-1.0426l0.0221-0.0139l0.4561-0.212c0.3336-0.1539,0.6775-0.3129,1.0117-0.4799
		l0.0255-0.0093c0.5119-0.1114,1.0236-0.2407,1.5488-0.3731l0.3903-0.098l0.0156-0.0025c0.4096-0.0408,0.8187-0.0819,1.2515-0.1282
		c0.419-0.045,0.8419-0.0938,1.2708-0.149l0.0136-0.0011h5.3561l0.0096,0.0009c0.6191,0.056,1.2362,0.1188,1.8507,0.184
		c0.6386,0.0674,1.2543,0.1364,1.8703,0.2046l0.0034,0.0004c0.7878,0.1122,1.571,0.2302,2.3499,0.3503
		c0.6676,0.1026,1.51,0.2358,2.3692,0.3716l0.0301,0.0094c2.2632,1.084,3.6746,1.7484,4.5269,2.1498
		c0.993,0.4672,1.2339,0.5814,1.3181,0.6604c3.2922,1.4979,4.7642,2.1915,6.3,2.9149c1.1721,0.5519,2.3828,1.1229,4.4442,2.0702
		c0.428,0.1686,0.9488,0.4167,2.535,1.1718c1.8879,0.8989,5.2724,2.5101,11.6521,5.4913l0.0405,0.0329
		c0.0249,0.0331,0.3115,0.167,0.5978,0.2999v0.0002c0.2772,0.1288,0.5559,0.2586,0.6531,0.3396
		c9.0771,4.2325,10.2081,4.817,10.7308,5.0865l0.1684,0.0862h0.2202c0.1741-0.1227,0.3195-0.2345,0.4504-0.3339l-0.0003-0.0003
		c0.2701-0.2057,0.4802-0.3645,0.7381-0.479c0.093-0.1038,0.1908-0.1766,0.2917-0.2515l0.0003-0.0006
		c0.0828-0.0609,0.169-0.1246,0.2517-0.2075l0.0173-0.0139c0.9967-0.652,1.6776-1.1041,2.166-1.4285
		c0.9408-0.6244,1.169-0.7752,1.7158-1.0675c0.0748-0.0711,0.2594-0.1788,0.517-0.3268v-0.0003
		c0.3056-0.1755,0.7186-0.4128,1.1506-0.7007l0.0108-0.0063c2.3085-1.1817,2.3091-1.182,2.3774-1.2733l0.0431-0.034
		c0.5312-0.2316,1.0749-0.4756,1.6223-0.7245v0.0002c0.5162-0.235,1.0718-0.4915,1.6228-0.7457l0.0289-0.0092
		c2.575-0.3871,2.5755-0.3877,12.7984-1.4989l0.0034-0.0006c4.712-0.3599,4.7126-0.3602,10.8252-0.7214h0.0028l0.3104-0.0099
		c2.4775-0.0799,4.9805-0.161,7.4869-0.2675h0.0039l0.0822-0.0007c3.4518-0.0275,6.9316-0.0552,10.4119-0.1096l3.4818-4.39
		l3.5348-4.451l0.0326-0.0408h0.0519h0.1945l0.0646,0.0218c0.061,0.0457,0.1222,0.0998,0.1868,0.157
		c0.0524,0.0463,0.1086,0.0962,0.1763,0.15l0.0748,0.0594l-0.0505,0.0814c-1.7836,2.8837-2.8293,4.5448-3.5337,5.6645
		c-0.597,0.9484-0.9479,1.5078-1.3059,2.107c0,0.4501,0.0006,0.566,0.0156,0.6182c1.4899,0.1329,1.5741,0.1352,8.0629,0.299v-0.0002
		h3.2468l0.0482,0.0118c0.0536,0.0267,0.1083,0.0542,0.1806,0.1007l0.3569,0.015c2.5112,0.1057,5.0462,0.2125,7.5736,0.3444
		c2.8712,0,2.8817-0.0002,3.5045-0.0813c0.3546-0.1091,0.4113-0.1191,5.4669-0.9297c-2.0591-0.6381-3.3214-1.0367-4.3869-1.3726
		c-1.7581-0.5545-2.9968-0.9454-6.0029-1.8454l-0.0114-0.0043l-1.7484-0.7491l-0.0218-0.0128
		c-0.7617-0.5643-0.7622-0.5646-0.938-0.799l-0.0218-0.0646v-0.3606v-0.0442l0.0317-0.0321
		c0.2092-0.2091,0.2098-0.2097,0.5621-0.3563l0.0224-0.0065c0.303-0.055,0.6069-0.1107,0.9369-0.1928l0.0258-0.0034h4.4405
		l0.0051,0.0002c1.6702,0.0831,3.3352,0.1735,4.9961,0.267c1.6651,0.0933,3.3307,0.1911,4.9955,0.288l0.0295,0.0059
		c0.5485,0.192,0.5494,0.1922,9.5321,2.6042l0.6194,0.0773c0.5193-0.3627,0.5366-0.3735,0.8787-0.5317
		c0.7265-0.7262,0.733-0.7339,1.0823-1.1908c0.6469-1.2087,0.9402-1.7085,1.6761-2.9642c0.4425-0.7549,1.0508-1.7927,2.0619-3.5428
		c0.0513-0.1627,0.1596-0.3458,0.2934-0.5726c0.1055-0.1777,0.2282-0.3853,0.3481-0.6252l0.0315-0.0383
		c0.038-0.0283,0.1021-0.1366,0.1845-0.2761c0.0901-0.1527,0.2018-0.3403,0.341-0.5229c0.119-0.2378,0.2112-0.3945,0.3535-0.6367
		c0.176-0.2998,0.4337-0.738,0.9502-1.6924l0.0051-0.0086c0.3436-0.5156,0.5536-0.8668,0.6908-1.0969
		c0.1219-0.2044,0.1916-0.3195,0.2548-0.3796c0.3773-0.7251,0.589-1.095,0.7277-1.3379c0.1196-0.2092,0.1848-0.3229,0.2599-0.4984
		l0.0136-0.0231c0.1355-0.1763,0.3005-0.4513,0.4649-0.7254c0.1647-0.2744,0.3299-0.5488,0.4703-0.7333
		c0.3847-0.7396,0.6809-1.2521,0.8958-1.6245V10.252c0.1792-0.3103,0.3019-0.5226,0.3756-0.6949l0.0346-0.0439
		c0.0417-0.0312,0.1707-0.2637,0.3614-0.6075c0.1655-0.2982,0.3773-0.6794,0.6384-1.1104l0.0272-0.0305
		c0.0323-0.0244,0.2361-0.3711,0.4632-0.7585c0.2815-0.4802,0.6004-1.0214,0.7342-1.1614c0.5836-1.0857,0.8657-1.5676,1.1469-2.0472
		c0.1902-0.3245,0.381-0.6499,0.6786-1.1882l0.0048-0.0079c0.1499-0.225,0.2645-0.3912,0.362-0.5323
		c0.273-0.3958,0.4184-0.6069,0.7418-1.2334l0.0224-0.0294c0.1993-0.1848,0.4263-0.3625,0.6384-0.5038h0.0003
		c0.2163-0.1439,0.4212-0.2534,0.5695-0.2979L182.4953,0h3.6357l0.0077,0.0002l0.4819,0.0354
		c2.4834,0.1829,4.991,0.3677,7.484,0.5752l0.1199,0.0102l-0.0227,0.1174c-0.1806,0.949-0.3829,1.9111-0.5882,2.8879l-0.1341,0.6385
		l-0.0292,0.0544l-0.1664,0.1664l-0.0468,0.0276c-0.1936,0.0552-0.3864,0.1174-0.5777,0.1823
		c-0.1652,0.0558-0.3515,0.123-0.5392,0.1902c-0.1307,0.2923-0.4632,1.6183-7.5183,29.8395
		c0.0017,0.0499,0.0164,0.1063,0.034,0.1735v0.0005l0.0071,0.0266c0.3149,0.2101,0.6318,0.4215,0.9709,0.6556l0.8872,0.0808
		l0.0181,0.0028c0.847,0.2288,1.7677,0.4961,3.007,0.8555c1.7254,0.5007,4.0734,1.1821,7.7341,2.1978l0.0249,0.0101
		c0.0856,0.0488,0.5667,0.1866,1.0469,0.3237c0.4702,0.1344,0.9417,0.2697,1.0752,0.3351c4.4399,1.2419,6.2161,1.7629,8.6,2.4619
		c1.5154,0.4442,3.2771,0.961,6.127,1.7813l0.0241,0.0102c0.0958,0.0547,1.1945,0.3884,2.3171,0.7118
		c1.0054,0.2897,2.0284,0.5706,2.3675,0.6358l0.0879,0.017v0.089c0,0.0729-0.0076,0.1545-0.0184,0.2389v0.0004
		c-0.0108,0.0822-0.0249,0.1666-0.0388,0.2502l-0.008,0.0491l-0.0431,0.0255c-0.1219,0.0731-0.1222,0.0737-0.3322,0.3359
		l-0.0286,0.0249c-0.3464,0.2075-0.6843,0.421-1.0281,0.6378c-0.2194,0.1381-0.4425,0.2792-0.6636,0.4158l-0.0156,0.0079
		c-0.9518,0.3921-0.9525,0.3923-2.8128,0.9476l-0.0102,0.0026c-1.834,0.3611-1.8346,0.3614-4.0872,0.6395l-0.0131,0.0009h-3.0526
		l-0.0102-0.0009c-0.587-0.0559-1.1752-0.1122-1.7535-0.1947l-0.0108-0.0023c-21.9245-5.548-22.6613-5.7346-22.9254-5.7407
		c-2.9648,1.7361-4.6973,2.7629-5.7144,3.3653c-1.3204,0.7823-1.4355,0.8512-1.5996,0.9014
		c-0.3461,0.199-0.6027,0.3535-0.8147,0.4811c-0.4263,0.2565-0.6732,0.4056-1.3,0.701c-0.1057,0.0913-0.4703,0.296-0.9539,0.5692
		c-0.502,0.2835-1.1393,0.6434-1.7442,1.0146l-0.0252,0.0116c-0.1358,0.0405-0.2259,0.0912-0.4793,0.2333
		c-0.2322,0.1304-0.5978,0.3354-1.241,0.6704c-0.1375,0.1072-0.6956,0.4081-1.2538,0.7095
		c-0.5941,0.3212-1.1897,0.6432-1.2166,0.6791l-0.0346,0.0298c-1.294,0.7072-2.0336,1.095-2.459,1.3184
		c-0.4385,0.2301-0.5309,0.2789-0.5593,0.3169l-0.0363,0.0305c-2.3746,1.2388-3.6731,1.9316-4.5649,2.407
		c-1.0037,0.5349-1.4927,0.796-2.4678,1.2767c-0.0793,0.0734-0.3022,0.1851-0.7081,0.3912
		c-0.4756,0.2412-1.2149,0.6159-2.2756,1.1973l-0.021,0.0091c-0.1264,0.0377-0.2129,0.0836-0.4337,0.2004
		c-0.2409,0.127-0.6372,0.3368-1.404,0.7061c-0.3416,0.208-0.6355,0.3524-0.8776,0.4711c-0.2086,0.1027-0.379,0.1868-0.5012,0.2722
		l-0.0224,0.0121c-0.479,0.1888-2.3485,1.111-4.2463,2.0469c-1.6824,0.83-3.3885,1.6716-4.1755,2.0266
		c-0.1687,0.1111-1.0392,0.5222-1.9091,0.9329c-0.8765,0.4141-1.7541,0.8289-1.8848,0.9204l-0.017,0.0096
		c-0.5111,0.2375-0.8717,0.3898-1.3068,0.5732c-0.5743,0.2423-1.2804,0.5406-2.6467,1.1685
		c-0.1023,0.0815-0.4272,0.2386-0.7962,0.3969c-0.4051,0.1737-0.8736,0.3566-1.1599,0.4439
		c-0.2716,0.1893-0.3311,0.2131-3.4631,1.4178v0.1183c1.2447,0.2928,2.1923,0.5538,3.9169,1.0304
		c1.1268,0.3107,2.59,0.7151,4.8002,1.3096l0.0017,0.0006c20.7227,5.8986,35.2956,10.0264,44.7095,12.693
		c8.9824,2.5441,13.2843,3.7635,13.6772,3.9024l0.0003-0.0005c0.8022,0.1967,1.2254,0.3195,3.8761,1.0876
		c2.2054,0.6389,5.9655,1.7288,12.89,3.7145l0.0181,0.0071c0.0411,0.0201,0.0768,0.0482,0.1177,0.0799l0.0009,0.0006
		c0.0264,0.0207,0.0564,0.0442,0.0879,0.0652l0.1094,0.0731l-0.093,0.0927c-0.0048,0.0048-0.0144,0.0181-0.0246,0.0329
		c-0.0213,0.0303-0.0476,0.0674-0.0862,0.106l-0.0581,0.0301c-4.3399,0.7557-8.2738,1.4148-11.1217,1.8915
		c-2.7749,0.4646-4.5153,0.7566-4.5839,0.7906l-0.0343,0.0103c-0.6112,0.0812-1.2447,0.1722-1.8887,0.2673
		c-0.6194,0.0909-1.2645,0.1893-1.9109,0.2877l-0.0091,0.0009c-0.8121,0.055-1.6319,0.1176-2.4548,0.184
		c-0.813,0.0651-1.6347,0.1351-2.4556,0.2047l-0.0088,0.0003h-2.8862v-0.108L184.3447,98.6244L184.3447,98.6244z M182.992,97.9662
		l1.2024,0.1655h3.3236c0.8385-0.0839,1.6654-0.1392,2.4914-0.1939c3.238-0.3597,3.2474-0.3611,5.7192-0.7455
		c0.1792-0.0897,0.195-0.1,0.3407-0.2455v-0.2846c-0.1964-0.2939-0.2092-0.3082-0.5703-0.6693
		c-1.1724-0.7358-1.1792-0.7399-1.9936-1.0928c-1.9227-0.6741-2.1005-0.7356-2.3111-0.7415l-0.0042,0.0096
		c0.0592,0.0456,0.1043,0.0909,0.1494,0.1357h0.0003l0.0017,0.0017l0.0187,0.0253c0.3665,0.6774,0.3671,0.678,0.5644,1.4111
		l0.0037,0.0278v0.7492l-0.0037,0.0269c-0.1976,0.7612-0.1979,0.7617-0.3407,1.048l-0.0298,0.0598h-0.0669h-0.2775h-0.193
		l0.1012-0.1645c0.212-0.3441,0.214-0.3472,0.3999-1.0652c0-0.5272-0.0017-0.5363-0.1871-1.2526
		c-0.2903-0.5278-0.2971-0.5392-0.637-0.9836c-0.087-0.0496-0.1746-0.1001-0.2707-0.1571c-0.0873-0.0518-0.1698-0.1022-0.2443-0.151
		c-0.7073,0-0.7342,0.004-2.3499,0.2736c-0.1806,0.0776-0.3336,0.1533-0.4842,0.2288c-0.0907,0.1425-0.1826,0.2852-0.2718,0.4308
		c-0.0913,0.1486-0.1789,0.2974-0.2591,0.444c-0.1848,0.6335-0.1862,0.6423-0.1862,1.167c0.1049,0.4451,0.1086,0.4515,0.4575,1.0687
		l0.0108,0.0803l-0.0173,0.0663v0.0006c-0.0187,0.0717-0.0346,0.1315-0.0346,0.1836l-0.1953,0.0633l-0.0059-0.0082l-0.0006-0.0009
		c-0.1355-0.1896-0.2715-0.3796-0.4053-0.5403l-0.0224-0.0456l-0.1664-0.7491l-0.0028-0.0233c0-0.7586,0.0003-0.7589,0.085-1.2133
		l0.0065-0.021c0.1724-0.4181,0.1959-0.4728,0.4397-0.8503l-0.0627,0.0002c-0.1329,0.0652-0.4788,0.1815-0.9048,0.3257
		c-0.4306,0.1458-0.9476,0.3212-1.4108,0.498c-0.6182,0.3492-1.2268,0.7089-1.8352,1.0684
		c-0.1029,0.0901-0.2024,0.1817-0.2976,0.2701c-0.0992,0.0927-0.1953,0.1829-0.2905,0.265
		c-0.0488,0.1222-0.0975,0.2438-0.1451,0.343c0.0212,0.2106,0.0241,0.4175,0.0247,0.6075L182.992,97.9662L182.992,97.9662z
		 M203.4267,95.5428c0.2647,0.1851,0.2945,0.2061,0.3645,0.3206c0.3668,0.0428,0.4173,0.0453,0.7265,0.0077
		c-0.017-0.1077-0.0323-0.2137-0.0371-0.311c-0.1497-0.0753-0.2914-0.1505-0.4272-0.2228v0.0002
		c-0.1281-0.0679-0.2877-0.1555-0.4499-0.244l-0.0164-0.0048h-0.0003c-0.4615-0.1355-0.923-0.271-1.353-0.3784
		c-2.7819-0.5562-2.7833-0.5568-11.2025-2.0245c-1.3606-0.0834-2.7153-0.1389-4.0694-0.1942
		c-1.965,0.0552-3.907,0.0833-5.8482,0.111c-2.8553,0.1662-2.8584,0.1667-5.4553,0.4429c-0.8552,0.1931-1.7113,0.3863-2.5611,0.551
		c-0.2047,0.1089-0.4105,0.2112-0.6154,0.3101c-0.2032,0.0984-0.404,0.1925-0.6046,0.2863l-0.0215,0.0258
		c-0.1128,0.1354-0.2242,0.2698-0.3254,0.3962v0.5641l0.1953,0.2606h0.1023c-0.0221-0.1769-0.042-0.3401-0.042-0.5026l0.0119-0.0482
		c0.0264-0.0527,0.0533-0.106,0.0774-0.1613l0.0003,0.0003c0.021-0.0493,0.0403-0.1001,0.0527-0.1497l0.0283-0.0499
		c0.0748-0.0751,0.1505-0.1426,0.2211-0.2059c0.0584-0.0521,0.1145-0.1026,0.1673-0.1553l0.0338-0.0223
		c0.8419-0.3648,0.8424-0.3651,2.035-0.7534l0.0133-0.0035c0.6217-0.1193,1.2549-0.2202,1.8692-0.3177l0.271-0.0431l0.0068-0.0009
		c2.033-0.1951,2.0333-0.1953,5.0834-0.3615h0.0054h8.7143l0.0224,0.0023c1.186,0.252,2.3709,0.4859,3.3248,0.6738
		c1.0857,0.2137,1.8729,0.3691,2.0622,0.4365c0.6792,0.0953,1.063,0.1721,1.9636,0.3527v0.0005
		c0.671,0.1346,1.6364,0.3289,3.3038,0.6452l0.013,0.0034l2.3312,0.7492L203.4267,95.5428L203.4267,95.5428z M107.2454,80.4486
		c3.9889,0.9383,15.3488,3.6107,61.8074,14.4307l0.0411-0.0197v-0.9214l0.0119-0.0483l0.0008-0.0016
		c0.0522-0.1043,0.1046-0.2092,0.1296-0.3093l0.0329-0.0544l0.7492-0.6661l0.0286-0.0182c0.6457-0.2806,0.6463-0.2809,1.8723-0.6429
		l0.013-0.0028l0.4742-0.0774c1.0358-0.1693,2.0537-0.3359,3.0523-0.4782l0.0068-0.0009c2.4106-0.1939,2.4111-0.1945,7.7763-0.3608
		h0.0045l5.1063,0.0831h0.0028c8.0992,0.358,8.1683,0.3617,12.7644,0.686v-0.0805c-2.7964-0.7946-5.5352-1.5543-8.2723-2.3131
		l-0.085-0.0235l-0.0247-0.0102c-0.0853-0.0486-1.0692-0.3241-2.0529-0.5993c-0.9601-0.2684-1.9211-0.5371-2.0922-0.6128
		c-0.3645-0.0828-1.6036-0.4354-2.986-0.828c-1.6586-0.4711-3.526-1.0023-4.3299-1.1957l-0.0043-0.0009
		c-4.7086-1.3232-7.5776-2.1387-10.2195-2.8893c-4.0207-1.1423-7.5206-2.137-16.0889-4.5208l-0.0246-0.0102
		c-0.0814-0.0461-0.2991-0.1114-0.5176-0.1766c-0.2322-0.0692-0.4663-0.1389-0.5774-0.2024
		c-0.2818-0.0569-1.696-0.4595-5.2603-1.4727c-4.0499-1.1505-10.8802-3.0917-21.981-6.2132
		c-1.7147-0.3872-3.4072-0.7481-5.0981-1.1083c-2.0205-0.3597-2.0211-0.36-7.0186-1.1095v-0.0002
		c-3.5932-0.3591-3.5972-0.3597-7.0345-0.5536h-6.4865c-0.4793,0.0408-0.9601,0.0756-1.4391,0.1074
		c-0.4686,0.0306-0.9431,0.0584-1.4159,0.0862c-0.7713,0.0966-1.544,0.1933-2.3247,0.2876
		c-0.7628,0.0922-1.5293,0.1821-2.3006,0.2663c-0.7466,0.1938-0.7566,0.1959-3.244,0.6377
		c-0.9808,0.2722-1.9624,0.5452-2.9602,0.8301c-0.7438,0.2891-1.474,0.5586-2.192,0.8229l-0.7634,0.282
		c-1.3791,0.7169-1.3842,0.7206-2.4766,1.4301l-0.0034,0.0032l-0.0005,0.0005c-0.2687,0.2421-0.5372,0.4848-0.7801,0.7268
		c-0.1304,0.2358-0.2353,0.4705-0.3396,0.7053c0,0.5803,0.0008,0.6035,0.0709,0.8373c0.123,0.1225,0.2418,0.2344,0.3575,0.3433
		c0.1128,0.1065,0.2234,0.2109,0.3294,0.3163c0.1366,0.057,0.2736,0.1006,0.3994,0.1409h0.0005l0.1208,0.0394
		c5.0939,0.8161,7.0421,1.1557,11.5659,1.9437c2.5648,0.4464,5.957,1.0378,11.2096,1.9398l0.006,0.0011
		C105.4661,80.0299,105.9874,80.1527,107.2454,80.4486L107.2454,80.4486z M62.8064,81.1536l3.8129,1.298h0.3824l1.5574-1.5571
		l0.0099-0.038V80.856c0.0108-0.0409,0.0207-0.0768,0.0272-0.1108l-0.6528-0.239h-0.0006c-0.6568-0.2407-1.3034-0.478-1.9585-0.7029
		l-0.0159-0.0071c-0.1721-0.0924-0.3937-0.18-0.6055-0.2438c-0.1964-0.0591-0.3818-0.0981-0.5097-0.1028
		c-0.2174,0.1213-0.284,0.1741-2.0135,1.5625l-0.0076,0.0297v0.0009C62.8217,81.083,62.8129,81.1202,62.8064,81.1536
		L62.8064,81.1536z M40.5717,81.068c0.8189,0.191,0.8229,0.1919,2.0285,0.2736c2.4061-0.0826,2.4191-0.0828,14.5318-0.1662
		c1.6968-0.1093,3.3763-0.1924,5.0547-0.2748l0.0176-0.0009c0.8195-0.6832,1.6398-1.3667,2.4713-2.0316l0.0672-0.0241h0.2775
		l0.0391,0.0077l1.9117,0.7491c0.633,0.2493,1.2594,0.4976,1.8706,0.7419h0.9757l0.4734-0.0536
		c1.5494-0.1752,3.0787-0.3484,4.6225-0.5001v-0.0002c5.3892-0.7501,5.3895-0.7504,9.9051-1.4981
		c2.1654-0.436,3.058-0.6152,3.4379-0.7016c-0.5967-0.1145-1.9052-0.345-3.2236-0.5771c-1.7113-0.3007-3.4415-0.6061-3.6947-0.676
		l-0.0337-0.0159c-0.1015-0.0723-0.1905-0.1339-0.2716-0.189l-0.2534-0.1698l-0.0241-0.0225
		c-0.2288-0.2859-0.2293-0.2865-0.5939-0.9598l-0.013-0.0511v-0.5549l0.0096-0.0434l0.3331-0.7492l0.0111-0.0196
		c0.3679-0.5096,0.3682-0.5099,1.2087-1.2662l0.0176-0.0131c0.6293-0.3671,1.2869-0.739,1.9443-1.1103l0.0136-0.0068
		c0.6378-0.2495,1.2271-0.4907,1.8145-0.7308l0.0437-0.0178l0.0062-0.0026c2.139-0.722,2.1396-0.7223,4.8345-1.4725l0.0097-0.0023
		l4.1629-0.7492l0.0062-0.0012c3.056-0.3611,3.0566-0.3613,5.8334-0.5555h0.0051c4.1649-0.0834,4.1655-0.0834,8.1632,0
		l0.0082,0.0005l0.0689,0.0066c2.0384,0.1899,4.0774,0.3804,6.1458,0.5479l0.0068,0.0009c2.6867,0.3877,2.6875,0.388,6.9406,1.1106
		l0.0074,0.0017c0.7861,0.1896,1.595,0.3779,2.4134,0.5649c0.8399,0.1919,1.6208,0.3674,2.4001,0.5417h0.5258
		c0.5474-0.2188,1.0962-0.4379,1.6441-0.6298c6.3037-2.7941,8.6649-3.8699,9.6239-4.3068c0.5632-0.2565,0.654-0.297,0.7569-0.3284
		c5.3745-2.5765,5.3765-2.5776,8.2315-4.0745l0.019-0.0082c0.1091-0.033,0.1862-0.0698,0.2761-0.1129v-0.0002
		c0.1381-0.0667,0.3056-0.1465,0.6304-0.2446c6.4627-3.3141,6.463-3.3143,6.5313-3.4056l0.0377-0.0314
		c2.0676-1.0483,3.0889-1.5843,3.6297-1.8683c0.4972-0.2614,0.5978-0.3138,0.7333-0.3552c2.1078-1.139,3.2539-1.7754,4.0348-2.2091
		c0.8736-0.485,1.2934-0.718,2.0877-1.1154c0.9303-0.5267,1.7357-0.9667,2.4168-1.3383c0.9896-0.5403,1.7172-0.9374,2.2113-1.2668
		l0.0099-0.006c0.8252-0.4288,1.1846-0.6392,1.6461-0.909c0.3308-0.1933,0.7143-0.4175,1.3207-0.7543l0.0215-0.0094
		c0.1511-0.0453,0.4646-0.2264,1.2178-0.6624c0.5196-0.3005,1.2521-0.724,2.3638-1.3511c0.2925-0.2037,0.7996-0.4929,1.2351-0.7404
		c0.3974-0.2262,0.7347-0.4181,0.7617-0.4543l0.0346-0.0295c0.6443-0.3566,0.9938-0.566,1.3425-0.7753
		c0.3456-0.2069,0.6914-0.415,1.3362-0.7716c0.0366-0.0377,0.0681-0.0759,0.0964-0.1145c-0.1451-0.0615-0.2871-0.1204-0.4102-0.1625
		h-0.5185c-0.5423,0.19-0.682,0.2266-13.9787,3.7155l-0.0068,0.0017c-0.3736,0.0723-1.0987,0.2576-2.8046,0.6936
		c-2.1708,0.5544-5.9366,1.5171-12.6754,3.1901l-0.0017,0.0006c-7.8814,1.8315-15.7635,3.6635-23.6171,5.4672l-0.0017,0.0002
		l-1.9695,0.4182c-2.9843,0.6338-5.9544,1.2648-8.9657,1.8853c-8.7545,1.7842-15.0752,3.0184-18.8158,3.7485
		c-2.5242,0.493-3.8781,0.7574-3.9784,0.7974l-0.025,0.0068c-0.5683,0.0791-1.057,0.1655-3.2862,0.5581
		c-2.4276,0.4275-6.9233,1.2198-15.8871,2.7718h-0.0017c-19.0145,2.9741-19.0151,2.9744-29.1966,4.4407l-0.0153,0.0012h-1.5817
		l-0.0269-0.0037c-0.5876-0.153-0.6216-0.1616-0.845-0.1621l-0.2452,0.2452l-0.0317,0.0317h-0.0445h-0.3608l-0.017-0.0016
		c-0.6259-0.0995-1.3683-0.2427-2.1291-0.4108c-0.7245-0.1599-1.4666-0.3422-2.1421-0.5312h-0.4867
		c-0.0751,0.093-0.1497,0.1323-0.752,0.4586l-0.0312,0.011c-0.4544,0.085-0.4547,0.0853-1.8516,0.0853l-0.0184-0.0016
		c-1.4153-0.248-1.5588-0.2733-1.9114-0.2957c0.0116,0.1205,0.0119,0.2354,0.0119,0.3365c1.4037,3.5782,1.4114,3.5975,2.1186,5.2291
		c0.0643,0.0674,0.148,0.2217,0.2999,0.5017v0.0006c0.2092,0.386,0.555,1.023,1.1435,1.9989
		c1.205,1.506,1.2126,1.5152,1.9207,2.2508l1.4794,0.9042c0.1516,0.0686,0.301,0.1301,0.4479,0.1868
		C40.2724,80.9589,40.4226,81.0136,40.5717,81.068L40.5717,81.068z M52.9724,78.8654c-5.1931-0.1666-5.1936-0.1669-6.2243-0.278
		l-0.0337-0.0094c-0.3853-0.1777-0.3855-0.178-0.5953-0.4478l-0.0193-0.0403c-0.0173-0.0688-0.049-0.1434-0.0842-0.2265
		l-0.0003-0.0008l-0.0493-0.1182l-0.0082-0.0485c0.0836-1.199,0.0839-1.1996,0.2792-2.2328l0.0051-0.0176
		c0.1729-0.4606,0.1732-0.461,0.5729-0.9468l0.0295-0.0251l0.0159-0.0091h0.0003c0.1891-0.1074,0.379-0.2164,0.5998-0.3266
		l0.0363-0.011l0.2744-0.0303c0.9108-0.1006,1.8431-0.2044,2.7759-0.33l8.2378-1.4979l0.019-0.002
		c0.6543,0,0.6545,0.0003,0.9468,0.0879l0.053,0.0362c0.0519,0.065,0.1134,0.133,0.1777,0.201
		c0.0601,0.0632,0.1318,0.1349,0.203,0.206l0.0298,0.0557l0.0136,0.0692v0.0005c0.0233,0.1213,0.0505,0.2588,0.0936,0.3889
		l0.0059,0.0338v3.5247l-0.0028,0.0232l-0.1664,0.7495l-0.0232,0.0468c-0.161,0.1877-0.3589,0.4136-0.5559,0.6389l-0.0397,0.0287
		c-0.3433,0.1431-0.3439,0.1434-1.3535,0.3395l-0.015,0.0017c-3.4466,0.1666-3.4469,0.167-5.1948,0.167L52.9724,78.8654
		L52.9724,78.8654z M48.6247,78.2025c0.5596,0.0314,1.11,0.059,1.6594,0.0865c6.2042,0,6.2152-0.0003,7.5906-0.0825
		c0.4263-0.0941,0.8467-0.1684,1.2498-0.2386l0.1814-0.032c0.2625-0.2866,0.2724-0.3044,0.4445-0.697
		c-0.0269-1.406-0.0275-2.7667-0.0275-4.1262c-0.0856-0.0898-0.1559-0.1797-0.2231-0.269h-1.048
		c-1.273,0.235-2.5396,0.4706-3.8018,0.7055l-3.7916,0.7078l-0.0074,0.0012c-3.092,0.352-3.1501,0.3597-3.4787,0.4858
		c-0.0876,0.0751-0.1698,0.1499-0.2483,0.2222c-0.0828,0.0763-0.1627,0.1506-0.2441,0.2197
		c-0.0519,0.1567-0.104,0.3112-0.1545,0.4388c-0.1877,1.2359-0.1905,1.2583-0.1905,2.2289
		c0.0935,0.0918,0.1259,0.1069,0.4445,0.2432C47.5325,78.1378,48.081,78.1721,48.6247,78.2025L48.6247,78.2025z M52.4384,77.733
		c-0.3492-0.2687-0.3498-0.2692-0.7257-0.4302l-0.0473-0.0394l-0.1667-0.2498l-0.0423-0.0634l0.0457-0.061
		c0.0966-0.1287,0.2982-0.2888,0.5802-0.5128c0.246-0.1953,0.5559-0.4416,0.9051-0.752l0.0717-0.0275
		c0.0584,0,0.108,0.0181,0.1692,0.0405v-0.0003l0.0609,0.0215l0.1278,0.0454l-0.0729,0.1143
		c-0.1879,0.2953-0.3759,0.5918-0.5936,0.919v0.5865c0.0153,0.0394,0.0397,0.0845,0.0669,0.1346
		c0.0184,0.0334,0.0385,0.0706,0.0601,0.1131l0.0788,0.1565h-0.1749c-0.0768,0-0.1542,0.0002-0.2514,0.0244l-0.0502,0.0127
		L52.4384,77.733L52.4384,77.733z M53.9986,77.574l-0.7104-0.7104l-0.0318-0.0317v-0.0445v-0.2779v-0.0529l0.0425-0.0326
		c0.2322-0.1774,0.4397-0.364,0.6463-0.5502c0.2055-0.1854,0.4127-0.3702,0.6471-0.5505c0.1318-0.1318,0.2668-0.2931,0.4008-0.4537
		h0.0006l0.0091-0.0109l0.1902,0.0692c0,0.0522,0.0159,0.1121,0.0346,0.1835v0.0006l0.0173,0.0665l0.0145,0.0559l-0.0383,0.0428
		c-0.65,0.7311-0.661,0.7444-0.9986,1.2634c0.0017,0.1334,0.0142,0.2551,0.0272,0.3806c0.0213,0.2045,0.0439,0.4202,0.0272,0.705
		l-0.0142,0.2399l-0.1698-0.1698C54.0624,77.6655,54.0309,77.6344,53.9986,77.574L53.9986,77.574z M55.8553,77.2081
		c-0.2614-0.3138-0.2684-0.3195-0.9182-0.8065l-0.0434-0.0323v-0.0538c0-0.0521-0.0159-0.1119-0.0346-0.1835v-0.0005l-0.0173-0.0666
		l-0.0164-0.0635l0.0493-0.0439c1.4386-1.2725,1.4389-1.2728,1.7966-1.658l0.1868,0.0735c0,0.0521,0.0159,0.1119,0.0346,0.1834
		v0.0005l0.0173,0.0667l0.0142,0.0542l-0.0363,0.0425c-0.2835,0.3336-0.4552,0.6061-0.6075,0.8475
		c-0.0944,0.1497-0.1817,0.2894-0.282,0.423c0,0.4748,0.0009,0.476,0.051,0.5261l0.0272,0.0453
		c0.089,0.2962,0.0887,0.2968,0.0598,0.7047l-0.0167,0.2358l-0.1673-0.1672C55.921,77.3038,55.8887,77.2719,55.8553,77.2081
		L55.8553,77.2081z M57.8863,76.9396c-0.9065-0.7687-0.9091-0.7716-1.1911-1.1104l-0.0567-0.0681l0.0559-0.0688
		c0.3931-0.4841,0.8022-0.9261,1.1676-1.3213c0.2937-0.3174,0.5599-0.6049,0.775-0.871l0.0323-0.0397h0.0513
		c0.0802,0,0.148,0.0338,0.2149,0.0671l0.0964,0.0482l-0.0485,0.0962c-0.0873,0.1746-0.2276,0.3843-0.3671,0.5938v0.0004
		c-0.138,0.2069-0.2761,0.4144-0.3546,0.5711l-0.0082,0.0148l-0.2115,0.295l-0.0006,0.0002c-0.0703,0.097-0.14,0.1942-0.2117,0.29
		v0.4938c0.106,0.2365,0.2381,0.4748,0.3702,0.7133h-0.0003l0.0037,0.0062l0.0147,0.0536c0,0.0796-0.0193,0.1525-0.0422,0.2401
		h-0.0003l-0.0164,0.0641l-0.047,0.1831l-0.1335-0.1335C57.9484,77.0278,57.918,76.9974,57.8863,76.9396L57.8863,76.9396z
		 M35.4158,74.5245l-0.1103-0.0525l-0.0006-0.0002c-0.0882-0.0406-0.1857-0.0862-0.2846-0.1454l-0.0286-0.0252
		c-0.0516-0.0647-0.1032-0.1293-0.1681-0.2056c-0.057-0.0672-0.1179-0.1346-0.1848-0.2015l-0.0238-0.0363l-0.3331-0.8325
		l-0.0068-0.0247c-0.0275-0.194-0.0558-0.4179-0.0836-0.6407l0.0003-0.0283c0.0581-0.4079,0.1128-0.8141,0.1667-1.2198
		l0.0241-0.0549c0.068-0.0822,0.1366-0.1712,0.2044-0.2622c0.0453-0.0612,0.1298-0.1794,0.2066-0.2869l0.0542-0.0392
		c0.0714-0.0237,0.1766-0.0762,0.2818-0.1284v0.0003l0.0091-0.0045l0.0482-0.0119c0.6602,0,0.6605,0.0002,0.8748,0.0917
		l0.0366,0.0259c0.3708,0.3994,0.3713,0.4,0.6834,1.0244l0.0085,0.0221c0.1142,0.4576,0.1142,0.4581,0.1142,1.8575l-0.0071,0.0375
		c-0.0439,0.1171-0.0887,0.2367-0.129,0.3361c-0.0448,0.11-0.0947,0.2231-0.1534,0.3408l-0.0272,0.0346l-0.4995,0.4164
		l-0.0689,0.0252h-0.555v-0.108L35.4158,74.5245L35.4158,74.5245z M34.9512,73.1313c0.2996,0.4493,0.3163,0.4728,0.5403,0.6301
		c0.0816-0.0116,0.1636-0.024,0.2489-0.0334c0.0652-0.0071,0.1295-0.0116,0.1908-0.0146c0.0088-0.0624,0.0079-0.1182,0.0079-0.173
		l0.0317-0.0759l0.1723-0.1724c0.0354-0.1752,0.0527-0.4502,0.0527-0.7472c0-0.3118-0.0196-0.6478-0.0592-0.9193
		c-0.1743-0.4235-0.1837-0.4431-0.4417-0.7249h-0.4623c-0.201,0.2016-0.2129,0.2245-0.3818,0.6347v1.342
		c0.0241,0.0502,0.0431,0.0944,0.0587,0.1355C34.9223,73.0463,34.937,73.089,34.9512,73.1313L34.9512,73.1313z M31.7503,68.7058
		c0.9984,0.2047,1.9817,0.4068,2.9733,0.5913c0.9995,0,1.0117-0.0002,1.5409-0.0793c0.2098-0.1046,0.419-0.2092,0.6095-0.2914
		c0.1298-0.1295,0.2599-0.259,0.3909-0.3659c0.0519-0.1104,0.0984-0.1956,0.146-0.2826c0.1003-0.1832,0.2095-0.3807,0.3906-0.8686
		c0.0802-0.5363,0.0802-0.5471,0.0802-2.1072c-0.0808-0.6191-0.0831-0.6279-0.466-1.9956c-0.2202-0.551-0.4408-1.1039-0.6574-1.6178
		l-0.735-1.0618c-0.1636-0.1367-0.328-0.2742-0.4686-0.415l-0.0161-0.0208c-0.0649-0.1083-0.066-0.1102-0.4867-0.3077h-0.5921
		c-2.1098,0.9039-2.1161,0.9068-3.4665,1.6236c-0.7155,0.4652-1.0378,0.711-1.4593,1.0336
		c-0.2191,0.1672-0.4663,0.3563-0.8271,0.6199c-0.3872,0.3735-0.7753,0.7474-1.1608,1.1157
		c-0.3875,0.3699-0.7747,0.737-1.1594,1.0945c-0.1341,0.1752-0.2432,0.3588-0.3308,0.5073
		c-0.076,0.1287-0.1381,0.2356-0.1967,0.2999v0.5317c0.0984,0.0624,0.186,0.1217,0.2687,0.1784
		c0.0947,0.0651,0.1908,0.1335,0.2852,0.2012l0.0063,0.0023c0.6894,0.248,1.3805,0.4971,2.0299,0.7404
		c0.9108,0.2484,1.7541,0.4858,2.5963,0.7225l0.0893,0.025L31.7503,68.7058L31.7503,68.7058z M43.0654,68.3745
		c0.2134,0.0422,0.4297,0.0666,0.6457,0.0904h1.931c10.5398-1.6597,10.5429-1.6605,19.3598-3.1345
		C77.271,63.157,80.7072,62.515,83.8032,61.937c1.1398-0.2126,2.2345-0.4174,3.7023-0.6854
		c0.2673-0.0797,2.7232-0.5528,5.182-1.0256c2.5234-0.485,5.0508-0.9714,5.1792-1.0228l0.0184-0.0054
		c4.0337-0.8215,6.3235-1.2992,7.7148-1.5891c1.6968-0.3535,2.0602-0.4297,2.6654-0.5204c1.2056-0.2812,2.6623-0.5976,4.9853-1.1016
		c2.4752-0.5372,5.9309-1.2875,11.0517-2.4219v-0.0003c25.1972-5.9386,25.1977-5.9388,27.9709-6.6875l0.0088-0.0017
		c0.4436-0.0805,2.9432-0.7018,5.4003-1.3271c2.5495-0.6492,5.0485-1.3008,5.1387-1.3524l0.038-0.0134
		c0.3203-0.0479,0.6469-0.1354,3.1229-0.7985c1.7181-0.4603,4.4779-1.1996,9.0485-2.4105l0.0516-0.0516
		c-0.1157-0.0371-0.231-0.07-0.339-0.0997h-0.0005l-0.1151-0.0323h-0.6387c-4.1547,1.0859-8.4098,2.2059-12.6649,3.3256
		c-1.3011,0.3875-1.3017,0.3878-19.0987,4.8301h-0.0009c-12.4472,2.9793-12.4478,2.9795-25.2831,5.9395l-0.0014,0.0003
		c-4.574,0.998-9.1485,1.9962-13.7375,2.9695h-0.0014c-7.3398,1.4792-7.3403,1.4795-22.7855,4.4408l-0.0017,0.0003
		c-2.0396,0.3605-4.0799,0.722-6.1194,1.0788c-2.0282,0.3553-4.0663,0.709-6.1197,1.0583h-0.0009l-0.1406,0.0223
		c-4.68,0.7475-9.3597,1.4954-13.9309,2.1984h-0.0017c-3.1518,0.4224-4.5867,0.6366-5.891,0.8311
		c-0.9054,0.1346-1.7476,0.2607-3.1005,0.4456l-0.0182,0.0009c-0.6775-0.0259-1.3626-0.027-2.0253-0.027V68.3745L43.0654,68.3745z
		 M43.1113,66.3431c0.1148,0.0363,0.2262,0.0698,0.3291,0.0958h2.2841c3.3554-0.5347,5.1815-0.8383,7.5838-1.2377
		c2.5588-0.4254,5.7753-0.9603,12.248-2.0077c24.3439-4.436,24.3445-4.4363,31.9688-5.9389v0.0003
		c6.6801-1.4412,13.3614-2.8641,20.0259-4.2831l4.254-0.9059l0.1701-0.0391c4.259-0.9828,8.5187-1.9658,12.7894-2.9302v-0.0002
		c12.2289-2.9192,12.3205-2.9413,13.4019-3.2655c0.1298-0.1273,0.2599-0.2324,0.3895-0.3365
		c0.0748-0.1309,0.1556-0.2701,0.2364-0.4075c0.1329-0.2265,0.2628-0.4468,0.3866-0.6766c0.3804-0.9241,0.3847-0.936,1.6163-4.4113
		c-0.1517-0.2591-0.1673-0.2728-0.3915-0.4077c-0.5326-0.106-0.6196-0.1125-8.6834-0.6613l-0.5533-0.0275
		c-3.7556-0.1848-7.4883-0.369-11.2107-0.5275c-6.6592-0.1664-6.6614-0.1667-15.0914-0.2775
		c-2.6342,0.0814-5.273,0.1367-7.8846,0.1911l-0.1584,0.0034c-1.0899,0.0686-2.1881,0.1316-3.2902,0.1908
		c-1.0905,0.0587-2.1889,0.1143-3.2868,0.1698c-0.9352,0.0963-1.8703,0.1925-2.8273,0.2874
		c-0.9692,0.0961-1.9196,0.1871-2.8307,0.2676c-5.0944,0.7475-5.0956,0.7477-5.5585,0.8839l-0.1074,0.0317l-0.0275-0.1091
		c-0.0309-0.124-0.0312-0.2141-0.0312-0.3036v-0.0445l0.0318-0.0319l0.222-0.2219l0.0609-0.0307
		c1.7031-0.2472,3.405-0.4982,5.1063-0.7491l0.0037-0.0002l6.5772-0.7495l0.0043-0.0006l0.6911-0.0513
		c3.1212-0.2321,6.2212-0.4631,9.328-0.6701h0.0017l0.326-0.0173c2.4956-0.1329,4.9683-0.2648,7.4455-0.3713h0.0017
		c4.7424-0.1353,9.4915-0.2446,14.2138-0.3533l0.3291-0.0076h0.0011c6.1313-0.0553,12.2655-0.1041,18.4003-0.1492
		c6.1316-0.0447,12.2644-0.087,18.396-0.1284c0.9799-0.0417,2.209-0.1349,3.6198-0.2415c1.3552-0.1023,2.8806-0.2178,4.5374-0.3135
		l0.006-0.0003h6.5151c0.0128-0.0284,0.0091-0.0453-0.0108-0.0808c-0.457-0.1613-0.9145-0.322-1.3377-0.4544
		c-0.6095-0.0759-1.2274-0.1295-1.8221-0.1808l-0.1347-0.0117c-36.2931-0.3608-36.2942-0.3611-42.7864-0.4998l-0.0652-0.1916
		c0.1312-0.105,0.2421-0.2158,0.3515-0.3252l0.0564-0.0297c0.7257-0.136,1.4417-0.2537,2.1546-0.3694
		c-4.7313-0.2438-4.9-0.2509-6.7306-0.2752c0.0113,0.1259,0.0133,0.2483,0.0139,0.3611l0.2509,0.0627l0.0709,0.0179l0.0102,0.0714
		c0.0133,0.0944,0.0273,0.1902,0.0383,0.2914c0.0108,0.0975,0.0181,0.1925,0.0181,0.2789v0.0576l-0.0482,0.032l-0.4995,0.3331
		l-0.0437,0.0173c-0.282,0.0422-0.7812,0.0635-1.279,0.0635c-0.4975,0-0.9967-0.0213-1.2787-0.0635l-0.0437-0.0173l-0.4994-0.3331
		l-0.0482-0.032V34.243v-0.3606l0.0318-0.0759c0.1451-0.1454,0.1613-0.1605,0.3846-0.2064v-0.6389l-8.9268-0.1621
		c0.0116,0.1125,0.0122,0.2129,0.0122,0.3118c0.1378,0.3164,0.2611,0.6313,0.3801,0.9346h0.0003l0.1392,0.3524l0.0261,0.066
		l-0.0502,0.0499c-0.0249,0.0249-0.0462,0.055-0.0635,0.079c-0.0153,0.0219-0.0292,0.0414-0.0473,0.0596l-0.032,0.0323
		l-0.0459-0.0009l-0.0819-0.0015c-1.7385-0.0269-3.4512-0.0538-5.1894-0.0538h-0.2242l0.1403-0.1754
		c0.1446-0.1807,0.2971-0.3657,0.447-0.5474c0.1735-0.2103,0.3447-0.4167,0.5156-0.6339c0.0349-0.0768,0.0825-0.1482,0.1318-0.2208
		h0.0003c0.0533-0.0783,0.1103-0.1607,0.1497-0.2565c-1.4139-0.027-2.8043-0.053-4.2134-0.053v-0.0004
		c-9.7345,0.1661-9.7362,0.1664-14.7311,0.3608l-0.0034,0.0004c-2.7408,0.1936-5.4825,0.3875-8.238,0.5547v-0.0002
		c-2.524,0.2469-5.0604,0.4977-7.5957,0.7487c-1.6506,0.2247-3.2905,0.4265-4.9093,0.6252l-0.4643,0.0573v0.0851
		c0.2412,0.0238,0.4819,0.0445,0.7245,0.0445l0.019,0.002c0.9244,0.1677,0.9249,0.1681,2.787,0.7239l0.0142,0.0057
		c0.5043,0.2325,1.0074,0.4515,1.5001,0.6655l0.635,0.2773l0.0227,0.0133c0.3543,0.2725,0.3549,0.273,1.5962,0.9624l0.0176,0.0121
		c0.5814,0.4987,1.1639,0.9978,1.7464,1.4692l0.0399,0.0326v0.051v0.6661l-0.011,0.0468c-0.362,0.752-0.3699,0.7702-0.5672,0.9393
		c-0.756,1.4205-1.2214,2.2723-1.516,2.8114c-0.4042,0.7408-0.4816,0.8825-0.5763,1.1507l-0.0372,0.0501
		c-0.0434,0.0326-0.0981,0.1454-0.5465,1.0758c-0.3274,0.6786-0.8609,1.7852-1.7504,3.5989
		c-1.4726,3.5291-1.4732,3.5297-1.8091,4.1178l-0.0244,0.0292c-0.0785,0.0658-0.1505,0.1307-0.2189,0.1923
		c-0.0771,0.0699-0.1514,0.1369-0.2271,0.1975l-0.0451,0.0216c-0.3997,0.0856-0.4,0.0859-0.8549,0.0859l-0.0261-0.0034
		c-0.9527-0.2384-1.904-0.4763-2.8304-0.7044c-0.9306-0.2291-1.8712-0.4576-2.8293-0.6829l-0.0082-0.0025
		c-2.3573-0.7487-4.7157-1.4979-7.0484-2.2199l-0.0074-0.0024l-0.0374-0.0148c-1.2668-0.4955-2.5342-0.9916-3.7653-1.4843
		l-0.0043-0.0017c-3.1734-1.4374-3.2561-1.4746-3.5255-1.6894l-0.0445-0.0078h-0.0003c-0.1261-0.0215-0.2367-0.0399-0.3438-0.041
		l-0.0238,0.0056v-0.0005c-1.2552,0.3004-2.5106,0.6012-3.759,0.9059c-3.604,1.1086-3.6059,1.1093-8.985,2.9673
		c-0.5729,0.2345-1.1817,0.4859-1.8093,0.7472c-0.599,0.2493-1.1954,0.4995-1.7912,0.7487
		c-1.3878,0.6562-2.7947,1.3088-4.1922,1.9568l-1.933,0.8978c-1.749,0.9839-3.5314,1.9587-5.3138,2.9336
		c-0.0692,0.0683-0.1378,0.1298-0.2047,0.1865c-0.0609,0.0516-0.1273,0.1057-0.193,0.1584l-0.4008,0.8013
		c-0.0788,0.2387-0.1338,0.4822-0.1877,0.7256v0.0009l-0.0003,0.0009c-0.0224,0.2492-0.0252,0.506-0.0258,0.7628
		c0.1936-0.047,0.2293-0.0708,0.3722-0.1949c0.1077-0.8895,0.11-0.8958,0.2523-1.2373l0.0232-0.0349
		c0.2052-0.2052,0.2055-0.2056,0.5803-0.4073l0.0417-0.0128c0.7611-0.0657,1.3105-0.1159,1.8592-0.1658l0.0142-0.0007l1.8593,0.0834
		l0.0411,0.0103c0.2344,0.11,0.4691,0.2208,0.7036,0.3291c0.2327,0.1074,0.4621,0.2117,0.6814,0.3079l0.0235,0.0139
		c0.3912,0.3073,0.7829,0.6151,1.137,0.8875l0.013,0.012c0.1585,0.171,0.4204,0.4113,0.7237,0.6906
		c0.3742,0.3438,0.8133,0.7484,1.2132,1.163c1.5137,1.2112,1.5151,1.212,2.1186,1.5684l0.0272,0.0226
		c0.1647,0.1923,0.3299,0.385,0.4725,0.5562l0.0159,0.0258c0.2733,0.6281,0.282,0.6478,0.436,1.2646
		c0.1032,0.0343,0.2064,0.0682,0.3127,0.1014H43.1113L43.1113,66.3431z M85.3597,55.8824
		c-0.2976-0.0893-0.2982-0.0895-0.8152-0.5205l-0.0391-0.0322v-0.0505v-1.11l0.0054-0.0334
		c0.3611-1.1111,0.3614-1.1115,1.0018-2.6986l0.0051-0.011c0.2149-0.3994,1.247-2.7996,2.124-4.8399
		c0.6279-1.4601,1.1781-2.7374,1.3105-2.9931l-0.0017-0.0005c0.089-0.2971,0.0896-0.2977,0.8515-1.2575l0.0128-0.0133
		c0.2472-0.2197,0.4964-0.4689,0.7447-0.7172l0.015-0.0125c0.3563-0.2469,0.7432-0.4958,1.1293-0.7441l0.0003-0.0002l0.0116-0.0074
		l0.0156-0.0082c1.6957-0.7225,1.6963-0.7228,2.6198-1.0026l0.0173-0.004c1.4627-0.1919,2.9478-0.4081,4.4501-0.6264l0.6551-0.0952
		l0.0153-0.0012h1.4709l0.0372,0.0067l0.0193,0.0072v0.0002c0.3008,0.1094,0.6041,0.2196,0.9283,0.3552l0.0286,0.0176
		c0.1752,0.1497,0.3852,0.3337,0.5953,0.5173l0.0439,0.0386l0.0181,0.0204c0.3634,0.5312,0.364,0.5319,0.7001,1.1764l0.0099,0.0267
		c0.1675,0.7549,0.1678,0.7552,0.557,5.1202l0.0006,0.0034c0.1661,2.9668,0.1664,2.9673,0.2767,3.7943l0.0011,0.0139v2.0259
		l-0.0085,0.0409c-0.1987,0.4824-0.199,0.4827-0.4,0.7699l-0.0283,0.0283c-0.1137,0.0757-0.2254,0.1505-0.3793,0.25
		c-0.131,0.0847-0.2648,0.1698-0.4022,0.2523l-0.0267,0.0112l-0.125,0.0349c-0.1582,0.0437-0.3311,0.0916-0.504,0.1565
		l-0.0235,0.006c-5.1579,0.693-10.3167,1.3867-15.4854,2.1093l-0.0148,0.0012h-1.3876v-0.1081L85.3597,55.8824L85.3597,55.8824z
		 M107.136,52.3822c-0.3098-0.1238-0.3104-0.1241-0.468-0.3761l-0.0136-0.0338c-0.0272-0.1235-0.055-0.2471-0.0859-0.3718
		c-0.0312-0.1245-0.0658-0.2484-0.1052-0.3671l-0.0056-0.032l-0.0834-4.8795c-0.1088-1.0372-0.246-2.0789-0.3827-3.1201
		l-0.0045-0.0329c-0.5547-2.9695-0.5553-2.9704-0.6389-3.7242l0.0051-0.0461c0.0267-0.0797,0.0539-0.1607,0.0808-0.2693
		l0.0122-0.0476l0.0442-0.0225c0.3453-0.1726,0.3458-0.1729,1.1072-0.3422l0.0232-0.0027h6.5772l0.0198,0.002
		c1.0344,0.1959,1.0347,0.1962,1.5974,0.3929l0.0232,0.0116c0.5683,0.3694,0.5689,0.3699,0.9386,0.7966l0.0156,0.0233
		c0.4972,1.0216,0.4975,1.0219,0.6851,1.2903l0.0136,0.0261c0.3612,1.0275,0.3614,1.0281,0.7512,2.421l0.0023,0.0088
		c0.1103,0.5789,0.2208,1.1583,0.36,1.7433l0.0025,0.0173c0.0833,1.1415,0.0836,1.1418,0.0836,3.5322l-0.0017,0.0185
		c-0.1687,0.9555-0.169,0.9561-0.3685,1.4122l-0.0181,0.0283c-0.4241,0.4808-0.4243,0.4811-0.7129,0.6829l-0.0374,0.017
		c-0.2801,0.0646-0.559,0.1457-0.8501,0.2301l-0.254,0.0735l-0.0147,0.0034l-0.8073,0.1168
		c-1.8629,0.269-3.7451,0.5414-5.5746,0.8264l-0.0164,0.0017h-1.8592v-0.108L107.136,52.3822L107.136,52.3822z M39.9557,50.1979
		c0.5471,0.341,1.4428,0.8986,2.9494,1.8651h0.5017c0.9011-0.4044,1.5029-0.6397,1.8794-0.7866h0.0003
		c0.2962-0.1153,0.4467-0.1743,0.481-0.2083l0.04-0.0255c3.1308-1.1084,3.1311-1.1086,7.6904-2.5818l0.0051-0.0017
		c0.9159-0.2461,1.8363-0.4935,2.7859-0.7461c0.9011-0.2395,1.8125-0.4788,2.7383-0.7172c1.1509-1.1001,2.5568-2.3221,3.5532-3.1876
		c0.5644-0.4901,0.9978-0.8657,1.1716-1.0334c-0.1729-0.1364-0.2038-0.1462-0.4277-0.2134l-0.0453-0.0273
		c-0.0391-0.0391-0.4343-0.2261-0.8433-0.4192c-0.4283-0.2019-0.8719-0.4116-0.9969-0.5085
		c-2.573-1.1963-3.966-1.8569-4.8915-2.2955c-1.0888-0.5162-1.5375-0.7291-2.4205-1.1115l-0.0437-0.034
		c-0.0266-0.0354-0.4808-0.2505-0.9459-0.4711c-0.4391-0.2078-0.8892-0.4212-1.0437-0.5242
		c-0.6732-0.2865-1.0701-0.4759-1.3615-0.6147c-0.2735-0.1304-0.4558-0.2169-0.6783-0.2954L50.0335,36.25
		c-0.3404-0.2072-1.1268-0.5729-1.8167-0.8936c-0.5726-0.2661-1.0808-0.5023-1.2302-0.6011
		c-0.6596-0.2807-1.0579-0.47-1.4817-0.6713c-0.4133-0.1965-0.8524-0.4051-1.563-0.7135l-0.019-0.0106
		c-0.1318-0.092-0.3158-0.181-0.4989-0.2689c-0.1874-0.0902-0.3742-0.18-0.5185-0.2795c-5.1854-2.4021-8.5243-3.9707-11.3734-5.3093
		c-2.7388-1.2867-5.027-2.3613-8.0515-3.7525H22.121l-0.0828,0.0071c-2.603,0.2189-5.2064,0.4382-7.7927,0.6307l-0.0303,0.0045
		h-0.0003c-1.3181,0.1919-2.6371,0.3846-3.9575,0.5493c-1.076,0.2549-2.1512,0.5096-3.117,0.7441
		c-0.2974,0.1346-0.6009,0.2463-0.9045,0.3563c-0.1346,0.0927-0.267,0.1599-0.4241,0.2401v0.0002
		c-0.1718,0.0875-0.3756,0.1917-0.6381,0.3566l-0.6222,0.6999c0.0218,0.1548,0.0422,0.3084,0.0482,0.4493
		c0.0451,0.0238,0.1066,0.0623,0.2194,0.1343c0.237,0.1514,0.7172,0.458,1.7827,1.0941l0.021,0.0165
		c0.0839,0.0842,0.1931,0.1497,0.3504,0.244c0.1763,0.1058,0.4113,0.2469,0.7438,0.4924c1.23,0.7585,2.0155,1.2523,2.6042,1.6228
		c0.8232,0.5179,1.2631,0.7946,2.0237,1.2314l0.0062,0.0037c1.0091,0.6777,2.1541,1.4052,3.0274,1.9601
		c0.7421,0.4717,1.2923,0.8218,1.4171,0.929c3.6677,2.2748,4.9788,3.1363,5.5979,3.543c0.2455,0.1617,0.3829,0.2517,0.5142,0.3295
		c0.1511,0.047,0.2687,0.1224,0.4028,0.208h0.0003c0.1174,0.0752,0.2492,0.1594,0.4289,0.2365l0.0439,0.0343
		c0.0303,0.0403,0.5275,0.3606,1.0247,0.6806c0.4725,0.3041,0.9465,0.6097,1.0627,0.7126c0.6976,0.4017,1.1458,0.6945,2.2751,1.4341
		c0.6653,0.4354,1.5693,1.0267,2.9021,1.8882c0.2211,0.0955,0.3484,0.1755,0.8558,0.4938c0.3818,0.2398,0.9853,0.6185,2.0347,1.2578
		l0.0201,0.0156c0.0955,0.0955,0.3316,0.2661,0.5893,0.4305c0.2401,0.1531,0.4989,0.3014,0.6809,0.379l0.0439,0.0346
		c0.0255,0.034,0.5238,0.3524,1.0763,0.7055c0.663,0.4235,1.4046,0.8972,1.5641,1.0452c0.2064,0.0898,0.3288,0.1649,0.5043,0.2729
		v-0.0002c0.1434,0.0881,0.3246,0.1995,0.6222,0.3608l0.0309,0.0249C39.1501,49.6961,39.3046,49.7925,39.9557,50.1979
		L39.9557,50.1979z M121.8702,50.0502c-0.2253-0.0964-0.2259-0.0969-0.3824-0.3475l-0.0136-0.0326
		c-0.1134-0.483-0.114-0.4839-0.114-2.2368c-0.2962-2.0571-0.4442-2.861-0.6412-3.9357c-0.0984-0.5366-0.2097-1.1412-0.3546-1.9854
		c-0.1939-0.5536-0.195-0.5573-0.2789-1.0341l0.0017-0.0436l0.0411-0.1693h-0.0003c0.013-0.0559,0.0269-0.1171,0.0408-0.1874
		l0.0298-0.0552l0.3331-0.3331l0.0318-0.0318h0.0445h1.7762l0.0179,0.0017c6.6288,1.1047,6.6657,1.1115,7.3021,1.3051v-0.0003
		c0.9059,0.1811,1.8187,0.3824,2.7462,0.5867l0.614,0.1353l0.0105,0.0034c0.6933,0.231,1.4519,0.4753,2.2096,0.7191l0.093,0.0298
		l0.0204,0.009l0.2115,0.1168c0.1383,0.0748,0.2849,0.1548,0.4306,0.2458l0.034,0.0342c0.3416,0.5409,0.3421,0.5414,0.4286,0.8312
		l0.0045,0.0309v1.4709l-0.002,0.0198c-0.0575,0.3024-0.1162,0.6097-0.1698,0.8787c-0.0575,0.2883-0.1205,0.5869-0.1916,0.9012
		l-0.0102,0.0275c-0.2001,0.3713-0.2007,0.3722-0.5154,0.7155l-0.0456,0.0295c-0.159,0.0527-0.3215,0.1072-0.5015,0.1695
		c-0.1698,0.0587-0.3427,0.1213-0.5202,0.1896l-0.021,0.006l-1.5514,0.2639c-3.2278,0.5493-6.4743,1.1018-9.7433,1.6787
		l-0.0184,0.0017h-1.3042v-0.108L121.8702,50.0502L121.8702,50.0502z M204.3068,47.8202c0.9335,0.1643,0.9405,0.1655,2.7536,0.3577
		l3.3454-0.083c1.4602-0.1925,1.4655-0.1936,3.3939-0.5516c1.8479-0.5516,1.8553-0.5539,2.7536-0.9352l0.864-0.5334v-0.0004
		c0.269-0.1652,0.5403-0.3296,0.8102-0.4917l0.0045-0.0219c0.0133-0.0641,0.0258-0.1213,0.0329-0.1764
		c-0.3835-0.0456-0.4065-0.0555-0.5924-0.1612c-0.8379-0.2234-1.3068-0.3643-2.6895-0.7778
		c-1.3711-0.4105-3.636-1.0883-7.9572-2.3559v-0.0002c-2.7862-0.7771-5.8671-1.6651-9.5105-2.7151
		c-3.2134-0.9263-6.8709-1.9805-11.2351-3.2198c-1.3711-0.0822-1.3884-0.0825-7.3925-0.0825
		c-2.0121,0.0825-2.0163,0.0829-6.6492,0.4714c-2.4089,0.3597-2.4148,0.3611-4.1437,0.7177
		c-1.0536,0.4071-1.1755,0.4553-1.2745,0.5455c0.0218,0.1321,0.0417,0.2628,0.0468,0.3798
		c0.0366,0.0289,0.0689,0.0565,0.0998,0.0825v0.0002c0.0405,0.0345,0.0791,0.0671,0.1157,0.093
		c4.54,1.1074,4.5499,1.11,10.2762,2.6035c0.5341,0.1005,7.7218,1.9072,14.5443,3.6426
		C197.9464,46.1451,203.7067,47.628,204.3068,47.8202L204.3068,47.8202z M131.7821,34.2802l0.2829,0.0414
		c-0.2906-0.1216-0.3325-0.1528-0.4833-0.3028c-0.0675,0.0006-0.1097,0.0017-0.1392,0.006
		c0.0572,0.0445,0.1134,0.0862,0.1684,0.1267C131.6701,34.1951,131.7288,34.2382,131.7821,34.2802L131.7821,34.2802z
		 M134.1729,34.025c-0.1565,0.0978-0.3132,0.1948-0.4697,0.2812l0.4867-0.108c0.0629-0.0464,0.1168-0.0845,0.1672-0.1185
		C134.3259,34.0582,134.2777,34.0463,134.1729,34.025L134.1729,34.025z M169.3704,34.1914c2.198,0.0228,4.2148,0.0437,6.2719,0.0828
		l0.0581,0.0179c0.0241,0.0159,0.0275,0.0178,0.0873-0.0179c0.1738-0.2492,0.2174-0.368,2.0273-5.258l0.0252-0.0391
		c0.0247-0.0244,0.1108-0.2631,0.2101-0.5378v-0.0002c0.104-0.2874,0.2228-0.6134,0.32-0.8113
		c1.6532-4.6537,2.7068-7.5835,3.4044-9.5235c0.8787-2.4446,1.1789-3.2789,1.5894-4.5423l0.0026-0.0065
		c0.3951-0.9877,0.5856-1.5282,0.8694-2.3341h0.0003c0.1896-0.5392,0.4221-1.1982,0.7843-2.1863
		c-0.0167-0.0983-0.0215-0.1953-0.023-0.2916l-0.3515,0.0244c-2.6223,0.1816-5.2228,0.3625-7.8307,0.5196
		c-0.7291,1.2903-1.4255,2.4936-2.1203,3.6966l-0.0159,0.0272l-0.0286,0.0321c-0.0374,0.0281-0.4499,0.7356-0.8609,1.4414
		c-0.3892,0.6681-0.7784,1.3365-0.8921,1.4771c-0.6647,1.1785-1.0375,1.8179-1.2642,2.2074
		c-0.2883,0.4944-0.3427,0.5873-0.3852,0.7302l-0.0275,0.0453c-0.0955,0.0952-0.2214,0.2996-0.3575,0.5201h0.0003
		c-0.1196,0.1948-0.2478,0.4039-0.3781,0.574c-0.5851,1.0888-0.8677,1.5704-1.1492,2.0508
		c-0.1899,0.3249-0.3804,0.6494-0.678,1.1877l-0.0298,0.0344c-0.0368,0.0275-0.2407,0.394-0.4436,0.7589
		c-0.1947,0.3506-0.3892,0.702-0.4771,0.8022c-0.2089,0.3906-0.3441,0.6154-0.4456,0.7846
		c-0.1094,0.1823-0.1803,0.2996-0.2645,0.4966l-0.0346,0.0443c-0.0479,0.0357-0.144,0.1791-0.2693,0.4095
		c-0.1142,0.2104-0.2492,0.4895-0.3898,0.822l-0.0085,0.0162c-0.3929,0.6177-0.3935,0.6182-1.1194,1.4558l-0.0391,0.0287
		c-0.1806,0.0774-0.1811,0.0776-0.6401,0.4558l-0.0224,0.0145c-0.5221,0.2471-1.0454,0.4952-1.5568,0.7222l-0.0091,0.0037
		c-0.2123,0.0709-0.4252,0.1421-0.6222,0.2052c-0.2069,0.0667-0.4102,0.1299-0.6035,0.1852l-0.0105,0.0022l-0.0082,0.0015v0.0002
		c-1.2994,0.2487-2.5994,0.4978-3.8781,0.72h-0.0003c-3.9013,0.65-6.7147,1.1069-8.6528,1.421
		c-2.4695,0.4005-3.5016,0.5684-3.6471,0.6265l-0.0281,0.0071c-0.379,0.0419-0.8033,0.1134-1.4199,0.2165
		c-0.5834,0.0979-1.3391,0.2251-2.3695,0.3805v0.0774c6.4315,0.0547,12.8616,0.0824,19.2645,0.1097l0.0819,0.0003h0.0017
		C164.2385,34.1385,166.9181,34.1665,169.3704,34.1914L169.3704,34.1914z M176.523,33.9913
		c-0.0173,0.1074-0.0218,0.2177-0.0235,0.3195c0.3132-0.0358,1.2447-0.0405,7.6405-0.064
		c0.1774-0.5185,0.3997-1.4006,5.3552-21.0377c0.1718-0.8064,0.4354-1.8907,0.6684-2.8499c0.2171-0.8935,0.4088-1.6786,0.474-2.0291
		L190.347,8.353c-1.573,0.1248-3.1258,0.2489-4.6893,0.3505c-0.1236,0.3982-0.349,1.0253-0.6157,1.77
		c-0.3039,0.8478-0.6639,1.8521-1.0009,2.878l-0.0077,0.0176c-0.1083,0.2012-0.2103,0.5082-0.4346,1.1835
		c-0.1687,0.5082-0.4059,1.2217-0.752,2.2144l-0.0009,0.0028c-0.8297,2.1804-1.294,3.4543-2.4265,6.5625
		C179.5864,25.619,178.3981,28.8796,176.523,33.9913L176.523,33.9913z M189.4944,13.2123l0.0009-0.0032v-0.0005L189.4944,13.2123
		L189.4944,13.2123z M118.4335,34.0177c-0.0113,0.0686-0.0159,0.1372-0.0184,0.201c0.2373-0.0329,0.9139-0.0581,3.8696-0.1619
		c-0.059-0.3291-0.0689-0.3432-0.1568-0.4756l-0.0136-0.0286c-0.0658-0.2194-0.1338-0.4066-0.2083-0.6129
		c-0.1205-0.3334-0.2599-0.7186-0.4303-1.332l-0.015-0.0542l0.036-0.0433c0.0751-0.0905,0.146-0.1863,0.2123-0.2764l0.0005-0.0003
		c0.0462-0.0621,0.0904-0.1213,0.138-0.1814c0.2189-0.4224,0.3677-0.6603,0.4901-0.8561h0.0006
		c0.0935-0.1494,0.1718-0.2747,0.2551-0.4414l0.0261-0.0337c0.0949-0.0814,0.1896-0.2341,0.2707-0.3657
		c0.0658-0.1063,0.1245-0.201,0.1823-0.256c0.1003-0.2297,0.1862-0.362,0.4807-0.811c0.1888-0.2889,0.4669-0.7122,0.9017-1.3969
		c0.0836-0.1902,0.2928-0.536,0.4992-0.8768c0.1885-0.3115,0.377-0.6199,0.4572-0.7917c-0.051,0.0521-0.131,0.1525-0.3056,0.3762
		c-0.2421,0.3098-0.6599,0.8441-1.4142,1.7708c-0.3498,0.498-0.6911,0.9286-0.9884,1.3051
		c-0.3095,0.3912-0.5735,0.7249-0.7546,1.0177l-0.0182,0.0223c-0.1871,0.1735-0.5323,0.6086-0.877,1.0428
		c-0.343,0.4318-0.6854,0.8646-0.8878,1.0568c-0.0709,0.1154-0.1718,0.2418-0.2792,0.3768
		c-0.1596,0.2015-0.3356,0.4232-0.4292,0.6259l-0.0244,0.0337c-0.203,0.1882-0.3773,0.4113-0.5491,0.631
		C118.7388,33.6674,118.5951,33.8527,118.4335,34.0177L118.4335,34.0177z M146.2405,29.9545
		c1.4392,0.4402,2.918,0.8929,5.2444,1.6274h1.0046c0.5684-0.0795,0.9525-0.1474,2.0307-0.3376
		c1.1582-0.204,3.1224-0.5513,7.0237-1.2132c0.7367-0.2398,1.0043-0.3264,1.1248-0.3872c-0.481-0.1806-1.3297-0.4091-9.358-2.5645
		c-3.4937-0.1942-6.9877-0.3884-10.4731-0.5542c-3.0926,0-3.1329,0.0003-4.3832,0.08c-0.0681,0.0881-0.1041,0.1083-0.3524,0.212
		c0.0116,0.0841,0.0142,0.1584,0.0148,0.2305l0.5329,0.2965h0.0003c0.3447,0.1933,0.6826,0.3827,1.0088,0.5547
		C142.8616,28.9207,144.5233,29.4296,146.2405,29.9545L146.2405,29.9545z M3.352,26.327c-0.0003,0.3552-0.002,0.5108-0.0034,0.5789
		L3.42,26.8727l-0.0003-0.0006l0.0184-0.0082c0.0485-0.1216,0.0947-0.2412,0.1177-0.3339l0.0235-0.0451
		c0.1996-0.2281,0.1998-0.2284,1.0406-0.9011l0.0272-0.0162c0.6928-0.2769,1.3864-0.5548,2.0523-0.832L6.7167,24.73
		c0.1562-0.036,0.2914-0.0706,0.4516-0.1114c0.5582-0.142,1.4363-0.366,4.8688-1.0743c0.2837-0.3635,0.5482-0.7129,0.8093-1.057
		l-0.0003-0.0003c0.195-0.2577,0.3889-0.512,0.5976-0.7823c0.0331-0.0986,0.0669-0.1976,0.0927-0.2889
		c-0.0278,0.0021-0.0541,0.0026-0.0799,0.0029l-0.051,0.0709c-0.4725,0.6565-0.9445,1.3118-1.387,1.9368l-0.0661,0.0435
		c-0.5703,0.1188-1.1341,0.2166-1.6804,0.311l-0.2871,0.0496c-1.4202,0.3821-2.8528,0.741-4.2846,1.0987H5.6999l-0.0371,0.009
		c-0.841,0.3257-0.8484,0.3295-1.5789,0.7079c-0.1335,0.1205-0.2574,0.2372-0.3767,0.3501l-0.0006,0.0005
		C3.587,26.1093,3.4707,26.2201,3.352,26.327L3.352,26.327z M0.8076,25.1073l0.0017,0.0028L0.8147,25.12l0.0011,0.002l0.0513-0.0436
		l0.0003,0.0002l0.0485-0.0399v-0.2705l-0.1624-0.1621l-0.0309-0.0607c-0.0621-0.4147-0.0751-0.5042-0.1375-0.6066l-0.0074,0.0045
		l-0.0011,0.0009v0.7529C0.6545,24.8516,0.731,24.9797,0.8076,25.1073L0.8076,25.1073z M4.1028,22.4575
		c0.0068,0.1148,0.053,0.2047,0.3714,0.7988c0.2548-0.0006,0.2999-0.0054,0.5582-0.0782c-0.0043-0.0317-0.0062-0.0618-0.0071-0.0891
		C4.7106,22.8713,4.3965,22.6544,4.1028,22.4575L4.1028,22.4575z M177.9194,7.6234c-0.0346,0.0185-0.0482,0.0341-0.0734,0.1061
		c2.4806-0.2291,4.8875-0.4303,7.2734-0.629l0.5522-0.0459c0.0128-0.0312,0.0238-0.0635,0.034-0.0962V6.9579h0.0003l0.0043-0.0122
		c-2.4551,0.2294-4.8379,0.4297-7.1992,0.6282L177.9194,7.6234L177.9194,7.6234z M186.5373,6.3947
		c-0.0057,0.0247-0.0094,0.0485-0.0122,0.0708c0.1615-0.1487,0.4087-0.4977,1.8734-2.5574c0.1783-0.3285,0.3166-0.5374,0.563-0.9088
		c0.2529-0.3806,0.6211-0.9354,1.2685-1.9768l0.0269-0.0292c0.051-0.038,0.0697-0.0502,0.089-0.1216l-0.0655,0.0212
		c-0.2529,0.3904-0.4162,0.6256-0.5533,0.825c-0.1928,0.2792-0.3382,0.4901-0.5896,0.9147l-0.0046,0.0068
		c-0.3339,0.4785-0.5584,0.7926-0.7622,1.0783C187.9075,4.3665,187.5404,4.881,186.5373,6.3947L186.5373,6.3947z"/>
</g>
</svg>
