<?xml version="1.0" encoding="utf-8"?>
<!-- Generator: Adobe Illustrator 21.1.0, SVG Export Plug-In . SVG Version: 6.00 Build 0)  -->
<svg version="1.1" xmlns="http://www.w3.org/2000/svg" xmlns:xlink="http://www.w3.org/1999/xlink" x="0px" y="0px"
	 viewBox="0 0 144.2394 93.4864" enable-background="new 0 0 144.2394 93.4864" xml:space="preserve">
<g>
	<path fill="none" stroke="#231F20" stroke-width="0.5444" d="M46.0151,46.8733c0,0-12.396-1.1533-17.104-1.8262
		c-4.708-0.6719-7.7827-2.498-10.0883-3.5547c-2.3067-1.0566-5.7657-3.0752-6.438-3.459c-0.6729-0.3847-2.4986-1.6338-2.4986-1.6338
		s-2.0175-2.3056-2.5937-3.8427c-0.5767-1.5376-0.9614-4.6123-0.0962-5.5733c0.8647-0.9604,2.979-1.1528,5.4766-1.5371
		c2.498-0.3847,11.5302-0.7685,14.2207-0.9609c2.6904-0.1924,4.3237-0.1924,5.1884-0.3843
		c0.8648-0.1919,2.0176-0.6728,2.0176-0.6728s7.7827-2.69,10.8579-3.1705c3.0752-0.4809,9.6084-0.769,13.5479,0.1924
		c3.9394,0.9605,9.6084,2.7862,14.2197,5.2842c4.6133,2.4981,9.3203,4.4199,10.3779,4.8042
		c1.0567,0.3843,3.8428,0.769,5.9571,0.0962c2.1142-0.6729,6.5341-3.3628,8.9355-5.4771c2.4024-2.1137,10.377-9.0317,10.377-9.0317
		s1.0576-0.5762,2.4023-0.3843c1.3457,0.1919,2.6904,0.5762,2.6904,0.5762l-11.8183,19.6021c0,0-2.3067,2.8828-2.8828,3.2666
		c-0.5762,0.3837-5.9571,0.8642-7.6866,1.0566c-1.7294,0.1924-9.5117,2.1143-12.7793,2.7871c-3.2666,0.6719-3.9394,0.96-3.9394,0.96
		s-3.7461,1.249-4.6113,1.8261c-0.8653,0.5762-1.3457,1.6328-1.3457,1.6328s-5.67-2.2089-11.4336-2.3056
		C51.2026,45.0471,46.0151,46.8733,46.0151,46.8733z"/>
	<path fill="#FFFFFF" stroke="#231F20" stroke-width="0.5444" d="M10.271,27.8484c0,0,0.9605,0.2881,1.249,0.8647
		c0.2881,0.5767,0.7686,1.4414,0.8648,2.4024c0.0962,0.9609,0,3.0742-0.1919,3.5547c-0.1924,0.4804-0.5772,1.3457-0.7691,1.6337
		c-0.1919,0.2881-1.0566,0.2881-2.4018,0c-1.3452-0.288-4.3242-1.6328-6.0537-2.498c-1.7295-0.8652-2.7862-1.4414-2.69-1.9219
		c0.0957-0.4804,2.1138-1.6338,3.0747-2.1137c0.9605-0.4805,2.9781-1.1534,4.1314-1.5376
		C8.6377,27.8484,10.271,27.8484,10.271,27.8484z"/>
	<path fill="none" stroke="#231F20" stroke-width="0.5444" d="M23.5303,24.7737L2.3921,2.8664c0,0-1.0571-0.9604,0.7686-1.7295
		c1.8256-0.7685,4.996-0.8647,5.957-0.8647c0.9609,0,2.498,0.0962,2.7866,0.2881c0.2886,0.1924,0.8647,1.5376,1.3452,1.9219
		C13.73,2.8664,36.9819,22.5637,36.9819,22.5637s-2.5942,0.6724-3.3628,1.0566c-0.768,0.3848-1.5371,0.481-1.5371,0.481
		L23.5303,24.7737z"/>
	<path fill="none" stroke="#231F20" stroke-width="0.5444" d="M85.1206,30.9231l-11.1465-7.5908c0,0-1.1523-1.2486,0.0967-1.3448
		c1.249-0.0962,3.2676,0.0962,3.6514,0.0962c0.3847,0,0.7685,0.2881,0.7685,0.2881l12.6836,7.3985c0,0-0.9609,0.6723-2.1142,0.8647
		C87.9077,30.8274,85.1206,30.9231,85.1206,30.9231z"/>
	<path fill="#FFFFFF" stroke="#231F20" stroke-width="0.5444" d="M94.3442,37.0725l-1.4414-0.7686c0,0,2.1153-1.538,4.42-1.3457
		c2.3066,0.1924,5.6689,1.4414,5.6689,1.4414l22.7725,14.0284c0,0-2.4981,0.3847-4.8037,0.0966
		c-2.3067-0.289-3.5557-0.9609-3.5557-0.9609L94.3442,37.0725z"/>
	<path fill="none" stroke="#231F20" stroke-width="0.5444" d="M46.0151,46.8733c0,0,6.0528-1.9229,11.7217-1.6338
		c5.669,0.2881,10.6651,2.2099,10.6651,2.2099l68.0273,41.6055c0,0,1.4414,0.8643,2.6914,1.1524
		c1.249,0.288,2.9776,0.5761,3.459,0.3847c0.4795-0.1924,0.96-0.1924,0.96-0.1924s-2.3057,2.1133-6.5332,2.5938
		c-4.2276,0.4814-9.6094,0.2891-15.1817-1.7285c-5.5732-2.0186-28.6328-16.2393-28.6328-16.2393L52.9331,50.1399L46.0151,46.8733z"
		/>
	<path fill="none" stroke="#231F20" stroke-width="0.5444" d="M50.6265,37.1692c0,0,0.7685-1.3457,0.7685-1.9219
		c0-0.5771,0.0967-1.4414,0.0967-1.4414s1.6338-4.8042,2.0176-6.2456c0.3838-1.4414,0.7685-3.0747,0.6719-3.459
		c-0.0957-0.3843,0-1.6333,1.1533-1.6333c1.1533,0,6.6299,0.0957,7.3027,0.2881c0.6729,0.1919,2.9785,0.7685,3.459,1.7295
		c0.4795,0.9609,0.5762,4.4199-0.0967,6.3418c-0.6719,1.9209-2.3056,6.4375-2.8818,7.3974
		c-0.5772,0.962-1.0567,2.0186-2.8828,2.1143c-1.8252,0.0967-7.2071,0.0967-7.9746,0c-0.7686-0.0957-2.0186-1.0566-2.0186-1.7295
		C50.2417,37.9377,50.6265,37.1692,50.6265,37.1692z"/>
	<path fill="none" stroke="#231F20" stroke-width="0.5444" d="M49.2817,19.9695c0,0,1.2481,0.6728,2.4971,0.769
		c1.249,0.0957,3.6514-0.2881,4.3242-0.1924c0.6729,0.0962,2.4024-0.0957,2.4024-0.0957s-3.2676-0.5771-4.6123-0.5771
		C52.5474,19.8733,49.2817,19.9695,49.2817,19.9695z"/>
	<path fill="none" stroke="#231F20" stroke-width="0.5444" d="M17.189,40.9162l3.3633,1.7295l-2.1143,4.708
		c0,0-1.6333,0.0957-2.0176,0.0957c-0.3843,0-0.6728-0.5761-0.3843-1.249C16.3242,45.5276,17.189,40.9162,17.189,40.9162z"/>
	<polygon fill="none" stroke="#231F20" stroke-width="0.5444" points="15.5557,49.5637 16.4204,47.4494 16.9966,47.5461 
		16.3242,49.7561 	"/>
	<path fill="none" stroke="#231F20" stroke-width="0.5444" d="M17.3814,49.3713c0.5761,0.1924,5.1884,1.249,5.957,1.4414
		c0.7685,0.1924,1.9214,0.4805,1.9214,0.4805l-0.5762,1.249c0,0-3.939,1.6338-6.438,2.0176
		c-2.498,0.3848-5.4766,0.1924-6.7256-0.2881c-1.249-0.4805-2.7861-0.9609-2.7861-2.0185c0-1.0557,0.9604-1.8252,2.3057-2.3047
		c1.3452-0.4815,2.0175-0.6729,2.5947-0.6729c0.5762,0,1.9214-0.0957,1.9214-0.0957v0.3838l0.7685,0.1924l0.0962-0.4805
		L17.3814,49.3713z"/>
	<path fill="none" stroke="#231F20" stroke-width="0.5444" d="M59.3706,54.176l2.5938,1.6328l-1.2491,3.0752
		c0,0-1.3457-0.0967-2.0185,0c-0.6719,0.0957-0.6719,0.0957-0.6719,0.0957L59.3706,54.176z"/>
	<path fill="none" stroke="#231F20" stroke-width="0.5444" d="M61.9644,59.0764c1.0566,0.2871,2.6904,0.96,3.8427,1.249
		c1.1543,0.2871,2.4024,0.4795,2.4024,0.4795l-0.1924,0.6729c0,0-3.6514,1.8252-4.8994,2.4023
		c-1.249,0.5762-3.2666,1.249-4.8047,1.1533c-1.5371-0.0966-3.2666-1.0566-3.6514-1.4414
		c-0.3838-0.3838-0.8652-1.0566-0.5761-2.0176c0.288-0.9619,1.4414-1.4414,2.5937-1.9218c1.1533-0.4815,3.1719-0.8653,4.0361-0.7686
		C61.5796,58.9797,61.9644,59.0764,61.9644,59.0764z"/>
	<path fill="#231F20" d="M12.2886,54.5598c0,0,1.5376,0.2891,2.7861,0.2891c1.2495,0,3.1709-0.2891,3.1709-0.2891
		s-1.1523,1.8262-3.3628,1.9219C12.6729,56.5774,12.2886,54.5598,12.2886,54.5598z"/>
	<path fill="#231F20" d="M57.5444,64.9368c0,0,2.21,0.0966,2.6905,0.0966c0.4804,0,1.249-0.4804,1.249-0.4804
		s-1.1533,1.3447-2.21,1.3447C58.2173,65.8977,57.5444,64.9368,57.5444,64.9368z"/>
	<path fill="#231F20" d="M42.7476,30.3464c0,0,3.3623,2.0181,3.8437,2.3062c0.4795,0.2881,1.7285,1.0576,2.21,1.0576
		c0.4804,0,0.8642-0.2891,1.249-1.0576c0.3838-0.7686,2.21-6.2451,2.21-6.2451s0.2871-1.73-0.5772-2.7872
		c-0.8642-1.0566-2.7871-2.4018-3.5557-2.5937c-0.7675-0.1924-2.0175-0.6724-2.5937-0.5762c-0.5762,0.0957-1.5371,0-1.5371,0
		s-7.1104,2.0176-8.0713,2.3057c-0.9609,0.2881-1.8257,0.6724-1.8257,0.6724s2.0176,2.1142,4.6118,4.0361
		C41.3062,29.386,42.7476,30.3464,42.7476,30.3464z"/>
	<path fill="#231F20" d="M54.6616,34.6702c0,0-0.8652,0-1.0566-0.4805c-0.1924-0.4795,0-1.0567,0-1.0567
		s0.9609-2.2099,1.4414-3.6508c0.4805-1.4414,0.5762-2.1138,0.5762-2.4029c0-0.2881,0.3838-0.6718,1.249-0.768
		c0.8652-0.0962,5.7646,0.0957,6.6299,0.1919c0.8642,0.0962,1.6338,0.8652,1.7295,1.5376c0.0966,0.6723-0.1924,2.6899-0.5762,3.7475
		c-0.3848,1.0567-0.8652,1.6328-1.249,2.3057c-0.3848,0.6719-0.0957,0.8642-1.8262,0.9609
		C59.8511,35.1506,54.6616,34.6702,54.6616,34.6702z"/>
	<path fill="#231F20" d="M66.6724,33.6135c0,0,1.249-2.8828,1.3447-3.8432c0.0967-0.961,0.1924-1.4415,0.1924-1.4415
		s0.3847-0.5766,1.249-0.1923c0.8652,0.3842,2.9795,0.9614,3.459,1.3457c0.4805,0.3842,1.3457,1.1528,1.1533,2.1137
		c-0.1914,0.961-0.7685,2.21-0.9609,2.6905c-0.1924,0.4795-0.5762,0.7685-1.5371,0.8642c-0.961,0.0967-3.1709,0.0967-4.2276,0.0967
		C66.2886,35.2473,66.6724,33.6135,66.6724,33.6135z"/>
	<path fill="#231F20" d="M6.7158,28.425c0,0,0.1924-0.6723,0.2881-0.9604c0.0962-0.2886,0.4805-0.5772,0.8648-0.3853
		c0.3842,0.1929,0.4804,0.8653,0.4804,0.8653L6.7158,28.425z"/>
	<path fill="#231F20" d="M13.9224,34.7659c0-0.8643,0.1919-1.4405,0.8642-1.4405c0.6729,0,0.8653,0.961,0.8653,1.8252
		c0,0.8653-0.1924,1.4414-1.0572,1.4414C13.73,36.592,13.9224,34.7659,13.9224,34.7659z"/>
	<path fill="none" stroke="#231F20" stroke-width="0.5444" d="M15.8438,36.3039c0,0,1.2495,0.2881,3.1709,0.5762
		c1.9218,0.2891,19.601,1.9229,19.601,1.9229s5.2852,0.1914,8.8399,1.1523s7.8789,3.0742,11.3379,3.6514
		c3.4589,0.5761,12.0107-0.2891,17.0068-1.5381c4.9971-1.2481,9.7041-2.5938,13.2598-3.0742
		c3.5547-0.4805,7.5908-0.6729,7.5908-0.6729"/>
</g>
</svg>
