<?xml version="1.0" encoding="utf-8"?>
<!-- Generator: Adobe Illustrator 21.1.0, SVG Export Plug-In . SVG Version: 6.00 Build 0)  -->
<svg version="1.1" xmlns="http://www.w3.org/2000/svg" xmlns:xlink="http://www.w3.org/1999/xlink" x="0px" y="0px"
	 viewBox="0 0 139.3701 73.2677" enable-background="new 0 0 139.3701 73.2677" xml:space="preserve">
<g>
	<path fill="none" stroke="#231F20" stroke-width="0.332" d="M52.0307,45.041c0,0-11.77,2.9023-14.6724,3.1445
		c-2.9023,0.2412-7.4975-0.4834-8.3847-0.5644c-0.8868-0.0811-4.837-0.9678-5.482-1.21c-0.645-0.2412-2.4184-0.6445-3.144-1.1279
		c-0.7261-0.4844-2.8218-3.7891-2.8218-4.3545c0-0.5635,0-0.5635,0-0.5635s-1.0478-2.419-0.4033-3.2246
		c0.645-0.8067,2.9829-2.6611,6.2886-4.0313c3.3051-1.3711,9.3515-3.3857,10.3193-3.6279c0.9673-0.2422,1.7734-0.9668,3.2246-1.7734
		c1.4517-0.8067,6.3691-4.6758,9.8359-6.208c3.4664-1.5313,7.4175-2.7413,11.6089-2.8223
		c4.1924-0.0801,11.2061,0.8877,14.1084,1.1289c2.9033,0.2422,6.0469,0.4033,7.0948,0.3232
		c1.0478-0.081,3.5478-1.6123,5.3212-3.1445c1.7735-1.5312,11.6905-15.9629,11.6905-15.9629l4.1113-0.8066
		c0,0-5.5635,18.623-5.8057,19.3496c-0.2412,0.7246-2.6601,3.9502-3.3047,4.6758c-0.6445,0.7256-11.4482,5.0791-11.4482,5.0791
		s-3.9502,2.6601-5.4014,3.9502c-1.4511,1.29-3.1445,2.6601-3.9502,3.708c-0.8066,1.0488-1.1289,1.5322-1.1289,2.0967
		c0,0.5644,0,0.5644,0,0.5644s-6.288,0.3223-10.2392,1.6123C55.4975,42.541,52.0307,45.041,52.0307,45.041z"/>
	<path fill="none" stroke="#231F20" stroke-width="0.332" d="M19.2992,38.9941c0,0,1.0484-2.0156,2.0962-2.9014
		c1.0479-0.8877,3.1446-2.2578,3.1446-2.2578"/>
	<path fill="none" stroke="#231F20" stroke-width="0.332" d="M24.0561,41.7353c0,0,1.5317-1.6924,3.144-2.418
		c1.6128-0.7255,2.9829-0.9677,2.9829-0.9677"/>
	<path fill="#FFFFFF" stroke="#231F20" stroke-width="0.332" d="M22.2826,45.6865c0,0-2.2578,0-4.5957-0.1621
		c-2.3379-0.1612-3.4668-0.8057-3.7085-0.8858c-0.2417-0.081-0.4033-0.4843,0-0.8877c0.4034-0.4033,1.774-2.0957,3.2251-3.3056
		c1.4507-1.209,2.9825-1.7735,2.9825-1.7735s1.0478-0.1611,1.6933,0.8057c0.645,0.9678,1.209,2.0977,1.209,3.3066
		c0,1.209,0.0806,1.6924-0.1611,2.2569C22.685,45.6045,22.2826,45.6865,22.2826,45.6865z"/>
	<path fill="#231F20" d="M16.9614,37.9462c0-0.4023,0.2421-0.8056,0.7255-0.7255c0.4834,0.081,0.9678,0.7255,1.0484,1.1289
		c0.0805,0.4033,0,1.0478,0,1.0478l-1.2095,0.9678c0,0-0.4033-0.8877-0.4839-1.29C16.9614,38.6718,16.9614,37.9462,16.9614,37.9462z
		"/>
	<path fill="#231F20" d="M24.54,41.8164c0.4834,0,1.3701,1.29,1.3701,1.8545c0,0.5644-0.4028,1.6123-0.9673,1.6123
		c-0.5645,0-1.29-0.8067-1.29-1.6934S24.54,41.8164,24.54,41.8164z"/>
	<path fill="none" stroke="#231F20" stroke-width="0.332" d="M30.183,30.5293L1.2402,10.2129c0,0-1.6123-1.209-0.8863-2.418
		c0.7256-1.21,4.1919-2.9024,5.1592-3.2256C6.4809,4.247,8.2543,4.0859,8.2543,4.0859s0.3223,1.6123,0.7256,1.9346
		c0.4033,0.3232,16.9302,9.997,16.9302,9.997l15.6401,8.627c0,0-4.7563,3.0635-5.3208,3.4668
		c-0.5639,0.4033-1.7734,0.9668-1.7734,0.9668L30.183,30.5293z"/>
	<path fill="none" stroke="#231F20" stroke-width="0.332" d="M52.0307,45.041c0,0,4.5146-3.3858,9.0293-4.2725
		c4.5146-0.8877,9.0303-1.0488,9.0303-1.0488l63.7705,27.25c0,0,1.6123,0.8057,2.58,0.8057c0.9668,0,2.419-0.2413,2.7403-0.3223
		c0.3232-0.0801-2.8213,2.7412-5.0791,3.789c-2.2569,1.0479-6.6104,1.9356-8.4649,1.8545c-1.8535-0.08-4.6757-0.7246-4.6757-0.7246
		L62.5112,48.2656L52.0307,45.041z"/>
	<path fill="none" stroke="#231F20" stroke-width="0.332" d="M81.1352,19.5654c0,0-12.5772-6.0469-13.8662-6.6914
		c-1.291-0.6455-1.0489-1.6133,0.08-1.9356c1.129-0.3222,2.9834-0.6455,2.9834-0.6455l15.5596,5.8057l-0.9678,0.8867
		L81.1352,19.5654z"/>
	<path fill="#FFFFFF" stroke="#231F20" stroke-width="0.332" d="M87.101,22.2255c0,0,1.21-1.6123,3.5469-2.2568
		c2.3388-0.6455,4.2724-0.4033,4.2724-0.4033l22.7364,9.916l-2.9034,1.4512c0,0-2.5791,0.3222-4.3535-0.2422
		C108.6264,30.1259,87.101,22.2255,87.101,22.2255z"/>
	<path fill="none" stroke="#231F20" stroke-width="0.332" d="M54.2885,37.0595c0.0801-0.6455,0.4834-4.998,0.5645-6.0459
		c0.08-1.0478,0.1611-3.9511-0.1612-5.1601c-0.3232-1.209-0.6455-2.0156-0.7256-2.418c-0.081-0.4033,1.0479-1.21,2.4991-1.5322
		c1.4511-0.3223,4.4345-1.21,4.7568-1.2901c0.3223-0.081,2.6602,0.2413,3.2246,1.209c0.5645,0.9678,1.209,3.0635,1.209,3.9502
		s-0.8867,5.8858-1.209,6.9336c-0.3232,1.0479-0.6445,2.0957-0.8066,2.5801c-0.1612,0.4834-1.5313,1.1279-2.0957,1.3701
		c-0.5645,0.2422-4.5957,1.6934-5.3204,1.9356c-0.7265,0.2412-1.5322,0.1611-1.8554-0.3233
		C54.0463,37.7851,54.2885,37.0595,54.2885,37.0595z"/>
	<path fill="none" stroke="#231F20" stroke-width="0.332" d="M47.1132,21.5c0,0,2.1773,0.2412,2.9028,0.2412
		c0.7256,0,2.418-0.5635,2.9014-0.7246c0.4844-0.1621,2.9834-1.1299,3.6279-1.21c0.6455-0.0801,1.9356-0.5645,1.9356-0.5645
		l-0.5645-0.4033c0,0-2.2568,0.0821-3.3867,0.3233c-1.1279,0.2422-3.708,0.7256-4.6758,1.1279
		C48.8871,20.6933,47.1132,21.5,47.1132,21.5z"/>
	<path fill="#231F20" d="M37.5195,27.4658c0,0,0.1611,0.7256,1.3706,1.4512c1.2094,0.7255,7.6587,4.1923,9.7548,4.7568
		c2.0967,0.5644,2.6612,0.4834,3.2247,0.6445c0.5644,0.1612,0.5644-0.2412,0.8877-0.4834c0.3212-0.2422,0.4023-0.9678,0.4833-1.3701
		c0.0801-0.4033,0.3223-3.3867,0.1612-4.4346c-0.1612-1.0478-0.5645-2.4189-1.209-2.9824
		c-0.6455-0.5644-2.1768-1.6133-3.3867-1.9355c-1.209-0.3223-2.3379-0.4034-3.2246-0.3223c-0.8867,0.0801-1.854,0.4033-1.854,0.4033
		L37.5195,27.4658z"/>
	<path fill="#231F20" d="M56.0619,32.9472c0,0,0.4034-2.498,0.4834-3.4658c0.0811-0.9668-0.08-2.2578-0.08-2.5801
		c0-0.3222,0.4033-0.8056,1.0478-0.8867c0.6455-0.0801,5.4014-1.7734,5.4014-1.7734s1.0488,0.3222,1.209,0.8867
		c0.1621,0.5644,0.3232,2.0957,0.082,3.2246c-0.2422,1.1289-0.4033,2.2578-0.5654,2.5801
		c-0.1612,0.3222-0.5645,0.6455-1.0479,0.8867c-0.4834,0.2422-4.8369,1.4512-5.6435,1.6924
		C56.143,33.7539,56.0619,32.9472,56.0619,32.9472z"/>
	<path fill="#231F20" d="M66.3012,29.6425c0,0,0.2412-1.6933,0.3223-2.7412c0.081-1.0478,0.1611-1.9345,0.081-2.1767
		c-0.081-0.2412,0.0801-0.6446,0.4834-0.6446c0.4024,0,3.3057,0.0801,3.3057,0.0801s0.9668,0.0811,0.9668,0.9678
		s-0.1612,2.0156-0.3223,2.499c-0.1611,0.4844-0.3223,0.8057-0.8057,1.0479c-0.4843,0.2422-3.1445,1.5322-3.1445,1.5322
		s-0.3223,0.2412-0.7256,0.0801C66.059,30.1259,66.3012,29.6425,66.3012,29.6425z"/>
	<path fill="none" stroke="#231F20" stroke-width="0.332" d="M63.8022,48.83l2.0156,0.8868c0,0-0.1621,0.2421-0.1621,0.8056
		c0,0.5645,0,1.1299,0,1.1299s-0.1611-0.3232-0.8867,0.0801c-0.7256,0.4033-1.1289,0.8867-1.1289,0.8867L63.8022,48.83z"/>
	<path fill="#FFFFFF" stroke="#231F20" stroke-width="0.332" d="M67.4291,51.5712c0.8877,0.0811,1.7744,0.0811,2.1768,0.0811
		c0.4033,0,0.7265-0.1621,0.7265-0.1621l1.209,0.5644c0,0-0.5644,0.7256-1.0478,1.3711c-0.4844,0.6446-1.7735,1.9346-2.5,2.5791
		c-0.7246,0.6456-2.9824,1.6123-3.708,1.6123c-0.7256,0-1.9346-0.3212-2.2578-0.6445c-0.3223-0.3222-0.3223-1.5312,0.2421-2.4189
		c0.5645-0.8867,1.4512-2.0957,2.0957-2.4991c0.6456-0.4023,1.2911-0.4834,1.8545-0.4834
		C66.7846,51.5712,67.4291,51.5712,67.4291,51.5712z"/>
	<path fill="none" stroke="#231F20" stroke-width="0.332" d="M28.0868,47.6211l2.2574,0.4023l-0.4029,2.9834
		c0,0-0.3227,0.4033-0.8867,0.5644c-0.5649,0.1612-1.29,0.1612-1.29,0.1612L28.0868,47.6211z"/>
	<polygon fill="none" stroke="#231F20" stroke-width="0.332" points="27.8451,53.8291 27.7646,51.7324 28.6513,51.7324 
		28.5707,53.9091 	"/>
	<path fill="none" stroke="#231F20" stroke-width="0.332" d="M29.6186,53.0224c0.7256,0,2.5801-0.2422,3.2251-0.2422
		c0.6445,0,2.3379,0,2.3379,0l0.0805,0.8868c0,0-1.209,1.29-2.0156,1.7744c-0.8061,0.4834-3.7891,2.8213-4.8369,3.1435
		c-1.0483,0.3233-2.8218,0.3233-3.6279,0.1621c-0.8062-0.1621-1.6128-0.6455-1.6934-0.9677
		c-0.0801-0.3233,0.2422-1.6924,1.8545-2.9024c1.6123-1.2099,2.7412-1.6933,2.7412-1.6933l0.1611,0.6455l0.7256,0.08l0.0806-0.6445
		L29.6186,53.0224z"/>
	<path fill="#231F20" d="M64.2856,57.6171l3.3857-1.289c0,0-0.3223,0.8867-1.5322,1.289
		C64.9301,58.0205,64.2856,57.6171,64.2856,57.6171z"/>
	<path fill="#231F20" d="M26.6357,58.9082l1.7739-0.3233l2.0151-1.289c0,0-0.2417,1.6123-1.6928,2.1757
		C27.2807,60.0361,26.6357,58.9082,26.6357,58.9082z"/>
</g>
</svg>
