<?xml version="1.0" encoding="utf-8"?>
<!-- Generator: Adobe Illustrator 21.1.0, SVG Export Plug-In . SVG Version: 6.00 Build 0)  -->
<svg version="1.1" id="Commande" xmlns="http://www.w3.org/2000/svg" xmlns:xlink="http://www.w3.org/1999/xlink" x="0px" y="0px"
	 viewBox="0 0 140.097 32.4241" enable-background="new 0 0 140.097 32.4241" xml:space="preserve">
<g>
	<path fill-rule="evenodd" clip-rule="evenodd" stroke="#000000" stroke-width="0.216" stroke-miterlimit="2.6131" d="
		M58.0737,32.2487c-0.1823-0.118-0.2016-0.4167-0.0196-0.5324c0.4997,0.0197,1.0454,0.0131,1.4567-0.0651
		c0.0981-0.1086,0.3197-0.2274,0.2608-0.587c-23.8887,1.0953-43.5543-1.6246-44.0031-7.6091
		c-2.5336-0.4723-11.6138-2.3799-14.5661-3.2612c-2.7542-0.7368,0.2948-2.3995,2.5053-2.3995
		c0.9697,0.1936,4.0014,0.7699,4.9989,0.9399c2.2034-0.9182,4.2849-1.5834,6.1705-2.171c0-0.612,0.6585-1.2263,1.3263-1.3046
		c3.4421-0.5553,14.6007-1.8963,17.1099-2.3912c1.5647-0.7699,9.0054-4.9921,10.461-5.4307
		c3.7831-1.1398,11.734-0.2766,12.5487-0.2393c2.5676,0.118,13.737,3.1182,14.6727,3.4572c1.923,0.6968,6.0389,1.7703,9.4615,1.4953
		c2.1245-1.3036,8.4104-11.0255,10.2948-11.8052c1.2288-0.5089,3.2791-0.0689,3.4787,0.1304
		c-0.1709,3.1859-0.4719,6.6016-0.6959,9.671c4.21-0.2324,8.1626-0.5043,12.0662-0.6704c1.5939-0.0822,7.7939,0.2495,8.4413,0.2495
		c0.2744-0.0114,1.4321,0.9918-0.7671,1.4899c-4.7106,0.7812-15.9095,1.1716-20.0013,1.3042
		c-0.1825,2.408-0.4209,5.2452-0.6741,7.8268c13.227-2.2686,24.7731-4.288,37.1767-6.0874c2.425-0.07,8.5379,0.7043,9.3872,0.8608
		c0,0.0219,2.613,1.6702-1.4607,2.609c0,0.0215-54.7178,10.16-66.8438,12.327c-2.0526,0.2345-6.4825,0.9239-9.9354,0.9239
		c-0.1131,0.2166-0.7319,1.1407-1.0831,1.2109C59.3366,32.32,58.646,32.3657,58.0737,32.2487L58.0737,32.2487z M31.7699,29.4685
		c0-0.0219-14.2962-0.6846-15.4794-6.6005c1.2008,0.2781,2.1033-0.6874,2.4738-1.5219c1.2226,0.0218,52.8412,1.2521,57.4869,1.174
		c-4.6156,0.498-23.3101,2.5133-26.6757,2.8262c-1.0001,0.083-2.6408,1.6529-0.5,2.8264
		c2.5815,0.7365,11.7244,2.2437,11.8052,2.2437C44.2849,31.1918,37.6926,30.2238,31.7699,29.4685L31.7699,29.4685z M49.8362,28.0205
		c9.0014-0.5916,53.7009-7.1309,59.504-8.3267c0.248,0.826,0.5547,1.7322,0.9672,2.0739
		c-17.0997,3.2856-32.2486,5.8756-46.0789,8.1442C59.4565,29.998,51.9985,28.4117,49.8362,28.0205L49.8362,28.0205z M49.4057,27.616
		c0-0.0437-1.1228-1.1611-0.2217-1.5523c24.372-2.1957,54.1511-6.345,60.5784-8.2094c-0.4096,0.4487-0.4805,0.8416-0.4805,1.4046
		C87.2822,22.7957,66.6329,25.8784,49.4057,27.616L49.4057,27.616z M7.583,21.2808c0.7223-0.514,1.1764-0.8668,1.533-1.087
		c0.661,0.3489,4.966,2.1671,6.5222,2.8264C13.0805,22.5794,9.912,21.795,7.583,21.2808L7.583,21.2808z M8.919,19.3213
		c-0.0822-0.4774,5.5026-2.5379,8.4583-2.7581c1.4652-0.1318,2.0049,5.8771-0.652,5.8047
		C16.7253,22.9371,8.8087,19.9125,8.919,19.3213L8.919,19.3213z M83.5776,21.6505c0-0.379-55.0579-2.363-59.8629-2.363
		c0.0734-0.4289,0.1417-0.7676-0.0108-0.7676c0-0.0443-2.5333-0.2123-2.8877-0.2123c0,0.0218-0.1409,0.7166-0.1777,0.8646
		c-0.4535,0-0.7651-0.0656-1.4131-0.0656c-0.036-2.2076-0.779-3.6705-3.6961-2.7609c0-0.4133,0.3002-0.5571,0.6523-0.6523
		c4.6568-0.665,12.1677-1.6345,17.3492-2.4568c0-0.1268,8.4302-4.7693,10.0009-5.3742c3.183-1.2257,11.4772-0.3727,13.1488-0.2347
		c2.4721,0.2043,13.9439,3.2269,15.1138,3.6524c2.8891,1.0508,7.7905,1.5044,9.0181,1.2305
		C83.4027,9.4683,88.826,2.501,90.4261,0.91c0.5196-0.5168,1.1696-0.6812,3.3412-0.2495c0,0.0853-0.0074,0.4337-0.1097,0.5332
		c0-0.002-1.8921-0.3147-2.1263-0.3147c-0.4983,0.0397-1.135,0.4697-1.3011,1.4874c0.9754,0.1329,2.2201,0.3878,3.4135,0.587
		c-0.0218,0.2174-0.0436,0.4349-0.0652,0.6522c-1.351-0.267-2.6558-0.4852-3.8483-0.6522c-0.1352-0.0283-0.8651,1.1322-0.61,1.1841
		c0,0.0377,3.7755,0.7379,4.3495,0.8379c0,0.1738,0,0.3911-0.087,0.6522c-1.2294-0.2168-4.788-0.9825-4.788-0.9348
		c-0.3359-0.0502-0.9666,0.7818-0.7878,0.9348c1.3955,0.2668,4.2443,0.7197,5.5105,0.9349c0,0.239-0.0663,0.5117-0.0663,0.7725
		c-1.8678-0.3002-3.7758-0.623-6.0721-0.9734c-0.1995,0.002-0.7906,0.944-0.5576,1.0052c2.1711,0.3172,4.9252,0.8187,6.5208,1.1356
		c-0.0218,0.1741-0.0601,0.5148-0.0601,0.6888c-0.5913-0.0834-5.4933-0.86-6.7739-1.0381
		c-0.2741-0.0833-0.7642,0.9683-0.4005,1.0182c0,0.0217,6.2178,0.9879,6.7008,1.0715c-2.7343,0.0487-5.3776-0.0811-7.9053-0.1309
		c-0.1358-0.0173-0.4561,0.4869-0.2815,0.7169c0.4303,0.0167,0.6299,0.0317,1.004,0.0819
		c-0.1295,0.9059,0.8229,1.2135,1.2608,1.2393c1.9607,0.1157,4.0748,0,6.1308,0c-0.0652,0.2826-0.1086,0.5652-0.1522,0.8693
		c-3.2641-0.2667-6.8822-0.704-9.7268-0.9042c-0.33-0.0349-0.2775,0.5101-0.1562,0.5516c2.7856,0.3002,6.5523,0.686,9.8011,1.0197
		c-0.0652,0.5652-0.0918,0.9852-0.1355,1.5723c-3.2051-0.3319-7.2729-0.8201-10.4675-1.1522
		c-0.2656-0.156-0.6582,0.2681-0.3591,0.4348c3.6366,0.4317,7.3698,0.8879,10.8944,1.22c-0.0663,1.5373-0.3444,3.0192-0.3986,4.65
		C89.2614,20.8098,86.15,21.3183,83.5776,21.6505L83.5776,21.6505z M2.4852,20.0416c0.6727-0.4039,1.573-0.9266,2.4678-1.404
		c0-0.0097,2.7357,0.5396,3.4673,0.6865c-0.0978,0.1199,0.0414,0.4348,0.0082,0.4348c0,0.0219-1.8184,1.1974-1.8224,1.1974
		C5.7734,20.859,3.1459,20.2459,2.4852,20.0416L2.4852,20.0416z M113.7498,21.1932c-0.3319,0.087-0.9091-1.4031-0.9091-1.804
		c2.4032-0.39,5.0159-0.8272,7.7179-1.2175c-0.023,0.4465,0.4099,1.3394,0.7305,1.561
		C119.0762,20.2207,116.0595,20.7641,113.7498,21.1932L113.7498,21.1932z M4.1228,18.4179
		c-0.4036,0.3243-1.7892,1.1107-2.3768,1.4932C-0.4988,19.5072,2.4308,17.9774,4.1228,18.4179L4.1228,18.4179z M121.8414,19.6066
		c-0.4949-0.1694-0.7693-1.0751-0.7693-1.6086c0.1956-0.0219,0.5083-0.0801,0.7257-0.0801
		c-0.0261,0.3413,0.379,1.3697,0.6523,1.5803C122.2325,19.52,122.0369,19.5634,121.8414,19.6066L121.8414,19.6066z
		 M123.1022,19.3893c-0.3141,0.0352-0.7277-1.4398-0.6066-1.5999c0.1959,0,0.3351-0.0584,0.5525-0.0584
		c0.1023,0.563,0.3458,1.3274,0.5978,1.5931C123.45,19.3459,123.2763,19.3677,123.1022,19.3893L123.1022,19.3893z M124.2199,19.1914
		c-0.233-0.1341-0.6066-0.8231-0.6066-1.5647c0.1307,0,0.3586-0.0975,0.5108-0.0975c0.0218,0.3696,0.3605,1.3921,0.5975,1.6233
		C124.574,19.1722,124.3288,19.1914,124.2199,19.1914L124.2199,19.1914z M125.2112,18.9547
		c-0.3841-0.3146-0.5216-1.169-0.5437-1.4802c0.1593,0,0.3829-0.0524,0.7132-0.0912c0.0255,0.5354,0.197,1.091,0.5607,1.506
		C125.7021,18.8893,125.5097,18.9157,125.2112,18.9547L125.2112,18.9547z M112.7319,18.824c0-0.7574-0.068-1.2194,0.3807-1.4788
		c2.3987-0.3512,5.0825-0.8657,8.0765-1.2169c-0.4181,0.4068-0.6052,0.9516-0.665,1.522
		C117.7753,18.0794,115.2355,18.4924,112.7319,18.824L112.7319,18.824z M126.7371,18.7501c-0.3214-0.1357-0.498-1.0302-0.498-1.4216
		c1.2807-0.1967,2.4092-0.2826,3.7159-0.5436c0-0.4071,3.2902-1.6348,4.1479-1.6348c2.3528,0,4.1091,0.4348,4.2613,0.4782
		c0.313,0.0326,1.8054,0.3084,0.5652,1.1349C138.9294,16.8803,128.1986,18.6837,126.7371,18.7501L126.7371,18.7501z M64.628,17.7676
		c-0.2347-0.2069-1.3351-7.2751-1.1041-7.4962c0.3096-0.2738,7.8318,2.0616,9.453,2.609c0.5142,0.1891-3.3627,4.9351-4.1525,4.9351
		C68.3159,17.9388,64.9647,17.885,64.628,17.7676L64.628,17.7676z M53.9235,16.8676c-0.3129-0.7617,1.9621-7.5067,2.4305-7.818
		c0.5544-0.2347,3.7797,0.2523,4.5048,0.6435c0.3912,0.4875,1.3031,6.8298,0.7826,7.6093
		C61.1232,17.7719,54.0945,17.1805,53.9235,16.8676L53.9235,16.8676z M121.1177,17.5198c0-0.8263,0.3271-1.2659,0.5808-1.531
		c0.087,0,0.4688-0.078,0.5777-0.078c-0.2588,0.5177-0.4742,1.0968-0.3892,1.5307
		C121.6696,17.4415,121.3351,17.5198,121.1177,17.5198L121.1177,17.5198z M122.4176,17.3546
		c-0.2404-0.2841,0.1812-1.2631,0.3178-1.4962c0.1522,0,0.4603-0.1171,0.6344-0.1171c-0.2809,0.4793-0.4329,1.0602-0.3762,1.5156
		C122.8196,17.257,122.5698,17.3546,122.4176,17.3546L122.4176,17.3546z M123.5047,17.1723
		c-0.1278-0.5786,0.083-0.9742,0.3762-1.4788c0.1088,0,0.415-0.0976,0.5454-0.0976c-0.1882,0.5267-0.3739,0.9304-0.3112,1.472
		C124.024,17.0679,123.7006,17.1723,123.5047,17.1723L123.5047,17.1723z M124.6046,16.994
		c-0.0737-0.5219,0.0831-1.0894,0.2871-1.4633c0.2296,0,0.3881-0.0547,0.6455-0.0547c-0.2191,0.42-0.3325,1.0347-0.2302,1.4439
		C125.104,16.92,124.9294,16.9354,124.6046,16.994L124.6046,16.994z M126.1701,16.7763c-0.013-0.656,0.0153-1.093,0.4107-1.5177
		c2.4894-0.3129,4.2338-0.4739,6.2393-0.4348c-1.0154,0.2985-3.069,0.9995-3.5481,1.5046
		C129.2721,16.5465,126.4352,16.7599,126.1701,16.7763L126.1701,16.7763z M34.9005,13.3889
		c1.9874-1.4893,4.9927-3.1158,6.5166-3.9337c3.8843-2.0848,10.0692-1.0836,11.202-0.784c0,0.5496-2.1903,6.9605-2.609,7.1745
		C41.393,13.5429,36.0046,13.0853,34.9005,13.3889L34.9005,13.3889z M93.5349,12.1637c0-0.0605-0.0113-0.3248-0.0524-0.4487
		c-1.9304,0-4.5842,0.0363-6.6796,0.0168c-0.2429-0.0023-0.8923-0.2361-0.853-0.9041c0.5256,0,17.4365-0.7625,20.8902-1.0043
		c2.3746,0,4.4255,0.2699,6.5554,0.2699c0.487,0.022,0.8801,0.7673-0.3254,0.8001C106.6071,11.4591,99.9647,11.8316,93.5349,12.1637
		L93.5349,12.1637z"/>
</g>
</svg>
