<?xml version="1.0" encoding="utf-8"?>
<!-- Generator: Adobe Illustrator 21.1.0, SVG Export Plug-In . SVG Version: 6.00 Build 0)  -->
<svg version="1.1" id="Moone" xmlns="http://www.w3.org/2000/svg" xmlns:xlink="http://www.w3.org/1999/xlink" x="0px" y="0px"
	 viewBox="0 0 104.6494 35.5288" enable-background="new 0 0 104.6494 35.5288" xml:space="preserve">
<g>
	<path fill-rule="evenodd" clip-rule="evenodd" d="M7.4466,35.5288c-0.1514-0.0549-0.3025-0.11-0.4536-0.1786
		c-0.6594-0.096-1.319-0.206-1.9783-0.316c-0.7693-0.1923-1.1815-0.2336-1.8272-0.4122c-0.6321-0.055-1.2779-0.1236-1.9236-0.1922
		c-0.371-0.0688-0.7557-0.1375-1.1404-0.2199C0.0825,34.1824,0.0411,34.1414,0,34.0999c0-0.1921,0-0.1921,0.0686-0.3021
		c0.5085-0.055,0.6458-0.0961,1.1543-0.1375c1.099-0.1922,2.418-0.3707,3.6544-0.6044c0.261-0.0275,0.5221-0.0549,0.7832-0.0825
		c0.5493-0.1925,0.9204-0.2747,1.1404-0.371c2.0194-0.4532,2.2944-0.5494,3.2973-0.728c1.5111-0.371,1.5111-0.371,1.7036-0.4672
		c0.7693-0.0825,0.7693-0.0825,1.6897-0.1375c0.9207-0.1786,0.9207-0.1786,1.3328-0.22c0.1786-0.0961,0.1786-0.0961,1.2776-0.4669
		c1.3329-0.3575,1.3329-0.3575,2.6104-0.6322c0.7282-0.096,1.0992-0.1924,1.745-0.2746c0.7282-0.1375,1.3736-0.33,3.1048-0.6871
		c0.8382-0.2061,1.6764-0.4258,2.5282-0.6458c0.1786-0.0961,1.5523-0.4532,2.1019-0.6457c0.3711-0.0825,0.4536-0.1372,0.8657-0.2197
		c0.0961-0.055,0.7829-0.0961,1.1951-0.1924c0.2061-0.0275,0.426-0.055,0.6457-0.0825c0.2336-0.0547,0.481-0.1236,0.7282-0.1922
		c1.1404-0.1786,1.1404-0.1786,2.1983-0.4121c1.374-0.1786,1.374-0.1786,2.4318-0.3572c0.8654-0.1786,1.7311-0.3572,2.6104-0.5496
		c0.0825,0,0.1786,0,0.2747,0c1.0029-0.2748,1.5936-0.3711,2.2807-0.5496c0.1647-0.0551,0.3297-0.1237,0.5083-0.1922
		c0.5083-0.0414,1.0304-0.0964,1.5525-0.1512c-0.0139-0.0549-0.0275-0.11-0.0411-0.1649c-0.3161-0.0825-0.6321-0.1786-0.9618-0.2747
		c-0.1511-0.069-0.3025-0.1514-0.4536-0.2336c-0.1922-0.0275-0.3983-0.055-0.6044-0.0825c-1.1817-0.371-1.3739-0.4671-1.7311-0.5496
		c-0.2336-0.0961-0.8793-0.2747-0.9618-0.3297c-0.6457-0.1786-0.8243-0.2746-1.154-0.3572
		c-0.1786-0.0963-0.8243-0.2749-0.9068-0.3299c-0.4671-0.0822-0.4671-0.0822-1.374-0.3572
		c-0.0961-0.0549-0.5082-0.1371-1.154-0.3296c-1.5525-0.5496-1.5525-0.5496-2.5143-0.8243
		c-0.5496-0.0826-0.5496-0.0826-1.099-0.2197c-0.0414-0.055-0.3161-0.1375-0.5085-0.2336c-0.2747-0.0414-0.7693-0.2335-2.0608-0.591
		c-0.2197-0.0961-0.5497-0.1372-0.7693-0.2333c-0.2336-0.0414-0.2336-0.0414-0.7832-0.2749
		c-0.3158-0.1786-0.9615-0.4532-1.0029-0.5082c-0.055-0.0275-0.1236-0.055-0.1922-0.0826
		c-0.9068-0.8242-0.9068-0.8242-1.0993-1.0579c-0.2747-0.1786-0.2747-0.1786-0.4122-0.3435c-0.055,0-0.11-0.0137-0.1786-0.0275
		c-0.3161,0.0964-0.3161,0.0964-0.8243,0.1924c-0.0961,0.0411-0.2061,0.0825-0.3161,0.1375
		c-0.4671,0.0823-0.4671,0.0823-0.5082,0.1373c-0.165,0.055-0.3297,0.11-0.5083,0.1786c-1.2368,0.2749-1.4564,0.371-1.8275,0.4536
		c-0.0961,0.055-2.1983,0.5082-2.569,0.5496c-0.1375,0.0547-0.1375,0.0547-1.0993,0.2333
		c-0.8243,0.0964-0.8243,0.0964-1.7311,0.1375c-1.2915-0.1786-1.2915-0.1786-1.3737-0.2336c-0.165-0.0549-0.33-0.11-0.5085-0.1786
		c-0.1097-0.0686-0.2197-0.1375-0.3433-0.206c0-0.2197,0-0.2197,0.0822-0.4122c0.0825-0.055,0.165-0.11,0.2611-0.165
		c0.6457-0.1786,0.6457-0.1786,1.2365-0.4122c0.1375-0.0823,0.1375-0.0823,1.0582-0.4532c0.5083-0.165,1.0304-0.3297,1.5523-0.5082
		c2.6518-0.7282,4.1629-1.1818,5.5369-1.5526c0.4122-0.1786,1.5662-0.5496,1.9508-0.7007c0.0825-0.3986,0.1786-0.7968,0.275-1.1954
		c0.0825-0.8654,0.2197-1.6075,0.2747-2.4319c0.055-0.2882,0.11-0.5768,0.1786-0.8654c0.1786-1.5114,0.3161-2.1572,0.4122-2.844
		c0.0275-0.4258,0.055-0.8518,0.0964-1.2776c0.2747-1.6075,0.2747-1.6075,0.4122-2.1982c0.1372-1.4154,0.2747-2.4733,0.3572-2.8854
		c0.055-0.1372,0.055-0.1372,0.1372-0.5494c0.0275-0.0414,0.055-0.0825,0.0964-0.1375c0.2061-0.0686,0.2061-0.0686,0.2611-0.1235
		c0.4944,0,1.3737,0.0961,2.3766,0.1235c0.0139-0.0411,0.0275-0.0825,0.0414-0.1375c0.055,0.0414,0.055,0.0414,0.2336,0.0688
		C29.1127,0.0411,29.1127,0.0411,29.154,0c0.4122,0,0.4122,0,0.7282,0.0686c0.1097,0.0688,0.2197,0.1375,0.3297,0.2061
		c0.0275,0.0963,0.0686,0.1925,0.11,0.3025c0.1372,1.2776,0.1786,1.3737,0.2197,1.9646c0.055,0.2336,0.055,0.2336,0.0961,0.6458
		c0.1375,0.4121,0.1375,0.4121,0.2336,1.0029c0.0139,0.3021,0.0275,0.6043,0.0414,0.9204c0.1786,1.3739,0.1786,1.3739,0.2336,1.4564
		c0.2197,1.1951,0.2747,1.2915,0.3571,1.8822c0.055,0.0961,0.2336,1.0029,0.4122,1.6076c0.0686,0.0272,0.1375,0.0685,0.2197,0.1097
		c0.0825,0.1375,0.0825,0.1375,0.2749,0.3436c0.0411,0.0961,0.0961,0.2061,0.1511,0.316c0,0.0686,0,0.1511,0,0.2336
		c-0.0275,0.0275-0.055,0.055-0.0961,0.0961c0.055,0.6318,0.055,0.6318,0.1236,0.7968c0.2747,0.0411,0.2747,0.0411,1.1404,0.0411
		c0.5082-0.1786,0.7829-0.3159,1.6486-0.5908c0.0411-0.0411,0.0825-0.0823,0.1375-0.1372c0.1647,0.0135,0.3297,0.0275,0.5083,0.0411
		c0.8243-0.1786,0.8243-0.1786,1.47-0.2747c0.5907-0.1786,1.099-0.275,2.2807-0.5908c0.0136-0.0139,0.0411-0.0413,0.0686-0.0688
		c0-0.1371-0.1786-0.5493-0.2747-0.8655c-0.0689-0.1235-0.1514-0.2474-0.2336-0.371c0-0.0961,0-0.2061,0-0.316
		c0.0411-0.0275,0.0822-0.0547,0.1236-0.0823c0.055,0,0.11,0,0.1786,0c0.0411,0.0275,0.0825,0.0547,0.1375,0.0961
		c0.0411,0.0686,0.0822,0.1511,0.1372,0.2336c0.1511,0.11,0.3025,0.2336,0.4671,0.3572c0.0275,0.041,0.055,0.0824,0.0825,0.1375
		c0.4672,0.3708,0.4672,0.3708,0.5496,0.4672c0.0822,0,0.1786,0,0.2747,0c0.1375-0.0414,0.2747-0.0825,0.4121-0.1375
		c0.3161-0.0414,0.6321-0.0825,0.9618-0.1376c0.7144-0.0135,1.4426-0.041,2.1708-0.0686c0.0411-0.0824,0.0825-0.1649,0.1236-0.261
		c0.3986-0.0136,0.7968-0.0276,1.1954-0.0411c0.1372-0.0689,0.2747-0.1514,0.4121-0.2336c0.055,0,0.1097,0,0.1786,0
		c0.055,0.0547,0.11,0.1235,0.1786,0.1921c0.4671,0,0.4671,0,0.9204,0.0414c0.0964,0.0546,0.2061,0.1097,0.3161,0.1785
		c0.055,0.0686,0.1236,0.1511,0.1925,0.2335c0.1511,0.3433,0.1511,0.3433,0.4669,0.8105c0.055,0.0414,0.1375,0.22,0.22,0.2886
		c1.3739-0.1375,1.3739-0.1375,2.3768-0.2747c0.3161-0.0549,0.6319-0.1099,0.9618-0.1786c0.0961,0,0.2061,0,0.3158,0
		c0.275-0.0964,0.275-0.0964,1.2368-0.2749c1.5112-0.1923,2.2944-0.2336,2.7476-0.3297c0.0139-0.0135,0.0414-0.0275,0.0686-0.0549
		c0-0.1375,0-0.1375-0.0961-0.3297c-0.4533-0.4946-0.4947-0.5907-1.2365-1.3739c-0.0825-0.1375-0.6319-0.7283-0.7693-0.9618
		c-0.1925-0.1786-0.2336-0.2747-0.3711-0.3572c-0.0411-0.0961-0.0411-0.0961-0.0411-0.2747
		c0.0136-0.0275,0.0411-0.0551,0.0686-0.0825c0.0825,0,0.1786,0,0.275,0c0.0411,0.0549,0.0411,0.0549,0.2333,0.1375
		c0.7696,0.7418,0.7696,0.7418,1.1404,1.0579c0.5085,0.3433,0.5085,0.3433,0.5907,0.4532c0.371,0.3297,0.5085,0.4122,0.9207,0.8244
		c0.1786,0.0964,0.4532,0.371,0.5493,0.412c0.165,0.1786,0.33,0.3572,0.5085,0.5497c0.4122,0,1.3739-0.1375,1.9647-0.1375
		c0.5083-0.0411,1.0304-0.0823,1.5525-0.1372c1.4287,0.0961,1.4287,0.0961,2.198,0.1921c0.055,0.0414,0.6457,0.22,1.0993,0.4122
		c0.3847,0.11,0.7693,0.2336,1.154,0.3572c0.3572,0.1924,0.5907,0.275,0.6871,0.371c1.3736,0.7282,1.415,0.7831,1.7311,0.9617
		c0.0822,0.0826,0.1786,0.1786,0.2747,0.2748c0.1922,0.0961,0.4121,0.2748,0.5082,0.316c0.0961,0.0961,0.4536,0.2747,1.3329,0.9618
		c0.0411,0.055,0.0822,0.1235,0.1372,0.1921c0.1375,0.0414,0.7282,0.4122,0.9068,0.4947c0.0686,0.0549,0.1511,0.1236,0.2336,0.1924
		c0.1786,0.0411,0.1786,0.0411,0.5907,0.0411c0.5085-0.1786,1.2915-0.5496,2.1983-0.9203c0.3297-0.0825,0.3297-0.0825,2.1572-0.8243
		c0.1647-0.0825,0.3297-0.1786,0.5083-0.275c0.9068-0.3571,1.2776-0.4533,1.9233-0.7282c0.1375-0.0961,1.9647-0.8243,2.1022-0.9204
		c0.9204-0.3572,2.0197-0.7282,2.9812-1.099c0.3575-0.1785,0.3575-0.1785,1.3739-0.5496c0.1511-0.0961,0.3025-0.2061,0.4536-0.316
		c0.6457-0.2748,1.3051-0.5497,1.9647-0.8244c0.2747-0.1786,0.2747-0.1786,0.6868-0.371c0.2747-0.0822,0.2747-0.0822,1.099-0.4532
		c2.1572-1.099,2.1572-1.099,2.2533-1.1954c0.2749-0.0822,0.5907-0.2747,1.0029-0.4121c0.5086-0.2747,0.6871-0.3158,1.69-0.8655
		c0.1922-0.0549,0.3983-0.11,0.6044-0.1786c0.1789-0.11,0.3574-0.22,0.5496-0.33c0.1375-0.0411,0.275-0.0822,0.4122-0.1372
		c1.0443-0.1374,2.3358-0.22,3.1601-0.316c0.9068,0,0.9068,0,2.1433,0.096c0.3572,0.0551,0.7282,0.11,1.099,0.1786
		c0.165,0.0551,0.3299,0.11,0.5085,0.1786c0.4121,0.2336,0.4121,0.2336,0.5493,0.275c0.0825,0.0686,0.165,0.1375,0.2475,0.2197
		c0.0961,0.275,0.0961,0.275,0.0961,0.4947c-0.0961,0.1099-0.1925,0.22-0.3022,0.3297c-1.2779,0.7282-1.5939,0.8793-1.6486,0.9343
		c-0.7696,0.275-1.0993,0.4536-1.2368,0.4947c-0.0411,0.055-1.099,0.5496-1.1401,0.6046c-0.5907,0.3157-0.7282,0.3572-0.7832,0.4122
		c-0.5496,0.2196-0.5907,0.2747-1.3739,0.6318c-0.2336,0.1511-0.4807,0.3024-0.7282,0.4671
		c-0.2197,0.0825-0.4533,0.1785-0.6868,0.2747c-0.4532,0.316-0.4532,0.316-1.099,0.6871c-0.5085,0.2197-0.6871,0.3571-1.0993,0.5496
		c-0.5907,0.3572-0.5907,0.3572-1.0029,0.5494c-0.165,0.1099-0.3297,0.2335-0.5083,0.3571
		c-1.0032,0.5496-1.2365,0.6458-1.3739,0.7557c-0.0961,0.1236-0.0961,0.1236-0.165,0.2886c0,0.0825,0,0.1786-0.0136,0.2746
		c0.3708,0.0276,0.7557,0.0551,1.1404,0.0826c0.0275,0.055,0.0547,0.11,0.0961,0.1786c-0.055,0.0688-0.1236,0.1375-0.1925,0.206
		c-0.6868,0.0551-0.8243,0.0964-1.044,0.0964c-0.0964-0.0414-0.4672-0.0964-0.6046-0.1786c-0.1372-0.2064-0.1372-0.2064-0.11-0.2474
		c0-0.1923,0-0.1923-0.0272-0.2336c-0.0964,0-0.2064-0.0136-0.3161-0.0275c-0.1375,0.0961-0.371,0.1786-0.8243,0.5085
		c-0.9207,0.3572-0.9207,0.3572-1.3328,0.5493c-0.2747,0.1786-0.6318,0.3572-0.6868,0.4122
		c-0.4536,0.1785-0.7693,0.3571-1.1404,0.4946c-0.0411,0.055-0.2336,0.1375-0.4122,0.2747c-0.5496,0.275-0.5907,0.33-1.099,0.5496
		c-0.0414,0.055-0.3711,0.2335-0.5085,0.275c-0.0411,0.0547-0.0411,0.0547-0.4533,0.2333
		c-0.1236,0.0964-0.2611,0.1924-0.3985,0.3024c0,0.1786,0,0.1786,0.055,0.2336c0.0414,0.1372,0.0414,0.1372,0.0825,0.1786
		c0,0.2746-0.0411,0.316-0.0139,0.5496c0.3711,0.151,0.4124,0.2061,2.1572,0.9754c0.0411,0.0549,0.0411,0.0549,0.2747,0.1372
		c0.0825,0.11,0.165,0.2336,0.2475,0.3574c0,0.0822,0,0.1786,0,0.2747c-0.055,0.1924-0.1239,0.3846-0.1925,0.5906
		c-0.1375,0.1375-0.2197,0.3161-0.5907,0.687c-0.6182,0.426-1.2504,0.8518-1.8822,1.2778c-0.1786,0.2336-0.3436,0.371-1.0029,1.0579
		c-0.0414,0.0961-0.0414,0.0961-0.8657,0.8243c-0.6043,0.4535-0.6868,0.5496-1.264,0.9204
		c-0.055,0.0139-0.1097,0.0275-0.1786,0.0549c-0.4122,0.33-0.4122,0.33-0.7282,0.5086c-0.2061,0.0822-0.4258,0.1786-0.6457,0.2747
		c-0.1372,0.0825-0.2747,0.1786-0.4122,0.2747c-1.3326,0.3711-1.3326,0.3711-2.1569,0.5497
		c-0.9618,0.096-2.3769,0.1375-2.4044,0.1649c-0.0411,0.2747-0.0411,0.2747-0.1375,0.5082
		c-0.0961,0.0825-0.2747,0.4533-0.4533,0.6869c-0.1375,0.1099-0.2885,0.2336-0.4396,0.3574c-0.055,0.0686-0.11,0.1511-0.165,0.2336
		c-0.0825,0.2747-0.0825,0.2747-0.1511,0.3433c-0.3161,0.1375-0.3161,0.1375-0.6868,0.2199
		c-0.165-0.0138-0.3297-0.0274-0.5085-0.0413c-0.3572-0.1786-0.3572-0.1786-0.7279-0.3158
		c-0.0689-0.0549-0.1514-0.1238-0.2336-0.1924c-0.165-0.2886-0.3024-0.426-0.481-0.7007c-0.2061-0.165-0.3433-0.2061-0.3847-0.2612
		c-0.055-0.0274-0.11-0.0549-0.1786-0.0825c-0.4808,0-0.9754,0-1.47,0c-0.1786-0.0547-0.1786-0.0547-0.4122-0.0547
		c-0.2747,0.0411-0.5496,0.0822-0.8243,0.1371c-0.3436,0.014-0.7007,0.0275-1.0579,0.0551
		c-0.1375,0.0275-0.2747,0.055-0.4122,0.0825c-1.5525,0.0961-2.8304,0.0961-3.7094,0.1375
		c-0.3161,0.0547-0.9618,0.0547-1.4565,0.0961c-0.6596,0-1.319,0-1.9783,0c-1.374-0.2336-1.374-0.2336-1.5939-0.2336
		c-0.2747,0.0551-1.2915,0.1375-3.9019,0.5083c-0.3572,0.0961-1.044,0.1786-1.5111,0.316
		c-1.1404,0.1924-2.0058,0.2747-3.1601,0.4672c-3.2972,0.7282-3.6133,0.7693-3.9841,0.8654c-0.371,0.055-0.7557,0.11-1.1404,0.1786
		c-0.2611,0.0688-0.5221,0.1514-0.7832,0.2336c-0.3572,0.0413-0.3572,0.0413-1.8686,0.371
		c-1.154,0.0411-1.2365,0.0826-1.6073,0.0826c-0.6046,0.11-1.209,0.2197-1.8272,0.3297c-0.5497,0.0411-1.7039,0.22-2.6654,0.4121
		c-1.1815,0.1786-1.1815,0.1786-2.4182,0.4536c-0.9754,0.1511-1.9508,0.3021-2.9401,0.4532c-0.1922,0-0.3847,0-0.5907,0
		c-1.2776,0.371-1.5525,0.4122-1.6486,0.4672c-1.2779,0.1785-1.2779,0.1785-4.8087,0.8243
		c-0.3572,0.0825-0.7282,0.1786-1.099,0.2746c-0.5771,0.0689-1.1543,0.1376-1.745,0.22c-0.6868,0.1922-0.6868,0.1922-1.5936,0.3708
		c-0.165,0.0139-0.3297,0.0275-0.5083,0.0414c-0.8243,0.1922-0.8243,0.1922-1.2365,0.3297c-1.5114,0.2199-1.5114,0.2199-1.69,0.2746
		c-0.5497,0.0551-1.099,0.11-1.6487,0.1789c-0.7418,0.1785-1.7036,0.3158-2.7065,0.5082c-0.5907,0.1785-0.5907,0.1785-1.1404,0.2747
		C8.0648,35.4739,7.7624,35.5014,7.4466,35.5288L7.4466,35.5288z M7.4466,35.0756c-0.1786-0.0414-0.275-0.0964-1.0993-0.275
		c-0.0961,0-0.2061,0-0.3161,0c-0.3297-0.0961-0.8793-0.1786-1.7036-0.3708c-0.6457-0.11-1.3051-0.2199-1.9647-0.33
		c0-0.0411,0-0.0822,0-0.1371c0.3161-0.0825,0.3161-0.0825,1.8825-0.3025c0.4258,0.0139,0.8518,0.0275,1.2776,0.0414
		c0.3986,0.1235,0.7968,0.2472,1.1954,0.3708c0.2472,0.1099,0.5082,0.2336,0.7693,0.3574c0.2061,0.1372,0.4121,0.2883,0.6182,0.4396
		c0,0.0411,0,0.0822,0,0.1372c-0.0136,0.0139-0.0411,0.0414-0.0686,0.0689C7.8449,35.0756,7.6526,35.0756,7.4466,35.0756
		L7.4466,35.0756z M8.7242,34.9382c-0.6318-0.5497-0.7282-0.5908-0.8243-0.6871c-0.3572-0.1786-0.6318-0.3708-0.8654-0.4532
		c-0.0414-0.055-0.6457-0.2336-0.7832-0.3022c0-0.055,0-0.11,0-0.1786c0.4121-0.1649,0.4121-0.1649,1.3739-0.4396
		c0.1922,0,0.3983,0,0.6044,0c0.1786,0.0961,0.8657,0.2747,1.2778,0.4533c0.2886,0.206,0.5769,0.426,0.8654,0.6458
		c0.1511,0.1511,0.3025,0.316,0.4671,0.481c-0.0275,0.0272-0.055,0.0686-0.0961,0.1097c-1.1404,0.1924-1.1404,0.1924-1.47,0.2749
		c-0.0825,0.0548-0.0825,0.0548-0.275,0.0962C8.9167,34.9382,8.8203,34.9382,8.7242,34.9382L8.7242,34.9382z M10.8813,33.8389
		c-0.9207-0.6868-0.9207-0.6868-1.5114-1.0579c-0.0686-0.0136-0.1511-0.0275-0.2336-0.0547c0.0139-0.055,0.0275-0.11,0.055-0.165
		c0.2747-0.096,1.8272-0.412,1.9236-0.467c0.4122-0.0826,0.6319-0.1786,1.099-0.2747c0.3297-0.0275,0.6594-0.055,1.0029-0.0825
		c0.5496-0.0826,1.0993-0.1786,1.6486-0.275c0.3572-0.1236,0.7282-0.2472,1.0993-0.3708c0.8243-0.1786,0.8243-0.1786,1.099-0.2747
		c0.0414-0.0275,0.0825-0.0549,0.1375-0.0963c0.3161-0.0825,0.6319-0.1786,0.9618-0.2747c2.3355-0.3571,2.4315-0.4121,3.0637-0.4947
		c0.4397-0.1235,0.8793-0.2471,1.3326-0.371c0.9618-0.1786,2.1572-0.4532,2.2397-0.5083c1.4287-0.3572,1.4287-0.3572,2.2944-0.6318
		c0.0961-0.0551,0.0961-0.0551,1.8272-0.5085c0.371-0.0411,0.5496-0.0961,0.9618-0.1372c0.4672-0.0964,1.099-0.1789,1.1951-0.2336
		c0.8518-0.1786,1.7036-0.3575,2.5693-0.5497c2.3355-0.3571,2.3355-0.3571,3.8469-0.6321c0.3161-0.0962,2.3768-0.4672,2.5554-0.5494
		c1.6486-0.3711,1.6486-0.3711,1.8822-0.4672c0.9618-0.1375,0.9618-0.1375,1.7447-0.1786c0.5771-0.1239,1.1543-0.2474,1.7311-0.371
		c0.5496-0.1786,1.3739-0.3572,2.0197-0.5497c0.3986-0.0411,0.7968-0.0822,1.1954-0.1371c0.3847,0.0275,0.7832,0.055,1.1815,0.0961
		c0.7418,0.0961,1.4976,0.2061,2.2533,0.3161c0.2747,0.0822,0.5496,0.1786,0.8243,0.2747c0.3572,0.1925,0.3572,0.1925,0.5907,0.2747
		c0.055,0,0.11,0,0.1786,0c0.6457-0.2197,0.6871-0.2747,1.0993-0.4532c0.4396-0.1237,0.8793-0.2472,1.3326-0.3711
		c0.3572-0.0549,0.7282-0.1096,1.099-0.1785c0.11-0.0825,0.22-0.1647,0.3436-0.2472c0-0.165-0.0136-0.3297-0.0275-0.5082
		c0.1236,0,0.2475,0.0136,0.371,0.0272c0.1786,0.0825,0.1786,0.0825,0.2336,0.1375c1.374,0.3572,1.9647,0.4536,2.2394,0.5496
		c0.3711,0.0825,0.4122,0.1375,0.6457,0.2197c0.22,0.1925,0.4122,0.275,0.5907,0.4122c0.1236,0.1238,0.2475,0.261,0.3711,0.3986
		c0.055,0.1785,0.055,0.1785,0.055,0.6868c-0.0275,0.0688-0.0689,0.1375-0.11,0.206c-0.0825,0-0.1786,0-0.2747,0
		c-0.1925-0.0822-0.3849-0.1785-0.591-0.2746c-0.1647-0.0275-0.3297-0.0551-0.5082-0.0961
		c-0.2472-0.0825-0.5082-0.1786-0.7693-0.275c-0.7418-0.0411-0.7418-0.0411-2.8851-0.0411
		c-0.371,0.0825-0.6457,0.1785-1.2365,0.2747c-1.1543,0.0825-1.1543,0.0825-1.3328,0.1375
		c-0.5907,0.0825-2.2394,0.4532-2.6104,0.4946c-2.0608,0.5496-2.0608,0.5496-2.2944,0.6457
		c-0.2336,0.0275-0.4808,0.0551-0.7282,0.0961c-0.5907,0.1786-0.8654,0.2199-2.6515,0.6868c-0.5083,0.0825-0.8793,0.1789-1.374,0.22
		c-0.3433,0.055-0.7007,0.1235-1.0579,0.1924c-0.3297,0.0822-0.6593,0.1786-1.0029,0.2747
		c-0.7832,0.0824-0.7832,0.0824-1.2915,0.1786c-0.4258,0.1235-0.8518,0.2472-1.2776,0.371
		c-1.0032,0.1786-1.0032,0.1786-2.0197,0.3159c-0.3161,0.0688-0.6321,0.1514-0.9618,0.2336
		c-0.2747,0.0275-0.5496,0.055-0.8243,0.0825c-0.2472-0.3022-0.5083-0.6043-0.7693-0.9069
		c-0.0825-0.0549-0.1786-0.1235-0.275-0.1922c-0.1786-0.0549-0.3572-0.11-0.5494-0.1785c-1.6075,0-1.6075,0-2.2533,0.0411
		c-0.1375,0.0551-1.69,0.2336-2.6515,0.4122c-0.2336,0.0275-0.4811,0.0549-0.7282,0.096c-0.3985,0.0964-0.7968,0.2062-1.1954,0.3161
		c-0.1511,0.0551-0.3022,0.1236-0.4533,0.1925c-0.0825,0.0136-0.1786,0.0275-0.275,0.0411
		c-0.0411,0.0411-0.0825,0.0825-0.1236,0.1236c0,0.0414,0,0.0825,0,0.1375c0.0275,0.0411,0.055,0.0825,0.0961,0.1375
		c0.5771,0.1511,0.5771,0.1511,0.9893,0.3297c0.0411,0.055,0.0411,0.055,0.2747,0.1375c0.0825,0.0822,0.1786,0.1786,0.275,0.2747
		c0.0411,0.0961,0.0961,0.1922,0.1511,0.3021c0,0.0414,0,0.0826,0,0.1375c-0.0275,0.0275-0.0686,0.0551-0.11,0.0961
		c-0.1511,0.0414-0.3022,0.096-0.4533,0.1511c-0.4121-0.0411-0.4121-0.0411-0.7421,0c-0.1372,0.055-1.0029,0.1375-1.4151,0.2335
		c-0.0825,0-0.1786,0-0.2747,0c-0.5083,0.1376-0.9618,0.1786-1.6075,0.3712c-1.8272,0.3572-2.1019,0.4532-4.8087,0.9617
		c-0.8654,0.0822-0.8654,0.0822-1.4562,0.1786c-0.0689,0.0275-0.1511,0.0551-0.2336,0.0961
		c-0.6871,0.0825-0.8243,0.1375-1.8822,0.3161c-0.6321,0.0411-0.9068,0.0961-1.415,0.1371
		c-0.3025,0.0414-0.6046,0.0826-0.9207,0.1376c-0.2061,0-0.4122,0-0.6318,0c-0.33,0.055-0.6732,0.11-1.0168,0.1786
		c-0.1511,0-0.3022,0-0.4533,0C11.0185,33.8389,11.0185,33.8389,10.8813,33.8389L10.8813,33.8389z M71.6485,27.9312
		c-0.2197-0.0961-0.4533-0.2061-0.6868-0.3161c-0.275-0.3433-0.3571-0.5082-0.6321-0.879
		c-0.3708-0.1788-0.3708-0.1788-0.6458-0.3574c-0.0961-0.0275-0.2061-0.0548-0.3161-0.0962
		c-0.7418,0.0962-0.7418,0.0962-1.3326,0.0962c-0.1375-0.0548-0.1375-0.0548-0.371-0.0548
		c-1.2776,0.1923-2.2805,0.2748-2.4729,0.3298c-1.044,0.0136-2.1019,0.0411-3.1598,0.0685c0-0.0549,0.0136-0.11,0.0275-0.1786
		c0.2747-0.4671,0.2747-0.4671,0.3433-0.5357c0.2336-0.0414,0.2336-0.0414,1.6075-0.0414c0.0411,0.014,0.0961,0.0414,0.1511,0.0689
		c0.0414,0.1372,0.0414,0.1372,0.1236,0.2061c0.0689,0.0135,0.1375,0.0275,0.22,0.041c0.0961-0.096,0.0961-0.096,0.1922-0.2746
		c1.1268-0.0414,2.2533-0.0825,3.3797-0.1375c0.3025-0.0275,0.6046-0.055,0.9207-0.0961c0.2747,0,0.5496,0,0.8243,0
		c0.8379-0.0688,1.6761-0.1375,2.5143-0.22c1.9233-0.3708,2.198-0.4672,2.569-0.5493c1.099-0.5497,1.1404-0.6047,1.3326-0.6871
		c0.0825-0.0961,0.275-0.1922,0.8657-0.7418c0.0411-0.0275,0.0825-0.055,0.1375-0.0825c0.3708-0.5083,0.3708-0.5083,0.5219-0.7969
		c0.0964-0.9617,0.0964-0.9617,0.0964-1.3325c-0.0964-0.7283-0.1375-0.8243-0.1375-1.0579
		c0.0411-0.1513,0.0825-0.3024,0.1375-0.4535c0.0275-0.2061,0.0547-0.4258,0.0822-0.6457c0.055-0.1786,0.1239-0.3572,0.1925-0.5497
		c0.1375-0.1786,0.1375-0.1786,0.2197-0.4122c0.1375-0.0546,0.2886-0.1097,0.4397-0.1646c0.5085-0.0414,0.5085-0.0414,1.3329,0
		c0.0136,0.2197,0.0136,0.2197-0.0275,0.989c0.0275,0.22,0.055,0.4536,0.0961,0.6871c0.055,0.1375,0.11,0.2747,0.1786,0.4122
		c0.0964,0.1375,0.2061,0.2747,0.3161,0.4122c0.11,0.2197,0.2197,0.4532,0.3297,0.6868c0,0.0414,0,0.0825,0,0.1375
		c-0.0275,0.0274-0.055,0.0549-0.0961,0.0961c0,0.0413,0,0.0825,0,0.1375c0.1236,0.0686,0.2611,0.1375,0.3986,0.2061
		c0.3572-0.0411,0.728-0.0825,1.099-0.1375c0.0825-0.0275,0.1786-0.0551,0.2747-0.0961c0.0689,0,0.1375,0.0136,0.22,0.0275
		c-0.0825,0.1511-0.4535,0.5222-0.6321,0.7557c-0.3297,0.2472-0.4121,0.3572-1.099,0.9069
		c-0.1925,0.0961-0.371,0.2747-0.9618,0.6457c-0.1375,0.0411-0.1375,0.0411-0.5497,0.3708
		c-0.7829,0.3572-0.8793,0.4536-1.5111,0.7282c-1.4289,0.316-1.4289,0.316-1.4701,0.371c-0.3297,0.0275-0.6596,0.0548-1.0029,0.0823
		c-1.745,0-1.745,0-1.9786-0.0411c-0.0275,0.0411-0.0686,0.0825-0.1097,0.1237c-0.055,0.316-0.055,0.316-0.055,0.5907
		c-0.0825,0.2061-0.1786,0.4261-0.2749,0.6458c-0.4533,0.3575-0.4533,0.3575-0.6869,0.5908
		c-0.0275,0.0688-0.055,0.1514-0.0825,0.2336c-0.0686,0.0825-0.1375,0.165-0.2061,0.2474
		C71.9782,27.9312,71.9782,27.9312,71.6485,27.9312L71.6485,27.9312z M64.3669,25.4993c-0.6182-0.0136-1.2365-0.0275-1.8547-0.0547
		c-0.055-0.1513-0.11-0.3024-0.1786-0.4672c-0.1925-0.2749-0.1925-0.2749-0.5497-0.6321c-0.4671-0.2747-0.5496-0.3711-0.7143-0.4396
		c-0.0414-0.055-0.0414-0.055-0.5496-0.2336c-0.9068-0.1786-1.1404-0.2747-1.8686-0.4532c-0.2747-0.0826-0.5493-0.1786-0.8243-0.275
		c-0.4532,0-0.9065,0-1.3737,0c-0.4671-0.0961-1.7861-0.2747-2.4318-0.3297c-0.6871,0-0.6871,0-1.8272,0.0961
		c-0.1925,0.0275-0.3986,0.055-0.6046,0.0963c-2.6104,0.7282-2.6104,0.7282-2.8301,0.8244
		c-1.6075,0.316-1.9236,0.4121-2.4319,0.4946c-0.4121,0.1236-0.8243,0.2472-1.2365,0.3708c-0.1375,0-0.275,0-0.4122,0
		c-0.5085-0.1648-1.0304-0.3297-1.5525-0.5082c-0.4672-0.0825-0.4672-0.0825-0.5085-0.1375
		c-0.5494-0.1786-1.3326-0.3572-2.7476-0.8243c-1.0029-0.2747-1.0029-0.2747-1.5114-0.4532
		c-0.0822-0.0414-0.1786-0.0825-0.2747-0.1375c-0.8107-0.2336-1.6211-0.4672-2.4319-0.7007
		c-0.0136-0.0411-0.0275-0.0825-0.0411-0.1372c0.3708-0.0275,0.3708-0.0275,0.5083-0.0825
		c0.5907,0.0274,1.1815,0.0549,1.7861,0.0961c2.0608-0.0411,4.1216-0.0825,6.1826-0.1375c1.7858-0.0961,1.7858-0.0961,2.6926-0.0961
		c0.5632,0.0275,1.1268,0.0549,1.7036,0.0961c0.1786-0.0411,0.1786-0.0411,2.7479-0.0411c0.1372-0.0549,0.6319-0.0549,0.7282-0.096
		c0.5493-0.0414,0.6457,0,3.0226,0c0.4533,0.0411,1.2776,0.0411,2.198,0c0.1375-0.0414,3.2012-0.0964,3.5722-0.1375
		c1.3739-0.0136,2.7479-0.0276,4.1216-0.0411c0.4121-0.0275,0.8246-0.0551,1.2367-0.0964c1.0029,0,2.0058,0,3.0223,0
		c1.9236-0.0961,3.3386-0.0961,3.5722-0.1373c1.374-0.0414,1.745-0.0963,2.9815-0.0963c1.2365-0.0822,1.2365-0.0822,1.5112-0.0686
		c0.0825,0.2611,0.165,0.5221,0.2475,0.7831c-0.0414,0.3572-0.0825,0.728-0.1375,1.0991c-0.1236,0.1649-0.2475,0.3297-0.3711,0.5082
		c-0.7282,0.6458-0.7282,0.6458-1.1265,0.9207c-0.1925,0.11-0.3847,0.2196-0.5907,0.3296
		c-0.6321,0.2336-0.9068,0.2748-1.0443,0.3297c-0.1786,0.0275-0.3572,0.0551-0.5496,0.0825
		c-0.1922,0.0549-0.3983,0.1236-0.6043,0.1925c-0.4261,0.0546-0.8518,0.1097-1.2779,0.1785
		c-0.3022,0.0136-0.6043,0.0275-0.9204,0.0411c-0.165,0.0275-0.3297,0.055-0.4946,0.0961c-1.2915,0-2.9812,0.0963-3.572,0.0963
		C66.524,25.4582,66.524,25.4582,64.3669,25.4993L64.3669,25.4993z M33.8252,21.1992c-1.1404-0.3711-1.1404-0.3711-2.1022-0.6458
		c-0.1511-0.0276-0.3022-0.055-0.4672-0.0825c-0.4394-0.1511-0.879-0.3022-1.3187-0.4671c-0.0139-0.0136-0.0275-0.0411-0.055-0.0686
		c0.0136-0.0139,0.0275-0.0411,0.055-0.0687c1.8683,0,2.2805-0.0413,4.4377-0.0413c1.7447,0.0413,1.7447,0.0413,2.4729,0.0961
		c3.5722,0,3.5722,0,5.7291,0.0414c0.1925,0.0275,0.3847,0.0549,0.5907,0.0961c0.0414,0.0275,0.0825,0.0551,0.1375,0.0825
		c2.0197-0.0825,2.0197-0.0825,2.844-0.0825c3.7505,0.1785,5.578,0.22,6.4573,0.2747c1.319,0,1.319,0,2.9676-0.0962
		c0.055-0.0135,0.1236-0.0274,0.1922-0.041c5.1659,0.1786,5.1659,0.1786,5.3994,0.2196c1.6486,0,1.6486,0,2.8851-0.041
		c0.371-0.0276,0.7557-0.055,1.1404-0.0961c1.5114,0,2.2533,0.0547,3.7644,0.0547c5.7705-0.1372,5.7705-0.1372,7.1444-0.1372
		c0.0411,0.041,0.0411,0.041,0,0.0825c-2.5279,0.1371-2.8029,0.1921-3.2975,0.1921c-0.4122,0.0414-2.6651,0.0825-3.0773,0.1375
		c-1.0032,0.0411-1.9236,0.0411-2.9265,0c-0.7007,0.055-1.4014,0.11-2.1022,0.1786c-3.4894,0-4.314,0.0411-5.8663,0.0411
		c-0.6183,0.0414-1.2504,0.0825-1.8825,0.1375c-1.6486,0-1.9644-0.0412-4.5337-0.0412c-0.3572,0.0276-0.7282,0.0548-1.099,0.0962
		c-3.1051,0-3.1051,0-4.9462-0.055c-2.1983,0.0961-4.5751,0.1374-5.0284,0.1924C37.3011,21.1992,36.1196,21.1581,33.8252,21.1992
		L33.8252,21.1992z M80.9909,20.1963c-0.0411-0.0275-0.0825-0.055-0.1372-0.0961c-0.1786-0.3025-0.1786-0.3025-0.2475-0.4811
		c-0.0961-0.6318-0.0961-0.6318-0.0961-0.8654c0.0961-0.5086,0.0961-0.5086,0.1786-0.6871c0.0275-0.0136,0.055-0.0411,0.0825-0.0685
		c1.0029-0.0551,1.0029-0.0551,1.7311-0.0551c0.2472,0.0551,0.4946,0.1236,0.7418,0.1924c0.3161,0.0275,0.6321,0.0551,0.9618,0.0823
		c0.4946,0.11,1.0029,0.22,1.5111,0.33c0.0414,0.0275,0.0825,0.0549,0.1375,0.0822c0,0.1375,0,0.2886,0.0136,0.4396
		c-0.0411,0.0825-0.0961,0.165-0.1511,0.2475c-0.2886,0.1235-0.5768,0.2472-0.8793,0.371
		c-0.9068,0.1786-0.9068,0.1786-2.2394,0.3708C81.5406,20.1413,81.2659,20.1963,80.9909,20.1963L80.9909,20.1963z M52.6476,19.9213
		c-0.5083-0.0547-3.8058-0.1372-7.3777-0.3297c-0.1375,0.0275-0.275,0.0549-0.4122,0.0963c-0.6871,0-0.6871,0-2.2807-0.1375
		c-4.7262-0.0413-4.7262-0.0413-8.8478-0.1374c-0.4122-0.0411-0.4122-0.0411-1.0443-0.0411
		c-1.1954,0.0825-1.1954,0.0825-1.8822,0.0825c-0.6869-0.0276-1.374-0.0551-2.0608-0.0825
		c-0.0686,0.0549-0.1511,0.1097-0.2336,0.1785c-0.22,0-0.22,0-0.4122-0.0413c-0.22-0.0961-1.319-0.4122-1.3739-0.4669
		c-0.2197-0.0825-0.3572-0.1789-1.099-0.4946c-0.4671-0.3986-0.9343-0.7968-1.4014-1.2093c0-0.0547,0-0.1236,0-0.1921
		c0.3983-0.11,0.3983-0.11,0.8518-0.3022c0.0686,0,0.1511,0.0136,0.2336,0.0275c0.0961,0.1786,0.0961,0.1786,0.1786,0.2471
		c1.1679,0.0825,2.3493,0.1786,3.5308,0.2747c1.6075,0,1.69-0.0411,2.4729,0c2.3768,0.2336,2.3768,0.2336,3.5722,0.4122
		c0.3297,0.055,0.6596,0.1239,1.0029,0.1925c1.0029,0.0549,2.0061,0.1099,3.0226,0.1785c0.9618,0.1375,1.5664,0.1785,1.8822,0.2336
		c0.8932,0.0411,1.8,0.0825,2.7065,0.1375c1.3054,0.1372,2.6104,0.2746,3.9294,0.4122c0.4397,0,0.8793,0,1.3329,0
		c0.5907,0.041,1.1815,0.0825,1.7861,0.1371c0.6729,0,1.3462,0,2.0194,0c1.7311,0.0825,1.7311,0.0825,2.3768,0.0825
		c0.0414,0.014,0.0825,0.0276,0.1375,0.0551c0.9479,0.0274,1.8958,0.0549,2.844,0.0825c0.7829-0.0139,1.58-0.0275,2.3768-0.0414
		c2.4319,0.0964,3.888,0.0964,5.262,0.1789c0.3983,0.0411,0.7968,0.0822,1.1954,0.1372c0.9479,0.0549,1.8958,0.11,2.8437,0.1649
		c-0.0136,0.0136-0.0272,0.0411-0.0547,0.0687c-2.0061,0.0413-3.16,0-4.2591,0c-1.0443,0.0413-1.0443,0.0413-1.5525,0.0961
		c-1.0168,0-2.0336,0-3.0639,0c-3.7094-0.1372-3.7094-0.1372-5.0834-0.1372c-0.1511,0.0275-0.3022,0.0549-0.4671,0.0825
		C54.0215,19.8666,53.6505,19.9213,52.6476,19.9213L52.6476,19.9213z M77.1029,19.5917c-0.7832-0.0825-0.9204-0.1372-1.374-0.1786
		c-0.9618,0-0.9618,0-3.0637-0.0961c-0.9207,0.055-0.9207,0.055-2.0197,0.055c-0.3161-0.055-2.7479-0.1375-3.8058-0.2335
		c-0.3158-0.0961-0.3158-0.0961-0.4122-0.165c0.0414-0.0136,0.0825-0.0412,0.1375-0.0686c0.6868-0.0414,0.6868-0.0414,5.2208,0
		c1.099,0.096,1.099,0.096,2.0197,0.1375c0.7005,0,1.4012,0,2.1019,0c0.0689,0.0272,0.1511,0.0547,0.2336,0.0961
		c0.8657,0,0.8657,0,1.2365,0.041c0,0.1237,0,0.261,0.0139,0.3986C77.2951,19.578,77.199,19.578,77.1029,19.5917L77.1029,19.5917z
		 M14.0411,19.0009c-0.2336-0.0135-0.4808-0.041-0.7282-0.0686c0-0.0414,0-0.0824,0.0139-0.1374
		c0.0825-0.0275,0.1647-0.0686,0.2611-0.11c0.7282-0.055,0.7282-0.055,1.5525-0.055c0.0961,0.0275,0.2061,0.055,0.3158,0.0964
		c0.0275,0.0275,0.055,0.0686,0.0964,0.1097c-0.0139,0.0139-0.0275,0.0414-0.0414,0.0689
		C15.1404,18.9598,15.1404,18.9598,14.0411,19.0009L14.0411,19.0009z M65.6033,19.0009c-0.0411-0.0686-0.0411-0.0686,0-0.1375
		c0.3297,0.0414,0.3297,0.0414,0.4672,0.0964C66.0155,19.0009,66.0155,19.0009,65.6033,19.0009L65.6033,19.0009z M62.0314,18.9048
		c-0.2061-0.014-0.4122-0.0414-0.6321-0.0689c0.0275-0.0137,0.055-0.0411,0.0825-0.0686c0.3711-0.0411,0.3711-0.0411,0.4672,0
		c0.1647,0.0139,0.3297,0.0275,0.4946,0.0549C62.4022,18.8634,62.4022,18.8634,62.0314,18.9048L62.0314,18.9048z M57.4563,18.8634
		c-0.7418-0.0275-1.4839-0.0547-2.2394-0.0961c-0.2611-0.0275-0.5221-0.0686-0.7832-0.11c0.3436,0,0.7007-0.0137,1.0579-0.0275
		c0.1647,0.0138,0.3297,0.0275,0.4946,0.055c2.844,0,2.844,0,3.9841,0.0414c-0.0411,0.0275-0.0822,0.055-0.1372,0.096
		C59.3796,18.8634,59.3796,18.8634,57.4563,18.8634L57.4563,18.8634z M60.1078,18.8223c-0.0136-0.0135-0.0275-0.041-0.0411-0.0685
		c0.0822,0,0.1786,0,0.2747,0c-0.0136,0.0136-0.0275,0.0411-0.0411,0.0685C60.2453,18.8223,60.1764,18.8223,60.1078,18.8223
		L60.1078,18.8223z M16.1433,18.7263c-0.0689-0.0689-0.1375-0.1511-0.22-0.2336c-0.1372-0.055-0.2747-0.11-0.4121-0.1786
		c-0.1511-0.0274-0.3022-0.0549-0.4671-0.0963c-0.4122,0-0.8243,0.0139-1.2365,0.0274c0-0.041,0.0139-0.0822,0.0275-0.1371
		c0.2475-0.1099,0.4946-0.2199,0.7557-0.3436c1.6075-0.5496,1.6075-0.5496,1.7861-0.6458c0.4808-0.11,0.9754-0.2335,1.4701-0.3571
		c1.5111-0.4672,2.2394-0.6457,2.4729-0.7419c0.8243-0.1788,0.8243-0.1788,1.415-0.3574c0.4535-0.1921,0.7832-0.2747,0.9618-0.3707
		c0.6457-0.1786,0.6457-0.1786,1.099-0.371c0.0689-0.0826,0.1375-0.1647,0.2061-0.2472c0.0275-0.22,0.055-0.4536,0.0825-0.6871
		c0.055-0.2473,0.1236-0.5082,0.1925-0.7693c0-0.4671,0-0.4671,0.0825-0.9618c0.0547-0.1372,0.0547-0.1372,0.1372-0.5493
		c0-0.1925,0-0.3986,0-0.6047c0.0964-0.316,0.1375-0.6868,0.1925-0.8242c0.0275-0.3297,0.055-0.6594,0.0825-1.0029
		c0.1236-0.7007,0.2472-1.4015,0.3708-2.1021c0.0139-0.3297,0.0275-0.6733,0.0414-1.0165c0.0961-0.4536,0.1372-0.8243,0.1922-0.9618
		c0.11-0.7283,0.2336-1.4564,0.3572-2.1982c0.055-0.7283,0.055-0.7283,0.0964-0.7694c0.0136-0.1374,0.0411-0.2749,0.0686-0.4121
		c0.2336,0.0135,0.2336,0.0135,0.2747,0.055c0.5635-0.0275,1.1268-0.055,1.7036-0.0825c0.4397,0.0136,0.8793,0.0275,1.319,0.041
		c0.1375-0.041,0.275-0.0824,0.4122-0.1371c0.0139-0.0275,0.0414-0.0688,0.0689-0.11c0-0.275,0-0.5496-0.0139-0.8243
		c0.0825,0,0.1786,0,0.2749,0.0135c0.1511,0.9893,0.1511,0.9893,0.2472,1.4015c0.0275,0.3021,0.055,0.6046,0.0825,0.9204
		c0.0825,0.426,0.1786,0.8518,0.2747,1.2778c0,0.2747,0,0.5497,0,0.8243c0.1375,1.2364,0.2336,1.6075,0.2749,1.9783
		c0.0961,0.316,0.0961,0.316,0.2747,1.5939c0.5496,1.7858,0.6457,1.9783,1.0165,3.2559c0.0825,0.1375,0.0825,0.1375,0.2064,0.2336
		c0.1786,0.0275,0.3572,0.0688,0.5494,0.11c2.2394,0,2.2394,0,3.5722-0.055c0.3022,0.0139,0.6044,0.0414,0.9204,0.0689
		c-0.0411,0.0411-0.0825,0.0822-0.1372,0.1236c-0.33,0.0411-0.5496,0.1372-0.9618,0.2197c-0.1375,0.055-1.0993,0.2335-1.4289,0.33
		c-0.5907,0.0822-0.6868,0.1372-1.2776,0.2197c-0.3161,0.0961-0.6457,0.1375-0.7282,0.1924
		c-1.2365,0.2746-1.2365,0.2746-1.47,0.2746c-0.0689-0.0138-0.1375-0.0413-0.2061-0.0686c-0.055-0.9617-0.055-0.9617-0.0964-1.1403
		c-0.0272-0.0275-0.0686-0.055-0.1097-0.0825c-0.055,0-0.11,0-0.1786,0c-0.33,0.1922-0.33,0.1922-0.4122,0.2747
		c-0.1925,0.055-0.1925,0.055-0.5496,0.0964c-2.6654,0.0411-3.0226,0-3.7644,0c-0.7696-0.0414-0.9618-0.0964-1.2365-0.0964
		c-0.055,0.0275-0.11,0.055-0.1789,0.0964c-0.0547,0.2061-0.1097,0.4122-0.1647,0.6182c-0.0275,0.3297-0.055,0.6732-0.0961,1.0165
		c0.0275,0.055,0.0547,0.11,0.0961,0.1786c0.0686,0.0139,0.1375,0.0414,0.2061,0.0688c1.099,0.0411,1.099,0.0411,3.5722,0
		c0.7418-0.055,0.7418-0.055,2.569-0.055c0.0411-0.0275,0.0825-0.055,0.1375-0.0825c0.0136-0.0825,0.0411-0.165,0.0686-0.2473
		c0.7832-0.2061,1.5661-0.4121,2.3632-0.6321c0.5907-0.0825,0.5907-0.0825,3.8469-0.8243c0.5907-0.1786,0.9615-0.22,1.3187-0.3161
		c1.0168,0.0414,1.3739,0.0961,2.5282,0.1786c0.0272,0.0139,0.0547,0.0414,0.0822,0.0689
		c-0.0411,0.0686-0.0411,0.0686-0.2197,0.1646c-0.4122,0.0964-0.4122,0.0964-1.0993,0.1786c-1.154,0.33-1.6486,0.4122-2.4316,0.6046
		c-0.6871,0.0825-0.8243,0.1376-4.7676,0.8655c-0.3572,0.0964-1.044,0.1786-1.1404,0.2335c-0.5907,0.1376-1.1951,0.22-1.47,0.316
		c-0.2747,0.0414-0.4122,0.0962-1.0029,0.1786c-0.1372,0.055-0.5907,0.1375-1.099,0.275c-0.0961,0.0547-0.4536,0.1371-0.9618,0.3297
		c-0.7282,0.1786-1.0029,0.2747-1.47,0.3571c-0.0825,0.055-0.4533,0.1375-1.3739,0.4672c-1.5525,0.4532-1.7861,0.5497-2.1433,0.6318
		c-0.5083,0.1924-0.5083,0.1924-1.154,0.371c-0.8243,0.1786-0.9068,0.2336-1.5525,0.4122c-1.69,0.3711-1.69,0.3711-2.6516,0.5497
		C16.4594,18.7263,16.308,18.7263,16.1433,18.7263L16.1433,18.7263z M77.144,18.6849c-0.4121-0.0275-0.8243-0.055-1.2365-0.0961
		c-0.7419,0-1.4837,0-2.2394,0c-0.8793-0.0411-1.7586-0.0825-2.6515-0.1375c-2.5282-0.0136-5.0698-0.0276-7.6116-0.0411
		c-0.1786-0.0551-0.1786-0.0551-1.5112-0.1375c-1.3739,0-3.1601-0.055-5.633-0.055c-1.0304-0.0272-2.0608-0.0547-3.1051-0.0823
		c-1.154-0.0549-2.3219-0.1238-3.4897-0.1924c-0.4533-0.0825-0.4533-0.0825-0.7693-0.1786c-0.6868,0-0.6868,0-2.3905-0.1375
		c-0.7418,0-1.4839,0-2.2394,0c-1.745-0.1372-3.2562-0.1786-3.9844-0.2336c-0.4535-0.0136-0.9068-0.0275-1.3739-0.0411
		c-0.4672-0.0686-0.9343-0.1511-1.4151-0.2336c-2.1572-0.2197-2.1572-0.2197-2.4318-0.2746
		c-0.3297-0.014-0.6593-0.0275-1.0029-0.0414c-0.9204-0.1786-0.9204-0.1786-1.6075-0.2747
		c-0.5907-0.1786-0.6868-0.2336-1.2365-0.371c-0.0411-0.0411-0.2336-0.0826-0.9618-0.3572
		c-0.0136-0.0136-0.0411-0.0411-0.0686-0.0687c0-0.0413,0-0.0824,0-0.1375c0.4808-0.1649,1.3465-0.3435,1.6211-0.4397
		c0.371-0.041,1.1954-0.2335,4.0394-0.7281c0.0825-0.0551,0.6319-0.1372,1.0029-0.2336c0.6868-0.0961,1.374-0.2747,2.2944-0.4533
		c0.4946-0.1375,0.5907-0.1924,0.7693-0.2335c0.5085-0.0411,0.5085-0.0411,0.8793-0.0275c0.1375,0.0686,0.1375,0.0686,0.3161,0.0686
		c0.165-0.0411,0.3297-0.0822,0.5083-0.1372c0.8657-0.0825,0.8657-0.0825,2.6104-0.3572c0.0825-0.055,0.0825-0.055,1.0993-0.2336
		c0.4944-0.1788,1.0029-0.275,1.2776-0.371c0.4536-0.0825,0.9068-0.1786,1.3739-0.2747c1.6075-0.0825,1.6075-0.0825,2.7065-0.1789
		c0.2061-0.0411,0.4122-0.0822,0.6321-0.1373c0.6457-0.0413,1.0579-0.1375,4.259-0.5085c1.0579,0,4.0805-0.1372,4.6712-0.1372
		c0.6044-0.0414,2.0197-0.0414,2.0608,0c-0.0825,0.0961-0.4122,0.2747-0.4533,0.3297c-0.1789,0.0825-0.1789,0.0825-0.3711,0.2472
		c-0.0825,0.11-0.0825,0.11-0.3161,0.3025c-0.055,0.0961-0.11,0.2061-0.1786,0.316c-0.11,0.3298-0.2336,0.6594-0.3572,0.9891
		c-0.0139,0.1375-0.0275,0.2749-0.0414,0.4122c0.0964,0.5496,0.0964,1.0029,0.1788,1.3329
		c0.0686,0.1786,0.1511,0.3571,0.2333,0.5493c0.055,0.371,0.11,0.7557,0.1789,1.1403c0,0.4122-0.0414,0.5083-0.0414,0.7282
		c0.0825,0.0551,0.165,0.1237,0.2475,0.1926c1.154,0.1097,1.154,0.1097,1.3326,0.1511c0.6046,0,0.6046,0,0.8243-0.0414
		c0.2747-0.1922,0.4122-0.3297,0.6046-0.4122c0.1511-0.206,0.1511-0.206,0.3297-0.5768c0.0961-0.0825,0.1922-0.165,0.3022-0.2474
		c0.5496-0.2747,0.5496-0.2747,1.47-0.6458c0.2061-0.055,0.4261-0.11,0.6457-0.1786c0.2886-0.1236,0.5771-0.2473,0.8657-0.371
		c0.4946-0.0961,1.0029-0.2061,1.5111-0.3158c0.0414-0.055,0.0414-0.055,0.3161-0.1375c0.6458-0.0961,0.9204-0.1925,1.374-0.2747
		c0.1097-0.0275,0.2197-0.055,0.3297-0.0964c0.1786-0.0136,0.3572-0.0275,0.5497-0.0411c0.3158,0.1786,0.3158,0.1786,0.4946,0.316
		c0.4122,0,0.4122,0,0.5083-0.0414c0.0961-0.096,0.0961-0.096,0.5907-0.3296c0.2747-0.0825,0.6046-0.2747,1.6486-0.7283
		c0.2747-0.0411,0.2747-0.0411,0.6457-0.1786c0.0411-0.0549,0.7282-0.2747,1.69-0.6868c0.5083-0.2749,0.5083-0.2749,0.5493-0.3297
		c0.1239-0.0275,0.2475-0.055,0.3711-0.0825c0.1236-0.055,0.2472-0.1236,0.3711-0.1925c0.3572-0.0825,0.7693-0.2747,1.044-0.3571
		c0.3711-0.1922,1.7036-0.6869,1.745-0.7419c0.1372-0.0414,0.4533-0.2199,1.4151-0.5908c0.3297-0.0963,0.6732-0.2061,1.0165-0.316
		c0.5635-0.2471,1.1268-0.4946,1.69-0.7418c0.2197-0.0688,0.4533-0.1375,0.6868-0.22c0.0689-0.0551,0.1514-0.1236,0.2336-0.1921
		c0.4535-0.22,0.4535-0.22,0.4946-0.275c0.3847-0.1511,0.7693-0.3022,1.154-0.4534c0.0275-0.0274,0.055-0.0549,0.0825-0.096
		c0.33-0.0825,0.33-0.0825,0.5497-0.1789c0.0825-0.0547,0.1786-0.1097,0.2747-0.1785c0.4536-0.1786,0.9068-0.3572,1.374-0.5494
		c0.6457-0.371,0.6457-0.371,1.3739-0.7421c0.055-0.0136,0.1236-0.0275,0.1922-0.0411c0.2749-0.1786,0.591-0.316,0.6871-0.4121
		c0.6868-0.2747,1.415-0.6458,1.6486-0.7282c0.0411-0.055,0.3571-0.1375,1.0443-0.5082c0.4669-0.1786,0.5083-0.2336,0.8243-0.3161
		c0.1372-0.0961,0.4122-0.1922,0.6457-0.3297c0.6868-0.0825,0.6868-0.0825,0.8654-0.1375c1.7036-0.0825,1.7036-0.0825,1.8822-0.1376
		c0.5085-0.0411,0.5085-0.0411,1.1404-0.0411c1.7861,0.1786,1.7861,0.1786,2.3905,0.2747c0.3161,0.1514,0.6321,0.3024,0.9618,0.4535
		c0,0.0687,0,0.1375,0.0139,0.2197c-0.0964,0.055-0.1925,0.11-0.3025,0.1786c-0.0547,0-0.1097,0-0.1786,0.0139
		c-0.1097-0.0549-0.2336-0.1099-0.3572-0.1785c-0.3572-0.0825-0.7282-0.1786-1.099-0.275
		c-0.7007-0.0411-1.4014-0.0822-2.1158-0.1373c-1.0443,0-1.0443,0-2.6929,0.0961c-1.5114,0.6868-1.5114,0.6868-2.1569,1.0443
		c-1.8825,0.7829-2.0611,0.8243-2.7068,1.099c-0.1372,0.0961-2.1982,1.0168-2.4729,1.0992
		c-0.7282,0.3708-0.7282,0.3708-1.4151,0.6458c-0.2886,0.1786-0.5771,0.3572-0.8657,0.5493
		c-1.47,0.7283-1.9233,0.9208-2.3905,1.1954c-0.1786,0.055-0.3572,0.1099-0.5496,0.1786c-1.1815,0.5497-1.6897,0.7282-2.0608,0.9204
		c-0.2747,0.0825-0.9068,0.3575-0.9618,0.4122c-0.9615,0.3575-1.099,0.4536-1.5526,0.6321
		c-0.3158,0.1922-0.3158,0.1922-0.9615,0.4671c-0.5907,0.1786-1.5526,0.5497-2.1022,0.7283
		c-0.5496,0.2336-1.099,0.4808-1.6486,0.7278c-1.0168,0.5497-1.0168,0.5497-1.3326,0.6733c0,0.0824-0.0139,0.1785-0.0275,0.275
		c0.5358,0.0135,1.2226-0.0275,4.108,0.0135c0.4944,0.055,1.0029,0.1235,1.5111,0.1924c0.1511,0.0411,0.3022,0.0825,0.4533,0.1372
		c0.3985,0.0551,0.7971,0.11,1.1954,0.1786c0.3711,0.0825,0.7557,0.1788,1.1404,0.275c0.055,0.0274,0.11,0.0549,0.1786,0.0961
		c0.0139,0.055,0.0414,0.1099,0.0686,0.165c0.1239,0.0825,0.2611,0.1646,0.3985,0.2472c0,0.055,0,0.11,0.0136,0.165
		c-0.0136,0.0136-0.0411,0.0275-0.0686,0.055c-0.4533-0.0414-0.4533-0.0414-0.4947-0.0825
		c-0.2472-0.055-0.4946-0.1236-0.7418-0.1924c-0.1925-0.0136-0.3847-0.0276-0.5907-0.0411
		c-0.1786,0.0411-0.3572,0.0825-0.5497,0.1375c-0.0686,0.0546-0.1511,0.1097-0.2336,0.1786
		c-0.055,0.096-0.1097,0.1921-0.1647,0.3022c-0.0139,0.1375-0.0275,0.2747-0.0414,0.412c-0.0136,0.0137-0.0411,0.0412-0.0686,0.0687
		c-0.4946,0-1.0029,0-1.5114,0c-0.4121,0.0963-0.4121,0.0963-0.5493,0.1786c-0.0825,0.0964-0.1786,0.1375-0.3436,0.3574
		c-0.0961,0.1647-0.1925,0.3433-0.2886,0.5219C77.4601,18.6849,77.309,18.6849,77.144,18.6849L77.144,18.6849z M50.6829,18.6299
		c-0.6044-0.0411-0.6044-0.0411-0.7832-0.1097c0.2886,0,0.5771-0.0139,0.8657-0.0275c0.11,0.0136,0.2197,0.0275,0.3297,0.055
		C51.04,18.5887,51.04,18.5887,50.6829,18.6299L50.6829,18.6299z M51.5486,18.6573c0-0.0411,0-0.0822,0-0.1372
		c0.1236,0.0135,0.2472,0.0411,0.3708,0.0686C51.8644,18.6299,51.8644,18.6299,51.5486,18.6573L51.5486,18.6573z M47.4267,18.4927
		c-2.1983-0.22-2.1983-0.22-2.4318-0.275c-0.0275-0.0136-0.0547-0.0411-0.0822-0.0686c0.8654-0.0686,0.8654-0.0686,1.8272-0.0686
		c0.2336,0.0549,1.9647,0.2335,2.0608,0.2746c0.0136,0.014,0.0275,0.0276,0.0411,0.0551c-0.0411,0.0275-0.0822,0.055-0.1372,0.0825
		C48.2785,18.4927,47.8528,18.4927,47.4267,18.4927L47.4267,18.4927z M49.3089,18.4788c0.3571-0.0275,0.3571-0.0275,0.3161,0.0139
		C49.5289,18.4927,49.4189,18.4927,49.3089,18.4788L49.3089,18.4788z M59.0638,17.627c-0.481-0.0275-0.9757-0.055-1.4703-0.0961
		c-1.6072,0-1.6072,0-2.198-0.0411c-0.11-0.0275-0.22-0.0688-0.3436-0.11c0-0.0685,0-0.1511,0-0.2335
		c0.0275-0.0276,0.055-0.055,0.0825-0.0825c0-0.1922-0.0825-0.3708-0.1375-0.6044c-0.0275-0.2886-0.055-0.5771-0.0825-0.8657
		c0.0275-0.4807,0.055-0.9754,0.0825-1.47c0.0411-0.1511,0.0825-0.3022,0.1375-0.4534c0.1236-0.1375,0.2472-0.2749,0.3708-0.412
		c0.0964-0.0551,0.1925-0.11,0.3025-0.165c0.7279-0.0961,1.2365-0.0961,1.4151-0.1376c1.099-0.096,1.099-0.096,1.7447-0.096
		c0.0689,0.0275,0.1511,0.0549,0.2336,0.096c0.0139,0.0551,0.0275,0.11,0.055,0.165c0,0.8379,0,1.6761,0,2.514
		c0.0961,0.5085,0.0961,0.5085,0.2747,1.0582c0.4672,0.5908,0.4672,0.5908,0.5085,0.6868c0,0.1375,0,0.1375-0.0689,0.2472
		C59.6682,17.627,59.366,17.627,59.0638,17.627L59.0638,17.627z M47.4267,17.4897c-0.0961-0.0414-0.0961-0.0414-0.1647-0.1514
		c-0.0414-0.4121-0.0414-0.4121-0.0414-1.7448c0.0825-0.371,0.275-0.8243,0.4535-1.5111c0.0547-0.0825,0.1097-0.1786,0.1786-0.275
		c0.1372-0.0825,0.2886-0.1647,0.4397-0.261c0.5493-0.0411,1.3737,0,1.7447-0.0411c0.371,0,0.7557,0,1.1404,0
		c0.7693-0.1237,1.5525-0.2471,2.3355-0.3711c0.6046,0,0.6046,0,0.8793,0.0551c0.0414,0.0549,0.0963,0.11,0.1514,0.165
		c0,0.4122,0,0.4122-0.0414,0.5908c-0.1375,0.2747-0.1375,0.2747-0.1922,0.316c-0.1375,0.4122-0.1375,0.4122-0.275,1.099
		c0,0.1375,0,0.2747,0,0.4121c0.0414,0.2474,0.0825,0.4947,0.1375,0.7419c0.055,0.0414,0.055,0.0414,0.0961,0.275
		c0.0689,0.0825,0.1511,0.1786,0.2336,0.2747c0,0.1375,0,0.1375-0.0686,0.2475c-0.1375,0.0411-0.1375,0.0411-2.9265,0.1785
		C50.1471,17.4897,48.7871,17.4897,47.4267,17.4897L47.4267,17.4897z M62.8557,17.4483c-0.1375-0.0549-0.1375-0.0549-0.4536-0.096
		c-0.1372-0.165-0.2747-0.3297-0.4121-0.5082c-0.1786-0.0825-0.1786-0.0825-0.3983-0.2475c0-0.0825,0-0.1786-0.0139-0.2747
		c0.1236,0.0275,0.2475,0.0687,0.3711,0.11c0.2197,0.1923,0.4122,0.2747,0.8654,0.5768c0.0825,0.0826,0.165,0.1786,0.2475,0.275
		c0,0.0547,0,0.1097-0.0139,0.1646C62.9929,17.4483,62.9243,17.4483,62.8557,17.4483L62.8557,17.4483z M31.998,17.0362
		c-0.6457-0.0961-1.0168-0.0961-2.7479-0.2335c-1.044-0.0136-2.1019-0.0275-3.1598-0.0411c-0.0139-0.055-0.0275-0.11-0.055-0.165
		c0.3708-0.0686,0.9615-0.2472,1.47-0.4396c0.3708-0.0826,0.5907-0.1786,1.0579-0.2747c0.2747,0,0.2747,0,0.7282-0.0825
		c0.2747-0.0961,0.2747-0.0961,0.5494-0.11c0,0.0964-0.0136,0.2061-0.0275,0.3161c0.11,0.0961,0.3024,0.1511,0.6732,0.3435
		c1.1404,0.3572,1.319,0.4533,1.7861,0.5907c-0.0411,0.0276-0.0825,0.0551-0.1375,0.0961
		C32.0941,17.0362,32.053,17.0362,31.998,17.0362L31.998,17.0362z M82.5023,15.525c-0.0275-0.0275-0.055-0.0549-0.0825-0.0963
		c-0.2336,0-0.3297,0.0414-0.7832,0.0414c-0.0961-0.0414-0.0961-0.0414-1.099-0.1375c-0.22-0.0551-0.4535-0.11-0.6871-0.1786
		c-0.3983-0.0549-0.7968-0.1099-1.1951-0.1785c-0.9207-0.0276-1.8547-0.0687-2.789-0.11c0-0.0411,0-0.0825,0.0136-0.1373
		c0.1236-0.0825,0.9482-0.4396,0.9893-0.4946c0.2336-0.0825,0.371-0.1785,0.8793-0.316c0.1786-0.0961,0.4533-0.1786,0.6319-0.2747
		c0.1924-0.0414,0.4121-0.1375,0.7832-0.2336c0.1375-0.0825,0.6457-0.275,1.4151-0.6321c0.1375-0.0961,1.1543-0.5496,1.4701-0.6457
		c0.1786-0.0962,0.4535-0.1786,1.2779-0.5497c0.5082-0.1786,0.6457-0.2747,0.8793-0.3708c0.0411-0.0414,0.0825-0.0825,0.1372-0.1375
		c0.3575-0.0825,0.3575-0.0825,1.0993-0.3572c0.1375-0.0961,0.9618-0.4672,1.7311-0.9205c0.5083-0.1786,0.6458-0.2749,1.0579-0.4535
		c0.1786-0.1375,0.4122-0.2336,0.6868-0.4122c0.0414-0.0549,0.5907-0.2747,0.9207-0.4671c1.1401-0.4946,1.1815-0.5494,1.4151-0.6318
		c0.0411-0.055,1.8272-0.8244,1.8822-0.8793c0.9618-0.3572,1.319-0.5496,2.3355-0.9068c0.1788-0.1375,1.0992-0.5496,1.1404-0.6046
		c0.7832-0.3572,0.7832-0.3572,1.0029-0.4122c0.4946-0.0275,1.0032-0.055,1.5114-0.0826c0.8929,0.0276,1.7997,0.0551,2.7065,0.0826
		c0.5496,0.0964,0.5496,0.0964,0.8243,0.1924c0.0139,0.0135,0.0275,0.0411,0.0414,0.0686c-0.0275,0.0275-0.055,0.0686-0.0825,0.11
		c-0.371,0.1786-0.4122,0.2335-0.6046,0.3161c-0.0411,0.055-3.4347,1.7036-4.259,2.0608c-0.6868,0.3707-0.7693,0.4672-1.4151,0.8243
		c-0.0411,0.055-0.2336,0.1375-0.2747,0.1922c-0.4672,0.2061-0.9343,0.4122-1.4154,0.6321
		c-0.0961,0.0961-0.1922,0.1375-0.2747,0.2336c-0.1375,0.0411-0.1375,0.0411-0.9204,0.5082
		c-0.5085,0.1785-0.7282,0.316-1.3739,0.5908c-0.0961,0.0964-0.3161,0.1786-0.5496,0.316c-0.0961,0.096-0.6868,0.4122-1.099,0.6871
		c-0.0414,0.0547-0.275,0.1371-0.3161,0.1922c-1.154,0.5496-1.154,0.5496-1.6075,0.7282c-0.2061,0.1236-0.4258,0.2472-0.6458,0.371
		c-0.1786,0.0547-0.3571,0.1096-0.5493,0.1786c-0.7696,0.3707-0.7696,0.3707-1.2368,0.5493
		c-0.6318,0.371-1.0029,0.5496-1.099,0.6458c-0.1786,0.0825-0.22,0.1375-0.4122,0.22c-0.0411,0.055-0.3161,0.1372-0.3572,0.1921
		c-0.9207,0.3575-0.9207,0.3575-1.5664,0.6871C82.5984,15.525,82.5573,15.525,82.5023,15.525L82.5023,15.525z M57.0852,14.5083
		c-0.11-0.0275-0.2336-0.055-0.3572-0.0825c-0.0411-0.0551-0.0825-0.1097-0.1236-0.1647c0-0.1375,0.0961-0.4122,0.1372-0.7697
		c0.0275-0.0272,0.0275-0.0272,0.5771-0.1235c0.3436-0.0275,0.7007-0.0551,1.0579-0.0961c0.1375,0,0.2747,0.0135,0.4122,0.0275
		c0.055,0.9204,0.055,0.9204,0.0414,1.1678C57.9095,14.5083,57.9095,14.5083,57.0852,14.5083L57.0852,14.5083z M61.2071,14.4672
		c-0.0275-0.0139-0.11-0.4261-0.11-0.6183c0.0825-0.2749,0.0825-0.2749,0.1786-0.4535c0.0825-0.0825,0.1647-0.1647,0.2611-0.2611
		c0.2061-0.0135,0.4122-0.0275,0.6318-0.041c0.1375,0.0549,0.275,0.1099,0.4122,0.1786c0.0275,0.0549,0.055,0.1099,0.0964,0.1649
		c0,0.0686,0,0.1511,0.0136,0.2335c-0.0686,0.1373-0.1375,0.2748-0.2197,0.4122c-0.0964,0.0822-0.1925,0.1647-0.3025,0.2471
		c-0.2061,0.0411-0.4121,0.0825-0.6318,0.1375C61.4268,14.4672,61.3168,14.4672,61.2071,14.4672L61.2071,14.4672z M65.4248,14.1511
		c-0.0275-0.0274-0.0275-0.0274-0.0275-0.1649c0.0689-0.1373,0.1375-0.2886,0.2061-0.4396c0.055,0,0.1236,0,0.1925,0
		c0.0825,0.0414,0.1786,0.0825,0.2747,0.1375c0.0414,0.0549,0.0961,0.11,0.1511,0.1649c0,0.0411,0,0.0823,0,0.1373
		C66.2079,14,66.1805,14.0275,66.153,14.0551C65.8783,14.0961,65.7408,14.1511,65.4248,14.1511L65.4248,14.1511z M66.7987,13.8765
		c-0.0961-0.0689-0.1786-0.2062-0.6868-0.6046c-0.0825-0.0411-0.165-0.0961-0.2611-0.1511
		c-0.0275-0.1924-0.055-0.3846-0.0825-0.5908c-0.1375-0.1785-0.275-0.3571-0.4122-0.5496c0-0.0411-0.0139-0.0825-0.0275-0.1375
		c0.1511,0,0.3022,0,0.4671,0.0138c0.3022,0.0826,0.6044,0.1786,0.9068,0.2748c0.4808,0.2335,0.9754,0.481,1.47,0.7282
		c0.0686,0.0549,0.1372,0.11,0.2061,0.165c0,0.0411,0,0.0822,0,0.1371c-0.0825,0.0551-0.1786,0.1237-0.275,0.1926
		c-0.7554,0.3297-0.7554,0.3297-0.7968,0.3846C67.1423,13.78,66.9773,13.8214,66.7987,13.8765L66.7987,13.8765z M42.3434,12.8457
		c-0.2747-0.4394-0.371-0.5357-0.5496-0.8104c-0.2061-0.2335-0.4258-0.4807-0.6457-0.7281
		c-0.1922-0.2747-0.3847-0.5496-0.5768-0.838c0-0.0414,0-0.0825-0.0139-0.1375c0.0414,0,0.0825,0,0.1375,0.0136
		c0.3161,0.275,0.3161,0.275,0.4122,0.3161c0.1786,0.2336,0.8243,0.9204,0.9204,0.9618c0.5496,0.6044,0.6871,0.6868,0.7696,0.8104
		c0.0686,0.0689,0.1511,0.1375,0.2333,0.22c-0.0272,0.0411-0.0547,0.0825-0.0961,0.1236c-0.0961,0.0275-0.2061,0.055-0.3161,0.0825
		C42.5358,12.8597,42.4395,12.8597,42.3434,12.8457L42.3434,12.8457z M43.992,12.6397c-0.0825-0.0137-0.1786-0.0273-0.2747-0.0547
		c-0.1786-0.1786-0.1786-0.1786-0.3022-0.2475c0-0.0549,0-0.1099-0.0139-0.1785c1.1404-0.0686,2.8301-0.2611,3.0226-0.2611
		c0.0139,0.0139,0.0275,0.0275,0.0411,0.0551c-0.0961,0.0824-0.0961,0.0824-0.4533,0.22c-0.0825,0-0.1786,0-0.2747,0
		c-0.1511,0.0547-0.3025,0.1235-0.4671,0.1921c-0.5496,0.0825-0.5496,0.0825-1.0443,0.22
		C44.1295,12.6397,44.1295,12.6397,43.992,12.6397L43.992,12.6397z M29.5251,12.2275c-0.2611-0.0411-0.5222-0.0823-0.7832-0.1372
		c-1.3053,0-2.6243,0-3.943,0c-0.0275-0.0275-0.0689-0.0689-0.11-0.11c0-0.2336,0-0.2336,0.1786-1.2365
		c0.055-0.22,0.11-0.4536,0.1786-0.6868c0.0411-0.0414,0.0825-0.0826,0.1236-0.1239c1.0579-0.0411,2.2394-0.0411,3.8883-0.1373
		c0.3572,0,0.7279,0,1.099,0c0.0411-0.0549,0.0825-0.11,0.1375-0.1649c0.055,0,0.1236,0,0.1922-0.0137
		c0.0275,0.0273,0.0689,0.0686,0.11,0.1097c0.1786,0.9207,0.2747,1.2365,0.3572,1.7036c0.0961,0.275,0.0961,0.275,0.0961,0.4947
		c-0.1786,0.1924-0.1786,0.1924-0.3847,0.3022C30.2944,12.2275,29.9098,12.2275,29.5251,12.2275L29.5251,12.2275z M41.0658,12.2275
		c-1.6489-0.0961-1.6489-0.0961-2.3358-0.1923c-0.0411-0.0275-0.0825-0.0549-0.1375-0.0824c-2.7065,0-2.7065,0-2.9812-0.0275
		c0-0.0411,0-0.0825,0-0.1375c1.0579-0.2472,1.0579-0.2472,2.1019-0.4396c0.1375-0.0547,0.275-0.1097,0.4122-0.1786
		c0.9207-0.1785,0.9207-0.1785,1.7861-0.412c0.0825,0,0.1786,0,0.275,0c0.1922,0.206,0.3708,0.5085,1.0579,1.4014
		c-0.0139,0.0139-0.0275,0.0411-0.0414,0.0686C41.1619,12.2275,41.1205,12.2275,41.0658,12.2275L41.0658,12.2275z M42.7144,11.6781
		c-0.6458-0.6456-0.6458-0.6456-0.7421-0.687c-0.0686-0.1097-0.1372-0.2197-0.2197-0.3297
		c-0.0961-0.0411-0.0961-0.0411-0.165-0.1511c0-0.0411,0-0.0825,0.0139-0.1375c0.3297-0.0686,0.3708-0.1236,0.7007-0.2061
		c0.6319-0.0961,0.6319-0.0961,1.4151-0.1372c0.8654,0,0.8654,0,1.374,0.0411c0.1511,0.0549,0.3158,0.1099,0.4808,0.165
		c0,0.0547,0,0.1096,0,0.1785c-0.6182,0.3848-0.6593,0.4398-0.8518,0.522c-0.0411,0.055-0.4533,0.2335-0.5907,0.3299
		c-0.1375,0.0411-0.2747,0.1372-1.0993,0.4121C42.9341,11.6781,42.8241,11.6781,42.7144,11.6781L42.7144,11.6781z M49.3089,11.6507
		c0-0.0689,0-0.1375,0.0139-0.22c0.0686-0.0825,0.0686-0.0825,0.2061-0.1235c0.5496-0.0411,1.0165-0.1376,1.5111-0.1786
		c1.1818-0.1924,2.3769-0.3986,3.5722-0.6046c0.8793-0.0823,1.3739-0.0823,2.4318-0.2197c0.0686,0,0.1511,0,0.2336,0.0136
		c0.0961,0.1514,0.2061,0.3024,0.3158,0.4672c-0.0136,0.0139-0.0272,0.0414-0.0411,0.0689
		c-1.0168,0.0822-1.8411,0.0822-3.6683,0.2197c-1.0579,0.1511-2.1294,0.3022-3.2011,0.4671
		C50.2296,11.5681,49.7761,11.6093,49.3089,11.6507L49.3089,11.6507z M48.4296,11.5818c-0.1372-0.1237-0.2747-0.2472-0.4122-0.3846
		c-0.3433-0.6458-0.4807-0.8243-0.5219-0.9615c-0.0414-0.0551-0.0825-0.11-0.1375-0.1786c0-0.055,0-0.1239,0.0136-0.1926
		c0.055-0.0275,0.055-0.0275,0.2886-0.0275c0.1786,0.0961,0.1786,0.0961,0.275,0.2061c0.1786,0.3297,0.2747,0.4122,0.3572,0.5771
		c0.0961,0.1097,0.1922,0.2197,0.3022,0.3433c0.0275,0.1514,0.055,0.3025,0.0825,0.4672c-0.11,0.1375-0.11,0.1375-0.2061,0.1786
		C48.4571,11.6093,48.4435,11.5957,48.4296,11.5818L48.4296,11.5818z M44.5005,11.5681c0.0136-0.041,0.0272-0.0824,0.0411-0.1375
		c0.2886-0.1921,0.5496-0.3021,1.1954-0.7143c0.0822-0.11,0.1786-0.22,0.2747-0.3436c0.0136-0.2747,0.0136-0.2747-0.0275-0.3157
		c0-0.0414-0.0136-0.0826-0.0275-0.1375c0.1925-0.0275,0.4671-0.1237,0.6871-0.1237c0.1922,0.1786,0.1922,0.1786,0.5494,0.6869
		c0.0964,0.1786,0.1924,0.3572,0.3024,0.5358c0,0.22,0,0.22-0.0275,0.2474c-0.9068,0.0822-1.4564,0.1786-1.7861,0.1786
		C44.9949,11.5406,44.9949,11.5406,44.5005,11.5681L44.5005,11.5681z M67.0734,11.5406c-0.0961-0.0549-0.4533-0.1375-0.5907-0.2335
		c-0.0686-0.0276-0.1511-0.0551-0.2336-0.0961c-0.8654-0.0825-0.8654-0.0825-1.7861-0.2199
		c-0.3158-0.055-0.6318-0.1236-0.9615-0.1922c-1.374-0.1375-1.374-0.1375-1.9236-0.1375c-1.6486,0.0961-1.6486,0.0961-2.9812,0.1375
		c-0.0275,0.0136-0.055,0.0275-0.0825,0.055c-0.1786,0-0.3572-0.0139-0.5496-0.0275c0-0.055-0.0136-0.11-0.0275-0.1786
		c-0.2747-0.4121-0.2747-0.4121-0.4122-0.6871c-0.055-0.0551-0.1236-0.11-0.1922-0.1786c-0.22-0.3708-0.22-0.3708-0.426-0.6458
		c0.0411,0,0.0825-0.0136,0.1375-0.0276c0.1786,0.1786,0.4122,0.3162,0.6457,0.5085c0.1786,0.2062,0.3572,0.4122,0.5493,0.6183
		c0.0825,0.1785,0.0825,0.1785,0.1789,0.2883c0.0961,0.055,0.0961,0.055,0.3158,0.055c0.0689-0.0686,0.0689-0.0686,0.11-0.2061
		c0.1236-0.0686,0.1236-0.0686,0.4946-0.1647c0.7693-0.0551,1.5526-0.11,2.3355-0.1786c0.33,0,0.6596,0,1.0032,0
		c0.8654,0.0822,0.8654,0.0822,1.5112,0.1786c0.5496,0.2335,1.69,0.5908,1.7861,0.6458c0.3161,0.0822,0.3161,0.0822,0.7282,0.2747
		c0.4672,0.2747,0.4672,0.2747,0.5493,0.3572C67.2109,11.5406,67.2109,11.5406,67.0734,11.5406L67.0734,11.5406z M25.4446,9.0677
		c-0.0964-0.0961-0.0964-0.0961-0.165-0.2474c0.0136-0.3847,0.0275-0.7694,0.0411-1.154c0.0414-0.1786,0.0825-0.3572,0.1375-0.5496
		c0.0411-0.0136,0.0825-0.0411,0.1236-0.0686c0.7282-0.0961,2.2944-0.1786,2.6518-0.2336c0.879-0.0411,0.879-0.0411,1.9233-0.0411
		c0.0139,0.0136,0.0411,0.0411,0.0686,0.0686c0.0414,0.5496,0.0414,0.5496,0.1786,1.374c0.0964,0.2335,0.0964,0.2335,0.0964,0.3297
		c-0.1375,0.3161-0.1375,0.3161-0.2061,0.3846c-2.3357,0.0825-3.4761,0.0825-4.0669,0.1375
		C25.9665,9.0677,25.7054,9.0677,25.4446,9.0677L25.4446,9.0677z M25.8979,6.1827c-0.2197-0.055-0.2197-0.055-0.3022-0.11
		c0-0.1926,0.055-0.275,0.1372-0.7833c0.0139-0.2747,0.0275-0.5496,0.055-0.8243c0.0275-0.0549,0.0689-0.11,0.11-0.1649
		c0.0825,0,0.1786,0,0.2747,0c0.0964-0.1372,0.0964-0.1372,0.1925-0.1786c0.4122,0,0.8243,0,1.2365,0
		c0.3572,0.0275,0.7282,0.0549,1.099,0.0825c0.2475,0.0413,0.5085,0.0824,0.7696,0.1375c0.1372,0,0.2747,0,0.4121,0
		c0.0136,0.0275,0.0411,0.0549,0.0686,0.0824c0.1786,1.3738,0.1786,1.3738,0.1786,1.5526c-0.0275,0.0135-0.0686,0.0411-0.11,0.0686
		C29.2915,6.0452,28.1922,6.1277,25.8979,6.1827L25.8979,6.1827z M29.1951,3.8469c-1.099-0.0961-1.099-0.0961-1.7311-0.0961
		c-0.0275-0.0275-0.055-0.055-0.0961-0.0964c-0.4808,0-0.9754,0-1.4701-0.0137c0.0686-0.5496,0.0686-0.5496,0.055-0.8793
		C26.0354,2.7203,26.1176,2.679,26.2,2.6379c0-0.0689,0.0139-0.1511,0.0275-0.2336c1.3739-0.0685,1.3739-0.0685,2.1433-0.0685
		c0.3297,0.0411,0.3297,0.0411,0.4122,0.0822c0.7421,0,0.9618-0.0411,1.0579,0c0.0139,0.0274,0.0414,0.0549,0.0689,0.0825
		C29.992,3.05,29.992,3.05,29.992,3.5447c-0.0822,0.1922-0.0822,0.1922-0.1511,0.2472C29.6348,3.8058,29.4151,3.8193,29.1951,3.8469
		L29.1951,3.8469z M26.1315,0.7968c0.0136-0.2197,0.0136-0.2197,0.0411-0.2473c1.0168,0.0411,1.0168,0.0411,1.2365,0.0826
		c0.0275,0.0136,0.055,0.0272,0.0964,0.0547c-0.0414,0.0413-0.0414,0.0413-0.1786,0.0825c-0.6871,0-0.8243-0.0411-1.0168-0.0411
		C26.255,0.7418,26.2,0.7693,26.1315,0.7968L26.1315,0.7968z"/>
</g>
</svg>
