<?xml version="1.0" encoding="utf-8"?>
<!-- Generator: Adobe Illustrator 21.1.0, SVG Export Plug-In . SVG Version: 6.00 Build 0)  -->
<svg version="1.1" id="Moone" xmlns="http://www.w3.org/2000/svg" xmlns:xlink="http://www.w3.org/1999/xlink" x="0px" y="0px"
	 viewBox="0 0 86.9559 24.0894" enable-background="new 0 0 86.9559 24.0894" xml:space="preserve">
<g>
	<path fill-rule="evenodd" clip-rule="evenodd" d="M20.9083,24.0894c-0.1539-0.0473-0.3076-0.0947-0.4731-0.1536
		c-0.4731-0.2367-0.5085-0.2841-1.573-0.7569c-0.2718-0.1539-0.6267-0.3076-1.6557-0.8634
		c-0.5083-0.1536-1.2654-0.4731-1.5727-0.5559c-0.0238-0.0116-0.0473-0.0235-0.0711-0.0473c0-0.0709,0-0.1537,0-0.2364
		c0.0238-0.0235,0.0473-0.0474,0.0711-0.0709c0.1891,0,0.1891,0,1.5372,0.2838c0.544,0.0235,1.0998,0.0592,1.6557,0.0947
		c0-0.0355-0.0119-0.0711-0.0236-0.1182c-0.0947-0.0592-0.4969-0.2129-0.5323-0.2602c-0.7449-0.3549-0.9816-0.4257-1.7385-0.7807
		c-0.0354-0.0473-0.1891-0.0828-0.2957-0.1774c0-0.047,0-0.0944,0-0.1537c0.0119-0.0235,0.0357-0.0473,0.0593-0.0708
		c0.0592,0,0.1301,0,0.201,0c0.6268,0.2838,0.6268,0.2838,1.029,0.4019c0.2719,0.0355,0.544,0.1183,1.419,0.2722
		c0.1182,0.0354,0.2367,0.0709,0.3549,0.1182c0.3192,0,0.6503,0,0.9814-0.0119c-0.0116-0.0354-0.0235-0.0709-0.047-0.1182
		c-0.2367-0.1537-0.4731-0.3076-0.7214-0.4731c-0.2367-0.0944-0.485-0.201-0.7333-0.3073
		c-0.0473-0.0711-0.0947-0.1539-0.1537-0.2367c-0.5085-0.2364-0.5085-0.2364-1.561-0.6386c0-0.0354,0-0.0709-0.0119-0.1182
		c0.1894-0.0235,0.3076,0.0119,0.7807,0.0119c0.3546,0.0828,0.3546,0.0828,0.9459,0.1536c0.5204,0,0.5204,0,1.6557,0.0828
		c0.0116-0.0116,0.0235-0.0355,0.0473-0.059c-0.0119-0.0238-0.0238-0.0473-0.0473-0.0828c0.0828-0.0119,0.0828-0.0119,0.3192,0.0474
		c0-0.0357-0.0119-0.0711-0.0235-0.1185c-0.0355-0.0474-0.0828-0.0945-0.1301-0.1418c-0.0473-0.0119-0.1066-0.0238-0.1655-0.0354
		c-0.0473-0.0473-0.0947-0.1065-0.1539-0.1655c-0.1182-0.0473-0.2364-0.0947-0.3546-0.1539
		c-0.1894-0.0235-0.3904-0.0474-0.5913-0.0828c-0.6741-0.0235-1.36-0.0474-2.046-0.0709c-1.3836-0.1182-2.6016-0.2837-3.4767-0.3549
		c-0.3549-0.0828-0.9462-0.1655-1.1826-0.1655c-1.2416-0.1537-2.4834-0.3076-3.7369-0.4731
		c-1.9395-0.3073-6.6699-0.946-7.5685-1.0996c-0.3668-0.1301-0.7333-0.2602-1.1118-0.3903C0.0593,15.8349,0.0593,15.8349,0,15.6812
		c0-0.0711,0-0.1539,0-0.2367c0.0709-0.1182,0.1182-0.3192,0.1775-0.3784c0.1182-0.0473,0.1182-0.0473,0.2718-0.0473
		c0.284,0.0828,0.284,0.0828,0.7926,0.1655c0.7095,0.0711,1.8093,0.1185,2.4006,0.1893c0.8277,0.1656,0.8277,0.1656,1.8922,0.3192
		c2.5424,0.284,5.097,0.5678,7.6512,0.8634c1.9276,0.1656,1.9276,0.1656,2.6371,0.201c0.284,0,0.5678,0,0.8515-0.0119
		c0.0709-0.1656,0.0709-0.1656,0.142-0.2245c0.3192,0.0116,0.6503,0.0235,0.9814,0.0354c0.1893,0.0235,0.3903,0.0474,0.5913,0.0828
		c0.7926,0.2364,0.7926,0.2364,0.9462,0.2364c0.0119-0.0117,0.0236-0.0354,0.0355-0.059c-0.1536-0.2602-0.4731-0.6741-0.7804-1.218
		c-0.3076-0.6741-0.3076-0.6741-0.6151-1.4547c-0.0354-0.2483-0.0709-0.4966-0.1182-0.7568
		c-0.1655-0.0947-0.343-0.201-0.5204-0.3076c-0.39-0.3546-0.39-0.3546-0.9814-0.9933c-0.0592-0.1537-0.1301-0.3076-0.2013-0.4731
		c0-0.0474,0-0.0947,0-0.1537c0.0357-0.0474,0.0712-0.0947,0.1185-0.1537c0.934-0.4969,0.9697-0.5443,2.2351-1.171
		c0.7449-0.3192,0.7449-0.3192,1.0287-0.4728c0.4258-0.1301,0.8634-0.2602,1.3008-0.3903c0.0473-0.0593,0.0947-0.1301,0.1539-0.201
		c0.0589-0.2129,0.0589-0.2129,0.1182-0.2721c0.2364-0.0828,0.2364-0.0828,0.3192-0.1656c0.0947,0,0.201,0,0.3076,0
		c0.3192,0.0828,0.3192,0.0828,0.7095,0.142c-0.0119-0.0357-0.0235-0.0711-0.0354-0.1185c-0.201-0.1536-0.201-0.1536-1.4783-0.8631
		c0-0.0709,0-0.1536,0.0119-0.2364c0.0473-0.0238,0.0473-0.0238,0.201-0.0238c0.201,0.0828,1.0287,0.2367,1.8213,0.4377
		c0.1771,0.0117,0.3546,0.0236,0.544,0.0354c0.0116-0.0119,0.0235-0.0354,0.0473-0.0592c-0.1656-0.1772-0.4023-0.3311-0.4731-0.4138
		c-0.0828-0.0354-0.1655-0.1182-0.7095-0.4374c-0.3195-0.1539-0.3195-0.1539-0.544-0.3314c0-0.1891,0-0.1891,0.0235-0.2129
		c0.3549,0,0.7095,0,1.0644,0c0.5201,0.0712,1.1826,0.2367,1.5845,0.3076c0.0709,0,0.1539,0,0.2367,0
		c0.0116-0.0119,0.0235-0.0354,0.0355-0.0589c-0.0828-0.0947-0.5913-0.3668-0.6268-0.4142
		c-0.2013-0.0709-0.2367-0.1182-1.5848-0.7449C22.4221,5.5701,22.28,5.4873,22.138,5.4045
		c-0.4374-0.1539-0.4374-0.1539-0.6976-0.2956c0-0.1894,0-0.1894,0.0236-0.2129c0.0473,0,0.0947,0,0.1539,0
		c1.62,0.6622,1.6554,0.7095,1.8567,0.7804c0.0354,0.0473,0.2364,0.1182,0.2718,0.1655c0.2367,0.0712,0.8277,0.3549,0.9108,0.3549
		c0-0.0473,0-0.0946,0.0116-0.142c-0.2364-0.1891-0.3901-0.3546-1.1826-1.0171c-0.4258-0.5201-0.7214-0.7922-0.8986-0.9933
		c-0.1066-0.0828-0.2129-0.1774-0.3195-0.2721c0-0.2364,0-0.2364,0.0354-0.4728c0.0238-0.0119,0.0473-0.0357,0.0711-0.0593
		c0.5085,0.0355,0.5085,0.0355,1.3363,0.1894c0.6268,0.2364,0.6741,0.2837,0.9105,0.3546c0.0357,0.0473,0.0357,0.0473,0.544,0.2837
		c0.9462,0.2367,0.9462,0.2367,1.2654,0.2721c0.0119-0.0119,0.0238-0.0354,0.0357-0.0592c-0.0473-0.059-0.0947-0.1182-0.1539-0.1772
		c-0.1891-0.142-0.3904-0.284-0.5913-0.4377c-0.1182-0.0473-0.2364-0.0947-0.3546-0.1537c-0.828-0.5085-0.828-0.5085-0.8634-0.5558
		c-0.3546-0.1539-0.5913-0.3076-1.0287-0.4731c-0.0947-0.0473-0.1893-0.1063-0.2956-0.1655c0-0.0474,0-0.1066,0.0116-0.1655
		c0.0473-0.0238,0.0473-0.0238,0.2013-0.0238c0.5556,0.2367,0.5913,0.284,1.2297,0.5913c0.0357,0.0473,0.6267,0.3549,2.1642,1.3011
		c0.8277,0.591,0.8277,0.591,1.218,0.8277C28.063,4.955,28.063,4.955,28.063,5.0735c-0.0238,0.0235-0.0473,0.047-0.0828,0.0828
		c-0.1301,0.0117-0.1301,0.0117-0.4496-0.0711c-0.0944-0.0474-0.201-0.0947-0.3073-0.1537
		c-0.2486-0.0708-0.4969-0.1536-0.7569-0.2364c-0.1185-0.0119-0.2367-0.0238-0.3549-0.0357
		c-0.0354-0.0235-0.0708-0.0474-0.1182-0.0828c-0.6268-0.1536-0.828-0.2365-1.0171-0.2719
		c-0.3192-0.1655-0.5205-0.2367-0.5559-0.2838c-0.201-0.0711-0.4139-0.1539-0.6268-0.2367c-0.0592,0-0.1301,0.0119-0.201,0.0238
		c0.0354,0.059,0.7923,0.4493,0.8277,0.4966c0.3549,0.1891,0.3903,0.2364,0.5559,0.3073c0.0354,0.0474,0.5913,0.3549,1.5372,0.9936
		c0.3904,0.3076,0.3904,0.3076,0.8396,0.7687c0,0.0473,0,0.0944,0,0.1537c-0.0235,0.0235-0.059,0.0473-0.0944,0.0828
		c-0.875-0.6267-0.875-0.6267-1.8567-1.2654c-0.1539-0.0592-0.6267-0.3311-0.6622-0.3784
		c-0.3903-0.1891-0.7806-0.3903-1.1826-0.5913c-0.0473,0-0.1066,0-0.1656-0.0119c0.0116,0.0593,0.0354,0.1301,0.059,0.2012
		c0.201,0.1891,0.201,0.1891,0.2367,0.2719c1.1823,0.9462,1.277,1.0644,1.3836,1.1472c0.0709,0.1182,0.2364,0.2718,0.5085,0.6622
		c0,0.0947,0,0.1894,0,0.2838c0.1537,0.0947,0.3073,0.2012,0.4728,0.3076c0.0473,0.0473,0.0947,0.1065,0.1539,0.1655
		c0,0.0473,0,0.1066-0.0119,0.1656c-0.0593,0-0.1301,0-0.201,0c-0.1182-0.0709-0.1182-0.0709-1.372-0.3901
		c-0.3784-0.0711-0.7569-0.1539-1.1469-0.2367c-0.2012-0.0119-0.4141-0.0354-0.627-0.059c0,0.0354,0,0.0708,0.0119,0.1182
		c0.3904,0.3192,0.6506,0.4731,1.9749,1.5373c0,0.0473,0,0.1065,0,0.1655c-0.0828,0-0.1655,0-0.2602,0.0119
		c-0.1182-0.0593-0.2364-0.1302-0.3546-0.201c-0.1656-0.0355-0.3311-0.0709-0.5085-0.1183
		c-0.3549-0.0357-0.7095-0.0828-1.0644-0.1301c0,0.0354,0,0.0708,0.0119,0.1182c0.2364,0.1891,0.4731,0.3903,0.7095,0.5913
		c0,0.1063,0.0119,0.2129,0.0238,0.3192c1.7028-0.3073,1.7028-0.3073,2.2467-0.3784c1.3836,0,1.3836,0,2.1761,0.0355
		c1.0996,0.1539,1.0996,0.1539,1.9276,0.3195c0.1063,0,0.2129,0,0.3192,0c0.5913-0.3195,0.5913-0.3195,0.6622-0.4022
		c0.2248-0.0944,0.4496-0.201,0.6741-0.3073c0.2248-0.1301,0.4496-0.2602,0.6741-0.4022c0.7098-0.3073,0.9816-0.4731,1.3365-0.5913
		c0.2364-0.1537,0.2364-0.1537,0.9459-0.4728c0.3195-0.0711,0.7095-0.2367,1.2654-0.3904c0.201-0.0712,0.4139-0.1539,0.6267-0.2367
		c1.6203-0.3192,2.0934-0.39,2.3652-0.4728c0.2367-0.0239,0.4731-0.0474,0.7095-0.0828c0.3195,0,0.6505,0,0.9816,0
		c0.2129-0.0473,0.4258-0.0947,0.6386-0.1539c0.1891,0,0.3903,0,0.5913,0c1.2535,0.1182,1.2535,0.1182,1.6911,0.1182
		c0.6268-0.8512,1.3363-1.6909,1.7382-2.2113c0.1185,0,0.1185,0,0.6267,0.1063c0.0831,0.1185,0.0831,0.1185,0.1301,0.3195
		c-0.0116,0.0474-0.0235,0.0947-0.0354,0.1537c-0.7449,1.029-0.8277,1.0998-0.8632,1.1826
		c-0.284,0.3549-0.3549,0.5085-0.4377,0.5913c0,0.0473,0,0.0946-0.0119,0.1536c1.9159,0.3784,3.8316,0.7688,5.7475,1.1591
		c0.1774,0.059,0.3665,0.1301,0.5559,0.201c0.1417,0.0119,0.2837,0.0238,0.4374,0.0355c0.3903,0.1065,0.7807,0.2129,1.1826,0.3194
		c0.2129,0.0354,0.4377,0.0709,0.6625,0.1182c1.7028,0.4731,1.7028,0.4731,1.8921,0.5559c3.867,1.1826,3.867,1.1826,3.9852,1.1826
		c0.1537-0.2013,0.3549-0.3549,1.4545-1.5375c0.5559-0.5559,0.5559-0.5559,0.6386-0.5913c0.1182,0,0.1182,0,0.5913,0.1539
		c0.0354,0.0471,0.0828,0.0944,0.1301,0.1418c0,0.0592,0,0.1301,0,0.2009c-0.0473,0.0828-0.0947,0.1775-0.1537,0.2722
		c-1.4664,1.5372-1.4664,1.5372-1.5021,1.62c0,0.0474,0.0119,0.0947,0.0238,0.1539c0.8632,0.2957,1.1472,0.3665,2.0931,0.686
		c0.5204,0.1536,1.0406,0.3072,1.5729,0.4728c1.9276,0.1539,1.9276,0.1539,2.5189,0.1539c2.0931,0.1182,2.0931,0.1182,2.4126,0.1655
		c0.3311,0,0.6741,0,1.0171,0c0.0116-0.0119,0.0354-0.0354,0.059-0.0592c0-0.7095-0.0354-1.3362-0.0828-8.1953
		c-0.0354-0.7922-0.0354-0.7922-0.0354-3.0038c0.0593-0.0474,0.1182-0.0947,0.1775-0.1537c0.2838-0.0593,0.3192-0.1066,0.5202-0.142
		C70.2933,0.0592,70.3168,0.0355,70.3406,0c0.2602,0.0355,0.5202,0.0709,0.7923,0.1182c0.4139,0.1066,0.8396,0.2129,1.2654,0.3195
		c0.7923,0.1536,1.5965,0.3072,2.4007,0.4728c0.201,0.0828,0.201,0.0828,0.2483,0.142c0,0.0593,0.0119,0.1302,0.0235,0.201
		c0.1185,0.0119,0.1185,0.0119,0.1774,0.0711c0.6268,2.3295,0.6268,2.3295,0.9462,3.3939c0.201,0.8396,0.4138,1.6792,0.6267,2.5189
		c0.3192,0.9107,0.4731,1.4663,0.6386,1.8921c0.544,1.9749,0.5913,2.0577,0.745,2.7202c0.0828,0.2364,0.1536,0.5556,0.201,0.6384
		c0,0.0357,0.0119,0.0711,0.0238,0.1184c2.3652-0.3076,2.3652-0.3076,3.2284-0.3784c0.6267-0.1655,0.6267-0.1655,1.0998-0.2367
		c0.2602,0,0.5204,0,0.7923,0c0.6741,0.1539,0.6741,0.1539,1.573,0.4258c0.4374,0.1655,0.4374,0.1655,0.7095,0.2367
		c0.2129,0.1063,0.4258,0.2126,0.6386,0.3192c0.3901,0.4492,0.3901,0.4492,0.4493,0.5794c0.0119,0.1893,0.0238,0.3904,0.0354,0.5913
		c-0.0473,0.0828-0.0947,0.1775-0.1536,0.2722c-0.0592,0.0473-0.1182,0.0944-0.1774,0.1537
		c-0.201,0.0947-0.4139,0.1893-0.6267,0.2956c-0.544,0.1774-1.0999,0.3665-1.6557,0.5559c-0.6029,0.0947-1.2061,0.201-1.821,0.3076
		c-0.5678,0.1537-1.1472,0.3073-1.7266,0.4728c-0.8753,0.1655-0.8753,0.1655-1.2064,0.2602
		c-0.0354,0.2367-0.0709,0.4731-0.1182,0.7095c-0.1182,0.284-0.1182,0.284-0.2364,0.4377
		c-0.1655,0.1537-0.1655,0.1537-0.4141,0.3192c-0.2599,0.1182-0.5202,0.2367-0.7923,0.3668
		c-0.6622,0.1536-0.6622,0.1536-1.6554,0.4728c-0.627,0.2722-0.6624,0.3195-1.5729,0.6741
		c-0.3195,0.0711-0.6505,0.1539-0.9816,0.2367c-0.2838,0.0235-0.5794,0.0473-0.8751,0.0709
		c-0.3076,0.0828-0.3076,0.0828-0.9462,0.1655c-0.1536,0.0473-0.3073,0.0947-0.4728,0.1536
		c-0.544,0.0831-1.0644,0.1185-1.0998,0.1539c-0.3194,0.0473-0.6505,0.1063-0.9816,0.1656
		c-1.7739,0.1536-3.7488,0.3903-4.9669,0.4731c-1.3008,0.1536-1.3008,0.1536-1.8922,0.1891
		c-0.3311,0.0473-0.6622,0.1065-0.9932,0.1655c-0.2957,0.0238-0.5913,0.0473-0.8989,0.0712c-0.485,0-0.9697,0-1.4664,0
		c-0.9224,0.1063-1.8567,0.2126-2.791,0.3192c-0.7214,0.0235-1.4428,0.0473-2.1759,0.0828
		c-0.3668,0.0354-0.7333,0.0708-1.0998,0.1182c-0.828,0.0354-1.6557,0.0712-2.4834,0.1182c-2.0106,0-2.0106,0-2.6374,0.0357
		c-0.1182,0.0355-0.1182,0.0355-0.5913,0.0355c-0.2245-0.0238-0.4493-0.0473-0.6741-0.0712
		c-0.1298-0.0354-0.2599-0.0708-0.39-0.1182c-0.1301,0-0.2602,0-0.4022,0c-0.2364,0.0712-0.2364,0.0712-0.8632,0.1539
		c-0.3784,0.0235-0.7569,0.0471-1.1472,0.0828c-0.9462,0-1.8921,0-2.8383,0c-0.1536-0.0473-0.1536-0.0473-0.5085-0.0828
		c-0.8631-0.0357-1.7266-0.0711-2.6016-0.1185c-1.62-0.1536-1.62-0.1536-1.8567-0.201c-0.9814-0.0354-0.9814-0.0354-2.0812,0
		c-0.5204,0.0474-0.5204,0.0474-1.6557,0.0474c-0.7095-0.1656-0.7095-0.1656-1.5018-0.4019
		c-0.3549-0.1894-0.3549-0.1894-0.3903-0.2367c-0.4377-0.1537-0.4377-0.1537-1.1472-0.3076
		c-0.343-0.0471-0.686-0.1063-1.0287-0.1656c-2.046-0.4728-2.046-0.4728-2.4364-0.5913c-1.5372-0.3073-1.5372-0.3073-2.1285-0.4728
		c-0.2602-0.0947-0.5204-0.2013-0.7923-0.3076c-0.5559-0.3192-0.5559-0.3192-1.1826-0.5913c-0.8634,0-0.8634,0-0.9105,0.0235
		c0,0.0357-0.0119,0.0711-0.0238,0.1185c0.2248,0.1536,0.4612,0.3073,0.6979,0.4728c0.3784,0.142,0.7569,0.2957,1.1469,0.4496
		c0.1182,0.0944,0.2367,0.1891,0.3668,0.2957c0,0.0473,0,0.0944,0,0.1536c-0.0119,0.0119-0.0357,0.0355-0.0593,0.0592
		c-0.1655,0-0.3311,0-0.5085,0c-0.6741-0.1539-0.6741-0.1539-0.8277-0.2367c-0.6741-0.0709-1.3601-0.1536-2.0461-0.2364
		c-0.1772,0-0.3665,0-0.5559-0.0119c0.0119,0.0474,0.0238,0.0947,0.0357,0.1539c0.2956,0.1537,0.5913,0.3073,0.887,0.4728
		c0.0116,0.0238,0.0235,0.0473,0.0354,0.0828c0.6622,0.284,0.6622,0.284,1.0525,0.485c0.0828,0.1182,0.0828,0.1182,0.1536,0.1537
		c1.029,0.1655,1.029,0.1655,1.0644,0.1893c0,0.0474,0.0119,0.0944,0.0236,0.1537c-0.1417,0.0119-0.3311-0.0235-1.7975-0.1063
		c-0.2364,0.0235-0.4731,0.047-0.7095,0.0828c-0.2129-0.0238-0.4376-0.0592-0.6622-0.0947c0,0.0354,0,0.0708,0.0116,0.1182
		c0.0947,0.0828,0.0947,0.0828,0.7688,0.4138c0.2837,0.0712,0.3549,0.1182,0.6386,0.1894c0.3784,0.1536,0.7569,0.3073,1.1353,0.4728
		c0.0235,0.0358,0.0473,0.0712,0.0828,0.1066c0.0119,0.1536,0.0119,0.1536-0.0354,0.2129c-0.0592,0-0.1301,0-0.201,0
		c-0.6386-0.1537-1.2773-0.3076-1.9278-0.4731c-0.2837-0.0473-0.5794-0.0947-0.875-0.1536
		c-0.2838-0.0119-0.5675-0.0355-0.8632-0.0593c0,0.0354,0,0.0709,0.0116,0.1182c0.1656,0.1066,0.3311,0.2129,0.4969,0.3195
		c1.0287,0.4493,1.2651,0.5201,1.3836,0.6029c0.2719,0.0828,0.2719,0.0828,0.5913,0.2367c0.059,0.0589,0.1301,0.1301,0.201,0.2009
		c0.1891,0.0593,0.3904,0.1182,0.5913,0.1894c0.0235,0.0355,0.059,0.0709,0.0947,0.1063c0,0.0473,0,0.0947,0,0.1536
		c-0.0119,0.0119-0.0357,0.0357-0.0592,0.0592C21.121,24.0894,21.0147,24.0894,20.9083,24.0894L20.9083,24.0894z M42.2422,21.2511
		c-0.4493-0.047-0.8989-0.0944-1.3482-0.1537c-0.9578-0.0473-1.9159-0.1063-2.8738-0.1656
		c-0.7449-0.0708-1.4899-0.1536-2.2467-0.2364c-0.7098,0.0471-0.7098,0.0471-2.992,0.0828
		c-0.3194-0.0357-0.3194-0.0357-1.1826-0.2721c-0.4022-0.1655-0.6741-0.3192-1.029-0.4731c-0.0828-0.1182-0.201-0.201-0.2719-0.3192
		c-0.0238-0.0119-0.0473-0.0238-0.0828-0.0354c-0.0357-0.0592-0.0712-0.1301-0.1185-0.201
		c-0.0828-0.0357-0.0828-0.0357-0.1536-0.1185c-0.0709-0.0116-0.1536-0.0235-0.2364-0.0355
		c-0.0357-0.0235-0.0712-0.0473-0.1185-0.0828c-0.5556-0.0354-0.6741-0.0828-0.9932-0.0828
		c-0.8632-0.3076-0.8632-0.3076-1.1826-0.3904c-0.5913-0.3192-0.5913-0.3192-0.7804-0.39
		c-0.9935-0.6386-1.1472-0.7098-1.3482-0.8753c-0.2721-0.1536-0.2721-0.1536-0.828-0.5675
		c-0.0235-0.0474-0.0473-0.0947-0.0709-0.142c-0.3192-0.2719-0.875-0.6622-0.9462-0.7449
		c-0.0828-0.0355-0.0828-0.0355-0.4019-0.3311c0.1182-0.0238,0.1182-0.0238,0.201,0.0119c0.0354,0.047,1.6557,0.946,1.6912,0.9933
		c0.201,0.0709,0.2364,0.1182,0.875,0.4258c0.0354,0.0473,0.0354,0.0473,0.9462,0.5202c0.7804,0.3076,0.7804,0.3076,1.7266,0.627
		c0.6622,0.1772,1.3362,0.3665,2.0103,0.5556c0.4731,0.0947,0.9462,0.2012,1.419,0.3076c1.1826,0.1655,1.1826,0.1655,2.1761,0.2364
		c0.4728,0.0947,0.9459,0.1894,1.419,0.284c1.6557,0.1537,1.6557,0.1537,4.6477,0.3546c1.218-0.0828,1.218-0.0828,2.0103-0.1656
		c0.2718-0.0709,0.2718-0.0709,0.5559-0.0709c1.3717,0.946,1.8921,1.2535,1.9275,1.3127c-0.0354,0.059-0.0354,0.059-0.1182,0.1063
		C43.7678,21.2276,43.0109,21.2394,42.2422,21.2511L42.2422,21.2511z M46.9253,21.1329c-0.8989-0.3192-1.6557-0.6267-1.6911-0.6741
		c-0.6741-0.3073-0.8277-0.4257-1.0644-0.5439c-0.7449-0.5559-0.7449-0.5559-0.7923-0.5675c0-0.0474,0-0.1066,0-0.1656
		c0.5204-0.142,0.5204-0.142,1.2654-0.2957c1.0999-0.1539,1.0999-0.1539,4.1037-0.4731c0.8631-0.0354,1.6081-0.1182,2.2822-0.1539
		c0.2721-0.0828,0.2721-0.0828,0.3903-0.1656c1.7385-0.3073,1.7385-0.3073,2.8383-0.4728c0.4138-0.0473,0.8396-0.0947,1.2654-0.1539
		c0.5556-0.1063,1.1234-0.2129,1.6909-0.3192c4.0683-0.5439,4.0683-0.5439,5.8422-0.828c0.1301,0,0.2602,0,0.39,0
		c0.3903-0.059,0.7807-0.1182,1.1826-0.189c0.1066,0,0.2129,0,0.3195,0c0.0235,0.0235,0.0473,0.0592,0.0708,0.0946
		c0.2838,0.059,0.2838,0.059,0.4377,0.059c1.5372-0.3192,1.5372-0.3192,2.7553-0.6267c0.1539-0.0474,0.3076-0.1063,0.4731-0.1655
		c1.2061-0.2838,2.4126-0.5675,3.6306-0.8632c1.0287-0.1539,4.2573-0.7926,6.0313-1.0998c0.2364-0.0474,0.4728-0.1066,0.7095-0.1655
		c1.9749-0.2367,1.9749-0.2367,2.5662-0.2722c0.1537-0.0473,0.3076-0.0946,0.4731-0.1536c0.39-0.0473,0.39-0.0473,1.3717-0.0473
		c0.3784,0.1063,0.7569,0.2129,1.1472,0.3192c0.3784,0.1539,0.7569,0.3075,1.1472,0.4731c0.0828,0.0592,0.1772,0.1182,0.2718,0.1774
		c-0.0354,0.0473-0.0709,0.0947-0.1182,0.142c-0.4612,0.1536-0.9224,0.3073-1.3836,0.4728
		c-0.5913,0.0947-1.1826,0.2013-1.7739,0.3076c-0.8042,0.2129-1.6203,0.4258-2.4361,0.6387
		c-0.4496,0.0709-0.8988,0.1537-1.3481,0.2364c-4.0564,1.0171-4.5649,1.1826-4.9669,1.2534
		c-0.544,0.1659-0.544,0.1659-1.1826,0.3195c-3.0748,0.6267-3.0748,0.6267-5.1562,1.0999c-0.8751,0.1537-1.762,0.3073-2.649,0.4731
		c-0.0947,0.0709-0.0947,0.0709-0.142,0.1891c0,0.1894,0.0473,0.2722,0.0473,0.4731c-0.2129,0.0355-0.4258,0.0828-0.6503,0.1301
		c-0.3076,0.0235-0.6267,0.0473-0.9462,0.0828c-0.8158,0.1537-1.6319,0.3073-2.448,0.4731
		c-0.7804,0.1182-1.5727,0.2364-2.3649,0.3546c-1.0644,0.0947-2.1288,0.201-3.1933,0.3076
		c-2.0457,0.1182-2.2822,0.1656-4.612,0.2837C49.4561,21.1093,48.1907,21.1209,46.9253,21.1329L46.9253,21.1329z M70.6598,19.2407
		c-0.6029-0.0354-1.2061-0.0828-1.8094-0.1301c0-0.0474,0-0.1063,0-0.1655c2.8737-0.6149,2.8737-0.6149,3.7369-0.7688
		c1.2654-0.3192,1.2654-0.3192,1.5375-0.3546c0.1301,0.1182,0.2602,0.2364,0.4019,0.3546c0.3076,0.1539,0.7098,0.2722,0.828,0.3314
		c-0.0238,0.0355-0.0473,0.0709-0.0828,0.1063c-0.2367,0.0708-0.2367,0.0708-0.3903,0.1536c-0.343,0.0712-0.686,0.1539-1.029,0.2367
		c-0.8396,0.0709-1.6792,0.1537-2.5189,0.2364C71.1094,19.2407,70.8846,19.2407,70.6598,19.2407L70.6598,19.2407z M75.9461,18.2829
		c-0.0119-0.0947-0.0238-0.1894-0.0473-0.2838c-0.3076-0.142-0.3076-0.142-0.7923-0.3076c0-0.0354,0-0.0709-0.0119-0.1182
		c0.142-0.0712,0.142-0.0712,0.4493-0.142c0.0354,0,0.0711,0,0.1182,0.0119c0.0238,0.0355,0.0473,0.0709,0.0828,0.1063
		c0.2602,0.0947,0.5204,0.2013,0.7926,0.3076c0.0235,0.0355,0.047,0.0709,0.0709,0.1063c-0.0238,0.0238-0.0473,0.0592-0.0709,0.0947
		c-0.1301,0.0592-0.2602,0.1301-0.4023,0.201C76.0762,18.2591,76.017,18.271,75.9461,18.2829L75.9461,18.2829z M77.3178,17.7863
		c-0.0709-0.142-0.0709-0.142-0.4258-0.5204c-0.0354-0.0119-0.0709-0.0235-0.1063-0.0474c0-0.0354,0.0116-0.0709,0.0235-0.1182
		c0.1539-0.0709,0.1539-0.0709,1.8921-0.4966c0.0711,0,0.1539,0,0.2367,0c0.0828,0.0947,0.0828,0.0947,0.1301,0.2129
		c-0.0119,0.1182-0.0238,0.2364-0.0357,0.3546c-0.2129,0.142-0.2129,0.142-0.9224,0.4496
		C77.6727,17.7035,77.4834,17.7863,77.3178,17.7863L77.3178,17.7863z M51.5846,17.0294c-0.0709-0.1301-0.0709-0.1301-0.1655-0.2129
		c-0.2483-0.0828-0.4966-0.1655-0.7449-0.2602c-0.1539-0.0119-0.3076-0.0238-0.4731-0.0354
		c-0.6267-0.1539-0.6267-0.1539-0.8277-0.2367c-2.8029-0.6267-2.8029-0.6267-5.1208-1.1826
		c-1.2299-0.1537-1.2299-0.1537-3.1575-0.4728c-2.0931-0.4141-4.1981-0.8396-6.3031-1.2654
		c-1.1945-0.1775-2.3887-0.3549-3.5952-0.544c-1.1826-0.0828-2.6371-0.2367-3.7843-0.3195
		c-0.1891-0.0235-0.3903-0.0474-0.5913-0.0828c0.0473-0.0235,0.1066-0.0474,0.1656-0.0709c2.247-0.0473,2.247-0.0473,2.7201-0.0828
		c0.39,0.0828,1.0641,0.1537,2.1639,0.3546c0.5086,0,0.5086,0,0.5913-0.0354c0.0354-0.0474,0.0711-0.1063,0.1182-0.1655
		c0.1539-0.0355,0.1539-0.0355,0.3903-0.0355c0.4022,0.0828,1.1826,0.1537,2.5662,0.3904c0.0828,0.0474,0.0828,0.0474,0.6741,0.201
		c0.5085,0.0828,1.0171,0.1774,1.5375,0.2718c0.1417,0,0.2837,0,0.4257,0c0.2483,0.0473,0.4966,0.1066,0.7569,0.1658
		c0.7211,0.0944,1.4426,0.201,2.164,0.3073c0.5085,0.1655,0.5085,0.1655,1.1826,0.3194c1.218,0.1537,2.1642,0.3192,2.992,0.3901
		c0.4731,0.0712,0.9462,0.1539,1.419,0.2367c0.2248,0.0119,0.4496,0.0235,0.6741,0.0473c1.9278,0.3073,1.9278,0.3073,7.0129,1.2535
		c1.3836,0.3546,1.3836,0.3546,1.4664,0.4139c-0.0473,0.0592-0.0473,0.0592-0.3192,0.142
		c-1.2064,0.1656-2.4126,0.3311-3.6306,0.5085C51.7975,17.0294,51.6912,17.0294,51.5846,17.0294L51.5846,17.0294z M58.2072,16.0124
		c-0.0709-0.1775-0.0709-0.1775-0.1656-0.2602c-0.2602-0.0473-0.5204-0.0947-0.7807-0.142
		c-0.0354-0.0235-0.0709-0.0473-0.1182-0.0708c-0.3903-0.0709-0.7804-0.1536-1.1826-0.2364
		c-0.2602-0.0238-0.5201-0.0474-0.7923-0.0828c-0.1655-0.0474-0.3311-0.0947-0.5085-0.1539
		c-3.0747-0.6386-3.0747-0.6386-4.6947-0.946c-2.1288-0.3194-2.1288-0.3194-2.448-0.4022
		c-0.2129-0.0116-0.4377-0.0235-0.6624-0.0354c-0.3546-0.0828-0.9105-0.1537-1.0641-0.201
		c-1.3836-0.1536-1.3836-0.1536-2.3652-0.3076c-0.2483-0.0119-0.4966-0.0235-0.7568-0.0473c-0.544-0.1301-1.0999-0.2603-1.6557-0.39
		c-0.1417,0-0.2838,0-0.4258,0c-0.3192-0.0828-0.3192-0.0828-1.2654-0.2367c-0.1182,0-0.2364,0-0.3546,0
		c-0.2248-0.0355-0.4496-0.0709-0.6741-0.1183c-0.6267-0.0354-0.6267-0.0354-1.4193-0.1536
		c-0.6267-0.1655-0.6267-0.1655-0.8986-0.2013c-0.2602,0-0.5204,0-0.7923,0c-0.3903-0.0828-0.3903-0.0828-1.3011-0.201
		c-0.7923,0-0.7923,0-1.3363-0.0355c-0.0709-0.0235-0.1536-0.0473-0.2364-0.0828c-0.7095-0.0709-0.7095-0.0709-1.7385-0.2364
		c-1.3008-0.0357-1.5018-0.0712-2.8738-0.1185c-0.5202,0-1.0525,0-1.5846-0.0116c0.0119-0.0355,0.0235-0.0711,0.0354-0.1182
		c0.5559-0.142,0.5559-0.142,1.1472-0.2248C28.796,10.88,28.796,10.88,29.3519,10.88c0.2837,0.0354,0.5678,0.0709,0.8634,0.1182
		c0.6622,0,1.3362,0,2.0103,0c1.7739,0.1182,2.0931,0.1656,3.5121,0.2364c0.1539,0.0474,0.1539,0.0474,1.4193,0.201
		c0.7449,0.0357,0.7449,0.0357,0.7804,0c0.1182-0.0355,0.1182-0.0355,0.201-0.1182c0.4377,0.0238,0.8869,0.0474,1.3365,0.0828
		c0.8277,0.1539,1.7739,0.3904,1.8921,0.3904c0.1063-0.0354,0.2129-0.0709,0.3192-0.1182c0.1655,0,0.3311,0,0.5085,0
		c0.5913,0.0828,1.419,0.1537,1.8567,0.2364c1.9749,0.2367,2.4007,0.3195,3.0393,0.3903c0.6386,0.1063,1.2773,0.2129,1.9276,0.3192
		c0.4612,0.0474,0.9224,0.0947,1.3836,0.1539c1.5375,0.2838,2.1997,0.3546,3.2287,0.5559c0.1536,0.0116,0.3073,0.0235,0.4728,0.0355
		c0.5205,0.1063,1.0409,0.2128,1.573,0.3192c0.4731,0.0473,0.9459,0.0947,1.419,0.1536c0.6505,0.1185,1.3127,0.2367,1.9749,0.3549
		c0.0238,0.0354,0.0473,0.0709,0.0828,0.1065c-0.0709,0.201-0.0709,0.201-0.1417,0.591c0,0.142,0,0.284,0,0.4377
		c0.0709,0.3549,0.1182,0.4258,0.1182,0.544C58.9876,15.9296,58.4436,16.0124,58.2072,16.0124L58.2072,16.0124z M60.1348,15.7521
		c-0.0119-0.0709-0.0354-0.1537-0.059-0.2364C59.91,15.279,59.91,15.279,59.8391,15.0899
		c-0.0119-0.1301-0.0235-0.2602-0.0473-0.4022c0.0473-0.2719,0.0473-0.2719,0.0711-0.2957c0.0828,0,0.1772,0,0.2719,0
		c0.0354,0.0119,0.0828,0.0355,0.1301,0.0592c-0.0354,0.3546-0.0354,0.3546-0.0354,0.8751
		c0.0828,0.3076,0.0828,0.3076,0.0828,0.3903C60.2529,15.7286,60.194,15.7402,60.1348,15.7521L60.1348,15.7521z M61.4001,15.6101
		c-0.142-0.2483-0.3076-0.4492-0.343-0.5675c0-0.1301,0-0.2602-0.0119-0.3903c0.0947,0,0.2012,0,0.3076,0.0119
		c0.2367,0.0709,0.4731,0.1417,0.7095,0.2245C62.157,15.279,62.157,15.279,62.157,15.48c-0.0119,0.0119-0.0235,0.0357-0.0473,0.0592
		C61.5895,15.6101,61.5895,15.6101,61.4001,15.6101L61.4001,15.6101z M21.8543,14.3093c-0.544-0.1537-0.544-0.1537-0.9459-0.3073
		c-0.0238-0.0947-0.0592-0.1894-0.0947-0.2957c-0.0238-0.0357-0.0592-0.0712-0.0947-0.1066
		c-0.2364-0.0709-0.2364-0.0709-0.4377-0.1891c-0.0354-0.0473-0.1536-0.0828-0.2718-0.0828
		c-0.0473,0.059-0.1066,0.1299-0.1656,0.201c-0.0473,0-0.0947,0-0.1539,0c-0.2245-0.1066-0.4493-0.2129-0.6741-0.3195
		c-0.2126-0.1536-0.4374-0.3073-0.6622-0.4728c-0.1182-0.0474-0.2364-0.0947-0.3546-0.1539
		c-0.1301-0.1063-0.2602-0.2129-0.4022-0.3192c-0.1417-0.1774-0.2957-0.3549-0.4493-0.5323c0-0.0354,0-0.0709,0.0119-0.1182
		c0.5556-0.3073,0.5556-0.3073,2.3768-1.1588c0.5085-0.1655,0.5085-0.1655,1.1353-0.3195c0.1301,0,0.2602,0,0.4022,0
		c0.1536,0.0828,0.1536,0.0828,0.8631,0.3195c0.0947,0.2364,0.1893,0.4847,0.2957,0.733c0.1536,0.7452,0.1536,0.7452,0.1893,1.0998
		c0,0.3549,0,0.7096,0,1.0644c-0.0238,0.1655-0.0473,0.3311-0.0711,0.5085c-0.0473,0.142-0.1063,0.2837-0.1656,0.4377
		C22.0791,14.2977,21.9725,14.2977,21.8543,14.3093L21.8543,14.3093z M54.9669,12.5354c-0.7449-0.1537-3.3469-0.5439-4.1392-0.7095
		c-1.6084-0.1891-1.6084-0.1891-1.7974-0.2484c-0.0119-0.5439-0.0238-1.0998-0.0354-1.6557
		c-0.0473-0.1891-0.0947-0.3901-0.1539-0.5913c-0.1417-0.3427-0.2838-0.6857-0.4374-1.0287c0-0.0593,0-0.1182-0.0119-0.1894
		c0.3549,0.0474,0.3549,0.0474,1.4545,0.3314c1.0998,0.0354,1.0998,0.0354,1.3365,0.0709c0.1655,0.0473,0.343,0.1063,0.5202,0.1655
		c0.5204,0.0947,1.0409,0.201,1.5729,0.3076c0.4377,0.1656,0.4377,0.1656,0.9816,0.3192c0.2957,0.7688,0.3311,0.9343,0.6503,1.762
		c0.3195,0.9462,0.3195,0.9462,0.3903,1.2535c0,0.0712,0,0.142-0.0119,0.2129C55.1798,12.5354,55.0732,12.5354,54.9669,12.5354
		L54.9669,12.5354z M23.5573,12.4645c-0.0357,0-0.0712-0.0119-0.1185-0.0235c-0.047-0.284-0.0944-0.5678-0.1417-0.8634
		c-0.1066-0.3546-0.2129-0.7095-0.3194-1.0644c0-0.0354,0.0119-0.0709,0.0238-0.1182c0.5913-0.1418,2.2467-0.4612,2.8026-0.5321
		c0.2721,0,0.544,0,0.828,0c0.0709,0.0119,0.1536,0.0355,0.2364,0.059c-0.0119,0.0119-0.0235,0.0357-0.0473,0.0593
		c-0.4731,0.0709-0.5439,0.1182-0.8277,0.1893c-0.3903,0.1655-0.3903,0.1655-0.7688,0.3784
		c-0.0235,0.1182-0.0473,0.2364-0.0828,0.3546c0,0.3195,0.0473,0.4022,0.0473,0.4731c-0.2602,0.1656-0.2602,0.1656-0.3195,0.2365
		c0.0119,0.1655,0.0238,0.343,0.0357,0.5204c0.1182,0.1891,0.1182,0.1891,0.1182,0.2364c-0.0238,0.0119-0.0593,0.0238-0.0947,0.0474
		C24.4797,12.4291,24.0185,12.441,23.5573,12.4645L23.5573,12.4645z M25.9934,12.441c0-0.0357,0-0.0711,0-0.1185
		c0.1536,0,0.3073,0.0119,0.4731,0.0238C26.4308,12.3817,26.4308,12.3817,25.9934,12.441L25.9934,12.441z M47.6821,11.4001
		c-3.5124-0.4728-3.5124-0.4728-4.896-0.6857c0.0592-0.3194,0.142-0.4731,0.2129-0.7098c0.0119-0.1298,0.0235-0.2599,0.0473-0.4019
		c0-0.5321,0-1.0644,0-1.6084c-0.0828-0.6387-0.1655-0.8751-0.1775-1.1472c0.3549,0.0357,0.7095,0.0828,1.0644,0.1301
		c0.6741,0.1655,2.2113,0.4731,2.5189,0.5559c0.0235,0.0355,0.0473,0.0709,0.0828,0.1182c0,0.1065,0,0.2248,0.0119,0.343
		c0.4731,0.7449,0.5913,0.9816,0.6386,1.0171C47.4928,9.65,47.4928,9.65,47.5401,9.6855c0.0473,0.1655,0.0947,0.3311,0.1539,0.5085
		c0.0828,0.6741,0.0828,0.6741,0.0828,1.1826C47.7176,11.424,47.7176,11.424,47.6821,11.4001L47.6821,11.4001z M40.4209,10.5724
		c-0.9224-0.1774-1.8567-0.3665-2.791-0.5559c-1.0406-0.1537-2.0812-0.3076-3.1218-0.4731
		c-1.4547-0.3192-1.4547-0.3192-2.0106-0.4138c0.0119-0.0474,0.0238-0.0947,0.0357-0.1536c0.591-0.3195,1.2297-0.6151,1.821-0.9343
		c0.7214-0.2364,1.4428-0.4731,2.1643-0.7095c1.1472-0.2364,1.7385-0.3076,2.0577-0.3903c0.201-0.0236,0.4138-0.0474,0.6267-0.0828
		c0.4377-0.0119,0.887-0.0235,1.3363-0.0473c0,0.0593,0.0119,0.1183,0.0238,0.1894c0.0947,0.2129,0.201,0.4258,0.3076,0.6387
		c0.0471,0.1655,0.1063,0.3311,0.1655,0.5085c0.0471,0.3665,0.0944,0.7331,0.1537,1.0996c0,0.6386,0,0.6386-0.0354,0.9935
		c-0.1182,0.2364-0.1182,0.2364-0.1774,0.2837C40.7404,10.5724,40.7404,10.5724,40.4209,10.5724L40.4209,10.5724z M30.9603,9.9218
		c0.0119-0.0355,0.0235-0.0709,0.0354-0.1182c0.0473,0,0.1063-0.0119,0.1655-0.0235c0.0354,0.059,0.0354,0.059,0,0.1182
		C31.102,9.8983,31.0311,9.9102,30.9603,9.9218L30.9603,9.9218z"/>
</g>
</svg>
