<?xml version="1.0" encoding="utf-8"?>
<!-- Generator: Adobe Illustrator 21.1.0, SVG Export Plug-In . SVG Version: 6.00 Build 0)  -->
<svg version="1.1" id="PA" xmlns="http://www.w3.org/2000/svg" xmlns:xlink="http://www.w3.org/1999/xlink" x="0px" y="0px"
	 viewBox="0 0 135.0763 56.9893" enable-background="new 0 0 135.0763 56.9893" xml:space="preserve">
<g>
	<path fill-rule="evenodd" clip-rule="evenodd" d="M17.3701,56.9489c-0.4575-0.0377-0.9116-0.0754-1.3484,0.0255l-0.032,0.0025
		L9.2608,56.45L9.222,56.4392c-0.8802-0.4246-1.8927-0.3815-2.8947-0.3393c-0.307,0.013-0.6132,0.0261-0.9094,0.0261H5.3643
		l-0.0329-0.0439c-0.013-0.0179-0.0255-0.0369-0.0349-0.0564v-0.0003L5.296,56.0248h0.0003
		c-0.0496-0.0992-0.0451-0.2038-0.0156-0.2905c0.0286-0.0848,0.0836-0.1577,0.1344-0.1956l0.0074-0.0048l0.0193-0.0122
		l0.0091-0.0056c0.2605-0.1301,0.5604-0.171,0.8725-0.2132c0.3858-0.0522,0.7943-0.1077,1.1412-0.3464l0.0658-0.019
		c1.0012,0.0445,1.8241-0.3155,2.6768-0.6885c0.6729-0.2942,1.366-0.5975,2.1833-0.7256c0.4135-0.2917,0.8543-0.4102,1.3121-0.5327
		c0.3651-0.0975,0.7421-0.199,1.1104-0.3918l0.0499-0.0128c0.6497,0,1.2022-0.2234,1.7354-0.4391
		c0.5117-0.207,1.0083-0.4073,1.5693-0.4119c0.0547-0.0207,0.1063-0.0555,0.176-0.1029c0.0507-0.0345,0.1117-0.076,0.1902-0.1233
		c0.411-0.307,0.832-0.5332,1.2935-0.7279c0.4612-0.1947,0.9604-0.3578,1.529-0.5406l0.002-0.0009
		c0.2018-0.0604,0.4462-0.1321,0.7036-0.1843c0.2463-0.0501,0.4995-0.0816,0.7265-0.0654c0.2599-0.1162,0.5624-0.1775,0.8779-0.2415
		h0.0006c0.4312-0.0871,0.889-0.1806,1.2713-0.4278l0.051-0.0176c0.5746-0.0408,1.0922-0.212,1.6112-0.3835
		c0.489-0.1613,0.9814-0.324,1.5358-0.3849c0.7571-0.2441,1.5775-0.4408,2.4182-0.6421c0.6829-0.1633,1.3802-0.3302,2.0735-0.5309
		l0.0065-0.0017c0.7152-0.1607,1.3807-0.396,2.0571-0.6344c0.8405-0.2965,1.7002-0.6001,2.7108-0.7818
		c0.3608-0.2279,0.7237-0.288,1.0964-0.3501c0.3512-0.0587,0.7135-0.1193,1.0771-0.3297l0.0207-0.0094
		c0.9814-0.3217,1.9672-0.5746,2.954-0.8269c1.6234-0.4152,3.2516-0.8322,4.8583-1.5602l0.0346-0.0088
		c0.6653-0.0603,1.3207-0.3098,2.0075-0.5712c0.669-0.2548,1.37-0.5216,2.1518-0.6432c1.2061-0.4413,2.4026-0.7342,3.5935-1.0256
		c1.1786-0.2883,2.353-0.5751,3.524-1.0049c-0.0244-0.0496-0.0751-0.0825-0.129-0.1038c-3.515,0.6648-6.7283-0.5578-10.0106-1.8071
		c-1.4695-0.559-2.9537-1.1242-4.4782-1.5239l-0.011-0.0034c-1.1755-0.4459-2.3522-0.8924-3.6819-1.2951l-0.0261-0.012
		c-0.3189-0.2015-0.6968-0.3415-1.0902-0.4872c-0.5346-0.1976-1.1004-0.4073-1.6192-0.8039
		c-1.5916-0.5119-2.9435-1.0236-4.4048-1.5769c-0.6185-0.2336-1.2577-0.4762-1.9366-0.726
		c-0.7078-0.1383-1.4372-0.4524-2.1935-0.7778c-0.8164-0.3509-1.6662-0.7163-2.541-0.8827h-0.0011
		c-0.2809-0.0561-0.5808-0.1451-0.8872-0.2358c-0.9902-0.2934-2.0608-0.6111-2.8276,0.1265l-0.0363,0.0232l-1.3765,0.5264
		c-1.0094,0.504-2.0832,0.9437-3.1771,1.3915c-0.8374,0.3424-1.688,0.6911-2.5336,1.0786l-0.0164,0.006
		c-1.465,0.3994-2.7621,0.9615-4.0703,1.5284c-1.4749,0.6392-2.9648,1.2852-4.729,1.7152L6.929,35.7767
		c-0.4326,0.0459-0.8807,0.1052-1.3363,0.1649c-1.548,0.2038-3.1924,0.4201-4.7699,0.1996L0.779,36.1245l-0.6891-0.4459
		l-0.0414-0.0501C0.0479,35.627,0,35.4835,0,35.3452l0.0026-0.0224c0.1128-0.5261,0.6418-0.8158,1.1095-1.0721
		C1.19,34.2082,1.2674,34.1654,1.351,34.117l0.0275-0.011c1.4595-0.3748,2.7609-1.0727,4.0637-1.7711
		c1.3581-0.7283,2.7193-1.4585,4.2755-1.8338l11.8244-5.0847l0.7061-2.5104c-0.3662-0.9334-0.7946-1.919-1.2628-2.9038
		c-0.4603-0.968-0.9584-1.9332-1.4737-2.8451l-0.0057-0.0102c-0.9306-2.1648-1.8731-4.4351-2.7626-6.7377
		c-0.8878-2.2983-1.7204-4.6222-2.4296-6.8927l-0.0357-0.1148l0.1179-0.0233c1.044-0.2047,2.099-0.2047,3.1524-0.0975h0.0006
		c1.0497,0.1072,2.0971,0.3206,3.1328,0.544l0.0635,0.0408c0.0768,0.1023,0.1378,0.2035,0.1962,0.3019
		c0.1247,0.2089,0.2435,0.4067,0.5026,0.5621l0.0318,0.0287c1.0171,1.3904,2.1143,2.7227,3.2255,4.0717
		c1.0655,1.2935,2.1441,2.6027,3.1742,3.9886c0.4524,0.4802,0.9207,1.0202,1.408,1.5826c1.6503,1.9026,3.5269,4.0663,5.7263,4.9955
		l0.0139,0.0074c0.9017,0.5465,1.6444,0.0836,2.3207-0.3379c0.2789-0.1738,0.5482-0.3413,0.8195-0.4377l0.7242-0.4023l0.0224-0.0094
		c0.4518-0.131,0.8844-0.3466,1.3187-0.563c0.762-0.3798,1.5336-0.7636,2.4812-0.7384c0.8144-0.0207,1.6724,0.0443,2.5019,0.1942
		c0.7937,0.1437,1.5627,0.366,2.2433,0.6662l0.0527,0.0504l0.2838,0.5675l0.0212,0.0422l-0.0162,0.0431
		c-0.1828,0.4961-0.6109,0.6922-1.0545,0.8946c-0.284,0.1299-0.5757,0.2634-0.7945,0.4822l-0.0318,0.0317h-0.0445
		c-0.0025,0-0.0128,0.034-0.0334,0.0703l0.0266-0.002v-0.0003c1.7033-0.1089,3.3619-0.3957,5.0108-0.6806
		c1.4054-0.243,2.8052-0.485,4.2284-0.616l0.0017-0.0006c1.3124-0.101,2.5767-0.3235,3.8404-0.546
		c1.2606-0.2214,2.5223-0.4439,3.8336-0.5462c0.328-0.2195,0.6358-0.2787,0.9819-0.3436c0.2194-0.0414,0.4555-0.0865,0.7203-0.1797
		l0.0085-0.0025c1.8465-0.487,3.7244-0.8932,5.6216-1.2481c1.8992-0.3555,3.8157-0.6599,5.7402-0.9434l0.0139-0.0008
		c0.8195-0.0156,1.6435-0.125,2.4715-0.2344c1.2881-0.1701,2.5886-0.3422,3.9248-0.1729c0.231-0.0785,0.445-0.0794,0.6738-0.0794
		c0.2208,0,0.4569-0.0002,0.7254-0.0768l0.0331-0.0039c0.4017,0.0147,0.7932-0.0202,1.1894-0.0553
		c0.6866-0.0612,1.3896-0.1239,2.1949,0.0578l0.0076,0.0023c1.6665,0.508,3.2408,1.0871,4.7577,1.7212
		c1.4978,0.6259,2.9438,1.3079,4.369,2.0293l4.5712-2.5662v0.0003l6.0363-3.6868l0.006-0.0034
		c0.3731-0.1961,0.7716-0.445,1.1945-0.7084c0.4357-0.2715,0.898-0.5601,1.3935-0.8286c0.5726-0.4073,1.1364-0.8112,1.6971-1.2123
		c1.7784-1.2719,3.5311-2.5262,5.4734-3.8517l0.0074-0.0045c0.3407-0.1928,0.6755-0.4079,1.012-0.6236
		c0.858-0.5505,1.737-1.1143,2.8497-1.41c1.6764-1.0091,3.5677-1.6018,5.5261-2.215c0.5686-0.178,1.1441-0.3582,1.698-0.5428
		l0.0164-0.0043c1.2404-0.2032,2.4517-0.356,3.6434-0.3765c1.195-0.0201,2.3715,0.0924,3.537,0.4196l0.0527,0.015l0.0193,0.0516
		l0.0337,0.0912c0.0434,0.114,0.0947,0.2483,0.0947,0.3918l-0.0153,0.0547c-0.8022,1.3552-1.8425,2.3142-2.9359,3.3214
		c-0.5213,0.4801-1.0556,0.9726-1.5783,1.5216l-0.028,0.021c-0.8784,0.46-1.6104,1.1347-2.3431,1.8105
		c-0.6684,0.616-1.3391,1.2342-2.1322,1.7022c-0.1109,0.1485-0.1894,0.2661-0.2676,0.3838l-0.0241,0.0255L111.907,20.5395
		c-0.0814,0.142-0.1834,0.3116-0.3065,0.4553c-0.1324,0.1542-0.2899,0.278-0.4748,0.3078
		c-0.1684,0.0814-0.2228,0.0567-0.2608-0.0176l-0.0002,0.0003c-0.0105-0.0198-0.0125-0.0309-0.0145-0.0445
		c0.0014,0.0088,0.0026,0.0249-0.0003,0.0249h-0.0661l-0.0301-0.0598c-0.1006-0.2015-0.0533-0.345-0.006-0.4872l0.0329-0.049
		l0.1457-0.1222l0.0003-0.0003c0.2089-0.1729,0.3832-0.3169,0.4725-0.5262l0.0575-0.0569c0.5179-0.2191,0.9777-0.4893,1.4173-0.8091
		c0.4416-0.3211,0.8643-0.6934,1.3065-1.1154l0.0077-0.0065c1.7462-1.3808,3.4818-2.751,5.2344-4.1196
		c1.7502-1.3669,3.5312-2.7431,5.381-4.1457c0.4615-0.4431,0.9377-0.8093,1.4187-1.1795c0.5769-0.4439,1.1622-0.8941,1.732-1.4848
		c0.174-0.2364,0.4062-0.4042,0.6313-0.5664c0.2072-0.1494,0.409-0.2951,0.5383-0.4796l0.0286-0.0284
		c0.9791-0.6463,1.9307-1.436,2.7969-2.2887c0.8989-0.8847,1.7076-1.8397,2.3644-2.7759c-0.0184-0.0077-0.0525-0.0229-0.112-0.0527
		c-1.438-0.3047-2.9594-0.3546-4.4884-0.205c-1.6736,0.1635-3.3585,0.5667-4.9572,1.1339c-0.1951,0.097-0.4406,0.1942-0.7109,0.3008
		h-0.0006c-0.4065,0.1604-0.8725,0.3447-1.3062,0.5856l-0.0145,0.0068c-0.4312,0.1635-0.8184,0.3436-1.2053,0.5233
		c-0.6661,0.3096-1.3351,0.6205-2.2291,0.8527c-0.368,0.2843-0.7501,0.521-1.1424,0.7634
		c-0.3742,0.2313-0.7585,0.4691-1.1526,0.7645l-0.0093,0.0063c-0.8943,0.5329-1.6906,1.1375-2.4797,1.7373
		c-0.8878,0.6744-1.7691,1.3442-2.7737,1.9021c-0.286,0.3456-0.6013,0.5103-0.9315,0.6829c-0.288,0.1508-0.5899,0.309-0.8878,0.6069
		l-0.0176,0.0139c-0.2038,0.1326-0.3969,0.267-0.5865,0.3994c-0.5698,0.3977-1.1239,0.7849-1.8822,1.0619
		c-0.3606,0.4019-0.771,0.6519-1.1954,0.9111c-0.2999,0.1831-0.6083,0.3716-0.9062,0.6199l-0.03,0.0176
		c-0.688,0.2662-1.3102,0.6871-1.9261,1.1035c-0.4893,0.3308-0.9763,0.6605-1.5007,0.9147
		c-0.6233,0.4901-1.3456,0.8478-2.0611,1.2021c-1.0292,0.51-2.0474,1.0154-2.7144,1.8927l1.7632,1.5333
		c0.9196,0.0861,1.8349,0.1692,2.7468,0.2511c5.0661,0.4572,10.0372,0.9068,15.1772,1.9338c0.9431,0.002,1.747,0.256,2.5242,0.5015
		c0.5012,0.1582,0.9922,0.3135,1.4936,0.3917l0.0518,0.0233c0.3504,0.2886,0.7121,0.6194,0.9868,0.9978
		c0.2727,0.3755,0.4603,0.7985,0.4708,1.273c0.188,0.1987,0.459,0.3645,0.7441,0.5392c0.1959,0.1202,0.4,0.2455,0.5916,0.3892
		l0.0071,0.0057c0.2129,0.1891,0.4005,0.4578,0.4779,0.7415h0.0006c0.0669,0.2458,0.0525,0.5032-0.0944,0.7345l-0.0522,0.0425
		l-0.2736,0.1058c-1.3589,0.5233-2.7691,1.0667-3.3967,2.433l-0.0208,0.0304c-1.2415,1.2821-2.6161,2.3615-4.087,3.3284
		c-1.4689,0.9655-3.0328,1.819-4.6562,2.651l-0.0108,0.0051c-2.3709,0.9042-4.9218,1.58-7.4985,2.0174
		c-2.6313,0.4467-5.2917,0.6449-7.817,0.584c-1.7671,0.1931-3.5521,0.3552-5.3368,0.5168
		c-3.7803,0.3421-7.562,0.6851-11.3091,1.3462h-0.0357c-1.3773-0.2256-2.6788,0.2594-4.0139,0.7574
		c-1.0273,0.383-2.0752,0.7739-3.2034,0.8643c-0.8405,0.3022-1.753,0.5029-2.6706,0.7047c-1.1707,0.2568-2.3522,0.517-3.3862,0.9887
		l-0.0181,0.0068c-0.7665,0.1951-1.5361,0.4005-2.3097,0.6072c-1.4664,0.3918-2.9511,0.7884-4.4978,1.135
		c-3.4376,1.1115-7.0288,1.8884-10.6171,2.6646c-3.4824,0.7532-6.9636,1.5064-10.2954,2.5637V51.378
		c-0.5301,0.1695-1.0378,0.2733-1.5571,0.3793c-0.4754,0.0966-0.9615,0.1961-1.4854,0.3512l-0.0096,0.0026
		c-1.6064,0.3163-3.2715,0.8382-4.9156,1.353c-1.0908,0.3413-2.1736,0.6809-3.2258,0.9558
		c-0.6035,0.1678-1.2132,0.394-1.8312,0.6228c-0.864,0.3204-1.7456,0.6474-2.6736,0.8377l-0.0071,0.0014
		c-0.54,0.0742-1.0494,0.2372-1.576,0.4053c-0.6078,0.1942-1.2402,0.396-1.9778,0.4845
		C18.625,57.0518,17.9932,57.0002,17.3701,56.9489L17.3701,56.9489z M15.5965,56.1127h1.1361
		c-0.3169-0.0833-0.6477-0.1437-0.9969-0.0703l-0.07-0.0093c-0.377-0.1885-0.7523-0.2307-1.1273-0.2727
		c-0.3265-0.0363-0.6537-0.0737-0.9958-0.2041c-1.04-0.1253-2.0302-0.1276-2.9704-0.0057L15.5965,56.1127L15.5965,56.1127z
		 M19.9452,55.7912c0.9278-0.2208,1.9221-0.4966,2.9217-0.7738c0.8595-0.2381,1.724-0.4785,2.5364-0.6818
		c0.8439-0.4632,1.8819-0.7225,2.8828-0.9728c0.8416-0.2101,1.6586-0.4144,2.298-0.7251l0.0278-0.0091
		c0.6951-0.1247,1.3388-0.3062,1.9792-0.4861c0.8065-0.2271,1.6095-0.4536,2.5138-0.5675c0.5306-0.1874,1.1001-0.3257,1.6625-0.4618
		c0.7589-0.184,1.5061-0.3657,2.1266-0.6644l0.0244-0.0085c1.7977-0.3852,3.5725-0.8348,5.3385-1.2821
		c2.6844-0.6797,5.3518-1.3555,8.0671-1.7966c0.4365-0.2055,0.8487-0.2769,1.2654-0.3489c0.4005-0.0689,0.807-0.1395,1.2373-0.3351
		l0.0232-0.0076c0.5329-0.1066,1.0318-0.2514,1.5231-0.3938c0.633-0.1837,1.2552-0.3642,1.9168-0.4566
		c0.5142-0.1896,1.0505-0.3345,1.5761-0.4762c0.5975-0.161,1.1823-0.3189,1.6926-0.5315l0.0179-0.0057
		c1.658-0.375,3.2502-0.8371,4.8166-1.2917c1.6481-0.4782,3.2686-0.9491,4.911-1.3022l0.4343-0.11
		c2.1991-0.5573,4.0983-1.0392,5.9904-1.9094l0.0221-0.0076c0.4952-0.1083,1.0114-0.2075,1.5358-0.3078
		c2.1665-0.4156,4.4926-0.862,5.9567-2.0769c-1.4414-0.7189-3.1552-0.8402-4.8943-0.9624c-1.1418-0.0799-2.295-0.1613-3.3976-0.4119
		c-5.0082,0.0023-9.8348,1.5244-14.6909,3.0554c-3.528,1.1123-7.0727,2.2303-10.7192,2.7774l-0.7121,0.3957l-0.0397,0.013
		c-0.4328,0.0519-0.841,0.2288-1.2583,0.4091c-0.5434,0.2353-1.1038,0.4774-1.7714,0.483
		c-1.0749,0.4915-2.1864,0.8178-3.3372,1.1552c-0.4564,0.1338-0.9193,0.2698-1.3958,0.4209l-0.0023,0.0006
		c-3.6573,1.0769-7.367,2.1212-11.0934,3.1323c-3.7242,1.0105-7.4812,1.993-11.2328,2.946
		c-1.2419,0.659-2.4091,1.1327-3.6422,1.6333l-0.1667,0.0677l-0.0023,0.0009c-0.3824,0.1457-0.76,0.2035-1.1089,0.2565
		c-0.4309,0.0655-0.8189,0.125-1.093,0.3359l-0.0624,0.0224c-0.6185,0.0204-1.1591,0.2622-1.6863,0.4975
		c-0.4884,0.2183-0.9672,0.432-1.499,0.4743c-0.1125,0.0405-0.2038,0.0703-0.2812,0.0955l-0.1182,0.038
		c1.4377-0.0898,2.7485,0.0142,4.1525,0.1253l0.167,0.0133l0.0397,0.011c0.3855,0.1925,0.7495,0.2231,1.1078,0.2523
		c0.3739,0.0306,0.7438,0.0609,1.1407,0.2633c0.779,0,1.6347,0.0046,2.183,0.3842l-0.0329,0.1054h0.0233
		c0.0227-0.0153,0.042-0.0202,0.042,0c0,0.0017,0.0042,0.0079,0.0108,0.017L19.9452,55.7912L19.9452,55.7912z M19.7957,55.7915
		l-0.0082,0.0264c0.0099-0.0096,0.0213-0.0193,0.0315-0.0264H19.7957L19.7957,55.7915z M116.7616,24.662
		c-0.2878,0.3305-0.5352,0.722-0.7449,1.1724c-0.2104,0.4516-0.3852,0.9655-0.5287,1.5398l-0.0031,0.0312
		c0.0209,0.4485,0.1712,0.8127,0.4062,1.1282v0.0005c0.2308,0.309,0.5432,0.5701,0.8961,0.8189l0.0121,0.0076
		c0.7268,0.3781,1.6212,0.3532,2.4313,0.3305c0.2682-0.0074,0.5273-0.0139,0.7674-0.0054
		c-1.0372,1.2742-2.2383,2.3196-3.5133,3.1839c-1.26,0.8543-2.5951,1.5338-3.9169,2.0837c0.0198-0.0386,0.0433-0.0782,0.072-0.1179
		c0.085-0.1182,0.2101-0.243,0.3838-0.3779l0.0287-0.0334c0.1698-0.3095,0.3589-0.6341,0.5511-0.9646
		c1.0715-1.8423,2.2657-3.8954,1.8116-6.2016l-0.0445-0.0681c-0.9077-0.6327-2.0971-0.9144-3.3098-1.2019
		c-0.6015-0.1423-1.2098-0.2868-1.7853-0.474h-0.0008c-0.9573-0.3055-1.976-0.591-3.0141-0.7687
		c-1.0409-0.1786-2.1033-0.2501-3.1459-0.1281c-0.3087,0.0028-0.449,0.1933-0.5754,0.3654l0.0003,0.0003l-0.0317,0.0428
		l-0.0215,0.0641c0,0.0661,0.0179,0.131,0.0417,0.1871v0.0003c0.0329,0.0765,0.0811,0.142,0.1117,0.1726l0.0388,0.0247
		c0.235,0.0879,0.3636,0.0105,0.4972-0.0709v-0.0003c0.0677-0.0408,0.138-0.0831,0.2282-0.0836
		c0.8861,0.0606,1.7626,0.1715,2.6521,0.3373c0.8901,0.1655,1.798,0.3878,2.7471,0.6704c0.4535,0.1616,0.913,0.2789,1.3654,0.3937
		c0.6412,0.163,1.2714,0.3237,1.8454,0.6049l-0.0609,0.1157c-0.4984,0.9402-1.1617,2.1906-0.4471,3.1833l0.0258,0.0253
		c0.1083,0.0759,0.2231,0.1423,0.3376,0.2083v0.0003c0.2932,0.1693,0.5905,0.3416,0.7365,0.6613
		c-0.4626,0.6375-0.7643,1.2492-1.1089,1.9485l-0.2024,0.4088c-1.6104,3.1306-5.5287,3.6136-9.286,4.0759
		c-1.2696,0.1562-2.522,0.3109-3.668,0.5647c-0.4408-0.1156-0.8742-0.0663-1.3303-0.0139c-0.3121,0.036-0.6372,0.0734-0.9774,0.0572
		l-0.036,0.0043c-0.1576,0.047-0.3112,0.0227-0.4717-0.0028c-0.2197-0.0354-0.4533-0.0723-0.7535,0.0329
		c-0.6693-0.2319-1.3708-0.1089-2.0619,0.0125c-0.584,0.1023-1.1617,0.2035-1.6832,0.0779l-0.0397-0.0023l-5.9193,0.7787
		l-0.5281,0.0715c-0.0516-0.0236-0.1017-0.0411-0.1474-0.0562v0.0003c-0.0286-0.0096-0.0547-0.0179-0.0768-0.0269
		c0.2968-0.2273,0.587-0.4754,0.813-0.767c0.2565-0.3314,0.428-0.7177,0.428-1.1906v-0.0445l-0.0317-0.0317
		c-0.1284-0.1284-0.2574-0.2574-0.4019-0.3076v-0.0003c-1.976-0.7739-4.0836-1.1713-6.2308-1.3748
		c-2.1467-0.2033-4.3268-0.2137-6.4554-0.2137l-0.0363,0.0062c-0.4606,0.1644-0.9536,0.2347-1.4507,0.3047
		c-0.7152,0.1009-1.4409,0.2044-2.1195,0.5876c-0.9337,0.239-1.8453,0.5173-2.7459,0.7923
		c-0.7523,0.2293-1.4978,0.4572-2.2689,0.6639L64.8,37.8814c-0.6043,0.2619-1.2801,0.4348-1.9596,0.6083
		c-0.6588,0.1686-1.3224,0.3387-1.9423,0.5953c-1.116-0.1899-2.2515-0.2092-3.3919-0.2271
		c-1.9573-0.0312-3.9325-0.0635-5.8317-0.9748l-0.0312-0.0099c-0.2591-0.0369-0.451-0.1403-0.6364-0.2401
		c-0.2092-0.1128-0.4121-0.2214-0.6967-0.2458c-0.4218-0.1205-0.794-0.2313-1.1472-0.3458
		c-0.3592-0.1165-0.7021-0.2376-1.0633-0.3778l-0.019-0.0057c-0.3518-0.0658-0.7203-0.1944-1.1274-0.3362
		c-0.3316-0.1156-0.6899-0.2406-1.0936-0.3506l-0.0284-0.0042c-0.4354,0-0.7787-0.1726-1.1418-0.3555
		c-0.3189-0.1607-0.6537-0.3291-1.0842-0.4079c-0.3152-0.2228-0.7092-0.316-1.1169-0.4116
		c-0.4045-0.0949-0.8257-0.1938-1.1775-0.4283l-0.0286-0.013c-0.4193-0.1273-0.7679-0.2908-1.1132-0.4525
		c-0.4124-0.193-0.8218-0.3846-1.3504-0.5185c-0.8805-0.4972-1.8913-0.8283-2.9101-1.1616c-0.5751-0.1882-1.1534-0.377-1.709-0.5964
		c1.0457-0.0275,2.0871,0.0623,3.1479,0.1542c0.6885,0.0601,1.387,0.1211,2.111,0.1505c1.751,0.2081,3.5065,0.3342,5.2716,0.4612
		c2.3669,0.1703,4.7534,0.3424,7.1654,0.7135c1.1798,0.1794,2.2428,0.0865,3.3228-0.0079c0.6401-0.0558,1.2869-0.1126,1.963-0.1126
		l0.0017-0.0002c0.9156-0.017,1.8068,0.0326,2.6963,0.0819c1.1883,0.0663,2.3752,0.1327,3.6295,0.0399
		c0.3688-0.0002,0.7563-0.0297,1.156-0.0601c0.8331-0.0632,1.7237-0.1309,2.5872,0.0576l0.0227,0.0025
		c5.8124,0,11.6399-0.0981,17.4614-0.2843c6.0242-0.1927,12.0359-0.4802,18.013-0.851l0.042-0.011
		c0.1341-0.0666,0.1035-0.1735,0.0737-0.2789l-0.0002-0.0003c-0.0065-0.0233-0.0136-0.0473-0.0136-0.0607v-0.1029l-0.1034-0.0049
		c-1.7853-0.0811-3.6023-0.0811-5.4286-0.0354c-0.813,0.0204-1.6268,0.0505-2.4409,0.0856c2.3443-0.18,4.72-0.153,7.0952-0.1253
		c2.1322,0.0252,4.2647,0.0504,6.37-0.0743l0.036-0.0085c0.2078-0.0891,0.3693-0.2501,0.5173-0.3983
		c0.0689-0.0689,0.1358-0.1355,0.197-0.1845l0.0406-0.0323v-0.0516c0-0.066-0.0179-0.131-0.0417-0.1871v-0.0003
		c-0.0329-0.0765-0.0811-0.142-0.1117-0.1726l-0.0391-0.0249c-0.8546-0.3149-1.7348-0.2534-2.6439-0.1902
		c-0.7552,0.0527-1.5324,0.1069-2.3168-0.0572l-0.002-0.0006c-1.7291-0.3254-3.4696-0.4475-5.229-0.4373
		c-1.7567,0.0099-3.5334,0.1525-5.3379,0.3549c-2.3414,0.0377-4.5905,0.1698-6.8281,0.301
		c-2.6133,0.1536-5.2126,0.3065-7.9186,0.3065c-0.6225-0.0372-1.1926,0.0213-1.7536,0.0782H76.911
		c-0.6429,0.0654-1.2756,0.1301-1.9621,0.0442l-0.0088-0.0006c-1.4789-0.0607-3.0096-0.1216-4.5644-0.1318
		c-1.5497-0.0102-3.1221,0.0306-4.6848,0.1724c-2.0398,0.0207-4.0649-0.123-6.0732-0.2654
		c-1.847-0.1309-3.6805-0.2614-5.5066-0.2619c-1.425-0.2795-2.9923-0.2503-4.6018-0.2203
		c-1.8771,0.0352-3.8143,0.0715-5.6378-0.3844l-0.0306-0.0031c-2.327,0.1043-4.6752-0.1978-7.0288-0.5006
		c-1.2881-0.1655-2.5787-0.3319-3.8622-0.4317l-0.4337-0.0525c-1.8768-0.2279-3.7516-0.455-5.5973-0.2341
		c-0.0425-0.019-0.0851-0.0346-0.1245-0.0482v-0.0003c-0.0785-0.0278-0.1497-0.0527-0.1899-0.1123
		c0.0025-0.1964,0.0318-0.4079,0.061-0.6168c0.0785-0.5646,0.1559-1.1194-0.2585-1.5017l-0.0204-0.0147l-0.1899-0.1052
		c-1.1038-0.6117-2.2561-1.2498-3.6944-1.1716c-0.0113-0.1924-0.0079-0.392,0.0156-0.587c0.0244-0.2007,0.07-0.3966,0.1389-0.5749
		l0.4261-0.3872l0.0567-0.0513l-0.03-0.0706l-2.287-5.3629h3.2012l0.0728-0.0284c0.2528-0.2336,0.4952-0.4088,0.7489-0.4995v-0.0005
		c0.2461-0.0882,0.508-0.0972,0.8082-0.0034l0.0805-0.0068c0.0507-0.0255,0.1125-0.0742,0.1596-0.1213
		c0.0445-0.0446,0.0811-0.0947,0.0958-0.1383l0.0581-0.1307c0.1159-0.2503,0.2222-0.481,0.1021-0.7614l-0.0207-0.0488
		l-0.0519-0.0133l-1.1999-0.3076l0.5953-0.1738l0.0451-0.013l0.021-0.0422c0.0522-0.1046,0.0524-0.1959,0.0524-0.332l-0.0034-0.026
		c-0.0261-0.1043-0.1208-0.2158-0.2319-0.299c-0.1142-0.0856-0.2531-0.1477-0.3592-0.1477h-0.7702h-0.0445l-0.0317,0.0317
		c-0.0723,0.0723-0.1284,0.1137-0.1695,0.1434H23.98l-0.0405,0.0309l-4.4651,0.3952L15.1795,3.9535
		c0.5445-0.0114,1.0837,0.0238,1.6299,0.0598c0.4884,0.0326,0.9825,0.0652,1.493,0.0655c2.2419,0.2605,3.3378,1.8763,4.4549,3.5237
		c0.6103,0.9,1.2277,1.8099,2.0424,2.526c0.8419,0.8889,1.62,1.8779,2.4166,2.8904c0.576,0.7322,1.1628,1.4778,1.7923,2.2096
		l0.0094,0.0096c0.5757,0.5247,1.0925,1.0795,1.5962,1.6206c1.0916,1.1724,2.1283,2.2859,3.6082,2.9321
		c0.7611,0.5933,1.7181,0.6347,2.6674,0.6752c0.7549,0.0323,1.5058,0.0646,2.1232,0.3821l0.0578,0.0119l0.3433-0.0278
		c1.4434-0.1182,3.0486-0.2491,4.2236,0.3013l0.0439,0.0207l0.0439-0.019c0.8084-0.3464,1.694-0.3977,2.6073-0.4507
		c0.6667-0.0383,1.3487-0.0779,2.0353-0.2325l0.004-0.0008c1.472-0.3924,2.9169-0.5769,4.3577-0.7603
		c0.9323-0.1188,1.8638-0.2379,2.8018-0.4122c1.4471-0.1114,2.8108-0.358,4.1754-0.6041c1.1177-0.2015,2.2374-0.4037,3.4038-0.5312
		l0.0224-0.0051c0.4074-0.1355,0.8586-0.2373,1.3272-0.3421c0.6284-0.1409,1.2903-0.29,1.9423-0.5437
		c0.2163-0.004,0.4082-0.0745,0.6145-0.1502v-0.0003c0.2274-0.083,0.4754-0.1737,0.7844-0.1737l0.0269-0.0037
		c1.3862-0.3629,2.7513-0.565,4.0666-0.7594c0.2979-0.0436,0.5973-0.0879,0.86-0.1281c0.3643,0.019,0.6894-0.0575,1.0264-0.1366
		c0.3095-0.0723,0.6304-0.1477,0.9921-0.1477l0.0102-0.0008c0.8189-0.0789,1.6398-0.1741,2.4687-0.2696
		c3.3565-0.3883,6.8601-0.7929,9.9215-0.1173l-2.5769,0.6619l-0.0071,0.0023c-0.1726,0.0576-0.2222,0.2053-0.271,0.3521
		l-0.0059,0.0338v0.2838l0.0059,0.0337c0.0128,0.0385,0.0261,0.0777,0.0406,0.1145c-0.3793-0.0408-0.7696-0.055-1.1415-0.0122
		c-0.4584,0.0527-0.8927,0.1908-1.2541,0.4674l-0.0147,0.0136c-0.2789,0.3101-0.6636,0.5573-1.0559,0.8096
		c-0.6219,0.4-1.2651,0.8138-1.5965,1.5279L79.287,19.696l-0.0406,1.4998l0.0057,0.0372l0.1304,0.3849
		c0.722,2.1339,1.4026,4.1462,2.5589,5.8034l0.0303,0.0292c0.1312,0.0833,0.2528,0.1985,0.3767,0.3155l0.0003-0.0003
		c0.2905,0.275,0.5967,0.5638,1.1341,0.5936h0.0153c1.1818-0.1026,1.8828-0.7061,2.6051-1.3281l0.0003,0.0003
		c0.4371-0.3762,0.883-0.7606,1.4454-1.0341l0.015-0.009c0.2401-0.1715,0.5378-0.3002,0.8439-0.4329l0.0003,0.0005
		c0.4056-0.1746,0.8285-0.3577,1.1815-0.6602c0.6633-0.3308,1.3805-0.6633,2.1129-0.9731c0.6868-0.2903,1.3898-0.5629,2.0766-0.7982
		v-0.0003c0.1945-0.066,0.1945-0.3109,0.1945-0.5071c0-0.1103-0.0513-0.2174-0.1534-0.3195
		c-0.0805-0.0805-0.1805-0.1324-0.2729-0.1797c-0.0848-0.0439-0.1619-0.0833-0.1812-0.1253
		c0.0014-0.0335,0.0065-0.0663,0.0136-0.0941c1.4845,0.5669,2.8834-0.2123,4.028-0.8495c0.1355-0.0757,0.2684-0.1488,0.3931-0.216
		c0.0434,0.0266,0.0927,0.0723,0.142,0.1182c0.0519,0.0482,0.1041,0.0975,0.1599,0.1344l0.0595,0.0181h0.9278
		c1.7036,0.1902,3.4327,0.3354,5.1743,0.481c3.6422,0.3051,7.344,0.6163,10.8638,1.3408c-0.1414-0.0255-0.2834-0.0513-0.4249-0.0751
		c-1.2371-0.2086-2.4698-0.3413-3.6102-0.3413h-0.0771l-0.025,0.0737c-0.0241,0.072-0.0362,0.1457-0.0362,0.2066
		c0,0.0779,0.0204,0.146,0.0621,0.1877l0.0107,0.0093c0.7115,0.544,1.7739,0.5885,2.7573,0.6293h0.0025
		c0.4437,0.1618,0.9284,0.2398,1.4063,0.3167c0.6557,0.1051,1.3,0.2095,1.7799,0.5281c-0.0323,0.0311-0.0638,0.0555-0.091,0.0771
		l-0.0002,0.0006L116.7616,24.662L116.7616,24.662z M113.7852,23.6157h-0.0002H113.7852L113.7852,23.6157z M2.1098,35.3594
		c3.4518,0.1418,6.7484-1.1191,9.9215-2.3329c1.2283-0.47,2.4392-0.9331,3.6388-1.3071c0.9743-0.5956,2.0976-1.0108,3.2261-1.4278
		c0.9476-0.3498,1.9006-0.7024,2.7661-1.1625l0.0297-0.0108c0.6888-0.1378,1.222-0.396,1.7482-0.6511
		c0.3892-0.1888,0.7764-0.3761,1.2209-0.5148c0.1463-0.1171,0.3078-0.2143,0.4638-0.3079c0.2993-0.1788,0.5788-0.3456,0.6554-0.6202
		V26.803c-0.2412-0.1897-0.5349-0.3268-0.8243-0.4612c-0.2673-0.1239-0.5318-0.2463-0.7605-0.4113
		c-3.0821,0.2608-5.8802,1.5355-8.6295,2.7878c-1.1928,0.5432-2.3777,1.0832-3.5688,1.5336
		c-0.0609,0.0411-0.1148,0.0805-0.1582,0.1128v-0.0003c-0.1207,0.0907-0.1837,0.1389-0.3192,0.1434l-2.0066,0.8428v-0.0003
		l-8.0393,3.8432L2.1098,35.3594L2.1098,35.3594z M59.5729,32.1973l2.2329-0.0349l-2.395-0.0261
		c0.0275,0.0167,0.055,0.0366,0.0825,0.0607h0.0797V32.1973L59.5729,32.1973z M73.1262,32.1693l15.4406-0.4065
		c-1.1585-0.0459-2.3259-0.0184-3.4997,0.0102c-0.9247,0.0227-1.8547,0.0453-2.7899,0.0317
		c-1.6019,0.167-3.1323,0.1936-4.6749,0.2203c-1.0721,0.0184-2.1509,0.0374-3.2684,0.104l-0.0158-0.0005
		C73.9038,32.0896,73.5114,32.1202,73.1262,32.1693L73.1262,32.1693z M51.2286,32.0757l2.1047-0.0258l-0.5003-0.0833l-5.6707-0.3472
		L51.2286,32.0757L51.2286,32.0757z M35.5184,30.5915c-1.4879-0.1703-2.9806-0.3041-4.4872-0.3248
		c1.002,0.2602,2.1158,0.2767,3.2462,0.2937C34.6901,30.5665,35.1051,30.5734,35.5184,30.5915L35.5184,30.5915z M68.5392,29.1694
		c-0.2162,0.1584-0.4697,0.2747-0.701,0.3589l-0.0346,0.0068h-0.0425l-0.0499-0.0122c-0.3694-0.1924-0.809-0.2471-1.2328-0.299
		c-0.6367-0.0785-1.2427-0.1537-1.6024-0.6675l-0.0179-0.0406c-0.025-0.1255-0.0689-0.2004-0.1179-0.2835l-0.0006-0.0002
		c-0.0232-0.04-0.0485-0.0822-0.0748-0.1355l-0.0102-0.0615c0.0867-0.6517-0.0695-1.2285-0.2259-1.8074h-0.0003
		c-0.1304-0.4807-0.2614-0.9641-0.2614-1.5026l0.0034-0.0258l0.0076-0.0312v-0.0003c0.1267-0.5074,0.2616-1.0477,0.8005-1.1823
		l0.0108-0.0023l2.7969-0.4053l0.0567,0.0074l0.9728,0.4053l0.0425,0.0179l0.0164,0.0425c0.4805,1.2319,0.3725,2.4114,0.2619,3.6096
		c-0.0405,0.441-0.0816,0.8853-0.0924,1.3368l-0.0057,0.0312C68.9496,28.796,68.7628,29.0058,68.5392,29.1694L68.5392,29.1694z
		 M52.8052,28.5939l-1.7025,0.7296l-0.0457,0.0199l-0.0448-0.0224c-0.1758-0.0876-0.3699-0.1261-0.5618-0.1636
		c-0.3308-0.0649-0.6573-0.129-0.9289-0.428l-0.0105-0.0139c-0.2418-0.3739-0.4377-0.9309-0.5258-1.5001
		c-0.0799-0.517-0.072-1.0494,0.068-1.4703l0.0199-0.0587l0.0598-0.013l2.4727-0.527l0.0706,0.0094l1.0539,0.5269l0.0431,0.0216
		l0.0125,0.0462l0.0079,0.0289c0.2463,0.9043,0.5253,1.9279,0.0638,2.7672L52.8052,28.5939L52.8052,28.5939z M60.5625,28.4641
		c-1.1211,0.7058-2.6382,0.7061-3.8676,0.7061l-0.0278-0.0037l-1.1392-0.3068l0.0054-0.0881
		c0.0317-0.4938-0.1009-0.9967-0.2316-1.4933c-0.199-0.7568-0.3954-1.5021-0.0414-2.2354l0.0561-0.0527
		c0.6999-0.288,1.5214-0.4425,2.3715-0.5244c0.8487-0.0817,1.7223-0.0922,2.5336-0.0922l0.0338,0.006
		c0.2078,0.0692,0.4048,0.1882,0.5448,0.3365c0.1338,0.1417,0.2186,0.3118,0.2186,0.4952l-0.0037,0.0278
		c-0.1103,0.4107-0.0862,0.8625-0.0626,1.3065c0.0366,0.6859,0.0729,1.3569-0.3634,1.8955L60.5625,28.4641L60.5625,28.4641z
		 M118.4738,28.8309l2.1566-0.3594l2.5534-1.1052c-0.6783-0.637-1.6265-1.1965-2.5707-1.7521
		c-0.2872-0.169-0.5743-0.3379-0.8439-0.5026c-0.2143-0.0363-0.4116-0.0825-0.6004-0.1262c-0.4328-0.1-0.8203-0.1893-1.2138-0.1193
		l-0.6953,0.6954c-0.1891,0.3217-0.4292,0.7492-0.5652,1.1982l0.0028-0.0042c0.0774-0.0774,0.163-0.1117,0.233-0.1117l0.0615,0.0199
		l0.3634,0.2542c0.1069-0.0397,0.1667-0.114,0.2217-0.1814l0.0005-0.0003c0.0797-0.0972,0.1531-0.1865,0.3078-0.2123l0.0567,0.006
		l1.2523,0.4847c0.3657,0.0969,0.8218,0.0034,1.2626-0.087c0.6083-0.1253,1.192-0.2455,1.5732,0.1102l0.0346,0.0323v0.0465
		c0,0.2279-0.0731,0.3456-0.2185,0.3512l-2.6629,0.6052l-0.0235,0.0028h-0.5675l-0.0408-0.0085l-0.6628-0.2729l-0.9862,0.1185
		l-0.0887,0.0108l-0.0269-0.0854l-0.1902-0.6023c-0.032,0.3308,0.0195,0.6588,0.2177,0.9513c0.176,0.21,0.2542,0.2571,0.4192,0.356
		l-0.0002,0.0002l0.0198,0.0119L118.4738,28.8309L118.4738,28.8309z M79.4415,28.1565l-5.3507,0.3243l-0.0399-0.0057l-2.0673-0.6891
		l-0.0445-0.0147l-0.0195-0.0422c-0.3019-0.6545-0.2872-1.3138-0.2727-1.9783c0.0096-0.4297,0.0193-0.8631-0.0598-1.2903
		l-0.0003-0.0378c0.0471-0.2667,0.0437-0.551,0.0408-0.8314c-0.0049-0.4408-0.0096-0.8765,0.1704-1.2632l0.0207-0.0439l0.047-0.0139
		l0.0392-0.0113c1.5528-0.4496,3.6207-1.0477,5.1038-0.3476l0.0403,0.0329l0.9728,1.2971l0.0215,0.0715
		c-0.0606,0.9346,0.3929,1.6265,0.8416,2.3114c0.4323,0.659,0.8611,1.3133,0.8611,2.1812v0.0445l-0.0317,0.0318
		c-0.0286,0.0286-0.0664,0.0626-0.097,0.0901l-0.0003,0.0006c-0.0456,0.0408-0.0737,0.0663-0.0737,0.0763v0.1017L79.4415,28.1565
		L79.4415,28.1565z M39.1955,19.9148c1.4845,0,3.049,0.0003,4.6284,0.0403l0.5922-0.2574c0.8033-0.3478,1.6072-0.6959,2.2173-1.0443
		c0.0397-0.1097,0.1077-0.1536,0.1874-0.2043v-0.0003l0.0159-0.0094c-0.9388-0.7444-2.5197-0.7934-3.8517-0.8336
		c-0.2608-0.008-0.5131-0.0151-0.7435-0.0273c-0.5139,0.1979-1.0202,0.3958-1.489,0.6024c-0.4666,0.2058-0.8881,0.4161-1.226,0.6349
		l-0.0096,0.0057l-1.6291,0.8319L39.1955,19.9148L39.1955,19.9148z M20.5081,16.3017l0.0916-0.0218h-0.1397L20.5081,16.3017
		L20.5081,16.3017z"/>
</g>
</svg>
