<?xml version="1.0" encoding="utf-8"?>
<!-- Generator: Adobe Illustrator 21.1.0, SVG Export Plug-In . SVG Version: 6.00 Build 0)  -->
<svg version="1.1" xmlns="http://www.w3.org/2000/svg" xmlns:xlink="http://www.w3.org/1999/xlink" x="0px" y="0px"
	 viewBox="0 0 146.8414 44.4743" enable-background="new 0 0 146.8414 44.4743" xml:space="preserve">
<g>
	<path fill="none" stroke="#231F20" stroke-width="0.3769" d="M84.3453,29.5816c-1.7549,0.084-10.9492-0.083-15.8808-1.0029
		c-4.9317-0.9189-12.7046-2.5068-15.045-3.0088c-2.3403-0.501-4.3466-1.1699-4.3466-1.1699s-0.167,0.501-0.5015,0.9189
		c-0.334,0.418-0.167,0.92-2.5073-0.167c-2.3404-1.0869-2.8418-1.5039-2.8418-1.5039s-2.8418,0-3.8448-0.1679
		c-1.0029-0.167-3.0927-1.7549-3.8447-2.5069c-0.7524-0.7529-3.6777-3.4277-3.6777-3.4277s-2.4243-2.0889-3.3438-2.9248
		c-0.9194-0.8359-2.0893-3.3438-2.0893-3.6777c0-0.334-0.1675-5.2657,3.7612-5.5166c3.9282-0.251,12.6211-0.167,12.6211-0.167
		s4.5972-3.0928,8.6929-4.0957c4.0952-1.003,10.2807-1.3374,14.5434-0.5015s12.2871,3.8452,15.7139,6.1011
		c3.4268,2.2568,14.9609,9.0273,14.9609,9.0273s12.6211,5.7676,16.1319,6.8535c3.5107,1.0869,7.5224,1.8389,7.5224,1.8389
		s-0.4179,1.8389-1.0029,3.2598c-0.585,1.4218-0.668,3.5947-4.1787,3.4277C111.6773,31.0035,84.3453,29.5816,84.3453,29.5816z"/>
	<path fill="none" stroke="#231F20" stroke-width="0.3769" d="M103.068,17.0445c1.3379,0.251,3.8447,0.251,5.6836-0.084
		c1.8388-0.3339,3.2597-1.1699,4.1797-2.1728c0.9189-1.0029,7.1044-10.0303,7.1044-10.0303s1.4209-1.6709,2.9248-1.5879
		c1.5049,0.084,4.5977,1.0869,4.5977,1.0869l-7.1885,20.2266c0,0-7.6054-2.0889-10.0302-2.8418
		c-2.4239-0.7519-13.8741-6.1846-13.8741-6.1846s4.7637,1.2539,5.6836,1.4209C103.068,17.0445,103.068,17.0445,103.068,17.0445z"/>
	<path fill="#FFFFFF" stroke="#231F20" stroke-width="0.3769" d="M111.2594,24.233c0,0-0.9199-0.168-1.5049-0.418
		c-0.585-0.2509-0.334-1.0029,0.7529-0.8359c1.086,0.167,23.5703,5.4326,23.5703,5.4326l5.1817,1.5879c0,0-2.8418,0.251-4.3457,0
		c-1.5049-0.25-3.0928-1.0859-3.0928-1.0859L111.2594,24.233z"/>
	<path fill="none" stroke="#231F20" stroke-width="0.3769" d="M27.6759,13.7848L0.6783,4.3394c0,0-1.2539-0.9189,0.2505-0.9189
		s7.1045,0.752,7.1045,0.752s-0.167-0.167,0.251,0.3349c0.4179,0.501,4.6806,1.7549,4.6806,1.7549l13.5406,4.3467
		c0,0,0.167,0.6679,0.4179,1.4209C27.1744,12.7818,27.6759,13.7848,27.6759,13.7848z"/>
	<path fill="none" stroke="#231F20" stroke-width="0.3769" d="M69.3004,28.5787c0,0-4.5137-1.0859-5.9346-1.6709
		c-1.4209-0.5859-1.9223-3.0928-1.0029-3.9287c0.9194-0.8359,4.5967-1.2539,7.6064-1.0029c3.0088,0.25,8.1075,1.9218,11.4502,3.0927
		c3.3438,1.17,10.4483,2.5069,13.1231,2.9248c2.6748,0.418,43.7138,7.5225,43.7138,7.5225s5.0987,0.8359,6.2696,1.0029
		c1.1699,0.168,2.2558,0.335,2.2558,0.335s-3.0088,1.0029-6.6025,0.668c-3.5938-0.334-8.6924-1.253-8.6924-1.253
		s-50.0674-7.3554-50.6523-7.3554c-0.585,0-4.6807-0.084-6.4356-0.167C72.6432,28.6627,69.3004,28.5787,69.3004,28.5787z"/>
	<path fill="none" stroke="#231F20" stroke-width="0.3769" d="M78.2438,29.5816l-0.418-0.5849c0,0,2.6748-0.25,3.0088-0.083
		c0.3349,0.167,0.6689,1.1699,0.6689,1.1699l1.9229,6.2685c0,0-1.0869-0.2509-1.8389-0.2509c-0.7529,0-0.7529,0-0.7529,0
		L78.2438,29.5816z"/>
	<path fill="none" stroke="#231F20" stroke-width="0.3769" d="M80.2496,36.2691c-0.8359,0.25-1.5879,0.668-2.0058,1.253
		c-0.418,0.5859-0.752,1.6718-0.585,2.5078c0.167,0.8359,0.9199,1.1699,1.8389,1.5879c0.9189,0.4179,2.9248,1.0869,4.8476,1.4209
		c1.9229,0.3349,3.4268-0.083,4.8477-0.418c1.4209-0.334,2.9258-0.585,2.9258-0.585l0.5849-1.8388c0,0-0.084,0.084-2.0898-0.919
		c-2.0059-1.0029-3.0928-2.0068-4.5137-2.3408c-1.4209-0.334-3.1758-0.8359-3.9277-0.8359
		C81.4195,36.1012,80.2496,36.2691,80.2496,36.2691z"/>
	<path fill="none" stroke="#231F20" stroke-width="0.3769" d="M42.0519,25.5699c0,0-2.0059-0.167-2.7579-0.083
		c-0.7524,0.083-1.8388,0.668-2.1733,1.1699c-0.3345,0.501-0.585,1.8389-0.585,1.8389l3.9283,1.7549l-0.0835,0.8359
		c0,0,3.8447,0.836,4.3462,0.836c0.5014,0,2.0898-0.084,2.8418-0.334c0.7524-0.251,1.8388-0.502,2.3403-0.502s0.5015,0,0.5015,0
		l1.0029-1.3369c0,0-1.5879-0.5859-3.1758-1.5049c-1.5884-0.9189-2.1733-1.5049-2.1733-1.5049L42.0519,25.5699z"/>
	<path fill="#FFFFFF" stroke="#231F20" stroke-width="0.3769" d="M44.9776,24.734l-1.5883,1.1699c0,0-1.2535,0.168-1.2535,0.5859
		c0,0.418,0.4175,0.836,1.003,1.086c0.5849,0.251,1.5879,0.251,2.0893,0.251c0.5015,0,0.5015,0,0.5015,0v-0.669l1.2539-1.5039
		L44.9776,24.734z"/>
	<path fill="#FFFFFF" stroke="#231F20" stroke-width="0.3769" d="M38.0401,20.7223c0,0,1.0865,0.0839,1.4209,0.5019
		c0.3345,0.417,0.3345,0.752,0.3345,0.752l-9.5288,4.8476c0,0-0.7524,0.167-1.1699,0.502c-0.418,0.334-0.418,0.334-0.418,0.334
		l-1.3374,0.083c0,0,0.334-0.919,1.4209-1.5039C29.8487,25.6539,38.0401,20.7223,38.0401,20.7223z"/>
	<path fill="none" stroke="#231F20" stroke-width="0.3769" d="M26.589,28.4117c0,0-0.418,0.669-0.5015,1.5879
		c-0.0835,0.9199,0,1.3379,0.418,1.5889c0.4179,0.25,2.4238,0.8359,3.4267,1.2529c1.0034,0.418,2.4243,0.168,4.9317-0.25
		c2.5073-0.418,2.7583-0.9199,3.5107-0.9199c0.752,0,1.9224-0.167,1.9224-0.167l0.167-1.2539c0,0-2.6748-1.5879-4.2627-2.0899
		c-1.5884-0.5009-3.7613-1.0029-5.0152-1.0859c-1.2539-0.084-2.0893,0.251-2.0893,0.251l-1.7554,0.417L26.589,28.4117z"/>
	<path fill="#231F20" d="M28.3443,32.8414l-0.167-0.585l2.4239,0.836l2.8418-0.167c0,0-0.7525,1.5049-3.1763,1.1699
		C27.8429,33.7613,28.3443,32.8414,28.3443,32.8414z"/>
	<path fill="#231F20" d="M39.628,31.6715l0.669-0.167l0.0835-0.418l4.0117,0.919c0,0-0.6685,1.2539-2.5908,1.1709
		C39.879,33.0924,39.628,31.6715,39.628,31.6715z"/>
	<path fill="#231F20" d="M80.5006,42.1197c0,0,1.9219,0.669,2.5908,0.836c0.669,0.1669,2.4238,0.3339,2.4238,0.3339
		s-0.4179,1.5879-2.8418,1.087C80.2496,43.8746,80.5006,42.1197,80.5006,42.1197z"/>
	<path fill="#231F20" d="M35.1983,8.8531c0.8355,0.167,1.2535,0.752,1.0865,1.3379c-0.167,0.585-0.585,0.919-1.3374,0.752
		c-0.7525-0.167-1.0865-0.418-0.836-1.17C34.3624,9.0201,35.1983,8.8531,35.1983,8.8531z"/>
	<path fill="#231F20" d="M73.9811,26.6568c0,0-0.418-0.8359-0.167-1.0029c0.2509-0.167,1.0869-0.335,1.5879-0.251
		c0.5009,0.084,48.3115,8.0244,48.3115,8.0244s-0.334,0-0.334,0.417c0,0.418,0.334,0.753,0.334,0.753L73.9811,26.6568z"/>
	<path fill="#231F20" d="M4.6065,5.7603c0,0,0.167-0.6679,0.5015-0.6679c0.3345,0,0.7525,0,0.7525,0l21.3974,7.5224l0.418,1.17
		L4.6065,5.7603z"/>
	<path fill="#231F20" d="M59.8551,9.856c-1.8389-1.0029-7.0205-3.4267-9.6953-3.9277c-2.6748-0.5019-4.3462-0.9199-5.0152-1.0039
		c-0.6684-0.083-1.6718-0.167-1.6718-0.167s5.1826-3.0923,6.3525-3.2593c1.1704-0.1674,4.2627-1.2539,5.4331-1.1704
		c1.1699,0.0835,1.7549,0,2.8418,0.251c1.0864,0.2505,5.1821,1.5044,6.2686,1.9219c1.0869,0.4179,1.7553,1.0869,1.7553,2.0068
		c0,0.919-0.5849,2.5908-1.2539,4.2627c-0.6684,1.6709-1.1699,2.5068-2.0058,2.5068c-0.836,0-1.1705-0.25-1.8389-0.6679
		C60.357,10.191,59.8551,9.856,59.8551,9.856z"/>
	<path fill="#231F20" d="M66.6256,11.2769c0,0,1.5879-3.4267,1.8389-4.6806c0.2509-1.2539,0.2509-1.5879,0.2509-1.8389
		c0-0.25,0.836-0.501,1.3369-0.501c0.502,0,4.2637,0.668,5.3497,1.086c1.0869,0.4179,2.1728,1.2539,1.8388,2.6748
		s-1.5879,4.5976-1.9228,5.2656c-0.334,0.669-0.501,1.0039-1.9219,0.9199s-5.2656-1.3369-6.1016-1.5049
		C66.4586,12.5309,66.6256,11.2769,66.6256,11.2769z"/>
	<path fill="#231F20" d="M77.7428,13.4508c0,0,1.4199-3.4278,1.6709-4.2627c0.251-0.836,0.167-1.2539,0.167-1.5049
		s1.2539,0,3.0097,1.0029c1.7549,1.003,3.3428,2.0059,3.8448,2.8418c0.5009,0.836,0.6679,2.0059,0.083,3.1758
		c-0.585,1.1709-0.836,1.2539-2.6739,1.2539c-1.8398,0-3.8457-0.334-4.7646-0.418c-0.9199-0.083-1.4209-0.3339-1.5879-1.0029
		C77.3248,13.8687,77.7428,13.4508,77.7428,13.4508z"/>
	<path fill="#231F20" d="M40.5475,11.6119c0,0,23.4868,4.4297,34.0185,7.5225c10.5313,3.0918,20.4776,7.2715,23.9883,8.2744
		c3.5107,1.0029,6.5205,1.6719,8.3584,1.8388c1.8389,0.167,2.6748,0.084,2.6748,0.084s-6.1016-0.2509-9.3613-0.9199
		c-3.2598-0.6689-18.7227-6.0176-25.3262-8.0234C68.2975,18.3814,40.5475,11.6119,40.5475,11.6119z"/>
	<path fill="#231F20" d="M49.0729,24.901l2.0898,1.2539c0,0,0.167,0.3349-0.0835,0.5849c-0.251,0.251-0.6689-0.083-0.6689-0.083
		l-1.8389-1.3379L49.0729,24.901z"/>
	<polygon fill="#231F20" points="40.631,23.648 42.1358,23.648 42.8878,24.233 42.3863,24.818 	"/>
	<path fill="#FFFFFF" stroke="#231F20" stroke-width="0.3769" d="M29.0968,12.4469c0,0-1.7554-1.086-3.1763-2.3399
		c-1.4209-1.2539-1.8389-2.0058-2.0898-2.2568c-0.2505-0.251,0.3344-0.501,1.4209-1.0869c1.0869-0.585,2.9257-1.086,4.0957-1.1699
		c1.1704-0.0831,2.3403,0,2.6748,0.6689C32.3565,6.9312,32.858,8.3521,32.44,9.856c-0.4179,1.5049-1.0029,1.8389-1.5883,2.2569
		C30.2667,12.5309,29.0968,12.4469,29.0968,12.4469z"/>
</g>
</svg>
