<svg xmlns="http://www.w3.org/2000/svg" viewBox="0 0 492.98 196.34"><defs><style>.cls-1{fill:#231f20;fill-rule:evenodd;}</style></defs><title>BE390-I(2)</title><g id="Layer_2" data-name="Layer 2"><g id="Layer_1-2" data-name="Layer 1"><path class="cls-1" d="M459.29,196.34c-8.78-.79-17.42-2.88-25.92-3.24-26.35-4.32-53.28-8.64-79.2-12.53-5.54-1.66-11.88-1.3-16.56-3.1-13.25-2.45-26.93-4.25-39.38-7.2-6.26-.43-12.74-2.09-18.94-2.88-4-.29-13-.5-16.78-2.16-3.38,0-9.14-.5-16.13-.72-10.58.22-21.74,1.44-31.39-1.22-16.13-2.38-32.62-5.26-48.17-4.54-24.19,0-47.74,3.38-71.35,3.38-4.18-.29-8.35-.5-12.53-.72-7.56-1.66-16.42-3.38-22.54-6.77-10.8,1-22.18,3.38-32.62,4.32-3.38.72-6.77,1-21.6,3.6a16.55,16.55,0,0,1-6,.65c-.07-.79-.14-1.58-.14-2.38,2.16-1.44,2.66-1.44,5.47-1.58,8.28-2.16,18.22-3,27.36-4.1,6.34-2.52,15.55-1.94,23.11-3.82,3.67,0,4.75-4.18,7.85-5.18,0-1.37,5.47-4,6.48-4.54,0-1,1.3-1.58,2.38-1.66v-.5c2.59-2,7.42-5.18,10.8-6V133c4.82-1.87,8.86-5.4,14.26-7,3.46-2.3,8.71-3.38,12.89-5.18,5.9-1.15,12.24-6.26,18.43-6.91,9.5-3.6,16.63-13.68,26.42-17.64v-.5l1.22-.22c-2.45-6.19-7.85-7.78-9.79-12.89.65-2.81,5.26-5.4,8.35-4.75,5.69-.5,8.86-.58,15.19,2.23,1.08.86,3.1,3.24,5.18,4.1v.5c1.66.65,2.16,2.09,4.82,2.38v.5c1.44.36,2.74,1.22,5,1.51,25.27-3.74,51.12-4.68,77-7,3.6-5.11,5.4-6.48,11.52-8.35,5.18-.29,13.9-1.73,19.15,0,3,.14,6,.29,9,.5,7.49,1.37,15,3.38,23.4,1.66A217.06,217.06,0,0,1,347,65.87a46.58,46.58,0,0,0,8.86-4.1c1.8-1.58,1.8-1.58,2.45-1.73v-.5c2.45-1.94,2.45-1.94,3.1-2.16.36-1.22,3.31-4.75,4.32-5,.58-1.51,3.17-5,4.1-5.26.79-2.52,3-3.67,3.74-5.62.5,0,8.21-11.81,10.22-13.39,1.51-3,3.31-4.46,5.18-6.84V20c-3.74-2.74-3.74-2.74-4.32-3v-.5c-2.3-1.73-2.3-1.73-2.88-1.87v-.5c-1.08-.5-3-1.94-5.47-3.1v-.5c-2.74-1.73-5.9-4.61-7.92-5.26a6.8,6.8,0,0,1-.65-2.66c2.23-3.1,10.37-3,14.54-2.09,6.34,3.24,7,3.89,11.52,6a155.75,155.75,0,0,1,14.47,6.19h14.11c4,.65,5.54-.07,5.26,4.75,4.82.65,9.36.86,14.4,2.74,14.26,1.8,28.87,6.12,43.7,9.36a21,21,0,0,1,7.2,1.22,7.83,7.83,0,0,0,.07,1.3c-2.09,2.09-6.12,1.87-8.71,2-7.7-.22-7.7-.22-18-.94-14.4-1.94-42.77-5-43.63-5.33a10.75,10.75,0,0,0-1.51.14c-3.74,9.58-7.56,19.51-10.94,29.3a149.82,149.82,0,0,0-8.42,21.1,15.94,15.94,0,0,1-.07,4.1h-.5a125.22,125.22,0,0,1-8.64,20.74c-3.24,1.44-6.48,2.88-9.72,4.39-1.87,2.88-4,5.26-7.42,6.48-6.26,5.18-14,7.49-21.46,9.5l-7.34,3.24c-2.74,2.3-5.47,4.61-8.21,7-5.76,2.88-10.58,8.06-16,10.73-2.81,3.53-8.42,5.26-11.59,8,.36.36.36.36,7.56,2.3,16.85,3.6,16.85,3.6,24.26,5.47,3,1.44,6.48,1,10.3,2.88,10.58,1.8,22,3.74,33.41,6.26,4.68,1.66,8.57,2.88,14.11,3.1,1.44.5,16.34,2.88,25.7,4.82,12.38,1.44,25.49,4.54,38.38,7.42,7.2,1.94,10.8,3.17,15.12,4.1a3.39,3.39,0,0,1,1.73,2.3c-5.18,2.45-11.23,2.74-16.34,4.39l-5.76.65Zm-1.44-3.82c-3-.36-5.9-.65-7.7-1.87-11.66-.5-24.62-3.17-35.28-5.26-24.7-3.31-48.74-7.42-72.94-11.52-1.44-.5-4.54-.94-7.13-1.8-26.21-4-52-10.15-77.83-13.82-4-.29-9.5-1.73-12.74-.43-1.58-.07-3.17-.14-4.75-.14v-.43c1.66-.65,3.31-1.3,5-1.87,11.88-3.1,23.47-3.67,36-4,16.06.94,16.06.94,21.31,1.44.65.29.58.29.94,1.44,11.88.65,24,4.82,36.5,7.92,3.31.36,7.78,2.16,11.81,2.59.72.29,1.44.65,2.16,1a143.34,143.34,0,0,1,21.6,4.32c4.75.86,10,1.3,15.19,3.46,8.28,2.16,18.94,3.67,28.22,4.9,4.46,1.37,10.58,1.94,16.06,2.66.29.14.65.29,1,.5l23.76,4.54c13.68,3.82,13.68,3.82,14.62,4.25v.43a76.67,76.67,0,0,1-15.84,1.73Zm-233.28-30c-16.13-2-32-6.12-47.52-6.12a33,33,0,0,0-9.14-.29c-18.43,0-36.29,1.94-54.14,3.6-10.51.07-21,.14-30.82-.72-.43-.22-.43-.22-1.87-.29v-.5c15.34-1.37,15.34-1.37,18-1.8,36.36-1.87,73.66-6.77,110.38-9.86,27.58-3.38,56.09-5.76,84.24-9.36,4.82.36,10.73-.94,16.06-1.66,6.7-.58,13.9-1,21.38-1a6.63,6.63,0,0,1,.58.36c-1.94,2.74-7.85,6.7-10.58,8.14a20.47,20.47,0,0,1-7.49,5.11v.5c-6,2.52-6.12,3.1-11.52,1-3.6-.58-7.49-1.58-10.51-.72-15.41-.22-30.24.14-44.93,3.38-5.18,1.66-17.06,5.26-19.44,10l-2.66.22ZM72.14,155.8a1.57,1.57,0,0,0-.22-.36c-2.81,0-4.25-.36-6-1.66,4.25-.58,9.5-.79,14.33-1.3,28.22-.65,56.3-3.17,85.1-6.48,12-.5,24.91-3.24,37.51-4,5.47-.94,11-1.8,16.56-2.66,21.89-2.3,44.06-4.46,66.6-6.26,12-1.94,24-3.89,36.14-5.76,5.83-.5,11.16-1.73,17.42-1.37v.43c-11.09,1.94-24.77,4.75-35.86,6a7.87,7.87,0,0,0-1.08.58c-5.18.65-9.94,1.58-23,3.31-.36.36-22,2.59-23.83,2.59a6.23,6.23,0,0,0-1.22.5c-15.48,1.37-30.82,3-45.86,4.54-.94.29-22.32,1.94-25,2.45-9.79.65-19.44,2.74-28.58,3.1-10.08,1.58-21,.43-30.17,2.88-17.64,1.22-17.64,1.22-27.36,1.66-8.64,1.58-17.28,1.66-25.49,1.87ZM63.5,151l-.43-.22c0-2.45,16.7-13.32,18.65-13.61,6.77-3.89,6.77-3.89,8.35-5,13.46-5.4,27.22-12.53,41.54-16.56,2.38-.07,4.75-.14,7.2-.14,3.31-5.33,11.23-9.86,16.7-13.39a5.24,5.24,0,0,0,.29-2.88c7.63-4.75,18.22-5.62,27.14-7.56,3.6,0,7.27-1,11.52-1,21.89-2.09,43.49-4.1,65.81-5.47A89.11,89.11,0,0,0,275,83.87l1.66.22c.5-.29,24.62-1.87,28.51-1.87a352.35,352.35,0,0,1,64.15-3.89c1.22.29,14.18,1.44,15.12,1.73,3.24.22,11.52,1,13.75,2.45-.43,5.9-4.32,12.53-6.91,18.14-.94.43-6.62,3.38-7.49,2.3-.36-1.37-.65-2.74-.94-4.1a64.7,64.7,0,0,0-16.06-2.74c-3.24-1.73-6.91-1.58-9.79-1.94-8.28,0-16.34,0-24.19.72-6.77,2.45-8.35,3.24-10.22,10.58a26,26,0,0,0,3.24,13.39c-2.38,1-9.43,3-9.65,3.17a549.35,549.35,0,0,1-57.6,9.65c-3.82.22-7.63.43-11.45.72l-40.82,6.48q-25.49,2.92-50.83,6A61.22,61.22,0,0,1,142.27,146c-16,1.44-32.54,3.1-48.17,3.6-3.17.79-5.9.43-8.71.29-7.7.22-8.42.43-21.89,1.08Zm112.1-26.64c-10.87-.5-21.82-5.26-32-6.48a3,3,0,0,1-.22-2.3,2.25,2.25,0,0,1,.72-.36v-.43c5.47-3.24,10-11.38,15.41-13.39h2.38c3.53,3.53,8.64,3.31,13.68,4.82,3.24,0,3.46-.5,3.46,3.53-.72,4.54-.07,9.5-1.51,14.4l-1.94.22Zm7.2-.5c-.29-.07-.5-.14-.72-.22-1.08-5.4.07-10.94.94-15.77,3.67-1.58,10.73.79,15.12,2.81.14.65.72,1,1.3,2.16,0,6.12-6.19,8.71-11.09,10.87-1.87,0-3.74.07-5.54.14ZM341,122.68c-1.37-.29-2.66-.5-4-.72,0-2.09,1.51-4,2.09-5.76,1-7.42,1.66-12.46-2.16-18.43,4.18-2.74,16.2-1.3,22.82-.94,6.12,1.73,13,2.3,19.94,4.18,1.94,2.74.22,6.34-1.87,9-11.38,8.57-23.18,12.1-36.86,12.67Zm-103-3.17c-6.26-2.88-5.18-7.27-5.18-12.38a11.4,11.4,0,0,1,2.09-3c4.18,0,5,.07,7.7,4.75,1,5.33.72,8.14-4.61,10.58Zm20.59-3.1c-6.48-2.16-5.83-6.7-4.68-11.88,4-3,6.62-4.68,8.64,1.94.14,4.25,1.22,8.64-4,9.94Zm18-2.38c-4.9-2.88-4.25-7.27-4-11.66.72-1.44,2.16-2,3.6-2.45,5.11.72,6.84,9.86,3.46,13.82-1,.07-2,.14-3,.29Zm59.76-2.16a1,1,0,0,1,.14-.43c-1.8-1.8-2.16-3.31.43-3.31-.07,1.15-.14,2.3-.22,3.53a1.57,1.57,0,0,0-.36.22Zm-2.59-8.42V103h-.5c-1.44-1.94-.5-2.38,1.15-2.81.86.43,1.44,1.58,2.09,2.81-.94.14-1.87.29-2.74.5ZM161.71,93.16c-.65-.72-1.22-1.44-1.8-2.09-1.22-3.74-8.35-7.92-7.92-10.15,4-1.94,13.54-1,17.93,2,.22.5.22.5,7.34,6,1.3.29,1.3.29,1.58.65-1.15.94-4.54,1.15-5.83,1.44l-.22.43a1,1,0,0,1-.14-.43c-3.82.94-7.56,1.66-10.94,2.16Zm115.92-12c-1-1.51-.29-3.53-.29-4.82,6.91-1.73,16.85-.14,24.77.58,6,1.44,6,1.44,6.7,1.37V79c-12,.79-15.62,1.3-31.18,2.16ZM398.09,79.7c-.94-.36-5.54-.86-7-1.37-7-.94-14.11-2.16-20.59-2.16-11.52-1.73-25.42-.43-36.43.29a18.42,18.42,0,0,0-1.94-.36c1.08-1.58,3-2.16,5-3.24,1.73-.5,10.8-4.82,16.2-6.91,3-1.58,8.93-5.33,10.44-8.35.79-.43,1-.94,1.44-.94,3.6-5.26,8.35-10.3,11.52-15.62h.5C377.86,39.3,390,22.6,391.82,22.6v-.5h.5c.79-1.94,4.39-4.39,6-5.69,7.27-1.8,17.5-.79,25.2-.72a10.2,10.2,0,0,1,1.3.58,4.43,4.43,0,0,0-.07,1c-4.75.22-24.62-2.23-26.57,4.18.58,2.38,1.73,2.45,5,3.38,5,.94,10.08,1.94,15.12,3a1.79,1.79,0,0,0,.07.58c-5.69,15.12-12.38,31-17.64,46.37a23.36,23.36,0,0,1-2.59,5Zm-124.34-.94a5.65,5.65,0,0,1-.14-1c.22.65.22.65.65.86a1,1,0,0,0-.5.14ZM468.65,29.3c-20.74-2.81-41.54-4.68-61.2-8.64v-.5a202.39,202.39,0,0,1,30.74,1.3,116.4,116.4,0,0,0,18,3.89c4,1.44,8.28,1.66,12.82,3.67a.72.72,0,0,0-.36.29ZM393,16.84c-6.91-4-15.19-8.14-20.74-12.74,0-2.09,7.7-1.3,9.5-.86,5.4,2.66,11.3,6.41,17.78,8.42l.5.5-.22.65c-3.31,1.3-4.25,2.3-6.84,4Z"/></g></g></svg>