<svg xmlns="http://www.w3.org/2000/svg" viewBox="0 0 414.2 141.65"><defs><style>.cls-1{fill:#231f20;fill-rule:evenodd;}</style></defs><title>BE390-I</title><g id="Layer_2" data-name="Layer 2"><g id="Layer_1-2" data-name="Layer 1"><path class="cls-1" d="M220.91,85.23c0,2.75,2.58,5.57,5.33,5.57h1.21c2.08,0,4.84-2.76,4.84-4.84V84.51c0-2.71-2.69-5.08-5.57-5.08h-1c-2.43,0-4.84,3.08-4.84,5.81Zm26.15,41.93,10.18.2c2.6,0,10.44,1.68,10.9,3.39-1.3.11-6.32,1.32-8.22,1.71-2.59.54-5.79.61-8.59,1.1-4.35.76-13.65.82-18.56.82h-3.39c-8.16,0-49.52-2.73-52.56-4.9l70.24-2.32ZM108.52,111.63c25,0,49.23,1.45,74.12,1.45,12.06,0,24.74,1,36.82,1,12.53-.06,24.78.72,37.06.72,24.48,0,49.47,1.78,73.88,1.69,25-.09,49.36,1,74.85,1-1.86,2.54-74.81,7.6-85.12,9.35-3.25.55-7.22.93-10.34,1.29-3.68.42-6.82,1.17-10.39,1.48a79.34,79.34,0,0,0-9.79,2.08c-3.34.79-6.57,1.36-9.86,2a211.61,211.61,0,0,1-43.34,4.14h-17.2l0,.25-19.11-1.95v-.28l25.67,1.49h11.87c7.14,0,33.91-1.31,33.91-6.3v-.48c0-4.08-11-6.29-15.75-6.29l-5.58-.16-82.59,2.83h-3.88c-1.38,0-24.71-6.66-27.51-7.61-3.75-1.27-26.72-7-27.72-7.65Zm296.24,4.84c-13.77,0-26.81-1-40.69-1-13.51,0-27.28-.79-40.68-1s-27.6-1-40.7-1c-13.82,0-26.74-1-40.45-1-13.51,0-27.17-1.21-40.45-1.21-6.75,0-13.77-.74-20.1-.73-3.71,0-6.61-.23-10.18-.24-1.47,0-8.47-.1-9.83-.34a99.19,99.19,0,0,0-10-.39c-3.62,0-6.78-.1-10.18-.23-6.42-.25-13.6-.74-20.1-.74-8.82,0-33.37-.43-38-3.39,5.29,0,15.47.18,20.16.92,5.83.92,14.78-.4,20.44.63a86.62,86.62,0,0,0,10.27.39c3.09,0,6.93.5,9.93.49,6.44,0,13.65.75,20.35.72,6.38,0,13.57,1,20.1,1,6.75,0,13.83.74,20.35.72,13.64,0,27.55,1.21,40.94,1.21,13.76,0,27.32.76,41.19,1,6.6.1,13.61.74,20.34.74,3.74,0,6.93.23,10.42.24,2.06,0,8.14.15,10,.44,2.29.36,8,.06,10.61.05,3.22,0,6.61.49,9.93.48,7.16,0,13.4.49,20.59.48,13.41,0,27.37,1,41.18,1v.48a13.4,13.4,0,0,1-1.7.24ZM45.54,73.61c-.46.06-2.26-4.9-2.56-5.67-.8-2-1.5-3.8-2.28-5.71-1.54-3.78-3.09-7.66-4.57-11.41-1.54-3.91-3.07-7.73-4.64-11.59-1.37-3.36-3-8.36-4.6-11.38a84.58,84.58,0,0,1,9.83.58c5.64,1,4.31-1.77,7.13,3,2.51,4.3,4.78,8.89,7.41,13.18,2.42,3.94,5.32,9.18,7.36,13.22,2.19,4.36,5,8.69,7.27,13.07L45.54,73.61Zm-3.94-62c8.25-.19,14.46-.47,18.65,3.75C64,19.1,67.31,23.37,71,27.06s7.12,7.85,10.9,11.62C85,41.8,89.78,47.51,93,49.88c12,8.81,13,10.75,30.58,14.23l18.81,3.71c3.13.62,6.2,1.19,9.44,1.7a21.29,21.29,0,0,0,4.87.7,32,32,0,0,1,5.43.15c2.14.39,8.55.34,11,.34,3.83,0,7.4.24,10.9.24,6.77,0,15,.24,21.56.73,7.16.54,14.82-.06,22,.48,6.39.48,15.07.74,21.56.73,14.16,0,29.33,1.52,43.36,1.45a183.38,183.38,0,0,1,21.51,1,75.34,75.34,0,0,1,9.09,2.05c1.4.52,2.77.87,4.12,1.45,1,.41,3.15,1.6,3.8,1.77v.48h-1l7,12.1,10.18-1.32a19.77,19.77,0,0,0,7.25,3.26c2.8.7,5.45,1.49,8.23,2.18,5.62,1.4,11.1,2.89,16.45,4.63,5.53,1.8,27.18,9.34,29.34,12.56-7.57,0-15.27-1-23-1-3.6,0-7.55-.74-11.14-.73-3.06,0-8.33-.14-11.37-.5-3.36-.4-7.69-.45-11.16-.71-3.64-.27-7.94-.49-11.39-.48-7.38,0-14.94-1-22.77-1-7.09,0-15.69-.7-22.76-1s-16.95.3-23.07-.67c-2.67-.42-8.58-.29-11.58-.29a95.43,95.43,0,0,1-11.44-.43c-2.65-.42-8.6-.3-11.58-.29-2.55,0-9.06,0-11.61-.26-3.38-.4-8.28-.16-11.45-.66-2.13-.34-9.18-.54-11.33-.54-7.5,0-15.56-1-22.77-1s-15.38-1-22.77-1c-7.17,0-15.42-1-22.77-1-7.93,0-15.55-.64-23-.73-6.58-.08-16.57-.21-22.8-.94-3.58-.42-8,.08-11.42-.45a102.3,102.3,0,0,0-11.34-.53C59,100.4,51,99.28,43.6,99.28L36.06,78.71l10.45-1.5v-.7l24.23-3.1L44.13,25.64l-18.45-.92-1.74-4.37c-3.06-.28-11.1-1.41-11.1-4.14V16c0-2.1,3.17-2.42,5.33-2.42h.48c1.13,0,7.39,2.6,8.72,3.15s2.88,1.22,4.33,1.73c2.6.91,2.29.31,5.07.74,3.21.5,8.29,0,11.34.53a105,105,0,0,0,11,.63l.22-3.08L41.6,11.57ZM5.09,3.15c.88,0,41.55,13.15,42.15,13.56-2.64,0-11.78-.31-13.66-.88-3.28-1-7.08-2.73-10.29-4-3.44-1.36-7-2.67-10.45-4.08-1.76-.72-3.34-1.3-5.23-2-1.28-.5-4.33-1.06-4.46-2.57ZM0,2.42V3.87C.7,5,.4,6.12,1.78,6.69S4,7.56,5.25,8.06a62.25,62.25,0,0,0,6.86,2.59C11.18,12,9,12.66,9,15.74V16c0,5,7,7.75,12.19,7.72l20,50.46L30.9,75.83l11.24,30.23c3.78,0,8.1.75,12.35.73,3.68,0,8.59.68,12.6.72a115.93,115.93,0,0,1,12.21.87c3.75.86,6.71,1.83,10.7,2.62,6.88,1.37,14.13,3.58,21.07,5.33S125.14,120,131.81,122c13.62,4.12,27.54,7.61,41.37,11.43,6.78,1.87,14.07,3.76,21.23,5.17,3.69.73,7.09,1.45,11.13,2.19,1.85.34,11.89.51,12.46.87h16.47c1.15-.73,10.36-.2,12.61-.23,3.72-.05,8.41-.77,12.1-.74,5.79.06,16.63-2.32,22-3.41,6.17-1.24,15.24-3.89,21.34-4.34,7.06-.51,15.2-2.62,22.52-2.91s15.74-1.87,23.26-2.42c3.75-.28,8.38-1,11.87-1a94.09,94.09,0,0,0,11.73-.87c3.62-.66,8-.59,11.75-1.09s7.7-.87,11.22-1.37c7.46-1.07,15.4-1.6,19.33-6.11V115c-1.56-1.79-1.29-2.2-3.57-3.94a34.63,34.63,0,0,0-4.5-2.76c-3.23-1.7-6.76-3.09-10.26-4.51-6.93-2.8-14.56-5.32-22-7.52-3.71-1.09-8.16-1.87-11.65-3.13-4.41-1.59-7.19-1.09-11.16-3.61-3.09-2-6-3.7-9.06-5.71s-5.72-4.23-8.48-6.06c-4.23-2.81-16-6.6-23-6.59-4.68,0-9.2-.48-14.3-.48A137.2,137.2,0,0,1,282.42,70c-3.36-.39-11-.26-14.52-.26-4.71,0-9.47-.29-14.3-.48-9.2-.36-19.24-1-28.33-1-9.68,0-19.21-.75-28.82-.73-4.66,0-9.34-.48-14.29-.48a132.26,132.26,0,0,1-14.07-.47c-4.47-.52-9.8,0-14.25-.53-3.77-.48-8.65-1.59-12.44-2.33-8.15-1.61-16.29-3.22-24.3-5-9.12-2-13.27-5.21-19.44-10.11C92,44.1,88,39.14,82.9,34.08c-2.52-2.51-4.65-5.14-7.14-7.63a91.44,91.44,0,0,1-7.06-7.71,55.32,55.32,0,0,0-7.31-7.46,18,18,0,0,0-11-3.53H40.69c-2.92,0-8.26.87-10.33.15C27.64,7,24.85,6,22.13,5.24,20.1,4.63,6.29.46,5.57,0H2.42C.69,1.5,1.57.17,0,2.42Zm108,77c10.17-2.37,26.76-5.57,38.76-5.57H156l17,1.08V94.44c0,1.9-14.92,3.87-18.41,3.87h-7.75c-7.63,0-16.84-1.64-23.2-3.2-3.22-.79-7.49-1.62-10.63-2.69-2-.67-3.88-.16-4.34-2.2a21,21,0,0,1-.82-5.72V82.09l.24-2.66ZM104.64,85a24.32,24.32,0,0,0,1.11,6.39c.79,3.22,1.07,2.53,4.12,3.39a113.35,113.35,0,0,0,12,3.05c4.12.61,8,1.87,12.6,2.41a112.19,112.19,0,0,0,13.8,1.22h5.33A78.85,78.85,0,0,0,168,99.62c2.88-.56,10.56-3.18,10.56-5.67V75.79c0-4.52-15.16-5.08-20.59-5.08h-9.2c-8.85,0-18.4,1.49-26.26,2.81-4.36.73-8.25,1.46-12.28,2.26-1.59.32-5,.32-5.08,2.19-.09,2.32-.48,4.5-.48,7Zm137.58-1.45c0-4.52,1-6.05,5.57-6.05h2.91c3.08,0,5.56.44,6.62,2.58a23.17,23.17,0,0,1,1.85,7.35v1.45c0,4.62-2.25,7.75-6.78,7.75-8.12,0-10.17-4.2-10.17-12.11v-1Zm-1.45,0v.73c0,8,2.14,13.8,10.17,13.8h1.45c5.87,0,8.24-3.69,8.24-9.69,0-3.25-1-7.82-2.32-9.79-1.56-2.31-5.54-2.8-9.31-2.8-6.13,0-8.24,1.56-8.24,7.75Zm76.06,1.94V86c0,3.38,11.13,7.75,15.26,7.75h1.7A3.49,3.49,0,0,0,334,92.5v-.24c0-1.79-5.81-10.9-7.27-10.9h-.24c-2.74,0-9.69,1.88-9.69,4.12Zm-48,.73v1.7c0,1.94,2.65,4.84,4.6,4.84h1.21c2.91,0,5.57-2.55,5.57-5.08v-1c0-2.34-2.74-5.33-5.33-5.33h-.24c-2.87,0-5.81,2.32-5.81,4.84Zm-24-.24a6,6,0,0,0,5.57,5.81h.73c2.66,0,5.09-2.85,5.09-5.81a5.69,5.69,0,0,0-6.06-5.81c-2.6,0-5.33,3.05-5.33,5.81Z"/></g></g></svg>