<svg xmlns="http://www.w3.org/2000/svg" viewBox="0 0 157.63 51.13"><defs><style>.cls-1{fill:#231f20;fill-rule:evenodd;}</style></defs><title>BE400</title><g id="Layer_2" data-name="Layer 2"><g id="Layer_1-2" data-name="Layer 1"><path class="cls-1" d="M157.63,17.89c-1,2.79-3.92,3.72-6.1,5.21A38.89,38.89,0,0,1,146,25.49a25.92,25.92,0,0,0-2.88,1c-.13.05-.16.27-.36.33-1.61.2-3.3,1-4.88,1.34-1.4.49-2.69.58-4,1.12-.56,0-.91.4-1.4.25-1.23.33-2.41.53-3.63.91a9.87,9.87,0,0,0-1.63.27l-.47.83-.49.27a.34.34,0,0,1-.13,0s0,0-.07-.09v-.54l-1.36.31c-.18.16,0,.4-.11.6a.47.47,0,0,1-.49.09,2.17,2.17,0,0,1-.29-.58,83,83,0,0,0-8.24,1.71.92.92,0,0,1-.51.73.86.86,0,0,1-.42.05l-.13-.54c-.36-.09-.82.09-1.22,0-1.12.25-2.27.36-3.32.63-.11.24-.11.53-.36.69s-.34,0-.54.15c-.2-.05-.25-.33-.31-.56l-1.87.25c-.65.63-.74,1.92-1.25,2.72a4.6,4.6,0,0,1-2.07.82A2,2,0,0,1,103,38l.05-.65,1.14-.16.31-.11a.45.45,0,0,0,.18-.27l-.13-1.43a4.9,4.9,0,0,0-1.61.13,16.84,16.84,0,0,1-3.83.69c-1.54.44-3.17.42-4.59.71-.54,0-.91.38-1.38.49-6.73.8-13.64,1.9-20.25.33a.29.29,0,0,0-.09-.18,8.07,8.07,0,0,0-2.12.25C60.94,39.48,51.16,41.38,41.4,43c-9.2,2-18.56,3.12-27.7,5.21a.61.61,0,0,1-.18-.07c-.54.18-1.05.07-1.63.25-3.43.65-6.88,1.09-10.2,2-.09.27-.11.58-.38.63s-.62.24-.91.09l-.4-1c.07-.33.45-.51.69-.73,7-1,13.92-3.45,21-4.74,11.88-3.34,24.75-4.74,36-9.05-.42-.34-1.23-.18-1.83-.34A10,10,0,0,1,50.71,34c-.87-.67-1.27-1.69-2-2.25-1.47-2.92-3.25-5.9-4.88-8.82l-.25-.25c-1.34-2.74-3-5.17-4.52-7.84-.4-1-1.54-1.89-1.34-3.16l.64-.47-.78-1.51c-.31-.31-.8.16-1.16-.05L34.69,6.84c-6.55.87-13.24,2.59-19.9,4l-.31.45-.78.2c-.15,0-.2-.2-.29-.31-1.94.16-4,1.22-5.88,1.09-.07-.18-.18-.51,0-.69L31.62,5.81l2-.6c0-.56-.4-.91-.67-1.4a.41.41,0,0,1,0-.13c1-1,2.52-1.38,4-2,.05-.15-.07-.45.13-.6A2.7,2.7,0,0,1,38.44.65c.15,0,.2.22.31.31A4.82,4.82,0,0,1,44.2,2.12c.53.45,1,1,1.74.71C50.36,2,54.7.82,59.05,0c.11,0,.16.16.11.25l-1,.4L55.3,1.4l-.15.29c-.24.18-.71.49-1,.18A.45.45,0,0,1,54,1.81a59.29,59.29,0,0,0-7.31,2.12.25.25,0,0,0-.07.13c1.45,1.51,3.12,3,4.61,4.26,3.32,2.68,5.82,6,10,6.88,1,.51,2.14.18,3.14.09a98.08,98.08,0,0,0,16.46-2.92,23.39,23.39,0,0,1,2.59-.62c.13,0,.18-.18.24-.31.38-.2.71-.6,1.11-.78,1.69-.13,3.43-1.34,5-.51L110.64,5.1c.11,0,.11-.05.2-.13a26.87,26.87,0,0,0-2.3-3.57c-.22-.24-.31-.44-.54-.53a.36.36,0,0,1,0-.38c.44-.13,1-.05,1.52-.18,1.56,1,2.59,2.74,3.92,3.94,1.23-.16,2.36-.74,3.56-.85a13.49,13.49,0,0,1,2.38-.54,23.32,23.32,0,0,1,5.7-.47,4.83,4.83,0,0,1,3.12.93c3.3,1.56,5.33,5,9.38,5.19l.67-.49c.24,0,.33.27.45.42a1.3,1.3,0,0,1,0,.24c3.39.93,7.22,1.29,10.6,2.68,1.94.44,3.32,2.36,5.39,1.2.6.13,1.09-.38,1.61-.24a.36.36,0,0,1,0,.45c-.51.58-1.51.51-2,1a11.44,11.44,0,0,1,3.3,3.81c0,.13,0,.22,0,.29Zm-2,1.63-.2.29c-2.87,2.3-6.71,3.83-10.65,5.32-1.51.58-3.1,1.07-4.59,1.6s-3.45.93-4.92,1.43c-.85.2-1.69.47-2.54.6-13.1,3.12-26.18,4.93-39.12,7.57-.33.25-.74.2-1.11.33a88.52,88.52,0,0,1-12.14,1,20.78,20.78,0,0,1-5.1-.47c5.24-1.29,10.94-2.05,16.33-3a2.38,2.38,0,0,0,1.29-1.56A3.61,3.61,0,0,0,92.62,31a1.31,1.31,0,0,0-1.12-.73,10.07,10.07,0,0,0-2.25.15c-1.43.09-2.79.25-4.17.4,6.93-1.36,13.61-2.39,20.56-3.57,7.24-1.05,14.17-2.58,21.37-3.63,1.18-.18,2.29-.51,3.39-.71.51-.11.94-.13,1.36-.25,7.71-1.45,15.2-2.59,22.86-3.66l1,.49v0Zm-.33-3.85c-.07.16-.29.29-.42.4l-.51,1.29c-3.19.42-6.5.34-9.72.73-.13-.05,0-.15-.05-.24a.28.28,0,0,0-.18-.07c-.07,0-.09.07-.11.18a.15.15,0,0,1,0,.13c-2.76.27-5.48.6-8.26.83-4.48.27-8.89.78-13.35,1.29-1.49.2-2.92.45-4.35.6.13-.2.44-.4.27-.73a.4.4,0,0,0-.47-.18.46.46,0,0,1-.24.09c-.2.11-.2.38-.15.64s.05.11.13.2L97.34,23.46a16.59,16.59,0,0,1-1-5,20.49,20.49,0,0,1,.45-5.17A13.43,13.43,0,0,1,98,10.34c.07-.15.16-.2.22-.34a.31.31,0,0,0-.25-.31c-2.14.15-4.63.63-6.06,2.25A5,5,0,0,0,91,13.32a14.79,14.79,0,0,0-1,6.35,14.39,14.39,0,0,0,.44,3.81,2.59,2.59,0,0,1,.24.89c-7,1.2-14.19,2.56-21.3,3.7.18-.36.78-.51.76-1.05,1-1.45.82-3.41.34-5a5.92,5.92,0,0,0-1.71-2.38.31.31,0,0,0-.13-.07,4.43,4.43,0,0,0-1.81-.18c1.31-1.49,3-2,4.54-3,3.14-1.92,7.26-2.14,10.89-3.34C87.5,11.57,92.69,10.52,98,9.18c5.71-1.58,11.56-2.72,17.29-4.48a19,19,0,0,1,3.79-.83,19.2,19.2,0,0,1,6.71-.78,4.76,4.76,0,0,1,1.65.6c-1.89.29-4.34.44-5.9,1.72-.13.09-.09.22-.16.34-2.65,2.38-5.42,5.1-6.71,8.22a5.07,5.07,0,0,0-.67,2.49,3.23,3.23,0,0,0,3.32.58,32.1,32.1,0,0,1,3.83-2,50.66,50.66,0,0,1,6.22-3c.31-.13.62-.34.91-.27l-.25.53.13.22a.66.66,0,0,0,.49-.11,1.24,1.24,0,0,0,1.07-.42.32.32,0,0,0,.09-.13c0-.2-.22-.29-.36-.4a.37.37,0,0,1,0-.2c2.34-.8,5-2.2,7.53-1.92.09.16-.16.22-.16.36a.31.31,0,0,0,0,.13c.8.22,1.38-.63,2.34-.13.49.05.89.15,1.34.2a67.6,67.6,0,0,1,7.44,1.69,19.18,19.18,0,0,1,7.37,4.06v0ZM132.7,20.23l-.6.07.64-.09,0,0Zm0,.78-2.1.33,2.14-.33Zm-.36-12.59L127.89,5c.47.29,1,.65,1.51,1,1,.85,2,1.52,3,2.41Zm-1.22,12-14.73,2.18c1.12-.47,2.52-.36,3.57-.74a11.11,11.11,0,0,0,1.76-.25,64.31,64.31,0,0,1,9.4-1.2v0Zm-1.34,1,0,0L120.61,23l-.18-.15c-.13,0-.13.13-.22.2-4.83.73-9.69,1.63-14.44,2.27-.38.13-.73.13-1.05.22-5.28,1-10.43,1.8-15.66,2.59-.63,0-1.16.2-1.8.2C79.39,29.5,71.56,31.08,63.66,32a59.54,59.54,0,0,1-11.74,1.47c5.19-.76,10.63-1.58,16.06-2.36,2.92-.34,5.71-1,8.62-1.31.47-.13.85-.05,1.27-.2,4.7-.91,9.31-1.61,14-2.29,4.86-.62,9.71-1.54,14.51-2.5,4.54-.58,9-1.56,13.5-1.83a4.09,4.09,0,0,1,1.27-.33c2.92-.44,5.79-.94,8.65-1.2v0ZM120.2,5.57c-2.74,3.12-5.68,5.84-6.77,10a.46.46,0,0,1-.13.07l-.25.42a6.74,6.74,0,0,1-3.12-1.43c-.64-1.29-.11-2.85-.05-4.25,0-.45.25-.67.31-1.11,1.38-1.63,3.47-2.47,5.84-3.07,1.43-.24,2.81-.87,4.19-.73l0,.07Zm-4.61,17.07c-4.41.78-8.89,1.11-13.35,2a4.86,4.86,0,0,0-1.63.18c-1.87.2-3.5.78-5.32.71h-.13c1.18-.76,2.92-.58,4.28-1,5.44-.51,10.81-1.6,16.18-1.9l0,0ZM112.32,4.41c0,.07,0,.09-.09.16l-.47.07a.74.74,0,0,1-.38-.58l-2.12-2.9s.05,0,.07-.07a16.54,16.54,0,0,1,3,3.32Zm-4.39,9.25a8.65,8.65,0,0,1,0,1c.05,1.4.13,3.07-.83,4.12-.51,0-.82.62-1.36.56a3.76,3.76,0,0,1-1.67-3.25c0-1.56,0-3.48,1.31-4.32a1.81,1.81,0,0,1,1.81.07,2.32,2.32,0,0,1,.73,1.83Zm-6.48,4c0,.49-.24,1.07-.27,1.56-.2.34-.33.74-.53,1a1.75,1.75,0,0,1-2,.16,6.32,6.32,0,0,1-.87-5.17A2.64,2.64,0,0,1,99,13.41a2,2,0,0,1,1.34.18c1,1,1.12,2.61,1.14,4.12Zm-4.92-6.48c-1.76,3.72-1.38,8.07-.47,12a1.66,1.66,0,0,1-.25.62l-1.31.42c0-.07,0,0-.07-.09a6.1,6.1,0,0,1-2,.27h-.25c-.27-.07-.27-.47-.51-.65-1-1.87-.22-3.86-.73-5.64.11-2.21.4-4.81,2.14-6.26.53-.58,1.29-.54,1.89-.89.45,0,.91-.29,1.34-.22.13.05.18.25.22.42Zm-1.63,6.26c0,1.51.2,3.52-1.2,4.5a1.68,1.68,0,0,1-1.31-.18c-1.12-1.31-1.16-3.39-.78-5.12a3,3,0,0,1,1.72-1.92c.58.05.78.62,1.07,1a6.06,6.06,0,0,1,.49,1.76ZM91.15,26a16,16,0,0,1-2.59.6C80.25,28,72,29.43,63.72,30.64c.27-.42,1-.31,1.51-.49a.88.88,0,0,1,.25.05c.62-.33,1.29-.15,1.92-.44,8-1.43,15.8-2.68,23.75-3.77v0Zm-2.78-6.44a11.77,11.77,0,0,1-.2,2.09,3.5,3.5,0,0,1-1.05,1.71,1.12,1.12,0,0,1-1.16,0,1.93,1.93,0,0,1-.2-.16,6.27,6.27,0,0,1-.22-5.55,1.58,1.58,0,0,1,.91-.87c.29,0,.6-.16.85-.05.83.58.83,1.81,1.07,2.81Zm-5.48.91c-.22,1.25-.15,3-1.2,3.9a1.29,1.29,0,0,1-.85.07,4.18,4.18,0,0,1-.62-.45c-.45-.45-.25-1.23-.53-1.83.24-.71,0-1.34.31-2A2.9,2.9,0,0,1,81.13,18a.84.84,0,0,1,.85.18.71.71,0,0,0,.24.27c.45.47.47,1.36.67,2Zm-.22,11.68,0,0c-6.59,1.36-13.15,3-19.79,4.19,0-.05-.09-.11-.09-.2a68.74,68.74,0,0,1,10.5-2.58c2.85-.25,5.79-1.54,8.64-1.43a1.94,1.94,0,0,1,.78,0v0ZM78,21.46a7.24,7.24,0,0,1-1.12,3.86c-.34.25-.85.51-1.22.22a3.46,3.46,0,0,1-1.12-2.63,4.32,4.32,0,0,1,1.05-3.14,1.35,1.35,0,0,1,1.22-.24,2.63,2.63,0,0,1,1,.78A4.28,4.28,0,0,1,78,21.46Zm-5.55-4.72v.11a3.05,3.05,0,0,1-1.14.87,1.18,1.18,0,0,0-.49,0,.49.49,0,0,1-.25-.22v-.13a2.35,2.35,0,0,1,1.29-.76c.2,0,.45-.07.58.09a.18.18,0,0,0,0,.07Zm-3.59-.07,0,.07-.31.16H68.4a10.73,10.73,0,0,0-2.88,2.56c-.71.22-1.47.29-2.2.47a21.39,21.39,0,0,0-3.68,1.22,33,33,0,0,0-4.92,2.56c-.74.78-1.61,1.14-2.29,1.81-.89.82-2.25,1.42-2.72,2.63v1a2.56,2.56,0,0,1-1.38.29c-.89-1.56-1.78-3-2.7-4.57a9.1,9.1,0,0,1-.91-1.78c2.65-1.12,5.84-1.47,8.49-2.5,2.85-.54,5.62-1.4,8.42-2.05A15.69,15.69,0,0,1,63.26,18c1.89-.31,3.76-1.07,5.59-1.4v0Zm-2.1,17.25a25.09,25.09,0,0,1-2.67.74c-1,.11-2,0-3,0l5.68-.78ZM66.4,27.6a2.48,2.48,0,0,1-1.52-.82l-.29-.18c-.91-1.16-.8-2.92-.34-4.35a3.51,3.51,0,0,1,1.67-1.72,5.45,5.45,0,0,0-.63,5.35A10.67,10.67,0,0,0,66,27.14c.15,0,0,.05,0,.11s0,.13.11.18l.29.16Zm-.45,1a5.8,5.8,0,0,1-2.09.54,11.94,11.94,0,0,0-1.69.2,6.43,6.43,0,0,1-1.22.27c-.4,0-.78.16-1.07.16-.74.25-1.54.05-2.14.4a25.08,25.08,0,0,1-5,.45.27.27,0,0,1-.22-.11,4.44,4.44,0,0,1-.78-2.7c0-.36.33-.65.29-.94a7,7,0,0,1,1.81-1.49c.38-.4.94-.62,1.4-1a38,38,0,0,1,8-3.68,7.88,7.88,0,0,1,1.2-.25,6.69,6.69,0,0,0-1.36,3.74,4.73,4.73,0,0,0,2.14,4,2,2,0,0,1,.65.34s0,0,0,.07ZM56.7,37.76l0,0c-7.64,1.8-15.28,3.47-22.93,4.9.83-.33,1.83-.38,2.74-.74,4.77-1.07,9.76-2.23,14.31-3.27.45-.11.82-.07,1.22-.18a17,17,0,0,1,4.72-.76l0,0Zm-.34-21.25a.26.26,0,0,1,0,.11L42.93,20.23a.78.78,0,0,1-.15-.33c1.67-.51,3.39-1,5.12-1.51,1.56-.25,3-.91,4.54-1.11.93-.44,2.2-.36,2.85-1,.07-.33-.25-.58-.49-.78-1.07-1.18-2.3-2.27-3.5-3.43-.65-.64-1.45-1.43-2.16-2.09-2.47-1.67-4.19-5.5-7.26-5.12a.81.81,0,0,0-.33.13c-.07,0-.11-.18-.16-.27a4.54,4.54,0,0,1,2-.34c2.76,1.8,5.26,4.64,7.93,7.11.44.56,1,1,1.38,1.43,1.16,1.07,2.3,2.3,3.47,3.34a.3.3,0,0,1,.16.24ZM54.1,31.79l0,.07a7,7,0,0,1-2.07.29,5.43,5.43,0,0,1,2.1-.4v0ZM52.8,15.35c-2.69.69-5.32,1.36-8,2.23-1.09.15-2,.71-3,.83a1.1,1.1,0,0,1-.15-.33C45,16.75,48.88,16.58,51.94,15c-.65-1.09-1.74-1.74-2.67-2.85-1.49-1.29-3-2.81-4.34-4.17-.42-.44-.8-1-1.32-1.07-2.27.58-4.43,1.43-6.66,1.92a.48.48,0,0,1-.44-.4.21.21,0,0,1,.05-.13c2.41-.69,5-1.92,7.51-1.67.8.64,1.67,1.54,2.34,2.14.33.33.73.67,1.09,1,1.74,1.76,3.68,3.56,5.3,5.46l0,.07ZM50.85,29l0,.24a.52.52,0,0,1-.2-.24l.07-.24c.09-.13.09.13.16.24Zm-.49,1.51a.13.13,0,0,1-.07.11l-1.12.18A.24.24,0,0,1,49,30.5l1.18-.24c.09,0,.2.09.2.2Zm-.09-15.82c-2.88,1-6,1.72-9,2.59a9.3,9.3,0,0,1-.94-1.34c-.49-1.32-1.63-2.39-1.83-3.72.36-.27.73-.34.93-.67l-1.05-2,5-1.61c1.11.69,1.89,1.87,3,2.7a16.94,16.94,0,0,0,2,2,14.89,14.89,0,0,1,2,2.05l0,0ZM47.44,13l0,.07c-.71.83-2.39.85-3.36,1.51-.85-.47-1.16-1.42-1.94-2,0,0-.13.05-.16,0a.62.62,0,0,0-.11-.11l.05-.25c-.07-.33-.71-.54-.6-1a7.74,7.74,0,0,1,2.94-1c.25.07.47-.11.69.07.82,1,1.69,1.74,2.5,2.72v0Zm-2.21-.73c-.09,0-.2.09-.29,0s.13,0,0-.07c.05-.05.09-.13.22-.13a.15.15,0,0,1,.09.09l0,.07Zm-1.36-.18-.85.22.71-.31a.17.17,0,0,1,.15.05v0Zm-.34-.78,0,.24-.91.36a.46.46,0,0,1-.25-.24.89.89,0,0,1,0-.2,1.73,1.73,0,0,1,1.18-.2v0Zm-4.77-5.5-3.08.91a.13.13,0,0,1-.11-.09.08.08,0,0,1,0-.09l3.19-.73ZM32,43.09a.23.23,0,0,1-.11,0,.23.23,0,0,1,.11,0Zm-.36.11-7.75,1.65,7.77-1.67,0,0Z"/></g></g></svg>