<svg xmlns="http://www.w3.org/2000/svg" viewBox="0 0 226.01 63.27"><defs><style>.cls-1{fill:#231f20;fill-rule:evenodd;}</style></defs><title>CIT-II</title><g id="Layer_2" data-name="Layer 2"><g id="Layer_1-2" data-name="Layer 1"><path class="cls-1" d="M194.07,27c-6.8.75-15,4.22-21.12,4.07l4.6-29.59c-.67-.06-5-.26-5.18-.5l-.5-.65L170.71,0c-1.15.65-2.3.5-3.82.58-6.84,8.21-10.39,20-16.07,29-.43.14-.07.5-.43.86-2.09,3.1-5.86,1.64-9,2.36l-4.32-.72,1.87.36v.43l-4.46.43L125.66,31c-.36.14-1.15-.07-1.15.43l2.3.58,4.46,1.08a.41.41,0,0,1,0,.43A163.74,163.74,0,0,1,99.72,34c-.36-.07-.36-.36-.36-.58-.22.22-.43.5-.65.58L52.42,32.59A14.38,14.38,0,0,1,50,32.5l-.19-1.35-.14,1.58c-7-1.34-15.18,7.38-20,10.49-6.6,1.81-12.45,2.83-16.55,5.53a10.42,10.42,0,0,0-3.68,5.18L0,54.43l6.34,1.3A.81.81,0,0,1,6.7,56l3.1.5c3,3.1,7.35,4.5,11.91,5.1,15.06,2,50.87,1.74,76.43,1.47,8.42-.09,16.42-.31,24.62-1.1l51.62-6.84,4-.72c15.77-2.45,32-3.6,47.59-6.84l-6.13-.39-.16.28,3.77.26c.22.29.09.21-.27.21l-2.69.32a.85.85,0,0,0-.63-.31c-.23,0-.64-1.25-.06-.65l-.34-.15-2.39-.1.05.27,1.93.34c.14.22.23.28-.2.28L217.3,48c-.22,0-.29.22-.29.36a1,1,0,0,1,0,.65l-3.6.29a.85.85,0,0,1-.79-.72c.22-.36.5-.29.65-.58l-.86.07a1.23,1.23,0,0,0-.07.5l.14.94-1.15.22a3.65,3.65,0,0,1-.5-.43l-1.22-.07c-.22,0-.29-.22-.29-.43s.22-.43.29-.43c.29-.29.79-.3.94-.59l6.29-.47L217,47l-50,3.51,2.88-1.94,1.66-8.86,3.59-1.21,29.65-9.85c.3-1.19-4-1.87-4.18-1.95l-4.1-.28-2.46.58Zm-.11.42c.69.2,1.38-.75,1.88-.24.14.43-.22.72.14.79l2.09.14-1.22-.22a.76.76,0,0,1,0-.43c.72-.58,1.86.5,2.36-.36l1.09.07a.68.68,0,0,1-.65.29,7.5,7.5,0,0,0,.79-.07c.12-.29,2.56.21,3.17.46.25.2-.27.48-.41.56l-28.27,9.37-3.94,1-4.82-.5c.58-.22-.5-.29,0-.36s.72-.22.79-.36c-3.6,1.22-6.91.43-10.37-.07v-.29l19.87-5.33,14.83-3.46,2.65-1ZM170.57,1.94,169.78,4c.65.43,1.51,0,2.3.22l-.79,3.82.5-3.31a4.62,4.62,0,0,0-2.45-.29l.58-2.77c-1-.5-2.88-.37-3.3.2C159.78,12.12,153.18,32,148.54,33c-9.72.79-19.22,1.66-28.66,2.45-.5,0-.22.36,0,.36l-20.16-.5-47.21-1.8L49,33.61l-4.72.59c-.36.22-1,.65-1,1l-2.59,2.3,1.51-1.87c-.43-.79.58.79-.29-.22l-6.55,4.82a1.22,1.22,0,0,0,1.73.14c1.08-.65,2-1.87,3-2.38-1.22.94-2.45,3.17-4.25,3.31a2.4,2.4,0,0,0-2.59.07A18.19,18.19,0,0,0,31.54,43c-6,3.16-15.63,3-20.22,8.62a3.92,3.92,0,0,0-.58,4.18c8.7,7.29,24.89,5.61,37.14,6,16.34.54,32.12.62,48,.12.36-.14,1.39.09,2.18,0,.29-.5.48-.61.19-1.26h-.94c-.07.14-.14.5-.5,0-2.88.22-6.26.65-8.5-1.51-.58-.14-1-.65-1.58-.65a1.3,1.3,0,0,0,.72-.14c.29-.14.29-.58.29-.86.43-1.22,2.09-1.3,3.31-1.73,13.9-1.37,27.5-.58,41.26-2.45.65-.14-.58-.22,0-.43-14.83-5.33-33.77-1.87-50.18-3-.07.14,0,.43,0,.65s-.5.29-.5.65l-.29-.79c.14,0,0-.22.22-.36-1.73-.94-4.1-.14-6.12-.43-.29,0-.29.43-.5.72.29.36-.36.07-.36.5,0,.07,0,.29.14.36-.29-.36,0-1.15-.43-1.58l-18-.5-24.55-.5c-.07,0-.58-.22-.22-.5L33.26,48c.43,0,.43-.43.72-.72,4-1.3,8.21,0,12.17-.29.14.29.14.07.29.36l1.8.29c.14-.29-.07-.36-.36-.58l2.38-.07c.22.07.29.29.5.36.29-.22.79.22,1.08-.07a.56.56,0,0,0,.14.36c.36,0,.5-.36.79-.58l2.59-.07c.07.29.5.36.79.14.43.14.43.5.79.5.14,0,.43,0,.43-.14s-.22-.14-.29-.36h2.59a.78.78,0,0,0,.22.5h1.15c.29,0,.43-.07.29-.36h4c.07.22.07,0,.29.36h2.09a.28.28,0,0,0,0-.36H70.2c.14,0,.36.22.5.36s.29-.14.58-.36c.22.07.07.07.36.29a5.36,5.36,0,0,1,2.66-.29c.29-.14.43-.43.65-.79L74.88,44l-.94-5c-.5-.22-.58-1-.86-1.44-.5,0-.14-.58-.14-.86l1.8-.29.65.36a1.07,1.07,0,0,1-.65.14l-.79.65L74.09,39c.58.36.36,1.87.86,2.45.43,2,0,3.82.5,5.69l6-.07a2.12,2.12,0,0,0,.58-.58s0-.5-.29-.43v-1.8c-.43.5,0,.58.14,1l.14,1.51c4.46,1.08,9.29.5,14.11.72,0,.07.14.14.36.29l4.61-.29c.14.07.22.14.5.29.29-.22.29-.22.72,0l3.89-.14h-1c-.29,0-.36.22-.29.43l4.39.07v-.36h-.79l4.1-.14H110.3c-.86.43.29.79.43,1.22l.72-.43h2.88c.22-.07.43-.14.22-.43s-.5-.14-.86-.22l9.58-.29c.5-2.23-.72-5.83,1-8.21.72-1.15,1.51-1.51,2.23-2.45-.22-.36-.72,0-1-.29A103.64,103.64,0,0,1,143,37.94c5.18.36,8.35,4.1,13.61,4.25,1.08.5,2.3.22,3.17.72a21.73,21.73,0,0,1,5,1.08c.22-.5-.43-.65-.43-1.15l.65-4-3.1-.58-6.48-.43c-.5,0-.43-.65-.43-1.15a5,5,0,0,1,.72-.86L171.5,32c.36,0,.25.22.4-.29l.43-2.81,4.28-26.54-6-.46Zm.58,7.27a7.4,7.4,0,0,0-.07,1.3l.86-.22a1.16,1.16,0,0,1,.65.22c-.5.14-1.44,0-1.73.79L171,9.22Zm-1.8,1c0,.07.07.14.29.29,0,.36-.43.14-.72.14s-.22-.14,0-.43c0,0,.5-.29.43,0Zm.58,5c.07.29.29.36.36.79.07,0-.43.58-.29.29-.43.36-.43,1.3-.65,2.09l.58-3.17ZM168.19,24a1.62,1.62,0,0,0-.07.86c.07.07.22.29.36.43s.36.36.5.79a1.52,1.52,0,0,1-.22.5l-.94.5-.79,3.1,1.15-6.34V24Zm.36,1.94v.36c-.36.22-.36-.29-.14-.5l.14.14ZM199,28.3h.65c.22,0,.72.14.29.58L195.26,30l3.6-1.3c.07-.07-.14-.43.14-.36Zm-4.61,1.8-1.08.36a1.77,1.77,0,0,1,1.08-.36Zm-1.87.5-.14.14c-.22-.07-.5.14-.72.14.07-.14.72-.29.86-.29Zm-1.8.5-.07.14-.86.22a1,1,0,0,1,.94-.36Zm-23.9,0-.29,1.15.29-1.15Zm21.38.58h.43l-.86.29a4.41,4.41,0,0,1,.43-.29Zm-1.87.58a.91.91,0,0,0,.43-.07l-.86.22a1,1,0,0,0,.43-.14Zm-1.44.43L184,33a2.35,2.35,0,0,1,.94-.29Zm-1.94.58a5.86,5.86,0,0,0-.65.14l.65-.14Zm-1.73.43-.14.14c-.14-.07-.5.22-.72.14.07-.14.72-.29.86-.29Zm-1.87.58-.14.14h-.72c.07-.07.86-.29.86-.14Zm-133.13.22,8.14.36a12.11,12.11,0,0,1-.07,9.5l-2.3-.5-3.31-1c0-.29.5-.22.72-.36V42a26.36,26.36,0,0,0-8.86-1.22c-.65.22-1.15,1.08-2.16.79,1.15-2.66,4.46-4.32,6.48-6.77l1.37-.29Zm10.58.07,2.88.29a24,24,0,0,1,2.16,3,22.23,22.23,0,0,1,1.94,5.83l-3.6,1L58.46,42,59,44.42l-2.38.07V40.9c0-.07.14-.5.29-.5.43-.79-.43-1.15-.58-1.87L56,34.92l.65-.43.14.07Zm120.38.22c-.07.36-.36.07-.65.29l.65-.29Zm-123.12.94c.43,2.38.94,4.54.29,7l.07-5.33-.5-1.73.14.07Zm67.68.36.86.14-.86-.14ZM46,36.22l1.8.29-1,2.38c-1.15,1.3-3.53.79-5.33.94-.14-.14-.43-.14-.43-.5l3.1-2.81L46,36.22Zm77.69.14.94.07-.94-.07Zm-47.23.43h-.29c-.14.43,0-.07.14-.07l.14.07Zm1.94.22a2.09,2.09,0,0,1,1.8.86V39.1c0,.29.58.58.79,1,0,.36-.5.58-.22,1.08.22,0,.29,0,.36-.22l.5,1.87c0,.36-.5.43-.5.86.14-.72-.29-1.22-.07-2-.07-.22-.22-.22-.43-.43A5,5,0,0,0,78.26,37Zm89.93.29h.14c-.07,0-.29.07-.58.14a1,1,0,0,1,.43-.14Zm-37,.36a71.39,71.39,0,0,1,15.55,1.66c.5.29,1.08.29,1.51.5l.94,1.44a8.3,8.3,0,0,1,.86,4.46A3.53,3.53,0,0,1,150,46.8l-17.5.14c0-.14-.22-.14-.36-.29a1,1,0,0,0-.79.79c0,.14,0,.5.29.58l4.46.22c.29-.14.29-.22.5-.43l4.1.14c.22,0,.22.14.5.29.22-.14.22-.22.5-.43l3.1.22c.29.5,0,.07-.29,0-.29.29-.29.29-.72,0h-4.32c-.29.29-.29.29-.65,0-.29.29-.29.29-.72,0h-6.77c-1.15.86-2.45,2.3-4.18,1.58s-2.59-2.16-3.17-3.89a2,2,0,0,0-.14-1c.43,1.3,1,2.59,2.52,3.1,1.3.65,2.3-.07,3.1-.58a6.85,6.85,0,0,0,.94-6.48,1.22,1.22,0,0,1-.22-.5l1,3.74a1.67,1.67,0,0,0,1.51.86l-.22-3.24h-.36l.07,1.73c-.43.14-.22-.22-.07-.5s-.22-.22-.43-.43l-.36-1.66c-.07-.22-.29-.36-.36-.5s0-.5-.07-.72c-.22-.43-.72-.58-1.15-1l1.87,1.58c.07,0,.29,0,.36-.07l-1.44-2.09a2.16,2.16,0,0,1,.72-.29ZM76,38.45l1.73.14a7,7,0,0,1,1,5.62l-1.8.22a2.37,2.37,0,0,1-.58-1.8c-.36-1.22-1-2.81-.5-4.18Zm6,.36h1.37a7.36,7.36,0,0,1,2.23,5.47c-.65.5-1.44.07-2.23.07,0-.07-.07-.14-.29-.36l-1.22-5.18ZM88,39a2.9,2.9,0,0,1,1.87.43c.79,1.22,1.8,3.46,1.37,5.26l-1.87.07c-1.22-1.37-1.44-3.31-1.94-5.33A.57.57,0,0,1,88,39Zm78.12.07,4,.14c.14.14.36.29.43.43l-.5,1.87c0,.72.22,1.58-.36,2.09l-3.17-.58c-.43,0-.72-.5-1.3-.29l.29-3.31c.14-.07.29-.5.58-.36Zm-72.65.43,2.16.14c.72,1.3,1.73,3.1,1.37,4.82-.43.43-1.3.29-1.87,0l-1.8-4.9.14-.07Zm6.34.22,1.87.43a8.8,8.8,0,0,1,1.8,4.75l-2.3-.14L99.43,40c0-.22.22-.29.36-.29Zm6.7.58,1.37.07a6.93,6.93,0,0,1,1.8,4.82c-.43.5-1.08,0-1.8.14l-1.94-4.46c0-.14,0-.5.29-.58Zm25.63.43a1.07,1.07,0,0,1-.07.43c.07-.14-.29-.86.07-.43Zm-74.66,0c.29.14.36.43.58.86l-.58-.86Zm94.25.86,3.38.79,4.25.94c3.24,1,7.56.65,9.5,3.53a.8.8,0,0,0,.22.5c-.22.29-1,0-1.3-.07l-6,.58a.41.41,0,0,0,0,.43l.86.14-5.18.22a.28.28,0,0,0,0,.5l2.38.07h-6.7l3.1-.07a.28.28,0,0,0,0-.5l-3.1-.07,2.45-.5c.07-.14.5-.14.36-.5s-.79-.14-1.15-.22l1.66-1.08a1.58,1.58,0,0,0,.79-1.3l-5.62-3.31.07-.07Zm0,1.58h.79l2.38,1.08-3.31.07c-.43,0-.43-.36-.65-.79,0-.36.43-.29.72-.43l.07.07Zm13.54.43c.43.65,1.94,0,2.59.79l1.66.14a.66.66,0,0,1,.22.65l-1.22-.72-3.38-.86ZM154.51,46a1.09,1.09,0,0,0,.14.58c-.14.29-.5.29-.94.36-.29-.5.36-.79.65-1.08l.14.14Zm-28.73.5a2.71,2.71,0,0,0,1.15.29c.22.07.22.14,0,.36l-1.22-.65Zm-80.5.72h0Zm3.82.07h0Zm4.1.22,2.16-.14-1,.07c-.36.5-1.15.36-1.8.43-.14-.29.07-.29.36-.43a.43.43,0,0,1,.29.07Zm5.4-.07c-.14,0-.36.07-.58.07a1.79,1.79,0,0,0,.58-.07Zm97.92.29a.86.86,0,0,0,.29.29l3.74-.22c-.14.07-.43.07-.65.29L156.24,48c0-.14,0-.36.29-.29ZM92.81,48h0Zm1.87,0c.14-.07.43,0,.65-.07a2.78,2.78,0,0,0-.65.07Zm3.1,0h0Zm5.33.07h0Zm12.24,0,1.87.14c.22-.22.58.14.86,0a3.21,3.21,0,0,1,1.66,0l-3,.22a1.07,1.07,0,0,1-.07.43c-.29.14-.29-.36-.29-.43,0-.36-1.37-.36-1.08-.36ZM121,48l.14.14c-.14.22-.29-.07-.58-.07.07-.07.29-.07.43-.07Zm-54.14.07c.07-.07.43,0,.65-.07-.22.07-.5,0-.65.07Zm79.13.22,1.66-.07-1.58.14-.07-.07Zm3.1-.22a.37.37,0,0,1,.14.29c0,.29-.29.14-.58.07s.29-.36.43-.36Zm16.78.43,2.38-.07c0,.43-.58.07-1,0l-1.37.07Zm42.26,1.22c.14.29.43-.07.79,0L161.35,56c-9.58,1.58-19.58,2.59-29.45,4-4.25.58-8.68.87-12.57,1.3A118.65,118.65,0,0,1,106.2,62H98.78l-.07-.86c.5-.58,1.44-.22,2.3-.29,0-.14.29-.43.36-.5L106,60l10.08-1.15c.22,0,.14.29.5.29s.22-.14.43-.36a1,1,0,0,1,.79.22l6-1,13.61-1.22,10.08-.86,60.7-6.19Zm-60.26,1.08,6.48.36c-6.62.72-14.26,2.23-20.66,1.08L132.12,52c-.43-.07-.43-.22-.79-.5l16.56-.65Zm24.7.07h.58l-2.23.07c.58.07,1.08-.14,1.66-.07Zm-3.1.29c.14,0,.36-.14.58,0l-2.16.07c.5,0,1-.07,1.58-.07Zm-2.38.14-13.9,1.08,13.9-1.08ZM81.36,52v1.58c0,.5-.36.65-.79,1,0,.14.14.5.43.36,0,.22,0,.29-.22.43a3.68,3.68,0,0,1-.22-1.51c.43-.29.72-.5.79-1V52Zm70.85.5a1.49,1.49,0,0,0-.43.14s.29-.22.43-.14Zm-3.6.36,2.16-.07c-20.45,1.51-40.82,4.1-61.42,4.54q-.22-.11,0-.43c13.61-2.45,27.22-.43,40.82-2.74,6.34-.43,12.38-1,18.43-1.3Zm-74.3.29-.07.07v1c-.29-.22,0-.72,0-1.08ZM8.06,55.94l.86.07-.86-.07Zm72.22.14c.14.07.14.14.14.36.14-.29-.22-.22-.5-.07,0-.22.29-.36.36-.29Zm-.5,1,.07,1.3c-.14.86-2.81.86-4.32.79-1.3-.22-2.52.14-3.53-.43.14-.07.22-.29.43-.36a.15.15,0,0,1,.14.14l4.46.22c.14-.36,1.08-.07,1.58-.29l1.15-1.37Zm22,3.53c0,.07.14.14.36.29-.36.29-.43-.65-.36-.29Z"/></g></g></svg>