<svg xmlns="http://www.w3.org/2000/svg" viewBox="0 0 118.76 24.92"><defs><style>.cls-1{fill:#231f20;fill-rule:evenodd;}</style></defs><title>CIT-X</title><g id="Layer_2" data-name="Layer 2"><g id="Layer_1-2" data-name="Layer 1"><path class="cls-1" d="M55.74,24.92c1.42,0,1.66-2,3.26-1.62.77,0,1.37.17,2.07.17.27,0,.41.34.51.53a.9.9,0,0,0,.8.14l.34-.43c4.92-.17,10.06,0,15-.58,4.56-.8,8.85-1.54,13.36-2.27.94-.27,1.71-.48,2.65-.72,2.68-.63,5.23-1.06,7.81-1.83,4-1.11,8.18-1.21,12.25-1.93,1.64-.24,3.55-.34,4.66-1.45a2.76,2.76,0,0,0,.31-.92c-.14-.1-.17-.19-.22-.39a9.21,9.21,0,0,0-4-1.69c-1-.24-2-.6-2.92-.72-4.37-.24-6.63-3.74-10.76-3.5-1-.14-2-.1-3-.14-.29,0-.55,0-.82,0-1.76.1-3.5.29-5.21.43-2.53.51-5,.19-7.45.7-3,.41-6,.77-8.95.94-3.18.19-6.37.53-9.48.7l-.68-.77a.77.77,0,0,1-.14-.19c-.29-.41-.89-.14-1.4-.41l-.12,0a.44.44,0,0,0,0,.58c.19.41.63.58.53,1l-1.54.19c-.36-.89,0-2.44-1.13-3-1.25-.41-2.46,0-3.64-.24-.55.27-1.06.1-1.54.34A67.25,67.25,0,0,0,48.6,9.09c-3.26.07-6.9,2.12-9.65.39A30.82,30.82,0,0,0,34.8,7c-1.64-1.09-3.33-1.93-5-2.89a.88.88,0,0,0-.34-.24c-.36-.1-.7-.31-1.13-.48C26.31,2.29,24.14.82,21.63.82a1.47,1.47,0,0,0-.8-.82l-.29.07c-.1.27,0,.65-.22.87l-3.09.77C11.58,2.63,5.69-.27,0,1.54a1.36,1.36,0,0,0,0,.17c.53.36,1.42.27,2.15.58A26.28,26.28,0,0,1,7.77,3.35a11.94,11.94,0,0,1,1.57.53c-.29.51-1.28.51-1.45,1.33.07.22.14.36,0,.55l.24.48L10.3,7,7.77,8.39v.22l2.68.17c1.47-.43,3-.82,4.51-1.3,3.26-.58,4.63,3.33,7.19,4.82a5.1,5.1,0,0,0,.87.89c1.28,1,2.05,1.91,3.18,2.87l.53,1.45.63.68c2,1.25,4.66,1.76,7.12,2.34,3.71.77,7.6,1,11.14,2l-4.15,1.06c0,.1,0,.12,0,.22a1,1,0,0,0,.6.39c.07,0,.12.12.17.19.72-.14,1.37,0,2.12-.19A23.29,23.29,0,0,0,47,23.9c.1-.07.22-.07.31-.14a.63.63,0,0,0,.27.07c1.54-.43,3.21-.34,4.85-.7a30.72,30.72,0,0,1,3.67.07.15.15,0,0,1,.1.17c-.24.39-.75.7-.65,1.3.07.17.07.1.12.19s0,0,.1,0Zm.51-.58,1.06-.94a.68.68,0,0,0-.43-.1l-.75,1,.12,0Zm-12.83-.58,5.91-.8L48,22.84l-4.51.77c0-.07-.29.19,0,.14ZM66,23.28c4.51-.27,9.07,0,13.55-1a108,108,0,0,0,12.33-2.15c1.11-.12,2.07-.53,3.18-.7,1.45-.39,2.89-.55,4.29-1s3-1.11,4.49-1.21c4.63-.84,10-.6,14.21-2.58l.17-.31a1.8,1.8,0,0,0-1.06-1c-3.3-1.33-6.75-1.81-10.15-2.85h-.17c-.75.43-1.74.17-2.58.53-.7-.22-.84-1-1.47-1.4a.41.41,0,0,1-.07-.17V9.19L104,8.85c-2-1-4.87-.68-7.21-.8-2.82.29-5.6.55-8.27.8a33.78,33.78,0,0,0-5.86.6c-.77,0-1.47.41-2.17.31-2.56.14-5,.39-7.48.6a57.74,57.74,0,0,0-6.51.58c-1.25.39-2.53,0-3.74.39l-.41,2.05-.46.7a6.62,6.62,0,0,0,2.58.34l.34.17c1.16-.19,2.36-.19,3.57-.41,1.45-.07,2.89-.22,4.29-.34,11.79-.77,23.52-1.86,35.24-1,2.17,0,4.22.51,6.34.48.14,0,.14.27.27.43a.19.19,0,0,1-.12.12,33.11,33.11,0,0,0-6.56-.46c-4.44,0-8.78.22-13.17.53-3.88.29-7.69.41-11.5.72-3.14,0-6.2.41-9.29.55a25.81,25.81,0,0,0-3.38.34c-.07,0-.07,0,0,.12.6.14,1.06.27,1.81.43a13.66,13.66,0,0,0,1.5.31,18.9,18.9,0,0,1,2.12.27,30.78,30.78,0,0,1,3.79.43c1.23.29,2.51.17,3.62.68a.72.72,0,0,1,.12.48.68.68,0,0,1-.41.41c-.7.1-1,.75-1.76.94-.75.43-1.71.63-2.46,1a28.33,28.33,0,0,1-6.39,1.4c-.46,0-.87.17-1.3.17-1.57.12-3-.17-4.58,0a12.13,12.13,0,0,1-3.11-.14c-.92,0-1.69.19-2.53.17a.59.59,0,0,1-.22-.27v-.27l-2.29-3.4c-.31-.14-.58-.29-.87-.46-1.13-.24-2.24-.75-3.33-1a26.42,26.42,0,0,0-4.15,0c-3.42-.55-6.73.14-10.08.1-1.88.24-3.71,0-5.52.41-2.12.14-4.1.19-6.2.43a1.09,1.09,0,0,0-.19.07c2.1,1.37,5.09,1.88,7.77,2.41,4.51.72,8.95,1.64,13.39,2,.84,0,1.59.19,2.39.14l.29.1L66,23.28Zm1-1.59c1.76-.27,3.52.17,5.28-.12.92-.1,1.74-.34,2.58-.34a26.84,26.84,0,0,0,3-.84c1.62-.55,3.43-1.06,4.49-2.15-3.55-1-7.45-.77-11-1.74a47.24,47.24,0,0,0-5.33-1c-.77-.27-1.4-.34-2.07-.51-1.06-.14-2.15-.27-3.16-.36-.55-.17-1-.14-1.52-.31-1.57-.29-3.11-.34-4.63-.68-.48,0-.94-.29-1.35-.29-4.56-.7-9-2-13.51-1.81-.07,0-.07.07,0,.12l18.77,5.91,2.73,3.91,4.8,0,1,.12ZM30.34,17.2l5.76-.43c-.53-.19-1.13.17-1.71-.07a14.76,14.76,0,0,0-3.76.43l-.36,0,.07,0Zm-2.56-.46,6.37-.68c-2.19-.51-4.66.07-7,.07a.86.86,0,0,0-.14.46l.77.14Zm9.29,0,3.81-.29c-.8-.31-1.52,0-2.36,0L37,16.69c-.07.07.07.12.1.07Zm7.38-.63,6.66-.22c0-.29-.63-.27-.87-.43-3.26.14-6.37,0-9.5.31l3.71.34Zm-4.22-.7L49,15.17c-1.18-.6-2.7-.07-4.1-.22-2.17,0-4.15,0-6.3-.12-.17,0-.1.27-.14.39a.4.4,0,0,0,.31.17l1.45,0Zm-3.26,0,.84-.07-.43-3.57s0-.1.1-.17c.29,0,.7,0,.87-.31a.41.41,0,0,1,.1-.17l1.35-.36s0-.14,0-.22a43,43,0,0,0-5.28-3.16A78.16,78.16,0,0,0,23.85,1.71a6.22,6.22,0,0,0-2.7-.29,15,15,0,0,0-3.33.63,55,55,0,0,1,7.62,1.21c.17.14,0,.53-.07.7-1.76.65-3.83.53-5.74.58-1.16-.14-2.22.27-3.18.12-1.21.14-2.24-.1-3.45,0-1.54-.14-3.26-.75-4.39.39l0,.84c.53.27,1.13.27,1.71.58.36,0,.6.24.89.07s.27.17.41.27c.87.19,1.78,0,2.68.22,1,0,2-.63,2.92-.27.1.7.84,1.25,1.3,1.78a3.87,3.87,0,0,0,.8.58l.29.22c.29.1.48.39.8.53a23.77,23.77,0,0,0,4,2.56c2.12.72,3.86,2,6.08,2.32a8.9,8.9,0,0,1,1.81.53c1.57,0,3.14-.1,4.68.07Zm32.08,0L75,14.76l19-1.11c-1.69,0-3.38-.07-5.09,0-2.24.31-4.41.36-6.63.46s-4.56.24-6.83.41a50.8,50.8,0,0,0-6.39.8c-.1,0,0,.07.07.07Zm-1.78-.29,3.09-.43,4.27-.43-8.76.6,1.4.27Zm-22.82-.43,2.44-.14a85.24,85.24,0,0,0-8.37-2.61l-.27.24.12,2c.84.6,2,.14,3,.41a21.85,21.85,0,0,1,3.09.07Zm31.89-.58s.1,0,.17,0l-.17,0ZM60.66,14l1-.77A13.53,13.53,0,0,0,61.22,10a13.24,13.24,0,0,0-.6-1.81c-6.51-.19-13,1.59-19.56,2.63.12.19.55,0,.82.14,6.32.7,12.59,2.34,18.79,3Zm17.05,0c3.09-.14,6.1-.14,9.19-.51a53.05,53.05,0,0,1,6.2-.22c1.23,0,2.34,0,3.55,0,2.22-.12,4.29,0,6.44-.12-3.4-.36-6.68-.12-10.13-.17-5.11.31-10.11.51-15.24,1.06Zm-6.22-.29.7-.22c0-.07.14-.1.17-.24a1.82,1.82,0,0,0-.7-1.35l-.51.12a1.66,1.66,0,0,0,0,1.47c.1,0,.17.22.36.22Zm23.44,0,1-.07-1,.07ZM75.3,13.22,76,13c.07,0,.14-.1.22-.17l-.43-1.25c-.22-.12-.43,0-.65.1-.39.27-.19.94-.1,1.4a.35.35,0,0,0,.27.17Zm3.88-.41.82-.27s0-.1.1-.12l-.27-1.09c0-.24-.39-.17-.58-.1L79,11.5l.12,1.28a.14.14,0,0,1,.1,0Zm4.17-.39a.8.8,0,0,0,.6-.17l0-1.25a.49.49,0,0,0-.27-.17l-.8.22L83,12.16a.69.69,0,0,0,.39.27Zm3.71-.34a1.4,1.4,0,0,0,.8-.17l-.27-1.18c-.07-.14-.31-.07-.43-.1l-.36.31,0,.89c0,.07.07.24.24.24Zm4.15-.24h.29c.46-.27.17-.94.29-1.37a1.07,1.07,0,0,1-.12-.14l-.29-.17-.58.27a1.24,1.24,0,0,0,.07,1.25l.34.17ZM102.1,11l1.28-.12L102,9.31h-.24c-.27.39,0,1.16.22,1.59a.16.16,0,0,1,.12,0Zm-37-.39a.31.31,0,0,0,.24,0l-.63-.75c-.07,0-.14-.07-.24,0l.29.68.34.17ZM61.77,10a.35.35,0,0,0,.07-.27l-.36-1.33a.25.25,0,0,0-.27,0L61.77,10Zm-52-1.69,3.5-.72-2-.48-2,1.11.51.1Zm3-4.22c2.92,0,5.91,0,8.85-.24a12.18,12.18,0,0,0,2.68-.19,9.62,9.62,0,0,0-2.75-.55,29.71,29.71,0,0,0-5.76-.55c-.27,0-.29-.12-.51-.17-4.44,0-8.92-1.57-13.46-.77,1.57.65,3.55.41,5.26,1.18,1.37.27,2.51.68,3.86.87a7.22,7.22,0,0,0,1.83.43ZM21,.82l0,0c0-.1-.14-.27-.19-.12s0,.19.14.17Z"/></g></g></svg>