<svg xmlns="http://www.w3.org/2000/svg" viewBox="0 0 138.91 65.03"><defs><style>.cls-1,.cls-4,.cls-5{fill:none;}.cls-1,.cls-3,.cls-4,.cls-5,.cls-7{stroke:#231f20;}.cls-1,.cls-3,.cls-7{stroke-width:0.62px;}.cls-1,.cls-2,.cls-3,.cls-4{fill-rule:evenodd;}.cls-2,.cls-6{fill:#231f20;}.cls-3,.cls-7{fill:#fff;}.cls-4,.cls-5{stroke-width:0.31px;}</style></defs><title>CIT-Bravo</title><g id="Layer_2" data-name="Layer 2"><g id="Layer_1-2" data-name="Layer 1"><path class="cls-1" d="M21,31S12.21,29.79,7.83,28.8a19.73,19.73,0,0,1-5.87-2A3.36,3.36,0,0,1,.31,24.67a4,4,0,0,1,1.4-2.89,24.66,24.66,0,0,1,7.19-3.31,69.56,69.56,0,0,1,9.92-1.57c1.49-.08,2.23-.17,2.23-.17s4.71-2,6.69-2.64A17.65,17.65,0,0,1,33.21,13c.83,0,2.79.14,4.73.32s3.86.38,4.61.51c1.49.25,30.17,3.64,30.17,3.64l9.67,1.41,35.54,8.76-.41.83a55.4,55.4,0,0,1-5.87,1.9c-1.24.16-4.55.41-4.55.41S96,31.2,94.53,31.94s-6,3.39-6,3.39L85.19,37l51.24,26.94s-4.46.58-5.87.75a2.76,2.76,0,0,1-1.9-.25,5.35,5.35,0,0,1-.83-.33L62.71,33.93,42,32.44C38.74,32.19,21,31,21,31Z"/><path class="cls-1" d="M25.11,1.2c-.41-.5.41-1.07,1.74-.83l4.55.83L51,14.75,40.4,13.59l-2.73-.33Z"/><polygon class="cls-2" points="40.07 13.35 37.94 13.34 25.77 1.69 27.09 1.69 40.07 13.35"/><path class="cls-1" d="M62.38,33.76s-.83-.5-1.07-.66.58-1.65,4.13-1.4S76.18,34.09,79.16,35s6,2,6,2"/><path class="cls-1" d="M84,19l21.9-.41s3.14-.58,4.3-1.82S123.71,2.6,123.71,2.6a5.77,5.77,0,0,1,4.21-.33c2.23.74,3.64,1.07,3.64,1.07l-13.64,24.3Z"/><path class="cls-1" d="M95.28,8.72a14.23,14.23,0,0,1,3,.16c.91.25,2.89.91,2.89.91l9.09,7a14.74,14.74,0,0,1-1.9,1.24,9.08,9.08,0,0,1-2.4.58Z"/><path class="cls-3" d="M110.07,21.2c.08-.5,1.57-.41,2.07-.25s8.51,1.74,8.51,1.74l18.18,5A22.34,22.34,0,0,1,134,27.4c-2-.41-23-5.62-23.64-5.62S110.07,21.2,110.07,21.2Z"/><polygon class="cls-2" points="135.69 27.4 134.37 27.4 109.91 21.61 110.4 21.2 135.69 27.4"/><polygon class="cls-2" points="106.6 18.39 105.44 18.55 95.28 8.72 96.19 8.72 106.6 18.39"/><path class="cls-2" d="M76,40.21s-.25-.74.41-1A3.41,3.41,0,0,1,77.51,39l49.84,23.72-.74.74Z"/><path class="cls-2" d="M38.83,23.84l-1.16-4.3s.66-2.07.74-2.56l.08-.5a19.48,19.48,0,0,1,2.31-.08,6.09,6.09,0,0,1,1.32,3.47,17.91,17.91,0,0,1-.5,4Z"/><path class="cls-2" d="M36.26,24.17c-.74,0-1-.17-.58-.74s.66-1.32,1-1.74.74-.25.91.33A12.78,12.78,0,0,1,38,23.43c.08.5,0,.74-.66.74Z"/><path class="cls-2" d="M30.31,22.11l.83-.74-4.3-2.89-1.24.41L25,18.47l6.12-3.88a2.65,2.65,0,0,1,1.9.33,10.4,10.4,0,0,0,2.73.91c.5.17,1.16.33,1.16.33a23.58,23.58,0,0,1-.58,4A9.51,9.51,0,0,1,34.86,23c-.41.58-.74,1-1.74.58S30.31,22.11,30.31,22.11Z"/><path class="cls-2" d="M23.95,17.89l-.5-.33L24.2,17l-2-.66s6.61-2.89,7.19-3l1.16-.16.91,1Z"/><path class="cls-4" d="M47.34,32.52s-.41-.25-.33-.5a24.63,24.63,0,0,0,2.48-2.89,17.93,17.93,0,0,0,1.57-6.28c0-1.07-.08-2.64-.17-3.39s.33-.91.91-.91a18.17,18.17,0,0,1,2.31.25c.41.08,1.24.58,1.4,2.15a23.47,23.47,0,0,1-.33,6.7,13.94,13.94,0,0,1-1.9,3.88,2.63,2.63,0,0,1-2,1.32A37.86,37.86,0,0,1,47.34,32.52Z"/><path class="cls-2" d="M52.3,24.67A19.34,19.34,0,0,1,52,22.44a15.55,15.55,0,0,1,.25-1.9H54a5.87,5.87,0,0,1,.66,2.65,4.08,4.08,0,0,1-.5,1.49Z"/><path class="cls-2" d="M57.42,25.17a19.33,19.33,0,0,1-.33-2.23,15.58,15.58,0,0,1,.25-1.9h1.82a5.87,5.87,0,0,1,.66,2.64,4.11,4.11,0,0,1-.5,1.49Z"/><path class="cls-2" d="M61.8,25.83a19.28,19.28,0,0,1-.33-2.23,15.58,15.58,0,0,1,.25-1.9h1.82a5.86,5.86,0,0,1,.66,2.64,4.09,4.09,0,0,1-.5,1.49Z"/><path class="cls-2" d="M66.1,26.16a19.37,19.37,0,0,1-.33-2.23A15.55,15.55,0,0,1,66,22h1.82a5.86,5.86,0,0,1,.66,2.64,4.09,4.09,0,0,1-.5,1.49Z"/><path class="cls-2" d="M70.65,26.65a19.29,19.29,0,0,1-.33-2.23,15.58,15.58,0,0,1,.25-1.9h1.82A5.87,5.87,0,0,1,73,25.17a4.09,4.09,0,0,1-.5,1.49Z"/><path class="cls-2" d="M74.86,27.07a19.26,19.26,0,0,1-.33-2.23,15.58,15.58,0,0,1,.25-1.9H76.6a5.88,5.88,0,0,1,.66,2.65,4.08,4.08,0,0,1-.5,1.49Z"/><path class="cls-1" d="M69.08,17.07s.25-2.23,1.57-2.4a40.27,40.27,0,0,1,7.85.74c2,.41,6.28,2,6.28,2a2.17,2.17,0,0,1,1.08.83l.33.58L84,19l-9.84-1.4C71.89,17.31,69.08,17.07,69.08,17.07Z"/><path class="cls-3" d="M88.75,24.42a30.37,30.37,0,0,1,3.39.09c1.41.17,4.3.83,6.2,1.24a37.67,37.67,0,0,1,4,1.16c.5.16,1.57.91,1.57,1.74a17.58,17.58,0,0,1-.41,4.46,2.47,2.47,0,0,1-1.32,1.49,41.44,41.44,0,0,1-8.68.16c-3.31-.5-5.12-1.07-6.12-1.9a7.19,7.19,0,0,1-1.9-4.79c.08-1.57,1.32-3.31,2.48-3.55A5.27,5.27,0,0,1,88.75,24.42Z"/><path class="cls-5" d="M87.42,32.85s2.64.16,3.39-1.41a8.59,8.59,0,0,0,.83-4.38,2.91,2.91,0,0,0-.83-1.9,8.32,8.32,0,0,0-1.32-.83"/><path class="cls-5" d="M72,14.59s1.24.74,1.32,1.57a3.47,3.47,0,0,1-.08,1.32"/><path class="cls-6" d="M69.74,17.15S69.82,15.5,71,15.5s1.07,1.82,1.07,1.82Z"/><path class="cls-6" d="M88.33,25c1.08.08,2.4,1.82,2.15,3.47s-1.16,2.81-2.4,2.89-1.9-2-1.74-3.39a3.74,3.74,0,0,1,1.24-2.48C87.92,25.25,88.33,25,88.33,25Z"/><path class="cls-7" d="M104,28.64l1.74.33A4,4,0,0,1,107,30.45l.25.74a6.2,6.2,0,0,1,1.41.25,1.74,1.74,0,0,1,.58.58,3.94,3.94,0,0,1-1.57.83c-.83.16-4.13.25-4.13.25a17.11,17.11,0,0,0,.41-2.56A11.19,11.19,0,0,0,104,28.64Z"/><path class="cls-7" d="M99,25.91"/><path class="cls-2" d="M86.27,31.61,26.76,28.72c-3.31-.16-15.29-1.4-15.29-1.4l7.61.17L85.28,29l.33,1.16-54.22-1.9L24.11,28l61.66,2.81Z"/></g></g></svg>