<svg xmlns="http://www.w3.org/2000/svg" viewBox="0 0 188.83 85.81"><defs><style>.cls-1{fill:#231f20;fill-rule:evenodd;}</style></defs><title>CIT-V</title><g id="Layer_2" data-name="Layer 2"><g id="Layer_1-2" data-name="Layer 1"><path class="cls-1" d="M171.09.07c1.44-.36,3.17.86,4.75.43,1.73,0,3.38-.72,4.82-.29L172,29.3c4.9,2.23,11.74,2.45,16.7,5.26.22.29,0,.58-.14.79-1,.29-2.45.29-3.6.72-5,1.58-10.15-1.15-14.76-.5l-2.52,6.7c-7.27,3.1-16.2,5-24.19,6.48-.79.22-.86,1.08-1.37,1.73-5.62,2.23-12.53,3.17-17.21,6.84,10.87,8.93,22.9,16.85,34.49,24.84a.49.49,0,0,1-.22.36,41.77,41.77,0,0,1-18.5,3.24C119.83,76.53,100,59.32,73.89,63.64c-20.09,4.1-40.18,8.28-60.19,8.57C8.52,71.35,2.9,70.05,0,66.74-.13,65.63.49,63,1.75,62.56a165.6,165.6,0,0,1,23-9.72c10.22-11.59,28.44-9.72,43.2-12.31-3.82-5.62-10-9.86-14.62-15.62v-.65c3.74-.79,8.35-1.3,12-.14,9.5,4.54,17.28,13.61,28.51,14.62a1.6,1.6,0,0,1,.36-.29l2.3-4.1c14.11-4.68,29.45.86,43.92-4.18,2.23-.5,5.18-.43,6.48-2.3-1.87-4-8.28-6.84-8.35-11.3,2.38-1.15,5.4-.72,8.06-.79l7,4.9c4.9-5.76,8.06-12.6,12.6-18.5l3.24-.94c.07-.22.22-.29.36-.5l1.3-.65Zm5.11,1.66h2.59l-8.57,27.14c-5.62,0-11.81-.36-16.78,2-.43.43-.43.5-.5.79a1.41,1.41,0,0,0,.86.94l14,2.66c-8.5,1.22-17.71.65-26.71.94-.29-.5,1-1.22.72-2.09-.22-.5-.22-.86-.43-1l-.86-.72c3.38-1.87,8.28-1.73,10.87-4.54,8.21-5.18,10.37-15.77,16.27-22.9.14-.79-.5-1.08-.29-1.66l8.78-1.58Zm-32.4,15.34c3.46-.07,5.47,2.74,8,4.75.07.43.14.65.36.72l-2,3.17-8.28-8.21c.36-.43,1.3,0,1.94-.43ZM62,24.84c9.07,2.74,17,9,25.06,14L72.6,40.17C66.91,36,61.58,30.31,56,25.27l6-.43Zm106,6.34,6.19.94L168,31.17Zm-55.66,2.45,6.55.36c-5.9,1.3-11.81,3.38-17.78,3.38-.5-.58-.43-1.58-.72-2.38,0-.07.22-.07.29-.29l11.66-1.08Zm17.78.22h1.37l.29,2.16c-3.6,1-8.35.07-12.46.5l10.8-2.66Zm51.26.14a4.6,4.6,0,0,0,.65.14c-.07.29-.5.22-.72.14s0-.43.07-.29Zm-42,4h20.16l-16.78,5c-8.64-2.59-19.22-.29-28.22,1.8a6.12,6.12,0,0,0-2.74,4.68C97.44,53.13,82.53,55,67.92,57.6L64.82,47c-1.87-1.08-4.68-.43-6.7.5a2,2,0,0,1-.5.29c-.94,3.31,2.52,7.27,1.73,11-16.7,3.31-34.49,8.5-51.62,8.06a2,2,0,0,0-1,1c.86,1.58,3,1.8,4.82,2.23,7.42.79,14.4-.79,21.6-2,8.71-1.58,17.14-3.53,25.7-4.82.43.65-.07,1.8-.5,2.45l-4.1.5c-1.87.58-3.67.36-5.47.94-15.7,1.73-33.55,8.06-47.3-.94-.14-1.44,1.51-1.94,2.38-3A106.51,106.51,0,0,1,27,53.78a2.24,2.24,0,0,0,.29.43,1.55,1.55,0,0,0,2.09.22,5.58,5.58,0,0,0,1.94-1.94.85.85,0,0,0-.72-.65c-.72.14-1.08.86-1.87.79-.43-.5.58-1.15.86-1.3.72,0,1.51.58,2.38.07l4.32-3.53-3.6,4.9c-.86.86-2.52,1.15-3,3l.43.86c1.73,1.15,5,2,7,1a2.23,2.23,0,0,0,.14-.5,1.7,1.7,0,0,0-.94-.72l-3.67-1.15c0-.65.65-1,1.3-1.08l3.89,2.45.5,1c2.09.94,4.9,1.94,6.91.43.29.07.29.29.5.5a5.59,5.59,0,0,0,4.68-.79,1,1,0,0,1,.58-.5l2.59.07a5.47,5.47,0,0,0,2.16-2.09c-.36-2.81-.22-6.19-3-7.85a17.59,17.59,0,0,0-4.39.14l-.94.58-5.54-2.38a623.1,623.1,0,0,1,90.5-7.63l7.13-.14Zm27.07,2.52.07.07a1.45,1.45,0,0,1-.22.79l-3.53,1,3.6-1.94.07.07ZM156.19,43h.43a15.82,15.82,0,0,1-10.37,3.74.56.56,0,0,1-.22-.86L156.19,43Zm-24.84.29h4c1,.43,1.37,1.37,1.66,2.59-.5.65-.29,1.44-.65,2.38-4.68,2.09-10.87,2.3-16.27,3.1-1.44-1.58-.36-4.1-1.44-6.19l12.67-1.87Zm7.34.22a2.7,2.7,0,0,1,1.87.43,2.37,2.37,0,0,1,.29,1.44h-1.73l-.58-1.8.14-.07Zm-38.59.65.86.14a2.83,2.83,0,0,1,.86,3,4.88,4.88,0,0,1-.58,1.37,1.75,1.75,0,0,1-1.8.36c-1.15-.72-1.22-2.3-.79-3.74a2,2,0,0,1,1.44-1.15Zm-5.4.65.86.36A5.24,5.24,0,0,1,96,49.46a2.05,2.05,0,0,1-2.23.29L92,48.52a4.31,4.31,0,0,1,1.87-3.6,3.34,3.34,0,0,0,.65-.22l.14.07Zm-5.83.36,1.15.43a4.4,4.4,0,0,1,.29,4.32c-.14.65-1.15.72-1.87.72C87.5,50.32,87.07,49,87,48a4,4,0,0,1,1.73-2.88Zm-7,.72,1.44.14a4,4,0,0,1,.79,3.82c-.29.58-.43.94-.79,1.08a1.73,1.73,0,0,1-2.09,0c-1.15-.79-1.15-2.66-.5-4.1a1.23,1.23,0,0,1,.29-.5l.86-.43Zm35.06,0a4.54,4.54,0,0,1,.79,3.89l-1.08-3.82.29-.07Zm-41.47.72a2.74,2.74,0,0,1,1.37.43,5.06,5.06,0,0,1,.72,3.6,2.05,2.05,0,0,1-1.22,1.22A2.22,2.22,0,0,1,74.11,51a3.25,3.25,0,0,1,.43-3.82c.5-.22.58-.58.94-.58ZM69,47.37l1.66.65a4,4,0,0,1,0,4.54c-.58.65-1.58.36-2.3.07-1.15-.58-1.22-2.38-.94-3.67A1.91,1.91,0,0,1,69,47.37ZM62,48a3.2,3.2,0,0,1,1.66.14c.22.5.79,1.15.72,1.94-.29-.94-1.22-1.51-2.09-2.09Zm-1.44.14H61a10.71,10.71,0,0,0-1.22,2.23c-.29-.07-.36-.58-.65-1.08a1,1,0,0,1,.29-.72l1.15-.43Zm72.86,3.1h.29l-3.53.79,3.24-.79Zm-68.62.65L66,57.6l-4.61,1.08-.94-5.4,2.16.79.94-.29a3.16,3.16,0,0,0,1.22-1.94l.07.07Zm48,1.58h.43c3.46,2.66,8.14,1.3,12.24,1.37-9.5,1.8-20.16,0-30.31,1.58l17.64-3Zm-5,3.82c20.59-2.45,31.39,14.26,46.58,23.18-4.9.65-11.59-1.15-15.19,3.17a1.07,1.07,0,0,1-.5-.07,2.87,2.87,0,0,0-.22-.29c-.07-1,1-.94,1.3-1.73-9.72-6.41-21.6-10.73-31.82-17-1.08-.5-1.8-1-2.81-1.51l2.81-1c.14,0,.22-.22.22-.36-1.73-.94-4.25-.43-5.9.36-5.54-.07-12.31-4.39-17-1.15a1.2,1.2,0,0,1-.72,0c-.5-.14.5-.36-.14-.43,7.34-3.17,15.62-2,23.4-3.17ZM83.4,58.6c.43.07-.43.29.07.36l-.86,2.23c-2.09.58-4.61-.22-6.84.58-3,.5-5.54,1.8-8.35,1.87l.14-1.58C72,60.26,78.21,60,83.4,58.6ZM63.89,62.06H65c.72,0,.43.79.14,1.15C64,64.65,62.3,64.8,60.79,64.72c-.36-.43-.07-1.08-.07-1.73a4.27,4.27,0,0,1,.43-.29l2.74-.65ZM45.67,63.79h.43L45,64.08c.07,0,.5-.36.65-.29ZM151.73,82.08l3.6.14-3.89,1.22a.69.69,0,0,1,.14-.5v-.86Zm-5.47.22h1.15c.43.14.14.58.22.94s.5.5,1,.72c-2.38.43-5,1.3-7.42.58-.14-.07-.14-.07-.22-.36a1.25,1.25,0,0,1,.22-.5c1.3-1.08,3.24-1,5-1.37Z"/></g></g></svg>