<svg xmlns="http://www.w3.org/2000/svg" viewBox="0 0 138.33 96.51"><defs><style>.cls-1{fill:#231f20;fill-rule:evenodd;}</style></defs><title>CIT-sovereign</title><g id="Layer_2" data-name="Layer 2"><g id="Layer_1-2" data-name="Layer 1"><path class="cls-1" d="M124,90.26a1.08,1.08,0,0,0,.29-.28l-.7.45a1.35,1.35,0,0,0,.4-.17ZM15,90.8a1,1,0,0,1-.33.88c.57-.25,1.34-.63,2.18-1.06,2.46-1.26,5.51-3,6.16-3.36l2.19-1.36c.74-.45,1.48-.89,2.21-1.31h0l.73-.39c1.32-.68,2.66-1.37,2.66-3.28V80.4A10.3,10.3,0,0,0,30,76.74a6.41,6.41,0,0,1-.53-2.06,2.41,2.41,0,0,1,1-1.61,4.3,4.3,0,0,1,2.14-1h.53c1,0,1.47,1,1.87,1.84.11.23.22.45.32.61l0,0L35.55,76l-.2.07a6.06,6.06,0,0,1-.45-1.12c-.38-1.11-.88-2.56-1.86-2.56a5.38,5.38,0,0,0-2,.91c-.58.39-1,.81-1,1.11v.4a4.67,4.67,0,0,0,.43,1.54A7.13,7.13,0,0,1,31,78.91l.1.13h0a.53.53,0,0,1,.16.44v.8a5.37,5.37,0,0,1-.22,1.47,6.17,6.17,0,0,0-.16.78,2.1,2.1,0,0,0,1.27-1.29c.1-.19.2-.39.33-.6l.16-1.17V79.4l0,0c.88-.47,1.22-.58,1.33-.37s0,.32,0,.61a6.53,6.53,0,0,0-.19,1.18c1.54-.49,1.53-1.94,1.51-3.91,0-.22,0-.44,0-.61v-.21l.17.12.13.07h0c.15.06.18.08.18.42h0v2a.53.53,0,0,1-.16.44h0l-.1.13v.45c1.64-.87,3.37-1.83,5.08-2.82s3.46-2,5.05-3.06c.73-.46,1.63-1,2.54-1.57s1.83-1.06,2.6-1.44,1.79-1,2.68-1.54,1.71-1.06,2.56-1.48,1.63-.85,2.46-1.31h0c.94-.53,1.88-1.09,2.73-1.62s1.68-1,2.56-1.42,1.86-1,2.75-1.54S68.13,61,69,60.59A25.84,25.84,0,0,0,71.79,59c.3-.21,1.88-1.12,3.25-1.87A20.4,20.4,0,0,1,77.16,56h0a3.7,3.7,0,0,1-.24-1.35V53.61a1.21,1.21,0,0,1,.07-.47l0-.14-.77-.43.07-.2.8.17a5,5,0,0,0,.67-.63,6.92,6.92,0,0,1,1-.92c.48-.33.87-.58,1.32-.86l.63-.4c.55-.35,1.29-.77,2-1.17s1.52-.79,2.11-1.09a33.93,33.93,0,0,1,4.52-1.92c1.48-.5,3-.91,4.94-1.36v-.12l-1-.71a27.12,27.12,0,0,0-4,1.46c-2,.87-4.08,1.89-5.11,2.49-.52.3-1.06.57-1.61.84a16.16,16.16,0,0,0-2.59,1.48c-.33.24-.7.47-1.06.69s-.66.4-1,.62h0c-.14.1-.42.34-.71.6a6.74,6.74,0,0,1-1.08.86l-.17,0,0-.17c.12-.53,1.14-1.37,2.42-2.23h0a47,47,0,0,1,5.53-3.15l1.66-.78c2.54-1.2,6.89-3.25,7.56-3.25.45,0,.77.36,1.07.7s.45.5.66.5c.7,0,2.14-1.38,3.12-2.3.3-.29.56-.53.74-.68.56-.47,1.16-1,1.75-1.55s1.28-1.21,1.84-1.78c.41-.41.82-.8,1.22-1.19.76-.73,1.52-1.46,2.24-2.27.34-.39,1.27-1.36,2.09-2.18a15.6,15.6,0,0,1,1.3-1.19v-.24h-.83l-.06,0-.33-.24-.28-.06-3.18-.41a50.21,50.21,0,0,1-4.51,2.53c-1.69.85-3.45,1.64-4.93,2.2-.91.34-1.73.67-2.54,1l-2.48,1h0l-.39.17a15.76,15.76,0,0,1-5,1.53c-.27,0-.38-.11-.38-.28,0-.45,1.13-1.46,1.43-1.72h0l.06-.06a9.34,9.34,0,0,1,1.1-.93l.4-.31c-.78.33-2.46,1.1-4.33,2-3.4,1.6-7.46,3.57-8.13,3.93-1,.57-2.08,1.13-3.12,1.68s-2.09,1.09-3.17,1.63c-.78.39-1.67.92-2.56,1.45a28.09,28.09,0,0,1-3.55,1.91,21.69,21.69,0,0,0-3.14,1.73,27.65,27.65,0,0,1-3,1.7,47,47,0,0,0-4.45,2.48l-1.58.94-.72.42C47,56.52,39,61.19,38.17,61.44c-.26.23-1.78,1.14-3.68,2.25-3.35,2-7.92,4.55-8.78,5-1.68.92-4.08,2.24-6.3,3.7a19.53,19.53,0,0,0-5.19,4.44l-.12.92h-.21v-.34a19.5,19.5,0,0,0-1.42,1.38l-.37.38h0l-.29.28a2.89,2.89,0,0,0-1.18,2.14l0,.41.92.53a18,18,0,0,0,2-2.26,6.86,6.86,0,0,0,.9-1.4l0-.08L14,78.06l.13-.15a1.66,1.66,0,0,1,.61.45,1,1,0,0,1,.26.58,10.2,10.2,0,0,1-1.58,2.2A29.87,29.87,0,0,1,11,83.79v.34l0,.06,0,0h0c-.17.26-.46.69-.87.69H10a.71.71,0,0,1-.53-.14h0l0,0L5.52,88.48l-.07,0A2.34,2.34,0,0,0,2.93,90.1a1.86,1.86,0,0,1-.85,1v.24a4.07,4.07,0,0,1,2,1.16,4.87,4.87,0,0,1,1,2.23v.07c-.19.37-.24.52-.18.55s.38-.07.72-.2h0L6,95.06c.28-.1.59-.19.91-.27a7.66,7.66,0,0,0,1.22-.39c.34-.16,1.58-.67,2.64-1.06a12.37,12.37,0,0,1,1.52-.5h0l.52-.31-.85.32a10.15,10.15,0,0,1-2.44.74h0l-.35,0H9.16l0,0L8.82,93l0-.06A3,3,0,0,0,8,90.88a3.88,3.88,0,0,1-.81-1.44l0-.06,0,0L11,85.74l-.26-.19,0,0v-.06a1.73,1.73,0,0,1,.87-1.39h0l.28-.23a4.16,4.16,0,0,0,.69-.81,4.87,4.87,0,0,1,.51-.65c.26-.26,1-1.14,1.56-1.9a5.92,5.92,0,0,0,.76-1.17l0-.08h.75c.34,0,.36,0,.42.19h0l0,.08h.62l.06,0,.39.28-.06.2h-1l0-.05-.11-.2-.76,0L13,83.38l1.23.58.17.08-.15.11L14,84.3l.8,0a9.62,9.62,0,0,0,3.13-.15,4.77,4.77,0,0,0,.69-1.63,7.36,7.36,0,0,1,.72-1.78v-.65H17.87v-.35h1.95v.64h0v.32l-.05,0-.21.12-.05.59v0l-1,3,0,.07h-.07l-3.6.21a1.47,1.47,0,0,1-.59-.06,1.37,1.37,0,0,1-.25-.12v.06c.06.78,0,1-.64,1-.19,0-.44,0-.77,0a1.56,1.56,0,0,0,.24.34,3.75,3.75,0,0,1,.33.31l.19.16A4.11,4.11,0,0,1,15,90.27v.11h-.35v-.11a6.23,6.23,0,0,0-1.07-2.93,6,6,0,0,0-.62-.81,3.81,3.81,0,0,1-.37-.35,1.3,1.3,0,0,0-.77-.34h-.13a14.7,14.7,0,0,0-2,1.72,18.26,18.26,0,0,0-2,2h0v.13a5.52,5.52,0,0,0,.73,1h0l.08.1h0a3.81,3.81,0,0,1,.45.77,4.75,4.75,0,0,0,.32.6l0,.06V93l.3.21a12,12,0,0,1,1.34-.49,12,12,0,0,0,1.43-.53,6.86,6.86,0,0,1,1.11-.42c.45-.13.62-.18,1.37-1l.19.07Zm-1.17-6.24h0l-.1-.07,0-.05-.17.12Zm-.37.55v-.44l-.58.42-.08.06-.06-.08,0-.05-.05.05-.23.25,1.05-.2Zm-.92-.31,0,0,.07-.06.85-.71-.71-.34c-.45.3-1.45,1-1.61,1.51l.57,0,.65-.48.08-.06.06.08ZM10.8,83.7v0l0,0,.35-.71-.38-.42-.6.51.16-.07.12.16-.8,1.26.32,0c.25,0,.52-.35.71-.59h0l.11-.14ZM38,61.25h0l1.57-1L24.89,44.83l-.07-.08.08-.07.06-.06c-.85-.5-3.63-3.51-5.72-5.79-.93-1-1.73-1.88-2.16-2.31l-.39-.38c-1.18-1.18-2.49-2.49-3.55-3.69a10.83,10.83,0,0,0-1-.93,9.52,9.52,0,0,1-1.07-1.06c-.23-.28-.74-.87-1.21-1.36a6.89,6.89,0,0,0-.74-.7l-.28.1-.12.29a17,17,0,0,0,1.85,2.06,17.82,17.82,0,0,1,1.71,1.88,10,10,0,0,0,1.31,1.4l.58.56a13.63,13.63,0,0,1,1,1.09c.25.31.51.62.84,1,.76.8,1.48,1.59,2.2,2.38l1.45,1.58c.27.29.48.57.69.84a7.69,7.69,0,0,0,1.09,1.22c.12.11.56.57,1,1s.81.87.9,1a12.12,12.12,0,0,0,1.14,1.29c.21.21.41.42.63.66h0c.28.31.54.62.8.94s.62.76,1,1.14c.65.7,1.24,1.37,1.83,2s1.17,1.36,1.77,2.1c.29.35,1.14,1.25,2.17,2.33,2.17,2.29,5.1,5.39,5.16,5.89v.12h-.47l0-.08C37.28,61,32.4,55.62,28.24,51c-2.7-3-5.1-5.64-5.71-6.36S18.35,40,14.89,36.24c-3.14-3.43-6.23-6.81-7.15-7.88l0,0v0A2.1,2.1,0,0,1,7.47,28h0v0h0c0-.82,1.41-1.92,3-2.81a11.47,11.47,0,0,1,4.41-1.56H15l.06,0L37,38.06h0l7.19,4.79a14.52,14.52,0,0,1,2.23,1.28c1.58,1,3.48,2.33,4,2.7s2.43,1.67,4.06,2.65a9.36,9.36,0,0,0,2.11,1.09s1.93-1.1,3.36-2L61,47.9l-.78.1a2.52,2.52,0,0,1-1.49-.4A8.22,8.22,0,0,1,57,46.19h0a4.44,4.44,0,0,1-.93-1.6,6.32,6.32,0,0,1-.33-2v-.4c0-.9,1-1.95,2.47-2.95a43.61,43.61,0,0,1,6.89-3.72h0l1-.45a25.16,25.16,0,0,1,4.8-1.77c.51-.1,1.08-.24,1.68-.38a23,23,0,0,1,5-.83h0a1.88,1.88,0,0,1,1.82,1,5.37,5.37,0,0,1,.42,2.4l-.19.07a2.12,2.12,0,0,1-.26-.86c-.17-.89-.42-2.17-1.65-2.17h-.93a19.56,19.56,0,0,0-2,.36c-.56.12-1.1.25-1.42.33a4.85,4.85,0,0,1,2,1.62,5.27,5.27,0,0,1,1.1,2.61l3.27-1.86.15.15a1.42,1.42,0,0,1-.24.29l.09,0,2.5.89c1.19-.61,2.55-1.21,3.85-1.78l.2-.09.78-.34h0l1.26-.55h0a4.18,4.18,0,0,0,1.23-.67l.56-.43a21,21,0,0,0,2.34-3.42,28,28,0,0,0,2.05-3.87,61.34,61.34,0,0,1-3.87-6c-.9-1.5-1.69-2.81-2-3.23s-1.75-2.77-3.14-5.05-2.59-4.29-2.59-4.37c0-.39,1-1.11,2.26-1.8A14.89,14.89,0,0,1,89,3.65h0a1,1,0,0,1,.65.24,1.27,1.27,0,0,1,.37.58c.74.28,3.33,2.7,4.8,4.07l.86.8.17.15c1,.92,4.79,4.29,5.39,4.66l.6-.84a47.8,47.8,0,0,1,2.36-4.54l.54-1c.21-.39.55-1,.88-1.49a9.88,9.88,0,0,1,.75-1,3.21,3.21,0,0,1,.61-.47c.25-.16.52-.31.69-.41a1.24,1.24,0,0,0,.49-.45h0a1.67,1.67,0,0,1,.53-.52l.06,0h.64l6.1-3.33.1-.05,0,.1a.08.08,0,0,1,0,.1h0c.08,0,.12-.06.16.06h0a.21.21,0,0,1,0,.08s0,.09,0,.21V.69s-.16.71-.3,1.3c-.08.36-.16.68-.19.78a4.83,4.83,0,0,0-.12.66c-.07.54-.13.95-.67,1.09l-.17,0,0-.18.86-3.64L112.93,2a6.65,6.65,0,0,1-.69,3,8.43,8.43,0,0,0-.69,2.45v.07l-.06,0-.21.1a4.81,4.81,0,0,1-.43,1.62h0a4,4,0,0,0-.37,1.38h0V11l-.06,0-.21.1v.47l0,.06a1.66,1.66,0,0,1-.14.18.36.36,0,0,0-.11.3v.13h0c0,.34,0,.36-.18.42h0l-.08,0h0l.11,0,0,.11-1.73,5.73L107,22.29c.36-.08,1-.29,1.43-.44l.41-.14h0c.52-.17.72-.23.78-.32h0a.47.47,0,0,0,0-.23,3.44,3.44,0,0,1,.14-.85c.09-.3.19-.62.3-1a11,11,0,0,0,.71-3.19v0l.52-1.18c0-2.1.57-2.47,1.1-2.81h0c.4-.26.77-.5.77-1.7v-.13l.13,0h0l1.05-5.65,0-.09h.47l0,.13-.66,3.47.07,0,.16,0-.11.13-.29.35-1,4.91v0l-.22.37-.14,1.85v0l-.78,3h0l-.3,1.06.08,0,0,.19-.29,1.5,10.34,3.84h0a9.54,9.54,0,0,1,2,.55,5.43,5.43,0,0,1,1.65.82l.08.1v0l0-.17.17.06,12.63,4.37.08,0v.08c0,.71-2,1.85-3.19,2.59-.33.2-.62.37-.8.49-1.44,1-3,.59-4.6.2-.38-.09-.77-.19-1.18-.27-.82-.16-1.61-.29-2.39-.41-1.21-.19-2.4-.38-3.59-.68-.61-.16-2.29-.52-3.73-.8a17,17,0,0,0-2.19-.32h-.11V32h0a13.74,13.74,0,0,1-3.26-.52,14.28,14.28,0,0,0-3.41-.54s-.78.84-1.6,1.68l-1.62,1.66-1,1c-.8.77-1.63,1.57-2.31,2.35-.44.5-2.67,2.66-4.51,4.3a16.36,16.36,0,0,1-2.41,1.92l.09.3,0,.12-.12,0-2.17.41v.06a3.56,3.56,0,0,1,1.54,1.11,3.74,3.74,0,0,1,1,1.73h0v0l.55,1.29,2.87-2.18-.07-.27c-.26-1-.65-2.54-1.59-2.45h0l-2,.16-.07-.2a2.62,2.62,0,0,1,.45-.26,2.42,2.42,0,0,1,1.74-.09,2.58,2.58,0,0,1,1.3.92,1.94,1.94,0,0,1,.2.34,5.64,5.64,0,0,1,.54,2.23,2.12,2.12,0,0,1-.59,1.56c-.85.82-1.85,1.73-2.87,2.61s-2,1.65-2.87,2.34h0c-1,.76-2,1.52-3.12,2.23a33.34,33.34,0,0,1-3.38,2,12.8,12.8,0,0,1-1.91.77c-.65.21-1.34.38-2.12.56a8.21,8.21,0,0,1-2.41.32,4.73,4.73,0,0,1-1.9-.62,7.45,7.45,0,0,1-1.44,1.55,14,14,0,0,1-2.2,1.68,23.23,23.23,0,0,0,4.22,2c2.08.88,4.19,1.79,4.6,2.3l.17-.09.07,0,.06.05c.32.28,4.76,2.27,6.73,3.16l.79.36h0c1,.47,2.08,1,3.11,1.49,1.42.69,2.84,1.39,4.32,2,.57.24,3.66,1.71,6.86,3.26,3.65,1.76,7.47,3.62,7.9,3.86l0-.14.13.16.2.23v-.08l.18.08L122.3,84h0l6.51,3,.17.08-.15.11-.63.46a9.14,9.14,0,0,1-1.8,1.42,5.38,5.38,0,0,1-1.47.73c.07.46-.55.7-1.17.95-.46.18-.92.36-1,.6l0,.07H122l-.06-.2.61-.41a1.08,1.08,0,0,0-.2-.22h0a.55.55,0,0,0-.35-.11c-.09,0-.22.11-.34.24a2.11,2.11,0,0,0-.31.49l.41,0h.12l0,.12,0,.18,0,.11-.11,0-4.27-1-.1,0,0-.1h0a3.29,3.29,0,0,1-.68-.14,2.63,2.63,0,0,0-.78-.13h-.27l-.06,0-.64-.38a23.54,23.54,0,0,1-3.59-.72,8.84,8.84,0,0,1-2.6-.93l.11-.17,3.19.72h0l.38.22,2.53.64a5.77,5.77,0,0,1,.94.2,4.42,4.42,0,0,0,1,.2h0c.34,0,.36,0,.42.18h0l0,.07v0l.1,0,2.38.5h0a1.16,1.16,0,0,1,.22.12h0a.43.43,0,0,0,.29.08c.3,0,.35-.23.41-.48l-2.95-.86h0l-8.16-2.45-2.91-.72h0l-.38-.21a3.61,3.61,0,0,1-1.2-.17,1,1,0,0,1-.63-.55l-.07-.2.21.07,5.06,1.6,2.12.45h0l9.33,2.69.06.05.14.24a.53.53,0,0,0,.3-.19c.08-.1.14-.18.43-.18a.67.67,0,0,1,.52.24h0l.16.14,2.43-1.34.11-.09a.79.79,0,0,1,.21-.09l2.5-1.38.2-.26-.66-.31-.4-.17h0a3.31,3.31,0,0,0-1.26.43,1.87,1.87,0,0,1-.61.24,8.78,8.78,0,0,1-2-.73,6.58,6.58,0,0,1-1.52-.87,3.72,3.72,0,0,1-1.68-.58,5.65,5.65,0,0,0-.71-.35l-.54-.17c-.69-.2-1.58-.46-1.77-1l0,0a3.54,3.54,0,0,1-1.22-.32,3.09,3.09,0,0,1-1-.61l-1.7-.53-.13,0,.07-.12.2-.34L113,82h0c-.83.07-3.14-1-4.92-1.88-.77-.37-1.44-.69-1.84-.84s-.88-.37-1.38-.61c-.65-.31-1.34-.65-1.89-.94a9.43,9.43,0,0,0-1.05-.42c-.87-.31-1.83-.66-2.15-1.27L99.7,76l.1,0,.91-.45.09,0,.05.09,0,0v0l1.06-.53-2,.72,0,0h0l-.9.53-.07,0-.06-.06-.11-.12a2,2,0,0,1-.56-.1h0a.88.88,0,0,1-.39-.32L86,70.42l0,0v-.05l0-.18,0-.09.08,0,2.69-1.09-.29.12a1.73,1.73,0,0,1-1.24.18,8.65,8.65,0,0,1-1.26-.52,2.75,2.75,0,0,1-.71-.47,14.7,14.7,0,0,1-2.7-1.11c-.47-.23-.89-.42-1.13-.52l-.21-.08h0a12.48,12.48,0,0,1-3.39-1.69V65l-.17-.07-2.93-1.2-.07,0v-.42l.07,0,1.29-.48c-.47-.24-1.83,0-3.44.48A44.82,44.82,0,0,0,65.18,66a23.2,23.2,0,0,1-2.51,1.33h0a24.34,24.34,0,0,0-2.38,1.25L60,68.8c-.94.59-3.5,2.21-4.25,2.58.72.48,4.46,1.48,7.48,2.3,1.71.46,3.2.86,3.79,1.07s4.11,1.22,7.12,2c2.29.61,4.3,1.12,4.61,1.12h.07l0,.06.1.21a3.53,3.53,0,0,1,.77.05h0a.94.94,0,0,1,.55.34l0-.1.1,0,4.5,1.19h0l.37.22.52,0,.06,0,.64.38a4.84,4.84,0,0,1,1.17.16,2.25,2.25,0,0,1,.87.4l-.07.19a4.83,4.83,0,0,1-1.21-.15,2.2,2.2,0,0,1-.84-.4l-6.15-1.58-.11,0,0-.1h0a1.62,1.62,0,0,1-.55-.08h0a1,1,0,0,0-.37-.05H79l0-.06-.11-.22L68.21,75.52c-.27,0-1.22-.28-2.33-.58-1.72-.47-3.83-1.08-4.43-1.26l-1.51-.43a22.56,22.56,0,0,1-4.76-1.65,4.73,4.73,0,0,0-1,1,1.65,1.65,0,0,0-.38.9c0,.41.47.47.93.53a3,3,0,0,1,.67.14l.09-.1a.93.93,0,0,1,.73-.41.62.62,0,0,1,.23.06h0a1,1,0,0,1,.28.19.45.45,0,0,1,.15.31.33.33,0,0,1,0,.13l0,.1-.1,0-.61-.26-.17.11v.1l2.47.55h0l17.48,4.5v.21c-1,.12-4-.72-5.37-1.12l-.41-.11c-1.11-.31-2.31-.59-3.51-.87h0L64.43,77c-.74-.18-1.76-.48-2.9-.81-2.9-.84-6.58-1.91-8.36-1.91a10.75,10.75,0,0,0-3.5,1.42c-.37.19-.69.37-.94.48l-.85.43a18.63,18.63,0,0,1-3.46,1.54h0l-.61.43-.15-.15.34-.48,0-.05h.06l.25,0A13.82,13.82,0,0,1,47,76.48c.66-.3,1.29-.58,1.72-.83s1.32-.76,2.19-1.15a7.22,7.22,0,0,1,2.42-.73v-.43A2.65,2.65,0,0,1,54,72h0a3.67,3.67,0,0,1,1.37-1.12l.14,0V71c1.75-1.16,3.92-2.5,6.13-3.72a50.41,50.41,0,0,1,5.5-2.66c1-.4,2.17-.86,3.35-1.27a31.08,31.08,0,0,1,3.44-1A5.12,5.12,0,0,0,76.5,61l.37-.3c.35-.27,1-.81,1.56-1.31a6.61,6.61,0,0,0,.75-.76,7.58,7.58,0,0,0-.69-.8,6.16,6.16,0,0,1-1.23-1.66c-.47.67-8,4.77-13.91,8C60,66.1,57.12,67.68,56.28,68.2s-1.81,1.11-2.78,1.66-1.73.95-2.52,1.33a19.12,19.12,0,0,0-1.73,1.05h0l-.81.52c-.38.23-.84.5-1.31.76l-1.34.73c-1.68.91-3.32,1.91-5,2.93s-3.45,2.12-5.23,3.07l0,.1-.68,1.92,8.67-4,.13.16A31.4,31.4,0,0,1,39,80.88C34.8,82.8,29.2,85.22,28,85.7c-.52.21-1.09.48-1.67.76a21.15,21.15,0,0,1-2.32,1,10.78,10.78,0,0,0-2.56,1.23c-.37.22-.75.46-1.22.7l-.48.26c-1.8,1-6.12,3.25-7.34,3.39a24.48,24.48,0,0,1-5,2.06A27.25,27.25,0,0,1,2,96.51a2.12,2.12,0,0,1-1.25-.3h0A2.78,2.78,0,0,1,0,95.39l0-.07a6.73,6.73,0,0,1,.28-1.65A8.16,8.16,0,0,1,1,92.17H1l.17-.29a20.94,20.94,0,0,1,1.61-2.49c.67-.83,1.29-1.7,1.91-2.59S6,85,6.67,84.18a110.82,110.82,0,0,1,7.74-8.29l1.06-1.06a30.66,30.66,0,0,1,5.17-3.77c2.06-1.27,4.23-2.47,5.77-3.33l2.34-1.34C32,64.52,37.3,61.46,38,61.25Zm69.83-31.12.27,0,.05,0h0l1.25.25h.1l4.7.7,0,0,.37.23,1.88.25h.11l0,.11h0l15.54,2.81.55-.56L101.4,27.86l-.11,0v0h0l-2.34-.43-.89.77,9.82,2ZM77.6,64.5l.06,0h0l.1,0L85.21,68h0a3.71,3.71,0,0,1,1.12.4h0a3.06,3.06,0,0,0,1.23.4,6.54,6.54,0,0,0,.71-.17h0l.2-.06a6.63,6.63,0,0,0-2.14-1.11,9.2,9.2,0,0,1-1.72-.82l-.06,0,0-.08-7.8-3.54-1.47.37v.09l2.31,1Zm11.65,4.3h-.12V69l.11-.17Zm0,.41-.06-.09v.17l-.08,0-.25.07,12,5.53.59-.23a7.59,7.59,0,0,0-1.48-.88c-1.5-.76-3.59-1.66-4.18-1.9-.43-.17-.89-.39-1.36-.61s-1.13-.56-1.62-.82-1-.49-1.49-.73-1-.45-1.43-.7l-.62.15Zm13.88,7.21a8.32,8.32,0,0,0-2.12-.7v0l-.09.06-.52.34v.08L104,77.74l1-.3a9.94,9.94,0,0,0-1.89-1Zm13.74,6.93.24.23.16.07,4.65,2h.05a6.59,6.59,0,0,1,1.78.68,5.1,5.1,0,0,0,1.75.64l.14-.07c.23-.1.63-.28.92-.38l-4.29-2.27a9.11,9.11,0,0,1-1.77-.35,8.34,8.34,0,0,1-1.64-.67,8,8,0,0,0-1-.4c-.89-.32-1.94-.7-2.07-1.18h0l0,.08-1.16-.16-.08,0h0c-.19.11-.58.33-.8.49l1,.27.06,0,.26.32,1.81.6,0,0Zm-1.78-2.24h0l.12,0h0l-.06,0V81h0l-.16.08Zm.31.11a2.47,2.47,0,0,1,.34.24v0l.2.09,2.35,1-2.88-1.3Zm-.86-.34a.64.64,0,0,0,.13-.22,21.81,21.81,0,0,1-4.37-1.88c-.88-.44-1.67-.83-2.11-1s-1.08-.46-1.71-.76-1.13-.55-1.48-.74a8.39,8.39,0,0,0-.86-.42c-.2-.09-.41-.18-.67-.31h0c-.63-.32-.69-.3-.89-.23h0a2.23,2.23,0,0,1-.6.14v.08a47.55,47.55,0,0,1,5,2.21l1.11.53c.44.2,2.79,1.27,4.48,2,.92.4,1.63.7,1.69.7a.34.34,0,0,0,.25-.1ZM101.36,27.39l.11,0,0,.1h0a24,24,0,0,1,3.35.47c1.92.36,4,.84,4.87,1.08.34.1,1,.23,1.7.36.91.16,1.9.32,2.35.38s1.09.16,1.76.29,1.59.31,2.08.42,2,.41,3.87.78c4.72.93,11.87,2.35,12.11,2.68l.07.09-.1.06-.58.37a6.91,6.91,0,0,0,1.74-.73A3.24,3.24,0,0,0,136,32.62l-28-8.29-.06,0-.12-.16h-.73V24c0-.57.61-.78,1.21-1a5.82,5.82,0,0,0,.63-.25l.54-.29A4.48,4.48,0,0,1,110.7,22c-.45-.27-1.49.06-2.33.34-.28.09-.53.17-.75.23h0a14.57,14.57,0,0,0-1.72.56,11.36,11.36,0,0,0-1.5.72l-1.26.71A34.88,34.88,0,0,0,99,27l2.32.38Zm24.15-.24v-.1h-.91l0-.07c-.12-.31-.75-.47-1.38-.63a3.15,3.15,0,0,1-1.5-.64,3.38,3.38,0,0,1-1.07-.28,2.79,2.79,0,0,0-1-.25c-.06,0-.08,0-.11.08a.3.3,0,0,1-.29.19,14.8,14.8,0,0,1-3.3-1c-.52-.19-1-.36-1.32-.46s-.92-.32-1.66-.6c-1.16-.43-2.49-.92-2.66-.92a3.61,3.61,0,0,0-.65.33,7.59,7.59,0,0,1-1.83.84l.14.21a26.1,26.1,0,0,1,2.79.71c1.83.53,4,1.2,4.43,1.39a35.24,35.24,0,0,0,4,1.21c1.07.28,2.14.56,3.09.88,1.19.4,2.38.73,3.57,1.06s2.41.67,3.62,1.08c.6.2,1.19.37,1.78.53s1.2.33,1.82.54h0l.72.25h0c1,.34,2.59.89,2.63.89a1.41,1.41,0,0,0,.52-.26h0c.31-.21.66-.48.87-.66l-12.2-4.28-.06,0v-.06ZM111,21.46c0-.53.09-1.09.45-1.33h-.05l-.1,0,0-.1,1.22-6h0l.41-1.65-.66.34L111.56,15l-.32,2h0l-1.15,4.3.86.22v0Zm-1.49-8.78h0v-.53h0c0-.34,0-.36.18-.42h0l.09,0v-.54l.06,0L110,11h0a3.25,3.25,0,0,1,.3-1.25h0a1,1,0,0,0,.1-.28,2,2,0,0,1,.21-.94,1.77,1.77,0,0,0,.19-.79V7.69l.06,0,.21-.1h0l1.51-5.24a6.79,6.79,0,0,0-3,1.68c-.31.25-.6.48-.87.66l-.06,0c-1.9,0-3.27,2.84-4.45,5.31-.74,1.55-1.42,3-2.13,3.45l-2.42,4.49,0,.05h-.15l.08.09-2.13,3.59A27.83,27.83,0,0,1,96,24.38c-1.12,2-2.55,4.47-2.89,5s-.5.85-.74,1.28a10.36,10.36,0,0,1-1.61,2.4,18.89,18.89,0,0,1-2.12,1.8,4.14,4.14,0,0,1-1.35.72v.08l.45.09.11,0,0,.11A2.45,2.45,0,0,1,87,37.07a1.92,1.92,0,0,1-1.19.52,1.21,1.21,0,0,1-.47-.07l-.14,0L85,37.9a8.7,8.7,0,0,0,3.53-1A16.21,16.21,0,0,1,90,36.26a12.92,12.92,0,0,0,1.25-.55c.38-.18.78-.37,1.14-.51l1.26-.48L95,34.26c.8-.27,3.82-1.65,6.17-2.87a15.13,15.13,0,0,0,2.82-1.69l-6.66-1.27-.09,0v-.74l.08,0c.05,0,3.1-2,4.15-2.65l.29-.19c.35-.22.71-.41,1.07-.6a12.16,12.16,0,0,0,1.22-.7h0l0,0h0a8.8,8.8,0,0,1,1.13-.69h0a2.18,2.18,0,0,1,.61-.13.72.72,0,0,0,.61-.29c0-.11.63-1.87,1-3.23a12.89,12.89,0,0,0,.41-1.51v-.55l.14,0h0l.92-3,.35-1.34,0-.1.1,0ZM98.18,19.53A7.27,7.27,0,0,1,99.29,18h0l0-.08-.1-.31-.57.13h-.06l0,0L86.85,5l-2.3,1.12.37.84V7l.09.33,3.71,5.83a24.74,24.74,0,0,1,2.33,3.55l.1.18h0c.2.34,1,1.66,1.65,2.62a3.5,3.5,0,0,0,.8,1h0l0,0,1.86,3.57h0l1.66-2.5a8.4,8.4,0,0,1,1-2Zm-9.64-6.28-3.7-5.82A1.36,1.36,0,0,1,84.44,7c-.08-.12-.14-.21-.33-.21a1.33,1.33,0,0,0-.4.29.44.44,0,0,0-.16.27c0,.08,2.57,4.18,4.25,6.87l1.38,2.22,1,1.56c1.49,2.38,4,6.4,4.51,7.51l.65-1c-.45-.84-2.65-4.5-4.42-7.31a28,28,0,0,0-2.29-3.38l-.07,0v-.58Zm1.39-8.6h0v0l-.32-.21A1.54,1.54,0,0,0,89,4.13a3,3,0,0,0-.81.29,5.7,5.7,0,0,1-.89.34c.45.62,3.13,3.54,5.83,6.42s5.57,5.87,6,6.17a5.43,5.43,0,0,0,1-1.16,2.34,2.34,0,0,0,.37-1l-.58-.27,0,0-.1-.1-.1-.1.12-.07.7-.42L89.93,4.66ZM79.61,36.15v-.09a37.83,37.83,0,0,1-5.82,3.43c-.81.42-1.5.78-1.88,1-1.1.65-2.28,1.27-3.46,1.88l-.61.32c-.32.17-1.26.74-2.14,1.27s-1.44.87-1.71,1a1.41,1.41,0,0,0,.32.37,2,2,0,0,0,.61.4s3.33-1.74,5.78-3l2.57-1.35,1-.53a74.92,74.92,0,0,1,7.45-3.58v-.11l-2.05-.67-.07,0v-.32ZM20.11,39c2.14,2.22,4.7,4.88,5,5.42l0,0,.07.08L40.06,59.95l14.16-8.16-3-2.22-1-.68L50,48.76l.21-.07,1.15-.4-3.9,1.1h0l0,0c-.75-.53-1.49-1.06-2.22-1.59-1.17-.85-2.34-1.69-3.53-2.49l-.61-.4c-1.54-1-4.86-3.14-5-3.8L36,41l.11,0,.12,0a.63.63,0,0,1-.56-.28h-.54l.11-.17,0,0-10.13-7,.09-.19a7,7,0,0,1,1.9,1.14,4.56,4.56,0,0,0,1.41.86,1.41,1.41,0,0,0,.55-.11,2.11,2.11,0,0,1,.66-.15v-.06L26.23,32.7l-.6.09-.49.42h0L25,33.4l-.14-.07-.15-.07,0,0-6.58-5h-.57l0-.07c-.13-.35-.8-.77-1.5-1.2-.92-.56-1.9-1.16-1.94-1.83v-.08l.08,0,1.37-.45V24.5a3.43,3.43,0,0,1-.7-.41h0l-.13-.1a10.32,10.32,0,0,0-3.3,1.18A6.5,6.5,0,0,0,9.2,26.74l.31.26.07.06-.05.08a2.27,2.27,0,0,1-.62.59,1.12,1.12,0,0,0-.53.65,1,1,0,0,0,.36-.29h0c.1-.11.17-.19.31-.19a15.92,15.92,0,0,1,2.76,2.46c2.2,2.19,5,5.14,5.48,5.69s1.51,1.62,2.83,3Zm-1.81-11h0l6.2,4.34L25.77,32l-4.65-3.32-.06,0v-.07c.11-.52-.91-1.1-1.69-1.54-.25-.14-.47-.27-.63-.38h0l-.22-.15c-.79-.54-1.82-1.25-2.56-1.65l-1.22.48,0,.23,3.53,2.54ZM39.46,40.13a5.51,5.51,0,0,0-1,.25l1-.24ZM2.24,92h-.4c-.15,0-.42.39-.67.88a6.6,6.6,0,0,0-.69,1.81h0v.27a.94.94,0,0,0,.37.8A1.89,1.89,0,0,0,2,96a5.57,5.57,0,0,0,1.85-.23,1.14,1.14,0,0,0,.85-1.13l0-.07a1.94,1.94,0,0,1-.23-.94,3.24,3.24,0,0,1-.49-.54A2.29,2.29,0,0,0,2.24,92Zm6.87-7.79h0s-.06-.08-.2-.08H7.23l-3,4a3,3,0,0,0,2.16-1.22,8.06,8.06,0,0,1,.64-.62h0l.09-.07h0c.42-.34,2-1.59,2-2Zm.09-.46s.12,0,.23-.11v-.18l0-.51v-.06l.06,0,.74-.38V80.94L7.74,83.59l1.45.14ZM9,27.14a.34.34,0,0,0-.35-.22c-.13,0-.27.15-.39.35A2.46,2.46,0,0,0,8,27.9l1-.76Zm13.29,1.74a2.13,2.13,0,0,0,.36.18l-.36-.18Zm3.83,2.58-2.18-1.39c.36.27.77.56,1.18.81a10.59,10.59,0,0,0,1,.58Zm-1,1.17.42-.07,1.56-.48c-.13-.1-.24,0-.41,0a2.29,2.29,0,0,1-.6.22l-.1,0a3.17,3.17,0,0,0-.87.26ZM32.26,38l1.34-.4-3.43-2.33L29,35.56l0,.16L32.26,38Zm3.39,2.11.13.32,1.7-.17L35,38.38a1.94,1.94,0,0,1-.78-.44l-.1-.09-.46.14-.81.24h0l2.77,1.82,0,0ZM27,32.52l8.09,5.67h0l2.75,1.73.08,0,0,.08.91-.22-1.94-1.59c-.75-.12-3.64-2.1-6-3.73a31.09,31.09,0,0,0-3.27-2.13h0a.68.68,0,0,0-.36.05,1.09,1.09,0,0,1-.21.08Zm8.09,5.67h0ZM19.52,82.68a5.42,5.42,0,0,1,.35-.84v-.08h0l.55-1.26.2.07-.31,1.32,0,.08h-.25a2.18,2.18,0,0,1-.28,1.11.78.78,0,0,0-.12.38.38.38,0,0,0,.24.38h0l.07,0,1.63-.41.21-.19.16-2V79.85h-.27v-.28l-.07.1a2.31,2.31,0,0,1-.56.36,4.59,4.59,0,0,1-.74.33l-.21,0,.09-.2.3-.65,0-.06h1.16v-.14h.12c.69.06.68.31.65.82,0,.1,0,.22,0,.35s0,.5,0,.91-.07,1.11-.08,1.63a1,1,0,0,1-.58.82,3.13,3.13,0,0,1-1.41.34H20a.64.64,0,0,1-.46-.18h0a.64.64,0,0,1-.18-.46v-.13a3.23,3.23,0,0,1,.19-.79Zm3.76-.13.78-.12.57-.46-.36-1.13-.06-.19.19.05c.47.13.52.37.59.72a2.4,2.4,0,0,0,.2.63l0,.1-.1,0-1,.44h0l-1.22.4-.15,0v-.16l.14-3.5v-.08l.08,0,.9-.2.07,0,0,.07.31.5v.07l-.09.58-.21,0-.28-.77h-.37l0,.15a1,1,0,0,0-.06.41h0v2.42Zm6.18,1.38-3.6,2.12,3.3-1.37.3-.75Zm3.78-4.19v.06l-.56,1.63a.93.93,0,0,0,.58-.56,3.93,3.93,0,0,1,.21-.37,4.53,4.53,0,0,1,0-.49,3.24,3.24,0,0,0,0-.38h0c0-.12,0-.2-.1-.2h0a.2.2,0,0,0-.12.1.4.4,0,0,0-.06.2Zm-3.32,3.9-.08.68a12,12,0,0,1,1.56-.79,14.28,14.28,0,0,0,1.35-.66h0a6.92,6.92,0,0,1,.94-.43c.74-.29,1.19-.47,1.19-1.8l-5,3Zm6.84-11-.67.22.46,2.38.34.09.06,0h0c.27-.13.65-.32.65-.65v-.4h0a2.07,2.07,0,0,0-.23-1,1.52,1.52,0,0,0-.6-.59Zm-1.06,0h.23l.79-.62.06,0,.06,0a3,3,0,0,1,.9.94,2.2,2.2,0,0,1,.33,1.13,1.94,1.94,0,0,1-.37,1.26,1.32,1.32,0,0,1-1.08.45h-.07c-.31-.07-.56-.64-.73-1.28a7.72,7.72,0,0,1-.25-1.62h0a.84.84,0,0,1,0-.16l0-.09Zm1.59-31.56a2.2,2.2,0,0,0-.6.3,25.42,25.42,0,0,1,2.77,1.84,15.34,15.34,0,0,0,2.37,1.56h.4a4.37,4.37,0,0,0,.86-.22l.42-.13c-.29-.26-1.3-1-2.35-1.74a27.53,27.53,0,0,0-2.8-1.83,3.5,3.5,0,0,0-1.07.21Zm12.13,7.3v0l-5.24-3.58-1.75.43a9.27,9.27,0,0,0,1.48,1c.37.23.73.45,1,.63s1.18.89,1.89,1.41l.67.48h0a2.86,2.86,0,0,0,1.1-.2,2.74,2.74,0,0,1,.9-.19Zm1.62-.61-7-4.78a11.3,11.3,0,0,1-2.54-1.49,9.31,9.31,0,0,0-1.69-1h-.13a1,1,0,0,0-.66.23L50,48.17l1.06-.24v-.1ZM51,48.93l.39.44a6.37,6.37,0,0,1,2.05,1.17,4.57,4.57,0,0,0,1.36.82,2,2,0,0,0,.74-.35h0l.16-.1a17.48,17.48,0,0,0-2-1.43A6.06,6.06,0,0,0,52,48.65a.8.8,0,0,0-.47.11h0a1.31,1.31,0,0,1-.54.17ZM61.8,43.25c-.6-1.7-1.9-3.26-3.56-3.26a1.94,1.94,0,0,0-1.37.89,3.6,3.6,0,0,0-.79,1.94A5.12,5.12,0,0,0,57.54,46h0a4.14,4.14,0,0,0,2.84,1.51A1.63,1.63,0,0,0,62,46.23a3.88,3.88,0,0,0,.12-1.4,6.32,6.32,0,0,0-.35-1.58Zm11.94-9.36a3.16,3.16,0,0,1-.75-.56c-1.3,0-4.51,1.21-7.61,2.58C62.15,37.34,59,39,58.44,39.64h.34c1.59,0,2.51,1.56,3.24,2.78.16.27.31.52.45.73l0,.05.08.91.2,1.23v0l0,0-.26.35v.64l0,.06-.54.75a5.67,5.67,0,0,0,2.14-.88l.4-.23a5.68,5.68,0,0,0-.47-.37c-.28-.21-.54-.4-.54-.53h0c0-.85,4.36-3.08,8-4.92C73.9,39,76,38,76,37.75a1.08,1.08,0,0,0-.1-.48,2.18,2.18,0,0,1-.17-1l-.49-.76c-.2-.32-.41-.65-.65-1a2.92,2.92,0,0,0-.86-.68ZM86.14,37c.51-.23,1-.43,1.16-1a1.87,1.87,0,0,0-.9.44,1.81,1.81,0,0,0-.53.71l.27-.12Zm27.5-14a18.65,18.65,0,0,1-2.32-.87l-.27.18,8,2.77h0c-.16-.32-1.8-.85-2.89-1.2-.4-.13-.73-.24-.9-.3h0c-.44-.18-1-.38-1.64-.57ZM41.75,70.55c-.12-.26-.27-.44-.44-.44a1.2,1.2,0,0,0-.59.22.46.46,0,0,0-.23.33,6.89,6.89,0,0,0,.41,1.46c.09.27.18.51.23.69a1.41,1.41,0,0,0,.63-.24.55.55,0,0,0,.25-.44v-.4a3.09,3.09,0,0,0-.25-1.19Zm-1.59-.24a1.39,1.39,0,0,1,1-.68,1.19,1.19,0,0,1,.86.56,2.16,2.16,0,0,1,.45,1.15v1.28l-.07,0a1.28,1.28,0,0,0-.41.28,1.15,1.15,0,0,1-.83.39c-.54,0-.78-1.12-1-2a4.8,4.8,0,0,0-.2-.77l0-.06,0-.05.13-.15Zm6.13-.46a1.3,1.3,0,0,0,.26-.92v-.11h.35v1.24l-.06,0-1.17.59-.06,0-.05,0a2.16,2.16,0,0,1-.76-1.21,8.48,8.48,0,0,1-.24-1.59v-.06l0,0,1-.84.06,0,.06,0a2.21,2.21,0,0,1,.73.59,1.71,1.71,0,0,1,.29,1l-.2.06-.8-1.16L45,68l.55,2.18a1.18,1.18,0,0,0,.76-.3ZM96.54,48.15v-.48a4.44,4.44,0,0,1-.75-.93c-.56-.82-1.25-1.82-2.47-1.82s-3.62.9-6.13,2a51.49,51.49,0,0,0-7.58,4.14,3.75,3.75,0,0,1,2.81,1.58A8.82,8.82,0,0,1,83.82,56l0,.13h0v0c0,1.58-.13,1.75-.57,2.33l-.26.36c2.53-.08,5.08-1.63,7-2.78l.89-.53h0a37.47,37.47,0,0,0,4.42-3.31c.95-.84,1.67-1.63,1.67-2.05h0v-.8a1.57,1.57,0,0,0-.34-1.08l0-.06,0-.06Zm-13.07,8v0h-.13V56a5.34,5.34,0,0,0-1.18-2.87,4.83,4.83,0,0,0-1.46-1.31,2.12,2.12,0,0,0-1.62-.24,2.38,2.38,0,0,0-1.17.85,2.7,2.7,0,0,0-.53,2A6.24,6.24,0,0,0,78,56.54a5.58,5.58,0,0,0,1.51,1.71,3,3,0,0,0,1.64.71h.4a1.58,1.58,0,0,0,1.34-.75,3.79,3.79,0,0,0,.56-2.07Zm16.12-7.58-1.94,1.13,0,0h0l-.3.2,0,.6,2.25-2Zm-2.07.85a.06.06,0,0,0,0,.07,5.63,5.63,0,0,1,1.2-.88,4.08,4.08,0,0,0,1.48-1.22,5.2,5.2,0,0,0-1.07.73l-.39.31-.28.19c-.36.24-.89.58-1,.8ZM50.73,65.68a1.76,1.76,0,0,0-.62-.74L50,65h0c-.22.1-.44.2-.44.49h0v.27h0A2.5,2.5,0,0,0,49.86,67h0a1.94,1.94,0,0,1,.21.57,2,2,0,0,0,.64-.28.49.49,0,0,0,.23-.38,3.12,3.12,0,0,0-.21-1.26Zm-1.41-.87a2,2,0,0,1,.8-.38h0c1,0,1.17,1.42,1.25,2.28,0,.2,0,.36.05.47v.07l-.06,0a3.12,3.12,0,0,0-.26.23,1.69,1.69,0,0,1-1,.59c-.19,0-.4-.3-.6-.69a7.59,7.59,0,0,1-.58-1.55v-.53a.78.78,0,0,1,.37-.53ZM54,62.17h.21l0-.08h0c.06-.14.08-.19.42-.19h.46l0,.05.58,1v0l.08,1.54h0a1,1,0,0,1-.4.61,1.7,1.7,0,0,1-.78.43h0A.77.77,0,0,1,54,65.1a2.65,2.65,0,0,1-.3-1.09v-.1l-.25-.36,0-.07v-.27h0v-.4a.55.55,0,0,1,.35-.56h0l.1-.06.06,0Zm0,1.71-.07,0,0,0a1.25,1.25,0,0,1,.44.66h0c.08.21.14.38.43.38h0c.39,0,.49-.34.58-.66a2.79,2.79,0,0,1,.1-.3l-.63-1.62H54.3a2,2,0,0,1-.16.19.5.5,0,0,0-.19.37h0v.93Zm5.64-3.68a4,4,0,0,1-.22-.45,2.16,2.16,0,0,0-.64.31.51.51,0,0,0-.25.36v.27A5.63,5.63,0,0,0,58.85,62c.13.31.25.56.33.56a.8.8,0,0,0,.57-.3,1,1,0,0,0,.26-.66h0v-.27h0a2.61,2.61,0,0,0-.41-1.15Zm-1.17-.52a2.14,2.14,0,0,1,.89-.44c.27,0,.71.55,1,1.24a3.29,3.29,0,0,1,.18.82,2,2,0,0,1-.09.81,1.49,1.49,0,0,1-1.44.94h-.09l0-.09a4.14,4.14,0,0,0-.28-.66A4.05,4.05,0,0,1,58,60.54h0v-.27h0a.9.9,0,0,1,.42-.61Zm-1-17.26v.4a4.26,4.26,0,0,0,1.85,3.09,2.3,2.3,0,0,0,.73.35.77.77,0,0,0,.55,0c.23-.13.38-.44.38-1v-.13h0a4.53,4.53,0,0,0-.87-2.55,3.62,3.62,0,0,0-1.94-1.47,1.7,1.7,0,0,0-.52.49,1.58,1.58,0,0,0-.2.86Zm.43-1.71h.53a2.83,2.83,0,0,1,2,1.45,5.78,5.78,0,0,1,1.07,2.92v.67a1.62,1.62,0,0,1-.29.64h0L61,46.6l0,.06h-.06a4.74,4.74,0,0,1-1.48-.1,2.82,2.82,0,0,1-1.17-.83h0a8.69,8.69,0,0,1-.9-1.34h0a2.92,2.92,0,0,1-.42-1v-1.2h0a2.24,2.24,0,0,1,.32-1,.79.79,0,0,1,.59-.46Zm7.52,16.63a2.21,2.21,0,0,0-.59-.66c-.15.09-.27.16-.38.21h0c-.32.16-.44.23-.31.82a7,7,0,0,0,.27.82c.12.32.25.63.35.83a1.67,1.67,0,0,0,.65-.25h0a.81.81,0,0,0,.25-.69h0v-.27h0a1.62,1.62,0,0,0-.24-.81ZM64,56.51a2.19,2.19,0,0,1,1-.34h.07l0,.06c.05.1.15.25.27.42A3.56,3.56,0,0,1,66.09,58v.67h0c0,.6-.62.88-1.08,1.08l-.18.08-.06,0-.05,0a2.41,2.41,0,0,1-.8-1.07,4.1,4.1,0,0,1-.32-1.55.85.85,0,0,1,.4-.7Zm11.94,23,.56,0h0c.34,0,.36,0,.42.18h0a.64.64,0,0,0,.07.13l0,.06.06-.2L82.3,81l.1,0,0,.1h0l0,0,2.65.66h.05l2.08.46h0l11.59,3.1h0l.4.18,7.1,1.76v.08h.09a5.73,5.73,0,0,1,1.31.24,3.17,3.17,0,0,1,1,.45l-.07.19a5.7,5.7,0,0,1-1.44-.23,1.88,1.88,0,0,1-.92-.48l0,0a8.62,8.62,0,0,1-1.94-.27c-1.36-.29-3-.74-3.63-.93L99.78,86a41.18,41.18,0,0,0-4.35-1.12h0c-.68-.1-4-1-6.76-1.72A23.76,23.76,0,0,1,85,82a8.15,8.15,0,0,1-1.7-.23,2.2,2.2,0,0,1-1-.43l0,.09-.1,0-2.38-.5,0,0-.38-.25L77,79.88l.07.1h-.79l-.42-.22,0-.2Zm4.14-26.62a1.76,1.76,0,0,0-1.21-.28,1.24,1.24,0,0,1-.16.52h0a.8.8,0,0,0-.1.46h0v.27h0a4.75,4.75,0,0,0,.26,1.53,4,4,0,0,0,.7,1.28,2.16,2.16,0,0,0,2.3,1c0-.23,0-.45.06-.64a3.36,3.36,0,0,0-.62-2.77,4.08,4.08,0,0,0-1.24-1.31Zm-1.41-.43v0h0a.66.66,0,0,1,.12-.18h0a.68.68,0,0,1,.72-.11h0a3,3,0,0,1,.81.43,6.57,6.57,0,0,1,1.18,1.08h0a4.8,4.8,0,0,1,.87,2.25c.05.28.11.6.2,1V57L82,58.27l-.05.1-.1-.05-.13-.07-.51-.11a2.48,2.48,0,0,1-2-1.31,5.42,5.42,0,0,1-.72-1.2A4.16,4.16,0,0,1,78.14,54h0v-.27h0a1.9,1.9,0,0,1,.13-.79,1.14,1.14,0,0,1,.41-.47Zm9,17.33c-.42.1-.83.2-1,.44l5.85,2.65L94,72.33l-5.74-2.67a5.67,5.67,0,0,1-.55.15ZM109,79.51a1.25,1.25,0,0,0,.35-.21l-3.67-1.67-.95.5c.5.24,1.56.73,2.43,1.09a5.42,5.42,0,0,0,1.2.41h0a1.72,1.72,0,0,0,.63-.12Zm2.69.82a8.25,8.25,0,0,0-1.85-.76.53.53,0,0,0-.39.14,1,1,0,0,1-.52.24,4.17,4.17,0,0,0,1.6.81c.25.09.48.17.64.25,1.33.61,1.34.6,1.51.5a1.8,1.8,0,0,1,.92-.27v-.09a14.79,14.79,0,0,1-1.9-.82ZM93.15,73.17l4.72,2.33h.38l.06,0,.48.36.74-.37h.27l.37-.37c-.53-.18-1.63-.71-2.71-1.24a19.94,19.94,0,0,0-2.82-1.24,1.85,1.85,0,0,0-1,.29,4.59,4.59,0,0,1-.48.23ZM91.28,82l-2.65-1,.07-.2,2.64.77.07,0V82L91.28,82Zm.33-.21,2.52.66h.05l1.82.43h0l3.6,1.06.07,0V84l.07,0,2.65.8a4.22,4.22,0,0,1,1.08.17,2.35,2.35,0,0,1,.84.39l-.07.19a4.59,4.59,0,0,1-1.13-.16,2.18,2.18,0,0,1-.79-.38l-2.63-.57-.08,0v-.05l-.07,0-5.32-1.52-.06,0-.12-.17a7.68,7.68,0,0,1-1.58-.24,2,2,0,0,1-1-.47l.11-.17Zm9.24-66.94.05-.17h-.37v0h0l0,.08h0l.18,0,.11,0Zm8-10.78,0,0h-.23V4Z"/></g></g></svg>