<svg xmlns="http://www.w3.org/2000/svg" viewBox="0 0 426.54 304.92"><defs><style>.cls-1{fill:#231f20;fill-rule:evenodd;}</style></defs><title>CIT-VII</title><g id="Layer_2" data-name="Layer 2"><g id="Layer_1-2" data-name="Layer 1"><path class="cls-1" d="M398.32,304.92c-13.18-2.09-26.35-7.27-38.38-11.16-15.48-3.82-30.24-9.14-45.14-13-1.3-.65-16.27-4.82-18.72-5.76-9.36-1.58-17.64-5.62-26.35-7.42-7.13-2.3-7.13-2.3-10.08-2.88-8.78-3-17.86-6.55-26.21-8.64-10.15-3-20.23-6.41-30-8.42-15-4.39-30-7.2-44.21-10.58l-15.55-.22c-14,1.3-22.82,4.54-34.85,11-4.32,1.87-8.64,3.82-13,5.76C81.66,258.41,67,264.46,53,268.56a248.88,248.88,0,0,1-36,9.86c-5.11.14-10.94.5-13.25-4.18C-.71,272,.08,265.68,0,262.22c1.08-2.74,2.23-5.47,3.38-8.14C7,248,12.32,242.28,16.5,236.81c1.8-1.3,2.59-3.53,4.82-4.61v-.72c2.09-1.22,3.89-4.9,6.19-5.47l.43-1.08a1.36,1.36,0,0,1,.58-.14c0-.72,7.7-7.56,8.64-8.35.43-1,3.67-3.67,5.26-4.1,0-1.15,1.15-1.3,1.94-1.44v-.5c.29-.07.58-.14.94-.22v-.5c3.31-1.87,5.47-5.18,8.71-6.77,2.88-2.52,4.25-4.18,7.63-6,0-.86,11.81-8.78,12.1-8.93,3.1-2.66,8-4.68,11.74-6.48a3.89,3.89,0,0,1,2.3-1.15v-.43c.72-.14,3.82-2.09,4.32-2.16-.86-16-15-27.58-19.94-41.54-1.37-.65-2.88-5-3.31-5.83-1.58,0-10.8-17.86-12.17-20.09-3-7.56-10.15-14.47-11.59-21.82-.29-.22-.58-.36-.79-.5C40,81.07,35.36,74,31.84,67.61H31.4c-5.18-7-7.13-13.25-1.08-19.3,2.81-1,9.5-3.67,12.67-3.1.43.29.86.58,1.37.94,1.37,3.53,9.36,16.13,12.46,17.14V64c.36.14.79.29,1.22.43a2.64,2.64,0,0,0,1.51,1.87c4.32,5.76,9.5,11.88,15,17.93,2.66,1.15,6.41.36,6,5.26,1.87,2.3,6.7,6.41,8,9.79H89c0,.79,5,6.7,6.19,8,2.16,3.31,3.82,8.42,8.21,10.58,1.22.14,2.52.36,3.82.58.36,1.58.72,3.24,1.15,4.9a130.35,130.35,0,0,0,10.73,13.39c.14.36.36.72.58,1.15h.5c.36.86,1.15,1.3,1.66,2.66h.5c2,3.38,6.62,7.63,10.3,10.87,2.52.58,4.32.58,4.9,4.46.58.72,1.22,1.44,1.87,2.16,2.23-.5,2.23-.5,7.92-2.74,3.6-2.38,9.65-5.33,14.11-5.76,3.17-1.3,6.41-2.59,9.65-3.89-.5-.22-3.6-.43-6.48-1.15-.72-.5-.72-.5-3.38-1.44-10.66-6.48-8.35-15.48-2.09-23.62,1.73-1.51,3.17-2.23,4.32-3.46,16-6.19,34.42-14,52.27-11.38,1.08.72,3.74,1.08,5.54,2.52,1.08,2.52,1.51,3,2.52,5.69,3.6,1.8,12.46-2.52,13.82,6-.58,1.8-2,2.3-3.24,3.17v.58c2.09,1.51,21.1-5.18,22-6.55,2-.79,4-2,6.19-2.81,1.58-1.94,4.75-7.56,6.48-8.14,0-.94,7.63-9.29,8.35-10.51,1.22-1.3,5.4-6.84,6.77-7.27,0-1.51,4.61-6.84,5.76-7.2,0-3.24,6.26-7.49,7.34-10.22,3.82-4.68,7.92-9.65,8.78-15.48.79-1.73,2.16-3.74,2.16-5.47-3.82-5.33-7.78-10.15-10.15-15.12h-.5c-1.22-2.3-6.77-10.73-10.44-17.28-3.1-4.32-5-7.63-6.26-9.36C280.16.58,285.42,1.51,290.6,0c.58.14,4.18,3.17,4.54,4.25.58.14.58.14,5,3.1v.5c1.3,0,20.3,13.68,20.88,14.11v.5c2.81,1.08,6.12,5.33,9.86,7v.43c1,.43,1,.43,8.71,6.48,1.8,0,11.16-1.08,12-.29,0,2.66-3.74,4.9-3.24,6.91,5,2.23,11.16,4.61,16.85,7.34v.43a87.39,87.39,0,0,1,14.18,6.84C392.12,62.21,405.44,70,419,73.8c.5,1.08.36,2,.29,3.67a89.26,89.26,0,0,1-10.58,3.89c-15.7,1.51-32-7.92-46.58-11a129.05,129.05,0,0,0-16.78-5c-3.74-1.37-10.22-4.18-13.54-3.82-3.89,7.2-9.43,13.75-13.61,20.74a3.51,3.51,0,0,0-.5.22c-4.68,7.85-13.1,16-14.54,25a148.25,148.25,0,0,1-10.51,18.94c-2.74,2.59-5,7.06-7.78,8.93-2.23,3.17-6,6-7.56,9.14,2.81.94,3.89,1.94,5.69,5.26.86,1,1.3,1.94,1.87,2.23,7.63,0,7.06.86,7.06,8.78-.58,1.51-2.59,2.88-3.89,4a59.49,59.49,0,0,1-16.13,12.89c-10.22,6.55-22.1,12.24-33.62,15.12a22.42,22.42,0,0,1-9.58-2v-.5c-2.66,0-8.06,5.9-10.58,7.42-2.23,3-5.9,4.75-8.57,7.42-5.18,7.27,6,8.64,10.51,12.24a3.51,3.51,0,0,1,.22.5c4.1,0,9,3.53,14.18,4.68,4-.22,5.26-1.73,6,3.24,1.87,1.08,1.87,1.08,7.34,3.46,14.83,5.54,29.88,13.18,46.37,15.41,1.51.5,2,2.23,3.89,3.89,12.1,4.54,24,9.5,36.86,13.39,3.82,1.51,7.63,3,11.52,4.54,5.69-.29,4,.07,8.42,3.38,12.46,3.82,25.42,8.21,38.16,13.18,4.39,2.23,10.15,4,15.34,6,5.62,1.58,11.23,4.32,17.57,6.19v.43h.43a10.82,10.82,0,0,0,.14,1.44c-3.31,3.31-10.51,6.26-14.76,7.34-4.54.5-9.22.5-13.46.58Zm-.22-2.59c-.94-.43-4.1-.86-7.13-1.73-.58-.36-4.61-1.3-16.42-4.68-.94-.5-2.88-.94-5.26-1.94-50.9-14.83-70.56-20.88-85.46-25.2a52.28,52.28,0,0,1-10.3-3.1c-16.2-4.1-30.89-9.5-46.08-14.18a88.59,88.59,0,0,1-10.08-3.1c-17.71-4.75-35.06-9.07-52.34-13H163.6c-3.38-1.8-7.92-.43-9.72-2.23,0-6.26,8.21-11.38,12.89-14.11,1.66-.43,3.6-1.44,14.4-5.26,7.85-1.87,14.76-3.38,23.62-3,4.18,5.54,16.2,9.58,22.9,12.6,3.1.79,5.69,2.09,9.86,1.87.07,1.37.72,2.16,2.23,3.31,15.77,6.12,32.47,12.53,49.1,18.36,2.45.22,4.39-.22,6.48,2.88a11.07,11.07,0,0,0,.94.86c10,3.46,20.38,6.7,30.74,11.38,5.76,1.94,16.34,6.26,20.45,7.7.86-.14,1.73-.22,2.59-.29a7.55,7.55,0,0,0,2.16,2.16c20.66,6.41,41.69,14.18,62.42,22.32.58.14,7,1.15,7,3.1-8.14,5-14.47,5.11-23.54,5.26ZM11.68,275.69a29.71,29.71,0,0,0-4-1.51c-14.62-8.78,7.7-31.1,13.25-38.23,7-6.48,13.46-14,20.88-19.94,1.94,0,2.81,3.6,4.75,5.54a5.92,5.92,0,0,1,3,2.38c2.45,0,15.19-14.11,16.13-16.2a4,4,0,0,0-1.37-2.52C63.23,202.1,63,202.1,61,201v-.58c6.62-4.9,6.62-4.9,13.82-9.65.36-.43.72-.79,1.08-1.15,11.16-5.83,12.53-6.77,24.12-12.6,13.46-5.62,28.58-9.07,41.54-16.56,4-1.3,9-4,13.39-6,13.25-4.68,27.07-10.37,40.82-14.83,17.78-7.2,37.22-14.33,56.23-18.22,1.66,1.44,1.51,1.66,4.68,1.87a74.58,74.58,0,0,0,10.37-2.88c10.22-4.18,20.45-9.94,30.74-14.18.86-.14,1.73-.22,2.59-.29A99.9,99.9,0,0,1,293,121a243.73,243.73,0,0,1-19.08,22.18,10.84,10.84,0,0,0-.79,1.58c-1.66.58-1.66.58-2.16.43-7.34,3.53-14.76,5.76-21.46,9.43-2.45,2.81-7.34,1.8-9.58,4.75-6.26,3.1-12,5.26-15.55,11.3-2.3.43-2.74-.29-5,.65v1.37c1.22,1.22,2.52,0,4.32,1.37,0,1,.07,2,.14,3-3.38.14-3.89,1.8-6.34,3.89-.65.29-3.82,3.17-10.58,8-11.52,6.48-23.69,12.53-35.21,18.72a3.23,3.23,0,0,1-2.16,1.15c-10.08,6-20.16,10.37-30.67,15.12a2.13,2.13,0,0,0-.72.14c.43-8.71-.14-16.42-.14-24.41a7,7,0,0,0-1.3-3.1c-2.59-.58-3.24.58-4.75,1.66-9.43,3.24-9.72,3.89-7.85,13.54,0,5.54.14,14.54-2.23,20.09-5.76,3.38-16.13,6-20.38,10.3-4.25,1-8.78,4-12.6,5.83a37.1,37.1,0,0,1-9.43,5c-11.59,5.4-24.26,9.79-36.14,13.75-2.59,1.37-7.92,3.53-10.3,3.53-8.42,3.17-8.42,3.17-10.44,4.25a60.61,60.61,0,0,1-10.94,1.22Zm61-16.34a2.62,2.62,0,0,1,1.66-.65c-.58.22-1.15.43-1.66.65Zm2.38-.94c4.1-2.66,13-5,16-8.78,8.28-4,16.56-8.06,24.84-12a66.18,66.18,0,0,1,14.9-6.48c1.51-1.15,1.51-1.15,5.4-3.1,13-5.76,13-5.76,15.91-6.77a217.68,217.68,0,0,1,22.25-10.51c16.27-8.78,33.41-17.21,50-26.21.86,0,1.73,1.94,2,3.6-6.34,3.53-12.1,10.08-18.07,14.18a28.82,28.82,0,0,1-3.46,5.26c-10.87.72-19.87,1.94-30,5.54-1.94,1.94-5.18,1.37-7.06,2.88-6.77,2-17.06,9.65-17.06,17.57-11.45.36-22.82,2-32.83,6.77a6.06,6.06,0,0,1-3.24,1.37c-2.09,2.09-7.56,3.1-8.86,5-6.84,2.3-13.75,5.83-20.23,7.7-3.67,1.66-7,2.59-10.51,4ZM74.6,235.8c-3.17-1.58-21.6-4.68-18.86-10.15,4.1-3.53,8.06-8.64,11.23-12.89a13.44,13.44,0,0,1,.29-1.8c1.08-.65,1.22-.72,3.1-.72,2.45,2.23,8.28,4.82,12.53,4.82,2.16,3.67-3.6,17.78-6.84,20.59a8.87,8.87,0,0,0-1.44.14Zm8.64-.43c-.79-1.08-.94-2.16-.43-2.45,1.3-4.54,3.1-15.62,5.11-17.64,6.19-.94,6.7-2.74,6.7,4.46-.36,4-1.22,8.42-1.22,13.25-2.52,2-7.34,1.94-10.15,2.38ZM98.08,232c-2.38-1.15-.94-2.88-.58-4.18,1.51-1,.07-11.66,4-10.08,1.15,1.51,3.24,9.79,1.66,12a24.82,24.82,0,0,0-5.11,2.3ZM125.22,230c.07-1.87.07-1.87,1.08-8.64V211.32c-.43-2.88-1.08-5-.86-7.42h.5c.65-2.59,5.83-3,8.5-4.82h.72c1.08,2.81,2.23,21.74-.58,26.42a69.64,69.64,0,0,1-9.36,4.54Zm18-17.71c-2-2.23-1.15-10.44-.14-12.6,1.08-.5,1.15-.94,3.1-.72,1.58,1.58,1.73,10.3.07,12.53-1,.22-2,.5-3,.79Zm14.62-7.2c-.58-.5-1.08-1-1.58-1.44-.14-4.39-1.87-10.22,3.38-10.22,2.16,2.88,1.66,7.78-.22,11.3a10.22,10.22,0,0,0-1.58.36Zm13.46-5.54c-.22-.36-.22-.36-1.3-.72-1.66-4-2.16-9.65.72-12.17a7.62,7.62,0,0,1,3.1,2.23c.07,2.74,1.87,9.58-2.52,10.66Zm13-7.92c-.22-.36-.86-.65-1.3-1.3-.65-4.1-1.44-9.79,3.31-10.58,2.09,2.81,2.16,8.5-.36,11.74a11.82,11.82,0,0,0-1.66.14Zm54.22-2.38c5.83-4.82,5.69-11.09,4-17.64-4.54-6.12-10.94-4.75-14.11.72-.79,7-.79,7-.65,8.28h-.43c-1.37-9.22-1.44-12.24,8.06-14.83,4.32-.29,5.18-.22,7.92,4.25.79,3.74,4.9,12.31,1.08,16.13l-.22,1.51a14.44,14.44,0,0,1-5.62,1.58Zm9.86-2.66a29,29,0,0,0-5.47-21.89c-1.22-.79-2.45-1.51-3.67-2.23,2.81-2.16,5.4-3.1,8.93-4.32,3.38-2.74,8.57-4.75,13-6,6-2.59,13-7.78,18.94-2.3a35.33,35.33,0,0,0,3.31,5.4c1.94.07,3.38-.22,5.18-.07.36,1.73,1.08,3.46-.36,5.62-2.45,2-2.81,2.59-3.31,2.81-1.58,4.18-10.94,9.5-15.12,12V176c-1.37.65-2.66,1.37-4,2.09a1.36,1.36,0,0,0-.14.58c-5.9,1.94-11.81,6.34-17.28,7.92Zm-50.62-.72c-2.16-1.08-1.94-1.44-2.3-3.1.14-4.1-.94-8.57,4.25-8.57,1.44,2.52,2.66,10.51-1.94,11.66Zm31-.22c-.43-1-.43-1-.36-1.37.29.5.58.5.36,1.37Zm-133-9.36c-.36-.5-1.37-5.54-2.3-8.5-6.62-13.1-15-25.63-21.6-37.94-4.61-6-7.56-12.31-10.94-18-2.09-4.54-6.7-9.79-7.78-13.61-.5-.43-10.8-19.51-11.52-20.3-3.1-5.62-6-11.16-9.79-15.34-5.11-11.38.43-12.24,10.66-14.18.22.14.43.29.72.5C50,59.54,59.56,69.12,68,79.56c1.37,2.45,4.25,5.76,6.48,8.5.79.22,1.58.5,2.38.79.5,1.8,4.1,6.84,6.7,8.35,4.75,5.69,10.66,13.18,14.62,20.23C99.8,119.3,101,121,104.48,121c.65.86.72,1.08.72,3a210,210,0,0,0,16,19.58c3.17,2.3,6.19,7,9.79,10.3,1.66.72,3.17.94,3.46,1.22,1,2.74,1,2.74,1.58,3.53.5.29.5.29.65.72-.79.72-5.33,3-5.62,3.38-11.59,4-24.55,8.21-35.35,13.61Zm80.42-32.4c-.58-.43-.58-.43-3.24-1,0-1.15.36-1.44,1-1.73a35.09,35.09,0,0,0,1.37-14.83c-1.58-4.75-4-6-7.2-8.28v-.72a7.2,7.2,0,0,0,3.53-1.8c12.67-6,26.64-8.5,41-8.5,1.87.29,9.79,2.3,6.55,6.41v1.22c-2.81,0-1.87.79-1.87,3.1-2.23,1.66-6.19,3.38-2.66,6,1.8-.72,4.1-3.38,5.62-4.82,1.66-.14,3.82-.5,4.75-2.38,3.1,0,5.69-.65,9.07,1v.86c-1.44.29-2.88.58-4.32.94-1.15,2.59.36,2.16.94,4.61-4.82,1.37-9.94,3.67-14.47,5-10.87,4.46-21.67,7.92-32.26,12a60.85,60.85,0,0,0-7.78,2.81Zm-9.86-1.73c-.22-.36-.22-.36-1.22-.79v-.58c6-2.59,5.47-8.42,4.18-13.25l-3.24-5.4c-2.81-.5-3-.65-4.9.58-1.73,2.52-1.73,2.52-1.94,2.45,3.17-7.2,7.92-6.77,12.74-.36C173.17,129.31,174,139,169,142l-2.74.22ZM157.4,135a14.06,14.06,0,0,1-.14-1.66,1.64,1.64,0,0,1,.14,1.66Zm-.5-2.16c0-2.52-.43-4.25,1.08-5.76-.86,5.62-.86,5.62-1.08,5.76Zm100.58-13.18a7.94,7.94,0,0,1,.14-1.3c2.38-1.37,3.82-2.52,6.77-3.17,4-5.26,8.14-10.44,12.24-15.62,5.62-5.9,10.58-12.46,15.62-18.5,4.9-7.13,11.3-13.82,15.41-21.38,2.09-10.58,6.7-13.9,16.92-17.93A103,103,0,0,1,347,39c-.72.94-1.44,1.94-2.09,3-8.86,2.3-19.37,2.81-26.14,8.78,0,6,.86,5.4,6.26,8.28.94.14,2.88-.14,4.25,1.22-.58,4.68-5.83,7.63-7.42,12.17-5,7.42-10.51,15.77-16.06,23-.72,1.58-2.88,4.54-4.1,6.84-3.1,1.87-6.7.94-9.36,3.6-4.82,1.87-4.82,1.87-13.1,5.76-6.48,3.82-14.47,7.56-21.74,8.06ZM402.2,79.13c-6-1.37-8.64-2.3-12.53-3.31-2.38-.94-28.51-8.64-34.06-10.51-10.15-2.45-19.87-6.62-29.52-9.36a41.23,41.23,0,0,1-4.39-2.23c0-4.9,12.67-6.7,16.85-6.91,4.68-1.37,7.06-3.31,12,0,3.38,1.37,6.84,2.74,10.3,4.1C367,54.07,373.69,58,381,60.7c2.52,1.3,20.52,8.78,21.89,9.65,5.26,1.87,6.7,2.59,8.35,3v.43a14,14,0,0,1,3.67,1.66,1.41,1.41,0,0,0,.07.5c-1.94,1.94-10.37,3.1-12.82,3.17ZM310,46.94c-1.58-2.16-3.17-4.25-4.75-6.34C300,32.47,294.42,24.19,290.1,16.13,288.23,13,283.76,7.92,283.76,5,284.92,4.68,289,3.89,290,3.1c2.23,1.3,4.9,3.82,8.06,5.54,12.17,8.64,25.2,17.78,37.51,28-.5,1-7.85,1.51-8.64,1.51-4,2.3-14.18,4.32-15.91,8.35-.36.14-.72.29-1,.43Z"/></g></g></svg>