<svg xmlns="http://www.w3.org/2000/svg" viewBox="0 0 143.43 80.12"><defs><style>.cls-1{fill:none;}.cls-1,.cls-2{stroke:#231f20;stroke-width:0.67px;}.cls-2{fill:#fff;}.cls-3{fill:#231f20;}</style></defs><title>CIT-XLS</title><g id="Layer_2" data-name="Layer 2"><g id="Layer_1-2" data-name="Layer 1"><path class="cls-1" d="M88.31,43.23a13.12,13.12,0,0,1-4,3.43c-2,.86-.86,2-7.57,1.43S63.61,46.37,59.9,45.8s-27.56-5.28-27.56-5.28L22.06,39.38a55.89,55.89,0,0,1-7.71-1.86,4,4,0,0,1-3.14-3.71c-.14-2.14,1.57-3.57,3.28-4.43s7.85-3.85,9.28-4.43S34.2,20.24,34.2,20.24a83,83,0,0,1,16-.14c7,.86,23.27,3.57,26.84,4.14a58.23,58.23,0,0,1,8.42,2.28c1.43.43,6.28,2.28,11.85,4a69,69,0,0,0,10,2.43,13.44,13.44,0,0,0,1.71.14A2.47,2.47,0,0,1,107.73,35,22,22,0,0,1,103,37.81C98.88,39.95,88.31,43.23,88.31,43.23Z"/><path class="cls-2" d="M82.89,49.66,136.72,76.5l6.57,3.28a29.58,29.58,0,0,1-6.14-.57c-1.71-.57-73.25-31.84-73.25-31.84a17.29,17.29,0,0,1-2.71-1.43c-.71-.57-.14-1.57,2.14-1.71a29.09,29.09,0,0,1,9,1.57c2.43.86,7.85,2.28,7.85,2.28Z"/><path class="cls-1" d="M29.49,21.82.93.4A28.1,28.1,0,0,1,4.5.4a10.48,10.48,0,0,1,3,1.29L36.2,20l-2,.29-4.28,2Z"/><path class="cls-1" d="M85.46,26.53l15.13-.86a13.18,13.18,0,0,0,3.28-1.29c1.43-.86,13.42-14.71,13.42-14.71s1.57-1.86,3.14-1.28a8,8,0,0,0,2.43.57L109,33.09S102.45,32,98.59,31,85.46,26.53,85.46,26.53Z"/><path class="cls-1" d="M82.46,10.39a1.59,1.59,0,0,1,1.43-.29c.71.29,4.28,2.28,4.28,2.28l15.71,12s-1.43.57-2.28.86a5.52,5.52,0,0,1-1.57.29Z"/><path class="cls-2" d="M134.57,37.66,103.3,28.1s.14-1.86,2.71-1L111.59,29l25.7,8.57Z"/><path class="cls-1" d="M60.18,21.39s.57-4.14,3.28-4.14a37.5,37.5,0,0,1,10.14,2,16.6,16.6,0,0,1,4.57,2.14,2.44,2.44,0,0,1,1,1.86v1.28s-9.85-2-11.14-2S60.18,21.39,60.18,21.39Z"/><path class="cls-2" d="M93.88,32.38a54.7,54.7,0,0,1,8.28,2.28c1.86.71,3.57,1.43,3.86,2.43a5.66,5.66,0,0,1-1.14,4.86c-1.43,1.71-6.28,2.57-9,2.14a17.72,17.72,0,0,1-6.57-2.85,6.73,6.73,0,0,1-2.57-5.57A4.24,4.24,0,0,1,90.45,32,9.82,9.82,0,0,1,93.88,32.38Z"/><path class="cls-1" d="M64.75,17.25A4.83,4.83,0,0,1,67,18.82a4.27,4.27,0,0,1,.71,2.43A2.46,2.46,0,0,0,68,22.53"/><path class="cls-1" d="M91.88,32.1s2,.71,2.57,1.86a7.13,7.13,0,0,1,.29,4.57,5,5,0,0,1-2.57,2.57,5,5,0,0,1-2.86.14"/><path class="cls-1" d="M49.48,39.8a15.7,15.7,0,0,0,4.43-7.57c.43-2.71.43-3.86.14-4.71s0-1.43,1-1.43,1.14.14,2,.14,1.57,3.14,1.29,5.71a14.08,14.08,0,0,1-2.57,6.42,11,11,0,0,1-2.28,2.14,4.27,4.27,0,0,0-.43.86c-.14.43-.71.71-1.86.71a8.45,8.45,0,0,1-2.43-.29c-.43-.14-.57-1,.14-1.57l.71-.57"/><polygon class="cls-3" points="26.49 23.96 26.92 24.67 27.92 24.39 29.06 24.96 28.34 25.67 35.63 21.96 33.63 20.53 26.63 23.53 26.49 23.96"/><polygon class="cls-3" points="29.63 26.24 36.77 22.39 41.91 25.1 38.34 30.24 32.63 28.1 33.06 27.38 30.49 26.38 29.63 26.24"/><path class="cls-3" d="M40.48,30.52c-.71,0-.14-.86.14-1.43a24.42,24.42,0,0,1,1.86-3.28c.43-.43,2,.43,2,.43l-1.28,5.28Z"/><polygon class="cls-3" points="44.62 31.38 45.77 27.24 46.62 27.24 46.91 31.67 44.62 31.38"/><path class="cls-3" d="M60.33,33.9s-.06-1.59-.1-2.23a12.67,12.67,0,0,1,.35-2.3l1.37.09a17.85,17.85,0,0,1,.29,2.39A7.05,7.05,0,0,1,61.8,34Z"/><path class="cls-3" d="M65.24,34.44s-.06-1.59-.1-2.23a12.69,12.69,0,0,1,.35-2.3l1.37.09a17.93,17.93,0,0,1,.29,2.39,7.05,7.05,0,0,1-.45,2.17Z"/><path class="cls-3" d="M69.79,35.08s-.06-1.59-.1-2.22a12.72,12.72,0,0,1,.35-2.3l1.37.09A17.83,17.83,0,0,1,71.7,33a7,7,0,0,1-.45,2.17Z"/><path class="cls-3" d="M74.29,35.49s-.06-1.59-.1-2.23a12.75,12.75,0,0,1,.35-2.3l1.37.09a17.82,17.82,0,0,1,.29,2.39,7,7,0,0,1-.45,2.17Z"/><path class="cls-3" d="M79.69,36.17s-.06-1.59-.1-2.22a12.66,12.66,0,0,1,.35-2.3l1.37.09a17.94,17.94,0,0,1,.29,2.39,7,7,0,0,1-.45,2.17Z"/><path class="cls-3" d="M72.87,40.56s-18-2.18-32-2.91-22-1.77-22-1.77l67.46,1,.36,1L25.19,36.2l49.09,3.36Z"/><ellipse class="cls-3" cx="90.85" cy="36.73" rx="3.01" ry="4.01"/><path class="cls-3" d="M61.2,21.57s-.56-3.68,2.56-3.57,2.68,4.35,2.68,4.35Z"/><polygon class="cls-3" points="103.67 28.15 104 27.25 134.57 37.66 133.32 37.06 103.67 28.15"/><polygon class="cls-3" points="100.99 25.47 99.66 25.58 82.82 10.76 83.83 10.65 100.99 25.47"/><path class="cls-3" d="M63.9,47.37s0-.5,1-.5a13.33,13.33,0,0,1,3.57,1.34L136,78.64Z"/><polygon class="cls-3" points="29.88 21.79 0.93 0.4 1.9 0.61 31.1 21.57 29.88 21.79"/></g></g></svg>