<svg xmlns="http://www.w3.org/2000/svg" viewBox="0 0 216.07 104.47"><defs><style>.cls-1{fill:#231f20;fill-rule:evenodd;}</style></defs><title>CIT-Excel</title><g id="Layer_2" data-name="Layer 2"><g id="Layer_1-2" data-name="Layer 1"><path class="cls-1" d="M187.27,102.95c-6.11-1.74-24.8-10-27.34-11.22-3.79-1.46-11-4.56-15-6.11-2.31.06-3.63,1.51-4.68-1.68-8.54-2.33-46.1-17.18-47.84-18.24-2.07.16-5-.32-5.26-1.31-3.81-.29-12.42-.25-15-.9-4.25-.72-37.6-3.64-38.19-2.65.13.39.54,2-.61,2a9.87,9.87,0,0,1-1.65-2.53c-5.94-.29-17.76-.58-20.54-1.22C5.9,58.74,1.24,57.6.48,56.45A4.87,4.87,0,0,1,0,53.82c.18-7.36,18.2-13.32,24.65-15v-.33a6.6,6.6,0,0,1,.69-.33,1,1,0,0,1,.07-.33c1.91-.3,5.49-3.43,7.9-4.25,4-2.8,9.91-3.16,14.94-3.65.1-.16,0-.16-.1-.59-3.58-2.47-18.6-16.12-21.76-18.07-1.9-.13-2.19-2.58-4.08-3.46a1.18,1.18,0,0,1,.33-.23,1.63,1.63,0,0,0-.1-.23C24.64,6.5,26.49,6.77,29,7A25.46,25.46,0,0,1,32.9,8.44c1.08.6,25.94,17.21,35,20.93,2,2.31,24.21-1.07,26.36,1h2a9.83,9.83,0,0,1,1.27-6.77c1.54-1.4,6.12-1.32,8.72-.84,8,1.42,21.12.53,28.26,6.62,2.5,4.08-.53,3.42,5.36,3.29,8.06-.86,16.32-1.88,24.42-3.52a1.78,1.78,0,0,1,.2-.26c-2-2.47-8.6-8.75-10.33-10.66-1.71-1.61-9.35-9.15-9.21-9.77,2.78.44,6.68.7,10.6,2.81,0,.14,15.14,12.32,17.21,12.73,4.9-6.3,16.18-20,20.77-23.34a4.85,4.85,0,0,0,1.49-.11c1.31-.3,2.37-1.18,2.74.35,1.58.1,4.1.65,5.87.42-1.85,4.37-4,9.75-6.21,14.05-2.6,6.09-5.87,12.57-8.8,18.46a2.54,2.54,0,0,0,.07.49c5.73,1.74,12.28,3.75,18.46,5.1,2.5.86,6.25,1.68,9,3-3.16,4.06-22.46-4-29.59-4.94-2.3,5.4-6.48,8.36-12.41,10.33a1.6,1.6,0,0,1,.1.23l-.2.2.33.23a.77.77,0,0,0-.23.23,26.06,26.06,0,0,1,2.14,7c-4,.72-8.49-.16-12-1.38a17.9,17.9,0,0,0-4.84,1.42c-2.48,1.14-14.75,1.37-14.56,1.94-4.77,1.91-14,5.78-18.65,7.57a8.08,8.08,0,0,0,.52,1.83,14.93,14.93,0,0,0,5.54,4.12c4.78,2.56,55.53,26.77,63.94,30a4.06,4.06,0,0,0,2.11,1.12c.89,1.43-3,2-5,2.09-2.44.38-6-1.64-6-1.48Zm3.72.7C179.85,99,156.58,90.16,141.43,82.42c-3.45-1.47-27.89-12.74-28-12.57-.7-.7-11.16-4.48-11.19-4.38-1.07-.42-9.14-3.08-9.18-3.19a16.73,16.73,0,0,0-4.18.76c.1.07.23.13.36.23-.13.23,9.77,3,11.75,3.46,6.42,2.37,12.58,4.56,19.4,7.34,2.57,1.23,13.93,6.77,16.41,7.24,0,.16-.07.33-.1.53a.59.59,0,0,0-.23.16.33.33,0,0,1,.13-.16c-2.2-.74-8.12-3.09-10.24-4-3-1.25-35.52-13.2-34.39-13.13-.56,0-5.21,0-4.08-1.74,3.78-1.65,9.3-1.65,14.32-1.42A78.89,78.89,0,0,1,118.59,64c1.25-.3,3.23,1.18,5.07,1.18a.33.33,0,0,0-.13.16,3.77,3.77,0,0,0,1.78.36c.23,1.71,2.44,4.77,4.51,5.17.81,1.22,27.17,13.66,33.5,16.46,4.86,2.08,26.12,12.26,32.42,14.61v-.33a1.46,1.46,0,0,1,.33.07c-.13.2,0,.3.36.49,0,1.28-5,1.74-5.43,1.48ZM137.29,82.32a.9.9,0,0,1-.13-.82l.23.33h.56c.49.63-.39.49-.66.49Zm-23.43-9.18v0Zm10.43-8.54c-1.61-1.12-5-1.63-6.87-2.1-5.08-1.41-28.51-4.36-30.55.77-.1,0-13.9-.88-15.53-1.09-10.1-1-21.25-1.72-30-2.21v-.33c2.73-.39,3-.59,3.35-.49,2.41-.32,15.39-2.31,17.95-2.54-.79,1.15-2,2.21-.66,3.52,5.74.36,7.77.59,9.48-4.57,16.29-2.83,33.7-2.5,50.42-3.55,1-.56,5-.56,6.61-.63,1.84,6.75,10.38,3.89,14.61,6-.49.49-1.88,1.12-2.34.86-1.72,1.16-6.7,2.79-8.79,3.55-1.78.92-6.36,2.81-7.71,2.81ZM33,61.78a1.18,1.18,0,0,1-.33-1.05h-.33c-.26-1.42-3.19-1.48-3.62-1.15a3.06,3.06,0,0,0-.33-.16c3.43-.92,9.53-1.08,13.82-2,6.85-.66,14.94-2.82,21.89-3a10,10,0,0,0-.43,1.05c-1.11.14-5.13.62-6.71.66-6,.76-10.42,1.9-16.08,2.58-2.82,1-7.61-.77-7.61,3.08-.16.13-.16.13-.26.07Zm29.7-2.4a3.07,3.07,0,0,0-.33-.16c.29-3.86,4.26-2.85,8.31-3.53-1.81,4.57-2.94,3.69-8,3.69Zm-45.07-.71c-4.77-.56-13-.2-16.47-2.84-1.9-5.68,5.11-8.29,8.53-10.54,2.17-1.08,12.18-5.05,14.71-5.53a1,1,0,0,1,.16-.33.72.72,0,0,0,.16.1c.43-.53.36-.46,1-.56a4.73,4.73,0,0,0-.13.72,1,1,0,0,0-.33.07c.13.36,0,.79.26,1.42,1.78,0,5.1-.56,4.38,2.4,2.5.72,7.9,2,8.66,2.37,1.74-1.22,5.23-6.94,5.23-8.39-2.53-1.78-6.09-2.31-8.66-3.79v-.43C42.84,30,51.47,31,60.7,30.49c.87.71,2.31,1.25,3.16.81,7.76-.27,16.1-.14,24.19-.71,3.34,2.84,5.93-.5,8.79.71,7.66-.53,22.15.85,30.49,1.14,4.54.76,8.6,1.75,13.5,1.13.1.13,17.64-2.3,20.5-2.79A71.62,71.62,0,0,0,169.57,29a55,55,0,0,0,6-7.11c1.42-1.15,16.41-22.3,20.19-20.42a55.85,55.85,0,0,1,6.83.53C198.4,11,194.09,20.12,190,29.2c-5.4,3-6.15,3.73-12.24,2-6.45-.26-13.17,1.21-1.79,3.81a.71.71,0,0,1,.1.16c-.39.36-.56.16-.66.66a6.38,6.38,0,0,0-.76-.07c-1.7,1.7-16.14,4.82-19.45,5.23a.71.71,0,0,0-.1.16,50.3,50.3,0,0,0-14.22-1.25c-1.86-.09-5.68,0-7,.08-4.07,1.82-5.15,3.67-5.64,8.22-5.44.48-10.26,1-16.16,1-9.71.53-19.84,1.17-28.89,1.74-1.2,0-9.15.89-10,.86a48.58,48.58,0,0,0,.92-6.15c0-2.63.92-7.66-1.81-8.81-8.49.26-6.74,0-6.74,6.8-.1,4.21.2,6.3-1.43,9.55-1.09,0-5.76.86-7.3.95-7.1,1.14-27.44,4.2-28.6,4.25,0,.13-.07.26-.1.43-.07-.33-.07-.33-.23-.43-.57.57-9.86.31-10.3.35Zm125.16-2.19a9.91,9.91,0,0,1-2.34-.66,1.18,1.18,0,0,1,.13-.36c4.87.33,10,0,14.94.26-.56.23-.56.23-.76.43a2.55,2.55,0,0,0-.36-.13,1.18,1.18,0,0,0-.23.33c-1.42,0-2.83.07-4.25.13a.72.72,0,0,1,.1-.16c-.23,0-.33.07-.56-.1a1.83,1.83,0,0,0-.2.26c-1.55-.2-2.2-.1-2.76-.16a.72.72,0,0,0-.1.16,19,19,0,0,0-3.62,0Zm-3.65-.66a3.1,3.1,0,0,0-.33-.16l.79-.2v.43a2.58,2.58,0,0,0-.46-.07Zm-3-.43c-.59-.07-1.18-.13-1.74-.16l.1-.39c.39,0,3.29.56,1.65.56Zm38,0A41.48,41.48,0,0,1,164.86,54a1.65,1.65,0,0,1-.07-.39c1.25-1,4.71-.76,6.65-.86v-.56a.72.72,0,0,1,.16-.1c.13-2.11.1-1.94-1.22-2.67a2.54,2.54,0,0,1,.07-.49c.89-.3,1.81-.56,2.73-.82.63,1.28,2.3,5.3,1.94,6.81a2.94,2.94,0,0,1,.2.33c-.26.16-.26.16-1.15.16ZM64.65,55.21c0-1.91,5.23-2,6.68-2,0,0,.07.1.13.16-.2.43-.39.86-.56,1.28-2.12,0-4.08.56-6.25.56Zm83.49-.13c-3.36-.07-9,.13-11.26-1,0-.2.07-.39.1-.56,2-3.72,2.5-9.31-.76-12.21a2.54,2.54,0,0,1,.07-.49c9.43-1,20.63.43,28.76,5.5,2,.82,2.53.63,3.36,2.93a3.13,3.13,0,0,0,2.14.79c3.16,2.76-3.95,2.73-4.28,2.4a1.18,1.18,0,0,0-.23.33,7.73,7.73,0,0,0-3.82,1.35c-4.71.36-9.68.86-14.09,1Zm-75-.85c-.2,0-1.06.16-1.23.16a6.91,6.91,0,0,1,.53-1.45c13.72-1.74,28.63-2,42.65-2.53a.72.72,0,0,1,.1-.16c2.73.49,10.2-.82,13.2-1v.69c-3.88,1.15-9.51,1.15-13.53,1.38l-.23-.33c0,.1-.07.2-.1.33-12.45.81-29.1.87-41.39,2.94Zm59-.37a4.09,4.09,0,0,0-.53-.13,6.43,6.43,0,0,1-.16-.66l-.2.1c-2.76-2.27-2.27-5.27-1.55-8.13l.46.1c-.89,2.07-.46,6.42,2,7.87,4.38-.36,4.28-5.63,3.95-8.72a4.43,4.43,0,0,1,.56.13c.13.36.26.76.43,1.15.2,0,.53.13.76-.1a4.75,4.75,0,0,1,.16,1.88,1.28,1.28,0,0,1-1,.43c-.23,3.42-.63,6.09-4.84,6.09Zm16.26,0c-3-.1-3-.1-3.52-.26a1.56,1.56,0,0,1,.33-.33,1.62,1.62,0,0,0-.1-.23c5.76.1,11.55-.39,17.34-.76-.16.69-1.18.86-1.74.89a1,1,0,0,0-.13.33.46.46,0,0,0-.1-.13c-4.21.33-8.13.3-12.08.49ZM65.6,52.52A12.78,12.78,0,0,1,66,50.23c1.08-4-.22-9.21.63-12.15,1.55-.2,4.61-1.15,6.29.23,1.32,2.44.63,11-.82,13.63-2.23.14-4.15.58-6.45.58Zm89.58-.58.1-.49c2-1,6.19-.92,8.92-1.48-1,2.07-7.14,1.88-9,2ZM169,48.82c-.82-1.65-1-1.78-2.21-2.37a6.44,6.44,0,0,1-.07-.76c.11-.11,12.47-1.32,13.13-1.22A41.45,41.45,0,0,1,169,48.82ZM107.37,48c-2-1.12-1.09-4.18-1.05-5.82.59-.66.89-.49,1.94-.49,1,.79,2,6.52-.89,6.32Zm11,0c-1.68-.72-2.4-6.94,1.45-5.66-.13.13-.13.13-.13.46l.23-.1a12.64,12.64,0,0,1-.1,5.2,3.9,3.9,0,0,1-1.45.1ZM98.58,47.7c-2.21-.72-1.88-4.8-1.18-6.19,4.67,0,2.57,7.11,1.18,6.19Zm-10.2-.26a7.66,7.66,0,0,1-.63-5.59c3.65-2,4.38,5.92.63,5.59Zm-8.69-.07c-2-1.18-1.28-3.62-1.15-5.2.2-1.12,1-.76,2.14-.82,1.18,1.18.33,4.34,0,6.09-.33,0-.66-.07-1-.07Zm-33.83-.66c-.56-.26-.56-.26-4-.92,1-2.71,2.75-4.26,3.24-7.35,1.09.31,3.74,0,3.74,1.66C48,42,47.51,45,46.22,46.68a1.24,1.24,0,0,0-.36,0ZM51,46.05l-1.78-.2c-.56-.92.69-6.06,2.76-5.56a15.44,15.44,0,0,1,.86,5.83c-.63,0-1.25-.07-1.84-.07Zm112.29-1.42a.48.48,0,0,1-.42-.46c4.81-2,11.1-2.29,16.91-4,1.68-.39,3.36-.79,5-1.15a5.82,5.82,0,0,0-.82,1.55c-2.21,0-6.85,1.71-9,2.18-3.92.58-8.06,1.84-11.75,1.84Zm-3.95-1.88c-.46-.26-.46-.26-.72-.26a1.93,1.93,0,0,1,.07-.46c6.94-1.84,13.67-2.95,20.57-5.79-.1-.23.86-.13,1-.3a3,3,0,0,1,1.65.26,4.26,4.26,0,0,1-2.63,1.25,24.93,24.93,0,0,1-5.69,2.13c-.09.14-11.9,3.17-14.19,3.17Zm53.61,0c-6.12-2.14-12.7-2.86-18.46-5.17-5.86-1.61-12.9-4-18.56-4.61a2,2,0,0,1-.16-.39,9.26,9.26,0,0,1-2.27-.43v-.33c4.67.23,9,.56,13.51,2.8,4.57,1.35,9.41,3,14.57,4.29,4.23,1.33,8.58,2.36,12.93,3.58a.72.72,0,0,0-.1.16l-1.45.1ZM132.86,32.27c-9.51-1.09-16.83-2.27-26.34-2,0-2.34-.49-4.52-.33-6.26.43-.1,1.57.19,3,.19,4,.72,25.86.92,25.58,8.4-.2,0-1.73-.29-1.9-.29Zm-41.41-1c-1-.1-2.27-.56-2.86-.59v-.46c1.61,0,3.13-.39,4.84.56-.36.36-1.58.43-2,.49Zm-28.57-.56a9.14,9.14,0,0,0-.89-.26c0-.16-.07-.33-.1-.46a4.69,4.69,0,0,1,3.85.26c-.49.49-2.47.46-2.86.46Zm34.62-.33a1.46,1.46,0,0,0-.33-.07c-.36-1.84-.07-7.34,3-5.82-.46.33-.89.66-1.32,1a1.09,1.09,0,0,1-.66,1.09,25.46,25.46,0,0,1,0,3.55c-.43.23-.43.23-.66.23Zm-44.17-.23C52,30.06,50.7,30,49.42,30c-.23-1-1.45-1.05-1.25-1.91.36-.07.69-.2.69-.72C42.14,22,34.94,15.88,28.16,11.46a3.63,3.63,0,0,0-2-1.38v.33h-.33v-.33c-.33,0-.33,0-.43.16-.82-1.65-.64-1.51-1.79-2.37a1.64,1.64,0,0,1,.07-.39c5.23-.13,7.38-.07,11.7,3.52,10.69,6.8,20.23,13.34,30.24,18.13l.1.39c.16,0,1.55.13.66.66-4.18-1.38-8.79-.07-13.07-.07Zm51-1c-.23-1.12-.46-2.24-.66-3.32.89.16,1.05,1,1.91,1.84-.07.43-.92,1.71-1.25,1.48Zm63.29-1C163.73,25.62,153,15,151.11,13.21c-.89-1.09-3.23-2.35-3.23-3.21,4.71-.66,9.12,4,13,6.51,1.42,1.22,5.45,4.41,10.94,8.3,0,.76-2,2.41-2.57,3.23l-1.65.1Zm-64.93-3.29c-.59-.3-.49-.43-.56-.59.46,0,.46,0,.72.23v.33a.25.25,0,0,0-.16,0Zm-1.55-.26.1-.39c.46,0,.46,0,.66.16a5.08,5.08,0,0,0-.76.23Z"/></g></g></svg>