<svg xmlns="http://www.w3.org/2000/svg" viewBox="0 0 148.01 78.14"><defs><style>.cls-1,.cls-4,.cls-5{fill:none;}.cls-1,.cls-2,.cls-4{stroke:#231f20;}.cls-1,.cls-2{stroke-width:0.8px;}.cls-2{fill:#fff;}.cls-3{fill:#231f20;}.cls-4{stroke-width:0.4px;}</style></defs><title>CJ2</title><g id="Layer_2" data-name="Layer 2"><g id="Layer_1-2" data-name="Layer 1"><path class="cls-1" d="M126.77,52.55c-3-.1-21-2.59-21-2.59s-9.65-.4-12.84-.3-12,.1-15.23,0a65.33,65.33,0,0,1-11.57-1.38l-.37-.12a43,43,0,0,1-7.27-4.08c-1.19-.8-3.68-2.49-3.68-2.49s-3.28-1-4.28-1.49a9.19,9.19,0,0,1-2.09-1.69l-3.58-1.1c-2.59-.8-8.56-4.88-8.56-4.88L33.91,31a5,5,0,0,0,.5-1.49,2.21,2.21,0,0,1,.2-.9s7.86.7,10.95,1a62.52,62.52,0,0,0,6.37.3,2.49,2.49,0,0,0,1.69-.4,3,3,0,0,0,1-.9l29.06,1.49,35.23,3.28s3.18.7,4.28,1.09,6.07,3.48,6.07,3.48l2,.8A86,86,0,0,1,140.11,42a25.4,25.4,0,0,1,6.37,5.17,4.31,4.31,0,0,1,1.09,3.38c-.1.7-1.89,2-4.08,2.39a65.47,65.47,0,0,1-10.15.4A52.7,52.7,0,0,1,126.77,52.55Z"/><path class="cls-2" d="M65.26,49.37,66.55,48s12.64-.1,15,.2,3,.8,3.38,1.19-.3.9-.6,1.29S41.72,73.3,35.55,76.55l-.75.39-1.19.6a11.47,11.47,0,0,1-3.48.1,14.21,14.21,0,0,1-2.89-1.29Z"/><path class="cls-3" d="M35,76.24,83,48.67a2.18,2.18,0,0,1,1.49.6c.5.6.1,1-.1,1.39S35.55,76.55,35.55,76.55Z"/><path class="cls-4" d="M33.61,77.54a4,4,0,0,0-2.29-1.19C30,76.24,28,76,28,76"/><path class="cls-1" d="M34.6,28.57,19.47,9.26l.3-.6s6.47.4,8.86.7a12.94,12.94,0,0,1,6.87,3.48c1.29,1.49,19.11,15.73,19.11,15.73a3.45,3.45,0,0,1-1.89,1.29,16.29,16.29,0,0,1-2.69-.1Z"/><path class="cls-2" d="M.76,21.5l20.7-10.05,7.86.4c1.79.1,2.79.1,2.89.6s-.9.5-1.49.7-2.69.6-2.69.6L7,21.62l-2.06.77s-1.59-.1-2.49-.2A4,4,0,0,1,.76,21.5Z"/><path class="cls-3" d="M5.94,21.3l23.49-9s1.39.4,1.29.8l-.1.4-2.59.2L6.63,21.6Z"/><path class="cls-1" d="M24.55,8.76,34.7.4s2.19,0,3.09.1,1.59.2,1.69.5a2.14,2.14,0,0,1-.2,1L33.71,11a8.24,8.24,0,0,0-1.59-.9A23.77,23.77,0,0,0,27.54,9,22.78,22.78,0,0,0,24.55,8.76Z"/><path class="cls-3" d="M32.11,10.15l6.47-9.06.9-.1a5.61,5.61,0,0,0-.2,1c0,.3-5.57,9.06-5.57,9.06Z"/><path class="cls-1" d="M63,42.2s-6.37-.3-7.76-.4a20.11,20.11,0,0,1-5.47-1.39A3.4,3.4,0,0,1,48,37.62c-.2-1.09.4-2.19,2.29-3A15.06,15.06,0,0,1,56,33.54c1.69,0,4.78.4,6.37.5a5.4,5.4,0,0,1,3.28.9,4,4,0,0,1,1.29,3.19,4.23,4.23,0,0,1-1.49,3.18c-.8.9-.9.7-1.59.9S63,42.2,63,42.2Z"/><path class="cls-1" d="M63.27,28.86a6.71,6.71,0,0,1-.4-2.49,9.16,9.16,0,0,1,1.39-2.09A25.11,25.11,0,0,1,70.63,23c2.59,0,6.57.2,7.56.2a5.58,5.58,0,0,1,2.29.5,3.26,3.26,0,0,1,1.79,2.69,4,4,0,0,1-.6,2.89,1.64,1.64,0,0,1-1,.7Z"/><path class="cls-1" d="M64.46,41.9a2.32,2.32,0,0,1-1.78-1.26,7.69,7.69,0,0,1-.41-3.32,3.24,3.24,0,0,1,1-2.29c.63-.6.63-.7,1.15-.7"/><path class="cls-5" d="M78.6,29.66A4.14,4.14,0,0,1,77.5,27a4.28,4.28,0,0,1,1-3,2.9,2.9,0,0,1,1-.6"/><path class="cls-1" d="M78.4,29.65a5.72,5.72,0,0,1-.75-1.94,5.75,5.75,0,0,1,.56-3.14c.4-.75.83-.94,1.07-1s.83,0,.83,0"/><ellipse class="cls-3" cx="64.75" cy="37.99" rx="1.37" ry="2.57"/><ellipse class="cls-3" cx="80.19" cy="26.91" rx="1.14" ry="2.42"/><path class="cls-1" d="M102.43,31.78,90.6,30.53,119.39,8.47a33.72,33.72,0,0,1,4.41-.13c.89.16,1.5.43,1.56.91s-.08.56-.38.94S104.12,32,104.12,32Z"/><polygon class="cls-3" points="124.23 9.76 125.01 9.87 104.18 31.77 102.51 31.66 124.23 9.76"/><path class="cls-3" d="M103.78,42.7a5.7,5.7,0,0,1-.33-2.06,3.69,3.69,0,0,1,.8-1.86l1.46.13A6.53,6.53,0,0,1,106,41a3.9,3.9,0,0,1-.73,1.86Z"/><path class="cls-3" d="M98.67,42.23a5.72,5.72,0,0,1-.33-2.06,3.68,3.68,0,0,1,.8-1.86l1.46.13a6.53,6.53,0,0,1,.27,2.06,3.9,3.9,0,0,1-.73,1.86Z"/><path class="cls-3" d="M93.56,41.7a5.73,5.73,0,0,1-.33-2.06,3.7,3.7,0,0,1,.8-1.86l1.46.13A6.53,6.53,0,0,1,95.75,40,3.92,3.92,0,0,1,95,41.84Z"/><path class="cls-3" d="M88.52,41a5.72,5.72,0,0,1-.33-2.06,3.69,3.69,0,0,1,.8-1.86l1.46.13a6.55,6.55,0,0,1,.27,2.06A3.91,3.91,0,0,1,90,41.11Z"/><path class="cls-3" d="M78.16,40a5.74,5.74,0,0,1-.33-2.06,3.69,3.69,0,0,1,.8-1.86l1.46.13a6.51,6.51,0,0,1,.26,2.06,3.91,3.91,0,0,1-.73,1.86Z"/><path class="cls-3" d="M83.34,40.44A5.73,5.73,0,0,1,83,38.39a3.69,3.69,0,0,1,.8-1.86l1.46.13a6.54,6.54,0,0,1,.27,2.06,3.91,3.91,0,0,1-.73,1.86Z"/><path class="cls-3" d="M111.14,42.7s.2-1.79.4-2.65a5.35,5.35,0,0,1,.73-1.79c.2-.27.46-.27.93-.27a3.76,3.76,0,0,1,1.06.13,2.27,2.27,0,0,1,.6,1.39,14.41,14.41,0,0,0,.66,2.72c.27.8.53,1.06.46,1.53s-.2.53-.73.46-3.12-.53-3.38-.46S111.14,42.7,111.14,42.7Z"/><path class="cls-3" d="M121.36,44.16l-2.46,1a2,2,0,0,1-1.26-.2c-.46-.33-1.26-2.59-1.66-4.25a8.4,8.4,0,0,1,0-3.38,8.53,8.53,0,0,0,2.52-.46,13.75,13.75,0,0,0,1.92-.8,20.71,20.71,0,0,1,2.19,1.26c.73.53,3.52,3.05,3.52,3.05s.66.53.26.8l-.4.27-.93-.6s-.93.6-2.59,1.53a8.27,8.27,0,0,0-1.86,1.19Z"/><path class="cls-3" d="M127.86,39.91l-.73.46s-2.72-2.19-3.78-3-2.26-1.73-2.26-1.73.4-.33.4-.6a2.7,2.7,0,0,1,.13-.66l7,3.12-1.46,1.53Z"/><path class="cls-3" d="M124.28,52.35A151.39,151.39,0,0,0,96,46.08C81.88,44.59,71.73,43.4,71.73,43.4l-.1-1.29s29.16,3.08,35.33,4.68,19.41,5.87,19.41,5.87Z"/><path class="cls-3" d="M129.86,53s-12-4-14.93-4.78S94.52,43.5,91.34,43.1s-15.63-1.79-15.63-1.79l-.6-1.49S91.83,42,97.81,43.2s21.2,5.47,23.39,6.17S132,53.25,132,53.25Z"/><polygon class="cls-3" points="73.02 41.6 66.06 40.81 66.85 39.32 71.93 39.61 72.62 39.91 73.02 41.6"/><path class="cls-3" d="M76.9,39.12a51.2,51.2,0,0,0-6.07-.8c-1.79,0-3.88-.2-3.88-.2a8.32,8.32,0,0,0-.1-1.19l-.1-.6a53.87,53.87,0,0,1,7.27.3,9.79,9.79,0,0,1,2.59.7Z"/><path class="cls-3" d="M47.44,36.33S43.26,35,41.27,34.14s-7-3.68-7-3.68l.1-1s8.76,4,10.05,4.48S49,35.33,49,35.33l-1,1.19Z"/><path class="cls-3" d="M51.52,34.14s-7.76-2.39-9-3a26,26,0,0,1-3.28-2.29l-6.07-2.79L29.63,22.3l12.54,6.87s3.58,1.39,5.37,2,6.67,1.49,7.17,1.69,2.59.8,2.59.8a13.11,13.11,0,0,0-3,0C52.92,33.84,51.52,34.14,51.52,34.14Z"/></g></g></svg>