<svg xmlns="http://www.w3.org/2000/svg" viewBox="0 0 513.13 145.32"><defs><style>.cls-1,.cls-2,.cls-20,.cls-3,.cls-7{fill:#fff;}.cls-1,.cls-10,.cls-12,.cls-2,.cls-20,.cls-7{stroke:#231f20;}.cls-1,.cls-2{stroke-width:2px;}.cls-12,.cls-2,.cls-20{stroke-linecap:square;}.cls-4{fill:#fcfcfc;}.cls-5{fill:#f8f8f9;}.cls-6{fill:#f6f7f7;}.cls-8{fill:#a7a9ac;}.cls-9{fill:#eff0f0;}.cls-10,.cls-12{fill:none;}.cls-10,.cls-20{stroke-width:0.21px;}.cls-11{fill:#dcddde;}.cls-13{fill:#f8f6f5;}.cls-14{fill:#e0e1e2;}.cls-15{fill:#e3e4e5;}.cls-16{fill:#e4e5e6;}.cls-17{fill:#e7e8e9;}.cls-18{fill:#d6d8d9;}.cls-19{fill:#7aadce;}</style></defs><title>CL604</title><g id="Layer_2" data-name="Layer 2"><g id="Layer_1-2" data-name="Layer 1"><path class="cls-1" d="M375.9,76.17l.07-7.49a22.73,22.73,0,0,0,10.3-3.53A35,35,0,0,0,393.83,59L434,11.3C442.94.71,447.9,1.5,454.67,1H464a337.13,337.13,0,0,1,44.13,5.33,1.22,1.22,0,0,1,.94,1l-.94,3.1c-.22.72-1.15.79-1.94.94-5,1.08-9.58,2.09-14.18,2.88L454.6,84.3C428.46,81,402.76,78.47,375.9,76.17Z"/><path class="cls-2" d="M356.39,72.14v-3.6l19.73.22c0,1.22-.22,5.69-.22,7.42L358.34,74.8C357.69,74.22,357,72.64,356.39,72.14Z"/><path class="cls-3" d="M369,74.08l5.54.22v-.22Z"/><path class="cls-3" d="M369,74.08l-5.47-.22,11,.07v.14Z"/><path class="cls-3" d="M363.52,73.86l-3.67-.14-.07-.07,14.76.07v.22Z"/><path class="cls-4" d="M359.78,73.65c-.07-.07-.22-.14-.29-.22h15v.29Z"/><path class="cls-4" d="M359.49,73.43l-.22-.22h15.26v.22Z"/><path class="cls-5" d="M359.27,73.22c-.07-.07-.07-.14-.14-.22h15.41v.22Z"/><path class="cls-6" d="M359.13,73c-.14-.07-.22-.22-.29-.29h15.7V73Z"/><path class="cls-6" d="M358.84,72.71l-.22-.22h15.91v.22Z"/><polygon class="cls-7" points="432.93 79.84 470.87 20.58 487 23.46 454.82 83.37 432.93 79.84"/><path class="cls-2" d="M288.28,141.62c47.38-2.31,136.22-24.62,182.16-37,4.25-1.22,4.82-.94,4.75-4.68L475,90.28c.07-1-2.88-3.89-4.82-4.18C427.38,79.7,362.73,74.3,321.62,72.86l-53.35-.65-143.5-.36c-22.82,1.3-46,.79-65,14L40.89,98.92c-10.08,4.18-14.26,6-23.76,10.58-5.47,2.81-11.23,6.62-13.1,8.64a6.75,6.75,0,0,0-3,5.47c.5,3,1.58,4,4.1,5.76a76.41,76.41,0,0,0,12,4.9c34.34,10.66,82.37,7.78,117.5,7.85L234,135.57Z"/><polygon class="cls-8" points="84.09 98.78 86.83 98.78 86.83 94.96 84.09 98.78"/><polygon class="cls-9" points="42.4 98.85 40.82 98.85 43.98 96.69 42.4 98.85"/><polygon class="cls-7" points="59.82 85.74 86.83 85.6 86.83 98.78 40.82 98.85 59.82 85.74"/><path class="cls-3" d="M239.46,103.53a1,1,0,0,0,.79.43h3.82a.83.83,0,0,0,.79-.43Z"/><path class="cls-7" d="M240.26,104h3.82A.91.91,0,0,0,245,103V96.11a.87.87,0,0,0-.94-.94h-3.82a.91.91,0,0,0-.94.94V103A1,1,0,0,0,240.26,104Z"/><path class="cls-3" d="M220.24,103.6a1,1,0,0,0,.79.43h3.81a.83.83,0,0,0,.79-.43Z"/><path class="cls-10" d="M221,104h3.81a.91.91,0,0,0,.94-.94V96.18a.87.87,0,0,0-.94-.94H221a.91.91,0,0,0-.94.94v6.91A1,1,0,0,0,221,104Z"/><path class="cls-3" d="M220.24,103.6a1,1,0,0,0,.79.43h3.81a.83.83,0,0,0,.79-.43Z"/><path class="cls-7" d="M221,104h3.81a.91.91,0,0,0,.94-.94V96.18a.87.87,0,0,0-.94-.94H221a.91.91,0,0,0-.94.94v6.91A1,1,0,0,0,221,104Z"/><path class="cls-3" d="M200.58,103.6a1,1,0,0,0,.79.43h3.82a.83.83,0,0,0,.79-.43Z"/><path class="cls-7" d="M201.38,104h3.82a.91.91,0,0,0,.94-.94V96.18a.87.87,0,0,0-.94-.94h-3.82a.91.91,0,0,0-.94.94v6.91A1,1,0,0,0,201.38,104Z"/><path class="cls-7" d="M181.22,104H185a.91.91,0,0,0,.94-.94V96.18a.87.87,0,0,0-.94-.94h-3.82a.91.91,0,0,0-.94.94v6.91A1,1,0,0,0,181.22,104Z"/><path class="cls-3" d="M161.63,103.6a1,1,0,0,0,.79.43h3.82a.83.83,0,0,0,.79-.43Z"/><path class="cls-7" d="M162.42,104h3.82a.91.91,0,0,0,.94-.94V96.18a.87.87,0,0,0-.94-.94h-3.82a.91.91,0,0,0-.94.94v6.91A1,1,0,0,0,162.42,104Z"/><path class="cls-3" d="M142.7,103.6a1,1,0,0,0,.79.43h3.82a.83.83,0,0,0,.79-.43Z"/><path class="cls-7" d="M143.49,104h3.82a.91.91,0,0,0,.94-.94V96.18a.87.87,0,0,0-.94-.94h-3.82a.91.91,0,0,0-.94.94v6.91A1,1,0,0,0,143.49,104Z"/><polygon class="cls-7" points="42.98 97.34 58.17 86.82 69.33 87.04 59.25 97.41 42.98 97.34"/><polygon class="cls-11" points="64.29 94.74 61.98 97.41 63.28 97.41 64.29 94.74"/><polygon class="cls-7" points="61.98 97.41 71.06 86.97 84.66 86.97 84.66 97.41 61.98 97.41"/><line class="cls-12" x1="17.2" y1="134.2" x2="17.2" y2="109.5"/><path class="cls-7" d="M110.58,77.68h18a3,3,0,0,1,3,3v40.68a3,3,0,0,1-3,3h-18a3,3,0,0,1-3-3V80.63A3,3,0,0,1,110.58,77.68Z"/><path class="cls-7" d="M449.56,6.69l.36-2a2.54,2.54,0,0,1,2.45-1.73c7.27,0,14.47.94,24.48,3.38l-.07,2.88-.58,2.74c-.36,1.37-.72,1.73-2.38,2.09a163.26,163.26,0,0,1-18.65,1.73c-2.16.07-4.61-2.09-4.83-3.53A16.79,16.79,0,0,1,449.56,6.69Z"/><path class="cls-7" d="M492,14.18a307.84,307.84,0,0,1-38.45,3.89"/><path class="cls-4" d="M446.39,6c0-.07.07-.14.14-.22h30.67L481,6Z"/><path class="cls-3" d="M446.54,5.82a2.82,2.82,0,0,1,2.52-1.37c.58,0,14.76.58,28.15,1.37Z"/><path class="cls-7" d="M447.76,8.85c-3-.58-1.58-4.39,1.29-4.39.86,0,32.4,1.37,45.72,2.52l3.82,3.6Z"/><path class="cls-7" d="M495.21,6.9l17.86,2.3L500,10.43C490.67,10.43,490.38,6.69,495.21,6.9Z"/><rect class="cls-7" x="283.38" y="103.74" width="16.63" height="17.93" rx="3.67" ry="3.67"/><path class="cls-7" d="M268,102.88V75.52c-.22-1.8,3.24-3.6,4.82-3.67l.14,33.7C272.37,105.54,268.48,104.1,268,102.88Z"/><path class="cls-7" d="M272.94,105.62l-.14-33.84A70.68,70.68,0,0,1,293,69.11c8.78,0,14-.07,31.61,1.8L324.42,105c-8.78,3.46-19.8,4.18-31.54,3.67A88.78,88.78,0,0,1,272.94,105.62Z"/><polygon class="cls-7" points="325 102.95 325 74.51 355.17 77.97 355.17 97.77 325 102.95"/><polygon class="cls-13" points="329.75 101.08 325.65 101.8 325.65 101.58 329.75 101.08"/><polygon class="cls-7" points="355.17 97.7 355.17 77.97 370.65 80.34 370.65 94.67 355.17 97.7"/><polygon class="cls-13" points="364.74 95.03 361.14 95.68 355.82 96.26 355.82 95.97 364.74 95.03"/><polygon class="cls-3" points="361.14 95.68 355.82 96.69 355.82 96.26 361.14 95.68"/><polygon class="cls-7" points="288.35 123.04 301.24 123.26 220.6 127.36 161.34 129.02 168.11 124.98 183.81 124.33 288.35 123.04"/><path class="cls-7" d="M136.22,139.82c8.86-2.66,18.86-11.52,28.87-15.55,7.06-2.74,19.08-2.74,18.29-.14-5.54.36-13.68-.58-15.41,7,0,12.74,16.27,11.52,26.35,13.1-13,.86-45.43,1.15-56.16-1.44C137,142,136.22,141.9,136.22,139.82Z"/><path class="cls-7" d="M168,134.85c-1.15-1.94-.65-9.5,6.12-8.21-6.62,4.18.14,14.62,26.28,17.57C175.67,144.86,170.27,140,168,134.85Z"/><path class="cls-14" d="M208.58,131.18l14.9-1.37H278l-3.1.43c-.07.36-.22.65-.29,1Z"/><polygon class="cls-15" points="223.48 129.81 238.38 128.44 287.85 128.44 277.98 129.81 223.48 129.81"/><polygon class="cls-15" points="238.38 128.44 253.29 127.07 297.71 127.07 287.85 128.44 238.38 128.44"/><polygon class="cls-16" points="253.29 127.07 268.19 125.7 307.5 125.7 297.71 127.07 253.29 127.07"/><polygon class="cls-16" points="268.19 125.7 283.17 124.33 314.49 124.33 314.78 124.7 307.5 125.7 268.19 125.7"/><polygon class="cls-17" points="283.17 124.33 295.7 123.18 296.27 122.9 313.26 122.9 313.26 122.9 314.49 124.33 283.17 124.33"/><polygon class="cls-17" points="296.27 122.9 298.86 121.53 313.26 122.9 296.27 122.9"/><path class="cls-7" d="M173.22,134.42,295.7,123.18l3.17-1.66,14.4,1.37,1.51,1.8-39.89,5.54c-2.45,10.51-26.14,8.86-38.3,11.3C215.56,144,190.65,149,173.22,134.42Z"/><path class="cls-7" d="M223.84,126.06l-49.46.58c-2.45,1.37-3,3.46-2.38,4.54.65,1.37.22,2.16,2.38,4.1l50.33-4,59.54-5.62,4.25-.22c-1.08-1.15-2.16-1.51-1.37-2.38Z"/><path class="cls-7" d="M231.18,142.62c11.16-1.8,30.1-3.17,38.59-6.48a9.56,9.56,0,0,0,5.18-5.9c9.36-.58,19.66.22,27.79,4.9-3.82,3.1-12.31,5.69-16.63,6.26C268.12,143.85,251,141.69,231.18,142.62Z"/><path class="cls-18" d="M239.61,141.69c-.72.14-1.44.22-2.16.29,12.38-.65,22.54-.07,33-.29Z"/><polygon class="cls-19" points="282.66 123.47 286.12 123.33 286.12 123.4 282.66 123.47"/><path class="cls-7" d="M224.49,126c-2.74.86-3.46,4.1.29,5.33"/><path class="cls-7" d="M224.85,131.39c14.69.94,34.27,1.73,50.33-1.15"/><path class="cls-20" d="M309.59,102.45"/><path class="cls-7" d="M289.43,123.11h5.9l17.86-26.64c1.44-1.8,6.84-1.8,11.23-1.8l-9.58,30.17Z"/></g></g></svg>