<svg xmlns="http://www.w3.org/2000/svg" viewBox="0 0 506.76 343.5"><defs><style>.cls-1,.cls-10,.cls-11,.cls-3,.cls-4,.cls-5,.cls-7,.cls-9{stroke:#000;stroke-linecap:round;}.cls-1{stroke-width:0.5px;}.cls-2,.cls-3,.cls-8{fill:#fff;}.cls-2,.cls-8{stroke:#231f20;}.cls-3,.cls-8{stroke-width:2px;}.cls-4{fill:#dcddde;}.cls-10,.cls-11,.cls-4,.cls-5,.cls-7,.cls-9{stroke-width:0.2px;}.cls-5{fill:#d1d3d4;}.cls-11,.cls-6{fill:#231f20;}.cls-7{fill:none;}.cls-9{fill:#bcbec0;}</style></defs><title>CL601</title><g id="Layer_2" data-name="Layer 2"><g id="Layer_1-2" data-name="Layer 1"><path class="cls-1" d="M239.92,187.14c6.16,4.84,13.43,10.3,15.53,11.87l1.65.64h0c3,3.39,17.41,16.77,20,19.74L203.26,258l-168,71.28c-3,.42-6.36,0-8.91-3L3,300c-3-3-2.12-.85-.85,1.7l33.09,38.61c1.27,2.12,5.09,2.55,7.64,1.7,1.29,1,3.84.34,5.93-.46,1.34-.51,2.49-1.07,3-1.24l200.25-71.7c9.73-3.65,55.2-17.76,80.18-25.46L348.78,238a22.24,22.24,0,0,1,4.79-1,21,21,0,0,1,3.85,0h0c12.51,1,44.17,12.87,58,17.09,47.94,15.27,79.76-1.27,87-5.51a5.82,5.82,0,0,0,3.39-5.52c-1.91-30.33-31.8-58.33-42.94-68.33-1.25-1.12-2.24-1.95-2.88-2.42-4.24-3.39-16.55-11.14-16.55-11.14q-1-.63-2.08-1.24a100,100,0,0,0-15.67-6.86l0,0c2.43-8.19,10.48-18.08,13.12-22l62.86-84.69,3.11-4.19c2.12-2.76-1.27-6.79-4.24-8.49L476.7,3.21C474.36,0,471,1.09,468.21,1.51L482.42,32.7c-1.49,0-2.33,3.61,0,3.82L381.06,142.43l0,0L316,129.54h0l.62-.62h0l7.42,2.13c12.62,1.24,18.51-4.77,22.32-8.36a19.39,19.39,0,0,0,4.4-17,19.78,19.78,0,0,0-5.21-9.8c-8-8.35-25-7.34-31.13-7.77-14.6-.75-21.13,4.73-24,10.36h0c-6.75.08-11.07,2-12.49,6.24-.68,2.89-.13,5,1.39,6.54h0c-2.23,1-9.59,6.33-13.62,10.14h0a204.36,204.36,0,0,0-30.39-.82h0a2.29,2.29,0,0,0-1.29-1.88c-2.67-1.41-7.82-1.46-9.83-1.6-4-.42-4.67-1.7-6.58-3.82L165.74,53.83l0,0,40.76-37.49c3.82-3.18-3.39-5.52-7-5.3L155.26,43.67l0-.08a8.46,8.46,0,0,0-1.58-.4h0c-.49-1-1.6-1.19-2.48,0h0c-4.77.49-9.47,4.1-11.62,6.52-.74.93-.67,2.42-.11,4v0l-76,37.18c2.76,2.12,7.64,3.61,13.58,1.27l70-28.63h0l45.09,60.64h0c-.14,7.57,7.51,19.48,16.16,30.42v0a10.14,10.14,0,0,0-1.41,3l0,0c-10.45-1.91-17.3,2.16-21.27,6.81h0l-.26,0c-3.87-.48-5.91.69-7.87,4-2.61,5.57.77,9.42,3.83,11.57v0a21.69,21.69,0,0,0,8.69,14.5l18.67,9.12c12.09,3.82,19.09-.85,23.56-3.58a19.23,19.23,0,0,0,7.59-12.71"/><path class="cls-2" d="M292.14,114.1c-9.75.47-15.88-2.07-14.17-9.36,1.74-5.13,7.81-6.92,17.36-6C303.08,99.45,292.14,114.1,292.14,114.1Z"/><path class="cls-3" d="M345.53,95.92a19.78,19.78,0,0,1,5.21,9.8,19.39,19.39,0,0,1-4.4,17c-3.81,3.6-9.7,9.61-22.32,8.36l-25.87-7.41c-7.6-3.17-11-10.46-9.12-21.26,1.64-6.63,7.36-15.19,25.38-14.26C320.56,88.58,337.57,87.56,345.53,95.92Z"/><path class="cls-2" d="M337.93,128.09c9-2,14.7-12.07,12.69-22.37s-11-17-20-14.95-14.7,12.07-12.69,22.37S328.91,130.14,337.93,128.09Z"/><path class="cls-4" d="M334.29,109.43"/><path class="cls-5" d="M334.95,109.22"/><path class="cls-6" d="M328.88,123.68a16.45,16.45,0,0,1-7.81-11.3c-1.71-8.75,3.12-17.26,10.78-19l.58-.12c5.19,1.17,9.43,5.52,10.68,11.94s-1.11,13-5.62,16.53C335.32,123,331.58,124.14,328.88,123.68Z"/><path class="cls-7" d="M334.95,109.22"/><path class="cls-3" d="M378.48,145.13,482.42,36.52c-2.33-.21-1.49-3.82,0-3.82L468.21,1.51c2.76-.42,6.15-1.48,8.49,1.7l23.76,30.55c3,1.7,6.36,5.73,4.24,8.49l-3.11,4.19-62.86,84.69c-3.39,5.09-15.7,19.94-13.58,28.42Z"/><path class="cls-2" d="M501.58,46.44l-62.86,84.69c-3.39,5.09-15.7,19.94-13.58,28.42l-10.61-3.39,17.82-26.3,67.53-87.19C501.12,43.11,502.71,44.48,501.58,46.44Z"/><path class="cls-8" d="M146,50.52l53.46-39.46c3.61-.21,10.82,2.12,7,5.3L164,55.4Z"/><path class="cls-3" d="M311,134.52l8.91-8.91c-8.06-1.27-27.58-5.09-30.12-11.45-1.7-.85-7.64-1.27-10.18-3-2.54.85-16.12,11-16.55,13.58Z"/><path class="cls-3" d="M215.57,122.64c12.3-1.27,33.52-6.36,89.09,4.67l98.85,19.52c8.79,2,26.23,6.63,37.8,13.18q1.08.61,2.08,1.24s12.3,7.74,16.55,11.14c.64.47,1.63,1.29,2.88,2.42,11.13,10,41,38,42.94,68.33a5.82,5.82,0,0,1-3.39,5.52c-7.21,4.24-39,20.79-87,5.51-14.49-4.43-48.64-17.31-59.69-17.16-.59,0-1-.21-1.41-.12l-1.21-.16L255.45,199c-3.39-2.54-20.36-15.27-24.18-19.09-6.36-5.94-43.7-44.55-38.61-58.55Z"/><path class="cls-9" d="M222.14,184.16"/><path class="cls-10" d="M346.22,213.59c.75.3,1.27,0,1.16-.73l-.95-6.15a3.09,3.09,0,0,0-1.6-2l-2.35-.8c-.75-.3-1.21.24-1.11.95l1.05,6.31a2.28,2.28,0,0,0,1.45,1.65Z"/><path class="cls-10" d="M343.92,208.6"/><path class="cls-3" d="M257.13,199.63c3,3.39,17.41,16.77,20,19.74L203.26,258l-168,71.28c-3,.42-6.36,0-8.91-3L3,300c-3-3-2.12-.85-.85,1.7l33.09,38.61c1.27,2.12,5.09,2.55,7.64,1.7,1.29,1,3.84.34,5.93-.46,1.34-.51,2.49-1.07,3-1.24l200.25-71.7c9.73-3.65,55.2-17.76,80.18-25.46L348.78,238a22.25,22.25,0,0,1,8.64-1C360,232,300.83,206.42,257.13,199.63Z"/><path class="cls-2" d="M48.82,341.52c1.34-.51,2.49-1.07,3-1.24l200.25-71.7c9.73-3.65,55.2-17.76,80.18-25.46-.42-3-2.12-4.24-6.36-6.78l-77.21,27.15L45.86,338.59Z"/><line class="cls-2" x1="37.38" y1="328.4" x2="45.86" y2="338.59"/><path class="cls-2" d="M277.08,219.37c11-.85,73,10.18,75.52,17.82"/><path class="cls-10" d="M443.79,166.49c.56-2.26,0-3.49-.4-5.24,0,0,12.3,7.74,16.55,11.14a29.16,29.16,0,0,1,.64,4.32Z"/><path class="cls-10" d="M460.63,179.07c-.19,7.88-4.17,14.15-10.44,19.1l-17.67-15.78c5.3-4.31,9.1-9.71,10.63-13.81Z"/><path class="cls-10" d="M446.92,200.49c-9.2,5.95-22,9.67-34.9,11.79l-6.82-17.13c10.4-2.72,18.31-6.39,24.16-10.41Z"/><path class="cls-10" d="M376.78,214.49a180.75,180.75,0,0,0,31.4-1.63L401.55,196a155.68,155.68,0,0,1-24.77,3.39C375.83,201.76,375.51,211.1,376.78,214.49Z"/><path class="cls-2" d="M502.75,228.49c-2.55-7.21-12.27-1.91-16.08,2.33-4.67,4.67-12.6,21.69.13,24.65"/><path class="cls-8" d="M192.66,124.76,143.44,58.58c-3-1.7-5.52-6.79-3.82-8.91,3.39-3.82,13.15-10.61,19.52-3.39l58.55,67c1.91,2.12,2.55,3.39,6.58,3.82,2,.14,7.16.19,9.83,1.6,1.26.67,1.3,1.63,1.41,3.07,0,.53-5.41,3.77-6,3.55-1.7,0-4.56-.8-5.62-.37C218.32,128.58,209.84,130.28,192.66,124.76Z"/><path class="cls-11" d="M229.83,124.81c.74-.32,4.67-2.65,5-3-.11-1-.37-3-1.7-2.28l-3.55,2C228.93,122.27,229.51,123.65,229.83,124.81Z"/><path class="cls-8" d="M140.26,53.27,63.47,90.82c2.76,2.12,7.64,3.61,13.58,1.27L153.84,60.7c1.7-.64,3.61-2.12,1.27-3.61C152.62,55.62,152.35,55.18,140.26,53.27Z"/><path class="cls-2" d="M478.84,40.32c9.76,1.06,25.85,2.56,22.74,6.12"/><path class="cls-10" d="M329.67,208.5c.75.3,1.27,0,1.16-.73l-.95-6.15a3.09,3.09,0,0,0-1.6-2l-2.2-.74c-.75-.3-1.21.24-1.11.95L326,206.1a2.28,2.28,0,0,0,1.45,1.65Z"/><path class="cls-10" d="M327.53,203.57"/><path class="cls-10" d="M313.13,203.41c.75.3,1.27,0,1.16-.73l-.95-6.15a3.09,3.09,0,0,0-1.6-2l-2.2-.74c-.75-.3-1.21.24-1.11.95l1.05,6.31a2.28,2.28,0,0,0,1.45,1.65Z"/><path class="cls-10" d="M311,198.47"/><path class="cls-10" d="M296.58,198.32c.75.3,1.27,0,1.16-.73l-.95-6.15a3.09,3.09,0,0,0-1.6-2l-2.2-.74c-.75-.3-1.21.24-1.11.95l1.05,6.31a2.28,2.28,0,0,0,1.45,1.65Z"/><path class="cls-10" d="M294.44,193.38"/><path class="cls-10" d="M280,193.22c.75.3,1.27,0,1.16-.73l-.95-6.15a3.09,3.09,0,0,0-1.6-2l-2.2-.74c-.75-.3-1.21.24-1.11.95l1.05,6.31a2.28,2.28,0,0,0,1.45,1.65Z"/><path class="cls-10" d="M277.9,188.29"/><path class="cls-10" d="M263.49,188.13c.75.3,1.27,0,1.16-.73l-.95-6.15a3.09,3.09,0,0,0-1.6-2l-2.19-.74c-.75-.3-1.21.24-1.11.95l1.05,6.31a2.28,2.28,0,0,0,1.45,1.65Z"/><path class="cls-10" d="M261.35,183.2"/><path class="cls-2" d="M183.32,181c-3.18-1.7-8.91-5.94-5.73-12.73,2-3.33,4-4.5,7.87-4a15.15,15.15,0,0,1,5.07,2.11C197.32,170.16,183.32,181,183.32,181Z"/><path class="cls-4" d="M222.14,184.16"/><path class="cls-5" d="M222.89,184.1"/><path class="cls-7" d="M222.89,184.1"/><path class="cls-2" d="M208.35,154.49c4.24,2.76,38,19.06,41.58,20.75,1.48.85.85,2.76-.64,3.18L234,180.76l-27.36-16.12C205.17,160.61,207.72,155.13,208.35,154.49Z"/><path class="cls-3" d="M237.08,173.49a19.78,19.78,0,0,1,3.08,10.66,19.39,19.39,0,0,1-7.81,15.72c-4.47,2.73-11.47,7.4-23.56,3.58l-18.67-9.12a21.82,21.82,0,0,1-7.42-25.46c3-6.15,11-14.64,26.09-11C214.72,159.55,231,163.68,237.08,173.49Z"/><ellipse class="cls-2" cx="222.14" cy="184.16" rx="18.01" ry="19.07"/><path class="cls-6" d="M213.5,196.9a16.53,16.53,0,0,1-5.91-12.79c0-8.95,6.85-16.2,15.3-16.2h.64A14.93,14.93,0,0,1,232.34,182,16.24,16.24,0,0,1,223,196.91C220.43,197.68,216.26,198,213.5,196.9Z"/></g></g></svg>