<svg xmlns="http://www.w3.org/2000/svg" viewBox="0 0 142.67 31.45"><defs><style>.cls-1,.cls-3,.cls-5{fill:none;}.cls-1,.cls-2,.cls-5{stroke:#231f20;}.cls-1,.cls-2{stroke-width:0.3px;}.cls-2{fill:#fff;}.cls-4{fill:#231f20;}.cls-5{stroke-width:0.15px;}</style></defs><title>Eclipse500</title><g id="Layer_2" data-name="Layer 2"><g id="Layer_1-2" data-name="Layer 1"><path class="cls-1" d="M78,30.76l-44.2.54a4.33,4.33,0,0,1-1.54-.85,3,3,0,0,1-1.08-1.7c-.15-.62-.69-2.24.46-2.85l1.16-.62L21,5.85l-3.63.39-1-1.93s-1.23.15-.62-.46S22.31,1.37,26.32.76s6.32-.69,7-.54,1.23.46,1.31,1.08l.08.62,1.62,1.93L47,13.48,63.73,15.8S80.54,9.7,90.42,7.39,105.69,4.77,106.92,5a24.49,24.49,0,0,1,4.4,1c1,.46,8.71,3.47,8.71,3.47l13.42,2.08s3.09.69,4,1.62.93,1.47.77,1.85-8,5.17-11.41,5.94S77.77,31.22,77.77,31.22Z"/><path class="cls-2" d="M20.31,3.46l12.19.62L37,3.69c.85-.08,1.85-.46,1.23-.62S33,1.14,33,1.14a30,30,0,0,0-5.4.62C25.55,2.3,20.31,3.46,20.31,3.46Z"/><path class="cls-1" d="M51.39,25.52l4.09-1.77a.8.8,0,0,1,.54-1c.77-.31,1-.39,1-.39s5.71-3.32,9.8-4.09,6.56-.23,7,.15a4,4,0,0,1,1.47,4,6.79,6.79,0,0,1-4.4,5.09,19.44,19.44,0,0,1-8.95.39c-2.7-.54-4.94-1.08-5.25-1.08a.93.93,0,0,1-.77-.54L55.79,26Z"/><path class="cls-1" d="M78.39,30.37s9.49-4.7,12.5-5.17,8.41-.85,9.64-.93,22.37-3.93,22.37-3.93a8,8,0,0,0,1.62.54c1,.23,1.54.39,1.54.39L77.77,31.22Z"/><path class="cls-2" d="M118.57,20.12l.62-1.16a102.42,102.42,0,0,1,14.19-3.24c5.86-.69,7-.08,7.79.08s2.39.54.39,1.47a55.38,55.38,0,0,1-11.11,3.09,57.88,57.88,0,0,1-6.63.46c-.69-.08-2.62-.46-2.62-.46Z"/><path class="cls-1" d="M15.45,3.76,0,4.61,10.59,3.15,20.92,2.07s-2.24.62-3.47,1.08-1.7.69-1.7.69Z"/><polyline class="cls-1" points="21 5.85 27.32 4.92 40.05 21.58 39.05 22.66 32.8 25.28"/><path class="cls-3" d="M63.73,15.8"/><ellipse class="cls-4" cx="56.25" cy="24.82" rx="1.23" ry="2.08" transform="translate(-1.73 4.36) rotate(-4.37)"/><polygon class="cls-1" points="67.89 14.25 67.89 13.48 64.27 10.24 65.12 9.94 69.98 13.41 67.89 14.25"/><polygon class="cls-1" points="86.1 8.62 86.1 8.01 83.55 4.69 84.33 4.38 87.8 8.08 86.1 8.62"/><path class="cls-4" d="M111.32,6l7.41,3.09s.69.54.23,1.16a3,3,0,0,1-1.49.85s-3.68-3-4.3-3.39a18.64,18.64,0,0,1-1.54-1.16l-.31-.77Z"/><path class="cls-4" d="M111,6.93a34.43,34.43,0,0,1,3.86,2.55c.93.85,1.54,1.54,1.31,1.93s-.92.31-.92.31l-3.24.85s-.54.23-.85-.46a14.25,14.25,0,0,0-1.39-3.16A3.85,3.85,0,0,1,109,7.78Z"/><path class="cls-4" d="M103.45,13.87a9.9,9.9,0,0,1-1.23-3.09c0-.54.08-.69.62-.85A3.18,3.18,0,0,1,104,9.86,1.72,1.72,0,0,1,105.23,11c.31.77.77,1.23.77,1.93s.08,1.08-.54,1.23a6.26,6.26,0,0,1-1.08.31C104.07,14.49,103.45,13.87,103.45,13.87Z"/><path class="cls-4" d="M97.51,15.1A9.9,9.9,0,0,1,96.28,12c0-.54.08-.69.62-.85a3.2,3.2,0,0,1,1.16-.08,1.72,1.72,0,0,1,1.23,1.16c.31.77.77,1.23.77,1.93s.08,1.08-.54,1.23a6.29,6.29,0,0,1-1.08.31C98.13,15.72,97.51,15.1,97.51,15.1Z"/><path class="cls-4" d="M90.57,16.72a10,10,0,0,1-1.23-3.09c0-.54.08-.69.62-.85a3.18,3.18,0,0,1,1.16-.08,1.72,1.72,0,0,1,1.23,1.16c.31.77.77,1.23.77,1.93s.08,1.08-.54,1.23a6.33,6.33,0,0,1-1.08.31C91.19,17.34,90.57,16.72,90.57,16.72Z"/><path class="cls-5" d="M105,15.72a4.79,4.79,0,0,1-3.32-2.08,9.89,9.89,0,0,1-1.93-4.4C99.52,7.85,100.6,7,101.91,7a6.46,6.46,0,0,1,3.93,1.62,5.18,5.18,0,0,1,1.46,4c-.23,1.47-.46,2.16-.93,2.55A3.59,3.59,0,0,1,105,15.72Z"/><path class="cls-4" d="M31.18,28.76s-.46-2.7,1-3.24L33.65,25s13.73-1.31,18-1.85a35.34,35.34,0,0,0,5.63-1s-1.47.15-1.77.77-.54,1-.54,1Z"/><path class="cls-4" d="M75,19.58s23-3,38.57-3.86,20.21,0,20.21,0l-2.39.23s-22.29.69-35.48,2.16-20.44,2.7-20.44,2.7Z"/><path class="cls-4" d="M35,30.14s6.33-1.77,10-2.62,7.4-1.77,7.4-1.77l1.77.15L45,27.83Z"/><path class="cls-4" d="M75.61,21.27S92.89,18.73,104,17.88s16.12-1,18-1h4.16l-1.16.39s-10.64.39-21,1.31-21.67,2.7-24.76,3.09-3.78.39-3.78.39Z"/></g></g></svg>