<svg xmlns="http://www.w3.org/2000/svg" viewBox="0 0 265.41 129.91"><defs><style>.cls-1{fill:#231f20;fill-rule:evenodd;}</style></defs><title>Falcon2000</title><g id="Layer_2" data-name="Layer 2"><g id="Layer_1-2" data-name="Layer 1"><path class="cls-1" d="M173.1,129l3.89-.11a.37.37,0,0,0,.21-.21l-2.35-3.89c-1.17-1.87-1.92-3.57-3.25-5.44-5.28-11.42-13.71-19.63-17.5-32-.59-2.29-1-4.75-1.49-6.83l-.43-2a49.52,49.52,0,0,0-10.51-3c-7.2-1.12-14-2-21.23-1.71-.8.16-1.17-.32-1.92.05A66.07,66.07,0,0,0,103,76a1.32,1.32,0,0,0-1,1.07l.27.69c.05.11.32.11.53.27L107.16,81c3-.53,6,1,8.7,2.29a45.07,45.07,0,0,0,6.94,5.82c8.7,6.3,17.29,14.35,25.77,21.77,4.64,3.57,9.34,8.38,13.71,12.59a7,7,0,0,1,1.49,2.13c0,.11-.11.21-.27.37l-1.55.69a1.14,1.14,0,0,0-.21.37l.37.64,2.13.59c.37-.16,0-.64.37-.85l2.13-.27a1.6,1.6,0,0,1,.37,1.28l4.32.37,1.65.16Zm-7.58-9.5a.4.4,0,0,0,.43-.16c-.05-1.6-1.49-2.67-2.45-3.68-1.44-1.07-2-2.19-3.09-3.15-4.16-5.23-7.47-10.88-11.42-15.74a34,34,0,0,0-3.25-3.52.81.81,0,0,0-.32.21l3.2,3.79c1.92,2.83,4,5.28,5.87,8.27,2.88,3.89,5.39,8.06,9.18,11.31l1.65,2.61c.05,0,.05,0,.21.05ZM154.37,93.1l.11-.11.05-.8c-1.6-1.07-4.38,0-6.46-.75-.21.05-.21.32-.11.53l5.82.59a1.43,1.43,0,0,1,.37.43.33.33,0,0,1,.21.11ZM143.44,90l.16-.16-1.65-8.43a.78.78,0,0,1-.27-.16c-.27,0-.32.16-.37.37L143.22,90ZM98.09,77.89l2.13-.11.27-1.6,2.24-1.65c-5.5-.75-11.2-.37-16.75-1-3.41,0-6.72.27-10.08.16-5,.48-9.82-.27-14.67.11-14.67,0-29-.11-43.48-2-4.53-.37-9.39-.37-13.28-2.45,3.36,2.29,8.38,2.83,12.54,3.57,7.26.85,14.3,1.71,21.45,1.55a29.45,29.45,0,0,1,5.34.16c2.19.21,4.27.16,6.3.27.21-.05.27-.05.59-.11,2.77.43,5.82-.11,8.75.27,1.55-.16,2.72.16,4.11-.27,7.36.43,14.67-.48,21.71.85,2.19,0,4.16.91,6.19,1.07l6.67,1.17Zm59.33-1.55a42.66,42.66,0,0,0,7.74-.75c3.2-.37,6.35-1.49,9.18-2.08-1.55-.32-3.25.27-4.91,0-7.47,1.6-14.67,1.28-22.19,1.28,3.2,1.39,6.83.64,10.19,1.55Zm-3.36-2.83c.69-.11,1.33,0,2.13-.16,2.72.16,5.87.43,8.22-.75,1.76-1.6,2.45-3.52,3.68-5.23,0-.11.11-.37-.11-.48-2.77,1.65-3.63,6.24-7.9,5.87-2.19-.32-4.37-.05-6.4-.16-3.41.32-6.78.11-10.08.32l10.46.59ZM103.8,73a31.41,31.41,0,0,1,5-.05c5.71,0,11.31-.21,16.91-.48,2.56.16,4.8-.48,7.36-.21,3.25-.59,6-.27,9.23-.59,2-.27,3.84,0,5.71-.37-5.12-1.49-10.83-.21-15.9-.59-8,.37-15.74,0-23.69.11-20-.32-39.64-.11-59.43.85-5.18-.43-10.24-.16-15.26-.8-1.87.27-3.57-.16-5.28-.05a3.36,3.36,0,0,0-1.92,0,84.17,84.17,0,0,1-8.8-1.07A64.38,64.38,0,0,1,7.23,68.4C5.31,68,3.76,67,1.95,66.53c0,.21-.21,0,0,.32a2.69,2.69,0,0,0,.69.37A1.66,1.66,0,0,1,3,67.12c.27.16.48.48.85.53,6.78,3.41,15.15,2.61,22.46,4,8.7.53,17.34.91,25.88.69,2.24-.48,4.21,0,6.3-.27,1.33.11,2.61-.05,3.79.11,2.13-.37,4.21.27,6.3-.11,11.1.32,22-.11,33,.85.8-.32,1.49.21,2.19.05ZM48.42,70.42l17.13-.85c-.43-.27-1.12,0-1.65-.21-2.93.21-5.71-.21-8.64-.16-3.36-.11-6.4.21-9.66.16-2.83-.21-5.6-.27-8.27-.64a86.44,86.44,0,0,0-9.12-.27c-7.74-.21-15.37-.32-22.67-2.35A4.14,4.14,0,0,0,8.19,67c.21,0,.16.11.37.21a38.67,38.67,0,0,0,6.14,1C26,69.94,37.21,69.68,48.42,70.42Zm23.42-.64,5.34-.27c.21,0,.43-.11.21-.32l-8.59.21,2.88.48.16-.11Zm26.36-.21c18.67-.43,37.45-.16,56.18-1.23a3.49,3.49,0,0,0,2.35-.16c-3.73-.91-7.36.16-11.15-.43-3.68-.32-7.31.69-10.94.37l-7.15.11a14.76,14.76,0,0,0-2.88-.48c-9.28.64-18.3.85-27.48,1.23-6.4-.21-12.75-.21-19,.16l20.11.43ZM178.28,69A235.37,235.37,0,0,0,202,67.44a28.5,28.5,0,0,0,4.8-.91,53.65,53.65,0,0,0,7.42-1.39,4.07,4.07,0,0,1,.37-.32c1.49-2.24,1-5.92-.05-8.54A1.63,1.63,0,0,0,213,55.11c-8.38-1.76-16.7-1.39-25-2.08a97.39,97.39,0,0,0-16.33,1.81,8.5,8.5,0,0,0-1.87.64,8.78,8.78,0,0,0-.27,4.05l.43,6.78c1.76,2.08,5.44,2.13,8.32,2.67ZM66.93,65.41l.75-.11c.91-.59.75-1.81.69-2.93a2.23,2.23,0,0,0-.91-.85.53.53,0,0,1-.32-.11l-1.07.37c-.11.05-.16.16-.27.21-.21,1-.59,2.19.27,3.09.32.05.64.32.85.32Zm6.67-.21L75,65l.21-2.4-.75-1-1.12-.21a4.09,4.09,0,0,0-1.28,2.08l.11,1,1.39.75Zm14-.27A1.66,1.66,0,0,0,89,63.86a3.93,3.93,0,0,0-.37-2.13c-.27-.32-1.17-.59-1.55-.16a1.85,1.85,0,0,0-.59.37A2,2,0,0,0,86.19,64c.32.21.32.43.53.59l.69.37.21-.05Zm-7.95-.11,1.65-.27c.43-.53,1.17-1.6.59-2.56a1.75,1.75,0,0,0-2-.75,3.13,3.13,0,0,0-.59.27,3.23,3.23,0,0,0,.21,3.25l.16.05Zm14.62-.21c.21,0,.21-.16.48-.21.75-.37.48-1.33.32-2.19-.21-.37-.43-.64-.53-.85a1.12,1.12,0,0,0-1.39,0,1.72,1.72,0,0,0-.37.21l-.69,1.92.64.69c.27.37.85.16,1.39.53l.16-.11Zm5.55-.16,1.23-.11a2.59,2.59,0,0,0,1.28-1.23l-.16-.91a2.42,2.42,0,0,0-1.12-1.07c-.59-.11-1.17-.27-1.6.21s-.37,1-.53,1.6l.16.69a2.1,2.1,0,0,0,.75.8Zm14.89,0a2.36,2.36,0,0,0,1.76-1,3.18,3.18,0,0,0,.11-2,2.35,2.35,0,0,0-1.12-1,1.79,1.79,0,0,0-1.55.85,2.27,2.27,0,0,0-.32,2.51c.16.32.69.48,1.12.59Zm-8.27-.11,1.44-.16a2.07,2.07,0,0,0,.37-2.45,1.27,1.27,0,0,0-1.49-.75,2.3,2.3,0,0,0-1.23,2.35,1.71,1.71,0,0,0,.27.69,1.73,1.73,0,0,0,.64.32ZM121.78,64l1-.16A2,2,0,0,0,124,62c-.11-.27-.11-.59-.21-.85a3,3,0,0,0-1.39-.91c-.69.16-1.23,1.17-1.65,1.76a3.36,3.36,0,0,0,.11,1.49,2.39,2.39,0,0,0,.91.53Zm7,0a2.22,2.22,0,0,0,1.6-1.28l-.53-2.45-1.6.11c-1,.59-.8,2-.48,3.09l1,.53Zm88.35-1.44,6.67-1.17a58.88,58.88,0,0,0,12.32-2.83c.27-.11.37-.21.53-.27a119.56,119.56,0,0,1-14.35,2.19,46.51,46.51,0,0,0-5.66.85l.21,1.17a.93.93,0,0,1,.27.05Zm35.53,0,9.34-.43c1.17,0,.85-1.23.75-1.71L241.82,37.13c-2.19-1.23-4.8-1.07-7.15-1.12-5.87.85-12,1.55-17.23,3.47a.39.39,0,0,0-.27.16l30,21c1.65,1.28,3.31,1.49,5.5,1.92Zm-217-.75h3.79c.8-1.39-.05-3.52-.37-5.07l-2.13.11-2.51,3.73c-.11.16-1.12.32-.85.75l2.08.48ZM159.6,42.09h.75c1-.59,1.33-2.19,2.19-3a7.11,7.11,0,0,1,1.23-2.19l11.15-19.79c-3.47-.91-8.38.05-11.52,1.49l-24.7,22.57,11.74.43,4.86-6.46c2.13-2.29,3.57-5.18,5.44-7.58,1.33-.64,3.15.53,4.8-.27a7.27,7.27,0,0,1,2.35-.21c.11.05.32.05.32.37a.93.93,0,0,1-.53.75c-2,.11-3.84.8-5.92.32l-.75.32-9.23,12.75c2.35.91,5.23-.05,7.84.53Zm10.83,0a36.11,36.11,0,0,0,4.05-.27c3.31-.43,6.56-.05,9.6-.48,3-.75,5.87-1.23,8.16-2.4,2.08-.21,3.63-1.55,5.28-2.51.43-.53.85-.75,1.23-1.17-6.3-2.13-13-1.71-19.37-1.92-3.41.27-7.15.43-9.87,1.76l.27,6.67a.87.87,0,0,0,.64.32Zm-2.08-.37.11-.16.11-1.76c-.11-.16-.16-.53-.37-.27l.16,2.19Zm74.53-11.26L255.8,19.31c0-.16.16-.69,0-.8-2.67-1.07-6.78-.16-9.28,1.17-1.44,1.07-1.12,3-1.92,4.11a45.44,45.44,0,0,0-2,6.3c.11.11.11.27.16.43l.16-.05ZM253.23,0H241c-3,0-7.2,1.39-8.91,4L200.2,34.15c-5-.8-9.82-1.92-14.67-1.92-5,0-13.18-.64-17.66,2-1.44,1.39-1,7.31-1.33,7.68h-4.16l13.39-25a.89.89,0,0,0,.27-1c-4.75-.75-10.35.48-14.89,2.61-9,6.72-17.23,16.91-26.57,22.94L113,41.77c-5-.27-10.35.43-15.1-.11l1.6-3.73c-.11-.21-2.35.05-2.67,0L92.54,42.2c-16.65,0-33.61.8-44.82,2.13C41.8,45,34,46.9,30.33,49.56c-2.51,1.76-5.55,3.57-7.95,5A81.79,81.79,0,0,0,.08,66.69a1.8,1.8,0,0,0,0,1.07c3.36,3.09,9,5,14.24,5.76,15.58,2.24,31.05,2,46.52,2.35,5.55.11,12.91.16,17.45.32,5.39.16,9.6,2.13,14.73,3,2.88.59,7.31,1,9.66,2.67l40.33,30c6.67,5.92,12.38,11.79,18.94,16.86,1.33.59,2.67.37,3.95.8,2.56,0,4.86.16,7.31.21.32.05.48.05.59.16h4.7l.21-.21c-2.35-4.53-5.6-9.07-8-13.82-5.76-11.74-16-21-17.18-36.12l.27-.69c6.4.05,13.07-1.55,19.42-3.68,14.09-4,27.58-6.24,41.56-9a2.93,2.93,0,0,0,1.81-2.56,124.19,124.19,0,0,0,24.65-5.34c4.59,3.79,8.38,5.5,13.34,5.12l8.64-.48c1,.11,2.77-.64,2-1.33l-23-26a.3.3,0,0,1,.27-.32c1.55-.27,3.47.32,5-.64a2.59,2.59,0,0,0-.11-1.55l-2.08-1a3,3,0,0,1-1.92-.37c0-.21-.21,0-.05-.32l11.68-10.08c2.19-2.08,2.93-4.16-.37-4.64-2.51.32-5.18.37-7.9,1.49a.68.68,0,0,1-.32-.11L253.23,0Zm-1.55,1-7.31,19.26c.11,3.89-3.31,7.84-2.77,11.79,1.12,1.55,3.47.8,4.91,1.81v.53c-1.65.8-3.57-.21-5.34.37-.32,0-.32.32-.59.43-9.66-.85-18.3,1.65-25.66,3.63-.16.16-.37.32-.27.64l24.12,16.86c-6.94,2.61-14.73,2-22,2.51l-1.12-3.73a4.71,4.71,0,0,0-.32-.53c-6.67-1.71-13.23-1.55-20-2.13a16.5,16.5,0,0,1-2.83-.11c-2.56.21-5-.43-7.42,0-4.32.32-8.86.37-12.86,1.65-.21,0-.32-.11-.59-.16-1.44.43-3.2.59-3.89,2.13-1,2.45.16,5.07-.8,7.15l-3,.59-2.93,4.91-1.6.27,2.61-4.37c-.16-.11-2.93.59-3.15.37-37.24,1.28-71,3.25-109,3.52-15.1-.16-42.95-.85-44.6-4,5.28-3.2,10.62-7,17.34-8.54,0,1.23.64,1.17,1.17,1.76a63.77,63.77,0,0,1,5.5-4.48c1-.64-1,0-1.07-.91,6.35-4.8,13.76-5.87,17.93-6.67a354.21,354.21,0,0,1,46.74-2.4L97.18,39l1.23-.16-2.19,3.47a.67.67,0,0,0,.21.37l30.14-.11c4.32.11,8.32-.27,12.54-.11,9.82-.11,19.15.69,28.81.37,6.14.05,12.32.53,18.14-.85,9.82-1.76,16.11-7.26,22.89-13.71L233.12,4.75A9.71,9.71,0,0,1,239.9,1ZM24.3,58.37a4.79,4.79,0,0,0,2.4,2.08l5.17-5.34c0-.48-1.44-1.12-2.29-1.44-.32-.16-5.18,4.59-5.28,4.69Zm4.16,1.87c.91.8,2.56.8,3.79.59l3.63-4.21c-1-.37-2.88-.75-3.79-.11l-3.63,3.73Z"/></g></g></svg>