<svg xmlns="http://www.w3.org/2000/svg" viewBox="0 0 120.43 40.59"><defs><style>.cls-1{fill:#231f20;fill-rule:evenodd;}</style></defs><title>Falcon20</title><g id="Layer_2" data-name="Layer 2"><g id="Layer_1-2" data-name="Layer 1"><path class="cls-1" d="M95.94,0a2.34,2.34,0,0,1,1.55.33.24.24,0,0,1,.06.1l3.88-.24s.06,0,.07,0a.53.53,0,0,1,.2.26c0,.2-.16.27-.16.53-.67,1.15-1.29,2.22-1.86,3.38-1.28,2.49-2.76,4.93-3.91,7.45,6.95.43,14,.46,21,.72a1,1,0,0,1,1,.2.26.26,0,0,1,.1.14c0,.16-.16.29-.32.36-.86.16-1.66.22-2.48.43a25.33,25.33,0,0,1-6.59.67,1.32,1.32,0,0,0-.62,0L94.45,14c-.33.4-.46,1-.85,1.43a62.91,62.91,0,0,0-3.42,6.45c.53.26,1.39,0,1.71.62.1.66-.62,1-1,1.52-1.38,1.09-3,1.76-4.24,2.92-.16.63-.23,1.32-.8,1.6A9.81,9.81,0,0,1,84,29.3a83.76,83.76,0,0,1-9.51,2.35c-.16.24-.52.3-.76.49a3.89,3.89,0,0,0-.82.36,15.93,15.93,0,0,1-5,1.76l-.11.13s-.06,0-.07,0h-.14c-.14,0-.26,0-.3.13,1.69.23,3.54.34,5.32.43a13.33,13.33,0,0,1,5.77-1.58,35.59,35.59,0,0,1,4.63.17.47.47,0,0,1,.13.54c-.13.37-.13.76-.26,1.09a.35.35,0,0,0,0,.1c10.92,1,21.68,1.42,32.68,2.15l4.71.3.06,1.09c-1.09.34-2.21.64-3.34,1-1.63.33-3.31,1-4.91.77-.09-.06-.13-.09-.16-.14s-.06-.06-.09-.14c-11.22-.83-22.82-1-34.18-1.53a5.73,5.73,0,0,0-1.1,0l-2.19,0c-.11,0-.16.13-.23.2-.76.46-1.59,1.13-2.69.79a2.14,2.14,0,0,1-.95-1.15C65,38.1,59.15,38,53.49,37.68c-1.6,0-3.22-.11-4.74-.16-1.09-.09-2.11-.06-3.21-.14a14.84,14.84,0,0,1-5-.4c-3.74.13-7.52.34-11.23.66-.9.23-1.75,0-2.62.23-4.08-.07-8.09.74-12.14.67C10,38,4.22,39.17.48,36.19a.88.88,0,0,0-.39-.34c-.2-.2,0-.47,0-.74a7,7,0,0,1,2.54-2.94c1.66-1.25,3.38-2.15,5-3.3.3-.1.46-.24.72-.34A15.86,15.86,0,0,0,11.45,26a1.94,1.94,0,0,1,.44-.46c.42-.39.92-.77,1.3-1.07a16,16,0,0,1,2.18-1.52,18.18,18.18,0,0,1,6.06-1.48c5-.92,9.91-1.06,14.86-1.53,1.15-.09,2.31,0,3.44-.16,2.41-.06,4.77-.23,7.16-.23.93,0,1.85-.1,2.77,0,.73,0,1.45,0,2.15-.09,2.42-.06,4.86,0,7.26.09,1,0,1.86,0,2.81.06,2.89-.57,5.93-1.15,8.93-1.45A9.2,9.2,0,0,0,72.44,17l5.76-4.63a20.48,20.48,0,0,0-3.09-2.82L74.64,9l0-.34a1.1,1.1,0,0,1,.87-.47c1.68,0,3.28-.16,4.91-.2l.86-.11c.36,0,.73-.09,1,.07L83,8.6c4.1-2.28,7-7.31,11.91-8.08.14-.36.66-.4,1-.52ZM45.24.1h0l-.13.16c-.06,0,0-.11.06-.16ZM99.84,1h.8A11.17,11.17,0,0,1,99.47,3.2a.69.69,0,0,0-.47.14c-.16.3-.54.39-.72.72-.42.32-.82.86-1.23,1.19-.46.5-1,1-1.46,1.52S94.49,7.89,94,8.47c-.36.3-.52.64-.87.89a21.52,21.52,0,0,1-1.58,1.7c-3.12.87-7.31-.21-10.4,1.73a.78.78,0,0,0-.26.86c.26.39.87.39,1.3.54,0,0,0-.06.1-.07a21.91,21.91,0,0,1,4-.19c.89,0,1.73,0,2.59,0-.8,1.28-2.29,2.46-3.31,3.77a43.4,43.4,0,0,1-3,3.22L71.43,20a44.24,44.24,0,0,0-6.15-.29c11-1.15,17.29-11.59,26.06-16.86C93.39.63,97,1.55,99.84,1Zm-1,1.33c.13,0,.33.06.37.23l0,.3a15.58,15.58,0,0,1-4.36.4.35.35,0,0,1-.1-.4c1.23-.37,2.77-.16,4.11-.53ZM97.49,6.81l-.16.36L97,7.35a8.09,8.09,0,0,1-.59.72c-.82.76-1.55,1.72-2.32,2.41a6.48,6.48,0,0,0-1.06,1.17s-.07.07-.14,0l.09-.21,4.46-4.67ZM79.84,8.64c.74.11,1.76-.29,2.32.39a.27.27,0,0,0,.06.09,3.48,3.48,0,0,1-1.09.92l-1.2.95-3-2v-.1l2.87-.19Zm16,1.19a20.6,20.6,0,0,1-1,1.82.64.64,0,0,1-.77.09,17.14,17.14,0,0,1,1.76-1.91ZM86.1,12.18c9.21.43,18.4.47,27.61,1l-2.81.57v-.17c-1.58-.64-3.5-.19-5.27-.4-1.7,0-3.31-.09-5-.16-1.45-.06-2.84,0-4.26,0-1.23,0-2.46-.19-3.68-.19a4.35,4.35,0,0,1-.62,0,12.68,12.68,0,0,0-1.48,0,37.39,37.39,0,0,0-5.06-.16c-1.28-.14-2.31.47-3.48.64.24-.3.82-.34,1.26-.5.95-.21,1.86-.42,2.79-.57ZM90.53,14h.19s.09,0,.1.09c-.72.82-1.39,1.58-2.15,2.34-1.36,1.53-2.75,3.22-4.14,4.7h-.14s-.07,0-.06-.1a41.16,41.16,0,0,0,2.87-3.25,9.79,9.79,0,0,0,1-1c.62-1,1.56-1.62,2.18-2.68a.18.18,0,0,1,.13-.09Zm1.3,0,1.56.07.06.06-4.1,7.46s-.06.06-.14.09c-1.22-.3-2.42-.23-3.65-.44.73-1.06,1.76-2.15,2.66-3.21,1.13-1.36,2.38-2.72,3.6-4ZM53.12,20.16c1.91,0,3.8,0,5.73.07.36-.07.72,0,1,0,1.12.19,2.26,0,3.34.14a33.5,33.5,0,0,1,3.62.21c.2,0,.36,0,.52,0,1.33.06,2.64.2,3.93.26,3.68.07,7.44.77,11,1a2.87,2.87,0,0,1,.17,2.49c-.33.11-.82-.1-1.17-.13s-.57-.07-.83-.16c-1.91-.24-3.83-.3-5.73-.4-3.31,0-7.32.13-9.59,2.45a3.07,3.07,0,0,0-.76,1.58l-.06,1.15c-.69.24-1.46.14-2.19.36-4,.66-7.92.7-11.91,1.06-1.19.06-2.29.22-3.47.3,0,0-.06,0-.1-.09-3.38.4-6.82.44-10.26.85-5.44.47-10.85,1.25-16.25,1.75a5.13,5.13,0,0,0-1,.14q-2.88.28-5.67.73L1.11,35.13l.24-.72c2.15-2.35,4.79-3.65,7.49-5.22,1.2-1.25,3.35.29,4.28-1.75.66-.72,1.33-1.43,2-2,0,0,.09-.06.09-.14l-.09-.2-1-.23a4.22,4.22,0,0,1,1.58-1.22,6.11,6.11,0,0,0,.62-.26.24.24,0,0,0,.14,0,8.93,8.93,0,0,1,2.34-.76,135.11,135.11,0,0,1,17.14-1.91c2.09-.13,4.17-.19,6.22-.32s4.05,0,6.06-.23c.46,0,.82,0,1.26,0,1.28-.06,2.46,0,3.71-.07Zm31,1.93s.07,0,.09.07a2.44,2.44,0,0,1-.06,2c0,.06,0,.1-.09.11a6.88,6.88,0,0,0,0-2.24Zm1,0c1.36.16,2.79.26,4.2.43a5.09,5.09,0,0,1,1.55.37A17.36,17.36,0,0,1,86.28,26a.25.25,0,0,1-.1,0,4.44,4.44,0,0,0-1.4-1A6,6,0,0,0,85,22.12ZM59.46,24.24l.43.07A3.72,3.72,0,0,1,60.45,27c-.14.23-.26.46-.47.52a.66.66,0,0,1-.63-.29,3.16,3.16,0,0,1-.47-2.52,1.94,1.94,0,0,1,.11-.24l.47-.19Zm14,.24c1.56.09,3.14,0,4.73.23A19.86,19.86,0,0,1,81,25c.5.1,1,.2,1.43.32a1,1,0,0,1,.43.13A88.87,88.87,0,0,1,69,26.63l-1.12-1.15a18.14,18.14,0,0,1,5.54-1Zm-18.61.06c.33.06.42.33.54.62.23.77.46,1.82,0,2.41-.2.13-.36.27-.56.17-.56-.27-.6-1-.77-1.53a2.82,2.82,0,0,1,.17-1.43c.11-.23.4-.16.63-.23Zm-5,.07.54.19a5.5,5.5,0,0,1,.43.92A2.29,2.29,0,0,1,50.58,28a.16.16,0,0,0-.1.06.81.81,0,0,1-.77-.21,4,4,0,0,1-.33-2.85c.1-.11.17-.26.3-.27l.19-.06ZM45,24.77a.72.72,0,0,1,.69.23,4.18,4.18,0,0,1,.47,2.71c-.11.29-.29.54-.54.56a.74.74,0,0,1-.79-.26,4.32,4.32,0,0,1-.36-2.87.61.61,0,0,1,.53-.37Zm-4.91.39a1,1,0,0,1,.52.17A3.12,3.12,0,0,1,41,28a2.9,2.9,0,0,0-.2.33.64.64,0,0,1-.57.1,2.63,2.63,0,0,1-.74-2.31c.1-.42.16-.92.57-1Zm-15.82.07h.47s0,0,.06.06a9.22,9.22,0,0,1,.52,3.42l-3.67.19a.2.2,0,0,1-.17-.17l.73-3.31,2.06-.19Zm-8.6.07,3.05.26a22,22,0,0,1-1.85,3.35c-1.19.34-2.65,0-4-.06a.87.87,0,0,0-.33,0c-.1-.09,0-.26,0-.34,1-1.09,1.92-2.06,2.92-3.14.06,0,.07-.06.13-.06Zm3.64.23a16.1,16.1,0,0,1,2.36.13,13,13,0,0,1-1,3.25,4.91,4.91,0,0,1-1.59.07,7,7,0,0,1-1.73,0A13.94,13.94,0,0,1,19,25.62l.29-.09Zm47.07.76h.13A3.87,3.87,0,0,0,66,29.11c.09.47.3.89.4,1.3l-.21-.07a3,3,0,0,1-.76-2.91,2.72,2.72,0,0,1,1-1.15Zm15.56.47h.67c-.3.11-.67.07-1,.19a104,104,0,0,1-12,1c-.06,0-.06-.09,0-.14l12.39-1Zm3.21.44h.23c.2.11.06.37,0,.57a7.45,7.45,0,0,1-1.45.67c-5.13,1.59-10.23,3-15.42,3,0,0,0,0,0-.07a1.75,1.75,0,0,0,1.17-1.53,8.09,8.09,0,0,0,0-1c1.63-.33,3.32-.07,5-.39,1,0,1.83-.24,2.77-.24,1-.19,1.86-.19,2.76-.37,1.63-.13,3.2-.43,4.79-.59.07,0,.11,0,.13,0ZM64.61,30.32l.37,0a.19.19,0,0,0,.07.1.24.24,0,0,1,0,.1c-6.83,1.13-13.77,1.23-20.66,1.95-.63,0-1.28.09-1.88.06-2.34.1-4.63.49-7,.6-1,.2-2,.1-3,.32a7.73,7.73,0,0,1-1.5.09c-2.51.06-5,.37-7.41.43L33.53,33c3.5-.36,7-.5,10.44-.85,2.41-.17,4.8-.26,7.16-.54,4.48-.19,8.94-.92,13.34-1.3.07,0,.11,0,.13,0Zm1,.83c.77.32,1.26,1,2.16,1.09a13.77,13.77,0,0,0,3.84-.06,13.7,13.7,0,0,1-4.34,1.59,13.2,13.2,0,0,1-5.33.32c-2.81-.34-5.86.24-8.42-.77-.1-.1-.14-.19-.24-.19l-.27,0a.46.46,0,0,0-.24.36c.19.43.66.5,1,.69,4.86.6,9.67.49,14.51,1.06.4-.11.79.1,1.19,0,.8.13,1.58.17,2.34.24.06.26-.36.52-.49.73a.26.26,0,0,1-.1.07,36.16,36.16,0,0,1-5.24-.39c-2.59,0-5.14-.32-7.71-.49-3-.09-5.86-.49-8.81-.56-.82-.1-1.72-.34-2.38.23a1.59,1.59,0,0,0-.67,1.4,22.09,22.09,0,0,1-5.39-.2c-.07-.07-.1-.09-.14-.09s-.16-.17-.14-.36c.16-.43.74-.46.7-1a.72.72,0,0,0-.21-.24c-.46,0-.79.34-1.1.67-.07.21-.24.4-.2.62-5,.54-10.23.72-15.32,1.26-.57-.19-1.13.07-1.63,0-1.26.06-2.45.16-3.68.2v.06h-.72c-5.57,0-11.61.85-16.78-1.25,3.11-.14,6.2-.56,9.34-.7.57.09,1.13-.17,1.6-.07,5-.17,9.87-.64,14.8-1,1.22.07,2.41-.23,3.58-.16,1.66-.16,3.27-.27,4.89-.46,1.15-.16,2.22-.16,3.34-.32s2.29-.14,3.44-.23a8.77,8.77,0,0,1,1.48-.09c7.16-.7,14.28-.82,21.38-2.08ZM78,34l4.2.16c.13.42-.3.69-.44,1a2.08,2.08,0,0,0-.76.17c-2.74.59-6,0-8.3,1.63a1.77,1.77,0,0,0-.3,1.23l.47.4a1.13,1.13,0,0,1-1.09.32,1.89,1.89,0,0,1-.42-.42l0-.2a1.18,1.18,0,0,1,.13-.95c.92-2.08,3.24-2.74,5.43-3.25.36,0,.72-.06,1-.13ZM22.41,34h.74l-1,.06.29-.06Zm58.73,2c.54,0,1,.13,1.6.07,10.54.56,21,1.19,31.56,2a2.19,2.19,0,0,1-1.85.53c-2.59,0-5.14-.23-7.68-.29s-5.29-.33-7.88-.5c-5.67-.24-11.33-.76-16.95-1-1.12-.14-2.16-.11-3.27-.29,1.2-.26,2.41-.13,3.58-.39.33-.09.59-.09.87-.16Zm36.53,2.22,1.81.16c.1,0,0,.1,0,.07a31.23,31.23,0,0,1-3.47,1c.1-.2.32-.32.27-.56s-.36-.24-.59-.32l2-.32Zm-3.21.69v0l-.29.16c-.09.1-.2.39-.09.5s.09.14.11.16a2.65,2.65,0,0,1-1.26.24s-.09,0-.1-.1c.37-.54,1-.67,1.62-1Z"/></g></g></svg>