<svg xmlns="http://www.w3.org/2000/svg" viewBox="0 0 274.76 62.46"><defs><style>.cls-1{fill:#231f20;fill-rule:evenodd;}</style></defs><title>Falcon200</title><g id="Layer_2" data-name="Layer 2"><g id="Layer_1-2" data-name="Layer 1"><path class="cls-1" d="M137.27,62.46c-10.86-1.06-21.76-.57-32.66-.57-2.77-.27-2.77-.27-3-.38-6.91.08-13.78-.27-20.62,0-8.35-.19-16.82-.65-25.18-.65-.72-.11-1.44-.19-2.16-.27-9.83,0-19.56-1.37-29.35-2.13-4-.61-7.86-1.33-11.77-2.28-3-1-3-1-7.59-2.28C3,52.78,1,51.87,0,49.82c.19-2.7,1.25-3.76,3.68-5,1.59-1.59,4.18-2.09,6.15-3.23L24,37.06c.65-.38,1.67-.72,2-1.33,2.13-1.4,4-3.53,5.92-5.2a31,31,0,0,1,10.44-4.59,228,228,0,0,1,27-.38C83.84,25,98.42,26.85,113,27.07c4.63.27,9.27.57,13.94.87,13,1.82,26.31,1.52,39.38,3,2.66.15,2.66.15,2.89.08.87-4.14,5.24-4.1,8.92-4.1a60.71,60.71,0,0,0,10.82-6.08c1.29-.65,5.58-3.42,12.34-7.44a37.43,37.43,0,0,0,4.67-2.77,55.67,55.67,0,0,1,5.28-3.38,4.12,4.12,0,0,1,.23-.42c1.52-1.06,3.87-2.39,5.05-3.95,2.43-1.4,2.43-1.4,2.62-1.63A41.21,41.21,0,0,1,224.37,0l6.08.23c2.39.38,3.15.65,7.06,1.14,3.61-.72,1.44,2.32.46,4.25-2.05,3.38-4.52,6.87-6,10.52,6.3.53,12.61-.11,18.91-.34a36.49,36.49,0,0,1,5.39-.49c5.13-1,10.56.23,15.68-.19v.38a2.34,2.34,0,0,1,.53,0c0,1.44-1.82,1.29-3.08,1.63-7.75.65-15.53.91-23.24,1.9l-12.45.23-4.48.8c1.25,1.25-1.37,5-2,6.27-1,0-3.15,5-3.49,5.7-1.71,2.62-3.38,5.24-4.86,8,2.89,1.18,3.27,2,2.16,4.78a10.86,10.86,0,0,0-2.16,1.59c-2.73,1.48-5.43,3.15-8.2,4.56a10.19,10.19,0,0,0-2.16.84.53.53,0,0,1,.11.15c9.64-.23,9.64-.23,11.54-.11,12.26.11,12.26.11,13.56,0,.11-.23.11-.23.23-.23v.27c2.09,0,4.18-.46,6.19-.46a2.93,2.93,0,0,0,1.4,0c7.18-.19,14.66-.84,21.83-.49,1.14-.08,2.28-.11,3.42-.15,2.32.42,6,.19,7.94,1.56a2.87,2.87,0,0,0,0,.57c-3.08,1.1-6.15,1.1-9.42,1.18-15,.91-30.07,1.37-45.11,2.16a45.56,45.56,0,0,1-6.83.23c-.53.15-5.28.27-11.54.76-8.47.46-17.09,1.25-25.55,1.41a18.78,18.78,0,0,1-5.05.87,157.47,157.47,0,0,1-27.34,2.81c-2-.38-4.56.08-6.61.19Zm-.38-1.25a29.55,29.55,0,0,1-4.56-.61,51,51,0,0,1-17-3.46c-.15-.3-.34-.34-.23-.76,4.71-.68,9.49-1.18,14.24-1.59,2.47.11,5.13,0,9.95.11,8.58-.61,17.2-.08,25.82-.38a19.25,19.25,0,0,0,4.18-.11c10.67-.08,21.38-.76,32-.76a1.86,1.86,0,0,1,.27-.11l-.15-.15c11.62-.38,23.16-.19,34.82,0,6.42-1.33,12.91-1.25,19.48-1.25,4.44-.46,9.95-.84,14.32.49-.38.15-7.21.38-8.16.53-9.26.46-18.61,1.14-27.87,1.14-6.53.38-13.37,1.06-19.9.87a13,13,0,0,1-4,.27c-3.15.23-6.3.49-9.42.76-9.34.3-19.48.19-28.71,2-1.33.15-2.66.3-3.95.49-7.48,1.86-15.49,2-23.16,2.43a62.1,62.1,0,0,0-8,.08ZM114,60.94c-4-.3-8.13-.15-12.15-.57-9,0-17.92-.46-26.92-.15-9.61-.23-19.21-.76-28.78-.76-2.32-.19-4.63-.34-6.95-.49-8.47-1.48-17.09-1.56-25.44-3.68-3.53-1.14-7.59-2-10.78-3.95A6.07,6.07,0,0,0,1.44,49.7a3.14,3.14,0,0,1,.8-2.54h.38c0-.76,2.32-1.9,3.15-2.05v-.23a3.22,3.22,0,0,1,.65-.15V44.5c2.24-.68,4.44-1.82,6.68-2.62l11.16-3.42c3.65-1.82,6.34-5.39,9.72-7.71.8-.46,1.59-.87,2.43-1.29,4.18-1.37,4.18-1.37,4.67-1.67a1.86,1.86,0,0,1,.11-.27c6.3-1.33,13.29-1.22,19.74-1.22,6.49.38,13,.3,19.52.27,10.18.49,20.5,1.63,30.68,1.63,15,1,15,1,16.25,1.25.19.08.42.15.65.27,7.48,0,15,1,22.44,1a95.53,95.53,0,0,1,10.4,1c6.8.61,13.63,1.18,20.43,1.9,5.66,1.06,11.47,1.67,17.24,2.66,1.78.42,20.81,3.76,21.49,6.53-2-.38-5.16.34-7.06.46-6,0-6,0-6.15.15l-3,.23c-.38-.38-1-.34-1.52-.42.46-.95.3-.95-.38-1.75l-6.34-2.16c-1.56-.11-1.44-.3-2.16-1.56-1.29-.68-2.54-1.33-3.8-2A146.71,146.71,0,0,0,160,32.88c-3.76,1.71-5.32,4.9-5,9.08a13.53,13.53,0,0,1,.8,2.54c-.19.15-.19.15-2,.42-4.29.08-8.77.49-13,0-4.25.27-4.25.27-8.7.27a142.36,142.36,0,0,1-19.29.57V46h-1c0-.27,0-.27-.11-.27V46c-4.63-.08-4.63-.08-10.75.11,0,.11.38.11.38.27-6.23.08-12.57.23-18.76-.08.49-4.1,2.2-10.94-.34-14.77-2.73-1.29-5.92-.27-8.85-.19-1.25-.23-1.25-.23-1.56-.15v-.27a2.27,2.27,0,0,0-2.35,1.25c0,3.42,0,3.42.27,8.43-.15,1.82-.3,3.65-.42,5.51-3.76.34-7.59.27-11.35.3-3.65.23-7.29.49-10.94.76-11.66,0-11.66,0-15.83-.11-5.77.46-11.58.46-17.35.95a8.47,8.47,0,0,1,.53,1,13.44,13.44,0,0,0,2.77-.23c10.33-.23,20.69-.57,31-.61a191.55,191.55,0,0,1,20.88-.61A54.57,54.57,0,0,1,69,53.35a13.86,13.86,0,0,0-.68,3.53l1.37.68a59.92,59.92,0,0,1,6.46,0c4.78.53,5-3.8,6-7.63.27-1.9.27-1.9.42-2.2,10.14-.3,20.35.42,30.49.23.8.08,1.63.15,2.47.27,9.83-.23,19.78-.53,29.62-.15.87.27,2.16.38,2.92.65.8.11,1.52,0,1.33,0v-.3c2.66-.38,5.66-1,8.32-.61a2.29,2.29,0,0,0,1.1.68c2.28.38,4.06.91,6.72,1.4,1.37.11,6.68,1,10.48,1.4,4.71-.11,9.45-.08,14-1.14,3-1.59,5.2-2.81,8.62-2.81a3.14,3.14,0,0,0,1.75-1.14,24.58,24.58,0,0,0,5.51-.49c3.8-.08,7.63-.27,11.47-.27-2.35,1.37-4.71,2.77-7.06,4.18-5.16,1.82-5.16,1.82-6.83,2.54-1.9,0-6.61.38-10.1.49-1.18.15-1.18.15-14.2.53-3.95,0-7.9,0-11.85-.23-6.91.34-6.91.34-7.52.46-6.61,0-13.29-.15-19.9.27-9.34,0-9.34,0-10.18-.11-11.7,1-12.07,1.14-13.67,1.25-1.82.34-3.11.91-2.35,3,.3.08,1.41.91,2.54,1.44,1.67.46,3.91.57,5.35,1.29a5.93,5.93,0,0,1-2.58,0l-5.05.46ZM76.66,56.39c-2.32-.57-4.75-.19-7.1-.11l.8-7.86c.19-.3.19-.3.46-.46a84.71,84.71,0,0,1,10.29-.08c0,2.51-1.48,4.82-1.67,7.25h-.27c-.65,1-1.33.95-2.51,1.25ZM175,50.2c-4-.53-8.39-.95-12.26-2.16.91-1.21,1.33-1.59,2.89-1.25V47c7.78.3,15.57-.8,23.35-.95a15.63,15.63,0,0,1,3.11-.23c.11,1.4-1.78,2.58-2.81,3.15-4.67,1.06-9.49,1.1-14.28,1.22Zm-15.83-2.92c-.87-.76-3-3.23-2.32-4.33-.76-1-.61-1.75-.68-3,.68-3.3,3.15-7.14,7-5.09a11.48,11.48,0,0,1,1.14,2.81c.34,2.89-.27,5-1,7.78-1.44,1.56-1.9,1.67-4.1,1.86Zm-85.7-.65c-.49-.19-.49-.19-2.81-.34a41.11,41.11,0,0,1,.23-5.58c-.11-2.51-.19-5-.27-7.44.19-1,.91-.8,1.86-.87,3,.19,6.08-.42,9,.42,1.59,4.56.42,9,0,13.71l-8,.11Zm85.7,0a4.84,4.84,0,0,1,0-.76c-1.06-.61-1.18-1.44-1.33-2.62a3.83,3.83,0,0,0-.57-.27c-.11-1.78-.23-1.86-.27-4.18,1.22-2.66,2.13-4.1,5.24-3.61,3.57,2.47.76,8.81-1.67,11.24-.49,0-1,.11-1.44.19Zm34.55-.38a39.36,39.36,0,0,0,.65-5.54c.46,0,.91.11,1.4.19a2.62,2.62,0,0,1,.11.3,30.07,30.07,0,0,1,4.78,1.4c-.11.27-.11.27-.61.49-.34,1.06-.42,2.62-1.67,3-1.56,0-3.11.11-4.67.19Zm-22-1.14-6.57-.23c.08-.46.08-.46.68-1.4.19-2.09.72-4.86-.53-6.72-.19-1.9-.65-3.38,1.78-2.58,2.51.11,5,.23,7.56.38,4.75.95,9.72,1.59,14.54,2.39.95.49,1.94,1,2.92,1.48v.23h.23c.11.53.23,1.1.38,1.67H193a14.17,14.17,0,0,1-.19,3.8c-.49-.49-3-.15-3.72-.15v.27c-5.77.34-11.54.8-17.35.87Zm-37.1-3.27-1.59-1a8.13,8.13,0,0,1-.34-4.94,2.17,2.17,0,0,1,.53-.15c0-.49.65-.61,1-.8a3.44,3.44,0,0,1,1.75.76c.8,2.05,1.4,5.13-1.33,6.15Zm10.4-.38c-.27-.19-.53-.38-.76-.57-.53-3.27-.61-5.62,2.92-5.85a8.11,8.11,0,0,1,.53,5.81,4.72,4.72,0,0,1-2.7.61Zm-22.93-.53A5.24,5.24,0,0,1,120.75,35c2.24-1.1,2.24-.38,4.1,1.48a5.4,5.4,0,0,1-1.67,4.33,10,10,0,0,0-1.1.08Zm-24.15-.76a7,7,0,0,1-2.35-2.89c0-1.94-.27-3.65,1.78-4.4A10.23,10.23,0,0,0,99.6,33c2.81,1.86,1.67,6.68-1.67,7.14Zm12.38-.23A10.13,10.13,0,0,1,108,38.28c-.27-3.3-.27-4,2.51-5.39,1.48,0,2.2,2.54,2.2,3.72-.42,1.9-.34,3.15-2.35,3.34Zm106.85-.53c-14.81-4.14-30.07-6.27-45.34-8.09l.46-2.28c1.37-.68,4-.65,5.58-.84,4.78-1.4,8.85-4.82,13.25-7.14C198.93,16,207.67,11.73,215,5.92c.34.11.42.3.53.65,2.89.08,5.77.34,8.62.65.87,0,9-.27,9.76.76l1,.11a80.34,80.34,0,0,1-4.21,7.48c-.68.49-1.48.3-2.05.87a73.67,73.67,0,0,0-9,1c-3.08.27-6.11.57-9.15.87a16,16,0,0,1-3,1c-2.13,1.71-2.13,1.71-2.39,1.75v.34a1.69,1.69,0,0,1,1,.61c2.09-.11,4.18-.19,6.3-.27,5.16-.65,10.4-1,15.57-1.67a1.54,1.54,0,0,1,.34.19c-1.75,3.87-3.84,7.67-5.73,11.47-.61.72-3.65,5.39-4.86,7.48a2.85,2.85,0,0,0-.61.19ZM32.24,37c-.65-.42-1.44,0-2-.27,0-.42-.08-.8-.11-1.18L37.21,30c1.52-.49,3.11-.8,4.56.15,0,1.56-3,2.7-3.68,4.14a7.14,7.14,0,0,0-.95.38C35.35,37,35,36.91,32.24,37Zm7.33-.27c-.11-.19-.08-.42-.34-.76,0-.46,4.71-5.39,5.13-5.47,0-.38,1-.91,1.33-.91v.23a5.19,5.19,0,0,1,3,.42c0,.27-.08.53-.11.84-1.56,1.82-2.77,4.59-4.82,5.62-1.4,0-2.81,0-4.21,0Zm15.68-.23a.83.83,0,0,0-.11-.19c-2.35-.11-4.67-.23-7-.15-1-1.41.8-2.85,1.48-4.1.53-.65.8-1.33,1.29-1.82,2.32.27,4.63.3,6.95.38.95,1.25.53,3,1.06,4.48-.46,1.4-2.39,1.21-3.65,1.4Zm153-15.83c.34-.72,1.9-.68,2.58-1.21,7.06-1,14.32-1.75,21.45-2.16.46-.46,1.82-.23,2.47-.23.57.57,4,.23,4.9.23l.23-.23c5.7-.23,11.39-.46,17.09-.65a1.63,1.63,0,0,1,.23-.27c.3,0,4.4,0,4.52.38a7.08,7.08,0,0,0-.95.15c-.68.68-2.28,0-3.15.61-4.37.08-8.66.34-13,.65a4.38,4.38,0,0,1-2.47.49c-.08-.11-10.59-.11-10.67,0-3.27.42-6.53.84-9.76,1.29-4.48,0-9,.76-13.44.95ZM233.33,5.77c-5.13-.38-10.21-.76-15.3-1.1-.42,0-.84,0-1.25.08a2.32,2.32,0,0,1,1.9-1.52c0,.15.08.3.11.49,1.56,0,4.37-.42,5.62.49A78.61,78.61,0,0,0,233.87,4v.27a12.47,12.47,0,0,0,2.89.53.83.83,0,0,1,.11.19l-.34.68-3.19.11Z"/></g></g></svg>