<svg xmlns="http://www.w3.org/2000/svg" viewBox="0 0 144.16 92.47"><defs><style>.cls-1,.cls-2,.cls-5{fill:none;}.cls-1{stroke:#000;}.cls-1,.cls-2,.cls-4{stroke-width:0.57px;}.cls-2,.cls-4,.cls-5{stroke:#231f20;}.cls-3{fill:#231f20;}.cls-4{fill:#fff;}.cls-5{stroke-width:0.29px;}</style></defs><title>G-5000</title><g id="Layer_2" data-name="Layer 2"><g id="Layer_1-2" data-name="Layer 1"><path class="cls-1" d="M24,41.1l-.09-.47A214.7,214.7,0,0,1,57,33.27c18.55-2.61,58.81-5.68,58.81-5.68l11.56-.65a26,26,0,0,1,4.1.28c1,.28,9.13,4.1,9.13,4.1s2,1.3,2.42,1.68.84.75.84.75a2.57,2.57,0,0,1-.93,1.21A17.36,17.36,0,0,1,137,37.37c-2.7.56-8.48,1.21-10.9,1.49s-22.09,2-22.09,2a30.54,30.54,0,0,1-3.73,2.7c-1,.47-1.49.75-1.49.75l-35,46.13a16.26,16.26,0,0,1-6.24,1.58l-3.36.09,2.89-3.45,6.43-11.46-2.33-.19,2.8-.93L69.19,65.7l-2.89.47,3.26-1.58,1.77-8.39-3.17.65,3-1.58-.65-7.55-6-1.12S46,44.92,39.65,43.89,24,41.1,24,41.1Z"/><path class="cls-2" d="M70.5,47.72s13.42-3.54,19-4.57a84,84,0,0,1,8.57-1.4,8.44,8.44,0,0,1,2.14.09c.93.19,1.3.56,1.12,1"/><path class="cls-2" d="M66.49,31.87,65.75,30,63,29.92,65.19,29l-3.91-6.71-3.45.09,2.7-1.12L54,14.72l-2.33-.37,1.58-.56-8.2-8a22.88,22.88,0,0,1,2.52-.56c.84-.09,1.68-.09,1.68-.09L87.74,29.92Z"/><path class="cls-3" d="M55,92.08l-4.47-3.54,1.68-.65,8.85,3.63a12.61,12.61,0,0,1-3,.75A16.59,16.59,0,0,1,55,92.08Z"/><polygon class="cls-3" points="45.06 5.78 44.31 5.41 44.31 4.19 41.52 0.09 42.45 0 48.51 4.85 45.06 5.78"/><path class="cls-2" d="M29.59,39.14S20.08,30.57,17.47,29s-2.89-1.86-3.91-2.14-1.12-.65,0-1.12a77.1,77.1,0,0,1,9.13-2.24,17,17,0,0,1,6.62,0A22.13,22.13,0,0,1,34.25,26c2.14,1.4,10,6.24,10,6.24s-.19.56,3.63.93,5.78.37,5.78.37v.93a73.78,73.78,0,0,1-12.49,3C32.85,38.86,29.59,39.14,29.59,39.14Z"/><path class="cls-4" d="M14.4,26.28s8.57-.93,11-.84,4.57.09,4.57.09L11.23,41.66s-.75,1.68-4,1.86S.6,43.8.6,43.8Z"/><path class="cls-2" d="M14.12,25.16,4.24,15.1s5.22-.28,6.15-.28a8.16,8.16,0,0,1,2.52.75l13.7,7.55a34.84,34.84,0,0,0-6.43.84C16.17,24.79,14.12,25.16,14.12,25.16Z"/><path class="cls-2" d="M40.49,29.82s8.11-2.61,11.65-3,6.71-.47,7.18-.47,1.12.09,1,.84a16,16,0,0,0,0,3l.28,2.52-7,.84s-5.22-.47-6.8-.65a7.37,7.37,0,0,1-2.14-.47Z"/><path class="cls-2" d="M60,32.62a18.22,18.22,0,0,1-.47-3.45,22.21,22.21,0,0,0-.19-2.8l.93.28s0,2.42.09,3.54.28,2.52.28,2.52Z"/><path class="cls-4" d="M38.63,48.46l-.56-4.75S47,41.19,51.67,40.26a37.18,37.18,0,0,1,8.76-.93c.33,0,.7.07,1,.13.6.11,1.1.29,1.1.71,0,.65.93,5.31,1,6a1,1,0,0,1-.5.92,5.73,5.73,0,0,1-1.45.66A22.17,22.17,0,0,1,55.22,49a73.93,73.93,0,0,1-10.16,0Z"/><line class="cls-5" x1="63.1" y1="47.06" x2="61.47" y2="39.45"/><path class="cls-3" d="M134.89,30.93a2,2,0,0,0,.66-1,4.26,4.26,0,0,0,.13-.87l2.57,1.24a4.14,4.14,0,0,1-.41,1.61A2.18,2.18,0,0,1,137,33Z"/><path class="cls-3" d="M131.87,34.9l-.17-2.4a6.12,6.12,0,0,0,1.53-.46,4.71,4.71,0,0,0,1.2-.58l1.86,2a13.26,13.26,0,0,1-2.07.91A14.77,14.77,0,0,1,131.87,34.9Z"/><rect class="cls-3" x="123.8" y="35.07" width="1.24" height="1.78"/><rect class="cls-3" x="120.45" y="35.35" width="1.24" height="1.78"/><rect class="cls-3" x="116.77" y="35.69" width="1.24" height="1.78"/><rect class="cls-3" x="113.21" y="36.1" width="1.24" height="1.78"/><rect class="cls-3" x="109.44" y="36.31" width="1.24" height="1.78"/><rect class="cls-3" x="105.84" y="36.68" width="1.24" height="1.78"/><rect class="cls-3" x="101.99" y="36.97" width="1.24" height="1.78"/><rect class="cls-3" x="98.27" y="37.38" width="1.24" height="1.78"/><rect class="cls-3" x="94.62" y="37.76" width="1.24" height="1.78"/><rect class="cls-3" x="90.44" y="38.04" width="1.24" height="1.78"/><rect class="cls-3" x="86.51" y="38.29" width="1.24" height="1.78"/><rect class="cls-3" x="83.04" y="38.75" width="1.24" height="1.78"/><rect class="cls-3" x="78.86" y="39.12" width="1.24" height="1.78"/><rect class="cls-3" x="71.98" y="39.62" width="1.24" height="1.78"/><rect class="cls-3" x="75.38" y="39.45" width="1.24" height="1.78"/></g></g></svg>