<svg xmlns="http://www.w3.org/2000/svg" viewBox="0 0 145.83 77.35"><defs><style>.cls-1{fill:#231f20;fill-rule:evenodd;}</style></defs><title>G-Express(2)</title><g id="Layer_2" data-name="Layer 2"><g id="Layer_1-2" data-name="Layer 1"><path class="cls-1" d="M138.89,77.35l4.77-1.09c-.18-3.8-2.11-7.06-3.5-10.5-1.21-3.26-2.84-5.07-5.37-7.42a53.74,53.74,0,0,0-7.54-5.13c-1.75-1.45-4.53-1.87-6-3.68l24.62-32.22L143.48,8l-2-1.69c-.84,2.17.36,4.89-.42,7.3a1,1,0,0,1,0,.84c-5.25,6.27-10.86,10.74-16.59,16.35L110,40.12l-.6.6-2.17,1.45-12-7.06c.18-.66,1-.78,1.63-1.27A4.86,4.86,0,0,0,98,28.48a4.57,4.57,0,0,0-3.56-3.2c-1.15-.06-1.87-.6-2.9-.72-.91-.72-2.17-.6-3.26-1-2.59-.06-5.25-1.27-7.54-.6-.42,1.27-.91,2.78-.3,4.1-.3.42-.36.84-.84,1l-2.05-.6c-3-5.61-6.7-10.2-9.47-16C69.93,9.77,71.5,7.78,73.31,6a48,48,0,0,1,4.59-4.22L74.7,0,69.51,3.14,62.93,6.76l-2.41-.6c-.42.18,0,.78-.06,1.21C53.16,9.11,45.37,9.77,38,10.62c0,.36-.24,0-.06.36L40.06,13c6.15.24,13-.84,19.43-.66a11.64,11.64,0,0,0,2.9,0c1,2.11,1.51,4.95,2.29,7.12,1.63,3.44,1.15,7.24,2.53,10.32v.36c-.48.18-.91-.24-1.27-.6-1.81-.12-4.1-2.11-6-.84a5.06,5.06,0,0,0-1.33,4c1.33,3.44,4.46,6,7.24,7.6,2.59.78,5.19,2.23,7.6.84,1.21.42,2.05,1.45,3.26,1.87,2.72,2.59,4.46,5.67,6.88,8-2.65,2.35-6.94,1.69-10.26,2.17-8.75.66-17.26,1-25.76,1.39l-37.41.54c-1.75-.66-4.16.54-5.43-1-1.45-1.69-3-3-4.1-4.53H.18S0,49.72,0,50a12.33,12.33,0,0,0,2.05,3.26c2.29,1.75,3.74,5.61,6.7,6.28,9.05.36,17.86,1.63,26.79,1.09,3,.12,6-.3,8.87.12,1,.06,1.51-.12,2.29,0,3.62.48,7.18-.42,10.56.42,6.64-.12,13,0,19.61.24C78,61.66,79,61,80,61.42c1-.18,1.93.24,2.84-.06,3.62.06,6.94.54,10.56.54,3.5.3,6.34.54,9.77.54,1.45.06,2.47.06,3.8.18,8.39,5,17.2,10,27.21,13.88,1.63.36,3.2.36,4.71.84Zm0-.84c1.27,0,2.84,0,3.86-1-.18-.12,0,0-.24-.24a31.74,31.74,0,0,1-8.75-1.75c-8.27-3.62-16-8-23.77-12.07-1.75-1.09-3.26-1.81-4.89-2.84-1.27-.12-1.81-.78-2.84-1.27.48.91,2.35,1.33,2.84,2.59,1,.48,1.51,1.75,2.72,1.57l1.69,1.63c3.5,2.23,7.42,4.28,10.86,6.52,6.21,2.29,11.77,6.27,18.52,6.88Zm2.41-2.41,1-.18c-.36-3.86-2.65-7.06-4.1-10.56,0-.06-.18-.18-.36-.18l-1.09,1.75a13.62,13.62,0,0,1-10.86.72l-2.05-2.72c0-.48.6-.84,1.21-.91,3.2-.6,6.34.18,9.29-.9l.42-1.45c-.91-1.57-2.59-2-3.86-3.38-3.5-2-6.7-4.1-10.56-5.85-3.68-2.35-7.6-4.1-11.4-6-3.74-2.35-7.12-4.53-11-6.76S90.26,33.43,86,31.31a26.81,26.81,0,0,0-7.72-2.84c-.54-.12-.66.42-1.21.54-1.81.12-3.8-.66-5.55-.78-1.63-.66-2.9-1.39-4.34-1.93-.3,1.39.66,3,1.45,4.1,2.35,1.87,5.85,2.53,6.7,5.85.24,1.45,0,2.9.12,4.1.12.72.9,1,1.21,1.63,3,2.11,6.46,3.08,9.35,5.25,1.33.54,2.05,1.39,3.26,1.69L92.37,50l-.06-.91c-.54-.24-1.21-.48-1.33-1.21L91,46.28a.85.85,0,0,1,.48-.42H92l1,.72,1.57-.66,1,.36,1.09,2.59,1,.24a3.18,3.18,0,0,1-.24,2.23c-.12.18-.42.18-.84.18s-.3.36-.36.66l7.06,4c.3-.78-.36-2.53.84-3.14a.74.74,0,0,1,.42.12c.48.24.72,1.33.72,2.05a13.38,13.38,0,0,1-.84,1.63l1.51.72.42-2.78a1.4,1.4,0,0,1,1-.12l.54,1.39c-.24.6-.3,1.51-1.15,1.75l12.55,7.06,11.4,6c1.21.9,2.78,1.09,4,1.81,2.35.6,4.34,1,6.52,1.45Zm-18.1-9.23a.59.59,0,0,0,.42-.48l-1.57-2.47-1.45-.54-.84.24c-.06.06-.24.18-.24.3l.84,2.29,2.59.66Zm-8.27-2.78c.06.12.42,0,.42-.18l.06-2.17a1.27,1.27,0,0,0-1.09.36c-.24.48-.06.91-.06,1.39l.48.6Zm-2.41-1.39.12-.18.24-2.72c-.24-.3-.9,0-1.15.3l-.24,1,.66,1.63ZM89.3,59.25c4.1-.36,8.39.42,12.37-.6-4.16-3.5-8.63-7-14.54-7.78C78.8,55.39,68.48,53.64,59.25,55a12.88,12.88,0,0,1-3,.18c-7.18.24-14.06,1-21.12.6-9.65-.36-19.07.24-28.54.06l.91,2c4-.24,8,.66,12.25.66,4.53-.3,8.93.12,13.15,0,3.92-.66,7.78.78,11.4.18,6.7-.3,13.27,0,19.91-.18,3.5.72,7.12.18,10.92.6,4.89.36,9.41-.18,14.18.18Zm20.09-.18.24-.18c.18-.72.66-1.57.18-2.23a.85.85,0,0,0-.42-.24c-.72.3-.6,1.69-.42,2.47,0,.12.24.18.42.18Zm-7.72-4.77c.18-.18.36,0,.6-.18V51.65c-.06-.18-.3-.12-.6-.18-.72.3-.48,1.33-.54,2.17.12.48.12.3.3.66Zm-2.41-1.45c.18-.06.48-.06.6-.3l.18-2.41c-.18-.3-.6-.18-1-.12-.66.66-.48,2.05-.06,2.84ZM84.83,50.8l2.29-1.09c0-.66-.84-.78-1.45-1-.18-.18-.24-.42-.42-.6l-5.13-2.59a15.62,15.62,0,0,0,4.71,5.31ZM119,48.27c2.84-4.28,7.06-8.45,10-12.49,1.81-2.35,3.86-3.92,5.55-6.52,2.29-3.32,4.95-5.79,6.7-8.93a27.54,27.54,0,0,0,3.44-4.71l-1.69-6.7-.91-.84-.24,7.42a1.35,1.35,0,0,1-.42.42c-.18,0-.18-.3-.42-.36-3,3-5.61,6-8.69,8.81-4,3.74-7.54,7.72-12.25,10.08-2.29,1.15-3.92,2.9-6,3.92-1.93,1.75-4.1,2.53-5.85,4.1,1.51,2.11,4.83,2.35,6.88,4,1.39.66,2.41,1.27,3.74,1.93l.18-.18ZM89.3,47.12a.57.57,0,0,0,.54-.3c.78-.48.3-1.57.18-2.41-.18-.24-.54-.18-.91-.06A2.93,2.93,0,0,0,89.06,47c.06,0,.12,0,.24.12Zm-2.05-1.63a.46.46,0,0,0,.42-.24c.3-.48.84-1.33.42-2-.06-.12-.24-.18-.42-.24a.92.92,0,0,0-1,.78l.3,1.63a.36.36,0,0,1,.24.06Zm-1.57-1.09.18-.06a1.8,1.8,0,0,0,.42-.66c-.12-.3-.12-.36-.24-.66a1.56,1.56,0,0,1,.24-.6c-.12-.36-.24-.42-.6-.6-.06,0-.36.06-.42.18s-.18.06-.3.24a1.82,1.82,0,0,0,.54,2.17ZM67,39.7l.06-.12a6.06,6.06,0,0,1-.54-5.31,4.45,4.45,0,0,1,2.9-1.81,1.89,1.89,0,0,0-.91-1c-2.59-.42-4.95-2.53-7.78-2.29A2.18,2.18,0,0,0,59.61,31c-.78.84-.36,1.75,0,2.65a19.62,19.62,0,0,0,6.34,5.91c.36-.12.66.12,1,.12Zm.3-3.56.18-.84c.36-.18.54-.66.78-1l2.23-.84a1.36,1.36,0,0,1-.42-.06l-2.41,1.15a3.56,3.56,0,0,0-.42,1.75l.06-.12Zm21.84-4.46h.18a6.82,6.82,0,0,1,2.35-6c-1-.84-2.72-1-4.22-1.45-1.75.12-3.5-.72-5.25-.78l-.78.3c-.42.42-.42,1.21-.54,1.87l.3,2.23L83.57,29l5.55,2.65Zm-13.39-4c.18-.06.42.18.72.12L67.4,12.31,64,12.19c-.84.42,0,1.69-.06,2.35C65,18.16,65.95,21.66,67.27,25l3.8,1.39.6.6,4,.72ZM42,12.13c6.88-.6,13.82-1.09,20.76-1.27.78.18,1.45,0,2.11.12-1-.78-2.11-1.63-3.08-2.35-7.66,0-15.2,2.47-22.63,2.35-.18.3.66.78,1.09,1.09l1.75.06ZM67.64,10.2l8.51-8.39V1.39L74.88.91l-11,6.46c.24,1.09,1.63,1.15,2.17,2.17.72.06.84.6,1.51.72l.06-.06ZM65,9.59l-.78-.48c-.42.18,1.09.48.78.48ZM63.35,8.51c-.48-.66-1.33-.72-2-1.39l2,1.39Z"/></g></g></svg>