<svg xmlns="http://www.w3.org/2000/svg" viewBox="0 0 219.47 95.95"><defs><style>.cls-1{fill:#231f20;fill-rule:evenodd;}</style></defs><title>G200</title><g id="Layer_2" data-name="Layer 2"><g id="Layer_1-2" data-name="Layer 1"><path class="cls-1" d="M171.28,36l0,3.91-.18,1.88.59.06,7.54-.64c.2-.3.44-.38.44-.73v-.29a35.26,35.26,0,0,0-3.49-4.67l-4.93.48ZM.58,86.95c3.19,0,4.63,2.09,6.28,3.74a26.89,26.89,0,0,1,2.55,2.53c.91,1.18,2,1.32,3.08,2-3.43,0-5.07-1.47-6.86-3.16s-4-3.12-5-5.12Zm19.15,4.18,1.46,1.62A59.54,59.54,0,0,1,15.26,95c-1.69.54-4.78-1.36-5.54-2.49,1.6-.37,4.59-2.07,6.22-2.78,2-.88,4.22-1.78,6.21-2.79,3.78-1.91,8.55-4,12.49-5.65S43,77.45,47,75.63s8.22-4,12.4-5.75a110.63,110.63,0,0,0,12-6c1.79-1,3.59-2.4,5.46-3.54s3.71-2.36,5.46-3.68c1.37-1,28.59-3.08,33.24-3L19.73,91.13ZM93.51,46l-.35-.85,5.11.3.18.84L93.51,46Zm-7.75-.39c-2.18-.34-4.88,0-6.95-.45-4.07-.86-8.64-1.12-12.62-2a2.1,2.1,0,0,0,.15-.73V42a59.82,59.82,0,0,1,6.44,1.25c2.25.45,4.05.74,6.39,1.16,2.09.37,5.12.1,7.33.36A32.83,32.83,0,0,0,90,45c1.57,0,2.46-.25,2.76,1a66.18,66.18,0,0,1-7-.4Zm-27-4.53a5.38,5.38,0,0,1,3-5.23c3,.71,3.92,1.52,3.92,5.23,0,4.13-1.28,4.4-3.92,5.66-1.82-1.58-3-2-3-5.66ZM93,44.56c-.28-1.21-1-8.27.44-8.27H97.4c.77,0,.29,2.28.29,3.19v1.74L98,44.86l-5-.3ZM38.18,40.35c0-1.69,1.2-2.28,2.37-2.85a13.26,13.26,0,0,1,3.64-1.44,56.41,56.41,0,0,1,9.52-.64h3.92l2.91.22c-.95,1.47-2.33,2.17-2.33,4.86v1c0,2.17,1.21,5,2.76,5.37-.58.79-4.27,1.16-5.81,1.16H54c-3.52,0-7.75-1.87-10.43-2.92C41.19,44.19,41.48,44,38,44c-1.09,0-4.21-1.53-4.21-2.33,0-1,3.44-1.74,4.35-1.31Zm-3.77-6,2.76,1.74c-.7-.16-2.7-1-2.76-1.74Zm-.73-2c0-.27.39-.6.58-.73.91.61,6.51,4.3,6.68,4.94l-1.28.64c-.17-1.31-6-3-6-4.85Zm2.9-1.74c.65,0,6.54,4.57,6.68,5.08l-1.89.58.17-.43-6.63-4.73.44-.44,1.23-.07Zm2.32-.15a240.82,240.82,0,0,0,25-1.44c7.89-.87,15.93-1.9,24.52-1.9h65.32c6,0,17-.32,22,.66,4,.78,5.43,1.08,8.3,3,1.3.88,1.93,1.77,3.11,2.55s2.14,1.48,3.28,2.24,2,1.76,3.66,2c1.16.17,2.89,1.27,4,1.69,2.41.94,5.37,2.42,7.72,3.6,2.65,1.33,13.16,6.56,13.16,9.34,0,3-17.83,5.28-22.79,5.08L157.64,55.9l-36.58,1.93c.6-.58,1.88-.86,1.88-1.94,0-1.25-2.43-2.9-4.21-2.9h-6c-2.77,0-5.27.46-7.84.44a70.66,70.66,0,0,0-7.66.61c-2.32.36-5,.55-7.43.84-2,.24-5.55.87-7.41.87s-19.77-7.66-20.32-8.42c1.35-.65,3.1-.95,3.48-2.61l.28.58c1.87,0,5.86,1,7.9,1.39a50.67,50.67,0,0,0,7.92,1.22c1.72,0,7.29.07,8.8.34,2.53.46,6.08.07,8.76.39s6.31.06,8.78.51,6.23,0,8.71.44c2.14.39,6.27.47,8.5.64,2.86.21,5.75.48,8.56.58,11.65.43,23.4,1.14,35.13,1.6,3,.12,5.76.3,8.86.28,1.43,0,7.46.14,8.77.38a79.31,79.31,0,0,0,8.8.35c3,0,5.72.29,8.85.29H206v-.58c-2.92,0-6.08-.3-9-.29-1.9,0-7.19,0-9-.32a83.65,83.65,0,0,0-8.88-.41c-2.89,0-6.07-.17-9-.28-2.69-.1-6.09-.46-8.85-.44a78.25,78.25,0,0,1-8.89-.4c-2.57-.4-6.34.09-8.91-.38-2.33-.42-6.33-.18-8.91-.38-5.57-.42-11.8-.66-17.28-1.3-2.36-.28-6.47-.45-8.84-.45-2.84,0-6-.46-8.85-.44s-6.05-.45-8.85-.44a79,79,0,0,1-8.89-.4c-1.48-.23-2.78-.27-4.16-.48s-2.59-.52-3.92-.73c-2.4-.38-5.45-1.24-7.85-1.44l.14-.87c.51.24,11.79,2.06,13.08,2.17,2,.18,5.12.45,7.11.44,2.22,0,5,.44,7.11.44.27,1,2.62.87,3.92.87A2.81,2.81,0,0,0,99,47l91.44,5.26.73,0v-.58l-92-5.28L99,45.58l79.83,4.92c0-1.22-.79-.55-2-.74-.59-.09-1.74-.18-2.36-.25-1.35-.16-3.84-.26-5.06-.31-3.43-.13-6.9-.59-10.17-.57-3,0-7-.35-10.16-.58-1.21-.09-3.83-.13-5-.32-1.44-.23-3.58-.08-5-.35s-3.61-.09-5.05-.32a43.53,43.53,0,0,0-5-.32,87.29,87.29,0,0,1-10.1-.64c-1.45-.26-3.59-.12-5-.35s-3.64-.14-5.06-.31-3.64-.2-5.07-.3-3.52-.26-4.94-.29l-.51-4.35.08-.88c0-1.51,1-4.06-.87-4.06H93.91a1.87,1.87,0,0,0-1.89,2v3l.28,3.77h-.43c-2.45,0-4.63-.41-6.82-.44a63.85,63.85,0,0,1-6.89-.37c-2-.47-4.11-.73-6-1.23-.88-.22-5.66-.63-5.66-1.45v-.73c1.21-.1,1.67-.13,1.6-1l-1.73.35c-.11-4.32-5.91-5.08-10.46-4.85l-11.76.52L38,30.57l.94-.09Zm-4.2-1.16,1,.49c-.28.37,0,.22-.66.22l-.32-.71Zm51.52-2.9c-.06-.74-.11-.2-.29-.87l.77.83-.48,0Zm-4.5.15c.83-1.57,2.42-1.65,2.61-2.18l1.53.91C85,25.2,85,24.71,84,25.21a2.06,2.06,0,0,0-1.11,1.36ZM61.54,27c.1-.93,2.34-1.21,3.17-1.47a32.27,32.27,0,0,1,3.54-1,51.63,51.63,0,0,1,8.53-.47h5.08l1.3.16c-.68.57-1.94,1.18-2,2.31L61.54,27ZM43.38,21.33l0,.15c.13,0,.35.11.73.15v.29l-38.47,11,.62.55-4.53.13C2,32.48,7.83,31.23,9.2,30.69c2.41-.95,5.21-1.59,7.73-2.44,2.84-1,13.89-4,15.44-5l11-1.9Zm73,5.08,3.32-5.36-1.78-5.36,1.37,0c1.22,0,1.16.54,1.6,1.3.35.61.74,1.14,1.11,1.79,1.14,2,1.13,1.82,3.1,2.27l.18.86-1-.17-.64,4.52-2.12.19-5.08,0ZM44.56,17a40.82,40.82,0,0,1,3.6-2.64c1.67-1.1,1.73-1.57,4.53-1.57l-6.27,6.5,0-.18L44.56,17ZM31.81,22.64,25.52,9.3,39,12c1.19,1.69,3.07,3.22,4.31,4.92.57.78.53.27,1.19,1.13.21.28.82,1,1.08,1.25a24.47,24.47,0,0,0,2.25,2.25c3.46,2.91.91,1.82,6.37,2.78,1.17.21,2.91.57,4,.67a11.43,11.43,0,0,1,2,.35c1.29.3.64.18.64,1.25v1.16l11.47-.33v.18c-2.87,0-5.8.77-8.57.87s-5.8.7-8.7.74c-5.86.07-12,.72-18,.72-1.62-1.08-2.84-1.18-3.34-3.34,1.7-.4,11.76-3,11.76-4.06s-.94-1.6-2-1.6h-.58l-11,1.73Zm6.37-11.46c-.8-.38-5.95-1.2-7.34-1.51S28.34,9.2,27,9c-1.62-.28-2.07-.24-2.5-1.85,1.63.14,5.5,1.1,7.34,1.51,2.3.51,5.73.39,6.3,2.55ZM36,8.71A62.49,62.49,0,0,1,29.18,7.4c-1.1-.28-2.23-.39-3.4-.67-1.56-.37-1.89-.22-2.26-1.8,1.83.15,10.3,2.45,11.18,2L36,8.71ZM21.92,1.31c0-.9,3.11-.67,3.78-.59,2.14.25,2.42-.56,3.8.84,1,1,3.88,3.72,4.46,4.83a66.75,66.75,0,0,1-7.11-1.45c-.86-.22-2.94-.47-3.61-.75a6.56,6.56,0,0,1-1.33-2.88ZM11.18,95.95h2.9c.06,0,4.65-1.56,5.1-1.72,1.67-.6,3.31-1.25,4.91-1.91C27.39,91,30.66,89.8,34,88.45c6.58-2.65,13.09-5.14,19.68-7.76,13-5.18,26.62-10,39.92-14.95,3.29-1.22,6.54-2.5,10-3.67,1.57-.53,3.36-1.25,4.93-1.89,1.73-.69,4-.69,5.88-1.09a78.17,78.17,0,0,1,12.77-.88c4.12,0,8.95-.74,13.06-.73s9-.28,13.06-.58c2.35-.18,3.84-.29,6.24-.29,2.14,0,4.62.26,6.68.29,8.75.13,17.62,1,26.42,1H199a69.78,69.78,0,0,0,11.36-1.42,35.18,35.18,0,0,0,5.07-1.32,15.93,15.93,0,0,0,2.26-.94c1.24-.62,1.06-.87,1.79-1.4V51.68c-1-1.18-.84-1.55-2.35-2.73-1.07-.84-1.75-1.35-2.94-2.14a59.36,59.36,0,0,0-6.52-3.64c-2.13-1.06-12.08-6.15-14-6.15-1.88-1.26-4-2.86-5.86-4-2.22-1.33-3-2.72-5.75-4.12-4.1-2.06-11.23-2.32-17.42-2.32-13.07,0-26.52-.15-39.34-.15l.63-4.93a1.45,1.45,0,0,0-.78-1.17h-1a11.09,11.09,0,0,1-2.32-3.2c-1-1.67-.67-2.17-3.34-2.17h-.15c-.49,0-1,.26-1,.73,0,1.14,1.6,4,1.6,5.37,0,.55-2.92,4.36-3.19,5.37l-13.79.18-13.64,0a8,8,0,0,1-1-.15c-.33-3.93-8.38-2.9-12.48-2.9a27.72,27.72,0,0,0-7.26.58c-1.32.33-5.17,1.68-6,1.74,0-1.23-1.06-1.19-2.24-1.39-.93-.16-2.21-.39-3-.48-1.84-.21-4.44-.88-6.08-.88l-1.92-2c1-1.43,6.27-6.68,6.27-8v-.15c0-.59-1.13-.87-1.74-.87h-.15c-4.18,0-6,3-8.85,4.5-.94-1.4-2.64-3-3.75-4.38C39.21,11,37.35,9,36.32,7.95,35,6.62,33.91,5.09,32.55,3.74a26.28,26.28,0,0,0-2-2c-.38-.32-.64-.68-1-1S28.73.29,28.3,0H22.64c-.6.41-1.31.27-1.31,1.31v.44c0,.59,4.29,9.24,4.89,10.64.78,1.83,1.75,3.49,2.53,5.31a50.65,50.65,0,0,1,2.45,5.39c-5,1.17-10.29,3.48-15.36,4.82-2.16.57-5.57,1.65-7.72,2.44-1.31.48-7.11,1.74-7.11,3,0,.56.6.87,1.16.87H6.1c1.65,0,11.15-3,13.44-3.69s4.56-1.13,6.72-1.85A52.62,52.62,0,0,1,33,26.87l1.5,3.76c-.57.3-1.45.9-1.45,1.74v.44a2.88,2.88,0,0,0,.73,1.45V35c.53.79,4.06,2.34,5.23,2.61-.55.82-1.42.48-1.45,2-1.52,0-4.35.47-4.35,1.74v.29c0,1.17,2,2,2.9,2.47,1.54.77,2.72.58,4.94.58,1.45,1,7,2.89,9.2,3.43a14.24,14.24,0,0,0,5.46.49,23.64,23.64,0,0,0,2.94-.25,25.87,25.87,0,0,1,2.72-.47c.22,0,9,3.94,9.87,4.35,1.62.81,8.56,3.88,10.45,3.92v.29c-.58.16-7.2,4.56-8.24,5.25-1.37.92-2.68,1.7-4.07,2.61a45.83,45.83,0,0,1-4.58,2.25c-5.86,3-12.33,6-18.43,8.57-3.11,1.32-6.19,2.88-9.24,4.26s-6.41,2.7-9.29,4.21-6.31,2.72-9.29,4.21S12.19,90.49,9.29,92c-2.84-1.9-4.22-5.81-9-5.81-.18.26-.29.26-.29.58v.15c0,1.15,3.85,4.53,4.76,5.25s1.81,1.47,2.82,2.26c1.55,1.19,2.81,1,3.59,1.49Zm142-52.4c0,1.16.73,2.47,1.89,2.47.95,0,1.74-1.27,1.74-2.32v-.15c0-1-.74-2.32-1.74-2.32h-.15c-1,0-1.74,1.32-1.74,2.32ZM135.43,43c0,2.62,3.63,3.08,3.63.15s-3.63-3.6-3.63-.58V43Zm-75.77-2c0,2,1.13,4.35,3,4.35,1.74,0,2.9-2.48,2.9-4.35s-1-4.21-2.9-4.21h-.44c-1.59,0-2.61,2.49-2.61,4.21Zm66.77,1.45c0,1.12.64,2.61,1.74,2.61h.44c.53,0,1.16-1,1.16-1.6V42.24c0-.74-.88-2-1.6-2-1.16,0-1.74,1-1.74,2.18Zm-8.13-.15c0,1.2.6,2.61,1.74,2.61a1.61,1.61,0,0,0,1.45-1.6v-.73c0-1.28-.65-2.47-1.89-2.47-.61,0-1.31,1-1.31,1.89v.29Zm-8,0c0,1,.74,2.32,1.74,2.32s1.45-.93,1.45-1.89V42c0-.81-.85-2-1.74-2s-1.45,1.12-1.45,2v.29Zm-8.42-.44c0,1.12.52,2.32,1.6,2.32,1.73,0,1.62-4.06-.29-4.06-.92,0-1.31.83-1.31,1.74ZM146,45.58c1,0,1.74-1.12,1.74-2.18v-.29c0-.91-.67-2.18-1.45-2.18h-.44c-.87,0-1.6,1.11-1.6,1.89v.87A2,2,0,0,0,146,45.58ZM93.91,41.22v.15c0,1,.5,2.32,1.45,2.32A1.65,1.65,0,0,0,96.82,42c0-1-.58-2.32-1.6-2.32h-.15c-.6,0-1.16,1-1.16,1.6Zm83.75-5.66,3.69,5.14.11.11,12.49-2-7.58-5.18c-2.26,1.52-5,1.89-8.71,1.89Z"/></g></g></svg>