<svg xmlns="http://www.w3.org/2000/svg" viewBox="0 0 141.41 88.1"><defs><style>.cls-1,.cls-4{fill:none;}.cls-1,.cls-2,.cls-4{stroke:#231f20;}.cls-1,.cls-2{stroke-width:0.42px;}.cls-2{fill:#fff;}.cls-3{fill:#231f20;}.cls-4{stroke-width:0.21px;}</style></defs><title>G250</title><g id="Layer_2" data-name="Layer 2"><g id="Layer_1-2" data-name="Layer 1"><path class="cls-1" d="M56.79,53,45.74,56,39,54.1,29.39,40.68s-6,1.74-8.13,2.19a26.38,26.38,0,0,1-3.47.55l-.55.18L16.79,43l.46-.55L17.7,41l8.22-6.48s9-6.58,12-7.95,5.3-1.83,6.3-1.1A14.53,14.53,0,0,1,46.47,28l14.25,7.76s0,.18,1.83-.55,4.38-1.92,4.38-1.92l.73-.18,12.51-8.95L118.44,2.32a50.1,50.1,0,0,1,6.3-2.1,12.51,12.51,0,0,1,4.11.64c.55.27,1.74,1,1.74,1a33.15,33.15,0,0,1,4.11.64c1.28.37,2.28,1.19,2.37,1.74a7.48,7.48,0,0,1-1.37,3.93,38.42,38.42,0,0,1-5.11,4.93c-2,1.55-11.32,7.4-11.32,7.4s-7.76,7.31-9,8.49S77.34,50.27,72.59,51.73a38,38,0,0,1-11.23,1.74A22.91,22.91,0,0,1,56.79,53Z"/><path class="cls-2" d="M27.93,37.66l16-8.68,1.64,26.39A11.07,11.07,0,0,1,44,58c-.64.55-6.48,3.84-6.48,3.84Z"/><path class="cls-1" d="M24.37,35.93.53,27s4.84-2.28,5.75-2.56A7.77,7.77,0,0,1,9.48,24c.91.18,27.12,3.47,27.12,3.47s-4,2.56-5.94,3.74S24.37,35.93,24.37,35.93Z"/><path class="cls-1" d="M66.93,33.28a1.93,1.93,0,0,1,.91,1c.18.64.09,1-.27,1.19l-.91.46A15.6,15.6,0,0,1,64.92,38a92.06,92.06,0,0,1-9.59,7.31c-2.47,1.46-10,5.3-10,5.3"/><path class="cls-1" d="M70.95,30.91,35.69,17.48a40.5,40.5,0,0,1-3.56-2.65C31,13.83,28.21,11,28.21,11l1.46-.82s5.66,3.2,6.58,3.65a24.38,24.38,0,0,0,4.57.82l44,7S77.61,25.88,76,27.16,70.95,30.91,70.95,30.91Z"/><path class="cls-2" d="M87.48,44.15s3.56-3,4.93-4.11,13-9,14.34-9.68,1.92-1.46,2.65-1.46,1,.82,1,.82l.37.82,29.59,49.22s1,2.56.82,3.38-.27,1.46-.27,1.46l.09,1.74-1.37,1.28-2.56.27a8.19,8.19,0,0,1-2.19-.73,57.43,57.43,0,0,1-4.2-4.38L96.88,48.26a8.46,8.46,0,0,0-3.29-2.65A22.61,22.61,0,0,0,87.48,44.15Z"/><path class="cls-2" d="M52.59,31.27s7-4.75,9.59-6a33.73,33.73,0,0,1,4.75-1.92c.46-.18,2.65.91,3.29,1.92a10.54,10.54,0,0,1,1.55,3,11.21,11.21,0,0,1-.09,2.1,1.59,1.59,0,0,0-.91-.46c-.46,0-5.3,2.92-6.39,3.56s-3.65,2.28-3.65,2.28Z"/><path class="cls-2" d="M67.11,57.57l-3.38-5.12s4.11-4.29,5.94-5.94A88.32,88.32,0,0,1,80.08,39a33.16,33.16,0,0,1,6-2.92c.55-.09,1.92-.55,2.92.27A11,11,0,0,1,92,40.13a4.8,4.8,0,0,1-.37,4.11c-1,1.55-3.47,4.38-8.4,6.94A72.51,72.51,0,0,1,72,55.84C69.49,56.66,67.11,57.57,67.11,57.57Z"/><ellipse class="cls-3" cx="65.28" cy="55.02" rx="1.51" ry="3.11" transform="translate(-17.91 35.85) rotate(-27.15)"/><path class="cls-3" d="M130.58,8.8S130.31,7.71,130,7l-.27-.73A3.87,3.87,0,0,1,130.49,5l.46-.46,1.28,1.64s.27.27-.18,1.1A5.94,5.94,0,0,1,130.58,8.8Z"/><path class="cls-3" d="M131.31,4.06a1.38,1.38,0,0,0,0-1.1c-.27-.46-.73-1.1-.73-1.1a4.12,4.12,0,0,1,1.55.82A3.59,3.59,0,0,1,132.87,5a.87.87,0,0,1-.37.82Z"/><path class="cls-4" d="M101.08,29.72a10.57,10.57,0,0,0-.46-3.29c-.37-1.1-.55-1.74-.55-1.74a1,1,0,0,1,.27-1,5.73,5.73,0,0,1,1.83-1.19c.55-.18.73.27,1,.82a14.23,14.23,0,0,1,1,3.65c0,.82-.18,1.1-.18,1.55s-.18.73-.73,1.1-1.37.91-1.74,1.19-.82.37-.64-.18A3.2,3.2,0,0,0,101.08,29.72Z"/><path class="cls-3" d="M93.5,32.61c0-1.64.54-1.84.92-2s1.07.27,1.07,1.19-.23,1.76-1,2S93.5,32.61,93.5,32.61Z"/><path class="cls-3" d="M97.48,30.13c0-1.64.54-1.84.92-2s1.07.27,1.07,1.19-.23,1.76-1,2S97.48,30.13,97.48,30.13Z"/><path class="cls-3" d="M101.42,27.6c0-1.64.54-1.84.92-2s1.07.27,1.07,1.19-.23,1.76-1,2S101.42,27.6,101.42,27.6Z"/><path class="cls-3" d="M105.29,25.23c0-1.64.54-1.84.92-2s1.07.27,1.07,1.19-.23,1.76-1,2S105.29,25.23,105.29,25.23Z"/><path class="cls-3" d="M109,22.86c0-1.64.54-1.84.92-2S111,21.1,111,22s-.23,1.76-1,2S109,22.86,109,22.86Z"/><path class="cls-3" d="M112.59,20.68c0-1.64.54-1.84.92-2s1.07.27,1.07,1.19-.23,1.76-1,2S112.59,20.68,112.59,20.68Z"/><path class="cls-3" d="M116.11,18.38c0-1.64.54-1.84.92-2s1.07.27,1.07,1.19-.23,1.76-1,2S116.11,18.38,116.11,18.38Z"/><path class="cls-3" d="M119.52,16.24c0-1.64.54-1.84.92-2s1.07.27,1.07,1.19-.23,1.76-1,2S119.52,16.24,119.52,16.24Z"/><path class="cls-3" d="M122.85,14.14c0-1.64.54-1.84.92-2s1.07.27,1.07,1.19-.23,1.76-1,2S122.85,14.14,122.85,14.14Z"/><path class="cls-3" d="M126,12.19c0-1.64.54-1.84.92-2s1.07.27,1.07,1.19-.23,1.76-1,2S126,12.19,126,12.19Z"/></g></g></svg>