<svg xmlns="http://www.w3.org/2000/svg" viewBox="0 0 142.23 91.61"><defs><style>.cls-1{fill:none;stroke:#231f20;stroke-width:1.26px;}.cls-2{fill:#231f20;}</style></defs><title>G300</title><g id="Layer_2" data-name="Layer 2"><g id="Layer_1-2" data-name="Layer 1"><path class="cls-1" d="M88,56.89s-5.55-1.57-7.54-2.09-6.29-1.57-7.55-2a18.85,18.85,0,0,1-5.66-3.88,19.46,19.46,0,0,1-2.83-6.18c-.42-1.68-.21-2.73.21-3.14a7.6,7.6,0,0,1,2.72-2c1.26-.42,4.51-1.68,5.77-1.57s24.31.42,24.31.42,4-.31,5.55.52a65,65,0,0,1,6,4.51s4.4,5.35,5,7.44a24.15,24.15,0,0,1,.73,6.5c-.1.73-3.56,4.09-6.81,4.72s-7.44.11-11.11-.84S88,56.89,88,56.89Z"/><path class="cls-1" d="M85.94,58.26,9.54,91a2,2,0,0,1-1-.11c-.52-.21-.73-1.26-.73-1.26l-7-10.37.42-.73,7.34,9.43,64.77-30,1.57-1.26-1.15-3.35,8.07,2.1L87.2,57Z"/><path class="cls-1" d="M103,37l33.64-26.83L131.84,1l1-.31,6.92,8.49s1.68-.21,1.78.42-1.15,2.2-1.15,2.2L108.58,41.07a30.64,30.64,0,0,0-3.67-2.83A10.16,10.16,0,0,1,103,37Z"/><path class="cls-1" d="M64.67,39.6,54.29,23.78s-.42.1-1.26-.63a3.19,3.19,0,0,1-.7-1,5.77,5.77,0,0,1-.45-1.24A4.07,4.07,0,0,1,53,20a1.81,1.81,0,0,1,1.89.63,14.16,14.16,0,0,0,1.26,1.89l8.38,11.42A23.68,23.68,0,0,0,67,35.52a17.8,17.8,0,0,0,3.46,1.15,25.49,25.49,0,0,0-3.77,1.26A10,10,0,0,0,64.67,39.6Z"/><path class="cls-1" d="M52.93,22s1.68.11,1.36.73-2.41,1.36-2.41,1.36L28.09,36.36Z"/><polygon class="cls-1" points="55.45 20.63 75.46 8.58 56.07 21.79 55.45 20.63"/><path class="cls-1" d="M65.3,44.42l2-.31a2.5,2.5,0,0,1,1.36,1.57c.31,1.15-.21,1.26-.73,1.47a6.81,6.81,0,0,1-1.36.32Z"/><path class="cls-1" d="M66.45,50a5.49,5.49,0,0,1-4,3.56C60,54.06,58.8,54,57.54,53a9.72,9.72,0,0,1-2.83-3.77c-.52-1.26.1-4.09,1.68-5.45a7.34,7.34,0,0,1,4.51-1.89,4.84,4.84,0,0,1,2.62.73,4.23,4.23,0,0,1,1.26,1.26,12.48,12.48,0,0,1,1.47,2.83A13.72,13.72,0,0,1,66.45,50Z"/><path class="cls-1" d="M76.3,35.94s-.32-2.1.11-2.83a5.92,5.92,0,0,1,1.47-1.47,15.86,15.86,0,0,1,6-4.19c3.25-1,6-.21,6.81.84s2.09,3.25,1.78,5a5.87,5.87,0,0,1-1.78,3l-8.07-.11Z"/><ellipse class="cls-2" cx="61.73" cy="47.41" rx="3.88" ry="4.24"/><ellipse class="cls-2" cx="88.35" cy="31.58" rx="3.88" ry="4.25"/><polygon class="cls-2" points="90.97 49.66 90.55 45.05 91.6 44.53 94.01 48.41 94.01 49.14 91.39 49.56 90.97 49.66"/><path class="cls-2" d="M95.27,48.2l-2.1-3.67s3-1.36,4.09-1.89a14.66,14.66,0,0,0,1.78-1l3.35,3.67a39.32,39.32,0,0,1-3.67,2A22.76,22.76,0,0,1,95.27,48.2Z"/><polygon class="cls-2" points="100.41 40.96 104.18 38.24 108.06 41.28 103.97 44.32 100.41 40.96"/><path class="cls-2" d="M83.34,51a2.78,2.78,0,0,1-.41-1.72c0-.21.31-.71.55-.26s.54,1,.92,1.69a11.73,11.73,0,0,0,.75,1.18c.13.16-.2.78-.58.49a13.22,13.22,0,0,1-1.23-1.3"/><path class="cls-2" d="M80.86,50.31a2.78,2.78,0,0,1-.41-1.73c0-.21.31-.71.55-.27s.54,1,.92,1.69a11.47,11.47,0,0,0,.76,1.18c.13.16-.2.78-.58.49a13.46,13.46,0,0,1-1.23-1.3"/><path class="cls-2" d="M78.72,50a2.77,2.77,0,0,1-.41-1.73c0-.21.31-.71.55-.26s.54,1,.92,1.69a11.8,11.8,0,0,0,.75,1.18c.13.16-.2.78-.58.49A13.38,13.38,0,0,1,78.73,50"/><path class="cls-2" d="M76.68,49.52a2.76,2.76,0,0,1-.41-1.72c0-.21.31-.71.55-.27s.54,1,.92,1.69a11.86,11.86,0,0,0,.75,1.18c.13.16-.2.78-.58.49a13.17,13.17,0,0,1-1.23-1.31"/><path class="cls-2" d="M74.43,48.85A2.77,2.77,0,0,1,74,47.12c0-.21.31-.71.55-.26s.54,1,.92,1.69a11.48,11.48,0,0,0,.76,1.18c.13.16-.2.78-.58.49a13.31,13.31,0,0,1-1.23-1.3"/><path class="cls-2" d="M72.62,48.51a2.77,2.77,0,0,1-.41-1.73c0-.21.31-.71.55-.26s.54,1,.92,1.69a11.57,11.57,0,0,0,.75,1.17c.13.16-.2.79-.58.49a13.26,13.26,0,0,1-1.22-1.3"/></g></g></svg>