<svg xmlns="http://www.w3.org/2000/svg" viewBox="0 0 139.36 89.4"><defs><style>.cls-1,.cls-4{fill:none;}.cls-1,.cls-2,.cls-4{stroke:#231f20;}.cls-1,.cls-2{stroke-width:0.84px;}.cls-2{fill:#fff;}.cls-3{fill:#231f20;}.cls-4{stroke-width:0.42px;}</style></defs><title>G350</title><g id="Layer_2" data-name="Layer 2"><g id="Layer_1-2" data-name="Layer 1"><path class="cls-1" d="M38.49,78.19l-27.64,10a55.86,55.86,0,0,1-7,.76c-2.56,0-3.22-.09-3.41-.76S1.76,85.85,2,85.29,7.35,78.09,8.48,77s6.06-3.31,7.19-3.69,20-7.29,20-7.29S84.78,46.57,87.24,45.34s6.34-2.84,7.1-4.07,9.28-17.8,9.75-18.74,12.78-5.77,15.43-6.34,6.06-1.42,6.06-1.42l-.28.85s-3.88,2.46-4.92,2.94-1.89.76-1.89.76l-3.79,21.77s1.61-.09,1.33.66-10.6,8-10.6,8L91.6,58.4s-14.48,7.57-15.81,8S57.14,73.93,52,74.87,38.49,78.19,38.49,78.19Z"/><path class="cls-2" d="M38.59,77S28.36,42.31,28.46,41.17a5,5,0,0,1,2.08-3c.57-.19,1.42-.57,1.42-.57l6.53-14.48,2-.47L38.39,34.93,63.67,65.69l2.93.47a7.31,7.31,0,0,0,3.22.66h4.35s-1.8,2-1.23,3,1.7,1.23,3.31,1.61,33.61,5.87,33.61,5.87a59.21,59.21,0,0,1-7,3,23.88,23.88,0,0,1-5.59.19l-58-2.37Z"/><polygon class="cls-1" points="107.22 76.39 111.1 70.05 112.61 69.76 109.96 76.96 107.22 76.39"/><path class="cls-1" d="M114.69,41.08s-13.25,2.56-19.59,3.6l-9.18,1.51"/><path class="cls-2" d="M104.66,23.47,109,3.88a45.48,45.48,0,0,1,4.54-2.65l1.8-.66,3.69,17.13s-5.3,2.56-8,3.79A34.51,34.51,0,0,1,104.66,23.47Z"/><path class="cls-1" d="M120.75,18.64,138.36,26a36.16,36.16,0,0,1-4.92,2.08c-1.33.28-4.45-.47-7.48-.76s-8.52-1.14-8.52-1.14l1.14-6.63,1.8-1"/><path class="cls-3" d="M7.06,79a14.78,14.78,0,0,0,1.61-.85c.57-.38.76-1.7.76-1.7s-.38-.19-.95.47A20.61,20.61,0,0,0,7.06,79Z"/><path class="cls-3" d="M20.88,73.78c.11-1.09,1.3-1.41,1.85-1.63a.87.87,0,0,1,1.09.87,2.09,2.09,0,0,1-1.52,1.74C21.1,75.08,20.88,73.78,20.88,73.78Z"/><path class="cls-3" d="M26.37,71.79c.11-1.09,1.3-1.41,1.85-1.63a.87.87,0,0,1,1.09.87,2.09,2.09,0,0,1-1.52,1.74C26.59,73.09,26.37,71.79,26.37,71.79Z"/><path class="cls-3" d="M32,69.71c.11-1.09,1.3-1.41,1.85-1.63a.87.87,0,0,1,1.09.87,2.09,2.09,0,0,1-1.52,1.74C32.18,71,32,69.71,32,69.71Z"/><path class="cls-4" d="M14,74.12,18,72.79a18.1,18.1,0,0,0-.19,3.88,13.74,13.74,0,0,0,.47,2.56c.28,1,.95,1.42.38,1.7s-2.18.66-2.75.95-1.8-.95-2-2.56A45.31,45.31,0,0,1,14,74.12Z"/><path class="cls-2" d="M55.62,51.4s.85-1.8,5.11-3.22S83.46,42.5,83.46,42.5l2.18,5.3s-7,4.92-12.4,7.1S62,58.59,61,58.59A14.23,14.23,0,0,1,58.18,58a8.9,8.9,0,0,1-2.46-3.41A7,7,0,0,1,55.62,51.4Z"/><ellipse class="cls-3" cx="84.54" cy="44.91" rx="1.29" ry="3.15" transform="translate(-9.52 27.09) rotate(-17.25)"/><path class="cls-3" d="M113.65,20.44s-.85,7.1-3.88,12.31-6.91,10.6-6.91,10.6-3.5,1.32-4.26,2.18a64.7,64.7,0,0,1-13.25,7.86c-4.83,1.89-23.85,9.18-23.85,9.18l.95.95S91.79,52.15,94.81,50s4-3.41,5.4-4.26,2.65-2.18,3.88-2.37,1.42-.95,1.42-.95,7.19-8.71,8.9-13a71.85,71.85,0,0,0,2.93-10.7Z"/><path class="cls-3" d="M36.69,71.85S9,82.35,7.91,82.64s-6.34,3.69-6.34,3.69l-.47.95S6.59,84.44,8,84,37.07,72.89,37.07,72.89Z"/></g></g></svg>