<svg xmlns="http://www.w3.org/2000/svg" viewBox="0 0 138.84 68.34"><defs><style>.cls-1{fill:none;}.cls-1,.cls-2{stroke:#231f20;stroke-width:0.5px;}.cls-2{fill:#fff;}.cls-3{fill:#231f20;}</style></defs><title>G450</title><g id="Layer_2" data-name="Layer 2"><g id="Layer_1-2" data-name="Layer 1"><path class="cls-1" d="M52,36.09l-6.25-2.74L17.38,30.07a63.67,63.67,0,0,1-7.66-1.64c-1.8-.7-3.83-1.64-3.83-1.64s-3-1.56-3.52-2-1.64-1.09-2-1.41-.23-.86.55-1.56,4.84-2.66,6.33-3.59a28.7,28.7,0,0,1,4.06-2l1.09-.47,5-2.11a18.87,18.87,0,0,1,4.46-.94c1.33.08,15.47,2.73,15.47,2.73l18.37,3.52,1.8.16s17.35,3.59,22.12,4.06a58.62,58.62,0,0,0,8.44.39,6.49,6.49,0,0,0,1.64-.47c.47-.23,1.17-.63,1.17-.63L101,12.65a3.72,3.72,0,0,1,1.88-.55,6.45,6.45,0,0,1,3.13,1c.7.62,1,.86,1.48,1.25s1.72,1.25,1.72,1.25,0,.62-.55.7a19.64,19.64,0,0,1-2.58-.16L95.61,30.46a2,2,0,0,1,.47,1c0,.47-.08.47-.55.7s-12.89,4-15.16,4.37a49.7,49.7,0,0,1-5.78.47,4.43,4.43,0,0,0-1.41.71A7.13,7.13,0,0,0,72.32,39,91.05,91.05,0,0,0,61,35.47c-4.61-.94-6.49-.86-7.35-.55s-1.33.16-1.49.55A1.9,1.9,0,0,0,52,36.09Z"/><path class="cls-1" d="M38.64.3l1,.47-4.22,7,.7.63,8.44,8.36-11-2L29.18,7.41a1.63,1.63,0,0,1,.94-.7,13.85,13.85,0,0,1,1.8-.23Z"/><path class="cls-1" d="M52,36.09s.62-1.8,3.67-1.49a70,70,0,0,1,10.47,2.27c2.27.71,6.17,2.11,6.17,2.11l1.48,1.48,55.72,26.1s-3.12,1.8-4.37,1.48-56-23.91-56-23.91Z"/><path class="cls-2" d="M138.05,59.07s-8,8-10.16,8.52,1.17-1.49,1.17-1.49l8-6.8Z"/><path class="cls-1" d="M100.14,13.5,90.22,6.63s.08-.47.7-.31a5,5,0,0,1,.94.31l9.69,5.63a1.32,1.32,0,0,0-.86.47A8.18,8.18,0,0,1,100.14,13.5Z"/><path class="cls-2" d="M101.71,14.68s-.55-.39.23-.47a15.06,15.06,0,0,1,3.44.55c.55.16,3.28,1.56,3.28,1.56L130,26.79s-2.5-.63-3.28-.86S101.71,14.68,101.71,14.68Z"/><path class="cls-1" d="M58.72,19.44a11.55,11.55,0,0,1,.94-2.34A3.55,3.55,0,0,1,62,15.77a9.48,9.48,0,0,1,3.75.31,52.37,52.37,0,0,1,6.88,2.5c1.64.78,5.78,3.13,5.78,3.13s.62.39.7.78l.16.78S71.93,22,68.57,21.4,58.72,19.44,58.72,19.44Z"/><path class="cls-1" d="M95.61,30.46s-12.19-4.85-17.19-6.1-21.49-4.53-21.49-4.53l-4.77-1.41"/><path class="cls-1" d="M76.54,30a2.1,2.1,0,0,1-.94-.31c-.24-.23-.16-.62.39-.62h.55Z"/><path class="cls-2" d="M80.14,35.7a7.27,7.27,0,0,1-2.42-1.56,5.48,5.48,0,0,1-1.25-2.42A8.79,8.79,0,0,1,77,28.59a3.26,3.26,0,0,1,2-1.72,8.93,8.93,0,0,1,3.59-.39,42.06,42.06,0,0,1,5.55,1.88C89.67,29,94.59,31,94.59,31a3.83,3.83,0,0,1,.86,2.66,2,2,0,0,1-1.09,1.64s-3.59,1.09-4.69,1.33a13.15,13.15,0,0,1-5.39.23A11.36,11.36,0,0,1,80.14,35.7Z"/><path class="cls-1" d="M65.13,20.7a2.73,2.73,0,0,0,.31-1.56,4,4,0,0,0-.86-2.27,2.73,2.73,0,0,0-1.48-1.09"/><path class="cls-1" d="M77.95,34.45a6.13,6.13,0,0,0,2.11.55,3.44,3.44,0,0,0,2.35-1,4.48,4.48,0,0,0,1.25-2.11,7.54,7.54,0,0,0,0-2.66,3.62,3.62,0,0,0-1.17-1.8,3.46,3.46,0,0,0-1.72-.78,9,9,0,0,0-1-.08"/><path class="cls-1" d="M30,30.23a9.06,9.06,0,0,0,2.5-2.81,12,12,0,0,0,1.48-4.14,13.16,13.16,0,0,0,0-2.58c0-.39.39-.94.86-.86s2,.39,2.42.47a1.55,1.55,0,0,1,1.09,1.41A10.45,10.45,0,0,1,38,25a11.33,11.33,0,0,1-1.17,3.13,16.65,16.65,0,0,1-1.72,2.11c-.55.7-1.41.7-1.72.86a1.78,1.78,0,0,1-.94,0s-2.27-.31-2.74-.31S30,30.23,30,30.23Z"/><path class="cls-3" d="M59.51,19.52a4.32,4.32,0,0,1,.78-2.11,2.23,2.23,0,0,1,2.27-.7A1.76,1.76,0,0,1,64,18a2.83,2.83,0,0,1,.31,1.48,6.77,6.77,0,0,0-.08.86Z"/><path class="cls-3" d="M77.56,30.23A5.73,5.73,0,0,1,78.5,28a1.61,1.61,0,0,1,1.25-.7c.31,0,1.41-.08,1.88.47a3,3,0,0,1,1,1.8A6,6,0,0,1,82.41,32a4.14,4.14,0,0,1-1.56,1.72,1.53,1.53,0,0,1-2,0,2.47,2.47,0,0,1-1.25-1.8A11.91,11.91,0,0,1,77.56,30.23Z"/><path class="cls-3" d="M12.77,15.77a9.49,9.49,0,0,0,.63,1.17,1.08,1.08,0,0,0,.55.39l4.3-2.19a1.4,1.4,0,0,1-.55-.47,1.36,1.36,0,0,1-.23-.94Z"/><path class="cls-3" d="M14.88,17.73,19,15.61a22.73,22.73,0,0,0,2.27,1.48,24.37,24.37,0,0,0,2.5.94l-3.2,2.34s-1.72-.62-3.28-1.33A14.89,14.89,0,0,1,14.88,17.73Z"/><path class="cls-3" d="M22.7,21.16s-.63,0-.63-.31.63-.7.63-.7l2.5-2,1.64.39L26.6,22.1Z"/><path class="cls-3" d="M41.3,26.4a2,2,0,0,1,1.9-1.25c.66.08,1.16.86.83,1.87s-1.16,1.17-2.15,1S41.3,26.4,41.3,26.4Z"/><path class="cls-3" d="M46.93,27.1a2,2,0,0,1,1.9-1.25c.66.08,1.16.86.83,1.87s-1.16,1.17-2.15,1S46.93,27.1,46.93,27.1Z"/><path class="cls-3" d="M52,28a2,2,0,0,1,1.9-1.25c.66.08,1.16.86.83,1.88s-1.16,1.17-2.15,1S52,28,52,28Z"/><path class="cls-3" d="M56.93,28.67a2,2,0,0,1,1.9-1.25c.66.08,1.16.86.82,1.88s-1.16,1.17-2.15,1S56.93,28.67,56.93,28.67Z"/><path class="cls-3" d="M61.62,29.29A2,2,0,0,1,63.52,28c.66.08,1.15.86.83,1.88s-1.16,1.17-2.15,1S61.62,29.29,61.62,29.29Z"/><path class="cls-3" d="M66.07,29.84A2,2,0,0,1,68,28.59c.66.08,1.16.86.83,1.88s-1.16,1.17-2.15,1S66.07,29.84,66.07,29.84Z"/><polygon class="cls-3" points="30.12 6.71 35.04 15.22 33.56 14.83 29.18 7.41 30.12 6.71"/><path class="cls-3" d="M55.68,34.6l2.11,2,1.8.94,11.8,6.25L124.3,66.88v.39L69.12,44.14,52,36.09a3.12,3.12,0,0,1,1.64-1.17A5.51,5.51,0,0,1,55.68,34.6Z"/></g></g></svg>