<svg xmlns="http://www.w3.org/2000/svg" viewBox="0 0 142.25 83.96"><defs><style>.cls-1{fill:none;}.cls-1,.cls-2{stroke:#231f20;stroke-width:0.44px;}.cls-2{fill:#fff;}.cls-3{fill:#231f20;}</style></defs><title>G500</title><g id="Layer_2" data-name="Layer 2"><g id="Layer_1-2" data-name="Layer 1"><path class="cls-1" d="M45.11,46s-5.18-2.21-6.28-2.89a40.79,40.79,0,0,1-3.31-2.55l-22.66-5s-6.28-2.38-7.47-3-2.21-1-2.21-1l-.76-.51L1.75,29.8a5.08,5.08,0,0,1-.93-1.1,3.64,3.64,0,0,1-.59-1.78c0-.42,1.78-1.7,2.63-2.38s3.31-2.46,4.16-3,2.55-1.36,2.55-1.36l4.5-2a12.51,12.51,0,0,1,4.16-.51,56.33,56.33,0,0,1,7.21,1.87C27,20.21,42,25.39,42,25.39l2.8.42L65,32.68a36.62,36.62,0,0,0,5.26.76c2.21.09,2.89.17,3.48-.17a14.16,14.16,0,0,0,1.36-.93l6.88-7.13,1.7-2.55s1.1-.93,2-.76a9.39,9.39,0,0,1,3.05,1.53,23.27,23.27,0,0,1,2.29,2.46l-.42.68s-1.36.08-2,.08H88L79.4,38.45S74.56,45,73,45.5a61.31,61.31,0,0,1-7.21,1c-2.46.34-4.24.42-4.24.42l-.85,1.78s-4.75-2.38-6.54-3.31-4.84-2.2-6.37-2-2.12.59-2.38,1.1A4.47,4.47,0,0,0,45.11,46Z"/><path class="cls-1" d="M8.62.26l.85.42L5.23,8.07a1.62,1.62,0,0,0,.34,1.61c.68.76,10.1,8.32,10.1,8.32s-1.61.42-2.21.51a7,7,0,0,0-1.78.85L.73,8.58a1.86,1.86,0,0,1,.42-1.27C1.66,6.63,8.62.26,8.62.26Z"/><path class="cls-1" d="M127.86,82.41l-55-23.68L55.81,51,45.11,46s.09-2.46,2.29-2.55a12,12,0,0,1,5.35,1.44c.85.42,7.89,3.82,7.89,3.82L130.58,82a7.37,7.37,0,0,0,2.12.93l1.53.17a5.26,5.26,0,0,1-2.72.59C130.49,83.43,127.86,82.41,127.86,82.41Z"/><path class="cls-2" d="M141.69,75.54s-7,7.55-7.72,7.89a1.66,1.66,0,0,1-1.19.17l8.06-8Z"/><path class="cls-1" d="M82.8,23.6,68.28,15.12s-.25-.85.59-.34,14.77,7.89,14.77,7.89Z"/><path class="cls-2" d="M86.87,26.32a15.69,15.69,0,0,1-2.12-1.53c-.25-.25.42-.93,1.36-.51S89.5,26,89.5,26l25.21,13.15a22.45,22.45,0,0,1-3.56-1.1C109.87,37.44,86.87,26.32,86.87,26.32Z"/><polygon class="cls-1" points="37.22 23.77 39.77 21.48 40.19 21.57 38.33 24.03 37.22 23.77"/><path class="cls-1" d="M49,27.25a5.46,5.46,0,0,1,1.61-1.61,7.66,7.66,0,0,1,3.22-.25,21.4,21.4,0,0,1,5.26,1.78,22.44,22.44,0,0,1,4.16,2.89,12.32,12.32,0,0,1,1.53,1.78,3.92,3.92,0,0,1,.51.85L55,29.29Z"/><path class="cls-1" d="M42.31,25.55s12.81,4.24,16.12,5.52,11.46,4.07,12.64,4.58,5.6,2.12,5.6,2.12"/><path class="cls-2" d="M73.12,47.37a9,9,0,0,1-2.29-1.78,7.72,7.72,0,0,1-1.1-2.38,10,10,0,0,1,.42-2.63,5.65,5.65,0,0,1,2.29-2.63c.85-.42,2.55-.17,3.56-.09A18.68,18.68,0,0,1,80.59,39a10.35,10.35,0,0,1,3.31,2.88,7.4,7.4,0,0,1,1,2.29,8,8,0,0,1-.59,1.53,5.74,5.74,0,0,1-2.63,1.78,8.83,8.83,0,0,1-4.24.76A13.9,13.9,0,0,1,73.12,47.37Z"/><path class="cls-1" d="M68.28,41s-.76-.25-.68-.76.51-.51,1-.34a7.12,7.12,0,0,0,1.61.17l-.34,1.1Z"/><path class="cls-1" d="M24.83,36.16a18.36,18.36,0,0,0,2.8-2.38,9.63,9.63,0,0,0,1.87-3.56,14.09,14.09,0,0,0,.34-3.39c-.09-.42.34-1.19.68-1.19a13,13,0,0,1,1.7.51c.34.09.85,1.19.76,1.78A16,16,0,0,1,32.47,32a15.08,15.08,0,0,1-2.8,3.9,4.93,4.93,0,0,1-2.21,1.27,1.7,1.7,0,0,1-.85.09c-.42-.09-1.61-.34-2.12-.42S24.83,36.16,24.83,36.16Z"/><path class="cls-1" d="M51.9,25.39a3.92,3.92,0,0,1,1.44,0,5.62,5.62,0,0,1,1.61.76,4.74,4.74,0,0,1,.93,1.44,3.17,3.17,0,0,1,.42,1.27,3.5,3.5,0,0,1-.08.76"/><path class="cls-1" d="M75.33,37.78a7.51,7.51,0,0,1,1.78.85,5.08,5.08,0,0,1,1.27,2.12,5.19,5.19,0,0,1,0,2.29,5.12,5.12,0,0,1-1.44,2.38,5,5,0,0,1-2.46,1.19,4.12,4.12,0,0,1-1.78,0,4.49,4.49,0,0,1-1.44-.68l-.34-.25"/><path class="cls-3" d="M50,27.51a2.39,2.39,0,0,1,1.1-1.1,2.53,2.53,0,0,1,1.87-.25,3.12,3.12,0,0,1,1.61,1A2.42,2.42,0,0,1,55,28.36a6.83,6.83,0,0,1-.08.93Z"/><path class="cls-3" d="M72.61,45.24a3.88,3.88,0,0,1-1.7-2,4.53,4.53,0,0,1,0-2.38,4.93,4.93,0,0,1,1.1-1.7,3.23,3.23,0,0,1,2-.76,2.92,2.92,0,0,1,2,.59A3.54,3.54,0,0,1,77,40.58a4.39,4.39,0,0,1,.17,1.87,3.69,3.69,0,0,1-.76,1.78,3.13,3.13,0,0,1-1.7,1.1A5.23,5.23,0,0,1,72.61,45.24Z"/><path class="cls-3" d="M9.56,20.21s1,.76,1.44,1.19a3.72,3.72,0,0,0,1,.68l3.82-2s-.76-.51-1.19-.76-1.19-.85-1.19-.85Z"/><path class="cls-3" d="M13.21,22.5l3.48-1.87s2,1.1,2.72,1.44l2.55,1.1-2.72,2.21A35,35,0,0,1,15.84,24,16.69,16.69,0,0,1,13.21,22.5Z"/><path class="cls-3" d="M20.93,26.4s-.76-.42-.34-.76S23,23.35,23,23.35l1.53.68-.42,3.56Z"/><polygon class="cls-3" points="12.36 18.77 11.59 19.11 0.65 8.24 1.49 6.88 6.84 2.05 1.75 8.58 12.36 18.77"/><path class="cls-3" d="M45.11,46s-.08-1.44.25-1.53a22.71,22.71,0,0,0,2-1S70.24,56.19,74.56,58.14s56,24.61,56,24.61l-.59.42L73.29,59Z"/><path class="cls-3" d="M34.85,32.68a2.88,2.88,0,0,1,.93-1.19c.25-.08.93-.17,1.1.25a2.56,2.56,0,0,1,0,1.78,2.21,2.21,0,0,1-1.19,1,.75.75,0,0,1-1-.42A5,5,0,0,1,34.85,32.68Z"/><path class="cls-3" d="M38.92,33.79a2.88,2.88,0,0,1,.93-1.19c.25-.09.93-.17,1.1.25a2.56,2.56,0,0,1,0,1.78,2.21,2.21,0,0,1-1.19,1,.75.75,0,0,1-1-.42A5.05,5.05,0,0,1,38.92,33.79Z"/><path class="cls-3" d="M42.91,34.81a2.88,2.88,0,0,1,.93-1.19c.25-.08.93-.17,1.1.25a2.56,2.56,0,0,1,0,1.78,2.21,2.21,0,0,1-1.19,1,.75.75,0,0,1-1-.42A5.08,5.08,0,0,1,42.91,34.81Z"/><path class="cls-3" d="M46.47,35.74a2.88,2.88,0,0,1,.93-1.19c.25-.08.93-.17,1.1.25a2.56,2.56,0,0,1,0,1.78,2.21,2.21,0,0,1-1.19,1,.75.75,0,0,1-1-.42A5.08,5.08,0,0,1,46.47,35.74Z"/><path class="cls-3" d="M49.87,36.76a2.87,2.87,0,0,1,.93-1.19c.25-.09.93-.17,1.1.25a2.56,2.56,0,0,1,0,1.78,2.21,2.21,0,0,1-1.19,1,.75.75,0,0,1-1-.42A5,5,0,0,1,49.87,36.76Z"/><path class="cls-3" d="M53.18,37.61a2.88,2.88,0,0,1,.93-1.19c.25-.09.93-.17,1.1.25a2.57,2.57,0,0,1,0,1.78,2.21,2.21,0,0,1-1.19,1A.75.75,0,0,1,53,39,5.05,5.05,0,0,1,53.18,37.61Z"/><path class="cls-3" d="M56.4,38.45a2.87,2.87,0,0,1,.93-1.19c.25-.08.93-.17,1.1.25a2.57,2.57,0,0,1,0,1.78,2.22,2.22,0,0,1-1.19,1,.75.75,0,0,1-1-.43A5.08,5.08,0,0,1,56.4,38.45Z"/><path class="cls-3" d="M4.29,31.92s.08-.42-.51-.93a12.41,12.41,0,0,0-2-1.19"/><path class="cls-1" d="M.9,26.32S7.35,28.95,9,29.63s14.77,4.75,19.35,5.77,33.61,8.49,33.61,8.49A37.89,37.89,0,0,0,67.1,45c1.53.09,3.48.09,3.48.09"/><path class="cls-1" d="M.48,27.93s5.94,2.29,7.55,3,14.77,4.75,19.35,5.77S61,45.16,61,45.16a37.88,37.88,0,0,0,5.18,1.1A22.6,22.6,0,0,0,69.9,46"/></g></g></svg>