<svg xmlns="http://www.w3.org/2000/svg" viewBox="0 0 122.95 27.31"><defs><style>.cls-1{fill:#231f20;fill-rule:evenodd;}</style></defs><title>GII</title><g id="Layer_2" data-name="Layer 2"><g id="Layer_1-2" data-name="Layer 1"><path class="cls-1" d="M122.95,2.58l0,.16c-1.27.34-2.83-.19-4.21,0a2.05,2.05,0,0,0-1.07,0c-3.35,5.14-5.64,10.92-8.54,16.44a1.65,1.65,0,0,1,.54,1.66,4.91,4.91,0,0,1-3,1.46c-5.53.9-11.07,2.23-16.58,2.81a191.9,191.9,0,0,1-25.24,2.2c-1.76-.07-3.41.06-5.14-.07a114.13,114.13,0,0,1-14.27-.95l-3.45-.44a20.4,20.4,0,0,1-3.15-1,9.86,9.86,0,0,0-1.91-.55c-4.57,0-9.07-.35-13.57-.49-2.53-.21-5.12-.23-7.7-.33C12.3,23.41,1.84,22.7,0,19.27c1.32-1.69,7.28-3.65,9.16-4.47a14.48,14.48,0,0,0,4-2.69,11.24,11.24,0,0,1,5.31-1.3c5.33.17,10.59.54,15.87.76,1.92,0,3.8.19,5.69.22,9.84.5,19.62.93,29.44,1.48,3.34-.35,6.68-.2,10-.41,1.39,0,2.8-.09,4.15-.12,2.49-.27,5,.07,7.42-.29,1.59-.12,2.47-1.33,3.51-2.33,2.19-2.38,4.28-4.67,6.5-6.95.22-.24.41-.4.66-.62,1.17-1.33,2.44-2.71,4.27-2.54a51.85,51.85,0,0,1,8,.47,36.5,36.5,0,0,1,8.36,1.63s0,0,.09.1l.36.21h.12s.07.07.07.14Zm-6.64.12-.5.5c-1,0-2.07-.12-3.11,0-1.44,2-2.5,4.17-3.84,6.3-.35.9-1.27,1.38-2,2.14-2,1.87-3.89,3.65-5.85,5.37,0,0-.06,0-.12-.07-5.23-.1-10.84-1.59-16.15-2.13l6,.25a.19.19,0,0,0,.12-.16c0-.14-.14-.2-.27-.2-.88-.06-1.73-.06-2.58-.17L84,14.27c.09-.3.41-.44.4-.82a.18.18,0,0,1,0,0,38.84,38.84,0,0,1,6.23.35s.11-.07.15-.12l-.06-.17-.25-.1c-.09,0,.11,0,0-.06.26-.11.57-.06.87-.21C96.31,10.82,100,4.9,103.83,1.15c.09.07,0,.29.11.37,3.77,1.11,7.65.76,11.51,1.08a3.78,3.78,0,0,1,.85,0s0,0,0,0Zm-1.15,1.1A12.2,12.2,0,0,1,114,5c-1,.93-2,1.94-2.93,2.74a10,10,0,0,1-1.11.93c.35-.92,1-1.68,1.46-2.63,0,0,.06-.07.14-.12.31-.55.62-1.1,1-1.61.24-.26.35-.66.72-.7a13.23,13.23,0,0,1,1.89.15v0Zm-1.33,2.6c-3.05,3.75-6.19,7.47-9.44,11.23,0,0-.06.07-.12.09l-1.52-.29c1.37-1.78,3.38-3.41,5-5.11,1-.93,2-1.88,2.78-2.72.39-.39.68-.71,1.1-1.11.75-.61,1.59-1.66,2.24-2.1Zm-5,13.94a.51.51,0,0,1-.16.45c-6.94,2.8-14.53.6-21.71.86-2.53-.14-5-.17-7.53-.35,2.8-.14,5.63-.55,8.44-.45.14,0,.1-.27.21-.37s.12-.41.15-.61l.35-.21a.83.83,0,0,0,0-.92c-.11-.14-.21-.15-.26-.26s0,0,0-.06l.9.14c0,.1-.22.07-.36.14a.34.34,0,0,0-.1.14l.07.16c.27.15.6-.11.91-.12l1.11-.17s0-.06,0-.12c-.06-.22-.34-.16-.55-.24a13.46,13.46,0,0,0-1.94-.26c-.09-.15.11-.41-.09-.57-4.46-.72-9.19-2.23-13.77-2.9,0,0,0-.1-.12-.12l.29.12.16-.07c8.84.52,17.54,2.22,26.37,3.51a40.73,40.73,0,0,1,7.35,2c.06,0,.1,0,.12.09l.16.27ZM105.17.66l-.93.14,1-.16,0,0Zm-5.8,22.23c-12,.06-24-1-36-1.31-2.42-.14-4.78-.19-7.17-.32L12.82,19.44,1.27,18.93a.42.42,0,0,1,.4-.22c10.54.41,21.24.84,31.74,1.28L76.75,21.8l22.64,1.1Zm-4.4.83c-3.36.22-6.76-.22-10.13-.25-11.07-.51-22.11-.92-33.13-1.41L8.37,20.23l-6.9-.31-.22-.2s0,0,0-.06l37.21,1.52L81.76,23,95,23.7v0Zm-6.73-4.58-.07.2c-.06,0-.16.11-.25.09l0-.21c0-.06-.12,0-.19-.06a1,1,0,0,0,0-.21s-.06,0-.09-.12,0-.09,0-.1,0,0,.09,0l.45.3,0,.16Zm-.31,5.68c-3.75.76-7.62.7-11.31,1.12a74.23,74.23,0,0,1-11.42.71s0,0,0,0L67.95,26l.21-.12A99.3,99.3,0,0,0,80.49,25a.36.36,0,0,0,0-.41l0-.06,5.57.19,1.93.12v0Zm-2.65-5.33a1,1,0,0,1-.34,0l0-.16a.27.27,0,0,1,.32.09l0,0Zm-1.31-6,0,.2c-.12.17-.39.35-.35.62,0,.07-.14.11-.17.21a.27.27,0,0,1,0,.1c-2.9-.27-5.83-.62-8.76-.81a.24.24,0,0,0,.12,0L84,13.44v0Zm-.62,3.85-.41,3.1c-2,.44-4.11.2-6.07.55a43.27,43.27,0,0,1-5.41-.3c-2.32-.61-5-1-6.91-2.19,0-1.11.26-2.19.2-3.31a4.72,4.72,0,0,0,.12-.66c1.15-.4,2.43-.06,3.6-.12a71.94,71.94,0,0,1,14.82,2.78.09.09,0,0,1,0,0s.06.14,0,.11ZM80,24.45h0Zm-.8,0-1.16,0,1.16,0Zm-2.08.27H73.8c-.14,0,0-.14,0-.2a10.27,10.27,0,0,1,3.29.19Zm-1.53.41a65.89,65.89,0,0,1-8.87.46c-3.6,0-7.2.7-10.76.09a4.74,4.74,0,0,1-.9-.17c6.6-.17,13.4-.42,20.08-.4a1.32,1.32,0,0,1,.45,0ZM72.78,14.32l-.64-.11.64.06s0,0,0,0Zm-.85-.15h0Zm-.3,0A3.82,3.82,0,0,1,70.14,14l1.49.11Zm-1.83,6.76L26.55,19.18,22,19c-.14-1.12.16-2.29,0-3.44a5.62,5.62,0,0,0,0-1.88,1,1,0,0,0-.1-.2,7,7,0,0,0-3.46-.5,2,2,0,0,0-1.06.5c-.12,1-.19,2-.26,3,0,.77-.09,1.53-.14,2.28L2.62,18.11a33.37,33.37,0,0,1,6.94-2.7c.81.16,1.56.14,2.34.27,1.44,0,2.91.37,4.25-.11a.12.12,0,0,0,0-.07,9.21,9.21,0,0,0,0-2.86,5.65,5.65,0,0,0-2-.3s-.09,0-.07-.09c4.5-2.26,23,.66,34.32.62l16.78.86a2.37,2.37,0,0,0-1.12.42,9.29,9.29,0,0,0-.45,4.2c.65,1,1.82,1.22,2.94,1.64s2.27.57,3.23.9Zm-4.86,5.29a14.69,14.69,0,0,1-3.26.5,116.18,116.18,0,0,1-14.41-.82c5.64-.85,11.31,1.36,17,.3.26,0,.49,0,.71,0l0,0Zm-.25-1.64-23.45,0a49.31,49.31,0,0,1,7.19-.31c2.8.1,5.58,0,8.34.15,1.2,0,2.35,0,3.54,0l4.38.11Zm-9.49-.85h-1v-.07l1.06,0,0,0Zm-.29-5.43-.25.61s0,.09,0,.15a2.46,2.46,0,0,1-1.56.47,1.94,1.94,0,0,1-1.36-.9,1.34,1.34,0,0,1,.56-1.28,2.78,2.78,0,0,1,2,0,1.63,1.63,0,0,1,.62.9Zm-1.11,5.47H53l.71-.06a.1.1,0,0,1,.1,0Zm-2.09-.21c-1.3.41-2.65,0-3.94-.06L47,23.38l4.7.11v0Zm-2.86-5.58-.24.82a2.13,2.13,0,0,1-2.49,0,.74.74,0,0,1-.17-.19c-.1-.26-.31-.62-.15-.95.06-.15.24-.3.27-.41a2.17,2.17,0,0,1,2.22-.11c.29.25.55.46.56.85Zm-4.86,5c-1.38.45-3.25.34-4.2,1.52l0,.09a18.56,18.56,0,0,1-2.09-.68c-10.77-1.16-25.44.07-34.31-2.78l5.83.3L44,22.93Zm-.46,3.56a.13.13,0,0,1,0,.06s0,0-.07-.09.11,0,.1,0ZM43,17.64l-.36.76a1.84,1.84,0,0,1-1.61.42,7,7,0,0,1-.69-.32,1.28,1.28,0,0,1-.49-.88,1.11,1.11,0,0,1,.36-.67,2.08,2.08,0,0,1,2.24-.16,1.27,1.27,0,0,1,.54.86Zm-5.85-.32-.1.73c-.21.35-.63.42-1,.54a2.38,2.38,0,0,1-1.91-.81.73.73,0,0,1,0-.7,2,2,0,0,1,1.94-.8l.47.25.6.63,0,.15Zm-5.83-.12a1.2,1.2,0,0,1-.55,1,2.06,2.06,0,0,1-1.63.06,2.33,2.33,0,0,1-.81-1,1.15,1.15,0,0,1,.4-1,2.09,2.09,0,0,1,1.92,0,1.21,1.21,0,0,1,.67.85.23.23,0,0,1,0,.1Zm-9.6-3-.1,4.73L17.4,18.8c.2-1.72.14-3.46.42-5.14.17-.12.45-.11.65-.25.92-.06,1.73.11,2.64.07.07,0,.06.14.15.19l.32.14c.11.1.07.26.14.41ZM15.9,13a12.82,12.82,0,0,0,0,1.38c-.11.31.14.59-.1.82-.24,0-.57.29-.86.07-.07,0-.12,0-.16,0,.26,0,.61,0,.78-.26a8.81,8.81,0,0,0,.2-1,1.28,1.28,0,0,1,.09-.36c0-.17-.19-.26-.24-.42a1.27,1.27,0,0,0-.93-.26A7.42,7.42,0,0,0,12,14.8c0,.09,0,.16,0,.24.11.19.41.16.62.19a5.62,5.62,0,0,1,1.12,0,14.57,14.57,0,0,1-3.52-.12c-.06,0-.07,0,0-.07,1.38.3,2.14-1,3.18-1.47a2.88,2.88,0,0,0,.51-.56v-.07c0-.09-.09-.12-.16-.2a7.78,7.78,0,0,1,2.27.21.14.14,0,0,0,0,.06Zm-1.26,2.25h0v0Z"/></g></g></svg>