<svg xmlns="http://www.w3.org/2000/svg" viewBox="0 0 119.52 63.48"><defs><style>.cls-1{fill:#231f20;fill-rule:evenodd;}</style></defs><title>GIII</title><g id="Layer_2" data-name="Layer 2"><g id="Layer_1-2" data-name="Layer 1"><path class="cls-1" d="M62.58,0c1.95-.33,2.61,1.49,4.06,2.74,1.12,1.87,2.94,1.74,4.48,2.36L80,20.57c.75.37,1.66.08,2.53.29,2.32,0,4.48.08,6.76,0,0,0,.17-.12.21-.25l.08-1.2c.08-.46.91-.29,1.24-.17l.83,1.37c10.24-.58,20.2,1.29,27.74,7.51a.44.44,0,0,0,.17.41c-.12.79-.75,1.08-1.37,1.33C101.31,36,81,27.95,69,41.43c-7.84,4.73-15.3,9.33-23.14,14.06-6.47,3.44-12.73,9.62-21.61,7.59l-5.14-4.6c.46-.75,1.74-.33,2.49-.33a51.55,51.55,0,0,1,5,2.36c9.21-8.13,19-17.13,27.62-25.8v-.54C48.89,32,42,33.47,35.91,31.6a2,2,0,0,1-1-2.16c-3.36-1.7-8.42-1.91-11.36-4.27a1.75,1.75,0,0,1,.29-1.12l-7.17-8.71C11.32,17.13,7,21.27.79,20.57c-.29,0-.58-.17-.79-.17,3.44-3.23,7.84-5.47,11.57-8.34,0-.12,0-.25-.12-.29a1.2,1.2,0,0,0-.41-.25l-.17-.17a.85.85,0,0,1,0-.46c1.16-.87,3.69-.25,4-2.2A1.34,1.34,0,0,1,15,8.42L18.08,2.9a7.53,7.53,0,0,1,4.85.25C22.39,11.69,30,14.6,35.62,19a13.33,13.33,0,0,0,6.14,1.53c.66-.21.58-1.33,1.08-1.78s1.78-.17,2.49-.75a71.18,71.18,0,0,1,17.17-1.7c.83-1.29.7-3.19,1.16-4.73C65,7.46,64.74,3.52,62.37.41A.38.38,0,0,1,62.5.08l.08,0Zm1.08,1.37.54.25L66.77,4.6l-1.16.25c-1.12-.83-1.29-2.24-2-3.4l0,0ZM20.74,3.32l1.78.21.29,6.26-5.93-.17-.21-.37,2.7-5.89,1.37,0Zm-2.41.46-.46.91.46-1v.08ZM67.81,5l1.08.37c.21,0,.29.25.46.46l.54.25c2.61,4.6,5.06,9.21,7.51,14.1v.41H66.44c-.87-2.07.58-5.06-.12-7.26l-1.08,0c-.46-.29,0-1,0-1.41l1.41-.5a13.68,13.68,0,0,0,.25-4.85,2,2,0,0,0-1.2-.29c-.12,0-.29-.12-.25-.29l2.16-.7c.08,0,0-.29.25-.25ZM65.44,7H66v3.44c-.17.46-.87.41-1.33.41-.33-1,.29-2.07.33-3.19.08-.29.12-.5.29-.62s.12,0,.17,0Zm-48.81.29L15.51,9.74c-.12,0-.25.12-.41,0l1.53-2.41Zm.08,3.07,4.69.25-9.29.5,4.6-.75Zm6.1.5c3.94,1.37,6.72,4.6,10.24,7.13-.12.17-.29,0-.46.12-3.07-2-5.6-5.18-9-6.43l-.87-.79.08,0ZM18,11.36l3.07.25c-4.6,2.86-10.24,4.81-15.1,7.46l-.17.5-3.28.29c4.93-2.78,9.16-7.71,15.47-8.5Zm-4.73.41h.33l-.7.5c-.12-.17,0-.41.21-.46a.66.66,0,0,1,.17,0Zm51,.7L63.58,17l.66-4.52Zm-41,0,1.08,0c3.4,1.91,5.76,6.1,10,6.43.12.25-.12.25-.29.41a.56.56,0,0,0,0,.54l2.41,1.2c.08.12.08.17,0,.33s.08.17.12.29h4.73c.12,0,.33.12.12.25-4.52-.12-9.25,1.78-13.69,1.24C25.75,21,24.05,19,22.44,17.08a21,21,0,0,1-2.36-2.94l3.15-1.66Zm42,1.66h.37V16c-.17.21-.41.12-.62.29a.5.5,0,0,1-.41-.29l.21-1.49.37-.37Zm-46.16.25a85.72,85.72,0,0,1,7.51,8.83l-2.12.29-6.88-8.29,1.49-.83Zm7.3,1.37h1.53s.25.08.25.25a.69.69,0,0,1-.54.71l-1.74.08c-.25-.12-.12-.37,0-.58a.62.62,0,0,1,.54-.46ZM55.57,17h2.28l-.41,3.15c-2.94.91-6.8.17-10.16.41a1.77,1.77,0,0,1-.08-1.91c2.53-1.29,5.64-1.16,8.38-1.66Zm3.82,0h1l-.29,3.32-1.62,0c-.54-.79-.12-2.07.29-2.82.29-.29.33-.46.58-.54Zm5.27.08h.66l0,1.87c-.17.25-.58.21-.87.21l.08-2a.25.25,0,0,0,.17,0ZM62,17.71l.54.08a3.15,3.15,0,0,1,.25,2.53c-.12.25-.54.08-.79.12l-.08-2.7.08,0Zm-16.09.83a1.17,1.17,0,0,1,.33,0L46,19.78c-.17.25-.58.12-.91.12s-.29-.29-.25-.54A.67.67,0,0,0,45,19a1.6,1.6,0,0,1,.91-.46ZM35.25,19.66l1,.46c-.29.17-.87-.21-1-.41l.08,0Zm55.2.41L91,21.15c0,.17-.21.12-.37.12-.33-.29-.21-.87-.25-1.29l.08.08Zm-26.09,0H65c.29,0,0,.25,0,.37-.17.25-.58,0-.87,0,0-.08,0-.17,0-.29s.12,0,.17,0Zm-26.54.71c.08,0,.21,0,.25,0h-.41c.08,0,.12,0,.17,0Zm5.31.75,1.24,0-1.58,0c0-.08.12-.08.25-.12l.08,0Zm32.47-.08,14,.08a1.55,1.55,0,0,0,.25.29l2,.29a.45.45,0,0,0,.33-.41c4.94-.21,10.41-.91,15.26.66a.41.41,0,0,1,.25.46,14.5,14.5,0,0,1-3.4,1.78l-1.41.12a.87.87,0,0,0-.58.58l.29,2.16c1,.83,2.65-.46,3.57.58a74.32,74.32,0,0,0,12.15.17c-5.39,1.58-11.45,1.33-17,1.12l-.83-4.44a11,11,0,0,0-4.64-.17c-1,1.33-.17,3-.29,4.44-2.49.54-5.52.17-8.25.17.58-.37,1.2-.71,1.33-1.58a3.21,3.21,0,0,0-.91-1.41l7.38-.25s.12-.12.12-.25c-12-.91-24.47,0-36.74-.54l-19.45.08a.62.62,0,0,0-.12.29c1,.54,2.7.25,4,.41l-7,.58a1,1,0,0,0-.66.71,8.23,8.23,0,0,1-2.41-.21,55,55,0,0,1-7.59-1.95c-.12,0-.21-.29-.12-.5,16.63-3.23,33.63-2.16,50.22-2.9.12-.12,0-.29.12-.37Zm20.94,3.9,3.44.08.46,3.77a8.56,8.56,0,0,1-4,.17l-.29-3.77c0-.08.21-.25.37-.25Zm-39.85.79h6.88c0,.46-1.08.91-1,1.66a2,2,0,0,0,1.24,1.33,2.52,2.52,0,0,0,2.53-.75,2,2,0,0,0,.12-1.29l-.79-.79,3.19,0A1.72,1.72,0,0,0,68,28.07a2.56,2.56,0,0,0,2.2,1.24A2.4,2.4,0,0,0,72,28.07a2,2,0,0,0-.5-1.49c-.33-.08-.21-.21-.33-.25l3.11,0c.25.17-.21.29-.29.37a1.66,1.66,0,0,0-.33,1.62c.17.29.21.37.33.46l1.2.58H57.64l-1.12-3.15.17,0Zm-5.27.25s.17,0,.21,0a7.11,7.11,0,0,0,0,5.23v.25a30.87,30.87,0,0,1-11-.29c-.46-.17-.58-.75-.91-1.16l.25-.58A2.07,2.07,0,0,1,40,27.95c3.4-1.53,7.63-1.24,11.4-1.58Zm25.38-.08,2.9,0-.79,1a1.85,1.85,0,0,0,1.33,1.82,2.66,2.66,0,0,0,2.57-.83,2.26,2.26,0,0,0,.12-1.12l-.79-.91,3.19,0c0,.5-1,1-.62,1.95a4.44,4.44,0,0,0,1.12,1.08h-10a2,2,0,0,0,1.58-1.24c.12-.58-.25-1-.37-1.41l-.33-.33.08,0Zm-23.6.12h.5c-.17,1.49-.54,3.44.46,4.81-.17.41-.7.46-1.12.41-1.12-1-1.12-2.41-1.08-3.73.33-.71.58-1.24,1.24-1.49Zm1.33.7-.33,1.66.33-1.7v0Zm1,.17a.68.68,0,0,1,.37.08A2.83,2.83,0,0,1,56.11,30a1.43,1.43,0,0,1-.33.37c-.21,0-.41-.25-.46-.54l-.21-2.2.37-.37Zm-16.88.66h.25l-.21,1.2c-.12.21-.54,0-.87.17s-.29-.33-.25-.58a1.38,1.38,0,0,1,1.08-.79Zm-2.36,2.28,2.12.08-2.2,0,.08,0ZM65.9,32.47c3.65,0,7.42-.25,11.11.46C70,38.57,62.25,43,54.58,47.9S39,57.23,31.35,62.16a6.9,6.9,0,0,1-3.44-1.24.32.32,0,0,1-.12-.29c3.86-2.9,8.17-4.56,11.4-8.42l-.12-.58s-.12,0-.21-.17a6.36,6.36,0,0,1,2.86-2.41,2.22,2.22,0,0,0,1.37,0L57.44,36.7a1.28,1.28,0,0,0,0-.37l-2.78-.58L55.07,34c3.53-1,7.22-1,10.82-1.49ZM53.5,36.74h.08a62.64,62.64,0,0,1-6.47,5.93l6.3-5.93Zm1.78,0,.75.17c-1.37,1.24-2.7,3.19-4.6,3.44-.33-.25.08-.5.25-.7,1.33-1,2.24-2.28,3.61-2.9Zm-5.1,4.44h.66A10.94,10.94,0,0,1,47.73,44l-.54-.17,2.9-2.7ZM45.62,44l-.54.54.54-.54Zm.7.75a.86.86,0,0,1,.25.08c-.7,1.16-2.49,2.36-3.69,3.28-.12,0-.21.08-.41,0l3.77-3.4.08,0ZM37.61,52.5l0,0c-2,1.62-3.94,4-6.35,5,1.7-2.32,4.31-2.78,6.1-5a.73.73,0,0,1,.21,0Zm-15.93,7,5.43,2.86H24.68l-3.15-2.86Z"/></g></g></svg>