<svg xmlns="http://www.w3.org/2000/svg" viewBox="0 0 567.65 162.58"><defs><style>.cls-1,.cls-22,.cls-27,.cls-4,.cls-6{fill:#fff;}.cls-1,.cls-2,.cls-22,.cls-27,.cls-3,.cls-4,.cls-5{stroke:#231f20;}.cls-1{stroke-width:2px;}.cls-2,.cls-3,.cls-5{fill:none;}.cls-2{stroke-width:0.21px;}.cls-3,.cls-4{stroke-width:1.01px;}.cls-27,.cls-5{stroke-width:0.72px;}.cls-7{fill:#231f20;}.cls-8{fill:#373537;}.cls-9{fill:#444446;}.cls-10{fill:#4f5052;}.cls-11{fill:#5b5c5e;}.cls-12{fill:#67686b;}.cls-13{fill:#717375;}.cls-14{fill:#7b7d7f;}.cls-15{fill:#858789;}.cls-16{fill:#909295;}.cls-17{fill:#9a9c9f;}.cls-18{fill:#a3a5a8;}.cls-19{fill:#b0b2b5;}.cls-20{fill:#babcbe;}.cls-21{fill:#c5c7c9;}.cls-23{fill:#d0d1d3;}.cls-24{fill:#dadcdd;}.cls-25{fill:#e7e8e9;}.cls-26{fill:#f2f2f3;}.cls-28{fill:#f8f8f9;}.cls-29{fill:#0096cc;}.cls-30{fill:#eff7fc;}</style></defs><title>H-1000</title><g id="Layer_2" data-name="Layer 2"><g id="Layer_1-2" data-name="Layer 1"><path class="cls-1" d="M541.78,40.55c5.62-.36,13-1.66,14.76-4.54-1.3-1.94-1.73-3.74-8.42-3.6L566.26,5.7c.58-.65.65-2.23-.79-2.23l-14.11.07c-2.09-1-7.2-5.26-9.29.14l-7.49.94c-3.82.5-9.43,3.82-12.89,5.54L425.36,71.58a21.48,21.48,0,0,1-9.65,1.8h-94c-2.23-.07-4.54,1.22-4.54,2.52-.43.79,1.15,3,4.61,3l14.4,4c60.19,4.1,109.58,13.18,154.8,27.22l4.82-6.26H498l19.51-27L516.29,76Z"/><line class="cls-2" x1="487.93" y1="106" x2="492.39" y2="107.94"/><path class="cls-3" d="M548,32.41c-4.61,0-9.07-.65-15.12.86"/><path class="cls-3" d="M523.71,39.32A35.21,35.21,0,0,0,542,40.76"/><path class="cls-4" d="M514,40c15.12-1.08,36.43-4,43.2-5.4-6.91-.72-28.22-1.66-43.56-1.37S483.25,36.08,483.25,38,498.8,41.12,514,40Z"/><path class="cls-5" d="M528.39,37.67c-1.66-.14-1.73-2.45.29-2.66l-38.45.36c-2,.72-3,.94-3.46,2.38.29,1.51,1.22,1.58,2.66,2.16Z"/><path class="cls-1" d="M56.79,102.68c-6.41,1.51-10.22,3.1-19.73,6.19-13.61,5-27.72,11.66-35.06,17.57a2.74,2.74,0,0,0,.22,4.39c5.47,3.46,21.31,8.14,34.92,10.51,9,1.66,30.1,4.46,44.42,4.46,2.16,2,4.32,1.37,6.19,1.44,9.43.36,17.35,1,46.87,1.15,13.39,3.82,47.23,9.36,70.49,10,17.35,2.3,53.42,2.52,63.58,3.17,15.77-.36,25.63.22,41.4-.36,11.52-1.15,41.47-3.82,43.78-4.18l33.62-3c11.52-1.51,20.74-4.32,28.15-8,13-4.39,28.58-9.65,43-14,4.1,4,9.79-2.38,10.66-4.54,12.46-4.68,22.1-8.35,23.26-9.36,9.14-5.18,2.88-9,.79-9.87-29.59-9.72-82-21-120.74-25.92-35.64-4.39-43.92-3.53-73.44-3.67h-27c-9.5-1.58-19.8-2.38-23.18,0H151.47l-36.65-.36c-12.24,0-25.63,1.94-31.75,6Z"/><polygon class="cls-6" points="472.81 110.75 478.28 112.12 461.5 110.75 472.81 110.75"/><path class="cls-7" d="M69.1,102.83c5.76-.07,6-.65,7.27-.65s2-2.16,2.23-2.45L81.34,94Z"/><path class="cls-8" d="M69.1,102.83h-.79L81.78,93l-.43.94Z"/><path class="cls-9" d="M68.31,102.83h-1L82.28,92,81.78,93Z"/><path class="cls-10" d="M67.3,102.83h-.86l16.2-11.74c0,.07-.07.14-.07.21l-.29.65Z"/><path class="cls-11" d="M66.44,102.83H65.36L82.78,90.3a2.58,2.58,0,0,1-.14.79Z"/><path class="cls-12" d="M65.36,102.83a2.48,2.48,0,0,1-.72-.07l18.14-13v.58Z"/><path class="cls-13" d="M64.64,102.76h-1L82.35,89.22a.76.76,0,0,1,.43.5Z"/><path class="cls-14" d="M63.63,102.76h-.79L81.63,89.15H82a.55.55,0,0,1,.36.07Z"/><path class="cls-15" d="M62.84,102.76a4.09,4.09,0,0,1-.94-.07L80.77,89.08l.86.07Z"/><path class="cls-16" d="M61.9,102.68H61L79.9,89l.86.07Z"/><path class="cls-17" d="M61,102.68H60.1l19-13.75.79.07Z"/><path class="cls-18" d="M60.1,102.68a3.49,3.49,0,0,0-.86-.07L78.18,88.93h.94Z"/><path class="cls-19" d="M59.24,102.61h-.79L77.38,88.86l.79.07Z"/><path class="cls-20" d="M58.45,102.61c-.36,0-.65-.07-1-.07L76.52,88.79l.86.07Z"/><path class="cls-21" d="M57.44,102.54h-.22l19.3-13.75h0Z"/><path class="cls-22" d="M76.38,102.18c1.08,0,2-2.16,2.23-2.45l4-8.42c.29-.79.5-2.16-.58-2.16l-5.47-.36-19.3,13.75C74.86,103.33,74.58,102.18,76.38,102.18Z"/><path class="cls-7" d="M93.87,89.8a2.19,2.19,0,0,0-.58-.58l-6-.07a3.3,3.3,0,0,0-1.22.65Z"/><path class="cls-8" d="M93.87,89.8a2.88,2.88,0,0,1,.36.65H85.52l.14-.29a1.87,1.87,0,0,1,.43-.36Z"/><path class="cls-9" d="M94.23,90.44c.07.22.14.43.22.72H85.09l.43-.72Z"/><polygon class="cls-10" points="94.45 91.16 94.45 91.24 94.45 91.81 84.66 91.81 85.09 91.16 94.45 91.16"/><polygon class="cls-11" points="94.45 91.81 94.45 92.53 84.22 92.53 84.66 91.81 94.45 91.81"/><polygon class="cls-12" points="94.45 92.53 94.45 93.25 83.79 93.25 84.22 92.53 94.45 92.53"/><polygon class="cls-13" points="94.45 93.25 94.52 93.9 83.43 93.9 83.79 93.25 94.45 93.25"/><polygon class="cls-14" points="94.52 93.9 94.52 94.62 83 94.62 83.43 93.9 94.52 93.9"/><polygon class="cls-15" points="94.52 94.62 94.52 95.27 82.57 95.27 83 94.62 94.52 94.62"/><polygon class="cls-16" points="94.52 95.27 94.52 95.99 82.14 95.99 82.57 95.27 94.52 95.27"/><polygon class="cls-17" points="94.52 95.99 94.52 96.71 81.7 96.71 82.14 95.99 94.52 95.99"/><polygon class="cls-18" points="94.52 96.71 94.52 97.36 81.34 97.36 81.7 96.71 94.52 96.71"/><polygon class="cls-19" points="94.52 97.36 94.52 98.08 80.91 98.08 81.34 97.36 94.52 97.36"/><polygon class="cls-20" points="94.52 98.08 94.52 98.72 80.48 98.72 80.91 98.08 94.52 98.08"/><polygon class="cls-21" points="94.52 98.72 94.59 99.44 80.05 99.44 80.48 98.72 94.52 98.72"/><polygon class="cls-23" points="94.59 99.44 94.59 100.16 79.61 100.16 80.05 99.44 94.59 99.44"/><polygon class="cls-24" points="94.59 100.16 94.59 100.81 79.25 100.81 79.61 100.16 94.59 100.16"/><path class="cls-25" d="M94.59,100.81v.58c0,.07,0,.07-.07.14H79c0-.07-.07-.22-.07-.29l.29-.43Z"/><path class="cls-26" d="M94.52,101.53a1.73,1.73,0,0,1-.72.72H79.26c-.07-.22-.14-.43-.22-.72Z"/><path class="cls-6" d="M93.8,102.25a2.15,2.15,0,0,1-.72.29l-12.89.36a1.83,1.83,0,0,1-.94-.65Z"/><path class="cls-22" d="M94.59,101.39a2,2,0,0,1-1.51,1.15l-12.89.36c-.86-.22-1.08-.86-1.22-1.66l6.7-11.09a3.69,3.69,0,0,1,1.66-1l6,.07a2.74,2.74,0,0,1,1.15,2Z"/><path class="cls-7" d="M106,89.58a2.19,2.19,0,0,0-1.15-.58l-6.77.21a1.47,1.47,0,0,0-.65.43Z"/><path class="cls-8" d="M106,89.58a2.43,2.43,0,0,1,.43.72H97a2.5,2.5,0,0,1,.43-.65Z"/><polygon class="cls-9" points="106.47 90.3 106.47 90.37 106.47 90.95 97.04 90.95 97.04 90.37 97.04 90.3 106.47 90.3"/><polygon class="cls-10" points="106.47 90.95 106.47 91.67 96.97 91.67 97.04 90.95 106.47 90.95"/><rect class="cls-11" x="96.97" y="91.67" width="9.5" height="0.65"/><polygon class="cls-12" points="106.47 92.32 106.47 92.97 96.89 92.97 96.97 92.32 106.47 92.32"/><polygon class="cls-13" points="106.47 92.97 106.4 93.69 96.89 93.69 96.89 92.97 106.47 92.97"/><polygon class="cls-14" points="106.4 93.69 106.4 94.33 96.82 94.33 96.89 93.69 106.4 93.69"/><rect class="cls-15" x="96.82" y="94.33" width="9.58" height="0.65"/><polygon class="cls-16" points="106.4 94.98 106.4 95.7 96.75 95.7 96.82 94.98 106.4 94.98"/><rect class="cls-17" x="96.75" y="95.7" width="9.65" height="0.65"/><polygon class="cls-18" points="106.4 96.35 106.4 97 96.68 97 96.75 96.35 106.4 96.35"/><rect class="cls-19" x="96.68" y="97" width="9.72" height="0.72"/><polygon class="cls-20" points="106.4 97.72 106.4 98.36 96.61 98.36 96.68 97.72 106.4 97.72"/><polygon class="cls-21" points="106.4 98.36 106.33 99.01 96.61 99.01 96.61 98.36 106.4 98.36"/><polygon class="cls-23" points="106.33 99.01 106.33 99.73 96.53 99.73 96.61 99.01 106.33 99.01"/><rect class="cls-24" x="96.54" y="99.73" width="9.79" height="0.65"/><polygon class="cls-25" points="106.33 100.38 106.33 101.03 96.46 101.03 96.53 100.38 106.33 100.38"/><path class="cls-26" d="M106.33,101v.29a1.52,1.52,0,0,1-.29.43H96.61a.37.37,0,0,1-.14-.29V101Z"/><path class="cls-6" d="M106,101.75a1.91,1.91,0,0,1-1.08.65H97.62a1.27,1.27,0,0,1-1-.65Z"/><path class="cls-22" d="M106.33,101.32A2,2,0,0,1,105,102.4H97.62a1.23,1.23,0,0,1-1.15-.94L97,90.37a1.73,1.73,0,0,1,1.08-1.15l6.77-.21a1.91,1.91,0,0,1,1.58,1.37Z"/><path class="cls-22" d="M119.72,138.47a3.32,3.32,0,0,0,1.8,2.52l19.73-.14a3,3,0,0,0,2-2.59l.14-31.18c.14-5.69-5-12.24-12.17-12.17h-.14a11.77,11.77,0,0,0-11.38,12.17Z"/><path class="cls-7" d="M220.88,94.4a1.21,1.21,0,0,0-.36-.14,9.74,9.74,0,0,0-5.18,0c-.07,0-.14.07-.22.07Z"/><path class="cls-8" d="M220.88,94.4a7.51,7.51,0,0,1,.79.65H214.4l.72-.72Z"/><path class="cls-9" d="M221.67,95.05a4.37,4.37,0,0,1,.29.43c.07.07.07.14.14.22H214c.07-.14.07-.22.14-.29a2.58,2.58,0,0,0,.29-.36Z"/><path class="cls-10" d="M222.1,95.7a2.56,2.56,0,0,0,.29.65l-8.71-.07a4.31,4.31,0,0,1,.29-.58Z"/><path class="cls-11" d="M222.39,96.35l.22.65-9.14-.07.22-.65Z"/><path class="cls-12" d="M222.61,97a2.56,2.56,0,0,1,.29.65l-9.65-.07a2.27,2.27,0,0,1,.22-.65Z"/><path class="cls-13" d="M222.9,97.64c.07.22.07.43.14.65l-9.94-.07a2.1,2.1,0,0,1,.14-.65Z"/><path class="cls-14" d="M223,98.29a2.11,2.11,0,0,1,.14.65L213,98.87a2.1,2.1,0,0,1,.14-.65Z"/><path class="cls-15" d="M223.18,98.94a2,2,0,0,1,.07.65l-10.37-.07c0-.22.07-.43.07-.65Z"/><path class="cls-16" d="M223.26,99.59a2.45,2.45,0,0,1,.07.72H212.89v-.79Z"/><path class="cls-17" d="M223.33,100.31V101H212.89a2,2,0,0,1,0-.65Z"/><path class="cls-18" d="M223.33,101v.65H212.89V101Z"/><path class="cls-19" d="M223.33,101.6c0,.22-.07.43-.07.65H213c-.07-.22-.07-.43-.14-.65Z"/><path class="cls-20" d="M223.26,102.25c-.07.22-.07.43-.14.65h-9.94a2.1,2.1,0,0,1-.14-.65Z"/><path class="cls-21" d="M223.11,102.9l-.22.65h-9.5l-.22-.65Z"/><path class="cls-23" d="M222.9,103.55l-.22.65-9.07.07c-.07-.22-.14-.43-.22-.72Z"/><path class="cls-24" d="M222.68,104.2c-.07.22-.22.43-.29.65l-8.5.07c-.07-.22-.22-.43-.29-.65Z"/><path class="cls-25" d="M222.39,104.84c-.14.22-.22.43-.36.65h-7.78c-.14-.22-.22-.36-.36-.58Z"/><path class="cls-26" d="M222,105.49c-.07.07-.07.14-.14.22a1.67,1.67,0,0,1-.5.5H214.9a3.06,3.06,0,0,1-.5-.5c-.07-.07-.07-.14-.14-.22Z"/><path class="cls-6" d="M221.38,106.21a1.71,1.71,0,0,1-.86.36,13.16,13.16,0,0,1-4.75,0,3.11,3.11,0,0,1-.86-.36Z"/><path class="cls-22" d="M220.52,106.57a2.05,2.05,0,0,0,1.37-.86c1.94-3.1,1.94-6.62.07-10.22a3,3,0,0,0-1.44-1.22,9.74,9.74,0,0,0-5.18,0c-.29.07-1.15,1.08-1.22,1.15a10.16,10.16,0,0,0,.29,10.3,2.52,2.52,0,0,0,1.37.86A13.16,13.16,0,0,0,220.52,106.57Z"/><path class="cls-7" d="M238.66,94.55a1.55,1.55,0,0,1-.36-.22,10.54,10.54,0,0,0-5.18,0,1,1,0,0,1-.29.22Z"/><path class="cls-8" d="M238.66,94.55a3.47,3.47,0,0,1,.79.65h-7.27l.65-.65Z"/><path class="cls-9" d="M239.46,95.2a4.44,4.44,0,0,1,.29.43c.07.07.07.14.14.22h-8.14c0-.14.07-.22.14-.36l.29-.29Z"/><path class="cls-10" d="M239.89,95.84a2.55,2.55,0,0,0,.29.65l-8.71-.07a1.45,1.45,0,0,1,.29-.58Z"/><path class="cls-11" d="M240.18,96.49l.22.65-9.15-.07.22-.65Z"/><path class="cls-12" d="M240.39,97.14a2.61,2.61,0,0,1,.29.65L231,97.72l.22-.65Z"/><path class="cls-13" d="M240.68,97.79c.07.22.07.43.14.65l-9.94-.07c.07-.22.07-.43.14-.65Z"/><path class="cls-14" d="M240.82,98.44a2.1,2.1,0,0,1,.14.65L230.82,99a2,2,0,0,1,.07-.65Z"/><path class="cls-15" d="M241,99.08a2,2,0,0,1,.07.65h-10.3a2.21,2.21,0,0,1,.07-.72Z"/><path class="cls-16" d="M241,99.73a2.22,2.22,0,0,1,.07.72H230.67a2.23,2.23,0,0,1,.07-.72Z"/><path class="cls-17" d="M241.11,100.45v.65H230.67v-.65Z"/><path class="cls-18" d="M241.11,101.1v.65H230.74a2,2,0,0,0-.07-.65Z"/><path class="cls-19" d="M241.11,101.75c-.07.22-.07.43-.14.65H230.89c-.07-.21-.07-.43-.14-.65Z"/><path class="cls-20" d="M241,102.4c0,.22-.07.43-.07.65H231a2.1,2.1,0,0,1-.14-.65Z"/><path class="cls-21" d="M240.9,103l-.22.65-9.5.07A3.18,3.18,0,0,1,231,103Z"/><path class="cls-23" d="M240.68,103.69a2.59,2.59,0,0,1-.29.65l-8.93.07c-.07-.22-.22-.43-.29-.65Z"/><path class="cls-24" d="M240.39,104.34a2.53,2.53,0,0,1-.29.65l-8.35.07a2.57,2.57,0,0,1-.29-.65Z"/><path class="cls-25" d="M240.1,105a2.93,2.93,0,0,1-.36.65h-7.63a6.64,6.64,0,0,1-.36-.58Z"/><path class="cls-26" d="M239.74,105.64c0,.07-.07.07-.07.14a2.2,2.2,0,0,1-.58.58h-6.26a1.76,1.76,0,0,1-.65-.58c0-.07-.07-.07-.07-.14Z"/><path class="cls-6" d="M239.1,106.36a1.51,1.51,0,0,1-.79.36,11.6,11.6,0,0,1-4.75-.07,1.67,1.67,0,0,1-.72-.29Z"/><path class="cls-22" d="M238.3,106.72a2.26,2.26,0,0,0,1.37-.94c1.94-3.1,1.94-6.62.07-10.15a3.61,3.61,0,0,0-1.44-1.3,10.54,10.54,0,0,0-5.18,0c-.22.14-1.15,1.08-1.22,1.15a10.51,10.51,0,0,0,.29,10.3,2.11,2.11,0,0,0,1.37.86A11.6,11.6,0,0,0,238.3,106.72Z"/><path class="cls-7" d="M258.68,94.55a1.53,1.53,0,0,1-.36-.22,10.53,10.53,0,0,0-5.19,0c-.07.07-.22.14-.29.22Z"/><path class="cls-8" d="M258.68,94.55a2.12,2.12,0,0,1,.72.65h-7.27a5.68,5.68,0,0,0,.72-.65Z"/><path class="cls-9" d="M259.4,95.2c.14.14.29.36.36.43a.26.26,0,0,1,.07.22H251.7c0-.14.07-.22.14-.36s.14-.14.29-.29Z"/><path class="cls-10" d="M259.83,95.84c.14.22.21.43.36.65l-8.78-.07a1.46,1.46,0,0,1,.29-.58Z"/><path class="cls-11" d="M260.19,96.49l.22.65-9.22-.07.22-.65Z"/><path class="cls-12" d="M260.41,97.14l.22.65L251,97.72l.22-.65Z"/><path class="cls-13" d="M260.62,97.79l.22.65-10-.07c.07-.22.07-.43.14-.65Z"/><path class="cls-14" d="M260.84,98.44c0,.22.07.43.07.65L250.76,99a2,2,0,0,1,.07-.65Z"/><path class="cls-15" d="M260.91,99.08c.07.22.07.43.14.65H250.69a2.2,2.2,0,0,1,.07-.72Z"/><path class="cls-16" d="M261.05,99.73a2.69,2.69,0,0,0,.07.72H250.62a2.21,2.21,0,0,1,.07-.72Z"/><path class="cls-17" d="M261.13,100.45v.65H250.69a2,2,0,0,1-.07-.65Z"/><path class="cls-18" d="M261.13,101.1a2,2,0,0,0-.07.65H250.76a2,2,0,0,1-.07-.65Z"/><path class="cls-19" d="M261.05,101.75c0,.22-.07.43-.07.65H250.83a2,2,0,0,1-.07-.65Z"/><path class="cls-20" d="M261,102.4c-.07.22-.07.43-.14.65H251c-.07-.22-.07-.43-.14-.65Z"/><path class="cls-21" d="M260.84,103l-.22.65-9.43.07c-.07-.29-.14-.5-.22-.72Z"/><path class="cls-23" d="M260.62,103.69l-.22.65-9,.07-.22-.65Z"/><path class="cls-24" d="M260.41,104.34c-.07.22-.22.43-.29.65l-8.35.07c-.14-.22-.22-.43-.36-.65Z"/><path class="cls-25" d="M260.12,105c-.14.22-.21.43-.36.65h-7.63a6.61,6.61,0,0,1-.36-.58Z"/><path class="cls-26" d="M259.76,105.64c0,.07-.07.07-.07.14a1.71,1.71,0,0,1-.65.58h-6.26a2.14,2.14,0,0,1-.58-.58c0-.07-.07-.07-.07-.14Z"/><path class="cls-6" d="M259,106.36a1.15,1.15,0,0,1-.72.36,12,12,0,0,1-4.83-.07,2.15,2.15,0,0,1-.72-.29Z"/><path class="cls-22" d="M258.32,106.72a2.49,2.49,0,0,0,1.37-.94,10,10,0,0,0,.07-10.15,4.19,4.19,0,0,0-1.44-1.3,10.53,10.53,0,0,0-5.19,0c-.29.14-1.15,1.08-1.3,1.15a10.34,10.34,0,0,0,.36,10.3,1.91,1.91,0,0,0,1.3.86A12,12,0,0,0,258.32,106.72Z"/><path class="cls-7" d="M280.42,94.55a1.53,1.53,0,0,1-.36-.22,10.53,10.53,0,0,0-5.18,0c-.07.07-.22.14-.29.22Z"/><path class="cls-8" d="M280.42,94.55a3.12,3.12,0,0,1,.72.65h-7.27a7.35,7.35,0,0,1,.72-.65Z"/><path class="cls-9" d="M281.14,95.2a4.46,4.46,0,0,1,.29.43c.07.07.07.14.14.22h-8.14c0-.14.07-.22.14-.36l.29-.29Z"/><path class="cls-10" d="M281.58,95.84a2.55,2.55,0,0,0,.29.65l-8.71-.07a1.46,1.46,0,0,1,.29-.58Z"/><path class="cls-11" d="M281.86,96.49l.22.65-9.14-.07.22-.65Z"/><path class="cls-12" d="M282.08,97.14a2.57,2.57,0,0,1,.29.65l-9.65-.07.22-.65Z"/><path class="cls-13" d="M282.37,97.79c.07.22.07.43.14.65l-9.94-.07c.07-.22.07-.43.14-.65Z"/><path class="cls-14" d="M282.51,98.44a2.1,2.1,0,0,1,.14.65L272.5,99a2,2,0,0,1,.07-.65Z"/><path class="cls-15" d="M282.66,99.08a2,2,0,0,1,.07.65h-10.3a2.21,2.21,0,0,1,.07-.72Z"/><path class="cls-16" d="M282.73,99.73a2.22,2.22,0,0,1,.07.72H272.36a2.22,2.22,0,0,1,.07-.72Z"/><path class="cls-17" d="M282.8,100.45v.65H272.36v-.65Z"/><path class="cls-18" d="M282.8,101.1v.65H272.43a2,2,0,0,0-.07-.65Z"/><path class="cls-19" d="M282.8,101.75c-.07.22-.07.43-.14.65H272.58c-.07-.21-.07-.43-.14-.65Z"/><path class="cls-20" d="M282.66,102.4c0,.22-.07.43-.07.65h-9.86a2.1,2.1,0,0,1-.14-.65Z"/><path class="cls-21" d="M282.58,103l-.22.65-9.5.07a3.18,3.18,0,0,1-.14-.72Z"/><path class="cls-23" d="M282.37,103.69a2.55,2.55,0,0,1-.29.65l-8.93.07c-.07-.22-.22-.43-.29-.65Z"/><path class="cls-24" d="M282.08,104.34a2.54,2.54,0,0,1-.29.65l-8.35.07a2.61,2.61,0,0,1-.29-.65Z"/><path class="cls-25" d="M281.79,105a2.93,2.93,0,0,1-.36.65H273.8a6.61,6.61,0,0,1-.36-.58Z"/><path class="cls-26" d="M281.43,105.64c0,.07-.07.07-.07.14a2.21,2.21,0,0,1-.58.58h-6.26a1.76,1.76,0,0,1-.65-.58c0-.07-.07-.07-.07-.14Z"/><path class="cls-6" d="M280.78,106.36a1.15,1.15,0,0,1-.72.36,12,12,0,0,1-4.82-.07,2.15,2.15,0,0,1-.72-.29Z"/><path class="cls-22" d="M280.06,106.72a2.12,2.12,0,0,0,1.3-.94c1.94-3.1,1.94-6.62.07-10.15a3.41,3.41,0,0,0-1.37-1.3,10.53,10.53,0,0,0-5.18,0,11,11,0,0,0-1.3,1.15,10.51,10.51,0,0,0,.29,10.3,2.34,2.34,0,0,0,1.37.86A12,12,0,0,0,280.06,106.72Z"/><path class="cls-7" d="M301.16,94.55a1.51,1.51,0,0,1-.36-.22,10.83,10.83,0,0,0-5.26,0,1,1,0,0,1-.29.22Z"/><path class="cls-8" d="M301.16,94.55a5.92,5.92,0,0,1,.72.65h-7.27l.65-.65Z"/><path class="cls-9" d="M301.88,95.2a4.57,4.57,0,0,1,.29.43c.07.07.07.14.14.22h-8.14c0-.14.07-.22.14-.36l.29-.29Z"/><path class="cls-10" d="M302.31,95.84a2.54,2.54,0,0,0,.29.65l-8.71-.07a1.45,1.45,0,0,1,.29-.58Z"/><path class="cls-11" d="M302.6,96.49l.22.65-9.14-.07.21-.65Z"/><path class="cls-12" d="M302.82,97.14a2.6,2.6,0,0,1,.29.65l-9.65-.07.22-.65Z"/><path class="cls-13" d="M303.1,97.79c.07.22.07.43.14.65l-9.94-.07c.07-.22.07-.43.14-.65Z"/><path class="cls-14" d="M303.25,98.44a2.1,2.1,0,0,1,.14.65L293.24,99a2,2,0,0,1,.07-.65Z"/><path class="cls-15" d="M303.39,99.08a2,2,0,0,1,.07.65h-10.3a2.24,2.24,0,0,1,.07-.72Z"/><path class="cls-16" d="M303.46,99.73a2.24,2.24,0,0,1,.07.72H293.1a2.21,2.21,0,0,1,.07-.72Z"/><path class="cls-17" d="M303.53,100.45v.65H293.1v-.65Z"/><path class="cls-18" d="M303.53,101.1v.65H293.17a2,2,0,0,0-.07-.65Z"/><path class="cls-19" d="M303.53,101.75c-.07.22-.07.43-.14.65H293.31c-.07-.21-.07-.43-.14-.65Z"/><path class="cls-20" d="M303.39,102.4c0,.22-.07.43-.07.65h-9.87a2.12,2.12,0,0,1-.14-.65Z"/><path class="cls-21" d="M303.32,103l-.22.65-9.5.07a3.16,3.16,0,0,1-.14-.72Z"/><path class="cls-23" d="M303.1,103.69a2.58,2.58,0,0,1-.29.65l-8.93.07c-.07-.22-.21-.43-.29-.65Z"/><path class="cls-24" d="M302.82,104.34a2.54,2.54,0,0,1-.29.65l-8.35.07a2.57,2.57,0,0,1-.29-.65Z"/><path class="cls-25" d="M302.53,105a2.94,2.94,0,0,1-.36.65h-7.63c-.14-.22-.29-.43-.36-.58Z"/><path class="cls-26" d="M302.17,105.64c0,.07-.07.07-.07.14a1.48,1.48,0,0,1-.58.58h-6.26a1.76,1.76,0,0,1-.65-.58c0-.07-.07-.07-.07-.14Z"/><path class="cls-6" d="M301.52,106.36a1.35,1.35,0,0,1-.72.36,12,12,0,0,1-4.82-.07,2.16,2.16,0,0,1-.72-.29Z"/><path class="cls-22" d="M300.8,106.72a2.33,2.33,0,0,0,1.3-.94c1.94-3.1,1.94-6.62.07-10.15a4,4,0,0,0-1.37-1.3,10.83,10.83,0,0,0-5.26,0c-.22.14-1.15,1.08-1.22,1.15a10.51,10.51,0,0,0,.29,10.3,2.34,2.34,0,0,0,1.37.86A12,12,0,0,0,300.8,106.72Z"/><path class="cls-7" d="M201.44,94.55a1.55,1.55,0,0,1-.36-.22,10.25,10.25,0,0,0-5.11,0c-.07.07-.22.14-.29.22Z"/><path class="cls-8" d="M201.44,94.55a3.49,3.49,0,0,1,.79.65H195a7.35,7.35,0,0,1,.72-.65Z"/><path class="cls-9" d="M202.23,95.2c.14.14.29.36.36.43a.26.26,0,0,1,.07.22h-8.14c0-.14.07-.22.14-.36l.29-.29Z"/><path class="cls-10" d="M202.66,95.84c.14.22.22.43.36.65l-8.78-.07a1.46,1.46,0,0,1,.29-.58Z"/><path class="cls-11" d="M203,96.49l.22.65L194,97.07l.22-.65Z"/><path class="cls-12" d="M203.24,97.14l.22.65-9.65-.07.22-.65Z"/><path class="cls-13" d="M203.46,97.79l.22.65-10-.07c.07-.22.07-.43.14-.65Z"/><path class="cls-14" d="M203.67,98.44c0,.22.07.43.07.65L193.59,99a2,2,0,0,1,.07-.65Z"/><path class="cls-15" d="M203.74,99.08c.07.22.07.43.14.65H193.52a2.23,2.23,0,0,1,.07-.72Z"/><path class="cls-16" d="M203.89,99.73v.72H193.45a2.21,2.21,0,0,1,.07-.72Z"/><path class="cls-17" d="M203.89,100.45a1,1,0,0,1,0,.65H193.45v-.65Z"/><path class="cls-18" d="M203.89,101.1v.65H193.52a2,2,0,0,0-.07-.65Z"/><path class="cls-19" d="M203.89,101.75a2,2,0,0,0-.07.65H193.66c-.07-.21-.07-.43-.14-.65Z"/><path class="cls-20" d="M203.82,102.4a2.1,2.1,0,0,0-.14.65h-9.86a2.1,2.1,0,0,1-.14-.65Z"/><path class="cls-21" d="M203.67,103l-.22.65-9.5.07a3.18,3.18,0,0,1-.14-.72Z"/><path class="cls-23" d="M203.46,103.69a2.56,2.56,0,0,1-.29.65l-8.93.07c-.07-.22-.22-.43-.29-.65Z"/><path class="cls-24" d="M203.17,104.34a2.56,2.56,0,0,1-.29.65l-8.35.07a2.59,2.59,0,0,1-.29-.65Z"/><path class="cls-25" d="M202.88,105a2.93,2.93,0,0,1-.36.65h-7.63a6.61,6.61,0,0,1-.36-.58Z"/><path class="cls-26" d="M202.52,105.64c0,.07-.07.07-.07.14a2.2,2.2,0,0,1-.58.58h-6.26a1.76,1.76,0,0,1-.65-.58c0-.07-.07-.07-.07-.14Z"/><path class="cls-6" d="M201.87,106.36a1.51,1.51,0,0,1-.79.36,11.63,11.63,0,0,1-4.75-.07,2.15,2.15,0,0,1-.72-.29Z"/><path class="cls-22" d="M201.08,106.72a2.26,2.26,0,0,0,1.37-.94c1.94-3.1,1.94-6.62.14-10.15a4.41,4.41,0,0,0-1.51-1.3,10.25,10.25,0,0,0-5.11,0,11.09,11.09,0,0,0-1.3,1.15,10.51,10.51,0,0,0,.29,10.3,2.34,2.34,0,0,0,1.37.86A11.63,11.63,0,0,0,201.08,106.72Z"/><path class="cls-7" d="M183.37,94.69a.65.65,0,0,0-.36-.22,10.5,10.5,0,0,0-5.18,0,.39.39,0,0,0-.29.22Z"/><path class="cls-8" d="M183.37,94.69a5.82,5.82,0,0,1,.72.65h-7.27a2.11,2.11,0,0,1,.72-.65Z"/><path class="cls-9" d="M184.09,95.34c.14.14.29.36.36.43a.26.26,0,0,1,.07.22h-8.14c0-.14.07-.22.14-.36l.29-.29Z"/><path class="cls-10" d="M184.52,96c.14.22.22.43.36.65l-8.78-.07a1.44,1.44,0,0,1,.29-.58Z"/><path class="cls-11" d="M184.88,96.64l.22.65-9.22-.07.22-.65Z"/><path class="cls-12" d="M185.1,97.28l.22.65-9.65-.07.22-.65Z"/><path class="cls-13" d="M185.31,97.93l.22.65-10-.07c.07-.22.07-.43.14-.65Z"/><path class="cls-14" d="M185.53,98.58c0,.22.07.43.07.65l-10.15-.07a2,2,0,0,1,.07-.65Z"/><path class="cls-15" d="M185.6,99.23c.07.22.07.43.14.65H175.38a2.23,2.23,0,0,1,.07-.72Z"/><path class="cls-16" d="M185.74,99.88v.72H175.3a2.21,2.21,0,0,1,.07-.72Z"/><path class="cls-17" d="M185.74,100.6a1,1,0,0,1,0,.65H175.38a2,2,0,0,1-.07-.65Z"/><path class="cls-18" d="M185.74,101.24v.65h-10.3a2,2,0,0,1-.07-.65Z"/><path class="cls-19" d="M185.74,101.89a2,2,0,0,0-.07.65H175.52a2,2,0,0,1-.07-.65Z"/><path class="cls-20" d="M185.67,102.54a2.1,2.1,0,0,0-.14.65h-9.86c-.07-.22-.07-.43-.14-.65Z"/><path class="cls-21" d="M185.53,103.19l-.22.65-9.43.07c-.07-.29-.14-.5-.22-.72Z"/><path class="cls-23" d="M185.31,103.84a2.55,2.55,0,0,1-.29.65l-8.93.07-.22-.65Z"/><path class="cls-24" d="M185,104.48a2.56,2.56,0,0,1-.29.65l-8.28.07c-.14-.22-.22-.43-.36-.65Z"/><path class="cls-25" d="M184.74,105.13a2.91,2.91,0,0,1-.36.65h-7.56a6.62,6.62,0,0,1-.36-.58Z"/><path class="cls-26" d="M184.38,105.78c0,.07-.07.07-.07.14a2.2,2.2,0,0,1-.58.58h-6.19a1.76,1.76,0,0,1-.65-.58c0-.07-.07-.07-.07-.14Z"/><path class="cls-6" d="M183.73,106.5a1.63,1.63,0,0,1-.72.36,12,12,0,0,1-4.82-.07,2.59,2.59,0,0,1-.65-.29Z"/><path class="cls-22" d="M183,106.86a2.33,2.33,0,0,0,1.3-.94c1.94-3.1,1.94-6.62.14-10.15a4.07,4.07,0,0,0-1.44-1.3,10.5,10.5,0,0,0-5.18,0,7,7,0,0,0-1.3,1.15,10.34,10.34,0,0,0,.36,10.3,2.18,2.18,0,0,0,1.3.86A12,12,0,0,0,183,106.86Z"/><path class="cls-22" d="M303,132.42l-82.15,1.73c-35.06.65-71.06,7.63-76.68,11.52,3.38,4.18,22.18,7.78,57.31,9.72,12.74.58,29.45.72,44.57.65,0,0,7.49-.5,19.22-2.52"/><path class="cls-3" d="M342.34,151.07l7.63-.14,12.53-11.66,22.18-11.09c-8.14-.87-14.4-1.3-17.35-1.3-4.18-.43-14.11.43-22.39,1.3l-77.62,8.42-20.81,2.81c-2.74.43-16.27,1.3-6.12,7.2a35.51,35.51,0,0,0,10.08,4l13.83,2.59C284.74,156.54,315.7,153.88,342.34,151.07Z"/><path class="cls-27" d="M335.58,143.58l17.42-.43-2.59,8.35a27.23,27.23,0,0,1-8,.29L339,145.67l-2.81-.58Z"/><path class="cls-5" d="M364.23,130.62c8.5,0,19.73-1.3,19.73-2.3s-11.23-1.51-19.73-1.51-15.84.65-15.55,1.87C348.18,130.48,355.74,130.62,364.23,130.62Z"/><path class="cls-5" d="M350.48,130.19c-2.81.07-3.89-1.44-.5-2.23l-86.69,9.36a167.19,167.19,0,0,0-18.86,3.38c-6.7,1.3-2.74,6.26,5.18,9.36Z"/><path class="cls-28" d="M281.86,143.08l-3.74.72h0l-6.62.86c0-.07,0-.07-.07-.15Z"/><path class="cls-6" d="M278.12,143.8c-1.94.5-4.18.72-6.48,1.22-.07-.14-.07-.29-.14-.36Z"/><path class="cls-4" d="M450.34,101.53c-16.78-5.69-37.87-6.55-55.44-6.7-9.79,0-25.63-.94-35.28,1.94-3,1.22-4.25,2.52-4.18,4.18v22.75a11.81,11.81,0,0,0,.79,2.52c3.31,1.66,4.25,4,17.14,6.12,3.82.65,14.25.5,20.16.14,3.89-.14,28.3-2.59,29.3-3,13.1-1.65,21.24-3.31,27.07-5.54C450.2,117.3,450.63,106.5,450.34,101.53Z"/><path class="cls-6" d="M360.7,125.22l-.14,2.16a13.37,13.37,0,0,1-3-2.16Z"/><path class="cls-29" d="M361.49,97.57v-.5a9.59,9.59,0,0,0-1.94.72Z"/><path class="cls-6" d="M448.47,106v.5c-.22-.07-.94-.14-2.09-.29Z"/><line class="cls-5" x1="362.43" y1="129.61" x2="362.29" y2="96.56"/><line class="cls-5" x1="430.25" y1="97.28" x2="430.54" y2="128.6"/><path class="cls-30" d="M461.72,112.12l-.07.43-2.23.22c-.72-.07-1.66-.14-2.74-.22Z"/><path class="cls-6" d="M461.65,112.55V113c-.14,0-.94-.14-2.23-.22Z"/></g></g></svg>