<svg xmlns="http://www.w3.org/2000/svg" viewBox="0 0 216.14 71.08"><defs><style>.cls-1{fill:#231f20;fill-rule:evenodd;}</style></defs><title>H-125</title><g id="Layer_2" data-name="Layer 2"><g id="Layer_1-2" data-name="Layer 1"><path class="cls-1" d="M46.26,70.89l-1.43-4c1.71-.34,3.7.25,5.6-.09a55.82,55.82,0,0,1,13.88,1.87c.78.4,1.43.19,2.18.59,6.82,1.87,13.6,2,20.45,1.74a6.71,6.71,0,0,1,2.21-.12c28.14-3.42,56.63-5.29,85-8.19,11.89-.78,23.75-2,35.55-3.18l5.79-.5a.89.89,0,0,0,.65-.59v-.47a.92.92,0,0,0-.65-.65c-8.37.22-16.69.25-25.15.44-4.08.25-8.09-.06-12.11.22-4.23-.16-8.25.25-12.42-.22-.34-.22.19-.65,0-1-3.64,0-7.78.12-10.93.06-1.28.22-2.74.28-3.18,1.4l-11.14.22a2.09,2.09,0,0,1,0-1.62l3.92-1.84c.4-.44,1.28-.44,1.74-.87a8.15,8.15,0,0,0,5.32-3.55c.72-1.53,1.24-3.14.68-4.7-.78-1.12-1.9-1.53-3.11-2.4-.44-.25-.9-.5-1.34-.78l10.93-27c5.95-1.65,12.79-.9,19.11-1.59A65.11,65.11,0,0,0,186,14l18.52-.84a.52.52,0,0,0,.09-.59c-2.27-.65-4.89-.69-7.16-1.4-1.31.09-2.33-.37-3.67-.34-5.2-.9-10.12-.28-15.41-.56-4.33.06-8.28.19-12.55.4a34.37,34.37,0,0,0-4.7-.12c-.09-.09-.25-.16-.31-.37l4.51-8.93L159.07.88C158-.65,157.42.1,157.11,1c-2.33.19-3.8.9-4.76,2.21l-6.07,6.13A5.48,5.48,0,0,1,144,11.4h-.78a2.73,2.73,0,0,0-.34.28c-8.75.19-17.87.19-26.55,2.05a.88.88,0,0,0-.44.5c7.84,2.49,16.53.28,24.56,1.09.09.34-.31.4-.44.65a55.56,55.56,0,0,1-4.58,5.92c-1.68,2-2.77,3.11-4.7,5a11.74,11.74,0,0,1-3.55,2.24c-7,1.4-14-1.53-20.89-.19-1.56.62-1.31,1.59.47,1.9l-.06.81c-4.7.06-9.49-.16-14-.22-8-.25-15.81-.12-23.72-1a2.05,2.05,0,0,1-.44-.53c.22-1,3.64-6.29,2.55-6.38l-2.9-.09L63,30.42c-11.46-.25-25.93-4-34.77,1.81-4.17,2.71-6.63,7.5-10.52,9.93C12.79,43.15,0,51.12,0,56.66c3.92,4.08,9.4,5.85,14.79,6.76a234.32,234.32,0,0,0,25.12,2.68l3,4.79ZM159.85,2.31l4.23-.16c.12-.06.12-.19,0-.28-1.68-.22-3.46,0-5.2-.16a26.88,26.88,0,0,1-3.77.44l4.73.16Zm1.06,1.46,2.21-.06c.19,0,.4-.37.19-.5H153.22a.62.62,0,0,0-.34.44l8,.12ZM145.53,11.4l14.32-.9,1.9-3.33,1-2.33L152,4.61l-6.54,6.72.09.06Zm1.74,1.28c2.05.06,17.43-.47,19.58-.47,2.93.09,8.78-.37,11.7-.25,5.92.09,15.47.09,21.23,0,.19-.09-6.66-.84-6.66-.84-4.92-.5-22.91.22-29.54.12-1.15.12-15.81.72-16.9.72l.59.72Zm-29.2,1.46,22.69-.84.5-.84c3.08.09-19.3.31-21,1.15a10.9,10.9,0,0,1-2.18.53Zm29,28c3.21-8.62,7-18.18,10.77-26.68-4.54-.75-9.59.5-14.1-1.56a1.14,1.14,0,0,1-.25-.65,1.79,1.79,0,0,0,.34-.78l-2,.31.44,1.25c-3.52,4.45-10,15.35-16.13,16.09-4.79.78-9.49-1.06-14.13-.65a8.12,8.12,0,0,0-2.86-.09c1,.93-.09,1.74-1.46,1.56l-.06.56a23.34,23.34,0,0,0,2.65.59c5.92,1,18.49,4.92,24.13,7.44a64,64,0,0,1,12.67,2.62Zm-11.8,6.44c5.45-.56,11-.09,16.34-1.09a2.41,2.41,0,0,0-.25-1.71,30.25,30.25,0,0,0-4-2.61c-1.24-.16-2-.81-3.21-1.06-.72-.31-1.37-.19-2.15-.53-1.24-.22-2.46-.31-3.64-.56-3.27-.65-6.44,0-9.56.16-.16.09-.25.16-.16.37l1.71,1.12c.22.16.28.44.44.72l.47.5.84,1.59.47,2.65,2.68.47Zm-133,6.44q44.41-2.29,88.84-4.54,12.51-.7,24.78-1.31a22.64,22.64,0,0,0,3.14-.4c.37-3.7,1.56-5.91,4.67-7.35,2.61-1.4,6.29-1,9.34-1.49-6.41-2.43-13.7-5.35-20.51-6.51-3.8-1.28-6.85-1-10.27-1.15-10-.12-20.27-.22-30.48-.68a8.73,8.73,0,0,1-2.74-.28c-1.25-.72-1.4-.16-1.12-2L70.6,24.1l-2.21,0L63.85,31c-5.2.31-10.06-.72-15.6-.9-5.63-.34-10.55-.93-15.69.9a32.85,32.85,0,0,0-5.51,3.11l1,.12c.56,1.21-4.45,6.26-4,5.76H21.42a5.75,5.75,0,0,1-2.12,2.12c-1.09,1.4-2.74.75-4,1.68-.93.4-12.86,6.6-13.95,11.33l1,0Zm128.41,2.33c2.93.34,5.7-.4,8.65-1a12.85,12.85,0,0,0,2.37-1c1.62-.9,3.58-1.43,5.2-2.33a5.46,5.46,0,0,0,3.21-1.93c-2.43.12-5.32.81-7.94.56-3.67.59-7.35,0-10.83.37l-1,1.59-1.06,1.06c-1.31.9-2.86.68-4.42,1,.75.5,1.71.56,2.49,1.06,1.18.37,2.18.28,3.21.65l.09,0Zm21.7,2.49c3.89-1.49,8.31-.9,12.2-2.18-3.24-.28-6.88,0-10.46-.09a2.15,2.15,0,0,0-2,2.15c0,.12.16.22.25.12Zm-32.56,3.33c.19-.06,0,0,.22-.12,0,0,.06-.22.06-.28s-.31-.22-.53-.16c0,.16,0,.56.25.56Zm-3.46.37h.84c.25-.06.12-.5,0-.62a1.35,1.35,0,0,0-.9.47l.06.16Zm-31.1,1.24c9.31-.12,18.46-.44,27.86-.65a3.47,3.47,0,0,1,1.53-.47c1.46-2.21,4.36-2.27,6.69-1.9A2.13,2.13,0,0,1,123,63.1c.09.22.53.06.72.31.06,0,.06.25.16.44l89.78-5.91-35.74.28a90.8,90.8,0,0,0-13.67.53,26.7,26.7,0,0,1-5.23.65c-2.18.47-4.51.31-6.38,1.49a2,2,0,0,1-.65.72.49.49,0,0,1-.31-.09l-.28-2.33c-1.09-.31-2.43.31-3.64,0-3.21.47-6.2.25-9.31.72a7.86,7.86,0,0,0-2.61.28c-2.15,0-4.17.16-6.16.31-2.77.16-5.48.62-8.16.68a23.56,23.56,0,0,1-3.64-.06c-.9.56-2,.31-3.14.62-4.11.25-8.16.81-12.2.9a46.11,46.11,0,0,1-6.94-.53c-.93-.68-2.33.22-3.46-.12-2.58.25-5.82.69-6.91,2.8l.12.06ZM61.14,67.12a9.68,9.68,0,0,0,4.26-.68c2.77-.87,4.64-3.36,7.32-4.45a23.93,23.93,0,0,1,4.92-2.12C83.55,58,88.72,57,94.51,58.56c2.37.31,6.85,1,9.37,1.21a133.46,133.46,0,0,0,17.62.56c1.77-.06,14.16-1.28,18.06-1.93.19-.4.06-.68.19-1-1.31-.16-2.65.34-4.14.53-1.65.53-3.21.09-4.86.22a19,19,0,0,1-5.32-1.24c-2.21-.93-3.83-3-5.17-4.51L56.1,54.76,1.56,57C4,59.65,8.62,61.21,11.8,62.17a187.29,187.29,0,0,0,27.67,3.11c.16-.12-.34-.56-.25-.78.87-.47,3.7.19,4.82.5l.59,1.09a109.25,109.25,0,0,1,16.5,1Zm18.52,3.39,6.94-.19c.16,0,.34-.09.25-.31a15,15,0,0,1-2.24-2c-.34-1.43-1.06-3.14-.06-4,2.21-2.21,5.57-2.61,8.53-2.68,1.24,0,2.43-.53,3.58.12a49.23,49.23,0,0,0,6,.47c2.93-.25,5.79-.12,8.62-.68-7.28-.5-14.94-1.84-22.48-2.68a63.74,63.74,0,0,0-7.38.93c-.81.44-1.77.44-2.52.84-6,1.15-9.49,5.85-15.07,7.56-.09.28.9,0,1.12.34a16.18,16.18,0,0,1,3.27.81c3.77,1.46,7.72.87,11.46,1.53Zm-34.21-.16-1.9-4.55a9.34,9.34,0,0,0-3.24-.5l3.11,4.95c-.44-.09,1.62.34,2,.09ZM27.8,40.44l10.93-.19c2.21,0,4.11-5.85,2.21-6H31.41c-1.71.47-2.8,2.09-3.8,3.11-.75.75-1.65,3,.19,3.11Zm20,.19c.72-1.68-.19-3.39-.93-4.86s-1.74-1.18-3-1.09c-.59.65-.53,1.84-1,2.65-.56,2.12-.25,2.93.84,3.24l4.11.06Zm5.54,0c.68-.9-1.21-4.95-2.21-5.67-.31-.28-2.71-.5-3.11.19.06,1.09,1.62,5.32,2.61,5.6.69-.06,2,.37,2.71-.12Zm51.43,3.55h.9c.56-.28.56-.84.44-1.59a20.61,20.61,0,0,0-1.18-2.77c-.12-.37-.65-.53-1.12-.47a.94.94,0,0,0-.65.59l1.46,4.23Zm-26.12,0,.62-.12a2.36,2.36,0,0,0,.28-2.49c-.44-1.15-.44-2.27-1.4-2.86-.34,0-.68-.25-1.06,0l-.5.5,1.28,4.58c.25.09.37.4.78.44Zm6.91.09c0-.09.16-.12.31-.16a1.4,1.4,0,0,0,.59-1.31c-.47-1-.81-2.33-1.15-3.33a1.66,1.66,0,0,0-1.74-.4c-.65,1.34.19,3,.56,4.33l.65.75c.25,0,.47.22.78.12Zm13.17.25h.19a1.37,1.37,0,0,0,.78-.78l-1.21-4.26A1.38,1.38,0,0,0,97.13,39c-.68.37-.4,1.46-.4,2.15.59,1,.37,2.21,1.06,2.9l.9.47Zm-6.72,0,.68-.47a5.39,5.39,0,0,0-1-4.58L90.87,39h-.34l-.56.47a6.74,6.74,0,0,0,.47,3.14c.34.87.62,1.68,1.53,1.9Zm43.86,6.23,15.38-1.15a.86.86,0,0,0,.25-.78c-2.4,0-4.89.25-7.35.47-4,.06-7.91.78-11.77.44-.22.12-.22.53-.25.78l3.74.25Zm-11.33,4c2.18.12,4.51-.16,5.79-2.05.37-.5.47-1.37.9-1.87.59-2.61.59-5.73-1.21-7.32a2.8,2.8,0,0,1-.78-.87c-1.31-.81-3.36-1.34-4.7-.56-2.8,1.31-3.74,3.18-4.23,6.07a7.77,7.77,0,0,0,1,4.26,9.28,9.28,0,0,0,3.27,2.33ZM129,52.27c1.37-1.84,2.09-4.73.75-6.94a4.85,4.85,0,0,0-2.46-2.46c-.81-.65-2-.28-2.8.09a6,6,0,0,0-2.68,7.88,4.76,4.76,0,0,0,2.8,2.49c1.09.37,3.21.56,4.39-1.06ZM4,55.88c16.09-.34,32.31-1.21,48.44-1.81,22.44-.81,44.64-1.59,66.93-2.93.4-.19,0-.62,0-.93L71.51,52.43,4,55.88Z"/></g></g></svg>