<svg xmlns="http://www.w3.org/2000/svg" viewBox="0 0 187.6 50.32"><defs><style>.cls-1{fill:#231f20;fill-rule:evenodd;}</style></defs><title>H-800</title><g id="Layer_2" data-name="Layer 2"><g id="Layer_1-2" data-name="Layer 1"><path class="cls-1" d="M79.93,22.35l0,0,0,0v0Zm-1.4-.9h0l0-.14c-.16-.08-.25-.08-.28,0L75,21.16h0a5.91,5.91,0,0,0-1.23.51,2.91,2.91,0,0,1-.87.34l-20.55-.27a1.76,1.76,0,0,1-.6-.39c.2,0,.26,0,.21-.07.34,0,.27,0-.4-.1h0a3.67,3.67,0,0,0-.62-.48h-.05c-.91.05-1.7,0-2.45,0h0l-1.07,0-.06,0-1.09.73h-3c-4.82,0-11.22-.06-12.26.69h0l-3.42,2.69c-2,1.55-4,3.15-5.68,4.45l-.65.31-.7.4h0a2.41,2.41,0,0,1-.81.3,2.37,2.37,0,0,0-.8.3c-.65.23-1.65.52-2.85.88C11.38,32.8,3.91,35,1.48,37.73a2.09,2.09,0,0,0-1,.91,3.16,3.16,0,0,0-.4,1,2.07,2.07,0,0,0,0,1h0a1.21,1.21,0,0,0,.53.69h0c4.33,2.41,7.45,3,11.69,3.71l2.34.42h0l4.65.25c13.44.72,30.78,1.66,41.84,2.09,1,.21,3,.62,5.23,1,2.51.48,5.19,1,6.56,1.22h0c1.64.13,3.84.21,6.31.22s5.26,0,8-.14a10.62,10.62,0,0,0,2-.1c.63-.06,1.33-.13,2.08-.17h0L184.94,40a5.39,5.39,0,0,0,2.3-.69h0a.78.78,0,0,0,.34-.37h0c0-.15,0-.29-.22-.4a5.9,5.9,0,0,0-2.41-.24c-9.24-.12-18.55.59-27.87,1.29-5.7.43-11.4.86-17.08,1.1h0a.11.11,0,0,1,0-.05c4.33-1.06,7.08-2.1,8.33-3.53s1-3.26-.69-5.87c1.46-2.81,3-5.54,4.48-8.25,1.94-3.49,3.87-7,5.67-10.61v0a.41.41,0,0,1,.16-.22.5.5,0,0,1,.29-.1h0l27.6-2.68.22,0L186,9.19l-.66-.69,0,0-1.08-.39C181.3,7,179.29,6.28,176.49,7L161.23,8l-.14-.07,3.27-6.71v0l0-.85V.26l-.07,0-.14-.06a1,1,0,0,0-.79-.13l-9.3.08h0a14.15,14.15,0,0,0-2.19.77,11.83,11.83,0,0,0-2,1.16h0L139,11.11a7.64,7.64,0,0,1-3.36.42c-.45,0-.86,0-1.18,0h0l-2.47.88,0,0,0,0c-.35.84-.33.86.08,1.09a3.42,3.42,0,0,1,.43.28l.06,0,1.81.13h0a.55.55,0,0,1,.37.23l.05.05-8.59,6.81-27.72-.8h0l-.74,0a2.49,2.49,0,0,0-2.12.7l0,0a6.25,6.25,0,0,0-.4,1.06c-.05.18-.11.35-.16.5l-15-.37a9.93,9.93,0,0,0-.88-.58,2.41,2.41,0,0,0-.55-.21Zm-28.78-.17c-.47,0-1.23,0-1.62-.1a.4.4,0,0,1-.13.12h0a2.65,2.65,0,0,1-.41.18l-.12,0,3.43.07a.06.06,0,0,0,0-.07,2.46,2.46,0,0,0-.95-.22h0a.59.59,0,0,1-.18,0Zm27.42.56c-.47,0-1.24,0-1.62-.1a.4.4,0,0,1-.14.12A2.7,2.7,0,0,1,75,22l-.12,0,3.43.07a.06.06,0,0,0,0-.07,2.47,2.47,0,0,0-1-.22.59.59,0,0,1-.17,0Zm72.62,21c-24,1.88-44.61,3.47-64.21,4.29a13.6,13.6,0,0,0,2.88,1.14,7.13,7.13,0,0,1,1.42.55c3-.3,7.49-.73,12.9-1.24,13.67-1.3,33-3.13,47-4.73ZM84.71,46.18l86.58-5.81h0l6.54-.65L184,39.1h0l-.09,0c-16.31.91-35.23,2.13-54.48,3.36-13.16.84-26.49,1.7-39.26,2.48h0a16,16,0,0,0-4.25.34,3.85,3.85,0,0,0-1,.36c-.21.12-.33.26-.3.41a.45.45,0,0,0,.1.19Zm99.51-7.1h0v0h0l0,0ZM57.74,40.53l-6.88-.08-1.4,3.19c-.09.29-.07.42,0,.48a1.1,1.1,0,0,0,.53.07h0l5.87.05h0a.65.65,0,0,0,.5-.1,1,1,0,0,0,.34-.49l1-3.13Zm.19-.77,0-.29H51.24a2.14,2.14,0,0,1-.08.21l6.77.08Zm.15-1.14,0-.24-6.67,0,0,.15v.11l6.67-.05Zm68.4,2.71c1.23-.12,2.35-.21,3.44-.3a51.2,51.2,0,0,0,12-2h0a4.54,4.54,0,0,0,.6-.23l-20.6.36a3.29,3.29,0,0,1-1.71.51,7.27,7.27,0,0,1-1.85-.19l.22.24c1.86,1.41,5.72,1.51,7.81,1.57Zm-3.8-3,22.47-.5h0a2.23,2.23,0,0,0,1-.28,1.26,1.26,0,0,0,.32-.24h0a.27.27,0,0,0,.08-.14L123,37.79l-.27.55Zm-71.24-.69,6.82-.08c0-.66.1-1.29.16-1.89.25-2.47.45-4.5-1.7-7.28a3.38,3.38,0,0,0-1.78-.8,4.79,4.79,0,0,0-2.22.17h0a2.07,2.07,0,0,0-.94.52.94.94,0,0,0-.31.71A15.79,15.79,0,0,1,52,33.45a15,15,0,0,1-.58,4.21Zm96.21-1.46,0-.14a5.89,5.89,0,0,0,.06-2.46,2.06,2.06,0,0,0-1.29-1.71h0l-.09,0h0a.44.44,0,0,1-.21-.21v0a33.7,33.7,0,0,0-10.48-2.5,76.05,76.05,0,0,0-14.09,0h0c-.11,0-.13,0-.16.07a8,8,0,0,1,1.68,2.68,9.58,9.58,0,0,1,.18,5l24.39-.63ZM151.28,16l-7.8,13.4c1.3.58,2.64,1.17,3.49,1.44l8.36-15.36-4,.52Zm-.34-.74,4.67-.53,1.29-2.28-8.53.23c-.62.26-4.32-.79-5.71-1.19l-.5-.14h-.06l0-.06a.53.53,0,0,1,0-.34h0a1,1,0,0,1,.16-.26l0,0,1.38-.85,0,0,16-1.8L163.6.84,153.75,1a4.84,4.84,0,0,0-2,.87c-.22.14-.45.29-.72.44L126.93,21.64a.68.68,0,0,1-.24.11,1.06,1.06,0,0,0-.3.12l0,0h-.06l-28.73-.58a1.49,1.49,0,0,1,.26.5h0a3.3,3.3,0,0,1,.12.79,98,98,0,0,1,15.73,1.66c4.62.87,8.84,2.05,11.42,3.47,1.56-.05,4.47-.14,7.76,0a48.91,48.91,0,0,1,10,1.25l8-13.64,0,0ZM32.56,29.82a1.32,1.32,0,0,0,.19-.16h0a5.53,5.53,0,0,0,1.12-2.6,4.07,4.07,0,0,0,0-2.44l0-.06a15.92,15.92,0,0,0-2.67-.31,4.75,4.75,0,0,0-1.73.18,40.72,40.72,0,0,1-3.84,3c-1.06.77-2.13,1.54-3.14,2.4,3.06.17,6.24.09,9.12,0l1,0Zm7.08-.56A3.79,3.79,0,0,0,40.09,27a2.91,2.91,0,0,0-.64-1.91c-.54-.06-1-.12-1.51-.14a9.21,9.21,0,0,0-1.49.06.83.83,0,0,0-.16.13,3.48,3.48,0,0,0-.67,2,4.22,4.22,0,0,0,.24,2.05.66.66,0,0,0,.09.13,3.91,3.91,0,0,0,1.63.18,7.19,7.19,0,0,0,2.06-.29Zm5.26-.18a1.42,1.42,0,0,0,.49-1,3.26,3.26,0,0,0-.26-1.51v0a1.84,1.84,0,0,0-.43-1,2.19,2.19,0,0,0-.91-.58,4.26,4.26,0,0,0-1.33-.21.77.77,0,0,0-.64.24,4.23,4.23,0,0,0-.25,2,4.31,4.31,0,0,0,.55,2,6.8,6.8,0,0,0,2.6,0h0l.18,0Zm90.85-15.87,1.38-.83-3.2.14a.11.11,0,0,0,0,0,.37.37,0,0,1-.1.1l0,0-.18,0h0a1.57,1.57,0,0,0-.88.26l3.06.25ZM183.6,8.85a18.82,18.82,0,0,0-1.86-.59c-.56-.16-1.12-.31-1.78-.57l-.12,0c-.31,0-1-.14-1.06-.14L145.7,10.48a5.5,5.5,0,0,0-1.4.5l-.15.07c3.16,1.12,6.4.82,10,.49,1.22-.11,2.48-.23,3.78-.3h0l25.69-2.4ZM36.7,45.75c10.09.49,20.68,1,24.51,1.31h0c1,.15,2.23.41,3.63.71,2.27.48,5,1.07,8.1,1.46l6.8,0,6.64,0h0a2,2,0,0,0,.82-.16c.05,0,.08-.06.09-.08s0-.06-.08-.12a5,5,0,0,0-1.66-.65,2.6,2.6,0,0,1-2-1.11,2.36,2.36,0,0,1-.41-.92,1.62,1.62,0,0,1,.09-.94,1.93,1.93,0,0,1,1.38-1h0l6.05-.43c9.56-.69,20.63-1.49,31.38-1.82a21.38,21.38,0,0,1-2.26-.55,9.55,9.55,0,0,1-2.38-1l-58.79.34c-.13.42-.35,1.11-.59,1.77-.17.48-.35,1-.5,1.31a1.4,1.4,0,0,1-.17.49,2.16,2.16,0,0,1-.65.73h0a1.33,1.33,0,0,1-.87.27.82.82,0,0,1-.28-.08c-.79,0-1.52,0-2.25,0-1,0-1.94,0-3.09,0-1.4,0-1.71-.2-1.72-.84a5.37,5.37,0,0,1,0-.64v-.11L50,40.35h0c-5.6-.06-11.42.07-17.25.19-8.86.2-17.7.39-25.72-.09l-.06,0a1,1,0,0,0-.24-.13c-.17-.07-.33-.14-.35-.31l0-.11h.11c2.91-.39,4.57-.66,5.75-.84A47,47,0,0,1,20,38.4c3.6-.43,17.86-.61,26.57-.72l3.93-.05.23-.54A25,25,0,0,0,51,32.86a16.58,16.58,0,0,0-.41-3.68h0a1.32,1.32,0,0,1,.21-1,3.36,3.36,0,0,1,1-1h0a7.52,7.52,0,0,1,3.16-.3,3.34,3.34,0,0,1,2.17.94c2.6,3,2.35,5.42,2,8.9l-.08.81,57.13.26a6.19,6.19,0,0,1-1.2-3.56,8.43,8.43,0,0,1,.29-2.75,5.14,5.14,0,0,1,1.24-2.24,3.3,3.3,0,0,1,2.19-1,9.51,9.51,0,0,1,1.85-.22,23.59,23.59,0,0,1,2.5,0c-6.69-2.69-17.38-3.58-24.38-4.17-1.44-.12-2.73-.23-3.82-.34L79.72,23h0l-6.16-.24-21.2-.32h0l-6.85-.32c-1.94.14-4.11.13-6.28.12a61.35,61.35,0,0,0-7.71.27,4,4,0,0,0-.69.53,1.43,1.43,0,0,0-.21.25c1.38.07,2.81.13,4.25.18,3,.11,6.17.22,9,.56h0a3.37,3.37,0,0,1,1.89,1.84,5.82,5.82,0,0,1,.61,1.72,2.77,2.77,0,0,1-.14,1.6,1.66,1.66,0,0,1-1.1.91h0c-2.1,0-4.4.11-6.5.24s-3.89.29-5.18.47H31c-3.21,0-6.46,0-9.65-.11a4,4,0,0,1-.88.13,2.32,2.32,0,0,0-1.37.4l0,0-2.9.84c-5,1.44-10,2.86-14,6l-.29.27h0l-.31.29c-.5.5-.88,1.08-.1,1.87A33,33,0,0,0,8,43c2.23.6,4.54,1,7.07,1.52,1.32.19,11.2.67,21.63,1.18ZM72.8,31.22a1.36,1.36,0,0,1,0,.58.62.62,0,0,1-.06.36.83.83,0,0,1-.5.39,1.92,1.92,0,0,1-.75.08,2.18,2.18,0,0,1-1.22-.46h0a3,3,0,0,1-.58-1h0L69.66,31h0l-.72-2.07v0a1.11,1.11,0,0,1,.24-.69.76.76,0,0,1,.56-.29,1.91,1.91,0,0,1,1-.06c.14,0,.21.13.22.08l0-.15.12.1.66.53,0,0,.69,2a4.53,4.53,0,0,1,.31.8Zm5.71-.05a1.36,1.36,0,0,1,0,.58.62.62,0,0,1-.06.36.83.83,0,0,1-.5.39,1.93,1.93,0,0,1-.74.08A2.18,2.18,0,0,1,76,32.11h0a3,3,0,0,1-.58-1h0L75.38,31h0l-.72-2.07v0a1.11,1.11,0,0,1,.24-.69h0a.76.76,0,0,1,.55-.29,1.91,1.91,0,0,1,1-.06c.14,0,.21.13.23.08l0-.15.12.1.66.53,0,0,.69,2a4.55,4.55,0,0,1,.31.8Zm6.16.11a1.36,1.36,0,0,1,0,.58.62.62,0,0,1-.06.36.83.83,0,0,1-.5.39,1.93,1.93,0,0,1-.75.08,2.18,2.18,0,0,1-1.22-.46h0a3,3,0,0,1-.58-1h0l-.08-.18h0L80.82,29v0a1.11,1.11,0,0,1,.24-.69h0A.76.76,0,0,1,81.6,28a1.91,1.91,0,0,1,1-.06c.14,0,.21.13.22.08l0-.15.12.1.66.53,0,0,.69,2a4.54,4.54,0,0,1,.31.8Zm6.4,0a1.36,1.36,0,0,1,0,.58.62.62,0,0,1-.06.36.83.83,0,0,1-.5.39,1.93,1.93,0,0,1-.74.08,2.18,2.18,0,0,1-1.22-.46h0a3,3,0,0,1-.58-1h0L87.94,31h0L87.22,29v0a1.11,1.11,0,0,1,.24-.69h0a.76.76,0,0,1,.55-.29,1.91,1.91,0,0,1,1-.06c.14,0,.21.13.22.08l0-.15.12.1.66.53,0,0,.69,2a4.56,4.56,0,0,1,.31.8Zm6.48,0a1.36,1.36,0,0,1,0,.58.62.62,0,0,1-.06.36.83.83,0,0,1-.5.39,1.93,1.93,0,0,1-.75.08,2.18,2.18,0,0,1-1.22-.46h0a3,3,0,0,1-.58-1h0L94.42,31h0L93.7,29v0a1.11,1.11,0,0,1,.24-.69.76.76,0,0,1,.56-.29,1.91,1.91,0,0,1,1-.06c.14,0,.21.13.22.08l0-.15.12.1.66.53,0,0,.69,2a4.54,4.54,0,0,1,.31.8Zm5.87.16a1.36,1.36,0,0,1,0,.58.62.62,0,0,1-.06.36.83.83,0,0,1-.5.39,1.92,1.92,0,0,1-.74.08,2.18,2.18,0,0,1-1.22-.46h0a3,3,0,0,1-.58-1h0l-.08-.18h0l-.72-2.07v0a1.11,1.11,0,0,1,.24-.69h0a.76.76,0,0,1,.55-.29,1.91,1.91,0,0,1,1-.06c.14,0,.21.13.22.08l0-.15.12.1.66.53,0,0,.69,2a4.53,4.53,0,0,1,.31.8Zm15.35-2h0A2.84,2.84,0,0,0,116.63,31a5.9,5.9,0,0,0-.67,3.38h0v.08a5.75,5.75,0,0,0,1.22,3.13,2.76,2.76,0,0,0,2.31,1.12h0a2.84,2.84,0,0,0,2.12-1.56,5.9,5.9,0,0,0,.67-3.38v-.09h0a5.75,5.75,0,0,0-1.22-3.13,2.76,2.76,0,0,0-2.31-1.12Zm0,.24h0a2.68,2.68,0,0,1,2.25,1.08,5.38,5.38,0,0,1,1.14,2.93h0v.08h0a5.52,5.52,0,0,1-.63,3.16,2.75,2.75,0,0,1-2.07,1.5h0a2.68,2.68,0,0,1-2.25-1.08,5.38,5.38,0,0,1-1.14-2.93h0v-.08h0a5.52,5.52,0,0,1,.63-3.16,2.75,2.75,0,0,1,2.07-1.5ZM50.37,38.43c-6.91,0-16.31.15-24.64.47-5.34.21-10.24.48-13.76.8,4.33-.22,11.21-.49,18.34-.7s14.67-.37,20-.36l0-.21ZM14.76,40c6.55.06,13.69-.07,20.85-.2,4.91-.09,9.82-.18,14.56-.21l0-.12c-6.35,0-13.75.12-21,.25-5,.09-10,.19-14.46.29Zm101.82-1.47H59l0,.13h57.62l-.06-.13Zm.46,1.06-.09-.21h-58l0,.29L117,39.55Z"/></g></g></svg>