<svg xmlns="http://www.w3.org/2000/svg" viewBox="0 0 145.79 71.2"><defs><style>.cls-1,.cls-4{fill:none;}.cls-1,.cls-2,.cls-4{stroke:#231f20;}.cls-1,.cls-2{stroke-width:0.89px;}.cls-2{fill:#fff;}.cls-3{fill:#231f20;}.cls-4{stroke-width:0.45px;}</style></defs><title>H-850XP</title><g id="Layer_2" data-name="Layer 2"><g id="Layer_1-2" data-name="Layer 1"><path class="cls-1" d="M.69,33.79a17.74,17.74,0,0,1,5.76-3.58c3.49-1.31,10.13-3.49,10.13-3.49l6.37-3.58a13.6,13.6,0,0,1,4.1-1h3.23L82,24.28a1.86,1.86,0,0,0,.52.79,4.68,4.68,0,0,0,1.75.87c.61.09,10.39,2.18,12.13,2.71s5.59,1.66,7.42,2.1l7.68,1.83a3.9,3.9,0,0,1,2.09.87l.61.52a8.33,8.33,0,0,1-2.88,2.18c-1.48.52-22.35,7.16-26.54,7.51S56.38,42.61,52.1,42a68.37,68.37,0,0,1-8.64-1.92s-10.48.09-18.07-.52-16.15-1.83-19-2.79A24.85,24.85,0,0,1,.69,33.79Z"/><path class="cls-1" d="M83.27,23.49c.7.09,15.36.35,15.36.35L127.09,10a6.71,6.71,0,0,1,2.79-.35c1.4.17,7.16.17,7.16.17l-7,6.63a10.94,10.94,0,0,1,1.92.79c.52.35-1.75.61-1.75.61l-7.51,5.76-9.51,9.52L100,29.78l-6.11-1.92s-8.9-1.66-9.6-1.92-1.31-.26-1.75-.87l-.44-.61Z"/><path class="cls-1" d="M55.33,23.14l4.1-15.71S61.62,5.6,62.32,5.6a38.46,38.46,0,0,1,3.93.79L71.14,22.1,72,23.84Z"/><path class="cls-2" d="M56.56,42.7A37.85,37.85,0,0,1,71,42.17c8.38,1.22,13.18,1.66,13.18,1.66a13.83,13.83,0,0,0,1.92,2.88c1,1,13.71,11.09,13.71,11.09L118,69.32l1.75,1a40.25,40.25,0,0,1-6.72.35c-3.06-.17-3.84-.44-4.45-.7s-38-19.38-38-19.38Z"/><polygon class="cls-1" points="62.93 5.51 67.91 0.45 69.74 0.45 65.9 6.21 62.93 5.51"/><path class="cls-2" d="M115.92,70.46a4.86,4.86,0,0,0,1.66-.52c.79-.44,5.33-4.71,5.33-4.71l2.36-.52-5.06,5.76Z"/><path class="cls-1" d="M113.74,16.07l-.52-9.17s3.93-.52,5.94-.52h2l3.4,4.54Z"/><path class="cls-2" d="M114.26,17.12s5.94-.44,8.55-.35,4.89.09,5.59.09a4.26,4.26,0,0,1,1.83,1l.87,1,13.53,9.78s-5.76.87-6.9.87a5,5,0,0,1-2.27-.7Z"/><path class="cls-2" d="M86.76,34.75a26.14,26.14,0,0,1,2.88-.35c1.49-.09,11.09.17,12.31.17h2.53l5.67,1.4a4.2,4.2,0,0,1,.52,2.62,4.75,4.75,0,0,1-.52,1.66s-4.63,3-13.71,3.4-10.39-1.31-10.39-1.31-1.4-.61-1.48-3.93S86.76,34.75,86.76,34.75Z"/><path class="cls-1" d="M76.2,23.75A10.68,10.68,0,0,1,80.3,23l7,.7-4.8.61Z"/><path class="cls-1" d="M87.2,34.84a5.12,5.12,0,0,1,1.4,3.23,9.86,9.86,0,0,1-.44,3.75,4.77,4.77,0,0,1-.87,1.31"/><ellipse class="cls-3" cx="86.63" cy="38.94" rx="1.09" ry="3.49"/><polygon class="cls-3" points="114.78 17.29 116.7 17.29 134.6 27.51 133.81 27.6 114.78 17.29"/><polygon class="cls-3" points="113.74 16.07 113.13 7.52 113.82 7.52 115.05 15.37 113.74 16.07"/><polygon class="cls-3" points="57.17 23.41 55.34 23.14 59.44 7.43 59.96 7.08 57.17 23.41"/><path class="cls-3" d="M56.82,43.13a13.17,13.17,0,0,1,2.27-1,8.46,8.46,0,0,1,2.18,0L109.2,69.24l-.61.79-14-7L69.39,50.29Z"/><polygon class="cls-3" points="15.7 27.25 16.05 28.12 22.16 24.71 22.16 23.75 15.7 27.25"/><path class="cls-3" d="M16.31,28.56l6.11-3.49a7,7,0,0,0,1.14.87,16.43,16.43,0,0,0,2,1,8,8,0,0,1-.79,2,12,12,0,0,0-.87,2s-3.06-.44-4.45-.61a3.53,3.53,0,0,1-2.1-.7A5.37,5.37,0,0,1,16.31,28.56Z"/><path class="cls-3" d="M25,30.56l1.31-2.71s.17-.44,1-.26a8.37,8.37,0,0,0,1.48.17A1.15,1.15,0,0,1,29.15,29,14.8,14.8,0,0,0,29,31.26s0,.44-1,.44-1.83-.35-2.36-.35S25,30.56,25,30.56Z"/><polygon class="cls-3" points="29.58 31.09 30.02 28.12 31.85 28.12 31.94 31.79 29.76 31.79 29.58 31.09"/><path class="cls-4" d="M33.51,39.9A24.81,24.81,0,0,0,35.17,36a17,17,0,0,0,.79-3.4,2.54,2.54,0,0,1,2.79-2,2.74,2.74,0,0,1,2.71,2.53,31.2,31.2,0,0,1-1.13,4.8A20.39,20.39,0,0,1,39,40.17Z"/><path class="cls-3" d="M84.06,39s-55.17-1-60.67-1.31S5,35.19,5,35.19,18.15,38,23.3,38.25,84.23,40,84.23,40Z"/><path class="cls-3" d="M49.66,32.66c.09-1.66.44-1.66,1.13-1.57s1,.52.87,1.75-.35,1.48-1.31,1.48S49.66,32.66,49.66,32.66Z"/><path class="cls-3" d="M54.2,32.75c.09-1.66.44-1.66,1.14-1.57s1,.52.87,1.75-.35,1.48-1.31,1.48S54.2,32.75,54.2,32.75Z"/><path class="cls-3" d="M59,32.83c.09-1.66.44-1.66,1.14-1.57s1,.52.87,1.75-.35,1.48-1.31,1.48S59,32.83,59,32.83Z"/><path class="cls-3" d="M63.72,33c.09-1.66.44-1.66,1.14-1.57s1,.52.87,1.75-.35,1.48-1.31,1.48S63.72,33,63.72,33Z"/><path class="cls-3" d="M68.78,33.18c.09-1.66.44-1.66,1.14-1.57s1,.52.87,1.75-.35,1.48-1.31,1.48S68.78,33.18,68.78,33.18Z"/><path class="cls-3" d="M73.58,33.27c.09-1.66.44-1.66,1.14-1.57s1,.52.87,1.75-.35,1.48-1.31,1.48S73.58,33.27,73.58,33.27Z"/><line class="cls-1" x1="124.82" y1="11.27" x2="135.13" y2="11.71"/></g></g></svg>