<svg xmlns="http://www.w3.org/2000/svg" viewBox="0 0 132.94 64.84"><defs><style>.cls-1,.cls-4{fill:none;}.cls-1,.cls-2{stroke:#231f20;stroke-width:0.43px;}.cls-2{fill:#fff;}.cls-3{fill:#231f20;}</style></defs><title>H-900</title><g id="Layer_2" data-name="Layer 2"><g id="Layer_1-2" data-name="Layer 1"><path class="cls-1" d="M39.6,36.37S27.85,36,19.51,35.57a61.79,61.79,0,0,1-16.2-3c-1.83-.64-3.1-1-3.1-2s4.6-3.1,7.23-4L14,24.14l.56-.24,6-3.18a8.45,8.45,0,0,1,3.73-.87c2.38-.08,3.89,0,3.89,0l22.23.95,24.38,1s.16.56.56.56h.4a2.93,2.93,0,0,0,1.51.79l9.05,2.14s4.29,1.35,5.4,1.75,8.18,1.67,8.18,1.67l3,.48,1.51,1.59a7.08,7.08,0,0,1-1.83,1.35c-1.19.64-1.91,1-1.91,1s-19.61,6.19-21.2,6.27-27.15-.71-29.62-1a66.35,66.35,0,0,1-7.78-1.35Z"/><path class="cls-1" d="M77,21c.72,0,12.78.56,12.78.56a14.3,14.3,0,0,0,2.78-1L116.62,8.42s5-.08,6,0l2.78.24-6,6.11s1.27-.08,1.27.56-1.11.64-1.11.64l-5.48,3.41-10.24,9.85L92.48,27.31a46.14,46.14,0,0,0-5.32-1.75c-1.19-.16-8.1-2-8.89-2.14a15.43,15.43,0,0,1-1.91-.79c-.56-.16-1-.24-1-.24a.7.7,0,0,1-.56-.56c-.08-.48.4-.63,1-.71Z"/><path class="cls-1" d="M50.47,20.8,54.21,6a25,25,0,0,1,2.94-1.51,6.09,6.09,0,0,1,2.06.08l1.19.71,5.32,16.12Z"/><path class="cls-1" d="M72.31,20.56a30.92,30.92,0,0,1,3.18.16c.4.08,1.51.24,1.51.24a7.66,7.66,0,0,0-1.59.24c-.32.16-.63.63-.56.63l-4.76-.24s0-.71,1-.87A9.48,9.48,0,0,1,72.31,20.56Z"/><polygon class="cls-1" points="104.07 14.69 103.75 5.72 111.46 5.4 111.77 6.19 114.08 9.53 104.07 14.69"/><path class="cls-2" d="M105.34,15c.56,0,7.07-.24,7.86-.24s5.24.4,5.24.4l14,10.56s-3.73.71-5.16.79a4.44,4.44,0,0,1-3.18-.64c-.87-.64-19.53-10.32-19.53-10.32S104,15,104.47,15Z"/><path class="cls-1" d="M51.35,38.83s.4-.71,2.06-.87a64.6,64.6,0,0,1,10.4,0c2.7.4,7.94,1,9.69,1.11s2.94.32,2.94.32a12.1,12.1,0,0,0,1.27,2.38,4,4,0,0,0,1.43,1l12.39,9.92L108,63.2l1.75,1s-6.91.79-8.81.32a9.63,9.63,0,0,1-3.1-1.35l-22-11s-14-7.54-16.51-8.89S51.35,38.83,51.35,38.83Z"/><path class="cls-2" d="M80.89,31c1,0,10.8,0,12.46.08a37.23,37.23,0,0,1,5.08.71,9.66,9.66,0,0,0,1.83.24,5,5,0,0,1,1.11,2.3,3,3,0,0,1-.71,1.75l-.16.87s-8.65,2.7-12.94,2.7A30.92,30.92,0,0,1,79.78,39a3.87,3.87,0,0,1-2.3-1.67,7.32,7.32,0,0,1-.08-4.13,2.15,2.15,0,0,1,1.11-1.67A4.64,4.64,0,0,1,80.89,31Z"/><path class="cls-3" d="M52.46,39.3a2.46,2.46,0,0,1,1.19-.56,17.81,17.81,0,0,1,2.46-.16L90.49,58.52l9.37,4.61-1.27.24L75.41,52Z"/><path class="cls-1" d="M78.11,31.92a1.93,1.93,0,0,1,1-.56c.48,0,1.83,1.35,1.91,2.78a7.65,7.65,0,0,1-.56,3.65c-.4.64-.64,1-1.19,1"/><path class="cls-3" d="M57.23,4.21,62.07,0l1.35.08-3,5a1.82,1.82,0,0,0-1.19-.48A9.12,9.12,0,0,1,57.23,4.21Z"/><path class="cls-3" d="M105.9,64.31a8.19,8.19,0,0,0,1.51-.48c.71-.32,5.56-4.6,5.56-4.6l1.59-.08-4.76,5Z"/><path class="cls-3" d="M14,24.14a4.35,4.35,0,0,0-.16,1v.4l6.19-3.41L19.91,21Z"/><path class="cls-3" d="M14.51,25.73l5.64-3s.32.24,1.19.79a10.12,10.12,0,0,0,1.75.87l-1.83,3.57a23.59,23.59,0,0,1-4.76-.64A5.12,5.12,0,0,1,14.51,25.73Z"/><path class="cls-3" d="M22.37,27.71l1.43-3,2.46.4-.16,3.57s-2.38-.24-2.94-.32A1.12,1.12,0,0,1,22.37,27.71Z"/><polygon class="cls-3" points="27.05 25.17 29.12 25.25 28.96 29.06 26.58 28.82 27.05 25.17"/><path class="cls-3" d="M45.08,29.62c0-1.59.48-1.43,1.11-1.43s.87.4.79,1.51.08,1.43-1.11,1.43S45.08,29.62,45.08,29.62Z"/><path class="cls-3" d="M49.29,29.62c0-1.59.48-1.43,1.11-1.43s.87.4.79,1.51.08,1.43-1.11,1.43S49.29,29.62,49.29,29.62Z"/><path class="cls-3" d="M53.49,29.78c0-1.59.48-1.43,1.11-1.43s.87.4.79,1.51.08,1.43-1.11,1.43S53.49,29.78,53.49,29.78Z"/><path class="cls-3" d="M57.94,30c0-1.59.48-1.43,1.11-1.43s.87.4.79,1.51.08,1.43-1.11,1.43S57.94,30,57.94,30Z"/><path class="cls-3" d="M62.7,30c0-1.59.48-1.43,1.11-1.43s.87.4.79,1.51.08,1.43-1.11,1.43S62.7,30,62.7,30Z"/><path class="cls-3" d="M66.83,30.17c0-1.59.48-1.43,1.11-1.43s.87.4.79,1.51.08,1.43-1.11,1.43S66.83,30.17,66.83,30.17Z"/><line class="cls-1" x1="71.04" y1="20.72" x2="71.44" y2="21.6"/><ellipse class="cls-3" cx="78.98" cy="35.02" rx="1.11" ry="2.94"/><ellipse class="cls-4" cx="77.83" cy="34.98" rx="0.12" ry="0.04"/><path class="cls-1" d="M30,36a9.35,9.35,0,0,0,1.51-2.22,19.81,19.81,0,0,0,1.11-4.68c0-.79.63-1.83,2.7-1.75a2.25,2.25,0,0,1,2.22,2.46,14,14,0,0,1-.48,3.26,12.63,12.63,0,0,1-1.27,2.54l-.4.64Z"/><polygon class="cls-3" points="104.07 14.69 105.18 14.05 104.23 5.72 103.75 5.72 104.07 14.69"/><polygon class="cls-3" points="105.26 15.72 106.69 15.56 123.37 24.69 122.49 24.93 105.26 15.72"/><polygon class="cls-3" points="52.06 20.8 50.47 20.8 54.21 5.72 54.68 5.96 52.06 20.8"/></g></g></svg>