<svg xmlns="http://www.w3.org/2000/svg" viewBox="0 0 97.62 25.45"><defs><style>.cls-1{fill:#231f20;fill-rule:evenodd;}</style></defs><title>H_400xp</title><g id="Layer_2" data-name="Layer 2"><g id="Layer_1-2" data-name="Layer 1"><path class="cls-1" d="M9,0c3.8.53,6,2.91,8.92,4.76a9.22,9.22,0,0,1,2.54.73c0,.13.13.2.17.36l-.17.56A9.08,9.08,0,0,0,23.3,8.3c1.65,1.65,4.76,1.92,7.17,2,4.43.46,9.25-1.09,13.35.69h3.93l.2-.56a2.71,2.71,0,0,1,1.69.1c.26.13.43.46.66.46,7.87.4,15.86-.69,23.79.63,3.83,2,7.44,4.69,12.23,5.65,1.22.56,2.51,1.09,3.07,2.35A1.12,1.12,0,0,1,89,20.92C78.65,24,68.41,22.31,58.13,23.56a47.32,47.32,0,0,0-6.61,1.75c-6.81.79-13.68-2-20.16-1.88a3.64,3.64,0,0,1-1.65-.17l-.26-.79c-2.91-.33-6,.13-9,0L18.9,20.26,17.45,20a1.6,1.6,0,0,0-.07-.16.35.35,0,0,1,.07-.2l.89-.36s.1-.1.13-.2a2.31,2.31,0,0,0-1.22-1.45C15.66,13.71,13,10.81,11,7.37,7.54,6,3.64,6.15.07,5.09A.31.31,0,0,1,0,4.86C2.12,3.24,5.16,3.14,7.73,3.44c.36-.13-.07-.66-.2-.89C7.2,1.95,6.48,1.59,6.38,1c0-.1.07-.13.07-.23A1.28,1.28,0,0,0,6.61.63L9,0ZM8.43,1.26c3.47-.4,5.59,1.92,8,3.9l-4.46-.46-4-3.24c.07-.17.33-.17.5-.2Zm5.88,5A9.35,9.35,0,0,1,22,8.82l0,1c.26.1.23-.3.4-.46a.62.62,0,0,0,.23-.07c5.42,3.11,12.16,1.22,18.18,1.88-2.74.3-5.59.63-8.33,1.12-5.78,2.58-10.61.89-14.34-2.61a22.75,22.75,0,0,1-4-3.4s0-.1.13-.07Zm35.3,5.52c3.44.63,7.11.13,10.67.26a37.08,37.08,0,0,1,4.26-.07c.07.07.07.17,0,.2a.69.69,0,0,0,.13.36l.43.2.56-.2c.13-.16.23-.5.53-.56,2.78.2,5.72,0,8.39,1,0,.2-.26.2-.43.26l-.66-.17-.69.36a2.19,2.19,0,0,0-1.52-.36c-.53.17-.59.73-.53,1.32.1.26,0,.33.1.5a.72.72,0,0,0,.76.56,3.13,3.13,0,0,0,.79,0c.17-.1.23-.33.4-.53a3.47,3.47,0,0,1,.23.36c.46.33,1.16.07,1.62,0s.4-.23.59-.3l.79.5,1.95-.1c2.68,1.29,6.58,2,9.29,3.44.4.33.76.53,1.16.89v.17c-9.55-1.29-19.3-1.42-29-2.18-.23-.2-.23-.33-.5-.3-4.83.1-9.95-.46-14.84-.83l-7.27-.4c-.66-.66-1.19-1.55-2.31-1.65-1.65,0-3.17-.3-4.76-.23a39.25,39.25,0,0,1,7.4-1.55c4.13-.79,8.53-.3,12.43-1ZM38,13.15l.53.07c0,.07.07.13.1.23s0,.13-.1.23l-.53.23a.5.5,0,0,1-.36-.13l-.07-.2a.61.61,0,0,1,.07-.23.56.56,0,0,1,.36-.2Zm5.25,1.06.4.2c.36.4.13,1.16-.1,1.52a.8.8,0,0,1-1-.07l.07-1.22c.07-.23.36-.36.66-.43Zm2.88,0h.3c.56.17.66.73.56,1.35a1.58,1.58,0,0,1-.2.36c-.23.2-.69.36-1,.13a1.71,1.71,0,0,1-.07-1.65c.1-.07.2-.2.36-.2Zm9.65,0a.94.94,0,0,1,.89.53l-.23,1.42c-.13.07-.13.13-.3.2l-.43-.13c-.46-.3-.3-1-.3-1.62a2.49,2.49,0,0,1,.33-.4Zm-6.38.1.66.07c0,.07.07.1.17.13l0,1.26a.73.73,0,0,1-.66.5c-.23,0-.36-.13-.5-.17A2,2,0,0,1,49,14.51c.1,0,.2-.2.36-.2Zm3.3,0a1.14,1.14,0,0,1,.66.13,1.55,1.55,0,0,1,0,1.52s0,.07-.13.17-.4,0-.59,0a.69.69,0,0,1-.46-.4l.1-1.09a.5.5,0,0,1,.43-.36Zm6.18,0h.4a.66.66,0,0,1,.46.43l-.23,1.35a.84.84,0,0,1-1,0s0-.1-.13-.17V14.67a.59.59,0,0,1,.5-.36Zm-29,1h3.83c.2,0,.23.17.23.3s0,.07-.1.13l-4.13-.3c0-.07.1-.13.17-.13Zm7.3,2.12,13.05.73-13.35-.56c0-.1.17-.17.3-.17Zm36.55.1a1.28,1.28,0,0,1,.83.2.31.31,0,0,1,0,.3l-1.26.26c-.1,0-.07-.1-.16-.13a.53.53,0,0,1,0-.33l.59-.3Zm-54.3.56,1.85.2c.2.07.07.33.23.43a.44.44,0,0,1,.23.2l-2.18,0-.3-.56a.93.93,0,0,1,0-.26c.07,0,.1,0,.13,0Zm5.49.23,8.79.43a9.58,9.58,0,0,0-3.4.66c-2.31-.26-4.63-.07-6.81-.93L25,18.31Zm31,.23h0Zm2,.07h0Zm-20.65.2L85.5,20.72C79.35,22.31,73.23,22,67.05,21.94c-9.48-.4-18.7,4.46-28,1.16A54.92,54.92,0,0,1,32.92,22l15.4,1.22c1.69.1,3.64.79,5-.3a1.52,1.52,0,0,0,.36-1.35C50.1,19.63,45.41,20,41.38,19.7c-.46.23-1.09,0-1.29.33-.1.1,0,.23-.1.33s-.53,0-.73-.13a5.63,5.63,0,0,0-2.78-1.35l.83-.07Zm23-.1h0ZM33.11,19.8l2.54.17a.74.74,0,0,1-.36,0c-.26.07-.46,0-.76.07l-1.42-.2Zm3.3.17.76,0h-.83l.07,0Zm-15.86.63a10.12,10.12,0,0,1,4.2.59l-3.77.4c-.26-.23-.3-.59-.5-1l.07,0Zm21.94.07,3.93.26-3.93-.26Zm25.22-.07h.53c.13,0,.23.2.2.4a1.3,1.3,0,0,1-.86.1c-.13-.1-.07-.33,0-.46a.36.36,0,0,0,.17,0ZM52.05,21.91a.69.69,0,0,1,.2.07c-.07.07-.17,0-.26,0l.07,0ZM97.62,23.4v.36c-.13-.07,0-.23-.07-.36Z"/></g></g></svg>