<svg xmlns="http://www.w3.org/2000/svg" viewBox="0 0 151.61 64.69"><defs><style>.cls-1{fill:#231f20;fill-rule:evenodd;}</style></defs><title>JetCommander</title><g id="Layer_2" data-name="Layer 2"><g id="Layer_1-2" data-name="Layer 1"><path class="cls-1" d="M0,45.27l.14-.52c6.41-1.36,13.17-2.11,19.64-3.48l.13-.2a.09.09,0,0,1,0,.09C29.26,40,38.81,38.07,48.16,36.5c0,0,0,0,0-.08l-5.08-3.56-3.34-1c-.33-.09-.55-.22-.83-.28-1.77-.7-3.28-1.5-4.86-2.31-.34-.2-.7-.39-.77-.86a5.19,5.19,0,0,1,.61-3.22,4.67,4.67,0,0,0,.73-.73l-.89-5.26c-4.3-.2-8.67,0-13-.11-.73.13-1.47,0-2.19.14-.14,0-.2,0-.31,0-2.28,0-4.8.75-6.92-.33a1.79,1.79,0,0,1-.25-.28l-.22,0s0,0-.06-.06l-.08-.73c1.61-.37,3.56-.09,5.3-.36l4.33-.17c1.67-.06,3.3-.14,4.94-.25,2.66-.31,5.34,0,7.92-.58a34.53,34.53,0,0,0-.34-5.2c-.17-1-.22-1.92-.44-2.86-.28-2.22-.78-4.34-1-6.48a1.57,1.57,0,0,1,0-1L32.87.57,33,.23c.28-.33.88-.22,1.27-.17a.2.2,0,0,1,.17.06l.17.53c.53.19,1.47-.16,1.89.52a14.88,14.88,0,0,1,.92,1.5c2.37,4.37,4.33,9.06,6.8,13.39L55,15.33c1.39,0,3-.22,4.17.52a.49.49,0,0,1,.06.52c-1.56,1-3.86.53-5.69,1.09-1.08,0-2.12.19-3.17.33-1.64.23-3.2.47-4.8.56l-.19.16A9.44,9.44,0,0,0,46.85,21c1,.92,1.83,2,3,2.41,6.28-.23,13.65-.56,18.81,3.28.27.23.27.62.66.72,3,.55,6.14,1.08,9.15,1.58.66.09,1.34.27,2,.31,5.3,1.17,10.47,1.62,15.67.11a8.49,8.49,0,0,1,2-.27c6.45-.52,13.26-3.75,19.42-1.36.11.17-.06.5-.13.67-3.36,1.89-7.09,3.08-10.22,4.94a23.26,23.26,0,0,0,4.2.86,35.42,35.42,0,0,1,4,.53,37.79,37.79,0,0,1,4.91,1,8,8,0,0,0,1.12.61,18.18,18.18,0,0,1,5.47,4c.44.47.77,1,1.12,1.39a14.07,14.07,0,0,0,1.59,1.81A19.46,19.46,0,0,0,132,46.91a34.54,34.54,0,0,1,3.91,1.69c2.56,1.33,5,2.53,7.39,3.89a31,31,0,0,1,3.8,2.56c.72.67,1.56,1.47,2.31,2.23a10.61,10.61,0,0,1,1.73,2.23c.17.83.8,1.69.36,2.45-1.41,1.66-4,1.78-6,2.33-2.06.31-4,.25-6.06.39l-4.58-.22c-1.11.36-2.42-.28-3.64,0-.92-.2-1.78-.23-2.61-.41l-.3.14c-1.89-.47-4.09-.75-6-1.06-.48-.11-.91-.19-1.36-.3-9.87-1.42-19.59-4.69-29.39-7.23-1.62-.56-3.41-1-5-1.53-.69-.17-1.39-.37-2-.61a26.94,26.94,0,0,0-4-1.28C75.41,50.3,70.77,48,65.82,46c-11-5.62-24.36.23-36.45.17-7.94.64-15.79,1.78-23.7,2.37A17.37,17.37,0,0,1,.58,46c-.28-.23-.52-.36-.58-.7Zm2.17.52.52.2s0,.08-.09.09l-.42-.3ZM3,45a4.28,4.28,0,0,1,2.42-.17A4.64,4.64,0,0,0,8.55,45c5.92-.91,12-2.58,17.83-2.53h.36a.32.32,0,0,0,.2-.22l-.09-.2c6.36-1,12.73-2.14,19.15-2.92.14,0,.27.17.47.17s.25-.27.36-.39c4.52-.72,9-1.55,13.54-2.17l3.42-.48a.61.61,0,0,0,.38-.41c0-.16-.17-.28-.3-.34a11.25,11.25,0,0,1-1.81-.61c4.78-.2,10.25,1.53,14.31,3.73.28.23.58.41.8.61,0,0,0,.06,0,.08-5.83.73-11.62,1.41-17.45,2.11-1.55.17-3,.28-4.5.55-4.22.41-8.44.92-12.64,1.39a4.83,4.83,0,0,0-1,.14c-.8-.08-1.53.31-2.3.11-5.78.63-11.39,1.33-17.08,2-3.45.37-6.8.94-10.22,1.28-3.66,1.19-6.08-.22-9-1.8L3,45Zm2.17,2.34.62.31-.64-.31Zm1-2.92a7.91,7.91,0,0,0,.87-.19c4.45-1,9-1.56,13.39-2.25a11,11,0,0,1,2.39-.47c.42,0,.83-.19,1.17-.17a7.36,7.36,0,0,1,.87-.19c1.17-.14,2.31-.39,3.47-.55,1.12-.34,2.41-.13,3.39-.66.42,0,.86-.17,1.3-.23,1.34-.17,2.69-.44,4-.61a11.84,11.84,0,0,0,1.58-.28c3.12-.47,6.23-1.12,9.31-1.53,4.81-.44,10-2.81,14.75-1.56a.57.57,0,0,1-.36.09c-5.62.61-11.44,2.39-16.89,2.27-.14,0-.28,0-.36,0l0,.39c-.36.08-.73.13-1.12.23-4.7.69-9.23,1.56-14,2.14a15.2,15.2,0,0,1-4.89.47c-.08.06,0,.19,0,.3-1.22.31-2.55.28-3.83.66-1.3.14-2.53.41-3.81.56-3.34.5-6.76,1.34-10.09,1.78a2.57,2.57,0,0,1-1.17-.23l0,0Zm6.2-26.28,0,0c2.61-.16,5.19-.34,7.81-.44a.8.8,0,0,0,.22.06s0-.06.09-.06c3.2-.11,6.47-.45,9.7-.42a24.34,24.34,0,0,1,6.66.12c-5.25,0-10.65.58-15.92.89a12.11,12.11,0,0,1-1.83,0c-1.22.08-2.39.06-3.56.23-.91-.11-2,.3-2.69-.09a4,4,0,0,1-.52-.25v-.06ZM31.89,1.63V1.49a9.29,9.29,0,0,1,2.3-.06c.39,0,.78,0,1.14,0,.17.11-.23.17-.22.36a5.19,5.19,0,0,1,.42.78c.75,1.53,1.75,2.84,2.36,4.47,1.87,3.45,3.45,7.25,5.34,10.62,0,.7.52,1.22.69,1.92a31.4,31.4,0,0,0,3,3.59c1.22,1.58,3.27,1.44,5.06,1.87.72.13,1.39.28,2.06.34.77.23,1.5.17,2.19.39a6.78,6.78,0,0,1,1.34.19c.5.17,1,.11,1.44.38,1.56.19,3,.41,4.58.55,1.8.41,3.67.67,5.34,1.06a15.48,15.48,0,0,0,1.73.42c1.69.19,3.3.47,5,.75.81.08,1.53.19,2.36.31,10,1.75,19.93,2.89,29.87,4.8.67,0,1.33.36,2,.31,5.51.67,11.58,1.08,15.31,5l.09.2c-.27.33-.7.52-.78,1.11,1.36,1.91,3.14,3.55,4.69,5.39L130.9,48l.14.27a.33.33,0,0,0,.41,0c.2-.17.38-.36.52-.5a13.67,13.67,0,0,1,2,.69c1.19.66,2.45,1.16,3.59,1.78,1.44.69,2.81,1.39,4.11,2.12.3.22.58.37.84.55a31.91,31.91,0,0,1,5.36,3.78A8.28,8.28,0,0,1,151,61.36a.25.25,0,0,1-.09.2c-.52.17-.73.56-1.25.73a6.36,6.36,0,0,1-1.34.58,55.6,55.6,0,0,1-5.64.89,82.5,82.5,0,0,1-11.12-.08,8.57,8.57,0,0,1-1.2-.25c-3.17-.28-6.31-.7-9.44-1.3a103.4,103.4,0,0,1-13.19-2.89c-2-.53-3.94-1.14-6-1.59-.78-.28-1.52-.47-2.25-.7-1-.28-2-.56-3-.73-1.31-.27-2.48-.83-3.75-1.08-4-1.08-7.81-2.44-11.62-3.67-4.55-1.67-8.8-3.58-13.22-5.36a69.17,69.17,0,0,1-6.51-3,17,17,0,0,1,4.17-.36l.06.22c3.58,2.12,8.53,3.17,12.47,5.08a10.75,10.75,0,0,1,1.31.41c1.78.63,3.51,1.28,5.31,1.77,3.06.91,6.19,1.7,9.11,2.77a22,22,0,0,0,2.14.61c3.77,1.09,7.61,2.06,11.34,3a53.51,53.51,0,0,1,5.8,1.31c.69.08,1.31.3,2,.39.39.11.73,0,1,.25a9.15,9.15,0,0,1,1.23.23c.44.06.78.2,1.16.28,2.62.59,5.25.72,7.81,1.17.25.13.45,0,.69.09a89.32,89.32,0,0,0,13.17,1.08c2.83-.06,5.69-.23,8.44-.47a.53.53,0,0,0,.08-.42,1.44,1.44,0,0,0-.3-.27,17.51,17.51,0,0,1-2.66-.25c-3.67-.67-7.39-1.39-11.09-2.09-5.78-1.41-11.84-2.53-17.53-3.91-4.08-.87-8.34-2-12.31-3.12-4.62-1.08-9.28-2.19-13.78-3.47a11.52,11.52,0,0,1-1.11-.36L89.75,47a31.43,31.43,0,0,1-3.87-.89c-1.31-.52-2.77-.83-4-1.3a1.88,1.88,0,0,1-.67-.2L73,42a22,22,0,0,1,4.56-.45l.56.36c.06,0,.06,0,.11.09l.22,0c.11,0,.16-.16.31-.17s.06-.06.08-.13l.33-.27.44-.17a.74.74,0,0,0,0-.78c-2.5-2.69-5.92-3.91-9.56-5a33.72,33.72,0,0,0-7.78-1.34,9.61,9.61,0,0,1-1.64,0,10.46,10.46,0,0,1-4,.89,12,12,0,0,1-5-2.19c.66-.44,1.61-.67,1.86-1.52a5.33,5.33,0,0,0,0-2.22c-.14-.56-.52-.86-.72-1.33a11.87,11.87,0,0,0-4.19-2c-.92-.22-1.73-.53-2.59-.72s-1.83-.38-2.72-.5c-.17-.22-.47-.34-.67-.58a18.49,18.49,0,0,1-2.67-3c-.25-.66-.73-1-.89-1.72.55-.34,1.37-.41,1.66-1a3.8,3.8,0,0,1,0-.42c0-.06.06-.08.08-.17a.09.09,0,0,0-.06-.08A3.29,3.29,0,0,0,39.21,17c-.41-.2-.83-.09-1.23-.22a27.6,27.6,0,0,1-2.48-5.45c-.62-1.19-1-2.58-1.52-3.7a2.61,2.61,0,0,0-.39-1c-.34-.5-.25-1.25-.69-1.64-.39-.94-.23-2-.88-2.72l-.14-.58Zm1.3,8V9.23c.23.59.23,1.25.45,1.84.39,1.81,1,3.47,1.42,5.2l-.73,0c-.58-2.14-.73-4.44-1.14-6.64Zm1.41,18.58a8.38,8.38,0,0,1,.09-1,6,6,0,0,1,.37-.78.76.76,0,0,1,.34-.66,2.73,2.73,0,0,1,1.94-.94,46.34,46.34,0,0,1,7.5.55,13.91,13.91,0,0,1,3,.78c-.36.27-.84.39-1.14.78-.72.52-.77,1.47-1,2.28a4.19,4.19,0,0,0,.92,3.39A10.7,10.7,0,0,1,42.18,32a41.75,41.75,0,0,1-5.89-2.22c-.33-.11-.47-.31-.78-.39a1.29,1.29,0,0,0-.36-.23l-.56-1Zm.16-8.34c0-.17.06-.31.09-.48s-.08,0-.09-.08.08,0,.14.08.09-.11.17-.16l1.45,0a10,10,0,0,0,1.17,2.52,12.45,12.45,0,0,0,1.64,2.45l-3.8-.11-.78-4.26ZM36,15.16l.63,1.3c0,.08-.11,0-.2.06L36,15.16Zm1.5,4.08h.19l1.94,2.94a5.74,5.74,0,0,0,.61.64,10.77,10.77,0,0,1,1.2,1.45,3.39,3.39,0,0,1-.8,0,22.36,22.36,0,0,1-3.14-5Zm7.06,13.89a12.61,12.61,0,0,1,1.7.09c1.89.5,3.55,1.83,5.3,2.67-.22.25-.61.14-.91.27-.61.09-1.16.27-1.62-.09-1.28-.73-2.42-1.47-3.59-2.3-.34-.22-.67-.3-.91-.62l0,0Zm0-16.29s0,0,0-.06c2.87-.13,5.72-.56,8.62-.73a23.72,23.72,0,0,1,4.47,0c-2.17.34-4.39.09-6.58.63-.45.08-.89,0-1.3.11-.2,0-.39,0-.56,0-1.55,0-3,.31-4.55.34l-.14-.28Zm1.83,13.5a3.52,3.52,0,0,1,.81-2.91c.64-.36,1.31-1,2.16-.89a2.72,2.72,0,0,1,.64.27,2.77,2.77,0,0,0-1.86,1.3,3.72,3.72,0,0,0,0,3.16c.27.56.83.81,1.22,1.27l-1.52.16a.23.23,0,0,1-.14-.16c-.08-.16-.28-.17-.44-.27a1.59,1.59,0,0,1-.64-1.11,1.9,1.9,0,0,1-.23-.81Zm2.77,2.89c1.27.08,2.44,1.14,3.75,1.59.36.27.83.39,1.19.61v.11c-1.61.06-3-1.23-4.42-1.8a2.33,2.33,0,0,1-.55-.48l0,0Zm1.59-9.3a56.37,56.37,0,0,1,6.5,0,19.88,19.88,0,0,1,7.48,1.45.35.35,0,0,1,0,.11c-.39.08-.61.45-1,.7a85.39,85.39,0,0,1-9.3-1.34c-.58-.17-1.14-.23-1.73-.41a9.13,9.13,0,0,1-2-.48l0,0Zm.36,3.66a1.07,1.07,0,0,1,1,.41,3.37,3.37,0,0,1,.7,2.08c-.09.63-.17,1.33-.78,1.59l-.09,0a3.79,3.79,0,0,0,0-3,11.92,11.92,0,0,1-.89-1.06l0,0Zm13.56-1.31a1.69,1.69,0,0,1,1.45-.39,1.37,1.37,0,0,1,.31.19s0,.06,0,.11l-.67.39-1.11-.23,0-.06Zm3.14,16.2c2.73-.48,5.31,1.25,8,1.8.5.28,1.22.39,1.72.64.67.11,1.25.44,1.86.58,1.23.36,2.39.75,3.56,1.12a9.13,9.13,0,0,1,1.12.28c.2.11.42.11.59.19a4.13,4.13,0,0,1,.81.22,30.38,30.38,0,0,0,4.56,1.45c.45.22.87.22,1.28.42s.89.19,1.28.28c.73.23,1.45.41,2.11.69a5.81,5.81,0,0,1,.83.23c1.56.53,3.33.89,4.86,1.33a.46.46,0,0,0,.14,0c.37.11.75.19,1.16.31a6.27,6.27,0,0,1,1,.23,6,6,0,0,0,.59.17c.52.11,1.08.31,1.58.42,3.94,1.14,8,1.7,12,2.75a36.8,36.8,0,0,0,5,1c4.45,1,8.92,1.83,13.28,2.64.5.22.91.09,1.36.28.48,0,1,.14,1.39.2a6.36,6.36,0,0,1,1,.17c1.06.17,2.06.34,3.11.44-7.7.17-15.61-1.55-23.18-3a9.8,9.8,0,0,0-1.58-.41c-.66-.08-1.28-.22-1.89-.33-3.19-.75-6.42-1.34-9.53-2.12-.45,0-.8-.25-1.25-.27-1.84-.61-3.8-1-5.62-1.66a18.15,18.15,0,0,1-2-.5c-.22-.14-.53-.11-.72-.28-1.47-.42-3-.81-4.47-1.3-.55-.09-1-.28-1.52-.34-.94-.34-2-.53-2.83-.89-2.75-.87-5.58-1.55-8.37-2.5-.2-.41-.78-.27-1.11-.52-.58-.17-1.08-.34-1.67-.53-.89-.34-1.91-.62-2.75-1-1.33-.58-2.83-.94-4.17-1.48a15.79,15.79,0,0,1-1.55-.73l0,0Zm10.62-.27s.08,0,.13,0,0,0,0,.09-.08,0-.09-.06l0,0Zm2-.23a28.76,28.76,0,0,0,.52-4.31l.11-.19c.56-.53,1.5,0,2.23,0a10.25,10.25,0,0,1,1.52.36,11.2,11.2,0,0,1-.5,4.56c-.12.33-.3.61-.66.67a10.2,10.2,0,0,1-2.41-.42,1.78,1.78,0,0,1-.61-.25l-.2-.42Zm4.78,1,0-.25s.08,0,.13-.06a31.23,31.23,0,0,0,.89-4.22c1-.45,2.28.42,3.39.44a1.5,1.5,0,0,1,.23,1.39c-.39,1.36-.3,3-1,4.08-.94.33-1.84-.17-2.72-.3-.22-.11-.45-.17-.62-.27l-.3-.81Zm5.33,1.67c.25-1.58.48-3.19.78-4.78a1.07,1.07,0,0,1,.81-.48,15.35,15.35,0,0,1,2.77.77c.25.3,0,.78,0,1.17-.08,1.09-.39,2.16-.52,3.2-.17.44-.11,1-.55,1.16-.92,0-1.81-.5-2.75-.55a.57.57,0,0,1-.52-.48Zm.56-13.79c.31-.14.64-.08,1-.2s.86-.09,1.25-.17c1.47-.3,2.92-.3,4.37-.55,1.59-.09,3.17-.53,4.73-.7-2.22.67-4.62.81-6.76,1.37-1.53.13-3.06.88-4.61.27l0,0Zm3.41.55A12.82,12.82,0,0,1,96.8,31c1.22-.39,2.56-.48,3.86-.78,2.28-.39,4.52-.87,6.78-1.28l.14.14s.11,0,.16,0,.22-.2.28-.37c.73-.34,1.72-.28,2.48-.61,1.8-.8,3.72-.41,5.53-.19L104,33l-9.51-1.64Zm1.23,14.28.75-4.78.55-.38c.84.52,2,.11,2.69.78.41,1.62-.52,3.42-.55,5.08-.11.17-.28.39-.53.38A12.54,12.54,0,0,1,95.86,46l-.14-.36Zm5.23.69c.42-1.52,0-3.42.91-4.69a5.59,5.59,0,0,1,3.23.48c.3,1.52-.42,3.25-.61,4.8a1,1,0,0,1-.55.7c-.47.19-.83-.31-1.25-.11a6.47,6.47,0,0,1-1.61-.52l-.12-.67Zm3-17.48,0,0,1.36-.33s0,.09,0,.14L104,28.9l0,0Zm5.48,18.22c0-1.2.3-2.44.39-3.64a1.64,1.64,0,0,1,1-1c1.52-.2,3.28-.17,4.3.91A6.64,6.64,0,0,1,116.93,47c0,.48.17.94.23,1.41a7.1,7.1,0,0,0,.23,1l-.08.22c-1.92.34-4-.55-6-.69-.61-.17-1.3-.27-1.62-.78l-.25-1.13ZM110.73,41a3.91,3.91,0,0,1,2-2c1.67-.64,3.62.25,4.89,1.09.16.13.27.25.19.41-.64.81-1.69,1.08-2.27,2a.73.73,0,0,1-.16.11,4.34,4.34,0,0,0-1.39-.39c-.5-.16-1-.16-1.41-.3a14.83,14.83,0,0,1-1.83-.31l-.08-.5V41Zm5.86,2.61.08-.52a6.3,6.3,0,0,1,2.52-1.39,11.34,11.34,0,0,1,4.47-.92c2.39,2.25,3.91,5,6.41,7.3a.79.79,0,0,0,.44.36l.22.39a22,22,0,0,1-11.94,1.48c-.16-.39-.39-.77-.56-1.23s-.25-.69-.36-1a31.9,31.9,0,0,1-1.27-4.47Z"/></g></g></svg>