<svg xmlns="http://www.w3.org/2000/svg" viewBox="0 0 155.44 65.82"><defs><style>.cls-1{fill:#231f20;fill-rule:evenodd;}</style></defs><title>Jstar</title><g id="Layer_2" data-name="Layer 2"><g id="Layer_1-2" data-name="Layer 1"><path class="cls-1" d="M60.55,65.8c.64-.27,1.39.29,2-.19,1,.11,1.84-.53,2.77-.61a1.25,1.25,0,0,1,.83-.13c1-.29,2.53-.4,3.46-1.12l.19-.48c-.21-.61,0-1.28-.51-1.76a16.91,16.91,0,0,0-3.7-4,11,11,0,0,1-1.28-1.17c.43-.53,1.28,0,1.84-.35a.88.88,0,0,0,1,0c1,.35,2-.11,3,.05,1.44-.35,2.26.53,3.52.85l2,.77.56.29c1.39.21,3.09.69,4.61.77a12.64,12.64,0,0,0,5.89-1c.61-.35,1.28-.61,1.84-1,1.15-1,2.74-.88,4.21-.75.91-.13,1.7.37,2.53.19,2.13.45,4.32,1,6.47,1.39.67.32,1.54.4,2.13.67,2,.59,3.41,1.2,5.3,1.63A43.81,43.81,0,0,0,116,61.08,88.56,88.56,0,0,0,127.18,63c.51.19,1,.19,1.52.43l.53-.11c.05,0,.05.11.16.13l.8.16c1.23.32,2.53.11,3.78.43,1.71,0,3.25,0,5,.16a4.17,4.17,0,0,1,1.41,0l3,.16c.11.08.21,0,.29.11,3.2-.19,6.66.27,9.67-.88a4.57,4.57,0,0,0,1.94-1.68c.13-.4.08-.69.24-1.07-.48-2-2-3.62-3.57-5.11-2.61-2-4.72-4-7.38-5.57-.19-.13-.35-.16-.45-.27s-.56-.29-.83-.53a11.05,11.05,0,0,1-3.14-2.5l-.69-.88-1-1-.37-.56c-.05-.08-.13,0-.24-.08a.82.82,0,0,0-.56-.45l-.37-.48c-.08,0-.16.05-.27.05l-1.15-.91a.22.22,0,0,0-.19.05s-.21-.16-.11-.11l-.4-.16c-.05,0-.16,0-.19,0a1.11,1.11,0,0,1-.83-.59l-.72-.51c-.35,0-.45-.35-.72-.48a15.55,15.55,0,0,0-5.46-1.39,3.13,3.13,0,0,1-.53-.13l-.37.13-.69-.13-.27-.37a1.43,1.43,0,0,1,.08-.27l-.29-.61-.93-1.65-.29-.16v-.27c-.51-.45-.48-1.55-1.17-1.86-.08,0-.08-.11-.19-.19a.77.77,0,0,0-.64.19c-.64,1.23.19,2.61.27,3.94-1.89.13-4.16-.48-6.29-.45-3-.37-6-.59-8.84-1.2-.64-.8-2-.51-3-.67a6.1,6.1,0,0,1-3-.16l-.45-.32H98a.45.45,0,0,0-.37,0l-.8-.59c-.13,0-.29.05-.29-.08l-1.12-.16-1,.13c-.05,0-.05.11-.19.11l-1.15-.08c-.13,0-.24.24-.43.13,0-.21-.19,0-.29-.05s-.08-.11-.19-.16l-.91.08c-.05,0,0-.08-.19-.11L90,34.36,87.8,34.1c-2.64-.24-5.22-.72-7.7-.85-.85-.24-1.6-.05-2.37-.32-1.09,0-2-.35-3.14-.29-.45-.19-.93-.16-1.41-.35-1-.24-1.92-.21-2.85-.43-.56,0-1-.24-1.44-.16a19.18,19.18,0,0,1-3.68-1.23,6.94,6.94,0,0,1-2.61-2.58c3.73-1.81,7.81-3.17,11.75-4.77h.56l0-.35-.35-.19-1-1.2-1.47.43c-3.57.37-7.46,1.68-11.06,1.68L53.89,4a.24.24,0,0,0-.19-.08c-1.71.19-3.57,0-5.43.19,0,.45-.32.8-.16,1.23-.16.67.24,1.31,0,1.89A15.15,15.15,0,0,0,48.43,10c0,1.73.21,3.38.13,5a18.19,18.19,0,0,1,.05,2.08,4.94,4.94,0,0,1,.11.61L48.91,23l-1.44.43a1.54,1.54,0,0,0-.83,1.36.58.58,0,0,1-.37.37l-15.13.51c-1.25.27-2.5.08-3.78.27-1.25-.11-2.61.4-3.7-.16a3.91,3.91,0,0,0-2.32.45c-.11.11,0,.35-.08.53,1,.4,2.16.59,3.14,1.07,4.66-.16,9.3,0,13.88-.08.77.08,1.49,0,2.08.08s1.28-.08,1.89-.08c1.28.27,2.53-.11,3.7.08.8,0,1.63,0,2.4-.05.51,0,.88.08,1.33.05.67,1.7,0,3.92.19,5.83-.19.53-.05,1.07-.37,1.41,0,.24.19.32.32.45l0,1.44a19.14,19.14,0,0,0-3.33.61,3.66,3.66,0,0,0-1.15.43c-.77.08-1.07.72-1.81.67l-1.07.72c-.61-.05-1.39-.27-1.89.19a3.36,3.36,0,0,0,.24,2.32,19.38,19.38,0,0,0,2.45,1.33c2.1,1,3.38,3.22,5.81,3.62a1.32,1.32,0,0,0,.64.19l1.81.21,4.48.35.83-.29a.4.4,0,0,1,.16,0c.8-.13,1.41-1,2.34-.67l3.6-.21c.48-.27,1.09-.77,1.65-.53,1.2,1.28,2.4,2.18,2.64,3.7-7.7.61-15.88.61-23.76,1.09-7.78.29-15.45.72-23.15.91-6.37.24-12.71.56-19,.77-.29,0-.48.13-.72.08A1,1,0,0,0,0,53a1.62,1.62,0,0,0,.8,1.31c2.08,1.76,5,1.81,7.62,1.81.64.08,1.15,0,1.71.08.75-.13,1.41,0,2.08-.05,3.33.19,6.47.08,9.8.27,3.92,0,7.59.27,11.48.27A58.46,58.46,0,0,1,41,56.9c2.32,2.48,5.57,3.3,8.52,4.9.75.4,1.17.77,1.81,1a24.41,24.41,0,0,0,3,1.39c1,.16,1.73.64,2.74.77,1.15.45,2.29.45,3.46.8Zm-.19-.64a12.65,12.65,0,0,0,3.14-.27c.27-.13.56-.21.77-.32.75-.19,1.47-.4,2.18-.59.19-.64-.35-1.41-.11-2.13.08-.8.67-1.28.91-2a15,15,0,0,0-3-2.58,1.72,1.72,0,0,1-.59-.48,4.24,4.24,0,0,1-3-1.15c-.19-.75-1.6-1.25-1.25-2.13,1.17-.19,2.56,0,3.84-.16.93-.08,1.76,0,2.61,0,6.34-.05,12.68,0,19-.19a6.19,6.19,0,0,1,3.68.72A2.87,2.87,0,0,1,90,55.28l4.21.05c1.2.4,2.72.35,4,1a26.86,26.86,0,0,1,5.49,1.23c1.63.53,3.25,1.09,4.85,1.55a51.68,51.68,0,0,0,5.62,1.23c.69.37,1.54.05,2.18.4.35,0,.72.29,1.07.11l3.22.85,3.84.29c.11.11.29,0,.45.16.11,0,.13-.05.29-.08l1.33.37,6.29.93.69-.08a.24.24,0,0,1,.13.11c.91.08,1.73.08,2.69.16.69-.19,1.25.11,1.92,0,2.85.19,5.67.37,8.44.37,1.6-.16,3.14-.08,4.66-.37a4.6,4.6,0,0,0,3-1.41,1.55,1.55,0,0,0,.37-1.52,2.52,2.52,0,0,0-.56-1.07c-.05-.27-.16-.37-.19-.56-.59-.27-.77-.93-1.23-1.33a.47.47,0,0,0-.27-.4.41.41,0,0,1-.13-.24c-1.44-1.33-3-2.48-4.48-3.68a29.37,29.37,0,0,0-5.59-3.76l-1.55-1.09-.8,1.17c-3.68.21-7.65,1-11.3.53a2.17,2.17,0,0,0-.83-.8L125.21,49l-.75.91-4.85-.83c-.19,0-.32-.21-.43-.43l.19-4.56c2.29-.59,4.72,1,6.9.69.16-.27.16-.56.53-.61a30.9,30.9,0,0,0,7.17-.45.21.21,0,0,0,.08-.19l-.88-1.07a.49.49,0,0,1,.05-.19,7.31,7.31,0,0,0-4.61-2.18c-1.09-.11-2.37-.48-3.33-.05-1.2-1.2-1.52-2.8-2.42-4.13l-.72-1.2a.23.23,0,0,0-.16.05l0,.67s.11.08.13.11l.43,1.63-.13.37c.05.08.13.08.16.19a1.29,1.29,0,0,1-.11.88c-.19.4-.77.19-1.2.16-.61-.08-1.09-.45-1.71-.29l-9.86-1.09c-.24-.19-.61,0-.91-.13-.11,0-.11.11-.24.13a3.18,3.18,0,0,0-1.7-.29,2.62,2.62,0,0,1-2.24.85,2.52,2.52,0,0,1-1.94-1.54c-12-1.49-23.95-2.42-35.91-4.56-2-.8-4-1.52-4.77-3.49-.37-.59-.45-1.36-.77-1.92s-.4-1.23-.59-1.78c-.19-.37-.27-.8-.43-1.09a.17.17,0,0,0,0-.24l-1.25-.11-1.78-5.11s0-.05-.11-.13l-7.7-.67v6a.64.64,0,0,1-.37.37c-.53.11-1.25-.08-1.57.51a1.23,1.23,0,0,0-.11.64c0,.19.13.21.19.37a.25.25,0,0,1-.13.24c-1.25.43-2.72.16-4.1.37-1.52,0-3,.11-4.4.11-1.71.16-3.38.16-5,.27-2.08.05-4.08.19-6.1.27,5.94.19,12.6.21,18.83.32.77,0,1.36.05,2.1,0,2.1,0,3.92-.08,6,.08,1.07,0,1.92,0,3,0,.4.11.88,0,1.15.21l.19.45a.19.19,0,0,1-.08.16c-.48,0-.91.29-1.44.11-2.08.08-4.1,0-6.1,0a1.83,1.83,0,0,1-.64.08c-.24,1.78.08,3.78-.11,5.67l0,3.44,1.76.4c3.7-1.92,7.75.24,11.67.8,0-.05.08-.08.19-.16s.08.16.13.19l.75.27a.19.19,0,0,1,.11.13l1,.91a4.8,4.8,0,0,1,.29,3.76l4.93,1.12,1.7.32c1,.45,2.26.43,3.33.8,1,0,1.86.43,2.85.48a14.39,14.39,0,0,0,2.05.51C97,49.63,112.66,53.17,128.24,56c.29.19.59.35.88.13.75.53,1.81.24,2.64.72a17.73,17.73,0,0,1,1.92.35A38.85,38.85,0,0,1,144.31,61a.75.75,0,0,1,.43.43c-.08.19-.29.21-.56.32-.77-.21-1.55-.08-2.4-.32-1.17-.19-2.37-.27-3.52-.48-.48-.16-.91-.29-1.41-.43-4-.61-8-1.84-12-2.69-.88-.32-1.65-.32-2.5-.64-.19,0-.27.08-.37.08-9.19-2.4-18.81-3.94-28.16-6-9.59-1.81-19-4.08-28.5-5.65,1,1.15,2.48,2.05,2.66,3.94-.08.19,0,.37-.08.53l-.51.37c-.11,0-.16-.13-.27-.16H65.85a2.86,2.86,0,0,1-.83.19c-.11,0-.08-.11-.19-.16l-2.32.16a.9.9,0,0,0-.83,0l-.51-.11a.84.84,0,0,1-.56.19c-.08-.08-.21-.05-.37-.08-.13-.21-.4,0-.75,0a.67.67,0,0,1-.21.11l-.75.08c-.08,0-.11-.11-.27-.16l-.35.13c-.08-.08-.19,0-.27,0s-.16,0-.27-.11L57,50.7c-.08,0-.21,0-.24-.08a.44.44,0,0,0-.27.08l-.37-.11c-.08,0-.21.08-.21.13s-.19.08-.35.08a.22.22,0,0,0-.19-.13l-.51.11c-.08,0-.08-.11-.19-.11a5.44,5.44,0,0,1-2,0l-1,.24L49,51l-.32.13c-.27,0-.53-.19-.75-.08a.94.94,0,0,1-.27-.05c-.21.11-.43,0-.69,0s-.19.19-.37.16a.82.82,0,0,1-.19-.13l-.64,0c-.19.21-.48,0-.69.16-.21-.24-.67-.05-.93,0a1,1,0,0,0-.24.27c-.24.13-.19-.24-.45-.27-.08,0-.08.11-.19.11s0-.08-.19-.11l-1.41.16-.48-.16a.79.79,0,0,1-.69,0l-.45.16a.83.83,0,0,0-.19-.05c-.19.05-.21.16-.37.16,0-.24-.24,0-.43-.11l-.35.11c-.08-.05-.08-.11-.19-.16s-.19.05-.21.16l-.59.08c0-.05-.05-.08-.08-.13l-8.63.37a43.13,43.13,0,0,0-4.5.16c-1,0-1.86,0-2.85.13s-2,0-3.06.05c-4.37.11-8.55.4-12.92.51a1.3,1.3,0,0,0-.29-.11l-2.82.35,2.21,1.44,37.85-.56a.86.86,0,0,0,.24-.21l.77.05,1.07-.05.37-.24,2,.4c.27.05.35.27.48.45H48l1.47,1.49L50,57.2c2.13.93,4.45,2,6.69,2.82s4.85,1.15,6.42,2.64a.65.65,0,0,0,0,.19c-2.5,0-5.06-.93-7.59-1.57-2.37-1-4.66-1.63-6.79-2.66-.77.24-1.31-.43-1.89-.61a9,9,0,0,1-1.44-1.15l-3,.11c.85,1.28,2.29,1.65,3.46,2.48C46.86,60,48,60.5,49,61c2,.85,3.68,2,5.57,2.74l3.06.72a.5.5,0,0,1,.27.21l2.5.48Zm7.25-1.25c.48-.08,1.15-.19,1.39-.64a1.36,1.36,0,0,0-.16-1.41,6.88,6.88,0,0,0-.77-1.07l-.45-.13c-.59.59-.43,1.68-.4,2.53a2.25,2.25,0,0,0,.29.72Zm-8.68-2.4h.29l-6-2.08c-.08-.05-.11-.16-.19-.24l-1.52-.48c-.08-.05-.11-.13-.19-.24s-.16.13-.27.11l-.32-.11c-.05-.08-.08-.16-.11-.19s-.16,0-.32,0-.16-.24-.32-.35-.16,0-.29,0,0,0-.11.08c1.39,1.25,3.92,1.68,5.83,2.42a4.09,4.09,0,0,0,2.26.64l.37.21c.11,0,.21.05.32.16l.56.08Zm83.3-.64h.27c-3-1.63-7.19-2.48-10.42-3.3-2.13-.37-4.21-1-6.23-1.25,0,.11.13,0,.24.08a.31.31,0,0,1,.24.32c-.19.19-.56,0-.8-.11H125s-.08,0-.11-.13.11-.08.11-.19-.08.11-.19.13l-1.17-.32c0-.19-.19-.19-.32-.29s-.16,0-.32,0-.11.13-.16.21l-.61-.19a.18.18,0,0,1,.08-.16.9.9,0,0,1-.27-.11l-.45.05c-.13-.08-.13-.24-.29-.29s-.13.32-.32.4l-.53-.21c0-.13.08-.24.05-.35l-.35.08a1.16,1.16,0,0,0-1.07-.27l-.29-.21-.72-.11-.56.13a.35.35,0,0,1-.16-.27l-.53.19-.37-.32c-.13.08-.13-.05-.21-.16s-.19.08-.29.05-.08-.05-.11-.11c-.24,0-.08.21-.27.24s-.08-.11-.08-.19l-.32-.13c0,.13-.05.08-.13.13l-.24-.19c-.16.16-.29,0-.48.05a.47.47,0,0,1-.37-.19.19.19,0,0,0-.16.11l-.8-.29a.9.9,0,0,0-.27.11l-.48-.27-.53,0c0-.21-.21,0-.37,0l-2.13-.37-.35-.16a.52.52,0,0,0,0-.19l-.64.05c-.11-.08-.13-.19-.32-.24s-.16.16-.29.11-.64-.11-.91-.37c-.51.16-.88-.05-1.31,0-.16-.08-.27-.08-.35-.13.08-.24-.11,0-.21,0l-.64-.35a.6.6,0,0,0-.19,0l-.64-.21-.13.11-.83-.21-4.58-1h-.27c-.21,0-.05.27-.21.37L97,50.8c-.08-.08-.08-.21-.16-.32s-.27-.19,0,0a.3.3,0,0,1-.16.29c-.11,0-.08-.11-.13-.24a.66.66,0,0,0-.24,0c.11.11.05,0,.11.16-.13.19-.43-.05-.67-.05,0-.08-.11-.11-.13-.27-.08.08-.08.16-.19.27l-3.6-.77-.29.19c-.16,0-.29-.16-.48-.08l34.42,7.41c5.62,1.41,11.19,2.58,16.76,3.52ZM80.08,58.1a13,13,0,0,0,4.64-.43,14.94,14.94,0,0,0,3.89-1.73c-.51-.32-1.17.05-1.81-.13-2.9.11-5.73,0-8.6.13-1.41,0-2.82.05-4.08.08-.32.19.24.29.32.45A23.08,23.08,0,0,0,79,57.91a4.45,4.45,0,0,1,1.09.19Zm-31.65-.16.69-1.23-2.85-.13c0,.32.69.48.88.85.37.24.8.37,1.15.56l.13-.05ZM3.76,55.14A.35.35,0,0,0,4,55.09a.26.26,0,0,0-.16-.21.54.54,0,0,1,0-.29c0-.19-.21-.08-.37-.11a.88.88,0,0,0-.16-.16H3a.46.46,0,0,0-.08-.19c-.13-.08-.21.08-.4.11l-.45-.19-.37-.85c-.11,0-.11-.13-.24-.05a.56.56,0,0,1-.08.19l-.69-.24c-.08.05,0,.16-.05.24a6.6,6.6,0,0,0,3.14,1.81ZM2.32,53.92l.35-.08c0-.27-.35-.29-.53-.45-.13.08.08.37.11.56l.08,0ZM43,53l.32-.11c0-.16-.43.13-.32.11Zm61.14-3.78.53-.29.29-1.39.21-.32.05-1.47c-.19-.08-.32-.35-.56-.37-.53,0-1.28-.64-1.62,0s-.08,1.25-.43,1.71a6.55,6.55,0,0,0-.11,1.41.64.64,0,0,0,.37.37l1.25.35Zm-17.5-.11h.27l-1.6-.48-1.71-.32,3,.8ZM89.7,49a1.35,1.35,0,0,1,.24.05c-.05-.05-.21-.05-.37-.05,0,0-.11.21.13,0Zm-3.14-.64h.05a.4.4,0,0,0-.24-.11s.05.11.19.11Zm-3.89-.11h.11c-.21-.19-.56,0-.83-.19l.72.19Zm2.85-.16-2.74-.53,1.33.29a1.3,1.3,0,0,1,.29.19l1.12.05Zm11.69-.37a1.28,1.28,0,0,0,.61-.13.24.24,0,0,0,.11-.16l.27-.51.37-2.08-.19-.27c0-.29-.35-.48-.56-.61a1.9,1.9,0,0,0-1.07-.19c-.27.08-.21.51-.48.69.4.56-.11,1.09-.11,1.63L96,46.7c0,.11.11.11.13.27a.58.58,0,0,0,.19.51l.91.21Zm-17.66-.11a.57.57,0,0,0,.16,0l-2.05-.48,1.89.51Zm2.16-.19H82L80,47l1.63.43Zm-4.45-.32a.23.23,0,0,0-.19-.11s.05.11.19.11Zm-23.87-.29h.51L52.75,46l-5.43-.83c1.6,1.44,4,1.33,6.07,1.6Zm22.48,0h0Zm2.42-.08h.48l-4.53-.88c.35.21.67.13,1,.37a16.3,16.3,0,0,1,2.8.43l.24.08ZM56,46.51c.11,0,.16-.08.27-.16-.08,0-.35-.05-.37.08a.12.12,0,0,0,.11.08Zm-.48-.11,0-.08-.11-.11c-.51.11-.8-.48-1.23-.64a7.41,7.41,0,0,1-.8-.77c-.59-.85-.37-1.89-.29-2.93a3.72,3.72,0,0,0-.29,2.64.85.85,0,0,0,.13.37l.93.93a3.29,3.29,0,0,0,1.62.59Zm35.4-.08a3.53,3.53,0,0,1,.56-.08c.29-.21.11-.67.37-1l.05-1.92-1.31-.61s-.11.05-.19.08a.68.68,0,0,0-.27.37c.11.64-.29,1.25-.13,1.89,0,.45-.27.88,0,1.15l.88.11Zm-18-.08h.45c-.48-.24-1.12-.32-1.6-.59a8.33,8.33,0,0,0-1.71-.27L68.17,45l-1.81-.64c-.19.08,0,.32-.08.45l6.63,1.44Zm-12-.43h.53a.16.16,0,0,0,.08-.29.71.71,0,0,0-.67.21l.05.08Zm-5.11-.19c.69,0,1.49-.05,1.84-.64.64-.69.53-1.73.61-2.58-.08-.27-.29-.48-.19-.64-.35-.67-.75-1.44-1.7-1.44a3.31,3.31,0,0,0-2.34,1,3.85,3.85,0,0,0-.11,3.06,5.34,5.34,0,0,0,1.78,1.23c.08.05.11.05.11.05Zm6.82-.29a.92.92,0,0,1,.48-.08c0-.11-.56-.08-.64-.35a.2.2,0,0,0-.16.29l.27.16.05,0Zm22.3-.08h.56l.43-.37,0-1.15.4-1s-.08-.11-.11-.19l0-.51-1.63-.11-.24.61c0,.13.08.16.05.32l-.27.24c0,.59-.37,1.41,0,2l.8.19Zm-33.14-.19H52c.45-.19,0-.77.05-1.15-.11-.64.24-1.23.19-1.81a3.08,3.08,0,0,0,0-.45l.19-.37a.18.18,0,0,0,.19-.11,5.57,5.57,0,0,1,2.45-1.92c0-.37-.72-.29-.91-.53-.85-.21-1.73-.53-2.5-.77-1,.08-1.78-.43-2.77-.32a7.91,7.91,0,0,0-1.44.11,8.82,8.82,0,0,0-3.12,1.33l-.85.45c0,.11.19.05.27.05s.11-.05.19-.13l1.44.56c.05.13.24.11.43.19a.28.28,0,0,1,.16.21l-.21.69-4.42-1.23a.41.41,0,0,0-.24.08c-.27.27,0,.77.11,1.07,1.33,1.52,3.92,1.78,5.89,2.34.13.16-.08.29-.08.45V44a26.24,26.24,0,0,0,4.74,1.07Zm8,0c.48,0,1.15,0,1.47-.35a4,4,0,0,1,.11-3.7,4.55,4.55,0,0,0-2.66-1.49H58.1c0,.21.56.51.61.8l.13,4.21.91.53Zm6-.19a.09.09,0,0,0,.11-.11c0-.08-.11-.08-.19-.05s0,.24.08.16Zm-2.34-.35a2.67,2.67,0,0,0,1.78-1.25,3.84,3.84,0,0,0,.08-2.77,2.52,2.52,0,0,0-2-1.07,2.17,2.17,0,0,0-1.41.88l.16.37a3.34,3.34,0,0,1,1.17,2.48,2.9,2.9,0,0,1-.37,1.17c.05.16.37.08.56.19Zm15.85-.19c.4.05.69-.24,1-.53a.5.5,0,0,1,.11-.16.61.61,0,0,0-.08-.29l.37-1.79c-.11-.13-.24-.29-.37-.48H78.8l-.24.37c-.08.77-.53,1.54-.32,2.34l1,.53ZM62,44.25c.51-.29.59-1,.56-1.57a4.55,4.55,0,0,0-.56-1c0-.05-.11-.05-.16,0a2.08,2.08,0,0,0-.29,2c.16.27.27.37.37.59Zm64.12-.77c1,0,2.16.19,3-.48a.92.92,0,0,0,.19-.32l-1-.93c-.64,0-1-.48-1.49-.77s-.67-.64-1-.91c-.67.29-1.09.8-1.76,1.09-.45.43-.91.61-1.09,1-.11,0-.13.13-.29.13-.19.16,0,.45.13.61l3.38.61ZM60.55,39.27c.4-.11.59-.45.77-.83,0-.08,0-.11-.05-.13-2.53-.91-5.49-1.71-8-.56l2.85.8.37.35a6.23,6.23,0,0,1,3.81.29.51.51,0,0,1,.21.08Zm44.2-1.89c.51,0,1.17,0,1.44-.56-.13-.37-.64-.45-1-.51s-.91,0-1.28,0a.6.6,0,0,0-.19,0c-.05.13-.11.13-.19.27.16.48.75.56,1.2.75Zm-7.89-2.29a2.51,2.51,0,0,0-1.73-.27l1.73.27ZM23.79,27a1.3,1.3,0,0,0,.51-.19.45.45,0,0,0,.27,0,.4.4,0,0,0,0-.19l-1.81-.11,1,.48Zm38.55-.19,11.14-4.34a1.15,1.15,0,0,0,0-.13c0-.05-.05-.11-.13-.16l-3,.53-8.92,1.63.8,2.48Zm-34.92-.29c-.05-.13-.16-.05-.24-.08s.16.19.24.08ZM56,17.21a.92.92,0,0,0,.69-.19l-.11-.45-7.3-.51a.25.25,0,0,0-.19.19.87.87,0,0,0,.08.16l6.82.8Zm-.35-1.39.53.05c.19-.75-.43-1.52-.56-2.26-.67-2.45-1.78-4.77-2.21-7.19.11-.05.11-.11.24-.13s.29.13.45,0l-.48-1.57c-1.31-.32-2.74.11-4.08,0-.21.11-.4,0-.56.08-.48,3.25.11,6.87.11,10.31.24.19.61.05.91.27,1.94.16,3.76.21,5.65.4Zm45-15.32s0-.11,0-.13l0,.13Zm.75-.13c-.05-.08-.16-.11-.24-.19s0-.11,0-.19c0,.13.11.29.27.4v0Zm-1.78,0A.53.53,0,0,0,100,.32c0-.11.11,0,0-.13s-.35.19-.27.19Z"/></g></g></svg>