<svg xmlns="http://www.w3.org/2000/svg" viewBox="0 0 544.35 119.83"><defs><style>.cls-1,.cls-22,.cls-29,.cls-3{fill:#fff;}.cls-1,.cls-29,.cls-3,.cls-30,.cls-31{stroke:#231f20;}.cls-1{stroke-width:2px;}.cls-2{fill:#e3e4e5;}.cls-4{fill:#bcbec0;}.cls-5{fill:#c1c2c5;}.cls-6{fill:#c3c5c7;}.cls-7{fill:#c7c9cb;}.cls-8{fill:#cbcdcf;}.cls-9{fill:#cdcfd0;}.cls-10{fill:#d1d3d4;}.cls-11{fill:#d4d5d7;}.cls-12{fill:#d8d9db;}.cls-13{fill:#dadcdd;}.cls-14{fill:#dee0e1;}.cls-15{fill:#e4e5e6;}.cls-16{fill:#e9eaeb;}.cls-17{fill:#ebeced;}.cls-18{fill:#eff0f0;}.cls-19{fill:#f2f2f3;}.cls-20{fill:#f6f7f7;}.cls-21{fill:#fcfcfc;}.cls-23{fill:#d6d8d9;}.cls-24{fill:#e0e1e2;}.cls-25{fill:#e7e8e9;}.cls-26{fill:#eeeeef;}.cls-27{fill:#f3f4f4;}.cls-28{fill:#f8f8f9;}.cls-29{stroke-width:0.5px;}.cls-30,.cls-32{fill:#231f20;}.cls-31{fill:none;stroke-width:0.21px;}.cls-33{fill:#373537;}.cls-34{fill:#444446;}.cls-35{fill:#4f5052;}.cls-36{fill:#5b5c5e;}.cls-37{fill:#67686b;}.cls-38{fill:#717375;}.cls-39{fill:#7b7d7f;}.cls-40{fill:#858789;}.cls-41{fill:#909295;}.cls-42{fill:#9a9c9f;}.cls-43{fill:#a3a5a8;}.cls-44{fill:#b0b2b5;}.cls-45{fill:#babcbe;}.cls-46{fill:#c5c7c9;}.cls-47{fill:#d0d1d3;}</style></defs><title>Lear24-25</title><g id="Layer_2" data-name="Layer 2"><g id="Layer_1-2" data-name="Layer 1"><path class="cls-1" d="M531.25,11.9c3.6-.14-5.33-6.26-13.46-7.56C507.06,2.54,485.17.74,474.88,1c-7.78.22-33.34,2-36.22,5.54-4,2.66-1.8,4.18,1.22,5.18,13.1,3,10.87,5.18,7.56,10.3L428.73,40.92c-6.33,6.62-9,7.85-17.21,8.93l-41.4,3L370,62.59l140,4.32L520.6,15.5C524.56,15.29,529.09,13.05,531.25,11.9Z"/><path class="cls-2" d="M440.89,8.66a2.32,2.32,0,0,1,.94-1Z"/><polyline class="cls-3" points="499.65 15.72 495.97 24.72 500.8 24.5 503.82 26.3 504.25 27.96 499.43 28.39 493.89 42.79 496.91 44.81 496.41 46.46 492.23 46.46 484.38 64.25"/><polyline class="cls-3" points="499.14 64.68 500.37 62.38 504.97 61.22 508.43 49.63 513.54 49.41"/><path class="cls-3" d="M508.5,7.22c4,0,6.26.94,4.9,3.46-1.37.94-6,3.53-7.92,3.53l-25.42.86c-4.61-.86-8.57-.65-11.09-2.09-1.87-.65-2.38-1.8-.94-3a34,34,0,0,1,14.33-4.18C488.2,5.64,499.72,6.79,508.5,7.22Z"/><path class="cls-3" d="M518.51,8.37C526,8.23,538.09,9.53,542.34,11c-9.5,2.09-23.26,2.38-36.29,2.45-9.79.07-27.58.79-33.26-2.16-.29-.29,0-.65.29-.79C475.17,8.23,486.61,7.51,518.51,8.37Z"/><path class="cls-4" d="M513.18,11.18c.43.86,1.87,2,5.4,2.3,7-.36,15.26-1.15,20.81-2Z"/><polygon class="cls-5" points="513.18 11.18 513.18 11.18 539.39 11.47 539.39 11.47 513.18 11.18"/><path class="cls-6" d="M513.18,11.18c0-.07,0-.07-.07-.07l26.64.36h-.36Z"/><path class="cls-7" d="M513.11,11.11V11l27.07.36a.92.92,0,0,0-.43.07Z"/><path class="cls-8" d="M513.11,11V11l27.58.36a1.23,1.23,0,0,0-.5.07Z"/><path class="cls-9" d="M513.11,11a.07.07,0,0,0-.07-.07l28.08.29c-.14.07-.29.07-.43.14Z"/><path class="cls-10" d="M513,10.89v-.07l28.44.29a.65.65,0,0,1-.36.07Z"/><path class="cls-11" d="M513,10.82v-.07l28.87.29a.92.92,0,0,1-.43.07Z"/><path class="cls-12" d="M513,10.75v-.07l29.23.29a.65.65,0,0,1-.36.07Z"/><path class="cls-13" d="M513,10.68v-.07l29.52.36h-.29Z"/><path class="cls-14" d="M513,10.61v-.07l29.81.36a.43.43,0,0,0-.29.07Z"/><path class="cls-2" d="M513,10.53h0v-.07l30,.36c-.07,0-.14.07-.22.07Z"/><path class="cls-15" d="M513,10.46l.07-.07,30.24.36c-.07,0-.22.07-.29.07Z"/><path class="cls-16" d="M513.11,10.39v-.07l30.53.36c-.07,0-.22.07-.29.07Z"/><path class="cls-17" d="M513.11,10.32l.07-.07,30.74.36c-.07,0-.22.07-.29.07Z"/><path class="cls-18" d="M513.18,10.25a.07.07,0,0,1,.07-.07l31,.36h0c-.07,0-.22.07-.29.07Z"/><path class="cls-19" d="M513.25,10.17c0-.07,0-.07.07-.07l30.38.36a4.06,4.06,0,0,1,.5.07Z"/><path class="cls-20" d="M513.33,10.1V10l30,.36c.14,0,.22.07.36.07Z"/><path class="cls-21" d="M513.33,10a.07.07,0,0,0,.07-.07l29.45.36c.22,0,.36.07.5.07Z"/><path class="cls-22" d="M513.4,10a9.38,9.38,0,0,1,5.54-1.66c5.11-.29,19.3,1.37,23.9,2Z"/><path class="cls-3" d="M518.94,8.3c5.83-.29,23.54,1.87,25.27,2.23-4.25,1.22-16.13,2.45-25.63,3-4.46-.36-5.62-2.09-5.54-3S516.21,8.3,518.94,8.3Z"/><polygon class="cls-10" points="231.81 113.71 231.74 113.71 231.81 113.78 231.81 113.71"/><polygon class="cls-11" points="231.81 113.71 232.02 113.71 231.88 113.93 231.81 113.78 231.81 113.71"/><polygon class="cls-23" points="232.02 113.71 232.17 113.71 231.95 114.07 231.88 113.93 232.02 113.71"/><polygon class="cls-13" points="232.17 113.71 232.45 113.64 232.09 114.22 231.95 114.07 232.17 113.71"/><polygon class="cls-13" points="232.45 113.64 232.67 113.64 232.17 114.36 232.09 114.22 232.45 113.64"/><polygon class="cls-14" points="232.67 113.64 232.81 113.64 232.24 114.5 232.17 114.36 232.67 113.64"/><polygon class="cls-24" points="232.81 113.64 233.1 113.64 232.38 114.72 232.24 114.5 232.81 113.64"/><polygon class="cls-2" points="233.1 113.64 233.25 113.64 232.45 114.86 232.38 114.72 233.1 113.64"/><polygon class="cls-15" points="233.25 113.64 233.53 113.64 232.53 115.01 232.45 114.86 233.25 113.64"/><polygon class="cls-25" points="233.53 113.64 233.75 113.57 232.67 115.15 232.53 115.01 233.53 113.64"/><polygon class="cls-16" points="233.75 113.57 233.89 113.57 232.74 115.3 232.67 115.15 233.75 113.57"/><polygon class="cls-17" points="233.89 113.57 234.18 113.57 232.81 115.51 232.74 115.3 233.89 113.57"/><polygon class="cls-26" points="234.18 113.57 234.18 113.57 234.18 113.78 232.96 115.66 232.81 115.51 234.18 113.57"/><polygon class="cls-18" points="234.18 113.78 234.18 114.22 233.03 115.8 232.96 115.66 234.18 113.78"/><polygon class="cls-19" points="234.18 114.22 234.18 114.43 233.1 115.94 233.03 115.8 234.18 114.22"/><polygon class="cls-27" points="234.18 114.43 234.18 114.72 233.25 116.01 233.18 116.01 233.1 115.94 234.18 114.43"/><polygon class="cls-20" points="234.18 114.72 234.18 115.08 233.53 116.01 233.25 116.01 234.18 114.72"/><polygon class="cls-28" points="234.18 115.08 234.18 115.3 233.75 115.94 233.53 116.01 234.18 115.08"/><polygon class="cls-21" points="234.18 115.3 234.18 115.73 233.97 115.94 233.75 115.94 234.18 115.3"/><polygon class="cls-22" points="234.18 115.73 234.18 115.94 233.97 115.94 234.18 115.73"/><polygon class="cls-10" points="192.57 113.28 192.35 113.28 192.42 113.42 192.57 113.28"/><polygon class="cls-11" points="192.57 113.28 192.78 113.21 192.57 113.64 192.42 113.42 192.57 113.28"/><polygon class="cls-23" points="192.78 113.21 193.07 113.21 192.64 113.78 192.57 113.64 192.78 113.21"/><polygon class="cls-13" points="193.07 113.21 193.43 113.21 192.85 114.07 192.64 113.78 193.07 113.21"/><polygon class="cls-13" points="193.43 113.21 193.72 113.13 192.93 114.29 192.85 114.07 193.43 113.21"/><polygon class="cls-14" points="193.72 113.13 194.01 113.13 193.07 114.5 192.93 114.29 193.72 113.13"/><polygon class="cls-24" points="194.01 113.13 194.37 113.13 193.21 114.72 193.07 114.5 194.01 113.13"/><polygon class="cls-2" points="194.37 113.13 194.58 113.06 193.36 114.93 193.21 114.72 194.37 113.13"/><polygon class="cls-15" points="194.58 113.06 194.8 113.06 194.87 113.21 193.5 115.22 193.36 114.93 194.58 113.06"/><polygon class="cls-25" points="194.87 113.21 195.01 113.42 193.65 115.44 193.5 115.22 194.87 113.21"/><polygon class="cls-16" points="195.01 113.42 195.09 113.64 193.72 115.58 193.65 115.44 195.01 113.42"/><polygon class="cls-17" points="195.09 113.64 195.23 113.93 193.86 115.87 193.72 115.58 195.09 113.64"/><polygon class="cls-26" points="195.23 113.93 195.37 114.14 194.08 115.94 193.93 115.94 193.86 115.87 195.23 113.93"/><polygon class="cls-18" points="195.37 114.14 195.52 114.43 194.44 115.94 194.08 115.94 195.37 114.14"/><polygon class="cls-19" points="195.52 114.43 195.59 114.72 194.73 115.94 194.44 115.94 195.52 114.43"/><polygon class="cls-27" points="195.59 114.72 195.73 114.93 195.01 115.94 194.73 115.94 195.59 114.72"/><polygon class="cls-20" points="195.73 114.93 195.88 115.22 195.37 115.94 195.01 115.94 195.73 114.93"/><polygon class="cls-28" points="195.88 115.22 195.95 115.44 195.59 115.94 195.37 115.94 195.88 115.22"/><polygon class="cls-21" points="195.95 115.44 196.09 115.73 195.95 115.94 195.59 115.94 195.95 115.44"/><polygon class="cls-22" points="196.09 115.73 196.24 115.94 195.95 115.94 196.09 115.73"/><polygon class="cls-10" points="248.58 113.35 249.16 112.7 248.22 112.7 248.58 113.35"/><polygon class="cls-11" points="248.58 113.35 248.08 114 247.29 112.7 248.22 112.7 248.58 113.35"/><polygon class="cls-23" points="248.08 114 247.43 114.65 246.28 112.7 247.29 112.7 248.08 114"/><polygon class="cls-13" points="247.43 114.65 246.85 115.37 245.49 112.99 245.63 112.7 246.28 112.7 247.43 114.65"/><polygon class="cls-10" points="52.53 112.27 51.59 112.27 52.17 112.92 52.53 112.27"/><polygon class="cls-11" points="52.53 112.27 53.46 112.27 52.67 113.5 52.17 112.92 52.53 112.27"/><polygon class="cls-23" points="53.46 112.27 54.47 112.27 53.32 114.22 52.67 113.5 53.46 112.27"/><polygon class="cls-13" points="54.47 112.27 55.12 112.27 55.26 112.56 53.89 114.86 53.32 114.22 54.47 112.27"/><polygon class="cls-13" points="55.26 112.56 55.84 113.35 54.47 115.58 53.89 114.86 55.26 112.56"/><polygon class="cls-14" points="55.84 113.35 56.34 114.07 55.05 116.16 54.47 115.58 55.84 113.35"/><polygon class="cls-24" points="56.34 114.07 56.85 114.86 55.62 116.88 55.05 116.16 56.34 114.07"/><polygon class="cls-2" points="56.85 114.86 57.35 115.66 56.2 117.53 55.62 116.88 56.85 114.86"/><path class="cls-21" d="M65.34,118.82c.36.14.58.22.86.36l-.43.65h-1Z"/><path class="cls-22" d="M66.21,119.18a2,2,0,0,1,.5.65h-.94Z"/><path class="cls-1" d="M509.15,68.71l-1.37,5.76c-.94,2.09-1.87,3.67-4,4l-30.74,9.94-47.45,4.18L415,90.89Z"/><path class="cls-29" d="M164.27,55c2.59,0,4.75-.5,4.75-1.15s-2.16-1.15-4.75-1.15-4.75.5-4.75,1.15S161.68,55,164.27,55Z"/><polygon class="cls-10" points="52.89 106.3 53.03 105.79 52.53 105.79 52.89 106.3"/><polygon class="cls-11" points="52.89 106.3 52.67 106.87 51.88 105.79 52.53 105.79 52.89 106.3"/><polygon class="cls-23" points="52.67 106.87 52.45 107.52 51.3 105.79 51.88 105.79 52.67 106.87"/><polygon class="cls-13" points="52.45 107.52 52.24 108.09 50.65 105.79 51.3 105.79 52.45 107.52"/><polygon class="cls-13" points="52.24 108.09 52.02 108.67 50.08 105.79 50.65 105.79 52.24 108.09"/><polygon class="cls-14" points="52.02 108.67 51.81 109.25 49.43 105.79 50.08 105.79 52.02 108.67"/><polygon class="cls-24" points="51.81 109.25 51.59 109.82 49.36 106.58 49.43 105.79 49.43 105.79 51.81 109.25"/><polygon class="cls-2" points="51.59 109.82 51.52 110.11 51.16 110.11 49.29 107.38 49.36 106.58 51.59 109.82"/><polygon class="cls-15" points="51.16 110.11 50.51 110.04 49.21 108.09 49.29 107.38 51.16 110.11"/><polygon class="cls-25" points="50.51 110.04 49.86 110.04 49 108.67 49.14 108.67 49.21 108.09 50.51 110.04"/><polygon class="cls-16" points="49.86 110.04 49.21 110.04 48.35 108.74 49 108.67 49.86 110.04"/><polygon class="cls-17" points="49.21 110.04 48.64 109.97 47.77 108.74 48.35 108.74 49.21 110.04"/><polygon class="cls-26" points="48.64 109.97 47.99 109.97 47.2 108.74 47.77 108.74 48.64 109.97"/><polygon class="cls-18" points="47.99 109.97 47.34 109.89 46.62 108.81 47.2 108.74 47.99 109.97"/><path class="cls-1" d="M265.93,114l-144.36-.22-51.77.29c-17.71-.43-31.39-1.37-43-2.3-5.54-.43-16.92-1-23.47-4.61-3.31-2.3-2.88-3.89-.22-6,4.75-3.67,11.38-6.77,19.37-9.79,7.7-3,28.08-8.42,39.24-11.09l25.13-18c11.16-6,29.09-7.78,42.34-8.06l99.43-1.15,109.58,4.61c54.36,1.3,132.48,7.49,172,7.06l-1,4.68-25.71,6.19C454.65,82.75,376,102.91,348.23,107S286.74,112.56,265.93,114Z"/><path class="cls-30" d="M113.94,65.11l.58,13.54C96.95,82.9,81.9,83.33,62,82.25L62,80.59,86.87,62.88l2.81-1.94C93.13,60.86,105.95,63.38,113.94,65.11Z"/><line class="cls-31" x1="142.24" y1="96.79" x2="178.45" y2="96.57"/><path class="cls-3" d="M144.18,63.74h32.4a1.72,1.72,0,0,1,1.87,1.44v44.21a1.72,1.72,0,0,1-1.87,1.44h-32.4c-1.08,0-1.87-.65-1.87-1.44V65.18C142.31,64.39,143.1,63.74,144.18,63.74Z"/><path class="cls-32" d="M222.59,64.9A9.87,9.87,0,0,0,218,63.81H207.47a9.87,9.87,0,0,0-4.61,1.08Z"/><path class="cls-33" d="M222.59,64.9A9.7,9.7,0,0,1,224.46,66H201a9.69,9.69,0,0,1,1.87-1.08Z"/><path class="cls-34" d="M224.46,66c.43.29.86.72,1.3,1.08H199.69c.43-.36.86-.79,1.3-1.08Z"/><path class="cls-35" d="M225.76,67.05l.86,1.08H198.83l.86-1.08Z"/><path class="cls-36" d="M226.62,68.13a4,4,0,0,1,.72,1.08H198.11a4,4,0,0,1,.72-1.08Z"/><path class="cls-37" d="M227.34,69.21a7.93,7.93,0,0,1,.58,1.08H197.53a7.85,7.85,0,0,1,.58-1.08Z"/><path class="cls-38" d="M227.92,70.29l.43,1.08H197.1l.43-1.08Z"/><path class="cls-39" d="M228.35,71.37c.07.36.22.72.29,1.08H196.81c.07-.36.22-.72.29-1.08Z"/><path class="cls-40" d="M228.64,72.45a5.56,5.56,0,0,1,.14,1.08H196.67a5.56,5.56,0,0,1,.14-1.08Z"/><path class="cls-41" d="M228.78,73.53a5.92,5.92,0,0,1,.07,1.15H196.6a5.84,5.84,0,0,1,.07-1.15Z"/><path class="cls-42" d="M228.85,74.69h0a5.55,5.55,0,0,1-.07,1.08H196.67a5.47,5.47,0,0,1-.07-1.08Z"/><path class="cls-43" d="M228.78,75.77a5.56,5.56,0,0,1-.14,1.08H196.81a5.56,5.56,0,0,1-.14-1.08Z"/><path class="cls-44" d="M228.64,76.85a6.07,6.07,0,0,1-.29,1.08H197.1a6,6,0,0,1-.29-1.08Z"/><path class="cls-45" d="M228.35,77.93c-.14.36-.22.72-.36,1.08H197.46c-.14-.36-.22-.72-.36-1.08Z"/><path class="cls-46" d="M228,79c-.22.36-.36.72-.58,1.08H198c-.22-.36-.36-.72-.58-1.08Z"/><path class="cls-47" d="M227.41,80.09a6.93,6.93,0,0,1-.72,1.08H198.76a7,7,0,0,1-.72-1.08Z"/><path class="cls-13" d="M226.69,81.17a12.78,12.78,0,0,1-.94,1.08H199.69a12.69,12.69,0,0,1-.94-1.08Z"/><path class="cls-25" d="M225.76,82.25a8.87,8.87,0,0,1-1.22,1.08H200.92a8.82,8.82,0,0,1-1.22-1.08Z"/><path class="cls-19" d="M224.53,83.33a6.64,6.64,0,0,1-1.94,1.15H202.86a6.65,6.65,0,0,1-1.94-1.15Z"/><path class="cls-22" d="M222.59,84.48A9.89,9.89,0,0,1,218,85.56H207.47a9.9,9.9,0,0,1-4.61-1.08Z"/><path class="cls-3" d="M207.47,63.81H218a10.91,10.91,0,0,1,10.87,10.87h0A10.91,10.91,0,0,1,218,85.56H207.47A10.91,10.91,0,0,1,196.6,74.69h0A10.91,10.91,0,0,1,207.47,63.81Z"/><path class="cls-3" d="M286.38,84.33c15,6.77,62.78,6.84,101.52-4.18L388,66.84c-5.33-1.44-71-9.65-100.8-2.52Z"/><path class="cls-3" d="M283.07,81.74l.79-15.48c-.22-1,2.66-1.94,4.32-2.23l-1,20.45C285,83.83,283.21,82.46,283.07,81.74Z"/><path class="cls-3" d="M376.6,65.11,376.17,83Z"/><path class="cls-3" d="M235.55,88.29l57-.5c21.38.79,42.26,3.46,61.85,8.86-19.58,7.56-40.68,13.75-61.56,14.54l-56.23.86c-16.49.79-40.39.79-54.36-6l.29-9.43C197.89,90.17,216.76,88.58,235.55,88.29Z"/><path class="cls-4" d="M183.06,96.93v-.65l-.65.22A1.05,1.05,0,0,1,183.06,96.93Z"/><path class="cls-3" d="M181,105.43a19.27,19.27,0,0,0,1.73.86l.07-1.87A3.25,3.25,0,0,1,181,105.43Z"/><path class="cls-5" d="M183.06,96.93l-.07.43a1.65,1.65,0,0,0-.94-.72c.14-.07.22-.07.36-.14A1.05,1.05,0,0,1,183.06,96.93Z"/><path class="cls-3" d="M181,105.43c-.14-.07-.22-.14-.36-.22a3.23,3.23,0,0,0,2.16-1.15v.36A3.25,3.25,0,0,1,181,105.43Z"/><path class="cls-6" d="M183,97.37v.5a2,2,0,0,0-1.3-1.08c.14-.07.22-.07.36-.14A1.65,1.65,0,0,1,183,97.37Z"/><path class="cls-3" d="M180.61,105.21c-.14-.07-.22-.14-.36-.22a3.43,3.43,0,0,0,2.52-1.37v.43A3.23,3.23,0,0,1,180.61,105.21Z"/><path class="cls-7" d="M183,97.87v.36a2.59,2.59,0,0,0-1.51-1.37.26.26,0,0,0,.22-.07A2,2,0,0,1,183,97.87Z"/><path class="cls-3" d="M180.25,105c-.07-.07-.14-.14-.22-.14a3.65,3.65,0,0,0,2.81-1.58l-.07.36A3.43,3.43,0,0,1,180.25,105Z"/><path class="cls-8" d="M183,98.23v.5a2.76,2.76,0,0,0-1.8-1.66c.07-.07.22-.14.29-.22A2.59,2.59,0,0,1,183,98.23Z"/><path class="cls-3" d="M180,104.85a.56.56,0,0,1-.29-.29,3.39,3.39,0,0,0,3.1-1.87v.58A3.65,3.65,0,0,1,180,104.85Z"/><path class="cls-9" d="M183,98.73v.36a4.07,4.07,0,0,0-2-1.94c.07,0,.14-.07.22-.07A2.76,2.76,0,0,1,183,98.73Z"/><path class="cls-3" d="M179.75,104.57a1,1,0,0,1-.29-.22,3.6,3.6,0,0,0,3.38-2.09v.43A3.39,3.39,0,0,1,179.75,104.57Z"/><path class="cls-10" d="M183,99.09l-.07,1.22a3.15,3.15,0,0,0-2.38-3l.43-.22A4.07,4.07,0,0,1,183,99.09Z"/><path class="cls-3" d="M179.46,104.35A1.9,1.9,0,0,1,179,104a3.34,3.34,0,0,0,3.89-3l-.07,1.22A3.6,3.6,0,0,1,179.46,104.35Z"/><path class="cls-3" d="M182.92,100.32V101a3.34,3.34,0,0,1-3.89,3c-.07-.07-.14-.22-.22-.29a3.18,3.18,0,0,0,3.89-2.3,3.11,3.11,0,0,0-2.45-3.82c.07-.07.22-.14.29-.22A3.15,3.15,0,0,1,182.92,100.32Z"/><path class="cls-3" d="M180.25,97.58c-.07.07-.22.07-.29.14a2.78,2.78,0,0,1,2.38,2,2.85,2.85,0,0,1-.72,3,2.93,2.93,0,0,1-3,.72c.07.07.14.22.22.29a3.18,3.18,0,0,0,3.89-2.3A3.11,3.11,0,0,0,180.25,97.58Z"/><path class="cls-3" d="M180,97.73l-.29.29a2.4,2.4,0,0,1,2.38,1.8,2.58,2.58,0,0,1-.79,2.81,2.61,2.61,0,0,1-3,.29,3,3,0,0,0,.36.5,2.93,2.93,0,0,0,3-.72,2.85,2.85,0,0,0,.72-3A2.78,2.78,0,0,0,180,97.73Z"/><path class="cls-3" d="M179.68,98a1.53,1.53,0,0,0-.43.29,2.33,2.33,0,0,1,2.52,1.51,2.36,2.36,0,0,1-.86,2.74,2.19,2.19,0,0,1-2.88-.22,5,5,0,0,0,.22.58,2.61,2.61,0,0,0,3-.29,2.58,2.58,0,0,0,.79-2.81A2.4,2.4,0,0,0,179.68,98Z"/><path class="cls-3" d="M179.25,98.3l-.22.22a2.15,2.15,0,1,1-1.15,3.53c.07.07.07.22.14.29a2.19,2.19,0,0,0,2.88.22,2.36,2.36,0,0,0,.86-2.74A2.33,2.33,0,0,0,179.25,98.3Z"/><path class="cls-3" d="M179,98.52a1.94,1.94,0,0,0-.36.43,1.84,1.84,0,0,1,2.09.29,1.86,1.86,0,0,1-1.15,3.24,2,2,0,0,1-1.8-1.08,2,2,0,0,0,.07.65,2.2,2.2,0,0,0,2.81.36A2.13,2.13,0,0,0,179,98.52Z"/><path class="cls-16" d="M177.88,100.61a3.22,3.22,0,0,1,.79-1.66,1.84,1.84,0,0,1,2.09.29,1.78,1.78,0,0,1,.65,1.37h-.29a1.58,1.58,0,0,0-3.17,0Z"/><path class="cls-3" d="M177.88,100.61a3,3,0,0,0-.07.79,2,2,0,0,0,1.8,1.08,1.8,1.8,0,0,0,1.66-1.22,2.09,2.09,0,0,0,.14-.65h-.29a1.58,1.58,0,1,1-3.17,0h-.07Z"/><path class="cls-17" d="M177.95,100.61a1.58,1.58,0,0,1,3.17,0h-.29a1.3,1.3,0,0,0-2.59,0Z"/><path class="cls-3" d="M177.95,100.61h0a1.58,1.58,0,1,0,3.17,0h-.29a1.3,1.3,0,1,1-2.59,0h-.29Z"/><path class="cls-18" d="M178.24,100.61a1.3,1.3,0,0,1,2.59,0h-.22a1.08,1.08,0,1,0-2.16,0Z"/><path class="cls-18" d="M178.24,100.61h0a1.3,1.3,0,1,0,2.59,0h-.22a1.08,1.08,0,1,1-2.16,0h-.22Z"/><path class="cls-19" d="M178.45,100.61a1.08,1.08,0,1,1,2.16,0h-.29a.79.79,0,0,0-1.58,0Z"/><path class="cls-19" d="M178.45,100.61h0a1.08,1.08,0,1,0,2.16,0h-.29a.79.79,0,1,1-1.58,0h-.29Z"/><path class="cls-20" d="M178.74,100.61a.79.79,0,0,1,1.58,0H180a.5.5,0,0,0-1,0Z"/><path class="cls-20" d="M178.74,100.61h0a.79.79,0,1,0,1.58,0H180a.5.5,0,0,1-1,0h-.29Z"/><path class="cls-21" d="M179,100.61a.5.5,0,0,1,1,0h-.29a.22.22,0,0,0-.43,0Z"/><path class="cls-21" d="M179,100.61h0a.5.5,0,0,0,1,0h-.29a.22.22,0,1,1-.43,0H179Z"/><path class="cls-22" d="M179.75,100.61a.22.22,0,1,0-.22.22A.32.32,0,0,0,179.75,100.61Z"/><path class="cls-3" d="M183.06,96.29l-.36,10C175.93,103.49,176.22,98.52,183.06,96.29Z"/><path class="cls-29" d="M333.33,95.64c3.1-.07,21.24.86,21.24,1.37s-18.5,1.51-21.24,1.51-3.46-.65-3.46-1.51S330.23,95.71,333.33,95.64Z"/></g></g></svg>