<svg xmlns="http://www.w3.org/2000/svg" viewBox="0 0 56 25.84"><defs><style>.cls-1{fill:#231f20;fill-rule:evenodd;}</style></defs><title>Lear35</title><g id="Layer_2" data-name="Layer 2"><g id="Layer_1-2" data-name="Layer 1"><path class="cls-1" d="M16.15,0c2.72,0,5.52.74,8.18.91.08,0,.11,0,.17,0a6,6,0,0,1,.86,1l-.06.13-2.11,0s0,0,0,0c.93,1.16,1.39,2.57,2.53,3.7,0,0,.07,0,.08,0a1.51,1.51,0,0,1,.64-.87,3,3,0,0,1,1.21-.07A6.69,6.69,0,0,1,28.71,5a18.85,18.85,0,0,1,3.19.64,12.48,12.48,0,0,1,3.41,1.13c.36.29.08.82.24,1.18a.82.82,0,0,0,.24.13l.34-.21.51,0C40,8.75,42.54,6.68,44.8,5c.08,0,.12,0,.15-.1,0-1.11-.59-2.22-.45-3.32a4.59,4.59,0,0,1,1.92,0c.89.88,1.52,1.88,2.31,2.78.17.28.46.48.57.79.43.17.91.28,1.1.68,0,.13,0,.25,0,.37,1.33,1,2.72,2,4.07,3A7.39,7.39,0,0,1,56,10.33v.26l-2.48-.22c-.51-.17-.88-.42-1.31-.6-1.3-.62-2.41-1.54-3.67-2-.61,1-1.58,1.87-1.9,3.08a.68.68,0,0,0-.1.13c-.35.12-.48.46-.66.71a.41.41,0,0,1-.06.19,19.84,19.84,0,0,1-5.62.52c-.06,0-.09.14-.08.21.07.23-.06.4-.07.6a1,1,0,0,1-.86.62,9.67,9.67,0,0,1-2.5.26A36.63,36.63,0,0,1,31,13.36s0,0,0,.06c.8.82,1.64,1.69,2.46,2.44.36.33.64.73,1,1,1.62,2,3.84,3.88,5.5,5.74a3,3,0,0,1,.45.44,27,27,0,0,1,4.09.47,4.94,4.94,0,0,1,2.08.72l-.06.23a9.45,9.45,0,0,1,1,1.24.19.19,0,0,1-.12.13c-2-1.29-4.3-.44-6.55-.29-1.39,0-2.76,0-4.14,0-.44,0-.86,0-1.29,0a8.93,8.93,0,0,1-4.52-1,.53.53,0,0,1-.31-.38.31.31,0,0,1,0-.33A7.92,7.92,0,0,1,33,23c.45-.06.87-.07,1.3-.15l.1-.08c-3.63-3.41-7.7-6.18-11.4-9.44-.1-.06-.15-.13-.24-.17a63.4,63.4,0,0,1-6.55-.57c-2.8-.29-5.62-.57-8.38-.66a.13.13,0,0,0-.06.07l-.74,0s0-.12,0-.17L5.8,11.64s-.06,0-.06.06a.25.25,0,0,1-.1,0,1.52,1.52,0,0,0-.66,0s0,0-.06,0a.12.12,0,0,1-.07-.09s0,0,0-.08c-1.58-.35-3.6-.4-4.85-1.5A.32.32,0,0,1,.1,9.69,10.54,10.54,0,0,1,2.56,8.58c2.78-1,5.67-1.27,8.26-2.49a4.75,4.75,0,0,1,2.91-.51c1.88.06,3.73.34,5.59.54h0L19.43,6a21,21,0,0,0-1-4.06,20.53,20.53,0,0,1-4.12-.19c-.68-.17-1.33-.36-2-.48A1,1,0,0,1,11.87.9c0-.14,0-.26.09-.34l0,0A6.2,6.2,0,0,1,13.19.18a17.05,17.05,0,0,1,3-.17ZM14.73.35a37,37,0,0,1,8.44.88c.28.14.59.26.87.4a.07.07,0,0,1,0,.06c-3.13,0-6.28.13-9.42-.14A6.31,6.31,0,0,1,12.71,1c0-.08-.09-.13-.08-.21a4.91,4.91,0,0,1,2.1-.4ZM44.81,1.7c.54.09,1.23-.1,1.67.32a32.84,32.84,0,0,1,2.27,2.9,5.41,5.41,0,0,1-1.31-.18.7.7,0,0,0-.66-.17l-.13.09a6,6,0,0,0-1.19,0A10.21,10.21,0,0,1,45,3c0-.44-.25-.86-.26-1.28ZM19.48,2l0,0,3.28,0C23.72,3.6,25,5,25.59,6.72a.87.87,0,0,1,0,.09l-5.31-.63a3.2,3.2,0,0,1-.47-1.4V4.67a7.32,7.32,0,0,1,3.24,0c.39.13.78.15,1.13.25h.09s.07,0,.09-.08a.16.16,0,0,0-.13-.15l-.13,0S24,4.55,24,4.52s0,0-.08,0L24,4a.27.27,0,0,0-.29.1c-.09.09-.06.21-.1.32a10.26,10.26,0,0,0-2.83-.2c-.36-.06-.67.11-1,.08l0,0c-.13-.75-.41-1.53-.51-2.28l.32,0ZM26,2.3l0,.32,0-.32ZM23.48,3.73h0a.34.34,0,0,1,.18.23.15.15,0,0,1,0,.06l-.07.06h0a.41.41,0,0,1-.16-.25l0-.09ZM46.21,4.92A13.21,13.21,0,0,1,48,5.16c.69.17,1.56.17,2,.68v.08A.23.23,0,0,1,50,6c-.28,0-.54-.1-.82-.14-1.29-.08-2.61-.76-3.82-.39l-.06.1c.66.6,1.45.94,2.15,1.48L43.09,6.8l0,0V6.71a5.23,5.23,0,0,1,2.86-1.77.87.87,0,0,0,.29,0Zm-18.69.36a16.2,16.2,0,0,1,2,.21c1.24.3,2.51.47,3.7.87a4.35,4.35,0,0,1,.2.67c.06.14.15.27.06.38s-.09.32-.22.41c-1.95-.17-3.93-.56-5.85-.86l0-.06a2.71,2.71,0,0,0,.06-1.53l0-.09Zm-1,.18.41.07c.16.06.16.25.19.4a1.65,1.65,0,0,1-.17.93.86.86,0,0,1-.67,0c-.23-.3-.1-.72,0-1.07a1.34,1.34,0,0,1,.25-.29Zm20.34.25L50,6.29c1.75,1.24,3.51,2.52,5.26,3.87,0,0,0,0,0,0-3.42-.53-5.76-2.94-8.48-4.49ZM13,5.85c7.08.43,14.18,1.49,21.27,2.46a11.88,11.88,0,0,1,1.3.29s0,0,0,.06l6.45,1.05.62.1a22.7,22.7,0,0,1,3.26.66.68.68,0,0,1,.11.08v.1a1.49,1.49,0,0,1-.57.17,29.77,29.77,0,0,1-4,.64c-.58.09-1.16.06-1.69.17a7.13,7.13,0,0,0-1.67-.55,68.92,68.92,0,0,0-7.17-1l-.18.1c-.11,0-.17.09-.25.13a.14.14,0,0,0,0,.09l-.34.57c-.17.13-.17.4-.26.57-1.38.13-2.72.09-4.13.09-1.08,0-2.11,0-3.18-.13,0,0-.06,0-.07,0-3.78-.47-7.52-.32-11.3-.64C7.7,10.57,4.09,10.64.58,10L.46,9.9a.07.07,0,0,1,0,0,20.14,20.14,0,0,1,5.68-2l1.5-.32a1.54,1.54,0,0,0,.61.89c.17.08.27,0,.46-.06s.06-.06.11,0A.34.34,0,0,0,9,8.58a7.07,7.07,0,0,0,.79.29,6.72,6.72,0,0,0,3.36.52c.25,0,.57,0,.7-.2a3.06,3.06,0,0,0,0-.93c-.59-.44-1.46-.51-2-1a4.45,4.45,0,0,1-.63-.37c-.06-.06-.06-.11-.1-.12a12.34,12.34,0,0,0-2.3.85.32.32,0,0,0-.11.15c0,.11.14.16.1.29a.46.46,0,0,0-.06.11c-.19,0-.36.19-.54.06a.2.2,0,0,0-.09,0A.73.73,0,0,1,8,7.82l-.2-.26.67-.21c.08,0,.09.13.19.16.77-.3,1.56-.75,2.38-1l.16-.14c.19.21.34.67.75.72.55.55,1.4.55,2,1,.07,0,0,.17.08.23l.06,0s0,0,0,0l0-.34c-.17-.06-.28-.28-.51-.28s-.33-.06-.48-.13c-.39,0-.56-.34-.91-.44a1.85,1.85,0,0,1-.81-.68c0-.09-.09-.13-.06-.21A1.45,1.45,0,0,1,12,5.92L13,5.85ZM41.91,7.57h0c.06,0,0,.13.06.19,2,.2,4-.06,6,.2a20.31,20.31,0,0,1-1.61,2.3c-3.32-.79-6.75-1-10.1-1.69l-.06-.31c.86-.1,1.79.14,2.69,0a4.64,4.64,0,0,0,2.94-.75Zm-8,.25a3.44,3.44,0,0,1,1,.13S35,8,35,8l-1.14-.17s.06,0,.09,0Zm-19.84.49h0c.13.2,0,.44.08.67-.08.11,0,.27-.09.34s0,0,0,0l0-1,0,0ZM8.6,8.55a9.68,9.68,0,0,0,5.12,1c.13,0,.18-.11.31-.17s0,0,0,.08c-.23.26-.7.17-1.07.2A10.18,10.18,0,0,1,9.23,9a3.52,3.52,0,0,1-.63-.34.12.12,0,0,1,0-.09Zm8.81.82.4,0a.42.42,0,0,1,.18.43c-.09.25-.06.56-.21.7a.69.69,0,0,1-.63-.11,1.9,1.9,0,0,1,.17-1l.09,0Zm2.33.22.41.07a1.3,1.3,0,0,1-.11,1,.57.57,0,0,1-.51.07l-.14-.07c-.12-.18.08-.41.06-.63s.07-.29.18-.36l.1,0Zm2.15.16.37.06c.14.1.11.32.06.48s-.14.48-.33.59a.5.5,0,0,1-.4-.06,1.14,1.14,0,0,1,.06-.89.41.41,0,0,1,.25-.18ZM24,9.93l.36.07c.1.14,0,.36,0,.53a5,5,0,0,0-.14.51.26.26,0,0,1-.17.09l-.31-.06c-.08-.08-.09-.19-.14-.3s.13-.4.09-.6A.42.42,0,0,1,24,9.93Zm2.11.26a.44.44,0,0,1,.32.13.14.14,0,0,1,0,.06c0,.19-.06.36-.06.59a.52.52,0,0,1-.35.32.36.36,0,0,1-.31,0c-.17-.31.06-.56.06-.88,0-.06,0-.08.06-.1l.24-.07Zm5.61.21c.83.16,1.68.15,2.53.32s1.67.26,2.47.32a4.08,4.08,0,0,0,.62.15,1.23,1.23,0,0,1,.51.16c.3.35.11.82.28,1.24,0,.21-.13.35-.15.56s-.13.25-.19.36A28.13,28.13,0,0,1,33,13.3,14,14,0,0,1,31.46,13a2.23,2.23,0,0,0,.39-1.9c-.09-.26-.13-.49-.2-.7l0,0Zm-29.9.13c7.39.74,14.78,1.19,22.2,1.53.71,0,1.36.09,2.07.09,1.26,0,2.45,0,3.7-.06h.1c.19.14.13.44.21.68-.34,0-.68-.09-1-.14-1.35-.13-2.68-.19-4-.19a4.77,4.77,0,0,0-1.83.22.92.92,0,0,0-.53.25c-5.67-.36-11.27-1-16.93-1.58a.16.16,0,0,0,0-.06s0,0-.09-.06a11.08,11.08,0,0,1-3.43-.48l-.44-.17s0,0,0,0Zm28.94,0h.21a1.12,1.12,0,0,1,.39,1.06c-.17.34-.1.78-.44,1a.43.43,0,0,1-.42-.06.44.44,0,0,0-.15-.17.23.23,0,0,1-.16,0s.08-.07.08-.14a2.29,2.29,0,0,1,.46-1.62Zm14.91.59.13,0a.78.78,0,0,1-.25.42,17.37,17.37,0,0,1-5,.48h-.23c1.72-.48,3.56-.59,5.32-.94ZM24.12,12.72a33.17,33.17,0,0,1,5.73.32c.25.11.51.09.71.22a3.56,3.56,0,0,0,.78.88c.09.14.25.23.32.33,1.15,1.16,2.42,2.33,3.41,3.55,1.39,1.67,3.3,3.13,4.59,4.77a.39.39,0,0,1,.13.14.1.1,0,0,1,0,0c-1,0-2-.11-3-.07-.38,0-.7,0-1.08,0a52.05,52.05,0,0,1-4.61-3.82,5.91,5.91,0,0,1,1.71-.24,9.85,9.85,0,0,1,2,.1,1.62,1.62,0,0,0,.93.13.15.15,0,0,1,0-.06v0a7.56,7.56,0,0,0-2.42-.43,10,10,0,0,0-2.58.29c-2.37-1.9-4.72-3.85-7.08-6l.4-.12Zm8.33,3.46h0a.72.72,0,0,1,.31.34l0,.1-.06,0c-.11-.09-.28-.21-.3-.37a.33.33,0,0,1,0-.09Zm2.72,7c1.71.14,3.43,0,5.18.21a17.64,17.64,0,0,1,5.46.84,57.66,57.66,0,0,1-14.25-.42c-.06,0,.06,0,0,0a8.56,8.56,0,0,1,3-.55l.58,0Zm5.09.33h0a.19.19,0,0,1,.13.15.25.25,0,0,1-.13.19.18.18,0,0,1-.15-.29l.1,0Zm-9,.82.63.1a82.4,82.4,0,0,0,10.45.51,1.29,1.29,0,0,0,.29,0c-3.76.12-7.82.39-11.39-.63Zm14.68.29c.23,0,.39.21.57.39s.32.31.4.48a13.56,13.56,0,0,1-1.54-.66c.1-.14.39-.16.57-.21Z"/></g></g></svg>