<svg xmlns="http://www.w3.org/2000/svg" viewBox="0 0 525.66 110.22"><defs><style>.cls-1,.cls-18,.cls-34,.cls-45{fill:#fff;}.cls-1,.cls-18,.cls-43,.cls-44,.cls-45{stroke:#231f20;}.cls-1{stroke-width:2px;}.cls-2{fill:#a7a9ac;}.cls-3{fill:#acaeb1;}.cls-4{fill:#b0b2b5;}.cls-5{fill:#b6b8ba;}.cls-6{fill:#babcbe;}.cls-7{fill:#bfc1c3;}.cls-8{fill:#c3c5c7;}.cls-9{fill:#c7c9cb;}.cls-10{fill:#cbcdcf;}.cls-11{fill:#d0d1d3;}.cls-12{fill:#d4d5d7;}.cls-13{fill:#dadcdd;}.cls-14{fill:#dee0e1;}.cls-15{fill:#e3e4e5;}.cls-16{fill:#e7e8e9;}.cls-17{fill:#ebeced;}.cls-19{fill:#d6d8d9;}.cls-20{fill:#e0e1e2;}.cls-21{fill:#e4e5e6;}.cls-22{fill:#d1d3d4;}.cls-23{fill:#f5886a;}.cls-24{fill:#f69376;}.cls-25{fill:#f79d80;}.cls-26{fill:#f8a68b;}.cls-27{fill:#f9b39a;}.cls-28{fill:#fabca5;}.cls-29{fill:#fbc7b2;}.cls-30{fill:#fcd1bf;}.cls-31{fill:#fddbcd;}.cls-32{fill:#fee7dd;}.cls-33{fill:#fff2ec;}.cls-35{fill:#e9eaeb;}.cls-36{fill:#eeeeef;}.cls-37{fill:#eff0f0;}.cls-38{fill:#f2f2f3;}.cls-39{fill:#f3f4f4;}.cls-40{fill:#f6f7f7;}.cls-41{fill:#f8f8f9;}.cls-42{fill:#fcfcfc;}.cls-43{fill:none;stroke-width:0.21px;}.cls-44,.cls-65{fill:#231f20;}.cls-45{stroke-width:0.72px;}.cls-46{fill:#948885;}.cls-47{fill:#908683;}.cls-48{fill:#8a827f;}.cls-49{fill:#857d7a;}.cls-50{fill:#807876;}.cls-51{fill:#7b7573;}.cls-52{fill:#77716f;}.cls-53{fill:#716c6b;}.cls-54{fill:#6d6867;}.cls-55{fill:#676363;}.cls-56{fill:#625e5e;}.cls-57{fill:#5d5959;}.cls-58{fill:#575353;}.cls-59{fill:#524e4e;}.cls-60{fill:#4b4849;}.cls-61{fill:#444242;}.cls-62{fill:#3e3c3c;}.cls-63{fill:#373435;}.cls-64{fill:#2d2b2c;}.cls-66{fill:#bcbec0;}.cls-67{fill:#c1c2c5;}.cls-68{fill:#cdcfd0;}.cls-69{fill:#d8d9db;}</style></defs><title>Lear28-29</title><g id="Layer_2" data-name="Layer 2"><g id="Layer_1-2" data-name="Layer 1"><path class="cls-1" d="M512.63,10.65c3.46-.14-5.11-6-13-7.27a223.5,223.5,0,0,0-37.08-2.3c-7.56.14-12.53,1.08-15.34,4.46-9.5,9.86-24.19,23.18-33.55,33.19-6,6.34-8.71,7.49-16.56,8.57l-40,2.88L357,59.61l135.22,4.18,10.08-49.61C506.15,14,510.55,11.8,512.63,10.65Z"/><path class="cls-2" d="M452.59,3.45l1.66-1.73a21.18,21.18,0,0,0-2.52.86Z"/><path class="cls-3" d="M452.59,3.45l-1.66,1.66-1.44-1.44a15.88,15.88,0,0,1,2.23-1.08Z"/><path class="cls-4" d="M450.93,5.11l-1.73,1.8-1.58-1.58.07-.07a6.35,6.35,0,0,1,1.8-1.58Z"/><rect class="cls-5" x="446.32" y="5.86" width="2.44" height="2.24" transform="translate(126.2 318.56) rotate(-45.01)"/><polygon class="cls-6" points="447.47 8.64 445.75 10.37 444.16 8.71 445.89 7.05 447.47 8.64"/><polygon class="cls-7" points="445.75 10.37 444.09 12.09 442.43 10.44 444.16 8.71 445.75 10.37"/><rect class="cls-8" x="441.18" y="10.96" width="2.44" height="2.34" transform="translate(120.96 316.34) rotate(-44.99)"/><polygon class="cls-9" points="442.36 13.82 440.63 15.62 438.98 13.82 440.7 12.16 442.36 13.82"/><polygon class="cls-10" points="440.63 15.62 438.9 17.35 437.25 15.55 438.98 13.82 440.63 15.62"/><polygon class="cls-11" points="438.9 17.35 437.25 19.08 435.52 17.28 437.25 15.55 438.9 17.35"/><polygon class="cls-12" points="437.25 19.08 435.52 20.8 433.79 18.93 435.52 17.28 437.25 19.08"/><polygon class="cls-13" points="435.52 20.8 433.87 22.53 432.07 20.66 433.79 18.93 435.52 20.8"/><polygon class="cls-14" points="433.87 22.53 432.14 24.26 430.34 22.39 432.07 20.66 433.87 22.53"/><polygon class="cls-15" points="432.14 24.26 430.41 26.06 428.61 24.12 430.34 22.39 432.14 24.26"/><polygon class="cls-16" points="430.41 26.06 428.75 27.72 426.88 25.77 428.61 24.12 430.41 26.06"/><polygon class="cls-17" points="428.75 27.72 427.03 29.52 425.15 27.5 426.88 25.77 428.75 27.72"/><path class="cls-18" d="M418.24,34.34h4l32-32.62c-1.58.5-4.82,1.37-6.55,3.53Z"/><polyline class="cls-18" points="482.11 14.32 478.58 23.04 483.26 22.82 486.14 24.62 486.64 26.2 481.89 26.64 476.56 40.46 479.44 42.4 479.08 43.99 475.05 43.99 467.42 61.2"/><polygon class="cls-12" points="223.84 108.93 223.63 108.93 223.7 109.08 223.84 108.93"/><polygon class="cls-19" points="223.84 108.93 223.99 108.93 223.77 109.22 223.7 109.08 223.84 108.93"/><polygon class="cls-13" points="223.99 108.93 224.27 108.86 223.91 109.44 223.77 109.22 223.99 108.93"/><polygon class="cls-13" points="224.27 108.86 224.42 108.86 223.99 109.51 223.91 109.44 224.27 108.86"/><polygon class="cls-14" points="224.42 108.86 224.63 108.86 224.06 109.65 223.99 109.51 224.42 108.86"/><polygon class="cls-20" points="224.63 108.86 224.92 108.86 224.2 109.87 224.06 109.65 224.63 108.86"/><polygon class="cls-15" points="224.92 108.86 225.06 108.86 224.27 110.01 224.2 109.87 224.92 108.86"/><polygon class="cls-21" points="225.06 108.86 225.28 108.86 224.34 110.16 224.27 110.01 225.06 108.86"/><polygon class="cls-22" points="185.9 108.5 185.68 108.5 185.75 108.64 185.9 108.5"/><polygon class="cls-12" points="185.9 108.5 186.11 108.43 185.9 108.86 185.75 108.64 185.9 108.5"/><polygon class="cls-19" points="186.11 108.43 186.4 108.43 185.97 109.08 185.9 108.86 186.11 108.43"/><polygon class="cls-13" points="186.4 108.43 186.69 108.43 186.11 109.22 185.97 109.08 186.4 108.43"/><polygon class="cls-13" points="186.69 108.43 187.05 108.36 186.26 109.51 186.11 109.22 186.69 108.43"/><polygon class="cls-14" points="187.05 108.36 187.34 108.36 186.4 109.72 186.26 109.51 187.05 108.36"/><polygon class="cls-20" points="187.34 108.36 187.63 108.36 186.54 109.94 186.4 109.72 187.34 108.36"/><polygon class="cls-15" points="187.63 108.36 187.84 108.28 186.62 110.16 186.54 109.94 187.63 108.36"/><polygon class="cls-22" points="239.83 108.57 240.4 107.92 239.47 107.92 239.83 108.57"/><polygon class="cls-12" points="239.83 108.57 239.32 109.22 238.53 107.92 239.47 107.92 239.83 108.57"/><polygon class="cls-19" points="239.32 109.22 238.75 109.8 237.59 107.92 238.53 107.92 239.32 109.22"/><polygon class="cls-22" points="50.83 107.56 49.89 107.56 50.47 108.21 50.83 107.56"/><polygon class="cls-12" points="50.83 107.56 51.69 107.56 50.97 108.79 50.47 108.21 50.83 107.56"/><polygon class="cls-19" points="51.69 107.56 52.63 107.56 51.55 109.44 50.97 108.79 51.69 107.56"/><polygon class="cls-13" points="52.63 107.56 53.2 107.56 53.42 107.85 52.05 110.08 51.55 109.44 52.63 107.56"/><path class="cls-23" d="M257.11,109.15a.94.94,0,0,1,.58-.86,2.66,2.66,0,0,1,.79.07,1,1,0,0,1,.5.79h-.07a.86.86,0,1,0-1.73,0Z"/><path class="cls-24" d="M257.18,109.15a.86.86,0,1,1,1.73,0h-.07a.79.79,0,0,0-1.58,0Z"/><path class="cls-25" d="M257.25,109.15a.79.79,0,0,1,1.58,0h-.07a.72.72,0,0,0-1.44,0Z"/><path class="cls-26" d="M257.32,109.15a.72.72,0,0,1,1.44,0h-.07a.65.65,0,0,0-1.3,0Z"/><path class="cls-27" d="M257.39,109.15a.65.65,0,0,1,1.3,0h-.07a.58.58,0,0,0-1.15,0Z"/><path class="cls-28" d="M257.47,109.15a.58.58,0,0,1,1.15,0h-.14a.43.43,0,0,0-.86,0Z"/><path class="cls-29" d="M257.61,109.15a.43.43,0,0,1,.86,0h-.07a.36.36,0,0,0-.72,0Z"/><path class="cls-30" d="M257.68,109.15a.36.36,0,0,1,.72,0h-.07a.29.29,0,0,0-.58,0Z"/><path class="cls-31" d="M257.75,109.15a.29.29,0,0,1,.58,0h-.07a.22.22,0,0,0-.43,0Z"/><path class="cls-31" d="M257.75,109.15h0a.29.29,0,1,0,.58,0h-.07a.22.22,0,1,1-.43,0h-.07Z"/><path class="cls-32" d="M257.83,109.15a.22.22,0,0,1,.43,0h-.07a.14.14,0,0,0-.29,0Z"/><path class="cls-32" d="M257.83,109.15h0a.22.22,0,1,0,.43,0h-.07a.14.14,0,1,1-.29,0h-.07Z"/><path class="cls-33" d="M257.9,109.15a.14.14,0,0,1,.29,0h0l-.14.07.07-.07-.07-.07-.07.07Z"/><path class="cls-33" d="M257.9,109.15h0a.14.14,0,1,0,.29,0l-.14.07h0l-.07-.07h-.07Z"/><rect class="cls-34" x="257.99" y="109.1" width="0.1" height="0.1" transform="translate(-1.31 215.16) rotate(-45.16)"/><polygon class="cls-22" points="51.04 101.8 51.19 101.3 50.68 101.3 51.04 101.8"/><polygon class="cls-12" points="51.04 101.8 50.83 102.31 50.1 101.3 50.68 101.3 51.04 101.8"/><polygon class="cls-19" points="50.83 102.31 50.61 102.96 49.53 101.3 50.1 101.3 50.83 102.31"/><polygon class="cls-13" points="50.61 102.96 50.47 103.53 48.88 101.3 49.53 101.3 50.61 102.96"/><polygon class="cls-13" points="50.47 103.53 50.25 104.04 48.38 101.3 48.88 101.3 50.47 103.53"/><polygon class="cls-14" points="50.25 104.04 50.1 104.61 47.73 101.3 48.38 101.3 50.25 104.04"/><polygon class="cls-20" points="50.1 104.61 49.89 105.26 47.66 102.09 47.73 101.3 47.73 101.3 50.1 104.61"/><polygon class="cls-15" points="49.89 105.26 49.82 105.41 49.46 105.41 47.59 102.74 47.66 102.09 49.89 105.26"/><polygon class="cls-21" points="49.46 105.41 48.81 105.33 47.59 103.53 47.59 102.74 49.46 105.41"/><polygon class="cls-16" points="48.81 105.33 48.16 105.33 47.37 104.11 47.51 104.11 47.59 103.53 48.81 105.33"/><polygon class="cls-35" points="48.16 105.33 47.59 105.33 46.79 104.11 47.37 104.11 48.16 105.33"/><polygon class="cls-17" points="47.59 105.33 47.01 105.26 46.22 104.18 46.79 104.11 47.59 105.33"/><polygon class="cls-36" points="47.01 105.26 46.36 105.26 45.64 104.18 46.22 104.18 47.01 105.26"/><polygon class="cls-37" points="46.36 105.26 45.79 105.19 45.06 104.18 45.64 104.18 46.36 105.26"/><polygon class="cls-38" points="45.79 105.19 45.14 105.19 44.49 104.25 45.06 104.18 45.79 105.19"/><polygon class="cls-39" points="45.14 105.19 44.49 105.12 43.84 104.25 44.49 104.25 45.14 105.19"/><polygon class="cls-40" points="44.49 105.12 43.98 105.12 43.34 104.25 43.84 104.25 44.49 105.12"/><polygon class="cls-41" points="43.98 105.12 43.34 105.12 42.76 104.33 43.34 104.25 43.98 105.12"/><polygon class="cls-42" points="43.34 105.12 42.69 105.04 42.4 104.68 42.4 104.33 42.76 104.33 43.34 105.12"/><polygon class="cls-34" points="42.69 105.04 42.4 105.04 42.4 104.68 42.69 105.04"/><polygon class="cls-43" points="51.19 101.3 47.73 101.3 47.51 104.11 42.4 104.33 42.4 105.04 49.82 105.41 51.19 101.3"/><path class="cls-1" d="M256.6,109.22,117.35,109l-50,.22c-17.06-.36-30.24-1.3-41.4-2.16-5.4-.43-16.34-.94-22.75-4.46-3.17-2.3-2.74-3.74-.14-5.76C7.7,93.31,14,90.28,21.74,87.4c7.42-2.88,27.14-8.14,37.87-10.73L83.87,59.32c4-3,15.77-4.46,26.21-4.82l180.65-.65,35.64-.07c52.49,1.22,127.87,8.35,166,7.85l-.94,4.54-24.84,6c-27.79,6.91-103.68,26.35-130.46,30.31S276.69,107.78,256.6,109.22Z"/><path class="cls-44" d="M110,62l.5,13.1C93.59,79.27,79,79.63,59.83,78.55L59.9,77l24-17.14L86.61,58C89.92,58,102.31,60.4,110,62Z"/><line class="cls-43" x1="120.23" y1="93.81" x2="157.24" y2="93.6"/><path class="cls-18" d="M121.53,63.14H155c1.08,0,1.87.58,1.87,1.3v40.39c0,.72-.79,1.3-1.87,1.3H121.53c-1.08,0-1.87-.58-1.87-1.3V64.44C119.66,63.72,120.45,63.14,121.53,63.14Z"/><path class="cls-18" d="M186.62,76.6a1.26,1.26,0,0,0,1.08.43h4.54a1.26,1.26,0,0,0,1.08-.43Z"/><path class="cls-18" d="M186.62,76.6a.77.77,0,0,1-.14-.43h7a.77.77,0,0,1-.14.43Z"/><path class="cls-18" d="M186.47,76.17a.54.54,0,0,1-.07-.36v-.14h7.13v.14a.54.54,0,0,1-.07.36Z"/><rect class="cls-18" x="186.4" y="75.24" width="7.13" height="0.43"/><rect class="cls-18" x="186.4" y="74.73" width="7.13" height="0.5"/><rect class="cls-18" x="186.4" y="74.3" width="7.13" height="0.43"/><rect class="cls-18" x="186.4" y="73.8" width="7.13" height="0.5"/><rect class="cls-18" x="186.4" y="73.36" width="7.13" height="0.43"/><rect class="cls-18" x="186.4" y="72.86" width="7.13" height="0.5"/><rect class="cls-18" x="186.4" y="72.36" width="7.13" height="0.5"/><rect class="cls-18" x="186.4" y="71.92" width="7.13" height="0.43"/><rect class="cls-18" x="186.4" y="71.42" width="7.13" height="0.5"/><rect class="cls-18" x="186.4" y="70.99" width="7.13" height="0.43"/><rect class="cls-18" x="186.4" y="70.48" width="7.13" height="0.5"/><rect class="cls-18" x="186.4" y="70.05" width="7.13" height="0.43"/><rect class="cls-18" x="186.4" y="69.55" width="7.13" height="0.5"/><rect class="cls-18" x="186.4" y="69.12" width="7.13" height="0.43"/><path class="cls-18" d="M186.4,69.12v-.5h7.13v.5Z"/><path class="cls-18" d="M186.4,68.61a3.46,3.46,0,0,1,.22-.5h6.7a3.46,3.46,0,0,1,.22.5Z"/><path class="cls-18" d="M186.62,68.11a1.26,1.26,0,0,1,1.08-.43h4.54a1.26,1.26,0,0,1,1.08.43Z"/><path class="cls-18" d="M187.7,67.68h4.54a1.15,1.15,0,0,1,1.3,1.3v6.84c0,.79-.43,1.22-1.3,1.22H187.7c-.86,0-1.3-.43-1.3-1.22V69A1.15,1.15,0,0,1,187.7,67.68Z"/><path class="cls-18" d="M209.73,76.6a1.26,1.26,0,0,0,1.08.43h4.54a1.27,1.27,0,0,0,1.08-.43Z"/><path class="cls-18" d="M209.73,76.6a.77.77,0,0,1-.14-.43h7a.77.77,0,0,1-.14.43Z"/><path class="cls-18" d="M209.59,76.17a.54.54,0,0,1-.07-.36v-.14h7.13v.14a.54.54,0,0,1-.07.36Z"/><rect class="cls-18" x="209.51" y="75.24" width="7.13" height="0.43"/><rect class="cls-18" x="209.51" y="74.73" width="7.13" height="0.5"/><rect class="cls-18" x="209.51" y="74.3" width="7.13" height="0.43"/><rect class="cls-18" x="209.51" y="73.8" width="7.13" height="0.5"/><rect class="cls-18" x="209.51" y="73.36" width="7.13" height="0.43"/><rect class="cls-18" x="209.51" y="72.86" width="7.13" height="0.5"/><rect class="cls-18" x="209.51" y="72.36" width="7.13" height="0.5"/><rect class="cls-18" x="209.51" y="71.92" width="7.13" height="0.43"/><rect class="cls-18" x="209.51" y="71.42" width="7.13" height="0.5"/><rect class="cls-18" x="209.51" y="70.99" width="7.13" height="0.43"/><rect class="cls-18" x="209.51" y="70.48" width="7.13" height="0.5"/><rect class="cls-18" x="209.51" y="70.05" width="7.13" height="0.43"/><rect class="cls-18" x="209.51" y="69.55" width="7.13" height="0.5"/><rect class="cls-18" x="209.51" y="69.12" width="7.13" height="0.43"/><path class="cls-18" d="M209.51,69.12v-.5h7.13v.5Z"/><path class="cls-18" d="M209.51,68.61a3.4,3.4,0,0,1,.22-.5h6.7a3.46,3.46,0,0,1,.22.5Z"/><path class="cls-18" d="M209.73,68.11a1.26,1.26,0,0,1,1.08-.43h4.54a1.27,1.27,0,0,1,1.08.43Z"/><path class="cls-18" d="M210.81,67.68h4.54a1.15,1.15,0,0,1,1.3,1.3v6.84c0,.79-.43,1.22-1.3,1.22h-4.54c-.86,0-1.3-.43-1.3-1.22V69A1.15,1.15,0,0,1,210.81,67.68Z"/><path class="cls-18" d="M230.32,76.1a1.27,1.27,0,0,0,1.08.43h4.54A1.26,1.26,0,0,0,237,76.1Z"/><path class="cls-18" d="M230.32,76.1a.77.77,0,0,1-.14-.43h7a.77.77,0,0,1-.14.43Z"/><path class="cls-18" d="M230.18,75.67a.54.54,0,0,1-.07-.36v-.14h7.13v.14a.54.54,0,0,1-.07.36Z"/><rect class="cls-18" x="230.11" y="74.73" width="7.13" height="0.43"/><rect class="cls-18" x="230.11" y="74.23" width="7.13" height="0.5"/><rect class="cls-18" x="230.11" y="73.8" width="7.13" height="0.43"/><rect class="cls-18" x="230.11" y="73.29" width="7.13" height="0.5"/><rect class="cls-18" x="230.11" y="72.86" width="7.13" height="0.43"/><rect class="cls-18" x="230.11" y="72.36" width="7.13" height="0.5"/><rect class="cls-18" x="230.11" y="71.85" width="7.13" height="0.5"/><rect class="cls-18" x="230.11" y="71.42" width="7.13" height="0.43"/><rect class="cls-18" x="230.11" y="70.92" width="7.13" height="0.5"/><rect class="cls-18" x="230.11" y="70.48" width="7.13" height="0.43"/><rect class="cls-18" x="230.11" y="69.98" width="7.13" height="0.5"/><rect class="cls-18" x="230.11" y="69.55" width="7.13" height="0.43"/><rect class="cls-18" x="230.11" y="69.04" width="7.13" height="0.5"/><rect class="cls-18" x="230.11" y="68.61" width="7.13" height="0.43"/><path class="cls-18" d="M230.11,68.61v-.5h7.13v.5Z"/><path class="cls-18" d="M230.11,68.11a3.51,3.51,0,0,1,.22-.5H237a3.51,3.51,0,0,1,.22.5Z"/><path class="cls-18" d="M230.32,67.6a1.27,1.27,0,0,1,1.08-.43h4.54a1.27,1.27,0,0,1,1.08.43Z"/><path class="cls-18" d="M231.4,67.17h4.54a1.15,1.15,0,0,1,1.3,1.3v6.84c0,.79-.43,1.22-1.3,1.22H231.4c-.86,0-1.3-.43-1.3-1.22V68.47A1.15,1.15,0,0,1,231.4,67.17Z"/><path class="cls-18" d="M166.82,76.6a1.26,1.26,0,0,0,1.08.43h4.54a1.26,1.26,0,0,0,1.08-.43Z"/><path class="cls-18" d="M166.82,76.6a.77.77,0,0,1-.14-.43h7a.77.77,0,0,1-.14.43Z"/><path class="cls-18" d="M166.67,76.17a.54.54,0,0,1-.07-.36v-.14h7.13v.14a.54.54,0,0,1-.07.36Z"/><rect class="cls-18" x="166.6" y="75.24" width="7.13" height="0.43"/><rect class="cls-18" x="166.6" y="74.73" width="7.13" height="0.5"/><rect class="cls-18" x="166.6" y="74.3" width="7.13" height="0.43"/><rect class="cls-18" x="166.6" y="73.8" width="7.13" height="0.5"/><rect class="cls-18" x="166.6" y="73.36" width="7.13" height="0.43"/><rect class="cls-18" x="166.6" y="72.86" width="7.13" height="0.5"/><rect class="cls-18" x="166.6" y="72.36" width="7.13" height="0.5"/><rect class="cls-18" x="166.6" y="71.92" width="7.13" height="0.43"/><rect class="cls-18" x="166.6" y="71.42" width="7.13" height="0.5"/><rect class="cls-18" x="166.6" y="70.99" width="7.13" height="0.43"/><rect class="cls-18" x="166.6" y="70.48" width="7.13" height="0.5"/><rect class="cls-18" x="166.6" y="70.05" width="7.13" height="0.43"/><rect class="cls-18" x="166.6" y="69.55" width="7.13" height="0.5"/><rect class="cls-18" x="166.6" y="69.12" width="7.13" height="0.43"/><path class="cls-18" d="M166.6,69.12v-.5h7.13v.5Z"/><path class="cls-18" d="M166.6,68.61a3.47,3.47,0,0,1,.22-.5h6.7a3.51,3.51,0,0,1,.22.5Z"/><path class="cls-18" d="M166.82,68.11a1.26,1.26,0,0,1,1.08-.43h4.54a1.26,1.26,0,0,1,1.08.43Z"/><path class="cls-18" d="M167.9,67.68h4.54a1.15,1.15,0,0,1,1.3,1.3v6.84c0,.79-.43,1.22-1.3,1.22H167.9c-.86,0-1.3-.43-1.3-1.22V69A1.15,1.15,0,0,1,167.9,67.68Z"/><path class="cls-45" d="M356.68,64.29c3.82,4.61,10.44,4.9,18.22,5.33v.86c-5.76.22-14.18-.72-18.22,4.61Z"/><rect class="cls-46" x="353.66" y="63.93" width="4.18" height="0.58"/><rect class="cls-47" x="353.66" y="64.51" width="4.18" height="0.58"/><rect class="cls-48" x="353.66" y="65.08" width="4.18" height="0.58"/><rect class="cls-49" x="353.66" y="65.66" width="4.18" height="0.58"/><rect class="cls-50" x="353.66" y="66.24" width="4.18" height="0.58"/><rect class="cls-51" x="353.66" y="66.81" width="4.18" height="0.58"/><rect class="cls-52" x="353.66" y="67.39" width="4.18" height="0.65"/><rect class="cls-53" x="353.66" y="68.04" width="4.18" height="0.58"/><rect class="cls-54" x="353.66" y="68.61" width="4.18" height="0.58"/><rect class="cls-55" x="353.66" y="69.19" width="4.18" height="0.58"/><rect class="cls-56" x="353.66" y="69.77" width="4.18" height="0.58"/><rect class="cls-57" x="353.66" y="70.34" width="4.18" height="0.58"/><rect class="cls-58" x="353.66" y="70.92" width="4.18" height="0.65"/><rect class="cls-59" x="353.66" y="71.56" width="4.18" height="0.58"/><rect class="cls-60" x="353.66" y="72.14" width="4.18" height="0.58"/><rect class="cls-61" x="353.66" y="72.72" width="4.18" height="0.58"/><rect class="cls-62" x="353.66" y="73.29" width="4.18" height="0.58"/><rect class="cls-63" x="353.66" y="73.87" width="4.18" height="0.58"/><rect class="cls-64" x="353.66" y="74.44" width="4.18" height="0.65"/><rect class="cls-65" x="353.66" y="75.09" width="4.18" height="0.58"/><rect class="cls-18" x="353.66" y="63.93" width="4.18" height="11.74"/><path class="cls-18" d="M275.68,81.14c11.81,7.41,49.54,7.49,80.14-4.54l.07-14.4c-4.18-1.51-55.94-10.51-79.49-2.74Z"/><path class="cls-14" d="M294.69,84.38a88.93,88.93,0,0,0,19.08,0Z"/><path class="cls-18" d="M273.09,78.4l.58-16.85c-.14-1.15,2.16-2,3.38-2.38l-.72,22.18C274.67,80.64,273.23,79.12,273.09,78.4Z"/><rect class="cls-43" x="309.23" y="75.16" width="1.3" height="3.6"/><path class="cls-66" d="M457.27,10.72c6,2.45,22.32,1.8,31.46,1.73,11.23,0,23-.22,31.82-1.73Z"/><path class="cls-67" d="M457.27,10.72c-.07,0-.14-.07-.22-.07h64a1.07,1.07,0,0,1-.5.07Z"/><path class="cls-8" d="M457,10.65a.25.25,0,0,0-.14-.07h64.58a.91.91,0,0,1-.43.07Z"/><path class="cls-9" d="M456.9,10.58c-.07,0-.07-.07-.14-.07H522c-.22,0-.36.07-.5.07Z"/><path class="cls-10" d="M456.76,10.51c-.07,0-.07-.07-.14-.07h65.74a3.14,3.14,0,0,0-.36.07Z"/><path class="cls-68" d="M456.62,10.44h0a.07.07,0,0,0-.07-.07h66.1c-.07,0-.22.07-.29.07Z"/><path class="cls-22" d="M456.55,10.36v-.07H523a3.12,3.12,0,0,1-.36.07Z"/><path class="cls-12" d="M456.55,10.29v-.07h66.82a3.06,3.06,0,0,1-.36.07Z"/><path class="cls-69" d="M456.55,10.22c-.07,0-.07,0-.07-.07h67.25c-.14,0-.22.07-.36.07Z"/><path class="cls-13" d="M456.47,10.15v-.07h67c.07,0,.14.07.22.07Z"/><path class="cls-14" d="M456.47,10.08l.07-.07h66.74c.07,0,.14.07.22.07Z"/><path class="cls-15" d="M456.55,10V9.93h66.53a.26.26,0,0,0,.22.07Z"/><path class="cls-21" d="M456.55,9.93l.07-.07h66.24a.26.26,0,0,0,.22.07Z"/><path class="cls-35" d="M456.62,9.86l.07-.07h65.88c.07,0,.22.07.29.07Z"/><path class="cls-17" d="M456.69,9.79c.07-.07.07-.07.14-.07h65.38c.14,0,.22.07.36.07Z"/><path class="cls-37" d="M456.83,9.72l.07-.07h64.94a.65.65,0,0,1,.36.07Z"/><path class="cls-38" d="M456.9,9.64h0l.07-.07h64.58a.43.43,0,0,1,.29.07Z"/><path class="cls-40" d="M457,9.57,457,9.5h64.22c.14,0,.22,0,.29.07Z"/><path class="cls-42" d="M457,9.5c.07-.07.14-.14.22-.14H520.7c.22.07.43.07.58.14Z"/><path class="cls-34" d="M457.27,9.36c2.81-1.94,14.18-2.45,43.49-1.73A106,106,0,0,1,520.7,9.36Z"/><path class="cls-18" d="M500.75,7.63c7.2-.14,18.86,1.08,23,2.52-9.14,2-22.39,2.3-35,2.3-9.5.07-26.64.79-32.11-2-.29-.36,0-.65.29-.79C458.92,7.48,469.94,6.84,500.75,7.63Z"/><path class="cls-66" d="M495.57,10.36c.43.79,1.94,1.87,5.26,2.23,6.48-.36,14.11-1.08,19.44-1.87Z"/><polygon class="cls-67" points="495.57 10.37 495.57 10.37 520.26 10.72 520.26 10.72 495.57 10.37"/><path class="cls-8" d="M495.57,10.36v-.07l25.2.36c-.14,0-.29.07-.5.07Z"/><path class="cls-9" d="M495.57,10.29l-.07-.07,25.7.36c-.14,0-.29.07-.43.07Z"/><path class="cls-10" d="M495.5,10.22v-.07l26.14.36c-.14,0-.29.07-.43.07Z"/><path class="cls-68" d="M495.5,10.15c0-.07,0-.07-.07-.07l26.64.36c-.14,0-.29.07-.43.07Z"/><path class="cls-22" d="M495.43,10.08V10l27.07.36c-.14,0-.29.07-.43.07Z"/><path class="cls-12" d="M495.43,10V9.93l27.5.36c-.14,0-.29.07-.43.07Z"/><path class="cls-69" d="M495.43,9.93V9.86l27.86.36a3.17,3.17,0,0,0-.36.07Z"/><path class="cls-13" d="M495.43,9.86V9.79l28.22.36c-.14,0-.22.07-.36.07Z"/><polygon class="cls-14" points="495.43 9.79 495.43 9.79 523.65 10.15 523.65 10.15 495.43 9.79"/><path class="cls-15" d="M495.43,9.79V9.72l28.58.36c-.14,0-.22.07-.36.07Z"/><path class="cls-21" d="M495.43,9.72h0V9.64l28.94.36c-.14,0-.22.07-.36.07Z"/><path class="cls-35" d="M495.43,9.64l.07-.07,29.16.36c-.07,0-.22.07-.29.07Z"/><path class="cls-17" d="M495.5,9.57V9.5l29.45.36c-.07,0-.14.07-.29.07Z"/><path class="cls-37" d="M495.5,9.5a.07.07,0,0,1,.07-.07l29.66.36c-.07,0-.14.07-.29.07Z"/><path class="cls-38" d="M495.57,9.43c0-.07,0-.07.07-.07l29.88.36h0c-.07,0-.14.07-.29.07Z"/><path class="cls-40" d="M495.64,9.36c0-.07,0-.07.07-.07l29.3.36a4.07,4.07,0,0,1,.5.07Z"/><path class="cls-42" d="M495.71,9.28V9.21l28.94.36a3.15,3.15,0,0,1,.36.07Z"/><path class="cls-34" d="M495.71,9.21c.86-.86,3.24-1.66,5.47-1.66,5.11-.22,19.58,1.44,23.47,2Z"/><path class="cls-18" d="M501.18,7.56c5.62-.22,22.68,1.8,24.34,2.16-4.1,1.15-15.55,2.38-24.7,2.88-4.32-.43-5.47-2.09-5.4-2.88C495.64,8.71,498.52,7.56,501.18,7.56Z"/><polygon class="cls-34" points="309.59 91.36 309.23 87.33 260.49 91.36 309.59 91.36"/><path class="cls-37" d="M308.08,93.24l-.29.36h-63.5c.79-.14,1.58-.29,2.3-.36Z"/><path class="cls-36" d="M307.79,93.6l-.29.36H241.91c.86-.14,1.65-.29,2.38-.36Z"/><path class="cls-17" d="M307.51,94l-.29.43H238.89q1.62-.22,3-.43Z"/><path class="cls-35" d="M307.22,94.39l-.29.36H236.37c.86-.07,1.73-.22,2.52-.36Z"/><path class="cls-16" d="M306.93,94.75l-.29.36H234a23.69,23.69,0,0,0,2.38-.36Z"/><path class="cls-21" d="M306.64,95.11l-.36.43H231.11l2.88-.43Z"/><path class="cls-15" d="M306.28,95.54l-.29.36h-77.4c.79-.07,1.66-.22,2.52-.36Z"/><path class="cls-20" d="M306,95.9l-.29.36H226.07c.87-.07,1.66-.22,2.52-.36Z"/><path class="cls-14" d="M305.71,96.26l-.29.36H223.77c.79-.14,1.58-.22,2.3-.36Z"/><path class="cls-22" d="M304.19,98.2l-.65.79c-31.61,3.1-78.34,2.81-87-.79Z"/><path class="cls-18" d="M309.59,91.36l-6,7.63c-33,3.24-82.65,2.74-87.91-1.3,21-2.74,38.66-5.83,43.13-6.19l50.47-4.18Z"/><path class="cls-18" d="M273.52,91.58l-1.15-2.81-49.54,5.69c-10.66,1.8-9.65,3.53-2.59,4.82Z"/><path class="cls-18" d="M276.62,91.73c11.09,1.08,23,.5,33-.29l17.78-39.1-7.63-.43a3.33,3.33,0,0,0-2.52,1.37L292.1,82.44c-3.38,3.89-12.17,6-15.62,5.9Z"/><path class="cls-2" d="M318.67,54.28l1.87-2.3a5.5,5.5,0,0,0-3.17.94h0Z"/><polygon class="cls-3" points="318.67 54.28 316.72 56.59 315.43 55.15 317.37 52.92 318.67 54.28"/><polygon class="cls-4" points="316.72 56.59 314.85 58.89 313.48 57.38 315.43 55.15 316.72 56.59"/><polygon class="cls-5" points="314.85 58.89 312.9 61.2 311.46 59.68 313.48 57.38 314.85 58.89"/><polygon class="cls-6" points="312.9 61.2 311.03 63.5 309.59 61.99 311.46 59.68 312.9 61.2"/><polygon class="cls-7" points="311.03 63.5 309.09 65.8 307.65 64.22 309.59 61.99 311.03 63.5"/><polygon class="cls-8" points="309.09 65.8 307.22 68.18 305.63 66.53 307.65 64.22 309.09 65.8"/><polygon class="cls-9" points="307.22 68.18 305.27 70.48 303.69 68.76 305.63 66.53 307.22 68.18"/><polygon class="cls-10" points="305.27 70.48 303.4 72.79 301.75 70.99 303.69 68.76 305.27 70.48"/><polygon class="cls-11" points="303.4 72.79 301.46 75.09 299.73 73.29 301.75 70.99 303.4 72.79"/><polygon class="cls-12" points="301.46 75.09 299.58 77.4 297.86 75.53 299.73 73.29 301.46 75.09"/><polygon class="cls-13" points="299.58 77.4 297.64 79.7 295.91 77.76 297.86 75.53 299.58 77.4"/><polygon class="cls-14" points="297.64 79.7 295.7 82.08 293.9 80.06 295.91 77.76 297.64 79.7"/><path class="cls-15" d="M295.7,82.08l-1.22,1.51c-.22.22-.43.5-.65.72l-1.87-2a20.56,20.56,0,0,0,1.66-1.87l.29-.36Z"/><path class="cls-16" d="M293.83,84.31a15.47,15.47,0,0,1-2.3,1.87l-1.87-2a28.9,28.9,0,0,0,2.3-1.87Z"/><path class="cls-17" d="M291.52,86.18a23,23,0,0,1-2.59,1.66L287,85.75a19.9,19.9,0,0,0,2.67-1.58Z"/><path class="cls-37" d="M288.93,87.84a24.06,24.06,0,0,1-2.74,1.37L284,87a27.75,27.75,0,0,0,3-1.22Z"/><path class="cls-39" d="M286.19,89.2c-.94.43-1.94.86-3,1.22l-2.45-2.59A21.37,21.37,0,0,0,284,87Z"/><path class="cls-41" d="M283.24,90.43a24.9,24.9,0,0,1-3.31.86l-2.81-2.88c1.3-.14,2.52-.36,3.67-.58Z"/><path class="cls-34" d="M279.93,91.29a22.24,22.24,0,0,1-3.17.5l-.43-3.31c.29,0,.57-.07.79-.07Z"/><path class="cls-18" d="M320.54,52,294.47,83.59c-3.24,3.67-10.51,7.56-17.71,8.21l-.43-3.31c8.85-.79,14-3.89,17.28-8.06l23.76-27.5A5.5,5.5,0,0,1,320.54,52Z"/><path class="cls-2" d="M276.55,88.7v-.43h-.36Z"/><path class="cls-3" d="M276.55,88.7l.07.58-.94-.94a1.4,1.4,0,0,0,.5-.07Z"/><path class="cls-4" d="M276.62,89.28v.65l-1.51-1.51a1.79,1.79,0,0,1,.58-.07Z"/><path class="cls-5" d="M276.62,89.92v.65l-2-2.16h.5Z"/><path class="cls-6" d="M276.62,90.57l.07.65L274,88.48a1.6,1.6,0,0,1,.58-.07Z"/><path class="cls-7" d="M276.69,91.22v.22h-.36l-2.81-3h.5Z"/><path class="cls-8" d="M276.33,91.44l-.58.07-2.81-3a1.58,1.58,0,0,0,.58-.07Z"/><path class="cls-9" d="M275.75,91.51h-.5l-2.81-2.88c.22,0,.36-.07.5-.07Z"/><path class="cls-10" d="M275.25,91.51h-.58l-2.74-2.81a1.4,1.4,0,0,1,.5-.07Z"/><path class="cls-11" d="M274.67,91.51l-.58.07-2.66-2.88h.5Z"/><path class="cls-12" d="M274.1,91.58h-.58l-2.59-2.74c.07-.07.07-.07.14-.07a.54.54,0,0,0,.36-.07Z"/><path class="cls-13" d="M273.52,91.58a1.81,1.81,0,0,1-.58.07L270.5,89a1,1,0,0,1,.43-.14Z"/><path class="cls-14" d="M272.94,91.65h-.58l-2.23-2.37a1.58,1.58,0,0,1,.36-.29Z"/><path class="cls-15" d="M272.37,91.65a1.23,1.23,0,0,1-.5-.07l-1.95-2.09c0-.07.14-.14.22-.22Z"/><path class="cls-16" d="M271.87,91.58c-.29,0-.51-.07-.72-.07l-1.44-1.58a.62.62,0,0,1,.22-.43Z"/><path class="cls-17" d="M271.15,91.51c-1.22-.29-1.58-1-1.44-1.58Z"/><path class="cls-18" d="M271.07,88.77c2.38-.29,2.74-.29,5.47-.5l.14,3.17-3,.14C268.84,92.08,268.91,89.35,271.07,88.77Z"/></g></g></svg>