<svg xmlns="http://www.w3.org/2000/svg" viewBox="0 0 519.05 263.9"><defs><style>.cls-1{fill:#231f20;fill-rule:evenodd;}</style></defs><title>Sabre65</title><g id="Layer_2" data-name="Layer 2"><g id="Layer_1-2" data-name="Layer 1"><path class="cls-1" d="M279.32,138.05c0,1.44.85,3.33,2.22,3.33h1.11c1.35,0,3-1,3-2.22v-1.48c0-2.17-3.42-7.21-4.81-8.14-.66,2.85-1.48,4.89-1.48,8.51ZM493.9,258.71l.69,0,.79-1.07h-.74l-.74,1.11Zm-9.25-1.11h.74l1.17-1.42-1.17-.06-3.67-1.46-.4.72-.69,0-.79,1.07-142.78-26-.33-.23,6.66-6L342.21,221c-2.86,1.91-7.66,5.51-9.29,8.69L187.2,196.16c12-2.79,23.71-5.79,36.59-7.81,11.7-1.83,26.84-4.77,40-4.77H266c3.6,0,25.95,6.81,30.94,8.28,10.29,3,20.3,5.54,30.61,8.61,5,1.47,10.58,2.63,15.29,4.32,3.52,1.27,11.83,3.61,15.3,4.31,4.81,1,10.41,2.84,15.37,4.24,5.14,1.45,10.67,2.71,15.64,4.34,9.63,3.15,20.5,5.84,30.52,8.69,10.63,3,20.41,5.55,31.07,8.52,10,2.78,20.87,5.52,30.62,8.6,4.47,1.41,27.79,8.49,31.12,8.79l-9.72,4.21a6,6,0,0,0-3-.74h-.74a3.53,3.53,0,0,0-3,1.48c1.17-.27,2.17-1.11,3-1.11,1.7,0,3.69.46,4.44,1.48-1.16,1.59-8.16,3.83-11.17,4.05l.45-1.83c-2.95,0-7.7.23-9.25-1.11l-1.12,1.92-5.16-.52-.37-.22,2.95-3.4.69,0,.79-1.07,4.07.74-.07.67-.67.81ZM290,156.93c0-5.35,4.82-13,10.36-13h.37c8.11,0,12.95,10,12.95,18.51,0,6.53-4.24,15.55-10,15.55h-1.48c-6.92,0-12.21-9.53-12.21-17v-4.07Zm-141.32-10c0-3.38,6.31-4.44,9.62-4.44h3c6.86,0,9.62,17.51,9.62,25.54v7.4c0,4.41-1.38,5.27-5.09,6a73.54,73.54,0,0,1-9.34,1.39h-.37c-3.1,0-3-4.51-3-7.77,0-3.8-.74-6.35-.74-9.62,0-6.21-3.7-13.95-3.7-17v-1.48Zm156.86-3.7c2.29-3.13,25.59-4.81,32.93-4.81,9.81,0,17.78,1.88,26.26,2.6A70.72,70.72,0,0,1,376.25,144a8.64,8.64,0,0,1,5.55,8.52v.37c0,8-24.1,15.6-31.39,18.19-13.08,4.64-24,7.35-41.86,7.35,1.49-2,2.91-2.31,4.69-5.67.73-1.37,2.34-5.85,2.34-7.65v-3.33c0-7.49-4.52-17.23-10-18.51ZM370,115.85c2.5-3.41,22-9.68,27.83-11,3.63-.84,24.32,7.14,29.19,8.76,9.78,3.26,19.61,6.42,29.23,9.62,8.77,2.92,20.58,7.67,29.18,9.67-1.15,1.72-5.61,3.7-8.51,3.7-.88,0-11.3-2.27-13.6-2.67-4.21-.74-8.5-1.86-13.32-2.59-8.63-1.31-17.7-3.79-26.49-5.33-9.37-1.64-17.71-3.16-26.84-5-4.34-.87-8.68-1.83-13.31-2.6-3.38-.56-9.93-2.48-13.35-2.56ZM215.69,104.37c6-1.39,10.71-2.87,17.78-3.68,6.27-.71,14.21-.4,21.06-.4l-37,5.08-1.84-1Zm182-10c2.06.48,4.12,1.25,4.12,3.71v.74a5.36,5.36,0,0,1-.37,1.85c-1.52-.13-.83-.37-2.22-.37-2.28,0-17.82,5.37-20.57,6.44-4.19,1.63-15.32,6.55-15.32,11.33v.74c0,2.7,7.76,3.7,10.73,3.7l-21.09,12.57-11.83-.45c.52-1.36,17.64-11.23,20.71-15.82-1.78.48-7.87,4.5-10.23,5.68l-10.36,5.18c-2.05,1-9.1,4.5-11,4.93-2.47.56-11.51,1.39-13.94,1.6-7.12.6-19.61,4.22-22.86,8.59-4.39,5.89-1.59,4.2-9.17,6.74-4.12,1.38-7.68,2.34-11.91,3.63-16.09,4.9-32.24,9.22-49.42,13.48-8.07,2-17.77,3.73-25.43,6-4,1.21-9,1.84-13,2.95-2.06.58-11.22,2.52-12.88,2.66.42-1.78,1.11-2.32,1.11-4.81v-7.77c0-8.69-3.58-27-11.1-27h-3c-4.94,0-11.84,1.52-11.84,6.66v.37c0,2.22,1.56,6.55,2.18,8.56.88,2.84,1,6,1.57,9.17,1.23,7.43-.78,12.65,2.92,18.18-5.09.11-18.41,3-24,4.16-7.81,1.58-15.93,2.59-23.91,4.21C96.3,193.85,65.6,199.23,61,203.2l45.07-8.5c-1,1-23.28,5-26.8,5.68-5.51,1.11-21.72,4.79-24.56,7.26,3.91-.33,10.5-2.13,14.77-3,4.92-1,10-1.62,15.11-2.65,9.66-2,20.08-3.22,30.2-4.94,20.56-3.49,41.67-5,61.12-9.54s38.47-8.52,57.41-13.26c9.48-2.37,18.45-4.75,27.68-7.47,4.62-1.36,9.17-2.92,13.53-4.23,2.5-.76,11.76-4,13.25-4.14l1.75,11.86c-2.23,1.22-18,10-19.13,10-1.6,0-1.49-.74-2.59-.74a203.51,203.51,0,0,0-26.56,1.93c-3.72.54-8.2,1.17-12.25,1.81-3.67.59-8,1.89-11.88,2.18-6.67.51-16.34,3.7-23.08,5-5.34,1.06-19.1,3.67-19.1,9,0,3.72,4.57,3.85,5.55,5.18l-34-.79-15.17.05c-14.75,0-25.67,3.16-38.48,5.18-12,1.9-26,3.7-39.59,3.7H47.72c-16.34,0-29.61-2.47-40.33-8.14,1.06-1.58,2.22-1.92,2.22-4.81a4.71,4.71,0,0,0-4.44-4.81c.82-3.54,10.74-13.76,13.69-15.92a199.94,199.94,0,0,1,17.38-11.85c6-3.53,12.58-7.21,18.88-10.35L65,152a60,60,0,0,0,9-5.43c0,5.78-1.39,4.95-2.22,8.51,2.1-1.41,6.46-6.3,8.6-8.42A34.12,34.12,0,0,0,84.21,142c.65-1.86.77-5,2.12-6,5.41-4.23,15.29-8.45,23.89-9.41s19.65-3.33,28.8-4.87c9.41-1.59,19-2.84,28.8-4.5C187,113.93,206.33,111,226,108.41c4.34-.57,10.5-1.12,15-2,5-1,9.74-1,14.78-1.86a230.56,230.56,0,0,1,30.56-2.74A10.19,10.19,0,0,1,293,104l104.23-7,.42-2.58ZM308.18,61.81c1.74-.41,8.56-2.22,10-2.22.15,0,22.95,16.68,23.68,17.77l-19.64,6.58-14-22.12ZM66.22,54c3.23-4.83,10.95-4.78,15.91-7.4l77.38,67.67-57.44,9.45-4.84-8.61a13.07,13.07,0,0,1,5.2-3.79c3.15-1.37,3.68-.52,4.49-4-4.77,0-8.82,3.74-11.84,4.44-.67-2.88-12-22.55-14.3-26.78C79,81.8,67,59.78,67,57.74c0-.6,1-.86,1.48-1.11l-.79-2.57-1.43,0ZM399.56,8.51c2.16-4.09,7.83-4.44,14.06-4.44h2.59L394,93.27l-99.86,7,0-2.94c2.9-.24,15-4.83,18.73-6.06,6.24-2.08,12.15-4.2,18.22-6.2,5.54-1.83,13-3.94,18.18-6.24,3.48-1.56,3.7-3.16,7.4-4.81s4-2.68,6.06-6.15c6.11-10,13.16-19.74,19-29.88,2.94-5.13,6.56-9.82,9.49-14.93,1.54-2.68,3.18-4.93,4.7-7.51.78-1.32,1.61-2.35,2.46-3.83s2.53-2.78,1.23-3.21ZM0,197.64v3c3,4.71,1.81,5.87,7.76,8.89a55.84,55.84,0,0,0,12,4.29,151.87,151.87,0,0,0,29.83,3.1c9.14,0,22.68-.64,30.85-2.07,4.35-.76,11-.92,14.6-2.05a134.91,134.91,0,0,1,14.11-2.17l2.52,2.3,4.49-1.62-.78-2.14,22.25-1.74,8.52.24,15.16.86,21.47-.12,11.83-.86c3.53-.17,30.78,6.4,36.29,7.5,12.16,2.42,24.27,4.93,36.32,7.34,5.12,1,13.23,2.39,18,3.84,5.3,1.61,12.64,2,18.13,3.7a184.14,184.14,0,0,0,18.14,3.69c5.69.88,12.21,2.9,17.84,3.62,6.09.78,12.65,2.73,18.45,3.38s12.75,2.23,18.35,3.48c6.07,1.36,12.36,2.24,18.51,3.32s12.18,2.4,18.25,3.21c5.2.69,12.62,2.4,18.32,3.51,6.37,1.24,12.23,2.21,18.56,3.27,4,.66,36.07,6.07,36.78,6.51h7.4c.59-.37,11-4,12.73-4.66,2.37-.94,10.95-5.21,12.43-5.34v-3l-.38-1.09-242.4-67.91,16-8.36c.45,1.69,5.78,6.4,7.43,7a39.12,39.12,0,0,0,12.92,1.88h2.59c14,0,30.45-5.39,41-9.3a180.66,180.66,0,0,0,17.68-7.48c5.29-2.65,12-5.85,12-13.57V151c0-5.64-5.08-9.61-9.39-11.34-2.62-1.05-13.9-3.4-17.25-3.47,2-1.73,8.55-5.16,11.35-6.78,2-1.16,3.68-2.09,5.6-3.28,3-1.88,2.6-2.17,6.74-1.79,9.56.88,21.28,4,30.73,5.52,10.52,1.67,20.76,3.73,30.75,5.51,4.82.86,11.21,2.23,15.44,2.69,4.91.53,10.72,2.58,15.92,2.58,6.52,0,15.73-5.67,18.11-9.19l-88.77-29.3c.12-1.4.74-2.47.74-3.7a7.91,7.91,0,0,0-7.08-7.79L421.38,0H408.44c-3,1.89-7.59,0-11.91,5.48-2.44,3.11-4.65,6.78-6.89,10.14-4.65,7-9.18,13.59-13.84,20.58L362,56.85c-2.43,3.64-11.27,18.65-15.39,18.65-.16,0-24.68-18.18-27.38-20-4.46,0-15.54,2.11-15.54,6.29v.74c0,3,11.12,19,12.21,23.69-2.49.21-12,3.82-14.85,4.76-4,1.33-11.87,2.86-12.9,6.71-4.12,0-13.15,1.39-15.54,1.11l-22.89-3,0,.37h-7c-6.37,0-16.7,1.09-21.51,2.54-7.11,2.13-11.82,2.3-16,7.7-1.18,1.53-16.47,3.43-19.81,3.87-6.43.86-14.33,2.79-20.39,3.29L83.26,42.18c-5.77,1.36-21.1,5.71-21.1,11.86v1.48c0,3.39,26.06,55.6,29.23,60.33,0,10.13,4.23,3.44,4.81,10.36-8.81,2.05-18,12.17-24.85,17.33-8.08,6-18.36,9.24-27.17,14.64C34.7,164,27.29,167.83,18.5,174.32c-4.58,3.38-6.93,6.37-10.82,10.27a43.63,43.63,0,0,0-4.56,5.8C1.34,193,.86,196.29,0,197.64Zm293.75-39.23v3.33c0,5.29,4.13,11.84,9.25,11.84h1.11c1.48,0,1.84-.76,3.33-1.11a7.34,7.34,0,0,1-4.81,2.59h-.74c-5.54,0-10.36-7.6-10.36-13v-3.7c0-5.07,4-11.47,8.88-11.47a7.34,7.34,0,0,1,5.18,2.22c-1.29-.3-1.25-.74-2.59-.74h-.37c-5.32,0-8.88,4.94-8.88,10Zm-3.33,1.85c0,6.73,4.42,15.55,10.73,15.55h2.22c4.93,0,8.88-7.85,8.88-13.32v-1.11c0-6.41-4.84-15.17-11.1-15.17H300c-6,0-9.62,7.5-9.62,13.69v.37Zm-173.14,5.92a1.42,1.42,0,0,0,1.48,1.48h1.11c3.36,0,6.78-.19,8.14-2.22,0-2.85-.59-12.21-3-12.21-1.75,0-7.77,10.47-7.77,13Zm16.65-.37,8.14-.74c0-1.8-.82-6.72-1.19-8.8-1-5.7.27-5-5.11-4.54-5.8.53-3.84.6-3.33,5.2.31,2.81,1.43,6,1.49,8.87ZM76.17,160.6c1.2-.06,1.36-.33,2.63-.33h4.81c3.27,0,9.44,1.32,12.62,1.81,2.76.43,10,2.63,11.8,2.63.7,0,5.93-11.78,6.28-13.23l-26.37-3.9-11.76,13Zm125.09-11.44v3.33a2.78,2.78,0,0,0,3,3c1.54,0,3.33-1,3.33-2.59,0-2.77-3.24-8.73-5.18-9.25a23.38,23.38,0,0,0-1.11,5.55Zm19.61-3v3c0,1.25.65,2.59,1.85,2.59h1.48a2.81,2.81,0,0,0,3-2.59c0-3.69-3.86-7.09-4.44-9.25H222c-.18,2.18-1.11,3.33-1.11,6.29Zm-93.22-3.6,1.47,4.34c2,0,3.76-.53,6.32-.72s.74-2.85,0-4.5l-7.75.87Zm112.46,2.12c0,2,.87,3.7,3,3.7h.37c1.71,0,3-.82,3-2.59v-.74c0-2.41-3.17-8.07-4.81-8.51-.2,2.39-1.48,4.86-1.48,8.14ZM92.86,142.5l29.23,3.33c-.15-1.81-7.9-11.47-8.51-11.47-3.89,0-19.92,5.93-20.72,8.14ZM259.71,141v.74c0,1.45,1.41,3.33,2.59,3.33h.37c1.27,0,3.33-1,3.33-2.22V141c0-1.9-3.57-7.32-4.81-8.14-.64,2.75-1.48,4.55-1.48,8.14Z"/></g></g></svg>