<svg xmlns="http://www.w3.org/2000/svg" viewBox="0 0 508.49 180.98"><defs><style>.cls-1{fill:#231f20;fill-rule:evenodd;}</style></defs><title>Sabre80</title><g id="Layer_2" data-name="Layer 2"><g id="Layer_1-2" data-name="Layer 1"><path class="cls-1" d="M423.67,97.49c-14.77,1.69-33.21-3.83-45.92,1.18,21,1.85,44.21.67,66.4,1h21.68c1,0,1-.6.67-1.28-9.65-.29-39.9-1.24-42.83-.91Zm-30.18,60.31-97.27-7.7-55.61-4.54.27-.35,60.56,4.23c5.55-3.36,12.43-4.05,18.48-7.08,5.55-1.68,11.09-3.53,16.3-4.71V137c-12.61-.34-27.4,1.18-38.49-5.38-.34-.5-.34-1.18-.67-1.68C203.6,133.63,108,146.74,13.83,145.4a3.81,3.81,0,0,0-2.19.5c-.34-.5-1.85-.34-2.69,0l-.62,6c0,.34,5.32,4.57,7.55,5.1a289.52,289.52,0,0,0,49,5.53c46.22-1.49,79.28,1.12,124.42.34,1.34,0,.67-1.51.5-2.35l.84-2.35c2.86-2.86,7.73-4.2,12.61-5.55l260.54,15.8c.17.17.17.67.67,1l-3.53,1.85c-.34,0-.5.34-.5.84l14.46,1.18c.34-.17.34-.84.67-1.68l2.69-1.51c7.23,3.7,15,2,22.36-.34a26.85,26.85,0,0,1,6.22-2.52s1.66-1.67,1.66-2l-120.3-9.81-83.06-5.88c.57-.64,6.12-2.17,6.66-2.35,14.46-5.55,25.28-9.59,41.25-12.78,6.05-1.68,13.45-1.68,18.66-5,0-.84.67-1.18,1-1.85l6.05-2.69a2.43,2.43,0,0,0,1.18.34c-.5-.34.17-.84.34-.84,1,.17,1,.84,1.68.84,6.39-6.05,15-7.56,22-12.61,4.54-2.69,9.58-5,13.78-8.4a8.76,8.76,0,0,0,2.35-.34c0-.5-.5-1,0-1.51,18.66-3.7,40.77,1.82,57-4.5L432,96c-4.09-.5-8.17-.19-10-.86l-6.56-2a4.25,4.25,0,0,1-.17-3.53c-.34-29.25,2-59.34.17-87.41C411,3.19,408,.34,404.3,0l-6.39,2.69c-4.71,8.24-8.4,16.64-14.12,24.71-7.23,12.44-14.12,24.54-21.52,37-9.24,7.4-23.2,6.22-35.13,9.08C317.57,77,305,74.8,296.22,80.68c-44.16,2-83.87,2.41-126.29,3.23l2.45-11.76-4.82.07L161.5,83.18c-1,1.81-17.76,1.09-26.85,1.54-18.81-.24-29.77,4.67-38.34,10.55-9.41,5.88-16.81,15.5-25.55,21.22C50.75,122,32,129.09,12.82,137c-4.87,1.85-9.08,4.2-12.1,7.73a7,7,0,0,0,1,7.56c12.62,9.09,15.45,8.17,35,11.49,6,.94,29.39,2.17,34.26,2.17,22.47.46,68.78.6,73,.44L152.08,181l6.53-.15-3-15.17c25.18.68,70.17-.82,105.27,1.12,48.91,1.68,98.84,3.53,148.93,5.38,26.73-.5,53.62,3.53,81,1,5.55-1,11.77-3.53,17-5.38,1-.34-8.26-.67-8.09-1.51l-106.26-8.48ZM401,2.72H407c.84,16-3.53,34.29-5.71,50.43l-.17,5.55c-11.6,4.71-25.38,4.87-37.65,8.4,9.58-21.68,24.21-41.85,35.64-63.37.5-.34,1-1,1.85-1Zm10,.91,3.7,1L414.32,32l-.67,18c0,.5-.5.17-.67,1.18l.5,20-19.67,1c-2.19,1.34-4.87-.34-7.23.5-1,.67-1,.67-1.85,0l-6.39.84-10.42-.17c-5.38,2-12.27,1.85-18.49,1.51l-21.52,2.19c-.5-.17-.67-.67-1.34-.67l-9.08.67c-1.51,1.18-3.87.5-5.72.67l10.76-2,8.91-1.51a6,6,0,0,1,1.85.5l1.68-.67,18-3.36a2.32,2.32,0,0,1,1.51.84,1.68,1.68,0,0,0,1.68-.84l3.36-.34,5.21-1.51c.5,0,1,1,1.51,1,.84.17.84-1,1.68-1.18l3.36.17c.34-1.18,1.51,0,1.85-.84,1.18.5,2.18,0,3.53,0-.17-1.18,1.68-.5,2.35-1,.5-1.18,1.51.34,2.19-.17a2.25,2.25,0,0,0,.17.84c.67.34,1-.67,1.34-.84,0,.5,1,.67,1.68.17.5.34,1,1.51,1.85,1,0-.5,0-1-.5-1.18h3.36c-.17-1.68,1.18.84,1.85.17,1.18,0-1.34-.5,0-.84l2.19-.34c.67-.17.67-.67,1-.84h1.68c.5-1.51,1.51.17,2.19-.5,0-.67,2.35,0,3.53-.5-.34-1.68.84,1,1.85.34.17-.34-.34-1-.84-1.51.84,0-.17-1.34,1.18-1.34l.34-1.85c0-1-.67-.67-1.18-1.51.5.34.67.84,1.34.5.67-.17.34-1.18.5-1.85,1.18,0,1.34-.5,2.35-1.18,0-.84-1-1.18-1.34-1.85.34,0,.67.5,1.34.17-.34-.67,0-.84.67-.84.17,0,.5-.5.67-1a2.14,2.14,0,0,0-1.34-1.85c-2.18,1.18,2.35-1.18-.34,1-.17,0-1.51.5-1-.67a7.57,7.57,0,0,0-1.18-1.18V47.16l1.85-2.35-.34-2.52a3.6,3.6,0,0,0,1-.17c0-.5-.34-.67-.67-1.51l.34-4.2a7.08,7.08,0,0,1,.84-.34c-1-4,.67-8.24-.34-12.44a108.94,108.94,0,0,0,3-20ZM280,83.43c33.62,0,66.9.45,100.86,5.15a347.3,347.3,0,0,1,39.17,6.89c-14.79,1.68-30.76-3.87-44.88,1.18-.84,1.18-.84,3.36-.67,4.87,3.47,2.7,26.25-.26,40,.84.84.67-.5.84-1.18,1.34a15.51,15.51,0,0,1-.84,1.34l-3.19,2.35c-.5,0-1.18.5-1.68.5l-5.55,2.35c-1,0-1,1.34-1.68,2a7.33,7.33,0,0,1-5,1.68c-1,.5-1,1.18-1.68,1.68s-1.34,0-1.68-.67c-.17-.34-.84-.5-1.85-.5l-.84.84v-.84h-4a4.55,4.55,0,0,0-1.68,1.85c0-.17-.17-.5-.67-1-.5,0-1.18.34-1,1l-6.22-1c-.5-.17-1-.34-.67-1.18.17-.67,1.18-.17,1.85-.34.17-.34,1.18-.5.84-1.18l-7.23-3.53-13.28-3.36-11.09-1.51c-1.51,0-.5,1.18,0,.84a143.54,143.54,0,0,1,19.5,4.71c2.19,1.18,3.36,4.71,3,7.06L354.51,118c-.34.17-.5.67-.84,1.18l14.79-.5c.5,0,.67.84-.17,1.18-3.19.17-6.22,1.18-8.91,1.18h-1c-.67,0-.67.34-1.34.67-.5,0-.67-.67-1.34-.34v1.18l-37.15,1.68,9.08-1.18v-.84l-8.4.17A1.44,1.44,0,0,1,318,121l12.44-1.51c1-.17-1.51-.34,0-.84l-11.93-.5c-1.85-4.2-1.18-9.58-5.21-13.11l8.74-1.51-20.84.67-2.82,0-1.3,1.13-1.44.25c.34.67-1,.84,0,1.18.17-.34-.87,2-.37,2.29l-1.68,8.07-3.7,1a1.77,1.77,0,0,0,0,1l3.36-.34c.67.34.34,1,.17,1.51L265.42,123c-.67,0-1,.5-.5,1l8.91-.34,19.5-1.18L52.45,139.85l12.44-1.18c.5,0,.84-.17.5-.84l-15.63.84c-.34,1.51-2.19,0-2.69,1.68-.67,0-.17-.5-.67-.67l-7.23.17,22.36-3.7c.34-.17,1-.5,1-1.18l-30.76,4.87L8.41,143.38a1.68,1.68,0,0,1-.67-2c20.17-10.09,42.86-17.15,65.56-24.21,23.56-21.83,31.84-28.69,47.37-29.91,29.89-2.35,55.77-.79,63.75-1.49L280,83.43ZM121.33,89.49c.34.67,1.51.34,2.52.84l5.38,6.56-29.08-.5c-.84-.84,1.18-2,2.35-2.52,5.88-3.53,12.61-4,18.83-4.37ZM121,91.3h1.51c1.51.84,1.68,1.51,2.35,3.19,1-.5.34,1.18,1.34,1.18h-3a2.36,2.36,0,0,0-.67-.67h-1.85c-1,.84-1.68.5-2.86.67-.5-.67-.67-1.68-1.85-1.34-.17,0-.5,1.18,0,1.34l-9.41-1.18c-.67,0-.34.5-1.18.67-.34,0-.84.34-1.51-.17.67.17,1.18,0,1.34-.5h2.35c.5,0,.84-1.68.84-.5,1,.5,1.51-.84,2.19-1.34,1,0,.5,1.34.67,2,1.18.34,1.68-1.34,2.52-1.85h1.68c-.17-1.68,2.52-.84,4-1.34.17-.17,1.18-.84,1.51-.17Zm-3.33,1.51c.67.67,2,0,3.19.34.5-1.68.67.67,2-.17-.17,0,.34,1.85-.67.67a3.81,3.81,0,0,0-.67.17c-.84,0-1.18-.84-2.35-.84-.5.17-.67.84-1.18,1.34-.5.34-.67-.5-1.34-.67l-2.19,1c-1.68-.84.17-1.18,1-.84l2.19-1Zm21.16,0,3.87-.34c1.85.5,2.52,2.35,3.36,4.2,0,.5-.5.34-.5,1H134l-1.85-3a1.42,1.42,0,0,1,.34-1.18l6.39-.67Zm-2.42,1.51h6.72c0,.34.5.67.17,1.34l-5.38.5c-.17-1.51-1.18-.34-1.68-1,.17-.17-.84-1,.17-.84ZM96.24,98.56l24.71.84L113.72,115c-.5.34-1.18,0-1.68.34-10.09-3.36-21-2.19-31.1-2.69,3.53-4.37,8.57-7.73,12.1-12.61,1.68-.67,2.35-1.51,3.19-1.51Zm44.74.91,5,.17,3.36,14-9.24,1L135.43,99.8l5.55-.34Zm67.5,0,5.76.29c3.53,2,1.72,5.72,2.39,10.25a2.07,2.07,0,0,1-.34.84c-2.69-.17-6.56,1.68-9.08-.84-.45-3.08-1.11-6-.7-8.8.9-.57,1-1.74,2-1.74Zm43.41-2.42,5.76.29c3.53,2,1.72,5.72,2.39,10.25a2.07,2.07,0,0,1-.34.84c-2.69-.17-6.56,1.68-9.08-.84-.45-3.08-1.11-6-.7-8.8.9-.57,1-1.74,2-1.74Zm21.73-.64,5.76.29c3.53,2,1.72,5.72,2.39,10.25a2.07,2.07,0,0,1-.34.84c-2.69-.17-6.56,1.68-9.08-.84-.45-3.08-1.11-6-.7-8.8.9-.57,1-1.74,2-1.74Zm18.57-.67,5.76.29c3.53,2,1.72,3.57,2.39,8.1,0,.34-1.48.55-2.77,2.7-1.69.55-4.13,2-6.65-.55-.45-3.08-1.11-6-.7-8.8.9-.57,1-1.74,2-1.74Zm-62.71,2.48,5.76.29c3.53,2,1.72,5.72,2.39,10.25a2.07,2.07,0,0,1-.34.84c-2.69-.17-6.56,1.68-9.08-.84-.45-3.08-1.11-6-.7-8.8.9-.57,1-1.74,2-1.74ZM96.54,100.37l-6.39,8.57a6.15,6.15,0,0,1-3.87.67l10.09-9.41.17.17Zm5.14,0,.34.17-.67,8.57c-1.51,1.18-3.87,0-5.72.34l5.72-8.91.34-.17Zm7.86,0c1,.17-.17,1.85.67,2.52-.34.67-.84.5-1,1.34v2.19a2.35,2.35,0,0,1,.67,2.69c-.34.67-1.18.34-1.85.5l.84-9.08a1,1,0,0,0,.67-.17Zm16.93,0h3.19c1.18,1.34,1.18,3.36,2,4.87,1.18,3.19,3.87,6.22,2.69,9.58,0,.17-.34.34-.67.67l-12.27.84a20.58,20.58,0,0,0-3.19-.34l7.9-15.63Zm11.19.6c.17.17.34.34,1,.34l5.71-.34a3.54,3.54,0,0,1-2.69,3.19,2.94,2.94,0,0,1-.84-.17c-.67.17-1,1.18-2.18,1.18a7.33,7.33,0,0,1-1.34-1.68L137,101Zm189.25,2.42h0Zm8.47.6h0Zm6.35.3,2,.17-2-.17Zm-211.63,0a3.49,3.49,0,0,1,.67,2.52c-.34-.34-1,.17-1,.5h-1.85c0-1,.34-1.18,1.34-1.68l.84-1.34Zm178.67,1.51c.34.17,1,0,1.85.17.67.17.84.17,1.51,1.18a10,10,0,0,0,1.85,3.19v1.18l-2.19,1.18a1.24,1.24,0,0,0,.34,1l2.19.17c1.85,4.54,1.18,9.41,0,14.29l-9.24-1,.5-13.45c1.34,1.18,3.19,0,5,0v-1h-2.69l-3.7-6.22c.67-.84,3-.84,4.54-.67Zm-7.26,1.51,3.36,4.2L301.51,108h-2c-3.7,2.69-3.53,8.4-3.53,12.94.67,4,1.34,7.4,4.54,9.25l2.52-.84c0,1-.84,1-1.34,1.68-.17.67.5,1.18.84,1.51-.34,0-1-.34-1.34-.34-3.87-1.68-4.54-6.05-5.72-9.58,0-4.37-.17-7.9,1.18-11.93l2.19-2.69,2-.84.67.17Zm68.93,4.84c.34.17.34.84.84,1.34,0,1.18-.84,0-.84,0,0-.34-.67-1-.17-1.51l.17.17Zm.91,4.23a2.94,2.94,0,0,1,.84.17l-.67,9.08-.17-9.24ZM281,119.12l7.4-.34-7.4.34Zm52.91,0c.17,0,.84.67,1.34.17,0,.67-1.34.17-1.68,0l.34-.17Zm3.63,0,7.23-.17-7.9.5c0-.34,0-.5.67-.34Zm13.3,0h0Zm-75.58.3h0Zm-22.37.91h5.55l-13.45.84,7.9-.84Zm-9.37.91-24.21,1.51,24.21-1.51Zm98.25,1.21,2-.17-9.41.84,7.4-.67Zm-124.56.6v.34H213.3a7.65,7.65,0,0,1-5.21.34l9.08-.67Zm158.11.3h.84c-.17.34-1,1-1.68.67,0-.34.5-.34.84-.67Zm-172,.6.67.67c.34,0,.17-.5.67-.67,0,.84-1.18.84-1.51.17l.17-.17Zm-10,.3h0Zm-10.58.91,3.87-.17-25.72,1.68c-1.85,1.18-4.37.34-6.56.67l28.41-2.19Zm40.81,1.21,7.23-.34-39.67,2.52,32.44-2.19Zm-76.79.91-.34.34-7.06.34,7.4-.67Zm2.42,0h1a1,1,0,0,1-1.34.34l.34-.34Zm217.67,0,.34.17c-1.18,2-5.21,1.68-7.73,2.86-2,.34-4.2.17-6.05,1.18-1.34,0,1.34.34,0,.84a2.62,2.62,0,0,0,1.68,0,121.52,121.52,0,0,1-34.8,3l29.08-2v-1l-31.94,1c-.67,0-.67-1-1.68-1,12.94-.84,26.89-.17,40.51-3.53,3.87-.5,6.89-.5,10.59-1.51Zm-229.46.6-.17.34a6.94,6.94,0,0,0-3.53.67l-31.43,1.68,35.13-2.69Zm24.49,2.42h3.36l-34.12,2.19,30.76-2.19Zm203.77,0-5.55,1.34,5.55-1.34ZM90.49,131.51c.84,0,2.19-.67,3.36,0l-30.09,3.7,26.73-3.7Zm20.26,2.12c.17.17,1-.34,1.51-.17-.5.5-1.34.17-2.19.34,0,0-.84-1.51.67-.17Zm205.58,1.51h0ZM76,137h.84l-10.25.84L76,137Z"/></g></g></svg>