<svg xmlns="http://www.w3.org/2000/svg" viewBox="0 0 91.9 30.95"><defs><style>.cls-1{fill:#231f20;fill-rule:evenodd;}</style></defs><title>Sabre40</title><g id="Layer_2" data-name="Layer 2"><g id="Layer_1-2" data-name="Layer 1"><path class="cls-1" d="M79.46,0a1.46,1.46,0,0,1,1.18.5c.23-.11.46.08.67-.05.5.15,1.1-.08,1.37.4s0,.64.07.94c0,1.63-.09,3.27-.12,4.87,0,.88-.09,1.73-.13,2.58,0,.07.07.07.13.11s-.12,0-.13.08c-.17.91,0,1.87-.23,2.8.09.88,0,1.7,0,2.56a4.11,4.11,0,0,0,0,1.29A41.38,41.38,0,0,1,87.45,16c1.49,0,3.08-.46,4.45-.17a.39.39,0,0,1,0,.13,5.35,5.35,0,0,1-1.25.35l-.54,0-.67.2c-.07,0-.08,0-.13-.08-.75.15-1.45.36-2.24.46a7.54,7.54,0,0,1-1.3.29c-.41,0-.84.16-1.19.15a6,6,0,0,1-.68.19c0,.07.07.11.12.11.27,0,.52.12.71.12.47.12.86.25,1,.64s.09.72-.15.94a3.21,3.21,0,0,1-.44.33,8.87,8.87,0,0,1-1.29.64A25.49,25.49,0,0,1,79.19,22,11.2,11.2,0,0,0,78,22.3l-4.38,1.34-2.24.68-.59.12-2.91.92v.08h3a.73.73,0,0,1,.08.15l-.05.21c-.13.08-.28.09-.38.21-.47.15-.9.16-1.3.31-.8.19-1.62.29-2.42.56s-1.43.33-2.09.54c-1.78.05-3.52.32-5.28.29-1.57.31-3.12.47-4.63.67l-.19-.05c-2.79.48-5.69.43-8.52.67l-7.19.39c-.42.51-1.22.56-1.92.71-1.1.08-2.25.54-3.25.09a1.8,1.8,0,0,0-.41-.23s-.08-.07-.09-.11a.22.22,0,0,0-.16-.07v1a.36.36,0,0,1-.19.19l-.67-.15c-.05-.08,0-.17,0-.27-2-.24-4.31-.38-6.44-.83a.43.43,0,0,1-.25-.07c-1,0-1.94.08-2.91.12-1.73,0-3.39.21-5.09.11-.9.11-1.79,0-2.62,0-1.25-.11-2.45-.15-3.63-.36-.15.08-.25,0-.39,0-.48-.11-.9,0-1.34-.13a27.71,27.71,0,0,1-7.27-1.59c-.46-.27-1-.41-1.34-.64l-.76-.64A.76.76,0,0,1,0,25.89a4.45,4.45,0,0,1,1-1,59.51,59.51,0,0,1,6.88-2.41l2.72-.82a24.69,24.69,0,0,1,3.92-3.4C17.75,16.4,21.66,17,25,16.56a8,8,0,0,1,1.69-1.91h.09a.11.11,0,0,1,0,.08c-.27.6-1.14,1-.9,1.78a8.1,8.1,0,0,0,2.42.07,13,13,0,0,0,1.46-.05c.8,0,1.55,0,2.34-.07.62,0,1.14,0,1.73-.08.16.05.27,0,.4.05,1-.07,2-.09,3-.15,1.53,0,3.05-.13,4.57-.11.4.07.82,0,1.21,0,1.54-.12,3-.05,4.54-.2h.44c1.19,0,2.33-.09,3.5-.05L54,15.8c.08-.25.12-.63.46-.74a23.74,23.74,0,0,1,3.12-.6c1.45-.15,2.85-.4,4.29-.56s2.71-.31,4-.48a5.14,5.14,0,0,0,3.74-2.08c.28-.42.68-.76.92-1.15l.13-.15.74-1c1-1.39,2.14-2.79,3.08-4.3.46-.67.83-1.27,1.31-1.91l.12-.11A4.35,4.35,0,0,1,78.61.63.53.53,0,0,1,79,.11c.15,0,.29-.05.44-.11ZM79.4.37l.39.05L79.15.5,79.4.37Zm1.83.5.92.25c0,.2-.05.39-.05.63-.39.56-.71,1-1.08,1.54-1,1.59-1.91,3.08-2.92,4.61-.23.27-.33.54-.52.79L77.47,9s0,0-.08.05l-1.5,2.53-.64.94-2,3.71c-.12,0-.33,0-.48,0-1.22,0-2.44,0-3.63-.12-.7,0-1.41.07-2.1,0-2.89-.29-5.8-.16-8.64-.31a.81.81,0,0,1-.32,0l-.23.08-3.25-.13c-.05,0,0-.08-.05-.15.29-.33.91-.28,1.34-.44a2.78,2.78,0,0,1,.82,0c3-.64,6.23-.86,9.32-1.29a6.26,6.26,0,0,0,.87-.17c.94-.31,1.81-.4,2.38-1.22C72.57,9,74.58,4.58,78.06,1.29A10.66,10.66,0,0,1,81.24.87Zm.9,2.32c0,2.92-.27,5.81-.33,8.78-.17,1.17,0,2.28-.16,3.43,0,.24,0,.44,0,.67l-4,.67-.11-.23-.23-.15-2.4-.12c0-.36.29-.62.41-1,.78-1.29,1.41-2.6,2.08-3.92l1-2s.08-.05.09-.08a60.57,60.57,0,0,1,3.2-5.45,4.3,4.3,0,0,0,.43-.6v0ZM80.71,4.55l-.07.17c-.05-.05.09-.19.07-.17Zm-.4.66-.11.2.11-.2Zm-.24.43c-.12.24-.25.46-.4.7-.39.56-.72,1.12-1,1.62a9,9,0,0,1-.8,1.51c-.64,1.21-1.27,2.34-2,3.47l-.6,1.19s0,0-.07,0l-.76,1.38-.28.62c0,.05-.13,0-.2.05l2-3.67.4-.72s0-.09,0-.17l2.06-3.52s.08,0,.12-.09a.2.2,0,0,0,0-.08l1.49-2.34v0Zm-20.22,8H60c.05.07-.07,0-.12,0Zm-5.36,2.61c2.18.05,4.35.12,6.58.16,1.3,0,2.48.08,3.8.05a26.8,26.8,0,0,0,2.92.15c.74-.05,1.46,0,2.18,0,1,0,1.9.09,2.85.08l-.32.59v.13l-.16.25a6.51,6.51,0,0,0-1.87.74c-.09,0-.12.05-.17.07l-.09.19a.26.26,0,0,0,.17.23,3.7,3.7,0,0,0,1.43.12s.05,0,.07.07l-1.1,1.77H68l-.44-.51a10,10,0,0,1-1-.16,7.2,7.2,0,0,1-1-.17c-.54-.17-1-.21-1.53-.36A48.75,48.75,0,0,0,52,18.51c-.54.19-1.1,0-1.55.23a11.49,11.49,0,0,0-1.22.38,1.21,1.21,0,0,0-.83.58,8.69,8.69,0,0,0-.56,2l-2.3.12c-1-.09-2,0-3,0s-1.73,0-2.58.11a19.13,19.13,0,0,0-2.77.11c-4.81,0-9.63.39-14.46.58-.91.05-1.82.09-2.72.21-.54.09-1.06,0-1.57.11-4.18.43-8.3,1.1-12.45,1.74-1,.16-1.92.33-2.85.56l-1.83.32a16.8,16.8,0,0,1,4-1.7c.8-.2,1.59-.46,2.36-.68,1.14-.42,2.44-.63,3.54-1.1l.78-.92c.08,0,0,.15,0,.21s.08.08.12.12l2.49-.28L15,20.7a6.67,6.67,0,0,0,1.35-1.57c-.39-.4-1.06-.12-1.66-.21-.33.19-.55.44-.87.59a7.67,7.67,0,0,1,1.08-.82H17a3.16,3.16,0,0,0,1-1,11.87,11.87,0,0,1,2.41-.31c.55.08,1-.12,1.57-.05a34.39,34.39,0,0,1,3.67-.19c1,.12,1.87-.07,2.75,0,2.32-.19,4.54-.21,6.79-.25,1.47-.08,2.89-.09,4.34-.17,1,0,1.87,0,2.81,0,1.54-.07,3-.09,4.51-.12a.53.53,0,0,1,.17.08c.27-.19.58,0,.88-.08.8,0,1.57,0,2.33-.07s1.67-.09,2.56-.08c.6-.09,1.1,0,1.67-.12Zm30.67.13h1.15c-4.85,1.06-9.78,2.21-14.66,2.08A10.77,10.77,0,0,1,74,18c1.26-.31,2.48-.42,3.72-.67a72.66,72.66,0,0,1,7.49-.91Zm-11.44.31-.35.83h-.16l.36-.76.15-.07Zm1,.05,2.08.08c-.48.27-1.1.16-1.63.36-.24,0-.46.09-.66.09l.16-.52Zm-55.61.84,1,.05c.19.11,0,.35,0,.54-.27.33-.86-.11-1.17.2-.2,0-.38.12-.54.08a.58.58,0,0,1-.19-.24c0-.19.15-.27.21-.42l.67-.21ZM81.85,18l.84.08c.58.21,1.22,0,1.82.24a.77.77,0,0,1,.66.38c-.23.52-.76.7-1.23,1-1.31.5-2.5,1-3.87,1.47-3.05.94-6.09,1.73-9,2.73-2.61.75-5.14,1.75-7.78,1.42a18.38,18.38,0,0,0-2.1,0c-6.31.48-12.52.72-18.83.9a66.36,66.36,0,0,0-11.82.9c-1.45.36-3.32.48-4,1.87a3.32,3.32,0,0,1-.11.39,2.62,2.62,0,0,1-1.23-.24,1.38,1.38,0,0,1,0-1c.29-1,1.42-1.12,2.34-1.42,1.22-.2,2.42-.25,3.62-.37a1.35,1.35,0,0,0,.62,0A45.28,45.28,0,0,0,36.83,26c.09,0,.15-.17.13-.33-.8-.4-1.85-.05-2.8-.21-3,.39-6.47-.15-9,1.53a2.64,2.64,0,0,0-.63,1.43c0,.07-.07.07-.11.12s0,.13,0,.19a.1.1,0,0,1,.09.08V29l-2.4.24c-1.39.09-2.69.16-4.1.15a7.47,7.47,0,0,0-1.1,0c-.39.13-.75,0-1.11,0C11,29,5.68,29,1.29,26.69a7.42,7.42,0,0,1,2.81-.28C5,26.17,5.9,26.31,6.78,26c2.37,0,4.75-.52,7.1-.54.67,0,1.33-.13,1.92-.19A9.33,9.33,0,0,0,17,25.24c.9-.2,1.75-.11,2.61-.29,2.4-.12,4.79-.31,7.18-.36.4-.07.78,0,1.15-.05h.54l2.68-.23c1,0,2.12-.11,3.19-.08.59-.09,1.11,0,1.69-.13.17.07.29,0,.44,0,1.27-.19,2.48,0,3.71-.31a4,4,0,0,0,1.55,0,16.76,16.76,0,0,0,2.33-.07,27.33,27.33,0,0,0,3-.12c.39.05.68-.08,1.06,0a.1.1,0,0,1,0,.09A9.22,9.22,0,0,0,51.7,25.3a10.31,10.31,0,0,0,2.62.2A45.16,45.16,0,0,0,60,25c.8-.12,1.61-.33,2.34-.42,1.1-.31,2.16-.56,3.24-.76.67-.13,1.26-.23,1.91-.31l.39-.63A3.74,3.74,0,0,0,70.87,22c.15-.15.19-.33.36-.4a2.5,2.5,0,0,0,1.71-.86,6.87,6.87,0,0,0,.66-1.06c.05-.08.19,0,.28,0a.11.11,0,0,0,.07-.07c0-.07-.11-.07-.16-.08l.09-.46A.09.09,0,0,0,74,19a33,33,0,0,0,5.73-.6c.75-.16,1.43-.31,2.16-.5Zm-36.14.13A3,3,0,0,1,47,19.78a.63.63,0,0,1,0,.39c-.51.52-1.42.2-2.09.33-.24-.05-.42-.13-.48-.33,0-.91.76-1.47,1.3-2.09Zm-10,.08a3.34,3.34,0,0,1,1.18,1.67.66.66,0,0,1-.07.54,2.46,2.46,0,0,1-2,.2.63.63,0,0,1-.4-.29c-.09-.75.42-1.23.75-1.73.2-.12.28-.31.47-.4Zm5,0c.31,0,.48.24.7.48a2.39,2.39,0,0,1,.51,1.69,3.38,3.38,0,0,1-1.87.25c-.15,0-.17-.11-.29-.15a.52.52,0,0,1-.16-.54,3.28,3.28,0,0,1,1.11-1.74Zm-21.16.52.6.15-.33,1.78a.56.56,0,0,1-.32.25L17.59,21c-.25-.16,0-.58,0-.86.25-.39.09-1,.47-1.22a12.06,12.06,0,0,1,1.51-.2Zm33.69.09a55.27,55.27,0,0,1,7.36.64c1.42.28,2.83.48,4.23.72A4.22,4.22,0,0,1,65,22.81a2.4,2.4,0,0,1-.31.72c-1,.2-2,.54-2.93.71a41.25,41.25,0,0,1-8.82.82,8.51,8.51,0,0,1-2.24-.52c.09-1.06.28-2.24.27-3.35A20.37,20.37,0,0,0,51.07,19l2.18-.21ZM17,19c.11.05.27,0,.36.16l-.31,1.71c-.44.33-1.3.2-1.87.21a.86.86,0,0,0-.05-.08,10.93,10.93,0,0,1,1.43-1.79A3.43,3.43,0,0,1,17,19L17,19Zm55.65.09H73c-.09.27-.29.67-.46,1s-.39.72-.78.67l.83-1.69Zm-59.2.67-.82.74a2.3,2.3,0,0,1,.82-.74Zm56.39,1.86H70a3.62,3.62,0,0,1-1.89.35c-.11,0-.05-.11,0-.19l1.82-.17Zm-23.3.76H47.8c.11.07.09.25.11.39-1.55.12-3.11.2-4.7.24-3.21.19-6.37.33-9.55.52-2.13-.08-4.25.29-6.35.31-1,0-2.06.15-3.07.09-.86.11-1.7.09-2.52.15-3.87.27-7.61.67-11.45,1-2.22.21-4.39.46-6.57.6-.08-.08.09-.08.17-.12a6.53,6.53,0,0,0,1.62-.29c.59-.12,1.14-.23,1.69-.31,1.46-.25,2.95-.36,4.34-.58a10.7,10.7,0,0,0,1.59-.15c6.16-.92,12.28-1.06,18.4-1.43.87,0,1.69,0,2.54-.11.43.13.84-.13,1.25,0,.58,0,1.1-.05,1.66-.08h1.5c1.81-.11,3.54-.11,5.34-.2,1,0,1.81,0,2.75-.05Zm14.86,3.41H62l-.88.83c-.54.2-1.17.16-1.75.35l-1.46.24a11.88,11.88,0,0,1-1.47.17c-.08-.21.25-.32.39-.43a2.58,2.58,0,0,1,.54-.28h.09a4.6,4.6,0,0,1,1.83-.48,15.07,15.07,0,0,1,2.09-.4Zm3.21.07,1,.05c.05,0,0,.09.08.11l.15-.08L69,25.89l-2.81.64c-.05,0-.05-.05-.13-.05l-.5.11a5.55,5.55,0,0,1-1.19.28,10.2,10.2,0,0,1-1.86.19c0-.05,0-.05,0-.13a.58.58,0,0,0-.23-.25c-.08,0,0,.07-.05.11s-.05-.07-.08,0-.07-.08-.09-.16a.43.43,0,0,1,0-.08c.05,0,.08-.07.15-.08a.21.21,0,0,0,.09-.09c.05-.09.15-.05.25-.09.43-.32,1.07-.16,1.57-.35l.13,0,.31-.08Zm4.59,0h0Zm-12.49.27h.59a2.22,2.22,0,0,0-1.59,1.37l-2.37.28,1-.76-.05-.21s-.05,0-.08-.07c-1.69.09-3.35.28-5,.32-1.08.13-2.17,0-3.2.13-4.33,0-8.58.68-12.87.36a6.64,6.64,0,0,0-4,1.61l.25.4.71.08c.12,0,.05.11,0,.19-1,0-2-.32-3-.41-.08-.07,0-.2,0-.29a2.42,2.42,0,0,1,1.34-1c3.21-1,6.41-.94,9.59-1.27,2.92-.23,5.81.12,8.66-.23,1.57,0,3.08-.05,4.61-.19.05,0,.11,0,.12.05l5.32-.31Zm8.29,0,.33.07s-.08.11-.08.19,0,0,0,.05a.11.11,0,0,1-.08.09h-.91l-.23.09s0-.16-.09-.2l-.09-.07a.48.48,0,0,1-.07-.12h.91s0,.05,0,.09a.08.08,0,0,0,0,.08.19.19,0,0,0,.17,0s0-.08,0-.09a.2.2,0,0,0,0-.08s0-.08.07-.08Zm-1.5.24a.5.5,0,0,0,.05.07s-.07,0-.11-.07Zm.25,0,.05.05a.1.1,0,0,1-.11-.05s0,0,.05,0Zm-.8.31s0,0,0,.08a.2.2,0,0,1,0,.12c-.05,0-.07,0-.11-.08l.08-.15,0,0Zm-10.35.58h.27l-.58.64L50,28.23l-.27-.08-.23.09-1.87,0c-.07,0-.19-.05-.25,0s0,.07-.09.08l-.72,0c-.07,0-.08,0-.13.08-.24-.09-.51.05-.76,0a6.27,6.27,0,0,0-.9.13c-.11,0-.16-.15-.21-.08s0,0-.08.08l-2.48.19-2.58.09-2,.09c.17-.2.47-.23.67-.43,4.67-1.14,9.64-.39,14.37-1.06a.52.52,0,0,0,.17-.05Zm-20.07.83,4.62.05a1.93,1.93,0,0,1-.33.29l-.5.39H35c-.05,0-.05.05-.11.08l-4.39-.08a.49.49,0,0,1,.27-.09l.23-.13,1.58-.52Zm5.54,1.27h0c-.19.07-.47.09-.74.16-.52,0-1,.16-1.5.23a3,3,0,0,1-2-.15l4.23-.25Zm-7.24.23,1,0c0,.08.08.21,0,.28l-1.12-.11s0-.08,0-.12a.12.12,0,0,1,.12-.08Zm1.53,0h.25l.08.75h-.17l-.21-.72Z"/></g></g></svg>