<svg xmlns="http://www.w3.org/2000/svg" viewBox="0 0 121.93 41.95"><defs><style>.cls-1{fill-rule:evenodd;}</style></defs><title>Sabre60</title><g id="Layer_2" data-name="Layer 2"><g id="Layer_1-2" data-name="Layer 1"><path class="cls-1" d="M98,11.86c.19-.14.16-.11,0-.29v.29ZM71.73,35.73l-14.37-1v.5c2.58,0,5.31.58,7.87.57a33.43,33.43,0,0,1,3.9.31c1.17.21,2.73.07,3.93.29s2.71.06,3.93.29,2.71.08,3.92.3a30.78,30.78,0,0,0,3.9.31,36.25,36.25,0,0,1,3.94.35c1.33.16,2.6.14,3.92.3.57.07,1.42,0,2,.12a17.64,17.64,0,0,0,2,.16c1.14,0,2.79.25,3.93.29.68,0,1.27.12,1.94.14.46,0,1.6.07,2,.13,1.24.19,2.64.16,3.91.31,1,.11,3,.28,3.94.28,1.16,0,2.76.24,3.94.28s2.77.26,3.93.36a9.57,9.57,0,0,1-3.29,1H116a4.71,4.71,0,0,1-1.86-.57c-.27.37-.54.06-.93.81L110.69,41l.67-.33-.51-.55L48.63,36.37a9.15,9.15,0,0,0-2.39.83c-.36.22-.67.35-.84.73-.35.79.3.88-.63.87-2,0-4,.29-6.15.28-4.16,0-8.48.14-12.8.14H13.09a29.14,29.14,0,0,1-5.66-.78c-1.67-.34-4-.58-5.12-1.36l.35-2,.35.19.35-.23c2.91,0,6-.07,8.79-.07,1.48,0,3,0,4.36-.07s3.07,0,4.24-.2,3,0,4.27-.16,2.91-.11,4.11-.32c.35-.06,1.76-.09,2.11-.1.67,0,1.4-.07,2.07-.15,1.26-.14,3-.09,4.2-.31s2.86-.18,4.11-.32,2.79-.24,4.14-.29c.57,0,1.44-.15,2-.21s1.55,0,2.11-.11c1.28-.23,2.86-.19,4.12-.39s2.86,0,4.16-.27c.7-.13,3.47-.25,4.19-.24,1.34,0,2.68-.22,4.22-.21,1.38,0,2.82-.21,4.29-.21.18.78,2.39,1.22,3.39,1.4a25.34,25.34,0,0,0,4.62.24,15.93,15.93,0,0,1-1.83.6c-.61.25-1.16.44-1.77.66a19.66,19.66,0,0,0-3.55,1.38ZM83.24,32v.11c-.72,0-1.77.33-2.57.36s-2,0-2.93,0v0l5.5-.43Zm-7.65-.24a52,52,0,0,0,6.32-.33A26.39,26.39,0,0,0,84.76,31c.22-.06,2.69-.37,2.92-.37-.44.66-2.41.54-3.22.93,0,.45.14.28-.33.39a1.62,1.62,0,0,1-.67.11v-.29L75.88,32l-.29-.28Zm14.23-2.16c-.12.2-.07.21-.35.23v-.14l.35-.09ZM88.75,28.3a1,1,0,0,0-.07-.36H89l-.09.64L88.8,29.8h-.05V28.3Zm-.07-.93c-.16,0-.21,0-.21-.21v-.21c.17.13.19.14.21.43ZM71.59,25.94c-.38.57-.46.36-.69,1.24a7.47,7.47,0,0,0-.17,1.69c0,.63.62,2.36,1.14,2.36a4.25,4.25,0,0,0,.57-.21l-.23.4-.07,0,.07.36c-.82-.07-1.55-1.55-1.55-2.36V27.94c0-.78.36-1.85.93-2Zm0,0c.1-.08.18-.21.36-.21s.53.48.57.64L72,25.92ZM73,27.37c.28,0,.14.07.41.07s.53-.12.79-.14v-.21h-.64l-.86-1.57c2.38-.56,1.73.76,2.36.93v.36l-.6.32v.1l.66.17A5,5,0,0,1,75.41,29c-.07.37-.24,1.45-.24,1.69l-2.21-.25v-.33L73,27.37Zm20.57-4.12.29,0,6.08.3h.5c.49,0,.73-.16,1.14-.14l7.29.32v0l-8.22.24-3.43,0-5.95-.45,2.29-.31ZM25.1,22.94a.53.53,0,0,1,.43-.21v.14l-.43.07Zm3.87-1,.49,0a.84.84,0,0,1,.5.77h.21l.06.29h-.56c-.13-.09-.13-.14-.29-.14h-.29c-.25,0-.11.14-.36.14h-.29c-.22,0-.24-.12-.29-.29h-.29V23L26,22.75v-.1l.36,0,.4-.38,0,.32c0,.52.57-.17.64-.29h.36l.22-.17,1-.22Zm24.38-1.47c2.08,0,3.63-.43,5.94-.43,2.15,0,4.13-.07,6.22-.07h6.22a58,58,0,0,1,6.14.16c1.64.26,4.17.32,6,.41s3.95.52,5.65.64,10,1.35,10.73,1.86v.08l-6.58-.34-.93,0a8.1,8.1,0,0,0-2,.25c-.71.16-1.25,0-1.25.9v.57a6.18,6.18,0,0,0,1.79.36,16,16,0,0,1,2-.07l.71.08c.13.07.13.13.29.13s.19-.14.5-.14h1.43l-.06,0,.36.43.06,0c.09-.19.07.06.07-.21V24.8c.15,0,2.22-.22,2.28-.21.4.1-.82,1-1.05,1.15-.48.26-1.35.46-1.79.71s-.32.92-1.58.92c-.18.12-.39.43-.57.43s-.11-.29-.43-.29h-.14c-.23,0-.05.06-.36.14v-.14h-.86c-.2,0-.35.23-.43.36l-.42-.18v.18H91l-1.36-.2c0-.46.07-.37.5-.37l.15-.21c-.57-.3-1.07-.56-1.68-.84-.41-.19-1.4-.38-1.9-.53a24.57,24.57,0,0,0-4.16-.63c.08.31,1.35.36,1.69.46.51.15,1.22.32,1.72.43,1.28.29,2.18.49,2.18,2l-3.43.33-.17.3,3.59-.16v.24a12.78,12.78,0,0,0-1.4.25c-.58.12-1.11-.13-1.39.25L85,29.06l-.1.31-7.78.41v-.12c.39,0,1,0,1.14-.29h-2c-.23,0-.24-.18-.29-.36h.21a7.76,7.76,0,0,0,1.41-.16c.3-.05,1.15,0,1.23-.34l-2.79-.16c0-.27-.33-1.41-.42-1.71a3.16,3.16,0,0,0-.73-1.41L76.32,25,72,25l-1.51-1.57c-.4.27-.47.09-.65.55a2.34,2.34,0,0,0-.2,1l.14,1c.25.06.24.14.5.14h.29l-.37,2c-.29,0-.89.1-.92.43h.64c.29,0,.27-.24.29.29-.94.22-6.7.46-6.94.79v.08l.65.09v0L14.88,33.38V33.3l1-.08v-.13l-3.72.14,0,.1-.52.17-.22.11-1.37-.09v-.06c.42,0,2.16-.33,2.65-.42s2.31-.2,2.43-.65l-12.8,2-.27-.17,0-.33c.66-.05,3.35-1.79,4.29-1.79l0-.07,1.84-.72c.23-.06,4.06-1.37,4.55-1.56a42.61,42.61,0,0,1,4.62-1.46c.46-.11,1.22-1.13,1.58-1.49.51-.51,1-1,1.52-1.48a18.05,18.05,0,0,1,3.64-2.36v.21l6.94.16c-.41-.63-1.09-1.73-2.07-1.73h-.5l-1.36.14a26,26,0,0,1,5-1.14,49.82,49.82,0,0,1,5.79-.36h1.29l8,.24,6.15,0Zm21.45-1.79c.46,0,.54-.14,1-.14H76v.07l-.43.13h-.78v-.07Zm5.32-.83c.44-.12,3.9-.74,4.19-.74h.07c.17,0,.21.12.36.21l.43-.29c1.08,0,1.34-.35,1.93-.35h.21c0,.16,0,.21.21.21s.27-.23.36-.29c.3,0,.4.12.71.07v-.08l1.29-.18.8-.29.45.12v.1l.29-.13.19.11c.2-.1-.05-.08.22-.08s0,.18.43.21l-.06-.29H93V16l.41.24c-.07-.42,0-.31.52-.31l.23-.2.34,0,.21-.15.86-.08.36,0v-.14l.42.17c-.19-.89.38-.71.08-1.32l.07,0,.28-.5c.19,0,.44-.18.44-.39,0,0-.16-.21-.21-.29h.21l0-.06.37-.27-.09-.54-.51.26c-.06-.5-.31-.3-.31-.61v-.21a.91.91,0,0,1,.5-.71L97,10.29h.21a4,4,0,0,1-.07-.5V8.86h.21V6.43a4.84,4.84,0,0,1,.13-1.3c.08-.5.16-.88.22-1.28A18.7,18.7,0,0,0,98,1.07c.27,0,1,.19,1,.43V7l-.2,5.29h-.16l.11,4.86c-1.08.09-2.23.19-3.4.21-.47,0-1.24.13-1.71.15a7.71,7.71,0,0,1-.87-.05c-.29,0-.5.2-.63.2s-.16-.06-.29-.14v.09l-2.65.2v-.08H87.82l-2.78.5v-.08c-.57.09-1.09-.14-1.71-.07s-1.14.09-1.65.14l-3.22.36a7.35,7.35,0,0,0-2.36-.07,7.67,7.67,0,0,1,2.09-.41c.89-.18,1.25-.09,1.94-.28Zm6.77-1.6c.07-.89,3.54-6.75,4.17-7.84.73-1.26,1.59-2.46,2.26-3.75.26-.51.79-1.38,1.12-1.88.23-.34.82-1.83,1.17-1.83h1.57v1A25.56,25.56,0,0,1,97.05,5c-.12.86-.21,2-.38,2.83a40.86,40.86,0,0,0-.84,5.52v.86c-.69.16-1.38.44-2.16.63-.39.09-.69.19-1.09.27s-.83.08-1.19.17c-1.23.32-3.54.46-4.51.93ZM0,35.3v.14c.55.86-.17.83,1.16,1.7a17.8,17.8,0,0,0,1.92,1,18.93,18.93,0,0,0,4.67,1.2A75.79,75.79,0,0,0,18.59,40h3.58l25.67-.22c2.81,0,5.4.07,8.22.07s5.18.36,7.94.36c1.39,0,2.64.15,4,.14.83,0,3.21,0,4,.16,2,.32,5.83.18,8.1.27,2.55.1,5.35.3,8,.29s5.25.3,8.08.29c1.41,0,16,.53,16.09.57h.29c.05,0,4.58-.18,5.28-.37A18.61,18.61,0,0,0,120,40.9c.37-.16.73-.24,1-.39a2.93,2.93,0,0,0,.86-.57v-.36c-2,0-4-.28-6.08-.43-.94-.07-2-.22-2.93-.29s-2.3-.08-3.09-.2c-1.82-.28-4.15-.31-6.06-.44s-4.13-.37-6-.5c-2.08-.14-4.07-.2-6.07-.43-1-.11-2-.1-3-.21s-2-.23-3-.28c-1.87-.1-4-.43-5.93-.57s-4-.5-6-.5c.41-.56,7.22-2.43,8.52-2.77.77-.21,1.57-.26,2.27-.51A24.11,24.11,0,0,1,87,32a6,6,0,0,0,2-.81c.38-.6.08-.32.8-.63.51-.22.35-.32,1-.27v-.43H91l-.09.28a.89.89,0,0,0,.36.14,12,12,0,0,0,1-.75,8.17,8.17,0,0,1,1.21-.65c.68-.4,1.94-.83,2.49-1.23a21.66,21.66,0,0,1,2.3-1.35c.44-.24.73-.47,1.14-.71s.21-.27.62-.31.49,0,.5-.43c2.25,0,4.77-.08,7.15-.07,1.11,0,2.25-.2,3.36-.21s2.22-.56,3.07-.57v-.36c0-.37-1.32-.21-1.72-.21-.72,0-1.32-.07-1.93-.07-1.31,0-2.47-.27-3.65-.29a33.48,33.48,0,0,1-3.7-.23c-.52-.08-1.26-.13-1.81-.19a2.78,2.78,0,0,1-.87-.13,5.26,5.26,0,0,0-.77-.23h-.21a1,1,0,0,1-.07-.36l0-3.5.24-10.57,0-2.79L99.41.49l-.64.08h-.07A8.66,8.66,0,0,1,96.9,0h-.57L94.92.62s-1.73,3.25-1.87,3.46c-.7,1.12-1.35,2.19-2,3.32s-1.29,2.28-2,3.39c-.3.49-.66,1.32-1,1.73a17.16,17.16,0,0,0-1,1.67c-.81,1.55-1.36,1.73-3.06,2.3a37.17,37.17,0,0,1-4.63.73c-.8.12-1.52.41-2.18.54s-1.58.22-2.33.31c-1.83.22-2.9.3-4.15,1.14-3.51,0-7.05.36-10.51.36s-7.25.23-10.66.21C46,19.78,42.4,20,38.9,20c-3.32,0-7.62-.15-10.27.53a23.78,23.78,0,0,0-4.06,1.37,16,16,0,0,0-3.23,2.2c-.72.54-2,1.93-2.8,2.63a5.87,5.87,0,0,1-1.62,1.1,18.66,18.66,0,0,0-2.12.6c-.63.26-1.42.42-2.09.63-.51.17-1.56.63-2,.72a33,33,0,0,0-4,1.46c-.58.22-1.49.6-2,.75-.64.2-1.4.65-1.93.79a7,7,0,0,0-1.75,1C0,34.49.48,34.55,0,35.3Zm26.46-3.22h.16l-.16-.13v.14Zm-8-.12v.12l4.08-.5v-.12L18.45,32Zm8.08-.8v.08l6.08-.45H33v-.11l-6.44.48Zm9.22-.51.21-.14h-.21v.14Zm-7.29-.14c0-.37-.05-.1-.14-.43h-.14c0,.3,0,.36.29.43Zm21.6-.71h.29c.34,0,.22-.07.5-.07v-.07h-.79v.14Zm9.8-.85V29l1.5-.09v-.07l-.43,0-1.07.1ZM30.75,25.8c0-.55.29-.11.43-.71h.14l.16.57h-.31v.14Zm-2.29,2.07h1.43c.66,0,2.52.13,2.45-.57l-.09-.78c-.27-.4-.36-.77-.6-1.18s-.25-1.17-.61-1.17h-.57a21.15,21.15,0,0,0-2,3.72Zm-4-3.76.07,0-.1,2.07,0,.09-1.4,0,1.41-2.16Zm1.64,2.26c-.21,0,0-.85,0-1.14s0-1,.36-1.07v.29a.45.45,0,0,0,.07.29c-.1.15-.21.19-.21.36v.29c0,.31.14.26.14.57v.14c0,.19-.19.29-.36.29Zm-2.9-2.26a9.21,9.21,0,0,1-.91,1.31c-.33.43-.47.95-1.2.95l-.24,0,2.35-2.23Zm-3.61,3c1.35,0,2.53.07,3.93.07s2.62.5,3.5.5h.14A16.77,16.77,0,0,0,29,23.87a61.7,61.7,0,0,0-6.19,0,21.84,21.84,0,0,0-3.25,3.26ZM33,24.87v-.55h1.72c-.15.31-.12.55-.54.67-.24.07-.8.33-.82.33S33,25,33,24.87ZM32.54,24l1.15,3.52,2.14-.24a27.85,27.85,0,0,0-.61-2.82C35,23.64,35,24,34,23.93c-.41,0-1,.07-1.5.08Zm17.08,2.5c.47.11.5.36,1.11.25.3-.05,1.12,0,1.12-.32,0-.89-.84-2.41-1.74-2.43l-.49,2.5Zm45.64.15.3,0-.3-.11v.14ZM54.64,26l.07.59,2.14-.16a9.94,9.94,0,0,0-.6-1.41c-.25-.58-.25-1-1-1-.1.37-.68,1.35-.57,2Zm5.51-.21v.56l.64.08h.5c.33,0,1.07-.11,1.07-.36,0-.07-.54-1.2-.61-1.32a4,4,0,0,0-1-1,4.07,4.07,0,0,0-.57,2Zm5.22-1.43c0,.84-.39,1.06,0,1.8l1.21-.08h.72a5,5,0,0,0-1.07-2.36c-.6,0-.5.41-.86.64Zm28.75,1.07.38,0-.38-.26v.29Zm1.43-.28v.14l.5-.08v-.16l-.5.09Zm2.15,0-.37-.06c.08.12,0,.14.21.14l.87,0-.23-.12H97.9c-.23,0-.05-.06-.37-.13l.16.2Zm-.82-.09.22-.14-.22.14ZM33.11,22.94H32.9c-.22,0-.2-.08-.21-.29H34.4l.09.35-1.37.09v-.16Zm-1.36-.29c0,.27.29.53.36.79h2.72c.16,0,.21,0,.21-.21s-.44-.93-.72-.93h-.57c-.39,0-2,.1-2,.36Zm-2.86-.27a.42.42,0,0,0,.42.2c.27,0,0,0,.21.07v-.27l-.35-.08-.29.07Zm-1.51.2c.24.32.32,0,.64,0s.14,0,.42.07l.08-.27-.28-.09c-.18.24-.44.29-.86.29ZM88.25,17,88,16.72c0,.28,0,.22.21.29ZM93,16.86c.37,0,.21.06.35-.12L93,16.58v.29Zm2.57-.93L96,16l.29-.14c-.06,0-.2-.21-.29-.21s-.08.14-.21.14,0-.11-.36-.14c.11.1.12.07.14.29Zm-.59,0,.09-.23h-.22l.13.22Zm3.31-3.37c-.2-.07-.15,0-.21-.29l.21.29Zm-.53-.3.2,0-.13.41,0,.43-.3.15.15.21,0,.34.34.3c0-.45.07-1.12.43-1.21v-.29c0-.2-.43-.55-.57-.64l-.17.27Z"/></g></g></svg>