<svg xmlns="http://www.w3.org/2000/svg" viewBox="0 0 155.99 49.66"><defs><style>.cls-1{fill:#231f20;stroke:#231f20;stroke-miterlimit:2.61;stroke-width:0.19px;fill-rule:evenodd;}</style></defs><title>WW-II</title><g id="Layer_2" data-name="Layer 2"><g id="Layer_1-2" data-name="Layer 1"><path class="cls-1" d="M40,49.56c5.24-.06,11.13.45,16.05-1.68a1.43,1.43,0,0,0-.19-1.36c-1.62-1.49-4.66-1.88-7.06-2.78a108.84,108.84,0,0,1,17.8-8.09c30.28,1.12,68.24,3.1,87.77-5.7A4.15,4.15,0,0,0,155.89,28c-.45-1.42-2.4-1.55-3.69-2.59-5.5-3.43-12.05-2.78-16.76-4.27-5.18-5.89-14.43-2.78-20.71-5.31a5,5,0,0,0-3-.26.29.29,0,0,0-.19.26.48.48,0,0,0,.19.45l1.81.58L94.66,18.42,93.88,18A19,19,0,0,1,98.8,12.4c4.6,0,9.45,0,13.66-2,.19-.52-.45-.58-.78-.78a25.84,25.84,0,0,0-7-1.42l-6.47-.39-5.5-6.47-4.14.06L91.16,8c0,.65-.52,1-1,1.23-1.36.58-2.65.58-3.69,1.17a.5.5,0,0,0-.19.45l2.33,1.29c-2.46,2.65-6.08,4.27-9.19,6.34-1-.32-2.39-1.49-3.75-.58,0,.91,1.1.52,1.42,1.23a38.74,38.74,0,0,1-11.33.65c-.39-1.29-.65-2.91-2.2-3.5-11.8-4.43-20.71,5.65-27.19,1a3.24,3.24,0,0,1-.32-.45l1.29-3.56c-1.62-.45-3.62.78-5.11-.26C27.6,9,24.37,2.63,18.86.62A.87.87,0,0,0,18.41.1L14.2,1.4l8.16,18.84L0,27.23c7.25,1,14.89-2.72,22.33-4.4a1.11,1.11,0,0,1,.84.45,5.06,5.06,0,0,0,.52,3.88c2.27,1.29,5.11,1.17,7.57,2.14,4.14.84,7.78,1.7,11.73,2.35l1.54.3,7.77,1.23-9.71,6.41-5.24,3.24C32.46,39.85,29,32,21.91,33.89a.33.33,0,0,0-.26.39L26,40.62l.45,2.2a1.55,1.55,0,0,1-.91.91L22.23,45c-.13.06-.19.26-.32.45,1,1.62,3.24,2.07,5.24,2.59,4.4.91,8.74,1,12.88,1.55Zm.84-.45c4.53,0,8.93,0,13.53-1.1-7.18-.06-15.86,2.07-22.14-1.68a26.81,26.81,0,0,0-7.44-9l-2.27-2.78c.19,1.23,1.75,2.14,2.27,3.5a8.74,8.74,0,0,1,2.33,5,1.71,1.71,0,0,0,.32.39l-4.53,1.81c-.19.19,0,.45.06.65,5.24,2.85,12,2.39,17.86,3.24Zm3.69-2,9.84-.32c.26-.13.32-.19.26-.45-5.83-3-13-1.81-19.09-3,.13-.26.45-.13.65-.26A53.16,53.16,0,0,0,27,34.34c-.78-.06-1.49-.06-2.14-.06,1.49,3.75,6.8,7,8.54,11.13,3.24,2,7.51,1,11.2,1.68ZM28.51,43.41h0Zm14.56-.13c9.45-2.27,17.86-8,26.86-11.59,3-1.55,6-2.72,8.54-4.21.13-.06.13-.26.32-.45s.32-.13.58-.26a3.31,3.31,0,0,1,2.46,1.81l-6,3.11c10.55,0,21.55-1.23,32.56-1.29,14.76-1.17,29.65-.26,44.14-3.95-4.34-2.65-10.1-3.56-15.28-3.82-.26.19-.58.39-.58.39l-5.37-3.24a1.93,1.93,0,0,0-1.62-1.42,76,76,0,0,0-13.46-.65l-.45-.65c-.91-.26-1.55-1.68-2.78-1.1l1,.32.39,1c.06.39.52.13.91.39V18L86.57,19.2c-.06,0-.06-.06-.06-.32l4.08-.52L98.22,11c-1.94-1-4.53,0-6.8.52-3.82,2.27-7.18,4.73-10.68,6.93-.26.32-.32.39-.32.39,0,.26.32.26.52.26l5-.32c.06,0,.13.06.13.32l-6.73,1a1,1,0,0,1-.13-.52,2.11,2.11,0,0,0-2-1.36,1.76,1.76,0,0,1,.91.91c0,.06-.13.39,0,.52l.78.19v.26l-14.76.65.26-.52c-.26-.45-.71-.65-1-1-.26.32.06.78.13,1.23.19.13.39.06.58.39l-2.72-.26c-.91-1-.19-2.52.19-3.69-1,.39-.84,1.94-.84,2.91,0,.52.65.91.39,1l-5.83.45c-.19-.06-.45-.13-.39-.45L60,20.49l1.1-4.21c-4.92-1.49-11.07.45-16,2.39l9.06,1.1a1.38,1.38,0,0,1,.19,1c0,.13-.19.19-.39.32-.45,0-.45-.45-.71-.71-5.37-1.36-11.78.26-17-2.39-6-4.73-10.55-14.37-18.25-16.76,3.95,6.21,10.62,12,15.6,18.25,1,.78,1.88,2.2,3.11,2.85,5.44-1.23,11.59-3,16.76-.65,1.62,1.55,1.62,3.82,1.17,5.7-.45,1.36-1.94,1.81-3.11,2.33v.39c1.94.26,4.27,1,6.08,0,.13,0,.26,0,.26.26L39.12,42.82l3.95.45Zm31.37-7.92,36.25.26c7.19.05,32.73-.52,44.3-7-8.22.91-16.89,2.78-25.5,2.72-20.26.91-40,1.42-60,3-.32.19-1,0-1.1.66l6.06.42ZM45,31.24c1.62-1.36,4.27-.91,6.34-2l.45-.71c.26-.06.52.19.78.06.19-.84-1.23-1.17-1.42-2.07a5.2,5.2,0,0,1,.78-4.6c-.26-.45-.52.39-1,0a1.46,1.46,0,0,0-.06-.45C46,20.82,41,22,36.21,23.21a24.08,24.08,0,0,0-5.76,1.94,3.33,3.33,0,0,0,0,3.3L45,31.24Zm48.16-1.1L96,29.75l-.39-5.83-3.3.26c-.91,1.42-.06,3.56.19,5.31.13.39.26.58.52.65Zm0-.45,2.52-.26-.13-4.92c-.52-.78-1.88-.06-2.85-.13-.19.13,0,0-.26.13l.45,5.18Zm-10.29-1.1,1.1-.13V25.87c0-.26-.32-.26-.65-.45-.06,0-.26.13-.45.19-.78.39-.58,1.36-.58,2.27.19.45.19.39.32.71Zm-31.46-.26c-.26-.45-.71-.58-.84-1.17l.84,1.17Zm36.7.13a1.17,1.17,0,0,0,.65-.13l.06-2.91c-.19-.32-.71-.13-1.16-.06-.06.06-.06.19-.26.26a3.72,3.72,0,0,0,.19,2.65,1.61,1.61,0,0,1,.45.19Zm-59-.19.19-.13.19-2.85c.65-1.29,2.52-1.23,3.69-2L31.1,20.82a24.87,24.87,0,0,0-4.6,1.1c-1,.84-2.78,1.62-3,2.91a2,2,0,0,0,.19,1.23c1,1.62,3.56,1.55,5.44,2.2Zm64.66,0,.91-.26-.26-2.85-.78.13c-.84.71-.19,1.88-.13,2.85.13,0,.19,0,.26.13Zm6.15-.39,1.1-.19.06-2.72c-.19-.32-.71-.06-1.17-.13-.71.52-.52,1.94-.26,2.91.06,0,.06,0,.26.13Zm7.38-.26H108c.78-.84.19-2.2,0-3.11a1.28,1.28,0,0,0-1.1-.06L106.63,27c.13.19.26.65.65.65Zm6.34-.19h.65c1-.52.26-1.88.26-2.91-.13-.32-.71-.06-1.16-.13L113,26.77a.62.62,0,0,0,.58.65Zm-37.48-.26h0ZM3.2,26.9l27.19-7.12L30,18.94l-26.93,8Zm119.16-.45L127,26l.19-.39L125,22.44l-3.69.45v3c0,.45.39.39.84.58Zm-72.11,0a2.24,2.24,0,0,0-.19-.84l.19.84Zm79.48-.84c2.14,0,4.92-.65,6.28-2.14l-5.18-3-4.08,1.49,2.91,3.69Zm-79.68-.78a4,4,0,0,1,.65-2.46c-.45.45-.45,1.29-.84,2l.19.45Zm71.39-4.14,3.24-.39c.19-.19.45-.32.39-.71a3.53,3.53,0,0,0-3.43-.45c-.06.39-.45,1-.39,1.55Zm-98.19-.91,5.24-1.36c.06,0,.19-.19.19-.39L15.82,3.66l7.18,16,.26.13Zm41.81-.19a2.56,2.56,0,0,0-1.23-2.39,1,1,0,0,1-.45-.32L65,19.65l.06-.06ZM35.24,15.38c.19-.39.78-.91.65-1.62L34.14,14c-.45,0-.45.39-.13.58.32.45.32.84,1,1l.26-.19Zm64.47-3.43,8.29-.71-8.29.32c-.19.13-.19.19,0,.39Zm-10.23-.39c1.17-1,2.85-1,4.66-1.42L90,4.05,91.81,8.2l-.39.91-4.21,1.75,2.07.84.19-.13Zm10.42-1L111,9.88C107,8.07,102.3,9,98.22,8.45l-5.5-6.67L90.19,2l5.57,7.9,4.14.71Z"/></g></g></svg>