<svg xmlns="http://www.w3.org/2000/svg" viewBox="0 0 283.89 83.66"><defs><style>.cls-1{fill:#231f20;fill-rule:evenodd;}</style></defs><title>WW-I</title><g id="Layer_2" data-name="Layer 2"><g id="Layer_1-2" data-name="Layer 1"><path class="cls-1" d="M272.88,0l10.57,1.57c1.11,1.49-.15,3.29-.42,5-.5,1.38-.38,2.8-1,4.1-.34,1.76-1.07,3.48-1.23,5.13-.5,1.34-.69,2.6-1.23,3.91,0,.88-.5,1.65-.5,2.37-.42,1.07-.34,2-.77,2.87-.11,1.3-.8,2.07-.92,3.37-.69,3-1.34,6-2.3,9-.11,1.38-.88,2.53-.73,3.83,1.49,1.26,4.37,1,5.32,2.8a2,2,0,0,1-.38,1c-1.61,1.15-4.06.34-5.74,1.15a14.35,14.35,0,0,0-.73,4.82c-.34,2.72,2.34,3.25,2.87,5.51,0,1.68-.23,3.6-1.72,4.44-18.84,1.49-38.22,6.39-57.28,10.15-4.37.88-8.46,2-12.67,2.87-.08,0-.08.19-.27.19l-.57-.11c-.11,0-.11.11-.27.19l-.8-.08c-.08.08-.08.31-.34.34a1,1,0,0,1-.38-.15.68.68,0,0,0-.38.15.89.89,0,0,0-.15.38l-.65-.12-.61.38c-.42-.11-.92.27-1.38,0-.38,0-.73.31-1.19.27,0,0-.27.11-.27.23a24,24,0,0,0-5.25.69c-1.19.46-2.14.34-3.14.69-.77,0-1.57.34-2.14.31-2,.42-3.87.46-5.78,1a286.83,286.83,0,0,1-39.59,5.21c-2.53,0-5.05-.15-7.39-.15-3.75-.08-7.5.11-11.22-.08a11.14,11.14,0,0,0-2.3.23,63.74,63.74,0,0,1-6.62,0c-1.11.34-2,0-3.1.11-4.63,0-9-.34-13.67-.19-2.45.19-4.44.08-6.89.19-2.34,0-4.33-.15-6.66-.15-.84,0-1.42,0-2.22,0-5-.12-9.88,0-14.78,0-.69-.38-1.23,0-1.8-.15a7.32,7.32,0,0,1-1.57.08,28.93,28.93,0,0,0-4.82.08,7,7,0,0,1-2.18,0c-1.23.15-2.3-.19-3.45,0-2.57,0-5-.27-7.51-.27-2-.27-3.91,0-5.74-.15-4.33,0-8.5-.8-12.79-1.07-9.34-1.38-19.49-4-26-10a1.91,1.91,0,0,1,.38-2c4.06-4.33,9.8-6.13,15.81-7.93,12.22-.77,19-8.85,29.91-11.83a27.16,27.16,0,0,1,4.44-1c1.49,0,2.91-.34,4.29-.31,2.45-.27,4.86-.15,7.2-.42,12.44.27,24.74-.38,37.1-.15,7.89-.27,15.58-.08,23.36-.5,10,.08,19.84.23,29.71-.19l16.5-.34c3.94.5,7.93-.27,11.87.11,1.38-1,3.33-1.07,4.71-1.49.84-1.3,2.95-1.57,4.6-2.07,3.18-.69,6.2-.46,9.34-.65,3.52.23,6.85.38,10.34.77,2.64.11,5-1.11,7.7-.92,5-1,10.68.11,14.9-2.64a45.55,45.55,0,0,0,10.15-8.69c8.42-10.26,15.85-21.75,26-31.36L272.88,0Zm-2.59,1.73A43.86,43.86,0,0,1,281.85,3.3c0,.38.08.92-.19,1.23a38.08,38.08,0,0,0-7.81-.46,2.4,2.4,0,0,0-1.3,1.65c0,.57,0,1.15.38,1.38s1,.27,1.42.46a9.51,9.51,0,0,1-1.53,4.52l-1.26.23a1,1,0,0,0-.27,1.23l.65.46-6,13.79-1.49.65-.15.54.27.54.46.23-4.21,8.88a1.08,1.08,0,0,0,.65.8l11.07.5a.26.26,0,0,1,.15.15c-.15.54-.69.92-.46,1.65a1.36,1.36,0,0,1,0,.27l.19.46,2.22.77-5.48-.5,2.8-.34c0-.08.08-.11.15-.27a.81.81,0,0,0-.15-.38c-5.9-.54-12.22.31-18.11-.23l-9.42,1-1.26,1.19a2.14,2.14,0,0,0,1,1.88c2,.61,3.94.15,5.86.42,1.19-.42,2.3.15,3.18-.11,3,0,5.74-.12,8.58.11l9.15.34c.12,2.18-1.07,4.79-.11,6.93.23.23.27.38.46.54-11.37,1.26-23.4,2.34-34.88,4.67a6.71,6.71,0,0,0-2.18.42c-.15,0-.31,0-.34-.15a6.67,6.67,0,0,0-2.34-3.94l.34-1.26c.38-.77,1.76-1.11,1.65-2.3-.31-1.26-1.57-1.49-2.64-1.91A54.9,54.9,0,0,0,224,47.75a45.09,45.09,0,0,1-7.77-2.53c6.13-1.61,13.86,0,18.57-4.48a44.53,44.53,0,0,1,3.94-3c.65-.27,1.11,0,1.65-.15a5.42,5.42,0,0,0,1.91,0c3.94-4.6,7.62-10.15,11.53-15,.5-1,1.34-1.65,1.76-2.57,1.72-1.8,2.83-3.56,4.4-5.32a65.19,65.19,0,0,1,4.29-5.09l4.44-5.28a.85.85,0,0,0-.61-.73c-.27-.15-.61,0-.69-.27A2.42,2.42,0,0,1,268.75,2a4.54,4.54,0,0,0,1.38-.34l.15,0ZM276,5.62l5.09.5c-2,10.61-5.17,21.6-7.89,32.09l-10.07-.5c0-2,1.84-3.75,2.37-5.82.42-.69.69-1.34,1-2a1.25,1.25,0,0,0,1-.84c-.15-.8-.42-1.53.19-2.14,2.18-4.33,3.48-9.46,6.36-13.17,0-1.65,1-3,1.45-4.56.19-.92.57-1.61.77-2.45a1.4,1.4,0,0,0-.69-.92.36.36,0,0,1,.34-.19Zm-12,37h0ZM193.32,45c7.62.19,15.36.42,23.05,2.49a19.86,19.86,0,0,1,5.21,1.76c.27,2.11.08,4.29.38,6.47-.31,1.34.31,2.6-.11,3.83-6.43,2-13.67,1.88-20.56,2-3.29-.31-6.39-.31-9.61-1.53a14.62,14.62,0,0,0-4.1-2c-.5-2.45.08-5.17-.23-7.77.19-1.34,0-2.72.5-3.83a19.73,19.73,0,0,1,4.86-1.26c.27,0,.46-.15.61-.15ZM156.38,55.08c-3.74.36-16.13.29-19.51.79C130,55.94,123,57,116.28,57.38l-.43-.58c-1.3-1.08-3.46-.86-5.26-.29-1.3.94-1.3,2.66-1.3,4.1.22,1.15,0,2.16.58,3a6.25,6.25,0,0,0,5.11.94,3,3,0,0,0,1.37-2.16c0-.07.07-.07.14-.14,6.62.94,13.61,1.3,19.08,4.9-2.88.72-6,0-9.07.5-2,0-4-.29-5.76-.22-.79.43-1.44-.07-1.94.22-5.11-.07-10,.07-15.12.07a15.29,15.29,0,0,1-3.17.22,12.75,12.75,0,0,0-1.66-.07,55.15,55.15,0,0,0-6,0H75.81c-15.34,0-30.53.22-45.72.94a43.84,43.84,0,0,0-7,.43c-1.15-.14-2,.29-3.17.14A89.27,89.27,0,0,0,7.56,70.78a2.06,2.06,0,0,0-1.44.79,3.25,3.25,0,0,0,2.38,1.8,95,95,0,0,0,9.86.94,17,17,0,0,0,3.31.14c8.71.5,17.21.58,25.92.86C58,75.31,68.4,75,78.91,75.1c1.58-.22,3.1.14,4.61,0,3.46.22,6.84,0,10.15.22,2.52-.22,5-.22,7.42-.43,4,.22,7.7,0,11.59.22,4.82-.22,9.65,0,14.26-.22,1.3.07,2.45-.29,3.6,0,4.82-.29,9.36-.43,14-.5,4.1.07,8.14-.29,12-.07,1-.65,2.59,0,3.6-.5,7.06-.5,14-.79,21-1.8,5.62-.43,11.38-1.66,16.85-1.94,1.51-.29,2.81-.36,4.25-.72,4.25-.29,8.78-1.37,12.82-1.08L226.8,67c.07,0,.07.14,0,.22-8.28,1.58-16.56,3.67-24.91,4.9l-3,.58c-.72.29-1.66.14-2.38.5-2.3.65-4.54,1.08-6.77,1.58-10.37,1.94-20.52,4.1-30.82,5.47-7.7.29-15.48,1.94-23.18,1.3-22.82.58-45.65.07-68.4.22-6.91-.22-13.61.43-20.45-.07-13.1-.58-27.65-.86-39.53-6.84-.94-.43-1.8-.94-2.59-1.22l-3-2.38c.22-1.37,1.87-2.16,2.81-2.88,5.26-3.1,12-5,18.22-6,2.23-.43,4.32-.72,6.41-1.3,3,1.44,6.41,1.15,9.58,1.58,2.45-1.44,3.17-4.25,4.46-6.41,0-.36,0-.5.14-.65a1.7,1.7,0,0,0-1-1.3,2.55,2.55,0,0,1-.79-.22c-.07,0-.07-.07-.07-.22a2.31,2.31,0,0,1,1.73-.79c1.51,1.8,4.54,1.22,6.84,1.58.36-.14.65-.22.79,0l.86-.36.22-3c1.51-.72,3.74-.36,5.54-.79,5.9-.22,11.52-.22,17.28-.29,2-.07,4-.22,5.9-.22,1.44-.07,2.66.14,4.1,0,3.6-.14,6.91-.14,10.44-.14a22.51,22.51,0,0,0,3.82,0c3.74-.14,7.2.07,10.8,0,1.66,0,3.24-.14,4.68,0a17,17,0,0,0,2.74-.14c1.51.29,2.88-.14,4.25,0l8.93-.14,20.38.07c-1.08,1.94,9-1.22,7.56.5l11.16-.58,5.47-.29,5.76.22c.58,2.74-.94,6.34.86,8.78a13,13,0,0,0,2.52.94,5.5,5.5,0,0,0,.65.65c2.16-.43,3.24,1.58,5.33,1.44.79.58,1.8.65,2.45,1.08l4.54.72-3.24.58-13.68,1.3c-.14,0-.14-.22-.22-.36a.54.54,0,0,1,.07-.29c-.07-.65-.65-1-1.22-1.3a21.36,21.36,0,0,1-2.52-.65,5.51,5.51,0,0,1-2.59-1.3c1.3-.58,2.81-.58,4-1.58a1.75,1.75,0,0,0,.72-.43c.22-.14.29-.36.43-.72l-.22-.5c-3.6-1.73-7.85-1.58-11.74-2.38a.72.72,0,0,0-.29-.07c-.36-1.73-10.51,1.37-10.3-.29Zm-56.23-1.37a18.42,18.42,0,0,1,3.29.42A3.66,3.66,0,0,1,106,57c-.19,1,.11,1.8,0,2.64,0,2,0,3.83.15,5.74l-.84.23a.83.83,0,0,1-.38-.08l-.88.65-1.49.57c-2.14.42-4.71.65-6.36-.8a.46.46,0,0,1-.15-.15c-.11-3.48-1.23-7.28-.08-10.65l2.87-1.3,1.38-.15ZM47.59,55.3c1.26.15,2.76-.08,3.91.5.65,2.14.38,4.71.42,7-.08.31-.61.46-1,.46-2.26-.15-4.17.08-6.39,0a2.44,2.44,0,0,1-2.14-.54c-.73-1.38,0-3.14.42-4.48a6.08,6.08,0,0,1,4.82-2.95Zm52.78-.07c1.42.34,3.1.23,3.91,1.53a2.75,2.75,0,0,0,.15.27l.19,6.62c-1.3,1.65-3.79,1.91-5.9,2a5.27,5.27,0,0,1-1-.27c-.84-.69-.69-2.14-1-3.25,0-2-.65-4.37.42-6l3.22-.88Zm1,1.08,1.42.42c1.11,1,.92,2.95,1.11,4.52,0,1.23-.19,2.49-1.26,3.14a7.16,7.16,0,0,1-4.29.19,11.67,11.67,0,0,1-.08-7.66l3.1-.61Zm-25.7.36A3.5,3.5,0,0,1,78.54,58a8.26,8.26,0,0,1,.19,6.39c-1.53.84-3.75,0-5.59.15-1.07-2.11-.84-4.79-.42-7.16.61-.69,2-.5,2.95-.69Zm12.46-.07c1.15,0,2.64.15,3.37,1.26.38,1.76.12,3.52.27,5.21a2,2,0,0,1-.61,1.76,7.79,7.79,0,0,1-4.94,0c-.23-.27-.46-.42-.5-.57l-.27-2.57-.23-.54a13.08,13.08,0,0,1,.23-1.65A3.13,3.13,0,0,1,86.71,57c.46-.38,1-.23,1.42-.42Zm-26,.43c1.15.08,2.8.08,3.56,1.15a8.38,8.38,0,0,1,.19,6.39c-.42,1.07-1.68.84-2.49.88a22.35,22.35,0,0,1-2.8-.15.67.67,0,0,1-.46-.54A14.34,14.34,0,0,1,60,62.42c-.08-1.68-.54-3.41.42-4.79L62.13,57Zm209.81.36,1.8.15c.27.19-.34.27-.54.31a75.39,75.39,0,0,1-7.73.69,103.68,103.68,0,0,0-11,1.07c-1.19.31-2.41-.11-3.33.57l-13,1.8a.58.58,0,0,1-.15.23s-.11-.12-.23-.23l-2.41.38-.65.38c-1.23.11-2.57.31-3.83.31-2.76.42-5.44.8-8.16,1.11-12,1.23-23.82,3-35.73,4.33-.15,0-.11-.12-.27-.15s-.11.08-.27.15c-1.68.31-3.45.15-5.21.57l-5.44.42c-2.53.27-4.82.5-7.31.54a173.7,173.7,0,0,1-18.15,1.65c-4.21.31-8.23.15-12.41.38-3.1-.11-6.09.12-9.19,0-4.14,0-8.08,0-12.29.19a80.44,80.44,0,0,1-11,0c-1.91.11-3.56.23-5.48.23-3.25-.19-6.32.15-9.57,0-3,.19-5.51,0-8.46.19-2.45-.19-4.67.15-7,0-3.41.11-6.55,0-9.92,0-2.87.15-5.51-.19-8.39-.15-1,0-1.72.15-2.72,0-3.1-.31-6-.08-9-.19-1.8.42-3.56-.5-5.09,0-3.56-.11-7-.11-10.49-.54L55.25,71l27.53-.08c.23,0,.23.08.42.15s.08-.15.23-.15c3.14.54,6.43-.65,9.46.19l2-.19h1.8l.65.19c2.22-.34,4.63-.11,7-.34a66.75,66.75,0,0,1,6.78.08c1.15-.19,2.11.27,3.29,0a34.77,34.77,0,0,0,4.48-.15c1.49.19,2.87.12,4.29.27,3,0,5.82.15,8.69.19,19.57-.19,39-2.11,58.47-4.17,7.24-.65,14.28-1.57,21.44-2.37,5.28-.08,10.53-1.38,15.62-2,1.76-.54,3.41-.27,5.05-.92,4.71-.46,9.42-.88,14.05-1.3.15,0,.23-.15.38-.27,3.56-.54,7.16-1.11,10.68-1.49,4.9-.92,9.69-.92,14.28-1.26ZM156.67,62H157c-.27,0-.38.19-.69.19a.36.36,0,0,1,.34-.19Zm12.46,0c1.42.19,2.34,1.3,3.91,1.68.38.27.8.27,1,.69-5.44,1.26-11.22,1.45-16.85,1.8-2.83.61-5.44.23-8.16.27-4.63-.61-9.57.27-13.67-1.42a.41.41,0,0,1,0-.23c1.46-.15,2.83.15,4.37.11,2.87.12,5.32-.31,8.19,0A115.66,115.66,0,0,0,169.12,62Zm-33.77.72.61.08-.77,0,.15,0Zm3.89.22.5,0c-.15,0-.34.19-.54.08l0,0Zm95.47,2.74H235l-3.26.61,2.95-.61ZM106.12,66l.08,0c-.08.46-.69.27-1.07.46l1-.5Zm-9.65.94a1.94,1.94,0,0,1,.34.08c-.11.15-.31,0-.42-.08ZM227.95,67l-.08.15h-.38l.46-.15Z"/></g></g></svg>