<?xml version="1.0" encoding="utf-8"?>
<!-- Generator: Adobe Illustrator 21.1.0, SVG Export Plug-In . SVG Version: 6.00 Build 0)  -->
<svg version="1.1" id="Cig" xmlns="http://www.w3.org/2000/svg" xmlns:xlink="http://www.w3.org/1999/xlink" x="0px" y="0px"
	 viewBox="0 0 538.1281 93.816" enable-background="new 0 0 538.1281 93.816" xml:space="preserve">
<g>
	<path fill-rule="evenodd" clip-rule="evenodd" d="M7.344,93.816c-2.16-0.936-2.16-0.936-5.04-2.88c-0.72-0.864-1.44-1.8-2.16-2.736
		c0-0.36-0.072-0.792-0.144-1.224c0.504-0.936,0.504-0.936,1.152-1.296c0.216,0,0.432,0,0.72,0c1.512,1.1519,3.024,2.376,4.536,3.6
		c0.36,0,0.792,0,1.224,0c1.08-0.576,2.16-1.152,3.312-1.7281c1.008-0.144,2.088-0.288,3.168-0.4319
		c0.792,0.072,1.584,0.144,2.376,0.216c0.72,0.288,1.44,0.576,2.16,0.9359c2.088,0,4.176,0,6.264,0
		c0.432-0.216,0.936-0.4319,1.44-0.72c1.08,0,2.16,0,3.312,0c2.664,1.0081,2.664,1.0081,5.76,1.7281c0.792,0,1.584,0,2.448,0
		c0.504-0.288,1.08-0.648,1.656-1.0081c1.44-0.36,2.88-0.72,4.32-1.1519c23.544,0.4319,23.544,0.4319,24.12,0.144
		c-0.072-0.6479-0.144-1.296-0.288-1.944c-0.144-0.216-0.36-0.432-0.576-0.648c-5.76-0.72-5.76-0.72-20.88-1.872
		c-1.872-0.504-1.872-0.504-5.256-0.72c-0.288,0.072-0.576,0.144-0.936,0.216c-0.432-0.504-0.864-1.008-1.368-1.512
		c0-0.288,0-0.648,0-1.008c0.144-0.144,0.288-0.288,0.504-0.432C39.6,77.4,39.6,77.4,39.6,74.304c5.4-3.888,5.4-3.888,8.424-5.76
		c1.656-1.368,3.312-2.736,5.04-4.104c11.448-7.56,11.448-7.56,27-17.208c0.648-0.288,1.296-0.576,1.944-0.936
		c0.792-0.648,1.584-1.296,2.376-1.944c1.08-0.576,2.232-1.224,3.384-1.872c1.224-1.296,2.52-2.592,3.816-3.888
		c0.936-1.224,1.872-2.52,2.88-3.816c5.472-0.288,11.016-0.576,16.56-0.936c11.304-1.944,18.504-2.88,20.448-3.384
		c3.6-0.144,7.2-0.288,10.8-0.504c6.192-0.936,8.856-0.936,14.4-1.872c1.656-0.504,1.656-0.504,8.64-1.44
		c3.096-1.008,3.096-1.008,10.296-2.448c1.224-1.152,1.224-1.152,2.16-1.656c1.944,0,3.96,0,5.976,0
		c10.08-1.944,17.568-2.88,19.728-3.384c1.44,0,2.16-0.432,6.192-0.936c3.888-0.936,3.888-0.936,5.04-1.44
		c2.448-0.288,4.968-0.576,7.488-0.936c8.64-1.944,12.24-2.448,19.656-4.32c3.096-0.504,4.32-1.008,10.08-1.944
		c3.096-0.936,3.096-0.936,12.24-2.88c1.008-0.36,2.0161-0.792,3.096-1.224c1.872-0.288,3.816-0.576,5.76-0.936
		c2.952-0.936,5.904-1.872,8.9279-2.88c0.576-0.432,1.224-0.936,1.872-1.44c0.288-0.072,0.648-0.144,1.008-0.216
		c0.576,0.864,1.224,1.728,1.872,2.592c1.368,1.368,2.736,2.736,4.104,4.104c1.584,1.224,3.168,2.52,4.824,3.816
		c2.16,1.008,2.8799,1.728,13.176,6.48c3.6-0.216,3.6-0.216,15.624,0c2.304,0.144,4.608,0.288,6.912,0.504
		c7.416-0.216,14.832-0.432,22.32-0.72c1.728,0.072,3.528,0.144,5.328,0.216c0.288,0.144,0.576,0.288,0.936,0.504
		c1.584,0.144,3.168,0.288,4.824,0.504c5.328-0.072,10.656-0.144,16.056-0.288c2.16-0.432,2.16-0.432,13.176-0.936
		c6.408,0,12.816,0,19.224,0c4.536,0.432,9.072,0.936,13.68,1.44c7.92,0.36,15.84,0.792,23.76,1.224
		c5.184,0.072,10.368,0.144,15.624,0.216c12.672,1.224,12.672,1.224,17.7119,1.44c9.8641,1.44,9.8641,1.44,11.808,1.944
		c5.976,0.432,8.136,0.936,13.392,1.152c3.96,0.648,7.992,1.296,12.024,1.944c1.08,0.288,2.2321,0.576,3.384,0.936
		c1.656,1.008,1.656,1.008,2.8799,1.44c0.864,0.072,1.7281,0.144,2.5922,0.288c0.36,0.576,0.36,0.576,0.36,2.016
		c-0.6481,1.008-1.296,2.088-1.9441,3.168c-0.6479,0.576-1.2959,1.224-2.016,1.872c-1.08,0.576-2.1599,1.152-3.312,1.8
		c-0.6479,0.792-1.296,1.584-1.944,2.376c-1.584,1.296-3.1681,2.592-4.824,3.888c-1.08,0.576-2.16,1.224-3.312,1.872
		c-1.584,1.296-3.168,2.592-4.824,3.888c-3.384,1.8719-5.976,3.816-7.704,4.752c-1.6559,1.296-3.312,2.592-5.0399,3.888
		c-0.288,0.432-0.576,0.864-0.864,1.2961c-0.576,0.144-1.152,0.36-1.728,0.576c-6.264,3.888-6.264,3.888-14.688,9.648
		c-1.224,0.576-2.52,1.224-3.816,1.872c-1.8,1.368-3.672,2.736-5.544,4.104c-2.88,1.512-5.76,3.096-8.64,4.68
		c-0.072,0.216-0.144,0.432-0.216,0.72c1.512,0,3.024-0.072,4.5359-0.144c2.0161,0.288,4.032,0.648,6.0481,1.008
		c2.736-0.432,5.544-0.936,8.352-1.44c3.672,0,7.3439,0,11.088,0c3.312-0.504,3.312-0.504,4.752-1.008
		c1.4401-0.072,2.88-0.144,4.3201-0.216c9.864,0.936,11.808,1.44,15.8401,1.944c1.512,0,3.0239,0,4.6079,0
		c3.0961,0.288,6.192,0.576,9.36,0.936c3.816-0.216,3.816-0.216,6.696,0c1.944,0.504,1.944,0.504,2.2319,0.864
		c0.072,0.72,0.144,1.44,0.2881,2.16c-0.144,0.432-0.2881,0.936-0.504,1.44c-4.896-0.144-5.4,0.072-14.472-0.144
		c-1.152-0.144-2.376-0.2881-3.6-0.504c-3.168-0.072-6.408-0.144-9.648-0.216c-2.16-0.504-2.16-0.504-10.08-1.224
		c-0.936,0-1.872,0-2.88,0c-2.0161,0.36-4.1041,0.792-6.192,1.224c-3.4561,0-6.912,0-10.368,0
		c-1.872,0.288-3.816,0.576-5.7601,0.936c-1.4399-0.072-2.8799-0.144-4.3199-0.2159c-1.44-0.432-2.88-0.936-4.32-1.44
		c-5.04,0.216-5.04,0.216-8.352,0.72c-1.0081,0.504-1.0081,0.504-10.368,2.16c-6.768,0.144-13.536,0.288-20.376,0.504
		c-3.816-0.2881-7.632-0.648-11.52-1.0081c-13.68-0.2159-18.216,0-18.504-0.2159c-5.256,0.2159-6.192,0.504-28.08,1.44
		c-1.728-0.144-3.456-0.288-5.256-0.504c-0.288-0.144-0.648-0.36-1.008-0.576c-0.072-0.288-0.144-0.576-0.216-0.936
		c-9.072,0.072-12.96,0.36-24.192,0.36c-7.2,0.4319-7.2,0.4319-10.08,0.936c-3.6,0.072-7.2,0.144-10.8,0.216
		c-1.656,0.2881-3.312,0.648-5.04,1.0081c-5.76,0.432-5.76,0.432-6.768,0.72c-4.464-0.288-8.928-0.648-13.392-1.008
		c-0.288,0.288-0.288,0.288-8.64,0.504c-2.736-0.072-5.472-0.144-8.2079-0.216c-0.936-0.144-1.872-0.288-2.88-0.504
		c-14.112,0.216-17.712,0-21.816,0.216c-16.344-0.216-32.904-0.936-33.336-0.72c-0.72,0-1.44,0-2.16,0
		c-0.144-0.144-0.288-0.288-0.504-0.4319c-3.816,0.144-7.632,0.288-11.52,0.4319c-0.504,0.144-1.08,0.2881-1.656,0.504
		c-4.896,0.432-9.792,0.936-14.688,1.44c-16.56,0.216-16.56,0.216-19.872,0.504c-2.448-0.216-4.968-0.432-7.488-0.72
		c-0.432-0.144-0.936-0.288-1.44-0.504c-2.664-0.216-5.4-0.432-8.136-0.72c-6.12,0.144-12.312,0.288-18.504,0.504
		c-0.792,0.144-1.584,0.288-2.376,0.432c-3.24-0.072-6.552-0.144-9.864-0.216c-0.72,0.144-1.44,0.288-2.16,0.504
		c-4.32,0-6.48-0.288-12.96-0.288c-0.72,0.288-0.72,0.288-14.4,0c-1.656,0.504-1.656,0.504-7.92,1.008c-1.872,0-3.816,0-5.76,0
		c-3.312-0.504-3.312-0.504-4.752-1.008c-0.432,0-0.864,0.072-1.368,0.144c-0.144,0.288-0.288,0.648-0.504,1.008
		c-1.656,0.072-3.384,0.144-5.112,0.288c-3.312-0.144-6.696-0.288-10.08-0.432c-2.952,0.144-5.904,0.288-8.856,0.432
		c-1.44,0.504-1.44,0.504-3.6,0.72c-0.72,0.288-1.44,0.648-2.16,1.008c-1.728,0.216-1.728,0.216-6.48-0.288
		c-1.008-0.432-1.008-0.432-1.944-1.44c-0.864-0.072-1.728-0.144-2.664-0.216c-1.512,0.432-3.024,0.936-4.536,1.44
		c-1.512,0-3.024,0-4.536,0c-1.08-0.432-2.232-0.936-3.384-1.44c-0.936-0.072-1.872-0.144-2.88-0.216
		c-1.656,0.936-1.656,0.936-3.816,2.88C8.496,93.672,7.92,93.744,7.344,93.816L7.344,93.816z M77.688,88.272
		c-0.648,0-1.296,0-1.944-0.072c0.072-0.216,0.144-0.432,0.216-0.72c4.824,0.072,4.824,0.072,5.112,0.36
		C79.848,88.272,79.848,88.272,77.688,88.272L77.688,88.272z M165.528,88.272c-3.384-0.4319-3.384-0.4319-3.816-0.792
		c0.936-0.36,0.936-0.36,20.376-1.368c11.016,0.288,11.016,0.288,11.52,0.504c-0.144,0.144-0.288,0.288-0.504,0.504
		c-2.16,0.4319-2.16,0.4319-16.56,1.1519C170.352,88.056,170.352,88.056,165.528,88.272L165.528,88.272z M303.552,87.84
		c-3.672-0.2881-7.344-0.648-11.088-1.0081c-2.448,0.216-4.896,0.432-7.416,0.72c-3.384-0.4319-3.384-0.4319-15.336-1.1519
		c-8.496,0.144-16.992,0.288-25.488,0.4319c-3.672-0.072-7.344-0.144-11.016-0.288c0-0.216,0-0.432,0-0.72
		c5.4-0.288,10.872-0.576,16.344-0.864c3.024-0.288,6.048-0.648,9.072-1.008c6.48,0,6.48,0,11.304-0.432
		c0.432-0.144,0.936-0.288,1.44-0.504c3.672,0,7.344,0,11.016,0c13.464-1.44,15.84-1.44,37.728-3.816
		c2.592-0.504,5.976-0.72,11.0161-1.728c3.816-0.288,7.632-0.576,11.52-0.936c5.544-0.936,5.544-0.936,5.976-1.224
		c8.424-0.936,30.744-2.376,33.408-2.88c8.64-0.936,8.64-0.936,14.616-1.872c1.08-0.2881,2.232-0.648,3.384-1.0081
		c21.6-3.816,21.6-3.816,25.2-4.752c9.072-1.296,18.216-2.592,27.36-3.888c0.864-0.216,1.728-0.432,2.592-0.72
		c11.088-0.936,11.088-0.936,17.784-1.872c1.656-0.504,9.576-1.44,23.04-4.104c0.36,0,0.792,0.072,1.2239,0.144
		c-1.0079,1.08-1.0079,1.08-2.448,2.016c-1.4399,0.504-7.632,1.44-15.8399,3.384c-5.976,0.936-15.3361,2.88-38.592,6.696
		c-2.232,0.648-4.464,1.296-6.768,1.944c-5.976,1.224-11.952,2.52-18,3.816c-7.2,1.08-14.4,2.232-21.6,3.384
		c-2.52,0.144-5.04,0.288-7.632,0.432c-9.648,1.944-14.1841,2.448-17.784,3.384c-1.944,0-3.96,0-5.976,0
		c-2.376,0.432-4.752,0.936-7.2,1.44c-4.104,0.216-7.488,0.72-14.688,1.224c-29.016,3.312-30.96,3.816-35.28,4.32
		c-0.36,0.4319-0.72,0.936-1.152,1.44C304.056,87.84,303.84,87.84,303.552,87.84L303.552,87.84z M100.512,87.552
		c-0.792,0-1.584,0-2.448-0.072c0-0.216,0-0.432,0-0.72c4.536-0.216,9.072-0.432,13.68-0.648c5.328,0.72,5.328,0.72,5.76,1.08
		c-0.072,0.072-0.144,0.216-0.216,0.36C109.584,87.336,109.584,87.336,100.512,87.552L100.512,87.552z M125.424,87.552
		c-0.288-0.072-0.576-0.2159-0.936-0.36c1.224-0.36,1.224-0.36,4.104-0.36c0.216,0.2881,0.216,0.2881,0,0.5041
		C127.584,87.408,126.504,87.48,125.424,87.552L125.424,87.552z M343.368,84.96c-0.792-0.0721-1.584-0.216-2.376-0.36
		c0.792-0.216,1.584-0.432,2.376-0.648c5.112-0.432,10.224-0.936,15.336-1.44c0.648-0.216,1.296-0.432,1.944-0.72
		c4.104-0.216,4.104-0.216,6.696,0c4.104-0.936,10.8-1.872,17.064-3.312c2.52-0.144,5.112-0.288,7.704-0.504
		c14.616-2.376,14.616-2.376,19.44-2.88c26.352-5.76,26.352-5.76,27.576-6.264c22.5359-3.816,22.5359-3.816,29.52-4.752
		c1.152-0.288,2.376-0.648,3.6-1.008c2.232-0.288,4.4641-0.576,6.696-0.936c2.016-0.432,4.0319-0.936,6.048-1.44
		c1.152-0.072,2.376-0.144,3.5999-0.216c-3.672,2.52-7.3439,5.04-11.0879,7.632c-1.296,0.648-2.664,1.296-4.032,1.944
		c-1.728,1.224-3.528,2.52-5.328,3.816c-2.304,1.296-4.6081,2.592-6.9121,3.888c-4.8239,1.872-4.8239,1.872-6.7679,2.376
		c-1.656,0-1.656,0-6.912,0.936c-0.504,0.504-0.504,0.504-2.16,1.008c-2.016-0.072-4.032-0.144-6.048-0.288
		c-1.728,0.288-3.456,0.648-5.256,1.008c-1.656,0.072-3.312,0.144-5.04,0.216c-5.544-0.504-5.544-0.504-16.56-0.936
		c-11.304,0.216-11.304,0.216-27.36,1.152c-1.944,0.216-3.9601,0.432-5.976,0.72c-1.224-0.216-1.224-0.216-5.544-0.216
		c-1.152,0.216-2.376,0.432-3.6,0.72c-5.256-0.216-5.256-0.216-15.624,0.216C352.728,84.96,352.728,84.96,343.368,84.96
		L343.368,84.96z M42.192,78.84c0.072-0.216,0.144-0.432,0.216-0.72c1.8-1.224,3.672-2.448,5.544-3.744
		c3.816-1.656,6.192-3.096,10.8-5.04c1.008-0.648,2.016-1.2961,3.096-1.944c1.512-0.576,3.024-1.224,4.536-1.872
		c6.264-3.888,8.424-4.824,10.08-6.048c0.792-0.288,1.584-0.576,2.448-0.936c6.192-3.816,13.392-7.704,18-10.656
		c0.432-0.432,0.936-0.864,1.44-1.368c7.056-0.576,14.184-1.224,21.312-1.872c5.04,0.432,5.04,0.432,11.304,0.432
		c1.224-0.288,2.52-0.576,3.816-0.936c11.304-0.936,11.304-0.936,43.488-4.32c7.2-0.216,12.96-0.72,13.68-0.504
		c2.232,0.072,4.464,0.144,6.696,0.288c2.52-0.144,5.112-0.288,7.704-0.504c1.944-0.288,3.96-0.576,5.976-0.936
		c3.096-0.144,6.192-0.288,9.36-0.504c6.9839-0.936,6.9839-0.936,21.096-1.944c4.176-0.144,8.352-0.288,12.528-0.432
		c2.88-0.504,9.072-0.72,10.8-1.008c3.096,0,6.192,0,9.36,0c23.256-1.44,23.256-1.44,43.416-2.376
		c37.944-0.936,37.944-0.936,60.264-1.944c4.752,0,9.576,0,14.4,0c8.856,0.504,8.856,0.504,11.952,0.288c3.6,0,7.2,0,10.8,0
		c2.664-0.504,2.664-0.504,7.92-1.008c18.288-0.432,18.288-0.432,19.728-0.72c10.08-0.072,20.16-0.144,30.2401-0.216
		c1.944,0.144,3.96,0.288,5.976,0.504c9.144,0,9.144,0,17.7841,0.432c1.872,0.504,1.872,0.504,4.536,0.504
		c3.024,0.288,6.048,0.576,9.144,0.936c2.9519,0.072,5.904,0.144,8.856,0.288c2.16,0.288,4.3199,0.576,6.48,0.936
		c0,0.288,0,0.576,0.0719,0.864c-0.5759,0.576-1.1519,1.152-1.7279,1.8c-0.6481,0.072-1.296,0.144-1.944,0.216
		c-0.288-0.144-0.576-0.288-0.936-0.504c-16.848-0.432-22.104-0.936-26.424-0.936c-7.128-0.36-14.256-0.7921-21.384-1.224
		c-2.376,0.144-4.752,0.288-7.2,0.504c-3.816-0.144-7.632-0.2881-11.5201-0.504c-8.352,0-16.7759,0-25.2,0
		c-26.856,0.72-26.856,0.72-31.392,0.504c-9.432,0.072-18.864,0.144-28.368,0.2159c-29.016,1.0081-34.056,1.44-49.896,1.7281
		c-1.224-0.288-1.224-0.288-5.76-0.288c-5.976,0.504-5.976,0.504-8.136,1.008c-9.576,0.72-19.152,1.44-28.8,2.16
		c-8.352,0.144-16.776,0.288-25.2,0.432c-11.232,0.648-22.536,1.296-33.84,1.944c-17.784,1.944-17.784,1.944-21.168,2.664
		c-3.816,0-13.896,0.936-21.6,1.152c-1.08-0.072-2.16-0.144-3.312-0.216c-0.936,0.144-1.872,0.288-2.88,0.504
		c-39.888,2.16-39.888,2.16-55.224,3.312C99.072,49.68,99.072,49.68,97.344,49.68c-0.576,0.288-1.224,0.576-1.872,0.936
		C84.888,58.32,84.888,58.32,78.912,62.136c-0.864,0.288-1.728,0.576-2.664,0.936c-1.008,0.648-2.016,1.296-3.096,1.944
		c-4.32,2.088-8.64,4.176-12.96,6.264c-3.168,0.936-3.168,0.936-8.928,3.312c-0.432,0.504-0.432,0.504-4.536,1.944
		c-0.936,0.936-0.936,0.936-2.664,1.944C43.488,78.552,42.84,78.696,42.192,78.84L42.192,78.84z M46.008,72.864
		c0-0.216,0-0.432,0.072-0.72c4.608-3.888,4.608-3.888,9.864-7.704c11.88-7.704,18.36-11.448,23.904-15.264
		c0.792-0.36,1.584-0.792,2.376-1.224c0.864,0,1.728,0,2.664,0c5.04-0.936,5.04-0.936,9.36-1.296c0,0.216-0.072,0.432-0.144,0.72
		c-0.864,0.648-1.728,1.296-2.664,1.944c-6.768,3.672-6.768,3.672-13.032,7.56c-4.752,2.52-9.576,5.04-14.4,7.632
		c-2.664,1.008-5.976,2.88-10.296,4.824c-1.08,0.6479-2.232,1.296-3.384,1.944C48.888,71.784,47.448,72.288,46.008,72.864
		L46.008,72.864z M130.032,42.192c-0.864,0-1.728,0-2.664-0.072c0.072-1.224,0.576-1.944,0.792-2.88
		c-0.144-0.288-0.36-0.576-0.576-0.936c-0.432,0-0.936-0.072-1.44-0.144c-3.6,0.72-3.6,0.72-10.8,1.656
		c-5.04,0.216-10.296,0.936-23.76,1.8c0.072-0.36,0.216-0.72,0.36-1.152c0.936-1.08,1.872-2.232,2.88-3.384
		c14.544-0.864,16.488-0.648,29.88-1.584c13.68,0.216,24.768,0,27.36,0.216c0.504-0.432,0.504-0.432,0.936-1.512
		c1.224-0.36,1.224-0.36,11.592-1.368c35.712-0.72,35.712-0.72,44.352-1.1519c16.56-1.44,16.56-1.44,27.864-1.944
		c3.744,0.072,7.488,0.144,11.304,0.216c5.616-0.144,11.304-0.288,16.992-0.432c7.2-0.576,14.4-1.152,21.6-1.728
		c5.904-0.144,11.808-0.288,17.784-0.432c18.216,0.216,18.216,0.216,22.536,0c0.936,0.144,1.872,0.288,2.88,0.432
		c0.432-0.216,0.936-0.432,1.44-0.72c3.096,0,6.192,0,9.36,0c3.888-0.216,7.848-0.432,11.808-0.72c10.08,0,10.08,0,23.76-0.432
		c4.32-0.504,4.32-0.504,23.256-1.44c26.856,0.72,26.856,0.72,27.36,0.432c11.52-0.216,17.064,0,28.08-0.432
		c8.136,0.36,16.272,0.72,24.48,1.152c3.312-0.144,6.696-0.288,10.08-0.432c3.6,0.432,3.6,0.432,4.8961,0.864
		c0,0.216,0,0.504-0.0721,0.792c-7.9199,0-7.9199,0-9.6479,0.216c-3.096-0.216-6.192-0.432-9.36-0.72
		c-9.936,0.072-19.944,0.144-29.952,0.288c-4.824,0.432-12.744,0.432-24.4799,0.936c-4.608,0.504-4.608,0.504-19.224,0.936
		c-5.688-0.144-11.376-0.288-17.064-0.432c-8.928,0.288-17.856,0.576-26.856,0.936c-4.464,0-8.928,0-13.464,0
		c-51.12,1.944-51.12,1.944-51.336,1.656c-7.416,0.72-7.416,0.72-8.136,1.008c-6.12,0.144-12.312,0.288-18.504,0.432
		c-12.024,1.008-27.864,1.944-32.184,1.944c-25.416,2.376-25.92,2.664-32.4,3.096c-2.664,0-5.4,0-8.136,0
		c-0.216-0.216-0.432-0.432-0.72-0.72c-0.936,0-1.224,0.288-7.704,1.008c-2.592,0.072-5.256,0.144-7.92,0.216
		c-2.592,0.504-2.592,0.504-42.912,3.816C132.408,41.976,132.408,41.976,130.032,42.192L130.032,42.192z M132.408,33.552
		c-0.216,0-0.432,0-0.72-0.072c0-0.216,0-0.432,0-0.72c2.88-0.36,2.88-0.36,6.696-0.36c0.216,0.072,0.432,0.216,0.72,0.36
		c-0.432,0.576-0.432,0.576-1.44,0.792C135.936,33.552,134.208,33.552,132.408,33.552L132.408,33.552z M146.088,32.04
		c0.216-0.36,0.216-0.36,1.944-0.864c1.224-0.072,2.52-0.144,3.816-0.216c10.08-1.944,10.08-1.944,13.176-2.16
		c1.008-0.288,2.088-0.648,3.168-1.008c0.432,0,0.936,0,1.44,0c0.288,0.144,0.576,0.288,0.936,0.504
		c3.816-0.072,7.632-0.144,11.52-0.216c4.824-0.576,9.72-1.152,14.616-1.728c4.968-0.288,9.936-0.576,14.904-0.936
		c0.288,0.216,0.576,0.432,0.936,0.72c4.68,0.144,9.432,0.288,14.184,0.504c12.4561-1.008,12.4561-1.008,17.784-1.728
		c20.592-0.432,20.592-0.432,27.072-0.936c16.128,0,20.16,0.216,25.704,0c2.088-0.288,4.176-0.576,6.264-0.936
		c1.44-0.432,2.88-0.936,4.32-1.44c0.432-0.504,0.432-0.504,1.152-2.448c1.1519-0.144,2.376-0.288,3.6-0.432
		c12.96,0.216,12.96,0.216,29.304,0.936c4.32-0.216,5.544-0.504,9.864-0.504c0.936-0.216,0.936-0.216,11.952,0.504
		c5.472-0.072,11.016-0.144,16.56-0.216c1.08-0.144,2.232-0.288,3.384-0.504c16.344-0.504,16.344-0.504,27.144-0.504
		c13.68,1.224,23.04,1.728,26.136,2.16c2.232,0,4.464,0,6.696,0c4.464,0.288,8.928,0.648,13.464,1.008
		c2.304-0.072,4.608-0.144,6.984-0.288c18.4319,1.44,18.4319,1.44,18.936,1.728c-0.216,0.216-0.216,0.216-4.32,0.432
		c-1.8-0.144-3.6721-0.288-5.544-0.432c-12.6721,0-16.056-0.288-25.632-0.288c-5.328,0.288-24.048,0-24.48,0.288
		c-9-0.072-18.072-0.144-27.144-0.288c-1.008,0.144-2.016,0.288-3.096,0.504c-2.304,0-4.608,0-6.984,0
		c-4.464,0.288-8.928,0.576-13.464,0.936c-19.656,0.288-19.656,0.288-34.056,1.008c-3.024-0.072-6.048-0.144-9.144-0.288
		c-1.944,0.216-3.96,0.432-5.976,0.72c-17.496-0.216-17.496-0.216-31.464,0c-25.416,1.44-25.416,1.44-28.5121,1.944
		c-6.7679,0.504-6.7679,0.504-15.12,0.504c-3.888-0.288-11.304-0.288-13.464,0c-12.96,0.432-13.896,0.72-21.096,1.152
		c-3.096,0.288-6.192,0.648-9.36,1.008c-5.976,0.072-11.952,0.144-18,0.216c-0.144-0.144-0.288-0.288-0.504-0.504
		c-0.432-0.072-0.936-0.144-1.44-0.216C173.448,30.672,148.752,32.112,146.088,32.04L146.088,32.04z M522.144,29.232
		c-10.8-0.432-10.8-0.432-11.52-0.72c-3.6-0.216-7.2-0.504-10.8-0.792c0.072-0.792,0.144-1.584,0.288-2.376
		c3.6,0.216,7.2,0.504,10.8,0.792c12.672,2.376,12.672,2.376,13.176,2.736c-0.072,0.072-0.1439,0.216-0.2159,0.36
		C523.296,29.232,522.72,29.232,522.144,29.232L522.144,29.232z M255.312,22.68c0-0.216,0-0.432,0-0.72
		c12.96-0.864,12.96-0.864,16.272-0.72c-0.072,0.072-0.144,0.216-0.216,0.36c-2.88,0.288-5.76,0.576-8.64,0.936
		C260.28,22.536,257.832,22.608,255.312,22.68L255.312,22.68z M287.928,21.6c-0.504-0.072-1.08-0.216-1.656-0.36
		c0.72-0.36,0.72-0.36,8.352-0.864c3.6-0.936,3.6-0.936,5.76-1.944c0.36-0.36,0.792-0.72,1.224-1.08c0.648,0,1.296,0,1.944-0.072
		c0.72,0.432,1.44,0.864,2.232,1.296c-0.072,0.288-0.144,0.648-0.216,1.008c-0.504,0.216-1.008,0.504-1.584,0.792
		c-1.728,0.36-3.456,0.792-5.256,1.224C295.1281,21.6,291.528,21.6,287.928,21.6L287.928,21.6z"/>
</g>
</svg>
