<?xml version="1.0" encoding="utf-8"?>
<!-- Generator: Adobe Illustrator 21.1.0, SVG Export Plug-In . SVG Version: 6.00 Build 0)  -->
<svg version="1.1" id="D" xmlns="http://www.w3.org/2000/svg" xmlns:xlink="http://www.w3.org/1999/xlink" x="0px" y="0px"
	 viewBox="0 0 490.1377 326.1703" enable-background="new 0 0 490.1377 326.1703" xml:space="preserve">
<g>
	<path fill-rule="evenodd" clip-rule="evenodd" stroke="#000000" stroke-width="0.4998" stroke-miterlimit="2.6131" d="
		M417.9946,325.9144c-1.656-0.936-4.104-1.656-5.256-2.304c-0.216-0.288-0.504-0.576-0.792-0.936
		c-1.512-0.504-3.024-1.008-4.536-1.584c-1.08-0.144-2.16-0.288-3.312-0.432c-4.104-1.944-4.104-1.944-5.544-2.88
		c-0.648-0.144-1.296-0.288-1.944-0.504c-2.88-1.944-2.88-1.944-4.752-2.88c-3.168-0.936-3.168-0.936-4.104-1.44
		c-2.16-0.288-4.32-0.576-6.48-0.936c-4.824-1.44-4.824-1.44-5.544-1.944c-13.896-5.256-18.432-6.696-18.936-7.2
		c-1.728-0.792-3.456-1.584-5.256-2.376c-1.224-1.008-3.168-1.944-4.824-3.168c-1.44-0.792-2.88-1.584-4.32-2.376
		c-1.152-0.864-2.376-1.728-3.6-2.664c-1.656-0.576-3.312-1.224-5.0399-1.872c-2.304-0.144-4.608-0.288-6.984-0.504
		c-1.08-0.288-2.16-0.576-3.312-0.936c-2.448,0-2.448,0-6.768-0.504c-0.72-0.504-2.16-0.936-3.6-1.944
		c-0.2881-0.288-0.576-0.648-0.864-1.008c-0.072-0.432-0.144-0.864-0.288-1.368c-0.576-0.2881-1.152-0.576-1.728-0.936
		c-0.576,0-1.224,0-1.872,0c-0.432-0.216-0.936-0.432-1.44-0.72c-0.648,0.072-1.296,0.144-1.944,0.216
		c-3.6-0.504-3.6-0.504-6.4799-0.504c-0.216,0.288-0.216,0.288-9.144,1.224c-13.176,0-13.176,0-16.56-0.216
		c-0.432-0.072-0.864-0.216-1.296-0.36c0-0.216-0.072-0.432-0.144-0.72c-4.608-1.512-9.216-3.0959-13.896-4.68
		c-0.432-0.288-0.936-0.648-1.44-1.008c-4.104-0.936-4.104-0.936-8.136-1.44c-1.296,0-2.592,0-3.888,0
		c-2.16-0.288-4.32-0.576-6.48-0.936c-2.736-0.936-5.544-1.872-8.3521-2.88c-0.72-0.072-1.44-0.144-2.16-0.216
		c-2.16-0.792-4.32-1.584-6.48-2.448c-0.648,0-1.296,0-1.944,0c-1.656,1.008-1.656,1.008-4.32,1.872c0,0.288,0,0.576,0.072,0.936
		c0.36,0.36,0.792,0.792,1.224,1.224c1.944,0.864,3.888,1.8,5.904,2.736c0,0.36,0,0.72,0.072,1.08
		c-0.216,0.144-0.504,0.288-0.792,0.504c-0.504-0.288-1.08-0.576-1.656-0.864c-0.36,0-0.792,0-1.224,0.072
		c-0.144,0.216-0.288,0.432-0.504,0.648c-0.576,0.072-1.224,0.216-1.872,0.36c0.144,0.36,0.288,0.72,0.432,1.08
		c0.36,0.144,0.792,0.288,1.224,0.432c0.504,0.72,0.504,0.72,2.376,1.728c1.008,0.144,2.088,0.288,3.168,0.432
		c0,0.36,0,0.72,0.072,1.152c-0.216,0.216-0.504,0.504-0.792,0.792c-5.04-0.72-5.04-0.72-6.984-1.296
		c0.216,0.648,0.504,1.296,0.792,1.944c1.08,0.7921,2.232,1.584,3.384,2.376c0.288,0.432,0.576,0.936,0.936,1.44
		c0,1.224,0,1.224-0.288,1.512c-2.304-0.144-4.608-0.288-6.984-0.432c-5.04,0.72-5.04,0.72-5.4,1.08c0,0.288,0,0.576,0,0.936
		c0.36,0.288,0.72,0.648,1.152,1.008c0.36,0.072,0.72,0.144,1.152,0.288c0.936,1.008,0.936,1.008,1.872,1.584
		c0.0721,0.288,0.216,0.6479,0.36,1.008c1.296,0.072,2.592,0.144,3.96,0.288c0.36,0.432,0.36,0.432,0.576,1.368
		c0.72,0.432,1.512,0.864,2.304,1.296c0,0.432,0.072,0.864,0.144,1.368c-1.08,0.792-1.08,0.792-2.304,1.008
		c-0.72-0.216-5.976-0.216-7.632-0.432c-1.728-1.008-1.728-1.008-3.384-2.664c-1.944-0.072-3.96-0.144-5.976-0.216
		c-3.168-1.008-3.168-1.008-3.6-1.44c-3.6,0.216-3.6,0.216-4.608,0.576c0,0.216,0,0.4319,0,0.72c4.32,1.8,4.32,1.8,7.92,3.744
		c0.36,0.288,0.792,0.576,1.224,0.936c3.6,0.936,4.104,1.296,5.544,1.656c0.792,1.152,0.792,1.152,1.368,3.312
		c3.384,1.296,3.384,1.296,3.744,1.656c0,0.72,0,0.72-0.504,1.224c-2.016,0.288-2.016,0.288-4.392,1.152
		c-0.432,0.288-0.936,0.576-1.44,0.864c-2.592,0.216-5.256,0.432-7.92,0.72c-1.008,0.432-2.016,0.936-3.096,1.44
		c-0.864,0.072-1.728,0.216-2.664,0.36c0,0.216,0,0.432,0,0.72c4.104,0.792,4.104,0.792,12.024,1.8
		c9.792,0.432,9.792,0.432,13.896,0.936c1.8,0.432,3.672,0.936,5.544,1.44c0.864,0,1.728,0,2.592,0
		c5.328,0.936,5.76,1.224,10.08,1.656c2.448,0,4.968,0,7.488,0c2.016,0.216,4.104,0.432,6.192,0.648c3.24,0,6.552-0.072,9.864-0.144
		c0.72-0.144,1.44-0.36,2.16-0.576c0-0.288,0-0.576,0-0.936c-0.36-0.072-0.72-0.144-1.08-0.288c0-0.216-0.072-0.432-0.144-0.72
		c0.864-0.288,1.728-0.576,2.664-0.864c2.1599,0,4.3199,0,6.4799,0c2.5201,0.432,5.112,0.936,7.704,1.44
		c2.304,0.216,4.608,0.432,6.912,0.72c0.144,0.144,0.288,0.288,0.504,0.504c1.944,0.288,3.9601,0.576,5.976,0.936
		c1.8,0,3.672,0,5.544,0c0.216,0.216,0.432,0.432,0.72,0.648c-0.36,0.216-0.792,0.504-1.224,0.792
		c-6.912-0.216-6.912-0.216-18.216-1.152c-0.504-0.288-0.504-0.288-5.976-0.504c-2.952,0.144-5.904,0.288-8.928,0.504
		c-0.36,0.144-0.72,0.288-1.152,0.432c-2.376,0.144-4.752,0.288-7.2,0.504c-2.736-0.072-5.472-0.216-8.208-0.36
		c0,0.216,0.072,0.432,0.144,0.72c0.72,0.504,0.72,0.504,2.736,1.224c0,0.216,0,0.504,0,0.792c-1.224-0.072-2.52-0.144-3.8159-0.216
		c-0.144-0.216-0.288-0.432-0.504-0.72c-3.312-0.72-17.496-2.376-23.04-3.384c-0.864-0.216-1.728-0.432-2.592-0.72
		c-1.872-0.144-3.816-0.288-5.76-0.432c-0.504-0.648-0.504-0.648-1.224-1.008c-9.144,0-9.576,0.288-12.024,0
		c-0.36,0.288-0.72,0.648-1.152,1.008c-0.36,0-0.792,0-1.224,0c-0.72-0.36-1.44-0.792-2.16-1.224
		c-0.936-0.072-1.872-0.216-2.88-0.36c-0.144-0.36-0.288-0.72-0.504-1.152c-3.6-0.432-5.976-1.152-9.072-1.368
		c-0.432-0.576-0.432-0.576-0.432-1.296c0.504-0.288,1.008-0.576,1.584-0.864c4.824-0.936,5.76-1.44,10.08-2.376
		c0.36-0.432,0.792-0.936,1.224-1.44c1.152,0.144,2.376,0.288,3.6,0.432c1.584-0.144,3.168-0.288,4.824-0.432
		c0.72-0.504,1.656-0.72,2.16-1.368c-0.072-1.08-0.144-2.16-0.288-3.312c-5.256-1.8-5.256-1.8-7.632-2.304
		c-3.888-1.944-4.32-2.52-5.328-3.096c-1.008-0.144-2.016-0.288-3.096-0.504c-0.36-0.36-0.792-0.792-1.224-1.224
		c-1.008,0-2.016,0-3.096,0c0-0.288-0.072-0.648-0.144-1.008c0.648-0.432,0.648-0.432,9.72-2.808
		c1.008,0.072,2.088,0.144,3.168,0.216c2.376,1.008,2.376,1.008,3.312,1.008c0.72-0.504,0.72-0.504,2.16-0.72
		c1.152,0.144,2.376,0.288,3.6,0.432c0.072-0.072,0.144-0.216,0.288-0.36c-0.144-0.216-0.288-0.432-0.504-0.72
		c-0.576-0.144-1.152-0.288-1.8-0.432c-0.072-1.008-0.144-2.016-0.288-3.096c0.648-0.648,1.368-1.368,2.088-2.088
		c1.44-0.072,2.88-0.144,4.3199-0.216c0.216-0.144,0.432-0.288,0.72-0.504c1.0081-0.0721,2.0161-0.144,3.096-0.216
		c0.144-0.216,0.288-0.432,0.504-0.648c-0.72-0.864-1.44-1.8-2.16-2.736c-1.44-0.936-1.44-0.936-5.688-2.736c0-0.432,0-0.936,0-1.44
		c0.36-0.216,0.792-0.432,1.224-0.72c0.144-0.72,0.288-1.44,0.504-2.16c0.144-0.0721,0.36-0.216,0.576-0.36c1.008,0,2.088,0,3.168,0
		c0-0.792,0-1.656,0.0721-2.52c-0.144-0.216-0.36-0.432-0.576-0.648c-1.944-0.432-2.16-0.72-5.256-1.152
		c-0.576-0.144-1.152-0.36-1.728-0.576c0-0.36-0.072-0.792-0.144-1.224c0.144-0.072,0.288-0.216,0.432-0.36c1.44,0,2.88,0,4.32,0
		c0.432-0.216,0.936-0.432,1.44-0.648c-0.504-0.36-3.168-0.792-3.528-1.152c0-0.288,0-0.576,0-0.936
		c0.432-0.36,0.864-0.792,1.296-1.224c1.008,0.36,1.008,0.36,6.048,1.08c0.072-0.288,0.144-0.576,0.216-0.864
		c-0.432-0.072-0.936-0.216-1.44-0.36c-1.08-0.648-2.16-1.296-3.312-2.016c-0.288-0.576-0.648-1.152-1.008-1.728
		c-2.16-1.368-4.392-2.808-6.624-4.248c0-0.36,0-0.792,0-1.224c0.144-0.072,0.288-0.216,0.432-0.36
		c0.504,0.072,1.08,0.144,1.656,0.216c0.216,0.216,0.432,0.432,0.72,0.72c0.288,0,0.576,0.072,0.936,0.144
		c-0.072-0.504-0.216-1.08-0.36-1.656c-0.432-0.36-0.936-0.792-1.44-1.224c-0.072-0.792-0.144-1.584-0.216-2.376
		c-0.6479-0.936-1.296-1.872-1.944-2.88c-0.648-0.432-1.296-0.936-1.944-1.44c-0.432-1.224-0.432-1.224-0.792-1.584
		c-1.152-0.288-2.376-0.648-3.6-1.008c-0.36-0.216-0.792-0.504-1.224-0.792c-0.36-0.72-0.72-1.44-1.08-2.16
		c-1.584-1.368-3.168-2.7361-4.824-4.104c-0.072-0.504-0.144-1.08-0.216-1.656c-2.88-1.944-3.816-2.88-5.616-3.816
		c-1.08-1.224-1.08-1.224-2.088-3.384c-1.44-0.936-2.88-1.872-4.32-2.8799c-0.216-0.648-0.432-1.2961-0.72-1.944
		c0-0.432,0-0.936,0-1.44c0.288-0.144,0.576-0.2881,0.864-0.432c0.36,0.072,0.792,0.144,1.224,0.288
		c0.432,0.936,0.864,1.872,1.296,2.808c0.792,0.432,1.656,0.864,2.52,1.296c0.288,0.36,0.648,0.72,1.008,1.08
		c0.216,0.648,0.504,1.296,0.792,1.944c0.36,0.36,0.72,0.792,1.08,1.224c1.872,1.224,3.744,2.5201,5.616,3.816
		c0.36,0.864,0.72,1.728,1.08,2.664c1.368,1.224,2.808,2.52,4.248,3.816c0.288,0.576,0.576,1.152,0.864,1.8
		c2.016,0.504,4.104,1.08,6.192,1.656c0.36,0,0.792,0,1.224-0.072c0,0.72-0.072,1.44-0.144,2.16
		c3.744,1.728,3.744,1.728,4.968,2.7361c0.072,0.36,0.144,0.72,0.288,1.08c2.304,1.296,3.528,1.512,6.192,2.952
		c0.432,0.648,0.864,1.368,1.296,2.088c3.456,1.296,3.456,1.296,3.96,1.8c0.864,0.432,1.728,0.936,2.664,1.44
		c0.72,0.72,1.44,1.44,2.16,2.232c3.168,1.368,6.336,2.736,9.576,4.104c0.936,1.08,2.376,2.016,4.536,3.9601
		c1.152,0.504,2.376,1.008,3.6,1.584c0.144,1.224,0.144,1.224-0.216,2.376c2.304,0.072,4.608,0.216,6.9839,0.36
		c1.656,0.504,1.656,0.504,4.752,0.936c2.664,1.008,2.664,1.008,4.32,1.944c3.384,0.936,4.104,1.44,7.92,2.376
		c0.504,0.504,0.504,0.504,3.6,1.44c4.824,0.72,7.704,0.72,9.36,1.008c2.448-0.072,4.968-0.144,7.488-0.288
		c0.216-0.36,0.216-0.36,0-0.72c-4.608-1.872-6.048-2.88-14.688-6.48c-1.872-0.576-3.816-1.224-5.76-1.872
		c-0.936-1.008-0.936-1.008-3.096-2.448c-2.376-0.936-2.8799-1.44-4.3199-1.872c-3.384-1.944-5.544-2.88-10.296-5.904
		c-6.7679-3.456-7.2-3.96-9.36-4.896c-6.984-3.888-6.984-3.888-11.52-6.768c-2.16-0.9359-4.32-1.8719-6.48-2.88
		c-11.808-6.696-12.24-7.2-19.008-10.8c-2.016-1.296-4.104-2.664-6.192-4.032c-3.456-1.872-6.912-3.816-10.368-5.76
		c-0.864-0.648-1.728-1.296-2.592-1.944c-7.92-3.816-8.424-4.32-9.648-4.824c-2.376-1.872-3.6-2.376-15.336-10.8
		c-0.72-0.288-1.44-0.576-2.16-0.936c-13.176-8.64-14.184-9.576-17.28-11.52c-1.512-1.368-3.024-2.7361-4.536-4.104
		c-2.16-1.296-4.32-2.664-6.48-4.032c-2.52-1.872-5.112-3.816-7.704-5.76c-1.08-0.648-2.232-1.296-3.384-1.944
		c-2.592-2.16-7.92-5.976-18-14.4c-0.432-0.288-0.936-0.576-1.44-0.936c-3.456-3.384-6.984-6.7679-10.512-10.224
		c-2.664-2.016-2.664-2.016-6.048-5.4c-0.288-0.432-0.576-0.936-0.936-1.44c-1.44-1.224-2.88-2.52-4.32-3.816
		c-1.368-1.44-2.736-2.952-4.104-4.464c-8.856-8.064-8.856-8.064-11.232-9.936c-4.104-4.3199-11.808-13.464-13.968-15.624
		c-0.576-1.224-1.152-2.448-1.8-3.672c-3.816-5.328-3.816-5.328-5.76-7.488c-0.648-1.08-1.296-2.16-2.016-3.312
		c-1.08-1.152-2.16-2.376-3.24-3.6c-3.888-6.768-3.888-6.768-4.824-7.92c-0.144-0.936-0.288-1.872-0.504-2.88
		c-3.816-8.2079-3.816-8.2079-5.04-11.52c-0.288-1.728-0.576-3.528-0.936-5.328c-4.824-7.632-4.824-7.632-5.76-9.792
		c-0.288-1.008-0.576-2.088-0.936-3.168c-1.224-0.936-1.224-0.936-2.16-2.376c-2.52-1.512-5.04-3.096-7.56-4.6801
		c-1.512-1.8-3.024-3.672-4.536-5.544c-0.36,0-0.792,0-1.224-0.072c0-1.872-0.072-3.816-0.144-5.76
		c0.504-3.168,0.504-3.168,0.936-3.888c0.504-0.288,1.008-0.576,1.584-0.936c0.936,0,1.872-0.072,2.88-0.1441
		c2.016,0.6481,4.032,1.296,6.048,1.9441c5.256,2.376,5.256,2.376,6.48,2.592c0-0.288,0-0.648,0.072-1.008
		c-2.88-6.984-3.384-7.488-3.816-8.928c-3.384-6.696-6.768-12.24-7.2-13.6801c-0.648-1.152-1.296-2.376-1.944-3.6
		c-1.44-1.224-2.88-2.52-4.32-3.816c0-0.72,0-1.44,0-2.16c0.36-0.4319,0.72-0.936,1.08-1.44c0.576-0.36,1.152-0.72,1.728-1.08
		c1.224,0.144,2.52,0.288,3.816,0.432c3.096,1.944,3.096,1.944,10.584,5.7599c4.536,1.944,7.632,2.88,9.792,3.888
		c5.76,1.44,11.52,2.88,17.28,4.32c4.824,0.432,5.328,0.72,20.88,2.592c4.032,0.6481,8.136,1.296,12.24,1.944
		c3.168,0.936,28.584,5.976,28.8,6.264c3.888,0.4319,7.92,1.44,12.24,1.8719c4.392,0.936,8.784,1.872,13.248,2.88
		c0.72,0.504,5.04,1.44,5.976,1.944c10.584,2.88,12.96,3.816,20.376,5.76c6.192,1.872,12.456,3.8159,18.72,5.76
		c2.52,1.08,5.112,2.232,7.704,3.3839c4.248,1.2961,8.496,2.6641,12.744,4.032c8.64,3.888,16.056,7.704,24.912,11.52
		c4.8239,2.448,4.8239,2.448,13.464,6.264c2.88,0.936,4.824,1.944,7.704,2.8799c6.192,2.8801,6.192,2.8801,8.64,4.3201
		c2.592,0.504,2.592,0.504,4.752,0.504c2.16-0.288,4.32-0.648,6.48-1.008c2.808-0.072,5.616-0.144,8.424-0.216
		c2.952,0.432,5.904,0.936,8.856,1.44c4.104,1.944,11.088,5.76,13.464,6.696c1.224,1.008,3.384,1.944,9.144,5.76
		c0.432,0.504,1.656,1.008,2.376,1.944c1.224,0.504,2.88,1.944,9.864,5.76c17.28,11.52,17.28,11.52,17.712,12.024
		c1.08,0.576,2.232,1.224,3.384,1.872c10.584,8.64,10.584,8.64,11.0161,9.36c2.088-0.72,4.176-1.44,6.264-2.16
		c1.944-0.216,1.944-0.216,5.04-1.152c1.368-0.72,2.736-1.512,4.176-2.304c0.936-2.376,0.936-2.376,1.44-5.256
		c0.648-1.224,1.296-2.52,1.944-3.816c0.648-0.432,1.2961-0.864,2.016-1.368c4.824,0,4.824,0,5.04,0.216
		c1.008,0.144,2.088,0.288,3.168,0.504c2.16-0.216,2.16-0.216,3.816,0c1.224,0.504,5.04,0.936,5.544,1.224c0.576,0,1.224,0,1.872,0
		c1.224-0.504,1.224-0.504,3.888-0.72c0.216-0.504,0.504-1.008,0.7921-1.584c0.6479-3.384,1.296-6.84,1.944-10.296
		c0.936-2.88,0.936-2.88,1.584-6.696c-0.432-0.288-0.936-0.576-1.44-0.864c-0.432-1.08-0.432-1.08-0.6479-2.736
		c0.36-0.504,0.36-0.504,1.8-1.152c1.944-0.432,1.944-0.432,2.88-0.288c0.432,0.504,0.864,1.08,1.296,1.656
		c-0.072,0.504-0.144,1.08-0.216,1.656c-1.656,2.16-1.656,2.16-2.16,3.384c-1.944,12.456-1.944,12.456-2.376,13.896
		c0,1.08,0,2.232,0.072,3.384c1.008,0.072,2.016,0.144,3.024,0.216c0,0.216,0.072,0.432,0.144,0.72
		c0.792,0.072,1.584,0.216,2.376,0.36c0.792,0.36,1.584,0.792,2.448,1.224c4.32,0.936,4.32,0.936,5.472,1.44
		c0.648,0.7921,1.296,1.656,1.944,2.5201c-0.072,0.36-0.216,0.792-0.36,1.224c-1.44,1.656-1.44,1.656-6.336,5.616
		c-1.2961,0.576-2.592,1.224-3.888,1.872c-5.04,3.384-5.976,4.32-9.36,6.264c-0.864,0.648-1.728,1.296-2.592,1.944
		c-6.984,3.816-6.984,3.816-13.464,7.92c-0.504,0.72-0.504,0.72-2.376,2.16c-1.008,0.576-2.016,1.152-3.024,1.8
		c0.072,0.36,0.144,0.792,0.216,1.224c0.936,1.008,1.872,2.016,2.88,3.096c0.144,0.432,0.288,0.936,0.504,1.44
		c1.296,1.584,2.664,3.168,4.032,4.824c1.296,1.872,2.592,3.816,3.888,5.76c1.152,0.936,4.176,2.2321,5.4,3.168
		c3.0959,1.008,16.056,6.768,17.064,6.984c0.072-0.072,0.144-0.216,0.216-0.36c-0.288-0.432-0.576-0.864-0.936-1.2961
		c-3.384-1.44-3.384-1.44-3.744-1.8c0-0.36,0.072-0.792,0.144-1.224c0.576-0.144,1.224-0.36,1.872-0.576
		c0.432,0,0.936,0.072,1.44,0.144c0.144,0.432,0.288,0.864,0.504,1.296c0.6479,0.432,1.296,0.936,1.944,1.44
		c0.936,0,0.936,0,1.296-0.36c0.144-0.36,0.288-0.792,0.432-1.224c1.008-0.072,2.016-0.216,3.024-0.36
		c0.72-0.504,0.72-0.504,1.224-1.296c-0.072-0.144-0.216-0.288-0.36-0.504c0-0.504,0.072-1.008,0.144-1.584
		c0.504-0.072,1.008-0.144,1.512-0.288c0.072-0.432,0.216-0.936,0.36-1.44c0.144-0.072,0.288-0.144,0.504-0.288
		c0.72,0.36,0.72,0.36,1.512,0.288c0.504-2.664,0.504-2.664,0.864-3.024c0.288,0.072,0.648,0.144,1.008,0.216
		c0.216,0.36,0.432,0.792,0.72,1.224c0.216,0,0.504-0.072,0.792-0.144c0.072-0.792,0.216-1.656,0.36-2.52
		c0.36,0.072,0.792,0.144,1.224,0.216c0.288,0.432,0.576,0.936,0.936,1.44c0.288,0.072,0.648,0.144,1.008,0.288
		c0.36-0.576,0.72-1.152,1.152-1.728c0.216,0,0.432,0,0.72,0c0.216,0.36,0.432,0.792,0.72,1.224c1.224-0.216,1.224-0.216,1.944,0
		c0.072,0.36,0.216,0.72,0.36,1.08c1.224,1.008,2.448,2.088,3.672,3.168c0.432,0.216,0.936,0.432,1.44,0.72
		c0.216-0.144,0.504-0.288,0.792-0.432c1.008,0,2.016,0,3.096,0c0.72,0.288,1.44,0.648,2.16,1.008
		c2.376,0.432,2.376,0.432,2.664,0.792c-0.216,0.216-0.504,0.504-0.792,0.792c0,0.36,0.072,0.72,0.144,1.152
		c0.288,0.36,0.576,0.792,0.936,1.224c0.4319,0.216,0.864,0.504,1.368,0.792c3.744,1.08,7.488,2.232,11.304,3.384
		c1.44,0.144,2.88,0.288,4.32,0.504c1.584,0.576,3.168,1.224,4.752,1.872c0.936,0.648,1.872,1.296,2.88,1.944
		c0.72,0.144,1.44,0.288,2.16,0.504c0.36,0.36,0.792,0.72,1.224,1.152c2.6639,1.008,6.2639,1.944,10.8,3.888
		c0.936,0.144,1.872,0.288,2.88,0.432c0.288,0.36,0.576,0.792,0.936,1.224c0.864,0.144,1.728,0.288,2.664,0.504
		c1.008,0.72,2.016,1.44,3.096,2.232c0.072,0.288,0.1439,0.648,0.288,1.008c-1.008,0.072-1.224,0.36-3.8879,0.72
		c0.2159,0.216,0.4319,0.432,0.72,0.72c-0.432,0.216-0.936,0.432-1.44,0.72c-0.36-0.936-0.36-0.936-0.936-1.368
		c-3.384-0.432-3.384-0.432-4.32-0.936c-0.72,0-1.44,0.072-2.1601,0.144c0.0721,0.144,0.1441,0.288,0.2161,0.432
		c-0.2161,0-0.432,0.072-0.72,0.144c-0.504-0.36-1.08-0.792-1.656-1.224c-0.792,0-1.584,0.072-2.376,0.144
		c-0.072,0.504-0.144,1.008-0.288,1.584c-0.288,0-0.5759,0-0.936,0c-0.4319-0.576-0.9359-1.152-1.4399-1.8
		c-0.072-0.72-0.2159-1.44-0.36-2.16c-1.8-0.864-1.8-0.864-5.4-1.8c-3.0961-2.16-3.0961-2.16-4.32-2.664
		c-0.36-0.36-0.792-0.7921-1.224-1.224c-0.144-1.0081-0.144-1.0081,0.36-2.448c0.72-0.72,0.72-0.72,0.72-1.224
		c-2.016-0.864-2.016-0.864-3.96-1.224c-0.072,0.36-0.144,0.72-0.216,1.08c-0.864-0.288-1.728-0.576-2.664-0.936
		c-1.08,0-2.16,0.072-3.24,0.144c-0.072-0.576-0.144-1.152-0.216-1.728c-0.576-0.288-1.152-0.576-1.8-0.864
		c-2.52-0.576-5.112-1.224-7.704-1.872c-0.792-0.72-1.584-1.44-2.376-2.16c-7.416-2.88-7.416-2.88-9.144-3.888
		c-0.504-0.576-1.08-1.224-1.656-1.872c-1.224,0-1.44,0.216-3.384,0c-2.376-1.008-2.376-1.008-3.816-1.224
		c-0.792,0.576-1.656,1.1519-2.52,1.8c-0.144,0.432-0.288,0.936-0.504,1.44c0.072,0.792,0.144,1.584,0.216,2.448
		c0.36,0.216,0.72,0.432,1.08,0.72c0,0.288,0.072,0.576,0.144,0.936c-0.072,0.072-0.216,0.144-0.36,0.216
		c-0.576-0.432-1.224-0.864-1.872-1.2961c-0.288,0-0.648,0-1.008,0.072c-0.432,0.576-0.936,1.152-1.44,1.8
		c-0.36,0.072-0.72,0.144-1.152,0.288c-0.144,0.216-0.288,0.432-0.504,0.72c-0.432,0.144-0.936,0.288-1.44,0.432
		c-0.288,0.288-0.576,0.648-0.936,1.008c-0.216,0-0.432-0.072-0.648-0.144c-0.072-0.2881-0.216-0.576-0.36-0.864
		c-4.032,0.504-4.032,0.504-4.32,0.864c1.44,1.08,3.6,2.016,5.0399,3.024c4.248,1.872,8.496,3.816,12.744,5.76
		c6.4799,2.376,6.984,2.88,9.864,3.816c3.096,1.944,3.096,1.944,5.112,3.744c0.504,1.224,1.656,2.376,3.096,5.544
		c0.504,0.432,1.44,3.096,2.448,4.752c0.144,0.432,0.288,0.936,0.432,1.44c1.152,0.576,1.152,0.576,1.44,1.008
		c0.144,0.864,0.288,1.728,0.504,2.592c0.648,1.008,1.296,2.088,1.944,3.168c0.144,0.72,0.288,1.44,0.432,2.16
		c3.384,8.136,5.3279,11.736,7.2,16.776c0.288,0.216,2.664,9.576,3.168,10.584c0.936,0.576,1.872,1.224,2.88,1.872
		c0.432,1.008,0.936,1.44,2.376,4.104c0,1.584,0,3.168,0,4.824c-0.288,0.36-0.576,0.72-0.936,1.152
		c-0.648,1.584-1.296,3.168-1.944,4.824c-2.232,2.808-4.464,5.616-6.696,8.424c-0.7919,0.576-1.6559,1.152-2.5199,1.728
		c-1.44,1.44-2.88,2.88-4.32,4.32c-1.368,1.728-2.7361,3.528-4.104,5.328c-2.16,2.016-4.752,5.256-8.352,8.64
		c-1.008,0.432-1.008,0.432-3.384,2.52c-0.648,0.792-1.296,1.656-1.944,2.52c-2.232,2.232-4.464,4.464-6.696,6.696
		c-0.432,0.144-0.936,0.288-1.44,0.504c-1.944,2.16-1.944,2.16-9.864,9.072c-1.872,1.008-1.872,1.008-4.32,2.88
		c-1.44,1.368-2.88,2.736-4.32,4.104c-0.864,0.288-1.728,0.576-2.592,0.936c-1.224,1.008-1.224,1.008-8.928,4.968
		c0,0.288-0.072,0.576-0.144,0.936c0.4319,0.36,3.528,0.864,4.464,1.296c0.36,0.36,0.792,0.792,1.224,1.224
		c2.376,0.504,2.88,0.936,4.32,1.44c0.792,0.432,1.584,0.936,2.376,1.44c1.728,0.288,3.528,0.576,5.328,0.936
		c2.16,1.08,4.32,2.232,6.48,3.384c2.16,0.504,2.16,0.504,4.032,1.44c0.144,0.144,0.288,0.288,0.504,0.504c0,0.36,0,0.72,0.072,1.08
		C418.7866,325.8424,418.7866,325.8424,417.9946,325.9144L417.9946,325.9144z M434.3386,318.2104
		c-2.808-0.576-5.616-1.224-8.424-1.872c-0.4319-0.288-0.936-0.648-1.4399-1.008c-3.6-0.72-3.6-0.72-5.184-0.792
		c-0.504-0.936-0.504-0.936-1.224-1.44c0-0.216,0.072-0.432,0.144-0.648c0.288,0,0.648,0,1.008,0
		c0.144,0.144,0.288,0.288,0.432,0.504c2.088,0.432,4.176,0.936,6.2639,1.44c0.144,0.144,0.288,0.288,0.504,0.504
		c2.952,0.576,5.904,1.224,8.856,1.872c0.072,0.288,0.216,0.576,0.36,0.864C434.5546,318.3544,434.5546,318.3544,434.3386,318.2104
		L434.3386,318.2104z M466.7386,313.4584c-0.216-0.144-0.4321-0.288-0.72-0.504c-2.304-0.288-4.608-0.576-6.984-0.936
		c-1.08-0.648-2.232-1.296-3.384-1.944c-1.2239-0.288-2.52-0.576-3.816-0.936c-1.008-0.4319-2.016-0.936-3.096-1.44
		c-2.448-0.504-2.448-0.504-4.3199-1.4399c-0.3601-0.288-0.7921-0.648-1.2241-1.008c-0.936-0.144-1.872-0.288-2.8799-0.432
		c-1.656-1.0081-1.656-1.0081-5.76-2.52c-0.648-0.504-1.296-1.008-1.944-1.584c-0.504-0.144-1.08-0.288-1.656-0.504
		c0-0.288,0-0.648,0-1.008c0.216,0.216,0.432,0.432,0.72,0.72c0.504,0,1.08-0.072,1.656-0.144c3.168,1.872,3.168,1.872,3.6,2.52
		c6.48,2.16,6.48,2.16,6.984,2.52c1.224,0,1.224,0,6.696,1.656c2.16,0.936,5.544,1.944,10.584,4.32
		c1.368,0.144,2.736,0.288,4.104,0.504c2.376,0.936,2.376,0.936,2.592,1.296C467.4586,313.1704,467.4586,313.1704,466.7386,313.4584
		L466.7386,313.4584z M416.0506,312.4504c-1.008-0.216-2.016-0.504-3.096-0.792c-0.216-0.216-0.432-0.432-0.72-0.648
		c-4.32-0.936-4.32-0.936-5.04-1.44c-2.88-0.936-2.88-0.936-5.184-1.296c0-0.432,0-0.936-0.072-1.44
		c0.864,0,1.728-0.072,2.592-0.144c5.0399,1.944,8.424,2.88,10.368,3.888c0.792,0.216,1.584,0.504,2.376,0.792
		c0.072,0.144,0.144,0.288,0.216,0.504c-0.144,0.144-0.288,0.36-0.432,0.576C416.7706,312.4504,416.4106,312.4504,416.0506,312.4504
		L416.0506,312.4504z M383.4346,310.0744c-1.368-0.288-2.736-0.576-4.104-0.936c-2.16-1.008-3.816-1.44-4.536-1.944
		c-1.152-0.288-2.376-0.576-3.6-0.936c-4.968-1.872-9.936-3.816-14.904-5.76c-6.912-4.104-9.072-5.76-14.4-8.64
		c-1.656-1.584-1.656-1.584-3.312-2.448c-2.8799-0.936-2.8799-0.936-3.6-1.44c-3.528-0.432-7.056-0.936-10.584-1.44
		c-0.36-0.288-0.792-0.576-1.224-0.936c-2.88-0.936-3.6-1.44-9.36-3.384c-4.32-1.872-4.32-1.872-4.536-2.16
		c-1.44-0.288-2.88-0.576-4.32-0.936c-2.52-1.08-5.112-2.232-7.704-3.384c-1.512-0.792-3.024-1.656-4.536-2.52
		c-1.08-0.36-2.232-0.72-3.384-1.08c-7.92-3.816-7.92-3.816-14.112-7.2c-2.52-1.08-5.112-2.16-7.704-3.312
		c-6.9839-3.888-14.616-7.704-30.0239-16.344c-16.776-7.704-16.776-7.704-18.216-8.136c-1.44-1.008-5.256-2.8799-6.48-3.888
		c-4.104-1.872-7.2-3.816-11.52-5.76c-1.44-0.936-1.44-0.936-10.08-4.752c-9.864-5.76-9.864-5.76-12.744-7.704
		c-0.576-0.504-1.224-1.08-1.872-1.656c-10.584-5.76-13.464-7.704-15.408-8.64c-2.592-1.944-2.592-1.944-10.8-6.768
		c-1.728-1.296-3.456-2.664-5.256-4.032c-5.904-3.888-11.808-7.848-17.784-11.808c-3.456-2.592-6.984-5.256-10.512-7.92
		c-1.08-0.576-2.232-1.224-3.384-1.872c-3.312-2.592-6.696-5.256-10.08-7.92c-1.44-1.368-2.88-2.736-4.32-4.1039
		c-3.744-2.88-7.488-5.76-11.304-8.64c-0.576-0.792-1.224-1.584-1.872-2.376c-2.016-1.872-4.032-3.816-6.048-5.76
		c-1.944-2.232-3.96-4.464-5.976-6.768c-2.16-1.872-4.32-3.816-6.48-5.76c-4.104-4.32-4.104-4.32-8.424-8.28
		c-7.92-9.216-7.92-9.216-11.736-14.256c-0.648-1.008-1.296-2.016-1.944-3.024c-3.168-3.816-6.336-7.704-9.576-11.592
		c-0.864-2.016-0.864-2.016-4.68-8.064c-0.648-1.584-1.296-3.168-1.944-4.752c-0.144-1.224-0.36-2.448-0.576-3.672
		c0.216,0,0.432,0,0.72-0.0721c2.16,2.232,2.16,2.232,3.096,3.6c5.04,4.536,10.08,9.072,15.12,13.68
		c2.88,1.872,4.104,3.096,5.544,4.032c2.376,2.16,3.384,2.664,4.32,3.6c1.944,1.008,2.88,1.944,4.32,2.448
		c2.376,1.656,4.752,3.312,7.2,5.04c0.288,0.36,0.576,0.72,0.936,1.08c5.76,3.96,5.76,3.96,12.24,7.992
		c1.296,0.648,2.592,1.296,3.888,1.944c0.72,0.504,1.44,1.08,2.16,1.656c3.816,1.944,3.816,1.944,5.472,2.448
		c4.824,2.8799,4.824,2.8799,6.048,3.312c0.936,1.008,0.936,1.008,2.592,1.944c0.792,0.288,1.584,0.576,2.448,0.936
		c1.152,1.008,1.152,1.008,2.16,1.44c-0.216,0.144-0.432,0.288-0.72,0.504c-2.088-0.936-4.176-1.872-6.264-2.88
		c-0.648,0-1.296,0-1.944,0c-0.288,0.288-0.576,0.576-0.864,0.864c0,0.936,0,0.936,0.504,1.944c0.864,0.72,1.8,1.44,2.736,2.16
		c1.728,0.864,3.528,1.8,5.328,2.736c1.368,0.432,2.736,0.936,4.104,1.44c0.936,0.072,1.872,0.144,2.88,0.216
		c0.072-0.504,0.144-1.008,0.288-1.5121c-0.72-1.008-0.72-1.008-1.008-1.944c2.376,0.792,2.376,0.792,5.976,2.7361
		c1.224,0.936,3.384,1.944,6.264,3.816c1.944,0.936,3.96,1.872,5.976,2.88c0.936,0.648,1.872,1.296,2.88,1.944
		c1.44,0.648,2.88,1.2961,4.32,1.944c1.512,0.936,3.024,1.872,4.536,2.88c1.44,0.432,9.144,4.752,10.8,5.256
		c11.808,6.9839,13.968,7.92,14.4,8.424c1.224,0.432,1.224,0.432,2.16,1.152c0.576,0.072,1.152,0.144,1.728,0.288
		c0.144,0.216,0.288,0.432,0.432,0.72c1.944,0.432,1.944,0.432,2.448,0.936c4.536,1.944,4.536,1.944,8.136,3.816
		c1.944,0.504,1.944,0.504,2.376,1.008c2.376,1.08,4.752,2.16,7.2,3.312c5.544,3.168,7.704,4.104,8.208,4.608
		c1.152,0.432,1.152,0.432,3.6,2.16c0.72,0.144,1.44,0.288,2.16,0.432c0.36,0.288,0.72,0.648,1.152,1.008
		c1.44,0.432,1.944,0.936,7.7039,3.312c0.936,0.72,0.936,0.72,3.384,1.728c1.872,0.432,1.872,0.432,2.376,0.936
		c3.6,1.728,7.2,3.456,10.8,5.256c0.36,0.288,0.7921,0.648,1.224,1.008c7.416,3.312,7.416,3.312,10.512,5.0399
		c11.52,4.752,11.52,4.752,14.4,6.192c0.504,0.504,5.328,2.448,6.768,3.384c5.976,2.88,5.976,2.88,8.64,3.816
		c0.432,0.36,0.936,0.792,1.44,1.224c2.232,0.936,4.464,1.872,6.696,2.88c0.648,0.432,1.296,0.936,1.944,1.44
		c2.016,0.936,4.104,1.872,6.192,2.88c1.008,0.288,2.088,0.576,3.168,0.936c1.08,0.648,2.16,1.296,3.312,1.944
		c3.6,1.584,7.2,3.168,10.8,4.824c0.36,0.288,0.792,0.576,1.224,0.936c1.224,0.216,1.656,0.72,4.824,1.656
		c0.432,0.504,2.592,1.44,4.032,2.448c1.728,0.432,3.384,1.44,4.824,1.872c1.224,0.72,2.5201,1.44,3.816,2.16
		c1.584,0.648,3.168,1.296,4.824,1.944c6.984,3.816,8.64,5.04,14.4,8.136c1.08,1.008,2.232,2.016,3.384,3.024
		c0.144,0.288,0.288,0.576,0.432,0.864c0.6479,0.432,1.296,0.864,1.944,1.2961c1.872,2.16,3.744,4.32,5.616,6.48
		c0.936,1.728,1.944,2.88,2.88,4.608c0.144,0.576,0.288,1.224,0.504,1.872c1.512,2.016,3.024,4.032,4.536,6.048
		c0.072,0.288,0.144,0.576,0.216,0.936c0.288,0.288,0.648,0.576,1.008,0.936c0.576,1.08,1.224,2.232,1.872,3.3839
		c4.32,5.04,4.32,5.04,8.208,10.296c4.68,4.32,4.68,4.32,6.624,6.624c3.096,1.872,3.096,1.872,7.2,3.816
		c1.728,0.648,3.456,1.296,5.256,1.944c4.536,0.72,4.536,0.72,4.824,1.08c-0.864,0.648-1.728,1.296-2.664,2.016
		c-1.224,0.432-2.52,0.936-3.816,1.44c-0.576,0.36-1.152,0.7921-1.728,1.224c-2.592,0.432-2.592,0.432-4.032,0.936
		C385.2346,310.0744,384.3706,310.0744,383.4346,310.0744L383.4346,310.0744z M396.8986,301.6504
		c-0.936-0.144-1.872-0.288-2.88-0.432c-1.8-0.648-3.672-1.2961-5.5439-1.944c-0.864-0.432-1.728-0.936-2.664-1.44
		c-1.656-1.224-3.312-2.52-5.04-3.816c-2.16-2.304-2.16-2.304-2.88-3.456c-0.072,0.072-0.216,0.144-0.36,0.216
		c-0.72-0.648-1.44-1.296-2.16-1.944c-1.944-2.592-1.944-2.592-3.024-4.536c-0.792-0.72-1.584-1.44-2.376-2.16
		c-1.296-1.8-2.592-3.672-3.96-5.5439c-0.648-1.152-1.296-2.376-1.944-3.6c-1.512-1.8-3.024-3.6-4.536-5.472
		c-0.288-0.792-0.576-1.584-0.936-2.448c-1.944-2.88-1.944-2.88-8.424-10.512c-1.152-1.152-2.376-2.376-3.6-3.6
		c-2.952-2.088-2.952-2.088-6.336-4.032c-2.16-0.936-2.16-0.936-8.136-4.752c-11.808-5.76-13.464-6.264-13.968-6.768
		c-0.792-0.288-1.584-0.576-2.376-0.936c-0.288-0.288-0.576-0.576-0.936-0.936c-2.448-1.008-2.448-1.008-3.888-1.944
		c-1.08-0.2881-2.16-0.576-3.312-0.936c-1.872-0.936-3.816-1.872-5.76-2.88c-1.44-0.432-2.88-0.936-4.32-1.44
		c-1.152-0.648-2.376-1.296-3.6-1.944c-3.024-1.152-6.048-2.376-9.144-3.6c-3.096-1.944-7.2-3.816-12.024-6.696
		c-5.256-1.944-5.256-1.944-5.76-2.448c-5.976-2.88-8.856-3.816-12.4559-5.76c-1.44-0.432-5.544-2.376-8.136-3.312
		c-6.264-3.384-6.768-3.888-9.144-4.824c-2.808-1.512-5.616-3.024-8.424-4.536c-3.6-1.44-3.6-1.44-4.032-1.944
		c-2.016-1.008-4.032-2.016-6.048-3.024c-1.08-0.36-2.16-0.72-3.312-1.08c-1.44-1.08-1.44-1.08-6.768-3.672
		c-0.072-0.216-0.144-0.432-0.216-0.72c-0.504-0.072-1.08-0.216-1.656-0.36c-3.888-1.944-3.888-1.944-5.328-2.304
		c-0.072-0.288-0.144-0.576-0.216-0.936c-0.504-0.072-1.08-0.216-1.656-0.36c-0.288-0.288-0.648-0.648-1.008-1.008
		c-0.504-0.144-1.08-0.288-1.656-0.432c-0.432-0.36-0.936-0.72-1.44-1.08c-1.872-0.6479-3.816-1.368-5.76-2.088
		c-10.08-4.752-10.08-4.752-10.584-5.256c-0.432-0.072-0.936-0.144-1.44-0.216c-3.312-1.944-3.312-1.944-4.032-2.664
		c-2.016-1.008-4.032-2.016-6.048-3.096c-0.36-0.288-0.72-0.648-1.152-1.008c-0.864-0.288-1.728-0.576-2.664-0.936
		c-1.656-1.224-2.664-1.44-4.32-2.664c-3.096-1.224-6.192-2.52-9.36-3.816c-9.576-5.04-9.576-5.04-12.456-6.984
		c-1.44-0.576-2.88-1.224-4.32-1.872c-14.184-7.7039-17.064-9.648-23.544-12.96c-0.936-0.72-1.872-1.44-2.88-2.16
		c-13.464-7.7039-13.464-7.7039-22.824-13.464c-0.576-0.216-1.224-0.432-1.872-0.72c-2.664-1.944-2.664-1.944-9.864-5.976
		c-0.72-0.648-1.44-1.296-2.16-1.944c-5.04-3.24-10.08-6.552-15.12-9.864c-1.44-1.224-2.88-2.52-4.32-3.816
		c-1.008-0.6479-2.016-1.296-3.096-1.944c-2.16-2.16-6.768-5.976-7.2-6.696c-2.736-2.664-5.472-5.4-8.208-8.136
		c-1.224-1.44-2.52-2.952-3.816-4.464c-1.224-1.8001-2.448-3.6-3.744-5.472c-1.224-2.448-2.52-4.968-3.816-7.488
		c-0.288-0.36-0.648-0.72-1.008-1.152c-0.36-1.296-0.72-2.592-1.152-3.8881c-0.648-1.1519-1.296-2.376-1.944-3.5999
		c-2.952-1.872-5.976-3.744-9-5.616c-0.72-1.008-1.512-2.016-2.304-3.024c0-0.2159,0.072-0.4319,0.144-0.7199
		c3.384,1.8,5.76,2.736,7.488,3.744c0.432,0.432,0.936,0.936,1.44,1.44c2.16,0.432,2.16,0.432,4.536,1.44
		c0.36,0.36,0.792,0.72,1.224,1.08c0.216,0.6481,0.504,1.2961,0.792,1.944c1.44,1.872,2.376,4.032,4.32,6.696
		c0.936,1.944,1.944,3.096,2.376,4.104c4.104,4.536,8.208,8.352,16.56,17.28c5.616,4.464,11.304,9,16.992,13.536
		c3.096,1.872,3.096,1.872,8.136,5.76c3.816,2.016,3.816,2.016,10.8,6.48c0.72,0.576,1.44,1.224,2.16,1.872
		c6.696,3.888,6.696,3.888,10.8,6.768c4.104,1.872,4.536,2.376,12.744,6.696c1.152,0.936,8.856,4.824,13.896,7.7039
		c4.32,1.872,5.76,2.88,6.984,3.312c0.432,0.504,0.432,0.504,16.272,8.208c2.664,0.936,11.088,4.752,12.744,5.7599
		c1.224,0.432,2.664,1.656,20.664,10.5121c0.432,0.504,1.656,0.72,10.296,4.608c1.656,0.936,3.312,1.872,5.04,2.88
		c3.24,1.44,6.552,2.88,9.864,4.32c0.36,0.288,0.72,0.576,1.152,0.936c4.536,2.088,9.072,4.176,13.68,6.264
		c0.36,0.288,0.792,0.576,1.224,0.936c8.64,3.384,10.08,4.32,12.744,5.256c12.2401,6.048,12.2401,6.048,14.616,6.984
		c1.656,1.224,1.656,1.224,4.32,2.664c1.44,0.432,1.44,0.432,16.56,8.136c0.936,0.648,1.872,1.296,2.88,1.944
		c0.792,0.288,1.584,0.576,2.376,0.936c0.288,0.288,0.648,0.576,1.008,0.936c3.6,1.44,6.912,3.384,11.232,5.328
		c3.384,1.152,5.04,2.16,14.1841,5.976c1.008,0.648,2.016,1.296,3.096,1.944c2.448,0.936,6.264,2.88,12.96,5.76
		c1.224,0.936,1.224,0.936,8.2079,4.32c1.656,0.432,1.656,0.432,7.416,3.312c1.44,1.008,3.816,1.944,7.416,3.888
		c1.512,0.576,3.024,1.224,4.608,1.872c4.752,2.52,9.576,5.112,14.4,7.704c0.576,0.432,1.224,0.936,1.872,1.44
		c3.384,0.936,3.384,0.936,6.768,2.376c0.216,0.288,0.216,0.288,9.36,4.104c3.312,0.504,3.312,0.504,7.416,0.504
		c0.504-0.144,1.08-0.288,1.656-0.504c1.224,0.216,1.224,0.216,2.88,0c0.864-0.432,1.728-0.936,2.664-1.44
		c0.936-1.0081,1.872-2.0161,2.8799-3.096c0.504,0,1.08,0,1.656,0c1.224,2.52,2.448,5.04,3.744,7.56
		c1.872,5.04,1.872,5.04,3.816,12.024c1.944,10.8,1.944,10.8,2.664,16.992c-0.144,1.152-0.288,2.376-0.504,3.6
		c-1.296,1.008-1.296,1.008-9.216,5.184c0,0.72-0.072,1.512-0.144,2.304c1.08,1.152,1.08,1.152,2.52,2.016
		c2.664,0.432,2.664,0.432,5.328,0.432c1.224-0.576,2.52-1.224,3.816-1.872c0.864-0.648,1.728-1.296,2.664-1.944
		c1.296-1.368,2.664-2.736,4.032-4.104c1.8-1.224,3.672-2.52,5.544-3.816c6.264-6.264,8.136-8.64,9.864-10.296
		c0.288-0.432,0.576-0.936,0.936-1.44c0.936-0.648,1.872-1.296,2.88-1.944c1.728-1.8,3.456-3.672,5.256-5.544
		c0.288-0.144,0.648-0.288,1.008-0.432c0.432-0.576,0.864-1.152,1.296-1.8c0.432-0.288,0.936-0.576,1.44-0.936
		c0.288-0.432,0.576-0.936,0.936-1.44c2.16-1.656,4.392-3.312,6.624-4.968c1.8-2.016,2.88-3.672,4.176-4.68
		c0.504-0.936,1.224-1.44,5.256-6.48c0.2881-0.288,0.6481-0.576,1.0081-0.936c0.576-1.08,1.152-2.16,1.8-3.24
		c0.216,0,0.4319-0.072,0.72-0.144c-0.072,0.936-0.2161,1.872-0.36,2.88c-0.6481,1.44-1.2961,2.88-1.944,4.32
		c-2.88,3.888-2.88,3.888-3.096,4.608c-1.4401,1.152-4.608,4.536-6.048,5.472c-1.296,1.44-2.6639,2.88-4.032,4.32
		c-0.936,1.296-1.872,2.592-2.88,3.888c-4.3201,4.32-4.3201,4.32-7.488,7.92c-1.512,0.936-2.592,2.16-4.032,3.096
		c-2.16,2.376-2.16,2.376-4.104,5.04c-1.872,1.584-3.744,3.24-5.616,4.896c-0.36,0.072-0.792,0.144-1.224,0.216
		c-0.432,0.576-0.936,1.152-1.44,1.728c-0.504,0.36-1.08,0.72-1.656,1.08c-0.432,0.576-0.936,1.152-1.44,1.8
		c-3.744,2.952-7.488,5.9041-11.304,8.856C401.5066,301.5064,399.2026,301.5784,396.8986,301.6504L396.8986,301.6504z
		 M428.7946,299.7784c-2.664-1.008-2.664-1.008-6.9839-1.944c-0.216-0.144-0.432-0.36-0.72-0.576c0.288-0.36,0.288-0.36,2.448-0.648
		c0.216,0.288,3.6,1.44,5.976,1.944c0.144,0.072,0.36,0.216,0.576,0.36c0,0.288,0.072,0.648,0.144,1.008
		C429.8026,299.9224,429.2986,299.8504,428.7946,299.7784L428.7946,299.7784z M478.6906,298.3384c-0.72-0.504-2.16-0.72-2.88-1.224
		c-0.288-0.072-0.5759-0.144-0.936-0.216c-0.7199-0.576-1.4399-1.152-2.1599-1.728c-2.664-0.936-5.4-1.872-8.136-2.88
		c-4.104-0.936-4.104-0.936-6.768-1.872c-1.152-0.792-2.376-1.584-3.6-2.448c-0.936-0.144-1.872-0.288-2.88-0.432
		c-2.592-1.008-4.5359-1.44-5.256-1.944c-1.224-0.216-1.4401-0.5041-6.48-1.44c-0.216-0.0721-0.432-0.216-0.72-0.36
		c0.144-0.36,0.288-0.72,0.504-1.152c7.2,2.232,7.2,2.232,15.12,4.176c2.16,1.08,4.32,2.16,6.48,3.312
		c9.072,2.448,9.072,2.448,9.36,2.808c1.4399,0.576,2.8799,0.792,3.0959,1.08c0.216,0,0.432,0.072,0.72,0.144
		c0.072,0.288,0.144,0.576,0.216,0.936c1.656,0.72,3.312,1.44,5.04,2.232c0.792,0,1.584,0,2.448,0c0.2159,0.36,0.2159,0.36,0,0.72
		C481.1386,298.3384,481.1386,298.3384,478.6906,298.3384L478.6906,298.3384z M209.1946,296.8984c-0.36-0.36-0.72-0.72-1.08-1.08
		c0-0.36-0.072-0.7921-0.144-1.224c0.792,0.144,1.584,0.288,2.448,0.504c-0.144,1.44-0.144,1.44-0.504,1.8
		C209.6986,296.8984,209.4826,296.8984,209.1946,296.8984L209.1946,296.8984z M398.7706,294.3784c0-0.2881,0.072-0.576,0.144-0.936
		c2.016-1.224,4.032-2.448,6.1201-3.744c0.792-3.24,0.792-3.24,1.08-6.12c-0.144-1.512-0.288-3.024-0.504-4.5359
		c-0.432-1.512-0.936-3.024-1.44-4.608c-0.144-1.728-0.288-3.456-0.504-5.256c2.808-1.944,5.04-4.104,7.488-5.976
		c0.288-0.432,0.576-0.936,0.936-1.44c0.504-2.16,0.504-2.16,0.936-2.664c0.576-3.096,1.152-6.192,1.728-9.36
		c2.016-1.368,2.016-1.368,3.96-2.088c0.36,0,0.792,0,1.224,0c3.096,1.944,3.096,1.944,4.032,2.16
		c0.288-0.144,0.648-0.288,1.008-0.432c0.936-1.08,1.872-2.16,2.808-3.2401c2.808-2.448,5.688-4.896,8.568-7.416
		c1.224-1.296,2.5201-2.592,3.816-3.888c0.72,0,1.512-0.072,2.304-0.144c2.304,0.648,4.608,1.296,6.9839,1.944
		c1.44,0.936,1.44,0.936,2.376,2.16c0.432,0.072,0.936,0.144,1.44,0.216c0.648-0.792,1.296-1.584,1.944-2.376
		c0.864-0.072,1.728-0.216,2.592-0.36c-0.072,1.368-0.216,2.736-0.36,4.104c-0.288,0.792-0.576,1.584-0.936,2.376
		c-1.872,2.448-3.816,4.968-5.76,7.488c-2.16,2.16-2.16,2.16-4.104,4.752c-1.728,1.296-3.456,2.592-5.184,3.888
		c-2.952,2.736-5.976,5.544-9,8.352c-0.576,0.792-1.224,1.584-1.872,2.448c-1.584,1.296-3.168,2.664-4.824,4.032
		c-3.96,5.04-3.96,5.04-5.976,7.2c-1.296,0.864-1.296,0.864-3.24,3.024c-1.224,0.72-2.52,1.44-3.816,2.16
		c-0.144-0.0721-0.288-0.216-0.504-0.36c-1.08,1.44-1.08,1.44-5.4,5.256c-1.728,1.08-3.456,2.16-5.184,3.24
		C400.7146,294.2344,399.7786,294.3064,398.7706,294.3784L398.7706,294.3784z M469.3306,276.4504c-5.76-2.88-7.2-3.312-8.64-4.32
		c-1.8-0.288-3.672-0.648-5.5439-1.008c0-0.288,0-0.576,0.072-0.864c0.864,0.072,1.728,0.144,2.592,0.216
		c1.224,0.576,1.224,0.576,3.888,1.224c0.936,0.576,1.872,1.224,2.8801,1.872c1.152,0.36,2.376,0.792,3.6,1.224
		c1.224,0.072,2.52,0.144,3.8159,0.216c0.1441,0.216,0.2881,0.432,0.504,0.648c-0.1439,0.144-0.288,0.36-0.504,0.576
		C471.1306,276.3064,470.2666,276.3784,469.3306,276.4504L469.3306,276.4504z M352.2586,272.1304
		c-1.008-0.432-1.008-0.432-5.544-4.32c-2.088-1.224-4.176-2.52-6.264-3.816c-0.792-0.648-1.584-1.296-2.376-1.944
		c-3.6-1.872-3.6-1.872-8.424-3.816c-1.152-0.936-2.592-1.44-3.816-2.376c-4.32-1.944-7.416-3.888-11.736-5.76
		c-2.16-0.504-2.16-0.504-4.104-0.504c-0.936-0.2881-1.872-0.576-2.88-0.936c-1.152-0.648-2.376-1.2961-3.6-1.944
		c-1.224-1.08-2.52-2.232-3.816-3.384c-0.936-0.576-1.872-1.224-2.88-1.872c-0.576-0.576-1.152-1.152-1.728-1.728
		c-0.432-0.144-0.936-0.36-1.44-0.576c-0.72-1.728-1.5121-3.4561-2.304-5.256c-0.216-1.152-0.432-2.376-0.72-3.6
		c0.36-0.936,0.36-0.936,0.864-1.224c0.6479,0.432,1.296,0.936,1.944,1.44c0.864,0.288,1.728,0.576,2.664,0.864
		c6.912,3.816,6.912,3.816,9.072,4.752c1.44,0.288,2.88,0.648,4.32,1.008c1.728,0.936,6.984,2.88,10.584,4.752
		c1.944,0.504,3.6,1.44,6.984,2.448c1.44,1.152,4.32,2.592,6.912,4.536c3.384,1.944,3.384,1.944,5.544,2.88
		c3.816,3.384,4.824,3.816,5.256,4.536c1.656,1.656,3.312,3.312,5.04,5.04c1.296,2.592,1.8,4.464,3.744,8.568
		c0.072,0.36,0.144,0.792,0.216,1.224c-0.216,0.288-0.504,0.648-0.792,1.008C352.7626,272.1304,352.5466,272.1304,352.2586,272.1304
		L352.2586,272.1304z M236.5546,271.1944c-0.216-0.144-0.432-0.288-0.72-0.504c-0.936-0.144-1.872-0.288-2.88-0.432
		c-0.72-0.504-0.72-0.504-2.376-1.008c-0.792,0-1.584,0-2.448,0c-0.576-0.288-1.224-0.576-1.872-0.936
		c-1.296-0.2881-2.592-0.576-3.888-0.936c-1.656-1.008-1.656-1.008-3.312-1.44c-1.224-1.224-1.224-1.224-2.664-2.16
		c-2.376-1.008-2.376-1.008-3.24-1.8c0-0.72,0.216-0.936,0-1.944c-0.648-0.432-0.648-0.432-3.456-1.296
		c-0.36-0.288-0.792-0.648-1.224-1.008c0-0.288,0-0.648,0-1.008c0.144-0.144,0.36-0.288,0.576-0.504c0-0.36,0-0.792,0-1.224
		c-0.216-0.216-0.432-0.432-0.72-0.72c0-0.288,0-0.576,0-0.936c0.504-0.36,1.008-0.72,1.584-1.08c1.944,0,1.944,0,2.88,0.36
		c0,0.792,0,1.584,0.0721,2.376c0.144,0.216,0.288,0.432,0.504,0.72c1.224,0.432,2.448,0.864,3.744,1.296
		c1.872,1.008,3.816,2.088,5.76,3.168c1.296,1.584,1.296,1.584,2.592,2.52c3.888,1.8,6.048,3.2401,8.208,4.1761
		c2.376,2.016,2.376,2.016,4.104,3.096c0.432,0.864,0.432,0.864,0.216,1.224C237.5626,271.1944,237.0586,271.1944,236.5546,271.1944
		L236.5546,271.1944z M212.5786,269.5384c-0.864-0.864-0.864-0.864-1.008-1.584c0.432,0,0.936,0.072,1.44,0.144
		c0.144,0.216,0.288,0.504,0.504,0.792C213.0106,269.5384,213.0106,269.5384,212.5786,269.5384L212.5786,269.5384z
		 M348.1546,266.1544c-2.664-1.944-6.264-3.816-8.856-5.76c-3.5999-1.944-3.5999-1.944-7.4879-3.6
		c-6.48-4.104-6.48-4.104-7.632-4.5359c-0.792-0.72-1.584-1.44-2.448-2.16c-1.944-0.7921-3.96-1.584-5.976-2.448
		c-1.224-0.288-2.5201-0.576-3.816-0.936c-0.864,0-1.728,0-2.664,0c-0.792-0.288-1.584-0.576-2.376-0.936
		c-5.04-3.888-5.04-3.888-7.488-5.328c-1.368-1.512-2.736-3.024-4.176-4.608c0-0.288,0.072-0.576,0.144-0.864
		c0.576,0.072,1.224,0.144,1.872,0.216c1.224,0.936,3.6,1.944,4.824,2.88c11.7361,3.816,12.024,4.104,13.896,4.536
		c0.648,0.36,1.296,0.792,1.944,1.224c8.136,2.88,8.136,2.88,9.864,3.816c0.432,0.504,7.92,4.824,8.352,5.328
		c2.16,0.936,2.16,0.936,3.6,1.872c2.52,2.376,5.112,4.752,7.704,7.2c0.504,1.296,1.008,2.664,1.512,4.032
		C348.7306,266.0824,348.4426,266.0824,348.1546,266.1544L348.1546,266.1544z M402.8746,264.4984
		c-0.36-0.864-0.864-1.296-1.368-2.304c-0.576-2.736-1.224-5.544-1.872-8.352c-1.944-2.88-1.944-2.88-3.888-6.768
		c-0.432-0.432-0.936-0.936-1.44-1.44c-0.072-0.432-0.144-0.936-0.216-1.44c1.368-1.512,2.736-3.024,4.104-4.536
		c0-0.216,0.072-0.432,0.144-0.72c0.216,0,0.432-0.0721,0.72-0.144c0.936-1.224,1.872-2.52,2.88-3.816
		c2.016-2.016,4.104-4.032,6.192-6.048c0.216,0,0.432,0,0.72,0c0.36,0.432,0.792,0.864,1.224,1.368
		c0.432,1.152,0.864,2.376,1.296,3.6c0.36,4.32,0.792,8.64,1.224,12.96c-0.2881,0.936-0.2881,0.936-0.2881,5.76
		c-0.9359,5.256-0.9359,5.256-1.44,6.264c-0.216,0.072-0.504,0.144-0.792,0.288c-0.936,1.224-0.936,1.224-3.096,3.168
		c-1.008,0.72-2.088,1.44-3.168,2.16C403.5226,264.4984,403.2346,264.4984,402.8746,264.4984L402.8746,264.4984z M383.2186,250.3144
		c-2.16-0.144-4.32-0.2881-6.48-0.504c-9.6479-3.816-11.088-4.752-20.16-8.64c-6.9839-3.816-6.9839-3.816-14.688-7.632
		c-1.872-0.504-3.6-1.44-5.256-1.944c-0.504-0.504-1.944-0.936-3.384-1.944c-3.816-1.872-3.816-1.872-6.912-3.816
		c-2.664-0.936-2.664-0.936-8.64-3.816c-1.44-1.008-2.88-1.44-4.32-2.448c-0.576-0.144-1.152-0.288-1.728-0.432
		c-7.416-3.888-9.7921-4.8239-11.232-5.7599c-4.32-1.44-4.32-1.44-11.304-4.32c-1.656-1.008-6.696-2.88-8.424-3.888
		c-0.432-0.144-0.936-0.288-1.44-0.432c-0.36-0.288-0.72-0.648-1.152-1.008c-3.888-1.872-3.888-1.872-9.864-5.328
		c-0.144-1.224,0.072-1.44,0.072-2.448c-0.432-0.432-0.432-0.432-0.936-1.656c-1.656-1.8-3.312-3.672-5.04-5.544
		c-0.072-0.288-0.216-0.576-0.36-0.936c1.296,0.432,2.592,0.864,3.888,1.296c0.432,0.504,0.432,0.504,1.656,0.936
		c0.36,0.432,0.792,0.864,1.224,1.368c1.08,0.432,2.16,0.864,3.312,1.2961c3.456,1.8,6.912,3.672,10.368,5.544
		c1.8,0.576,3.6,1.224,5.472,1.872c5.76,2.88,5.76,2.88,7.2,3.888c0.576,0.144,1.152,0.288,1.728,0.432
		c0.288,0.288,0.576,0.648,0.936,1.008c1.584,0.432,3.168,0.936,4.8239,1.44c1.0081,0.72,2.0161,1.44,3.096,2.16
		c1.872,0.792,3.816,1.584,5.76,2.376c9.144,4.824,9.144,4.824,10.584,5.256c0.432,0.36,0.936,0.792,1.44,1.224
		c2.376,0.792,4.752,1.584,7.2,2.376c0.432,0.504,5.472,2.448,12.96,6.048c0.144,0.216,0.288,0.432,0.432,0.72
		c1.152,0.576,2.376,1.224,3.6,1.872c10.08,3.888,10.08,3.888,18.72,7.704c6.9839,3.816,6.9839,3.816,9.864,5.76
		c0.936,0.936,0.936,0.936,1.944,1.44c0.72,0.144,1.44,0.288,2.16,0.504c1.8,0,3.6,0,5.472,0c0.36-0.36,0.792-0.72,1.224-1.08
		c0-0.504,0-1.08,0.072-1.656c-0.576-1.08-1.224-2.232-1.872-3.384c-1.728-1.944-1.728-1.944-3.6-4.824
		c-0.432-0.936-0.936-1.872-1.44-2.88c-1.8-0.864-1.8-0.864-3.456-1.08c-0.72,0.216-0.72,0.216-6.4799,0.216
		c-1.728-0.576-3.528-1.224-5.328-1.872c-1.656-1.008-6.48-2.88-10.08-4.824c-5.04-1.944-6.48-2.88-11.016-4.824
		c-1.224-0.936-3.6-1.872-6.984-3.816c-7.92-3.816-14.832-6.696-15.984-7.56c-0.432-2.376-0.72-2.592-1.0081-5.04
		c1.44,0.36,1.872,0.864,5.976,2.736c4.104,1.44,4.536,1.944,9.36,3.888c1.656,0.936,4.536,1.872,5.256,2.376
		c1.008,0.288,2.088,0.576,3.168,0.936c1.656,1.008,6.696,2.88,12.24,5.328c0.432,0.432,0.432,0.432,4.032,1.44
		c2.664,0.432,2.664,0.432,9.36,0.936c4.608-0.216,9.288-0.432,13.968-0.72c4.032-0.936,4.032-0.936,8.136-2.376
		c1.512-1.008,3.024-2.088,4.536-3.168c0.36,0,0.792,0,1.224,0c1.08,0.432,2.232,0.936,3.384,1.44
		c1.296,1.512,2.664,3.096,4.032,4.68c2.736,4.608,2.736,4.608,3.24,6.048c0,0.216,0,0.432,0,0.72c-5.04,5.76-5.04,5.76-8.424,9.144
		c-0.216,0.144-0.432,0.288-0.72,0.432c-0.576,0.936-1.224,1.872-1.872,2.88c-1.008,0.864-2.088,1.728-3.168,2.664
		c-0.936,1.44-0.936,1.44-4.032,5.0399c-2.448,2.16-2.448,2.16-5.616,4.1761C383.7226,250.3144,383.5066,250.3144,383.2186,250.3144
		L383.2186,250.3144z M414.6106,245.9944c-0.36-6.336-0.36-6.336-1.296-12.6c-1.0081-3.312-1.0081-3.312-1.44-5.976
		c-1.008-1.944-1.944-2.88-5.76-9.36c-1.944-2.376-1.944-2.376-3.888-4.104c-0.072-0.216-0.144-0.432-0.216-0.72
		c-0.72-0.504-1.44-1.08-2.16-1.656c0-0.36,0-0.792,0-1.224c0.504-0.432,0.504-0.432,0.936-1.656c1.8-1.368,3.6-2.808,5.472-4.248
		c0.936,0.216,1.872,0.432,2.8799,0.72c1.008,0.648,2.0161,1.296,3.096,1.944c1.944,2.016,1.944,2.016,3.672,4.68
		c0.792,1.728,1.584,3.528,2.448,5.328c0.936,3.816,0.936,3.816,1.872,10.08c0.144,2.592,0.288,5.256,0.504,7.92
		c0.936,5.04,0.936,5.04,1.224,8.64c-0.072,0.432-0.216,0.864-0.36,1.296c-0.936,0-1.872,0-2.88,0
		C417.9946,245.4904,417.9946,245.4904,414.6106,245.9944L414.6106,245.9944z M423.9706,244.4104
		c-0.432-2.808-0.864-5.688-1.296-8.568c-0.504-8.208-0.504-8.208-1.44-16.56c0.576-0.792,1.224-1.584,1.872-2.448
		c4.104-3.816,4.104-3.816,8.928-7.632c0.72-0.864,1.512-1.728,2.304-2.592c0.288,0,0.648,0.072,1.008,0.144
		c0.648,3.528,1.296,7.056,1.944,10.584c0.216,3.024,0.432,6.048,0.72,9.144c0,2.376,0,4.752,0,7.2
		c-1.368,0.936-2.736,1.872-4.104,2.88c-8.136,7.2-8.136,7.2-8.64,7.92C424.8346,244.4824,424.4026,244.4824,423.9706,244.4104
		L423.9706,244.4104z M471.0586,239.7304c-0.864-0.144-1.728-0.288-2.664-0.432c-0.576-0.432-1.152-0.864-1.8-1.296
		c0-1.44,0-1.44,0.36-1.728c1.08,1.008,1.944,1.296,2.376,1.8c1.44,0.072,2.88,0.144,4.32,0.216c0.36,0.432,0.36,0.432,0.288,1.224
		C473.2186,239.7304,473.2186,239.7304,471.0586,239.7304L471.0586,239.7304z M433.3306,239.4424
		c0.288-0.576,0.576-1.152,0.864-1.728c0.432-0.288,0.864-0.576,1.296-0.864c0.216,0,0.432,0.072,0.72,0.144
		c-0.72,0.72-1.44,1.512-2.16,2.304C433.8346,239.2984,433.6186,239.3704,433.3306,239.4424L433.3306,239.4424z M389.1946,236.6344
		c-1.224-0.792-2.52-1.584-3.816-2.376c0-0.288-0.072-0.576-0.144-0.864c1.584-1.224,3.2401-2.52,4.896-3.816
		c0.72-0.792,1.512-1.584,2.304-2.376c5.256-3.888,5.256-3.888,9.792-7.704c0.36,0,0.72-0.072,1.152-0.144
		c0,1.872-0.0721,3.744-0.144,5.688c-0.144,0.36-0.288,0.72-0.504,1.152c-4.104,3.888-6.696,5.76-8.784,7.704
		c-1.224,0.864-2.52,1.8-3.816,2.736C389.8426,236.6344,389.5546,236.6344,389.1946,236.6344L389.1946,236.6344z M451.8346,235.1944
		c-0.648-0.288-1.296-0.576-1.944-0.936c-2.592-0.648-5.256-1.2961-7.92-1.944c-0.288-0.216-0.576-0.432-0.936-0.72
		c-0.504,0-1.0081,0.072-1.584,0.144c-0.216-6.4799-0.216-6.4799-0.936-14.904c-0.504-2.88-0.504-2.88-0.72-6.48
		c-0.504-1.152-0.504-1.152-1.008-4.752c1.728-1.656,3.456-3.312,5.184-4.968c0.288,0,0.648,0,1.008,0
		c0.288,0.432,0.576,0.864,0.936,1.296c1.296,3.672,3.2401,7.704,3.6721,9.432c1.296,2.448,2.592,4.8961,3.888,7.416
		c0.936,2.88,1.8719,5.76,2.8799,8.64c0.216,2.088,0.432,4.176,0.72,6.264c-0.504,0.504-1.008,1.008-1.584,1.512
		C452.9866,235.1944,452.4106,235.1944,451.8346,235.1944L451.8346,235.1944z M389.1946,234.6904c-0.36-0.216-0.72-0.504-1.08-0.792
		c0-0.216,0-0.432,0-0.72c0.576-0.72,1.224-1.44,1.872-2.16c1.44-0.936,1.44-0.936,5.76-4.824c3.024-1.872,3.024-1.872,4.68-3.312
		c0.288,0,0.648,0,1.008-0.072c0,0.72,0,1.44,0.072,2.232c-1.296,1.44-2.592,2.8799-3.96,4.3199
		c-4.752,3.672-5.976,4.1761-7.128,5.328C390.0586,234.6904,389.6266,234.6904,389.1946,234.6904L389.1946,234.6904z
		 M369.0346,216.9784c-1.872-0.144-3.816-0.288-5.76-0.504c-1.44-0.288-2.88-0.576-4.32-0.936
		c-15.336-6.768-17.064-7.2-17.496-7.704c-0.6479-0.216-1.368-0.504-2.088-0.792c0-0.288,0-0.648,0-1.008
		c0.6479-0.36,0.6479-0.36,3.24-0.36c1.152,0.648,2.376,1.296,3.6,1.944c2.448,2.16,2.448,2.16,3.384,2.592
		c2.448,0.576,4.896,1.152,7.416,1.728c6.048,0.432,6.048,0.432,8.208,0.936c0.288,0.144,0.576,0.288,0.936,0.504
		c9.576,0.72,9.576,0.72,14.4,0.72c0.864-0.432,1.728-0.936,2.664-1.44c0.288,0,0.576,0,0.936,0
		c0.288,0.288,0.576,0.576,0.936,0.936c0.4319,0,0.936,0,1.44,0c0.144-0.144,0.288-0.2881,0.504-0.504
		c1.728-0.216,3.456-0.504,5.256-0.792c-0.072,0.288-0.216,0.576-0.36,0.936c-1.656,1.008-1.656,1.008-6.552,2.736
		c-1.08,0.144-2.232,0.288-3.384,0.504c-0.936-0.072-1.872-0.144-2.88-0.216C372.1306,216.9784,372.1306,216.9784,369.0346,216.9784
		L369.0346,216.9784z M420.1546,216.6184c-1.8-4.104-1.8-4.104-3.744-7.704c-0.648-0.792-1.296-1.584-2.016-2.376
		c-2.88-2.376-2.88-2.376-5.04-3.6c0-0.36-0.072-0.792-0.144-1.224c1.008-0.648,2.016-1.2961,3.024-2.0161
		c0.576-0.864,1.152-1.8,1.8-2.736c0.072-0.6479,0.144-1.296,0.216-1.944c-0.288-1.08-0.576-2.232-0.936-3.384
		c-0.648-0.936-1.2961-1.872-1.944-2.88c-2.0161-1.8-2.0161-1.8-6.12-4.464c-5.472-1.872-5.472-1.872-12.672-3.816
		c-1.44-0.936-1.44-0.936-4.824-2.376c-0.648-0.144-1.296-0.288-1.944-0.504c-5.184-2.808-10.368-5.6161-15.552-8.424
		c-0.576-0.144-1.152-0.288-1.728-0.432c-2.5201-1.44-5.04-2.88-7.632-4.32c-0.792-0.216-1.584-0.432-2.448-0.72
		c-2.16-2.448-2.16-2.448-3.312-3.168c-1.08,0-2.232,0-3.3839-0.072c-0.36-0.936-0.36-0.936-0.864-1.44c0-1.368,0-2.736,0-4.104
		c-0.288-0.288-0.576-0.576-0.936-0.936c0-0.648,0-1.296,0-1.944c3.24-1.8,5.904-3.744,7.056-4.176
		c0.864-0.576,1.728-1.152,2.664-1.728c5.544-2.376,5.544-2.376,5.976-2.88c0.864-0.216,1.728-0.432,2.664-0.72
		c0.936,1.44,0.936,1.44,3.24,4.032c2.16,3.672,4.392,7.344,6.624,11.088c0.576,0.144,1.152,0.288,1.728,0.4319
		c0.144,0.36,0.288,0.72,0.504,1.152c1.152,0.648,2.304,1.296,3.456,1.944c6.552,2.736,10.152,4.68,15.192,6.552
		c2.448,1.296,4.896,2.592,7.416,3.888c16.776,7.632,16.776,7.632,18.504,8.64c5.256,1.872,5.256,1.872,7.2,2.8799
		c0.72,0.72,1.44,1.5121,2.232,2.304c0.216,1.872,0.216,1.872,0.648,2.448c0.504,0.072,1.08,0.144,1.656,0.288
		c1.944,3.456,1.944,3.456,3.672,7.776c0,1.008,0,2.088,0,3.168c-1.872,2.16-4.032,4.032-4.536,4.752
		c-3.816,2.88-3.816,2.88-4.896,3.24c-1.944,2.52-1.944,2.52-4.536,5.04c-0.576,0.288-1.152,0.576-1.728,0.936
		c-0.432,0.72-0.432,0.72-2.16,1.728c-0.432,0.576-0.936,1.224-1.44,1.872C420.8026,216.6904,420.5146,216.6904,420.1546,216.6184
		L420.1546,216.6184z M396.8986,208.5544c-1.584-0.288-3.168-0.576-4.824-0.936c-0.72-0.504-3.384-1.008-6.264-1.944
		c-3.096-1.944-3.096-1.944-5.256-3.816c-2.304-1.296-4.608-2.592-6.984-3.888c-5.256-1.872-5.76-2.376-10.296-3.816
		c-1.008-0.0721-2.016-0.144-3.096-0.216c-2.232-1.2961-4.464-2.592-6.768-3.888c-0.72-0.144-1.44-0.288-2.16-0.432
		c-2.16-1.08-4.32-2.232-6.48-3.384c-0.936-0.216-1.872-0.504-2.88-0.792c-0.144-3.384,0.144-4.104,0.288-6.48
		c0.432,0.072,0.936,0.144,1.44,0.288c0.36,0.288,0.72,0.648,1.152,1.008c0.792,0.288,1.584,0.576,2.448,0.936
		c3.312,2.16,3.312,2.16,8.136,4.536c1.656,0.648,3.312,1.296,5.04,1.944c1.008,0.648,2.016,1.296,3.096,1.944
		c1.944,0.432,1.944,0.432,6.48,2.376c1.152,0.6479,2.376,1.296,3.6,1.944c1.584,1.224,3.168,2.52,4.824,3.816
		c1.08,0.648,2.232,1.296,3.384,1.944c2.304,0.792,4.608,1.584,6.912,2.376c0.576,0.432,1.152,0.936,1.728,1.44
		c0.936,0.288,1.872,0.576,2.88,0.936c1.584,0.792,3.168,1.584,4.752,2.448c0.072,0.36,0.216,0.72,0.36,1.08
		C397.9066,208.4824,397.9066,208.4824,396.8986,208.5544L396.8986,208.5544z M419.4346,208.5544
		c-0.864-0.144-1.728-0.288-2.664-0.504c0-0.216-0.072-0.504-0.144-0.792c0.72-0.72,0.72-0.72,1.872-1.08
		c3.672-3.168,7.344-6.408,11.016-9.648c0.936-1.08,1.872-2.16,2.88-3.312c0.288-0.072,0.576-0.144,0.936-0.288
		c0.072,0.144,0.216,0.288,0.36,0.432c-0.144,1.872-0.288,3.816-0.504,5.76c-1.008,0.936-2.016,1.872-3.096,2.88
		c-5.76,3.816-6.696,4.752-9.432,6.552C420.2986,208.5544,419.8666,208.5544,419.4346,208.5544L419.4346,208.5544z
		 M420.1546,207.0424c0-0.216,0-0.432,0.072-0.72c3.6-3.24,7.272-6.48,10.944-9.792c0.288,0,0.648,0,1.008-0.072
		c0,0.648-0.072,1.296-0.144,1.944c-1.44,1.296-2.88,2.664-4.32,4.032c-3.168,1.944-3.168,1.944-5.4,3.744
		C421.5946,206.4664,420.8746,206.7544,420.1546,207.0424L420.1546,207.0424z M400.2106,205.4584
		c-1.872-1.008-3.312-1.44-5.04-2.448c-1.44-0.432-1.656-0.72-3.312-1.152c-0.432-0.576-0.936-1.152-1.44-1.728
		c-1.8-0.576-3.672-1.224-5.544-1.872c-1.944-0.936-3.96-1.872-5.976-2.88c-1.584-1.2961-3.168-2.592-4.824-3.888
		c-2.16-0.936-2.664-1.44-4.536-2.376c-1.8-0.648-3.672-1.296-5.544-1.944c-0.936-0.576-1.872-1.224-2.88-1.872
		c-1.728-0.6479-3.456-1.296-5.256-1.944c-4.824-2.88-4.824-2.88-6.264-4.104c-2.16-0.936-2.16-0.936-4.32-2.376
		c-0.864-1.5121-0.864-1.5121-0.936-2.5201c1.728,0.576,3.456,1.152,5.256,1.8c2.88,1.944,2.88,1.944,5.04,2.88
		c1.368,0.288,2.736,0.576,4.104,0.936c0.936,0.648,1.872,1.296,2.88,1.944c1.8,0.648,3.6,1.296,5.472,1.944
		c2.664,1.872,2.664,1.872,9.864,5.76c0.504,0.432,1.08,0.936,1.656,1.44c0.72,0.288,1.44,0.576,2.16,0.936
		c5.76,3.816,11.52,7.2,12.024,7.7039c1.512,0.576,3.024,1.224,4.536,1.872c1.296,1.152,2.592,2.304,3.888,3.528
		C400.9306,205.4584,400.9306,205.4584,400.2106,205.4584L400.2106,205.4584z M315.7546,204.9544
		c-1.008-0.288-2.0161-0.576-3.096-0.936c-15.84-7.7039-15.84-7.7039-24.48-11.52c-0.72-0.144-1.44-0.288-2.16-0.504
		c-3.888-2.016-3.888-2.016-6.768-3.096c-1.8-1.008-3.6-2.088-5.472-3.168c-0.576-0.072-1.152-0.144-1.728-0.216
		c-0.936-0.504-1.872-1.08-2.88-1.656c-0.792-0.216-1.584-0.432-2.376-0.72c-5.688-2.8799-11.376-5.7599-17.064-8.64
		c-2.232-1.656-4.464-3.312-6.696-5.04c-4.536-4.104-5.976-5.04-6.984-6.048c-0.936-0.576-1.872-1.224-2.88-1.872
		c-2.304-2.088-4.608-4.176-6.912-6.264c-5.04-3.816-5.04-3.816-10.8-7.704c-1.08-0.576-2.232-1.224-3.384-1.872
		c-1.728-1.368-3.456-2.736-5.256-4.1039c-7.2-3.528-14.4-7.056-21.6-10.584c-1.008-0.936-1.008-0.936-5.76-3.816
		c-0.792-0.288-1.584-0.576-2.448-0.936c-0.36-0.288-0.72-0.648-1.152-1.008c-4.104-1.872-7.488-3.816-9.864-4.752
		c-3.6-1.944-3.6-1.944-5.256-3.168c-0.864-0.288-1.728-0.576-2.664-0.936c-42.264-23.04-42.264-23.04-45.36-24.984
		c-2.376-0.936-5.544-2.88-9.864-4.752c-14.4-8.64-15.552-9.648-16.56-10.08c-0.432-0.504-2.376-1.44-5.976-4.3199
		c-0.792-0.288-1.584-0.648-2.376-1.008c-5.544-3.816-6.768-4.32-7.2-4.752c-0.072-0.288-0.144-0.576-0.288-0.864
		c1.368,0,2.736-0.072,4.104-0.144c3.024,0.72,6.048,1.44,9.144,2.16c1.656,0.648,3.312,1.296,5.04,1.944
		c11.736,3.0959,11.736,3.0959,14.616,3.6c1.44,0.648,2.88,1.296,4.32,1.944c1.584,0.2881,3.168,0.576,4.824,0.936
		c1.44,0.648,2.88,1.296,4.32,1.944c2.52,0.576,5.04,1.224,7.632,1.872c1.944,1.008,14.688,5.328,15.12,5.76
		c4.104,1.44,4.104,1.44,4.32,1.728c3.168,0.72,4.32,0.72,5.328,1.152c0.144,0.216,0.288,0.432,0.432,0.648
		c2.16,0.576,2.88,1.08,4.608,1.512c0.36,0.288,0.72,0.648,1.152,1.008c0.792,0.288,1.584,0.576,2.448,0.936
		c1.152,1.224,1.728,2.52,2.376,3.024c0.216-0.216,0.504-0.432,0.792-0.72c-0.072-0.504-0.144-1.08-0.216-1.656
		c-2.16-2.16-2.16-2.16-5.112-4.248c-0.864-0.432-1.728-0.936-2.664-1.4399c-1.944-0.648-3.96-1.2961-5.976-1.944
		c-2.88-0.432-5.76-1.44-8.64-1.872c-6.48-1.944-6.48-1.944-11.808-3.888c-0.432-0.432-0.432-0.432-2.88-1.44
		c-4.536-0.936-4.536-0.936-9.36-2.376c-0.504-0.288-1.08-0.576-1.656-0.936c-1.44-0.288-2.88-0.648-4.32-1.008
		c-1.584-0.576-3.168-1.224-4.824-1.8719c-2.592-0.5041-3.6-1.008-6.696-1.44c-2.88-1.008-2.88-1.008-7.416-1.944
		c-1.512-0.648-3.024-1.2961-4.608-1.944c-6.48-1.872-11.232-2.88-11.736-3.312c-3.6,0.936-3.6,0.936-5.256,0.936
		c-5.328-4.104-8.424-5.976-9.36-6.984c-1.08-0.576-2.232-1.224-3.384-1.872c-10.296-7.92-11.304-8.928-12.744-9.864
		c-0.072-0.2161-0.144-0.504-0.216-0.792c1.152,0.072,2.376,0.1439,3.6,0.288c7.704,1.944,9.576,2.16,9.864,2.448
		c1.08,0.288,2.16,0.576,3.312,0.936c5.112,0.2879,10.224,0.576,15.408,0.936c7.92,1.008,7.92,1.008,17.496,2.88
		c0.36,0.144,0.792,0.288,1.224,0.504c1.08,0.072,2.16,0.1439,3.312,0.2159c2.952,0.6481,5.904,1.296,8.928,1.944
		c2.52,0.288,5.04,0.576,7.632,0.936c9.864,2.16,10.08,2.448,13.968,3.384c2.376,0.216,5.976,1.224,22.536,3.816
		c4.824,1.008,5.76,1.44,25.704,5.76c2.016,0.648,4.104,1.296,6.192,1.944c0.216,0.216,0.432,0.432,0.72,0.72
		c5.544,1.944,17.28,5.256,18,5.76c1.44,0.216,3.888,1.224,6.048,1.656c0.72,0.504,2.376,0.72,3.096,1.224
		c5.976,1.944,9.864,2.88,10.584,3.384c5.472,1.44,5.472,1.44,5.76,1.8c-0.072,0.0721-0.144,0.216-0.288,0.36
		c-1.008,0-2.016,0-3.096,0c-4.824,1.152-4.824,1.152-5.04,1.44c-5.544,1.872-6.264,2.376-15.624,5.256
		c-1.08,0.648-2.16,1.296-3.312,1.944c-1.584,0.576-3.168,1.224-4.824,1.872c-1.512,1.296-3.024,2.592-4.536,3.96
		c-1.368,1.8-2.736,3.6-4.104,5.4c-0.72,1.872-1.512,3.744-2.304,5.688c-0.072,0.864-0.144,1.728-0.216,2.664
		c0.144,0.792,0.288,1.584,0.432,2.376c1.944,2.376,4.104,4.32,5.04,5.544c11.448,5.616,11.448,5.616,16.704,8.5681
		c0.936,0.6479,1.872,1.368,2.88,2.088c3.888,1.872,10.368,5.76,17.784,9.576c0.504,0.504,1.944,0.936,5.0399,2.88
		c8.64,3.816,8.64,3.816,16.56,7.704c0.936,0.72,2.664,1.152,5.76,3.096c1.152,0.432,2.376,0.936,3.6,1.44
		c0.504,0.4319,1.0799,0.936,1.656,1.44c2.448,0.936,4.104,1.944,6.9839,2.88c1.944,0.936,2.376,1.44,5.76,3.384
		c0.936,0.36,1.872,0.72,2.88,1.152c1.224-0.432,3.816-2.376,16.56-10.08c2.88-0.936,3.6-1.44,5.04-1.872
		c1.224-0.792,2.52-1.584,3.816-2.448c2.448-0.432,4.824-1.44,7.2-1.872c1.8-1.08,3.672-2.232,5.544-3.384
		c1.656-0.648,3.312-1.296,5.04-1.944c13.176-3.816,14.184-4.32,23.7599-7.2c4.32-1.872,4.32-1.872,7.704-3.816
		c1.008-0.72,2.016-1.44,3.096-2.16c5.7599-2.88,8.64-4.824,12.24-6.696c0.36-0.288,0.792-0.648,1.224-1.008
		c0.288,0,0.576,0,0.936-0.072c-0.36,2.376-0.864,3.6-0.864,4.824c-0.288,0.288-0.576,0.576-0.936,0.936
		c0,0.36,0.072,0.72,0.144,1.08c0.936,0.72,0.936,0.72,2.16,1.152c0.144,0.288,0.288,0.576,0.432,0.864
		c0.216,0,0.4319,0.072,0.72,0.144c0.288-0.432,0.6479-0.864,1.008-1.368c0-0.2881,0-0.576,0.072-0.936
		c-0.576-0.432-0.576-0.432-1.512-0.36c-0.144-1.512-0.144-1.512,0.288-3.96c0.504-0.72,0.504-0.72,1.368-3.024
		c1.368,0.144,2.736,0.288,4.104,0.504c2.016,0.792,4.104,1.584,6.192,2.376c3.024-0.072,6.048-0.144,9.144-0.216
		c0.864-0.576,1.8-1.152,2.736-1.8c0.432-1.8,0.936-3.6,1.44-5.472c0-1.296,0-2.592,0-3.888c0.36-0.576,0.36-0.576,1.08-0.864
		c0.36,0,0.792,0,1.224,0c0.504,0.504,0.504,0.504,3.816,1.44c0.432,0,0.864,0,1.296-0.072c0-0.432,0-0.936-0.072-1.44
		c-0.288-0.288-0.576-0.576-0.936-0.864c-2.16-0.216-2.16-0.216-2.592-0.576c0-1.152,0-2.376-0.072-3.6
		c2.16,0.072,3.384,0.576,5.76,0.792c5.76,1.44,5.76,1.44,6.696,1.944c0.504,0.72,0.504,0.72,0.576,1.584
		c-1.872,2.16-1.872,2.16-5.256,5.0399c-0.792,0.216-1.656,0.504-2.52,0.792c-5.472,3.816-11.016,7.632-16.56,11.52
		c-3.6,1.944-3.6,1.944-9.576,5.76c-0.792,0.648-1.584,1.296-2.376,1.944c-6.48,3.816-17.568,9.576-18,10.08
		c-9.648,5.76-10.08,6.264-13.464,8.136c-1.224,1.008-3.096,1.944-8.856,5.76c-5.544,4.104-5.544,4.104-8.928,6.048
		c-7.416,5.76-7.416,5.76-11.736,8.64c-3.816,1.872-5.04,2.88-6.264,3.312c-0.288,0.432-0.576,0.864-0.936,1.368
		c0.216,0.36,1.224,0.792,2.16,2.016c0.36,0.288,0.792,0.576,1.224,0.936c0.072,0.432,0.144,0.864,0.288,1.368
		c1.944,2.664,1.944,2.664,4.104,6.4799c0.648,1.44,1.296,2.88,1.944,4.32c0.144,0.792,0.288,1.584,0.432,2.376
		c0.648,1.584,1.296,3.168,1.944,4.824c0,0.36,0,0.792,0,1.224C315.9706,205.0984,315.9706,205.0984,315.7546,204.9544
		L315.7546,204.9544z M331.0906,203.2984c-0.432-0.288-0.936-0.6479-1.44-1.008c-0.576-0.144-1.224-0.288-1.872-0.432
		c-7.704-4.104-7.704-4.104-8.208-4.608c-0.864-0.072-1.728-0.216-2.592-0.36c-0.864-2.088-1.872-3.528-2.304-4.968
		c-1.944-2.88-2.88-4.8239-4.104-6.2639c-0.864-1.44-1.728-2.88-2.664-4.32c0-0.288,0-0.576,0-0.936
		c3.6-2.52,7.272-5.04,10.944-7.632c1.728-1.44,3.528-2.88,5.328-4.32c0.72-0.288,1.44-0.576,2.16-0.936
		c0.216,0,0.504,0.072,0.792,0.144c-0.072,4.464-0.144,8.9279-0.216,13.464c-0.144,0.936-0.288,1.872-0.504,2.88
		c-0.576,0.432-1.8,0.792-2.736,1.728c-0.288,0.144-0.576,0.288-0.864,0.432c-0.144,0.288-0.288,0.576-0.504,0.936
		c-1.872,0.864-3.816,1.728-5.76,2.664c0,0.72,0,1.44,0,2.16c0.144,0.288,0.288,0.576,0.504,0.936c0.504,0.36,1.008,0.72,1.584,1.08
		c0.36,0,0.792,0,1.224,0c6.48,3.816,6.48,3.816,8.136,5.04c0.792,0.144,1.584,0.288,2.376,0.432
		c0.504,0.504,0.504,0.504,2.88,1.584c0,0.288,0.072,0.6479,0.144,1.008c-0.288,0.36-0.648,0.72-1.008,1.152
		C331.9546,203.1544,331.5226,203.2264,331.0906,203.2984L331.0906,203.2984z M402.3706,202.2904c-1.152-0.936-2.376-1.872-3.6-2.88
		c-4.752-1.872-4.752-1.872-8.64-3.816c-2.52-1.7281-5.0399-3.4561-7.632-5.256c-0.792-0.288-1.584-0.648-2.448-1.008
		c-0.504-0.432-1.08-0.936-1.656-1.44c-2.448-1.224-4.896-2.52-7.416-3.816c-0.864-0.648-1.728-1.296-2.664-1.944
		c-3.096-1.44-4.824-1.872-6.984-2.88c-0.864-0.576-1.728-1.224-2.592-1.872c-1.728-0.432-3.528-0.936-5.328-1.44
		c-0.72-0.648-1.512-1.2961-2.304-2.0161c0.144-0.72,0.144-0.72,1.008-1.44c0-0.432,0-0.936,0-1.44
		c-0.144-0.216-0.288-0.432-0.504-0.72c-0.072-2.016-0.144-4.032-0.216-6.048c0.072-0.432,0.216-0.864,0.36-1.2961
		c0.864-0.072,1.728-0.144,2.664-0.288c0.72,0.792,1.44,1.584,2.16,2.448c2.16,0.936,2.16,0.936,3.6,1.152
		c0.864,0.648,1.728,1.296,2.592,1.944c3.888,1.944,3.888,1.944,8.64,3.816c6.768,3.888,8.208,4.32,9.648,5.328
		c3.816,1.872,3.816,1.872,11.952,5.256c2.376,0.648,4.752,1.296,7.2,1.944c1.44,0.576,2.88,1.224,4.32,1.872
		c2.448,1.944,2.448,1.944,4.104,2.88c0.648,0.72,1.296,1.44,1.944,2.16c0.432,0.72,0.864,1.512,1.2961,2.304
		c0.072,0.792,0.144,1.584,0.216,2.448c-0.2881,0.504-0.576,1.08-0.936,1.656c-1.584,1.08-3.168,2.232-4.824,3.384
		c-0.72,0.072-1.44,0.144-2.232,0.288c-0.216,0.216-0.432,0.432-0.72,0.72C403.0906,202.2904,402.7306,202.2904,402.3706,202.2904
		L402.3706,202.2904z M265.1385,196.8184c-2.6639-1.008-2.6639-1.008-8.2079-3.888c-0.36-0.288-0.72-0.576-1.152-0.936
		c-6.768-2.88-6.768-2.88-7.2-3.384c-3.384-1.872-16.56-7.776-30.528-14.472c-0.144-0.936,0.144-1.44,0.144-2.376
		c-1.728-4.608-1.728-4.608-1.8-5.76c0.36,0,0.792,0,1.224,0.072c1.44,0.936,1.44,0.936,15.84,7.704
		c0.144,0.216,0.288,0.432,0.432,0.72c1.944,0.936,4.824,1.872,7.488,3.312c0.72,0.144,1.44,0.288,2.16,0.504
		c4.608,2.232,9.216,4.464,13.896,6.696c6.12,7.128,6.12,7.128,8.28,10.224c0.432,1.008,0.432,1.008,0.36,1.584
		C265.7866,196.8184,265.4986,196.8184,265.1385,196.8184L265.1385,196.8184z M336.4186,183.5704
		c-1.08-0.144-2.232-0.288-3.384-0.432c-0.504-0.648-0.504-0.648-1.224-1.008c-0.936,0-1.872,0-2.88,0
		c-0.072-0.936-0.216-1.944-0.36-2.952c0.072-4.464,0.144-8.928,0.216-13.464c3.024-2.0161,4.032-3.024,5.904-3.96
		c0.792-0.648,1.584-1.296,2.448-1.944c0.936-0.432,1.872-0.936,2.88-1.44c0.936-0.936,0.936-0.936,5.256-3.6
		c0.36,0,0.792,0,1.224-0.072c0.144,1.944,0.36,3.9601,0.576,5.976c0,2.448,0,4.968,0,7.488c-0.36,0.216-0.72,0.504-1.08,0.792
		c-1.224,0.288-2.52,0.576-3.816,0.936c-0.36,0.288-0.72,0.576-1.152,0.864c-0.144,0.936-0.288,1.872-0.432,2.88
		c-0.504,0.504-0.504,0.504-1.008,1.728c-0.72,7.92-0.72,7.92-1.0081,8.208C337.8586,183.5704,337.1385,183.5704,336.4186,183.5704
		L336.4186,183.5704z M173.9146,175.9384c-6.696-1.368-6.696-1.368-6.984-1.728c-2.376-0.936-2.88-1.44-5.04-2.52
		c-3.096-2.232-3.096-2.232-4.536-3.6c-0.216-0.432-0.432-0.864-0.648-1.368c0-0.432,0-0.936,0-1.44
		c0.288-0.432,0.576-0.864,0.864-1.368c0.288-0.144,0.648-0.288,1.008-0.504c0.72,0,1.44,0,2.16,0c3.6,1.944,6.48,3.888,10.512,5.76
		c2.16,2.16,2.16,2.16,4.608,4.104c0,0.504,0,1.008,0.072,1.584c-0.216,0.36-0.504,0.72-0.792,1.08
		C174.7786,175.9384,174.3466,175.9384,173.9146,175.9384L173.9146,175.9384z M215.8906,172.5544
		c-0.432-0.072-0.936-0.144-1.44-0.216c-8.136-3.816-16.272-7.632-24.48-11.52c-6.912-3.888-8.352-4.32-10.296-5.328
		c-2.664-0.936-3.096-1.44-4.104-1.872c-0.432-0.504-2.88-1.44-3.312-1.944c-1.44-0.504-2.664-1.44-6.048-2.88
		c-0.144-0.792,0.144-1.296,0.144-3.24c-0.288-0.864-0.648-1.728-1.008-2.592c-0.072-0.792-0.144-1.584-0.288-2.448
		c4.176,2.16,8.424,4.392,12.672,6.624c0.288,0.36,0.648,0.72,1.008,1.152c4.752,1.944,8.64,3.888,13.896,6.048
		c1.656,0.936,1.656,0.936,4.32,1.872c0.936,0.648,1.872,1.296,2.88,1.944c4.32,1.944,4.32,1.944,7.704,3.816
		c1.872,0.504,1.872,0.504,6.768,2.808c0.504,2.16,1.008,2.88,1.944,5.76c0,0.648,0,1.296,0,1.944
		C216.1786,172.4824,216.0346,172.4824,215.8906,172.5544L215.8906,172.5544z M239.6506,169.1704
		c-2.88-1.44-5.976-2.376-7.416-3.312c-0.792-0.216-1.584-0.432-2.376-0.72c-2.376-1.296-4.752-2.592-7.2-3.888
		c-2.952-1.296-5.904-2.592-8.928-3.888c-1.08-2.88-1.08-2.88-1.584-5.76c0-1.44,0-2.88-0.0721-4.32
		c1.08,0.576,2.232,1.152,3.384,1.728c1.872,1.296,3.816,2.592,5.76,3.888c8.64,6.912,9.072,7.632,15.552,12.456
		c3.384,2.88,3.384,2.88,3.888,3.6C240.3706,169.0264,240.0106,169.0984,239.6506,169.1704L239.6506,169.1704z M272.0506,163.6984
		c-4.032-1.944-4.032-1.944-4.536-2.448c-5.256-1.872-5.256-1.872-9.144-3.816c-1.152-0.936-5.472-2.88-8.856-4.824
		c-2.376-0.936-10.08-4.752-17.064-7.632c-3.888-2.232-7.776-4.464-11.736-6.7679c-2.376-0.936-7.2-3.816-11.016-5.76
		c-1.944-1.224-3.888-2.448-5.832-3.672c0-0.216,0-0.432-0.072-0.72c2.52-1.008,5.04-2.016,7.56-3.024
		c0.432,0,0.936,0.072,1.44,0.144c0.288,0.36,0.576,0.72,0.936,1.08c1.44,0,2.88,0,4.32,0c2.448-1.008,2.448-1.008,3.168-1.584
		c0-0.432,0-0.936,0.072-1.44c-0.576-0.72-0.576-0.72-0.792-1.656c1.872-0.36,1.872-0.36,4.32-1.224c0,0.576,0,1.152,0.072,1.728
		c0.864,0.7921,1.728,1.584,2.664,2.376c0.576,0.864,1.224,1.728,1.872,2.664c0.6479,0.504,1.296,1.08,1.944,1.656
		c0.648,0.864,1.296,1.728,1.944,2.664c0.432,1.584,0.936,3.168,1.44,4.752c0.072,1.656,0.144,3.312,0.216,5.04
		c0.504,0.288,1.008,0.648,1.584,1.008c0.936-0.144,0.936-0.144,4.104,0.288c8.64,3.384,9.576,4.104,10.8,4.608
		c0.792,0.144,1.584,0.288,2.376,0.432c1.584,0.792,3.168,1.584,4.824,2.448c0.72,0.144,1.44,0.288,2.16,0.432
		c1.296,0.792,2.664,1.584,4.032,2.448c2.952,0.576,5.904,1.224,8.928,1.872c1.8,1.008,3.6,2.088,5.472,3.168
		c0,0.288,0.072,0.576,0.144,0.864c-2.088,1.584-4.176,3.168-6.264,4.752C272.7706,163.5544,272.4106,163.6264,272.0506,163.6984
		L272.0506,163.6984z M283.5706,156.9304c-0.864-0.2881-1.728-0.576-2.592-0.936c-1.08-1.44-2.232-2.952-3.384-4.464
		c-1.5121-1.296-3.024-2.592-4.536-3.96c0-0.288-0.072-0.648-0.144-1.008c0.72-0.576,1.5121-1.224,2.304-1.872
		c0.288,0,0.576,0,0.936-0.072c0.072,0.72,0.072,0.72,2.016,3.6c0.792,0.792,1.584,1.584,2.376,2.376
		c1.008,1.368,2.016,2.736,3.024,4.1039c0.576,0.36,1.152,0.792,1.8,1.224c0,0.72,0,0.72-0.36,1.0081
		C284.5786,156.9304,284.0746,156.9304,283.5706,156.9304L283.5706,156.9304z M210.4186,155.4904c-1.44-0.936-4.608-2.376-5.04-2.88
		c-11.52-5.76-12.96-6.192-20.664-10.08c-4.32-1.872-5.76-2.88-9.864-4.752c-7.2-3.888-8.64-4.32-13.392-7.2
		c-0.864-2.016-1.368-4.464-1.872-5.4c-0.432-2.376-0.864-4.752-1.296-7.2c0.864,0.216,1.728,0.504,2.664,0.792
		c15.336,7.92,15.84,8.424,18,9.36c5.04,2.88,6.264,3.888,8.136,4.824c1.008,0.216,1.44,0.72,17.064,8.424
		c1.944,1.44,3.96,2.88,5.976,4.3199c0.36,2.448,0.72,4.8961,1.08,7.344c0,0.792,0,1.584-0.0721,2.448
		C210.9226,155.4904,210.7066,155.4904,210.4186,155.4904L210.4186,155.4904z M288.1786,154.6984c0-0.648,0-1.296,0.072-1.944
		c-0.216-0.36-0.432-0.72-0.72-1.152c0-0.36,0-0.792,0-1.224c0.504-0.504,0.504-0.504,3.24-1.368c1.944-0.216,1.944-0.216,3.888,0
		c1.872,1.008,1.872,1.008,2.592,1.8c-0.936,0.648-1.872,1.368-2.88,2.088C291.9946,153.8344,291.9946,153.8344,288.1786,154.6984
		L288.1786,154.6984z M162.8986,147.3544c-6.264-3.384-7.704-3.816-9.144-4.824c-1.224-0.432-1.656-0.936-6.696-2.88
		c-0.72-0.144-1.44-0.2881-2.16-0.432c-10.08-4.824-13.464-6.768-21.384-10.584c-5.04-2.88-5.04-2.88-16.344-8.64
		c-0.864-0.648-1.728-1.2961-2.592-1.944c-0.792-0.288-1.584-0.576-2.448-0.936c-6.696-3.816-6.696-3.816-9.576-5.76
		c-0.288-0.432-0.576-0.936-0.936-1.44c-3.6-1.872-7.2-3.816-10.8-5.7599c-2.664-1.944-4.608-2.88-5.04-3.384
		c-2.232-1.224-4.464-2.52-6.768-3.816c-1.656-1.224-3.312-2.52-5.04-3.816c-0.432-0.144-0.936-0.288-1.44-0.504
		c-5.04-3.816-7.2-5.76-9.36-7.2c-0.288-0.36-0.576-0.7921-0.936-1.224c-1.656-1.224-3.312-2.5201-5.04-3.816
		c-0.936-1.224-3.384-3.096-5.256-5.4c-0.792-0.648-1.584-1.2961-2.448-2.0161c-5.976-6.48-5.976-6.48-7.416-7.56
		c-2.808-3.5999-3.024-4.3199-4.248-5.544c-0.144-0.504-0.288-1.08-0.432-1.656c-1.944-2.6641-3.384-5.5439-3.888-5.976
		c-1.152-2.8799-1.152-2.8799-2.232-4.824c-1.944-0.576-3.96-1.152-5.976-1.8c-0.576-0.5759-1.152-1.1519-1.728-1.728
		c-4.536-1.8719-4.536-1.8719-7.2-3.312c-0.72-0.72-1.44-1.44-2.16-2.1601c-0.36-0.6479-0.72-1.296-1.08-2.0159
		c0-0.7921,0.072-1.584,0.144-2.448c0.216-0.072,0.432-0.216,0.72-0.36c0.936,0.072,1.872,0.144,2.88,0.2159
		c3.384,1.0081,4.104,1.44,6.48,1.944c2.376,1.224,4.752,2.52,7.2,3.816c6.552,14.328,6.552,14.328,7.416,15.624
		c0.288,0,0.576,0,0.864-0.072c0-0.2159,0-0.4319,0-0.72c-0.288-0.432-0.648-0.936-1.008-1.44
		c-3.816-8.928-4.752-10.584-5.112-12.024c0.432,0,0.936,0,1.44,0.0721c2.376,1.008,2.376,1.008,5.544,1.944
		c1.656,0.288,3.312,0.576,5.04,0.936c0.288,0.216,0.576,0.432,0.936,0.648c1.296,4.32,1.296,4.32,1.512,6.264
		c0.288,0.72,0.648,1.44,1.008,2.16c0.936,5.04,0.936,5.04,3.816,15.552c0.936,2.16,0.936,2.16,1.944,5.76
		c0.216,0.288,0.504,0.648,0.792,1.008c0.072-0.072,0.216-0.144,0.36-0.288c-0.072-0.504-0.144-1.08-0.216-1.656
		c-0.648-1.656-1.296-3.312-1.944-5.04c-3.816-15.6239-3.816-15.6239-5.76-22.536c0-0.432,0.072-0.864,0.144-1.368
		c0.72,0.072,1.44,0.144,2.16,0.2159c0.72,0.72,1.44,1.4401,2.16,2.16c0.576,0.288,1.152,0.648,1.728,1.008
		c0.72,0.72,1.44,1.44,2.16,2.16c0.504,0.288,1.08,0.576,1.656,0.936c1.944,1.8001,3.96,3.6721,5.976,5.544
		c0.36,0.144,0.792,0.2881,1.224,0.432c8.424,6.048,8.424,6.048,10.296,6.984c0.144,0.36,0.36,0.72,0.576,1.08
		c0.144,1.08,0.288,2.232,0.504,3.384c1.512,4.608,3.024,9.216,4.536,13.896c0,1.44,0,1.44-0.216,1.728
		c-5.544-3.888-8.064-6.0479-9-6.48c-0.36,0.216-0.36,0.216-0.36,1.152c0.792,0.792,1.584,1.584,2.376,2.448
		c2.88,2.232,5.832,4.464,8.784,6.696c1.296,3.816,2.592,7.632,3.96,11.5201c0.288,0,0.576,0,0.864,0.072
		c0.072-0.792,0.072-0.792-2.664-9.936c1.008,0.36,1.944,1.296,12.528,7.776c0.936,1.008,3.816,2.88,4.752,3.888
		c0.792,0.288,1.584,0.576,2.448,0.936c1.152,0.936,6.912,3.816,12.24,7.2c1.152,0.432,2.376,0.936,3.6,1.44
		c0.792,0.72,1.584,1.44,2.376,2.16c0.648,0.288,1.296,0.576,1.944,0.936c0.288,0.504,0.648,1.008,1.008,1.584
		c0.936,2.448,1.872,4.968,2.88,7.4879c0.288,0.216,0.576,0.432,0.864,0.72c0.072-0.072,0.216-0.144,0.36-0.288
		c-0.216-1.152-1.224-2.88-1.656-4.536c-0.288-0.216-0.288-0.216-1.08-3.096c0.648,0.072,1.296,0.144,1.944,0.288
		c0.72,0.288,1.44,0.648,2.16,1.008c0.72,0.576,1.44,1.224,2.16,1.872c3.384,1.584,6.84,3.168,10.296,4.824
		c0.936,0.648,1.872,1.296,2.88,1.944c11.736,5.76,11.736,5.76,20.376,10.512c1.008,0.288,2.088,0.648,3.168,1.008
		c1.008,0.576,2.016,1.224,3.096,1.872c0.36,0.6479,0.72,1.368,1.08,2.088c0.936,4.536,0.936,4.536,0.936,5.976
		C164.0506,147.3544,164.0506,147.3544,162.8986,147.3544L162.8986,147.3544z M269.8906,145.1944
		c-0.792-0.792-1.584-1.584-2.376-2.376c-4.104-2.88-5.0399-3.888-6.4799-4.824c-1.44-1.368-2.88-2.736-4.32-4.104
		c-3.384-1.872-5.256-3.312-9.36-5.76c-0.936-1.08-3.816-3.312-5.7599-5.256c-1.44-0.936-2.88-1.872-4.32-2.88
		c-0.936-1.224-0.936-1.224-2.376-2.16c-0.72,0-1.44,0-2.16-0.072c0-0.216,0-0.432,0.072-0.72c1.008-0.576,2.016-1.224,3.024-1.872
		c0.936,0,0.936,0,1.944,0.504c1.512,1.44,3.024,2.88,4.536,4.32c1.728,1.224,3.456,2.52,5.256,3.816
		c1.584,1.512,3.168,3.024,4.824,4.608c0.288,0.072,0.576,0.144,0.936,0.216c0.288-0.36,0.576-0.72,0.864-1.08
		c-0.288-1.656-0.288-1.656-0.144-7.344c0.216,0,0.432,0,0.72,0c3.6,3.168,4.608,3.6,6.48,5.04c7.2,3.384,8.64,4.32,13.464,6.264
		c0.432,0.288,0.936,0.576,1.44,0.936c0.072,6.624,0.072,6.624-0.144,9.504c-1.656,1.008-2.664,2.16-4.176,3.024
		C271.1866,145.0504,270.5386,145.1224,269.8906,145.1944L269.8906,145.1944z M314.3146,143.8984c0-0.792,0-1.584,0.072-2.376
		c1.44-2.16,1.44-2.16,2.088-2.5919c0.864-0.144,1.728-0.2881,2.6639-0.432c0.864-0.792,1.7281-1.584,2.592-2.448
		c2.592-0.792,5.256-1.584,7.92-2.376c0.288-0.288,0.6479-0.576,1.008-0.936c1.8,0.144,3.6,0.288,5.472,0.432
		c0.576-0.144,1.152-0.288,1.728-0.432c0.936-1.08,1.944-2.16,2.952-3.24c0.072-0.504,0.144-1.08,0.216-1.656
		c5.472-3.744,5.472-3.744,7.632-5.688c1.152-0.648,2.376-1.2961,3.6-1.944c2.16-0.576,4.3199-1.224,6.4799-1.872
		c4.752-2.16,4.752-2.16,5.472-2.16c0.576,0.864,1.152,1.8,1.8,2.736c0.072,0.432,0.144,0.936,0.216,1.44
		c-2.016,1.368-4.032,2.736-6.048,4.176c-0.72,0-1.44,0-2.16,0c-0.72,0.504-2.664,1.008-5.7599,2.88
		c-0.792,0.648-1.584,1.296-2.448,1.944c-2.16,0.936-3.312,1.944-5.976,3.384c-2.376,0.936-2.376,0.936-5.544,2.88
		c-0.288,0.288-0.576,0.576-0.936,0.936c-1.224,0.648-2.52,1.296-3.816,1.944
		C327.1306,140.2984,320.7226,142.0984,314.3146,143.8984L314.3146,143.8984z M275.2186,130.2904
		c-1.656-0.648-3.384-1.296-5.112-2.016c0.504-4.752,1.008-9.576,1.584-14.4c1.296-0.936,6.408-3.2401,6.84-3.744
		c1.44-0.432,1.44-0.432,5.0399-2.376c0.648,0,1.2961-0.072,1.944-0.144c-0.504,0.864-1.224,1.44-1.656,2.304
		c-0.576,0.432-1.224,0.864-1.872,1.368c0,0.36,0,0.72,0,1.152c0.36,0.288,0.72,0.576,1.152,0.864
		c0.72,0.0721,1.44,0.144,2.16,0.216c0.432-0.504,1.44-0.936,2.16-1.944c0.36-0.144,0.72-0.288,1.152-0.432
		c0.288-0.504,0.648-1.008,1.008-1.584c-0.144-0.144-0.288-0.36-0.504-0.576c-0.72-0.144-1.44-0.288-2.16-0.504
		c-0.288-0.216-0.576-0.504-0.864-0.792c0-0.216,0-0.432,0-0.72c0.72-0.648,1.44-1.296,2.16-1.944c0-0.504,0.072-1.08,0.144-1.656
		c0.648,0.0721,1.296,0.144,1.944,0.2881c7.92,3.888,9.36,4.968,11.952,6.0479c2.736,1.584,5.472,3.168,8.208,4.752
		c2.952,2.16,5.904,4.392,8.856,6.624c-0.072,0.072-0.144,0.216-0.216,0.36c-1.584-0.504-3.168-1.08-4.8239-1.656
		c-2.304-1.296-4.608-2.592-6.984-3.888c-1.224-0.432-2.52-0.936-3.816-1.44c-1.44,0-1.656,0.288-2.664,0.288
		c-0.792-0.288-1.584-0.648-2.376-1.008c-0.288-0.432-0.576-0.936-0.936-1.44c-0.72,0-0.72,0-3.384,1.44
		c-1.224,1.224-1.224,1.224-3.6,4.752c-1.224,0.432-1.656,1.008-6.48,2.952c-1.872,1.512-3.744,3.096-5.688,4.68
		c-0.576,1.368-1.224,2.736-1.872,4.104C276.0826,130.2184,275.6506,130.2184,275.2186,130.2904L275.2186,130.2904z
		 M335.9146,130.2904c-5.7599-3.816-7.7039-5.472-11.016-7.416c-1.008-0.936-2.88-1.944-5.544-4.104
		c-3.384-1.872-9.36-5.976-15.624-9.792c-7.632-3.888-7.632-3.888-15.12-7.2c-0.792-0.72-1.584-1.44-2.376-2.16
		c-1.512-0.648-3.024-1.296-4.536-1.944c-6.048-1.44-6.048-1.44-6.768-1.944c-0.936-0.288-1.872-0.648-2.88-1.008
		c0-0.216-0.072-0.432-0.144-0.72c1.584-0.864,1.584-0.864,7.128-2.808c0.288,0,0.576,0,0.936,0
		c0.504,0.504,0.504,0.504,4.824,2.376c1.152,0.792,2.376,1.584,3.6,2.448c1.368,0.648,2.736,1.296,4.104,2.016
		c3.6,2.5201,23.04,14.04,23.472,14.544c1.944,0.936,1.944,0.936,13.464,8.856c2.376,2.16,4.824,3.96,7.416,6.4799
		c0.36,0.072,0.72,0.216,1.08,0.36c0,0.576,0,1.152-0.072,1.8C337.2106,130.1464,336.5626,130.2184,335.9146,130.2904
		L335.9146,130.2904z M158.5786,129.1384c-3.096-1.584-6.192-3.168-9.36-4.8239c-0.288-0.288-0.648-0.576-1.008-0.936
		c-6.048-3.024-12.096-6.048-18.216-9.144c-0.936-0.288-1.872-0.576-2.88-0.936c-2.376-1.296-4.752-2.592-7.2-3.888
		c-0.936-0.288-1.872-0.576-2.88-0.936c-1.44-0.792-2.88-1.584-4.32-2.376c-0.576-1.584-1.152-3.24-1.8-4.896
		c-1.44-6.048-1.44-6.048-1.728-6.48c0-1.08,0-2.232-0.072-3.384c0.936,0.216,1.872,0.504,2.88,0.792
		c0.936,0.648,1.872,1.296,2.88,1.944c0.504,0.144,1.08,0.288,1.656,0.504c8.208,4.536,8.64,5.04,36.288,19.872
		c0.36,0.36,0.72,0.792,1.152,1.224c0.864,0.504,1.728,1.008,2.664,1.584c1.08,4.104,1.512,6.984,2.016,7.92
		c0.216,1.224,0.432,2.52,0.72,3.816C159.1546,128.9944,158.8666,129.0664,158.5786,129.1384L158.5786,129.1384z M266.7946,126.6904
		c-3.384-1.872-3.384-1.872-5.7599-2.88c-1.224-0.936-2.5201-1.872-3.816-2.88c-1.296-1.2961-2.592-2.664-3.888-4.032
		c0-0.288-0.072-0.576-0.144-0.864c4.032-1.8,4.032-1.8,5.472-2.016c1.224-0.792,2.52-1.584,3.816-2.448
		c1.944-0.216,1.944-0.216,2.1599-0.432c1.44,0.216,1.44,0.216,2.664,0.72c1.008,0,2.0161,0.0721,3.096,0.144
		c-0.36,2.16-0.36,4.32-1.8,14.4C268.2346,126.6904,268.2346,126.6904,266.7946,126.6904L266.7946,126.6904z M339.7306,126.4744
		c-0.792-0.144-1.584-0.288-2.376-0.504c-2.16-1.872-4.3199-3.312-5.5439-4.536c-1.44-0.936-1.44-0.936-1.872-1.584
		c-5.04-2.952-6.048-3.96-9.36-5.832c-0.4319-0.36-0.936-0.792-1.44-1.224c-19.008-11.016-20.16-12.024-26.9279-15.84
		c-0.432-0.504-0.432-0.504-9.36-5.76c0-0.216,0-0.504,0-0.792c0.72-0.288,1.44-0.576,2.16-0.864
		c10.8-2.448,10.8-2.448,11.5201-2.88c0.576,0.072,1.152,0.144,1.728,0.216c2.592,1.944,5.7599,3.8159,6.912,4.8239
		c0.36,0.144,0.792,0.288,1.224,0.432c0.144,0.216,0.288,0.432,0.504,0.72c6.192,3.888,6.192,3.888,12.96,7.704
		c11.2321,8.424,12.2401,8.856,13.1761,9.864c5.256,3.816,5.256,3.816,7.92,6.192c0.36,0.144,0.792,0.288,1.224,0.504
		c1.728,1.368,3.456,2.736,5.256,4.176c-0.432,0.576-0.936,1.152-1.44,1.8c-3.096,2.16-3.096,2.16-5.256,3.168
		C340.4506,126.3304,340.0906,126.4024,339.7306,126.4744L339.7306,126.4744z M198.6106,125.7544
		c-0.792-0.288-1.584-0.576-2.376-0.936c-0.36-0.288-0.792-0.648-1.224-1.008c-2.16-0.792-2.16-0.792-2.52-1.296
		c0-0.216,0-0.432-0.072-0.72c1.44-0.36,1.44-0.36,5.04-2.304c0.432-0.0721,0.936-0.144,1.44-0.216
		c4.032,1.944,4.032,1.944,5.76,2.376c0.144,0.2159,0.288,0.4319,0.432,0.6479c-0.936,0.648-1.872,1.2961-2.88,2.0161
		C199.1146,125.7544,199.1146,125.7544,198.6106,125.7544L198.6106,125.7544z M378.1786,122.3704
		c-5.04-0.936-5.04-0.936-6.4799-1.44c-0.216-0.36-0.432-0.72-0.72-1.152c-0.792-0.144-1.584-0.288-2.448-0.504
		c-0.72-0.576-0.72-0.576-2.592-3.096c0-0.648-0.072-1.296-0.144-2.016c0.288-1.296,0.576-2.592,0.936-3.888
		c0.36-0.072,0.72-0.216,1.08-0.36c3.384,1.944,3.384,1.944,5.76,2.88c2.088,0.504,4.176,1.08,6.264,1.656
		c9.36,0,9.36,0,10.296-0.288c0,1.08,0.072,2.16,0.144,3.312c-0.216,1.008-0.432,2.088-0.72,3.168
		c-0.36,0.2881-0.72,0.576-1.08,0.936C385.0906,121.7944,381.6346,122.0824,378.1786,122.3704L378.1786,122.3704z
		 M187.8106,119.7784c-0.792-0.648-1.584-1.296-2.376-1.944c-0.432-0.648-0.936-1.296-1.44-2.016c0-1.224-0.072-2.5201-0.144-3.816
		c0.936-2.88,0.936-2.88,2.88-6.768c1.656-1.872,3.312-3.816,5.04-5.76c0.936-0.576,1.872-1.152,2.808-1.8
		c1.296-0.504,2.664-1.08,4.032-1.656c5.544,0.216,5.544,0.216,9.648,0.72c0.864,0.432,1.728,0.936,2.592,1.44
		c0.72,0.144,1.44,0.288,2.16,0.432c4.32,1.944,4.32,1.944,8.28,4.248c0.216,0.504,0.432,1.08,0.72,1.656
		c-0.072,0.288-0.144,0.648-0.216,1.008c-0.4319,0.216-0.864,0.504-1.296,0.792c-5.544,1.656-5.76,1.944-7.2,2.376
		c-0.576,0.288-1.1519,0.648-1.728,1.008c-1.152,0.288-2.376,0.576-3.6,0.936c-0.144,0.216-0.288,0.432-0.432,0.72
		c-0.864,0.288-1.728,0.576-2.664,0.936c-7.416,3.888-7.416,3.888-13.896,6.768
		C189.9706,119.2744,188.8906,119.4904,187.8106,119.7784L187.8106,119.7784z M214.7386,118.4824c0-0.648-0.072-1.296-0.144-1.944
		c-0.864-1.008-1.728-2.016-2.664-3.096c0.072-0.288,0.216-0.576,0.36-0.864c0.648,0,1.2961,0,1.944,0.0721
		c0.288,0.4319,0.576,0.864,0.936,1.368c0.288,0.144,0.648,0.288,1.008,0.432c0.648,0.648,1.368,1.368,2.088,2.088
		c0,0.216,0.072,0.432,0.144,0.72C217.8346,117.7624,217.8346,117.7624,214.7386,118.4824L214.7386,118.4824z M293.4346,117.0424
		c0-0.216,0-0.432,0.072-0.72c0.576-0.432,1.224-0.864,1.872-1.368c0.504,0,1.08,0,1.656,0c0.144,0.144,0.288,0.288,0.504,0.504
		c-0.936,0.432-1.872,0.936-2.88,1.44C294.2986,116.8984,293.8666,116.9704,293.4346,117.0424L293.4346,117.0424z
		 M250.7386,115.1704c-2.448-1.872-3.888-3.6-7.2-5.976c0-0.216-0.072-0.504-0.144-0.792c6.84-2.304,6.84-2.304,11.16-4.248
		c1.008-0.648,2.0159-1.2961,3.096-1.944c1.8-1.8,3.672-3.6,5.544-5.472c1.944,0,2.376-0.288,5.76-0.504
		c0.144-0.144,0.288-0.288,0.504-0.504c0.432,0,0.936,0,1.44,0c1.944,1.008,3.96,2.016,5.976,3.024
		c-2.88,2.016-2.88,2.016-4.824,3.024c-1.944,1.584-3.96,3.168-5.976,4.752c-0.864,1.368-0.864,1.368-1.368,2.808
		c-0.648,0.216-1.296,0.504-2.016,0.792c-1.152,1.008-2.88,1.944-3.312,2.448c-2.88,0.936-4.608,1.152-5.328,1.656
		C252.9706,114.5224,251.8906,114.8104,250.7386,115.1704L250.7386,115.1704z M228.6346,114.1624c-0.072-0.72-0.216-1.44-0.36-2.16
		c-1.728-1.008-1.728-1.008-3.168-2.448c0-0.36,0-0.72-0.072-1.152c0.864-0.144,1.728-0.288,2.664-0.432
		c1.584,1.152,3.168,2.376,4.752,3.6c0,0.36,0.072,0.72,0.144,1.152C231.2986,113.1544,230.0026,113.6584,228.6346,114.1624
		L228.6346,114.1624z M380.5546,113.0104c-2.88-0.792-5.76-1.584-8.64-2.376c-0.504-0.504-0.504-0.504-2.376-1.44
		c-0.288-0.36-0.576-0.72-0.864-1.08c0.072-0.36,0.144-0.72,0.216-1.152c0.36-0.36,0.72-0.792,1.08-1.224
		c3.384-0.144,3.6,0.072,5.328,0.072c2.16,0.504,2.16,0.504,5.256,0.72c5.544,1.44,5.544,1.44,7.92,2.448
		c0.504,0.576,1.08,1.152,1.6559,1.8c0,0.36,0.072,0.792,0.144,1.224c-0.504,0.216-1.008,0.504-1.584,0.792
		C386.8186,113.0104,385.0906,112.7944,380.5546,113.0104L380.5546,113.0104z M267.2986,110.4184
		c-0.216-0.144-0.4319-0.288-0.72-0.504c-0.144-0.792-0.144-0.792,0.2881-2.232c1.1519-1.008,2.376-2.088,3.6-3.168
		c1.152-0.72,2.304-1.512,3.528-2.304c0.216,0,0.432,0.072,0.72,0.144c-0.648,0.648-1.296,1.2961-1.944,2.0161
		c-0.504,0.864-1.008,1.728-1.584,2.592c-0.144,1.08-0.288,2.16-0.432,3.312C269.6026,110.2744,268.4506,110.3464,267.2986,110.4184
		L267.2986,110.4184z M293.4346,109.4104c-0.72-0.288-1.44-0.576-2.16-0.936c0-0.432-0.072-0.864-0.144-1.296
		c0.648-0.36,0.648-0.36,2.808-0.36c0.36,0.288,0.72,0.576,1.152,0.936c0,0.288,0.072,0.576,0.144,0.864
		C294.1546,109.4104,294.1546,109.4104,293.4346,109.4104L293.4346,109.4104z M241.0906,106.6744
		c-2.88-2.304-2.88-2.304-6.192-4.464c-0.288,0-0.648,0-1.008-0.0721c-0.072-0.432-0.144-0.864-0.216-1.368
		c-0.432-0.144-0.936-0.288-1.44-0.432c-0.288-0.504-0.576-1.008-0.864-1.584c-1.2961-0.864-2.592-1.8-3.96-2.736
		c-0.432-0.144-0.936-0.288-1.44-0.504c-0.144-0.792-0.144-0.792,0.504-2.52c0.36-0.288,0.72-0.576,1.08-0.936
		c0.432-0.864,0.936-1.728,1.44-2.664c1.296-1.008,2.592-2.016,3.96-3.024c1.224-0.0721,2.5201-0.144,3.816-0.216
		c5.544,0.936,7.2,1.44,18.288,3.384c8.352,3.816,8.352,3.816,8.712,4.176c-0.072,0.288-0.144,0.6479-0.216,1.008
		c-2.016,1.872-4.032,3.816-6.048,5.76c-2.592,1.872-2.592,1.872-6.048,3.672c-5.04,1.656-5.04,1.656-9.144,2.664
		C241.9546,106.8184,241.5226,106.7464,241.0906,106.6744L241.0906,106.6744z M280.2586,106.4584c0-0.432-0.072-0.936-0.144-1.44
		c0.576-0.072,1.152-0.144,1.8-0.216c-0.36,0.936-0.36,0.936-0.864,1.44C280.8346,106.3144,280.5466,106.3864,280.2586,106.4584
		L280.2586,106.4584z M285.0106,105.2344c0.216-0.792,0.432-1.584,0.72-2.376c0.288,0.0721,0.576,0.144,0.864,0.216
		c0,0.576,0,1.152,0,1.728C286.2346,105.0904,286.2346,105.0904,285.0106,105.2344L285.0106,105.2344z M110.0506,104.8744
		c-4.32-1.944-16.776-8.64-20.88-10.584c-2.376-1.44-3.816-1.872-5.256-2.88c-3.168-1.584-6.336-3.168-9.576-4.752
		c-0.72-0.648-1.44-1.296-2.16-1.944c-1.728-5.04-3.456-10.08-5.184-15.192c-0.072-1.296-0.216-2.592-0.36-3.888
		c2.16,0.864,3.384,1.8,6.984,3.744c11.736,7.632,11.736,7.632,15.336,10.296c2.16,0.936,2.16,0.936,6.264,3.384
		c2.16,1.656,2.16,1.656,7.416,4.536c0.864,0.288,1.728,0.576,2.664,0.936c0.72,0.504,1.44,1.008,2.16,1.584
		c0.576,3.024,1.152,6.048,1.728,9.144c0.432,1.4399,0.936,2.8799,1.44,4.3199c0,0.36,0,0.7921,0,1.224
		C110.2666,105.0184,110.2666,105.0184,110.0506,104.8744L110.0506,104.8744z M225.5386,104.1544
		c-0.288-0.0721-0.648-0.144-1.008-0.216c-0.144-0.216-0.288-0.432-0.432-0.648c0-1.296-0.072-2.664-0.144-4.032
		c0.144-0.648,0.36-1.296,0.576-1.944c0.648,0,1.296,0.072,1.944,0.144c1.224,1.008,2.448,2.016,3.672,3.024
		c0.072,0.504,0.144,1.08,0.288,1.656c-1.152,0.576-2.304,1.152-3.456,1.8C226.5466,104.0104,226.0426,104.0824,225.5386,104.1544
		L225.5386,104.1544z M220.7146,100.7704c-2.376-0.936-3.816-1.872-7.416-3.312c-1.944-0.504-1.944-0.504-5.04-1.944
		c-1.872-0.216-3.816-0.504-5.76-0.792c0.072-0.288,0.144-0.576,0.216-0.864c6.984-1.944,6.984-1.944,8.64-2.16
		c1.152,0.288,2.376,0.576,3.6,0.936c6.984,2.88,6.984,2.88,7.272,3.24c-0.216,1.44-0.432,2.88-0.72,4.32
		C220.9306,100.9144,220.9306,100.9144,220.7146,100.7704L220.7146,100.7704z M222.3706,93.8584c-2.376-0.936-4.752-1.872-7.2-2.88
		c0-0.36,0-0.72,0-1.08c1.44-0.576,2.88-1.152,4.32-1.8c2.448-0.144,4.968-0.288,7.488-0.504c0.072,0.072,0.144,0.216,0.216,0.36
		c-1.8,3.384-1.8,3.384-3.6,5.904C223.2346,93.8584,222.8026,93.8584,222.3706,93.8584L222.3706,93.8584z M265.5706,92.1304
		c-7.2-3.312-7.2-3.312-9.072-3.816c-0.072-0.36-0.144-0.72-0.288-1.08c2.736-1.008,5.472-2.016,8.208-3.024c0.504,0,1.08,0,1.656,0
		c6.264,2.88,6.264,2.88,7.92,3.96c0.504,0.648,1.224,0.864,1.44,1.224c-0.216,0.36-5.04,1.296-8.64,2.736
		C266.4346,92.1304,266.0026,92.1304,265.5706,92.1304L265.5706,92.1304z M277.5946,88.8184c-6.696-3.888-6.696-3.888-8.64-4.6801
		c0-0.288,0-0.576,0-0.864c3.672-1.224,7.344-2.52,11.016-3.816c1.08,0,2.232,0,3.384,0c3.816,1.872,6.984,3.816,8.424,4.32
		c0.216,0.144,0.432,0.36,0.72,0.576c-0.72,0.576-2.448,1.08-3.168,1.584c-7.416,1.872-7.416,1.872-10.08,2.88
		C278.7466,88.8184,278.1706,88.8184,277.5946,88.8184L277.5946,88.8184z M247.5706,86.1544c-0.144-0.216-0.36-0.504-0.576-0.7921
		c0-1.44,0-2.88,0-4.32c0.576-0.432,0.576-0.432,6.12-2.088c0.864,0,1.728,0,2.664,0c0.504,0.36,1.0799,0.792,1.656,1.224
		c1.44,0.432,1.656,0.72,2.88,1.152c0.144,0.216,0.288,0.432,0.504,0.648c-0.144,0.144-0.288,0.36-0.504,0.576
		c-6.696,1.944-6.696,1.944-10.584,3.384C249.0106,86.0104,248.2906,86.0824,247.5706,86.1544L247.5706,86.1544z M243.0346,85.6504
		c-0.792-0.216-1.584-0.432-2.376-0.72c-0.72,0-1.44,0-2.16-0.0721c0.144-0.36,0.288-0.72,0.432-1.08
		c1.656-0.576,3.312-1.152,5.04-1.728c0.504,0,1.008,0.072,1.584,0.144c0,1.152-0.072,2.304-0.144,3.456
		C244.6186,85.6504,243.8266,85.6504,243.0346,85.6504L243.0346,85.6504z M229.8586,84.4984c-5.76-1.944-5.76-1.944-14.904-4.32
		c-11.304-3.888-11.304-3.888-13.176-4.32c-0.432-0.576-0.432-0.576-2.088-8.496c-0.72-5.328-1.224-6.984-1.656-12.24
		c-0.288-0.504-0.288-0.504-0.144-1.584c1.08,0.216,2.232,0.432,3.384,0.72c4.32,1.8719,4.32,1.8719,11.736,5.7599
		c9.36,3.816,13.4641,5.76,18.288,7.632c1.152,0.648,2.376,1.296,3.6,1.944c6.48,2.376,6.48,2.376,9.576,3.816
		c0.36,0.288,0.792,0.576,1.224,0.864c-0.144,0.144-0.288,0.36-0.504,0.576c-0.072,1.44-0.144,2.88-0.216,4.32
		c-5.328,1.944-7.2,2.88-8.928,3.384c-0.432,0.504-0.432,0.504-2.592,1.44C232.3066,84.1384,231.0826,84.2824,229.8586,84.4984
		L229.8586,84.4984z M184.9306,83.6344c-0.072-0.504-0.216-1.08-0.36-1.656c-0.36-0.288-0.72-0.576-1.08-0.936
		c-2.376-1.152-4.752-2.304-7.2-3.528c-3.6-0.936-4.536-1.44-11.016-3.384c-2.16-0.936-5.76-2.016-5.976-2.376
		c-5.76-1.6559-6.048-1.9439-7.2-2.1599c-0.288-0.2161-0.648-0.432-1.008-0.72c-4.32-0.9361-10.08-2.88-14.4-3.816
		c-0.216-0.288-2.16-0.72-2.376-1.008c-3.384-0.432-3.384-0.432-7.704-1.44c-2.376-0.936-2.376-0.936-13.176-3.6
		c-1.584-0.144-3.168-0.288-4.824-0.432c-2.376-1.008-2.376-1.008-5.76-1.728c-5.76-0.216-5.76-0.216-7.632-0.576
		c0.072-0.36,0.144-0.7201,0.288-1.152c2.592-0.144,3.024,0.072,6.624,0.288c2.232,0.648,4.464,1.296,6.768,1.944
		c1.584,0.144,3.168,0.288,4.752,0.504c14.904,3.816,14.904,3.816,16.128,4.32c1.224,0.144,2.52,0.288,3.816,0.432
		c1.728,0.648,3.456,1.296,5.256,1.944c1.44,0,2.664,0.504,10.368,1.656c0.504,0.288,1.08,0.648,1.656,1.008
		c1.944,0.432,2.664,0.936,5.256,1.44c0.504,0.432,4.32,1.4401,6.264,2.376c2.88,0.936,4.536,1.944,6.984,2.88
		c0.432,0.072,0.936,0.144,1.44,0.216c0.864,0.432,1.728,0.936,2.592,1.44c0.936,0.144,1.872,0.288,2.88,0.504
		c3.6,1.944,3.6,1.944,8.208,3.816c0.576,0.648,1.152,1.368,1.728,2.088c-0.072,0.504-0.144,1.08-0.216,1.656
		C185.6506,83.6344,185.2906,83.6344,184.9306,83.6344L184.9306,83.6344z M263.4106,81.3304c-1.728-0.792-3.456-1.584-5.256-2.448
		c0-0.216,0-0.432,0-0.72c0.72-0.432,0.72-0.432,3.6-0.864c9.36-0.504,9.36-0.504,12.456-0.288c0.288,0.144,0.576,0.288,0.936,0.432
		c0,0.216,0.072,0.432,0.144,0.72c-1.8,0.792-1.8,0.792-9,2.736C265.3546,81.0424,264.4186,81.1864,263.4106,81.3304
		L263.4106,81.3304z M246.4186,78.4504c-0.144-0.432-0.288-0.864-0.432-1.296c0-0.864,0.072-1.728,0.144-2.592
		c2.664,0.792,2.664,0.792,4.32,1.728c0.216,0.288,0.432,0.576,0.72,0.864c-0.144,0.144-0.288,0.36-0.432,0.576
		C249.0106,78.2344,249.0106,78.2344,246.4186,78.4504L246.4186,78.4504z M198.6106,74.6344c-1.728-0.648-3.456-1.296-5.256-1.944
		c-1.656-0.288-3.312-0.576-5.04-0.936c-5.76-1.9439-5.76-1.9439-8.856-3.3839c-4.464-1.224-8.928-2.52-13.464-3.816
		c-8.136-1.656-9.36-1.656-12.744-2.5201c-0.36-1.008-0.72-2.016-1.08-3.096c-0.288-1.728-0.576-3.4559-0.936-5.256
		c-1.008-2.16-1.008-2.16-1.944-5.04c-0.792-4.032-1.656-8.136-2.52-12.24c0.864,0.072,1.728,0.144,2.664,0.288
		c2.664,1.008,17.064,5.0399,29.016,8.9279c5.904,2.16,11.808,4.3921,17.784,6.624c0.36,1.512,0.72,3.024,1.08,4.536
		c0,1.0081,0,2.016,0,3.096c0.72,3.888,1.44,7.848,2.16,11.808c0,0.936-0.072,1.944-0.144,2.952
		C199.1146,74.6344,198.8986,74.6344,198.6106,74.6344L198.6106,74.6344z M148.7146,61.1704c-12.456-1.872-12.456-1.872-24.984-4.32
		c-0.432-0.216-0.936-0.432-1.44-0.72c-3.312-0.432-3.312-0.432-10.512-2.16c-2.088-0.216-4.176-0.432-6.264-0.72
		c-2.232-0.5759-4.536-1.152-6.84-1.728c-0.648-1.728-1.296-3.5281-1.944-5.328c-0.072-0.576-0.144-1.224-0.216-1.872
		c-1.944-4.824-3.888-11.088-4.824-12.96c-0.432-1.4401-0.936-2.88-1.44-4.3201c-0.072-1.08-0.216-2.232-0.36-3.384
		c1.872,0.2159,3.816,0.504,5.76,0.792c8.424,1.944,8.424,1.944,9.36,2.4481c4.608,0.792,9.288,1.584,13.968,2.376
		c0.504,0.2879,1.08,0.576,1.656,0.936c0.936,0,1.872,0,2.88,0c5.976,1.008,5.976,1.008,13.464,2.88
		c2.592,0.792,5.256,1.584,7.92,2.448c0.216,0.504,0.504,1.008,0.792,1.584c0.936,5.04,0.936,5.04,2.88,12.96
		c0.432,1.008,0.936,2.016,1.44,3.0959c1.44,7.2,1.44,7.2,1.368,7.992C150.5146,61.1704,149.6506,61.1704,148.7146,61.1704
		L148.7146,61.1704z M96.1546,51.3784c-1.008-0.0721-2.016-0.144-3.096-0.288c-0.792-0.288-1.584-0.576-2.448-0.936
		c-2.88-0.2161-4.032-0.7201-17.28-2.6641c-1.008-0.288-2.016-0.5759-3.096-0.936c-7.92-0.936-10.296-1.4399-16.776-1.944
		c-4.896-0.7919-9.792-1.5839-14.688-2.376c-1.512-1.512-3.024-3.024-4.536-4.5359c-0.936-1.8-1.8-4.4641-2.304-5.184
		c-1.224-4.824-2.52-9.72-3.816-14.616c-0.648-1.656-1.296-3.312-1.944-5.04c0-0.432,0.072-0.864,0.144-1.368
		c5.976,1.512,11.952,3.024,18,4.608c9.72,1.224,19.512,2.52,29.304,3.816c4.608,0.936,9.216,1.872,13.896,2.88
		c0.216,0.288,0.432,0.5759,0.72,0.864c0.792,3.096,0.792,3.096,2.736,8.64c0.288,0.504,0.576,1.0801,0.936,1.6561
		c1.008,3.888,1.008,3.888,4.824,15.408c0.072,0.5759,0.144,1.224,0.216,1.8719C96.7306,51.2344,96.4426,51.3063,96.1546,51.3784
		L96.1546,51.3784z M30.1306,41.0104c-2.376-0.36-2.376-0.36-2.592-0.72c-2.16-0.7921-4.32-1.584-6.48-2.376
		c-0.576-1.08-1.224-2.16-1.872-3.24c-0.576-1.584-1.224-3.168-1.872-4.7521c-6.768-12.96-7.704-15.408-8.208-15.84
		c-0.936-1.944-0.936-1.944-1.512-4.104c0.36,0,0.792,0,1.224,0.072c1.44,1.0079,5.256,2.88,8.352,4.8239
		c1.296,0.6481,2.592,1.2961,3.888,1.9441c0.648,0.648,1.296,1.296,2.016,2.016c0.432,1.6559,0.936,3.312,1.44,5.0399
		c1.224,2.5921,2.52,5.2561,3.816,7.9201c1.368,1.8,2.736,3.672,4.104,5.5439c0.936,3.0959,0.936,3.0959,0.864,3.6721
		C32.2906,41.0104,31.2106,41.0104,30.1306,41.0104L30.1306,41.0104z M28.9786,30.4983c-0.576-0.864-1.224-1.7999-1.872-2.736
		c-1.872-4.824-1.872-4.824-2.88-8.64c-0.576-1.008-1.224-2.088-1.872-3.168c-1.08-0.864-5.4-2.736-8.28-4.68
		c-5.04-2.88-5.04-2.88-7.416-3.816c-0.936-0.6481-1.872-1.368-2.88-2.0881c-0.288-0.432-0.648-0.864-1.008-1.296
		c0-0.432-0.072-0.864-0.144-1.296c0.432-0.288,0.864-0.576,1.368-0.864c1.008,0.0719,2.016,0.1439,3.096,0.216
		c3.168,1.944,3.168,1.944,10.8,5.7599c4.824,1.944,4.824,1.944,5.184,2.304c0.144,0.576,0.288,1.152,0.432,1.728
		c0.288,0.144,0.576,0.288,0.864,0.432c0.288,0.4321,0.576,0.936,0.864,1.4401c1.872,7.7039,1.872,7.7039,2.88,10.368
		c0.36,2.0159,0.72,4.104,1.152,6.192C29.1946,30.3544,29.1226,30.4264,28.9786,30.4983L28.9786,30.4983z"/>
</g>
</svg>
