<?xml version="1.0" encoding="utf-8"?>
<!-- Generator: Adobe Illustrator 21.1.0, SVG Export Plug-In . SVG Version: 6.00 Build 0)  -->
<svg version="1.1" id="Sea" xmlns="http://www.w3.org/2000/svg" xmlns:xlink="http://www.w3.org/1999/xlink" x="0px" y="0px"
	 viewBox="0 0 525.24 191.376" enable-background="new 0 0 525.24 191.376" xml:space="preserve">
<g>
	<path fill-rule="evenodd" clip-rule="evenodd" d="M231.12,191.376c-4.464-0.288-8.928-0.576-13.392-0.936c-2.52,0-5.112,0-7.7039,0
		c-5.04,0.504-5.04,0.504-12.456,0.72c-0.432-0.144-0.936-0.288-1.44-0.504c-0.72-0.7921-0.72-0.7921-1.152-2.0161
		c0-1.152,0-1.152,0.504-2.376c2.376-0.288,4.752-0.576,7.128-0.864c3.6-0.936,3.6-0.936,3.816-1.296
		c-0.72-0.36-0.72-0.36-3.384-0.648c-3.384-0.072-6.84-0.144-10.296-0.216c-0.72-0.288-1.44-0.576-2.16-0.936
		c-0.288-1.224-0.576-2.448-0.936-3.744c-4.104-0.36-4.104-0.36-5.544-0.864c-0.504-0.432-1.08-2.016-1.656-2.376
		c-5.04-0.216-5.04-0.216-12.528,0c-0.504-0.288-1.08-0.576-1.656-0.936c-0.936-1.8-0.936-1.8-1.368-3.456
		c-0.216-0.144-0.504-0.288-0.792-0.432c-4.536,0-10.08,0.504-12.96,0.504c-0.216-0.072-0.432-0.144-0.72-0.216
		c-0.288-0.432-0.576-0.864-0.864-1.296c0-0.648,0-1.296,0-1.944c0.144-0.288,0.288-0.576,0.504-0.936
		c4.176-0.144,4.176-0.144,5.904-0.432c0.216-0.36,0.216-0.36,0-0.72c-2.232,0-4.464,0-6.768,0
		c-3.672-0.576-7.344-1.224-11.016-1.872c-0.936-0.504-0.936-0.504-3.384-1.008c-4.68-0.36-9.36-0.72-14.112-1.152
		c-5.112,0-10.224,0-15.408,0c-0.504-0.36-1.08-0.792-1.656-1.224c-0.288-0.432-0.576-0.936-0.936-1.44
		c-1.944,0.216-2.448,0.504-10.368,0.936c-3.456,0.36-6.984,0.7921-10.512,1.224c-0.36-0.072-0.792-0.144-1.224-0.216
		c-0.864-1.08-0.864-1.08-1.368-2.52c0.216-0.576,0.432-1.152,0.648-1.8c6.264-0.504,9.36-1.008,17.064-1.44
		c1.152-0.504,1.152-0.504,1.656-1.008c1.368-0.216,2.736-0.432,4.104-0.72c0.072-0.0721,0.144-0.216,0.216-0.36
		c-1.872,0-3.816,0-5.76-0.072c-0.936-0.504-0.936-0.504-1.656-1.44c-1.656-0.072-3.312-0.144-5.04-0.288
		c-0.432-0.432-0.936-0.864-1.44-1.2961c-0.576-0.072-1.152-0.216-1.728-0.36c-1.512,0-3.024,0.072-4.536,0.144
		c-0.072,0.72-0.216,1.44-0.36,2.16c-0.144,0.0721-0.36,0.216-0.576,0.36c-0.648-0.072-1.296-0.144-1.944-0.288
		c-0.648-0.432-1.296-0.864-1.944-1.2961c-0.36-1.152-0.36-1.152-0.36-3.6c0.576-0.504,1.152-1.008,1.8-1.584
		c2.16-0.432,2.16-0.432,2.448-0.792c-0.144-0.288-0.288-0.576-0.432-0.936c-0.288-0.144-0.648-0.288-1.008-0.432
		c-3.024,0.0721-6.048,0.144-9.144,0.288c-0.504-0.288-1.08-0.6479-1.656-1.008c-0.576,0-1.152,0-1.728,0
		c-1.008,0.648-2.016,1.2961-3.096,1.944c0,0.72-0.072,1.512-0.144,2.304c-0.144,0.072-0.36,0.216-0.576,0.36
		c-1.512,0-3.024,0-4.536,0c-0.936-0.144-1.872-0.288-2.88-0.504c-5.544,0.216-6.768,0.504-9.144,0.504
		c-0.288-0.144-0.576-0.288-0.936-0.504c-0.288-0.432-0.648-0.936-1.008-1.44c-6.912-0.216-8.136-0.504-23.256-0.72
		c-0.36-0.144-0.792-0.288-1.224-0.504c-0.936-1.296-0.936-1.296-1.296-2.448c0.072-0.36,0.144-0.792,0.216-1.224
		c1.584-1.08,1.584-1.08,4.248-2.088c0.864-0.144,1.728-0.288,2.592-0.432c0.144-0.216,0.288-0.432,0.504-0.648
		c-0.792,0-1.584,0-2.376-0.072c-1.152-0.288-2.376-0.648-3.6-1.008c-0.36-0.432-0.792-0.864-1.224-1.2961
		c-8.424-0.36-9.36-0.144-18.72-0.36c-2.16-0.936-2.16-0.936-2.88-1.584c-0.144-0.288-0.288-0.576-0.504-0.936
		c0.288-0.288,0.648-0.576,1.008-0.864c3.816,0,6.696,0.288,10.8,0.288c2.664-0.144,5.4-0.288,8.136-0.504
		c1.224-0.288,2.52-0.576,3.816-0.936c0.576-0.288,1.152-0.648,1.728-1.008c0.72-0.144,1.44-0.288,2.16-0.432
		c0-0.288,0-0.576,0.072-0.864c-0.504-0.432-0.936-1.44-2.736-3.312c-2.16-0.864-2.16-0.864-3.384-1.872
		c-2.952-0.432-5.904-0.936-8.856-1.44c-0.432-0.216-0.864-0.504-1.368-0.792c-0.936-2.88-1.44-3.6-1.44-4.32
		c0.288-0.288,0.648-0.576,1.008-0.9359c1.8-0.432,1.8-0.432,3.456-0.432c1.224,0.288,1.224,0.288,10.8,0.288
		c0.576-0.144,1.152-0.288,1.728-0.504c0-0.576,0-1.152,0.072-1.8c-0.288-1.512-0.576-3.024-0.936-4.536
		C25.56,97.92,25.056,94.32,24.84,85.968c-0.504-0.72-0.504-0.72-0.504-1.44c3.312-3.744,6.696-7.488,10.08-11.304
		C34.92,72,34.92,72,35.424,71.568c1.296-0.144,2.736,0.288,6.336,0.576c14.184-0.504,23.04-0.504,24.48-0.72
		c4.32,0.072,8.64,0.144,12.96,0.216c0.648,0.144,1.296,0.288,1.944,0.504c1.944,0,3.96,0,5.976,0
		c0.576-0.144,1.152-0.288,1.728-0.504c1.44-1.44,1.44-1.44,2.88-2.376c4.32-1.944,7.416-3.888,13.176-6.768
		c1.008-0.288,2.016-0.576,3.096-0.936c1.08-0.648,2.232-1.296,3.384-1.944c2.304-0.864,4.68-1.8,7.056-2.736
		c-0.072-0.576-0.144-1.224-0.216-1.872c-1.008-1.728-1.008-1.728-4.824-10.8c-1.224-3.816-2.52-7.632-3.816-11.52
		c-1.008-1.728-1.008-1.728-1.944-4.104c-0.144-0.72-0.288-1.44-0.504-2.16c0.288-2.376,0.288-2.376,0.72-3.384
		c-0.432-9.576-0.432-9.576-0.216-14.4c0.936-3.6,1.224-3.816,1.944-7.92c0.216-0.216,0.504-0.432,0.792-0.72
		c0.864,0.504,0.864,0.504,1.08,1.008c-0.216,7.416-0.216,7.416,0,14.616c0.216,1.5119,0.432,3.024,0.648,4.5359
		c1.656,0.144,1.656,0.144,25.416-0.36c0.216-0.144,0.432-0.288,0.72-0.504c0.504-4.464,1.008-9,1.584-13.536
		c0.432-0.504,0.864-1.0079,1.296-1.584c0.36,0,0.792,0,1.224,0c0.072,0.2159,0.216,0.432,0.36,0.6479
		c-0.576,4.0321-1.152,8.1361-1.728,12.2401c0.072,0.72,0.144,1.44,0.288,2.16c2.736,0.36,2.736,0.36,9.216,0.36
		c0.432-0.6479,0.936-1.296,1.44-1.944c1.008-0.216,1.008-0.216,6.48,0.216c1.44,0.504,1.44,0.504,1.8,0.864
		c0.072,0.648,0.216,1.296,0.36,1.944c1.656,0.432,3.312,0.864,5.04,1.296c1.08,0.072,2.232,0.144,3.384,0.216
		c1.152,0.432,2.304,0.864,3.456,1.368c0.144,0.648,0.288,1.296,0.504,1.944c5.76,7.416,5.76,7.416,6.624,8.208
		c33.336-1.656,33.336-1.656,38.88-2.16c0.216-0.216,0.432-0.432,0.72-0.72c1.152,0,2.376,0.504,5.76,1.008
		c7.92,3.816,11.232,5.76,26.856,13.392c4.752,2.448,9.576,4.968,14.4001,7.488c7.92,0.36,15.84,0.72,23.7599,1.152
		c9.144,0,9.144,0,9.576,0.288c0.72,0.072,1.44,0.144,2.16,0.216c0.216,0.216,0.432,0.432,0.72,0.72
		c5.04-0.288,10.08-0.576,15.12-0.936c8.352-0.216,16.776-0.432,25.2-0.72c6.192,0.216,12.456,0.432,18.72,0.72
		c3.888-0.288,8.64,0,22.104,0c3.096-0.288,3.096-0.288,24.264-0.504c8.784,0.216,17.568,0.432,26.352,0.72
		c4.464-0.072,8.928-0.144,13.464-0.216c1.2241-0.144,2.5201-0.288,3.816-0.504c6.048,0.216,8.928,0,25.2,0.504
		c0.36,0.144,0.792,0.288,1.224,0.432c1.584,0,3.168,0,4.824,0c0.72,0.144,1.44,0.288,2.16,0.504c10.512,0.216,10.512,0.216,12.96,0
		c3.312,0.432,6.696,0.936,10.0801,1.44c4.752,0.216,4.752,0.216,6.912,0.72c0.144,0.072,0.36,0.216,0.5759,0.36
		c0,0.36,0,0.792,0,1.224c-0.1439,0.144-0.288,0.288-0.4319,0.504c-1.2961,0.072-8.4961-0.864-11.6641-0.864
		c-1.08,0.576-2.16,1.224-3.312,1.872c-2.52,2.088-5.04,4.248-7.632,6.408c0,0.288,0,0.576,0,0.936
		c0.288,0.432,0.6479,0.936,1.008,1.44c0.144,0.576,0.288,1.152,0.432,1.728c0.36,0.216,0.7199,0.504,1.1519,0.792
		c1.152,0.0721,2.376,0.144,3.6,0.216c0.144,0.216,0.36,0.432,0.576,0.648c0,1.512,0,3.024,0,4.536
		c-0.504,1.44-0.504,1.44-0.36,2.304c7.2,0.432,7.2,0.432,10.08,0.936c0.432,0.144,0.936,0.288,1.44,0.504
		c4.248,0.216,8.496,0.432,12.744,0.72c1.656,0.936,1.656,0.936,2.016,1.584c0.0719,0.432,0.1439,0.936,0.2159,1.44
		c-1.944,3.312-1.944,3.312-2.52,3.816c-3.0959,0.792-3.0959,0.792-7.9199,2.736c-3.6001,1.944-5.0401,2.376-5.76,2.88
		c-5.472,1.872-11.016,3.816-16.56,5.76c-4.536,3.816-4.536,3.816-7.4161,5.76c-1.3679,1.368-2.7359,2.7361-4.1039,4.104
		c-5.472,3.816-5.472,3.816-7.632,5.76c-3.168,1.872-8.424,5.76-14.184,9.576c-4.824,3.816-4.824,3.816-10.296,7.704
		c-0.3601,0.144-0.7921,0.288-1.2241,0.432c-0.792,0.6479-1.584,1.296-2.376,1.944c-2.16,1.224-4.32,2.52-6.48,3.816
		c-0.792,0.72-1.584,1.512-2.448,2.304c0.072,0.072,0.144,0.216,0.288,0.36c2.448,0.144,4.896,0.288,7.416,0.504
		c1.224,0.216,2.52,0.432,3.816,0.72c5.184-0.2159,10.368-0.4319,15.624-0.72c2.376,0.144,4.752,0.288,7.2,0.432
		c3.744,0.648,7.488,1.2961,11.304,1.944c3.816-0.216,3.816-0.216,12.456,0.216c2.8799-0.432,3.816-0.936,4.824-0.936
		c0.576,0.648,1.152,1.368,1.728,2.088c0,1.152,0,1.152-0.36,2.376c-2.088,0.792-2.088,0.792-5.2559,1.44
		c0.36,1.224,0.36,1.224,1.584,2.88c-0.288,1.656-0.288,1.656-0.576,2.0161c-2.592,0.288-5.256,0.576-7.92,0.936
		c-2.736-0.072-5.472-0.144-8.2081-0.216c-4.3199-0.936-4.3199-0.936-5.7599-1.656C461.52,153,457.2,153.216,455.04,153
		c-0.432-0.432-0.936-0.936-1.44-1.44c-0.576,0.072-1.2241,0.144-1.872,0.216c-0.288,0.288-0.648,0.6479-1.008,1.008
		c-4.32,0.216-4.32,0.216-6.912,0c-2.448-0.72-2.448-0.72-5.04-0.864c0.36-0.576,0.72-1.224,1.152-1.872
		c1.152-0.36,2.376-0.72,3.6-1.152c3.888,0,3.888,0,9.864,0.72c0.504-0.432,0.504-0.432,1.944-0.936
		c2.952-0.072,5.9041-0.144,8.856-0.216c3.888,0.288,7.776,0.576,11.736,0.936c1.728,0.288,3.528,0.576,5.328,0.936
		c2.592,0.072,5.2559,0.144,7.92,0.288c1.512-0.216,3.0239-0.432,4.536-0.72c0.072-0.072,0.144-0.216,0.216-0.36
		c-0.504-0.216-1.08-0.432-1.656-0.648c-3.6-0.144-7.2001-0.288-10.8-0.432c-4.392-0.72-8.784-1.44-13.176-2.16
		c-6.984,0-6.984,0-15.84,0.432c-2.088,0.216-4.176,0.432-6.2639,0.72c-0.72,0.504-0.72,0.504-2.16,0.72
		c-0.648-0.288-1.296-0.576-1.944-0.936c-2.16-0.432-4.32-0.936-6.48-1.44c-1.152-0.936-1.152-0.936-2.016-2.232
		c-0.288,0-0.576-0.072-0.864-0.144c-16.992,11.52-16.992,11.52-20.376,13.392c-1.4399,0.504-1.4399,0.504-2.664,0.504
		c-0.144-0.144-0.288-0.36-0.432-0.576c-0.576,0-1.152-0.072-1.728-0.144c-6.696,0.936-11.232,1.944-19.656,2.88
		c-1.224,0.504-1.224,0.504-3.6,0.936c-7.92,0.432-15.84,0.936-23.76,1.44c-4.32-0.072-8.64-0.144-12.96-0.216
		c-9.144-0.936-11.52-1.44-30.96-3.384c-5.184-0.288-10.368-0.576-15.624-0.936c-2.304,0.072-4.608,0.144-6.912,0.216
		c-2.808-0.216-5.616-0.432-8.424-0.72c-10.08-3.816-13.464-4.752-15.336-5.76c-7.92-1.872-7.92-1.872-18.504-3.816
		c-5.976-0.504-5.976-0.504-9.144-1.224c-0.792,0-1.584,0.072-2.376,0.144c-0.648,0.36-1.296,0.72-1.944,1.08
		c-2.952,0.792-5.904,1.584-8.856,2.376c-5.256,0.504-5.256,0.504-11.7361,0.72c-1.584-0.144-3.168-0.288-4.8239-0.432
		c-3.6-1.008-9.576-1.944-11.016-2.448c-1.8-0.216-3.672-0.432-5.544-0.72c-3.384-0.144-6.84-0.288-10.296-0.432
		c-0.144-0.144-0.288-0.288-0.504-0.504c-2.088,0.072-4.176,0.144-6.264,0.216c-1.944,0.432-3.96,0.936-5.976,1.44
		c-3.096-0.216-6.192-0.432-9.36-0.72c-0.432-0.288-0.864-0.648-1.368-1.008c-0.288-1.152-0.648-2.304-1.008-3.528
		c-4.896-0.072-9.792-0.144-14.688-0.216c-2.376,0.216-4.752,0.504-7.2,0.792c-0.504,0.936-1.08,1.872-1.656,2.808
		c-0.432,0.072-0.936,0.144-1.44,0.216c-0.288-0.216-0.576-0.432-0.936-0.72c-0.432-0.864-0.864-1.8-1.368-2.736
		c-1.296-0.864-1.296-0.864-6.552-2.808c-5.544-0.936-5.544-0.936-16.128-2.1599c-1.656,0.072-3.312,0.144-5.04,0.288
		c-4.68-0.216-9.36-0.432-14.112-0.72c-0.648-0.144-1.296-0.288-1.944-0.504c-0.36-0.216-0.72-0.504-1.08-0.792
		c-0.072-0.432-0.216-0.936-0.36-1.44c-0.432,0-0.936,0-1.44,0c0.216,0.72,1.296,1.8719,3.6,6.336
		c5.76,0.432,5.76,0.432,7.416,0.936c0.288,0.432,0.648,0.864,1.008,1.2961c0.144,0.72,0.36,1.44,0.576,2.232
		c-0.288,0.432-0.288,0.432-0.36,1.44c2.376,0.072,2.376,0.072,3.6,0.432c0.144,0.144,0.288,0.36,0.504,0.576
		c3.024-0.216,6.048-0.432,9.072-0.72c4.608-0.936,4.608-0.936,8.64-1.44c2.664,0,3.168,0.288,5.76,0.504
		c0.576,0.72,1.152,1.512,1.8,2.304c-0.144,0.72-0.288,1.44-0.504,2.16c-0.432,0.144-0.864,0.36-1.296,0.576
		c-1.944,0-3.96,0-5.976,0c-0.504,0.504-0.504,0.504-1.224,0.648c-0.072,0.72-0.216,1.44-0.36,2.16
		c-0.792,0.432-1.656,0.864-2.52,1.296c0,0.36-0.072,0.72-0.144,1.08c0.648,0.36,0.648,0.36,12.672,1.8
		c1.008,0,2.088-0.072,3.168-0.144c-0.144-1.08-0.288-2.16-0.432-3.312c0.288-0.432,0.576-0.936,0.936-1.44
		c3.24-0.864,3.24-0.864,10.44-3.744c0.936-0.144,1.872-0.288,2.88-0.504c0.504-0.504,0.504-0.504,1.224-0.504
		c0.288,0.432,0.576,0.864,0.936,1.368c0.216,1.08,0.432,2.232,0.72,3.384c6.264,0.576,11.52,0.576,12.528,0.792
		c0.576,1.152,1.152,2.304,1.728,3.528c0,0.936-0.432,1.656-0.432,2.376c0.216,0.144,0.432,0.288,0.72,0.504
		c0.432,1.152,0.432,1.152,1.08,1.728c2.448,0.288,4.896,0.648,7.416,1.008c1.008,1.152,1.296,2.016,1.728,2.376
		c1.008,0.36,2.016,0.72,3.096,1.08c0.432,1.152,0.936,2.376,1.44,3.6c3.384,0.72,6.768,1.44,10.152,2.16
		c0.144,0.288,0.288,0.648,0.504,1.008c3.168,0.576,6.336,1.152,9.504,1.728c2.16,0,4.32,0,6.552-0.072
		c0-0.216,0.072-0.432,0.144-0.72c-0.288-0.144-0.576-0.288-0.864-0.504c-0.936-1.872-0.936-1.872-1.008-2.88
		c-3.816-0.072-7.632-0.216-11.52-0.36c-0.648-0.288-1.296-0.576-1.944-0.936c-0.36-0.576-0.72-1.152-1.08-1.8
		c0-0.432-0.072-0.936-0.144-1.44c-2.376,0.072-3.6,0.36-6.696,0.36c-1.08-1.08-1.08-1.08-1.8-2.52c0-0.36,0-0.792,0-1.224
		c0.144-0.144,0.288-0.288,0.432-0.432c5.184-0.288,10.368-0.576,15.552-0.864c0.432,0.576,0.432,0.576,1.44,1.152
		c1.08,0.144,2.16,0.288,3.312,0.504c0.792,0.288,1.584,0.576,2.448,0.936c0.432,0.648,0.936,1.296,1.44,1.944
		c7.2,1.944,10.296,2.376,11.736,2.88c0.432,0.36,0.936,0.792,1.44,1.224c1.656-0.216,3.312-0.432,5.04-0.72
		c1.368,0.072,2.736,0.144,4.104,0.216c2.592,0.936,2.592,0.936,6.696,1.656c0.2881,0.288,0.576,0.6479,0.936,1.008
		c0,0.576,0.072,1.152,0.144,1.8c-0.36,0.432-0.72,0.936-1.08,1.44c-1.08,0.072-2.232,0.216-3.384,0.36
		c-1.152-0.504-1.152-0.504-2.376-1.44c-1.44,0-2.88,0-4.32,0c-1.296,0.144-2.592,0.36-3.888,0.576c0,0.216,0,0.432,0,0.72
		c1.008,0.144,2.088,0.36,3.168,0.576c0.144,0.144,0.288,0.288,0.504,0.504c7.416,0,7.416,0,9.792,0.216
		c0.576,0.144,1.152,0.288,1.728,0.504c17.712-0.216,20.592,0,24.48-0.216c0.144-0.072,0.36-0.216,0.576-0.36
		c0-0.216,0-0.432,0-0.72c-1.008-0.576-2.016-1.152-3.024-1.8c-0.288-0.504-0.576-1.008-0.936-1.584
		c0-0.792-0.072-1.584-0.144-2.376c0.288-0.36,0.576-0.72,0.864-1.08c2.88,0.216,2.88,0.216,12.96,0.216
		c7.416,0.936,7.416,0.936,9.36,1.44c9.144,0.504,9.144,0.504,9.864,0.72c0.2881,0.36,0.576,0.792,0.936,1.224
		c0,0.72,0,1.512,0.072,2.304c-0.576,0.432-1.152,0.864-1.728,1.368c0.72,0.36,0.72,0.36,15.84,1.584
		c0.144-0.072,0.36-0.216,0.576-0.36c0-0.288,0-0.576,0-0.936c-0.792-0.792-1.584-1.584-2.448-2.376
		c-0.072-0.288-0.144-0.576-0.288-0.864c-2.88-0.216-5.76-0.432-8.64-0.648c-0.72-0.576-0.72-0.576-1.224-1.44
		c0.504-0.576,0.504-0.576,0.72-1.368c2.232-0.36,4.536-0.7921,6.84-1.224c0-0.648,0-1.296,0-1.944
		c0.288-0.432,0.576-0.936,0.936-1.44c0.648-0.432,1.296-0.936,1.944-1.44c0-0.72-0.288-0.936-0.288-1.872
		c0.288-0.432,0.576-0.864,0.864-1.368c3.168-0.936,3.168-0.936,5.04-1.224c0.936,0,1.872,0,2.88,0
		c0.792,0.72,1.656,1.5121,2.52,2.304c0.216,1.008,0.504,1.224,0.504,2.448c-0.504,0.432-0.504,0.432-3.5999,1.656
		c-0.072,0.216-0.216,0.504-0.36,0.792c-1.512,0.288-3.024,0.576-4.536,0.864c0.0721,0.36,0.144,0.7921,0.2881,1.224
		c0.576,0.432,1.224,0.864,1.8719,1.296c0.432,0,0.936,0,1.44,0c0.216-0.288,0.432-0.576,0.72-0.936
		c2.376,0.288,4.752,0.576,7.2,0.936c0.432,0.504,0.936,1.08,1.44,1.656c0.288,1.368,0.288,1.368,0.072,3.312
		c-0.216,0.144-0.432,0.288-0.72,0.432c0,1.512,0,3.024,0,4.608c0.288,0.36,0.576,0.72,0.936,1.152c0,0.936,0.072,1.872,0.144,2.88
		c-0.72,0.072-1.44,0.216-2.16,0.36c-1.0081-0.072-2.0161-0.144-3.096-0.216c-2.304-0.576-4.608-1.152-6.984-1.728
		c-6.192-0.072-12.456-0.144-18.72-0.216c-0.432-0.144-0.936-0.288-1.44-0.504c-3.96,0.072-7.92,0.144-11.952,0.288
		c-1.224-0.504-1.224-0.504-2.664-0.72c-2.376,0.072-4.752,0.144-7.2,0.216c-1.512,0.288-3.024,0.576-4.536,0.936
		c-0.792,0-1.584,0-2.448-0.072c0.36,1.44,0.36,1.44,0.36,4.104c-0.144,0.36-0.288,0.72-0.504,1.152c0,1.008,0,2.088,0,3.168
		C249.264,191.16,240.192,191.232,231.12,191.376L231.12,191.376z M234.504,186.84c-4.248-0.36-8.496-0.792-12.744-1.224
		c-0.576-0.576-0.576-0.576-1.296-2.232c0-0.288,0-0.576,0.072-0.936c2.448-0.216,4.968-0.432,7.488-0.648c2.448,0,4.896,0,7.416,0
		c1.44,0.504,1.44,0.504,3.168,0.72c1.296-0.144,2.664-0.288,4.032-0.504c1.44,0,2.952,0.072,4.464,0.144c0,0.72,0,0.72-0.36,1.296
		c-1.368,0.288-2.7361,0.648-4.104,1.008c-0.936,0.936-0.936,0.936-1.656,2.376C238.824,186.84,236.664,186.84,234.504,186.84
		L234.504,186.84z M214.128,180.36c-1.44-0.36-2.88-0.72-4.32-1.08c0.144-0.072,0.288-0.216,0.432-0.36c1.8,0,3.6,0.0721,5.4,0.144
		c0.072,0.36,0.144,0.792,0.216,1.224C215.28,180.288,214.704,180.288,214.128,180.36L214.128,180.36z M363.6,179.424
		c-0.72-0.144-1.44-0.288-2.16-0.504c-1.008-0.6479-2.016-1.296-3.096-1.944c-4.5359-0.936-4.5359-0.936-8.856-2.376
		c-0.576-0.504-1.152-1.08-1.728-1.656c-7.776-0.36-15.624-0.72-23.472-1.08c-0.432-0.72-0.864-1.44-1.368-2.16
		c0-1.224,0-1.224,0.36-1.944c0.216-0.072,0.432-0.216,0.72-0.36c3.2401,0,6.552,0,9.864,0c4.68,0.36,9.432,0.792,14.184,1.224
		c0-0.288,0-0.576,0.072-0.864c-0.288-0.576-0.576-1.224-0.936-1.872c0.144-0.576,0.36-1.224,0.576-1.872
		c0.576-0.072,1.152-0.144,1.728-0.216c3.816,0.432,7.632,0.936,11.52,1.44c0.36,0.144,0.72,0.36,1.152,0.576
		c0.288,0.576,0.648,1.152,1.008,1.728c0,0.792,0,1.584,0,2.376c-0.432-0.072-0.936-0.216-1.44-0.36c-7.92,0-7.92,0-10.08-0.36
		c0,0.216,0,0.432,0,0.72c2.16,0.576,4.32,1.152,6.48,1.8c1.008,0.648,2.016,1.296,3.0959,1.944c0.936,0.144,1.872,0.288,2.88,0.432
		c1.728-0.144,3.456-0.288,5.256-0.432c0.216-0.216,0.432-0.432,0.72-0.72c1.008-0.288,2.088-0.648,3.168-1.008
		c1.656-0.216,3.312-0.432,5.04-0.72c3.168,0,6.336,0,9.576,0c1.44,0.288,2.88,0.6479,4.32,1.008
		c2.448,0.144,4.896,0.288,7.416,0.432c0.576,0.144,1.152,0.288,1.728,0.504c0.72,0.648,1.44,1.296,2.16,1.944
		c0.072,0.864,0.072,0.864-0.432,1.8c-4.176-0.288-8.352-0.576-12.528-0.864c-0.792-0.72-1.584-1.44-2.448-2.16
		c-2.376-0.504-2.376-0.504-8.136-0.72c-1.512,0.144-3.024,0.288-4.536,0.504c0,0.288-0.072,0.576-0.144,0.864
		c0.288,0.432,0.576,0.936,0.936,1.44c0.072,0.432,0.144,0.936,0.216,1.44c-0.144,0.36-0.288,0.72-0.432,1.152
		c-2.592,0.288-5.184,0.576-7.776,0.864C366.696,179.424,365.184,179.424,363.6,179.424L363.6,179.424z M276.048,176.7599
		c-2.16-0.144-4.32-0.288-6.48-0.504c-0.072-0.216-0.144-0.504-0.288-0.792c0.864-0.072,1.728-0.216,2.664-0.36
		c1.512,0.072,3.024,0.144,4.536,0.216c1.008,0.504,1.008,0.504,1.44,1.08c-0.072,0.072-0.144,0.216-0.216,0.36
		C277.2,176.7599,276.624,176.7599,276.048,176.7599L276.048,176.7599z M212.184,174.816c-2.376-0.216-2.376-0.216-2.664-0.576
		c0.648-0.144,1.296-0.36,1.944-0.576c0.792,0,1.584,0,2.376,0.072c0.144,0.216,0.288,0.432,0.504,0.72
		c-0.072,0.072-0.144,0.216-0.216,0.36C213.48,174.816,212.832,174.816,212.184,174.816L212.184,174.816z M412.56,170.496
		c-1.44-0.144-2.88-0.288-4.32-0.432c-1.656-0.432-3.312-0.936-5.04-1.44c-0.792-0.576-1.584-1.152-2.376-1.728
		c-2.376,0.576-4.752,1.152-7.2,1.728c-11.016,0.432-12.24,0.72-14.616,0.72c-1.008-0.504-1.008-0.504-2.16-1.8
		c0-0.504-0.072-1.08-0.144-1.656c0.144-0.216,0.288-0.432,0.432-0.72c6.912-0.432,6.912-0.432,13.608-0.432
		c3.528-0.576,7.056-1.224,10.584-1.872c13.392,1.656,13.392,1.656,16.992,1.872c0.216,0.216,0.432,0.432,0.72,0.72
		c1.656-0.072,3.312-0.144,5.04-0.216c0.36-0.36,0.792-0.792,1.224-1.224c0.72,0,1.44,0.072,2.16,0.144
		c0.648,0.648,1.296,1.296,1.944,2.016c0.288,0.864,0.288,2.304,0,2.664c-3.456,0.432-6.912,0.936-10.368,1.44
		C416.88,170.352,414.72,170.424,412.56,170.496L412.56,170.496z M284.4,167.184c-0.936-0.288-1.872-0.648-2.88-1.008
		c-0.864-1.008-0.864-1.008-1.152-1.872c-1.368,0.072-2.736,0.144-4.104,0.216c-0.72-0.432-1.44-0.936-2.16-1.44
		c-2.664-0.072-5.4-0.144-8.136-0.216c-7.488-1.008-7.488-1.008-9.144-1.44c-0.072-0.288-0.216-0.576-0.36-0.864
		c-0.648-0.288-1.296-0.576-2.0161-0.864c-1.8-0.072-3.672-0.144-5.5439-0.288c0.36,1.44,0.36,1.44,0.36,3.096
		c-0.144,0.36-0.288,0.792-0.504,1.224c-1.512,0.792-1.512,0.792-3.456,1.296c-1.44,0-2.88,0-4.32,0
		c-1.224-0.648-1.224-0.648-2.16-1.728c-5.76-0.432-5.76-0.432-8.136-0.216c-0.36,0.288-0.792,0.576-1.224,0.936
		c-1.584,0.288-3.168,0.648-4.824,1.008c-1.728,0.072-3.456,0.144-5.256,0.216c-0.288-0.36-0.576-0.792-0.936-1.224
		c-2.52-0.072-5.112-0.144-7.704-0.216c-0.936-1.296-0.936-1.296-1.368-2.52c0-0.576,0-1.224,0-1.872
		c-0.792,0-1.584-0.072-2.448-0.144c-0.144,0.144-0.288,0.288-0.504,0.432c-2.808-0.072-5.616-0.144-8.424-0.216
		c-0.432-0.288-0.936-0.576-1.44-0.936c-0.36-0.648-0.72-1.296-1.08-2.016c0-0.648,0-1.296-0.072-1.944
		c-0.648,0-1.296,0-1.944,0.072c-2.88,1.008-2.88,1.008-5.76,1.44c-2.304-0.36-4.608-0.72-6.984-1.152
		c-3.6-0.144-7.2-0.288-10.8-0.504c-0.288-0.432-0.576-0.864-0.936-1.2961c0-0.792-0.072-1.584-0.144-2.376
		c0.864-0.864,0.864-0.864,1.8-1.152c5.688,0.288,11.376,0.648,17.064,1.008c1.44-0.288,2.88-0.648,4.32-1.008
		c0.36-0.36,0.792-0.72,1.224-1.08c1.44-0.072,1.656,0.144,5.04,0.504c0.144,0.576,0.36,1.152,0.576,1.728
		c0,1.008-0.072,2.016-0.144,3.096c4.536,0.576,9.072,1.152,13.68,1.8c3.384,0.936,3.384,0.936,3.6,1.296
		c-0.36,0.144-0.72,0.36-1.152,0.576c0,0.36,0,0.72,0,1.08c4.032,0.144,4.032,0.144,5.04-0.072c0.216-0.648,0.504-1.296,0.792-2.016
		c0.504,0,1.008-0.072,1.584-0.144c4.464,0.576,8.928,1.224,13.464,1.872c4.32,1.008,4.32,1.008,6.696,1.224
		c1.008-0.072,2.016-0.144,3.096-0.216c0.072-0.072,0.144-0.216,0.288-0.36c-0.864-1.44-1.728-2.88-2.592-4.32
		c0-0.648,0-1.296,0-1.944c0.36-0.288,0.72-0.576,1.152-0.864c1.8-0.288,3.6-0.576,5.472-0.936c0.864-0.36,1.728-0.792,2.664-1.224
		c0.504,0,1.08,0,1.656,0c0.576,1.584,1.152,3.168,1.8,4.752c1.584,0.792,1.584,0.792,3.528,2.448c3.6,0.504,3.6,0.504,16.272,1.44
		c0.144,0.216,0.288,0.432,0.504,0.72c0.864,0.288,1.728,0.648,2.664,1.008c0.792,2.016,0.792,2.016,1.152,2.304
		c0.576-0.288,1.152-0.576,1.728-0.864c0.792,0,1.584,0,2.376,0c0.144-0.288,0.288-0.576,0.504-0.864c0.36,0,0.72-0.072,1.152-0.144
		c0.576,0.288,1.152,0.648,1.728,1.008c1.5121,0.216,3.024,0.504,4.536,0.7921c0.576,0.792,1.152,1.584,1.8,2.448
		c-0.288,1.944-0.288,1.944-0.72,2.376C290.304,167.04,287.352,167.112,284.4,167.184L284.4,167.184z M415.944,163.08
		c-0.36-0.144-0.792-0.288-1.224-0.504c-0.432-0.576-0.864-1.152-1.296-1.728c0-1.944,0-1.944,0.36-2.592
		c1.224,0,1.656,0.288,3.384,0.288c1.152-0.288,2.376-0.648,3.6-1.008c0.072-0.576,0.144-1.152,0.288-1.728
		c0.216-0.216,0.432-0.432,0.648-0.72c1.152,0,2.376-0.072,3.6-0.144c0.4319-0.288,0.936-0.648,1.44-1.008c0.288,0,0.576,0,0.936,0
		c1.224,1.008,1.224,1.008,2.448,1.44c0.432,0.72,0.432,0.72,1.8719,1.944c0.216-0.072,0.432-0.144,0.72-0.216
		c0.072-0.288,0.216-0.576,0.36-0.864c1.8-0.144,4.248,0.144,12.384,0.36c1.2239,1.224,1.2239,1.224,2.016,2.52
		c-0.216,1.728-0.216,1.728-0.576,2.016c-1.656,0.288-1.656,0.288-8.64,0.288c-1.08-0.144-2.232-0.288-3.384-0.504
		c-0.432-0.4319-0.936-0.936-1.44-1.44c-0.072-0.216-0.144-0.504-0.216-0.792c-0.288,0-0.576,0-0.936,0
		c-0.072,0.216-0.144,0.504-0.288,0.792c-1.44,0.504-1.44,0.504-5.7599,0.936c-2.592,0.7921-5.256,1.584-7.92,2.448
		C417.528,162.936,416.736,163.008,415.944,163.08L415.944,163.08z M150.48,161.424c-0.288-0.288-0.576-0.576-0.864-0.864
		c-0.216-0.72-0.504-1.44-0.792-2.16c1.224,0,2.52,0,3.816,0c-0.072,0.936-0.216,1.872-0.36,2.88
		C151.704,161.28,151.128,161.352,150.48,161.424L150.48,161.424z M70.128,154.224c-0.36-0.36-0.792-0.792-1.224-1.224
		c-0.36-1.2961-0.36-1.2961-0.144-2.952c1.512-0.576,3.096-1.224,4.68-1.872c0.576-0.072,1.152-0.144,1.728-0.216
		c0.72,0.648,1.44,1.296,2.16,2.016c-0.288,1.08-0.576,2.2321-0.864,3.384c-0.576,0.36-0.576,0.36-3.456,0.864
		C72.072,154.224,71.136,154.224,70.128,154.224L70.128,154.224z M93.168,146.448c0.072-0.36,0.144-0.72,0.216-1.152
		c1.152,0,2.376,0,3.6,0c0.504,0.216,1.08,0.432,1.656,0.72C98.424,146.304,98.424,146.304,93.168,146.448L93.168,146.448z
		 M49.68,140.976c-3.168-0.144-6.336-0.288-9.576-0.432c-0.432-0.216-0.936-0.432-1.44-0.648c-0.144-0.792-0.288-1.584-0.504-2.376
		c2.664-0.36,3.888-0.864,5.04-0.864c0.144,0.144,0.288,0.288,0.504,0.504c0.432,0,0.936,0,1.44,0
		c0.144-0.144,0.288-0.36,0.504-0.576c0-0.36,0-0.792,0.072-1.224c-0.288-0.432-0.576-0.936-0.936-1.44
		c-0.576-0.4319-1.152-0.864-1.8-1.296c-0.648-0.072-1.296-0.144-1.944-0.288c-2.16,0.504-2.16,0.504-3.6,0.504
		c-0.144-0.144-0.288-0.288-0.432-0.504c-0.72-0.072-1.44-0.144-2.16-0.288c0.288-1.224,0.288-1.224,0.72-1.728
		c0.72,0,1.44-0.072,2.16-0.144c0.72,0.144,1.44,0.288,2.16,0.504c18.216,0.936,18.216,0.936,24.696,1.656
		c0.648-0.072,1.296-0.144,1.944-0.216c2.376,0.216,4.752,0.432,7.2,0.72c0.072,0.072,0.144,0.216,0.216,0.36
		c-0.288,0.36-0.576,0.72-0.936,1.08c-0.216,0.648-0.432,1.368-0.648,2.088c-1.8,0.792-1.8,0.792-6.336,1.728
		c-0.288,0.288-0.576,0.648-0.936,1.008c-1.728,0-1.728,0-3.384-0.504c-0.144-0.144-0.288-0.288-0.504-0.504c-3.24,0-6.48,0-9.792,0
		c-0.216,0.288-0.432,0.576-0.72,0.864c-0.432,1.944-0.432,1.944-0.792,2.16C49.824,141.12,49.752,141.048,49.68,140.976
		L49.68,140.976z M292.32,138.816c-4.752-0.432-13.896-0.432-35.712-1.152c-4.32-0.504-4.32-0.504-15.12-1.008
		c-2.16,0.288-2.16,0.288-7.488,0.288c-3.816-0.36-7.632-0.792-11.52-1.224c-1.44-0.504-1.44-0.504-3.096-0.72
		c-0.144,0.144-0.288,0.288-0.504,0.504c-4.32,0-18.216-1.008-43.92-1.944c-9.072-0.72-9.072-0.72-14.112-0.72
		c-1.584-0.288-3.168-0.576-4.824-0.936c-6.696-0.504-8.64-1.008-22.824-1.944c-8.136-0.936-8.136-0.936-10.08-1.44
		c-0.144-0.216-0.288-0.504-0.432-0.792c2.304-0.144,4.608-0.288,6.912-0.432c0.432,0.144,0.936,0.288,1.44,0.504
		c4.032,0.288,8.136,0.576,12.24,0.936c4.608,1.008,4.608,1.008,9.864,1.728c3.096,0.144,6.192,0.288,9.36,0.432
		c0.504,0.144,1.08,0.288,1.656,0.504c0.864,0,1.728,0,2.664,0c0.432,0.144,0.936,0.288,1.44,0.504
		c23.04,0.216,23.04,0.216,27.864,0c15.12,0.936,29.016,1.44,32.112,1.872c3.312,0.144,6.696,0.288,10.08,0.504
		c0.432,0.144,0.936,0.288,1.44,0.504c8.928,0.216,12.528,0.72,28.368,1.44c5.472,0,5.472,0,9.576-0.288
		c8.424,0.504,8.424,0.504,8.856,0.72c10.368-0.216,10.368-0.216,31.68,0c1.944,0.288,1.944,0.288,6.0479,0.288
		c10.224-0.648,20.448-1.296,30.6721-1.944c6.192-0.144,12.456-0.288,18.72-0.504c15.264-1.224,30.528-2.5201,45.864-3.816
		c4.32-0.72,4.32-0.72,18-1.944c2.88-0.432,5.76-0.936,8.64-1.44c2.088-0.072,4.176-0.144,6.2639-0.288
		c0,0.216-0.072,0.432-0.144,0.72c-1.2961,0.864-2.592,1.8-3.9601,2.736c-1.512,0.144-3.024,0.288-4.536,0.432
		c-2.52,0.648-5.112,1.296-7.704,1.944c-2.52,0.288-5.112,0.576-7.704,0.936c-4.104,0.216-8.28,0.432-12.456,0.72
		c-15.336,1.728-15.336,1.728-21.816,2.16c-3.168-0.216-10.584,0-11.304,0.288c-14.4,0.72-37.224,1.152-47.016,1.656
		C329.04,138.6,327.888,138.816,292.32,138.816L292.32,138.816z M287.064,134.784c-4.32-0.504-4.32-0.504-11.304-0.72
		c-3.24,0.072-6.48,0.144-9.792,0.216c-4.32-0.504-10.368-0.504-27.144-1.656c-0.432-0.144-0.936-0.288-1.44-0.504
		c-2.232,0-4.464,0-6.696,0c-1.872-0.216-3.816-0.432-5.76-0.72c-1.152,0.072-2.376,0.144-3.6,0.216
		c-5.328-0.432-9.36-0.432-12.24-0.936c-5.184-0.216-10.368-0.432-15.624-0.72c-20.376,0-21.096-0.216-24.696-0.216
		c-0.72-0.288-0.72-0.288-8.928-1.008c-1.728,0-3.456,0-5.256,0c-9.144-1.152-9.144-1.152-10.584-1.656
		c-11.016-0.936-11.016-0.936-16.56-1.656c-1.656,0.216-1.656,0.216-6.912,0.216c-1.944-0.504-1.944-0.504-5.544-0.936
		c-1.368,0-2.736,0-4.104,0c-2.664-0.288-5.4-0.6479-8.136-1.008c-3.168-0.144-6.336-0.288-9.576-0.432
		c-1.44-0.504-1.44-0.504-5.04-1.008c-3.888,0-7.848,0-11.808,0c-1.44-0.216-2.88-0.432-4.32-0.72
		c-11.232-0.432-17.28-0.936-20.592-0.936c-3.888-0.432-7.848-0.936-11.808-1.44c-1.152,0.216-1.656,0.72-3.6,0.936
		c-1.8-0.216-3.6-0.504-5.4-0.792c-1.44-7.92-1.944-9.576-2.232-12.744c4.752,0.144,8.64-0.144,9.072,0.144
		c8.28,0.216,16.632,0.432,24.984,0.72c15.336-0.504,17.496-0.288,23.544-0.504c3.24,0.144,6.48,0.2881,9.792,0.504
		c0.792-0.144,1.584-0.288,2.448-0.504c12.96-0.216,12.96-0.216,13.896-0.504c3.096,0.0721,6.192,0.144,9.36,0.288
		c3.816-0.144,7.632-0.288,11.52-0.504c9.864,0.216,9.864,0.216,11.016,0.504c0.864-0.144,1.728-0.288,2.664-0.504
		c2.592-0.072,5.256-0.144,7.92-0.216c1.368,0.216,2.736,0.432,4.104,0.72c3.6,0,7.2,0,10.8,0c0.504-0.144,1.08-0.288,1.656-0.504
		c9.36,0.216,9.36,0.216,24.48,0c18.864,0.504,37.728,1.08,56.664,1.656c2.2321-0.144,4.464-0.288,6.696-0.432
		c24.48,0.432,27.36,0.216,40.32,0.72c1.656-0.072,3.312-0.144,5.0399-0.288c1.584,0.144,3.168,0.288,4.824,0.504
		c16.776,0.216,30.456,0,38.592,0.216c2.376,0.216,4.752,0.432,7.2,0.72c10.224-0.072,20.448-0.144,30.744-0.216
		c0.936,0.144,1.872,0.288,2.88,0.504c14.4,0,18.936,0.216,35.496,0.216c7.92,0.504,7.92,0.504,21.168,0.72
		c3.672-0.144,7.344-0.288,11.016-0.504c5.976,0.288,11.952,0.648,18,1.008c0.216,0.072,0.432,0.216,0.72,0.36
		c-1.4399,1.08-2.376,2.232-3.816,3.24c-0.36,0.144-0.7921,0.288-1.224,0.432c-7.704,5.7599-7.704,5.7599-12.96,9.144
		c-1.944,0-6.696,0.936-12.96,1.44c-2.52,0.432-5.112,0.936-7.704,1.44c-3.888,0.288-7.776,0.576-11.736,0.936
		c-1.944,0.288-3.96,0.648-5.976,1.008c-17.784,1.44-23.04,1.656-42.4799,3.312c-14.256,0.648-28.512,1.296-42.768,1.944
		c-1.008,0.144-2.0161,0.288-3.096,0.504C312.048,134.496,312.048,134.496,287.064,134.784L287.064,134.784z M116.424,128.304
		c-15.12-1.224-15.12-1.224-28.08-2.664c-4.104,0-4.104,0-12.456-0.504c-0.072-0.072-0.144-0.216-0.288-0.36
		c4.248-0.0721,8.496-0.216,12.744-0.36c3.816,0.504,3.816,0.504,5.76,1.008c3.312,0.144,6.696,0.2881,10.08,0.432
		c0.36,0.144,0.792,0.288,1.224,0.504c10.512,0.504,10.512,0.504,13.896,0.936c0.432,0.144,0.936,0.288,1.44,0.504
		c-0.216,0.144-0.432,0.288-0.72,0.504C118.872,128.304,117.648,128.304,116.424,128.304L116.424,128.304z M11.304,127.296
		c-2.088-0.288-4.176-0.576-6.264-0.936c-0.648-0.432-1.296-0.864-2.016-1.296c0-0.288,0-0.576,0-0.936
		c0.36-0.216,0.72-0.432,1.152-0.72c0-0.288,0-0.648,0-1.008c-1.224-1.656-2.52-3.312-3.816-5.04
		c-0.072-0.36-0.144-0.72-0.216-1.1519c0.144-0.5041,0.36-1.0081,0.576-1.5121c0.216,0,0.432,0,0.72-0.072
		c2.16,2.016,2.16,2.016,4.608,5.256c0.504,0.072,1.08,0.144,1.656,0.216c0.36,0.36,0.792,0.72,1.224,1.08
		c0.936,1.728,0.936,1.728,1.512,3.888c0.648,0.36,0.648,0.36,2.808,0.36c0.936-0.288,0.936-0.288,3.096-0.288
		c0.936,0.216,1.872,0.432,2.88,0.72c0.144,0.216,0.288,0.432,0.504,0.648c-0.072,0.072-0.144,0.216-0.288,0.36
		C16.776,127.008,14.04,127.152,11.304,127.296L11.304,127.296z M67.248,124.92c-7.488-0.504-7.488-0.504-8.712-0.792
		c-0.072-0.216-0.144-0.432-0.216-0.72c15.624,0.792,15.624,0.792,16.128,1.008C74.16,124.7039,74.16,124.7039,67.248,124.92
		L67.248,124.92z M43.704,123.4799c-1.224-0.072-2.52-0.216-3.816-0.36c0-0.288,0-0.576,0-0.936
		c6.696,0.576,6.696,0.576,6.912,0.792C46.584,123.264,46.584,123.264,43.704,123.4799L43.704,123.4799z M24.48,119.376
		c-1.8-0.144-3.6-0.288-5.472-0.432c-1.944-0.36-3.888-0.72-5.832-1.08c0-0.216,0-0.432,0-0.72
		c2.448-0.144,3.672,0.072,14.184,0.072c0.36,0.648,0.36,0.648,0.288,2.16C26.64,119.376,25.56,119.376,24.48,119.376L24.48,119.376
		z M465.624,108.576c-2.808-0.144-5.616-0.288-8.424-0.432c-16.056,0.216-22.32,0-25.632,0.216
		c-2.016-0.144-4.032-0.288-6.0479-0.504c-10.8,0-14.112-0.216-19.152,0c-2.376-0.144-4.752-0.288-7.2-0.432
		c-5.04,0.216-5.04,0.216-11.304,0c-1.44-0.288-1.44-0.288-23.976-0.504c-3.528,0.0721-7.056,0.144-10.584,0.216
		c-5.04-0.288-10.08-0.576-15.12-0.936c-5.904,0.0721-11.808,0.144-17.784,0.216c-20.232-0.288-40.464-0.576-60.696-0.936
		c-1.728,0.144-3.456,0.2881-5.256,0.504c-22.392-0.648-44.784-1.296-67.248-1.944c-3.24,0.144-6.48,0.288-9.792,0.504
		c-2.088-0.072-4.176-0.144-6.264-0.288c-0.72,0.144-1.44,0.288-2.16,0.504c-3.24,0-6.552,0-9.864,0
		c-0.216-0.144-0.432-0.288-0.72-0.504c-1.584-0.144-3.168-0.288-4.752-0.432c-5.544,0.216-5.544,0.216-9.864,0.72
		c-4.248-0.144-8.496-0.288-12.744-0.504c-2.52,0.144-5.04,0.288-7.632,0.504c-11.52,0-13.464,0.216-21.384,0.216
		c-2.448,0.216-4.896,0.432-7.416,0.72c-6.984-0.504-6.984-0.504-18.72-0.72c-6.84,0.216-13.752,0.432-20.664,0.72
		c-5.904-0.288-11.808-0.576-17.784-0.936c-6.48,0.216-6.48,0.216-8.352,0c-0.864-0.864-0.864-0.864-1.152-1.584
		c0-0.504,0.072-1.008,0.144-1.584c1.224,0,1.224,0,7.2,1.008c6.552,0.288,13.104,0.576,19.728,0.936
		c10.296-0.504,10.296-0.504,38.592-1.224c7.488,0.288,7.488,0.288,21.888,0.288c0.72-0.144,1.44-0.288,2.16-0.504
		c1.656,0.216,3.312,0.432,5.04,0.72c4.104-0.072,8.28-0.144,12.456-0.216c0.936-0.144,1.872-0.288,2.88-0.504
		c18.504,0.216,18.504,0.216,23.256,0.504c5.328-0.288,5.328-0.288,23.04-0.504c15.408,0.216,15.408,0.216,23.76,0.72
		c5.832-0.144,11.664-0.288,17.568-0.504c19.44,0.72,19.44,0.72,22.752,0.504c25.92,0.216,41.76,0.72,55.224,0.72
		c4.104,0.144,8.28,0.288,12.456,0.504c4.32-0.288,4.32-0.288,25.2-0.288c1.08,0.144,2.232,0.288,3.384,0.504
		c13.4641,0.216,14.616,0.504,23.976,0.504c2.16-0.288,2.16-0.288,17.064,0c3.6,0.216,7.2,0.432,10.8,0.72
		c6.192,0.072,12.456,0.144,18.72,0.216c3.168-0.144,6.336-0.288,9.576-0.504c8.424,0.504,15.624,0.504,28.08,1.008
		c13.968,0,21.168,0.432,27.864,0.36c-0.36,0.936-0.36,0.936-1.4401,1.944C478.584,108.576,478.584,108.576,465.624,108.576
		L465.624,108.576z M469.944,104.256c-8.208-0.144-16.416-0.36-24.696-0.576c0.504-1.152,1.008-2.376,1.512-3.6
		c0-0.936,0-1.872,0-2.88c-0.288-0.504-0.576-1.08-0.936-1.656c-0.504-0.288-1.008-0.576-1.584-0.864
		c-1.008-0.144-2.016-0.288-3.096-0.504c-15.84,0.72-15.84,0.72-19.944,1.224c-2.376,0.936-2.376,0.936-3.312,0.936
		c-1.44-0.936-1.44-0.936-2.88-1.44c-2.736-0.216-5.472-0.432-8.2079-0.72c-9.7921,0.288-9.7921,0.288-14.112,0.72
		c-1.944,0.504-1.944,0.504-3.888,1.44c-0.864,1.152-0.864,1.152-1.08,1.872c0,0.72,0,1.44,0,2.16c0.504,1.44,0.504,1.44,0.36,2.016
		c-4.752,0.216-18.72,0-28.8,0.216c-0.864-0.144-1.728-0.288-2.592-0.504c-8.928,0.288-8.928,0.288-9.648,0
		c-1.008-0.072-2.016-0.144-3.096-0.216c-0.144-0.144-0.288-0.288-0.504-0.504c-37.872,0.288-37.872,0.288-38.592,0
		c-6.768-0.216-14.904,0-74.88-1.152c-13.464,0-13.464,0-15.84,0.216c-7.272-0.144-14.544-0.288-21.888-0.504
		c-34.272,0.288-36,0-61.416,0.144c0.36-1.656,0.36-1.656,1.512-4.032c0-0.648,0-1.2961,0-1.944
		c-0.576-0.648-1.152-1.368-1.728-2.088c-4.608-0.936-6.48-0.936-12.96-1.872c-2.88-0.072-5.76-0.144-8.64-0.288
		c-3.816,0.144-7.632,0.288-11.52,0.504c-0.864,0.288-1.728,0.576-2.664,0.936c-0.36,0.432-0.792,0.864-1.224,1.368
		c-0.432,1.08-0.864,2.232-1.296,3.384c0.072,1.224,0.144,2.52,0.216,3.816c-29.376,0.792-29.376,0.792-30.312,1.08
		c-6.048-0.072-12.168-0.144-18.288-0.288c-4.392-0.288-8.784-0.576-13.176-0.936c-0.936-0.216-1.872-0.504-2.808-0.792
		c-0.432-2.448-0.432-2.448-0.936-8.64c0.072-1.296,0.144-2.592,0.216-3.888c0.36-0.072,0.72-0.216,1.152-0.36
		c9.576-0.216,9.576-0.216,12.24-0.504c6.48,0,12.96,0,19.44,0c1.728-0.216,3.456-0.432,5.256-0.72c5.04,0,7.92,0.288,9.144,0
		c1.656-0.072,3.312-0.144,5.04-0.216c1.944,0.144,3.96,0.288,5.976,0.504c0.072,0.072,0.144,0.216,0.216,0.36
		c23.04,0.072,23.04,0.072,24.768-0.144c10.872-0.144,21.744-0.288,32.616-0.504c1.656,0.144,3.312,0.288,5.04,0.504
		c7.704-0.216,7.704-0.216,15.84-0.936c2.664,0.432,8.424,0.432,8.64,0.72c3.6-0.144,7.2-0.288,10.8-0.504
		c11.016,0.216,13.464,0.504,18.936,0.504c2.232-0.144,4.464-0.288,6.768-0.504c3.888,0.072,7.776,0.144,11.736,0.216
		c5.256-0.216,10.512-0.432,15.84-0.72c1.728,0.072,3.456,0.144,5.256,0.288c0.792-0.144,1.584-0.288,2.448-0.504
		c9.072-0.216,10.296-0.504,15.12-0.504c1.44,0.288,1.44,0.288,14.832,0.504c0.216,0.288,0.432,0.576,0.72,0.936
		c3.6-0.216,17.28,0,18,0.288c28.08,0.216,28.08,0.216,40.608,0c5.4,0.144,10.8,0.288,16.272,0.432
		c0.504,0.504,0.504,0.504,1.728,1.008c6.912,0,10.296-0.288,18.936-0.288c5.112,0.144,10.224,0.288,15.336,0.504
		c5.472-0.072,11.016-0.144,16.56-0.216c4.464,0.144,8.928,0.288,13.464,0.432c2.232,0.216,4.464,0.432,6.696,0.72
		c8.928,0,8.928,0,9.864,0.288c9.648,0.36,19.296,0.72,29.016,1.152c0.72,0.144,1.44,0.288,2.16,0.504c2.448,0,4.968,0,7.488,0
		c0.36,0.144,0.72,0.288,1.152,0.504c7.704,0.864,15.48,1.8,23.256,2.736c0,0.216,0.072,0.432,0.144,0.72
		c-1.44,1.512-2.88,3.024-4.32,4.608c-5.184,4.032-5.184,4.032-7.992,5.832C478.944,104.112,474.48,104.184,469.944,104.256
		L469.944,104.256z M406.08,103.5359c-5.112-0.216-10.224-0.504-15.336-0.792c-0.864-3.816-0.864-3.816-0.72-4.536
		c2.664-0.864,2.664-0.864,6.264-1.368c3.096-0.072,6.192-0.144,9.36-0.216c5.976,0.432,5.976,0.432,9.36,0.936
		c0.216,0.288,0.432,0.576,0.72,0.864c0.072,1.44,0.072,1.44-0.432,3.384c-2.016,0.936-2.016,0.936-2.736,1.728
		C410.4,103.5359,408.24,103.5359,406.08,103.5359L406.08,103.5359z M418.608,103.32c-0.144-0.792-0.144-0.792,0.072-2.736
		c1.224-0.936,2.16-2.16,2.808-2.52c2.592-0.288,5.256-0.648,7.92-1.008c4.32-0.072,8.64-0.144,12.96-0.216
		c1.44,0.504,1.44,0.504,1.728,0.864c0,0.72,0,1.44,0,2.16c-0.288,0.432-0.576,0.936-0.936,1.44
		c-1.296,0.936-1.296,0.936-2.232,2.016c-4.536,0-9.144,0-13.752-0.072c-0.072-0.216-0.144-0.432-0.216-0.72
		c1.728-0.144,3.528-0.288,5.328-0.432c1.872,0.072,3.816,0.144,5.76,0.288c0.792-0.144,1.584-0.36,2.448-0.576
		c0.288-0.648,0.648-1.296,1.008-1.944c-0.072-0.288-0.144-0.576-0.288-0.936c-0.288-0.144-0.648-0.288-1.008-0.432
		c-4.608,0.072-9.288,0.144-13.968,0.288c-1.512,0.216-3.024,0.504-4.536,0.792c0,0.576-0.072,1.152-0.144,1.728
		c0.216,0.504,0.432,1.08,0.72,1.656C420.264,103.32,420.264,103.32,418.608,103.32L418.608,103.32z M402.048,102.6
		c-3.096-0.072-6.192-0.144-9.36-0.216c-0.216-0.144-0.432-0.288-0.72-0.504c0-0.864-0.072-1.8-0.144-2.736
		c0.144-0.216,0.288-0.432,0.432-0.72c1.152-0.36,4.032-0.36,4.752-0.648c5.184,0.216,10.368,0.432,15.552,0.72
		c0.216,0.144,0.432,0.288,0.72,0.504c0,0.576,0.072,1.152,0.144,1.8c-0.36,0.36-0.72,0.72-1.08,1.08
		C408.528,102.384,408.528,102.384,402.048,102.6L402.048,102.6z M101.808,100.44c-1.656-0.216-3.312-0.432-5.04-0.72
		c-0.864-1.512-0.864-1.512-1.512-2.016c-0.072-2.16-0.072-2.16,0.36-3.6c0.432-0.36,0.864-0.72,1.368-1.08
		c0.648-0.144,1.296-0.288,1.944-0.504c9.792-0.504,9.792-0.504,15.12-0.504c4.68,0.432,9.36,0.936,14.112,1.44
		c0.432,0.144,0.936,0.288,1.44,0.504c0.216,0.36,0.432,0.72,0.72,1.08c-0.864,1.728-0.864,1.728-1.8,2.88
		c-0.576,0.144-1.152,0.36-1.8,0.576c-0.36,0.576-0.72,1.152-1.152,1.728c-1.44,0-2.88-0.072-4.32-0.144c0-0.216,0-0.432,0-0.72
		c2.592-0.36,2.592-0.36,5.04-1.296c0.288-0.36,0.576-0.72,0.936-1.08c0-0.36,0-0.792,0.072-1.224
		c-0.216-0.36-0.504-0.72-0.792-1.08c-1.944-0.504-1.944-0.504-9.576-1.44c-5.4,0.216-10.872,0.432-16.344,0.72
		c-0.72,0.288-1.44,0.576-2.16,0.936c-0.144,0.216-0.288,0.432-0.504,0.648c0,1.008-0.072,2.016-0.144,3.096
		c0.144,0.0721,0.288,0.216,0.432,0.36c12.96,0.504,12.96,0.504,13.176,0.72c-0.216,0.216-0.216,0.216-3.816,0.72
		C105.696,100.44,103.752,100.44,101.808,100.44L101.808,100.44z M112.32,100.08c0-0.216,0-0.432,0-0.72
		c4.32-0.144,4.32-0.144,4.608,0.144c-0.216,0.144-0.432,0.288-0.72,0.432C114.912,99.936,113.616,100.008,112.32,100.08
		L112.32,100.08z M473.04,98.064c-0.864-0.288-1.728-0.648-2.592-1.008c-0.288-0.216-0.5761-0.504-0.864-0.792
		c0-0.504,0-1.08,0-1.656c0.2879-0.288,0.576-0.576,0.864-0.864c0.504-0.144,1.08-0.288,1.656-0.504
		c1.5119-0.072,3.0239-0.144,4.5359-0.216c0.864,0.144,1.728,0.288,2.6639,0.432c0.432,0.288,0.8641,0.576,1.2961,0.864
		c0,0.288,0,0.648,0,1.008c-0.288,0.432-0.576,0.936-0.936,1.44c-1.44,0.4319-2.952,0.864-4.4641,1.296
		C474.48,98.064,473.76,98.064,473.04,98.064L473.04,98.064z M473.328,95.7599c0-0.216,0-0.432,0-0.72
		c2.592-0.144,2.592-0.144,2.8799,0.144C475.488,95.616,475.488,95.616,473.328,95.7599L473.328,95.7599z M493.2,90.576
		c-5.04-0.936-14.616-1.872-22.5359-3.096c-1.728,0-3.4561,0-5.256,0c-1.152-0.144-2.376-0.288-3.6-0.504
		c-5.688-0.144-11.376-0.288-17.064-0.432c-4.824-0.504-4.824-0.504-11.7361-0.504c-0.936-0.144-1.8719-0.288-2.8799-0.504
		c-3.168,0-6.408,0-9.648,0c-2.664-0.288-5.4-0.576-8.136-0.936c-15.12-0.216-20.664,0-22.5359-0.216
		c-2.088,0.072-4.176,0.144-6.264,0.216c-5.904-0.216-11.808-0.432-17.784-0.72c-2.448,0.072-4.896,0.144-7.416,0.216
		c-0.36-0.144-0.792-0.288-1.224-0.432c-0.792,0.072-1.584,0.144-2.376,0.216c-6.984-0.72-6.984-0.72-16.344-1.224
		c-1.584,0.144-3.168,0.288-4.752,0.504c-2.16-0.216-2.16-0.216-11.088-0.216c-2.448,0.216-4.896,0.432-7.416,0.72
		c-0.936-0.216-1.872-0.432-2.88-0.72c-10.296,0-15.84-0.288-16.776,0c-6.768-0.288-6.768-0.288-7.2-0.504
		c-1.368,0.072-2.736,0.144-4.1039,0.216c-1.944-0.144-3.9601-0.288-5.976-0.432c-0.288-0.144-0.648-0.288-1.008-0.504
		c-7.632-0.072-15.336-0.144-23.04-0.216c-3.672,0.144-7.344,0.288-11.016,0.432c-0.864,0.144-1.728,0.288-2.664,0.504
		c-7.416-0.216-23.76,0.216-34.56,0c-2.016,0.144-4.104,0.288-6.192,0.504c-10.08-0.72-16.56-0.72-18.288-1.008
		c-4.536,0-8.856,0.504-15.552,0.72c-1.512-0.072-3.024-0.144-4.608-0.216c-4.32,0.216-8.64,0.432-12.96,0.72
		c-0.576-0.144-1.224-0.288-1.872-0.504c-8.784,0.144-17.568,0.288-26.424,0.504c-5.256-0.504-5.256-0.504-9.36-0.504
		c-2.16,0.504-2.16,0.504-5.544,0.72c-9.432-0.216-18.864-0.432-28.296-0.72c-1.44,0.288-1.44,0.288-10.8,0
		c-2.952,0.288-5.904,0.648-8.856,1.008c-9.576,0-19.152,0.072-28.8,0.144c0.072-0.432,0.144-0.936,0.288-1.44
		c1.728-1.872,3.528-3.816,5.328-5.76c0.432-1.008,0.432-1.008,1.872-2.448c0.504-0.072,1.008-0.216,1.584-0.36
		c5.256,0.072,10.512,0.144,15.84,0.216c4.824-0.432,7.488-0.216,15.84-0.72c4.968,0.288,9.936,0.648,14.904,1.008
		c0.432,0.144,0.936,0.288,1.44,0.432c11.736-0.216,14.4,0,16.056-0.216c14.688,0.216,29.448,0.432,44.208,0.72
		c5.976,0.504,5.976,0.504,7.632,0.936c1.008-0.144,2.088-0.288,3.168-0.432c4.752,0.144,9.576,0.288,14.4,0.432
		c9.576-0.432,11.736-0.216,14.4-0.432c11.232,0.216,11.232,0.216,18.432,0.72c13.968-0.288,24.048,0,50.184,0
		c1.656,0.216,21.096,0,32.4,0.216c1.44-0.072,2.88-0.144,4.32-0.216c2.88,0.432,2.88,0.432,9.144,0.72
		c3.024-0.072,6.048-0.144,9.072-0.288c11.304,0.504,15.12,1.008,35.568,1.944c7.632-0.216,7.632-0.216,37.656,0.216
		c2.592,0.216,5.256,0.432,7.92,0.72c6.48,0,6.48,0,17.496,0.72c1.224,0.288,1.224,0.288,10.368,0.504
		c2.304-0.072,4.608-0.144,6.912-0.216c2.52,0.144,5.112,0.288,7.704,0.432c0.504,0.144,1.08,0.288,1.656,0.504
		c17.568,0.216,17.568,0.216,18.504,0.504c2.088,0.144,4.176,0.288,6.2639,0.432c6.192-0.216,6.192-0.216,9.792,0
		c0.72,0.288,10.8,0.504,14.904,1.008c4.536-0.288,4.536-0.288,8.64,0c1.08,0.288,2.2319,0.576,3.384,0.936
		c8.64,0.216,9.576,0.504,24.4801,0.864c0,0.216-0.072,0.432-0.144,0.72c-2.304,1.08-4.6801,2.16-7.056,3.24
		C506.3759,89.784,499.824,90.144,493.2,90.576L493.2,90.576z M480.96,81c-2.376-0.216-2.376-0.216-6.48-0.072
		c0-0.216,0-0.432,0-0.72c7.7039,0.288,7.7039,0.288,8.424,0.576C482.688,81,482.688,81,480.96,81L480.96,81z M456.264,80.28
		c-1.44-0.144-2.88-0.288-4.32-0.504c-6.48-0.144-12.96-0.288-19.44-0.432c-2.376-0.504-2.376-0.504-7.704-0.72
		c-3.96,0.072-7.92,0.144-11.952,0.216c-3.528-0.288-7.056-0.576-10.584-0.936c-4.536-0.072-9.072-0.144-13.68-0.288
		c-4.32-0.72-4.32-0.72-6.48-0.792c0-0.36,0-0.792,0.072-1.224c2.232-3.024,4.536-6.048,6.84-9.072c1.152-1.152,2.376-2.376,3.6-3.6
		c2.952-0.144,2.952-0.144,7.992,0.288c20.376,2.88,20.376,2.88,25.416,3.888c2.88,0.936,5.7599,1.872,8.64,2.88
		c2.5201,1.224,5.112,2.52,7.704,3.816c0.72,0.648,1.44,1.296,2.16,1.944c0.216,0.648,0.504,1.296,0.792,2.016
		c0.648,0.36,4.464,0.864,5.9041,1.2961c1.944,0,3.96,0,5.976,0c0.432,0.216,0.936,0.432,1.44,0.72
		c-0.144,0.144-0.288,0.288-0.432,0.504C457.56,80.28,456.912,80.28,456.264,80.28L456.264,80.28z M467.568,80.28
		c-0.936,0-1.872,0-2.8801-0.072c0.2161-0.72,0.2161-0.72,0.72-1.152c1.6559-0.216,1.6559-0.216,3.0959,0
		c0.2881-0.432,0.576-0.936,0.936-1.44c1.0081,0,1.0081,0,1.584,0.432c-0.144,0.72-0.36,1.44-0.576,2.232
		C469.512,80.28,468.576,80.28,467.568,80.28L467.568,80.28z M488.664,78.84c-2.592-0.504-5.256-1.008-7.92-1.512
		c0-0.36,0-0.792,0.072-1.224c2.16-2.16,2.16-2.16,2.808-2.52c0.288,0,0.576,0,0.936,0c0.36,0.288,0.792,0.576,1.224,0.936
		c0.6479,0.144,1.296,0.288,1.944,0.504c2.376,2.232,2.376,2.232,2.736,3.024c0,0.216-0.072,0.504-0.144,0.792
		C489.8159,78.84,489.24,78.84,488.664,78.84L488.664,78.84z M377.784,76.896c-17.064-0.432-17.064-0.432-18.216-0.72
		c-5.4,0.072-10.872,0.144-16.344,0.288c-3.816-0.144-7.632-0.36-11.448-0.576c0-0.216,0-0.432,0-0.72
		c0.648-1.08,1.296-2.232,1.944-3.384c3.816-5.04,7.704-9.576,9.576-12.24c0.36-0.288,0.72-0.576,1.1519-0.864
		c2.952,0.072,5.904,0.144,8.856,0.216c5.76,0.432,11.52,0.936,17.28,1.44c1.656,0,3.312,0,5.04,0
		c1.584,0.288,3.168,0.648,4.824,1.008c2.5201,0.144,5.04,0.288,7.632,0.432c0.288,0.144,0.576,0.288,0.936,0.432
		c0,0.288,0.072,0.576,0.144,0.936c-1.944,1.944-1.944,1.944-9.576,11.736c-1.008,1.728-1.008,1.728-1.584,2.16
		C377.928,77.04,377.856,76.968,377.784,76.896L377.784,76.896z M457.704,76.464c-4.824-0.288-4.824-0.288-6.696-0.144
		c0.576-1.008,1.152-2.016,1.728-3.096c1.584-2.088,3.1681-4.176,4.824-6.264c1.224-0.936,5.04-5.472,8.136-8.64
		c1.08-0.576,2.16-1.152,3.312-1.8c2.2319-0.216,4.464-0.432,6.696-0.72c0.648,0.216,1.296,0.432,1.944,0.72c1.872,0,3.816,0,5.76,0
		c3.312,0.504,3.312,0.504,7.92,0.648c0,0.288-0.072,0.576-0.1441,0.936c-4.5359,3.96-9.0719,7.992-13.68,12.024
		c-1.296,1.296-2.5919,2.664-3.888,4.032c-0.5039,0-1.0079,0.072-1.5119,0.144c-0.504-0.144-1.08-0.288-1.656-0.504
		c-2.232,0.36-4.4641,0.792-6.768,1.224c-0.72,0.432-1.44,0.936-2.16,1.44C460.296,76.464,459,76.464,457.704,76.464L457.704,76.464
		z M475.2,76.608c0.072-0.576,0.216-1.152,0.36-1.728c1.9439-2.16,14.976-13.896,19.08-17.28c0.288-0.072,0.648-0.216,1.008-0.36
		c1.08,0,2.16,0.072,3.312,0.144c0,0.216,0.072,0.432,0.144,0.72c-3.744,3.168-7.4881,6.336-11.304,9.576
		c-0.936,0.576-1.944,1.152-2.952,1.8c-4.608,3.816-5.5441,5.04-7.704,6.984C476.4959,76.464,475.848,76.5359,475.2,76.608
		L475.2,76.608z M322.56,75.456c-1.8-0.144-3.6-0.288-5.472-0.432c-6.696,0-13.392,0-20.16,0c-2.736-0.288-5.472-0.576-8.208-0.864
		c0-0.36-0.072-0.72-0.144-1.152c1.008-2.448,1.008-2.448,3.384-6.48c1.872-2.736,3.744-5.472,5.688-8.208
		c1.44-0.36,1.44-0.36,2.88-0.36c0.432,0.216,4.032,0,15.552,0.216c12.744-0.216,12.744-0.216,23.04,0
		c0.576,0.144,1.152,0.288,1.728,0.432c-0.72,1.224-1.512,2.52-2.304,3.816c-0.36,0.288-0.792,0.576-1.224,0.936
		c-7.704,10.08-7.704,10.08-9,12.096C326.448,75.456,324.504,75.456,322.56,75.456L322.56,75.456z M447.408,75.456
		c-0.288-0.36-0.648-0.72-1.008-1.152c-6.192-3.888-6.192-3.888-7.056-4.176c0-0.288,0-0.648,0-1.008
		c2.16-2.376,3.4561-3.312,5.472-5.472c2.16-1.584,4.32-3.168,6.48-4.824c0.864-1.008,1.728-2.016,2.5919-3.024
		c3.6,0,7.2,0.072,10.8,0.144c-0.4319,0.72-0.936,1.44-1.44,2.232c-0.792,0.72-1.584,1.44-2.448,2.16
		c-2.88,3.168-5.76,6.408-8.64,9.648c-1.296,1.8-2.664,3.6-4.032,5.472C447.912,75.456,447.696,75.456,447.408,75.456
		L447.408,75.456z M283.248,74.52c-4.176-0.144-8.352-0.288-12.528-0.504c-3.8159,0.288-3.8159,0.288-23.976,0.288
		c-1.08-0.072-2.232-0.216-3.384-0.36c0.432-1.08,0.864-2.232,1.296-3.384c0.288-0.288,0.648-0.576,1.008-0.936
		c0.576-1.368,1.224-2.736,1.872-4.104c1.08-1.584,2.16-3.24,3.312-4.896c1.872-0.504,1.872-0.504,5.976-1.008
		c9.648-0.288,19.296-0.576,29.016-0.936c3.6-0.504,3.6-0.504,8.928-0.576c-0.288,0.792-0.576,1.584-0.864,2.376
		c-1.008,1.0081-2.88,4.104-4.824,6.48c-0.936,1.944-0.936,1.944-1.944,3.168c-0.576,1.368-1.152,2.736-1.728,4.176
		C284.688,74.376,283.968,74.448,283.248,74.52L283.248,74.52z M204.048,74.304c-0.216,0-0.432-0.072-0.72-0.144
		c0.072-0.432,0.144-0.936,0.288-1.44c0.648-1.008,1.296-2.016,1.944-3.096c2.016-2.376,4.032-4.752,6.12-7.2
		c11.808-1.08,11.808-1.08,12.744-1.368c20.16-0.72,20.16-0.72,23.544-0.576c-0.144,0.432-0.288,0.936-0.432,1.44
		c-3.816,6.48-5.256,8.424-6.192,10.368c-0.432,0.504-0.936,1.08-1.4399,1.656c-3.6,0.072-7.272,0.216-10.944,0.36
		C218.448,74.016,213.624,74.304,204.048,74.304L204.048,74.304z M198.72,74.016c-2.448-0.144-4.896-0.288-7.416-0.432
		c-8.208,0.072-16.416,0.144-24.696,0.216c-0.72-0.144-1.44-0.288-2.16-0.504c-1.44,0-2.88,0-4.32-0.072
		c0.072-0.288,0.144-0.576,0.288-0.936c5.544-3.888,5.544-3.888,11.664-7.632c1.08-0.288,2.232-0.576,3.384-0.936
		c6.984-0.216,6.984-0.216,11.52-0.72c1.872,0.144,3.816,0.288,5.76,0.504c4.104-0.504,4.104-0.504,12.24-1.008
		c1.152,0,2.304,0.072,3.456,0.144c-0.072,0.288-0.144,0.648-0.216,1.008c-1.296,1.44-2.592,2.88-3.888,4.32
		c-2.88,4.032-2.88,4.032-4.752,5.976C199.296,73.944,199.008,73.944,198.72,74.016L198.72,74.016z M151.704,73.296
		c-0.72-0.216-0.72-0.216-59.76-1.296c0-0.288,0-0.576,0-0.936c1.44-0.576,2.88-1.152,4.32-1.8c2.232-1.296,4.464-2.592,6.696-3.888
		c1.584-0.576,3.168-1.224,4.824-1.872c2.52-1.296,5.112-2.592,7.704-3.888c0.864-0.216,1.728-0.504,2.592-0.792
		c0,1.368-0.072,2.736-0.144,4.104c0.144,0.144,0.288,0.36,0.432,0.576c0.36,0,0.72,0,1.152,0c0.216-0.216,0.432-0.432,0.72-0.648
		c0.36-2.376,0.36-2.376,0.576-7.632c-1.224-2.664-2.52-5.4-3.816-8.136c-3.816-10.08-5.256-15.12-7.2-19.944
		c-0.072-0.792-0.144-1.584-0.216-2.376c0.576-0.72,0.576-0.72,1.512-1.224c1.44-0.2881,2.88-0.576,4.392-0.864
		c4.536,0,13.392-0.504,28.08-0.72c5.544,0.288,11.16,0.576,16.776,0.936c1.44,0.432,2.88,0.936,4.32,1.44
		c1.44,0.144,2.88,0.2881,4.32,0.504c1.656,1.08,1.656,1.08,1.944,1.584c-0.288,0.36-1.944,0.576-2.664,1.08
		c-10.008-0.576-20.016-1.152-30.024-1.728c-9.072,0-9.072,0-19.152,0.504c-1.008,0.288-2.088,0.576-3.168,0.936
		c-0.576,0.432-1.152,0.864-1.8,1.368c0.072,0.648,0.144,1.296,0.216,1.944c0.792,1.512,1.584,3.024,2.448,4.536
		c1.872,5.04,2.88,6.696,4.752,12.024c0.432,1.656,0.936,3.312,1.44,5.04c0.288,0.576,0.648,1.224,1.008,1.872
		c0.864,0.288,1.8,0.576,2.736,0.864c4.104,0.432,4.104,0.432,7.2,0.432c0.288-0.36,0.648-0.72,1.008-1.08
		c-0.864-1.872-0.864-1.872-6.624-11.448c-2.448-2.88-2.88-3.888-3.888-4.824c-1.224-1.872-2.52-3.816-3.816-5.76
		c-0.792-0.792-1.584-1.584-2.376-2.376c0-0.36-0.072-0.792-0.144-1.224c0.936,0,1.872-0.072,2.88-0.144
		c0.864,1.08,1.296,2.088,3.744,4.968c3.312,4.752,3.312,4.752,7.2,9.576c1.872,2.88,3.816,5.76,5.76,8.64
		c1.08,2.304,2.16,4.608,3.312,6.984c0.216,0.144,0.432,0.36,0.648,0.576c1.224,0,1.44-0.288,6.984,0
		c9.792-0.504,16.272-0.504,23.976-1.008c27.576-0.432,30.456-0.72,38.16-0.72c12.456-0.432,12.456-0.432,16.776-0.936
		c10.8,0,10.8,0,14.184-0.216c2.376-0.504,2.376-0.504,6.264-0.72c0.936,0.072,1.872,0.144,2.88,0.216
		c3.096-0.504,3.096-0.504,11.232-0.936c14.688,0.216,26.64,0.72,27.36,0.936c-0.216,0.144-0.432,0.288-0.72,0.504
		c-2.52,0.216-5.04,0.432-7.632,0.72c-12.744,0.216-12.744,0.216-23.328,0.72c-2.016,0.216-4.104,0.432-6.192,0.72
		c-6.5519,0.144-13.1039,0.288-19.728,0.432c-11.16,0.648-22.32,1.296-33.552,1.944c-2.88,0.504-2.88,0.504-6.984,0.504
		c-0.36-0.144-0.792-0.288-1.224-0.504c-8.784,0.36-17.568,0.792-26.352,1.224c-5.832,0-11.664,0-17.568,0
		c-5.832,0.36-11.664,0.72-17.496,1.152c-0.936-0.432-0.936-0.432-3.816-0.936c-2.664,0-2.664,0-3.312,0.36
		c0,0.72,0,0.72,0.504,1.44c3.744,0.36,3.744,0.36,8.064,1.296c7.416-0.72,7.416-0.72,16.776-1.152c6.624,0,13.248,0,19.944,0.072
		c-0.864,0.648-1.728,1.368-2.664,2.088c-1.872,1.08-3.816,2.16-5.76,3.312c-1.872,2.16-1.872,2.16-3.6,3.6
		C153.792,73.296,152.784,73.296,151.704,73.296L151.704,73.296z M436.32,68.256c-12.24-3.816-12.24-3.816-15.48-4.608
		c0-0.36,0-0.792,0-1.224c0.432-0.792,0.936-1.584,1.44-2.376c0.864-0.936,1.728-1.872,2.664-2.88
		c0.144-0.36,0.288-0.792,0.432-1.224c5.472-0.144,10.224,0.072,15.048-0.144c1.944,0.072,3.96,0.216,5.976,0.36
		c0,0.288,0.072,0.648,0.144,1.008c-0.504,0.72-0.504,0.72-2.6641,2.592c-3.816,4.824-3.816,4.824-7.344,8.64
		C436.464,68.4,436.392,68.328,436.32,68.256L436.32,68.256z M416.448,63c-5.5439-0.504-7.7039-0.936-12.024-1.224
		c-2.952-0.432-5.904-0.864-8.856-1.2961c0.072-0.4319,0.144-0.936,0.288-1.44c0.72-1.08,1.512-2.16,2.304-3.24
		c6.048-0.216,6.048-0.216,24.48,0.144c-0.072,0.36-0.216,0.792-0.36,1.224c-1.944,2.16-1.944,2.16-4.32,5.472
		C417.168,63,417.168,63,416.448,63L416.448,63z M390.024,60.12c-0.648-0.144-1.296-0.288-1.944-0.504
		c-2.592-0.144-5.256-0.288-7.92-0.432c-7.2-1.008-14.112-1.44-15.12-1.8c1.008-0.648,1.008-0.648,2.664-1.08
		c8.784-0.144,17.568-0.36,26.424-0.576c-0.144,0.576-0.288,1.224-0.432,1.872c-1.872,2.16-1.872,2.16-2.448,2.52
		C390.888,60.12,390.456,60.12,390.024,60.12L390.024,60.12z M363.6,57.744c-11.52-1.008-11.52-1.008-15.336-1.08
		c0-0.216,0-0.432,0-0.72c1.872,0,3.816-0.072,5.76-0.144c3.312,0.216,6.696,0.432,10.08,0.72c0.36,0.36,0.36,0.36,0.216,1.08
		C363.816,57.888,363.816,57.888,363.6,57.744L363.6,57.744z M147.384,57.024c-1.368-0.144-2.736-0.288-4.104-0.504
		c-0.216-0.144-0.432-0.288-0.72-0.504c-0.792-1.44-1.584-2.88-2.376-4.392c0-0.36,0-0.792,0-1.224
		c5.184-0.432,10.368-0.864,15.624-1.296c4.752-4.32,5.76-4.824,9.576-8.424c0.36,0,0.792,0,1.224,0
		c0.288,0.576,0.576,1.152,0.936,1.8c-1.44,1.44-2.88,2.88-4.32,4.32c-0.864,2.16-0.864,2.16-0.864,3.168
		c0.504,0.432,0.504,0.432,2.088,0.792c0,0.2881,0,0.576,0.072,0.864c-1.656,1.656-3.312,3.312-5.04,5.04
		C156.024,57.024,156.024,57.024,147.384,57.024L147.384,57.024z M340.848,56.448c0.144-0.288,0.288-0.576,0.432-0.864
		c0.648,0.072,1.296,0.216,1.944,0.36c-0.072,0.072-0.144,0.216-0.216,0.36C342.288,56.304,341.568,56.376,340.848,56.448
		L340.848,56.448z M238.104,54.576c-0.936-0.072-1.872-0.144-2.88-0.216c-0.72-0.504-3.384-1.44-4.824-2.376
		c0-0.36-0.072-0.72-0.144-1.08c2.448-3.384,2.88-4.536,3.528-4.968c0.432,0,0.936,0,1.44,0c1.584,0.936,3.168,1.872,4.824,2.88
		c0.936,1.008,4.032,2.88,5.76,4.32c-0.144,0.144-0.288,0.288-0.504,0.504C242.928,53.928,240.552,54.216,238.104,54.576
		L238.104,54.576z M250.56,53.424c-0.936-0.432-1.872-0.936-2.88-1.44c-0.288-0.2881-0.576-0.648-0.936-1.0081
		c-3.9601-2.52-7.992-5.04-12.024-7.632c-0.792-0.648-1.584-1.296-2.376-1.944c-2.16-0.936-2.16-0.936-5.5439-2.88
		c-1.944-1.296-3.96-2.592-5.976-3.96c0-0.288,0-0.576,0-0.936c1.584,0.216,3.168,0.504,4.824,0.792
		c14.832,7.704,23.04,11.52,34.056,17.28c0.36,0.2881,0.792,0.648,1.224,1.008c-1.224,0.432-1.224,0.432-5.04,0.72
		C254.16,53.424,252.36,53.424,250.56,53.424L250.56,53.424z M129.168,52.92c-1.224-0.504-1.224-0.504-1.728-1.08
		c-0.72-2.736-1.44-5.544-2.16-8.352c0.288,0.072,0.648,0.144,1.008,0.288c1.224,1.944,2.52,3.888,3.816,5.904
		c0.36,0.936,0.72,1.872,1.08,2.88C130.824,52.92,130.824,52.92,129.168,52.92L129.168,52.92z M222.984,53.064
		c-0.36-4.32-0.36-4.32-1.368-9.144c-0.288-0.4319-0.576-0.9359-0.936-1.44c-5.832-3.744-7.992-4.68-12.024-7.416
		c0-0.216,0-0.432-0.072-0.72c4.32-0.36,4.32-0.36,7.7039-0.288c0.144,0.216,0.2881,0.432,0.432,0.648
		c9.36,5.76,12.96,7.632,14.04,8.496c-0.072,0.432-0.144,0.936-0.216,1.44c-0.936,0.576-1.872,1.152-2.88,1.728
		c-0.504,0.936-0.504,0.936-1.728,2.16c-0.36,0.792-0.72,1.584-1.152,2.376c-0.216,0.144-0.432,0.288-0.72,0.504
		c-0.072,0.504-0.216,1.008-0.36,1.512C223.488,52.92,223.272,52.992,222.984,53.064L222.984,53.064z M165.6,48.384
		c0-0.36-0.072-0.72-0.144-1.08c2.16-2.16,2.16-2.16,2.808-2.52c0.216,0,0.432,0,0.72,0c0.432,0.648,0.864,1.296,1.296,2.016
		c0.072,0.36,0.144,0.792,0.216,1.224C168.48,48.384,168.48,48.384,165.6,48.384L165.6,48.384z M138.24,48.096
		c-0.72-0.432-0.72-0.432-1.152-1.152c0-0.36,0-0.72-0.072-1.08c3.24-0.936,6.552-1.872,9.864-2.808
		c0.648-0.288,1.296-0.576,1.944-0.936c4.104-0.936,4.104-0.936,9.36-2.664c3.6-0.216,3.6-0.216,5.256-0.576
		c-0.072,0.288-0.216,0.648-0.36,1.008c-1.944,2.16-1.944,2.16-7.992,7.272C149.472,47.448,143.856,47.736,138.24,48.096
		L138.24,48.096z M173.808,48.096c-0.72-0.576-0.72-0.576-5.904-8.928c0-0.36,0-0.792,0.072-1.224
		c1.008-0.36,1.008-0.36,4.608-0.864c2.16-0.072,4.32-0.144,6.48-0.216c1.944,2.232,1.944,2.232,6.264,8.712
		c0.072,1.008,0.072,1.008-0.288,1.368c-1.944,0.288-3.96,0.576-5.976,0.936C177.336,47.952,175.608,48.024,173.808,48.096
		L173.808,48.096z M206.928,48.096c-0.936-0.288-1.872-0.576-2.88-0.936c-0.936-1.008-1.872-2.016-2.88-3.096
		c-6.048-3.888-7.92-4.824-11.952-7.56c0-0.288,0.072-0.576,0.144-0.864c4.248-0.36,8.496-0.792,12.744-1.224
		c1.44,0,2.88,0.0721,4.32,0.144c0.144,0.576,0.36,1.152,0.576,1.728c5.688,3.672,5.688,3.672,8.568,5.112
		c0.2881,0.648,0.2881,2.304,0,2.664c-0.4319,0.144-0.936,0.288-1.44,0.432c-0.72,0.576-1.44,1.152-2.16,1.728
		c-0.576,0.144-1.152,0.288-1.728,0.432c-0.216,0.432-0.432,0.936-0.72,1.44C208.656,48.096,207.792,48.096,206.928,48.096
		L206.928,48.096z M189.648,46.44c-0.288-0.576-0.576-1.152-0.864-1.8c-2.448-2.16-2.448-2.16-3.384-3.312
		c0-0.288,0-0.648-0.072-1.008c4.536,1.8,5.04,2.304,6.48,2.736c1.152,1.008,2.88,1.944,3.816,3.024
		c-0.072,0.072-0.144,0.216-0.216,0.36C193.536,46.44,191.592,46.44,189.648,46.44L189.648,46.44z M134.64,43.776
		c-0.576-1.008-1.224-2.0161-1.872-3.096c-2.16-2.304-2.16-2.304-8.64-11.016c-0.072-0.432-0.144-0.864-0.288-1.296
		c4.608-0.216,9.288-0.4319,13.968-0.648c6.84,0.432,13.68,0.936,20.592,1.44c0.288,0.144,0.648,0.288,1.008,0.504
		c1.152,1.944,2.376,3.888,3.6,5.832c-0.144,0.216-0.288,0.432-0.504,0.648c-6.984,1.872-9.576,2.88-26.64,7.632
		C135.504,43.776,135.072,43.776,134.64,43.776L134.64,43.776z M165.168,35.424c-1.944-3.24-1.944-3.24-3.312-4.896
		c0-0.288,0-0.648-0.072-1.008c7.416,0.144,8.136-0.144,11.736,0.144c0.792,1.152,1.584,2.304,2.448,3.456
		c0,0.288,0,0.648,0.072,1.008C168.984,34.92,167.544,35.424,165.168,35.424L165.168,35.424z"/>
</g>
</svg>
