<?xml version="1.0" encoding="utf-8"?>
<!-- Generator: Adobe Illustrator 21.1.0, SVG Export Plug-In . SVG Version: 6.00 Build 0)  -->
<svg version="1.1" id="Ski" xmlns="http://www.w3.org/2000/svg" xmlns:xlink="http://www.w3.org/1999/xlink" x="0px" y="0px"
	 viewBox="0 0 582.4799 295.7792" enable-background="new 0 0 582.4799 295.7792" xml:space="preserve">
<g>
	<path fill-rule="evenodd" clip-rule="evenodd" d="M273.024,295.704c-2.52-0.432-5.112-0.936-7.704-1.44
		c-9.144-1.008-9.144-1.008-19.44-1.728c-0.936,0.072-1.872,0.144-2.88,0.288c-10.08-1.008-10.08-1.008-13.896-1.008
		c-0.504,0.504-0.504,0.504-1.224,0.72c-2.16-0.216-4.32-0.432-6.48-0.72c-6.048,0.36-12.096,0.792-18.216,1.224
		c-3.744-0.072-7.488-0.144-11.304-0.216c-2.304,0.36-4.608,0.72-6.984,1.152c-2.592,0-5.256,0-7.92,0
		c-1.944-0.288-3.96-0.576-5.976-0.936c-1.584-0.648-3.168-1.296-4.824-1.944c-1.944-0.504-3.96-1.08-5.976-1.656
		c-6.984,0.216-6.984,0.216-10.296,0c-0.72-0.288-1.44-0.576-2.16-0.936c-1.656-1.368-3.312-2.736-5.04-4.104
		c-1.656-0.9359-3.312-1.8719-5.04-2.88c-2.664-0.936-12.24-5.76-13.968-6.264c-7.632-0.936-7.632-0.936-19.872-1.872
		c-2.016,0-4.032,0-6.048,0c-5.832,0.504-11.664,1.08-17.496,1.656c-3.528-0.216-7.056-0.432-10.584-0.72
		c-1.872,0.504-1.872,0.504-6.48,0.72c-0.432-0.288-0.936-0.576-1.44-0.936c-0.864-1.296-0.864-1.296-1.944-3.744
		c-9.072-2.736-9.792-3.24-12.672-4.176c-0.648-0.72-1.296-1.5121-1.944-2.304c-0.288-0.936-0.576-1.872-0.936-2.88
		c-1.512-0.288-3.024-0.576-4.536-0.864c-3.672-0.072-7.344-0.144-11.088-0.216c-0.288-0.36-0.576-0.72-0.936-1.08
		c-0.288-0.792-0.576-1.584-0.864-2.376c0-0.576,0.072-1.152,0.144-1.8c3.6,0,7.2,0,10.8,0c7.92,0.936,7.92,0.936,12.456,1.152
		c0.288,0.144,0.648,0.288,1.008,0.504c0.72,0,1.44,0,2.16,0c0.432,0.144,0.936,0.288,1.44,0.504c0.936,1.08,0.936,1.08,1.296,2.016
		c0,0.576,0,1.152,0,1.728c-0.504,0.432-4.176,1.296-4.464,1.656c0.72,0.36,1.44,0.72,2.16,1.08
		c1.728,0.288,3.528,0.576,5.328,0.936c4.824,0.216,9.72,0.432,14.616,0.72c4.32-0.144,8.64-0.288,12.96-0.504
		c11.736-1.152,12.24-1.44,17.064-1.872c2.736,0.072,5.544,0.144,8.352,0.216c3.888,0.432,7.848,0.936,11.808,1.44
		c1.296,0.288,2.664,0.576,4.032,0.936c2.16,1.0081,2.16,1.0081,5.04,1.944c6.264,0.936,6.264,0.936,7.92,1.44
		c2.304,0.072,4.608,0.144,6.984,0.216c3.6-0.432,3.6-0.432,5.976-0.432c0.36,0.288,0.792,0.576,1.224,0.936
		c0.216,0.504,0.504,1.008,0.792,1.584c0.864,0.36,0.864,0.36,2.808,0.576c30.744-0.216,30.744-0.216,32.904-0.504
		c3.744,0.216,7.488,0.432,11.232,0.72c17.064,1.944,22.608,2.88,29.52,3.6c0.216-0.072,0.432-0.216,0.72-0.36
		c-1.656-1.08-1.656-1.08-2.88-1.512c-7.416-0.936-14.832-1.872-22.32-2.88c-4.752-1.44-4.752-1.44-7.2-2.448
		c-3.096-2.88-3.096-2.88-4.536-3.816c-1.944-0.648-3.96-1.296-5.976-1.944c-2.016-0.288-4.032-0.576-6.048-0.936
		c-3.672,0.072-7.344,0.144-11.016,0.216c-1.44,0.216-2.88,0.4319-4.32,0.72c-9.504-0.504-19.008-1.08-28.584-1.656
		c-3.6-0.936-9.36-1.944-12.96-2.88c-1.8-0.288-3.6-0.576-5.472-0.936c-2.016-0.648-4.032-1.296-6.048-1.944
		c-0.432-0.432-0.936-0.864-1.44-1.296c-0.504,0-1.08-0.072-1.656-0.144c-4.32,0.936-4.32,0.936-8.136,1.44
		c-3.024,0.144-6.048,0.288-9.144,0.504c-2.16,0.288-4.32,0.576-6.48,0.936c-5.112,0.072-10.224,0.144-15.336,0.216
		c-2.448-0.288-4.968-0.576-7.488-0.936c-1.224-0.288-2.52-0.576-3.816-0.936c-7.416-0.936-14.832-1.8719-22.32-2.88
		c-3.168-0.648-6.336-1.296-9.576-1.944c-0.36-0.288-0.792-0.576-1.224-0.936c-0.432-0.648-0.936-1.368-1.44-2.088
		c0-0.36-0.072-0.72-0.144-1.152c0.072-0.072,0.216-0.216,0.36-0.36c3.888,0.216,9.648,1.152,20.664,2.16
		c13.176,1.8719,15.12,2.376,22.104,3.312c5.76,0.288,5.76,0.288,16.056,0.288c4.536-0.504,6.264-1.008,13.68-1.944
		c2.376,0,2.376,0,8.64-0.936c1.512-0.432,3.024-0.936,4.536-1.44c1.44-1.008,1.44-1.008,4.104-1.944
		c2.88-0.36,5.76-0.792,8.64-1.224c1.872,0,3.816,0,5.76,0c2.232,0.288,4.464,0.648,6.696,1.008c2.88,0.792,5.76,1.584,8.64,2.376
		c2.016,0.288,4.032,0.576,6.048,0.936c1.44-0.072,2.88-0.144,4.32-0.216c0.072-0.072,0.144-0.216,0.216-0.36
		c-0.792-0.288-1.584-0.576-2.376-0.864c-1.368-0.144-2.736-0.288-4.104-0.432c-3.816-1.008-15.12-2.88-24.696-4.824
		c-3.672-0.864-7.344-1.728-11.088-2.664c-0.288,0.432-0.576,0.936-0.936,1.44c-1.224,0.648-2.52,1.296-3.816,1.944
		c-6.264,1.944-8.208,2.88-14.904,4.824c-1.872,0.144-3.816,0.288-5.76,0.4319c-6.696-0.216-6.696-0.216-15.624-1.152
		c-6.48-1.008-11.52-1.44-29.016-3.888c-9.576-0.432-12.456-0.216-22.536-0.432c-0.288-0.288-0.576-0.576-0.864-0.864
		c-1.008-2.592-1.008-2.592-1.008-3.312c0.216-0.144,0.432-0.288,0.648-0.432c12.24-0.216,12.24-0.216,21.6,0
		c1.656,0.504,6.48,1.008,10.296,1.728c1.152,0,2.376,0,3.6,0c14.4,1.872,14.4,1.872,26.424,3.096
		c3.312-0.072,6.696-0.144,10.08-0.216c2.664-0.504,2.664-0.504,7.416-1.944c1.224-0.504,2.52-1.008,3.816-1.512
		c0-0.216,0-0.432,0-0.72c-0.576-0.216-1.224-0.432-1.872-0.648c-7.92,0-9.576,0.216-29.016-0.216
		c-16.128-2.448-16.128-2.448-23.328-3.168c-2.016,0-4.104,0-6.192,0c-1.44,0.504-1.44,0.504-3.6,0.72
		c-0.288-0.216-0.576-0.504-0.864-0.792c-0.216-1.08-0.432-2.232-0.72-3.384c1.296-0.936,1.296-0.936,3.024-1.584
		c4.752-0.216,4.752-0.216,6.696,0c0.504,0.288,6.48,0.72,8.424,1.224c4.104,0.648,8.28,1.296,12.456,1.944
		c4.536,0.36,9.072,0.72,13.68,1.152c10.08,0,10.08,0,13.464-0.36c-2.664-2.016-2.664-2.016-9.864-6.336
		c-2.88-0.504-2.88-0.504-3.816-0.936c-1.656,0-3.312,0-5.04,0c-2.016,0.576-4.032,1.224-6.048,1.872
		c-0.576,0.288-1.224,0.648-1.872,1.008c-1.584,0.216-3.168,0.432-4.824,0.72c-2.376-0.504-2.376-0.504-2.808-0.864
		c-0.288-1.008-0.576-2.016-0.936-3.096c0.072-0.288,0.144-0.576,0.216-0.936c1.152-0.144,1.584,0.072,4.464-0.144
		c1.584-0.648,3.168-1.296,4.824-1.944c2.232-0.432,4.464-0.936,6.696-1.44c0-0.36,0.072-0.72,0.144-1.08
		c-0.648-0.792-1.296-1.584-1.944-2.376c-1.872-1.224-3.816-2.52-5.76-3.816c-9.144-7.704-13.176-11.52-17.784-15.408
		c-1.872-1.944-3.816-3.96-5.76-5.976c-2.16-1.656-4.32-3.312-6.48-5.0399c-2.088-2.088-4.176-4.1761-6.336-6.264
		c-2.736-1.872-16.92-13.68-23.184-18.432c-0.576-1.08-1.224-2.232-1.872-3.384c-0.432-1.368-0.936-2.736-1.44-4.104
		c0-0.504,0-1.08,0-1.656c0.936-1.224,0.936-1.224,2.16-2.16c-0.216-1.008-0.432-2.0161-0.72-3.096
		c-1.872-4.752-3.816-9.576-5.76-14.4c-1.08-2.088-2.232-4.1761-3.384-6.264c-0.072-1.08-0.144-2.232-0.216-3.384
		c0.432-0.432,0.864-0.936,1.296-1.44c0.648-0.288,1.296-0.576,1.944-0.864c2.952-0.576,5.904-1.224,8.856-1.8719
		c2.52-0.288,5.112-0.648,7.704-1.008c5.76-0.288,11.52-0.576,17.28-0.936c13.32-0.072,26.712-0.144,40.104-0.216
		c14.112,0.432,14.112,0.432,25.416,1.152c2.16,0.504,22.104,2.448,29.304,2.88c2.88,0.5041,2.88,0.5041,9.576,1.0081
		c10.8,1.872,14.904,2.88,24.48,4.32c0.432,0,0.936-0.072,1.44-0.144c0.36-0.504,0.72-1.08,1.08-1.656
		c3.6-2.88,4.032-3.6,23.256-18.936c4.464-3.816,8.928-7.632,13.464-11.52c1.296-1.44,2.664-2.88,4.032-4.32
		c0.648-0.432,1.296-0.936,1.944-1.44c0.072-0.288,0.144-0.648,0.216-1.008c-0.144-0.288-0.288-0.576-0.432-0.936
		c0.072-0.864,0.144-1.728,0.216-2.664c0.648-0.936,1.296-1.872,1.944-2.88c1.152-0.936,2.304-1.8719,3.456-2.88
		c1.296-0.576,2.592-1.152,3.888-1.8c1.8-0.432,3.6-0.936,5.472-1.44c2.088-0.144,4.176-0.288,6.264-0.504
		c0.072-1.44,0.216-2.88,0.36-4.392c0-4.752-0.072-9.504-0.144-14.328c-1.656-0.432-1.656-0.432-2.376-1.08
		c0.936-1.656,0.936-1.656,2.16-2.736c1.008-0.288,2.016-0.576,3.096-0.936c3.888,0.72,3.888,0.72,4.608,1.1519
		c0.288,0.576,0.648,1.224,1.008,1.872c0,0.288,0,0.576,0,0.936c-0.936,1.656-0.936,1.656-2.16,2.88c0,12.96,0,12.96-0.288,16.56
		c5.976,0,11.952,0,18,0.072c10.224,0.432,20.448,0.936,30.672,1.44c6.696,0.576,13.392,1.152,20.16,1.728
		c4.608,1.44,5.04,1.872,11.304,3.816c9.864,3.816,9.864,3.816,14.184,5.76c1.944,1.224,3.96,2.52,5.976,3.816
		c0.792,1.584,0.792,1.584,1.44,2.304c0.936,0.504,0.936,0.504,1.296,0.288c0.216-7.488-0.216-35.784,0-59.544
		c-0.072-6.264-0.144-12.6-0.216-18.936C340.776,9,340.776,9,340.56,0.36c0.144-0.072,0.36-0.216,0.576-0.36
		c0.72,0.072,1.44,0.144,2.16,0.216c0.648,0.288,1.296,0.6479,1.944,1.008c0.576,6.12,1.152,12.24,1.8,18.36
		c0.216,10.08,0,16.776,0.216,80.64c0.648,0.864,1.296,1.728,1.944,2.664c3.816,7.632,5.76,10.8,8.136,15.84
		c1.728,0.144,3.4561,0.36,5.184,0.576c1.656-0.288,7.704,0,15.84,0c6.696,0.936,6.696,0.936,10.296,1.8719
		c1.008,0.648,2.088,1.2961,3.168,1.944c1.872,1.944,1.872,1.944,3.816,4.68c1.8,4.104,1.8,4.104,1.944,5.04
		c1.224,0.072,2.52,0.216,3.816,0.36c4.752,1.08,9.576,2.232,14.4,3.384c4.32,0.432,4.32,0.432,17.064,2.88
		c1.152,0.4319,1.152,0.4319,7.92,0.936c2.232,0.432,4.464,0.936,6.696,1.44c10.8,1.44,12.744,1.944,16.776,2.376
		c3.24,0.648,6.552,1.296,9.864,1.944c2.952,0,5.9041,0,8.856,0c0.864-0.288,1.728-0.576,2.664-0.936
		c0.504-0.72,0.504-0.72,1.44-1.224c1.224-0.216,1.224-0.216,11.016-0.216c14.4001,0.936,14.4001,0.936,22.32,1.872
		c0.936,0.216,1.8721,0.432,2.88,0.72c1.296,0,2.592,0,3.8881,0c1.2959,0.288,2.6639,0.648,4.032,1.008
		c2.448,0.216,4.968,0.432,7.488,0.72c1.6559,1.224,3.312,2.5201,5.04,3.816c0.576,0.792,1.224,1.584,1.872,2.376
		c2.952,2.52,5.904,5.112,8.928,7.704c3.096,3.672,6.192,7.416,9.36,11.16c0.072,1.728,0.072,1.728-5.184,43.2
		c0,0.648,0.0719,1.296,0.144,1.944c2.8799,1.08,2.8799,1.08,11.9519,3.456c1.512,0.144,3.024,0.288,4.608,0.504
		c2.16,0.576,4.32,1.224,6.48,1.872c0.432,0.504,0.432,0.504,0.5759,1.8719c-0.5039,1.44-0.5039,1.44-1.0079,4.32
		c-0.936,1.44-0.936,1.44-2.448,2.736c-2.6641,0.432-5.328,1.44-13.248,3.312c-2.8799,1.008-2.8799,1.008-6.6959,1.944
		c-2.2321,0.288-4.464,0.576-6.696,0.936c-12.744,5.04-12.744,5.04-12.9601,5.4c3.4561,0,6.9841,0.072,10.5121,0.144
		c1.728,0.432,3.5279,0.936,5.328,1.44c7.416-0.216,8.856-0.504,13.3919-0.504c1.152,0.648,2.376,1.296,3.6,1.944
		c0,0.432,0.072,0.864,0.144,1.368c-0.432,0.576-0.864,1.152-1.296,1.728c-3.5999,0.648-7.2,1.296-10.7999,1.944
		c-2.736,0.936-5.472,1.872-8.208,2.808c-0.144,0.936-0.144,0.936,0.144,2.16c-1.0801,1.152-1.0801,1.152-1.8,1.512
		c-1.656,0.216-3.312,0.432-5.04,0.72c-0.648,0.432-1.2961,0.936-1.944,1.44c-2.952,0.648-5.904,1.296-8.856,1.944
		c-3.2401,0.936-6.5521,1.872-9.8641,2.88C520.2,268.0559,513.72,270,510.624,271.44c-4.032,0.648-8.136,1.296-12.2401,1.944
		c-10.7999,0.936-10.7999,0.936-17.064,1.872c-5.76,1.944-5.76,1.944-9.864,2.88c-2.52,0-5.04,0-7.632,0
		c-0.144,1.368-0.288,2.808-0.432,4.248c-0.504,0.072-1.008,0.216-1.512,0.36c-0.792-0.072-1.584-0.144-2.376-0.288
		c-4.608-1.872-6.048-2.88-7.704-3.312c-4.824-0.288-4.824-0.288-14.904-0.288c-2.592,0.288-5.256,0.576-7.92,0.864
		c-0.072,0.576-0.216,1.152-0.36,1.728c-0.144,0.144-0.288,0.288-0.504,0.432c0,0.936,0,1.872,0,2.88
		c-0.144,0.144-0.288,0.288-0.432,0.504c-1.296,0.072-12.6-1.8-17.64-2.304c-1.512-0.288-3.024-0.576-4.536-0.936
		c-1.296-0.432-2.592-0.936-3.888-1.44c-2.664-0.144-5.4-0.36-8.136-0.576c-0.072,0.432-0.216,0.936-0.36,1.44
		c-0.288,0.144-0.576,0.288-0.864,0.432c0,0.288-0.072,0.648-0.144,1.008c0.36,0.288,0.792,0.576,1.224,0.936
		c1.5121,0.576,3.096,1.152,4.68,1.8c0.288,0.36,0.648,0.72,1.008,1.08c0.288,4.32,0.288,4.32,0,4.68
		c-1.8-0.36-3.672-0.792-5.544-1.224c-1.44-0.936-1.44-0.936-4.32-1.944c-1.224-0.216-2.52-0.432-3.816-0.72
		c-0.288,0.144-0.648,0.288-1.008,0.504c-3.24-0.432-6.4799-0.936-9.792-1.44c-2.304,0-4.608,0-6.984,0
		c-1.44-0.576-1.44-0.576-2.376-1.44c-4.248,0-8.496,0-12.744,0c-8.64,0.936-8.64,0.936-10.08,1.44
		c-3.096,0.504-25.2,2.376-28.584,2.88c-2.88,0.072-5.76,0.144-8.64,0.216c-1.512-0.144-3.024-0.288-4.536-0.432
		c-0.72-0.36-1.44-0.792-2.16-1.224c-0.792,0-1.584,0-2.376,0c-0.72,0.576-1.728,2.52-2.88,3.6c-0.576,0-1.152-0.072-1.728-0.144
		c-0.288-0.648-0.576-1.368-0.864-2.088c-0.216-1.296-0.432-2.592-0.72-3.888c-0.144-0.072-0.36-0.216-0.576-0.36
		c-13.896,0.216-13.896,0.216-18.72,0c-0.72,0.5041-0.72,0.5041-4.464,1.368c0,0.216,0.0721,0.432,0.144,0.72
		c5.76,2.232,5.76,2.232,7.2,3.168c0.36,0.576,0.72,1.224,1.08,1.872c0.072,0.576,0.144,1.224,0.216,1.872
		c-0.144,0.288-0.288,0.648-0.432,1.008C273.24,295.848,273.24,295.848,273.024,295.704L273.024,295.704z M182.736,287.496
		c-0.576-0.504-1.224-1.08-1.872-1.656c-0.72-0.216-1.44-0.432-2.16-0.72c-1.368-0.072-2.736-0.144-4.104-0.2159
		c-6.264-1.944-6.264-1.944-7.2-2.52c0.216-0.36,0.216-0.36,3.096-0.864c1.512-0.072,3.024-0.144,4.608-0.216
		c2.016-0.576,4.104-1.152,6.192-1.728c4.752-0.072,9.576-0.144,14.4-0.216c2.448,0.504,15.12,1.44,18.72,1.944
		c2.232,0.144,4.464,0.288,6.768,0.432c5.472,1.008,5.472,1.008,18.72,2.448c1.152,0,2.376,0,3.6,0
		c3.312-1.0081,3.312-1.0081,8.136-1.944c5.256-0.504,5.256-0.504,7.92-0.36c-0.216,0.36-0.216,0.36-2.664,1.296
		c-0.864,0.144-1.728,0.2881-2.592,0.504c-0.576,0.36-1.152,0.72-1.728,1.08c-0.216,0.72-0.432,1.512-0.72,2.304
		c-0.72,0.216-5.976,0-6.696-0.288c-1.656,0-3.312,0-5.04,0c-5.472-0.432-11.016-0.936-16.56-1.44
		c-4.392-0.576-8.784-1.224-13.176-1.8719c-1.224-0.504-3.6-0.72-3.888-1.008c-2.448-0.432-4.896-0.936-7.416-1.44
		c-2.16-0.144-4.32-0.288-6.48-0.432c-1.584,0.072-3.168,0.144-4.824,0.216c-3.096,0.936-3.096,0.936-4.68,1.8
		c0.072,1.584,0.144,3.168,0.216,4.824C182.952,287.64,182.952,287.64,182.736,287.496L182.736,287.496z M378.864,275.04
		c-0.576-0.144-1.152-0.288-1.728-0.504c-0.144-0.216-0.288-0.504-0.432-0.792c0.72,0,1.44,0,2.16,0.072
		c0.432-0.576,0.936-1.224,1.44-1.872c2.376,0.072,4.752,0.144,7.2,0.216c0.216,0.072,0.432,0.216,0.72,0.36
		c-0.504,0.864-0.504,0.864-1.944,1.8C382.896,274.824,382.896,274.824,378.864,275.04L378.864,275.04z M352.944,273.816
		c-6.264-0.432-6.264-0.432-12.24-0.432c-1.008-0.288-2.088-0.648-3.168-1.008c-5.832-1.008-11.664-2.016-17.496-3.096
		c-0.072-0.072-0.144-0.216-0.216-0.36c4.32,0,8.64-0.072,12.96-0.144c4.464,0.216,8.928,0.432,13.392,0.72
		c0.288,0.144,0.576,0.288,0.936,0.432c0.0721,0.216,0.144,0.432,0.288,0.72c2.88,0.792,2.88,0.792,4.824,1.728
		c0.432,0.36,0.936,0.72,1.44,1.08C353.376,273.816,353.376,273.816,352.944,273.816L352.944,273.816z M240.12,270.936
		c-3.6-1.224-7.2-2.52-10.8-3.816c-13.68-1.944-13.68-1.944-19.224-2.376c-6.696-1.944-6.696-1.944-8.64-2.88
		c-0.864-0.792-1.728-1.584-2.592-2.448c-1.152-0.432-2.376-0.936-3.6-1.44c-7.704-1.872-7.704-1.872-11.52-2.376
		c-3.456-0.144-6.912-0.288-10.368-0.504c-6.48,1.008-6.48,1.008-9.072,1.008c-2.808-0.288-5.616-0.648-8.424-1.008
		c-5.184-0.144-10.368-0.288-15.624-0.432c-4.032-1.008-4.032-1.008-18.72-3.744c0-0.216,0-0.432,0-0.72
		c1.296-0.144,2.592-0.36,3.888-0.576c7.2,0,7.2,0,11.016,0.4319c3.6,0.936,7.2,1.872,10.8,2.88c2.952,0.432,5.904,0.936,8.856,1.44
		c1.728-0.144,3.528-0.288,5.328-0.432c2.304-0.936,4.608-1.872,6.912-2.88c0.864-0.576,1.728-1.152,2.664-1.8
		c2.16-0.144,3.384,0.072,14.904,0.072c5.472,1.944,5.472,1.944,8.352,3.384c0.792,0.072,1.584,0.144,2.448,0.216
		c0.792-0.216,1.584-0.432,2.376-0.72c5.76-0.216,5.76-0.216,10.08,0c0.936,0.144,1.872,0.288,2.88,0.504
		c5.256,1.944,5.256,1.944,5.04,2.16c-3.6-0.216-11.736-1.656-13.896-1.656c-0.144,0.072-0.288,0.216-0.432,0.36
		c-0.216,1.656-0.216,1.656,0,4.104c0.288,0.288,0.576,0.6479,0.864,1.008c4.752,0.648,9.576,1.296,14.4,1.944
		c3.672,0,7.344,0,11.088,0c5.328-0.288,10.656-0.576,16.056-0.936c6.84,0.072,13.752,0.144,20.664,0.216
		c0.504,0.072,1.08,0.216,1.656,0.36c0.216,1.44,0.504,2.88,0.792,4.32c0.432,0.432,0.936,0.936,1.44,1.44
		c-0.072,0.216-0.144,0.432-0.216,0.72c-2.376,0.576-4.824,1.152-7.272,1.8c-1.656,0.216-3.312,0.432-5.04,0.72
		c-1.44-0.504-1.44-0.504-1.944-0.936c-4.104-0.792-8.28-1.584-12.456-2.448c-0.576-0.216-1.152-0.4319-1.728-0.72
		c-0.288,0-0.576,0.0721-0.936,0.144c-0.144,1.224-0.144,1.224,0.36,4.32c0.432,0.72,0.432,0.72,0.36,1.296
		C240.624,270.936,240.408,270.936,240.12,270.936L240.12,270.936z M304.92,270.72c-5.04-0.504-6.984-0.936-8.424-0.936
		c-1.44-0.504-1.44-0.504-1.8-0.864c0-0.432,0-0.936-0.072-1.44c1.296-0.144,2.664-0.36,4.032-0.576
		c0.288-0.36,0.648-0.7921,1.008-1.224c0.072-0.432,0.144-0.864,0.216-1.296c0.72,0.072,0.936,0.36,2.664,0.792
		c0.288,0.144,0.576,0.2881,0.936,0.504c0.36,0.864,0.36,0.864,0.936,1.368c1.152,0.216,2.376,0.504,3.6,0.792
		c3.384,0,3.384,0,11.088,0.72c-0.864,0.288-1.728,0.576-2.664,0.936c-2.088,0.288-4.176,0.648-6.264,1.008
		C308.448,270.576,306.72,270.6479,304.92,270.72L304.92,270.72z M444.096,268.0559c-1.44-0.144-2.88-0.288-4.32-0.4319
		c-10.512,0.216-10.512,0.216-15.84,0c-3.96-0.432-7.92-0.936-11.952-1.44c-2.52-0.0721-5.112-0.144-7.704-0.2881
		c-7.344,0.144-14.688,0.2881-22.104,0.504c-1.08-0.144-2.16-0.288-3.312-0.504c-2.448-0.936-6.768-1.872-9.36-2.88
		c-2.304-0.288-4.608-0.576-6.984-0.936c-2.52-0.072-5.112-0.144-7.704-0.216c-4.608,0.216-9.216,0.432-13.896,0.72
		c-4.464-0.792-8.928-1.584-13.464-2.448c-8.208-0.288-16.416-0.576-24.696-0.936c-2.16-0.504-6.48-0.936-10.8-1.944
		c-3.168-0.432-6.336-0.936-9.576-1.44c-4.896-0.288-9.792-0.576-14.688-0.936c-30.96-0.936-30.96-0.936-37.44-1.44
		c-1.656-0.288-3.312-0.576-5.04-0.936c-2.016-0.648-4.104-1.296-6.192-1.944c-0.504-0.504-0.504-0.504-7.92-3.384
		c-1.296-0.216-2.592-0.4319-3.888-0.72c-2.52,0-5.04,0-7.632,0c-1.296,0.288-2.592,0.648-3.888,1.008c-0.864,0-1.728,0-2.592,0
		c-1.944-1.008-1.944-1.008-3.888-1.44c-0.792-0.432-1.584-0.936-2.376-1.44c-3.096-0.504-3.096-0.504-9.144-0.72
		c-1.944,0.072-3.96,0.144-5.976,0.216c-4.536-0.72-8.136-0.936-8.424-1.224c-4.32-0.432-4.32-0.432-38.16-6.192
		c-13.896-3.888-15.552-4.608-18-5.0399c-3.24-1.2961-6.48-2.592-9.792-3.888c-0.72-0.432-1.44-0.864-2.232-1.296
		c-0.144-0.72-0.36-1.44-0.576-2.16c-0.432-0.504-0.864-1.08-1.296-1.656c0.288-0.0721,0.576-0.216,0.936-0.36
		c10.8,1.656,10.8,1.656,31.464,5.472c27.36,3.888,27.36,3.888,35.784,4.824c6.624,1.224,13.248,2.52,19.872,3.816
		c8.928,1.296,17.928,2.592,26.928,3.888c31.392,3.816,31.392,3.816,49.68,5.76c5.04,0.936,5.04,0.936,22.536,2.88
		c22.32,1.872,22.32,1.872,31.896,2.376c12.4561,1.224,24.912,2.52,37.44,3.816c24.48,1.728,24.48,1.728,40.608,2.448
		c8.64,0.792,17.28,1.584,25.92,2.376c22.536,0.216,22.536,0.216,31.392,0c0.144,1.584-0.36,7.344-0.72,8.136
		C446.04,268.0559,445.104,268.0559,444.096,268.0559L444.096,268.0559z M479.376,268.0559c-2.016-0.144-4.104-0.36-6.192-0.576
		c0-0.216,0-0.432,0-0.72c14.1119-3.24,14.1119-3.24,16.56-3.456c2.592,0.936,2.592,0.936,5.7599,1.512
		c-0.216,0.216-0.4319,0.432-0.72,0.648c-1.44,0.4319-2.8799,0.9359-4.3199,1.44c-2.0161,0.144-4.032,0.288-6.0481,0.4319
		C482.76,267.84,482.76,267.84,479.376,268.0559L479.376,268.0559z M460.944,262.944c0.288-3.384,0.792-5.04,1.008-7.416
		c-0.288-0.432-0.576-0.936-0.936-1.44c-0.504,0-1.008-0.072-1.512-0.144c-0.504,0.432-0.504,0.432-4.104,1.296
		c0.72-7.776,1.4399-15.624,2.16-23.472c1.152,0.288,2.376,0.648,3.6,1.008c1.728,0,3.456,0,5.256,0
		c0.72-0.144,1.44-0.288,2.16-0.432c0.288-0.504,0.648-1.008,1.008-1.584c0.792-2.592,0.792-2.592,1.008-4.536
		c-0.432-1.6559-0.432-1.6559-1.008-2.304c-2.16-0.216-2.16-0.216-6.048,0.216c-0.792,0.288-1.584,0.648-2.376,1.008
		c-2.16,2.592-2.16,2.592-2.88,3.024c0-1.8,0-3.672,0-5.544c0.936,0,1.872-0.0721,2.88-0.144c2.304-0.504,4.608-1.08,6.984-1.656
		c3.96-0.432,7.92-0.936,11.952-1.44c0.072,0.144,0.216,0.36,0.3601,0.576c-0.2161,4.32,0,9.144-0.2161,14.184
		c-0.288,0.864-0.648,1.728-1.008,2.664c-5.904,1.512-11.88,3.024-17.856,4.608c-0.288,0.36-0.576,0.72-0.864,1.152
		c0,0.216,0.072,0.504,0.144,0.792c2.016,0.72,4.032,1.44,6.048,2.16c5.112,0.648,10.224,1.296,15.336,1.944
		c2.52,0.576,5.112,1.1519,7.704,1.8c0,0.216-0.0721,0.432-0.144,0.72c-4.68,2.232-4.68,2.232-5.904,3.24
		c-3.024,1.224-6.048,2.52-9.072,3.816c-1.728,0.936-3.528,1.872-5.328,2.88C466.416,260.856,461.88,262.8,460.944,262.944
		L460.944,262.944z M536.976,257.5439c-0.576-1.584-0.8641-1.8-0.936-2.736c0.432-0.144,0.936-0.288,1.4399-0.432
		c1.0801,0.072,2.2321,0.216,3.3841,0.36c-0.576,0.288-1.224,0.648-1.872,1.008c-0.144,0.504-0.288,1.08-0.432,1.6559
		C538.056,257.3999,537.552,257.472,536.976,257.5439L536.976,257.5439z M497.16,253.368c0.216-0.864,0.504-1.728,0.792-2.664
		c10.944-0.144,10.944-0.144,16.9921,0.072c-0.504,0.504-0.504,0.504-3.384,1.44C507.744,252.72,507.744,252.72,497.16,253.368
		L497.16,253.368z M541.584,252.936c-0.288-0.792-0.6479-1.584-1.008-2.448c2.88,0,5.76-0.072,8.64-0.144
		c-0.432,0.432-0.432,0.432-5.472,2.376C543.024,252.792,542.304,252.864,541.584,252.936L541.584,252.936z M418.68,249.12
		c-3.384-0.504-3.384-0.504-48.024-3.384c-38.592-3.312-38.592-3.312-47.016-4.32c-43.704-3.312-43.704-3.312-64.584-5.256
		c-29.016-3.816-29.016-3.816-82.512-11.52c-15.984-2.52-31.968-5.112-48.024-7.704c-15.12-1.872-15.12-1.872-35.28-3.816
		c-4.32-0.936-4.32-0.936-8.136-1.44c-2.088-0.648-4.176-1.296-6.264-1.944c-0.936,0-1.872,0-2.88,0
		c-0.648-0.288-1.296-0.576-1.944-0.936c-2.16-1.944-4.752-3.816-6.912-5.976c-2.448-1.944-6.48-5.76-11.52-9.864
		c-1.872-2.016-3.744-4.032-5.688-6.12c0-0.288,0-0.576-0.072-0.936c3.456,0,6.984-0.0721,10.512-0.144
		c9.72,0.648,19.512,1.296,29.304,1.944c7.416,0.144,14.832,0.288,22.32,0.432c12.24,1.008,20.88,1.44,22.104,1.728
		c5.832,0.288,11.664,0.576,17.496,0.936c8.856,0.936,8.856,0.936,15.624,1.944c20.88,1.8719,20.88,1.8719,28.512,2.88
		c1.584,0.288,3.168,0.576,4.824,0.936c0.72,0.504,0.72,0.504,2.376,0.936c12.24,1.44,12.24,1.44,25.92,2.448
		c5.544,0.936,8.928,1.152,10.584,1.656c12.168,1.224,24.336,2.52,36.504,3.816c1.728,0.288,3.456,0.648,5.256,1.008
		c18.216,1.872,18.216,1.872,24.696,2.88c2.52,0.144,5.112,0.288,7.704,0.432c8.856,1.944,8.856,1.944,17.784,3.384
		c4.896,0.36,9.864,0.792,14.832,1.224c2.376,0,4.752,0,7.2,0c1.152,0.216,2.376,0.432,3.6,0.72
		c6.696,0.432,13.392,0.936,20.16,1.44c13.608,1.584,27.216,3.168,40.824,4.752c14.184,0.72,14.184,0.72,22.824,1.44
		c3.6,0,7.2,0.072,10.872,0.144c-0.216,3.96-0.432,7.992-0.72,12.024c-0.432,4.464-0.936,8.928-1.44,13.464
		c-5.832,0.072-11.736,0.144-17.64,0.288c-1.152,0.144-2.376,0.2881-3.6,0.504C425.088,249.12,421.92,249.12,418.68,249.12
		L418.68,249.12z M502.2,243.576c-5.04-0.936-10.08-1.944-15.12-2.952c0.072-0.2881,0.144-0.576,0.2159-0.864
		c1.368-0.288,2.7361-0.576,4.1041-0.936c1.44-0.072,2.88-0.144,4.32-0.288c0.648,0.792,1.296,1.584,1.944,2.448
		c6.912,2.376,6.912,2.376,6.696,2.592C503.64,243.576,502.92,243.576,502.2,243.576L502.2,243.576z M532.944,241.2
		c-1.1521-0.936-2.376-1.872-3.6-2.88c-0.648-0.288-1.296-0.576-1.944-0.936c-1.944-0.288-3.96-0.648-5.9761-1.008
		c-2.8799-1.872-2.8799-1.872-4.32-2.52c0.2161-0.36,0.2161-0.36,4.5361-1.296c0.432,0.072,0.936,0.144,1.44,0.216
		c0.1439,0.216,0.288,0.432,0.504,0.72c1.296,0.648,2.664,1.296,4.032,1.944c0.72,0.144,1.44,0.288,2.16,0.504
		c2.16,1.224,4.32,2.448,6.48,3.744c0,0.216,0,0.504,0,0.792C534.816,240.9839,534.816,240.9839,532.944,241.2L532.944,241.2z
		 M106.704,237.744c0-0.432,0-0.936,0-1.44c0.504,0,1.08,0,1.656,0.072c0.216,0.216,0.432,0.432,0.72,0.648
		C108.864,237.384,108.864,237.384,106.704,237.744L106.704,237.744z M484.92,235.584c0-1.008,0-2.016,0.072-3.096
		c0.216-0.216,0.432-0.432,0.648-0.648c3.744-1.08,7.488-2.232,11.304-3.384c1.008-0.072,2.0161-0.144,3.096-0.216
		c-0.36,3.528-0.36,3.528-0.648,4.248c-0.6479,0.216-1.296,0.504-2.016,0.792C493.272,234,489.096,234.792,484.92,235.584
		L484.92,235.584z M550.44,235.224c-1.368-0.864-2.736-1.728-4.104-2.664c-1.728-0.288-3.456-0.576-5.256-0.936
		c-1.008-0.432-2.016-0.936-3.0961-1.44c0-0.2881-0.072-0.576-0.1439-0.864c3.4559-0.864,3.4559-0.864,5.904-1.08
		c0.288,0.36,0.576,0.72,0.936,1.08c3.6,2.016,3.6,2.016,5.976,3.024c1.7281,0.432,1.7281,0.432,4.824,1.8
		c-0.0719,0.072-0.1439,0.216-0.2159,0.36C553.68,234.72,552.096,234.936,550.44,235.224L550.44,235.224z M505.296,231.2639
		c0.36-3.816,0.864-5.976,1.296-9.864c0.504-2.16,1.0081-7.2,1.4399-8.352c0.576-0.288,1.1521-0.648,1.8001-1.008
		c1.8-0.576,3.672-1.152,5.544-1.8c17.064-3.816,17.064-3.816,20.6639-4.824c4.4641-0.792,8.928-1.584,13.4641-2.376
		c1.368,0,2.736,0.072,4.176,0.144c-0.72,5.976-0.72,5.976-1.224,7.2c-0.36,0.36-0.792,0.792-1.224,1.224
		c-0.432,1.656-0.936,3.312-1.4401,5.04c-0.2159,4.536-0.2159,4.536-0.5759,5.112c-35.28,7.704-35.28,7.704-40.752,9.144
		C507.456,230.976,506.376,231.12,505.296,231.2639L505.296,231.2639z M485.424,229.1039c0.072-1.296,0.144-2.592,0.216-3.96
		c1.368-0.288,2.736-0.648,4.104-1.008c0.576-0.288,1.224-0.576,1.8719-0.936c7.704-1.656,8.64-2.16,9.864-2.232
		c-0.3599,3.312-0.3599,3.312-0.7199,3.672C490.68,227.52,488.52,228.456,485.424,229.1039L485.424,229.1039z M487.08,221.5439
		c-0.504,0-1.08-0.072-1.656-0.144c0-0.864-0.072-1.728-0.144-2.592c0.288-0.216,0.576-0.432,0.864-0.648
		c2.16-0.288,4.32-0.576,6.48-0.936c7.92-1.944,7.92-1.944,9.3599-2.016c0,0.936-0.072,1.872-0.1439,2.88
		c-0.3601,0.288-3.24,0.792-3.96,1.296c-2.808,0.72-5.616,1.44-8.424,2.16C488.664,221.5439,487.872,221.5439,487.08,221.5439
		L487.08,221.5439z M451.296,218.6639c-0.144-0.072-0.36-0.216-0.576-0.36c0.216-9.144,0.216-9.144,1.152-25.2
		c0.144-1.152,0.288-2.376,0.504-3.6c0.432-0.072,0.864-0.144,1.368-0.216c0,4.392,0,8.784,0.072,13.176
		c-0.936,11.52-0.936,11.52-1.656,15.624C451.512,218.808,451.512,218.808,451.296,218.6639L451.296,218.6639z M485.136,216
		c0-1.44-0.072-2.88-0.144-4.392c0.216-1.296,0.432-2.592,0.72-3.888c0.2159-0.288,0.432-0.576,0.6479-0.864
		c2.6641-0.432,2.6641-0.432,2.952-0.792c0-0.288,0-0.576,0-0.936c-0.576-0.432-0.576-0.432-3.096-0.72
		c0.216-3.2401,0.432-6.552,0.648-9.864c0.4319-0.072,0.936-0.144,1.44-0.216c0.36,2.304,0.72,4.608,1.152,6.912
		c1.296,0.432,2.5919,0.864,3.8879,1.296c1.44,0,1.872-0.216,5.256-0.432c0.288-0.432,0.576-0.864,0.936-1.368
		c0.864-4.032,0.864-4.032,0.864-5.976c-0.432-0.648-0.864-1.296-1.2961-2.016c-4.32,0.216-6.984,0.72-8.928,0.576
		c-0.36-0.36-0.7199-0.72-1.1519-1.08c-0.6481-0.216-1.3681-0.504-2.0881-0.792c-0.648-2.232-1.296-4.464-1.944-6.7679
		c-0.072-1.0081-0.144-2.0161-0.216-3.096c0.36-0.36,7.56-1.8,8.568-2.304c1.224-0.216,2.5201-0.432,3.816-0.72
		c0.648,0,1.2961,0.072,1.944,0.144c0.072,0.72,0.144,1.44,0.288,2.16c0.432,0.36,0.432,0.36,3.528,1.224
		c0.36,2.376,0.36,2.376,0.36,6.696c-0.7919,0.648-1.584,1.296-2.4479,1.944c0,0.216,0,0.432-0.072,0.72
		c1.008,0,2.016-0.072,3.096-0.144c0.072,0.36,0.216,0.72,0.36,1.08c0,7.2,0,7.2-0.216,8.64c-0.36,0.36-3.24,1.296-3.744,1.8719
		c0,0.504-0.072,1.0081-0.144,1.5121c1.08,0.072,2.16,0.144,3.312,0.216c0.0721,0.936,0.0721,0.936-0.864,7.2
		c-0.6481,0.432-1.296,0.864-2.016,1.296c-0.36,0-0.792,0.072-1.224,0.144c0.144-0.72,0.36-1.44,0.576-2.16c0-1.224,0-2.52,0-3.816
		c-0.144-0.288-0.288-0.648-0.504-1.008c-0.504-0.072-1.008-0.216-1.512-0.36c-1.944,0.072-3.96,0.144-5.976,0.216
		c-0.72,0.216-1.44,0.432-2.16,0.72c-0.288,0.36-0.648,0.792-1.008,1.224c-0.0721,0.432-0.216,0.864-0.36,1.368
		c0.072,1.152,0.144,2.376,0.216,3.6c0.216,0.288,0.432,0.576,0.72,0.936c0,0.36,0,0.72-0.072,1.08
		C487.872,215.352,486.504,215.64,485.136,216L485.136,216z M491.904,190.08c-1.224-0.504-2.448-1.008-3.6721-1.512
		c-0.144-1.728-0.36-3.528-0.576-5.328c1.584-0.864,1.584-0.864,4.464-1.584c1.728,0,3.456,0,5.256,0
		c0.432,0.144,0.936,0.288,1.44,0.432c0.36,0.72,0.36,0.72,1.08,5.04c-0.288,0.432-0.576,0.936-0.936,1.44
		c-1.2961,0.504-2.592,1.008-3.96,1.512C493.992,190.08,492.9839,190.08,491.904,190.08L491.904,190.08z M459.504,183.24
		c0.072-0.864,0.144-1.728,0.288-2.592c0.576-2.232,1.224-4.464,1.872-6.768c0.504,0.072,1.08,0.216,1.656,0.36
		c1.944-0.504,4.536-0.504,9.576-1.44c1.008-0.288,2.088-0.576,3.168-0.936c0.72,0,1.44,0,2.16,0
		c1.296,3.456,1.296,3.456,2.2321,7.776c0,0.288,0,0.648,0,1.008C479.88,180.936,479.88,180.936,459.504,183.24L459.504,183.24z
		 M451.296,182.376c-23.76-2.16-23.76-2.16-30.2401-2.376c-1.224,0.072-2.52,0.144-3.816,0.216c-12.744-1.44-15.84-1.44-27.36-2.592
		c-2.088-0.288-4.176-0.648-6.264-1.0081c-2.376-0.144-4.752-0.288-7.2-0.4319c-0.576-0.144-1.224-0.2881-1.872-0.504
		c-1.512,0-3.024,0-4.608,0c-1.152-0.2881-2.376-0.576-3.6-0.936c-3.024-0.36-6.048-0.7921-9.072-1.224
		c-0.792,0.072-1.584,0.144-2.448,0.216c-3.6-0.936-3.6-0.936-11.016-2.16c-5.04-0.432-5.04-0.432-5.76-0.72
		c-12.024,0-18-0.432-21.6-0.432c-3.024-0.432-6.048-0.936-9.144-1.44c-22.536-0.72-22.536-0.72-29.736-0.72
		c-17.496-1.008-17.496-1.008-23.76-1.728c-0.072-0.072-0.144-0.216-0.216-0.36c1.152-1.08,1.152-1.08,2.16-1.512
		c0.216-0.432,0.504-0.864,0.792-1.296c-0.072-0.432-0.144-0.936-0.216-1.44c-1.44-2.16-1.44-2.16-1.8-3.384
		c8.856,0.792,8.856,0.792,15.84,1.8c4.32,0.936,11.52,1.872,16.56,2.88c4.104,0.432,8.856,1.44,12.96,1.872c2.592,0,5.256,0,7.92,0
		c1.08-0.288,2.232-0.576,3.384-0.936c4.32-1.944,4.32-1.944,9.792-3.816c2.16-0.288,2.16-0.288,9.144-0.288
		c22.536,2.88,28.2961,3.888,30.24,3.888c3.6,0.936,8.856,1.872,10.08,2.376c3.744,0.792,7.488,1.584,11.304,2.376
		c2.016,0.144,4.104,0.288,6.192,0.504c1.296,0.288,2.592,0.576,3.888,0.936c6.12,0.432,12.24,0.936,18.432,1.44
		c3.168,0.36,6.408,0.792,9.648,1.224c2.448,0,4.896,0,7.416,0c6.84,0.576,13.752,1.152,20.664,1.8c0,0.216,0,0.432,0.072,0.72
		c0.36,0.432,0.7921,0.936,1.224,1.44c1.656,0.288,3.384,0.648,5.112,1.008c0,0.504,0.072,1.08,0.144,1.656
		c-0.504,1.944-0.504,1.944-0.936,2.664C452.88,182.16,452.088,182.2319,451.296,182.376L451.296,182.376z M485.136,178.776
		c-0.216-0.072-0.216-0.072-1.8-5.616c0-0.36,0.072-0.72,0.144-1.08c4.104-0.936,6.696-1.944,11.52-2.88
		c0.432,0.072,0.936,0.144,1.44,0.216c0.504,0.864,1.8,5.184,1.8,6.192c-2.304,0.792-6.624,1.728-9,2.736
		C487.872,178.4879,486.504,178.632,485.136,178.776L485.136,178.776z M506.736,176.4c-3.744-7.056-3.744-7.056-4.4639-7.992
		c0-0.288,0-0.648,0-1.008c0.1439-0.144,0.288-0.288,0.504-0.432c0.072-0.7921,0.144-1.584,0.216-2.448
		c-0.936-2.376-0.936-2.376-1.872-3.816c-0.72-0.648-1.512-1.296-2.304-1.944c-1.728,0-3.456-0.072-5.256-0.144
		c-4.464,0.648-8.928,1.296-13.464,1.944c-1.512,0.36-3.024,0.792-4.536,1.224c-1.944,0.216-3.96,0.432-5.976,0.72
		c-0.216-0.144-0.432-0.288-0.72-0.504c-0.792,0.072-1.584,0.144-2.448,0.216c-3.744,4.968-3.744,4.968-6.696,8.208
		c-0.72,0-0.72,0-1.656-0.72c-1.152,0-2.376,0.072-3.6,0.144c0.072-0.432,0.144-0.936,0.288-1.44
		c0.936-1.5121,1.872-3.024,2.88-4.608c0-0.288,0-0.576,0-0.936c-0.936-0.72-1.944-1.512-2.952-2.304
		c-0.432-0.072-0.936-0.144-1.44-0.216c-0.504,0.144-1.08,0.288-1.656,0.432c-0.72-0.216-1.44-0.432-2.16-0.72
		c-21.888-0.72-22.32-0.936-27.36-0.936c-0.936,1.008-1.872,2.016-2.88,3.096c-0.72,0.288-1.44,0.648-2.16,1.008
		c-0.576,0.432-1.152,0.936-1.728,1.44c-0.36,0.072-0.792,0.216-1.224,0.36c-0.072,0.432-0.216,0.936-0.36,1.44
		c-0.144,0.072-0.36,0.216-0.576,0.36c-2.88,0-5.472-0.504-22.536-1.44c-1.512-0.288-3.024-0.648-4.536-1.008
		c-2.016-0.144-4.032-0.288-6.048-0.432c-5.112-0.864-10.224-1.8-15.336-2.736c0.216-1.08,0.504-2.232,0.792-3.384
		c1.08-1.584,2.232-3.168,3.384-4.824c1.152-0.936,2.304-1.872,3.456-2.88c1.728-0.864,1.728-0.864,4.824-1.584
		c0.576,0,1.152,0,1.728,0c0.288,0.288,0.576,0.648,0.936,1.008c0.72,0.144,1.44,0.288,2.16,0.432c2.664,0,5.4,0,8.136,0
		c0.36,0.144,0.792,0.288,1.224,0.504c2.376,0.072,4.752,0.144,7.2,0.216c2.664,0.504,2.664,0.504,14.4,1.44
		c1.368,0.288,2.736,0.648,4.104,1.008c5.976,0.576,11.952,1.224,18,1.872c5.472,0,5.472,0,7.2-0.216
		c2.304,0.432,4.608,0.936,6.912,1.44c2.232,0.144,4.464,0.288,6.768,0.504c2.16,0.576,4.32,1.224,6.48,1.872
		c1.296,0.144,2.664,0.288,4.032,0.504c2.232-0.072,4.464-0.144,6.768-0.216c0.36-0.36,0.72-0.72,1.152-1.08
		c-0.072-0.36-0.144-0.792-0.216-1.224c5.256,0.144,5.256,0.144,18-0.36c8.64-0.936,16.776-1.44,19.944-1.944
		c0.288-0.144,0.576-0.288,0.936-0.432c4.1039,0.072,8.28,0.144,12.456,0.216c0.36-0.36,0.36-0.36,0.504-1.8
		c0.504-0.072,1.08-0.216,1.656-0.36c4.32,0.72,4.32,0.72,6.984,1.584c-0.216,0.36-2.664,0.792-3.816,1.296
		c-2.736,0.288-5.472,0.576-8.208,0.936c-1.44,0-2.88,0-4.32,0c-2.8799,0.936-5.7599,1.872-8.64,2.88
		c-0.288,0.432-0.576,0.936-0.936,1.44c0,1.152-0.072,2.304-0.144,3.528c1.4401,1.656,2.0161,2.88,3.024,3.672
		c0.648-0.072,1.296-0.144,1.944-0.216c0.936-0.936,0.936-0.936,1.872-1.44c1.944-0.504,1.944-0.504,11.52-1.224
		c2.448-0.072,4.968-0.144,7.488-0.216c4.752-0.936,7.92-1.944,9.576-2.16c5.256,3.816,7.416,5.76,8.856,6.696
		c0.576,0.576,1.152,1.152,1.728,1.8c-0.288,0.216-0.648,0.432-1.0081,0.648c-9.072,1.872-9.072,1.872-16.2719,2.88
		c-8.496,0.792-16.992,1.584-25.488,2.376C510.12,176.4,508.464,176.4,506.736,176.4L506.736,176.4z M250.2,166.3199
		c-2.664-0.072-5.4-0.144-8.136-0.216c-6.48-1.008-23.76-2.88-25.92-3.384c-4.608-0.216-9.288-0.432-13.968-0.72
		c-0.36-0.144-0.72-0.288-1.152-0.504c-12.96-1.152-16.128-1.152-25.704-2.16c-1.656-0.288-3.312-0.576-5.04-0.936
		c-2.304-0.144-4.608-0.288-6.984-0.504c-2.592,0.2881-2.592,0.2881-6.48,0.2881c-4.176-0.432-8.424-0.936-12.672-1.44
		c-4.824,0-16.56-1.008-25.92-1.44c-4.824-0.504-10.368-0.504-32.4-1.44c-5.328,0.216-5.328,0.216-37.44,0
		c-9.072,0.144-18.216,0.36-27.36,0.576c0-0.288,0-0.576,0.072-0.936c1.44-0.72,2.952-1.512,4.464-2.304
		c6.48-1.44,6.48-1.44,7.416-1.44c1.008,0.504,1.008,0.504,2.16,0.504c1.152-0.576,2.376-1.152,3.6-1.728
		c1.8-0.144,3.672-0.288,5.544-0.432c1.44-0.504,1.44-0.504,9.36-1.44c12.24,0.432,17.28,0.216,18.216,0.432
		c4.608-0.216,4.608-0.216,8.64-0.72c4.176,0,8.352,0,12.528,0c0.792-0.144,1.584-0.288,2.376-0.432c1.872,0,3.816,0,5.76,0
		c5.04,0.72,10.08,1.44,15.12,2.16c0.72,1.44,1.44,2.952,2.232,4.464c0.432,0.216,0.864,0.432,1.368,0.72
		c0.36-0.144,0.792-0.288,1.224-0.432c0.72-0.648,1.44-1.296,2.16-2.016c0.144-0.792,0.288-1.584,0.432-2.376
		c1.44,0,2.88-0.0721,4.32-0.144c1.656,0.288,3.312,0.576,5.04,0.936c4.824,0.288,14.4,0.288,16.848,0
		c4.32,1.008,4.32,1.008,10.8,1.944c3.312,0.216,3.312,0.216,6.696,0c4.536,0.936,4.536,0.936,8.856,1.44
		c1.008,1.584,1.8,3.744,2.736,4.968c0.288,0,0.576,0,0.864,0.0721c2.16-0.936,2.16-0.936,3.384-1.944
		c0.144-0.288,0.36-0.648,0.576-1.008c0-0.648,0.072-1.296,0.144-1.944c15.84,0.072,15.84,0.072,36,0.792
		c17.496,1.944,17.496,1.944,23.76,2.88c0.36,0.288,0.792,0.648,1.224,1.008c2.088,2.736,4.176,5.472,6.336,8.28
		c0,0.144-0.072,0.36-0.144,0.576C250.848,166.3199,250.56,166.3199,250.2,166.3199L250.2,166.3199z M412.704,163.44
		c-22.608-0.936-27.36-1.44-37.44-1.656c-0.36-0.36-0.792-0.792-1.224-1.224c-0.288-0.648-0.576-1.296-0.864-2.016
		c0-0.936,0.0721-1.872,0.144-2.88c0.072-0.072,0.216-0.144,0.36-0.216c0-0.576,0-1.152,0-1.728c0.144-0.072,0.36-0.216,0.576-0.36
		c1.44,0.072,2.88,0.144,4.32,0.216c0.432,0.144,0.936,0.288,1.44,0.504c2.016,0.144,4.032,0.288,6.048,0.504
		c1.008,0.216,2.016,0.432,3.096,0.72c14.616,0.936,17.496,1.44,23.544,1.8719c0.576,0.432,1.224,0.936,1.872,1.44
		c0.576,0.936,1.152,1.872,1.8,2.808c0,0.36,0,0.792,0,1.224c-0.504,0.216-1.008,0.504-1.512,0.792
		C414.144,163.44,413.424,163.44,412.704,163.44L412.704,163.44z M299.664,157.68c-14.688-1.944-14.688-1.944-26.424-3.816
		c-1.224-0.288-2.52-0.648-3.816-1.008c-4.104-0.432-6.264-0.936-12.744-1.44c-6.264-0.936-6.264-0.936-10.08-1.872
		c-2.232-2.592-4.464-5.256-6.696-7.92c-1.008-0.936-2.088-1.872-3.168-2.88c-2.376-1.008-2.376-1.008-5.04-1.728
		c-6.48-0.936-16.56-1.872-29.232-3.816c-15.84-3.096-15.84-3.096-16.128-3.456c1.08-0.216,2.232-0.432,3.384-0.648
		c3.6-0.072,7.2-0.144,10.8-0.216c5.544,0.504,9.864,0.504,11.52,0.936c2.448,0.144,4.896,0.288,7.416,0.504
		c6.768,1.08,13.608,2.232,20.448,3.384c0.792,0,1.584,0,2.376,0c0.792-0.576,1.656-1.152,2.52-1.8
		c0.072-2.088,0.144-4.1761,0.216-6.264c-0.792-1.08-1.584-2.16-2.376-3.312c-0.288-0.144-0.576-0.288-0.864-0.504
		c-0.216,0.072-0.432,0.216-0.72,0.36c-4.104-0.36-8.28-0.7921-12.456-1.224c-1.728-0.432-3.456-0.936-5.256-1.44
		c-3.888-0.504-3.888-0.504-9.648-0.72c-0.72,0.144-1.44,0.288-2.16,0.504c-1.8,3.24-1.8,3.24-2.376,3.6
		c-6.264,0-9.864-0.288-19.224-0.288c-3.168,0.216-6.336,0.432-9.576,0.648c0-0.216,0-0.432,0.072-0.72
		c19.008-15.624,19.008-15.624,21.6-17.496c2.304-2.448,4.824-4.32,9.288-8.424c0.864-0.936,1.728-1.872,2.592-2.88
		c0.36,0,0.792-0.0721,1.224-0.144c0.648,0.72,1.296,1.44,1.944,2.16c8.136,3.816,8.136,3.816,12.96,5.76
		c3.384,0.504,3.384,0.504,7.2,0.504c1.368,1.224,2.736,2.52,4.104,3.816c1.656,0.936,3.312,1.872,5.04,2.88
		c2.16,1.944,2.16,1.944,3.6,2.88c0.072,1.584,0.072,1.584-1.872,13.104c-0.216,3.024-0.4319,6.048-0.72,9.144
		c0.432,0.288,0.432,0.288,2.304,0.288c0.144,0.144,0.288,0.288,0.504,0.504c0.36,0,0.792,0,1.224,0
		c0.432-0.72,0.864-1.44,1.296-2.232c0.288-3.816,0.576-7.632,0.936-11.5201c0.936-4.824,0.936-4.824,1.368-5.472
		c0.936,0,0.936,0,3.312,1.008c6.768,3.816,6.768,3.816,8.928,4.752c2.952,2.2321,5.904,4.536,8.856,6.84
		c0.648,1.008,1.296,2.016,1.944,3.024c0.576,1.872,1.152,3.744,1.728,5.688c0.432,0.936,0.936,1.872,1.44,2.88
		c3.024,3.096,3.024,3.096,3.744,3.456c3.96,0.576,7.992,1.224,12.024,1.872c7.416,1.944,7.416,1.944,13.464,3.888
		c7.92,3.312,7.92,3.312,8.64,3.96c-0.144,0.144-0.288,0.36-0.504,0.576c-2.88,0.936-7.416,2.88-11.016,4.104
		C304.992,157.536,302.328,157.6079,299.664,157.68L299.664,157.68z M463.32,153.144c-14.184-2.88-14.184-2.88-20.664-3.888
		c-2.592-0.792-5.256-1.584-7.92-2.376c-1.44-0.144-2.88-0.288-4.32-0.504c-5.472-1.872-5.472-1.872-5.76-2.16
		c-1.224-0.144-2.52-0.288-3.816-0.432c-3.096-1.008-5.976-1.44-8.64-2.448c-2.52-0.504-5.112-1.08-7.704-1.656
		c-4.032-0.216-4.032-0.216-5.976-0.576c-0.144-0.792-0.288-1.584-0.504-2.376c0.648,0.216,1.296,0.504,1.944,0.792
		c5.688,1.224,11.376,2.52,17.064,3.816c4.752,0.504,4.752,0.504,13.392,2.16c1.872,0.432,3.816,0.936,5.7599,1.44
		c2.376,0.144,4.752,0.288,7.2,0.504c2.88,0.648,5.76,1.296,8.64,1.944c2.52,0.288,5.112,0.576,7.704,0.936
		c4.752,1.008,9.576,2.016,14.4,3.096c-0.144,0.144-0.288,0.288-0.504,0.504c-2.16,0.072-4.3199,0.144-6.4799,0.216
		C464.976,152.64,464.256,153.144,463.32,153.144L463.32,153.144z M486.36,151.92c-0.072-0.072-0.144-0.216-0.2159-0.36
		c1.44-0.72,2.88-1.512,4.32-2.304c6.1919-0.216,6.1919-0.216,11.0159,0c0.7921,0.216,1.5841,0.432,2.3761,0.648
		c-0.072,0.072-0.144,0.216-0.216,0.36c-3.24,0.432-6.552,0.936-9.864,1.44C491.328,151.776,488.88,151.848,486.36,151.92
		L486.36,151.92z M235.296,148.3199c-5.4-0.648-10.8-1.296-16.272-1.944c-15.408-0.432-15.408-0.432-30.96-0.432
		c-3.6-0.504-3.6-0.504-8.208-0.648c-1.728-3.168-3.456-6.336-5.184-9.576c-0.072-0.504-0.144-1.08-0.288-1.656
		c4.752,0.792,8.856,1.8,25.92,4.68c2.952,0.288,5.904,0.576,8.856,0.936c3.168,0.6479,6.336,1.296,9.576,1.944
		c12.528,1.44,12.528,1.44,13.968,1.872c0.936,1.224,2.88,2.664,4.32,4.608C236.736,148.3199,236.736,148.3199,235.296,148.3199
		L235.296,148.3199z M15.48,147.816c-0.36-0.288-0.36-0.288-2.304-5.616c-5.76-11.52-5.76-11.52-6.696-13.896
		c0-0.216,0-0.432,0-0.72c0.648-0.288,1.296-0.576,2.016-0.864c7.488-1.44,7.488-1.44,10.8-1.656c0.216,0.072,0.432,0.216,0.72,0.36
		c0,0.432-0.072,0.936-0.144,1.44c1.296,1.728,2.592,3.456,3.888,5.256c1.728,3.312,3.456,6.696,5.256,10.08
		c0.072,0.36,0.144,0.792,0.216,1.224c-0.144,0.144-0.36,0.288-0.576,0.504c-2.232,0.432-4.464,0.864-6.696,1.296
		C17.856,147.096,17.856,147.096,15.48,147.816L15.48,147.816z M321.48,146.16c-1.08-0.288-2.232-0.576-3.384-0.936
		c-0.36-0.576-0.36-0.576-1.296-5.904c-1.944-4.752-2.448-5.256-3.384-7.632c-0.144-0.72-0.288-1.44-0.504-2.16
		c-0.504-0.72-1.008-1.44-1.512-2.16c-0.504-0.288-1.008-0.648-1.584-1.008c-0.504-0.072-1.008-0.144-1.512-0.216
		c0.144-0.288,0.288-0.576,0.432-0.864c1.08,0,2.232,0,3.384,0c0.432,0.432,0.936,0.936,1.44,1.44
		c0.864-0.072,1.728-0.144,2.664-0.216c0.216-0.144,0.432-0.288,0.72-0.504c0.576,0,1.224,0,1.872,0
		c0.288,0.144,0.648,0.288,1.008,0.504c0.144,0.36,0.36,0.72,0.576,1.08c0.936,5.976,0.936,5.976,2.16,11.304
		c0,5.256,0,5.256-0.36,7.272C321.984,146.16,321.768,146.16,321.48,146.16L321.48,146.16z M358.92,145.584
		c-0.288-0.432-0.576-0.936-0.864-1.44c-0.936-4.104-1.224-4.536-1.656-7.92c-0.36-0.504-0.792-1.08-1.224-1.656
		c0-0.576,0-1.152,0-1.728c0.36-0.792,0.7921-1.584,1.224-2.376c0.288-1.944,0.576-3.96,0.936-5.976
		c1.584-0.144,1.584-0.144,22.248,0.288c6.912,1.008,6.912,1.008,10.512,1.944c0.576,0.36,1.152,0.72,1.728,1.08
		c0.216,0.432,0.504,0.936,0.792,1.44c0.0721,0.792,0.144,1.584,0.216,2.448c0.144,0.144,0.288,0.288,0.504,0.432
		c0.2881,1.8,0.576,3.672,0.936,5.544c0,1.512,0,3.096-0.072,4.68c-0.936,0.072-1.872,0.144-2.88,0.216
		c-2.52-0.288-5.112-0.576-7.704-0.936c-4.176,0.072-8.424,0.144-12.672,0.216c-1.08,0.288-2.232,0.576-3.384,0.936
		c-3.816,1.944-3.816,1.944-5.04,2.16c-0.216-0.216-0.216-0.216-1.656,0c-0.288,0.216-0.648,0.432-1.008,0.72
		C359.568,145.656,359.28,145.656,358.92,145.584L358.92,145.584z M171.216,145.224c-1.944-0.288-3.96-0.648-5.976-1.008
		c-2.664,0-5.4,0-8.136,0c-3.672-0.504-7.344-1.08-11.088-1.656c-5.256,0.216-6.192,0-15.552-0.216
		c-1.728-0.36-3.528-0.72-5.328-1.08c0-0.216,0-0.432,0-0.72c1.728-0.144,1.728-0.144,1.944-0.36c8.64,0.216,8.64,0.216,16.344,0
		c1.296-0.432,2.592-0.864,3.888-1.2961c0-1.008,0-2.088-0.072-3.168c3.528-0.072,7.056-0.216,10.584-0.36
		c2.304-0.288,4.608-0.576,6.912-0.936c0.144-0.216,0.288-0.432,0.504-0.648c0.216,0,0.432,0,0.72-0.072
		c1.944,2.736,1.944,2.736,5.616,9.504c0.144,0.504,0.288,1.08,0.504,1.656C171.432,145.368,171.432,145.368,171.216,145.224
		L171.216,145.224z M36.864,142.056c-0.216-0.072-0.432-0.144-0.72-0.216c-1.296-1.944-2.592-3.888-3.888-5.904
		c-1.224-2.376-2.52-4.752-3.816-7.2c-2.88-3.456-2.88-3.456-3.0959-4.248c1.44-0.144,2.88-0.288,4.32-0.432
		c26.136-0.432,26.136-0.432,31.896-0.288c0,1.08-0.072,2.16-0.144,3.312c0.936,2.664,0.936,2.664,3.816,8.64
		c0,0.288,0,0.648,0,1.008c-0.576,0.432-0.576,0.432-4.896,1.2961c-1.44,0.144-2.88,0.288-4.32,0.432
		c-4.032,1.008-15.336,2.88-16.776,3.384C38.448,141.912,37.656,141.9839,36.864,142.056L36.864,142.056z M119.88,141.2639
		c0-0.288,0-0.576,0-0.936c1.368,0.072,2.736,0.144,4.104,0.288c-0.36,0.144-0.792,0.288-1.224,0.504
		C121.824,141.12,120.888,141.192,119.88,141.2639L119.88,141.2639z M274.68,138.96c-1.152-0.432-2.376-0.936-3.6-1.44
		c-3.24-0.648-6.552-1.296-9.864-1.944c-3.816-0.216-3.816-0.216-5.256,0c-0.216-0.36-0.216-0.36-1.656-0.936
		c0-1.512-0.072-3.096-0.144-4.68c0.936-3.096,0.936-3.096,1.152-5.04c0.504-0.432,0.504-0.432,2.088-0.864c0.72,0,1.44,0,2.16,0
		c8.136,1.944,8.136,1.944,10.8,2.88c0.648,0.792,1.296,1.584,1.944,2.448c2.376,1.872,2.376,1.872,4.32,4.032
		c0.576,1.008,1.152,2.016,1.728,3.024c-0.072,0.36-0.144,0.792-0.216,1.224c-0.36,0.36-0.72,0.72-1.08,1.08
		C276.264,138.816,275.472,138.8879,274.68,138.96L274.68,138.96z M343.8,138.744c-0.216-0.288-0.216-0.288-1.8-0.576
		c0-0.432,0-0.936,0-1.44c0.72-0.72,1.44-1.44,2.16-2.16c3.816-6.768,3.816-6.768,5.184-8.568c0.36,0,0.72,0.072,1.152,0.144
		c0,0.36,0.0721,0.792,0.144,1.224c-1.44,3.312-2.88,6.696-4.32,10.08c-0.432,0.432-0.864,0.864-1.296,1.2961
		C344.664,138.744,344.232,138.744,343.8,138.744L343.8,138.744z M327.24,137.52c-0.36-0.792-0.36-0.792-1.224-11.88
		c2.952-0.072,5.904-0.144,8.928-0.216c-0.144,0.72-0.144,0.72-1.512,2.16c-0.936-0.144-0.936-0.144-1.872,0.072
		c-1.224,1.008-1.224,1.008-2.088,2.304c-0.432,1.728-0.432,1.728-0.72,6.7679c-0.144,0.216-0.288,0.432-0.432,0.72
		C327.96,137.4479,327.6,137.4479,327.24,137.52L327.24,137.52z M72.144,135.864c-1.872-3.456-1.872-3.456-5.184-10.656
		c0-0.432,0.072-0.864,0.144-1.368c1.152-0.216,1.152-0.216,21.312,0c6.264,0.504,6.264,0.504,13.248,0.72
		c1.44,2.16,2.88,4.392,4.32,6.624c0,0.288,0,0.576,0.072,0.936c-0.576,0.36-0.576,0.36-11.376,1.8
		C87.192,134.568,79.704,135.216,72.144,135.864L72.144,135.864z M113.616,131.5439c-1.08-1.584-2.16-3.24-3.24-4.896
		c0-0.288,0-0.648-0.072-1.008c22.032,1.8,22.032,1.8,31.896,3.024c-0.216,0.144-0.432,0.288-0.72,0.432
		c-4.968,0.288-9.936,0.648-14.904,1.008C115.56,131.5439,115.56,131.5439,113.616,131.5439L113.616,131.5439z M340.704,124.776
		c-0.864-0.864-1.728-1.728-2.664-2.592c0-0.288-0.072-0.576-0.144-0.864c1.944-3.096,1.944-3.096,4.248-6.12
		c0.288,0,0.576,0.072,0.936,0.144c1.8,2.88,1.8,2.88,2.232,4.104c-0.216,0.936-0.216,0.936-1.152,2.592
		C340.92,124.92,340.92,124.92,340.704,124.776L340.704,124.776z M294.624,120.744c-12.744-0.72-12.744-0.72-14.688-0.576
		c0.072-0.288,0.216-0.6479,0.36-1.008c4.896-3.816,8.064-5.76,17.424-12.456c0.432-0.072,0.936-0.144,1.44-0.216
		c0,0.216,0,0.432,0.072,0.72c6.048,7.632,6.048,7.632,8.928,11.952c0,0.144-0.072,0.36-0.144,0.576
		c-2.592,0.288-7.92,0.288-9.072,0.648c-0.072,0.072-0.144,0.216-0.288,0.36C297.36,120.744,295.992,120.744,294.624,120.744
		L294.624,120.744z M325.8,119.52c-3.744-0.0721-7.488-0.144-11.304-0.216c-9.576-13.104-9.576-13.104-11.16-14.76
		c0-0.36,0-0.792,0-1.224c5.904-3.744,8.064-4.68,9.144-5.472c0.144-0.36,0.288-0.792,0.432-1.224c2.304,0,4.608-0.072,6.912-0.144
		c1.728,0.288,3.456,0.576,5.256,0.864c0.504,0.72,1.08,1.44,1.656,2.16c2.016,0.576,4.032,1.152,6.048,1.8
		c0.432,0.288,0.936,0.576,1.44,0.936c3.816,5.184,3.816,5.184,5.04,7.344c-0.288,0.36-1.728,0.36-2.304,0.72
		c-0.504,1.224-1.44,2.16-3.384,5.544c-0.864,1.008-1.8,2.088-2.736,3.168C327.96,119.52,327.96,119.52,325.8,119.52L325.8,119.52z
		 M350.784,119.304c-1.944-2.808-5.688-9.216-8.568-13.32c-0.216-0.648-0.504-1.296-0.792-1.944c0.864,0,1.728-0.072,2.592-0.144
		c0.216,0.144,0.432,0.288,0.72,0.504c3.24,6.84,3.24,6.84,6.84,13.32c0,0.504,0,1.008-0.072,1.584
		C351.288,119.304,351.072,119.304,350.784,119.304L350.784,119.304z M270.36,117.144c-14.184-7.704-14.184-7.704-17.28-9.648
		c-0.72-0.576-1.44-1.224-2.16-1.872c-2.088-1.2961-4.176-2.592-6.264-3.888c-2.16-1.872-3.096-3.096-4.32-4.032
		c-0.504-0.144-1.08-0.288-1.656-0.504c-0.216-0.36-0.432-0.72-0.648-1.08c0-0.864,0-1.728,0-2.592
		c0.288-0.648,0.648-1.2961,1.008-1.944c0.504-0.288,1.008-0.576,1.584-0.864c1.8,0.072,3.6,0.144,5.472,0.216
		c6.48,1.008,12.744,1.44,14.904,1.944c4.536,0.216,4.536,0.216,6.48,0.72c11.448,0.576,22.896,1.152,34.344,1.8
		c0,0.216-0.072,0.432-0.144,0.72c-3.96,2.52-7.92,5.112-11.88,7.704C270.576,117.2879,270.576,117.2879,270.36,117.144
		L270.36,117.144z M340.704,103.3199c-1.944-2.376-1.944-2.376-4.32-4.68c-2.88-1.944-2.88-1.944-6.48-3.816
		c-2.448-1.944-2.448-1.944-4.32-2.88c-1.512-0.288-3.024-0.648-4.608-1.008c-18.36-0.936-36.72-1.872-55.152-2.88
		c-10.8-1.44-10.8-1.44-22.104-2.592c-2.16,0-4.32,0-6.48,0c-0.648,0.144-1.296,0.288-1.944,0.432
		c-0.936,0.648-1.872,1.296-2.88,1.944c-0.144,1.944-0.36,3.888-0.576,5.904c0.432,1.44,0.432,1.44,0.432,2.376
		c-0.288,0.36-0.288,0.36-2.448,0.576c-0.864-0.144-1.728-0.288-2.664-0.432c-4.32-1.944-4.32-1.944-7.704-3.888
		c-0.72-1.224-1.512-2.448-2.304-3.672c0.072-0.504,0.144-1.08,0.288-1.656c0.936-1.44,0.936-1.44,3.096-3.384
		c3.528-1.8,3.528-1.8,7.128-3.24c2.592-0.288,2.592-0.288,23.76-0.504c14.832,0.792,29.736,1.584,44.64,2.376
		c4.032,0.432,8.136,0.936,12.24,1.44c0.36,0.288,0.72,0.648,1.152,1.008c6.048,0.936,6.048,0.936,9.36,1.872
		c2.16,1.008,5.04,1.944,12.96,5.328c1.152,0.576,2.376,1.224,3.6,1.872c0.648,0.936,1.296,1.872,1.944,2.88
		c1.656,1.008,1.656,1.008,3.96,3.312c0,1.08,0,2.16,0,3.312C340.92,103.6079,340.92,103.6079,340.704,103.3199L340.704,103.3199z"
		/>
</g>
</svg>
