<?xml version="1.0" encoding="utf-8"?>
<!-- Generator: Adobe Illustrator 21.1.0, SVG Export Plug-In . SVG Version: 6.00 Build 0)  -->
<svg version="1.1" xmlns="http://www.w3.org/2000/svg" xmlns:xlink="http://www.w3.org/1999/xlink" x="0px" y="0px"
	 viewBox="0 0 519.984 291.8881" enable-background="new 0 0 519.984 291.8881" xml:space="preserve">
<g>
	<path fill-rule="evenodd" clip-rule="evenodd" d="M85.248,291.8881c-0.432-0.36-0.432-0.36-0.432-1.08
		c0.288-0.432,0.576-0.936,0.864-1.44c2.88-1.296,5.76-2.592,8.64-3.96c1.872-1.08,3.816-2.232,5.76-3.384
		c0.432-0.648,0.936-1.296,1.44-1.944c1.728-0.936,4.32-1.872,6.048-2.952c-0.432-0.72-0.432-0.72-0.432-1.656
		c1.584-0.864,4.464-1.872,6.192-2.808c0.432-0.504,0.432-0.504,3.096-1.944c0.72-0.144,1.44-0.288,2.16-0.4319
		c0.288-0.36,0.576-0.7921,0.936-1.224c5.544-3.816,5.544-3.816,9-6.552c0.144-0.2881,0.288-0.648,0.504-1.008
		c0.576-0.144,1.296,0.144,2.52,0.144c0.504-0.288,0.504-0.288,1.944-0.144c0,0.288,0,0.648,0.072,1.008
		c-1.368,0.936-2.736,1.872-4.104,2.88c-0.576,0.864-1.224,1.728-1.872,2.592c-1.872,1.296-3.744,2.592-5.688,3.888
		c-3.6,1.872-3.6,1.872-8.352,3.672c-1.944,1.224-3.96,2.52-5.976,3.816c-1.584,0.648-3.168,1.296-4.824,1.944
		c-0.288,0.432-0.576,0.936-0.936,1.44c-2.016,1.224-4.032,2.52-6.048,3.816c-4.32,1.944-4.752,2.448-8.64,4.32
		c-0.288,0.288-0.576,0.648-0.936,1.008C85.896,291.8881,85.608,291.8881,85.248,291.8881L85.248,291.8881z M50.184,291.3841
		c0-0.432-0.072-0.864-0.144-1.296c2.088-1.08,4.248-2.16,6.408-3.24c3.096-1.008,3.096-1.008,10.512-4.32
		c0.864-0.432,1.728-0.936,2.664-1.44c0.216-0.576,0.504-1.152,0.792-1.8c2.736-1.08,5.544-2.16,8.352-3.24
		c0.504-0.432,1.08-0.936,1.656-1.44c5.04-0.504,7.416-1.008,12.24-1.44c1.44,0,2.88,0,4.32,0c2.232-0.432,4.464-0.936,6.696-1.44
		c1.08-0.648,2.232-1.296,3.384-1.944c1.44,0,1.44,0,1.944,0.36c-0.144,0.288-0.288,0.576-0.504,0.864
		c-1.44,0.792-2.88,1.584-4.32,2.376c-5.976,1.44-5.976,1.44-10.08,1.944c-1.728,0-3.456,0-5.256,0
		c-2.448,0.288-4.968,0.576-7.488,0.936c-0.864,0.648-1.728,1.296-2.592,1.944c-1.584,0.432-3.168,0.936-4.824,1.44
		c-0.288,0.504-0.576,1.008-0.864,1.584c-1.296,0.936-1.296,0.936-5.112,2.736c-0.36,0.432-0.792,0.936-1.224,1.44
		c-5.04,1.872-8.856,3.816-14.184,5.76C51.768,291.2401,50.976,291.3121,50.184,291.3841L50.184,291.3841z M106.344,290.8801
		c-0.36-0.792-0.36-0.792-0.144-1.728c3.816-4.824,3.816-4.824,5.904-6.984c3.816-2.376,5.112-3.6,6.984-4.464
		c2.376,0.216,4.752,0.432,7.2,0.72c1.584-2.232,3.168-4.464,4.752-6.696c0.648-0.648,1.296-1.296,1.944-1.944
		c2.664-1.584,5.4-3.168,8.136-4.824c1.44-0.432,1.44-0.432,6.984-0.936c0.288-0.144,0.576-0.288,0.936-0.504
		c0.648-1.08,1.296-2.16,1.944-3.24c2.88-3.456,2.88-3.456,5.04-5.4c1.44-0.936,2.88-1.8719,4.32-2.88
		c1.944-2.376,1.944-2.376,4.104-4.32c1.872-0.936,1.872-0.936,4.752-1.872c0.72-1.296,1.512-2.592,2.304-3.96
		c1.296-1.224,4.32-3.096,6.552-5.04c5.544-2.808,6.984-3.24,10.152-5.184c2.16-0.864,4.32-1.728,6.48-2.664
		c1.008,0.36,2.016,0.792,3.096,1.224c0.72-0.144,1.44-0.288,2.16-0.504c2.376-1.872,7.416-4.752,11.016-7.2
		c2.448-0.576,4.968-1.224,7.488-1.872c0.504,0,1.08,0,1.656,0c0.36,0.288,0.7921,0.576,1.224,0.936
		c1.44-0.216,1.44-0.216,2.16-0.72c0.216-0.504,0.504-1.008,0.7921-1.512c0.72-0.72,1.44-1.44,2.16-2.16
		c0.936-0.6479,1.872-1.296,2.88-1.944c2.808-1.368,5.688-2.808,8.568-4.248c2.88-0.288,5.76-0.576,8.64-0.936
		c1.08-0.288,2.16-0.576,3.312-0.936c6.9839-3.888,6.9839-3.888,9.864-5.76c1.944-0.648,3.9601-1.296,5.976-1.944
		c0.288-0.36,0.6479-0.792,1.008-1.224c2.16-1.224,4.32-2.52,6.48-3.816c7.92-3.816,9.36-4.824,11.736-5.76
		c1.152-0.288,2.376-0.576,3.6-0.936c1.728-0.792,3.456-1.584,5.256-2.448c0.288,0,0.648,0,1.008,0
		c0.432,0.288,0.936,0.648,1.44,1.008c0.72,0.072,1.44,0.144,2.16,0.216c1.08-0.36,2.16-0.792,3.312-1.224c0.864,0,1.728,0,2.664,0
		c1.512-0.576,3.024-1.224,4.536-1.872c3.168-1.944,3.168-1.944,6.984-4.824c3.096-1.224,6.192-2.52,9.36-3.816
		c3.384-1.944,5.7599-2.88,7.416-3.888c0.216-0.288,0.432-0.576,0.72-0.936c2.592-1.224,5.256-2.52,7.92-3.816
		c9.6479-5.76,12.24-7.704,13.968-8.64c0.864-0.792,1.728-1.584,2.592-2.448c2.88-1.872,5.04-2.88,10.584-6.696
		c0.072-0.072,0.144-0.216,0.216-0.36c-0.288,0-0.576-0.072-0.936-0.144c-1.656,1.008-1.656,1.008-2.664,1.944
		c-0.864,0.144-1.728,0.288-2.592,0.504c-2.952,1.44-5.9041,2.88-8.928,4.32c-0.72,0.144-1.44,0.288-2.16,0.432
		c-1.44,1.008-3.816,1.944-5.256,2.88c-1.4399,0.504-1.944,1.008-3.5999,1.44c-1.44,1.008-2.88,1.44-4.32,2.448
		c-2.88,1.08-5.76,2.16-8.64,3.312c-0.288,0.288-0.576,0.648-0.936,1.008c-1.368,0.792-2.736,1.584-4.104,2.376
		c-0.72,0.144-1.44,0.288-2.16,0.504c-1.224,0.936-1.224,0.936-3.6,2.16c-0.864,0.288-1.728,0.576-2.664,0.936
		c-3.096,1.944-5.256,2.88-6.48,3.816c-2.52,1.08-5.04,2.232-7.632,3.384c-2.16,0.648-4.32,1.296-6.48,1.944
		c-1.008,0.576-2.088,1.224-3.168,1.872c-1.008,0.288-2.016,0.648-3.096,1.008c-0.72,0.432-1.44,0.936-2.16,1.44
		c-0.936,0.288-1.872,0.576-2.88,0.936c-2.592,1.224-5.256,2.52-7.92,3.816c-3.096,1.008-3.096,1.008-11.736,4.824
		c-2.664,1.44-2.664,1.44-3.888,1.656c-1.008,0.648-2.016,1.2961-3.096,1.944c-3.312,1.44-6.696,2.88-10.08,4.32
		c-0.792,0.144-1.584,0.288-2.376,0.504c-3.168,1.872-3.168,1.872-13.248,6.696c-2.88,0.936-2.88,0.936-5.76,1.44
		c-0.36,0.288-0.72,0.576-1.152,0.936c-2.664,1.008-3.6,1.728-5.328,2.16c-2.88,1.44-2.88,1.44-3.312,1.944
		c-2.664,0.936-4.32,1.944-31.968,12.96c-1.08,0.648-2.16,1.296-3.312,1.944c-4.824,1.8719-7.704,3.312-11.088,4.32
		c-3.6,1.872-7.416,3.312-11.016,5.256c-2.376,0.936-2.88,1.44-10.8,4.824c-0.648,0.144-1.296,0.288-1.944,0.432
		c-7.632,3.888-7.632,3.888-11.952,5.76c-1.728,0.504-5.328,2.448-7.2,2.88c-8.64,3.888-8.64,3.888-11.304,5.328
		c-1.944,0.432-1.944,0.432-9.36,3.6c-3.384,0.432-3.384,0.432-7.92,0.432c-0.864-0.144-1.728-0.288-2.664-0.432
		c-0.72-0.288-1.44-0.648-2.16-1.008c-0.504-0.72-1.08-1.44-1.656-2.16c-0.936,0-5.04,1.224-7.2,1.44
		c-0.432-0.288-0.936-0.576-1.44-0.936c-6.408-8.784-12.888-17.64-19.368-26.496c-0.288-0.792-0.576-1.584-0.936-2.376
		c-0.648-0.72-1.296-1.44-1.944-2.16c-3.168-4.5359-6.336-9.072-9.576-13.68c-0.288-0.648-0.576-1.296-0.936-1.944
		c-2.088-2.592-4.176-5.256-6.264-7.92c-0.144-1.08-0.288-2.2321-0.504-3.384c0.36-0.288,0.72-0.576,1.152-0.864
		c2.88-0.936,2.88-0.936,4.536-1.872c1.8-3.24,3.672-7.776,5.616-11.16c3.816-7.92,5.76-12.9601,10.584-22.824
		c1.224-1.512,2.52-3.024,3.816-4.536c1.008-0.792,2.016-1.656,3.024-2.52c0.792-0.144,1.584-0.288,2.376-0.504
		c5.544-2.88,8.208-3.816,9.648-4.824c3.816-0.936,3.816-0.936,4.536-1.44c1.8-0.576,3.672-1.224,5.544-1.872
		c8.856-3.888,8.856-3.888,10.512-4.32c0.288-0.288,0.648-0.648,1.008-1.008c1.224-0.288,2.52-0.576,3.816-0.936
		c0.792-0.432,1.584-0.936,2.376-1.44c0.432-0.072,0.936-0.144,1.44-0.216c0.504-0.504,7.704-3.384,10.8-4.32
		c2.16-2.448,3.384-3.384,4.32-4.608c0.576-0.288,1.152-0.576,1.728-0.936c0.432-0.72,0.936-1.44,1.44-2.16
		c0.432-0.288,0.936-0.576,1.44-0.936c4.032-4.608,4.032-4.608,6.192-6.624c1.584-2.016,3.168-4.032,4.824-6.12
		c0.432-0.216,0.936-0.432,1.44-0.72c3.024-2.88,6.048-5.76,9.144-8.64c1.008-0.792,2.016-1.584,3.096-2.376
		c2.88-3.384,2.88-3.384,5.04-5.328c0.936-0.576,1.872-1.224,2.88-1.872c4.104-4.104,4.104-4.104,7.92-8.424
		c1.224-0.936,2.52-1.872,3.816-2.88c1.008-1.152,2.088-2.376,3.168-3.6c1.224-0.648,2.52-1.296,3.816-1.944
		c0.792-0.576,1.584-1.224,2.376-1.872c1.44-0.504,1.44-0.504,9.36-1.44c1.296,0.0721,2.592,0.144,3.888,0.216
		c4.32,1.224,7.416,1.656,10.296,2.664c2.376,0.432,2.376,0.432,4.392,0.36c0.504-1.44,0.504-1.44,0.864-1.8
		c2.448-1.008,2.448-1.008,4.608-1.44c3.096-1.944,3.096-1.944,5.76-3.168c0.72-0.144,1.44-0.288,2.16-0.432
		c1.08-0.648,2.16-1.296,3.312-1.944c2.88-0.936,4.824-1.944,11.088-3.816c5.976-1.008,5.976-1.008,9.576-1.224
		c3.096,0.288,6.192,0.576,9.36,0.936c0.648-0.072,1.296-0.144,1.944-0.216c0.576-0.2881,1.224-0.576,1.872-0.936
		c2.808-2.088,5.616-4.176,8.424-6.264c1.944-0.936,2.376-1.44,6.696-3.384c1.584-0.936,3.168-1.872,4.824-2.88
		c1.656-0.576,3.312-1.224,5.04-1.872c1.4399-1.008,3.816-1.944,7.416-3.888c0.576-0.144,1.152-0.2881,1.728-0.432
		c1.08-0.792,2.16-1.584,3.312-2.448c1.08-0.288,2.232-0.576,3.384-0.936c1.008-0.648,2.016-1.296,3.096-1.944
		c0.936-0.2881,1.872-0.576,2.88-0.936c0.72-0.432,1.44-0.936,2.16-1.44c0.36-0.072,0.792-0.144,1.224-0.216
		c1.152-0.792,2.376-1.584,3.6-2.448c1.152-0.288,2.376-0.576,3.6-0.936c0.864-0.4319,1.728-0.936,2.664-1.44
		c3.096-0.936,3.096-0.936,5.256-1.944c0.936-0.576,1.872-1.224,2.88-1.8719c2.88-1.008,6.264-2.88,11.736-4.824
		c0.72-0.504,0.72-0.504,10.8-4.32c8.64-2.88,11.088-3.384,13.248-4.32c1.512-0.288,3.024-0.576,4.536-0.936
		c3.6-1.08,7.2-2.232,10.8-3.384c1.008-0.072,2.0161-0.144,3.096-0.216c1.008-0.504,1.008-0.504,9.648-2.448
		c19.44-3.816,19.44-3.816,20.88-4.32c2.16-0.288,4.32-0.576,6.48-0.936c8.28-1.7281,16.56-3.456,24.912-5.256
		c1.368,0,2.7361,0,4.104,0c5.328-0.648,10.656-1.296,16.056-1.944C486.288,0.504,504,0.2881,505.224,0
		c7.2,0.2881,7.2,0.2881,9.864,0.7201c0.144,0.2159,0.288,0.432,0.432,0.6479c0,0.936,0.072,1.8719,0.144,2.88
		c-2.88,10.296-2.88,10.296-3.888,12.744c0,0.432,0,0.936-0.072,1.4399c3.816-0.864,3.816-0.864,7.2-1.1519
		c0.2159,0.36,0.5039,0.7199,0.792,1.1519c0.072,0.576,0.1439,1.2241,0.288,1.8721c-0.144,0.72-0.288,1.4399-0.504,2.16
		c-0.9359,1.008-0.9359,1.008-4.104,2.88c-0.9359,2.448-0.9359,2.448-1.8719,6.048c-1.944,4.3199-1.944,4.3199-3.888,7.632
		c-3.816,4.32-8.136,8.64-9.072,9.864c-8.928,7.92-8.928,7.92-13.824,11.7361c-2.808,1.8719-5.616,3.816-8.496,5.76
		c-1.944,2.448-3.888,4.32-5.76,6.768c-0.36,0.288-0.792,0.576-1.224,0.936c-2.88,3.816-3.96,4.824-5.04,6.48
		c-0.936,0.936-0.936,0.936-4.32,6.2639c-2.232,2.592-4.464,5.256-6.696,7.92c-6.768,5.76-12.96,10.512-17.856,14.976
		c-0.36,0.144-0.792,0.288-1.224,0.432c-3.024,2.304-6.048,4.608-9.144,6.984c-0.576,0.288-1.224,0.576-1.872,0.936
		c-2.16,1.944-2.16,1.944-5.04,3.888c-1.44,0.432-1.44,0.432-5.544,2.376c-2.376,1.944-2.376,1.944-5.256,3.816
		c-2.376,1.08-4.752,2.232-7.2,3.384c-0.864,0.648-1.728,1.296-2.664,1.944c-1.8,0.936-3.672,1.872-5.544,2.88
		c-2.952,1.872-5.904,3.816-8.856,5.76c-0.792,1.008-1.584,2.016-2.376,3.096c-1.584,0.648-3.168,1.296-4.824,1.944
		c-0.7921,0.576-1.584,1.224-2.376,1.872c-4.104,4.608-4.104,4.608-6.48,6.768c-1.296,1.8-2.592,3.6-3.888,5.472
		c-0.288,0.72-0.576,1.512-0.864,2.304c-0.432,5.76-0.72,6.768-0.72,8.928c0.648,1.728,1.296,3.456,1.944,5.256
		c-0.504,1.656-0.504,1.656-0.72,3.6c-0.288,0.144-0.576,0.288-0.864,0.504c-1.08,0-2.16-0.072-3.312-0.144
		c-0.504,0.144-1.08,0.288-1.656,0.432c-0.576,0.36-1.152,0.72-1.728,1.152c0,0.936-0.072,1.872-0.144,2.88
		c-0.576,0.288-1.152,0.576-1.728,0.936c-0.144,2.664,0.072,7.7039-0.144,7.92c0.432,3.6,0.432,3.6,0.216,5.76
		c0.36,0.72,0.792,1.44,1.224,2.16c0,0.288,0,0.576,0,0.936c-0.504,0.288-1.008,0.648-1.584,1.008c0,0.288-0.072,0.576-0.144,0.936
		c0.288,0.432,0.648,0.936,1.008,1.44c0.144,0.6479,0.288,1.296,0.432,1.944c0.144,0.144,0.288,0.288,0.504,0.432
		c0,0.576,0,1.152,0,1.728c-0.216,0.216-0.432,0.432-0.72,0.72c0,0.576,0,1.224,0,1.872c-0.36,0.288-0.72,0.576-1.08,0.864
		c-1.152,0.144-2.376,0.36-3.6,0.576c0.144,0.864,0.36,1.728,0.576,2.664c-0.216,0.072-0.504,0.144-0.792,0.216
		c0,0.216-0.072,0.432-0.144,0.72c-0.2881,0.144-0.576,0.288-0.864,0.504c0,0.288,0,0.576-0.072,0.936
		c3.24,1.944,3.24,1.944,4.32,2.88c0.144,0.36,0.288,0.792,0.432,1.224c0.648,0.36,0.648,0.36,9.288,2.736
		c0.504,0.504,1.08,1.008,1.656,1.584c0.072,0.288,0.216,0.576,0.36,0.936c1.008,0.72,2.016,1.44,3.096,2.16
		c0,1.008,0,1.008-0.432,1.44c-1.08,0.36-1.08,0.36-4.896,0.864c-2.16,0.9359-2.16,0.9359-6.048,1.8719
		c-1.872,0-3.816,0.0721-5.76,0.144c0.072,0.216,0.144,0.432,0.216,0.72c6.264,1.296,7.488,1.8,13.248,2.736
		c5.256,1.944,5.256,1.944,9.144,3.888c0.864,0.648,1.728,1.296,2.592,2.016c0.576,0.864,1.1519,1.728,1.8,2.664
		c0.216,4.104,0.216,4.104-0.072,5.256c-0.72-0.288-1.44-0.576-2.232-0.936c-0.144,0.216-0.2881,0.432-0.432,0.72
		c0-0.288,0-0.576,0-0.936c-3.168-1.944-3.168-1.944-4.68-3.168c-0.72-0.288-1.512-0.576-2.304-0.864c-0.432,0-0.936,0-1.44,0
		c-0.864-0.288-1.728-0.576-2.592-0.936c-0.36-0.432-0.792-0.936-1.224-1.44c-3.0959-0.936-3.0959-0.936-4.3199-1.584
		c-0.0721-0.072-0.144-0.216-0.216-0.36c-0.864,0-1.728,0-2.664,0c-0.288,0.216-0.576,0.432-0.936,0.72
		c-5.328,0.288-5.328,0.288-10.8,0c-0.432,0.288-0.936,0.648-1.44,1.008c-1.08,0.36-2.232,0.72-3.384,1.08
		c0.072,0.216,0.144,0.432,0.216,0.72c0.936,0.432,1.872,0.864,2.88,1.296c0.288,0.288,0.576,0.576,0.864,0.864
		c0,0.288,0,0.576,0,0.936c-0.432,0.288-0.864,0.576-1.296,0.864c-1.44,0.072-2.88,0.216-4.32,0.36
		c-0.432,1.224-1.224,1.944-1.368,2.664c0.936,0.432,1.872,0.864,2.808,1.296c10.8,1.872,10.8,1.872,11.016,2.16
		c1.944,0.792,3.96,1.584,5.976,2.376c1.224,0.072,2.448,0.216,3.744,0.36c0,1.008,0,1.008-0.36,1.296
		c-1.224,0.144-2.5201,0.288-3.816,0.504c-8.928,0.072-17.928,0.144-26.928,0.216c-4.032,1.944-4.032,1.944-5.976,2.448
		c-1.368,0.144-2.7361,0.288-4.104,0.432c-0.504,0.216-1.08,0.432-1.656,0.648c0.216,0.36,0.216,0.36,4.536,1.296
		c1.656,0.072,3.312,0.144,5.04,0.216c0.36,0.432,0.36,0.432,0.36,1.152c-0.504,0.288-1.008,0.576-1.584,0.936
		c-1.152,0.216-2.304,0.504-3.528,0.792c-0.144,0.864-0.144,0.864,0.216,1.224c4.32,1.944,4.32,1.944,4.68,2.304
		c0,0.288,0,0.576,0,0.936c-1.368,1.224-1.368,1.224-2.88,1.944c-0.504,0.936-0.504,0.936-1.08,1.296
		c-1.872,0.432-3.744,0.864-5.688,1.368c0,0.288,0.072,0.576,0.144,0.936c1.512,0.576,3.024,1.1519,4.608,1.8
		c1.008,0.144,2.016,0.288,3.096,0.432c0.216,0.144,0.432,0.288,0.72,0.504c0,0.432,0,0.864,0.072,1.368
		c-0.792,0-1.584,0-2.448,0.072c-3.888-0.936-6.48-1.944-8.64-2.376c-1.008,0-2.088,0-3.168,0c-0.144-0.072-0.36-0.216-0.576-0.36
		c-0.072-0.432-0.144-0.936-0.288-1.44c0.864-0.432,1.728-0.936,2.592-1.44c0.144-0.2881,0.288-0.576,0.432-0.864
		c0.792-0.216,1.656-0.504,2.52-0.792c0.216-1.008,0.216-1.008,0.648-1.368c5.256-0.504,5.256-0.504,6.696-0.936
		c0-0.288,0-0.576,0.072-0.864c-0.504-0.288-1.008-0.576-1.512-0.864c-6.984-1.8719-6.984-1.8719-7.56-2.232
		c-0.072-0.288-0.144-0.576-0.288-0.936c0.144-0.216,0.288-0.432,0.432-0.648c2.88-0.504,2.88-0.504,3.096-0.864
		c-0.504-0.36-7.704-1.296-8.928-1.656c0-0.432,0-0.936,0-1.44c0.504-0.36,4.104-0.864,6.552-1.584c4.536,0,4.536,0,7.92-0.432
		c3.312-1.728,3.312-1.728,4.752-2.16c17.28,0,17.28,0,24.264-0.36c0-0.216-0.072-0.432-0.144-0.72
		c-0.432-0.288-0.864-0.576-1.296-0.864c-3.816-0.936-3.816-0.936-10.8-1.944c-1.8-0.576-3.672-1.224-5.544-1.872
		c-3.312-0.432-6.696-0.936-10.08-1.44c-0.216-0.144-0.432-0.2881-0.72-0.504c0-0.432,0-0.864,0-1.296c1.44,0,2.88,0,4.32,0
		c0-0.216,0-0.432,0-0.72c-0.504-0.216-1.008-0.432-1.584-0.72c0-0.504,0.072-1.008,0.144-1.584c2.664-0.216,2.664-0.216,12.24,0.36
		c0-0.216,0-0.432,0-0.72c-5.04-0.864-5.04-0.864-9.576-1.296c-0.216-0.144-0.432-0.288-0.72-0.504c0-0.432-0.072-0.864-0.144-1.296
		c0.072-0.072,0.216-0.216,0.36-0.36c3.888,0,3.888,0,9.648-0.504c1.08-0.288,2.16-0.576,3.312-0.936
		c0.288-0.432,0.576-0.864,0.864-1.296c0.864-0.144,3.456,0.288,10.44,0.288c0.504-0.144,1.08-0.288,1.656-0.432
		c0.288-0.288,0.648-0.648,1.008-1.008c0.432-0.144,0.936-0.288,1.44-0.432c0-0.288,0-0.576,0.072-0.864
		c-4.392-0.864-4.392-0.864-7.56-1.8c-0.504-0.288-1.08-0.576-1.656-0.936c-0.36-0.432-0.792-0.936-1.224-1.44
		c-4.032-1.0081-4.032-1.0081-4.752-1.44c-0.144-0.2881-0.288-0.576-0.504-0.864c0.288-0.288,0.576-0.576,0.936-0.864
		c1.224,0.288,3.168,0.288,3.6,0c1.44,0,2.448,0.504,4.824,1.008c1.8,0,3.672,0,5.544,0c0.864-0.144,1.728-0.2881,2.592-0.504
		c0.288-0.288,0.6479-0.576,1.008-0.936c2.16-0.504,2.16-0.504,2.736-0.864c0.072-0.792,0.144-1.584,0.216-2.376
		c-0.288-0.216-0.576-0.432-0.864-0.72c-3.312-0.864-4.248-1.368-7.416-2.16c-1.152-0.0721-2.376-0.216-3.6-0.36
		c-0.144-0.144-0.288-0.288-0.432-0.504c0-0.648-0.072-1.296-0.144-2.016c-0.504-0.432-1.008-0.864-1.584-1.368
		c-1.584-0.432-3.168-0.936-4.752-1.44c-1.008-0.072-2.088-0.144-3.168-0.216c-0.432-0.504-0.432-0.504-0.432-1.584
		c1.944-0.36,3.96-0.72,5.976-1.08c0.072-0.216,0.144-0.504,0.216-0.792c-0.792-0.072-1.584-0.216-2.376-0.36
		c-0.432-0.2881-0.864-0.576-1.368-0.864c0-0.288,0-0.576,0-0.936c0.216-0.216,0.432-0.432,0.648-0.648
		c2.8799-0.432,2.8799-0.432,4.3199-0.936c0.0721-0.072,0.144-0.216,0.216-0.36c-0.288-0.144-0.576-0.36-0.936-0.576
		c-6.984-1.008-6.984-1.008-7.344-1.296c0.072-0.432,0.144-0.936,0.216-1.44c4.032-0.432,4.752-0.864,5.904-0.864
		c1.224,0.936,1.224,0.936,2.664,1.44c0.792,0.072,1.584,0.144,2.376,0.216c0.144-0.072,0.288-0.216,0.504-0.36
		c-2.88-0.864-2.88-0.864-4.464-1.656c0-0.504,0-1.08,0-1.656c0.6479-0.432,0.6479-0.432,3.528-0.864c0-0.288,0-0.576,0.0721-0.864
		c-0.36-0.504-0.7921-1.08-1.224-1.656c0-0.36,0-0.792,0-1.224c0.144-0.072,0.288-0.216,0.432-0.36c0.72,0,1.44,0,2.16,0
		c0.072-1.08-0.432-2.52-0.432-4.896c-0.288-0.36-0.288-0.36-2.448-1.44c0-0.36-0.072-0.792-0.144-1.224
		c0.36-0.36,0.36-0.36,1.872-0.72c0-0.216,0-0.432,0-0.72c-0.936-0.936-0.936-0.936-1.44-1.872c0-0.36,0-0.7921,0-1.224
		c0.864-0.864,0.864-0.864,2.088-1.368c0-0.432,0-0.864,0.072-1.296c-0.288-0.432-0.576-0.936-0.936-1.44c0-0.36,0-0.72,0-1.152
		c0.6479-0.432,0.6479-0.432,1.944-0.72c0-0.864,0-1.728,0-2.664c-0.36-0.288-0.792-0.576-1.224-0.936
		c-0.072-0.288-0.144-0.6479-0.216-1.008c0.144-0.144,0.288-0.288,0.432-0.432c0.72-0.072,1.44-0.144,2.16-0.288
		c0.144-0.36,0.288-0.72,0.504-1.152c0.36,0,0.72-0.072,1.08-0.144c2.448,1.44,2.448,1.44,3.888,1.872c0.576,0,1.152,0,1.728-0.072
		c-0.288-1.08-0.576-2.232-0.936-3.384c0-1.584,0-3.168,0-4.752c0.144-0.216,0.288-0.432,0.504-0.72c0-2.16-0.288-2.88-0.288-5.328
		c0.144-0.72,0.288-1.44,0.504-2.16c0.36-0.576,0.792-1.224,1.224-1.872c0-1.224-0.504-2.16-0.576-4.104
		c-0.288,0-0.648,0-1.008,0.072c-3.096,1.944-5.256,3.888-8.352,5.76c-5.328,3.888-5.328,3.888-8.424,5.76
		c-4.104,1.944-4.104,1.944-6.696,2.88c-6.768,3.888-6.768,3.888-12.528,6.768c-3.024,1.224-6.048,2.52-9.072,3.816
		c-1.728,1.224-3.528,2.52-5.328,3.816c-1.152,0.648-2.376,1.296-3.6,1.944c-2.88,0.936-2.88,0.936-9.072,2.376
		c-0.864,0-1.728,0-2.664,0c-0.36-0.216-0.792-0.432-1.224-0.72c-0.432,0-0.936,0-1.44,0c-1.44,0.648-2.88,1.296-4.32,1.944
		c-1.152,0.288-2.376,0.576-3.6,0.936c-15.12,7.704-15.12,7.704-16.56,8.64c-0.432,0.576-0.936,1.152-1.44,1.728
		c-0.576,0.288-1.224,0.576-1.872,0.936c-1.296,0.288-2.592,0.576-3.888,0.936c-3.24,1.872-6.48,3.816-9.792,5.76
		c-2.448,1.008-2.448,1.008-5.76,1.944c-2.808,0.288-5.616,0.576-8.424,0.936c-3.024,1.584-6.048,3.168-9.144,4.824
		c-0.792,0.792-1.656,1.656-2.52,2.52c-0.072,0.36-0.144,0.792-0.216,1.224c-1.224,0.936-1.224,0.936-3.2401,1.8
		c-0.504,0.072-1.08,0.144-1.656,0.216c-1.008-0.504-1.008-0.504-1.224-0.864c-0.36,0-0.792,0-1.224-0.072
		c-5.256,1.872-5.256,1.872-5.76,2.376c-0.504,0-1.08,0-1.656,0c-2.16,1.224-4.32,2.52-6.48,3.816
		c-0.792,0.72-1.584,1.44-2.376,2.16c-0.936,0.288-1.872,0.648-2.88,1.008c-0.864,0-1.728,0-2.664,0
		c-0.216-0.144-0.432-0.288-0.72-0.504c-0.72-0.072-1.44-0.144-2.16-0.216c-7.2,3.816-7.2,3.816-13.68,6.696
		c-2.088,1.584-4.176,3.168-6.264,4.824c-0.36,0.432-0.72,0.864-1.08,1.296c0.072,0.936,0.144,1.872,0.216,2.88
		c-0.432,0.288-0.864,0.576-1.296,0.864c-3.6,0.432-3.6,0.432-4.752,0.936c-0.936,0.864-1.872,1.728-2.88,2.664
		c0,0.72-0.072,1.512-0.144,2.304c-0.504,0.432-0.504,0.432-3.96,1.296c-0.936,0.576-1.872,1.224-2.88,1.872
		c-0.936,0.936-1.872,1.872-2.88,2.88c-0.288,0.504-0.576,1.008-0.864,1.584c0,0.432,0.072,0.864,0.144,1.296
		c0.432,0.072,0.936,0.144,1.44,0.288c0.144,0.216,0.288,0.504,0.504,0.792c-0.144,0.288-0.288,0.576-0.504,0.864
		c-0.72,0.288-1.44,0.576-2.16,0.936c-3.6,0.432-7.2,0.936-10.8,1.44c-0.504,0.576-1.08,1.152-1.656,1.728
		c-2.16,0.936-2.16,0.936-5.76,3.312c-1.584,1.872-3.168,3.744-4.752,5.688c-0.144,0.504-0.288,1.08-0.432,1.656
		c-1.08,0.792-2.16,1.584-3.24,2.448c-0.288-0.216-0.576-0.432-0.864-0.72c0-0.36,0-0.7921-0.072-1.224
		c-2.016,0-4.032-0.0721-6.048-0.144c-1.8,1.224-3.6,2.52-5.472,3.816c-4.104,4.608-4.104,4.608-6.048,7.2
		C106.992,290.8801,106.704,290.8801,106.344,290.8801L106.344,290.8801z M24.768,286.3441c-0.432-0.36-0.432-0.36-0.432-1.08
		c0.72-0.432,1.44-0.936,2.16-1.44c0.144-0.288,0.288-0.576,0.504-0.936c1.8-0.36,1.8-0.36,11.52-4.104
		c0.216-1.152,0.216-1.152,0.648-1.584c3.744-0.576,7.488-1.224,11.232-1.872c2.16-1.008,3.168-1.944,4.32-2.448
		c2.016-0.288,4.032-0.576,6.048-0.936c0.36-0.36,0.72-0.792,1.152-1.224c1.44-0.144,2.88-0.288,4.32-0.4319
		c1.368-0.2881,2.736-0.648,4.104-1.008c0.504-0.288,1.08-0.576,1.656-0.936c0.936-0.936,1.872-1.872,2.88-2.88
		c0.36,0,0.792,0,1.224-0.072c0,0.36,0,0.72,0.072,1.152c-4.032,4.824-4.032,4.824-4.608,5.184c-0.864,0-1.728,0-2.664,0
		c-1.224,0.936-1.224,0.936-2.664,1.44c-3.6,0.432-7.2,0.936-10.8,1.44c-1.44,1.152-1.44,1.152-3.6,2.16
		c-2.952,0.576-5.904,1.224-8.856,1.872c-0.432,0.288-0.936,0.648-1.44,1.008c-1.656,0.576-3.312,1.224-5.04,1.872
		c-0.288,0.288-0.576,0.648-0.936,1.008c-2.16,0.936-5.544,1.872-9.144,3.312c-0.144,0.144-0.288,0.288-0.504,0.504
		C25.56,286.3441,25.2,286.3441,24.768,286.3441L24.768,286.3441z M99.36,263.5201c-0.36-0.072-0.72-0.144-1.08-0.288
		c0-0.2881,0.072-0.576,0.144-0.864c1.8-0.936,3.672-1.872,5.544-2.88c0.936-1.152,1.872-2.376,2.88-3.6
		c3.672-7.56,3.672-7.56,7.056-13.32c2.52-0.864,5.4-1.368,11.376-3.24c0.432-0.288,0.936-0.648,1.44-1.008
		c3.168-0.936,3.168-0.936,7.488-2.88c3.312-1.8719,12.24-5.76,15.552-7.632c1.44-0.648,2.88-1.296,4.32-1.944
		c1.8-1.08,3.672-2.232,5.544-3.384c4.32-1.872,4.32-1.872,19.224-9.576c4.608-2.52,9.216-5.112,13.896-7.704
		c10.296-4.752,11.736-5.76,16.056-7.632c1.008-0.648,2.088-1.2961,3.168-1.944c8.64-3.816,8.64-3.816,20.16-9.576
		c1.08-0.648,2.16-1.296,3.312-1.944c7.2-3.168,14.4-6.336,21.6-9.576c1.08-0.648,2.232-1.296,3.384-1.944
		c1.584-0.648,3.168-1.296,4.824-1.944c1.728-0.936,3.456-1.872,5.256-2.88c2.664-0.936,4.104-1.872,12.456-5.76
		c0.216-0.2159,0.432-0.4319,0.72-0.72c4.608-1.872,4.608-1.872,5.04-2.376c1.152-0.648,2.376-1.296,3.6-1.944
		c0.936-0.288,1.872-0.576,2.88-0.936c1.728-0.936,3.528-1.872,5.328-2.88c0.288-0.288,0.576-0.576,0.936-0.936
		c16.56-7.7039,19.944-9.648,28.08-13.464c0.504-0.504,0.504-0.504,3.6-1.944c5.256-1.872,5.256-1.872,9.576-3.816
		c3.3839-1.944,11.304-5.76,14.688-7.704c16.776-7.632,16.776-7.632,26.352-11.52c7.704-3.816,16.56-7.632,31.968-15.336
		c4.536-1.944,7.92-3.816,12.24-5.76c2.232-1.224,4.464-2.52,6.696-3.816c1.152-0.432,2.376-0.936,3.6-1.44
		c2.304-1.2961,4.608-2.592,6.984-3.888c5.04-2.376,10.08-4.752,15.12-7.2c0.36-0.288,0.72-0.576,1.152-0.936
		c1.512-0.648,3.024-1.296,4.608-1.944c0.936-0.576,1.872-1.224,2.88-1.872c0.216,0,0.432,0,0.72,0.072
		c-2.016,2.808-4.104,5.616-6.192,8.424c-3.816,6.0479-3.816,6.0479-5.7599,8.64c-1.44,1.512-2.88,3.024-4.32,4.608
		c-2.16,1.872-4.32,3.816-6.48,5.76c-2.736,1.872-2.736,1.872-11.016,8.856c-9.576,6.696-14.4,10.584-17.136,12.312
		c-1.44,0.648-2.88,1.296-4.32,1.944c-1.872,1.224-3.816,2.52-5.76,3.816c-4.68,2.52-9.432,5.112-14.184,7.704
		c-2.88,1.224-5.76,2.52-8.64,3.816c-1.08,0.648-2.16,1.296-3.312,1.944c-2.304,0.936-4.608,1.872-6.984,2.88
		c-2.448,1.584-4.896,3.168-7.416,4.824c-16.56,7.632-16.56,7.632-21.384,9.576c-3.816,1.872-7.632,3.816-11.52,5.76
		c-0.936,0.288-1.872,0.576-2.88,0.9359c-2.304,1.2961-4.608,2.592-6.984,3.888c-3.456,1.584-6.984,3.168-10.512,4.752
		c-2.16,1.296-4.32,2.592-6.4799,3.888c-8.208,3.312-8.208,3.312-14.1841,5.256c-3.24,1.584-6.552,3.168-9.864,4.824
		c-5.04,1.872-8.856,3.816-11.736,4.752c-15.1201,6.768-15.1201,6.768-18.504,8.64c-6.12,2.52-12.24,5.112-18.432,7.704
		c-1.152,0.648-2.376,1.296-3.6,1.944c-1.584,0.432-3.168,0.936-4.824,1.44c-7.704,3.816-7.704,3.816-25.2,11.52
		c-4.968,1.872-9.936,3.816-14.904,5.76c-4.752,2.232-9.576,4.464-14.4,6.696c-5.256,1.944-6.912,2.88-24.696,10.584
		c-1.656,0.576-3.312,1.224-5.04,1.872c-7.92,3.888-7.92,3.888-18.504,8.64c-1.872,0.648-3.816,1.296-5.76,1.944
		c-1.152,0.648-2.376,1.296-3.6,1.944c-5.76,1.872-7.632,2.88-11.952,4.032C101.952,263.5201,100.656,263.5201,99.36,263.5201
		L99.36,263.5201z M84.744,261.144c-2.232-2.88-4.464-5.76-6.696-8.64c-9.648-14.256-11.448-17.352-14.328-21.24
		c-0.216-0.936-2.16-3.6-3.096-5.472c-3.888-4.608-5.76-7.488-9.648-12.528c-0.936-1.512-1.872-3.024-2.88-4.536
		c0-0.2881,0-0.576,0-0.936c1.008-0.576,2.016-1.224,3.024-1.872c0.36,0,0.792,0,1.224,0c3.816,4.32,3.816,4.32,7.56,9.288
		c1.008,1.584,2.016,3.168,3.096,4.824c0.648,0.72,1.296,1.44,1.944,2.16c0.576,1.008,1.224,2.016,1.872,3.096
		c3.888,4.536,3.888,4.536,7.704,9.864c1.224,1.944,2.52,3.96,3.816,5.976c1.296,1.656,2.592,3.312,3.888,5.04
		c2.376,4.104,2.88,4.536,4.752,7.704c1.152,1.584,2.376,3.168,3.6,4.752c0,0.288,0,0.648,0,1.008
		c-0.576,0.432-2.232,0.792-3.168,1.296C86.544,261,85.68,261.0721,84.744,261.144L84.744,261.144z M95.328,259.7041
		c-0.432-0.288-0.936-0.576-1.44-0.936c-1.296-1.512-2.592-3.096-3.888-4.68c-2.52-3.96-5.04-7.992-7.632-12.024
		c-3.888-5.04-3.888-5.04-9.648-13.68c-0.288-0.648-0.576-1.296-0.936-1.944c-1.368-1.728-2.808-3.456-4.248-5.256
		c-0.576-1.008-1.224-2.016-1.872-3.096c-1.008-1.152-2.088-2.376-3.168-3.6c-2.952-4.032-5.904-8.136-8.856-12.24
		c0-0.504,0-1.08,0-1.656c2.52-5.4,5.112-10.872,7.704-16.344c0.936-2.88,1.872-4.536,2.376-6.264c3.816-7.2,3.816-7.2,5.76-10.08
		c0.288-0.288,0.576-0.576,0.936-0.936c0.432,0,0.864-0.072,1.368-0.144c0.72,0.648,1.44,1.296,2.16,1.944
		c0.288,0.576,0.576,1.152,0.936,1.8c1.224,1.08,1.224,1.08,12.744,15.192c2.232,3.024,4.536,6.048,6.84,9.072
		c0.288,0.576,0.576,1.224,0.936,1.872c0.648,0.648,1.296,1.296,1.944,1.944c1.872,2.88,5.76,7.704,9.072,12.456
		c3.528,3.96,7.128,7.92,10.728,11.88c0.216,0.072,0.504,0.216,0.792,0.36c-0.072,0.936-0.144,1.872-0.216,2.88
		c-0.648,1.368-1.296,2.7361-1.944,4.104c-0.936,2.808-1.872,5.616-2.88,8.424c-0.432,0-0.864,0-1.296,0.072
		c-0.864-0.72-1.728-1.44-2.592-2.16c-0.432,0.072-0.936,0.144-1.44,0.216c-0.36,0.432-0.72,0.864-1.152,1.368
		c0,0.36,0,0.792,0,1.224c0.36,0.36,0.72,0.72,1.08,1.152c0.936,0.432,1.944,0.864,2.952,1.296c0,0.504,0,1.008,0.072,1.584
		c-1.872,3.528-3.816,7.056-5.76,10.584c-0.936,1.152-1.872,2.376-2.88,3.6c-1.368,0.648-2.736,1.296-4.176,2.016
		C96.912,259.7041,96.12,259.7041,95.328,259.7041L95.328,259.7041z M379.944,258.7681c-1.584-1.08-3.168-2.16-4.824-3.24
		c0.072-0.072,0.144-0.216,0.288-0.36c1.08,0.144,2.16,0.288,3.312,0.432c0.504,0.432,0.504,0.432,1.08,1.872
		c0.216,0.144,0.432,0.288,0.72,0.432c0,0.72,0,0.72-0.36,1.008C380.088,258.912,380.016,258.8401,379.944,258.7681
		L379.944,258.7681z M352.368,249.4801c0-0.504,0-1.08,0-1.656c0.288,0.072,0.648,0.144,1.008,0.288c0,0.288,0,0.576,0,0.936
		c-0.216,0.216-0.504,0.432-0.792,0.72C352.512,249.6961,352.44,249.6241,352.368,249.4801L352.368,249.4801z M375.84,248.1841
		c-0.504-0.072-1.08-0.144-1.656-0.216c-0.864-0.648-1.728-1.296-2.664-1.944c-1.512-0.648-3.024-1.296-4.536-2.016
		c-0.072-0.2881-0.144-0.576-0.216-0.936c4.32,0.792,4.32,0.792,6.912,1.728c0.864,0.576,1.8,1.224,2.736,1.872
		c0.072,0.432,0.144,0.936,0.288,1.44C376.416,248.1121,376.128,248.1121,375.84,248.1841L375.84,248.1841z M116.424,238.4641
		c0-0.504,0-1.08,0.072-1.656c1.944-4.824,1.944-4.824,2.448-5.544c0.432-2.16,0.936-3.312,1.44-6.192
		c0.432-0.36,0.864-0.792,1.296-1.224c3.96-1.872,7.992-3.744,12.024-5.688c1.872-0.576,3.816-1.224,5.76-1.8719
		c0.504-0.2881,1.08-0.648,1.656-1.008c1.368-0.288,2.736-0.576,4.104-0.936c3.6-1.944,8.424-3.816,12.024-5.76
		c0.432-0.504,0.432-0.504,2.376-1.44c2.088-0.648,4.176-1.296,6.264-1.944c1.296-0.576,2.664-1.224,4.032-1.872
		c2.664-1.944,2.664-1.944,8.64-5.328c0.72-0.144,1.44-0.288,2.16-0.4319c6.048,0,6.768,0.216,10.584,0.216
		c1.224-0.504,2.16-1.44,3.816-2.376c1.872,0,3.816,0,5.76,0c1.296-0.432,2.592-0.936,3.888-1.44c1.44-1.008,3.6-1.944,5.04-2.88
		c0.432-0.576,0.864-1.152,1.296-1.8c0.072-0.72,0.144-1.44,0.216-2.16c-0.36-0.432-0.72-0.864-1.08-1.368c-0.288,0-0.576,0-0.936,0
		c-1.224,1.008-1.224,1.008-3.096,1.944c-3.456,1.224-6.912,2.52-10.368,3.816c-1.872,0.936-3.816,1.872-5.76,2.88
		c-0.288,0.36-0.576,0.792-0.936,1.224c-2.448-0.144-4.896-0.288-7.416-0.504c-0.792,0.072-1.584,0.144-2.448,0.288
		c0-0.36-0.072-0.72-0.144-1.08c3.888-6.984,3.888-6.984,4.752-8.064c0.72-0.288,1.44-0.576,2.16-0.936
		c0.216-0.432,0.432-0.864,0.648-1.296c10.368-4.248,10.368-4.248,10.872-4.752c1.872-0.432,3.816-1.44,7.2-2.376
		c4.32-1.944,4.32-1.944,5.76-2.88c2.88-0.936,5.04-1.944,6.696-2.376c0.792-0.36,1.584-0.792,2.376-1.224
		c0.36,0,0.792,0.072,1.224,0.144c-1.368,1.8-2.808,3.672-4.248,5.544c-0.144,0.72-0.288,1.44-0.432,2.16
		c-1.008,1.656-1.008,1.656-2.448,5.256c-0.432,2.88-0.936,3.816-0.936,5.04c0.072,0.072,0.216,0.216,0.36,0.36
		c1.44-0.288,6.48-2.16,8.424-3.168c1.0081-0.936,2.0161-1.944,3.096-2.952c0-0.432,0.072-0.936,0.144-1.44
		c-0.36-0.36-0.72-0.792-1.08-1.224c-0.504,0-1.08-0.072-1.656-0.144c-2.448,1.0081-3.168,1.7281-4.104,1.872
		c0-0.36,0-0.792,0.072-1.224c0.936-2.088,1.872-4.176,2.88-6.264c1.8-1.224,3.6-2.52,5.4-3.816
		c12.744-7.56,12.744-7.56,20.952-11.88c4.32-1.944,4.32-1.944,8.856-4.608c0.288,0,0.576,0,0.936-0.072
		c-0.072,1.008-0.216,2.016-0.36,3.096c-0.36,1.152-0.792,2.376-1.224,3.6c0.216,0.288,0.432,0.648,0.648,1.008
		c0.288,0,0.576,0,0.936,0.0721c0.36-0.36,0.72-0.72,1.08-1.08c0.216-1.44,0.504-1.872,2.016-8.856
		c3.672-1.8,4.104-2.304,6.552-3.24c1.512-0.792,3.024-1.584,4.536-2.448c1.872-0.576,3.816-1.224,5.7599-1.872
		c1.224-0.648,2.5201-1.2961,3.816-1.944c1.008-0.288,2.088-0.576,3.168-0.936c0.432-0.288,0.936-0.648,1.44-1.008
		c1.008-0.216,2.016-0.504,3.096-0.792c-0.648,2.592-1.368,5.256-2.088,7.92c0.144,0.144,0.288,0.288,0.504,0.504
		c0.36,0,0.72,0,1.08,0.072c0.288-0.36,0.576-0.72,0.864-1.08c0.288-1.152,0.576-2.376,0.936-3.6c0.432-0.72,0.936-1.44,1.44-2.16
		c0-2.88,0-2.88,0.216-3.6c1.584-0.864,1.584-0.864,3.528-1.296c7.416-3.888,10.2961-5.76,11.7361-6.264
		c1.8-1.08,3.672-2.232,5.5439-3.384c1.152-0.288,2.376-0.576,3.6-0.936c1.656-0.936,1.656-0.936,2.376-1.08
		c-0.072,1.008-0.216,2.088-0.36,3.168c-0.792,1.944-1.584,3.96-2.376,5.976c0,0.936,0,0.936,0.36,1.296
		c0.432-0.072,0.936-0.144,1.44-0.216c0.504-0.504,1.296-3.024,3.96-9c0-1.224-0.288-1.656-0.288-2.88
		c1.656-0.936,3.312-1.872,4.968-2.808c6.696-2.88,8.424-3.312,9.36-3.816c0.648-0.072,1.296-0.144,1.944-0.216
		c3.816-1.728,3.816-1.728,5.472-2.16c1.44-1.008,1.44-1.008,3.168-1.728c0.936,0,0.936,0,1.296,0.432c0,0.576,0,1.224,0,1.872
		c-0.432,1.296-0.936,2.592-1.44,3.888c0,0.648,0.072,1.296,0.144,2.016c0.288,0,0.576,0,0.936,0
		c0.216-0.216,0.432-0.432,0.72-0.648c0.936-3.168,1.944-6.336,2.952-9.576c7.632-3.744,10.728-5.616,13.104-6.624
		c0.576-0.144,1.152-0.288,1.728-0.432c0.7921-0.432,1.584-0.936,2.376-1.44c0.648-0.144,1.296-0.288,1.944-0.504
		c3.6-1.944,3.6-1.944,5.976-2.88c0.288,0,0.576,0,0.936-0.072c-0.864,3.6-0.864,3.6-2.304,7.416
		c-0.072,0.864-0.144,1.728-0.288,2.664c0.288,0,0.576-0.072,0.936-0.144c0.288-0.2881,0.576-0.648,0.936-1.008
		c1.1519-2.664,2.304-5.328,3.456-7.992c0-1.44-0.216-1.656-0.072-2.5201c1.224-0.504,2.376-1.44,5.04-2.448
		c2.376-1.224,4.752-2.52,7.2-3.816c4.32-1.872,8.64-3.744,12.96-5.616c-0.288,1.224-0.576,2.52-0.864,3.816
		c-1.44,3.168-1.44,3.168-1.944,5.328c0.072,0.216,0.144,0.432,0.288,0.72c1.08,0.072,1.08,0.072,1.656-0.288
		c0.936-3.096,0.936-3.096,3.384-8.856c0.072-0.72,0.216-1.512,0.36-2.304c2.88-0.936,16.776-6.696,23.76-9.936
		c-0.288,1.584-0.576,3.168-0.864,4.824c-0.36,1.152-0.792,2.376-1.224,3.6c0,0.504,0,1.08,0,1.656
		c0.216,0.144,0.432,0.288,0.648,0.504c0.432-0.288,0.864-0.648,1.296-1.008c1.944-7.2,2.88-9.36,3.096-11.016
		c0.36-0.36,0.72-0.792,1.08-1.224c2.952-0.864,2.952-0.864,7.704-2.736c2.592-1.296,5.256-2.592,7.92-3.888
		c1.728-0.648,3.528-1.296,5.328-2.016c-0.864,3.888-0.864,3.888-2.304,7.704c0,0.504,0,1.08,0.072,1.656
		c0.288,0,0.648,0.072,1.008,0.144c0.2161-0.36,0.504-0.72,0.7921-1.08C459,60.1921,459,60.1921,459.36,59.7601
		c1.944-0.936,3.168-1.872,12.024-6.696c1.4399-0.504,1.4399-0.504,5.976-2.88c0.288,0,0.648,0,1.008-0.072
		c-0.288,1.08-0.576,2.16-0.864,3.312c-0.792,1.872-1.584,3.816-2.448,5.76c0,0.432,0.072,0.864,0.144,1.296
		c0.36,0,0.7921,0,1.2241,0c0.288-0.432,0.5759-0.864,0.936-1.296c1.08-2.952,2.16-5.904,3.24-8.856
		c0.144-1.008,0.36-2.016,0.576-3.0959c3.96-3.024,7.992-6.0481,12.024-9.0721c0.864-0.4319,1.728-0.864,2.6641-1.296
		c-0.8641,4.104-2.304,8.208-2.304,9.36c0.0719,0.072,0.216,0.216,0.36,0.36c1.224-0.216,1.224-0.216,1.584-0.576
		c1.8719-7.2,1.8719-7.2,2.88-10.08c0-1.44,0-1.44,0.432-2.16c1.8-1.512,3.6-3.096,5.472-4.68c0.288,0,0.576,0,0.936,0.072
		c-0.216,0.504-0.432,1.008-0.6481,1.512c-0.1439,1.44-0.288,2.88-0.4319,4.32c0.36,0.2881,1.7999,0.2881,2.16,0
		c0.936-4.32,0.936-4.32,1.8719-6.768c0-1.872,0-1.872,0.504-4.5361c0.936-1.944,0.936-1.944,1.368-2.304
		c1.8-0.4319,3.6001-0.936,5.472-1.44c0.576,0,1.152,0.072,1.8,0.144c0,0.3599,0,0.7919,0,1.2239
		c-3.24,1.7281-3.24,1.7281-4.104,2.592c-0.936,2.16-0.936,2.16-1.872,5.76c-1.944,4.104-1.944,4.104-3.888,7.488
		c-0.576,0.864-1.224,1.728-1.872,2.592c-2.736,2.808-5.472,5.616-8.2081,8.424c-2.9519,2.592-5.9039,5.256-8.856,7.92
		c-1.6559,0.936-3.816,2.88-12.6,8.496c-2.52,1.224-5.04,2.52-7.632,3.816c-0.864,0.648-1.728,1.296-2.664,1.944
		c-1.44,0.6479-2.88,1.296-4.32,1.944c-0.936,0.576-1.872,1.224-2.88,1.872c-4.032,1.872-8.136,3.816-12.2401,5.76
		c-2.232,1.296-4.464,2.592-6.696,3.888c-1.512,0.576-3.024,1.224-4.608,1.872c-3.096,1.944-3.096,1.944-18.432,9.648
		c-1.728,0.432-1.728,0.432-2.16,0.936c-13.968,6.696-13.968,6.696-14.4,7.2c-4.824,1.944-4.824,1.944-22.104,10.08
		c-1.08,0.288-2.232,0.576-3.384,0.936c-7.632,3.888-7.632,3.888-16.272,7.704c-4.968,2.52-9.936,5.112-14.904,7.704
		c-13.4641,5.76-13.4641,5.76-13.8961,6.192c-24.7679,12.024-24.7679,12.024-28.368,13.464c-0.864,0.648-1.728,1.296-2.592,1.944
		c-8.208,3.816-8.208,3.816-19.008,9.576c-14.616,6.696-16.056,7.704-23.76,11.016c-0.432,0.504-5.256,2.448-13.392,6.264
		c-8.928,3.816-8.928,3.816-9.36,4.32c-21.168,10.584-21.168,10.584-22.608,11.016c-3.096,1.944-7.416,3.888-9.36,5.328
		c-2.88,0.936-2.88,0.936-7.2,2.88c-0.72,0.432-1.44,0.936-2.16,1.44c-2.592,0.936-2.592,0.936-8.856,3.816
		c-0.936,0.648-1.872,1.296-2.88,1.944c-18,9.576-18,9.576-33.336,17.28c-12.528,5.76-12.96,6.192-17.064,8.136
		C123.84,236.4481,123.84,236.4481,116.424,238.4641L116.424,238.4641z M1.944,231.1201c-0.936-0.936-1.656-1.152-1.944-1.512
		c0.216-0.432,0.432-0.936,0.72-1.44c2.016-2.16,2.016-2.16,2.448-3.024c0.288-0.144,0.576-0.288,0.936-0.504
		c0.216-0.432,0.432-0.864,0.72-1.296c0.288-0.144,0.576-0.36,0.936-0.576c1.872-2.232,3.744-4.536,5.616-6.84
		c0.144-0.432,0.288-0.936,0.504-1.44c0.936-0.648,1.872-1.296,2.88-1.944c0.648-1.08,1.296-2.16,1.944-3.312
		c0.432-0.36,0.864-0.7921,1.296-1.224c0.36,0,0.792-0.0721,1.224-0.144c0.792,0.432,1.584,0.936,2.376,1.44c0.216,0,0.432,0,0.72,0
		c0.576-1.08,1.152-2.16,1.8-3.24c0.36,0,0.72-0.072,1.08-0.144c0.504,0.648,0.504,0.648,1.224,2.664
		c0.72,0.288,1.44,0.576,2.16,0.936c0.072,0.72,0.216,1.512,0.36,2.304c0.576,0.36,0.576,0.36,3.024,0.36
		c2.52-0.936,5.04-1.872,7.632-2.88c0.36,0.072,0.792,0.144,1.224,0.216c0.072,0.864,0.072,0.864-0.216,1.224
		c-5.328,1.944-9.36,3.816-11.088,4.32c-0.36,0.288-0.72,0.576-1.152,0.936c-0.648,0.144-1.296,0.2881-1.944,0.5041
		c-3.096,0-3.096,0-3.744-0.36c0-0.216,0-0.432,0-0.72c0.72-0.36,1.44-0.72,2.16-1.152c0-0.576,0-1.152,0-1.728
		c0.288-0.36,0.576-0.72,0.936-1.152c0-0.216,0-0.432-0.072-0.648c-0.288,0-0.576,0-0.936,0c-1.008,1.224-1.008,1.224-1.728,1.656
		c-0.36-0.072-0.72-0.144-1.152-0.216c-1.44-1.44-1.44-1.44-2.448-1.944c-0.216,0-0.432,0-0.72,0
		c-0.36,0.288-0.72,0.648-1.152,1.008c-0.288,0.72-0.576,1.512-0.864,2.304c-0.432,0.432-0.936,0.936-1.44,1.44
		c0.072,0.576,0.144,1.224,0.216,1.872c-0.504,1.008-0.504,1.008-2.664,3.384c-0.432,0.936-0.864,1.944-1.296,2.952
		c-0.216,0-0.432,0.072-0.72,0.144c-0.072,0.576-0.216,1.152-0.36,1.728c-1.152,1.584-2.376,3.168-3.6,4.752
		c-0.504,0.072-1.008,0.144-1.512,0.288c0,0.216,0,0.432,0,0.72C3.384,230.9041,3.168,231.1201,1.944,231.1201L1.944,231.1201z
		 M119.304,220.6801c-3.096-3.456-3.096-3.456-6.48-6.48c-0.576-0.936-1.152-1.872-1.8-2.808c0-0.288,0-0.648,0-1.008
		c0.576-0.36,0.576-0.36,9.936-1.8c1.512-0.504,3.024-1.08,4.608-1.656c0.36-0.288,0.72-0.648,1.152-1.008
		c1.368-0.576,2.736-1.224,4.104-1.872c2.808-2.448,5.616-4.968,8.424-7.488c0.288,0,0.576,0.072,0.936,0.144
		c0.072,2.16,0.072,2.16-0.36,5.76c-0.648,1.8-1.296,3.672-1.944,5.544c-0.936,1.872-1.872,3.816-2.88,5.76
		c-0.072,0.36-0.144,0.792-0.216,1.224c-5.904,2.232-6.336,2.736-9.216,3.672c-1.584,0.72-3.168,1.44-4.824,2.16
		C120.312,220.8241,119.808,220.752,119.304,220.6801L119.304,220.6801z M108.288,208.0801c-2.592-3.6-5.256-7.2-7.92-10.872
		c-2.016-2.448-4.032-4.896-6.048-7.344c-1.872-3.024-5.76-7.92-9-13.032c0-0.36,0.072-0.72,0.144-1.152
		c1.152-0.72,2.376-1.44,3.6-2.16c5.544-1.44,11.16-2.88,16.776-4.32c3.24-0.288,6.552-0.576,9.864-0.936
		c7.92,0.216,7.92,0.216,8.424,0.504c1.224,0.144,2.52,0.288,3.816,0.432c2.376,1.008,2.88,1.44,5.976,2.448
		c1.224,0.936,1.224,0.936,2.16,2.232c-0.504,0.36-1.08,0.72-1.656,1.08c-5.256,1.944-5.976,2.448-14.904,6.048
		c-2.16,0.4319-2.16,0.4319-6.912,2.376c-0.432,0.288-0.936,0.576-1.44,0.936c-1.44,0.432-2.88,0.936-4.32,1.44
		c-2.088,1.08-4.176,2.232-6.264,3.384c0,0.288-0.072,0.576-0.144,0.864c0.288,0.216,0.576,0.4319,0.864,0.72
		c7.704-3.744,7.704-3.744,9.36-4.248c0.216-0.216,0.432-0.432,0.72-0.72c8.352-3.024,16.776-6.048,25.2-9.072
		c0.432,0,0.936,0,1.44,0c0.576,1.08,1.152,2.16,1.8,3.24c0.432,1.656,0.936,3.312,1.44,5.04c-0.216,1.512-0.432,3.024-0.72,4.536
		c-1.944,2.16-1.944,2.16-2.448,3.168c0,0.432,0,0.936,0,1.44c-4.176,4.32-4.176,4.32-6.336,6.192
		c-1.008,0.648-2.016,1.296-3.024,1.944c-0.864,0.216-1.8,0.504-2.736,0.792c-1.08,0.648-2.16,1.296-3.312,1.944
		c-1.8,0.504-3.672,1.08-5.544,1.656c-2.664,0-3.384,0.288-7.2,0.72C109.008,208.0801,109.008,208.0801,108.288,208.0801
		L108.288,208.0801z M160.56,202.6081c-0.72-1.08-1.512-2.16-2.304-3.24c-0.432-1.944-0.432-1.944-0.432-5.256
		c0.288-0.792,0.576-1.584,0.936-2.448c0.216-1.44,0.432-2.88,0.72-4.32c0-1.872,0-3.816,0-5.76c-1.44-4.032-1.44-4.032-2.16-6.912
		c0-1.152,0-2.376,0-3.6c0.144-0.288,0.288-0.648,0.504-1.008c0.864-0.72,1.728-1.44,2.592-2.16c0.072-0.432,0.216-0.936,0.36-1.44
		c1.8-0.576,3.672-1.152,5.544-1.8c3.672-1.584,7.344-3.168,11.088-4.824c1.8-0.576,3.6-1.224,5.472-1.872c0.36,0,0.792,0,1.224,0
		c3.816,2.88,3.816,2.88,5.544,3.816c1.8,0.4319,3.6,0.864,5.472,1.368c-0.072,0.36-0.216,0.72-0.36,1.152
		c-4.104,4.32-8.136,9.36-10.296,11.52c-1.944,2.448-1.944,2.448-4.32,4.608c-0.648,0.936-1.296,1.872-1.944,2.88
		c-0.432,0.288-0.864,0.576-1.296,0.936c-1.296,1.728-2.592,3.456-3.96,5.256c-0.792,0.72-1.584,1.44-2.448,2.16
		c-3.816,5.328-3.816,5.328-5.76,7.488c-0.792,0.576-1.584,1.224-2.376,1.872c-0.288,0.432-0.576,0.936-0.936,1.44
		C161.136,202.4641,160.848,202.5361,160.56,202.6081L160.56,202.6081z M169.488,199.368c0.216-0.648,0.504-1.296,0.792-1.944
		c1.224-1.728,2.52-3.456,3.816-5.256c1.152-1.152,2.376-2.376,3.6-3.6c0.288-0.0721,0.576-0.144,0.864-0.216
		c-0.288,0.864-0.576,1.728-0.864,2.592c-1.224,2.088-2.52,4.176-3.816,6.264C172.44,197.928,171,198.648,169.488,199.368
		L169.488,199.368z M5.76,190.368c0-0.36-0.072-0.72-0.144-1.08c1.008-0.648,2.016-1.2961,3.024-1.944
		c2.088-0.864,4.176-1.8,6.264-2.736c1.224-1.008,1.224-1.008,4.32-2.448c2.376-0.432,2.376-0.432,3.384-0.936
		c0.288-0.288,0.576-0.576,0.936-0.936c1.224-0.648,2.52-1.2961,3.816-1.944c0.648-0.72,1.296-1.44,1.944-2.16
		c1.8-1.224,3.672-2.52,5.544-3.816c6.192-3.384,6.192-3.384,7.2-3.6c0.288,0.36,0.288,0.36,0.288,2.304
		c-1.008,1.728-2.016,3.456-3.096,5.256c0,0.216,0.072,0.504,0.144,0.792c0.504,0,1.08,0,1.656,0
		c0.792-0.432,1.656-0.864,2.52-1.296c0-0.792,0-1.584,0-2.376c0.864-0.648,1.8-1.2961,2.736-1.944
		c1.368-0.576,2.736-1.152,4.104-1.8c9.864-2.88,9.864-2.88,12.96-3.384c0.576,0,1.152,0,1.728,0
		c0.288,0.432,0.288,0.432,0.288,1.368c-0.576,0.36-4.392,1.296-6.768,2.232c-0.576,0.288-1.152,0.648-1.728,1.008
		c-0.36,0-0.72,0-1.152,0c-0.144-0.144-0.288-0.288-0.504-0.504c-0.648,0.072-1.296,0.144-1.944,0.216
		c-5.76,1.944-5.76,1.944-7.416,2.88c0,0.36-0.072,0.72-0.144,1.152c0.216,0.144,0.432,0.288,0.72,0.432c0,0.36,0,0.792,0,1.224
		c-1.296,0.936-1.296,0.936-3.456,1.8c-0.72,0.144-1.44,0.288-2.16,0.432c-2.88,2.16-2.88,2.16-5.04,3.168
		c-1.368,0.144-2.736,0.288-4.104,0.432c-0.36-0.288-0.36-0.288-0.576-2.016c0.648-0.936,1.296-1.872,2.016-2.88
		c-0.216,0-0.432-0.072-0.72-0.144c-1.008,0.792-2.016,1.584-3.096,2.448c-1.368,0.576-2.736,1.224-4.104,1.8719
		c-0.576,0.936-1.152,1.872-1.8,2.808c-1.8,0.792-1.8,0.792-4.896,2.736c-3.6,0.936-3.6,0.936-10.584,3.384
		C7.2,190.368,6.48,190.368,5.76,190.368L5.76,190.368z M182.88,183.312c0.072-0.432,0.216-0.936,0.36-1.44
		c1.944-1.944,3.96-4.608,6.984-7.704c0.936-1.44,0.936-1.44,11.016-12.456c3.816-5.0399,7.704-10.8,8.136-11.808
		c0.648-0.72,1.296-1.44,1.944-2.16c2.088-3.672,4.176-7.344,6.264-11.016c0.144-0.72,0.288-1.44,0.432-2.16
		c0.288-0.288,0.648-0.576,1.008-0.936c4.752-11.808,4.752-11.808,5.256-13.968c0.072-1.224,0.144-2.52,0.216-3.816
		c-0.288-0.504-0.576-1.08-0.936-1.656c-2.16-2.16-2.16-2.16-4.896-4.104c-1.08-0.288-2.232-0.576-3.384-0.864
		c-1.656-0.936-1.656-0.936-6.192-4.824c-3.384-1.872-3.384-1.872-6.048-3.816c-2.376-2.16-2.376-2.16-3.312-2.664
		c-0.648-0.144-1.296-0.288-1.944-0.432c-0.648-0.648-1.296-1.296-1.944-1.944c-0.504-0.288-1.08-0.576-1.656-0.936
		c-1.728-2.736-3.456-5.472-5.184-8.28c-0.072-0.432-0.144-0.936-0.216-1.44c0.36-0.288,0.72-0.576,1.08-0.864
		c5.256-0.216,6.264-0.504,8.64-0.504c0.864,0.288,1.728,0.648,2.664,1.008c3.6,0.432,4.032,0.72,7.416,1.152
		c4.824,1.944,4.824,1.944,6.264,2.88c0.288,0.288,0.576,0.648,0.936,1.008c0.864,0.432,1.728,0.936,2.664,1.44
		c2.16,1.872,4.032,4.032,8.64,8.352c1.656,2.016,3.312,4.032,5.04,6.12c4.536,4.248,4.536,4.248,5.328,5.328
		c0.288,1.44,0.648,2.88,1.008,4.32c-0.216,2.808-0.432,5.616-0.72,8.424c-0.288,0.936-0.648,1.872-1.008,2.88
		c-0.144,1.08-0.288,2.16-0.432,3.312c-2.448,7.2-4.968,14.4-7.488,21.6c0,1.008,0,1.008,0.432,1.584c0.288,0,0.576,0,0.936,0
		c0.504-0.504,0.504-0.504,0.792-1.296c6.984-3.168,13.968-6.336,21.024-9.504c0.432-0.288,0.936-0.648,1.44-1.008
		c1.656-0.576,3.312-1.224,5.04-1.872c3.6-1.944,3.6-1.944,12.2401-5.76c0.36-0.288,0.792-0.648,1.224-1.008
		c4.1039-1.872,4.1039-1.872,5.5439-2.88c0.576-0.144,1.224-0.288,1.872-0.432c1.8-1.296,3.672-2.592,5.544-3.888
		c2.88-0.936,2.88-0.936,9.144-3.6c1.224-0.72,2.5201-1.44,3.816-2.16c2.16-0.792,4.32-1.584,6.48-2.376
		c0.792-0.072,1.584-0.144,2.376-0.216c2.88-1.44,4.104-2.448,6.0479-3.384c2.16-2.376,2.16-2.376,4.032-5.184
		c0.36-0.936,0.36-0.936,0.864-4.248c0.072-2.088,0.144-4.176,0.216-6.2639c-0.288-2.376-0.576-4.752-0.936-7.2
		c-0.648-1.152-1.2961-2.376-1.944-3.6c-1.944-2.376-1.944-2.376-6.624-6.696c-0.864-0.648-1.728-1.2961-2.592-1.944
		c-2.232-1.224-4.464-2.448-6.696-3.744c-2.448-0.936-4.968-1.872-7.488-2.88c-0.504-0.0721-1.08-0.144-1.656-0.216
		c-0.648-0.288-1.296-0.648-1.944-1.008c-0.864-0.072-1.7281-0.144-2.592-0.288c0.072-0.288,0.144-0.576,0.216-0.864
		c3.384-1.008,5.256-1.944,10.8-3.384c2.592-0.936,5.256-1.872,7.92-2.88c0.864-0.144,1.728-0.288,2.664-0.504
		c0.504-0.288,1.08-0.576,1.656-0.936c1.08-0.144,2.232-0.288,3.3839-0.504c1.656-0.936,4.32-1.872,5.976-2.88
		c3.096-0.936,4.824-1.872,10.584-3.816c9.36-3.816,9.36-3.816,9.576-4.104c12.456-3.816,23.544-7.632,28.8-9.072
		c0.936-0.504,0.936-0.504,10.08-3.384c0.6479,0,1.296,0,1.944,0c1.152-0.936,1.152-0.936,3.6-1.944
		c2.16-0.4319,7.632-2.376,12.672-3.8159c0.648-0.072,1.296-0.144,1.944-0.216c0.216-0.144,0.432-0.288,0.72-0.504
		c24.48-5.7599,27.576-6.696,32.904-7.704c7.2-0.9359,11.52-1.8719,19.152-2.88c5.544-0.432,5.544-0.432,8.424-0.936
		c4.32,0,8.64-0.504,32.904-1.2239c6.192,0.504,6.192,0.504,7.92,0.864c-0.288,0.36-4.32,1.296-6.9841,2.304
		c-2.1599,0.4319-3.0959,0.936-5.5439,1.44c-1.008,0.3599-2.016,0.72-3.096,1.152c-0.36,0.6479-0.36,0.6479-0.216,1.728
		c0.864,0.072,1.728,0.144,2.592,0.216c2.808-0.936,5.616-1.872,8.4241-2.88c3.168-0.648,6.3359-1.296,9.5759-1.944
		c0.36-0.2161,0.7921-0.432,1.2241-0.7201c0.504,0,1.08,0.0721,1.6559,0.144c-0.288,0.792-0.5759,1.584-0.864,2.448
		c-1.872,2.376-1.872,2.376-5.976,6.48c-2.376,1.944-4.752,3.96-7.2,5.976c-1.872,1.224-3.744,2.448-5.616,3.672
		c-2.376,2.16-2.376,2.16-12.24,9.36c-1.944,0.936-3.96,1.8719-5.976,2.88c-2.88,1.944-2.88,1.944-17.28,9.6479
		c-12.528,5.76-12.528,5.76-17.568,7.632c-4.32,2.232-8.64,4.464-12.96,6.768c-9.792,3.816-9.792,3.816-18.72,7.632
		c-8.136,3.888-12.672,5.76-28.08,13.464c-8.856,3.816-10.512,4.824-13.392,5.76c-5.256,2.52-10.512,5.112-15.84,7.704
		c-0.576,0.144-1.152,0.288-1.728,0.432c-1.584,0.792-3.168,1.584-4.752,2.448c-1.368,0.216-2.736,0.432-4.104,0.72
		c-4.32,1.872-8.64,3.816-12.96,5.76c-2.664,1.44-5.4,2.88-8.136,4.32c-1.008,0.288-2.088,0.576-3.168,0.936
		c-5.4,3.024-10.8,6.0479-16.272,9.144c-4.8239,1.872-12.96,5.76-22.608,9.576c-16.56,7.7039-21.096,9.576-22.752,10.584
		c-2.952,1.224-5.904,2.52-8.928,3.816c-7.416,3.816-7.416,3.816-8.64,4.824c-16.56,7.2-21.6,9.072-25.632,11.016
		c-1.296,0.288-2.592,0.576-3.888,0.936c-2.952,1.296-5.904,2.592-8.856,3.888c-5.544,1.8719-5.544,1.8719-8.424,3.312
		c-0.216,0.288-0.432,0.648-0.72,1.008C183.384,183.1681,183.168,183.2401,182.88,183.312L182.88,183.312z M226.8,181.7281
		c-0.216-0.2881-0.432-0.576-0.72-0.864c0.576-1.152,1.152-2.376,1.8-3.6c1.08-0.576,2.16-1.152,3.24-1.8
		c3.168-0.936,3.168-0.936,4.104-0.936c0.72,0.432,0.72,0.432,1.08,1.08c0,0.36,0,0.792,0,1.224c-1.008,1.152-1.008,1.152-4.464,3.6
		c-0.72,0.0721-1.44,0.144-2.16,0.288c-0.288,0.2881-0.576,0.648-0.936,1.0081C228.096,181.7281,227.448,181.7281,226.8,181.7281
		L226.8,181.7281z M239.04,176.1841c-0.216-0.072-0.216-0.072-0.36-1.296c0.936-2.16,0.936-2.16,2.016-3.816
		c0.72,0,1.44-0.0721,2.232-0.144c0.504-0.288,1.08-0.648,1.656-1.008c1.08-0.144,2.232-0.288,3.384-0.432
		c0.72-0.504,0.72-0.504,1.656-0.504c0.144,0.144,0.288,0.288,0.504,0.504c0,0.504,0,1.008,0.072,1.584
		c-0.6479,0.72-1.296,1.44-2.016,2.232c-0.72,0.072-1.44,0.144-2.16,0.216c-0.144,0.144-0.288,0.288-0.504,0.504
		c-0.864,0.072-1.728,0.144-2.592,0.216c-0.288,0.288-0.648,0.648-1.008,1.008C240.48,175.6801,239.76,176.1841,239.04,176.1841
		L239.04,176.1841z M36.72,175.6801c0-0.504-0.072-1.008-0.144-1.512c1.728-0.936,2.088-1.368,2.808-1.44
		c-0.288,0.6479-0.576,1.296-0.864,1.944c-0.288,0.288-0.576,0.576-0.936,0.936C37.296,175.6081,37.008,175.6081,36.72,175.6801
		L36.72,175.6801z M79.704,170.4241c-0.432-0.288-0.936-0.576-1.44-0.936c-1.224-1.44-2.448-2.952-3.744-4.464
		c0-0.432,0.072-0.864,0.144-1.296c2.664-1.0081,2.664-1.0081,10.08-4.824c3.672-1.224,7.344-2.52,11.016-3.816
		c4.536-2.088,9.072-4.176,13.68-6.264c5.04-1.872,10.08-3.816,15.12-5.76c1.008-0.216,2.088-0.504,3.168-0.7921
		c0,0.216-0.072,0.432-0.144,0.72c-1.224,0.936-2.16,2.16-2.88,2.592c-0.648,0.936-1.296,1.872-1.944,2.88
		c-0.936,2.448-0.936,2.448-1.944,7.2c-0.072,1.368-0.144,2.736-0.216,4.104c-0.072,0.072-0.216,0.144-0.36,0.216
		c-0.792-0.648-1.584-1.296-2.376-2.016c-1.44,0.216-2.88,0.432-4.32,0.72c-1.368,0.432-2.736,0.936-4.104,1.44
		c-1.584,0.288-3.168,0.576-4.752,0.936c-0.216,0.144-0.432,0.288-0.72,0.504c-1.584,0.288-3.168,0.576-4.824,0.936
		c-1.512,0.6479-3.024,1.296-4.536,1.944c-0.72,0.432-1.44,0.936-2.16,1.44c-2.376,0.936-4.752,1.872-7.2,2.88
		c-1.296,0.144-2.592,0.36-3.888,0.576c-0.288,0.36-0.576,0.72-0.936,1.08C80.208,170.4241,79.992,170.4241,79.704,170.4241
		L79.704,170.4241z M148.824,166.6081c-8.136-1.44-9.576-1.944-12.456-2.448c-0.576-0.432-1.152-0.936-1.728-1.44
		c-1.44,0-1.44,0-3.6,0.504c-2.592-0.36-5.256-0.72-7.92-1.08c0.36-1.152,0.36-1.152,0.36-6.48c0.504-1.44,0.504-1.44,0.936-4.32
		c0.648-1.152,1.296-2.376,1.944-3.6c4.104-4.32,4.104-4.32,9.504-9.072c4.536-1.872,6.48-2.304,8.424-3.312
		c2.16-0.432,4.536-1.44,6.696-1.872c0.648-0.504,1.296-1.008,1.944-1.584c0.432,0,0.936-0.072,1.44-0.144
		c1.872-0.936,4.752-1.872,7.92-3.312c1.152-1.008,4.32-2.88,5.472-3.888c3.384-1.872,3.384-1.872,6.984-3.312
		c0.504,0,1.08,0,1.656,0.072c0.576,3.888,1.08,4.824,1.08,6.048c-0.864,0.504-0.864,0.504-2.232,0.792
		c-0.936,1.152-1.872,2.304-2.808,3.528c-0.216,0.792-0.504,1.656-0.792,2.52c-2.88,0-2.88,0-4.608,0.432
		c-0.288,0.432-0.576,0.864-0.864,1.368c0,1.656,0,1.656,0.504,3.816c1.944,3.384,1.944,3.384,3.024,4.608
		c0.864,0.72,1.8,1.44,2.736,2.16c0.648,1.152,1.296,2.376,1.944,3.6c0,0.864,0,1.728,0,2.592c-0.432,0.792-0.936,1.584-1.44,2.448
		c-0.72,0.432-0.72,0.432-2.88,2.88c-1.728,0.864-3.456,1.8-5.184,2.736c-0.288,0.288-0.576,0.576-0.936,0.936
		c-8.856,3.816-8.856,3.816-12.024,4.824C150.912,166.6081,149.904,166.6081,148.824,166.6081L148.824,166.6081z M182.448,142.8481
		c-1.512-1.2961-3.024-2.592-4.608-3.888c-1.08-1.152-2.16-2.376-3.312-3.6c0-0.432-0.072-0.864-0.144-1.296
		c0.936-2.592,0.936-2.592,1.8-3.744c1.656-0.432,1.656-0.432,2.52-0.288c0.144,0.504,0.288,1.08,0.432,1.656
		c0.864,0.792,1.728,1.656,2.592,2.52c0.792,0.216,1.584,0.432,2.376,0.72c0.072,0.144,0.216,0.36,0.36,0.576
		c0,1.1519,0,2.376,0,3.6c-0.432,1.224-0.864,2.448-1.296,3.744C182.952,142.8481,182.736,142.8481,182.448,142.8481
		L182.448,142.8481z M186.048,142.992c0.216-1.872,0.504-3.816,0.792-5.7599c-0.216-3.168-0.216-3.168-0.504-3.888
		c-1.728-0.864-1.728-0.864-3.456-1.296c-0.432-0.36-0.936-0.72-1.44-1.08c-0.576-1.368-1.152-2.736-1.8-4.104
		c0-0.576,0-1.224,0-1.872c1.152-0.6479,2.304-1.296,3.456-1.944c15.192-4.68,15.192-4.68,17.352-5.688
		c4.608-4.176,4.608-4.176,8.856-8.64c0.216,0,0.432,0,0.72,0c2.16,1.944,2.16,1.944,3.096,2.448
		c1.584,0.432,3.168,0.936,4.824,1.44c1.08,0.864,2.232,1.728,3.384,2.592c0.2881,2.808,0.2881,2.808,0.0721,4.968
		c-0.216,0.72-0.504,1.44-0.792,2.232c-0.792-0.072-1.584-0.144-2.448-0.216c-1.872,2.664-1.872,2.664-3.816,4.824
		c-2.16,1.872-2.16,1.872-5.976,6.192c-0.864,0.648-1.728,1.296-2.664,1.944c-2.376,0.936-2.376,0.936-5.256,1.44
		c-4.32,1.944-4.32,1.944-7.704,3.816c-1.008,0.288-2.016,0.648-3.096,1.008c-0.792,0.432-1.584,0.936-2.448,1.44
		C186.84,142.8481,186.48,142.9201,186.048,142.992L186.048,142.992z M127.944,141.9841c0.072-0.432,0.216-0.936,0.36-1.44
		c2.664-2.664,5.4-5.4,8.136-8.136c7.704-8.64,7.704-8.64,9.576-11.304c2.448-1.872,3.528-3.096,7.488-5.976
		c4.032-4.104,6.48-5.976,10.44-10.08c1.584-1.224,3.24-2.52,4.896-3.816c2.664-2.808,5.4-5.616,8.136-8.424
		c0.792-0.648,1.584-1.296,2.448-1.944c1.08-1.224,2.16-2.448,3.24-3.744c1.656-0.72,1.656-0.72,2.664-0.72
		c0.648,1.008,1.296,2.016,2.016,3.024c0,0.72,0,1.44,0,2.16c-0.936,1.368-1.872,2.736-2.88,4.104
		c-0.288,0.864-0.576,1.8-0.864,2.736c-0.36,0.144-0.72,0.288-1.152,0.504c-1.296,2.232-2.664,4.536-4.032,6.84
		c-0.432,2.88-0.432,2.88-1.152,4.536c0,0.576,0,1.152,0,1.728c0.36,0.288,0.36,0.288,1.8,0.288
		c1.224-0.936,2.016-2.232,2.952-3.168c1.8-1.08,3.6-2.16,5.472-3.312c5.256-1.872,5.256-1.872,10.512-4.32
		c0.576-0.072,1.152-0.144,1.728-0.216c1.44,0.936,2.376,1.944,3.816,2.88c0.216,0.288,0.432,0.576,0.72,0.864
		c-0.36,0.432-0.792,0.864-1.224,1.2961c-3.312,1.944-3.312,1.944-5.76,3.816c-1.44,0.504-1.44,0.504-5.04,1.008
		c-1.08,0.576-2.16,1.224-3.312,1.872c-3.168,1.008-5.04,1.944-7.92,2.88c-0.936,0.648-1.872,1.296-2.88,1.944
		c-2.304,0.792-4.608,1.584-6.984,2.376c-0.36,0.288-0.792,0.648-1.224,1.008c-2.376,0.936-2.376,0.936-3.816,1.872
		c-0.288,0.288-0.576,0.648-0.936,1.008c-2.088,1.224-4.176,2.52-6.264,3.816c-1.584,0.648-3.168,1.296-4.824,1.944
		c-0.288,0.36-0.576,0.72-0.936,1.152c-0.72-0.144-1.44-0.288-2.16-0.432c-2.16,0.936-4.824,1.44-6.984,2.376
		c-0.792,0.432-1.584,0.936-2.376,1.44c-0.864,0.072-1.728,0.144-2.664,0.216c-0.36,0.288-0.72,0.648-1.152,1.008
		c-0.72,0.144-1.44,0.288-2.16,0.432c-1.008,0.648-2.088,1.296-3.168,1.944c-0.936,1.008-1.872,2.016-2.88,3.096
		C129.096,141.4081,128.52,141.6961,127.944,141.9841L127.944,141.9841z M248.184,135.144c-0.504-0.504-0.504-0.504-0.864-2.016
		c-0.216-2.952-0.432-5.904-0.72-8.856c0.648-0.36,1.368-0.72,2.088-1.152c0.36,0,0.72,0,1.152,0c1.44,1.224,1.44,1.224,1.8,1.872
		c0.072,2.664,0.144,5.4,0.216,8.136c-0.144,0.216-0.36,0.432-0.576,0.72C249.408,134.6401,248.904,135.144,248.184,135.144
		L248.184,135.144z M8.928,125.5681c-0.216-0.216-0.432-0.432-0.72-0.648c0-0.288-0.072-0.576-0.144-0.936
		c0.576-0.72,0.576-0.72,1.584-1.08c2.592-0.216,2.592-0.216,4.032-0.72c4.032-0.288,8.136-0.576,12.24-0.936
		c3.888-1.008,3.888-1.008,9.864-1.944c1.224,0.504,1.224,0.504,2.664,0.504c0.288-0.288,0.576-0.648,0.936-1.008
		c2.448,0,4.896,0,7.416,0c0.72-0.288,1.44-0.576,2.16-0.936c3.6,0,4.608-0.216,7.704-0.216c0.36,0.36,0.36,0.36,0.72,1.44
		c0.648-0.072,1.296-0.144,1.944-0.288c0.36-0.216,0.72-0.432,1.152-0.72c0.576,0,1.152,0.072,1.8,0.144
		c0,0.648,0,1.296-0.072,1.944c1.152-0.072,2.376-0.216,3.6-0.36c0.216,0.432,0.432,0.936,0.72,1.44c1.512,0,3.024,0,4.536,0
		c0.216,0.288,0.432,0.576,0.72,0.936c0.36,0.072,0.792,0.144,1.224,0.216c3.096-0.936,3.096-0.936,5.04-1.152
		c0.288,0.288,0.576,0.576,0.936,0.936c0.792-0.072,1.584-0.144,2.376-0.216c1.224-1.008,1.224-1.008,3.168-1.944
		c1.08-0.144,2.16-0.288,3.312-0.504c1.44-0.936,2.448-1.152,3.168-1.656c1.152-0.216,2.376-0.432,3.6-0.72
		c0.144-0.144,0.288-0.288,0.432-0.504c1.8-0.288,3.672-0.576,5.544-0.936c2.16-0.936,2.16-0.936,4.824-1.44
		c0.72-0.792,1.44-1.584,2.16-2.376c0.216-0.504,0.504-1.008,0.792-1.584c0.216-0.144,0.432-0.288,0.72-0.432
		c0.288-0.576,0.576-1.152,0.936-1.728c0.216-1.224,0.432-2.52,0.72-3.816c-1.656-2.16-1.656-2.16-1.872-2.88
		c-0.36-0.288-0.792-0.576-1.224-0.936c-0.216-0.72-0.432-1.44-0.72-2.16c0-0.648,0.072-1.2961,0.144-1.944
		c0.144-0.072,0.288-0.216,0.504-0.36c0.504,0.072,1.08,0.144,1.656,0.216c2.376,2.16,5.04,4.104,6.264,5.544
		c0.144,0,0.36-0.072,0.576-0.144c0.144-0.432,0.288-0.936,0.432-1.44c0.216-0.144,0.432-0.288,0.648-0.432
		c0.36,0.288,0.72,0.576,1.08,0.936c0.72,8.424,0.72,8.424,1.08,9.36c0.432-0.072,0.936-0.216,1.44-0.36
		c1.584-1.8,3.168-3.6,4.824-5.4c0.216-0.648,0.504-1.296,0.792-1.944c0.648-0.864,1.296-1.728,1.944-2.592
		c1.584-2.88,3.168-5.76,4.752-8.64c0.36-0.36,0.72-0.72,1.152-1.152c0.504,0,1.08,0,1.656,0c0.936,0.648,1.44,1.44,1.944,1.728
		c0.36,0,0.72,0,1.152,0c0.216-0.144,0.432-0.288,0.72-0.504c0.936,0.216,1.872,0.432,2.88,0.72
		c0.144,0.144,0.288,0.288,0.504,0.504c0,1.728-0.072,3.456-0.144,5.184c0.288,0.36,0.576,0.72,0.936,1.152
		c0,1.1519,0,2.304-0.072,3.456c1.08,0.144,2.232,0.288,3.384,0.504c0.144,0.144,0.288,0.288,0.432,0.504
		c0.936,0.144,1.872,0.288,2.88,0.432c0.216,0.216,0.432,0.432,0.72,0.648c0.072,0.504,0.216,1.08,0.36,1.656
		c0.288,0.072,0.576,0.216,0.864,0.36c2.16-0.936,2.16-0.936,3.096-0.936c0.072,0.072,0.144,0.216,0.288,0.36
		c-1.44,1.08-2.448,1.512-4.824,3.672c-0.288,0-0.576,0-0.864-0.072c-0.216-3.096-0.216-3.096-0.576-3.96
		c-0.648-0.072-1.296-0.144-1.944-0.288c-1.08,0.72-2.16,1.44-3.312,2.16c-0.504,0-1.008,0-1.584-0.072
		c0-0.792,0.072-1.584,0.144-2.376c-0.36-0.072-0.792-0.144-1.224-0.288c-0.072-0.216-0.216-0.432-0.36-0.72
		c0.072-0.792,0.216-1.584,0.36-2.376c-0.504,0-1.08,0-1.656,0.072c-0.144-0.144-0.288-0.288-0.504-0.432
		c0-0.504-0.072-1.008-0.144-1.584c0.432-0.72,0.936-1.44,1.44-2.16c0.072-1.008,0.216-2.016,0.36-3.096c-0.288,0-0.576,0-0.864,0
		c-0.936,2.664-0.936,2.664-1.872,4.104c-0.432,0.216-0.864,0.432-1.368,0.72c-0.144-0.144-0.36-0.288-0.576-0.504
		c0.216-1.224,0.216-1.224,1.224-2.88c0-1.656,0-1.656-0.36-2.088c-0.504-0.072-1.08-0.144-1.656-0.216
		c-0.36,0.432-0.792,0.936-1.224,1.44c-0.504,0.072-1.08,0.144-1.656,0.216c-1.944,2.88-5.688,9.792-7.632,12.672
		c-1.512,1.512-3.096,3.024-4.68,4.536c-1.152,0.072-1.152,0.072-2.088-0.36c-0.432-0.576-0.432-0.576-1.512-3.744
		c-0.36-0.216-0.72-0.432-1.08-0.72c-0.144-0.72-0.288-1.44-0.432-2.16c-1.008-1.656-1.008-1.656-1.44-2.88
		c-1.152-0.864-2.304-1.8-3.456-2.736c-0.288,0-0.648,0-1.008,0.072c0.864,1.008,1.8,2.088,2.736,3.168
		c-0.072,2.304-0.144,4.608-0.216,6.984c-0.216,0.432-0.504,0.864-0.792,1.296c-0.432,0.144-0.936,0.288-1.44,0.432
		c-0.648,0.936-1.296,1.872-1.944,2.88c-0.648,0.576-1.296,1.152-1.944,1.728c-1.512,0.144-3.024,0.288-4.536,0.432
		c-1.944,1.008-7.704,2.88-9.864,3.888c-1.296,0.288-2.664,0.576-4.032,0.936c-2.664,1.44-2.664,1.44-5.04,2.16
		c-4.104,0.504-4.104,0.504-6.264,0.504c-0.72-0.288-5.256-0.288-6.48-0.72c-2.232-0.144-4.464-0.288-6.696-0.504
		c-0.144-0.144-0.288-0.288-0.504-0.504c-0.936-0.144-1.872-0.288-2.88-0.432c-0.288-0.216-0.576-0.432-0.936-0.72
		c-1.152,0-2.376,0-3.6,0c-1.368-0.216-2.736-0.432-4.104-0.72c-1.44,0.216-2.88,0.432-4.32,0.72
		c-0.216-0.288-0.216-0.288-3.384-0.72c-0.936,0.072-1.872,0.144-2.88,0.216c-1.224,0.504-2.52,1.08-3.816,1.656
		c-3.6,0.648-7.2,1.296-10.8,1.944c-3.6,0.216-10.584,0-12.24,0.216C12.024,125.0641,12.024,125.0641,8.928,125.5681L8.928,125.5681
		z M276.48,122.4001c-0.576-0.432-1.224-0.936-1.872-1.44c0-0.432-0.072-0.864-0.144-1.296c1.944-1.728,3.888-3.456,5.904-5.256
		c0.216,0,0.432-0.072,0.72-0.144c0.792,0.864,1.584,1.728,2.376,2.664c0,0.432,0,0.864,0.072,1.296
		c-1.152,1.008-1.152,1.008-2.448,1.584c-0.72,0-1.44,0-2.16,0c-0.504,0.792-0.504,0.792-0.864,2.304
		C277.488,122.4001,277.488,122.4001,276.48,122.4001L276.48,122.4001z M179.28,122.3281c0-0.864,0.072-1.728,0.144-2.664
		c0.36-0.288,0.72-0.576,1.152-0.936c4.752-1.8,5.472-2.304,9.288-3.744c1.08-0.144,2.232-0.288,3.384-0.504
		c0.504-0.288,1.08-0.576,1.656-0.936c1.44-0.288,2.88-0.576,4.32-0.936c1.08-1.008,2.232-2.088,3.384-3.168
		c0.936-0.504,1.872-1.08,2.88-1.656c0.216,0,0.432,0.072,0.72,0.144c-0.144,0.36-0.288,0.792-0.432,1.224
		c-2.088,2.232-4.176,4.464-6.336,6.696c-4.536,1.296-6.48,2.232-12.24,4.176c-1.44,0.288-2.88,0.576-4.32,0.936
		C180.72,121.968,180.72,121.968,179.28,122.3281L179.28,122.3281z M292.104,119.6641c0.072-0.576,0.216-1.224,0.36-1.872
		c0.72-1.368,1.512-2.808,2.304-4.248c2.16-0.216,2.16-0.216,6.192,0.216c0.864,0.216,1.728,0.432,2.664,0.648
		c-0.36,0.36-0.792,0.72-1.224,1.08C300.96,115.92,293.76,119.304,292.104,119.6641L292.104,119.6641z M286.344,116.208
		c-1.44-1.224-2.376-2.664-4.536-4.824c-1.944-1.296-3.888-2.592-5.832-3.96c-0.072-1.44-0.216-2.88-0.36-4.32
		c0.072-0.936,0.144-1.872,0.288-2.88c2.592-1.872,2.592-1.872,4.392-3.6c0.288-0.0721,0.648-0.216,1.008-0.36
		c0.936,0.216,1.872,0.432,2.88,0.72c1.08,0.792,2.232,1.584,3.384,2.376c1.368,2.664,2.736,5.328,4.176,8.064
		c0.144,1.152,0.288,2.376,0.432,3.6c-0.144,0.288-0.288,0.648-0.432,1.008c-2.304,2.376-2.304,2.376-4.68,4.176
		C286.848,116.208,286.632,116.208,286.344,116.208L286.344,116.208z M272.664,114.768c-0.576-0.288-1.152-0.576-1.8-0.864
		c0.432-2.88,0.432-2.88,0.216-4.32c0.288-0.36,0.576-0.72,0.936-1.152c0.144-1.368,0.288-2.736,0.432-4.104c0.216,0,0.432,0,0.72,0
		c0.072,1.512,0.144,3.024,0.288,4.536c1.656,1.008,3.312,2.088,4.968,3.168c0,0.216,0,0.504,0,0.792
		C273.888,114.264,273.384,114.768,272.664,114.768L272.664,114.768z M259.704,113.7601c-0.288-0.144-0.576-0.288-0.936-0.432
		c-1.8719-3.744-1.8719-3.744-3.312-5.904c-0.288,0-0.648-0.072-1.008-0.144c-0.36,0.36-0.792,0.792-1.224,1.224
		c-0.432-0.0721-0.936-0.144-1.44-0.216c-2.664-2.16-3.6-3.384-4.6801-4.1761c0.216-8.928,0.216-8.928,0.576-10.224
		c0.36,0.072,0.792,0.144,1.224,0.216c1.224,1.512,2.52,3.024,3.816,4.536c2.808,2.016,5.616,4.104,8.496,6.192
		c-0.072,2.7361-0.144,5.544-0.216,8.352c-0.072,0.144-0.216,0.36-0.36,0.576C260.352,113.7601,260.064,113.7601,259.704,113.7601
		L259.704,113.7601z M309.6,112.1041c-9.36-1.44-9.36-1.44-12.672-1.656c-0.216-0.144-0.432-0.288-0.72-0.504
		c-0.288-3.528-0.576-7.056-0.864-10.656c-3.888-8.856-3.888-8.856-4.176-10.08c1.944,0,3.96,0,5.976,0.0721
		c1.656,0.504,7.92,1.44,17.28,3.6c0.504,0.648,0.504,0.648,0.792,2.592c0,2.952,0,5.904,0,8.856
		c-0.144,0.936-0.288,1.872-0.432,2.88c-0.648,0.936-1.2961,1.872-1.944,2.88c-0.72,0.648-1.5121,1.296-2.304,1.944
		C310.248,112.0321,309.96,112.0321,309.6,112.1041L309.6,112.1041z M286.344,109.7281c-1.944-1.008-1.944-1.008-7.2-2.88
		c-1.224-1.008-1.224-1.008-2.088-2.304c-0.0721-0.864-0.144-1.728-0.216-2.592c0.216-0.288,0.432-0.648,0.72-1.008
		c0.288,0,0.576-0.072,0.864-0.144c0.216,0.144,0.432,0.288,0.72,0.504c1.224,0.072,2.5201,0.144,3.816,0.216
		c1.008,0.288,2.088,0.648,3.168,1.008c0.72,0.504,1.44,1.08,2.16,1.656c0.288,0.648,0.648,1.368,1.008,2.088c0,0.72,0,1.44,0,2.16
		c-0.432,0.36-0.864,0.72-1.296,1.152C287.496,109.584,286.92,109.656,286.344,109.7281L286.344,109.7281z M292.104,103.248
		c-0.576-1.08-1.152-2.16-1.8-3.24c-0.648-0.7921-1.296-1.584-1.944-2.376c-0.792-0.648-1.656-1.296-2.52-1.944
		c-1.152-0.504-2.304-1.08-3.456-1.656c-0.504-1.224-0.504-1.224-1.08-1.584c-2.376-0.504-6.264-0.72-8.136-1.224
		c-1.296-1.584-2.592-3.24-3.888-4.896c-3.6-3.24-4.536-4.464-6.912-6.408c-1.584-1.08-3.168-2.16-4.824-3.312
		c-0.216-0.288-0.432-0.648-0.72-1.008c-2.376,0.36-4.752,0.72-7.2,1.152c0-0.216,0-0.432,0.072-0.72
		c3.168-2.88,3.168-2.88,3.528-3.528c5.7599,0.216,5.7599,0.216,9.144,0.72c5.76,1.944,5.76,1.944,8.136,2.376
		c2.664,1.44,3.096,1.944,5.0399,2.88c7.416,6.264,7.416,6.264,10.08,8.208c1.224,1.872,2.52,3.816,3.816,5.76
		c1.8,4.176,1.8,4.176,3.024,7.776c0,0.936,0,1.872,0,2.88C292.392,103.1041,292.248,103.1761,292.104,103.248L292.104,103.248z
		 M244.08,102.2401c-0.504-0.576-1.08-1.224-1.656-1.872c-0.864-0.288-1.728-0.648-2.664-1.008c-0.576-0.432-1.224-0.936-1.872-1.44
		c-0.144-3.6-0.288-7.2-0.504-10.872c0.72,0.072,2.16,1.08,3.6,1.512c1.2961,0.936,2.592,1.872,3.9601,2.808
		c0.072,2.088,0.144,4.176,0.216,6.264c-0.072,1.512-0.216,3.024-0.36,4.608C244.584,102.2401,244.368,102.2401,244.08,102.2401
		L244.08,102.2401z M260.424,101.5201c-2.304-1.656-4.608-3.312-6.984-5.04c-0.576-0.864-1.152-1.8-1.8-2.736
		c-0.72-0.72-1.44-1.44-2.16-2.16c0-0.216,0-0.432,0-0.72c0.648-0.288,1.368-0.576,2.088-0.864c1.296,0,2.664,0.072,4.032,0.144
		c2.16,2.376,4.392,4.752,6.624,7.2c-0.288,2.664-0.288,2.664-0.72,3.888C261.144,101.5201,261.144,101.5201,260.424,101.5201
		L260.424,101.5201z M218.16,100.368c-1.152-0.288-2.376-0.648-3.6-1.008c-3.816-0.432-5.472-0.936-9.792-1.152
		c-0.432-0.576-0.432-0.576-0.432-1.296c0.216-0.216,0.432-0.432,0.648-0.72c2.16-0.432,2.16-0.432,4.536-0.432
		c2.664,0.72,2.664,0.72,7.488,1.224c0.216,0.144,0.432,0.288,0.72,0.504c1.08,0.144,2.16,0.288,3.312,0.432
		c0.36,0.864,0.36,0.864,0.36,2.088C220.824,100.368,220.824,100.368,218.16,100.368L218.16,100.368z M271.728,99.36
		c-0.288-0.216-0.648-0.432-1.008-0.72c-1.008-0.072-2.0161-0.144-3.096-0.216c-0.288-0.36-0.576-0.72-0.936-1.08
		c0-0.2881-0.072-0.576-0.144-0.936c1.224-0.936,2.5201-1.872,3.816-2.88c0.648,0,1.368-0.072,2.088-0.144
		c1.872,0.504,1.872,0.504,5.688,0.864c0,0.288,0.072,0.576,0.144,0.936c-0.936,1.008-1.8,1.296-5.616,4.176
		C272.376,99.36,272.088,99.36,271.728,99.36L271.728,99.36z M187.92,96.264c0-0.216-0.072-0.504-0.144-0.792
		c0.432-0.864,0.864-1.728,1.368-2.592c0.216,0,0.432,0,0.72,0c0.216,0.504,0.504,1.008,0.792,1.584c0,0.288,0,0.576-0.072,0.864
		C188.64,96.264,188.64,96.264,187.92,96.264L187.92,96.264z M264.024,95.0401c-2.376-1.872-2.376-1.872-5.04-4.536
		c-0.072-0.216-0.144-0.504-0.216-0.7921c1.224-0.288,2.5201-0.576,3.816-0.864c0.072-1.2961-0.36-2.7361-0.72-5.616
		c0.36,0.072,0.792,0.144,1.224,0.288c1.512,1.296,3.024,2.592,4.536,3.888c0.72,0.864,1.44,1.8,2.232,2.736
		c-0.072,0.432-0.144,0.936-0.216,1.44c-2.88,1.944-2.88,1.944-4.536,3.384C264.744,94.9681,264.384,94.9681,264.024,95.0401
		L264.024,95.0401z M225.36,92.6641c-0.432-0.288-0.936-0.576-1.44-0.936c0-0.36-0.072-0.72-0.144-1.08
		c4.464-1.8,4.464-1.8,9.288-4.248c0.504-0.072,1.08-0.144,1.656-0.216c0.36,0.864,0.36,0.864,0.144,1.584
		c-5.904,3.672-5.904,3.672-8.28,4.6801C226.224,92.5201,225.792,92.592,225.36,92.6641L225.36,92.6641z M246.24,89.5681
		c-1.44-0.936-2.88-1.872-4.32-2.88c-0.504-0.144-1.08-0.288-1.656-0.504c-0.6479-0.576-1.368-1.152-2.088-1.8
		c0-0.36,0-0.72,0-1.152c1.08-0.576,2.16-1.224,3.312-1.872c1.224-0.432,2.5201-0.936,3.816-1.44c2.88-0.576,5.76-1.224,8.64-1.872
		c1.008,0,2.016,0,3.096,0c0.72,1.224,1.512,2.448,2.304,3.744c0.288,0.936,0.576,1.872,0.936,2.88
		c0.072,0.792,0.144,1.584,0.216,2.376c-0.144,0.072-0.36,0.216-0.576,0.36c-1.44-0.072-2.88-0.144-4.32-0.288
		c-0.216,0.144-0.432,0.288-0.72,0.504c-1.872,0.288-3.816,0.576-5.76,0.936c-0.432,0.288-0.936,0.648-1.44,1.008
		C247.248,89.5681,246.744,89.5681,246.24,89.5681L246.24,89.5681z M311.04,89.5681c-6.696-1.44-6.696-1.44-7.632-1.944
		c-1.008,0-2.088,0-3.168,0c-0.792-0.216-1.584-0.432-2.376-0.72c-2.88,0-5.76,0-8.64,0c-1.944-2.376-1.944-2.376-3.096-3.384
		c-0.576-0.288-1.152-0.576-1.728-0.936c-0.288-0.36-0.576-0.792-0.936-1.224c-0.792-0.576-1.584-1.152-2.448-1.728
		c0-0.216,0-0.432,0-0.72c16.344-0.648,16.344-0.648,19.008-0.432c1.224,0.648,2.52,1.296,3.816,1.944
		c2.52,2.16,5.112,4.32,7.7039,6.48c0.432,0.72,0.936,1.512,1.44,2.304c-0.072,0.0721-0.144,0.216-0.216,0.36
		C312.192,89.5681,311.616,89.5681,311.04,89.5681L311.04,89.5681z M277.704,76.824c-3.096-1.944-4.32-2.376-5.544-3.384
		c-0.432-0.072-0.936-0.144-1.44-0.288c0.072-0.216,0.144-0.432,0.216-0.72c2.016-0.144,4.032-0.288,6.048-0.432
		c3.6,0.432,7.2,0.936,10.8,1.44c2.376,1.008,2.376,1.008,4.536,1.44c0.144,0.216,0.288,0.432,0.504,0.648
		c-0.072,0.072-0.144,0.216-0.216,0.36C288.72,76.3201,288.72,76.3201,277.704,76.824L277.704,76.824z M273.384,69.1201
		c-0.432-0.072-0.864-0.144-1.368-0.288c0-0.216,0-0.432,0-0.72c2.304-1.944,2.304-1.944,3.24-2.448c0.504,0,1.008,0,1.512,0
		c-0.288,1.008-0.576,2.088-0.864,3.168C275.112,68.9041,274.248,68.9761,273.384,69.1201L273.384,69.1201z M278.64,68.832
		c0.072-0.864,0.216-1.728,0.36-2.664c0.216-0.432,0.432-0.936,0.72-1.4399c0.072-0.648,0.144-1.2961,0.216-1.944
		c6.912-3.744,15.264-7.56,18.648-9.504c1.944-0.432,3.816-1.44,4.536-1.512c-0.0721,0.936-0.216,1.872-0.36,2.88
		c-0.432,1.368-0.936,2.736-1.44,4.104c0,0.792,0,1.584,0,2.376c-4.68,1.8-4.68,1.8-5.832,2.52
		c-0.864,0.144-1.728,0.288-2.664,0.432c-5.544,1.944-5.544,1.944-9.144,2.88C281.808,67.9681,281.808,67.9681,278.64,68.832
		L278.64,68.832z M303.624,60.4081c0.864-3.528,1.728-7.056,2.592-10.584c2.664-1.224,5.328-2.448,7.992-3.744
		c2.232-1.224,4.464-2.52,6.696-3.816c3.384-0.936,8.136-2.88,9.864-3.24c-1.44,4.536-2.952,9.072-4.464,13.68
		c-1.8,0.864-1.8,0.864-4.176,1.296c-3.024,1.296-6.048,2.592-9.144,3.888C308.88,58.824,306.504,59.7601,303.624,60.4081
		L303.624,60.4081z M329.328,51.6241c0-0.216-0.072-0.504-0.144-0.792c1.512-4.5359,3.024-9.072,4.536-13.68
		c2.52-1.224,5.0399-2.448,7.56-3.744c5.328-1.944,9.6479-3.888,14.688-5.76c0.432,0,0.936-0.072,1.44-0.144
		c-0.288,1.296-0.576,2.592-0.864,3.8881c-1.584,4.032-3.168,8.136-4.8239,12.24c-1.5121,0.792-10.44,3.672-12.816,4.176
		C330.048,51.6241,330.048,51.6241,329.328,51.6241L329.328,51.6241z M354.528,42.6241c0.288-1.44,1.296-3.312,5.616-15.84
		c4.68-2.016,4.68-2.016,10.44-3.96c4.104-0.936,4.536-1.224,7.704-1.656c1.224-0.432,2.52-0.936,3.816-1.44
		c0.504,0,1.08-0.072,1.656-0.144c-0.864,3.168-2.736,8.208-4.176,13.68c-0.288,0.576-0.648,1.152-1.008,1.728
		C355.68,42.48,355.68,42.48,354.528,42.6241L354.528,42.6241z M452.88,38.6641c-0.936-0.936-0.936-0.936-1.872-1.44
		c-3.168-0.936-3.168-0.936-6.264-1.44c-0.216-0.144-0.432-0.36-0.648-0.576c0-0.216,0-0.432,0-0.72
		c0.288-0.2881,0.576-0.576,0.864-0.864c2.88-0.792,5.76-1.584,8.64-2.376c1.584,0.144,3.168,0.288,4.824,0.432
		c0.4319,0.288,0.936,0.648,1.44,1.0079c0.2159,0.576,0.504,1.1521,0.7919,1.8001c-0.216,1.44-0.216,1.44-0.72,2.16
		c-1.584,0.576-3.24,1.152-4.896,1.8C454.32,38.5201,453.6,38.592,452.88,38.6641L452.88,38.6641z M381.888,33.7681
		c0.792-4.536,0.792-4.536,2.232-9.36c2.376-5.5441,2.376-5.5441,2.808-5.9041c18.432-3.816,18.432-3.816,21.816-4.176
		c-0.072,0.648-0.216,1.296-0.36,1.944c-1.44,3.384-2.88,6.84-4.32,10.2959c-0.288,0.3601-0.648,0.7921-1.008,1.2241
		c-5.112,1.296-5.832,1.728-13.536,3.672C383.76,33.4081,383.76,33.4081,381.888,33.7681L381.888,33.7681z M406.368,27.072
		c0-0.5759,0-1.1519,0.072-1.728c1.584-3.816,3.168-7.632,4.824-11.52c7.776-1.8,7.776-1.8,8.784-2.304
		c5.4-0.864,10.8-1.728,16.272-2.592c0.072,0.0719,0.144,0.216,0.288,0.36c-3.744,8.424-3.744,8.424-4.752,11.52
		c-0.144,0.144-0.36,0.288-0.576,0.5039C423,23.1841,414.72,25.128,406.368,27.072L406.368,27.072z M434.16,21.024
		c0.072-0.936,0.216-1.8719,0.36-2.8799c1.512-3.2401,3.024-6.48,4.536-9.7921c0.648-0.4319,0.648-0.4319,5.472-1.8719
		c1.728-0.2881,3.456-0.576,5.256-0.936c5.7599-0.216,9.144-0.72,13.68-0.936c2.88-0.504,2.88-0.504,5.04-0.576
		c-2.376,4.5359-4.752,9.072-7.1281,13.68c-5.112,0.2879-5.832,0.576-11.376,1.008C444.744,19.4401,439.488,20.2321,434.16,21.024
		L434.16,21.024z M507.168,18.504c-1.872-0.432-3.816-0.936-5.76-1.4399c-1.584-0.144-3.168-0.288-4.824-0.504
		c0-0.288-0.0721-0.648-0.144-1.0081c1.8719-3.8159,3.8159-7.6319,5.7599-11.5199c0.288-0.2881,0.576-0.576,0.864-0.864
		c0.7921-0.144,1.5841-0.2881,2.3761-0.504c3.6,0,3.6,0,7.4879,0.504c0.2161,0.36,0.2161,0.36-0.6479,4.68
		c-1.944,6.48-1.944,6.48-3.672,10.6559C508.176,18.504,507.672,18.504,507.168,18.504L507.168,18.504z M465.624,17.2801
		c-0.36-0.072-0.72-0.1441-1.08-0.288c0.0721-0.36,0.144-0.792,0.216-1.224c1.584-3.168,3.168-6.3361,4.824-9.576
		c0.72-0.864,1.512-1.728,2.304-2.5919C472.608,3.384,481.68,3.384,488.88,2.88c3.6721,0,7.416,0.0721,11.16,0.144
		c-1.656,4.104-1.656,4.104-3.6,7.92c-0.504,0.504-0.504,0.504-1.944,3.384c-0.144,0.648-0.288,1.296-0.4321,1.944
		C475.92,16.8481,471.384,17.2801,465.624,17.2801L465.624,17.2801z"/>
</g>
</svg>
