<?xml version="1.0" encoding="utf-8"?>
<!-- Generator: Adobe Illustrator 21.1.0, SVG Export Plug-In . SVG Version: 6.00 Build 0)  -->
<svg version="1.1" id="T" xmlns="http://www.w3.org/2000/svg" xmlns:xlink="http://www.w3.org/1999/xlink" x="0px" y="0px"
	 viewBox="0 0 483.12 123.84" enable-background="new 0 0 483.12 123.84" xml:space="preserve">
<g>
	<path fill-rule="evenodd" clip-rule="evenodd" d="M18.144,123.84c-3.6-0.216-7.2-0.4319-10.8-0.72
		c-0.36,0.144-0.72,0.2881-1.152,0.504c-2.448-0.216-2.448-0.216-2.808-0.576c0-0.288,0-0.576,0-0.936
		c0.216-0.144,0.432-0.288,0.648-0.432c3.384-0.072,6.84-0.144,10.296-0.216c0.504,0.576,0.504,0.576,1.656,0.936
		c1.728,0,3.528,0,5.328,0c2.016-0.288,4.104-0.576,6.192-0.936c1.008,0.504,1.008,0.504,2.88,0.72
		c3.816-0.432,7.632-0.936,11.52-1.44c3.888,0.216,6.48,0.72,13.464,0.936c0.072-0.072,0.144-0.216,0.216-0.36
		c-1.44-0.936-2.88-1.872-4.32-2.88c0.072-0.288,0.216-0.576,0.36-0.936c1.08-0.36,1.08-0.36,4.968-0.576
		c1.152,0.288,2.376,0.576,3.6,0.936c1.152,0.648,2.376,1.296,3.6,1.944c0.576,0,1.224,0,1.872,0c3.888-1.008,7.2-1.44,8.28-1.8
		c0-0.216,0.072-0.432,0.144-0.72c-1.728-0.36-3.456-0.792-5.184-1.224c0-0.504,0-1.08,0-1.656c0.288-0.36,0.576-0.7921,0.936-1.224
		c1.152,0,2.304-0.072,3.528-0.144c5.256,1.008,10.296,1.44,16.056,2.448c2.52,0.288,5.112,0.576,7.704,0.936
		c0.72,0.288,1.44,0.576,2.16,0.936c1.368,0.144,2.736,0.288,4.104,0.504c2.016,0.936,4.104,1.872,6.192,2.88
		c0.792,0,1.584,0,2.448,0c0.936,0.288,1.872,0.576,2.88,0.936c2.376-0.072,4.752-0.144,7.2-0.216
		c0.432-0.288,0.936-0.576,1.44-0.936c2.376-0.216,4.752-0.432,7.2-0.72c0.072-0.072,0.144-0.216,0.216-0.36
		c-0.144-0.216-0.288-0.432-0.504-0.648c-3.96-1.44-7.92-2.88-11.952-4.32c-0.144-1.008-0.144-1.008,0.216-1.44
		c0.936,0,1.944,0.504,4.104,1.008c4.176,0,8.424,0,12.672,0c0.432,0.144,0.936,0.288,1.44,0.432c0.72,0.648,1.44,1.296,2.16,1.944
		c3.384,0.504,3.384,0.504,6.048,0.504c0.216-0.288,0.216-0.288,4.536,0.144c0-0.216-0.072-0.432-0.144-0.72
		c-5.04-3.888-5.04-3.888-7.704-5.544c0-0.288,0-0.576,0-0.936c0.288-0.144,0.576-0.288,0.864-0.504
		c0.288,0.072,0.648,0.216,1.008,0.36c3.312-0.288,3.312-0.288,6.192-1.008c2.16-0.072,4.32-0.144,6.48-0.216
		c3.168,0.936,3.168,0.936,8.64,3.384c1.44,0.144,2.88,0.288,4.32,0.432c1.368,0.432,2.736,0.936,4.104,1.44
		c2.232-0.072,4.464-0.144,6.696-0.216c0.072-0.072,0.144-0.216,0.288-0.36c-0.72-0.576-0.72-0.576-3.168-1.584
		c-3.312-0.936-3.312-0.936-5.472-1.872c-0.144-0.144-0.288-0.288-0.504-0.504c0-0.792-0.072-1.656-0.144-2.52
		c1.368-0.144,1.8,0.144,6.408-0.144c6.192,1.224,6.192,1.224,10.296,1.728c2.88,0.144,5.76,0.288,8.64,0.432
		c1.656,0.504,1.656,0.504,6.48,1.008c1.44,0,2.88,0,4.32,0c0.7921-0.576,1.656-1.152,2.5201-1.8c0-0.648,0-1.296,0-1.944
		c0.576-0.36,4.68-0.576,5.616-0.864c0.288-0.36,0.288-0.36,0.144-1.296c0.432-0.288,0.864-0.576,1.2961-0.936
		c0.36,0,0.792-0.072,1.224-0.144c0.72,0.36,1.44,0.792,2.16,1.224c1.368,0,2.736,0,4.1039,0c0.0721-0.0721,0.144-0.216,0.216-0.36
		c-0.288-0.288-0.576-0.576-0.864-0.936c0.216-1.728,0.216-1.728,0.936-3.888c0.216-0.216,0.4319-0.432,0.72-0.72
		c1.944-0.072,3.888-0.216,5.904-0.36c1.008-1.08,2.088-2.232,3.168-3.384c5.76-2.376,5.76-2.376,6.192-2.88
		c3.384-0.72,3.384-0.72,5.04-0.72c2.88,1.008,2.88,1.008,3.888,1.008c0.72-0.504,0.72-0.504,1.872-2.448
		c2.664-0.432,5.04-0.432,6.984-0.936c0.216-0.576,0.432-1.152,0.72-1.8c-0.864,0-1.728,0.072-2.664,0.144
		c-1.224-0.216-2.52-0.432-3.816-0.72c-1.368,0.072-2.736,0.144-4.104,0.216c-3.312,0.9359-3.312,0.9359-5.976,1.224
		c-3.312-0.432-6.696-0.936-10.08-1.44c-4.536-1.944-4.536-1.944-10.296-3.888c-0.792,0-1.584,0-2.448,0
		c-0.576,0.432-0.576,0.432-1.44,1.728c-1.2961-0.216-2.664-0.432-4.032-0.72c-1.44-0.648-2.88-1.296-4.32-1.944
		c-0.864,0-1.728,0-2.664,0c-0.72,0.504-1.08,1.368-1.944,1.8c-0.72,0-1.44,0.072-2.16,0.144c-1.872-0.288-3.816-0.648-5.76-1.008
		c-0.792,0-1.584,0.072-2.376,0.144c-0.072,0.648-0.216,1.296-0.36,1.944c-1.296,0.792-1.296,0.792-3.456,1.296
		c-4.824-0.216-4.824-0.216-7.488-0.72c-0.432-0.504-0.432-0.504-1.656-0.936c-1.44-0.144-2.88-0.288-4.32-0.504
		c-1.152,0.072-2.376,0.144-3.6,0.216c-0.288,0.432-0.576,0.864-0.864,1.368c-0.432,0.288-0.864,0.576-1.296,0.936
		c-0.864,0.288-1.728,0.576-2.664,0.864c-1.008-0.0721-2.016-0.144-3.096-0.2881c-0.648-0.288-1.296-0.576-1.944-0.936
		c-0.36,0-0.72,0.072-1.08,0.144c-0.072,0.432-0.144,0.936-0.216,1.44c-0.432,0.36-0.864,0.792-1.368,1.224
		c-1.944-0.144-3.96-0.288-5.976-0.432c-1.296-0.72-2.664-1.44-4.032-2.16c-0.648-0.144-1.296-0.288-1.944-0.432
		c-1.08,0.072-2.232,0.144-3.384,0.216c-0.36,0.144-0.72,0.288-1.152,0.504c-0.432,0.72-0.936,1.44-1.44,2.16
		c-0.432,0-0.864-0.0721-1.368-0.144c-0.072-0.216-0.144-0.432-0.216-0.72c-1.44-0.504-2.952-1.008-4.464-1.584
		c-0.864,0-1.728,0-2.592,0c-0.648,0.288-1.296,0.648-1.944,1.008c-0.432,0.4319-0.936,0.936-1.44,1.44c-0.72,0-0.72,0-2.376-1.0081
		c-1.8-0.072-3.672-0.144-5.544-0.2159c-2.376,0.288-4.752,0.576-7.2,0.9359c-4.464,0.144-8.928,0.2881-13.464,0.504
		c-3.96-0.072-7.92-0.144-11.952-0.216c-3.168,0.576-6.408,1.224-9.648,1.872c-0.432-0.072-0.936-0.144-1.44-0.216
		c-0.288-0.216-0.576-0.432-0.936-0.72c-1.224-0.36-2.52-0.792-3.816-1.224c-1.728,0-3.528,0-5.328,0
		c-2.88,0.432-5.76,0.936-8.64,1.44c-2.16,1.008-2.16,1.008-6.912,2.448c-0.288-0.072-0.648-0.144-1.008-0.288
		c-0.216-0.432-0.432-0.864-0.72-1.296c-5.76-0.36-5.76-0.36-14.616-0.36c-0.936,0.216-0.936,0.216-8.856,0
		c-1.152-0.216-2.376-0.432-3.6-0.72c-1.656,0.072-3.312,0.144-5.04,0.216c-0.288,0.288-0.648,0.648-1.008,1.008
		c-1.296,0.432-2.664,0.936-4.032,1.44c-1.512,0-3.024,0-4.608,0c-2.664,0.864-5.4,1.728-8.136,2.592c-0.648,0-1.296,0-1.944-0.072
		c-0.072-0.144-0.144-0.288-0.216-0.504c0.216-0.288,0.432-0.576,0.72-0.864c3.6-0.936,5.76-1.872,10.08-3.096
		c1.584,0,3.168,0,4.824,0c0.504-0.144,1.08-0.288,1.656-0.504c0.504-0.432,1.08-0.936,1.656-1.44
		c0.864-0.216,1.8-0.504,2.736-0.792c-0.216-4.104-0.216-4.104,0-9.864c2.88-10.8,2.88-10.8,3.888-16.056
		c0.936-2.376,1.872-4.752,2.88-7.2c1.872-3.096,1.872-3.096,3.816-5.544c2.52-1.656,5.04-3.312,7.56-5.04
		c3.888-1.8,3.888-1.8,6.984-3.744c0.648-0.576,1.296-1.224,1.944-1.872c0.936-0.216,1.872-0.432,2.88-0.72
		c1.296-1.008,2.664-2.088,4.032-3.168c2.952-0.936,5.904-1.872,8.928-2.88c0.288-0.216,0.576-0.504,0.936-0.792
		c-0.072-0.144-0.144-0.288-0.216-0.504c0.36-0.72,0.72-1.44,1.152-2.16c-1.08,0-2.16-0.072-3.312-0.144
		c-0.216-0.144-0.432-0.288-0.72-0.432c-2.088,0-4.176,0-6.264,0c-0.72-0.72-1.44-1.512-2.16-2.304
		c0.576-1.512,1.152-3.024,1.8-4.536c0.072-1.872,0.216-3.816,0.36-5.76c-1.944,0.792-3.096,1.8-7.416,4.176
		c-1.656,1.584-3.312,3.168-5.04,4.824c-0.648,0.072-1.296,0.144-1.944,0.216c-1.44-0.936-1.44-0.936-1.944-1.656
		c-0.576-0.072-1.152-0.216-1.8-0.36c-0.072-0.288-0.216-0.576-0.36-0.864c-0.36,0-0.72,0-1.152,0
		c-0.216,0.144-0.432,0.288-0.72,0.504c-1.44,0-1.44,0-1.872-0.36c0-2.664,0.288-3.6,0.144-5.04
		c-0.504-0.072-1.08-0.144-1.656-0.216c0.072,1.08,0.216,2.16,0.36,3.312c-0.288,1.224-0.288,1.224-0.72,1.728
		c-0.504,0-1.008,0-1.584,0.072c-0.864-1.8-0.864-1.8-1.8-2.952c-1.08-0.144-1.08-0.144-2.52,0.288
		c-0.432,0.504-0.432,0.504-0.576,1.584c0.432,0.432,0.936,0.936,1.44,1.44c0,0.504,0,0.504-0.504,1.008c-0.36,0-0.72,0-1.08,0.072
		c-1.656-0.864-3.312-1.728-5.04-2.664c-1.224,0.072-2.52,0.144-3.816,0.288c-0.648,0.864-0.648,0.864-1.08,2.016
		c-0.288,0.072-0.576,0.216-0.864,0.36c-3.096-0.216-4.536-0.72-5.472-0.72c-0.216,0.288-0.432,0.576-0.72,0.936
		c-0.432-0.072-0.936-0.144-1.44-0.216c-0.432-0.432-0.936-0.936-1.44-1.44c-0.648-0.072-1.296-0.144-1.944-0.216
		c-0.72-0.504-0.72-0.504-4.104-1.296c0-0.288-0.072-0.648-0.144-1.008c0.216-0.144,0.432-0.36,0.648-0.576c1.368,0,2.736,0,4.104,0
		c2.88,0.72,2.88,0.72,7.632,2.592c0.72,0,1.512,0,2.304-0.072c0.144-0.648,0.288-1.296,0.432-1.944
		c0.216-0.072,0.432-0.216,0.648-0.36c5.04,0,5.04,0,5.76,0.216c0.216,0.36,0.216,0.36,2.376,0.72
		c1.944-2.376,1.944-2.376,2.664-2.88c2.376-0.432,2.376-0.432,4.104-0.432c0.072-2.7361,0.072-2.7361-0.144-3.744
		c0.144-0.216,0.36-0.432,0.576-0.72c0.288,0,0.648-0.072,1.008-0.144c0.36,0.144,0.72,0.288,1.152,0.504
		c0.36,0.432,0.792,0.936,1.224,1.44c0.648,0.36,1.296,0.792,1.944,1.224c0.144,0.216,0.288,0.504,0.432,0.792
		c0,0.936,0,1.944,0,2.952c0.648-0.288,1.296-0.576,1.944-0.864c0.432-0.432,0.936-0.936,1.44-1.44
		c2.664-0.72,2.664-0.72,2.88-0.576c0,0.504,0,1.08,0.072,1.656c-0.216,0.504-0.432,1.08-0.72,1.656c0,0.864,0,1.728,0,2.664
		c0.144,0.144,0.288,0.36,0.432,0.576c0.36-0.072,0.72-0.144,1.152-0.216c0.576-0.432,1.152-0.936,1.728-1.44
		c0.288-0.504,0.576-1.008,0.936-1.584c2.52-1.944,5.112-3.888,7.704-5.904c0.792-0.288,1.584-0.576,2.376-0.936
		c0.648-0.648,1.296-1.296,1.944-1.944c0.432,0,0.864,0.072,1.296,0.144c0,0.72,0,0.72-1.224,2.88
		c-0.072,1.8-0.144,3.672-0.216,5.544c-0.216,1.512-0.432,3.024-0.72,4.536c0.432,0,0.864,0.072,1.296,0.144
		c1.224-0.504,1.224-0.504,2.664-0.72c0.216,0.432,0.432,0.864,0.72,1.2961c1.44,0.576,1.44,0.576,3.6,0.864
		c0.216,0.216,0.432,0.432,0.72,0.72c0.864,0,1.728,0,2.664,0c0.072,1.296-0.432,2.736-0.72,5.184
		c2.376-0.288,4.752-0.576,7.2-0.864c1.224-0.288,2.52-0.648,3.816-1.008c1.584-0.144,3.168-0.288,4.824-0.432
		c2.52-0.648,5.04-1.296,7.632-1.944c42.48-7.704,48.744-8.64,53.064-9.576c2.376-0.0721,4.752-0.144,7.2-0.288
		c18.216-3.312,25.416-5.04,35.784-6.912c1.728-0.432,3.456-0.936,5.256-1.44c0.216-0.864,0.504-1.8,0.792-2.736
		c1.008-1.44,1.008-1.44,2.304-2.448c0.288,0,0.648-0.072,1.008-0.144C198,2.808,198,2.808,198,5.472
		c0.864,0.288,0.864,0.288,1.368,1.008c2.16-0.216,6.9839-1.656,15.624-3.6c13.392-1.872,13.392-1.872,14.112-2.16
		C236.592,0.288,237.528,0,239.472,0c1.872,0.216,3.816,0.432,5.76,0.72c2.376,1.008,2.376,1.008,2.592,1.368
		c2.52,0.648,5.112,1.296,7.704,2.016c1.656,0.936,4.3199,1.944,5.976,2.88c0.936,0.288,1.872,0.576,2.88,0.936
		c0.432,0.288,0.936,0.648,1.44,1.008c0.936,0.216,1.872,0.432,2.88,0.72c0.216-0.144,0.432-0.288,0.72-0.504
		c9.36-0.936,9.36-0.936,18.504-1.44c3.312,0,6.696,0,10.08,0c14.616-0.936,14.616-0.936,15.84-1.224
		c19.224-0.432,25.2-0.936,30.24-0.936c8.136-0.648,16.272-1.296,24.4799-1.944c13.4641-0.216,13.4641-0.216,33.624,0
		c0.72,0.288,16.056,0.72,28.512,1.728c6.264,0,6.264,0,13.464,0.432c7.128,0.936,14.256,1.872,21.384,2.88
		c5.256,1.44,10.2959,2.448,13.176,3.384c1.08,0.648,2.232,1.296,3.384,1.944c0.216,0.36,0.504,0.72,0.7919,1.08
		c0.072,0.864,0.144,1.728,0.2161,2.664c-1.1521,1.008-2.376,2.016-3.6,3.096c-0.4321,0.144-0.8641,0.36-1.296,0.576
		c-0.936,1.08-1.8719,2.232-2.8799,3.384c-1.512,0.792-3.024,1.656-4.536,2.52c-0.072,0.288-0.2161,0.576-0.36,0.936
		c-0.72,0.648-1.44,1.296-2.1601,1.944c-5.9039,3.816-8.2079,5.76-9.7199,6.552c-0.2881,0.288-0.576,0.648-0.936,1.008
		c-11.52,5.76-12.744,6.696-16.344,8.64c-0.504,0.144-1.08,0.288-1.6559,0.432c-1.4401,1.008-1.4401,1.008-3.6001,1.944
		c-1.008,0.288-2.088,0.576-3.168,0.936c-1.008,0.648-2.016,1.296-3.096,1.944c-6.048,2.376-12.096,4.752-18.216,7.2
		c-1.296,0.288-2.592,0.576-3.888,0.936c-2.16,1.008-7.92,2.88-8.136,3.168c-6.48,1.872-6.48,1.872-8.64,2.88
		c-1.944,0.288-3.96,0.576-5.976,0.936c-2.16,0.936-2.16,0.936-9.36,2.88c-1.728,0.216-2.664,0.72-8.208,1.656
		c-0.936,0.288-1.872,0.648-2.88,1.008c-5.256,0.936-5.256,0.936-12.96,2.88c-1.296,0.144-2.664,0.288-4.032,0.432
		c-1.008,0.288-2.088,0.648-3.168,1.008c-1.872,0.144-3.816,0.288-5.76,0.432c-3.6,1.008-3.6,1.008-12.96,2.88
		c-13.392,0.72-13.896,0.504-16.776,0.72c-1.368,0.288-2.7361,0.648-4.104,1.008c-2.592,0.144-5.256,0.288-7.92,0.432
		c-7.2,1.008-17.28,1.944-22.752,2.88c-0.936,0.648-1.872,1.296-2.88,1.944c-1.296,0.4319-2.592,0.9359-3.888,1.44
		c-3.816,0.216-3.816,0.216-6.192,0c-1.1519,0.864-1.1519,0.864-1.944,2.16c-2.664,0-2.664,0-5.0399,0.36c0,0.72,0,1.44,0.072,2.16
		c-0.36,0.216-0.72,0.432-1.08,0.72c-1.656-0.36-4.536-0.36-8.856-1.08c-1.008,0.288-2.016,0.576-3.096,0.936
		c-1.656,1.008-3.3839,1.44-6.408,3.312c-0.288,0.432-0.576,0.936-0.936,1.44c-0.504,0.216-1.008,0.504-1.512,0.792
		c-2.664,0.504-2.664,0.504-5.76,0.72c-0.144,0.144-0.288,0.36-0.504,0.576c0,0.504,0,1.008,0,1.512
		c1.44,0.936,1.44,0.936,3.816,1.728c0,0.36,0.072,0.72,0.144,1.152c-0.432,0.216-0.864,0.504-1.296,0.792
		c-5.04,0.216-5.04,0.216-8.64,0c-0.432,0.36-0.936,0.792-1.44,1.224c-3.168,0.432-3.168,0.432-6.048,0.432
		c-0.288,0.576-0.576,1.224-0.864,1.872c-2.736,1.872-2.736,1.872-4.176,2.448c-1.8-0.072-3.6-0.144-5.472-0.216
		c-2.88-0.36-5.76-0.792-8.64-1.224c-2.52-0.144-5.112-0.288-7.704-0.432c-1.512-0.288-3.024-0.648-4.536-1.008
		c-3.384-0.216-3.384-0.216-5.328-0.072c0.216,0.72,0.216,0.72,0.72,1.08c3.6,0.936,3.6,0.936,4.608,1.44
		c0.432,0.72,1.152,1.152,1.656,2.016c0,0.36,0,0.792,0.072,1.224c-0.576,0.504-0.576,0.504-2.736,1.08c-2.016,0-4.104,0-6.192,0
		c-2.664-0.504-5.04-1.44-9.864-2.448c-1.8-0.576-3.672-1.224-5.544-1.872c-0.72-0.72-0.72-0.72-1.44-1.008
		c-6.912,0.288-6.912,0.288-9.072,0.72c-0.216,0.144-0.504,0.288-0.792,0.432c0,0.216,0,0.432-0.072,0.72
		c0.504,0.504,1.08,1.08,1.656,1.656c1.44,0.72,2.952,1.44,4.464,2.232c0.216,0.36,0.504,0.72,0.792,1.152
		c0,1.152,0,1.152-0.288,1.512c-6.048,0.216-6.048,0.216-7.704,0.504c-6.984-1.008-6.984-1.008-8.424-1.44
		c-0.792-0.648-1.584-1.296-2.376-1.944c-2.088,0-4.176,0.072-6.264,0.144c0,0.216,0,0.432,0,0.72c2.16,0.792,2.16,0.792,3.888,1.8
		c0.288,0.288,0.576,0.576,0.936,0.936c0.072,1.08,0.072,1.08-0.216,1.44c-1.224,0.504-1.224,0.504-5.04,0.936
		c-1.728,1.008-1.728,1.008-3.384,1.44c-3.96,0-7.992,0-12.024,0c-0.504-0.2159-1.08-0.4319-1.656-0.72
		c-1.008-0.144-2.016-0.288-3.096-0.4319c-0.864-0.288-1.728-0.648-2.664-1.008c-0.72-0.432-1.44-0.936-2.16-1.44
		c-1.44-0.144-2.88-0.288-4.32-0.432c-0.792-0.288-1.584-0.648-2.376-1.008c-15.12-2.376-19.944-2.88-21.384-3.312
		c-1.152,0-2.376,0-3.6,0.072c0.216,0.36,0.216,0.36,5.544,1.8c0.432,0.504,0.432,0.504,0.576,1.584
		c-0.432,0.288-0.864,0.576-1.296,0.864c-3.96,0.792-7.992,1.584-12.024,2.376c-0.648-0.072-1.296-0.144-1.944-0.216
		c-1.512-0.7921-3.024-1.584-4.536-2.448c-0.432,0-0.936,0-1.44-0.072c0,0.288,0,0.576,0.072,0.936
		c0.36,0.216,0.72,0.432,1.152,0.72c0,0.288,0,0.648,0.072,1.008c-0.288,0.432-0.576,0.936-0.936,1.44
		c-0.432,0.144-0.864,0.36-1.296,0.576c-12.24-0.72-12.24-0.72-17.568-0.72c-1.512,0.216-3.024,0.4319-4.536,0.72
		C28.584,123.552,23.4,123.696,18.144,123.84L18.144,123.84z M54.864,89.784c-0.648-0.576-1.296-1.152-2.016-1.8
		c0-0.432,0-0.936,0-1.44c3.816-3.096,5.76-5.256,8.496-7.56c0.864-0.144,1.728-0.288,2.664-0.504
		c3.816,0.288,3.816,0.288,6.696,0.864c-0.144,0.144-0.288,0.36-0.432,0.576c-3.744,1.872-7.488,3.816-11.304,5.76
		c-0.504,0.72-0.504,0.72-0.648,1.584c0.216,0.144,0.432,0.288,0.648,0.504c0.072,0.72,0.072,0.72-0.36,1.224
		c-0.576,0.216-1.152,0.504-1.8,0.792C56.16,89.784,55.512,89.784,54.864,89.784L54.864,89.784z M30.384,88.128
		c-1.44-0.504-1.44-0.504-4.32-1.0081c-0.288-0.288-0.576-0.6479-0.864-1.008c0-0.216,0-0.432,0-0.72
		c1.368-1.368,2.736-2.736,4.104-4.104c1.8-1.368,3.6-2.808,5.4-4.248c1.224,0,2.448,0.504,5.04,1.008
		c8.208,0.432,8.208,0.432,9.36,0.72c0.072,0.072,0.144,0.216,0.288,0.36c-0.504,0.576-0.504,0.576-4.824,2.52
		c-1.008,0.288-2.016,0.576-3.096,0.936c-6.048,2.88-6.048,2.88-8.208,4.32c-0.216,0.36-0.432,0.792-0.72,1.224
		C31.824,88.128,31.104,88.128,30.384,88.128L30.384,88.128z M82.224,87.624c-0.72-0.504-0.72-0.504-2.16-0.792
		c-0.072-0.216-0.144-0.432-0.216-0.72c1.872,0,3.816-0.072,5.76-0.144c0.216,0.36,0.216,0.36-0.216,0.936
		C84.168,87.408,84.168,87.408,82.224,87.624L82.224,87.624z M87.048,86.688c-0.216-0.36-0.216-0.36,0-0.72
		c2.664-0.504,2.664-0.504,4.536-0.36c-0.144,0.144-0.288,0.36-0.432,0.576C88.992,86.688,88.992,86.688,87.048,86.688
		L87.048,86.688z M101.664,86.688c-0.216-0.2881-5.76-0.2881-8.352-0.576c0.144-0.288,0.288-0.576,0.432-0.864
		c15.408-1.008,15.408-1.008,18.72-1.008c0.432,0.072,0.936,0.144,1.44,0.288c7.92-0.72,8.64-1.008,16.56-1.44
		c3.888-0.36,7.848-0.792,11.808-1.224c3.816-0.144,7.632-0.288,11.52-0.504c0.432-0.144,0.936-0.288,1.44-0.432
		c5.04,0,10.08-0.504,12.456-0.504c1.008-0.144,2.016-0.288,3.096-0.504c4.68-0.144,9.432-0.288,14.184-0.432
		c2.16-0.504,2.16-0.504,8.136-1.008c13.68,0,13.68,0,14.4,0.288c-0.432,0.432-0.432,0.432-2.16,0.936
		c-0.432,0.432-0.936,0.936-1.44,1.44c-0.36,0-0.72,0-1.152,0c-0.216-0.144-0.432-0.288-0.72-0.504
		c-4.608-0.432-4.608-0.432-7.2-0.216c-1.944,0.504-1.944,0.504-2.304,0.864c-0.072,0.648-0.216,1.296-0.36,2.016
		c-0.936,0.216-0.936,0.216-5.76,0.216c-1.152-0.432-2.376-0.936-3.6-1.44c-1.512-0.216-3.024-0.432-4.536-0.72
		c-1.584,0-3.168,0-4.824,0c-0.432,0.288-0.864,0.576-1.368,0.864c-0.072,0.576-0.144,1.152-0.216,1.728
		c-0.432,0.288-0.864,0.576-1.296,0.936c-1.944,0.072-1.944,0.072-4.536-0.36c-0.216-0.216-0.432-0.432-0.72-0.72
		c-1.224-0.288-1.224-0.288-4.32-0.288c-0.648,0.864-1.296,1.728-1.944,2.664c-0.72,0-1.44,0-2.16,0
		c-4.824-1.944-4.824-1.944-6.48-2.88c-0.648-0.072-1.296-0.144-1.944-0.216c-1.224,0.216-2.52,0.432-3.816,0.72
		c-0.432,0.36-0.936,0.72-1.44,1.152c-1.728-0.36-3.456-0.72-5.256-1.152c-3.168,0-3.168,0-4.824,0.432
		c-0.504,0.36-1.08,0.792-1.656,1.224c-2.736-0.144-5.472-0.288-8.208-0.504c-1.584,0.288-3.168,0.648-4.752,1.008
		C112.896,86.184,107.28,86.4,101.664,86.688L101.664,86.688z M263.952,86.688c-1.44-0.2881-1.44-0.2881-1.728-0.648
		c1.008-0.144,2.088-0.36,3.168-0.576c1.152,0,2.376,0.072,3.6,0.144c-0.288,0.36-0.288,0.36-3.168,1.08
		C265.248,86.688,264.6,86.688,263.952,86.688L263.952,86.688z M236.088,84.528c-3.096-0.504-4.104-1.008-6.264-1.44
		c-0.144-0.144-0.288-0.288-0.432-0.504c-0.864-0.216-1.728-0.504-2.664-0.792c-0.144-0.216-0.288-0.432-0.504-0.72
		c-1.224-0.288-2.52-0.576-3.816-0.864c-1.224,0.072-2.52,0.144-3.816,0.216c-0.36,0.288-0.792,0.576-1.224,0.936
		c-0.648,0-1.2961,0-1.944,0c-1.944-0.792-3.96-1.584-5.976-2.448c0-0.216,0-0.432,0-0.72c1.944-0.432,7.92-0.864,9.144-1.152
		c0.936,0,1.872,0,2.88,0c1.152-0.216,2.376-0.432,3.6-0.72c3.6-0.144,7.2-0.288,10.8-0.432c1.872-0.288,3.816-0.648,5.76-1.008
		c6.696-0.432,11.736-0.432,15.336-0.936c2.664,0,2.664,0,7.416-0.504c1.008-0.432,6.048-0.936,7.488-1.44
		c4.536-0.432,5.04-0.72,26.856-2.88c0.216-0.144,0.432-0.288,0.72-0.4319c5.976-0.504,21.816-1.224,22.104-1.44
		c0.792,0,1.584,0,2.376,0c1.44-0.504,1.44-0.504,13.896-2.448c1.728-0.144,3.528-0.288,5.328-0.432
		c4.032-1.008,6.912-1.44,7.416-1.728c4.536-0.72,4.536-0.72,10.584-1.152c0.432-0.144,0.936-0.288,1.44-0.504
		c2.592,0,2.592,0,8.352-0.936c6.048-1.44,6.048-1.44,10.8-2.16c26.208-6.9839,26.208-6.9839,42.768-11.808
		c0.792-0.288,1.584-0.576,2.376-0.936c0.936-0.648,1.872-1.296,2.88-1.944c0.792-0.144,1.584-0.288,2.376-0.432
		c9.36-3.888,14.904-5.76,17.064-6.768c0.72-0.144,1.44-0.288,2.16-0.432c0.648-0.288,1.296-0.648,1.944-1.008
		c2.376-0.72,4.752-1.44,7.2-2.16c0.216,0,0.432,0.0721,0.72,0.144c-2.16,2.016-2.16,2.016-5.04,3.96
		c-7.488,3.816-14.4,7.704-18.504,9.576c-0.504,0.288-1.08,0.648-1.656,1.008c-1.08,0.288-2.232,0.576-3.384,0.936
		c-1.8,0.936-3.672,1.872-5.544,2.88c-2.88,0.936-6.696,2.88-9.576,3.816c-2.16,1.008-11.304,3.888-13.1761,4.824
		c-3.6,0.936-8.424,2.88-14.688,4.824c-1.224,0.144-2.52,0.288-3.816,0.432c-4.464,1.296-8.928,2.592-13.464,3.888
		c-5.04,0.936-8.136,1.872-27.36,5.76c-2.52,0.288-5.04,0.576-7.632,0.936c-1.008,0.504-1.008,0.504-13.968,2.88
		c-5.256,0.216-8.856,0-12.672,0.216c-1.224,0.504-1.224,0.504-6.768,1.44c-10.08,0.792-20.16,1.584-30.24,2.448
		c-4.8961,0.072-9.864,0.144-14.832,0.216c-1.368-0.144-2.736-0.288-4.104-0.504c-0.288,0.216-0.576,0.432-0.936,0.72
		c-3.168,0-3.384,0.288-15.12,1.224c-0.288,0.144-0.648,0.288-1.008,0.504C237.24,84.528,236.664,84.528,236.088,84.528
		L236.088,84.528z M74.592,84.024c-0.864-0.072-1.728-0.216-2.664-0.36c0-0.216,0-0.432,0.072-0.72c1.44-1.08,2.88-2.16,4.32-3.312
		c3.024,0,6.048-0.072,9.072-0.144c4.32,0.72,13.68,1.44,17.712,2.16c0.144,0.072,0.288,0.216,0.504,0.36
		c-0.072,0.072-0.144,0.216-0.216,0.36c-5.328,0.288-10.728,0.576-16.128,0.936c-2.736,0-5.544,0-8.352,0
		C77.472,83.808,77.472,83.808,74.592,84.024L74.592,84.024z M24.192,82.584c-0.144-2.52-0.144-2.52,0.288-7.272
		c1.944-6.768,1.944-6.768,3.888-15.12c0.864-2.0161,1.728-4.032,2.592-6.048c0.648-0.936,1.296-1.872,1.944-2.88
		c0.936-0.72,1.872-1.512,2.808-2.304c0.432-0.144,0.936-0.288,1.44-0.432c1.584-1.2961,3.168-2.592,4.752-3.888
		c0.792-0.288,1.584-0.576,2.448-0.936c4.536-2.88,4.536-2.88,5.76-3.24c-0.864,3.6-1.872,5.76-3.312,10.584
		c-0.432,2.52-0.936,5.112-1.44,7.704c0.144,0.72,0.288,1.44,0.504,2.16c0.792,0.144,1.656,0.36,2.52,0.576
		c9.648-1.224,16.344-1.728,18.72-2.16c3.168,0,3.168,0,3.384,0.216c-0.72,0.504-0.72,0.504-5.04,1.44
		c-2.16,0.288-4.32,0.576-6.48,0.936c-2.16,0.648-4.32,1.296-6.48,1.944c-3.528,1.728-7.056,3.456-10.584,5.256
		c-0.936,1.0081-3.816,2.88-8.856,6.768c-0.936,0.576-1.872,1.224-2.88,1.872c-1.728,1.584-3.456,3.168-5.256,4.824
		C24.696,82.584,24.48,82.584,24.192,82.584L24.192,82.584z M120.168,81.36c-9.36-2.376-12.24-2.88-17.28-4.32
		c-8.64-1.44-13.896-1.872-15.624-2.232c0.216-0.72,0.216-0.72,0.72-1.08c6.048-0.72,6.048-0.72,6.48-1.008
		c5.184-0.936,10.368-1.872,15.624-2.88c1.512-0.144,3.024-0.288,4.536-0.4319c1.152-0.2881,2.376-0.648,3.6-1.0081
		c11.664-1.8,23.328-3.6,35.064-5.472c8.568-0.72,17.136-1.44,25.704-2.16c1.944,0,3.96,0,5.976,0
		c3.384,0.936,3.384,0.936,10.8,2.304c0,0.216-0.072,0.432-0.144,0.72c-1.296,0.792-7.56,3.168-11.16,5.112
		c-2.592,0.9359-2.592,0.9359-4.176,1.8c0,0.288,0,0.648,0.072,1.008c0.792,0.288,0.792,0.288,18.504,0.072
		c3.6-0.504,6.264-0.504,18.504-1.656c1.656,0.216,1.656,0.216,17.784-0.2881c12.672-1.1519,12.672-1.1519,13.68-1.44
		c3.6,0,3.816-0.2159,11.952-0.4319c1.008-0.288,3.384-0.288,7.488-1.008c4.032,0,6.192-0.432,16.056-1.152
		c0.504-0.288,0.504-0.288,46.8-3.888c0.504-0.288,1.08-0.576,1.656-0.936c2.664-0.504,2.664-0.504,11.304-1.224
		c1.584-0.36,3.168-0.72,4.824-1.152c16.056-1.944,21.0959-2.88,32.832-4.32c1.08,0,2.232,0,3.3839,0
		c3.096-0.72,3.096-0.72,3.6-0.504c-0.144,0.144-0.288,0.288-0.504,0.504c-15.84,3.312-15.84,3.312-17.28,3.816
		c-7.056,0.936-14.184,1.872-21.312,2.88c-1.008,0.504-4.608,0.936-6.48,1.44c-4.104,0.504-4.104,0.504-6.048,0.504
		c-9.576,1.872-9.576,1.872-16.272,2.88c-6.768,0.288-13.608,0.576-20.448,0.936c-1.872,0.504-8.352,0.936-10.08,1.44
		c-6.048,0.6479-12.096,1.296-18.216,1.944c-2.664,0.432-5.4,0.936-8.136,1.44c-6.9839,0.432-7.7039,0.72-19.944,1.152
		c-7.7039,0.72-7.7039,0.72-8.136,1.008c-8.64,0.432-8.928,0.72-14.184,1.152c-0.936,0.288-5.76,0.504-14.9041,1.44
		c-10.296,0-10.296,0-18.936,0.504c-0.864,0.144-1.728,0.288-2.664,0.504c-4.824,0.144-9.72,0.288-14.616,0.432
		c-1.368,0.216-2.736,0.432-4.104,0.72c-4.32,0-6.912,0.288-7.2,0c-1.512,0.216-3.024,0.432-4.536,0.72
		c-18.216,1.224-18.216,1.224-27.864,2.16C124.632,81.36,122.4,81.36,120.168,81.36L120.168,81.36z M75.312,73.008
		c-0.216,0-0.432-0.072-0.72-0.144c0.072-0.432,0.144-0.936,0.216-1.44c9.576-3.744,16.056-6.624,19.224-7.56
		c0.288-0.144,0.576-0.288,0.936-0.504c0-0.288,0-0.648,0.072-1.008c-0.504,0-1.008-0.072-1.512-0.144
		c-19.944,7.632-19.944,7.632-23.04,9.072c-1.656-0.072-3.312-0.144-5.04-0.216c-1.656-0.288-3.312-0.576-5.04-0.936
		c-0.72-0.504-1.656-0.504-3.6-1.0081c-2.592-0.144-5.256-0.36-7.92-0.576c0.072-0.216,0.144-0.432,0.216-0.72
		c3.888-1.8,3.888-1.8,5.544-2.304c3.384-0.432,3.384-0.432,5.256-0.936c0.36-0.36,0.792-0.72,1.224-1.08
		c1.584-0.144,3.168-0.36,4.824-0.576c3.6-1.008,3.6-1.008,9.576-1.944c1.872-0.144,3.816-0.288,5.76-0.504
		c0.72-0.216,1.44-0.432,2.16-0.72c8.64-0.936,10.296-1.44,31.68-3.816c0.216-0.216,4.824-0.72,6.48-1.224
		c2.952-0.216,5.904-0.432,8.856-0.72c0.864-0.216,1.728-0.432,2.664-0.72c9.144-0.936,9.144-0.936,13.68-1.656
		c1.8,0,3.672,0,5.544,0c1.584-0.288,3.168-0.576,4.752-0.936c6.48-0.504,9.648-1.008,11.304-1.008
		c0.288-0.288,0.576-0.576,0.936-0.936c5.544-0.936,5.544-0.936,6.48-1.44c12.96-1.44,14.688-1.944,24.264-3.096
		c1.368-0.288,2.736-0.648,4.104-1.008c5.472-0.432,7.632-0.936,15.336-1.872c2.232-0.144,4.464-0.288,6.696-0.504
		c3.888-0.936,3.888-0.936,11.5201-1.944c1.728,0,1.728,0,12.024-1.872c4.464-1.296,8.928-2.592,13.464-3.888
		c7.2-3.816,7.2-3.816,10.08-5.76c1.728-1.944,3.456-3.888,5.256-5.832c0.0721-2.664,0.0721-2.664-0.36-4.536
		c-0.648-0.792-1.368-1.584-2.088-2.448c-0.936-0.72-1.944-1.44-2.952-2.16c0-0.36,0.072-0.72,0.144-1.08
		c1.8-0.144,3.6-0.288,5.472-0.504c0.216-0.144,0.432-0.288,0.72-0.432c4.32-0.36,8.64-0.792,12.96-1.224
		c1.872,0.144,3.816,0.288,5.76,0.504c0.504-0.288,0.504-0.288,15.408-1.44c38.376-1.44,39.312-1.728,50.112-2.16
		c1.152-0.144,2.376-0.288,3.6-0.504c8.136-0.072,16.272-0.144,24.48-0.216c9.072,0.288,18.216,0.576,27.36,0.936
		c0.72,0.144,1.44,0.288,2.16,0.504c5.472,0.144,11.016,0.288,16.56,0.432c4.464,0.288,8.928,0.648,13.464,1.008
		c5.904,0.936,11.808,1.872,17.784,2.88c2.376,0.936,2.376,0.936,5.472,1.584c-0.072,0.432-0.216,0.936-0.36,1.44
		c-1.584,0.576-3.2401,1.152-4.896,1.728c-13.68,2.88-13.68,2.88-14.904,3.384c-24.192,4.32-24.192,4.32-25.416,4.824
		c-5.04,0.432-7.2,0.936-12.456,1.44c-1.296,0.288-2.592,0.576-3.888,0.936c-2.664,0.288-5.4,0.576-8.136,0.936
		c-1.08,0.288-2.232,0.648-3.384,1.008c-5.76,0.432-8.856,0.936-14.112,1.152c-10.368,1.008-10.368,1.008-12.744,1.44
		c-4.104,0-4.104,0-9.864,0.504c-1.44,0.504-1.44,0.504-11.016,1.944c-10.296,0.936-17.28,1.872-27.864,2.592
		c-0.576,0.144-1.224,0.288-1.872,0.504c-2.808,0.144-5.616,0.288-8.424,0.504c-0.936,0.288-1.872,0.576-2.88,0.936
		c-7.416,0.504-7.416,0.504-25.416,2.664c-5.184,0.144-10.368,0.288-15.624,0.432c-2.448,0.432-4.968,0.864-7.488,1.368
		c-0.072,0.936-0.072,0.936,0.288,1.296c1.584-0.072,3.168-0.144,4.824-0.216c0.936-0.216,1.872-0.432,2.88-0.72
		c4.752-0.144,9.576-0.288,14.4-0.504c9.072-1.008,18.216-2.016,27.36-3.096c0.936-0.504,0.936-0.504,3.6-1.008
		c7.632-0.432,8.3521-0.72,13.896-0.936c6.264-0.72,6.264-0.72,8.64-1.224c1.872-0.072,3.816-0.144,5.76-0.216
		c1.944-0.504,7.7039-0.936,17.784-2.376c0.432-0.144,0.936-0.288,1.44-0.504c13.176-0.936,22.32-1.944,28.8-2.376
		c2.88-0.504,2.88-0.504,8.136-0.72c1.08-0.288,2.232-0.648,3.384-1.008c2.592-0.288,5.256-0.576,7.92-0.936
		c1.296-0.288,2.664-0.576,4.032-0.936c5.3279-0.504,7.2-1.008,11.808-1.44c19.44-3.888,19.44-3.888,25.92-4.824
		c0.864-0.288,1.728-0.576,2.592-0.936c3.6-0.504,5.04-1.008,12.7439-2.448c1.7281-0.576,3.4561-1.224,5.2561-1.872
		c0.432-0.576,0.9359-1.152,1.4399-1.728c1.0081,0,1.0081,0,3.384,1.008c0.144,0.144,0.288,0.36,0.504,0.576
		c0,0.36,0,0.792,0.072,1.224c-0.792,0.576-1.6561,1.152-2.52,1.8c-4.824,1.44-9.72,2.88-14.616,4.32
		c-11.016,1.872-19.44,3.816-24.984,4.752c-3.816,1.008-36,6.768-36.936,7.2c-1.584,0.288-3.1681,0.648-4.824,1.008
		c-13.392,0.936-16.056,1.44-36.432,3.312c-2.16,0.288-4.32,0.648-6.48,1.008c-13.68,1.152-14.4,1.44-16.848,1.44
		c-3.456,0.288-6.984,0.576-10.512,0.936c-5.76,0-5.76,0-10.8,0.504c-4.1039,0.936-4.1039,0.936-24.0479,3.816
		c-36.936,3.816-36.936,3.816-39.312,4.32c-4.032,0.288-8.136,0.576-12.24,0.936c-25.488,2.88-25.488,2.88-32.184,3.888
		c-3.312,0.216-6.696,0.432-10.08,0.72C186.408,54,186.408,54,185.184,54c-0.144,0.216-0.288,0.432-0.432,0.648
		c0.216,0.216,0.432,0.504,0.72,0.792c0.936,0.144,1.872,0.288,2.88,0.504c0.792,0.36,1.584,0.72,2.376,1.08
		c-0.216,0.36-0.216,0.36-2.16,0.864c-5.976,0.432-5.976,0.432-9.36,0.216c-1.008-0.288-2.016-0.576-3.096-0.936
		c-1.8-0.216-3.672-0.432-5.544-0.72c-0.792,0.288-1.584,0.576-2.376,0.936c-0.432,0.648-0.864,1.368-1.368,2.088
		c-0.792,0.288-0.792,0.288-17.856,2.232c-24.264,3.816-34.056,5.76-46.8,7.704c-4.104,0.936-4.104,0.936-10.08,1.584
		c0-0.216,0-0.432,0.072-0.72c2.736-1.728,5.544-3.456,8.352-5.184c0-0.36,0-0.72,0.072-1.08c-0.432,0-0.864-0.072-1.296-0.144
		c-4.464,2.52-8.928,5.112-13.464,7.704c-1.872,0.432-3.816,0.936-5.76,1.44C78.48,73.008,76.896,73.008,75.312,73.008
		L75.312,73.008z M195.048,69.624c-1.728,0-3.456,0-5.256-0.072c0-0.216,0-0.432,0.072-0.72c3.528-1.872,6.12-2.808,9.288-4.464
		c1.152,0.072,2.376,0.144,3.6,0.216c2.592,0.432,5.256,0.936,7.92,1.44c1.44,0.504,2.88,1.08,4.32,1.656
		c-0.144,0.144-0.288,0.288-0.504,0.504C210.672,68.688,198.432,69.624,195.048,69.624L195.048,69.624z M218.088,67.968
		c-0.288-0.144-0.288-0.144-1.008-1.8c-2.304-0.72-4.608-1.512-6.912-2.304c-2.088-0.432-4.248-0.864-6.408-1.296
		c0-0.216,0-0.432,0-0.72c0.216-0.144,0.432-0.288,0.648-0.504c0.648,0,1.296-0.072,1.944-0.144
		c3.888,1.152,7.776,2.376,11.7361,3.6c0.216-0.144,0.432-0.288,0.72-0.432c0.072-1.08,0.072-1.08-0.216-1.44
		c-3.384-1.08-6.768-2.16-10.224-3.24c0-0.216,0-0.432,0-0.72c0.864-0.576,1.8-1.152,2.736-1.8
		c2.448-0.504,2.448-0.504,41.328-4.3199c1.944-0.288,3.96-0.648,5.976-1.008c4.32-0.288,8.64-0.576,12.96-0.936
		c4.32-0.936,4.32-0.936,6.264-0.936c16.56-1.944,41.76-5.544,42.192-5.328c7.056-0.504,14.112-1.08,21.168-1.656
		c16.56-1.656,33.12-3.312,49.68-5.04c1.944-0.072,3.96-0.144,5.976-0.216c4.824-1.008,4.824-1.008,8.856-1.44
		c0.216-0.216,0.432-0.432,0.72-0.72c8.208-1.44,9.648-1.944,12.24-2.16c0.504-0.288,3.888-0.72,32.4-6.48
		c1.224-0.504,1.224-0.504,11.088-1.944c11.52-3.384,11.52-3.384,13.176-3.672c-0.072,0.36-0.2161,0.72-0.36,1.152
		c-6.336,3.744-6.336,3.744-13.5359,7.56c-11.088,3.816-34.3441,12.456-36.504,13.464c-7.632,1.872-15.336,3.816-23.04,5.76
		c-9.144,1.44-9.144,1.44-16.3441,2.88c-15.12,1.872-17.28,2.376-25.92,3.312c-0.936,0.288-0.936,0.288-7.2,0.72
		c-3.168,0.648-6.336,1.296-9.576,1.944c-2.376,0.144-4.752,0.288-7.2,0.504c-6.4799,1.152-6.4799,1.152-6.984,1.44
		c-14.832,1.44-14.832,1.44-36.936,2.88c-7.2,0.936-7.2,0.936-34.776,3.312c-3.888,0-3.888,0-23.04,1.44
		C228.528,67.752,223.344,67.824,218.088,67.968L218.088,67.968z M7.128,67.248c-0.432-0.144-0.936-0.288-1.44-0.504
		C5.544,66.456,5.4,66.168,5.184,65.88c-1.296,0-2.664,0-4.032-0.072c-0.216-0.288-0.432-0.576-0.72-0.864
		c1.152-1.08,1.152-1.08,5.76-3.744c1.224-0.072,2.52-0.144,3.816-0.216c2.88,0.504,2.88,0.504,4.32,0.504
		c1.224,0.72,1.224,0.72,1.944,0.72c0.432-0.288,0.936-0.648,1.44-1.008c2.88-0.936,2.88-0.936,5.472-2.376
		c0.36,0,0.72,0.072,1.08,0.144c-0.072,0.36-0.144,0.792-0.216,1.224c-1.872,1.008-3.744,2.088-5.616,3.168
		c-1.944,0.504-1.944,0.504-4.608,1.944c-0.432,0.504-0.432,0.504-0.936,0.504c-0.36-0.36-0.36-0.36-0.504-1.584
		c-0.36,0.072-0.72,0.216-1.152,0.36C8.064,66.96,8.064,66.96,7.128,67.248L7.128,67.248z M108.648,63.864
		c-0.72-0.216-0.72-0.216-1.08-0.792c0.072-0.36,0.144-0.792,0.216-1.224c0.288-0.288,0.576-0.576,0.864-0.864
		c0.504-0.072,1.08-0.144,1.656-0.216c0.216,0.144,0.432,0.288,0.72,0.432c0,0.504,0.072,1.008,0.144,1.584
		c-0.36,0.36-0.72,0.72-1.08,1.08C109.656,63.864,109.152,63.864,108.648,63.864L108.648,63.864z M198.648,61.704
		c-5.256-1.44-5.256-1.44-6.48-1.512c0.072-0.288,0.144-0.576,0.216-0.864c2.448-0.216,4.968-0.432,7.488-0.72
		c0.576,0.288,1.224,0.576,1.872,0.936c0.072,0.288,0.216,0.576,0.36,0.864c-0.648,0.432-1.296,0.864-2.016,1.296
		C199.656,61.704,199.152,61.704,198.648,61.704L198.648,61.704z M70.992,59.4c-0.072-0.072-0.144-0.2159-0.288-0.36
		c0.72-0.288,1.44-0.576,2.16-0.936c2.52-0.288,5.112-0.576,7.704-0.936c1.368-0.288,2.736-0.648,4.104-1.008
		c5.256-0.432,7.2-0.936,11.016-1.152c2.232-0.288,4.464-0.648,6.696-1.008c2.448-0.576,4.968-1.224,7.488-1.872
		c11.736-1.7281,11.736-1.7281,19.44-3.168c2.448-0.144,4.896-0.288,7.416-0.432c10.584-1.944,16.56-2.664,17.784-3.168
		c0.36,0,0.72,0,1.152,0c1.368,0.936,2.736,1.872,4.104,2.88c-0.144,0.144-0.288,0.288-0.504,0.504
		c-8.352,0.936-11.736,0.936-16.272,1.44c-1.728,0.504-27.864,3.816-29.304,4.32c-5.544,0.504-11.16,1.08-16.776,1.656
		c-13.968,1.944-13.968,1.944-15.624,2.448C75.528,59.04,74.808,59.328,70.992,59.4L70.992,59.4z M47.952,59.328
		c-0.288-0.144-0.288-0.144-0.432-2.52c0.648-2.88,1.296-5.76,1.944-8.64c0.792-2.232,1.584-4.464,2.376-6.696
		c0.648-1.008,1.296-2.088,1.944-3.168c1.152-0.936,2.304-1.872,3.456-2.88c1.944-0.864,8.712-2.736,9.648-3.24
		c4.68-0.864,9.432-1.7281,14.184-2.664c1.656-0.144,3.312-0.288,5.04-0.432c3.312-1.008,3.312-1.008,18-3.888
		c2.52-0.288,5.04-0.576,7.632-0.936c8.928-1.944,8.928-1.944,23.04-4.32c0.432,0,0.864,0.072,1.296,0.144
		c-0.216,2.376-0.216,2.376-0.72,4.32c-4.32,3.384-4.752,4.1039-6.192,5.0399c0,0.36,0,0.792,0,1.224
		c1.224,0.576,2.448,1.152,3.744,1.728c0.936,1.224,0.936,1.224,1.656,1.7281c0.072,1.584,0.072,1.584-1.08,8.064
		c0.288,0.288,0.576,0.576,0.936,0.936c0.144,0.432,0.288,0.936,0.504,1.44c0.288,0,0.576,0,0.864,0.072
		c0.432-0.288,0.936-0.576,1.44-0.936c2.376-0.648,4.752-1.296,7.2-1.944c1.656-0.936,3.816-1.44,4.536-1.872
		c1.08,0.072,2.232,0.144,3.384,0.216c0.432-0.36,0.936-0.72,1.44-1.08c0-0.432,0-0.936,0.072-1.44
		c-2.304-2.376-2.304-2.376-3.6-3.312c-0.72-0.936-1.44-1.872-2.16-2.88c-0.936-2.664-0.936-2.664-1.224-2.88
		c0-0.792,0-1.584,0-2.448c-0.576-0.36-2.232-0.36-4.176-0.72c0-0.936,0.072-1.872,0.144-2.88c-0.288-0.864-0.648-1.728-1.008-2.592
		c0-0.288,0.072-0.576,0.144-0.864c1.8-0.288,3.672-0.648,5.544-1.008c1.008,0,2.016,0,3.096,0c3.888,1.008,3.888,1.008,9.864,1.944
		c0.504,0,1.08,0,1.656,0c0.144-0.144,0.288-0.288,0.504-0.504c0.936,0,1.44,0.288,2.88,0.288c0.936-0.288,2.664-0.288,2.88,0
		c3.312-0.576,6.696-1.152,10.08-1.728c2.088-0.144,4.176-0.36,6.264-0.576c-0.144,1.44-0.144,1.44-0.648,2.448
		c0,1.584,0,3.168,0,4.752c0.36,1.296,0.792,2.592,1.224,3.888c0,5.04,0,5.04,0.216,6.192c-0.576,0.36-0.576,0.36-1.8,0.504
		c0.144-1.368,0.36-2.736,0.576-4.104c-0.144-0.144-0.288-0.288-0.432-0.432c-1.584,0-3.24-0.072-4.896-0.144
		c-1.296,0.144-2.592,0.288-3.888,0.432c-0.864,0.288-1.728,0.648-2.592,1.008c-3.888,0.4319-3.888,0.4319-8.64,1.44
		c-0.36,0-0.792-0.0721-1.224-0.144c-0.144-0.72,0.576-2.88,0.576-4.536c-0.144-0.216-0.288-0.432-0.504-0.72
		c0-0.432,0-0.936,0-1.44c0.504-0.936,0.504-0.936,0.648-1.944c-0.36,0.072-0.792,0.216-1.224,0.36
		c-0.288,0.432-0.576,0.864-0.864,1.368c-0.216,2.376-0.216,2.376,0,4.032c-0.144,0.432-0.288,0.936-0.432,1.44
		c0.144,0.648,0.288,1.296,0.432,1.944c-0.216,0.144-0.432,0.288-0.72,0.504c0,0.432,0,0.936,0,1.44
		c0.144,0.144,0.288,0.288,0.504,0.432c0.072,0.432,0.144,0.936,0.216,1.44c-0.432,0.72-0.432,0.72-0.792,2.736
		c-3.816,1.44-3.816,1.44-4.104,1.8c0.072,0.0721,0.144,0.216,0.288,0.36c-0.144,0.216-0.288,0.432-0.504,0.72
		c-0.72-0.576-0.72-0.576-1.944-0.72c-0.36,0.36-0.72,0.792-1.152,1.224c-3.888,0.936-3.888,0.936-16.56,2.88
		c-3.168,0.288-6.408,0.576-9.648,0.936c-5.616,0.936-11.304,1.872-16.992,2.88c-2.592,0.648-5.256,1.2961-7.92,1.944
		c-6.408,0.792-12.816,1.584-19.224,2.376c-1.44,0.504-1.44,0.504-19.44,3.384C54.144,59.04,54.144,59.04,47.952,59.328
		L47.952,59.328z M141.264,56.448c-0.144-0.216-0.288-0.432-0.432-0.72c-0.36-0.144-0.792-0.288-1.224-0.504
		c-0.144-0.792-0.144-0.792,0.216-1.224c3.744-0.288,7.488-0.576,11.304-0.936c0.36,0.36,0.36,0.36,0.36,1.368
		c-0.432,0.216-0.864,0.504-1.296,0.792c-1.512,0.072-3.024,0.144-4.608,0.216C141.984,56.448,141.984,56.448,141.264,56.448
		L141.264,56.448z M75.024,53.568c-0.36-0.36-0.36-0.36-0.36-1.296c7.344-3.744,11.88-5.688,15.48-7.632
		c0.36-0.288,0.792-0.576,1.224-0.936c0.072-0.216,0.144-0.504,0.216-0.792c-1.44-0.144-2.88-0.648-7.416-1.152
		c-2.16,0-2.16,0-4.536-0.432c-0.288-0.144-0.648-0.288-1.008-0.504c-2.52-0.216-5.04-0.432-7.632-0.72
		c-0.432-0.576-0.432-0.576-0.432-1.296c0.648-0.504,0.648-0.504,1.368-0.648c7.704,1.008,7.704,1.008,8.856,1.44
		c4.968,0.432,9.936,0.936,14.904,1.44c0.576,0.288,1.152,0.576,1.8,0.864c0,0.36,0,0.792,0,1.224c-2.52,1.8-2.52,1.8-11.088,6.4799
		c-0.432,0.936-0.432,0.936-1.008,1.2961c-1.08,0.144-2.232,0.288-3.384,0.504c-1.44,0.576-2.88,1.224-4.32,1.872
		C76.824,53.352,75.96,53.424,75.024,53.568L75.024,53.568z M68.112,51.12c-0.144-0.2159-0.288-0.504-0.504-0.792
		c0.36-0.36,0.792-0.72,1.224-1.08c2.592-0.936,5.256-1.872,7.92-2.88c0.216-0.216,0.432-0.432,0.72-0.648
		c-0.072-0.072-0.144-0.216-0.288-0.36c-4.32-0.432-4.32-0.432-5.976-0.936c0-0.36-0.072-0.72-0.144-1.08
		c0.072-0.072,0.216-0.216,0.36-0.36c3.744,0.216,7.488,0.432,11.304,0.72c0.432,0.144,0.936,0.288,1.44,0.504
		c0,0.288,0,0.576,0.072,0.864c-0.432,0.432-0.432,0.432-9.216,4.176C68.832,51.12,68.832,51.12,68.112,51.12L68.112,51.12z
		 M164.304,47.088c-0.936-0.144-1.872-0.288-2.88-0.504c-1.584-1.008-3.168-2.016-4.752-3.024c0.072-0.144,0.144-0.288,0.216-0.432
		c3.6-1.08,3.6-1.08,6.264-1.44c0,0.72-0.072,1.44-0.144,2.16c0.36,0.36,0.36,0.36,3.456,1.296c1.44,0,2.88,0,4.32,0
		c4.68-0.72,9.432-1.44,14.184-2.16c0.72-0.504,0.72-0.504,1.08-1.296c0-1.584,0-3.168,0.072-4.824
		c0.792-0.36,2.952-0.576,3.384-0.864c0.864,0,1.728,0.072,2.664,0.144c0,0.648-0.072,1.296-0.144,1.944
		c1.944,2.376,1.944,2.376,4.104,4.32c-0.36,0.36-0.36,0.36-11.88,2.232c-2.808,0.216-5.616,0.432-8.424,0.72
		c-0.936,0.504-3.312,0.72-4.032,1.008C167.184,46.8,166.464,47.088,164.304,47.088L164.304,47.088z M197.208,42.48
		c-0.288-0.072-0.288-0.072-0.36-2.232c-1.944-1.944-1.944-1.944-3.384-3.816c0-0.288,0.072-0.576,0.144-0.864
		c9.576-2.88,12.456-3.384,15.12-4.32c3.816-0.7921,7.632-1.584,11.5201-2.448c1.512-0.72,3.024-1.44,4.5359-2.16
		c0.936-0.144,1.872-0.288,2.88-0.432c0.144-0.144,0.288-0.288,0.504-0.504c2.088-0.648,4.176-1.296,6.264-1.944
		c0.36-0.36,0.72-0.72,1.152-1.152c4.104-1.944,4.104-1.944,5.5439-2.88c0.864-0.144,1.728-0.288,2.664-0.504
		c0.504-0.432,1.08-0.936,1.656-1.44c0.792-0.288,1.584-0.576,2.376-0.936c1.512-1.44,3.024-2.9521,4.608-4.464
		c0.216-0.504,0.504-1.08,0.792-1.656c-0.072-1.224-0.144-2.52-0.216-3.816c-1.8-0.864-1.8-0.864-2.016-1.224
		c1.44-0.144,1.44-0.144,3.816,0.36c1.944,0.936,4.824,1.872,6.4799,2.88c0.504,0.144,1.08,0.288,1.656,0.432
		c3.384,1.944,3.384,1.944,7.92,3.888c3.384,2.376,3.384,2.376,4.104,2.592c0.576,0.864,1.152,1.728,1.8,2.592
		c0,0.792,0,1.584,0,2.376c-0.72,0.864-1.44,1.728-2.16,2.664c-1.44,1.224-2.952,2.52-4.464,3.816
		c-2.376,1.368-4.752,2.736-7.2,4.176c-5.76,1.44-11.232,3.384-15.552,4.32c-17.064,2.376-17.064,2.376-18.72,2.88
		c-9.648,0.936-12.528,1.44-14.688,1.44c-1.656,0.504-10.08,1.44-14.832,2.376C198.504,42.48,197.856,42.48,197.208,42.48
		L197.208,42.48z M168.624,41.184c0-0.216,0-0.432,0-0.72c12.024-2.52,12.024-2.52,12.744-2.376c-0.72,0.576-0.72,0.576-3.384,1.512
		C174.888,40.104,171.792,40.608,168.624,41.184L168.624,41.184z M211.608,38.664c-0.288-0.432-0.576-0.936-0.936-1.44
		c-1.944-0.936-1.944-0.936-2.448-1.44c-1.152,0-2.304,0.072-3.456,0.144c0-0.432,0-0.936,0-1.44c0.576-0.36,0.576-0.36,12.096-3.24
		c0.864-0.432,1.728-0.936,2.664-1.44c0.648,0.072,1.296,0.144,1.944,0.216c6.48,2.88,6.912,3.384,10.8,4.824
		c0.288,0.36,0.288,0.36,0.288,1.296c-0.432,0.504-0.432,0.504-1.296,0.576c-0.504-0.144-1.08-0.288-1.656-0.432
		c-3.6,0.36-7.2,0.72-10.8,1.152C213.984,38.448,213.984,38.448,211.608,38.664L211.608,38.664z M239.184,34.56
		c-3.6-2.376-3.6-2.376-6.48-3.816c-0.792-0.144-1.584-0.2881-2.376-0.504c-0.36-0.576-0.36-0.576-0.36-1.296
		c0.432-0.288,0.936-0.576,1.44-0.936c1.872-0.432,3.744-0.864,5.616-1.368c1.368-0.576,2.736-1.224,4.1039-1.872
		c2.88-1.944,2.88-1.944,9.864-5.76c1.728-1.44,3.456-2.8799,5.256-4.3199c0.792-1.584,0.792-1.584,1.656-2.664
		c2.88,0.72,2.88,0.72,5.04,1.656c0.432,0.288,0.936,0.648,1.44,1.008c5.04,1.872,5.04,1.872,6.984,2.88
		c0.792,0.864,0.792,0.864,1.08,1.584c0,0.504,0,1.08,0,1.656c-1.944,2.664-1.944,2.664-3.024,3.6
		c-2.016,0.864-4.104,1.8-6.192,2.736c-7.56,2.448-15.192,4.896-22.824,7.416C240.048,34.56,239.616,34.56,239.184,34.56
		L239.184,34.56z M188.784,33.84c-0.432-0.72-1.152-1.152-1.584-2.016c-0.144-1.296-0.288-2.664-0.432-4.032
		c-0.504-1.008-0.504-1.008-1.008-3.168c0-1.584,0-3.168,0-4.752c0.648-1.296,1.296-2.592,1.944-3.888
		c0.648,0,1.368-0.072,2.088-0.144c0.288,0.144,0.576,0.288,0.936,0.504c1.008,0,2.016,0,3.096,0
		c0.144,0.144,0.288,0.288,0.504,0.504c0.936,0,1.224-0.36,1.944-0.504c0.792,1.584,0.792,1.584,1.512,2.088
		c0,0.288,0,0.576,0,0.936c-1.224,1.44-1.224,1.44-1.944,3.096c0,0.4319,0,0.9359,0,1.44c0.432,1.44,0.936,2.88,1.44,4.32
		c0.432,0.504,0.864,1.008,1.368,1.584c1.44,0.432,1.44,0.432,2.16,1.08c-0.144,0.144-0.288,0.36-0.504,0.576
		c-2.232,0.6479-4.464,1.296-6.696,1.944C192.024,33.552,190.44,33.696,188.784,33.84L188.784,33.84z M208.224,26.424
		c0-0.36-0.072-0.72-0.144-1.08c2.304-0.864,2.592-1.224,3.312-1.224c0.432,0.504,0.864,1.008,1.296,1.512
		c0,0.216-0.072,0.504-0.144,0.792C211.104,26.424,209.664,26.424,208.224,26.424L208.224,26.424z M204.624,24.264
		c-1.008-1.296-2.016-2.592-3.096-3.96c0-0.576-0.072-1.224-0.144-1.872c0.504-1.224,0.504-1.224,0.936-3.888
		c1.152-0.432,2.304-0.864,3.528-1.296c10.2961-0.72,10.2961-0.72,11.7361-1.008c1.368,0,2.736,0.072,4.176,0.144
		c0.216,2.16,0.432,4.32,0.72,6.48c-0.072,0.072-0.144,0.216-0.288,0.36c-3.312,0.432-6.696,0.936-10.08,1.44
		c-1.008,0.504-1.008,0.504-2.16,0.504c-2.16-2.16-2.16-2.16-5.04-4.3199c-0.288,0-0.648,0-1.008,0
		c-0.144,0.144-0.288,0.36-0.432,0.576c0.072,0.288,0.144,0.648,0.288,1.008c1.08,0.792,2.16,1.584,3.312,2.376
		c0.576,0.72,1.224,1.44,1.872,2.16c-0.216,0.144-0.432,0.36-0.72,0.576c-0.792,0.072-1.584,0.144-2.376,0.216
		C205.128,24.264,205.128,24.264,204.624,24.264L204.624,24.264z M223.632,22.752c0.144-0.288,0.288-0.576,0.432-0.864
		c2.448-0.504,2.448-0.504,3.888-0.504c-0.144,0.144-0.288,0.288-0.504,0.504C226.224,22.176,224.928,22.464,223.632,22.752
		L223.632,22.752z M161.424,18.72c-1.44-0.504-2.88-1.008-4.32-1.512c2.16-0.648,21.6-4.464,23.04-4.968
		c1.44-0.144,2.88-0.288,4.32-0.432c3.312-0.72,6.696-1.512,10.08-2.304c-0.36,1.224-0.36,4.104-0.72,4.68
		c-0.792,0-1.584,0.072-2.376,0.144c0-0.504,0-1.08,0.072-1.656c-0.648,0-1.296-0.072-2.016-0.144
		c-5.04,0.936-5.04,0.936-5.256,1.152c-0.648,0-1.296,0-1.944,0c-6.552,1.224-13.104,2.448-19.656,3.744
		c-0.144,0.432-0.288,0.864-0.504,1.296C161.928,18.72,161.712,18.72,161.424,18.72L161.424,18.72z M236.304,15.48
		c0.072-0.072,0.144-0.216,0.288-0.36c3.816-0.432,3.816-0.432,7.2-1.152c1.2961,0,2.664,0,4.032,0.072
		c-0.432,0.648-0.432,0.648-1.152,1.08C239.904,15.624,239.904,15.624,236.304,15.48L236.304,15.48z M232.992,12.744
		c-0.288-0.0721-0.576-0.216-0.864-0.36c0-0.288-0.072-0.576-0.144-0.936c1.728,0.36,1.728,0.36,2.16,0.792
		C233.424,12.744,233.424,12.744,232.992,12.744L232.992,12.744z M237.024,12.744c-0.072-0.0721-0.144-0.216-0.216-0.36
		c0.504-0.36,2.376-0.576,3.384-1.08c3.384-0.144,6.84-0.288,10.296-0.504c-0.72,0.504-0.72,0.504-3.384,1.008
		C244.944,11.808,238.968,12.744,237.024,12.744L237.024,12.744z M201.528,11.808c-0.936-1.008-0.936-1.008-1.944-1.44
		c-0.432,0-0.936-0.072-1.44-0.144c0.072-0.36,0.144-0.72,0.216-1.152c3.888-0.864,6.552-1.872,14.472-3.744
		c5.184-0.792,10.368-1.584,15.552-2.448c8.928-0.72,8.928-0.72,12.96-0.72c0.936,0.144,1.872,0.288,2.88,0.504
		c0.648,0.648,1.296,1.296,1.944,2.016c-0.072,0.072-0.144,0.216-0.216,0.36c-3.384-0.216-3.384-0.216-5.544-0.72
		c-4.608,0.36-9.216,0.792-13.896,1.224c-0.144,0.144-0.288,0.288-0.504,0.504c0,0.576-0.072,1.152-0.144,1.8
		c0.288,0.36,0.576,0.72,0.864,1.08c2.376,0.936,2.376,0.936,3.384,1.8c-0.288,0.36-0.288,0.36-1.944,0.792
		c-0.504-0.072-1.08-0.144-1.656-0.216c-0.216-0.288-0.4319-0.576-0.72-0.936c-0.6479-0.072-1.296-0.144-1.944-0.288
		c-2.1599-0.864-4.3199-1.728-6.4799-2.592c-2.664,0.216-4.824,0.72-7.2,0.72c-2.736,0.504-5.472,1.008-8.208,1.584
		c-0.072,1.44-0.072,1.44,0.144,1.872C201.744,11.952,201.744,11.952,201.528,11.808L201.528,11.808z"/>
</g>
</svg>
