<svg xmlns="http://www.w3.org/2000/svg" viewBox="0 0 204.71 37.13"><title>font-Benguiat</title><g id="Layer_2" data-name="Layer 2"><g id="Layer_1-2" data-name="Layer 1"><path d="M2,6.55a2.66,2.66,0,0,0-.19.85A.66.66,0,0,0,2.45,8v.11H0V8a.85.85,0,0,0,.62-.38,5.63,5.63,0,0,0,.54-1.12l1.93-5.1a2.06,2.06,0,0,0,.18-.7A.4.4,0,0,0,2.9.37V.26H5.56V.37A.42.42,0,0,0,5.22.8a1.57,1.57,0,0,0,.11.47l2.05,5.9c.18.43.25.76.73.88v.11H5.38V8A.75.75,0,0,0,6,7.21c0-1.09-1.37-2.53-3.3-2.57Zm2-5.39L2.85,4A3.32,3.32,0,0,1,5.28,5Z"/><path d="M12.84.26c.71,0,1.93,0,1.93,1S13.68,2.67,13,3c1.26.41,2.6,1.27,2.6,2.73A2.09,2.09,0,0,1,14.2,7.83a7.64,7.64,0,0,1-2.76.32h-3V8c.77-.11.77-.73.78-1.38V1.83c0-.66,0-1.36-.78-1.46V.26Zm-2.3,3.14c.79-.23,2.81-.88,2.81-1.9,0-.71-1-.7-1.51-.7-.31,0-1,0-1.18.24a1.67,1.67,0,0,0-.12.76Zm0,3.25c0,.78.07.95.94.95a3.72,3.72,0,0,0,1.91-.4,1.93,1.93,0,0,0,.84-1.6,2.77,2.77,0,0,0-1.87-2.33L10.53,4Z"/><path d="M23.29,8.28a.74.74,0,0,0-.4,0l-1.45.07a5.36,5.36,0,0,1-3.5-1.08,4.36,4.36,0,0,1-1.55-3.42A3.59,3.59,0,0,1,17.58,1a4.54,4.54,0,0,1,3-.92c.35,0,.67,0,1,.06a6.64,6.64,0,0,0,.74.07A.48.48,0,0,0,22.74,0l.55,2.27-.1,0A2.77,2.77,0,0,0,20.56.73a2.36,2.36,0,0,0-2,.8,3.38,3.38,0,0,0-.77,2.19,3.73,3.73,0,0,0,3.61,4,2.86,2.86,0,0,0,2.65-1.87l.12,0Z"/><path d="M27.62.26a4.84,4.84,0,0,1,3.36,1,4.22,4.22,0,0,1,1.49,3.18A3.74,3.74,0,0,1,31.2,7.34a4.39,4.39,0,0,1-3.13.82h-3.3V8c.77-.12.78-.73.78-1.38V1.83c0-.66,0-1.36-.78-1.46V.26Zm-.76,5.79c0,1.06,0,1.55,1.24,1.55a2.73,2.73,0,0,0,2.93-3c0-2-1.18-3.74-3.26-3.74-1,0-.9.48-.9,1.26Z"/><path d="M35.49,6.28c0,.94,0,1.32,1.24,1.32a3.73,3.73,0,0,0,3.6-2.31l.12,0-1,3a.38.38,0,0,0-.24-.14H33.4V8A.88.88,0,0,0,34,7.76a1.74,1.74,0,0,0,.22-1.09V1.83c0-.65,0-1.34-.78-1.46V.26h5.13a.87.87,0,0,0,.65-.14l.54,2.41-.1,0a3.14,3.14,0,0,0-3-1.75c-.83,0-1.1.13-1.1,1v.68h.92c.56,0,1.36.07,1.33-.72l.11,0,.47,2.69-.1,0c-.42-1.4-1.17-1.4-2.45-1.4h-.29Z"/><path d="M43,6.6c0,.68,0,1.38.79,1.46v.1H40.89V8c.77-.11.78-.73.78-1.38V1.83c0-.65,0-1.34-.78-1.46V.26h5.17c.22,0,.48,0,.64-.16l.54,2.47-.1,0a3.1,3.1,0,0,0-3-1.79C43.05.82,43,1.06,43,1.87v.64h1.28c.55,0,1,0,1-.7l.11,0,.47,2.69-.1,0c-.46-1.38-1.08-1.42-2.37-1.42H43Z"/><path d="M52.64,8.16a5,5,0,0,1-3.5-1,4.2,4.2,0,0,1-1.52-3.33c0-2.45,1.71-3.72,4-3.72.7,0,1.54.18,1.81.18A.63.63,0,0,0,54,0l.42,2.22-.12,0A2.72,2.72,0,0,0,51.75.73a2.6,2.6,0,0,0-2.7,2.9c0,2,1.29,4,3.45,4,1.22,0,1.29-.47,1.29-1.39V4.32c0-.65,0-1.34-.75-1.46V2.75h2.69v.11c-.6.12-.61.42-.61,1V7c0,.56,0,.92.61,1.06v.1Z"/><path d="M58.79,6.58c0,.68,0,1.39.78,1.46v.11H56.69V8c.77-.11.78-.73.78-1.38V1.83c0-.66,0-1.36-.78-1.46V.26h2.88V.37c-.77.08-.78.71-.78,1.38v.71h3.57V1.83c0-.7,0-1.4-.78-1.46V.26h2.88V.37c-.77.1-.77.72-.78,1.38V6.58c0,.67,0,1.37.78,1.46v.11H61.58V8c.77-.06.77-.7.78-1.38V3H58.79Z"/><path d="M67.47,6.58c0,.66,0,1.36.78,1.46v.11H65.37V8c.77-.1.78-.72.78-1.38V1.83c0-.66,0-1.36-.78-1.46V.26h2.88V.37c-.77.12-.78.73-.78,1.39Z"/><path d="M72.63,1.83c0-.74,0-1.44-.78-1.46V.26h2.88V.37C74,.5,74,1.1,74,1.75v3.9a2.16,2.16,0,0,1-.73,2,3.27,3.27,0,0,1-2.05.71A3.69,3.69,0,0,1,68.46,7l1.21-2,.11,0a3.92,3.92,0,0,0-.17,1,1.59,1.59,0,0,0,1.57,1.62c1,0,1.45-.66,1.45-1.73Z"/><path d="M76,1.83c0-.66,0-1.34-.78-1.46V.26h2.88V.37c-.77.07-.78.71-.78,1.38V3.21l1-.83C78.69,2.1,80,1.1,80,.66c0-.22-.13-.26-.32-.29V.26h2.89V.37a4,4,0,0,0-2.24,1.18l-.9.74A10.9,10.9,0,0,1,82,6.36l.23.55c.18.44.36,1.07.91,1.14v.11H80.53V8a.45.45,0,0,0,.42-.47,6.65,6.65,0,0,0-.87-2.36,12.88,12.88,0,0,0-1.62-2.16L77.31,4V6.58c0,.68,0,1.39.78,1.46v.11H75.21V8c.77-.12.78-.73.78-1.38Z"/><path d="M88.79,8.32a.55.55,0,0,0-.32-.16H83.31V8c.71-.13.78-.71.78-1.3V1.83c0-.66,0-1.36-.78-1.46V.26h2.88V.37c-.77.07-.78.71-.78,1.38V6.32a5.23,5.23,0,0,0,0,.88c.12.32.54.41.84.41a3.77,3.77,0,0,0,3.42-2.31l.11.06Z"/><path d="M91.62,1.09V6.58c0,.68,0,1.39.78,1.46v.11H90.06V8c.77-.11.78-.72.78-1.38V1.83c0-.66,0-1.36-.78-1.46V.26h3V.37c-.29.07-.24.32,0,.68l1.38,2.52,1.37-2.22c.3-.49.48-.89.08-1V.26h2.89V.37C98,.49,98,1.1,98,1.75V6.58c0,.66,0,1.34.78,1.46v.11H95.89V8c.77-.08.78-.71.78-1.38V1.09L94,5.35Z"/><path d="M105.64,1.83c0-.68,0-1.38-.8-1.46V.26h2.36V.37c-.77.11-.78.73-.78,1.38V6.58c0,.67,0,1.36.78,1.46v.11h-2.36V8c.78-.08.8-.71.8-1.38V6.18a6.49,6.49,0,0,0,0-1.08,1.55,1.55,0,0,0-.61-.72l-3.79-3.15V6.58c0,.68,0,1.39.78,1.46v.11H99.63V8c.77-.11.78-.73.78-1.38V1.83c0-.66,0-1.36-.78-1.46V.26h3.15V.37c-.4,0-.3.26.12.61l2.73,2.28Z"/><path d="M109.31,7.21a4.18,4.18,0,0,1-1.28-3,4.26,4.26,0,1,1,4.23,4.08A4.24,4.24,0,0,1,109.31,7.21Zm3.23.48c1.68,0,2.55-1.46,2.55-3,0-2.13-1.43-3.95-3.12-3.95s-2.51,1.52-2.51,3.07C109.46,5.59,110.53,7.69,112.53,7.69Z"/><path d="M118.31,1.83c0-.67,0-1.37-.78-1.46V.26h4.4c.95,0,1.89.18,1.89,1.34,0,1.67-2.93,2.57-4.2,2.91V6.58c0,.68,0,1.39.78,1.46v.11h-2.88V8c.77-.11.78-.72.78-1.38Zm1.32,2.11c.9-.29,2.85-1,2.85-2.15,0-.79-.72-1-1.73-1-.29,0-.9,0-1,.34a3,3,0,0,0-.08.82Z"/><path d="M133.21,7.3a1.64,1.64,0,0,1,.14.67,1.43,1.43,0,0,1-1.48,1.49c-.85,0-1.51-.77-2-1.38a3.4,3.4,0,0,1-1.29.23,4.31,4.31,0,0,1-3-1.08,4.18,4.18,0,0,1-1.28-3A4.08,4.08,0,0,1,128.54.11a4.13,4.13,0,0,1,4.26,4.16,3.9,3.9,0,0,1-1.93,3.41,2.06,2.06,0,0,0,1.43.76.82.82,0,0,0,.86-.8,1.18,1.18,0,0,0,0-.29Zm-6.72-.91A3.4,3.4,0,0,1,128,5.95a3.1,3.1,0,0,1,2.31,1.16,3,3,0,0,0,1-2.42c0-1.85-1.13-3.89-3.17-3.89a2.31,2.31,0,0,0-1.93,1,3.39,3.39,0,0,0-.52,2A4.52,4.52,0,0,0,126.49,6.39Zm.07.08a2.83,2.83,0,0,0,2.33,1.18,2.2,2.2,0,0,0,.56-.07,3.07,3.07,0,0,0-2.06-1.27A2.82,2.82,0,0,0,126.56,6.48Z"/><path d="M134.84,1.83c0-.66,0-1.36-.78-1.46V.26h4.64c1.29,0,1.73.41,1.73,1.22,0,1-1,1.57-1.73,2A12,12,0,0,1,140.8,7c.17.43.32.9.84,1v.11h-2.53V8c.26,0,.44-.17.44-.47a4,4,0,0,0-.65-1.68c-.44-.65-.84-1.24-1.35-1.94l-1.39.48V6.58c0,.76,0,1.36.78,1.46v.11h-2.88V8c.77-.12.78-.73.78-1.39Zm1.32,2c.85-.24,3-1,3-2.11,0-.86-.73-.95-1.44-.95-.35,0-1.16,0-1.38.26a1.51,1.51,0,0,0-.14.74Z"/><path d="M147.5,2.54l-.1,0A2.84,2.84,0,0,0,144.75.73c-.67,0-1.51.23-1.51,1,0,.58.8.76,1.24.89l1.68.5c1.56.47,2.18,1.37,2.18,2.35,0,1.9-1.28,2.84-3.25,2.84-1,0-1.75-.38-2.31-.38a.54.54,0,0,0-.41.22l-.7-3,.11,0a3.28,3.28,0,0,0,3.08,2.51c1.55,0,2.28-.61,2.28-1.66s-.95-1.32-1.76-1.57l-1.59-.49c-.94-.29-1.74-.72-1.74-1.82a2.22,2.22,0,0,1,2.46-2c.92,0,1.38.3,2.09.3A.5.5,0,0,0,147,.16Z"/><path d="M152.76,6.6c0,.73,0,1.43.78,1.45v.11h-2.88V8c.77,0,.78-.66.78-1.38V.89c-1.46,0-2.37.47-2.83,1.63l-.11,0,.59-2.37a.49.49,0,0,0,.32.16c.13,0,.28,0,.38,0h4.61c.23,0,.55,0,.71-.16l.59,2.37-.11,0c-.46-1.16-1.37-1.63-2.83-1.63Z"/><path d="M156,.26H159V.37c-.84.06-1,.29-1,1.7l-.16,3.06A2.57,2.57,0,0,0,158.2,7a2.17,2.17,0,0,0,1.63.66,2.5,2.5,0,0,0,1.87-.78A2.3,2.3,0,0,0,162,5.28l-.13-3.2c-.07-1.43-.19-1.66-1.08-1.7V.26h2.55V.37c-.64.16-.77.24-.7,1.7l.12,3.15a2.67,2.67,0,0,1-.55,2.07,3.43,3.43,0,0,1-2.54,1,4.35,4.35,0,0,1-2.34-.61,2,2,0,0,1-.82-1.83l.17-3.79c.06-1.42,0-1.58-.74-1.7Z"/><path d="M169.72,1.8c.18-.52.49-1.34-.32-1.43V.26h2.14V.37c-.6.07-.77.77-.95,1.25L168.52,7.1c-.19.5-.28.89.22.95v.11h-2.3V8c.49-.07.42-.44.2-1.07l-1.85-5.31c-.16-.46-.35-1.21-.91-1.3V.26h2.63V.37c-.8.18-.46.9-.28,1.44l1.66,5.1Z"/><path d="M180.51,1.71c.11-.52.19-1.26-.62-1.34V.26h2.34V.37c-.77.06-.9.89-1,1.5L180.07,7c-.07.36-.2.94.24,1v.11h-2.45V8c.35-.08.3-.44.23-.74l-1.12-5-1.05,4.8c-.07.35-.25.86.23.94v.11h-2.47V8c.41-.08.38-.38.3-.73l-1.28-5.75c-.11-.5-.13-1.13-.78-1.2V.26h2.59V.37c-.83.08-.58.9-.47,1.42l1.19,5.4,1.22-5.61c.11-.47.23-1.09-.52-1.2V.26h2.73V.37c-.86.06-.67.67-.56,1.18l1.25,5.64Z"/><path d="M189.52,7.14c.29.43.53.83,1.09.91v.11h-3.14V8c.74-.08.7-.61.29-1.22l-1.55-2.31-1.13,1.68c-.6.9-1.12,1.75-.16,1.86v.11h-2.45V8c.6-.1.92-.68,1.25-1.14l2.1-3-1.34-2c-.35-.52-.91-1.43-1.58-1.5V.26H186V.37c-.84.13-.47.74-.17,1.2l.8,1.2.79-1.13c.32-.47.82-1.21.08-1.27V.26h2.33V.37c-.78.07-1.2.78-1.61,1.35L187,3.38Z"/><path d="M194.88,6.58c0,.72,0,1.43.78,1.46v.11h-2.88V8c.77-.08.78-.71.78-1.38V4.51l-1.92-3C191.35,1,191,.42,190.45.37V.26h3.11V.37c-1,.06-.48,1-.11,1.61l1.12,1.79L195.67,2c.53-.88.88-1.52,0-1.58V.26H198V.37c-.64.1-1,.68-1.2,1l-1.93,3.11Z"/><path d="M203.56,8.31a.28.28,0,0,0-.23-.13,1.17,1.17,0,0,0-.29,0h-5.18L202.51.86c-.3,0-.6,0-1.3,0a2.85,2.85,0,0,0-2.77,1.9l-.11,0,.61-2.58a.38.38,0,0,0,.23.13,1,1,0,0,0,.26,0h5l-4.68,7.29c.3,0,.6,0,1.29,0a4,4,0,0,0,3.57-2.23l.11,0Z"/><path d="M5.21,22.56a1.87,1.87,0,0,1-.41-1.08,2.64,2.64,0,0,1-2.39,1.2c-1.09,0-1.9-.52-1.9-1.4,0-1.88,2.79-2.31,4.19-2.65v-.23c0-.89-.32-1.2-1.21-1.2A2.68,2.68,0,0,0,.94,18.83l.19-2c.23.18.36.2.77.06A5.55,5.55,0,0,1,4,16.52c1.52,0,2,.52,2,2v2.25c0,.72,0,1.49.85,1.66v.11Zm-.5-3.44c-.95.2-2.82.77-2.82,2a.9.9,0,0,0,1,.89c1.54,0,1.85-1.42,1.85-2.4Z"/><path d="M8.11,16.14c0-.7,0-1.39-.72-1.37v-.11l1.94-.31v2.22l.6,0h.49A3.27,3.27,0,0,1,14,19.77c0,1.78-1.12,2.78-3.45,2.78H7.39v-.11c.71-.1.72-.77.72-1.37Zm1.22,4.94c0,.64.1.88,1.06.9a2.1,2.1,0,0,0,2.27-2.29A2.54,2.54,0,0,0,10,17.1a6.8,6.8,0,0,0-.7,0Z"/><path d="M20.19,22.64a.23.23,0,0,0-.14,0h-.11l-.64,0c-.25,0-.53,0-.72,0A3.32,3.32,0,0,1,15,19.4a2.74,2.74,0,0,1,2.81-2.88c.28,0,.58,0,.85.06s.56.07.77.07a.82.82,0,0,0,.5-.13l.35,1.85-.07,0a2.16,2.16,0,0,0-2-1.31,2.15,2.15,0,0,0-1.94,2.39,2.64,2.64,0,0,0,.61,1.74,2.43,2.43,0,0,0,1.74.88,2.39,2.39,0,0,0,2.09-1.24l.08,0Z"/><path d="M27.37,14.35v6.73c0,.65,0,1.33.72,1.37v.11h-3A4.45,4.45,0,0,1,22.67,22a3,3,0,0,1-1.2-2.41c0-2.1,1.44-3.08,3.38-3.08.43,0,.86,0,1.29.07v-.47c0-.56,0-1.36-.72-1.36v-.11Zm-1.22,4.08c0-.67,0-1.33-1.15-1.33a2.27,2.27,0,0,0-2.23,2.53c0,1.64,1.24,2.42,2.75,2.42a2.77,2.77,0,0,0,.64-.08Z"/><path d="M30.26,19.86a2.6,2.6,0,0,0,2.49,2.24,2.5,2.5,0,0,0,1.45-.59,2.84,2.84,0,0,0,.64-.91l.11,0-.62,2a.24.24,0,0,0-.14-.07h-.25a5,5,0,0,0-.74.07,6,6,0,0,1-.92.07c-1,0-3.37-.78-3.37-3.08A3.05,3.05,0,0,1,32,16.52a2.81,2.81,0,0,1,2.79,2.06Zm3.18-1.43a1.72,1.72,0,0,0-1.5-1.33c-1.22,0-1.79,1.16-1.75,2.25Z"/><path d="M36.44,17.27h-.79v-.11c.7-.07.79-.43.83-1A2,2,0,0,1,37,14.64,2.58,2.58,0,0,1,38.79,14a3.72,3.72,0,0,1,1.2.22l-.4,1.26h-.08a.77.77,0,0,0-.83-.88c-1,0-1,1-1,1.79v.4h.68a.92.92,0,0,0,.74-.19l-.32.82c-.07-.16-.28-.11-.42-.11h-.67v3.81c0,.71,0,1.37.72,1.37v.11H35.72v-.11c.71-.06.72-.73.72-1.37Z"/><path d="M45.07,21.27a1,1,0,0,0,.34.9,1.31,1.31,0,0,1,.53,1c0,1.28-1.58,2-3.23,2a4.34,4.34,0,0,1-3.13-1.13l1.34-1.35.06.07a.89.89,0,0,0-.17.53c0,.79.78,1.34,1.91,1.34s1.94-.52,1.94-1.26-.65-.83-1.26-.83A4.12,4.12,0,0,1,40.85,22,3.07,3.07,0,0,1,39.6,19.4a2.55,2.55,0,0,1,2.88-2.76h3.31v.11c-.84,0-.72.73-.72,1.37Zm-1.22-3.18a1.05,1.05,0,0,0-.17-.78,1.39,1.39,0,0,0-.79-.19,2,2,0,0,0-2,2.3A2.39,2.39,0,0,0,43.18,22c.29,0,.48,0,.66,0Z"/><path d="M52.24,21.08c0,.65,0,1.32.74,1.38v.1H50.33v-.1c.68-.08.7-.77.7-1.39V18.84c0-1.16-.31-1.45-.89-1.45a2,2,0,0,0-1.44.79,2.35,2.35,0,0,0-.42,1.64v1.25c0,.64,0,1.31.71,1.39v.1H46.33v-.11c.71-.1.72-.77.72-1.38V16.14c0-.66,0-1.34-.72-1.37v-.11l1.94-.31v3.53a3.88,3.88,0,0,1,2.58-1.36c1,0,1.39.66,1.39,1.88Z"/><path d="M55.67,16.64v4.44c0,.65,0,1.33.72,1.37v.11H53.72v-.11c.71-.06.72-.74.72-1.37V18.27c0-.62,0-1.3-.72-1.37V16.8ZM54.24,15a.81.81,0,0,1,.82-.89.84.84,0,0,1,.8.85.85.85,0,0,1-.79.9A.83.83,0,0,1,54.24,15Z"/><path d="M59.28,16.64v6a2.76,2.76,0,0,1-.36,1.77A2.46,2.46,0,0,1,57,25.1a3.91,3.91,0,0,1-2.09-.6L56.1,23l.07,0a1.26,1.26,0,0,0-.16.59.92.92,0,0,0,1,.89c1,0,1.07-.86,1.07-2V18.27c0-.62,0-1.3-.72-1.37V16.8Zm-1.44-1.7a.82.82,0,0,1,.82-.89.84.84,0,0,1,.8.85.85.85,0,0,1-.78.9A.83.83,0,0,1,57.84,14.94Z"/><path d="M61.49,16.14c0-.67,0-1.34-.72-1.37v-.11l1.94-.31v4.88l1.58-1.52c.28-.26.78-.86.11-1v-.11h2.45v.11A4.34,4.34,0,0,0,64.77,18l-.3.26a12.57,12.57,0,0,1,2.36,3.44c.19.36.28.65.72.71v.11H65v-.11c.2,0,.41-.16.41-.38a6.49,6.49,0,0,0-1.83-3l-.86.77v1.27c0,.74,0,1.39.72,1.38v.11H60.77v-.11c.71-.07.72-.74.72-1.37Z"/><path d="M69.57,14.35v6.73c0,.65,0,1.33.72,1.37v.11H67.63v-.11c.71-.08.72-.76.72-1.37V16.14c0-.66,0-1.33-.72-1.37v-.11Z"/><path d="M71.69,18.27c0-.62,0-1.3-.72-1.37V16.8l1.63-.16a2.81,2.81,0,0,1,.31,1.28,4.08,4.08,0,0,1,2.58-1.4,1.35,1.35,0,0,1,1.4,1.34,4.23,4.23,0,0,1,2.59-1.34c1,0,1.37.76,1.37,1.87v2.69c0,.65,0,1.33.74,1.37v.11H79v-.11c.66-.08.67-.76.67-1.37V18.89c0-.79-.08-1.5-.94-1.5a1.9,1.9,0,0,0-1.43.85,3.17,3.17,0,0,0-.38,1.87v1c0,.65,0,1.33.76,1.37v.11H75v-.11c.67-.06.68-.74.68-1.37V18.89c0-.77-.1-1.5-.91-1.5a2,2,0,0,0-1.29.65,2.22,2.22,0,0,0-.54,1.69v1.36c0,.62,0,1.31.71,1.37v.11H71v-.11c.71-.06.72-.74.72-1.37Z"/><path d="M83,18.26c0-.62,0-1.3-.68-1.36V16.8L84,16.64a2.7,2.7,0,0,1,.3,1.26,3.75,3.75,0,0,1,2.43-1.38c1.27,0,1.54.85,1.54,2v2.54c0,.65,0,1.33.72,1.38v.11H86.29v-.11c.71-.06.72-.74.72-1.38V19c0-.92-.14-1.61-.94-1.61a2,2,0,0,0-1.45.88,2.5,2.5,0,0,0-.36,1.63v1.18c0,.62,0,1.31.71,1.39v.1H82.32v-.11c.71-.07.72-.74.72-1.37Z"/><path d="M89.79,19.64a3.09,3.09,0,0,1,3.33-3.12,2.94,2.94,0,0,1,3.23,3A3.11,3.11,0,0,1,93,22.68,3,3,0,0,1,89.79,19.64Zm1.37-.24c0,1.21.53,2.7,2,2.7,1.19,0,1.87-1.18,1.87-2.41s-.52-2.59-1.93-2.59S91.16,18.19,91.16,19.4Z"/><path d="M100.37,16.64c2.09,0,3.47,1,3.47,3s-1.52,3-3.38,2.88l-1.31,0V23.6c0,.64,0,1.33.71,1.38v.11H97.19V25c.71,0,.72-.73.72-1.37V18.12c0-.65,0-1.32-.72-1.37v-.11Zm-1.24.5v3.72c0,.8.12,1.19,1.21,1.19a2.22,2.22,0,0,0,2.19-2.45A2.37,2.37,0,0,0,100,17.15Z"/><path d="M110.54,23.6c0,.65,0,1.33.72,1.38v.11H108.6V25c.71,0,.72-.73.72-1.38V22.51a12.44,12.44,0,0,1-1.27,0,3.12,3.12,0,0,1-3.33-3.08,2.75,2.75,0,0,1,.95-2.16,3.64,3.64,0,0,1,2.46-.67h3.14v.11c-.71,0-.72.72-.72,1.37Zm-1.22-5.28c0-1-.06-1.18-1.19-1.18A2.13,2.13,0,0,0,106,19.42,2.42,2.42,0,0,0,108.45,22a5.28,5.28,0,0,0,.86,0Z"/><path d="M112.73,18.27c0-.62,0-1.3-.72-1.37V16.8l1.65-.16a3.28,3.28,0,0,1,.28,1.32,2.45,2.45,0,0,1,1.92-1.43,1.51,1.51,0,0,1,.53.06l-.26,1.2a1.35,1.35,0,0,0-.74-.25c-1.16,0-1.43,1.18-1.43,2.34v1c0,1,0,1.49.72,1.61v.11H112v-.11c.71-.07.72-.76.72-1.37Z"/><path d="M121.48,18.56h-.08a2,2,0,0,0-2.07-1.48c-.47,0-1.16.16-1.16.76,0,1.25,3.8.7,3.8,2.78,0,1.38-1.39,2-2.59,2a12.61,12.61,0,0,1-2.25-.36.37.37,0,0,0-.3.17l-.1-2.35.1,0a2.28,2.28,0,0,0,2.36,2c.67,0,1.56-.36,1.56-1.12,0-1.35-3.8-.73-3.8-2.88,0-1.18,1.27-1.58,2.24-1.58a12.26,12.26,0,0,1,1.93.28.42.42,0,0,0,.29-.1Z"/><path d="M123.15,17.27h-.79v-.11a1.45,1.45,0,0,0,1-1.5,3.53,3.53,0,0,0-.07-.61l1.08-.48v2.18h1a1,1,0,0,0,.77-.2l-.34.85a.72.72,0,0,0-.52-.13h-.87v3.5c0,.78.13,1.21.85,1.21a1.42,1.42,0,0,0,1.14-.55l.07,0-.41,1a4.94,4.94,0,0,1-1.5.23c-1.15,0-1.38-.77-1.38-1.75Z"/><path d="M131.8,22.56a3.83,3.83,0,0,1-.24-1.22A4.15,4.15,0,0,1,129,22.68c-1.13,0-1.44-.79-1.44-1.79V18.27c0-.64,0-1.32-.72-1.37V16.8l1.94-.16v3.61c0,1.06.14,1.58.88,1.58a2,2,0,0,0,1.52-.88,3.07,3.07,0,0,0,.38-1.81v-.88c0-.66,0-1.33-.72-1.37V16.8l1.94-.16V21.1c0,.58,0,1.37.74,1.34v.11Z"/><path d="M138.78,17.6c.19-.49.22-.83-.28-.85v-.11h1.76v.11c-.52,0-.68.65-.85,1.06l-1.52,3.77c-.22.53-.28.79.1.88v.11h-2v-.11c.37,0,.28-.34.13-.74l-1.45-4c-.13-.36-.25-.94-.72-.95v-.11h2.38v.11c-.59.07-.49.52-.29,1.12l1.24,3.72Z"/><path d="M147.88,17.93c.19-.65.33-1.14-.25-1.18v-.11h1.85v.11c-.61,0-.74.72-.9,1.19l-1.21,3.75c-.13.42-.23.73.13.76v.11h-1.82v-.11c.26,0,.23-.24.08-.64l-1-2.65-.95,2.72c-.1.28-.19.52.11.56v.11h-1.78v-.11c.3-.06.25-.31.12-.77l-1.16-3.9c-.12-.4-.24-1-.77-1v-.11h2.36v.11c-.5,0-.43.52-.29,1.07l1,3.83L145,16.74h.1l1.7,4.71Z"/><path d="M155.2,21.62c.22.29.49.78.89.83v.11h-2.48v-.11c.65-.08.32-.55-.08-1.16l-.9-1.35L151.76,21c-.73.92-1,1.36-.36,1.44v.11h-1.85v-.11c.43-.08.68-.46.95-.79l1.79-2.21-1-1.45c-.26-.38-.73-1.22-1.24-1.25v-.11h2.58v.11c-.68.06-.34.62,0,1.09l.46.67.54-.71c.36-.47.77-1,.1-1.06v-.11h2v.11c-.65.06-1.15.79-1.54,1.26l-.8,1Z"/><path d="M160.68,18.06c.24-.67.55-1.24-.13-1.31v-.11h1.83v.11c-.56.07-.72.62-.9,1.08l-2,5.34c-.4,1-.85,2-2.13,2a1.94,1.94,0,0,1-1.17-.43l.74-1.62.1.06c-.16.53.08,1.15.65,1.15.77,0,1.13-.85,1.13-1.5a5.44,5.44,0,0,0-.5-1.82L157,17.76c-.17-.42-.38-1-.83-1v-.11h2.41v.11c-.6.07-.38.58-.23,1l1.24,3.31Z"/><path d="M164.31,21.94a12.66,12.66,0,0,0,1.34.07,2.45,2.45,0,0,0,2.25-1.38l.1,0-.72,2a.74.74,0,0,0-.34-.11h-4.46l3.68-5.35c-.23,0-.46,0-.84,0a2.28,2.28,0,0,0-2.21,1.13l-.1,0,.4-1.82a.53.53,0,0,0,.31.17H168Z"/><path d="M7.16,33c0,2.48-1.31,4.1-3.25,4.1S.71,35.23.71,33,1.94,28.9,4,28.91C5.83,28.87,7.16,30.45,7.16,33ZM3.91,36.54c1.42,0,1.93-1.93,1.93-3.83s-.61-3.23-1.79-3.23c-1.75,0-2,2.51-2,3.79S2.36,36.54,3.91,36.54Z"/><path d="M11,31c0-.6,0-1.45-.74-1.45l-.53,0v-.11l2.64-.72V35c0,1,0,1.8,1.27,1.82V37H9.68v-.11c1.26,0,1.27-.76,1.27-1.82Z"/><path d="M21.7,37.11a.29.29,0,0,0-.23-.16,2.44,2.44,0,0,0-.3,0H15.8a22.61,22.61,0,0,0,2.9-2.64c.73-.83,1.78-2.06,1.78-3.21a1.45,1.45,0,0,0-1.66-1.52,2.09,2.09,0,0,0-1.67.78,1.83,1.83,0,0,0-.31,1.22l-.12,0-.46-2.09a6.43,6.43,0,0,1,2.63-.61c1.26,0,3,.6,3,2.11a3.38,3.38,0,0,1-1.06,2.23,33.72,33.72,0,0,1-2.7,2.53h1.51c1.56,0,2.29,0,2.75-1.08l.12,0Z"/><path d="M27.42,31.22a2.83,2.83,0,0,1,2.75,2.72c0,2-1.86,3.17-3.68,3.17a5.84,5.84,0,0,1-3-.95l1.24-1.83.07,0a1.47,1.47,0,0,0-.13.61c0,.94,1.08,1.45,1.9,1.45a2.37,2.37,0,0,0,2.42-2.21c0-1.4-1.42-2.11-2.66-2.11a6.84,6.84,0,0,0-1,.1L28,30.12H26.1c-.79,0-1.26,0-1.63.78l-.11,0,.56-2a.57.57,0,0,0,.25.13,1.89,1.89,0,0,0,.42,0h3.81l.24.41Z"/><path d="M37.6,35c-.14-.3-.26-.25-.59-.25h-.78v.68c0,.66,0,1.35.72,1.42V37H34.29v-.11c.71-.08.72-.78.72-1.42v-.68H32.08a2.41,2.41,0,0,0-.92.11c0-.61.59-1.31,1.12-2.05A6.14,6.14,0,0,0,33.57,30c0-.22-.07-.47-.32-.49l1.67-1.25a2.2,2.2,0,0,1,.07.56,3.79,3.79,0,0,1-.6,2l-1.18,1.76-.49.66a4.65,4.65,0,0,0-.54.83H35V30.65a1.88,1.88,0,0,0,1.22-1.37h.16a10.22,10.22,0,0,0-.16,2.18V34h.3c.61,0,1,0,1.34-.56l.11,0Z"/><path d="M43.94,30.57l-.11,0v-.08c0-.38-.31-.32-.62-.32H40.56a4.75,4.75,0,0,1-.19,1.36c.5-.08,1-.1,1.31-.12,1.74-.16,3.81.8,3.81,2.77s-1.88,3-3.79,3a5.46,5.46,0,0,1-2.88-.83l1.13-1.87.1.06c-.3.66,0,2,1.7,2a2.34,2.34,0,0,0,2.45-2.17c0-1.43-1.48-1.87-2.66-1.87a5.47,5.47,0,0,0-2.15.42,7.54,7.54,0,0,0,.48-4,.69.69,0,0,0,.36.13H43.8c.28,0,.38,0,.59-.14Z"/><path d="M51.87,31.11l-.12,0v-.26a1.19,1.19,0,0,0-1.28-1.28C49,29.53,48,31.07,48,32.63a3.24,3.24,0,0,1,2.33-1,2.67,2.67,0,0,1,2.83,2.69A2.86,2.86,0,0,1,50,37.11c-2.33,0-3.31-1.86-3.31-3.93,0-2.75,1.56-4.27,3.9-4.27a5.76,5.76,0,0,1,1.92.32Zm-3.32,1.8A2,2,0,0,0,48,34.35a2.08,2.08,0,0,0,2,2.18,1.93,1.93,0,0,0,1.91-2.09,2.34,2.34,0,0,0-.53-1.58,1.75,1.75,0,0,0-1.27-.58A2.19,2.19,0,0,0,48.55,32.91Z"/><path d="M59.28,29.06c.32,0,.85.06,1-.28a1.82,1.82,0,0,1,0,.37,5.77,5.77,0,0,1-1,2.81c-1,1.67-1.83,3.12-1.83,5H56c.1-2.35,1.92-4.27,2.47-4.94a5.85,5.85,0,0,0,1.15-1.88H56.21c-.83,0-1.31,0-1.67.89l-.11,0L55,28.9c.13.2.37.17.59.17Z"/><path d="M68.5,34.6c0,1.75-1.74,2.51-3.25,2.51S62,36.45,62,34.69a2.29,2.29,0,0,1,1.93-2.15,1.72,1.72,0,0,1-1.51-1.61c0-1.51,1.64-2,2.9-2s2.77.53,2.77,2a1.72,1.72,0,0,1-1.58,1.68A2.24,2.24,0,0,1,68.5,34.6Zm-4.7-1.24a2,2,0,1,0,1.4-.5A2.12,2.12,0,0,0,63.8,33.37Zm1.44-3.89c-.86,0-1.67.44-1.67,1.39s.83,1.37,1.67,1.37a1.44,1.44,0,0,0,1.61-1.39C66.85,29.9,66.1,29.48,65.24,29.48Z"/><path d="M70.82,35.23a1.28,1.28,0,0,0,1.37,1.31,2.68,2.68,0,0,0,2-1.06,3.48,3.48,0,0,0,.68-2.27,3.2,3.2,0,0,1-2.4,1,2.6,2.6,0,0,1-2.79-2.54,2.84,2.84,0,0,1,3.11-2.75c2.33,0,3.33,1.88,3.33,4A3.91,3.91,0,0,1,72,37.11a5.75,5.75,0,0,1-2-.37l.72-1.87.12,0Zm1.94-1.61a2.07,2.07,0,0,0,.07-4.14,1.93,1.93,0,0,0-1.91,2.09A1.86,1.86,0,0,0,72.77,33.62Z"/></g></g></svg>