<svg xmlns="http://www.w3.org/2000/svg" viewBox="0 0 234.83 37.68"><title>font-Brush Script</title><g id="Layer_2" data-name="Layer 2"><g id="Layer_1-2" data-name="Layer 1"><path d="M7.36,7.18a.2.2,0,0,0,.22.19c.22,0,.35-.13,1.06-.66L8.85,7c-.58.58-1.6,1.55-2.45,1.55-.43,0-.61-.34-.61-.72,0-.1-.18-.08.88-2l-2.61.08L1.6,8.36c-.29.29-.74.79-1.18.79-.18,0-.42,0-.42-.26A3.43,3.43,0,0,1,2.05,6.94l.94-1c-.77,0-1.16.07-1.16-.24A3.2,3.2,0,0,1,3.33,4.23C3.8,4.08,4.45,4,4.45,4.15s-.88.11-.88.32.11.11.17.11l.73,0L7.16,2.31C8.34,1.34,9.77.25,10.31.25c.25,0,.42.3.42.52a2.44,2.44,0,0,1-.37.88L8.88,4.25c.89,0,.35-.12,1.1,0a8.16,8.16,0,0,0-.9,1.37l-1,0ZM9.19,1.56l0,0L5.7,4.4l0,0,1.83-.13Z"/><path d="M18.15,6.12c0,.68-1.48,2.3-4.7,2.48-.86,0-2.06-.24-2.06-1.33,0-.38-.06-.44,1.33-2.28-.34,0-1.1-.06-1.1-.47s1.68-.54,2-.65c.78-.76,1.57-1.76,2.77-1.76-.08.2-.17.36-1.16,1.52,2.71-.37,3.35-1.19,3.32-1.51s-.35-.68-1.74-.59a14.5,14.5,0,0,0-3.37.84c.07,0,.17.08.17.18s-.28.25-.43.28a8.51,8.51,0,0,0-1.67.46,1.2,1.2,0,0,1-.37.08c-.2,0-.3-.12-.3-.32a3,3,0,0,1,.55-1,2.72,2.72,0,0,1,1-.95A16.67,16.67,0,0,1,17.08.18c2.06,0,2.55.82,2.55,1.46,0,1.94-3.63,2.43-5,2.71l-.24.22C15.21,4.73,18.15,5,18.15,6.12Zm-5-.22c-.16.17-.42.43-.42.68,0,.52.95.66,1.33.66,1.07,0,2.72-.79,2.72-1.27s-2.47-.8-3-.8Z"/><path d="M23.8,3.89c.08-.08.48-.47.61-.47s.18.08.12.28l0,0a5.64,5.64,0,0,0,1.92-2.48c0-.2-.13-.29-.32-.24s-1.58.11-4.27,3.25a5.77,5.77,0,0,0-1.45,3.23c0,.85.41,1.36,1.27,1.36,1.51,0,4.15-2,5.29-3,0,.61-.16.78-.61,1.21-2.34,2.25-4.33,3-5.46,3a2.12,2.12,0,0,1-2.29-2.21c0-1.76,1.48-3.66,2.71-4.82,1-1,3.54-2.89,5-2.89a1.11,1.11,0,0,1,1.22,1.14c.08,1.62-3,4.69-4.52,4.92a.57.57,0,0,1-.67-.58,1.44,1.44,0,0,1,.58-.94Z"/><path d="M32.4,1.92a9.92,9.92,0,0,0-2.58.56v0h.32c.06,0,.65,0,.65.13s-.26.2-.37.22a15.91,15.91,0,0,1-2,.47A.4.4,0,0,1,28,2.9a5.08,5.08,0,0,1,.17-.83A1.66,1.66,0,0,1,29.28.91,11.57,11.57,0,0,1,33.36.07a5.74,5.74,0,0,1,2.87.64,3.11,3.11,0,0,1,1.26,2.65c0,1.73-1.43,3.09-2.84,3.9a11.7,11.7,0,0,1-5,1.34,2.69,2.69,0,0,1-1-.13.68.68,0,0,1-.28-.64,4.06,4.06,0,0,1,1.15-2.34ZM30,6.21c-.37.49-.32.66-.25.82s.19.2.68.22a9,9,0,0,0,2.76-.52c2.52-.89,3.39-2.16,3.39-3.21,0-1.55-2.46-1.58-3.54-1.64a2,2,0,0,1-.4.89Z"/><path d="M45.28,2c-.78.26-1.48.74-1.68.78a.13.13,0,0,1-.13-.12c0-.17.6-.67.83-.85-2.84,0-4.49,1.14-4.41,1.56,0,.19,0,.54,3.81.46.12,0,.8,0,.8.26a1.47,1.47,0,0,1-.44.78,3.55,3.55,0,0,1-1.14.31c-3.07.5-4.34,1.86-4.34,2.29,0,.22.36.36,1,.38a8.32,8.32,0,0,0,2.83-.42,12.88,12.88,0,0,0,2.41-1.27,1.87,1.87,0,0,1-.7,1.92,6.84,6.84,0,0,1-4.43,1.37,6.79,6.79,0,0,1-1.64-.26,1.49,1.49,0,0,1-.84-1.36c0-.8,1.07-2.34,4.59-3.21v0c-2.72-.08-3.29-.71-3.29-1.38,0-1.18,1.74-3,5.7-3,.38,0,1.51,0,1.69.36l0,.5C46,1.76,46,1.81,45.28,2Z"/><path d="M49.76,8.58c-.41.43-1.87,1.76-2.42,1.76a.29.29,0,0,1-.29-.3,2.74,2.74,0,0,1,.73-1.2A2.3,2.3,0,0,1,49,8.08l1.4-1.49-1.79.14c-.08,0-.59,0-.61-.16a.75.75,0,0,1,.31-.83A5.66,5.66,0,0,1,50,5.18l1.83-.35a8.41,8.41,0,0,0,1.37-2.77c0-.24-.18-.23-.38-.23a3.17,3.17,0,0,0-1,.1,17.2,17.2,0,0,0-4,1.13l0,0h.62c.08,0,.23,0,.23.11s-.26.18-.36.2l-1.39.43c-.82.25-.92.11-.92-.11a5.86,5.86,0,0,1,.92-1.83A2.85,2.85,0,0,1,48.69,1,20,20,0,0,1,53.44.24c.43,0,1.24,0,1.24.64,0,.89-1.34,3.24-1.88,4l.8.13-.48.77c-.1.16-.17.31-.32.38a5.58,5.58,0,0,1-1,.23Z"/><path d="M57.81,6.68c-.6.44-1.68,1.31-2.36,1.22a1.51,1.51,0,0,1-1.34-1.68,5.09,5.09,0,0,1,1.47-3,10.31,10.31,0,0,1,6.31-3,.46.46,0,0,1,.49.2,1.54,1.54,0,0,1,.22.77c0,.31-.25.49-.49.65-1.65,1.08-1.89,1.09-2,1.09a.15.15,0,0,1-.16-.17c0-.12.24-.29.32-.35l.5-.41,0,0C57.16,3,55,6,55.16,6.57c.06.25.16.46.42.46a1.68,1.68,0,0,0,.82-.37l4.39-3.33a.43.43,0,0,1,.28-.16,1.35,1.35,0,0,1,.44.2c.13.07.3.17.3.32a1.29,1.29,0,0,1-.17.42c-.52,1-1.27,2.09-2.19,3.54l0,0L62.11,6c0,.53.06.62-1.57,1.73L58.6,9c-.49.67-2.3,2.64-3.12,2.64-.3,0-.43-.24-.44-.5,0-.8,1-1.87,2.21-2.45a15.57,15.57,0,0,0,1.92-3l0,0Z"/><path d="M67,6.67,65.71,8.13c-.14.2-.41.68-.7.68a.6.6,0,0,1-.59-.52c0-.34.85-1.16,1-1.49-.84.07-1.22-.08-1.22-.49s.35-.91.67-.91c.08,0,.18.08.28.08s.14-.08,2-.43c.46-.44,1.32-1.38,2.38-2.58.16-.17.5-.59.5-.83s-.28-.26-.42-.26a14.8,14.8,0,0,0-4.11,1.26c.08,0,.17.07.17.18s-.16.24-.3.29a8.48,8.48,0,0,0-1.64.74,1.16,1.16,0,0,1-.48.17c-.28,0-.36-.34-.36-.55a2.88,2.88,0,0,1,.41-1.32A11,11,0,0,1,66.39.79,13.27,13.27,0,0,1,69.93.18c1,0,1.29.59,1.29,1.18,0,.74-.72,1.46-1.2,2L68.67,4.77l1.85-.22,2.17-2.72c.14-.19.65-.86.9-.86s.2.14.2.28c0,.38-.08.61-1,1.72l-1.29,1.6a3.17,3.17,0,0,1,1.63.3,6.16,6.16,0,0,0-1.44,1.61,3.89,3.89,0,0,0-1.22-.08c-.18.31-.62.88-.62,1.24a4,4,0,0,0,.13.72c-.38-.08-1,.5-1.31.4s-.28-.24-.22-.6a6.28,6.28,0,0,1,.7-1.75Z"/><path d="M75.42,3.95a3,3,0,0,1,.46-.07A.12.12,0,0,1,76,4c0,.18-.24.31-.36.41s-.78.62-1,.62-1.12-.55-1.08-.89c.17-1.83,3.08-4,4.93-4A1.18,1.18,0,0,1,79.65,1.5c0,1.55-2,4.64-2.9,6,.2.5-.49,1.35-.86,1.38a.69.69,0,0,1-.68-.56.87.87,0,0,1,.2-.47c2.09-3,3.19-5.19,3.19-5.8,0-.19-.08-.49-.32-.49A6.14,6.14,0,0,0,75.12,4Z"/><path d="M80.53,10.16c-.3.35-1.16,1.3-1.63,1.3a.54.54,0,0,1-.47-.56c0-.84.88-2.06,3.67-3.71l1.71-2.88a8.16,8.16,0,0,0,1.13-3.09A6,6,0,0,0,81.3,5.54a5.6,5.6,0,0,1,.82-.48.1.1,0,0,1,.11.1c0,.14-.48.61-.59.73-.3.34-.85,1-1.34,1s-.47-.56-.47-.9a6.7,6.7,0,0,1,.84-2.67A5.91,5.91,0,0,1,85.14.16,1,1,0,0,1,86,.92c0,.77-.32,2-2.48,5.61l0,0,1.39-.61.16.38L83,7.34Z"/><path d="M89,5.48a.79.79,0,0,1-.2-.5c0-.48.38-.74.75-.94l1.27-.66,1.16-1.82a18.44,18.44,0,0,0-4.68,1.82,1.72,1.72,0,0,1-.68.23.34.34,0,0,1-.37-.36,5.61,5.61,0,0,1,.3-1.13c.16-.47.26-.49.66-.79l.66-.49A.77.77,0,0,1,88.2.66a.12.12,0,0,1,.12.13c0,.1,0,.07-.55.58l0,0A14,14,0,0,1,92,.19c.31,0,.37.06.56.29a1.35,1.35,0,0,1,.35.67,1.35,1.35,0,0,1-.3.64L92,2.67l0,0L95.88.89A3.57,3.57,0,0,1,96.6.61a.21.21,0,0,1,.23.23c0,.16-.73,1.44-1.55,1.21l-4.4,2.19a.52.52,0,0,0-.28.44c0,.25.37.4.55.5l3,1.76c.54.31,1.1.68,1.1,1.37,0,.18,0,.59-.3.59a1.91,1.91,0,0,1-.6-.26L89.66,6l-1,1.15c0,.58-1,1.39-1.46,1.39a.29.29,0,0,1-.32-.26.87.87,0,0,1,.25-.54Z"/><path d="M96.08,8.24a3.21,3.21,0,0,1-.95.29c-.17,0-.37,0-.37-.25s.56-.95.74-1.19.19-.29.37-.34c.5-.12,1-.13,1.55-.23l3.49-4.15c.43-.52,2.19-2.3,2.83-2.3.41,0,.6.43.6.78,0,.77-1,2.17-1.37,2.85.1,0,.22,0,.22.17s-.5.58-.67.7-.82.62-1,.62-.28-.18-.28-.36c0-.9,1-2.21,1.61-2.85.1-.11.11-.23,0-.23s-.67.48-2,2L98.43,6.5c2,.38,3,.59,4.82,1l-.64.64c-.77.77-.72.79-3.07.3a13.09,13.09,0,0,0-3.2-.34Z"/><path d="M110.26,5.53a17.81,17.81,0,0,0,1.94-2.93c.2-.38.16-.52,0-.52s-.29.16-.37.25L109,5.46l-1.8,2.42c-.2.28-.5.73-.89.73s-.74-.95-.88-1.32l2.51-3.17c1.26-2.25,1-2.49.84-2.49a1.19,1.19,0,0,0-.37.14c-3.69,1.73-3.12,1.75-3.73,1.75-.19,0-.35-.16-.29-.44a7,7,0,0,1,.31-1.42c.11-.14,0-.12,1.1-.88a.74.74,0,0,1,.3-.17c.06,0,.14,0,.14.12s-.17.29-.64.7l0,0L107,.84A10.86,10.86,0,0,1,109.24,0c.29,0,.34.18.46.38l.29.5a.89.89,0,0,1,.14.46,15.17,15.17,0,0,1-.74,2.09l0,0,1.91-1.85c.44-.42,1.46-1.32,2-1.33a.86.86,0,0,1,.88.83c0,.89-1.29,2.66-1.79,3.42l0,0c1.47-1.27,2.85-2.58,4.42-3.83.16-.13.4-.38.61-.38s.83.78.83,1-.37.66-.52.84l-1.86,2.27A5.28,5.28,0,0,0,114.5,7.2c0,.24.13.59.42.59s1.27-.54,2.89-2.11l0,.46C117.57,7,115,9,114,9c-.79,0-1.05-.76-1.05-1.45,0-1.44,1.52-3.24,2.36-4.33l0,0a24.87,24.87,0,0,0-4.58,4.65c-.18.23-.76.91-1.06.91-.47,0-.64-.86-.64-1.21a1.84,1.84,0,0,1,.48-.95Z"/><path d="M126.19,2.42l0,0c-1,1-2,1.93-2.85,2.89-.35.4-1.62,2.12-2.25,3-.08.12-.23.34-.38.34s-.95-.48-.95-.76a.75.75,0,0,1,.12-.26c.49-.76,2.79-4.77,2.79-5.43,0-.16,0-.25-.19-.25a12.29,12.29,0,0,0-3.74,2,.74.74,0,0,1-.36.16c-.23,0-.22-.38-.22-.53,0-1.44,2.08-3,2.44-3,.06,0,.13,0,.13.1s-.06.2-.65.77l0,0A8.85,8.85,0,0,1,123.4.1c.41,0,.8.23.77.67-.07,1-.54,1.75-2.09,4.47l0,0a30.61,30.61,0,0,1,3.62-4,6.55,6.55,0,0,1,1.54-.92,1.49,1.49,0,0,1,1,1.14c0,.76-1.54,2.3-2.69,4.58a2.83,2.83,0,0,0-.37,1c0,.22,0,.49.31.49.48,0,2.05-1.62,2.4-2.05,0,.29,0,.43,0,.54s0,.16-.13.28c-1.73,2.23-3,2.88-3.5,2.88s-.82-.53-.82-1a4.58,4.58,0,0,1,.65-2Z"/><path d="M134.23,1.88a1.21,1.21,0,0,1,1.08.11,1.2,1.2,0,0,1,.37.95c.06,2.39-2.79,5.61-5.54,5.59-.95,0-2-.59-2.13-2.45-.14-2.59,3.85-5.53,6.16-5.85.56-.08,1.16.77,1.16,1s-.41.36-.59.42a3.54,3.54,0,0,0-.53.26Zm-3.51,2.71c-.16,0-.16-.23-.17-.34a4,4,0,0,0-1.33,2.61c0,.42.18.78.64.78a4.26,4.26,0,0,0,2.22-.94c1.61-1.37,2.52-2.83,2.55-3.71a.52.52,0,0,0-.47-.59,4.54,4.54,0,0,0-3.07,1.85C131,4.37,130.86,4.59,130.71,4.59Z"/><path d="M137.3,7.29c.11,0,.23.08.23.22a3.37,3.37,0,0,1-.61,1c-.16.22-.41.56-.71.56s-.41-.17-.41-.43a8.42,8.42,0,0,1,1.14-2.34.91.91,0,0,1-.54-.77c0-.7,1.42-1,1.92-1.18l1.91-2.52a18,18,0,0,0-4.13.8c-.07,0-.19,0-.19-.12A5.62,5.62,0,0,1,136.8,1a1.56,1.56,0,0,1,.91-.49,11.74,11.74,0,0,1,3.23-.42c3,0,3.8,1,3.8,2.45,0,2.55-3.11,4.35-6.94,3.92Zm2.1-3.12c.44,0,.94-.17.94.06s-1,.3-1.21.43l-.26.4a3.75,3.75,0,0,0,1.24.12c2.35-.13,3.9-1.85,3.77-2.6s-2.39-.88-2.94-.88a1.14,1.14,0,0,1-.26.73Z"/><path d="M145.69,8.18a2.29,2.29,0,0,1-1,.52c-.18,0-.29-.06-.29-.26a2.46,2.46,0,0,1,.78-1.71c.28-.19.66-.11,1.2-.11,3.8-2,5.5-4.11,5.5-4.79,0-.23-.32-.26-.5-.26a10.5,10.5,0,0,0-4.14,1.7v0c.9,0,1.15-.12,1.15.18,0,.14-.13.18-.24.2a7,7,0,0,0-1.89.67c-.46.18-.55.13-.55-.86,0-.48-.06-.76.11-1,.63-.84,4.08-2.29,5.64-2.29a1.46,1.46,0,0,1,1.49,1.51c0,1.91-3.66,4.09-5.11,5a20.54,20.54,0,0,0,3.33.54,8.2,8.2,0,0,0,1.07-.16,7,7,0,0,1-.66,1.51c-.18.32-.72.34-1.86.16Z"/><path d="M155.11,6.68l-1,1.5c.14.42-.56.86-.89.86a.26.26,0,0,1-.28-.25,1.05,1.05,0,0,1,.2-.59l1.12-1.83c-.19,0-.62-.2-.58-.44.11-.62.73-1.2,1.85-1.24l1.78-2.57a12.43,12.43,0,0,0-2.58.62v0c.76.07,1,0,1,.2s-.17.13-.23.13l-.94.1c-.34,0-.77.12-1.12.12-.18,0-.43-.06-.43-.29a3.31,3.31,0,0,1,.61-1.45c.56-.67,3.15-1.31,5.58-1.31,1.1,0,3.44.11,3.44,1.64a2.88,2.88,0,0,1-.86,1.92c-1,.79-1.58.78-5.9,1.58v0l3.24,1c2.06.66,2,1,2.08,1.07.23.42.28,1.32-.13,1.32a7.66,7.66,0,0,1-1.49-.54Zm1.55-2.27,3-.78c.49-.13,2.1-.82,2.1-1.4,0-.37-1.29-.38-1.56-.36L158,2a1.75,1.75,0,0,1-.42,1Z"/><path d="M168.15,4.37c1.21.29,1.78.92,1.78,1.51,0,2.39-4.19,2.77-5.91,2.77-.47,0-1.93,0-1.93-.7a2.53,2.53,0,0,1,.61-1.07,3.17,3.17,0,0,1,1-.35c.06,0,.1,0,.1.08s-.12.18-.2.23a1.37,1.37,0,0,0-.2.18v0c4.28.16,5.46-1.08,5.46-1.27,0-.61-3.32-1.09-3.9-1.19s-1.22-.29-1.22-1a4.44,4.44,0,0,1,.38-1.6c.37-.61,2.54-1.75,5.17-1.75a7.19,7.19,0,0,1,1.51.17c.28.06.31.16.31.4,0,.89-.3,1.09-1,1.37a3.4,3.4,0,0,0-1.08.59.72.72,0,0,1-.3.12.17.17,0,0,1-.19-.18,2.69,2.69,0,0,1,.88-.84l0,0c-3.09.11-4.43,1.22-4.44,1.5S164.81,3.59,168.15,4.37Z"/><path d="M171.79,3.35c-.28,0-.54,0-.54-.32a4.89,4.89,0,0,1,.11-.7c.14-.78.12-1,.9-1.37a11,11,0,0,1,4.49-.79,8.35,8.35,0,0,1,1.81.16c.74.17.68.54,1,1.37.11.29-.28.73-.44,1L176.29,7l0,0c.12,0,.28,0,.28.17s-.36.67-.5.85-.7,1-1.07,1-.65-.17-.65-.5c0-1.19,2.21-4,3-5L178.55,2a21.65,21.65,0,0,0-6.07.92v0c.17,0,1,.12,1,.36s-.48,0-1,.06Z"/><path d="M186.65,4.32l0,0c-3.11,3-4.69,4.29-5.08,4.22a1.2,1.2,0,0,1-1.13-1.24c0-.77,1-1.92,1.51-2.49a23.07,23.07,0,0,0,2.23-2.63A.11.11,0,0,0,184,2a1.72,1.72,0,0,0-.35.13c-1,.41-.73.29-2.9,1.35a3.45,3.45,0,0,1-1.22.38c-.2,0-.35,0-.31-.25a4,4,0,0,1,3.35-3,22.55,22.55,0,0,1,2.58-.49c.71,0,.84.86.67,1.42A4.63,4.63,0,0,1,184.9,3c-.42.44-2.76,3.15-2.76,3.56,0,.14.1.22.24.22.49,0,2.75-2,3.19-2.48C188.27,1.63,189,.8,189.33.8s.49.5.49.77-.23.6-2.28,3.48a4.72,4.72,0,0,0-1.08,2.12.46.46,0,0,0,.46.48c.62,0,1.92-1.15,2.41-1.55a2.41,2.41,0,0,1,.06.4A6.41,6.41,0,0,1,186,8.71a.9.9,0,0,1-.95-.95A3.37,3.37,0,0,1,185.67,6Z"/><path d="M192.1,3.75c.1,0,.48-.06.48.12s-.43.22-.53.24a15.12,15.12,0,0,0-2,.7c-.23,0-.26-.49-.26-.64a2.08,2.08,0,0,1,.61-1.54A17.59,17.59,0,0,1,195.5.18c.43,0,.8.77.8.94a2.61,2.61,0,0,1-.46.91c-2.15,3.42-2.55,4.49-2.58,4.83s0,.78.31.7.89-.41,3.39-4.38c-.13-.76,1-2.19,1.36-2.06.53.18.29,1.67-2.77,5.67-.38.5-1.5,2.09-2.15,2.09a1.75,1.75,0,0,1-1.36-1.65c0-.48.2-1.51,2.48-5.28l0,0a13.35,13.35,0,0,0-3.11,1.85l0,0Z"/><path d="M202.89,6.73c-1.26,1.36-2,1.94-2.51,1.94s-1.12-1-1-1.45-.23-.41,3.5-4.5c.13-.16.37-.37.37-.59s-.22-.3-.42-.3a12.81,12.81,0,0,0-3.54,1.35,1.75,1.75,0,0,1-.8.29c-.13,0-.56-.17.06-1.56a1.85,1.85,0,0,1,.72-.77l.83-.65a.43.43,0,0,1,.26-.13s.14,0,0,.24L200,1l0,0a9.49,9.49,0,0,1,3.06-.78,1.09,1.09,0,0,1,1,.32,2.7,2.7,0,0,1,.37,1.21c0,.4-.08,1-3.32,4.73-.26.31-.12.41,0,.44s2.17-1.69,5-4.94c.26-.29.76-1.12,1.37-1.12.34,0,.53.59.53.78a2.39,2.39,0,0,1-.41.74c-.52.72-2.67,3.95-2.66,4.67,0,.11.08.22.17.18a10.4,10.4,0,0,0,4-4.62A1.37,1.37,0,0,1,209,2.2a2.07,2.07,0,0,1,.9-1.24c.24,0,.32.47.31.64-.11,2.65-3.54,6.82-5,7a1.39,1.39,0,0,1-1.31-1.19,9.16,9.16,0,0,1,.7-2.51l0,0Z"/><path d="M217.83,1.09c.13-.12.38-.37.58-.37s.22.11.22.25c0,.41-.53,1.36-1,1.3L215.78,4l-.24,2.79c0,.3-.13.7.29.7s1.07-.54,1.42-.76l.22.31c-.49.62-1.82,1.8-2.63,1.8s-.67-1.06-.65-1.58l.1-1.82L212,7.59c-1.16,1.1-1.49,1.16-1.61,1.16a.32.32,0,0,1-.32-.35c0-.72,1.28-1.79,2-1.93l2.3-2.18.12-2.71a21,21,0,0,0-3.35,1.3v0c.67,0,.88,0,.88.14s-.38.17-1.62.56c-.18.06-.55.13-.55-.17a4,4,0,0,1,.79-1.63A9.06,9.06,0,0,1,215.21.26c.85,0,.88.46.8,1.18l-.14,1.49Z"/><path d="M221.54,7.23c-.36.31-1.14,1-1.63,1s-.9-.4-.83-.8-.08-.64,2.13-3.29c1-1.22,1.58-1.87,1.58-2.16,0-.08-.08-.12-.16-.13-1.84.91-2.84,1.51-3.93,2.09a.93.93,0,0,1-.38.14c-.11,0-.18,0-.2-.11a1,1,0,0,1,.07-.48l.18-.65a1.38,1.38,0,0,1,.74-.88c1-.61,3.44-1.82,4.58-1.82.42,0,.84.18.84.66s-.91,1.63-1.26,2.07C221.38,5.31,221,5.69,220.94,6c0,.16.24.31.63,0a51.45,51.45,0,0,0,4.22-3.66c.13-.12.48-.48.67-.48s.56.47.56.72-.53.84-2.25,3.3c-1,1.4-1.74,2.43-1.42,2.46.17,0,.2-.14,1.61-.86.8-.41,1.15-.35,1.15-.16s-.56.65-.73.74a22.46,22.46,0,0,0-2.82,2.47c-.25.29-.68.8-1.09.8a.53.53,0,0,1-.53-.59c0-1.2,2.94-5.21,3.79-6.26l0,0Z"/><path d="M229.26,6.46c-1.12.49-1,.55-1.21.55a.17.17,0,0,1-.19-.17,6.21,6.21,0,0,1,.31-1,.86.86,0,0,1,.31-.5,28.39,28.39,0,0,1,3.11-1.58c1.5-.83,1.9-1,1.9-1.45,0-.2-.26-.32-.43-.32-1.18,0-2.58.62-5.88,2.52.06-1.61.29-2.36,1.74-3.2a9.6,9.6,0,0,1,4-1.12c1,0,1.91.3,1.91,1.44,0,1.61-1.85,2.16-3,2.83.9.17,1.4.46,1.54,1.4,1-.32.88-.08.88,0s0,.23-.87.54a5.65,5.65,0,0,1-2,3.06,8.29,8.29,0,0,1-3.31,1.71c-.28,0-1-.42-1-.74,0-.71,1.67-2.57,5.19-4.14,0-.37-.32-1-1.79-.38ZM228.43,10c0,.07.1.12.14.12.75,0,3.11-1.81,3.55-3.09C230,8.07,228.43,9.7,228.43,10Z"/><path d="M2.83,22.05c-.23.18-1,.8-1.27.8s-1-.79-1.06-1.42c0-1.5,3.07-3,4.46-3.07a.74.74,0,0,1,.78.58c0,.14-.31.26-.42.3a.48.48,0,0,1,.35.49c0,.38-1,1.22-1,1.79,0,.2.18.29.37.29.5,0,1.19-.61,1.7-1l.1.44c-.52.59-2.12,1.87-2.71,1.87a.56.56,0,0,1-.58-.64A4,4,0,0,1,4,21.19l0,0Zm-1.45-.31c0,.06.06.28.24.24s.61,0,3-2.41l0,0C1.73,20.42,1.38,21.15,1.38,21.74Z"/><path d="M7.67,20.6c-.22.76.07,1.38.53,1.32A1.41,1.41,0,0,0,9,21.3a.82.82,0,0,1-.17-.47c0-.7,1-1.87,1.67-1.87.29,0,.36.3.36.53a4.09,4.09,0,0,1-.58,1.5,1.64,1.64,0,0,0,1.27-.44l.12.4a2.5,2.5,0,0,1-1.92.77A3.54,3.54,0,0,1,7.61,23c-.78,0-.89-1.16-.89-1.74a6.1,6.1,0,0,1,1.66-3.92c1-1.16,2.85-2.63,3.36-2.63.24,0,.35.22.35.44,0,1.09-1.77,2.89-2.54,3.63Zm.43-1.27,0,0c2.51-2.49,2.77-3.18,3-3.61l0,0A12,12,0,0,0,8.1,19.33Z"/><path d="M12.84,20.61c-.26.19-.48.37-.48.71s.29.65.91.65a5.25,5.25,0,0,0,2.65-1.38l.14.47c-.73.78-2.07,2-3.21,2-.92,0-1.37-.86-1.37-1.75a2.11,2.11,0,0,1,1.14-2A5.32,5.32,0,0,1,15,18.25a.48.48,0,0,1,.54.55,2.17,2.17,0,0,1-1.27,1.58c-.28,0-.4-.3-.41-.53Z"/><path d="M20.62,19.16a4.56,4.56,0,0,0-1,2.17c0,.19,0,.6.28.6s1.51-1,1.9-1.22l.08.4c-.56.62-1.8,1.88-2.67,1.88-.46,0-.64-.48-.64-.86a5.89,5.89,0,0,1,.1-.91c-.42.36-1.54,1.52-2.07,1.52s-.88-1.15-.88-1.57c0-1.42,2.39-2.61,3.41-2.67.25,0,.35.16.5.34.4-.68,1.45-3.17,2.33-3.17a.43.43,0,0,1,.38.46,2.69,2.69,0,0,1-.52,1.15ZM16.8,21.42a.2.2,0,0,0,.18.23,6.25,6.25,0,0,0,2.27-2.11C17.13,20.22,16.87,20.63,16.8,21.42Z"/><path d="M26.29,21.08c-.73.85-2.05,2-3.24,2-.88,0-1.28-.78-1.31-1.57A3.47,3.47,0,0,1,25,18.32c.38,0,.86.1.86.58s-.59,1.48-2.89,2.23l0,.26c0,.46.36.61.74.61a5.07,5.07,0,0,0,2.49-1.38ZM24.8,19.15c0-.08-.06-.16-.14-.13A2.64,2.64,0,0,0,23,20.54,2.94,2.94,0,0,0,24.8,19.15Z"/><path d="M27.61,20.79a1.83,1.83,0,0,1,.62.95l1.62-1,.13.44a6.87,6.87,0,0,1-1.55,1.14,2.44,2.44,0,0,1,0,.66,3.77,3.77,0,0,1-2.65,2.88c-.55.08-.71-1-.71-1.43A6.5,6.5,0,0,1,25.93,22a1,1,0,0,1-.35-.68c0-.48.32-.61.67-.8a3.64,3.64,0,0,0,1.46-1.63c.31-.59,1.86-3.44,2.47-3.44.26,0,.29.34.29.53a3.87,3.87,0,0,1-.62,1.68Zm0,1.75a1.79,1.79,0,0,1-.86-.1,3.65,3.65,0,0,0-.55,1.36,1.78,1.78,0,0,0,.24,1.07A2.58,2.58,0,0,0,27.56,22.54Z"/><path d="M33,21.13l0,0c-.43.48-1.69,1.57-2.35,1.57s-.9-.88-.9-1.4c0-1.57,2.61-2.84,3.54-2.93.17,0,.64,0,.64.3s-.24.38-.4.49l-1.37.74c-.76.41-1.64.74-1.54,1.62,0,.1.08.12.19.12a2.3,2.3,0,0,0,1.52-.74l1.28-1.42c.12-.13.26-.34.46-.34s.46.41.46.61a1.69,1.69,0,0,1-.25.61L33.41,22l0,0,1.82-1.31.06.5-2.53,1.9c-1.26,2-2.31,2.77-2.78,2.77a.27.27,0,0,1-.28-.29c0-.86,1.82-2.37,2.48-2.85Z"/><path d="M35.91,21.36c.59-.47,2.77-2.39,3.43-2.39a.63.63,0,0,1,.58.58c0,.23-.48.76-.62.92-.74.9-.71.94-.71,1.06a.25.25,0,0,0,.26.25,5.11,5.11,0,0,0,1.62-.88l.06.49c-.55.42-2,1.6-2.66,1.6a.58.58,0,0,1-.55-.64c0-.76.83-1.67,1.26-2.23l0,0c-2.05,1.4-2.65,2.67-3,2.67S35,21.84,35,21.56a3.76,3.76,0,0,1,.73-2.09C37.19,17.13,39.57,15,40,15c.19,0,.52.08.52.32,0,.82-3.81,4.77-4.58,5.53Z"/><path d="M43.85,21.31C43.31,22,42.25,23,41.34,23c-.71,0-1-.82-1-1.43,0-1.46,1.5-2.89,2.22-2.89.2,0,.53.07.53.34,0,.6-1.19,1.67-1.69,2-.1.49.08.76.64.76s1.26-.64,1.74-1ZM42.69,18a1.08,1.08,0,0,1,1-.92.38.38,0,0,1,.4.37,1.11,1.11,0,0,1-1,1.07A.48.48,0,0,1,42.69,18Z"/><path d="M45.63,22.77c-.4.56-1.52,2.76-2.23,2.76-.25,0-.34-.26-.34-.48,0-.86,1.2-2,1.86-2.45l1.54-3c-.89.25-1.7.72-2.6.89.29-.7.3-1,.42-1.18a2.47,2.47,0,0,1,1-.52,7.79,7.79,0,0,1,1.82-.55c.29,0,.53.13.53.44a2.1,2.1,0,0,1-.28.73l-1.25,2.41,0,0,2-1.15.07.53Zm1.18-5.35a1.08,1.08,0,0,1,1-.92.38.38,0,0,1,.4.37,1.11,1.11,0,0,1-1,1.07A.48.48,0,0,1,46.81,17.42Z"/><path d="M48.83,20.94l0,.32c.65-.59,3.19-2.78,4-2.78.41,0,.62.52.62.86,0,1.12-1.62,1.73-2.42,2.21.23.31.36.5.78.53.23,0,.7-.16,2.18-1.34l.12.49c-.6.53-2,1.91-2.84,1.91s-1.34-.91-1.72-1.49a3.47,3.47,0,0,0-.63.82c-.1.18-.2.36-.43.36-.42,0-.53-1.16-.53-1.45a3.9,3.9,0,0,1,.89-2C50.12,17.3,53,15,53.53,15a.31.31,0,0,1,.3.31C53.83,16.18,49.55,20.15,48.83,20.94Zm3-.52c.18-.13.58-.38.58-.64,0-.07-.1-.1-.16-.1a4.48,4.48,0,0,0-2,1.25,1.33,1.33,0,0,1,.46.26Z"/><path d="M57.74,21.09c-.66.68-1.79,1.9-2.82,1.9-.87,0-1.07-.85-1.07-1.56a6,6,0,0,1,1.32-3.57c1.06-1.31,2.2-2.42,2.58-2.42.2,0,.25.29.24.44-.08,1.14-.4,2.19-3,4.71a1.34,1.34,0,0,0-.08.83c.11.28.28.52.6.52a4.18,4.18,0,0,0,2.06-1.2Zm-2.48-1.61a7.35,7.35,0,0,0,1.81-2.63,5.9,5.9,0,0,0-1.83,2.6Z"/><path d="M61.58,22.15c-.28.26-.71.76-1.12.76a.52.52,0,0,1-.53-.5c0-.35.28-.9,1.05-2.09a.37.37,0,0,0,.07-.16.08.08,0,0,0-.08-.08c-.12,0-.38.29-.47.37-.62.66-1.29,1.38-1.86,2.08a.75.75,0,0,1-.52.34c-.58,0-.74-.94-.74-1.37,0-1.18,1.28-2.78,2-2.69.18,0,.54,0,.54.28s-.34.6-.48.77a9.24,9.24,0,0,0-.66.73c-.13.18-.35.37-.35.62,0,0,0,.11.08.11s.2-.16.24-.19c.59-.61,2.72-2.75,3.5-2.75a.49.49,0,0,1,.49.55c0,.53-.85,1.5-1.12,2l0,0,2.66-2.1c.12-.1.42-.34.56-.34s.22.29.25.34a1,1,0,0,1,.22.48c0,.2-.24.47-.37.61-.94,1-1,1.22-1,1.5s.14.34.29.3.38-.06,1.86-1.07l.07.56c-.56.44-2.29,1.86-3,1.86a.67.67,0,0,1-.61-.7,4.85,4.85,0,0,1,.89-1.94l0,0Z"/><path d="M71.66,20.49l.1.53c-.64.56-1.87,2-2.75,2a.7.7,0,0,1-.67-.79,4.32,4.32,0,0,1,1-2.06l0,0A9.57,9.57,0,0,0,67.5,22c-.18.23-.62.82-.95.82-.53,0-.66-.76-.67-1.16A4.05,4.05,0,0,1,67.29,19a.59.59,0,0,1,.47-.14c.72,0,.66.19.66.26,0,.47-1.51,1.68-1.51,2a.13.13,0,0,0,.13.13c.08,0,.19-.11.24-.17a10.59,10.59,0,0,1,3.51-2.7s.12.06.19.23a2.78,2.78,0,0,1,.18.65c0,.47-1.48,1.38-1.48,2.21a.22.22,0,0,0,.22.22,2.52,2.52,0,0,0,1-.6Z"/><path d="M76.46,21.07a2.21,2.21,0,0,1-1.94,1,2.56,2.56,0,0,1-1.85.9c-.62,0-1.2-.62-1.25-1.71a2.35,2.35,0,0,1,1.09-2,4.06,4.06,0,0,1,2.24-.89c.26,0,.66.11.66.43s-.14.25-.28.32c.36.1.43.35.43.71a3.2,3.2,0,0,1-.47,1.42c.53.1.86-.36,1.24-.64ZM72.8,20.5a1.76,1.76,0,0,0-.49,1.1c0,.35.23.46.53.46a1.34,1.34,0,0,0,.92-.48,1.3,1.3,0,0,1-.14-.55,4.25,4.25,0,0,1,.52-1.4A7.29,7.29,0,0,0,72.8,20.5Z"/><path d="M76,24.87c-.1.18-.31.5-.54.5s-.35-.32-.35-.54a3.23,3.23,0,0,1,.74-1.9c.55-.78,1.15-1.76,1.93-3.08l0,0-1.9,1.81,0-.56L79,17.66c.29-.31.5-.66,1-.66.17,0,.55.06.55.29s-.62.84-.82,1a5.13,5.13,0,0,0-1,1.42l0,0a6,6,0,0,1,2.37-1.16.51.51,0,0,1,.5.56c0,.66-.6,1.49-1.94,2.67,1,.07,1.27-.12,2.55-1.22l.08.55A4.94,4.94,0,0,1,79,22.9a1.79,1.79,0,0,1-.85-.24,2.76,2.76,0,0,1-.55.07,2.1,2.1,0,0,1-.48-.07Zm3.8-4.25a1.07,1.07,0,0,0,.3-.59c0-.08,0-.17-.13-.17a3.23,3.23,0,0,0-.92.48,5.34,5.34,0,0,0-1.1,1.16,2.59,2.59,0,0,1,1,.12Z"/><path d="M87.68,21.14l-1.4,1.24a3.26,3.26,0,0,1-1.16,2.28A5.78,5.78,0,0,1,83,26.09c-.31,0-.49-.54-.49-.8a1.74,1.74,0,0,1,.38-.84c.77-1.25,1.79-2.45,2.69-3.67l0,0c-.52.43-2,2-2.67,2a1.28,1.28,0,0,1-.92-1.3,2.14,2.14,0,0,1,.9-1.68,6,6,0,0,1,3.59-1.45.53.53,0,0,1,.42.11.57.57,0,0,1,.13.3c0,.11-.12.23-.19.3a.46.46,0,0,1,.29.43c0,.54-1.16,1.7-1.45,2.18.4.16.8-.13,1.87-1Zm-1.46-1.83a8.49,8.49,0,0,0-2.6,1.13,1.39,1.39,0,0,0-.76,1.27c.65,0,1.92-.67,3.37-2.39Zm-2.05,4.49a3.51,3.51,0,0,0-.55,1.13c.66-.28,1.79-1.25,1.79-1.92a1.83,1.83,0,0,0,0-.25,2.47,2.47,0,0,1-.44,0Z"/><path d="M88.44,20.27A8.5,8.5,0,0,1,87,21.75l0-.53a4.22,4.22,0,0,0,.79-.88c-.25,0-.32-.12-.32-.37,0-.86,1.22-1.73,1.51-1.73a.21.21,0,0,1,.22.2.82.82,0,0,1-.08.34c1.13-.16,1.79-.3,1.91-.16a1.21,1.21,0,0,1,.29.64c0,.37-.23.55-.5.78s-.94.89-.94,1.37a.37.37,0,0,0,.37.34c.52,0,1.27-.78,1.67-1.08l.08.44c-.46.52-1.83,1.85-2.52,1.85a.87.87,0,0,1-.82-.92,3.41,3.41,0,0,1,1.1-2l0,0Z"/><path d="M95.95,20.8l.12.46c-.73.73-2,1.82-3,1.77a2,2,0,0,1-1.91-1.37.41.41,0,0,1-.26.16.22.22,0,0,1-.2-.23c0-.16.19-.32.29-.42l2.6-2.39a.74.74,0,0,1,.68-.78c.36,0,.43.11.47.44A11.06,11.06,0,0,1,95,19.85,2.77,2.77,0,0,1,93.4,22a2.2,2.2,0,0,0,1.82-.67Zm-4.08.25c.44,0,.71.4.94.71.72-.44.91-.65.95-1.34,0-.25-.08-.58-.16-1Z"/><path d="M100.24,17.87c-.56,1.14-.66,1.58-2,1.5a4.65,4.65,0,0,0-1.09,2.23c0,.26.08.42.36.42s.82-.36,2.06-1.25l.06.53c-.71.65-2,1.93-3,1.93a.73.73,0,0,1-.76-.8,3.17,3.17,0,0,1,.31-1.2l0,0-.61.49-.13-.46a6.92,6.92,0,0,0,1.82-1.92,4.32,4.32,0,0,0-1.14,0l.13-.22c.65-1.06.74-1.25,2-1.3.36-.49.62-1.06,1.32-1.06.16,0,.38,0,.38.23s-.35.61-.47.78Z"/><path d="M103,19.68c.25-.23,1.43-1.37,1.73-1.37.1,0,.23,0,.28.66,0,.29-.3.56-.49.73-.38.35-1.24,1.3-1.24,1.84,0,.19.11.26.3.26.46,0,1.49-.84,1.85-1.13l.07.52c-.61.59-1.88,2-2.77,2a.73.73,0,0,1-.71-.79,2.83,2.83,0,0,1,.25-1l0,0c-.47.41-1.27,1.49-1.93,1.49s-.91-.67-.91-1.19a3.86,3.86,0,0,1,1.67-2.87.89.89,0,0,1,.53-.13c.17,0,.78-.11.73.25a1.57,1.57,0,0,1-.48.64,4.17,4.17,0,0,1-.91.86,1.21,1.21,0,0,0-.66,1c0,.06,0,.18.1.18a3.46,3.46,0,0,0,1.44-.85Z"/><path d="M109.7,18.39c.24,0,.36.16.36.4a5.81,5.81,0,0,1-1,2,.5.5,0,0,0,.41.16,2.34,2.34,0,0,0,1-.48l.08.5a2,2,0,0,1-1.54.85,1.1,1.1,0,0,1-.62-.31c-.34.38-1.55,1.44-2,1.44-.71,0-1.19-.9-1.19-1.81a3.08,3.08,0,0,1,1.9-2.81c.17,0,.72,0,.72.28,0,.54-1.13,1.75-1.56,2.11a3.09,3.09,0,0,0-.18.71c0,.19,0,.47.29.47s1.29-.88,1.55-1.12a2,2,0,0,1,.6-1.42C108.75,19.09,109.28,18.39,109.7,18.39Z"/><path d="M114.37,19.19c.1-.12.52-.66.68-.66s.58.11.58.25a1.7,1.7,0,0,1-.28.6,8.18,8.18,0,0,0-1.08,2.24.22.22,0,0,0,.23.24c.33,0,.91-.67,1.16-.89-.06-.46-.07-.67.55-1.48.19-.25.67-.84,1-.84s.38.38.38.6a2.79,2.79,0,0,1-.82,1.69.71.71,0,0,0,.42.17c.3,0,.72-.36.95-.54l0,.53a1.88,1.88,0,0,1-1.32.72,1.21,1.21,0,0,1-.72-.24c-.52.38-1.45,1.49-2.11,1.49a.58.58,0,0,1-.43-.23c-.13-.17-.29-.26-.22-1.4-.44.4-1.25,1.48-1.83,1.44a1.44,1.44,0,0,1-1.26-1.61,2.71,2.71,0,0,1,1-2c1-1,1.23-1.08,1.49-1.07.54,0,.71.19.71.38,0,.61-1.55,1.91-2,2.29a2.53,2.53,0,0,0-.1.68c0,.1,0,.26.13.26a4.88,4.88,0,0,0,1.18-.89Z"/><path d="M120.36,20.64v.5c0,.3.07.56.43.56s1.18-.7,1.52-1l.07.48c-.6.52-1.69,1.86-2.51,1.86s-.55-1-.55-1.44l-.7.67c-.17.16-.55.52-.79.52a.17.17,0,0,1-.19-.17,2.06,2.06,0,0,1,.42-.71,1.07,1.07,0,0,1,.64-.41l.64-.56V19.52a5.8,5.8,0,0,1-1.15.56.15.15,0,0,1-.13-.16,6.15,6.15,0,0,1,2.11-1.76c.29,0,.25.43.24.62l0,1.09,1.07-1c.18-.17.43-.41.68-.41s.14.13.16.19c0,.25-.55,1.22-1.07,1.12Z"/><path d="M124.18,24.86c-.12.13-.46.6-.65.6s-.36-.59-.36-.79a2.05,2.05,0,0,1,.32-.72l1.61-2.71,0,0a9.83,9.83,0,0,1-2,1.46,1.4,1.4,0,0,1-.95-1.42c0-1.44,2-3,2.34-3,.18,0,.52.38.52.55,0,.46-1.36,1.7-1.75,2a1.3,1.3,0,0,0-.23.7,3.4,3.4,0,0,0,1.71-1.06,17.47,17.47,0,0,1,2.23-2c.2,0,.32.43.32.6a2.58,2.58,0,0,1-.49,1.06L125,22.78l0,0,2.66-2.36.1.44Z"/><path d="M130.17,22.54a4.13,4.13,0,0,1-2.94,3.23.53.53,0,0,1-.54-.58c0-.66.6-1.18,1.08-1.56l1.56-1.25c-.12-.5-.3-.56-.77-.7-.18,0-.47-.07-.43-.3.06-.4.85-.71,2.18-1.81l0,0-1.46.25-1.37,1.49-.13-.4.84-1c-.18,0-.32-.11-.32-.32,0-.44.92-1.28,1.31-1.28.23,0,.3.23.3.42.95-.14,1.36-.35,1.6-.35s.38.82.38.95-.22.37-.36.47l-1.54,1.12a1.6,1.6,0,0,1,.62.95l1.89-1.46,0,.52Zm-2.23,1.65a1.43,1.43,0,0,0-.65,1,3.17,3.17,0,0,0,2-2.05Z"/><path d="M8.14,31.77c0,2.3-2.09,5.45-5,5.65-1.1.08-1.75-1-1.75-2a6.32,6.32,0,0,1,1.75-3.83,6.85,6.85,0,0,1,3.67-2.1,1.3,1.3,0,0,1,1.08.84c0,.13-.29.13-.37.22C8.08,30.7,8.14,31.29,8.14,31.77ZM5.72,34.58a6.21,6.21,0,0,0,1.55-2.81c0-.25-.12-.71-.46-.71s-.62.44-.74.44-.12-.14-.12-.22c-2.16,1.21-3.11,2.91-3.18,4.15,0,.23,0,.92.37.92a3.19,3.19,0,0,0,1.4-.71Z"/><path d="M11.34,31.36a1.78,1.78,0,0,1-.32.12c-.13,0-.11-.2-.1-.28,0-.35.26-.46.55-.62a10.15,10.15,0,0,1,2.09-1c.31,0,.55.65.55.83,0,.35,0,.31-1.88,3.51a9.72,9.72,0,0,0-1.4,3.2c0,.14,0,.28,0,.42a.15.15,0,0,1-.17.17.75.75,0,0,1-.25-.11c-.46-.25-1-.34-1-1a7,7,0,0,1,.84-2.47,36.8,36.8,0,0,1,2.19-3.19l0,0Z"/><path d="M16.79,32.67c-.08,0-.34.06-.41.06-.23,0-.28-.3-.28-.47a3.2,3.2,0,0,1,.67-1.59c.7-.79,2.64-1.16,3.67-1.16s1.34.24,1.34,1.9c0,.65,0,1.21-3,2.78A19.37,19.37,0,0,0,15.9,36l0,0,4.67-.82c-.31.89-.53,1.72-1.6,1.92-1.87.35-3.26.41-3.57.17a1.86,1.86,0,0,1-.53-1.34c0-1.09,3.42-2.84,4.33-3.35.5-.28,1.69-.91,1.69-1.57,0-.24-.29-.31-.46-.31a9.15,9.15,0,0,0-3.24,1.13v0l.71.08c.16,0,.46,0,.46.25s-.17.2-.3.22Z"/><path d="M24.43,31.19c.07,0,.44.06.44.2s-.14.13-.22.14a7,7,0,0,1-1.12.08.58.58,0,0,1-.61-.65c0-.6.68-.88,1.15-1.06a6.52,6.52,0,0,1,2.35-.36c1.08,0,2.43.11,2.43,1.5a1.65,1.65,0,0,1-.72,1.22,4.57,4.57,0,0,1-1.43.49l-1.81.4v0c.95.17,2.39.28,2.48,1.6.06.8-1.33,2.6-4.39,2.6-1.62,0-2.16-.64-2.16-1s.74-1.16,1-1.16c.08,0,.18,0,.18.14a1.44,1.44,0,0,1-.28.36A3,3,0,0,0,23,36c1.76,0,3.56-1,3.56-1.44,0-.66-1.79-.71-2.23-.71a5.26,5.26,0,0,0-1.07.1,1.74,1.74,0,0,1-.35,0c-.16,0-.2-.11-.18-.25A1.25,1.25,0,0,1,24,32.53c.67,0,4-.61,4-1.43,0-.52-.9-.49-1.24-.49a7.31,7.31,0,0,0-2.58.5v0Z"/><path d="M32.61,35.42a3.28,3.28,0,0,0-.2.9,1.07,1.07,0,0,0,.24.59,9.51,9.51,0,0,1-1.44.67c-.25,0-.29-.42-.29-.6a10.09,10.09,0,0,1,.24-1.46c-1.29.06-2.18.2-2.36-.13a2.46,2.46,0,0,1-.36-1.07c0-.62.95-1.62,1.4-2,1.52-1.32,4.45-2.75,5.2-2.75.2,0,.46.1.46.34s-.16.29-.25.37a.46.46,0,0,1,.24.54,1.43,1.43,0,0,1-.31.7,24,24,0,0,0-1.7,2.41c.3,0,.61-.06.91-.06s.44,0,.44.3a4.07,4.07,0,0,1-.54,1.07Zm2.17-4.89,0,0a17,17,0,0,0-1.56.77C30.71,32.73,30,33.65,29.84,34c0,.06.13.11.44.12A9,9,0,0,0,31.9,34Z"/><path d="M38.19,30c.52-.54.74-.48,1.45-.48h2.89c-.79,1.43-.8,1.62-1.89,1.61l-2,0a4.05,4.05,0,0,0-1,1.22,6.6,6.6,0,0,1,1.67-.25c1,0,2,.52,2,1.63a2.87,2.87,0,0,1-.43,1.48c-.73,1.22-2.37,2.22-4.79,2.22-1.18,0-1.24-.26-1.24-1S36.47,35,36.65,35s.19,0,.19.13-.18.22-.25.26l-.73.5,0,0c2.85-.31,4.46-1.56,4.46-2.22,0-.32-.59-.46-.83-.46a7.64,7.64,0,0,0-1.49.19c-.46.08-.83.2-1,.2-.48,0-.68-.91-.68-1.28A1.86,1.86,0,0,1,37,31.31Z"/><path d="M44.92,32.6l0,0a3.81,3.81,0,0,1,1.52-.5,1.48,1.48,0,0,1,1.44,1.6c0,1.94-2.57,3.71-3.38,3.71A2.55,2.55,0,0,1,42.44,35c0-2.1,2.29-4,3.93-5a1.94,1.94,0,0,1,1.37-.42c.11,0,1-.06,1,.16s-.17.22-.25.25a9.31,9.31,0,0,0-1.88,1.25Zm-.43,1.56c-.52.46-.7.6-.7,1.3,0,.19,0,.8.3.76.86-.14,2.57-1.31,2.6-2.76,0-.25,0-.46-.35-.46C45.84,33,44.88,33.83,44.49,34.16Z"/><path d="M54.08,31.1c-2.79-.07-3,.25-3.56.52a1,1,0,0,1-.38.17c-.13,0-.31-.12-.31-.26a4.6,4.6,0,0,1,.91-1.34c.36-.37,1.14-.67,4.08-.67a.78.78,0,0,1,.66.22,2.65,2.65,0,0,1,.3.95c0,.26-.42.56-.6.71a9.77,9.77,0,0,0-3.41,5.16.83.83,0,0,1,.29-.06.12.12,0,0,1,.13.12,3.39,3.39,0,0,1-1.74,1c-.46,0-.61-.35-.61-.76,0-1,1.12-2.37,1.7-3.12Z"/><path d="M59.5,33.59a2.6,2.6,0,0,1,.6,1.74c0,.71-.48,2-2.77,2.11-.56,0-1.39-.3-1.39-1,0-1,1.54-2.13,2.2-2.73a3.15,3.15,0,0,1-1-1.93,2.23,2.23,0,0,1,1.73-1.93,9.82,9.82,0,0,1,2.29-.43,5.55,5.55,0,0,1,1.52.14c.13,0,.19.08.19.23a1.66,1.66,0,0,1-.36.83c-.25.38-.35.5-.66.44.06.29,0,.35-.38.73Zm-1.86,1.73c-.24.22-.65.66-.65,1s.2.25.41.25c.7,0,1.64-.41,1.64-1.2a1.6,1.6,0,0,0-.4-1ZM60.43,31c-1.33-.11-2.05.46-2.05,1A2.43,2.43,0,0,0,59,33l2.31-2Z"/><path d="M68.09,31.63a.67.67,0,0,1-.38.16.14.14,0,0,1-.13-.14s-.06,0,.62-.62l0,0c-2.88.73-3.85,1.85-3.85,2.61,0,.13,0,.19.19.19a6.73,6.73,0,0,0,3.19-1.51c.18-.14.6-.5.85-.5s.65.11.65.3-.28.52-.4.65l-3.15,3.71c-.71.83-1.12,1.08-1.61,1.13a.22.22,0,0,1-.26-.22,2,2,0,0,1,.31-.61c.2-.32.26-.55.68-.53l2.27-2.7,0,0a6.91,6.91,0,0,1-2.42,1.19,2.07,2.07,0,0,1-1.49-1.82c0-1.48,2.85-3.38,4.93-3.35.47,0,1.18.94,1.18,1.21s-.48.52-.68.64Z"/></g></g></svg>