<svg xmlns="http://www.w3.org/2000/svg" viewBox="0 0 209.77 37.94"><title>font-Eurostile</title><g id="Layer_2" data-name="Layer 2"><g id="Layer_1-2" data-name="Layer 1"><path d="M1.76,7.16l-.7,1.91H0l3.27-9H4.71l3.36,9H7L6.31,7.16ZM4,.91,2,6.32H6Z"/><path d="M8.88,9.07v-9h4.56c1.69,0,2.09.8,2.09,2.37,0,.95-.19,1.58-1.13,1.89v0c1.2.22,1.39,1.08,1.39,2.19,0,1.62-.6,2.51-2.12,2.51ZM9.9,4h3c1.22,0,1.64-.28,1.64-1.68C14.5,1.1,14,1,13,1H9.9Zm0,4.17h3.23c1.1,0,1.64-.13,1.64-1.51,0-1.19-.18-1.79-1.52-1.76H9.9Z"/><path d="M19.63,9.14C18,9.14,17,8.11,17,6.31V2.83C17,.29,18.59,0,20.77,0h.84c1.88,0,2.46.81,2.46,2.59v.29H23V2.63C23,1.37,22.78.9,21.47.9h-.58C18.78.9,18,1.15,18,2.79V5.26c0,2.05.08,3,1.79,3H21c1.63,0,2.13-.23,2.13-1.51V6h1v.84c0,2.06-1.32,2.29-3.12,2.29Z"/><path d="M25.22.07H29.6c1.09,0,3.08.14,3.08,3.47V5.68c0,.89-.14,3.38-2.84,3.38H25.22Zm4.38,8.1c1.8,0,2-1.06,2.06-2.66V3.14A2,2,0,0,0,29.77,1H26.24v7.2Z"/><path d="M34.77,4h4.56v.84H34.77v3.3h4.76v.9H33.76v-9h5.78V1H34.77Z"/><path d="M41.78,4.11h4.38V5H41.78V9.07h-1v-9h5.52V1h-4.5Z"/><path d="M54.52,4.57v2c0,2.11-.95,2.62-3,2.62h-1c-2.4,0-3.45-.44-3.45-3.23V3.13C47.1.7,48.2,0,49.74,0H52.1c1.35,0,2.4.55,2.4,2v.7h-1V2.18c0-1-.41-1.28-1.87-1.28H50.35c-1.94,0-2.23.38-2.23,2.35V6.14c0,1.71.58,2.1,2.25,2.1h1c1.79,0,2.17-.21,2.17-1.65V5.47H50.64v-.9Z"/><path d="M63.08,9.07h-1V4.93H56.79V9.07h-1v-9h1V4h5.26v-4h1Z"/><path d="M65.81,9.07h-1v-9h1Z"/><path d="M72.57.07V6.9c0,1.8-1.13,2.24-2.73,2.24S67,8.89,67,7.11V5.79h1v1c0,1.12.19,1.43,1.63,1.43.92,0,1.9,0,1.9-1.2v-7Z"/><path d="M75.32,4h.89L79.88.07h1.33L77.1,4.42,81.7,9.07H80.32L76.21,4.9h-.89V9.07h-1v-9h1Z"/><path d="M83.49,8.17h4.58v.9h-5.6v-9h1Z"/><path d="M94.57,9.07h-1L90.15.84h0V9.07h-1v-9h1.76l3.18,7.7L97.24.07H99v9H98V.84h0Z"/><path d="M108.43,9.07h-1.67l-5-8.16h0V9.07h-1v-9h1.68l5,8.22h0V.07h1Z"/><path d="M113.88,0c2.24,0,2.93.77,2.93,3v3.2c0,2.12-.77,2.91-2.93,2.91h-1.21c-2.16,0-2.93-.79-2.93-2.91V3c0-2.25.68-3,2.93-3Zm-1.21.9c-1.51,0-1.91.37-1.91,2.12v3.2c0,1.79.59,2,1.91,2h1.21c1.32,0,1.91-.23,1.91-2V3c0-1.75-.4-2.12-1.91-2.12Z"/><path d="M118,.07h4.58c1.74,0,2.15,1.17,2.15,2.72,0,.8,0,2.77-2.19,2.77H119v3.5h-1Zm1,.9V4.67h2.64c1.36,0,2.05,0,2.05-1.74s-.31-2-1.57-2Z"/><path d="M133.61,8.66l-.67-.46a3.14,3.14,0,0,1-2.6.94h-1.4c-2.55,0-3.11-1-3.11-3.44V3.15c0-2.22.85-3.08,3.11-3.15h1.4c2.3,0,3.13.81,3.13,3.15V5.7a5.38,5.38,0,0,1-.19,1.76L134,8Zm-1.24-1.8a2.35,2.35,0,0,0,.07-.71V2.81c0-1.1-.29-1.91-1.91-1.91h-1.72c-1.52,0-2,.54-2,2.05V5.88c0,2,.46,2.36,2,2.36h1.72a1.93,1.93,0,0,0,1.58-.56l-2.81-1.82.47-.7Z"/><path d="M135.92,9.07h-1v-9h4.15c1.94,0,2.79.54,2.79,2.59,0,1.26-.14,2.2-1.57,2.38v0a1.42,1.42,0,0,1,1.45,1.62V9.07h-1V7.16c0-1.14-.28-1.69-1.51-1.69h-3.27Zm3.14-4.5c1.57,0,1.76-.53,1.76-2,0-1.15-.16-1.58-1.76-1.58h-3.14v3.6Z"/><path d="M142.92,2.61C142.92.21,144,0,146.24,0c1.94,0,3.35.08,3.24,2.53h-1C148.41,1,148.11.9,146.2.9s-2.27.25-2.27,1.5c0,1.71.82,1.57,2.5,1.62,2.13.12,3.21.06,3.21,2.49s-1.2,2.63-3.47,2.63-3.48-.28-3.29-2.88h1c0,2,.36,2,2.27,2s2.45,0,2.45-1.76-.77-1.43-2.41-1.56S142.92,5,142.92,2.61Z"/><path d="M154,9.07h-1V1h-2.91V.07h6.85V1H154Z"/><path d="M165,.07V6.55c0,2.41-1.44,2.59-3.56,2.59-2,0-3.56,0-3.56-2.59V.07h1V6.55c0,1.46.35,1.69,2.54,1.69,1.81,0,2.54,0,2.54-1.69V.07Z"/><path d="M173.61.07l-3.19,9H169l-3.21-9h1.09l2.83,8.22h0L172.52.07Z"/><path d="M184.16,9.07h-1.55L180.26,1h0l-2.39,8.1h-1.52l-2.76-9h1l2.45,8.22h0L179.5.07H181l2.4,8.22h0L185.93.07H187Z"/><path d="M191.83,4.41l3.09,4.65h-1.2L191,4.93l-2.79,4.14h-1.25l3.21-4.65-3-4.34h1.22L191,3.92,193.51.07h1.2Z"/><path d="M199.1,5.31V9.07h-1V5.31L194.78.07H196l2.66,4.21L201.3.07h1.21Z"/><path d="M209.65,1,204,8.17h5.78v.9h-7V8.18L208.4,1h-5.48V.07h6.73Z"/><path d="M5,23.47v-.65l0,0c-.36.72-1.28.74-2.07.74-1.42,0-2.4-.26-2.4-1.91s.9-2,2.46-2c.62,0,1.85.06,2,.64H5V19.13C5,18,4.4,17.87,3.33,17.87c-.74,0-1.66,0-1.64.86v.22h-1v-.13c0-1.62,1.12-1.73,2.52-1.71,1.58,0,2.75.16,2.73,2.08v4.29ZM5,21.6c0-1.19-.71-1.18-1.91-1.18s-1.58.07-1.58,1.09c0,1.2.49,1.26,1.58,1.26S5,22.75,5,21.6Z"/><path d="M7.58,14.47h.95V18h0c.3-.8,1.3-.89,2-.89,2.17,0,2.46,1.26,2.46,3.23s-.28,3.21-2.46,3.21c-.85,0-1.68-.16-2-.84l0,0v.74H7.58Zm2.73,3.39c-1.65,0-1.76.66-1.76,2.46,0,2,.37,2.45,1.76,2.45,1.68,0,1.74-.72,1.74-2.45C12.06,18.26,11.83,17.87,10.32,17.87Z"/><path d="M19.71,21.19v.35c0,1.78-1.18,2-2.67,2-2.61,0-2.79-1-2.79-3.35,0-2.05.36-3.09,2.64-3.09,1.52,0,2.72.17,2.72,2v.17h-.95V19c0-1.14-.62-1.16-1.72-1.16-1.68,0-1.71.58-1.71,2.59,0,1.77.07,2.31,1.92,2.31,1.19,0,1.62-.13,1.62-1.27v-.31Z"/><path d="M25.32,22.67l0,0c-.37.76-1.18.89-2,.89-2.24,0-2.47-1.29-2.47-3.21S21,17.1,23.27,17.1c.7,0,1.75.08,2,.85h0V14.47h.95v9h-.95Zm0-2.35c0-1.73-.2-2.46-1.75-2.46s-1.79.25-1.79,2.46.43,2.45,1.79,2.45S25.32,22.27,25.32,20.32Z"/><path d="M33.24,21.56v.23c0,1.67-1.28,1.75-2.69,1.75-2.46,0-2.83-.82-2.83-3.21,0-2.62.58-3.23,2.83-3.23,2,0,2.69.47,2.69,2.79v.63H28.7c0,2,.14,2.24,1.85,2.24,1.3,0,1.72-.08,1.72-1v-.24Zm-1-1.8c0-1.79-.26-1.89-1.7-1.89-1.71,0-1.77.44-1.85,1.89Z"/><path d="M37.55,17.17v.77H35.88v5.53h-.95V17.94H34v-.77h1v-.76c0-1.54.48-2,2-2l.59,0v.77l-.59,0c-.95,0-1.08.31-1.08,1.15v.85Z"/><path d="M43.59,24.21c0,1.68-1.25,2.05-2.77,2.05S38.21,26,38.3,24.21h.95c0,1.21.58,1.28,1.57,1.28s1.81-.12,1.82-1.36V22.69h0c-.26.77-1.28.85-2,.85-2,0-2.48-1.06-2.48-3.21s.32-3.23,2.48-3.23c.88,0,1.65.12,2,.88h0v-.79h.95Zm-.95-3.89c0-1.75-.12-2.46-1.82-2.46s-1.73.8-1.73,2.46-.11,2.45,1.73,2.45S42.65,21.73,42.65,20.32Z"/><path d="M46.15,17.94h0c.3-.76,1.22-.84,1.94-.84,1.62,0,2.4.43,2.37,2.18v4.19h-.95V19.21c0-1.15-.44-1.34-1.51-1.34-1.55,0-1.88.48-1.88,1.93v3.67H45.2v-9h.95Z"/><path d="M53.1,15.51h-.95v-1h.95Zm0,8h-.95v-6.3h.95Z"/><path d="M55.68,24.22c0,1-.18,1.75-1.35,1.75a2.07,2.07,0,0,1-.47-.06v-.73H54c.77,0,.68-.68.68-1.28V17.17h.95Zm0-8.71h-.95v-1h.95Z"/><path d="M58.19,19.68h.38l2.27-2.51H62l-2.7,2.89,3.19,3.41H61.24l-2.67-3h-.38v3h-.95v-9h.95Z"/><path d="M64,23.47h-.95v-9H64Z"/><path d="M66.57,18.14h0a2.13,2.13,0,0,1,2.1-1c.75,0,1.73.22,1.94,1a2.34,2.34,0,0,1,2.24-1c1.62,0,2.18.66,2.18,2.22v4.15h-.95V19.41c0-1.07-.16-1.55-1.38-1.55s-1.92.38-1.92,1.74v3.86h-.95V19.24c0-.84,0-1.38-1.4-1.38s-1.89.53-1.89,1.81v3.79h-.95v-6.3h.95Z"/><path d="M77.64,17.94h0c.3-.76,1.22-.84,1.94-.84,1.62,0,2.4.43,2.37,2.18v4.19H81V19.21c0-1.15-.44-1.34-1.51-1.34-1.55,0-1.88.48-1.88,1.93v3.67h-.95v-6.3h.95Z"/><path d="M86.24,17.1c2.34,0,2.79.56,2.79,3.23s-.46,3.21-2.79,3.21-2.79-.56-2.79-3.21S83.9,17.1,86.24,17.1Zm0,5.67c1.69,0,1.81-.26,1.81-2.45s-.12-2.46-1.81-2.46-1.81.26-1.81,2.46S84.55,22.77,86.24,22.77Z"/><path d="M91.4,17.94l0,0a2.12,2.12,0,0,1,2-.86c2.29,0,2.46,1.34,2.46,3.23,0,2.49-.61,3.21-2.46,3.21-.72,0-1.67-.08-2-.82h0v3.47h-.95v-9h.95Zm0,2.39c0,1.49.1,2.45,1.79,2.45,1.46,0,1.74-.41,1.74-2.45,0-1.88-.13-2.46-1.74-2.46C91.4,17.87,91.4,18.66,91.4,20.32Z"/><path d="M102.63,26.19h-.95V22.75h0c-.31.72-1.25.79-1.85.79-1.91,0-2.65-.5-2.65-3.21,0-2.06.26-3.23,2.65-3.23a1.92,1.92,0,0,1,1.85.85l0,0v-.76h.95Zm-1-5.87c0-1.76-.06-2.46-1.86-2.46-1.27,0-1.66.28-1.66,2.46,0,1.76,0,2.45,1.8,2.45C101.55,22.77,101.66,22,101.66,20.32Z"/><path d="M105.06,17.17l0,.78,0,0a1.81,1.81,0,0,1,1.79-.87,1.54,1.54,0,0,1,1.75,1.78v.46h-.9v-.42c0-.78-.26-1-1.05-1-1.18,0-1.56.56-1.54,1.68v3.92h-.95v-6.3Z"/><path d="M114.55,18.81h-1v-.24c0-.64-.48-.64-1.48-.64-1.19,0-1.76,0-1.76.77,0,1.13.31,1,1.3,1.09,1.62.1,3.09-.16,3.09,1.89,0,1.78-1.22,1.85-2.63,1.85s-2.79-.07-2.79-1.48v-.59h1V22c0,.6.37.73,1.81.73.65,0,1.64.14,1.64-1s-.49-1-1.64-1c-1.37-.1-2.75,0-2.75-1.74s1-1.86,2.75-1.86c1.1,0,2.46,0,2.46,1.48Z"/><path d="M119.34,17.94H116.9v4c0,.68.19.84.89.84.89,0,.89-.47.89-1.07v-.47h.9v.47c0,1.25-.52,1.83-1.81,1.83-1.47,0-1.81-.42-1.81-1.89V17.94h-.84v-.77H116V15.65h.95v1.52h2.43Z"/><path d="M124.62,22.63h0c-.34.77-1.14.91-2,.91-1.67,0-2.25-.67-2.25-2.33v-4h.95v4c0,1,.07,1.56,1.29,1.56s2-.22,2-1.71V17.17h.95v6.3h-1Z"/><path d="M129.79,23.47h-1.33l-2.09-6.3h1l1.79,5.58h0l1.73-5.58h1Z"/><path d="M139.1,23.47h-1.38l-1.34-5.64h0L135,23.47H133.6l-1.7-6.3h1l1.43,5.64h0l1.38-5.64h1.36l1.37,5.64h0l1.43-5.64h1Z"/><path d="M144.15,20.18l2.24,3.29h-1.14l-1.63-2.54L142,23.47h-1.14l2.28-3.29-2-3h1.07l1.46,2.3,1.43-2.3h1.1Z"/><path d="M149.83,23.91c-.34,1.19-.61,2.35-2.12,2.35a2.39,2.39,0,0,1-.43-.06v-.73a1.49,1.49,0,0,0,.34,0c1,0,1.09-1.32,1.31-2h-.34l-2.28-6.3h1l1.94,5.6h0l1.42-5.6h1Z"/><path d="M156.75,18,153,22.7h3.75v.77h-4.86v-.88l3.75-4.65h-3.44v-.77h4.55Z"/><path d="M.24,34.69V32c.06-2.88,1-3.25,3.81-3.25s3.78.37,3.84,3.25v2.64c-.06,2.88-1,3.25-3.81,3.25S.3,37.57.24,34.69Zm1-2.64v2.64C1.26,37,1.85,37,4.05,37s2.82,0,2.82-2.35V32c0-2.34-.59-2.35-2.82-2.35S1.26,29.71,1.26,32Z"/><path d="M13.58,37.87h-1V29.65l-2.3,2.53-.64-.61,2.48-2.7h1.48Z"/><path d="M23.83,37.87H17.35V36.34c0-2.34,1-2.5,3.15-2.72,1.91-.19,2.33-.11,2.33-2s-.41-1.94-2.11-1.94c-2.16,0-2.39.13-2.35,1.79V32h-1v-.47c0-2,.25-2.69,3.37-2.69,2.39,0,3.13.56,3.13,2.84s-.84,2.7-3.11,2.88c-1.91.16-2.37.36-2.37,1.68V37h5.46Z"/><path d="M28.07,32.8h1.07c1.28,0,1.82,0,1.82-1.49s-.22-1.62-2.34-1.62c-1.73,0-2,.14-2,1.55v.38h-1v-.38c0-2.3,1.08-2.45,3.17-2.45,1.92,0,3.23,0,3.23,2.34,0,1.15-.17,2-1.49,2.1v0c1.37.11,1.67.74,1.67,2.06,0,2.71-1.34,2.61-3.5,2.61s-3.23-.29-3.19-2.39V35h1v.6c0,1.4.24,1.45,2.17,1.49,2.18,0,2.48,0,2.48-1.82,0-1.52-.72-1.51-2-1.51H28.07Z"/><path d="M39.49,34.92H40.8v.9H39.49v2.05h-1V35.82H33.41V34.6l4.52-5.73h1.56Zm-1-5.38h0l-4.2,5.38h4.22Z"/><path d="M43.32,32.46h0c.43-.72,1.66-.74,2.42-.74,2.81,0,3,1.31,3,3,0,2.82-.59,3.19-3.31,3.19-2.42,0-3.2-.25-3.32-2.43v-.22h1v.3c0,1.4.7,1.45,2.3,1.45,2.11,0,2.29-.32,2.29-2.29s-.36-2.13-2.29-2.13c-.73,0-2-.14-2.16.82h-1V28.87h6.12v.9h-5.1Z"/><path d="M50.41,31.2c0-2.13,1.28-2.4,3.38-2.4,1.48,0,3.08,0,3.08,2.06v.29h-1V30.9c0-1.2-.72-1.2-2.06-1.2-1.64,0-2.33,0-2.36,1.5v1.93h0c.23-.56.92-.83,2.29-.83,2.5,0,3.33.29,3.33,2.82s-.78,2.82-3.33,2.82-3.33-.38-3.33-3.18Zm1,3.56c0,2,.18,2.28,2.31,2.28s2.31-.3,2.31-1.92S55.88,33.2,54,33.2,51.43,33.31,51.43,34.76Z"/><path d="M65.2,30.15l-4.37,7.71h-1.2l4.73-8.16H58.64v-.84H65.2Z"/><path d="M68.51,33.18c-1.22-.22-1.44-.72-1.44-2.05,0-2.23,1-2.33,3.24-2.33s3.25.07,3.25,2.33c0,1.15-.12,1.83-1.43,2.06h0c1.22.19,1.54.73,1.54,2.18,0,2.29-.74,2.55-3.36,2.55-2.15,0-3.36,0-3.36-2.55,0-1.3.12-2,1.56-2.18ZM70.3,37c2,0,2.34-.28,2.34-1.66s-.26-1.7-2.34-1.7S68,33.8,68,35.38,68.09,37,70.3,37Zm0-4.26c2.05,0,2.23-.24,2.23-1.66,0-1.24-.16-1.43-2.23-1.43s-2.22.14-2.22,1.43S68.23,32.78,70.3,32.78Z"/><path d="M75.2,35.58h1v.33c0,1,.42,1.13,2.41,1.13s2.31-.07,2.31-1.94V33.6l0,0c-.4.88-1.93.8-2.29.8-2.49,0-3.32-.32-3.32-2.72S76,28.8,78.63,28.8,82,29.2,82,31.65V35.1c0,2.27-.46,2.84-3.33,2.84-2.11,0-3.43,0-3.43-2Zm5.74-3.92c0-1.92-.52-2-2.31-2-2.06,0-2.3.06-2.3,2,0,1.7.32,1.82,2.3,1.82S80.95,33.36,80.95,31.65Z"/></g></g></svg>