<svg xmlns="http://www.w3.org/2000/svg" viewBox="0 0 203.91 38"><title>font-Garamond</title><g id="Layer_2" data-name="Layer 2"><g id="Layer_1-2" data-name="Layer 1"><path d="M2.64,5.37c-.26,0-.3,0-.47.44a6.25,6.25,0,0,0-.44,1.37c0,.41.54.43.79.46s.3,0,.3.2S2.63,8,2.51,8s-.76,0-1,0S.46,8,.26,8,0,8,0,7.84s.23-.19.37-.22c.46,0,.59-.08,1-1.08L3.43,1.1c.07-.16.14-.36.2-.52A.36.36,0,0,1,4,.3c.3,0,.35.14.38.24C5.1,2.22,6.24,5,6.94,6.69c.18.4.38.95.89,1,.12,0,.35,0,.35.2S8,8,7.94,8C7.46,8,6.85,8,6.26,8,5.85,8,5.19,8,4.77,8c-.08,0-.28,0-.28-.17s.24-.22.41-.22.68,0,.68-.32A6.13,6.13,0,0,0,5.11,6c-.24-.61-.18-.61-.7-.61Zm1.66-.47c.23,0,.32,0,.32-.1a2.26,2.26,0,0,0-.08-.28c-.26-.66-.53-1.28-.78-2,0-.12-.12-.34-.18-.34s-.14.21-.19.35c-.26.7-.53,1.38-.78,2.06a.69.69,0,0,0,0,.18c0,.07.1.07.24.07Z"/><path d="M9.6,1.88c0-.73,0-1-.53-1-.23,0-.43.07-.56,0A.13.13,0,0,1,8.4.77c0-.17.23-.25.52-.29A19.73,19.73,0,0,1,11.58.34,7.22,7.22,0,0,1,14,.62a1.7,1.7,0,0,1,1.25,1.54c0,.94-.85,1.44-1.68,1.59v0a2,2,0,0,1,.56.11,2.08,2.08,0,0,1,1.57,2,2.09,2.09,0,0,1-1,1.71,3.45,3.45,0,0,1-2,.47C12,8,10.89,8,10.06,8,9.43,8,9,8,8.77,8s-.25,0-.25-.22.12-.17.35-.17c.73,0,.73-.18.73-1.07Zm1.33,1.28c0,.47,0,.52.55.52a5.16,5.16,0,0,0,1.33-.11,1.34,1.34,0,0,0,1-1.36c0-1-.78-1.51-1.85-1.51s-1,.19-1,.8Zm0,3.29c0,1,.14,1.21,1.35,1.21A1.91,1.91,0,0,0,13.7,7.2a1.81,1.81,0,0,0,.53-1.28,1.68,1.68,0,0,0-.79-1.51A3.64,3.64,0,0,0,11.33,4c-.35,0-.4.06-.4.52Z"/><path d="M23.29,7.08c0,.38,0,.41-.4.58a5.28,5.28,0,0,1-2.19.48A4,4,0,0,1,16.63,4.2,4.06,4.06,0,0,1,20.91.32a7.31,7.31,0,0,1,1.94.31c.3.12.3.23.34.59s.08.68.08.84,0,.21-.2.21-.34-.36-.62-.74A1.81,1.81,0,0,0,20.84.74c-1.82,0-2.72,1.67-2.72,3.42,0,2,1.27,3.56,2.75,3.56a1.83,1.83,0,0,0,1.67-1c.25-.41.38-.84.61-.84s.22.14.2.25Z"/><path d="M25.21,1.8c0-.55,0-.84-.4-.84a5.67,5.67,0,0,0-.58.11A.17.17,0,0,1,24,.89c0-.16.23-.24.58-.31a20.5,20.5,0,0,1,3-.24,5,5,0,0,1,3.51,1.12,3.58,3.58,0,0,1,1.24,2.71C32.36,5.28,31.75,8,28,8c-.73,0-1.82,0-2.55,0-.29,0-.76,0-1,0-.11,0-.25,0-.25-.2s.14-.18.36-.18c.72,0,.73-.16.73-1.08Zm1.33,4.67c0,.94.19,1.21,1.15,1.21a2.82,2.82,0,0,0,2.33-1,3.84,3.84,0,0,0,.83-2.37A3.28,3.28,0,0,0,27.54.72c-1,0-1,.2-1,.8Z"/><path d="M34.26,1.94c0-.87,0-1-.72-1-.16,0-.36,0-.36-.18s.13-.22.25-.22l1,0,1,0,1.71,0h1.7c.23,0,.24.06.24.42s0,.72,0,1.09c0,.16,0,.32-.18.32a.29.29,0,0,1-.24-.19c-.07-.12-.13-.26-.2-.4-.3-.61-.58-.82-1.91-.82-.58,0-.8,0-.92.1s-.12.23-.12.48v1.7c0,.53,0,.53.84.53,1,0,1.16,0,1.27-.58,0-.21.07-.52.28-.52s.19.1.19.23c0,.31,0,.68,0,1s0,.72,0,1.08c0,.19,0,.28-.19.28s-.22-.3-.29-.54c-.13-.47-.38-.52-1.54-.52-.46,0-.56,0-.56.41v2c0,1,.42,1,1.36,1s1.57-.14,2-1.05c.11-.25.18-.47.37-.47s.14,0,.16.12a.85.85,0,0,1,0,.35c0,.41-.12.82-.16,1.24,0,.2,0,.22-.19.22h-4l-.92,0-.73,0c-.12,0-.25,0-.25-.22s.22-.18.36-.18c.72,0,.72-.17.72-1.07Z"/><path d="M42.62,6.6c0,.89,0,1,.77,1,.13,0,.32,0,.32.19s-.14.19-.25.19c-.4,0-.78,0-1.54,0-.47,0-1,0-1.46,0-.11,0-.25,0-.25-.19s.19-.19.36-.19c.72,0,.72-.14.72-1.05V1.92c0-.86,0-1-.72-1-.16,0-.36,0-.36-.2s.13-.19.25-.19c.55,0,1.12,0,1.67,0,1.28,0,2.75,0,3.86,0,.19,0,.19.1.19.4s0,.9,0,1.13-.1.32-.2.32-.28-.32-.47-.67C45.2,1,44.61.95,43.61.95s-1,.07-1,.62V3.25c0,.5,0,.5.83.5,1,0,1.18,0,1.28-.56,0-.22.07-.52.28-.52s.19.08.19.23c0,.31,0,.68,0,1s0,.72,0,1.07c0,.19-.06.29-.2.29s-.22-.3-.28-.54c-.14-.47-.38-.52-1.55-.52-.44,0-.55,0-.55.38Z"/><path d="M54.16,6.84a3.14,3.14,0,0,1,0,.33c0,.17-.07.22-.26.32a5.28,5.28,0,0,1-2.64.64c-3.08,0-4.35-2.15-4.35-3.77,0-2.51,2.43-4,4.68-4a5.93,5.93,0,0,1,2,.32c.34.13.32.36.32.62l0,.73c0,.16,0,.31-.25.31s-.29-.25-.55-.65A1.82,1.82,0,0,0,51.35.75C49,.75,48.42,3,48.42,4.22c0,1.58.84,3.48,3,3.48a2.12,2.12,0,0,0,1.2-.29c.19-.17.2-.52.2-.89v-1c0-.67-.12-.77-.83-.77-.17,0-.34,0-.34-.19s.23-.21.36-.21c.42,0,.79,0,1.39,0s1,0,1.4,0c.13,0,.29,0,.29.19s-.08.17-.48.22-.49.1-.49.74Z"/><path d="M58.56,4.23c-.37,0-.42,0-.42.41v2c0,.83,0,1,.68,1,.17,0,.35,0,.35.19S59,8,58.88,8c-.37,0-.86,0-1.33,0S56.41,8,56,8c-.12,0-.25,0-.25-.19s.18-.19.35-.19c.72,0,.72-.14.72-1V1.94c0-.9,0-1-.72-1-.14,0-.35,0-.35-.19s.12-.2.25-.2c.38,0,1,0,1.46,0s1.05,0,1.45,0c.12,0,.26,0,.26.2S59,.9,58.83.9c-.7,0-.7.16-.7,1v1.5c0,.32,0,.32.42.32H61.5c.36,0,.4,0,.4-.43V2c0-.92,0-1-.68-1-.16,0-.34,0-.34-.2s.08-.2.26-.2c.4,0,.83,0,1.42,0s1.1,0,1.5,0c.12,0,.25,0,.25.2s-.22.19-.36.19c-.72,0-.72.14-.72,1V6.6c0,.89,0,1,.76,1,.14,0,.32,0,.32.19s-.13.19-.25.19c-.42,0-.91,0-1.54,0s-.94,0-1.37,0c-.16,0-.28-.06-.28-.2s.17-.18.32-.19c.7,0,.7-.17.7-.9V4.64c0-.4,0-.41-.41-.41Z"/><path d="M67.38,6.6c0,.89,0,1,.77,1,.14,0,.32,0,.32.19s-.13.19-.25.19c-.37,0-.74,0-1.44,0s-1.14,0-1.55,0C65.11,8,65,8,65,7.83s.18-.19.35-.19c.72,0,.72-.14.72-1V1.94c0-.9,0-1-.72-1C65.18.9,65,.9,65,.71s.12-.2.25-.2c.4,0,.91,0,1.51,0s1.08,0,1.47,0c.12,0,.25,0,.25.2s-.23.19-.36.19c-.72,0-.73.14-.73,1Z"/><path d="M71.77,6.4a3.36,3.36,0,0,1-.83,2.67,3.6,3.6,0,0,1-2.22,1.28.84.84,0,0,1-.94-.73A.67.67,0,0,1,68.47,9a.76.76,0,0,1,.65.41c.11.14.17.26.34.26s.59-.34.72-.6a4.21,4.21,0,0,0,.26-2V1.94c0-.9,0-1-.72-1-.14,0-.36,0-.36-.19s.13-.2.25-.2c.43,0,.94,0,1.56,0s1,0,1.44,0c.11,0,.25,0,.25.2s-.23.19-.37.19c-.72,0-.72.14-.72,1Z"/><path d="M74.46,1.94c0-.9,0-1-.72-1-.14,0-.36,0-.36-.19s.13-.2.25-.2c.41,0,.84,0,1.48,0s1,0,1.44,0c.12,0,.28,0,.28.2s-.19.18-.35.19c-.68,0-.68.17-.68.95v2c0,.2,0,.3.1.3s.22-.18.32-.29c.64-.65,1.27-1.31,1.88-2,.14-.16.54-.55.54-.76S78.39.9,78.17.89s-.28,0-.28-.19S78,.5,78.15.5c.42,0,.83,0,1.34,0s.88,0,1.24,0c.11,0,.25,0,.25.19s-.2.2-.41.21a2,2,0,0,0-1.67.79c-.41.4-.8.82-1.2,1.22-.08.1-.28.24-.28.35s.16.25.2.32L79.8,6.48c.74,1,1,1.15,1.32,1.16s.38,0,.38.18-.2.2-.32.2c-.5,0-1.06,0-1.56,0s-1,0-1.45,0c-.12,0-.25,0-.25-.17s.14-.17.34-.18.49,0,.49-.29-.25-.5-.38-.67c-.53-.7-1.09-1.49-1.59-2.13-.07-.08-.26-.36-.37-.36s-.6.46-.6.68V6.69c0,.77.1.91.52.95s.5,0,.5.19-.16.19-.29.19c-.44,0-.9,0-1.48,0s-1,0-1.42,0c-.11,0-.25,0-.25-.19s.19-.19.36-.19c.72,0,.72-.14.72-1.05Z"/><path d="M82.8,1.94c0-.9,0-1-.72-1-.14,0-.35,0-.35-.19s.12-.2.25-.2c.4,0,.78,0,1.39,0S84.56.5,85,.5c.12,0,.25,0,.25.2S85,.9,84.86.9c-.72,0-.73.14-.73,1V6.38c0,.86.07,1.2,1.08,1.2a1.64,1.64,0,0,0,1.74-1.16c.1-.23.18-.41.34-.41s.18.13.17.29c0,.42-.11.86-.12,1.3S87.33,8,87,8C86,8,84.44,8,83.4,8c-.47,0-.94,0-1.4,0-.13,0-.26,0-.26-.2s.22-.19.36-.19c.71,0,.71-.14.71-1Z"/><path d="M93.87,7.83c0-.18.19-.18.46-.2.66,0,.66-.4.66-.92,0-1.46,0-3.44,0-4.92,0-.16,0-.22,0-.22s-.1.18-.17.32C94,3.77,93.19,5.65,92.4,7.51c-.07.18-.1.29-.28.29s-.23-.11-.3-.3c-.7-1.83-1.4-3.66-2.12-5.5-.06-.16-.1-.29-.13-.29s0,.12-.06.3c-.07,1.57-.28,3.65-.28,4.7,0,.72.2.92.78.94.2,0,.38,0,.38.2s-.14.18-.29.18c-.32,0-.79,0-1.1,0s-.82,0-1.13,0c-.13,0-.24,0-.24-.18s.19-.18.41-.2c.62,0,.66-.29.7-.94.1-1.7.28-4.12.32-5.1,0-.63,0-.68-.62-.7-.16,0-.34,0-.34-.23s.17-.18.42-.18l.95,0,.84,0c.14,0,.2.14.26.31.58,1.43,1.14,2.85,1.69,4.27a3.17,3.17,0,0,0,.31.72,4.57,4.57,0,0,0,.34-.73c.67-1.51,1.26-3,1.9-4.37a.31.31,0,0,1,.33-.2l.83,0,.89,0c.22,0,.4,0,.4.18s-.17.22-.53.23-.44.18-.44.94c0,1.61,0,3.2,0,4.82,0,.86.12,1,.67,1,.18,0,.32,0,.32.19S97.17,8,97,8c-.44,0-.9,0-1.36,0s-1,0-1.54,0c-.1,0-.26,0-.26-.18Z"/><path d="M98.93,1.82c0-.77,0-.91-.71-.91-.16,0-.37,0-.37-.19S98,.5,98.23.5l1,0,.83,0c.23,0,.35.18.49.37,1.2,1.62,2.42,3.21,3.66,4.81a5,5,0,0,0,.31.4V1.87c0-.82,0-1-.76-1-.13,0-.33,0-.33-.18s.13-.22.26-.22c.32,0,.67,0,1.08,0s.71,0,1,0c.13,0,.29.06.29.23s-.2.18-.4.19c-.68,0-.7.22-.7.95v6c0,.2,0,.24-.25.24a.48.48,0,0,1-.48-.26c-.2-.25-.41-.53-.6-.78-1.33-1.77-2.69-3.54-4-5.3l-.24-.3V6.63c0,.88,0,1,.85,1,.13,0,.26,0,.26.18s-.14.22-.28.22c-.31,0-.73,0-1.15,0s-.72,0-1,0c-.11,0-.25,0-.25-.22s.13-.17.38-.18c.7,0,.73-.13.73-1Z"/><path d="M106.66,4.2A4.14,4.14,0,0,1,110.9.32a4,4,0,0,1,4.26,3.88,4,4,0,0,1-4.23,3.93,4.17,4.17,0,0,1-4.27-3.92Zm7,.16c0-2.13-1.42-3.62-2.78-3.62S108.15,2,108.15,4.11s1.24,3.6,2.83,3.6c1.25,0,2.67-1.24,2.67-3.35Z"/><path d="M118.38,6.6c0,.89,0,1,.75,1,.14,0,.32,0,.32.19s-.13.19-.24.19c-.38,0-.83,0-1.51,0s-1.09,0-1.49,0c-.12,0-.25,0-.25-.19s.19-.19.36-.19c.71,0,.72-.14.72-1V1.94c0-.92,0-1-.72-1-.14,0-.35,0-.35-.19s.12-.2.25-.2c.42,0,1,0,1.55,0s1.28,0,2.05,0c2.35,0,2.52,1.77,2.52,2.11a2.29,2.29,0,0,1-2.41,2.21,2.5,2.5,0,0,1-.86-.19,2,2,0,0,0-.52-.14c-.18,0-.18.12-.18.32Zm0-3c0,.38,0,.47.18.56a2,2,0,0,0,.88.23,1.57,1.57,0,0,0,1.49-1.68A1.67,1.67,0,0,0,119.16.85c-.74,0-.78.26-.78.92Z"/><path d="M123.26,4.22A4.14,4.14,0,0,1,127.6.32a4,4,0,0,1,4.2,3.95A4,4,0,0,1,128.56,8l-.38.07.07.3a2.29,2.29,0,0,0,2.33,1.46,4.32,4.32,0,0,0,1.09-.18.18.18,0,0,1,.2.19c0,.36-1.13.53-1.75.53-1.68,0-3.43-.88-3.43-1.93a1.07,1.07,0,0,1,.06-.36A5.4,5.4,0,0,1,126.1,8a4,4,0,0,1-2.84-3.72Zm4.34,3.56c1.31,0,2.67-1.14,2.67-3.35S129.05.73,127.42.73c-1.4,0-2.65,1.39-2.65,3.29,0,1.69,1,3.77,2.82,3.77Z"/><path d="M135,6.69c0,.78,0,.92.73.95.16,0,.31,0,.31.19s-.12.19-.37.19-.92,0-1.32,0-1.09,0-1.51,0c-.11,0-.25,0-.25-.19s.19-.19.36-.19c.72,0,.72-.14.72-1V2c0-.91,0-1-.72-1.06-.14,0-.36,0-.36-.18s.13-.22.26-.22c.36,0,.77,0,1.33,0,.8,0,1.46,0,2.28,0,1.32,0,2.39.68,2.39,1.88A1.73,1.73,0,0,1,137.72,4a2.27,2.27,0,0,1-.72.2c.41,0,.55.38.73.72.31.61.62,1.24.95,1.85.19.4.37.84.88.85.18,0,.36,0,.36.2s-.18.18-.29.18l-.79,0L138,8c-.25,0-.31-.18-.43-.42l-1.12-2.37c-.4-.77-.41-.79-1.19-.79-.26,0-.28.08-.28.49Zm0-2.88c0,.2.13.26.34.26.78,0,2.06-.23,2.06-1.57A1.48,1.48,0,0,0,135.86.88c-.82,0-.84.13-.84.86Z"/><path d="M145.47,5.72c0,1.2-1.07,2.41-3,2.41a4.71,4.71,0,0,1-2-.46.54.54,0,0,1-.22-.52c0-.36,0-.74,0-1.08,0-.16,0-.36.26-.36s.28.48.36.84a1.51,1.51,0,0,0,1.61,1.24,1.54,1.54,0,0,0,1.67-1.42c0-.9-.65-1.35-1.52-1.73l-.59-.25c-.85-.36-1.67-.89-1.67-2C140.47.92,142,.32,143,.32a6.11,6.11,0,0,1,1.74.25c.22.08.22.2.22.42s0,.62,0,.94c0,.13,0,.26-.22.26s-.23-.18-.29-.32a1.41,1.41,0,0,0-1.47-1.2c-.72,0-1.4.38-1.4,1.16,0,.94,1.13,1.31,2,1.69a2.4,2.4,0,0,1,1.76,2.18Z"/><path d="M148.92,1.32c0-.32-.06-.37-.26-.37-1.22,0-1.59.06-2.13.95-.12.18-.22.38-.4.38a.17.17,0,0,1-.18-.19,1.12,1.12,0,0,1,.07-.31c.14-.49.29-1,.44-1.46,0-.14.08-.29.24-.29s.16.06.2.18.08.31.55.31h4.45c.49,0,.64,0,.74-.26s.14-.25.28-.25.18.13.19.28,0,.17,0,.21c0,.48,0,1,0,1.44,0,.16,0,.3-.23.3s-.18-.12-.23-.26c-.26-.79-.35-1-1.21-1h-.72c-.42,0-.42,0-.42.56V6.6c0,.91,0,1,.76,1,.14,0,.34,0,.34.19s-.14.19-.25.19c-.4,0-.82,0-1.48,0s-1.13,0-1.52,0c-.11,0-.25,0-.25-.19s.19-.19.36-.19c.72,0,.72-.14.72-1Z"/><path d="M155.88,5.36A3.37,3.37,0,0,0,156.13,7a2.1,2.1,0,0,0,1.78.73,2.44,2.44,0,0,0,1.82-.64,2,2,0,0,0,.4-1.51V2.15c0-1-.07-1.22-.82-1.25-.13,0-.34,0-.34-.19s.16-.2.3-.2c.3,0,.68,0,1.07,0s.71,0,1,0c.11,0,.29,0,.29.19s-.24.19-.41.21c-.64,0-.59.4-.61,1V5.55a2.23,2.23,0,0,1-.68,2,3.51,3.51,0,0,1-2.29.62,4.2,4.2,0,0,1-2.28-.55c-.71-.5-.78-1.13-.78-2.11V1.93c0-.89,0-1-.72-1-.14,0-.36,0-.36-.19s.13-.2.25-.2c.42,0,.9,0,1.47,0s1.12,0,1.51,0c.12,0,.26,0,.26.2s-.23.19-.37.19c-.72,0-.72.14-.72,1Z"/><path d="M164.9.7c0,.16-.14.19-.29.2s-.54,0-.54.24a1.52,1.52,0,0,0,.14.5l1.42,3.43a8,8,0,0,0,.49,1.13,8.39,8.39,0,0,0,.48-1.13l1.32-3.24a2.23,2.23,0,0,0,.17-.6c0-.32-.32-.32-.65-.34-.14,0-.35,0-.35-.18s.17-.22.31-.22c.3,0,.68,0,1,0s.71,0,1,0a.19.19,0,0,1,.22.19c0,.18-.18.2-.48.23s-.59.47-.86,1.16L166,7.75c-.06.17-.12.36-.35.36s-.31-.13-.4-.36q-1.22-3-2.47-6c-.17-.41-.3-.79-.72-.82s-.49,0-.49-.21.19-.2.31-.2c.34,0,1,0,1.46,0s1,0,1.27,0,.26,0,.26.18Z"/><path d="M173.95,7.68c-.11.22-.22.46-.37.46s-.28-.29-.35-.47l-2.76-6c-.28-.6-.4-.79-.73-.81s-.4,0-.4-.21.14-.17.28-.17c.42,0,.85,0,1.28,0s.8,0,1.19,0c.13,0,.29,0,.29.19s-.13.18-.29.18-.38,0-.38.25a1.68,1.68,0,0,0,.18.54l1.92,4.2c.11.22.2.44.28.44s.16-.16.24-.32l.54-1.1a1.15,1.15,0,0,0,.14-.44,2.1,2.1,0,0,0-.22-.61l-1-2.25c-.24-.52-.43-.68-.62-.7s-.33,0-.33-.18.13-.19.26-.19c.37,0,.77,0,1.15,0s.76,0,1.14,0c.12,0,.26,0,.26.2s-.13.17-.3.18S175,1,175,1.15a7.57,7.57,0,0,0,.55,1.34c.12.26.2.46.26.46s.17-.22.26-.44a9.37,9.37,0,0,0,.56-1.38c0-.21-.22-.24-.36-.25S176,.83,176,.7s.12-.19.25-.19.53,0,.79,0,.55,0,.8,0a.18.18,0,0,1,.2.19c0,.16-.14.18-.32.18-.5,0-.68.5-.89.9l-.5,1a2.38,2.38,0,0,0-.29.74,1.68,1.68,0,0,0,.19.55l.77,1.69c.07.18.19.48.25.48s.18-.31.25-.49L179.13,2a2.61,2.61,0,0,0,.23-.76c0-.3-.26-.34-.48-.35s-.3,0-.3-.18.13-.19.25-.19c.28,0,.58,0,.86,0s.58,0,.86,0c.13,0,.28.06.28.2s-.16.17-.35.18c-.41,0-.53.24-.8.9l-2.47,5.89c-.08.22-.17.46-.35.46s-.25-.25-.31-.38l-1.22-2.82h0Z"/><path d="M185.2,7.83c0-.14.18-.17.42-.18s.52,0,.52-.26a1.4,1.4,0,0,0-.32-.63c-.49-.61-1.37-1.94-1.43-1.94s-.85,1.13-1.28,1.7a2.29,2.29,0,0,0-.44.84c0,.26.25.28.61.3.2,0,.38,0,.38.2s-.17.17-.28.17-1,0-1.33,0l-1.27,0c-.12,0-.26,0-.26-.17s.13-.2.55-.23.8-.23,1.54-1.21l1.25-1.68a.65.65,0,0,0,.18-.35c0-.14-.11-.25-.2-.38q-.7-1-1.44-2c-.79-1.09-.85-1.1-1.44-1.13-.19,0-.37,0-.37-.2s.12-.19.3-.19c.35,0,.7,0,1.27,0,.9,0,1.43,0,2,0,.12,0,.24,0,.24.19s-.2.19-.32.19c-.38,0-.59,0-.59.25a1.18,1.18,0,0,0,.25.46c.49.66,1.26,1.78,1.32,1.78s.73-1,1.09-1.45a1.51,1.51,0,0,0,.37-.74c0-.25-.2-.26-.61-.29-.13,0-.28,0-.28-.19s.14-.19.3-.19c.43,0,.9,0,1.44,0s.77,0,1.08,0c.14,0,.26.06.26.22s-.12.16-.37.18c-.68,0-1.05.23-2,1.56l-.71,1c-.07.11-.19.24-.19.37s.1.23.19.36L187.61,7c.34.46.49.61.86.64.12,0,.32,0,.32.22s-.12.17-.2.17c-.24,0-1.24,0-1.76,0s-.91,0-1.27,0c-.18,0-.36,0-.36-.18Z"/><path d="M192.25,5.26a1.31,1.31,0,0,0-.32-1c-.53-.82-1.07-1.63-1.61-2.44s-.66-.94-1.26-.95c-.18,0-.32,0-.32-.2s.16-.2.3-.2c.35,0,.66,0,1.33,0s1.27,0,1.76,0c.1,0,.25,0,.25.18S192.2.9,192,.9s-.47,0-.47.25a5.36,5.36,0,0,0,.82,1.4,10.28,10.28,0,0,0,1.08,1.54,10.56,10.56,0,0,0,1.06-1.55,4.29,4.29,0,0,0,.74-1.33c0-.3-.31-.31-.62-.31-.14,0-.34,0-.34-.17s.18-.23.36-.23.68,0,1.09,0,.76,0,1.08,0c.11,0,.3,0,.3.2s-.19.18-.42.2c-.62,0-1,.72-1.33,1.15-.49.77-1,1.52-1.5,2.29a1.29,1.29,0,0,0-.28,1V6.67c0,.81,0,1,.75,1,.14,0,.34,0,.34.19s-.14.19-.25.19c-.42,0-1.05,0-1.46,0s-1.08,0-1.5,0c-.11,0-.25,0-.25-.19s.19-.19.36-.19c.7,0,.72-.13.72-.95Z"/><path d="M199.59,7.52h2c1,0,1.66-.23,1.85-1.33.07-.26.1-.34.24-.34s.23.13.23.37c0,.43,0,.94,0,1.44,0,.3,0,.32-.47.32h-5.78c-.14,0-.28,0-.28-.16a.34.34,0,0,1,.08-.19l4.32-6.26a.87.87,0,0,0,.17-.35c0-.08-.14-.08-.35-.08h-1.66a1.51,1.51,0,0,0-1.37.6c-.28.34-.35.68-.59.68a.18.18,0,0,1-.18-.18,2.06,2.06,0,0,1,.07-.34l.36-1.33c0-.1.06-.37.25-.37s.17.11.22.22c.06.26.13.29.65.29h4.16c.19,0,.26,0,.26.1s-.13.25-.26.43q-2.05,3-4.14,6c-.07.12-.17.23-.17.32s.1.11.37.11Z"/><path d="M3.65,18.24c0-.5,0-1-.67-1s-1,.37-1.22.94a.9.9,0,0,1-.46.5,1.82,1.82,0,0,1-.52.13c-.16,0-.24-.07-.24-.23,0-.65,1.14-1.68,2.75-1.68a2.14,2.14,0,0,1,1.3.35c.24.2.24.4.24.95v2.69c0,.34,0,.88.4.88a.49.49,0,0,0,.35-.14c.08-.08.14-.16.2-.16s.08.08.08.18c0,.28-.74.79-1.28.79s-.61-.38-.78-.64c-.06-.08-.11-.16-.16-.16s-.31.24-.64.44a2.48,2.48,0,0,1-1.28.41,1.08,1.08,0,0,1-1.19-1c0-.84,1-1.29,1.74-1.68.31-.13.61-.28.94-.43s.44-.23.44-.62ZM1.72,21.18a.66.66,0,0,0,.73.67,1.3,1.3,0,0,0,1-.44,1,1,0,0,0,.24-.79v-.71c0-.22,0-.3,0-.3a.76.76,0,0,0-.28.11l-.83.43c-.4.23-.78.52-.78,1Z"/><path d="M8.1,17.34c0,.08,0,.18.06.18a.86.86,0,0,0,.24-.1,3.93,3.93,0,0,1,1.71-.48,2.51,2.51,0,0,1,2.53,2.59,3.09,3.09,0,0,1-3.23,3,3,3,0,0,1-1.31-.3A2.19,2.19,0,0,0,7.58,22c-.14,0-.2.16-.3.32s-.14.35-.29.35a.2.2,0,0,1-.18-.2c0-.07,0-.24,0-.35a3.26,3.26,0,0,0,.06-.84V15.54c0-.61-.17-.62-.58-.66-.19,0-.28,0-.28-.16s.14-.16.29-.18a4.38,4.38,0,0,0,1.28-.37A.93.93,0,0,1,8,14c.13,0,.13.06.13.28Zm3.26,2.47a2.1,2.1,0,0,0-1.93-2.32,1.76,1.76,0,0,0-1.16.4c-.17.16-.17.23-.17.59v2.6c0,.29,0,1.14,1.26,1.14a2.15,2.15,0,0,0,2-2.4Z"/><path d="M13.39,19.83a3.2,3.2,0,0,1,4.68-2.52.37.37,0,0,1,.18.32,2.27,2.27,0,0,1,0,.29,2.65,2.65,0,0,1,0,.31c0,.16-.06.34-.22.34s-.43-.43-.77-.84a1,1,0,0,0-.82-.47,2.08,2.08,0,0,0-1.8,2.23,2.28,2.28,0,0,0,2.1,2.42A1.78,1.78,0,0,0,18,21.48s.18-.17.25-.17a.13.13,0,0,1,.12.14,2.33,2.33,0,0,1-2.17,1.08,2.73,2.73,0,0,1-2.78-2.69Z"/><path d="M24.62,21.21c0,.36,0,.59.19.59s.48-.37.59-.37.1,0,.1.11c0,.29-.07.43-.23.49s-.6.14-.82.21a5.22,5.22,0,0,1-.76.24c-.12,0-.14-.22-.16-.35s0-.36-.12-.36a4,4,0,0,0-.61.37,2.34,2.34,0,0,1-1.21.38A2.68,2.68,0,0,1,19,19.75a2.9,2.9,0,0,1,2.81-2.81,3.72,3.72,0,0,1,1.31.24.83.83,0,0,0,.23.07c.08,0,.1-.12.1-.25V15.44c0-.53-.17-.55-.56-.58-.16,0-.25,0-.25-.16s.11-.16.34-.18a4.14,4.14,0,0,0,1.25-.36A.89.89,0,0,1,24.5,14c.12,0,.12.07.12.25Zm-4.37-1.64c0,1,.59,2.3,1.88,2.3a1.6,1.6,0,0,0,1.18-.46c.12-.12.13-.19.13-.53V18.73a1.43,1.43,0,0,0-.24-1,1.43,1.43,0,0,0-1-.38,2.09,2.09,0,0,0-1.94,2.24Z"/><path d="M27.68,19.2c-.41,0-.47,0-.47.34a2.18,2.18,0,0,0,2.16,2.33,2.05,2.05,0,0,0,1.32-.44c.2-.17.31-.29.38-.29a.13.13,0,0,1,.13.13c0,.14-.32.46-.47.58a2.83,2.83,0,0,1-2,.7,2.75,2.75,0,0,1-2.83-2.76A2.92,2.92,0,0,1,29,16.94a2,2,0,0,1,2.25,1.94c0,.23-.08.31-.24.31Zm-.38-.56c0,.14.08.18.37.18h.86a4.39,4.39,0,0,0,1.21-.14.44.44,0,0,0,.37-.46,1.05,1.05,0,0,0-1.19-1,1.67,1.67,0,0,0-1.63,1.38Z"/><path d="M33.89,21.15c0,.62,0,.91.55.92.14,0,.35,0,.35.19s-.1.16-.18.16c-.37,0-.86,0-1.39,0s-.89,0-1.22,0c-.08,0-.19,0-.19-.14s.19-.19.35-.2c.56,0,.56-.24.56-1.07V18c0-.4,0-.43-.34-.43s-.44,0-.44-.16.19-.22.38-.26c.38-.1.35-.37.4-.76a2.66,2.66,0,0,1,.79-1.65A3,3,0,0,1,35.28,14c.36,0,1.1.16,1.1.5a1.84,1.84,0,0,1-.2.58c-.07.12-.17.23-.26.23s-.37-.21-.46-.32c-.24-.31-.43-.54-.73-.54-.71,0-.83,1-.84,1.52v.73c0,.36,0,.38.47.38h.91c.19,0,.2.07.2.23s-.06.26-.35.26h-.8c-.4,0-.43,0-.43.36Z"/><path d="M36.31,18.91a2.25,2.25,0,0,1,2.47-2,3.09,3.09,0,0,1,1.34.3,1.18,1.18,0,0,0,.67.16h.74c.34,0,.43,0,.46.33s0,.23-.25.23h-.53c-.13,0-.26,0-.26.11a.8.8,0,0,0,.08.22,1.4,1.4,0,0,1,.14.68c0,.53-.59,1.85-2.52,1.85-.56,0-1.12.24-1.12.49s.46.37.73.37h1.51c1.08,0,2,.41,2,1.3,0,1.51-2,2.15-3.45,2.15-1.24,0-2.49-.47-2.49-1.31,0-.58.55-.85,1-1.05.1,0,.37-.17.37-.26s-.26-.31-.46-.49-.46-.43-.46-.56.11-.17.48-.3.94-.34.94-.42-.19-.13-.4-.26a1.76,1.76,0,0,1-1-1.51Zm2.31,5.84A3.47,3.47,0,0,0,40,24.46a1.05,1.05,0,0,0,.7-.94c0-.74-.77-.86-1.34-.86-.76,0-1.2,0-1.6,0-.36.2-.82.52-.82,1s.64,1.14,1.67,1.14Zm.11-4.28c.89,0,1.22-.85,1.22-1.57s-.37-1.66-1.18-1.66-1.22.89-1.22,1.59.34,1.63,1.16,1.63Z"/><path d="M43.21,15.86c0-.84,0-.94-.61-1-.16,0-.25,0-.25-.17s.11-.14.33-.17a3.86,3.86,0,0,0,1.21-.36,1,1,0,0,1,.37-.16c.12,0,.12.07.12.24v3.31c0,.08,0,.14.07.14a.45.45,0,0,0,.2-.1,2.32,2.32,0,0,1,1.71-.7c1.58,0,1.78,1.18,1.78,2.13v2.08c0,.64,0,.9.53.92.14,0,.34,0,.34.19s-.1.16-.18.16c-.36,0-.89,0-1.21,0s-.91,0-1.25,0c-.11,0-.19-.06-.19-.16s.18-.17.33-.18c.43,0,.46-.25.46-.9v-2a2.53,2.53,0,0,0-.17-1.14,1.13,1.13,0,0,0-1.06-.55,1.39,1.39,0,0,0-1.07.47,1.27,1.27,0,0,0-.3,1v2.21c0,.62,0,.85.48.88.12,0,.3,0,.3.17s-.11.17-.19.17c-.34,0-.83,0-1.14,0s-1,0-1.33,0c-.08,0-.2,0-.2-.14s.2-.19.36-.2c.55,0,.55-.25.55-1.07Z"/><path d="M50.35,18.92c0-.71,0-.84-.48-.85-.25,0-.34,0-.34-.14s.17-.18.35-.22a3.5,3.5,0,0,0,1.28-.65c.11-.1.16-.16.25-.16s.12.07.12.2,0,.36,0,.56v3.48c0,.62,0,.9.53.94.14,0,.34,0,.34.18a.15.15,0,0,1-.17.16c-.37,0-.83,0-1.24,0-.61,0-1,0-1.33,0-.1,0-.2,0-.2-.14s.19-.19.35-.2c.55,0,.55-.25.55-1ZM50.93,16a.7.7,0,1,1,.72-.72.69.69,0,0,1-.72.72Z"/><path d="M54.77,22.36a2.34,2.34,0,0,1-.52,1.73,4.42,4.42,0,0,1-1.61,1.21.14.14,0,0,1-.14-.13c0-.11.06-.16.23-.26a1.9,1.9,0,0,0,.86-1.81V18.83c0-.61,0-.74-.48-.77-.2,0-.32,0-.32-.14s.17-.18.37-.23a2.91,2.91,0,0,0,1.15-.59c.16-.12.22-.19.32-.19s.13.08.13.23ZM54.17,16a.7.7,0,0,1-.7-.7.7.7,0,0,1,1.4,0,.69.69,0,0,1-.7.72Z"/><path d="M56.6,15.56c0-.62-.17-.64-.58-.66-.17,0-.26,0-.26-.17s.11-.16.25-.17a3.76,3.76,0,0,0,1.34-.4.62.62,0,0,1,.29-.13c.12,0,.13.06.13.25v5c0,.13,0,.28.07.28s.2-.12.31-.22l1.4-1.12c.18-.14.48-.38.48-.58s-.24-.22-.41-.24-.43,0-.43-.2.11-.14.29-.14.68,0,1.05,0,.85,0,1.18,0,.3,0,.3.16-.14.17-.3.18a2.11,2.11,0,0,0-1.24.55l-.85.65c-.08.07-.28.2-.28.31s.11.19.19.31l1.64,2.17c.33.46.54.65.78.65s.37,0,.37.19-.12.17-.23.17c-.43,0-.86,0-1.29,0s-.86,0-1.3,0c-.08,0-.18,0-.18-.16s.17-.17.28-.18.31,0,.31-.22a1.2,1.2,0,0,0-.25-.47l-.94-1.29c-.16-.2-.29-.41-.4-.41s-.58.3-.58.59v1.2c0,.43.19.58.42.59s.36,0,.36.18-.1.17-.22.17c-.38,0-.79,0-1.16,0s-.85,0-1.27,0c-.1,0-.2,0-.2-.14s.19-.19.35-.2c.52,0,.55-.25.55-.79Z"/><path d="M63.51,15.85c0-.86,0-.92-.6-1-.13,0-.24,0-.24-.16s.11-.14.3-.17a3,3,0,0,0,1.27-.4.85.85,0,0,1,.32-.13c.12,0,.12.07.12.25v6.86c0,.62,0,.9.53.94.14,0,.34,0,.34.18s-.1.16-.18.16c-.38,0-.82,0-1.22,0s-1,0-1.34,0c-.08,0-.2,0-.2-.14s.2-.19.36-.2c.55,0,.55-.24.55-1.07Z"/><path d="M66.85,18.91c0-.66,0-.8-.47-.83-.22,0-.31,0-.31-.13s.14-.19.36-.23a2.9,2.9,0,0,0,1.24-.66c.07-.07.14-.16.24-.16s.12.08.12.18v.42c0,.18,0,.35.07.35a7,7,0,0,0,.67-.5,2,2,0,0,1,1.2-.41,1.48,1.48,0,0,1,1.37.84c.06.11.1.16.14.16s.08,0,.17-.13a2.5,2.5,0,0,1,1.73-.86,1.55,1.55,0,0,1,1.27.54A2,2,0,0,1,75,19v2.15c0,.64,0,.9.53.92.14,0,.34,0,.34.19s-.1.16-.18.16c-.43,0-.85,0-1.26,0s-.79,0-1.17,0c-.08,0-.19,0-.19-.14s.17-.17.31-.19c.44,0,.46-.29.46-.89V18.78c0-.72-.38-1.21-1-1.21a1.59,1.59,0,0,0-1,.43,1.09,1.09,0,0,0-.32,1V21.2c0,.62,0,.86.46.89.13,0,.31,0,.31.18s-.11.16-.2.16c-.38,0-.76,0-1.12,0s-.78,0-1.15,0c-.1,0-.2,0-.2-.14s.17-.17.3-.19c.47,0,.47-.28.47-.91v-2.1a2.39,2.39,0,0,0-.14-1,1,1,0,0,0-.85-.49,1.61,1.61,0,0,0-1,.41A1.09,1.09,0,0,0,68,19v2.22c0,.63,0,.88.47.9.12,0,.3,0,.3.18s-.06.16-.18.16c-.37,0-.72,0-1.14,0s-.94,0-1.28,0c-.08,0-.2,0-.2-.14s.18-.19.34-.2c.53,0,.53-.29.53-1Z"/><path d="M77.05,18.91c0-.66,0-.79-.44-.8-.23,0-.32,0-.32-.14s.18-.18.34-.22a3.08,3.08,0,0,0,1.22-.66c.08-.08.14-.18.25-.18s.12.11.12.23v.52c0,.14,0,.22,0,.22a7.19,7.19,0,0,0,.6-.44,2.17,2.17,0,0,1,1.32-.48,1.77,1.77,0,0,1,1.37.59,2.26,2.26,0,0,1,.4,1.58v2c0,.58,0,.9.53.92.14,0,.34,0,.34.19a.15.15,0,0,1-.17.16c-.37,0-.92,0-1.32,0s-.79,0-1.12,0c-.1,0-.19,0-.19-.16s.17-.17.3-.19c.46,0,.46-.32.46-.92V19.22a2.17,2.17,0,0,0-.18-1.07,1.16,1.16,0,0,0-1-.5,1.42,1.42,0,0,0-1,.44,1.17,1.17,0,0,0-.32,1v2.09c0,.6,0,.9.47.92.11,0,.3,0,.3.18a.17.17,0,0,1-.19.17c-.34,0-.8,0-1.22,0s-.85,0-1.2,0c-.07,0-.19,0-.19-.14s.18-.19.33-.2c.53,0,.53-.32.53-1.07Z"/><path d="M86.36,22.53a2.89,2.89,0,0,1-3-2.82,3.07,3.07,0,0,1,6.1,0,2.91,2.91,0,0,1-3.06,2.84Zm.08-.33c1.15,0,1.73-1.42,1.73-2.36,0-1.25-.61-2.55-1.81-2.55s-1.79,1-1.79,2.3.71,2.62,1.86,2.62Z"/><path d="M92,23.81c0,.67,0,.91.55.94.16,0,.36,0,.36.18s-.11.16-.19.16c-.36,0-.85,0-1.27,0s-1,0-1.33,0c-.08,0-.2,0-.2-.14s.2-.18.36-.19c.55,0,.55-.24.55-1.07V19c0-.68,0-.85-.49-.88-.26,0-.36,0-.36-.13s.14-.19.34-.23a3.3,3.3,0,0,0,1.27-.65c.13-.11.19-.18.29-.18s.13.08.13.2v.43c0,.11,0,.17,0,.17a5.28,5.28,0,0,0,.48-.31,2.9,2.9,0,0,1,1.49-.47,2.67,2.67,0,0,1,2.47,2.76,2.81,2.81,0,0,1-2.93,2.84,3.42,3.42,0,0,1-1.18-.23,1.11,1.11,0,0,0-.29-.06c-.1,0-.1.06-.1.32Zm3.21-3.92a2.05,2.05,0,0,0-1.9-2.29,1.37,1.37,0,0,0-1.15.53,1.28,1.28,0,0,0-.17.72v2a1.32,1.32,0,0,0,.31,1,1.46,1.46,0,0,0,.94.33,2.08,2.08,0,0,0,2-2.27Z"/><path d="M101.73,22.36c0-.19,0-.28-.08-.28a1.31,1.31,0,0,0-.4.19,2.76,2.76,0,0,1-3.92-2.61,2.89,2.89,0,0,1,3.08-2.72,3.21,3.21,0,0,1,1.31.24,5.17,5.17,0,0,0,.64.34c.12,0,.19-.12.3-.34s.16-.31.3-.31a.13.13,0,0,1,.14.13,1,1,0,0,1,0,.23,6.24,6.24,0,0,0-.14,1.52v5.06c0,.67,0,.91.56.94.14,0,.35,0,.35.18s-.1.16-.18.16c-.37,0-.84,0-1.31,0s-1,0-1.31,0c-.08,0-.19,0-.19-.14s.19-.18.35-.19c.55,0,.55-.25.55-1Zm-3.15-2.61a2.17,2.17,0,0,0,2,2.27,1.28,1.28,0,0,0,1-.43,1.2,1.2,0,0,0,.12-.71V18.6a1.8,1.8,0,0,0-.11-.82,1.21,1.21,0,0,0-1-.44,2.16,2.16,0,0,0-2.06,2.4Z"/><path d="M104.93,19c0-.71,0-.85-.46-.87-.25,0-.34,0-.34-.14s.13-.18.38-.24a3,3,0,0,0,1.14-.61c.14-.13.19-.2.3-.2s.14.11.14.24v.56c0,.17,0,.23.06.23s.2-.23.41-.42a1.5,1.5,0,0,1,1-.52.71.71,0,0,1,.77.68.59.59,0,0,1-.61.61.62.62,0,0,1-.48-.25.57.57,0,0,0-.4-.24c-.25,0-.43.23-.56.42a1.73,1.73,0,0,0-.23,1.09v1.83c0,.59,0,.91.61.92.17,0,.43,0,.43.19s-.11.16-.26.16c-.34,0-.83,0-1.36,0s-1,0-1.29,0c-.1,0-.2,0-.2-.14s.19-.19.35-.2c.55,0,.55-.31.55-1.07Z"/><path d="M108.95,18.51c0-.76.74-1.57,2.27-1.57a5.72,5.72,0,0,1,1.38.19c.13,0,.14.16.14.26s0,.23,0,.32,0,.23,0,.32,0,.28-.18.28-.23-.32-.49-.66a1.14,1.14,0,0,0-1-.42c-.44,0-1,.3-1,.79s.65.8,1.39,1.07,1.52.6,1.52,1.58c0,1.14-1.27,1.85-2.47,1.85a4.22,4.22,0,0,1-1.62-.36.32.32,0,0,1-.17-.17.83.83,0,0,1,0-.29c0-.26,0-.53,0-.79s0-.31.22-.31.25.35.41.78a1.3,1.3,0,0,0,2.48-.23c0-.64-.53-.88-1.13-1.1s-1.8-.59-1.8-1.54Z"/><path d="M115.45,20.65c0,.59.07,1.26.66,1.26a1,1,0,0,0,.55-.19c.18-.11.26-.19.32-.19a.12.12,0,0,1,.12.12,1.72,1.72,0,0,1-1.56.89,1.27,1.27,0,0,1-1-.37c-.3-.34-.31-.66-.31-1.43v-3c0-.22,0-.24-.18-.24h-.32c-.14,0-.26,0-.26-.16s.08-.17.23-.23a2.62,2.62,0,0,0,1.34-1.31c.06-.14.11-.22.23-.22s.14.1.14.18v1c0,.16,0,.25.19.26l1.22,0c.13,0,.13.08.13.23s0,.3-.2.3l-.91,0c-.37,0-.43,0-.43.31Z"/><path d="M119.26,20.18c0,.72,0,1.67,1.25,1.67a1.38,1.38,0,0,0,1.13-.49c.18-.19.18-.31.18-.78V18.33c0-.6,0-.9-.48-.91-.13,0-.35,0-.35-.18s.06-.16.22-.16.59,0,.85,0,.55,0,.78,0,.16,0,.16.28v3.77c0,.37,0,.55.48.54.19,0,.35,0,.35.12s-.2.17-.49.22a5.12,5.12,0,0,0-1.25.48c-.06,0-.13.07-.18.07s-.08-.06-.08-.14v-.47c0-.12,0-.24-.1-.24a.5.5,0,0,0-.22.12,2.51,2.51,0,0,1-1.65.71,1.67,1.67,0,0,1-1.39-.65,2.48,2.48,0,0,1-.37-1.61V18.33c0-.66,0-.89-.53-.92-.13,0-.32,0-.32-.18s0-.14.19-.14l.9,0c.23,0,.53,0,.76,0s.18.16.18.41Z"/><path d="M126.92,17.27c0,.13-.1.13-.32.14s-.38.11-.38.32a1.92,1.92,0,0,0,.16.53c.23.58.46,1.15.7,1.73a4.36,4.36,0,0,0,.42,1,6.81,6.81,0,0,0,.48-1c.28-.58.53-1.14.79-1.71a2.14,2.14,0,0,0,.13-.52c0-.23-.22-.31-.41-.31s-.32,0-.32-.19.12-.14.24-.14.59,0,.89,0,.62,0,.78,0,.22,0,.22.12-.19.18-.32.22c-.47.06-.66.6-.86,1.05L127.51,22c-.13.29-.22.53-.46.53s-.32-.12-.4-.29c-.55-1.38-1.12-2.71-1.67-4.07-.22-.52-.26-.71-.72-.73-.13,0-.28,0-.28-.19s.11-.14.28-.14.77,0,1.24,0,.92,0,1.16,0,.25,0,.25.17Z"/><path d="M133.69,22.29c0,.13-.08.21-.34.21a.31.31,0,0,1-.34-.25l-1.82-4.06c-.2-.47-.34-.77-.76-.78-.14,0-.3,0-.3-.17s.12-.16.29-.16c.91,0,1.87,0,2.81,0s2,0,2.89,0c.16,0,.28,0,.28.16s-.14.16-.25.17-.37.07-.37.26a1.69,1.69,0,0,0,.16.48L137,20.54c.06.16.13.38.19.38s.13-.23.2-.4l.89-2.11a1.63,1.63,0,0,0,.18-.65.35.35,0,0,0-.35-.37c-.11,0-.34,0-.34-.16s.14-.16.24-.16c.26,0,.54,0,.84,0s.55,0,.83,0c.11,0,.2,0,.2.16s-.19.14-.35.17c-.4.06-.58.43-.74.8l-1.69,4.07a.28.28,0,0,1-.3.23.31.31,0,0,1-.35-.24l-1.36-3.17h0Zm-.74-4.88c-.29,0-.58.06-.58.3a2.25,2.25,0,0,0,.23.7l1,2.16c.08.18.16.38.22.38s.13-.2.22-.38l.65-1.45a2,2,0,0,0,.17-.5,2.26,2.26,0,0,0-.26-.66c-.24-.5-.34-.54-.86-.54Z"/><path d="M143.17,22.25c0-.13.13-.14.35-.16s.41,0,.41-.22a1.23,1.23,0,0,0-.28-.5c-.34-.43-.88-1.16-.92-1.16a7.07,7.07,0,0,0-.72.85,1.81,1.81,0,0,0-.42.77c0,.22.25.23.42.25s.29,0,.29.18-.16.16-.25.16c-.29,0-.59,0-1,0s-.76,0-1.08,0c-.08,0-.2,0-.2-.14s.17-.19.4-.22c.5,0,.94-.52,1.24-.9l.83-1c.06-.08.19-.23.19-.33a.39.39,0,0,0-.11-.19c-.38-.52-.78-1-1.16-1.52s-.48-.67-1-.68c-.12,0-.31,0-.31-.16a.17.17,0,0,1,.19-.17c.46,0,.83,0,1.34,0s1,0,1.39,0c.1,0,.23,0,.23.14s-.08.17-.26.17-.4,0-.4.22.19.38.28.5c.24.3.65.9.7.9a6.41,6.41,0,0,0,.62-.76c.08-.11.34-.42.34-.59s-.23-.28-.4-.29-.26,0-.26-.14.11-.16.22-.16c.3,0,.62,0,1,0s.7,0,1,0c.12,0,.25,0,.25.16s-.2.16-.32.17c-.62,0-.9.29-1.34.86-.2.24-.4.49-.6.74-.07.08-.22.23-.22.36s.12.24.2.34c.42.56.84,1.14,1.25,1.7s.59.65.95.67c.08,0,.25,0,.25.17s-.16.17-.32.17c-.41,0-.9,0-1.38,0s-.89,0-1.21,0c-.1,0-.2,0-.2-.16Z"/><path d="M147.27,24.58c0-.4.12-.54.67-.54a2,2,0,0,0,.41,0c.2-.07.35-.42.49-.76a2.78,2.78,0,0,0,.26-.74,1.59,1.59,0,0,0-.16-.48c-.58-1.27-1.14-2.54-1.7-3.81-.2-.43-.31-.81-.74-.83-.1,0-.29,0-.29-.16s.16-.17.29-.17c.34,0,.72,0,1.36,0s.88,0,1.21,0a.17.17,0,0,1,.19.17c0,.12-.18.14-.29.16s-.53.07-.53.34a1.4,1.4,0,0,0,.14.47c.41,1,1.15,2.81,1.24,2.81s.79-1.8,1.21-2.73a1.51,1.51,0,0,0,.16-.48c0-.32-.31-.38-.56-.41-.08,0-.25,0-.25-.13s.11-.18.22-.18c.3,0,.58,0,.91,0s.64,0,.9,0c.11,0,.23,0,.23.18s-.17.13-.29.16c-.38,0-.61.33-.91,1-.7,1.55-1.35,3.12-2,4.68a13.61,13.61,0,0,0-.61,1.48c-.12.41-.16.53-.77.53-.46,0-.75-.08-.75-.52Z"/><path d="M157.63,20.82c.13,0,.16.17.16.3,0,.29,0,.59,0,.89s0,.4-.23.38h-4.39c-.16,0-.25,0-.25-.13A.75.75,0,0,1,153,22l3-4.13a.53.53,0,0,0,.14-.26c0-.08-.13-.08-.2-.08h-1.29a1.21,1.21,0,0,0-1.1.55c-.07.08-.14.23-.28.23a.14.14,0,0,1-.16-.13c0-.13.29-.91.38-1.21,0-.11.11-.35.24-.35s.14.12.17.23c0,.31.24.31.61.31h3c.2,0,.25,0,.25.1a.8.8,0,0,1-.17.34l-2.9,4.07c-.08.12-.18.23-.18.3s.18.1.38.1h.94c1.1,0,1.28-.22,1.56-.94,0-.11.07-.26.23-.26Z"/><path d="M.49,33c0-1.66.86-4,2.83-4s2.82,2.28,2.82,4-.83,4-2.82,4S.49,34.68.49,33Zm1.33,0c0,1.31.14,3.56,1.5,3.56S4.81,34.36,4.81,33s-.17-3.55-1.51-3.55S1.82,31.65,1.82,33Z"/><path d="M9.27,30.33c0-.19,0-.29-.17-.29a4.1,4.1,0,0,0-.71.24,3.32,3.32,0,0,1-.67.24c-.1,0-.18,0-.18-.17S7.7,30.13,8,30c.86-.29,1.51-.58,2-.8a1.49,1.49,0,0,1,.35-.11c.07,0,.16,0,.16.18v6c0,.8,0,1,.76,1.06.29,0,.59,0,.59.22s-.14.23-.28.23c-.3,0-1,0-1.79,0s-1.5,0-1.77,0-.28,0-.28-.22.13-.22.67-.23c.8,0,.8-.23.8-1Z"/><path d="M18.55,31.08c0,1.21-1,2-2,2.81-.5.44-1,.86-1.51,1.33-.18.14-.32.3-.32.38s.08.06.23.06h2.31c.64,0,.84-.08,1-.66,0-.12.11-.31.26-.31s.17.08.17.32c0,.5,0,1,0,1.55,0,.17-.06.24-.25.24h-.65l-1.64,0-2.25,0c-.28,0-.41,0-.41-.17s.26-.47.4-.6l1.49-1.69c.72-.8,1.83-2,1.83-3.17a1.47,1.47,0,0,0-1.52-1.54,1.88,1.88,0,0,0-1.62,1c-.08.11-.13.23-.26.23a.15.15,0,0,1-.14-.17,2.46,2.46,0,0,1,2.54-1.61,2.16,2.16,0,0,1,2.42,2Z"/><path d="M25.21,34.27c0,2.16-2.65,3.55-4.1,3.55-.41,0-1.35-.14-1.35-.82a.58.58,0,0,1,.6-.56.81.81,0,0,1,.71.49c.19.29.31.42.6.42a2.52,2.52,0,0,0,2.23-2.47,1.84,1.84,0,0,0-1.87-2,2.78,2.78,0,0,0-1.32.38.91.91,0,0,1-.32.12.18.18,0,0,1-.18-.18c0-.11.08-.17.17-.23s.47-.34.66-.46c.9-.58,2-1.19,2-2a1,1,0,0,0-1-.92,1.65,1.65,0,0,0-1.2.59c-.16.17-.23.35-.36.35s-.16-.07-.16-.18.61-1.23,2.27-1.23c.79,0,1.83.36,1.83,1.31,0,.67-.66,1.05-1.18,1.34-.25.13-.52.26-.76.37-.07,0-.22.08-.22.12s0,0,0,0a4,4,0,0,1,.72-.11,2.08,2.08,0,0,1,2.24,2.07Z"/><path d="M30.8,34.38c-.19,0-.23,0-.23.2v1.13c0,.58.07.71.73.71.18,0,.34,0,.34.22s-.18.19-.34.19c-.34,0-.67,0-1.22,0-.86,0-1.28,0-1.64,0-.12,0-.24,0-.24-.18s.16-.2.47-.22c.6,0,.65-.24.65-.73v-1c0-.29,0-.3-.38-.3H26.2c-.16,0-.22,0-.22-.22s0-.25.24-.54c1.33-1.72,2.65-3.46,4-5.17.11-.14.16-.2.3-.2h.32c.07,0,.14,0,.14.1s0,.11-.1.17c-1.37,1.64-2.79,3.38-4,5a2,2,0,0,0-.25.35c0,.06.06.06.17.06H29c.29,0,.29-.06.29-.41V31.56c0-.17,0-.19.19-.26s.88-.37,1-.37.1.12.1.26v2.42c0,.2,0,.26.16.28h.94c.13,0,.13.13.13.29s0,.2-.14.2Z"/><path d="M37.84,34.21a3.28,3.28,0,0,1-2,2.66,8,8,0,0,1-2.88.82c-.12,0-.26,0-.26-.17s.17-.18.37-.2a6.62,6.62,0,0,0,2.1-.62,2.5,2.5,0,0,0,1.39-2.06A1.66,1.66,0,0,0,35.19,33a10.93,10.93,0,0,0-2.11-.35c-.2,0-.31,0-.31-.16a.94.94,0,0,1,.08-.26c.25-.83.5-1.64.77-2.47.11-.37.14-.38.54-.43.84-.1,2.85-.36,3.2-.38.1,0,.14,0,.14.1s-.17.7-.2.82-.11.14-.44.19l-2.5.29c-.48.06-.54.06-.66.44a6.67,6.67,0,0,0-.19.68c0,.14.17.14.34.17a7.91,7.91,0,0,1,2.72.6,2.18,2.18,0,0,1,1.27,2Z"/><path d="M44.49,34.21A2.67,2.67,0,0,1,41.84,37c-1.94,0-3-1.94-3-3.57a5.74,5.74,0,0,1,2.93-4.5,7.25,7.25,0,0,1,2.43-1c.12,0,.25,0,.25.16s-.24.23-.54.32a5.35,5.35,0,0,0-3.77,5.13c0,1.2.47,3.13,1.75,3.13.72,0,1.32-.74,1.32-2s-.59-2.34-1.38-2.41c-.53,0-.68.37-.82.36s-.08-.08-.08-.14c0-.24.56-.74,1.39-.74a2.33,2.33,0,0,1,2.15,2.53Z"/><path d="M50.91,29.45a1.38,1.38,0,0,1-.12.28c-.66,1.45-1.68,3.67-2.36,5.19-.3.67-.74,1.69-1,2.29-.07.17-.13.25-.22.25h-.34c-.07,0-.1,0-.1-.07s.07-.19.13-.32c.91-2,1.81-4.05,2.72-6.08a1.12,1.12,0,0,0,.11-.3c0-.13-.13-.16-.25-.16H46.13a2.23,2.23,0,0,0-.65.11c-.12,0-.13-.13-.13-.23,0-.29,0-.68,0-.89s0-.23.2-.23l2.54,0,2.52,0c.17,0,.35,0,.35.14Z"/><path d="M54.61,29.08c1.09,0,2.46.53,2.46,1.81,0,.86-.65,1.16-1.31,1.45l-.3.16a3.46,3.46,0,0,1,.85.37,1.92,1.92,0,0,1,1.07,1.68c0,1.08-.88,2.45-3,2.45-1.8,0-2.81-1.14-2.81-2.1s.84-1.38,1.55-1.69l.36-.14a4.16,4.16,0,0,1-.7-.34,1.79,1.79,0,0,1-.92-1.54c0-.8.73-2.11,2.74-2.11Zm-.16,7.57A1.62,1.62,0,0,0,56.19,35a1.54,1.54,0,0,0-1.07-1.43A5.76,5.76,0,0,0,54,33.26,1.91,1.91,0,0,0,52.65,35a1.64,1.64,0,0,0,1.79,1.64Zm.4-4.38a1.49,1.49,0,0,0,1.21-1.42,1.46,1.46,0,0,0-1.57-1.43,1.38,1.38,0,0,0-1.5,1.3A1.45,1.45,0,0,0,54.07,32a3.64,3.64,0,0,0,.77.23Z"/><path d="M58,31.82a2.77,2.77,0,0,1,2.81-2.75,3,3,0,0,1,2.88,3.19c0,2.18-1.69,3.71-3.2,4.68A6.92,6.92,0,0,1,58.37,38a.18.18,0,0,1-.18-.18c0-.14.19-.22.52-.36,1.68-.75,3.71-2.67,3.71-5,0-1.51-.74-3-1.76-3-.86,0-1.33.86-1.33,1.85,0,.83.42,2.17,1.43,2.24.4,0,.62-.22.71-.19a.14.14,0,0,1,.1.12c0,.21-.59.6-1.31.6A2.19,2.19,0,0,1,58,31.83Z"/></g></g></svg>