<svg xmlns="http://www.w3.org/2000/svg" viewBox="0 0 206.49 37.7"><title>font-Helvetica</title><g id="Layer_2" data-name="Layer 2"><g id="Layer_1-2" data-name="Layer 1"><path d="M4.6.2,7.94,8.77H6.68L5.75,6.19H2.12l-1,2.58H0L3.34.2Zm.79,5L4,1.24h0l-1.45,4Z"/><path d="M11.89.2h.59l.63,0a4.54,4.54,0,0,1,.58.09,1.44,1.44,0,0,1,.46.18,2.24,2.24,0,0,1,.71.7,1.94,1.94,0,0,1,.29,1.09,2.09,2.09,0,0,1-.33,1.18,2,2,0,0,1-.94.74v0A2,2,0,0,1,15.11,5a2.16,2.16,0,0,1,.42,1.34,2.56,2.56,0,0,1-.17.91,2.3,2.3,0,0,1-.5.79,2.5,2.5,0,0,1-.82.55,2.81,2.81,0,0,1-1.12.21H8.78V.2Zm.31,3.68a2.24,2.24,0,0,0,1.4-.34,1.23,1.23,0,0,0,.43-1,1.52,1.52,0,0,0-.14-.72,1,1,0,0,0-.4-.41,1.55,1.55,0,0,0-.58-.19,5.7,5.7,0,0,0-.7,0H9.92V3.89Zm.58,3.92A1.64,1.64,0,0,0,14,7.4a1.49,1.49,0,0,0,.43-1.13,1.4,1.4,0,0,0-.16-.7,1.21,1.21,0,0,0-.41-.44,1.71,1.71,0,0,0-.59-.23,3.53,3.53,0,0,0-.7-.07H9.92v3Z"/><path d="M22.18,1.42A2.64,2.64,0,0,0,20.63,1a2.78,2.78,0,0,0-1.31.29,2.58,2.58,0,0,0-.9.77,3.34,3.34,0,0,0-.52,1.11,5,5,0,0,0-.17,1.3,5.54,5.54,0,0,0,.17,1.39A3.3,3.3,0,0,0,18.41,7a2.58,2.58,0,0,0,.91.77A2.82,2.82,0,0,0,20.64,8a2.56,2.56,0,0,0,1-.19,2.29,2.29,0,0,0,.76-.52,2.37,2.37,0,0,0,.5-.79,3.26,3.26,0,0,0,.22-1h1.14a3.9,3.9,0,0,1-1.12,2.52,3.61,3.61,0,0,1-2.59.9,4.12,4.12,0,0,1-1.74-.34,3.41,3.41,0,0,1-1.24-.94,4,4,0,0,1-.74-1.42,6,6,0,0,1-.25-1.75,5.72,5.72,0,0,1,.26-1.76,4.23,4.23,0,0,1,.77-1.43,3.62,3.62,0,0,1,1.27-1A4.09,4.09,0,0,1,20.64,0a4.4,4.4,0,0,1,1.27.18A3.41,3.41,0,0,1,23,.71a3,3,0,0,1,.78.87,3.19,3.19,0,0,1,.41,1.21H23A2.12,2.12,0,0,0,22.18,1.42Z"/><path d="M28.61.2a4.27,4.27,0,0,1,3,1,4,4,0,0,1,1.07,3.07,6.92,6.92,0,0,1-.24,1.91,3.57,3.57,0,0,1-.74,1.4,3.23,3.23,0,0,1-1.28.87,5.14,5.14,0,0,1-1.85.3H25.67V.2Zm.1,7.61.48,0a2.71,2.71,0,0,0,.61-.14,2.82,2.82,0,0,0,.64-.33A2.16,2.16,0,0,0,31,6.72a3.28,3.28,0,0,0,.41-.93,4.89,4.89,0,0,0,.16-1.35,5.76,5.76,0,0,0-.15-1.37,2.64,2.64,0,0,0-.49-1,2.17,2.17,0,0,0-.88-.65,3.53,3.53,0,0,0-1.33-.22H26.81V7.81Z"/><path d="M40,.2v1H35.26V3.89h4.45v1H35.26v3h4.81v1h-6V.2Z"/><path d="M47.08.2v1H42.59V3.89h3.94v1H42.59V8.77H41.45V.2Z"/><path d="M53.49,8.67A4.07,4.07,0,0,1,52,9a4,4,0,0,1-1.72-.35,3.88,3.88,0,0,1-1.28-1,4.17,4.17,0,0,1-.8-1.38,4.81,4.81,0,0,1-.28-1.62,6.05,6.05,0,0,1,.26-1.78,4.39,4.39,0,0,1,.77-1.48,3.73,3.73,0,0,1,1.27-1A4,4,0,0,1,52,0a5.15,5.15,0,0,1,1.31.16,3.29,3.29,0,0,1,1.1.51,3,3,0,0,1,.82.88,3.47,3.47,0,0,1,.45,1.29H54.54A2.24,2.24,0,0,0,54.23,2a2,2,0,0,0-.56-.58,2.48,2.48,0,0,0-.76-.34A3.53,3.53,0,0,0,52,1a2.61,2.61,0,0,0-2.25,1.13,3.59,3.59,0,0,0-.52,1.16,5.34,5.34,0,0,0-.17,1.34,4.32,4.32,0,0,0,.19,1.29A3.35,3.35,0,0,0,49.81,7a2.77,2.77,0,0,0,.92.76A2.72,2.72,0,0,0,52,8a3,3,0,0,0,1.19-.22,2.45,2.45,0,0,0,1.4-1.48,2.92,2.92,0,0,0,.16-1.1H52v-1h3.76V8.77H55l-.3-1.07A2.85,2.85,0,0,1,53.49,8.67Z"/><path d="M58.58.2V3.89H63.1V.2h1.14V8.77H63.1V4.85H58.58V8.77H57.44V.2Z"/><path d="M67.3.2V8.77H66.16V.2Z"/><path d="M73.44,7.49a2,2,0,0,1-.42.75,2.08,2.08,0,0,1-.78.53A3.21,3.21,0,0,1,71,9a2.54,2.54,0,0,1-1.85-.63,2.48,2.48,0,0,1-.65-1.85V6h1.14v.36a3.64,3.64,0,0,0,.06.68,1.49,1.49,0,0,0,.21.54,1,1,0,0,0,.42.35,1.64,1.64,0,0,0,.69.13,1.23,1.23,0,0,0,1.07-.42,1.94,1.94,0,0,0,.29-1.13V.2h1.14V6.63A3,3,0,0,1,73.44,7.49Z"/><path d="M76.58.2V4.48L80.93.2H82.4L78.79,3.66l3.76,5.11H81.11L78,4.44,76.58,5.77v3H75.44V.2Z"/><path d="M84.59.2V7.81h4.54v1H83.45V.2Z"/><path d="M91.7.2l2.7,7.2L97.11.2h1.56V8.77H97.6V1.64h0L94.9,8.77h-1L91.25,1.64h0V8.77H90.14V.2Z"/><path d="M101.77.2l4.51,6.95h0V.2h1.08V8.77h-1.25L101.66,1.9h0V8.77h-1.08V.2Z"/><path d="M109,2.8a4.24,4.24,0,0,1,.77-1.43,3.77,3.77,0,0,1,1.28-1,4.49,4.49,0,0,1,3.58,0,3.77,3.77,0,0,1,1.28,1,4.28,4.28,0,0,1,.77,1.43,5.65,5.65,0,0,1,0,3.37,4.28,4.28,0,0,1-.77,1.43,3.71,3.71,0,0,1-1.28,1,4.56,4.56,0,0,1-3.58,0,3.71,3.71,0,0,1-1.28-1A4.24,4.24,0,0,1,109,6.17a5.65,5.65,0,0,1,0-3.37Zm1,3a3.47,3.47,0,0,0,.53,1.13,2.69,2.69,0,0,0,.92.81,3.1,3.1,0,0,0,2.69,0,2.69,2.69,0,0,0,.92-.81,3.47,3.47,0,0,0,.53-1.13,4.95,4.95,0,0,0,0-2.56,3.47,3.47,0,0,0-.53-1.13,2.69,2.69,0,0,0-.92-.81,3.1,3.1,0,0,0-2.69,0,2.69,2.69,0,0,0-.92.81,3.47,3.47,0,0,0-.53,1.13,4.95,4.95,0,0,0,0,2.56Z"/><path d="M122.11.2a2.66,2.66,0,0,1,2,.67,2.53,2.53,0,0,1,.67,1.87,2.55,2.55,0,0,1-.67,1.87,2.61,2.61,0,0,1-2,.66h-2.62v3.5h-1.14V.2Zm-.38,4.1a2,2,0,0,0,1.42-.4,1.51,1.51,0,0,0,.45-1.18,1.49,1.49,0,0,0-.45-1.17,2.1,2.1,0,0,0-1.42-.4h-2.23V4.31Z"/><path d="M131.81,8.46a4,4,0,0,1-2.05.5A4.11,4.11,0,0,1,128,8.6a3.71,3.71,0,0,1-1.28-1,4.24,4.24,0,0,1-.77-1.43,5.65,5.65,0,0,1,0-3.37,4.24,4.24,0,0,1,.77-1.43,3.77,3.77,0,0,1,1.28-1,4.49,4.49,0,0,1,3.58,0,3.77,3.77,0,0,1,1.28,1,4.28,4.28,0,0,1,.77,1.43,5.54,5.54,0,0,1,.26,1.69,5.42,5.42,0,0,1-.32,1.87,4.17,4.17,0,0,1-1,1.54l1.13.89-.58.72Zm-.07-1.22A3.07,3.07,0,0,0,132.48,6a4.8,4.8,0,0,0,.24-1.52,5,5,0,0,0-.17-1.28A3.47,3.47,0,0,0,132,2.08a2.69,2.69,0,0,0-.92-.81,3.1,3.1,0,0,0-2.69,0,2.69,2.69,0,0,0-.92.81A3.47,3.47,0,0,0,127,3.21a4.95,4.95,0,0,0,0,2.56,3.47,3.47,0,0,0,.53,1.13,2.69,2.69,0,0,0,.92.81,2.77,2.77,0,0,0,1.34.31,3.06,3.06,0,0,0,1.19-.24L130,7l.6-.7Z"/><path d="M139.28.2a2.82,2.82,0,0,1,1.91.6,2.06,2.06,0,0,1,.69,1.64,2.6,2.6,0,0,1-.35,1.37,1.82,1.82,0,0,1-1.13.8v0a1.54,1.54,0,0,1,.61.24,1.33,1.33,0,0,1,.37.4,1.8,1.8,0,0,1,.2.52,5.62,5.62,0,0,1,.1.6c0,.21,0,.42,0,.63a5.43,5.43,0,0,0,.06.64,4,4,0,0,0,.14.59,1.48,1.48,0,0,0,.27.5h-1.27a.71.71,0,0,1-.16-.36,3.62,3.62,0,0,1-.05-.51c0-.19,0-.39,0-.61a4.27,4.27,0,0,0-.07-.63c0-.21-.07-.41-.12-.59a1.39,1.39,0,0,0-.23-.49,1.13,1.13,0,0,0-.41-.34,1.52,1.52,0,0,0-.67-.13h-2.78V8.77h-1.14V.2Zm.24,3.89a1.64,1.64,0,0,0,.63-.23,1.27,1.27,0,0,0,.43-.47,1.57,1.57,0,0,0,.16-.76,1.54,1.54,0,0,0-.36-1.06,1.48,1.48,0,0,0-1.16-.41h-2.83v3h2.38A4.6,4.6,0,0,0,139.52,4.09Z"/><path d="M147.76,1.37A2.42,2.42,0,0,0,146.3,1a3.5,3.5,0,0,0-.71.07,1.91,1.91,0,0,0-.62.24,1.26,1.26,0,0,0-.43.45,1.4,1.4,0,0,0-.16.7.89.89,0,0,0,.23.64,1.73,1.73,0,0,0,.62.4,5,5,0,0,0,.88.26l1,.22q.51.12,1,.28a3.29,3.29,0,0,1,.88.44,2.08,2.08,0,0,1,.62.7,2.15,2.15,0,0,1,.23,1.06,2.15,2.15,0,0,1-.31,1.17,2.51,2.51,0,0,1-.79.79,3.42,3.42,0,0,1-1.07.45,5.22,5.22,0,0,1-1.18.14,5,5,0,0,1-1.36-.18A3.35,3.35,0,0,1,144,8.24a2.58,2.58,0,0,1-.77-.94A3,3,0,0,1,143,6h1.08a1.93,1.93,0,0,0,.21.93,1.89,1.89,0,0,0,.55.64,2.33,2.33,0,0,0,.8.37,3.66,3.66,0,0,0,.94.12,4.18,4.18,0,0,0,.77-.07,2.27,2.27,0,0,0,.7-.25,1.39,1.39,0,0,0,.5-.47,1.4,1.4,0,0,0,.19-.77,1.08,1.08,0,0,0-.23-.72,1.73,1.73,0,0,0-.62-.45A4.63,4.63,0,0,0,147,5l-1-.22q-.51-.11-1-.26a3.6,3.6,0,0,1-.88-.4,1.88,1.88,0,0,1-.62-.64,1.87,1.87,0,0,1-.23-1,2.28,2.28,0,0,1,.26-1.12,2.31,2.31,0,0,1,.7-.78,3.16,3.16,0,0,1,1-.46A4.37,4.37,0,0,1,146.35,0a4.6,4.6,0,0,1,1.22.16,2.79,2.79,0,0,1,1,.49,2.37,2.37,0,0,1,.67.85,3,3,0,0,1,.27,1.22h-1.08A1.79,1.79,0,0,0,147.76,1.37Z"/><path d="M150.33,1.16V.2h6.85v1h-2.86V8.77h-1.14V1.16Z"/><path d="M164.1,8.14a3.51,3.51,0,0,1-2.5.82A3.89,3.89,0,0,1,159,8.18a3.1,3.1,0,0,1-.93-2.5V.2h1.14V5.68a2.33,2.33,0,0,0,.61,1.75A2.43,2.43,0,0,0,161.6,8a2.2,2.2,0,0,0,1.66-.59,2.43,2.43,0,0,0,.57-1.75V.2H165V5.68A3.23,3.23,0,0,1,164.1,8.14Z"/><path d="M168.87,8.77l-3-8.57h1.22l2.45,7.43h0L172,.2h1.19l-3,8.57Z"/><path d="M180.68,8.77l-2-7.2h0l-2,7.2h-1.19L173.34.2h1.16l1.68,7.13h0L178.13.2h1.24l1.9,7.13h0L183,.2h1.14l-2.29,8.57Z"/><path d="M184.46.2h1.37L188,3.55,190.2.2h1.27l-2.83,4.16,3,4.4h-1.39L188,5.23l-2.38,3.54h-1.27l3-4.4Z"/><path d="M196.11,8.77H195V5.27L191.66.2H193l2.57,4.08L198.09.2h1.3l-3.28,5.06Z"/><path d="M205,1.16h-4.92V.2h6.26v1L201,7.81h5.46v1h-6.82v-1Z"/><path d="M6.34,23.15a1.44,1.44,0,0,1-.73.16A.88.88,0,0,1,5,23.08a1,1,0,0,1-.23-.73,2.45,2.45,0,0,1-1,.73,3.24,3.24,0,0,1-1.21.22,3.21,3.21,0,0,1-.8-.1,1.85,1.85,0,0,1-.65-.3,1.43,1.43,0,0,1-.44-.53,1.79,1.79,0,0,1-.16-.8,1.83,1.83,0,0,1,.18-.86,1.57,1.57,0,0,1,.47-.54,2.16,2.16,0,0,1,.67-.32,7.67,7.67,0,0,1,.77-.18q.42-.08.8-.13a4.4,4.4,0,0,0,.67-.12,1.13,1.13,0,0,0,.46-.23.56.56,0,0,0,.17-.44,1,1,0,0,0-.13-.54.88.88,0,0,0-.32-.31,1.32,1.32,0,0,0-.44-.14,3.3,3.3,0,0,0-.49,0A2.17,2.17,0,0,0,2.23,18a1,1,0,0,0-.47.93h-1a2.2,2.2,0,0,1,.24-1,1.83,1.83,0,0,1,.58-.64,2.42,2.42,0,0,1,.82-.35,4.32,4.32,0,0,1,1-.11,5.94,5.94,0,0,1,.83.06,2.2,2.2,0,0,1,.75.25,1.42,1.42,0,0,1,.54.52,1.66,1.66,0,0,1,.2.87v3.19a2.39,2.39,0,0,0,0,.53q0,.17.28.17a1.27,1.27,0,0,0,.31,0ZM4.68,20a1.26,1.26,0,0,1-.5.21c-.21,0-.43.08-.65.11l-.69.1a2.57,2.57,0,0,0-.62.17,1.13,1.13,0,0,0-.45.34,1,1,0,0,0-.17.6.82.82,0,0,0,.1.42.86.86,0,0,0,.26.28,1.12,1.12,0,0,0,.38.15,2.08,2.08,0,0,0,.46,0,2.42,2.42,0,0,0,.86-.14,1.82,1.82,0,0,0,.59-.35,1.38,1.38,0,0,0,.34-.45A1.15,1.15,0,0,0,4.68,21Z"/><path d="M8.34,14.6v3.2h0a1.52,1.52,0,0,1,.79-.75,3,3,0,0,1,1.19-.23,2.8,2.8,0,0,1,1.25.26,2.56,2.56,0,0,1,.89.71,3.17,3.17,0,0,1,.53,1,4.23,4.23,0,0,1,.18,1.25A4.38,4.38,0,0,1,13,21.34a2.94,2.94,0,0,1-.53,1,2.49,2.49,0,0,1-.89.69,2.88,2.88,0,0,1-1.24.25,3.14,3.14,0,0,1-.51,0,2.89,2.89,0,0,1-.56-.16,2.15,2.15,0,0,1-.52-.29,1.63,1.63,0,0,1-.41-.46h0v.83h-1V14.6ZM12,19.17a2.29,2.29,0,0,0-.35-.74,1.69,1.69,0,0,0-.6-.52,1.81,1.81,0,0,0-.86-.19,1.69,1.69,0,0,0-1.46.74,2.24,2.24,0,0,0-.33.75,3.63,3.63,0,0,0,0,1.73,2.18,2.18,0,0,0,.34.75,1.72,1.72,0,0,0,.61.52,1.88,1.88,0,0,0,.9.2,1.74,1.74,0,0,0,.88-.21,1.63,1.63,0,0,0,.57-.54A2.36,2.36,0,0,0,12,20.9a4.08,4.08,0,0,0,.1-.89A3.18,3.18,0,0,0,12,19.17Z"/><path d="M18.11,18a1.56,1.56,0,0,0-1-.32,1.89,1.89,0,0,0-.92.21,1.65,1.65,0,0,0-.59.54,2.28,2.28,0,0,0-.32.77,4.23,4.23,0,0,0-.1.91,3.46,3.46,0,0,0,.1.84,2.23,2.23,0,0,0,.32.73,1.59,1.59,0,0,0,.56.51,1.92,1.92,0,0,0,2-.2,1.79,1.79,0,0,0,.52-1.12h1a2.86,2.86,0,0,1-.86,1.78A2.69,2.69,0,0,1,17,23.3a3.24,3.24,0,0,1-1.25-.23,2.43,2.43,0,0,1-.91-.65,2.8,2.8,0,0,1-.55-1,4.17,4.17,0,0,1-.19-1.28,4.57,4.57,0,0,1,.18-1.3,3,3,0,0,1,.55-1.06,2.56,2.56,0,0,1,.92-.71A3,3,0,0,1,17,16.82a3.75,3.75,0,0,1,1,.13,2.42,2.42,0,0,1,.82.39,2.13,2.13,0,0,1,.58.67,2.45,2.45,0,0,1,.29,1H18.61A1.56,1.56,0,0,0,18.11,18Z"/><path d="M25.37,23.17v-.84h0a1.5,1.5,0,0,1-.79.74,3,3,0,0,1-1.19.23A2.8,2.8,0,0,1,22.11,23a2.58,2.58,0,0,1-.89-.71,3.1,3.1,0,0,1-.53-1,4.24,4.24,0,0,1-.18-1.25,4.38,4.38,0,0,1,.17-1.25,3,3,0,0,1,.53-1,2.55,2.55,0,0,1,.89-.7,2.83,2.83,0,0,1,1.24-.26,3.1,3.1,0,0,1,.52,0,2.63,2.63,0,0,1,.55.16,2.32,2.32,0,0,1,.52.3,1.64,1.64,0,0,1,.41.46h0V14.6h1v8.57ZM21.7,21a2.27,2.27,0,0,0,.35.74,1.68,1.68,0,0,0,.6.52,1.81,1.81,0,0,0,.86.19A1.69,1.69,0,0,0,25,21.68a2.26,2.26,0,0,0,.33-.75,3.63,3.63,0,0,0,0-1.73,2.19,2.19,0,0,0-.34-.75,1.73,1.73,0,0,0-.61-.52,1.88,1.88,0,0,0-.9-.2,1.74,1.74,0,0,0-.88.21,1.63,1.63,0,0,0-.58.54,2.36,2.36,0,0,0-.31.77,4.08,4.08,0,0,0-.1.89A3.15,3.15,0,0,0,21.7,21Z"/><path d="M32.35,22.78a2.82,2.82,0,0,1-1.75.53,3.2,3.2,0,0,1-1.29-.24,2.54,2.54,0,0,1-.92-.67,2.85,2.85,0,0,1-.56-1,5,5,0,0,1-.21-1.31,3.73,3.73,0,0,1,.22-1.29,3.1,3.1,0,0,1,.61-1,2.74,2.74,0,0,1,.92-.67,2.82,2.82,0,0,1,1.17-.24,2.54,2.54,0,0,1,1.37.34,2.72,2.72,0,0,1,.88.87,3.43,3.43,0,0,1,.46,1.15,5,5,0,0,1,.1,1.19H28.7a2.46,2.46,0,0,0,.1.77,1.75,1.75,0,0,0,.35.65,1.73,1.73,0,0,0,.61.45,2.12,2.12,0,0,0,.88.17,1.76,1.76,0,0,0,1.06-.3,1.45,1.45,0,0,0,.55-.91h1A2.48,2.48,0,0,1,32.35,22.78Zm-.25-4a1.73,1.73,0,0,0-.37-.56,1.83,1.83,0,0,0-2-.37,1.65,1.65,0,0,0-.55.38,1.82,1.82,0,0,0-.36.56,2.13,2.13,0,0,0-.16.68h3.56A2.11,2.11,0,0,0,32.1,18.79Z"/><path d="M33.78,17.87V17h1V16a1.45,1.45,0,0,1,.44-1.15,1.87,1.87,0,0,1,1.28-.39l.33,0a1.72,1.72,0,0,1,.33.07v.89a1.26,1.26,0,0,0-.29-.07l-.29,0a1,1,0,0,0-.58.14.64.64,0,0,0-.2.55V17H37v.9h-1.2v5.3h-1v-5.3Z"/><path d="M42.61,24.92a2.84,2.84,0,0,1-2.18.76,4.25,4.25,0,0,1-.88-.1,2.7,2.7,0,0,1-.82-.31,1.91,1.91,0,0,1-.61-.56,1.6,1.6,0,0,1-.26-.85h1a.75.75,0,0,0,.17.47,1.27,1.27,0,0,0,.4.31,1.92,1.92,0,0,0,.51.17,2.73,2.73,0,0,0,.53.05,1.91,1.91,0,0,0,.85-.17,1.59,1.59,0,0,0,.58-.48,2,2,0,0,0,.33-.74,4.09,4.09,0,0,0,.1-.95v-.41h0a1.71,1.71,0,0,1-.8.85,2.47,2.47,0,0,1-1.13.27A2.73,2.73,0,0,1,39.18,23a2.52,2.52,0,0,1-.86-.68,2.85,2.85,0,0,1-.52-1,4.09,4.09,0,0,1-.17-1.21A4.74,4.74,0,0,1,37.76,19a3.11,3.11,0,0,1,.48-1.06,2.66,2.66,0,0,1,.89-.78,2.77,2.77,0,0,1,1.36-.31,2.29,2.29,0,0,1,1.08.26,1.82,1.82,0,0,1,.77.77h0V17h1v5.68A3.27,3.27,0,0,1,42.61,24.92Zm-1.3-2.79a1.67,1.67,0,0,0,.57-.55,2.52,2.52,0,0,0,.32-.77,3.73,3.73,0,0,0,.1-.86,3.39,3.39,0,0,0-.1-.8,2.23,2.23,0,0,0-.31-.71,1.57,1.57,0,0,0-.55-.51,1.61,1.61,0,0,0-.82-.19,1.76,1.76,0,0,0-.84.19,1.62,1.62,0,0,0-.57.5,2.1,2.1,0,0,0-.32.72,3.49,3.49,0,0,0-.1.85,4.3,4.3,0,0,0,.08.84,2.42,2.42,0,0,0,.29.76,1.61,1.61,0,0,0,.54.55,1.55,1.55,0,0,0,.84.21A1.65,1.65,0,0,0,41.31,22.13Z"/><path d="M45.86,14.6v3.28h0a1.35,1.35,0,0,1,.34-.49,1.91,1.91,0,0,1,.49-.32,2.59,2.59,0,0,1,.56-.19,2.91,2.91,0,0,1,.57-.06,2.69,2.69,0,0,1,1,.17,1.69,1.69,0,0,1,.66.47,1.74,1.74,0,0,1,.35.71,3.82,3.82,0,0,1,.1.92v4.08H49V19a1.23,1.23,0,0,0-.34-.91,1.25,1.25,0,0,0-.92-.34,2.08,2.08,0,0,0-.81.14,1.51,1.51,0,0,0-.57.41,1.74,1.74,0,0,0-.34.62,2.5,2.5,0,0,0-.11.77v3.5h-1V14.6Z"/><path d="M51.57,15.85V14.6h1v1.25Zm1,1.12v6.21h-1V17Z"/><path d="M54.86,25.16a1.52,1.52,0,0,1-1.09.38,2.62,2.62,0,0,1-.52,0v-.88l.1,0h.31a.5.5,0,0,0,.46-.19,1.31,1.31,0,0,0,.12-.67V17h1v7A1.59,1.59,0,0,1,54.86,25.16Zm-.62-9.31V14.6h1v1.25Z"/><path d="M57.92,14.6v5.08L60.75,17h1.37l-2.46,2.26,2.64,3.95H61l-2.12-3.24-1,.89v2.35h-1V14.6Z"/><path d="M64.15,14.6v8.57h-1V14.6Z"/><path d="M66.69,17v.91h0a2.42,2.42,0,0,1,3-.82,1.35,1.35,0,0,1,.66.82,2.16,2.16,0,0,1,.82-.78,2.32,2.32,0,0,1,1.12-.28,3.23,3.23,0,0,1,.85.1,1.77,1.77,0,0,1,.65.32,1.45,1.45,0,0,1,.42.56,2.05,2.05,0,0,1,.15.82v4.55h-1V19.1a3,3,0,0,0,0-.54,1.12,1.12,0,0,0-.18-.44.9.9,0,0,0-.37-.29,1.44,1.44,0,0,0-.61-.11,1.61,1.61,0,0,0-1.19.43,1.56,1.56,0,0,0-.43,1.15v3.86h-1V19.1a2.63,2.63,0,0,0-.05-.55,1.17,1.17,0,0,0-.19-.44.87.87,0,0,0-.35-.29,1.38,1.38,0,0,0-.57-.1,1.52,1.52,0,0,0-.76.18,1.73,1.73,0,0,0-.52.43,1.75,1.75,0,0,0-.29.52,1.49,1.49,0,0,0-.09.45v3.86h-1V17Z"/><path d="M76.93,17v1h0a2.15,2.15,0,0,1,2-1.13A2.69,2.69,0,0,1,80,17a1.69,1.69,0,0,1,.66.47,1.74,1.74,0,0,1,.35.71,3.82,3.82,0,0,1,.1.92v4.08h-1V19a1.23,1.23,0,0,0-.34-.91,1.25,1.25,0,0,0-.92-.34,2.08,2.08,0,0,0-.81.14,1.51,1.51,0,0,0-.57.41,1.74,1.74,0,0,0-.34.62,2.5,2.5,0,0,0-.11.77v3.5H76V17Z"/><path d="M82.5,18.8a2.9,2.9,0,0,1,.58-1,2.71,2.71,0,0,1,.95-.69,3.47,3.47,0,0,1,2.6,0,2.74,2.74,0,0,1,.94.69,2.9,2.9,0,0,1,.58,1,4.14,4.14,0,0,1,.19,1.28,4.08,4.08,0,0,1-.19,1.27,2.9,2.9,0,0,1-.58,1,2.66,2.66,0,0,1-.94.68,3.56,3.56,0,0,1-2.6,0,2.63,2.63,0,0,1-.95-.68,2.9,2.9,0,0,1-.58-1,4.08,4.08,0,0,1-.19-1.27A4.14,4.14,0,0,1,82.5,18.8Zm1,2.28a2.1,2.1,0,0,0,.41.73,1.8,1.8,0,0,0,.62.45,1.88,1.88,0,0,0,1.5,0,1.8,1.8,0,0,0,.62-.45,2.08,2.08,0,0,0,.41-.73,3.41,3.41,0,0,0,0-2,2.13,2.13,0,0,0-.41-.74,1.77,1.77,0,0,0-.62-.46,1.88,1.88,0,0,0-1.5,0,1.77,1.77,0,0,0-.62.46,2.15,2.15,0,0,0-.41.74,3.41,3.41,0,0,0,0,2Z"/><path d="M90.59,17v.84h0a1.52,1.52,0,0,1,.79-.75,3,3,0,0,1,1.19-.23,2.8,2.8,0,0,1,1.25.26,2.56,2.56,0,0,1,.89.71,3.16,3.16,0,0,1,.53,1,4.23,4.23,0,0,1,.18,1.25,4.38,4.38,0,0,1-.17,1.25,3,3,0,0,1-.53,1,2.49,2.49,0,0,1-.89.69,2.88,2.88,0,0,1-1.24.25,3.15,3.15,0,0,1-.51,0,2.9,2.9,0,0,1-.56-.16A2.15,2.15,0,0,1,91,22.8a1.64,1.64,0,0,1-.41-.46h0v3.19h-1V17Zm3.67,2.2a2.28,2.28,0,0,0-.35-.74,1.68,1.68,0,0,0-.6-.52,1.81,1.81,0,0,0-.86-.19,1.75,1.75,0,0,0-.88.21,1.76,1.76,0,0,0-.59.53,2.27,2.27,0,0,0-.33.75,3.64,3.64,0,0,0-.1.85,3.56,3.56,0,0,0,.11.88,2.16,2.16,0,0,0,.34.75,1.72,1.72,0,0,0,.61.52,1.88,1.88,0,0,0,.9.2,1.74,1.74,0,0,0,.88-.21,1.63,1.63,0,0,0,.57-.54,2.35,2.35,0,0,0,.31-.77,4.05,4.05,0,0,0,.1-.89A3.16,3.16,0,0,0,94.25,19.17Z"/><path d="M101.17,25.54v-3.2h0a1.5,1.5,0,0,1-.79.74,3,3,0,0,1-1.19.23A2.8,2.8,0,0,1,97.91,23a2.58,2.58,0,0,1-.89-.71,3.09,3.09,0,0,1-.53-1,4.23,4.23,0,0,1-.18-1.25,4.38,4.38,0,0,1,.17-1.25,2.93,2.93,0,0,1,.53-1,2.55,2.55,0,0,1,.89-.7,2.82,2.82,0,0,1,1.24-.26,3.11,3.11,0,0,1,.52,0,2.64,2.64,0,0,1,.55.16,2.33,2.33,0,0,1,.52.3,1.62,1.62,0,0,1,.41.46h0V17h1v8.57ZM97.5,21a2.29,2.29,0,0,0,.35.74,1.69,1.69,0,0,0,.6.52,1.81,1.81,0,0,0,.86.19,1.69,1.69,0,0,0,1.46-.74,2.24,2.24,0,0,0,.33-.75,3.62,3.62,0,0,0,0-1.73,2.17,2.17,0,0,0-.34-.75,1.74,1.74,0,0,0-.61-.52,1.89,1.89,0,0,0-.9-.2,1.75,1.75,0,0,0-.88.21,1.63,1.63,0,0,0-.58.54,2.35,2.35,0,0,0-.31.77,4.05,4.05,0,0,0-.1.89A3.15,3.15,0,0,0,97.5,21Z"/><path d="M104.69,17v1.31h0a2.76,2.76,0,0,1,.91-1.12,2.3,2.3,0,0,1,1.37-.34V17.9a2.88,2.88,0,0,0-1,.17,1.65,1.65,0,0,0-.7.49,2,2,0,0,0-.38.79,4.24,4.24,0,0,0-.12,1.06v2.76h-1V17Z"/><path d="M108.54,21.79a1.08,1.08,0,0,0,.38.37,1.68,1.68,0,0,0,.53.2,3,3,0,0,0,.61.06,3.69,3.69,0,0,0,.5,0,1.84,1.84,0,0,0,.49-.13.91.91,0,0,0,.37-.28.75.75,0,0,0,.14-.47.68.68,0,0,0-.3-.6,2.56,2.56,0,0,0-.75-.33q-.45-.13-1-.23a5,5,0,0,1-1-.29,2,2,0,0,1-.75-.52,1.36,1.36,0,0,1-.3-.94,1.49,1.49,0,0,1,.21-.8,1.72,1.72,0,0,1,.54-.55,2.49,2.49,0,0,1,.74-.31,3.41,3.41,0,0,1,.82-.1,4.85,4.85,0,0,1,1,.09,2.24,2.24,0,0,1,.79.31,1.61,1.61,0,0,1,.55.6,2.29,2.29,0,0,1,.24.94h-1a1,1,0,0,0-.49-.82,1.53,1.53,0,0,0-.45-.17,2.31,2.31,0,0,0-.5-.05,3,3,0,0,0-.46,0,1.55,1.55,0,0,0-.43.13.87.87,0,0,0-.31.24.61.61,0,0,0-.12.39.57.57,0,0,0,.19.44,1.47,1.47,0,0,0,.47.29,4.21,4.21,0,0,0,.65.19l.72.16c.26.06.51.12.75.2a2.46,2.46,0,0,1,.65.32,1.57,1.57,0,0,1,.46.5,1.46,1.46,0,0,1,.17.74,1.73,1.73,0,0,1-.23.94,1.83,1.83,0,0,1-.61.6,2.56,2.56,0,0,1-.85.32,5,5,0,0,1-.94.09,4.36,4.36,0,0,1-1-.11,2.41,2.41,0,0,1-.83-.35,1.8,1.8,0,0,1-.58-.65,2.23,2.23,0,0,1-.24-1h1A1.15,1.15,0,0,0,108.54,21.79Z"/><path d="M116.41,17v.9h-1.24v3.85a1.14,1.14,0,0,0,0,.29.29.29,0,0,0,.11.17.52.52,0,0,0,.23.08l.39,0h.47v.9h-.78a3.64,3.64,0,0,1-.68-.05,1,1,0,0,1-.46-.2.85.85,0,0,1-.26-.41,2.37,2.37,0,0,1-.08-.7V17.87H113.1V17h1.06V15.11h1V17Z"/><path d="M121.71,23.17v-1h0a2.08,2.08,0,0,1-.83.85,2.48,2.48,0,0,1-1.19.27,2.78,2.78,0,0,1-1-.16,1.64,1.64,0,0,1-.66-.46,1.73,1.73,0,0,1-.35-.71,3.82,3.82,0,0,1-.1-.92V17h1v4.2a1.24,1.24,0,0,0,.34.91,1.25,1.25,0,0,0,.92.34,2.09,2.09,0,0,0,.81-.14,1.51,1.51,0,0,0,.57-.41,1.74,1.74,0,0,0,.34-.62,2.51,2.51,0,0,0,.11-.78V17h1v6.21Z"/><path d="M125.91,23.17,123.61,17h1.14l1.74,5.17h0L128.21,17h1.07L127,23.17Z"/><path d="M135.27,23.17,134,18.24h0l-1.25,4.93h-1.1l-2-6.21h1.13l1.4,5.08h0L133.45,17h1.12l1.3,5.08h0L137.28,17h1.06l-2,6.21Z"/><path d="M138.81,17h1.31l1.49,2.17L143.16,17h1.22l-2.14,2.86,2.4,3.35h-1.31l-1.73-2.57-1.73,2.57h-1.24L141,19.91Z"/><path d="M148,24a6.63,6.63,0,0,1-.35.77,2.1,2.1,0,0,1-.38.51,1.3,1.3,0,0,1-.47.29,1.81,1.81,0,0,1-.59.09l-.36,0a1.6,1.6,0,0,1-.35-.08v-.94a1.65,1.65,0,0,0,.31.1,1.28,1.28,0,0,0,.29,0,.88.88,0,0,0,.52-.15.91.91,0,0,0,.32-.43l.42-1L144.85,17H146L147.81,22h0L149.58,17h1.08Z"/><path d="M154.76,17.87h-3.5V17h4.82v.7l-3.79,4.61h4v.9H151v-.78Z"/><path d="M.6,32.42a6.65,6.65,0,0,1,.12-1A4.85,4.85,0,0,1,1,30.53a2.42,2.42,0,0,1,.49-.76,2.21,2.21,0,0,1,.79-.52,3,3,0,0,1,1.13-.19,3,3,0,0,1,1.13.19,2.21,2.21,0,0,1,.79.52,2.42,2.42,0,0,1,.49.76,4.81,4.81,0,0,1,.28.91,6.65,6.65,0,0,1,.12,1q0,.5,0,1t0,1a6.65,6.65,0,0,1-.12,1,4.67,4.67,0,0,1-.28.91,2.46,2.46,0,0,1-.49.75,2.2,2.2,0,0,1-.78.51,3.11,3.11,0,0,1-1.14.19,3.12,3.12,0,0,1-1.13-.19A2.19,2.19,0,0,1,1.49,37,2.46,2.46,0,0,1,1,36.26a4.7,4.7,0,0,1-.28-.91,6.65,6.65,0,0,1-.12-1q0-.5,0-1T.6,32.42Zm1.09,2a4.53,4.53,0,0,0,.19,1.12,2.1,2.1,0,0,0,.52.88,1.36,1.36,0,0,0,1,.36,1.36,1.36,0,0,0,1-.36,2.11,2.11,0,0,0,.52-.88,4.53,4.53,0,0,0,.19-1.12q0-.59,0-1.07c0-.21,0-.44,0-.69a6.06,6.06,0,0,0-.06-.76,5.68,5.68,0,0,0-.16-.74,2,2,0,0,0-.3-.63,1.55,1.55,0,0,0-.5-.44A1.48,1.48,0,0,0,3.41,30a1.48,1.48,0,0,0-.73.17,1.55,1.55,0,0,0-.5.44,2,2,0,0,0-.3.63,5.6,5.6,0,0,0-.16.74,6,6,0,0,0-.06.76c0,.25,0,.48,0,.69S1.67,34.06,1.69,34.46Z"/><path d="M10,37.57v-6.1H7.79v-.82a5.37,5.37,0,0,0,.84-.07,2.34,2.34,0,0,0,.74-.25,1.7,1.7,0,0,0,.56-.49,1.88,1.88,0,0,0,.31-.79H11v8.51Z"/><path d="M14.08,30.88a2.53,2.53,0,0,1,.52-1,2.45,2.45,0,0,1,.88-.63,3,3,0,0,1,1.2-.23,3.28,3.28,0,0,1,1,.16,2.54,2.54,0,0,1,.85.47,2.18,2.18,0,0,1,.57.76,2.5,2.5,0,0,1,.21,1.06,2.65,2.65,0,0,1-.17,1,2.86,2.86,0,0,1-.46.77,3.88,3.88,0,0,1-.66.62q-.37.28-.77.53l-.79.47a6.18,6.18,0,0,0-.73.5,3.3,3.3,0,0,0-.56.57,1.61,1.61,0,0,0-.31.7h4.37v.9H13.7A4.51,4.51,0,0,1,14,36.28a3.45,3.45,0,0,1,.53-.93,4,4,0,0,1,.73-.7q.41-.3.85-.56t.95-.62a4.14,4.14,0,0,0,.68-.57,1.92,1.92,0,0,0,.55-1.4,1.47,1.47,0,0,0-.13-.63,1.55,1.55,0,0,0-.35-.49,1.53,1.53,0,0,0-.52-.31,1.88,1.88,0,0,0-.64-.11,1.48,1.48,0,0,0-.76.19,1.61,1.61,0,0,0-.52.49,2,2,0,0,0-.29.68,2.89,2.89,0,0,0-.08.76h-1A3.43,3.43,0,0,1,14.08,30.88Z"/><path d="M22.81,32.72h.34a2.08,2.08,0,0,0,.62-.09,1.56,1.56,0,0,0,.52-.26,1.26,1.26,0,0,0,.35-.44,1.33,1.33,0,0,0,.13-.6,1.23,1.23,0,0,0-.43-1A1.69,1.69,0,0,0,23.26,30a1.61,1.61,0,0,0-.71.15,1.43,1.43,0,0,0-.5.4,1.68,1.68,0,0,0-.29.59,2.56,2.56,0,0,0-.1.71h-1a3.89,3.89,0,0,1,.2-1.12,2.5,2.5,0,0,1,.5-.86,2.24,2.24,0,0,1,.81-.56,2.87,2.87,0,0,1,1.12-.2,3.66,3.66,0,0,1,1,.14,2.38,2.38,0,0,1,.82.41,1.89,1.89,0,0,1,.55.71,2.43,2.43,0,0,1,.2,1,1.64,1.64,0,0,1-.34,1,2.15,2.15,0,0,1-.84.67v0a1.78,1.78,0,0,1,1.16.73,2.34,2.34,0,0,1,.38,1.33A2.56,2.56,0,0,1,26,36.25a2.33,2.33,0,0,1-.63.81,2.66,2.66,0,0,1-.93.49,3.88,3.88,0,0,1-1.13.16,3.65,3.65,0,0,1-1.18-.18,2.41,2.41,0,0,1-.9-.53,2.34,2.34,0,0,1-.57-.87,3.11,3.11,0,0,1-.19-1.18h1a2.07,2.07,0,0,0,.48,1.35,1.68,1.68,0,0,0,1.33.52A2.18,2.18,0,0,0,24,36.7a1.81,1.81,0,0,0,.59-.32,1.53,1.53,0,0,0,.55-1.21,1.63,1.63,0,0,0-.14-.7A1.58,1.58,0,0,0,24.6,34a1.56,1.56,0,0,0-.57-.31,2.43,2.43,0,0,0-.71-.1,4.86,4.86,0,0,0-.61,0v-.86Z"/><path d="M32.94,34.68v.9H31.79v2h-1v-2H27.1v-1L31,29.06h.82v5.62Zm-2.11-4.16h0L28,34.68h2.86Z"/><path d="M35.64,30.11l-.46,2.45,0,0a1.63,1.63,0,0,1,.71-.46,2.68,2.68,0,0,1,.87-.15,3.15,3.15,0,0,1,1.07.18,2.37,2.37,0,0,1,.88.55,2.59,2.59,0,0,1,.59.91,3.45,3.45,0,0,1,.22,1.28,3,3,0,0,1-.19,1.05,2.63,2.63,0,0,1-.56.91,2.67,2.67,0,0,1-.93.63,3.34,3.34,0,0,1-1.3.23,3.25,3.25,0,0,1-1-.16,2.63,2.63,0,0,1-.86-.47,2.18,2.18,0,0,1-.59-.76,2.5,2.5,0,0,1-.23-1h1a1.63,1.63,0,0,0,.16.61,1.62,1.62,0,0,0,.37.49,1.64,1.64,0,0,0,.55.32,2.06,2.06,0,0,0,.7.11,1.92,1.92,0,0,0,.69-.13,1.59,1.59,0,0,0,.58-.38,1.81,1.81,0,0,0,.39-.63,2.46,2.46,0,0,0,.14-.88,2.12,2.12,0,0,0-.14-.77,1.8,1.8,0,0,0-.39-.61,1.76,1.76,0,0,0-.61-.4,2.07,2.07,0,0,0-.79-.14,1.77,1.77,0,0,0-.89.22,2.49,2.49,0,0,0-.69.58l-.88,0,.79-4.42h4.2v.9Z"/><path d="M44.63,30.31a1.39,1.39,0,0,0-1-.35,1.62,1.62,0,0,0-1,.32,2.18,2.18,0,0,0-.62.8,3.86,3.86,0,0,0-.31,1,8.49,8.49,0,0,0-.1,1.06l0,0a2.2,2.2,0,0,1,.89-.85,3,3,0,0,1,2.33-.05,2.3,2.3,0,0,1,.82.58,2.66,2.66,0,0,1,.51.88,3.22,3.22,0,0,1,.18,1.09,3.54,3.54,0,0,1-.14,1,2.62,2.62,0,0,1-.47.92,2.55,2.55,0,0,1-.88.68,3,3,0,0,1-1.35.27A2.7,2.7,0,0,1,42,37.32a2.62,2.62,0,0,1-.89-1A4.1,4.1,0,0,1,40.66,35a10,10,0,0,1-.1-1.39,9.37,9.37,0,0,1,.15-1.7,4.61,4.61,0,0,1,.51-1.46,2.86,2.86,0,0,1,1-1,2.75,2.75,0,0,1,1.51-.38,2.43,2.43,0,0,1,1.68.56,2.36,2.36,0,0,1,.72,1.61h-1A1.47,1.47,0,0,0,44.63,30.31Zm-1.85,2.84a1.66,1.66,0,0,0-.55.41,1.7,1.7,0,0,0-.34.61,2.42,2.42,0,0,0-.11.75,2.26,2.26,0,0,0,.12.74,1.76,1.76,0,0,0,.34.6,1.63,1.63,0,0,0,.55.4,1.8,1.8,0,0,0,.75.15,1.72,1.72,0,0,0,.74-.15,1.53,1.53,0,0,0,.53-.41,1.92,1.92,0,0,0,.33-.61,2.24,2.24,0,0,0,.11-.71,2.69,2.69,0,0,0-.1-.75,1.65,1.65,0,0,0-.32-.61,1.6,1.6,0,0,0-.54-.41,1.72,1.72,0,0,0-.76-.16A1.77,1.77,0,0,0,42.78,33.15Z"/><path d="M51.67,31.6a13.35,13.35,0,0,0-1,1.87A13.76,13.76,0,0,0,50,35.52a10.67,10.67,0,0,0-.34,2.05H48.48a10.62,10.62,0,0,1,.35-2.11,12.24,12.24,0,0,1,.73-2,12.47,12.47,0,0,1,1-1.78,13,13,0,0,1,1.25-1.55H47.38v-1h5.51v.88A8.64,8.64,0,0,0,51.67,31.6Z"/><path d="M54.43,30.3a2,2,0,0,1,.55-.68,2.49,2.49,0,0,1,.8-.42,3.08,3.08,0,0,1,.94-.14,3.34,3.34,0,0,1,1.19.19,2.2,2.2,0,0,1,.8.49,1.91,1.91,0,0,1,.45.7,2.29,2.29,0,0,1,.14.8,1.85,1.85,0,0,1-.32,1,2,2,0,0,1-.86.71,2.07,2.07,0,0,1,1.14.79,2.32,2.32,0,0,1,.37,1.34,2.59,2.59,0,0,1-.22,1.1,2.38,2.38,0,0,1-.6.81,2.51,2.51,0,0,1-.89.5,3.53,3.53,0,0,1-1.1.17,4,4,0,0,1-1.14-.16,2.53,2.53,0,0,1-.92-.48,2.24,2.24,0,0,1-.61-.81,2.7,2.7,0,0,1-.22-1.13,2.26,2.26,0,0,1,.38-1.31,2.16,2.16,0,0,1,1.1-.81,1.85,1.85,0,0,1-.86-.7,1.88,1.88,0,0,1-.32-1.06A2,2,0,0,1,54.43,30.3Zm1.09,6.07a1.92,1.92,0,0,0,1.3.44,1.89,1.89,0,0,0,.7-.13,1.72,1.72,0,0,0,.55-.35,1.53,1.53,0,0,0,.36-.52,1.69,1.69,0,0,0,.13-.66,1.49,1.49,0,0,0-.14-.64A1.57,1.57,0,0,0,58,34a1.83,1.83,0,0,0-.56-.34,1.81,1.81,0,0,0-.68-.13,2.13,2.13,0,0,0-.7.11,1.71,1.71,0,0,0-.58.33,1.51,1.51,0,0,0-.38.52,1.57,1.57,0,0,0-.14.67A1.5,1.5,0,0,0,55.52,36.38Zm-.09-4.5a1.18,1.18,0,0,0,.32.43,1.33,1.33,0,0,0,.48.25,2,2,0,0,0,.59.08,1.44,1.44,0,0,0,1-.36,1.29,1.29,0,0,0,.4-1,1.2,1.2,0,0,0-.4-1,1.57,1.57,0,0,0-1-.33,2,2,0,0,0-.58.08,1.33,1.33,0,0,0-.47.25,1.28,1.28,0,0,0-.32.41,1.25,1.25,0,0,0-.12.56A1.42,1.42,0,0,0,55.43,31.88Z"/><path d="M62.23,36.48a1.7,1.7,0,0,0,1.06.34,1.52,1.52,0,0,0,1.4-.81,5.44,5.44,0,0,0,.52-2.48l0,0a2.23,2.23,0,0,1-2,1.18,3,3,0,0,1-1.15-.21,2.36,2.36,0,0,1-.85-.58,2.43,2.43,0,0,1-.52-.9,3.65,3.65,0,0,1-.17-1.15,3,3,0,0,1,.2-1.12,2.51,2.51,0,0,1,.58-.87,2.61,2.61,0,0,1,.89-.57,3,3,0,0,1,1.13-.2,3.35,3.35,0,0,1,1.13.19,2.17,2.17,0,0,1,.92.64A3.32,3.32,0,0,1,66,31.13a7.14,7.14,0,0,1,.23,2,6.71,6.71,0,0,1-.7,3.39,2.42,2.42,0,0,1-2.25,1.18,2.84,2.84,0,0,1-1.78-.54,2.19,2.19,0,0,1-.8-1.64h1A1.29,1.29,0,0,0,62.23,36.48Zm2.68-5.32a1.9,1.9,0,0,0-.34-.62,1.59,1.59,0,0,0-.55-.43,1.73,1.73,0,0,0-.76-.16,1.65,1.65,0,0,0-.77.17,1.46,1.46,0,0,0-.52.45,1.92,1.92,0,0,0-.29.64,3.08,3.08,0,0,0-.09.76,1.84,1.84,0,0,0,.13.67,1.9,1.9,0,0,0,.35.58,1.67,1.67,0,0,0,.53.4,1.51,1.51,0,0,0,.68.15,1.68,1.68,0,0,0,.72-.15,1.65,1.65,0,0,0,.55-.41,1.79,1.79,0,0,0,.35-.6,2.14,2.14,0,0,0,.12-.71A2.37,2.37,0,0,0,64.91,31.16Z"/></g></g></svg>