<svg xmlns="http://www.w3.org/2000/svg" viewBox="0 0 220.06 37.65"><title>font-Helvetica Extra Bold</title><g id="Layer_2" data-name="Layer 2"><g id="Layer_1-2" data-name="Layer 1"><path d="M3.2.18H5.47l3.2,8.56H6.34L5.82,7.21h-3L2.29,8.74H0Zm.14,5.37H5.29l-.95-3h0Z"/><path d="M9.32.18h4c1.48,0,3.09.36,3.09,2.15A1.92,1.92,0,0,1,15.3,4.05a2,2,0,0,1,1.48,2c0,2-1.5,2.66-3.33,2.66H9.32Zm2.23,3.37h1.73a.83.83,0,0,0,.91-.82c0-.62-.44-.83-.91-.83H11.55Zm0,3.41h1.79c.71,0,1.2-.25,1.2-1S14,5,13.34,5H11.55Z"/><path d="M23.67,3.24a1.55,1.55,0,0,0-1.73-1.32c-1.44,0-2,1.27-2,2.54S20.51,7,21.95,7a1.59,1.59,0,0,0,1.73-1.58H25.9A3.61,3.61,0,0,1,22,8.92a4.21,4.21,0,0,1-4.27-4.46A4.22,4.22,0,0,1,22,0c1.85,0,3.85,1.17,3.91,3.24Z"/><path d="M27.1.18h3.68A3.88,3.88,0,0,1,35,4.43c0,2.81-1.6,4.32-4.2,4.32H27.1Zm2.23,6.64h1.06c1.69,0,2.36-.7,2.36-2.41A2.08,2.08,0,0,0,30.38,2.1H29.33Z"/><path d="M36.2.18H43V2H38.43v1.5h4.2V5.19h-4.2V6.82h4.71V8.74H36.2Z"/><path d="M44.42.18h6.31V2H46.65V3.72h3.53V5.44H46.65v3.3H44.42Z"/><path d="M59.66,8.74H58.22l-.13-.94A2.91,2.91,0,0,1,55.7,8.92a4.22,4.22,0,0,1-4.27-4.46A4.22,4.22,0,0,1,55.7,0c1.77,0,3.67.95,3.87,3.09H57.34c-.07-.73-.79-1.18-1.69-1.18-1.44,0-2,1.27-2,2.54S54.21,7,55.65,7c1.1,0,1.85-.52,2-1.29H56.06V4.05h3.6Z"/><path d="M61.07.18H63.3V3.3h2.94V.18h2.23V8.74H66.24V5.22H63.3V8.74H61.07Z"/><path d="M70,.18h2.23V8.74H70Z"/><path d="M79.33,6c0,1.92-1,2.89-3,2.89-2.27,0-3-1.31-3-3.21V5.34h2.1v.79a.79.79,0,0,0,.86.88c.52,0,.8-.29.8-1.12V.18h2.23Z"/><path d="M80.88.18h2.23V3.47L85.93.18H88.7L85.53,3.55l3.56,5.19H86.32L84,5.15l-.91,1V8.74H80.88Z"/><path d="M89.77.18H92V6.82h4V8.74H89.77Z"/><path d="M97.11.18h3.29l1.48,5.71h0L103.37.18h3.29V8.74h-2.1V2.24h0l-1.8,6.5H101l-1.8-6.5h0v6.5h-2.1Z"/><path d="M108.19.18h2.29l3,5.28h0V.18h2.1V8.74h-2.29l-3-5.34h0V8.74h-2.1Z"/><path d="M121,0c2.7,0,4.22,2,4.22,4.46S123.7,8.92,121,8.92s-4.22-2-4.22-4.46S118.31,0,121,0Zm0,7c1.44,0,2-1.27,2-2.54s-.55-2.54-2-2.54-2,1.27-2,2.54S119.56,7,121,7Z"/><path d="M126.44.18h4.07c1.6,0,3.09.73,3.09,2.76s-1.21,3-3.09,3h-1.83V8.74h-2.23Zm2.23,4h1.5c.7,0,1.2-.29,1.2-1.07A1.05,1.05,0,0,0,130.17,2h-1.5Z"/><path d="M141.73,9.63l-1.18-1.15a4.36,4.36,0,0,1-2,.44c-2.7,0-4.22-2-4.22-4.46S135.86,0,138.56,0s4.22,2,4.22,4.46a4.7,4.7,0,0,1-1.07,3.12l1,1Zm-2.4-4.38.84.82a3.13,3.13,0,0,0,.38-1.61c0-1.27-.55-2.54-2-2.54s-2,1.27-2,2.54.55,2.54,2,2.54A1.68,1.68,0,0,0,139,7l-.67-.66Z"/><path d="M144,.18h4.37c1.51,0,3,.68,3,2.41A2.2,2.2,0,0,1,150,4.74v0c.91.22,1.18,1.24,1.25,2.05,0,.36.06,1.62.36,1.93h-2.21a4.16,4.16,0,0,1-.25-1.37c-.06-.86-.2-1.75-1.25-1.75h-1.69V8.74H144Zm2.23,3.72h1.87a.92.92,0,0,0,1-1c0-.64-.5-.92-1.13-.92h-1.78Z"/><path d="M154.4,5.86c0,1,.67,1.33,1.62,1.33.67,0,1.37-.24,1.37-.88s-1.22-.9-2.46-1.25-2.51-.9-2.51-2.47c0-1.87,1.88-2.6,3.49-2.6s3.42.83,3.43,2.76h-2.23c0-.78-.7-1-1.38-1-.48,0-1.08.17-1.08.73s1.24.78,2.48,1.13,2.48.92,2.48,2.47c0,2.17-1.85,2.87-3.73,2.87s-3.71-.86-3.72-3.06Z"/><path d="M167.45,2.1H164.9V8.74h-2.23V2.1h-2.55V.18h7.34Z"/><path d="M175.84,5.21c0,2.48-1.14,3.72-3.73,3.72s-3.73-1.24-3.73-3.72v-5h2.23V5.34c0,1.1.41,1.67,1.5,1.67s1.5-.56,1.5-1.67V.18h2.23Z"/><path d="M181.7,8.74h-2.57L176.43.18h2.33l1.68,6.37h0L182.14.18h2.33Z"/><path d="M193.53,8.74H191.3l-1.17-5.9h0l-1.18,5.9h-2.27L184.34.18h2.23l1.21,6.26h0L189.07.18h2.1l1.26,6.26h0L193.66.18h2.23Z"/><path d="M198.85,4.25,196.05.18h2.63l1.44,2.66L201.64.18h2.54l-2.77,4.07,3,4.5h-2.71l-1.61-2.85-1.75,2.85H195.8Z"/><path d="M209.47,5.55V8.74h-2.23V5.55L204.12.18h2.53l1.7,3.48,1.7-3.48h2.53Z"/><path d="M212.64,6.92,217,2.1H212.9V.18h7V1.91l-4.5,4.92h4.65V8.74h-7.42Z"/><path d="M.71,18.84a1.91,1.91,0,0,1,1-1.67,4.1,4.1,0,0,1,2-.43c1.48,0,2.9.32,2.9,2.09v2.72a3.63,3.63,0,0,0,.24,1.6H4.75a2.43,2.43,0,0,1-.12-.59,2.81,2.81,0,0,1-2.05.77c-1.19,0-2.12-.6-2.12-1.88,0-2,2.21-1.87,3.62-2.16.35-.07.54-.19.54-.58s-.56-.65-1-.65a.91.91,0,0,0-1,.78Zm2.64,3.23c1,0,1.3-.55,1.25-1.83a5.72,5.72,0,0,1-1.26.34c-.46.11-.84.3-.84.79S2.89,22.06,3.35,22.06Z"/><path d="M7.91,14.58h2v3h0a2.06,2.06,0,0,1,1.77-.86c1.76,0,2.63,1.54,2.63,3.15s-.83,3.43-2.78,3.43a2,2,0,0,1-1.72-.9h0v.72H7.91Zm2,5.39c0,1.09.31,1.8,1.24,1.8s1.22-.95,1.22-1.8S12,18.3,11.12,18.3C10.57,18.3,9.87,18.68,9.87,20Z"/><path d="M19.52,19.2a1,1,0,0,0-1-.9c-1.14,0-1.32,1-1.32,1.83s.35,1.63,1.21,1.63a1.09,1.09,0,0,0,1.16-1.07h2a2.92,2.92,0,0,1-3.13,2.63,3.1,3.1,0,0,1-3.26-3.19,3.15,3.15,0,0,1,3.26-3.39A2.79,2.79,0,0,1,21.5,19.2Z"/><path d="M28.75,23.14H26.8v-.72h0a2,2,0,0,1-1.71.9c-2,0-2.78-1.68-2.78-3.43s.86-3.15,2.63-3.15a2.08,2.08,0,0,1,1.77.85h0v-3h2ZM24.32,20c0,.85.31,1.8,1.25,1.8s1.21-.95,1.21-1.74-.32-1.73-1.21-1.73S24.32,19.17,24.32,20Z"/><path d="M31.88,20.53a1.33,1.33,0,0,0,1.39,1.42,1.22,1.22,0,0,0,1.16-.68h1.91a2.94,2.94,0,0,1-3.09,2.06A3.13,3.13,0,0,1,29.84,20a3.27,3.27,0,0,1,3.36-3.27c2.23,0,3.35,1.68,3.25,3.79Zm2.53-1.14a1.26,1.26,0,0,0-1.21-1.27,1.34,1.34,0,0,0-1.32,1.27Z"/><path d="M37.92,18.24h-1V16.92h1c0-1.79.62-2.34,2.36-2.34.32,0,.66,0,1,0v1.44a4.17,4.17,0,0,0-.55,0c-.47,0-.76.06-.76.62v.28h1.22v1.32H40v4.91h-2Z"/><path d="M47.94,22.39c0,1-.19,2.94-3.11,2.94-1.45,0-2.82-.32-3.06-2h2a.67.67,0,0,0,.35.54,1.61,1.61,0,0,0,.74.13c1,0,1.07-.68,1.07-1.45V22h0a2,2,0,0,1-1.66.91c-1.88,0-2.73-1.34-2.73-3.09a2.76,2.76,0,0,1,2.73-3,1.8,1.8,0,0,1,1.67,1h0v-.78h2ZM44.78,18.3c-.9,0-1.19.79-1.19,1.56s.34,1.46,1.18,1.46S46,20.65,46,19.87,45.69,18.3,44.78,18.3Z"/><path d="M49.25,14.58h2v3.19h0a2.17,2.17,0,0,1,1.9-1c2.08,0,2.24,1.51,2.24,2.41v4h-2v-3c0-.85.1-1.72-1-1.72-.77,0-1.1.65-1.1,1.33v3.39h-2Z"/><path d="M58.92,16.14h-2V14.58h2Zm-2,.78h2v6.22h-2Z"/><path d="M62.47,23.14c0,1.57-.62,2.09-2.06,2.09h-1V23.58h.41c.42,0,.65-.13.65-.58V16.92h2Zm0-7h-2V14.58h2Z"/><path d="M63.91,14.58h2V19l1.86-2.07h2.36l-2.28,2.35,2.57,3.88H68l-1.52-2.51-.53.52v2h-2Z"/><path d="M71.1,14.58h2v8.56h-2Z"/><path d="M74.58,16.92h2v.85h0a2.08,2.08,0,0,1,1.79-1,1.8,1.8,0,0,1,1.81,1,2.28,2.28,0,0,1,1.94-1c2,0,2.19,1.5,2.19,2.69v3.72h-2V19.49c0-.67-.32-1.07-.85-1.07-.88,0-1,.67-1,1.68v3h-2V19.6c0-.73-.22-1.19-.77-1.19-.73,0-1,.42-1,1.69v3h-2Z"/><path d="M85.69,16.92h2v.85h0a2.35,2.35,0,0,1,2-1c2.08,0,2.24,1.51,2.24,2.41v4h-2v-3c0-.85.1-1.72-1-1.72-.77,0-1.1.65-1.1,1.33v3.39h-2Z"/><path d="M96.22,16.74A3.19,3.19,0,0,1,99.51,20a3.28,3.28,0,1,1-6.56,0A3.18,3.18,0,0,1,96.22,16.74Zm0,5c.95,0,1.25-.94,1.25-1.73s-.3-1.74-1.25-1.74S95,19.25,95,20,95.28,21.76,96.22,21.76Z"/><path d="M100.58,16.92h1.94v.72h0a2,2,0,0,1,1.71-.9c2,0,2.78,1.68,2.78,3.43s-.86,3.15-2.63,3.15a2.09,2.09,0,0,1-1.78-.85h0v2.76h-2Zm2,3c0,1.09.31,1.8,1.24,1.8S105,20.82,105,20s-.31-1.67-1.21-1.67C103.24,18.3,102.55,18.68,102.55,20Z"/><path d="M114.31,25.23h-2V22.46h0a2.06,2.06,0,0,1-1.77.86c-1.76,0-2.63-1.54-2.63-3.15s.83-3.43,2.78-3.43a2,2,0,0,1,1.71.9h0v-.72h1.94Zm-3.21-3.47c.55,0,1.25-.38,1.25-1.68,0-.84-.24-1.79-1.21-1.79s-1.25.95-1.25,1.8S110.19,21.76,111.09,21.76Z"/><path d="M115.77,16.92h2V18h0a1.88,1.88,0,0,1,1.87-1.21,2.17,2.17,0,0,1,.48,0v1.86a2.85,2.85,0,0,0-.78-.12,1.43,1.43,0,0,0-1.54,1.48v3.08h-2Z"/><path d="M122.4,21.09a.84.84,0,0,0,.34.7,1.28,1.28,0,0,0,.76.22c.4,0,1-.17,1-.66s-.64-.58-1-.66c-1.28-.32-2.89-.36-2.89-2,0-1.5,1.62-1.91,2.84-1.91s2.79.39,2.87,2h-1.88a.58.58,0,0,0-.26-.54,1.21,1.21,0,0,0-.65-.16c-.33,0-.87,0-.87.47,0,.59,1.37.7,2.3.9a1.77,1.77,0,0,1,1.58,1.68c0,1.67-1.58,2.22-3,2.22s-3-.49-3-2.23Z"/><path d="M131.24,18.24H130v2.83c0,.49.29.6.73.6l.53,0v1.5c-.37,0-.74.06-1.12.06-1.74,0-2.18-.5-2.18-2.19V18.24h-1V16.92h1V15h2v1.88h1.26Z"/><path d="M138.34,23.14h-2v-.85h0a2.29,2.29,0,0,1-1.89,1c-1.79,0-2.3-1-2.3-2.66V16.92h2v3.61c0,.83.36,1.12,1,1.12.44,0,1.12-.29,1.12-1.39V16.92h2Z"/><path d="M143.42,23.14h-2.35L139,16.92h2.12L142.26,21h0l1.15-4.11h2.08Z"/><path d="M153.52,23.14h-2.06l-1-4.14h0l-1,4.14h-2.06l-1.94-6.22h2.06l1,4h0l.89-4h1.94l.91,4h0l1-4h2.07Z"/><path d="M157.54,19.88l-2-3h2.25l.88,1.49.88-1.49h2.16l-1.94,2.93,2.21,3.3h-2.25l-1.08-1.8-1,1.8h-2.25Z"/><path d="M166,23.69c-.49,1.37-1.22,1.54-2.6,1.54h-1V23.58h.71a.72.72,0,0,0,.82-.7,8.54,8.54,0,0,0-.52-1.63l-1.61-4.33H164L165.16,21h0l1.17-4.05h2.09Z"/><path d="M168.62,21.56l3.11-3.08h-2.85V16.92h5.45v1.55l-3.11,3.12h3.33v1.56h-5.92Z"/><path d="M.55,33.36c0-2.23.9-4.28,3.27-4.28s3.41,2.05,3.41,4.28-1,4.29-3.41,4.29S.55,35.59.55,33.36Zm4.71,0c0-1.09,0-2.63-1.38-2.63s-1.37,1.54-1.37,2.63S2.59,36,3.89,36,5.27,34.45,5.27,33.36Z"/><path d="M8.93,32.41v-1.5c1.18,0,2.39-.41,2.47-1.73h1.69v8.36H10.93V32.41Z"/><path d="M15.61,37.54a3.7,3.7,0,0,1,1.31-2.78A16.41,16.41,0,0,1,19.1,33.3c.64-.42,1.09-.83,1.09-1.39a1,1,0,0,0-1.08-1c-1.08,0-1.38.78-1.39,1.69H15.82a3.09,3.09,0,0,1,3.29-3.48c1.65,0,3.13.86,3.13,2.65,0,1.61-1.15,2.21-2.37,3a7.34,7.34,0,0,0-1.51,1.13h4v1.73Z"/><path d="M25.87,32.43c.18,0,.36,0,.54,0,.6,0,1.35-.16,1.35-.88,0-.54-.54-.84-1.2-.84-.83,0-1.31.43-1.3,1.19H23.36c0-1.87,1.4-2.84,3.19-2.84,1.45,0,3.12.61,3.12,2.31A1.56,1.56,0,0,1,28.51,33v0A1.81,1.81,0,0,1,29.94,35c0,1.9-1.73,2.69-3.38,2.69-2,0-3.54-1-3.42-3.14H25c0,1,.47,1.49,1.5,1.49.7,0,1.36-.3,1.36-1,0-.92-.67-1.14-1.49-1.14l-.54,0Z"/><path d="M37.51,34v1.73H36.42v1.86h-2V35.68H30.72V33.78l3.74-4.59h2V34Zm-3.07,0v-2.7h0L32.3,34Z"/><path d="M40.21,35c0,.66.73,1,1.34,1a1.31,1.31,0,0,0,1.39-1.34,1.26,1.26,0,0,0-1.32-1.38,1.39,1.39,0,0,0-1.33.64H38.45l.82-4.73h5.28v1.73H40.83l-.31,1.52h0a2.29,2.29,0,0,1,1.63-.6A2.54,2.54,0,0,1,45,34.56c0,2.06-1.49,3.09-3.43,3.09S38.29,37,38.17,35Z"/><path d="M50.58,31.35a1,1,0,0,0-.42-.65,1.2,1.2,0,0,0-.59-.13c-1.17,0-1.62,1.17-1.67,2.12h0a2.1,2.1,0,0,1,2-.89,2.71,2.71,0,0,1,2.71,2.76,3.06,3.06,0,0,1-3.35,3.08c-2.47,0-3.33-2.1-3.33-4.23,0-2.34,1.13-4.34,3.66-4.34a2.7,2.7,0,0,1,2.92,2.28ZM49.27,36a1.34,1.34,0,1,0-1.32-1.29A1.27,1.27,0,0,0,49.27,36Z"/><path d="M53.75,29.18h6.08v1.64A9.52,9.52,0,0,0,58,33.53a9.83,9.83,0,0,0-.88,4H55a10.39,10.39,0,0,1,1.1-4,7.72,7.72,0,0,1,1.68-2.47v0h-4Z"/><path d="M62.54,33.11v0a1.66,1.66,0,0,1-1.25-1.7c0-1.65,1.7-2.3,3.11-2.3s3.07.65,3.07,2.31a1.69,1.69,0,0,1-1.24,1.69v0a1.89,1.89,0,0,1,1.57,2c0,1.85-1.76,2.57-3.42,2.57s-3.45-.61-3.45-2.57A2,2,0,0,1,62.54,33.11ZM63,35c0,.83.68,1.17,1.4,1.17s1.39-.32,1.39-1.17a1.23,1.23,0,0,0-1.38-1.2A1.25,1.25,0,0,0,63,35Zm.13-3.44c0,.74.65,1,1.27,1s1.28-.26,1.28-1-.62-1-1.28-1S63.1,30.84,63.1,31.53Z"/><path d="M70.61,35.37A.85.85,0,0,0,71,36a1.35,1.35,0,0,0,.72.19c1.1,0,1.5-1,1.55-2.12h0a2.09,2.09,0,0,1-1.87.9,2.71,2.71,0,0,1-2.79-2.84,3.05,3.05,0,0,1,3.2-3c2.43,0,3.48,1.85,3.48,4.09,0,2.41-1,4.49-3.66,4.49a2.68,2.68,0,0,1-2.91-2.28Zm2.63-3.31a1.37,1.37,0,1,0-1.39,1.37A1.32,1.32,0,0,0,73.23,32.06Z"/></g></g></svg>