<svg xmlns="http://www.w3.org/2000/svg" viewBox="0 0 250.07 37.67"><title>font-Poster Bodoni</title><g id="Layer_2" data-name="Layer 2"><g id="Layer_1-2" data-name="Layer 1"><path d="M0,8.49V8.17H.28c.38,0,.67-.71.86-1.22L3.61.18H6.12l3,8h.66v.32H4.41V8.17h.86L4.43,5.72H2L1.52,7c-.34.9.14,1.16.46,1.16H2.3v.32ZM3.2,2.35l-1.09,3H4.31Z"/><path d="M9.94,8.49V8.17h.91V.5H9.94V.18h6.58c1.24,0,2.94.44,2.94,2S17.86,4,16.69,4v.24l.77.06c1.12.11,2.21.67,2.21,1.94,0,2.37-2.78,2.22-4.45,2.22ZM14.52,4H15c.47,0,.68-.4.68-.94V1.39c0-.62-.31-.89-.92-.89h-.28Zm0,4.17h.41c.91,0,.94-.83.94-1.16V5.43c0-.92-.46-1.1-1.06-1.1h-.29Z"/><path d="M28,3h-.38c-.31-1-1.08-2.4-2.3-2.4C24.47.55,24,.77,24,3.41V5.72c0,2,.62,2.35,1.46,2.35A2.59,2.59,0,0,0,27.81,5.7h.37a3.24,3.24,0,0,1-3.53,3,4.21,4.21,0,0,1-4.5-4.4A4.26,4.26,0,0,1,24.53,0a4.31,4.31,0,0,1,1.61.32,1.91,1.91,0,0,0,.59.2.69.69,0,0,0,.36-.16L27.73,0H28Z"/><path d="M33.86.18c2.59,0,4.4,1.45,4.4,4.15a3.77,3.77,0,0,1-3.37,4.09,13.35,13.35,0,0,1-2.08.07H28.63V8.17h.89V.5h-.86V.18Zm-.73,8h.53c.55,0,.77-.19.77-1.7V1.75C34.42.67,33.92.5,33.5.5h-.37Z"/><path d="M38.63,8.49V8.17h.89V.5h-.89V.18h8l.06,2.91h-.4C46,1.77,45.19.5,43.88.5h-.73V4.14h.2c.37,0,1.21-.4,1.32-1.63h.4V6.16h-.4c-.11-1.31-.95-1.7-1.32-1.7h-.2V8.17H44c.91,0,1.86-.67,2.52-2.84h.36l-.06,3.17Z"/><path d="M47.23,8.49V8.17h.95V.5h-.92V.18h8.3l.06,3.06h-.38C54.76,1,53.6.5,52.59.5h-.72V4.14h.2c.37,0,1.21-.4,1.32-1.63h.4V6.16h-.4c-.11-1.31-.95-1.7-1.32-1.7h-.2V8.17h1v.32Z"/><path d="M64.24,0h.46V2.9h-.33C63.88,1.83,62.85.56,61.58.56,60,.56,60,2.07,60,3.24V7.12c0,.49,0,1.25.68,1.25.85,0,.73-1.1.73-1.69V4.52h-.7V4.19h4.81v.34h-.65v3.2A3.8,3.8,0,0,0,63.54,8a6.94,6.94,0,0,1-2.88.7,4.15,4.15,0,0,1-4.5-4.22,4.56,4.56,0,0,1,7-3.77Z"/><path d="M66,8.49V8.17h.94V.5H66V.18H71V.5h-.54V4.05h1.42V.5h-.54V.18h5.08V.5h-.95V8.17h.95v.32H71.38V8.17h.54V4.38H70.51V8.17H71v.32Z"/><path d="M76.79,8.49V8.17h.91V.5h-.91V.18h5.54V.5h-.91V8.17h.91v.32Z"/><path d="M88.92,4.56c0,1.45.07,2.61-1.25,3.6a3.75,3.75,0,0,1-2.12.52c-1.26,0-3-.46-3-2a1.27,1.27,0,0,1,1.26-1.42A1.16,1.16,0,0,1,85,6.37a1.18,1.18,0,0,1-1,1.19c-.18,0-.24.1-.24.28s.35.26.5.26a1.53,1.53,0,0,0,1.48-1.65,1.59,1.59,0,0,0-.42-1.16V.5H84.17V.18h5.61V.5h-.86Z"/><path d="M89.92,8.49V8.17h.92V.5h-.92V.18H95.5V.5h-1V4.41l2.85-2.87c.68-.68.25-1-.65-1h-.37V.18h3.78V.5h-.4a2.24,2.24,0,0,0-1.55.8l-.94.94,3.43,5.92h.53v.32H95.74V8.17h.85L94.5,4.46h0V8.17h.83v.32Z"/><path d="M101.28,8.49V8.17h.91V.5h-.91V.18h5.64V.5h-1.06V8.17h.55c1.81,0,2.36-1.48,2.72-3h.35v3.3Z"/><path d="M120.76,8.17h.95v.32H116.3V8.17h.94V1.45h0l-2.67,7H114l-2.72-7.12h0V7.15c0,.46,0,1,.83,1h.23v.32h-2.47V8.17h.23c.66,0,.74-.61.74-1V.5H110V.18h4.34l1.47,4,1.51-4h4.41V.5h-.95Z"/><path d="M121.91,8.49V8.17h.3c.52,0,.67-.59.67-1.14V1.14c-.23-.3-.42-.65-.79-.65h-.18V.18h4.56l3.25,4.45V1.1c0-.34-.37-.6-.82-.6h-.24V.18h2.47V.5h-.36c-.62,0-.61.47-.61,1.45V8.49h-2L123.3,1.82V7c0,.55.12,1.14.7,1.14h.38v.32Z"/><path d="M140.92,4.33a4.42,4.42,0,0,1-4.71,4.34,4.48,4.48,0,0,1-4.7-4.34A4.42,4.42,0,0,1,136.21,0,4.47,4.47,0,0,1,140.92,4.33ZM135.4,7.44a.82.82,0,0,0,.8.91.81.81,0,0,0,.82-.91V1.86c0-.6,0-1.54-.82-1.54s-.8.94-.8,1.54Z"/><path d="M141.27,8.49V8.17h.94V.5h-.91V.18h6.17c2.58,0,3.44,1.28,3.44,2.43s-.86,2.47-3.44,2.47h-1.64V8.17h1.12v.32Zm4.55-3.73h.46c.53,0,.86-.37.86-1.33V1.7c0-.55-.19-1.2-.94-1.2h-.38Z"/><path d="M160.88,4.33a4.19,4.19,0,0,1-3.06,4.08,1.63,1.63,0,0,0,1.45.88,1.42,1.42,0,0,0,1.31-.77l.31.12c-.48,1.08-1.18,2.43-2.53,2.43-.91,0-1.62-.7-1.44-2.46l-.37,0h-.38a4.48,4.48,0,0,1-4.7-4.34A4.42,4.42,0,0,1,156.16,0,4.47,4.47,0,0,1,160.88,4.33Zm-5.55,2.61a1.85,1.85,0,0,1,.84-.23,1.1,1.1,0,0,1,.82.38V1.86c0-.6,0-1.54-.82-1.54s-.84.94-.84,1.54Zm.06.66a.71.71,0,0,0,.72.74c.47,0,.86-.24.79-.72a.78.78,0,0,0-.73-.66A.7.7,0,0,0,155.38,7.6Z"/><path d="M162.15.5h-.89V.18h6.2c2.46,0,3.35,1,3.35,2,0,1.32-1.32,1.75-2.41,1.82v.12a2.32,2.32,0,0,1,2.29,2.52c0,.64,0,1.14.32,1.14s.42-.29.54-.46l.32.18a2.63,2.63,0,0,1-2.4,1.15c-1.55,0-2.49-.73-2.51-2.33,0-2-.2-2.16-.83-2.16h-.42v4h1v.32h-5.5V8.17h.92Zm3.57,3.32h.46c.56,0,.85-.16.85-1.6V1.49c0-.48-.29-1-.77-1h-.54Z"/><path d="M178,3.51A2.83,2.83,0,0,1,179.45,6c0,2.05-1.86,2.69-3.6,2.69a4.19,4.19,0,0,1-1.92-.56l-1.29.56h-.3l-.08-3h.38A3.88,3.88,0,0,0,176,8.35c.5,0,1.15-.2,1.15-.8s-.78-1-1.32-1.25L175,5.89c-1.74-.78-2.63-1.82-2.63-3.13A2.69,2.69,0,0,1,175.28,0a4.46,4.46,0,0,1,1.92.49L178.49,0h.28l.1,2.75h-.32A3.71,3.71,0,0,0,175.33.32c-.46,0-1,.24-1,.78s.79.91,1.27,1.16Z"/><path d="M182.65.5c-1.4.12-2,1.56-2.23,2.73H180l.06-3.06h8.78l.06,3.06h-.37c-.28-1.18-.83-2.61-2.23-2.73V8.17h1.09v.32h-5.89V8.17h1.1Z"/><path d="M189.27.18h5.58V.5h-1V6.84c0,.83.6,1.2,1.42,1.2,1.06,0,1.74-.46,1.74-2.59V1.92c0-1.13-.22-1.42-.77-1.42h-.31V.18h2.47V.5H198c-.32,0-.58.26-.58,1.48V6.26a2.14,2.14,0,0,1-1.22,2,5.22,5.22,0,0,1-2.25.4,9,9,0,0,1-1.88-.22A2.12,2.12,0,0,1,190.25,6V.5h-1Z"/><path d="M198.63.5V.18H204V.5h-.83l2,5,1.62-3.92c.4-.95-.22-1.13-.47-1.13H206V.18h2.33V.5h-.29c-.2,0-.59.4-.76.82l-2.87,7.17H202.5l-3.23-8Z"/><path d="M208.57.5V.18h4.33V.5h-.4l1.26,4.62.6-2L213.69.5h-.42V.18h4.52V.5h-.59L218.28,5h0l1.06-3.74c.17-.58-.1-.79-.44-.79h-.26V.18h1.82V.5a.74.74,0,0,0-.61.62l-2.1,7.36h-2l-1.21-4.62-1.31,4.62h-2l-2.36-8Z"/><path d="M220.71,8.49V8.17H221c.29,0,.8-.19,1.42-1L224.19,5,221.3.5h-.59V.18h5.64V.5h-.87l1.58,2.4.88-1.13c.64-.82.1-1.27-.48-1.27h-.38V.18h3.36V.5H230a2.59,2.59,0,0,0-1.55,1.1l-1.24,1.61,3.23,5H231v.32H225.4V8.17h.9l-1.88-2.9L223.14,7a1.1,1.1,0,0,0-.23.7c0,.38.38.5.7.5h.55v.32Z"/><path d="M231.36.5V.18H237V.5h-.85l2.16,3.57h.07l1.42-2.47c.54-.95-.14-1.1-.47-1.1H239V.18h2.66V.5h-.2c-.23,0-.65.14-1.26,1.2l-1.7,2.93V8.17h1.09v.32h-5.83V8.17h1.06v-3L232,.5Z"/><path d="M250.07.18V.55L246.2,8.17h.7c1.13,0,2.35-.84,2.78-2.85h.4L250,8.49h-7.76V8L246,.5h-.41a3.14,3.14,0,0,0-2.87,2.6h-.35l.14-2.93Z"/><path d="M4.25,18.11c0-.54-.13-.73-.68-.73-.22,0-.48,0-.48.13s.44.3.44.84c0,.83-1,1-1.6,1S.61,19.07.61,18.36c0-.53.3-1.31,3-1.31a10.8,10.8,0,0,1,2.16.23c.79.18,1.3.53,1.3,1.43v3.21c0,.13,0,.29.2.29s.35-.17.49-.31v.42a2.49,2.49,0,0,1-1.87.76,1.46,1.46,0,0,1-1.54-.83A3,3,0,0,1,2,23.07c-.91,0-1.87-.4-1.87-1.46,0-.79.42-1.61,2.1-1.83a9.21,9.21,0,0,1,1.42-.1h.59Zm0,1.86H3.81c-.74,0-.65.85-.65,1.4,0,.35,0,1,.46,1,.66,0,.62-.76.62-1.2Z"/><path d="M8,14.87v-.29c1.58,0,2.6-.14,3.49-.18v3.54a2.06,2.06,0,0,1,1.7-.89c1.67,0,2.47,1.56,2.47,3s-.83,3-2.51,3A1.83,1.83,0,0,1,11.35,22h0V23C10.49,23,9,22.89,8,22.89V22.6h.64V14.87Zm3.49,6.08c0,.89.28,1.42.66,1.42s.44-.29.44-1.42V19.08c0-.74,0-1.3-.43-1.3s-.67.48-.67,1.3Z"/><path d="M23,21.28a3.13,3.13,0,0,1-3.18,1.79c-2.17,0-3.66-1.13-3.66-3,0-2.07,1.94-3,3.79-3,2.33,0,3,1,3,1.94a1.28,1.28,0,0,1-1.36,1.33,1.24,1.24,0,0,1-1.28-1.22,1.28,1.28,0,0,1,.89-1.24s.19-.08.19-.16c0-.24-.6-.32-.76-.32-1,0-1.49.24-1.33,3.25,0,.95.14,2,1.37,2a2.25,2.25,0,0,0,2-1.46Z"/><path d="M31.11,22.6v.29c-1.12,0-2.23.12-3.36.16V22a1.91,1.91,0,0,1-1.85,1.12c-1.63,0-2.46-1.5-2.46-3s.79-3,2.48-3a2,2,0,0,1,1.68.89V14.87h-1v-.29c1.28,0,2.55-.14,3.84-.18v8.2Zm-3.5-3.53c0-.82-.26-1.3-.67-1.3s-.43.55-.43,1.3v1.87c0,1.13.14,1.42.44,1.42s.66-.53.66-1.42Z"/><path d="M34.45,20.43v.5c0,1,.18,1.72,1.29,1.72a2.84,2.84,0,0,0,2.2-1.26l.23.16a3.43,3.43,0,0,1-3,1.52,4.78,4.78,0,0,1-2-.32,2.72,2.72,0,0,1-1.75-2.69,3.1,3.1,0,0,1,3.39-3,3.2,3.2,0,0,1,3.49,3.38Zm1-.29V18.49c0-.42.1-1.15-.54-1.15s-.49.78-.49,1.15v1.65Z"/><path d="M38.7,17.49v-.36h.68A2.57,2.57,0,0,1,42,14.28c.72,0,1.52.35,1.52,1.19a1,1,0,0,1-1,1,.85.85,0,0,1-.36-1.66c0-.14,0-.12-.14-.12a1,1,0,0,0-1,1.1c0,1.09,1.07,1.4,2,1.36v.36h-.72V22.6h.67v.29H38.7V22.6h.67V17.49Z"/><path d="M45.49,20.66c-.22,0-.5.06-.5.32s1,.37,1.15.37h2c1.17,0,2.17.56,2.17,1.9,0,1.1-.82,2.28-3.57,2.28-2.55,0-3.18-.78-3.18-1.24,0-.67.89-.76,1.37-.74l0,0c-.65-.19-1.37-.67-1.37-1.44,0-1,.7-1.46,1.61-1.57v0a1.8,1.8,0,0,1-1.46-1.67c0-1.42,1.92-1.77,3-1.77a9.3,9.3,0,0,1,1.15.07,1.85,1.85,0,0,1,1.55-1.2c.48,0,1,.23,1,.79s-.32.71-.79.71a.62.62,0,0,1-.64-.55,2.29,2.29,0,0,1,.07-.36s0-.08-.08-.08c-.32,0-.67.47-.76.76.88.26,1.73.71,1.73,1.75,0,1.51-1.69,1.73-2.87,1.73Zm-.24,3c-.17,0-.37.48-.37.65,0,.8,1.1.9,1.69.9s2.75-.08,2.75-.89c0-.34,0-.48-1.67-.48A10,10,0,0,1,45.25,23.63Zm2.12-5.49c0-.7-.22-.83-.55-.83s-.54.22-.54.83v1.73c0,.46.28.59.5.59.44,0,.59-.19.59-.59Z"/><path d="M54.29,22.6h.42v.29h-4V22.6h.66V14.87h-.64v-.29c1.18,0,2.35-.14,3.53-.18v3.8a2.49,2.49,0,0,1,2.1-1.15c1.43,0,2,.89,2,2.13V22.6H59v.29H55V22.6h.42V19.13c0-.37.06-1.2-.43-1.2-.23,0-.73.14-.73,2.13Z"/><path d="M59.42,22.89V22.6h.66v-5.1h-.63v-.29c1.2,0,2.39-.11,3.59-.14V22.6h.63v.29Zm3.72-7.42c0,.89-.86,1.18-1.61,1.18s-1.61-.29-1.61-1.18.83-1.19,1.61-1.19S63.14,14.52,63.14,15.47Z"/><path d="M68.34,21.2c0,1.37.2,3-1.1,3.84a3,3,0,0,1-1.69.49c-.7,0-1.62-.38-1.62-1.2a1,1,0,0,1,1-1,.93.93,0,0,1,1,.9c0,.56-.59.72-.59.82s.11.14.23.14a1,1,0,0,0,1-1.1,1.25,1.25,0,0,0-1.07-1.31V17.51h-1v-.29c1.3,0,2.59-.11,3.89-.14Zm.11-5.73c0,.89-.86,1.18-1.61,1.18s-1.61-.29-1.61-1.18.83-1.19,1.61-1.19S68.44,14.52,68.44,15.47Z"/><path d="M69.31,22.89V22.6h.58V14.87h-.58v-.29c1.1,0,2.21-.14,3.32-.18v5.67l.95-.82c.5-.44,1-.95,1-1.3s-.5-.46-.72-.46h-.3v-.29h3.33v.29h-.31a4,4,0,0,0-1.85,1.06l2.29,4h.17v.29H73.5V22.6H74L72.8,20.34l-.17.12V22.6h.48v.29Z"/><path d="M77.45,22.89V22.6h.67V14.87h-.7v-.29c1.2,0,2.4-.14,3.6-.18v8.2h.67v.29Z"/><path d="M82.07,17.51v-.29c1.09,0,2.2-.11,3.29-.14v1.24a2.64,2.64,0,0,1,2.11-1.26,1.59,1.59,0,0,1,1.69,1.2,2.64,2.64,0,0,1,2.05-1.2c1.39,0,1.86.67,1.86,2.4V22.6h.66v.29h-3.8V22.6h.36V19.08c0-.32.11-1.13-.4-1.13s-.6.6-.6,1.15v3.5h.36v.29h-3.5V22.6h.36V19c0-.6,0-1.08-.37-1.08s-.62.58-.62,1.06v3.6h.32v.29H82.07V22.6h.66v-5.1Z"/><path d="M97.62,18.2a2.49,2.49,0,0,1,2.1-1.15c1.13,0,1.94.48,1.94,2.22V22.6h.65v.29H98.36V22.6h.42V19c0-.37.11-1.06-.43-1.06s-.73.76-.73,1.14V22.6H98v.29h-4V22.6h.66v-5.1h-.64v-.29c1.17,0,2.35-.11,3.53-.14Z"/><path d="M109.08,17.73a2.87,2.87,0,0,1,1.2,2.25,3,3,0,0,1-1.08,2.31,5,5,0,0,1-5.3,0A3,3,0,0,1,102.81,20a2.87,2.87,0,0,1,1.2-2.25,5,5,0,0,1,5.06,0Zm-3.13,4.11c0,.48,0,.94.6.94s.56-.46.56-.94v-3.6c0-.42,0-.91-.56-.91s-.6.49-.6.91Z"/><path d="M110.65,17.51v-.29c1.12,0,2.23-.11,3.35-.14v1.09a2,2,0,0,1,1.86-1.12c1.62,0,2.46,1.52,2.46,3s-.79,3-2.49,3a2,2,0,0,1-1.68-.88v3H115v.29h-4.38v-.29h.64V17.51Zm3.49,3.44c0,.89.28,1.42.66,1.42s.44-.29.44-1.42V19.08c0-.74,0-1.3-.43-1.3s-.67.48-.67,1.3Z"/><path d="M125.81,25.24h.64v.29h-4.39v-.29h.89v-3a1.88,1.88,0,0,1-1.68.86c-1.69,0-2.48-1.5-2.48-3s.83-3,2.46-3a2,2,0,0,1,1.85,1.12V17.07c1.12,0,2.24.14,3.36.14v.29h-.64Zm-2.87-6.16c0-.82-.26-1.3-.67-1.3s-.43.55-.43,1.3v1.87c0,1.13.14,1.42.44,1.42s.66-.53.66-1.42Z"/><path d="M126.77,17.51v-.29c1.15,0,2.31-.11,3.47-.14v1.21h0a2.15,2.15,0,0,1,1.93-1.19,1.4,1.4,0,0,1,1.55,1.33,1.34,1.34,0,0,1-1.4,1.4A1.26,1.26,0,0,1,131,18.51a2.23,2.23,0,0,1,.07-.56c-.18-.3-.54.38-.58.5a3.87,3.87,0,0,0-.13,1.39V22.6h.85v.29h-4.44V22.6h.64v-5.1Z"/><path d="M134.43,20.88a3.34,3.34,0,0,0,2.78,1.91c.36,0,.83-.06.83-.52s-1-.74-1.92-1.09-1.92-.86-1.92-2.18a2,2,0,0,1,2.23-1.94,4.76,4.76,0,0,1,1.67.36l.94-.36h.26l.07,2.05h-.28a2.88,2.88,0,0,0-2.41-1.76c-.38,0-.71.12-.71.56s.72.62,1,.73l1.28.47A2,2,0,0,1,139.65,21a2,2,0,0,1-.77,1.62,3.06,3.06,0,0,1-1.77.41,6.34,6.34,0,0,1-1.51-.38l-1,.38h-.32l-.08-2.19Z"/><path d="M143.6,15.11v2.11H145v.29H143.6v4.23c0,.26,0,.61.34.61.61,0,.85-1,.91-1.45h.26c-.12,1.68-1.09,2.17-2.64,2.17s-1.81-.41-1.81-2v-3.6H140v-.29a4,4,0,0,0,3.42-2.11Z"/><path d="M153.67,22.89c-1.15,0-2.3.12-3.45.16V21.92A2.52,2.52,0,0,1,148,23.07c-1.27,0-2-.46-2-2.3V17.51h-.64v-.29c1.18,0,2.35-.11,3.53-.14v4.71a.42.42,0,0,0,.43.48c.59,0,.73-.83.73-1.27V17.51h-.64v-.29c1.18,0,2.34-.11,3.51-.14V22.6h.67Z"/><path d="M153.91,17.22h4.45v.29h-.77l1.64,3.59,1.12-2.54c.3-.68,0-1-.35-1h-.28v-.29h2.11v.29c-.55,0-.82.36-1,.85l-2,4.53H157l-2.47-5.39h-.61Z"/><path d="M162.12,17.22h3.95v.29h-.38l1.51,3.79.54-1.4-.89-2.39h-.53v-.29h4.08v.29h-.67l1.43,3.71,1-2.71c.31-.82,0-1-.18-1h-.23v-.3h1.83v.29c-.7,0-.91.61-1.12,1.15l-1.62,4.23h-2l-1-2.53-1,2.53h-2.1l-2.12-5.39h-.6Z"/><path d="M173.91,22.89V22.6a7.14,7.14,0,0,0,2.66-2.09l-2.11-3h-.55v-.29h4.53v.29h-.59L179,19.14l.72-.66a.53.53,0,0,0-.32-1h-.26v-.29h2.75v.29h-.18a1.53,1.53,0,0,0-.85.42l-1.64,1.48,2.27,3.2h.41v.29h-4.31V22.6h.49l-1.28-1.84-.61.61a1.19,1.19,0,0,0-.43.68c0,.37.58.54.89.54h.34v.29Z"/><path d="M188.77,18.41a.55.55,0,0,0-.41-.9h-.16v-.29h2.09v.29c-.47,0-.9.55-1.2,1.07l-2.55,4.31a13.2,13.2,0,0,1-1.18,1.73,2.35,2.35,0,0,1-1.81.92,1.33,1.33,0,0,1-1.4-1.31,1.1,1.1,0,0,1,1.16-1.06,1,1,0,0,1,1.09,1,.76.76,0,0,1-.26.61c-.13.12-.26.18-.26.28s.08.11.16.11a1.33,1.33,0,0,0,.88-.47A7.13,7.13,0,0,0,186.09,23l-3.33-5.47h-.66v-.29h4.58v.29H186l1.68,2.75Z"/><path d="M191.35,17.22h6.15v.29l-3.31,5.1h.54a2.56,2.56,0,0,0,2.5-2h.31l-.13,2.25h-6.56V22.6l3.3-5.1h-.47a2.48,2.48,0,0,0-2.12,1.86h-.26Z"/><path d="M7.65,33.09c0,2.79-1.63,4.38-3.75,4.38S.14,35.89.14,33.09,2.07,28.8,3.9,28.8,7.65,30.18,7.65,33.09ZM3.29,36c0,.7.14,1.1.61,1.1s.61-.41.61-1.1V30.25c0-.46,0-1.13-.61-1.13s-.61.67-.61,1.13Z"/><path d="M9.28,37.29V37h1.18V29.3H9.36V29h2.05c.68,0,1.37-.13,2.05-.18V37h1.07v.32Z"/><path d="M16.15,37.47c0-1.87,1.31-2.87,2.59-3.93A2.86,2.86,0,0,0,20,31.05c0-.94-.42-1.84-1.46-1.84-.23,0-.91.08-.91.41a.09.09,0,0,0,.08.1,1.21,1.21,0,1,1-.14,2.42,1.3,1.3,0,0,1-1.32-1.36c0-1.33,1.5-2,3.14-2,3,0,3.8,1.38,3.8,2.48,0,1.38-.62,2-3.18,2.63a7.09,7.09,0,0,0-1.7.56c-.34.18-1,.6-1,1,0,.08.08.11.14.11a6.28,6.28,0,0,0,.71-.36A4.27,4.27,0,0,1,20,34.9a9.88,9.88,0,0,1,1.46.14c1.2.19,1.52,0,1.64-.59h.36a3.18,3.18,0,0,1-.92,2.33,3,3,0,0,1-2.27.68,7.11,7.11,0,0,1-1.73-.3A5.18,5.18,0,0,0,17.3,37a.76.76,0,0,0-.78.52Z"/><path d="M28.08,31c0-.84-.1-1.88-1.19-1.88-.17,0-.88.16-.88.4,0,.06.14.11.32.2A1.14,1.14,0,0,1,27,30.83,1.12,1.12,0,0,1,25.73,32a1.24,1.24,0,0,1-1.24-1.25c0-1.51,2-1.92,3.13-1.92,1.33,0,3.47.54,3.47,2.21a1.87,1.87,0,0,1-1.57,1.75c-.08,0-.66.13-.66.2s.41.14.5.17c1.38.35,2,1.09,2,2,0,1.32-1,2.34-3.8,2.34-2.33,0-3.27-.8-3.27-2a1.27,1.27,0,0,1,1.37-1.31,1.19,1.19,0,0,1,1.3,1.24,1.13,1.13,0,0,1-.49,1c-.24.18-.48.26-.46.42s.61.26.78.26c.95,0,1.37-.53,1.37-2.18s-.38-1.7-1-1.7h-.46c-.19,0-.24,0-.24-.17s0-.19.24-.19h.48c.72,0,.89-.66.89-1.24Z"/><path d="M32.1,34.51l4.75-5.71h1.69v5.77h1V35h-1V37h1v.32H34.63V37h1V35H32.1Zm.55-.07v.13h3V30.86Z"/><path d="M41.41,29c0-.12.14-.14.25-.13a20.84,20.84,0,0,0,2.83.29A8.09,8.09,0,0,0,46.16,29a4.41,4.41,0,0,1,.66-.17c.11,0,.12.12.12.22,0,.6-.89,2.29-3.71,2.29a12.92,12.92,0,0,1-1.69-.19l-.2,1.57c0,.17.2,0,.34,0a5.45,5.45,0,0,1,2.09-.44c1.64,0,3.61.64,3.61,2.61,0,2.22-2.27,2.64-4,2.64-2.39,0-3-1-3-1.88a1.24,1.24,0,0,1,1.38-1.32,1.18,1.18,0,0,1,1.26,1.25,1.17,1.17,0,0,1-.68,1.07c-.07,0-.36.12-.36.2,0,.28.66.36.84.36.93,0,1.42-.48,1.42-2.35,0-1-.11-2.07-1.38-2.07a6.17,6.17,0,0,0-1.61.5A.18.18,0,0,1,41,33Z"/><path d="M51.3,32.94A3.13,3.13,0,0,1,53,32.37a2.4,2.4,0,0,1,2.63,2.44c0,2.05-1.7,2.66-3.47,2.66-2.58,0-4-1.81-4-4.23a4.1,4.1,0,0,1,4.28-4.44c1.94,0,2.64,1.12,2.64,1.74,0,.82-.61,1.18-1.36,1.18a1.14,1.14,0,0,1-1.24-1.15,1.15,1.15,0,0,1,.71-1c.08,0,.22-.14.22-.19s-.65-.23-.77-.23c-.53,0-1.32.3-1.32,2.36Zm0,3.08c0,.8.16,1.13.62,1.13s.54-.78.54-1.13v-2c0-.35.07-1-.46-1-.78,0-.71,1.5-.71,2Z"/><path d="M56.88,32h-.34L57,28.86h.34l-.08.89c0,.06.13,0,.19-.1a3.14,3.14,0,0,1,2.17-.85,6,6,0,0,1,1.51.25,5.68,5.68,0,0,0,1.33.25c.59,0,.91-.31,1.14-.31.06,0,.12.12.12.17s-.43.7-.55.85a8.45,8.45,0,0,0-1.75,5.41c0,1.18-.43,2.25-1.79,2.25A1.56,1.56,0,0,1,58,36.06a4.24,4.24,0,0,1,1.63-2.81,33.34,33.34,0,0,0,2.51-2.35l-.12-.1a4.07,4.07,0,0,1-2.07.58A13.22,13.22,0,0,1,57.63,31,1.32,1.32,0,0,0,57,31Z"/><path d="M66.67,32.85a3.43,3.43,0,0,1-1.56-.55,1.67,1.67,0,0,1-.7-1.44c0-1.34,1.45-2.06,3.48-2.06s3.48.72,3.48,2.06-1.12,1.85-2.25,2V33a3.73,3.73,0,0,1,1.69.62,1.88,1.88,0,0,1,.84,1.57c0,1.07-.7,2.25-3.75,2.25s-3.75-1.19-3.75-2.25c0-1.4,1.4-2.05,2.53-2.19Zm1.82,1.08c0-.61-.3-.82-.6-.82s-.59.2-.6.82V36c0,.91.2,1.14.6,1.14s.6-.23.6-1.14Zm0-4.07c0-.42-.08-.78-.55-.78s-.55.36-.55.78v2c0,.47,0,.95.55.95s.55-.48.55-.95Z"/><path d="M76.42,33.39a3.37,3.37,0,0,1-1.68.55,2.37,2.37,0,0,1-2.63-2.42c0-2.09,1.76-2.72,3.54-2.72a4,4,0,0,1,3.93,4.28,4.23,4.23,0,0,1-1.27,3.32A4.45,4.45,0,0,1,75,37.47c-1,0-2.51-.46-2.51-1.69,0-.8.58-1.16,1.32-1.16a1.14,1.14,0,0,1,1.26,1.15c0,.84-.92,1-.92,1.18s.71.2.84.2c.79,0,1.39-.23,1.39-2.52Zm-1.16-.64a.44.44,0,0,0,.46.5c.4,0,.67-.37.67-1.3V30.12c0-.49-.11-1-.55-1-.6,0-.58,1-.58,1.4Z"/></g></g></svg>