<svg xmlns="http://www.w3.org/2000/svg" viewBox="0 0 222.23 37.39"><title>font-Shelley Script</title><g id="Layer_2" data-name="Layer 2"><g id="Layer_1-2" data-name="Layer 1"><path d="M7.76,8.44c-.28,0-.54,0-.82.07l.31-.78A5.29,5.29,0,0,1,4.91,7,5.21,5.21,0,0,1,1.69,8.52C.84,8.52,0,8.12,0,7.15a.63.63,0,0,1,.61-.67.44.44,0,0,1,.46.44c0,.72-.66.32-.66.7s.5.76,1.3.76A5,5,0,0,0,4.77,6.9a3.64,3.64,0,0,1-1.7-2.54,2,2,0,0,1,2-2.05A2.76,2.76,0,0,1,7.51,4c3-3.44,4.82-3.95,5-3.95s0,0,0,0-1.78,1.49-4.4,7.51a3.18,3.18,0,0,0,2.09-.94,0,0,0,0,1,0,0,2.86,2.86,0,0,1-2.19,1ZM4.87,6.81A30.09,30.09,0,0,0,7.4,4.13,2.38,2.38,0,0,0,5.21,2.57a1.82,1.82,0,0,0-1.73,2A2.85,2.85,0,0,0,4.87,6.81ZM7.44,4.27A28,28,0,0,1,5,6.88a4.68,4.68,0,0,0,2.31.73,4.44,4.44,0,0,0,.35-1.85A4.54,4.54,0,0,0,7.44,4.27ZM7.68,6.9l0,0A19.76,19.76,0,0,1,12.26.24l0,0A15.92,15.92,0,0,0,7.57,4.16,5.81,5.81,0,0,1,7.8,5.63,7.5,7.5,0,0,1,7.68,6.9Z"/><path d="M19.45,5.6c0-.83-.37-1.43-1-1.43-.48,0-.54.19-.84.19a.19.19,0,0,1-.2-.2.24.24,0,0,1,.26-.23c.11,0,.2,0,.36,0a1.9,1.9,0,0,0,1.82-2.13A1.16,1.16,0,0,0,19.27.67c-1.37.95-2.05,2.71-2.88,4.15-1.14,2-2.9,3.69-4.69,3.69-.92,0-1.51-.37-1.51-.92,0-.32.14-.59.49-.59a.38.38,0,0,1,.42.4c0,.21-.17.4-.17.52,0,.28.34.46.8.46,1.77,0,2.75-1.57,3.9-3.69A11.21,11.21,0,0,1,19.1.59,5,5,0,0,0,17,.22C13.76.22,11,2.38,11,4.33a.94.94,0,0,0,1.06,1,4.55,4.55,0,0,0,3-2.24A9.09,9.09,0,0,0,16,1s.08,0,.08.06c0,1-1.21,4.43-4,4.43A1.13,1.13,0,0,1,10.9,4.37c0-2,2.79-4.29,6.13-4.29a5.41,5.41,0,0,1,2.25.41,3.44,3.44,0,0,1,.86-.41s0,0,0,.1-.64.26-.73.37a1.9,1.9,0,0,1,1.09,1.63c0,.86-.9,1.66-1.92,1.9v0a1.78,1.78,0,0,1,1.54,1.76,2.88,2.88,0,0,1-2.91,2.66c-.86,0-1.36-.46-1.36-1.16a2.16,2.16,0,0,1,1.27-1.81.06.06,0,0,1,.06.06c0,.1-.23.07-.61.47A1.69,1.69,0,0,0,16,7.35c0,.67.42,1,1.22,1C18.46,8.37,19.45,6.78,19.45,5.6Z"/><path d="M22.27,4.62c-.62.12-1.73.4-1.82.4a.06.06,0,0,1-.06,0s0-.07.12-.1c.34-.08.9-.18,1.83-.41C23.71,2,27,.07,28.84.07c.48,0,.8.26.8.61,0,1.19-2.24,2.58-6.49,3.73A7.1,7.1,0,0,0,22.57,7c0,.8.36,1.33,1.15,1.33,1.57,0,3.17-1.32,3.17-2.67a.67.67,0,0,0-.71-.76c-1.06,0-1.86,1.47-2.16,2.58-.07.28-.08.36-.12.36s0,0,0-.13c0-1.36.8-3,2.21-3a.87.87,0,0,1,1,.94c0,1.32-1.68,2.78-3.29,2.78a1.85,1.85,0,0,1-1.9-2.08A4.7,4.7,0,0,1,22.27,4.62ZM28.8.22c-1.8,0-4.58,2-5.53,4C25.89,3.53,29.5,2.18,29.5.66,29.5.41,29.2.22,28.8.22Z"/><path d="M29.19,5.49c1.58,0,3.29-1.44,3.29-4.15,0-.32,0-.34.08-.34s.06,0,.06.43c0,2.54-1.75,4.2-3.41,4.2-.92,0-1.49-.76-1.49-1.82,0-1.94,2.59-3.74,5.16-3.74A4.39,4.39,0,0,1,35.77,1,5.07,5.07,0,0,1,37.16.07c.06,0,.08,0,.08.06s-.68.25-1.35,1a3.6,3.6,0,0,1,.89,2.43c0,2.47-2,5-5.8,5a10.38,10.38,0,0,1-1.1-.1,9.11,9.11,0,0,1-1.6.1c-.88,0-1.06-.17-1.06-.34s.13-.24.48-.24a16.79,16.79,0,0,1,2.07.31c2,0,3.29-5.21,5.88-7.15A4.53,4.53,0,0,0,32.89.26a4.46,4.46,0,0,0-4.6,4.25C28.28,5.11,28.5,5.49,29.19,5.49Zm6.6-4.26c-2,2.51-2.45,5.53-5.5,7a4.61,4.61,0,0,0,1,.06A5.06,5.06,0,0,0,36.63,3.5,3.33,3.33,0,0,0,35.79,1.24Z"/><path d="M40,8.32a2.9,2.9,0,0,0,2.9-2.58A.71.71,0,0,0,42.13,5c-.71,0-1.67,1-2.06,2.44-.07.26-.1.38-.14.38s0,0,0-.12c0-1.24.84-2.89,2.16-2.89a.93.93,0,0,1,1,1A3.13,3.13,0,0,1,39.9,8.52c-1.14,0-2-.58-2-1.68,0-1.76,2-2.91,3.57-3.17v0a1,1,0,0,1-.7-1C40.8,1.22,42.66.07,44,.07a1,1,0,0,1,1.17,1.1A1.88,1.88,0,0,1,43.42,3a.75.75,0,0,1-.77-.7,1.45,1.45,0,0,1,.71-1.15A1.43,1.43,0,0,1,43.9.9s.07,0,.07,0-.11.1-.25.18a1.75,1.75,0,0,0-.87,1.22c0,.32.25.53.62.53A1.75,1.75,0,0,0,45,1.19c0-.67-.36-.92-1-.92A3.28,3.28,0,0,0,41.3,3.06a.53.53,0,0,0,.29.56l.4,0c.34,0,.61.07.61.18s-.11.17-.32.17-.61-.16-.78-.16a3.41,3.41,0,0,0-2.81,3.13A1.25,1.25,0,0,0,40,8.32Z"/><path d="M49.66,6.36a5.8,5.8,0,0,1,1.81-2.28l0,0a5.25,5.25,0,0,1-1.79.6C48.74,6.3,47,8.52,44.89,8.52c-1,0-1.67-.43-1.67-1,0-.31.14-.55.48-.55a.43.43,0,0,1,.46.42c0,.2-.2.46-.2.52,0,.31.23.5,1,.5C47,8.37,48.11,6,48.8,4.77a4.87,4.87,0,0,0-2.28,1.44,0,0,0,0,1,0,0,4.25,4.25,0,0,1,2.43-1.57A7.52,7.52,0,0,1,52,1s0,0,0,0-.18.12-.66.6a14,14,0,0,0-1.64,2.77,6.34,6.34,0,0,0,2.18-.79.09.09,0,0,1,.08.08A6.65,6.65,0,0,0,50.52,6ZM43.85,4c0,.61.52.89,1.09.89,1.14,0,2.65-1.26,3.43-2.59.47-.79.38-.95.48-.95a0,0,0,0,1,0,0c0,.29-1,3.68-3.87,3.68-.63,0-1.32-.32-1.32-1a3.64,3.64,0,0,1,2.34-3C47.23.48,48.83.22,52.17.22A8.26,8.26,0,0,0,54.67,0s0,0,0,.06a1.8,1.8,0,0,1-1.57.71c-1.4,0-3.23-.24-3.86-.24C46,.53,43.85,2.3,43.85,4Z"/><path d="M56.88,4.68a4.94,4.94,0,0,1-2.78,1.56,1.35,1.35,0,0,1-1.37-1.45,1.41,1.41,0,0,1,0-.29c-.58.14-1.79.4-1.88.4s-.07,0-.07-.06.06-.06.24-.08c.41,0,1.17-.23,1.71-.36.55-2.47,4.46-4.32,6-4.32.4,0,.86.17.86.63,0,1.66-4.7,3.2-6,3.56a2.9,2.9,0,0,0-.16,1c0,.52.19.82.7.82,1.51,0,3.55-2.52,3.69-2.52a.09.09,0,0,1,.08.08A18.29,18.29,0,0,0,57,5.53a4.65,4.65,0,0,1-3.91,3c-.72,0-1.62-.26-1.62-1.14A.55.55,0,0,1,52,6.79a.42.42,0,0,1,.47.4c0,.31-.33.43-.33.71s.35.48,1,.48c2.1,0,2.76-2.51,3.84-3.67ZM58.78.22c-1.61,0-4.52,1.8-5.13,3.92,1.74-.47,5.83-1.93,5.83-3.44C59.48.43,59.25.22,58.78.22Z"/><path d="M65.12,4.08l0,0-2.2.74c-1.34,2.45-3.32,3.72-4.61,3.72-.79,0-.95-.31-.95-.72,0-1.15,2.05-2,4.67-2.9a11.77,11.77,0,0,1,2.52-3.42l0,0a5.06,5.06,0,0,1-2,.83c-.71,0-.91-.31-.91-1,0-.2,0-.41,0-.6s0-.35-.18-.35A3.75,3.75,0,0,0,59.82,1.5c-1.08,1.12-1.15,1.56-1.28,1.56s0,0,0,0c0-.32,2.1-2.87,3.14-2.87.44,0,.65.29.65.83,0,.26,0,.53,0,.79a.34.34,0,0,0,.29.37A6,6,0,0,0,65.26.78c.73-.6,1-.71,1.09-.71a.16.16,0,0,1,.14.14c0,.18-.4.23-1.09.61-1,.55-1.88,2.65-2.4,3.79.66-.25,1.34-.47,2.23-.74C65.83,3,68.39.14,70,.14c.37,0,.71.18.71.58,0,1.43-3.3,2.66-4.69,3.12C64.93,5.78,64.46,7,64.46,8c0,.2.08.4.29.4.38,0,.91-.48,1.34-.9.6-.59.7-.8.76-.8s.07,0,.07.06a6.37,6.37,0,0,1-1,1.07,2.34,2.34,0,0,1-1.25.72c-.59,0-.79-.62-.79-1.22A5.94,5.94,0,0,1,65.12,4.08ZM58.48,8.37c1.61,0,2.79-1.93,3.5-3.3-2.43.74-4.2,1.57-4.2,2.58A.64.64,0,0,0,58.48,8.37ZM69.89.29c-1.28,0-3.15,2.33-3.75,3.35l0,0c2.1-.78,4.2-1.6,4.21-3A.44.44,0,0,0,69.89.29Z"/><path d="M67.57,7.05a.43.43,0,0,1,.43.42c0,.24-.22.36-.22.48s.28.42.76.42A3.15,3.15,0,0,0,71,7a13,13,0,0,0,1.31-2.31,1.37,1.37,0,0,1-1.43-1.34c0-1.06,1-2.11,2.47-2.6A12.66,12.66,0,0,1,76.72.07s.1,0,.1.07,0,0-.14.07C74.85.64,73.87,3,73.17,4.47a3.68,3.68,0,0,0,1.61-1s.06,0,.06,0a3,3,0,0,1-1.77,1.14c-.94,1.86-2.64,3.85-4.55,3.85-.83,0-1.45-.43-1.45-.91S67.24,7.05,67.57,7.05Zm3.74-3.53a.94.94,0,0,0,1,.95c.8-1.59,2.39-3.6,3.9-4.2h0C72.87.58,71.31,2,71.31,3.53Z"/><path d="M71.86,9.76c1.56-.6,2.41-.73,3.66-1.13.77-1.16,1.28-2.34,1.92-3.45a1.4,1.4,0,0,1-1.49-1.37c0-1.28,1.4-2.46,3.21-3.08a14,14,0,0,1,3-.66c.07,0,.07,0,.07.06s0,0-.25.14C80.61.94,79.92,2,78.31,5A3.28,3.28,0,0,0,80,3.91s.08,0,.08.07a2.85,2.85,0,0,1-1.86,1.17c-.62,1.12-1.2,2.25-1.92,3.31a3.73,3.73,0,0,0,1.42-.71,11.11,11.11,0,0,0,1.15-1.12s.06,0,.06.07a6.16,6.16,0,0,1-1.08,1.13,5,5,0,0,1-1.77.9c-.9,1.37-2.9,3.44-4.65,3.44-.6,0-1.19-.28-1.19-.95S71,10.07,71.86,9.76ZM71.39,12c1.26,0,2.85-1.23,4-3.14A31.67,31.67,0,0,0,71.86,10c-.47.2-1.15.74-1.15,1.35S71,12,71.39,12ZM81.52.31c-3.49.58-5,2-5,3.65a.92.92,0,0,0,1.06,1,11.49,11.49,0,0,1,4-4.65Z"/><path d="M83.53,1c0-.14,0-.26,0-.37s-.13-.2-.25-.2a2.81,2.81,0,0,0-1.66,1.16c-.94,1.15-1,1.64-1.12,1.64a.06.06,0,0,1-.06-.06c0-.28,1.7-3,3.14-3,.37,0,.62.29.62.74,0,.83,0,.89.37.89a5.7,5.7,0,0,0,2.21-1c.74-.5,1-.67,1.13-.67a.14.14,0,0,1,.13.14c0,.48-1.43-.1-2.62,2.58-2.1,4.72-4.05,5.72-5.6,5.72-1,0-1.38-.56-1.38-.86A.48.48,0,0,1,79,7.12a.39.39,0,0,1,.44.41c0,.22-.16.35-.16.47s.3.37.61.37c3.14,0,3-4.14,6.46-7.16l0,0a4.38,4.38,0,0,1-2,.78C83.73,2,83.53,1.5,83.53,1ZM85.9,6.25a4,4,0,0,0,.1-.84c0-1.24-1.13-.66-1.13-.92s.88.49,2.84-2C89,.83,90.39.14,91.25.14c.65,0,1.14.29,1.14.77a.44.44,0,0,1-.48.49.36.36,0,0,1-.38-.32c0-.31.19-.28.19-.5S91.53.29,91.3.29c-2,0-2.51,3.15-5.76,4.17v0a1.68,1.68,0,0,1,1.18,1.73c0,.46-.19,1.07-.19,1.59s.07.56.36.56.6-.31,1-.74c.82-.79.85-1,.91-1a.07.07,0,0,1,.07.07,7.86,7.86,0,0,1-.74.86c-.59.6-1,.92-1.37.92-.66,0-1-.74-1-1.57A3.26,3.26,0,0,1,85.9,6.25Z"/><path d="M95.88,7.65a13.23,13.23,0,0,0,1-1s.07,0,.07,0a4.45,4.45,0,0,1-.71.82,3.24,3.24,0,0,1-2.24,1,6.18,6.18,0,0,1-2.36-.67,3.89,3.89,0,0,1-2.08.67c-.59,0-1.32-.23-1.32-.79,0-.24.3-.6,1.09-.6a9.37,9.37,0,0,1,2.31.47,9.4,9.4,0,0,0,2.08-3.21c-1.13.24-1.93.47-2,.47s-.06,0-.06-.06S92,4.7,93.84,4.2C95,2.06,97,.07,98.07.07a.53.53,0,0,1,.59.52c0,.78-1.34,2.53-4,3.54a9.84,9.84,0,0,1-2.81,3.54,9,9,0,0,0,2.33.49A2.45,2.45,0,0,0,95.88,7.65Zm-6.34.72a3,3,0,0,0,1.88-.61,7.78,7.78,0,0,0-2.19-.49c-.53,0-.83.2-.83.49S88.92,8.37,89.53,8.37ZM98.08.22C97,.22,95.9,1.67,94.76,4c2-.68,3.75-2.45,3.75-3.38A.39.39,0,0,0,98.08.22Z"/><path d="M107.23.56c-5.3,4-6.81,8-9.49,8C96.68,8.52,96,8,96,7.3a.58.58,0,0,1,.58-.66.45.45,0,0,1,.43.47c0,.35-.36.38-.36.64s.35.62,1.13.62c1.85,0,3.36-2.33,6-5a25.16,25.16,0,0,1,3.9-3.27,0,0,0,0,1,0,0c0,.08,0,0-.95,1.15-1.75,2.2-3.78,5.88-3.78,6.54a.12.12,0,0,0,.12.11c.41,0,3.37-4.2,5.94-6.58A8.25,8.25,0,0,1,110.58.07a0,0,0,0,1,0,0c0,.06-.19.22-.68,1-1.81,2.78-3.53,5.68-3.53,7a.31.31,0,0,0,.3.3c.42,0,1.08-.58,1.43-.94.66-.67.65-.73.68-.73a.07.07,0,0,1,.07.06,3.66,3.66,0,0,1-.61.72c-.65.67-1.15,1-1.68,1s-.79-.32-.79-1c0-1.89,3.11-5.56,4.26-6.84l0,0c-3.32,2.73-6.37,7.77-7.38,7.77-.29,0-.38-.25-.38-.48,0-1.82,3-5.45,4.94-7.38Z"/><path d="M117,7.58c2.18-4.25,4.51-7.51,5.83-7.51a.53.53,0,0,1,.58.53.41.41,0,0,1-.44.44c-.56,0-.26-.56-.64-.56-.56,0-2.06,1.67-3.79,4.61-1.87,3.19-1.8,3.55-2,3.55s-.07,0-.07-.07a4.85,4.85,0,0,0,.28-1.45c0-.95-.22-1.87-.22-2.82a7.7,7.7,0,0,1,.88-3.51l0,0c-1.43,2.13-3.86,7.76-7.18,7.76-1,0-1.61-.38-1.61-1.1a.51.51,0,0,1,.53-.53.4.4,0,0,1,.41.43c0,.32-.26.34-.26.6s.3.46,1.06.46c1.85,0,3.74-2.17,5.47-5.14s1.85-3.2,2-3.2.1,0,.1.07a5.06,5.06,0,0,0-.52,2.48c0,.46.08,1.18.08,1.73a11.47,11.47,0,0,1-.48,3.25Z"/><path d="M127.18.07c.74,0,1.55.38,1.55,1.21,0,.17-.06.6-.16.6s0-.06,0-.11a2.12,2.12,0,0,0,.06-.46c0-.77-.65-1.1-1.4-1.1-2.7,0-5.5,4.05-5.5,7,0,.82.37,1.16,1.15,1.16,2.37,0,4.94-3.63,4.94-5.85,0-.88-.31-1.28-.9-1.27-1.35,0-3,2.67-3.2,3.95,0,.19-.06.22-.08.22s-.06,0-.06-.08a6.33,6.33,0,0,1,1.14-2.89,2.94,2.94,0,0,1,2.16-1.38c.74,0,1.09.62,1.09,1.44,0,2.18-2.54,6-5.18,6-1.17,0-1.7-1-1.7-2.16C121,3.5,124.68.07,127.18.07Z"/><path d="M136.46.72c-1.14,1-1.56,2-2.66,4.05-.68,1.25-2.67,3.74-4.74,3.74-1,0-1.51-.47-1.51-.91s.13-.59.5-.59.43.18.43.48-.17.32-.17.41c0,.28.46.47.77.47,3.29,0,3.57-5.23,7.21-7.72a4.69,4.69,0,0,0-2.06-.43c-3.56,0-6,2.42-6,4,0,.71.31,1.05,1,1.05,1.47,0,3.6-2.35,4-4.08,0-.08.06-.18.1-.18s0,0,0,.11c0,.84-1.42,4.34-3.91,4.34-.72,0-1.39-.28-1.39-1.22,0-1.73,2.47-4.12,6.19-4.12a5.72,5.72,0,0,1,2.19.46,2.16,2.16,0,0,1,.76-.41.06.06,0,0,1,.06.06c0,.06-.17,0-.67.42a2.32,2.32,0,0,1,1.29,1.93,2.38,2.38,0,0,1-2.36,2.24,1.27,1.27,0,0,1-1.07-.42.1.1,0,0,1,.08-.08,1,1,0,0,0,.8.31c1.19,0,1.87-1.42,1.87-2.37A1.57,1.57,0,0,0,136.46.72Z"/><path d="M140.16,7.72a12.29,12.29,0,0,0,1.9.53,3.58,3.58,0,0,0,2.34-1.12c.34-.34.41-.47.46-.47a.06.06,0,0,1,.06.06,5.2,5.2,0,0,1-.92.91,3.6,3.6,0,0,1-2.3.88A6.61,6.61,0,0,1,139.59,8a4.85,4.85,0,0,1-2.08.49c-.92,0-1.24-.36-1.24-.74s.34-.65,1.2-.65a9.17,9.17,0,0,1,2.48.52c1.33-.49,4.42-2.94,4.42-6,0-1.12-.52-1.46-1.57-1.46-1.72,0-4.31,2-4.31,3.83a.87.87,0,0,0,.95.93c2.19,0,3.81-3.31,3.9-3.71.06-.18.07-.2.11-.2s0,0,0,.11c0,.31-1,4-3.89,4-.8,0-1.25-.42-1.25-1.12,0-2,2.69-4,4.63-4a2,2,0,0,1,2.11,2.19c0,2.41-3,4.59-5,5.43Zm-2.52.6A4.48,4.48,0,0,0,139.41,8a7.11,7.11,0,0,0-2.29-.63c-.44,0-.7.21-.7.42C136.43,8.19,136.83,8.32,137.64,8.32Z"/><path d="M152.11,4.49A1.61,1.61,0,0,1,153,5.91c0,.55-.36,1.24-.36,2.06,0,.26.06.4.26.4s.71-.4,1.06-.74.86-1,.91-1,.07,0,.07.06a7.25,7.25,0,0,1-.75.88c-.5.53-.91.94-1.33.94-.61,0-.86-.78-.86-1.21,0-.7.36-1.49.36-2.12,0-.43-.14-.64-.49-.64-.13,0-.28,0-.41,0s-.26-.07-.26-.17.1-.17.29-.17.48.11.6.11A2.42,2.42,0,0,0,153.92,2a1.44,1.44,0,0,0-.6-1.27c-1.54,1.27-1.79,2.72-2.81,4.39C149.36,7,147.78,8.52,146,8.52c-.55,0-1.45-.2-1.45-.94a.48.48,0,0,1,.49-.54.41.41,0,0,1,.44.41,1.76,1.76,0,0,1-.13.48c0,.24.24.44.68.44,3.43,0,3.21-4.94,7.1-7.77a4.59,4.59,0,0,0-2-.38c-3.71,0-6,2.5-6,3.92,0,.84.37,1.16.94,1.16,1.66,0,3.48-2.24,4-4.17,0-.19,0-.25.1-.25s0,0,0,.11c0,.9-1.08,4.51-4.05,4.51A1.17,1.17,0,0,1,145,4.2c0-1.61,2.38-4.12,6.19-4.12a6.35,6.35,0,0,1,2.16.41,2.55,2.55,0,0,1,.72-.41s0,0,0,.07-.2.11-.61.39a1.91,1.91,0,0,1,1.12,1.64c0,1.2-1.48,2.1-2.53,2.28Z"/><path d="M159.75,4.94a10.94,10.94,0,0,1-2.15,1s-.06,0-.06-.07.07-.07.26-.14a14.65,14.65,0,0,0,2-.94c1-2.47,2.93-4.68,4.22-4.68a.53.53,0,0,1,.59.58c0,1.46-2.89,3.42-3.89,3.84-.89,2.21-2.57,4-4.67,4-1.37,0-1.69-.64-1.69-1a.49.49,0,0,1,.52-.56.41.41,0,0,1,.42.43c0,.29-.19.32-.19.52s.38.49,1,.49a3.18,3.18,0,0,0,2-.82A8.19,8.19,0,0,0,159.78,5Zm1.08-.61c1.93-1.07,3.66-2.66,3.66-3.67A.43.43,0,0,0,164,.22c-.25,0-.65.13-1.27.72a12.71,12.71,0,0,0-1.91,3.37Z"/><path d="M167.43,3.89A6.42,6.42,0,0,1,170.17,1s0,0,0,0a5.11,5.11,0,0,0-1.72,2.24c-.95,2.12-3,5.18-5.44,5.18-1,0-1.67-.38-1.67-1.08a.51.51,0,0,1,.49-.55.44.44,0,0,1,.44.44c0,.29-.17.37-.17.59s.46.46,1,.46C164.9,8.37,165.79,6.84,167.43,3.89ZM161.88,4c0,.61.52.89,1.09.89,1.14,0,2.65-1.26,3.43-2.59.46-.77.38-.95.49-.95s0,0,0,0c0,.29-1,3.68-3.87,3.68-.64,0-1.32-.32-1.32-1a3.64,3.64,0,0,1,2.34-3c1.19-.58,2.78-.84,6.13-.84A8.24,8.24,0,0,0,172.7,0s0,0,0,.06a1.8,1.8,0,0,1-1.57.71c-1.4,0-3.23-.24-3.86-.24C164,.53,161.88,2.3,161.88,4Z"/><path d="M179.92.19c-3.24,5-4.77,7.2-4.77,7.84,0,.26.12.34.28.34.4,0,.72-.26,1.37-.91.41-.41.67-.79.71-.79s.07,0,.07.06a5.56,5.56,0,0,1-.77.9c-.62.62-1,.89-1.39.89s-.53-.38-.53-.68a4.54,4.54,0,0,1,.48-1.8l0,0c-.53.75-2.21,2.51-3.19,2.51-.52,0-.66-.34-.66-.83,0-1.83,3.36-4.94,3.36-6.54,0-.61-.48-.94-1.21-.94-1.76,0-4.16,1.73-4.16,3.35,0,.54.37.83.94.83a2.9,2.9,0,0,0,2.13-1.22A6.54,6.54,0,0,0,173.71.82s0,0,0,.07c0,1.51-1.29,3.77-3.21,3.77a1.1,1.1,0,0,1-1.21-1.21c0-1.38,2.18-3.37,4.35-3.37a1.46,1.46,0,0,1,1.52,1.67c0,1.8-3.36,5.06-3.36,6.31,0,.26.11.32.32.32.5,0,2.19-.9,4.13-3.87,2.48-3.83,2.66-4.25,3-4.25Z"/><path d="M181.3,1.13c0-.43-.11-.72-.3-.72s-.8.36-1.43,1.27c-.78,1.13-.72,1.32-.82,1.32s-.07,0-.07-.06S180,.14,181.36.14c.36,0,.66.32.66,1,0,.53.14.71.35.71A4.56,4.56,0,0,0,184.43.43c.1-.19.22-.36.37-.36a.13.13,0,0,1,.12.13c0,.28-.82.46-1.16,1.93a17.69,17.69,0,0,1-3.25,6.21l0,0a32.75,32.75,0,0,0,5.37-5.52c.85-1,2.34-2.78,3.07-2.78a.46.46,0,0,1,.46.5A.41.41,0,0,1,189,1c-.31,0-.26-.34-.59-.34-.67,0-2.61,2.64-4,4.15-2.87,3.24-4.08,3.81-4.19,3.81s-.06,0-.06-.08A10.94,10.94,0,0,0,181.93,5a11,11,0,0,1,2.21-4l0,0a4.25,4.25,0,0,1-2.2,1.17C181.46,2.16,181.34,1.7,181.3,1.13Z"/><path d="M189,1.19c-.07-.64-.14-.68-.31-.71s-.73.3-1.31,1A12,12,0,0,0,186.48,3s0,0,0,0c0-.29,1.36-2.73,2.69-2.73.43,0,.59.31.64.89s.12.77.3.77a3.6,3.6,0,0,0,2-1.34c.22-.37.42-.46.5-.46s.11,0,.11.08c0,.41-.74.34-1.38,2.48a16.6,16.6,0,0,1-3,5.66l0,0c1.34-.72,4.43-5.43,6.57-7.35.47-.42.53-.9.84-.9.07,0,.11,0,.11.08,0,.26-.5.49-.74.92-.82,1.46-.82,3.6-3.55,7.15l0,0c.68-.36,2.61-2.26,5-5.29,2-2.54,2.46-2.82,3.09-2.82.26,0,.44.12.44.41a.38.38,0,0,1-.43.41c-.36,0-.3-.34-.59-.34s-1.14.73-2.61,2.65c-3,3.9-5,5.34-5.25,5.34-.07,0-.08,0-.08-.11a10.88,10.88,0,0,0,1.44-2.92,12.46,12.46,0,0,1,2.13-4.21l0,0A43.11,43.11,0,0,0,190.82,6c-1.51,1.92-2.69,2.77-2.91,2.77-.06,0-.07,0-.07-.07a9.59,9.59,0,0,0,1.6-3.14A11.57,11.57,0,0,1,191.86,1l0,0a4.12,4.12,0,0,1-2,1.2C189.21,2.13,189.09,1.76,189,1.19Z"/><path d="M201.94,8.37c.64,0,1.38-.74,1.74-1.14s.43-.54.47-.54.07,0,.07.06a4.27,4.27,0,0,1-.54.65c-.84.95-1.45,1.12-1.75,1.12-.58,0-.85-.47-.85-1.37,0-.19,0-.44,0-.67l0,0a6.46,6.46,0,0,1-3.85,2.06c-.72,0-1-.42-1-.82,0-1.49,2.45-2.64,5.66-3.43a5.84,5.84,0,0,0,1-2.93A1,1,0,0,0,201.74.22c-1.52,0-3.68,1.74-3.68,3.3,0,.46.14.68.67.68a3.8,3.8,0,0,0,2.85-3c.06-.33.06-.38.11-.38s0,0,0,.19a3.18,3.18,0,0,1-3,3.36.75.75,0,0,1-.82-.82c0-1.71,2.21-3.5,3.86-3.5.79,0,1.56.48,1.56,1.87a2.68,2.68,0,0,1,0,.35l0,0c.72-.83,2.46-2.24,3.61-2.24a.7.7,0,0,1,.8.73c0,1.48-2.13,2.51-5,3.38a8.74,8.74,0,0,0-1.33,3.45C201.44,8.23,201.57,8.37,201.94,8.37Zm-4.55,0c1.73,0,3.63-2.57,4.43-3.93-1.37.29-5.11,1.37-5.11,3.12C196.71,8.08,196.88,8.37,197.4,8.37ZM206.92.22c-1.37,0-3.44,2.65-4.07,3.8,1.5-.5,4.53-1.25,4.53-3.26C207.39.42,207.27.22,206.92.22Z"/><path d="M204.6,3.44c0-1.43,2.23-3.37,4.25-3.37a1.48,1.48,0,0,1,1.66,1.55c0,1.79-2.09,3.27-2.09,4.33,0,.28.08.36.37.36.68,0,2.43-1.25,3.67-3.12A7.38,7.38,0,0,1,216.06.07c.07,0,.11,0,.11.06s-.53,0-1.58.94-1.67,2.82-2.75,4.5c-1.22,1.9-2.52,3-4,3-.95,0-1.42-.42-1.42-.95a.5.5,0,0,1,.47-.49.43.43,0,0,1,.47.43c0,.25-.2.37-.2.49s.32.37.76.37c1.92,0,2.82-1.7,4-4.15l0,0c-.49.67-2.12,2.26-3.17,2.26-.37,0-.56-.31-.56-.83,0-1.7,2.09-3.18,2.09-4.49,0-.52-.48-.92-1.39-.92-1.7,0-4,1.63-4,3.25,0,.6.34.9.74.9a4,4,0,0,0,3.29-3c.1-.3.13-.59.2-.59s0,0,0,.12c0,1.31-1.22,3.65-3.24,3.65C205.09,4.56,204.6,4.21,204.6,3.44Z"/><path d="M215.31,6.67c1-.5,1.57-1.1,2.78-1.1.7,0,1,.4,1,1s-.5,1.12-.5,1.55c0,.16.07.22.22.22a2.63,2.63,0,0,0,1.27-.85c.64-.62.7-.82.74-.82a.06.06,0,0,1,.07.07,5.8,5.8,0,0,1-.72.8c-.6.58-1.08.94-1.43.94s-.64-.38-.64-1c0-.89.55-1.12.5-1.54,0-.16-.17-.28-.64-.28a6.72,6.72,0,0,0-3.23,1.56c-.92.89-1.37,1.27-1.56,1.26a.16.16,0,0,1-.17-.17c0-.42,1.8-1.32,2-1.52a32.29,32.29,0,0,1,6-5.77l0,0a3.38,3.38,0,0,1-1.61.44c-1.51,0-1.29-1.08-2.43-1.08-.92,0-2.79,1.27-2.79,2.54,0,.55.25.86.9.86a3.36,3.36,0,0,0,2.47-1.66c.26-.44.28-.6.37-.6s.06,0,.06.07S217.2,4,215.3,4c-.87,0-1.29-.36-1.29-1.09,0-1.37,2.2-2.77,3.42-2.77,1.44,0,1.57,1.08,2.48,1.08,1.27,0,1.78-1.08,2.17-1.08.12,0,.16,0,.16.1,0,.41-.83.17-3.11,2.88-.61.73-.87.82-3.84,3.53Z"/><path d="M4.46,19.57a13.28,13.28,0,0,0-1.73,3c0,.1,0,.17.2.17.36,0,1-.62,1.7-1.44.14-.17.16-.19.18-.19a.08.08,0,0,1,.07.07s-.38.46-.66.76c-.55.58-1,.95-1.33.95s-.53-.17-.53-.83c0-.08,0-.16,0-.22-.36.36-1,1-1.49,1-.61,0-.76-.55-.76-1.09a3,3,0,0,1,.06-.56s0,0-.07,0,0,0,0-.06,0-.06.19-.25a3.55,3.55,0,0,1,2.45-1.4c.36,0,.52.26.52.59a1.12,1.12,0,0,1,0,.32l0,0c.43-.68.41-.84.66-.85ZM.9,22.7c.7,0,2.19-1.73,2.19-2.61,0-.24-.12-.43-.37-.43-1,0-2.1,1.8-2.1,2.66C.62,22.54.71,22.7.9,22.7Z"/><path d="M9.19,15.62C6.25,20.52,5.35,22,5.35,22.39c0,.18,0,.31.28.31a2.43,2.43,0,0,0,2.05-2.53c0-.44.06-.66.36-.66s.29.23.29.46a3.55,3.55,0,0,1-.89,1.86h.11a1.51,1.51,0,0,0,1-.52c.22-.24.2-.25.24-.25a.06.06,0,0,1,.06.06s-.07.11-.19.25a1.72,1.72,0,0,1-1.25.6H7.31a2.89,2.89,0,0,1-1.66.88c-.5,0-.71-.36-.71-.84,0-.85,1.14-2,1.14-2.12a0,0,0,0,0,0,0,8.78,8.78,0,0,0-.61.67c-.65.71-.65.77-.71.77a.06.06,0,0,1-.06,0c0-.07,1-1.15,1.15-1.34a40.6,40.6,0,0,0,2.6-4.16Z"/><path d="M11.53,20.61a.28.28,0,0,1-.3-.3c0-.31.36-.19.36-.46,0-.1-.08-.21-.28-.21-.72,0-1.91,1.21-1.91,2.58,0,.31.16.47.5.47a2.44,2.44,0,0,0,1.54-.86c.65-.67.67-.78.71-.78a.07.07,0,0,1,.07.07,3.47,3.47,0,0,1-.47.55c-.76.83-1.33,1.16-1.93,1.16s-.95-.74-.95-1.32a1.79,1.79,0,0,1,0-.32,0,0,0,0,0,0,0s-.06,0-.08,0a.06.06,0,0,1-.06-.06s0-.07.41-.52a2.7,2.7,0,0,1,2-1.14c.47,0,.78.2.78.59A.5.5,0,0,1,11.53,20.61Z"/><path d="M17.86,15.65l.71,0C16.7,19,14.76,22,14.76,22.47c0,.14,0,.23.2.23s.49-.19,1-.7.84-.95.88-.95.07,0,.07,0a1.29,1.29,0,0,1-.25.34c-.84,1-1.37,1.4-1.81,1.4-.28,0-.44-.26-.44-.64a1.81,1.81,0,0,1,.08-.49l0,0c-.26.41-1,1.15-1.61,1.15s-.68-.6-.68-1.09a3.14,3.14,0,0,1,0-.58s-.06.06-.07.06a.07.07,0,0,1-.06-.07s0-.06.36-.46a3.29,3.29,0,0,1,2.24-1.27.52.52,0,0,1,.56.54,1.18,1.18,0,0,1,0,.3l0,0Zm-3.11,3.93c-.8,0-2.11,1.61-2.11,2.79,0,.23.1.32.32.32A3.6,3.6,0,0,0,15.11,20C15.11,19.77,15,19.58,14.76,19.58Z"/><path d="M17.4,21.67a2.19,2.19,0,0,0,0,.4c0,.47.13.62.5.64a2.71,2.71,0,0,0,1.68-.95c.47-.48.59-.7.64-.7s.06,0,.06.07a5.71,5.71,0,0,1-.83.92,2.4,2.4,0,0,1-1.63.79c-.66,0-.95-.65-.95-1.27a2.5,2.5,0,0,1,0-.35s0,0,0,0,0,0,0,0a.12.12,0,0,1-.06-.07,3.67,3.67,0,0,1,.44-.52,3.28,3.28,0,0,1,2.07-1.14.56.56,0,0,1,.6.58C19.87,21,18.11,21.52,17.4,21.67Zm0-.14c.79-.1,2.06-.78,2.06-1.64,0-.16-.08-.23-.24-.23C18.63,19.65,17.62,20.85,17.45,21.52Z"/><path d="M20.69,22.6a2.94,2.94,0,0,0,1.78-1.14c.31-.33.31-.4.37-.4a.06.06,0,0,1,.06.06,4.62,4.62,0,0,1-.6.7,3.2,3.2,0,0,1-1.7,1L18.88,26l-.73.1L20,22.72a.39.39,0,0,1-.14-.35A.34.34,0,0,1,20.2,22a.31.31,0,0,1,.16,0l1.38-2.46,0,0a11.2,11.2,0,0,0-1,1,6.39,6.39,0,0,1-.56.64.06.06,0,0,1-.06-.06,9.54,9.54,0,0,1,1-1.14c.65-.72.85-.74,1.08-1.16.54-1,2-3.61,3.2-3.61.32,0,.44.2.44.55,0,1.16-1.74,2.39-3.67,3.93Zm1.57-3.13c.92-.8,3.33-2.45,3.33-3.79,0-.19-.12-.28-.34-.28-1,0-2,2.11-3,4Z"/><path d="M27.31,19.56l-2,3.33,0,0a6,6,0,0,0,1.94-1.59c.19-.23.2-.26.25-.26a.05.05,0,0,1,0,.06c0,.06-.08.14-.43.53a5.56,5.56,0,0,1-1.91,1.45c-.44.91-2,3.49-3.15,3.49a.56.56,0,0,1-.6-.61c0-1,1.18-1.68,3.18-2.82.18-.4.4-.85.84-1.72l0,0c-.34.48-1.15,1.43-1.81,1.43s-.74-.42-.74-1c0-.3.08-.44.08-.62,0,0,0,0,0,0s-.1.08-.13.08,0,0,0-.07,0-.1.38-.46a3.91,3.91,0,0,1,2.28-1.19c.38,0,.62.17.62.58a1.5,1.5,0,0,1,0,.42l0,0a8.77,8.77,0,0,0,.5-.91Zm-5.18,6.88c.9,0,2.18-2.37,2.42-3.09-.79.48-2.77,1.52-2.77,2.64C21.78,26.26,21.82,26.44,22.13,26.44Zm1.21-4.11c0,.2.11.37.31.37.89,0,2.25-1.94,2.25-2.6,0-.26-.07-.44-.36-.44C24.59,19.65,23.34,21.42,23.34,22.33Z"/><path d="M27,22.84c.66-1.16,1.33-2.26,2-3.26v0c-.34.37-.5.62-.94,1.09s-.52.61-.56.61,0,0,0-.07a24.89,24.89,0,0,0,2.48-3.25l1.3-2.23.73-.08c-.46.8-2.66,4.43-3.51,5.94l0,0c1.15-1.32,2-2.07,2.45-2.07s.48.31.48.62c0,.66-1.32,1.87-1.32,2.4a.17.17,0,0,0,.18.17c.37,0,.73-.34,1.4-1a8.6,8.6,0,0,1,.61-.66.06.06,0,0,1,.06.06,5.78,5.78,0,0,1-.6.71c-.85.94-1.25,1.07-1.54,1.07s-.48-.13-.48-.66c0-1.05,1.32-1.89,1.32-2.37a.16.16,0,0,0-.13-.16c-.64,0-2.82,2.46-3.15,3.12Z"/><path d="M34.23,19.51c-1.44,2.37-1.67,2.69-1.67,2.94s.12.25.23.25c.38,0,.94-.48,1.33-.89s.71-.79.73-.79.07,0,.07.06a5.69,5.69,0,0,1-.73.84c-.59.61-1.08.92-1.42.92a.56.56,0,0,1-.58-.62c0-.8.73-1.62,1.14-2.23l0,0c-.14.14-.44.46-1,1.1-.12.14-.13.16-.17.16s0,0,0-.07,0-.07.36-.43.85-.91,1-1.16Zm.84-2.35a.28.28,0,0,1,.28.31.45.45,0,0,1-.42.46.28.28,0,0,1-.28-.31A.45.45,0,0,1,35.07,17.16Z"/><path d="M37.11,19.51c-.49.89-1.54,2.87-2,3.53l0,0a7,7,0,0,0,2.09-1.73c.22-.25.22-.28.26-.28a.05.05,0,0,1,0,.06c0,.06,0,.08-.23.3A6.91,6.91,0,0,1,35,23.29c-.5.91-1.81,3.3-3,3.3-.36,0-.61-.16-.61-.54,0-1.12,2-2.19,3.12-2.89.84-1.76,1.47-3,1.68-3.27l0,0a10.81,10.81,0,0,0-1,.95c-.36.37-.36.42-.4.42a.07.07,0,0,1-.06-.07s0-.06.43-.49a15,15,0,0,1,1.18-1.1Zm-5,6.93c1,0,2-2.37,2.31-3.07l0,0c-.84.55-2.59,1.58-2.67,2.78C31.76,26.36,31.93,26.44,32.15,26.44Zm5.64-9.26a.28.28,0,0,1,.28.31.45.45,0,0,1-.42.46.28.28,0,0,1-.28-.31A.45.45,0,0,1,37.79,17.18Z"/><path d="M41.92,15.62l-4.2,7.17-.82,0,1.92-3.11,0,0c-.19.23-.56.68-.82,1-.54.59-.56.66-.61.66s0,0,0-.07.11-.12,1-1.19a24.72,24.72,0,0,0,2.83-4.38Zm-.67,4.15c-.26,0-.36.19-.55.5a1.6,1.6,0,0,1-1,.65v0a.9.9,0,0,1,.63.73,5,5,0,0,1-.26.84.18.18,0,0,0,.18.18c.37,0,1-.61,1.2-.85.66-.7.66-.78.71-.78s.07,0,.07.06a7,7,0,0,1-.61.72c-.42.46-1,1-1.42,1s-.64-.55-.64-.9.24-.55.24-.76a.23.23,0,0,0-.22-.19c-.13,0-.25.17-.47.17s-.18-.06-.18-.14.07-.19.42-.19c.06,0,.11,0,.23,0a2.09,2.09,0,0,0,1.06-.79c.35-.46.53-.55.8-.55a.41.41,0,0,1,.46.37.32.32,0,0,1-.34.32C41.31,20.21,41.26,20,41.25,19.77Z"/><path d="M46.7,15.62c-3.12,4.92-4.12,6.38-4.12,6.92a.19.19,0,0,0,.19.16c.37,0,.79-.31,1.39-.91s.62-.73.68-.73a.06.06,0,0,1,.06.06,4.48,4.48,0,0,1-.46.54c-.7.74-1.26,1.19-1.72,1.19s-.52-.29-.52-.6c0-.72.4-1.06,1.22-2.42l0,0c-.2.24-.4.48-.79.91s-.5.59-.56.59,0,0,0-.06a25.75,25.75,0,0,0,2.46-3.18l1.44-2.35Z"/><path d="M47.11,22.84a20.45,20.45,0,0,0,1.71-3,.16.16,0,0,0-.16-.18c-.5-.06-2.53,2.6-2.88,3.12l-.78.07a25,25,0,0,0,1.83-3c0-.13-.06-.17-.18-.17-.34,0-.74.36-1.14.78-.56.6-.68.8-.73.8s-.06,0-.06-.07a9.68,9.68,0,0,1,.71-.83c.55-.62.95-.83,1.24-.83a.42.42,0,0,1,.48.46,4,4,0,0,1-.68,1.62l0,0c.42-.46,1.6-2.1,2.23-2.1.26,0,.41.16.41.54a3.57,3.57,0,0,1-.59,1.51l0,0c.42-.48,1.62-2.07,2.29-2.07.23,0,.42.18.42.61,0,.78-1.16,1.7-1.22,2.31a.22.22,0,0,0,.19.26,2.35,2.35,0,0,0,1.09-.77c.8-.85.75-.86.82-.86s.06,0,.06.06a5.49,5.49,0,0,1-.68.78c-.6.62-1,.94-1.32.94s-.52-.31-.52-.77c0-1,1.27-1.87,1.27-2.32,0,0,0-.11-.16-.11-.68,0-2.63,2.63-3,3.12Z"/><path d="M52.26,22.84a27.6,27.6,0,0,0,1.92-3,.17.17,0,0,0-.18-.18c-.34,0-.66.25-1.27.92s-.55.66-.6.66-.06,0-.06-.07a5.86,5.86,0,0,1,.46-.55c.58-.67,1.05-1.1,1.52-1.1.31,0,.44.23.44.59a3.28,3.28,0,0,1-.76,1.51l0,0c.47-.44,1.85-2.12,2.46-2.12.3,0,.43.31.43.56a1.79,1.79,0,0,1-.44,1,3.89,3.89,0,0,0-.8,1.36.22.22,0,0,0,.19.24c.28,0,.78-.43,1.27-1s.56-.68.64-.68,0,0,0,.06a8.08,8.08,0,0,1-.75.88c-.53.53-.95.85-1.22.85s-.53-.34-.53-.77c0-1,1.29-2,1.29-2.28,0-.08-.06-.14-.17-.14-.58,0-2.75,2.55-3.11,3.12Z"/><path d="M60,21.84a.28.28,0,0,0,.13,0,1.54,1.54,0,0,0,1.12-.59c.16-.18.17-.2.2-.2s.06,0,.06.06,0,.07-.3.36a1.65,1.65,0,0,1-1.19.52H59.9a2.1,2.1,0,0,1-1.54.85c-.48,0-.74-.42-.74-1.07a3.08,3.08,0,0,1,.06-.62s0-.07,0-.07-.18.19-.22.19a.07.07,0,0,1-.07-.06,5.06,5.06,0,0,1,.7-.75,3.05,3.05,0,0,1,2-.95.73.73,0,0,1,.72.83A2.47,2.47,0,0,1,60,21.84Zm0-2.18c-.84,0-2,1.6-2,2.6,0,.34.14.44.31.44.95,0,2.06-1.42,2.06-2.51C60.48,19.9,60.36,19.65,60.06,19.65Z"/><path d="M64.81,17.4l-2.55,4.33,0,0c.44-.53,1.81-2.24,2.58-2.24.31,0,.44.29.44.62,0,.76-1.28,1.78-1.28,2.4,0,.11.07.17.19.17s.65-.19,1.39-1c.48-.54.5-.61.55-.61a.06.06,0,0,1,.06.06c0,.06,0,0-.37.46-.82,1-1.32,1.27-1.67,1.27s-.52-.31-.52-.77c0-.95,1.28-1.78,1.28-2.27a.16.16,0,0,0-.16-.16c-.46,0-2.22,1.46-4,4.53l-1,1.75L59,26l4.11-6.68,0,0c-.62.73-1.61,2-1.66,2s-.07,0-.07-.06,0,0,.71-.86a23.21,23.21,0,0,0,2.1-2.82Z"/><path d="M70.53,19.58,67.34,25l0,0c1-1.21,2-2.39,3-3.49.38-.42.41-.47.44-.47a.08.08,0,0,1,.07.07s-.71.78-.9,1A37.06,37.06,0,0,0,66.78,26l-.77.08,2.71-4.46,0,0c-.22.26-1.1,1.22-1.78,1.22-.47,0-.7-.43-.7-1.08a3.2,3.2,0,0,1,.08-.62s0,0,0,0-.12.12-.14.12a.08.08,0,0,1-.06-.08,3.25,3.25,0,0,1,.46-.52,3.62,3.62,0,0,1,2.28-1.13.52.52,0,0,1,.59.59,3.88,3.88,0,0,1-.07.41l0,0,.53-.92ZM66.91,22.7c.94,0,2.34-1.8,2.34-2.6,0-.32-.12-.44-.44-.44-.73,0-2.1,1.46-2.1,2.71C66.71,22.52,66.78,22.7,66.91,22.7Z"/><path d="M71,22.84c1.21-2,1.85-2.7,1.85-3a.18.18,0,0,0-.2-.17c-.17,0-.46.13-.94.63-.73.75-.84,1-.89,1a.06.06,0,0,1-.06-.06,7.54,7.54,0,0,1,.71-.83c.52-.55.89-.84,1.22-.84a.51.51,0,0,1,.47.56,3.8,3.8,0,0,1-.76,1.62l0,0c.64-.74,1.22-1.14,1.33-1.46s.37-.74.79-.74c.2,0,.29.06.29.19,0,.47-1.34.83-1.34,1.65a.39.39,0,0,0,.4.41.77.77,0,0,0,.54-.24c.26-.26.36-.46.41-.46a.07.07,0,0,1,.07.06,2.92,2.92,0,0,1-.3.38,1,1,0,0,1-.73.37.5.5,0,0,1-.53-.47,1,1,0,0,1,.24-.67l0,0a17.26,17.26,0,0,0-1.81,2.05Z"/><path d="M77,21.73a2.58,2.58,0,0,1-1.88,1.12.72.72,0,0,1-.54-.13.62.62,0,0,1-.19-.41c0-.2.08-.34.3-.34s.25.08.25.19-.17.14-.17.36.06.18.2.18c.56,0,1.21-1.32,1.21-2a3.6,3.6,0,0,1,.07-1.13l0,0c-.14.08-1.1,1.22-1.39,1.55,0,.06-.07.1-.11.1a0,0,0,0,1,0,0c0-.08.19-.24.53-.66a12.48,12.48,0,0,1,1-1.13s.13-.36.4-.36.2.07.2.18-.26.3-.48.37a1.09,1.09,0,0,0,0,.28,14.92,14.92,0,0,0,.25,1.64,1.06,1.06,0,0,1-.32.72h0a4.44,4.44,0,0,0,.86-.84c.25-.28.25-.34.3-.34s.06,0,.06.07A4.5,4.5,0,0,1,77,21.73Z"/><path d="M80.25,17.28l.74,0-.78,1.2h1.4a.07.07,0,0,1,.06.07s0,.07-.06.07H80.13c-.37.66-2.28,3.39-2.28,3.95,0,.12.07.18.23.18.36,0,.78-.31,1.32-.85s.68-.79.74-.79.06,0,.06.07a5.55,5.55,0,0,1-.65.73c-.73.73-1.16,1-1.5,1a.55.55,0,0,1-.56-.59c0-.68.41-1.27,1.12-2.28l0,0c-.23.28-.41.47-.73.84a6,6,0,0,1-.47.52s-.06,0-.06,0,0-.1.52-.62a22.08,22.08,0,0,0,1.64-2.06h-.43s-.06,0-.06-.07a.08.08,0,0,1,0-.07h.5Z"/><path d="M82.32,19.51c-1.48,2.35-1.74,2.52-1.74,3a.19.19,0,0,0,.2.2c.62,0,2.23-1.86,3-3.14l.77,0c-.32.56-1.81,2.46-1.81,3a.18.18,0,0,0,.2.2c.17,0,.56-.24,1.13-.83.72-.73.71-.8.77-.8a.06.06,0,0,1,.06.06,9.23,9.23,0,0,1-.71.8c-.61.62-1,.91-1.31.91s-.5-.48-.5-.77a1.34,1.34,0,0,1,.08-.46l0,0c-.35.37-1.09,1.25-1.64,1.25-.38,0-.55-.29-.55-.65,0-.91.78-1.58,1.24-2.25l0,0A10.58,10.58,0,0,0,80.33,21c-.16.18-.16.2-.2.2s0,0,0-.07.06-.11.61-.68a10.63,10.63,0,0,1,1-.9Z"/><path d="M86.85,19.79c0-.08-.07-.13-.2-.13a1.43,1.43,0,0,0-.83.48c-.66.64-1,1.1-1,1.1s0,0,0-.07.06-.11.66-.77,1-.89,1.28-.89.49.31.49.61c0,.85-1.1,1.62-1.1,2.25,0,.22.11.32.3.32a2.76,2.76,0,0,0,2.15-2.53c0-.42.14-.66.37-.66s.28.14.28.39a4.29,4.29,0,0,1-1.13,2l0,0a1.83,1.83,0,0,0,1-.41c.31-.26.37-.42.41-.42a.07.07,0,0,1,.07.06,1.84,1.84,0,0,1-.52.54,2.07,2.07,0,0,1-1.09.37c-.16,0-.83.82-1.59.82-.46,0-.68-.34-.68-.84C85.65,21.06,86.85,20.25,86.85,19.79Z"/><path d="M93.75,19.51a13.16,13.16,0,0,0-1.67,2.91c0,.18.11.28.3.28a2.76,2.76,0,0,0,2.18-2.46c0-.63.11-.73.37-.73a.27.27,0,0,1,.28.26A3.66,3.66,0,0,1,94,21.86l0,0a1.9,1.9,0,0,0,1.19-.59c.16-.17.18-.24.23-.24s.06,0,.06.07a1.93,1.93,0,0,1-.53.53,2,2,0,0,1-1.07.37c-.13,0-.73.82-1.6.82-.56,0-.67-.46-.67-.9a.78.78,0,0,1,.06-.28l0,0c-.35.35-1,1.2-1.61,1.2s-.6-.28-.6-.67c0-.79.79-1.62,1.22-2.2l0,0a6.54,6.54,0,0,0-.91.91c-.28.31-.31.36-.35.36s0,0,0-.07.07-.08.3-.37a13.42,13.42,0,0,1,1.24-1.24l.68,0a19.67,19.67,0,0,0-1.75,2.91.25.25,0,0,0,.23.28c.77,0,2.27-1.91,2.87-3.12Z"/><path d="M96.94,21.55c-.31.48-.95,1.3-1.57,1.3-.4,0-.52-.14-.52-.37s.08-.35.32-.35.28.12.28.32,0,.2.08.2c.35,0,1.13-.78,1.46-1.36a6,6,0,0,0,.44-1.44c0-.14-.06-.21-.13-.21-.29,0-.66.32-1.12.78-.64.62-.71.8-.76.8s0,0,0-.07.06-.13.76-.86c.47-.48.84-.79,1.2-.79s.5.29.5.77a2,2,0,0,1,0,.5l0,0c.23-.44.92-1.29,1.48-1.29.29,0,.47.17.47.38a.27.27,0,0,1-.26.29.27.27,0,0,1-.29-.26c0-.11,0-.14-.18-.14-.43,0-1.64,1.47-1.64,2.73,0,.12,0,.19.14.19.28,0,.7-.31,1.32-1,.47-.49.55-.66.61-.66a.06.06,0,0,1,.06.06,8.7,8.7,0,0,1-.79.91c-.53.56-.89.8-1.24.8s-.59-.46-.59-1a1.49,1.49,0,0,1,0-.32Z"/><path d="M104.67,19.51,102.54,23l0,0a6.2,6.2,0,0,0,2-1.64c.23-.26.23-.29.29-.29a.05.05,0,0,1,0,.06,6,6,0,0,1-.52.62,6.22,6.22,0,0,1-1.94,1.47c-1.24,2.18-2.39,3.36-3.11,3.36a.57.57,0,0,1-.59-.65c0-.87,1.38-1.78,3.32-2.94l1-2,0,0c-.31.43-1.61,1.83-2.2,1.83-.3,0-.52-.36-.52-.68,0-.88,1.15-1.8,1.15-2.33,0-.1,0-.16-.19-.16-.3,0-.66.29-1.12.77-.68.72-.68.82-.76.82s0,0,0-.06,0-.08.59-.71,1.08-1,1.35-1,.53.33.53.66c0,.85-1.15,1.88-1.15,2.33,0,.13,0,.18.17.18.74,0,2.65-2.33,3-3.09Zm-2.76,3.72C99.73,24.63,99,25.36,99,26c0,.31.16.46.36.46.6,0,1.44-.85,2.59-3.2Z"/><path d="M106.87,22.62s.07.08.12.08c.23,0,.72-.47,1.14-.91.65-.68.61-.72.67-.72a.06.06,0,0,1,.06.06,5,5,0,0,1-.62.73c-.71.79-1,1-1.27,1a.57.57,0,0,1-.58-.56c0-.25.24-.38.24-.58s-.07-.11-.16-.11a3.7,3.7,0,0,0-1.57.91c-.06.11-.25.34-.37.34s-.17,0-.17-.11c0-.22.43-.44.6-.53s1.5-1.34,2.69-2.13l0,0a2.65,2.65,0,0,1-1.1.35,1.2,1.2,0,0,1-.71-.25,8.32,8.32,0,0,0-.91,1c-.07.08-.08.11-.13.11s0,0,0-.08a11.59,11.59,0,0,1,1-1.07.59.59,0,0,1-.06-.24c0-.21.16-.31.36-.31a.26.26,0,0,1,.29.24c0,.17-.16.2-.16.35s.2.16.43.16a2.8,2.8,0,0,0,1.13-.38c.11-.1.38-.36.5-.36s.1.06.1.14c0,.24-.4.36-.61.47s-.53.38-1.35,1.08c-.42.36-.95.7-.95.73a0,0,0,0,0,0,0c.08,0,.67-.52,1.2-.52a.49.49,0,0,1,.53.38C107.23,22.21,106.87,22.4,106.87,22.62Z"/><path d="M4.19,31.58c.6,0,.83.32.83,1,0,1.94-2,4.75-3.14,4.75-.7,0-1-.65-1-1.51C.86,34.15,2.85,31.58,4.19,31.58Zm-2.3,5.59c1.21,0,2.94-3.26,2.94-4.77,0-.42-.18-.67-.64-.67-1.09,0-2.84,3.12-2.84,4.79C1.34,36.9,1.46,37.17,1.88,37.17Z"/><path d="M9.26,32l0,0a23.43,23.43,0,0,1-2.49,2.31c-.62.49-.82.64-.92.64s0,0,0-.06.29-.2,1.7-1.4,1.92-1.92,2.05-1.92.06,0,.06.12a49.74,49.74,0,0,1-2.75,5.47,7.54,7.54,0,0,0-.91.07C7,35.48,8.27,33.72,9.26,32Z"/><path d="M10,36.61a2.16,2.16,0,0,1,1.2-.64.67.67,0,0,1,.72.71c0,.25.06.37.29.37s.8-.52,1.16-1c.17-.23.24-.3.26-.3s.06,0,.06.07a3.15,3.15,0,0,1-.58.76,1.71,1.71,0,0,1-1.21.71.64.64,0,0,1-.71-.65c0-.34-.06-.43-.26-.43a2,2,0,0,0-1.06.7c-.29.35-.35.46-.4.46s-.07,0-.07-.1a2.46,2.46,0,0,1,.66-1.07,25.36,25.36,0,0,1,2.54-1.83,2.91,2.91,0,0,0,1.22-2c0-.54-.35-.68-.8-.68a2,2,0,0,0-1.9,1.64.49.49,0,0,0,.53.54c.55,0,1.1-.84,1.27-1.28s.17-.42.2-.42.06,0,.06.08c0,.7-.64,1.81-1.51,1.81a.65.65,0,0,1-.7-.7,2.11,2.11,0,0,1,2.07-1.82c.82,0,1.3.41,1.3,1.1,0,1.7-1.85,2-3,2.73A4.37,4.37,0,0,0,10,36.55Z"/><path d="M17,34.29v0a1,1,0,0,1,1.13,1,2.4,2.4,0,0,1-2.39,2c-1,0-1.27-.54-1.27-1,0-.25.18-.56.46-.56a.32.32,0,0,1,.37.33c0,.23-.12.36-.4.43s-.17.1-.17.18c0,.28.3.5.84.5a2.6,2.6,0,0,0,2-2.26c0-.29-.19-.46-.54-.46a1.89,1.89,0,0,0-.88.32s-.08,0-.08-.1.17-.07,1-.56c1.14-.71,1.51-1.31,1.51-1.83,0-.37-.19-.56-.62-.56-.8,0-1.7.7-1.7,1.34a.34.34,0,0,0,.35.34c.4,0,.84-.44,1.15-.94.17-.26.11-.34.19-.34s0,0,0,.1a1.38,1.38,0,0,1-1.25,1.32c-.36,0-.62-.16-.62-.52A1.94,1.94,0,0,1,18,31.58a1,1,0,0,1,1.1.91C19.13,33.58,17.76,33.91,17,34.29Z"/><path d="M22.88,31.58a52.52,52.52,0,0,1-3.3,4.4l0,0a1.45,1.45,0,0,1,.62-.13c.59,0,.68.1,1.2.1,1.87-2.81,1.87-2.89,2-2.89s.08,0,.08.06-.17.26-1.4,2.81a1.4,1.4,0,0,0,.8-.29c.2-.13.2-.14.23-.14s0,0,0,.06a1.36,1.36,0,0,1-1.15.52l-.53,1.15-1,0,.79-1.16c-.59,0-.62-.1-1.12-.1a2.09,2.09,0,0,0-.89.26s0,0,0-.07a25,25,0,0,0,2.65-4.56Z"/><path d="M25.25,34.35h0a1.72,1.72,0,0,1,1.16-.54A1.1,1.1,0,0,1,27.58,35,2.74,2.74,0,0,1,25,37.31c-.82,0-1.19-.44-1.19-.92s.22-.68.52-.68.37.12.37.32-.19.36-.43.4-.14.12-.14.25.18.49.68.49c1.22,0,2.17-1.62,2.17-2.66a.57.57,0,0,0-.62-.54c-.77,0-1.27.8-1.43.8s-.1,0-.1-.07.08-.1,1.7-2.79c.12-.18.13-.25.22-.25a1.69,1.69,0,0,1,.37.1,2.63,2.63,0,0,0,.74.1,2.21,2.21,0,0,0,.76-.13c.17-.07.26-.13.29-.13a0,0,0,0,1,0,0,2,2,0,0,1-1.75.79,1.6,1.6,0,0,1-.67-.13Z"/><path d="M29.88,37.31c-.7,0-1-.53-1-1.39,0-2,2.46-4.34,4-4.34.62,0,1,.3,1,.8a.51.51,0,0,1-.42.55.33.33,0,0,1-.37-.36c0-.38.34-.32.34-.53s-.2-.32-.59-.32c-1.28,0-2.81,2.24-3,3l0,0c.28-.42.76-1,1.4-1a1,1,0,0,1,1,1.12A2.68,2.68,0,0,1,29.88,37.31Zm-.16-.14c.91,0,1.93-1.75,1.93-2.64,0-.43-.12-.65-.46-.65-1,0-1.94,1.84-1.94,2.75A.49.49,0,0,0,29.72,37.17Z"/><path d="M35.61,31.41c-.23.32-.43.67-.66,1l0,0c.19-.18.76-.66,1-.66a1,1,0,0,1,.61.28,1.06,1.06,0,0,0,.64.28.85.85,0,0,0,.62-.24c.23-.22.19-.48.4-.48a.1.1,0,0,1,.08.11c0,.19-.29.4-.71,1a42,42,0,0,0-2.88,4.57,4.54,4.54,0,0,0-1,.07,42.87,42.87,0,0,1,3.93-5l0,0a2.35,2.35,0,0,1-1,.35c-.38,0-.85-.48-1.12-.48-.59,0-.92,1.09-1.22,1.09a.14.14,0,0,1-.16-.14c0-.29.47-.54.63-.75s.44-.73.53-.9Z"/><path d="M39.23,37.31A1.14,1.14,0,0,1,38,36.24c0-.95,1.36-1.64,2-1.92a2.54,2.54,0,0,1-.43-1.23,1.67,1.67,0,0,1,1.72-1.5c.62,0,1.07.29,1.07.94,0,.9-.9,1.34-1.6,1.67a2.72,2.72,0,0,1,.47,1.27A2,2,0,0,1,39.23,37.31Zm.86-2.88c-.74.32-1.72.91-1.72,1.83,0,.64.35.9.94.9a1.33,1.33,0,0,0,1.32-1.38A2.61,2.61,0,0,0,40.09,34.44Zm1.2-2.71a1.2,1.2,0,0,0-1.12,1.19,1.94,1.94,0,0,0,.5,1.14c.73-.29,1.42-.8,1.42-1.59C42.09,32,41.79,31.73,41.29,31.73Z"/><path d="M46,31.58c.77,0,1,.55,1,1.28,0,2.52-2.3,4.45-3.73,4.45-.65,0-1.21-.26-1.21-1a.39.39,0,0,1,.42-.43.36.36,0,0,1,.35.36c0,.31-.31.37-.31.55s.23.36.71.36c1.45,0,2.81-2.16,3-3.24l0,0c-.48.8-.91,1.2-1.47,1.2s-.95-.56-.95-1.16A2.56,2.56,0,0,1,46,31.58ZM44.34,34.4c0,.32.14.56.5.56.73,0,1.78-1.51,1.78-2.59,0-.4-.13-.65-.5-.65C45,31.73,44.34,33.92,44.34,34.4Z"/></g></g></svg>