<svg xmlns="http://www.w3.org/2000/svg" viewBox="0 0 170.53 37.13"><title>font-Square Slab 711</title><g id="Layer_2" data-name="Layer 2"><g id="Layer_1-2" data-name="Layer 1"><path d="M1.63,8.33H0V7.16H.63L2.53,0H4.45l1.9,7.16H7V8.33H5.18L4.54,5.7H2.26Zm.9-3.73H4.27L3.42,1Z"/><path d="M11.66,0a1.41,1.41,0,0,1,1.06.41,1.52,1.52,0,0,1,.39,1.1V2.72a1.08,1.08,0,0,1-.27.79,1.43,1.43,0,0,1-.85.36,1.84,1.84,0,0,1,.92.42,1.08,1.08,0,0,1,.28.79V6.81a1.52,1.52,0,0,1-.39,1.1,1.4,1.4,0,0,1-1.06.41H7.4V7.16h.71v-6H7.4V0ZM9.44,3.36h1.83a.45.45,0,0,0,.38-.16.85.85,0,0,0,.12-.52V1.83a.85.85,0,0,0-.12-.51.45.45,0,0,0-.38-.16H9.44Zm0,3.8h1.9A.45.45,0,0,0,11.72,7a.86.86,0,0,0,.12-.52V5.14a.85.85,0,0,0-.12-.51.45.45,0,0,0-.38-.16H9.44Z"/><path d="M19.37,0V2.61H18.19V1.16H16.14a.45.45,0,0,0-.38.16.87.87,0,0,0-.12.51V6.48a.86.86,0,0,0,.12.52.45.45,0,0,0,.38.16h2.05V5.68h1.18V8.33H15.75a1.39,1.39,0,0,1-1.05-.41,1.54,1.54,0,0,1-.39-1.1V1.51A1.54,1.54,0,0,1,14.7.41,1.39,1.39,0,0,1,15.75,0Z"/><path d="M24.26,0a1.39,1.39,0,0,1,1.05.41,1.53,1.53,0,0,1,.39,1.1v5.3a1.53,1.53,0,0,1-.39,1.1,1.39,1.39,0,0,1-1.05.41H20V7.16h.71v-6H20V0ZM22,7.16h1.88A.45.45,0,0,0,24.25,7a.86.86,0,0,0,.12-.52V1.83a.87.87,0,0,0-.12-.51.45.45,0,0,0-.38-.16H22Z"/><path d="M31,7.16V5.67H32.2V8.33H26.41V7.16h.71v-6h-.71V0h5.68V2.58H30.93V1.16H28.45V3.47h2.65V4.58H28.45V7.16Z"/><path d="M35.69,7.16V8.33H32.86V7.16h.71v-6h-.71V0h5.5V2.58H37.1V1.16H34.9V3.47h2.75V4.63H34.9V7.16Z"/><path d="M44.12,0V2.53h-1.2V1.16H40.86a.45.45,0,0,0-.38.16.87.87,0,0,0-.12.51V6.48a.86.86,0,0,0,.12.52.45.45,0,0,0,.38.16h2.05V4.72H41.55V3.55H44.2V8.33H40.47a1.39,1.39,0,0,1-1.05-.41A1.54,1.54,0,0,1,39,6.81V1.51a1.54,1.54,0,0,1,.39-1.1A1.39,1.39,0,0,1,40.47,0Z"/><path d="M49.45,3.63V0h2V1.16h-.71v6h.71V8.33h-2V4.69H47V8.33h-2V7.16h.71v-6h-.71V0h2V3.63Z"/><path d="M52,8.33V7.16h.71v-6H52V0h2.75V1.16h-.71v6h.71V8.33Z"/><path d="M58.17,6.81a1.52,1.52,0,0,1-.39,1.1,1.41,1.41,0,0,1-1.06.41H55.07V7.16h1.26A.45.45,0,0,0,56.71,7a.88.88,0,0,0,.12-.52V1.16H56V0h2.84V1.16h-.7Z"/><path d="M61.41,3.74,63.63,0h1.65V1.16h-1L62.7,3.63h.83A1.39,1.39,0,0,1,64.58,4,1.53,1.53,0,0,1,65,5.14v2h.71V8.33h-2V5.4a.88.88,0,0,0-.12-.52.45.45,0,0,0-.38-.16H61.41V8.33h-2V7.16h.71v-6h-.71V0h2Z"/><path d="M66,8.33V7.16h.71v-6H66V0h2.81V1.16h-.77v6h2.21V5.5h1.2V8.33Z"/><path d="M78.43,8.33V1.86l-1.73,4h-.93l-1.87-4V8.33H72V7.16h.72v-6H72V0h2.17L76.2,4.59l2-4.59h2.17V1.16h-.73v6h.73V8.33Z"/><path d="M82.75,2.14c0,.24.06.47.08.69s0,.41,0,.59V8.33H80.91V7.16h.71v-6h-.71V0H83l3.16,6.18c0-.24-.06-.47-.08-.68s0-.41,0-.59V0H88V1.16h-.7V8.33H86Z"/><path d="M92.5,0a1.41,1.41,0,0,1,1.06.41,1.52,1.52,0,0,1,.39,1.1v5.3a1.52,1.52,0,0,1-.39,1.1,1.41,1.41,0,0,1-1.06.41H90.13a1.39,1.39,0,0,1-1.05-.41,1.54,1.54,0,0,1-.39-1.1V1.51a1.54,1.54,0,0,1,.39-1.1A1.39,1.39,0,0,1,90.13,0ZM90,1.83V6.48a.86.86,0,0,0,.12.52.45.45,0,0,0,.38.16h1.58A.43.43,0,0,0,92.48,7a.9.9,0,0,0,.12-.52V1.83a.9.9,0,0,0-.11-.52.44.44,0,0,0-.38-.16H90.53a.45.45,0,0,0-.38.16A.87.87,0,0,0,90,1.83Z"/><path d="M98.8,0a1.38,1.38,0,0,1,1,.41,1.54,1.54,0,0,1,.39,1.1V3a1.74,1.74,0,0,1-.44,1.26,1.59,1.59,0,0,1-1.2.46H96.7V7.16h.78V8.33H94.66V7.16h.71v-6h-.71V0ZM96.7,3.57H98.4a.44.44,0,0,0,.38-.16.88.88,0,0,0,.12-.52v-1a.87.87,0,0,0-.12-.51.45.45,0,0,0-.38-.16H96.7Z"/><path d="M104.87,0a1.41,1.41,0,0,1,1.06.41,1.52,1.52,0,0,1,.39,1.1v5.3a1.52,1.52,0,0,1-.39,1.1,1.41,1.41,0,0,1-1.06.41h-.56V9.44h-1.22V8.33h-.57a1.39,1.39,0,0,1-1.05-.41,1.54,1.54,0,0,1-.39-1.1V1.51a1.54,1.54,0,0,1,.39-1.1A1.39,1.39,0,0,1,102.51,0ZM102.4,1.83V6.48a.86.86,0,0,0,.12.52.45.45,0,0,0,.38.16h1.58a.43.43,0,0,0,.38-.16.9.9,0,0,0,.12-.52V1.83a.9.9,0,0,0-.11-.52.44.44,0,0,0-.38-.16H102.9a.45.45,0,0,0-.38.16A.87.87,0,0,0,102.4,1.83Z"/><path d="M111.18,0a1.38,1.38,0,0,1,1,.41,1.54,1.54,0,0,1,.39,1.1V2.85a1.09,1.09,0,0,1-.27.79,1.42,1.42,0,0,1-.84.36,1.54,1.54,0,0,1,.89.51,1.75,1.75,0,0,1,.26,1.05V7.16h.7V8.33H111.3v-3a.91.91,0,0,0-.12-.52.43.43,0,0,0-.37-.16h-1.74V8.33h-2V7.16h.71v-6H107V0Zm-2.1,3.56h1.71a.45.45,0,0,0,.38-.16.88.88,0,0,0,.12-.52v-1a.87.87,0,0,0-.12-.51.45.45,0,0,0-.38-.16h-1.71Z"/><path d="M117.06,7.16a.45.45,0,0,0,.38-.16.88.88,0,0,0,.12-.52V5.41a.88.88,0,0,0-.12-.52.45.45,0,0,0-.38-.16h-1.71a1.38,1.38,0,0,1-1.05-.41,1.54,1.54,0,0,1-.39-1.1V1.51a1.54,1.54,0,0,1,.39-1.1A1.39,1.39,0,0,1,115.35,0h3.42V2.23h-1.31V1.16h-1.72a.45.45,0,0,0-.38.16.87.87,0,0,0-.12.51v1a.88.88,0,0,0,.12.52.45.45,0,0,0,.38.16h1.71a1.41,1.41,0,0,1,1.06.4A1.52,1.52,0,0,1,118.9,5V6.81a1.52,1.52,0,0,1-.39,1.1,1.4,1.4,0,0,1-1.06.41h-3.63V5.88h1.36V7.16Z"/><path d="M124.29,7.16V8.33H121.4V7.16h.78v-6h-1.32V2.34h-1.24V0h6.45V2.34h-1.24V1.16h-1.32v6Z"/><path d="M128.63,6.48a.9.9,0,0,0,.12.52.43.43,0,0,0,.38.16h1.67a.45.45,0,0,0,.38-.16.86.86,0,0,0,.12-.52V0h2V1.16h-.72V6.55a1.8,1.8,0,0,1-.46,1.29,1.62,1.62,0,0,1-1.23.48H129a1.62,1.62,0,0,1-1.23-.48,1.8,1.8,0,0,1-.46-1.29V1.16h-.72V0h2.05Z"/><path d="M135.42,0l1.65,6.67L138.72,0h1.79V1.16h-.71l-1.92,7.17h-1.62l-1.91-7.17h-.7V0Z"/><path d="M143.06,8.33l-1.53-7.17h-.7V0h1.83l1.18,6.22L145.27,0h1.41l1.62,6.22,1-6.22H151V1.16h-.71L149,8.33h-1.24l-1.83-6.69-1.63,6.69Z"/><path d="M152.69,8.33h-1.43V7.16H152l1.76-3-1.7-3h-.64V0H153l1.59,2.9L156.3,0h1.45V1.16H157L155.27,4,157,7.16h.69V8.33H156.1l-1.65-3Z"/><path d="M159.8,8.33V7.16h.76V4.63l-1.87-3.47H158V0h1.66l1.63,3.4L162.9,0h1.55V1.16h-.71l-1.85,3.41V7.16h.74V8.33Z"/><path d="M164.94,8.33V7.25l3.89-6.09h-2.58V2.57h-1.31V0h5.45V1.05l-3.86,6.11h2.71V5.74h1.3V8.33Z"/><path d="M.36,18.32a1,1,0,0,1,.29-.8,1.21,1.21,0,0,1,.86-.27H3.33a1.13,1.13,0,0,1,.82.27,1.06,1.06,0,0,1,.28.79v3.35h.69v1.05H1.38a1.15,1.15,0,0,1-.82-.27,1,1,0,0,1-.29-.76v-1A1,1,0,0,1,.55,20a1.19,1.19,0,0,1,.83-.25H3.22V18.31H1.58v.74H.36Zm1.13,3.35H3.21v-1H1.48Z"/><path d="M5.75,15.45H5V14.4H7v2.85H8.53a1.34,1.34,0,0,1,1,.32,1.22,1.22,0,0,1,.33.92v3a1.22,1.22,0,0,1-.33.92,1.34,1.34,0,0,1-1,.32H5.75ZM7,21.67H8.6V18.31H7Z"/><path d="M11.79,22.73a1.15,1.15,0,0,1-.82-.27,1,1,0,0,1-.29-.76V18.32a1.06,1.06,0,0,1,.28-.79,1.13,1.13,0,0,1,.82-.27h2.83v2H13.44v-.91H11.92v3.36h1.52v-.91h1.18v2Z"/><path d="M19.54,21.67h.64v1.05H16.75a1.34,1.34,0,0,1-1-.32,1.22,1.22,0,0,1-.33-.92v-3a1.22,1.22,0,0,1,.33-.92,1.34,1.34,0,0,1,1-.32h1.56v-1.8H17.6V14.4h1.93Zm-2.85,0h1.63V18.31H16.68Z"/><path d="M21.85,22.73a1.15,1.15,0,0,1-.82-.27,1,1,0,0,1-.29-.76V18.32a1.06,1.06,0,0,1,.28-.79,1.13,1.13,0,0,1,.82-.27h1.81a1.15,1.15,0,0,1,.82.27,1,1,0,0,1,.28.79v2.1H22v1.25h1.58V21h1.21v.66a1,1,0,0,1-.28.76,1.16,1.16,0,0,1-.82.27ZM22,18.31v1.18h1.58V18.31Z"/><path d="M25.41,21.67H26V18.31h-.63V17.25H26V15.62a1.19,1.19,0,0,1,.33-.91,1.37,1.37,0,0,1,1-.31h.76v1.08h-.87v1.78H28v1.05h-.72v3.36h.65v1.05H25.41Z"/><path d="M29.67,22.73a1.15,1.15,0,0,1-.82-.27,1,1,0,0,1-.29-.76V18.32a1.06,1.06,0,0,1,.28-.79,1.13,1.13,0,0,1,.82-.27h3.56v1.05h-.56v5.62a1,1,0,0,1-.28.76,1.17,1.17,0,0,1-.82.26H29.89a1.17,1.17,0,0,1-.82-.26,1,1,0,0,1-.28-.76V23.3H30v.64h1.44V22.73Zm.12-1.05h1.65V18.31H29.79Z"/><path d="M33.63,21.67h.63V15.45h-.63V14.4h1.83v2.85h1.71a1.35,1.35,0,0,1,1,.32,1.21,1.21,0,0,1,.33.92v3.18h.67v1.05h-1.9V18.31H35.47v3.36h.65v1.05H33.63Z"/><path d="M41.31,21.67H42v1.05H39.47V21.67h.64V18.31h-.64V17.25h1.83Zm-1.37-5.82a.67.67,0,0,1,.67-.67.65.65,0,0,1,.47.2.67.67,0,0,1,0,.94.66.66,0,0,1-.48.19.65.65,0,0,1-.48-.19A.64.64,0,0,1,39.94,15.85Z"/><path d="M42.91,18.31h-.63V17.25h1.83v6.67a1,1,0,0,1-.28.76,1.17,1.17,0,0,1-.82.26h-.73V23.89h.63Zm-.18-2.46a.67.67,0,0,1,.67-.67.65.65,0,0,1,.47.2.67.67,0,0,1,0,.94.66.66,0,0,1-.48.19.65.65,0,0,1-.48-.19A.64.64,0,0,1,42.74,15.85Z"/><path d="M45.66,15.45H45V14.4h1.86v5.13l1.65-2.28h1.34v1.08h-.76L48,19.84l1.63,1.8h.72v1.08H49l-2.1-2.36v2.36H45V21.65h.63Z"/><path d="M51.21,15.45h-.63V14.4h1.86v7.25h.64v1.08h-2.5V21.65h.63Z"/><path d="M53.45,21.67h.64V18.31h-.64V17.25h6.62a1.34,1.34,0,0,1,1,.32,1.22,1.22,0,0,1,.33.92v3.18h.51v1.05H60.15V18.31H58.33v3.36H59v1.05h-1.9V18.31h-1.8v3.36h.63v1.05H53.45Z"/><path d="M62.37,21.67H63V18.31h-.64V17.25h3.54a1.34,1.34,0,0,1,1,.32,1.22,1.22,0,0,1,.33.92v3.18h.69v1.05H66V18.31H64.2v3.36h.64v1.05H62.37Z"/><path d="M69.52,22.73a1.14,1.14,0,0,1-.82-.27,1,1,0,0,1-.29-.77V18.32a1.06,1.06,0,0,1,.28-.79,1.13,1.13,0,0,1,.82-.27h1.81a1.15,1.15,0,0,1,.82.27,1,1,0,0,1,.28.79v3.36a1,1,0,0,1-.28.77,1.15,1.15,0,0,1-.82.27Zm.12-1.05h1.58V18.31H69.64Z"/><path d="M73.64,18.31H73V17.25h3.42a1.34,1.34,0,0,1,1,.32,1.22,1.22,0,0,1,.33.92v3a1.22,1.22,0,0,1-.33.92,1.34,1.34,0,0,1-1,.32H74.87v1.17h.71v1.05H73V23.89h.63Zm1.22,3.36H76.5V18.31H74.87Z"/><path d="M82.64,18.31v5.58h.64v1.05H80.71V23.89h.71V22.73H79.86a1.34,1.34,0,0,1-1-.32,1.22,1.22,0,0,1-.33-.92v-3a1.22,1.22,0,0,1,.33-.92,1.34,1.34,0,0,1,1-.32h3.42v1.05Zm-1.22,3.36V18.31H79.79v3.36Z"/><path d="M83.64,21.67h.64V18.31h-.64V17.25h2.81a1.34,1.34,0,0,1,1,.32,1.22,1.22,0,0,1,.33.92v1H86.55V18.31H85.47v3.36h.64v1.05H83.64Z"/><path d="M91.16,18.31H89.58v1.12h1.69a1.17,1.17,0,0,1,.82.26,1,1,0,0,1,.28.77v1.24a1,1,0,0,1-.28.76,1.16,1.16,0,0,1-.82.27h-2.9V21h1.09v.63h1.71V20.45H89.44a1.1,1.1,0,0,1-.8-.27,1.05,1.05,0,0,1-.28-.79V18.32a1.06,1.06,0,0,1,.28-.79,1.13,1.13,0,0,1,.82-.27h2.77v1.56H91.16Z"/><path d="M94.86,21.67h.84v1.05h-.77a1.34,1.34,0,0,1-1-.32,1.21,1.21,0,0,1-.33-.92V18.33H93V17.25h.63V15.71h1.22v1.55h.84v1.08h-.84Z"/><path d="M100.88,17.25v4.42h.64v1.05H98a1.34,1.34,0,0,1-1-.32,1.21,1.21,0,0,1-.33-.92V18.31H96V17.25H97.9v4.42h1.78V18.31H99V17.25Z"/><path d="M103.47,22.73l-1-4.42h-.65V17.25h1.72l.87,4.33.87-4.33h1.58v1.05h-.64l-1,4.42Z"/><path d="M108.46,22.73l-.84-4.42H107V17.25h1.74l.58,4.22,1.07-4.22h1.2l1.07,4.22.62-4.22H115v1.05h-.63l-.86,4.42H112l-1.1-3.95-1.07,3.95Z"/><path d="M115.2,22.73V21.67h.73L117,20l-1.11-1.73h-.66V17.25h1.41l1,1.72,1.08-1.72h1.33v1.05h-.74l-1,1.61,1.15,1.75h.62v1.05h-1.32L117.6,21l-1.09,1.76Z"/><path d="M120.9,24.95l1.34-3.37-1.34-3.26h-.65V17.25h1.45l1.13,3,1.09-3h1.39v1.05h-.64L122,24.95Z"/><path d="M125.72,22.73v-1l2.71-3.46H126.9v.74h-1.18v-1.8h4.14v1l-2.68,3.43h1.68V21H130v1.73Z"/><path d="M5.28,35.46a1.7,1.7,0,0,1-.43,1.22,1.53,1.53,0,0,1-1.16.45H1.87a1.52,1.52,0,0,1-1.16-.45,1.7,1.7,0,0,1-.43-1.22v-5a1.67,1.67,0,0,1,.43-1.21,1.53,1.53,0,0,1,1.16-.44H3.69a1.54,1.54,0,0,1,1.16.44,1.67,1.67,0,0,1,.42,1.21ZM4,35.44V30.53A.85.85,0,0,0,3.88,30a.45.45,0,0,0-.38-.16H2.06a.45.45,0,0,0-.38.16.87.87,0,0,0-.12.51v4.92a.89.89,0,0,0,.12.52.44.44,0,0,0,.38.16H3.5A.45.45,0,0,0,3.88,36,.88.88,0,0,0,4,35.44Z"/><path d="M7.52,37.13V36.07h.64v-5.7L6.85,31.51V30.18L8.61,28.8h.81v7.27H10v1.05Z"/><path d="M15.58,30.53a.88.88,0,0,0-.12-.52.44.44,0,0,0-.37-.16H13.66a.43.43,0,0,0-.38.16.9.9,0,0,0-.12.52v.85H11.88v-.93a1.66,1.66,0,0,1,.43-1.21,1.55,1.55,0,0,1,1.17-.44H15.3a1.53,1.53,0,0,1,1.16.44,1.68,1.68,0,0,1,.42,1.21v2l-3.62,2.28v1.35h2.31V34.86h1.31v2.27H12v-3l3.59-2.28Z"/><path d="M19,35.44a.89.89,0,0,0,.12.52.44.44,0,0,0,.38.16h1.35a.43.43,0,0,0,.38-.16.91.91,0,0,0,.12-.52V34.18a.9.9,0,0,0-.12-.52.43.43,0,0,0-.37-.16h-1.8V32.39l2.16-2.53H19v.88H17.78V28.8h4.9V30l-2.13,2.48h.55a1.52,1.52,0,0,1,1.16.45,1.7,1.7,0,0,1,.42,1.22v1.34a1.7,1.7,0,0,1-.42,1.22,1.52,1.52,0,0,1-1.16.45H19.36a1.52,1.52,0,0,1-1.16-.45,1.7,1.7,0,0,1-.43-1.22v-.54H19Z"/><path d="M26.78,37.13V34.71H23.33v-1.4L26.6,28.8H28v4.93h.88v1H28v2.41Zm0-3.4V30.26l-2.51,3.46Z"/><path d="M32.78,31.89a1.52,1.52,0,0,1,1.16.45,1.7,1.7,0,0,1,.42,1.22v1.89a1.7,1.7,0,0,1-.42,1.22,1.52,1.52,0,0,1-1.16.45H31a1.52,1.52,0,0,1-1.16-.45,1.7,1.7,0,0,1-.43-1.22v-.94h1.27v.93a.89.89,0,0,0,.12.52.44.44,0,0,0,.38.16h1.35A.45.45,0,0,0,33,36a.89.89,0,0,0,.12-.52V33.63a.89.89,0,0,0-.12-.52.45.45,0,0,0-.38-.16h-3V28.8H34v1.05H30.85v2Z"/><path d="M38.7,28.8a1.56,1.56,0,0,1,1.17.44,1.66,1.66,0,0,1,.43,1.21V31H39v-.5a.88.88,0,0,0-.12-.52.44.44,0,0,0-.37-.16H37.07a.44.44,0,0,0-.37.16.88.88,0,0,0-.12.52v1.81H38.7a1.55,1.55,0,0,1,1.17.45A1.69,1.69,0,0,1,40.29,34v1.45a1.69,1.69,0,0,1-.43,1.22,1.54,1.54,0,0,1-1.17.45H36.87a1.52,1.52,0,0,1-1.16-.45,1.7,1.7,0,0,1-.43-1.22v-5a1.67,1.67,0,0,1,.43-1.21,1.53,1.53,0,0,1,1.16-.44Zm-1.63,7.33h1.45a.43.43,0,0,0,.38-.16.91.91,0,0,0,.12-.52V34a.91.91,0,0,0-.12-.52.43.43,0,0,0-.37-.16H36.57v2.11a.91.91,0,0,0,.12.52A.43.43,0,0,0,37.07,36.13Z"/><path d="M41.66,37.13l3.06-7.27h-2.5v.9H41v-2h5.16v.84L43,37.13Z"/><path d="M51.92,31.62a1.31,1.31,0,0,1-.2.8,1.28,1.28,0,0,1-.71.4,1.25,1.25,0,0,1,.71.4,1.34,1.34,0,0,1,.21.81v1.42a1.7,1.7,0,0,1-.43,1.22,1.53,1.53,0,0,1-1.16.45H48.51a1.52,1.52,0,0,1-1.16-.45,1.7,1.7,0,0,1-.43-1.22V34a1.35,1.35,0,0,1,.2-.81,1.23,1.23,0,0,1,.71-.4,1.27,1.27,0,0,1-.71-.4,1.31,1.31,0,0,1-.2-.8V30.45a1.67,1.67,0,0,1,.43-1.21,1.53,1.53,0,0,1,1.16-.44h1.82a1.54,1.54,0,0,1,1.16.44,1.67,1.67,0,0,1,.42,1.21Zm-1.27,0v-1.1a.85.85,0,0,0-.12-.51.45.45,0,0,0-.38-.16H48.7a.45.45,0,0,0-.38.16.87.87,0,0,0-.12.51v1.1a.89.89,0,0,0,.12.52.44.44,0,0,0,.38.16h1.44a.45.45,0,0,0,.38-.16A.88.88,0,0,0,50.65,31.63Zm0,3.81V34a.88.88,0,0,0-.12-.52.45.45,0,0,0-.38-.16H48.7a.44.44,0,0,0-.38.16.89.89,0,0,0-.12.52v1.42a.87.87,0,0,0,.12.51.45.45,0,0,0,.38.16h1.44a.45.45,0,0,0,.38-.16A.85.85,0,0,0,50.65,35.44Z"/><path d="M54.32,37.13a1.53,1.53,0,0,1-1.16-.45,1.69,1.69,0,0,1-.43-1.22v-.56H54v.49a.89.89,0,0,0,.12.52.44.44,0,0,0,.38.16h1.44a.45.45,0,0,0,.38-.16.89.89,0,0,0,.12-.52v-1.8H54.32a1.53,1.53,0,0,1-1.16-.45,1.69,1.69,0,0,1-.43-1.22V30.45a1.67,1.67,0,0,1,.43-1.21,1.55,1.55,0,0,1,1.17-.44h1.82a1.54,1.54,0,0,1,1.16.44,1.67,1.67,0,0,1,.42,1.21v5a1.7,1.7,0,0,1-.43,1.22,1.53,1.53,0,0,1-1.16.45Zm1.63-7.33H54.51a.44.44,0,0,0-.38.16.88.88,0,0,0-.12.52v1.43a.87.87,0,0,0,.12.51.45.45,0,0,0,.38.16h1.94v-2.1a.88.88,0,0,0-.12-.52A.45.45,0,0,0,55.95,29.8Z"/></g></g></svg>