<svg xmlns="http://www.w3.org/2000/svg" viewBox="0 0 183.15 36.52"><title>font-Zapf Chancery</title><g id="Layer_2" data-name="Layer 2"><g id="Layer_1-2" data-name="Layer 1"><path d="M2.57,7.36H0C.26,7,.3,7,.83,7c1.4-2.33,2.75-4.8,3.6-6.54A3.3,3.3,0,0,0,5.21,0c.24,1,1.45,6.32,2.29,6.85a4.89,4.89,0,0,0,1.12.17.46.46,0,0,1-.18.23,16.19,16.19,0,0,1-1.82.18c-.17,0-.32,0-1.23-3.18a7.34,7.34,0,0,1-2.54.17A10.85,10.85,0,0,0,1.68,6.91L2.88,7ZM3,4.07l1.18,0c.47,0,.9,0,1.13,0-.23-1-.55-2.18-.79-3C4,2,3.53,2.9,3,4.07Z"/><path d="M11.13,7.39l-3,0c.1-.16.24-.32.34-.34l.71-.1c.2-2.25.37-4.2.4-6.21-.6,0-.67,0-1.22-.11.28-.24.41-.32.56-.32.35,0,1.69,0,2.85,0,1.4,0,2.1.26,2.1,1.33S13,3.07,12.19,3.36v0c1.23.1,2.07.6,2.07,1.68C14.26,5.74,13.89,7.39,11.13,7.39Zm-.2-3.65-.61,0c-.07.95-.16,2.35-.18,3.13a3.58,3.58,0,0,0,1.26.16,1.71,1.71,0,0,0,1.81-1.83C13.21,3.93,11.89,3.74,10.93,3.74ZM11.34.65a6.26,6.26,0,0,0-.78,0c-.11.48-.17,1.82-.23,2.73.58,0,2.54,0,2.54-1.62C12.87,1.13,12.44.65,11.34.65Z"/><path d="M20.48,1.58A1.43,1.43,0,0,0,19.08.53c-2.73,0-2.81,3.35-2.81,3.68,0,1.62.86,2.94,2.4,2.94a4.54,4.54,0,0,0,2.52-1.07l0,.36a5.28,5.28,0,0,1-3.29,1.12c-.73,0-2.65-.23-2.65-2.91A4.31,4.31,0,0,1,19.39,0a2.18,2.18,0,0,1,1.8.62l-.4,1.51-.28.14Z"/><path d="M21.63.6l.52-.31c1,0,2,0,3,0,2,0,3.92.16,3.92,2.79,0,1.58-.67,4.35-4.07,4.35l-3.56,0c.19-.29.29-.34.4-.35l.72-.07c.13-2.36.38-4.15.37-6.22Zm3.6,0a6.44,6.44,0,0,0-1.29,0c-.17,1.9-.37,4-.37,6.07a3.84,3.84,0,0,0,1.68.29c1.1,0,2.79-.53,2.79-3.63C28,1.65,27.33.65,25.23.65Z"/><path d="M36.09,5.17c-.22.73-.52,1.5-.8,2.23l-.7,0H29.47c.34-.36,0-.28,1.09-.41.18-2.18.36-5.16.36-6.33L29.76.48l.3-.24h.18c1.6,0,2.55,0,3.17-.06s.9-.06,1.14-.06.24,0,.5.34l-.68,1C34.1.61,33.81.6,33.06.6H31.82l-.12,2.9c.28,0,.56,0,1.08,0h1.31L34,3.72c-.1.14-.26.18-2.3.24-.1,1-.16,2-.2,3,.6,0,1.17.1,1.76.1a2.21,2.21,0,0,0,2.4-1.56L35.86,5Z"/><path d="M37.41,3.55c0-1.09.14-1.9.14-2.9L36.39.5l.3-.26h.12C38.45.24,39.4.2,40,.18s.91-.06,1.15-.06.24,0,.5.34l-.68,1C40.74.61,40.45.6,39.69.6H38.54c-.08,1-.21,1.94-.21,2.88.79.06,1.58.06,2.37.06v0c-.18.25-.23.3-.8.34L38.28,4c0,1-.13,1.94-.13,2.89l1.4.12-.32.35H36.13c.2-.25.3-.32.36-.34l.72-.12c.06-1,.17-1.92.19-2.88L37.13,4Z"/><path d="M46.86,6.82a4.17,4.17,0,0,1-2.31.73c-.73,0-2.65-.23-2.65-2.91A4.31,4.31,0,0,1,46.06,0a2.87,2.87,0,0,1,2.21.82l-.38,1.4-.25.16a1.87,1.87,0,0,0-1.91-2c-2,0-2.78,2.07-2.78,3.85,0,1.33.6,2.77,2.15,2.77A1.67,1.67,0,0,0,47,5.49c0-.48-.13-.84-1-.86l-.88,0c.21-.24.34-.32.43-.32h3c-.06.16-.18.26-.61.42l-.26,2.67-.75.38Z"/><path d="M48.73,7.36A2.32,2.32,0,0,1,49,7c.42,0,.6-.06.88-.07.2-2.73.35-4.56.37-6.31L49.13.58l.32-.29a7.48,7.48,0,0,1,1.19,0h1.72c-.21.32-.29.37-1.12.41C51.15,1.7,51,2.55,51,2.94s.11.47,1.24.47c1.54,0,2,0,2.35,0,.07-.89.12-1.56.12-2.71a6.64,6.64,0,0,1-1-.14,1.19,1.19,0,0,1,.46-.26h2.62c-.24.3-.34.36-1,.41-.24,2.12-.32,4.21-.44,6.31.36,0,.61,0,1,.07l-.34.34H53.24C53.41,7,53.67,7,54.38,7c.13-1,.22-2.45.22-2.65,0-.53-.11-.56-1.36-.56-1,0-1.54,0-2.23,0-.1,1-.13,1.77-.14,3.12.37,0,.85.08,1.12.12l-.38.36Z"/><path d="M58.08,6.93c.25-2.06.35-4.07.44-6.25l-1-.11c.17-.11.31-.31.56-.31l2.65,0c-.26.37-.38.41-1.21.48-.18,2-.36,4.65-.4,6.22l1.22.16a.81.81,0,0,1-.32.26h-3.2a1.25,1.25,0,0,1,.29-.28Z"/><path d="M59.76,8.67c.35.58.67.76,1,.76a1,1,0,0,0,1-.78A42.83,42.83,0,0,0,62.43.72L60.95.56a.85.85,0,0,1,.54-.32h2.83l-.16.19a1.71,1.71,0,0,1-.74.22c-.3,3.26-.26,6.3-.54,7.34a3.11,3.11,0,0,1-2.66,2A1.36,1.36,0,0,1,59,9.27Z"/><path d="M69,1.1c1-.91,1.13-1,1.56-1a1.34,1.34,0,0,1,.8.3l-.52,1a.91.91,0,0,0-.75-.4c-.5,0-.91.37-2.65,2.16l1.34,1.64C70.46,6.91,70.84,7,71.88,7a.49.49,0,0,1-.21.26A14.5,14.5,0,0,1,70,7.4c-.11,0-.16,0-.54-.47L66.73,3.74,66.41,4,66.24,6.9l1.16.17-.31.3h-3A1.26,1.26,0,0,1,64.44,7l.83-.12c.13-1.57.37-4.7.38-6.19L64.46.59A1,1,0,0,1,65,.24h2.73c-.27.37-.38.41-1.14.48l-.12,2.76Z"/><path d="M73.85,6.87a7.09,7.09,0,0,0,1,.08c1.93,0,2.17-.29,2.86-1.9L78,5.3a19.27,19.27,0,0,1-.67,2.06H71.73c.47-.44.25-.32,1.13-.48.16-2.05.37-4.11.37-6.17l-1-.14.31-.24c.07,0,.14-.1,1-.1h1.87l-.31.34a5.21,5.21,0,0,1-.94.14Z"/><path d="M81,7.06a.7.7,0,0,1-.47.29H78.06a1,1,0,0,1,.32-.31,4.5,4.5,0,0,1,.77-.1,26.44,26.44,0,0,0,.5-5c0-1.18,0-1.32-.47-1.33l-1,0c.19-.34.22-.37,2.23-.47.1,0,.23.1.25.16C81.13,1.7,82.2,4.21,83,6.06c1.65-2.82,2.94-4.57,3.3-5.78.11,0,1.27,0,1.89,0a1.73,1.73,0,0,1-.28.34l-.87.18a31.61,31.61,0,0,0-.47,5.19c0,.8.11,1.07.86,1.08h.71a.43.43,0,0,1-.14.22s-1.76.22-2.08.22a.48.48,0,0,1-.34-.12c.08-1.82.18-3.65.35-5.44l0,0C85.31,3,83.78,5.37,83,7.2l-.54.26c-.86-2.58-1.55-4.07-2.37-6.09h0C80,3.21,79.92,4.81,79.92,7Z"/><path d="M90.85,7.36H88.14a1.35,1.35,0,0,1,.3-.29A3.25,3.25,0,0,1,89.19,7a51.59,51.59,0,0,0,.34-5.29c0-.62,0-.78-.07-.88s-.2-.14-1.12-.24a.84.84,0,0,1,.73-.31l1.29,0c.22,1.12,1.32,2.22,4.14,5.72,0-.72.21-1.94.21-3.35,0-1.69,0-1.89-.08-2A4.63,4.63,0,0,0,93.5.58.59.59,0,0,1,94,.24h2.38c-.1.17-.27.38-1,.41-.29,2-.46,4.38-.56,6.57l-.47.34A67.16,67.16,0,0,0,90,1.85c0,1-.17,2.21-.17,3.33A17.48,17.48,0,0,0,90,7l1.16.12Z"/><path d="M97.73,1.28A4.43,4.43,0,0,1,101.13,0c1.36,0,2.64.6,2.64,3.26a5.26,5.26,0,0,1-.87,2.61,4.36,4.36,0,0,1-3.54,1.63A2.69,2.69,0,0,1,96.56,4.5,4.14,4.14,0,0,1,97.73,1.28Zm2.65-.83c-.72,0-2.76.32-2.76,3.66,0,1.57.7,3,2.34,3,2.39,0,2.76-2.65,2.76-3.53C102.71,2.1,102.16.46,100.38.46Z"/><path d="M106.79,4.28c1.12-.07,2.36-.35,2.36-2.31A1.22,1.22,0,0,0,107.82.65a5.55,5.55,0,0,0-1.23.07c-.13,1.21-.31,4.5-.42,6.24l1.49.14a.47.47,0,0,1-.48.26h-3.09c.12-.17.18-.24.24-.25l.86-.12c.16-2.07.37-4.4.42-6.26L104.27.59c.19-.17.35-.3.43-.3.9,0,1.63,0,3.77,0,1.7,0,1.74,1.15,1.74,1.45,0,2-1.38,2.81-3.19,2.85Z"/><path d="M111.73,1.28A4.43,4.43,0,0,1,115.13,0c1.36,0,2.64.6,2.64,3.26a5.26,5.26,0,0,1-.87,2.61,4.13,4.13,0,0,1-1.58,1.24,3.23,3.23,0,0,0,2.37,1.72,7.08,7.08,0,0,0,1-.13c-.1.42-.91.54-1.39.54-1.13,0-1.63-.35-3.11-1.8l-.4,0-.41,0a2.69,2.69,0,0,1-2.79-3.06A4.14,4.14,0,0,1,111.73,1.28ZM115,6.61l.14.26c1.33-.7,1.57-2.54,1.57-3.25,0-1.52-.55-3.17-2.34-3.17-.72,0-2.76.32-2.76,3.66,0,1.57.7,3,2.34,3h.25Z"/><path d="M121.27,4.05a4.11,4.11,0,0,1-.54,0h-.44l-.14,2.85,1.2.17a.65.65,0,0,1-.25.28h-3c.11-.2.21-.32.29-.34l.8-.14c.21-2.05.31-4.1.44-6.17L118.45.59a1.17,1.17,0,0,1,.5-.34h3.12c.86,0,1.54.35,1.54,1.18A2.41,2.41,0,0,1,122,3.62c2,3.24,2.23,3.38,3.33,3.43,0,0-.24.28-.28.3-.47,0-1.25.11-1.42.11s-.41-.16-.63-.54ZM120.53.68c-.07.85-.18,2.28-.21,3h.52a1.74,1.74,0,0,0,1.72-1.88c0-.82-.6-1.14-1.3-1.14A5.77,5.77,0,0,0,120.53.68Z"/><path d="M125.23,5.18l.26-.06v.24a1.67,1.67,0,0,0,1.68,1.71,1.53,1.53,0,0,0,1.67-1.45,1,1,0,0,0-.47-1l-1.5-1A1.87,1.87,0,0,1,126,2.27,2.31,2.31,0,0,1,128.46,0a1.42,1.42,0,0,1,1.25.62,4.51,4.51,0,0,0-.44,1l-.25.11c0-.7-.3-1.22-1.07-1.22a1.18,1.18,0,0,0-1.15,1.18c0,.42.25.88.94,1.31l.87.56c.92.59,1.08.78,1.08,1.4a2.84,2.84,0,0,1-3.08,2.58,2.11,2.11,0,0,1-1.86-.88Z"/><path d="M133.34.61a5.51,5.51,0,0,0-.66,0c-1.12,0-1.15,0-1.49.85l-.38.91-.43.08.43-2.25.86,0,.86,0c1.42,0,3.56,0,4.32-.12L136.94,2l-.4.23-.31-1c-.19-.61-.29-.67-1-.67a7.42,7.42,0,0,0-1,0L133.89,7l1.42.14-.28.26H131.5l.34-.32,1.09-.17Z"/><path d="M144.77.24c-.17.29-.28.31-.89.41A34.53,34.53,0,0,0,143.44,6c0,.67.06.82.23.9a3.22,3.22,0,0,0,1.18.16l-.22.23a12.74,12.74,0,0,1-1.92.16c-.18,0-.25-.11-.25-.28s0-.49,0-.68a8.18,8.18,0,0,1-3.33,1c-1,0-1.43-.6-1.43-1.51,0-.66.35-3.43.37-5.33L136.94.58a.7.7,0,0,1,.71-.34h2.17a.8.8,0,0,1-.6.38,27.41,27.41,0,0,0-.52,4.79c0,1.08.48,1.6,1.25,1.6a6,6,0,0,0,2.54-.9c.23-1.81.3-4.29.34-5.46a6.78,6.78,0,0,1-1,0c.12-.13.31-.31.43-.31Z"/><path d="M150.74,0a1,1,0,0,1,.76,1c0,2-2.94,4.58-3.75,6.22l-.76.26A54.51,54.51,0,0,0,145.76.72L144.43.58a2.09,2.09,0,0,1,.43-.31c1.32,0,1.78,0,2.65,0-.07.25-.41.35-.71.41.31,1.58.68,4.14,1,5.72,1.31-1.68,2.75-3,2.75-4.51a1.33,1.33,0,0,0-.73-1.28Z"/><path d="M157.78.22a48.49,48.49,0,0,0,1,6.43c.71-1.13,2.53-3.43,2.53-4.81a1.47,1.47,0,0,0-.66-1.2l1-.59a1.13,1.13,0,0,1,.66,1c0,1.54-2.83,4.81-3.43,6.25l-.79.24c-.3-1.69-.71-3.83-1-5.73h0a58.81,58.81,0,0,0-2.87,5.55l-.68.18c-.14-2-.67-5.24-1-6.86L151.19.6a2.31,2.31,0,0,1,.43-.35h2.73c-.31.34-.36.37-.91.41.24,1.68.43,3.65.73,5.47h0a39.1,39.1,0,0,0,3-5.77Z"/><path d="M167.12.53a.88.88,0,0,1,.8-.48,1.44,1.44,0,0,1,.91.36l-.46.92a1.11,1.11,0,0,0-.73-.32c-.42,0-.81.48-1.79,2.15A24.76,24.76,0,0,0,167,6c.41,1,.7,1,1.4,1a5.14,5.14,0,0,0,.64,0,.59.59,0,0,1-.28.29,13.69,13.69,0,0,1-1.82.3c-.31,0-.46-.31-.87-1.4l-.77-2-1.2,2c-.67,1.13-1.13,1.37-2,1.37a2.21,2.21,0,0,1-.53-.08l.41-1a2.34,2.34,0,0,0,.5.06,1.37,1.37,0,0,0,1.38-.68,16.58,16.58,0,0,0,1.27-2.1c-.9-2.42-1.09-3-1.58-3a4.3,4.3,0,0,0-.94.24l.08-.36A6.34,6.34,0,0,1,164.47,0c.14,0,.2,0,.29.28l.9,2.41Z"/><path d="M173.38,7.36h-3a.76.76,0,0,1,.35-.34l.85-.08c0-.44.1-1.28.1-2.51,0-2.21-.54-3.62-1.88-3.62a2.2,2.2,0,0,0-1.34.59l0-.36a2.58,2.58,0,0,1,1.85-1c1.85,0,2.1,2.16,2.1,2.73,0,.25,0,.48,0,.71h0c1.14-2.31,1.91-3.44,3-3.44a.86.86,0,0,1,.63.26l-.56.92a.87.87,0,0,0-.65-.23c-1.28,0-2.16,2.49-2.24,3.84l-.12,2.06,1.23.1Z"/><path d="M175.53,7.46c1.71-2.15,4.34-5.56,5.19-6.52h0a5.7,5.7,0,0,1-1,.11l-2.3,0c-.25,0-.42.07-.67.74l-.24.65-.26-.23.36-1.4c.14-.58.23-.72.52-.72.59,0,1.18,0,1.76.06s1.18.06,1.76.06c.89,0,1-.06,1.31-.24l0,.23c0,.19-1.34,1.3-4.88,6.09h0a1.55,1.55,0,0,1,.55-.07c.52,0,3,.4,3.54.4a3.18,3.18,0,0,0,2.05-.85v.3l-1.34,1.42a2.16,2.16,0,0,1-.47,0c-.53,0-3.41-.4-4.3-.4a1.48,1.48,0,0,0-1.36.64Z"/><path d="M5.89,20.7a6.81,6.81,0,0,1-1.78,1.24.37.37,0,0,1-.25-.07,2.84,2.84,0,0,1-.17-1.18C2,21.87,2,21.93,1.71,21.93a.33.33,0,0,1-.22-.06,2.34,2.34,0,0,1-.41-1.49c0-2.18.5-2.78.55-2.84a4.86,4.86,0,0,1,1.15-.9,1.29,1.29,0,0,1,.64-.13c.23,0,1.52.08,1.52.3s-.29.44-.3.53a20.18,20.18,0,0,0-.12,2.76c0,.41,0,.91.23.91a4.33,4.33,0,0,0,1.13-.65Zm-2-3.27a3,3,0,0,0-1.05-.22c-.3,0-.52.14-.62.58a7.13,7.13,0,0,0-.26,1.75c0,.22,0,1.44.49,1.44a3.11,3.11,0,0,0,1.24-.8Z"/><path d="M6.25,15.54a1.47,1.47,0,0,1,.42-1.08l.92-.85a1.33,1.33,0,0,1,1.07-.41,1.75,1.75,0,0,1,.53.06l-.4.71a3.3,3.3,0,0,0-.53-.07c-.85,0-1.14.58-1.25,2.05L6.9,17.57a5,5,0,0,1,2-1.06c.78,0,.83,1.21.83,1.73,0,.82-.13,2.27-1.1,2.93L8,21.58a1.29,1.29,0,0,1-.82.28,1.67,1.67,0,0,1-.92-.25l-.28.3-.18,0Zm.43,5.27a1.75,1.75,0,0,0,1,.36.54.54,0,0,0,.54-.23l.12-.16a4.77,4.77,0,0,0,.46-2.06c0-.47,0-1.37-.58-1.37a2.51,2.51,0,0,0-1.37.7Z"/><path d="M12.9,18c-.14-.68-.41-.84-.62-.84-.85,0-.94,1.4-.94,2.23s.4,1.87,1.22,1.87a3.42,3.42,0,0,0,1.68-.76v.34a3.9,3.9,0,0,1-2.36,1c-1.32,0-1.45-1.15-1.45-2,0-.41,0-1.82.59-2.36a3.54,3.54,0,0,1,1.75-1c.66,0,.86.5.92,1Z"/><path d="M19.26,20.68a7.06,7.06,0,0,1-1.76,1.25.38.38,0,0,1-.3-.18A4.26,4.26,0,0,1,17,20.62c-1.34,1.06-1.69,1.31-1.92,1.31s-.71-.59-.71-1.7.21-2.47.71-2.89l.65-.53a1.14,1.14,0,0,1,.79-.3,3.73,3.73,0,0,1,.62.08l.08-1.36a3.21,3.21,0,0,1,1.81-2,1.53,1.53,0,0,1,.74.12l-.38.67a2,2,0,0,0-.63-.1c-.42,0-.71.29-.8,2.35l0,1c0,.47-.12,1.93-.12,2.4S18,21,18.14,21s.36-.1,1.12-.65ZM15.78,21c.12,0,.43-.12,1.24-.73,0-.95.08-1.91.12-2.85a2.32,2.32,0,0,0-1.05-.25c-.79,0-.82,2.28-.82,2.66S15.27,21,15.78,21Z"/><path d="M23.06,20.84a4.18,4.18,0,0,1-2.51,1.09c-1.31,0-1.46-1.25-1.46-1.81a6,6,0,0,1,.44-2.41,3.14,3.14,0,0,1,2-1.2c.61,0,.94.3.94,1a1,1,0,0,1-.43.86l-2.12,1.32c0,.84.41,1.57,1.32,1.57a3.32,3.32,0,0,0,1.81-.73ZM21,17.13c-1,0-1,1.71-1,2.12,1.46-.85,1.57-1,1.57-1.52A.57.57,0,0,0,21,17.13Z"/><path d="M21.19,24.76h1.12c.65,0,1-.55,1.13-2.29s.19-3.21.24-4.69a12.45,12.45,0,0,1-1.38,0c.28-.35.41-.37,1.4-.37.1-2.4.41-2.88,1.33-3.63a1.75,1.75,0,0,1,1.4-.54,2.75,2.75,0,0,1,.85.12l-.47.66c-.43,0-.79-.08-.94-.08-.5,0-1.16.19-1.22,1.4l-.1,2.07h1.52c-.3.36-.55.4-1.57.41-.29,5.24-.49,5.84-1.06,6.61s-.84,1-1,1.06a2.93,2.93,0,0,1-.67.08c-.32,0-.65,0-.92,0Z"/><path d="M25.25,24.61a6.69,6.69,0,0,0,1.67.23c1.25,0,1.46-.37,1.69-4.19-1.63,1.13-2,1.28-2.12,1.28-.43,0-.73-.94-.73-1.44,0-.24,0-2.45.83-3.08l.75-.59a1.69,1.69,0,0,1,1.16-.31,10.22,10.22,0,0,1,1.66.17.09.09,0,0,1,0,.06c0,.08-.5.53-.53.61s-.1.7-.24,3.12L29.32,22a5,5,0,0,1-.44,2,4.78,4.78,0,0,1-1.61,1.5,2.19,2.19,0,0,1-.76.07,8.9,8.9,0,0,1-1.8-.14ZM27.14,21c.17,0,.37-.07,1.5-.9.07-.95.13-1.93.25-2.84a5.41,5.41,0,0,0-1.15-.14.65.65,0,0,0-.49.17A4.89,4.89,0,0,0,26.66,20C26.66,20.47,26.73,21,27.14,21Z"/><path d="M31,16.2c.11-1.5.17-1.71.9-2.36a1.8,1.8,0,0,1,1.27-.64h.56l-.31.73-.48,0c-.35,0-.58,0-.73.23s-.37,1.33-.52,3.79c1.7-1.12,2.27-1.4,2.51-1.4s.26.11.26.36-.26,2.12-.26,3.31c0,.41.07.84.38.84.14,0,.25-.07,1.21-.7v.34l-.59.47c-.34.26-.7.52-1,.72a.56.56,0,0,1-.31.08.83.83,0,0,1-.2,0,1.21,1.21,0,0,1-.31-1c0-.95.19-2.19.19-2.9,0-.43,0-.6-.24-.6s-.44.08-1.65.91c-.07,1.07-.16,2.15-.23,3.21l-.83.35Z"/><path d="M35.7,17.49c1.33-.85,1.63-1,1.75-1s.17,0,.17.41-.24,2.94-.24,3.48.07.7.36.7c.13,0,.35-.08,1.18-.59l0,.37a8.44,8.44,0,0,1-1.57,1,1,1,0,0,1-.29,0c-.14,0-.19,0-.25-.07a1.91,1.91,0,0,1-.3-.9c0-1,.24-2,.24-3,0-.36-.12-.47-.26-.47a1.58,1.58,0,0,0-.74.31Zm1.63-1.81a2.42,2.42,0,0,1-.55-.79,4.86,4.86,0,0,1,.89-.65,4.36,4.36,0,0,0,.48.85A5.74,5.74,0,0,1,37.33,15.68Z"/><path d="M37.6,24.73a5.62,5.62,0,0,0,.63,0c.84,0,1-.11,1.27-.76A38,38,0,0,0,40,18c0-.35-.11-.48-.34-.48a4,4,0,0,0-1,.3v-.3a9.38,9.38,0,0,1,2-1c.16,0,.26.12.26.41s-.26,5.91-.44,6.4a4.9,4.9,0,0,1-1.75,2.06,3.57,3.57,0,0,1-1,.14,3.48,3.48,0,0,1-.48,0Zm3.57-9.63a5.74,5.74,0,0,1-.81.59,2.45,2.45,0,0,1-.55-.79,4.87,4.87,0,0,1,.89-.65A4.35,4.35,0,0,0,41.17,15.1Z"/><path d="M42.8,19.81l-.18,1.86-.78.26c.47-6.58.5-6.84.76-7.27a7.78,7.78,0,0,1,1.6-1.43,2.79,2.79,0,0,1,.48,0,2.55,2.55,0,0,1,.66.08l-.44.66c-.25,0-.56,0-.76,0-.55,0-.7.32-.89,1.27-.11.54-.19,1.56-.25,2.33,1.45-.85,1.67-.95,1.88-.95.42,0,.61.4.61.88,0,.84-.25,1.07-1.51,1.79,1,1.69,1.1,1.74,1.36,1.74s.34-.1,1.16-.67v.34c-1.21,1-1.55,1.32-1.69,1.32a.3.3,0,0,1-.3-.17c-.18-.28-.56-1.12-1.17-2.06Zm1.37-2.49c-.25,0-.54.16-1.2.59,0,.52-.11,1-.14,1.57,1.62-.7,1.68-1.16,1.68-1.69C44.5,17.51,44.37,17.31,44.17,17.31Z"/><path d="M49.33,14a4,4,0,0,0-.6-.11c-.62,0-.73.25-.81,1.06,0,.5-.42,4.07-.42,5,0,.38,0,1.08.42,1.08s.61-.22,1.23-.68v.34a13.56,13.56,0,0,1-1.73,1.24.5.5,0,0,1-.18,0,.38.38,0,0,1-.24-.06c-.26-.24-.42-.68-.42-1.64,0-.3.28-2.84.42-4.82a1.83,1.83,0,0,1,.94-1.63c.62-.5.79-.58,1-.58a3.46,3.46,0,0,1,.81.08Z"/><path d="M48.79,17.39a5.75,5.75,0,0,1,1.66-.88.27.27,0,0,1,.21.07s0,.07,0,.23,0,.79-.1,1.24A16.43,16.43,0,0,1,53,16.51c.14,0,.25.1.25.31s0,.73-.06,1.1a7.86,7.86,0,0,1,2.42-1.42.38.38,0,0,1,.23.12.85.85,0,0,1,0,.34c0,.26-.28,2.18-.28,3.14,0,.43,0,.86.33.86s.48-.14,1.14-.64v.36a8.28,8.28,0,0,1-1.82,1.24c-.47,0-.49-.79-.49-1.07,0-1.52.2-2.17.2-2.81s-.06-.6-.23-.6-.61.19-1.59.91l-.31,3.23-.82.34c.12-1.1.31-2.9.31-3.62,0-.35,0-.78-.2-.78s-.53.18-1.62.94l-.28,3.18-.79.29c.1-1.34.29-3,.29-3.85,0-.56,0-.67-.24-.67a1.76,1.76,0,0,0-.74.32Z"/><path d="M56.83,17.36a5.87,5.87,0,0,1,1.55-.85.25.25,0,0,1,.18.11,2,2,0,0,1,0,.41c0,.28,0,.6,0,.91a11.13,11.13,0,0,1,2.39-1.43.22.22,0,0,1,.22.12.42.42,0,0,1,0,.2c0,.65-.2,2.09-.2,3.25,0,.35,0,.86.41.86.19,0,.42-.13,1.08-.61v.34a8,8,0,0,1-1.77,1.26c-.54,0-.55-.86-.55-1.4,0-.74.16-2,.16-2.53,0-.23,0-.47-.22-.47a4.36,4.36,0,0,0-1.55.82c-.08,1.07-.13,2.13-.23,3.21l-.84.37c.11-1.27.28-3,.28-3.73s-.07-.76-.2-.76a1.94,1.94,0,0,0-.73.29Z"/><path d="M63.54,17.21l.42-.31a2.09,2.09,0,0,1,1-.38c1.18,0,1.38,1,1.38,2a3.27,3.27,0,0,1-.84,2.64l-.6.38a2.19,2.19,0,0,1-1.15.42c-1.31,0-1.38-1.63-1.38-1.79C62.41,18.38,62.78,17.77,63.54,17.21Zm.95-.07c-1.24,0-1.24,1.7-1.24,2.28,0,.73.19,1.9,1.13,1.9s1.16-1.5,1.16-2.42C65.54,18.47,65.49,17.13,64.48,17.13Z"/><path d="M66.62,17.36a8.57,8.57,0,0,1,1.68-.85c.14,0,.2.11.2.25s0,.52,0,.78c1.22-.95,1.42-1,1.65-1,.5,0,.91.34.91,1.48a5.09,5.09,0,0,1-.68,2.66,4.2,4.2,0,0,1-1.21,1,1.62,1.62,0,0,1-.61.08,1.39,1.39,0,0,1-.41-.06c-.06,1.12-.13,2-.19,3.15l1.15.18-.29.32H66c.19-.25.31-.38.46-.41l.67-.12c.13-1.08.49-6,.49-6.74,0-.53-.07-.64-.28-.64a1.83,1.83,0,0,0-.7.24Zm3,.06c-.3,0-.55.14-1.15.61-.08,1-.19,2-.23,2.84a1.24,1.24,0,0,0,.8.26c1,0,1.2-1.87,1.2-2.58C70.21,18,70.06,17.42,69.58,17.42Z"/><path d="M74.52,20.68c-1.16.86-1.56,1.15-1.89,1.15s-.88-.6-.88-1.67a4.88,4.88,0,0,1,.43-2.37,6.11,6.11,0,0,1,1.1-1,1.77,1.77,0,0,1,1.15-.29c.18,0,.36,0,.52,0,.6-.72.66-.78.73-.78a.08.08,0,0,1,.06.06,4.42,4.42,0,0,0-.1.82l.24.06c0,.26-.3.32-.32.66l-.44,7.54,1.13.13-.3.32c-1.57,0-2.4,0-2.81,0a.77.77,0,0,1,.53-.37l.58,0Zm.23-3.41a3.5,3.5,0,0,0-1-.14c-.44,0-1.09,0-1.09,2.65,0,.25.13,1.14.64,1.14a2.49,2.49,0,0,0,1.26-.83Z"/><path d="M76.13,17.45a5.81,5.81,0,0,1,1.67-.94.23.23,0,0,1,.21.12c0,.11,0,.6,0,.89l.82-.76a.63.63,0,0,1,.6-.25,1.41,1.41,0,0,1,.47.07l-.3,1a2.42,2.42,0,0,0-.72-.19,1.65,1.65,0,0,0-.87.54c-.13,1.25-.21,2.49-.31,3.72l-.85.32c.2-2.11.33-3.38.33-3.78s-.07-.66-.29-.66a1.81,1.81,0,0,0-.77.29Z"/><path d="M80.25,20.3c.24.88.64,1.08.94,1.08a.89.89,0,0,0,1-1c0-1-2.05-.72-2.05-2.09a2.1,2.1,0,0,1,1.78-1.8,1.47,1.47,0,0,1,1.09.4l-.57.84c-.4-.5-.67-.61-1-.61a.66.66,0,0,0-.71.68c0,1.09,2.2.85,2.2,2a2.28,2.28,0,0,1-2.29,2.09A1,1,0,0,1,79.47,21Z"/><path d="M84.56,15.85l.84-.36-.12,1.87h1.49l-.38.42H85.26c-.06.77-.12,1.66-.12,2.29s.21,1,.66,1c.2,0,.37-.06,1.22-.59l0,.34a3.52,3.52,0,0,1-1.94,1.09c-.71,0-.83-.84-.83-1.1,0-.7.11-1.81.19-3H83.14l.45-.4.85,0Z"/><path d="M91.22,16.51c-.1,1.25-.3,2.53-.3,3.79,0,.25,0,.72.25.72a3,3,0,0,0,1.28-.64l0,.37c-1.09.86-1.62,1.18-1.87,1.18s-.44,0-.47-1.14a6,6,0,0,1-1.9,1.14c-.29,0-.6-.61-.6-.86,0-.74.19-2.48.19-3,0-.31,0-.6-.23-.6a1.74,1.74,0,0,0-.76.29v-.3c1.13-.78,1.4-1,1.58-1s.24.07.24.29c0,1.16-.19,2.46-.19,3.41,0,.36.08.85.43.85.14,0,.47-.14,1.22-.67,0-.67.24-2.78.3-3.53Z"/><path d="M96.28,16.37a.77.77,0,0,1,.45.8c0,.36-.06.86-1.87,3.78a2.69,2.69,0,0,0-.28.62l-.78.36c-.3-1.51-.63-3.21-.74-3.56-.24-.76-.36-.95-.59-.95a2.55,2.55,0,0,0-.77.32l0-.32c1.15-.79,1.42-.91,1.55-.91s.26.14.46,1.06.47,2.34.68,3.5h0c.83-1.48,1.44-2.46,1.44-3.09a1.93,1.93,0,0,0-.46-1Z"/><path d="M104.39,16.43a.8.8,0,0,1,.46.84c0,1-1.56,2.58-2.67,4.4l-.65.26c-.14-1.12-.48-3.51-.56-4.15h0c-.55,1.25-1.25,2.58-1.91,3.86l-.73.29c-.19-1.73-.38-3-.56-3.87-.08-.4-.17-.64-.44-.64a1.64,1.64,0,0,0-.74.28v-.34c1.19-.72,1.46-.85,1.62-.85s.24.06.28.34c.13,1,.37,2.9.53,4.14h0a43.64,43.64,0,0,0,1.92-4.13l.79-.35c.11,1.25.32,2.54.55,4.41,1.52-2.15,1.68-2.42,1.68-2.91a1.74,1.74,0,0,0-.42-1Z"/><path d="M104.73,22.15a2.1,2.1,0,0,1,.88-1.94l1.24-1.1c-.3-1.45-.4-1.75-.82-1.75a2.45,2.45,0,0,0-1.12.44v-.34c1.22-.82,1.56-.95,1.8-.95.44,0,.52.1.82,1.9,1.91-1.82,2-1.9,2.23-1.9a1.69,1.69,0,0,1,.68.26l-.49.95a1.1,1.1,0,0,0-.56-.24c-.12,0-.44.13-1.81,1.32.29,1.85.79,2.36,1.38,2.36.23,0,.53-.16,1.33-.62l0,.34c-1.22.92-1.52,1.06-2,1.06-.88,0-1.06-.48-1.37-2.41a3,3,0,0,0-1.43,2.75,1.57,1.57,0,0,0,.06.42l-.21.14Z"/><path d="M114.54,16.37a.89.89,0,0,1,.37.74c0,1-.83,1.6-3.43,6.64-.79,1.54-1,1.78-2.4,1.78a1.79,1.79,0,0,1-.48,0l.32-.72h.46a1.69,1.69,0,0,0,1.65-.85,4,4,0,0,0,.63-2.08,23.73,23.73,0,0,0-.73-3.75c-.16-.48-.28-.66-.54-.66a4.92,4.92,0,0,0-.84.24V17.4a6.17,6.17,0,0,1,1.67-.89c.23,0,.25,0,.72,2,.08.36.29,1.56.46,2.71h0c1.17-2,1.44-2.82,1.44-3.31a2.06,2.06,0,0,0-.26-1Z"/><path d="M115,18.12c.37-1.38.44-1.54.63-1.54s.49.08.95.16.95.16,1.15.16a1.34,1.34,0,0,0,1-.38l0,.34c-1,1.07-1.88,2.13-3,3.31a13.31,13.31,0,0,1,2.4.82c.12,0,.32-.1,1-.74v.36c-1,1.15-1.29,1.34-1.41,1.34h-.19c-.12,0-1.4-1.08-2.34-1.08-.26,0-.43,0-.94.41V21a35.44,35.44,0,0,0,3.31-3.37c-.21,0-.4,0-.6,0a9.92,9.92,0,0,1-1.32-.17c-.18,0-.39.5-.55.85Z"/><path d="M4.34,28.85c1.21,0,2,.7,2,2.93,0,2-.78,4.58-3.31,4.58-1.09,0-1.8-1-1.8-2.89S1.89,28.85,4.34,28.85Zm-.4.41c-1.56,0-1.78,2.73-1.78,3.61s.2,3,1.63,3,1.66-2.16,1.66-3.55C5.46,31.45,5.26,29.26,3.95,29.26Z"/><path d="M7.88,30.06a27.92,27.92,0,0,0,2.54-1.21l.25,0a63.42,63.42,0,0,0-.46,6.78l2.15.19-.3.31h-5c.18-.2.31-.32.49-.34l1.58-.16c.17-2,.31-3.93.44-5.91l-1.33.47Z"/><path d="M12.66,35.95l1.74-1.67c1.88-1.81,2.39-2.54,2.39-3.51a1.34,1.34,0,0,0-1.24-1.44c-.78,0-1,.55-1,1.16a3,3,0,0,0,.14.86l-1,.22a3.3,3.3,0,0,1-.1-.7c0-1.22,1.5-2,2.59-2a1.45,1.45,0,0,1,1.56,1.62c0,1.13-1.16,2.16-3.63,4.46l0,0a2.54,2.54,0,0,1,.48-.07c.55,0,2.11.52,2.52.52s.52-.17,1.27-1.13l.19.25c-1,1.44-1.29,1.83-1.67,1.83-.59,0-2-.71-3-.71-.26,0-.61.12-1.2.71Z"/><path d="M19.85,32.46c1.76-.84,2.36-1.2,2.36-2a.92.92,0,0,0-1-.92,1.9,1.9,0,0,0-.66.16l-.72.42,0-.28,1-.76a1.16,1.16,0,0,1,.89-.24c.5,0,1.46.11,1.46,1.21,0,.65-.24.91-1.24,1.58v0c1,0,1.87.42,1.87,1.66a3.41,3.41,0,0,1-3.72,3A3.11,3.11,0,0,1,18.52,36l.52-.72a4,4,0,0,0,1.8.54,1.84,1.84,0,0,0,2-1.94,1.38,1.38,0,0,0-1.52-1.5,2.91,2.91,0,0,0-1.48.43Z"/><path d="M24.75,34.16a2,2,0,0,1,.26-.67,41.21,41.21,0,0,1,3.68-4.4l.63-.24-.39,4.76h1.93l-.8.5c-.13,0-1.09,0-1.15,0,0,.38-.06.78-.06,1.15s0,.66.26.86a3.79,3.79,0,0,1-1,.36,1.07,1.07,0,0,1-.32-.07c.06-.77.14-1.52.17-2.29ZM28,33.61c.12-1.2.24-2.42.34-3.63l0,0a32.1,32.1,0,0,0-2.87,3.66Z"/><path d="M31.75,32.51c.24-1.15.54-2.4.68-3.47.3,0,1.15.12,1.78.12a2.86,2.86,0,0,0,2.27-1l0,.49a6.31,6.31,0,0,1-.89,1.07A2.68,2.68,0,0,1,34,30a8.05,8.05,0,0,1-1.12,0l-.56,1.9a3.8,3.8,0,0,1,1.32-.26,1.8,1.8,0,0,1,2.06,1.86,3.23,3.23,0,0,1-3.31,2.91A4.59,4.59,0,0,1,31,36.13l.53-.76a3.45,3.45,0,0,0,1.56.36A1.63,1.63,0,0,0,34.81,34a1.56,1.56,0,0,0-1.7-1.66A2.46,2.46,0,0,0,32,32.7Z"/><path d="M42.07,29.75a2.31,2.31,0,0,0-1.18-.35c-1.4,0-2.6,1.14-2.6,3.84,1.34-.94,1.61-1.08,2.28-1.08a1.69,1.69,0,0,1,1.81,1.74,2.77,2.77,0,0,1-2.91,2.46c-1.52,0-2.09-1.34-2.09-2.51,0-2.53,1.49-5,4.05-5a2.18,2.18,0,0,1,1.09.19ZM40,32.93c-.25,0-.59,0-1.67.72.12,1,.65,2.23,1.83,2.23a1.28,1.28,0,0,0,1.27-1.4A1.44,1.44,0,0,0,40,32.93Z"/><path d="M44.06,28.42c.1.61.37.62.71.62h2.59c.66,0,.83,0,1.07-.42l.11.4c-2.34,3.47-3.07,4.86-3.07,5.76a4,4,0,0,0,.34,1.32l-1.12.36a3.56,3.56,0,0,1-.2-1.15c0-1.25,2.81-5.1,3-5.45-.41,0-2.7.14-3.2.14s-.77,0-.77-.32a3,3,0,0,1,.25-1Z"/><path d="M49.71,33.43a9,9,0,0,1,1.36-1c-.76-.64-1-1-1-1.66a2.24,2.24,0,0,1,2.34-2,1.22,1.22,0,0,1,1.44,1.21,2,2,0,0,1-.36,1.1,7.31,7.31,0,0,1-1.26.9c1.28.84,1.65,1.27,1.65,2,0,1.4-1.65,2.34-2.91,2.34a1.64,1.64,0,0,1-1.73-1.76A1.79,1.79,0,0,1,49.71,33.43Zm1.68-.77c-.83.59-1.05.94-1.05,1.64a1.42,1.42,0,0,0,1.27,1.57,1.23,1.23,0,0,0,1.33-1.35C52.94,34,52.69,33.5,51.39,32.66ZM52,29.26a1.1,1.1,0,0,0-1.06,1.16,1.72,1.72,0,0,0,1,1.45,1.73,1.73,0,0,0,1-1.51C52.9,29.77,52.58,29.26,52,29.26Z"/><path d="M55.56,35.46a2.31,2.31,0,0,0,1.18.35c1.4,0,2.6-1.14,2.6-3.84C58,32.9,57.73,33,57.06,33a1.69,1.69,0,0,1-1.81-1.74,2.77,2.77,0,0,1,2.91-2.46c1.52,0,2.09,1.34,2.09,2.51,0,2.53-1.49,5-4.05,5a2.17,2.17,0,0,1-1.09-.19Zm2.11-3.18c.25,0,.59,0,1.67-.72-.12-1-.65-2.23-1.83-2.23a1.28,1.28,0,0,0-1.27,1.4A1.43,1.43,0,0,0,57.67,32.28Z"/></g></g></svg>