<svg xmlns="http://www.w3.org/2000/svg" viewBox="0 0 230.4 68.11"><defs><style>.cls-1{fill:#231f20;fill-rule:evenodd;}</style></defs><title>BE55</title><g id="Layer_2" data-name="Layer 2"><g id="Layer_1-2" data-name="Layer 1"><path class="cls-1" d="M103.68,68.11c.07,0,.07-.07.29-.07l.43-.58a1,1,0,0,1,.07-.36c.72.14,1.51.5,2.23.14.14,0,.07-.29.14-.5s.14-.07.22-.22V66l.5-.86c-.07-.22.14-.22.22-.43v-.86c0-.22.22-.22.22-.43v-.58l.5-.79v-.5l.5-.79a.54.54,0,0,1,.29-.5v-.43c0-.22.07-.22.22-.36a2.1,2.1,0,0,1,.14-.65v-.36c0-.22.22-.22.36-.43-.14-.29.07-.36.14-.58s0-.22.14-.29c.58-.65,1.58,0,2.45-.36.72.36,1.44-.07,1.94.36.07.36.5.58.5.94l.36.5c.14.14,0,.22.14.43s.29.22.14.43l.72.94c.14.14,0,.22.14.43l.86,1.08v.29l.72,1.22.94,1.51c.07.29.5.29.5.72,0,.07.07.07.14.29v.29l.94,1h.36c.22-.14,0-.29.14-.5.72-1.08,2.59-.58,3.38-1.73v-.58c-.22-.43-.79-.07-1-.5v-.22c-.07-.29-.36-.36-.72-.58l-3.89-5-.14-.36c0-.07.07-.22.29-.29,3.67.36,7.27.65,10.94,1.15a84.36,84.36,0,0,0,8.57-.14c1.15,0,2.23.5,3.24.36.22-.07.5-.36.94-.29a85,85,0,0,0,12.82.72c3.74.22,7.56-.22,11.38.58a6.38,6.38,0,0,1,2.38.22,9.61,9.61,0,0,1,1.44,0c5.76.5,11.45,0,17.28.5,2.88.29,5.47.07,8.42.5.5-.14.79,0,1.3-.14,3.82.22,7.49.65,11.3.65a17.66,17.66,0,0,1,1.94-.14,65,65,0,0,0,8.06.65c1.94-.5,3.89.29,5.76,0a14.46,14.46,0,0,1,1.73.07c.36-.22.65-.36.79-.72A3.32,3.32,0,0,0,228.89,60v-.65c0-.07.22-.07.29-.29v-3.1c0-.07.14-.07.22-.29V54.22c0-.07.22-.07.22-.29v-.86c0-.14.22-.14.29-.29V49.61c0-.07.14-.07.22-.29V47.16c0-.22.22-.22.29-.43v-.5c-.29-.07-.22-.36-.36-.58l-1.3-.22c-.86-.72-2.3-.5-3.31-1.08-.36,0-.43.22-.65.22l-.36.5v.29c.07.07.22.07.22.22l.07.43c0,.22-.22.22-.29.43v.72c0,.07-.14.07-.22.29v.86c0,.22-.22.22-.29.43s0,.36-.22.58v1.8c0,.14-.22.14-.22.29v.94l-.5.79v.5l-.5.94v.79L222,56c0,.29-.07.29-.14.5l-.36.79c-4.18,1.22-8.86-1-13.25-.86-4.9.07-9.79-.43-14.69-.79-1.94,0-3.74-.43-5.62-.29-9.29-1.15-18.5-1.44-27.79-2.3-.22,0-.29-.14-.22-.22s.36-.29.72-.43c2.38-.79,4.68-1.08,7-1.94,1.58-.22,3.1-.72,4.61-1a130.1,130.1,0,0,1,14.69-4.9l.58-.79v-.94c0-.22.43-.43.72-.29,7.92,1.3,15.77,3.1,23.62,4,.22-.07.07-.29.07-.5-6.91-2.09-14.26-2.74-21.38-4.54a4.11,4.11,0,0,1-2.3-.65V40c0-.07.07-.07.22-.29V39c0-.22.22-.22.29-.36v-.43c0-.07.07-.07.22-.29a.58.58,0,0,1,.29-.58c-.14-.36,0-.43.22-.65v-.29c0-.22.14-.22.14-.43v-.5c0-.07.22-.07.36-.29v-.58l.5-.94v-.58c0-.07.07-.07.14-.29s.14-.43.36-.72v-.43c0-.14.07-.14.14-.36v-.43c0-.07.22-.07.22-.29v-.36c0-.22.22-.22.29-.43v-.36c0-.22.14-.22.22-.43v-.5c0-.07.22-.07.29-.43-.07-.14,0-.36.22-.58v-.36c0-.22.22-.22.29-.43v-.43c0-.07.14-.07.22-.29v-.5c0-.14.22-.14.22-.36v-.29l.5-.94v-.5c0-.07.14-.07.29-.29-.14-.29,0-.43.22-.58v-1c0-.22.14-.22.14-.43s.14-.36.29-.58c-.07-.22.14-.43.22-.58v-.43c0-.07.22-.07.29-.29v-.5c0-.22.14-.22.22-.43V18c0-.22.22-.22.29-.36v-.43c0-.07.14-.07.22-.29v-.58l.5-.94v-.5c0-.07.07-.07.22-.29V14c0-.22.22-.22.29-.43a.6.6,0,0,1,.22-.58v-.5c0-.14.22-.14.29-.43v-.29c0-.22.07-.22.22-.36a1.16,1.16,0,0,1,.22-.65v-.5c0-.07.14-.07.29-.29V9.5c0-.22.07-.22.14-.36a1,1,0,0,1,.36-.65V8c0-.07.07-.07.14-.29s.14-.36.36-.58v-.5c0-.22.07-.22.14-.43V5.83c0-.14.22-.14.22-.29V5c0-.22.22-.22.29-.43s.14-.43.22-.58.14-.29.29-.5V2.59L199.73,2l-9-.43-1.94-.14c-.14-.22,0-.65-.07-.94l-.43-.5L186.7.22l-.29.58v.43c0,.22-.22.22-.29.36s-.14.43-.22.65v.58l-1.51,2c-2.45,4.18-5.76,8-8.71,12.1L173,20.52l-2.88,3.89v.22c-.14.07-.22.22-.36.22l-1.15,1.66a12.77,12.77,0,0,1-3.74.29c-7.34-.65-14.69-1.94-21.89-2.66-3.67-.22-7.27-.5-10.8-.94-4.18-.58-8.35-.65-12.46-1.08-8.14-.07-16.92-2.81-24.62.22-.43.29-.86.58-1.22.79-.58.43-1.08.58-1.58,1-.22.29-.29.72-.72.86l-1.73,1.73c-.07,0-.14.07-.14.22-.36.22-.65.5-.94.65a11.22,11.22,0,0,1-4.46,2.16,1,1,0,0,1-.36.07c-.79,0-1.3.5-2.16.58-1.73.36-3.31.43-5,.72l-5.47-2c-1.37-.29-2.66-.79-4.1-1.15-.58-.5-1.51-.43-2.09-.72a44.8,44.8,0,0,0-8-1.22,28,28,0,0,0-4.82-.29c-.29,0-.29-.29-.22-.58a7.14,7.14,0,0,1,1.3-1.22c2.52-1.73,4.61-3.6,7.13-5.33v-.29l-.58-.65-1.22-1a2.54,2.54,0,0,1-.43.07l-.86,1-.43.58-4.39,3.89-3.89,3.24-8,1.87-.79-1.08-.43-.58c-.07-.14,0-.22-.07-.43s-.22-.22-.22-.36-.29-.36-.22-.5-.29-.29-.29-.5-.29-.29-.22-.5l-.65-1-.14-.5a.89.89,0,0,1-.14-.22v-.36c0-.14-.14-.14-.22-.22v-.5c-.14-.07-.22-.07-.22-.22s0-.22-.07-.36-.36-.22-.22-.5l-.22-.22-.07-.5c-.14-.14-.36-.22-.22-.5-.14-.07-.14-.07-.22-.22L36,17.5l-.65-.86c-.07,0-.07-.14-.29-.22l-2.38.86c-.29.14-.07.43-.22.72.14.14.29.22.29.5a.35.35,0,0,1,.22.43c.07.29.5.36.5.79,0,.07.07.07.22.22v.36l.65.94c.14.14,0,.14.14.36s.36.5.5.94c0,.07.22.14.22.36s.29.29.14.5l.5.65v.36c.14.22.29.22.29.5s.43.5.5.79.22.29.22.5.29.29.22.5.22.07.22.22,0,.22.07.36.14.14.22.22V28c-.5.43-1.51-.07-2.23-.22a5.21,5.21,0,0,1-1.66-.86l-2.09-.65c-1.15-.36-2.3-.79-3.46-1.08a51.82,51.82,0,0,1-5-1.66,64.68,64.68,0,0,1-8.86-3.46L10.8,18.58l-4-1.66-2-.94v-.65c-.07-.14-.07-.22-.14-.22l-.14-1.51a.23.23,0,0,0-.22-.22V11.52c-.07,0-.07-.07-.14-.22L4,10.08l-.29-.36C2.45,9.58,1.3,9.14.14,9.58L0,17.14a.37.37,0,0,1,.14.29l.14.79,2.3,1.08,1.15.65C6,20,7.56,21.31,9.5,22.1c.5.58,1.3.58,1.87.94,1.22.36,2.23,1,3.31,1.3,6,2.38,11.52,4.75,17.5,7a3.81,3.81,0,0,1,1.37.36c.43.22.79.43,1.15.65v.5l-.5.36v.5c.07.29.5.22.79.29s.22.36.22.65l-.5.65.29.65a.92.92,0,0,1,.79.36l.5.14c.07.07.07.22.07.43a14.36,14.36,0,0,1-1.87,1.58c-3.1,2.81-6.48,5.18-9.58,7.92l-.43.5c0,.29.22.36.43.43h.58l1.22.72c.29,0,.43-.36.79-.5,1.94-1.8,3.67-3.89,5.76-5.47,1-.94,2.3-1.3,3-2.59L38,37.73s0-.22.07-.29l1.66.79a11.4,11.4,0,0,0,2.81,2.09l.79.43V41l.86,1.22c0,.14.14.29.14.5l.72,1.15.79,1.22c0,.22.22.29.22.5s.43.5.5.86c0,.14.07.14.22.22v.5a.67.67,0,0,1,.29.5c0,.07.07.07.22.22v.5a.85.85,0,0,1,.29.5c0,.07.07.07.22.14v.43l.65,1V51a.72.72,0,0,1,.29.36h.5L50,51l1.22-.72.36-.65a.55.55,0,0,1-.29-.5,3,3,0,0,1-.5-.79c-.07-.29-.36-.5-.5-.86l-1.15-1.8c-.14-.29-.43-.5-.43-.79s-.29-.29-.29-.5-.07-.14-.22-.29v-.29c-.07-.22-.29-.36-.29-.5s-.29-.22-.22-.5-.07-.14-.22-.22-.07-.29.14-.5c1.8.5,3.67,1,5.69,1.37,3.31,1.94,6.34,4.32,9.79,5.9a3.48,3.48,0,0,1,2.3,1.51l.72.43,1.51.65a60.91,60.91,0,0,0,8.28,2.3c5.62.79,11.3,1.22,16.56,2.09,2.52.72,4.9.14,7.2.65,1-.14,2.16-.29,2.81.29.14,0,.22.07.36.07.94-1,2.59-.14,3.89-.36.36.07.14.58.29,1l-.5.79c0,.29-.14.36-.29.58.07.29-.14.43-.22.65s-.07.36-.29.58v.36c0,.22-.14.22-.22.43v.29c0,.22-.22.22-.22.43a.86.86,0,0,1-.29.58v.43l-.72,1.15v.29c0,.22-.14.22-.29.43.14.22,0,.36-.22.58v.22c0,.22.14.22.22.29v.5l-.36.58v.5c-.14,0-.14.22-.22.22,0,.22.07.22.22.29Zm1.87-1.66c.14,0,.22-.14.43-.14l.29-.65V65.3c0-.14.22-.14.29-.36s.14-.43.22-.58v-.43c0-.07.22-.07.29-.29v-.43c0-.14.14-.14.22-.36v-.43c0-.22.22-.22.29-.36a.58.58,0,0,1,.22-.65.82.82,0,0,1,.22-.58.58.58,0,0,1,.29-.58c-.14-.22.07-.29.22-.5v-.65l.5-.86v-.5c0-.07.14-.07.29-.29V57c-.29-.22-.72.14-1,.14s-.14.29-.22.5-.07.14-.29.14l-.43.72c.14.22-.07.29-.14.5s-.14.22-.22.43-.14.36-.29.58v.36c0,.22-.22.22-.22.43v.29c0,.22-.22.22-.29.43s-.14.36-.22.58v.5c0,.22-.22.22-.29.43v.58c0,.07-.14.07-.22.29V65L105,66s0,.22.07.29l.5.22Zm15.26-1.15,1.8-.43c.22-.14.07-.36.07-.5L122,63.22,119.3,60c-.36,0-.65.36-1.15.29-.14,0-.14-.36-.36-.5s0-.22-.14-.36l-.36-.65v-.36c-.14-.22-.29-.36-.29-.5l-.29-.65a5,5,0,0,0-.94-.14c-.07.07-.07.14-.07.29l2.38,3v.43l.94,1.58,1.58,2.45.14.43ZM217,60.91l5.47-.07.43-.5v-.58l-1.51-.22c-.29,0-.36-.22-.58-.29-3-.29-5.9-1.22-8.93-1.51-.86-.22-1.66-.43-2.59-.58a12.23,12.23,0,0,0-1.73.07c-1.3.79-3.17,0-4.68,0-16.2-1.22-33.26-1.8-48.89-4.1,1.08-1.08,3.31-.86,4.68-1.58,1.73-.22,3.1-1.08,4.61-1.3,2-.65,3.74-.72,5.62-1.44-.79-.5-2.74-.29-4-.5a12.21,12.21,0,0,0-3.24,0c-1.73-.65-3.31.14-4.82-.36-2.23.29-4.32-.22-6.34,0-2.16-.22-4.46-.22-6.48-.22l2.81,2.38v.5a.35.35,0,0,1-.43.14L143.93,49l-4.39-2.09-2.81-1.51c-5.62-1.3-11.3-3.1-17.14-3.38-1.51.43-3.24-.65-4.82.07-1.51-.29-2.81.86-4.18.5-.5.07-.94.36-1.3.36-.22.36-.43.36-.79.43q-.22,0,0,.22l1.66.5,1.15.36c.79-.79,2.16-.5,3.17-.86a5.91,5.91,0,0,1,4.32.79c0,.22.22.29.22.58s.07.14.22.22v.5a.85.85,0,0,1,.29.5c0,.07.07.07.22.29v1c0,.22-.22.22-.22.36a1.18,1.18,0,0,1-.5.86,6.25,6.25,0,0,1-3.24.65l-1.22.43L113.11,49l-.72.36-.5.14-.43-.43-.07-1.3a.39.39,0,0,0-.22-.29v-.58c-.07-.14-.29-.22-.22-.43s-.29-.29-.29-.5l-.36-.58c-1.44-.94-3.31-.43-4.9,0-.36.29-.14.65-.14,1.08,0,.07-.22.07-.29.29a2.29,2.29,0,0,1-1,1.51,5.1,5.1,0,0,1-1,.07l-.36.43a.29.29,0,0,1-.14.29l-.79.29-.29.43-1.22,1.66a.7.7,0,0,1-.29.65v.86c1.44,2.3,4.54,3,7.34,3l.36-.43a.48.48,0,0,1,.22-.58v-1.3c-1-.65-2.38-1-3-2.23l-1.94-1.87v-.22l1.37.5a4.38,4.38,0,0,1,1,.72c.79,1.15,2.16,1.58,3.38,2.3a.22.22,0,0,0,.07.14,1,1,0,0,0,.22-.14l2.23.29a1.06,1.06,0,0,1,.5.5c-.22.58-.94.65-1.51.58-.29,0-.58-.22-.72-.07l-.29.5c.07.14-.07.29-.22.43v.65c.22.22.5,0,.72.07l.43-.36.58-.94c.22,0,.29.22.36.29l-.14.43v.5a4.44,4.44,0,0,0,2.74,0c-.07-.14-.29-.22-.14-.43-.14-.07-.14-.07-.22-.22s0-.14-.07-.36-.22-.22-.22-.5c0-.07-.14-.07-.22-.22a1.07,1.07,0,0,1,.07-.5,3.59,3.59,0,0,1,1.44,1.8l.36.5,1.15.14c.07,0,.07-.14.07-.22s-.29-.29-.22-.5l-1-1.51-.29-.29a1.13,1.13,0,0,1,.5-.5l2.74,3.1c.79.07,1.51.29,2.3.36,3.67.65,7.49.72,11.23,1.15a49.22,49.22,0,0,0,6.55-.14,8,8,0,0,1,2.59.14c2.59.07,5.26.5,7.7.79,1.8-.29,3.53.22,5,.07,1.08.29,2.09-.22,3.17.14,1.51-.43,2.81.07,4.18,0,4.46,0,8.86.58,13,.86,1.58-.22,3.17.14,4.68-.07,3.1.07,6.12.07,9.14.36,2.38,0,4.39.36,6.77.14,3.6.5,7.2.07,10.73.65a88.64,88.64,0,0,1,12.38.5Zm7.63-.07a.22.22,0,0,0,.14-.07v-.22c-.14,0-.29,0-.36.22,0,0,0,.07.22.07Zm-1.73-2.3H223l.29-.43v-.36c0-.07.22-.07.36-.29-.14-.43.14-.65.36-.94a.32.32,0,0,1-.07-.22c-.22-.29,0-.36.22-.58v-.58c0-.22.07-.22.14-.43v-.29c0-.22.22-.22.36-.36v-.65c0-.22.07-.22.14-.36V51.34c-.14-.07,0,.72-.07,1s-.22.22-.29.43v.36c0,.22-.14.22-.22.43v.36c0,.14-.22.14-.29.29v.65c0,.14-.14.14-.22.36v.5l-.5,1a.39.39,0,0,0-.29.22c-.22.07-.07.36-.22.58s-.07.22-.22.43v.14c.14.14.22.36.43.43Zm2.59-2.66.29-.43.43-.79a.65.65,0,0,1,.29-.58l-.22-.43-.07-.5H226c-.22.07-.07.43-.07.58s-.22.22-.36.43v1c0,.07-.07.07-.14.29v.43ZM76.75,55.44H77a.22.22,0,0,0-.29,0Zm17.42,0L99,55.37c.07,0,0-.22.07-.36s-.29-.14-.5-.36l-.22-.43-.07-.5a.89.89,0,0,0-.22-.14v-.65c0-.07-.07-.14-.22-.14V51.12a5.1,5.1,0,0,1,3-3c.5-.14.79-.36,1.22-.5.22-.22,0-.5.07-.79s.22-.14.29-.36v-.86c0-.07.14-.07.22-.29v-1c0-.22.22-.22.29-.43v-.29c-10.3-.79-20.88-.79-31.25-1.22-5.4,0-10.73-.65-16.06-.29-.29.22-.07.65-.07.94l1.37,1c6.41-1,13.75.36,20.52.14,1.73.43,3.38.14,4.82.36,3.82,0,7.49.36,11.16.29.94.29,1.8-.22,2.52.07,1.87-.07,3.82,0,5.62-.07.29.07.36.5.72.72l-.22.43c-3.82.22-8-.29-12-.36-10.58,0-21-.94-31.46-.72,1.8,1.73,4.39,2.59,6.48,4l7.56,3a35,35,0,0,0,12.1,1.8c3.31.65,6.41,1.3,9.43,1.73Zm37.73-.29c1.08-.22,2.3.29,3.31-.29.07,0,.07-.22.22-.29l.79-.65.36-.58,1.3-1.51.94-1.22,1.58-1.51-.07-.36c-.22,0-.22-.07-.43-.07l-16.42-2.52-1-.58c0-.22-.14-.36-.36-.5h-.58l-.36.36v.5c2.52,2.38,7.06,1.51,10.44,2.52,2.16.22,4.32.58,6.62.86.14,0,.14.14.36.22a2,2,0,0,1-1.66,1.3c-5.11-1.22-11.16-.58-15.55-3.1-.86-.07-1.37.79-1.87,1.3v.58l1.87,1.22V51l1.3.79a3.77,3.77,0,0,0,2.52.58,2.6,2.6,0,0,1,1.73.5c.07,0,.07.22,0,.22a15.94,15.94,0,0,1-5.83-.29c-1-.5-1.73-1.22-2.59-1.22l-2.16-1.37a.78.78,0,0,0-.79,0c-.22.07-.07.29-.22.5l.65.65,4.1,2.3c3.74,1.22,7.92.72,11.81,1.44ZM227,51.34c.22-.07.5-.29.79-.22l.43-.36V49.61a1,1,0,0,0-1.15-.07c-.22.22-.22.22-.36.22l-.14,1.37c0,.14.22.14.29.22ZM49.39,50s.07,0,.22-.14,0,0,.07-.22.07-.07.29-.14a.14.14,0,0,0,.14-.14c0-.29-.36-.29-.22-.58l-1.51-2.3c-.07-.29-.43-.5-.5-.86s-.29-.22-.22-.5-.29-.22-.29-.5-.22-.22-.22-.5-.29-.22-.14-.43c-.14-.22-.36-.29-.36-.5s-.36-.5-.5-.86c-.07-.14-.29-.22-.14-.5l-.43-.29-.79-.14c-.29.22.22.43.29.65v.29l1,1.58.72,1.22.5.5v.58l.5.58v.58c.07.14.29.36.14.5.14.22.36.22.36.5s.29.22.14.5c.14.14.29.22.29.5l.65.65Zm175.9-1.8,1.58-.65,1.44.29c.29-.14,0-.58.07-.94a3,3,0,0,0-2.59-.72l-.36.36a2.29,2.29,0,0,1-.22.65v.58c-.14.07-.14.22-.22.29a.54.54,0,0,0,.22.22l.07-.07Zm-52.34-.5,4.25-1.51c-5.47-.58-11.3-.43-17-.79-2,.07-3.82-.29-5.69,0-5.18-.43-10.3-.43-15.41-.65a1.41,1.41,0,0,1-.86.14c.65.79,1.66.86,2.59,1.51.79.07,1,.86,1.8.65,4.39-.58,9.07.22,13.61,0,2.59.22,5,.29,7.49.29,2.09-.14,4.18.22,6,0,.65.14,1.3.36,1.8,0a2.28,2.28,0,0,1,1.22.43l.14-.07Zm-146.38-1a.61.61,0,0,0,.43-.14l1.66-1.8-2.16,1.8s0,.14.07.14Zm151.63-1c2.23-.72,4.82-1.08,7.13-1.8.29-.22.36-.58.65-.79l-.07-.22c-1.8-.29-3.67.22-5.62-.22-3,1.15-6-.36-8.78.14-4.61-.36-9.07-.22-13.46-.5-8.86.07-17.64-.5-26.21-.65-1.66-.07-3.24-.07-4.75-.07q-.11,0,0,.22a53.52,53.52,0,0,0,7.63,1.8c14.18.07,28.73.79,42.91,1.51l.58.58ZM29.09,44.35h.07c-.07,0-.29.22-.07,0Zm77.47-.5,1.15-.29c-.14-.29-.36-.29-.43-.65h-.72l-.36.43v.29c.07.14.07.14.29.22Zm-2.38-1.22h.22V42a.44.44,0,0,1-.22-.5l-.58-.58c-15.7-.43-31.46-1.3-47.16-.72-.14.22-.36.22-.43.29,1.37.58,3-.07,4.46.22,7.7.22,15.19.72,22.82.79,1.66.29,3.38.07,4.9.22,3.6.22,7.06.29,10.58.36,1.87.22,3.67-.07,5.4.5ZM53.5,42.26h.07L54,42v-.5c0-.22.07-.22.14-.43v-.29C53,40.25,51.48,40,50.62,39a5.31,5.31,0,0,1-.94-.58l-.07-.72c.14-.36.86-.22,1.15,0a4,4,0,0,0,3.1,1.08c.22-.07-.14-.36-.29-.36-.5-.5-1.08-.79-1.58-1.22a30.32,30.32,0,0,0-3.6-.29c-.22.22,0,.5-.07.72s-.22.22-.36.36v.43c0,.07-.07.07-.14.29v.43l-.43.36c-.29.14-.58-.07-.79-.29a1.79,1.79,0,0,0-.58-.07c-.22,0-.14.14-.14.29l.79,1.08a29.3,29.3,0,0,0,6.55,1.73Zm52.06-.72.94-.29c-.22-.29-.72-.14-1.08-.22-.14.07.07.43.14.5ZM140.18,41l6.41-.14c.72-.58,1.15-1.37,2-1.87,5.33-8.64,15.19-4,23.9-2.3,2.66.58,5.18,1.51,7.78,1.66l.94-.94c-.14-.22.07-.36.22-.5a.77.77,0,0,1,.14-.43V36l.5-.72c0-.14.14-.29.29-.5-.07-.14.14-.29.22-.43a1.29,1.29,0,0,1,.29-.65v-.29l.43-.58a1,1,0,0,1,.29-.72c-.07-.29.29-.58.5-.94-.07-.36.22-.65.5-.94v-.43c0-.07.07-.07.22-.29v-.43l.5-.79c-.14-.22.07-.29.14-.5v-.58c0-.22.22-.22.36-.43V26.5c0-.22.07-.22.14-.36,0-.36.14-.43.22-.65v-.36l.5-.79a1.07,1.07,0,0,1,.29-.65c-.07-.14.14-.29.22-.5s.07-.29.29-.5c-.07-.14.14-.29.22-.5a1.15,1.15,0,0,1,.22-.58.74.74,0,0,1,.29-.58v-.43c0-.07.07-.07.22-.29s.07-.36.29-.58c-.07-.22.07-.29.22-.5v-.94l.5-.79a1.36,1.36,0,0,1,.14-.58.64.64,0,0,1,.36-.58v-.5l.5-.94c-.14-.22.07-.22.14-.36V14c0-.22.22-.22.36-.43-.14-.22,0-.43.14-.58s.14-.29.22-.5.22-.29.29-.5v-.5c0-.07.14-.07.22-.29v-.65l.5-.86V8.42l.86-1.08.65.36c.07.22.22.29.36.43l2.45.36.65-.29.36-.72V7.2c0-.22.14-.22.29-.36V6.48c0-.14.07-.14.14-.36V5.4c0-.22.22-.22.36-.36V4.61c0-.07.07-.07.14-.29a.64.64,0,0,1,.36-.58V3.1c-1.51-.65-3.31,0-4.9-.36a61.77,61.77,0,0,0-6.34.07c-.22,0-.22-.07-.43-.29H187c-.14.22-.07.5-.07.79l-2.23,2.81-.79,1L182,9.79l-.72,1-.72,1.08s0,.22-.07.22-.22.22-.29.29l-4.54,5.9-.65,1-4,5.33-1.15,1.58-.79,1.22c-1.3.36-3,.07-4.54.29-12.46-1.94-24.77-2.74-37-4-2.88.14-5.54-.58-8.35-.5-3.17,0-6.26-.65-9.22-.5-.14,0-.22.22-.14.36s.22.07.29,0,0,0,.14-.22.29-.14.5-.14.14.14.29.22l-.29.43-.5.79c0,.36-.29.5-.43.79v.29c0,.22-.22.22-.29.43s-.07.36-.22.58a.58.58,0,0,1-.29.58.55.55,0,0,1-.22.65.82.82,0,0,1-.22.58.58.58,0,0,1-.29.58V29l-.5.79c.14.22-.07.29-.14.5L107,31.68a1.29,1.29,0,0,1-.29.65c.07.29-.36.58-.5.86l-.5.94v.36c0,.14-.14.14-.22.29v1c0,.14-.22.22-.43.36s0,.36-.07.58l.72,1.22c.22.29.5.29.5.72l.86,1.08a20.73,20.73,0,0,0,5.18.22c.36-.14.43-.5.65-.72v-.5c0-.07.22-.07.22-.29v-.94c-1.73-.94-4.25-.29-5.76-1.51a2.87,2.87,0,0,1-.29-.22v-.65c0-.22.14-.22.22-.43v-.5c0-.22.22-.22.29-.36v-.65c0-.07.14-.07.22-.29a.82.82,0,0,1,.22-.58c0-.22.14-.29.29-.5l.72-1.3a.92.92,0,0,1,.29-.72c-.14-.22.07-.22.22-.36a1.44,1.44,0,0,1,.14-.65c0-.36.36-.72.5-1s.29-.65.5-1c0-.14.14-.29.29-.5-.07-.14.14-.29.22-.5V25.2c0-.07.22-.07.22-.29a.58.58,0,0,1,.29-.58V23.9c.29-.79,1.44-.5,2.23-.58,1.3.29,2.81,0,3.74.58a11.28,11.28,0,0,1,4.46,1l.22.29.07.5a.39.39,0,0,0,.22.29v.79a1,1,0,0,0,.22.36c.07.07,0,.14.07.29s.07.07.22.29v1.73a.89.89,0,0,0,.22.14V34.2c0,.22-.14.22-.22.43V36c-.29.58-.65,1.37-1.3,1.51-1.58.22-3-.5-4.54-.07l-.43.5a1.69,1.69,0,0,1-.14.58,1,1,0,0,1-.36.65V40c4.82.79,10.08.14,15.26.79,1.66-.14,3.1.22,4.68,0,1.44.22,2.59-.14,3.89.22ZM114,40h.65l.36-.36V39c0-.22.14-.22.22-.36a.88.88,0,0,1,.29-.65c0-.29-.22-.29-.36-.5a1.5,1.5,0,0,0-.94.22c-.07.14,0,.29-.07.5s-.14.22-.22.43a.86.86,0,0,1-.29.58v.58c0,.14.22.22.36.22Zm-13.75-.22,2.3-.07c.07-.07.07-.07.07-.29s-.29-.22-.22-.43c-1.15-2-2.66-3.74-5.11-4.1-1.37-.29-2.66-.43-4-.72-3.31-1-6.41-1.37-9.5-2.38-.07-.14-.22-.22-.29-.29a.26.26,0,0,0-.14-.22l-2.38.29c-1.37.5-3.1.07-4.61.79-2.3.43-4.39,1-6.48,1.44a33.29,33.29,0,0,1-4.32.94,20.48,20.48,0,0,0-2.52.94L60,37.15l-1.51,1.3c0,.07,0,0,.14.07,5.76.65,11.59.29,17.35.72,3.74-.07,7.34.22,10.73.07,4.61.36,9.22.22,13.61.5Zm4.1,0h1.08c.07,0,.07-.07.07-.14s-.29-.36-.14-.5c-.14-.36-.5-.5-.5-.94-.14-.07-.36-.22-.22-.5-.22-.22-.5-.29-.5-.72l-.43-.43-.5-.36-1.58-.07.94,1.51,1.8,2.16Zm-59.9-.07a.43.43,0,0,0,.29-.07l-.43-.43H44c-.22,0,0,.22,0,.29.22.14.36.29.5.22ZM145,38.66h.58l.43-.43v-.29c0-.22.22-.22.22-.43v-.94c0-.07.14-.07.29-.29V34.78c0-.07.22-.07.22-.29v-3l-12.1-4.1-.43.36a.62.62,0,0,1-.22.65v.36l.22.22v.58a.54.54,0,0,0,.22.22l.07.72a.54.54,0,0,1,.22.22v1.8c.07.07.22.14.22.29l.07.58c0,.07-.22.07-.29.29l.29.43-.29.36c.07.14.22.14.22.22v.5c0,.07-.14.07-.22.22l.29.5-.29.36V37c3.17.5,6.91.94,10.3,1.66Zm-19.08-.5c2.09-.79,4.75.65,6.48-.79a.7.7,0,0,1,.29-.65V36c.14-.29-.07-.72,0-1.08-.07,0-.07-.14-.22-.22l-.07-1.8a.39.39,0,0,0-.22-.29v-2c-.07-.07-.07-.22-.22-.29l-.07-.72c0-.07-.07-.14-.22-.14v-.5c0-.14-.07-.22-.22-.36V27.22c-.14-.29-.43-.29-.58-.5-2.16-.58-4.61-1.87-7-1.37l-.29.58.22.22v1.15c.07.14.07.22.14.22l.14,1a.55.55,0,0,0,.14.29V30a.54.54,0,0,1,.22.22l.14,2.66c0,.14-.22.14-.36.29v2.74c0,.22-.14.22-.14.36s-.14.36-.29.58v.58c.07.22.29.22.43.29l1.66.43Zm-82.37-.43h2.52l.43-.29V35.78c0-.14.07-.14.14-.36v-.79a.37.37,0,0,0-.14-.29v-.72l-.22-.22-.14-.5-.58-.79a1,1,0,0,1-.79-.72L47.38,28c-.5-.07-.79.58-1.3.79-.43.5-.94.79-1.22,1.44-.65.58-1.66-.36-2.59-.14a.73.73,0,0,0-.07.22l-4.9,3c-.22.07-.14.29-.22.5l1,1.44,1.08,1.37,4.39,1.08Zm14.33-.79a.43.43,0,0,0,.29-.07l2.09-1.15c-.86-.5-2.09,0-3.17-.43-1,.22-1.94-.14-3,.22,0,0-.07,0-.07.22l1.08.86,2.74.36Zm4.61-2.3,7.78-2.3c1.51.29,2.81-.65,4.18-.94l-3.67-1.58c-1.87-.36-4-1.08-5.9-1.58s-3.89-.65-5.69-1.08a51,51,0,0,0-6.48-.36c-2.3-.5-3.46,1.3-4.61,2.52a6.14,6.14,0,0,1-.79,1,.61.61,0,0,1-.14.43L51,32.62c.14,0,.36.07.43,0s0,0-.07-.22l.29-.29.5-.07c0,.07.14.07.14.29s-.14.22-.36.29c.58.29,1.51.07,2.09.72a2.16,2.16,0,0,1,1.08.5c2.3.58,5,0,7.34.79ZM35.28,31.18l.86-.07L38,29.59s0-.07-.14-.14c-1.87,0-3.6-1-5.4-1.66a9.15,9.15,0,0,1-1.73-.5c-.65-.5-1.58-.5-2.23-.86a60.92,60.92,0,0,1-6.41-2.09c-1.44-.5-2.52-1-4-1.44-.86-.07-1.44-.79-2.38-.86a35.31,35.31,0,0,1-4.68-2.23,6.6,6.6,0,0,1-1.8-.58c-.43-.29-.79-.22-1-.5l-2.66-1.3-.86-.14-.5.43a.66.66,0,0,1-.65-.22l-.22-.36c-.07-.14,0-.22-.07-.36s-.14-.14-.22-.29V11.23l-.43-.43a2,2,0,0,0-1.3-.07c-.22.07-.07.36-.07.58a.19.19,0,0,0,.22.22V12a.55.55,0,0,0,.14.29v.5c0,.07-.07.07-.14.29v1.58c0,.14.07.22.14.22.14.29-.07.43-.14.58v2.16c1.87,1.58,5,1.37,7,3,1.3.43,2.09,1.15,3.31,1.44A31.09,31.09,0,0,0,15,23.4c6.41,2.23,12.46,5.33,19,7.2a4.7,4.7,0,0,0,1.22.58ZM43.78,29h.43l1.44-1.58-4,1.08.22.22,1.87.29ZM39,27.79a.36.36,0,0,0,.22-.07v-.79l-.36-.65c-.14-.07,0-.14-.14-.29s-.29-.29-.22-.5-.29-.29-.29-.5-.07-.07-.14-.14v-.43l-.94-1.3c-.07-.22,0-.22-.07-.43s-.14-.07-.22-.14V22.1c-.14-.22-.29-.29-.29-.5s-.14-.07-.22-.22v-.5c-.14-.07-.14-.14-.22-.29s0-.14-.07-.29-.14-.22-.22-.29v-.29l-.72-1v-.43L34.7,18h-.65a1.07,1.07,0,0,0-.07.5l.36.58.14.43c.07.29.36.5.5.94,0,.14.22.14.22.43s.36.5.5.86c.07.14.29.29.14.43.14.36.5.5.5.94,0,.07.14.07.22.22s0,.22.07.36.43.43.43.79.29.36.29.5.14.14.22.22v.43c.07.29.5.5.5.86.07.14.29.22.22.43s.29.29.29.5.22.29.36.36Zm69.55-5.11h.36l-.58-.07a.32.32,0,0,0,.22.07Zm-50.9-3.6,1.15-.65c0-.14-.29-.22-.5-.14l-.65.79Zm-55.15-6a.15.15,0,0,0,0-.29c-.07,0,0,.36,0,.29Z"/></g></g></svg>