<svg xmlns="http://www.w3.org/2000/svg" viewBox="0 0 136.26 40.17"><defs><style>.cls-1{fill:#231f20;stroke:#231f20;stroke-miterlimit:2.61;stroke-width:0.22px;fill-rule:evenodd;}</style></defs><title>BE58</title><g id="Layer_2" data-name="Layer 2"><g id="Layer_1-2" data-name="Layer 1"><path class="cls-1" d="M83.68,40.05a.35.35,0,0,0,.18-.08c1.42.26,2.76-.13,4.26-.18a20.22,20.22,0,0,0,2.63-.6c1.18-.05,1.68-1,2.79-1.08l.6-1.24.37-.6c0-.18-.21-.18-.37-.34L93,32.38a.35.35,0,0,1,.26-.24c1.81.32,3.31,1.31,5.15,1.13a23.05,23.05,0,0,0,5.73-.55c1.5-.58,3.1-.53,4-1.84a6.72,6.72,0,0,0,.39-3.21l27.65-8.2a.22.22,0,0,0-.05-.26c-1.16-.26-2.44,0-3.65-.32a30.75,30.75,0,0,0-3.52.6c-2,.34-3.92.74-5.86,1.05-4.23,1.13-8.46,1.84-12.61,2.79-1.39.45-2.65.55-4,1-1.55.6-3.1-.34-4.52.34l-1.79-.45c-.76.08-1.52-.37-2.37-.18-.55-.05-.87.29-1.47.26-.5.21-1.08,0-1.52.39l-.45.81a1,1,0,0,1-.95.32,2.62,2.62,0,0,0-2.15.37,1.58,1.58,0,0,1-.18.26,1.1,1.1,0,0,1-.5.21l-.29.6c-.26.13-.58,0-.87.11s-.16-.16-.32-.18l-.13,0c-.34,0-.47-.32-.81-.39-1.21-.81-2.1-1.52-3.34-2.23a8.83,8.83,0,0,1-1.55-2.34l-1.71-2.15C78.63,17.29,74,18.74,70.3,17.82c-.05-.18.16-.21.32-.26l9-1.16c.11-.05.05-.16.05-.26-3.21,0-6.57,1.1-9.8,1-.71-.5-.74-1.71-1.39-2.31a3.48,3.48,0,0,0-.5-1.13.26.26,0,0,0-.34-.08c0,1.21.87,2.37.84,3.5a15,15,0,0,1-5-.29c-1.63-.47-3.44-.63-4.76-1.58a27.65,27.65,0,0,1-2.47-4.41C55.64,9.23,55,7.86,54.51,6.31c-.6-2.08-1.08-4.23-1.84-6.15L51.59.11,49.91.29l-.29.53.29.53,2.76,16.48c-.79.29-1.71.21-2.58.5-5.7.81-11.25,1.81-16.9,2.39A6.42,6.42,0,0,0,31,21c-.08,0-.13.18-.13.34,2.1,1.26,5.2.13,7.73.21,4.76-.26,9.49-1.1,14.16-1.71a.91.91,0,0,1,.39.13l.05.63c.05.13.24.18.37.29l5,7.07a.28.28,0,0,1-.05.16l-1.18.13c-.92.18-1.94.37-2.36,1.29a.39.39,0,0,1-.05.26c-.21.29-.66.11-.95.32a3.26,3.26,0,0,1-1.31.11l-2.26.92-.5,1.31c-4.23.37-8.65.29-13,.24-2.73.16-5.36-.24-8.07,0-4.81.13-9.51.47-14.35.58-1.34.37-2.68.05-4,.37a8.38,8.38,0,0,0-2,.21l-2.13-.05-5.55.42c-.16,0-.18-.11-.29-.13s-.24.11-.34.21a.32.32,0,0,0,.05.18c.84.66,2.21.5,3.31.68,1.71,0,3.28.74,4.94.55,1.31.39,2.58,0,3.81.26a123.92,123.92,0,0,0,14.32,0A25.47,25.47,0,0,1,30,36c.37-.08.68.05,1.05,0,.45.13.76-.05,1.16,0,1-.18,1.84.13,2.76,0,3.18-.18,6.2,0,9.38-.05C49,35.48,53,36,56.71,38.29c2.15.6,4.31.18,6.46.45A6.72,6.72,0,0,0,65,38.37a5.47,5.47,0,0,0,2.23-1.81l2.79-.63.42.26c.84.37,1.87.55,2.76.92a47.91,47.91,0,0,0,5.39,1.79c1.76.32,3.36,1.05,5,1.16Zm-.34-.39a21.68,21.68,0,0,0,3.18-.16,7.72,7.72,0,0,0,1.94-.29,7.5,7.5,0,0,0,3-.74,6.43,6.43,0,0,1-3.15-.71c-1.45-.37-2.76-1-4.07-1.31l-16.77-7.1a15.92,15.92,0,0,1-1.73-.92c-.71-.47-1.55-.68-2.29-1.08a33.86,33.86,0,0,1-3.1-1.47c-1.89-1.21-3.5-2.71-5.36-3.76A40.8,40.8,0,0,0,59.47,28c.53.63,1.34,1,1.71,1.66,2,1.71,5.26,1.81,7.38,3.23.92.37,1.24,1.21,1.63,2,.05.21-.05.39,0,.53,1.29.79,3.21,1.08,4.6,1.84,2.84.76,5.73,1.71,8.57,2.34ZM60.26,38.27c1.84-.16,3.92.45,5.41-.76.05-.11-.11-.05-.18-.08a3.18,3.18,0,0,1-3,.21c-.29-.13-.63-.13-.92-.29l-.76-1-2.65.42a2,2,0,0,1-.89-1.68,3.65,3.65,0,0,0,.16-.63,2.78,2.78,0,0,1,2.34-.76,1.06,1.06,0,0,0,.5,0l.55.21.92-.95a5.21,5.21,0,0,0-3.57.63,1.53,1.53,0,0,1-.74.47c-.66.45-.16,1.52-.24,2.23a3.7,3.7,0,0,1,.24.71c.18.24.68.37.68.81a1.43,1.43,0,0,1,.08.26l2.08.21Zm-3.13-.45,0,0a5.29,5.29,0,0,1-.58-3.65c.21-.32.39-.76.84-.92,0,0,0-.13,0-.21-.34-.45-1.05-.45-1.58-.68-1.39-.08-2.65-.92-4-.74-.18-.08-.34-.08-.37-.18l-.53.08a1.67,1.67,0,0,0-.5,1.24.68.68,0,0,0,.1.37,16.71,16.71,0,0,0,2.34,2.39.88.88,0,0,1,.18.45c.55.16.95.63,1.5.81a5.9,5.9,0,0,0,2.52,1.08Zm33.3,0c.92-.18,2.18.26,2.76-.58a22,22,0,0,1-4.73-.08c-.16,0-.16-.24-.34-.21a5,5,0,0,0,2.31.87Zm-27.07-.58a2.9,2.9,0,0,0,2.23-.74l-.92-.58L63.55,36l-2.1-.5.37,1.08.39.32,1.16.37Zm24.47-.37c-1.52-.79-3.39-1.34-4.91-2a4.72,4.72,0,0,1-.92-.21c-2.6-1.26-5.28-2.34-7.67-3.6-4.73-2-9.57-3.78-13.8-6.2C59.21,24,58,23.18,56.71,22.24l-2.81-2c-.05.08,0,.16,0,.26l2.81,2.15a36.59,36.59,0,0,0,3.52,2.26,50.3,50.3,0,0,0,5.62,2.73,16.14,16.14,0,0,0,3.21,1.68c2.71,1.05,5.2,2.23,7.7,3.34,1.13.76,2.6,1.05,3.73,1.71a11.28,11.28,0,0,1,1.68.47,28.19,28.19,0,0,0,5.65,2Zm2.92-.21.55.08-1.42-.18.87.11Zm1,.08,1.81-.47a.24.24,0,0,0,0-.29,2.31,2.31,0,0,1-1.87.66c-.11.05,0,.11.08.11Zm-3-.42-.11-.05-.95-.42V36l1,.39.08-.05Zm-22.68-.39c0-.18-.18-.18-.26-.45-.89-.76-1.79-2.21-3.31-2.13a.37.37,0,0,0-.18.16l-.37.18a1.66,1.66,0,0,0-.18,1c.18,0,.16-.18.37-.18l.26.21c.11,0,.29-.11.42,0A.27.27,0,0,1,63,35a.53.53,0,0,0,.29.24c.11,0,.18-.13.29-.11s.66.34.84.11a.56.56,0,0,0,.21-.13l1.47.92v-.05ZM91.3,36a2.1,2.1,0,0,0,2-.84v-.71l-.68-1.6C91,29.09,87.46,26.6,84,24.73c-3,.24-6.25-.58-9,.87-.45.37-.95.47-1.18.84a1.11,1.11,0,0,1-.87.26c-.63-.92-.11-2.13-.63-3.18-.11-1.1-.37-2.5.55-3.26a10.63,10.63,0,0,1,2.92-.76c1.24-.13,2.42.16,3.57,0-3.94-1.37-8.46-.34-12.67-1.58-3.13.11-6.2.11-9.3.37a.45.45,0,0,1-.34-.18c0-.05,0-.13,0-.18,1.47-.66,3.39-.34,5.07-.53.45,0,.84.24,1.16,0l-5.07-1.58c-2.1-1.5-2.73-3.84-3.57-6.2-.89-2.15-1.52-4.6-2.26-6.73,0-.05-.13-.05-.26-.11l.26.47c0,.11-.08.16-.18.18l-.87-.32.29.32c.18.16.5.18.58.53,0,.11,0,.21-.08.24-.47.32-.81-.32-1.24-.39L51,5.6c.11,1.5.55,2.94.68,4.28.18.6.18,1,.34,1.47a23.24,23.24,0,0,0,.37,2.52c.21.68.24,1.31.39,1.89a12.9,12.9,0,0,0,.47,1.87l2.37.68.26.53-.18.45-.39.26a22.81,22.81,0,0,0,3.6,2.73c3.92,2,8,3.84,12.17,5.57.55.39,1.31.55,1.87.89,1.31.39,2.1,1,3.29,1.45,3,1.34,6,2.71,9,3.76a14.5,14.5,0,0,0,1.6.76.38.38,0,0,0,.18.05,4.94,4.94,0,0,0,1.05.55A9,9,0,0,0,91.3,36Zm-23.6-.05c.6-.13,1.37,0,1.89-.45L69,33.88a6,6,0,0,0-1.94-1l.13.42c-.11.87.63,1.63.37,2.63l.11,0Zm19.53-.18a.9.9,0,0,0-.63-.18c-.11,0-.11-.13-.16-.24-1.16-.71-2.76-1-3.89-1.76-1.76-.45-2.92-1.37-4.52-1.87C74.5,30,70.54,28.33,66.91,26.83a.84.84,0,0,0-.18,0l-1.94-.87-5.57-2.86a14,14,0,0,0,1.94,1.31c.81.47,1.71.81,2.47,1.31C65,26,65.86,27,67.17,27.31A9.45,9.45,0,0,1,69,28.1c3.44,1.55,6.73,2.84,10,4.6.68,0,1.05.47,1.68.66,1.87.87,3.92,1.34,5.83,2.21l.71.18ZM7.1,35.14h.42c.18-.08,0-.32,0-.45-1.31-.74-2.86-.08-4.31-.11L5.34,35l1.76.18Zm1.42-.26c2.39-.21,4.81,0,7.25-.16,1.31-.05,2.63-.24,3.86-.37,1.84.08,3.52-.05,5.23.08.66-.18,1.29,0,1.79-.18.66.16,1.31-.11,1.94,0C31,34,33.4,34.17,35.66,34a18,18,0,0,0,4.28.11c.76.05,1.34,0,2.1,0L45.68,34c1.34.29,2.76-.45,4.13-.29a1.13,1.13,0,0,0,.29-.11c.05-.16-.18-.26-.26-.37-6.78,0-13.53-.16-20.37,0-1.21-.05-2.37.1-3.55.05-4.6.29-9.12.42-13.69.74a29.33,29.33,0,0,0-4,.39c0,.13-.1,0,0,.16a.56.56,0,0,0,.29.37Zm89.17-2.05,1.39-.1a.14.14,0,0,0,.16-.16,3.4,3.4,0,0,1-.68-3.28c.08-.66.5-.84.68-1.42a23.35,23.35,0,0,0-6.73-1.63,4.65,4.65,0,0,0-1.6,1l-.08.53c.37.47.55,1.26,1.05,1.68a7.86,7.86,0,0,0,5.81,3.36ZM58.4,32.56A10.44,10.44,0,0,1,62.13,32,5.37,5.37,0,0,0,64,31.85l-2.73-1.31c-2.42-.05-4.65.29-7.1.21a1.22,1.22,0,0,0-.55.13c1.21.84,3.26.89,4.68,1.73l.11-.05Zm42.55.08a14.61,14.61,0,0,0,2.86-.45c1.21-.68,2.81-.34,3.63-1.6l-1.52.92c-.66.16-1.29,0-1.94.16-.76-.05-1.1-.47-1.68-.71l-.47.26c-.79-.45-1.39.21-2.18.18-.26-.08-.29-.29-.45-.39-.26.18.05.66.18.84a2.35,2.35,0,0,0,1.13.53l.39.26Zm-8.33-1.24v-.08c0-.08,0-.13-.18-.18s0,.11.08.24a.16.16,0,0,1,.11,0ZM103.67,31a11,11,0,0,1,1.89-.18,6.92,6.92,0,0,0,2.08-1.42,1.47,1.47,0,0,0-.21-.87,4.62,4.62,0,0,0-4.1-1.37,2.69,2.69,0,0,0-.79.84l0,.45a.4.4,0,0,1,.16.11l.32,0a2.07,2.07,0,0,0,1,.21.37.37,0,0,1,.18-.11l.5.26,2,0,.37.11a.58.58,0,0,1,.26.37.3.3,0,0,1-.08.18c-.58.26-1.37-.08-2,.11-.39-.13-.68,0-1-.24l-1.26.11a.86.86,0,0,0-.29.84l.92.6Zm-46.83-.79.71-.11-.5-.92a1.33,1.33,0,0,0-1.21.39.73.73,0,0,0-.11.18.59.59,0,0,0,0,.18l1.08.26Zm33.66-1.68L90.32,28A.54.54,0,0,0,90,28l.47.53Zm11.22-.37.34-.76-1,.13c-.16.24.11.26.16.47l.53.16ZM100,27.2c.89-.6,2.34-.68,3.34-1.24,1,0,1.84.11,2.76,0,0-.39-.6-.47-.89-.68-.6-.39-1.21-.11-1.79-.29s-1.05.21-1.6.18c-.1.21-.13.47-.45.58-.16-.11-.39.11-.6.18a.25.25,0,0,1-.08.18l-1.16.29c-.05,0-.13.16-.26.16l-1.5.05c-.08,0-.08-.18-.21,0l2.44.58Zm6.89,0c.05,0,.16,0,.21-.13s-.34-.05-.53-.08c0,.13.11.11.18.21Zm-35.77-.32h.18c.16,0,.29-.16.37-.34,0-1.89-.47-3.71-.47-5.68a2.65,2.65,0,0,0-1.76-1.16,4.92,4.92,0,0,0-.87.26c-.26.37-.45.84-.71,1.24a11.45,11.45,0,0,1-.45,1.63c-.13,1-.5,2.08,0,2.94a3.36,3.36,0,0,1,2.47.34c.5.16.76.68,1.24.76Zm24.7-.71a.73.73,0,0,0,.71-.42L96.24,25l-1.13.24-.18.47a.38.38,0,0,0,.11.26l.79.24Zm11.59-.1c.71-.18,1.52-.29,2.29-.55,2,0,4-.87,5.81-1.24a7.3,7.3,0,0,0,1.21-.37c5.65-1.31,11.3-3.55,17-4.2a6.89,6.89,0,0,0-3.36,0c-8.09,1.58-16.11,3.07-24.2,5.23l1.29,1.16Zm-41.13-1,.29-.16c0-.11.08-.11.13-.26a10.79,10.79,0,0,0,.05-1.31c-.05-1.45.95-2.44,1.16-3.65l-1.18-.24-1.34.79a7.52,7.52,0,0,0-.89,4.18l1.42.6.32.08.05,0Zm-3-1.13.34-.26,1-3.81-.68-.34-.71.29c-.21.29-.24.71-.5.95-.18.89-.84,2-.29,2.73l.84.45ZM61.5,22.39a.4.4,0,0,0,.26-.1.59.59,0,0,0,.11-.53l.63-1.5-.05-.32a.7.7,0,0,0-.71-.05,2.19,2.19,0,0,0-.76,2,.71.71,0,0,0,.53.45Zm-29.75-1c.45,0,.81,0,1.26,0,.6-.13,1.16,0,1.68-.13,1.24,0,2.39-.16,3.52-.16,5.52-.6,11-1,16.4-2.34-1.18-.76-2.71-.29-4.1-.16-5.28.89-10.62,1.81-15.9,2.42a21.1,21.1,0,0,0-2.92.26c-.08.08,0,.16.05.08ZM52.06,1.79,52,1.19c-.05-.26.24-.26.24-.5L50.38.74c.32.55,1.08.68,1.68,1.05Z"/></g></g></svg>