<svg xmlns="http://www.w3.org/2000/svg" viewBox="0 0 92.02 31.48"><defs><style>.cls-1{fill:#231f20;fill-rule:evenodd;}</style></defs><title>BE60</title><g id="Layer_2" data-name="Layer 2"><g id="Layer_1-2" data-name="Layer 1"><path class="cls-1" d="M21.5,31.48a.37.37,0,0,0,.31-.12,2.57,2.57,0,0,0,.29-1.77,12.85,12.85,0,0,1,.15-2l5.24-.1c2.1.09,4.18-.44,6.21.68a5.45,5.45,0,0,0,2.1.09c.71-.14,1.34,0,2-.09.06,0,.1-.12.06-.21-.11-.25-.4-.45-.47-.7a.11.11,0,0,1,0-.07l1.47-.14.17.09c.22,0,.42-.14.67,0s.71,0,1-.09A6.71,6.71,0,0,0,41.7,27c1.07,0,2.09-.15,3.16-.17.4-.14.78,0,1.18-.19a10,10,0,0,1,3.44-.14,3.59,3.59,0,0,1,.9,0,56.94,56.94,0,0,0,9.76-1.32.6.6,0,0,0,.2-.15h.12a1.06,1.06,0,0,1,.35-.14c.19,0,.36,0,.51,0s0-.07.07-.09,0,0,.07.06l.22-.06h.06l.3-.07s0,0,.09-.07c.81,0,1.66-.31,2.47-.39s1.83-.6,2.75-.73c.7-.19,1.37-.35,2-.5.21-.12.44-.09.61-.21.78-.15,1.57-.36,2.34-.51.27-.11.56-.12.81-.25,1.33-.26,2.64-.71,3.95-.85.19-.06.37,0,.54-.09a7.67,7.67,0,0,0,2-.45c0-.1.12-.27,0-.4l-6.21-.62c.34-.32.93-.3,1.38-.54a23.22,23.22,0,0,0,5-2.7c.06-.09.14-.1.15-.15a.56.56,0,0,1,0-.14c.75-.3,1.54-.59,2.3-.9.41,0,.8-.27,1.12-.32a8.31,8.31,0,0,1,2-.83c2.2-.77,4.31-1.69,6.32-2.6l.25-.14a.21.21,0,0,0,0-.17c-1.27-1.13-3.2-.75-4.78-.61l-.36.19-5,1C83,7.87,84.61,4.22,85.82.44a.33.33,0,0,0-.29-.22c-.5,0-1,0-1.42,0-1.85-.12-4-.45-5.56.59,0,.09-.11.17-.2.15L77.82.77s-.06,0-.11.09L77.48.8s0,0,0,0,0,0,0,.11h-.09c.27,0,.66,0,.88.2,0,0,0,.07,0,.09-.62.7-1.29,1.38-1.93,2.09-2.17,2.27-4.43,4.69-6.62,7a.21.21,0,0,1-.09,0l-.26,0-.17,0-.07,0-1.17.06L38.52,11.58s0,0-.09-.11a16.61,16.61,0,0,0,.88-2.9.76.76,0,0,0-.3-.3l-1.64.14c-.14.21-.27.47-.42.71s-.36.54-.56.8a5.16,5.16,0,0,1-1.13,1.38,22.15,22.15,0,0,0-4.16.11,3.34,3.34,0,0,0-1,.45,8,8,0,0,1-1.15.68,10.94,10.94,0,0,0-2.05,1.33s0,.07-.07.11l-.17.09s0,.06-.09.1a8.41,8.41,0,0,0-1.38.93s0,0-.06,0a1.65,1.65,0,0,0-.4-1.52h-.3l-.12.22c-.37.17-.56.62-.86.92-.52.52-.47,1.54-1.34,1.66a9.28,9.28,0,0,0-3.2,1c-.39-.17-.75-.62-1.28-.5a.33.33,0,0,0-.1,0l-.21.75c-.25.22-.67.06-1,.16a.36.36,0,0,1-.2-.06c-2,.21-4,.31-5.91.62a2,2,0,0,0-1.2.36c-.3.32-.19.81-.14,1.17,0,.09,0,.12,0,.17l-1.92.8c-1.1-.4-2.44.09-3.63.21a.13.13,0,0,1-.06,0,.12.12,0,0,1,0,.07c.16.4.65.51.91.81-.4.45-1.22.57-1.71,1-.63.29-1.08.63-1.67.91A1.91,1.91,0,0,0,0,25.41a1.81,1.81,0,0,0,1.49,1.06c.47,0,.92.14,1.36.14A24.86,24.86,0,0,0,7.21,27c1.59,0,3.11.22,4.71.31.67.1,1.26,0,1.92.09a10.23,10.23,0,0,1,1.38,0s.06,0,.12-.06a4.7,4.7,0,0,1,1.76.1c.52,0,1,0,1.49,0l.1,0,1.52,0c.07-.1.14,0,.25,0s.1,0,.11,0h.25l.12.12c0,.59-.07,1.15,0,1.73a3.62,3.62,0,0,0,.31,2c.1,0,.14.12.22.16Zm15.6-3.82a12.23,12.23,0,0,0-1.47-2c-.59,0-1.21,0-1.82-.09s-1,0-1.44.07c-.16.06,0,.11.06.15a20.52,20.52,0,0,0,4.67,1.85Zm-17.27-.45,0,0h.3s0,0,.12-.06l.46,0,.21-.11.1-1.12,0-.66A.28.28,0,0,0,21,25.2l-.14-1.12a.25.25,0,0,1-.21,0h-.2l-.21.15-.62-.09c0-.06-.17,0-.26-.1l-.37.1V24s-.06,0-.09,0v.12c-.11.06-.14,0-.17-.11l-.2.07c-.06,0-.07,0-.07-.14s-.07.09-.15.12-.46,0-.65.16c-.3,0-.51.06-.76,0a6.9,6.9,0,0,1-1.42.06,15.57,15.57,0,0,1-1.77.21c-4.13.31-8.22.72-12.32,1.07a2,2,0,0,1-.42.07c-.11,0,0,.15.09.22,4.48.82,9,.72,13.54,1.16L14.8,27s.07,0,.11,0,0,0,.09,0l.67,0A9,9,0,0,1,17,27a19,19,0,0,0,2,.09,1.19,1.19,0,0,1,.77.15l.07,0Zm2.76-.09c2.13-.09,4.26,0,6.41,0,.34-.09.65,0,1-.1l-2.64-1.2a9.56,9.56,0,0,1-2.43-.2,4.77,4.77,0,0,1-2.3-1l-.45-.06A10.19,10.19,0,0,1,22.33,27l.26.16Zm14.84-.39a60,60,0,0,0,6.15-.45c-1.71-.1-3.2-1.21-4.89-.76-.83,0-1.64.17-2.44.09,0,.35.47.62.67,1,.14.14.34.1.51.15Zm8.45-.81c1,0,2,0,3,0s2,0,3,0c2-.14,3.91-.51,5.9-.82s4-.93,5.94-1.28c.21-.07.37-.09.51-.14.62,0,1.13-.34,1.73-.4C66.5,23,67,23,67.58,22.82a11.77,11.77,0,0,0,1.15-.27,6.3,6.3,0,0,1,1-.3c.61-.16,1.24-.22,1.82-.44s1.37-.37,2-.5a32.78,32.78,0,0,1,3.61-.76c-1-.21-2-.16-3-.34h-.88c-.09,0,0,.16-.11.21-1,0-2.22.36-3.32.49a.65.65,0,0,0-.4.1l-.1.3-5,.68c-4.44.61-8.84,1.32-13.26,1.89-2.91.5-5.84.93-8.74,1.57a15.88,15.88,0,0,0,3.42.49ZM26.1,25.15c2-.46,4.11-.06,6.17-.11,1.83-.17,3.66,0,5.44-.2a7.81,7.81,0,0,0,1.72-.15A2.63,2.63,0,0,1,39.35,23s0,0,0-.06a13.79,13.79,0,0,0-1.59.06c-.46,0-.85-.07-1.31,0-1.68,0-3.24.09-4.92.17-.88,0-1.62,0-2.5.06a2.9,2.9,0,0,0-.45,0c-.22-.09-.44-.24-.71-.07-.26-.06-.45.07-.66.07,0-.07,0,0,0,0H27l-.09-.07-3.82,1a.18.18,0,0,0,0,.07,4.77,4.77,0,0,0,2.37.88,6,6,0,0,1,.71.06ZM.67,25c3.51-.4,7.07-.47,10.59-1.22,2.45-.22,4.85-.41,7.29-.65l-.71-.42a8,8,0,0,1-1.88.14c-.09,0,0-.06-.07-.11s0,.1-.06.11c-.21.07-.47.11-.71.17-2.45.35-4.85.56-7.29.85-1.85.16-3.65.42-5.48.66-.57,0-1.28-.12-1.72.3a.61.61,0,0,0,0,.14c0,.06,0,0,0,0ZM2,24a23.25,23.25,0,0,0,2.39-.3c2-.2,3.92-.5,5.91-.62,2.23-.26,4.41-.62,6.6-.9-.14-.17-.44-.3-.5-.57a.24.24,0,0,1,0-.15s.06,0,.1-.09c.24-.47.78-.67,1.23-.92a2.44,2.44,0,0,0,.93-.46,13,13,0,0,1-1.28-1.76,2.67,2.67,0,0,0-1,.09,4.67,4.67,0,0,0-1.37.25,10.23,10.23,0,0,1-2,.59s0,0-.12.07-.06,0-.12,0,0,.07,0,.1a33.7,33.7,0,0,0-3.17,1.18,9.14,9.14,0,0,0-1.81.66c-.72.4-1.61.63-2.33,1l0,.29a.53.53,0,0,1-.47-.06,18.47,18.47,0,0,0-3,1.56s.06,0,.1,0Zm20.13-.21.36,0a2.67,2.67,0,0,0,.68-2.54,2.11,2.11,0,0,0-.24-.59,1.34,1.34,0,0,1-1.37-.15,1.09,1.09,0,0,1-.2-.25c-.31-.22-.77,0-1.1-.19a15.42,15.42,0,0,0-3.06,1.44.29.29,0,0,0,0,.12,18.79,18.79,0,0,0,3.27,1.81.83.83,0,0,1,.41.17l1.27.2Zm17.76-.5,8-1,2.66-.5a10.23,10.23,0,0,0-1.46-.21c-.82,0-1.66-.12-2.46-.12a24.91,24.91,0,0,0-4,.06,14.17,14.17,0,0,1-1.67.29c-.17,0-.26,0-.44,0s-.21.16-.27.29a3.31,3.31,0,0,0-.42.73.39.39,0,0,0-.09.37Zm-16-.75a6.12,6.12,0,0,1,1-.24c.57.1,1.12-.26,1.68-.07,0,0,0,0,0-.06s.06,0,.09.06l.22-.1c.27.14.5-.09.76,0,3.93-.19,7.82-.42,11.75-.47.66.2,1-.31,1.56-.31.21-.09.36-.09.52-.16a.88.88,0,0,0,.21,0c-.09,0-.25,0-.39,0-.86.22-1.83-.06-2.68.1-1.47.09-2.88.2-4.31.24a31.5,31.5,0,0,1-3.52.2c-.87,0-1.73.14-2.53.07a6.29,6.29,0,0,1-1.74,0c-.07-.1-.07,0-.15,0-.81.27-1.78.21-2.58.55l0,.17a.2.2,0,0,0,0,.11l0,0Zm-19-.88.88-.27a2.89,2.89,0,0,0-1.11.14l.22.14Zm47.82-.14c1.22-.14,2.42-.27,3.65-.46,1.66-.12,3.25-.31,4.85-.52a2.08,2.08,0,0,1,.46,0c.14,0,.22-.06.35,0,.21-.16.49-.09.75-.16s.54-.06.75-.06c1.47-.36,2.9-.07,4.32-.41l.24-.42a16,16,0,0,0-2.83.27,10.74,10.74,0,0,0-1.31.15.41.41,0,0,1-.25,0l-.29.1a.19.19,0,0,1-.14,0s-.09.06-.15,0a.14.14,0,0,0,0-.12l-.34.12c0,.1-.14,0-.21,0l-.25,0c-.06-.1-.09,0-.17,0s-.07,0-.12,0H61.4s-.07,0-.09-.09a.29.29,0,0,0-.09.09c0,.06-.14,0-.21.06s-.06.06-.14,0,0,0-.09-.07c-.27.14-.55.09-.82.22a9.43,9.43,0,0,1-2.18.34c-.83.24-1.63.15-2.39.34s-1.51.16-2.23.26c-.26.11-.5,0-.75.14l.25.17Zm-26.81-.11.49,0,0-.06C28.59,21,31,21,33.23,20.88c2.54-.1,5.1-.49,7.54-.4a6.75,6.75,0,0,1,1.57-.1c1.06-.09,2.1,0,3.12,0,.09,0,.12,0,.16,0l2.18,0c0-.06,0,0,0-.07l-1.62-.8-1.63-.67-.83-.32a13.51,13.51,0,0,1-1.57-.34,29.5,29.5,0,0,0-3.6-.95c-.5-.07-1-.22-1.46-.31a18.66,18.66,0,0,0-2.7-.35c-.34-.14-.63-.1-.95-.21a6.63,6.63,0,0,1-1.93-.14,18.9,18.9,0,0,0-3-.09c-1,.07-2-.06-2.9,0l-.71.21-.12,0L24,18.6a1.36,1.36,0,0,1,1.23.68,3.14,3.14,0,0,1,.35,2v.06l.25.06Zm24.39-.82.39-.27c.36.16.71-.1,1.08,0,2.4-.41,4.81-.44,7.15-.85.51-.07,1-.14,1.48-.16l.54,0s0,0,.09-.07l.21,0,.85,0A.83.83,0,0,1,62.6,19a.67.67,0,0,1,.47,0l.06,0s.07,0,.14,0a.89.89,0,0,1,.6-.15c2.12-.4,4.21-.45,6.32-.78,2-.09,4-.4,6-.68a.57.57,0,0,0,.09-.09l.2-.1h.07s0,.11,0,.16l.25,0c.51.09.88-.35,1.33-.5l.2-.12-1.62.19-.12.16-.06,0-.31.14c-.07,0,0-.09-.06-.14a7.71,7.71,0,0,0-1.31.06c-.35.09-.61,0-.9.09-2.35.27-4.64.34-7,.52-.93.06-1.85.32-2.76.36-.11.14-.34,0-.51.17a2.05,2.05,0,0,0-.62,0c0,.09-.16,0-.25.09s-.07,0-.09-.11-.09,0-.14,0l-.15.11s-.06,0-.06,0,0,.09-.1.1-.06,0-.11,0-.06,0-.1,0l-.22-.17a.38.38,0,0,0,0,.09c0,.15-.15,0-.25,0a.11.11,0,0,1-.06.11s0,0-.07,0l-.37.14c-.06,0-.09,0-.17,0s-.09,0-.11,0-.16,0-.26.09l-.25,0c-.31.14-.67,0-1,.19-1,.11-2,.17-3.05.3a5.58,5.58,0,0,0-1.29.17c-2.1,0-4.17.42-6.25.54l1.52.8,0,0Zm18.36-.1c.8,0,1.61-.25,2.43-.26a5.47,5.47,0,0,0,1.67-.41.28.28,0,0,0,.07-.17c-1.12-.52-2.48-.3-3.73-.27a1.23,1.23,0,0,0-.72.71l.07.32a.89.89,0,0,0,.21.09Zm-58.46-.85,3.3-1.12c-.86.1-2,.11-2.86.27-.31.09-.65,0-.85.22l.37.62Zm11.17-.16,1-2.68a1,1,0,0,0-.52,0,6,6,0,0,0-1.68.47c-.2.1-.36.24-.55.35h-.17a19.14,19.14,0,0,0,1.23,1.56.24.24,0,0,0,.11.07c.16,0,.25.11.39.17s.14.06.19,0Zm25.61-.34A35.12,35.12,0,0,0,52,18.78c2.33-.31,4.67-.4,7-.68A3.42,3.42,0,0,1,60.05,18l.76,0c0,.11.11,0,.15,0,.22,0,.44-.21.67-.07l.51-.15s0,0,.11,0l.65-.1,0-.07a52.11,52.11,0,0,1,8.69-.93c.31,0,.56,0,.87-.09a10.69,10.69,0,0,1-1.68-.41,6.29,6.29,0,0,1-1.77-.66,1,1,0,0,1-.49-1.06c0-.11,0-.12.11-.19l8.18-1.67.37-.06.4-.62.07-.06c.81-1,1.38-2.18,2.19-3.3a11.82,11.82,0,0,1,.81-1.47c1-1.9,2.53-3.61,3.06-5.65a10,10,0,0,0-4.73,0,1.84,1.84,0,0,0-.54.45l.5.09a.22.22,0,0,1,.15.17v.12c-.19.22-.45.5-.65.73-.46.45-.87.85-1.31,1.31A13.31,13.31,0,0,0,76,5.5c-1.15,1-2,2.32-3.26,3.11a7,7,0,0,0-1,0L70.1,10.38l-.4.27-21,.81c-.85,0-1.68.07-2.51,0-2.76.25-5.53,0-8.19.51a.36.36,0,0,1-.21-.35,21.49,21.49,0,0,0,1.1-3H37.67l-1.79,2.7a.35.35,0,0,1-.09.26c-2.78,0-5.64.15-7.67,2.08-.51.29-.95.76-1.47,1a3.32,3.32,0,0,0-.76.68,1.86,1.86,0,0,0,1-.06c1.27-1.15,2.5-1.83,3.78-2.85a.81.81,0,0,1,.62-.09,13.51,13.51,0,0,1,1.88,0c.49.07.92.09,1.38.14a.64.64,0,0,1,.26.35.3.3,0,0,1-.22.25h-.15l-.8,2.42a5.87,5.87,0,0,0,1.68.26l0-1.51.12-.62.22-.46a.18.18,0,0,1,.16-.16,2.33,2.33,0,0,1,2.24.59,4.54,4.54,0,0,1,1.1,1.79c.06.36.29.8.09,1.08a.19.19,0,0,0,0,.07l4.41,1.22a12.26,12.26,0,0,1,1.24.42,16.86,16.86,0,0,1,2,.8ZM73,19l1.63-.51-1.85.29c0,.09.12.15.19.22ZM44.22,17,46,16.86l.24-.16A2.84,2.84,0,0,0,46,15a2.17,2.17,0,0,0-.35-.62,4.06,4.06,0,0,0-1.27-.17,1.23,1.23,0,0,0-1.06.35,1.81,1.81,0,0,0-.09,1.08c0,.14.07.22.09.36l.44.76.5.26Zm5.65-.09,1.92-.09a.34.34,0,0,0,.17-.17,4.08,4.08,0,0,0-.56-2.12.82.82,0,0,0-.66-.46c-.59.2-1.22,0-1.72.32a1.46,1.46,0,0,0-.16.35c.3.7.3,1.49.62,2.08a2.58,2.58,0,0,1,.39.09Zm5.14,0,2.24-.14a4.49,4.49,0,0,0-.17-2.43c-.82-.31-1.87,0-2.76,0a.25.25,0,0,0-.17.17l.5,2.17c0,.14.17.17.32.24Zm19.63-.67a8,8,0,0,0,2-.17,6.69,6.69,0,0,0,1.92-.19,42,42,0,0,0,4.21-1.28c.82-.46,1.88-.52,2.71-1a41,41,0,0,0,5.12-2.12c-1-.32-2.25.14-3.35.39-.62.21-1.27.27-1.85.45-2.8.41-5.56,1-8.33,1.64a8.28,8.28,0,0,1-1.18.24c-1.87.31-3.64.7-5.44,1.06a.28.28,0,0,0-.12.16,12.7,12.7,0,0,0,4.36.8ZM69.08,10,69,9.82l0,.25,0,0ZM76.8.3c0-.15-.19-.19-.31-.3a1.18,1.18,0,0,0,.31.3Z"/></g></g></svg>