<svg xmlns="http://www.w3.org/2000/svg" viewBox="0 0 140.42 116.33"><defs><style>.cls-1,.cls-4,.cls-5{fill:none;}.cls-1,.cls-2{stroke:#000;}.cls-1,.cls-2,.cls-5{stroke-width:0.56px;}.cls-2{fill:#fff;}.cls-3,.cls-6{fill:#231f20;}.cls-4,.cls-5,.cls-6{stroke:#231f20;}.cls-4,.cls-6{stroke-width:0.28px;}</style></defs><title>BE65</title><g id="Layer_2" data-name="Layer 2"><g id="Layer_1-2" data-name="Layer 1"><path class="cls-1" d="M130.37,116.05,79.59,84a76.79,76.79,0,0,1-10.44,1.41c-3.4,0-4.92-.23-5.51-.59a11.46,11.46,0,0,0-1.52-.7s.12.82-1.41-.12-1.41-2-1.29-2.34l.12-.35a12,12,0,0,1-1.76-1.76c-.35-.59.35-2.23.35-2.23A6.9,6.9,0,0,1,58,74.42c.23-2,2.46-2.7,2.46-2.7l-2.81-2s-6.1.94-16.77-.94-12.31-3.75-13-5.28-1.41-3.28.59-5.51,6.45-4.57,6.45-4.57L33.26,51.9s-5.51-.94-6.1-1.17-1.64-.82-1.64-.82a3.77,3.77,0,0,1-3-.59A1.46,1.46,0,0,1,22,46.86l-.47-.35a14.5,14.5,0,0,1-1.76-.94c-.7-.47-.7-.59-.59-1.17A4,4,0,0,1,20.13,43s-1.52-2.7,0-3.75a12.49,12.49,0,0,1,4.93-1.64c.59,0,2.7-.12,2.7-.12l-.23-1.88L.31,2.29S0,.06,1.83.3s6,.94,6,.94L49.8,45A4.84,4.84,0,0,1,53,42.63c2-.23,23.1-.12,26.15.12s8.33,1.41,11.49,1.52A33.23,33.23,0,0,0,102.1,42.4c3.28-1.29,14-11.26,14-11.26l4.34-4.22,5.39-.12L109.14,48l-.82.35s.47,1.17.12,1.76-.82,1.29-.82,1.29a58,58,0,0,1-6.22,4.92C98.94,57.88,83.34,65.27,81,66s-8.8,1.88-8.8,1.88l1.64,2.58a20.7,20.7,0,0,1,5,2.11c1.64,1.17,7.62,5.28,7.62,5.28l53.25,37.53a28.82,28.82,0,0,1-5.16.71Z"/><path class="cls-2" d="M101.4,54.13c-.59-.23-.59-2.23,1.05-2.23h6.45L130,66s-2.7.35-4.22.47a9.42,9.42,0,0,1-3-.35Z"/><path class="cls-2" d="M90.61,44.28,77.71,28.56A32.12,32.12,0,0,1,82,28.33a6.63,6.63,0,0,1,2.46.82L99.06,43.34a27.38,27.38,0,0,1-4.46.59C92.14,44,90.61,44.28,90.61,44.28Z"/><path class="cls-3" d="M20.83,41.93s-1.06-1.52,0-2.11,2-.12,3.64.82A5.68,5.68,0,0,1,27,43c.47.82,1.52,1.52,1.41,2.7s-.59,1.52-1.29,1.52a11.09,11.09,0,0,1-2.35-.35c-.35-.12-.12-.59-.12-.59s.47,1.17.7-.23.59-2.93-.47-3.52a10.49,10.49,0,0,0-1.41-.7c-.35,0-.59-.23-1.17-.12S20.83,41.93,20.83,41.93Z"/><path class="cls-3" d="M59.77,76.53,58.83,75s.23-1.29,2-1.06a7.9,7.9,0,0,1,4.34,2.46c.82.94,2.11,2.35,2.11,3.64s.12,2.23-.7,2a14.08,14.08,0,0,1-2.46-1.29,4.56,4.56,0,0,0-.24-1.87c-.35-1.17,0-1.41-.94-1.88A10,10,0,0,0,59.77,76.53Z"/><path class="cls-4" d="M22,46.86s1.41.12,2.11.12,2-1.88,1.64-3a3.12,3.12,0,0,0-1.88-2.11,3,3,0,0,0-1.76,0,18.09,18.09,0,0,0-2,1.17"/><path class="cls-4" d="M59.53,81.34h1.88c1.52,0,2.7.12,2.7-.59a3.69,3.69,0,0,0-.47-2.81,3.1,3.1,0,0,0-2.58-1.53,12.41,12.41,0,0,0-2.93.94"/><path class="cls-5" d="M49.8,45a27.8,27.8,0,0,1-3.52,2.23C45,47.8,39,50.73,37.6,51.55s-3.28,1.76-4.1,2.35"/><path class="cls-3" d="M58.59,58.23A5.11,5.11,0,0,0,57,55.89c-1.29-1.05-4.69-4.22-4.69-4.22l5.51-4.1,4.93,4.57,1.41.94Z"/><polygon class="cls-3" points="51.44 50.73 46.75 47.33 52.26 43.46 57.07 46.86 51.44 50.73"/><polygon class="cls-3" points="62.82 58.7 59.88 58.47 64.11 54.6 62.82 58.7"/><polygon class="cls-3" points="63.99 58.82 65.51 54.13 68.68 54.01 67.62 59.05 63.99 58.82"/><polygon class="cls-3" points="71.14 58.7 72.32 53.78 75.25 53.78 74.19 58.47 71.14 58.7"/><polygon class="cls-3" points="75.13 58.58 76.19 53.89 79 53.66 77.71 58.7 75.13 58.58"/><polygon class="cls-3" points="79.94 53.54 82.64 53.54 81.35 58.35 78.3 58.47 79.94 53.54"/><path class="cls-6" d="M27.4,59.52A3,3,0,0,0,29,62.22c1.76.94,6,2,15.36,2.35a152.78,152.78,0,0,0,27.68-1.64A106.08,106.08,0,0,0,94.6,57.76c4.46-1.64,8.21-2.81,8.21-2.81l-2-1.17s.94-1.88,1.64-1.88,5.16-.47,5.16-.47l.82-1.64-.12-1.41.82-.35,6.8-8.68-11.49,8.33A4.84,4.84,0,0,0,104,49.2a4.33,4.33,0,0,1-1.06,2,4.24,4.24,0,0,0-1.52.59,14.3,14.3,0,0,0-1.17,1.88l.35.7s-3.4,1.64-9.15,3.75S74.78,62,72.08,62.46A198.22,198.22,0,0,1,46,64.1c-9.15-.24-14-.82-16.19-2.11S28,59.52,28,59.52Z"/><path class="cls-5" d="M28.92,57.65a2.51,2.51,0,0,0-.23,2.11c.47.94,1.64,1.53,4,1.88A90.54,90.54,0,0,0,51.21,63a177.12,177.12,0,0,0,27.68-3.17,79.28,79.28,0,0,0,18.77-6.33c2.35-1.17,3.87-3.4,4-4.22a13.93,13.93,0,0,1,.35-1.64s5.16-4,10.2-7.62,8.33-6.33,8.33-6.33"/><path class="cls-5" d="M27.75,37.47l4.57.23a22.39,22.39,0,0,1,6.45,1.88,37.58,37.58,0,0,1,5.75,2.81,29.5,29.5,0,0,1,3.64,2.93"/><path class="cls-5" d="M60.47,71.72s6.22-.94,9.26-1.06,2.35-.82,4.11-.23a33.56,33.56,0,0,1,6,2.81,72.35,72.35,0,0,1,7,5A55.28,55.28,0,0,0,79.7,80c-1.52.7-2.11.47-2.11,1.29s-.47.82.35,1.52A11.83,11.83,0,0,0,79.59,84"/><path class="cls-3" d="M22.35,48.26c-.23-.35-.24-.94.35-.47S22.59,48.62,22.35,48.26Z"/><path class="cls-3" d="M61.06,83.45a3.55,3.55,0,0,1-1.17-1.06s.35-.59.7-.35a8.57,8.57,0,0,1,1.06,1.06Z"/><path class="cls-5" d="M27.28,49.32a10.56,10.56,0,0,0,4.22.94,39.54,39.54,0,0,0,5-.12s.82-1.76,1.76-1.88S43.46,48,43.46,48"/><path class="cls-5" d="M28.57,48.15a9,9,0,0,0,2.7.35c2.23.12,6.22,0,6.22,0"/><path class="cls-5" d="M66.45,84.74s4.11-.24,7.74-.59l3.63-.35.12-.94-.47-.59-7.39.82a8.74,8.74,0,0,1-2.93,0"/></g></g></svg>