<svg xmlns="http://www.w3.org/2000/svg" viewBox="0 0 274.6 130.62"><defs><style>.cls-1{fill:#d9d9d9;}.cls-2{fill:#d3d3d3;}.cls-3{fill:#cdcdcd;}.cls-4{fill:#c6c6c6;}.cls-5{fill:silver;}.cls-6{fill:#bababa;}.cls-7{fill:#b4b4b4;}.cls-8{fill:#aeaeae;}.cls-9{fill:#a8a8a8;}.cls-10{fill:#a2a2a2;}.cls-11{fill:#9c9c9c;}.cls-12{fill:#dadada;}.cls-13{fill:#dcdcdc;}.cls-14{fill:#ddd;}.cls-15{fill:#dfdfdf;}.cls-16{fill:#e0e0e0;}.cls-17{fill:#e2e2e2;}.cls-18{fill:#e3e3e3;}.cls-19{fill:#e5e5e5;}.cls-20{fill:#e6e6e6;}.cls-21{fill:#e7e7e7;}.cls-22{fill:#e9e9e9;}.cls-23{fill:#eaeaea;}.cls-24{fill:#ececec;}.cls-25{fill:#ededed;}.cls-26{fill:#efefef;}.cls-27{fill:#f0f0f0;}.cls-28{fill:#f2f2f2;}.cls-29{fill:#f3f3f3;}.cls-30{fill:#f5f5f5;}.cls-31{fill:#f6f6f6;}.cls-32{fill:#f8f8f8;}.cls-33{fill:#f9f9f9;}.cls-34{fill:#fbfbfb;}.cls-35{fill:#fcfcfc;}.cls-36{fill:#fefefe;}.cls-37,.cls-38{fill:#fff;}.cls-38{stroke:#231f20;}.cls-39{fill:#231f20;}.cls-40{fill:#050505;}.cls-41{fill:#0a0a0a;}.cls-42{fill:#0f0f0f;}.cls-43{fill:#141414;}.cls-44{fill:#191919;}.cls-45{fill:#1d1d1d;}.cls-46{fill:#222;}.cls-47{fill:#272727;}.cls-48{fill:#2c2c2c;}.cls-49{fill:#313131;}.cls-50{fill:#363636;}.cls-51{fill:#3b3b3b;}.cls-52{fill:#404040;}.cls-53{fill:#454545;}.cls-54{fill:#4a4a4a;}.cls-55{fill:#4e4e4e;}.cls-56{fill:#535353;}.cls-57{fill:#585858;}.cls-58{fill:#5d5d5d;}.cls-59{fill:#626262;}.cls-60{fill:#676767;}.cls-61{fill:#6c6c6c;}.cls-62{fill:#717171;}.cls-63{fill:none;}.cls-64{fill:#bfbfbf;}.cls-65{fill:#515151;}</style></defs><title>BE76</title><g id="Layer_2" data-name="Layer 2"><g id="Layer_1-2" data-name="Layer 1"><path class="cls-1" d="M209.41,13.53,183,3.93c-2.55-.9-.9-5.1,21.45-3.45l27,9.9Z"/><path class="cls-1" d="M182.54,2.21,213.31,13l.35,0-31-10.8Z"/><path class="cls-2" d="M182.45,2.29,213,13l.35,0L182.54,2.21Z"/><path class="cls-3" d="M182.37,2.38l30.25,10.69.34,0L182.45,2.29Z"/><path class="cls-4" d="M182.3,2.47l30,10.65.34,0L182.37,2.38Z"/><path class="cls-5" d="M182.24,2.57l29.69,10.6.34,0-30-10.65Z"/><path class="cls-6" d="M182.19,2.66l29.4,10.55.34,0L182.24,2.57Z"/><path class="cls-7" d="M182.15,2.77l29.1,10.5.34,0L182.19,2.66Z"/><path class="cls-8" d="M182.12,2.87l28.78,10.44.34,0-29.1-10.5A.81.81,0,0,0,182.12,2.87Z"/><path class="cls-9" d="M182.12,3l28.45,10.38.34,0L182.12,2.87A.71.71,0,0,0,182.12,3Z"/><path class="cls-10" d="M182.13,3.11l28.1,10.3.34,0L182.12,3A.71.71,0,0,0,182.13,3.11Z"/><path class="cls-11" d="M183,3.93l26.4,9.6.81-.12-28.1-10.3A1.22,1.22,0,0,0,183,3.93Z"/><path class="cls-1" d="M185.26,2.28l29.32,10.51h.07L185.46,2.27c-.8-.4.29-.7,2.3-.9S193,1.05,196,1a76.12,76.12,0,0,1,7.91.29L229.2,10.7l.28,0L204,1.23C200.56.78,182.56.93,185.26,2.28Z"/><path class="cls-12" d="M196,1c-2.93,0-6.17.12-8.21.34s-3.1.5-2.3.9l29.2,10.51h.07L185.66,2.27c-.77-.39.26-.68,2.19-.87s5.25-.33,8.1-.34a72.17,72.17,0,0,1,7.8.35l25.18,9.33.28,0L203.88,1.32A76.12,76.12,0,0,0,196,1Z"/><path class="cls-13" d="M195.94,1.06c-2.85,0-6.17.12-8.1.34s-3,.48-2.19.87l29.07,10.5h.07l-29-10.5c-.74-.37.23-.66,2.08-.84a79.41,79.41,0,0,1,8-.34,68.72,68.72,0,0,1,7.69.42l25,9.28.28,0L203.75,1.41A72.17,72.17,0,0,0,195.94,1.06Z"/><path class="cls-14" d="M195.92,1.08a79.41,79.41,0,0,0-8,.34c-1.85.18-2.82.47-2.08.84l29,10.5h.07L186,2.26c-.71-.35.2-.64,2-.81a72.94,72.94,0,0,1,7.88-.34,65.77,65.77,0,0,1,7.58.48l24.89,9.23.28,0-25-9.28A68.72,68.72,0,0,0,195.92,1.08Z"/><path class="cls-15" d="M195.9,1.11a72.94,72.94,0,0,0-7.88.34c-1.77.17-2.68.46-2,.81l28.83,10.49h.07L186.24,2.25c-.68-.34.17-.62,1.86-.78a67.35,67.35,0,0,1,7.77-.34,63,63,0,0,1,7.47.55l24.74,9.18.28,0L203.48,1.59A65.77,65.77,0,0,0,195.9,1.11Z"/><path class="cls-16" d="M195.88,1.13a67.35,67.35,0,0,0-7.77.34c-1.69.17-2.54.44-1.86.78l28.7,10.49H215L186.44,2.25c-.64-.32.14-.59,1.75-.75a62.22,62.22,0,0,1,7.66-.34,60.84,60.84,0,0,1,7.36.62l24.6,9.13.28,0L203.35,1.68A63,63,0,0,0,195.88,1.13Z"/><path class="cls-17" d="M195.86,1.16a62.22,62.22,0,0,0-7.66.34c-1.61.16-2.4.43-1.75.75L215,12.73h.07L186.64,2.24c-.61-.31.12-.57,1.64-.72a57.61,57.61,0,0,1,7.55-.33,59,59,0,0,1,7.25.68l24.45,9.08.28,0-24.6-9.13A60.84,60.84,0,0,0,195.86,1.16Z"/><path class="cls-18" d="M195.83,1.18a57.61,57.61,0,0,0-7.55.33c-1.53.15-2.26.42-1.64.72l28.45,10.48h.07L186.83,2.23c-.58-.29.09-.55,1.54-.69a53.47,53.47,0,0,1,7.45-.33,57.27,57.27,0,0,1,7.14.75l24.31,9,.28,0L203.08,1.86A59,59,0,0,0,195.83,1.18Z"/><path class="cls-19" d="M195.81,1.21a53.47,53.47,0,0,0-7.45.33c-1.45.14-2.11.4-1.54.69l28.32,10.48h.07L187,2.23c-.55-.27.06-.53,1.43-.67a49.64,49.64,0,0,1,7.34-.33,55.9,55.9,0,0,1,7,.81L227,11l.28,0L202.95,2A57.27,57.27,0,0,0,195.81,1.21Z"/><path class="cls-20" d="M195.79,1.23a49.64,49.64,0,0,0-7.34.33c-1.37.13-2,.39-1.43.67L215.22,12.7h.07L187.22,2.22c-.52-.26,0-.51,1.32-.64a46.12,46.12,0,0,1,7.23-.33,54.85,54.85,0,0,1,6.91.88l24,8.93.28,0L202.81,2A55.9,55.9,0,0,0,195.79,1.23Z"/><path class="cls-21" d="M195.77,1.26a46.12,46.12,0,0,0-7.23.33c-1.29.13-1.83.38-1.32.64l28.06,10.47h.07L187.42,2.22c-.48-.24,0-.49,1.21-.61a42.92,42.92,0,0,1,7.12-.33,54.12,54.12,0,0,1,6.8.94l23.87,8.88.28,0-24-8.93A54.85,54.85,0,0,0,195.77,1.26Z"/><path class="cls-22" d="M195.75,1.28a42.92,42.92,0,0,0-7.12.33c-1.21.12-1.69.37-1.21.61l27.93,10.46h.07L187.61,2.21c-.45-.23,0-.47,1.1-.58a40,40,0,0,1,7-.33,53.65,53.65,0,0,1,6.69,1l23.72,8.83.28,0L202.55,2.22A54.12,54.12,0,0,0,195.75,1.28Z"/><path class="cls-23" d="M195.72,1.31a40,40,0,0,0-7,.33c-1.13.11-1.55.35-1.1.58l27.8,10.46h.06L187.81,2.21c-.42-.21-.05-.45,1-.55.68-.3,4.89-.38,6.9-.33a53.44,53.44,0,0,1,6.58,1.07l23.58,8.78.28,0L202.42,2.31A53.65,53.65,0,0,0,195.72,1.31Z"/><path class="cls-24" d="M195.7,1.33c-2-.05-6.22,0-6.9.33-1,.1-1.41.34-1,.55l27.67,10.46h.06L188,2.2c-.39-.19-.08-.42.88-.52.57-.31,4.86-.38,6.79-.32a53.61,53.61,0,0,1,6.47,1.14l23.43,8.73.28,0L202.28,2.4A53.44,53.44,0,0,0,195.7,1.33Z"/><path class="cls-25" d="M195.68,1.36c-1.93-.06-6.22,0-6.79.32-1,.1-1.27.33-.88.52l27.53,10.45h.06L188.2,2.19c-.35-.18-.11-.4.77-.49.46-.32,4.83-.39,6.68-.32A54.44,54.44,0,0,1,202,2.58l23.29,8.68.28,0L202.15,2.49A53.61,53.61,0,0,0,195.68,1.36Z"/><path class="cls-26" d="M195.66,1.38c-1.85-.07-6.22,0-6.68.32-.88.09-1.13.31-.77.49l27.4,10.45h.06L188.4,2.19c-.32-.16-.14-.38.66-.46.34-.32,4.8-.39,6.57-.32a55.48,55.48,0,0,1,6.25,1.27L225,11.3l.28,0L202,2.58A54.44,54.44,0,0,0,195.66,1.38Z"/><path class="cls-27" d="M195.64,1.41c-1.78-.07-6.23,0-6.57.32-.8.08-1,.3-.66.46l27.27,10.45h.06L188.59,2.18c-.29-.14-.17-.36.56-.43.23-.33,4.76-.4,6.46-.32a57.33,57.33,0,0,1,6.14,1.33l23,8.58.28,0L201.88,2.68A55.48,55.48,0,0,0,195.64,1.41Z"/><path class="cls-28" d="M195.61,1.43c-1.7-.08-6.23,0-6.46.32-.72.07-.85.29-.56.43l27.13,10.44h.06l-27-10.44c-.26-.13-.2-.34.45-.4.12-.34,4.73-.4,6.35-.32a59.88,59.88,0,0,1,6,1.4l22.85,8.52.28,0-23-8.58A57.33,57.33,0,0,0,195.61,1.43Z"/><path class="cls-29" d="M195.59,1.46c-1.62-.08-6.24,0-6.35.32-.64.06-.7.27-.45.4l27,10.44h0L189,2.17c-.23-.11-.22-.32.34-.37,0-.35,4.7-.41,6.25-.32.94,0,5.57,1.42,5.91,1.47l22.7,8.47.28,0L201.62,2.86A59.88,59.88,0,0,0,195.59,1.46Z"/><path class="cls-30" d="M195.57,1.48c-1.55-.09-6.24,0-6.25.32-.56.06-.56.26-.34.37L215.81,12.6H216l-.21-.05L189.18,2.17c-.19-.1-.25-.3.23-.35-.11-.35,4.67-.41,6.14-.32.8,0,5.51,1.49,5.8,1.53l22.56,8.42.28,0-22.7-8.47C201.14,2.9,196.51,1.47,195.57,1.48Z"/><path class="cls-31" d="M195.55,1.51c-1.47-.1-6.25,0-6.14.32-.48,0-.42.25-.23.35l26.56,10.37.21.05H216l-.36-.1L189.38,2.16c-.16-.08-.28-.28.12-.32-.22-.36,4.63-.42,6-.31.67,0,5.44,1.56,5.69,1.6l22.41,8.37.28,0L201.35,3C201.05,3,196.35,1.5,195.55,1.51Z"/><path class="cls-32" d="M195.53,1.53c-1.39-.1-6.25,0-6,.31-.4,0-.28.24-.12.32l26.3,10.32.36.1h.06l-.49-.15-26-10.27c-.13-.06-.31-.25,0-.29-.34-.37,4.6-.42,5.92-.31.54,0,5.38,1.64,5.58,1.66l22.26,8.32.28,0L201.22,3.13C201,3.09,196.19,1.52,195.53,1.53Z"/><path class="cls-33" d="M195.5,1.56c-1.32-.11-6.25-.05-5.92.31-.32,0-.14.22,0,.29l26,10.27.49.15h.05l-.6-.2L189.77,2.15c-.1,0-.34-.23-.1-.26-.45-.37,4.57-.43,5.81-.31.4,0,5.32,1.71,5.47,1.73l22.12,8.27.28,0L201.08,3.22C200.89,3.19,196,1.55,195.5,1.56Z"/><path class="cls-34" d="M195.48,1.58c-1.24-.11-6.26-.06-5.81.31-.24,0,0,.21.1.26l25.78,10.22.6.2h0l-.71-.25L190,2.14c-.06,0-.37-.21-.21-.23-.56-.38,4.54-.43,5.7-.31.27,0,5.26,1.78,5.36,1.79l22,8.22.28,0L200.95,3.31C200.8,3.29,195.88,1.58,195.48,1.58Z"/><path class="cls-35" d="M195.46,1.6c-1.16-.12-6.26-.07-5.7.31-.16,0,.14.2.21.23l25.52,10.17.71.25h0l-.8-.3L190.16,2.14s-.39-.19-.31-.2c-.68-.39,4.51-.43,5.59-.31.13,0,5.2,1.85,5.25,1.86l21.83,8.17.28,0-22-8.22C200.72,3.38,195.73,1.6,195.46,1.6Z"/><path class="cls-36" d="M195.44,1.63c-1.09-.13-6.27-.08-5.59.31-.08,0,.28.18.31.2l25.25,10.12.8.3h0L189.93,2c-.79-.39,4.47-.44,5.48-.31l26.81,10,.28,0L200.68,3.49S195.57,1.63,195.44,1.63Z"/><path class="cls-37" d="M189.93,2l26.3,10.59,6-.86-26.81-10C194.41,1.52,189.14,1.57,189.93,2Z"/><path class="cls-38" d="M241.5,14.51l2.41-4.58c.9,0,2.55-2.4-.3-2.4-3.56.08-11,.76-18.08,1.56L203.14.88c-22.35-1.65-24,2.55-21.45,3.45l24,8.74c-4.16,2.48-1.12,4.31,1.17,4.31,1.35,0,.45,1.5,0,2.1L185,48.45l-27.53,3,8.27-9.65h-.6L156,51.64,143.86,53l0,0c-10.55-1.34-18.81-2.47-22.67-2.77-5.25-.48-9.89-.86-14-1.15l8.92-9.8-.75.15L105.87,49c-18.26-1.2-26.18-.4-32.93,2.74-1.37.81-2.6,1.57-3.71,2.32L34.69,26.53c-10.5-1-14.1-2.7-21.15-1.95-13,1.65-12.9,6.3-11.1,7.65l26.3,24.12C15.5,56.22,13,60.09,12.66,63.28c-3.46,1-11.11,3.87-10.71,6.45.48,3.1,12.34,4.51,13.92,4.39a1.39,1.39,0,0,0,.39-.09A35.53,35.53,0,0,0,25,78.75c-12.19,6-20.09,11.71-23.49,17.08q-.25.43-.44.82a7.61,7.61,0,0,0-.34.84,3.16,3.16,0,0,0,.13,2.81,3.68,3.68,0,0,0,.88.95c.32.25.64.46.88.66,4.47,4.32,40.19,1.43,53.86.45a1.39,1.39,0,0,0,0,.25c.44,2.85,9.79,4.39,13.64,4.71,14.78,10.55,40.12,2,46.53.57l65,21.33c7.43,2.25,17.78-.23,22.05-1.35,9.9-2.7,16.2-3.37,21.37-3.37,1.8,0,2.25-1.35.45-1.8l-99-28.82,7.85-1.93a61.87,61.87,0,0,0,13.2-3.9C171.57,78.4,186.38,72.8,196,69.31c8.39-3,12.89-4.47,16.09-5.58,3.6-1.35,5.34-3.21,5.1-4.3a.86.86,0,0,0-.14-.3H218l18.36-34.8,10.39,3.85c4,1.58,20.33-1.42,25-2.85Z"/><polygon class="cls-39" points="183.75 56.77 231.61 33.48 223.06 49.23 190.66 57.33 183.75 56.77"/><polygon class="cls-39" points="196.44 57.71 221.86 51.63 217.96 59.13 196.36 58.38 196.44 57.71"/><polygon class="cls-39" points="231.38 33.59 227.35 35.55 228.91 38.13 231.38 33.59"/><path class="cls-38" d="M215.86,15.86c-1.76-.57-.68-2,.67-2.33,3.68-.6,16.8-2,19.65-1.8L273,24.93c-4.65,1.43-20.93,4.43-25,2.85Z"/><path class="cls-38" d="M48.91,73.23,3.76,31.83c-1.8-1.35-1.95-6,11.1-7.65,7-.75,10.65.9,21.15,2l53.1,42.3Z"/><path class="cls-38" d="M14,65.73c0-3.15-1.95-11.1,20.7-9.6,3.9.3,25.65,2.25,41.1,5.85l4.35,4.2L31.06,79.53c-2.7,0-11.1-3.3-15.15-7.35Z"/><path class="cls-40" d="M23.38,73.48l.13,0h-.08Z"/><path class="cls-40" d="M20.63,67.23l.07,0-.13,0Z"/><path class="cls-40" d="M20.79,67.31c.52.5,2.48,2.25,2.92,2.8s.63,3-.28,3.34h.08c1-.3.76-2.69.34-3.37s-2.4-2.3-2.92-2.8a.37.37,0,0,0-.23-.09l-.07,0A.37.37,0,0,1,20.79,67.31Z"/><path class="cls-41" d="M20.63,67.23h-.07l-.06,0,.07,0Z"/><path class="cls-41" d="M23.37,73.45l-.07,0h.08l.06,0Z"/><path class="cls-41" d="M20.66,67.34c.52.5,2.48,2.25,2.93,2.8s.62,2.86-.21,3.32h.07c.91-.37.7-2.69.28-3.34s-2.4-2.3-2.92-2.8a.37.37,0,0,0-.17-.08l-.06,0Z"/><path class="cls-42" d="M23.29,73.44l-.05,0h.07l.07,0Z"/><path class="cls-42" d="M20.57,67.28l-.07,0-.06,0,.07,0Z"/><path class="cls-42" d="M23.59,70.14c-.45-.55-2.4-2.3-2.93-2.8a.1.1,0,0,0-.15,0h0c.53.5,2.48,2.25,2.93,2.8s.61,2.76-.16,3.28h.08C24.21,73,24,70.78,23.59,70.14Z"/><path class="cls-43" d="M20.45,67.45l.05-.1-.07,0-.06.07h0Z"/><path class="cls-43" d="M23.21,73.43l-.06,0h.08l.05,0Z"/><path class="cls-43" d="M23.45,70.16c-.45-.55-2.4-2.3-2.93-2.8h0l-.05.1c.6.57,2.43,2.21,2.86,2.74s.6,2.65-.1,3.24l.08,0C24.06,72.92,23.85,70.79,23.45,70.16Z"/><path class="cls-44" d="M23.13,73.41l-.05,0,.08,0,.06,0Z"/><path class="cls-44" d="M20.45,67.45l-.06-.06h0c0,.06,0,.13,0,.19A.61.61,0,0,1,20.45,67.45Z"/><path class="cls-44" d="M23.32,70.19c-.43-.53-2.26-2.18-2.86-2.74a.61.61,0,0,0,0,.12c.68.63,2.35,2.14,2.76,2.65s.59,2.55-.05,3.19l.08,0C23.92,72.84,23.71,70.8,23.32,70.19Z"/><path class="cls-45" d="M23,73.37l0,.06.08,0,.05,0Z"/><path class="cls-45" d="M20.32,67.47c0,.08,0,.16.09.23A.31.31,0,0,0,20.32,67.47Z"/><path class="cls-45" d="M23.18,70.21c-.41-.5-2.08-2-2.76-2.65a.71.71,0,0,0,0,.14c.74.69,2.25,2.06,2.64,2.53a3.63,3.63,0,0,1,0,3.14l.08,0C23.77,72.77,23.56,70.81,23.18,70.21Z"/><path class="cls-46" d="M23,73.37l-.09,0,0,.06.08,0Z"/><path class="cls-46" d="M20.28,67.59a.32.32,0,0,0,.14.28A.5.5,0,0,0,20.28,67.59Z"/><path class="cls-46" d="M23,70.24c-.39-.48-1.9-1.85-2.64-2.53a.89.89,0,0,0,0,.17c.78.72,2.12,1.95,2.49,2.39a3.74,3.74,0,0,1,0,3.08l.09,0A3.63,3.63,0,0,0,23,70.24Z"/><path class="cls-47" d="M20.46,68a.65.65,0,0,0-.19-.28.5.5,0,0,0,.2.33Z"/><path class="cls-47" d="M22.87,73.3l0,.07.09,0,0-.06Z"/><path class="cls-48" d="M20.29,67.9a1,1,0,0,0,0,.14v.06l.17.15A.63.63,0,0,0,20.29,67.9Z"/><path class="cls-48" d="M22.79,73.26h0l0,.07.09,0,0-.07Z"/><path class="cls-49" d="M22.68,73.19l0,.08h0l.08,0,0-.07Z"/><path class="cls-49" d="M20.34,68.09a.61.61,0,0,0,.2.33A.59.59,0,0,0,20.34,68.09Z"/><path class="cls-50" d="M22.58,73.13l0,.09.09.06,0-.08Z"/><path class="cls-50" d="M20.37,68.27a.6.6,0,0,0,.2.33A.58.58,0,0,0,20.37,68.27Z"/><path class="cls-51" d="M22.48,73.06l0,.09.1.06,0-.09Z"/><path class="cls-51" d="M20.41,68.45a.59.59,0,0,0,.19.33A.57.57,0,0,0,20.41,68.45Z"/><path class="cls-52" d="M20.44,68.63a.58.58,0,0,0,.19.33A.55.55,0,0,0,20.44,68.63Z"/><path class="cls-52" d="M22.37,73l0,.09.1.07,0-.09Z"/><path class="cls-53" d="M20.46,68.81a.56.56,0,0,0,.19.32A.54.54,0,0,0,20.46,68.81Z"/><path class="cls-53" d="M22.26,72.93l0,.1.11.07,0-.09Z"/><path class="cls-54" d="M20.49,69a.55.55,0,0,0,.18.32A.53.53,0,0,0,20.49,69Z"/><path class="cls-54" d="M22.15,72.85l0,.1.11.07,0-.1Z"/><path class="cls-55" d="M20.52,69.16a.54.54,0,0,0,.18.32A.51.51,0,0,0,20.52,69.16Z"/><path class="cls-55" d="M22,72.78l0,.1.12.07,0-.1Z"/><path class="cls-56" d="M20.54,69.33a.52.52,0,0,0,.17.32A.5.5,0,0,0,20.54,69.33Z"/><path class="cls-56" d="M21.91,72.7v.1l.12.07,0-.1Z"/><path class="cls-57" d="M20.56,69.5a.51.51,0,0,0,.17.31A.48.48,0,0,0,20.56,69.5Z"/><path class="cls-58" d="M20.58,69.67a.49.49,0,0,0,.16.31A.46.46,0,0,0,20.58,69.67Z"/><path class="cls-59" d="M20.59,69.84a.49.49,0,0,0,.15.31A.45.45,0,0,0,20.59,69.84Z"/><path class="cls-60" d="M20.75,70.32A.43.43,0,0,0,20.6,70,.48.48,0,0,0,20.75,70.32Z"/><path class="cls-61" d="M20.61,70.18a.47.47,0,0,0,.14.31A.41.41,0,0,0,20.61,70.18Z"/><path class="cls-62" d="M20.62,70.34a.49.49,0,0,0,.13.31A.39.39,0,0,0,20.62,70.34Z"/><path class="cls-39" d="M23.86,70.11c-.45-.55-2.4-2.3-2.93-2.8-.32-.27-.82.1-.6.75.25,1.3.55,3.3-.12,3.7l2.45,1.55C24.59,74.36,24.39,70.93,23.86,70.11Z"/><path class="cls-39" d="M18.2,70.34c.45.9,1.84,3,5.92,4.46,2.4.75,10.58.45,14.66-.15l.15-.64c-4.09.6-12.26.9-14.66.15-4.09-1.43-5.47-3.56-5.92-4.46Z"/><path class="cls-38" d="M17.19,73.72c1.61-.12,2.44-2.95,2-6S17,62.27,15.46,62.51,2.8,66.23,3.27,69.33,15.61,73.84,17.19,73.72Z"/><path d="M3.5,68.47a8.28,8.28,0,0,1,.87-.85h0A8,8,0,0,0,3.5,68.47Z"/><ellipse cx="4.37" cy="67.62" ry="0.01" transform="translate(-36.49 13.57) rotate(-33.39)"/><ellipse cx="4.37" cy="67.62" rx="0.01" transform="translate(-40.89 17.19) rotate(-38.21)"/><polygon points="4.37 67.62 4.38 67.61 4.38 67.61 4.37 67.62 4.37 67.62"/><polygon points="4.37 67.62 4.38 67.61 4.38 67.61 4.38 67.62 4.37 67.62"/><ellipse cx="4.39" cy="67.61" ry="0.01" transform="translate(-36.77 13.79) rotate(-33.69)"/><path d="M4.4,67.59l0,0h0Z"/><path d="M4.36,67.63h0a7.63,7.63,0,0,0-.86.83A8,8,0,0,1,4.36,67.63Z"/><ellipse cx="4.36" cy="67.63" rx="0.01" transform="translate(-42.2 18.39) rotate(-39.7)"/><circle cx="4.37" cy="67.63" transform="translate(-39.4 15.88) rotate(-36.53)"/><polygon points="4.37 67.62 4.36 67.63 4.36 67.63 4.37 67.62 4.37 67.62"/><polygon points="4.37 67.62 4.38 67.62 4.37 67.63 4.36 67.63 4.37 67.62"/><path d="M4.39,67.61l0,0h0Z"/><path d="M4.36,67.63h0a7.3,7.3,0,0,0-.85.83A7.63,7.63,0,0,1,4.36,67.63Z"/><ellipse cx="4.35" cy="67.64" ry="0.01" transform="translate(-40.45 16.78) rotate(-37.69)"/><circle cx="4.36" cy="67.63" r="0.01" transform="translate(-42.85 19) rotate(-40.46)"/><polygon points="4.36 67.63 4.36 67.63 4.36 67.63 4.35 67.64 4.36 67.63"/><polygon points="4.37 67.63 4.36 67.63 4.36 67.63 4.37 67.63"/><path d="M4.35,67.64h0a7,7,0,0,0-.84.82A7.3,7.3,0,0,1,4.35,67.64Z"/><circle cx="4.35" cy="67.64" transform="translate(-41.18 17.42) rotate(-38.52)"/><polygon points="4.35 67.64 4.35 67.64 4.34 67.64 4.34 67.64 4.35 67.64"/><polygon points="4.36 67.63 4.34 67.64 4.35 67.64 4.36 67.63"/><path d="M4.34,67.65h0a6.71,6.71,0,0,0-.83.82A7,7,0,0,1,4.34,67.65Z"/><circle cx="4.34" cy="67.65" transform="translate(-39.25 15.73) rotate(-36.35)"/><polygon points="4.34 67.64 4.34 67.65 4.34 67.64 4.34 67.64"/><path d="M4.33,67.65h0a6.44,6.44,0,0,0-.83.81A6.71,6.71,0,0,1,4.33,67.65Z"/><polygon points="4.34 67.65 4.33 67.66 4.33 67.65 4.34 67.65"/><path d="M4.33,67.66a6.22,6.22,0,0,0-.83.81A6.44,6.44,0,0,1,4.33,67.66Z"/><path class="cls-37" d="M8.56,93.93c6.6-6.3,23.7-11.7,51-24.3,5.1-6,12.6-15.3,24.9-17.7,20.1-2.1,56.7,3.3,76.8,5.7,10.8,1.2,47.7,2.4,51.3,2.4-16.2,5.4-116.1,24.3-132.6,27-21.6,3.9-57.9,12.9-69.9,11.1C6.16,97.53,4.66,96.93,8.56,93.93Z"/><path class="cls-38" d="M2.86,95.43c5.7-9,24-18.9,54-29.7,6-5.7,8.7-9.3,17.4-14.4,8.4-3.9,18.6-4.2,48.3-1.5,11.4.9,61.2,9,95.1,8.4,2.1.6.6,3.3-4.2,5.1-6.9,2.4-19.8,6.3-64.5,24.3a61.86,61.86,0,0,1-13.2,3.9l-17.1,4.2-57.6,6c-9.9.6-52.2,4.5-57.09-.22C3,100.66.41,99.65,2.86,95.43Z"/><path class="cls-63" d="M217.66,58.23c-33.9.6-83.7-7.5-95.1-8.4-29.7-2.7-39.9-2.4-48.3,1.5-8.7,5.1-11.4,8.7-17.4,14.4-30,10.8-48.3,20.7-54,29.7-1.18,2-1.2,3.31-.8,4.2,15.88,4.77,97.4-6,97.4-6l36.6-4.8,18.86-3.59c39.91-16,52-19.62,58.54-21.91C218.26,61.53,219.76,58.83,217.66,58.23Z"/><path class="cls-39" d="M190.66,57.33c-19.8,6-68.55,18.6-68.55,18.6C85.66,85.23,36.78,94,23.13,95.8c-18.3,2.4-20.55,2.4-20.7.45q.18-.39.44-.82c.15,2,2.4,2,20.7-.45,13.65-1.8,66.15-12.3,102.6-21.6,0,0,39.45-10.65,57.58-16.61Z"/><path class="cls-39" d="M196.44,57.71c7.41.43,14.62.64,21.23.52-20.85,7-95.1,24.75-95.1,24.75C85.81,91.83,37.66,97.38,24,99.18c-8.56,1.12-14.14,1.38-17.1,1.5-2.3.09-4.25-.31-4.7-.78a3.16,3.16,0,0,1-.13-2.81c.15,1.95,2.4,1.95,20.7-.45C36.43,94.85,86.56,86.28,123,77,123,77,176.64,63.71,196.44,57.71Z"/><path class="cls-39" d="M218.57,59c.24,1.1-1.5,3-5.1,4.3-3.21,1.12-7.71,2.55-16.09,5.58-22.65,5.25-73,15.67-73,15.67-36.75,8.85-84.9,14.4-98.55,16.2-8.56,1.12-14.14,1.38-17.1,1.5-2.3.09-4.25-.31-4.7-.78-.24-.2-.56-.4-.88-.66.46.46,2.4.87,4.7.78,3-.12,8.54-.38,17.1-1.5,13.65-1.8,61.8-7.35,98.55-16.2C123.44,83.93,192.76,69.18,218.57,59Z"/><path d="M179,57l-32.62,1.27,15.75.15c.67,0,1.27-.07,1.5.23a7.19,7.19,0,0,1-.15,2.7c-.75.67-2.93,1.42-4.43,2,3.37-.9,17.33-5,19.5-5.85C179.34,57.26,179.64,57,179,57Z"/><path class="cls-63" d="M152.77,62.85l-.75.6a.46.46,0,0,0,0,.13c0,.19.07.3.28.27a2.1,2.1,0,0,0,.7-.38v.06l.21-.18,0,.14c0,.17.12.23.26.2a.44.44,0,0,0,.36-.4.24.24,0,0,0-.16-.19l-.14-.06a.32.32,0,0,1-.16-.45l-.45.07A.57.57,0,0,1,152.77,62.85Z"/><path d="M145.53,62.79l0-.12-.3.18-.32.12a2,2,0,0,0-.73.58,1,1,0,0,0-.21.66,1.15,1.15,0,0,0,0,.24l.33-.19a2.7,2.7,0,0,1,0-.32,1,1,0,0,1,.86-.94l-.22.86.31,0,.22-.89a1.07,1.07,0,0,1,.58,0,.57.57,0,0,1,.27.56s0,.09,0,.13l.34-.05a2.17,2.17,0,0,0,0-.25C146.7,62.7,146.07,62.69,145.53,62.79Z"/><path d="M146.16,64.36a1.22,1.22,0,0,1-1,.76l-.6.08v0a1.7,1.7,0,0,0,.62-1.09l.08-.31-.31,0-.22.88c-.08.33-.16.44-.59.56l-.18.22.6-.08a4.78,4.78,0,0,0,.87-.21,2.61,2.61,0,0,0,1-.82,2.06,2.06,0,0,0,.27-.8l-.34.05A2.49,2.49,0,0,1,146.16,64.36Z"/><path d="M147.53,63.17s0-.05-.06,0a2.79,2.79,0,0,0-.59.42l.6-.09A1.27,1.27,0,0,0,147.53,63.17Z"/><path d="M147.8,64.27a2.34,2.34,0,0,1-.48.37c-.06,0-.08,0-.08-.14a3.45,3.45,0,0,1,.14-.64l.1-.39-.6.09,0,0v.12a1.35,1.35,0,0,1,.28-.15,0,0,0,0,1,.06.05s-.26,1.07-.28,1.15,0,.28.13.26.13-.05.74-.56l0,.36a.06.06,0,0,0,.06.06s.74-.55.74-.55v-.11s-.37.26-.43.28,0,0,0-.07a2.89,2.89,0,0,1,.11-.6l.13-.49-.28,0Z"/><polygon points="148.09 63.17 148.03 63.37 148.31 63.33 148.41 62.96 148.09 63.17"/><path d="M149,63.24a2.15,2.15,0,0,0-.34,1.06c0,.28.07.41.33.36a1.55,1.55,0,0,0,.54-.25l.38-.27,0-.12a2.61,2.61,0,0,1-.73.37c-.14,0-.24,0-.24-.21a2.93,2.93,0,0,1,.26-1l-.22,0Z"/><path d="M149.87,63c0-.16-.08-.27-.26-.24a2.12,2.12,0,0,0-.65.49l.22,0a.34.34,0,0,1,.21-.19c.1,0,.16,0,.19.13l.2,0,.09-.07A.36.36,0,0,0,149.87,63Z"/><path d="M149.6,63.24l.17-.13-.2,0A.66.66,0,0,1,149.6,63.24Z"/><path d="M150.89,64a1,1,0,0,0,0,.23.2.2,0,0,0,0,.07.08.08,0,0,0,.09,0,.18.18,0,0,0,.09,0l.65-.47,0-.14a3.06,3.06,0,0,1-.44.27c-.06,0-.09-.05-.06-.17l.22-.89-.3,0C151.14,63,150.89,64,150.89,64Z"/><path d="M150.74,62.07c.09-.32.19-.44.36-.47a1.49,1.49,0,0,1,.31,0l.17-.27-.26,0a.48.48,0,0,0-.26.11,3.31,3.31,0,0,0-.57.6.88.88,0,0,0-.09.27l-.19.74.28,0Z"/><path d="M151.52,62.51a.07.07,0,0,0-.09-.07,1.21,1.21,0,0,0-.36.21l-.44.33.24,0,0,0a.49.49,0,0,1,.2-.11s.06,0,.06.06v0l.3,0S151.51,62.6,151.52,62.51Z"/><path d="M150.46,63.11l0-.11-.28,0-.37,1.46.29-.16.27-1,.47-.36-.24,0Z"/><path d="M152.53,62.41c.08,0,.13,0,.13.15a.5.5,0,0,1,0,.12l.28,0a.63.63,0,0,0,.06-.25c0-.27-.29-.25-.49-.1a2.91,2.91,0,0,0-.39.32.93.93,0,0,0-.11.16l.23,0C152.31,62.57,152.44,62.42,152.53,62.41Z"/><path d="M153,63.52v-.06a2.1,2.1,0,0,1-.7.38c-.21,0-.28-.07-.28-.27a.46.46,0,0,1,0-.13l.75-.6a.57.57,0,0,0,.16-.22l-.28,0a.58.58,0,0,1-.21.3l-.39.32s.14-.45.18-.56l-.23,0a2.31,2.31,0,0,0-.27,1c0,.18,0,.4.35.34a2.05,2.05,0,0,0,.85-.5v0Z"/><path d="M153.55,63l.14.06a.24.24,0,0,1,.16.19.44.44,0,0,1-.36.4c-.14,0-.23,0-.26-.2l0-.14-.21.18v0l0,0,0,.11a.23.23,0,0,0,.31.18,1.09,1.09,0,0,0,.31-.12,1.32,1.32,0,0,0,.46-.49.52.52,0,0,0,.06-.24.22.22,0,0,0-.11-.21l-.27-.14a.23.23,0,0,1-.14-.16l-.2,0A.32.32,0,0,0,153.55,63Z"/><path d="M153.85,62.19a.27.27,0,0,1,.23.07l.06,0,.21-.28A.28.28,0,0,0,154,62a.75.75,0,0,0-.32.16,1.52,1.52,0,0,0-.29.36l0,.09.2,0a.19.19,0,0,1,0,0A.34.34,0,0,1,153.85,62.19Z"/><path d="M153,63.52l-.06.05v0l0,0Z"/><path d="M154.86,62.27a.34.34,0,0,1,.27-.31.27.27,0,0,1,.23.07l.06,0,.21-.28a.28.28,0,0,0-.31-.08.75.75,0,0,0-.32.16,1.5,1.5,0,0,0-.29.36.55.55,0,0,0-.05.13l.23,0A.18.18,0,0,1,154.86,62.27Z"/><path d="M155.27,62.61l-.27-.14a.25.25,0,0,1-.13-.13l-.23,0a.3.3,0,0,0,.18.41l.14.06a.24.24,0,0,1,.16.19.44.44,0,0,1-.36.4c-.14,0-.23,0-.26-.2l0-.14-.27.24,0,.14a.23.23,0,0,0,.31.18,1.09,1.09,0,0,0,.31-.12,1.31,1.31,0,0,0,.46-.49.51.51,0,0,0,.06-.24A.22.22,0,0,0,155.27,62.61Z"/><path class="cls-38" d="M226.89,122.28l-99.68-29-3,0h-2.6l-1.37-.4-4.84.51h-.15l-2.31.09-.32,0-2.05.12-.37,0-1.89.14-.28,0-1.83.17h0l-1.68.19-.23,0-1.48.2-.26,0-1.34.22-.2,0-1.26.24h0L99,95l-4.68.49,1.42.47-.23.09h0l-.64.28-.09,0-.52.28-.09.06-.1.06L93.8,97l0,0-.08.06-.15.12-.13.12-.06.06,0,0-.18.22,0,0-.05.08-.08.12,0,.07,0,.11,0,.07a.93.93,0,0,0,0,.1,1,1,0,0,0,0,.13s0,0,0,0,0,.06,0,.09a1,1,0,0,0,0,.17s0,0,0,0l0,.09.07.13.1.13.1.12.15.13.14.11.19.12.16.1.24.11.18.08.29.1.19.07.36.1.17,0,.59.12L183,128.81c.47.14,1,.27,1.45.37l.31.06c.39.08.79.15,1.2.21h.13c.58.08,1.17.14,1.76.18l.21,0h.42l.91,0h1.73l.61,0,.54,0h.15l1.21-.09h0l.22,0,.91-.09.26,0,.44-.05.39,0,.63-.09.32,0h.09l1.2-.19.34-.06,1-.18.53-.1.71-.14.53-.11.62-.14.51-.12.57-.13.45-.11.56-.14.36-.09.79-.2c9.9-2.7,16.2-3.37,21.38-3.37C228.24,124.08,228.69,122.73,226.89,122.28Z"/><path class="cls-63" d="M226.44,124.08c-.64,0-1.84-.12-3.38-.31l2.15.32Z"/><path class="cls-64" d="M225.21,124.09c-.82-.13-1.74-.27-2.76-.4,1,.13,1.93.27,2.75.4Z"/><path class="cls-39" d="M207.34,126.86l1.11-.28.62-.15,1-.23.62-.14.9-.2.62-.13.85-.18.59-.12.83-.16.55-.1.81-.14.51-.09.84-.13.42-.06,1.2-.17.14,0,1-.12.45,0,.66-.07.5,0,.57,0,.51,0,.53,0,.51,0,.48,0,.52,0,1.76,0c-.91,0-3-.25-5.48-.57l-1.1-.14-2.4-.31h-.08l-1.38-.17-.21,0-1.41-.17h0l-1.35-.15-.19,0-1.27-.13-.22,0-1.24-.11h0l-1.12-.07h-.19l-1,0h-1.07c-.57,0-1.15.07-1.72.13l-.56.07-1.17.16-.63.11-1.12.21-.61.13-1.2.28-.48.12-1.64.45-.24.07-1.38.43-.54.18-1.06.36-.56.2-1,.37-.49.18-1.15.43-.27.1-1.79.69-.71.28-.51.2-.76.29-.44.17L186,128l-.38.14a18.51,18.51,0,0,1-1.81.55h0a6.35,6.35,0,0,1-.74.13c7.43,2.25,17.78-.23,22.05-1.35l1.73-.46Z"/><path class="cls-38" d="M66.46,96.93c4.2-3.45,5.1-13.35,59.25-3.3a91,91,0,0,1,10.65,3.3c1.2.45-.45,1.65-2.85,2.4-7.65,1.05-21.3,5.85-15.3,8.1-6.15,1.35-32.4,10.35-47.25-.9Z"/><path class="cls-65" d="M72.38,107.52a13.12,13.12,0,0,0-1.23-.85C71.55,107,72,107.25,72.38,107.52Z"/><path class="cls-39" d="M82.36,104.81c-5.4.79-8-1-9.15-1.8l-.08.7c1.12.75,2.77,2.3,9.15,1.8,6.11-1.29,33.22-6.21,47.63-5.51.89-.2,1.75-.37,2.57-.51C119,98,88.85,103.44,82.36,104.81Z"/><path class="cls-39" d="M75.74,98.43c-.23,0,.1.2.08.3.08.27.15.53.2.8v0c.05.25.09.5.12.75v0a8.46,8.46,0,0,1-.33,3.62c1.49.47,4.79,1.46,5.6-.54h0l0,0,0,0,0,0h0v0h0v-.49h0v-.07a4,4,0,0,0,0-.55C81.44,100.41,78.76,98.66,75.74,98.43Z"/><path class="cls-39" d="M56.86,65.73c6-5.7,8.7-9.3,17.4-14.4,1.9-1,8.4,4.5,9.2,5,1.7,1.3,2.9,3.6,1.7,7.1l-3.4,13c-.5,1.1-1.1.8-2.2.7C75.16,76.33,49.66,72.83,56.86,65.73Z"/><path class="cls-39" d="M91.48,63.44c2.36-.45,12.82-2,13.54-2.06,1.69-.19,2.92.34,3,2.44.07,1.87.15,6.75,0,8s-.6,2.18-3,2.51c0,0-14.06,2.17-17.59,1.91-1.46-.19-1.95-1.09-1.35-2.59.53-1.72,2.1-6.86,2.51-8.1A3.56,3.56,0,0,1,91.48,63.44Z"/><path class="cls-39" d="M125.21,70.43,113,72.93c-1,.2-.65-4-.7-6.2-.05-1.2-.35-5.2-.55-6.05-.15-.5.1-.85.45-.9l12.2-.55c1.2.05,2,2.35,2.1,5.1C126.46,65.43,126.41,70.08,125.21,70.43Z"/><path class="cls-39" d="M140.11,67.63l-9.69,1.82c-1.49.32-1.36-.47-1.26-1.07a55.05,55.05,0,0,0-.2-7.9c-.15-.9,0-1.35.85-1.5l8.4-.3a2.24,2.24,0,0,1,2.3,2.2l.25,5.45C140.61,67.13,140.56,67.33,140.11,67.63Z"/><path class="cls-38" d="M72.93,107c1.75-.13,2.65-3.2,2.13-6.55s-2.31-5.87-4-5.61-13.73,4-13.22,7.4S71.22,107.09,72.93,107Z"/></g></g></svg>