<svg xmlns="http://www.w3.org/2000/svg" viewBox="0 0 213.61 91.22"><defs><style>.cls-1{fill:#231f20;fill-rule:evenodd;}</style></defs><title>C310</title><g id="Layer_2" data-name="Layer 2"><g id="Layer_1-2" data-name="Layer 1"><path class="cls-1" d="M71.32,33.52l-13.8-2.1c-.66.45-6.7,8.87-6.7,9.51S58.5,42,59.61,42c3.17.11,6.15.56,9.36.56h1.57l.79-9.08Zm-49,31c.91.08,4.21,1.22,5.44,1.54a32.69,32.69,0,0,0,5.87,1l.17-2.65,0-1H31.69v-.15l-9.34,1v.28ZM9.91,84.93c1.07,0,2.95.57,4.06.69,1.46.16,2.8.24,4.29.46,2.58.39,6,.42,8.6.89,5.38,1,12.32.44,17.7,1.28,2.6.41,6.57-.1,9.13.36a86,86,0,0,0,9.27.22c6,0,12.71.14,19,.14v.14c-1.85,0-4.3.42-6.28.56-1.7.12-4.69.28-6.31.53-1.45.23-5,.29-6.53.31-2.35,0-4.32.13-6.71.13H48.58c-6.42,0-15.22-.35-20.86-1.34-3.38-.59-6.2-1-9.38-1.65-1.94-.42-7.25-1.91-8.43-2.74Zm-2.37-1.4C8,83.42,8.66,83,9.07,83c0,0,1.66.52,2,.61a22.47,22.47,0,0,0,2.23.42c1.48.25,3.17.5,4.67.64,3.3.3,6.51.6,9.91.84,3.13.22,6.84.33,9.92.69s7.21.07,10.21.54a42.47,42.47,0,0,0,5.14.17c1.55,0,3.53.28,5,.28,3.41,0,7,.14,10.48.27,6.84.27,13.68.42,20.94.42V88l-4.18.6H81c-6.59,0-12.73-.28-19.27-.28a88.19,88.19,0,0,1-9.38-.39c-2.71-.43-6.62.11-9.38-.39-.82-.15-3.81-.18-4.7-.19-1.45,0-3-.28-4.61-.28a78.67,78.67,0,0,1-9-.79c-2.87-.5-5.94-.46-8.82-.95-1.36-.23-2.88-.39-4.19-.7-1-.23-3.29-.71-4.11-.78v-.28ZM11.73,82a29.21,29.21,0,0,0,3.39-.66c1.17-.24,2.44-.42,3.61-.58a62.35,62.35,0,0,1,7.66-.57h8.38A116.86,116.86,0,0,1,47.62,81c4.29.5,8.36.64,12.47,1.35,3.55.61,22.24,3.21,23.54,4.11-6,0-12.62-.14-18.71-.14s-12.45-.7-18.43-.7-12.21-.92-18-1.11c-2.89-.1-6-.58-8.8-.84-1.8-.16-7.39-.6-8-1.68Zm61.43,1.82a78.5,78.5,0,0,1-7.76-1.17c-2.61-.44-5.18-.66-7.82-1.12-2-.35-6.11-.86-8-.93-2.83-.1-5.4-.55-8.38-.55l6-13.66,2.65-.17h2.09c3.1,0,6.15.66,8.79.7s5.82,1,8.24,1.25c2.67.3,13.71,2.64,15.49,3.5a55.79,55.79,0,0,1-5.17,6.57c-.74.54-6,5.59-6.14,5.59ZM19.55,64c.65,0,3.26-.64,4.08-.8a28.21,28.21,0,0,1,4.57-.45c.83,0,4.05,0,4.86-.17a30.07,30.07,0,0,1,4.78,0,140.6,140.6,0,0,1,18.74,1.37c6,.9,11.85,1.36,17.62,2.49,2.91.57,5.74.89,8.59,1.47,1.3.27,3,.49,4.23.8a39.78,39.78,0,0,0,4.16.87c-.08,1-1.76,1-2.65,1.12-.71.11-2.89.56-3.35.56s-6.93-1.67-8-1.93c-2.72-.67-5.74-1-8.38-1.68a95,95,0,0,0-18-2c-3.53,0-7.56.15-8.24,3.07a80.76,80.76,0,0,1-12.32-1.37,36.71,36.71,0,0,1-5.6-1.24c-.94-.32-1.73-.52-2.65-.84s-1.88-.9-2.46-1V64Zm-3.91-4.33-.11.44.67,3.47A23.47,23.47,0,0,1,4.47,59.79c1.24-1.86,8.89-4.4,12-4.47a8.79,8.79,0,0,0-.84,4.33Zm151.9-9.78v-.7c0-.79,1.66-.84,2.43-.82l4,16.88h-.42a4.09,4.09,0,0,0-1.26.28c-.59-2.53-1.59-5.34-2.39-7.81-.36-1.1-2.36-7.07-2.36-7.84ZM22.34,31.15c1-1.55,7.69-3.91,10.33-3.91h.42a11.84,11.84,0,0,0-.7,3.49v.84l.27,2.24c-1.39,0-1.3.53-2.91.26A25,25,0,0,1,27,33.33a14.2,14.2,0,0,1-4.66-2.18Zm30.57-4.89c0-2.4,1.78-2.38,3.68-3a19.56,19.56,0,0,1,5.81-.89H65.2c5.73,0,11.46,1.21,16.58,2,2.48.37,5.25,1.09,7.76,1.59s5.09,1,7.68,1.53c4,.88,29.82,5.49,30.94,6.2h-3.49v.56c1.54,0,4.4,1,5.9,1.22,2,.33,3.84.92,5.82,1.17,1.7.21,4.06.9,5.87,1.25s3.94.67,5.85,1.14c3.47.85,8.28,1.62,11.91,2.19,2,.32,3.86.71,6,1a46.16,46.16,0,0,0,6,.95v.28l-3.34.48-.85-.06c-2.51,0-5.24-.48-7.67-.7s-5-.54-7.41-.83c-5-.6-10-1-14.92-1.7s-10-1.14-14.83-1.79c-2.51-.33-4.89-.5-7.35-.89-2-.31-5.38-.84-7.29-.94s-5.14-.79-7.24-1.13c-2.32-.38-4.83-.65-7.12-1.11-4.4-.88-9.73-1.7-14.14-2.33-4.83-.7-9.51-1.48-14.32-2.3-2.71-.46-12.6-1.28-12.6-3.88Zm-.84-.14c0-.72.1-1.24.7-1.4A4.1,4.1,0,0,0,52.49,26c0,2.93,4.68,3.24,7.27,3.76,3.08.62,6.18,1,9.31,1.58s6.37,1,9.4,1.63c2.87.58,6.44,1.26,9.23,1.66,6.24.9,12.57,2.05,18.64,3.28,3.35.67,5.91.72,8.35,2.54,1.67,1.24,4.57,3.61,5.08,5.81-.82,1.22-3.27,1.12-5.31,1.12-2.2,0-4.1.14-6.14.14-4.24,0-8.11.14-12.43.14H83.21c-13.79,0-27.09-.28-40.91-.28H21.92c-6.81,0-13.64.28-20.24.28,1.25,1.09,7,1.22,9.35,1.4,3.39.25,6.87.43,10.19.56,6.71.26,13.89.48,20.53,1,3.12.23,7.57-.14,10.44.31a94.72,94.72,0,0,0,10.36.39c6.73,0,13.95.7,20.66.7,7,0,14,.6,20.94.56,3.54,0,7,.28,10.47.28s7.22-.1,10.47.14,6.92.28,10.47.28c2.25,0,8.7-.14,10.55.2,2.72.5,20.12-.5,20.86.5l-8,.75-8.52-.05c-12.64,0-25-.69-37.42-.7-3,0-6.11-.29-9.35-.28-2.55,0-6.67-.13-9.08-.41-1.41-.17-3.32.15-4.73,0-1.06-.12-3.38-.27-4.47-.27-3,0-6.22-.29-9.22-.27-2.78,0-6.33-.38-9.21-.43-2.35,0-7-.06-9.11-.38-2.63-.41-6.58.07-9.1-.39a88.41,88.41,0,0,0-9-.48c-6-.09-12.06-.75-18-1-3-.11-6-.56-8.93-.56-2.68,0-6.07-.7-8.79-.7.76.66,12.82,1.55,14.94,1.54,2.45,0,5.18.48,7.67.56s5.31.48,7.68.56c5.13.17,10.41.92,15.36,1.12,5.19.2,10.24.6,15.36,1,6.07.44,60.4,4,61.15,4.47-3,0-6.1.8-9.08.83-1.24,0-2.93.31-4.46.42-1.06.08-3.23.26-4.44.45-5.42.84-12.85.47-16.92,2.62-1.92-.45-4.15-1.29-6.2-1.9s-4.25-1.18-6.4-1.7c-4.3-1-8.71-2-13.28-2.77A179.92,179.92,0,0,0,35.74,53.5c-3.79,0-7.81.16-11.45.42-1.54.11-3.84.54-5.3.56-1.87,0-3.27.7-5.17.7-.41,0-6.27-2.78-7-3.17-1.73-.87-5.16-2.7-6.1-4.1C1.71,46.4,7,43.41,9,42.42c3.21-1.61,6.19-2.67,9.64-4a71.74,71.74,0,0,1,10.52-3.3c1.76-.34,3.72-.85,5.54-1.3a42.65,42.65,0,0,1,5.89-.95c-.23.87-2.37,2.2-2.37,4.19,0,1.65,6.79,3.35,8.94,3.35.18,0,6.38-8.75,7-9.64-1.53-.36-3.77-1.84-3.77-3.63,0-1.29.74-1.54,1.54-2a7.7,7.7,0,0,0-.14,1v.14c0,2.94,3.81,3.81,6.57,4s6.22,1.14,9,1.63c3.13.55,6,1,9,1.6s6,.93,8.89,1.58c5.85,1.3,11.9,2.09,17.85,3.24,2.19.42,7.22,1.12,8.74,1.88,1,.5,5.44,4,5.44,5,0,1.2-5.15.84-6.56.84H59.47c-7,0-55.93-.14-57.38,1.12,4.76,0,9.6-.28,14.52-.28h14.8c10,0,19.5-.14,29.46-.14h44.4c2.24,0,13.68.61,13.68-1,0-1-4.55-4.82-5.47-5.42-2.49-1.63-5.29-1.43-8.55-2.2-3-.72-6.1-1.07-9.22-1.67s-6-1.16-9.12-1.63c-2.91-.44-6.29-1.31-9.24-1.65s-6.26-1.34-9.09-1.66-6.51-1-9.33-1.56-6.85-.75-6.85-3.9Zm15.5-14.95c0-1.33-3-1.53-4.32-1.68-1.73-.2-3.32-.82-4.88-1.12C56.52,8,51.09,5.74,50.26,4.61c1.58,0,3.75.3,5.3.42,1.84.14,3.53.06,5.45.13,3.52.14,7,.42,10.74.42,7.32,0,14.54.42,22.06.42H104l4.33-.17c-1,.87-6.79,2.74-8.57,3.33-1.55.52-8.09,2.22-7.91,3.82l1.49,13.14c-1.79,0-5-1.16-6.81-1.39-2.21-.28-4.84-1.11-7-1.27-1.86-.14-5.1-.71-7.18-1.06a56.21,56.21,0,0,0-7.62-.62l4.54-10.16L67.43,12c.05-.56.14-.3.14-.82Zm59.61,22.91h25.27c3.34,0,7.21-2.09,9.21-3.49a74.7,74.7,0,0,0,6.87-5.69c2.12-2,4.84-3.8,6.91-5.79a88.45,88.45,0,0,1,6.79-5.78c2.13-1.6,4.9-4,6.89-5.82,1.11-1,2.31-1.85,3.42-2.86,1.37-1.25,2.49-1.29,5-1.29h.56l7,.3.12.07-7.69,10.22,10.64-.06-.49,1-10.68,0c-.59,0-10.41,12.79-11.69,14.28-1.75,2-10.23,13.66-12.18,13.66-3.49,0-45.45-8.38-45.93-8.8ZM60,4.61c-3.45,0-7.15-.56-10.47-.56.19-.73,4.31-.4,5.43-.27,1.48.17,4,.27,5.59.27,3.64,0,7.87.3,11.45.28,7.76,0,15.3.28,23.18.28h8.94l5.59.17V5L98,5.36l-5.59-.06C85,5.31,77.87,5,70.64,5,67.35,5,63.37,4.59,60,4.61ZM51.66,2.93c.58-.79,6.29-1.75,7.94-2A74.13,74.13,0,0,1,68.83.42,131.51,131.51,0,0,1,86.17,1.51c2.46.37,5.94.84,8.21,1,2.6.19,5.68,1.12,8.09,1.12v.14L51.66,2.93ZM0,47.77v.28c.85.57,1.62,1.5,2.76,2.26S4.94,51.52,6,52.21c1.92,1.21,5.38,2.15,7,3.24A30.58,30.58,0,0,0,8,57c-.8.36-4,1.87-4,2.65,0,2.1,10,4.37,12.84,4.61v1.4c0,2.95,1.71,3.33,3.94,3.88,2,.5,4.51.81,6.66,1.16,2,.32,4.92.83,6.86,1,2.28.16,4.95.84,7.14.84L39,79.79l-8.24-.17h-.56c-8.69,0-18.11.93-23.73,3.91.84,1.14,6.24,3,8.08,3.65a73.89,73.89,0,0,0,9.73,2.14c3.55.65,6.88.79,10.66,1.21,1.08.12,11.06.61,11.18.69h12.7c.18-.11,7.55-.42,8.38-.42,2.9,0,5.61-.47,8.37-.56s5.57-.77,8-.83c2.58-.07,5.46-1.07,7.68-1.26v-.56c-1.15-.1-2.85-.79-4.17-1s-2.93-.75-4.34-1c-.93-.14-8.42-1.5-8.8-1.68.59-.88,4.91-4.53,6-5.55A62.53,62.53,0,0,0,85,71.8c3.15,0,6.74-.9,9.91-1.12,5-.35,5-.81,6.87-4.4l-9.66-3.85a27.24,27.24,0,0,1,4.05-1.11c1.52-.13,3.32-.31,4.88-.42,2.9-.21,6.93-.4,9.72-.89,3.09-.55,6.52-.45,9.63-1s6.54-.43,9.63-1c1.19-.21,3.55-.42,4.66-.5,1.74-.13,3.25-.4,4.89-.41.8,0,3.9-.31,4.83-.48,1.5-.27,3.29-.36,4.81-.5,3.1-.28,6.59-.82,9.63-1s6.75-.91,9.63-1c.61,1.27,1.16,3.87,1.65,5.33.56,1.67,1.24,3.62,1.7,5.28,1,3.51,5.34,4.23,9.91,4.1l7.69-.33L191.13,52c5.56,0,4.33-2.41,4.33-7.26V41.07c0-.17,17.29-35.89,18.15-36.88V3.91L200.49,2.83l-4.34.1c-3.25,0-4.39,1.67-6.25,3.25-1.63,1.39-3.44,3.13-5.12,4.38a61.63,61.63,0,0,0-5.14,4.35c-1.53,1.47-3.67,2.83-5.17,4.33s-3.55,2.87-5.17,4.33-3.4,3-5.15,4.34c-3.5,2.76-6.83,5.75-13.1,5.75H131.51c-2.06,0-7-1.45-9.48-1.83-3-.47-6.35-1.27-9.42-1.89-3.24-.65-6.32-1.21-9.47-1.84S96.7,27,93.68,26.26l-1.43-13c-.1-1.24,3.38-2.12,4.46-2.56,1.59-.65,3.48-1.12,5.16-1.68,1.88-.63,8.92-3.09,9.41-4.42-1.94,0-6.71-1.06-8.9-1.43-2.81-.47-6-1-9-1.36s-6.29-.54-9.32-1c-1-.15-9.24-.71-9.38-.81H63.94c-.43.27-3.6.33-4.46.43-1.22.13-2.79.48-4,.75a22.78,22.78,0,0,0-3.71,1C51,2.53,49,3.68,48.58,3.77c1.21,1.81,5.75,4,8.29,4.69A35.65,35.65,0,0,0,62,9.77c1,.11,5,.53,5,1.4v.14c0,1.16-4.58,8.58-5,10.48a25.73,25.73,0,0,0-9.82,2.61c-2,1-2.13,1.18-5.12,1.17a39.92,39.92,0,0,0-5.95.19c-1.82.33-3.84.27-5.7.59s-3.52.42-5.28.87c-2.81.71-7.21,1.79-8.35,3.94,1.15,1.32,4.9,3,7.12,3.21v.28a59.31,59.31,0,0,0-8.17,2.44c-2.58,1-5.07,1.89-7.59,2.88a58.91,58.91,0,0,0-7,3.45c-1.27.72-2.08,1.24-3.26,2C2.23,45.88.28,47.67,0,47.77ZM108.48,44.7c1.11,0,2.51-.84,2.51-2V42.6c0-.77-1.55-1.68-2.51-1.68h-.28c-1.2,0-2.65.7-2.65,1.82v.14c0,1,1.44,1.82,2.51,1.82ZM73,43c2.49,0,5,.43,7.38.42a62.28,62.28,0,0,1,7.37.31c2.06.32,5.25,0,7.35.33,1.2.22,6.92.53,6.92-.36a35.74,35.74,0,0,0-.61-4.14c-.37-1.16-2.15-1-3.41-1.34-2.45-.61-5.44-1-8-1.5S84.55,35.66,82,35.33c-2.27-.29-5.91-1.38-8.13-1.38L73,43Z"/></g></g></svg>