<svg xmlns="http://www.w3.org/2000/svg" viewBox="0 0 127.97 58.41"><defs><style>.cls-1{fill:#231f20;fill-rule:evenodd;}</style></defs><title>C340</title><g id="Layer_2" data-name="Layer 2"><g id="Layer_1-2" data-name="Layer 1"><path class="cls-1" d="M39.05,58.41l.69-.46c.39-.16.88-.12,1.31-.28A62.08,62.08,0,0,1,67.94,55.8c1.68.12,3.29.25,4.91.35L74.53,56l1.47.23.39.23c.81,0,1.54.53,2.33.32.53.25,1-.16,1.47,0,.51,0,.9-.16,1.41-.21a2.29,2.29,0,0,1,1.15-.53A1,1,0,0,0,82.57,55c-.67-.69-1.75-.94-2.21-1.66a.57.57,0,0,1,.39-.37,17.6,17.6,0,0,0,2.95.6c2,.25,3.89.18,5.81.32.94.07,1.73-.14,2.67-.07,1.41.14,2.65,0,4,0,.71,0,1.38,0,2-.09a21.67,21.67,0,0,0,2.42.07,12.1,12.1,0,0,0,3.87-.16,53.75,53.75,0,0,0,7.74-1.31.82.82,0,0,1,.16.23s.12,0,.16.07a.55.55,0,0,0,.23-.07c.23-.39-.16-.81-.16-1.29a6,6,0,0,1-.32-.67c-.92-1.84-2.79-2.81-4.15-4.22-.37-.46-.9-.67-1.06-1.22a1.09,1.09,0,0,0,.12-.14,9.73,9.73,0,0,0,5.14-.25,1,1,0,0,0,.37-.6c-.37-.71-1.34-1-1.91-1.64l.28-.55-.12-.37c.09-.51-.3-.9-.48-1.41-.58-1-1.64-1-2.49-1.52a31,31,0,0,0-3.43-.67.21.21,0,0,1-.16-.12.19.19,0,0,1,.09-.16l11.89-6.11a47.87,47.87,0,0,0,8.92-1.2c1-.23,1.8-.48,2.63-.76a.52.52,0,0,0,0-.41.64.64,0,0,0-.18-.14c-.41-.92-1.59-1.41-2.33-2-1.57-.94-3.76-1.06-5.51-1.73-4.1-1-8.2-1-12.26-1.47-2.05-.09-4-.28-6.06-.28a10.38,10.38,0,0,1-1.91-.07c-.07,0-.16.07-.16.16l4.33,4.42.76.9c-4.45,2-9.05,3.53-13.8,5.11h-.16A15.26,15.26,0,0,0,85.87,31a2.82,2.82,0,0,1-1.7-.44l-.92-.21c-2,.23-4.15-.6-6.2-.62-.55-.12-.94-.12-1.41-.23-3.25-.48-6.45-.85-9.63-1.36-1.22-1.06-1.57-2.9-3.23-3.46a1.53,1.53,0,0,0-.25.09.56.56,0,0,0,.07.62,10.43,10.43,0,0,1,1.15,2.33c-7.67-.67-15.64-2.4-23.36-3.87-.07-.09.07-.09.16-.16l5.62-2.33c0-.14-.12-.16-.21-.23s-.14-.09-.16-.23l-5.51-.41-4.68.67-3.48.71c-.16-.18-.41-.16-.71-.18-.69-.58-1.43-1.57-2.17-2.19a37.49,37.49,0,0,1-3.34-4.79c-.74-1.06-1.17-2.14-1.84-3.2C22.69,9.31,21.4,7.05,20,5c-.55-.65-.88-1.18-1.36-1.73A9,9,0,0,0,16.08.67,21.23,21.23,0,0,1,13.34.23,12.19,12.19,0,0,0,11.59,0a.19.19,0,0,0-.16.09c1.15,6.24,3,12.88,4.19,19.15.18.6.3,1.13.41,1.66a29.47,29.47,0,0,1,.74,3.66c-1.41.67-3.2.83-4.75,1.45-4,1.36-8.25,2.47-12,3.92l.09.32a6.3,6.3,0,0,0,2.58,1c5,1.66,10.25-1.43,15.41-1.66.25,1.22,1.31,1.59,2.56,2,3,.94,5.51,2.67,8.87,3,.51.23,1,.23,1.47.41s1.5.48,2.21.55c2.1.76,4.54.85,6.29,2,.46,0,.62.25,1.06.25.48.41.92.44,1.34.83.81.39,1.36.85,2.05,1.27.51.58,1.24.71,1.87,1.13,1.94,1.24,4.47,1.89,6.5,3,.69.28,1.27.62,1.94.92a3.8,3.8,0,0,1,1.54.81s0,.12,0,.16a7.89,7.89,0,0,1-2.95.21c-.37.25-.85-.12-1.31.07-.67-.12-1.31.23-1.94.16a60.72,60.72,0,0,0-6.38.9,2.52,2.52,0,0,0-.65.39c0,.12-.12.18-.25.28v.25l.07.09A4,4,0,0,1,45,49.65a1.3,1.3,0,0,1,0,.16s0,.09-.09.16l-9.15,2.17c-5,1.82-10-.48-14.88-.94-.83-.12-1.59-.3-2.42-.39a44.12,44.12,0,0,0-8.13-.62c-.14.07-.07.21,0,.32.37.39,1.24.3,1.71.69,1.8.69,3.46,1.52,5.3,2.23.85.41,1.82.65,2.63.94,6.11,2,12.69,3.82,18.87,4l.23,0ZM38,57.74l.69-.09a1.86,1.86,0,0,1,.09-.25l.46-.23.12-.32c-.16-.62-.69-.92-1.22-1.2-1.15-.62-2.6-1-3.8-1.52,0-.12-.07-.09-.16,0-1.22-.35-2.4-.23-3.55-.76-1.82-.37-3.62-.65-5.35-.85-1-.25-1.8-.25-2.65-.51-.88-.07-1.7-.28-2.51-.41-.58-.18-1-.09-1.52-.28-2-.23-4-.48-5.9-.55a45.3,45.3,0,0,0,5.9,2.72c.67.23,1.43.39,2.07.65a6.2,6.2,0,0,0,1.24.44,84.75,84.75,0,0,0,13.41,3c.94.09,1.8.09,2.67.16Zm40.39-1.52c1.24-.28,2.67.16,3.71-.69-.46-.74-1.41-1-2.07-1.52-1.13-.3-2-1.38-3.11-.9A2.17,2.17,0,0,0,76.4,55l.25.37v.32l1.64.55.07,0Zm-7-.71,3.11-.14c0-.12.09,0,0-.12-.41-.55-1.52-.67-2.12-1.15-1.15-.23-2.3-.65-3.29-.83a22.44,22.44,0,0,0-2.21-.58c-.85-.09-1.73-.55-2.63-.62a4.07,4.07,0,0,0-1.61-.41,23.37,23.37,0,0,0-3.89-.94c-.83-.32-1.66-.16-2.47-.48a6.72,6.72,0,0,0-1.15-.39c-2-.28-3.94-.76-5.92-.85l-3.94-.14.71.9c.09,0,.09-.07.21-.09l.32.12s.14,0,.14-.09h1.08c.07,0,.14,0,.16.09a.79.79,0,0,0,.23,0c0,.07-.21-.14,0-.09q0-.07.14-.07l.23.16c.09,0,0-.09.16-.14s.18.14.09.12a.25.25,0,0,1-.16.25,7.41,7.41,0,0,1,3.55.07,25.71,25.71,0,0,1,5.92.88c1.24.41,2.65.28,3.78.9a1.07,1.07,0,0,1,.12,1.24,5.46,5.46,0,0,1-2.19,1.43,30.86,30.86,0,0,0,8.13.76c1.24.09,2.33.12,3.55.25Zm-32.12,0,19.15-3.66c-.48-.41-1.22-.41-1.82-.67-2.88-.23-5.74-.92-8.55-.48-.71,0-1.41-.18-2,.25l-.28-.12a.5.5,0,0,0-.16-.14,17.86,17.86,0,0,0-2.19.32c-1.27.32-2.56.55-3.71.81-1.31.28-2.49.6-3.73.9a11.64,11.64,0,0,0-2.3.65,4.7,4.7,0,0,0,.67.41c1.82-.14,3.39,1.08,4.88,1.73Zm34.28-1.8a1.23,1.23,0,0,0,.23-.07s0-.07,0-.12l-.85-.3s-.07-.14-.16-.18c-2.1-.48-4.08-1.29-6.22-1.71-.51,0-.9-.28-1.41-.25-.69-.25-1.38-.3-2.05-.6-1,0-1.73-.65-2.72-.48a9,9,0,0,0-1.77-.41.85.85,0,0,1-.69-.23c-.07,0-.14.07-.23,0l1.15.41,14.72,3.94Zm16.75-.41c1.5-.14,3.06.12,4.56,0,3.09-.12,6.08.3,9,0a30.45,30.45,0,0,1,4-.58c-5.44-.92-11.36-2-16.91-3.27-2-.44-3.71-1.2-5.76-1.59a8.22,8.22,0,0,0-1.08-.25,15.93,15.93,0,0,0-3.78-.94,26,26,0,0,1-3.2-.88c-2.93-.71-6-1.31-8.82-2.21-1.31-.23-2.7-.81-3.94-.9a25.65,25.65,0,0,1-2.56-.74c-2.12-.51-4-1.29-6.11-1.7-.55-.28-1.22-.35-1.73-.62A24.56,24.56,0,0,1,51.4,39c-2-.6-3.87-1.11-5.69-1.77-.53-.12-.94-.16-1.38-.3-1.89-.74-3.69-1.08-5.51-1.75-1.29-.25-2.37-.94-3.64-1.2a10.1,10.1,0,0,0-1.8-.67c-1.47-.32-2.79-1-4.19-1.27-1.89-.69-3.64-1.31-5.44-2-.9-.09-1.5-.67-2.23-.78a3.62,3.62,0,0,0-2.7.25,1.37,1.37,0,0,0,.74,1,29.39,29.39,0,0,1,4.56,1.8,16.37,16.37,0,0,0,5.51,1.64c1.22.44,2.83.76,4.08,1.13,1.82.62,3.87.88,5.62,1.52a26.14,26.14,0,0,1,4.19,2.37,22.11,22.11,0,0,0,3.27,1.87c2.95,1.31,5.71,2.7,8.71,3.89a3.82,3.82,0,0,0,1.75.78c0,.14.16.07.25.07l.46.39a135.6,135.6,0,0,1,13.94,2.79c2.47.51,5.14.6,7.44,1.45a4.88,4.88,0,0,1,1.34,2c3.11,1.17,6.4.83,9.61,1.06Zm-15.76-.58L77,52.12c.83-.16,1.84-.65,2.67-.09.07,0,.07-.14.07-.21l-.28-.48c-.21-.14-.58-.28-.67-.6-.78-.48-1.8-.32-2.67-.69-6.52-.94-12.81-2.95-19.31-3.5-2.14.23-4.24.07-6.34.25a6.41,6.41,0,0,0-1.47.3l4.42.67c1.5.16,3.13.64,4.61.92,1.06.09,1.89.62,2.81.55a9.53,9.53,0,0,1,1.41.41c.41-.07.69.16,1,.18a10.58,10.58,0,0,0,2.21.64c1,0,1.91.48,2.88.58a4.58,4.58,0,0,0,1.38.41,26.82,26.82,0,0,0,3.55.92,7.34,7.34,0,0,0,1.17.3Zm35.85-.55.85-.23c-.85-.3-1.82-.37-2.72-.6A75.31,75.31,0,0,0,101,50c-.74-.23-1.41-.3-2.12-.46C96.72,49,94.65,48.45,92.5,48A22.16,22.16,0,0,1,90,47.42c-2.81-.55-5.46-1.54-8.16-2.14-1.17-.44-2.56-.46-3.59-1-.46,0-.85-.25-1.29-.28-.94-.28-1.89-.46-2.79-.71-1.36-.16-2.63-.76-3.78-1a25.75,25.75,0,0,0-3.59-1c-3.69-.78-7.33-1.89-10.76-2.72-.6-.53-1.57-.3-2.26-.71a9.66,9.66,0,0,0-2.14-.6c-2.05-.53-3.94-1-5.83-1.61-2.6-.83-5.18-1.64-7.63-2.53a46.24,46.24,0,0,1-6.52-1.89l-8.06-2.72-1.24.25c.18.3.69.32,1,.58,1.41.16,2.4,1,3.64,1.22a9.37,9.37,0,0,0,2.19.71c.07,0,.07.07.16.16.69.16,1.38.41,2.07.6.35.23.81.3,1.08.46.55.16,1,.18,1.47.37,1.66.55,3.39,1.29,5.11,1.73a12.85,12.85,0,0,0,3.2.9c.46.41,1.22.32,1.7.67a26.26,26.26,0,0,1,2.88.81c1.47.67,3.11.83,4.63,1.41a18,18,0,0,1,4,1.13,11.13,11.13,0,0,0,1.31.35,7.55,7.55,0,0,0,1.47.35c1.64.55,3.36,1,5,1.52,1.73.3,3.46.83,5.18,1.17.9.32,1.73.48,2.6.83a.57.57,0,0,0,.16,0l2.33.58c1,.12,2.19.58,3.23.67a36.21,36.21,0,0,0,4.29,1.17c1.31,0,2.28.71,3.5.9a20.48,20.48,0,0,1,3.11.78,7.65,7.65,0,0,1,1.17.41c.48,0,.85.35,1.31.35a8.94,8.94,0,0,0,1.47.44,2.72,2.72,0,0,1,1,.23c3.11.6,6.11,1.22,9.28,1.75,1.11.28,2.19.37,3.39.69,1.38,0,2.7.44,4,.21a3.31,3.31,0,0,1,1,.32Zm.92-1h.48c-.18-1.13-1.31-2.05-2.17-2.86-2.58-2.05-4.82-4.47-7.53-5.94a23.44,23.44,0,0,0-4.82-2.12c-1.2-.32-2.05-.69-3.18-1.08-.18-.09-.3-.32-.48-.32a11.56,11.56,0,0,1-1.31.74,1.37,1.37,0,0,1-1.22-.46c-1.17-1.2-2.17-2.23-3.34-3.39-.25-.12-.46-.12-.58-.44L85,33.52l-.39,0c-.07,0-.07-.09-.14-.18s-.09-.09-.16-.16l-.16-.32c0-.28.44-.58.71-.74.44-.18.92,0,1.29-.18-.74-.65-2.21-.62-3.18-.9-1.38,0-2.63-.58-3.94-.62-4.22-.67-8.34-1.11-12.51-1.73-.41,0-.92,0-1.11-.28A21.4,21.4,0,0,0,63.75,26a.88.88,0,0,0-.25-.25c.23.81.9,1.41.94,2.35-.12.18-.23.35-.37.37-.67-.18-1.41-.3-2.14-.44C59.49,27.58,57,27.4,54.7,27h-.23l-12.69-2.3-10-2a.39.39,0,0,1-.14-.18c-2.1-1.31-3-4.17-5.6-4.86-.69-.18-1.52-.18-1.91-.9-.6-1.13-1.34-2.21-1.84-3.32-.62-.85-.85-1.89-1.36-2.72-.28-1.47-1.22-2.26-1.8-3.5L19.26,7l1.64.67c-.53-1.57-2.07-2.76-2.95-4.35C16.91,2.44,16.1,1,14.56,1c-.51-.16-.85-.16-1.27-.28S12.51.56,12.19.56c.65,5.41,2.3,10.94,3.53,16.38.07,1,.48,2,.62,2.95a23.83,23.83,0,0,0,1.31,4.93,55.3,55.3,0,0,0,5.94.53,20,20,0,0,1,4.19,1.15c.25.16.48.41.69.46s0,.28,0,.37L25,28.18c.14.21.39.25.58.37.55.09.94.32,1.38.37,2.49,1,5,1.52,7.23,2.56,1.66.48,3.39.81,5,1.29a28.42,28.42,0,0,0,2.72,1,18.59,18.59,0,0,1,2.42.69c.6.28,1.24.35,1.77.62.69.16,1.31.37,2,.55.55.28,1.13.23,1.64.48a3.71,3.71,0,0,1,1.68.51,8.55,8.55,0,0,1,2.47.55c1,.51,2.21.25,3,.88a81.82,81.82,0,0,0,8.55,2.21c.37.23.71.14,1,.3l9.63,2.65c1.22,0,2.51.67,3.62.88s2.14.51,3.11.76c1.66.23,3,1,4.61,1.31.39.23.83.07,1.15.28,2,.55,4,.94,6,1.41a21,21,0,0,1,3.25.9c.81,0,1.52.3,2.26.39l6.27.92a1.09,1.09,0,0,1,.62.25l4.26.78Zm-55-1.89.78,0A24.08,24.08,0,0,0,50.18,48c-.83-.09-1.5-.18-2.3-.3a12.12,12.12,0,0,0-4.47.09c1.89.51,4.05-.09,6.11.28,2.3.14,4.47.81,6.66,1.08l.12.07,0,0Zm52.74-4.65,2.53-.3c.07,0,.07-.14,0-.23a6.24,6.24,0,0,0-3.57-1.61c-.32,0-.62-.12-.94-.09a.44.44,0,0,0-.28.32l.12,1.24c.48.46,1.41.46,2.12.67Zm-4.38-1.34c.07-.81.78-.9,1.27-1.41a8.35,8.35,0,0,1,1.24-.35l.46-.3,1.84,0,.58.51a.34.34,0,0,1,.12-.18,2.26,2.26,0,0,0-1-1.61,8.78,8.78,0,0,1-1.8-.67,56.45,56.45,0,0,0-5.67-1,8.38,8.38,0,0,0-2.23-.62c-1.13-.12-2.23-.37-3.23-.44-.51-.16-.92-.16-1.36-.3a6.19,6.19,0,0,0-1.71-.21c-.28.25.25.58.37.83.41.44.62.67,1,1,.58.48,1.5.53,2.07.92,1.13.35,2.19.71,3.18,1.06,1.36.74,2.72,1.43,4,2.26a3.72,3.72,0,0,0,.78.58l0,0Zm-21.54-2.3a7.4,7.4,0,0,1,1.89,0c.58-.18,1-.09,1.54-.28a6.18,6.18,0,0,0,1.36-.32l.41-.23c.48,0,1.22,0,1.52-.48a2,2,0,0,0-.53-1.54,39.57,39.57,0,0,0-4.65-4.4c-.16-.07-.14-.21-.3-.25-.6,0-1.22-.94-2-.41-.88.76-2.26,1-2.49,2.42a11.14,11.14,0,0,0,.35,2.65c.48.85.53,2.17,1.47,2.47a7.83,7.83,0,0,0,1.36.39Zm-3.94-.76.62,0a.65.65,0,0,0,.09-.12c.09-.81-.46-1.57-.46-2.51-.18-1,0-2.07-.67-2.83a7.08,7.08,0,0,0-4.26,0,2.12,2.12,0,0,0-1.15,1.54,1.79,1.79,0,0,0,.3,1.75,5.67,5.67,0,0,0,3,1.7c.58.07,1.15.07,1.59.16s.62.25.9.32ZM68.57,37.51a2.25,2.25,0,0,0,1.64-1.15A1.6,1.6,0,0,0,70,34.77a3.45,3.45,0,0,0-2.86-1.06,2.42,2.42,0,0,0-1.24.41,1.66,1.66,0,0,0-.16,1.64,6.75,6.75,0,0,1,.48.88,3.15,3.15,0,0,0,2.3.88Zm32.72-.3,13.41-6.89c0-.09-.12-.16,0-.3a.25.25,0,0,1,.16,0c.16,0,0-.18.16-.32s.25,0,.09-.09c0-.09,0-.09.09-.21-1.75-1-4-.76-6-.58-5.55.55-10.67,3.25-15.9,5-.6.32-1.27.48-1.77.74-.09,0-.12.12-.16.25l.62.76,9.26,1.61ZM62,36.47a1.83,1.83,0,0,0,1.52-.55,2,2,0,0,0,.16-2,3.13,3.13,0,0,0-1.82-1.31,2.45,2.45,0,0,0-2.17.76c-.28.55-.53,1.27-.14,1.68A4.58,4.58,0,0,0,62,36.47Zm-6.34-1.31,1.15-.07a2,2,0,0,0,.94-1.66,2.21,2.21,0,0,0-1.27-1.57,2,2,0,0,0-2,0c-.16.16-.28.3-.44.3-.3.25-.23.76-.48,1.15A2.59,2.59,0,0,0,54.95,35a6.48,6.48,0,0,1,.71.21ZM50.83,34l1.41-.48a1.89,1.89,0,0,0-.71-2.4c-.53-.37-1.2,0-1.61.25s-.3.94-.62,1.27c.09.74.88,1,1.45,1.38l.09,0ZM5.44,31.4l.48,0c.14-.23-.23-.39,0-.67.58-.39,1.64-.32,2.33-.69,1.06-.12,2.14-.37,3.11-.51a15.37,15.37,0,0,1,3-.83c1.06-.09,2.12-.51,3.06-.51.71-.28,1.31-.28,1.89-.53.74-.07,1.41-.32,2.07-.41a29.42,29.42,0,0,0,3.76-.81c-.07-.28-.65-.28-.92-.41-2.44-.21-4.77-.44-7.14-.62a22,22,0,0,0-4.75,1C8.48,27.23,4.68,28.82.88,30c.6.76,1.94.74,2.95,1.2a8.49,8.49,0,0,1,1.61.23Zm111.76-.53a19.38,19.38,0,0,0,3.48-.28,13.64,13.64,0,0,0,1.36-.3,18.35,18.35,0,0,0,4.86-1,.28.28,0,0,0,.09-.09,1.11,1.11,0,0,0-.65-.65l-.23-.23c-.94-.39-1.59-1.24-2.81-1.34a9.64,9.64,0,0,0-1.59-.46c-.48-.07-.9-.21-1.31-.25L120,26c-5.37-1.15-10.67-1.34-16.1-1.68a9.35,9.35,0,0,0-3-.07l4.52,4.45c3.55-.39,7.76-1.59,10.85.53a.7.7,0,0,1,.14.25l.78.53c-.07.28-.25.53-.09.85ZM38,23.36l.12,0a.7.7,0,0,1,.58-.48c.71-.3,1.59-.48,2.3-.74.55-.35,1.24-.41,1.75-.76-2.33-.83-5.18.25-7.6.35-.67.41-1.38.23-1.89.58L38,23.36Z"/></g></g></svg>