<svg xmlns="http://www.w3.org/2000/svg" viewBox="0 0 553.07 195.72"><defs><style>.cls-1,.cls-2,.cls-3{fill:#fff;}.cls-1,.cls-2,.cls-23,.cls-39,.cls-40{stroke:#231f20;}.cls-1{stroke-width:2px;}.cls-4{fill:#f2f2f3;}.cls-5{fill:#e7e8e9;}.cls-6{fill:#dcddde;}.cls-7{fill:#d1d3d4;}.cls-8{fill:#c5c7c9;}.cls-9{fill:#babcbe;}.cls-10{fill:#b0b2b5;}.cls-11{fill:#a6a8aa;}.cls-12{fill:#9a9c9f;}.cls-13{fill:#909295;}.cls-14{fill:#86888b;}.cls-15{fill:#7b7d7f;}.cls-16{fill:#717375;}.cls-17{fill:#67686b;}.cls-18{fill:#5d5e61;}.cls-19{fill:#525355;}.cls-20{fill:#444446;}.cls-21{fill:#373537;}.cls-22,.cls-39,.cls-40{fill:#231f20;}.cls-23{fill:none;}.cls-24{fill:#c1c2c5;}.cls-25{fill:#bcbec0;}.cls-26{fill:#d6d8d9;}.cls-27{fill:#fcfcfc;}.cls-28{fill:#f6f7f7;}.cls-29{fill:#eff0f0;}.cls-30{fill:#eeeeef;}.cls-31{fill:#ebeced;}.cls-32{fill:#e9eaeb;}.cls-33{fill:#e4e5e6;}.cls-34{fill:#e3e4e5;}.cls-35{fill:#e0e1e2;}.cls-36{fill:#dee0e1;}.cls-37{fill:#dadcdd;}.cls-38{fill:#d8d9db;}.cls-39{stroke-width:0.21px;}.cls-41{fill:#908683;}.cls-42{fill:#8a827f;}.cls-43{fill:#857d7a;}.cls-44{fill:#807876;}.cls-45{fill:#7b7573;}.cls-46{fill:#77716f;}.cls-47{fill:#716c6b;}.cls-48{fill:#6d6867;}.cls-49{fill:#676363;}.cls-50{fill:#625e5e;}.cls-51{fill:#5d5959;}.cls-52{fill:#575353;}.cls-53{fill:#524e4e;}.cls-54{fill:#4b4849;}.cls-55{fill:#444242;}.cls-56{fill:#3e3c3c;}.cls-57{fill:#373435;}.cls-58{fill:#2d2b2c;}</style></defs><title>C402</title><g id="Layer_2" data-name="Layer 2"><g id="Layer_1-2" data-name="Layer 1"><path class="cls-1" d="M524.65,76l18.29-47.45c.43-1.37,11.74-27,8.57-27.43C536.74,1,483.9.54,482.1,3.13L454.66,29.92c-15.33,15.77-40.46,36.86-47.52,39.17-11.81,4.25-31.82,4-49,4-16.27-.07-62,1.94-75,2.23l29.88,4,21.67,12.17,158.83,16.7,20.74-4.25Z"/><line class="cls-2" x1="469.35" y1="97.17" x2="471.44" y2="94.72"/><line class="cls-2" x1="467.77" y1="89.68" x2="488.86" y2="59.87"/><line class="cls-2" x1="493.76" y1="60.66" x2="494.98" y2="58.65"/><polyline class="cls-2" points="506.65 1.19 494.19 20.05 514.78 20.05 514.07 21.85"/><polyline class="cls-2" points="513.99 21.85 516.44 25.96 515.07 28.41 509.67 27.9 491.6 54.97 494.91 58.65"/><line class="cls-2" x1="493.83" y1="60.59" x2="488.79" y2="59.87"/><line class="cls-2" x1="530.77" y1="59.73" x2="513.56" y2="59.15"/><polyline class="cls-2" points="530.77 60.01 513.71 59.01 491.82 99.47 514.57 103.29"/><line class="cls-2" x1="467.84" y1="89.75" x2="471.37" y2="94.86"/><polygon class="cls-1" points="488.94 114.01 488.43 120.85 472.02 118.26 488.94 114.01"/><path class="cls-1" d="M514.21,104.29c5,.86,4,5.33-32.69,13L294.75,156.64s-76.61,2.16-95.47.43H83.5c-15,0-60-3.17-81.94-18.79,31.1-29.45,150.48-39,142.06-35.14,4.61-4,34.2-28.37,63.94-29.09,3.1,0,53.21,1.44,89,1.66a221.19,221.19,0,0,1,27.65,1.73l169.63,23.69Z"/><path class="cls-3" d="M163.35,106.09a11.09,11.09,0,0,0,5.54-1.87c2.16-1.37,5.62-5.69,8.78-9.94Z"/><path class="cls-4" d="M163.35,106.09a8,8,0,0,1-1.3-.14l17.71-14.54c-.72.94-1.37,1.87-2.09,2.88Z"/><path class="cls-5" d="M162.06,106a7.53,7.53,0,0,1-1.15-.43l21-17.14c-.65.86-1.37,1.94-2.09,3Z"/><path class="cls-6" d="M160.91,105.52h-.07c-.22,0-.65-.07-1.22-.14L183.73,85.5c-.43.65-1.08,1.66-1.87,2.88Z"/><path class="cls-7" d="M159.61,105.37l-1.22-.22,27.14-22.32a19.31,19.31,0,0,1-1.8,2.66h0Z"/><path class="cls-8" d="M158.39,105.16q-.54-.11-1.3-.22l29.16-24a4.62,4.62,0,0,1-.72,1.94Z"/><path class="cls-9" d="M157.09,104.94a11.65,11.65,0,0,1-1.37-.29l30.53-25a3.47,3.47,0,0,1,0,1.22Z"/><path class="cls-10" d="M155.72,104.65l-1.15-.22,31.32-25.7a5,5,0,0,1,.36.94Z"/><path class="cls-11" d="M154.57,104.44l-1.3-.22,30.6-25.13c.58-.22,1.22-.5,1.87-.72.07.14.14.22.14.36Z"/><path class="cls-12" d="M153.27,104.22a8.31,8.31,0,0,0-1.3-.29l28.58-23.47c1.08-.5,2.16-.94,3.31-1.37Z"/><path class="cls-13" d="M152,103.93l-1.22-.22,26.78-22,3-1.3Z"/><path class="cls-14" d="M150.75,103.72a8.31,8.31,0,0,0-1.3-.29l24.19-19.8c1.3-.65,2.59-1.3,3.89-1.87Z"/><path class="cls-15" d="M149.46,103.43l-1.22-.22,21.24-17.42c1.37-.72,2.74-1.44,4.18-2.16Z"/><path class="cls-16" d="M148.23,103.21a10.74,10.74,0,0,0-1.3-.29l17.78-14.47c1.51-.86,3.1-1.8,4.75-2.66Z"/><path class="cls-17" d="M146.94,102.93l-1.3-.22,12.1-9.86c2.16-1.44,4.46-2.88,7-4.39Z"/><path class="cls-18" d="M145.64,102.71a8,8,0,0,0-.94-.22,157.6,157.6,0,0,1,13-9.65Z"/><path class="cls-2" d="M160.83,105.52c2.74,1.22,5.47.29,8.06-1.3,4-2.52,12.53-15.12,14.83-18.72,2.59-3.46,3.17-4.9,2-7.13C165.22,86,150.32,98,144.7,102.49,147.08,102.93,159.47,105.52,160.83,105.52Z"/><path class="cls-3" d="M176.6,104.73c.36.86,1.73,1,2.81.86l5.69-.86Z"/><path class="cls-4" d="M176.6,104.73a1.51,1.51,0,0,1-.07-1.15h16.2l-7.63,1.15Z"/><path class="cls-5" d="M176.53,103.57a5.11,5.11,0,0,1,.65-1.22h23.62l-8.06,1.22Z"/><path class="cls-6" d="M177.18,102.35c0-.07,0-.07.07-.14s.22-.36.65-1l31.61-.07a48,48,0,0,1-7.78,1.08l-.94.14Z"/><path class="cls-7" d="M177.9,101.2c.22-.29.43-.72.72-1.15l34.63-.07a20.61,20.61,0,0,1-3.74,1.15Z"/><path class="cls-8" d="M178.62,100c.22-.36.5-.79.79-1.22l36.22-.07a12.15,12.15,0,0,1-2.38,1.22Z"/><path class="cls-9" d="M179.41,98.82c.22-.36.5-.79.79-1.3h36.72a7,7,0,0,1-1.3,1.22Z"/><path class="cls-10" d="M180.2,97.53c.29-.36.5-.79.79-1.22h36.43a3.67,3.67,0,0,1-.5,1.22Z"/><path class="cls-11" d="M181,96.3c.22-.36.5-.72.72-1.15l35.71.22v.94Z"/><path class="cls-12" d="M181.71,95.15c.29-.43.5-.79.79-1.22l35,.14c0,.58-.07,1-.07,1.3Z"/><path class="cls-13" d="M182.51,93.93c.29-.43.5-.86.79-1.22l34.27.07c0,.43-.07.86-.07,1.3Z"/><path class="cls-14" d="M183.3,92.7a10.88,10.88,0,0,0,.72-1.22l33.62.07a7,7,0,0,0-.07,1.22Z"/><path class="cls-15" d="M184,91.48a7.11,7.11,0,0,0,.79-1.22l32.83.07v1.22Z"/><path class="cls-16" d="M184.81,90.25c.29-.43.58-.86.79-1.22l32.11.07c0,.36-.07.79-.07,1.22Z"/><path class="cls-17" d="M185.6,89a13.26,13.26,0,0,0,.72-1.15l31.46-.14a8.25,8.25,0,0,0-.07,1.37Z"/><path class="cls-18" d="M186.32,87.88l.43-.65c.07-.14.22-.36.29-.5h30.74v1Z"/><path class="cls-19" d="M187,86.73c.29-.43.58-.86.86-1.22l29.81-.07a7.38,7.38,0,0,1,.07,1.3Z"/><path class="cls-20" d="M187.91,85.5a10.12,10.12,0,0,1,1.3-1.22h28.3a4.69,4.69,0,0,1,.22,1.15Z"/><path class="cls-21" d="M189.2,84.28a10.12,10.12,0,0,1,2.3-1.22h25a2.39,2.39,0,0,1,1,1.22Z"/><path class="cls-22" d="M191.51,83.05c2.45-.94,5.26-.79,7.85-.79h12.1c2.59,0,4.1.22,5,.79Z"/><path class="cls-2" d="M199.35,82.26h12.1c5.62,0,6.34,1.08,6.34,4.54-.07,2.52-.36,9-.36,9,.22,5.4-15.12,6.41-15.7,6.41l-22.32,3.38c-1.8.29-4.25-.36-2.16-3.38l9.5-15C189.63,81.9,194.89,82.26,199.35,82.26Z"/><path class="cls-23" d="M290.72,80.32h28.66a1.91,1.91,0,0,1,1.87,1.87v62.57a1.89,1.89,0,0,1-1.87,1.8H290.72a1.83,1.83,0,0,1-1.8-1.8V82.19A1.84,1.84,0,0,1,290.72,80.32Z"/><polygon class="cls-8" points="444.37 109.48 443.65 108.9 484.47 108.9 489.66 109.19 490.09 109.48 444.37 109.48"/><polygon class="cls-24" points="443.65 108.9 442.93 108.33 474.18 108.33 484.47 108.9 443.65 108.9"/><polygon class="cls-25" points="442.93 108.33 440.55 106.45 474.18 108.33 442.93 108.33"/><path class="cls-2" d="M31.09,121.5l-.22,28.94Z"/><polygon class="cls-26" points="37.5 151.24 37.5 150.73 37.93 150.37 38.51 150.37 37.5 151.24"/><polygon class="cls-7" points="37.5 150.73 37.5 150.37 37.93 150.37 37.5 150.73"/><path class="cls-3" d="M231.75,98.32a2.09,2.09,0,0,0,1.73.79h18.65a2.09,2.09,0,0,0,1.73-.79Z"/><path class="cls-4" d="M231.75,98.32a1.71,1.71,0,0,1-.43-.79h23a1.72,1.72,0,0,1-.43.79Z"/><path class="cls-5" d="M231.32,97.53a2.58,2.58,0,0,1-.14-.79h23.26a2.58,2.58,0,0,1-.14.79Z"/><polygon class="cls-6" points="231.18 96.73 231.18 96.73 231.18 95.94 254.43 95.94 254.43 96.73 231.18 96.73"/><rect class="cls-7" x="231.18" y="95.15" width="23.26" height="0.79"/><rect class="cls-8" x="231.18" y="94.36" width="23.26" height="0.79"/><rect class="cls-9" x="231.18" y="93.57" width="23.26" height="0.79"/><rect class="cls-10" x="231.18" y="92.77" width="23.26" height="0.79"/><rect class="cls-11" x="231.18" y="91.98" width="23.26" height="0.79"/><rect class="cls-12" x="231.18" y="91.12" width="23.26" height="0.86"/><rect class="cls-13" x="231.18" y="90.33" width="23.26" height="0.79"/><rect class="cls-14" x="231.18" y="89.53" width="23.26" height="0.79"/><rect class="cls-15" x="231.18" y="88.74" width="23.26" height="0.79"/><rect class="cls-16" x="231.18" y="87.95" width="23.26" height="0.79"/><rect class="cls-17" x="231.18" y="87.16" width="23.26" height="0.79"/><rect class="cls-18" x="231.18" y="86.37" width="23.26" height="0.79"/><rect class="cls-19" x="231.18" y="85.57" width="23.26" height="0.79"/><path class="cls-20" d="M231.18,85.57v-.14a2,2,0,0,1,.07-.65h23.11a2,2,0,0,1,.07.65v.14Z"/><path class="cls-21" d="M231.25,84.78a2.71,2.71,0,0,1,.5-.86h22.1a2.71,2.71,0,0,1,.51.86Z"/><path class="cls-22" d="M231.75,83.92a2.09,2.09,0,0,1,1.73-.79h18.65a2.09,2.09,0,0,1,1.73.79Z"/><path class="cls-2" d="M233.48,83.13h18.65a2.28,2.28,0,0,1,2.31,2.3v11.3a2.29,2.29,0,0,1-2.31,2.38H233.48a2.29,2.29,0,0,1-2.3-2.38V85.43A2.27,2.27,0,0,1,233.48,83.13Z"/><path class="cls-3" d="M262.06,97.74a2.61,2.61,0,0,0,1.87.72h20.45a2.93,2.93,0,0,0,1.94-.72Z"/><path class="cls-4" d="M262.06,97.74a2.62,2.62,0,0,1-.5-.72h25.27a2.6,2.6,0,0,1-.5.72Z"/><path class="cls-5" d="M261.56,97a2.59,2.59,0,0,1-.14-.79H287a2.55,2.55,0,0,1-.14.79Z"/><polygon class="cls-6" points="261.42 96.23 261.42 96.23 261.42 95.44 286.98 95.44 286.98 96.23 261.42 96.23"/><rect class="cls-7" x="261.42" y="94.65" width="25.56" height="0.79"/><rect class="cls-8" x="261.42" y="93.85" width="25.56" height="0.79"/><rect class="cls-9" x="261.42" y="93.06" width="25.56" height="0.79"/><rect class="cls-10" x="261.42" y="92.27" width="25.56" height="0.79"/><rect class="cls-11" x="261.42" y="91.48" width="25.56" height="0.79"/><rect class="cls-12" x="261.42" y="90.69" width="25.56" height="0.79"/><rect class="cls-13" x="261.42" y="89.89" width="25.56" height="0.79"/><rect class="cls-14" x="261.42" y="89.1" width="25.56" height="0.79"/><rect class="cls-15" x="261.42" y="88.31" width="25.56" height="0.79"/><rect class="cls-16" x="261.42" y="87.52" width="25.56" height="0.79"/><rect class="cls-17" x="261.42" y="86.73" width="25.56" height="0.79"/><rect class="cls-18" x="261.42" y="85.93" width="25.56" height="0.79"/><rect class="cls-19" x="261.42" y="85.14" width="25.56" height="0.79"/><path class="cls-20" d="M261.42,85.14v-.07a2.13,2.13,0,0,1,.14-.72h25.27a2.1,2.1,0,0,1,.14.72v.07Z"/><path class="cls-21" d="M261.56,84.35a1.88,1.88,0,0,1,.5-.79h24.19a2,2,0,0,1,.58.79Z"/><path class="cls-22" d="M262.06,83.56a2.61,2.61,0,0,1,1.87-.72h20.45a2.6,2.6,0,0,1,1.87.72Z"/><path class="cls-2" d="M263.94,82.84h20.45A2.43,2.43,0,0,1,287,85.07V96.23a2.38,2.38,0,0,1-2.59,2.23H263.94a2.32,2.32,0,0,1-2.52-2.23V85.07A2.36,2.36,0,0,1,263.94,82.84Z"/><path class="cls-3" d="M322.76,96.81a1.69,1.69,0,0,0,1.3.58h13.75a1.69,1.69,0,0,0,1.3-.58Z"/><path class="cls-4" d="M322.76,96.81a1.58,1.58,0,0,1-.36-.58h17.06a1.58,1.58,0,0,1-.36.58Z"/><path class="cls-5" d="M322.4,96.23c0-.22-.07-.43-.07-.65h17.21c0,.22-.07.43-.07.65Z"/><polygon class="cls-6" points="322.33 95.58 322.33 95.58 322.33 94.93 339.54 94.93 339.54 95.58 322.33 95.58"/><rect class="cls-7" x="322.33" y="94.36" width="17.21" height="0.58"/><rect class="cls-8" x="322.33" y="93.71" width="17.21" height="0.65"/><rect class="cls-9" x="322.33" y="93.06" width="17.21" height="0.65"/><rect class="cls-10" x="322.33" y="92.49" width="17.21" height="0.58"/><rect class="cls-11" x="322.33" y="91.84" width="17.21" height="0.65"/><rect class="cls-12" x="322.33" y="91.19" width="17.21" height="0.65"/><rect class="cls-13" x="322.33" y="90.61" width="17.21" height="0.58"/><rect class="cls-14" x="322.33" y="89.97" width="17.21" height="0.65"/><rect class="cls-15" x="322.33" y="89.32" width="17.21" height="0.65"/><rect class="cls-16" x="322.33" y="88.74" width="17.21" height="0.58"/><rect class="cls-17" x="322.33" y="88.09" width="17.21" height="0.65"/><rect class="cls-18" x="322.33" y="87.45" width="17.21" height="0.65"/><rect class="cls-19" x="322.33" y="86.87" width="17.21" height="0.58"/><path class="cls-20" d="M322.33,86.87V86.8a1.6,1.6,0,0,1,.07-.58h17.06a1.58,1.58,0,0,1,.07.58v.07Z"/><path class="cls-21" d="M322.4,86.22a3,3,0,0,1,.36-.65H339.1a3,3,0,0,1,.36.65Z"/><path class="cls-22" d="M322.76,85.57a1.69,1.69,0,0,1,1.3-.58h13.75a1.69,1.69,0,0,1,1.3.58Z"/><path class="cls-2" d="M324.06,85h13.75a1.72,1.72,0,0,1,1.73,1.8v8.78a1.72,1.72,0,0,1-1.73,1.8H324.06a1.72,1.72,0,0,1-1.73-1.8V86.8A1.72,1.72,0,0,1,324.06,85Z"/><path class="cls-3" d="M345.08,96.23a2.25,2.25,0,0,0,1.3.5,67.83,67.83,0,0,0,7.78-.5Z"/><path class="cls-4" d="M345.08,96.23a3.19,3.19,0,0,1-.43-.5h15a.91.91,0,0,1-.5.29,48,48,0,0,0-5,.22Z"/><path class="cls-5" d="M344.65,95.73a1.35,1.35,0,0,1-.14-.58l15.77.07a3.17,3.17,0,0,1-.58.5Z"/><path class="cls-6" d="M344.51,95.15h0v-.58h16.34a4.64,4.64,0,0,1-.58.65Z"/><path class="cls-7" d="M344.51,94.57v-.5h16.78a3,3,0,0,1-.43.5Z"/><path class="cls-8" d="M344.51,94.07v-.58h17.28c-.22.22-.36.43-.5.58Z"/><path class="cls-9" d="M344.51,93.49v-.58h17.71c-.14.22-.29.36-.43.58Z"/><path class="cls-10" d="M344.51,92.92v-.58h18.07c-.14.22-.22.36-.36.58Z"/><path class="cls-11" d="M344.51,92.34v-.5h18.36c-.07.14-.22.36-.29.5Z"/><path class="cls-12" d="M344.51,91.84v-.58h18.72c-.14.22-.22.36-.36.58Z"/><path class="cls-13" d="M344.51,91.26v-.58h19a1.46,1.46,0,0,0-.29.58Z"/><path class="cls-14" d="M344.51,90.69v-.5h19.15a1.85,1.85,0,0,1-.14.5Z"/><path class="cls-15" d="M344.51,90.18v-.58h19.37a5.16,5.16,0,0,0-.22.58Z"/><path class="cls-16" d="M344.51,89.61V89L364,89c-.07.22-.07.43-.14.65Z"/><path class="cls-17" d="M344.51,89v-.58L364,88.38V89Z"/><path class="cls-18" d="M344.51,88.45V88l19.44-.07c0,.22.07.36.07.5Z"/><path class="cls-19" d="M344.51,88v-.58l19.08-.07a2.56,2.56,0,0,1,.36.58Z"/><path class="cls-20" d="M344.51,87.37V87.3a1,1,0,0,1,.14-.5l18-.07a2.31,2.31,0,0,1,.94.58Z"/><path class="cls-21" d="M344.65,86.8a2.48,2.48,0,0,1,.65-.58H356l5.47.29a2.74,2.74,0,0,1,1.15.22Z"/><path class="cls-22" d="M345.3,86.22a5.46,5.46,0,0,1,1.08-.5l9.65.5Z"/><path class="cls-2" d="M346.38,85.72l15.12.79c6.41.36-1.3,9.5-2.3,9.5-5.62,0-7.2.72-12.82.72a1.82,1.82,0,0,1-1.87-1.58V87.3C344.51,86.37,346.23,85.72,346.38,85.72Z"/><path class="cls-3" d="M293.53,97.31a1.84,1.84,0,0,0,1.37.58h20.66a1.75,1.75,0,0,0,1.3-.65Z"/><path class="cls-4" d="M293.53,97.31a1.71,1.71,0,0,1-.43-.79h24.26a1.47,1.47,0,0,1-.5.72Z"/><path class="cls-5" d="M293.1,96.52V95.8h24.34v.43a.54.54,0,0,1-.07.29Z"/><rect class="cls-6" x="293.1" y="95.08" width="24.34" height="0.72"/><rect class="cls-7" x="293.1" y="94.36" width="24.34" height="0.72"/><polygon class="cls-8" points="293.1 94.36 293.1 93.64 317.36 93.64 317.43 94.36 293.1 94.36"/><rect class="cls-9" x="293.1" y="92.92" width="24.26" height="0.72"/><rect class="cls-10" x="293.1" y="92.2" width="24.26" height="0.72"/><rect class="cls-11" x="293.1" y="91.48" width="24.26" height="0.72"/><rect class="cls-12" x="293.1" y="90.76" width="24.26" height="0.72"/><rect class="cls-13" x="293.1" y="90.04" width="24.26" height="0.72"/><rect class="cls-14" x="293.1" y="89.32" width="24.26" height="0.72"/><rect class="cls-15" x="293.1" y="88.6" width="24.26" height="0.72"/><polygon class="cls-16" points="293.1 88.6 293.1 87.88 317.29 87.88 317.36 88.6 293.1 88.6"/><rect class="cls-17" x="293.1" y="87.16" width="24.19" height="0.72"/><rect class="cls-18" x="293.1" y="86.44" width="24.19" height="0.72"/><path class="cls-19" d="M293.1,86.44v-.72h24.19v.72Z"/><path class="cls-20" d="M293.1,85.72V85h23.83a2.27,2.27,0,0,1,.36.72Z"/><path class="cls-21" d="M293.1,85a1.49,1.49,0,0,1,.43-.72H313.4l2,.07a2.11,2.11,0,0,1,1.51.65Z"/><path class="cls-22" d="M293.53,84.28a2.62,2.62,0,0,1,1.37-.65l18.5.65Z"/><path class="cls-2" d="M294.9,83.63l20.52.72a1.77,1.77,0,0,1,1.87,1.58l.14,10.3a2.08,2.08,0,0,1-1.87,1.66H294.9a1.76,1.76,0,0,1-1.8-1.66v-11C293.1,84.35,294.32,83.63,294.9,83.63Z"/><path class="cls-3" d="M505.86,103.72c-4.61-.29-9.14-.58-13.1-.72-16-.58-30.45-1.8-42.7-.65-2,.5-4.18.79-6,1.37Z"/><path class="cls-3" d="M505.86,103.72l2.81.22H443.29l.72-.22Z"/><path class="cls-27" d="M508.66,103.93l3.67.22H442.71l.58-.22Z"/><path class="cls-28" d="M512.34,104.15l2.73.22H442.28l.43-.22Z"/><path class="cls-28" d="M515.07,104.37l3.53.22H441.92a1.58,1.58,0,0,0,.36-.22Z"/><path class="cls-4" d="M518.6,104.58c.86.07,1.66.07,2.52.14,0,.36.07-.14.07-.14s-.65.14-1.3.29H441.49a1.5,1.5,0,0,1,.43-.29Z"/><path class="cls-29" d="M519.9,104.87l-1.08.22H441.2a1,1,0,0,1,.29-.22Z"/><path class="cls-30" d="M518.82,105.09l-.86.22h-77a1,1,0,0,1,.29-.22Z"/><path class="cls-31" d="M518,105.3l-1.15.22H440.7l.22-.22Z"/><path class="cls-32" d="M516.8,105.52c-.58.07-1.08.22-1.51.29H440.48a1,1,0,0,1,.22-.29Z"/><path class="cls-5" d="M515.29,105.81a11.81,11.81,0,0,0-1.3.22H440.34c0-.07.07-.14.14-.22Z"/><path class="cls-33" d="M514,106a.55.55,0,0,1-.29.07c-.29.07-.65.07-.94.14H440.12l.14-.14a.07.07,0,0,1,.07-.07Z"/><path class="cls-34" d="M512.77,106.24l-1.51.22H439.91c0-.07.07-.14.22-.22Z"/><path class="cls-35" d="M511.26,106.45l-1.8.22H440.12l-.22-.22h71.35Z"/><path class="cls-36" d="M509.46,106.67c-.79.07-1.58.22-2.3.29H440.48a1.24,1.24,0,0,1-.36-.29Z"/><path class="cls-6" d="M507.15,107l-1.73.22H440.77a1,1,0,0,1-.29-.22Z"/><path class="cls-37" d="M505.43,107.17l-1.66.22H441.06c-.07-.07-.22-.14-.29-.22Z"/><path class="cls-38" d="M503.77,107.39l-1.58.22h-60.7l-.43-.22Z"/><path class="cls-26" d="M502.18,107.61c-.72.07-1.44.14-2.16.29H442c-.14-.07-.36-.22-.5-.29Z"/><path class="cls-7" d="M500,107.89a316.09,316.09,0,0,1-37.3,2.3,30.91,30.91,0,0,1-4.46.07c-2.38.14-4.25-.29-7.13-.29-2.88-.72-6.55-1-9.14-2.09Z"/><path class="cls-2" d="M458.26,110.27a30.91,30.91,0,0,0,4.46-.07c19.15-.14,31-1.37,51-4.1,1.15-.22,6.77-1.3,7.49-1.51,0,0-.07.5-.07.14-8.86-.5-19.87-1.44-28.37-1.73-16-.58-30.45-1.8-42.7-.65-3.89,1-8.21,1.15-9.79,3.74,0,0-.36.29-.36.36,2.16,2.38,7.34,2.59,11.23,3.53C454,110,455.89,110.41,458.26,110.27Z"/><path class="cls-39" d="M445.16,104.22l14.26-.29c-5.76,1.22-5.69,3-.21,4l-13,.43C440.91,107,439.33,105.37,445.16,104.22Z"/><path class="cls-2" d="M272.36,150.59c11.16-1.51,53.85-5.83,54.94-8.5,0-.22-4.54-2.3-4.68-2.74-11.88-3.46-57.67-14.83-76.1-15.62-42.84-2.38-69.55-3.1-98.86.58-4,.58-10.66.94-10.94,2.45l1,18.58c.36,2.45,6,4.39,8.78,5.4,3.46,1.8,34.13,4.46,52.2,4.18C233.12,153.47,248,153.33,272.36,150.59Z"/><path class="cls-40" d="M128,88.48c-.39,11.77-.16,31.48,1.65,41.82l3.08-.55S138,101.8,134.86,91a20.12,20.12,0,0,1-.44-3.79c-1.08-8.63-1.61-7.94-2.22-8.51a3.32,3.32,0,0,0-3.59,1.38A62.89,62.89,0,0,0,128,88.48Z"/><path class="cls-40" d="M128,186.85c-.46-11.43-.3-32.54,1.59-43.35l3.08.55s3.37,27.65,2.15,38.75c-.25,2.31-.48,4.16-.69,5.65-.92,6.67-1.41,6.12-2,6.64a3.32,3.32,0,0,1-3.59-1.38A50.78,50.78,0,0,1,128,186.85Z"/><path class="cls-2" d="M136.14,145.69l-.86-18.22c-5.76,1.58-13.61,5-18.21,8.78-1.08,1-1.37,1.51.79,3.67C122.17,143.39,128.65,144.69,136.14,145.69Z"/><path class="cls-3" d="M118.64,136.41c-.14.14-.29.22-.43.36l5.18-.36Z"/><path class="cls-40" d="M139.38,131c0,.22,3.38.79,3,3.24l-.43,2.16c.14,2.45-.86,2.45-2,2.59Z"/><path class="cls-41" d="M201.87,160.24h0a1.37,1.37,0,0,0,.94.07Z"/><path class="cls-42" d="M201.87,160.24a3.32,3.32,0,0,1-.5-.5h2.38a4.71,4.71,0,0,1-.94.58Z"/><path class="cls-43" d="M201.37,159.73c-.14-.14-.29-.36-.43-.5h3.31a3.34,3.34,0,0,1-.5.5Z"/><path class="cls-44" d="M200.94,159.23c-.14-.14-.22-.29-.36-.43h4a1.9,1.9,0,0,1-.36.43Z"/><path class="cls-45" d="M200.58,158.8a3.1,3.1,0,0,0-.29-.5H205c-.07.14-.22.29-.36.5Z"/><path class="cls-46" d="M200.29,158.29a1.81,1.81,0,0,1-.29-.5h5.33a3.06,3.06,0,0,0-.36.5Z"/><path class="cls-47" d="M200,157.79a1.81,1.81,0,0,1-.29-.5h5.83a3.53,3.53,0,0,0-.22.5Z"/><path class="cls-48" d="M199.71,157.29a1,1,0,0,1-.14-.43h6c0,.07-.07.29-.07.43Z"/><path class="cls-49" d="M199.57,156.85c-.07-.14-.14-.36-.22-.5l6.26-.07a.79.79,0,0,1,0,.58Z"/><path class="cls-50" d="M199.35,156.35c-.07-.14-.14-.36-.22-.5h6a.72.72,0,0,0,.36.29l.14.14Z"/><path class="cls-51" d="M199.14,155.85a.91.91,0,0,1-.07-.43h5.62a.84.84,0,0,0,.43.43Z"/><path class="cls-52" d="M199.06,155.41a1.06,1.06,0,0,1,.07-.5h5.18a3.06,3.06,0,0,0,.36.5Z"/><path class="cls-53" d="M199.14,154.91a1.16,1.16,0,0,1,.29-.5h4.68a3.48,3.48,0,0,0,.22.5Z"/><path class="cls-54" d="M199.43,154.41c.07-.14.22-.36.29-.5H204a1.83,1.83,0,0,1,.14.5Z"/><path class="cls-55" d="M199.71,153.9a3.1,3.1,0,0,1,.5-.43h3.6c.07.14.07.29.14.43Z"/><path class="cls-56" d="M200.22,153.47a6.22,6.22,0,0,1,.72-.58l2.74.07a1.34,1.34,0,0,1,.14.5Z"/><path class="cls-57" d="M200.94,152.89a5,5,0,0,1,1.22-.43h.94a.65.65,0,0,1,.5.22c0,.07.07.22.07.29Z"/><path class="cls-58" d="M202.16,152.46a2.05,2.05,0,0,1,.94,0Z"/><path class="cls-40" d="M201.87,160.24c1.66.86,4.54-3.38,3.6-4.1-1.37-.79-1.44-2.23-1.87-3.46-1.51-1.15-5.11,1.44-4.46,3.17A10.24,10.24,0,0,0,201.87,160.24Z"/><polygon class="cls-28" points="275.1 132.09 275.89 133.02 197.84 133.02 197.91 132.09 275.1 132.09"/><polygon class="cls-28" points="275.89 133.02 276.61 133.89 197.7 133.89 197.84 133.02 275.89 133.02"/><polygon class="cls-4" points="276.61 133.89 277.33 134.82 197.63 134.82 197.7 133.89 276.61 133.89"/><polygon class="cls-29" points="277.33 134.82 278.05 135.69 197.48 135.69 197.63 134.82 277.33 134.82"/><polygon class="cls-30" points="278.05 135.69 278.77 136.62 197.41 136.62 197.48 135.69 278.05 135.69"/><polygon class="cls-31" points="278.77 136.62 279.49 137.49 197.26 137.49 197.41 136.62 278.77 136.62"/><polygon class="cls-32" points="279.49 137.49 280.28 138.42 197.19 138.42 197.26 137.49 279.49 137.49"/><polygon class="cls-5" points="280.28 138.42 280.93 139.29 197.05 139.29 197.19 138.42 280.28 138.42"/><polygon class="cls-33" points="280.93 139.29 281.65 140.15 196.98 140.15 197.05 139.29 280.93 139.29"/><polygon class="cls-34" points="281.65 140.15 282.44 141.09 196.83 141.09 196.98 140.15 281.65 140.15"/><polygon class="cls-35" points="282.44 141.09 283.09 141.95 196.76 141.95 196.83 141.09 282.44 141.09"/><polygon class="cls-36" points="283.09 141.95 283.88 142.89 196.62 142.89 196.76 141.95 283.09 141.95"/><polygon class="cls-6" points="283.88 142.89 284.6 143.75 196.54 143.75 196.62 142.89 283.88 142.89"/><polygon class="cls-37" points="284.6 143.75 285.32 144.69 196.4 144.69 196.54 143.75 284.6 143.75"/><polygon class="cls-38" points="285.32 144.69 285.97 145.48 285.97 145.55 196.33 145.55 196.4 144.69 285.32 144.69"/><polygon class="cls-26" points="285.97 145.55 286.04 146.49 196.19 146.49 196.33 145.55 285.97 145.55"/><path class="cls-7" d="M286,146.49l.29,3.6c-8.35,2.09-15.7,2.81-23.83,4.18-12.38.58-22.32,1.94-34.06,1.94-3.53,0-34.7-1.94-32.26-9.58v-.14Z"/><path class="cls-2" d="M228.44,156.21c11.74,0,21.67-1.37,34.06-1.94,8.14-1.37,15.48-2.09,23.83-4.18l-.36-4.61L270.7,126.61c-20.66-3.31-40.61-6-61.56-2.3-2.66.65-10,1.08-10.58,2.66l-2.38,19.66C193.74,154.26,224.91,156.21,228.44,156.21Z"/><path class="cls-40" d="M196.11,146.77l2.23-17.71,5.18.65c-.94,7.34-1.87,14.76-2.74,22.1C197.91,150.45,195.47,149.15,196.11,146.77Z"/><path class="cls-2" d="M252.7,133.24c18.94-.07,48.67-13.18,62.06-17.86-15.84-2.45-24.19-3.24-40.39-4.61-30.89-3.6-74-.72-90.94,1.08-5.83.94-24,3.24-30.53,7.56-.86.65-1.58,1.37,1.44,2.45,6.12,3.53,32.4,10.15,48,9.72C216.2,132.81,246.58,133.17,252.7,133.24Z"/></g></g></svg>