<svg xmlns="http://www.w3.org/2000/svg" viewBox="0 0 216.55 59.16"><defs><style>.cls-1{fill:#231f20;fill-rule:evenodd;}</style></defs><title>C404</title><g id="Layer_2" data-name="Layer 2"><g id="Layer_1-2" data-name="Layer 1"><path class="cls-1" d="M115.2,59c-7.66.19-15.09.25-21.87,0a129.7,129.7,0,0,1-18-1.57c-6.59.25-19.16.66-30.79.75-7.61.06-14.81,0-19.67-.33h0a102,102,0,0,1-16.43-4.3C4.73,52.18,1.52,50.47,0,48.47l0-.07c.07-1,3.83-3.52,9.3-5.83A66.44,66.44,0,0,1,23.84,38.3h0q6.67-.63,13.74-1t14.49-.59a60.7,60.7,0,0,1,7.31-5.74,47.15,47.15,0,0,1,7.7-3.79h0c1.74-.39,3.53-.77,5.34-1.05a34.75,34.75,0,0,1,5.41-.48h0c3.07,0,10.14.4,16.33.73l7.45.38c4.63.14,9.25.3,13.89.46l.49,0h0l7.33.29c10,.4,19.65.78,29.53,1.32h0a13.44,13.44,0,0,0,7.36-1h0l.42-.15a222.19,222.19,0,0,0,16.4-18.45c2.6-3.15,5.16-6.26,7.72-9.19l0,0h.05c3.33.15,6.88.5,10.32.85L197,1h.13l0,.12c-2.46,9.26-5.68,20.61-8.42,30.25l-1,3.36c2.64-.71,6.47-1.66,10.3-2.61,3.52-.87,7-1.74,9.63-2.43h0a52.61,52.61,0,0,1,6.06,2.32,7.53,7.53,0,0,1,2.82,1.78v.05a2.27,2.27,0,0,1-.28,1.25,2.13,2.13,0,0,1-1.08.8h0c-6.25,1.47-14,3-21.23,4.51l-8.33,1.7a1.89,1.89,0,0,1-.07.42,2,2,0,0,1-1.07,1.23,3.66,3.66,0,0,1-1.66.39,3.18,3.18,0,0,1-.84-.11l-.84-.09h0a31.91,31.91,0,0,0-3.65-.19l-10.69,3.76-8,2.84q10.24,0,20.4,0l21-.09h0l0,0a1.84,1.84,0,0,1,.35.47h0a1.31,1.31,0,0,1,.15.71,1.05,1.05,0,0,1-.31.65,1.43,1.43,0,0,1-.38.26h0c-11.89,1.17-26.78,2.44-41.65,3.59-15.57,1.2-31.12,2.28-43.2,3Zm-42-3.24a4.75,4.75,0,0,0,2.84,1h0c10.65,2.13,22.37,1.82,33.72,1.52l3.08-.08a10.15,10.15,0,0,0-1.14-.92l-.16-.12h0c-.24-.21-.45-.43-.67-.65h0l0,0-.32-.45v0a1.24,1.24,0,0,0-.16-.39v0a3.72,3.72,0,0,1-.07-.81v0c.12-.28.24-.55.36-.81h0l0,0a6.77,6.77,0,0,0,.64-.76h0c.24-.22.48-.43.73-.63h0l.28-.17h0l.11-.06,0,0,0,0,0,0c.56-.3.87-.45,1.1-.55l.35-.17h0l.7-.14.08,0h0l.08,0h0c2.15-.62,8.83-.61,14.39-.61h3.24a.24.24,0,0,1,0-.18h0a.45.45,0,0,1,0-.09c-17.65-.37-34.11-.37-51-.37H78l0-.05v0h0a2,2,0,0,1-.3-1.1,1.13,1.13,0,0,1,.57-.93h.06c10.81-.27,22.45-.28,33.3.16a221.94,221.94,0,0,1,24.72,2.17c-4.93-2-11.68-3.64-18.76-4.88A268.87,268.87,0,0,0,90,42h0a58.73,58.73,0,0,0-12.27-.31c-2.82.27-5.28.87-6.3,2A2.62,2.62,0,0,0,72,44.8,5.26,5.26,0,0,1,72.68,46v0c.39,3.58-.66,4.1-2.32,4.92l0,0a.51.51,0,0,0,0,.26,4.82,4.82,0,0,0,.81,2.08,8.68,8.68,0,0,0,2.15,2.4Zm-64-2.63a116.76,116.76,0,0,0,17,4.19c14,.71,29.31.05,43.52-.56l3.53-.15a13.64,13.64,0,0,1-2.77-2.91,4.84,4.84,0,0,1-1-2.76,8.16,8.16,0,0,1-3.8-1.08A3.71,3.71,0,0,1,63.6,47c-6.1,0-12.12,0-18.08.12s-11.94.18-17.88.39h0c-2.44,0-10.24.39-16.62.86a68.15,68.15,0,0,0-8.73,1c.31,1.16,3.22,2.51,6.94,3.78Zm161.92.46c-9.13.5-25.82,1.41-29.83,2.79,4.23-.33,8.47-.63,12.68-.93,7.61-.55,15.09-1.09,22.09-1.72.15,0,.22-.09.23-.15h0a.52.52,0,0,0-.1-.28c-1,.07-2.82.17-5.07.29Zm-98.72.51a1.86,1.86,0,0,1-.47-.87,7,7,0,0,1-.36-1.45v0l0,0a16,16,0,0,1,1.87-1.42c.34-.24.66-.46.91-.64l.06,0a3.45,3.45,0,0,1,1.17.26,7.16,7.16,0,0,1,1.34.7l0,0v.06a2.72,2.72,0,0,1-.43,1.56,6.2,6.2,0,0,1-1.1,1.17h0a4.87,4.87,0,0,1-2.36.63l-.64.06Zm104.41-1.18a1.11,1.11,0,0,0,.5.73c1.47-.15,4-.36,7-.61,5.69-.48,12.78-1.08,15.76-1.49a.69.69,0,0,0-.09-.29h0a1.24,1.24,0,0,1-.11-.29c-5.11,0-9.84,0-14.59,0l-7.79,0a.87.87,0,0,0-.51.49h0a2.07,2.07,0,0,0-.19.7,2.22,2.22,0,0,0,0,.75ZM116.9,51.55a.53.53,0,0,0-.33.28c9.93,0,19.75-.08,29.62-.13s19.81-.13,29.92-.22l.05-.08h0a1,1,0,0,0,.23-.48c-14,0-27.1.16-40,.29-6.29.07-12.53.14-18.8.19a2.77,2.77,0,0,0-.71.14ZM133,48a41.73,41.73,0,0,1,5.56,2.35c3.26.11,6.26.15,9.17.15h0c2.94,0,5.77,0,8.71-.09h0c.38-.15,1.92-.69,3.62-1.29l4.7-1.63-6.36-.1C148.61,47.23,134,47,129.5,47A32.22,32.22,0,0,1,133,48Zm-67.24.87h0A7.72,7.72,0,0,0,68.86,50a7.11,7.11,0,0,0,1.8-.26,1.77,1.77,0,0,0,.93-.53,7.88,7.88,0,0,0,.4-2.55,2.52,2.52,0,0,0-1-2.09,10.28,10.28,0,0,0-1.68-.09h-.12a8,8,0,0,0-2.49.85,7.6,7.6,0,0,0-2,1.63,2.33,2.33,0,0,0,1.06,1.86ZM13,41.91c-3.52,1.23-6.65,2.67-8.06,4,2.64-.61,6.94-1.44,11.21-2.11,3.69-.59,7.37-1.06,9.93-1.21h0c7.8,0,15.59-.23,23.37-.45s15.58-.45,23.35-.45a44.42,44.42,0,0,1,8.08-.92,67.92,67.92,0,0,1,9.39.38L105,40.75c21.36-.63,42.76-1.27,64.08-1.27v0c.6-.19,3.94-1.07,7.63-2,4.06-1,8.56-2.19,10.21-2.6.56-1.75,3.15-10.66,5.5-18.92,1.81-6.35,3.48-12.31,4-14.35-1.83-.26-3.73-.52-5.61-.71S187,.59,185.14.59c-.38.39-1.58,1.77-2.81,3.19s-2.41,2.78-2.93,3.33h.05a6.52,6.52,0,0,0,1.32,0H181l-.12.18c-4.82,7.28-13,17.35-18.32,23.93l-.22.27,0,0h-.06L154.48,31c-13.7-1-30-2.1-43.66-3.27h0c-3.21-.15-6.37-.27-9.62-.38-6.35-.23-13-.46-20.88-1h0c-1.28-.33-7,.27-10.27.86-.69.12-1.26.25-1.66.36l-.5.16c.56.09,2.6.46,4.09.83.91.23,1.62.46,1.69.66v0c0,1.6-1.88,6.57-2.74,8.86l-.2.54,0,.07h-.07c-4.1,0-8.39-.39-12.63-.77-1.88-.17-3.75-.34-5.62-.47-7.44,0-16.16.59-24,1.15l-2.21.16A62.61,62.61,0,0,0,13,41.91Zm169.16.85-2.2.38a14.52,14.52,0,0,0,1.52.23,13.83,13.83,0,0,0,2.11.08l.22-.13c.46-.26.85-.49.91-1l-2.57.4Zm4.9-5.36c-6.84,1.54-13.39,3-16.59,3.77.15.05.48.14.93.25,1.49.37,4.15.83,5.71,1.1l1.13.2c10.89-2,22.1-4.36,33.38-6.73l2.86-.6a2.27,2.27,0,0,1-.51-.18l-1.55-.75c-1.59-.75-3.56-1.64-4.19-1.82L187.07,37.4Zm-113.48.95.47-1.5c.77-2.44,2.06-6.56,2.32-7.47l0-.08h.08c2.28,0,5.24.29,8.1.57l2.11.2h.09v.09c0,.6,0,2.22-.05,3.91,0,1.52-.11,3.1-.19,4.08v.1h-.1c-.93,0-2.69,0-4.63.1-3.12.09-6.73.19-8.13.12h-.14l0-.13Zm15.88-.55c0-.8.08-2.25.14-3.68s.12-2.71.13-3.46v-.11h.11c1.46,0,4,.09,6.57.18,1.69.06,3.38.12,4.72.16h.11v.77h0c0,2,0,4.1,0,6.13v.1h-.6c-2.68,0-8.43.14-11,0h-.1v-.1Zm14,0c0-.87,0-3.78,0-5.73V30.91h.11c1.85,0,5.26.24,7.8.42l2.69.18h.1v.1c0,.58,0,1.55.05,2.57,0,1.38.07,2.86.07,3.66V38h-5.29l-5.48,0h-.1v-.1Zm13.7.14a30.84,30.84,0,0,1-.13-3.86c0-1,0-1.92,0-2.45v-.11h.11c2.5.06,4.93.22,7.47.38l.58,0h.09V32c.08,1,.13,2.2.14,3.3a23.6,23.6,0,0,1-.08,2.65v.1h-.1c-1.27,0-2.61,0-4-.06s-2.71-.06-4-.06Zm11-.16c0-.7,0-2.16,0-3.47,0-.81,0-1.56,0-2v-.11h.11l3.6.07,3.5.1h.1v.1c0,.84,0,1.84,0,2.79s0,1.93-.08,2.54v.1h-.1c-1.64.08-3.3.07-5,0h-2.15v-.11Zm9.06,0c0-.65,0-1.67,0-2.66s0-1.8.08-2.36v-.1h.1l1.19,0h0a16.66,16.66,0,0,1,2.83.21l.09,0V33c0,.7,0,1.6,0,2.48s0,1.52-.06,2.1v.07l-.07,0a11,11,0,0,1-3.14.21h-1v-.1Zm6,0a15.47,15.47,0,0,0,0-2.49c0-.74-.06-1.5,0-2.17V33h.1c.52,0,1.28,0,2.07,0s1.47,0,2.1,0h.11v.11c0,.33,0,.94.08,1.61a22.66,22.66,0,0,1,.09,2.95v.08h-.08a17.33,17.33,0,0,1-2.17.15,17.64,17.64,0,0,1-2.18-.1h-.11l0-.11Zm65-7a7.25,7.25,0,0,0,.16.95c.88.46,2.48,1.27,4,2,1.18.57,2.3,1.09,3,1.37.67-.56.66-.59.55-1.13h0l0-.15c-1.29-.69-2.66-1.35-3.94-1.91s-2.7-1.13-3.7-1.46a1.41,1.41,0,0,0,0,.34ZM177.82,18.27a2,2,0,0,1-1.14-.88,2.67,2.67,0,0,1-.33-1.38h0a2.48,2.48,0,0,1,.5-1.52,3,3,0,0,1,.88-.73l.06,0c1.93,0,4.27,0,6.47.13,1.67.06,3.27.16,4.53.29h0a3.24,3.24,0,0,1,1.83.64,2.48,2.48,0,0,1,.49,1.86h0a3.75,3.75,0,0,1-.41,1.67,1.43,1.43,0,0,1-1,.79h0c-3.71-.11-7.15-.43-10.69-.76l-1.13-.11Z"/></g></g></svg>