<svg xmlns="http://www.w3.org/2000/svg" viewBox="0 0 75.79 41.22"><defs><style>.cls-1{fill:#231f20;fill-rule:evenodd;}</style></defs><title>C414</title><g id="Layer_2" data-name="Layer 2"><g id="Layer_1-2" data-name="Layer 1"><path class="cls-1" d="M2.16,0H1.8L8.36,13.61c-2.64,1.64-5.41,3-8.18,4.52a.55.55,0,0,0-.18.3c1.8.56,3.72,1.7,5.62,1,2.61-.8,5-2.22,7.67-2.65,1.4.69,2.65,1.44,4,2.14,4.91,2.45,8.9,5.59,14.92,7.16.67.2,1.34.21,2,.44,0,0,0,0,0,.08a1.09,1.09,0,0,1-.6.5s-.06,0-.07.1a3.43,3.43,0,0,1-.56.21,33.41,33.41,0,0,0-6.73.58,3.25,3.25,0,0,0-1.61,1,.72.72,0,0,0,.16.68,5,5,0,0,1,.7.72c-2.88,1.58-6.12,2.86-9.11,4.37-1.06.44-2,1-3,1.36a54.65,54.65,0,0,0-9-.66c-.07.06,0,.19,0,.3a34.31,34.31,0,0,0,5.14,2.36c4.94,1.52,9.81,3.52,14.8,3a.38.38,0,0,0,.2-.2,14.32,14.32,0,0,0-2.67-1.79.42.42,0,0,1,0-.08c2.73-1.31,5.79-2.34,8.7-3.53,5.36-4.2,11.72-.6,17.1-2.52a7.45,7.45,0,0,0,4.17-.73c0-.06.1-.12.12-.13l0-.29c-.24-.18-.5-.35-.74-.54-.64-.5-1.5-.68-1.93-1.34a1.66,1.66,0,0,0,0-.36c-.19-.39-.79-.33-1.09-.67a3.15,3.15,0,0,1-.67-.19s0-.07,0-.08l.7-.32c.55.13,1.1.2,1.68.35a11.38,11.38,0,0,1,1.15.23c3.84.73,7.67,1.43,11.49,1.84L66,31s0,0,.11.07A23.48,23.48,0,0,0,71,30.54a16.52,16.52,0,0,0,4.74-1.83,3.3,3.3,0,0,0-1-1.38,18.14,18.14,0,0,0-6.92-4.2c-.63-.18-1.17-.45-1.77-.66a.26.26,0,0,1,0-.07c1.07-.66,2.83-.53,4-1.16,0-.06,0-.12.06-.17-.29-.61-1-.82-1.52-1.19a5.3,5.3,0,0,1-1.07-.63.59.59,0,0,0,0-.6c-.08-.13-.13-.26-.2-.36-.92-1-2.58-.86-3.86-1.19,0,0,0,0,0-.07l5.24-4.45c1.66-2.34,4.56-1.6,7.08-2.49l0-.14a12.5,12.5,0,0,0-4.3-1.75c-.39,0-.78-.11-1.19-.17A41.71,41.71,0,0,0,59,7.91a.2.2,0,0,0,.12.32l4,.93a.08.08,0,0,1,0,.06,13.14,13.14,0,0,1-1.86,1.43c-1.36.87-2.83,1.71-4.3,2.53a41.32,41.32,0,0,1-4.5,2.55,9,9,0,0,0-1.64-.47C42,13.49,33,13,24.29,11.61a.15.15,0,0,1,0-.08c.47-.3,1.15-.42,1.43-.94a.75.75,0,0,0-.07-.39c-.38-.32-1-.27-1.47-.41-1.28-.08-2.49-.54-3.77-.31a6,6,0,0,0-1,.47A22.36,22.36,0,0,1,15.93,6.5c-.64-.61-1.13-1.38-1.74-2A13.21,13.21,0,0,0,11.67,1.9C8.83.36,5.28.7,2.16,0ZM3.35.76H3.13C5.2,4.67,7.38,8.93,9.55,12.93a62,62,0,0,0,6.82,2.34c1.17.3,2.27.56,3.41.94.08.07.1.08.12.14a3.41,3.41,0,0,0,1.67,1.95C25.92,20,30.7,20.85,35.21,22l1.28.25c.6.19,1.18.26,1.75.39,2.24.39,4.39,1,6.6,1.32,9.83,2,19.91,4,29.79,4.69l.08,0c-1.61-.43-3.35-.51-5-.82-3.63-.47-7.24-1.06-10.85-1.58-10-1.78-19.86-3.9-29.82-6-.56-.12-1.07-.27-1.62-.36-2.36-.75-5.34-.88-6.73-2.94a.2.2,0,0,1,.17-.2,74.76,74.76,0,0,0,9.36,2.92c2.95.75,5.93,1.3,8.83,2l1.19.21c1.23.39,2.65.55,3.89.93,3.44.66,6.86,1.41,10.26,2l3.27.68c4.48.74,8.93,1.64,13.4,2,1.05.26,2.21.26,3.33.43a14.24,14.24,0,0,0-3.33-2.72c-3.81-2.77-10.06-2.72-14-5.24l-.06,0a1.55,1.55,0,0,1-.88.49c-1-.73-1.84-1.92-2.95-2.51-.08-.07-.16-.07-.2-.14a1.15,1.15,0,0,1-.66-.75.21.21,0,0,1,0-.19c0-.17.26-.18.33-.37C42.44,13.7,32,13.73,21.73,11.7c-4.93-.56-7-4.45-9.75-7.67C10.48.79,6.41,1.34,3.35.76ZM63.22,8.15l-1.32.06c2.06.39,4.25,1,6.33,1.44.53.08,1,.23,1.49.3s1,.18,1.46.35A14.59,14.59,0,0,0,73.88,10a1.58,1.58,0,0,0,.36-.1.08.08,0,0,0,0,0,5.66,5.66,0,0,0-1.48-.67,33.52,33.52,0,0,0-8.12-1c-.51,0-1,0-1.46,0Zm1,1.13a5.39,5.39,0,0,0-1.75,1.11c1.9.06,4,.64,5.85.9a8.05,8.05,0,0,0,.73-.67,40.46,40.46,0,0,0-4.82-1.34Zm-42,.62a3.31,3.31,0,0,0-2,.39.11.11,0,0,0,0,.08l2.05.9,1.95-.94a9.46,9.46,0,0,0-2-.43Zm40,1C59,12.05,56.3,14.37,53.28,16l.24.27c1.92.11,3.89.13,5.85.36,3.48.55,5.35-3.08,8-4.69-1.54-.82-3.47-.78-5.18-1Zm-52.79,3c-2.71,1.35-5.48,2.79-8.07,4.33A7.64,7.64,0,0,0,4.71,19c0-.08-.13-.12-.16-.23a93.42,93.42,0,0,0,9.08-3.46c-1.34-.6-2.85-.86-4.24-1.38ZM26,15.71a.92.92,0,0,0-.79.36,1,1,0,0,0,0,.88.76.76,0,0,0,.76.35.94.94,0,0,0,.76-.6.93.93,0,0,0-.26-.84L26,15.71Zm2.84.57a1.11,1.11,0,0,0-1,.31A.87.87,0,0,0,28.45,18a1,1,0,0,0,.91-.35,1,1,0,0,0,.13-.87,1,1,0,0,0-.64-.51Zm26.93.6H54.39a21.71,21.71,0,0,1,2.55,2.58c2.67.55,5.42.75,8.09,1.19,0,0,.08,0,.13,0a.27.27,0,0,1,.23.2.62.62,0,0,1-.36.47c-1.1.56-2.21.07-3.29,0a3.08,3.08,0,0,0-.42-.07l4,1.06.69-.47a2.31,2.31,0,0,1,.26-2.27c.2-.23.5-.37.43-.68a.46.46,0,0,0-.19-.29s0,.11-.08.12l-.85.13a.17.17,0,0,1-.13-.11.33.33,0,0,1,.21-.29.8.8,0,0,1,.6,0c.1,0,0-.14-.08-.17-3.32-1.22-7-1-10.46-1.32Zm-23.41,0a1.44,1.44,0,0,0-.94.27,1.13,1.13,0,0,0-.25,1,1,1,0,0,0,.67.63,1.18,1.18,0,0,0,1.06-.29,1,1,0,0,0,.25-1,.93.93,0,0,0-.6-.64c-.08,0-.14,0-.19,0Zm18.8.51-.44,0c-.64.55-1.67.63-2.08,1.48a1.15,1.15,0,0,0-.26.93c.08.61.64.91.85,1.38.67.41,1.1,1.53,1.93,1.27A13.34,13.34,0,0,1,54.86,21a2.17,2.17,0,0,0,.51-.12.08.08,0,0,0,0-.06c0-.2-.26-.25-.36-.43-.75-.54-1.29-1.27-2-1.84a4.35,4.35,0,0,0-1.92-1.19Zm-14.59,0a1.33,1.33,0,0,0-1.07.39,1.13,1.13,0,0,0,.85,1.83A1.26,1.26,0,0,0,37.41,19a1.4,1.4,0,0,0,.07-.79,1.07,1.07,0,0,0-.7-.7c-.08,0-.14,0-.19,0Zm3.59.47a1.26,1.26,0,0,0-1,.56,1.32,1.32,0,0,0,0,1.16,1.16,1.16,0,0,0,.81.63,1.24,1.24,0,0,0,1.18-.41,1.17,1.17,0,0,0,.2-1.19,1.2,1.2,0,0,0-.87-.7.56.56,0,0,1-.32,0Zm4.77.44c-.24,0-.54,0-.69.19a2.11,2.11,0,0,0-.25,1,1.38,1.38,0,0,0,.17,1.22c.91.73,2.21.72,3.29,1.12.57.13,1.12.33,1.62.47,0,0,0,0,0-.06L49.06,22a7.46,7.46,0,0,1-1.62-2.47,2.86,2.86,0,0,0,.23-.68.4.4,0,0,0-.25-.23l-2.46-.31Zm-25.57.8h-.11c1,.75,2.34,1.35,3.53,2.06,7,4.82,16.76,5.39,25.29,6.61,4.3,1,8.8,1.77,13.11,2.34a38.46,38.46,0,0,0,4.52.32c2.73,0,5.75-.08,8.2-1.38-10.36-1-20.55-2.85-31-4.83,11.47-9.15,0,0,0,0-.86-.19-1.67-.32-2.51-.51-7-1.48-14-2.84-21-4.61Zm45.26.2-.19.07a.47.47,0,0,0-.07.55s.15.11.24.07,0-.12-.07-.18l.17-.32v-.18Zm2.33.35c-.21,0-.3.19-.39.36a1.84,1.84,0,0,0-.1,1.5c.36.12.76-.14,1.15-.07.64-.14,1.27-.3,1.86-.45-.29-.43-.87-.47-1.27-.8L67,19.72l-.07,0Zm-7.72.6h0a7.18,7.18,0,0,0,1.49.36c1.22.17,2.41.63,3.58.37a42.85,42.85,0,0,1-5-.73ZM35,26.6h-.19l-.5.67c3.89.58,8,.11,11.91,1.06l.66-.17C43,27.52,39,27,35,26.6Zm-.86,1.19a38.44,38.44,0,0,0-7.64.61l2.38.1a.55.55,0,0,0,.25.51c.18.13.38.2.56.33a.36.36,0,0,1,.08.12.32.32,0,0,1,0,.08c-.92.19-2-.49-2.94-.33-.54-.13-1-.08-1.53-.2l-.14.08a.25.25,0,0,0,0,.29c.27.26.82.38.87.91l.12.2c-.25.3-.72.36-1.05.58-3,1.37-5.9,2.75-8.76,4.19a34,34,0,0,1,6.23,1.62c2.48-.86,4.79-2.08,7.28-3l6-2.58.11-.12a2.09,2.09,0,0,1,2,.67.74.74,0,0,1,0,.48,38,38,0,0,0,7.32,1,5.13,5.13,0,0,0,2-.51,2.77,2.77,0,0,1,.21-2,7.94,7.94,0,0,1,.58-.68,5.26,5.26,0,0,0,.47-.32c-2.34-1.47-5.54-1.31-8.26-1.73-2.09-.12-4.14-.17-6.19-.36Zm-4.51.63h-.06c-.07,0-.07.06-.08.13a2.34,2.34,0,0,0,1.81,1.25c5,.62,10.1,2.09,14.9,2.39a2.68,2.68,0,0,1,.47-.26,1.14,1.14,0,0,0-.13-.73l-.06,0a.5.5,0,0,0-.41.24c-.13.18-.06.39-.19.56a4.37,4.37,0,0,1-1.56-.13L37.8,30.65c-2.59-.79-5.76-.27-7.85-1.95,0-.08,0-.14-.11-.2l-.19-.07Zm1.05.25h-.19c-.1.1.06.23.14.3,4.89,1.09,10,2,15,2.6,0,0,0-.07,0-.11l-15-2.79Zm16.61.82c-.26.06-.66.1-.79.36a.1.1,0,0,0,.08.08l.73-.29a.1.1,0,0,0,0-.14Zm-1.43.63-.41.27a.1.1,0,0,1,0,.08l0,.18.36-.11.25-.36c0-.06-.08-.06-.13-.08Zm2.94.33-.31.11a1.75,1.75,0,0,0-.69,1.91.33.33,0,0,1,.06.14,8.51,8.51,0,0,0,3.44-.57,12,12,0,0,0-2.49-1.59ZM14.93,35.94l-.61.32c1,.42,2.4.58,3.47,1.11,1.24.37,2.57,1,3.58.06a21.59,21.59,0,0,0-6.45-1.49Zm-7.23.21H6.91a26.67,26.67,0,0,0,4.23,1.93c4,1.27,8,2.55,12,2.47-.49-.61-1.25-.75-1.85-1.27A35.48,35.48,0,0,0,7.7,36.15Z"/></g></g></svg>