<svg xmlns="http://www.w3.org/2000/svg" viewBox="0 0 536.65 176.22"><defs><style>.cls-1,.cls-12,.cls-2{fill:#fff;}.cls-1,.cls-13,.cls-2,.cls-45,.cls-7,.cls-8{stroke:#231f20;}.cls-2{stroke-width:1.08px;}.cls-3{fill:#eff0f0;}.cls-4{fill:#f2f2f3;}.cls-5{fill:#f8f8f9;}.cls-6{fill:#fcfcfc;}.cls-13,.cls-31,.cls-44,.cls-45,.cls-7{fill:#231f20;}.cls-7{stroke-width:0.72px;}.cls-8{fill:none;}.cls-13,.cls-8{stroke-width:0.21px;}.cls-9{fill:#e7e8e9;}.cls-10{fill:#e9eaeb;}.cls-11{fill:#ebeced;}.cls-14{fill:#949698;}.cls-15{fill:#dcddde;}.cls-16{fill:#d1d3d4;}.cls-17{fill:#c5c7c9;}.cls-18{fill:#babcbe;}.cls-19{fill:#b0b2b5;}.cls-20{fill:#a6a8aa;}.cls-21{fill:#9a9c9f;}.cls-22{fill:#909295;}.cls-23{fill:#86888b;}.cls-24{fill:#7b7d7f;}.cls-25{fill:#717375;}.cls-26{fill:#67686b;}.cls-27{fill:#5d5e61;}.cls-28{fill:#525355;}.cls-29{fill:#444446;}.cls-30{fill:#373537;}.cls-32{fill:#d4d5d7;}.cls-33{fill:#d6d8d9;}.cls-34{fill:#dadcdd;}.cls-35{fill:#dee0e1;}.cls-36{fill:#e0e1e2;}.cls-37{fill:#e3e4e5;}.cls-38{fill:#e4e5e6;}.cls-39{fill:#eeeeef;}.cls-40{fill:#f3f4f4;}.cls-41{fill:#f6f7f7;}.cls-42{fill:#f7fcff;}.cls-43{fill:#aaacae;}.cls-44{stroke:#fff;}</style></defs><title>Commander500</title><g id="Layer_2" data-name="Layer 2"><g id="Layer_1-2" data-name="Layer 1"><path class="cls-1" d="M496.84,3.1,505.91,3l-.22-1c-3.89-1.8-9.22-2.45-10.29.58Z"/><path class="cls-2" d="M458,78.85c-9.79,16.27-23.33,24-32.47,25.2l.29,6.33,6.84,3.1,97.49-1.8.29-10.51-11.52-6.62,6-5.54,6.62-83.88c-.14-1,0-.5-.72-.86l-29-2.3c-4.46-.65-7.49.5-8.78,3.46Z"/><path class="cls-3" d="M498.14,6.85A5.8,5.8,0,0,0,495,10l-1,2.09Z"/><polygon class="cls-4" points="440.25 102.03 425.78 109.44 428.95 113.41 431.11 113.33 440.25 102.03"/><polygon class="cls-5" points="511.31 70.28 508.72 84.89 486.9 112.18 477.62 112.4 511.31 70.28"/><polygon class="cls-6" points="508.72 84.89 506.13 99.58 496.19 111.97 486.9 112.18 508.72 84.89"/><path class="cls-7" d="M450,88.85c3.1-2.88,5.83-6.12,9.5-12.74l26.93-56.16h3.24L466.6,72.58c-1.87,3.53-2.16,5-4.39,8.42A25,25,0,0,1,460,83.89a20.07,20.07,0,0,1-2,1.73C455.51,87.27,451.7,88.28,450,88.85Z"/><polyline class="cls-1" points="531.54 12.68 511.96 12.61 491.3 93.53 519.31 94.76"/><polyline class="cls-1" points="526.72 65.74 521.25 65.74 515.92 86.19 525.28 88.71"/><line class="cls-8" x1="511.89" y1="12.61" x2="489.57" y2="12.61"/><line class="cls-1" x1="503.75" y1="12.61" x2="473.15" y2="108.58"/><line class="cls-1" x1="497.2" y1="12.61" x2="457.89" y2="111.39"/><path class="cls-2" d="M75.79,126.58c-20.66,3.89-49.68,8.5-66.82,19.87-10.66,5.54-10.8,8.06-2.74,12.31C27.76,169.2,72.11,171.58,108.69,171l143.86-.5c20.38-.07,48.46-3.24,76.9-10.3L492.81,129c20.3-5.4,28-8.28,38.88-13.61l4.39-3.53-.65-5.33c-4.46-13-29.74-2.09-55.37-2.23L149,100.95c-30.67-.29-40.75,2-48.24,5.83a97.74,97.74,0,0,0-18.58,13.61Z"/><path class="cls-9" d="M507.14,101.6a52.18,52.18,0,0,0-10.15,0Z"/><path class="cls-10" d="M507.14,101.6a10.2,10.2,0,0,1,2.23.43H491.95c1.8-.22,3.46-.29,5-.43Z"/><path class="cls-10" d="M509.37,102a3.52,3.52,0,0,1,1.22.43H487l5-.43Z"/><path class="cls-11" d="M510.59,102.46a7.65,7.65,0,0,1,.79.43H482.44l4.54-.43Z"/><path class="cls-3" d="M513.26,104.69c.07.14.14.36.22.5H457.89c2.16-.22,4.18-.36,6.19-.5Z"/><path class="cls-6" d="M514.34,108.8a.92.92,0,0,1,.07.43H102.57l1.3-.43Z"/><path class="cls-12" d="M117.62,103.9a1.74,1.74,0,0,0-.86,0Z"/><path class="cls-4" d="M117.62,103.9a1.16,1.16,0,0,1,.79.36h-3.24c.14-.07.36-.07.5-.14a9.6,9.6,0,0,1,1.08-.22Z"/><path class="cls-9" d="M118.41,104.26l.22.43h-5l1.51-.43Z"/><path class="cls-1" d="M107.25,107.86a24.73,24.73,0,0,1,8.42-3.74c2.16-.58,3.1-.36,3.17,1.94v3.89c-.21.86-.94,1.51-2.52,1.66l-6.84-.29C106.1,111.1,106.1,109.08,107.25,107.86Z"/><path class="cls-13" d="M99.69,107.79a70.05,70.05,0,0,0-18,13l-7.06,6.34c4,2.23,9.36,4,16.49,5.47,1.58.43,22.46,1,28.15.72,3-1,2.3-2.66,2.66-4.39V117.22c0-3-1.22-4-5.18-4.1l-8.06-.07c-3.1-.14-4.61-.72-6.12-2.23Z"/><path class="cls-14" d="M490,102.61l-8.57-.22c.43.5.79,1,1.22,1.51Z"/><path class="cls-12" d="M190.91,115.06a2.88,2.88,0,0,0-2.09-.86H178.46a2.88,2.88,0,0,0-2.09.86Z"/><path class="cls-4" d="M190.91,115.06a2.89,2.89,0,0,1,.72.86h-16a2.88,2.88,0,0,1,.72-.86Z"/><path class="cls-9" d="M191.63,115.92a3.13,3.13,0,0,1,.36.86h-16.7a3.13,3.13,0,0,1,.36-.86Z"/><path class="cls-15" d="M192,116.79l.22.86H175.07l.22-.86Z"/><path class="cls-16" d="M192.21,117.65v.86H175.07v-.86Z"/><rect class="cls-17" x="175.07" y="118.52" width="17.14" height="0.94"/><rect class="cls-18" x="175.07" y="119.45" width="17.14" height="0.86"/><rect class="cls-19" x="175.07" y="120.32" width="17.14" height="0.86"/><rect class="cls-20" x="175.07" y="121.18" width="17.14" height="0.87"/><path class="cls-1" d="M178.46,114.2h10.37a3.65,3.65,0,0,1,3.38,3.89v9.79a3.65,3.65,0,0,1-3.38,3.89H178.46a3.65,3.65,0,0,1-3.38-3.89v-9.79A3.65,3.65,0,0,1,178.46,114.2Z"/><path class="cls-12" d="M155.56,117.73a2.88,2.88,0,0,0-2.09-.86H143.11a2.88,2.88,0,0,0-2.09.86Z"/><path class="cls-4" d="M155.56,117.73a2.88,2.88,0,0,1,.72.86h-16a2.89,2.89,0,0,1,.72-.86Z"/><path class="cls-9" d="M156.28,118.59a3.12,3.12,0,0,1,.36.86h-16.7a3.12,3.12,0,0,1,.36-.86Z"/><path class="cls-15" d="M156.64,119.45l.22.86H139.72l.22-.86Z"/><path class="cls-16" d="M156.86,120.32v.86H139.72v-.86Z"/><rect class="cls-17" x="139.72" y="121.18" width="17.14" height="0.94"/><rect class="cls-18" x="139.72" y="122.12" width="17.14" height="0.86"/><rect class="cls-19" x="139.72" y="122.98" width="17.14" height="0.86"/><rect class="cls-20" x="139.72" y="123.84" width="17.14" height="0.87"/><rect class="cls-21" x="139.72" y="124.71" width="17.14" height="0.94"/><rect class="cls-22" x="139.72" y="125.65" width="17.14" height="0.86"/><rect class="cls-23" x="139.72" y="126.51" width="17.14" height="0.86"/><rect class="cls-24" x="139.72" y="127.37" width="17.14" height="0.86"/><rect class="cls-25" x="139.72" y="128.24" width="17.14" height="0.86"/><rect class="cls-26" x="139.72" y="129.1" width="17.14" height="0.94"/><path class="cls-27" d="M156.86,130v.86H139.72V130Z"/><path class="cls-28" d="M156.86,130.9c-.07.29-.07.58-.14.86H139.87c-.07-.29-.07-.58-.14-.86Z"/><path class="cls-29" d="M156.71,131.76c-.14.29-.22.65-.36.87H140.23c-.14-.22-.22-.58-.36-.87Z"/><path class="cls-30" d="M156.35,132.63a3.42,3.42,0,0,1-.79.93H141a3.42,3.42,0,0,1-.79-.93Z"/><path class="cls-31" d="M155.56,133.56a2.88,2.88,0,0,1-2.09.86H143.11a2.88,2.88,0,0,1-2.09-.86Z"/><path class="cls-8" d="M143.11,116.86h10.37a3.65,3.65,0,0,1,3.38,3.89v9.79a3.65,3.65,0,0,1-3.38,3.89H143.11a3.65,3.65,0,0,1-3.38-3.89v-9.79A3.65,3.65,0,0,1,143.11,116.86Z"/><path class="cls-12" d="M210.5,115.71a2.89,2.89,0,0,0-2.09-.87H198a2.89,2.89,0,0,0-2.09.87Z"/><path class="cls-4" d="M210.5,115.71a2.88,2.88,0,0,1,.72.86h-16a2.87,2.87,0,0,1,.72-.86Z"/><path class="cls-9" d="M211.22,116.57a3.11,3.11,0,0,1,.36.86h-16.7a3.11,3.11,0,0,1,.36-.86Z"/><path class="cls-15" d="M211.58,117.44l.22.86H194.66l.22-.86Z"/><path class="cls-16" d="M211.79,118.3v.86H194.66v-.86Z"/><rect class="cls-17" x="194.66" y="119.16" width="17.14" height="0.94"/><rect class="cls-18" x="194.66" y="120.1" width="17.14" height="0.86"/><rect class="cls-19" x="194.66" y="120.96" width="17.14" height="0.86"/><rect class="cls-20" x="194.66" y="121.83" width="17.14" height="0.86"/><rect class="cls-21" x="194.66" y="122.69" width="17.14" height="0.94"/><rect class="cls-22" x="194.66" y="123.63" width="17.14" height="0.86"/><rect class="cls-23" x="194.66" y="124.49" width="17.14" height="0.86"/><rect class="cls-24" x="194.66" y="125.36" width="17.14" height="0.86"/><rect class="cls-25" x="194.66" y="126.22" width="17.14" height="0.86"/><path class="cls-1" d="M198,114.84h10.37a3.65,3.65,0,0,1,3.38,3.89v9.79a3.65,3.65,0,0,1-3.38,3.89H198a3.65,3.65,0,0,1-3.38-3.89v-9.79A3.65,3.65,0,0,1,198,114.84Z"/><path class="cls-12" d="M220.51,114.84l-3.17-.58a2.35,2.35,0,0,0-1.94.58Z"/><path class="cls-4" d="M220.51,114.84l4.75.87H214.6a8.72,8.72,0,0,1,.79-.87Z"/><path class="cls-9" d="M225.26,115.71l2.38.43a2.85,2.85,0,0,1,1.08.43H214.24a4.39,4.39,0,0,1,.36-.86Z"/><path class="cls-15" d="M228.71,116.57a3.48,3.48,0,0,1,1.15.94H214a2.22,2.22,0,0,1,.22-.94Z"/><path class="cls-16" d="M229.87,117.51a2.6,2.6,0,0,1,.58.86H214v-.29a1.58,1.58,0,0,1,.07-.58Z"/><path class="cls-17" d="M230.44,118.37a3.61,3.61,0,0,1,.36.94H214v-.94Z"/><path class="cls-18" d="M230.8,119.31l.22.86H214v-.86Z"/><path class="cls-19" d="M231,120.17a4,4,0,0,1,.07.94H214v-.94Z"/><polygon class="cls-20" points="231.09 121.11 231.09 121.11 231.09 121.97 213.95 121.97 213.95 121.11 231.09 121.11"/><rect class="cls-21" x="213.95" y="121.97" width="17.14" height="0.94"/><rect class="cls-22" x="213.95" y="122.91" width="17.14" height="0.86"/><rect class="cls-23" x="213.95" y="123.77" width="17.14" height="0.86"/><rect class="cls-24" x="213.95" y="124.64" width="17.14" height="0.94"/><rect class="cls-25" x="213.95" y="125.57" width="17.14" height="0.86"/><rect class="cls-26" x="213.95" y="126.44" width="17.14" height="0.94"/><path class="cls-1" d="M217.34,114.27l10.3,1.87c1.94.36,3.46,2.38,3.46,5v6.84a3.66,3.66,0,0,1-3.46,3.89h-10.3a3.61,3.61,0,0,1-3.38-3.89v-9.86C214,116,215.47,114,217.34,114.27Z"/><path class="cls-1" d="M137.78,110.74h18a3.94,3.94,0,0,1,3.82,4v42.84a3.94,3.94,0,0,1-3.82,4h-18a3.94,3.94,0,0,1-3.82-4V114.77A3.94,3.94,0,0,1,137.78,110.74Z"/><path class="cls-1" d="M286.82,132.34h16.13a3.07,3.07,0,0,1,3.24,2.88v19.58a3.07,3.07,0,0,1-3.24,2.88H286.82a3.05,3.05,0,0,1-3.17-2.88V135.22A3.05,3.05,0,0,1,286.82,132.34Z"/><path class="cls-1" d="M366.16,114.05h10.66a1.75,1.75,0,0,1,1.73,1.73v10.66a1.77,1.77,0,0,1-1.73,1.8H366.16a1.77,1.77,0,0,1-1.73-1.8V115.78A1.75,1.75,0,0,1,366.16,114.05Z"/><polygon class="cls-32" points="481.43 100.37 482.01 99.65 529.53 99.65 530.25 100.37 481.43 100.37"/><polygon class="cls-33" points="482.01 99.65 482.58 98.86 528.74 98.86 529.53 99.65 482.01 99.65"/><polygon class="cls-34" points="482.58 98.86 483.09 98.14 528.09 98.14 528.74 98.86 482.58 98.86"/><polygon class="cls-34" points="483.09 98.14 483.74 97.35 527.3 97.35 528.09 98.14 483.09 98.14"/><polygon class="cls-35" points="483.74 97.35 484.31 96.56 526.58 96.56 527.3 97.35 483.74 97.35"/><polygon class="cls-36" points="484.31 96.56 484.89 95.84 525.86 95.84 526.58 96.56 484.31 96.56"/><polygon class="cls-37" points="484.89 95.84 485.46 95.05 525.07 95.05 525.86 95.84 484.89 95.84"/><polygon class="cls-38" points="485.46 95.05 485.97 94.33 524.42 94.33 525.07 95.05 485.46 95.05"/><polygon class="cls-9" points="485.97 94.33 486.62 93.53 523.63 93.53 524.42 94.33 485.97 94.33"/><polygon class="cls-10" points="486.62 93.53 487.19 92.74 522.83 92.74 523.63 93.53 486.62 93.53"/><polygon class="cls-11" points="487.19 92.74 487.77 92.02 522.19 92.02 522.83 92.74 487.19 92.74"/><polygon class="cls-39" points="487.77 92.02 488.35 91.23 521.39 91.23 522.19 92.02 487.77 92.02"/><polygon class="cls-3" points="488.35 91.23 488.85 90.51 520.67 90.51 521.39 91.23 488.35 91.23"/><polygon class="cls-4" points="488.85 90.51 489.5 89.72 519.95 89.72 520.67 90.51 488.85 90.51"/><polygon class="cls-40" points="489.5 89.72 490.07 88.92 519.16 88.92 519.95 89.72 489.5 89.72"/><polygon class="cls-41" points="490.07 88.92 490.65 88.2 518.44 88.2 519.16 88.92 490.07 88.92"/><polygon class="cls-5" points="490.65 88.2 491.23 87.41 517.72 87.41 518.44 88.2 490.65 88.2"/><polygon class="cls-6" points="491.23 87.41 491.8 86.62 516.93 86.62 517.72 87.41 491.23 87.41"/><path class="cls-12" d="M491.8,86.62l.07-.07c4.32-5.69,16.34-4.82,23-2.09l2.09,2.16Z"/><path class="cls-1" d="M514.84,84.46c-6.62-2.74-18.65-3.6-23,2.09l-10.44,13.82c-2.81,3.6,4.83,4.54,7.34,5.18,3.1.58,36.79.22,43.13-3.46Z"/><path class="cls-13" d="M482.15,99.65l11-14.47c-2.66,1.08.29,1.58,2.81,2.16l-9.36,16.78C480.14,104.41,480,101.53,482.15,99.65Z"/><path class="cls-1" d="M515.42,85.47l-8.78.79,2,16.78a83.9,83.9,0,0,0,22-2.09"/><path class="cls-1" d="M162.75,166.23c-.53-13-.34-36.92,1.81-49.18l3.49.63s3.83,31.37,2.44,44c-.29,2.62-.55,4.72-.78,6.41-1,7.56-1.6,6.95-2.25,7.54a3.76,3.76,0,0,1-4.08-1.56A57.67,57.67,0,0,1,162.75,166.23Z"/><path class="cls-1" d="M162.75,53.74c-.53,13-.34,36.92,1.81,49.18l3.49-.63s3.83-31.37,2.44-44c-.29-2.62-.55-4.72-.78-6.41-1-7.56-1.6-6.95-2.25-7.54A3.76,3.76,0,0,0,163.38,46,57.66,57.66,0,0,0,162.75,53.74Z"/><path class="cls-2" d="M172.19,119.38l-.36-19.3C146.78,107.65,142,112,172.19,119.38Z"/><path class="cls-42" d="M152.61,109.73a3,3,0,0,1,.5-.79H171v.79Z"/><line class="cls-8" x1="189.76" y1="112.11" x2="189.98" y2="112.11"/><path class="cls-2" d="M180.47,97.92c-4.68,1.66-6,1.66-6.34,3.67l-.07,5.18.07,10.08c.5,4.18,2.88,6.84,7.2,8.28,19.73,5.62,115.92.22,138.31-14.47-40.46-9.72-83.16-14.4-102.17-15.91C200.13,94.69,191.92,94.69,180.47,97.92Z"/><path class="cls-41" d="M176.59,119.6c-.07-.07-.07-.14-.14-.22H286.31l-1.44.22Z"/><path class="cls-12" d="M275.66,104.33l-99.86,3.09a17,17,0,0,1-.29-3.09Z"/><path class="cls-43" d="M209.35,107.57a.07.07,0,0,1-.07-.07l81.29,1.66c0,.07.07.07.07.14Z"/><path class="cls-8" d="M212.15,96c11.3.29,22.25,1.37,33.41,1.94"/><line class="cls-8" x1="270.4" y1="121.97" x2="270.4" y2="121.97"/><path class="cls-44" d="M174.86,106.92c1.87-.07,3,.5,2.88,2.09v3.89c-.07,1.94-1.15,2.66-2.88,2.45Z"/><path class="cls-1" d="M232.82,126.87l-.07-14c-14.76-.22-22.61-2.38-25.85-5.76l-23.62.43-.22,18.29"/><path class="cls-16" d="M209,107.72c1.37,1.51,3.53,1.73,5.54,2.23,19.08,2.59,23.47,2.81,49.1,2.23a145.41,145.41,0,0,0,28.22-3l-2.66-1.51Z"/><path class="cls-32" d="M209,107.72a3.23,3.23,0,0,1-.72-.94h79.27l1.66.94Z"/><path class="cls-33" d="M208.27,106.78c-.14-.29-.29-.58-.43-.94H286l1.58.94Z"/><polygon class="cls-36" points="207.54 102.97 207.62 101.96 279.11 101.96 280.91 102.97 207.54 102.97"/><polygon class="cls-37" points="207.62 101.96 207.62 101.02 277.46 101.02 279.11 101.96 207.62 101.96"/><polygon class="cls-38" points="207.62 101.02 207.62 100.01 275.73 100.01 277.46 101.02 207.62 101.02"/><polygon class="cls-9" points="207.62 100.01 207.69 99.08 274.07 99.08 275.73 100.01 207.62 100.01"/><polygon class="cls-10" points="207.69 99.08 207.69 98.14 272.42 98.14 274.07 99.08 207.69 99.08"/><polygon class="cls-11" points="207.69 98.14 207.69 97.13 270.69 97.13 272.42 98.14 207.69 98.14"/><polygon class="cls-39" points="207.69 97.13 207.69 96.2 269.03 96.2 270.69 97.13 207.69 97.13"/><polygon class="cls-3" points="207.69 96.2 207.76 95.19 267.23 95.19 269.03 96.2 207.69 96.2"/><polygon class="cls-4" points="207.76 95.19 207.76 94.25 265.58 94.25 267.23 95.19 207.76 95.19"/><polygon class="cls-40" points="207.76 94.25 207.76 93.32 263.99 93.32 265.58 94.25 207.76 94.25"/><polygon class="cls-41" points="207.76 93.32 207.76 92.31 262.19 92.31 263.99 93.32 207.76 93.32"/><polygon class="cls-5" points="207.76 92.31 207.83 91.37 260.54 91.37 262.19 92.31 207.76 92.31"/><polygon class="cls-6" points="207.83 91.37 207.83 90.44 207.83 90.36 258.81 90.36 260.54 91.37 207.83 91.37"/><path class="cls-12" d="M207.83,90.37c.07-3.6,1-2.3,3.1-3.17,5.4-.5,20-1.87,42.7.22l5.18,3Z"/><path class="cls-1" d="M210.93,87.2c-2.09.86-3-.43-3.1,3.24l-.29,14c.65,4.68,4,4.75,7,5.54,19.08,2.59,23.47,2.81,49.1,2.23a145.41,145.41,0,0,0,28.22-3L253.63,87.41C230.95,85.33,216.33,86.69,210.93,87.2Z"/><path class="cls-45" d="M207.55,103.69l.29-14.11c.22,1.51,4.39,1.51,6.12,1.51l.22,17.5C212,108.37,207.69,106.85,207.55,103.69Z"/><path class="cls-1" d="M208.7,87.92c.94-.58,4.54-.94,7.06-1.22l.22,3.38a52,52,0,0,1-5.47-.29C209.35,89.72,208.19,88.92,208.7,87.92Z"/><polyline class="cls-1" points="259.02 90.65 242.61 92.24 262.7 110.38 288.47 107.57"/><path class="cls-1" d="M216,89.93c9.43,0,17.86-1.15,37.73-2.59"/></g></g></svg>