<svg xmlns="http://www.w3.org/2000/svg" viewBox="0 0 143.77 34.63"><defs><style>.cls-1{fill:none;}.cls-1,.cls-2{stroke:#231f20;stroke-width:0.35px;}.cls-2{fill:#fff;}.cls-3{fill:#231f20;}</style></defs><title>PA-27</title><g id="Layer_2" data-name="Layer 2"><g id="Layer_1-2" data-name="Layer 1"><path class="cls-1" d="M126.53,34.46l-64.87-.08s-7.33-.87-9.14-1.1a19.89,19.89,0,0,1-2.36-.39s.71.32-.47.32-13.71-2-13.71-2l-6.38-.55a1.3,1.3,0,0,1-1.1.39c-.71-.08-4.89-1.18-5.75-1.26s-1.26-.47-1.34-.87-.32-1.1-.32-1.1S14,26.5,9.49,25.16a33.28,33.28,0,0,1-7.72-3.23A3.38,3.38,0,0,1,.19,18.86c.16-1.58,2.29-3.07,5.2-3.94a77.33,77.33,0,0,1,14.58-2c4-.08,10.88.08,12.06.24a15.89,15.89,0,0,0,1.89.16A29.45,29.45,0,0,1,39.6,9.95a22.81,22.81,0,0,1,8.83-1.42,192.07,192.07,0,0,1,20.49,3.7c5,1.42,14,4,16.16,4.73s29.4,8.59,29.4,8.59l15.37,1.26s-.63,3.31-.79,4.57-.24,2.13-.71,2.6S126.53,34.46,126.53,34.46Z"/><path class="cls-1" d="M106.2,20.59s1.34.08,1.73.16,1.5-.63,2-1S129.92,1.52,129.92,1.52,131.81.1,132.68.18s4.89.87,6.38,1.18,4.49,1.26,4.49,1.26l-2.13,7.25h-.63l-3.86,14,.87.24-.79,2.6-7.41-.16-15.13-1-25.7-7.65Z"/><polygon class="cls-1" points="134.42 23.51 138.99 9.55 140.8 9.87 136.94 23.9 134.42 23.51"/><path class="cls-2" d="M123,27.6c-.33,0-.71-.65.06-.82a70.24,70.24,0,0,1,9.28.36c2,.28,5.57,1.1,6,1.17l1.67.27-.21,1.58s-4.19,0-5.91-.06-4.36-.73-5.1-.8S123,27.6,123,27.6Z"/><path class="cls-2" d="M131.45,29a16.14,16.14,0,0,1,3.45.28c1.1.24,4.89.93,4.89.93s-5.66,0-6.22,0a39.17,39.17,0,0,1-4.24-.92Z"/><path class="cls-1" d="M63.09,32.26s-4.49-1.66-5.28-1.73-13.64-1.81-15.29-2a15,15,0,0,1-3.7-.71c-.47-.24-1.81-3.94-2-4.18s-1.1-1.42-.16-2a15.43,15.43,0,0,1,7.33-1.18A81.52,81.52,0,0,1,55.13,23a52.73,52.73,0,0,1,5.68,2,17.94,17.94,0,0,0,2,.95Z"/><path class="cls-1" d="M40.54,24.37a36.65,36.65,0,0,1-3.78-.71,2.82,2.82,0,0,1-.55-1.58c.08-.71,4.49-1.81,7.17-1.58A90,90,0,0,1,58.75,24a17.91,17.91,0,0,1,4,1.89s-12.3-.71-16.47-1S40.54,24.37,40.54,24.37Z"/><path class="cls-1" d="M21.08,26.58a10.06,10.06,0,0,0-.63-1.89c-.32-.55.08-3.78.08-4.1s.39-2.36.39-2.36a58.85,58.85,0,0,1,9.85.32c5.44.63,8,1,8.91,1.26s2.29.71,2.29.71a20.1,20.1,0,0,0-4.49.71c-1.42.55-1.42.71-1.42,1.18s.39.79.71,1.26,2,4.49,2,4.49l19,2.36s-21.52.63-24.83.32a31.62,31.62,0,0,1-7.72-1.89C24.31,28.55,21.08,26.58,21.08,26.58Z"/><path class="cls-1" d="M37.78,27.84a2.72,2.72,0,0,1-1.26-.39c-.32-.32-.55-1-.32-1.34s.24-.47.55-.63a3.41,3.41,0,0,1,.79-.24l.87,2.44Z"/><path class="cls-2" d="M29.27,29.57c-.08-.31.24-1,1.34-1.1s4.89,0,5.52.08S39,29.1,39,29.1L39,31.39s-7.25-.87-7.8-.95A8.82,8.82,0,0,1,29.27,29.57Z"/><path class="cls-2" d="M39.83,29.1s6.46.63,7.41.79,3.39.47,3.39.47l-.39,3L39,31.62V29.1Z"/><path class="cls-1" d="M20.21,24.14s-2.13-.87-2.92-1.26-2-1.65-2-2.44,2.54-1.73,3.2-1.89,2.48-.32,2.48-.32-.39,1.89-.47,2.84S20.21,24.14,20.21,24.14Z"/><path class="cls-3" d="M37.31,17.2s-1.34-1.73-2-2.52a10.36,10.36,0,0,0-1.42-1.42,48.29,48.29,0,0,1,4.49-2.84A22.47,22.47,0,0,1,41,9.55a9.16,9.16,0,0,0,1.1.87c.79.55,1.42.87,1.26,1.42s-2,4.81-2,4.81-.39,1.18-1.26,1Z"/><path class="cls-3" d="M43.54,14.52l.71-2.29A1.83,1.83,0,0,1,45.59,12c.79.16,10.17,1.42,10.17,1.42l-.55,5.91s-.24.55-1.58.39-11.43-1.5-11.43-1.5l.16-.55,3.39.47s.71.24,1-.08a2.75,2.75,0,0,0,.47-1.1V15.62c0-.24.08-.63-.55-.63S43.54,14.52,43.54,14.52Z"/><path class="cls-3" d="M42.67,17l.71-1.81,2.92.24a1.12,1.12,0,0,1,.47.95c-.08.55-.16,1-.16,1s-.39.39-.71.39-3.23-.47-3.23-.47Z"/><path class="cls-3" d="M56.46,19.8l.71-5.6a1.65,1.65,0,0,1,1.42-.32c.95.16,6,.95,6.38,1.1s1.34.32,1.1,1.18a41.71,41.71,0,0,1-2,4.18s-.16.71-1.58.63-4.73-.63-5.28-.71A.88.88,0,0,1,56.46,19.8Z"/><path class="cls-3" d="M65.37,20.43,67.5,16.1a2.07,2.07,0,0,1,1.65-.39A45,45,0,0,1,74,17.36c1.42.63,2.44,1.18,2.44,1.58a.92.92,0,0,1-.55.87,15.24,15.24,0,0,0-2.13,1.5l-.87.87a5.81,5.81,0,0,1-1.34,0c-.87-.08-4.81-.71-5.6-.79S65.37,20.43,65.37,20.43Z"/><polyline class="cls-1" points="127.09 26.19 137.73 2.3 132.92 1.44 133.08 0.33"/><path class="cls-3" d="M1.21,17.12s13.16-.16,16.71.16l6.64.63,14,1.37c8.87.88,17.85,1.8,20.79,2.18,6.07.79,67.55,7.33,67.55,7.33l2.49.47-.44,2.6s-67.78-8.59-69.68-8.75-5.68-.71-5.68-.71l-9.22-1.89a4.4,4.4,0,0,0-1.58-.31,1.45,1.45,0,0,0-.79.31,20.13,20.13,0,0,0-2-.63c-.71-.16-15.29-1.81-16.16-1.73s-3.7.08-4.26.16a11,11,0,0,0-1.14.24s-11.95-.95-13-.95S.82,17.52.82,17.52Z"/></g></g></svg>