<svg xmlns="http://www.w3.org/2000/svg" viewBox="0 0 147 38.38"><defs><style>.cls-1{fill:#231f20;fill-rule:evenodd;}</style></defs><title>PA-31</title><g id="Layer_2" data-name="Layer 2"><g id="Layer_1-2" data-name="Layer 1"><path class="cls-1" d="M62.24,37.19a5.3,5.3,0,0,0-1.74.12h0l-1.69.28h0L48.31,38a3.3,3.3,0,0,1-1.71.39A4.91,4.91,0,0,1,45,38c-1.9,0-3.8,0-5.71.09a46.35,46.35,0,0,1-11.34-.51c-.94-.07-1.85-.2-2.76-.32s-1.77-.25-2.72-.33h0a9,9,0,0,0-2-.14c-.42,0-.84,0-1.27,0h0A14.42,14.42,0,0,0,17,36.41,13.84,13.84,0,0,1,14.78,36a.85.85,0,0,1-.22,0h0a12,12,0,0,0-1.38-.45,7.78,7.78,0,0,1-1.93-.73h-.14l-.06,0L9.7,34a6.94,6.94,0,0,1-.84-.56h0c-.28-.21-.55-.44-.87-.71l0,0a1.43,1.43,0,0,0-.34-.34,1.29,1.29,0,0,1-.54-.75v-.07L7.83,30l0,0L8,29.93H8c.05,0,.1-.06.11-.11a2.31,2.31,0,0,0-.26-.28,2.36,2.36,0,0,0-.34-.25h0a1.21,1.21,0,0,1-.31-.47,1.19,1.19,0,0,1-.07-.55l0-.05.5-.66a21.19,21.19,0,0,0-3.13-.28,16.46,16.46,0,0,1-4-.49l-.05,0,0-.05a.49.49,0,0,0-.14-.18.62.62,0,0,1-.16-.18h0l0-.06H0a.25.25,0,0,1,0-.13v0l.3-.8,0-.05a5,5,0,0,1,2.87-.41h.19l6.2.33h0l1.17.13h0a1,1,0,0,0,.42-.08h0l.15,0h0a4.3,4.3,0,0,0,1.47-.09A6.68,6.68,0,0,1,14,24.95a42.68,42.68,0,0,0,4.4-1.22,33.16,33.16,0,0,1,6.5-1.58l1.3-.23A50,50,0,0,1,32.86,21a7.78,7.78,0,0,0,1.85-2,7.29,7.29,0,0,1,2.13-2.19,13.29,13.29,0,0,1,3.71-1.79l.54-.2h0a.61.61,0,0,1,.21,0h0a.56.56,0,0,0,.29,0h0a21.4,21.4,0,0,1,3-.62l1-.16a3.58,3.58,0,0,0,.76-1,8.23,8.23,0,0,0,.51-1.32l0,0a9,9,0,0,0,.95-1.82,5.85,5.85,0,0,1,1.48-2.36l0,0,.06,0h0c.09,0,.16,0,.16.16v0l-1.54,3.05-1.4,3a9.32,9.32,0,0,0,1.17.2c.45.05.92.08,1.39.09h0a2.26,2.26,0,0,0,1.1,0,2.62,2.62,0,0,1,1.28,0,2.42,2.42,0,0,1,.49,0,1.38,1.38,0,0,0,.55,0h.06l.24.08.06,0h0a.55.55,0,0,1,.19,0h.05l0,0h0c.11.07.25.15.34.06l0,0h0l5.78.26,1.11,0,0,0a.28.28,0,0,1,.23-.09h0l4.09.34L67,11l0,0a.53.53,0,0,1,.22-.08h0a.66.66,0,0,1,.24,0h0l0,0,.15.28,0,0,0,0-1.6,3.37,5.63.51,18.09.56a.3.3,0,0,0,.13-.09h0a.34.34,0,0,1,.15-.1h0c.21,0,.39-.16.58-.34a2.75,2.75,0,0,1,.35-.29,2.2,2.2,0,0,1,.13-.22h0a.67.67,0,0,0,.14-.32l0-.05L100.77.25l0,0h.05L105,0h0l0,0,.09.09,0,0V.22l-.3,1.57s0,.06,0,.09h0c0,.08,0,.16,0,.19l.08.07-.06.08,0,.05h0a1,1,0,0,0-.12.18c-.41,1.88-.72,3.62-1.05,5.49l-.09.51v0a1.59,1.59,0,0,0-.13.65,1.84,1.84,0,0,1-.1.62c0,.36-.1.68-.15,1a8.55,8.55,0,0,0-.17,1.31v.06l-.05,0-.12.06h0a.61.61,0,0,1,0,.14h0l0,0v.06l-.25,1.06,0,0a.22.22,0,0,1,.06.13v.05l-.32.59v0h0a.68.68,0,0,1,.06.34.45.45,0,0,1-.14.31h0l0,.3v.07l-.06,0,0,0h0l-.06.39,0,0,0,.08V16l-.11.65v0a.48.48,0,0,1-.12.14h0l-.21,1.64,0,.22-.1-.1-.26,1.63a.25.25,0,0,1-.06.16h0a.24.24,0,0,1,.1.18v0l-.11.24v0h0v0c4.3.2,8.66.21,13,.21h3.5a35.24,35.24,0,0,0,3.71.06,27.5,27.5,0,0,1,4.51.16l.07,0c.09.11.09.16,0,.21v.07h-.1l-9.86.52a.2.2,0,0,1-.1.1.13.13,0,0,1-.17-.08c-.67,0-1.37,0-2.09.06a26,26,0,0,1-2.71,0c-1.47.1-3,.16-4.43.22-2,.08-4,.16-5.95.34l-.37,1.87,0,.06a6.34,6.34,0,0,1-.61.52h0a3.19,3.19,0,0,1-.74.41,4.46,4.46,0,0,1-.63.29,3.88,3.88,0,0,0-.68.33h0l-1.53.63a.24.24,0,0,1-.19,0h0l-.87.31c-.38.14-.79.29-1.23.43h0c-.23.07-.48.16-.72.26a3.49,3.49,0,0,0-.61.33h0a3.43,3.43,0,0,0,1.06.34,4.68,4.68,0,0,0,1.3,0h0c3.85-.15,7.72-.35,11.61-.55,3.47-.18,7-.36,10.42-.51a16.29,16.29,0,0,1,1.95-.13c.54,0,1.08,0,1.63-.09h0l9.25-.47q4.62-.22,9.28-.42c.14,0,.79,0,1.65-.05a45.3,45.3,0,0,0,5.36-.25l0-.09h.09a1,1,0,0,1,.68.21.59.59,0,0,1,.18.45,1.23,1.23,0,0,1-.14.52,2.48,2.48,0,0,1-1.14,1.11h0c-.74.09-1.5.2-2.26.31-1.33.19-2.69.39-4,.47-1.52.21-3,.3-4.6.4l-.58,0h0l-2.16.19a1.17,1.17,0,0,1-.68.14,2,2,0,0,0-.42,0h0c-1.49.07-3,.21-4.48.34s-3.09.28-4.64.35L118,31c-1.82.17-3.66.34-5.55.56h0c-4,.4-8,.73-12,1.07-7.62.64-15.26,1.28-22.74,2.33l-.21.21,0,0a.91.91,0,0,0-.21.13h0a.67.67,0,0,1-.48.18h-.1v-.1l-.89.12-2,.54h0a1.11,1.11,0,0,0-.37,0,1.5,1.5,0,0,0-.39.12h0l-.37.06h0a11.42,11.42,0,0,0-1.29.24h0c-1,0-2,.17-3,.3a27.14,27.14,0,0,1-4.33.31,6.7,6.7,0,0,1-1.62.07Zm40.69-24.83h0ZM56.69,36.89a12.51,12.51,0,0,0,1.48-.2h0l1.39,0,1.11,0h.09a.65.65,0,0,1,.53-.06l.09,0,0,0h0v0h0v-.09h.11l2.91.06,0,0a.23.23,0,0,1,.11-.08h0l.56,0a.19.19,0,0,1,.13-.08h.07a.45.45,0,0,0,.24,0h.09a.22.22,0,0,1,.12-.09h0l1,0h0s0,0,0,0h0l0-.06,0-.05H67a7.19,7.19,0,0,0,1.28,0l.64,0,.2-.08h0l.12-.08.07,0a16.65,16.65,0,0,0,4.51-.57h0l-.31,0h0l-4.92-.11h0a.19.19,0,0,1-.18.11h0l-.87,0h0a19.69,19.69,0,0,0-2.86-.13,16.12,16.12,0,0,1-3.49-.24l-2.67-.17-.7.11h0l-1,.06h0a7.35,7.35,0,0,0-2-.05,6.46,6.46,0,0,1-2.65-.2,3.65,3.65,0,0,1-1-.3h0l-.23-.09h0l-.22-.12c-.69-.37-2-1.07-1.51-2.33h0a.46.46,0,0,0,0-.13h0a.17.17,0,0,0,0-.07l-1.45-1.39a.31.31,0,0,1-.1-.12h0l0-.07h0l-.1,0,0,0c-.45-.83-13.71.48-15,.61h-.1c-2.9,0-5.85.28-8.76.56l-2.55.24h0L15,31.81h0l-5.36.58-.24.49v0h0l0,0,.21.12c2.14,1.28,4.49,2.69,7.4,2.65h.05a1,1,0,0,0,.55.11h0a1.51,1.51,0,0,1,.49.05l.35,0h0a.9.9,0,0,1,.33.06l.38,0h0l3.53.37h0l.31.14h0l.12,0h.06l4,.52h0l8.38.71,1.23-.06h0l3.9-.13h.09s0,0,0,0l0-.07H41l5.79.11a3,3,0,0,1,.4,0,1.16,1.16,0,0,0,.71-.09l.09-.05.06.08s.12-.08.26-.12a1,1,0,0,1,.44-.08h0l.31.08,1.43-.11h.06l0,.06s.09,0,.15,0a.63.63,0,0,1,.2-.08h0c.73.06,1.46.13,2.23.13a6.84,6.84,0,0,1,1.05,0h0a5,5,0,0,0,1-.06,7,7,0,0,1,1.36-.21Zm11.84-1.7h0Zm0,0h0Zm-10.21-2a2.11,2.11,0,0,1-.79-.29h0a1.07,1.07,0,0,1-.44-.55,1.17,1.17,0,0,1,0-.59,1.43,1.43,0,0,1,.19-.5,6.76,6.76,0,0,0,.31-1.32c0-.17.06-.34.09-.48s0-.5,0-.78v0a.63.63,0,0,1,.11-.19.4.4,0,0,1,.25-.13,4.1,4.1,0,0,1,1.61,0,3.29,3.29,0,0,0,1.86-.07h0a8.62,8.62,0,0,1,2.21-.12c.42,0,.83,0,1.23,0a33.37,33.37,0,0,1,5.67-.25c1.37,0,2.73,0,4.1-.07h0c1.12,0,2.19,0,3.26,0s2.14,0,3.26,0h0a11,11,0,0,0,2.07.09h0a14,14,0,0,1,1.68,0,15,15,0,0,1,3.63.17,23.11,23.11,0,0,1,4.06,1.07l.05,0v.06a.25.25,0,0,0,.06.1l0,0,0,.07h0c-.06.14-.09.22-.3.25h0l-3.85-.82a1.12,1.12,0,0,1-.54,0,1,1,0,0,0-.46,0h-.07a4.17,4.17,0,0,0-1.49-.2,8.5,8.5,0,0,1-.92,0H83.9c-.84,0-1.66,0-2.51,0-.47,0-.92,0-1.37-.06a10.79,10.79,0,0,0-2.25,0h0a5.82,5.82,0,0,0-1.28,0l-.6,0a1.6,1.6,0,0,1-.49,0,1.17,1.17,0,0,0-.39,0h0c-.76,0-1.43,0-2.2,0h0c-.61,0-1.22,0-1.82,0a22.78,22.78,0,0,0-5,.27h0c-.8,0-1.59,0-2.36,0S62.06,29,61.3,29l-.28.07a1.12,1.12,0,0,1-.38.07.18.18,0,0,0,0,.12h0a.85.85,0,0,1,0,.15,3,3,0,0,1-.1,1.25,5.59,5.59,0,0,1-.64,1.42h0a1.89,1.89,0,0,1-.9.76,3,3,0,0,0-.55.3l-.08,0Zm-2.69-.57-.67.29h0l0,0c-1.36.59-3,0-4.44-.61L49.57,32a.85.85,0,0,0,0,.52,1.14,1.14,0,0,0,.46.53h0a4.57,4.57,0,0,0,1.45.77,6.18,6.18,0,0,0,1.77.29l.06,0h0l2.95,0h0a7.81,7.81,0,0,0,1.71-.17h0a15.26,15.26,0,0,0,2,.22,14.06,14.06,0,0,1,2.39.29,6.46,6.46,0,0,0,1-.06,7.27,7.27,0,0,1,.85-.07h.06l0,0s.07,0,.12,0h0l.13,0a.22.22,0,0,1,.22,0h0l.06.06.06,0h0c.09,0,.15,0,.21.06l0,0,1.18,0h0a.5.5,0,0,1,.25.07l.11.08,0,0a38.28,38.28,0,0,1,4.42,0,29.56,29.56,0,0,0,5.8-.19h0l.27,0h0a1.28,1.28,0,0,1,.3,0l0,0h0a.28.28,0,0,1,.27-.1l2.3-.43h0a.23.23,0,0,1,.2.1h0s0,0,0,0h0v-.12l4.1-.39h0l.35.08,1.07-.09h0l7.3-.71h0l.26.1,1-.11h0L97,32.36l1.76-.17a.86.86,0,0,1,.51,0l.22,0,.28-.12.09,0,0,.09h0l.07,0h0l.06,0,1.17-.15h0l13.14-1.08.36-.1h0l.4,0,6.54-.56.29-.12h0l1.82,0h0l0,0,0,0H124c2.07-.2,4.05-.37,6-.54,4.91-.43,9.83-.85,14.74-1.5l.49-.13h0a1.2,1.2,0,0,0,1.06-.28.4.4,0,0,0,.1-.23.3.3,0,0,0-.07-.21.91.91,0,0,0-.81-.19A22.36,22.36,0,0,1,143,27a11.72,11.72,0,0,1-2.44-.24h0l-.1.08,0,0c-1.56.15-3.11.22-4.67.29s-2.86.13-4.3.25h0c-1.09,0-2.18.06-3.26.11l-3.23.15h0q-2,.08-4.06.19l-4,.24h0c-.61,0-1.21,0-1.81.06s-1,.07-1.57.07l-3.08.18c-1.55.08-3.1.17-4.65.3h0c-1.76,0-3.53.13-5.3.24-2.44.15-4.88.3-7.31.23h0a7.13,7.13,0,0,1-1-.34,7,7,0,0,0-.81-.29h0l0,0c-.05-.1-.23-.13-.41-.16a1.6,1.6,0,0,1-.41-.11,2.74,2.74,0,0,1-1.34-.33,2.75,2.75,0,0,0-1-.3l-.06,0a1.64,1.64,0,0,0-.53-.22,1.89,1.89,0,0,0-.53,0h-.06l-.2-.11h0a.18.18,0,0,1-.14,0h0a.26.26,0,0,1-.09-.07h0a.3.3,0,0,1-.05-.14.3.3,0,0,0-.16-.15.74.74,0,0,0-.35,0h0a.2.2,0,0,1-.17-.09h0l0,0a2.89,2.89,0,0,1-1-.19h0a2.59,2.59,0,0,0-.88-.18h0a51.16,51.16,0,0,1-6.92-.85l-.44-.07a1.24,1.24,0,0,1-.4.06.92.92,0,0,1-.37-.09l-1.23-.13c-.28,0-.54,0-.8,0a9.29,9.29,0,0,0-1,0c-1.36,0-2.72.13-4.07.21-2.31.14-4.62.27-7,.25-.76,0-1.94.15-3.08.28-.9.1-1.78.2-2.41.23l.53,1h0c.06.12.14.26.22.4h0a6.47,6.47,0,0,1,.39.78v.14c0,.35,0,.67,0,1h0a7.49,7.49,0,0,1-.14,1.45,2.17,2.17,0,0,1-.62,1.18.21.21,0,0,0,0,.08h0v0a5.16,5.16,0,0,1-.92.44Zm24.94,1.2v0h0l0,0ZM53.73,32.45l.51-.15h0a2,2,0,0,0,1-.24,3.5,3.5,0,0,0,.86-.68h0a2.63,2.63,0,0,0,.51-2.06c0-.12,0-.23,0-.32h0a2.14,2.14,0,0,0-.19-.77,2,2,0,0,0-.41-.57l0,0v0a1.56,1.56,0,0,0-.13-.65,1.42,1.42,0,0,0-.35-.52h0a1.82,1.82,0,0,0-1.4-.18l-.36,0h0a5.18,5.18,0,0,0-1.74.3,4.56,4.56,0,0,0-1.46.85h0a12.32,12.32,0,0,0-2.44,1.89l-.1.1a4.1,4.1,0,0,0,1.09,1.3,8.45,8.45,0,0,0,1.5,1c.41.1.77.23,1.13.36a5.41,5.41,0,0,0,2,.44Zm3.75-8.86c0-.25-.06-.68-.12-1.15a7.86,7.86,0,0,1-.1-2.35.7.7,0,0,1,0-.12L57,19.28v-.07l.08-.27L57,18.88l0,0v0l-.06-.56h0a.29.29,0,0,1,.06-.15S57,18,57,18l0-.07.06-.06a1.62,1.62,0,0,1,1.48-.26,1.84,1.84,0,0,0,1.29-.12l.12-.08a1.9,1.9,0,0,1,1.52-.5l0,0,.16.13a1.57,1.57,0,0,1,.24.23l0,.06,0,.47.17.08c.18.06.36.13.42.37v0l.35,5.31v0a.77.77,0,0,1-.38.42h0a1,1,0,0,0-.21.16l0,0h0l-1.69,0-.43,0h0c-.9.07-2.34.19-2.56-.7v0Zm-10.68.91a49.56,49.56,0,0,1,1.57-4.77,5,5,0,0,1,1.2-2.09h0l.44-.11.65-.17h.06a7.07,7.07,0,0,0,2.44.07,5.32,5.32,0,0,1,2.85.26l0,0a3,3,0,0,1,.29,1.58,2.72,2.72,0,0,0,.25,1.45l.07.12-.11,0V21L56.71,24v.1h-.1l-1.89.28h0l-3.08,0-4.75.15h-.14l0-.13Zm5.52,1.19,2.62-.32.21,0-.09.17s0,0,0,0a1.45,1.45,0,0,0,.29,0,8.16,8.16,0,0,0,1.58-.24h0a9.65,9.65,0,0,0,1.61-.12A9.44,9.44,0,0,1,60.35,25c.65,0,1.29-.05,1.92-.07a26,26,0,0,0,2.94-.17h1.44a.16.16,0,0,0,.08-.05l0,0h0l1.45,0h0a.22.22,0,0,1,.12-.08h0a1.7,1.7,0,0,1,.71,0,1.3,1.3,0,0,0,.74-.06h0a30.55,30.55,0,0,1,3.69,0c1.23.06,2.45.19,3.67.35a11.93,11.93,0,0,1,1.35.21c.38.07.75.14,1.12.18h0a23.64,23.64,0,0,0,2.57.27,20.56,20.56,0,0,1,2.81.32l12.3-.8h0a.25.25,0,0,1,.14-.09h.06a2,2,0,0,0,.79.07,3.07,3.07,0,0,0,.89-.22,1.38,1.38,0,0,0,.64-.81,4.17,4.17,0,0,0,.17-1.07c-.2-.16-.46-.09-.73,0a1.43,1.43,0,0,1-.75.08l0,0,0,.07,0,0a.83.83,0,0,1-.62.07.81.81,0,0,0-.55,0l0,0-.05,0-.38-.14a1.77,1.77,0,0,1-1.13-.77h0a2.34,2.34,0,0,1-.19-.49.91.91,0,0,1,0-.53v0a1.18,1.18,0,0,1,.43-.43,1,1,0,0,1,.57-.14h0c.39,0,.8.05,1.21.09a6.48,6.48,0,0,0,2.75-.11c.41-1.72.76-3.46,1.11-5.19.24-1.17.47-2.35.72-3.48a7.47,7.47,0,0,1,.25-1.3,7.56,7.56,0,0,0,.22-1.06h0c.14-1.23.4-2.45.66-3.67s.49-2.29.63-3.43l-3.92-.29L92,14.35c.1.49-.19.78-.51,1.1-.09.09-.19.19-.28.29h0a4.33,4.33,0,0,1-3.18.62c-.31,0-.63,0-.94,0h0a7.19,7.19,0,0,0-.78,0,5.16,5.16,0,0,1-1.07-.1h0a8.36,8.36,0,0,1-1.57.08l-2.77-.15h0l-3.42-.3-6.35-.17h-.63a7.32,7.32,0,0,1-2.35-.19c-1.44,0-2.88-.1-4.32-.17-2.15-.1-4.29-.21-6.41-.19h0l-1-.09a18.79,18.79,0,0,0-2.22-.13h0c-1.07,0-2.13-.07-3.17-.14a25.41,25.41,0,0,0-8,.37h0a2.24,2.24,0,0,0-.66.19,2.08,2.08,0,0,1-.64.18l0,0,1.87.43a8.2,8.2,0,0,1,2.76.63l.07,0a2.16,2.16,0,0,1,.55.17h0a2.58,2.58,0,0,1,.46.28l0,.06a3.7,3.7,0,0,1,0,1.45,4.14,4.14,0,0,0,0,1.06c.16.32-.35,1.62-.57,2.19l0,.1-.22.63h0l-.85,1.91v0a.84.84,0,0,1-.37.27.76.76,0,0,1-.43,0h0l-.17-.06a.49.49,0,0,1-.15-.06h0a3.58,3.58,0,0,0-.51-.29h0a3.26,3.26,0,0,1-.74-.46,3.43,3.43,0,0,1-.47-.2,2.67,2.67,0,0,0-.42-.18h0c-.36-.13-.71-.3-1.06-.46A6.78,6.78,0,0,0,39,22.28h0A3.44,3.44,0,0,0,38,22h0a4.15,4.15,0,0,1-.8-.21l-.3,0a20.73,20.73,0,0,0-4.47,0h0l-1,.06a13.75,13.75,0,0,0-2.29.24h0c-.76.15-1.49.26-2.22.37a31.22,31.22,0,0,0-3.11.58h0l-.77.15h0a30.24,30.24,0,0,0-6,1.6h0a6.52,6.52,0,0,0-1,.44,5,5,0,0,1-1.15.49l-1.24.76A16.92,16.92,0,0,0,9.11,30l.5.56,0,0,.3.91v0H10l11.31-1h0l3.42-.26h0a.52.52,0,0,0,.19,0,1.34,1.34,0,0,0,.27-.1h0l2.41-.09h0s0,0,0,0h0a.2.2,0,0,1,.22-.14L28,30l.08.06a.43.43,0,0,0,.18,0l.81-.25.06,0,0,0,0,0,.06-.05,0,0,1.24-.15h0a.21.21,0,0,1,.19.08h0l0,0h0a.37.37,0,0,1,.3,0,.2.2,0,0,1,.13.18,1.43,1.43,0,0,0,.58-.13h0l.08,0h.41l.08,0s.08,0,.15,0h.06a.23.23,0,0,1,.12-.16h0a.18.18,0,0,1,.23,0h0l0,0,.1,0h0a.38.38,0,0,1,.35,0l1,.14.06-.06,0-.05.07,0,2.31-.06,1.47-.22h.09v0a.24.24,0,0,1,.13,0h0l.28.1c1.18-.05,2.35-.12,3.53-.2L45,29.09h0l.69,0a12.69,12.69,0,0,0,1.64-.17q.7-.5,1.34-1t1.23-1.07h0A10.61,10.61,0,0,1,51.34,26a2.28,2.28,0,0,1,1-.27Zm16-1h0Zm-21.42-2.8h0Zm0,0h0ZM8.53,29.23a18.58,18.58,0,0,0,1.82-1.37A12.22,12.22,0,0,1,13.19,26l.29-.19.28-.19a5,5,0,0,0-.65.06c-.19,0-.38.05-.58.06a2,2,0,0,0-.87.3,2.48,2.48,0,0,1-.64.28c-.53.26-1,.57-1.54.87s-.8.48-1.21.7a3,3,0,0,0-.35.31,3.68,3.68,0,0,0-.26.31h0l0,0,.84.7Zm83-1.36,5.19-2-7.83.55a.2.2,0,0,1-.18.05l-.12,0h0a.36.36,0,0,1-.18.09h0l-.8.11a4.58,4.58,0,0,0,1,.36,6.06,6.06,0,0,1,1,.34,5,5,0,0,1,1.12.26c.21.07.42.13.63.18h0a.5.5,0,0,1,.15.06h0l.05,0ZM8.28,27,10,26a4.5,4.5,0,0,1-2.38-.23c-.5-.21-1-.42-4.32,0h0a6.42,6.42,0,0,0-1.08-.14,7.13,7.13,0,0,0-1.1,0l-.3.24,0,.29A14.38,14.38,0,0,0,5,26.67,20.71,20.71,0,0,1,8.28,27Zm62.26-3-5.31.15v0h-.15l0-.08-.23-.83a.44.44,0,0,1-.13-.15v0c-.09-.46-.13-.93-.18-1.45l0-.36h0v-.16h0a1.94,1.94,0,0,0-.22-.95v-.06a2.33,2.33,0,0,0-.07-.62,1.7,1.7,0,0,1,0-1,.29.29,0,0,1,0-.08h0a.33.33,0,0,1,0-.17l0,0a.91.91,0,0,1,.47-.11,2,2,0,0,1,.57.1,14.42,14.42,0,0,1,2.25,0,17.42,17.42,0,0,0,1.93.06h.05a1.32,1.32,0,0,0,.49.11,1.41,1.41,0,0,1,.37.06l0,0,0,0a4.5,4.5,0,0,1,.29,1.62,7.69,7.69,0,0,0,.09.94h0c0,.42.07.84.08,1.26s0,.89,0,1.31l0,.06-.22.3,0,0Zm4,0c-.3,0-.61,0-.92,0h-.05L73,23.74l0,0v0l-.13-.48v0l-.33-3.42v0l.09-1.26v-.07l.07,0,0,0h0a.63.63,0,0,1,.23-.05h0l1.24.11,2.74,0H77l0,.07,0,0h0l.06,0,.75.06h.09v.09l.41,4.68v.06l-.05,0a3.44,3.44,0,0,1-2,.35H76a9.53,9.53,0,0,1-1.4.09ZM84,23.69,81.42,24c-.17.05-.21-.05-.23-.14l-1-.4-.07,0v-.07L80,18.92v-.11h.11a1,1,0,0,0,.23,0,.56.56,0,0,1,.52,0,5.14,5.14,0,0,1,2.47.31l.09,0a.44.44,0,0,1,.23.15h0a2.26,2.26,0,0,1,.19.26l0,0,.11.55A12.3,12.3,0,0,1,84.21,22v.24A2.31,2.31,0,0,1,84,23.64l0,0Zm12.78-1.5a.15.15,0,0,1,.05-.11A.31.31,0,0,1,96.9,22h0a.28.28,0,0,1,.17-.06h0l.41.2v0h0a.24.24,0,0,1,.18-.18l.1,0h.07a.17.17,0,0,1,.08,0A.13.13,0,0,1,98,22v0a4,4,0,0,0,1.1,0,4.17,4.17,0,0,1,1.37.05c1-.1,2-.14,3-.17.65,0,1.3,0,2-.09h0a1.66,1.66,0,0,0,.62,0h0a1.24,1.24,0,0,1,.54,0l1.17,0c1.45-.05,2.87-.11,4.29-.11l.43-.06-4.33-.07-10.07-.09a.18.18,0,0,1-.15.15h0l0,0s-.06,0-.1,0a.29.29,0,0,1-.27,0l0,0v-.06l0,0h-.09a.23.23,0,0,1-.1.21h0c-.18.07-.24,0-.33-.21h0l-.57.05c-.08.14.07.33.18.47h0l0,0,.27.09Zm4.17-20.78,3.33.06.12-.82L101.12.8a1,1,0,0,0-.21.33h0a1.85,1.85,0,0,1-.16.28h.17Z"/></g></g></svg>