<svg xmlns="http://www.w3.org/2000/svg" viewBox="0 0 552.44 193.39"><defs><style>.cls-1,.cls-2,.cls-7{fill:#fff;}.cls-1,.cls-55,.cls-7{stroke:#231f20;}.cls-1{stroke-width:2px;}.cls-3{fill:#fcfcfc;}.cls-4{fill:#f8f8f9;}.cls-5{fill:#f6f7f7;}.cls-6{fill:#f3f4f4;}.cls-8{fill:#ef4532;}.cls-9{fill:#f05139;}.cls-10{fill:#f15d42;}.cls-11{fill:#f26a4d;}.cls-12{fill:#f37557;}.cls-13{fill:#f47f60;}.cls-14{fill:#f5886a;}.cls-15{fill:#f69376;}.cls-16{fill:#f79d80;}.cls-17{fill:#f8a68b;}.cls-18{fill:#f9b39a;}.cls-19{fill:#fabca5;}.cls-20{fill:#fbc7b2;}.cls-21{fill:#fcd1bf;}.cls-22{fill:#fddbcd;}.cls-23{fill:#fee7dd;}.cls-24{fill:#fff2ec;}.cls-25{fill:#f2f2f3;}.cls-26{fill:#e7e8e9;}.cls-27{fill:#dcddde;}.cls-28{fill:#d1d3d4;}.cls-29{fill:#c5c7c9;}.cls-30{fill:#babcbe;}.cls-31{fill:#b0b2b5;}.cls-32{fill:#a6a8aa;}.cls-33{fill:#9a9c9f;}.cls-34{fill:#909295;}.cls-35{fill:#86888b;}.cls-36{fill:#7b7d7f;}.cls-37{fill:#717375;}.cls-38{fill:#67686b;}.cls-39{fill:#5d5e61;}.cls-40{fill:#525355;}.cls-41{fill:#444446;}.cls-42{fill:#373537;}.cls-43,.cls-55{fill:#231f20;}.cls-44{fill:#dadcdd;}.cls-45{fill:#d8d9db;}.cls-46{fill:#d6d8d9;}.cls-47{fill:#eff0f0;}.cls-48{fill:#eeeeef;}.cls-49{fill:#ebeced;}.cls-50{fill:#e9eaeb;}.cls-51{fill:#e4e5e6;}.cls-52{fill:#e3e4e5;}.cls-53{fill:#e0e1e2;}.cls-54{fill:#dee0e1;}</style></defs><title>PA-31-350</title><g id="Layer_2" data-name="Layer 2"><g id="Layer_1-2" data-name="Layer 1"><path class="cls-1" d="M297.32,86.26c36.58-.58,73.22-1.3,109.87-1.94,17.5.94,31.39-4,41.54-14.69Q480.38,38.3,512,7c3.89-4.1,8.21-6.12,13.1-6L551.12,3q-14.47,47.41-28.87,94.82c-2.38,4.1-1.58,8.14,2.38,12.24Z"/><polygon class="cls-2" points="336.49 88.78 301.06 89.42 330.58 94.25 336.49 88.78"/><polygon class="cls-2" points="336.49 88.78 341.17 88.7 334.54 94.9 330.58 94.25 336.49 88.78"/><polygon class="cls-2" points="341.17 88.7 345.92 88.63 338.5 95.54 334.54 94.9 341.17 88.7"/><polygon class="cls-3" points="345.92 88.63 350.74 88.56 342.54 96.19 338.5 95.54 345.92 88.63"/><polygon class="cls-3" points="350.74 88.56 355.5 88.49 346.5 96.84 342.54 96.19 350.74 88.56"/><polygon class="cls-4" points="355.5 88.49 360.32 88.42 350.53 97.49 346.5 96.84 355.5 88.49"/><polygon class="cls-5" points="360.32 88.42 365.07 88.34 354.49 98.14 350.53 97.49 360.32 88.42"/><polygon class="cls-5" points="365.07 88.34 369.9 88.2 358.52 98.78 354.49 98.14 365.07 88.34"/><polygon class="cls-5" points="369.9 88.2 374.65 88.13 362.48 99.43 358.52 98.78 369.9 88.2"/><polygon class="cls-6" points="374.65 88.13 379.47 88.06 366.58 100.08 362.48 99.43 374.65 88.13"/><polyline class="cls-7" points="531.68 1.51 528.22 6.91 531.68 13.54 483.01 98.35 485.96 107.42"/><polygon class="cls-7" points="284.79 59.83 260.89 90.65 267.66 89.28 284.79 59.83"/><path class="cls-8" d="M212.65,85.46c0-.22-.07-.43-.07-.65h.14a2,2,0,0,0,.07.65Z"/><path class="cls-8" d="M217.4,85.46a2,2,0,0,0,.07-.65h.14a2,2,0,0,1-.07.65Z"/><path class="cls-8" d="M212.65,85.46a2.48,2.48,0,0,0,1.94,1.8,2.44,2.44,0,0,0,2.81-1.44c.07-.14.07-.22.14-.36h-.14a2.4,2.4,0,0,1-4.61,0Z"/><path class="cls-9" d="M212.79,85.46a2,2,0,0,1-.07-.65h.14a2,2,0,0,0,.07.65Z"/><path class="cls-9" d="M217.26,85.46a2,2,0,0,0,.07-.65h.14a2,2,0,0,1-.07.65Z"/><path class="cls-9" d="M212.79,85.46a2.4,2.4,0,0,0,4.61,0h-.14a2.26,2.26,0,0,1-4.32,0Z"/><path class="cls-10" d="M212.94,85.46a2,2,0,0,1-.07-.65H213a2.11,2.11,0,0,0,.14.65Z"/><path class="cls-10" d="M217,85.46a2.11,2.11,0,0,0,.14-.65h.14a2,2,0,0,1-.07.65Z"/><path class="cls-10" d="M212.94,85.46a2.26,2.26,0,0,0,4.32,0H217a2,2,0,0,1-3.89,0Z"/><path class="cls-11" d="M213.15,85.46a2.11,2.11,0,0,1-.14-.65h.14a2.11,2.11,0,0,0,.14.65Z"/><path class="cls-11" d="M216.9,85.46a2.11,2.11,0,0,0,.14-.65h.14a2.11,2.11,0,0,1-.14.65Z"/><path class="cls-11" d="M213.15,85.46a2,2,0,0,0,3.89,0h-.14a1.9,1.9,0,0,1-3.6,0Z"/><path class="cls-12" d="M213.3,85.46a2.11,2.11,0,0,1-.14-.65h.14a2.11,2.11,0,0,0,.14.65Z"/><path class="cls-12" d="M216.75,85.46a2.1,2.1,0,0,0,.14-.65H217a2.11,2.11,0,0,1-.14.65Z"/><path class="cls-12" d="M213.3,85.46a1.9,1.9,0,0,0,3.6,0h-.14a1.77,1.77,0,0,1-3.31,0Z"/><path class="cls-13" d="M213.44,85.46a2.11,2.11,0,0,1-.14-.65h.14a2.11,2.11,0,0,0,.14.65Z"/><path class="cls-13" d="M216.61,85.46a2.09,2.09,0,0,0,.14-.65h.14a2.1,2.1,0,0,1-.14.65Z"/><path class="cls-13" d="M213.44,85.46a1.77,1.77,0,0,0,3.31,0h-.14a1.64,1.64,0,0,1-3,0Z"/><path class="cls-14" d="M213.58,85.46a2.11,2.11,0,0,1-.14-.65h.14a2.11,2.11,0,0,0,.14.65Z"/><path class="cls-14" d="M216.46,85.46a2.1,2.1,0,0,0,.14-.65h.14a2.09,2.09,0,0,1-.14.65Z"/><path class="cls-14" d="M213.58,85.46a1.64,1.64,0,0,0,3,0h-.14a1.51,1.51,0,0,1-2.74,0Z"/><path class="cls-15" d="M213.58,84.82a1.51,1.51,0,1,1,3,0h-.14a1.37,1.37,0,1,0-2.74,0Z"/><path class="cls-15" d="M213.73,85.46a2.11,2.11,0,0,1-.14-.65h.14a1,1,0,0,0,.22.65Z"/><path class="cls-15" d="M216.25,85.46a1,1,0,0,0,.22-.65h.14a2.1,2.1,0,0,1-.14.65Z"/><path class="cls-15" d="M213.73,85.46a1.51,1.51,0,0,0,2.74,0h-.22a1.28,1.28,0,0,1-2.3,0Z"/><path class="cls-16" d="M213.73,84.82a1.37,1.37,0,1,1,2.74,0h-.14a1.22,1.22,0,1,0-2.45,0Z"/><path class="cls-16" d="M213.94,85.46a1,1,0,0,1-.22-.65h.14a1,1,0,0,0,.22.65Z"/><path class="cls-16" d="M216.1,85.46a1,1,0,0,0,.22-.65h.14a1,1,0,0,1-.22.65Z"/><path class="cls-16" d="M213.94,85.46a1.28,1.28,0,0,0,2.3,0h-.14a1.17,1.17,0,0,1-2,0Z"/><path class="cls-17" d="M213.87,84.82a1.22,1.22,0,1,1,2.45,0h-.14a1.08,1.08,0,1,0-2.16,0Z"/><path class="cls-17" d="M214.09,85.46a1,1,0,0,1-.22-.65H214a.78.78,0,0,0,.29.65Z"/><path class="cls-17" d="M215.89,85.46a.78.78,0,0,0,.29-.65h.14a1,1,0,0,1-.22.65Z"/><path class="cls-17" d="M214.09,85.46a1.17,1.17,0,0,0,2,0h-.22a.9.9,0,0,1-.79.43.83.83,0,0,1-.79-.43Z"/><path class="cls-18" d="M214,84.82a1.08,1.08,0,1,1,2.16,0H216a.94.94,0,1,0-1.87,0Z"/><path class="cls-18" d="M214.3,85.46a.78.78,0,0,1-.29-.65h.14a.78.78,0,0,0,.29.65Z"/><path class="cls-18" d="M215.74,85.46a1.07,1.07,0,0,0,.29-.65h.14a.78.78,0,0,1-.29.65Z"/><path class="cls-18" d="M214.3,85.46a.83.83,0,0,0,.79.43.9.9,0,0,0,.79-.43h-.14a.78.78,0,0,1-.65.29.7.7,0,0,1-.65-.29Z"/><path class="cls-19" d="M214.16,84.82a.94.94,0,1,1,1.87,0h-.14a.79.79,0,1,0-1.58,0Z"/><path class="cls-19" d="M214.45,85.46a.78.78,0,0,1-.29-.65h.14a.76.76,0,0,0,.36.65Z"/><path class="cls-19" d="M215.53,85.46a.76.76,0,0,0,.36-.65H216a1.07,1.07,0,0,1-.29.65Z"/><path class="cls-19" d="M214.45,85.46a.7.7,0,0,0,.65.29.78.78,0,0,0,.65-.29h-.22a.72.72,0,0,1-.86,0Z"/><path class="cls-20" d="M214.3,84.82a.79.79,0,1,1,1.58,0h-.14a.65.65,0,0,0-1.3,0Z"/><path class="cls-20" d="M214.66,85.46a.76.76,0,0,1-.36-.65h.14a.65.65,0,1,0,1.3,0h.14a.76.76,0,0,1-.36.65Z"/><path class="cls-20" d="M214.66,85.46a.72.72,0,0,0,.86,0Z"/><path class="cls-21" d="M214.45,84.82a.65.65,0,0,1,1.3,0h-.14a.5.5,0,0,0-1,0Z"/><path class="cls-21" d="M214.45,84.82h0a.65.65,0,1,0,1.3,0h-.14a.5.5,0,0,1-1,0h-.14Z"/><path class="cls-22" d="M214.59,84.82a.5.5,0,0,1,1,0h-.14a.36.36,0,0,0-.72,0Z"/><path class="cls-22" d="M214.59,84.82h0a.5.5,0,0,0,1,0h-.14a.36.36,0,0,1-.72,0h-.14Z"/><path class="cls-23" d="M214.74,84.82a.36.36,0,0,1,.72,0h-.14a.22.22,0,0,0-.43,0Z"/><path class="cls-23" d="M214.74,84.82h0a.36.36,0,0,0,.72,0h-.14a.22.22,0,0,1-.43,0h-.14Z"/><path class="cls-24" d="M214.88,84.82a.22.22,0,0,1,.43,0h-.14l-.07-.07-.07.07Z"/><path class="cls-24" d="M214.88,84.82h0a.22.22,0,0,0,.43,0h-.22v.07l-.07-.07h-.14Z"/><polygon class="cls-2" points="215.17 84.81 215.1 84.74 215.02 84.81 215.1 84.89 215.17 84.81"/><path class="cls-1" d="M158.72,84c-20.23,1.3-40.61,14.62-54.14,26-42.84,4.9-62.57,10.8-91.87,22.68-17.06,9-15.48,16.78,4.82,20.59,30.17,7.06,74.45,12,120,11.88,57.24-.58,123.34,1.29,180.58.72C344,165.6,359,158,380.77,152.64c64.66-16.34,119.09-31.54,145.15-43.42-55-12.6-91.87-13.39-148.82-19.94l-78-4.61C250.23,85,207.61,83.74,158.72,84Z"/><path class="cls-2" d="M122.72,119.23a3.28,3.28,0,0,0,3.89-1.37l12.17-19.73-.43-.5Z"/><path class="cls-25" d="M122.72,119.23,122,119l15.84-22,.5.65Z"/><path class="cls-26" d="M122,119l-.43-.22a1.54,1.54,0,0,1-.36-.22l16.06-22.32.58.72Z"/><path class="cls-27" d="M121.21,118.58c-.29-.14-.5-.29-.79-.43l16.34-22.61.5.72Z"/><path class="cls-28" d="M120.42,118.15c-.22-.14-.5-.29-.72-.43l16.49-22.9.57.72Z"/><path class="cls-29" d="M119.7,117.72c-.29-.14-.5-.29-.79-.43l16.7-23.11.58.65Z"/><path class="cls-30" d="M118.9,117.29a7.8,7.8,0,0,0-.79-.43L135,93.46l.58.72Z"/><path class="cls-31" d="M118.11,116.86c-.22-.14-.5-.29-.72-.43l17.14-23.69.5.72Z"/><path class="cls-32" d="M117.39,116.42c-.22-.14-.5-.29-.72-.43l16.49-22.82c.36-.22.79-.43,1.15-.65l.22.22Z"/><path class="cls-33" d="M116.67,116c-.29-.14-.5-.29-.79-.43L131.36,94.1c.58-.29,1.22-.65,1.8-.94Z"/><path class="cls-34" d="M115.88,115.56l-.65-.43,14.47-20c.5-.36,1.08-.65,1.66-1Z"/><path class="cls-35" d="M115.23,115.13c-.29-.14-.5-.29-.79-.43l13.39-18.58c.65-.36,1.22-.72,1.87-1Z"/><path class="cls-36" d="M114.44,114.69c-.22-.14-.5-.29-.72-.43l12.24-17c.65-.43,1.3-.79,1.87-1.15Z"/><path class="cls-37" d="M113.72,114.26c-.29-.14-.51-.29-.79-.43L124,98.42c.65-.43,1.3-.79,1.94-1.15Z"/><path class="cls-38" d="M112.93,113.83c-.22-.14-.51-.29-.72-.43l9.94-13.82c.65-.36,1.22-.79,1.87-1.15Z"/><path class="cls-39" d="M112.21,113.4c-.29-.14-.5-.29-.79-.43l8.78-12.17c.65-.43,1.3-.79,1.94-1.22Z"/><path class="cls-40" d="M111.42,113c-.22-.14-.5-.29-.72-.43L118.33,102c.65-.43,1.22-.86,1.87-1.22Z"/><path class="cls-41" d="M110.7,112.54c-.29-.14-.5-.29-.79-.43l6.41-8.78c.65-.43,1.37-.86,2-1.3Z"/><path class="cls-42" d="M109.9,112.1c-.22-.14-.5-.29-.72-.43l5-6.91,2.09-1.44Z"/><path class="cls-43" d="M109.19,111.67c-.94-.5-1.8-1-2.67-1.51,2.52-1.87,5.11-3.67,7.7-5.4Z"/><path class="cls-7" d="M134.31,92.52a237.3,237.3,0,0,0-27.79,17.64c5,2.88,10.08,5.76,15,8.64,2.16,1.08,3.89.72,5-.94l12.17-19.73Z"/><path class="cls-2" d="M152.1,96.62h-3.82c-2.52.5-4.9,1-6.34,4.39-2.38,3.89-4.82,7.7-7.27,11.66-1.44,2.81-1.44,4.82-.15,6.19Z"/><path class="cls-25" d="M152.1,96.62h1.22l-18.07,22.82a2,2,0,0,1-.72-.58Z"/><path class="cls-26" d="M153.32,96.62h1.3L136.11,120a5.36,5.36,0,0,1-.86-.5Z"/><path class="cls-27" d="M154.62,96.62h1.3l-18.72,23.62a4.73,4.73,0,0,1-1.08-.29Z"/><path class="cls-28" d="M155.91,96.62h1.15L138.2,120.46a2.31,2.31,0,0,1-1-.22Z"/><path class="cls-29" d="M157.06,96.62h1.3l-19,24a5.64,5.64,0,0,1-1.15-.14Z"/><path class="cls-30" d="M158.36,96.62h1.3l-19,24h-.58a2.44,2.44,0,0,1-.72-.07Z"/><path class="cls-31" d="M159.66,96.62h1.22l-18.94,24h-1.3Z"/><path class="cls-32" d="M160.88,96.62h1.22l-19,24h-1.15Z"/><path class="cls-33" d="M162.1,96.62h1.3l-19,24h-1.3Z"/><path class="cls-34" d="M163.4,96.62h1.22l-18.94,24h-1.3Z"/><path class="cls-35" d="M164.62,96.62h1.3l-19.08,24h-1.15Z"/><path class="cls-36" d="M165.92,96.62h1.3l-19.08,24h-1.3Z"/><path class="cls-37" d="M167.22,96.62h1.22l-19,24h-1.3Z"/><path class="cls-38" d="M168.44,96.62h1.3l-19,24h-1.3Z"/><path class="cls-39" d="M169.74,96.62h.36c.22.07.5.07.72.14l-18.94,23.9h-1.15Z"/><path class="cls-40" d="M170.82,96.77l1.08.22-18.72,23.69h-1.3Z"/><path class="cls-41" d="M171.9,97c.36.14.72.21,1.08.36l-18.5,23.33h-1.3Z"/><path class="cls-42" d="M173,97.34a5.41,5.41,0,0,1,.86.5l-18.07,22.82h-1.3Z"/><path class="cls-43" d="M173.84,97.85a3.31,3.31,0,0,1,1.44,3.17c.14,5.18.29,10.37.36,15.62a5,5,0,0,1-4.75,4H155.77Z"/><path class="cls-7" d="M141.94,101c1.44-3.38,3.82-3.89,6.34-4.39H170.1c2.74.5,5.26,1,5.18,4.39.14,5.18.29,10.37.36,15.62a5,5,0,0,1-4.75,4c-10.3.07-20.52-.07-30.82,0-6.12-.29-7.92-3-5.4-8C137.12,108.72,139.57,104.9,141.94,101Z"/><path class="cls-2" d="M183.2,119.59a4.05,4.05,0,0,0,3.24,1.08H206a5,5,0,0,0,3.6-1Z"/><path class="cls-25" d="M183.2,119.59a3.5,3.5,0,0,1-.72-1.15h27.94a4.72,4.72,0,0,1-.86,1.22Z"/><path class="cls-26" d="M182.48,118.44a6.11,6.11,0,0,1-.43-1.22h28.8a3.55,3.55,0,0,1-.43,1.22Z"/><path class="cls-27" d="M182,117.22c0-.22-.07-.36-.07-.58V116h29v.43a3.07,3.07,0,0,1-.14.79Z"/><path class="cls-28" d="M182,116v-1.22h29V116Z"/><path class="cls-29" d="M182,114.77v-1.22h28.94a7,7,0,0,1,.07,1.22Z"/><path class="cls-30" d="M182,113.54l-.07-1.22h29v1.22Z"/><path class="cls-31" d="M181.9,112.32v-1.15h29v1.15Z"/><path class="cls-32" d="M181.9,111.17v-1.22h29v1.22Z"/><path class="cls-33" d="M181.9,109.94v-1.22h29v1.22Z"/><path class="cls-34" d="M181.9,108.72V107.5h28.94a6.61,6.61,0,0,0,.07,1.22Z"/><path class="cls-35" d="M181.9,107.5v-1.22h28.94v1.22Z"/><path class="cls-36" d="M181.9,106.27V105h28.94v1.22Z"/><path class="cls-37" d="M181.9,105l-.07-1.15h29V105Z"/><path class="cls-38" d="M181.83,103.9v-1.22h28.94c0,.43.07.79.07,1.22Z"/><path class="cls-39" d="M181.83,102.67v-1.22h28.94v1.22Z"/><path class="cls-40" d="M181.83,101.45v-1.22H210.7a1.41,1.41,0,0,1,.07.58v.65Z"/><path class="cls-41" d="M181.83,100.22a6.06,6.06,0,0,1,.36-1.22h28.22a3.39,3.39,0,0,1,.29,1.22Z"/><path class="cls-42" d="M182.19,99a2.55,2.55,0,0,1,1.08-1.22h26.35a4.47,4.47,0,0,1,.79,1.22Z"/><path class="cls-43" d="M183.27,97.77a6.93,6.93,0,0,1,3.31-1.08c6.77.07,13.46-.07,20.23-.07a4.83,4.83,0,0,1,2.81,1.15Z"/><path class="cls-7" d="M186.58,96.69c-2.81.36-4.75,1.37-4.75,4l.14,15.91c.36,2.81,1.87,4.1,4.46,4H206c3.17.07,4.68-1.44,5-4.25-.07-5.18-.14-10.44-.22-15.62-.07-2-1-3.82-4-4.18C200,96.62,193.35,96.77,186.58,96.69Z"/><path class="cls-2" d="M220.86,119.59a7.06,7.06,0,0,0,4.32,1.08h25.2a5.42,5.42,0,0,0,3.46-1.08Z"/><path class="cls-25" d="M220.86,119.59a3.08,3.08,0,0,1-1-1.15H254.7a2.24,2.24,0,0,1-.86,1.15Z"/><path class="cls-26" d="M219.85,118.44a3.07,3.07,0,0,1-.43-1.22h35.64a6.07,6.07,0,0,1-.36,1.22Z"/><path class="cls-27" d="M219.42,117.22a6.35,6.35,0,0,1-.14-1.22h35.78v1.22Z"/><path class="cls-28" d="M219.27,116v-1.22h35.86a7,7,0,0,1-.07,1.22Z"/><path class="cls-29" d="M219.27,114.77v-1.22h35.86v1.22Z"/><path class="cls-30" d="M219.27,113.54a7,7,0,0,1,.07-1.22H255.2a7,7,0,0,1-.07,1.22Z"/><path class="cls-31" d="M219.34,112.32V111.1h35.93a7,7,0,0,0-.07,1.22Z"/><path class="cls-32" d="M219.34,111.1v-1.22h35.93v1.22Z"/><path class="cls-33" d="M219.34,109.87v-1.22h36c0,.43-.07.79-.07,1.22Z"/><path class="cls-34" d="M219.34,108.65V107.5h36v1.15Z"/><path class="cls-35" d="M219.34,107.5v-1.22h36.07a6.48,6.48,0,0,1-.07,1.22Z"/><path class="cls-36" d="M219.34,106.27V105h36.07v1.22Z"/><path class="cls-37" d="M219.34,105v-1.22h36.15a6.57,6.57,0,0,1-.07,1.22Z"/><path class="cls-38" d="M219.34,103.82a7,7,0,0,0,.07-1.22h36.15a7,7,0,0,0-.07,1.22Z"/><path class="cls-39" d="M219.42,102.6v-1.22h36.15v1.22Z"/><path class="cls-40" d="M219.42,101.38v-.58c0-.22.07-.43.07-.65h36a6.61,6.61,0,0,1,.07,1.22H219.42Z"/><path class="cls-41" d="M219.49,100.15a11.7,11.7,0,0,1,.43-1.22h35.21a5,5,0,0,1,.36,1.22Z"/><path class="cls-42" d="M219.92,98.93a3.14,3.14,0,0,1,1.15-1.22h33a4.42,4.42,0,0,1,1.08,1.22Z"/><path class="cls-43" d="M221.07,97.7a7.31,7.31,0,0,1,4.61-1.08H251A6.61,6.61,0,0,1,254,97.7Z"/><path class="cls-7" d="M225.68,96.62c-3.53-.07-6,1-6.26,4.18-.07,4.9-.07,9.86-.14,14.76-.14,3.45,1.8,5.18,5.9,5.11h25.2c3.74-.22,4.39-1.8,4.68-3.53.14-5.26.36-10.58.5-15.77.21-3-1.73-4.39-4.61-4.75Z"/><path class="cls-2" d="M268.23,119.73a5.73,5.73,0,0,0,3.24.94c8.71-.07,17.28.07,26.06,0a5.19,5.19,0,0,0,3.67-.94Z"/><path class="cls-25" d="M268.23,119.73a2.62,2.62,0,0,1-1-1.15h34.92a2.47,2.47,0,0,1-.94,1.15Z"/><path class="cls-26" d="M267.22,118.58a3.66,3.66,0,0,1-.5-1.22h35.86a3.55,3.55,0,0,1-.43,1.22Z"/><path class="cls-27" d="M266.72,117.36a2.54,2.54,0,0,1-.14-.72v-.5h36.14a6.31,6.31,0,0,1-.14,1.22Z"/><path class="cls-28" d="M266.58,116.14v-1.22h36.14v1.22Z"/><path class="cls-29" d="M266.58,114.91a7.43,7.43,0,0,0,.07-1.22h36.07v1.22Z"/><path class="cls-30" d="M266.65,113.69v-1.22h36.14a7.39,7.39,0,0,0-.07,1.22Z"/><path class="cls-31" d="M266.65,112.46v-1.22h36.14v1.22Z"/><path class="cls-32" d="M266.65,111.24a7,7,0,0,0,.07-1.22h36.07v1.22Z"/><path class="cls-33" d="M266.72,110v-1.22h36.07V110Z"/><path class="cls-34" d="M266.72,108.79a7,7,0,0,1,.07-1.22h36v1.22Z"/><path class="cls-35" d="M266.79,107.57v-1.22h36v1.22Z"/><path class="cls-36" d="M266.79,106.34v-1.22h36v1.22Z"/><path class="cls-37" d="M266.79,105.12c0-.43.07-.79.07-1.22h35.93v1.22Z"/><path class="cls-38" d="M266.86,103.9v-1.22h36c0,.43-.07.79-.07,1.22Z"/><path class="cls-39" d="M266.86,102.67v-.22a4.44,4.44,0,0,1,.07-1h35.93v1.22Z"/><path class="cls-40" d="M266.94,101.45a3.11,3.11,0,0,1,.22-1.22h35.71v1.22Z"/><path class="cls-41" d="M267.15,100.22a4.83,4.83,0,0,1,.5-1.22h34.78a8.25,8.25,0,0,1,.43,1.22H267.15Z"/><path class="cls-42" d="M267.66,99a3.78,3.78,0,0,1,1.15-1.22H301.5a7.82,7.82,0,0,1,.94,1.22Z"/><path class="cls-43" d="M268.81,97.77A7,7,0,0,1,273,96.62c8.35.07,16.78,0,25.2,0a5.34,5.34,0,0,1,3.31,1.15Z"/><path class="cls-7" d="M273,96.62c-3.67,0-6.19,1.66-6.12,5.83-.07,4.68-.22,9.43-.29,14.18.29,2.59,2,4,4.9,4,8.71-.07,17.28.07,26.06,0,3.46.22,5.18-1.51,5.18-4.75.07-5.26.07-10.51.14-15.7a4.56,4.56,0,0,0-4.68-3.6C289.76,96.62,281.34,96.69,273,96.62Z"/><path class="cls-2" d="M314.6,120.6a4.78,4.78,0,0,0,2.81.65c7.63.14,15.26.29,22.9.36a3.22,3.22,0,0,0,2.88-1Z"/><path class="cls-25" d="M314.6,120.6a2.8,2.8,0,0,1-1-1.22l30.24.07a8.29,8.29,0,0,1-.65,1.15Z"/><path class="cls-26" d="M313.59,119.38a5.15,5.15,0,0,1-.29-1.22H344q-.11.76-.22,1.3Z"/><path class="cls-27" d="M313.3,118.15v-1.22h30.82v.72a1.07,1.07,0,0,1-.07.5Z"/><path class="cls-28" d="M313.3,116.93V115.7h30.82v1.22Z"/><path class="cls-29" d="M313.3,115.7v-1.22h30.82v1.22Z"/><path class="cls-30" d="M313.3,114.48v-1.22h30.82v1.22Z"/><path class="cls-31" d="M313.3,113.26V112h30.82v1.22Z"/><path class="cls-32" d="M313.3,112v-1.22h30.82V112Z"/><path class="cls-33" d="M313.3,110.81v-1.22h30.82v1.22Z"/><path class="cls-34" d="M313.3,109.58v-1.22h30.82v1.22Z"/><path class="cls-35" d="M313.3,108.36v-1.22h30.82v1.22Z"/><path class="cls-36" d="M313.3,107.14v-1.22h30.82v1.22Z"/><path class="cls-37" d="M313.3,105.91a6.57,6.57,0,0,1-.07-1.22h30.89v1.22Z"/><path class="cls-38" d="M313.23,104.69v-1.22h30.89v1.22Z"/><path class="cls-39" d="M313.23,103.46v-1.22h30.89v1.22Z"/><path class="cls-40" d="M313.23,102.24a3.35,3.35,0,0,1,.22-1.22h30.67v1.22Z"/><path class="cls-41" d="M313.45,101a3.64,3.64,0,0,1,.5-1.22h30.17a3.08,3.08,0,0,1,0,1.15V101Z"/><path class="cls-42" d="M314,99.79a3.71,3.71,0,0,1,1.15-1.22h28.15a2.41,2.41,0,0,1,.86,1.22Z"/><path class="cls-43" d="M315.1,98.57a6.82,6.82,0,0,1,3.53-1.15h21.53a7,7,0,0,1,3.1,1.15Z"/><path class="cls-7" d="M318.63,97.42c-3.53.36-5.33,2-5.4,5,.07,5.11.07,10.22.07,15.41.07,2.59,1.73,3.38,4.1,3.38,7.63.14,15.26.29,22.9.36,2.09.14,3.6-.79,3.82-4v-16.7c.43-1.8-.94-3-4-3.53Z"/><path class="cls-2" d="M358.66,120.46a5.85,5.85,0,0,0,3.53,1,33.31,33.31,0,0,0,6.7-1.08Z"/><path class="cls-25" d="M358.66,120.46a2.86,2.86,0,0,1-.86-1.15l14.54.07c-1.15.36-2.3.72-3.46,1Z"/><path class="cls-26" d="M357.8,119.3a3.74,3.74,0,0,1-.43-1.08H375c-.86.43-1.73.79-2.66,1.15Z"/><path class="cls-27" d="M357.37,118.22a4.34,4.34,0,0,1-.14-1.08h19.94L375,118.22Z"/><path class="cls-28" d="M357.22,117.14V116H379a16.58,16.58,0,0,1-1.87,1.15Z"/><path class="cls-29" d="M357.22,116v-1.08h23.4c-.5.36-1,.72-1.58,1.08Z"/><path class="cls-30" d="M357.22,114.91v-1.08h24.7a6.65,6.65,0,0,1-.72.65c-.22.14-.36.29-.58.43Z"/><path class="cls-31" d="M357.22,113.83v-1.08h25.49a5.16,5.16,0,0,1-.79,1.08Z"/><path class="cls-32" d="M357.22,112.75V111.6h26a4,4,0,0,1-.5,1.15Z"/><path class="cls-33" d="M357.22,111.6v-1.08h26a2.72,2.72,0,0,1,0,1.08Z"/><path class="cls-34" d="M357.22,110.52v-1.08h25.7a5.89,5.89,0,0,1,.29,1.08Z"/><path class="cls-35" d="M357.22,109.44v-1.15h25.06a4.67,4.67,0,0,1,.65,1.15Z"/><path class="cls-36" d="M357.22,108.29a5.51,5.51,0,0,0-.07-1.08h24.19a12.49,12.49,0,0,1,.94,1.08Z"/><path class="cls-37" d="M357.15,107.21v-1.08h22.39c.58.29,1.08.58,1.66.94l.14.14Z"/><path class="cls-38" d="M357.15,106.13V105H377.6l1.94,1.08Z"/><path class="cls-39" d="M357.15,105V105a5.5,5.5,0,0,1,.07-1.08H375.3c.79.36,1.58.79,2.3,1.15Z"/><path class="cls-40" d="M357.22,103.9a5.55,5.55,0,0,1,.14-1.08h15.41c.86.36,1.66.72,2.52,1.08Z"/><path class="cls-41" d="M357.37,102.81a3.76,3.76,0,0,1,.5-1.08h11.88q1.62.54,3,1.08Z"/><path class="cls-42" d="M357.87,101.73a3.32,3.32,0,0,1,1.22-1.22l6.77.07c1.37.36,2.66.72,3.89,1.15Z"/><path class="cls-43" d="M359.1,100.51a7.84,7.84,0,0,1,4.32-.43c.86.14,1.66.36,2.45.5Z"/><path class="cls-7" d="M363.42,100.08c-4.32-.58-6.34,1-6.26,4.9s.07,8.13.07,12.17c.22,3.24,2.23,4.25,5,4.32a34.77,34.77,0,0,0,19-7c2.74-2.23,2.74-4.68,0-7.42A53.68,53.68,0,0,0,363.42,100.08Z"/><polygon class="cls-43" points="342.18 91.8 342.18 91.8 316.04 91.8 316.04 92.95 342.18 92.95 342.18 92.95 342.18 91.8"/><polygon class="cls-43" points="348.66 98.21 348.66 98.21 348.51 96.98 348.15 95.69 347.58 94.68 346.78 93.74 345.85 92.95 344.69 92.3 343.47 92.02 342.18 91.8 342.18 92.95 343.19 93.02 344.26 93.31 345.13 93.81 345.92 94.46 346.57 95.25 347.14 96.12 347.36 97.13 347.5 98.21 347.5 98.21 348.66 98.21"/><polygon class="cls-43" points="348.66 150.05 348.66 150.05 348.66 98.21 347.5 98.21 347.5 150.05 347.5 150.05 348.66 150.05"/><polygon class="cls-43" points="342.18 156.46 342.18 156.46 343.47 156.24 344.69 155.95 345.85 155.3 346.78 154.51 347.58 153.58 348.15 152.57 348.51 151.27 348.66 150.05 347.5 150.05 347.36 151.13 347.14 152.13 346.57 153 345.92 153.79 345.13 154.44 344.26 154.94 343.19 155.23 342.18 155.3 342.18 155.3 342.18 156.46"/><polygon class="cls-43" points="316.04 156.46 316.04 156.46 342.18 156.46 342.18 155.3 316.04 155.3 316.04 155.3 316.04 156.46"/><polygon class="cls-43" points="309.56 150.05 309.56 150.05 309.7 151.27 310.06 152.57 310.64 153.58 311.43 154.51 312.37 155.3 313.52 155.95 314.74 156.24 316.04 156.46 316.04 155.3 315.03 155.23 313.95 154.94 313.09 154.44 312.3 153.79 311.65 153 311.07 152.13 310.86 151.13 310.71 150.05 310.71 150.05 309.56 150.05"/><polygon class="cls-43" points="309.56 98.21 309.56 98.21 309.56 150.05 310.71 150.05 310.71 98.21 310.71 98.21 309.56 98.21"/><polygon class="cls-43" points="316.04 91.8 316.04 91.8 314.74 92.02 313.52 92.3 312.37 92.95 311.43 93.74 310.64 94.68 310.06 95.69 309.7 96.98 309.56 98.21 310.71 98.21 310.86 97.13 311.07 96.12 311.65 95.25 312.3 94.46 313.09 93.81 313.95 93.31 315.03 93.02 316.04 92.95 316.04 92.95 316.04 91.8"/><polygon class="cls-43" points="348.08 126 348.08 125.42 310.14 125.42 310.14 126.58 348.08 126.58 348.08 126"/><path class="cls-2" d="M504.75,107.28a194.72,194.72,0,0,0-43.92-.14c-.22.07-.36.07-.58.14Z"/><path class="cls-2" d="M504.75,107.28l1.87.22H459.39l.86-.22Z"/><path class="cls-3" d="M506.62,107.5c.87.07,1.66.22,2.52.29H458.38a7.3,7.3,0,0,0,1-.29Z"/><path class="cls-5" d="M509.14,107.78c.72.07,1.51.22,2.3.29H457.38c.29-.07.65-.22,1-.29Z"/><path class="cls-5" d="M511.45,108.07l1.37.22H456.66c.22-.07.43-.14.72-.22Z"/><path class="cls-44" d="M513.18,111.24c-.79.07-1.51.22-2.3.29H456.44c-.43-.07-.86-.21-1.15-.29Z"/><path class="cls-45" d="M510.87,111.53c-.72.07-1.51.22-2.23.29H457.88c-.5-.07-1-.22-1.44-.29Z"/><path class="cls-46" d="M508.64,111.81c-1,.14-2,.22-3,.29H459.68c-.65-.07-1.22-.22-1.8-.29Z"/><path class="cls-28" d="M505.62,112.1c-18.86,1.8-38.81.43-44.93.14-.36-.07-.72-.07-1-.14Z"/><path class="cls-7" d="M460.83,107.14c20.81-2.59,42.19-.58,60.91,2.45-22,5.26-53.14,3-61.06,2.66C449.53,110.66,452.12,109.37,460.83,107.14Z"/><path class="cls-2" d="M509.22,109a143.35,143.35,0,0,0-30.1,0Z"/><path class="cls-2" d="M509.22,109a.54.54,0,0,1,.36.07H478.76a.54.54,0,0,1,.36-.07Z"/><path class="cls-3" d="M509.58,109.08a.54.54,0,0,1,.36.07H478.4a.54.54,0,0,1,.36-.07Z"/><path class="cls-5" d="M509.94,109.15a.65.65,0,0,1,.36.07H478a.66.66,0,0,1,.36-.07Z"/><path class="cls-5" d="M510.3,109.22a.27.27,0,0,1,.22.07H477.82a.26.26,0,0,1,.22-.07Z"/><path class="cls-25" d="M510.51,109.3a.27.27,0,0,1,.22.07H477.61a.27.27,0,0,1,.22-.07Z"/><path class="cls-47" d="M510.73,109.37a.26.26,0,0,1,.21.07H477.39a.26.26,0,0,1,.22-.07Z"/><path class="cls-48" d="M510.94,109.44c.07,0,.14,0,.14.07H477.25c0-.07.07-.07.14-.07Z"/><path class="cls-49" d="M511.09,109.51c.07,0,.07,0,.14.07H477.1c.07-.07.07-.07.14-.07Z"/><path class="cls-50" d="M511.23,109.58c.07.07.07.07.07.14H477c0-.07,0-.07.07-.14Z"/><polygon class="cls-26" points="511.3 109.73 511.3 109.73 511.3 109.8 477.03 109.8 477.03 109.73 511.3 109.73"/><path class="cls-51" d="M511.3,109.8a.07.07,0,0,0-.07.07H477.1a.07.07,0,0,0-.07-.07Z"/><path class="cls-52" d="M511.23,109.87c-.07.07-.07.07-.14.07H477.25c-.07,0-.07,0-.14-.07Z"/><path class="cls-53" d="M511.09,109.94c0,.07-.07.07-.14.07H477.39c-.07,0-.14,0-.14-.07Z"/><path class="cls-54" d="M510.94,110a.26.26,0,0,1-.21.07H477.61a.26.26,0,0,1-.22-.07Z"/><path class="cls-27" d="M510.73,110.09a.27.27,0,0,1-.22.07H477.82a.27.27,0,0,1-.22-.07Z"/><path class="cls-44" d="M510.51,110.16a.27.27,0,0,1-.22.07H478a.27.27,0,0,1-.22-.07Z"/><path class="cls-45" d="M510.3,110.23a.65.65,0,0,1-.36.07H478.4a.65.65,0,0,1-.36-.07Z"/><path class="cls-46" d="M509.94,110.3a2.13,2.13,0,0,1-.72.14h-30.1a2.13,2.13,0,0,1-.72-.14Z"/><path class="cls-28" d="M509.22,110.45a143.37,143.37,0,0,1-30.1,0Z"/><path class="cls-7" d="M494.17,108.22c9.43,0,17.14.65,17.14,1.51s-7.7,1.51-17.14,1.51S477,110.59,477,109.73,484.74,108.22,494.17,108.22Z"/><path class="cls-7" d="M305,162.22c10.58-.14,12.82-1.94,6.7-5.47L298,148.68l-20.38,4.46L292.35,162Z"/><path class="cls-7" d="M95.72,125.06v20.45a3.34,3.34,0,0,0,2.16,1.37c38.88,5.47,75,6.55,108.58,8.21,42.77,2.23,79.56,0,109.08-7.85,5.26-1.44,7.42-6.41.29-8.14-67.46-12.53-135.29-19.37-203.76-16.34C109.9,122.9,97.45,123.91,95.72,125.06Z"/><path class="cls-55" d="M84.27,89.2c-.35,11.21-.14,30.7,1.38,40.14l2.58-.5s3.25-26.69,2.16-37.26C90.25,90.21,90.12,89,90,88c-1-8.22-1.43-7.57-2-8.1a2.85,2.85,0,0,0-3.19,1.31A64,64,0,0,0,84.27,89.2Z"/><path class="cls-55" d="M84.32,184.92c-.41-10.89-.26-31.76,1.32-41.63l2.58.5s3.25,26.69,2.16,37.26c-.23,2.2-.43,4-.61,5.38-.82,6.35-1.25,5.84-1.76,6.33a2.85,2.85,0,0,1-3.19-1.31A51.76,51.76,0,0,1,84.32,184.92Z"/><path class="cls-7" d="M94.86,125.28v19.87c-8.42.5-25.78-6-25.78-9.86S85.57,124.92,94.86,125.28Z"/><path class="cls-53" d="M249,151.06l.65-.5,19.44-2.66c2-.07,4-.22,6-.43Z"/><path class="cls-54" d="M249.66,150.55l.86-.5,13.54-1.87c1.66-.07,3.38-.14,5-.29Z"/><path class="cls-27" d="M250.52,150l.72-.5,9.07-1.22c1.3-.07,2.52-.07,3.74-.14Z"/><path class="cls-44" d="M251.24,149.54l.65-.43,5.11-.72c1.08,0,2.23-.07,3.31-.07Z"/><path class="cls-45" d="M251.89,149.11l.72-.43,1.66-.22c.86,0,1.8-.07,2.74-.07Z"/><path class="cls-46" d="M252.61,148.68l.29-.22h1.37Z"/><path class="cls-2" d="M253.76,133.56l-5.9-4.1c-23.54-7-43.27-9.65-52.49-.36l-4,4.46Z"/><polygon class="cls-2" points="253.76 133.56 255.49 134.78 190.33 134.78 191.41 133.56 253.76 133.56"/><polygon class="cls-3" points="255.49 134.78 257.36 136.08 189.18 136.08 190.33 134.78 255.49 134.78"/><polygon class="cls-5" points="257.36 136.08 259.09 137.3 188.17 137.3 189.18 136.08 257.36 136.08"/><polygon class="cls-5" points="259.09 137.3 260.96 138.6 187.02 138.6 188.17 137.3 259.09 137.3"/><polygon class="cls-25" points="260.96 138.6 262.76 139.82 185.94 139.82 187.02 138.6 260.96 138.6"/><polygon class="cls-47" points="262.76 139.82 264.63 141.12 184.78 141.12 185.94 139.82 262.76 139.82"/><polygon class="cls-48" points="264.63 141.12 266.36 142.34 183.7 142.34 184.78 141.12 264.63 141.12"/><polygon class="cls-49" points="266.36 142.34 268.23 143.64 182.55 143.64 183.7 142.34 266.36 142.34"/><path class="cls-50" d="M268.23,143.64l1.73,1.22H181.54a2.34,2.34,0,0,1,.43-.58l.58-.65Z"/><path class="cls-26" d="M270,144.86l1.87,1.3H181.18a1.8,1.8,0,0,1,.36-1.3Z"/><path class="cls-51" d="M271.83,146.16l1.73,1.22H181.69a1.69,1.69,0,0,1-.5-1.22Z"/><path class="cls-52" d="M273.56,147.38l1.87,1.3H183.7c-.14-.07-.22-.07-.36-.14a5.14,5.14,0,0,1-1.66-1.15Z"/><path class="cls-53" d="M275.43,148.68l1.8,1.22H186.87c-1.08-.36-2.16-.79-3.17-1.22Z"/><path class="cls-54" d="M277.23,149.9l1.87,1.3H191a39.79,39.79,0,0,1-4.18-1.3Z"/><path class="cls-27" d="M279.1,151.2l1.73,1.22H195.94c-1.66-.36-3.31-.79-4.9-1.22Z"/><path class="cls-44" d="M280.83,152.42l1.87,1.3H203.36c-2.52-.36-5-.79-7.42-1.3Z"/><path class="cls-44" d="M184.35,153.72l-23.11-.86c.36.29.79.58,1.22.86Z"/><path class="cls-45" d="M282.7,153.72l1.73,1.22H164.7a20.74,20.74,0,0,1-2.23-1.22h21.89l30.74,1.15c-4-.22-7.92-.65-11.74-1.15Z"/><path class="cls-46" d="M284.43,154.94l1.87,1.3H167.72c-1.08-.43-2.16-.86-3-1.3Z"/><path class="cls-28" d="M286.3,156.24l1.66,1.15a48.55,48.55,0,0,0,8.5,3.17l12.67,1.37C238,169,187.23,163.8,167.72,156.24Z"/><path class="cls-7" d="M247.86,129.46,288,157.39a48.55,48.55,0,0,0,8.5,3.17l12.67,1.37c-81.58,8.07-136.3.07-147.89-9.07l53.86,2c-11.66-.72-22.61-2.45-31.75-6.34-2.38-1.15-2.81-2.59-1.37-4.25l13.39-15.19C204.58,119.81,224.31,122.47,247.86,129.46Z"/><path class="cls-7" d="M195.94,128.52c4,3.74,22.61,3.67,51.41.94"/><path class="cls-7" d="M200.62,130.46l-13.75,19.37L183,148.39c-2.23-1.15-2.45-2.59-.79-4.39L196,128.52A9.54,9.54,0,0,0,200.62,130.46Z"/><line class="cls-7" x1="215.67" y1="131.18" x2="216.18" y2="164.88"/><path class="cls-7" d="M292.71,159.55c-66.1,4.75-109.51,3.67-130.25-6.62"/><line class="cls-7" x1="233.24" y1="130.68" x2="261.97" y2="161.28"/><line class="cls-7" x1="244.18" y1="142.41" x2="263.91" y2="140.98"/></g></g></svg>