<svg xmlns="http://www.w3.org/2000/svg" viewBox="0 0 218.79 40.41"><defs><style>.cls-1{fill:#231f20;fill-rule:evenodd;}</style></defs><title>PA-30</title><g id="Layer_2" data-name="Layer 2"><g id="Layer_1-2" data-name="Layer 1"><path class="cls-1" d="M127.44,40.41c-15.84-.65-33.12.43-49.25-2.74a4.62,4.62,0,0,0-.72-.94L12.31,33.28c-3.1-.43-11.52-.14-12.31-2,.94-1.94,5.26-2.59,10.87-2.59l34.7,1.8a6.19,6.19,0,0,1,2.16-.86c1.94-.36,5,.29,5.83,1.37l18.58.36c1.58-1.3,3.31-3.6,5-4.46C77,18.67,75.1,10.39,74.66,2.4c1-1.51,4.68-4,5.76-1,.22.65.72,1.51,1,2.3,3.38,0,3.17.07,3.6.36,0,1.51-2.16,1.66-3.17,1.8,1,5.76,3.38,10.15,9.43,12.31,1.08,0,3.46.5,5.54-.5-.36-.72-2.23-3.6-1.94-4.1,1.37.07,2.45,2.23,3.53,3.53l8.14-3.67a20,20,0,0,1,4.25-1.66,32.58,32.58,0,0,1,5.69-.65c0-1.73-3.31-5.47-3.1-6.62A47.59,47.59,0,0,1,118.66,11c3.1,0,6-.36,9.29.14,3.38,1.22,4.9,4.82,7.34,7.34,4.1,1,8.06,2.59,11.09,5.9a54.86,54.86,0,0,1,5.26-1.8c6.19-1.58,13.18-3.31,20.3-1.94,1.08.86,3.89,1.94,4.1,3.53a7.3,7.3,0,0,1-.72,1.73c2.3-.43,4.9-1,7.34.22l32.18-3.53c1.87.07,5.54,1.66,3.17,3.38l-34.2,4.75-17.93,2c-9,3.38-15.91,3.53-25.34,4.1a32.32,32.32,0,0,0-4.75,1.8,39.21,39.21,0,0,1-8.35,1.73Zm-.07-1C112,38.68,95,39.69,79,37.17a1.57,1.57,0,0,1-.36-.22V36.6c5.83.22,13.18.94,18.58-.22.5.07,19.87,3.67,17.35-2.45-1.58-2.16-8.5-1.8-10.22-1.94v-.36a13.66,13.66,0,0,0,2.66-5,.49.49,0,0,0,.43-.29c13-1.37,26.64-4.54,37.51.14a11.35,11.35,0,0,0-.07-2.16,5,5,0,0,1,2.09,5.9c-4.32,6-12.67,8.42-19.58,9.22ZM110.59,37c-4.46.36-10-1.22-12.1-.94,0-.07-.07-.14-.07-.22.72-.36,1.44-.72,2.09-1.08a22.74,22.74,0,0,0,3.6-2.09l9.29.86c1.87,1.87-.65,3.46-2.81,3.46Zm-22.25-.29c-3.38-.07-6.77-.5-10-.5,1.3-3.74-3.17-4.39-5.54-4.61,0-1.66,9.29-4,11.52-4.61a112.51,112.51,0,0,1,14.9-1.15c0,4.32,2.59,5.69,6.19,3.17a.54.54,0,0,1,.29.07c-.22,1.44-4.25,4.54-5.4,5-4,2.88-7.27,2.38-12,2.59ZM141,36.31c1.22-3.74,12.67-.58,12-6.62-1.15-2.38-2.66-1.3-5-1.37,0-.36-.07-.79-.07-1.08,6.84-2.16,14-2.88,22-3.53a25.45,25.45,0,0,0,.65,5c-2.09,2.3-6.77,3.74-8.21,4.61-2.38,1.58-19.51,2.81-21.38,3ZM77.4,36.24,52.63,34.8c.58-.14,1.66-1.66,1.15-3.46l18.65.72c2.3.79,5.11-.36,5.47,3.17-1.15,1-.43,1.08-.5,1Zm-64.94-3.6c.94-.5-.86-3.38-1.44-3.31L46.15,31c1.22.14,6.41,1.44,4.61,3.67l-38.3-2Zm132,1.08V33.5A17.47,17.47,0,0,0,148,29.4c.58-.07,1.44-.72,2.52-.65,1.94,0,1.87.58,1.73,2.52-1.94,2.16-5.11,2.38-7.78,2.45Zm-92.74.79c0-3-3.46-4-5.62-4,2-1.37,6.55-.5,7,.79.65,1.94-.29,3.24-1.37,3.17ZM11.23,32.42A82.82,82.82,0,0,1,.79,31.63c-.07-.07-.14-.14-.22-.14S.5,31.27.5,31.12c1.3-1.3,7.34-1.8,9.07-1.8,1.37.22,3.17,2.88,1.66,3.1Zm155.52-.29c.29-.5,6.77-4,7.49-5.18,2.09-.07,9,.14,7.42,3.6-9.5.94-13.25,1.37-14.9,1.58Zm15.77-1.8c.29-3.82-4.46-3.38-6.77-3.74V26.3c2.74-.5,8.93-1.66,7.63,3.74-.36.29-.36.07-.86.29Zm1.3-.22a4.59,4.59,0,0,0-.43-3.6l31.46-3.6c2.74.5,4.1,1.22,3,2.66l-34,4.54Zm-81.65-.29c-4.82-.72-2.66-7.63,1.73-6,5,1.94,1.73,5.69-1.73,6Zm69-1.37c-1.08-1.8-1.66-6.7.79-7.2,1.87,1.51,5.11,1.66,2.38,5-.86.58-2.23,2.16-3.17,2.16ZM78.77,27.09c-.07-.07-.07-.07-.07-.14,2.52-3,12.17-4,16.27-4.18,1.8-.07,4.1.5,6.12.5-.79.43-1.3,1.58-1.73,1.8a46.37,46.37,0,0,0-20.59,2ZM78,26.23,75.24,2.76c.14,0,.43.07.58-.5l5,22.61A24.17,24.17,0,0,1,78,26.23Zm69.19,0c-.29-.5-.65-.86-.65-1.22,4.32-2.52,20.52-5.9,24.7-4a8.66,8.66,0,0,1-1.3,1.87c-5.54-.07-18.14,2.16-22.75,3.38Zm-42.84-3.6c.86-.65,6-.43,5.9-1.08-.22-2.52-.58-5.62-1.08-6.7-.79-.07-3.31,1.22-4.9,1.44-.5.72-.07,3.74.07,6.34Zm-.43.43a5.32,5.32,0,0,1-2.3-.14,15.46,15.46,0,0,0,1.87-.5,14.31,14.31,0,0,0-.36-5.54,28.28,28.28,0,0,0-5.69,2.3,9.34,9.34,0,0,1,0,3.17H96.7c0-.86-.07-1.8-.07-2.66-.29-.36-2.59.79-3,1.3-.14,1.44-.07,1.37-1.58,1.37-2.16.29-4.32.5-6.48.72C82.08,18.67,79.49,12.12,77.76,7c-.14-.86-.36-.86-.36-1.37,1.37.07,2.74.14,4.1.29.86,7,5.54,13.68,13.18,12.67,3.67-.5,7.49-3.1,12.17-4.82a23.51,23.51,0,0,1,4-1.44,25.81,25.81,0,0,1,7.85-.79c3.31,0,8.93-1,11.09,1.37,0,.07,0,.07-.07.14-2.38.22-17.71-1-18.94,1.44-.07,1.22.14,6,.86,7,3.1.29,6.55-1.08,9.72-1.51,3.74-.5,7.85-.65,11.74-.79a19.94,19.94,0,0,1,2.38-.14c2.52.79,5.9,1.87,8,3.89-.22,1.08-.22,1.08-.36,1.15-13.18-4.1-22-.43-36.29.79a21.27,21.27,0,0,1-2.81-1.8Zm-6.91-5.47c-.36-.79-1.58-2.66-1.51-3.31.22.22,2.52,2.45,2.52,3a2.14,2.14,0,0,1-1,.36ZM117,11c-.14-1.44-1.94-3.24-1.8-4,.65.86,2.45,2.59,2.66,4-.29.07-.58,0-.86.07ZM78.55,5.28a5.56,5.56,0,0,0-1.08-.14.54.54,0,0,0,.07-.29,13.62,13.62,0,0,1,6.84-.65c.07.14.07.14-.07.29s-.79.58-1.37.65a31.77,31.77,0,0,1-4.39.14Zm-1.37-.86a10.56,10.56,0,0,1-.72-2.88C78.62,1,80,.38,80.78,3.69c-1.3.07-2.74.72-3.6.72Z"/></g></g></svg>