<svg xmlns="http://www.w3.org/2000/svg" viewBox="0 0 156.06 74.05"><defs><style>.cls-1{fill:#231f20;fill-rule:evenodd;}</style></defs><title>PA-34</title><g id="Layer_2" data-name="Layer 2"><g id="Layer_1-2" data-name="Layer 1"><path class="cls-1" d="M80.09,74.05l2-.29c2.31-3,5.88-5.72,8.77-8.61a1.82,1.82,0,0,1,.45-.29c2.31-2.41,5.3-4.95,7.77-7.45a3.17,3.17,0,0,1,1-.51c9.73,1.51,19.11-2.06,28.26-4.43a13.75,13.75,0,0,0,5.43-2.41l.22-.8c2.31-.77,4.85-.55,7.32-1.12,4.82-.87,10.57-1.86,14.1-4.59l.74-1.41c-.9-2.25-3.31-3.28-5.3-4.34a79.22,79.22,0,0,0-11.66-4c-1.22-.29-2.41-.71-3.56-1a1,1,0,0,1-.58-.51c1.09-.9,2.63-1.45,3-3.21A27.61,27.61,0,0,0,146.27,27c.35.26,0-.51-.16-.74-1.61-1.64-4.95-2.5-6.68-3.44-1.19-2-3.89-2.67-6.33-3.11a34.94,34.94,0,0,0-6.84-.16c-1.38-.19-2.79.48-4,.06,1.38-5.88,6.1-12.11,6.52-17.82C125.78.35,122,.16,118.65,0a43.65,43.65,0,0,0-13.52,3.08L94.83,22.54,62.59,25.21c-1.73-1.25-2.92-3.47-5-4-.32.06-.39.1-.48.19s-.19.35-.19.61l2.6,3.28a.33.33,0,0,1-.13.26c-3.18.32-6.26.67-9.41.71-2.5-1.16-3.76-4.82-6.65-4.37-.16.06-.32.1-.35.32l2.83,4.37c-2.67.67-5.52-1.06-7.39-2.5-.13-.06-.19-.29-.32-.58l.32-.8A2.59,2.59,0,0,0,37,20.65,18,18,0,0,0,33.53,20L20.78,7.51A8.89,8.89,0,0,0,13.68,5c-2.44,0-4.62-.42-7,.1-.19.06-.22.29-.35.58A2,2,0,0,0,6.42,6l8.12,23.7L0,44.41C2.44,45.89,7.87,46.24,10.85,46A6.84,6.84,0,0,0,16,43.93l7.55-7.16c4.14.8,8.22,2.31,12.49,3.31,1.54.93,3.66,1,5,1.7a149.83,149.83,0,0,0,37.25,7.48c.16,0,.32.13.26.32C70.26,56,62.49,63.49,53.82,69.65a11.58,11.58,0,0,1-5.65,2.92.33.33,0,0,0-.16.19l.29.61c1.48.39,2.86-.64,4.37-.26A124.64,124.64,0,0,1,67,73.18c4.5.29,8.77-.29,13.13.87Zm.48-.8a1.1,1.1,0,0,0,.9-.29,1.12,1.12,0,0,0-.58-1.38A18.32,18.32,0,0,0,75.72,70C68,69.43,60.53,69.68,53,71.87c4.24.32,8.54-.13,13,.29,1.48-.32,2.6.29,4-.16a63.67,63.67,0,0,1,10.08,1.19,4,4,0,0,1,.42.06ZM55.62,70c1.51-.48,3-.39,4.56-.84,6.33-.67,12.52-1.22,18.59.22a6,6,0,0,0,1.8.61c1.73-1,2.86-2.54,4.46-3.95,1.06-1,1.89-1.83,3-2.83,1.83-2,4.72-4.27,6.23-6.2a.56.56,0,0,1,.42-.26c.22-.13,0-.58.35-.71,9.31-.29,20,1.38,28.61-4a1,1,0,0,0,.1-.58l-.35-1.61c-.45.35-.16.93-.45,1.41-7.1,2-15.57-.29-23.22.51a87.56,87.56,0,0,0-15.09.71c-2.09-.1-4.34,1.19-6.17.58-.06,0-.06-.19,0-.32l4.08-1.06c.1,0,.13-.22.16-.42,10.66-3.44,21.42-2.09,32.27-2.12,2.67,0,5.33.58,7.84-.45l1.45-1.93,1.19-1.48c0-.39-.55-.51-.93-.8l-1.12-.16c-6.87-2.15-13.68-.67-20.42-.1C98.39,45.25,93.9,46,89.27,47a40.08,40.08,0,0,1-9.51,2.89L55.49,70l.13.06ZM97.43,57.54a.29.29,0,0,0,.26-.16c0-.19-.26-.19-.45-.26s0,.19,0,.35l.19.06ZM125.33,52a17.24,17.24,0,0,0,4.88-1,13.43,13.43,0,0,1,2.09-.8s.1-.13.16-.26c-.74-1.16-2.41-1.51-3.56-2.28-1.06-.35-2.18-1.16-3.24-.9-1.25,1-.93,3-1,4.59a1.13,1.13,0,0,0,.55.67ZM87,51.22c4.34-.8,8.61-.16,13-.67,7.35-.39,14.77,1,21.9.19a2.66,2.66,0,0,0,.22-.26c-2.09.13-4,0-6.29.13a70.69,70.69,0,0,0-9.41-.19c-4.17-.16-8.06-.26-12.27-.16a14.39,14.39,0,0,1-2.57.22,11.37,11.37,0,0,0-4.56.58s-.13.13,0,.16ZM81.18,48.3c1.67-.16,3.21-1,4.72-1.35,1-.45,2.38-.67,3.28-1a142.7,142.7,0,0,1,26.27-3.76c3.66.42,8.12,0,11,2.41.19.42.19.77.51.93A13.35,13.35,0,0,0,137,47.43a75.91,75.91,0,0,0,12.65-2.09,20.79,20.79,0,0,0,3-1.25c0-.22-.16-.22-.39-.35-2.25.1-4.34-.58-6.71-.32-10.12-.48-19.88-2.15-30-1.61l-63.71-2c-2.06.22-4.82,0-6.07,1.8,0,0,0,.22.1.29,3.66,1.16,7.42,2,11.21,3.28C65,47,72.93,47.53,80.73,48.07c.1,0,.29.29.45.22ZM7.77,45.09c2.18-.42,4.75,0,6.78-1.22-3.47-1.06-7.58-.58-11.11.19a11.06,11.06,0,0,0-1.12.29l5.46.74ZM3.21,42.93C8,41.07,14,44.19,17.12,38.86c1.77-2,3.85-3.79,5.62-5.49a32.37,32.37,0,0,0-8-2.09,6,6,0,0,0-1.61,1.64L3.4,42.29l-.32.58.13.06Zm151.31-.32a.63.63,0,0,0,.48-.16c.22-.64-.55-1.12-1-1.57a55.38,55.38,0,0,0-14.58-5.94,119.27,119.27,0,0,0-19.94-4.59l-1.16,1.41-12.27-6.29.29-.64.74-.67c-2.73-1.09-6.2-.35-9.41-.42C85.74,24,73.89,25.88,62.07,26c-.64-.39-.93-.93-1.61-1.38a16.18,16.18,0,0,0-1.61-1.7,1.54,1.54,0,0,0-.35-.26L61,25.91a.49.49,0,0,1-.19.35,51.6,51.6,0,0,1-11.95.8c-1.57-1.22-2.83-3-4.37-4.08l3.34,4.08a.46.46,0,0,1-.13.32L42,28.32c-.55.74,0,1.73.19,2.5.39.42.48,1.06.8,1.45,3.73,5.3,11.5,5.2,17.82,5.49,1.51-.1,3,.1,4.37.1,3.21,0,6.2.26,9.28.19l9.22.32c3.37.42,6.71,0,10.21.35,5.17.35,10.12.22,15.29.64a21.56,21.56,0,0,0,3.53-.1c4.14.22,8.25,0,12.3.58,10,.55,19.85,1.51,29.54,2.76ZM98.58,38.34l6.17-.55a1.81,1.81,0,0,0,.35-.35c-.1-2-1.35-3.72-2-5.68-1.32-.93-3.34-.48-5-.61-1.48.32-3.4.22-3.95,1.48a11.2,11.2,0,0,0,1.22,5.3l3.21.42ZM88.5,38.21l3.24-.45.32-.67-1-4c-.16-.64-.9-.8-1.61-1-2.12.51-4.46-.13-6.29.8a4.32,4.32,0,0,0,.48,2.76c.48.61.26,1.54.61,2.09l4.21.45Zm20.78,0c3.66-.19,5.91-2.22,8.54-4.82a.88.88,0,0,1,.16-.35.5.5,0,0,0-.1-.32c-1.89-1.57-4.69-2.54-7-3.85-2-.74-3.37-1.89-5.17-2.79a.45.45,0,0,0-.35.16c-2.09,2.38,0,5.94,1.19,8.25,1,1.22,1.22,3.05,2.73,3.73Zm-35.52-.48,6.49-.22c.35-1.35-.48-2.86-.93-4.3-.45-.55-1.28-.35-2-.45-1.28.35-2.34-.1-3.56.13-1.25,0-2.41.1-3.56.16-.61.48-.35,1.64-.1,2.44.35.55.16,1.32.58,1.8l3.08.45Zm-7.93-.67,1.28-.1-.61-2.76c-.13-.19,0,0-.19-.22l-4.62,1.19L62,36.45l3.82.64ZM132,31.76a5.71,5.71,0,0,0,4.78-2.09c.48-1,.16-1.73.39-2.6l-.8,2.79c-2.76,1-6,.26-8.89.8L132,31.76ZM16.38,29.67l12.3-1.06c-.8-1.77-3-3.08-4.17-4.56a66.63,66.63,0,0,0-4.88-5l.32,2.06a.78.78,0,0,1-.32.61c-1.28-5.39-5.62-9-9.76-13a1.66,1.66,0,0,1-.45-.26c-.22-.13,0-.42-.1-.67l-.74-.9,7,22c0,.32.35.58.67.8Zm107.32-.19,7.16-.29-10.44-.13c-.06.06-.26,0-.39.06l3.66.35Zm-102-1.32.1-.1-.9-3.56-.48-.64.77,4,.39.32.13,0Zm102.47,0,11.69-.61c.61-1.25,1.64-2.28,1.8-4.08-.06-.16-.19-.16-.29-.29l.35-.67c0-.06,0-.22,0-.32-2.15-1.41-5-1.25-7.48-1.8a45.74,45.74,0,0,0-8.45.39c-4,.64-8,1.41-12,2.31-.1.1-.13.16,0,.39,4.46,2.6,8.61,5.11,14.45,4.69Zm14.58-.32c2.06-.22,4-.22,6-1.22.1-.06.16-.16,0-.39a1.19,1.19,0,0,0-.48-.16L138.95,24c-.8.87-.58,2.25-.67,3.37.1.19.19.48.48.48ZM41,27.26a.61.61,0,0,0,.32-.1l-1.61-1L41,27.26Zm55.59-4.72c4.82-.8,9.67.51,14.58-.8,2.54-.67,5.14-1.09,7.45-1.61L125,5.91l.93-2.18L126,3.5c-1.32-.93-3.37-.64-5.11-1.09a74.61,74.61,0,0,0-13.62,1.54,10.11,10.11,0,0,1-1.48.39,68.64,68.64,0,0,0-5.33,10.28l-4.08,7.87.19.06ZM106.84,3.08c2-.16,3.82-.74,5.84-1,5.2-1,10.37-.48,15.51.42-6.55-3.08-14-1.44-20.87.35-.13.1-.77.35-.48.26ZM153,43.19c-35.16-4.56-70.61-2.63-105.68-5.62-7.51-.22-11.91-1.25-14.13-3.73a54.54,54.54,0,0,1-3.56-4.27L17.57,30.7l6.55,2.18,1,.55.35.61-.9,1.64c2.83,1.41,6.52,2.25,9.83,3.05,4.3-1,9.41-.64,13.78-.16,32.59,1.83,87,2.7,97.91,4.14,2.38,0,4.69.32,7,.48Z"/></g></g></svg>