<svg xmlns="http://www.w3.org/2000/svg" viewBox="0 0 207.24 47.16"><defs><style>.cls-1{fill:#231f20;fill-rule:evenodd;}</style></defs><title>PA-44</title><g id="Layer_2" data-name="Layer 2"><g id="Layer_1-2" data-name="Layer 1"><path class="cls-1" d="M28.7,40.52c-2.83.12-9.8-1.06-9.8-4.65a9.7,9.7,0,0,1-4.17-2C11,33.28-.27,31.55,0,30c.47-2.55,11.93-1.09,16-.69,1.6-1,3.81-1.11,5.94-1.3,4.57-3.8,11.84-2.55,16.33-1.8,5.19-.79,10.34-1.7,15.54-2.44,5.69-3.31,9.74-6.33,15.56-9.18,6.12-3,23.07,1,33.52,3.33,1.26-1.26,2.66-2.41,3.84-3.59,1.14,0,1.07,0,1.07,1.09a31.67,31.67,0,0,0-2,2.82c1.4.47,8.33,2.09,10.45,2.42.77-1.13,1.62-2.15,2.37-3.18,1.35-.41,2-.07,1.32,1.4a6.22,6.22,0,0,0-1.35,2.48c3.9.78,8,1.69,12.18,2.23,1.32-2.05,7.31-12.68,9.05-16.43-4.45.14-9.85.09-15,0-1.11-.74-1.3-1.79.13-2.36,4.37-.43,11.21-.81,16.38-1.4,1.22-1.22.85-2.17,2.75-3.31a24.49,24.49,0,0,1,8.29.51,2.92,2.92,0,0,1,.56,1.86c2.56.1,10.9-.56,13.91-.89,2.48,0,6,.38,8.07,1.76.39,1.17-1.59,1.43-2.52,1.69-7.2,1.11-12,1.8-19.25,2.42-.51,6.34-1.06,13.62-1.9,20.14C163.92,26,181,23.76,193.28,22c6-.67,12.83.51,14,1.73,0,.85-9,2.66-11.67,3.13C159,33.61,113.55,42,79.08,47.16c-23.65-1.71-34.47-.79-50.38-6.64Zm-1.38-2.59c17.6-1.14,35.4-3.53,53.09-1.6.45.53,1.44.72,2.86,2.15.06.51-8.11,1.77-7.77,4,.18.91,2.4,3.69,3.27,3.76-5,.24-48-1.76-51.45-8.34ZM20,36.15c5.85,0,7.09-5.32,2.9-8,.76-1.54,8.3-3.27,14.27-1.37-.15.15-6.13,2.83-7,3.25-.8-1-2.29-.94-3.69-.94-.6,1.05-.14,2.93.38,3.94-2.18,3.27-1.69,4.48.23,6.31-1.83,0-6.74-1.29-7.12-3.15Zm6.51,1.14c0-.33-.82-.92-.08-1.54a465.41,465.41,0,0,1,51.71-2.06c0,.13.06.94,0,1.09a357,357,0,0,0-51.63,2.52ZM14.4,31.47c0-2.47,7.68-2.43,9.36-1.91A3.48,3.48,0,0,1,22.39,35c-3,0-8-1.22-8-3.56ZM26.81,35C31.29,25.41,56.54,24.6,61.6,24.07a59.69,59.69,0,0,1,12.56,2.39c-.8.91-1.92.79-1.55,2.92a6.28,6.28,0,0,0,2.9,3.23c-16.36,0-32.32.35-48.7,2.36ZM1.3,29.76c1.28-1.34,9.3-.24,13.34.15-1,.59-.84,1.92-.61,2.87-2.16,0-12.73-1.2-12.73-3Zm72.53-.7c0-3.16,7.3-3.48,9.57-3.48,1.09,1.23,2.72,4.64.38,6.76-3.17,0-9.95.15-10-3.29Zm53.8,1.58c-6-4.58-15.1-4.54-19.37-5.4a15.82,15.82,0,0,0-.27-1.74,25.39,25.39,0,0,0-4.31-1c-.42.27.24,1.62,0,2-2.16,0-2-.44-2.09-.49-.08-.8-.26-1.44-.31-2.29a36.48,36.48,0,0,0-8.54-1.91c0,.79.8,3.7.51,4a3.31,3.31,0,0,1-1.73-.18c-.25-1.3-.41-2.62-.81-4.4a53.84,53.84,0,0,0-10.06-.76c-.82.81-1.38,3.54-2.42,6.47a9.43,9.43,0,0,0-3.44,1.12,15.82,15.82,0,0,0,2.09-8.41c-1.29-1.94-2.52-2-5-1.86-4.15.83-8.31,6.27-10.68,7.38-.71.1-2.08-.06-2.82.07,0-2.27,10.46-7.85,14.37-8.75,18.8-.59,39.57,7.62,58.28,9.82,2.43-4,10.62-18.65,11.9-21.84A5.91,5.91,0,0,1,144.71,1h5.75l1.27.46c.05.2.1.41.18.64v.64c-2.49.25-4.62.24-7,1.2-.87.87-.63,1.56.35,1.94a24.73,24.73,0,0,0,7,1.47c0,.33-.05.66-.08,1-3,1.91-7.57,5.21-11,7.65-.46,1.7-1.78,6.53-2.38,8.65,3.79.57,7.47.62,11.69,1A11.9,11.9,0,0,1,150,27.6c-2.21.52-19.47,2.65-22.38,3Zm65-5.93c-.57-1.48.24-1.79,1.08-2.21,2.9-.19,9.18.13,11.94,1.24-2.75.82-12.06,3.83-13,1Zm-51.7-1.42c.49-1.88,1.24-4.49,1.86-6.66,3.57-2.13,6.59-4.1,9.23-5.87,0,.2-.15.75-.17,1-1.77,1.31-6.46,4.43-8.24,5.52-.29,1.18-.78,3.45-1.2,5.21,2.52.25,5.25.52,8.16.75a7.55,7.55,0,0,1-.13,1,84.41,84.41,0,0,1-9.51-.89Zm3-1.87a27.75,27.75,0,0,1,1-3.9c1.6-.79,5-2.81,6.64-3.71,0,.41-.05.84-.08,1.27-1,.68-4.08,2.22-5.4,3.1-.34,1.07-.63,1.31-.78,1.89a53.94,53.94,0,0,1,5.54.51,3.89,3.89,0,0,1-.18,1.58c-2.15-.1-4.55-.41-6.76-.72Zm3.89-2.25c1.37-1.14,2.5-1.81,3.51-2.54,0,.68.17,2.17-.25,2.59a15.48,15.48,0,0,1-3.26-.05ZM125.65,6.61c-.33-.08-.9-.69-.41-1.18,5-.42,10-.65,15.63-1.07a4.28,4.28,0,0,1-.72,2c-5.12.29-9.25.33-14.49.28ZM153,6.5c-2.6-.08-6-.38-7.77-1.54.2-1.63,6.31-1.36,8.41-1.66,5.05,0,10-.76,14.93-.76a25.69,25.69,0,0,1,5.72,1.27,55.8,55.8,0,0,1-6.69,1.4A87.09,87.09,0,0,1,153,6.5ZM126.87,32.35c20.9-3.6,43.21-6.41,64.88-9.09-.34,1.7.73,2.33,1.65,3C155.27,33.18,119,39.32,80.15,45.74a4.22,4.22,0,0,1-3.5-2.88c-1.08-2.31,7.66-3.09,8-3.87.14-1.22-4.6-3-4.62-5,3.65.24,6-.54,6.2-4.25,0-.49-.37-3.57-1.14-4.48,7.29-1.75,14.94-1,22.18.36,3.5.64,13.93,1.63,15.21,3.23,0,.23-27-1-29.63-1.09-.1.05-.27.46-.4.54-.71.85-.51-.22-1.25-.54A5.31,5.31,0,0,0,87,27c-.32,1.07-.06,3.14.76,3.87a10.88,10.88,0,0,0,4.07.25A2,2,0,0,0,92.52,29c10.87.41,21.56.6,32.42,1.26,3.2,1.5-28.9-.3-31.53-.44-.42.27,0,.59.18,1,4.42.61,26.64,1.26,33.28,1.57ZM84.1,38.73C86.5,40.29,87.78,44,101,43.06L84.1,38.73Z"/></g></g></svg>