<svg xmlns="http://www.w3.org/2000/svg" viewBox="0 0 463.42 149.45"><defs><style>.cls-1{fill:#231f20;fill-rule:evenodd;}</style></defs><title>PA-60</title><g id="Layer_2" data-name="Layer 2"><g id="Layer_1-2" data-name="Layer 1"><path class="cls-1" d="M61.34,2.43H55.51c1.08-3.17-9.72-3.31-9.43,0L40,2.5l-2,.94c-.79,1.22.07,3.17.36,4.46.79,2.23,1.58,3.82,1.94,5.26C45.86,32.38,52.49,50.6,57.53,70c1.08,2.81,1.51,5.69,2.38,8.5a1.07,1.07,0,0,1-.29.65c-6,1.22-12.6,0-18.94,1.44-2.66.14-5.18-.36-7.63.65-2.45.07-4.39,1.3-6.34,1.94a3,3,0,0,0-1.15,3c.22.86.72,1.08.58,1.94C18,90.63,8.93,90.13.65,92.29A4,4,0,0,0,0,94.66c.5,1.22,2.16,1.66,3.74,1.3,2.74-.07,5,.86,7.78.07,3.46,1.22,7.49.22,10.37,1.58,8.28-.79,18.65-2.16,26.71.72,10.51,3,18.5,5.33,28.44,8.86,15.84,4.75,45.72,11.59,67.54,16,14.69,3,34.42,6,45.5,7.78,5,.65,9.72,1.37,14.62,2.3,8.35.94,16.49,3.6,24.77,3.38,15,1.8,29.38,1,44.35,1.58,10.87.22,20.81-.36,31.54-.07,5.9-.36,11.3.43,17.14.72a4,4,0,0,1,1.87.36l1.22,9.14,1,1a.91.91,0,0,0,1-.22l1.87-10.37c38.23-.43,65,1.15,102.46-9.29,12.6-3,30.67-9,31.46-15.7a11.37,11.37,0,0,0-1.08-5.62C458,99.85,411.48,92.14,384,91.35c-9.07-1-16.27-18.22-56.3-16.56-.79-.07-.5-1.3-1.15-1.87a1.69,1.69,0,0,1-.58-.14,2.1,2.1,0,0,0-.65.14l-.58,1.51c-1.37.72-3.24,0-4.82.65-5.33,0-10.58.29-15.77.14a50.5,50.5,0,0,1-8.57-.43c-2.23-3.24-5.26-5.69-7.27-9.14-1.51-1.44-3.6-2.59-5.4-1.8a4.81,4.81,0,0,1-.72.36c-.65,2.09,1.44,3.6,2.16,5.62,1.15,1.51,1.58,3.67,2.45,5.26a.54.54,0,0,1-.22.5c-13.75-.29-27.36,1.22-42.19.22l-4.82.5c-12.53,1.66-25.49-.36-38.3,1-5.47-4.39-10.3-12.1-17.64-13.1-.29,0-.22.22-.36.43-.14,2,1.3,3,1.94,5,1.66,1.94,2.45,4.25,4.1,6,.29.72.5,1.22.29,1.66-7.42,1.51-15.12.22-22.68.43-2.88.29-2.3-8.21-7.56-8.57-8.14.29-16-1.3-23.9-2.38-25.78-4.54-43.92-25.63-56.23-44.86C74.09,15.53,72.65,6,64,2.72c-1.08,0-1.87-.43-2.66-.29ZM458.71,110c-5.11-4-13.46-6.12-20.59-8.28C419.83,97.9,401.4,96.39,383.33,95a5.85,5.85,0,0,1-3.82.14l-1.8-1.73c-.07-.14-.65-.14-.86,0-2.38,3.6-6,5.11-9.94,7.13-.14,0-.5.22-.86.29L364,99.7c-2.66-3.89-4-10.15-6.34-14.9a11.7,11.7,0,0,0-1.44-4.39l-3.53-1.22-4.1-.58c-.14.79.36,1.51-.29,2.16-3.24,2.81-8.64,0-12.82.86l-3-3.74-4,.14c-1.22,3.74.79,9.07.36,13.46.07,4.32.65,8.42.43,12.53,2.38,2.59,6.12,5.18,8.14,8.42a1.07,1.07,0,0,1-.22.58l-7.34,5,.79,7.85c.22,2.66-.86,5.33.29,8.28.72,1.15,42-1.37,42.26-.14a230.15,230.15,0,0,0,74.23-13.25c2.74-1.58,6.26-2,8.5-3.82,0-1.66-.5-4.75,0-5.11l2.74-1.87ZM68.31,16.1H43.63L64.2,76.84l1.4,3.59c6.83-.53,13.83.35,20.48-.26,14-.26,26.78-1,41.4-1.49,5.16.26,9.63.09,14.88,0,6.56-.26,12.52-.09,18.73-.26a.39.39,0,0,0,.26-.35c-1-1.66-.61-5-2.89-5-8.67-.79-18-1.4-27.22-3.24a65.39,65.39,0,0,1-19.78-9,136.94,136.94,0,0,1-26.7-23.46l-3.06-.09L68.31,16.1Zm217,50.34v.35l4.9,8.4a2.61,2.61,0,0,0,2.63-.17l-7.35-8.58Zm-96.84,2.3,6.3,8.58,2-.09c-1.75-2.71-4.46-4.9-7-8-.53-.09-1.23-.88-1.31-.53ZM323.14,78.1c-16.28,0-32.65,1-49.19,1-13.83.26-27.49.7-41.23.79-13.3,0-27.31,1.93-41.05,1.66-2.19.26-4.2.09-5.86.26-3.85,0-8.14.17-12.08.26-9.63.17-18.21.17-27.31.7-10-.18-20,1-29.41.44-7.27,1-14.62,1-21.45,1.23-21,1.58-42-1.66-62.94,1.23a3.28,3.28,0,0,1-2.1.52c-.35,0-.44.18-.17.44l13.13.7,50.16.52a3,3,0,0,1,1.49,1.84l-.61,1c-3.41,1.75-7.18.79-10.85,1.84-3.41.52-6.57.87-9.72,1.49L56.07,97.36c4.46,1.58,26.26,7.7,31.07,8.93,36.5,9.28,73.53,17.86,110.9,22.23,14.53,1.93,28.62,4.29,43,5.34,7.7,0,15.41.35,22.93.26,10.68.88,21,.26,31.51.61,10.59,0,13,0,27.66.61l1-14.36c-.44-1-1.93-.53-2.63-.26a22.73,22.73,0,0,1-5,1.93l-4.38,1.58c-9.1,1.4-18.12,2.36-27.31,1.49-17.07-.26-32.91-2.45-50.07-3.94-14.71-1.23-27.14-2.36-41.05-5.43l-.61-1.23c0-.26.18-.35.26-.61,11.29-3.24,24.07-3.5,36-7.62l18.21-3.33c1.58-.26,6.39-.53,7.53-1l-15.84-.7c-1.14.09-1.58-.44-1.4-1.14l3.68-10.85a3,3,0,0,1,2.28-1.84l15.06-.44c2.45,0,2.28,1.49,2.28,3.15v11l7-1.58-.09-11a2.3,2.3,0,0,1,2.28-2.28l18.38-.17c1.93-.09,1.84,2.1,1.75,3l.09,8.05a40.27,40.27,0,0,1,6.48-.17V88.78a2.16,2.16,0,0,1,1.93-2.54L319.28,86a2.32,2.32,0,0,1,2,2V99.9l1.4.88c.09,0,.44.18.61,0,0-1.93-.26-4-.18-6,0-3.68.18-6.83,0-10.24.18-2.19,0-3.85.79-5.87,0-.17-.44-.52-.79-.52Zm-280.94,12-6.3,1,.26,1.23c8.58.44,17.33-.79,25.91-1.66l-19.87-.53Zm254.52,9.79c-5.6.26-11,.26-16.28,1.14-5.86,1-11.73,1.75-17,3.68,7.79,1.14,15.67,2.19,23.37,3.15,3.85,1.58,8,2.19,9.89,5.69a4.44,4.44,0,0,1,0,4.2l-2.63,1c-3.94.7-10.68,1.66-15.06,1.93-2.45.53-4.9,0-6.83.53,2.1.79,4.55.79,6.83,1.05,10,1.23,20.4.35,30.81-1.49,4.73-.61,8-3,11.73-4.81l-.35-11.64-.61-1.14c-1.49-1-3.5-.88-5.25-1.84a135.73,135.73,0,0,0-18.64-1.4Zm27.94,6.26a.76.76,0,0,1,.53.35c-.09-.17-.35-.26-.53-.35Zm-74.38,1.44c-7-.09-13.48,2.36-20.66,3.24-5.6.61-10.94,2.54-16.28,3.15-1.4.7-2.63.61-3.85,1,13.48,1.58,26.87.88,40.7,1.84,6.39-.53,12.08-2.8,18.56-3.15,6.39.26,12.25-.26,18.56,1.31,2.19.35,4.29,1.31,6.13.17a.74.74,0,0,0-.18-.61c-14.18-4.2-28.54-6-43-6.91Zm74.09,1.73-.18.09v1l1.31-.35c.17-.53-.79-.53-1.14-.7Zm3.6,4.1h-3.5a3,3,0,0,0-.26,3c1-.09.61-1.23,1-1.93.44-.87,2-.09,2.8-1.05Zm-56.09,3.38-3.59-.26-1.93.26-1.58.53h13.13l-6-.53ZM41.37,8.83h29c6.81.83,15.73.75,18.86,1.06,4.16.38,3,1.28.05,1.28-3.89,0-15.89.68-16.92.68h-30l-1-3ZM50.62,1c1.55,0,2.81.41,2.81.92s-1.26.92-2.81.92-2.81-.41-2.81-.92S49.07,1,50.62,1ZM348,84.73l-11.64.35c-1.58,4.2.53,10-.44,14.79l.44,1.23,20.75-.26.44-1-3.59-8.14a1.48,1.48,0,0,1,.09-.61l-2.54-6-3.5-.44ZM456.77,111.8H335l-1.51,1.94H456.26l.5-1.94Zm-127.22,4.39h33.12l-.43,1.51H329.54v-1.51Zm128.35,0v1.51l-96.21,0,.29-1.51ZM319.82,101.93l-7.34,18.79L305,122c2.16-.29,5.26-1.87,5.69-3.53l7.06-17,2.09.5Zm-3.74-1.59-9.58,23.18-1.51-.07,9.58-23.69,1.51.58ZM233.78,88c1.15.07,1.66.72,1.22,1.51l-4.32,10.66a1.33,1.33,0,0,1-1.37,1.22l-7.78-.07c-.79.07-1.3-.29-1.08-1l6.84-10.73A2.61,2.61,0,0,1,229.25,88ZM222,119h-85.3v1.66H222V119ZM54.07,95.45l77,18.94a111,111,0,0,0,33.55,3.24h52c-4.25-.58-18-5.33-15-9.36l21.31-28.94-7.85.14-20.3,27.36c-2.38,3.17-7.7,8.64-15,8.93-6.19.22-25.49,1.15-43.7-2.59L60.19,94.66l-6.12.79ZM207.22,80a153.13,153.13,0,0,1-19.15,24.7c-7.2,7.27-14.76,7.13-32.47,5.33-35.71-3.74-55.94-11.23-90.72-17.64l-.5,1.22c35.57,8.57,77.9,19.66,86.76,19.44,28.66,1,32.9,2.23,40.75-7.49,8.42-9.94,16.13-20.66,19.58-25.7l-4.25.14ZM69.84,8l3.31,5.62L69.84,8Z"/></g></g></svg>