<?xml version="1.0" encoding="utf-8"?>
<!-- Generator: Adobe Illustrator 21.1.0, SVG Export Plug-In . SVG Version: 6.00 Build 0)  -->
<svg version="1.1" id="AS" xmlns="http://www.w3.org/2000/svg" xmlns:xlink="http://www.w3.org/1999/xlink" x="0px" y="0px"
	 viewBox="0 0 421.7564 109.2217" enable-background="new 0 0 421.7564 109.2217" xml:space="preserve">
<g>
	<path fill-rule="evenodd" clip-rule="evenodd" d="M175.7855,33.4746h5.7951v1.9313h-5.7951V33.4746L175.7855,33.4746z
		 M369.3569,60.7156c0.4736,0.3368,4.9655,6.4965,4.9655,6.8774c0,2.0897-6.4713,15.98-7.2975,19.5269l-6.7552-2.3989
		L369.3569,60.7156L369.3569,60.7156z M341.9124,64.3743c-1.0213,0.3022-0.2095,1.1792,0.2432,2.332
		c0.3308,0.8433,0.7453,1.5781,1.1869,2.4611c0.8408,1.6809,1.7586,3.2678,2.8256,4.6857c2.2461,2.9849,4.4048,5.3592,7.3933,7.6292
		c5.5559,4.2196,12.7823,7.5691,22.4779,7.5691h0.4294c3.9847,0,15.5206-2.3463,16.0974-4.5062
		c-1.8711,0.4357-4.3798,2.0653-6.6628,2.5656c-2.565,0.5621-4.8123,1.2968-7.9322,1.2968h-3.6487l-6.8831-0.7446
		c0.8895-3.8673,7.5269-18.1907,7.5269-20.2844c0-0.0786-5.2098-7.2388-5.5803-7.5104l-0.2095-0.0794l-9.4731,24.962
		c-4.8146-2.5506-7.1152-4.5397-10.7572-8.3104C347.1069,74.5359,342.1635,67.3895,341.9124,64.3743L341.9124,64.3743z
		 M147.2392,63.9451c0.9303,0,2.111-4.9348,2.361-6.0083h23.6098c0.3708,0,6.8683,7.2439,6.8683,7.725v4.5062l-0.7447,9.0034
		l0.1007,2.1549c-3.3055,0-7.3503,1.1097-10.9463,1.0729c-2.571-0.0266-8.7032,0.1324-11.3604,0.4442
		c-3.1184,0.366-8.3234,0.2946-11.5974,0.4221c-3.8815,0.1517-7.884,0.3433-11.3836,0.4213l6.296-19.7187L147.2392,63.9451
		L147.2392,63.9451z M142.3644,57.9563l6.5917-0.0195l-1.5038,5.3643l-6.753-0.0312L142.3644,57.9563L142.3644,57.9563z
		 M180.0782,77.4638c0-2.9353,0.9845-7.3605,0.6437-10.0854l-0.2634-2.3542c-1.2957-0.9062-6.1336-7.5165-7.0341-7.5165h-31.5513
		l-8.4314,26.5887c7.8979,0.0195,15.7156-0.6243,23.8853-0.6243c3.119,0,8.9113-0.0586,11.6759-0.5581
		c1.5639-0.2826,4.1624-0.3892,5.7093-0.5148c1.5701-0.1275,4.0507-0.6438,5.366-0.6438V77.4638L180.0782,77.4638z M56.4489,87.1199
		h-0.644c-1.6002,0-6.8009-2.3663-8.3024-3.0724c-2.0341-0.9567-5.434-3.4617-5.434-6.1547v-0.6437
		c0-3.9225,6.8281-6.2229,11.3754-6.2229h1.0732c4.0561,0,9.8734-0.1497,9.8734,3.8625v0.6437c0,2.4346-1.9967,4.9501-2.9367,6.7201
		C60.302,84.4216,59.6194,87.1199,56.4489,87.1199L56.4489,87.1199z M56.4489,87.7638c3.435,0,4.2304-3.199,5.4479-5.2827
		c1.1208-1.918,3.1374-4.6219,3.1374-7.3777c0-2.5316-1.673-3.2562-3.2196-4.2917l-6.8658-0.2693l-2.7927,0.0547
		c-4.1301,0-10.5171,2.8105-10.5171,6.4374v0.8583c0,3.2704,3.5215,5.516,5.7937,6.6536
		C49.1562,85.4093,54.2248,87.7638,56.4489,87.7638L56.4489,87.7638z M171.2781,104.9301h-41.639v-7.5104h0.8586
		c6.9327,0,16.4001-1.0421,22.9201-1.9766c3.479-0.4989,7.1671-1.1614,10.6483-1.8c3.2244-0.5916,7.6844-1.7884,10.4315-2.0172
		v10.9437C174.4977,104.3723,173.7014,104.9301,171.2781,104.9301L171.2781,104.9301z M81.9904,98.9218h13.3073
		c-0.9193,0.6387-3.1348,1.2399-3.4342,2.3604c1.2784,0.298,6.4695,4.0771,7.0829,4.0771h27.2585v-8.5834
		c0-0.6088,0.741-1.0728,1.2878-1.0728c0.7843,0,1.7172,0.5922,1.7172,1.2875v8.3687h42.9267c3.8018,0,3.005-3.2383,3.005-6.8667
		c0-3.2901,0-6.5803,0-9.8705c0.4649-0.3115,0.7143-0.6438,1.5023-0.6438h0.4292c0.6956,0,1.2878,0.9324,1.2878,1.7167v15.6643
		l5.3632-0.0014l-1.4996,3.2202H97.4441C95.7637,108.578,82.8666,100.1174,81.9904,98.9218L81.9904,98.9218z M207.5528,54.3025
		l-0.0014,22.7321c-4.43,1.0319-13.2985,4.0771-18.0292,4.0771V54.718l1.9244,0.2625l8.6051,0.0767L207.5528,54.3025
		L207.5528,54.3025z M371.9613,58.7951l27.7458-2.5648l1.4445,21.8772c-1.7544,0.4084-6.279,1.5891-7.0832,2.7896
		c1.0843,1.6183,6.7181,5.15,9.8734,5.15c2.3831,0,2.6552-1.4017,3.8633-1.5021c-0.0887,1.0646-1.4423,2.3604-2.361,2.3604
		c-4.4722,0-8.2134-2.4106-11.3023-3.9359c-3.5629-1.759-6.757-3.3996-8.5164-6.9356c-2.5455-5.1154-6.8484-17.0242-13.6641-17.0242
		V58.7951L371.9613,58.7951z M130.0683,82.8284l-21.678,0.8583c1.4448-3.0107,3.0209-9.1695,4.212-12.7409
		c1.444-4.3302,2.7927-8.3758,4.2395-12.7136c0.7288-2.1859,1.3782-4.1321,2.0928-6.2762c0.3458-1.0372,0.7027-2.1146,1.0735-3.2184
		c0.5735-1.7081-0.0513-2.1597,2.3344-1.9613c4.6247,0.3844,11.0356,1.2901,15.628,1.2968l1.1126,6.4307v0.6436
		C139.083,56.0843,130.8609,81.1769,130.0683,82.8284L130.0683,82.8284z M165.0538,53.2162h4.9366v1.7164h-4.9366V53.2162
		L165.0538,53.2162z M210.9855,51.0704c0-3.3687,2.497-9.7711,2.5755-13.3042c3.8463,0,12.6907,3.1448,15.7374,4.4371
		c0.9374,0.3978,2.675,1.1537,3.4939,1.6569c1.9956,1.226,1.567,0.3047,2.2264,2.7099c0.4629,1.6889,2.152,6.1257,2.152,7.7191
		l-8.1212,1.4925l-4.3274-0.2053l-13.7546-1.571L210.9855,51.0704L210.9855,51.0704z M176.6441,53.4308v0.2145
		c0,0.502-0.356,0.8583-0.8586,0.8583c-0.2307,0-0.8586-0.6278-0.8586-1.0728c0-0.2308,0.6279-0.8583,1.0732-0.8583
		C176.2614,52.5725,176.6441,53.0161,176.6441,53.4308L176.6441,53.4308z M143.805,53.6453c0,0.4944-0.1494,0.6438-0.6438,0.6438
		h-0.2149c-0.4144,0-0.8583-0.3826-0.8583-0.6438c0-0.6312,0.4417-1.0728,1.0732-1.0728c0.2611,0,0.6438,0.4436,0.6438,0.8583
		V53.6453L143.805,53.6453z M230.732,56.0056c0.7582,0,4.4456-0.6523,5.1593-0.8502c2.2941-0.6349,2.0435-0.658,5.1432-0.6517
		c3.276,0.0066,8.157-0.1901,11.3737-0.4308c3.4265-0.2566,8.2066-0.2129,11.592-0.2129c3.9864,0,7.4597-0.2147,11.5903-0.2147
		c7.7836,0,15.4933-0.4291,23.1806-0.4291c3.346,0,8.1915,0.0414,11.5917-0.213c3.3525-0.2508,7.7984,0.1863,11.3589-0.2315
		c6.3505-0.745,17.3693,0.4935,23.0667-0.5428c1.8335-0.3336,9.3597-0.3005,11.5044-0.3002c4.0501,0,7.8112-0.2145,11.5903-0.2145
		c7.7975,0,15.175-0.47,23.1815-0.4283c3.4183,0.0176,8.0294-0.7248,11.3916-0.0178c1.5199,0.3198,3.4931,0.6236,4.9422,0.8527
		c1.2484,0.1972,4.1624,0.2276,4.2701,1.5247c-3.9158,0.912-9.0862-0.0022-11.8049,2.3602l-0.6179-0.4601l-27.923,2.874
		l-0.0054,0.3756c-2.6241,0-2.9648,0.5882-4.7994,0.9955c-1.5808,0.3508-3.4081,0.4478-4.907,0.6732
		c-2.7283,0.4107-7.4747,0.9301-10.2552,0.9056c-2.8318-0.0249-7.759,0.5185-10.5316,0.844
		c-3.4342,0.4028-7.2893,0.0592-10.7014,0.4594c-5.9661,0.7-15.1988,1.0486-21.4841,1.0526
		c-1.1512,0.0005-4.381,0.2276-5.4059,0.3886c-1.6084,0.2529-3.8738-0.1321-5.52,0.061c-3.3219,0.3898-7.1172,0.2485-10.5171,0.6437
		c-6.7394,0.7832-14.2339,0.65-20.7482,1.7878c-3.0829,0.5386-7.2448,0.8424-10.1945,1.1806
		c-3.1649,0.3629-6.8295,1.2741-9.6446,1.5162c-7.8112,0.6721-29.8885,6.4823-35.623,9.2333v-24.033l13.9286,1.6926L230.732,56.0056
		L230.732,56.0056z M412.3125,53.2162h0.644l-0.644,0.4291V53.2162L412.3125,53.2162z M315.9417,46.1349l42.0678,0.4667
		l0.0006,4.8979l-42.0684,0.8583V46.1349L315.9417,46.1349z M358.4392,46.1349c2.1328-0.4969,4.7324-2.0239,8.0705-1.4164
		c1.9846,0.3611,6.937,0.5581,9.1004,0.5581h0.8586c1.2299,0,1.535-0.3427,2.5756-0.4291l-0.1502,0.2365l4.4206,2.8026
		l-2.9044,3.2545l-21.9725,0.2815L358.4392,46.1349L358.4392,46.1349z M107.3171,83.9012l-4.2951,0.0936L67.1805,83.043h-1.2878
		c0.4853-1.817,5.133-8.873,6.3686-11.2286c2.0078-3.827,4.4478-7.3613,6.4392-11.1583c0.9947-1.8964,2.0852-3.7683,3.2026-5.5958
		c0.7628-1.2479,2.4996-4.8853,3.1416-5.6568c1.3796-1.6575,4.6089-1.2176,7.4707-1.3292c2.5365-0.0989,5.6506-0.6112,8.151-0.6489
		c5.1571-0.0779,11.2133-1.4754,16.3244-0.8764c1.6492,0.1933,3.3823-0.6512,2.8224,1.1122
		c-0.3691,1.1625-0.7509,2.2607-1.1509,3.379c-0.7622,2.1308-1.4417,4.3378-2.1969,6.6016
		c-1.5012,4.5023-2.8315,8.7092-4.3458,13.2505c-0.7605,2.2802-1.4757,4.4272-2.1997,6.5988
		C109.5647,78.5568,108.3977,83.9012,107.3171,83.9012L107.3171,83.9012z M315.5125,46.129v6.2289l-46.3071,0.847l-1.6103-7.7026
		L315.5125,46.129L315.5125,46.129z M238.244,53.86c-0.9981,0-2.4299-7.3854-3.0048-8.5834c4.8515,0,16.725-0.5923,20.6904,0.129
		c2.696,0.4904,7.4778-0.1516,10.4502,0.067c1.1543,0.0851,1.3068,2.7012,1.4613,3.689c0.2418,1.5474,0.5485,2.8426,0.881,4.2693
		h-3.4341l-26.1839,0.4999L238.244,53.86L238.244,53.86z M160.8157,31.7594l10.6773-0.0014v10.7291l9.7254,6.7722
		c-3.7409-0.7613-7.2414-1.5743-10.6084-2.671c-2.9956-0.9756-7.308-2.6011-10.11-3.2443L160.8157,31.7594L160.8157,31.7594z
		 M139.2041,52.4514c-0.3549-1.5381-0.3801-3.4982-0.7169-4.8625c-0.4113-1.6668-2.1943-7.7293-2.1943-8.9643v-0.8584
		c9.8671,0,16.1847,3.3798,23.4227,5.7663c4.1973,1.3838,18.1848,6.4649,22.509,6.4649c0.711,0.476,3.8633,2.4254,3.8633,3.2188
		v0.2146c0,2.3459-7.1637,1.5018-9.6585,1.5018c0.2891-0.4317,0.8583-0.866,0.8583-1.5018c0-0.8204-0.6352-1.2875-1.5024-1.2875
		c-0.8203,0-1.2878,0.6353-1.2878,1.502c0,0.7042,0.481,0.9593,0.8586,1.2873h-4.722v-2.1455H164.41v2.1455h-21.0342
		c0.4246-0.3691,1.0732-0.712,1.0732-1.5018c0-0.3387-0.7257-1.2875-1.2878-1.2875c-0.7234,0-1.5026,0.379-1.5026,1.0729V53.86
		c0,0.6125,0.4861,0.7491,0.8586,1.0726C138.9104,54.9326,139.898,55.4573,139.2041,52.4514L139.2041,52.4514z M143.3758,37.9809
		c2.2859-4.3195,6.9412-6.2229,13.5218-6.2229h3.2196v4.5062l-0.2597,6.6498c-1.4712-0.1239-6.1602-2.2173-7.8667-2.8171
		C150.2586,39.4878,145.5092,38.0284,143.3758,37.9809L143.3758,37.9809z M37.5611,75.5325
		c0.7526-0.504,3.5079-4.0994,4.3481-5.0947c2.0271-2.4016,2.2606-2.5452,5.0102-4.218c3.2014-1.9477,7.7851-5.5078,10.4403-8.0162
		C62.3778,53.4636,71.9892,45.3234,78.2691,42.2c2.3641-1.1758,3.8225-2.0132,6.6419-2.8012
		c2.3139-0.6469,5.2894-1.1333,7.4061-1.8228c5.0695-1.6517,11.6062-0.2551,17.0949-1.3633
		c2.4616-0.497,1.5908-0.2151,3.2709-1.4508c0.6854-0.5038,1.8995-1.3933,2.5234-1.9834c1.4939-1.4128,3.5028-2.7181,5.1449-4.0833
		c1.2583-1.0466,3.8863-3.4948,5.4723-3.7559c2.4732-0.4073,5.3498-1.1208,8.1085-1.1208l1.6302,13.2888l-15.7915-0.936
		l-9.0193,0.0931v0.4291h5.1511l19.7501,0.7815l-0.0037,0.9352c0,1.8768,1.9434,6.5739,2.1464,9.0125l-21.8889-1.5542
		l-1.0771,0.0521c-3.6726,0-6.8301,0.4036-10.3031,0.6429c-1.4156,0.0974-3.6814,0.4277-5.1506,0.4299
		c-0.7656,0.0012-4.2735,0.1293-5.1055,0.2603c-2.7998,0.4397-7.6113-0.1465-9.3328,1.6129
		c-0.866,0.885-3.2108,5.5184-4.0238,6.9211c-2.6195,4.5198-5.561,9.2163-8.0082,13.881
		c-1.4604,2.7839-7.3199,11.7397-7.8712,13.8035c0.3433,0.1647,29.8097,0.8584,32.8391,0.8584
		c10.8451,0,21.3846-0.8584,32.4099-0.8584l9.4669-28.1024l44.6207-0.008c1.0851,0,2.1464-0.774,2.1464-1.9308v-0.6437
		c0-0.8015-1.9924-1.5648-2.5755-2.3605l22.7608,3.151l0.0096,0.3243l-6.4511,0.4813l-11.3828-0.0941v27.4662
		c2.9622,0,7.3598-1.3104,9.9189-1.8855c2.5883-0.5814,7.2786-2.2297,9.3983-2.4061V54.0745h0.6438
		c0.7401,0,0.8311,0.1585,1.5026,0.2146v24.033c0,1.8885-27.1806,11.2238-31.5513,11.5875v-0.8583
		c0-0.7025-0.8062-1.5021-1.7172-1.5021h-0.8583c-1.0383,0-1.7172,0.6786-1.7172,1.7167v1.7166
		c-12.219,2.8461-29.4503,5.7935-44.2145,5.7935c-0.9538,0-0.7534-1.502-2.5758-1.502h-0.2146
		c-1.1545,0-1.7107,0.7684-1.9315,1.7167l-9.8688,0.5139l-1.5069-0.0847c-4.2029,0-7.7349-0.2225-11.8049-0.2144
		c-2.1634,0.0043-9.4808-0.1978-11.4613-0.5581c-3.2502-0.5912-7.8188-0.2653-11.2465-0.7729
		c-3.0101-0.4457-6.7309-1.4565-9.9334-2.0854c-8.9005-1.7485-32.3929-6.3539-32.3929-15.4667v-0.4292L37.5611,75.5325
		L37.5611,75.5325z M198.3589,34.3392c0.2974,0.2175,0.6072,0.2784,0.6072,0.8521c0,0.652-0.3724,0.7286-0.8951,0.8521
		L198.3589,34.3392L198.3589,34.3392z M191.2391,35.1912c0-0.699,0.6092-0.8274,1.0732-1.0728l-0.4912,1.6962
		C191.4049,35.7075,191.2391,35.7849,191.2391,35.1912L191.2391,35.1912z M192.3123,35.835c0-0.1874,1.9349-4.7503,2.1465-5.15
		l3.4004,1.5715l-0.3189,4.2302l-0.9351-0.0081C195.7371,36.4787,192.3123,36.5068,192.3123,35.835L192.3123,35.835z
		 M171.9221,31.758h21.4634c-0.6492,2.7859-2.7902,1.8105-2.7902,3.4332c0,1.1543,2.2464,1.9313,3.6488,1.9313h0.6437l3.0024-0.2404
		c0.479-0.2931,1.5049-0.7764,1.5049-1.4763v-0.4292c0-0.6582-0.5295-0.9277-1.0732-1.0729
		c0.0153-0.6877-0.0697-1.0729,0.644-1.0729h1.7169c2.8103,0,5.8799,0.9541,7.727,1.9313c0.3872-0.2595,0.3773-0.4292,0.8586-0.4292
		h0.2146c1.0897,0,3.4342,3.3889,3.4342,3.6479c0,3.797-2.5755,10.0199-2.5755,13.7333v1.9312
		c-3.1133,0-7.835-1.2786-10.9698-1.6934c-3.5943-0.4756-7.5852-0.822-11.224-1.4391c-6.4576-1.0956-4.6463-0.4731-9.1865-3.4761
		c-0.9626-0.6367-7.0393-4.6594-7.0393-5.4079V31.758L171.9221,31.758z M172.1367,22.7455c4.6616,0,9.9629,0.0808,14.5967,0.4275
		c0.5993,0.045,3.1074,0.114,3.657,0.2067c0.6699,0.1133,0.6974,1.2511,1.4389,2.2092c0.3512,0.4539,1.9253,4.8031,1.9856,5.5254
		h-21.8928c0.0558-0.6713,0.2146-0.7623,0.2146-1.5021V22.7455L172.1367,22.7455z M195.7295,24.8278
		c0.1514,1.6763,1.3048,2.7235,1.3048,4.3552v0.2146c0,1.0085-0.483,1.1072-1.0732,1.5021l-1.8817-0.9703l-1.5692-4.2429
		L195.7295,24.8278L195.7295,24.8278z M134.5757,23.8184c5.8005-0.129,12.8747-1.0741,18.4533-1.078
		c3.2227-0.0023,6.4465,0.0127,9.6693,0.0105c1.1707-0.0009,8.7948-0.9626,8.7948,0.4238v7.9396H159.044
		c-6.7261,0-14.9046,1.7473-16.0977,6.8666l-6.853-0.9706L134.5757,23.8184L134.5757,23.8184z M156.8976,20.8143h6.6538v1.2875
		h-6.6538V20.8143L156.8976,20.8143z M382.0978,17.3997l6.6076,2.3351l-8.8518,23.8065l-0.1817,0.1888l-4.9856-6.8468
		L382.0978,17.3997L382.0978,17.3997z M163.1219,19.3121v0.8584h-5.7949v-0.8584H163.1219L163.1219,19.3121z M158.1854,17.8103
		h4.0782v1.0726h-4.0782V17.8103L158.1854,17.8103z M158.8295,11.802h2.7901v5.5792h-2.7901V11.802L158.8295,11.802z
		 M156.2539,20.8143v0.8583c-2.2598-0.6032-6.4199-7.0612-6.6538-9.8706h8.5853v5.5792c-0.4782,0.1276-0.6438,0.0498-0.6438,0.6437
		v0.858h-0.644v1.2876C156.4194,20.2983,156.2539,20.2207,156.2539,20.8143L156.2539,20.8143z M162.2636,11.802h8.5853
		c-1.0378,4.4533-3.3576,7.8787-6.6537,10.0851v-1.502l-0.6285-0.2545l-0.0153-1.2476h-0.644v-0.858
		c0-0.5939-0.1655-0.5162-0.6438-0.6437V11.802L162.2636,11.802z M181.5806,11.1583h-20.3902v-0.6437h20.3902V11.1583
		L181.5806,11.1583z M160.761,11.1583h-0.4292v-0.6437h0.4292V11.1583L160.761,11.1583z M159.9026,11.1583h-0.4294v-0.6437h0.4294
		V11.1583L159.9026,11.1583z M159.0432,10.4644l0.0009,0.694h-18.8878v-0.4292l2.7913,0.0527L159.0432,10.4644L159.0432,10.4644z
		 M141.0148,7.725h0.4292v2.1459h-0.4292V7.725L141.0148,7.725z M4.0779,9.2271c5.8581,0,11.0699-0.6539,16.5189-0.8666
		c4.9558-0.1934,11.9106,0.0066,16.9588,0.0029c11.4259-0.0079,23.2631-0.0584,34.3386-0.2174
		c22.9669-0.33,45.6982-0.421,68.6911-0.421v2.1459h-0.8583v0.4291H78.5563L0.644,10.0323V9.2271H4.0779L4.0779,9.2271z
		 M379.688,44.8475c1.6787-0.8053,1.3348,0.1177,2.6325-1.4451c0.6528-0.7863,1.2867-1.3692,1.9148-2.1631
		c1.2413-1.5692,2.3241-2.9956,3.5501-4.6046c2.3794-3.1232,4.4459-6.1291,6.8011-9.2943
		c2.4767-3.329,11.6606-16.4957,14.0771-18.1134h12.4486l-20.7048,41.1492l-19.0006,0.553l2.5985-3.0558L379.688,44.8475
		L379.688,44.8475z M180.2928,7.2958h0.4291v2.1459h-0.4291V7.2958L180.2928,7.2958z M147.8804,7.2443l31.9833,0.0515v2.1459
		l-21.4614,0.5142l-16.3142-0.085l0.0023-2.3168L147.8804,7.2443L147.8804,7.2443z M414.8881,6.6521h1.7172v2.1458h-1.7172V6.6521
		L414.8881,6.6521z M170.8373,6.6566l-9.6469-0.0045V6.0083h9.4439L170.8373,6.6566L170.8373,6.6566z M160.761,6.6521h-0.4292
		V6.0083h0.4292V6.6521L160.761,6.6521z M159.9026,6.6521h-0.4294V6.0083h0.4294V6.6521L159.9026,6.6521z M150.2442,6.0083h8.7999
		v0.6438h-9.6585C149.5706,6.3102,149.7079,6.0083,150.2442,6.0083L150.2442,6.0083z M173.639,6.6521
		c-1.0216,0-1.8173-0.1715-2.3609-0.6438h10.3025v0.6438H173.639L173.639,6.6521z M140.3708,6.0083h8.8002
		c-0.6242,0.4335-1.5276,0.6438-2.5758,0.6438h-6.2243V6.0083L140.3708,6.0083z M150.2442,5.5791
		c1.3246-1.9777,5.485-4.5062,8.7999-4.5062h2.7901c2.4404,0,7.5569,2.8508,8.1562,4.5062H150.2442L150.2442,5.5791z
		 M181.366,7.2958c2.3678-0.197,7.3517-0.1196,9.6129-0.4747c2.6198-0.4116,6.8281-0.0006,9.4039-0.4692
		c1.7757-0.3232,7.6558-0.5686,9.5287-0.559c3.21,0.0165,6.4608-0.3937,9.4366-0.4365c12.7936-0.1839,25.2306-1.1934,38.2213-1.7002
		c5.968-0.233,12.9722-1.0046,18.8716-1.0894c6.5214-0.0938,13.0187-0.1619,19.3269-0.6338
		c5.8737-0.4395,13.1369-0.8601,19.1007-0.8601c6.5081,0,13.1916-0.6437,19.3173-0.6437v0.6437
		c-6.1869,0-12.6114,1.0364-18.896,1.2793c-3.0861,0.1194-6.0268,0.6687-9.4366,0.6512c-2.6937-0.014-6.9131,0.3307-9.4583,0.6292
		c-2.6694,0.3132-6.9877,0.4003-9.6514,0.4363c-1.5434,0.0206-8.0705,0.2512-9.5649,0.5229
		c-2.4511,0.4459-7.0129,0.1376-9.7458,0.3419c-3.0115,0.2253-6.3113,0.1948-9.4439,0.4292
		c-5.8618,0.4385-13.2747,0.8818-19.3156,0.8597c-2.0307-0.0074-7.6343,0.1641-9.6129,0.475
		c-2.9033,0.4561-6.7057,0.1077-9.5352,0.5524c-2.8046,0.4409-6.9049-0.0036-9.6585,0.4292
		c-1.8134,0.2849-7.7924,0.4751-9.618,0.4697c-6.0126-0.0176-12.6695,1.078-18.8827,1.078V7.2958L181.366,7.2958z M0,8.7979v1.7167
		l135.2197,0.4291h4.5074c0.0502,0.6058-0.0051,0.8583,0.6438,0.8583h8.8002c0.0383,1.7286,1.7484,4.875,2.5319,6.0518
		c1.3263,1.9925,3.3012,3.238,4.1216,4.4625c-6.5566,0-13.9635,0.4171-20.3893,0.8593c-3.4288,0.2361-6.4457,0.5184-9.5372,1.1942
		c-2.0013,0.4377-4.9518,3.0869-6.3989,4.3319c-1.8465,1.5885-4.0408,3.2791-5.993,4.7375
		c-2.7272,2.0375-3.3531,2.6201-8.1204,2.6104c-3.3908-0.0067-7.4319-0.1916-10.3935,0.3384
		c-1.7291,0.3093-3.2051,1.0007-4.2168,1.1487c-1.2124,0.1774-3.5524,0.5264-4.4966,0.8688
		c-6.9134,2.5084-8.7027,3.3707-14.3348,7.1271c-4.3404,2.8954-7.8174,6.5302-11.8063,9.6548
		c-4.1077,3.2177-7.4185,6.5231-11.9307,9.5302c-2.3723,1.5811-4.3656,2.4049-6.0528,4.6777
		c-0.8371,1.1279-4.1128,5.0992-4.9918,5.7119l-0.2452,2.3568v1.2874c0,9.7479,27.7625,14.6202,37.5443,16.5396
		c7.1252,1.3981,16.2561,2.3746,24.6994,2.3437c4.3058-0.0156,8.7075,0.2333,13.3084,0.2135
		c3.9067-0.0167,8.8917-0.2137,13.0921-0.2137v7.2958H99.5905c-0.8425,0-6.4466-3.5016-6.8683-4.0771
		c1.0179-0.237,3.74-1.4493,3.8633-2.575H81.1318c-0.8206,0-0.0783-0.0657-0.6441,0.2145c0.5406,0.8074,6.7697,4.7266,8.1133,5.6223
		c1.419,0.9456,2.7397,1.8258,4.121,2.7465c0.6562,0.4374,1.3326,0.9556,2.0721,1.3615c0.6956,0.3818,2.0922,0.7814,2.4352,0.9989
		h85.2097l1.9315-4.2916h-5.5803V90.5533c7.0064-1.6322,14.9051-4.1871,21.2187-6.6821c6.9758-2.7567,12.2287-5.5071,20.0721-7.8285
		c7.0603-2.0894,14.637-4.2051,22.4025-5.4986c3.8603-0.6429,7.8262-1.3161,11.9421-2.0087
		c4.1082-0.691,8.3988-0.9314,12.4101-1.5406c4.0629-0.6168,8.7834-0.645,12.8481-1.103c3.5799-0.4036,9.5502-0.8929,13.0765-0.8748
		c8.8344,0.046,17.9977-1.3036,26.6153-1.2867c3.7744,0.0076,9.7549-0.21,13.3226-0.6284
		c4.1086-0.4822,9.3081-0.0354,13.2064-0.7446c3.9523-0.7189,8.7854-0.4189,12.8355-1.1155
		c2.0551-0.3531,4.2636-0.3945,6.1861-0.6822c2.5013-0.3743,3.3672-1.1209,5.9618-1.1209h0.8586
		c3.894,0,7.6864,5.0293,9.0878,7.8665c1.2739,2.5792,4.2585,9.4782,5.6801,11.2731c1.4655,1.8505,7.9464,5.1968,10.4865,6.4681
		c2.0685,1.0352,3.6564,1.6109,6.2436,2.1262c1.4171,0.2824,2.1489,0.6653,3.3644-0.1757c0.6608-0.4569,1.84-1.5267,1.84-2.4519
		c0-0.3512-0.1287-0.6438-0.4294-0.6438c-1.753,0-1.3584,1.5021-4.0779,1.5021h-1.2878c-1.8564,0-7.0401-3.481-7.727-4.5063
		c0.773-1.0545,4.9861-1.6928,6.7266-2.5798l-1.3607-22.0972c2.6334-1.3929,7.3993-1.931,11.3755-1.931
		c0,4.3469-1.442,9.5539-2.8622,12.5881c-0.9193,1.9644-1.567,3.3081-2.6722,5.0533c-0.6077,0.9595-3.126,3.759-2.8363,4.4603
		c1.9482-1.3042,4.881-7.0297,6.082-9.5842c1.3042-2.7745,2.9327-8.8115,2.9489-12.6624l2.1302-0.499l0.0045-0.4492l-2.1509-0.409
		c0-3.5405-1.4052-14.05-3.4341-14.5917c0.4558,1.9565,1.2767,3.458,1.8431,5.8822c0.5309,2.2728,0.9471,4.2698,0.9471,6.9928
		v1.2875c-1.3867-0.0309-3.7605-0.8062-5.1996-1.0244c-0.9388-0.1426-5.3172-0.4731-5.3172-1.1214
		c0-0.0513,19.5783-39.8044,20.6047-40.985V8.7979h-4.722v-2.575h-2.5755v2.575h-5.7951c-2.8854,0-24.6146,34.882-28.3317,35.1913
		l9.1366-24.4163l-2.5259-1.0123c3.1405,0.1511,6.8995,3.4515,8.8429,3.9703c-0.1678-1.5336-6.6061-3.9549-8.3434-4.5334
		c-3.1057-1.0344-6.5611-1.9037-10.7589-1.9037h-2.1464c-17.4036,0-30.9949,13.9631-34.3415,28.3245h0.6437
		c0.6182-7.4276,8.625-17.5121,13.6945-20.8564c3.5929-2.3703,6.9981-4.5218,11.6787-5.7055
		c2.3644-0.5979,4.5601-1.1174,7.4709-1.1138c2.592,0.0031,5.385,0.2095,7.9365,0.2095l-7.5081,19.9576l5.2999,7.3976
		l-3.3676,0.3755l-1.2926-0.0499l-7.507-0.4993l-3.4393,0.0701c-1.5242,0-3.2201,0.5125-4.3633,1.0023
		c-2.0775,0.8901-1.5783,0.7144-4.4368,0.7144c-3.505,0-7.0124-0.0128-10.5171,0.0003c-6.4321,0.0235-13.7834-0.2172-20.6047-0.2149
		c-13.553,0.0043-27.7166-0.4292-41.4244-0.4292c-13.5374,0-27.6245-0.6437-41.2098-0.6437c-5.7319,0-4.9362,0.4289-8.9424-1.5743
		c-2.6212-1.311-4.6568-1.9401-7.4367-3.0798c-1.9386-0.7949-5.9386-1.9211-8.1689-2.3474
		c-1.1429-0.2186-3.5711-0.4484-4.1692-0.9819c-0.7223-0.644-1.2867-2.7456-2.4049-2.7456h-0.6438
		c-0.6536,0-0.7852,0.0975-1.2878,0.2146c-1.3331-0.7053-4.2078-1.7167-6.2246-1.7167h-3.4339l0.1077-0.1965l-1.7725-0.9717
		c0.2143-0.904,0.8062-0.6041,0.8062-1.836c0-1.8672-1.5023-3.1445-1.5023-5.15l-3.89,0.9757l-0.2435,0.184l-0.7685-2.3894
		l-26.0013-1.225c0.7943-1.0976,2.5265-2.2357,3.7735-4.2829c0.9641-1.5823,1.9902-3.7483,2.4469-5.7079h9.873
		c1.0205,0,0.6891-1.39,0.4292-1.9312c2.893,0,6.7278-0.6248,9.6514-0.6511c2.8451-0.0258,6.7904-0.3076,9.4663-0.6215
		c2.4628-0.2886,7.4248-0.4625,9.8558-0.4464c3.126,0.0207,6.4352-0.3729,9.669-0.4187c6.1676-0.0881,12.8735-0.8566,19.5287-0.8615
		c1.8414-0.0012,7.9798-0.2432,9.739-0.5633c2.6805-0.4875,6.8635,0.0793,9.6585-0.4292c2.7054-0.4921,7.0942,0.0242,9.987-0.3154
		c2.7995-0.3282,6.8278-0.0485,9.5448-0.5428c1.9389-0.3526,7.6723-0.5229,9.7878-0.5145c2.9846,0.0117,6.3643-0.2925,9.6664-0.4211
		c5.972-0.233,13.2752-1.3224,19.0942-1.296c3.0552,0.0139,6.2867-0.5301,9.4498-0.6375c1.4463-0.0493,3.1351-0.4385,4.7191-0.4323
		c2.1489,0.0088,3.2165,0.2253,3.2165-1.7195h-4.2925c-0.3251,0.2061-66.9619,2.3451-74.2787,3.2034
		c-2.8911,0.3394-6.7521-0.1946-9.5576,0.3156c-1.694,0.3081-7.3366,0.5686-9.0981,0.5604
		c-3.2995-0.0156-6.1147,0.4331-9.2316,0.4269c-2.2578-0.0046-7.3491-0.0142-9.3149,0.3434
		c-1.6402,0.2983-7.4265,0.5244-9.1429,0.5156c-3.2547-0.0169-6.1935,0.4505-9.2302,0.4284
		c-3.4197-0.025-15.8468,0.2499-18.4584,0.8583v-1.073h-11.5903c-0.6744-2.5242-6.8091-5.1499-10.7317-5.1499
		c-6.0508,0-10.256,5.1499-10.7317,5.1499h-9.4439v1.5021c-23.2452,0-47.0951,0.6437-70.1855,0.6437
		c-11.9758,0-23.3555,0.2146-35.2001,0.2146c-5.7319,0-12.0061-0.1862-17.3837,0.2163C11.5577,8.5598,5.6237,8.7979,0,8.7979
		L0,8.7979z M182.0097,66.0909h3.8636v4.9354h-3.8636V66.0909L182.0097,66.0909z M181.5806,71.4555h4.9365v-5.7938h-4.9365V71.4555
		L181.5806,71.4555z M178.7905,61.5846c0-0.918,0.6616-1.7166,1.5024-1.7166c0.9184,0,1.7169,0.6616,1.7169,1.5021
		c0,0.9184-0.6616,1.7166-1.5023,1.7166C179.589,63.0867,178.7905,62.4254,178.7905,61.5846L178.7905,61.5846z M178.361,61.5846
		c0,1.0607,0.8711,1.9313,1.9319,1.9313h0.2146c1.061,0,1.9318-0.8706,1.9318-1.9313v-0.2145c0-1.0605-0.8708-1.9313-1.9318-1.9313
		h-0.2146c-1.0607,0-1.9319,0.8708-1.9319,1.9313V61.5846L178.361,61.5846z M127.9222,67.8076h-7.2978
		c-1.7493,0-2.2453-1.4401-2.6909-2.537l5.6959-15.4877h5.3657c2.9531,0,6.01,0.8668,6.01,3.6479v1.0728
		c0,0.4204-1.5157,7.4263-1.7558,8.33C132.539,65.5089,131.4045,67.8076,127.9222,67.8076L127.9222,67.8076z M117.4051,65.0179
		v0.4292c0,3.5408,6.0845,3.0042,9.6585,3.0042c4.3934,0,5.1483-1.6127,6.4397-4.72c0.3152-0.7584,1.931-8.2542,1.931-9.2277
		v-1.0728c0-2.88-3.1632-4.2917-6.0098-4.2917h-5.5806c-1.1166,0-2.774,6.8434-3.2196,7.9393
		C120.2046,58.1116,117.4051,64.4922,117.4051,65.0179L117.4051,65.0179z M80.2732,69.3096h-2.1464
		c-0.5023,0-0.8583-0.356-0.8583-0.8583v-0.2146c0-2.0174,10.1506-15.4749,10.95-18.4283l1.9281-0.2401h22.9657
		c4.4637,0,1.4451,7.4338,0.4297,9.6564c-1.1597,2.5387-3.1396,7.7783-5.7549,8.6235
		C103.8382,69.1248,86.3436,69.3096,80.2732,69.3096L80.2732,69.3096z M87.7864,49.3634
		C87.1631,52.0243,76.839,66.2996,76.839,67.593v1.2875c0,1.7807,4.6749,1.0317,6.0251,0.8736
		c1.8658-0.2191,5.2557-0.017,7.2825-0.0153c4.4447,0.004,9.502-0.5344,13.7401-0.8547c6.2538-0.473,6.2357-1.5394,8.5093-6.0842
		c1.1563-2.3109,3.7213-7.9506,3.7213-11.0857c0-1.5911-1.8122-2.7896-3.4342-2.7896l-20.1852-0.085L87.7864,49.3634
		L87.7864,49.3634z M51.5123,65.2326c0.5114-0.6979,5.6222-4.0856,6.9205-5.3122c2.0361-1.9235,4.6976-3.6229,6.6566-5.576
		C66.5629,52.8755,77.6313,43.9892,79.2,43.9892c0.5131,0,2.7904,3.3145,2.7904,4.7208v0.4292c0,0.7875-1.9854,2.9888-2.5758,3.8625
		c-0.8597,1.2728-1.6895,2.7413-2.5053,4.1471c-1.5454,2.6631-3.3548,5.5522-5.2773,7.8134
		c-3.7035,4.3563-2.6082,3.4271-8.6094,2.0667C60.1245,66.3721,54.3725,65.4707,51.5123,65.2326L51.5123,65.2326z M68.0392,68.8805
		c1.9633,0,6.8315-7.5699,8.0286-9.3546c1.1778-1.7559,2.105-3.5331,3.2196-5.3643c0.5706-0.938,0.9456-1.8275,1.7603-2.5317
		c0.6644-0.5746,1.5865-1.6055,1.5865-2.7054c0-1.6285-2.6566-5.5791-3.4342-5.5791c-1.7765,0-12.6998,9.1762-14.635,10.6888
		c-2.5937,2.027-11.5288,10.2903-14.1259,10.9836c0.3915,1.4659,7.0169,1.6322,8.7466,1.9849
		C60.1832,67.2064,68.0097,68.8805,68.0392,68.8805L68.0392,68.8805z M207.1222,51.0704c0-0.5023,0.356-0.8583,0.8586-0.8583
		c0.5023,0,0.8584,0.356,0.8584,0.8583c0,0.5023-0.356,0.8583-0.8584,0.8583C207.4782,51.9287,207.1222,51.5727,207.1222,51.0704
		L207.1222,51.0704z M206.6927,51.0704v0.2145c0,0.5004,0.5729,1.0729,1.0732,1.0729h0.2148c0.9182,0,1.2878-0.3696,1.2878-1.2875
		v-0.4292c0-0.5023-0.3563-0.8583-0.8586-0.8583h-0.4292C207.0627,49.7829,206.6927,50.1523,206.6927,51.0704L206.6927,51.0704z
		 M83.922,43.3455c0-2.6002,6.8613-4.0771,9.8734-4.0771h1.2878c1.7294,0,4.9365,1.7535,4.9365,3.4333v0.4292
		c0,2.7471-6.2337,3.6479-9.2293,3.6479c-2.9812,0-6.8684-0.4427-6.8684-3.2188V43.3455L83.922,43.3455z M83.2782,43.56
		c0,1.4848,2.6827,3.6479,3.6488,3.6479h4.7219c3.4041,0,9.0145-1.1061,9.0145-4.2917v-0.4291c0-1.6053-4.0082-3.8625-6.0098-3.8625
		h-0.6438C90.5613,38.6246,83.2782,40.3441,83.2782,43.56L83.2782,43.56z M202.4002,46.3496h-0.8586
		c-0.5006,0-1.0732-0.5726-1.0732-1.073v-0.4291c0-0.8668,0.4675-1.502,1.2878-1.502c0.9187,0,1.7172,0.6613,1.7172,1.502
		C203.4734,45.5706,203.0941,46.3496,202.4002,46.3496L202.4002,46.3496z M199.8246,44.8475c0,1.2053,0.9406,2.1458,2.1461,2.1458
		c1.061,0,1.9318-0.8707,1.9318-1.9312v-0.6438c0-0.5978-0.9045-1.502-1.5023-1.502h-0.644
		C200.6954,42.9163,199.8246,43.7867,199.8246,44.8475L199.8246,44.8475z M175.3563,36.0496h6.0097
		c0.4947,0,0.6437-0.1494,0.6437-0.6437v-2.3604h-6.6534V36.0496L175.3563,36.0496z"/>
</g>
</svg>
