<?xml version="1.0" encoding="utf-8"?>
<!-- Generator: Adobe Illustrator 21.1.0, SVG Export Plug-In . SVG Version: 6.00 Build 0)  -->
<svg version="1.1" id="August" xmlns="http://www.w3.org/2000/svg" xmlns:xlink="http://www.w3.org/1999/xlink" x="0px" y="0px"
	 viewBox="0 0 287.5333 150.8221" enable-background="new 0 0 287.5333 150.8221" xml:space="preserve">
<polygon fill="#FFFFFF" stroke="#000000" points="158.7003,131.5 151.2003,132 149.2003,130.833 147.8663,129.167 145.2003,129.167 
	141.5333,130.333 139.3663,129.667 147.7003,127 157.2003,125.667 "/>
<path fill="#FFFFFF" stroke="#000000" stroke-width="2" d="M181.3663,88.3335c5.5,0.833,17.3604,1.6338,16.834,2.1665
	c-0.5361,0.542-12.8867,3.0933-14.167,3.3335c-11.8662,2.2251-32.7471,6.9658-50.8271,11.1909
	c-3.462,0.8086-6.9375,1.2163-9.9957,2.3486c-4.8437,1.7935-18.5927,7.6426-22.6772,8.627c-2.0806,0.502-1.375-2.875-1.375-2.875
	S121.3668,96,132.3663,94c8-3.8335,22.334-9,22.334-9s15.334-5.5005,22.5,0.6665
	C177.4327,85.8662,179.5753,87.3691,181.3663,88.3335z"/>
<path fill="#FFFFFF" stroke="#000000" stroke-width="2" d="M197.5333,90.3335c0,0,11.833-2.8335,19.5,1.4165
	c7.667,4.25,17.167,10.0835,17.167,10.0835s19.834,2.9995,21,7.6665s-4.667,9.001-15.167,13.667s-26,9.166-47,13.666s-48,10-48,10
	l-6-14.166l-1-4.5l-4-23.3335L197.5333,90.3335z"/>
<g>
	<path fill="#FFFFFF" d="M104.4796,110.0352l3.4702-4.8584l4.1216,0.1655l0.1558-0.1621c0.3857-0.4009,0.9829-0.8472,1.2231-0.8472
		c0.8579,0,1.583,1.2212,1.583,2.667c0,1.4453-0.7251,2.6665-1.583,2.6665h-0.1416l-1.0747,0.6616L104.4796,110.0352z"/>
	<path d="M113.4873,104.8349c0.4395,0.045,1.046,0.8788,1.046,2.1651c0,1.3225-0.6414,2.1665-1.083,2.1665h-0.2831l-0.2411,0.1484
		l-0.825,0.5078l-6.6752-0.252l2.7737-3.8834l3.6272,0.1454l0.4499,0.018l0.3117-0.3249
		C112.8718,105.2304,113.3021,104.9013,113.4873,104.8349 M113.4503,103.833c-0.6235,0-1.5835,1.0005-1.5835,1.0005l-4.167-0.167
		l-4.1665,5.8335l8.8335,0.3335l1.0835-0.667c1.1504,0,2.083-1.418,2.083-3.1665
		C115.5333,105.251,114.6007,103.833,113.4503,103.833L113.4503,103.833z"/>
</g>
<path fill="#FFFFFF" stroke="#000000" d="M161.7003,149.333l2-1.666l0.333-1.667c0,0,2.167,0.166,2.667-2.667
	c0.5-2.833-3-0.333-3-0.333l-17.5,3.833l-9.5-1.333l1,1.667l8.333,3l1.667-0.334l0.5-1.5l5.833-0.5l2.667,0.667L161.7003,149.333z"
	/>
<path fill="#FFFFFF" stroke="#000000" stroke-width="2" d="M99.1583,113.125l0.5,3.125l2.125,16.375l2.875,5.75
	c0,0-66.375,5.5-85.875,2.375c-1.5269-0.2451-0.875-1.875-0.875-1.875l3-2c0,0,2.25-1.5-0.75-4.125s-15.375-14.375-15.375-14.375
	l-3.5-1.375c0,0,2.5771-6.8433,10.375-7.75c5.375-0.625,6.5,3.125,6.5,3.125l22.5,13c0,0,2.625,2.625,10.375-0.25L99.1583,113.125z"
	/>
<path d="M160.0333,103.75l3.25-0.75c0,0,2.75-0.625,3.375,2.25s1.125,6,1.125,6s0.5,2.75-1.75,3.25s-4,0.75-4,0.75
	s-2.5,0.75-3.125-2.375s-1-6.125-1-6.125S157.4083,104.375,160.0333,103.75z"/>
<path d="M193.1583,96.75l3.25-0.75c0,0,2.75-0.625,3.375,2.25s1.125,6,1.125,6s0.5,2.75-1.75,3.25s-4,0.75-4,0.75
	s-2.5,0.75-3.125-2.375s-1-6.125-1-6.125S190.5333,97.375,193.1583,96.75z"/>
<path d="M175.1583,100.625l6-1.5c0,0,2.75-0.625,3.375,2.25s1.125,6,1.125,6s0.5,2.75-1.75,3.25s-6.75,1.5-6.75,1.5
	s-2.5,0.75-3.125-2.375s-1-6.125-1-6.125S172.5333,101.25,175.1583,100.625z"/>
<path d="M204.6583,96.25c0,0-0.625-2.125,2-2.5s3.125-0.375,3.125-0.375s1.25-0.125,2.25,1.375s5.375,7.375,5.375,7.375
	s1.75,2.375-0.5,2.75s-7.625,0.625-7.625,0.625s-2.625-0.125-3.375-3.125S204.6583,96.25,204.6583,96.25z"/>
<path d="M217.0333,91.75l15.625,9.125l-7.375,2.625c0,0-2.125,0.625-3.625-1.125s-6.75-8.75-6.75-8.75s-1.125-1.875,0.625-1.875
	s1.75,0,1.75,0H217.0333z"/>
<path d="M203.1583,89.9165c0,0,1.583-1.458,10.625,0.4585c0.4014,0.085-7.875,1.125-7.875,1.125S203.6163,92,203.1583,89.9165z"/>
<path d="M239.1163,117.334l-6.333,1.75c0,0-4.6016-7.4668-5.6016-8.5503c-1-1.0835-1.2519-3.8223,1.9151-3.2393
	c3.167,0.583,6.6621,0.1026,10.9697,3.7593c1.7266,1.4658,0.9463,3.334,0.8838,3.4463
	C240.8224,114.7305,239.1163,117.334,239.1163,117.334z"/>
<path d="M241.5333,122.5l-1.9375-0.6875l-6.0625,2L233.1583,126C233.1583,126,238.4708,124.0625,241.5333,122.5z"/>
<path fill="#FFFFFF" stroke="#000000" d="M43.7833,140.5l-13.5,0.375l8.75,9.25c0,0,5.125,1.125,9.375-2L43.7833,140.5z"/>
<ellipse cx="10.4708" cy="108.9375" rx="4.3125" ry="4.0625"/>
<polygon fill="#FFFFFF" stroke="#000000" stroke-width="2" points="101.7833,132.625 139.7003,133.333 145.2003,147.167 
	104.6998,138.833 "/>
<path fill="#FFFFFF" stroke="#000000" d="M162.8663,127.333l-5.166-3.833l-19.667,4.667l-9.667,5.333l11.667,0.333l-1.5-4
	l18.333-3.833l1.334,4.667C158.2003,130.667,163.6993,130.999,162.8663,127.333z"/>
<polygon fill="#FFFFFF" stroke="#000000" points="134.2003,104 99.6583,116.25 101.7833,132.625 129.5333,133.167 138.3663,127.667 
	"/>
<path d="M104.4361,106.4849c-1.8965,1.7304-1.1674,3.7246-0.6284,4.3159c0.5396,0.5913,0.6856-0.4439,2.5816-2.1734
	c1.8964-1.7299,2.997-3.6113,2.457-4.2026C108.3077,103.833,106.3321,104.7549,104.4361,106.4849z"/>
<path d="M191.5333,135.167c0,0,4.499,0.333,0.833,3.333c-2.333,1.167-13.833,2.833-13.833,2.833s-4.001-0.832-1.167-3.166
	C178.2003,137.5,191.5333,135.167,191.5333,135.167z"/>
<line fill="none" stroke="#000000" x1="161.7003" y1="130.333" x2="232.7003" y2="114.333"/>
<line fill="none" stroke="#000000" x1="154.2003" y1="102.5" x2="157.8663" y2="122"/>
<line fill="none" stroke="#000000" x1="157.8663" y1="122" x2="163.7003" y2="125.167"/>
<line fill="none" stroke="#000000" x1="163.7003" y1="125.167" x2="191.2003" y2="119.167"/>
<line fill="none" stroke="#000000" x1="191.2003" y1="119.167" x2="186.3663" y2="96"/>
<line fill="none" stroke="#000000" x1="186.3663" y1="96" x2="154.2003" y2="102.6665"/>
<path d="M175.0333,76.3335c-0.3457-0.0078-0.6787,0.019-1.0088,0.061c-0.2383-0.3315-0.6211-0.5639-1.1572-0.561
	c-0.5899,0.0029-1.1787,0.0288-1.7676,0.0474c-0.9326-1.8531-4.3281-3.0918-8.2998-2.8746c-2.3711,0.1294-4.4766,0.754-5.9482,1.648
	c-0.5039,0.124-1.001,0.2681-1.4854,0.4385c-1.3057,0.459-2.8545,1.4116-3.4639,2.7426c-1.0498,0.1568-1.8994,1.5455-0.9296,2.5586
	c0.1699,0.1783,0.3486,0.3277,0.5302,0.4639c0.1162,1.5381,0.5362,3.0806,0.5303,4.6421c-0.0029,0.645,0.9971,0.6445,1,0
	c0.0059-1.3921-0.2666-2.7271-0.4697-4.0908c0.6972,0.2226,1.4551,0.23,2.2676,0.04c0.4638-0.1084,0.9091-0.3149,1.3535-0.5307
	c0.0127,0.101,0.0341,0.2055,0.0693,0.3139c0.9336,2.857,4.1895,2.5923,6.3701,1.3965c0.5078-0.2788,0.7237-0.7065,0.7373-1.1435
	c0.9629-0.0586,1.8789-0.2022,2.7285-0.4083c-0.04,0.7789,0.4375,1.5894,1.4434,1.5894c0.2754,0,0.5107-0.0615,0.707-0.1655
	c-0.0674,0.2802,0.083,0.6382,0.46,0.6655c2.4404,0.1777,5.4971-0.687,5.0019-3.6533c0.4297-0.1113,0.8682-0.1904,1.3311-0.1797
	C176.9688,79.3784,176.9649,76.3784,175.0333,76.3335z M154.8321,78.2871c-0.6025,0.2871-1.2353,0.5108-1.7383-0.0142
	c-0.04-0.0424-0.0839-0.0712-0.125-0.1074c0.4708-0.7807,1.2149-1.3696,2.0918-1.813c-0.248,0.4331-0.375,0.8877-0.3496,1.3521
	C154.7218,77.9043,154.7687,78.0972,154.8321,78.2871z M168.7003,82.1665c-0.0293-0.0019-0.0498,0.0078-0.0762,0.0098
	c0.3008-0.3643,0.4102-0.8741,0.3164-1.3438c0.0479,0.0015,0.0948-0.001,0.1416-0.001c0,0.5435,0.2578,1.084,0.7647,1.3423
	C169.4444,82.1978,169.0499,82.1919,168.7003,82.1665z M171.7003,81.7485c0.1514-0.2212,0.2402-0.4839,0.2646-0.7553
	c0.0235,0.0009,0.044,0.0068,0.0684,0.0068c0.2158,0,0.4043-0.041,0.5713-0.1074C172.422,81.2734,172.1007,81.5513,171.7003,81.7485
	z"/>
<line fill="none" stroke="#000000" x1="172.2833" y1="76" x2="278.2833" y2="47.75"/>
<path fill="none" stroke="#000000" d="M39.5333,62l113.5,15L39.5333,62z"/>
<path fill="none" stroke="#000000" d="M151.0333,79.5l-117.25-7.75L151.0333,79.5z"/>
<line fill="none" stroke="#000000" x1="152.0333" y1="82" x2="78.2833" y2="101.75"/>
<path fill="#FFFFFF" stroke="#000000" d="M28.9083,140.625l-6.125-11.75l-1.125-6.375l4.25-1.125l6,3.875l9,11.25
	C40.9083,136.5,35.5333,141.5,28.9083,140.625z"/>
<path fill="none" stroke="#000000" d="M153.0333,77"/>
<polygon points="37.0333,61.5 30.0333,71.5 151.0333,79.5 155.0606,76.3525 "/>
<polygon points="281.0333,47 170.0333,77 170.5333,80 287.5333,57 "/>
<polygon points="153.5333,83.5 85.0333,110 78.2833,101.75 152.5636,81.4092 "/>
<polygon points="160.0333,72.5 160.5333,0 184.5333,1 165.5333,74 "/>
<polygon points="170.5333,80 264.5333,101 255.0333,106.5 165.0333,82 "/>
</svg>
