<?xml version="1.0" encoding="utf-8"?>
<!-- Generator: Adobe Illustrator 21.1.0, SVG Export Plug-In . SVG Version: 6.00 Build 0)  -->
<svg version="1.1" id="Bell" xmlns="http://www.w3.org/2000/svg" xmlns:xlink="http://www.w3.org/1999/xlink" x="0px" y="0px"
	 viewBox="0 0 142.3302 53.6738" enable-background="new 0 0 142.3302 53.6738" xml:space="preserve">
<g>
	<path fill="none" stroke="#231F20" stroke-width="0.3854" d="M51.2547,34.3833l-36.6436-2.502L9.5266,31.478
		c0,0-0.4033-3.9551,1.3721-4.1172c1.7754-0.1606,16.707-1.291,16.707-1.291l20.5821-1.6138c0,0,3.228-0.9687,4.6001-1.3725
		c1.3725-0.4034,7.1836-4.2774,9.605-5.1656c2.4209-0.8882,2.7441-1.0493,2.7441-1.0493l0.1616-1.2104l3.874,0.3222
		c0,0,5.8921-0.6455,9.4439-0.8071c3.5517-0.1611,9.9267-0.6455,12.3486-0.4839c2.4199,0.1611,10.7344,0.8877,13.5596,1.7759
		c2.8242,0.8872,6.5371,2.3408,7.5869,3.0674c1.0488,0.7256,2.4219,1.4521,2.4219,1.4521l1.6142-0.0805l0.3223,1.2104l1.21,1.0498
		c0,0,5.3281,1.2105,8.0722,3.228c2.7432,2.0176,5.084,4.8423,5.084,4.8423s4.7637,1.6148,7.0225,2.4219
		c2.2607,0.8076,4.1972,1.8564,4.2773,2.583c0.0821,0.7261-3.0664,2.6636-5.4883,3.793c-2.4199,1.1303-9.2002,3.229-12.7519,3.7939
		c-3.5508,0.565-26.2315,2.3408-28.4912,2.3408c-2.2598,0-8.5557-0.3227-11.7842-0.646c-3.2295-0.3232-7.3452-0.8877-10.5732-2.0986
		c-3.2286-1.2104-6.7803-3.3086-9.605-4.7617c-2.8247-1.4531-5.085-2.9058-7.4253-3.5518
		C53.6761,34.4643,51.2547,34.3833,51.2547,34.3833z"/>
	<polygon fill="#FFFFFF" stroke="#231F20" stroke-width="0.3854" points="9.9305,41.3242 6.0559,41.3242 2.0198,43.0195 
		0.6477,42.8584 0.8899,42.2929 1.8592,42.6162 6.1365,40.6792 9.2034,30.6709 4.764,17.999 3.1502,17.1919 0.2444,7.3447 
		1.0515,7.1826 1.2127,5.811 1.9388,5.7304 2.262,6.9409 4.4412,7.103 15.6604,29.8632 	"/>
	<polygon fill="#FFFFFF" stroke="#231F20" stroke-width="0.3854" points="14.6106,37.208 17.4363,29.2983 15.2571,24.5361 
		20.4226,24.2138 23.489,29.3794 18.889,37.289 	"/>
	<polygon fill="none" stroke="#231F20" stroke-width="0.3854" points="27.8474,37.9345 29.7849,33.0117 34.7083,33.4956 
		32.0452,37.7729 	"/>
	<path fill="none" stroke="#231F20" stroke-width="0.3854" d="M117.68,23.1645c0,0-1.7764-0.2422-4.6817-0.3227
		c-2.9052-0.0811-16.3838,0.726-16.3838,0.726s-24.2939,2.2598-28.0068,2.502c-3.7129,0.2427-11.5425,0.4038-11.7842,0.4038
		c-0.2422,0-4.0356,0.3232-4.6001,0.2422c-0.5654-0.0811-1.0498-0.1616-1.0498-0.1616l-28.0879,1.8559"/>
	<path fill="none" stroke="#231F20" stroke-width="0.3854" d="M67.0745,24.9404c0,0-2.7451,0.0806-3.3096,0.1606
		c-0.5649,0.0811-2.018-0.2417-2.018-0.726c0-0.4839,1.9375-1.5332,2.5825-1.5332c0.646,0,1.4531-0.3233,1.4531-0.3233
		l2.9053-0.0801l0.081,2.3399L67.0745,24.9404z"/>
	<path fill="none" stroke="#231F20" stroke-width="0.3854" d="M80.6341,32.2041c0.081,0.8076,1.5341,6.8603,1.6943,7.5063
		c0.1611,0.6455-0.4844,2.0986-1.9375,2.1787c-1.4521,0.0811-2.7441,0.2427-3.4697,0.2427c-0.7266,0-2.0186-0.3228-2.2603-1.4526
		c-0.2422-1.1304-1.3716-7.5069-1.3716-7.5069s0.1607-2.0981,1.5332-2.2597c1.3721-0.1617,2.7442-0.1617,3.794-0.2417
		C79.6653,30.5898,80.6341,32.2041,80.6341,32.2041z"/>
	<path fill="none" stroke="#231F20" stroke-width="0.3854" d="M88.7054,41.8891c0,0-0.8877,0.2427-1.2911,0.0811
		c-0.4052-0.1612-0.6474-0.7266-0.8886-1.4527c-0.2422-0.727-2.2598-11.2192-2.502-12.3491
		c-0.2412-1.1299,0.8067-1.937,2.1787-2.0986c1.3721-0.1616,17.2735-1.1294,18.8867-1.2105
		c1.6143-0.081,1.4532,0.4844,1.5333,1.2105c0.081,0.727,2.5029,11.542,2.664,12.4297c0.1611,0.8877,0,1.8564-1.6953,2.0986
		C105.8968,40.8398,88.7054,41.8891,88.7054,41.8891z"/>
	<path fill="none" stroke="#231F20" stroke-width="0.3854" d="M112.1116,38.6611l-2.584-12.5913c0,0,0.4053-1.5337,1.4541-1.5337
		c1.0489,0,2.9854,0,3.874,0.2422c0.8877,0.2427,2.5821,1.2915,3.3887,1.9375c0.8076,0.645,4.8438,6.376,5.167,7.102
		c0.3233,0.7266,0.5645,1.4532,0.2422,2.0991c-0.3232,0.6456-1.8564,3.0665-1.8564,3.0665s-0.4034,0.8071-1.6143,0.8881
		c-1.2109,0.0811-5.4082,0.3233-6.457,0.3233C112.677,40.1948,112.1116,38.6611,112.1116,38.6611z"/>
	<path fill="none" stroke="#231F20" stroke-width="0.3854" d="M61.6668,22.9223c-1.2114,0.0806-1.9375-0.3232-2.4219-0.5649
		c-0.4839-0.2427-0.4028-1.1304,0.0811-1.7754c0.4843-0.646,2.1787-1.7769,3.0669-2.0186c0.8872-0.2422,1.2104-0.2422,1.6948-0.1611
		c0.4844,0.0811,0.9687,0.7266,0.8877,1.5337c-0.0806,0.8066-0.7261,1.8559-1.4522,2.3403
		C62.7962,22.7607,61.6668,22.9223,61.6668,22.9223z"/>
	<path fill="#231F20" d="M63.6033,20.1777c-0.0801,0.7266-0.3232,1.2915-0.8071,1.7759c-0.4844,0.4848-1.2105,0.8882-1.7759,0.8882
		c-0.5649,0-1.4521-0.1617-1.7754-0.4844c-0.3227-0.3228-0.5649-1.0493,0.0811-1.7754c0.645-0.7271,1.2099-1.4531,1.937-1.6148
		c0.726-0.1611,1.372-0.5649,1.8564-0.1611C63.6033,19.2094,63.6033,20.1777,63.6033,20.1777z"/>
	<path fill="#231F20" d="M65.8631,22.9223l2.7446-0.1616l0.1611,2.0176l-2.8247,0.081c0,0-0.3227-0.6455-0.3227-1.0493
		C65.6214,23.4067,65.8631,22.9223,65.8631,22.9223z"/>
	<path fill="#231F20" d="M73.6927,21.7114c0,0-0.1617-3.6319,0.081-4.5195c0.2417-0.8882,0.7256-1.6954,0.7256-1.6954l3.6328-0.0805
		c0,0-0.4853,0.3227-0.6465,1.372c-0.1601,1.0489-0.08,2.3409-0.08,3.2286c0,0.8877,0,1.4526,0,1.4526L73.6927,21.7114z"/>
	<polygon fill="#231F20" points="71.0286,23.4873 71.1097,21.4692 72.7239,21.3081 72.7239,23.4067 	"/>
	<path fill="#231F20" d="M70.7869,17.999c0,0,0.2417-0.8882,0.3228-1.211c0.081-0.3227,0.2421-0.6455,0.2421-0.6455h1.5332
		l-0.4033,1.6944L70.7869,17.999z"/>
	<polygon fill="#231F20" points="79.1009,22.6801 78.9388,19.6933 81.1995,19.5327 81.5218,21.6308 80.4729,22.6801 	"/>
	<polygon fill="#231F20" points="96.1302,21.5503 96.0501,19.29 99.2786,19.0483 99.4388,21.3891 	"/>
	<path fill="#231F20" d="M125.8323,43.1806l-0.4043-0.645l0.4854-1.1304l1.292-2.5019c0,0,0.4843-0.4844,1.1298-0.4844
		c0.6455,0,3.1475-0.1616,3.1475-0.1616s0.8877,0.7261,1.5322,1.2915c0.6465,0.5649,1.292,1.291,1.292,1.291
		s-4.3574,1.5337-5.6494,1.9375C127.3655,43.1806,125.8323,43.1806,125.8323,43.1806z"/>
	<path fill="#231F20" d="M123.6536,32.6879c0,0-2.0986-3.3896-2.7441-4.1967c-0.6455-0.8072-2.0176-2.502-2.9053-2.9864
		c-0.8877-0.4838-1.4531-0.8877-2.0986-1.0488c-0.6465-0.1616-0.9698-0.646-0.7266-0.9687
		c0.2412-0.3228,0.7266-0.4038,0.7266-0.4038s1.7744,0.1611,3.7119,0.7265c1.9375,0.565,4.4384,1.3721,5.7314,2.3403
		c1.291,0.9688,3.0664,2.4219,3.792,3.2291c0.7266,0.8071,1.1309,1.4526,1.1309,1.4526s-1.4522-0.7261-2.6631,0
		c-1.2119,0.7266-0.9688,1.0493-1.5332,1.6953c-0.5664,0.645-0.8076,0.8877-1.3721,0.8066
		C124.138,33.2534,123.6536,32.6879,123.6536,32.6879z"/>
	<path fill="#231F20" d="M112.1927,33.9799c0,0-1.293-6.3769-1.3721-6.9414c-0.0801-0.5649,0.4033-1.8564,1.5322-1.8564
		c1.1309,0,3.0674,0.4033,3.7949,0.8877c0.7256,0.4844,2.0176,1.291,3.1475,2.8252c1.1299,1.5337,2.3408,3.1474,2.502,3.7124
		c0.1601,0.5649,0.4843,1.5332,0.2421,1.8569c-0.2421,0.3228-0.8886,0.7261-1.5341,0.8071
		c-0.6455,0.0806-5.5694,0.2417-6.8594,0.2417C112.3528,35.5131,112.1927,33.9799,112.1927,33.9799z"/>
	<path fill="#231F20" d="M99.6009,34.1406l-1.21-6.2144c0,0,0-1.6137,1.3721-1.6948c1.372-0.0811,3.7929-0.2422,4.5185-0.2422
		c0.7266,0,1.293,0.4033,1.4541,1.3716c0.1612,0.9687,1.3721,6.0537,1.3721,6.6997c0,0.6455-0.1621,1.4526-1.3721,1.5337
		c-1.2109,0.0806-3.6328,0.1611-4.5195,0.1611C100.3274,35.7553,99.6009,34.1406,99.6009,34.1406z"/>
	<path fill="#231F20" d="M95.1614,35.7553l-8.1523-1.5337c0,0-0.3223-0.2417-0.4834-0.726
		c-0.1612-0.4839-0.8887-3.4707-0.8887-4.1162c0-0.646,0.5654-1.211,1.1299-1.3726c0.5664-0.1611,6.6181-1.21,7.3457-1.21
		c0.7265,0,1.6133,0,1.7754,1.1294c0.1621,1.1304,1.2099,5.6494,1.292,6.3765c0.08,0.7261-0.3233,1.3721-0.7266,1.4526
		C96.0501,35.8364,95.1614,35.7553,95.1614,35.7553z"/>
	<path fill="#231F20" d="M76.1946,43.3422c0.3228,0.1617,0.6455,0.4034,0.6455,0.8072s-0.2417,0.8076-0.2417,0.8076l-0.3232,7.3442
		l8.3139-0.2422c0,0-0.08-0.2421-0.3232-0.8877c-0.2422-0.6455-2.4219-5.811-2.4219-5.811l0.8877,0.3228l2.9873,6.457
		l20.7422-1.1304l7.5059-6.6987l-0.5645-0.4844l2.6631-0.2417l-1.0478,0.8071l-6.8623,6.376c0,0,0.2441,0.3228,0.8886,0.3228
		c0.6455,0,1.1309-0.3228,1.6963-0.646c0.5645-0.3223,0.5645-0.3223,0.5645-0.3223l1.5322,0.0801c0,0-0.0801,0.4043-0.8867,0.8071
		c-0.8076,0.4033-1.292,0.6465-1.292,0.6465l4.4394-0.1621l1.9366-2.1787l3.3906-5.166l0.6465-0.0801l-3.875,6.3755
		c0,0-0.7266,0.9682,0,0.9682c0.7265,0,1.6142-0.1606,2.1787-0.3222c0.5654-0.1616,0.8887-0.565,0.8887-0.565l1.372-0.081
		c0,0-1.0508,1.2109-1.9375,1.6142c-0.8877,0.4034-4.6006,0.4034-4.6006,0.4034l-33.0918,1.2114l-0.5644-0.0811l-0.2422-0.4839
		c0,0-8.4756,0.1607-9.2021,0.1607c-0.7261,0-0.6456-0.8071-0.0806-0.8071c0.5649,0,2.9057-0.1612,2.9057-0.1612h0.4839
		l0.4844-7.9092L76.1946,43.3422z"/>
	<path fill="#231F20" d="M89.8343,14.6088v-0.4843l-0.6446-0.0806l-0.1621-0.5654h-2.1787l-0.082-0.4839l2.4228-0.3233
		L88.22,11.0576l2.0186-0.0806v-0.4043c0,0-0.6455,0-1.211-0.0801c-0.5644-0.0805-1.2099,0.0801-1.372-0.2422
		c-0.1622-0.3227-0.6465-0.3227-0.6465-0.3227l-0.1602,1.3716c0,0-0.4844-0.1616-0.5654-0.4844
		c-0.0811-0.3223-0.0811-0.7266-0.0811-0.7266h-4.1162l-33.2529,2.0992l-6.6187-0.4844l38.9849-2.7437l1.6943-0.4038l0.9678-0.2427
		l-3.9541-0.4033L74.096,7.6679l-38.5-4.2783l5.8926-0.3227l41.082,4.1157c0,0,0.9697-0.4029,2.583-0.3223
		c1.6133,0.0806,2.9063,0.4033,2.9063,0.4033l0.9677,0.0811l0.9688,0.0806l0.1621,0.3227l0.8877-0.1611h2.1797
		c0,0,1.1289-0.4043,2.9043-0.646c1.7763-0.2417,2.664-0.0806,3.3086-0.0806c0.6464,0,1.2109-0.1611,1.2109-0.1611L133.3391,0
		l1.5333,0.2417L100.8929,7.748l-2.0987,0.0811l43.0996-1.4527l-7.2636,0.7266L99.1175,8.7973c0,0-1.3721,0.4038-2.4219,0.4038
		c-1.0498,0-2.0977,0.0806-2.0977,0.0806l0.8067,0.4038l-0.0811,0.9683l-1.4521-0.3228l-1.0508-0.0806l-0.4033,0.4034l0.4843,0.081
		l0.0811,0.7266l-1.0498,0.1606l-0.0811,0.6465l2.8262,0.6455l-0.2422,0.3228l-2.4218,0.1611v0.4038l-0.4034,0.0811l-0.1621,0.8877
		L89.8343,14.6088z"/>
	<line fill="none" stroke="#231F20" stroke-width="0.3854" x1="86.7669" y1="12.9946" x2="86.7669" y2="10.8149"/>
	<line fill="none" stroke="#231F20" stroke-width="0.3854" x1="94.3548" y1="12.8335" x2="94.7581" y2="10.331"/>
</g>
</svg>
