<?xml version="1.0" encoding="utf-8"?>
<!-- Generator: Adobe Illustrator 21.1.0, SVG Export Plug-In . SVG Version: 6.00 Build 0)  -->
<svg version="1.1" id="Bel" xmlns="http://www.w3.org/2000/svg" xmlns:xlink="http://www.w3.org/1999/xlink" x="0px" y="0px"
	 viewBox="0 0 143.2538 39.2455" enable-background="new 0 0 143.2538 39.2455" xml:space="preserve">
<g>
	<path fill-rule="evenodd" clip-rule="evenodd" d="M44.9559,39.1606c1.6129,0.1982,3.2255-0.0284,4.8952,0.0848
		c3.9895-0.3676,7.9509-0.2546,11.8839-0.5658c0.9902,0.0567,1.9239,0.0567,2.886,0.1698c0.3963-0.1698,0.7359,0,1.0188,0
		c2.3202-0.481,4.7254,0.1131,7.0455-0.4243c0.9054,0,1.8391,0.028,2.6597-0.453c0.1131-0.1414,0.0567-0.3112,0.0848-0.5374
		c-0.0848-0.4243-0.6789-0.4243-1.0468-0.4243c-0.368,0.028-0.6508,0.1131-0.877-0.0567c-0.2265-0.7356,0.2829-1.5279,0.3112-2.4336
		c0.2262-0.3393,0.1978-0.7356,0.3676-1.1035c4.7537-1.5279,10.0165-2.4333,14.9684-3.7349l5.6024-7.0739l7.7247-0.6505
		l31.7755-3.6502l-2.3202,3.7916l-0.3396,0.8203l1.3581,0.6791c0.0566,0,0.1417,0,0.1981,0l2.0939-3.5368l3.0274,4.7818
		l0.6227,0.481c1.3014,0.2265,2.9427,0.0283,3.9611-0.7356l-2.8295-7.3003l3.1975-1.641c0-0.085,0-0.1131-0.0284-0.1981
		c-0.1414-0.0284-0.1698-0.0284-0.3396,0l-2.6881-1.5279c0.7359-3.5935,2.6881-7.4982,3.0844-11.0353l-1.5282-0.1978
		c-0.2262,0-0.1131-0.2832-0.2262-0.4811c-0.0567-0.085-0.1131-0.1698-0.2545-0.2264c-0.0284,0-0.1134,0-0.1698,0
		c-0.0567,0.0283-0.0851,0.0566-0.1982,0.1131l-0.2829,0.5945l-1.1886,0.8487l-4.9799,10.7804
		c-6.4797,0.7358-13.1573,0.7358-19.7217,1.33c-0.0851,0-0.1415-0.0283-0.1982-0.1131l0.9621-2.9429l-0.0567-0.3676
		c-1.2733-0.0284-2.7728,0-3.8763,0.6225c-0.5658,0.5941-0.8206,1.1882-1.245,1.726c-0.1982,0.4527-0.3396,0.8487-0.5377,1.1599
		l-11.9123,0.8206c-2.2918,0.0283-4.6403,0.6792-6.4794-0.7072c-3.9047-2.6881-8.998-2.4336-13.6383-3.452
		c-0.1414-0.2549,0.2545-0.1982,0.2545-0.4811c-0.3112-0.6791-0.5094-1.5281-1.3297-1.8111l-1.4431,1.33l-0.6225,0.9621
		c-1.1035-0.1134-2.207-0.1982-3.3673-0.3112c-1.8108-0.1698-3.5651,0-5.3759-0.1418c-0.5094,0-0.9904-0.0564-1.4148,0.0567
		c-0.1134-0.0848-0.2832-0.1698-0.3112-0.368l-0.3679-5.7155c0.1981-0.1982,0.5941,0.1698,0.9621-0.0567
		c0.4243-0.5374,1.1319-0.3112,1.7824-0.5374C70.3084,5.0366,74.1,4.329,77.92,4.4141c0.3676-0.0567,0.7356,0,1.0468,0.0847
		c0.1131,0,0.1698-0.0847,0.1981-0.1981c14.8833-1.5562,29.823-2.2635,44.8478-3.5085l2.0092-0.2831
		c0.0281-0.0281,0.0564-0.0848,0.1131-0.1131c0.0283-0.1131,0.1131-0.2829,0.0283-0.396
		c-8.4319,0.2829-17.1187,1.0185-25.8055,1.4712c-5.0366,0.3112-9.9031,0.5661-14.9116,0.9337
		c-2.2635-0.0847-4.5836,0.5378-6.6776,0.0851c-3.2256,1.1319-6.7626,1.0185-10.0732,0.9054l-0.4527,0.1414
		c-0.9054-0.3396-1.8675,0.1981-2.6881-0.396l-0.6789,0.396l-2.575,0.0567c-0.1698-0.2549-0.6225-0.3396-0.9621-0.1414
		c-0.1131,0.1414-0.1698,0.1414-0.2545,0.1698c-0.1131-0.0284-0.1698-0.0284-0.2829-0.0851l-0.481,0.1981
		c-1.9809-0.481-3.7916,0.396-5.8005,0.0848c-0.9904,0.2829-1.9809,0-2.8012,0.1134c-1.2169-0.2832-2.3204-0.0284-3.4804-0.3112
		c-4.1312,0.1695-8.1774-0.1698-12.1104-0.0851c-2.886-0.1414-5.7155-0.1414-8.4036-0.1982L0.0795,2.7445
		c-0.0848,0.1414-0.1131,0.3679-0.0284,0.5094l47.8474,1.7544c3.5368-0.7639,7.3568-0.0851,10.9786,0.2545
		c0.9054,0,1.8108,0.0567,2.4616,0.5658l0.9621-0.2546l0.3396,0.1698l0.396,6.0834l-2.2351,0.2829l-3.7349,0.6792
		c-0.1134,0.1131-0.1134,0.4244,0,0.5658l0.4244,0.2832l-1.4715,1.8958c-1.9239,0-3.9895-0.1982-5.8569,0
		c-1.6696,0.6225-2.8295,2.2635-4.3293,3.2539c-4.7254-0.3396-8.0076,2.7161-10.8372,5.942
		c-0.481,0.5658-1.1035,1.1035-1.3581,1.726c-2.122,0.9054-4.5556,1.4712-5.546,3.5368l-1.8675,0.5661c0,0.0283,0,0.1414,0,0.1979
		l2.2637,0.3962c5.8289,4.4425,13.4402,1.7544,20.2028,2.6881l-0.849,3.8764c-1.8958,1.0188-4.1026-0.1982-6.1118-0.0848
		c-0.3393,0-0.6225-0.085-0.8487,0.0848c-0.0567,0.0283-0.0851,0.1131-0.0851,0.1698
		C41.9282,38.6512,43.4844,39.1323,44.9559,39.1606L44.9559,39.1606z M45.3519,38.7643c4.7537,0,9.5921-0.4243,14.4023-0.4243
		c1.8394-0.1132,3.6502,0,5.4045,0c2.6881-0.3112,5.2347,0,7.8094-0.368c0.7356-0.1414,1.33,0,1.9806-0.2262
		c0,0,0.0567-0.0283,0.085-0.1131c0-0.085-0.0283-0.1134-0.085-0.1698l-1.7541-0.2265c-0.4246-1.1883,0.5375-2.4052,0.396-3.5935
		l-1.2166,0.1698c-0.1698,0.6225-0.1698,1.3864-0.368,2.0939c-0.1414,0.7356-0.3112,1.4148-0.9621,1.6694
		c-1.0185,0.3679-1.9522,0.1414-2.9426,0.3112c-0.396-0.0284-0.7639-0.0284-1.1319-0.0567c-0.0847,0-0.1414,0-0.2829,0.0567
		c-0.7639-0.1415-1.641,0.1414-2.4616-0.0567c-3.9614,0.2265-7.8378,0.2548-11.7142,0.3396
		c-0.9904-0.2829-2.1223,0.2548-2.6317-0.4527l0.5094-3.7066c-0.0284-0.1134,0,0-0.0848-0.1698h-1.0471
		c-0.1698,0.481-0.2545,1.1035-0.481,1.6693c-0.2262,1.0469-0.1695,2.3769-1.0185,2.971l-3.1408,0.085L45.3519,38.7643
		L45.3519,38.7643z M43.824,38.4815h0.1131l-1.641-0.5094L43.824,38.4815L43.824,38.4815z M52.9918,37.7175
		c4.6687-0.2546,9.4504-0.368,14.1758-0.4527c0.4243,0.0567,0.7075-0.0851,1.0752,0.0567c0.849-0.1982,1.6696,0.028,2.4619-0.2832
		c0.0281,0,0.0848,0,0.1695,0c0.3963-0.1697,0.5094-0.7072,0.6792-1.1316c0.0567-0.6792,0.2548-1.2733,0.2548-1.8958
		l-20.8255-0.1134l-0.6225,3.424L52.9918,37.7175L52.9918,37.7175z M59.6694,33.5863c9.7336,0.7076,19.4956-1.5279,29.2856-4.1025
		l5.7439-7.1873c13.1576-1.3014,26.3148-2.6598,39.4154-4.5272l0.396,0.1134c0.0567-0.0851,0.1134-0.1982,0.1981-0.3396
		c-7.0172,0.2545-14.2041,1.1599-21.278,1.7824c-0.1414,0.0284-0.1981,0.1415-0.2829,0.3112l-0.3679,0.1414
		c-0.0847,0-0.1698,0-0.2829-0.0847l-3.0841,0.5658c-0.3112,0.0284-0.5094,0-0.7359-0.1695l-0.2829-0.2549
		c-4.4425,0.2265-8.7999,0.7075-13.242,1.0752C89.04,23.0323,84.5976,29.342,77.92,30.1909
		c-0.0567-0.0283-0.085-0.1131-0.085-0.1981l15.1945-10.4125l15.3643-1.2166c0.0567-0.0567,0.1414-0.1134,0.0567-0.1981
		c-13.9212-1.9809-22.5232,6.423-32.3416,12.1952c-0.2546-0.1131-0.4527-0.0567-0.5941-0.1698c0-0.0283-0.0567-0.1131-0.085-0.1981
		c0-0.0564,0.0283-0.1131,0.085-0.1978l2.7728-1.9809l0.6792-0.5374c-1.4148,1.0469-2.8012,2.0089-4.216,2.9143
		c-3.7633,0.1698-7.3568,0-11.1201,0.1698c-6.9891,0.1131-13.7798,0-20.7405,0.0847c-1.9806,0.1134-3.9331,0.0567-5.8289,0.0284
		c-0.1981,0-0.1981,0.2265-0.0848,0.2829c0.4811,0.9337,1.0185,1.6413,1.6126,2.5183c2.2071,0.3112,4.3294,0,6.5648,0.2265
		c4.8101,0,9.4787,0,14.2041,0.0284C59.4996,33.5863,59.5844,33.5863,59.6694,33.5863L59.6694,33.5863z M30.3838,28.8612
		l7.9509-0.2832c0-0.0564-0.1414-0.028-0.1981-0.1131c-0.5658,0.1698-1.0752-0.0284-1.6693-0.1132
		c-1.4715,0.0284-2.0089-1.5845-3.4237-1.2166c-1.2733,0.3112-2.2921,0.9901-3.1975,1.5562
		C29.9592,28.7478,30.1857,28.7478,30.3838,28.8612L30.3838,28.8612z M41.5322,28.6348c3.3953-0.0848,6.819-0.1131,10.1863-0.1982
		c13.61,1.3584,25.5506-1.3297,34.0957-10.8935l3.3389-0.1982c0.1131,0.1132,0.0284,0.2265-0.0567,0.3396
		c0.7923-0.7075,2.2071-0.5941,3.1691-0.5094c0.1131,0.085,0.2265,0.1697,0.2265,0.1697l0.396-0.1697
		c-0.9904-0.9054-2.6031-1.4148-3.82-2.1504c-0.6225-0.2829-1.1316-0.6225-1.726-0.7923c-0.0847,0.0284-0.1131,0.0847-0.1978,0.1131
		c-0.9337-0.4243-2.2921-0.1414-3.4237-0.5941c-4.5556-0.8489-8.9697-0.9053-13.4121-1.3016c-2.5183-0.0284-4.8668-0.0284-7.3567,0
		c-1.2166-0.0284-2.3202,0.085-3.4804,0.2549c1.8391,0.2262,4.3858-0.1982,6.5645,0.3112c0.7075,0.6789,0.7359,2.0089,1.1319,2.9143
		c0,0.0567-0.0283,0.1131-0.0847,0.1981l-3.4521-0.0567c-1.33-0.0848-2.6597-0.1414-3.9614-0.2262
		c-5.0366,0.2829-10.4975-1.3017-13.7514,3.3954l-1.3017-0.1132c0,0.5091,0.5941,1.4712,0,2.1221
		c-0.9054,2.6597-2.2918,4.697-3.3389,7.2153C41.2774,28.578,41.4755,28.6631,41.5322,28.6348L41.5322,28.6348z M52.5108,27.8708
		l4.1593-0.4527c0.5094-1.7827,0.6792-3.9048,1.2166-5.8289c0.0567-0.3395-0.0283-0.6225-0.0848-0.9337l-2.4616-0.0851
		c-0.6792-0.1131-1.4147-0.0847-2.094,0.1134c-1.0188,2.0937-1.2449,4.5556-1.6129,6.7343c0.0567,0.1414,0.1981,0.3112,0.3963,0.396
		L52.5108,27.8708L52.5108,27.8708z M67.6486,27.9555l0.1131,0.0284c0.6508-1.2733,0.3396-3.1407,1.0188-4.6686
		c-0.0284-0.849,0.3396-1.6977,0.1131-2.4616c-1.3297-0.7923-3.367-0.1698-5.0649-0.3679
		c-1.2166,0.2829-2.3485-0.0847-3.5085,0.1131c-0.6508,0.9621-1.0188,2.3202-0.9054,3.5934c0,0.0851,0.1414,0.0851,0.2545,0.1134
		c-0.5094,0.8487-0.8206,2.0937-0.4527,3.2255c0.0564,0.0284,0.0848,0.0284,0.1414,0.1131l8.0076,0.0851L67.6486,27.9555
		L67.6486,27.9555z M44.3051,27.7294c1.6693-0.2829,3.452-0.3112,5.1497-0.1134c0.6225-0.5091,0.1131-1.5562,0.5377-2.2068
		c0-0.3112,0.0847-0.481,0.1131-0.7643c-0.0284-0.1978-0.3113-0.3112-0.5378-0.2262c-0.3112,0.0847-0.481,0-0.6789,0.0283
		c-0.1415,0-0.1415-0.0283-0.1134-0.1414l1.33-0.1134c0.1131,0,0.1131-0.1698,0.1981-0.2829l0.5941-2.9993
		c0-0.0564-0.0284-0.1698-0.1131-0.2546c-0.9057-0.4527-1.8958,0-2.8862-0.2829c-0.4527,0.0284-0.877-0.0851-1.3297,0.1698
		c-0.6508,1.0468-1.4431,2.3485-1.6696,3.7349c-0.0847,0-0.1981,0-0.2545,0.1131l-1.0188,2.7448
		C43.6259,27.4745,43.9938,27.616,44.3051,27.7294L44.3051,27.7294z M37.5424,27.5312c0.0851,0,0.1131-0.0567,0.1982-0.1131
		c1.0468-1.8675,2.4333-3.5088,4.0462-5.2348c-1.6693,1.4998-3.2539,3.3673-4.3574,5.2348
		C37.4293,27.5596,37.4577,27.4464,37.5424,27.5312L37.5424,27.5312z M35.9295,27.333c0.0283,0,0.1134,0,0.1982-0.0564
		l0.5094-0.8206c0.0283-0.1131,0.1981-0.1981,0.3396-0.2545c1.8108-2.4903,4.3007-4.9235,6.819-6.5081
		c-1.3581,0.0847-2.49,0.877-3.5084,1.4715c-1.8111,1.5562-3.82,3.4237-4.9235,5.2911c-0.0284,0.2546-0.1981,0.2829-0.1131,0.4527
		L35.9295,27.333L35.9295,27.333z M55.2553,27.2199l1.0752-0.1698l0.1981-0.396l-0.0567-0.6508
		c-0.8204-0.2829-1.726-0.2549-2.6598-0.2549c-0.3676,0.0851-0.5091,0-0.8203,0.0567l-0.1981,1.1035L55.2553,27.2199
		L55.2553,27.2199z M60.405,27.2199c2.0372-0.2829,4.0461-0.0566,6.0834,0l0.5094-2.2354c-0.6225-0.3396-1.245-0.0564-1.9242-0.2829
		c-0.5658,0.1131-1.1316,0.0283-1.6126,0.1131c-1.0188-0.0847-1.9525-0.028-2.8579-0.0847
		c-0.5377,0.481-0.6225,1.4995-0.5377,2.1787c0.0567,0.1414,0.0567,0.1982,0.0567,0.1982L60.405,27.2199L60.405,27.2199z
		 M67.592,27.1352c0.0567-2.0092,0.9621-3.9614,0.8773-6.027c-1.1319-0.5094-2.4335,0.1698-3.7069-0.1981
		c-0.9618,0.2548-1.9522,0.085-2.886,0.1698c0.877,0.2265,1.9242,0.085,2.886,0.1698c1.0755,0.0283,2.0092,0.0567,2.9993,0
		c0.1415,0.0283,0.3113,0.1981,0.3396,0.3395c0,0.8207-0.5094,1.641-0.0564,2.4052c0,0.0848-0.0567,0.2262-0.1417,0.2829
		c-0.0564,0.0284-0.1131,0.1415-0.2546,0.1415l-0.2829,2.6313C67.3657,27.0501,67.5639,27.2766,67.592,27.1352L67.592,27.1352z
		 M45.1541,27.1352l4.1026-0.1981l0.1982-1.8958c-0.8487,0-1.6977-0.3963-2.5747-0.1981c-0.4246,0-0.7075,0-1.0471,0l-0.877,2.0089
		c0,0.0567,0,0.1698,0.0847,0.2548C45.069,27.1069,45.069,27.1069,45.1541,27.1352L45.1541,27.1352z M56.2174,25.3242
		c0.1131,0,0.1414-0.0283,0.3112-0.0847c0,0,0.0284-0.0284,0.1131-0.1134l0.7359-3.9611l-3.3389-0.1134
		c-0.3963,0.1134-0.1982,0.7075-0.5094,0.9337c-0.1982,1.1035-0.3112,2.094-0.4243,3.1127L56.2174,25.3242L56.2174,25.3242z
		 M139.4622,25.0412c1.0185,0,2.3485,0,3.0558-0.849l-2.8577-6.6208l-3.1691,0.5374l-0.962,1.5846
		C136.9438,21.4478,137.3965,23.9377,139.4622,25.0412L139.4622,25.0412z M46.4838,24.2773l0.481-0.0851l-1.0468-0.1131
		C45.833,24.2773,46.3423,24.1075,46.4838,24.2773L46.4838,24.2773z M48.04,24.2773h0.3112c-0.1131,0-0.2829-0.1414-0.396-0.0567
		L48.04,24.2773L48.04,24.2773z M61.2823,24.1075c0.028,0,0.1131-0.0284,0.1978-0.0284c-0.1978-0.2546-0.5091,0.0567-0.7923,0
		C60.886,24.0792,61.0275,24.1923,61.2823,24.1075L61.2823,24.1075z M48.889,23.7396l0.6789-0.0284l0.4527-2.4049
		c-0.7356-0.3396-1.8391-0.3963-2.7729-0.1982c-0.6789,0.5658-0.7639,1.5846-1.1319,2.2071L48.889,23.7396L48.889,23.7396z
		 M80.6645,23.7112l1.0468-0.7922L80.6645,23.7112L80.6645,23.7112z M62.8102,23.5981h4.0745l0.2829-1.3297
		c-0.8206-0.0851-1.7543-0.0851-2.6597-0.368c-1.2733,0.1698-2.49-0.2264-3.7066,0.1982c-0.2265,0.2829,0,0.6789-0.1981,1.0185
		c0,0.0567,0.0284,0.1131,0.0284,0.1982L62.8102,23.5981L62.8102,23.5981z M132.8977,22.919l0.2262-0.3394
		c0-0.1981-0.1979-0.3963-0.4244-0.5094c-0.1698,0.0284-0.368,0.3113-0.2829,0.5375l0.396,0.3112H132.8977L132.8977,22.919z
		 M133.5202,21.7874l0.4243-0.7359c0-0.0564,0-0.1414-0.0283-0.1978c-0.0847-0.085-0.1131-0.1982-0.2829-0.2548
		c-0.2829,0.1982-0.4243,0.481-0.5374,0.8489l0.3393,0.4243L133.5202,21.7874L133.5202,21.7874z M134.3124,20.3442
		c0.7072-1.0752,1.7544-2.0372,1.9239-3.4803c0,0,0-0.0284-0.1131-0.0847l-2.1787,3.1971c0,0.1698,0.1131,0.3112,0.3112,0.3963
		L134.3124,20.3442L134.3124,20.3442z M109.1578,19.6934l3.4237-0.4527c0.5094-0.4527,0.5094-1.245,0.8206-1.9806
		c0.5094-1.5282,1.33-3.0561,1.6413-4.6406c-0.5094,0-1.0471,0.1131-1.6129,0.0851c-1.5279,0.028-2.2637,1.245-2.8295,2.2634
		c-0.0847,0.3112-0.1981,0.4527-0.3112,0.6792c0,0.0848,0.0847,0.1698,0.0847,0.2829c-0.0847,0.1981-0.3112,0.2265-0.4807,0.3963
		c-0.481,0.8487-1.1319,1.9238-1.2169,3.1124C108.8465,19.4953,108.9032,19.6367,109.1578,19.6934L109.1578,19.6934z
		 M113.7417,17.9958l21.8157-1.6693c0.0284-0.0567,0.2262-0.1418,0.0848-0.1982l-21.9852,1.641
		C113.5436,17.7976,113.6002,18.0522,113.7417,17.9958L113.7417,17.9958z M136.9722,17.458l1.726-0.3677l-1.811,0.2545
		C136.9438,17.3449,136.7457,17.5714,136.9722,17.458L136.9722,17.458z M74.5811,16.5243l1.0468-0.1414
		c0.1698-0.0284,0.3112-0.1982,0.3963-0.396l0.0847-1.6696c-0.1982-0.5658-0.9621-0.481-1.4148-0.481
		c-0.1698,0-0.368,0.1981-0.396,0.3679l-0.085,1.726l0.2829,0.5378L74.5811,16.5243L74.5811,16.5243z M85.6161,16.4679
		l0.6508-0.2832l0.1414-1.0184c-0.1414-0.5094-0.7072-0.4527-1.1599-0.5942c-0.3963,0.2545-0.7639-0.0567-1.0471,0.0847
		c-0.2546,0.5094-0.1695,1.2733,0.0851,1.6977L85.6161,16.4679L85.6161,16.4679z M79.2497,16.3828l1.0468-0.0564
		c0.5094-0.3396,0.3112-1.1602,0.3112-1.7544c0-0.0567-0.0281-0.1414-0.1414-0.2265l-1.3014-0.0847
		c-0.1698,0.0847-0.3396,0.1978-0.3963,0.396l0.085,1.4715C78.8818,16.2414,79.0516,16.3545,79.2497,16.3828L79.2497,16.3828z
		 M73.0248,16.3264l0.7923-0.1698l0.1978-2.2354c0-0.085-0.028-0.1131-0.1131-0.1982l-1.6977-0.1981
		c-0.4243,0.7075-0.3396,1.726-0.1982,2.6033L73.0248,16.3264L73.0248,16.3264z M76.6467,16.3264h1.4712
		c0.4246-0.5094,0.3112-1.4148,0.2265-2.1223c-0.5094-0.0847-1.3017-0.481-1.7827-0.0847
		c-0.2545,0.6225-0.2262,1.4996-0.0283,2.1504C76.5616,16.2697,76.6183,16.2697,76.6467,16.3264L76.6467,16.3264z M81.2586,16.3264
		h1.33c0.1131,0,0.2829-0.1698,0.3396-0.3396l-0.1134-1.33c-0.396-0.1981-1.16-0.396-1.641-0.0847v1.7544H81.2586L81.2586,16.3264z
		 M136.9722,16.1847l4.9516-0.3112l0.3679-0.1414l-5.4045,0.3112C136.8591,16.0716,136.8872,16.2414,136.9722,16.1847
		L136.9722,16.1847z M64.4231,15.6472h1.0185c0.3112-0.481-0.1131-1.1035-0.2262-1.6129c-0.1417-0.1981-0.2548-0.2262-0.3396-0.3112
		c-1.6696-0.3679-3.3389-0.0283-5.0649-0.1981c-0.6509,0.1981-1.3581-0.1131-1.8675,0.1134l-1.1035,1.6976L64.4231,15.6472
		L64.4231,15.6472z M135.0764,14.0343l1.4995-0.3395c0.085-0.1414,0-0.1698-0.0848-0.2546l-1.4714,0.5658L135.0764,14.0343
		L135.0764,14.0343z M139.6602,13.8362l0.5375-1.641l-1.4148,0.4244l-0.5941,0.9054c0,0.0284,0,0.1134,0.0567,0.1698
		L139.6602,13.8362L139.6602,13.8362z M137.4532,13.525l1.9239-3.2256c-0.0564-0.1131-0.1979-0.0848-0.3112-0.1414l-1.8675,2.8859
		l0.1698,0.4811H137.4532L137.4532,13.525z M63.461,11.8273c0.0848,0,0.1698,0,0.2829,0L63.461,5.7438
		c-0.0567-0.1698-0.2265-0.1131-0.3679-0.0848l0.2545,6.1399L63.461,11.8273L63.461,11.8273z M136.4911,11.035l1.4996-0.5374
		l-1.4148,0.2262c-0.0284,0.0851-0.1131,0.1698-0.1979,0.3112H136.4911L136.4911,11.035z M139.7167,9.7053
		c0.2549-0.0284,0.2829-0.2265,0.3963-0.4527c-0.0283-0.1698-0.0851-0.1982-0.2829-0.2832c-0.0567,0-0.1134,0.0284-0.1698,0.0851
		c-0.085,0.1131-0.1981,0.3112-0.1981,0.5094C139.4905,9.6202,139.6036,9.7053,139.7167,9.7053L139.7167,9.7053z M140.7919,9.5919
		l0.3396-0.1414c0-0.1978-0.2546-0.0564-0.3396,0C140.7919,9.4504,140.5373,9.6769,140.7919,9.5919L140.7919,9.5919z
		 M137.5663,8.8846l1.6977-0.5094l1.0468-1.4431l1.2169,0.6225c0.0564,0,0.1698-0.0564,0.1978-0.0847l1.3016-4.216l-1.8391-0.368
		c-0.1698-0.2545-0.3112,0.368-0.5941,0.368c-0.7639,0.2829-1.1886,1.1035-1.4998,1.8108
		c-0.5374,1.3017-1.1035,2.4899-1.6409,3.7069C137.4532,8.7999,137.4532,8.8846,137.5663,8.8846L137.5663,8.8846z M140.594,8.6581
		c0.1414-0.1978,0.2829-0.5941,0.2829-0.9054c-0.085-0.0848-0.1698-0.1698-0.2829-0.1982
		c-0.2265,0.1982-0.3963,0.4246-0.4247,0.7359l0.368,0.396L140.594,8.6581L140.594,8.6581z M60.886,5.1497
		c0.0851,0,0.1131-0.0284,0.1414-0.0851V4.131l-3.2822-0.0284c-0.0847,0.1418-0.2545,0.453-0.1698,0.6508
		C58.6506,5.0647,59.8109,4.5556,60.886,5.1497L60.886,5.1497z M62.6971,5.1213l1.0468-0.1981l0.1698-0.8206
		c-0.3963-0.396-1.1035,0.0284-1.6129-0.0564C62.216,4.3008,62.131,4.6403,62.131,4.9515
		C62.2444,5.0647,62.499,5.0647,62.6971,5.1213L62.6971,5.1213z M64.9606,5.0647l4.1312-0.396
		c0.2829-0.0284,0.1698-0.3396,0.1698-0.5661c-0.6792-0.3676-1.7827-0.1414-2.6314-0.2545c-0.3963,0.1698-0.6792,0-0.9904-0.1131
		l-0.6792,0.3112l-0.0848,0.9904L64.9606,5.0647L64.9606,5.0647z M61.6216,4.8668V4.2159l-0.0847,0.7073L61.6216,4.8668
		L61.6216,4.8668z M46.9648,4.612h0.481c0.2829,0,0.1414-0.3112,0.1981-0.5094L2.6825,3.0841L46.9648,4.612L46.9648,4.612z
		 M56.0193,4.5272l0.849,0.0847c0.1131-0.0564,0.1131-0.1979,0.0848-0.2829l-3.3106,0.0851L56.0193,4.5272L56.0193,4.5272z
		 M48.2381,4.4988l1.6129-0.1981l-1.5562-0.1982c-0.1134,0-0.1134,0.1418-0.1982,0.3115
		C48.0967,4.4141,48.0967,4.5272,48.2381,4.4988L48.2381,4.4988z M69.9124,4.4141l8.7432-0.481
		c0.1698-0.1418,0.1131-0.5094,0-0.6792c-0.368-0.1698-0.8773,0.0567-1.33,0.1415c-2.49,0.5658-4.9516,0.3112-7.4132,0.6225
		c-0.1417,0.0847-0.0283,0.2265-0.085,0.3396L69.9124,4.4141L69.9124,4.4141z M79.4479,3.8197L124.324,0.481
		c0.1417,0,0-0.1982,0-0.1982L79.3345,3.0841c-0.1695,0.1414-0.0564,0.4527,0,0.7072L79.4479,3.8197L79.4479,3.8197z M1.7488,3.0841
		h0.453C2.0601,2.9143,1.7772,2.9426,1.6074,3.0274L1.7488,3.0841L1.7488,3.0841z"/>
</g>
</svg>
