<?xml version="1.0" encoding="utf-8"?>
<!-- Generator: Adobe Illustrator 21.1.0, SVG Export Plug-In . SVG Version: 6.00 Build 0)  -->
<svg version="1.1" id="Bel" xmlns="http://www.w3.org/2000/svg" xmlns:xlink="http://www.w3.org/1999/xlink" x="0px" y="0px"
	 viewBox="0 0 144.7412 53.5896" enable-background="new 0 0 144.7412 53.5896" xml:space="preserve">
<g>
	<path fill-rule="evenodd" clip-rule="evenodd" d="M139.7561,39.0988c-0.8538,0.4779-1.7353,0.7927-2.2763,0.8595
		c-1.2148,0.15-17.5546,1.4135-19.6244,1.4135c-0.2143,0.1284-1.2026,0.5219-0.5361,1.4869
		c0.6684,1.9702,1.4595,3.8287,2.1192,6.1216c4.1225,0.375,14.77,1.3179,14.77-1.0172c0.8262-0.2142,1.875,0.1085,2.0426,0.3228
		c-0.6841,2.6944-5.5371,2.5542-8.3702,2.4621c0,0.3792-2.9277,1.8485-2.9277,1.8851c-1.5,2.4659-60.6894-1.0776-66.2774-2.5894
		c-0.4023-0.4031-0.0366-1.2288,0.1778-1.3671c5.2261,0.4287,11.209,1.0767,16.8085,1.0767
		c0.1392-0.484,0.1417-0.7099,0.1861-1.2291c-0.9073,0-2.6885-0.6801-2.8839-0.9745c-0.2982-0.7671,0.0059-0.8623,0.1934-0.9776
		c0.4888-0.1343,2.001,0.4849,3.1011,0.4849c0.1104-0.8067,0.2017-1.632,0.2202-2.3107c-0.2109-0.3398-0.0166-1.2881,0.4556-1.2881
		c0.1875-0.5897,0.7787-2.0986,1.8183-2.8753c0-0.3302-0.0527-0.128-0.1465-0.128c0,0.2456-1.1367,1.1733-1.5956,1.1733
		c-0.1656-0.4966,0.204-1.2305,0.3486-1.7794c-1.5568,0-3.3145-0.292-5.1364-0.7535L139.7561,39.0988L139.7561,39.0988z
		 M77.9643,47.2405c2.6915,0.6427,4.7247,0.8297,10.1313,0.9902c-0.289-1.4459-1.9829-6.3204-3.1616-6.7861
		c-1.0923,0.563-1.898,0.4742-3.3378,0.367c-0.4239,0.8737-2.1646,0.4102-2.1646,0.4219c-0.3252,0.6696-0.6011,1.1086-0.8154,1.6465
		c0.229,0.7261-0.0621,1.4175-0.4414,1.4175C78.0902,45.9177,78.0449,46.5325,77.9643,47.2405L77.9643,47.2405z M110.1889,51.6946
		c1.8506,0.1608,13.8707,0.7987,15.21-1.099c-4.0835,0.4287-9.8686-0.154-15.3383-0.4758
		C110.0424,50.5417,109.9321,51.1623,110.1889,51.6946L110.1889,51.6946z M110.5023,48.4621
		c1.8727,0.1613,4.3413,0.3619,6.5377,0.4727c-0.3121-3.1212-1.44-5.3853-2.3388-6.4629c-0.7031-0.4819-1.5962-0.4594-2.4693-0.1381
		c-0.8653,0.791-1.0538,1.8387-1.5293,2.4673C110.4883,45.8509,110.4135,46.9548,110.5023,48.4621L110.5023,48.4621z
		 M89.7572,48.1023c6.7276,0.4287,12.4639,0.4219,18.9649,0.4219c0-0.187-0.1099-1.6041,0.2017-1.6041
		c-0.0182-0.4355-0.692-2.6196,0.0537-2.6733c0.1338-1.3486,0.7153-1.7144,1.3217-2.7466
		c-7.8955-0.0536-15.5424-0.1034-23.3848-0.1835C87.9824,43.0159,88.9756,45.2352,89.7572,48.1023L89.7572,48.1023z
		 M77.9643,50.1512c11.4961,1.061,19.9077,1.2288,29.7886,1.5501c0-0.2055,0.5366-1.5213,0.602-1.893
		c-9.7764,0-18.7045,0.2456-30.3539-0.7338C77.9219,49.4451,77.9643,49.9602,77.9643,50.1512L77.9643,50.1512z"/>
	<path fill-rule="evenodd" clip-rule="evenodd" d="M8.9869,23.099c-0.7609,1.8005-1.5732,3.618-2.3664,5.434
		c-0.4487-0.0537-0.8047-0.2128-1.0655-0.2934c-0.2279,0.457-1.4847,2.5083-1.7133,2.8774
		c-0.3438,0.424-3.7705-1.1137-3.7335-1.5385c0.6324-1.9125,1.3524-4.2337,2.076-6.4788L8.9869,23.099L8.9869,23.099z
		 M24.1636,23.099c-0.9471,1.7231-2.8409,4.7609-3.6437,5.6977c-0.6635,0.2946-3.3417,0.3272-3.8174-0.5302
		c0.4205-1.3648,1.3003-3.6265,1.9873-5.1666L24.1636,23.099L24.1636,23.099z M127.4499,23.099
		c2.4136,2.2048,5.7967,5.5106,8.1409,7.8183c2.8964,1.3936,6.6895,1.8818,6.6216,4.5851c0.5304,0,2.456,0.1299,2.4204,0.5152
		c-0.0366,0.3977-1.953,0.4756-2.4759,0.4756c-0.1561,1.027-1.2534,1.9636-2.4007,2.6058H72.2229
		c-4.0082-1.0188-8.327-2.854-11.4989-4.2016c-0.9252-1.0648-6.2827-8.9524-6.9691-9.1704
		c-6.342-0.6996-20.5087-1.9582-27.6265-2.6227L127.4499,23.099L127.4499,23.099z"/>
	<path fill-rule="evenodd" clip-rule="evenodd" d="M2.1843,23.099c0.3759-1.166,0.7529-2.3121,1.1189-3.3696
		c-0.8575-0.3521-1.1085-0.7216-1.1602-1.688c-0.0284-0.5278,0.3398-1.2197,0.9878-1.2574
		C2.4477,13.6126,0.7616,5.2499,0.2915,3.0393c0.4717-0.308,2.1441-0.3192,2.7143-0.0546
		c1.0132,2.5024,4.315,10.9535,5.3009,13.5171c0.5756,0,0.8672,0.0562,1.2837,0.2383c1.1919-2.9243,2.6255-6.4385,3.8515-9.2257
		c0.3761-0.1816,2.0792,0.7676,2.1172,1.0181c-0.5972,1.6884-1.6938,4.7447-2.5205,6.7402
		c-0.4068,0.5913-1.4644,1.9683-1.9171,2.5673c2.775,0.0806,5.1925,0.1036,7.7154,0.1573
		c-0.2675-0.9687-0.6646-2.1469-0.7182-2.8838c1.2886-1.1949,3.5605-0.4277,4.1703-0.079c0,0.018,1.1002,2.0526,1.23,2.3372
		c3.5044,0.1076,6.5318,0.3365,9.6391,0.5236c0-0.4444-0.0453-0.8672,0.1832-1.2105c0.1553-0.285,3.9722-0.3422,4.4018-0.1284
		c0,0.0527,0.7989,1.028,1.1558,1.628c6.3291,0.375,10.6718,0.4873,16.8364,0.7013c0.5356-1.1323,0.9833-2.2329,1.2686-3.1198
		c1.5854-0.4638,3.4711-0.9237,5.0186-1.3261c5.2084-1.2246,10.953-2.3149,16.3491-3.1109l10.8496-0.2944V5.7034
		c-0.268,0.1162-0.5361,0.1781-0.8842,0.1069L88.0688,5.489c-8.2509,0.6877-19.2612,5.34-23.3593,8.1705
		c-0.6968,0.3931-1.1734-0.1537-0.7193-0.5044c6.4018-4.7965,18.7061-8.3048,22.8696-9.3087c-0.0762,0-1.5224-0.2271-1.5224-0.3672
		c-21.2325-1.3934-70.2379,0.0865-74.312-0.2255C9.3057,3.1469,9.7895,2.4194,10.0571,2.012
		c8.373-1.7763,61.937-0.8231,78.2334-0.0731c0.2968-2.5978,9.2211-2.4835,9.06,0.6785c4.5953-0.4554,35.0879,1.6802,41.4683,4.7686
		c0.3912,0.228,0.4819,1.3837-1.797,0.9698c-3.6131-0.7598-24.9639-4.1676-31.8764-3.6656
		c10.6729,1.1393,31.7353,5.0386,34.7555,6.7856c0,0.7919-0.9825,0.84-0.9825,0.8834c-8.3414-1.747-36.6011-6.5845-41.293-7.7241
		c-0.0606,0.3945-0.1645,1.1937-0.1645,1.5225c-0.1368,0-0.3443,0.2566-0.5136,0.2566c-0.1958,1.5567-0.4552,3.1924-0.6787,4.7686
		c1.939,0.1783,3.4951,0.3717,5.1172,0.5498c0.4873,0.5011,1.4389,1.9863,2.0893,3.042c5.0698-0.4287,10.8721,1.4018,13.3335,4.9322
		c2.9975,0.2144,5.6289,0.5508,7.7778,1.0678c0.3163,0.0762,1.4153,1.0024,2.8635,2.325L26.1284,23.099
		c-0.6954-0.0595-1.3233-0.1188-1.8702-0.1713c-0.0303,0.056-0.0619,0.1139-0.0946,0.1732l-5.4738-0.0019
		c0.1819-0.4066,0.35-0.7636,0.4928-1.0402c-0.6235,0-1.1939-0.0267-1.8173-0.0267c-0.2945,0.0112-0.4205-0.1299-0.6909-0.237
		c-1.9024-0.0844-5.6035-0.243-7.0288-0.2866C9.4317,22.037,9.2114,22.567,8.9869,23.099H2.1843L2.1843,23.099z"/>
	<path fill="none" stroke="#000000" stroke-width="0.216" stroke-miterlimit="2.6131" d="M77.9643,47.2405
		c2.6915,0.6427,4.7247,0.8297,10.1313,0.9902c-0.289-1.4459-1.9829-6.3204-3.1616-6.7861c-1.0923,0.563-1.898,0.4742-3.3378,0.367
		c-0.4239,0.8737-2.1646,0.4102-2.1646,0.4219c-0.3252,0.6696-0.6011,1.1086-0.8154,1.6465
		c0.229,0.7261-0.0621,1.4175-0.4414,1.4175C78.0902,45.9177,78.0449,46.5325,77.9643,47.2405L77.9643,47.2405z M110.1889,51.6946
		c1.8506,0.1608,13.8707,0.7987,15.21-1.099c-4.0835,0.4287-9.8686-0.154-15.3383-0.4758
		C110.0424,50.5417,109.9321,51.1623,110.1889,51.6946L110.1889,51.6946z M110.5023,48.4621
		c1.8727,0.1613,4.3413,0.3619,6.5377,0.4727c-0.3121-3.1212-1.44-5.3853-2.3388-6.4629c-0.7031-0.4819-1.5962-0.4594-2.4693-0.1381
		c-0.8653,0.791-1.0538,1.8387-1.5293,2.4673C110.4883,45.8509,110.4135,46.9548,110.5023,48.4621L110.5023,48.4621z
		 M89.7572,48.1023c6.7276,0.4287,12.4639,0.4219,18.9649,0.4219c0-0.187-0.1099-1.6041,0.2017-1.6041
		c-0.0182-0.4355-0.692-2.6196,0.0537-2.6733c0.1338-1.3486,0.7153-1.7144,1.3217-2.7466
		c-7.8955-0.0536-15.5424-0.1034-23.3848-0.1835C87.9824,43.0159,88.9756,45.2352,89.7572,48.1023L89.7572,48.1023z
		 M77.9643,50.1512c11.4961,1.061,19.9077,1.2288,29.7886,1.5501c0-0.2055,0.5366-1.5213,0.602-1.893
		c-9.7764,0-18.7045,0.2456-30.3539-0.7338C77.9219,49.4451,77.9643,49.9602,77.9643,50.1512L77.9643,50.1512z M62.0224,14.4398
		c5.2084-1.2246,10.953-2.3149,16.3491-3.1109l10.8496-0.2944V5.7034c-0.268,0.1162-0.5361,0.1781-0.8842,0.1069L88.0688,5.489
		c-8.2509,0.6877-19.2612,5.34-23.3593,8.1705c-0.6968,0.3931-1.1734-0.1537-0.7193-0.5044
		c6.4018-4.7965,18.7061-8.3048,22.8696-9.3087c-0.0762,0-1.5224-0.2271-1.5224-0.3672
		c-21.2325-1.3934-70.2379,0.0865-74.312-0.2255C9.3057,3.1469,9.7895,2.4194,10.0571,2.012
		c8.373-1.7763,61.937-0.8231,78.2334-0.0731c0.2968-2.5978,9.2211-2.4835,9.06,0.6785c4.5953-0.4554,35.0879,1.6802,41.4683,4.7686
		c0.3912,0.228,0.4819,1.3837-1.797,0.9698c-3.6131-0.7598-24.9639-4.1676-31.8764-3.6656
		c10.6729,1.1393,31.7353,5.0386,34.7555,6.7856c0,0.7919-0.9825,0.84-0.9825,0.8834c-8.3414-1.747-36.6011-6.5845-41.293-7.7241
		c-0.0606,0.3945-0.1645,1.1937-0.1645,1.5225c-0.1368,0-0.3443,0.2566-0.5136,0.2566c-0.1958,1.5567-0.4552,3.1924-0.6787,4.7686
		c1.939,0.1783,3.4951,0.3717,5.1172,0.5498c0.4873,0.5011,1.4389,1.9863,2.0893,3.042c5.0698-0.4287,10.8721,1.4018,13.3335,4.9322
		c2.9975,0.2144,5.6289,0.5508,7.7778,1.0678c0.8433,0.2032,7.2539,6.4502,11.0044,10.1426
		c2.8964,1.3936,6.6895,1.8818,6.6216,4.5851c0.5304,0,2.456,0.1299,2.4204,0.5152c-0.0366,0.3977-1.953,0.4756-2.4759,0.4756
		c-0.2721,1.7913-3.4092,3.3084-4.677,3.4652c-1.2148,0.15-17.5546,1.4135-19.6244,1.4135
		c-0.2143,0.1284-1.2026,0.5219-0.5361,1.4869c0.6684,1.9702,1.4595,3.8287,2.1192,6.1216c4.1225,0.375,14.77,1.3179,14.77-1.0172
		c0.8262-0.2142,1.875,0.1085,2.0426,0.3228c-0.6841,2.6944-5.5371,2.5542-8.3702,2.4621c0,0.3792-2.9277,1.8485-2.9277,1.8851
		c-1.5,2.4659-60.6894-1.0776-66.2774-2.5894c-0.4023-0.4031-0.0366-1.2288,0.1778-1.3671
		c5.2261,0.4287,11.209,1.0767,16.8085,1.0767c0.1392-0.484,0.1417-0.7099,0.1861-1.2291c-0.9073,0-2.6885-0.6801-2.8839-0.9745
		c-0.2982-0.7671,0.0059-0.8623,0.1934-0.9776c0.4888-0.1343,2.001,0.4849,3.1011,0.4849c0.1104-0.8067,0.2017-1.632,0.2202-2.3107
		c-0.2109-0.3398-0.0166-1.2881,0.4556-1.2881c0.1875-0.5897,0.7787-2.0986,1.8183-2.8753c0-0.3302-0.0527-0.128-0.1465-0.128
		c0,0.2456-1.1367,1.1733-1.5956,1.1733c-0.1656-0.4966,0.204-1.2305,0.3486-1.7794c-4.9815,0-12.0216-2.9915-16.6353-4.9516
		c-0.9252-1.0648-6.2827-8.9524-6.9691-9.1704c-6.9615-0.768-23.3511-2.2094-29.4967-2.7991
		c-0.9096,1.6821-2.9077,4.8998-3.7383,5.869c-0.6635,0.2946-3.3417,0.3272-3.8174-0.5302c0.5318-1.7262,1.7984-4.8867,2.48-6.2077
		c-0.6235,0-1.1939-0.0267-1.8173-0.0267c-0.2945,0.0112-0.4205-0.1299-0.6909-0.237c-1.9024-0.0844-5.6035-0.243-7.0288-0.2866
		c-0.9381,2.3175-1.9976,4.6725-3.025,7.0244c-0.4487-0.0537-0.8047-0.2128-1.0655-0.2934
		c-0.2279,0.457-1.4847,2.5083-1.7133,2.8774c-0.3438,0.424-3.7705-1.1137-3.7335-1.5385c0.9609-2.9062,2.1245-6.7563,3.1949-9.8491
		c-0.8575-0.3521-1.1085-0.7216-1.1602-1.688c-0.0284-0.5278,0.3398-1.2197,0.9878-1.2574
		C2.4477,13.6126,0.7616,5.2499,0.2915,3.0393c0.4717-0.308,2.1441-0.3192,2.7143-0.0546
		c1.0132,2.5024,4.315,10.9535,5.3009,13.5171c0.5756,0,0.8672,0.0562,1.2837,0.2383c1.1919-2.9243,2.6255-6.4385,3.8515-9.2257
		c0.3761-0.1816,2.0792,0.7676,2.1172,1.0181c-0.5972,1.6884-1.6938,4.7447-2.5205,6.7402
		c-0.4068,0.5913-1.4644,1.9683-1.9171,2.5673c2.775,0.0806,5.1925,0.1036,7.7154,0.1573
		c-0.2675-0.9687-0.6646-2.1469-0.7182-2.8838c1.2886-1.1949,3.5605-0.4277,4.1703-0.079c0,0.018,1.1002,2.0526,1.23,2.3372
		c3.5044,0.1076,6.5318,0.3365,9.6391,0.5236c0-0.4444-0.0453-0.8672,0.1832-1.2105c0.1553-0.285,3.9722-0.3422,4.4018-0.1284
		c0,0.0527,0.7989,1.028,1.1558,1.628c6.3291,0.375,10.6718,0.4873,16.8364,0.7013c0.5356-1.1323,0.9833-2.2329,1.2686-3.1198
		C58.5893,15.302,60.475,14.8422,62.0224,14.4398L62.0224,14.4398z"/>
	<path fill="#FFFFFF" stroke="#000000" stroke-width="0.216" stroke-miterlimit="2.6131" d="M59.9354,49.8817
		c-0.4555,0.0059-1.1176-0.2712-0.8251-0.6305c12.1675,1.102,54.9038,4.5455,64.5717,2.5298
		c1.9414-0.6806,2.9355-1.257,3.0234-2.0346c0.6089-0.1432,0.9443,0.0405,1.1924,0.1835c0,0.5557-3.6704,2.6588-3.9278,2.6588
		C120.3242,54.0297,73.789,51.5013,59.9354,49.8817L59.9354,49.8817z"/>
	<path fill="#FFFFFF" stroke="#000000" stroke-width="0.216" stroke-miterlimit="2.6131" d="M108.3535,51.614
		c0.0933-0.9525,0.3486-1.5185,0.7241-2.3843c0-0.7153,0.0503-1.5293,0.0137-2.0428c0.1679-0.1069,0.8794-0.082,1.0581,0.0253
		c0.08,0.6675,0.0131,1.3047-0.4189,2.2296c-0.2788,0.9375-0.0503,2.0796-0.0435,2.2514
		C109.4131,51.6932,108.6367,51.614,108.3535,51.614L108.3535,51.614z"/>
	<path fill="#FFFFFF" stroke="#000000" stroke-width="0.216" stroke-miterlimit="2.6131" d="M110.3359,49.7322
		c0.0336-0.1186,0.0088-0.6352,0.1693-0.8492c1.5538,0.1481,5.8399,0.3863,6.9678,0.3863c0,0.0185-0.7461-5.73-2.5693-7.3554
		c-0.75-0.3249-1.7451-0.1842-2.6563-0.109c-1.25,0.5939-1.374,1.9317-1.6367,2.5749c-0.0268-0.1162-1.1176-0.4078-1.3389-0.1837
		c0.3218-1.5234,1.2701-2.0269,1.4307-3.0628c-8.6128,0-17.3208-0.0708-25.897-0.3117c-0.6162,0.8369-3.0171,0.7148-3.2646,0.3668
		c-0.5718,1.0362-1.6216,0.7095-2.2011,0.4952c0,0.034-0.9043,1.6074-1.0454,1.8891c-0.2461-0.2241-0.5068-0.2714-1.0083-0.1371
		c0.1078-0.5051,1.0552-2.3576,1.5952-2.3576c0.4683-0.1146,0.4131-1.0664,0.1934-1.2539
		c-0.4018-0.2412-1.3355,0.7036-1.4218,0.7036c-0.0489-0.389,0.1167-0.6973,0.0732-1.0453c-4.9468,0-10.9552-2.877-15.938-4.4567
		c5.4443,0.4552,16.5591,1.3385,21.1283,1.2837c0.2178,2.5636,5.0259,3.2437,6.6578,3.5948
		c1.0004,0.2154,7.0121,0.229,8.1387-0.1842c0.5674-0.2074,0.9487-0.6825,0.7935-3.1718c3.3398,0,6.352,0.0546,10.1787,0.0546
		c0.1607,1.7888,1.3477,2.3468,1.7652,2.5451c2.0483,0.9736,8.9277,1.1709,11.1045,0.4742c0.5498-0.2609,1.2436-1.02,1.2681-2.8385
		c1.187,0,4.585,0.0127,5.8168,0.0031c-1.2636,1.001-2.1499,2.2134-2.2924,3.6127c-3.0146,0.3813-5.2466,0.4416-8.6753,0.5508
		c-0.9951,0.273-1.2827,1.1606-0.9185,1.9312c0.6562,1.0181,2.2759,6.1416,2.3916,6.518c1.4571,0,5.1251,0.4516,6.9668,0.4516
		c0,0.2613-0.1806,0.3781-0.2353,0.3781C125.8764,50.5579,113.7348,50.1609,110.3359,49.7322L110.3359,49.7322z"/>
	<path fill="#FFFFFF" stroke="#000000" stroke-width="0.216" stroke-miterlimit="2.6131" d="M128.2147,50.2513l0.188-0.3131
		c1.8272,0.0959,6.2018-0.4662,6.2709-1.6083c0.1882,0,1.1177-0.1221,1.1177,0.2159
		C135.6177,50.6242,127.9931,50.6755,128.2147,50.2513L128.2147,50.2513z"/>
	<path fill="#FFFFFF" stroke="#000000" stroke-width="0.216" stroke-miterlimit="2.6131" d="M76.0512,49.8817
		c0.0298-0.5241,0.3414-1.9474,0.377-2.0948c0.2416-0.2142,0.9511-0.3202,0.9863,0.1324c0.1494,0-0.0918,1.8984-0.0918,1.9624
		C76.9955,49.8817,76.4609,49.8817,76.0512,49.8817L76.0512,49.8817z"/>
	<path fill="#FFFFFF" stroke="#000000" stroke-width="0.216" stroke-miterlimit="2.6131" d="M80.3119,48.9646
		c-0.75-0.1055-2.0058-0.2867-2.3994-0.3665c0-0.1599,0.0279-0.5508,0.0518-0.9176c3.0273,0.6103,6.8462,0.9176,10.6011,0.9176
		c-0.2139-0.9391-0.2535-1.3259-0.4322-2.0431c0.1528,0,0.4253-0.0014,0.7466,0c0.1953,0.4287,0.4395,1.6903,0.4926,1.9664
		c5.9648,0.2949,12.1138,0.3696,19.3497,0.3696c-0.0322,0.1268-0.1289,0.5346-0.1289,0.6023
		C98.0946,49.4934,87.9667,49.6609,80.3119,48.9646L80.3119,48.9646z"/>
	<path fill="#FFFFFF" stroke="#000000" stroke-width="0.216" stroke-miterlimit="2.6131" d="M75.9779,48.1506
		c0.0537,0.0708-1.6596-0.2104-2.6142-0.7108c-0.0547-0.1284-0.1451-0.3907,0.1665-0.5011c1.247,0.1882,1.7285,0.4786,2.6918,0.5587
		C76.1425,47.7367,75.9779,48.114,75.9779,48.1506L75.9779,48.1506z"/>
	<path fill="#FFFFFF" stroke="#000000" stroke-width="0.216" stroke-miterlimit="2.6131" d="M77.5058,47.4974
		c-0.2144-0.3736-0.6143-0.2892-0.8252-0.1284c0.0757-0.8712,0.0938-1.7056,0.2017-2.5678
		c-0.188-0.8468,0.3574-1.1651,1.0454-0.9717c0.3832,0.1074,0.5923,1.2837-0.0919,1.2837
		C77.8022,45.4056,77.6547,46.8543,77.5058,47.4974L77.5058,47.4974z"/>
	<path fill="#FFFFFF" stroke="#000000" stroke-width="0.216" stroke-miterlimit="2.6131" d="M109.2187,46.7636
		c0-0.603-0.6675-2.3076,0.2017-2.3076c1.6875-0.1266,0.6865,1.9896,0.6997,2.3076
		C109.9418,46.7636,109.497,46.7636,109.2187,46.7636L109.2187,46.7636z"/>
	<path fill="#FFFFFF" stroke="#000000" stroke-width="0.216" stroke-miterlimit="2.6131" d="M88.0517,46.1399
		c-0.2109-0.5126-0.7275-1.7002-0.9858-2.3105c0.1801,0,0.46-0.0806,0.6435-0.0806c0.2139,0.4913,0.8067,1.8272,1.0323,2.3632
		C88.4223,46.112,88.3622,46.1399,88.0517,46.1399L88.0517,46.1399z"/>
	<path fill="#FFFFFF" stroke="#000000" stroke-width="0.216" stroke-miterlimit="2.6131" d="M86.7963,43.4104
		c-0.1875-0.8988-1.2066-1.9955-1.3672-2.1487c0.1641,0,0.7056,0,1.0283,0c0,0.2182,0.7646,1.1283,1.0074,2.0726
		C87.1885,43.3342,86.9809,43.4104,86.7963,43.4104L86.7963,43.4104z"/>
	<path fill="#FFFFFF" stroke="#000000" stroke-width="0.216" stroke-miterlimit="2.6131" d="M90.3988,39.5566
		c-0.0205-0.0012-6.9321-0.8672-6.9321-3.1373c5.437,0.2177,9.8579,0.183,14.4341,0.1289c0,0.274,0.3799,1.9706-0.4057,2.6222
		C96.765,39.7748,90.874,39.5769,90.3988,39.5566L90.3988,39.5566z"/>
	<path fill="#FFFFFF" stroke="#000000" stroke-width="0.216" stroke-miterlimit="2.6131" d="M112.3901,39.0604
		c0-0.0366-2.9209-0.1948-3.0473-2.5137c4.3867,0.1605,8.1615,0.1298,12.7861,0.1298c0,0.8145,0.145,1.6144-1.0498,2.4176
		C119.311,39.8378,113.3198,39.2746,112.3901,39.0604L112.3901,39.0604z"/>
	<path fill="#FFFFFF" stroke="#000000" stroke-width="0.216" stroke-miterlimit="2.6131" d="M139.5526,38.4412
		c0.4552-0.3525,1.001-1.0659,1.0083-1.9146l0.9258-0.0872C141.437,37.243,140.432,38.4407,139.5526,38.4412L139.5526,38.4412z"/>
	<path fill="#FFFFFF" stroke="#000000" stroke-width="0.216" stroke-miterlimit="2.6131" d="M109.1264,36.1586l-0.0376-0.5826
		c4.1703,0.0537,8.1123-0.0523,12.6026-0.0523l0.2905,0.7125C117.4711,36.2362,113.3851,36.2655,109.1264,36.1586L109.1264,36.1586z
		"/>
	<path fill="#FFFFFF" stroke="#000000" stroke-width="0.216" stroke-miterlimit="2.6131" d="M122.5692,36.3093
		c0-0.0844-0.2265-0.6347-0.2754-0.8618c6.0459,0,14.3539,0.1676,19.3578-0.4755c0.2677,0.2299,0.0314,0.9708,0.0314,0.9708
		C138.4072,36.3714,129.2084,36.3093,122.5692,36.3093L122.5692,36.3093z"/>
	<polygon fill="#FFFFFF" stroke="#000000" stroke-width="0.216" stroke-miterlimit="2.6131" points="83.3925,36.0515 
		83.1918,35.3924 97.7358,35.5023 97.9008,36.1809 83.3925,36.0515 	"/>
	<path fill="#FFFFFF" stroke="#000000" stroke-width="0.216" stroke-miterlimit="2.6131" d="M98.4126,36.1263
		c-0.0547-0.2201-0.0561-0.4219-0.1465-0.6771c1.4404,0.0659,9.1484,0.0532,10.2724,0.0532
		c0.0552,0.2494,0.0547,0.4512,0.0547,0.604C105.2221,36.1063,101.6992,36.1263,98.4126,36.1263L98.4126,36.1263z"/>
	<path fill="#FFFFFF" stroke="#000000" stroke-width="0.216" stroke-miterlimit="2.6131" d="M61.3984,34.6398
		c0-0.0415-0.3691-0.2107-0.439-0.4212c7.0888,0.4355,15.0034,1.1004,21.5903,1.1004c0,0.1247,0.3608,0.0192,0.2384,0.5503
		C75.9579,35.7058,68.0117,35.1843,61.3984,34.6398L61.3984,34.6398z"/>
	<path fill="#FFFFFF" stroke="#000000" stroke-width="0.216" stroke-miterlimit="2.6131" d="M108.997,35.0809
		c-0.2334-1.2827-0.4541-2.487-0.7154-3.7964c0.2569,0,0.7281-0.0537,0.985-0.0537c0.2173,0.9007,0.1553,1.6416,0.519,1.8877
		c2.3447,0,5.2045-0.0338,8.2153-0.0338c0.2675-0.2777,0.4082-0.4364,0.2944-1.856c0-0.0907,1.0342-0.183,1.211-0.183
		c0.6669,1.3589,1.1987,2.2896,1.9482,4.0024C117.0742,35.0481,113.0825,35.1878,108.997,35.0809L108.997,35.0809z"/>
	
		<path fill-rule="evenodd" clip-rule="evenodd" fill="#FFFFFF" stroke="#000000" stroke-width="0.216" stroke-miterlimit="2.6131" d="
		M122.0737,35.0256c-0.4819-1.0835-1.3848-2.9257-1.9258-3.9051c-0.1611,0,0.8638-0.0748,1.2289-0.0748
		c0.2544,0.4399,0.6177,0.8712,1.1187,1.1006c1.0703,0,10.1611,0.1577,10.1611-0.8618c-0.1352-2.0363-7.1943-8.1382-8.8403-8.6205
		c-2.3043-1.2799-6.5708-0.7887-6.6411-0.7887c-0.8037-0.0312,1.607,4.7637,1.8667,5.4488c-0.1835,0-0.563,0.0536-0.728,0.0536
		c-0.6919-1.582-3.0572-6.2348-3.894-6.3651c-2.2495-0.3502-7.5518-0.6284-7.8213,0.1636
		c-0.2348,0.6879,0.1181,3.5063,0.5459,6.2016c-0.1641,0.3286-1.1318,0.0546-1.4854,0.0546
		c-0.1747-1.4013-0.5527-5.1162-1.2807-5.4281c-1.6987-0.7275-4.5952-0.566-6.0864,0.1099c-0.6758,0.3056-0.1856,2.9023,0.122,5.502
		c-0.0181,0,0.0181,0-0.0005,0c0,0.0185-0.0541,0.0366-0.0541,0.0731c-0.4951,0-0.9361,0-1.4127,0
		c-0.2783-3.3495-0.7383-6.4291-1.6641-6.7113c5.1959-0.3267,17.8433-0.7148,21.6558-0.882c2.332,0,7.2983,0.7472,7.8502,1.2291
		c0.9643,0.7226,9.0835,8.441,10.6372,10.088c2.0018,0.75,5.7328,1.8105,5.8451,2.9892
		C141.2708,35.4212,124.8598,35.0793,122.0737,35.0256L122.0737,35.0256z"/>
	<path fill="#FFFFFF" stroke="#FFFFFF" stroke-width="0.216" stroke-miterlimit="2.6131" d="M84.2485,33.5237
		c-0.7349,0.1807-0.8794-1.706-1.0029-2.377c-0.2202,0-0.5494,0.0274-0.7511,0.0274c0.1446,1.2494,0.4268,2.5992,0.6182,3.8452
		c0.8306,0.0138,1.5328,0.0206,2.4639,0.0206c-0.0386-0.1441-0.0996-0.5034-0.0557-0.7477c0.3662-0.311,2.7275-0.183,2.9527-0.1284
		c0.0825,0.2423,0.1143,0.604,0.0737,0.8618c3.6661,0,5.4,0.1099,9.1705,0.1099c-0.2877-1.2724-0.5327-2.4745-0.8072-3.7247
		l-1.1191,0.0021c-0.018,0.623,0.3389,2.0658-0.4546,2.1265C94.7036,33.5877,88.2549,33.5237,84.2485,33.5237L84.2485,33.5237z"/>
	<path fill="#FFFFFF" stroke="#000000" stroke-width="0.216" stroke-miterlimit="2.6131" d="M98.139,34.9525
		c-0.2128-1.193-0.5619-2.3271-0.7705-3.5395c0.5548,0,1.0693,0,1.65,0c0.1172,0.8506,0.3462,1.8687,0.8285,1.8687
		c3.1045,0.0005,4.6953,0.1498,6.3585-0.0888c0.4888-0.0703,0.2959-0.9581,0.187-1.9641c0.4404,0,0.8803,0,1.3389,0
		c0.2719,1.0695,0.4443,2.2814,0.7167,3.7985C104.875,35.0273,101.6772,35.0057,98.139,34.9525L98.139,34.9525z"/>
	<path stroke="#000000" stroke-width="0.216" stroke-miterlimit="2.6131" d="M111.6196,34.8421
		c-0.1465-0.3668-0.2202-0.6783-0.1832-0.9169c0.7022,0,1.7436,0,2.7144,0c0,0.206,0.2808,0.334,0.165,0.8435
		C113.4838,34.7687,112.2069,34.8421,111.6196,34.8421L111.6196,34.8421z"/>
	<path fill="#FFFFFF" stroke="#000000" stroke-width="0.216" stroke-miterlimit="2.6131" d="M60.5775,33.8519
		c-0.5024-0.5995-2.0136-2.663-2.6596-3.54c6.9028,0.3813,16.6103,0.7533,24.0439,0.8623c0.163,0.7134,0.3662,2.5024,0.6425,3.7231
		C75.4648,34.7884,67.8812,34.3417,60.5775,33.8519L60.5775,33.8519z"/>
	<path fill="#FFFFFF" stroke="#000000" stroke-width="0.216" stroke-miterlimit="2.6131" d="M85.9526,35.0324
		c-0.2168-0.1385-0.0987-0.5571-0.0987-0.6112c0.6914-0.1737,1.7729-0.1249,2.3306-0.0127
		c0.0762,0.0914,0.1123,0.4863,0.0176,0.6103C87.4697,35.0188,86.6826,35.0324,85.9526,35.0324L85.9526,35.0324z"/>
	<path fill="#FFFFFF" stroke="#000000" stroke-width="0.216" stroke-miterlimit="2.6131" d="M111.9428,34.536
		c0-0.0366-0.1069-0.3145-0.1069-0.3511c0.5297,0,1.414,0.0014,2.0425,0.0014c0,0.1324,0.1758,0.1842,0.1758,0.3429
		C113.6181,34.5292,112.5033,34.536,111.9428,34.536L111.9428,34.536z"/>
	<path fill="#FFFFFF" stroke="#000000" stroke-width="0.216" stroke-miterlimit="2.6131" d="M97.3676,30.9906
		c-0.1104-0.4034-0.1314-0.6865-0.1314-0.9434c0.6333,0,0.9507-0.026,1.5196-0.026c0.0366,0.2754,0.1537,0.6759,0.2085,0.9694
		C98.4135,30.9906,97.8852,30.9906,97.3676,30.9906L97.3676,30.9906z"/>
	<path fill="#FFFFFF" stroke="#000000" stroke-width="0.216" stroke-miterlimit="2.6131" d="M95.8031,30.9906
		c0-0.1352-0.0478-0.5489-0.0478-0.8618c0.3847,0,0.56,0,0.8784,0c0.0551,0.2201,0.1299,0.477,0.185,0.8618
		C96.5067,30.9906,96.1146,30.9906,95.8031,30.9906L95.8031,30.9906z"/>
	<path fill="#FFFFFF" stroke="#000000" stroke-width="0.216" stroke-miterlimit="2.6131" d="M106.2455,30.8622
		c-0.1465-0.3668-0.1098-0.5684-0.1279-0.7887c0.5532,0,0.8848,0.0553,1.4667,0.0553c0.0371,0.2201,0.0738,0.4399,0.1284,0.678
		C107.2363,30.8069,106.7353,30.8622,106.2455,30.8622L106.2455,30.8622z"/>
	<path fill="#FFFFFF" stroke="#000000" stroke-width="0.216" stroke-miterlimit="2.6131" d="M108.2265,30.8622
		c0-0.1256-0.0943-0.5719-0.13-0.7873c0.2847,0,0.6168,0.0553,0.8887,0.0553c0,0.2016,0.188,0.4838,0.2065,0.7041
		C108.9642,30.8343,108.5155,30.8622,108.2265,30.8622L108.2265,30.8622z"/>
	
		<path fill-rule="evenodd" clip-rule="evenodd" fill="#FFFFFF" stroke="#000000" stroke-width="0.216" stroke-miterlimit="2.6131" d="
		M57.7904,29.9261c0-0.0185-0.6245-0.641-0.6792-0.7695c7.4024,0.2724,14.5826,0.4413,21.8252,0.5503
		c0.7778,1.6777,3.1109,0.9781,2.9164-0.2569c0.0182,0.5742,0.0547,0.8988,0.0914,1.3568
		C74.2787,30.8069,65.582,30.307,57.7904,29.9261L57.7904,29.9261z"/>
	<path fill="#FFFFFF" stroke="#000000" stroke-width="0.216" stroke-miterlimit="2.6131" d="M82.3563,30.7591
		c-0.0181-0.2016-0.0453-0.4833-0.0453-0.6855c0.2568,0,0.5136,0,0.789,0c0,0.2203,0.0449,0.4936,0.0635,0.7144
		C82.8935,30.7879,82.5835,30.7591,82.3563,30.7591L82.3563,30.7591z"/>
	<path fill="#FFFFFF" stroke="#000000" stroke-width="0.216" stroke-miterlimit="2.6131" d="M118.2592,30.7342
		c0-0.0713-0.3672-0.5454-0.3672-0.8442c0.3359,0,0.5346-0.0734,0.9355-0.0734c0,0.0539,0.3633,0.6832,0.4399,0.8625
		C119.0019,30.6791,118.6108,30.7342,118.2592,30.7342L118.2592,30.7342z"/>
	<path fill="#FFFFFF" stroke="#000000" stroke-width="0.216" stroke-miterlimit="2.6131" d="M119.8984,30.6791
		c-0.0797-0.2393-0.3258-0.6246-0.4473-0.8625c0.2202,0,0.6543-0.0536,0.8745-0.0536c0,0.0185,0.648,0.7769,0.7002,0.9162
		C120.6133,30.6791,120.266,30.6791,119.8984,30.6791L119.8984,30.6791z"/>
	<path fill="#FFFFFF" stroke="#000000" stroke-width="0.216" stroke-miterlimit="2.6131" d="M0.4979,29.3352
		c0.208-0.4922,0.3263-0.8285,0.4721-1.2242c1.5-0.023,2.9312-0.0204,4.1592-0.0204c-0.2139,0.3736-1.1275,2.1328-1.4815,2.46
		C3.3852,31.0663,0.71,29.8279,0.4979,29.3352L0.4979,29.3352z"/>
	<path fill="#FFFFFF" stroke="#000000" stroke-width="0.216" stroke-miterlimit="2.6131" d="M82.2475,29.7138
		c-0.0366-0.2018-0.0464-0.5909-0.0649-0.7924c0.2378,0,0.562-0.0216,0.8145-0.0216c0,0.1289,0.0278,0.6211,0.0762,0.814
		C82.7992,29.7138,82.5765,29.7138,82.2475,29.7138L82.2475,29.7138z"/>
	<path fill="#FFFFFF" stroke="#000000" stroke-width="0.216" stroke-miterlimit="2.6131" d="M95.7015,29.7606
		c0-0.0767-0.0117-0.334-0.0117-0.5742c0.3209,0,0.5982,0.0253,0.9043,0.0253c0,0.083,0.0455,0.4435,0.0649,0.6021
		C96.4023,29.8138,95.958,29.7606,95.7015,29.7606L95.7015,29.7606z"/>
	<path fill="#FFFFFF" stroke="#000000" stroke-width="0.216" stroke-miterlimit="2.6131" d="M97.1898,29.7337
		c-0.0551-0.2754-0.1835-0.4838-0.0551-0.6122c0.5502,0,0.8774-0.0269,1.4462-0.0269c0.0367,0.147,0.0732,0.4547,0.1099,0.6192
		C98.0136,29.7138,97.8525,29.7337,97.1898,29.7337L97.1898,29.7337z"/>
	<path fill="#FFFFFF" stroke="#000000" stroke-width="0.216" stroke-miterlimit="2.6131" d="M106.081,29.6331
		c0-0.0293-0.1269-0.3687-0.147-0.5498c0.4951,0,0.9902,0,1.5039,0c0.0182,0.183,0.0552,0.3668,0.0919,0.5498
		C107.0146,29.6331,106.5165,29.6331,106.081,29.6331L106.081,29.6331z"/>
	<path fill="#FFFFFF" stroke="#000000" stroke-width="0.216" stroke-miterlimit="2.6131" d="M108.0434,29.6331
		c0-0.0883-0.1084-0.3677-0.1284-0.5498c0.2749,0,0.6573,0,0.9327,0c0,0.229,0.1479,0.3199,0.1547,0.5489
		C108.749,29.6322,108.4838,29.6331,108.0434,29.6331L108.0434,29.6331z"/>
	<path fill="#FFFFFF" stroke="#000000" stroke-width="0.216" stroke-miterlimit="2.6131" d="M117.7269,29.5232
		c-0.1098-0.3115-0.1835-0.4034-0.1835-0.5503c0.2939,0,0.5873,0,0.8989,0.0188c0.0732,0.1465,0.2002,0.2723,0.2554,0.5107
		C118.3744,29.5237,117.9428,29.5232,117.7269,29.5232L117.7269,29.5232z"/>
	<path fill="#FFFFFF" stroke="#000000" stroke-width="0.216" stroke-miterlimit="2.6131" d="M119.2309,29.5232
		c-0.0274-0.0614-0.2637-0.5316-0.1284-0.5316c0.1826-0.0143,0.6977,0.0176,0.8071-0.0919c0,0.1556,0.292,0.3623,0.292,0.6771
		C120.1391,29.4524,119.6201,29.5501,119.2309,29.5232L119.2309,29.5232z"/>
	<path fill="#FFFFFF" stroke="#000000" stroke-width="0.216" stroke-miterlimit="2.6131" d="M57.0927,28.7898
		c0-0.0825-0.4527-0.1041-0.5503-0.495c7.7461,0.1088,15.6441,0.3863,22.3755,0.495c-0.0182,0.1284-0.0367,0.3844-0.0367,0.5309
		C72.433,29.2117,64.6049,29.0076,57.0927,28.7898L57.0927,28.7898z"/>
	<path fill="#FFFFFF" stroke="#000000" stroke-width="0.216" stroke-miterlimit="2.6131" d="M95.6264,28.8998
		c0-0.1938-0.0816-0.6382-0.0816-0.9239c0.1694,0,0.6826-0.0199,0.976-0.0199c0,0.2934,0.0181,0.6591,0.0367,0.9706
		C96.3471,28.9265,95.834,28.8998,95.6264,28.8998L95.6264,28.8998z"/>
	<path fill="#FFFFFF" stroke="#000000" stroke-width="0.216" stroke-miterlimit="2.6131" d="M97.2133,28.8452
		c-0.1465-0.2937-0.145-0.6466-0.1972-0.8625c0.6197,0,0.942,0,1.4531,0c0.1084,0.2168,0.0503,0.5543,0.0748,0.8027
		C97.9765,28.8988,97.9262,28.8177,97.2133,28.8452L97.2133,28.8452z"/>
	<path fill="#FFFFFF" stroke="#000000" stroke-width="0.216" stroke-miterlimit="2.6131" d="M107.8232,28.6614
		c0-0.1577-0.1275-0.5323-0.147-0.7885c0.3793,0,0.6108,0,0.9668,0c0.0181,0.183,0.1523,0.495,0.2046,0.7885
		C108.5229,28.6614,108.1283,28.6614,107.8232,28.6614L107.8232,28.6614z"/>
	<path fill="#FFFFFF" stroke="#000000" stroke-width="0.216" stroke-miterlimit="2.6131" d="M105.8974,28.6614
		c0-0.1456-0.0908-0.4999-0.1099-0.7338c0.3759,0,0.9229-0.0546,1.3936-0.0546c0,0.1327,0.1098,0.5316,0.1284,0.7885
		C106.833,28.6614,106.3559,28.6614,105.8974,28.6614L105.8974,28.6614z"/>
	<path fill="#FFFFFF" stroke="#000000" stroke-width="0.216" stroke-miterlimit="2.6131" d="M118.8642,28.6614
		c0-0.2056-0.3159-0.6366-0.3668-0.9169c0.1802,0,0.4312-0.0553,0.6788-0.0553c0,0.1076,0.5048,0.7296,0.5938,0.9977
		C119.4638,28.687,119.206,28.6614,118.8642,28.6614L118.8642,28.6614z"/>
	<polygon fill="#FFFFFF" stroke="#000000" stroke-width="0.216" stroke-miterlimit="2.6131" points="82.0541,28.5798 
		82.0214,27.5652 82.7992,27.5052 82.8769,28.6063 82.0541,28.5798 	"/>
	<path fill="#FFFFFF" stroke="#000000" stroke-width="0.216" stroke-miterlimit="2.6131" d="M117.2953,28.6401
		c-0.0918-0.2198-0.4273-0.8194-0.3721-0.9478c0.3291,0,0.6817,0.0522,1.0605,0.0522c0.0918,0.2201,0.2754,0.5316,0.2754,0.8618
		C117.9038,28.6063,117.7133,28.6401,117.2953,28.6401L117.2953,28.6401z"/>
	<path fill="#FFFFFF" stroke="#000000" stroke-width="0.216" stroke-miterlimit="2.6131" d="M17.2016,27.873
		c0.2143-1.2091,2.6689-6.2369,2.6791-6.686c0.0421-0.63-0.9853-4.4156-1.377-5.7858c0.5645-0.7767,2.5777-0.4286,3.5582,0
		c0,0.0319,1.9091,4.1754,2.0907,4.6948c0.0732,0.3853,0.3477,1.3458-0.017,1.841c-0.567,1.8157-2.8433,5.3027-3.7613,6.3026
		C20.3745,28.6284,17.4184,28.7401,17.2016,27.873L17.2016,27.873z"/>
	<path fill="#FFFFFF" stroke="#000000" stroke-width="0.216" stroke-miterlimit="2.6131" d="M56.2826,27.8514
		c-0.0557-0.1113-0.4555-0.6879-0.4555-0.7095c-0.0181,0,16.2309,0.4742,24.1548,0.4742c-0.5875,0.1929-0.6826,0.3427-0.897,0.6234
		C71.2406,28.1859,64.4115,28.0119,56.2826,27.8514L56.2826,27.8514z"/>
	<path fill="#FFFFFF" stroke="#000000" stroke-width="0.216" stroke-miterlimit="2.6131" d="M5.7118,27.9597
		c0.2671-0.5531,0.4492-0.9579,0.5786-1.2607c0.187,0.0748,0.5587,0.1247,0.7374,0.2046c-0.1909,0.4533-0.3452,0.8369-0.5537,1.2759
		C6.2748,28.1263,5.937,28.0398,5.7118,27.9597L5.7118,27.9597z"/>
	<path fill="#FFFFFF" stroke="#000000" stroke-width="0.216" stroke-miterlimit="2.6131" d="M81.5043,28.056
		c0-0.0366,0-0.0546,0-0.0734c-0.0185,0-0.0366,0-0.0551,0c0-0.018,0-0.0366,0-0.0551c-0.0186,0-0.0367,0-0.0552,0
		c-0.0181-0.0546-0.0367-0.0914-0.0367-0.1284c-0.0366,0-0.0732,0-0.0918,0c0-0.018,0-0.0361,0-0.0546c-0.0181,0-0.0367,0-0.0547,0
		c0-0.0553,0-0.0919,0-0.1284c0.1099,0,0.2384,0,0.3667,0c0,0.1469,0,0.2934,0,0.4399C81.541,28.056,81.5224,28.056,81.5043,28.056
		L81.5043,28.056z"/>
	<path fill="#FFFFFF" stroke="#000000" stroke-width="0.216" stroke-miterlimit="2.6131" d="M1.1172,27.7234
		c0.1312-0.2798,0.2089-0.4444,0.2973-0.6323c1.4585-0.0127,2.8335-0.0713,4.2442-0.0713
		c-0.0509,0.1929-0.2085,0.4652-0.3091,0.6534C4.4253,27.6946,2.1323,27.7234,1.1172,27.7234L1.1172,27.7234z"/>
	<path fill="#FFFFFF" stroke="#000000" stroke-width="0.216" stroke-miterlimit="2.6131" d="M95.4448,27.5805
		c-0.1523-1.6987-0.3921-3.6783-1.0957-5.0854c-0.8755-0.8756-9.3628-0.9127-11.6157,0.3867
		c-0.7881,0.4544-0.0005,3.3155-0.0005,4.2232c-0.3838,0-0.3872-0.0021-0.8252,0.0708c-0.2788-3.0206-0.7631-4.9146,0.6304-5.2852
		c2.7999-0.7458,6.8003-1.2912,12.5952-0.4019c0.9224,0.1416,1.2066,5.0255,1.3902,6.1275
		C96.1953,27.6161,95.6816,27.5805,95.4448,27.5805L95.4448,27.5805z"/>
	<path fill="#FFFFFF" stroke="#000000" stroke-width="0.216" stroke-miterlimit="2.6131" d="M107.6215,27.5062
		c-0.2817-1.5883-0.9819-5.8198-0.312-6.2363c0.6308-0.3911,5.0058-0.4926,7.0014,0.1646c0.6738,0.2217,3.1406,4.4238,3.4527,5.9433
		c-0.3491,0-0.7603,0-1.0635,0c0-0.5937-1.8818-4.9521-2.6963-4.9521c0-0.4629-5.5406-0.7285-5.7223-0.3115
		c-0.5346,1.2265,0.1446,3.577,0.3668,5.392C108.2514,27.5062,107.9848,27.5062,107.6215,27.5062L107.6215,27.5062z"/>
	<path fill="#FFFFFF" stroke="#000000" stroke-width="0.216" stroke-miterlimit="2.6131" d="M1.5321,26.699
		c0.1827-0.6973,0.4575-1.3226,0.5816-1.8295c1.4863,0,2.9038-0.0045,4.4169-0.0045c-0.1967,0.6052-0.4706,1.174-0.6908,1.7789
		C4.2616,26.6439,2.8241,26.699,1.5321,26.699L1.5321,26.699z"/>
	<path fill="#FFFFFF" stroke="#000000" stroke-width="0.216" stroke-miterlimit="2.6131" d="M6.3823,26.4257
		c0.1069-0.3068,0.1952-0.5972,0.2768-0.8459c0.2886,0.1071,0.48,0.1852,0.7387,0.2653c-0.08,0.2236-0.1986,0.5384-0.3203,0.7704
		C6.8012,26.5624,6.6079,26.4789,6.3823,26.4257L6.3823,26.4257z"/>
	<path fill="#FFFFFF" stroke="#000000" stroke-width="0.216" stroke-miterlimit="2.6131" d="M6.7724,25.3049
		c0.1201-0.3569,0.183-0.5679,0.2921-0.7852c0.2182,0.0802,0.4183,0.1582,0.7505,0.2916c-0.0732,0.2203-0.1953,0.4936-0.3169,0.7589
		C7.2421,25.4901,6.9926,25.3987,6.7724,25.3049L6.7724,25.3049z"/>
	<path fill="#FFFFFF" stroke="#000000" stroke-width="0.216" stroke-miterlimit="2.6131" d="M2.2539,24.4984
		c0.0638-0.2599,0.0952-0.4619,0.181-0.6768c1.6573,0.0009,3.1138,0,4.4918,0c-0.0572,0.1767-0.1167,0.4336-0.2291,0.6881
		C5.1807,24.5022,3.7631,24.4872,2.2539,24.4984L2.2539,24.4984z"/>
	<path fill="#FFFFFF" stroke="#000000" stroke-width="0.216" stroke-miterlimit="2.6131" d="M7.1909,24.2465
		c0.0933-0.2456,0.1483-0.3942,0.1889-0.5557c0.3125,0.1069,0.5987,0.2236,0.8286,0.3037c-0.083,0.2206-0.1402,0.3349-0.247,0.5703
		C7.6903,24.4448,7.497,24.3534,7.1909,24.2465L7.1909,24.2465z"/>
	<path fill="#FFFFFF" stroke="#000000" stroke-width="0.216" stroke-miterlimit="2.6131" d="M7.5112,23.3847
		c0.08-0.1821,0.1796-0.401,0.272-0.584c0.2837,0.1069,0.4863,0.183,0.752,0.2768c-0.0669,0.2348-0.1368,0.4116-0.2086,0.6173
		C8.0727,23.601,7.805,23.5178,7.5112,23.3847L7.5112,23.3847z"/>
	<path fill="#FFFFFF" stroke="#000000" stroke-width="0.216" stroke-miterlimit="2.6131" d="M2.4926,23.4709
		c0.0259-0.1844,0.2382-0.5405,0.2382-0.5496c1.6553,0,3.0826-0.0143,4.5757-0.0143c-0.0498,0.1348-0.1411,0.3886-0.2436,0.571
		C5.519,23.478,4.1283,23.4709,2.4926,23.4709L2.4926,23.4709z"/>
	<path fill="#FFFFFF" stroke="#000000" stroke-width="0.216" stroke-miterlimit="2.6131" d="M8.6517,22.8041
		c0-0.0333-0.5044-0.2297-0.7221-0.3235c0.2729-0.5423,0.4014-0.8997,0.6001-1.2972c0.2295,0.0532,0.5068,0.1434,0.7124,0.1969
		C9.1357,21.6712,8.6517,22.7718,8.6517,22.8041L8.6517,22.8041z"/>
	<path fill="#FFFFFF" stroke="#000000" stroke-width="0.216" stroke-miterlimit="2.6131" d="M2.7675,22.6091
		c0.1143-0.3511,0.183-0.5112,0.2383-0.7132c1.6158,0,3.2348-0.0206,4.7686-0.0206c-0.0415,0.1045-0.2294,0.5552-0.3091,0.7017
		C5.7446,22.5888,4.4476,22.6091,2.7675,22.6091L2.7675,22.6091z"/>
	<path fill="#FFFFFF" stroke="#000000" stroke-width="0.216" stroke-miterlimit="2.6131" d="M16.5472,20.913
		c0.0392-0.668,1.861-0.4019,2.8242-0.4019c-0.0463,0.5142,0.0996,0.7061-0.0059,1.1808
		C17.9237,21.6918,16.4828,22.0183,16.5472,20.913L16.5472,20.913z"/>
	<path fill="#FFFFFF" stroke="#000000" stroke-width="0.216" stroke-miterlimit="2.6131" d="M3.1342,21.5085
		c0.2627-0.8196,0.5044-1.6137,0.6425-2.0726c0.2988,0,0.6001,0.0551,1.045,0.0551C3.8968,15.2181,2.5316,9.2547,1.3847,4.7708
		c0-0.2754,0.0332-0.4073,0.1943-0.3741C1.7412,3.9564,1.4286,3.475,1.4286,3.223c0.0918,0,0.1837,0,0.4517,0
		c1.1006,2.9496,4.5694,12.2445,6.0225,16.3964c0.4789,0,1.21-0.0591,1.6064-0.0938c-0.3457-1.0591-0.7476-1.9052-0.9644-2.5474
		c1.3242,0,2.334,0.9743,2.6597,1.4674c0.1465,0.3666,0.3534,0.792,0.2934,1.3573c-0.0762,0.7116-0.6328,1.3399-1.0274,1.3371
		c-0.2387,0-0.851,0.034-1.9995-0.4938c-0.1645,0.2541-0.2442,0.4633-0.4214,0.8623C6.5635,21.5085,4.8383,21.5085,3.1342,21.5085
		L3.1342,21.5085z"/>
	<path fill="#FFFFFF" stroke="#000000" stroke-width="0.216" stroke-miterlimit="2.6131" d="M11.2591,21.1419
		c0.1309-0.1699,0.1934-0.3136,0.3008-0.4756c1.875,0.1069,3.0883,0.1566,4.5865,0.2105c0,0.0916-0.0439,0.2977,0.0634,0.5034
		C14.5688,21.3269,12.6254,21.2488,11.2591,21.1419L11.2591,21.1419z"/>
	<path fill="#FFFFFF" stroke="#000000" stroke-width="0.216" stroke-miterlimit="2.6131" d="M56.1489,20.4794
		c0-0.0181,4.8584-1.8082,5.8955-2.272c6.9814-0.3736,11.5317-0.6279,18.8145-0.896c1.4067,0.0171,6.3203-0.1509,6.6186-0.1509
		c0-0.0194,0.4048-0.311,0.4048-0.7861c5.1636-0.8032,9.44-0.897,14.9278-0.7896c0,0.1788,7.9775,0.7115,9.7631,4.2183
		C93.3681,20.8919,77.1976,20.6971,56.1489,20.4794L56.1489,20.4794z"/>
	<path fill="#FFFFFF" stroke="#000000" stroke-width="0.216" stroke-miterlimit="2.6131" d="M16.2495,20.4843
		c-1.3663-0.023-3.1616-0.0973-4.44-0.2046c0.0367-0.2198,0.0737-0.4399,0.1284-0.6602c2.5039,0.0537,4.5953,0.0546,7.2783,0.0546
		c0.0259,0.2311,0.1075,0.3659,0.1075,0.4971c-0.8623,0-1.6801,0.0054-2.3789,0.0054
		C16.3651,20.1838,16.3383,20.4843,16.2495,20.4843L16.2495,20.4843z"/>
	<path fill="#FFFFFF" stroke="#000000" stroke-width="0.216" stroke-miterlimit="2.6131" d="M37.5765,20.0413
		c0-0.3047-0.3651-0.8712-0.3651-0.9722c-1.4161,0-3.0128-0.0731-4.3287-0.0731c0,0.1753-0.1894,0.2552-0.0722,0.8407
		c-2.7471,0-5.7022-0.1627-8.4009-0.1627c-0.2295-0.6492-0.4273-1.2188-0.6788-1.8886c11.0108,0.5894,19.3267,0.9848,31.7979,1.4672
		l-0.435,1.1876C49.5981,20.2797,43.2797,20.1482,37.5765,20.0413L37.5765,20.0413z"/>
	<path fill="#FFFFFF" stroke="#000000" stroke-width="0.216" stroke-miterlimit="2.6131" d="M55.6254,20.0959
		c0.5445-1.1976,1.3467-2.9712,1.7607-4.0898c4.8403-1.6172,11.977-2.8577,19.539-4.1414
		c-2.292,0.6586-9.1225,2.3461-10.0937,2.5462c-0.1631,1.3566-0.1596,1.8818-0.2578,3.1842
		c-1.3008,0.1069-3.6026,0.1336-4.9873,0.3002C60.516,18.3498,57.4233,19.4882,55.6254,20.0959L55.6254,20.0959z"/>
	<path fill="#FFFFFF" stroke="#000000" stroke-width="0.216" stroke-miterlimit="2.6131" d="M33.1621,19.9101
		c0-0.1509-0.0601-0.3834,0.037-0.5616c1.1412,0.0347,3.5039,0.0874,3.8286,0.0874c0,0.0523,0.1426,0.3842,0.1631,0.5292
		C35.8462,19.9652,34.3139,19.9101,33.1621,19.9101L33.1621,19.9101z"/>
	<path fill="#FFFFFF" stroke="#000000" stroke-width="0.216" stroke-miterlimit="2.6131" d="M113.0317,19.8578
		c-0.4282-2.7511-7.6001-4.5851-9.5737-4.5851c2.5718-0.8051,10.5156,0.8756,12.8388,4.5851
		C115.3442,19.8578,114.1484,19.8578,113.0317,19.8578L113.0317,19.8578z"/>
	<path stroke="#000000" stroke-width="0.216" stroke-miterlimit="2.6131" d="M75.479,19.8562
		c-0.189-0.3773,0.0151-1.4813,0.1607-1.8633c1.4877,0,3.4492,0.0309,4.9404,0.0309c0,0.6811-0.9839,1.5956-1.607,1.5956
		C78.8486,19.8691,75.9696,19.8562,75.479,19.8562L75.479,19.8562z"/>
	<path fill="#FFFFFF" stroke="#000000" stroke-width="0.216" stroke-miterlimit="2.6131" d="M75.9838,19.3075
		c0-0.2569,0-0.4952,0.0181-0.7334c1.3672,0,2.6153-0.1284,3.9253-0.1284c0,0.0703-1.0942,0.807-1.1743,0.807
		C78.7528,19.3977,76.0327,19.3075,75.9838,19.3075L75.9838,19.3075z"/>
	<path fill="#FFFFFF" stroke="#000000" stroke-width="0.216" stroke-miterlimit="2.6131" d="M2.4448,18.141
		c0.019-0.6696,0.1884-1.0938,0.7505-1.0938c0.0904,0.6635,0.2105,1.6104,0.2495,2.3637
		C2.6718,19.4109,2.4335,18.5423,2.4448,18.141L2.4448,18.141z"/>
	<path fill="#FFFFFF" stroke="#000000" stroke-width="0.216" stroke-miterlimit="2.6131" d="M8.123,19.3075
		C6.4936,14.4632,3.9038,7.9272,2.2172,3.2636c0.169-0.113,0.3004-0.0406,0.4951-0.0406
		c1.2773,3.3612,4.3193,11.1288,6.2544,16.0296C8.6733,19.2714,8.3979,19.2894,8.123,19.3075L8.123,19.3075z"/>
	<path fill="#FFFFFF" stroke="#000000" stroke-width="0.216" stroke-miterlimit="2.6131" d="M11.9014,19.2527
		c-0.0806-0.3788-0.1329-0.687-0.2936-0.9907c2.458,0.0539,4.9903,0.0753,7.2955,0.1284c0.0381,0.2754,0.1298,0.4952,0.2382,0.9171
		C16.4726,19.3075,13.665,19.2527,11.9014,19.2527L11.9014,19.2527z"/>
	<path fill="#FFFFFF" stroke="#000000" stroke-width="0.216" stroke-miterlimit="2.6131" d="M33.5434,17.8954
		c0.0142-0.401-0.0421-0.6525,0.0366-1.0268c1.1558-0.1784,2.3784-0.2712,3.939,0.0141c0,0.0185,0.7818,1.0366,0.8286,1.1768
		C36.806,18.0595,35.1117,17.8954,33.5434,17.8954L33.5434,17.8954z"/>
	<path fill="#FFFFFF" stroke="#000000" stroke-width="0.216" stroke-miterlimit="2.6131" d="M9.7929,16.8191
		c0.3759-0.9448,0.837-1.9872,1.2183-2.955c0.5454,0.2841,1.2206,0.6176,1.8637,0.9023c-0.0732,0.1987-0.0718,0.2505-0.1724,0.4155
		c-0.2554,0.4549-1.1836,1.7236-1.7749,2.4281C10.7631,17.3826,10.2216,17.0687,9.7929,16.8191L9.7929,16.8191z"/>
	<polygon stroke="#000000" stroke-width="0.216" stroke-miterlimit="2.6131" points="63.8988,17.2905 64.0419,15.4012 
		66.1655,15.0346 66.0795,17.2351 63.8988,17.2905 	"/>
	<path fill="#FFFFFF" stroke="#000000" stroke-width="0.216" stroke-miterlimit="2.6131" d="M66.9243,17.5232
		c0.1069-1.0127,0.1704-1.6988,0.3271-2.8167c4.4785-1.0036,8.6725-2.0074,12.2354-2.8634
		c5.4238-0.5836,11.2466-0.581,16.6963-0.2032c-4.0864,0.2843-7.5254,0.2065-8.2232,0.5147
		c-0.3565,0.6342-1.5953,2.8003-2.2374,3.7969c-1.27,0.2852-2.9272,0.5238-4.7822,0.7999
		C75.6777,17.1076,72.3368,17.3095,66.9243,17.5232L66.9243,17.5232z"/>
	<polygon stroke="#000000" stroke-width="0.216" stroke-miterlimit="2.6131" points="67.5713,16.9783 67.7489,15.0346 
		69.5419,14.7421 69.4907,16.8114 67.5713,16.9783 	"/>
	<path fill="#FFFFFF" stroke="#000000" stroke-width="0.216" stroke-miterlimit="2.6131" d="M81.6976,16.9949
		c2.3189-0.3809,3.5753-0.6216,4.3512-0.7289c0.6421-0.8848,1.6918-2.8633,2.1914-3.9082c4.4394-0.2501,5.7299-0.329,9.5463-0.5435
		c0-0.0361,2.8916,0.1266,3.5073,0.3403c0.3209,0.3042,1.3257,1.8886,1.7422,2.5678c-0.2436,0-0.4214,0.1284-0.7153,0.1284
		c-0.3921-0.7896-0.875-1.7489-1.3745-2.4574c-3.8965,0-7.8707,0.0902-11.8492,0.312c-0.3653,0.7486-1.2241,2.5416-1.9072,3.9937
		C85.501,16.7708,84.1401,16.9593,81.6976,16.9949L81.6976,16.9949z"/>
	<polygon stroke="#000000" stroke-width="0.216" stroke-miterlimit="2.6131" points="70.1249,16.7514 70.1738,14.5893 
		72.1504,14.2436 72.1317,16.5681 70.1249,16.7514 	"/>
	<polygon stroke="#000000" stroke-width="0.216" stroke-miterlimit="2.6131" points="72.7123,16.5144 72.7661,14.1458 
		74.9311,13.7673 74.9111,16.3134 72.7123,16.5144 	"/>
	<polygon stroke="#000000" stroke-width="0.216" stroke-miterlimit="2.6131" points="75.4589,16.2367 75.5175,13.6091 
		77.8744,13.1898 77.8529,16.014 75.4589,16.2367 	"/>
	<polygon stroke="#000000" stroke-width="0.216" stroke-miterlimit="2.6131" points="78.4389,16.015 78.5029,13.1317 
		81.0902,12.6712 81.0664,15.7703 78.4389,16.015 	"/>
	<path fill="#FFFFFF" stroke="#000000" stroke-width="0.216" stroke-miterlimit="2.6131" d="M88.0674,15.8784
		c0.6592-1.4566,0.8666-1.9884,1.2314-2.8615c4.3799-0.1786,7.7934-0.2548,11.4785-0.2548
		c0.3213,0.5815,1.1406,1.8373,1.3042,2.3271C96.8715,14.9819,92.8739,15.2533,88.0674,15.8784L88.0674,15.8784z"/>
	<path fill="#FFFFFF" stroke="#000000" stroke-width="0.216" stroke-miterlimit="2.6131" d="M11.1127,13.6225
		c0.1046-0.2632,0.1823-0.4577,0.2603-0.6413c0.8291,0.4195,1.3262,0.6752,1.8799,0.9249
		c-0.0455,0.1948-0.1367,0.4102-0.2173,0.6459C12.3134,14.2234,11.6596,13.8827,11.1127,13.6225L11.1127,13.6225z"/>
	<path fill="#FFFFFF" stroke="#000000" stroke-width="0.216" stroke-miterlimit="2.6131" d="M64.1166,13.5067
		c1.5953-1.7177,13.7174-7.7491,23.2569-9.2384c0,0.1153,0.5966,0.2843,0.7334,0.312v0.5684
		c-6.3506,0.5391-18.0498,4.3071-23.3145,8.2266C64.3041,13.739,64.1152,13.7214,64.1166,13.5067L64.1166,13.5067z"/>
	<path fill="#FFFFFF" stroke="#000000" stroke-width="0.216" stroke-miterlimit="2.6131" d="M11.4795,12.76
		c0.1474-0.3553,0.2314-0.5747,0.3334-0.7898c0.6001,0.2714,1.1642,0.5346,1.9043,0.8632c-0.037,0.165-0.2299,0.5658-0.3437,0.8339
		C12.8427,13.4183,11.8901,12.9529,11.4795,12.76L11.4795,12.76z"/>
	<path fill="#FFFFFF" stroke="#000000" stroke-width="0.216" stroke-miterlimit="2.6131" d="M11.9028,11.7669
		c0.0908-0.2222,0.1899-0.4385,0.2725-0.6656c0,0.0185,1.5825,0.7212,1.8736,0.8234c-0.0318,0.1259-0.1852,0.4959-0.2535,0.6762
		C13.0967,12.2835,12.5605,12.0618,11.9028,11.7669L11.9028,11.7669z"/>
	<path fill="#FFFFFF" stroke="#000000" stroke-width="0.216" stroke-miterlimit="2.6131" d="M138.7642,11.8431
		c-9.9836-2.1328-30.1788-5.5029-41.0284-7.6299c1.519,0.0019,3.187,0.2177,5.3159,0.2935c0,0.018,26.6597,4.1562,36.0421,7.043
		C139.0937,11.6425,140.3017,11.8431,138.7642,11.8431L138.7642,11.8431z"/>
	<path fill="#FFFFFF" stroke="#000000" stroke-width="0.216" stroke-miterlimit="2.6131" d="M12.2694,10.9143
		c0.1476-0.3701,0.233-0.5262,0.3223-0.7509c0.6544,0.2496,1.1191,0.3916,1.8775,0.6525c-0.0453,0.1512-0.229,0.6731-0.3207,0.8569
		C13.4535,11.4203,12.8188,11.1751,12.2694,10.9143L12.2694,10.9143z"/>
	<path fill="#FFFFFF" stroke="#000000" stroke-width="0.216" stroke-miterlimit="2.6131" d="M94.4711,11.1093
		c0.2686-1.2263,0.5406-3.209,0.6783-4.6613c0.2675,0,0.7685,0.0762,1.3393,0.0762c-0.1519,1.2115-0.3173,2.9604-0.5869,4.5851
		C95.5595,11.1093,94.9506,11.1093,94.4711,11.1093L94.4711,11.1093z"/>
	<path fill="#FFFFFF" stroke="#000000" stroke-width="0.216" stroke-miterlimit="2.6131" d="M91.3169,10.9994V9.745
		c0.7319,0,1.0137,0.2641,1.7661,0.2641l0.0127,1.0453C92.5879,11.0544,91.7412,10.9994,91.3169,10.9994L91.3169,10.9994z"/>
	<path fill="#FFFFFF" stroke="#000000" stroke-width="0.216" stroke-miterlimit="2.6131" d="M93.3832,11.0554
		c0.0439-0.522,0.0606-1.3392-0.0649-1.4398c-0.0293-0.0197-1.8374-0.2594-1.9478-0.2594
		c-0.0762-0.5215,0.5938-0.3377,1.1441-0.3926c0-0.6293,0.0488-1.2558,0.0488-1.8891c-0.3862-0.0269-0.3154-0.5503,0.0732-0.5503
		c0.0372-0.33,0.0737-0.7406,0.1289-1.0709c0.1704,0,0.3707,0.082,0.5684,0.1481c0.1724,0.3115,0.4171,0.7221,0.2569,1.2347
		c-0.5005,0-0.2569,1.8521-0.0732,2.1274c0.2778,0.0251,0.5796,0.1284,0.8066,0.1284l-0.1284,2.0173
		C93.8842,11.1093,93.5478,10.9823,93.3832,11.0554L93.3832,11.0554z"/>
	
		<path fill-rule="evenodd" clip-rule="evenodd" fill="#FFFFFF" stroke="#000000" stroke-width="0.216" stroke-miterlimit="2.6131" d="
		M89.5761,11.035c-0.0064-2.1422-0.0318-3.9996-0.0401-5.7188c-0.23,0-0.7622,0.0527-1.0259,0.0527
		c-0.0367-0.3853-0.0464-0.6631-0.0645-1.0484c-0.1167,0-0.688,0.0049-0.8716-0.3174c0.6988-0.0194,1.463-0.0269,1.7139-0.0269
		c0.1318,0.5173,0.3067,0.6359,0.4692,1.0807c0.0938,0,0.4527-0.0075,0.6612-0.0075c0-0.1055,0.2886-0.4404,0.8799-1.3315
		c-0.0366,0-0.0551,0-0.0737,0c0-0.0185,0-0.0366,0-0.0551c-0.1098,0-0.2017,0-0.2934,0c0-0.0366,0-0.0553,0-0.0734
		c-0.0547,0-0.0918,0-0.1284,0c-0.0181-0.1284-0.0361-0.2569-0.0546-0.3666c-0.0367,0-0.0552,0-0.0738,0c0-0.0185,0-0.0368,0-0.0553
		c-0.0361,0-0.0732,0-0.0913,0c0-0.018,0-0.0366,0-0.0551c-0.0366,0-0.0732,0-0.1103,0c-0.0381-0.0956,0.0551-0.3637-0.0475-0.3637
		c0-0.0474-0.4379-0.0762-0.5029-0.0762c0-0.2203,0-0.4399,0-0.6607c0.3306,0,0.6786,0,1.0273,0c0,0.6084,0.336,1.2841,0.77,1.2841
		c1.5933,0.109,2.7451,0.0347,2.9454,0.0595c0.5292,0.0274,1.2197-0.4198,1.2734-0.866c0.2466,0,0.9722,0.1483,0.9722,0.3665
		c13.3204,0.3038,30.5107,1.7745,41.1749,4.5851c0,0.0185,0.8369,0.6785-0.1387,0.6785C122.9819,4.389,100.8842,3.663,96.8921,3.663
		c-1.1665-0.0977-0.8286-0.0122-0.3482,1.0273c0.1485,0,0.3823,0.1284,0.6416,0.1284c0,0.3642,0.0278,0.7373,0.0732,1.1002
		c-0.6114,0.3227-1.0991,0.2909-1.8121,0.1835c0-0.3809,0.0205-0.6499,0.0049-1.0453L94.563,4.8733l-0.021-1.1269
		c-0.6988-0.0703-1.9356-0.0284-2.2168-0.0284c0,0.1134-0.1113,0.1158,0,0.3668c0.5039,0,1.2402,0,1.8344,0l-0.0381,0.6054
		l-1.8876,0.1284l-0.1079,1.4391c-0.3213,0-0.1988,0.6265-0.039,0.9453v1.2837c-0.2744,0.0806-0.4209-0.0045-0.7227,0.1835
		c0.0483-0.9141,0.166-2.8003,0.1724-4.035c-0.0732,0-0.521,0.4282-0.5757,0.4282c-0.064,1.9315-0.1127,3.998-0.1943,5.9911
		C90.4574,11.0188,90.0556,11.035,89.5761,11.035L89.5761,11.035z"/>
	<path fill="#FFFFFF" stroke="#000000" stroke-width="0.216" stroke-miterlimit="2.6131" d="M3.9315,19.1019
		C3.2142,15.2777,1.3568,6.392,0.6586,3.2962c0.0396-0.0795,0.5278-0.0839,0.6089-0.0839C1.348,3.5237,1.4512,3.8319,1.5058,4.162
		C1.4179,4.1655,1.1406,4.3661,1.1772,4.5266C1.597,6.348,3.8163,15.6039,4.5449,19.142L3.9315,19.1019L3.9315,19.1019z"/>
	<path fill="#FFFFFF" stroke="#000000" stroke-width="0.216" stroke-miterlimit="2.6131" d="M12.6913,9.91
		c0.1118-0.274,0.19-0.4345,0.2447-0.6183c0.5961,0.2383,1.0009,0.3902,1.8446,0.6621c-0.0634,0.1992-0.1283,0.3991-0.2202,0.6051
		C13.9394,10.3553,13.268,10.1141,12.6913,9.91L12.6913,9.91z"/>
	<path fill="#FFFFFF" stroke="#000000" stroke-width="0.216" stroke-miterlimit="2.6131" d="M14.8471,9.6683
		c-0.4122-0.1481-1.4126-0.4755-1.8086-0.6314c0.2948-0.6293,0.4805-1.0249,0.6049-1.248c0.3486-0.0338,1.4459,0.607,1.5933,0.8398
		C15.1396,8.9716,15.0233,9.1834,14.8471,9.6683L14.8471,9.6683z"/>
	<path fill="#FFFFFF" stroke="#000000" stroke-width="0.216" stroke-miterlimit="2.6131" d="M93.7744,8.6151
		c-0.1178-0.5688-0.19-0.9171,0.0181-1.3575c0.3657-0.3105,0.1328-1.976-0.7188-2.1274c1.0186-0.161,1.3594-0.1109,2.0122,0.1315
		c0,0.0546,0.0274,0.2173,0.0274,0.2904c-0.6929,0-0.6251,2.5401-0.6973,3.1181C94.1499,8.6701,93.9682,8.6151,93.7744,8.6151
		L93.7744,8.6151z"/>
	<path fill="#FFFFFF" stroke="#000000" stroke-width="0.216" stroke-miterlimit="2.6131" d="M90.079,4.6879
		c-0.1611-0.1861-0.3764-0.3668-0.457-0.6286c0.2247,0,0.7827-0.1357,1.0727-0.1357C90.6947,4.0052,90.3467,4.6879,90.079,4.6879
		L90.079,4.6879z"/>
	
		<path fill-rule="evenodd" clip-rule="evenodd" fill="#FFFFFF" stroke="#000000" stroke-width="0.216" stroke-miterlimit="2.6131" d="
		M85.9853,2.2802c-0.0683,0,1.7534,0.0923,2.8418,0.0923c0-0.1695,0.2236-0.4273,0.2236-0.5529
		c0.0953,0,0.2197,0.0063,0.5318,0.0063c0,0.7099-0.0811,1.2867,0.5664,1.2867c0.084,0.338,0.1587,0.3052,0.1587,0.5503
		C88.8877,3.9587,85.3135,3.554,85.9853,2.2802L85.9853,2.2802z"/>
	<path fill="#FFFFFF" stroke="#000000" stroke-width="0.216" stroke-miterlimit="2.6131" d="M11.454,2.8534
		c0.2856,0.2489-1.7842-0.2618-0.5249-0.5475c5.3613-1.0889,59.8765-1.4252,74.5063-0.0316c0,0.3476,0.1387,0.5531,0.2852,0.8189
		C61.6586,2.0209,30.4774,2.3172,11.454,2.8534L11.454,2.8534z"/>
	<path fill="#FFFFFF" stroke="#000000" stroke-width="0.216" stroke-miterlimit="2.6131" d="M91.1664,1.7952
		c0.5523-0.1343,1.6397-0.1055,2.4639,0.083c0,0.1959-1.6254-0.3872-1.3838,1.1318C91.2373,2.9833,91.1664,2.1557,91.1664,1.7952
		L91.1664,1.7952z"/>
	<path fill="#FFFFFF" stroke="#000000" stroke-width="0.216" stroke-miterlimit="2.6131" d="M96.7269,2.2509
		c0-0.2056-1.0254-0.0553-1.247-0.0553c-1.7661-1.2152-5.1251-0.7847-6.2911-0.6234C89.1352,0.0451,96.7592,0.3705,96.7269,2.2509
		L96.7269,2.2509z"/>
	<path fill="#FFFFFF" stroke="#000000" stroke-width="0.216" stroke-miterlimit="2.6131" d="M93.8026,2.8237
		c0.7247,0,1.3159-0.1509,1.3159-0.3356c0-0.1849-0.5912-0.3358-1.3159-0.3358c-0.725,0-1.3164,0.1509-1.3164,0.3358
		C92.4863,2.6727,93.0776,2.8237,93.8026,2.8237L93.8026,2.8237z"/>
	<path fill="#FFFFFF" stroke="#000000" stroke-width="0.216" stroke-miterlimit="2.6131" d="M80.3939,29.4651
		c0.1846,0,0.335-0.1502,0.335-0.3349c0-0.1845-0.1505-0.3349-0.335-0.3349s-0.3349,0.1505-0.3349,0.3349
		C80.059,29.3148,80.2094,29.4651,80.3939,29.4651L80.3939,29.4651z"/>
	<path fill="#FFFFFF" stroke="#000000" stroke-width="0.216" stroke-miterlimit="2.6131" d="M55.5337,26.699
		c0-0.018-1.3145-1.3179-1.4869-1.3179c0-0.0204-25.6997-2.5052-29.6737-2.827c0.2495-0.4903,0.2426-0.7589,0.3516-1.3219
		c-0.024-0.4638-0.1329-1.0069-0.1329-1.1585c10.8941,0.2674,20.9425,0.6689,31.4923,0.8294c0-0.0366,0-0.0546,0-0.0731
		c10.247,0.2679,18.517,0.312,27.1044,0.312c-0.5913,0.2025-1.3921,0.4151-1.6601,0.754c-0.7447,0.7505-0.1426,4.0106-0.0791,5.243
		C73.1499,26.9784,64.1152,26.8597,55.5337,26.699L55.5337,26.699z"/>
	<path fill-rule="evenodd" clip-rule="evenodd" fill="#FFFFFF" d="M80.4096,27.8739c0.686,0,1.2456,0.5653,1.2456,1.2588
		c0,0.6933-0.5596,1.2593-1.2456,1.2593s-1.2456-0.566-1.2456-1.2593C79.164,28.4392,79.7236,27.8739,80.4096,27.8739
		L80.4096,27.8739L80.4096,27.8739z M80.3964,28.3288c-0.4429,0-0.8037,0.3672-0.8037,0.8175c0,0.4497,0.3608,0.8168,0.8037,0.8168
		c0.4424,0,0.8038-0.367,0.8038-0.8168C81.2002,28.6961,80.8388,28.3288,80.3964,28.3288L80.3964,28.3288z"/>
	<path fill="none" stroke="#000000" stroke-width="0.216" stroke-miterlimit="2.6131" d="M80.4096,27.8739
		c0.686,0,1.2456,0.5653,1.2456,1.2588c0,0.6933-0.5596,1.2593-1.2456,1.2593s-1.2456-0.566-1.2456-1.2593
		C79.164,28.4392,79.7236,27.8739,80.4096,27.8739L80.4096,27.8739L80.4096,27.8739z M80.3964,28.3288
		c-0.4429,0-0.8037,0.3672-0.8037,0.8175c0,0.4497,0.3608,0.8168,0.8037,0.8168c0.4424,0,0.8038-0.367,0.8038-0.8168
		C81.2002,28.6961,80.8388,28.3288,80.3964,28.3288L80.3964,28.3288z"/>
</g>
</svg>
