<?xml version="1.0" encoding="utf-8"?>
<!-- Generator: Adobe Illustrator 21.1.0, SVG Export Plug-In . SVG Version: 6.00 Build 0)  -->
<svg version="1.1" id="Ec" xmlns="http://www.w3.org/2000/svg" xmlns:xlink="http://www.w3.org/1999/xlink" x="0px" y="0px"
	 viewBox="0 0 137.2326 44.2016" enable-background="new 0 0 137.2326 44.2016" xml:space="preserve">
<g>
	<path fill="none" stroke="#231F20" stroke-width="0.2345" d="M89.424,41.5c-1.1396,0-12.7685,1.4438-14.6689,1.4438
		s-10.9453,0.6841-10.9453,0.6841s-5.397,0.4565-5.7769,0.4565c-0.3804,0-3.5727,0-4.1807-0.3803
		c-0.6074-0.3794-0.9121-1.1402-0.9121-1.1402l-3.4199-0.9121l-0.3804-0.6079l-0.5322-0.4565l-0.0762-0.3794l-5.7763-2.4322
		l-0.7598,0.0757c0,0-23.2583-0.2275-25.0068-0.2275c-1.7481,0-3.2681-0.4561-3.4961-0.5323
		c-0.2276-0.0756-0.8364-1.7485-0.9121-2.2041c-0.0757-0.4565-0.4566-1.1406-0.4566-1.1406l1.1411-0.9121L8.3239,20.9018
		l-0.9121-0.4556l-0.3042-1.1401l1.3682-1.0644l1.6723-2.356l1.292-0.3037l0.3037,0.9873c0,0,1.4444-0.0757,1.9009,0.2285
		c0.4556,0.3037,1.292,0.9121,1.5196,1.6719c0.2285,0.7602,0.0761,1.0639-0.0757,1.4443c-0.1519,0.3799-0.1519,0.6079-0.1519,0.6079
		l5.2442,7.9053c0,0,1.1401,1.1396,1.8242,1.3677c0.6841,0.228,2.1284,0.1523,2.1284,0.1523l15.8853-3.3447l0.6084-0.6074
		l2.7358-0.4566c0,0-0.5322,0.3804-0.6831,0.9883c-0.1524,0.6074-0.1524,1.1397-0.1524,1.1397l10.9449-2.2798
		c0,0,16.3423-2.4326,18.0141-2.5088c1.6719-0.0762,10.6407-1.2158,10.6407-1.2158l12.6933-0.1524c0,0,1.9004,0.5322,2.4326,1.065
		c0.5323,0.5317,1.0645,0.9116,1.0645,0.9116l4.332,6.4609c0,0,4.1797,1.9756,5.168,2.4321
		c0.9883,0.4556,2.3554,1.4444,2.3554,1.9761c0,0.5322-1.5947,3.0405-3.1152,3.876c-1.5195,0.8369-3.1162,1.5967-5.7002,1.9766
		C98.7727,40.5874,90.5647,41.5,89.424,41.5z"/>
	<path fill="none" stroke="#231F20" stroke-width="0.2345" d="M60.3889,14.7451c1.2163-0.0757,10.4892-0.6836,11.7822-0.5318
		c1.291,0.1519,2.2031,0.4561,3.4209,0.5318c1.2148,0.0766,2.0508-0.2276,2.0508-0.2276s4.331,1.1397,5.4726,1.5205
		c1.1407,0.3799,6.7647,3.2681,7.753,3.8003c0.9882,0.5318,3.6484,1.5957,3.6484,1.5957l-10.1855,0.2281
		c0,0-3.4961,0.0761-4.8643,0.1523c-1.3682,0.0757-20.6738,2.6602-20.6738,2.6602l-6.461,1.1401l-9.8047,2.0518
		c0,0,0-1.2159,0.1524-1.5201c0.1509-0.3042,0.6831-0.6079,0.6831-0.6079s4.105-4.4082,7.5249-6.6889
		c3.4204-2.2803,6.0049-3.2676,7.0688-3.5728C59.0217,14.9736,60.3889,14.7451,60.3889,14.7451z"/>
	<path fill="none" stroke="#231F20" stroke-width="0.2345" d="M69.3576,11.5527l5.9287,0.1523c0,0,0.2285,0.6079,0.3057,0.9121
		c0.0732,0.3042,1.6709,2.0523,1.6709,2.0523s-1.5195,0-2.5078-0.0762c-0.9883-0.0757-2.1289-0.3037-2.584-0.3799
		c-0.457-0.0757-1.4453-0.0757-1.4453-0.0757L60.009,14.7451c0,0,2.6601-2.128,3.7246-2.4322
		C64.7971,12.0092,69.3576,11.5527,69.3576,11.5527z"/>
	<path fill="none" stroke="#231F20" stroke-width="0.2345" d="M19.8767,39.372l-0.9878-0.0761c0,0-3.6485-1.0645-4.0284-1.0645
		c-0.3798,0-0.7602-0.9883-0.7602-0.9883l1.4438,0.3047l7.3731,0.3037c0,0-1.1401,0.2285-1.5962,0.4566
		C20.8649,38.5361,19.8767,39.372,19.8767,39.372z"/>
	<path fill="none" stroke="#231F20" stroke-width="0.2345" d="M12.8083,20.9018c-0.4565,0.3042-1.5962,0.4561-2.356,0.4561
		c-0.7602,0-2.1284-0.4561-2.1284-0.4561l-0.9121-0.4556l-0.3042-1.1401c0,0,2.2803-1.7485,3.0405-2.0527
		c0.7598-0.3033,1.6719-0.6841,2.2803-0.3033c0.6079,0.3794,1.292,0.6836,1.4439,1.0635c0.1518,0.3809,0.228,0.9883-0.2276,1.5196
		C13.1882,20.0659,12.8083,20.9018,12.8083,20.9018z"/>
	<path fill="#FFFFFF" stroke="#231F20" stroke-width="0.2345" d="M10.072,18.3945c0,0,1.3681-0.4566,1.9004-0.4566
		c0.5322,0,1.5957,0.0757,1.5957,0.6075c0,0.5322-0.9878,1.0644-0.9878,1.0644s-3.2691,1.2158-3.7246,1.292
		c-0.4561,0.0757-0.9883,0-1.2915,0c-0.3047,0-0.6084-0.1518-0.6084-0.1518L10.072,18.3945z"/>
	<path fill="#FFFFFF" stroke="#231F20" stroke-width="0.2345" d="M12.5046,33.8237L1.7868,33.4433l-1.7475-0.1518l4.4838-1.5962
		l9.7295,0.3037c0,0,0.9117,0.3042,0.4561,0.7607C14.2526,33.2153,12.5046,33.8237,12.5046,33.8237z"/>
	<path fill="none" stroke="#231F20" stroke-width="0.2345" d="M55.0686,18.9257c0.6084,0,1.8242,0,2.3564,0.0762
		c0.5317,0.0757,1.6719,1.292,1.6719,1.9756c0,0.6846-0.6079,1.8242-0.836,2.0522c-0.228,0.229-0.228,0.837-0.228,0.837
		l-1.8247,0.4555L55.6008,23.79c0,0-0.5322-0.1519-0.8369-0.1519c-0.3037,0-0.3037,0-0.3037,0l-0.3799-4.0283L55.0686,18.9257z"/>
	<path fill="none" stroke="#231F20" stroke-width="0.2345" d="M87.4484,36.7871l-6.1572,0.7607l-0.9883-0.6841l-0.7597-4.104
		l-0.0762-7.9814c0,0,0.1514-1.2163,1.1406-1.2163c0.9873,0,5.3965-0.4556,5.3965-0.4556l2.9639,8.9687
		c0,0-0.3799,0.4561-0.4561,0.9117C88.4357,33.4433,87.4484,36.7871,87.4484,36.7871z"/>
	<path fill="none" stroke="#231F20" stroke-width="0.2345" d="M70.1184,38.9155L53.32,40.4365c0,0-0.6841-4.8643-0.3799-8.209
		c0.3047-3.3442,0.5323-6.8408,0.5323-6.8408l6.9165-0.3042l9.1972-0.9883c0,0,0.6846,0.1518,0.6075,1.1401
		c-0.0752,0.9878-0.6846,7.3726-0.6846,9.0449C69.509,35.9521,70.1184,38.9155,70.1184,38.9155z"/>
	<path fill="none" stroke="#231F20" stroke-width="0.2345" d="M45.8713,28.3505l3.3442-0.684c0,0,0.6846,0.2285,0.6084,0.9116
		c-0.0757,0.6845-0.3799,4.333-0.3799,4.9414c0,0.6079-0.2285,1.292-0.9126,1.4438c-0.684,0.1519-2.7363,0.3042-3.1157,0.3799
		c-0.3803,0.0762-0.8359-0.4556-0.8359-1.1396c0-0.6841,0.5312-3.9522,0.5312-4.7124
		C45.111,28.7304,45.8713,28.3505,45.8713,28.3505z"/>
	<path fill="none" stroke="#231F20" stroke-width="0.2345" d="M59.781,39.6757c0,0-0.4561-2.4321-0.4561-4.7124
		c0-2.2802,0.4561-7.6006,0.4561-8.2085c0-0.6084,0.6079-1.6723,0.6079-1.6723"/>
	<path fill="#231F20" d="M69.3576,11.5527l-0.1513-0.4556h0.5322l0.2285-0.3799l0.6064-0.228l-0.2265-0.456l-0.9121-0.1524
		l-0.1514-0.3042l-0.458-0.3037H67.383l-2.3579-0.228l-1.1396,0.228l-0.3804-0.0762l-0.0762-0.6084V8.2851l0.9883-0.3804
		l0.6841-0.228l1.3676-0.456l0.7618,0.1518l1.747,0.228l2.2051-0.0756l3.2676-0.1524c0,0,0.1523-0.0757,0.8359-0.1518
		c0.6836-0.0762,2.1289,0.1518,2.1289,0.1518s-0.6855,0.4566-0.6855,0.6841c0,0.2285,0.6855,0.3799,0.9131,0.456
		c0.2285,0.0757,0.2285,0.0757,0.2285,0.0757l-3.6484,0.3042l-1.5957-0.0757l0.3789,0.5318L72.9299,9.957l-0.6836,0.0762
		l-0.5322-0.1524v0.5322l0.6845,0.5318l0.5313,0.3047l0.2285,0.4555L69.3576,11.5527z"/>
	<path fill="#231F20" d="M55.2204,33.5952l-0.9878-2.584c0,0,0.0757-2.7363,0.0757-3.1162s0.7603-0.9883,1.3687-0.9883
		c0.6079,0,1.748-0.1519,2.0522-0.1519c0.3037,0,0.9873,0.2281,0.9873,0.836s-0.3037,4.1045-0.3794,4.4843
		c-0.0762,0.3799-0.3804,1.5201-0.9883,1.5201C56.7404,33.5952,55.2204,33.5952,55.2204,33.5952z"/>
	<path fill="#231F20" d="M60.2375,32.2275c0,0,0.2275-3.877,0.3794-4.4849c0.1523-0.6084,0.3799-1.5962,1.9004-1.6718
		c1.5205-0.0757,4.7876-0.5323,4.7876-0.5323s1.4453,0.0762,1.293,0.9121c-0.1514,0.836-0.3799,4.0284-0.3799,4.7124
		c0,0.6846-0.4551,1.5967-1.1397,1.6719c-0.685,0.0762-4.9414,0.4566-5.6255,0.5318
		C60.7692,33.4433,60.2375,32.2275,60.2375,32.2275z"/>
	<path fill="#231F20" d="M72.4738,32.5312c0,0-0.7597-0.1519-0.8349-0.4561c-0.0772-0.3037-0.0772-0.8364-0.0772-0.8364
		s0.3799-4.4077,0.3799-5.0166c0-0.6074,0.7617-1.1396,1.1406-1.1396c0.3799,0,2.6612-0.2281,3.42-0.3042
		c0.7607-0.0757,0.9882,0.228,0.913,0.6084c-0.0761,0.3794,0.1514,4.7881,0.0752,5.3203c-0.0752,0.5317-0.3037,1.4443-0.9882,1.5962
		C75.8186,32.455,72.4738,32.5312,72.4738,32.5312z"/>
	<path fill="#231F20" d="M81.7473,32.3032c0,0-0.9121-0.4556-0.9873-0.6846c-0.0772-0.227-0.1524-3.4199-0.1524-4.6357
		c0-1.2168,0.2276-2.2803,0.6836-2.3565c0.4561-0.0757,0.9873-0.2285,0.9873-0.2285s0.6856,0.1528,0.6856,0.9126
		c0,0.7603-0.0772,3.1924-0.0772,3.1924l0.9121,2.8125l-0.3027,0.9878H81.7473z"/>
	<path fill="#231F20" d="M85.2434,32.2275c0,0-0.836-0.3799-0.9873-0.6846c-0.1524-0.3042-0.9883-2.8882-0.9883-2.8882
		l0.0752-3.4961c0,0,0.3047-0.9126,0.8369-0.9126c0.5312,0,1.2148-0.1518,1.2148-0.1518s0.7608,0.9883,0.8369,1.4443
		c0.0762,0.4566,1.5967,5.3965,1.5967,5.3965s-0.3047,1.064-0.8369,1.1401C86.4592,32.1513,85.2434,32.2275,85.2434,32.2275z"/>
	<path fill="#231F20" d="M84.4074,35.7236l-0.6836-1.7481l2.4317-0.1518c0,0,0.6845,0.2275,0.6074,0.6074
		c-0.0752,0.3804-0.3037,0.9121-0.3037,0.9121L84.4074,35.7236z"/>
	<path fill="#231F20" d="M92.9201,38.3081c0,0-1.3681-1.5205-1.6719-2.2046c-0.3046-0.6841-1.1396-1.9761,0-1.8999
		c1.1407,0.0756,5.168,0.3798,5.7764,0.3798c0.6084,0,0.7608,0.5323,0.5322,1.3687c-0.2285,0.835-0.456,1.6719-0.9121,1.8237
		C96.1887,37.9277,92.9201,38.3081,92.9201,38.3081z"/>
	<path fill="#231F20" d="M89.2727,31.8476l-2.3565-7.6767l0.9121-1.0645l5.0156,0.3799l1.5958,0.5322l5.2451,5.0161l-0.0752,0.6846
		c0,0-3.1172,0.6079-5.3213,1.064C92.0842,31.2387,89.2727,31.8476,89.2727,31.8476z"/>
	<polygon fill="#231F20" points="95.3527,24.246 95.5041,23.4106 98.3176,23.4863 102.6496,29.9472 100.5969,29.415 	"/>
	<path fill="#231F20" d="M80.6076,23.1826c0,0-0.0762-1.0645,1.5967-1.2163c1.6709-0.1519,6.6875-0.0762,7.4473-0.0762
		c0.7607,0,1.5966,0.1518,1.9765,0.456c0.3799,0.3042,0.5323,0.6836,0.5323,0.6836l-6.1563,0.0767l-5.3965,0.4556V23.1826z"/>
	<path fill="#231F20" d="M94.8967,22.7265l-0.457-0.6846l1.2167-0.2275c0,0,1.0645,0.2275,1.292,0.4556
		c0.2276,0.2285,0.6084,0.5317,0.6084,0.5317L94.8967,22.7265z"/>
	<polygon fill="#231F20" points="88.4357,20.3701 85.548,18.4697 87.2199,18.4697 90.7922,20.6738 	"/>
	<polygon fill="#231F20" points="63.9611,8.7412 59.0217,8.4365 55.9045,8.8168 3.3835,8.0566 7.1838,7.6767 63.8855,8.2851 	"/>
	<polygon fill="#231F20" points="64.4172,7.9047 27.2497,4.1044 32.4475,3.8002 65.5573,7.6005 	"/>
	<polygon fill="#231F20" points="76.1232,7.1445 86.5363,5.3969 112.3029,0.3037 118.9152,0 82.9641,7.3725 78.9348,7.2968 
		76.5022,7.7524 	"/>
	<polygon fill="#231F20" points="76.7297,8.0566 86.384,7.3725 135.4084,1.9765 137.2326,2.1284 85.0158,8.2851 81.9738,8.1323 
		77.0344,8.5126 	"/>
	<line fill="none" stroke="#231F20" stroke-width="0.2345" x1="67.9143" y1="11.477" x2="67.6857" y2="9.121"/>
	<line fill="none" stroke="#231F20" stroke-width="0.2345" x1="69.0539" y1="11.5527" x2="68.8254" y2="9.2729"/>
	<line fill="none" stroke="#231F20" stroke-width="0.2345" x1="73.1584" y1="11.705" x2="73.0822" y2="9.6533"/>
	<line fill="none" stroke="#231F20" stroke-width="0.2345" x1="74.298" y1="11.6293" x2="74.6779" y2="8.7412"/>
	<path fill="none" stroke="#231F20" stroke-width="0.1172" d="M67.2307,7.3725c0,0,1.1386-1.3682,3.8759-1.4438
		c2.7354-0.0762,3.3438,1.4438,3.3438,1.4438s-2.584,0.228-3.7246,0.228C69.5861,7.6005,67.2307,7.3725,67.2307,7.3725z"/>
</g>
</svg>
