<?xml version="1.0" encoding="utf-8"?>
<!-- Generator: Adobe Illustrator 21.1.0, SVG Export Plug-In . SVG Version: 6.00 Build 0)  -->
<svg version="1.1" id="EXE" xmlns="http://www.w3.org/2000/svg" xmlns:xlink="http://www.w3.org/1999/xlink" x="0px" y="0px"
	 viewBox="0 0 214.5908 66.2522" enable-background="new 0 0 214.5908 66.2522" xml:space="preserve">
<g>
	<path fill-rule="evenodd" clip-rule="evenodd" d="M109.4895,66.2522c-1.3068-0.5213-4.6877-2.1541-5.3224-2.4644
		c0-0.3597,0.1361-0.5244,0.2954-0.8433c1.3779-0.1633,3.9736,1.0057,5.7858,1.7518c0.9935,0.0669,2.4721,0.1021,3.3106-0.0261
		c-0.1194-1.5435,3.5025-9.5593,3.7959-10.3994c-3.4594,0.0297-5.7546-0.0785-8.6241-0.0785
		c-0.3617-0.0958-3.5941-1.4522-5.2175-2.3335c-0.1106-0.4476,0.1208-0.6775,0.8113-0.472
		c1.3249,0.4782,2.6096,1.0134,3.9325,1.4944c1.2793,0.0825,2.5568,0.1851,3.8404,0.1851c0.5735-0.8821,2.1282-3.8741,2.6314-4.9059
		c-9.5703-3.7874-17.2057-7.3672-26.1613-12.1896c-12.2678-1.8326-31.1604-4.771-42.8919-6.4885
		c-0.2333,0.4663-0.1516,0.3146-0.7081,0.5372c-1.5199,0-2.7059-0.2055-4.1947-0.341c-0.6327-0.2528-1.5208-0.786-1.8351-1.4156
		c-5.8176-0.8932-18.1979-2.7176-23.7271-3.4608c-0.4714,1.0018-2.0843,3.7859-2.9889,5.2175
		c-0.699-0.1236-1.3088-0.2622-2.0188-0.2622c-1.9304,1.9253-4.6984,4.424-6.9591,6.3456
		c-1.1117-0.1982-2.2204-0.6078-3.1085-0.9187c-0.3484-0.3484,0.049-0.5244,0.3671-0.5244
		c0.8479,0.1698,1.7994,0.6032,2.6218,0.6032c1.6293-1.4972,3.9625-3.7646,6.0301-5.7155c-0.7636-0.0587-2.1138-0.2891-2.717-0.7761
		c1.2223-2.183,1.7246-3.0461,2.717-5.1752c-1.9449-0.1389-5.4456-0.6679-7.0789-1.7566c-0.6738-0.8986-1.135-1.162-0.6554-2.2811
		c0.9961-1.743,2.3102-1.9808,4.2786-2.243C5.7247,17.2891,0.8106,5.4307,0.4772,4.4309c0-0.7361-0.4034-0.8436,0.3495-0.9689
		c1.6078,0,3.9515-0.1871,5.5466,0.4173c3.2545,4.8818,6.6883,10.2818,9.5023,15.0112c3.3021,0.3203,23.2693,2.211,25.6975,2.4247
		c-0.6605-1.4624-2.8392-4.3087-2.2686-5.165c1.2101-0.6914,3.6048-0.4763,4.8767-0.0524c1.7215,1.7217,2.3043,4.428,3.9325,6.0565
		c14.3263,1.1937,30.8704,2.8205,45.3566,4.2732c1.5829-0.6593,3.2128-1.2157,4.7727-1.7175
		c3.2505-3.14,4.9045-4.9745,8.2576-7.6419c2.9985-1.4956,5.7722-3.2715,8.9662-4.4048c-0.4456-0.5726-0.8305-1.1849-0.659-1.7909
		c0.4249-1.0267,4.1202-1.8813,7.4333-2.3131c0.0992-1.2886,0.0788-2.8352,0.0788-4.1283c-1.3311-0.0927-1.775-0.5587-2.1161-0.7946
		C87.7355,4.091,58.0605,4.7801,26.4054,5.3484c-1.1639-0.582-1.8451-1.463-1.1273-2.7791C57.26,2.577,88.8,2.4803,119.6355,2.2811
		c0.7256-1.3113,1.843-1.2906,3.4869-1.2906c1.3601,0.0374,2.5033,0.1783,3.0677,0.9235c22.0011-0.2274,61.8803-1.1843,87.2-1.914
		c0.4768,0.5298,1.7095,1.9611,0.97,2.7006c-29.0959,0.1944-59.453,0.3053-87.9182,0.5947
		c-0.4595,0.6216-0.8737,1.0239-2.0688,1.0871c0.0085,1.3031-0.0142,2.8199,0.0604,4.1185
		c1.7765,0.1868,4.1935,0.4728,5.4008,1.8817c0.0998,0.4995,0.0023,0.6568,0.3931,0.9176c3.604,1.0295,8.2029,6.5123,10.6708,7.1915
		c7.2051,0.0255,16.3233,4.1533,21.8917,8.4603c4.3946,3.5728,7.3698,6.6983,8.4421,12.0603c0,4.1349-3.0861,7.0294-6.0301,9.4382
		c-1.8,1.3071-3.4282,1.7983-5.7416,2.5693c-1.063,1.063-2.289,2.3448-3.5918,2.9381c-0.8314,0.1037-1.4278,0.3404-2.3598,0.4439
		c-0.5114,1.2506-4.004,8.7378-2.8837,9.858c2.2691,0.0833,4.2888,0.1236,6.3474,0.1236c3.4503-1.6518,7.4355-3.4575,10.6415-4.8691
		c0.5873,0,0.9964,0.059,0.9964,0.7603c-3.3755,1.8521-7.3942,3.9821-10.9854,5.7432
		C141.5646,66.1011,125.5917,66.1969,109.4895,66.2522L109.4895,66.2522z M114.3909,65.0616c0-4.4688,5.819-13.6145,4.8515-15.6413
		c0-0.8206,1.2881-0.6553,1.8875-0.6553c0.6458,0.1173,2.5693,0.4345,2.5693,1.2585c-2.8853,3.6873-6.8723,12.1555-4.2775,14.8995
		C118.8679,65.2,114.7129,65.3837,114.3909,65.0616L114.3909,65.0616z M145.2253,65.1773c0-3.568,4.7441-8.4923,4.7441-12.6108
		c-0.476-0.7934-1.1256-0.8696-1.1256-1.8629c0.2917-0.582,3.1861-0.4896,4.403-0.2869c0.7801,0.39,0.7339,0.6148,0.7339,1.442
		c-2.3454,5.1146-4.5654,10.514-4.4044,13.2939C148.1696,65.1833,146.8396,65.1935,145.2253,65.1773L145.2253,65.1773z
		 M119.9433,64.5854c-2.3045-2.7833,0.8379-8.2675,1.7702-10.3147c9.0255-0.0828,17.7599-0.0595,27.1866,0.0524
		c-0.1931,2.2465-3.9424,7.8585-4.2511,10.012C136.8149,64.5364,127.515,64.5854,119.9433,64.5854L119.9433,64.5854z
		 M144.9356,53.5629c-0.3932-0.0264-0.7866-0.0524-1.1798-0.1049c-0.0524-0.2097-0.1049-0.4195-0.1834-0.6293
		c0-0.1834,0-0.3932-0.0264-0.6029c0.1049,0,0.2097-0.0264,0.341-0.0525c1.2059,0,2.4381,0,3.6703,0
		c0,0.4195,0,0.8388,0.0264,1.2846c-0.4195,0.0261-0.839,0.0525-1.2585,0.1049C145.8795,53.5629,145.4075,53.5629,144.9356,53.5629
		L144.9356,53.5629z M122.3996,53.3835c0-0.6732,1.1562-2.6314,1.6931-2.9667c4.5125,1.1925,12.4521,1.5829,18.5621,1.8091
		c0,0.1573,0.0261,1.0896,0.0525,1.273C139.751,53.6145,125.2087,53.7846,122.3996,53.3835L122.3996,53.3835z M113.5529,52.9336
		c0-1.3986,1.2147-3.1686,1.8879-4.4308c1.1064,0,3.1723,0.1891,3.1723,1.5208c-0.1199,0.2305-1.2127,2.6286-1.5205,2.9364
		C116.3264,53.2151,114.3806,53.2095,113.5529,52.9336L113.5529,52.9336z M153.7791,53.5391
		c0.2211-0.5219,0.7835-1.4962,0.966-1.8947c0.3754-0.068,1.8862-0.3433,3.1655-0.3529c-0.4666,0.4666-1.4712,1.5398-2.3235,1.9503
		C155.1752,53.3789,154.3529,53.4804,153.7791,53.5391L153.7791,53.5391z M148.2969,53.5297
		c-0.013-0.0053-0.1312-1.3167-0.0079-1.4397c0.1313,0,0.3433,0.0833,0.5006,0.0833c0.5329,0.2846,0.6072,1.0942,0.3727,1.3286
		C149.0574,53.502,148.4281,53.5297,148.2969,53.5297L148.2969,53.5297z M124.8006,49.9711
		c-0.9409-0.7605-1.3275-1.3428-3.4084-1.914c-0.6826,0-2.0472,0.1228-2.685,0.396c-6.0843-1.1222-25.1733-9.8064-29.0908-12.7446
		c-12.2275-1.9746-30.6428-4.6389-43.8474-6.7873c-0.6021-0.2778-1.1296-1.3929-1.2614-2.0531
		c13.5425,2.0475,30.9399,5.0493,45.1089,7.4509c2.0837,0.2441,23.47,1.3938,28.8394,1.7042c0-1.3362-0.4402-4.7072-0.9961-5.8192
		c-10.4944-0.2665-19.1024-0.5049-27.8433-1.2334c-15.7153-1.7461-31.3336-3.1992-47.0083-5.2435
		c-1.061-0.1982-1.8425-0.362-2.8712-0.5905c-1.1271-0.1321-1.9191,0.0252-2.8179,0.2234
		c-5.1919-0.6304-10.2305-1.2722-14.8918-1.8351c-0.9286,0-2.8485,0.8662-3.0691,1.813c4.8991,0.8408,15.7768,2.3842,18.3016,2.7488
		c0.1695,0.1695,0.8889,0.9465,0.7078,1.1273c-11.4772-1.5108-23.1378-3.4413-33.9905-5.3221
		c-1.0352-0.3881-2.6441-0.8478-1.9539-2.2286c0.8881-1.11,1.1392-1.0256,2.4908-1.3632c3.0515,0,5.9508,0.5474,9.019,0.9437
		c-2.7076-4.1145-5.8413-9.3382-8.4946-13.1088C4.012,5.8785,2.8592,5.9565,1.8007,5.8088C1.4294,5.2495,1.185,4.5596,0.8432,3.9065
		c1.2603,0.072,3.8441,0.0589,5.165,0.3671c3.1235,4.7276,6.6424,10.1523,9.4382,15.1277
		c27.5474,2.8434,52.2635,4.9714,77.919,7.5875c1.2665-0.633,3.5586-1.3709,5.0077-1.7935c2.0551-1.59,5.1472-5.2673,7.2621-6.633
		c2.8505-2.5861,7.5263-4.3056,10.5919-5.5318c0.0525-0.0525,0.1049-0.131,0.1837-0.2098c-0.3571-0.714-1.1713-0.6112-0.9964-1.8351
		c0.1879-0.9505,5.8107-1.9032,6.8952-2.0188c0,0.2097,0,0.4195,0,0.6293c-0.8739,0.2183-2.7119,0.2321-3.1986,1.2058
		c0.1117,1.4746,3.441,1.319,4.6261,1.319c0.887-0.0737,4.9433-0.0227,4.9433-1.1353c-0.3651-1.0967-3.2247-1.2334-4.1947-1.3895
		c0-0.2098,0-0.4196-0.0264-0.6293c1.724,0.0862,3.6414,0.4427,4.9028,1.7042c0.1706,0.5119,0.057,0.8751,0.498,1.2059
		c3.8812,0.7764,7.4585,6.154,10.6869,7.23c0.9289-0.112,1.5582,0.0136,1.44,0.6231c-0.3824,1.5301-1.724,6.423-0.119,7.0648
		c2.1376-0.1477,8.8622,2.0724,10.3076,3.1118c3.181,2.1586,10.6401,9.5148,10.6401,13.1171
		c2.8979-0.2166,5.7807-1.0066,7.4197-2.2811c0,2.7689-3.4903,5.6642-5.5582,7.3673c-3.2456,2.1636-6.0406,2.317-9.9363,2.8315
		c-0.6852-0.9085-1.4318-1.1273-3.9328-1.1273c-1.5551,0.1553-2.8792,0.1406-2.6118,1.624
		C141.4725,51.9979,130.8494,51.594,124.8006,49.9711L124.8006,49.9711z M136.6754,49.6576
		c-3.6655-0.4172-12.7191-0.7923-15.3882-3.0164c-1.4097-3.1147-2.2558-12.9725-2.5319-16.3627
		c0.5857-1.1716,10.2425,0.0828,11.5509,0.606c1.6733,1.252-0.2424,10.2951,3.3735,13.1687
		c4.1468,2.9338,8.7112,3.3973,17.4183,3.401c4.6324-0.1896,10.0511-0.4269,13.894-2.9889c0.4844,0,0.4476-0.0184,0.5504,0.3932
		c-1.2146,2.4299-13.0011,4.6321-16.4908,4.7716C144.8772,49.7736,141.0524,50.0179,136.6754,49.6576L136.6754,49.6576z
		 M106.5006,43.3381c-3.1445-1.6931-13.5975-5.8646-13.5975-7.6601c8.6462,0.2322,17.1241,0.8237,25.7525,1.4462
		c0.0238,0.0204,1.29,8.909,1.29,9.5233C118.3869,47.571,108.2363,44.1604,106.5006,43.3381L106.5006,43.3381z M137.0442,44.1244
		c-1.247-0.6234-2.2848-1.6322-2.8315-2.9087c-0.832-2.0219-1.1594-6.2541-1.0488-8.0765c0.2231-1.9525,0.2968-3.3814,1.7827-4.7191
		c2.5994-1.5163,5.0989-1.1171,8.075-0.6817c2.7785,0.5343,5.3229,1.4185,7.4197,3.0164c2.0202,1.8759,7.9166,9.2647,6.2935,13.1598
		C155.1242,47.3973,140.1329,45.4113,137.0442,44.1244L137.0442,44.1244z M40.4593,28.8405c-0.8175-0.654-3.295-3.676-3.1209-4.7202
		c0.8799-0.4399,3.5923-0.1386,4.5533,0.2885c1.1696,1.1696,2.6867,3.0178,2.6867,4.7977
		C43.2478,29.2065,41.7392,29.2247,40.4593,28.8405L40.4593,28.8405z M7.385,28.4987c0-0.5326,0.2954-0.9119,0.6953-1.3119
		c0.925,0,1.6625,0.3921,2.5685,0.2109c0.7146-0.9896,1.2708-2.1325,2.0186-3.0676c0.652,0,1.1959,0.0331,1.8354,0.1837
		c-0.4624,1.4454-1.7887,3.7247-2.5064,4.7067C10.4685,29.088,8.6436,28.8522,7.385,28.4987L7.385,28.4987z M133.1114,28.0006
		c-0.3235-0.1619-0.2622-4.352,0.3671-4.9813c1.2526-0.0927,3.884-0.4065,5.8989,0.3932c0.004,0.6491-0.0048,1.9004-0.131,2.4908
		c-0.9323,0.2486-1.6274,0.1672-2.6217,0.5516C135.4344,26.795,134.0775,27.5015,133.1114,28.0006L133.1114,28.0006z
		 M102.6466,24.2776c10.1307-2.7564,17.1935-3.664,21.4985-4.8764c0.2528-0.7591,0.1091-2.7153-0.5769-3.3035
		c-3.9693,0-7.4452,0.6052-12.0603,1.2846c2.5844-1.292,14.2407-4.1046,16.5436-2.3777c0.9425,0.3144,2.511,4.1828,2.3596,5.2435
		C130.1254,20.8514,110.8101,23.9006,102.6466,24.2776L102.6466,24.2776z M128.6545,23.3601
		c-0.5131-0.171-0.6554-0.366-0.6554-0.8915c0.3169-0.5184,0.7336-0.654,1.5205-0.654c0.6863,0.1372,0.7755,0.3728,0.6828,0.8113
		C129.5477,23.1619,129.3813,23.29,128.6545,23.3601L128.6545,23.3601z M42.6556,21.5638
		c-0.9377-0.5667-2.6966-3.9566-2.6966-4.9164c0.3393-0.8203,3.0869-0.2622,3.6831-0.1845c0.7517,1.0477,2.9889,4.3628,3.253,5.4301
		C45.5019,22.0513,43.6319,21.6222,42.6556,21.5638L42.6556,21.5638z"/>
</g>
</svg>
