<?xml version="1.0" encoding="utf-8"?>
<!-- Generator: Adobe Illustrator 21.1.0, SVG Export Plug-In . SVG Version: 6.00 Build 0)  -->
<svg version="1.1" xmlns="http://www.w3.org/2000/svg" xmlns:xlink="http://www.w3.org/1999/xlink" x="0px" y="0px"
	 viewBox="0 0 208.6571 92.8624" enable-background="new 0 0 208.6571 92.8624" xml:space="preserve">
<g>
	<path fill-rule="evenodd" clip-rule="evenodd" d="M90.3206,89.6556h1.3938c0-0.2529,1.2427-0.1395,1.5332-0.1395h1.8119
		c0-0.254,1.6262-0.1395,1.9514-0.1395l7.236,0.0074l0.1514,0.2716l0.1392,0.1394l0.2789,0.5576h-1.2546l-0.8362,0.1395
		l-4.5995,0.1394l-3.348,0.0326l-2.3669-0.1721l-0.2786-0.1395h-0.4181l-0.2789-0.1395h-0.2787l-0.2789-0.1394h-0.1392
		l-0.1395-0.1395l-0.2787-0.1392V89.6556L90.3206,89.6556z M101.1923,36.671h-0.4181l-0.2786,0.1395l-0.697,0.1394l-0.1395,0.1392
		h-0.1392l-0.1395,0.1395h-0.1395l-0.1392,0.1395l-0.2789,0.1394l-0.1395,0.1395l-0.1392,0.1394l-0.1395,0.1395l-0.1395,0.1394
		l-0.1392,0.1395l-0.2789,0.4181l-0.1395,0.1395l-0.1392,0.4184l-0.1395,0.1394v0.1395l-0.1395,0.1392v0.2789l-0.1392,0.1394
		v18.8235h0.4181l0.9757-0.1394l0.1392-0.1395h0.2789l0.2786-0.1392l1.2546-0.2789l0.1392-0.1395l0.8365-0.1394l0.2786-0.1395
		h0.1395l0.2786-0.1395h0.1395l0.2786-0.1394l0.697-0.1395l0.1395-0.1392h0.2786l0.2789-0.1394l0.6968-0.1395l0.1395-0.1394h0.2786
		l0.2789-0.1395l0.6968-0.1395l0.1395-0.1394h0.2786l0.1395-0.1395l0.697-0.1394l0.2786-0.1392h0.2789l0.1392-0.1395h0.279
		l0.1392-0.1395l0.6971-0.1394l0.1394-0.1395l0.8362-0.1394l0.1394-0.1395h0.2787l0.1394-0.1394l0.6967-0.1395l0.1395-0.1392h0.2789
		l0.1392-0.1395l0.8365-0.1394l0.1392-0.1395h0.2789l0.1392-0.1394h0.2789l0.1395-0.1395h0.2786l0.1395-0.1394h0.2786l0.1395-0.1395
		l0.6968-0.1395l0.2789-0.1392h0.1394l0.2787-0.1394h0.2787l0.1394-0.1395h0.2789l0.1392-0.1394h0.2789l0.2787-0.1395l0.5576-0.1395
		l0.2786-0.1394h0.1395l0.2789-0.1395h0.2786l0.1394-0.1394l0.6968-0.1392l0.1395-0.1395l1.2543-0.2789l0.1395-0.1395l0.6971-0.1394
		l0.1392-0.1395h0.2789l0.2787-0.1394l0.6971-0.1395l0.1394-0.1392h0.2787l0.2787-0.1395h0.2789l0.1394-0.1394l0.4181-1.8128
		l0.1392-0.4181v-0.5579l0.1395-0.5579l0.1394-2.9279l0.1395-1.2549l-0.1395-0.8368l-0.1394-0.1395l-0.2787-0.1392l-0.1395-0.1395
		l-0.5576-0.2789l-0.1395-0.1394h-0.1392l-0.1394-0.1395h-0.1395l-0.1392-0.1394h-0.1394l-0.1395-0.1395h-0.1394l-0.1392-0.1395
		h-0.1395l-0.1395-0.1392l-0.5576-0.1394l-0.1392-0.1395h-0.1395l-0.1394-0.1394l-0.5576-0.1395l-0.1392-0.1395h-0.1395
		l-0.2786-0.1394l-0.5576-0.1395l-0.1395-0.1394h-0.2786l-0.1395-0.1392h-0.2789l-0.1392-0.1395h-0.2789l-0.2787-0.1394h-0.1394
		l-0.2787-0.1395l-0.697-0.1395l-0.2787-0.1394h-0.2789l-0.1392-0.1395l-0.9757-0.1394l-0.2789-0.1395h-0.2786l-0.2789-0.1392
		l-0.9757-0.1395l-0.2787-0.1394h-0.2789l-0.2787-0.1395l-1.2543-0.1394l-0.4184-0.1395h-0.2786l-0.4181-0.1394l-1.3938-0.1395
		l-0.4181-0.1395h-0.4184l-0.4182-0.1392l-1.8119-0.1394l-0.5576-0.1395h-0.5576l-0.5576-0.1394h-2.927L101.1923,36.671
		L101.1923,36.671z M98.9623,88.2612h-1.3938c0,0.2529-1.243,0.1395-1.5332,0.1395h-4.1817v-0.1395l0.5576-0.8368l0.1395-0.1392
		l0.1395-0.1395l0.4181-0.5578l0.1395-0.1395l0.1392-0.1394l0.1395-0.1395l0.9757-1.1154l0.1395-0.1394l1.1149-1.2549l0.1394-0.1392
		l0.1395-0.1395l0.1395-0.1394l0.1392-0.1395l0.1395-0.1395l0.5576-0.6971l0.1395-0.1394l0.1392-0.1395l0.1395-0.1394l0.2786-0.4184
		h0.2789l0.1395,0.1394l0.9757,1.2549l0.1392,0.1395l0.1395,0.1395l0.1395,0.2789l0.1392,0.1395l0.1395,0.1392l0.8362,1.1157
		l0.1394,0.1392l0.2789,0.4183l0.1392,0.1395l0.8365,1.1154l0.1392,0.1395l0.1395,0.2789l0.1395,0.1394l0.1392,0.1395l0.1395,0.2786
		l0.1395,0.1395l0.1395,0.4184h-2.6484C100.3561,88.3741,99.2409,88.2612,98.9623,88.2612L98.9623,88.2612z M98.6834,80.4529
		l0.1395-0.1395l0.4181-0.5576l0.1395-0.1395l0.1395-0.1394l0.2786-0.4184l0.1395-0.1394l0.1395-0.1395l1.3938-1.673l0.9757-0.1394
		l6.8298-0.279l1.1148-0.1394l6.8298-0.2789l1.2546-0.1395l5.7147-0.1392h0.2789l0.1392,0.1392l0.2789,0.4184l0.1392,0.1394
		l0.2789,0.4184l0.1395,0.1395l0.1392,0.1392l0.2789,0.4184l0.1392,0.1394l0.4184,0.5579l0.1392,0.1392l0.4181,0.5579l0.1395,0.1394
		l0.1394,0.1395l0.2787,0.4181l0.1394,0.1394l0.4181,0.5579l0.1395,0.1395l0.4181,0.5576l0.1395,0.1395l0.2786,0.4184l0.1395,0.1394
		l0.1395,0.1395l0.2787,0.4181l0.1395,0.1394l0.2786,0.4184l0.1395,0.1395l0.1394,0.1394l0.2787,0.4182l0.1395,0.1394l0.8362,1.1154
		l0.1394,0.1395l0.1392,0.2789l0.1395,0.1395l0.1395,0.1394l0.2787,0.4181l0.1394,0.1395l0.1395,0.2789l0.1392,0.1395l0.6971,1.1154
		l0.1394,0.1394v0.1395l0.1392,0.1394l-2.23,0.279l-0.9757,0.1392h-0.8362l-0.9757,0.1394l-3.7636,0.1395l-0.9756,0.1394h-1.1149
		l-0.9757,0.1395l-3.9028,0.1394l-1.1151,0.1395h-0.9757l-0.9757,0.1395l-4.0422,0.1394l-0.9757,0.1392h-0.9757l-0.9757,0.1395
		l-1.999,0.0428l-0.6491-0.8793h1.9514c0-0.2523,1.1151-0.1395,1.3938-0.1395l2.0789-0.0074l0.1511-0.2716l0.1395-0.1394v-0.4182
		l-0.1395-0.1394l-0.1392-0.1395h-3.9027l-2.5402,0.0309l-0.5264-0.5887l-0.1395-0.1392l-0.4181-0.5579l-0.1395-0.1395
		l-0.1392-0.1395l-0.2789-0.4181l-0.1395-0.1394l-0.1392-0.1395l-1.1152-1.3943l-0.1395-0.1395l-0.2786-0.4184l-0.1395-0.1395
		l-0.1394-0.1392l-0.4181-0.5579l-0.1392-0.1395l-0.4184-0.5576l-0.1392-0.1394l-0.2789-0.4184l-0.1392-0.1395l-0.4184-0.5576
		l-0.1392-0.1395L98.6834,80.4529L98.6834,80.4529z M97.0109,81.0108L96.8715,81.15l-0.2787,0.4184l-0.1395,0.1395l-0.1395,0.1395
		l-0.6968,0.8365l-0.1395,0.1395l-0.6971,0.8365l-0.1392,0.1395l-0.1395,0.1394l-0.1395,0.1395l-0.5576,0.6973l-0.1392,0.1392
		l-0.1395,0.1394l-0.1395,0.1395l-0.1392,0.1394l-1.9514,2.2309l-0.1395,0.1395l-0.1395,0.1395l-0.1395,0.1394l-0.1392,0.1395
		c-0.1454,0.2169-0.1848,0.4184-0.5576,0.4184H89.066c-0.527,0-0.9298-0.3405-1.2543-0.5579l-0.1395-0.1394l-0.2786-0.1395
		l-0.1395-0.1395l-0.1395-0.1394l-0.8362-0.5576l-0.1395-0.1394l-0.2786-0.1395l-0.1395-0.1395l-0.5576,0.1395l-0.1395,0.1395
		v0.2789v0.1394v0.4181l0.1395,0.279l0.2789,0.5579v0.1395h-0.2789l-0.9757,0.1392h-0.9757l-1.2543,0.1394l-8.3631,0.1395
		c0,0.2545-2.2652,0.1394-2.6484,0.1394h-2.927c0,0.2169-3.4132,0.2523-3.6238,0l0.0309-0.3872l0.5267-0.5888l0.1392-0.1395
		l0.2789-0.4184l0.1392-0.1394l0.1395-0.1392l0.5576-0.6973l0.1395-0.1395l0.5576-0.6971l0.1392-0.1394l0.1395-0.1395l0.2786-0.4184
		l0.1395-0.1394l0.1395-0.1392l0.1395-0.1395l1.1149-1.3943l0.1395-0.1395l0.1395-0.1395l0.2786-0.4184l0.1395-0.1395l0.1395-0.1392
		l0.4181-0.5578l0.1392-0.1395l0.4184-0.5576l0.1392-0.1395l0.2789-0.4184l0.1392-0.1395l0.2789-0.4184l0.1395-0.1392l0.2786-0.4184
		l0.1395-0.1394l0.2787-0.4184l0.1395-0.1395l3.4846-0.1392c0-0.2537,1.4984-0.1394,1.8119-0.1394h1.3938
		c0-0.2528,1.243-0.1395,1.5333-0.1395l5.0179-0.1394l1.1148-0.1395h1.2546l1.1151-0.1394l4.0419-0.1395l0.9757-0.1395
		l0.9757,0.8368l0.1395,0.1394l0.1395,0.1392l0.5576,0.6973l0.1392,0.1395l0.4181,0.5576l0.1395,0.1395l0.2789,0.4184v0.1395
		L97.0109,81.0108L97.0109,81.0108z M99.1018,78.501l-0.1395,0.1392l-0.1395,0.1395l-0.2786,0.4184l-0.1395,0.1394l-0.1395,0.1395
		l-0.1392,0.1394l-0.3098,0.3098l-0.5266-0.5887l-0.1392-0.1394l-0.1395-0.1395l-0.5576-0.697l-0.1395-0.1395l-0.2786-0.4184
		l-0.1395-0.1395l-0.1383-0.2554l4.0411-0.1627l0.2996-0.1327l-0.1601,0.2718L99.1018,78.501L99.1018,78.501z M125.4453,69.5772
		l-0.1395,0.4181l-0.1394,1.6733l-0.1395,0.4184v0.4181l-0.1392,0.4184c0,1.4085-0.8538,0.686-2.2204,0.8464
		c-0.9479,0.1114-1.7952,0.1295-2.937,0.1295l-0.1392-0.1395l0.1392-1.673l0.1395-0.4184l0.2787-2.2309l0.1395-0.279l0.1394-0.9759
		l0.1395-0.1395h0.5573l0.4184-0.1394l1.533-0.1395l0.5575-0.1394h0.6971l0.9756-0.1395h0.2787v0.4184L125.4453,69.5772
		L125.4453,69.5772z M115.549,64.6971l-0.1395,0.2787l-0.1394,0.6973l-0.1392,0.1395v0.2787l-0.1395,0.1394v0.279l-0.1394,0.1394
		v0.2789l-0.1392,0.1395v0.1395l-0.1395,0.2786v0.1395l-0.1395,0.1394v0.2789l-0.1395,0.1395v0.2789l-0.1392,0.1392v0.1395
		l-0.1395,0.1394l-0.1394,0.5579l-0.1392,0.1394v0.1395l-0.1395,0.1392l-0.5576,1.3943l-0.1394,0.1395l-0.5576,1.1154
		l-0.1392,0.1394v0.1395l-0.1394,0.1394l-0.4181,0.8365l-0.1394,0.1395l-0.2787,0.5578l-0.1394,0.1395l-0.1395,0.2786L110.81,75.015
		l-0.2789,0.5578l-0.1395,0.1395l-0.1392,0.2817l-2.5089,0.1364l-0.9757,0.1395l-6.5511,0.2789
		c0,0.2528-1.2428,0.1394-1.5333,0.1394h-1.3938l-1.2543,0.1395l-3.0665,0.1395l-1.2543,0.1394l-6.2722,0.2787l-1.1151,0.1395
		h-1.2546l-1.2543,0.1395l-6.8298,0.1395c0,0.2361-3.0166,0.2268-3.2057,0l-1.8122-0.1395l-0.1392-0.1395h-0.2789l-0.1395-0.1395
		l-0.5573-0.1392l-0.1395-0.1395h-0.2789l-0.1392-0.1394h-0.1395l-0.1395-0.1395h-0.1392l-0.1395-0.1395h-0.1395l-0.1395-0.1394
		h-0.1392l-0.1395-0.1395l-0.5576-0.2789l-0.1395-0.1392l-0.2787-0.1395l-0.1394-0.1394l-0.2787-0.1395l-0.1395-0.1394
		l-0.1395-0.1395l-1.1149-0.9759l-0.1395-0.1395l-0.5575-0.697l-0.1395-0.1395l-0.1392-0.1394l-0.2789-0.5579l-0.1392-0.1394
		l-0.5596-1.2286l2.232,0.1131l0.9757,0.1394l5.7146,0.1395l0.4195,0.034l5.1559-0.1735l0.8362-0.1394l3.9027-0.279l0.4181-0.1392
		l2.6484-0.2789l0.4181-0.1394l1.3938-0.1395l0.4181-0.1394h0.4184l0.2786-0.1395h0.2787l0.4184-0.1395l1.1149-0.1394l0.4181-0.1392
		h0.2789l0.2786-0.1395l1.1152-0.1394l0.2786-0.1395l1.6727-0.2789l0.2787-0.1395h0.2789l0.2787-0.1394h0.2789l0.2786-0.1395h0.4181
		l0.2789-0.1392h0.2786l0.2789-0.1395l0.9757-0.1394l0.1392-0.1395h0.2789l0.2786-0.1394l0.9757-0.1395l0.2789-0.1394h0.2786
		l0.2787-0.1395l1.2546-0.2786l0.2786-0.1395h0.2789l0.4181-0.1395l0.6968-0.1394l0.2789-0.1395l1.3938-0.2789l0.1395-0.1395h0.2787
		l0.2789-0.1394l0.8362-0.1392l0.2787-0.1395l1.3938-0.2789l0.2789-0.1395l1.2543-0.2789l0.2789-0.1394h0.2787l0.1395-0.1395
		l0.9757-0.1392l0.1395-0.1394h0.2786l0.2786-0.1395l0.9757-0.1395l0.1395-0.1394h0.2789l0.2786-0.1395l2.8213-0.5482
		L115.549,64.6971L115.549,64.6971z M187.4707,39.4597l0.5576,0.4181l0.1395,0.1394l0.1394,0.1395l1.5058,1.0176l0.5847-0.4598
		l0.1395-0.1394l0.1394-0.1395l0.2787-0.1394l0.1395-0.1395l0.2786-0.1395l0.1395-0.1394h0.2789
		c0.269,0.2251,0.2041,3.9041,0,3.9041v1.2549l-0.1395,1.1154c0,0.866,0.2432,1.4967-0.4181,1.6733l-0.1394,0.1395
		c-0.5729,0.0476-0.3113,0.1395-0.8363,0.1395c-0.525,0-0.2636-0.0919-0.8365-0.1395l-0.1392-0.1395l-0.4181-0.976l-0.1394-0.2789
		l-0.2789-1.6733l-0.1392-0.2789v-0.2786l-0.1394-0.2789l-0.1395-1.1154l-0.1392-0.2789l-0.1394-1.1154l-0.1395-0.1394v-0.5579
		l-0.1394-0.2786v-0.2789l-0.1392-0.279v-0.5576l-0.1627-0.1162L187.4707,39.4597L187.4707,39.4597z M84.6057,36.9499
		l-0.2786,0.1392h-0.2789l-0.2787,0.1395l-0.697,0.1395l-0.2786,0.1394l-0.5576,0.1395l-0.1395,0.1394l-0.5573,0.1395L81.4,38.0653
		h-0.1395l-0.1395,0.1395h-0.1392l-0.1395,0.1392h-0.1395l-0.1392,0.1395h-0.1395l-0.1395,0.1394h-0.1395l-0.1392,0.1395h-0.1395
		l-0.1395,0.1394l-0.5576,0.279l-0.1392,0.1394l-0.5576,0.2787l-0.1395,0.1394l-0.5576,0.2789l-0.1392,0.1395l-0.2789,0.1395
		l-0.1395,0.1394l-0.9757,0.5576l-0.1392,0.1395l-0.5576,0.5579L75.4064,41.83l-0.1395,0.1395l-0.1392,0.1392l-0.4181,0.5578
		l-0.1395,0.1395l-0.1395,0.1394l-0.1395,0.1395L73.734,43.782l-0.1395,0.1395l-0.5576,0.697l-0.1395,0.1395l-0.1392,0.1394
		l-0.2789,0.4184l-0.1395,0.1395l-0.1392,0.1394l-0.8365,1.1154l-0.1392,0.1395l-0.2789,0.4181l-0.1392,0.1395l-0.2789,0.4184
		l-0.1395,0.1395l-0.1392,0.2789l-0.1395,0.1395l-0.2786,0.4181l-0.1395,0.1395l-0.8362,1.3944l-0.1395,0.1394l-0.2789,0.5576
		l-0.1392,0.1395l-0.2789,0.5578l-0.1392,0.1395l-0.5576,1.1154l-0.1395,0.1394v0.1395l-0.1395,0.1394v0.1392l-0.1392,0.1395
		l-0.4184,1.1154l-0.1392,0.1395l-0.1395,0.5579l-0.1394,0.1394l-0.1392,0.5576L65.789,56.331l-0.2789,0.976l-0.1392,0.1395
		l-0.2789,1.2549l-0.1392,0.1394l-0.2789,1.3944l-0.1395,0.279v0.2789l-0.1392,0.2786l-0.1395,1.2549l-0.1395,0.2789v0.2789
		l-0.1392,0.5579l-0.1395,1.673l-0.1394,0.6973v1.2549h0.697l0.5576,0.1395h0.5573l0.5576,0.1392l4.1817,0.1395h3.0662l3.206-0.1395
		l0.6967-0.1392h0.5576l0.5576-0.1395l1.8119-0.1395l0.5576-0.1394h0.4181l0.4184-0.1395l2.23-0.2789l0.4181-0.1395l1.9514-0.2786
		l0.4181-0.1395h0.2789l0.2786-0.1395l1.1152-0.1395l0.4181-0.1395h0.2787l0.2789-0.1394l1.1151-0.1395l0.2787-0.1394h0.2786
		l0.2789-0.1395l2.7876-0.5576l0.2789-0.1394l4.1814-0.976l0.2786-0.1395l0.8365-0.1395l0.2786-0.1394l0.8362-0.1395l0.2789-0.1395
		h0.2786l0.1395-0.1394l1.3938-0.2787l0.2789-0.1394l1.3938-0.2789l0.1392-0.1395l1.2546-0.2789l0.2787-0.1395h0.2789l0.1392-0.1392
		h0.4184l0.1392-0.1394h0.2789l0.2786-0.1395l1.3938-0.2789l0.1395-0.1395h0.2786l0.279-0.1394h0.2786l0.2789-0.1395h0.1392
		l0.279-0.1394h0.2787l0.2789-0.1392l0.6968-0.1395l0.2789-0.1395h0.2787l0.1394-0.1394l0.9757-0.1395l0.1395-0.1394h0.2786
		l0.2787-0.1395l0.8365-0.1394l0.2786-0.1395l0.6971-0.1392l0.2786-0.1395l1.3938-0.2789l0.2789-0.1394h0.2787l0.2789-0.1395h0.2786
		l0.2786-0.1395h0.2789l0.2787-0.1394l1.3938-0.2787l0.2789-0.1394l0.2979,0.0023l-0.1584,0.5553l-0.2789,0.1395h-0.1395
		l-0.2787,0.1395h-0.4181l-0.1394,0.1394h-0.2787l-0.2789,0.1395l-0.6968,0.1394l-0.2789,0.1395h-0.2787l-0.1394,0.1392
		l-1.3938,0.2789l-0.2787,0.1395h-0.1394l-0.2789,0.1394l-0.8362,0.1395l-0.1394,0.1394h-0.2787l-0.1394,0.1395l-0.8362,0.1395
		l-0.2786,0.1392h-0.1395l-0.2789,0.1394H113.04l-0.1394,0.1395h-0.2787l-0.2789,0.1394h-0.2787l-0.1395,0.1395h-0.2787
		l-0.2789,0.1395h-0.2786l-0.1395,0.1394h-0.2787l-0.279,0.1395h-0.2786l-0.1395,0.1394h-0.2786l-0.279,0.1392h-0.2786
		l-0.1395,0.1395l-1.2543,0.2789l-0.2789,0.1395h-0.1392l-0.2789,0.1394l-0.8362,0.1395l-0.1395,0.1394h-0.2787l-0.1395,0.1395
		l-0.8362,0.1392l-0.2789,0.1394h-0.1392l-0.2789,0.1395l-0.8362,0.1395l-0.1395,0.1394h-0.2786l-0.2789,0.1395l-0.6968,0.1395
		l-0.2789,0.1394h-0.2787l-0.2786,0.1395l-0.697,0.1392l-0.2786,0.1394h-0.2789l-0.2786,0.1395l-1.2546,0.2789l-0.2787,0.1394
		l-0.8362,0.1395l-0.2789,0.1395h-0.2787l-0.2789,0.1394l-0.8362,0.1392l-0.2787,0.1395h-0.2789l-0.2786,0.1394l-0.8365,0.1395
		l-0.2787,0.1394h-0.2786l-0.2789,0.1395h-0.2787l-0.2789,0.1395H91.993l-0.2786,0.1395h-0.2789l-0.2787,0.1395l-1.6727,0.2786
		l-0.2787,0.1395l-1.8119,0.2789l-0.2789,0.1395l-1.9514,0.2789l-0.4181,0.1395l-2.23,0.2786l-0.4184,0.1395l-2.7876,0.2789
		l-0.6967,0.1394h-0.5576l-0.6971,0.1395l-5.8541,0.1394h-0.1395l-5.5752-0.1394l-0.8362-0.1395h-0.4184l-0.6968-0.1394
		l-1.5333-0.1395l-0.2786-0.1394h-0.2789l-0.2787-0.1395l-0.697-0.1395V66.928l0.1395-0.1394L61.05,66.649h0.1392l0.2789-3.2068
		l0.1392-0.4184v-0.2789l0.1395-0.4184l0.1395-1.1154l0.1395-0.1395l0.2786-1.5335l0.1395-0.1395v-0.2789l0.1392-0.1394
		l0.1395-0.8365l0.1395-0.1395v-0.1394l0.1395-0.279l0.1392-0.6971l0.1395-0.1394l0.1395-0.5579l0.1392-0.1394v-0.2787
		l0.1395-0.1395v-0.1394l0.1394-0.1395V55.076l0.1395-0.1394v-0.1395l0.1392-0.1392v-0.1395l0.1395-0.2789l0.1395-0.4184
		l0.1392-0.1395v-0.1395l0.1395-0.1392l1.2546-2.6493l0.1392-0.1394v-0.1395l0.1394-0.1394l0.4181-0.8365l0.1395-0.1395
		l0.5576-0.9759l0.1392-0.1395l0.1395-0.2789l0.1395-0.1395l0.1395-0.2789l0.1392-0.1394l0.1395-0.2787l0.1395-0.1394l0.1392-0.279
		l0.1395-0.1394l0.1395-0.1395l0.6967-0.9759l0.1395-0.1395l0.4181-0.5578l0.1394-0.1395l0.1395-0.1392l0.9757-1.1157l0.1392-0.1392
		c0.508-0.7589,2.2235-1.5865,2.1226-2.6533l-0.1712-1.5298l-0.1392-0.1395l-0.2789-0.2789l-0.1392-0.1394h-0.1395l-0.1395-0.1395
		l-0.1673-0.3067l0.3067-0.2509l0.1395-0.1394l0.1392-0.1395l0.697-0.4184l0.1395-0.1392l1.8119-0.8367l0.1395-0.1395h0.1392
		l0.1395-0.1394l0.5576-0.1392l0.1395-0.1395l0.8362-0.2789l0.1395-0.1395l0.6967-0.1394l0.1395-0.1395h0.2786l0.1395-0.1394h0.2786
		l0.1395-0.1395h0.2789l0.2786-0.1392h0.1395l0.2786-0.1394l0.8362-0.1395l0.1395-0.1395h0.2789l0.2786-0.1394l1.5333-0.279
		l0.2787-0.1394l1.1151-0.1395l0.2787-0.1392h0.2789l0.4181-0.1394l2.3695-0.2789l0.5576-0.1395l2.23-0.1394l0.9757-0.1395h1.1152
		c0.2321-0.2778,4.0422-0.1979,4.0422,0l5.0179,0.2789l0.5573,0.1395h0.5575l0.5576,0.1394l1.6727,0.1395l0.4181,0.1394h0.4181
		l0.2786,0.1392l1.5332,0.1395l0.279,0.1394l1.9514,0.279l0.2787,0.1394h0.2789l0.2786,0.1395l1.6727,0.2789l0.2786,0.1392
		l0.8362,0.1395l0.2789,0.1394h0.2786l0.279,0.1395l0.8362,0.1394l0.1394,0.1395h0.2787l0.1395,0.1394l0.8362,0.1395l0.1394,0.1395
		h0.2787l0.1395,0.1392l1.1152,0.2789l0.2786,0.1394l0.5576,0.1395l0.1395,0.1395h0.2786l0.1395,0.1394h0.1392l0.2789,0.1395h0.1395
		l0.1392,0.1394h0.2789l0.1392,0.1392l0.8365,0.279l0.1392,0.1394l0.5576,0.1395l0.1395,0.1394l0.697,0.2789l0.1392,0.1395
		l0.6971,0.2787l0.1394,0.1394l0.8362,0.4184l0.1395,0.1395l0.2787,0.1394l0.1394,0.1395h0.1392l0.1395,0.1392l0.8362,0.5579
		l0.1395,0.1395l0.4181,0.2789l0.1394,0.1394l0.1395,0.1392l0.8362,0.8368l0.1395,0.1394l0.1392,0.8365l-0.1392,0.4184v0.4181
		l-0.1395,0.4184l-0.1394,1.6733l-0.1392,0.4181v0.5579l-0.1395,0.4184l-0.1395,1.5335l-0.1394,0.4184l-0.1392,0.1394h-0.1395
		l-0.1394,0.1395l-0.6967,0.4184l-0.1395,0.1392l-0.4181,0.279l-0.1394,0.1394l-0.1395,0.1395l-0.1392,0.1394l-0.1394,0.1395
		l-0.1395,0.1394l-0.1392,0.1395l-0.1395,0.2787l-0.1394,0.1394l-0.5576,0.6973l-0.1392,0.1395h-0.1394l-0.2789,0.1392h-0.2787
		l-0.1395,0.1394h-0.2786l-0.2789,0.1395h-0.1392l-0.2789,0.1394l-0.6967,0.1395l-0.1395,0.1395h-0.2786l-0.1395,0.1394
		l-0.697,0.1395l-0.2787,0.1394h-0.2789l-0.1392,0.1392l-0.697,0.1395l-0.1395,0.1395h-0.4181l-0.1392,0.1394h-0.2789
		l-0.1395,0.1395h-0.2786l-0.1395,0.1394h-0.2786l-0.1395,0.1395l-0.8362,0.1394l-0.1395,0.1395h-0.2786l-0.1395,0.1392h-0.2787
		l-0.1394,0.1395H115.27l-0.2787,0.1394h-0.1394l-0.2787,0.1395h-0.2789l-0.1392,0.1394l-0.6971,0.1395l-0.1395,0.1394H113.04
		l-0.2786,0.1395l-0.6971,0.1395l-0.1395,0.1392h-0.2787l-0.1394,0.1394l-0.8362,0.1395l-0.1394,0.1394h-0.1395l-0.2786,0.1395
		h-0.2787l-0.1394,0.1395h-0.279l-0.2786,0.1394h-0.1395l-0.2786,0.1395l-0.6971,0.1394l-0.1392,0.1392h-0.2789l-0.1394,0.1395
		l-0.6968,0.1394l-0.1394,0.1395h-0.4181l-0.1395,0.1395h-0.2787l-0.1395,0.1394l-0.6967,0.1395l-0.1395,0.1394h-0.2789
		l-0.1392,0.1395h-0.4181l-0.1395,0.1392h-0.2789l-0.1392,0.1395h-0.2789l-0.1392,0.1394h-0.2789l-0.1395,0.1395h-0.2786
		l-0.1395,0.1394l-0.8362,0.1395l-0.1395,0.1394h-0.1392l-0.2789,0.1395h-0.2786l-0.1395,0.1395h-0.2786l-0.1395,0.1392h-0.2789
		l-0.2787,0.1394l-0.5575,0.1395l-0.2786,0.1394h-0.1395l-0.2786,0.1395h-0.2789l-0.1395,0.1395H97.429l-0.1395,0.1394h-0.2787
		l-0.1395,0.1395l-0.6968,0.1394l-0.2789,0.1392h-0.2786l-0.1395,0.1395c-0.436,0.0363-0.4952,0.1394-0.9757,0.1394l-0.4669,0.002
		l-0.0907-3.0694v-4.3226v-8.3659l-0.1395-1.2549v-0.8368l-0.1392-0.4181v-0.4184l-0.1395-0.1394v-0.2789l-0.1395-0.2787V41.83
		l-0.1392-0.2789v-0.1394l-0.1395-0.1395l-0.2789-0.697l-0.1392-0.1395l-0.5576-0.8368l-0.1395-0.1392l-1.6724-1.5338
		l-0.1395-0.1395l-0.2789-0.1394l-0.1392-0.1395l-0.2789-0.1394l-0.1392-0.1395h-0.1395l-0.2789-0.1395h-0.2787l-0.2787-0.1392
		l-1.5332-0.1394l-0.701-0.0318L84.6057,36.9499L84.6057,36.9499z M98.1261,26.2134c0-0.3135-0.1142-1.8124,0.1392-1.8124v-1.6733
		c0-0.2906-0.1134-1.5338,0.1395-1.5338l0.1395-5.7166c0-0.2789-0.1128-1.3944,0.1392-1.3944v-0.976l0.1395-0.1394v-0.279
		l0.1395-0.2789l0.4181-0.2789l0.1395-0.1395h0.2786l0.1395-0.1392l0.8362-0.1394l0.4181-0.1395h2.7879l0.1392,0.1395l1.2546,0.2786
		l0.1392,0.1395l0.5576,0.1395l0.1395,0.1394h0.1395l0.1392,0.1395h0.1395l0.1394,0.1394h0.1395l0.1392,0.1395l0.5576,0.2789
		l0.1395,0.1392l0.2786,0.1395l0.1395,0.1394l0.1395,0.2789l0.1392,0.1395v0.1394l0.1394,0.4181v0.5578l0.1395,0.8365l0.1394,2.7887
		l0.1392,0.6973v0.8365l0.1395,0.6971l0.1394,2.9282l0.1392,0.8365v0.6973l0.1395,0.976l0.1395,3.4858l0.1394,1.1154v1.6732v0.2789
		l-0.697-0.1394h-0.9757l-0.8362-0.1395l-3.3452-0.2789l-0.4184-0.1395l-2.927-0.2786l-0.6967-0.1395l-1.8113-0.1471
		L98.1261,26.2134L98.1261,26.2134z M193.1857,31.233l-0.1395,0.1394l-0.1394,0.1395l-0.4181,0.2789l-0.1395,0.1395l-1.2543,0.976
		l-0.1395,0.1395l-0.4181,0.2786l-0.1395,0.1395l-1.1149,0.8368l-0.1394,0.1394l-0.2787,0.1392l-0.1394,0.1395l-0.1395,0.1394
		l-0.2786,0.1395l-0.1394,0.1394l-0.4181,0.2789l-0.1395,0.1395l-0.5576,0.2787l-0.1392,0.1394h-0.1395l-0.1395,0.1395h-0.1395
		l-0.8362,0.1394l-2.6482,0.1395l-0.5576,0.1395h-0.5576l-0.5576,0.1394l-2.6484,0.2789l-0.4181,0.1392l-2.23,0.279l-0.4182,0.1394
		l-2.0908,0.2789l-0.4181,0.1395l-1.9514,0.2789l-0.4181,0.1392h-0.4181l-0.2789,0.1395l-1.2543,0.1394l-0.4181,0.1395h-0.2789
		l-0.4181,0.1394l-1.3938,0.1395l-0.2789,0.1395h-0.4181l-0.4182,0.1394v-0.2789l0.1395-0.1395l0.4181-0.2789l0.1395-0.1394
		l0.2786-0.1395l0.1395-0.1392l1.2543-0.8368l0.1395-0.1395l0.2786-0.1395l0.1395-0.1392l0.2789-0.1394l0.1392-0.1395l0.2789-0.1394
		l0.1392-0.1395l0.2789-0.1395l0.1395-0.1394l0.2787-0.1395l0.1394-0.1394l0.2787-0.1392l0.1395-0.1395l0.2787-0.1395l0.1394-0.1394
		l0.9757-0.5579l0.1395-0.1395l0.2786-0.1392l0.1395-0.1394l0.2787-0.1395l0.1394-0.1395l0.9757-0.5578l0.1395-0.1395l2.3695-0.4181
		l0.6967-0.1394h0.8365l0.8362-0.1395l3.2057-0.1394l0.8365-0.1395h0.8362l0.8362-0.1395l2.6473-0.1562l0.1406-1.0987l0.1392-0.2787
		V30.257l0.1395-0.2789v-0.2789l0.1395-0.4181v-0.5579l0.1392-0.2789v-0.4181l0.1394-0.2789v-0.4184l0.1395-0.4181l0.1394-1.2549
		l0.1392-0.2789l0.2789-2.0917l0.1392-0.2786v-0.2789l0.1394-0.4184l0.1395-1.1154l0.1394-0.2789v-0.2787l0.1392-0.4184v-0.4184
		l0.1395-0.2789v-0.2786l0.1394-0.279V18.684l0.1392-0.1394v-0.4181h0.2789l0.2786-0.1395h0.8365l0.2787,0.1395l0.5564,0.2803
		l0.0011,3.2054c0.4558,0.381,0.1395,2.8749,0.1395,3.6252c0,0.4532,0.1154,3.4857-0.1395,3.4857v1.9522h2.0909L193.1857,31.233
		L193.1857,31.233z M101.0531,0.1395l-0.1395,0.2789v0.2787l-0.1395,0.4184v0.4184l-1.3938,0.1395l-0.4181,0.1394l-2.509,0.2787
		l-0.4181,0.1395h-0.4181L95.199,2.3704l-1.6727,0.1395l-0.4181,0.1394l-2.5089,0.2789l-0.4181,0.1395l-2.509,0.2786l-0.5576,0.1395
		h-0.4181l-0.4181,0.1395l-1.6727,0.1395l-0.4181,0.1395l-2.5089,0.2789L81.121,4.3226h-0.4181l-0.4181,0.1392l-1.6724,0.1394
		L78.194,4.7407h-0.4181l-0.4181,0.1394l-1.8119,0.1395l-0.4181,0.1394h-0.4181l-0.4184,0.1395L72.6188,5.438l-0.4181,0.1394
		h-0.5576L71.225,5.7166l-1.6727,0.1395l-0.4181,0.1394h-0.4181L68.298,6.1351L65.6496,6.414l-0.4181,0.1395l-1.6727,0.1394
		l-0.4181,0.1395H62.583l-0.4181,0.1392L60.4925,7.111l-0.4181,0.1395H59.656L59.2379,7.39l-2.6481,0.2789l-0.4181,0.1394
		l-2.6484,0.279l-0.4181,0.1392H52.687l-0.4181,0.1395l-1.6727,0.1395l-0.4181,0.1394h-0.4181l-0.5576,0.1395l-1.6727,0.1394
		l-0.4181,0.1395l-2.5089,0.2789l-0.4181,0.1392h-0.5576l-0.4181,0.1395l-1.6724,0.1394L41.118,9.8997h-0.4181l-0.4181,0.1394
		l-1.6724,0.1395l-0.5576,0.1395h-0.4181l-0.4184,0.1394l-1.6724,0.1395l-0.4181,0.1392h-0.4181l-0.4184,0.1394l-1.6725,0.1395
		l-0.4181,0.1395h-0.4181l-0.4184,0.1394L28.713,11.573l-0.4181,0.1395l-2.509,0.2786l-0.4181,0.1395l-2.5089,0.2789l-0.4181,0.1395
		l-2.5089,0.2789l-0.4181,0.1395l-2.5089,0.2786l-0.4181,0.1395l-2.5089,0.2789l-0.4181,0.1394h-0.4181l-0.4184,0.1395
		l-1.6724,0.1394l-0.2789,0.1395l-2.5087,0.2787l-0.2789,0.1394l-2.3695,0.2789l-0.4181,0.1395H4.8784l-0.4181,0.1395
		l-1.3941,0.1394l-0.4181,0.1395H2.3695l-0.4181,0.1394l-1.1151,0.1392l-0.2787,0.1395H0.4181l-0.1395,0.1395l-0.1395,0.1394
		L0,16.5927v0.8365l0.2786,0.5578l0.1395,0.1395l0.2786,0.2786h0.4181l1.6727-0.1394l0.5576-0.1392h0.4181l0.4181-0.1395
		l1.6727-0.1394l0.4181-0.1395h0.5576l0.4181-0.1395H7.666l0.4181-0.1394l1.6727-0.1395l0.4181-0.1394l2.6481-0.2787l0.4184-0.1395
		h0.4181l0.4181-0.1394l1.6724-0.1395l0.4184-0.1394l2.5087-0.2789l0.4184-0.1395h0.5573l0.4184-0.1395l1.6724-0.1392l0.4181-0.1394
		h0.4181l0.4184-0.1395l1.6724-0.1394l0.4181-0.1395h0.4181l0.4184-0.1395l1.8119-0.1394l0.4181-0.1395h0.4181l0.4181-0.1394
		l1.6727-0.1392l0.4181-0.1395h0.4181l0.4181-0.1395l2.6484-0.2789l0.4181-0.1394l1.6727-0.1395l0.4181-0.1394h0.4181l0.4181-0.1395
		l2.6484-0.2786l0.4181-0.1395l1.6724-0.1395l0.4181-0.1394h0.4184l0.4181-0.1395l2.6481-0.2789l0.4181-0.1395l1.6727-0.1392
		l0.4181-0.1394h0.4181l0.4181-0.1395l2.6484-0.2789l0.4181-0.1394h0.4181l0.5576-0.1395l1.6727-0.1395l0.4181-0.1394h0.4181
		l0.4181-0.1392l1.6727-0.1395l0.4181-0.1394l2.6481-0.279l0.4184-0.1394h0.4181l0.5576-0.1395l1.6725-0.1394l0.4181-0.1395h0.4181
		l0.4184-0.1392l1.8119-0.1395l0.4181-0.1394h0.4181l0.4181-0.1395l2.6484-0.2789l0.4181-0.1394l1.6727-0.1395l0.5573-0.1395h0.4184
		l0.4181-0.1392l2.6481-0.279l0.4181-0.1394L80.8424,7.39l0.4181-0.1395l2.6484-0.2789l0.4181-0.1392h0.5576l0.4181-0.1395
		l1.6724-0.1394l0.4184-0.1395l2.7876-0.2789l0.4181-0.1395l2.6484-0.2789l0.5573-0.1392h0.4184l0.4181-0.1394l1.8119-0.1395
		l0.4181-0.1395h0.5576l0.4181-0.1394l1.8119-0.1395l0.4184-0.1394h0.5573l0.0337,1.2566l-0.1729,4.0419l-0.1395,0.6971
		l-0.1395,0.1394l-0.8363,0.1395l-0.2786,0.1395h-0.2789l-0.1395,0.1394l-0.6967,0.697l-0.1395,0.1395v0.2789
		c0,0.3952,0.1154,2.7888-0.1395,2.7888L97.429,26.6318l-0.1395,1.1154l-0.1392,3.7647l-3.7656-0.0334l-3.4826,0.1729
		l-0.6968,0.1395h-0.5576l-0.5576,0.1395h-0.5576l-0.4181,0.1392l-1.5332,0.1394l-0.4181,0.1395h-0.2786l-0.4181,0.1395
		l-1.1151,0.1394l-0.2789,0.1395h-0.2786l-0.2787,0.1394l-0.9757,0.1395l-0.2789,0.1394H81.121l-0.2786,0.1392l-1.2543,0.2789
		l-0.1395,0.1394l-0.697,0.1395l-0.1392,0.1394h-0.2789l-0.1395,0.1395h-0.2787l-0.1395,0.1395l-1.2543,0.4181l-0.1395,0.1394
		l-0.5576,0.1395l-0.1392,0.1394h-0.1395l-0.1395,0.1395h-0.1395l-0.1392,0.1394h-0.1395l-0.1395,0.1395h-0.1392l-0.1395,0.1395
		h-0.1395l-0.1395,0.1392h-0.1392l-0.1395,0.1394l-0.5576,0.2789l-0.1395,0.1395h-0.1392l-0.1395,0.1395l-0.2786,0.1394
		l-0.1395,0.1395l-0.6971,0.4181l-0.1392,0.1395l-0.1395,0.1394l-0.2789,0.1395l-0.1392,0.1394l-0.2789,0.2789l-0.1392,0.1395
		l-0.9757,1.1154l-0.1395,0.1395l-0.1395,0.1392l-0.1395,0.1394l-1.2543,1.5338l-0.1395,0.1395L67.7404,41.83l-0.1395,0.1395
		l-0.6967,0.976l-0.1395,0.1395l-0.1395,0.2787l-0.1395,0.1395l-0.1392,0.1395l-0.1395,0.2789l-0.1394,0.1395l-0.2787,0.5576
		l-0.1395,0.1395l-0.1395,0.2789l-0.1392,0.1395l-0.1395,0.2789l-0.1395,0.1394l-0.4181,0.8365l-0.1395,0.1395v0.1394
		l-0.1392,0.1395l-1.2546,2.6493l-0.1392,0.1394v0.1392L62.862,49.917l-0.1395,0.5579l-0.1395,0.1395v0.1394l-0.1392,0.2786v0.1395
		l-0.1395,0.1394l-0.1394,0.5579l-0.1392,0.1394v0.2787l-0.1395,0.1394v0.2789l-0.1395,0.1395v0.2789l-0.1395,0.1395v0.2786
		l-0.1392,0.1395l-0.2789,1.2549L61.05,55.2155l-0.2789,1.5338l-0.1395,0.2789v0.2786l-0.1392,0.4184l-0.1395,1.3943l-0.1395,0.4184
		v0.5576l-0.1392,0.5578l-0.1395,2.9279l-0.0326,1.8159l0.1721,2.0883l0.1392,0.4184v0.2789l0.1395,0.2789l0.1395,0.976
		l0.1392,0.1394v0.2787l0.1395,0.2789l0.1395,0.5578l0.1395,0.1395v0.2786l0.1392,0.1395v0.1395l0.1395,0.1394l0.4181,0.976
		l0.1395,0.1394v0.1395l0.1395,0.1394l0.1392,0.2789l0.1394,0.1394l0.1395,0.2787L62.583,73.76l0.1395,0.2789l0.1395,0.1395
		l0.2787,0.4184l0.1395,0.1394l0.1395,0.1392l0.1392,0.1395l0.9757,0.9762l0.1395,0.1392l0.1395,0.1395l0.4181,0.2789l0.1395,0.1394
		l0.6968,0.4184l0.1394,0.1395l0.2787,0.1392l0.1395,0.1395h0.1395l0.1395,0.1395h0.1392l0.1395,0.1395h0.1395l0.1392,0.1394
		l0.5576,0.1395l0.1395,0.1394h0.2787l0.1395,0.1395h0.2789l0.1392,0.1394l1.8241,0.2861l-0.1514,0.2715l-0.1395,0.1395
		l-0.8362,1.1154l-0.1395,0.1395l-0.1395,0.1395l-0.2786,0.4184L68.9947,81.15l-0.1392,0.1394l-0.4184,0.5579l-0.1392,0.1394
		l-0.4181,0.5576l-0.1395,0.1394l-0.1395,0.1395l-0.2786,0.4184l-0.1395,0.1394l-0.1395,0.1395l-1.1149,1.3941l-0.1395,0.1394
		l-0.1395,0.1395l-0.2787,0.4184l-0.1395,0.1394l-0.1395,0.1395l-0.1392,0.1394l-0.5576,0.6971l-0.1395,0.1394l-0.5575,0.697
		l-0.1395,0.1395l-0.1392,0.1395l-0.4181,0.5579l-0.1395,0.1395l-0.1395,0.1392l-1.2543,0.1394l-6.8298,0.1395l-3.6261,0.0334
		l-3.2037-0.1729l-0.5576-0.1394h-0.5576l-0.4181-0.1392l-1.3938-0.1395l-0.2789-0.1395h-0.2787l-0.1395-0.1394l-0.8362-0.1395
		l-0.1395-0.1394h-0.2787l-0.1395-0.1395l-0.9757-0.4181l-0.1395-0.1395l-0.2786-0.1394l-0.1395-0.1395l-0.1395-0.1394
		l-0.1392-0.1395h-0.1395l-0.1395-0.1395h-0.1392h-0.5576l-0.2789,0.279l-0.1392,0.1394v0.2789v0.5576l0.1392,0.1395l0.2789,0.4184
		l0.1392,0.1395l0.8365,0.8365l0.1392,0.1394l1.8122,0.8365l0.1392,0.1395h0.2789l0.1395,0.1395l1.3938,0.2789l0.2787,0.1394
		l2.3695,0.2787l0.5576,0.1394l7.8055,0.1395c0-0.2552,3.4149-0.1395,3.9027-0.1395h1.1152l1.2543-0.1394l8.0844-0.2787
		c0-0.2528,1.2427-0.1394,1.5332-0.1394l11.1507-0.2789c0-0.1978,3.81-0.2778,4.0419,0l0.2789,0.1394l0.1395,0.1395l0.2786,0.1394
		l0.1395,0.1395l0.2786,0.1392l0.1395,0.1394l1.5333,0.6973l0.1392,0.1395h0.2789l0.1395,0.1394h0.2787l0.1395,0.1392h0.2786
		l0.2789,0.1395h0.2787l0.2786,0.1395l1.5333,0.1394h1.5332l4.0422-0.1394l0.9757-0.1395h0.9757l0.9757-0.1395l3.6238-0.1392
		l0.8365-0.1394h0.8362l0.9757-0.1395l3.4846-0.1394l0.8362-0.1395h0.8362l0.8365-0.1394l4.8784-0.279l0.8362-0.1394l5.2965-0.2787
		c0-0.2528,1.243-0.1394,1.5332-0.1394l5.8541-0.2789l0.8362-0.1395l5.436-0.2789l0.8362-0.1395l3.7618-0.1678l0.1089,0.0941
		l0.7787-1.3533l-0.7466-0.9434h-2.3695l-3.6238,0.1395l-0.8365,0.1395h-0.8362c0,0.2373-0.8008,0.2095-0.9756,0l-0.1395-0.279
		l-0.1392-0.1394l-0.1395-0.2787l-0.1394-0.1394l-0.5576-0.8368l-0.1392-0.1392l-0.2789-0.4184l-0.1392-0.1395l-0.2789-0.4184
		l-0.1395-0.1394l-0.2786-0.4182l-0.1394-0.1394l-0.2787-0.4184l-0.1395-0.1394l-0.1395-0.1395l-0.6967-0.976l-0.1395-0.1394
		l-0.2787-0.4181l-0.1395-0.1395l-0.4181-0.5578l-0.1395-0.1395l-0.4181-0.5576l-0.1395-0.1395l-0.2786-0.4184l-0.1395-0.1395
		l-0.4181-0.5576l-0.1394-0.1395l-0.4182-0.5578l-0.1394-0.1395l-0.2787-0.4181l-0.1394-0.1394l-0.4181-0.5579l-0.1395-0.1395
		l-0.2787-0.4181l-0.1394-0.1395l-0.1392-0.1395l-0.1395-0.2789l-0.1394-0.1394l-0.1395-0.1395l-0.2786-0.4181l-0.1395-0.1395
		l0.1395-2.7887l0.1394-0.4184v-0.4181l0.1392-0.4184l0.1395-1.6732l0.1394-0.4181v-0.4184l0.1395-0.4184l0.1392-1.394
		l0.1394-0.1395l1.6728-1.6733l0.1392-0.1394l0.1394-0.1395l0.1395-0.2789l0.1392-0.1392l0.2789-0.5578l0.1395-0.1395l0.1392-0.4184
		l0.1395-0.1392v-0.1395l0.1395-0.1394l0.1392-0.5579l0.1394-0.1395v-0.2786l0.1395-0.1395v-0.2789l0.1394-0.2789l0.1392-0.9759
		l0.1395-0.279v-0.4184l0.1395-0.4182l0.1392-2.0917l0.1395-0.5576v-0.5579l0.1395-0.5576v-3.6252l-0.1395-0.2789v-0.4184
		l-0.1395-0.2789v-0.1392l-0.1392-0.1395l-0.279-0.6973l-0.1392-0.1395l-0.1394-0.2787l-0.1395-0.1394l-0.1394-0.1395
		l-0.1392-0.1394l-0.279-0.1395l-0.1392-0.1394l-0.4725-0.1463l0.3331-2.7819l0.1395-0.2786l0.1392-0.1395l0.6971-0.2789
		l0.1394-0.1394h0.1392l0.279-0.1395l0.6967-0.1395l0.2789-0.1394l0.8362-0.1395l0.2786-0.1392h0.2789l0.4182-0.1394h0.1394
		l0.4181-0.1395l1.9514-0.2789l0.4181-0.1395l1.5333-0.1395l0.4181-0.1395h0.4181l0.4181-0.1395l1.8122-0.1392l0.5573-0.1395h0.4184
		l0.5573-0.1395l1.9514-0.1394l0.5576-0.1395h0.5576l0.5576-0.1394l3.4846-0.2789l0.5576-0.1395l3.6238-0.2787l0.5576-0.1394
		l2.3695-0.1395l0.697-0.1394h0.5576l0.5576-0.1395l3.3452-0.2789l0.5576-0.1395l2.6481-0.2786l0.4182-0.1395h0.4181l0.2789-0.1394
		l1.3938-0.1395l0.4181-0.1395h0.4181l0.2789-0.1394l1.3938-0.1395l0.4181-0.1394h0.2787l0.4184-0.1392l1.2543-0.1395l0.2787-0.1394
		h0.4184l0.2787-0.1395l1.3938-0.1395l0.4181-0.1394h0.2789l0.2787-0.1395l1.5333-0.1394l0.4181-0.1395h0.2789l0.4181-0.1392
		l1.6725-0.1395l0.4181-0.1394h0.4184l0.4181-0.1395l3.2057-0.2789l0.6971-0.1394h0.6967v0.4184l0.1394,0.1395v0.2789l0.1395,0.2787
		v0.5578l0.1392,0.1395v0.5576l0.1395,0.2789v0.279l0.1395,0.2789l0.1395,1.1154l0.1392,0.2789v0.2787l0.1395,0.4184l0.2787,1.6733
		l0.1394,0.2786l0.1395,1.1158l0.1394,0.2786v0.4184l0.1392,0.2789v0.279l0.1395,0.2786l0.1394,0.9763l0.1392,0.1395l0.2789,0.1392
		l0.1394,0.1394l2.0906,0.279l0.1395,0.1394l0.1394,0.1395l0.5576,0.4184l0.1392,0.1392l0.1394,0.1395l0.1395,0.1395l0.1392,0.1394
		l0.9757,0.8365l0.1395,0.1395l1.2546,1.1154h0.9756l0.2787-0.1392h0.2786l0.1394-0.1395l2.0909-0.9763l0.1395-0.1392l0.2786-0.1395
		l0.1394-0.1394l0.2787-0.1395l0.1394-0.1394l0.1395-0.1395l0.1392-0.1394l0.1394-0.6971l-0.1394-0.1394l-0.1392-0.1395h-0.6971
		h-0.2786l-0.1395,0.1395l-2.2303,0.976l-0.1392,0.1395h-0.1395l-0.2787,0.1394l-0.386-0.0323l-0.8686-0.8042l-0.1394-0.1394
		l-0.1392-0.1395l-0.1395-0.1394l-0.697-0.5579l-0.1392-0.1394l-0.1395-0.1392l-0.1394-0.1395l-0.1392-0.1394l-0.1395-0.1395
		l-0.1394-0.1395l0.1394-7.9478l0.1395-0.4181l0.1392-0.1395l0.1394-0.1394l0.1395-0.1395l0.1392-0.1395l1.6728-1.5338
		l0.1394-0.1395l0.8362-0.6971l0.1395-0.1395l0.1392-0.1395l0.1394-0.1394l0.4181-0.2789l0.1395-0.1392l0.1394-0.1395l1.3938-1.1154
		l0.1395-0.1394l0.1392-0.1395l0.4181-0.2789l0.1395-0.1395l0.4181-0.2789l0.1394-0.1395l0.5576-0.4181l0.1395-0.1394l0.4181-0.2789
		l0.1392-0.1395l0.4184-0.2789l0.1392-0.1392l0.4181-0.2789l0.1394-0.1395l0.4181-0.2789l0.1395-0.1395l0.9757-0.697l0.1395-0.1395
		l0.2786-0.1394l0.1395-0.1395l0.9756-0.697l0.1395-0.1395l0.2786-0.1395l0.1394-0.1395l0.9757-0.697l0.1392-0.1395l0.2789-0.1394
		l0.1395-0.1395l0.1392-0.1394l0.2789-0.1395l0.1392-0.1395l0.1394-0.1394l0.1395-0.1395l0.1395-0.4181l0.1392-0.1394l0.1394-0.2789
		v-1.5338l-0.1394-0.2786V24.122l-0.1392-0.1395l-0.1395-0.4184l-0.1395-0.1394l-0.1394-0.2787l-0.1392-0.1394l-0.5576-0.5579
		l-0.1394-0.1394l-0.5576-0.2789l-0.1392-0.1392h-0.2789l-0.1395-0.1395c-0.436-0.0363-0.4949-0.1395-0.9757-0.1395
		c-0.3464,0-0.5241,0.3486-0.8362,0.5576l-0.1395,0.1395l-0.6967,0.5578l-0.1395,0.1395l-0.6967,0.5576l-0.1395,0.1395
		l-0.1395,0.1394l-0.5576,0.4184l-0.1392,0.1395l-0.8365,0.697l-0.1392,0.1395l-0.6971,0.5576l-0.1394,0.1394l-0.1392,0.1395
		l-0.4184,0.2789l-0.1392,0.1395l-0.1394,0.1394l-0.5576,0.4181l-0.1395,0.1395l-0.5573,0.4184l-0.1395,0.1394l-0.1394,0.1395
		l-0.2787,0.1394l-0.1394,0.1395l-0.1395,0.1392l-0.4181,0.2789l-0.1394,0.1394l-0.5573,0.4184l-0.1394,0.1395
		c-0.3674,0.1823,0.1148,0.1395-0.4181,0.1395h-2.0909v-2.0917l-0.1718-9.6202l-1.3615-0.6979l-0.4181-0.1392h-0.4182h-0.6971
		l-1.1149,0.1392l-0.1394,0.1395l-0.4181,0.4184l-0.1394,0.279l-0.1395,1.1154l-0.1392,0.279l-0.2789,1.673l-0.1394,0.2789v0.4184
		l-0.1392,0.2789l-0.1395,1.1154l-0.1395,0.4181v0.2789l-0.1392,0.2789l-0.1395,1.2549l-0.1395,0.2789v0.4181l-0.1395,0.2789v0.5579
		l-0.1392,0.1394v0.5576l-0.1395,0.2789v0.2789l-0.1394,0.4181l-0.1392,1.1154l-0.1395,0.279v0.4184l-0.1394,0.2789v0.2787
		l-0.1395,0.1395h-0.9757l-0.9757,0.1394l-4.7389,0.2789l-0.8362,0.1395h-0.697l-0.6968,0.1395h-1.2546l-0.6967,0.1395h-0.6971
		l-0.5576,0.1395l-3.6238,0.2786l-0.697,0.1395h-0.5576l-0.5576,0.1395l-2.23,0.1394l-0.5576,0.1395h-0.5575l-0.5576,0.1394
		l-2.0906,0.1395l-0.5576,0.1394h-0.5576l-0.4181,0.1392l-2.0909,0.1395l-0.5575,0.1394h-0.4181l-0.5576,0.1394l-1.9514,0.1395
		l-0.5576,0.1394h-0.4181l-0.5576,0.1395l-1.9513,0.1395l-0.5573,0.1394h-0.4184l-0.5573,0.1392l-1.8122,0.1395l-0.5576,0.1394
		h-0.4181l-0.5576,0.1395l-2.927,0.2789l-0.5573,0.1394l-2.9271,0.279l-0.5576,0.1392l-1.9513,0.1394l-0.5576,0.1395h-0.4181
		l-0.5576,0.1394h-0.5576l-0.5575,0.1395h-0.9757l-0.5576,0.1395h-0.5576l-0.5573,0.1394l-3.206,0.2789l-0.5575,0.1392
		l-3.4847,0.279l-0.5573,0.1394h-0.4184l-0.1392-0.1394h-0.1394l-0.1395-0.1395l-0.8362-0.2787l-0.1395-0.1394h-0.1392
		l-0.279-0.1395h-0.1395l-0.1392-0.1394l-0.5576-0.1395l-0.1395-0.1395l-0.5576-0.1394l-0.1392-0.1395l-0.5576-0.1394
		l-0.1395-0.1392h-0.2786l-0.1395-0.1395h-0.2789l-0.1392-0.1395h-0.2789l-0.1392-0.1394h-0.2789l-0.1395-0.1395l-0.5573-0.1394
		l-0.2789-0.1395h-0.2787l-0.1394-0.1394h-0.2787l-0.1394-0.1395l-0.6971-0.1392l-0.1392-0.1394l-0.8365-0.1395l-0.2787-0.1395
		h-0.1395l-0.2786-0.1394l-0.8365-0.1395l-0.2787-0.1394h-0.2786l-0.2789-0.1394l-0.9757-0.1395l-0.2787-0.1392
		c-0.654-0.1749-0.4181-0.6789-0.4181-1.5338l-0.1395-0.6973l-0.279-4.3223l-0.1392-0.8367v-0.8365l-0.1394-0.6971l-0.1395-3.2071
		l-0.1392-0.8365v-0.6973l-0.1394-0.8365l-0.1395-3.0674l-0.1395-0.8368v-0.6971l-0.1392-0.6973l-0.1394-0.1395l-0.5576-0.5576
		l-0.1394-0.1394l-0.2787-0.1395l-0.1395-0.1394l-0.5575-0.279l-0.1392-0.1392h-0.1395l-0.1394-0.1394h-0.1392l-0.1395-0.1395
		l-0.8362-0.1394l-0.1395-0.1395h-0.2789V9.6208c0-0.3251-0.1142-1.9519,0.1395-1.9519l0.1131-2.7902l1.4202,0.1409l0.6971,0.1394
		h0.5573l0.6971,0.1395l2.3695,0.1395l0.5576,0.1394h0.6971l0.5573,0.1392l2.3698,0.1395l0.5573,0.1394h0.5576l0.6971,0.1395
		l2.23,0.1395l0.5576,0.1394h0.6971l0.5576,0.1395l3.4843,0.2789l0.5576,0.1392l3.4846,0.2789l0.6971,0.1395l3.3451,0.2789
		l0.5576,0.1394l3.6238,0.279l0.5576,0.1392h0.5576l0.5576,0.1395l2.3695,0.1395l0.5575,0.1394h0.6968l0.5576,0.1395l2.3695,0.1394
		l0.5576,0.1395h0.5576l0.697,0.1394l2.3695,0.1395l0.6968,0.1392h0.5576l0.5576,0.1395l2.509,0.1394l0.5576,0.1395h0.6967
		l0.5576,0.1394l2.5089,0.1395l0.6971,0.1395h0.5576l0.6968,0.1394l2.5089,0.1395l0.6971,0.1392h0.6967l0.6971,0.1394l2.6481,0.1395
		l0.6971,0.1395h0.6967l0.6971,0.1394l4.1814,0.2789l0.8365,0.1395l2.9248,0.1726c0.0692-0.0287,0.3144-0.2384,0.4204-0.3121
		l0.1395-0.1394l0.4181-0.8365l0.1392-0.1395V9.6208l-0.1392-0.1395V9.3422l-0.1395-0.1395l-0.2786-0.2789l-0.1395-0.1394
		l-0.697-0.1395l-0.6968-0.1394l-4.4603-0.279l-0.6971-0.1392l-4.3209-0.279l-0.8362-0.1394L162.1029,7.39l-0.6967-0.1395h-0.6971
		l-0.6967-0.1395l-2.6484-0.1395l-0.8362-0.1392h-0.5576l-0.8362-0.1395l-2.5089-0.1394l-0.6971-0.1395l-3.9027-0.2789
		l-0.6968-0.1395h-0.697l-0.6968-0.1394l-2.5089-0.1395l-0.697-0.1392l-3.7633-0.2789l-0.6971-0.1395h-0.5576l-0.6967-0.1394
		l-2.3695-0.1395l-0.6971-0.1394h-0.5576l-0.6968-0.1395l-2.3695-0.1394l-0.5575-0.1392h-0.6971l-0.5575-0.1394l-2.3695-0.1395
		l-0.6968-0.1394h-0.5576l-0.5576-0.1395l-2.3695-0.1395l-0.5576-0.1395h-0.5576l-0.697-0.1395l-3.3452-0.2786l-0.5576-0.1395
		l-3.3452-0.2789l-0.5576-0.1394h-0.6968l-0.5576-0.1395l-2.0909-0.1395l-0.5576-0.1395l-2.5132-0.2395l0.0045-1.2941
		c0-0.4637-0.2503-0.4085-0.697-0.4184L104.677,0h-3.0665L101.0531,0.1395L101.0531,0.1395z"/>
</g>
</svg>
