<svg xmlns="http://www.w3.org/2000/svg" viewBox="0 0 128 128"><defs><style>.cls-1{fill:none;}</style></defs><title>icon</title><g id="Layer_2" data-name="Layer 2"><g id="Art"><rect class="cls-1" width="128" height="128"/><g id="Layer_1-2" data-name="Layer 1-2"><path id="_Compound_Path_" data-name=" Compound Path " d="M89,44.05a4.62,4.62,0,0,0-3.79,2H76a20.42,20.42,0,0,1-8.56-9.1,9.19,9.19,0,1,0-6.44,0A20.42,20.42,0,0,1,52.46,46H43.39a4.65,4.65,0,1,0-1.16,6.47,4.77,4.77,0,0,0,.85-.77h9.75l4.28,4.94h14l4.28-4.94H85.57A4.65,4.65,0,1,0,89.05,44ZM64.1,43.62a23.52,23.52,0,0,0,4.05,4.05v1.57h-7.9V47.53A24.56,24.56,0,0,0,64.1,43.62Zm0-19.73a4.45,4.45,0,1,1-4.45,4.45h0A4.45,4.45,0,0,1,64.1,23.89Z"/><polygon id="_Path_" data-name=" Path " points="71.11 62.79 57.08 62.79 52.03 58.54 76.16 58.54 71.11 62.79"/><polygon id="_Path_2" data-name=" Path 2" points="71.63 69.4 55.69 77.5 54.66 86.69 72.57 77.62 71.63 69.4"/><polygon id="_Path_3" data-name=" Path 3" points="72.85 80.33 54.32 89.77 53.32 98.95 73.79 88.54 72.85 80.33"/><polygon id="_Path_4" data-name=" Path 4" points="71.31 66.67 71.11 64.81 57.08 64.81 56.03 74.45 71.31 66.67"/><path id="_Path_5" data-name=" Path 5" d="M94.24,70.49a9.09,9.09,0,0,0-9.6,8.56c0,.26,0,.53,0,.79a7.09,7.09,0,0,0,6.24,7.1,4.87,4.87,0,0,0,5.22-4c.4-3.68-1.85-3.82-1.85-3.82-4.93,0-.8,4.07-3.37,4.16-1.36,0-1.31-1-1.31-3.48,0-1.31-.4-4,4.48-4s6.59,5.7,6.59,10.21S97.41,95.58,90.93,99a38.75,38.75,0,0,1-15.54,3.71L74.08,91.13,53,102v.85A38.78,38.78,0,0,1,37.26,99c-6.44-3.56-9.69-8.55-9.69-13.11s1.71-10.21,6.58-10.21,4.6,2.76,4.6,4.08c0,2.5,0,3.53-1.32,3.47-2.56,0,1.57-4.16-3.36-4.16,0,0-2.25,0-1.85,3.82a4.86,4.86,0,0,0,5.1,4,7.11,7.11,0,0,0,6.25-7.1,9.09,9.09,0,0,0-8.88-9.3,5.9,5.9,0,0,0-.73,0C28,70.49,21.64,76.79,21.64,86a23.24,23.24,0,0,0,14.25,21c10.56,4.7,24.13,8.24,27.41,12.43,0,0,.37.8.74.77s.66-.8.66-.77c3.25-4.19,16.85-7.73,27.4-12.43a23.25,23.25,0,0,0,14.26-21C106.56,76.79,100.17,70.49,94.24,70.49Z"/><rect id="_Rectangle_2" data-name=" Rectangle 2" x="44.14" y="29.91" width="6.82" height="1.77" rx="0.83" ry="0.83"/><rect id="_Rectangle_3" data-name=" Rectangle 3" x="77.61" y="29.91" width="6.82" height="1.77" rx="0.83" ry="0.83"/><rect id="_Rectangle_4" data-name=" Rectangle 4" x="63.41" y="7.75" width="1.77" height="6.82" rx="0.83" ry="0.83"/><rect id="_Rectangle_5" data-name=" Rectangle 5" x="53.65" y="9.58" width="1.77" height="6.82" rx="0.83" ry="0.83" transform="translate(6.79 42.36) rotate(-45)"/><rect id="_Rectangle_6" data-name=" Rectangle 6" x="70.65" y="12.07" width="6.82" height="1.77" rx="0.83" ry="0.83" transform="translate(12.53 56.16) rotate(-45)"/><g id="_Group_" data-name=" Group "><rect id="_Rectangle_7" data-name=" Rectangle 7" x="76.95" y="19.98" width="6.82" height="1.77" rx="0.83" ry="0.83" transform="translate(-0.07 41.45) rotate(-28.91)"/><rect id="_Rectangle_8" data-name=" Rectangle 8" x="47.34" y="17.45" width="1.77" height="6.82" rx="0.83" ry="0.83" transform="translate(6.65 52.99) rotate(-61.09)"/></g></g></g></g></svg>