<svg xmlns="http://www.w3.org/2000/svg" viewBox="0 0 29.78 39.45"><defs><style>.cls-1{fill:#ffb716;}.cls-2{fill:#0082cb;}</style></defs><title>logo-ays-symbol</title><g id="Layer_2" data-name="Layer 2"><g id="Layer_1-2" data-name="Layer 1"><rect id="_Rectangle_" data-name="&lt;Rectangle&gt;" class="cls-1" x="12.53" y="4.72" width="4.71" height="4.71" rx="2.17" ry="2.17"/><path id="_Compound_Path_" data-name="&lt;Compound Path&gt;" class="cls-2" d="M23.62,12.73a1.62,1.62,0,0,0-1.33.69H19.07a7.16,7.16,0,0,1-3-3.19,3.22,3.22,0,1,0-2.26,0,7.16,7.16,0,0,1-3,3.19H7.63a1.63,1.63,0,1,0-.11,2h3.42l1.5,1.73h4.92l1.5-1.73h3.56a1.63,1.63,0,1,0,1.22-2.7Zm-8.73-.15A8.42,8.42,0,0,0,16.31,14v.55H13.54v-.6A8.63,8.63,0,0,0,14.89,12.58Zm0-6.92a1.56,1.56,0,1,1-1.56,1.56A1.56,1.56,0,0,1,14.89,5.66Z"/><polygon id="_Path_" data-name="&lt;Path&gt;" class="cls-2" points="17.35 19.3 12.43 19.3 10.66 17.81 19.12 17.81 17.35 19.3"/><polygon id="_Path_2" data-name="&lt;Path&gt;" class="cls-1" points="17.53 21.62 11.94 24.46 11.58 27.68 17.86 24.5 17.53 21.62"/><polygon id="_Path_3" data-name="&lt;Path&gt;" class="cls-1" points="17.96 25.45 11.46 28.76 11.11 31.98 18.29 28.33 17.96 25.45"/><polygon id="_Path_4" data-name="&lt;Path&gt;" class="cls-1" points="17.42 20.66 17.35 20.01 12.43 20.01 12.06 23.39 17.42 20.66"/><path id="_Path_5" data-name="&lt;Path&gt;" class="cls-2" d="M25.46,22a3.19,3.19,0,0,0-3.37,3.28,2.49,2.49,0,0,0,2.19,2.49,1.71,1.71,0,0,0,1.83-1.39c.14-1.29-.65-1.34-.65-1.34-1.73,0-.28,1.43-1.18,1.46-.48,0-.46-.35-.46-1.22,0-.46-.14-1.39,1.57-1.39s2.31,2,2.31,3.58S26.57,30.8,24.3,32a13.63,13.63,0,0,1-5.45,1.3l-.46-4.06L11,33.05l0,.3A13.67,13.67,0,0,1,5.48,32c-2.26-1.25-3.4-3-3.4-4.6s.6-3.58,2.31-3.58S6,24.79,6,25.25c0,.88,0,1.24-.46,1.22-.9,0,.55-1.46-1.18-1.46,0,0-.79,0-.65,1.34A1.71,1.71,0,0,0,5.5,27.75a2.49,2.49,0,0,0,2.19-2.49A3.19,3.19,0,0,0,4.32,22C2.24,22,0,24.21,0,27.45a8.15,8.15,0,0,0,5,7.37c3.7,1.65,8.46,2.89,9.61,4.36,0,0,.13.28.26.27s.23-.28.23-.27c1.14-1.47,5.91-2.71,9.61-4.36a8.15,8.15,0,0,0,5-7.37C29.78,24.21,27.54,22,25.46,22Z"/><rect id="_Rectangle_2" data-name="&lt;Rectangle&gt;" class="cls-1" x="7.89" y="7.77" width="2.39" height="0.62" rx="0.29" ry="0.29"/><rect id="_Rectangle_3" data-name="&lt;Rectangle&gt;" class="cls-1" x="19.63" y="7.77" width="2.39" height="0.62" rx="0.29" ry="0.29"/><rect id="_Rectangle_4" data-name="&lt;Rectangle&gt;" class="cls-1" x="13.76" y="0.88" width="2.39" height="0.62" rx="0.29" ry="0.29" transform="translate(16.15 -13.76) rotate(90)"/><rect id="_Rectangle_5" data-name="&lt;Rectangle&gt;" class="cls-1" x="10.34" y="1.53" width="2.39" height="0.62" rx="0.29" ry="0.29" transform="translate(4.68 -7.62) rotate(45)"/><rect id="_Rectangle_6" data-name="&lt;Rectangle&gt;" class="cls-1" x="17.19" y="1.51" width="2.39" height="0.62" rx="0.29" ry="0.29" transform="translate(32.67 -9.89) rotate(135)"/><g id="_Group_" data-name="&lt;Group&gt;"><rect id="_Rectangle_7" data-name="&lt;Rectangle&gt;" class="cls-1" x="19.4" y="4.28" width="2.39" height="0.62" rx="0.29" ry="0.29" transform="translate(40.84 -1.34) rotate(151.09)"/><rect id="_Rectangle_8" data-name="&lt;Rectangle&gt;" class="cls-1" x="8.13" y="4.28" width="2.39" height="0.62" rx="0.29" ry="0.29" transform="translate(3.38 -3.93) rotate(28.91)"/></g></g></g></svg>