<svg xmlns="http://www.w3.org/2000/svg" viewBox="0 0 210.4 39.67"><defs><style>.cls-1{fill:#ffb716;}.cls-2{fill:#0082cb;}</style></defs><title>logo-ays-horizontal</title><g id="Layer_2" data-name="Layer 2"><g id="Layer_1-2" data-name="Layer 1"><rect id="_Rectangle_" data-name="&lt;Rectangle&gt;" class="cls-1" x="12.53" y="4.72" width="4.71" height="4.71" rx="2.17" ry="2.17"/><path id="_Compound_Path_" data-name="&lt;Compound Path&gt;" class="cls-2" d="M23.62,12.73a1.62,1.62,0,0,0-1.33.69H19.07a7.16,7.16,0,0,1-3-3.19,3.22,3.22,0,1,0-2.26,0,7.16,7.16,0,0,1-3,3.19H7.63a1.63,1.63,0,1,0-.11,2h3.42l1.5,1.73h4.92l1.5-1.73h3.56a1.63,1.63,0,1,0,1.22-2.7Zm-8.73-.15A8.42,8.42,0,0,0,16.31,14v.55H13.54v-.6A8.63,8.63,0,0,0,14.89,12.58Zm0-6.92a1.56,1.56,0,1,1-1.56,1.56A1.56,1.56,0,0,1,14.89,5.66Z"/><polygon id="_Path_" data-name="&lt;Path&gt;" class="cls-2" points="17.35 19.3 12.43 19.3 10.66 17.81 19.12 17.81 17.35 19.3"/><polygon id="_Path_2" data-name="&lt;Path&gt;" class="cls-1" points="17.53 21.62 11.94 24.46 11.58 27.68 17.86 24.5 17.53 21.62"/><polygon id="_Path_3" data-name="&lt;Path&gt;" class="cls-1" points="17.96 25.45 11.46 28.76 11.11 31.98 18.29 28.33 17.96 25.45"/><polygon id="_Path_4" data-name="&lt;Path&gt;" class="cls-1" points="17.42 20.66 17.35 20.01 12.43 20.01 12.06 23.39 17.42 20.66"/><path id="_Path_5" data-name="&lt;Path&gt;" class="cls-2" d="M25.46,22a3.19,3.19,0,0,0-3.37,3.28,2.49,2.49,0,0,0,2.19,2.49,1.71,1.71,0,0,0,1.83-1.39c.14-1.29-.65-1.34-.65-1.34-1.73,0-.28,1.43-1.18,1.46-.48,0-.46-.35-.46-1.22,0-.46-.14-1.39,1.57-1.39s2.31,2,2.31,3.58S26.57,30.8,24.3,32a13.63,13.63,0,0,1-5.45,1.3l-.46-4.06L11,33.05l0,.3A13.67,13.67,0,0,1,5.48,32c-2.26-1.25-3.4-3-3.4-4.6s.6-3.58,2.31-3.58S6,24.79,6,25.25c0,.88,0,1.24-.46,1.22-.9,0,.55-1.46-1.18-1.46,0,0-.79,0-.65,1.34A1.71,1.71,0,0,0,5.5,27.75a2.49,2.49,0,0,0,2.19-2.49A3.19,3.19,0,0,0,4.32,22C2.24,22,0,24.21,0,27.45a8.15,8.15,0,0,0,5,7.37c3.7,1.65,8.46,2.89,9.61,4.36,0,0,.13.28.26.27s.23-.28.23-.27c1.14-1.47,5.91-2.71,9.61-4.36a8.15,8.15,0,0,0,5-7.37C29.78,24.21,27.54,22,25.46,22Z"/><rect id="_Rectangle_2" data-name="&lt;Rectangle&gt;" class="cls-1" x="7.89" y="7.77" width="2.39" height="0.62" rx="0.29" ry="0.29"/><rect id="_Rectangle_3" data-name="&lt;Rectangle&gt;" class="cls-1" x="19.63" y="7.77" width="2.39" height="0.62" rx="0.29" ry="0.29"/><rect id="_Rectangle_4" data-name="&lt;Rectangle&gt;" class="cls-1" x="13.76" y="0.88" width="2.39" height="0.62" rx="0.29" ry="0.29" transform="translate(16.15 -13.76) rotate(90)"/><rect id="_Rectangle_5" data-name="&lt;Rectangle&gt;" class="cls-1" x="10.34" y="1.53" width="2.39" height="0.62" rx="0.29" ry="0.29" transform="translate(4.68 -7.62) rotate(45)"/><rect id="_Rectangle_6" data-name="&lt;Rectangle&gt;" class="cls-1" x="17.19" y="1.51" width="2.39" height="0.62" rx="0.29" ry="0.29" transform="translate(32.67 -9.89) rotate(135)"/><g id="_Group_" data-name="&lt;Group&gt;"><rect id="_Rectangle_7" data-name="&lt;Rectangle&gt;" class="cls-1" x="19.4" y="4.28" width="2.39" height="0.62" rx="0.29" ry="0.29" transform="translate(40.84 -1.34) rotate(151.09)"/><rect id="_Rectangle_8" data-name="&lt;Rectangle&gt;" class="cls-1" x="8.13" y="4.28" width="2.39" height="0.62" rx="0.29" ry="0.29" transform="translate(3.38 -3.93) rotate(28.91)"/></g><g id="_Group_2" data-name="&lt;Group&gt;"><path id="_Path_6" data-name="&lt;Path&gt;" class="cls-1" d="M102.09,31H75.7a.36.36,0,0,1,0-.72h26.39a.36.36,0,1,1,0,.72Z"/><path id="_Path_7" data-name="&lt;Path&gt;" class="cls-1" d="M170.31,31H143.92a.36.36,0,0,1,0-.72h26.39a.36.36,0,0,1,0,.72Z"/></g><g id="_Group_3" data-name="&lt;Group&gt;"><path id="_Compound_Path_2" data-name="&lt;Compound Path&gt;" class="cls-2" d="M117.61,25.38a1.31,1.31,0,0,0-.46-.95,2.53,2.53,0,0,0-1.82-.63,6.71,6.71,0,0,0-2.25.45,3.55,3.55,0,0,0-1.12.63,1.74,1.74,0,0,0-.73,1.26,1.87,1.87,0,0,0,1.08,1.52q.4.24,1.62.8a17.66,17.66,0,0,1,1.77.9,3.17,3.17,0,0,1,1.17,1.11,2.29,2.29,0,0,1,.32,1.09A2.73,2.73,0,0,1,116.7,33a7.08,7.08,0,0,1-2.44,2.3,8.48,8.48,0,0,1-4.47,1.12,5.89,5.89,0,0,1-4-1.28,3.14,3.14,0,0,1-1.15-2.51,4.25,4.25,0,0,1,.71-2.15,4.11,4.11,0,0,1,1.75-1.67.57.57,0,0,1,.32-.06c.07,0,0,.11-.18.27a4.37,4.37,0,0,0-1,1.08,5,5,0,0,0-.8,2.74,2.78,2.78,0,0,0,.55,1.71,4.38,4.38,0,0,0,3.39,1.48q.27,0,.81,0a7.62,7.62,0,0,0,1.46-.19,7,7,0,0,0,1.79-.64,4.67,4.67,0,0,0,2.4-2.53,2.52,2.52,0,0,0,.17-.89,2.22,2.22,0,0,0-.88-1.72,9.84,9.84,0,0,0-1.93-1,14.79,14.79,0,0,1-2-1,2.13,2.13,0,0,1-1.11-1.77,2.35,2.35,0,0,1,1-1.74,6,6,0,0,1,4-1.21,4.64,4.64,0,0,1,2,.37,1.6,1.6,0,0,1,.94,1.1,1.43,1.43,0,0,1,0,.29,1.31,1.31,0,0,1-.52,1,2.72,2.72,0,0,1-1,.46c-.17,0-.27,0-.29-.06s.1-.2.36-.23a.9.9,0,0,0,.85-.69A1.12,1.12,0,0,0,117.61,25.38Z"/><path id="_Compound_Path_3" data-name="&lt;Compound Path&gt;" class="cls-2" d="M117.93,34.3a3,3,0,0,1,.53-1.49c-.15,0-.2-.08-.13-.23l.26-.5q.49-.93.8-1.58a.56.56,0,0,1,.56-.3h.88a3.9,3.9,0,0,0-1,1.44q-.52,1.07-.81,1.68a2.45,2.45,0,0,0-.29.93.71.71,0,0,0,.11.45.36.36,0,0,0,.29.13q.27,0,.76-.57A20.09,20.09,0,0,0,122,30.5a.58.58,0,0,1,.56-.3h.78a2.3,2.3,0,0,0-.5.5,7.33,7.33,0,0,0-.5.92,11.42,11.42,0,0,0-1,2.28,1.82,1.82,0,0,0,0,.37c0,.31.11.47.32.49q.78,0,1.91-2.4.09-.2.17-.16a.13.13,0,0,1,.09.12,1.1,1.1,0,0,1-.13.33l-.25.5c-.08.16-.21.38-.37.67a4.45,4.45,0,0,1-.47.67,1.54,1.54,0,0,1-1.1.63.73.73,0,0,1-.74-.47,1.48,1.48,0,0,1-.09-.55,3,3,0,0,1,.14-.82q-1,1.84-1.94,1.84a.8.8,0,0,1-.9-.65A.32.32,0,0,1,117.93,34.3Z"/><path id="_Compound_Path_4" data-name="&lt;Compound Path&gt;" class="cls-2" d="M127.86,31.23a3.54,3.54,0,0,1-.33,1.39,6.14,6.14,0,0,1-.91,1.46,2.94,2.94,0,0,1-1.42,1,2.75,2.75,0,0,1-.72.09,1.93,1.93,0,0,1-.9-.26l-1.36,3.4a1.7,1.7,0,0,1-.4.6.6.6,0,0,1-.36.14h-.21L121,39a1.17,1.17,0,0,0-.34,0,18.13,18.13,0,0,0,1.6-2.87,17.49,17.49,0,0,0,1.46-3.45c-.11.15-.21.23-.3.24s-.06-.05,0-.17.15-.32.29-.64a3,3,0,0,0,.26-1.14c0-.35-.07-.55-.2-.61a8.36,8.36,0,0,1,1-.14.17.17,0,0,1,.18.12.84.84,0,0,1,0,.26,5.63,5.63,0,0,1-.4,2l.29-.46a7.43,7.43,0,0,1,.75-1.08l.51-.5a1.2,1.2,0,0,1,.8-.4.77.77,0,0,1,.22,0Q127.86,30.3,127.86,31.23Zm-.69-.14a1,1,0,0,0-.09-.42.31.31,0,0,0-.29-.19q-.5,0-1.17.93a33.57,33.57,0,0,0-1.92,3.26.7.7,0,0,0,.52.19,1.75,1.75,0,0,0,.93-.5,6.78,6.78,0,0,0,1.61-2A2.87,2.87,0,0,0,127.17,31.09Z"/><path id="_Compound_Path_5" data-name="&lt;Compound Path&gt;" class="cls-2" d="M132.69,31.23a3.54,3.54,0,0,1-.33,1.39,6.14,6.14,0,0,1-.91,1.46,2.94,2.94,0,0,1-1.42,1,2.75,2.75,0,0,1-.72.09,1.93,1.93,0,0,1-.9-.26L127,38.28a1.7,1.7,0,0,1-.4.6.6.6,0,0,1-.36.14h-.21l-.26,0a1.17,1.17,0,0,0-.34,0,18.13,18.13,0,0,0,1.6-2.87,17.49,17.49,0,0,0,1.46-3.45c-.11.15-.21.23-.3.24s-.06-.05,0-.17.15-.32.29-.64a3,3,0,0,0,.26-1.14c0-.35-.07-.55-.2-.61a8.36,8.36,0,0,1,1-.14.17.17,0,0,1,.18.12.84.84,0,0,1,0,.26,5.63,5.63,0,0,1-.4,2l.29-.46a7.43,7.43,0,0,1,.75-1.08l.51-.5a1.2,1.2,0,0,1,.8-.4.77.77,0,0,1,.22,0Q132.69,30.3,132.69,31.23Zm-.69-.14a1,1,0,0,0-.09-.42.31.31,0,0,0-.29-.19q-.5,0-1.17.93a33.57,33.57,0,0,0-1.92,3.26.7.7,0,0,0,.52.19,1.75,1.75,0,0,0,.93-.5,6.78,6.78,0,0,0,1.61-2A2.87,2.87,0,0,0,132,31.09Z"/><path id="_Compound_Path_6" data-name="&lt;Compound Path&gt;" class="cls-2" d="M133.87,32.76c-.08.23-.14.44-.19.65a2.48,2.48,0,0,0-.08.62,1.19,1.19,0,0,0,.14.58.49.49,0,0,0,.46.27,1.32,1.32,0,0,0,1-.7,14.56,14.56,0,0,0,1-1.77c.08-.13.15-.19.22-.16a.11.11,0,0,1,0,.15l-.18.4c-.09.21-.16.35-.2.43l-.23.43a3,3,0,0,1-.29.46l-.33.39a1.9,1.9,0,0,1-1.34.67,1.09,1.09,0,0,1-.69-.19.76.76,0,0,1-.29-.42,1.82,1.82,0,0,1,0-.39q0-.17,0-.45a4.18,4.18,0,0,1,.18-.89l.15-.49a20,20,0,0,1,.94-2.6,20,20,0,0,1,1-2.12,6.06,6.06,0,0,1,.67-1,1.37,1.37,0,0,1,1-.52q.33,0,.45.47a1.33,1.33,0,0,1,0,.22,3.12,3.12,0,0,1-.34,1.24A13,13,0,0,1,134,32.36ZM135.56,30a14,14,0,0,0,1.06-1.93A3.57,3.57,0,0,0,137,27c0-.19,0-.29-.1-.29s-.28.19-.55.57a14.3,14.3,0,0,0-1.08,2q-.68,1.47-1.11,2.58A11.37,11.37,0,0,0,135.56,30Z"/><path id="_Compound_Path_7" data-name="&lt;Compound Path&gt;" class="cls-2" d="M134.27,39.67a1.57,1.57,0,0,1-1-.27.78.78,0,0,1-.34-.64,2.09,2.09,0,0,1,.21-.85,2.68,2.68,0,0,1,1.35-1.18,10.57,10.57,0,0,1,1.94-.64l1.55-.4a17.92,17.92,0,0,0,1.24-3.23,11.29,11.29,0,0,1-1.39,2.05,1.6,1.6,0,0,1-1.13.59.8.8,0,0,1-.91-.65.48.48,0,0,1,0-.3c0-.13,0-.23,0-.29a1,1,0,0,1,.09-.28c.06-.13.1-.22.12-.28.11-.22.2-.39.27-.52-.15,0-.2-.08-.13-.23l.26-.5q.49-.93.8-1.58a.56.56,0,0,1,.56-.3h.88l-.14.12a1.18,1.18,0,0,0-.39.4q-.52.89-1.29,2.54a2.72,2.72,0,0,0-.32,1,.7.7,0,0,0,.11.45.36.36,0,0,0,.29.13c.18,0,.44-.19.76-.57a18.14,18.14,0,0,0,2.25-3.75.58.58,0,0,1,.56-.3h.78a1.88,1.88,0,0,0-.59.65,8.32,8.32,0,0,0-.47,1.07q-.25.68-.63,1.79T139,35.4A3.75,3.75,0,0,0,141.08,34a15.16,15.16,0,0,0,.9-1.58c.07-.13.13-.19.18-.16a.13.13,0,0,1,.08.12,2.71,2.71,0,0,1-.24.55q-.24.48-.48.89a5.45,5.45,0,0,1-.63.84,3.13,3.13,0,0,1-.86.68,10.33,10.33,0,0,1-1.26.54,10.48,10.48,0,0,1-2.23,3A3.5,3.5,0,0,1,134.27,39.67Zm-.83-1.42a1.31,1.31,0,0,0-.16.58.47.47,0,0,0,.2.41.84.84,0,0,0,.5.14,2.76,2.76,0,0,0,1.78-.85,12.15,12.15,0,0,0,1.67-1.83l.32-.53a25.9,25.9,0,0,0-3,.89A2.57,2.57,0,0,0,133.44,38.25Z"/></g><g id="_Group_4" data-name="&lt;Group&gt;"><path id="_Compound_Path_8" data-name="&lt;Compound Path&gt;" class="cls-2" d="M50.07,17.21h.18v.2H43.84v-.2H44a.78.78,0,0,0,.65-.27.85.85,0,0,0,.21-.51,1.26,1.26,0,0,0-.1-.48l-1-2.47H39.09l-1,2.47a1.39,1.39,0,0,0-.1.49.82.82,0,0,0,.22.5.81.81,0,0,0,.66.27H39v.2h-4.3v-.2h.18a1.76,1.76,0,0,0,.92-.28,2.13,2.13,0,0,0,.76-.84L41.2,5.57a10.63,10.63,0,0,0,1-2.63h.18l6,13.11a2.18,2.18,0,0,0,.76.88A1.75,1.75,0,0,0,50.07,17.21ZM39.43,12.62h4l-2-4.95Z"/><path id="_Compound_Path_9" data-name="&lt;Compound Path&gt;" class="cls-2" d="M66.9,17.21h.28v.2H61.59v-.2h.28a.61.61,0,0,0,.55-.26.77.77,0,0,0,.13-.54l-.78-5.75-3.2,5.09a4,4,0,0,0-.72,2.05h-.18l-4.64-7-.68,5.65a.74.74,0,0,0,.14.54.61.61,0,0,0,.54.26h.28v.2H49.49v-.2h.28a1.38,1.38,0,0,0,.88-.29,1.14,1.14,0,0,0,.43-.79l1.57-11h.16l5.69,8.5,5.33-8.5H64l1.61,11.14a1.16,1.16,0,0,0,.46.72A1.37,1.37,0,0,0,66.9,17.21Z"/><path id="_Compound_Path_10" data-name="&lt;Compound Path&gt;" class="cls-2" d="M77.13,17.41H67.66v-.2h.24a1.08,1.08,0,0,0,1.11-1V6.59a1.08,1.08,0,0,0-1.11-1h-.24v-.2h7.08a7.68,7.68,0,0,0,1.19-.1,5,5,0,0,0,.91-.2v3.2h-.2V8.06a1.92,1.92,0,0,0-.48-1.39,1.85,1.85,0,0,0-1.35-.52H71.9V11H74.2a1.52,1.52,0,0,0,1.11-.46,1.56,1.56,0,0,0,.42-1.13V9.31h.2v4.26h-.2v-.14a1.47,1.47,0,0,0-.7-1.37,1.51,1.51,0,0,0-.8-.22H71.9V16.6h2.41a3.22,3.22,0,0,0,2.12-.77,4.33,4.33,0,0,0,1.28-2.12h.18Z"/><path id="_Compound_Path_11" data-name="&lt;Compound Path&gt;" class="cls-2" d="M83.91,6.17h-.64v10a1,1,0,0,0,.33.77,1.11,1.11,0,0,0,.75.29h.22v.2H79v-.2h.24a1,1,0,0,0,.75-.3,1,1,0,0,0,.31-.74V6.59A1,1,0,0,0,80,5.85a1,1,0,0,0-.73-.3H79v-.2h6.17a6,6,0,0,1,3,.7,2.76,2.76,0,0,1,1.37,2.59,3.4,3.4,0,0,1-.7,2.1,3,3,0,0,1-2.09,1.14,3,3,0,0,1,1.08.68,5.13,5.13,0,0,1,.85,1,20.16,20.16,0,0,0,1.35,2.1,5.31,5.31,0,0,0,1.14,1.24,1.9,1.9,0,0,0,1.06.28v.2H90.6A6.44,6.44,0,0,1,88,17a3.78,3.78,0,0,1-1.6-1.53,10.84,10.84,0,0,1-1.35-2.73,2.42,2.42,0,0,0-.57-.9,1.22,1.22,0,0,0-.63-.34v-.16h.5q1.71,0,2.09-2a2.06,2.06,0,0,0,.08-.52q0-.22,0-.61a2.42,2.42,0,0,0-.25-.88,1.6,1.6,0,0,0-.59-.71,2.6,2.6,0,0,0-1.29-.4Z"/><path id="_Compound_Path_12" data-name="&lt;Compound Path&gt;" class="cls-2" d="M92.11,17.21h.24a1.18,1.18,0,0,0,.82-.31,1,1,0,0,0,.34-.75V6.61a1,1,0,0,0-.34-.75,1.18,1.18,0,0,0-.82-.31h-.24v-.2h5.71v.2h-.24a1.17,1.17,0,0,0-.8.3,1,1,0,0,0-.36.74v9.55a1,1,0,0,0,.36.76,1.17,1.17,0,0,0,.8.3h.24v.2H92.11Z"/><path id="_Compound_Path_13" data-name="&lt;Compound Path&gt;" class="cls-2" d="M100.94,16A5.76,5.76,0,0,1,99,11.38a5.8,5.8,0,0,1,1.92-4.62,7.84,7.84,0,0,1,5.32-1.67,10.13,10.13,0,0,1,4.52.92V9.2h-.14a4.56,4.56,0,0,0-1.55-2.55,4.34,4.34,0,0,0-2.63-.76,3.87,3.87,0,0,0-3.26,1.46,6.36,6.36,0,0,0-1.13,4,6.57,6.57,0,0,0,1.11,4,3.69,3.69,0,0,0,3.12,1.53,5.45,5.45,0,0,0,2.35-.44A3.29,3.29,0,0,0,110.11,15a8.08,8.08,0,0,0,.8-2.64h.14l.24,3a4.4,4.4,0,0,1-1.9,1.65,7.13,7.13,0,0,1-3.15.62A8,8,0,0,1,100.94,16Z"/><path id="_Compound_Path_14" data-name="&lt;Compound Path&gt;" class="cls-2" d="M125.61,17.21h.16v.2h-5.91v-.2H120a.68.68,0,0,0,.58-.24.76.76,0,0,0,.18-.44,1.25,1.25,0,0,0-.08-.42l-.78-1.85h-4.26l-.8,1.87a1.1,1.1,0,0,0-.08.41A.71.71,0,0,0,115,17a.73.73,0,0,0,.59.23h.16v.2h-4v-.2h.16a1.59,1.59,0,0,0,.84-.26,1.87,1.87,0,0,0,.68-.78l4.16-8.93a12.27,12.27,0,0,0,.92-2.45h.18L124,16.08a1.87,1.87,0,0,0,.69.85A1.63,1.63,0,0,0,125.61,17.21ZM116,13.47h3.58l-1.77-4.2Z"/><path id="_Compound_Path_15" data-name="&lt;Compound Path&gt;" class="cls-2" d="M134.78,5.34h5.65v.2h-.34a1.11,1.11,0,0,0-.77.28,1,1,0,0,0-.33.72v8.79a10.74,10.74,0,0,0,.16,2.05l0,.28H139l-9.23-8.14v6.66a1,1,0,0,0,.33.73,1.09,1.09,0,0,0,.77.29h.34v.2h-5.63v-.2h.32a1.13,1.13,0,0,0,.78-.29,1,1,0,0,0,.32-.73V7.33a10.15,10.15,0,0,0-.16-2l0-.28.18,0,9.21,8.1V6.57a1,1,0,0,0-.31-.73,1.09,1.09,0,0,0-.77-.29h-.34Z"/><path id="_Compound_Path_16" data-name="&lt;Compound Path&gt;" class="cls-2" d="M160.63,3.53h-.28a2.11,2.11,0,0,0-1.15.34,2.81,2.81,0,0,0-.86.82l-4,6.31v4.93a1.2,1.2,0,0,0,.38.89,1.25,1.25,0,0,0,.9.37h.24l0,.2h-6.11v-.2h.26a1.24,1.24,0,0,0,.89-.36,1.26,1.26,0,0,0,.39-.88V11l-3.84-6.31a2.51,2.51,0,0,0-.85-.81,2.19,2.19,0,0,0-1.14-.33h-.28v-.2h6.66v.2h-.26a.76.76,0,0,0-.68.4.86.86,0,0,0,0,.84L153.82,10l3-5.23a.92.92,0,0,0,.1-.41.71.71,0,0,0-.14-.41.75.75,0,0,0-.68-.42h-.24v-.2h4.79Z"/><path id="_Compound_Path_17" data-name="&lt;Compound Path&gt;" class="cls-2" d="M170.5,17.21h.16v.2h-5.91v-.2h.16a.68.68,0,0,0,.58-.24.76.76,0,0,0,.18-.44,1.25,1.25,0,0,0-.08-.42l-.78-1.85h-4.26l-.8,1.87a1.1,1.1,0,0,0-.08.41.71.71,0,0,0,.19.44.73.73,0,0,0,.59.23h.16v.2h-4v-.2h.16a1.59,1.59,0,0,0,.84-.26,1.87,1.87,0,0,0,.68-.78l4.16-8.93a12.27,12.27,0,0,0,.92-2.45h.18l5.39,11.3a1.87,1.87,0,0,0,.69.85A1.63,1.63,0,0,0,170.5,17.21Zm-9.61-3.74h3.58l-1.77-4.2Z"/><path id="_Compound_Path_18" data-name="&lt;Compound Path&gt;" class="cls-2" d="M172.37,16a5.76,5.76,0,0,1-1.93-4.61,5.8,5.8,0,0,1,1.92-4.62,7.84,7.84,0,0,1,5.32-1.67,10.13,10.13,0,0,1,4.52.92V9.2h-.14a4.56,4.56,0,0,0-1.55-2.55,4.34,4.34,0,0,0-2.63-.76,3.87,3.87,0,0,0-3.26,1.46,6.36,6.36,0,0,0-1.13,4,6.57,6.57,0,0,0,1.11,4,3.69,3.69,0,0,0,3.12,1.53,5.45,5.45,0,0,0,2.35-.44A3.29,3.29,0,0,0,181.54,15a8.08,8.08,0,0,0,.8-2.64h.14l.24,3a4.4,4.4,0,0,1-1.9,1.65,7.13,7.13,0,0,1-3.15.62A8,8,0,0,1,172.37,16Z"/><path id="_Compound_Path_19" data-name="&lt;Compound Path&gt;" class="cls-2" d="M197.67,17.21h.22v.2h-5.53v-.2h.2a1.1,1.1,0,0,0,.78-.3,1,1,0,0,0,.32-.76V11.8h-5.29v4.34a1.06,1.06,0,0,0,.34.76,1.08,1.08,0,0,0,.76.3h.22v.2h-5.55v-.2h.22a1.08,1.08,0,0,0,.78-.31,1,1,0,0,0,.32-.75V6.61a1,1,0,0,0-.32-.75,1.08,1.08,0,0,0-.78-.31h-.22v-.2h5.55v.2h-.22a1.08,1.08,0,0,0-.76.3,1,1,0,0,0-.34.74V11h5.29V6.61a1,1,0,0,0-.54-.92,1.17,1.17,0,0,0-.56-.14h-.2v-.2h5.53v.2h-.22a1.1,1.1,0,0,0-1.11,1.07v9.55a1,1,0,0,0,.54.91A1.17,1.17,0,0,0,197.67,17.21Z"/><path id="_Compound_Path_20" data-name="&lt;Compound Path&gt;" class="cls-2" d="M210.19,8.2V8a1.89,1.89,0,0,0-.48-1.37,1.84,1.84,0,0,0-1.35-.52H206v10a1,1,0,0,0,.34.74,1.08,1.08,0,0,0,.76.3h.22v.2h-5.55v-.2h.2a1.1,1.1,0,0,0,.78-.3,1,1,0,0,0,.32-.76v-10H200.8a1.87,1.87,0,0,0-1.37.52A1.89,1.89,0,0,0,199,8V8.2h-.2V5a5.53,5.53,0,0,0,.93.2,7.77,7.77,0,0,0,1.18.1h7.42a6.68,6.68,0,0,0,1.46-.13A5.17,5.17,0,0,0,210.4,5V8.2Z"/></g></g></g></svg>