<svg xmlns="http://www.w3.org/2000/svg" viewBox="0 0 175.71 97.22"><defs><style>.cls-1{fill:#ffb716;}.cls-2{fill:#0082cb;}</style></defs><title>logo-ays-stacked</title><g id="Layer_2" data-name="Layer 2"><g id="Layer_1-2" data-name="Layer 1"><g id="_Group_" data-name="&lt;Group&gt;"><rect id="_Rectangle_" data-name="&lt;Rectangle&gt;" class="cls-1" x="85.17" y="6.11" width="6.1" height="6.1" rx="3.05" ry="3.05"/><path id="_Compound_Path_" data-name="&lt;Compound Path&gt;" class="cls-2" d="M99.54,16.49a2.1,2.1,0,0,0-1.72.9H93.64a9.27,9.27,0,0,1-3.95-4.13,4.17,4.17,0,1,0-2.93,0,9.27,9.27,0,0,1-3.95,4.13h-4a2.11,2.11,0,1,0-.15,2.6H83.1L85,22.24h6.37L93.35,20H98a2.11,2.11,0,1,0,1.57-3.5Zm-11.31-.2a10.9,10.9,0,0,0,1.84,1.79v.71H86.48V18A11.18,11.18,0,0,0,88.23,16.29Zm0-9a2,2,0,1,1-2,2A2,2,0,0,1,88.23,7.34Z"/><polygon id="_Path_" data-name="&lt;Path&gt;" class="cls-2" points="91.41 25 85.04 25 82.75 23.07 93.7 23.07 91.41 25"/><polygon id="_Path_2" data-name="&lt;Path&gt;" class="cls-1" points="91.65 28 84.41 31.68 83.94 35.86 92.07 31.73 91.65 28"/><polygon id="_Path_3" data-name="&lt;Path&gt;" class="cls-1" points="92.21 32.96 83.79 37.24 83.33 41.42 92.63 36.69 92.21 32.96"/><polygon id="_Path_4" data-name="&lt;Path&gt;" class="cls-1" points="91.51 26.76 91.41 25.92 85.04 25.92 84.56 30.29 91.51 26.76"/><path id="_Path_5" data-name="&lt;Path&gt;" class="cls-2" d="M101.92,28.46a4.13,4.13,0,0,0-4.37,4.25,3.22,3.22,0,0,0,2.84,3.23,2.22,2.22,0,0,0,2.36-1.8c.18-1.68-.84-1.74-.84-1.74-2.24,0-.36,1.86-1.53,1.88-.63,0-.6-.45-.6-1.59,0-.6-.18-1.8,2-1.8s3,2.63,3,4.64-1.47,4.34-4.4,6a17.65,17.65,0,0,1-7.06,1.68l-.59-5.26-9.59,4.88,0,.39A17.71,17.71,0,0,1,76,41.5c-2.93-1.62-4.4-3.95-4.4-6s.78-4.64,3-4.64,2,1.2,2,1.8c0,1.14,0,1.6-.6,1.59-1.17,0,.72-1.88-1.53-1.88,0,0-1,.06-.84,1.74a2.22,2.22,0,0,0,2.36,1.8,3.22,3.22,0,0,0,2.84-3.23,4.13,4.13,0,0,0-4.37-4.25c-2.69,0-5.6,2.9-5.6,7.09a10.55,10.55,0,0,0,6.52,9.54c4.8,2.14,11,3.74,12.44,5.64,0,0,.17.36.33.36s.3-.36.3-.36C90,48.83,96.19,47.24,101,45.1a10.55,10.55,0,0,0,6.52-9.54C107.51,31.36,104.61,28.46,101.92,28.46Z"/><rect id="_Rectangle_2" data-name="&lt;Rectangle&gt;" class="cls-1" x="79.16" y="10.06" width="3.09" height="0.81" rx="0.4" ry="0.4"/><rect id="_Rectangle_3" data-name="&lt;Rectangle&gt;" class="cls-1" x="94.36" y="10.06" width="3.09" height="0.81" rx="0.4" ry="0.4"/><rect id="_Rectangle_4" data-name="&lt;Rectangle&gt;" class="cls-1" x="86.77" y="1.14" width="3.09" height="0.81" rx="0.4" ry="0.4" transform="translate(89.86 -86.77) rotate(90)"/><rect id="_Rectangle_5" data-name="&lt;Rectangle&gt;" class="cls-1" x="82.34" y="1.99" width="3.09" height="0.81" rx="0.4" ry="0.4" transform="translate(26.26 -58.61) rotate(45)"/><rect id="_Rectangle_6" data-name="&lt;Rectangle&gt;" class="cls-1" x="91.21" y="1.96" width="3.09" height="0.81" rx="0.4" ry="0.4" transform="translate(160.01 -61.56) rotate(135)"/><g id="_Group_2" data-name="&lt;Group&gt;"><rect id="_Rectangle_7" data-name="&lt;Rectangle&gt;" class="cls-1" x="94.07" y="5.55" width="3.09" height="0.81" rx="0.4" ry="0.4" transform="translate(182.2 -35.06) rotate(151.09)"/><rect id="_Rectangle_8" data-name="&lt;Rectangle&gt;" class="cls-1" x="79.47" y="5.55" width="3.09" height="0.81" rx="0.4" ry="0.4" transform="translate(12.97 -38.42) rotate(28.91)"/></g><g id="_Group_3" data-name="&lt;Group&gt;"><path id="_Path_6" data-name="&lt;Path&gt;" class="cls-1" d="M67.4,88.57H41a.36.36,0,0,1,0-.72H67.4a.36.36,0,0,1,0,.72Z"/><path id="_Path_7" data-name="&lt;Path&gt;" class="cls-1" d="M135.62,88.57H109.23a.36.36,0,1,1,0-.72h26.39a.36.36,0,0,1,0,.72Z"/></g><g id="_Group_4" data-name="&lt;Group&gt;"><path id="_Compound_Path_2" data-name="&lt;Compound Path&gt;" class="cls-2" d="M82.92,82.93a1.31,1.31,0,0,0-.46-.95,2.53,2.53,0,0,0-1.82-.63,6.71,6.71,0,0,0-2.25.45,3.55,3.55,0,0,0-1.12.63,1.74,1.74,0,0,0-.73,1.26,1.87,1.87,0,0,0,1.08,1.52q.4.24,1.62.8a17.66,17.66,0,0,1,1.77.9A3.17,3.17,0,0,1,82.17,88a2.29,2.29,0,0,1,.32,1.09A2.73,2.73,0,0,1,82,90.57a7.08,7.08,0,0,1-2.44,2.3A8.48,8.48,0,0,1,75.11,94a5.89,5.89,0,0,1-4-1.28A3.14,3.14,0,0,1,70,90.2,4.25,4.25,0,0,1,70.68,88a4.11,4.11,0,0,1,1.75-1.67.57.57,0,0,1,.32-.06c.07,0,0,.11-.18.27a4.37,4.37,0,0,0-1,1.08,5,5,0,0,0-.8,2.74,2.78,2.78,0,0,0,.55,1.71,4.38,4.38,0,0,0,3.39,1.48q.27,0,.81,0A7.62,7.62,0,0,0,77,93.44a7,7,0,0,0,1.79-.64,4.67,4.67,0,0,0,2.4-2.53,2.52,2.52,0,0,0,.17-.89,2.22,2.22,0,0,0-.88-1.72,9.84,9.84,0,0,0-1.93-1,14.79,14.79,0,0,1-2-1,2.13,2.13,0,0,1-1.11-1.77,2.35,2.35,0,0,1,1-1.74,6,6,0,0,1,4-1.21,4.64,4.64,0,0,1,2,.37,1.6,1.6,0,0,1,.94,1.1,1.43,1.43,0,0,1,0,.29,1.31,1.31,0,0,1-.52,1,2.72,2.72,0,0,1-1,.46c-.17,0-.27,0-.29-.06s.1-.2.36-.23a.9.9,0,0,0,.85-.69A1.12,1.12,0,0,0,82.92,82.93Z"/><path id="_Compound_Path_3" data-name="&lt;Compound Path&gt;" class="cls-2" d="M83.24,91.85a3,3,0,0,1,.53-1.49c-.15,0-.2-.08-.13-.23l.26-.5q.49-.93.8-1.58a.56.56,0,0,1,.56-.3h.88a3.9,3.9,0,0,0-1,1.44q-.52,1.07-.81,1.68a2.45,2.45,0,0,0-.29.93.71.71,0,0,0,.11.45.36.36,0,0,0,.29.13q.27,0,.76-.57A20.09,20.09,0,0,0,87.3,88a.58.58,0,0,1,.56-.3h.78a2.3,2.3,0,0,0-.5.5,7.33,7.33,0,0,0-.5.92,11.42,11.42,0,0,0-1,2.28,1.82,1.82,0,0,0,0,.37c0,.31.11.47.32.49q.78,0,1.91-2.4.09-.2.17-.16a.13.13,0,0,1,.09.12,1.1,1.1,0,0,1-.13.33l-.25.5c-.08.16-.21.38-.37.67a4.45,4.45,0,0,1-.47.67,1.54,1.54,0,0,1-1.1.63.73.73,0,0,1-.74-.47,1.48,1.48,0,0,1-.09-.55,3,3,0,0,1,.14-.82q-1,1.84-1.94,1.84a.8.8,0,0,1-.9-.65A.32.32,0,0,1,83.24,91.85Z"/><path id="_Compound_Path_4" data-name="&lt;Compound Path&gt;" class="cls-2" d="M93.17,88.78a3.54,3.54,0,0,1-.33,1.39,6.14,6.14,0,0,1-.91,1.46,2.94,2.94,0,0,1-1.42,1,2.75,2.75,0,0,1-.72.09,1.93,1.93,0,0,1-.9-.26l-1.36,3.4a1.7,1.7,0,0,1-.4.6.6.6,0,0,1-.36.14h-.21l-.26,0a1.17,1.17,0,0,0-.34,0,18.13,18.13,0,0,0,1.6-2.87A17.49,17.49,0,0,0,89,90.18c-.11.15-.21.23-.3.24s-.06-.05,0-.17.15-.32.29-.64a3,3,0,0,0,.26-1.14c0-.35-.07-.55-.2-.61a8.36,8.36,0,0,1,1-.14.17.17,0,0,1,.18.12.84.84,0,0,1,0,.26,5.63,5.63,0,0,1-.4,2l.29-.46a7.43,7.43,0,0,1,.75-1.08l.51-.5a1.2,1.2,0,0,1,.8-.4.77.77,0,0,1,.22,0Q93.17,87.84,93.17,88.78Zm-.69-.14a1,1,0,0,0-.09-.42A.31.31,0,0,0,92.1,88q-.5,0-1.17.93A33.57,33.57,0,0,0,89,92.21a.7.7,0,0,0,.52.19,1.75,1.75,0,0,0,.93-.5,6.78,6.78,0,0,0,1.61-2A2.87,2.87,0,0,0,92.48,88.63Z"/><path id="_Compound_Path_5" data-name="&lt;Compound Path&gt;" class="cls-2" d="M98,88.78a3.54,3.54,0,0,1-.33,1.39,6.14,6.14,0,0,1-.91,1.46,2.94,2.94,0,0,1-1.42,1,2.75,2.75,0,0,1-.72.09,1.93,1.93,0,0,1-.9-.26l-1.36,3.4a1.7,1.7,0,0,1-.4.6.6.6,0,0,1-.36.14h-.21l-.26,0a1.17,1.17,0,0,0-.34,0,18.13,18.13,0,0,0,1.6-2.87,17.49,17.49,0,0,0,1.46-3.45c-.11.15-.21.23-.3.24s-.06-.05,0-.17.15-.32.29-.64a3,3,0,0,0,.26-1.14c0-.35-.07-.55-.2-.61a8.36,8.36,0,0,1,1-.14.17.17,0,0,1,.18.12.84.84,0,0,1,0,.26,5.63,5.63,0,0,1-.4,2l.29-.46a7.43,7.43,0,0,1,.75-1.08l.51-.5a1.2,1.2,0,0,1,.8-.4.77.77,0,0,1,.22,0Q98,87.84,98,88.78Zm-.69-.14a1,1,0,0,0-.09-.42.31.31,0,0,0-.29-.19q-.5,0-1.17.93a33.57,33.57,0,0,0-1.92,3.26.7.7,0,0,0,.52.19,1.75,1.75,0,0,0,.93-.5,6.78,6.78,0,0,0,1.61-2A2.87,2.87,0,0,0,97.31,88.63Z"/><path id="_Compound_Path_6" data-name="&lt;Compound Path&gt;" class="cls-2" d="M99.18,90.31c-.08.23-.14.44-.19.65a2.48,2.48,0,0,0-.08.62,1.19,1.19,0,0,0,.14.58.49.49,0,0,0,.46.27,1.32,1.32,0,0,0,1-.7,14.56,14.56,0,0,0,1-1.77c.08-.13.15-.19.22-.16a.11.11,0,0,1,0,.15l-.18.4c-.09.21-.16.35-.2.43l-.23.43a3,3,0,0,1-.29.46l-.33.39a1.9,1.9,0,0,1-1.34.67,1.09,1.09,0,0,1-.69-.19.76.76,0,0,1-.29-.42,1.82,1.82,0,0,1,0-.39q0-.17,0-.45a4.18,4.18,0,0,1,.18-.89l.15-.49a23.93,23.93,0,0,1,2-4.72,6.06,6.06,0,0,1,.67-1,1.37,1.37,0,0,1,1-.52q.33,0,.45.47a1.33,1.33,0,0,1,0,.22,3.12,3.12,0,0,1-.34,1.24,13,13,0,0,1-2.94,4.31Zm1.69-2.74a14,14,0,0,0,1.06-1.93,3.57,3.57,0,0,0,.34-1.08c0-.19,0-.29-.1-.29s-.28.19-.55.57a14.3,14.3,0,0,0-1.08,2q-.68,1.47-1.11,2.58A11.37,11.37,0,0,0,100.87,87.57Z"/><path id="_Compound_Path_7" data-name="&lt;Compound Path&gt;" class="cls-2" d="M99.58,97.22a1.57,1.57,0,0,1-1-.27.78.78,0,0,1-.34-.64,2.09,2.09,0,0,1,.21-.85,2.68,2.68,0,0,1,1.35-1.18,10.57,10.57,0,0,1,1.94-.64l1.55-.4A17.92,17.92,0,0,0,104.55,90a11.29,11.29,0,0,1-1.39,2.05,1.6,1.6,0,0,1-1.13.59.8.8,0,0,1-.91-.65.48.48,0,0,1,0-.3c0-.13,0-.23,0-.29a1,1,0,0,1,.09-.28c.06-.13.1-.22.12-.28.11-.22.2-.39.27-.52-.15,0-.2-.08-.13-.23l.26-.5q.49-.93.8-1.58a.56.56,0,0,1,.56-.3H104l-.14.12a1.18,1.18,0,0,0-.39.4q-.52.89-1.29,2.54a2.72,2.72,0,0,0-.32,1,.7.7,0,0,0,.11.45.36.36,0,0,0,.29.13c.18,0,.44-.19.76-.57A18.14,18.14,0,0,0,105.25,88a.58.58,0,0,1,.56-.3h.78a1.88,1.88,0,0,0-.59.65,8.32,8.32,0,0,0-.47,1.07q-.25.68-.63,1.79t-.58,1.68a3.75,3.75,0,0,0,2.07-1.42,15.16,15.16,0,0,0,.9-1.58c.07-.13.13-.19.18-.16a.13.13,0,0,1,.08.12,2.71,2.71,0,0,1-.24.55q-.24.48-.48.89a5.45,5.45,0,0,1-.63.84,3.13,3.13,0,0,1-.86.68,10.33,10.33,0,0,1-1.26.54,10.48,10.48,0,0,1-2.23,3A3.5,3.5,0,0,1,99.58,97.22Zm-.83-1.42a1.31,1.31,0,0,0-.16.58.47.47,0,0,0,.2.41.84.84,0,0,0,.5.14,2.76,2.76,0,0,0,1.78-.85,12.15,12.15,0,0,0,1.67-1.83l.32-.53a25.9,25.9,0,0,0-3,.89A2.57,2.57,0,0,0,98.75,95.8Z"/></g><g id="_Group_5" data-name="&lt;Group&gt;"><path id="_Compound_Path_8" data-name="&lt;Compound Path&gt;" class="cls-2" d="M15.38,74.75h.18V75H9.15v-.2h.18a.78.78,0,0,0,.65-.27.85.85,0,0,0,.21-.51,1.26,1.26,0,0,0-.1-.48L9.11,71H4.4l-1,2.47a1.39,1.39,0,0,0-.1.49.82.82,0,0,0,.22.5.81.81,0,0,0,.66.27H4.3V75H0v-.2H.18a1.76,1.76,0,0,0,.92-.28,2.13,2.13,0,0,0,.76-.84L6.51,63.11a10.63,10.63,0,0,0,1-2.63H7.7l6,13.11a2.18,2.18,0,0,0,.76.88A1.75,1.75,0,0,0,15.38,74.75ZM4.75,70.17h4l-2-4.95Z"/><path id="_Compound_Path_9" data-name="&lt;Compound Path&gt;" class="cls-2" d="M32.21,74.75h.28V75H26.9v-.2h.28a.61.61,0,0,0,.55-.26.77.77,0,0,0,.13-.54l-.78-5.75-3.2,5.09a4,4,0,0,0-.72,2.05H23l-4.64-7-.68,5.65a.74.74,0,0,0,.14.54.61.61,0,0,0,.54.26h.28V75H14.8v-.2h.28a1.38,1.38,0,0,0,.88-.29,1.14,1.14,0,0,0,.43-.79l1.57-11h.16l5.69,8.5,5.33-8.5h.18l1.61,11.14a1.16,1.16,0,0,0,.46.72A1.37,1.37,0,0,0,32.21,74.75Z"/><path id="_Compound_Path_10" data-name="&lt;Compound Path&gt;" class="cls-2" d="M42.44,75H33v-.2h.24a1.08,1.08,0,0,0,1.11-1V64.14a1.08,1.08,0,0,0-1.11-1H33v-.2h7.08a7.68,7.68,0,0,0,1.19-.1,5,5,0,0,0,.91-.2v3.2h-.2V65.6a1.92,1.92,0,0,0-.48-1.39,1.85,1.85,0,0,0-1.35-.52h-2.9v4.89h2.29a1.52,1.52,0,0,0,1.11-.46A1.56,1.56,0,0,0,41,67v-.14h.2v4.26H41V71a1.47,1.47,0,0,0-.7-1.37,1.51,1.51,0,0,0-.8-.22H37.22v4.76h2.41a3.22,3.22,0,0,0,2.12-.77A4.33,4.33,0,0,0,43,71.25h.18Z"/><path id="_Compound_Path_11" data-name="&lt;Compound Path&gt;" class="cls-2" d="M49.22,63.71h-.64v10a1,1,0,0,0,.33.77,1.11,1.11,0,0,0,.75.29h.22V75H44.35v-.2h.24a1,1,0,0,0,.75-.3,1,1,0,0,0,.31-.74V64.14a1,1,0,0,0-.31-.74,1,1,0,0,0-.73-.3h-.26v-.2h6.17a6,6,0,0,1,3,.7,2.76,2.76,0,0,1,1.37,2.59,3.4,3.4,0,0,1-.7,2.1,3,3,0,0,1-2.09,1.14,3,3,0,0,1,1.08.68,5.13,5.13,0,0,1,.85,1,20.16,20.16,0,0,0,1.35,2.1,5.31,5.31,0,0,0,1.14,1.24,1.9,1.9,0,0,0,1.06.28V75H55.92a6.44,6.44,0,0,1-2.56-.4A3.78,3.78,0,0,1,51.75,73a10.84,10.84,0,0,1-1.35-2.73,2.42,2.42,0,0,0-.57-.9A1.22,1.22,0,0,0,49.2,69v-.16h.5q1.71,0,2.09-2a2.06,2.06,0,0,0,.08-.52q0-.22,0-.61a2.42,2.42,0,0,0-.25-.88,1.6,1.6,0,0,0-.59-.71,2.6,2.6,0,0,0-1.29-.4Z"/><path id="_Compound_Path_12" data-name="&lt;Compound Path&gt;" class="cls-2" d="M57.42,74.75h.24a1.18,1.18,0,0,0,.82-.31,1,1,0,0,0,.34-.75V64.16a1,1,0,0,0-.34-.75,1.18,1.18,0,0,0-.82-.31h-.24v-.2h5.71v.2h-.24a1.17,1.17,0,0,0-.8.3,1,1,0,0,0-.36.74v9.55a1,1,0,0,0,.36.76,1.17,1.17,0,0,0,.8.3h.24V75H57.42Z"/><path id="_Compound_Path_13" data-name="&lt;Compound Path&gt;" class="cls-2" d="M66.25,73.54a6.5,6.5,0,0,1,0-9.24,7.84,7.84,0,0,1,5.32-1.67,10.13,10.13,0,0,1,4.52.92v3.2h-.14a4.56,4.56,0,0,0-1.55-2.55,4.34,4.34,0,0,0-2.63-.76,3.87,3.87,0,0,0-3.26,1.46,6.36,6.36,0,0,0-1.13,4,6.57,6.57,0,0,0,1.11,4,3.69,3.69,0,0,0,3.12,1.53A5.45,5.45,0,0,0,74,74a3.29,3.29,0,0,0,1.47-1.42,8.08,8.08,0,0,0,.8-2.64h.14l.24,3a4.4,4.4,0,0,1-1.9,1.65,7.13,7.13,0,0,1-3.15.62A8,8,0,0,1,66.25,73.54Z"/><path id="_Compound_Path_14" data-name="&lt;Compound Path&gt;" class="cls-2" d="M90.92,74.75h.16V75H85.17v-.2h.16a.68.68,0,0,0,.58-.24.76.76,0,0,0,.18-.44,1.25,1.25,0,0,0-.08-.42l-.78-1.85H81l-.8,1.87a1.1,1.1,0,0,0-.08.41.71.71,0,0,0,.19.44.73.73,0,0,0,.59.23H81V75H77v-.2h.16a1.59,1.59,0,0,0,.84-.26,1.87,1.87,0,0,0,.68-.78l4.16-8.93a12.27,12.27,0,0,0,.92-2.45H84l5.39,11.3a1.87,1.87,0,0,0,.69.85A1.63,1.63,0,0,0,90.92,74.75ZM81.31,71h3.58l-1.77-4.2Z"/><path id="_Compound_Path_15" data-name="&lt;Compound Path&gt;" class="cls-2" d="M100.09,62.89h5.65v.2h-.34a1.11,1.11,0,0,0-.77.28,1,1,0,0,0-.33.72v8.79a10.74,10.74,0,0,0,.16,2.05l0,.28h-.18l-9.23-8.14v6.66a1,1,0,0,0,.33.73,1.09,1.09,0,0,0,.77.29h.34V75H90.9v-.2h.32a1.13,1.13,0,0,0,.78-.29,1,1,0,0,0,.32-.73V64.88a10.15,10.15,0,0,0-.16-2l0-.28.18,0,9.21,8.1V64.12a1,1,0,0,0-.31-.73,1.09,1.09,0,0,0-.77-.29h-.34Z"/><path id="_Compound_Path_16" data-name="&lt;Compound Path&gt;" class="cls-2" d="M125.94,61.08h-.28a2.11,2.11,0,0,0-1.15.34,2.81,2.81,0,0,0-.86.82l-4,6.31v4.93a1.2,1.2,0,0,0,.38.89,1.25,1.25,0,0,0,.9.37h.24l0,.2h-6.11v-.2h.26a1.24,1.24,0,0,0,.89-.36,1.26,1.26,0,0,0,.39-.88v-5l-3.84-6.31a2.51,2.51,0,0,0-.85-.81,2.19,2.19,0,0,0-1.14-.33h-.28v-.2h6.66v.2H117a.76.76,0,0,0-.68.4.86.86,0,0,0,0,.84l2.88,5.23,3-5.23a.92.92,0,0,0,.1-.41.71.71,0,0,0-.14-.41.75.75,0,0,0-.68-.42h-.24v-.2h4.79Z"/><path id="_Compound_Path_17" data-name="&lt;Compound Path&gt;" class="cls-2" d="M135.82,74.75H136V75h-5.91v-.2h.16a.68.68,0,0,0,.58-.24.76.76,0,0,0,.18-.44,1.25,1.25,0,0,0-.08-.42l-.78-1.85h-4.26l-.8,1.87a1.1,1.1,0,0,0-.08.41.71.71,0,0,0,.19.44.73.73,0,0,0,.59.23h.16V75h-4v-.2h.16a1.59,1.59,0,0,0,.84-.26,1.87,1.87,0,0,0,.68-.78l4.16-8.93a12.27,12.27,0,0,0,.92-2.45h.18l5.39,11.3a1.87,1.87,0,0,0,.69.85A1.63,1.63,0,0,0,135.82,74.75ZM126.21,71h3.58L128,66.81Z"/><path id="_Compound_Path_18" data-name="&lt;Compound Path&gt;" class="cls-2" d="M137.69,73.54a6.5,6.5,0,0,1,0-9.24A7.84,7.84,0,0,1,143,62.63a10.13,10.13,0,0,1,4.52.92v3.2h-.14a4.56,4.56,0,0,0-1.55-2.55,4.34,4.34,0,0,0-2.63-.76,3.87,3.87,0,0,0-3.26,1.46,6.36,6.36,0,0,0-1.13,4,6.57,6.57,0,0,0,1.11,4A3.69,3.69,0,0,0,143,74.41a5.45,5.45,0,0,0,2.35-.44,3.29,3.29,0,0,0,1.47-1.42,8.08,8.08,0,0,0,.8-2.64h.14l.24,3a4.4,4.4,0,0,1-1.9,1.65,7.13,7.13,0,0,1-3.15.62A8,8,0,0,1,137.69,73.54Z"/><path id="_Compound_Path_19" data-name="&lt;Compound Path&gt;" class="cls-2" d="M163,74.75h.22V75h-5.53v-.2h.2a1.1,1.1,0,0,0,.78-.3,1,1,0,0,0,.32-.76V69.34h-5.29v4.34a1.06,1.06,0,0,0,.34.76,1.08,1.08,0,0,0,.76.3H155V75h-5.55v-.2h.22a1.08,1.08,0,0,0,.78-.31,1,1,0,0,0,.32-.75V64.16a1,1,0,0,0-.32-.75,1.08,1.08,0,0,0-.78-.31h-.22v-.2H155v.2h-.22a1.08,1.08,0,0,0-.76.3,1,1,0,0,0-.34.74v4.4H159V64.16a1,1,0,0,0-.54-.92,1.17,1.17,0,0,0-.56-.14h-.2v-.2h5.53v.2H163a1.1,1.1,0,0,0-1.11,1.07v9.55a1,1,0,0,0,.54.91A1.17,1.17,0,0,0,163,74.75Z"/><path id="_Compound_Path_20" data-name="&lt;Compound Path&gt;" class="cls-2" d="M175.5,65.75v-.18A1.89,1.89,0,0,0,175,64.2a1.84,1.84,0,0,0-1.35-.52h-2.33v10a1,1,0,0,0,.34.74,1.08,1.08,0,0,0,.76.3h.22V75h-5.55v-.2h.2a1.1,1.1,0,0,0,.78-.3,1,1,0,0,0,.32-.76v-10h-2.31a1.87,1.87,0,0,0-1.37.52,1.89,1.89,0,0,0-.48,1.37v.18h-.2V62.57a5.53,5.53,0,0,0,.93.2,7.77,7.77,0,0,0,1.18.1h7.42a6.68,6.68,0,0,0,1.46-.13,5.17,5.17,0,0,0,.65-.17v3.18Z"/></g></g></g></g></svg>