<?xml version="1.0" encoding="utf-8"?>
<!-- Generator: Adobe Illustrator 21.1.0, SVG Export Plug-In . SVG Version: 6.00 Build 0)  -->
<svg version="1.1" xmlns="http://www.w3.org/2000/svg" xmlns:xlink="http://www.w3.org/1999/xlink" x="0px" y="0px"
	 viewBox="0 0 477.1816 279" enable-background="new 0 0 477.1816 279" xml:space="preserve">
<g>
	<path fill-rule="evenodd" clip-rule="evenodd" d="M278.856,279c-1.8-0.288-3.6-0.576-5.472-0.936
		c-2.232-0.792-4.464-1.584-6.768-2.448c-2.88-0.432-5.7599-1.44-12.456-2.88c-2.304,0-4.608,0-6.984,0
		c-3.024,0.792-6.048,1.584-9.072,2.448c-5.76-0.72-6.984-1.224-14.688-2.16c-1.944-0.072-3.96-0.144-5.976-0.288
		c-4.824,0.504-4.824,0.504-10.296,0.72c-1.872-0.144-3.816-0.288-5.76-0.432c-2.232-0.432-4.464-0.936-6.768-1.44
		c-2.52-1.296-5.0399-2.5919-7.632-3.888c-4.032-1.224-8.136-2.52-12.24-3.816c-2.808-0.144-5.616-0.288-8.424-0.504
		c-5.544,0.288-7.92,0.72-11.016,0.72c-0.864,0.144-1.728,0.288-2.664,0.504c-2.88,0.072-5.76,0.144-8.64,0.2159
		c-3.96,0.36-7.992,0.792-12.024,1.224c-2.304,0.432-4.608,0.936-6.912,1.44c-2.232,0.072-4.464,0.144-6.768,0.216
		c-1.512-0.144-3.024-0.288-4.536-0.432c-0.072-0.072-0.144-0.216-0.216-0.36c0.288-0.576,0.576-1.152,0.936-1.728
		c0-0.288,0-0.576,0-0.936c-1.224-0.144-3.6,0.144-11.016,0.36c-4.752,1.4399-9.576,2.8799-14.4,4.3199c-0.36,0-0.792,0-1.224,0
		c-0.216-0.36-0.216-0.36,0.216-1.296c1.008-0.648,1.008-0.648,6.048-2.304c0.432-0.72,0.432-0.72,1.872-1.944
		c3.168-0.288,6.408-0.576,9.648-0.936c1.152-0.288,2.376-0.576,3.6-0.936c3.312,0.72,3.312,0.72,8.136,1.152
		c0.504,0.504,0.504,0.504,0.576,1.368c-0.288,0.288-0.576,0.576-0.936,0.936c0,0.288-0.072,0.648-0.144,1.008
		c2.088,0,4.176-0.072,6.264-0.144c5.256-0.72,5.256-0.72,9.864-1.728c6.192-0.432,6.192-0.432,9.792-1.152
		c0.072-0.072,0.144-0.216,0.288-0.36c-1.368-1.008-2.736-2.016-4.104-3.024c-2.304-0.648-4.608-1.296-6.984-1.944
		c-5.112-0.072-10.224-0.144-15.336-0.216c-9.144-0.72-9.144-0.72-16.056-0.936c-5.544,0.936-15.12,1.872-20.16,2.88
		c-4.32,0.432-4.32,0.432-9.36,1.44c-12.24,0.432-12.24,0.432-19.008,0.216c-0.36,0.144-0.72,0.288-1.152,0.504
		c-0.72,0-1.512-0.072-2.304-0.144c0-0.288,0-0.576,0-0.936c0.72-0.4319,1.512-0.864,2.304-1.368c4.32,0,5.256,0.288,14.4,0
		c3.6-0.432,5.04-0.936,18.216-2.88c8.424-0.936,8.424-0.936,16.416-2.232c-0.072-0.432-0.144-0.936-0.216-1.44
		c-0.36-0.432-0.72-0.936-1.08-1.44c-1.872,0-3.816-0.072-5.76-0.144c-1.008,0.144-2.016,0.288-3.096,0.504
		c-3.6,1.872-3.6,1.872-4.824,2.16c-0.72-0.288-0.72-0.288-4.536-0.288c-0.648-0.216-1.296-0.432-1.944-0.72
		c-1.008,0-2.016,0-3.096,0c-0.36-0.144-0.792-0.288-1.224-0.432c-4.32-0.216-8.64-0.4319-12.96-0.72
		c-1.944,0.936-1.944,0.936-5.256,1.872c-2.448,0.216-4.968,0.432-7.488,0.648c0.144-0.36,0.288-0.792,0.504-1.224
		c5.76-0.864,5.76-0.864,10.08-1.8c0.648-0.36,1.296-0.792,1.944-1.224c3.6,0,10.08,0.72,13.176,0.72
		c0.504,0.288,5.04,0.72,6.48,1.224c1.44-0.216,3.816,0,5.256-0.216c1.512-0.792,3.024-1.656,4.608-2.52
		c-1.44-0.648-1.44-0.648-15.624-3.744c-2.448,0-4.896,0-7.416,0c-1.512-0.288-3.024-0.576-4.608-0.936
		c-1.152-0.648-2.376-1.296-3.6-1.944c-0.576-0.144-1.224-0.288-1.872-0.504c-1.944,0.288-1.944,0.288-15.408,0.504
		c-0.792-0.216-1.584-0.432-2.376-0.72c-3.024,0.072-6.048,0.144-9.144,0.216c-1.08,0.216-2.16,0.4319-3.312,0.72
		c-3.6,0-3.6,0-4.464-0.2881c0-0.288,0-0.6479,0-1.008c0.36-0.288,0.72-0.576,1.08-0.864c4.536-0.936,7.2-1.872,11.304-2.592
		c1.008,0,2.016,0,3.096,0c1.152,0.576,2.376,1.224,3.6,1.872c1.224,0.144,2.52,0.288,3.816,0.504c4.032,0,8.136,0,12.24,0
		c2.88,0.936,4.824,1.944,9.36,3.384c2.16,0,2.16,0,6.264-0.504c0-0.216,0-0.504,0.072-0.7921c-1.296-1.584-2.664-3.168-4.032-4.824
		c-1.008-1.944-1.008-1.944-1.944-3.096c-0.288-1.44-0.576-2.88-0.936-4.32c-1.944-3.6-2.88-6.048-6.768-13.464
		c-3.456-5.256-6.984-10.512-10.512-15.84c-3.888-4.32-3.888-4.32-12.528-14.904c-1.872-2.88-1.872-2.88-3.816-5.0399
		c-2.088-1.944-4.176-3.9601-6.264-5.976c-0.936-0.648-1.872-1.296-2.88-1.944c-2.88-0.864-5.76-1.8-8.712-2.736
		c-2.88-0.432-5.76-0.936-8.64-1.44c-0.072-0.504-0.144-1.008-0.216-1.584c-1.296-0.072-2.592-0.216-3.888-0.36
		c-0.288-0.144-0.576-0.288-0.936-0.504c-0.432-0.648-0.936-1.296-1.44-2.016c0.216-0.288,0.432-0.576,0.72-0.864
		c2.664,0.288,2.664,0.288,6.264,1.224c1.728,0.072,3.456,0.144,5.256,0.216c5.76,1.44,5.76,1.44,6.48,1.944
		c3.744,1.368,7.488,2.736,11.304,4.104c20.592-1.224,20.592-1.224,31.176-1.44c2.664-0.504,2.664-0.504,20.376-1.944
		c1.44-0.288,2.88-0.576,4.32-0.936c3.528-0.288,7.056-0.648,10.584-1.008c41.544-1.44,41.544-1.44,49.896-1.44
		c9.36,1.008,9.36,1.008,14.184,1.224c4.104-3.816,4.104-3.816,9.144-7.92c0.576-0.648,1.152-1.296,1.728-2.016
		c0-0.216,0-0.432,0-0.72c-0.504-0.432-1.08-0.936-1.656-1.44c0.072-0.72,0.144-1.44,0.216-2.16c0.648-0.72,1.368-1.44,2.088-2.16
		c1.584-0.72,3.168-1.512,4.824-2.304c1.296-0.216,2.664-0.432,4.032-0.72c1.944,0.504,1.944,0.504,5.544,0.72
		c0.144-0.288,0.288-0.576,0.504-0.864c2.16-1.2961,4.32-2.592,6.48-3.9601c2.736-2.448,5.544-4.896,8.352-7.416
		c0.432-0.072,0.936-0.144,1.44-0.216c1.08-1.512,2.232-3.024,3.384-4.608c1.44-1.296,2.88-2.664,4.3199-4.032
		c0.72-0.288,1.44-0.648,2.16-1.008c1.08-1.008,2.232-2.016,3.384-3.096c1.872-0.936,1.872-0.936,4.32-2.88
		c0.576-0.648,1.224-1.296,1.872-1.944c0.864-0.288,1.728-0.576,2.664-0.936c1.08-1.08,2.232-2.232,3.384-3.384
		c0.72-0.288,1.44-0.576,2.16-0.936c0.936-0.936,1.944-1.944,2.9521-2.952c0-0.288,0-0.648,0-1.008
		c-0.648-1.224-1.2961-2.5201-1.944-3.816c-1.872-2.448-3.816-4.896-5.76-7.416c-0.72-1.2961-1.44-2.592-2.16-3.888
		c0-0.36,0-0.72,0-1.152c0.792-0.648,1.584-1.296,2.448-1.944c1.224-0.576,2.448-1.152,3.744-1.8
		c0.36-0.2881,0.72-0.648,1.152-1.0081c1.944-0.432,4.608-1.44,6.264-2.376c2.88-0.936,2.88-0.936,4.824-1.944
		c3.384-0.792,6.84-1.584,10.296-2.376c7.416-0.936,7.416-0.936,12.96-1.944c1.656,0,3.312,0,5.04,0
		c3.384,0.36,6.84,0.792,10.296,1.224c1.152,0,2.376,0,3.6,0c1.728,0.504,1.728,0.504,5.544,0.72c2.664-0.216,2.664-0.216,7.2,0.216
		c0.504,0.288,0.504,0.288,12.96,0.72c0.648-0.72,1.296-1.44,1.944-2.16c1.224-2.016,2.448-4.032,3.672-6.048
		c3.816-4.608,3.816-4.608,8.424-9.36c0.288-0.648,0.576-1.296,0.936-1.944c3.816-4.32,7.92-8.136,15.84-16.344
		c3.816-4.536,3.816-4.536,9.864-10.8c1.224-1.6561,2.5201-3.312,3.816-5.04c0.72-0.576,1.44-1.224,2.16-1.872
		c1.224-1.584,2.52-3.168,3.816-4.8241c6.048-5.7599,6.984-6.984,9.36-8.8559c8.208-7.704,8.208-7.704,14.544-12.96
		c0.432-0.072,0.936-0.144,1.44-0.288c-0.0721,0.576-0.216,1.152-0.36,1.728c-2.088,1.584-4.176,3.168-6.336,4.7521
		c-8.28,7.92-10.728,9.864-11.16,10.584c-2.448,2.16-2.88,2.88-8.208,8.136c-0.288,0.576-0.576,1.152-0.936,1.728
		c-1.944,1.872-1.944,1.872-6.696,7.92c-1.368,1.224-2.736,2.52-4.104,3.816c-2.52,2.952-5.112,5.904-7.704,8.856
		c-5.976,6.048-5.976,6.048-8.3521,7.92c-1.872,2.16-3.816,4.32-5.7599,6.48c-0.648,0.936-1.2961,1.872-1.944,2.88
		c-2.16,2.16-2.16,2.16-8.136,9.36c-1.944,3.6-1.944,3.6-3.384,5.544c0,0.36,0,0.792-0.072,1.224
		c5.976,0.792,7.416,1.296,10.8,1.728c0.864,0.288,1.728,0.648,2.592,1.008c3.888,0.432,3.888,0.432,8.208,1.44
		c3.456,0.36,6.984,0.72,10.512,1.152c1.944-1.872,5.76-6.696,6.768-7.632c2.232-2.952,4.464-5.904,6.696-8.928
		c2.592-3.096,5.256-6.192,7.92-9.36c2.664-2.88,5.4-5.76,8.136-8.64c6.48-5.976,6.48-5.976,7.92-6.912
		c12.528-12.24,17.064-16.128,20.88-19.944c2.376-2.088,4.752-4.176,7.2-6.264c0.288,0,0.648,0,1.008,0
		c0.288,0.6479,0.288,0.6479,0.288,1.584c-2.16,1.9439-2.16,1.9439-4.896,3.8879C388.872,40.824,387,42.984,382.536,46.8
		c-6.84,6.768-6.84,6.768-9.504,8.928c-2.592,2.88-5.256,5.76-7.92,8.64c-7.2,8.856-7.2,8.856-11.952,15.336
		c-1.728,1.944-3.528,3.96-5.328,5.976c-0.432,1.008-0.432,1.008-0.432,2.16c0.432,0.576,0.936,1.152,1.44,1.728
		c0,0.792,0,1.584,0,2.376c-0.072,0.072-0.216,0.216-0.36,0.36c-1.944,0-3.384-0.504-4.968-0.36c1.44,7.92,1.44,7.92,1.728,8.136
		c0.288,2.448,0.576,4.968,0.936,7.488c1.944,9.36,1.944,9.36,5.976,33.552c0,1.44,0.504,2.88,1.944,10.584
		c0.504,0.72,0.504,0.72,1.44,3.384c2.088,0.576,4.968,0.792,15.768,3.168c0.216,0.288,0.216,0.288,2.592,1.224
		c0.936,1.152,1.872,2.304,2.88,3.4561c-0.072,0.288-0.216,0.648-0.36,1.008c-1.152,0.216-2.304,0.504-3.4561,0.792
		c-1.944,2.52-3.816,5.688-7.56,10.728c-1.296,2.304-2.592,4.608-3.888,6.984c-0.72,0.936-1.44,1.872-2.16,2.88
		c0,0.576,0.072,1.224,0.144,1.872c0.216,0.216,0.432,0.432,0.72,0.72c-0.72,0-0.72,0-0.936-0.216c-0.144,0.72,0.072,0.936,0,1.44
		c-0.36-0.144-0.792-0.288-1.224-0.504c0.072,0.36,0.216,0.7921,0.36,1.224c3.816,5.04,5.04,6.264,5.976,7.704
		c0.648,0.432,1.296,0.936,1.944,1.44c0.288,0.792,0.576,1.584,0.936,2.376c0.288,0.36,0.648,0.792,1.008,1.224
		c0.72,0.432,1.512,0.864,2.304,1.296c2.736,0.432,5.544,0.936,8.352,1.44c9.36,0.936,9.36,0.936,12.024,1.44
		c14.6161,0.936,14.6161,0.936,23.76,1.872c0.936,0.504,0.936,0.504,3.816,1.008c3.456,0.288,6.912,0.576,10.368,0.936
		c1.152,0.4319,2.376,0.936,3.6,1.4399c0.936,1.08,0.936,1.08,1.2961,2.088c0.072,1.224,0.144,2.52,0.216,3.816
		c-1.224,1.656-1.224,1.656-1.44,2.376c0,1.08,0,2.232,0,3.384c-0.936,6.48-0.936,6.48-1.44,13.68c0,2.664,0,5.4,0,8.136
		c0.072,0.504,0.216,1.008,0.36,1.584c4.824-0.72,6.048-1.224,12.24-1.944c1.728-0.936,1.728-0.936,3.8881-2.88
		c0.792-0.864,1.584-1.728,2.376-2.664c1.224-0.432,2.52-0.936,3.816-1.44c1.512-0.144,3.024-0.288,4.608-0.432
		c5.7601-1.944,5.7601-1.944,7.2001-2.16c0.288,0.36,0.288,0.36,0.288,1.08c-0.432,0.288-0.864,0.576-1.296,0.936
		c-1.8,0.576-3.6,1.152-5.472,1.8c-1.8,0.288-3.672,0.576-5.544,0.936c-0.72,0.288-1.4399,0.6479-2.16,1.008
		c-2.664,2.16-2.664,2.16-4.824,4.32c-0.936,0.432-1.872,0.936-2.88,1.44c-2.16,0.288-4.32,0.576-6.48,0.936
		c-2.952,0.936-5.904,1.872-8.856,2.88c-1.44,0.936-2.376,1.944-8.136,5.76c-1.368,1.224-2.736,2.52-4.104,3.816
		c-0.432,0.6479-0.864,1.368-1.368,2.088c0,0.288,0,0.576-0.072,0.936c0.936-0.288,1.872-0.576,2.88-0.864
		c1.08-0.576,2.232-1.224,3.384-1.872c4.3199-1.44,4.3199-1.44,8.64-3.384c2.376-1.944,2.376-1.944,5.256-4.824
		c2.952-1.08,5.904-2.16,8.856-3.312c5.616-1.44,11.2321-2.88,16.848-4.32c0.792-0.648,1.584-1.296,2.376-1.944
		c1.512-0.7921,3.024-1.584,4.536-2.376c1.08-0.144,2.232-0.288,3.384-0.504c2.088,0.072,4.176,0.144,6.264,0.216
		c0.072,1.368,0.072,1.368-0.288,1.728c-2.52,0-5.04,0-7.632,0c-1.728,0.432-1.728,0.432-4.824,1.872
		c-1.224,0.936-2.52,1.872-3.816,2.8799c-3.6,1.008-6.768,1.44-14.184,3.384c-3.528,1.224-7.056,2.5201-10.584,3.816
		c-0.504,0.504-1.008,1.008-1.584,1.584c0,0.288,0.072,0.576,0.144,0.864c11.52,0.936,11.52,0.936,14.9041,1.44
		c1.368,0,2.736,0,4.104,0c0.792-0.648,1.584-1.296,2.376-1.944c1.008-0.36,2.016-0.792,3.0959-1.224c4.608,0,4.608,0,7.92,0.288
		c0,0.36,0.072,0.72,0.1439,1.08c-0.1439,0.072-0.3599,0.216-0.5759,0.36c-2.2321,0-4.464,0-6.768,0
		c-0.936,0.288-1.872,0.576-2.88,0.936c-1.008,0.72-2.0161,1.44-3.096,2.16c-5.04,0-9.144-0.504-19.224-0.936
		c-0.432,0.072-0.936,0.144-1.44,0.216c-1.872,1.224-1.872,1.224-4.032,1.944c-0.36,0-0.792,0-1.2241,0
		c-0.7919,0.288-1.5839,0.576-2.376,0.936c-0.6479,0-1.296,0-1.9439,0c-2.376,0.936-5.544,2.88-7.92,3.816
		c-0.288,0.288-0.576,0.648-0.936,1.008c-1.08,0.576-2.232,1.224-3.384,1.872c-1.008,0.144-2.016,0.288-3.096,0.504
		c-1.8,0-3.672,0-5.544,0c-2.952,0.288-5.904,0.576-8.856,0.936c-1.296,0.648-2.592,1.296-3.888,1.944
		c-1.296,0.36-2.664,0.792-4.032,1.224c-0.504-0.288-0.504-0.288-1.44-0.288c-1.584,0.648-3.168,1.296-4.824,1.944
		c-8.424,0.504-8.424,0.504-16.56,1.44c-4.248,0.144-8.496,0.288-12.744,0.504c-12.24,1.44-12.24,1.44-17.712,1.656
		c-2.304-0.144-4.608-0.288-6.984-0.504c-2.088-0.432-4.176-0.936-6.264-1.44c-1.44-0.936-1.44-0.936-3.6-1.872
		c-6.912,0.72-6.912,0.72-11.5201,1.656c-3.096,0.936-3.096,0.936-8.352,1.944c-2.808,0.288-5.616,0.576-8.424,0.936
		C284.472,279,281.664,279,278.856,279L278.856,279z M387.144,256.464c-4.752-0.288-9.576-0.648-14.4-1.008
		c-1.656-0.288-3.312-0.576-5.04-0.936c-4.392-0.288-8.784-0.576-13.248-0.936c-6.696-1.008-16.776-1.944-18.432-2.448
		c-3.672,0.144-7.344,0.288-11.088,0.504c-0.864-0.144-1.728-0.288-2.592-0.504c-10.08-0.432-10.08-0.432-28.8-1.872
		c-2.664-0.504-2.664-0.504-5.544-1.44c-6.696,0-6.696,0-11.736-0.504c-0.576-0.144-1.152-0.288-1.728-0.504
		c-7.56-0.504-15.12-1.08-22.752-1.6559c-1.44-0.288-2.88-0.576-4.32-0.936c-6.336-0.432-12.672-0.936-19.008-1.44
		c-2.52-0.432-5.04-0.936-7.632-1.44c-2.592-0.072-5.256-0.144-7.92-0.288c-10.8-1.44-10.8-1.44-14.4-1.656
		c-4.104-0.936-4.104-0.936-5.76-1.656c-1.8-0.216-3.672-0.432-5.544-0.72c-2.52,0-5.112,0-7.704,0
		c-3.312-0.504-4.536-1.008-12.96-2.448c-11.952-0.936-11.952-0.936-19.152-1.872c-2.736-0.6479-5.472-1.296-8.208-1.944
		c-1.296-0.072-2.664-0.144-4.032-0.216c-0.936-0.216-1.872-0.432-2.88-0.72c-1.296,0-2.592,0-3.888,0
		c-12.456-2.16-13.68-2.664-19.152-3.6c-2.088-0.576-4.176-1.152-6.264-1.728c-13.896-1.872-13.896-1.872-18.72-2.88
		c-5.976-1.872-5.976-1.872-23.04-6.192c-1.944-2.664-2.808-4.464-10.44-15.2639C38.736,185.04,38.736,185.04,34.92,179.784
		c-0.72-0.648-1.44-1.296-2.16-1.944c0-0.288-0.072-0.576-0.144-0.936c0.576,0,1.152,0,1.728,0.072
		c0.792,0.288,1.584,0.648,2.376,1.008c14.184,3.816,14.184,3.816,22.536,5.76c12.096,1.872,24.192,3.816,36.288,5.76
		c5.76,0.432,6.48,0.72,51.552,6.192c17.568,1.44,17.568,1.44,19.944,1.944c8.136,0.936,8.136,0.936,8.856,1.224
		c13.176,1.224,26.352,2.52,39.6,3.816c30.528,3.816,30.528,3.816,50.4,6.696c0.792,0.288,1.584,0.648,2.448,1.008
		c2.304,0.36,4.608,0.72,6.912,1.152c0.6479,0.576,1.296,1.224,2.016,1.872c0.648,1.008,1.296,2.016,1.944,3.096
		c0.072,0.432,0.144,0.936,0.216,1.44c-1.008,0-2.088,0-3.168,0.072c-8.928-0.792-17.928-1.584-26.928-2.376
		c-0.36-0.144-0.72-0.288-1.152-0.504c-2.232-0.144-4.464-0.288-6.7679-0.432c-0.36-0.144-0.72-0.288-1.152-0.504
		c-2.016,0-4.032,0-6.048-0.072c0-0.648,0.072-1.296,0.144-1.944c-1.008-1.944-1.008-1.944-1.728-2.664
		c-1.368-0.36-2.736-0.72-4.176-1.08c-1.08,0-2.16,0-3.312,0c-0.144,0.072-0.288,0.216-0.432,0.36c0,0.432,0,0.936,0,1.44
		c0.576,0.648,1.152,1.296,1.8,1.944c0.792,0.216,1.584,0.504,2.448,0.792c-0.216,0.288-0.216,0.288-1.944,0.504
		c-5.76-0.216-5.76-0.216-10.8-0.72c-4.752-0.936-4.752-0.936-16.056-2.376c-2.088,0-4.176,0-6.264,0
		c-1.584-0.288-3.168-0.648-4.752-1.008c-9.144-0.72-9.144-0.72-21.888-1.152c-2.376-0.504-8.136-1.008-13.896-1.944
		c-17.496-1.944-24.696-2.376-26.64-2.88c-8.352-1.008-16.776-2.016-25.2-3.096c-1.44-0.504-5.976-1.008-7.2-1.44
		c-2.16-0.216-4.32-0.432-6.48-0.72c-21.384-3.888-21.384-3.888-30.024-5.76c-3.6-0.936-7.2-1.872-10.8-2.88
		c-1.44,0-1.44,0-2.016,0.36c0,0.36,0,0.792,0,1.224c0.504,0.216,1.008,0.504,1.584,0.792c8.856,1.944,11.952,2.88,22.32,4.824
		c12.24,1.872,16.992,2.88,24.192,3.816c1.944,0.504,22.32,3.096,22.824,3.384c14.4,1.872,41.76,4.752,44.136,5.256
		c1.08,0,2.232,0,3.384,0c1.584,0.288,3.168,0.576,4.824,0.936c0.936-0.216,0.936-0.216,13.176,0.504
		c4.248,0.504,8.496,1.08,12.744,1.6559c2.0161,0,4.104,0,6.192,0c8.208,1.008,8.208,1.008,18.504,2.88
		c3.384,0,4.32,0.288,8.64,0.288c5.5439,0.432,5.5439,0.432,8.136,0.936c1.512,0,3.024,0,4.608,0c3.6,0.432,7.2,0.936,10.8,1.44
		c10.584,0.936,21.2401,1.872,31.896,2.88c1.44,0.504,1.44,0.504,6.264,1.44c2.88,0.288,5.76,0.576,8.64,0.936
		c8.064,1.296,16.128,2.592,24.192,3.888c16.56,1.8719,23.328,2.376,25.704,2.88c5.04,0.432,5.76,0.72,26.136,2.592
		c0.72,0.288,0.72,0.288,8.424,0.288c2.088-0.216,4.176-0.4319,6.264-0.72c1.44-0.288,2.88-0.6479,4.32-1.008
		c3.6-0.432,7.2-0.936,10.8-1.44c5.04-1.44,7.416-1.872,10.08-2.88c1.152-0.144,2.376-0.288,3.6-0.432
		c0.432-0.504,0.432-0.504,2.592-1.44c1.296-0.288,2.592-0.648,3.888-1.008c1.8-1.08,3.6001-2.16,5.472-3.312
		c0.288,0,0.576,0.072,0.864,0.144c0,3.816-0.288,6.192-0.288,9.36c-0.432,3.6-0.864,7.2-1.2961,10.872
		c-0.432,0.072-0.936,0.144-1.44,0.216c-0.936,0.6479-1.872,1.296-2.88,1.944c-15.552,7.7039-15.552,7.7039-22.032,10.584
		c-4.032,0.936-8.136,1.872-12.24,2.88C389.088,256.464,388.152,256.464,387.144,256.464L387.144,256.464z M380.664,239.616
		c-1.008-0.432-1.008-0.432-3.888-0.936c-0.432-0.288-0.936-0.576-1.44-0.936c-0.288-0.432-0.576-0.864-0.936-1.368
		c0-0.36-0.072-0.72-0.144-1.152c0.072-0.072,0.216-0.216,0.36-0.36c0.576,0.0721,1.152,0.144,1.728,0.216
		c0.288,0.288,0.576,0.576,0.936,0.936c2.664,0,3.096,0.288,4.104,0.288c0.216-0.288,0.216-0.288,1.44-0.288
		c0.432,0.72,0.432,0.72,0.576,2.088c-0.576,0.432-1.152,0.936-1.728,1.44C381.384,239.544,381.024,239.544,380.664,239.616
		L380.664,239.616z M373.464,230.544c-5.328-0.504-5.328-0.504-7.92-1.008c-1.44,0-2.88,0-4.32,0
		c-15.768-1.872-31.536-3.816-47.304-5.76c-17.496-2.88-25.2-3.816-29.5201-4.752c-0.792-0.648-1.584-1.296-2.376-1.944
		c-0.936-1.224-1.872-2.448-2.808-3.672c-0.144-0.432-0.288-0.936-0.504-1.44c-0.72-0.576-1.44-1.224-2.232-1.872
		c-1.224-0.432-1.224-0.432-7.416-1.152c-2.664-1.008-2.664-1.008-7.2-1.944c-6.984-0.936-8.928-1.44-47.5201-6.264
		c-10.368-0.72-10.368-0.72-36.72-3.6c-5.328-0.936-12.96-1.872-13.68-2.16c-7.92-0.216-14.688-0.936-19.44-1.152
		c-2.952-0.432-5.904-0.936-8.928-1.44c-2.448-0.144-4.896-0.288-7.416-0.504c-27.36-3.816-27.36-3.816-37.224-4.824
		c-28.08-4.752-28.512-5.04-34.272-5.976c-2.88-0.6479-5.76-1.296-8.64-1.944c-3.96-1.224-7.992-2.52-12.024-3.816
		c-0.36-0.288-0.792-0.576-1.224-0.864c2.376,0.072,4.752,0.216,7.2,0.36c3.456,0.648,6.912,1.2961,10.368,1.944
		c8.208,0.864,16.416,1.7281,24.696,2.664c1.368,0,2.736,0,4.104,0c7.416,0.936,25.92,2.376,61.632,5.976
		c3.6,0.216,7.2,0.432,10.8,0.72c11.016,1.224,22.032,2.52,33.12,3.816c31.464,4.3199,31.464,4.3199,33.408,4.3199
		c1.656,0.288,3.312,0.648,5.04,1.008c7.2,0.432,23.976,2.376,35.496,3.312c12.24,1.944,20.376,2.88,22.3199,3.384
		c6.912,0.936,13.8961,1.872,20.88,2.88c2.448,0.144,4.896,0.288,7.416,0.504c2.736,0.576,5.472,1.224,8.208,1.872
		c1.872,2.88,2.88,3.96,4.752,6.9839c1.296,1.368,2.592,2.7361,3.888,4.104c1.296,0.936,2.664,1.872,4.032,2.88
		c0.72,0.288,1.44,0.576,2.16,0.936c2.232,0.072,4.464,0.144,6.768,0.216c1.44,0.504,1.44,0.504,9.36,1.44
		c3.6,0,6.696,0.504,13.176,0.72c1.368,0.288,2.736,0.6479,4.104,1.008c3.6,0.432,7.2,0.936,10.8,1.44c1.728,0,3.456,0,5.256,0
		c4.536-0.72,5.976-1.224,11.52-2.16c5.544-1.944,5.544-1.944,10.08-3.888c2.448-0.288,4.896-0.576,7.416-0.936
		c0.648-0.216,1.296-0.432,1.944-0.72c0.504-0.864,0.504-0.864,1.224-1.44c0.792-0.288,1.584-0.576,2.376-0.936
		c0.36-0.288,0.792-0.648,1.224-1.008c0.072-0.792,0.072-0.792-0.432-1.512c-2.592-0.432-5.184-0.864-7.776-1.368
		c-4.536-0.36-9.072-0.72-13.68-1.152c-13.68-2.448-14.616-2.88-18-3.384c-0.072-0.216-0.144-0.504-0.216-0.792
		c1.44-0.144,1.44-0.144,14.184,1.296c4.752,0,4.752,0,15.552,0.936c8.208,1.44,11.088,1.656,12.024,1.944
		c1.368,0.072,2.736,0.144,4.1039,0.216c0.936,0.504,0.936,0.504,4.752,1.44c0.288,0.216,0.576,0.432,0.864,0.648
		c0,0.576,0,1.224,0,1.872c-0.144,0.36-0.288,0.792-0.504,1.224c-5.616,3.672-5.616,3.672-7.56,4.68
		c-5.472,1.872-5.472,1.872-7.632,2.88c-2.88,0.432-7.704,1.872-18.288,3.816c-6.912,0.936-7.632,1.224-15.336,1.944
		C378.936,230.544,376.2,230.544,373.464,230.544L373.464,230.544z M374.184,207.648c0-0.216,0-0.432,0-0.72
		c0.7921,0.072,1.584,0.144,2.376,0.288C376.344,207.504,376.344,207.504,374.184,207.648L374.184,207.648z M155.52,204.624
		c-1.584-0.144-3.168-0.288-4.824-0.504c-0.288-0.144-0.576-0.288-0.936-0.504c-0.288-0.72-0.576-1.44-0.864-2.232
		c0.072-0.648,0.144-1.296,0.216-1.944c0.216-0.144,0.432-0.288,0.648-0.432c1.944,0,3.96,0,5.976,0.072
		c0.288,0.072,0.576,0.216,0.864,0.36c0.072,1.512,0.144,3.024,0.216,4.608C156.312,204.48,156.312,204.48,155.52,204.624
		L155.52,204.624z M144.216,203.184c-1.944-0.072-3.96-0.144-5.976-0.288c-1.44-1.08-1.44-1.08-1.944-1.8
		c0-0.792-0.072-1.584-0.144-2.376c0.648-0.576,0.648-0.576,1.584-0.864c2.16,0.072,4.32,0.144,6.48,0.288
		c0.36,0.2881,0.72,0.576,1.08,0.864c0.072,0.432,0.144,0.936,0.216,1.44c0.288,0.432,0.648,0.936,1.008,1.44
		c-0.288,0.936-0.288,0.936-0.864,1.296C145.224,203.184,144.72,203.184,144.216,203.184L144.216,203.184z M307.44,201.744
		c-8.424-1.008-8.424-1.008-14.4-1.44c-2.664-0.432-5.4-0.936-8.136-1.44c-7.4879-0.504-7.4879-0.504-9.864-1.008
		c-16.056-1.872-23.976-2.376-36.504-3.816c-4.536-0.936-6.48-0.936-9.072-1.44c0-0.432-0.072-0.864-0.144-1.296
		c0.288-0.792,0.576-1.584,0.936-2.376c0.432-0.576,0.864-1.224,1.368-1.872c6.696,0,6.696,0,7.416,0.288
		c11.52,0.936,13.68,1.44,31.464,3.096c4.032,0.936,4.032,0.936,4.32,1.224c5.256-0.288,5.256-0.288,5.616-0.576
		c0-0.36,0-0.792,0-1.224c-1.872-3.528-3.816-7.056-5.76-10.584c-1.368-1.872-2.736-3.816-4.104-5.76
		c-0.936-2.16-0.936-2.16-2.88-5.256c-0.216-1.656-0.216-1.656-0.576-2.088c-5.5439-0.432-5.5439-0.432-15.12-1.872
		c-1.152-0.288-2.376-0.576-3.6-0.864c0-0.288-0.072-0.576-0.144-0.936c1.44-2.088,2.88-4.176,4.32-6.264
		c0.36-0.288,0.72-0.576,1.08-0.936c1.224-0.144,1.224-0.144,4.608,0.36c0.72,0.36,1.152,1.152,1.872,1.656
		c1.008-0.216,1.008-0.216,1.728-0.864c2.304,0.072,4.608,0.216,6.912,0.36c1.44,0.504,1.44,0.504,12.744,1.944
		c1.08,0.648,2.232,1.2961,3.3839,1.944c1.872,2.736,3.816,4.752,11.5201,15.12c2.232,3.384,4.464,6.768,6.768,10.224
		c1.944,1.872,1.944,1.872,5.76,6.48c1.296,1.728,2.592,3.456,3.888,5.256c0.72,1.224,1.44,2.52,2.16,3.816
		C312.48,201.6,309.96,201.672,307.44,201.744L307.44,201.744z M98.856,197.856c-1.8-0.288-3.6-0.576-5.472-0.936
		c-0.432-0.216-0.864-0.504-1.368-0.792c0.216-1.44,0.216-1.44,0.648-1.872c0.432-0.144,0.936-0.288,1.44-0.432
		c1.728,0.144,3.456,0.288,5.256,0.432c0.648,0.576,1.296,1.152,1.944,1.8c-0.288,0.504-0.648,1.008-1.008,1.584
		C99.864,197.712,99.36,197.784,98.856,197.856L98.856,197.856z M223.92,192.384c-18.216-1.944-43.704-5.328-48.744-5.76
		c-2.232-0.288-4.464-0.648-6.696-1.008c-2.52-0.144-5.112-0.288-7.704-0.432c-1.944-0.288-3.96-0.648-5.976-1.008
		c-6.912-0.432-13.896-0.936-20.88-1.44c-40.32-4.32-46.584-4.752-51.12-5.472c-6.984-0.648-14.04-1.296-21.096-1.944
		c-3.888-0.648-7.848-1.296-11.808-1.944c-0.144-0.216-0.288-0.504-0.432-0.792c14.112-0.864,28.08-2.304,37.872-2.808
		c3.096,0.072,6.192,0.144,9.36,0.288c10.8-0.72,10.8-0.72,20.16-1.728c9.216-0.288,18.432-0.576,27.648-0.936
		c4.824,0.072,9.72,0.144,14.616,0.216c0.72,0.144,1.44,0.288,2.16,0.504c-0.504,0.72-1.008,1.512-1.584,2.304
		c-2.16,1.944-2.16,1.944-3.096,3.384c0.072,0.792,0.144,1.584,0.216,2.376c0.936,2.16,0.936,2.16,1.944,3.384
		c1.08,0.216,2.16,0.504,3.24,0.792c3.816,0.432,7.632,0.936,11.52,1.44c3.096,0.072,6.192,0.144,9.36,0.216
		c4.536,0.72,13.176,1.44,19.944,2.448c3.96,0.288,7.92,0.576,11.952,0.936c0.648,0.144,1.296,0.288,1.944,0.504
		c1.656,0,3.312,0,5.04,0c0.936,0.216,1.872,0.432,2.88,0.72c1.368,0,2.736,0.072,4.104,0.144c-0.144,1.152-0.648,1.656-1.584,4.032
		c-0.288,0.432-0.648,0.936-1.008,1.44C225.432,192.24,224.712,192.312,223.92,192.384L223.92,192.384z M355.464,185.184
		c-0.648-0.72-1.296-1.44-1.944-2.16c-0.072-0.576-0.216-1.152-0.36-1.8c-5.76-7.704-5.76-7.704-6.408-8.136
		c-0.576-0.72-1.152-1.44-1.8-2.16c0-0.216,0-0.432,0-0.72c0.72-0.576,1.512-1.224,2.304-1.872c3.888-0.936,3.888-0.936,5.04-1.44
		c0.576,0,1.152,0.072,1.728,0.144c0.576,2.88,2.016,15.408,2.016,18C355.68,185.328,355.68,185.328,355.464,185.184
		L355.464,185.184z M358.56,182.736c-0.36-0.576-0.36-0.576-1.8-10.368c-0.144-2.16-0.288-4.32-0.504-6.48
		c0.576-0.504,0.576-0.504,2.808-1.368c2.592-0.216,5.256-0.432,7.92-0.72c1.152,0,2.376,0.072,3.6,0.144
		c0,0.36-0.072,0.792-0.144,1.224c-1.296,2.16-2.592,4.32-3.888,6.48c-1.08,0.936-1.08,0.936-2.16,2.592
		c-0.576,1.296-1.224,2.592-1.872,3.888c-1.008,1.152-1.008,1.152-2.88,4.32C358.776,182.88,358.776,182.88,358.56,182.736
		L358.56,182.736z M299.304,173.88c-1.296-1.512-2.592-3.024-3.888-4.536c-0.216-0.504-0.432-1.008-0.72-1.584
		c3.096,0.288,6.192,0.648,9.36,1.0081c0,0.2159-0.072,0.4319-0.144,0.72c-0.432,0.288-0.936,0.576-1.44,0.9359
		c-1.872,2.664-1.872,2.664-2.952,3.6C299.448,174.024,299.376,173.952,299.304,173.88L299.304,173.88z M324.216,172.656
		c-0.72-0.144-1.44-0.288-2.16-0.432c-0.36-0.36-0.72-0.792-1.152-1.224c-0.72,0-1.44,0-2.16,0c-2.88-0.936-2.88-0.936-4.608-1.944
		c-5.976-0.936-5.976-0.936-6.336-1.2961c0-0.216,0-0.432,0-0.72c0.288-0.288,0.576-0.576,0.936-0.936
		c1.728-0.936,3.456-1.872,5.184-2.808c2.88-0.936,3.6-1.44,11.016-3.816c2.088-0.864,4.176-1.728,6.264-2.664
		c3.6-0.792,7.2-1.584,10.8-2.376c1.224,0.072,2.5201,0.144,3.816,0.216c0.72,0.288,1.44,0.648,2.16,1.008
		c3.888,0.936,3.888,0.936,5.04,1.44c3.888,0.432,3.888,0.432,6.48,0.432c3.168,1.008,5.544,1.44,6.768,1.944
		c1.656,0.2881,3.312,0.576,5.04,0.936c0.36,0.288,0.72,0.576,1.152,0.864c-0.072,0.072-0.144,0.216-0.216,0.36
		c-4.536,0.216-4.536,0.216-6.264,0c-0.432,0.144-0.936,0.288-1.44,0.504c-2.16,0.144-4.32,0.288-6.48,0.432
		c-4.752,1.944-5.976,2.16-8.136,3.168c-1.152,0.288-2.376,0.576-3.6,0.936c-1.08,0.648-2.232,1.296-3.384,1.944
		c-2.16,0.432-3.096,0.936-7.92,1.872c-2.376,1.008-2.376,1.008-6.48,1.944C327.096,172.512,325.656,172.584,324.216,172.656
		L324.216,172.656z M162.504,167.184c-0.072-0.072-0.144-0.216-0.288-0.36c1.512-1.656,3.024-3.312,4.608-4.968
		c2.592-1.872,2.592-1.872,7.776-6.552c0-0.36,0-0.792,0-1.224c-0.864-0.504-1.728-1.08-2.664-1.656c0-0.936,0-0.936,0.504-1.656
		c1.296-0.864,1.296-0.864,6.12-2.808c3.6,0,28.08,1.656,32.184,2.16c1.872,0.504,16.56,1.944,18.72,2.376
		c11.52,1.008,15.552,1.728,17.712,1.728c1.08,0.144,2.232,0.36,3.384,0.576c-0.864,2.16-0.864,2.16-3.24,6.048
		c-0.72,0.576-1.44,1.224-2.16,1.872c-0.576,0-1.152,0.072-1.8,0.144c-16.056-1.944-30.9601-3.384-33.336-3.888
		c-1.8-0.144-3.672-0.288-5.544-0.432c-4.032-0.648-8.136-1.296-12.24-1.944c-4.104,0-4.104,0-6.48-0.36
		c-0.144-0.072-0.288-0.216-0.504-0.36c-2.736,0.072-5.544,0.144-8.352,0.216c-0.36,0.144-0.792,0.288-1.224,0.504
		C166.536,164.304,166.536,164.304,162.504,167.184L162.504,167.184z M300.456,166.464c-2.52-0.432-5.04-0.936-7.632-1.44
		c-0.792-0.432-1.584-0.936-2.448-1.44c-2.16-2.16-2.16-2.16-4.032-4.608c-0.072-0.288-0.144-0.648-0.288-1.008
		c0.792,0.072,1.584,0.144,2.448,0.288c0.144-0.144,0.288-0.288,0.432-0.432c2.088,0.072,4.176,0.144,6.264,0.216
		c4.536-0.216,9.072-0.432,13.68-0.72c0.36-0.288,0.792-0.576,1.224-0.936c2.16-0.288,2.16-0.288,5.76-0.288
		c1.728,0.144,3.456,0.288,5.256,0.504c1.008,0.288,2.016,0.576,3.096,0.936c-0.72,0.504-2.16,0.72-4.032,1.728
		c-2.088,0.576-4.176,1.224-6.2639,1.872c-1.512,0.792-3.024,1.584-4.536,2.448c-0.864,0.144-1.728,0.288-2.664,0.432
		c-1.008,0.792-2.016,1.584-3.096,2.448C302.616,166.464,301.536,166.464,300.456,166.464L300.456,166.464z M277.416,156.096
		c-2.304-0.144-4.608-0.288-6.912-0.432c-0.36-0.144-0.792-0.288-1.224-0.504c-1.8-0.144-3.672-0.288-5.544-0.504
		c-2.592-0.936-2.592-0.936-3.096-1.512c-0.648-1.728-1.368-3.456-2.088-5.256c0-0.288,0-0.648,0-1.008
		c0.936-1.008,1.872-2.016,2.808-3.024c1.152-0.072,2.376-0.144,3.5999-0.216c0.648,0.288,1.2961,0.576,1.944,0.936
		c1.7281,0.144,3.4561,0.288,5.256,0.504c1.008,0.432,2.016,0.936,3.096,1.44c1.944,2.88,1.944,2.88,2.88,3.816
		c0.432,1.296,0.864,2.664,1.296,4.032c0.504,0.432,0.504,0.432,0.72,1.44C279.36,156.096,279.36,156.096,277.416,156.096
		L277.416,156.096z M294.696,155.88c-5.256-0.216-6.192-0.504-12.24-0.504c-0.864-2.0161-1.8-4.032-2.736-6.048
		c-0.36-0.432-0.792-0.936-1.224-1.44c-0.864-1.8-1.728-3.672-2.664-5.544c0-0.576,0.072-1.152,0.144-1.8
		c1.08-0.288,2.232-0.648,3.384-1.008c8.136,0.72,8.136,0.72,10.584,0.72c2.376,0.936,4.752,1.872,7.2,2.88
		c0.72,0.648,1.44,1.368,2.16,2.088c0.936,1.656,0.936,1.656,2.16,2.952c0.504,2.376,1.008,4.752,1.512,7.128
		c-0.0721,0.072-0.216,0.216-0.36,0.36C300.024,155.736,297.36,155.808,294.696,155.88L294.696,155.88z M329.04,155.376
		c-1.584-0.144-3.168-0.288-4.824-0.432c-0.576-0.216-1.224-0.432-1.872-0.72c-2.088-0.144-4.176-0.288-6.2639-0.504
		c-7.2,0.216-7.2,0.216-7.848-0.072c-0.432-2.448-0.432-2.448-1.44-14.904c0.216-0.144,0.432-0.288,0.648-0.504
		c0.648,0,1.296-0.072,1.944-0.144c0.504,0.288,1.08,0.648,1.656,1.008c1.656,0,3.6-0.504,6.696-0.504
		c0.504-0.216,0.504-0.216,2.16-0.216c0.72,0.432,0.72,0.432,3.6,0.72c1.368,1.296,2.736,2.664,4.104,4.032
		c5.76,6.768,7.704,8.64,8.856,10.224c-0.36,0.288-0.72,0.576-1.152,0.864c-1.512,0.36-3.024,0.72-4.608,1.152
		C330.192,155.376,329.616,155.376,329.04,155.376L329.04,155.376z M350.424,154.44c-4.824-1.44-5.76-1.944-8.208-2.376
		c-0.36-0.144-0.72-0.288-1.152-0.504c-0.288,0.072-0.6479,0.144-1.008,0.216c-0.216,0.36-0.432,0.72-0.72,1.152
		c-2.88-3.024-5.76-6.048-8.64-9.144c-0.216-0.072-0.432-0.144-0.72-0.216c-0.288-0.576-0.576-1.152-0.864-1.728
		c-2.376-2.16-2.376-2.16-4.32-4.536c-0.144-0.288-0.288-0.576-0.432-0.936c-1.368-1.008-3.24-1.872-5.184-3.168
		c-0.576-5.04-0.576-5.04-0.576-8.64c1.224-2.232,2.52-4.4641,3.816-6.696c3.816-5.04,3.816-5.04,7.704-10.8
		c3.24-3.96,6.48-7.992,9.792-12.024c0.4319-0.072,0.864-0.144,1.368-0.216c2.016,6.696,2.232,8.424,2.5201,8.856
		c0.144,1.728,0.288,3.528,0.432,5.328c0.648,2.736,1.296,5.544,1.944,8.352c3.384,19.944,3.6,20.16,3.6,21.6
		c0.504,2.16,1.44,10.368,2.376,14.688c0,0.216,0,0.504-0.072,0.792C351.576,154.44,351,154.44,350.424,154.44L350.424,154.44z
		 M255.096,153.504c0-0.288-0.072-0.576-0.144-0.864c0.288-0.36,0.648-0.72,1.008-1.1519c0.288,0,0.576-0.0721,0.864-0.144
		c0.432,0.792,0.432,0.792,0.576,2.016C256.68,153.36,255.888,153.432,255.096,153.504L255.096,153.504z M251.064,153.216
		c-1.584-0.288-3.168-0.576-4.824-0.936c-3.384,0-5.76-0.504-16.776-1.44c-0.72-0.144-1.44-0.288-2.16-0.504
		c-7.704-0.432-12.528-1.152-13.968-1.152c-0.504-0.144-1.08-0.288-1.656-0.504c-14.904-1.44-14.904-1.44-21.096-1.8
		c0.072-0.36,0.144-0.72,0.288-1.152c3.168-1.944,3.168-1.944,5.688-3.888c0.648-0.72,1.2961-1.44,2.0161-2.16
		c1.224-0.936,2.448-1.872,3.744-2.88c3.384-0.144,3.384-0.144,3.6,0.144c1.656,0.144,3.312,0.288,5.0399,0.432
		c1.224,0.288,2.5201,0.648,3.816,1.008c9.864,0.936,12.528,1.44,15.12,1.44c11.304,1.872,11.304,1.872,12.96,2.376
		c0.072,0.0721,0.144,0.216,0.288,0.36c-0.144,1.728-0.288,3.528-0.432,5.328c0.072,0.864,0.144,1.728,0.288,2.592
		c0.144,0.144,0.288,0.2881,0.432,0.504c0.36,0,0.72,0,1.152,0.0721c0.216-0.144,0.432-0.36,0.72-0.576
		c0.144-2.592,0.288-5.256,0.432-7.92c1.944-0.144,1.944-0.144,6.264,0.144c0.216,0.144,0.432,0.2881,0.72,0.432
		c0.72,1.2961,1.44,2.664,2.232,4.032c0,0.504,0,1.08,0,1.656c-0.936,1.44-1.872,2.88-2.88,4.32
		C251.784,153.144,251.424,153.144,251.064,153.216L251.064,153.216z M303.336,145.08c-3.816-4.824-5.04-5.832-5.256-6.552
		c2.8799-0.144,2.8799-0.144,5.5439,0.216c0.2881,1.944,0.2881,1.944,0.2881,6.264C303.552,145.224,303.552,145.224,303.336,145.08
		L303.336,145.08z M259.2,139.32c-1.728-0.216-3.456-0.432-5.256-0.72c-1.872-3.96-1.872-3.96-2.448-6.12
		c1.512,0.2881,3.024,0.576,4.608,0.864c0.864,0,1.728,0,2.592,0c1.8,0.432,3.672,0.864,5.544,1.296
		c-0.288,0.72-0.576,1.44-0.864,2.16c-0.648,0.792-1.296,1.584-1.944,2.448C260.712,139.248,259.992,139.248,259.2,139.32
		L259.2,139.32z M248.184,138.6c-0.792-0.072-1.584-0.216-2.448-0.36c0-1.512-0.072-3.024-0.144-4.536
		c0.144-0.4319,0.288-0.864,0.432-1.368c0.432,0,0.936,0,1.44,0c1.728,3.024,1.728,3.024,2.736,5.472
		c0,0.216-0.072,0.504-0.144,0.792C249.48,138.6,248.832,138.6,248.184,138.6L248.184,138.6z M242.136,137.88
		c-3.4561-0.144-6.984-0.288-10.5121-0.504c-5.328-0.936-7.2-0.936-11.52-1.872c-2.808-0.288-5.616-0.576-8.424-0.864
		c0.0721-0.288,0.144-0.576,0.216-0.936c0.504-0.288,1.08-0.576,1.656-0.9359c2.736-0.144,5.472-0.2881,8.208-0.432
		c0.216-0.288,0.432-0.576,0.72-0.936c0.432-0.144,0.936-0.288,1.44-0.504c3.168-0.072,6.336-0.144,9.576-0.216
		c1.656,0.288,3.312,0.576,5.04,0.936c1.152,0,2.376,0,3.6,0c0.288,0.144,0.576,0.288,0.864,0.432
		c0.216,2.88,0.216,2.88-0.144,5.832C242.64,137.88,242.424,137.88,242.136,137.88L242.136,137.88z M315.36,132.624
		c-0.432,0-0.936-0.072-1.44-0.144c0.792-2.376,0.792-2.376,1.8-4.032c0.288-0.072,0.576-0.144,0.864-0.288
		c0,1.368,0,2.736,0.072,4.104C316.08,132.624,316.08,132.624,315.36,132.624L315.36,132.624z M209.016,132.48
		c0.864-1.656,0.864-1.656,2.304-3.312c0.432-1.728,0.432-1.728,0.864-2.088c0.2881-0.072,0.576-0.144,0.936-0.216
		c1.44-1.296,2.88-2.592,4.32-3.888c0.648-0.288,1.296-0.576,1.944-0.936c1.512-1.224,3.024-2.52,4.536-3.816
		c0.504-0.144,1.08-0.288,1.656-0.504c1.152-1.152,2.376-2.376,3.6-3.6c3.384-1.944,3.384-1.944,5.328-3.6c0.216,0,0.432,0,0.72,0
		c5.616,10.944,5.616,10.944,5.832,11.88c-6.552,1.8-6.552,1.8-11.16,2.736c-1.584,0.648-3.168,1.2961-4.752,1.944
		c-1.584,1.008-3.168,2.016-4.824,3.096c-1.656-0.216-1.656-0.216-5.976,0C212.616,130.896,210.816,131.688,209.016,132.48
		L209.016,132.48z M261.576,130.68c-1.44-0.288-2.88-0.576-4.32-0.936c-0.936,0-1.872,0-2.88,0c-0.072-0.288-0.216-0.576-0.36-0.864
		c1.008-1.224,2.016-2.52,3.024-3.816c0.432-0.072,0.936-0.216,1.44-0.36c1.224-1.368,2.52-2.736,3.816-4.104
		c0.288-0.576,0.576-1.152,0.864-1.8c0.576-0.504,1.152-1.008,1.8-1.584c0.936,0,0.936,0,4.1761,0.864
		c1.944,5.328,1.944,5.328,2.376,7.2c0,0.432,0,0.936,0,1.44c-1.224,1.296-2.448,2.592-3.672,3.96
		C265.752,130.68,263.664,130.68,261.576,130.68L261.576,130.68z M310.536,130.104c-0.288-2.304-0.576-4.608-0.864-6.984
		c-0.072-5.904-0.144-11.808-0.216-17.712c0.072-2.664,0.216-5.328,0.36-8.064c4.824-1.944,4.824-1.944,5.76-2.016
		c0,3.24-0.0721,6.48-0.144,9.792c0.504,12.528,0.504,12.528,0.504,19.44c-1.512,1.8-3.096,3.6-4.68,5.4
		C311.04,129.96,310.824,130.032,310.536,130.104L310.536,130.104z M248.904,129.24c-0.4319-0.792-0.864-1.656-1.368-2.52
		c0-0.504,0-1.08-0.072-1.656c1.44,0,2.88-0.072,4.32-0.144c0.504,0.0721,1.08,0.216,1.656,0.36c-0.072,0.36-0.216,0.792-0.36,1.224
		c-0.792,0.864-1.584,1.728-2.448,2.664C250.056,129.168,249.48,129.168,248.904,129.24L248.904,129.24z M241.92,129.024
		c-4.104-0.504-9.144-0.504-11.664-0.864c0.072-0.288,0.216-0.576,0.36-0.864c1.728-0.216,2.448-0.72,7.488-2.16
		c1.224-0.072,2.52-0.144,3.816-0.216c0.432,0.0721,0.864,0.216,1.296,0.36c-0.072,1.08-0.144,2.232-0.216,3.384
		C242.136,129.168,242.136,129.168,241.92,129.024L241.92,129.024z M307.224,128.016c-0.792-0.288-1.584-0.576-2.448-0.936
		c-0.936-0.648-1.872-1.296-2.88-1.944c-0.792-0.216-1.584-0.432-2.376-0.72c-0.504,0.288-0.504,0.288-1.656,0.288
		c-0.72-0.504-0.72-0.504-3.168-1.008c-2.016-0.072-4.104-0.144-6.192-0.216c-0.576-1.224-1.224-2.448-1.8719-3.672
		c-0.144-1.152-0.2881-2.376-0.432-3.6c-0.144-0.216-0.288-0.432-0.504-0.72c-0.0721-0.7921-0.144-1.584-0.216-2.4481
		c4.752-6.192,4.752-6.192,6.696-8.352c0.792-0.648,1.584-1.296,2.376-1.944c1.944-2.664,1.944-2.664,3.024-3.744
		c1.368-0.072,2.736-0.144,4.104-0.216c0.432,0.144,0.936,0.288,1.44,0.432c0.216,0.288,0.432,0.648,0.72,1.008
		c0.72,0,1.656-0.504,3.6-0.864c0.072,1.584,0.216,3.168,0.36,4.824c-0.288,18-0.288,18,0,23.76
		C307.44,128.16,307.44,128.16,307.224,128.016L307.224,128.016z M252.504,122.976c-2.088-0.144-4.176-0.288-6.264-0.432
		c-0.072-0.144-0.216-0.36-0.36-0.576c0.216-19.224,0.216-19.224,0.432-21.168c0.936-1.008,1.872-2.016,2.88-3.096
		c0.576-0.288,1.224-0.576,1.8719-0.864c0.144-0.216,0.288-0.432,0.432-0.72c0.432-0.144,0.936-0.288,1.44-0.504
		c3.6,0.144,7.2,0.288,10.8,0.504c0.432,0.144,0.936,0.288,1.44,0.504c1.584,0.072,3.168,0.216,4.824,0.36
		c0.072,0.936,0.072,0.936,1.08,2.664c0.216,5.256,0.216,5.256,0,11.952c-2.088,0.864-4.1761,1.8-6.336,2.736
		c-3.024,2.88-6.048,5.7599-9.144,8.64C254.592,122.976,253.584,122.976,252.504,122.976L252.504,122.976z M318.24,120.24
		c-0.072-8.568-0.144-17.136-0.216-25.776c3.312-0.504,4.752-1.008,15.336-2.448c2.16,0,4.32,0,6.4799-0.072
		c-0.072,0.36-0.216,0.792-0.36,1.224c-1.944,2.16-3.888,5.04-9.864,11.952c-3.8159,5.76-3.8159,5.76-10.584,14.904
		C318.816,120.096,318.528,120.168,318.24,120.24L318.24,120.24z M242.424,119.304c-0.144-0.72-2.088-3.816-3.528-7.2
		c-0.936-1.224-0.936-1.224-1.44-2.376c0-0.576,0.072-1.152,0.144-1.728c1.296-0.936,2.376-2.16,3.672-3.096
		c0.288-0.36,0.576-0.72,0.864-1.08c0.576-0.072,1.152-0.216,1.728-0.36c0,2.52,0,5.112,0.072,7.704
		c-0.216,2.664-0.504,5.328-0.792,7.992C242.928,119.16,242.712,119.232,242.424,119.304L242.424,119.304z M269.496,115.488
		c0.144-0.72,0.144-0.72,0.72-1.152c1.512-0.288,3.024-0.576,4.608-0.936c1.872,0.072,3.816,0.144,5.76,0.216
		c0.144,0.072,0.288,0.216,0.432,0.36c-0.072,0.0721-0.144,0.216-0.216,0.36c-2.088,0.288-4.1761,0.6479-6.264,1.008
		C272.88,115.344,271.224,115.416,269.496,115.488L269.496,115.488z M283.464,111.456c-1.008-0.936-2.88-3.6-4.824-5.832
		c-0.936-1.368-1.872-2.808-2.88-4.248c-1.224-0.936-1.224-0.936-1.656-1.656c0-0.792-0.072-1.656-0.144-2.52
		c1.2961-0.144,4.8961,0.576,11.376,1.2961c2.808,0.144,5.616,0.288,8.424,0.504c0,0.36,0,0.72,0.072,1.08
		c-1.296,1.584-2.592,3.168-3.96,4.824c-0.432,0.288-0.864,0.576-1.296,0.936c-1.44,1.8-2.88,3.672-4.32,5.544
		C284.04,111.384,283.752,111.384,283.464,111.456L283.464,111.456z M278.856,111.24c-1.584-0.072-3.168-0.216-4.752-0.36
		c-0.144-1.44-0.288-2.88-0.432-4.32c0.144-0.936,0.288-1.872,0.432-2.88c0.216,0,0.432-0.072,0.72-0.144
		c1.512,2.304,3.024,4.608,4.608,6.912c0,0.72,0,0.72-0.36,0.936C279,111.384,278.928,111.312,278.856,111.24L278.856,111.24z
		 M235.656,106.056c-0.864-1.152-0.864-1.152-1.8-3.312c-1.944-2.664-3.96-5.4-5.976-8.136c0-0.36,0-0.792,0-1.224
		c0.144-0.072,0.36-0.216,0.576-0.36c11.088,0.72,11.088,0.72,14.4,0.72c0.864,0.864,0.864,0.864,1.08,1.8c0,1.512,0,3.024,0,4.536
		c-0.288,0.36-0.576,0.792-0.936,1.224c-2.088,1.584-4.176,3.24-6.336,4.896C236.376,106.2,236.016,106.128,235.656,106.056
		L235.656,106.056z M305.28,97.344c-0.504-0.288-0.504-0.288-5.976-0.576c0.792-1.7281,1.296-2.16,1.512-2.88
		c0.72-0.648,1.44-1.296,2.16-1.944c3.816-4.824,3.816-4.824,7.56-8.784c1.44,0.072,2.88,0.144,4.32,0.216
		c10.08,1.944,10.08,1.944,18.288,3.888c1.44,0.144,2.88,0.288,4.32,0.4319c1.008,0.36,2.016,0.7921,3.096,1.224
		c-0.936,0.504-0.936,0.504-3.384,0.936c-1.224,0-2.52,0-3.816,0c-3.312,0.432-6.696,0.936-10.08,1.44
		c-0.432,0.216-0.936,0.432-1.44,0.72c-1.44,0.144-2.88,0.288-4.3199,0.504c-3.096,0.936-5.04,1.944-8.424,2.88
		c-0.864,0.648-1.728,1.296-2.592,1.944C306.144,97.344,305.712,97.344,305.28,97.344L305.28,97.344z M246.24,96.984
		c0-0.72,0-1.44,0-2.16c0.864,0,1.728,0,2.664,0c0,0.216-0.072,0.432-0.144,0.72c-0.576,0.432-1.152,0.936-1.728,1.44
		C246.816,96.984,246.528,96.984,246.24,96.984L246.24,96.984z M282.96,96.984c-0.072-0.072-0.144-0.2159-0.216-0.36
		c-3.384-0.504-3.384-0.504-6.48-1.44c-3.168-0.144-6.408-0.288-9.648-0.504c-0.576-0.144-1.224-0.288-1.872-0.504
		c-9.144-0.432-9.864-0.72-13.68-0.72c-0.36-0.216-0.792-0.432-1.224-0.72c-1.224-0.072-2.52-0.144-3.816-0.216
		c-0.216-0.144-0.432-0.288-0.72-0.504c-1.368,0-2.736,0-4.104,0c-3.024-0.576-6.048-1.152-9.144-1.728
		c0-0.288-0.072-0.648-0.144-1.008c0.36-0.288,0.792-0.576,1.224-0.936c3.96-1.512,7.92-3.096,11.88-4.68
		c9.648-1.944,16.848-2.88,17.568-3.168c1.872-0.144,3.816-0.288,5.76-0.432c7.632,0.432,9.0721,0.72,19.656,1.44
		c2.88,0.072,5.76,0.144,8.64,0.216c0.36,0.144,0.792,0.288,1.224,0.504c3.312,0.144,6.696,0.36,10.08,0.576
		c0,0.288-0.072,0.648-0.144,1.008c-3.888,4.536-5.04,5.472-7.2,8.136c-0.36,0.288-0.792,0.576-1.224,0.936
		c-1.944,2.664-1.944,2.664-3.096,3.6c-0.36,0.0721-0.72,0.216-1.08,0.36c-9.576,0.216-11.304,0-11.52,0.216
		C283.464,97.056,283.248,97.056,282.96,96.984L282.96,96.984z"/>
</g>
</svg>
