<?xml version="1.0" encoding="utf-8"?>
<!-- Generator: Adobe Illustrator 21.1.0, SVG Export Plug-In . SVG Version: 6.00 Build 0)  -->
<svg version="1.1" id="Be" xmlns="http://www.w3.org/2000/svg" xmlns:xlink="http://www.w3.org/1999/xlink" x="0px" y="0px"
	 viewBox="0 0 572.0399 403.92" enable-background="new 0 0 572.0399 403.92" xml:space="preserve">
<g>
	<path fill-rule="evenodd" clip-rule="evenodd" d="M83.88,403.92c-0.36-0.36-0.36-0.36-0.36-1.296
		c0.144-0.144,0.36-0.288,0.576-0.504c2.088-0.36,4.176-0.72,6.264-1.08c0.936-0.288,1.872-0.648,2.88-1.008c0.936,0,1.872,0,2.88,0
		c1.584-0.288,3.168-0.576,4.824-0.936c1.512-0.648,3.024-1.296,4.536-1.944c2.52-0.792,5.112-1.584,7.704-2.376
		c2.16-0.288,4.32-0.576,6.48-0.936c1.944-1.008,1.944-1.008,3.384-1.44c0.072-0.288,0.144-0.576,0.216-0.864
		c-2.16-0.576-4.32-1.152-6.48-1.8c-10.584-4.824-12.024-5.76-14.184-6.696c-1.44-1.008-2.88-1.44-5.976-3.384
		c-0.792-0.648-1.584-1.296-2.376-1.944c-12.744-8.136-12.744-8.136-13.968-8.64c-4.608-3.312-9.216-6.696-13.896-10.08
		c-1.224-0.576-2.52-1.224-3.816-1.872c-10.8-7.704-12.528-8.64-12.96-9.144c-1.08,0.072-2.232,0.144-3.384,0.216
		c-2.664,1.008-2.664,1.008-10.08,2.88c-6.984,2.88-11.52,4.32-13.68,5.328c-2.88,0.936-6.696,2.88-9.144,3.816
		c-1.08,0.216-2.16,0.432-3.312,0.72c-1.584,0-3.168,0-4.824,0c-2.376-2.016-2.376-2.016-2.808-2.736
		c-0.216-1.08-0.432-2.232-0.72-3.384c0-0.936,0-1.872,0-2.88c0.288-0.864,0.648-1.728,1.008-2.592
		c0.576-0.792,1.224-1.584,1.872-2.448c0.864-0.72,1.728-1.44,2.664-2.16c3.528-1.8,4.68-2.736,7.848-4.176
		c0.288-0.288,0.576-0.648,0.936-1.008c1.944-0.936,1.944-0.936,2.376-1.512c-0.432-0.648-0.432-0.648-5.472-4.464
		c-2.088,0.36-4.176,0.792-6.264,1.224c-1.08,0-2.232,0-3.384,0c-0.576-0.144-1.224-0.288-1.872-0.504
		c-0.36-0.36-0.792-0.72-1.224-1.08c0-0.576-0.072-1.224-0.144-1.872c0.936-1.728,0.936-1.728,2.016-2.664
		c5.832-2.808,8.712-3.744,9.432-4.248c7.416-2.376,8.136-2.88,11.016-3.816c2.952-1.224,5.904-2.52,8.856-3.816
		c5.04-1.008,5.04-1.008,8.208-1.944c1.44-0.648,2.88-1.296,4.32-1.944c0.864-0.576,1.728-1.224,2.592-1.872
		c0.288-0.576,0.648-1.152,1.008-1.8c0.216-1.008,0.504-2.016,0.792-3.096c0.288-3.312,0.576-6.696,0.936-10.08
		c0.648-2.16,1.296-4.32,1.944-6.48c0-0.72,0-1.44,0-2.16c0.432-0.288,0.936-0.648,1.44-1.008c1.224-1.728,2.52-3.456,3.816-5.256
		c1.224-0.936,3.168-3.384,5.328-5.544c4.752-3.816,10.296-7.632,11.232-8.64c3.528-2.52,7.128-5.04,10.728-7.56
		c6.48-3.816,6.48-3.816,6.984-4.32c4.536-1.44,4.536-1.44,13.68-5.256c7.92-3.888,7.92-3.888,16.56-7.704
		c3.6-1.224,7.2-2.52,10.8-3.816c7.2-1.944,7.2-1.944,16.056-4.824c4.536-0.936,5.256-1.44,14.904-3.816
		c1.152-0.504,3.816-1.008,6.192-1.944c6.984-1.944,6.984-1.944,10.8-3.384c18-2.88,18-2.88,22.824-3.312
		c0.36-0.144,0.792-0.288,1.224-0.504c4.896-6.552,9.864-13.104,14.832-19.656c0-0.288,0.072-0.576,0.144-0.864
		c-0.504-0.432-1.44-2.16-1.944-2.592c0-0.648,0-1.296,0-1.944c0.936-1.224,2.16-2.16,3.096-3.384c0.72-0.576,1.512-1.152,2.304-1.8
		c0.432-0.072,0.936-0.144,1.44-0.216c3.744-6.336,3.744-6.336,5.616-10.224c1.296-1.584,2.592-3.168,3.888-4.752
		c1.584-2.376,3.168-4.752,4.752-7.2c2.592-3.024,5.256-6.048,7.92-9.144c7.7039-10.08,7.7039-10.08,9.648-12.24
		c4.752-6.984,4.752-6.984,10.512-14.4c0.288-0.72,0.648-1.44,1.008-2.16c1.224-1.728,2.52-3.456,3.816-5.256
		c0-0.36-0.072-0.792-0.144-1.224c-1.872-0.864-1.872-0.864-3.096-1.8c-0.144-1.08-0.144-1.08,0.144-3.024
		c0.144-0.216,0.288-0.432,0.432-0.72c4.752-1.8,4.752-1.8,5.472-2.304c19.152-5.256,19.152-5.256,23.472-6.192
		c1.08-0.432,2.232-0.936,3.384-1.44c0.5041-0.36,1.08-0.792,1.656-1.224c3.24-1.224,6.552-2.52,9.864-3.816
		c0.36-0.288,0.72-0.576,1.08-0.864c1.224-2.448,2.52-4.896,3.816-7.416c0.288-0.288,0.576-0.576,0.936-0.936
		C325.44,78.12,325.44,78.12,328.824,70.416c5.76-10.08,9.576-17.496,11.52-20.592c0.288-0.7921,0.576-1.584,0.936-2.448
		c7.704-12.96,7.704-12.96,11.52-20.16c2.232-5.04,4.464-10.08,6.696-15.1201c0.288-0.36,0.648-0.72,1.008-1.152
		c0.36,0,0.72-0.072,1.08-0.144c0.144,0.2159,0.288,0.504,0.504,0.7919c-0.792,1.2961-1.584,2.5921-2.448,3.9601
		c-0.864,2.592-1.296,3.024-2.736,6.408c-0.288,0.2159-1.224,2.8799-8.928,17.28c-1.584,2.52-3.168,5.112-4.752,7.704
		c-0.432,1.152-0.936,2.376-1.44,3.6c-3.888,6.48-5.76,10.2959-7.704,13.392c-1.224,2.448-2.52,4.968-3.816,7.488
		c-1.44,3.816-1.44,3.816-1.944,4.32c-3.816,7.92-3.816,7.92-4.824,9.36c-0.432,1.296-0.936,2.664-1.44,4.032
		c-2.88,5.328-3.816,6.48-6.696,12.024c-0.072,0.648-0.216,1.296-0.36,1.944c2.88-0.432,5.76-0.864,8.64-1.368c1.44,0,2.88,0,4.32,0
		c7.2,0.936,7.2,0.936,20.664,1.944c6.624,1.224,13.248,2.52,19.944,3.816c0.864,0.288,1.728,0.576,2.592,0.936
		c1.08,0.144,2.232,0.288,3.384,0.504c8.424,2.376,16.92,4.752,25.416,7.2c1.728,0.936,1.728,0.936,12.024,4.32
		c0.216,0.36,0.504,0.72,0.792,1.08c-0.216,1.944-0.216,1.944,0,4.824c0.216,0.432,0.432,0.936,0.648,1.44
		c0.36-0.432,0.72-0.936,1.08-1.44c1.872-4.824,2.16-5.04,5.976-15.624c5.4-11.952,10.872-23.976,16.344-36
		c0.144-0.864,0.2881-1.728,0.432-2.592c0.288-0.648,0.648-1.2961,1.008-1.944c7.632-23.256,7.632-23.256,9.576-28.08
		c7.704-16.3441,9.576-20.88,10.584-22.5361c3.312-7.9199,3.312-7.9199,8.64-19.4399c0.36,0,0.72-0.072,1.08-0.144
		c0.144,0.144,0.288,0.36,0.504,0.576c0,0.432,0,0.936,0.0721,1.4399c-0.936,1.4401-1.944,4.1041-2.664,5.04
		c-0.144,0.6479-0.288,1.296-0.432,1.944c-1.008,1.44-1.944,3.6-2.88,5.04c-0.288,1.08-0.648,2.2319-1.008,3.384
		c-0.72,0.936-0.72,0.936-8.352,18.72c-1.296,2.52-2.592,5.04-3.888,7.632c-1.872,5.3281-3.816,10.728-5.76,16.1281
		c-0.864,3.744-1.728,7.4879-2.592,11.232c-0.648,0.936-1.296,1.872-1.944,2.8799c-4.968,10.9441-9.936,21.888-14.904,32.9041
		c-0.936,2.88-1.44,3.6-3.312,9.144c-2.16,5.328-4.32,10.656-6.48,16.056c0.072,1.224,0.144,2.52,0.216,3.816
		c1.944,8.2079,1.944,8.2079,2.88,13.68c0.432,0,0.864,0.072,1.368,0.144c5.04-1.944,5.04-1.944,5.472-2.448
		c0.648-0.288,1.2961-0.576,1.944-0.936c2.808-0.648,5.616-1.296,8.424-1.944c5.184-2.16,10.368-4.32,15.552-6.48
		c1.512-0.144,3.024-0.288,4.608-0.432c3.816-1.008,3.816-1.008,9.36-1.944c6.3361-2.52,12.744-5.112,19.152-7.704
		c2.952-0.936,5.904-1.872,8.928-2.88c1.728-0.288,3.4561-0.576,5.256-0.936c7.92-2.376,10.296-3.384,21.8159-6.696
		c0.36,0,0.792,0,1.224,0c0.144,0.144,0.288,0.36,0.504,0.576c-0.144,0.288-0.288,0.576-0.504,0.864
		c-2.376,0.792-4.752,1.584-7.2,2.376c-0.144,0.288-0.288,0.576-0.504,0.864c-1.008,0.504-2.016,1.008-3.096,1.512
		c-0.7921,0.648-1.584,1.296-2.376,1.944c-1.296-0.144-2.5921-0.2881-3.888-0.504c-3.6,1.944-7.92,4.824-11.736,6.768
		c-2.1601,1.224-4.32,2.5201-6.48,3.816c-0.864,0.288-1.728,0.576-2.664,0.936c-1.8719,0.288-3.816,0.648-5.7599,1.008
		c-1.656,0.576-3.312,1.224-5.04,1.872c-2.736,0.648-5.544,1.296-8.352,1.944c-8.2079,2.88-8.2079,2.88-12.744,4.824
		c-1.512,0.288-3.024,0.576-4.536,0.936c-4.32,1.944-4.32,1.944-7.488,2.88c-0.792,0.432-1.584,0.936-2.376,1.44
		c-1.728,0.144-3.456,0.288-5.256,0.504c-1.656,0.936-3.312,1.872-5.04,2.88c-0.36,0.432-0.792,0.936-1.224,1.44
		c-0.792,0-1.584,0-2.376,0c-1.008,1.152-1.008,1.152-2.952,2.304c0,0.864,0,1.728-0.0721,2.592
		c2.88,16.56,3.312,21.168,3.816,23.76c1.44,16.344,1.44,16.344,1.944,19.728c0.288,0.432,0.576,0.864,0.864,1.296
		c2.592,0.432,3.096,0.72,6.696,1.152c2.376,1.008,2.376,1.008,12.456,3.888c1.5121,0.288,3.024,0.576,4.608,0.936
		c3.312,1.224,6.696,2.52,10.08,3.816c1.224,0.648,2.52,1.296,3.816,1.944c3.24,1.08,6.552,2.16,9.864,3.24
		c0,0.36,0,0.792,0.072,1.224c-0.432,1.008-0.936,2.016-1.44,3.096c-0.504,2.664-0.504,2.664-1.08,10.8
		c1.656-0.864,3.312-1.8,5.04-2.736c1.0081-1.008,1.0081-1.008,3.888-2.88c2.5919-1.008,2.5919-1.008,11.736-3.384
		c1.368-0.144,2.736-0.288,4.104-0.504c1.08-0.432,2.16-0.936,3.312-1.44c2.448-0.576,4.968-1.224,7.488-1.872
		c1.584-0.648,3.168-1.296,4.752-1.944c3.1681-1.944,3.1681-1.944,5.7601-4.104c0.72-0.144,1.4399-0.288,2.1599-0.4319
		c1.512-0.936,3.024-1.872,4.608-2.88c0.504-0.144,1.08-0.288,1.6559-0.504c0.5762,0,1.1521,0.072,1.8002,0.144
		c0,0.216,0,0.432,0,0.72c-2.52,2.16-4.104,3.096-6.1201,5.04c-0.432,0.288-0.864,0.576-1.368,0.936
		c-0.5759,1.152-1.2239,2.376-1.8719,3.6c-1.0081,1.008-2.0879,2.088-3.168,3.168c-2.448,1.224-4.968,2.448-7.4879,3.672
		c-1.872,1.224-3.816,2.52-5.76,3.816c-3.888,1.944-3.888,1.944-5.112,2.304c0,0.648,0,1.296-0.072,1.944
		c-0.432,0-0.864,0-1.296,0.072c-0.288-0.216-0.6479-0.432-1.008-0.72c-0.432,0-0.936,0-1.44,0c-1.728,0.936-3.456,1.872-5.256,2.88
		c-1.944,1.944-1.944,1.944-2.664,3.312c0.792-0.144,1.584-0.288,2.448-0.432c2.88-1.224,5.76-2.52,8.64-3.816
		c4.464-1.584,8.9279-3.168,13.392-4.824c1.8-1.224,3.672-2.52,5.544-3.816c2.088-1.944,4.176-3.96,6.264-5.976
		c0.72-0.936,1.4401-1.872,2.1599-2.88c0.8641,0,1.7281,0,2.592,0c0.2159,0.36,0.432,0.72,0.72,1.08
		c-0.0719,0.288-0.2159,0.576-0.3599,0.936c-2.8081,2.592-5.6161,5.256-8.4241,7.92c-0.6481,0.072-1.296,0.216-2.016,0.36
		c-1.8719,1.224-3.816,2.52-5.76,3.816c-2.016,0.648-4.104,1.2961-6.192,1.944c-5.256,2.232-10.512,4.464-15.84,6.696
		c-1.872,0.432-3.816,0.936-5.76,1.44c-1.728,1.008-6.9839,2.88-8.64,3.888c-1.512,0.576-3.024,1.224-4.608,1.872
		c-1.728,0.936-3.456,1.872-5.256,2.88c-1.44,1.44-2.88,2.952-4.32,4.464c-0.936,1.44-1.872,2.88-2.808,4.32
		c-0.432,1.728-0.432,1.728-1.44,3.384c-1.872,1.944-1.872,1.944-6.48,8.136c0,0.216,0,0.432-0.072,0.72
		c4.32-1.872,8.64-3.744,12.96-5.616c1.08-0.648,2.232-1.2961,3.384-1.944c1.44-1.368,2.88-2.736,4.32-4.104
		c1.944-1.224,3.96-2.5201,5.976-3.816c0.72-0.648,1.44-1.296,2.16-1.944c7.92-3.816,7.92-3.816,14.616-7.632
		c1.7999-1.296,3.672-2.592,5.544-3.888c1.5119-0.576,3.0239-1.224,4.536-1.872c1.44-0.144,2.8799-0.288,4.3199-0.504
		c1.872-0.936,3.816-1.872,5.76-2.88c1.0079-0.288,2.0879-0.576,3.168-0.936c2.448-1.872,4.896-3.816,7.416-5.76
		c1.656-0.648,3.3119-1.2961,5.04-1.944c7.416-0.936,8.856-1.44,12.4559-1.656c3.3839,0.432,3.3839,0.432,6.48,0.432
		c1.512-0.432,3.024-0.936,4.608-1.44c9.576,0.504,9.576,0.504,11.016,0.288c0.6479-0.288,1.296-0.648,1.944-1.008
		c1.4401-0.288,2.88-0.576,4.3199-0.936c0.936,0,1.8721,0,2.88,0c0.144,0.144,0.2881,0.36,0.432,0.576
		c-0.432,0.144-0.9359-0.072-5.2559,0.144c-3.384,1.44-3.384,1.44-5.5441,1.944c-3.24,0.216-6.48,0.432-9.792,0.72
		c-1.368,0.36-2.736,0.72-4.104,1.152c-2.88-0.072-5.76-0.144-8.64-0.216c-0.9359,0.288-1.8719,0.576-2.88,0.936
		c-1.8719,0.144-3.8159,0.288-5.76,0.504c-5.5439,1.944-5.5439,1.944-7.2,2.88c-2.16,1.944-2.16,1.944-6.48,4.824
		c-6.264,2.376-6.6961,2.88-10.296,4.32c-1.728,0.288-3.5281,0.576-5.328,0.936c-0.936,0.432-1.872,0.936-2.88,1.44
		c-1.296,1.08-2.592,2.16-3.9601,3.24c0,0.432,0.072,0.864,0.144,1.296c1.2241-0.072,2.5201-0.144,3.8161-0.2159
		c1.152-0.2881,2.376-0.576,3.6-0.936c1.872-0.936,3.8159-1.872,5.76-2.88c0.864-0.648,1.728-1.296,2.664-1.944
		c2.1599-0.936,2.1599-0.936,5.76-1.944c1.4399-0.936,2.88-1.872,4.3199-2.88c0.36-1.296,0.36-1.296,0.72-1.656
		c0.72,0,1.4401,0,2.16,0c1.224-0.504,1.224-0.504,2.6641-0.72c2.1599,0.072,4.3199,0.144,6.48,0.216
		c0.5039-0.216,1.08-0.432,1.656-0.72c1.4399,0,2.88,0,4.3199,0c0.144,0.072,0.288,0.216,0.5039,0.36
		c-1.0079,0-2.0879,0.072-3.1678,0.144c-3.0961,0.936-3.0961,0.936-9.3601,1.944c-2.16,0.936-4.3199,1.872-6.48,2.88
		c-1.152,0.936-1.152,0.936-3.0959,1.872c-1.8721,0.648-3.816,1.296-5.7601,1.944c-0.8639,0.648-1.7279,1.296-2.6639,1.944
		c-5.7599,2.88-5.7599,2.88-7.2,3.312c-2.16,0.2881-4.32,0.648-6.48,1.0081c-5.472,1.44-5.472,1.44-11.016,2.376
		c-1.584,0.648-3.168,1.296-4.824,1.944c-1.08,0.936-2.16,1.872-3.312,2.88c-3.384,1.872-3.384,1.872-6.048,3.816
		c-0.936,1.008-1.872,2.016-2.88,3.096c-1.08,0.648-2.16,1.296-3.312,1.944c-3.024,1.224-6.048,2.52-9.144,3.816
		c-1.08,0.648-2.232,1.296-3.384,1.944c-14.832,5.76-14.832,5.76-20.592,7.704c-2.88,1.224-5.76,2.52-8.64,3.816
		c-3.312,1.872-6.696,3.816-10.08,5.76c-1.8,1.224-3.672,2.52-5.544,3.816c-2.448,1.296-4.896,2.592-7.416,3.888
		c-3.384,0.936-3.384,0.936-8.64,1.872c-4.824,1.944-4.824,1.944-12.24,5.76c-1.008,0.648-2.088,1.2961-3.168,1.944
		c-2.88,1.224-5.76,2.52-8.64,3.816c-6.696,2.52-13.392,5.112-20.16,7.704c-9.576,2.88-9.576,2.88-10.296,3.384
		c-3.096,0.576-6.192,1.224-9.36,1.8719c-3.816,1.944-3.816,1.944-6.264,2.88c-1.1519,1.008-1.1519,1.008-4.032,2.448
		c-10.08,3.816-16.128,5.76-25.488,9.576c-3.6,0.936-14.4,4.824-18.216,5.76c-3.6,0.504-3.6,0.504-14.184,2.88
		c-2.376,0.936-2.376,0.936-10.08,3.096c-0.504,0.288-1.08,0.648-1.656,1.008c-2.304,0.576-4.608,1.224-6.984,1.872
		c-2.16,1.008-2.16,1.008-23.976,8.208c-2.664,0.432-2.664,0.432-3.384,0.936c-5.76,1.944-5.76,1.944-7.632,2.88
		c-1.296,0.288-2.592,0.576-3.888,0.936c-20.16,7.704-20.16,7.704-27.072,10.08c-5.04,1.008-11.304,2.88-27.864,6.768
		c-8.856,2.376-9.576,2.88-13.176,3.816c-0.432,0.36-0.432,0.36-0.864,1.584c-2.448,0.576-4.896,1.152-7.344,1.8
		c-3.312,0.432-6.696,0.936-10.08,1.44c-2.232,0.576-4.464,1.224-6.696,1.872c-1.224,0.648-2.52,1.296-3.816,1.944
		c-2.16,0.432-4.32,0.936-6.48,1.44c-1.08,0.072-2.232,0.144-3.384,0.216c-1.008,0.288-2.016,0.648-3.096,1.008
		C87.912,403.416,85.896,403.632,83.88,403.92L83.88,403.92z M97.848,378c-1.08-0.792-2.232-1.584-3.384-2.448
		c0-0.216,0-0.504,0-0.792c4.536-0.072,9.072-0.216,13.68-0.36c3.96-0.288,7.992-0.648,12.024-1.008
		c2.664-0.432,5.4-0.936,8.136-1.44c5.184-0.576,10.368-1.224,15.624-1.872c1.152-0.288,2.376-0.648,3.6-1.008
		C159.48,367.2,159.48,367.2,171,365.76c10.08-1.944,11.52-2.448,16.344-3.384c1.728-0.072,3.456-0.144,5.256-0.216
		c3.384-1.008,3.384-1.008,5.328-1.944c9.072-1.944,9.792-2.376,17.712-4.32c1.152-0.36,2.376-0.792,3.6-1.224
		c2.16-0.216,3.6-0.72,6.768-1.152c2.376-1.008,4.752-1.44,5.76-1.944c5.04-1.512,10.08-3.024,15.12-4.536
		c4.536-1.944,10.296-3.888,14.832-5.76c11.088-3.888,23.04-7.704,27.864-9.648c3.096-0.936,7.2-2.88,21.816-8.64
		c6.9839-3.312,6.9839-3.312,8.424-4.32c9.576-3.816,13.464-5.76,22.536-9.576c34.128-17.28,34.128-17.28,35.784-17.784
		c0.72-0.72,2.16-1.1519,5.544-3.096c2.88-1.224,5.76-2.52,8.64-3.816c1.224-0.792,2.52-1.584,3.816-2.448
		c10.584-5.256,10.584-5.256,11.016-5.76c4.392-1.872,8.784-3.816,13.248-5.76c0.792-0.432,1.584-0.936,2.376-1.44
		c1.6559-0.432,1.6559-0.432,2.376-0.36c-0.576,0.504-1.224,1.008-1.872,1.584c-1.008,0.432-2.088,0.936-3.168,1.44
		c-17.712,10.584-17.712,10.584-19.872,11.52c-6.984,3.816-25.704,12.96-26.208,13.464c-15.84,7.632-30.96,15.336-32.4,16.272
		c-7.92,3.888-19.152,8.64-20.88,9.648c-14.616,5.76-20.376,7.632-29.952,11.52c-5.328,1.872-5.328,1.872-14.904,5.76
		c-12.24,3.816-12.24,3.816-23.04,7.632c-2.664,1.296-5.4,2.592-8.136,3.888c-1.728,0.432-2.664,0.936-9.864,2.88
		c-2.376,0.936-2.376,0.936-3.6,1.872c-1.872,0.648-3.816,1.296-5.76,1.944c-5.544,1.44-11.16,2.88-16.776,4.32
		c-11.304,1.44-11.304,1.44-16.344,2.376c-2.88,0.792-5.76,1.584-8.64,2.448c-12.456,1.872-12.456,1.872-16.776,2.88
		c-8.64,0.936-10.08,1.44-26.208,3.312c-1.296,0.288-2.664,0.648-4.032,1.008C128.808,375.336,98.568,377.712,97.848,378L97.848,378
		z M103.104,372.456c-4.608-0.072-9.216-0.144-13.896-0.216c-1.08-0.648-2.232-1.296-3.384-1.944
		c-6.408-4.464-12.816-8.928-19.224-13.464c-1.152-0.576-2.376-1.224-3.6-1.872c-0.936-1.008-5.04-3.888-5.472-4.608
		c-0.648-0.432-1.368-0.864-2.088-1.296c0-0.288,0-0.576-0.072-0.936c3.024,0.072,6.048,0.216,9.072,0.36
		c3.6-0.288,3.6-0.288,38.16,0c2.16-0.144,4.32-0.288,6.48-0.504c2.088,0.144,4.176,0.288,6.264,0.504
		c3.168-0.216,6.336-0.432,9.576-0.72c6.048-1.008,6.048-1.008,22.104-2.88c18.936-3.888,18.936-3.888,36.72-7.2
		c0.72-0.288,1.44-0.648,2.16-1.008c1.872-0.432,3.816-0.936,5.76-1.44c12.024-1.872,12.024-1.872,16.344-2.88
		c1.944-0.792,3.96-1.584,5.976-2.376c1.44-0.144,2.88-0.288,4.32-0.504c3.24-1.224,6.552-2.52,9.864-3.816
		c1.944-0.936,3.96-1.872,5.976-2.88c3.672-1.224,7.344-2.52,11.016-3.816c0.432-0.288,0.936-0.648,1.44-1.008
		c1.8-0.576,3.672-1.224,5.544-1.872c3.816-1.944,3.816-1.944,11.016-4.824c3.384-0.936,7.92-2.88,11.088-3.816
		c0.936-0.504,0.936-0.504,2.376-0.72c31.68-15.4081,33.12-16.3441,34.56-16.8481c0.864-0.576,1.728-1.224,2.664-1.872
		c1.296-0.432,2.664-0.936,4.032-1.44c2.16-1.296,4.32-2.592,6.48-3.888c1.44-0.432,5.04-2.376,25.92-11.016
		c2.88-0.936,2.88-0.936,9.144-3.816c0.432-0.288,0.936-0.648,1.44-1.008c5.832-2.52,11.664-5.04,17.496-7.632
		c5.76-1.944,5.76-1.944,15.408-5.76c8.64-3.888,8.64-3.888,13.68-5.76c1.656-0.432,3.312-0.936,5.04-1.44
		c2.664-1.08,5.4-2.232,8.136-3.384c3.384-0.936,13.464-4.824,19.944-6.984c0.072,0.144,0.144,0.2881,0.288,0.432
		c-3.672,1.728-3.672,1.728-11.808,6.336c-0.864,0.288-1.728,0.576-2.664,0.936c-2.376,1.224-4.752,2.52-7.2,3.816
		c-3.744,1.512-7.488,3.024-11.304,4.608c-0.792,0.144-1.584,0.288-2.376,0.432c-0.648,0.504-1.368,1.008-2.088,1.584
		c0,0.72,0,0.72,0.504,1.44c0.216,0.072,0.432,0.216,0.648,0.36c1.44-0.216,3.312-1.224,6.696-2.16
		c0.936-0.5041,2.664-0.936,3.096-1.44c1.872-0.792,3.816-1.584,5.76-2.376c3.384-1.944,11.52-5.76,18.72-9.648
		c1.512-0.576,3.024-1.224,4.608-1.872c3.312-1.944,5.472-2.88,6.912-3.888c3.672-1.584,7.344-3.168,11.088-4.752
		c2.016-1.296,4.104-2.592,6.192-3.888c0.72-0.144,1.44-0.36,2.16-0.576c-0.0719,2.736-0.216,5.472-0.36,8.208
		c-0.504,2.376-0.504,2.376-0.504,4.32c-0.9359,2.16-0.9359,2.16-2.8799,5.04c-0.864,0.576-1.7281,1.224-2.592,1.872
		c-15.264,8.4959-15.696,9-29.88,16.704c-5.688,2.88-11.376,5.76-17.064,8.64c-0.936,0.288-1.872,0.576-2.88,0.936
		c-4.536,2.232-9.072,4.464-13.68,6.696c-2.16,1.296-4.32,2.592-6.48,3.888c-14.4,6.696-14.4,6.696-14.832,7.2
		c-1.728,0.936-1.728,0.936-4.608,1.8719c-5.184,2.7361-10.368,5.472-15.552,8.208c-0.864,0.288-1.728,0.576-2.664,0.936
		c-7.2,3.816-7.2,3.816-8.64,4.824c-21.384,9.576-21.384,9.576-24.264,10.512c-1.44,1.008-1.44,1.008-14.112,6.768
		c-4.248,1.584-8.496,3.168-12.744,4.752c-1.224,0.648-2.52,1.2961-3.816,1.944c-10.368,3.816-12.528,4.32-13.464,4.824
		c-2.16,0.432-2.16,0.432-10.584,3.312c-0.576,0.288-1.224,0.648-1.872,1.008c-6.048,1.872-6.048,1.872-13.464,4.752
		c-0.216,0.288-3.6,1.224-5.976,2.448c-3.6,0.936-8.928,2.88-15.84,4.752c-1.872,0.648-3.816,1.296-5.76,1.944
		c-4.824,0.936-11.304,2.88-18,4.32c-0.792,0.288-1.584,0.576-2.448,0.936c-4.32,0.504-4.32,0.504-8.136,1.44
		c-1.656,1.008-1.656,1.008-3.384,1.44c-1.944,0.144-3.96,0.288-5.976,0.504c-7.416,1.944-7.416,1.944-17.064,3.816
		c-8.28,1.152-16.56,2.376-24.912,3.6c-1.368,0.288-2.736,0.648-4.104,1.008c-4.32,0.432-6.696,0.936-19.44,2.376
		c-2.376,0.504-2.376,0.504-7.704,0.936C110.304,371.952,106.92,372.456,103.104,372.456L103.104,372.456z M6.408,358.056
		c-0.216-0.072-0.432-0.216-0.648-0.36c0-0.288,0-0.576-0.072-0.936c6.192,0.072,7.2-0.144,7.92,0
		c-0.72,0.576-0.72,0.576-2.664,1.08C9.432,357.912,7.92,357.984,6.408,358.056L6.408,358.056z M7.56,354.24
		c-1.44-0.504-1.44-0.504-2.016-1.08c0.216-1.944,0.216-1.944,0.72-3.6c0.936-1.224,0.936-1.224,3.96-3.528
		c0.432-0.144,0.936-0.288,1.44-0.432c0.288-0.288,0.576-0.648,0.936-1.008c1.296-0.576,2.592-1.224,3.888-1.872
		c0.36-0.288,0.72-0.648,1.152-1.008c2.016-0.936,4.032-1.872,6.048-2.88c0.576,0,1.224,0,1.872,0
		c1.08,0.288,2.232,0.648,3.384,1.008c6.984,3.816,7.416,4.32,9.36,5.256c0.36,0.288,0.72,0.576,1.08,0.864
		c0,0.216-0.072,0.504-0.144,0.792c-15.12,4.824-15.12,4.824-15.84,5.328c-3.312,0.432-6.696,1.44-11.952,2.16
		C10.152,354.24,8.856,354.24,7.56,354.24L7.56,354.24z M95.904,345.816c-6.192-0.144-12.456-0.288-18.72-0.504
		c-1.44,0.288-13.464,0.288-14.904,0c-3.024,0-6.12,0-9.216-0.072c0-0.216,0-0.432,0-0.72c7.344-3.744,7.344-3.744,9.72-4.68
		c2.664-1.944,2.664-1.944,5.04-3.168c2.952,0.216,5.904,0.432,8.856,0.72c2.736,0,5.472,0,8.208,0
		c5.76,3.888,5.76,3.888,8.64,5.544c0.216-0.144,0.432-0.36,0.72-0.576c0-0.36,0-0.792,0.072-1.224
		c-1.512-1.008-3.024-2.016-4.536-3.096c0-0.216-0.072-0.432-0.144-0.72c15.84-0.864,15.84-0.864,27.648-1.8
		c5.4-0.648,10.8-1.296,16.272-1.944c1.368,0,2.736,0,4.104,0c2.232,1.8,4.464,3.672,6.696,5.544c0.288,0,0.648,0,1.008,0
		c0.432-0.504,0.432-0.504,0.576-1.584c-0.504-0.72-2.088-1.656-4.608-4.032c0-0.216,0-0.432,0-0.72
		c0.648-0.432,3.528-0.864,4.032-1.152c3.6-0.576,7.2-1.224,10.8-1.872c0.936-0.504,12.24-3.384,13.392-3.888
		c5.76-0.936,6.984-1.44,9.36-1.872c2.664-1.008,2.664-1.008,3.384-1.008c1.512,1.368,3.024,2.736,4.536,4.104
		c1.512,1.08,3.024,2.2321,4.608,3.384c1.152,0,1.152,0,1.512-0.36c0-0.36,0-0.792,0-1.224c-1.296-1.152-3.24-2.16-7.92-5.976
		c0-0.216,0-0.432,0-0.72c0.432-0.288,0.864-0.576,1.368-0.864c7.632-1.944,7.632-1.944,10.296-2.88
		c1.368-0.144,2.736-0.288,4.104-0.504c4.536-1.872,4.536-1.872,5.256-2.376c12.024-3.816,12.024-3.816,15.624-5.256
		c0.36,0,0.72,0,1.152,0c2.592,2.376,5.256,4.752,7.92,7.2c0.432,0,0.864-0.072,1.296-0.144c0-0.4319,0-0.9359,0-1.44
		c-0.936-1.152-5.616-4.896-6.552-6.12c-0.144-0.792-0.144-0.792,0.216-1.224c5.04-2.232,10.08-4.464,15.12-6.696
		c3.168-0.936,7.704-2.88,10.8-3.816c0.792-0.432,1.584-0.936,2.448-1.44c1.872-0.504,1.872-0.504,4.032-0.72
		c2.808,3.096,5.616,6.192,8.424,9.36c0.288,0.072,0.576,0.144,0.936,0.216c0.144-0.072,0.36-0.216,0.576-0.36
		c0-0.504,0-1.08,0-1.656c-1.872-2.16-1.872-2.16-4.32-4.32c-1.008-1.368-2.016-2.7361-3.096-4.104c0-0.288,0-0.576,0-0.936
		c1.656-0.936,1.656-0.936,6.624-2.808c5.4-2.664,10.872-5.4,16.344-8.136c3.312-1.224,3.312-1.224,4.32-1.224
		c2.592,3.024,5.256,6.048,7.92,9.144c0.432,0,0.936,0,1.44,0c0.288-0.576,0.288-0.576,0.072-2.016
		c-5.76-5.976-5.76-5.976-6.984-7.704c0-0.36,0.0721-0.72,0.144-1.1519c3.96-1.872,7.992-3.744,12.024-5.688
		c3.096-0.936,4.824-1.944,10.08-3.816c0.432,0,0.936,0,1.44,0c1.584,1.584,3.168,3.168,4.824,4.752
		c-0.0721,0.072-0.144,0.216-0.2881,0.36c0.576,0.36,1.152,0.72,1.728,1.08c0.936,1.224,0.936,1.224,1.872,1.944
		c0.36-0.072,0.792-0.144,1.224-0.216c0.36-0.864,0.36-0.864,0.36-2.016c-4.68-4.32-4.68-4.32-5.544-4.824
		c-0.36-0.504-0.792-1.08-1.224-1.656c0-0.288,0-0.648,0-1.008c5.472-2.736,7.344-3.24,8.064-3.744
		c1.008-0.216,1.008-0.216,8.424-0.432c7.92,0.936,7.92,0.936,13.176,1.872c3.384,1.008,3.384,1.008,3.888,1.368
		c-0.72,0.576-3.384,1.512-5.04,2.5201c-2.232,0.792-4.464,1.584-6.768,2.376c-3.816,1.944-8.352,3.816-16.272,7.704
		c-0.576,0.144-1.152,0.288-1.728,0.432c-1.44,0.936-2.88,1.872-4.32,2.88c-1.584,0.648-3.168,1.296-4.752,1.944
		c-1.224,0.936-5.04,2.88-5.544,3.384c-1.584,0.576-3.168,1.224-4.824,1.8719c-4.824,2.52-9.72,5.112-14.616,7.704
		c-4.032,1.872-8.136,3.816-12.24,5.76c-2.52,0.792-5.112,1.584-7.704,2.376c-18,7.704-18,7.704-20.88,8.64
		c-1.008,0.576-2.016,1.152-3.096,1.728c-5.976,1.872-5.976,1.872-11.016,3.816c-1.08,0.648-2.232,1.296-3.384,1.944
		c-2.88,0.936-4.536,1.872-6.48,2.376c-1.008,0.432-2.016,0.936-3.096,1.44c-2.592,0.432-5.256,0.936-7.92,1.44
		c-2.16,0.936-2.16,0.936-5.544,1.944c-5.544,0.936-11.16,1.872-16.776,2.88c-6.264,1.872-6.264,1.872-17.064,4.32
		c-11.52,1.872-11.52,1.872-26.136,4.752c-4.824,0.504-6.768,1.008-18.72,2.448c-2.88,0.216-5.76,0.432-8.64,0.72
		c-6.768,0-8.208-0.288-11.088-0.288C105.048,345.6,105.048,345.6,95.904,345.816L95.904,345.816z M42.624,345.6
		c-4.536-3.168-5.76-3.6-6.984-4.608c-1.44-0.432-1.44-0.432-5.976-3.168c0-0.216,0-0.432,0-0.72
		c6.264-1.872,8.424-2.808,11.736-3.744c9.144-3.888,9.144-3.888,14.4-5.76c11.304-3.384,11.304-3.384,11.664-3.744
		c0-0.432-0.072-0.864-0.144-1.296c-2.16,0.216-2.16,0.216-3.6,0.72c-0.72,0-1.512-0.072-2.304-0.144
		c0.216-0.936,0.432-1.872,0.72-2.88c1.08,0,2.16-0.072,3.312-0.144c2.952,0.648,5.904,1.296,8.856,1.944
		c0.216,0.144,0.432,0.36,0.72,0.576c0.864,1.8,1.8,3.672,2.736,5.544c0,0.36,0,0.792,0,1.224c-0.576,0.504-3.96,1.512-7.56,3.456
		c-1.512,0.648-3.024,1.296-4.536,1.944c-1.44,0.936-2.88,1.872-4.32,2.88c-2.664,0.936-2.664,0.936-13.176,5.76
		c-0.432,0.4319-0.936,0.936-1.44,1.44C43.848,345.6,43.848,345.6,42.624,345.6L42.624,345.6z M24.12,335.52
		c-0.36-0.288-0.72-0.648-1.152-1.008c-0.432-0.144-0.936-0.288-1.44-0.432c-0.648-0.432-1.296-0.936-1.944-1.44
		c0-0.36,0-0.72,0-1.08c17.28-5.688,17.28-5.688,22.32-6.984c-0.072,1.728-0.216,3.528-0.36,5.328
		c-1.296,0.792-4.68,1.728-6.336,2.736c-3.096,0.936-6.192,1.872-9.36,2.88C25.272,335.52,24.696,335.52,24.12,335.52L24.12,335.52z
		 M90.144,335.232c-1.656-0.144-3.312-0.288-5.04-0.432c-0.792-1.008-1.584-2.088-2.376-3.168c0-0.432,0-0.864-0.072-1.296
		c0.792-0.432,1.584-0.864,2.448-1.296c0.072-1.08,0.072-1.08-0.36-1.8c-0.288,0-0.576-0.072-0.864-0.144
		c-2.592,0.936-2.592,0.936-3.6,0.936c-0.288-0.36-0.576-0.72-0.936-1.1519c-0.504-1.368-1.08-2.736-1.656-4.176
		c10.296-0.144,10.296-0.144,21.816,0.072c7.488-0.504,14.976-1.08,22.536-1.656c0.432,0.288,0.936,0.576,1.44,0.936
		c0.648,0.864,1.296,1.728,1.944,2.664c3.096,2.16,3.096,2.16,4.32,2.592c1.512,1.152,3.024,2.304,4.536,3.528
		c-0.072,0.072-0.144,0.216-0.216,0.36c-7.704,0.936-15.48,1.872-23.256,2.88C99,334.512,99,334.512,90.144,335.232L90.144,335.232z
		 M76.248,335.016c-0.648-0.144-1.296-0.36-1.944-0.576c0-0.2881,0-0.576,0-0.864c1.152-0.432,2.376-0.936,3.6-1.44
		c0.72-0.072,1.44-0.144,2.16-0.216c0.432,0.504,0.936,1.08,1.44,1.656c0,0.36,0,0.72,0.072,1.08
		C80.568,335.016,80.568,335.016,76.248,335.016L76.248,335.016z M4.968,332.64c-0.72-0.072-1.44-0.216-2.232-0.36
		c-0.072-0.936-0.072-0.936,0.36-1.656c0.72-0.432,1.512-0.864,2.304-1.368c0.648,0.072,1.296,0.144,1.944,0.216
		c0.648,0.648,1.296,1.368,1.944,2.088c-0.144,0.144-0.288,0.36-0.504,0.576C6.624,332.64,6.624,332.64,4.968,332.64L4.968,332.64z
		 M13.608,330.696c-0.864-0.288-1.728-0.576-2.664-0.936c-0.432-0.432-0.864-0.864-1.368-1.296c0.144-0.72,0.144-0.72,0.648-1.152
		c10.584-3.816,11.304-4.32,16.344-6.192c1.728-0.792,3.456-1.584,5.256-2.448c5.04-0.936,5.04-0.936,8.136-1.872
		c1.296-0.576,2.592-1.152,3.888-1.728c0.216,0,0.432,0.072,0.72,0.144c-0.576,1.872-1.224,3.816-1.872,5.76
		c-0.288,0.36-0.576,0.792-0.936,1.224c-5.256,1.872-10.584,3.744-15.912,5.616c-3.456,0.936-6.912,1.872-10.368,2.88
		C14.904,330.696,14.256,330.696,13.608,330.696L13.608,330.696z M137.88,330.696c-4.032-3.384-5.76-4.32-6.192-4.824
		c-1.584-0.936-3.168-1.872-4.824-2.88c-0.936-1.44-0.936-1.44-1.08-2.232c4.176-0.864,10.944-1.8,14.976-2.808
		c3.6-0.432,5.328-0.936,9.864-1.44c0.72-0.216,1.44-0.432,2.16-0.72c3.888-0.576,7.776-1.224,11.736-1.872
		c1.152-0.288,2.376-0.648,3.6-1.008c0.936-0.072,1.872-0.144,2.88-0.216c4.104,4.104,5.544,5.04,8.28,7.848c0,0.216,0,0.432,0,0.72
		c-0.504,0.216-1.008,0.504-1.512,0.792c-6.48,1.44-6.48,1.44-7.704,1.44c-7.416,1.872-14.832,3.816-22.32,5.76
		C145.08,329.472,139.824,330.696,137.88,330.696L137.88,330.696z M44.784,329.04c-0.072-0.072-0.216-0.216-0.36-0.36
		c0-3.6,0-3.6,0.432-5.256c2.016-0.936,4.104-1.8719,6.192-2.808c0.792-0.072,1.584-0.144,2.376-0.216
		c0.72-0.288,1.44-0.648,2.16-1.008c0.504-0.072,1.08-0.144,1.656-0.216c0.288,0.36,0.288,0.36,2.304,0.864
		c-0.216,1.368-0.432,2.736-0.72,4.104C48.384,327.816,47.664,328.32,44.784,329.04L44.784,329.04z M45.72,320.544
		c0.864-3.384,0.864-3.384,2.736-8.64c0.648-1.152,1.296-2.376,1.944-3.6c1.584-2.232,3.168-4.464,4.824-6.768
		c1.152-0.936,1.152-0.936,3.096-3.312c0.432,0,0.864-0.0721,1.368-0.144c0.216,0.144,0.432,0.288,0.72,0.432
		c0.72-0.216,0.72-0.216,1.008-0.792c-0.216-1.656-0.216-1.656,0-3.384c1.368-1.296,2.808-2.664,4.248-4.032
		c2.52-1.872,5.04-3.816,7.632-5.7599c5.112-2.808,5.544-3.312,6.768-3.744c0.792,0.072,1.584,0.144,2.376,0.216
		c0.288-0.432,0.648-0.864,1.008-1.296c7.632-3.96,7.632-3.96,8.856-4.968c4.32-1.872,4.32-1.872,11.52-5.76
		c3.816-1.584,7.632-3.168,11.52-4.752c0.216,0.072,0.432,0.144,0.72,0.216c-2.664,1.8-6.48,3.6-10.584,5.976
		c-0.36,0.288-0.72,0.648-1.152,1.008c-0.576,0.144-1.152,0.288-1.728,0.4319c-2.16,1.296-4.32,2.592-6.48,3.888
		c-5.76,4.752-7.416,5.76-10.512,8.64c-0.432,0.288-0.936,0.576-1.44,0.936c-2.808,2.808-5.616,5.616-8.424,8.424
		c-1.368,1.584-2.736,3.24-4.104,4.896c-7.56,11.52-7.56,11.52-9.504,15.12c-0.432,1.44-0.432,1.44-0.936,1.944
		c-3.024,0.72-6.12,1.44-9.216,2.232c-1.224,0.648-2.52,1.296-3.816,1.944C47.376,320.112,46.584,320.328,45.72,320.544
		L45.72,320.544z M89.64,320.4c-4.32-0.288-4.32-0.288-11.52-0.288c-2.376-0.432-4.032-0.432-5.256-0.936
		c-1.944-0.216-3.096-0.72-8.856-1.656c0-0.504-0.072-1.008-0.144-1.584c1.872-4.32,1.872-4.32,3.816-7.632
		c1.944-2.664,3.96-6.048,7.92-11.088c2.592-2.664,5.256-5.4,7.92-8.136c6.264-5.544,6.264-5.544,6.696-6.264
		c2.664-1.872,5.328-3.816,8.064-5.76c13.464-7.56,13.464-7.56,27.864-15.264c8.856-3.816,12.456-5.76,14.904-6.696
		c3.096-1.944,7.2-3.816,8.64-4.824c8.136-3.816,22.032-9.576,23.472-10.512c3.24-1.296,6.552-2.592,9.864-3.888
		c3.024-0.792,6.048-1.584,9.144-2.376c1.944-1.224,3.96-2.52,5.976-3.816c2.088-2.16,4.176-4.32,6.264-6.48
		c1.08-1.656,2.16-3.312,3.312-4.968c3.816-4.968,7.632-9.936,11.52-14.976c0.72,0.072,1.44,0.144,2.16,0.216
		c11.304,4.32,11.304,4.32,11.52,4.608c1.368,0.288,2.736,0.576,4.104,0.864c0,0.288,0,0.576,0.072,0.936
		c-7.632,8.424-7.632,8.424-11.736,13.464c-3.816,5.472-3.816,5.472-7.704,10.296c-5.76,6.264-5.76,6.264-6.696,7.704
		c-2.52,1.872-4.824,4.032-7.272,5.832c-4.536,2.232-9.072,4.464-13.68,6.696c-2.016,0.648-4.032,1.2961-6.048,1.944
		c-5.256,2.88-9.792,4.824-13.392,6.696c-4.608,1.944-8.424,3.888-12.96,5.76c-2.304,1.296-4.608,2.592-6.984,3.888
		c-1.656,0.576-3.312,1.224-5.04,1.872c-1.656,0.936-3.312,1.872-5.04,2.88c-4.68,1.872-9.432,3.816-14.184,5.76
		c-3.096,1.944-3.096,1.944-6.912,3.888c-1.512,0.576-3.024,1.224-4.608,1.872c-3.096,1.944-3.096,1.944-10.512,5.76
		c-7.632,3.528-15.336,7.056-23.04,10.584c-3.168,1.944-3.168,1.944-7.2,3.816c-0.36,0.432-0.792,0.864-1.224,1.368
		c0,0.36,0,0.72,0,1.152c0.36,0,0.792,0.072,1.224,0.144c0.36-0.36,0.72-0.72,1.152-1.08c1.44-0.648,2.88-1.296,4.32-2.016
		c0.864-0.648,1.728-1.2961,2.664-1.944c8.64-3.816,16.344-7.704,20.664-9.576c8.712-4.464,17.424-8.928,26.136-13.464
		c4.536-1.872,9.072-3.816,13.68-5.76c1.08-0.648,2.232-1.296,3.384-1.944c1.656-0.576,3.312-1.224,5.04-1.872
		c2.232-1.2961,4.464-2.592,6.696-3.888c2.88-0.936,2.88-0.936,7.2-2.88c0.432-0.288,0.936-0.576,1.44-0.936
		c1.008-0.288,2.016-0.576,3.096-0.936c7.488-3.888,10.08-4.824,11.304-5.76c1.728-0.792,3.456-1.584,5.256-2.448
		c1.296-0.288,2.592-0.576,3.888-0.936c3.6-1.944,8.136-3.816,15.552-7.704c0.864-0.576,1.728-1.224,2.664-1.872
		c1.944-2.16,1.944-2.16,4.32-4.104c1.368-1.584,2.736-3.168,4.104-4.824c0.072-0.288,0.144-0.648,0.288-1.008
		c0.072,0.072,0.216,0.144,0.36,0.216c2.808-3.096,3.24-4.104,3.96-4.536c2.736-3.5999,5.472-7.2,8.208-10.8
		c3.312-3.6,5.76-5.76,10.296-10.584c0.576,0,1.152-0.0721,1.8-0.144c2.664,0.936,2.664,0.936,5.04,2.376
		c0.7921,0.144,1.584,0.288,2.448,0.504c1.584,0.648,3.168,1.296,4.752,1.944c6.768,1.8719,6.768,1.8719,16.56,5.256
		c2.016,0.432,4.032,0.864,6.048,1.368c0,0.288-0.072,0.576-0.144,0.936c-1.944,2.16-2.88,3.6-3.888,4.536
		c-2.232,3.168-4.464,6.408-6.696,9.648c-0.36,0.36-0.792,0.72-1.224,1.152c-0.288,0.648-0.576,1.296-0.936,1.944
		c-0.216,0.144-0.504,0.288-0.792,0.432c-7.92,9.504-7.92,9.504-14.4,16.488c-2.664,1.872-2.664,1.872-4.824,4.032
		c-3.096,1.944-4.104,2.88-10.8,6.768c-3.672,1.584-7.344,3.168-11.016,4.752c-0.936,0.648-1.872,1.2961-2.88,1.944
		c-2.88,0.936-4.608,1.944-10.08,3.816c-1.944,1.008-1.944,1.008-14.4,5.328c-0.432,0.288-0.936,0.576-1.44,0.936
		c-3.528,1.224-7.056,2.52-10.584,3.816c-0.792,0.432-1.584,0.936-2.376,1.44c-6.48,1.944-6.48,1.944-17.064,5.76
		c-1.656,1.008-1.656,1.008-5.04,2.448c-0.792,0.144-1.584,0.288-2.376,0.432c-1.944,1.008-3.6,1.44-4.32,1.944
		c-2.88,0.936-5.76,1.872-8.64,2.88c-1.296,0.648-2.592,1.296-3.888,1.944c-1.584,0.432-3.168,0.936-4.752,1.44
		c-0.936,0.4319-1.872,0.936-2.88,1.44c-0.792,0.144-1.584,0.288-2.448,0.4319c-1.224,0.648-2.52,1.2961-3.816,1.944
		c-8.136,2.376-10.296,3.384-12.024,3.816c-5.472,2.448-5.472,2.448-7.2,2.88c-0.864,0.504-1.728,1.008-2.592,1.584
		c-0.216,0.432-0.432,0.864-0.72,1.296C100.224,320.4,100.224,320.4,89.64,320.4L89.64,320.4z M181.8,320.112
		c-2.592-2.376-5.256-4.752-7.92-7.2c0-0.288,0-0.648,0-1.008c1.008-0.432,6.264-1.368,7.704-1.872
		c1.656-0.288,3.312-0.576,5.04-0.936c8.568-2.664,17.136-5.4,25.704-8.136c0.504,0.072,1.08,0.144,1.656,0.216
		c1.008,1.296,2.016,2.592,3.096,3.96c0.648,0.504,1.296,1.008,1.944,1.584c0,0.288,0,0.576,0.072,0.864
		c-2.376,1.152-4.824,2.304-7.272,3.456c-1.368,0.288-2.736,0.576-4.104,0.936c-3.456,1.44-6.984,2.88-10.512,4.32
		c-4.536,1.224-9.072,2.52-13.68,3.816C182.952,320.112,182.376,320.112,181.8,320.112L181.8,320.112z M108.36,319.896
		c-0.288-0.072-0.576-0.216-0.936-0.36c0.216-0.36,0.216-0.36,6.264-3.24c0.504-0.072,1.08-0.144,1.656-0.216
		c1.944-1.008,5.04-1.944,5.76-2.448c5.76-1.872,7.704-2.88,11.016-3.816c0.648-0.36,1.296-0.792,1.944-1.224
		c1.584-0.36,3.168-0.72,4.824-1.1519c3.6-1.944,3.6-1.944,8.136-3.888c4.536-1.584,9.072-3.168,13.68-4.752
		c1.224-0.648,2.52-1.296,3.816-1.944c3.6-0.936,8.424-2.88,14.184-4.824c4.104-1.8719,14.184-5.76,15.84-6.192
		c0.432-0.288,0.936-0.648,1.44-1.008c2.16-0.576,4.32-1.224,6.48-1.872c5.976-2.376,11.952-4.752,18-7.2
		c1.008-0.648,2.016-1.296,3.096-1.944c10.8-4.824,10.8-4.824,12.24-5.112c0,0.504-0.072,1.08-0.144,1.656
		c0.36,0.36,0.7921,0.792,1.224,1.224c1.656,0.936,3.312,1.944,4.968,2.952c0.72,0.072,1.44,0.144,2.16,0.216
		c1.44-0.432,4.32-2.16,7.92-3.6c0.288-0.792,0.288-0.792,0.072-2.448c-1.656-0.936-3.384-1.872-5.112-2.808
		c-0.648-0.648-1.2961-1.296-1.944-1.944c-0.5041,0-1.08,0.072-1.656,0.144c0.072-0.288,0.144-0.576,0.288-0.936
		c2.304-1.872,4.608-3.816,6.984-5.76c3.168-3.744,6.336-7.488,9.576-11.304c0.288-0.504,0.576-1.08,0.864-1.656
		c0.216,0,0.432-0.0721,0.72-0.144c1.008-1.224,2.016-2.448,3.024-3.672c0-0.216,0.072-0.432,0.144-0.72
		c0.216,0,0.4319-0.072,0.72-0.144c3.816-5.4,7.776-10.224,9.648-13.104c1.224-1.08,2.448-2.16,3.744-3.312
		c0.648,0,1.296-0.072,1.944-0.144c7.128,1.872,14.256,3.816,21.384,5.76c3.6,0.432,3.6,0.432,4.32,0.72
		c3.168,0.144,6.336,0.288,9.576,0.432c0.216-0.144,0.432-0.288,0.72-0.432c0-0.36,0-0.72,0.072-1.08
		c-0.288-0.216-0.648-0.432-1.008-0.648c-2.592-0.144-5.256-0.288-7.92-0.432c-8.784-2.232-17.568-4.464-26.424-6.768
		c-1.0081-0.432-2.016-0.936-3.096-1.44c-3.6-0.936-7.2-1.872-10.8-2.88c-2.592-0.936-5.256-1.872-7.92-2.88
		c-2.736-0.576-5.472-1.224-8.208-1.872c-2.16-1.008-2.16-1.008-10.512-3.888c-2.448-1.44-3.888-1.872-11.088-5.76
		c-3.168-1.44-6.336-2.88-9.576-4.32c-0.504-0.72-0.504-0.72-0.648-2.016c1.08-0.936,2.16-1.872,3.24-2.88
		c0.864-0.288,1.728-0.576,2.664-0.864c0.288-0.72,0.576-1.44,0.864-2.232c0.576-0.7921,1.224-1.584,1.872-2.376
		c1.152-0.576,2.304-1.224,3.528-1.872c0.504,0,1.08,0,1.656,0c0.936,0.648,1.872,1.296,2.88,1.944
		c2.664,0.936,3.384,1.44,6.264,2.376c3.96,1.728,7.992,3.528,12.024,5.328c2.664,0.864,5.4,1.728,8.136,2.592
		c3.168,1.296,6.336,2.592,9.576,3.888c6.984,1.872,9.864,2.376,10.8,2.88c1.368,0.288,2.7361,0.576,4.104,0.936
		c1.152,0.432,2.376,0.936,3.6,1.44c16.776,4.32,16.776,4.32,21.6,5.184c-0.072,0.72-0.216,1.44-0.36,2.16
		c-0.36,0.72-0.792,1.44-1.224,2.16c0,0.648,0,1.2961,0,1.944c0.144,0.144,0.36,0.288,0.576,0.432c0.36-0.288,0.72-0.576,1.08-0.936
		c0.648-1.008,1.296-2.016,1.944-3.096c0.504-1.728,0.504-1.728,0.864-2.088c5.76,0.216,5.76,0.216,11.304,0
		c1.656-0.936,1.656-0.936,14.4-5.76c5.04-2.88,5.04-2.88,5.472-3.384c0.792-0.288,1.584-0.576,2.448-0.936
		c1.008-0.648,2.016-1.296,3.096-1.944c8.424-3.816,13.68-5.76,15.12-6.696c8.136-3.384,9.864-3.816,12.024-4.824
		c2.16-0.432,7.2-2.376,8.856-2.592c0.216,0.36,0.216,0.36-0.648,2.736c-0.936,1.224-1.872,3.168-2.376,3.6
		c-0.936,2.88-1.872,5.76-2.88,8.64c-0.072,0.864-0.144,1.728-0.216,2.664c0.144,0.144,0.2881,0.288,0.432,0.504
		c0.432,0,0.864,0,1.368,0.072c0.216-0.144,0.432-0.36,0.72-0.576c0.864-2.664,1.8-5.4,2.736-8.136
		c1.944-4.1039,3.816-7.2,4.824-9.648c0.288-0.432,0.576-0.936,0.936-1.44c1.44-0.576,2.952-1.152,4.464-1.8
		c1.656-0.216,2.376-0.72,5.256-1.44c1.008,0,2.088,0,3.168,0c0.216,0.288,0.432,0.576,0.72,0.864
		c0.864,5.112,1.8,10.224,2.736,15.336c0.576,2.016,1.224,4.032,1.872,6.048c1.224,0.936,1.224,0.936,1.728,1.872
		c0.432,1.944,0.432,1.944,0.936,2.88c0.864,0.576,0.864,0.576,1.584,0.72c0,0.648-0.072,1.296-0.144,1.944
		c0.144,0.216,0.36,0.432,0.576,0.72c1.224,0.36,1.224,0.36,1.728,0.936c1.8,4.824,1.8,4.824,2.736,6.48c0,0.36,0,0.792,0,1.224
		c-0.216,0.216-0.504,0.504-0.792,0.792c-43.92,19.224-43.92,19.224-48.96,21.168c-0.36,0-0.792,0.072-1.224,0.144
		c3.672-8.928,3.672-8.928,4.896-11.088c0-0.504,0-1.08,0-1.656c-0.144-0.144-0.36-0.288-0.576-0.504
		c-1.44-0.144-1.44-0.144-2.16,0.144c0-0.36-0.072-0.72-0.144-1.08c0.36-0.504,0.792-1.08,1.224-1.656
		c0.432-1.44,2.376-5.04,6.192-14.688c0.504-0.432,0.504-0.432,1.008-1.44c0-0.288,0-0.576,0-0.936
		c-0.36-0.36-0.72-0.7921-1.08-1.224c-0.936,0.36-1.944,1.296-6.48,3.744c-2.88,0.936-2.88,0.936-5.76,2.376
		c-1.44,0.288-2.88,0.576-4.32,0.936c-0.792,0.288-1.584,0.648-2.376,1.008c-0.144,1.08,0.072,1.584,0.288,10.224
		c0.288,0.936,0.288,4.32,0,5.256c0,0.36,0,0.792,0,1.224c0.144,0.216,0.288,0.432,0.504,0.72c0.36,0,0.72,0,1.08,0.072
		c0.936-0.648,1.872-1.296,2.88-1.944c5.7599-1.872,5.7599-1.872,6.048-2.16c0.216,0,0.432,0.072,0.72,0.144
		c-1.584,3.6-3.168,7.2-4.752,10.8c0,0.432,0,0.936,0,1.44c0.864,0.72,0.864,0.72,1.008,1.224c-8.064,3.672-15.48,6.552-17.136,7.56
		c-1.224,0.432-1.728,0.936-6.048,2.88c-4.32,1.584-8.64,3.168-12.96,4.752c-1.656,1.008-5.976,2.88-7.416,3.888
		c-2.88,0.432-3.384,0.72-10.08,1.656c-2.232,0.432-4.464,0.936-6.696,1.44c-9.864,3.816-9.864,3.816-15.624,5.76
		c-0.432,0.288-0.936,0.576-1.44,0.9359c-3.096,0.504-3.096,0.504-5.976,1.44c-2.376,1.08-4.752,2.232-7.2,3.384
		c-3.096,0.648-6.192,1.296-9.36,1.944c-12.024,3.816-12.024,3.816-15.84,4.752c-2.952,1.296-5.904,2.592-8.928,3.888
		c-4.608,1.584-9.216,3.168-13.896,4.752c-0.504,0.288-1.08,0.648-1.656,1.008c-4.176,1.44-8.352,2.88-12.528,4.32
		c-0.936-0.288-0.936-0.288-1.872,0c-0.144,0.288-0.288,0.576-0.432,0.864c-1.368,0.576-2.736,1.152-4.176,1.728
		c-12.96,3.888-12.96,3.888-15.12,4.824c-4.32,0.936-4.32,0.936-6.912,1.944c-23.328,4.752-23.328,4.752-36.72,7.2
		c-7.2,0.936-7.2,0.936-17.784,2.88c-3.672,0.288-7.344,0.576-11.016,0.936c-1.224,0.504-1.224,0.504-3.6,0.936
		C113.904,319.392,113.904,319.392,108.36,319.896L108.36,319.896z M354.6,317.664c0.0721-0.216,0.144-0.432,0.216-0.72
		c3.384-1.368,3.384-1.368,4.608-2.304c3.816-1.944,3.816-1.944,8.424-3.888c0.216-0.648,0.504-1.296,0.792-2.016
		c2.52-1.872,5.112-3.816,7.704-5.76c1.584-0.576,3.24-1.152,4.896-1.8c3.168-1.944,3.168-1.944,7.92-5.76
		c4.104-3.816,4.104-3.816,6.768-5.76c0.576-0.288,1.224-0.576,1.872-0.936c4.104-1.008,4.104-1.008,6.768-1.944
		c8.64-5.76,8.64-5.76,10.512-6.696c1.944-0.504,1.944-0.504,3.888-1.44c0.864-1.296,1.8-2.592,2.736-3.96
		c2.016-0.864,2.016-0.864,12.816-7.56c0.288-0.288,0.648-0.648,1.008-1.008c0.72-0.288,1.44-0.576,2.16-0.936
		c0.36-0.36,0.72-0.72,1.152-1.08c2.16-1.224,4.32-2.448,6.48-3.744c1.8-0.576,3.672-1.224,5.544-1.872
		c3.528-2.52,7.056-5.112,10.584-7.704c1.008-1.008,2.016-2.016,3.0959-3.096c1.224-0.864,2.448-1.8,3.672-2.736
		c0.288-0.936,0.648-1.872,1.0081-2.88c1.152-1.008,2.16-2.448,4.68-4.824c1.8-1.224,3.6-2.52,5.4-3.816
		c1.296-0.576,2.592-1.224,3.96-1.872c8.424-2.376,8.424-2.376,13.176-3.312c3.888-1.44,3.888-1.44,11.52-3.384
		c2.304-1.08,4.608-2.232,6.984-3.384c0.6481-0.072,1.296-0.144,1.9441-0.216c0,0.288,0,0.576,0.0719,0.864
		c-1.944,2.376-1.944,2.376-3.96,4.176c-4.536,1.944-4.536,1.944-7.92,3.816c-2.592,1.944-2.592,1.944-5.976,3.888
		c-2.52,0.792-5.1121,1.584-7.704,2.376c-1.152,0.936-1.152,0.936-4.536,2.88c-1.728,1.584-3.456,3.168-5.256,4.824
		c-1.08,0.576-2.232,1.152-3.3839,1.8c-0.216,0.288-0.432,0.576-0.648,0.936c-7.272,3.24-7.272,3.24-10.152,4.176
		c-1.872,1.296-3.816,2.592-5.76,3.888c-1.2241,1.296-2.52,2.592-3.816,3.96c-0.936,1.44-1.872,2.88-2.808,4.32
		c-1.368,0.936-2.736,1.872-4.104,2.88c-0.936,1.224-0.936,1.224-3.24,3.096c-0.576,0.288-1.224,0.576-1.872,0.864
		c-0.936,1.008-1.872,2.016-2.88,3.096c-3.384,1.944-3.384,1.944-7.92,3.816c-1.152,0.288-2.376,0.648-3.6,1.008
		c-3.888,1.872-7.776,3.816-11.736,5.76c-1.656,0.576-3.312,1.224-5.04,1.872c-1.656,1.296-3.312,2.592-5.04,3.888
		c-1.08,0.576-2.232,1.224-3.384,1.8719c-0.72,0.72-1.44,1.5121-2.16,2.304c-0.648,1.008-1.296,2.016-1.944,3.024
		c-0.36,0.288-0.72,0.576-1.152,0.936c-2.448,0.936-2.448,0.936-4.32,2.016c0.432,1.0081,0.432,1.0081,0.216,1.368
		c-2.88,0.576-5.76,1.224-8.64,1.872c-1.584,0.648-3.168,1.296-4.824,1.944c-7.2,3.816-7.2,3.816-8.352,4.824
		c-3.6,1.584-7.2,3.168-10.8,4.752C361.08,315.432,357.84,316.512,354.6,317.664L354.6,317.664z M117.504,307.656
		c-7.2-3.816-7.2-3.816-8.64-4.896c0-0.36-0.072-0.792-0.144-1.224c0.864-0.576,1.8-1.224,2.736-1.872
		c1.08-0.2881,2.232-0.576,3.384-0.864c1.296-0.792,2.592-1.584,3.888-2.448c4.536-1.872,4.536-1.872,5.472-2.592
		c0.288,0,0.648,0,1.008,0c0.792,0.72,1.584,1.44,2.376,2.16c3.384,1.872,3.384,1.872,4.32,2.16c0.864,0,1.728,0,2.664,0
		c0.432,0.36,0.864,0.72,1.296,1.08c0,0.288,0,0.576,0,0.936c-0.36,0.288-0.72,0.648-1.08,1.008
		c-4.32,1.728-5.976,2.736-15.624,6.552C118.656,307.656,118.08,307.656,117.504,307.656L117.504,307.656z M221.4,306.432
		c-0.72-0.576-1.44-1.224-2.16-1.872c-0.936-1.152-1.872-2.304-2.88-3.528c0-0.4319-0.072-0.864-0.144-1.368
		c2.664-1.08,5.328-2.16,8.064-3.312c1.296-0.288,2.592-0.576,3.888-0.936c0.504-0.288,1.08-0.576,1.656-0.936
		c3.816-1.296,7.632-2.592,11.52-3.888c4.104-1.8719,4.104-1.8719,6.984-2.88c0.504-0.072,1.08-0.144,1.656-0.216
		c0.792,0.864,1.584,1.728,2.376,2.664c0.792,0.576,1.584,1.224,2.448,1.8719c0,0.36,0,0.72,0.072,1.152
		c-8.7119,3.672-8.7119,3.672-13.752,5.328c-3.888,1.944-6.768,2.88-10.584,4.824c-2.304,0.936-4.608,1.872-6.984,2.88
		C222.84,306.288,222.12,306.36,221.4,306.432L221.4,306.432z M50.76,303.264c0.072-2.304,0.216-4.608,0.36-6.984
		c0.288-1.224,0.576-2.52,0.936-3.816c0.288-0.504,0.576-1.008,0.864-1.584c0.288,0.072,0.648,0.144,1.008,0.216
		c2.16,2.16,2.16,2.16,3.096,3.456c0,0.504,0,1.008,0.072,1.512c-1.872,2.376-4.032,4.536-6.12,7.2
		C50.904,303.264,50.832,303.264,50.76,303.264L50.76,303.264z M404.568,297c0.288-1.44,0.288-1.44,1.296-3.096
		c0.72-0.648,1.44-1.296,2.232-1.944c0.648-0.288,1.2961-0.576,1.944-0.864c1.656-1.224,3.312-2.52,5.04-3.816
		c5.472-2.52,11.016-5.112,16.56-7.704c2.088-0.648,4.176-1.296,6.264-1.944c1.368-0.576,2.736-1.224,4.104-1.872
		c0.864-0.648,1.728-1.296,2.592-1.944c0.72-0.792,1.44-1.584,2.16-2.376c0.72-0.2881,1.44-0.648,2.16-1.008
		c0.576-0.432,1.152-0.936,1.728-1.44c0.216,0,0.432,0,0.72-0.072c0,0.216-0.072,0.432-0.144,0.72
		c-1.584,1.944-3.168,3.9601-4.824,5.976c-0.7921,0.576-1.584,1.152-2.376,1.728c-0.072,0.432-0.216,0.864-0.36,1.296
		c-10.296,3.816-10.296,3.816-13.4641,4.752c-3.024,1.296-6.048,2.592-9.072,3.888C415.656,290.52,410.112,293.76,404.568,297
		L404.568,297z M58.68,292.752c-1.368-1.296-2.736-2.592-4.176-3.888c0.072-0.648,0.144-1.296,0.216-1.944
		c3.816-5.04,4.824-5.976,5.256-6.984c2.16-2.16,4.608-4.032,6.624-5.976c1.224-0.936,2.52-1.872,3.816-2.88
		c0.504-0.072,1.008-0.144,1.512-0.216c0.072,0.288,0.144,0.576,0.216,0.936c0.36,0.072,0.792,0.216,1.224,0.36
		c0.72,0.576,1.44,1.224,2.16,1.872c1.008,1.296,2.088,2.664,3.168,4.032c0,0.216,0,0.432,0,0.72
		c-2.16,1.224-4.32,2.448-6.552,3.672c-3.24,2.52-6.552,5.112-9.864,7.704c-0.864,0.864-1.728,1.728-2.592,2.592
		C59.4,292.752,59.04,292.752,58.68,292.752L58.68,292.752z M257.184,291.312c-1.152-1.008-2.376-2.016-3.6-3.096
		c-0.288-0.504-0.576-1.008-0.864-1.512c0-0.288,0.072-0.576,0.144-0.864c3.6-1.008,5.76-1.944,9.36-2.88
		c0.792-0.288,1.584-0.648,2.376-1.008c4.392-1.08,8.784-2.16,13.248-3.312c1.512-0.648,3.024-1.296,4.536-1.944
		c0.432,0,0.864,0.072,1.296,0.144c0,0.504,0.072,1.08,0.144,1.656c1.224,0.144,1.224,0.144,1.44,0.504
		c-0.36,0.36-0.792,0.72-1.224,1.08c-12.672,5.76-12.672,5.76-25.2,11.016C258.336,291.168,257.76,291.24,257.184,291.312
		L257.184,291.312z M287.64,277.92c-0.36-0.504-0.72-1.008-1.152-1.584c0-0.288,0-0.576-0.072-0.936
		c1.944-0.864,1.944-0.864,5.832-1.8c0.576-0.2881,1.224-0.648,1.872-1.0081c3.6-0.9359,3.6-0.9359,14.904-5.04
		c1.656,0,1.656,0,1.944,0.288c-6.264,2.88-6.264,2.88-11.304,4.752c-3.672,1.728-7.344,3.528-11.016,5.328
		C288.36,277.92,288,277.92,287.64,277.92L287.64,277.92z M81.288,277.416c-1.224-0.936-2.16-2.376-6.48-6.264
		c-0.504-0.288-1.008-0.6479-1.512-1.008c0-0.288,0-0.648-0.072-1.008c11.52-8.64,12.384-9,12.816-9.504
		c0.792-0.288,1.584-0.576,2.448-0.936c0.864-0.72,1.728-1.44,2.592-2.16c1.584-0.36,3.168-0.792,4.824-1.224
		c0.936,0.2881,1.872,0.648,2.88,1.008c1.584,1.224,3.168,2.52,4.824,3.816c1.008,1.008,2.016,2.016,3.096,3.096
		c0,0.504,0,1.008,0.072,1.584c-14.688,7.56-20.736,10.944-23.832,12.384C82.44,277.272,81.864,277.344,81.288,277.416
		L81.288,277.416z M353.88,266.616c-0.216-0.144-0.4319-0.288-0.72-0.504c-9.36-1.872-9.36-1.872-18.432-3.312
		c0-0.288,0-0.576-0.072-0.864c3.024-1.512,6.048-3.096,9.144-4.68c0.864-0.288,1.728-0.576,2.664-0.936
		c0.936-0.576,1.872-1.152,2.88-1.728c4.824-1.8719,13.176-5.76,15.84-6.696c0.432-0.288,0.936-0.576,1.44-0.936
		c1.944-0.504,6.264-2.448,31.68-12.024c8.856-3.816,10.584-4.824,14.904-6.696c3.096-1.944,3.096-1.944,8.136-4.32
		c0.432,0,0.936,0,1.44,0c1.368,1.656,2.736,3.312,4.104,5.04c0.288,1.296,0.288,1.296,0.792,2.016c0.72,0,1.512,0.072,2.304,0.144
		c4.536-1.944,4.536-1.944,7.92-3.888c4.824-2.016,9.648-4.032,14.472-6.048c0-1.008,0-1.008-0.288-1.368
		c-1.944-0.216-1.944-0.216-2.88-0.72c-0.936,0-1.872,0-2.88,0c-2.664-0.936-2.664-0.936-2.88-1.224
		c-2.592-0.576-5.256-1.224-7.92-1.8719c-1.656-0.7921-3.312-1.584-5.04-2.448c-2.448-0.432-2.448-0.432-3.168-0.936
		c-0.36-1.152-0.72-2.304-1.08-3.456c0.504,0,1.008-0.0721,1.584-0.144c1.728,0.288,3.456,0.576,5.256,0.936
		c6.696,1.872,13.392,3.816,20.16,5.76c3.096,1.296,6.192,2.592,9.36,3.888c0.648,0.432,1.296,0.864,1.944,1.296
		c-2.16,1.296-4.3199,2.592-6.48,3.96c-3.168,1.584-6.336,3.168-9.576,4.824c-15.12,5.76-19.44,7.632-25.2,9.576
		c-0.72,0.504-0.72,0.504-12.024,4.32c-1.368,0.288-2.736,0.576-4.104,0.936c-16.992,7.2-18.936,7.704-19.656,8.208
		c-18.936,7.632-20.664,8.64-25.704,10.512c-5.472,2.88-5.472,2.88-6.912,3.384C354.6,266.616,354.24,266.616,353.88,266.616
		L353.88,266.616z M109.8,263.52c-2.376-1.944-3.312-3.024-8.352-6.984c-0.936-0.576-1.872-1.152-2.88-1.8
		c0-0.216,0-0.432,0.072-0.72c6.12-2.736,6.12-2.736,7.56-3.744c2.88-0.936,4.32-1.872,16.56-7.2
		c0.648-0.072,1.296-0.144,1.944-0.216c0.216,0.36,0.216,0.36,1.224,0.648c0.072,0.936,0.432,1.152,1.008,3.6
		c0,0.432,0,0.936-0.072,1.44c0.36,0.072,0.792,0.144,1.224,0.216c-0.432,0.936-0.432,0.936-0.288,1.944
		c0.504-0.504,0.504-0.504,0.504-0.288c0.72,0,1.44,0.072,2.16,0.144c0.576-0.36,1.512-2.304,1.944-2.664c0.504,0,1.08,0,1.656,0
		c0.504,0.504,1.08,1.08,1.656,1.656c0.864,0.288,1.728,0.648,2.664,1.008c0,0.288,0,0.576,0.072,0.864
		c-1.296,0.792-1.296,0.792-8.496,3.672c-1.08,0.288-2.16,0.576-3.312,0.936c-7.704,3.888-7.704,3.888-15.408,7.2
		C110.808,263.304,110.304,263.376,109.8,263.52L109.8,263.52z M317.88,252.792c0-0.36-0.072-0.72-0.144-1.152
		c1.872-4.104,3.816-8.28,5.76-12.456c1.872-2.88,3.816-5.76,5.76-8.64c0.864-0.864,1.728-1.728,2.592-2.592
		c2.376-0.432,2.376-0.432,8.136-2.376c8.856-3.816,8.856-3.816,12.744-5.76c0.36-0.288,0.72-0.576,1.152-0.936
		c1.224,0,1.224,0,1.584,0.36c0,4.824,0,9.72,0,14.616c-0.504,3.384-0.504,3.384-0.864,3.744c-4.752,1.872-12.96,5.76-15.552,6.696
		c-0.72,0.504-3.384,1.44-4.824,2.376c-8.136,3.384-8.856,3.888-11.736,4.824c-0.72,0.504-0.72,0.504-3.384,1.44
		C318.744,252.936,318.312,252.864,317.88,252.792L317.88,252.792z M140.544,250.272c-0.36-0.36-0.792-0.72-1.224-1.152
		c-2.16-1.008-3.312-1.944-5.256-2.88c-1.872-1.224-3.816-2.448-5.76-3.744c0-0.216-0.072-0.432-0.144-0.72
		c1.08-0.576,2.16-1.152,3.24-1.8c6.984-1.944,14.184-4.32,15.12-4.824c1.584-0.288,3.168-0.576,4.824-0.936
		c0.72-0.288,1.44-0.576,2.16-0.936c3.816-0.288,3.816-0.288,4.104,0c1.008,0.144,2.016,0.288,3.096,0.432
		c1.44,1.008,1.44,1.008,2.376,2.16c0.864,0.2881,1.728,0.648,2.664,1.0081c0.504,0.504,1.08,1.08,1.656,1.656
		c0.072,0.36,0.216,0.72,0.36,1.08c-5.4,2.232-10.8,4.536-16.2,6.84C141.048,250.272,141.048,250.272,140.544,250.272
		L140.544,250.272z M186.84,250.272c-1.08-0.216-2.16-0.432-3.312-0.72c-0.936,0-1.872,0-2.88,0
		c-0.288-0.144-0.648-0.288-1.008-0.432c-0.216-0.36-0.432-0.72-0.72-1.08c0.864-0.648,1.728-1.368,2.664-2.088
		c1.224-0.576,2.52-1.224,3.816-1.872c4.608,0.72,4.608,0.72,8.424,1.656c0.36,0.36,0.36,0.36,0.36,1.08
		c-1.872,1.08-3.744,2.16-5.616,3.24C187.992,250.128,187.416,250.2,186.84,250.272L186.84,250.272z M170.064,238.032
		c-2.376-2.016-2.376-2.016-4.104-3.096c-0.36-0.0721-0.72-0.144-1.152-0.216c-0.936-0.7921-1.944-1.656-2.952-2.52
		c-0.072-0.288-0.144-0.576-0.216-0.936c2.448-0.432,15.12-4.248,16.848-4.968c0.792,0,1.584,0,2.376,0
		c0.504,0.36,1.08,0.792,1.656,1.224c1.44,0.576,2.88,1.224,4.32,1.872c0.36,0.648,0.792,1.368,1.224,2.088
		c-0.144,0.144-0.288,0.36-0.504,0.576c-1.224,0.288-2.52,0.576-3.816,0.936C171.504,237.816,171.504,237.816,170.064,238.032
		L170.064,238.032z M191.664,230.832c-0.288-0.432-0.576-0.936-0.936-1.44c-3.888-1.872-5.544-2.376-6.552-3.168
		c0-0.288,0-0.576,0.072-0.864c1.512-0.288,3.024-0.648,4.536-1.008c2.088-0.144,4.176-0.288,6.264-0.432
		c1.224-0.288,2.52-0.648,3.816-1.008c1.944,0,1.944,0,2.376,0.36c-1.224,1.368-2.52,2.808-3.816,4.248
		c-1.656,1.08-3.312,2.16-5.04,3.312C192.168,230.832,191.952,230.832,191.664,230.832L191.664,230.832z M375.768,227.952
		c-0.504-0.576-0.504-0.576-0.648-1.296c0.648-1.2961,1.296-2.664,1.944-4.032c1.224-3.456,2.52-6.912,3.816-10.368
		c0.7921-1.512,1.584-3.024,2.376-4.536c0.576-0.288,1.152-0.576,1.8-0.936c0.72,0,1.44-0.072,2.232-0.144
		c0.36,0.432,0.72,0.864,1.152,1.2961c1.08,2.736,2.16,5.472,3.2401,8.2079c0.216,1.224,0.432,2.5201,0.72,3.816
		c-0.504,0.504-0.504,0.504-7.992,4.176c-1.296,0.432-2.592,0.936-3.888,1.44c-2.376,1.944-2.376,1.944-3.312,2.376
		C376.776,227.952,376.272,227.952,375.768,227.952L375.768,227.952z M429.984,227.736c-1.224-0.936-1.224-0.936-2.088-2.016
		c-0.144-1.224-0.2881-2.52-0.432-3.816c0.072-2.016,0.144-4.032,0.216-6.048c0.432,0,0.864-0.072,1.368-0.144
		c3.096,1.008,3.096,1.008,4.536,1.944c9.144,2.88,9.144,2.88,11.016,3.744c0,0.216,0,0.504,0,0.792
		c-1.8,0.648-3.6,1.296-5.472,1.944c-3.6,1.944-3.6,1.944-7.2,3.384C431.28,227.5919,430.632,227.664,429.984,227.736
		L429.984,227.736z M424.008,220.032c-0.72-1.512-1.512-3.024-2.304-4.608c0-0.36-0.072-0.792-0.144-1.224
		c1.944,0.072,1.944,0.072,3.024,0.504c0.216,4.32,0.216,4.32,0,5.256C424.224,220.176,424.224,220.176,424.008,220.032
		L424.008,220.032z M422.28,211.392c-1.296-0.648-2.592-1.296-3.96-2.016c-0.144-1.008-0.36-2.016-0.576-3.096
		c1.368,0.216,2.736,0.504,4.104,0.792c0.288,0.288,0.648,0.576,1.008,0.864c0.504,1.728,0.504,1.728,0.432,3.456
		C423,211.392,422.64,211.392,422.28,211.392L422.28,211.392z M462.168,210.96c0-0.288-0.072-0.576-0.144-0.864
		c0.36-0.288,0.72-0.576,1.08-0.936c4.104-1.8,4.104-1.8,9.576-4.68c0.144,0,0.36,0.072,0.576,0.144c0,0.216,0,0.432,0,0.72
		c-2.088,1.224-4.176,2.448-6.336,3.672c-0.936,0.288-1.872,0.576-2.88,0.936C462.6,210.96,462.6,210.96,462.168,210.96
		L462.168,210.96z M322.704,206.352c-1.152-0.072-2.376-0.144-3.6-0.288c0-0.36,0-0.792,0.072-1.224
		c0.288-0.648,0.648-1.296,1.008-1.944c0.288-1.224,0.576-2.52,0.936-3.816c2.16-4.32,2.664-4.824,4.5359-8.64
		c2.088-5.112,4.1761-10.224,6.264-15.336c0.432,0,0.864-0.072,1.368-0.144c1.728,0.576,3.456,1.224,5.256,1.872
		c0.72,0.432,1.44,0.936,2.16,1.44c2.808,1.008,5.616,2.088,8.424,3.168c1.584-0.0721,3.168-0.144,4.752-0.2881
		c1.224-1.1519,1.224-1.1519,2.88-2.16c3.168-0.936,3.888-1.44,6.048-1.872c0.864-0.288,1.728-0.648,2.592-1.008
		c5.328-0.936,6.4799-1.44,11.52-2.376c1.224-0.504,1.224-0.504,9.36-1.944c4.608,0,4.608,0,7.92,0.504
		c0.144,0.144,0.288,0.36,0.504,0.576c-0.288,0.36-0.576,0.792-0.864,1.224c0.072,0.792,0.144,1.584,0.216,2.448
		c-0.936,1.152-2.88,5.472-3.4561,6.192c-6.2639,2.16-12.5999,4.392-18.936,6.624c-4.536,1.872-9.072,3.816-13.68,5.76
		c-2.16,0.432-2.16,0.432-5.76,1.872c-2.232,1.296-4.464,2.592-6.696,3.888c-3.744,1.656-7.488,3.312-11.304,5.0399
		C328.464,206.352,328.464,206.352,322.704,206.352L322.704,206.352z M315.288,205.632c-1.44-0.144-2.88-0.288-4.32-0.432
		c-3.816-1.08-7.632-2.232-11.52-3.384c-9.648-1.944-9.648-1.944-16.56-3.816c-11.808-3.888-19.0081-5.76-24.264-7.704
		c-2.088-0.648-4.176-1.296-6.264-1.944c-2.592-1.44-2.592-1.44-4.32-1.872c-4.392-2.664-8.856-5.328-13.32-8.064
		c0-0.288,0-0.576,0-0.936c0.36-0.432,0.72-0.936,1.08-1.44c0.936-0.432,1.872-0.864,2.88-1.368
		c3.456-2.232,6.912-4.464,10.368-6.696c2.376-1.224,4.752-2.52,7.2-3.816c2.952-1.872,5.904-3.816,8.856-5.76
		c1.152-0.072,2.376-0.144,3.6-0.288c3.456,0.72,6.912,1.512,10.44,2.304c0.576,2.808,1.224,5.616,1.872,8.424
		c0.432,0.432,0.432,0.432,1.728,0.504c0.072-0.36,0.144-0.792,0.216-1.224c-1.224-5.544-1.224-5.544-1.296-6.984
		c1.224,0.072,2.52,0.216,3.816,0.36c4.752,0.936,9.576,1.8719,14.4,2.88c0,0.288,0.0721,0.576,0.144,0.864
		c-2.304,1.296-2.736,1.8-6.12,3.672c-1.08,0.936-2.232,1.872-3.384,2.88c0,0.288-0.072,0.576-0.144,0.864
		c0.432,0.36,0.432,0.36,1.368,0.36c0.288-0.432,0.576-0.936,0.936-1.44c0.792-0.72,1.584-1.44,2.448-2.16
		c1.872-0.936,2.376-1.44,5.976-3.384c1.944-0.432,1.944-0.432,3.6-0.432c0.72,0.288,1.44,0.576,2.16,0.936
		c3.312,0.792,6.696,1.584,10.08,2.376c4.32,1.584,8.64,3.168,12.96,4.824c0.072,0.36,0.216,0.72,0.36,1.08
		c-2.232,5.328-4.464,10.728-6.768,16.128c-0.936,1.584-1.872,3.168-2.88,4.752c-1.872,4.824-2.376,6.768-3.816,9.648
		C316.224,205.632,316.224,205.632,315.288,205.632L315.288,205.632z M421.128,204.48c-0.432-0.288-0.936-0.648-1.44-1.008
		c-0.864-0.144-1.728-0.288-2.664-0.432c-0.72-0.432-1.512-0.864-2.304-1.296c-0.936-9.144-0.936-11.52-3.384-34.128
		c-0.072-1.872-0.144-3.816-0.216-5.76c0.936-0.576,1.872-1.152,2.808-1.8c2.376-0.504,2.376-0.504,3.312-0.36
		c1.8,9.36,1.8,9.36,4.176,24.264c0.576,6.768,1.152,13.536,1.728,20.376C422.496,204.336,421.848,204.408,421.128,204.48
		L421.128,204.48z M476.568,203.976c-0.144-0.792-0.144-0.792,0.216-1.224c1.08-0.288,2.232-0.576,3.384-0.936
		c4.3199-1.944,5.472-2.88,12.4559-6.264c1.8-2.952,1.8-2.952,2.2321-4.176c0.7921-0.576,1.656-1.224,2.52-1.872
		c1.2961-0.576,2.592-1.224,3.8881-1.872c3.096-1.872,6.192-3.816,9.3599-5.76c0.936-1.296,3.3841-3.312,6.4801-6.912
		c0.288,0,0.5759-0.072,0.936-0.144c-0.072,0.576-0.2161,1.152-0.3601,1.728c-1.944,2.376-4.1039,4.32-5.9759,6.48
		c-1.224,0.936-4.68,2.736-7.344,4.608c-2.3041,1.08-4.608,2.232-6.912,3.384c-1.224,1.296-3.168,4.536-4.104,5.544
		c-1.44,0.936-3.6001,1.872-8.424,4.752c-1.656,0.648-3.312,1.296-5.04,1.944C478.8,203.472,477.7201,203.688,476.568,203.976
		L476.568,203.976z M427.104,196.56c-0.144-0.216-0.288-0.432-0.504-0.648c3.168-2.016,3.168-2.016,5.544-3.96
		c5.832-2.52,11.664-5.04,17.496-7.632c1.152-0.288,2.376-0.648,3.6-1.008c1.368-0.144,2.736-0.288,4.104-0.432
		c0.936-0.288,1.8719-0.648,2.88-1.008c1.944-1.224,3.96-2.52,5.976-3.816c4.104-0.936,7.2-1.944,11.304-2.88
		c0.792-0.288,1.584-0.576,2.376-0.936c1.6561-1.296,3.312-2.592,5.04-3.888c1.3681-0.576,2.736-1.224,4.104-1.872
		c1.5839-0.432,3.168-0.936,4.824-1.44c0.936-1.008,0.936-1.008,6.912-4.824c1.2959-0.432,2.592-0.936,3.888-1.44
		c2.592-1.944,2.592-1.944,5.472-3.384c1.728-0.432,2.664-0.936,3.5999-0.936c0.144,0.144,0.2881,0.36,0.504,0.576
		c-0.072,0.288-0.2159,0.648-0.36,1.008c-1.584,0.576-3.2401,1.152-4.896,1.8c-1.584,0.936-3.168,1.872-4.824,2.88
		c-1.512,0.576-3.024,1.224-4.5361,1.872c-4.3199,2.88-4.3199,2.88-5.3279,3.888c-1.2241,0.288-2.52,0.576-3.816,0.936
		c-1.44,0.648-2.88,1.296-4.32,1.944c-1.8,1.224-3.672,2.5201-5.544,3.816c-1.512,0.648-3.024,1.296-4.536,1.944
		c-2.664,0.432-2.664,0.432-9.144,2.376c-2.16,0.936-2.16,0.936-6.696,3.816c-0.864,0.288-1.728,0.648-2.664,1.008
		c-1.512,0.144-3.024,0.288-4.536,0.432c-1.944,0.648-3.96,1.296-5.976,1.944c-4.32,1.872-8.64,3.816-12.96,5.76
		c-1.872,1.224-3.816,2.52-5.76,3.816C427.968,196.344,427.536,196.416,427.104,196.56L427.104,196.56z M451.368,196.056
		c-0.072-0.072-0.144-0.216-0.288-0.36c1.008-1.08,1.008-1.08,2.664-2.016c3.024-0.936,6.048-1.872,9.144-2.88
		c5.04-2.448,5.04-2.448,6.48-2.88c2.376-0.288,4.752-0.648,7.2-1.008c1.44-0.576,2.88-1.224,4.32-1.872
		c1.584-1.296,3.168-2.592,4.752-3.888c1.944-2.376,1.944-2.376,4.1039-4.32c0.936-0.432,0.936-0.432,4.1041-0.936
		c0.864-0.648,1.728-1.296,2.592-1.944c0.72-0.072,1.44-0.144,2.16-0.216c0.432-0.288,0.936-0.576,1.44-0.936
		c1.5839-1.8,3.168-3.672,4.824-5.544c0.864-0.648,1.728-1.296,2.664-1.944c0.792-0.288,1.5839-0.576,2.376-0.936
		c2.1599-2.016,2.1599-2.016,5.256-4.104c0.5759,0,1.152,0,1.728,0c3.0959-1.872,3.0959-1.872,5.0399-3.6
		c0.36,0,0.7201,0.072,1.152,0.144c0,0.288,0.072,0.648,0.144,1.008c-2.304,1.584-4.6799,3.24-7.056,4.896
		c-0.72,0-1.4399,0-2.1599,0c-1.0801,0.936-2.232,1.872-3.3841,2.88c-1.3679,0.576-2.7359,1.224-4.1039,1.872
		c-1.2241,1.512-2.52,3.024-3.816,4.608c-1.224,1.08-2.52,2.16-3.816,3.312c-0.792,0.144-1.584,0.288-2.448,0.504
		c-1.296,0.648-2.664,1.296-4.032,1.944c-0.72,0.144-1.44,0.288-2.16,0.432c-1.3679,1.368-2.736,2.736-4.1039,4.104
		c-4.824,3.816-4.824,3.816-6.48,4.824c-1.512,0.432-3.024,0.936-4.536,1.44c-2.088,0.288-4.176,0.576-6.264,0.936
		c-2.232,0.936-4.464,1.872-6.696,2.88C458.568,193.608,454.968,194.832,451.368,196.056L451.368,196.056z M409.608,184.896
		c-0.432-2.16-0.432-2.16-1.368-4.536c-0.144-1.728-0.288-3.456-0.504-5.256c-0.216-0.576-0.504-1.152-0.792-1.728
		c-0.288,0-0.576-0.072-0.936-0.144c-0.144,0.144-0.288,0.288-0.504,0.504c-0.288,0-0.576,0-0.936,0
		c-0.72-0.648-1.44-1.296-2.16-1.944c-0.936-0.432-1.944-0.864-2.952-1.296c0-0.36,0.072-0.72,0.144-1.152
		c0.72-1.584,1.5121-3.168,2.304-4.752c2.376-0.432,2.376-0.432,3.816-1.152c0.936,0,1.872,0.072,2.88,0.144
		c0.2881,2.232,0.576,4.464,0.864,6.696c0.216,4.536,0.432,9.072,0.72,13.68C410.04,184.248,409.824,184.536,409.608,184.896
		L409.608,184.896z M394.92,181.08c0-0.288-0.072-0.576-0.144-0.936c1.08-2.16,2.232-4.32,3.384-6.4799
		c0.504,0,1.008-0.072,1.584-0.144c0.864,0.432,1.728,0.936,2.664,1.44c0.576,0.864,1.224,1.8,1.872,2.736
		c-0.144,0.144-0.288,0.36-0.432,0.576C395.64,181.1519,395.64,181.1519,394.92,181.08L394.92,181.08z M347.904,178.776
		c-2.88-0.936-2.88-0.936-14.544-6.12c0-0.2881,0-0.576,0-0.936c0.216-0.216,0.432-0.432,0.648-0.72
		c0.504,0,1.08-0.0721,1.656-0.144c10.08,3.816,10.296,4.104,12.024,4.536c0.432,0.288,0.864,0.576,1.296,0.864
		c0,0.792-0.072,1.656-0.144,2.52C348.552,178.776,348.264,178.776,347.904,178.776L347.904,178.776z M351.504,178.776
		c0-0.216-0.072-0.504-0.144-0.792c0.576-0.504,0.576-0.504,1.8-0.864c0.576,0,1.152,0,1.7281,0c0.072,0.072,0.144,0.216,0.288,0.36
		c-0.864,0.432-1.8,0.864-2.7361,1.296C352.152,178.776,351.864,178.776,351.504,178.776L351.504,178.776z M359.208,175.824
		c0.144-0.288,0.288-0.576,0.432-0.864c2.664-0.72,2.88-1.008,6.48-1.728c0.072,0.072,0.144,0.144,0.288,0.288
		C364.248,174.456,364.248,174.456,359.208,175.824L359.208,175.824z M351,174.96c-0.576-0.288-1.224-0.648-1.872-1.008
		c-1.152-0.288-2.376-0.576-3.6-0.936c-4.104-1.944-4.104-1.944-10.224-4.176c0.072-0.432,0.144-0.936,0.216-1.44
		c1.224-2.808,2.52-5.616,3.816-8.424c1.152-0.144,11.664,0.864,13.1039,1.296c1.08,0.072,2.2321,0.144,3.384,0.288
		c4.824-1.008,7.2-1.944,12.456-3.168c0.36,0,0.792,0.072,1.224,0.144c0.72,1.512,1.44,3.024,2.232,4.608
		c0.792,0.864,1.584,1.728,2.448,2.592c0.936,1.728,0.936,1.728,1.152,2.664c-3.168,0.792-3.168,0.792-16.416,5.112
		c-1.872,1.008-1.872,1.008-4.752,1.944C353.16,174.6,352.08,174.744,351,174.96L351,174.96z M366.84,173.232
		c-0.072-0.072-0.144-0.144-0.216-0.216c0.72-0.504,0.72-0.504,8.424-2.664c0.936,0,1.872,0,2.88,0c0.216,0.36,0.216,0.36,0,0.72
		c-2.52,0.648-5.112,1.296-7.704,1.944C369.144,173.088,367.992,173.16,366.84,173.232L366.84,173.232z M237.528,172.656
		c0.072-0.36,0.144-0.72,0.288-1.152c0.648-0.936,1.2961-1.872,1.944-2.88c2.16-2.16,5.976-7.2,9.936-11.52
		c0.36-0.72,0.72-1.44,1.08-2.16c2.016-2.376,4.032-4.752,6.048-7.2c0.144-0.36,0.288-0.792,0.432-1.224
		c3.168-4.248,6.4081-8.496,9.648-12.744c0.576-1.08,1.224-2.16,1.872-3.312c0.936-1.152,1.872-2.304,2.808-3.528
		c0.288,0,0.576,0,0.936-0.0721c0.432,3.168,0.864,6.336,1.296,9.576c0.288,1.224,0.648,2.52,1.008,3.816
		c0.36,3.096,0.72,6.192,1.152,9.36c-0.792,0.504-7.056,1.8-7.992,2.304c-0.504,0.72-0.504,0.72-2.16,1.656
		c-1.944,2.376-1.944,2.376-4.104,4.32c-2.88,1.944-2.88,1.944-3.816,2.88c-2.16,0.936-5.04,2.88-9.36,4.824
		c-7.2,4.752-8.136,5.7599-9.576,6.696C238.536,172.368,238.032,172.512,237.528,172.656L237.528,172.656z M330.408,171.576
		c-4.824-1.44-6.768-2.376-14.184-4.824c-3.024-0.648-6.048-1.296-9.144-2.016c0.072-0.288,0.216-0.576,0.36-0.936
		c1.44-0.936,1.44-0.936,2.5201-1.08c8.928,2.88,15.84,4.752,22.104,6.912c0.072,0.072,0.144,0.216,0.216,0.36
		c-0.288,0.504-0.576,1.008-0.936,1.584C331.056,171.576,330.768,171.576,330.408,171.576L330.408,171.576z M394.92,169.632
		c-12.456-1.152-12.456-1.152-14.616-1.656c-1.944-2.232-3.888-4.536-5.904-6.84c-1.224-2.304-2.5201-4.608-3.816-6.912
		c-3.384-4.608-3.384-4.608-5.4-6.768c-0.72-0.36-4.104-0.36-6.984-1.08c-3.312-0.072-6.696-0.144-10.08-0.216
		c-0.792-0.144-1.584-0.288-2.376-0.504c0-0.504-0.072-1.0081-0.144-1.5121c0.576-1.08,1.152-2.16,1.8-3.312
		c5.0399,0,5.0399,0,10.08-0.432c1.656-0.576,3.312-1.152,5.04-1.728c1.368-0.144,2.736-0.288,4.104-0.432
		c6.264-1.944,17.064-4.824,19.944-5.328c0.936-0.432,0.936-0.432,14.4-3.816c0.864,0,1.728,0,2.592,0
		c0.36,0.648,0.36,0.648,2.304,13.824c0.072,1.368,0.144,2.7361,0.216,4.104c-0.504,1.656-1.08,3.312-1.656,5.04
		c-0.72,1.368-1.512,2.736-2.304,4.176c-1.152,0.144-2.376,0.288-3.6,0.432c-1.512,0.648-3.024,1.296-4.536,1.944
		c-2.304,1.872-4.608,3.816-6.984,5.76c-0.36,0.864-0.36,0.864-0.144,1.584c0.36,0,0.72,0,1.152,0.072
		c0.288-0.432,0.576-0.936,0.936-1.44c1.584-1.296,3.168-2.664,4.824-4.032c1.872-1.008,1.872-1.008,4.752-1.944
		c0.72-0.072,1.44-0.144,2.16-0.216c0.144,0.072,0.288,0.216,0.504,0.36c-0.576,1.512-1.152,3.024-1.8,4.536
		c-3.96,1.8-3.96,1.8-7.344,3.816c0,0.36-0.072,0.792-0.144,1.224c0.216,0.144,0.432,0.288,0.648,0.504
		c2.52-1.944,2.52-1.944,4.32-2.808c0.36,0,0.792,0,1.224-0.072c-0.864,2.376-0.864,2.376-1.728,3.672
		C395.928,169.632,395.424,169.632,394.92,169.632L394.92,169.632z M332.784,167.976c-6.768-2.088-13.536-4.176-20.376-6.336
		c0.072-0.216,0.144-0.432,0.216-0.72c1.224-0.576,2.52-1.152,3.816-1.8c1.872-1.296,3.816-2.592,5.76-3.888
		c1.944,0,1.944,0,5.328,0.72c0.432,0.288,0.432,0.288,9.792,2.304c0,0.288,0.0721,0.648,0.144,1.008
		c-1.296,2.88-2.592,5.76-3.888,8.64C333.36,167.904,333.072,167.904,332.784,167.976L332.784,167.976z M303.264,163.44
		c-4.32-1.008-4.32-1.008-5.256-1.44c-4.608-0.648-6.048-1.224-12.24-2.16c-4.104-1.008-4.104-1.008-4.968-1.584
		c-0.072-0.792-0.216-1.584-0.36-2.376c1.656,0.072,3.312,0.216,5.04,0.36c0.648,0.288,1.296,0.576,1.944,0.936
		c3.096,0.504,4.824,1.224,8.136,1.656c3.384,1.008,3.384,1.008,5.328,1.224c0.144,0.144,0.288,0.288,0.4319,0.504
		c3.168,0.432,3.168,0.432,5.04,1.152c0.072,0.072,0.144,0.216,0.288,0.36c-0.432,0.432-0.936,0.864-1.44,1.368
		C304.56,163.44,303.912,163.44,303.264,163.44L303.264,163.44z M402.84,162.144c0.36-1.728,0.36-1.728,1.296-3.888
		c0.648-0.72,0.648-0.72,2.304-1.584c0.288,0,0.648,0,1.008-0.072c0.072,1.224,0.144,2.52,0.288,3.8159
		C406.152,160.992,404.496,161.568,402.84,162.144L402.84,162.144z M308.088,160.272c-6.984-1.44-13.464-3.312-17.784-4.032
		c-0.288-0.144-0.576-0.288-0.936-0.504c-0.576,0-1.152,0-1.728,0c-1.08-0.36-2.16-0.792-3.312-1.224
		c-4.608-0.936-4.608-0.936-4.968-1.296c-0.072-0.504-0.144-1.08-0.216-1.656c0.36-0.36,18.36-4.968,19.8-5.04
		c0,0.216,0,0.432,0.072,0.72c0.72,0.432,1.512,0.864,2.304,1.296c1.5121,0.288,3.024,0.576,4.608,0.936
		c1.872,0.648,3.816,1.296,5.76,1.944c1.44,0.936,1.44,0.936,4.536,1.944c0.792,0.144,1.584,0.288,2.376,0.432
		c0.2881,0.216,0.648,0.432,1.008,0.648c-0.72,0.6479-1.44,1.296-2.16,2.016c-2.448,1.224-4.968,2.52-7.488,3.816
		C309.384,160.272,308.736,160.272,308.088,160.272L308.088,160.272z M410.328,159.48c-0.144-1.512-0.288-3.024-0.432-4.536
		c1.368-0.864,1.368-0.864,3.024-1.368c1.08-0.072,2.232-0.216,3.384-0.36c0.144,1.368,0.36,2.736,0.576,4.104
		c-0.36,0.36-0.36,0.36-4.176,1.296c-0.288,0.216-0.576,0.432-0.936,0.72C411.336,159.336,410.832,159.408,410.328,159.48
		L410.328,159.48z M352.224,158.112c-3.888-0.432-7.776-0.864-11.736-1.296c0.288-1.44,0.288-1.44,3.672-8.856
		c1.584-0.144,4.464,0.36,14.544,0.576c0.072,0.072,0.144,0.216,0.216,0.36c-0.576,0.72-1.152,1.44-1.8,2.16
		c-0.288,1.008-0.576,2.088-0.936,3.168c-0.288,0.288-0.648,0.576-1.008,0.936c-0.216,0.936-0.504,1.944-0.7921,2.952
		C353.664,158.112,352.944,158.112,352.224,158.112L352.224,158.112z M277.56,157.896c-3.096-0.648-6.192-1.296-9.36-2.016
		c0.36-0.936,0.36-0.936,1.44-1.944c1.008,0,2.088-0.0721,3.168-0.144c1.656,0.576,3.312,1.152,5.04,1.8
		c0.144,0.72,0.36,1.44,0.576,2.232C278.136,157.824,277.848,157.824,277.56,157.896L277.56,157.896z M357.048,157.896
		c0-0.504-0.072-1.008-0.144-1.512c0.288-0.36,0.576-0.792,0.936-1.224c0.936-2.664,0.936-2.664,1.944-4.104
		c0.792-0.432,0.792-0.432,3.24-0.576c0.504,0.144,1.08,0.288,1.656,0.432c0.792,1.152,1.584,2.376,2.448,3.6
		c0,0.288,0,0.576,0.072,0.864c-0.648,0.288-1.296,0.576-2.016,0.864C362.304,156.672,359.208,157.68,357.048,157.896
		L357.048,157.896z M419.184,156.672c-0.288-0.936-0.576-1.944-0.864-2.952c0-0.504,0-1.08,0-1.656
		c1.8-1.152,6.408-3.024,8.064-4.032c3.096-0.936,3.096-0.936,6.984-1.44c5.4-2.232,10.8-4.464,16.272-6.696
		c6.048-0.936,9.648-1.944,13.68-2.376c19.224-7.704,19.224-7.704,24.768-9.648c2.952-0.72,5.904-1.44,8.856-2.16
		c0.504,0,1.08,0.072,1.656,0.144c-1.944,1.296-3.96,2.592-5.9761,3.96c-2.9519,1.584-5.9039,3.168-8.856,4.824
		c-2.8799,0.576-5.7599,1.224-8.64,1.872c-1.08,0.432-2.232,0.936-3.384,1.44c-2.88,0.648-5.76,1.296-8.64,1.944
		c-3.384,1.224-6.84,2.52-10.296,3.816c-2.304,0.648-4.608,1.296-6.984,1.944c-4.32,1.944-6.264,2.376-10.584,4.32
		c-1.152,0-2.376,0-3.6,0c-6.696,3.816-6.696,3.816-8.64,5.256C421.128,155.736,419.688,156.672,419.184,156.672L419.184,156.672z
		 M336.6,155.952c-3.096-0.432-8.64-1.872-10.512-2.016c0-0.2881,0-0.576,0.072-0.936c8.568-4.68,8.568-4.68,10.944-6.408
		c1.584,0.216,3.168,0.432,4.824,0.72c0.072,0.144,0.144,0.288,0.288,0.432c-0.216,0.864-0.432,1.728-0.72,2.592
		c-0.864,1.872-1.8,3.744-2.736,5.616C338.04,155.952,337.32,155.952,336.6,155.952L336.6,155.952z M321.768,152.64
		c-2.52-0.648-5.112-1.296-7.704-1.944c-1.656-0.936-1.656-0.936-7.416-2.88c-1.512-0.288-3.024-0.576-4.608-0.936
		c-0.432-0.288-0.864-0.576-1.296-0.864c0-0.432,0-0.936,0-1.44c0.936-0.936,1.872-2.88,3.816-5.04
		c0.504-0.288,1.008-0.576,1.584-0.864c1.728,0.216,3.456,0.432,5.256,0.72c1.728,1.008,1.728,1.008,8.64,3.888
		c3.456,0.432,6.912,0.936,10.368,1.44c1.08,0.288,2.16,0.576,3.312,0.936c0.072,0.288,0.216,0.576,0.36,0.864
		c-3.528,2.016-7.056,4.032-10.656,6.12C322.92,152.64,322.344,152.64,321.768,152.64L321.768,152.64z M409.608,152.496
		c-0.432-0.936-0.432-0.936-0.864-5.472c0.072-0.432,0.144-0.936,0.216-1.44c0.288-0.432,0.576-0.936,0.936-1.44
		c0.504-2.16,0.504-2.16,2.448-6.4799c0.288,0,0.576,0,0.864-0.072c0.72,3.456,1.44,6.912,2.232,10.368
		c0.216,3.096,0.216,3.096-0.072,3.456c-1.584,0.36-3.168,0.792-4.824,1.224C410.256,152.64,409.968,152.568,409.608,152.496
		L409.608,152.496z M278.28,148.752c-0.864-2.952-1.296-6.768-2.304-11.088c-0.936-8.424-0.936-8.424-1.728-12.2401
		c1.656,0.0721,1.656,0.0721,2.88,0.432c0.288,0.504,0.576,1.008,0.936,1.584c0.216,0.072,0.432,0.144,0.72,0.216
		c0.216,0.72,0.504,1.512,0.792,2.304c1.368,1.872,2.736,3.816,4.104,5.76c1.08,1.008,2.232,2.016,3.384,3.096
		c1.08,1.656,2.16,3.312,3.312,5.04c-0.072,0.792-0.144,1.584-0.216,2.448c-5.4,1.728-5.4,1.728-7.9919,2.232
		C280.872,148.608,279.576,148.68,278.28,148.752L278.28,148.752z M293.4,145.44c0-0.36-0.072-0.72-0.144-1.08
		c2.232-3.888,4.464-7.776,6.768-11.736c0.576,0,1.152-0.072,1.8-0.144c3.528,0.504,7.056,1.08,10.584,1.656
		c3.744,0.936,7.488,1.872,11.232,2.88c6.192,1.08,12.456,2.232,18.72,3.384c0.072,0.072,0.144,0.216,0.288,0.36
		c-0.288,0.36-0.648,0.72-1.008,1.08c-1.08,0.576-2.16,1.224-3.312,1.872c-1.296-0.072-2.592-0.144-3.888-0.216
		c-1.152-0.2881-2.376-0.576-3.6-0.936c-3.384-0.432-6.84-0.936-10.296-1.44c-8.424-3.888-8.424-3.888-11.736-5.04
		c-1.656,0-3.312,0-5.04,0c-0.576,0.144-1.152,0.288-1.728,0.432c-0.432,0.36-0.936,0.792-1.44,1.224
		c-1.8,3.744-1.8,3.744-4.032,7.2C294.624,145.44,294.624,145.44,293.4,145.44L293.4,145.44z M291.24,141.696
		c-0.072-0.36-0.216-0.72-0.36-1.152c-0.936-1.296-1.8719-2.592-2.88-3.888c-0.792-0.576-1.584-1.224-2.376-1.872
		c-1.296-1.728-2.592-3.528-3.888-5.328c-0.144-0.792-0.36-1.584-0.576-2.376c1.44,0.072,2.448,0.576,3.888,0.792
		c0.576,0.36,1.224,0.792,1.872,1.224c9.648,1.944,9.648,1.944,10.8,2.376c0,0.288,0.072,0.576,0.144,0.864
		c-1.944,3.6-3.888,6.264-4.824,8.208C292.104,141.48,292.104,141.48,291.24,141.696L291.24,141.696z M408.168,140.04
		c-0.432-1.44-1.368-8.856-1.368-11.304c1.08-0.936,1.08-0.936,3.024-2.016c0.216,0,0.432,0,0.72,0
		c0.36,0.576,0.36,0.576,1.296,4.68c-0.072,0.504-0.144,1.08-0.216,1.656c-0.936,2.232-1.872,4.464-2.88,6.768
		C408.6,139.896,408.384,139.968,408.168,140.04L408.168,140.04z M347.184,138.96c-0.72-0.288-5.544-0.72-9.576-1.728
		c-4.464-0.576-8.928-1.224-13.464-1.872c-3.096-1.008-3.096-1.008-7.704-1.944c-1.008-0.36-2.016-0.792-3.096-1.224
		c-1.656,0-1.656,0-11.736-1.872c-5.544-1.4399-9.36-1.944-14.4-3.3839c-0.72-0.504-7.92-2.376-12.96-4.32
		c-0.36-0.504-0.792-1.08-1.224-1.656c-1.224,0-1.44,0.216-3.384-0.144c0-0.36-0.072-0.72-0.144-1.152
		c0.432-0.288,0.864-0.648,1.368-1.008c5.256-1.8,5.256-1.8,23.256-6.624c6.4799-0.936,6.4799-0.936,8.424-1.44
		c2.808-1.224,5.616-2.52,8.424-3.816c3.24-0.792,6.48-1.584,9.792-2.376c1.872-0.144,3.816-0.288,5.76-0.504
		c3.384,0.216,3.384,0.216,9.864,1.224c3.096,0.144,6.192,0.288,9.36,0.432c5.688,0.936,11.376,1.8719,17.064,2.88
		c4.104,0.9359,8.28,1.8719,12.456,2.88c12.96,3.888,25.2,7.2,25.92,7.704c4.824,1.44,4.824,1.44,7.92,2.808
		c0,0.288,0,0.576,0.0721,0.936c-1.728,0.864-3.456,1.728-5.256,2.664c-0.144,0.36-0.288,0.72-0.504,1.152
		c-23.616,6.12-23.616,6.12-28.152,7.056c-5.76,1.944-5.76,1.944-9.36,2.88c-3.384,0.504-8.136,1.944-11.5201,2.448
		C352.008,138.96,349.632,138.96,347.184,138.96L347.184,138.96z"/>
</g>
</svg>
