<?xml version="1.0" encoding="utf-8"?>
<!-- Generator: Adobe Illustrator 21.1.0, SVG Export Plug-In . SVG Version: 6.00 Build 0)  -->
<svg version="1.1" id="Cru" xmlns="http://www.w3.org/2000/svg" xmlns:xlink="http://www.w3.org/1999/xlink" x="0px" y="0px"
	 viewBox="0 0 474.192 388.9441" enable-background="new 0 0 474.192 388.9441" xml:space="preserve">
<g>
	<path fill-rule="evenodd" clip-rule="evenodd" d="M183.456,388.9441c-12.456-1.944-12.456-1.944-32.4-5.76
		c-4.032-1.008-4.032-1.008-9.36-1.944c-6.696-1.872-13.392-3.816-20.16-5.76c-3.672-1.224-7.344-2.52-11.016-3.816
		c-12.024-2.88-12.024-2.88-18.72-4.824c-10.296-1.944-10.296-1.944-21.096-3.384c-1.728,0-3.528,0-5.328,0
		c-4.176,0.288-8.424,0.648-12.672,1.008c-5.688,1.584-11.376,3.168-17.064,4.752c-1.944,0.36-3.96,0.792-5.976,1.224
		c-1.584,0-3.168,0-4.824,0c-1.8-0.648-3.672-1.296-5.544-1.944c-2.88-1.872-2.88-1.872-3.312-2.52
		c-0.072-0.504-0.144-1.08-0.288-1.656c-0.504-0.072-1.08-0.216-1.656-0.36c-0.288-0.36-0.576-0.72-0.864-1.08
		c0-0.936,0-1.872,0-2.88c-0.144-0.144-0.288-0.288-0.504-0.432c0-0.288,0-0.648,0-1.008c1.152-1.584,2.376-3.168,3.6-4.752
		c0.504-3.384,0.504-3.384,0.864-4.32c3.384,1.296,3.384,1.296,4.32,1.296c0.288-0.648,0.576-1.296,0.864-2.016
		c0.072-0.648,0.144-1.296,0.216-1.944c0.216-0.216,0.432-0.432,0.648-0.72c0.936,0,1.152,0.36,2.592,0.576
		c0.216-0.072,0.432-0.144,0.72-0.216c0.288-0.432,0.576-0.864,0.864-1.296c0.288-1.44,0.576-2.88,0.936-4.32
		c0.504-0.504,0.504-0.504,1.584-0.864c0.288-0.36,0.576-0.792,0.936-1.224c0.36-0.072,0.792-0.144,1.224-0.216
		c0.864,0.432,1.728,0.936,2.664,1.44c0.216,0.72,0.504,1.512,0.792,2.304c0.144,0.144,0.36,0.288,0.576,0.432
		c0.648-0.432,1.224-1.44,1.8-1.872c0.432-1.008,0.936-2.088,1.44-3.168c0-0.864,0-1.728,0-2.592
		c0.144-0.144,0.288-0.288,0.432-0.432c0.36,0,0.72,0,1.152,0c0.72,0.288,1.44,0.648,2.16,1.008c0.288,0.576,0.576,1.152,0.864,1.8
		c0.288,0,0.576,0,0.864,0.072c0.36-0.36,0.72-0.72,1.152-1.152c0.864,0.36,1.728,0.72,2.664,1.152
		c0.504,0.648,1.08,1.296,1.656,1.944c0.576,0,1.152,0,1.728,0c0.432,0.288,0.936,0.576,1.44,0.936c0.72-0.216,1.44-0.432,2.16-0.72
		c0.432-0.72,0.432-0.72,2.376-2.16c0.288,0,0.576,0,0.936,0c0.792,0.432,1.584,0.936,2.448,1.44
		c0.144,0.648,0.288,1.368,0.432,2.088c0.864-0.432,1.728-0.864,2.664-1.368c0.432-0.072,0.936-0.144,1.44-0.216
		c2.88,1.944,2.88,1.944,3.6,2.16c0.864-0.936,1.728-1.872,2.664-2.88c0.864-0.072,1.728-0.144,2.592-0.216
		c0.36-0.36,0.72-0.72,1.08-1.08c-0.144-2.952-0.288-5.904-0.504-8.856c-0.432-0.72-2.88-2.664-6.696-7.2
		c-3.384-5.04-3.384-5.04-3.96-5.472c-0.432-0.144-0.936-0.288-1.44-0.432c-0.864-1.8-2.736-7.776-11.88-31.104
		c-0.504-0.432-0.504-0.432-4.32-6.48c-1.224-1.512-2.52-3.024-3.816-4.536c-4.32-3.816-4.32-3.816-11.808-9.576
		c-2.736-1.584-5.472-3.168-8.208-4.752c-3.168-1.224-6.408-2.52-9.648-3.816c-1.8-0.936-3.6-1.872-5.472-2.88
		c-0.648-0.144-1.296-0.288-1.944-0.504c-0.432-0.36-0.936-0.72-1.44-1.08c-0.576-1.512-1.152-3.024-1.8-4.536
		c-0.936-1.296-1.872-2.664-2.88-4.032c0.072-0.36,0.144-0.792,0.216-1.224c0.72-0.648,1.512-1.368,2.304-2.088
		c1.152-0.288,2.376-0.576,3.6-0.936c2.736-0.216,5.472-0.504,8.28-0.792c-0.576-5.112-1.152-10.224-1.728-15.408
		c-0.072-2.304-0.144-4.608-0.216-6.912c0.216-0.864,0.432-1.728,0.72-2.664c1.8-1.224,1.8-1.224,3.744-2.088
		c3.312-0.144,6.696-0.2881,10.08-0.432c2.232,0.072,4.464,0.144,6.696,0.216c7.92-0.72,24.48-1.656,28.8-2.16
		c5.76-0.216,5.76-0.216,23.544,0.216c25.2,1.944,28.8,2.448,56.376,4.32c11.016,0.144,22.032,0.288,33.12,0.504
		c4.68,0.36,9.432,0.792,14.184,1.224c1.584-2.448,3.168-4.8961,4.824-7.344c0.792-1.872,0.792-1.872,5.616-9.576
		c0.288-0.792,0.576-1.584,0.936-2.376c2.232-3.24,4.464-6.552,6.696-9.864c0.648-0.72,1.296-1.44,1.944-2.16
		c1.224-2.232,2.52-4.464,3.816-6.696c2.5201-3.672,5.112-7.344,7.704-11.088c0.432-0.936,0.936-1.872,1.44-2.88
		c0.36-0.288,0.792-0.576,1.224-0.936c2.52-3.6,5.04-7.2,7.632-10.8c13.464-15.336,14.4001-16.776,23.76-27.864
		c-0.216-2.592,0-9.36-0.216-38.592c-0.216-3.456-0.432-6.912-0.72-10.3681c0.216-3.5279,0.432-7.056,0.648-10.5839
		c-0.216-0.072-0.432-0.144-0.72-0.216c0.072-7.92-0.144-9.36-0.144-13.68c-0.144-0.36-0.288-0.72-0.504-1.152
		c0.216-3.168,0.432-6.408,0.72-9.648c-0.144-1.008-0.288-2.016-0.504-3.096c0.216-1.368,0.432-2.736,0.72-4.104
		c-0.216-5.256-0.216-5.256,0-13.896c0.288-0.216,0.72-8.136,1.224-10.08c0.288-0.216,0.576-0.4321,0.864-0.648
		c0.36,0,0.792,0,1.224-0.072c0-0.288,0-0.576,0-0.936c0.936,0.288,0.936,0.288,1.296,0.72c0.072,1.08,0.144,2.16,0.216,3.312
		c-0.504,12.24-1.08,24.48-1.656,36.72c0.432,14.4,0.432,14.4,0.432,29.088c0.144,2.5919,0.288,5.256,0.504,7.92
		c0.072,6.552,0.144,13.104,0.216,19.656c0.144,0.864,0.288,1.728,0.432,2.664c0.288,0,0.576-0.072,0.936-0.144
		c1.008-1.224,2.016-2.448,3.096-3.744c0.72-0.144,1.44-0.36,2.16-0.576c0.144-0.216,0.288-0.432,0.504-0.648
		c-0.144-10.296-0.144-10.296,0.072-13.608c-0.288-3.024-0.576-6.048-0.936-9.144c0.072-2.6641,0.144-5.4,0.216-8.136
		c0.648-1.368,1.2961-2.736,1.944-4.104c1.368-1.224,2.7361-2.52,4.104-3.816c1.728-1.296,3.456-2.592,5.256-3.8879
		c2.736-1.224,5.472-2.448,8.28-3.744c2.088-0.576,4.176-1.2241,6.264-1.872c3.384-0.4321,6.768-0.864,10.152-1.296
		c0.288-4.104,0.288-4.104,0.504-31.968c0.504-4.32,0.504-6.48,0.936-9.792c0.216-0.216,0.432-0.432,0.648-0.648
		c3.096-0.504,3.096-0.504,3.6-0.36c-0.288,6.12-0.576,12.312-0.864,18.504c-0.072,8.064-0.144,16.1279-0.216,24.264
		c1.8,0,3.6,0,5.4,0.0719c0.288-0.1439,0.576-0.2879,0.936-0.504c0.144-0.7919,0.144-0.7919-0.864-4.392c0-1.0079,0-2.0159,0-3.0959
		c1.008-1.728,1.008-1.728,1.944-2.664c0.144-1.08,0.288-2.232,0.504-3.384c0.432-1.44,0.936-2.88,1.44-4.32
		c0.288-0.432,0.576-0.936,0.936-1.44c0.576-0.288,1.152-0.576,1.8-0.864c1.368-0.288,2.736-0.576,4.104-0.936
		c0.936-0.936,0.936-0.936,3.096-1.944c0.864,0,1.728,0,2.664,0c0.936,0.504,0.936,0.504,2.16,2.088
		c0.792,0.36,1.584,0.72,2.376,1.152c1.2961,1.7999,2.592,3.5999,3.888,5.4c0.288,0.2159,0.576,0.432,0.936,0.6479
		c0.36,0.6481,0.72,1.296,1.08,1.944c0,0.2881,0,0.5761,0,0.936c-0.576,0.432-1.152,0.936-1.8,1.4401
		c0,0.4319-0.072,0.9359-0.144,1.44c0.936,4.32,0.936,4.32,0.936,5.976c-0.936,1.728-0.936,1.728-1.8719,4.824
		c-1.008,1.4399-1.008,1.4399-1.944,3.6c-3.672,1.8-3.672,1.8-4.824,2.664c0.36,1.728,0.792,3.456,1.224,5.256
		c0.144,2.6639,0.288,5.4,0.504,8.136c0,3.168-0.072,6.408-0.144,9.648c0.432-0.288,0.936-0.576,1.44-0.864
		c3.888-5.328,3.888-5.328,11.5201-14.904c3.816-5.472,7.632-11.016,11.52-16.56c5.76-7.4161,5.76-7.4161,6.624-9
		c3.888-4.6081,7.776-9.216,11.736-13.896c4.1039-3.96,8.28-7.992,12.456-12.024c0.864-0.504,1.728-1.0081,2.592-1.584
		c0.504,0,1.008,0.072,1.512,0.144c0.432,0.864,0.936,1.728,1.44,2.6641c0,0.504,0,1.08,0,1.6559
		c-1.584,1.2961-3.168,2.5921-4.824,3.8881c-7.92,7.92-7.92,7.92-8.64,8.3521c-7.92,8.928-7.92,8.928-15.552,18.288
		c-3.888,5.256-7.704,11.016-9.648,13.176c-1.224,1.944-2.52,3.96-3.816,5.976c-11.52,15.12-13.464,17.28-18.504,24.264
		c0,0.432,0.072,0.936,0.144,1.44c0.144,0.2161,0.36,0.432,0.576,0.72c-0.072,0.792-0.144,1.584-0.216,2.376
		c-0.936,1.2241-1.44,2.448-1.944,2.88c-0.936,1.728-0.936,1.728-1.44,2.16c-0.144,0.648-0.36,1.296-0.576,1.944
		c0.864-0.144,1.728-0.288,2.664-0.504c0.576,2.232,1.152,4.464,1.8,6.768c7.632,21.816,15.336,45.36,19.44,57.096
		c0.072,0.072,0.216,0.144,0.36,0.216c1.08-1.152,1.08-1.152,4.896-7.416c2.52-4.968,5.112-9.936,7.704-14.904
		c2.52-3.744,5.04-7.488,7.632-11.232c2.88-4.896,5.76-9.792,8.64-14.688c1.944-2.592,3.888-6.192,12.528-18.432
		c0.288-0.648,0.576-1.296,0.936-1.944c2.16-2.1599,2.16-2.1599,3.384-3.8159c0.144-0.432,0.2881-0.936,0.432-1.44
		c1.944-2.88,2.88-4.824,3.888-6.048c0.936-2.16,3.816-6.48,4.752-8.64c6.2639-10.8,6.768-11.2321,8.64-14.6161
		c1.944-2.8799,3.888-5.0399,10.584-15.12c0.936-0.9359,1.944-2.6639,2.8801-3.5999c6.696-9.36,6.696-9.36,9.144-12.24
		c0.144-0.432,0.288-0.936,0.432-1.44c3.888-4.824,5.76-7.7041,7.704-9.864c0.9359-1.44,2.88-3.312,4.824-5.76
		c2.16-2.16,4.032-4.536,10.512-11.016c0.072-0.288,0.216-0.576,0.36-0.936c2.52-2.16,2.52-2.16,3.96-3.8881
		c0.6479,0,1.368,0,2.0879,0c0.3601,0.504,0.7921,1.0801,1.2241,1.6561c0.288,0.072,0.576,0.144,0.936,0.288
		c-0.36,1.944-0.36,1.944-0.864,2.6641c-1.2961,0.936-7.2,7.2-8.424,8.1359c-3.168,3.6721-6.336,7.3441-9.576,11.016
		c-7.704,9.864-9.576,12.744-17.28,22.8241c-2.52,3.816-5.112,7.632-7.7039,11.52c-5.76,7.416-5.76,7.416-7.632,10.296
		c-1.872,3.6719-3.816,7.3439-5.76,11.088c-1.944,2.88-2.88,5.04-4.824,7.632c-7.704,12.744-7.704,12.744-15.336,24.264
		c-0.648,0.792-1.296,1.584-1.944,2.376c-4.4641,7.488-8.928,15.048-13.4641,22.608c-3.168,4.8961-6.336,9.864-9.576,14.832
		c-1.44,3.168-1.944,3.6-7.2,13.968c-0.504,0.432-0.504,0.432-5.7599,10.08c0,0.72,0,1.44,0,2.16
		c2.088,6.768,4.176,13.536,6.2639,20.376c1.224,5.472,2.5201,11.016,3.816,16.56c0.504,3.168,1.08,6.336,1.656,9.576
		c2.88,11.088,3.384,12.24,7.2,27.864c1.944,6.48,1.944,6.48,2.88,11.016c1.296,2.304,2.592,4.608,3.888,6.984
		c3.816,8.64,3.816,8.64,4.536,10.8c0,0.864,0,1.728,0,2.664c-0.216,1.2961-0.504,2.664-0.792,4.032
		c4.032,0.864,4.032,0.864,10.8,1.8c3.24,0.792,6.48,1.584,9.792,2.376c0.792-0.072,1.584-0.144,2.448-0.216
		c1.872-0.648,3.816-1.296,5.76-1.944c4.176-0.936,8.424-1.872,12.672-2.88c4.464-0.576,8.928-1.224,13.464-1.872
		c4.032-0.7921,8.136-1.584,12.24-2.448c0.432-0.288,0.936-0.576,1.4399-0.936c0.6481-0.072,1.296-0.144,1.9441-0.216
		c0.288,0.216,0.576,0.432,0.936,0.72c0.504,0,1.08,0,1.656,0c0.936-0.288,1.872-0.648,2.88-1.008c0.6479,0,1.296,0,1.944,0
		c0.432,0.36,0.9359,0.792,1.4399,1.224c0.648-0.216,1.296-0.432,1.944-0.72c2.88-1.944,2.88-1.944,4.5361-3.6
		c0.648,0,1.296,0,1.944,0c0.648,0.792,1.296,1.656,2.0161,2.52c0.0719,0.36,0.144,0.792,0.2159,1.224
		c-0.144,0.216-0.288,0.432-0.504,0.72c0.072,0.504,0.144,1.08,0.288,1.656c0.288,0.36,0.576,0.792,0.9359,1.224
		c0.072,0.36,0.144,0.792,0.2161,1.224c-1.872,2.592-1.872,2.592-2.88,4.752c-0.936,3.6-0.936,3.6-1.872,9.36
		c-0.936,1.08-1.872,2.232-2.88,3.384c-0.792,0.576-1.656,1.224-2.52,1.872c-0.144,1.512,0.0719,1.944,0.0719,3.672
		c-1.5839,1.8-3.2399,3.6-4.8959,5.472c-8.064,7.2-9,8.424-12.456,11.16c-0.432,0.144-0.936,0.288-1.44,0.504
		c-0.288,0.576-0.576,1.152-0.864,1.8c-0.648,0.72-1.296,1.44-2.016,2.16c-6.264,3.672-6.264,3.672-10.296,5.616
		c-1.944,1.944-1.944,1.944-13.464,11.52c-2.088,1.224-4.176,2.52-6.264,3.816c-1.512,1.296-3.024,2.592-4.536,3.888
		c-4.32,2.88-4.32,2.88-6.48,4.752c-1.224,1.44-2.52,2.88-3.816,4.32c-2.664,2.16-2.664,2.16-6.048,5.544
		c-1.512,1.944-3.024,3.96-4.536,5.976c-0.936,0-0.936,0-1.44-0.432c-0.504,0.072-1.08,0.144-1.656,0.216
		c-1.152,0.648-2.376,1.296-3.6,1.944c-1.368,0.432-2.736,0.936-4.104,1.44c-2.16,0.216-2.16,0.216-8.424,0
		c-2.592-0.504-2.592-0.504-3.5999-1.008c-7.2-0.936-11.232-1.872-19.44-2.88c-2.232-0.432-4.4641-0.936-6.696-1.44
		c-2.088-0.144-4.176-0.288-6.264-0.432c-2.232-0.576-4.464-1.152-6.696-1.728c-2.16-0.144-4.32-0.288-6.48-0.432
		c-1.512-0.288-3.024-0.648-4.536-1.008c-13.968-0.432-13.968-0.432-20.4481-0.936c-9.504,0.216-19.008,0.432-28.512,0.72
		c-3.456,0.288-6.912,0.576-10.368,0.936c-4.032,0.936-8.136,1.872-12.24,2.88c-3.312,1.296-6.696,2.592-10.08,3.888
		c-8.352,3.816-8.352,3.816-11.736,5.76c-5.04,1.872-5.04,1.872-11.736,3.816c-2.952,0.432-5.904,0.936-8.928,1.44
		C194.544,388.5841,189,388.7281,183.456,388.9441L183.456,388.9441z M334.44,320.0401c-0.288-0.36-0.576-0.7921-0.936-1.224
		c-0.864-0.576-1.728-1.224-2.664-1.872c-1.656,0-1.656,0-2.376-0.288c-3.096,0.144-6.192,0.288-9.36,0.504
		c-0.936-0.144-1.872-0.288-2.88-0.504c-0.504-0.72-1.224-1.152-2.16-2.376c-2.2321,0.072-4.464,0.144-6.768,0.216
		c-0.36-0.504-0.72-1.008-1.152-1.512c-1.584,0-3.168,0-4.824,0.072c-0.216-0.216-0.432-0.504-0.72-0.792
		c-1.944-0.36-1.944-0.36-2.376-0.144c-0.792,0-1.584,0-2.448,0c-0.504-0.648-1.08-1.296-1.656-1.944
		c-0.648-0.072-1.296-0.144-1.944-0.216c-5.76,0.936-5.76,0.936-7.416,0.936c-1.44-1.296-1.44-1.296-1.944-2.16
		c-1.44,0-2.88,0-4.32,0c-1.656,0.504-1.656,0.504-4.032,0.72c-1.224-0.936-1.224-0.936-1.728-1.656
		c-0.432-0.144-0.936-0.288-1.44-0.504c-2.88,0.72-3.816,1.224-5.76,1.728c-0.288,0-0.576,0-0.936,0
		c-2.376-2.304-2.376-2.304-4.104-3.384c-0.72,0-1.44,0-2.16,0c-0.792,0.288-1.584,0.576-2.376,0.936
		c-0.504-0.072-1.08-0.144-1.656-0.216c-0.216-0.216-0.432-0.432-0.72-0.72c-0.648,0-1.296,0-1.944,0
		c-1.008,0.432-2.016,0.936-3.096,1.44c-0.288,0-0.648,0-1.008,0c-0.792-0.648-1.584-1.296-2.376-1.944
		c-0.504-0.072-1.08-0.144-1.656-0.216c-0.792,1.008-1.584,2.016-2.448,3.096c-0.2159,0-0.4319,0-0.72,0
		c-0.792-0.72-1.584-1.44-2.376-2.16c-0.72-0.072-1.44-0.144-2.16-0.216c-4.104,1.944-4.104,1.944-5.76,2.376
		c-0.36,0-0.792,0-1.224,0c-0.792-0.576-1.584-1.224-2.376-1.872c-0.936-0.072-1.872-0.144-2.88-0.288
		c-0.504,0.72-0.504,0.72-1.44,1.224c-0.5041-0.072-1.08-0.144-1.656-0.216c-0.864-0.648-1.728-1.296-2.664-1.944
		c-0.432,0-0.936,0-1.44,0c-0.648,0.504-1.296,1.08-1.944,1.656c-0.504-0.072-1.08-0.144-1.656-0.216
		c-1.44-0.936-1.44-0.936-2.664-1.224c-0.792,0.576-1.584,1.152-2.376,1.728c-0.216,0-0.432,0-0.72,0
		c-2.664-2.304-2.664-2.304-3.816-2.88c-0.432,0-0.936,0-1.44,0c-0.576,0.504-1.152,1.08-1.728,1.656
		c-0.432-0.072-0.936-0.144-1.44-0.216c-0.792-0.36-1.584-0.792-2.376-1.224c-0.36,0.072-0.72,0.216-1.08,0.36
		c-0.2881,0.72-0.648,1.44-1.0081,2.16c-0.216,0-0.504,0.072-0.792,0.144c-0.288-0.36-0.576-0.792-0.936-1.224
		c-0.792-0.432-1.584-0.936-2.448-1.44c-0.504-0.072-1.08-0.144-1.656-0.216c-0.072,0.576-0.216,1.152-0.36,1.8
		c-0.432,0.792-0.936,1.584-1.44,2.376c-0.288,0-0.576,0.072-0.864,0.144c-0.72-0.288-1.44-0.648-2.16-1.008
		c-0.36,0-0.72,0.072-1.08,0.144c-0.936,2.448-0.936,2.448-1.944,3.888c-0.504,0.36-1.008,0.72-1.512,1.152
		c-0.936-0.576-1.872-1.152-2.88-1.8c-0.432,0-0.936,0-1.44,0c-0.504,0.504-0.504,0.504-1.224,0.504
		c-0.432-0.648-0.936-1.296-1.44-1.944c-0.792-0.432-1.584-0.864-2.376-1.296c-0.36-0.864-0.72-1.728-1.08-2.664
		c-1.08-0.432-2.16-0.864-3.24-1.296c-0.792,0.216-1.584,0.432-2.376,0.72c-1.224,0.936-1.224,0.936-2.664,2.8799
		c-0.216,0.072-0.432,0.144-0.72,0.216c-1.08-0.432-2.232-0.936-3.384-1.44c-0.504,0.072-1.08,0.144-1.656,0.216
		c-1.656,1.008-1.656,1.008-2.664,1.224c-1.296-0.36-2.664-0.792-4.032-1.224c-1.944,1.008-1.944,1.008-2.664,1.728
		c-1.224-0.072-2.52-0.144-3.816-0.288c-0.288,0.144-0.648,0.288-1.008,0.504c-0.72,1.008-1.44,2.016-2.16,3.096
		c-4.32-0.216-4.32-0.216-6.912-0.72c-0.288,0.144-0.648,0.288-1.008,0.504c-0.432,0.648-0.864,1.368-1.296,2.088
		c-0.864,0.072-1.8-0.432-4.896-1.152c-0.072,0.072-0.144,0.144-0.288,0.288c-1.584-0.144-3.168-0.288-4.752-0.504
		c-0.288,0.216-0.648,0.432-1.008,0.72c-0.432,0-0.936,0-1.44,0c-0.576-0.648-1.224-1.296-1.872-1.944
		c-3.384-0.936-3.384-0.936-4.32-0.936c-0.288,0.216-0.288,0.216-5.544-0.504c-0.432,0.432-0.936,0.936-1.44,1.44
		c-3.024-0.72-6.048-1.44-9.144-2.16c-0.576,0.144-1.224,0.288-1.872,0.504c-0.72-0.072-1.44-0.144-2.16-0.216
		c-0.288,0.144-0.648,0.288-1.008,0.432c-0.936-0.216-0.936-0.216-3.816-2.16c-4.104-0.216-6.264,0-9.144-0.432
		c-1.152-1.584-2.304-3.24-3.456-4.896c-0.576-0.288-1.152-0.576-1.8-0.864c-2.304-0.288-4.608-0.648-6.984-1.008
		c-0.144-0.144-0.36-0.36-0.576-0.576c-2.304-5.544-4.608-11.16-6.984-16.776c-1.224-1.44-3.096-4.824-6.984-9.864
		c-6.48-5.76-6.48-5.76-11.736-9.7921c-1.944-1.224-3.888-2.448-5.832-3.744c-2.592-1.296-5.256-2.592-7.92-3.888
		c-2.232-0.792-4.464-1.584-6.768-2.376c-0.432-0.504-0.432-0.504-6.912-3.384c-0.288-0.36-0.648-0.72-1.008-1.08
		c-0.648-1.584-1.296-3.168-2.016-4.752c0-0.36,0-0.792,0.072-1.224c0.288-0.072,0.648-0.216,1.008-0.36
		c2.808-0.072,5.616-0.144,8.424-0.216c5.256,0.432,5.256,0.432,23.256,3.096c4.608,0.936,9.216,1.8719,13.896,2.88
		c3.888,0.216,4.608,0.504,9.648,0.936c3.384,0.648,6.84,1.296,10.296,1.944c6.48,0.792,12.96,1.584,19.44,2.376
		c5.832,0.936,11.664,1.872,17.496,2.88c4.896,0.432,9.792,0.936,14.688,1.44c8.208,0.36,16.416,0.792,24.696,1.224
		c0.36,0.144,0.792,0.288,1.224,0.504c9.576,1.152,9.576,1.152,11.952,1.656c7.128,0.288,14.256,0.576,21.384,0.936
		c2.52,0.288,5.112,0.648,7.704,1.008c29.52,1.872,29.52,1.872,33.552,2.376c3.6,0.072,7.2,0.144,10.8,0.216
		c4.824,1.008,19.224,2.88,20.664,3.384c4.248,0.792,8.496,1.584,12.744,2.376c1.08,0.288,2.16,0.648,3.312,1.008
		c2.376,0.288,4.752,0.576,7.2,0.936c2.448,0.648,4.968,1.296,7.488,1.944c12.96,2.5201,25.92,5.04,38.88,7.632
		c6.48,0.936,12.96,1.872,19.44,2.88c5.904,1.296,11.808,2.592,17.712,3.888c11.304,1.872,12.96,2.376,20.664,3.312
		c1.512,0.288,3.024,0.648,4.5359,1.008c0.072,0.288,0.216,0.576,0.36,0.864c-3.4561,1.728-3.4561,1.728-9.216,5.112
		c-2.664,0.504-2.664,0.504-5.544,0.504c-0.504-0.144-1.08-0.288-1.656-0.504c-0.216-0.216-0.432-0.432-0.72-0.72
		c-9.864-0.72-9.864-0.72-23.04-2.376c-8.424-1.944-8.424-1.944-15.12-3.888c-2.52-0.936-5.112-1.872-7.704-2.88
		c-15.336-3.816-15.336-3.816-28.296-6.696c-10.08-1.44-10.08-1.44-16.344-2.664c-3.312-0.288-6.696-0.576-10.08-0.936
		c-4.608-0.936-9.216-1.872-13.896-2.88c-5.76-0.504-5.76-0.504-11.52-0.504c-5.4-0.504-10.872-1.08-16.344-1.656
		c-6.912,0-12.456-0.504-34.992-0.936c-3.816-0.144-7.632-0.288-11.52-0.504c-7.92-0.792-15.84-1.584-23.76-2.376
		c-4.68-0.792-9.432-1.584-14.184-2.448c-2.088-0.144-4.176-0.288-6.264-0.432c-1.152-0.504-1.152-0.504-2.592-1.728
		c-0.648-0.072-1.296-0.144-1.944-0.216c-0.936-0.936-0.936-0.936-1.656-1.224c-0.288,0.144-0.648,0.288-1.008,0.4319
		c-0.072,0.432-0.216,0.936-0.36,1.44c-0.072-0.144-0.216-0.288-0.36-0.432c-0.504,0-1.008,0.072-1.584,0.144
		c0,0.36,0,0.792,0,1.224c1.008,2.376,1.008,2.376,1.008,3.384c-0.216,0.144-0.432,0.288-0.72,0.432
		c0.072,0.936,0.144,1.872,0.216,2.88c1.224,1.44,2.088,1.944,2.52,2.736c1.008,0.504,1.008,0.504,3.168,1.008
		c1.944,0,3.96,0,5.976,0c2.952,0.432,5.904,0.936,8.856,1.44c12.024,0.432,15.624,0.216,40.32,0.936
		c9.864,0.936,9.864,0.936,24.768,1.944c5.184,0.072,10.368,0.144,15.552,0.216c4.392,0.36,8.784,0.792,13.248,1.224
		c4.464,0.576,8.928,1.224,13.392,1.872c5.76,1.08,11.5201,2.232,17.28,3.384c16.56,2.376,18.504,2.88,26.208,3.816
		c0.432,0.288,0.432,0.288,12.672,2.16c6.192,1.872,12.4561,3.816,18.72,5.76c5.976,0.936,11.952,1.872,18,2.88
		c3.888,0.216,7.8481,0.432,11.808,0.72c2.376,0.504,2.376,0.504,8.352,0.864c0,0.432,0.072,0.936,0.144,1.44
		c-0.36,0.288-0.792,0.648-1.224,1.008c-1.08,0.216-2.16,0.504-3.2401,0.792c-10.08,3.816-11.952,4.824-14.616,5.76
		c-0.36,0.288-0.792,0.576-1.224,0.936c-8.136,2.448-8.136,2.448-10.512,2.88c-1.512,0.648-3.024,1.296-4.608,1.944
		C335.592,320.0401,335.016,320.0401,334.44,320.0401L334.44,320.0401z M376.704,286.4161c-10.368-1.872-10.368-1.872-15.12-2.376
		c-7.488-1.944-7.488-1.944-16.56-3.816c-6.192-0.864-12.456-1.8-18.72-2.736c0.432-0.864,0.864-1.728,1.296-2.664
		c0-0.36,0-0.7921,0-1.224c-0.648-1.728-1.296-3.4561-1.944-5.256c-1.728-3.024-3.456-6.048-5.256-9.144
		c-0.648-0.864-1.296-1.728-1.944-2.592c-0.432-1.08-0.936-2.232-1.44-3.384c-0.072-0.648-0.144-1.296-0.216-1.944
		c1.224-2.376,2.52-4.752,3.816-7.2c0.432-0.504,0.864-1.008,1.368-1.584c16.272,2.16,16.272,2.16,21.312,3.168
		c0.144,0.144,0.288,0.288,0.504,0.432c5.544,0.504,5.544,0.504,9.144,1.224c0.504,0.216,1.08,0.4319,1.656,0.72
		c0.792,0,1.584,0,2.376,0c0.36,0.36,0.36,0.36,0.864,2.808c2.88,5.256,2.88,5.256,3.816,7.632c5.544,6.48,5.976,7.488,6.696,7.92
		c1.008,1.224,2.88,5.04,4.824,8.208c0.648,1.296,1.296,2.664,1.944,4.032c0.864,2.52,1.728,5.112,2.592,7.704
		C377.424,286.3441,377.064,286.3441,376.704,286.4161L376.704,286.4161z M311.904,274.6801c-0.648-0.144-1.296-0.288-1.944-0.504
		c0-1.656-0.072-3.384-0.144-5.112c0.432-1.368,0.936-2.736,1.44-4.104c0.288,0,0.576,0,0.864,0c0.576,2.736,1.152,5.472,1.8,8.208
		c0,0.504-0.072,1.008-0.144,1.512C313.2,274.6801,312.552,274.6801,311.904,274.6801L311.904,274.6801z M292.176,270.8641
		c-3.168-0.72-6.336-1.512-9.576-2.304c-0.072-1.656-0.216-3.312-0.36-5.04c-0.936-2.448-1.872-4.896-2.88-7.416
		c-0.792-1.512-1.584-3.024-2.448-4.536c0-0.36,0-0.792-0.072-1.224c2.088,0.576,4.176,1.152,6.264,1.8
		c3.888,1.584,7.776,3.168,11.736,4.752c1.224,1.008,1.224,1.008,4.32,2.448c0.504,0.072,1.08,0.144,1.656,0.216
		c0.72,0.864,0.72,0.864,1.08,1.8c-0.072,0.576-0.144,1.152-0.216,1.728c-1.44,3.6-1.44,3.6-1.8,3.888
		c-0.72,0-1.44,0.072-2.16,0.144c0.36,0.504,0.36,0.504,0.36,1.944c-0.072,0.144-0.216,0.36-0.36,0.576
		c-1.224,0.144-2.52,0.288-3.816,0.504c-0.144,0.216-0.288,0.432-0.504,0.72C293.04,270.8641,292.608,270.8641,292.176,270.8641
		L292.176,270.8641z M275.4,267.2641c-7.488-1.5121-15.048-3.096-22.608-4.6801c0.648-4.5359,0.648-4.5359,2.52-12.744
		c0.504-0.936,1.44-5.472,1.872-6.48c0.432,0,0.936-0.072,1.44-0.144c0.72,0.288,1.44,0.648,2.16,1.008
		c3.6,0.432,3.6,0.432,4.752,0.936c1.224,0.936,1.224,0.936,2.664,1.44c0.648,0.72,1.296,1.44,1.944,2.16
		c1.224,2.16,2.52,4.392,3.816,6.624c1.8,4.32,1.8,4.32,2.736,7.92c0.144,1.152,0.288,2.376,0.504,3.6
		C276.624,267.2641,276.624,267.2641,275.4,267.2641L275.4,267.2641z M244.656,261.7201c-3.96-0.576-7.92-1.152-11.88-1.8
		c-0.6479-2.592-1.296-5.256-1.944-7.92c-3.312-7.92-3.312-7.92-3.816-8.352c-0.288-0.648-0.576-1.296-0.936-1.944
		c-1.872-2.448-3.816-4.8961-5.76-7.416c-1.296-1.368-2.592-2.736-3.888-4.104c0-0.216,0-0.432-0.072-0.72
		c1.728,0.072,3.456,0.216,5.256,0.36c12.024,2.88,12.024,2.88,17.28,3.816c1.512,0.144,3.024,0.288,4.608,0.504
		c0.648,2.304,1.296,4.6801,2.016,7.056c0.432,1.008,0.936,2.088,1.44,3.168c0.432,2.7361,0.936,5.544,1.44,8.352
		c0,1.008,0,2.088,0,3.168c-1.44,5.472-1.44,5.472-1.8,5.832C245.952,261.7201,245.304,261.7201,244.656,261.7201L244.656,261.7201z
		 M224.28,260.0641c-2.88-0.288-5.76-0.648-8.64-1.008c-6.48-0.432-12.96-0.864-19.44-1.296c-1.8-20.16-1.8-20.16-1.656-21.24
		c2.736,0.432,5.544,0.936,8.352,1.44c0.36-0.36,0.36-0.36,0.36-1.512c-0.432-0.576-0.936-1.152-1.44-1.728
		c-2.016-0.864-5.4-1.8-6.12-2.304c-0.36-0.072-0.792-0.144-1.224-0.288c-0.36-1.008-0.36-1.008-0.648-5.04
		c2.736,0,5.544-0.072,8.352-0.144c4.104,1.872,4.104,1.872,8.928,4.536c0.432,0.504,1.872,0.936,5.04,3.096
		c4.752,6.048,4.752,6.048,5.76,6.984c0.576,1.008,1.224,2.016,1.8719,3.096c0.864,2.016,1.8,4.104,2.7361,6.192
		c0.72,2.952,1.44,5.904,2.16,8.856c-0.072,0.072-0.144,0.216-0.288,0.36C227.016,260.0641,225.648,260.0641,224.28,260.0641
		L224.28,260.0641z M188.28,257.1841c-4.32-0.504-4.32-0.504-18.504-1.44c-0.144-0.864-0.36-1.8-0.576-2.736
		c0.288-1.008,0.576-2.088,0.936-3.168c7.704-12.96,7.704-12.96,10.584-17.28c0.504,0,1.008-0.072,1.584-0.144
		c2.16,0.648,4.32,1.296,6.48,1.944c0.792,7.56,0.792,7.56,1.512,21.744c-0.072,0.36-0.216,0.72-0.36,1.08
		C189.432,257.1841,188.856,257.1841,188.28,257.1841L188.28,257.1841z M161.136,255.744c-2.88-0.504-2.88-0.504-3.6-1.008
		c-3.312-0.432-6.696-0.864-10.08-1.296c5.616-13.896,7.56-19.656,8.424-21.384c0.216,0,0.432,0,0.72-0.072
		c5.616,17.64,5.616,17.64,7.272,23.616C163.008,255.6001,162.072,255.6721,161.136,255.744L161.136,255.744z M137.16,253.2961
		c-3.6-0.216-7.2-0.432-10.8-0.72c-0.432-0.144-0.864-0.36-1.368-0.576c0-1.8,0-3.6,0-5.472c-0.936-6.4799-0.936-6.4799-2.88-15.12
		c-1.872-6.048-1.872-6.048-2.232-8.208c6.624,0.576,13.248,1.152,19.944,1.8c3.816,0.792,7.632,1.656,11.448,2.52
		c0,0.36,0.072,0.792,0.144,1.224c-1.944,4.536-3.816,9.864-8.64,20.88c0,0.648,0.072,1.296,0.144,1.944
		c0.144,0.144,0.36,0.288,0.576,0.432c0.072,0.36,0.144,0.792,0.216,1.224C141.552,253.2241,139.392,253.2241,137.16,253.2961
		L137.16,253.2961z M117,251.8561c-2.088-0.144-4.176-0.288-6.264-0.432c-10.296-1.944-10.296-1.944-19.656-3.384
		c0-0.432-0.072-0.864-0.144-1.2961c2.232-5.472,4.464-11.016,6.696-16.56c1.584-2.952,3.168-5.976,4.752-9
		c1.872,0.072,3.816,0.144,5.76,0.216c1.728,0.288,3.456,0.576,5.256,0.936c0.504,0.648,0.504,0.648,2.232,5.184
		c1.944,7.2,1.944,7.2,3.384,14.1841c0.072,3.312,0.144,6.696,0.216,10.08C118.512,251.7841,117.792,251.7841,117,251.8561
		L117,251.8561z M308.736,248.5441c-3.312-1.944-5.472-2.88-8.352-4.824c-3.888-1.944-3.888-1.944-20.16-8.496
		c0.072-0.144,0.144-0.288,0.216-0.504c1.08,0,2.232-0.072,3.384-0.144c1.944,0.648,3.96,1.296,5.976,1.944
		c2.16,0,2.16,0,12.24,1.44c2.376,0.504,4.752,1.008,7.2,1.584c0.36,0.504,0.792,2.88,1.296,4.104
		c0.072,1.08,0.144,2.16,0.216,3.312c-0.288,0.432-0.576,0.936-0.936,1.44C309.456,248.4001,309.096,248.472,308.736,248.5441
		L308.736,248.5441z M80.28,247.1041c-7.2-1.152-14.4-2.304-21.6-3.456c0-0.432-0.072-0.936-0.144-1.44
		c2.52-5.832,5.112-11.664,7.704-17.568c0.576-1.8,1.224-3.6,1.872-5.472c0.216-0.144,0.432-0.288,0.648-0.432
		c3.168,0.144,6.336,0.288,9.576,0.432c0.36,2.376,0.72,4.752,1.08,7.2c1.44,5.832,2.88,11.664,4.32,17.496
		c0,1.08,0,2.16-0.072,3.24C82.584,247.1041,81.432,247.1041,80.28,247.1041L80.28,247.1041z M166.176,244.584
		c-4.68-14.4-4.68-14.4-4.752-15.624c7.2,0.864,7.2,0.864,11.952,1.8c1.44,0.504,1.44,0.504,1.728,0.864
		c-2.664,4.32-5.328,8.64-8.064,12.96C166.752,244.584,166.464,244.584,166.176,244.584L166.176,244.584z M250.704,244.2241
		c-1.872-3.96-3.744-8.784-3.888-9.72c2.304,0.144,4.608,0.36,6.984,0.576c0.072,0.072,0.144,0.216,0.216,0.36
		c-2.736,8.64-2.736,8.64-3.096,8.9279C250.848,244.368,250.776,244.2961,250.704,244.2241L250.704,244.2241z M365.616,244.2241
		c-1.296-0.792-2.6639-1.584-4.032-2.448c-7.488-1.872-7.488-1.872-12.744-2.88c-15.84-1.872-15.84-1.872-23.184-3.168
		c0.072-0.432,0.144-0.936,0.216-1.44c7.704-16.344,7.704-16.344,11.52-23.76c0.432-0.6479,0.864-1.296,1.368-1.944
		c0.936,0,1.872-0.072,2.88-0.144c12.24,1.44,13.68,1.944,15.624,1.944c1.656,0.936,1.656,0.936,2.016,1.584
		c0.432,2.376,0.936,3.312,2.376,10.2961c0.288,2.088,0.576,4.176,0.936,6.2639c1.296,4.752,2.592,9.576,3.888,14.4
		c0,0.432-0.072,0.864-0.144,1.296C366.12,244.2241,365.904,244.2241,365.616,244.2241L365.616,244.2241z M50.544,242.7841
		c-5.184-0.936-10.368-1.872-15.624-2.88c0-1.944-0.072-3.888-0.144-5.904c0.288-1.296,0.576-2.664,0.936-4.032
		c3.888-9.36,3.888-9.36,4.752-10.944c0.216,0,0.432,0,0.72,0c1.224,3.456,2.448,6.912,3.672,10.44
		c2.088,4.104,4.176,8.28,6.264,12.456c0,0.72,0,0.72-0.36,1.008C50.688,242.9281,50.616,242.8561,50.544,242.7841L50.544,242.7841z
		 M29.664,239.4001c-9.864-1.44-9.864-1.44-10.224-1.8c-1.944-15.552-1.944-15.552-2.088-19.152
		c0.792-0.432,0.792-0.432,7.488-1.368c2.952,0.072,5.904,0.144,8.856,0.216c0.36,0.144,0.72,0.288,1.08,0.432
		c-0.072,0.504-0.144,1.08-0.216,1.656c-1.944,4.536-1.944,4.536-3.888,10.08c-0.216,0.936-0.432,1.872-0.72,2.88
		c-0.072,1.584-0.144,3.168-0.216,4.824c0.504,1.152,0.504,1.152,1.224,1.656c0,0.144-0.072,0.36-0.144,0.576
		C30.456,239.4001,30.096,239.4001,29.664,239.4001L29.664,239.4001z M87.984,238.1761c-0.936-2.88-1.872-5.76-2.808-8.712
		c-0.36-2.088-0.792-4.176-1.224-6.264c0-1.152,0.072-2.376,0.144-3.6c10.08,0.864,10.08,0.864,11.664,1.224
		c0,0.288,0,0.576,0,0.936c-2.232,5.184-4.464,10.368-6.768,15.624C88.2,238.3201,88.2,238.3201,87.984,238.1761L87.984,238.1761z
		 M53.856,237.744c-1.224-2.448-2.448-4.896-3.744-7.344c-0.936-2.448-1.872-4.896-2.88-7.416
		c-0.288-1.368-0.576-2.7361-0.936-4.104c0-0.432,0.072-0.864,0.144-1.2961c0.792-0.144,1.584-0.288,2.376-0.504
		c6.264,0.216,6.264,0.216,12.96,0.936c0.216,0.216,0.432,0.432,0.72,0.648c-1.8,5.256-1.8,5.256-5.616,14.4
		c-0.72,1.512-1.512,3.096-2.304,4.68C54.36,237.744,54.144,237.744,53.856,237.744L53.856,237.744z M317.664,234.144
		c-1.584-0.432-3.168-0.864-4.752-1.296c-0.936-6.264-0.936-6.264-1.44-13.68c-0.432-2.88-0.936-5.76-1.44-8.64
		c0-1.728,0.072-3.456,0.144-5.184c1.008-0.288,4.3199-0.288,5.544,0c2.664,0,2.664,0,10.584,1.152
		c0.216,0.288,2.376,0.288,3.096,0.72c0.792,0.216,1.584,0.432,2.376,0.648c-0.072,0.504-0.216,1.08-0.36,1.656
		c-3.96,8.208-7.92,16.416-11.88,24.624C318.96,234.144,318.312,234.144,317.664,234.144L317.664,234.144z M306.864,231.4801
		c-2.952-0.648-5.904-1.296-8.928-1.944c-26.64-3.816-26.64-3.816-34.56-5.256c-0.144-1.512-0.144-1.512,0.36-4.392
		c1.944-4.824,2.376-6.48,2.88-7.2c0.144-0.6479,0.2881-1.296,0.504-1.944c0.504,0,1.008-0.072,1.584-0.144
		c0.144-0.144,0.288-0.36,0.432-0.576c-0.144-0.864-0.36-1.728-0.576-2.664c0.576-1.728,1.224-3.456,1.872-5.256
		c1.008-1.44,1.008-1.44,1.728-1.944c1.296-0.144,1.296-0.144,2.52,0.144c-0.072,0.0721-0.144,0.216-0.216,0.36
		c0.864,0,1.728-0.072,2.592-0.144c1.224,0.504,1.224,0.504,3.168,0.648c0,0.216,0,0.432,0,0.72c0.936-0.144,1.872-0.288,2.88-0.432
		c0.864,0.072,1.728,0.144,2.592,0.288c0.648,0.216,1.296,0.504,1.944,0.792c2.448,0.072,4.896,0.216,7.416,0.36
		c0.72,0.216,1.44,0.432,2.16,0.648c4.32,0.072,4.32,0.072,4.608,0.36c1.296,0.288,2.664,0.576,4.032,0.864
		c0.576,4.536,0.864,5.04,1.296,10.296c0.504,2.16,0.504,2.16,1.44,12.96c-0.072,1.08-0.144,2.232-0.216,3.384
		C307.872,231.4081,307.368,231.4081,306.864,231.4801L306.864,231.4801z M187.56,229.8241c-1.152-0.432-2.304-0.864-3.528-1.2961
		c0-1.224,0-1.224,0.432-1.872c2.376,0,2.376,0,3.888,0.432c0.072,0.864,0.144,1.7281,0.288,2.592
		C188.28,229.6801,187.92,229.752,187.56,229.8241L187.56,229.8241z M177.48,226.6561c-1.44-0.216-1.44-0.216-1.944-0.576
		c0.864-0.072,1.728-0.144,2.664-0.216c-0.144,0.72-0.144,0.72-0.504,0.936C177.624,226.8,177.552,226.7281,177.48,226.6561
		L177.48,226.6561z M256.68,223.5601c-9.144-0.936-9.144-0.936-17.784-2.376c0-0.288-0.072-0.576-0.144-0.864
		c3.888-5.04,3.888-5.04,6.768-8.136c0.288-0.72,0.576-1.44,0.936-2.16c1.368-1.512,2.736-3.024,4.104-4.536
		c1.584-1.296,3.168-2.592,4.752-3.888c0.648-0.72,1.296-1.44,1.944-2.16c0.504-0.288,1.008-0.576,1.584-0.864
		c1.512-0.072,3.024-0.144,4.536-0.288c0.072,0.216,0.144,0.432,0.216,0.72c0.288,0,0.648,0,1.008-0.072
		c0.432,0.216,0.936,0.432,1.44,0.648c0,0.504,0,1.008,0.072,1.584c-1.872,4.032-1.872,4.032-7.92,19.872
		c-0.216,1.728-0.216,1.728-0.72,2.448C257.256,223.4881,256.968,223.4881,256.68,223.5601L256.68,223.5601z M230.256,219.4561
		c-9.576-1.872-9.576-1.872-19.44-3.312c-0.072-0.288-0.216-0.576-0.36-0.864c0.936-4.032,0.936-4.032,2.88-9.36
		c0.72-1.44,1.5121-2.952,2.304-4.464c2.16-0.432,2.16-0.432,6.48-0.72c2.88,5.4,2.88,5.4,3.672,7.632
		c1.872,3.312,3.816,6.696,5.7599,10.08c0,0.288,0,0.648-0.072,1.008C231.12,219.4561,230.688,219.4561,230.256,219.4561
		L230.256,219.4561z M234.576,216.2161c-0.936-1.44-4.68-9.288-7.056-15.048c0-0.432-0.072-0.936-0.144-1.44
		c1.368-0.288,2.736-0.576,4.104-0.864c0.504-0.288,1.08-0.648,1.656-1.008c0.936-0.216,1.872-0.432,2.88-0.72
		c2.52-0.072,5.112-0.144,7.704-0.216c1.944,0.288,3.96,0.576,5.976,0.936c0.144,0.144,0.36,0.288,0.576,0.432
		c0,0.216,0,0.432,0,0.72c-1.872,2.592-4.032,4.752-12.24,14.616c-0.864,0.864-1.8,1.8-2.736,2.736
		C235.08,216.3601,234.864,216.2881,234.576,216.2161L234.576,216.2161z M202.464,215.4241c-2.304-0.288-4.608-0.576-6.984-0.864
		c0-0.36,0-0.72,0.072-1.152c7.704-13.464,7.704-13.464,11.5201-20.664c3.888-5.256,3.888-5.256,4.3199-6.264
		c0.36-0.288,0.7921-0.576,1.224-0.936c0.7921-1.152,1.584-2.376,2.376-3.6c0.36-0.072,0.72-0.144,1.152-0.216
		c1.728,7.632,1.728,7.632,3.456,13.896c-3.456,0.792-3.456,0.792-5.184,0.792c-0.936,0.504-0.936,0.504-1.872,0.648
		c-0.144,0.72-1.152,2.16-2.88,5.976c-0.216,0.072-0.432,0.144-0.72,0.288c-0.432,2.592-1.368,5.0399-2.304,8.64
		c-1.008,2.376-1.008,2.376-1.8,3.456C204.048,215.4241,203.256,215.4241,202.464,215.4241L202.464,215.4241z M353.16,206.0641
		c-8.856-1.008-8.856-1.008-12.456-1.08c0.072-0.648,0.144-1.2961,0.288-1.944c1.08-2.5201,2.232-5.04,3.384-7.632
		c0.144-0.144,0.36-0.288,0.576-0.504c0.792,0,1.584-0.072,2.448-0.144c0.144,0.144,0.288,0.288,0.504,0.504
		c1.152,0.144,2.376,0.36,3.6,0.576c0.72,0.288,1.44,0.576,2.16,0.864c0.432,0,0.936,0,1.44,0c0.288,0.36,0.648,0.72,1.008,1.08
		c0.576,2.664,1.152,5.4,1.728,8.136C356.328,205.9201,354.744,205.9921,353.16,206.0641L353.16,206.0641z M332.28,203.9041
		c-10.296-1.728-14.4-2.16-14.904-2.448c-2.592-0.216-5.256-0.504-7.92-0.792c-0.072-0.432-0.216-0.936-0.36-1.44
		c0-2.664,0.072-5.328,0.144-8.064c2.16-0.0721,4.32-0.144,6.48-0.216c6.84,0.792,13.752,1.584,20.664,2.376
		c0.432,0.144,0.936,0.288,1.44,0.504c0,0.432,0,0.864,0.072,1.296c-1.944,4.824-1.944,4.824-3.816,8.64
		C333.504,203.7601,332.928,203.8321,332.28,203.9041L332.28,203.9041z M301.32,200.0161c-15.84-1.872-21.816-2.88-27.576-3.456
		c0-0.576,0-1.224,0.072-1.872c0.432-0.72,0.864-1.512,1.368-2.304c0.576,0.072,1.224,0.144,1.872,0.216
		c0.864-0.648,1.728-1.2961,2.664-1.944c0.936-0.288,1.872-0.576,2.88-0.936c1.728-0.072,3.456-0.144,5.256-0.216
		c6.048,0.432,9.648,0.432,15.84,0.936c0.36,0.072,0.72,0.216,1.08,0.36c0.144,0.576,0.2881,1.152,0.504,1.728
		c0,2.448-0.072,4.968-0.144,7.488C303.912,200.0161,302.616,200.0161,301.32,200.0161L301.32,200.0161z M266.76,194.9761
		c-0.936-0.432-1.872-0.936-2.88-1.44c0-0.288-0.072-0.648-0.144-1.008c7.704-9.36,7.704-9.36,10.224-11.952
		c0.216,0,0.432,0,0.72-0.072c-0.288,1.008-0.576,2.016-0.864,3.096c-1.728,3.744-3.456,7.4879-5.256,11.304
		C267.984,194.9041,267.408,194.9041,266.76,194.9761L266.76,194.9761z M225.936,194.6161c-0.72-2.376-1.512-4.752-2.304-7.128
		c-0.072-0.792-0.144-1.584-0.288-2.448c0.72,0.072,1.44,0.216,2.16,0.36c3.384,1.224,6.84,2.52,10.296,3.816
		c0.36,0.288,0.792,0.576,1.224,0.864c-0.72,0.648-1.44,1.2961-2.16,2.0161c-1.944,1.008-1.944,1.008-7.2,2.664
		C227.088,194.7601,226.512,194.688,225.936,194.6161L225.936,194.6161z M256.68,190.6561c-6.48-1.872-6.48-1.872-14.904-3.816
		c-4.032-1.224-8.136-2.52-12.24-3.816c-2.16-0.864-4.392-1.8-6.624-2.736c0-0.36,0-0.792-0.072-1.224
		c1.8-0.36,3.672-0.72,5.544-1.08c1.656,0,3.312,0,5.04,0c10.296-0.72,20.592-1.44,30.96-2.16c0.864-0.144,1.728-0.288,2.592-0.504
		c5.544,0,5.544,0,5.76,0.216c-0.936,1.224-0.936,1.224-3.9601,3.744c-0.072,0.288-0.144,0.648-0.216,1.008
		c-4.104,4.32-5.3279,5.256-10.08,10.296C257.904,190.584,257.328,190.584,256.68,190.6561L256.68,190.6561z M343.8,179.6401
		c-17.496-1.44-19.944-1.944-21.384-1.944c-4.104-0.576-8.28-1.224-12.456-1.872c-0.504-0.216-1.08-0.432-1.656-0.648
		c0-1.224-0.072-2.52-0.144-3.816c0.072-0.144,0.216-0.36,0.36-0.576c5.7599,0,5.976,0.216,10.8,0.432
		c1.944,0.504,1.944,0.504,2.664,1.008c1.44,0,3.6,0.72,9.36,1.152c2.88,0.504,6.48,0.72,11.736,1.728
		c1.224,0.072,2.52,0.216,3.816,0.36c-0.36,1.656-0.36,1.656-1.296,3.6c-0.144,0.144-0.288,0.288-0.504,0.504
		C344.664,179.5681,344.232,179.5681,343.8,179.6401L343.8,179.6401z M302.976,175.1041c-0.72-0.144-1.44-0.288-2.16-0.504
		c-3.312,0-3.312,0-10.296-0.7921c-0.144-0.72-0.288-1.512-0.504-2.304c-0.216,0-0.432-0.072-0.72-0.144
		c0.072-0.36,0.144-0.72,0.216-1.152c0.216-0.144,0.432-0.288,0.648-0.504c2.52-0.072,5.04-0.144,7.56-0.216c0,0.216,0,0.432,0,0.72
		c3.384-0.144,3.384-0.144,5.76,0.072c0.072,0.072,0.216,0.216,0.36,0.36c0.072,1.296,0.144,2.592,0.216,3.888
		C303.192,175.248,303.192,175.248,302.976,175.1041L302.976,175.1041z M220.464,174.2401c0.072-0.432,0.144-0.936,0.288-1.44
		c1.728-1.872,1.728-1.872,5.04-6.696c2.304-0.36,2.808-0.648,4.464-0.864c0.072-0.072,0.144-0.216,0.288-0.36
		c3.096,0,6.48-0.576,19.872-1.584c0.288,0.072,0.648,0.144,1.008,0.288c19.152-0.72,29.736-1.44,32.112-1.296
		c-0.288,0.936-0.576,1.872-0.864,2.88c-0.72,1.368-1.44,2.736-2.232,4.176c-0.36,0-0.792,0-1.224,0
		c-0.432,0.432-0.432,0.432-1.656,0.936c-8.856,0.936-8.856,0.936-11.304,1.44c-17.28,0.72-23.76,1.224-34.056,1.44
		C225.504,173.6641,223.344,174.0961,220.464,174.2401L220.464,174.2401z M339.264,162.36c-8.28-0.936-16.632-1.872-24.984-2.88
		c-1.8719-0.072-3.816-0.144-5.7599-0.216c-0.216-0.072-0.432-0.216-0.648-0.36c-0.432-2.88-0.432-2.88-0.936-10.584
		c-0.072-2.9521-0.144-5.904-0.216-8.856c0.144-2.376,0.288-4.752,0.432-7.2c0.288-0.072,0.576-0.216,0.864-0.36
		c16.344,0.216,16.344,0.216,23.544,0.72c1.08,0.288,2.2321,0.576,3.384,0.936c9.432,28.008,9.432,28.008,9.36,28.584
		C342.648,162.2161,340.992,162.2881,339.264,162.36L339.264,162.36z M243.216,159.4801c-0.936,0-1.872,0-2.88-0.072
		c0.0721-0.288,0.144-0.648,0.216-1.008c1.728-0.864,1.728-0.864,6.264-4.176c0.792-0.288,1.584-0.648,2.448-1.008
		c0.504-0.504,1.08-1.008,1.656-1.512c0.432-0.144,0.936-0.288,1.44-0.504c0.36-0.36,0.792-0.72,1.224-1.08
		c2.376-0.936,2.376-0.936,4.968-2.52c0.216-0.432,0.432-0.936,0.648-1.44c0.072,0.072,0.216,0.144,0.36,0.288
		c0.5041-0.864,0.5041-0.864,1.08-1.008c0,0.216,0,0.432,0.072,0.72c0.936-0.648,1.944-1.2961,2.952-1.944
		c-0.288-0.072-0.648-0.144-1.008-0.216c0.72-0.864,1.728-1.296,2.16-1.8c0.432-0.072,0.864-0.216,1.296-0.36
		c-0.216,0.216-0.504,0.432-0.792,0.72c0.216,0,0.432,0.072,0.72,0.144c0.36-0.288,0.792-0.648,1.224-1.008c0.432,0,0.936,0,1.44,0
		c4.032,4.32,4.032,4.32,5.976,6.984c3.816,2.592,7.632,5.256,11.52,7.92c0,0.36,0,0.72,0.072,1.08
		c-1.512,0.144-1.512,0.144-3.168-0.144c-0.648,0.144-1.296,0.288-1.944,0.504c-4.968,0.216-9.936,0.432-14.904,0.72
		c-0.792,0.144-1.584,0.288-2.376,0.504C257.04,159.3361,250.128,159.4081,243.216,159.4801L243.216,159.4801z M299.88,158.9761
		c-2.448-0.216-4.968-0.504-7.488-0.792c0-0.432,0.072-0.936,0.144-1.44c1.224-2.592,2.52-5.256,3.816-7.92
		c1.872-3.2401,3.744-6.552,5.688-9.864c0.216-0.072,0.432-0.144,0.72-0.216c0.36,11.5201,0.792,14.616,0.792,18.936
		c-0.072,0.288-0.144,0.648-0.216,1.008C302.76,158.9761,302.76,158.9761,299.88,158.9761L299.88,158.9761z M232.2,158.1841
		c0.216-0.72,0.504-1.44,0.792-2.16c0.648-0.936,1.2961-1.872,1.944-2.88c7.92-9.144,13.68-15.336,16.488-18.864
		c1.008,0.288,2.016,0.576,3.096,0.936c2.088-0.216,4.176-0.432,6.264-0.72c0.36,0.144,0.72,0.288,1.152,0.504
		c0.936,1.008,1.872,2.016,2.88,3.024c-1.152,1.08-1.152,1.08-13.176,8.712C238.464,154.4401,235.584,156.3841,232.2,158.1841
		L232.2,158.1841z M288.144,152.4961c-7.488-7.632-9.648-10.296-11.808-12.456c-0.504-0.216-1.008-0.504-1.584-0.7921
		c-0.216-1.008-0.576-1.224-0.72-2.88c1.08-1.008,1.08-1.008,2.304-1.584c0.72,0,1.44,0,2.16,0c0.432-0.288,0.936-0.648,1.44-1.008
		c2.448-0.432,2.448-0.432,18.504-1.152c0.072,0.288,0.216,0.576,0.36,0.864c-1.296,2.736-2.592,5.544-3.888,8.352
		c-1.872,3.528-3.816,7.056-5.76,10.584C288.864,152.424,288.504,152.424,288.144,152.4961L288.144,152.4961z M255.024,130.8241
		c0.072-0.36,0.144-0.792,0.288-1.224c0.36,0,0.72-0.0721,1.152-0.144c0.144,0.216,0.288,0.432,0.432,0.648
		c-0.144,0.144-0.288,0.36-0.432,0.576C256.032,130.6801,255.528,130.7521,255.024,130.8241L255.024,130.8241z M263.376,129.9601
		c-0.72-0.504-1.44-1.008-2.16-1.584c0-0.432-0.072-0.864-0.144-1.368c0.936-0.432,1.872-0.864,2.808-1.368
		c2.376-0.216,2.88-0.504,21.816-2.16c0.432,0.072,0.936,0.216,1.44,0.36c-1.8,1.296-3.6,2.592-5.472,3.96
		c-0.792,0.36-1.584,0.7921-2.448,1.224C273.96,129.3121,268.704,129.6001,263.376,129.9601L263.376,129.9601z M289.296,128.6641
		c-0.072-0.216-0.144-0.432-0.216-0.72c-0.36,0.072-0.792,0.216-1.224,0.36c-0.144-0.288-0.288-0.576-0.432-0.864
		c2.376-0.864,2.376-0.864,5.04-2.304c2.592-1.8719,2.592-1.8719,4.752-2.88c2.664-0.432,2.664-0.432,4.104-0.936
		c0.504,0,1.008,0.072,1.512,0.144c0,1.44,0,2.88,0,4.32c-0.288,0.504-0.576,1.08-0.936,1.656
		C301.104,127.8,301.104,127.8,289.296,128.6641L289.296,128.6641z M329.616,128.304c-6.9839-0.36-14.0399-0.72-21.0959-1.08
		c0-0.288-0.072-0.576-0.144-0.936c1.224-2.232,2.52-4.464,3.816-6.768c8.568-1.296,10.224-1.8,16.992-2.52
		c0.864,2.52,1.8,5.04,2.736,7.56c0.216,1.08,0.432,2.232,0.72,3.384C331.344,128.304,331.344,128.304,329.616,128.304
		L329.616,128.304z M261.216,122.4001c0.576-1.224,1.152-2.52,1.8-3.816c1.08-1.512,2.16-3.096,3.24-4.68
		c3.168-0.504,3.168-0.504,4.32-1.008c2.16-0.144,4.32-0.288,6.4799-0.432c0.36-0.144,0.7921-0.288,1.224-0.504
		c3.888-0.216,7.776-0.432,11.736-0.72c3.888-0.72,7.92-0.936,12.24-1.656c0.36,3.024,0.36,3.024,0.36,6.12
		c-0.36,0.36-0.36,0.36-4.176,1.8c-1.512,0.288-3.024,0.576-4.536,0.936C283.032,119.7361,272.16,121.0321,261.216,122.4001
		L261.216,122.4001z M307.08,115.7041c-0.36-3.6-0.36-3.6-0.216-6.84c1.8-0.144,3.6-0.36,5.472-0.576
		c0,0.432-0.072,0.936-0.144,1.44c-1.224,1.872-2.52,3.816-3.816,5.76C307.944,115.5601,307.512,115.6321,307.08,115.7041
		L307.08,115.7041z M315.504,114.48c0.072-0.432,0.144-0.936,0.288-1.4399c1.224-1.944,2.448-3.888,3.744-5.9041
		c1.296-0.072,2.592-0.144,3.888-0.216c0.36,0.288,0.72,0.576,1.152,0.936c0.36-0.072,0.792-0.144,1.224-0.216
		c0.36,0.936,0.72,1.872,1.08,2.808c0,1.656,0,1.656-0.36,2.016c-1.656,0.432-2.664,0.432-3.096,0.72
		C319.824,113.6161,318.384,114.1201,315.504,114.48L315.504,114.48z M269.424,100.584c0-1.584-0.072-3.168-0.144-4.824
		c0.144-0.792,0.288-1.584,0.432-2.376c2.304-0.648,5.472-1.08,12.888-3.024c0.288-0.144,0.576-0.2881,0.936-0.504
		c6.48-0.936,9.864-1.872,14.688-2.376c0.576-0.144,1.224-0.288,1.872-0.504c0.792,0,1.584,0.072,2.448,0.144
		c0.072,6.48,0.072,6.48-0.144,8.208c-2.52,0.576-2.52,0.576-5.904,0.792c-1.08,0.432-2.16,0.936-3.312,1.44
		c-3.096,0.288-6.192,0.576-9.36,0.936c-2.664,1.008-2.664,1.008-3.888,1.224c-1.512,0-3.024,0-4.536,0
		C273.456,100.0081,271.44,100.2961,269.424,100.584L269.424,100.584z M306.576,94.6081c-0.144-3.384-0.144-3.384,0.144-8.64
		c0.648-0.288,1.296-0.576,2.016-0.864c4.104-0.504,4.104-0.504,12.96-0.864c0,1.8,0.072,3.672,0.144,5.544
		c-0.144,0.648-0.288,1.296-0.504,1.944C313.344,93.4561,313.344,93.4561,306.576,94.6081L306.576,94.6081z M271.08,88.7041
		c-0.432,0-0.936-0.0721-1.44-0.144c-0.648-5.472-0.648-5.472-0.864-13.392c0.0721-0.2881,0.216-0.576,0.36-0.864
		c0.792-0.288,1.584-0.648,2.448-1.008c5.616-0.504,11.304-1.08,16.992-1.656c9.36,0,9.36,0,13.464-0.36
		c0.072,11.088,0.072,11.088-0.216,11.376c-1.872,0.432-3.816,0.936-5.76,1.44c-1.368,0-2.736,0-4.104,0
		c-0.864,0.288-1.728,0.648-2.664,1.008c-3.096,0.432-3.096,0.432-5.256,0.432c-0.72,0.504-4.536,1.44-7.2,2.448
		C273.024,88.4161,272.304,88.7041,271.08,88.7041L271.08,88.7041z M306.576,81.2161c-0.072-0.432-0.216-0.864-0.36-1.296
		c0-2.88,0.0721-5.76,0.144-8.64c0.792,0.144,1.584,0.36,2.376,0.576c0.864-0.576,1.728-1.2241,2.664-1.872
		c0.216-0.432,0.432-0.864,0.72-1.368c0.432,0,0.936,0,1.44-0.072c0.72,0.432,1.44,0.936,2.16,1.44
		c0.72,0.072,1.44,0.144,2.16,0.216c0.72-0.288,1.44-0.576,2.16-0.936c0.216-0.432,0.504-0.864,0.792-1.296
		c0.288,0,0.576,0,0.864-0.072c-0.144,4.824,0.144,6.048,0,11.664c-0.72,0.144-1.44,0.288-2.16,0.504c-1.44,0-2.88,0-4.32,0
		c-1.44,0.2881-2.88,0.576-4.32,0.936c-0.864-0.0719-1.728-0.1439-2.592-0.2159C307.296,81.2161,307.296,81.2161,306.576,81.2161
		L306.576,81.2161z M271.08,68.9041c0-0.288,0-0.576,0.072-0.936c0.936-1.008,1.872-2.0881,2.88-3.168
		c1.944-1.2239,3.888-2.4479,5.904-3.744c3.096-1.2239,6.192-2.52,9.36-3.8159c2.304-0.432,4.608-0.936,6.9839-1.4401
		c1.7281-0.072,3.4561-0.144,5.256-0.2159c0,3.456,0.072,6.912,0.144,10.44c-0.36,0.3599-0.72,0.7199-1.08,1.08
		c-0.936,0.2159-5.976,0.2159-10.08,0.72c-2.304-0.072-4.608-0.144-6.984-0.288c-0.792,0.288-1.584,0.648-2.376,1.008
		C276.624,68.5441,276.624,68.5441,271.08,68.9041L271.08,68.9041z M306.576,66.816c-0.144-0.144-0.288-0.288-0.432-0.432
		c-0.144-1.44-0.288-2.952-0.432-4.4639c0.216-2.232,0.432-4.464,0.648-6.696c2.88-0.36,2.88-0.36,5.76-0.36
		c0.288,0.36,0.576,0.7201,0.936,1.1521c1.0081,0.72,2.088,1.44,3.168,2.1599c0.936,1.2241,0.936,1.2241,1.296,2.592
		c0.072,0.936,0.144,1.872,0.216,2.88c-0.288,0.576-0.576,1.224-0.936,1.872c-0.504,0-1.008,0.072-1.584,0.144
		c-1.224-1.08-2.52-2.2321-3.816-3.384c-0.288,0-0.576,0-0.936,0c-1.008,1.5839-1.008,1.5839-2.304,4.4639
		C307.656,66.744,307.152,66.744,306.576,66.816L306.576,66.816z"/>
</g>
</svg>
