<?xml version="1.0" encoding="utf-8"?>
<!-- Generator: Adobe Illustrator 21.1.0, SVG Export Plug-In . SVG Version: 6.00 Build 0)  -->
<svg version="1.1" id="Fe" xmlns="http://www.w3.org/2000/svg" xmlns:xlink="http://www.w3.org/1999/xlink" x="0px" y="0px"
	 viewBox="0 0 524.0571 251.636" enable-background="new 0 0 524.0571 251.636" xml:space="preserve">
<g>
	<path fill-rule="evenodd" clip-rule="evenodd" d="M382.3795,251.6349c-3.519-0.2872-7.0387-0.5746-10.5889-0.9369l-0.0195-0.0031
		c-5.54-1.0074-5.559-1.0111-9.1284-1.9389h-2.0928c-1.4207,0.4972-1.4519,0.502-4.5405,0.9329l-0.0754-0.0009
		c-0.4317-0.0717-0.9332-0.1437-1.4341-0.2151l-0.1111-0.0159l-0.0615-0.0924c-0.1313-0.197-0.2639-0.3954-0.4349-0.6276
		c-0.9045-0.1392-1.8119-0.2809-2.793-0.4909l-0.1122-0.0567c-0.6125-0.536-1.2027-1.0604-1.7909-1.5831
		c-1.1129,0.138-2.5569,0.5341-4.9839,1.1971c-1.7813,0.4867-4.0862,1.1168-7.113,1.8808l-0.0604,0.0079h-4.0944
		c-8.8396,1.006-8.8432,1.0066-12.9569,1.2228l-0.045-0.002l-0.3815-0.0505c-0.9726-0.1287-1.9956-0.2642-3.0161-0.4556
		l-0.0468-0.0136c-0.6993-0.2795-1.4-0.5604-2.1087-0.9102l-0.3124,0.0388c-1.0358,0.1281-2.122,0.2633-3.2032,0.4541
		l-0.0431,0.0039h-8.352l-0.0459-0.0051c-2.5032-0.4734-2.7487-0.521-2.9735-0.8606c-1.4817-0.0037-2.9554-0.0677-4.4884-0.1344
		l-0.2069-0.0091l-0.0323-0.0028c-5.2543-0.9355-5.2551-0.936-15.1004-1.87l-0.0711-0.0176
		c-0.5363-0.2208-1.512-0.4473-2.5731-0.6936c-1.2792-0.2968-2.6818-0.623-3.6419-1.0145c-2.2745,0.0712-4.5508,0.1432-6.8409,0.286
		l-0.7316,0.1165c-1.5579,0.248-3.1632,0.5034-4.7747,0.813c-0.7781,0.2829-1.5568,0.5672-2.3366,0.9215l-0.0635,0.0187
		c-1.2172,0.1936-2.1152,0.3906-2.9926,0.5828c-1.3767,0.3018-2.7068,0.5939-5.229,0.8592l-0.1497,0.0156l-0.0836-0.125
		c-0.1309-0.1965-0.2619-0.3943-0.3985-0.6551c-0.6038-0.2012-1.2087-0.4065-1.8173-0.6735h-2.2533
		c-0.1993,0.1327-0.4031,0.271-0.6458,0.4529l-0.0859,0.0644l-0.1046-0.0173c-4.3078-0.7177-4.3084-0.7183-7.8936-0.9332
		l-0.1239-0.0411c-0.1967-0.131-0.394-0.2636-0.6673-0.4663c-1.6438-0.0712-3.2887-0.1432-4.9637-0.2126l-0.0335-0.0028
		c-7.6819-1.3476-8.2567-1.4496-8.5181-1.7484c-1.3436-0.2826-2.6887-0.5675-4.0303-0.9204l-0.0916-0.0471
		c-0.729-0.5833-0.7676-0.6148-0.9737-1.0922l-2.037-1.0188c-2.2034-0.2202-2.2076-0.2234-2.6269-0.6426l-0.0734-0.0734V240.73
		c0-1.108,0.0008-1.2476,0.2531-1.9216c-11.789-0.3464-11.9324-0.354-12.8605-0.6392c-16.1252-0.9482-23.6143-1.271-29.0299-1.5049
		c-2.808-0.1208-5.0615-0.2186-7.6487-0.3648V236.3c-4.6035,0-4.6037-0.0003-29.1028-1.4411l-0.034-0.004
		c-0.716-0.1431-1.4318-0.2868-2.154-0.5017c-13.4048-0.8892-14.1372-0.9385-14.476-1.2399
		c-10.2297-1.8598-10.2529-1.8652-18.8719-3.8044l-0.0439-0.0145c-0.9261-0.4014-2.0801-0.8167-3.1266-1.1931
		c-1.3558-0.4875-2.5373-0.9139-2.8848-1.1979c-4.1964-1.8496-8.4555-3.7984-12.7134-5.747l-0.036-0.0195
		c-1.1676-0.788-2.069-1.3428-2.7865-1.7841c-1.0355-0.637-1.6951-1.0435-2.2626-1.603c-1.6517-0.8263-3.227-1.6444-4.8206-2.4721
		l0.0003-0.0003c-0.8473-0.4397-1.7005-0.883-2.5614-1.3258l-0.0323-0.0207c-5.3175-3.8803-5.3181-3.8809-10.0624-6.7561
		l-0.0584-0.0491c-0.4518-0.5164-1.5131-1.4142-2.6391-2.3669c-1.3156-1.1129-2.7207-2.3017-3.3976-3.0915
		c-3.5609-2.8488-3.5652-2.8514-5.2098-3.8526l-0.0448-0.0352c-1.8116-1.7799-3.0067-3.0132-3.8809-3.9155
		c-1.0993-1.1344-1.6897-1.7439-2.3598-2.2561l-0.038-0.0371c-2.1025-2.4713-4.3849-5.129-6.675-7.7958
		c-1.9219-2.2379-3.852-4.4852-5.781-6.747l-0.0127-0.0167c-0.9224-1.2773-1.8454-2.556-2.8619-3.9353l-2.1246-1.912
		c-2.1458-1.2166-4.2919-2.5047-6.4375-3.7916c-1.8785-0.6497-3.8058-1.2923-5.7319-1.9344l-0.0471-0.0204
		c-0.8603-0.5017-1.7215-1.0043-2.6572-1.508l-0.1315-0.0712L7.4611,163.69c0-0.2166-0.0468-0.442-0.1015-0.7058v-0.0009
		l-0.0366-0.1794l-0.0207-0.1029l0.057-0.0856c0.2798-0.4198,0.6466-0.9334,1.0128-1.446l0.0564-0.0575
		c0.8354-0.6075,1.6767-1.2385,2.5172-1.8689l0.1259-0.049c7.2298-0.7019,7.418-0.7209,10.4295-0.7881v-0.3419
		c-1.3388-0.8708-1.3901-0.9218-2.6263-2.3636c-0.4879-0.1443-1.046-0.3526-1.6024-0.5612l-0.123-0.0987l-1.9102-2.9716
		l-1.889-1.0494l-0.0811-0.0722c-0.9079-1.2572-0.9139-1.2657-2.2972-2.3032c-0.0839-0.0331-0.1792-0.0683-0.2764-0.1051
		c-0.2894-0.11-0.6075-0.2302-0.9357-0.3946l-0.08-0.0635l-2.1342-2.5608c-3.0456-1.912-3.0586-1.918-6.412-3.3449l-0.1103-0.0907
		c-0.2866-0.43-0.574-0.8609-0.9196-1.2756L0,140.684l0.0726-0.1454c0.036-0.072,0.0847-0.1766,0.1352-0.2857
		c0.1052-0.2276,0.222-0.4793,0.3776-0.7387l0.0734-0.1222h0.1404c0.7815,0,1.5639-0.0009,2.3244-0.068
		c5.5241-1.937,5.5378-1.9409,12.4401-3.882l0.0187-0.0048l10.8-2.16l0.0312-0.004c0.9907-0.0706,2.0713-0.1429,3.1518-0.2148
		c9.771-1.9397,9.7778-1.9409,21.5946-3.8143l0.0079-0.0009l15.336-1.944l0.0096-0.002
		c30.4296-2.6617,30.4444-2.6631,38.8774-3.0954c1.264-0.2299,2.5671-0.5162,3.909-0.8102l0.8864-0.1936l0.0303-0.004
		c4.856-0.4507,8.0728-0.684,10.5112-0.8603c2.6543-0.1922,4.3906-0.3177,6.2529-0.5786l0.0176-0.002
		c6.9429-0.4672,13.907-0.9984,20.9288-1.5336l1.6055-0.1224h0.0116c11.7955-0.3595,23.6812-0.792,35.566-1.224h0.0136
		l0.2115,0.0045c3.2494,0.0706,6.5667,0.1429,9.8734,0.2834l0.0323,0.0028c5.4678,0.9351,5.4683,0.9355,10.2796,1.438l0.1239,0.0131
		l0.0643,0.1071c0.1831,0.3053,0.3671,0.6114,0.6049,0.9754c4.0824-1.5647,4.089-1.5724,4.5487-2.0322l0.0966-0.0595
		c18.1168-6.1583,18.2072-6.1889,20.3193-7.1744c0.5241-0.4496,1.0766-0.9337,1.6288-1.4168l0.0819-0.0479
		c1.1914-0.4144,2.3942-0.8708,3.6233-1.3368c0.4164-0.1582,0.8586-0.3257,1.412-0.5332l0.0368-0.0108
		c2.0837-0.4309,4.1701-0.9349,6.2552-1.438l0.0383-0.0068c2.2569-0.1902,3.9991-0.3793,5.7056-0.5644
		c2.8414-0.3079,5.5868-0.6055,10.3572-0.8756h0.0156l21.3217,0.2154c0.0966-0.0538,0.2274-0.1386,0.3671-0.2313
		c-0.0658-0.4725-0.1281-0.9663-0.1899-1.4601c-1.9119-3.5408-1.9323-3.5828-2.8485-6.1898
		c-0.7191-0.5788-1.4173-1.2082-2.1152-1.836l-0.083-0.0746V96.514c0-0.326,0.0544-0.6446,0.1168-1.0092l0.0312-0.184l0.0289-0.1723
		l0.1732-0.0314c2.3955-0.4355,2.4043-0.4372,5.0567-0.4372c0.7724-0.2106,1.546-0.4232,2.3181-0.7041l0.0851-0.0159
		c6.3414,0,12.5059,0.093,17.7202,0.1709c6.0352,0.0907,10.7898,0.1622,13.2281,0.0462h0.0156l12.9302,0.2155
		c2.1512-0.4303,2.1762-0.4318,8.8711-0.7195l0.0108-0.0011c7.4344,0,10.8941,0.1213,15.0126,0.2656
		c2.2249,0.078,4.6443,0.163,7.988,0.2387c1.3759-0.481,2.7371-0.8459,3.8936-1.1554c1.0846-0.29,1.9888-0.5323,2.5263-0.7674
		l0.0508-0.0155c2.7569-0.5599,4.2812-0.9681,7.1067-1.724c1.8467-0.4944,4.2534-1.1384,7.9628-2.0801
		c0.4816-0.2908,2.2462-0.7926,4.18-1.3422c1.8402-0.523,3.8378-1.091,4.9725-1.5381l0.0351-0.0105
		c9.5352-2.2003,10.1784-2.3485,10.4729-2.6098l1.9346-19.1316l0.0031-0.0235c1.2144-6.1438,2.5157-12.4333,3.8168-18.722
		l0.0029-0.0145c1.9437-7.1994,1.944-7.2,8.6431-28.5219l0.0128-0.0312c1.7515-3.7272,2.715-5.9946,3.2938-7.3586
		c0.5516-1.2988,0.7662-1.8034,1.0205-2.0152l0.159-0.0587h0.936h0.1786l0.0576,0.1721c0.0598,0.1794,0.1961,0.3839,0.3316,0.5873
		l0.0391,0.173l-0.0266,0.1894c-0.0649,0.4631-0.1375,0.9771-0.2662,1.4927l-0.0331,0.0754
		c-0.4615,0.7098-0.9329,1.8026-1.5341,3.197c-0.5887,1.3646-1.3017,3.0166-2.2589,4.8977
		c-1.6909,5.33-3.0206,9.7319-4.0164,13.0294h-0.0003c-1.2067,3.9966-1.927,6.38-2.2462,6.9174
		c-0.4201,1.8388-0.7534,3.0407-1.1237,4.377c-0.4501,1.6243-0.9564,3.4503-1.7427,6.869
		c-0.1457,1.2396-0.2883,2.5223-0.4306,3.8041l-0.0107,0.0499c-0.5681,1.7444-0.9513,3.3446-1.2674,4.6653
		c-0.2449,1.0225-0.451,1.8816-0.6704,2.5155c-0.4901,3.5011-0.4975,3.5589-0.4975,5.815l0.4305,0.4306l0.0715,0.1494l0.216,1.944
		l-0.0403,0.1658c-0.1341,0.201-0.2693,0.4037-0.3966,0.6514c-0.5593,4.547-1.1205,9.0958-1.7584,13.7925
		c4.5213,0.0028,9.2101,0.0717,13.9006,0.1418c0.2114-1.3728,0.487-2.8162,0.7617-4.2582l0.0215-0.1137l0.0995-0.057
		c0.5017-0.2866,1.0043-0.574,1.5965-0.87l0.1114-0.0275h2.448l0.1182,0.0303c0.902,0.4856,0.9073,0.4887,3.0033,0.9777h2.8545
		l0.1083,0.0255c1.9689,0.9479,1.9695,0.9485,3.1447,1.9032l0.042,0.0439c0.0998,0.1332,0.1848,0.258,0.2744,0.3895
		c0.1145,0.1681,0.2361,0.3484,0.3654,0.5179h0.7254l1.2305-2.8715l0.0751-0.0987c0.9797-0.7696,1.9601-1.5401,3.0175-2.3182
		c0.2843-2.0622,0.5706-4.1252,0.9227-6.1676l0.0695-0.1346c0.1261-0.1261,0.2639-0.3325,0.4008-0.538l0.0573-0.0859l0.1017-0.0204
		c0.3564-0.0712,0.7132-0.1429,1.1228-0.2792l0.1797-0.0598l0.1052,0.1573c0.1567,0.235,0.343,0.4796,0.5383,0.7362
		c0.1491,0.1961,0.3047,0.4005,0.4658,0.6259l0.0867,0.1216l-0.0672,0.1344c-0.1344,0.2687-0.2696,0.5388-0.4048,0.8711
		c0,2.4114-0.0028,2.4361-0.4337,6.2447l-0.0343,0.1006c-0.4226,0.7041-0.9128,1.4071-1.4037,2.1087
		c0.0003,1.0738,0.0068,1.1466,0.311,2.3655c1.8226,0.2704,1.8507,0.2849,2.7972,0.7943l0.1112,0.1221
		c0.14,0.3269,0.3101,0.652,0.4895,0.9961c0.0975,0.1863,0.1978,0.3788,0.2957,0.574l0.0275,0.1114
		c0,1.6073,0.0661,3.1839,0.1341,4.8232l0.0037,0.0851c0.3878,0.2693,0.6222,0.3333,3.7106,1.1877l0.1134,0.0674
		c1.6387,1.7014,1.8065,1.8769,2.2989,2.0373c0.2458-0.436,0.3373-0.972,1.1633-5.8658l0.0099-0.0368
		c0.2892-0.8677,0.6409-1.7155,0.9941-2.5626c0-1.908,0.0125-1.9859,1.444-11.0775l0.006-0.0284
		c0.3917-1.4111,0.8538-4.1035,1.2725-6.5458c0.3405-1.9871,0.6537-3.8104,0.8818-4.6675l0.4297-3.8676l0.0059-0.0332
		c3.8863-15.3298,3.8866-15.3303,4.316-17.9787l0.008-0.0352c1.9437-6.1909,1.9463-6.1991,3.8877-11.0168
		c0.8-3.2,1.6004-6.4012,2.3723-9.5596l0.0068-0.0244c1.1447-3.2196,2.3652-6.5222,3.5853-9.824V9.0306
		c-0.3158-0.1987-0.3648-0.3206-0.8444-1.4859l-0.0184-0.0907c-0.0519-3.2803,0.0462-4.3503,0.1587-5.5829
		c0.0431-0.4702,0.089-0.9663,0.1292-1.6359L470.2204,0h0.2347h1.44h0.4031l-0.1805,0.3614
		c-0.1397,0.2795-0.1605,0.3217-0.0581,0.5745h0.7715h0.2713L473.08,1.2064c-0.1372,1.6488-0.1409,1.6931,0.2515,3.6567
		c0.3106,0.0634,0.6318,0.1343,1.0176,0.2627l0.172,0.0576V5.362c0,0.5666,0.0711,1.2059,0.142,1.8448l-0.0176,0.1238
		c-0.9295,2.2167-1.8598,4.4346-2.872,6.6773c-0.502,2.3672-0.5077,2.3822-1.9483,6.2719l-0.0575,0.0907
		c-0.1315,0.1316-0.2644,0.2642-0.4496,0.3989c-0.1437,1.0123-0.28,2.0347-0.4161,3.0569l-0.0216,0.0731
		c-0.4547,0.9745-0.7965,1.9675-1.1276,2.931c-0.3889,1.131-0.7651,2.2249-1.3107,3.2454
		c-0.2866,1.2897-0.5746,2.5806-0.9309,3.8645l-0.0176,0.045c-0.0788,0.1576-0.18,0.3686-0.2809,0.578l-0.0003-0.0003
		c-0.197,0.4102-0.405,0.8425-0.6426,1.2728c-0.5136,2.3094-1.085,4.659-1.7379,7.3451c-1.1925,4.9048-2.6578,10.9315-4.513,19.7427
		c-0.1222,1.9026-0.3353,3.1932-0.5873,4.7236c-0.1956,1.1866-0.4156,2.5206-0.6364,4.415l-0.0187,0.0692
		c-0.0638,0.1491-0.1259,0.2996-0.1896,0.4544c-0.1522,0.3705-0.3158,0.7654-0.5148,1.169
		c-0.4277,4.9933-0.4312,5.0139-1.4389,11.4931l-0.0048,0.0244c-0.9323,3.5864-0.9334,3.5901-2.5832,13.8481v4.4904l0.3586,0.3586
		l0.0779,0.0783l-0.0057,0.1111c-0.2162,4.1133-0.2165,4.1139-0.938,9.3804l-0.0703,0.1435l-0.4525,0.4524
		c-0.858,3.9603-0.911,4.2094-0.9141,4.9734c0.3376,0.1324,0.9799,0.2571,1.7776,0.4118c0.993,0.1927,2.2212,0.432,3.4446,0.8025
		l0.1043,0.0626c0.6806,0.6806,0.6809,0.6809,2.0654,1.1653l0.0946,0.0587c1.5188,1.5188,3.0382,3.0381,4.6032,4.532l0.0783,0.0749
		v0.1057c0,0.5714,0.0002,1.2149,0.0699,1.8448l0.0176,0.1584l-0.1378,0.0825c-0.3946,0.2367-2.0974,0.5607-4.1309,0.9476
		c-2.035,0.3872-4.4076,0.8393-6.0698,1.3076c-0.633,0.2812-1.2665,0.5638-1.902,0.9167l-0.0663,0.0253l-2.2876,0.5204
		c-3.3534,0.7622-6.7467,1.5335-10.1466,2.3542c-2.7519,1.1602-5.0363,1.9602-6.952,2.6309
		c-1.2376,0.4334-2.3221,0.8124-3.2737,1.1987l-0.1457,0.7288c0.6539,0.2086,1.3093,0.4712,1.9635,0.7328l0.0763,0.0479
		c1.256,1.1543,2.0203,1.9287,2.7023,2.6195c0.7571,0.7671,1.4128,1.4318,2.5478,2.4154l0.0216,0.0207
		c0.7166,0.7883,1.4337,1.5772,2.1667,2.4568l0.0312,0.0476c0.2211,0.4425,0.4833,0.9068,0.7552,1.3895l-0.0009,0.0006
		c0.1352,0.2395,0.2715,0.4813,0.3983,0.7118c0.1469,0.0167,0.2937,0.0558,0.4609,0.0997v0.0003l0.0587,0.0153
		c0.6676-0.4663,0.7089-0.4756,1.6498-0.6928l0.0555-0.0071h4.104l0.0723,0.0119c1.624,0.4941,1.6268,0.4952,4.9706,0.7084
		l0.3943-0.0213c2.5169-0.1357,5.0953-0.2749,7.6986-0.4802c1.8247-0.4564,3.6119-0.9474,5.4329-1.4468l1.5258-0.4181l0.0655-0.0099
		h3.5663l2.1456-0.618c2.5616-0.7361,5.1573-1.4825,7.6799-2.2501l0.0363-0.0088c1.925-0.2852,3.947-0.6463,5.968-1.0071
		l0.0596-0.0028c4.2216,0.2679,8.4229,0.5967,12.6811,0.9297l0.9618,0.0752c3.7278-0.9777,6.2707-1.7059,8.3993-2.3153
		c2.0518-0.5873,3.7185-1.0647,5.7467-1.5628l0.0643-0.0068c3.6046,0.072,7.21,0.1443,10.8048,0.288l0.0507,0.0068
		c0.3022,0.0754,0.6719,0.2234,1.0403,0.3708l0.1574,0.0629v0.1684c0,0.3716-0.0003,0.7436-0.0771,1.1288l-0.0388,0.1939
		l-0.1993,0.0063c-4.739,0.1434-9.5505,0.2874-14.3608,0.4308c-2.8517,0.9978-2.8877,1.0074-11.2885,3.1615l-0.079,0.0077
		c-9.7659-0.718-9.777-0.7189-15.0858-0.7189l-0.7288,0.1117c-1.6387,0.2506-3.3251,0.5088-4.9766,0.8141
		c-2.2909,0.9026-2.2921,0.9037-2.4644,1.1336l-0.1434,0.0936l-2.28,0.5281c-3.2899,0.7611-6.6183,1.5313-9.9561,2.351
		l-0.0372,0.006c-4.5916,0.4303-4.5924,0.4306-7.1757,0.9329l-0.0983-0.0009c-0.9788-0.2095-0.9808-0.21-11.7195-0.21
		c-0.1055,0.0408-0.2231,0.106-0.3549,0.178l0.0003,0.0005c-0.0598,0.0329-0.1242,0.0675-0.1993,0.1066
		c-0.0357,0.1077-0.0715,0.2185-0.1077,0.3447c10.3076,1.7529,10.349,1.7572,14.8323,2.1841l0.1151,0.0403
		c0.1996,0.1329,0.3991,0.2659,0.6789,0.4739c2.0055,0.3047,4.0042,0.6594,6.0446,1.0208l1.0885,0.1928l8.4765,0.212
		c0.1185-0.1769,0.2486-0.3645,0.4379-0.6171l0.1551-0.0956c7.878-1.4323,7.8786-1.4326,8.7816-1.9188l0.1223-0.0292
		c4.3957,0.0721,8.7922,0.1443,13.18,0.288l0.0543,0.0076c1.2892,0.3362,2.568,0.713,3.879,1.099l1.1321,0.3322h3.3026
		c1.2073-0.4969,1.2988-0.5088,8.4396-1.4369l0.0322-0.0031c1.2921,0,2.606,0.0658,3.9819,0.1349l0.2058,0.0102l0.2384,0.0116
		v0.2372v0.936v0.1378l-0.1182,0.074c-0.6239,0.3901-0.6259,0.3906-10.3091,1.33c-0.9164,0.282-1.8351,0.5655-2.8428,0.9255
		l-0.1075,0.0127l-4.5359-0.432l-0.0468-0.0088c-1.1979-0.352-2.4928-0.7838-3.7874-1.2152l-10.5298-0.2148
		c-3.227,0.4116-3.3372,0.426-4.6194,0.8739l-0.1295,0.6485c8.1456,0.1392,8.1615,0.1426,9.3184,0.3594l0.1562,0.0984
		c0.2154,0.2962,0.4648,0.652,0.7191,1.0148c0.3455,0.493,0.7021,1.0015,1.0778,1.5024l0.0343,0.0627
		c0.4274,1.1398,0.9326,2.3663,1.4371,3.592l0.0157,0.0536c0.2162,1.2989,0.4331,2.5983,0.7169,3.8755l0.0247,0.1111l-0.0686,0.0919
		c-0.4564,0.6086-0.9294,1.2166-1.402,1.8241c-0.5267,3.6371-1.0781,6.6036-1.535,9.0632
		c-0.3475,1.8714-0.6412,3.4492-0.8279,4.8126c0.0005,0.5803,0.0589,1.1574,0.1221,1.7859
		c1.5123,0.2061,3.0262,0.4161,4.5494,0.6925c7.0574,0.275,10.0808,0.2871,12.5555,0.2968
		c1.4136,0.0057,2.6507,0.0108,4.3458,0.0627l0.2432,0.0074v0.2415v0.936v0.1531l-0.1387,0.0695
		c-0.1233,0.0615-0.3364,0.2038-0.5487,0.3452l-0.1327,0.0411l-8.4241,0.216h-0.0186c-8.3483-0.4317-8.3682-0.4329-11.7371-0.9346
		c-1.1906,0.0697-2.48,0.142-3.7695,0.2134c-3.066,0.6418-6.133,1.2841-9.326,1.937l-2.1784,0.6273
		c-2.5524,0.7336-5.1387,1.4771-7.6524,2.2416c-1.4927,0.7932-2.9639,1.6047-4.4544,2.4262
		c-0.7685,0.4238-1.5483,0.8532-2.4761,1.3592c-0.1349,0.1364-0.256,0.273-0.3835,0.4153
		c-0.1684,0.1882-0.3475,0.3886-0.5292,0.5703l-0.074,0.0508c-5.2625,2.3788-5.2631,2.3792-12.0447,4.7599l-0.0819,0.0147h-4.743
		c-9.1108,1.0043-9.1241,1.006-14.641,1.9375c-1.0026,0.2863-2.0064,0.5734-3.0464,0.9189
		c-0.7059,0.4249-1.4148,0.9219-2.1232,1.4176l-0.0703,0.034c-1.6758,0.51-1.6764,0.5103-6.0072,1.2319l-0.0411,0.004
		c-0.9077,0-1.6322-0.0233-2.3757-0.0474c-1.5023-0.0482-3.0852-0.0989-6.9477,0.0451c-1.7743,0.462-4.0678,1.1676-6.0202,1.8232
		c-1.986,0.6664-3.61,1.2764-3.9538,1.5171l-0.0891,0.0388l-1.9006,0.4224c-0.983,0.6319-1.9675,1.2645-3.0296,1.9026
		c-0.8501,0.9918-1.7014,1.9857-2.6388,3.067l-0.0757,0.0871h-0.1128h-2.16l-0.085-0.0159
		c-0.7844-0.2852-1.5704-0.5714-2.3528-0.9246c-6.2036-0.4992-6.224-0.4995-13.1745-0.4995
		c-3.5431,0.496-3.5461,0.4974-4.6641,0.9865l-0.0392,0.0136c-7.469,1.8672-7.4695,1.8675-8.6009,2.3624l-0.0663,0.0184
		c-17.5425,2.3723-17.5431,2.3729-18.9592,2.8684l-0.0731,0.0136c-3.7936,0.1429-7.5881,0.2866-11.4702,0.5015
		c-0.3878,0.1709-1.0046,0.3478-1.7268,0.5541c-1.1503,0.3286-2.5758,0.7359-3.6924,1.294l-0.0334,0.0136
		c-5.3223,1.7739-10.8326,3.6593-16.342,5.544l-0.036,0.0088l-10.8,1.944l-0.0439,0.0051c-2.2204,0-3.7837,0.1267-5.779,0.2883
		c-1.686,0.1363-3.681,0.2979-6.6662,0.4306h-0.0196c-2.0018-0.0715-4.0054-0.1437-5.9899-0.2838
		c-0.6888,0.3484-1.3853,0.7671-2.0815,1.1846l-0.1075,0.0352c-5.1381,0.434-10.2265,0.9359-15.3136,1.4374
		c-4.2231,0.915-4.2902,0.9295-5.4357,1.4009c-0.4377,0.5097-0.4737,0.523-1.724,0.9641l-0.087,0.0136l-12.7128-0.2155
		c-3.9918,0.9267-4.0074,0.9318-10.031,2.8678l-0.0595,0.0116c-3.0591,0.2132-3.1068,0.216-8.6199-0.0592
		c0.004,0.1596,0.0141,0.3243,0.0431,0.506l0.3195,0.1539c0.3226,0.1533,0.669,0.3177,1.0196,0.5179l0.1142,0.1403l0.1057,0.3262
		c0.0966,0.3027,0.2024,0.6293,0.3342,0.9556c2.1798,0.2109,4.3603,0.4246,6.554,0.7075l0.1641,0.0209l0.0448,0.1577l0.3983,1.3941
		c0.3104,0.1244,0.6278,0.2554,1.0015,0.4396l8.1462-0.2143l0.1077-0.0028l0.0748,0.0751c0.6735,0.6735,0.6837,0.6832,1.7385,1.0786
		h6.2209l0.0567,0.0071c0.8745,0.2038,1.5208,0.4105,2.1062,0.5972c0.8289,0.2645,1.5349,0.4899,2.6487,0.6168
		c6.128-1.425,6.1347-1.4278,8.5638-2.3564l0.0564-0.0136c3.7896-0.5003,3.7902-0.5009,5.2064-0.9963l0.074-0.0136l6.696-0.216
		l0.1007,0.0176c0.7086,0.2832,1.4176,0.5672,2.1359,0.9235c1.2847,0.1429,2.5707,0.2869,3.8605,0.5017l0.0703,0.0236
		c0.2803,0.14,0.5612,0.2806,0.9048,0.4842c9.0735,0.9286,9.1148,0.9334,10.9778,1.4349l8.3948,0.4306l0.0576,0.0096
		c1.1968,0.3518,2.4897,0.7826,3.7828,1.2135l9.961-0.2135c0.7251-0.5068,0.754-0.5068,1.8099-0.5068l0.1446,0.0471
		c0.4771,0.3408,1.038,0.7606,1.6013,1.1832c1.8607,0.1429,3.7587,0.2843,5.6562,0.4247c4.0706-0.7141,4.1015-0.7175,14.576-1.6501
		c0.6154-0.2121,1.4729-0.411,2.7694-0.7115c1.808-0.4187,4.4771-1.0375,8.5221-2.1634l0.1514,0.006
		c0.7982,0.2903,1.5973,0.5811,2.3936,0.9428l0.074,0.0508l0.9422,0.9423c0.8972,0.0689,1.7975,0.1386,2.7451,0.2063l0.2953-0.0825
		c0.4122-0.114,0.8592-0.2381,1.298-0.4028l0.076-0.0156c4.8444-0.2169,4.845-0.2169,6.523,0.002l0.0527,0.0128
		c0.7951,0.2888,1.5801,0.6449,2.3647,1.0015c6.4037,1.0562,6.9894,1.1528,7.2502,1.4377l0.5034,0.0275
		c3.7533,0.2041,7.5682,0.4127,11.3573,0.6826c4.7537-1.9156,4.7687-1.9236,8.3452-3.8548l0.0567-0.0215
		c2.2244-0.574,4.4569-1.2223,6.6884-1.87l0.0301-0.0068c2.668-0.4325,5.3997-0.936,8.1303-1.4388l0.0448-0.004h5.544l0.0655,0.0088
		c1.2218,0.333,2.4325,0.7055,3.6743,1.0873v0.0003l1.1257,0.345c2.7266,0.1434,5.5256,0.2874,8.3234,0.4305l0.0408,0.006
		c0.6304,0.14,1.2614,0.28,1.8978,0.4873c3.5408-0.9204,3.5714-0.9255,8.0895-1.6424l0.1669,0.0323
		c0.5765,0.3458,0.5771,0.3458,0.7307,0.2307l0.1494-0.0511c1.6143,0,1.6282-0.0005,5.1092-0.9053
		c0.2191-0.2835,0.3359-0.3195,1.8853-0.707l0.1794-0.718l0.0334-0.1341l0.1324-0.0428c1.5647-0.5074,3.2709-0.866,4.752-1.1767
		c1.0525-0.2211,1.9922-0.4186,2.668-0.6241l0.0487-0.01c1.5095-0.1437,3.0198-0.2877,4.5984-0.5028l0.038-0.002
		c3.1737,0.072,6.3482,0.1442,9.582,0.288l0.0263,0.002l0.7492,0.1148c1.6302,0.2494,3.3074,0.5065,5.0184,0.8232l0.0227,0.0048
		c2.3207,0.6525,4.6417,1.3056,6.9378,1.9318c2.2734-0.2132,4.5476-0.4269,6.8604-0.7158h0.0607
		c0.5127,0.0641,1.023,0.1834,1.533,0.3095c0.0453-0.1411,0.0918-0.2936,0.1385-0.4819l0.0752-0.3013l0.2783,0.1392l0.2815,0.1406
		c0.3067-0.239,0.8042-0.4794,1.3417-0.7401c0.6038-0.2928,1.2634-0.6132,1.7133-0.9592l0.1091-0.0488l0.5513-0.0966
		c1.0426-0.1826,2.1285-0.373,3.181-0.6046c1.1945-1.1945,1.2183-1.2073,2.8848-2.1492l0.1218-0.0334h1.2241h0.1403l0.0734,0.1222
		c0.2925,0.4875,0.2925,0.4882,0,0.9757l-0.0536,0.0893l-0.0998,0.025c-0.2648,0.0661-0.5312,0.1324-0.8467,0.1979
		c-0.1234,0.1845-0.2557,0.3798-0.4547,0.6454l-0.0876,0.0731c-1.5851,0.7926-3.1711,1.5857-4.8204,2.446l-0.071,0.0244
		c-2.3485,0.4269-2.3491,0.4272-6.8672,2.1484l-0.0683,0.0156l-0.597,0.051c-2.3329,0.1995-4.723,0.4042-7.1002,0.6681
		l-0.0703-0.002c-2.8805-0.504-2.8916-0.5063-7.1897-1.9389c-1.1915,0.0697-2.4807,0.1423-3.7695,0.2137l-0.1063-0.0176
		c-0.7084-0.2832-1.4182-0.5678-2.1362-0.9241l-0.3455-0.0431c-1.0327-0.1278-2.1169-0.2631-3.2049-0.4541h-6.2319
		c-2.5946,0.3711-5.1838,0.794-7.8168,1.224l-1.2113,0.1975c-0.4184,0.4817-0.6171,0.5667-5.0721,2.4457l-0.0535,0.0167
		l-0.5513,0.0967c-1.0664,0.1868-2.179,0.3813-3.2542,0.6202l-0.0536,0.0071h-3.0656l-0.6503,0.1718
		c-0.8737,0.2296-1.7836,0.4692-2.6898,0.7523l-0.0771,0.0108l-13.896-0.216l-0.0839-0.0156
		c-1.148-0.4303-2.3539-0.9269-3.5592-1.4232c-2.2799,0.0708-4.5609,0.1434-6.9114,0.2143l-0.7435,0.1097
		c-1.6962,0.25-3.4404,0.5074-5.2032,0.8218l-6.4457,1.9337c-5.9834,2.8494-5.9845,2.8503-6.3808,3.3126l-0.1366,0.0819
		c-4.3473,0.9417-4.3478,0.942-5.8127,0.942L382.3795,251.6349L382.3795,251.6349z M500.7344,236.4426
		c-0.4543-0.4544-0.4543-0.4549-0.2842-1.3053l0.0828-0.1406c0.5043-0.4323,1.0871-0.8694,1.6688-1.3057l0.1171-0.0479
		l0.3815-0.0504c0.9624-0.1273,1.9749-0.2617,2.9889-0.4516l0.0644-0.004c1.3036,0.0975,2.26,0.1071,3.704,0.1213
		c1.7691,0.017,4.2656,0.0417,8.9591,0.2386l0.2404,0.0099v0.239c0,0.2648,0.0698,0.6123,0.1389,0.9592l0.0261,0.1307
		l-0.0944,0.0947c-0.1525,0.1525-0.3059,0.3058-0.542,0.4631l-0.1327,0.0411c-5.6044,0.1435-5.6443,0.1443-7.2859-0.1412
		c-3.2527,0.3617-6.5384,0.7906-9.8237,1.2192l-0.1227,0.0159L500.7344,236.4426L500.7344,236.4426z M194.7013,226.9301
		c5.1749,0.2767,12.3077,0.6582,24.9778,1.1667v-0.0009c0.8742,0,0.8745-0.0002,1.7538-0.4737l0.1143-0.0292l23.0261-0.4317
		c2.4466-0.316,4.8592-0.4345,9.3858-0.6556c2.6875-0.1316,6.1239-0.2996,10.7784-0.5686h0.0224
		c3.5955,0.1349,7.4753,0.0164,11.0026-0.091c2.1292-0.0646,4.1321-0.1259,5.825-0.1261c8.6184-1.0052,8.6332-1.0069,22.7279-1.9415
		c1.5299-0.3056,3.0796-0.5627,4.5828-0.8116l0.6145-0.102c-0.3064-0.1001-0.6035-0.1911-0.8648-0.2449
		c-5.9474,0.2148-5.9652,0.2148-9.7637,0c-9.4992,0.7191-18.9275,1.4394-28.3547,2.1588h-0.028
		c-3.3889-0.1408-6.7683-0.2132-10.0797-0.2834l-0.2038-0.0043c-8.2755,0.2804-16.5623,0.493-24.7811,0.7036l-0.6318,0.0162h-0.0068
		l-43.488-0.216l-0.0646-0.0088c-0.7744-0.2112-1.5534-0.3538-2.3315-0.4955l-10.9998-0.2158l-0.0207-0.0008
		c-4.1119-0.4328-8.225-0.8663-12.2281-1.2234l-10.364-0.4317l-0.0227-0.002c-3.8339-0.5063-3.835-0.5065-12.6879-2.4496
		c-4.3305-0.6494-8.6615-1.2994-12.9441-1.8703l-0.034-0.0068c-1.2897-0.358-2.5804-0.7171-3.8577-1.0015
		c-1.0775-0.1502-1.9644-0.3115-3.2247-0.5406c-2.3156-0.4204-5.908-1.0735-14.4873-2.3391l-0.0147-0.0028
		c-7.5762-1.6025-14.9488-3.1777-22.3209-4.752l-0.0351-0.0108c-1.7668-0.6624-3.4007-1.3019-5.0332-1.9406
		c-1.7844-0.4304-3.2527-0.8759-5.4788-1.5517c-2.6198-0.7951-6.2949-1.9103-12.7806-3.697
		c-2.5041-0.4059-5.0085-0.8127-7.3687-1.2044c0.1378,0.2421,0.2619,0.4859,0.3838,0.7291l1.5945,0.1993l0.0507,0.0128
		c3.7259,1.2898,7.4526,2.5798,11.228,3.814l0.0284,0.0119c1.1897,0.555,2.2513,0.9357,3.5725,1.4091
		c1.0661,0.3821,2.3003,0.8246,3.8843,1.4576c1.4298,0.3575,2.8607,0.7152,4.2945,1.0018l0.0791,0.0312
		c0.3334,0.2001,2.2306,0.6769,4.0337,1.1299c1.571,0.3946,3.0744,0.7722,3.5368,1.0029
		c7.2842,1.5582,11.5359,2.4001,14.5874,3.0039c2.5744,0.5094,4.2962,0.8506,6.2773,1.3127
		c2.6357,0.4283,4.3625,0.7654,6.9931,1.2785v0.0002c3.1232,0.6089,7.5274,1.4681,16.3239,3.0388
		c15.8083,1.8677,15.8227,1.8703,28.0542,3.8129h4.3058l0.0244,0.002l19.4346,1.9435
		C187.4157,226.5403,190.3734,226.6985,194.7013,226.9301L194.7013,226.9301z M311.5712,222.7033
		c0.2503,0.0559,0.4918,0.104,0.7163,0.1367c2.3995,0,2.4044-0.0012,4.2392-0.4952l0.0644-0.0088h3.132
		c1.3737-0.4121,2.6912-0.8289,4.0059-1.2436l0.0094-0.0363v-0.0011c0.0241-0.0922,0.0462-0.1769,0.0627-0.2557
		c-1.671-0.1225-1.8119-0.1128-4.7288,0.0904C314.7106,221.8011,314.314,221.8835,311.5712,222.7033L311.5712,222.7033z
		 M190.6089,222.12c6.7473,0,6.7592,0.0006,11.0809,0.4326c3.4889-0.1082,7.8415-0.1086,12.3191-0.1086
		c4.5176,0,9.1621-0.0002,13.0802-0.1068h0.0147c3.1578,0.1182,12.7602-0.045,22.8385-0.2166
		c8.3126-0.1412,16.9486-0.2883,22.5045-0.2886c4.9289-0.5332,10.0829-0.9261,14.2713-1.2455
		c3.1547-0.2401,5.7617-0.4391,7.3077-0.6245l0.0292-0.002h11.4919c0.5921-0.1318,1.8782-0.2027,3.3131-0.2817
		c1.6772-0.0924,3.562-0.1973,4.729-0.4196l0.4493-0.4493l0.1406-0.0703c1.7509-0.2591,3.4951-0.4601,5.1866-0.6542l0.5811-0.0669
		l0.0128-0.0009c5.6673-0.3586,11.361-0.6471,17.054-0.9354l0.9681-0.11c2.8205-0.3212,5.5896-0.637,8.3951-0.8977l0.0108-0.0009
		c4.8951-0.2446,7.3253-0.4448,8.8622-0.5709c1.1702-0.0961,1.8258-0.1503,2.6694-0.1503l0.1494,0.0511
		c0.2398,0.18,0.4408,0.316,0.6378,0.4473c2.7516-0.2061,2.7646-0.2115,3.8653-0.6928l0.0527-0.0165
		c1.9018-0.3691,3.2343-0.6687,4.3869-0.9275c1.7969-0.4036,3.1637-0.7112,5.4915-1.0185l0.0323-0.0031
		c6.969,0,7.0123,0,8.1743,0.2903c2.7626,0.1304,4.462,0.3892,5.891,0.6063c0.9178,0.1392,1.7249,0.2617,2.6186,0.3212
		c1.1971-1.1271,2.3944-2.2527,3.5212-3.3091l0.0879-0.0539c1.1838-0.4178,1.1843-0.4181,2.3729-1.3969l0.0762-0.0431
		c2.8965-1.0137,5.7711-1.9482,8.6448-2.882l0.0204-0.0056c2.1656-0.5051,4.3322-1.0109,6.4879-1.442l0.0488-0.0051
		c3.3072,0,3.3279,0.0003,6.6719,0.498c1.4125-0.4938,1.4468-0.498,3.0798-0.498c4.0434-1.4187,4.0504-1.4224,5.6783-2.3426
		l0.0595-0.0246c3.6105-0.9386,3.6111-0.9391,9.8873-1.9488l0.0224-0.0028c3.5864-0.239,5.4062-0.434,6.9273-0.597
		c1.2206-0.1304,2.2502-0.2415,3.8478-0.3376c2.6954-0.7801,5.3915-1.5607,8.0784-2.3593c0.9201-0.5417,1.8403-1.0829,2.7173-1.5865
		c-2.8395,0.064-5.6211,0.1227-8.3452,0.1233c-1.6427,0.4995-1.7379,0.5114-13.6837,1.942l-0.0176,0.0009
		c-3.3506,0.1596-5.574,0.3004-7.3667,0.4141c-3.0384,0.1925-4.8424,0.307-8.9101,0.307c-4.1567,0.358-8.3378,0.6466-12.5181,0.9349
		l-0.0167,0.0011H392.919c-5.8153,0.5026-11.6314,1.0052-17.4864,1.4389h-0.0176c-63.3336,0.2157-63.3342,0.216-64.9741,0.5012
		l-0.0419,0.004c-2.6444,0-5.5956,0.0887-8.8192,0.1848c-3.9019,0.1168-8.2023,0.2457-12.7664,0.246
		c-0.6514,0.0652-1.1996,0.131-1.7535,0.1973c-1.7456,0.2086-3.5575,0.4258-10.4874,0.8107l-0.0408-0.0008
		c-1.8-0.1999-3.6046-0.3384-5.3501-0.4723l-0.3705-0.0286c-1.2155,0.2143-1.3992,0.2086-23.0491-0.506
		c-10.7989,0.504-10.8065,0.5043-14.6985,0.288c-9.8887,0.2542-15.7025,0.284-20.7723,0.3095
		c-3.5192,0.0173-6.681,0.0338-10.6075,0.1222h-0.0136c-3.7879-0.1454-7.4387-0.2891-11.0889-0.432l-0.1182-0.0352
		c-0.332-0.199-0.6012-0.3362-0.8663-0.4688c-8.2315-0.0003-12.6884-0.047-15.3882-0.0748
		c-3.1017-0.0323-3.8769-0.0406-5.4153,0.0748h-0.0233c-5.3535-0.112-11.6237-0.049-17.1873,0.0065
		c-5.1375,0.0515-9.6746,0.0972-12.3367-0.0065l-0.0624-0.0096c-0.699-0.2095-1.4043-0.3527-2.1095-0.4935
		c-1.4587-0.0005-3.0277-0.0734-4.8742-0.1596c-2.6334-0.1227-5.8411-0.2721-10.2251-0.2721l-0.0323-0.0031
		c-2.1266-0.2809-4.1289-0.4051-7.6689-0.6242c-2.785-0.1723-6.5186-0.404-11.9733-0.8138l-0.1055-0.0323
		c-0.4623-0.2642-0.4626-0.2645-7.3973-1.1937l-0.0156-0.0029c-5.6616-1.1466-11.3238-2.2935-16.9804-3.3811
		c-3.3287-0.5066-6.6583-1.0134-9.8592-1.44l-0.1443-0.0703c-0.0408-0.0408-0.6089-0.1341-1.6004-0.2962
		c-1.262-0.2061-3.1796-0.5201-5.6724-1.0732c-2.363-0.2625-3.4549-0.4728-7.2822-1.2093
		c-2.4367-0.4691-5.9783-1.1512-11.5727-2.1796l0.1089,0.4349c1.4077,1.688,2.8349,3.3301,4.2619,4.9708
		c0.4176,0.3135,0.7543,0.5763,1.0823,0.8314c0.4365,0.3399,0.8623,0.6703,1.2776,0.9745h1.5738l0.0927,0.0187
		c3.5771,1.4309,3.5858,1.4343,6.9406,2.4335c1.2986,0.144,2.5974,0.2891,3.795,0.4297l0.0391,0.0079
		c6.9477,1.9539,13.8963,3.9084,20.662,5.76l0.0371,0.0128c0.7858,0.3571,1.573,0.7146,2.3479,0.9972
		c3.884,1.0069,7.6895,1.9403,11.4942,2.8735c22.3021,4.3166,22.3027,4.3168,24.9548,4.5317l0.0312,0.0048
		c6.8754,1.4542,14.1559,2.7513,21.0827,3.985c4.3339,0.7716,8.5297,1.5194,12.4501,2.2751
		c12.1892,0.932,12.2471,0.9371,14.3958,1.438c1.4261,0.0023,4.5524,0.1897,8.0036,0.396c4.2647,0.2551,9.0286,0.54,11.6972,0.54
		l0.0604,0.0079C188.9065,221.8354,189.7583,221.9785,190.6089,222.12L190.6089,222.12z M192.3814,199.8022l22.9739,0.4306
		c8.6324-0.2874,17.2755-0.5037,25.9178-0.7197h0.0099c13.7276,0.2154,27.4487,0.3597,41.1695,0.5031
		c0.2713-0.2013,0.4683-0.3317,0.6639-0.462l0.1219-0.0411c1.2733-0.0887,3.7142-0.1415,7.5101-0.2231
		c5.3756-0.1154,13.4819-0.2903,24.8978-0.7129h0.0079l46.7941-0.216c9.8475-0.2874,9.8481-0.2877,32.1752-1.728l0.0156-0.0012
		c8.1927,0,8.3928,0,9.1094,0.2846c12.6703-1.002,12.7078-1.004,33.5569-1.9386c3.2921-0.5009,6.5852-1.002,9.8615-1.4389
		l0.0108-0.002c4.8872-0.4312,9.7753-0.8626,14.6191-1.224l0.1678,0.0499c0.2367,0.1775,0.4357,0.3123,0.6302,0.4422
		c0.4578-0.0655,0.9119-0.1318,1.3094-0.1973l4.0688-1.9272l0.0399-0.0147c1.0642-0.2954,2.1144-0.54,3.1252-0.7753l0.6409-0.1496
		c0.2571-0.1908,0.9267-0.3867,2.06-0.7177c1.1004-0.3214,2.6567-0.777,4.6743-1.4494l0.0253-0.0079
		c2.4559-0.5389,4.9229-1.0307,7.3474-1.5132v-0.0002l1.3405-0.2676c0.1168-0.1621,0.2319-0.2831,0.3461-0.3982
		c0.9845-6.5396,0.9989-6.6479,1.8298-14.4729c-2.0532-0.0683-4.1083-0.1338-6.2031-0.1338l-0.0322-0.0031
		c-1.247-0.1661-2.7525-0.1375-5.5106-0.0851c-1.9843,0.0377-4.6068,0.0882-8.126,0.0882c-2.4213,0.2845-4.8056,0.5014-7.1887,0.718
		l-0.0215,0.0009c-30.752,0.2078-31.9768,0.2151-32.455,0.0009c-9.4768,0.1295-14.9283,0.3631-18.7974,0.529
		c-2.5849,0.1105-4.4688,0.1913-6.3462,0.1913c-10.099,0.7478-20.4894,1.3609-28.7379,1.8473
		c-7.5952,0.4482-13.373,0.7892-15.444,1.0307l-0.0224,0.0009c-9.1723,0.2174-13.9119,0.3988-18.6582,0.5803
		c-4.6624,0.178-9.3334,0.3571-18.2529,0.5712c-0.6471,0.1414-3.0875,0.3121-5.546,0.483c-2.6682,0.1857-5.3592,0.3733-5.6962,0.508
		l-0.0927,0.0187c-5.741,0-8.35,0.0732-12.0464,0.1763c-2.6583,0.074-5.8773,0.1642-11.192,0.2542
		c-1.6565,0.2155-3.238,0.3597-4.8191,0.5034l-0.0303,0.0009c-6.3842-0.2129-6.5225-0.2183-7.2374-0.5029
		c-1.6464,0.0008-2.6618,0.0493-4.4697,0.1355c-2.6235,0.1247-6.9058,0.3291-17.0791,0.5833h-0.0207l-6.8932-0.4309l-4.2996,0.43
		l-0.0244,0.002h-15.84v-0.0006c-11.5021,0.5029-11.5129,0.5035-42.7632,1.2235h-0.0128c-2.0951-0.0721-4.191-0.1452-6.1787-0.2158
		l-8.2006,0.4317h-0.0167l-13.176-0.2159h-0.0164c-3.1924-0.2716-6.3598-0.4782-9.4669-0.6803l-0.6083-0.0397v-0.0003
		l-13.8795-0.2157c-7.3273,0.142-14.7141,0.2874-22.1,0.4319l-0.0488-0.0028c-1.7668-0.3155-3.515-0.5735-5.2152-0.824
		l-0.7438-0.1097l-6.245-0.2154l-0.0652-0.0108c-0.4309-0.1324-2.806-0.3082-5.1888-0.4839
		c-2.4299-0.1788-4.868-0.3597-5.3745-0.5173c-1.131-0.1349-2.1127-0.2263-3.2445-0.3305
		c-2.5704-0.2376-5.9111-0.5468-13.0093-1.5395l-0.0584-0.0156c-0.2928-0.117-1.0046-0.1873-2.0611-0.2911
		c-1.3054-0.1284-3.1258-0.3078-5.3666-0.7004c-4.911-0.4088-9.2012-0.8244-13.1051-1.2019
		c-4.9127-0.4751-9.212-0.8915-13.5181-1.173l-0.161-0.0722c-0.68-0.6801-0.6874-0.6886-1.7578-1.1566
		c-3.6794-0.4243-7.2493-0.7761-10.8167-1.1259c-0.0499,0.3093-0.0932,0.6182-0.1012,0.9244l1.8689,1.8689l0.0411,0.0547
		c0.6463,1.1489,1.2929,2.298,1.9264,3.3551c2.9222,3.2071,5.8453,6.4151,8.6973,9.5522c0.9601,0.0573,4.7973,0.7379,8.6374,1.4806
		c4.0405,0.7815,8.0966,1.6353,8.8129,1.9086c12.8324,2.1453,19.8638,3.3996,27.0048,4.6732c5.6058,1,11.2799,2.012,19.7453,3.4543
		h3.5821l0.0927,0.0187c0.3433,0.1371,5.8876,0.5306,13.1828,1.0476c6.5205,0.4624,14.4351,1.0233,21.3018,1.5985
		c17.0189-0.2151,17.0201-0.2157,18.6608-0.5009l0.0468-0.0028c10.5168,0.2132,21.0274,0.3563,31.4677,0.4983l0.4263,0.0057
		l0.125,0.0352c0.2321,0.1392,0.4737,0.2514,0.6917,0.3521C192.2122,199.7223,192.2921,199.7586,192.3814,199.8022
		L192.3814,199.8022z M218.6271,191.3669l-2.376-0.432l-0.1094-0.0476c-0.6491-0.5049-1.2991-1.0106-1.9565-1.5948l-0.0839-0.0748
		l-0.0003-0.1117c0-0.4896-0.0712-1.0579-0.142-1.6257l-0.015-0.1204l0.0865-0.0865c0.3592-0.3592,0.7126-0.7833,1.0653-1.2064
		l0.1346-0.084l3.672-0.864l0.0391-0.0059c1.9437-0.1437,3.9603-0.2883,5.976-0.432l0.1395,0.0323
		c1.6948,0.9579,1.6954,0.9584,2.2966,1.6348l0.0635,0.1659v1.656l-0.0559,0.1551c-0.1094,0.1369-0.2347,0.3073-0.3654,0.4842
		c-0.1732,0.235-0.3571,0.4844-0.5735,0.7438l-0.0722,0.0595c-0.7949,0.4334-1.6617,0.8671-2.5277,1.3l-0.0899,0.0264
		c-1.6427,0.1426-3.2862,0.286-5.0411,0.432L218.6271,191.3669L218.6271,191.3669z M280.8187,190.6441l-1.728-0.432l-0.129-0.0799
		c-0.432-0.504-0.8649-1.0092-1.3057-1.5968l-0.051-0.1494c0-1.5074,0.0003-1.5078,0.4683-2.2879l0.0752-0.0799
		c0.4337-0.2891,0.868-0.5788,1.3827-0.8728l0.0887-0.0303c0.9879-0.1409,1.9766-0.2826,3.0988-0.432l0.049-0.002
		c1.1094,0.0737,2.2462,0.1451,3.382,0.216l0.1057,0.0065l0.0689,0.0803c0.432,0.504,0.8648,1.0088,1.3056,1.5967l0.0511,0.1494
		v1.656v0.1032l-0.0734,0.0734c-0.1443,0.1443-0.2719,0.2871-0.4068,0.4377c-0.1684,0.1882-0.3475,0.3886-0.5292,0.5703
		l-0.0986,0.0595c-0.8547,0.2849-1.7904,0.6449-2.7253,1.0043l-0.0887,0.0176h-2.88v-0.25L280.8187,190.6441L280.8187,190.6441z
		 M144.7064,190.2013c-0.7254-0.29-1.4525-0.6536-2.1787-1.0168l-0.0437-0.0284c-0.7393-0.5913-1.4559-1.2365-2.1719-1.8808
		l-0.0831-0.0749V187.09c0-0.4147-0.0703-0.8351-0.14-1.2549l-0.0176-0.1069l0.0655-0.0856
		c0.9626-1.2591,0.9632-1.2594,2.3695-2.1476l0.1003-0.0359c3.8395-0.5071,3.8398-0.5071,8.6723-0.5071l0.0723,0.0119
		c1.7005,0.5173,1.7008,0.5176,2.9591,1.4799l0.076,0.0975c0.3158,0.7103,0.3158,0.7109,0.0927,2.7198l-0.0187,0.0703
		c-0.2228,0.5199-0.5139,1.0296-0.8048,1.5384l-0.0567,0.0992l-0.1131,0.0218c-1.8873,0.3628-3.8208,0.7926-5.7532,1.222
		l-0.0536,0.0071h-2.88v-0.25L144.7064,190.2013L144.7064,190.2013z M301.4047,189.4901l-0.3376-0.0944
		c-0.4204-0.1162-0.8765-0.2429-1.3388-0.4164l-0.1074-0.0782c-0.2798-0.3499-0.5604-0.7005-0.9185-1.0585l-0.0734-0.0734v-0.1032
		c0-0.5667-0.0712-1.2059-0.142-1.8448l-0.0114-0.1012l0.0652-0.0811c0.2798-0.3498,0.5604-0.7004,0.8504-1.1355l0.1367-0.1007
		c0.7554-0.2265,0.7557-0.2267,7.4871-0.2267h0.1032l0.0734,0.0734l1.08,1.08l0.0734,0.0734v0.1032v2.16v0.1182l-0.0949,0.076
		c-0.3399,0.2719-0.6996,0.6315-1.0585,0.9904l-0.1318,0.0683c-3.1232,0.5811-3.1234,0.5811-5.5887,0.5811L301.4047,189.4901
		L301.4047,189.4901z M349.3672,188.2397c-0.7265-0.4359-1.451-0.9431-2.1747-1.4496l-0.0936-0.1261
		c-0.0655-0.197-0.2064-0.4782-0.3464-0.7585l-0.0235-0.1525c0.0717-0.4318,0.1437-0.9332,0.2151-1.4341l0.0879-0.1562
		c0.4147-0.3456,0.847-0.7778,1.2784-1.2093l0.125-0.0675c1.0276-0.2199,2.0996-0.4348,3.1708-0.6488l0.0488-0.0051h2.88
		l0.0819,0.0148c1.495,0.523,1.4956,0.5235,2.0387,1.0667l0.0595,0.0987c0.307,0.9213,0.307,0.9221,0.0828,2.4179l-0.0703,0.1406
		c-0.9555,0.9556-0.9561,0.9561-2.2787,1.7643l-0.08,0.0312c-2.4766,0.5097-2.4769,0.51-4.8739,0.51L349.3672,188.2397
		L349.3672,188.2397z M388.2452,185.8629c-1.6954-1.0321-1.696-1.0327-2.1572-1.6475l-0.051-0.1494v-1.152l0.0578-0.1582
		c1.0327-1.2541,1.0332-1.2546,1.8584-1.7796l0.1171-0.0391c2.086-0.1437,4.1712-0.3597,6.2552-0.5752l0.1534,0.0343
		c0.7708,0.4623,0.7713,0.4629,1.6671,1.8811l0.0391,0.1327v1.224v0.1233l-0.1006,0.0757
		c-0.2687,0.2016-0.5531,0.4859-0.8368,0.7696l-0.1179,0.0655c-3.8333,0.94-3.8338,0.9406-6.7303,1.2299L388.2452,185.8629
		L388.2452,185.8629z M152.0305,176.7619c2.5846,0.1435,5.0981,0.2878,7.6113,0.4308l36.4765-0.4314v-0.0002
		c4.1187-0.2888,4.1349-0.29,5.8002-0.0006c16.7312-0.2868,16.7355-0.2877,22.9997-0.7194l0.0167-0.0012
		c12.6136,0,18.2923-0.117,22.3892-0.2015c2.3258-0.0476,4.1462-0.0853,6.4108-0.0853l0.0488,0.0039
		c0.7027,0.1404,3.079,0.2109,5.9723,0.2109c2.8868,0,6.27-0.0709,9.0141-0.2115c0.1673-0.1187,0.29-0.2409,0.4122-0.3631
		l0.1502-0.0714c1.8831-0.2018,3.7622-0.3407,5.5826-0.4751l0.4023-0.0297l0.0799,0.0076c1.9185,0.4972,1.9199,0.4978,5.9204,0.7121
		c19.9134-0.5031,19.9253-0.504,40.5717-1.4388c1.1486-0.2149,2.2291-0.3589,3.3092-0.5029l0.0264-0.002
		c5.4629-0.1434,10.9264-0.2877,16.3176-0.4314c0.712-0.1346,4.0694-0.2977,9.7543-0.5732
		c6.6968-0.3246,16.6363-0.8073,29.2978-1.5837c0.2409-0.1404,0.4748-0.248,0.6871-0.3461
		c0.1088-0.0504,0.2137-0.0992,0.2857-0.1352l0.1114-0.0275h7.63c5.0187-0.358,10.0641-0.6469,15.1084-0.9348l0.0136-0.0012
		c1.9979,0,3.424-0.0603,5.9494-0.1667c2.9999-0.1262,7.5433-0.3183,16.3647-0.5522h0.0139l12.5257,0.4319l20.1354-0.2157
		c2.6163-0.2682,5.2123-0.4731,7.7507-0.6729l0.6007-0.0474h0.0127c7.4835-0.2118,14.9778-0.3546,22.4028-0.4961l0.3657-0.0068
		c0.4538-0.2274,0.4842-0.2557,0.8923-0.8388v-1.3145c-0.6274-1.5321-1.2682-3.0283-1.9083-4.5219
		c-0.407-0.475-0.8149-0.9493-1.2244-1.3626l-0.2599-0.1083c-0.2035-0.0867-0.3875-0.1653-0.5624-0.2123h-6.7391l-0.0431-0.0039
		c-1.0811-0.1908-2.1674-0.326-3.2032-0.4541l-0.3841-0.0479c-6.4621-0.5057-16.5402-1.0939-24.5696-1.5622
		c-6.8816-0.4011-12.2658-0.7155-12.6232-0.8226l-0.1454-0.1153c-0.8467-1.482-0.8473-1.4825-2.048-2.6833l-0.0519-0.0771
		c-0.2891-0.665-0.6137-1.2603-0.9542-1.8845c-0.5026-0.9207-1.04-1.9063-1.5545-3.2692c-1.8289-2.1104-1.8641-2.1421-7.5388-7.1076
		c-0.8898-0.2767-1.7824-0.5111-2.6402-0.7364l-0.6517-0.1721c-13.9121,0.2809-19.4644,0.5017-23.9768,0.6806
		c-2.3955,0.095-4.4989,0.1786-7.4239,0.2537c-1.0741,0.2141-2.0837,0.3589-3.0923,0.5029l-0.0352,0.0031h-5.2464
		c-6.9656,0.9335-6.9837,0.9354-22.0901,2.3741l-0.0235,0.002h-4.2971c-2.3456,0.4975-2.3936,0.5043-10.3014,1.3513
		c-0.1698,0.3515-0.2954,0.6616-0.4184,0.9697c-0.5028,11.4934-0.5037,11.4979-0.9371,14.1721l-0.0187,0.1148l-0.0995,0.0598
		c-0.3685,0.2211-0.7378,0.4428-1.1151,0.5936l-0.1126,0.0448l-0.104-0.0595c-0.197-0.1125-0.3761-0.2209-0.5477-0.3243
		c-0.2866-0.1729-0.5564-0.3362-0.8079-0.4618l-0.1386-0.0695v-0.1531c0-0.7752,0-0.7869,0.724-2.018
		c0.4765-10.8972,0.5009-11.4503,0.8119-13.3356l-0.2917,0.0198c-2.9447,0.201-5.8323,0.3979-8.7435,0.5338
		c-5.0012,0.5604-8.8203,1.1483-12.5037,1.7147c-2.3989,0.3688-4.7415,0.729-7.3647,1.0729
		c-0.1329,0.3279-0.2381,0.6579-0.3353,0.9624l-0.093,0.2866c0.0712,1.9286,0.1437,3.8574,0.2149,5.7146l-0.002,0.0411
		c-0.7245,5.5066-0.7248,5.5075-1.1696,6.5452l-0.1179,0.125l-0.864,0.432l-0.1616,0.0805l-0.1265-0.1264
		c-0.2798-0.2798-0.5587-0.489-0.8368-0.6977l-0.1264-0.0946l0.0309-0.1531c0.2149-1.0752,0.3578-2.0741,0.5004-3.0716
		l0.2117-9.8779c-0.3552-0.117-0.7095-0.2276-1.0624-0.2882c-7.5895,0.2146-7.5958,0.2157-12.1944,0.7186l-0.0264,0.002h-9.7849
		c-2.4667,0.2664-4.9164,0.4705-7.3085,0.669l-0.4048,0.0337c-0.4266,2.5753-0.8014,5.1469-1.1696,7.6717v0.0009l-0.1621,1.1094
		v3.5853v0.1032l-0.0735,0.0735l-0.792,0.792l-0.0882,0.0879l-0.1236-0.0176c-0.4819-0.0686-0.9077-0.0689-1.3329-0.0689h-0.2588
		l0.0099-0.2588c0.1239-3.3092,0.3425-5.4284,0.5738-7.6771c0.1653-1.6104,0.3382-3.2896,0.4873-5.5165l-0.3413,0.0153
		c-4.5349,0.2064-9.0077,0.4099-13.4961,0.5479h-0.0195l-4.0977-0.2157c-4.2012,0.1117-7.1453,0.3019-9.5737,0.4583
		c-2.2354,0.1437-4.0346,0.2597-6.0098,0.2611l-2.2003,0.6001l-1.0375,4.5654c0.21,2.3828,0.2129,2.3908,0.703,3.792l0.0107,0.121
		c-0.7327,4.6165-0.733,4.6171-1.1494,5.0334l-0.0734,0.0734h-0.1032c-1.0244,0-1.0247-0.0003-1.527-0.4186l-0.091-0.076V164.41
		c0-0.7387,0.0569-1.2544,0.1205-1.8295c0.0774-0.7005,0.1653-1.4947,0.1675-2.9398c-0.2066-0.4193-0.3466-0.7668-0.4853-1.114
		l-0.0187-0.0927c0-2.4117,0.0005-2.4596,0.4776-6.5505c-0.2489-0.0176-0.565-0.0014-1.2971,0.0346
		c-1.4766,0.0726-4.6131,0.2273-12.2329,0.3566v0.0002c-4.6797,0.3388-9.3801,0.6154-14.0188,0.8881l-0.7943,0.0464
		c-2.1439,0.4998-2.1784,0.5057-7.8151,0.9987c-0.11,0.1638-0.2216,0.3237-0.3379,0.4524
		c-0.2001,1.3374-0.2015,1.4273-0.2015,5.8961c0.1712,0.5202,0.2954,1.0301,0.4105,1.5032h0.0003l0.0853,0.3466l0.0028,0.1083
		c-0.2163,1.0814-0.4328,2.1634-0.574,3.2235l-0.0326,0.246l-0.2446-0.0303c-0.5598-0.0697-1.057-0.07-1.5537-0.07h-0.25v-0.25
		c0-1.6138-0.0431-2.7162-0.087-3.8495c-0.0689-1.777-0.1406-3.6331-0.0601-7.4546c-2.8463-0.3965-2.9421-0.3979-6.4083-0.3979
		c-0.6452,0.212-1.2858,0.3549-1.925,0.4969l-0.042,0.006c-4.3251,0.2163-4.3339,0.2166-8.1405,0.0012
		c-4.2245,0.3577-8.4734,0.646-12.721,0.934c-3.2585,0.5009-6.5676,0.9544-9.8272,1.4006l-1.1455,0.1571
		c-0.4728,2.9735-0.4819,3.1085-0.9045,9.873l-0.0723,0.1619l-0.36,0.36l-0.0734,0.0735h-0.1032
		c-1.0245,0-1.0247-0.0003-1.527-0.4187l-0.091-0.076v-0.1154c0-6.0302,0.0009-6.198,0.3997-9.7937
		c-2.4109,0.3019-4.4257,0.5627-6.438,0.8224c-2.7915,0.644-5.5834,1.2886-8.3004,1.8612
		c-0.6353,0.4235-1.2719,0.8467-1.9222,1.2078l-0.0284,0.0136c-4.8274,1.9454-4.8382,1.9497-8.1408,2.8828l-3.8645,1.9324
		l-0.0352,0.0147c-2.0032,0.6437-4.0068,1.2881-5.9332,1.8596c-0.4133,0.3441-0.826,0.6877-1.188,0.9774l-0.1199,0.0527
		c-0.5009,0.0715-1.0023,0.1434-1.4341,0.2151l-0.1406-0.0176c-0.3251-0.142-0.6917-0.3058-1.0497-0.4654
		c-0.7537-0.3362-1.4842-0.663-2.2204-0.9584l-1.7946-0.1992l-0.6353,0.6352l-0.0734,0.0735h-0.1032h-1.224h-0.1032l-0.0734-0.0735
		c-0.3943-0.3943-0.4025-0.4034-0.8949-2.0211c-1.1863-0.6282-2.3735-1.2546-3.5544-1.8105
		c-5.2194-1.8485-10.3059-3.6111-15.3624-5.3626l-5.2716-1.8275l-2.5733-0.4289l-0.0644-0.0207
		c-1.0378-0.4844-1.9817-0.8028-2.7402-1.0581c-0.8305-0.2801-1.4496-0.4887-1.7821-0.7798l-0.0862-0.0757V154.33v-0.936v-0.1032
		l0.0734-0.0734c0.6012-0.6013,0.6721-0.6721,0.9159-1.3405c-2.363-0.2784-4.6264-0.553-6.8885-0.8269
		c-2.7831-0.1386-5.5568-0.2112-8.329-0.2804c0.038,0.3963,0.04,0.7784,0.0403,1.1189c0.6426,1.1404,1.2753,2.1957,1.9077,3.2496
		l0.0216,0.0459c0.9377,2.6694,0.94,2.675,1.9463,7.2046c0.5009,1.216,1.0015,2.4326,1.4357,3.5906l0.0167,0.0868v1.224v0.1032
		l-0.0734,0.0734l-1.08,1.08l-0.0734,0.0735h-0.1032c-0.7826,0-0.7829,0-1.489-0.3924l-0.1071-0.0598l-0.0187-0.1208
		c-0.1443-0.9394-0.2854-1.7855-0.426-2.6299c-0.356-0.7835-0.7126-1.5676-1.0012-2.3621l-0.0099-0.0351
		c-0.4326-2.092-0.7903-4.1624-1.1469-6.2317c-0.9173-1.6934-1.8349-3.3885-2.696-5.1086
		c-0.2251-0.1848-0.4595-0.3575-0.6806-0.5204l-0.0009-0.0009c-0.1474-0.1089-0.2891-0.2143-0.4348-0.3286
		c-1.0542-0.0703-2.0265-0.1403-2.9968-0.2095c-3.1238,0.4258-3.1425,0.4306-8.3503,1.8573c-1.19,0.5032-3.3554,1.209-6.5271,2.2428
		c-3.2454,1.0579-7.5444,2.4596-12.8877,4.322c0.004,0.5083,0.0448,0.6327,0.4694,1.8459c0.5485,0.5493,1.1151,1.1353,1.6719,1.7104
		c0.5264,0.5439,1.046,1.0802,1.6004,1.6347l0.0734,0.0735v0.1032v1.44v0.1378l-0.1182,0.074
		c-0.6369,0.3979-0.6372,0.3983-1.4278,0.3983l-0.1658-0.0647c-2.0353-1.8173-2.0358-1.8176-3.9875-4.2032l-0.034-0.0576
		c-0.2588-0.5822-0.517-1.1659-0.724-1.6957l-0.7365,0.1153c-1.9749,0.3098-3.9044,0.6129-5.8411,0.8626l-0.0556,0.0012
		c-1.4284-0.1426-2.8573-0.2149-4.2857-0.2863c-6.1914,0.6656-6.613,0.7107-7.429,1.0517c0.0269,0.1718,0.0345,0.3353,0.0368,0.4791
		c1.9956,0.864,2.1546,0.9113,8.6584,2.7995c5.527,0.9329,5.5344,0.9337,15.0933,1.94l0.0261,0.004l1.2467,0.2653
		c1.9375,0.413,3.8361,0.8181,5.7158,1.1707l4.3016,0.2151l0.0235,0.002c3.0416,0.4394,5.6608,0.7368,8.0065,1.0024
		c2.645,0.2999,4.9447,0.561,7.1198,0.9422c1.8374,0.1672,3.2375,0.3424,5.963,0.6829c4.4461,0.5553,12.397,1.5494,31.1723,3.6352
		c2.6756,0.1446,5.3515,0.2897,7.909,0.4314l0.0312,0.0039c1.9239,0.356,3.8486,0.7126,5.7314,1.0027
		c5.6702-0.2866,11.355-0.5029,17.039-0.7186h0.0108l20.16,0.216l0.076,0.0127
		C150.7609,176.4791,151.3961,176.6211,152.0305,176.7619L152.0305,176.7619z M336.0583,145.794h-0.0006H336.0583L336.0583,145.794z
		 M116.458,164.6028c1.4375,0.6162,2.8761,1.2297,4.3234,1.783c0.4589-0.0655,0.915-0.1321,1.3156-0.1978
		c0.7078-0.4955,1.4159-0.9896,2.1263-1.4156l0.0791-0.0312c0.9448-0.1888,1.8987-0.3243,2.8035-0.4522l0.3478-0.0496
		c1.8088-0.7657,3.623-1.5639,5.4369-2.3618l0.0323-0.0117c0.9989-0.2852,1.9369-0.5026,2.8735-0.7186
		c4.566-1.9262,4.5726-1.9298,8.1677-3.799l0.0703-0.0233c5.455-1.0045,5.4556-1.0051,8.6145-1.9383l0.0292-0.0068
		c2.0823-0.347,4.1828-0.6299,6.2836-0.9099l0.1913-3.4427l-4.2911-0.4088c-7.8392-0.1437-15.6756-0.2163-23.5105-0.2877
		c-3.7837,0.4995-3.8291,0.5043-14.4678,0.8563C116.3299,161.1575,116.3225,161.3398,116.458,164.6028L116.458,164.6028z
		 M102.833,159.2067c8.229,2.8874,8.2295,2.8877,10.1163,3.9036l0.0204,0.0119c0.0558,0.0374,0.0646,0.0417,0.2047-0.0683
		l0.1247-0.845c0.3104-2.1047,0.6148-4.1632,0.8654-6.2311c-0.1364-1.4998-0.2727-3.0011-0.347-4.5023
		c-1.9653-0.0569-3.9484-0.0488-6.095-0.0406c-2.7312,0.0108-5.7302,0.0227-9.2897-0.0958
		c-3.3335,0.1417-6.6682,0.2837-10.0088,0.4288c-0.5505,0.3195-1.1013,0.6109-1.6319,0.8912
		c-0.2375,0.1255-0.4717,0.2491-0.6797,0.3611c0.0471,0.2265,0.089,0.4275,0.1057,0.6267
		c10.4088,3.6819,10.4423,3.6924,16.6054,5.5556L102.833,159.2067L102.833,159.2067z M22.3254,155.4556
		c0.9139,0.8819,1.7337,1.6722,2.5608,2.5843h2.7224c0.4394-0.1758,0.5578-0.2262,0.6565-0.3524
		c-0.4377-0.3818-0.8878-0.7834-1.3294-1.1786c-0.5315-0.4756-1.0531-0.9425-1.6027-1.4136l-0.0352-0.0371
		c-0.7166-0.9318-1.4261-1.7838-2.1345-2.6342l-8.35-6.6371c-0.6508-0.0553-1.317-0.0621-1.9851-0.0629
		c0.0246,0.2106,0.0281,0.3985,0.0289,0.5825c1.18,1.1829,2.3085,2.3817,3.4359,3.5793c0.5686,0.3555,1.1375,0.7124,1.6427,1.0732
		l0.0408,0.036C19.7561,152.977,21.1241,154.2968,22.3254,155.4556L22.3254,155.4556z M28.9783,154.885
		c0.5346,0.4227,1.0358,0.8175,1.6143,1.1996c1.3249-0.1993,1.5406-0.2631,10.7382-3.0291c0.0558-0.3401,0.1063-0.6806,0.114-1.0174
		c-0.7526-0.9579-1.5041-1.9162-2.1994-2.8845c-2.2442-0.4714-5.1245-0.9272-8.1403-1.4043
		c-3.3732-0.5334-6.918-1.0944-9.9303-1.7325l-1.8632,0.3725c0.0439,0.2013,0.0882,0.381,0.1318,0.5564
		c0.3101,0.1236,0.6134,0.2415,0.8561,0.3022l0.1242,0.0742l2.1161,2.3278c0.487,0.1588,0.9822,0.2804,1.4434,0.3926h0.0009
		l0.3467,0.0853l0.1454,0.1006c0.3997,0.5777,0.7671,1.1458,1.1225,1.6971c0.2188,0.339,0.4351,0.6721,0.652,0.9984
		C27.426,153.657,28.2353,154.2977,28.9783,154.885L28.9783,154.885z M161.6074,154.3283c0.4201,0.0589,0.8325,0.1116,1.1906,0.1116
		c3.0597-0.2845,3.0705-0.2871,7.5832-1.218l0.0343-0.0048c4.5102-0.2863,8.9705-0.5029,13.4294-0.7183
		c0.4499-0.1664,0.8929-0.2894,1.3022-0.4026l0.3376-0.0944l0.1074-0.006c1.7014,0.2835,1.7045,0.284,7.4217,0.284
		c1.6557-0.3846,2.3871-0.5559,2.7372-0.6777c-1.1157-0.1862-2.2195-0.3713-3.2338-0.5499
		c-4.3024,0.2146-8.619,0.3589-12.9342,0.5025h-0.0119c-12.7998-0.2132-12.9518-0.2157-17.744-0.0771
		c-0.1213,0.3498-0.2398,0.6483-0.3575,0.9427C161.5331,153.0575,161.5952,153.6948,161.6074,154.3283L161.6074,154.3283z
		 M374.1148,154.2072l-0.3263-0.1057c-0.3555-0.1136-0.7433-0.2384-1.135-0.4062l-0.0791-0.0527l-4.896-4.896l-0.0947-0.0947
		l0.0264-0.1307c0.0725-0.364,0.144-0.7906,0.2148-1.2163l0.0227-0.1364l0.1278-0.053c0.9043-0.3767,0.9045-0.377,7.2156-0.5945
		l0.1723-0.006l0.0661,0.1602c2.0352,4.9431,2.0356,4.9433,2.0356,5.7107l-0.0275,0.1114
		c-0.5267,1.0533-0.5269,1.0539-1.0684,1.5179l-0.1622,0.0607c-0.5836,0-1.1636,0.0587-1.7954,0.1222l-0.1962,0.0198
		L374.1148,154.2072L374.1148,154.2072z M380.3947,153.7081c-0.4292-0.1071-0.4295-0.1077-1.9797-5.7926l-0.0099-0.0654
		c0-0.3773,0.0743-0.8215,0.1479-1.2651l0.0315-0.1899l0.1931-0.017c6.5018-0.5777,6.5021-0.578,9.0935-0.578h0.1031l0.0735,0.0734
		l0.36,0.36l0.0723,0.1599c0.0686,1.0346,0.1403,2.1841,0.2123,3.3347c0.1338,0.2673,0.2716,0.5392,0.4725,0.8742l0.0363,0.1279
		v1.44v0.1032l-0.0734,0.0734c-0.5437,0.5437-0.5443,0.5443-2.3306,1.1396l-0.07,0.0127l-6.264,0.216l-0.0079-0.2489
		L380.3947,153.7081L380.3947,153.7081z M391.7985,152.4185c-0.0686-0.0685-0.1397-0.1556-0.2174-0.2508
		c-0.0811-0.0992-0.1724-0.2109-0.2866-0.3251l-0.0695-0.1355c-0.1457-0.8751-0.3167-1.5511-0.4819-2.2048
		c-0.2413-0.9539-0.4708-1.8624-0.6001-3.286l-0.0108-0.1171l0.0822-0.0819l0.648-0.648l0.1143-0.0646
		c1.2685-0.3308,2.5495-0.7081,3.863-1.095l1.169-0.343l0.0615-0.0096l0.6239-0.0241c5.407-0.2077,10.8791-0.4184,16.3652-0.6959
		l0.2617-0.0133v0.2622c0,0.3628,0.0536,0.7308,0.1136,1.1441l0.0273,0.1888l0.0175,0.1236l-0.0879,0.0882
		c-0.3595,0.3594-0.7198,0.7197-1.0653,1.1344l-0.0762,0.0615c-1.0392,0.542-2.1198,1.1364-3.2199,1.741
		c-0.5867,0.3226-1.1809,0.6489-1.7739,0.97c-0.1014,0.1293-0.2148,0.2838-0.3328,0.4436h0.0003
		c-0.1732,0.235-0.3572,0.4844-0.5735,0.7438l-0.0566,0.0508c-1.0052,0.646-2.0903,1.2974-3.1748,1.9479l-0.1083,0.0352
		c-5.2696,0.4329-5.2699,0.4332-11.0355,0.4332h-0.1032L391.7985,152.4185L391.7985,152.4185z M198.3073,151.3638
		c0.6718,0.1571,1.3139,0.305,1.9514,0.4122h1.3654c-0.754-0.2254-1.0723-0.2528-3.28-0.4317L198.3073,151.3638L198.3073,151.3638z
		 M205.3542,151.4497c0.0411,0.1125,0.0748,0.2194,0.1054,0.3183l4.2741-0.2035c0.2163-0.1414,0.4289-0.2642,0.6313-0.3784
		c-0.2146-0.0422-0.4235-0.0757-0.6202-0.1078l-0.1567-0.0255C208.1565,151.1827,206.754,151.3168,205.3542,151.4497
		L205.3542,151.4497z M44.2916,150.044c0.1502,0.9374,0.1911,1.0486,0.5318,1.4913c2.3593-0.4586,2.4454-0.4838,4.0771-1.2016
		l0.0139-0.0536v-0.0012c0.0221-0.0842,0.0431-0.1624,0.059-0.235H44.2916L44.2916,150.044z M76.0218,148.7078
		c1.552,0.2083,2.9977,0.4022,4.0105,0.6922h7.1272c7.5892-2.649,7.6102-2.6558,14.5718-4.5933
		c0.3804-0.1488,0.8807-0.347,1.3862-0.5471l0.0003,0.0009c1.1526-0.4564,2.2799-0.9037,3.3968-1.3105
		c0.1874-0.1573,0.364-0.3175,0.5323-0.47l0.2265-0.2041c-0.6324,0.0136-2.577,0.2086-9.0159,0.8524
		c-1.9851,0.4853-7.9404,1.6084-13.6673,2.6875c-5.4587,1.029-10.7087,2.0189-12.0348,2.3448l0.0408,0.0272
		C73.7073,148.3962,74.8936,148.5564,76.0218,148.7078L76.0218,148.7078z M96.3051,149.2616
		c3.2278,0.0697,6.4536,0.1395,9.6069,0.1395c21.3029-0.7197,21.3035-0.72,26.8407-1.2231l0.0232-0.0009l27.864,0.216h0.0176
		c2.8916,0.2168,5.7606,0.3603,8.6284,0.5037c24.7184-0.4941,25.2295-0.5043,25.9597-0.2169
		c5.4244-0.0006,8.6457-0.0828,11.6277-0.1588c2.6187-0.0669,5.0573-0.1292,8.4835-0.1292
		c4.6035-0.3382,9.2262-0.6143,13.7883-0.8861l0.8152-0.0488h0.0187c12.8155,0.2135,12.9946,0.2166,13.9258,0.5023
		c5.8836-0.2148,11.7065-0.3586,17.5283-0.5023h0.0156c4.8384,0.1987,5.3212,0.2183,5.5789,0.4995
		c5.5797-0.1919,9.9448-0.3846,13.9419-0.561c6.4211-0.2831,11.8953-0.5249,20.0427-0.6582
		c1.1475-0.2146,2.2274-0.3586,3.3066-0.5023l0.0323-0.0031c1.8221,0,3.82-0.0746,5.7336-0.1457
		c2.6895-0.1003,5.2161-0.1942,6.7807-0.0717c1.3263-0.2543,4.5817-0.6696,7.6139-1.0565c2.9971-0.3821,5.7767-0.737,6.2226-0.8742
		l0.0516-0.0099c2.0616-0.1845,3.3948-0.3466,4.4039-0.4688c1.3116-0.1593,2.0789-0.2523,3.3057-0.2532
		c1.1857-0.2137,2.4721-0.3206,3.5371-0.4096c1.0687-0.089,1.9097-0.1593,2.1158-0.2769l0.1562-0.0303
		c1.5723,0.2143,3.145,0.358,4.7174,0.5005c7.4409-0.7151,7.444-0.716,9.2971-1.2149l0.0995-0.0056
		c0.989,0.1411,1.9153,0.2128,2.8405,0.284c6.7947-0.7764,13.6432-1.5003,20.4378-2.2181l2.149-0.2271l0.0255-0.002
		c3.5946,0,3.5952-0.0002,21.7964-1.4388h0.0148l18.6358-0.43l2.0939-1.6753l0.0644-0.0383
		c2.3856-0.9397,2.3958-0.9439,6.6832-1.8728c0.4989-0.3563,0.9963-0.7104,1.4049-0.9825l0.0683-0.0315
		c3.1802-0.9397,3.181-0.94,7.9415-1.8774c7.4591-1.9363,7.4634-1.938,12.9258-3.8786l0.0323-0.0088
		c1.3099-0.2758,2.6268-0.4865,3.9438-0.6945c0.0252-0.1644,0.0306-0.3288,0.0318-0.4708c-0.3864-0.3886-0.8002-0.8212-1.2056-1.245
		l-0.0003,0.0002c-0.3779-0.3943-0.748-0.7803-1.1424-1.1752c-1.8871-0.9785-1.9111-0.9882-4.5147-1.9029
		c-1.902-0.2639-4.7276-0.3886-7.0254-0.4901c-2.0812-0.0918-3.7401-0.1653-3.9991-0.3379l-0.1114-0.0742v-0.1335v-1.44
		l0.0567-0.157c0.5001-0.6157,1.0157-1.279,1.5205-1.9278c0.3475-0.4473,0.692-0.8901,1.1191-1.4247
		c0.4799-1.1667,0.5014-1.302,2.8516-16.4724l0.0068-0.0323c0.2874-0.9779,0.5295-1.9562,0.7614-2.897l0.1602-0.6449
		c-0.0558-0.4116-0.0664-0.7707-0.0683-1.12c-1.1055-0.0649-2.2079-0.131-3.2528-0.1958l-0.4246,0.4246l-0.1279,0.0683
		l-2.1399,0.428c-4.2897,1.7159-4.2976,1.7195-8.0955,3.5827l-0.0167,0.0076c-2.0458,0.8243-4.3016,1.6501-6.347,2.3984
		c-2.7661,1.0122-5.1466,1.8836-6.0797,2.4108l-0.0516,0.0227c-0.9848,0.2895-1.9709,0.5335-2.9185,0.7671l-0.6483,0.1607
		c-0.7183,0.4958-1.9899,1.1866-3.8628,2.2034c-1.9993,1.0854-4.6894,2.5458-8.1397,4.5494l-0.0947,0.0323
		c-0.5729,0.0714-1.1466,0.144-1.6141,0.21c-8.5771,4.2883-8.5799,4.2905-9.7849,5.2121l-0.1514,0.0519
		c-3.0847,0-3.0849,0.0002-7.3877,0.502l-0.0363,0.0009c-6.4743-0.2157-6.4766-0.2157-31.6511,0.2158
		c-3.3727,0.3586-6.7468,0.718-10.0211,1.0031c-0.5636,0.3481-1.1302,0.6316-1.6966,0.9147l-0.1261,0.0264
		c-1.1835-0.0737-2.2493-0.1451-3.314-0.216l-0.0691-0.0147c-1.359-0.5006-2.7187-1.0015-4.083-1.4326
		c-5.2455-1.006-5.2568-1.0092-12.7321-2.8777c-2.23-0.3594-4.4603-0.7194-6.6742-1.0049l-0.0459-0.0096
		c-2.8661-0.9315-2.8667-0.9317-12.9297-2.8723l-0.0363-0.0096c-1.1971-0.4224-1.1977-0.4227-13.4093-1.8592l-0.1103-0.0403
		c-0.3725-0.2483-0.373-0.2486-22.8977-0.6786c-4.1689,0.1432-8.339,0.2877-12.4362,0.4312
		c-3.604,0.5045-7.2082,1.0094-10.7787,1.438c-4.9023,1.2934-5.1146,1.351-5.7209,1.7714
		c-0.0349,0.2081-0.0451,0.3937-0.0479,0.5737c9.1936,1.2728,9.2007,1.2765,9.8158,1.6609l0.1335,0.0836l-0.0173,0.1553
		c-0.1522,1.3723-0.1525,1.3725-0.6346,1.9349l-0.0907,0.0663c-1.2382,0.5366-2.664,1.4219-4.9136,2.8185
		c-1.6098,0.9995-3.6425,2.2617-6.3633,3.8639l-0.0136,0.0077c-3.9844,2.0106-6.6705,3.4778-9.3878,4.9618
		c-2.5636,1.4-5.1565,2.8162-8.8273,4.6862l-0.1131,0.0276h-1.728l-0.1386-0.0423c-0.6389-0.4257-1.2781-0.8518-1.8329-1.1996
		c-6.6311-1.6177-9.8118-2.48-11.4616-2.927h-0.0011c-1.1982-0.3249-1.5766-0.4272-1.853-0.4377
		c-0.7518,0.3333-1.762,0.9178-2.8366,1.5406c-1.2645,0.7325-2.6195,1.5179-3.7854,2.0262
		c-0.781,0.5423-1.8882,1.0565-2.9738,1.5605c-0.9558,0.4439-1.8964,0.8807-2.5571,1.3102l-0.1397,0.0399
		c-3.8118-0.0717-7.5523-0.144-11.2921-0.2157c-6.2921,0.3013-9.9615,0.5788-14.3201,0.9079
		c-2.8837,0.2174-6.071,0.4583-10.5662,0.7467c-0.4915,0.0969-1.3068,0.1862-3.1473,0.3883
		c-3.6641,0.4014-11.4115,1.2512-28.7269,3.4863c-0.216,0.2563-0.4147,0.5119-0.6041,0.756v0.0012
		c-0.1548,0.1989-0.3033,0.3903-0.4842,0.6075l-0.1454,0.0859c-2.2952,0.4303-4.521,0.7898-6.7462,1.1486
		c-3.3426,1.3079-6.5551,2.5932-9.767,3.8778l-0.0196,0.0068c-2.0285,0.6293-4.0569,1.2586-6.0871,1.8227V149.2616L96.3051,149.2616
		z M442.5423,131.4053l0.0009-0.0002L442.5423,131.4053L442.5423,131.4053z M42.8318,146.9554
		c10.0185,0.5009,10.0576,0.5038,12.7069,1.0046h3.5456c1.6724-0.5145,1.7805-0.5499,2.2261-0.9363
		c-0.9048-13.7159-0.9278-14.0453-1.3935-16.4471c-0.8405-0.1114-1.4097-0.0567-10.404,0.8158
		c-5.9669,1.0528-11.9693,2.1248-17.9716,3.1966c0.0326,0.2628,0.0354,0.513,0.036,0.7293c1.2535,1.8439,2.3576,3.5002,3.46,5.1537
		c1.6432,1.1438,3.2162,2.2884,4.7886,3.4319l0.0524,0.0527c0.6508,0.8677,1.3025,1.7359,1.84,2.4735
		C42.1104,146.6263,42.5007,146.8204,42.8318,146.9554L42.8318,146.9554z M63.2548,142.5599l0.8138,4.068
		c22.0249-3.6941,22.1009-3.7085,28.7955-5.133c0.4493-0.2812,0.4635-0.3022,0.6364-0.8776
		c-0.1239-3.1541-0.3413-5.5831-0.504-7.4055c-0.1213-1.3598-0.2132-2.3862-0.2151-3.1207
		c-0.4292-2.0225-0.4799-2.2623-0.6571-2.5044c-7.7471,0.4646-12.5345,0.824-15.7621,1.0658
		c-3.2156,0.2409-4.888,0.3665-6.4293,0.3674c-1.5477,0.1859-2.5444,0.3418-3.4098,0.4771c-1.133,0.1772-2.048,0.3209-3.5643,0.441
		C62.8257,132.9483,62.8347,133.1716,63.2548,142.5599L63.2548,142.5599z M26.9733,145.08c1.6245,0,1.6832,0.0076,8.8265,0.936
		h1.7396c0.0111-0.0729,0.015-0.1446,0.0167-0.2092c-1.5593-1.2759-3.1204-2.5506-4.6534-3.7355l-0.0615-0.0695
		c-0.6395-1.0658-1.2793-2.1328-1.9233-3.1357l-2.3596-2.3596l-0.0694-0.1355c-0.0567-0.3407-0.1128-0.6828-0.1361-0.9938
		c-0.7067,0.0635-1.4137,0.121-2.1115,0.1224c-4.9864,1.156-9.9215,2.2289-14.8566,3.3018
		c-1.8646,0.7597-3.7296,1.5191-5.5837,2.2345v0.5975c1.7351,0.065,1.8037,0.0868,3.1949,0.5738
		c1.2555,0.2041,2.0194,0.3776,2.9109,0.5794c0.9731,0.2206,2.1033,0.4768,4.2605,0.8552c2.7292,0.1432,5.459,0.2877,8.1165,0.4312
		l0.076,0.0164c0.3977,0.1528,0.5672,0.22,0.7789,0.303C25.7755,144.6431,26.3877,144.883,26.9733,145.08L26.9733,145.08z
		 M256.0144,141.9593c-2.3587-1.0006-2.3604-1.0015-14.0785-4.8115c-2.9622-0.65-5.9247-1.3011-8.8883-1.9358h-7.8965h-0.1032
		l-0.0734-0.0735c-0.1613-0.1613-0.3127-0.388-0.4632-0.614l-0.0609-0.0918l0.0266-0.1072c0.0737-0.2948,0.148-0.5907,0.2988-0.9683
		l0.1006-0.1202c6.6529-4.0912,13.5867-8.1746,18.8464-11.2722c4.5743-2.6944,7.8786-4.64,8.64-5.203l0.1482-0.0499h1.224
		l0.0927,0.0187c0.7146,0.2858,1.4309,0.6432,2.1467,1.0009c8.6159,1.8666,8.6216,1.8686,13.1718,3.3132l0.0675,0.0332
		c0.6826,0.4776,0.6834,0.4782,5.9697,1.9068c1.582,0.2877,3.1649,0.5757,4.7424,0.9343l0.1367,0.0839
		c0.4184,0.5023,0.4187,0.5026,0.4187,1.527v0.1313l-0.1106,0.0749c-11.147,7.5512-11.1475,7.5515-22.8881,16.1949l-0.1474,0.049
		h-1.224v-0.25L256.0144,141.9593L256.0144,141.9593z M95.4969,133.4984c0.2956,2.1359,0.5715,4.1252,0.7937,7.1609
		c0.2588,0.0536,0.481,0.0995,0.6939,0.1004c10.7802-1.2217,10.7853-1.2229,17.5306-2.4426l0.0323-0.0039
		c4.2883-0.2143,4.3084-0.2158,10.9089-1.1384c0.2525-0.2633,0.2968-0.4683,0.9476-3.5269l-0.0374-0.5746
		c-0.1962-3.0092-0.3889-5.9636-0.5244-8.9334c-4.2213,0.2815-8.4447,0.5615-12.6933,0.7741
		c-2.6654,0.504-5.3317,1.0086-7.9087,1.438l-0.0264,0.0028c-7.9498,0.4881-8.1802,0.5028-10.1523,0.8963
		c-0.0638,0.6449-0.1236,1.2847-0.1242,1.8701C95.1276,130.8299,95.3161,132.1923,95.4969,133.4984L95.4969,133.4984z
		 M278.2545,139.2426l-0.36-0.36l-0.0947-0.0947l0.0264-0.1307c0.0722-0.3617,0.1451-0.7245,0.2148-1.1443l0.0173-0.1055
		l0.0901-0.0603c3.7443-2.5203,7.4894-5.0409,11.2291-7.6301l0.1346-0.0439c4.6018-0.1434,9.2044-0.288,13.8781-0.4314
		c4.5451-0.7214,4.5479-0.7214,6.2983-0.6486l0.1783,0.0076l0.0513,0.1701c0.4323,1.4412,0.8651,2.8831,1.2968,4.3949l0.0079,0.0459
		l0.216,2.376l-0.0403,0.1601c-0.0856,0.1284-0.1896,0.2515-0.3033,0.3855c-0.0916,0.1083-0.191,0.2253-0.2815,0.3461
		l-0.0695,0.0924l-0.1147,0.0071c-13.1358,0.7894-13.1364,0.7897-13.8181,1.0624l-0.0655,0.0167
		c-3.9265,0.4363-7.8659,0.9377-11.804,1.4389l-0.0312,0.0031c-1.5795,0-2.4749,0.0556-3.3537,0.1097
		c-0.8654,0.0533-1.7164,0.1063-3.1263,0.1063h-0.1032L278.2545,139.2426L278.2545,139.2426z M128.774,134.2051
		c-0.1275,0.8932-0.1982,1.7351-0.263,2.5716c0.7696-0.0632,1.5401-0.1201,2.3099-0.1208
		c8.2783-1.1169,15.9265-1.9006,21.128-2.4332c3.31-0.3388,5.6262-0.5755,6.455-0.7263l-0.0754-0.1511l-0.0275-0.1114
		c0-3.3911,0.0003-3.3987,0.5029-7.4931c-0.1341-1.2829-0.2058-2.5665-0.2733-3.7896c-1.2404-0.0524-4.3736,0.03-7.7292,0.1877
		c-3.2448,0.1522-6.6994,0.3755-8.8552,0.6151l-0.0272,0.002c-1.9689,0-3.8322,0.1698-6.3187,0.3969
		c-1.7773,0.1619-3.8707,0.3538-6.5115,0.5309l-0.5372,0.7163c-0.2058,1.648-0.201,1.7487,0.2242,9.7571L128.774,134.2051
		L128.774,134.2051z M316.7473,136.9017l-1.728-1.08l-0.076-0.0732c-0.2906-0.4357-0.582-0.9456-0.8728-1.4547l-0.0323-0.1091
		c-0.0689-1.1752-0.1406-2.4477-0.2112-3.7216l-0.4365-0.4366l-0.0734-0.0734V129.85c0-0.3773,0.0743-0.8215,0.148-1.2651
		l0.0255-0.1539l0.1503-0.0442c1.2452-0.3662,1.2458-0.3665,6.5268-0.8728l0.0127-0.0009c9.8405-0.4308,9.841-0.4312,11.2661-0.716
		l0.1854,0.0371c1.0704,0.7047,2.2944,1.5035,3.5243,2.3057c1.8207,1.1871,3.6576,2.3856,5.4768,3.5983l0.1123,0.0748v0.133
		c0,1.3272-0.0003,1.3275-0.4334,1.7606l-0.1474,0.0714c-7.922,0.936-7.9225,0.9363-23.2657,2.1609L316.7473,136.9017
		L316.7473,136.9017z M160.9047,132.4023c0.0009,0.3742,0.002,0.6766-0.0065,0.9981l17.4382-1.0633h0.0207l8.5765,0.2143
		c2.0631-1.0658,4.1309-2.0647,6.1991-3.0628c1.5163-0.9153,2.91-1.7631,4.2948-2.6053c2.2005-1.3382,4.3875-2.6674,6.6081-3.994
		c-0.519-0.1446-1.5987-0.3498-2.9693-0.6094c-1.372-0.2605-3.0297-0.5746-4.7458-0.9652l-16.2309-0.2154
		c-5.0267,0.2869-10.0743,0.5034-15.1208,0.7197l-0.0368-0.0009c-1.2115-0.1343-2.4228-0.269-3.6255-0.3441
		C160.8956,128.8661,160.9013,131.091,160.9047,132.4023L160.9047,132.4023z M445.5958,117.9238
		c0.0519,0.3149,0.0995,0.6307,0.1173,0.9482h1.9732c0.1332-1.8737,0.2033-3.7326,0.2719-5.5908l0.0009-0.0215
		c0.5026-4.0946,0.506-4.1199,1.0088-5.7722c0.1361-1.9038,0.2716-3.8072,0.3458-5.631c-0.093,0.0114-0.178,0.0161-0.261,0.0184
		c-0.2715,1.1489-0.5434,2.2335-0.8141,3.3168c-0.2148,3.8013-0.2177,3.816-1.2254,10.2963l-0.0215,0.0703
		C446.1006,117.409,446.0369,117.5405,445.5958,117.9238L445.5958,117.9238z M341.174,116.1348
		c0.0558,0.3923,0.1111,0.786,0.1346,1.1477c0.9088-0.263,1.7397-0.5193,2.5693-0.7747l0.04-0.0088
		c1.5888-0.2165,3.1036-0.3611,4.6176-0.5051l0.012-0.0009c8.2786-0.4079,12.3378-0.4924,14.6908-0.5411
		c1.785-0.0371,2.5818-0.0541,3.5045-0.1769l0.0263-0.002c8.8526-0.2157,8.8608-0.2159,21.5802-0.0005
		c1.7762-0.3546,3.4929-0.6415,5.2087-0.9272c7.3366-3.3234,8.2477-3.7364,9.3138-4.455c-0.9836-0.106-3.9549-0.1437-17.3795-0.3115
		l-0.0235-0.0009c-1.3133-0.1418-2.8775-0.142-6.4086-0.142c-3.5096,0-8.9756-0.0003-18.2639-0.1451l-0.0615-0.0077
		c-2.6472-0.7155-2.6478-0.7158-4.998-0.9292l-0.0467-0.0088c-0.8986-0.2619-2.6703-0.4482-4.4926-0.6392
		c-1.601-0.1678-3.2422-0.3402-4.3977-0.576c-2.85-0.2061-4.8319-0.4289-6.7501-0.6443c-2.0268-0.2271-3.9852-0.4467-6.8123-0.6302
		c0.0153,0.1313,0.0187,0.2486,0.0193,0.3631c2.5614,3.1847,5.125,6.3714,7.8647,9.7962L341.174,116.1348L341.174,116.1348z
		 M331.8885,115.0494c2.029,0.4277,3.6617,0.7722,5.4301,1.2393l0.0751,0.0335c0.0502,0.0334,0.0615,0.0417,0.1664-0.0386
		c-0.0595-0.343-0.1208-0.6508-0.1814-0.9556c-0.2985-0.4615-0.6092-0.9297-0.9136-1.3901
		c-0.4674-0.705-0.9252-1.3955-1.3544-2.0812c-2.1453-2.2878-4.2908-4.5765-6.4292-6.7867c-1.0803-0.54-1.1387-0.5528-6.0767-1.5403
		c-1.8051-0.1443-3.6113-0.2892-5.3141-0.4309l-0.0255-0.004c-4.5578-0.8546-9.1168-1.6506-13.6752-2.4466
		c-3.9243-0.3563-7.8188-0.6451-11.7125-0.9335l-0.0771-0.0184c-1.1923-0.4909-1.1956-0.4921-7.607-1.4182
		c-0.7225,0.1312-1.4457,0.2625-2.1702,0.3382c-0.0511,0.261-0.0947,0.5139-0.1018,0.7225
		c0.6273,1.2549,1.2558,2.5098,1.8949,3.7191l0.9114,0.9113l0.0575,0.0916c0.2722,0.7486,0.5443,1.4984,0.817,2.187
		c0.7994,0.2271,3.8749,0.728,7.1898,1.2095c3.5605,0.5176,7.3913,1.0111,8.9838,1.1197l0.0652,0.0136
		c1.423,0.498,1.4236,0.4983,11.4829,2.3664l0.0547,0.0164c0.3251,0.1421,0.6917,0.3059,1.0497,0.4655
		c0.7538,0.3362,1.4848,0.663,2.2209,0.9584c1.7898,0.1982,3.5836,0.3359,5.3192,0.4688l0.4011,0.0309l0.0411,0.0068
		C326.6612,113.9471,329.5423,114.5548,331.8885,115.0494L331.8885,115.0494z M427.9686,111.2414
		c-0.1502-0.3008-0.2959-0.6642-0.4408-1.0267l-0.0501-0.1247l0.0774-0.1106c0.2951-0.4215,0.6041-0.8297,0.9224-1.2503
		c0.2367-0.313,0.4793-0.633,0.7356-0.9856l0.131-0.0927c1.5931-0.4745,2.9171-0.9828,3.9665-1.3853l0.0003,0.0008
		c1.1976-0.4597,2.0494-0.7863,2.5843-0.7863h0.1032l0.0734,0.0734c0.4332,0.4331,0.4335,0.4334,0.4335,1.4726l-0.0372,0.1299
		c-0.796,1.3025-1.5925,2.6059-2.4531,3.8968l-0.0742,0.1114h-0.1335c-0.4405,0-0.8815-0.0002-1.3371-0.076l-0.1247-0.0207
		l-0.0567-0.1139l-0.148-0.296c-0.377-0.0128-0.7953-0.0694-1.2166-0.1293c-0.138,0.1077-0.2724,0.207-0.4124,0.3101l-0.0009,0.0009
		c-0.2344,0.1726-0.4833,0.3565-0.7206,0.5541l-0.159,0.0587c-0.438,0-0.9496-0.0003-1.4752-0.0751l-0.129-0.0182L427.9686,111.2414
		L427.9686,111.2414z M437.3745,110.6586c-0.1013-0.1012-0.2069-0.2234-0.3198-0.3538c-0.1185-0.1366-0.2472-0.2851-0.4003-0.4382
		l-0.1162-0.116l0.0615-0.1534c0.5777-1.4448,1.1563-2.8902,1.804-4.3299l0.1063-0.1151c0.7058-0.392,0.7061-0.3923,1.489-0.3923
		l0.1043,0.0235c0.8535,0.3937,0.8833,0.4079,1.6767,0.4084c0.5049-0.4309,0.5485-0.432,1.531-0.432l0.1621,0.0606
		c0.5819,0.4989,0.5825,0.4995,0.6628,1.4649l-0.0508,0.1718c-0.9171,1.1994-0.9176,1.1999-1.6977,2.9733l-0.1074,0.117
		c-0.6398,0.3552-1.2802,0.7112-1.9265,1.1421l-0.1386,0.0422h-2.664v-0.25L437.3745,110.6586L437.3745,110.6586z
		 M411.2924,105.0055c0.1488,0.163,0.2922,0.3209,0.4379,0.4705c0.3419-0.0292,0.8793-0.1973,1.4786-0.451
		c0.616-0.2605,1.2906-0.61,1.8884-0.9949l-0.0026-0.0128h-0.0002c-0.0474-0.2276-0.0899-0.4295-0.1063-0.6299
		c-2.2039-0.8014-2.298-0.8238-6.2784-1.7314c-11.2762-1.9029-11.5047-1.9412-14.2016-2.0764
		c-0.2483,0.5545-0.2526,0.6704-0.1446,1.7595c12.0532,1.9851,12.077,1.9905,16.1703,2.9239l0.1219,0.0664
		C410.8805,104.5542,411.0917,104.7852,411.2924,105.0055L411.2924,105.0055z M327.2278,101.8859
		c2.9444,0.6463,5.8899,1.2932,8.8242,1.8661h2.1201c2.2759-0.4629,3.6552-0.8218,4.7933-1.1171
		c1.1469-0.2979,2.0515-0.5332,3.3945-0.7509l0.0235-0.0028c4.5502-0.2888,4.5663-0.2897,6.2325,0
		c6.4426,0,6.4636-0.0012,21.5634-0.72h0.0204c1.8771,0.072,3.7545,0.1446,5.5281,0.2154c3.0724-0.2857,6.0446-0.4989,9.0144-0.7109
		c0.0476-0.0649,0.0952-0.1239,0.1426-0.1783c-0.6684-0.2883-1.3351-0.5323-2.0018-0.7747
		c-7.1938-0.5034-14.3887-1.0072-21.5629-1.4377l-0.072-0.0156c-0.4388-0.1647-0.8858-0.2888-1.298-0.4028l-0.3104-0.0867
		c-3.0144-0.1432-5.9576-0.2877-8.9005-0.4309l-0.1202-0.0371c-0.557-0.3481-1.1149-0.696-1.6056-0.978
		c-1.2198-0.1434-2.4387-0.2871-3.5405-0.4246l-19.1497,0.2151c-0.3767,0.1585-0.7478,0.2778-1.0899,0.3872l-0.3263,0.1057
		l-0.0811,0.0116c-13.3841-0.2877-13.3846-0.2877-22.0193,0h-0.0235c-7.8684-0.5005-7.924-0.5042-20.3984-0.5746v0.2554
		c5.015,0.7555,5.0873,0.771,6.2846,1.264c4.0688,0.2446,6.0653,0.4434,7.727,0.6089c1.2594,0.125,2.3272,0.2319,3.968,0.3246
		l0.0555,0.0096c0.8215,0.2395,3.2721,0.6346,5.9035,1.0584c2.8071,0.4521,5.8203,0.9383,7.3179,1.3105l0.9564,0.1066
		c2.9137,0.3243,5.7759,0.6432,8.5995,0.8997L327.2278,101.8859L327.2278,101.8859z M437.6313,103.4198
		c-0.0598-0.0899-0.1142-0.1814-0.1715-0.2784c-0.0947-0.1596-0.2007-0.3379-0.3237-0.502l-0.1075-0.1431l0.1004-0.1469
		c0.9493-1.3873,0.9496-1.3878,3.6323-3.998l0.0859-0.0547c2.6889-1.0173,2.6895-1.0179,4.1559-1.2376l0.1398-0.0209l0.0904,0.1128
		c0.3438,0.4297,0.3438,0.43,0.3438,1.739l-0.0606,0.1621c-0.4017,0.4686-0.4019,0.4691-0.8901,1.8638l-0.0499,0.085
		c-0.6517,0.724-1.304,1.4488-2.0248,2.1696l-0.0735,0.0735h-0.1031c-0.3521,0-0.775,0.0002-1.1829,0.068l-0.1596,0.0266
		l-0.0893-0.1341c-0.1165-0.1749-0.2344-0.3495-0.3552-0.5698c-0.3177,0.0856-0.5845,0.2032-0.8632,0.3268
		c-0.4765,0.2115-0.9876,0.438-1.8499,0.5673l-0.1559,0.0235L437.6313,103.4198L437.6313,103.4198z M408.5878,99.0059
		c8.6127,1.8661,8.6508,1.8746,11.721,2.8741c0.4002-0.0011,0.4677-0.042,2.7133-1.4028l0.0831-0.032
		c1.7218-0.3257,2.7198-0.6537,4.0825-1.101c0.7214-0.2367,1.5452-0.5074,2.6402-0.8311l8.9133-4.2443v-0.4853
		c-0.3388-0.1627-0.9402-0.3396-1.685-0.5573c-1.0224-0.299-2.3088-0.6755-3.6031-1.2217
		c-6.1418-0.8669-12.2845-1.7345-18.2474-2.5861c-2.5736-0.1428-5.0635-0.2143-7.5518-0.2854
		c-1.1214,0.5593-2.1765,1.0525-3.2303,1.5443c-2.3482,1.9213-2.3709,1.9383-4.0128,2.8664
		c-0.9691,0.9683-1.9499,1.8805-2.9296,2.7904V97.12c1.539,0.4473,1.878,0.4977,11.0911,1.883L408.5878,99.0059L408.5878,99.0059z
		 M373.7834,96.122c5.7314,0.5728,11.4636,1.1466,17.2642,1.654h1.0734c0.4576-0.2869,0.4777-0.3231,0.9304-1.1642l0.0771-0.0859
		c0.7152-0.5006,1.4304-1.0012,2.1484-1.4335c1.9749-1.9043,3.9498-3.8083,5.8564-5.6447
		c-0.0369-0.2009-0.0456-0.3965-0.0479-0.5902c-0.712-0.1842-1.4272-0.3155-2.1424-0.4456c-3.1388,0-3.1433,0.0009-5.4986,0.286
		l-0.1571-0.0343c-0.3316-0.199-0.6015-0.3351-0.8662-0.4677h-2.0452c-0.9842,0.4915-1.065,0.5089-5.5366,1.4312
		c-1.87,0.6472-3.7409,1.2952-5.5242,1.937l-0.0196,0.007c-3.7769,1.0146-7.6479,2.0089-11.4817,2.9931l-2.6779,0.6883
		c0.0327,0.1148,0.0652,0.2169,0.0973,0.3149c2.058,0.2656,2.1447,0.2826,2.5662,0.5621c1.6529,0.2064,1.7031,0.2035,5.9482-0.0085
		L373.7834,96.122L373.7834,96.122z M434.1877,89.4843c0.2631,0.1179,0.7144,0.2841,1.5336,0.5876c0.15,0,0.2608,0,0.3458-0.0028
		c-0.2296-0.1324-0.4538-0.2549-0.6707-0.3731c-0.1752-0.0952-0.3461-0.1868-0.4887-0.267
		C434.662,89.4605,434.4197,89.4761,434.1877,89.4843L434.1877,89.4843z M413.915,86.5054
		c0.4592,0.2622,0.4595,0.2628,16.0333,2.1285l0.0331,0.0068l0.1715,0.0445h0.0011c0.0844,0.0221,0.1621,0.0431,0.235,0.059v-0.2319
		c-0.8909-0.1758-1.6039-0.3904-2.863-0.7682c-1.3445-0.4031-3.316-0.9947-6.7899-1.9258
		c-5.9505-0.1432-11.8236-0.2154-17.6961-0.2869l-0.2565,0.1069l-0.2032,0.0859c0.0193,0.0142,0.0383,0.0264,0.0558,0.0371
		c1.8244,0.2804,1.8932,0.2841,11.1657,0.7118L413.915,86.5054L413.915,86.5054z M438.5211,88.1348
		c0.5017,0.1877,1.004,0.3696,1.5058,0.4972h0.9119c0.051-0.316,0.0964-0.6318,0.1046-0.9445l-0.2035-0.2035
		c-0.79,0.0609-1.5559,0.1247-2.3187,0.1879V88.1348L438.5211,88.1348z M421.9591,83.6492
		c5.2288,1.3581,5.3943,1.4043,6.2682,1.8734c0.2356-0.0476,0.4623-0.0555,0.688-0.0572c0.3093-0.5083,0.5649-1.0154,0.8178-1.5211
		c-0.0558-0.4326-0.0632-0.8538-0.0641-1.2299l-1.9692-0.7878c-1.0899-0.1358-2.1812-0.2733-3.3571-0.4297l-0.117-0.0479
		c-0.2435-0.1825-0.4479-0.3197-0.6474-0.4529h-1.4457l-0.3093,0.464l0.0093,0.1128
		C421.8934,82.2974,421.9498,82.976,421.9591,83.6492L421.9591,83.6492z"/>
</g>
</svg>
