<?xml version="1.0" encoding="utf-8"?>
<!-- Generator: Adobe Illustrator 21.1.0, SVG Export Plug-In . SVG Version: 6.00 Build 0)  -->
<svg version="1.1" id="Fis" xmlns="http://www.w3.org/2000/svg" xmlns:xlink="http://www.w3.org/1999/xlink" x="0px" y="0px"
	 viewBox="0 0 544.104 330.336" enable-background="new 0 0 544.104 330.336" xml:space="preserve">
<g>
	<path fill-rule="evenodd" clip-rule="evenodd" d="M19.08,330.336c-0.936-0.648-0.936-0.648-1.8-2.016
		c-1.944-16.128-2.88-20.88-3.816-27.648c-1.44-20.16-1.44-20.16-1.224-21.312c0.648-0.432,1.296-0.936,1.944-1.44
		c0.144-0.288,0.288-0.648,0.432-1.008c0.864-0.36,0.864-0.36,22.032-2.304c10.512-1.8719,10.512-1.8719,18.216-2.88
		c7.344-0.504,14.688-1.08,22.104-1.656c0.576-0.864,1.224-1.728,1.872-2.664c5.256-5.904,10.512-11.808,15.84-17.712
		c3.312-3.312,6.696-6.696,10.08-10.08c0.576-2.232,1.152-4.536,1.8-6.84c1.584-9,3.168-18.072,4.824-27.144
		c0.432-4.752,0.432-4.752,4.32-32.112c1.08-10.728,2.16-21.456,3.312-32.184c-4.32-4.32-4.32-4.32-11.952-12.744
		c-12.528-12.456-12.528-12.456-12.96-13.176c-5.04-4.536-10.08-9.072-15.12-13.68c-1.296-1.44-2.592-2.88-3.888-4.32
		c-1.44-1.224-2.88-2.5201-4.32-3.816c-5.256-5.688-10.512-11.376-15.84-17.064c-3.168-3.744-6.336-7.488-9.576-11.304
		c-0.864-0.576-1.8-1.152-2.736-1.8c-2.52-2.736-5.112-5.4719-7.704-8.28c-6.48-7.848-12.96-15.696-19.44-23.6159
		C11.088,24.192,6.624,16.776,2.16,9.3599C1.44,7.9199,0.72,6.48,0,5.0399C0.072,4.248,0.144,3.456,0.216,2.5919
		C1.584,1.152,1.584,1.152,3.456,0c15.48,25.4159,15.48,25.4159,18.36,29.52c6.696,7.92,13.392,15.84,20.16,23.76
		c0.864,0.432,1.728,0.864,2.592,1.2961c3.816,4.032,3.816,4.032,11.52,13.536c2.952,3.096,5.904,6.192,8.856,9.36
		c2.88,2.736,5.76,5.472,8.64,8.28c10.296,9,20.592,18.072,30.96,27.144c5.76,6.192,6.696,7.632,14.616,16.056
		c0.216,0.144,0.432,0.288,0.72,0.504c0.288,0,0.576-0.0721,0.864-0.144c0.576-3.384,1.224-6.84,1.872-10.296
		c3.888-30.024,3.888-30.024,6.48-47.0161c0.144-0.216,0.288-0.4319,0.504-0.72c0.144-1.08,0.288-2.232,0.504-3.384
		c-2.88-4.104-2.88-4.104-10.584-13.68c-5.76-8.64-6.696-10.584-7.704-11.7361c-0.432-0.7919-0.936-1.5839-1.44-2.4479
		c0-0.504,0-1.08,0-1.656c0.936-0.504,1.872-1.008,2.808-1.584c5.544,0.216,5.544,0.216,19.44,0c2.16-0.144,4.32-0.288,6.48-0.504
		c5.04,0.072,10.08,0.144,15.12,0.288c0.216,0.216,0.432,0.504,0.72,0.792c0,0.288,0,0.648,0.072,1.008
		c-0.36,0.3599-0.72,0.792-1.08,1.224c-0.576,0.216-1.224,0.504-1.872,0.792c-11.52,2.376-11.52,2.376-14.904,3.384
		c-0.288,0.216-0.576,0.432-0.936,0.72c-1.944,0.576-3.96,1.224-5.976,1.872c-1.008,1.008-1.008,1.008-1.944,1.3679
		c0,0.2881-0.072,0.576-0.144,0.936c1.224,1.296,2.52,2.592,3.816,3.888c2.808,1.872,2.808,1.872,12.528,9.792
		c0.576,0.648,1.224,1.2961,1.872,1.944c1.152,0.36,1.152,0.36,7.128,1.08c1.656,0,3.312,0,5.04,0
		c0.288,0.432,0.576,0.864,0.936,1.296c1.44,7.632,2.952,15.336,4.464,23.04c0,0.72,0,1.44,0,2.16
		c-0.504,1.224-0.504,1.224-0.504,2.16c8.424,7.704,16.416,15.624,19.944,18.72c2.16,2.448,4.32,4.32,12.456,12.744
		c3.384,3.2401,6.84,6.552,10.296,9.864c2.592,1.728,2.592,1.728,8.352,6.768c0.432,0.72,0.432,0.72,9.792,8.64
		c20.664,19.728,23.04,21.6,24.984,23.544c0.432,0.288,0.936,0.576,1.44,0.936c0.792,0.864,1.584,1.728,2.376,2.664
		c1.728,0.936,2.664,1.944,4.104,2.88c2.16,2.16,5.256,4.536,11.5201,10.296c2.592,2.88,5.256,5.76,7.92,8.64
		c1.152,0.936,2.376,1.872,3.6,2.88c1.008,1.08,2.016,2.232,3.096,3.384c4.104-0.216,4.104-0.216,6.264,0
		c0.648,0.792,1.296,1.584,1.944,2.376c1.44,0.504,1.44,0.504,3.096,0.72c1.224,1.008,1.224,1.008,1.512,1.584
		c0.288,3.168,0,3.6,0.144,4.68c8.208,4.464,16.488,8.928,24.768,13.464c0.288,0.288,0.576,0.576,0.936,0.936
		c7.7039-0.216,7.7039-0.216,36.72,0c6.192-0.504,12.456-1.08,18.72-1.656c0.792-0.36,1.584-0.792,2.376-1.224
		c36.72-1.944,36.72-1.944,74.88-3.6c13.68,0,13.68,0,33.624,0.72c3.744-0.072,7.488-0.144,11.304-0.216
		c12.2401,0.432,24.192,1.44,36.432,1.872c2.592,0.36,5.256,0.72,7.92,1.152c0,1.512,0.072,3.024,0.144,4.536
		c-1.296,1.728-2.592,3.456-3.8881,5.256c-0.072,2.808-0.1439,5.616-0.2159,8.424c-0.144,0.864-0.36,1.728-0.576,2.664
		c-1.152,0.432-2.376,0.864-3.6,1.296c-2.664-0.288-2.664-0.288-3.0959,0c-1.368,0.144-2.736,0.288-4.104,0.432
		c-4.536,3.888-4.536,3.888-7.2,5.76c-2.88,2.7361-5.76,5.472-8.64,8.208c-15.624,16.992-15.624,16.992-19.44,21.6
		c-2.52,2.592-5.112,5.256-7.704,7.92c-7.6321,6.84-15.336,13.68-23.04,20.592c-26.136,0-26.136,0-28.296,0.288
		c-2.592,0.072-5.256,0.144-7.92,0.216c-0.936,0.504-0.936,0.504-3.6,0.936c-9.144,0-18.72,0.504-45.144,0.504
		c-37.872,1.224-37.872,1.224-55.152,1.44c-0.432,0.216-0.936,0.432-1.44,0.72c-7.92,0.144-15.84,0.288-23.76,0.504
		c-3.528-0.072-7.056-0.144-10.584-0.288c-18.792,0.576-37.584,1.152-56.376,1.728c-1.008,0.432-1.008,0.432-2.88,0.72
		c-28.8,0.432-40.104,0.936-62.424,1.152c-8.856,0.216-17.712,0.432-26.64,0.72c-0.36,0.144-0.792,0.288-1.224,0.504
		c-6.84,0.288-13.68,0.576-20.592,0.936c-15.408,0-15.408,0-29.088,0.504c-14.544,1.224-29.088,2.52-43.632,3.816
		c-6.696,0.072-13.392,0.144-20.16,0.288c-1.224,0.936-1.224,0.936-3.168,1.872C20.088,330.12,19.584,330.192,19.08,330.336
		L19.08,330.336z M23.184,322.488c-0.36-1.152-0.36-1.152-1.08-9.072c1.584-0.36,21.024-1.368,42.624-3.24
		c7.776-0.432,15.624-0.936,23.472-1.44c0.36-0.144,0.792-0.288,1.224-0.504c34.056-0.936,34.056-0.936,36.936-1.224
		c16.128,0,16.128,0,33.408-0.432c20.592-1.008,20.592-1.008,39.816-1.44c4.104,0,8.28,0,12.456,0
		c0.36-0.36,0.792-0.792,1.224-1.224c1.872-0.144,3.816-0.288,5.7599-0.504c15.12-0.216,15.12-0.216,62.424-0.216
		c33.552-1.656,33.552-1.656,61.416-2.664c1.656-0.432,1.656-0.432,1.944-0.72c3.672-0.432,7.344-0.936,11.016-1.44
		c3.096,0,6.192,0,9.36,0c14.184-0.936,18.216-1.44,52.56-3.312c19.944-0.504,19.944-0.504,44.136-0.72
		c8.424,0.432,8.424,0.432,11.304,0.936c0.144,0.072,0.288,0.216,0.504,0.36c-0.648,0.72-1.296,1.512-1.944,2.304
		c-4.536,3.816-4.536,3.816-9.864,8.856c-8.28,0-16.56,0-24.912,0c-7.7039,0.504-7.7039,0.504-16.848,0.504
		c-0.432,0.288-0.936,0.576-1.44,0.936c-5.256,0-13.392,0.504-58.032,0.936c-2.448,0.288-2.448,0.288-45.36,1.44
		c-0.216,0.144-0.432,0.288-0.72,0.504c-11.376,0.072-22.752,0.144-34.128,0.216c-5.976,0.288-11.952,0.648-18,1.008
		c-13.032,0.288-26.064,0.576-39.096,0.936c-1.872,0.144-3.816,0.288-5.76,0.504c-8.424,0-27.576,0.936-71.28,1.656
		c-8.928,0.504-17.856,1.08-26.856,1.656c-10.008,0.144-20.016,0.288-30.024,0.504c-4.68,0.288-9.432,0.576-14.184,0.936
		c-16.056,1.728-16.056,1.728-33.552,3.168c-4.536,0.144-9.072,0.288-13.68,0.432C24.84,322.632,24.84,322.632,23.184,322.488
		L23.184,322.488z M21.744,301.248c-0.648-0.072-1.368-0.144-2.088-0.288c-0.936-6.768-0.936-6.768-1.872-17.064
		c0-0.504,0.072-1.008,0.144-1.584c6.552-0.288,13.104-0.576,19.656-0.936c3.888-0.648,7.776-1.296,11.736-1.944
		c5.976-0.648,11.952-1.296,18-1.944c7.632-0.144,15.336-0.288,23.04-0.432c11.16-0.432,22.392-0.936,33.624-1.44
		c4.464,0.072,8.928,0.144,13.464,0.216c1.44-0.72,1.44-0.72,2.16-1.44c16.776-0.216,21.312,0,39.312,0
		c34.56-1.944,34.56-1.944,53.28-2.664c3.168,0.144,6.408,0.2881,9.648,0.504c8.64-0.216,17.28-0.432,25.92-0.72
		c28.08-1.944,28.08-1.944,58.32-3.6c17.712,0.216,17.712,0.216,25.2,0c6.768-0.504,13.536-1.08,20.376-1.656
		c10.944-0.144,21.888-0.288,32.904-0.504c0.288-0.216,0.576-0.432,0.936-0.72c3.816-0.072,7.632-0.144,11.52-0.216
		c6.912-0.72,13.896-1.44,20.88-2.16c4.536,0,9.072,0,13.68,0c6.696-0.504,6.696-0.504,19.224-0.72c7.2,0.072,14.4,0.144,21.6,0.216
		c3.816,0.216,7.632,0.432,11.52,0.72c0.072,0.072,0.144,0.216,0.2159,0.36c-4.4639,5.04-8.9279,10.152-13.4639,15.264
		c-0.432,0-0.936,0-1.44,0c-2.592,1.872-2.592,1.872-4.536,2.88c-2.448,0.576-4.896,1.224-7.416,1.872
		c-7.92,0.144-15.8401,0.288-23.7601,0.504c-10.8,0.72-21.6,1.44-32.4,2.16c-11.016,0.36-22.032,0.792-33.12,1.224
		c-5.76,0-11.52,0-17.28,0c-1.44,0.144-2.88,0.288-4.32,0.432c-0.504,0.504-0.504,0.504-1.944,1.008c-8.352,0-16.776,0-25.2,0
		c-6.696,0.432-6.696,0.432-16.776,0.432c-4.32,0.288-8.64,0.648-12.9601,1.008c-3.312,0-6.696,0-10.08,0
		c-5.184,0.288-10.368,0.576-15.624,0.9359c-13.896,0-44.64,0.72-45.144,0.936c-4.464,0-8.9279,0-13.392,0
		c-12.528,0.72-12.528,0.72-19.944,1.44c-10.008,0-20.016,0-30.024,0c-29.952,1.008-29.952,1.008-34.776,1.44
		c-0.36,0.144-0.792,0.288-1.224,0.504c-2.52,0.288-5.04,0.576-7.632,0.936c-22.608,0.72-24.48,1.008-46.8,1.944
		c-24.264,1.44-24.264,1.44-38.448,2.664c-6.048,0-12.096,0-18.216,0C26.064,300.96,23.904,301.1039,21.744,301.248L21.744,301.248z
		 M91.368,269.9999c0.072-0.432,0.144-0.936,0.288-1.44c1.656-1.6559,3.312-3.312,5.04-5.0399
		c15.768-0.432,27.072-0.432,32.112-0.864c1.872,0,3.744,0.072,5.616,0.144c0,0.216,0,0.432,0,0.72
		c-3.888,4.752-3.888,4.752-4.464,5.112C122.76,268.632,122.76,268.632,91.368,269.9999L91.368,269.9999z M138.6,268.992
		c0.072-0.432,0.216-0.936,0.36-1.44c1.8-2.52,3.6-5.04,5.4-7.56c1.584-0.288,3.168-0.576,4.824-0.936
		c9.144-1.008,18.36-2.088,27.576-3.168c10.512-0.288,21.096-0.576,31.68-0.936c9.36-0.9359,9.36-0.9359,16.56-1.944
		c1.152-0.288,2.376-0.576,3.6-0.936c2.448-0.144,4.968-0.288,7.488-0.504c1.656,1.008,1.656,1.008,2.88,1.44
		c4.536-0.216,4.752-0.432,5.76-0.432c0.216,0.216,0.216,0.216,1.44,0c0.072-0.288,0.144-0.576,0.288-0.864
		c0.648-0.072,1.368-0.216,2.088-0.36c9.864,0.216,25.7039,0,34.344,0.216c0.216,0.288,0.216,0.288,1.152,0
		c4.32-0.216,8.64-0.432,12.96-0.72c4.32,0,8.64,0,12.96,0c2.88-0.432,2.88-0.432,3.168-0.72c0.7921,0,1.584,0,2.376,0
		c0.72-0.432,0.72-0.432,1.224-1.152c5.4,0.072,10.8,0.144,16.272,0.216c1.728,0.504,1.728,0.504,4.104,0.504
		c0.504-0.648,0.504-0.648,0.72-1.8c7.2-0.072,14.4-0.216,21.6-0.36c1.584-0.144,3.168-0.288,4.824-0.504
		c29.016-0.216,29.016-0.216,29.736-0.504c3.6,0.288,9.36,0.288,12.456,0c46.368-0.216,46.368-0.216,53.784,0
		c6.768-0.288,13.536-0.576,20.376-0.936c5.256,0.288,10.512,0.576,15.84,0.936c4.32,0.432,8.64,0.936,12.96,1.44
		c3.168,0.144,6.408,0.288,9.648,0.432c0,0.288-0.072,0.576-0.1439,0.936c-2.5201,2.16-5.04,4.32-7.5601,6.552
		c-11.808-0.288-23.616-0.576-35.496-0.936c-30.744,0.936-30.744,0.936-38.8801,0.936c-6.0479,0.648-12.168,1.296-18.288,1.944
		c-5.544,0.144-11.16,0.288-16.776,0.504c-0.36,0.144-0.792,0.288-1.224,0.432c-34.056,1.008-34.056,1.008-40.032,1.44
		c-8.424,1.008-8.424,1.008-12.528,1.224c-7.2-0.072-14.4-0.144-21.6-0.216c-7.992,0.36-15.984,0.72-23.976,1.152
		c-10.728,0.792-21.456,1.584-32.184,2.448c-7.776,0.288-15.624,0.576-23.472,0.936c-9.648-0.216-9.648-0.216-14.184-0.72
		c-8.856,0.504-8.856,0.504-24.48,0.936c-12.24,1.008-23.76,1.44-28.8,1.944C168.624,268.416,153.288,268.416,138.6,268.992
		L138.6,268.992z M106.2,254.4479c0-0.216-0.072-0.504-0.144-0.792c1.872-2.16,3.816-4.32,5.76-6.4799
		c8.208-8.136,23.76-24.696,30.384-31.104c15.552,0.072,31.176,0.144,46.8,0.216c2.808,0.144,5.616,0.288,8.424,0.504
		c0.432,0.288,0.936,0.576,1.44,0.936c0.504,0.648,1.08,1.368,1.656,2.088c-0.216,0.144-0.432,0.36-0.72,0.576
		c-10.8,0.072-21.6,0.144-32.4,0.216c-0.36-0.216-0.72-0.432-1.152-0.72c-2.376,0.0721-4.752,0.144-7.2,0.2881
		c-0.216,0.144-0.432,0.288-0.72,0.432c-0.144,0.36-0.288,0.72-0.432,1.152c-2.16,2.16-4.032,4.536-8.136,8.856
		c-3.816,4.536-3.816,4.536-8.64,11.304c-0.36,1.152-0.792,2.376-1.224,3.6c0,0.4319,0,0.936,0,1.44
		c0.288,0.288,0.648,0.576,1.008,0.936c0.864,0.36,1.8,0.72,2.736,1.08c0.936,0,1.872,0,2.88,0c0.36-0.144,0.792-0.288,1.224-0.504
		c34.56-1.44,34.56-1.44,55.44-1.944c1.512-0.288,3.024-0.576,4.536-0.936c6.408-0.216,12.816-0.432,19.224-0.72
		c0.288,0.144,0.576,0.288,0.936,0.504c-0.432,0.432-0.432,0.432-2.376,0.936c-5.976,0.648-11.952,1.296-18,1.944
		c-10.512,0.288-21.096,0.576-31.68,0.936c-14.904,1.44-20.376,2.376-22.824,2.376c-1.656,0.144-3.312,0.288-5.04,0.504
		c-2.304,0.432-4.608,0.936-6.912,1.44c-3.888,0.216-3.888,0.216-13.68,0C121.608,254.016,121.608,254.016,106.2,254.4479
		L106.2,254.4479z M257.4,244.8719c-9.36-0.504-9.36-0.504-10.584-0.36c-0.0721-0.216-0.144-0.432-0.216-0.72
		c7.2-0.288,14.4-0.576,21.6-0.864c2.088-0.288,4.176-0.576,6.2639-0.936c2.88,0.072,5.76,0.144,8.64,0.216
		c0.072,1.152,0.072,1.152-0.36,2.088C279.288,244.6559,279.288,244.6559,257.4,244.8719L257.4,244.8719z M290.304,244.368
		c-0.144-0.792-0.144-0.792,0.216-1.872c9.648,0.72,9.648,0.72,11.088,1.08c-0.072,0.072-0.144,0.216-0.288,0.36
		C297.648,244.08,293.976,244.2239,290.304,244.368L290.304,244.368z M153,242.928c-1.296-0.072-2.592-0.144-3.96-0.288
		c0.72-1.944,0.72-1.944,1.656-3.168c0.72-0.432,4.608-5.256,12.384-13.68c0.432-0.288,0.936-0.576,1.44-0.864
		c1.944-0.216,1.944-0.216,11.808,0c13.176,0.72,13.176,0.72,29.736,1.008c0.504,0.144,1.08,0.288,1.656,0.432
		c4.104,4.104,4.104,4.104,6.984,7.488c2.88,1.872,2.88,1.872,5.0399,3.816c0.2881,0.432,0.576,0.864,0.936,1.296
		c-0.072,0.072-0.144,0.216-0.216,0.36c-4.32,0.144-8.64,0.288-12.96,0.504c-2.088,0.36-4.176,0.792-6.264,1.224
		c-9.216,0.288-18.504,0.576-27.792,0.936c-1.44,0.144-2.88,0.288-4.32,0.504C163.8,242.64,158.4,242.7839,153,242.928L153,242.928z
		 M322.2,242.496c-1.152-0.216-2.376-0.432-3.6-0.648c-0.0721-0.216-0.216-0.432-0.36-0.648c0.072-1.008,0.144-2.088,0.216-3.168
		c1.008-1.152,1.008-1.152,1.152-1.872c0.936-0.144,1.152-0.432,4.752-0.648c2.592,0.072,5.256,0.216,7.92,0.36
		c-0.36,1.224-0.36,1.224-3.24,6.264C325.584,242.496,325.584,242.496,322.2,242.496L322.2,242.496z M529.56,242.352
		c0.36-1.44,0.36-1.44,0.72-1.8c0.288,0,0.6479,0.072,1.008,0.144c0,0.36,0,0.792,0.072,1.224
		C531,242.208,531,242.208,529.56,242.352L529.56,242.352z M516.168,241.488c-6.9839-0.432-6.9839-0.432-8.64-0.792
		c0.072-0.432,0.144-0.936,0.288-1.44c2.376-2.592,4.752-5.184,7.128-7.848c2.664,0,2.664,0,10.512,0.864
		c0,0.216,0.0721,0.432,0.144,0.72c-2.16,2.736-4.3199,5.472-6.552,8.28C518.112,241.344,517.176,241.416,516.168,241.488
		L516.168,241.488z M339.48,241.056c-0.144-1.296,0.36-3.024,0.504-4.68c6.696,0.072,13.392,0.144,20.16,0.216
		c-0.072,1.296-0.216,2.592-0.36,3.888C358.704,240.768,358.704,240.768,339.48,241.056L339.48,241.056z M497.88,239.832
		c-2.7361-0.216-5.472-0.504-8.28-0.792c0.072-0.36,0.144-0.792,0.216-1.224c3.888-5.04,3.888-5.04,4.968-6.984
		c2.808,0,5.616-0.072,8.424-0.144c1.224,0.144,2.52,0.288,3.8159,0.432c0,0.216,0,0.432,0.0721,0.72
		c-2.376,2.592-4.752,5.256-7.2,7.92C499.248,239.7599,498.6,239.7599,497.88,239.832L497.88,239.832z M462.384,239.328
		c0-0.216-0.072-0.504-0.144-0.792c3.816-5.544,3.816-5.544,5.76-7.92c4.68-0.144,4.68-0.144,14.328,0.072
		c1.152,0.144,2.376,0.288,3.6,0.432c0,0.288-0.072,0.576-0.144,0.936c-3.888,4.536-3.888,4.536-6.048,6.48
		C477.72,238.896,477.72,238.896,462.384,239.328L462.384,239.328z M233.64,237.8879c-7.92-7.92-11.736-11.376-12.672-12.672
		c-0.072-0.288-0.144-0.576-0.288-0.864c10.8-0.288,21.6-0.576,32.4-0.864c2.088,0.072,4.176,0.144,6.264,0.288
		c0.792,1.584,0.792,1.584,1.8,2.736c1.8,0.864,3.744,1.296,4.176,1.8c0.576,0.288,1.152,0.576,1.728,0.936
		c2.232,1.872,4.464,3.816,6.696,5.76c0.0721,0.864,0.0721,0.864-0.216,1.224c-3.816,0.4319-7.632,0.9359-11.52,1.44
		C252.576,237.744,243.144,237.8159,233.64,237.8879L233.64,237.8879z M296.784,237.1679c-3.384-0.216-6.84-0.504-10.296-0.792
		c0-0.216-0.072-0.432-0.144-0.72c-3.456-2.52-6.912-5.112-10.368-7.704c-1.2961-1.152-2.664-2.376-4.032-3.6
		c0-0.288,0-0.576,0.072-0.936c2.16-0.288,4.32-0.576,6.552-0.864c2.592-0.936,2.592-0.936,5.76-1.656
		c0.864,0.576,1.728,1.224,2.592,1.872c2.88,3.384,2.88,3.384,12.528,13.464c0,0.288,0,0.576,0.072,0.864
		C298.656,237.0959,297.72,237.0959,296.784,237.1679L296.784,237.1679z M395.64,236.016c-0.288,0-0.576-0.0721-0.936-0.144
		c-0.504-1.152-0.504-1.152-1.08-1.656c0-0.288,0.072-0.576,0.144-0.864c1.512-0.072,3.024-0.144,4.5359-0.216
		c0.072,0.36,0.216,0.72,0.36,1.08c-0.432,0.504-0.936,1.08-1.44,1.656C396.72,235.8719,396.216,235.9439,395.64,236.016
		L395.64,236.016z M406.728,235.512c-0.144-1.296-0.144-1.296,0.288-2.52c0.432-0.36,0.432-0.36,5.904-0.864
		c5.976-0.144,11.952-0.36,18-0.576c-0.2881,0.576-0.576,1.152-0.864,1.728c-0.576,0.576-1.224,1.224-1.872,1.872
		c-1.08,0.144-5.184-0.36-9.504-0.144c-1.224,0.144-2.52,0.288-3.816,0.504C412.2,235.512,409.464,235.512,406.728,235.512
		L406.728,235.512z M455.4,235.512c-4.392-0.144-8.784-0.288-13.176-0.504c-0.936,0.288-0.936,0.288-4.104,0.432
		c1.8-3.168,1.8-3.168,2.16-4.248c1.008-0.144,2.088-0.288,3.168-0.504c13.176-0.432,13.176-0.432,17.568-0.288
		c0,0.288,0,0.576,0,0.936c-1.008,1.368-2.088,2.736-3.168,4.176C457.056,235.512,456.264,235.512,455.4,235.512L455.4,235.512z
		 M307.368,232.632c-1.296-1.512-2.592-3.024-3.888-4.536c-0.216-0.504-0.432-1.008-0.72-1.584c4.104,1.8,4.104,1.8,9.36,4.68
		c0.144,0.144,0.288,0.36,0.504,0.576c-0.216,0.36-0.216,0.36-2.88,0.864C308.952,232.632,308.16,232.632,307.368,232.632
		L307.368,232.632z M114.624,228.672c0.072-0.936,0.216-1.872,0.36-2.88c1.296-0.36,1.296-0.36,3.456-0.504
		c-1.872,2.304-1.872,2.304-3.096,3.24C115.128,228.528,114.912,228.5999,114.624,228.672L114.624,228.672z M215.64,220.176
		c-2.376-1.944-2.376-1.944-4.68-4.464c0-0.288,0-0.576-0.072-0.936c45.576-1.368,45.576-1.368,55.872-1.368
		c2.448-0.216,4.968-0.432,7.4879-0.72c4.392,0,8.784,0.072,13.1761,0.144c-2.304,1.296-4.608,2.592-6.984,3.96
		c-0.936,0.288-1.872,0.576-2.88,0.936c-4.68,0.2881-9.36,0.648-14.112,1.0081c-5.76-0.0721-11.52-0.144-17.28-0.2881
		c-0.936,0.144-1.872,0.2881-2.88,0.504c-16.56,0.216-16.56,0.216-24.264,0.72C217.944,219.8159,216.792,219.96,215.64,220.176
		L215.64,220.176z M116.784,216.2159c0.144-1.008,0.288-2.016,0.504-3.0959c1.224-0.288,2.52-0.576,3.816-0.864
		c8.064-2.736,16.128-5.472,24.264-8.208c2.592-0.288,5.256-0.576,7.92-0.936c9.504-0.072,19.008-0.144,28.512-0.216
		c0.144-0.144,0.288-0.288,0.504-0.504c0.288,0,0.576,0,0.936,0c3.384,2.88,3.384,2.88,6.12,5.904c0,0.72,0,0.72-0.36,1.08
		c-14.688,0.072-29.376,0.144-44.136,0.216c-2.088-0.216-4.176-0.432-6.264-0.72c-0.144,0.144-0.288,0.288-0.432,0.504
		c-5.256,1.872-10.512,3.816-15.84,5.76C118.44,216.072,118.44,216.072,116.784,216.2159L116.784,216.2159z M206.064,207.648
		c-1.008-0.144-2.016-0.288-3.096-0.432c-2.88-1.944-2.88-1.944-5.472-4.176c0-0.288,0.072-0.648,0.144-1.008
		c1.728-0.36,1.728-0.36,24.048-1.584c11.5201,0,11.5201,0,16.272,0.2881c0.936-0.144,1.872-0.2881,2.88-0.504
		c0.648-0.2881,1.296-0.576,1.944-0.936c0.72-0.648,1.44-1.2961,2.16-1.944c0.864-1.152,1.728-2.304,2.664-3.456
		c1.152,0,2.376-0.072,3.6-0.144c1.584,0.288,3.168,0.576,4.752,0.936c2.952,0.936,5.9041,1.872,8.928,2.88
		c4.32,4.608,4.32,4.608,7.632,7.704c-0.144,0.144-0.288,0.288-0.432,0.504c-1.44,0.216-2.88,0.432-4.32,0.72
		C235.8,206.928,226.44,207.432,206.064,207.648L206.064,207.648z M118.44,203.7599c0.864-6.048,0.864-6.048,1.224-6.912
		c4.32-0.216,4.32-0.216,7.416,0c0.288,0.216,0.648,0.432,1.008,0.648c-2.52,1.944-5.112,3.888-7.704,5.832
		C119.736,203.472,119.088,203.616,118.44,203.7599L118.44,203.7599z M147.24,197.568c-0.072-0.072-0.216-0.144-0.36-0.288
		c0-0.504,0.072-1.008,0.144-1.584c5.688-0.288,11.376-0.648,17.064-1.008c0.216-0.144,0.432-0.288,0.72-0.432
		c1.296-2.52,1.728-4.176,2.232-4.68c0.288,0,0.576-0.0721,0.864-0.144c2.664,2.304,5.4,4.68,8.136,7.056
		c-0.216,0.36-0.216,0.36-2.16,0.648c-5.976-0.288-5.976-0.288-19.656,0C151.92,197.2799,149.616,197.424,147.24,197.568
		L147.24,197.568z M195.768,195.84c0.072-0.36,0.144-0.792,0.288-1.224c1.296-1.44,2.592-2.88,3.96-4.32
		c4.32,0,8.64-0.0721,13.032-0.144c5.112,0.144,10.224,0.288,15.336,0.504c6.48,0.936,6.48,0.936,11.736,2.16
		c0.144,0.072,0.288,0.216,0.504,0.36c-0.432,0.36-0.936,0.72-1.44,1.08c-0.936,0.144-1.872,0.288-2.88,0.432
		c-8.856-0.216-8.856-0.216-20.376,0C209.232,195.048,202.536,195.408,195.768,195.84L195.768,195.84z M126.648,190.6559
		c-5.544-0.504-5.544-0.504-6.192-0.864c2.664-24.192,2.664-24.192,3.24-27.072c0.72-0.144,1.44-0.288,2.232-0.432
		c3.96-0.072,7.92-0.144,11.952-0.216c8.64,7.92,13.248,11.736,21.168,19.224c0.432,0.72,0.432,0.72,5.256,5.04
		c0.072,0.36,0.216,0.72,0.36,1.08c-0.576,0.288-1.152,0.576-1.728,0.936c-2.232,0.36-2.232,0.36-23.616,1.296
		C128.808,190.6559,128.808,190.6559,126.648,190.6559L126.648,190.6559z M253.368,188.208c-2.232-0.216-4.464-0.504-6.768-0.792
		c-0.144-0.72-0.36-1.44-0.576-2.16c-3.888-5.04-3.888-5.04-4.8239-6.696c-0.144-0.72-0.36-1.4399-0.576-2.1599
		c0.504,0.216,1.08,0.504,1.656,0.792c1.512,1.44,3.024,2.88,4.608,4.32c1.656,1.224,3.312,2.52,5.04,3.816
		c0.792,0.792,1.584,1.656,2.376,2.52C254.088,188.208,254.088,188.208,253.368,188.208L253.368,188.208z M238.464,186.336
		c-2.088-0.576-4.248-1.152-6.408-1.8c-1.44-5.76-1.44-5.76-1.656-7.704c1.296-0.864,2.592-1.8,3.96-2.736
		c0.288,0,0.576,0.072,0.864,0.144c0.288,1.152,0.576,2.376,0.936,3.6c4.32,7.416,4.32,7.416,4.536,8.352
		C239.976,186.192,239.256,186.264,238.464,186.336L238.464,186.336z M179.928,184.896c-1.296-1.44-2.592-2.88-3.888-4.32
		c-3.024-2.736-6.048-5.472-9.072-8.208c-3.24-3.24-6.552-6.48-9.864-9.792c-0.072-0.36-0.144-0.72-0.216-1.08
		c3.888-0.288,7.776-0.576,11.736-0.864c28.08-0.936,28.08-0.936,39.096-1.656c2.304,0,4.68,0.072,7.056,0.144
		c0,0.36,0,0.72,0,1.152c-1.584,2.448-3.168,4.968-4.752,7.488c-4.608,5.184-9.216,10.44-13.824,15.696
		C183.24,184.896,183.24,184.896,179.928,184.896L179.928,184.896z M225.504,183.888c-1.512,0-3.024,0-4.536-0.072
		c0.0721-0.288,0.144-0.576,0.2881-0.936c3.528-1.944,3.528-1.944,4.68-2.88c0.288,0,0.648-0.072,1.008-0.144
		c0.072,0.792,0.216,1.656,0.36,2.52c-0.288,0.432-0.648,0.936-1.008,1.44C226.08,183.8159,225.792,183.8159,225.504,183.888
		L225.504,183.888z M210.6,179.712c0.864-1.656,0.864-1.656,2.736-3.816c3.24-2.952,6.552-5.904,9.864-8.856
		c0.936-1.44,0.936-1.44,2.88-3.384c0.36,0,0.72-0.072,1.08-0.144c4.104,3.96,4.104,3.96,4.32,4.464
		c-0.144,0.216-0.288,0.504-0.432,0.792c-2.592,1.872-5.256,3.816-7.92,5.76c-1.728,0.936-3.528,1.872-5.328,2.88
		c-1.656,0.648-3.312,1.296-5.04,1.944C212.04,179.424,211.32,179.568,210.6,179.712L210.6,179.712z M124.488,152.136
		c0-0.864,0-1.728,0-2.664c1.152,0.36,1.152,0.36,2.16,1.296c0.432,0.864,0.432,0.864,0.216,1.224
		C126.072,151.992,125.28,152.064,124.488,152.136L124.488,152.136z M144.144,150.336c-0.36-0.144-0.792-0.288-1.224-0.504
		c-4.032-4.104-6.48-5.976-7.92-7.56c0-0.288-0.072-0.576-0.144-0.936c15.408-19.224,23.04-28.08,29.664-36.36
		c0.288,0.072,0.648,0.144,1.008,0.216c17.28,16.776,21.096,20.88,27.36,26.64c1.224,1.368,2.52,2.736,3.816,4.104
		c9.36,7.92,9.36,7.92,13.752,12.096c0,0.288,0,0.576-0.072,0.864C178.2,149.832,178.2,149.832,144.144,150.336L144.144,150.336z
		 M128.52,136.152c-0.432-0.504-0.432-0.504-0.576-2.232c0.432-9.36,0.432-9.36,0.432-16.344c1.44-13.464,1.44-13.464,1.944-15.84
		c0.072-0.216,0.216-0.432,0.36-0.648c3.456-0.288,6.912-0.576,10.368-0.936c3.888-0.072,7.776-0.144,11.736-0.216
		c2.088-0.144,4.176-0.36,6.264-0.576c0,0.36-0.072,0.72-0.144,1.152c-7.704,9.6479-15.408,18.72-23.04,28.368
		c-2.016,2.376-4.032,4.824-6.12,7.272C129.384,136.152,128.952,136.152,128.52,136.152L128.52,136.152z M131.904,93.456
		c0-0.432-0.072-0.864-0.144-1.2961c0.792-5.256,1.584-10.512,2.376-15.84c0.432,0,0.864-0.072,1.368-0.144
		c5.976,6.192,10.584,10.296,15.624,15.552c0,0.288,0,0.576,0.072,0.864C136.44,93.456,136.44,93.456,131.904,93.456L131.904,93.456
		z M151.344,81.9359c-1.944-1.944-3.888-3.888-5.904-5.904c0-0.36,0-0.72,0-1.152c0.144-0.216,0.288-0.432,0.504-0.72
		c0.504,0,1.008-0.072,1.584-0.144c3.816,0.936,3.816,0.936,5.76,1.872c0.072,0.864-0.432,2.304-0.648,5.184
		C151.56,82.08,151.56,82.08,151.344,81.9359L151.344,81.9359z M142.704,73.296c-0.576-0.576-1.152-1.152-1.8-1.8
		c0-0.36-0.072-0.792-0.144-1.224c0.792-0.072,1.584-0.216,2.448-0.36c0.144,0.36,0.36,0.72,0.576,1.08c0,0.648,0,1.2961,0,1.944
		C143.424,73.296,143.424,73.296,142.704,73.296L142.704,73.296z M151.344,71.136c-1.08-0.216-2.232-0.432-3.384-0.72
		c-0.144-0.36-0.36-0.72-0.576-1.08c0-0.504,0-1.08,0.072-1.656c1.224-0.144,1.224-0.144,4.608,0.288
		c0.216,0.144,0.504,0.288,0.792,0.432c0.072,0.864,0.144,1.728,0.288,2.5919C152.568,70.9919,151.992,71.064,151.344,71.136
		L151.344,71.136z M134.28,61.9919c-1.224,0-2.52,0-3.816-0.072c0-0.216,0-0.432,0.072-0.72c0.432-0.216,0.864-0.432,1.368-0.648
		c0.72,0,1.44,0,2.16,0c0.648,0.36,1.296,0.72,1.944,1.08C135.72,61.9919,135.72,61.9919,134.28,61.9919L134.28,61.9919z
		 M128.304,57.1679c-0.504-0.432-0.504-0.432-0.72-1.512c0.648,0,1.296,0,1.944,0.072c0.288,0.648,0.288,0.648,0.216,1.44
		C129.312,57.1679,128.808,57.1679,128.304,57.1679L128.304,57.1679z M125.424,43.776c-1.224-0.504-1.224-0.504-2.88-1.944
		c0-0.432,0-0.864,0-1.296c1.44-0.3601,1.44-0.3601,7.2-0.648c0.36,0.36,0.792,0.792,1.224,1.2239c0,0.36,0,0.72,0.072,1.08
		c-1.584,1.008-1.584,1.008-3.24,1.584C127.008,43.776,126.216,43.776,125.424,43.776L125.424,43.776z"/>
</g>
</svg>
