<?xml version="1.0" encoding="utf-8"?>
<!-- Generator: Adobe Illustrator 21.1.0, SVG Export Plug-In . SVG Version: 6.00 Build 0)  -->
<svg version="1.1" xmlns="http://www.w3.org/2000/svg" xmlns:xlink="http://www.w3.org/1999/xlink" x="0px" y="0px"
	 viewBox="0 0 399.96 349.344" enable-background="new 0 0 399.96 349.344" xml:space="preserve">
<g>
	<path fill-rule="evenodd" clip-rule="evenodd" d="M312.264,349.344c-3.2401-1.296-6.5521-2.592-9.8641-3.888
		c-22.1039-6.696-22.824-7.2-24.9839-7.632c-1.152-0.504-1.152-0.504-5.472-1.44c-2.952-1.08-5.904-2.232-8.928-3.384
		c-5.976-1.44-5.976-1.44-6.912-1.944c-5.328-0.936-8.208-1.872-13.248-2.88c-7.704-0.936-15.48-1.872-23.256-2.88
		c-4.248-1.224-8.496-2.52-12.744-3.816c-4.5359-0.936-32.4-8.64-47.952-12.456c-2.232-0.648-4.464-1.296-6.768-1.944
		c-6.696-2.52-13.392-5.112-20.16-7.704c-1.152-0.576-2.376-1.224-3.6-1.872c-0.936-1.008-2.376-1.944-3.6-3.168
		c-0.936-0.576-1.872-1.224-2.88-1.872c-11.016-4.824-11.016-4.824-12.24-5.04c-2.592-1.944-2.592-1.944-6.192-3.888
		c-10.08-2.88-10.08-2.88-12.744-3.312c-1.8-0.936-3.672-1.872-5.544-2.88c-1.224-0.936-2.52-1.872-3.816-2.88
		c-2.448-0.936-4.896-1.872-7.416-2.88c-2.592-0.648-5.256-1.296-7.92-1.944c-2.736-0.288-5.472-0.576-8.208-0.936
		c-7.416-1.944-7.416-1.944-10.08-2.88c-3.816-2.448-5.76-3.384-7.2-4.608c-0.144-0.216-0.288-0.432-0.432-0.72
		c-4.608-2.376-5.04-2.88-6.048-3.312c-1.872-2.16-3.816-4.32-5.76-6.4799c-1.44-0.936-2.88-1.872-4.32-2.88
		c-0.792-0.288-1.584-0.648-2.376-1.008c-1.44-0.288-2.88-0.576-4.32-0.936c-1.944-0.936-3.96-1.872-5.976-2.88
		c-1.008-0.288-2.088-0.576-3.168-0.936c-1.728-0.936-3.456-1.872-5.256-2.88c-0.648-0.144-1.296-0.288-1.944-0.504
		c-0.288-0.288-0.576-0.576-0.936-0.864c0.144-0.216,0.288-0.504,0.504-0.792c0.72,0.072,1.44,0.144,2.16,0.216
		c3.096,1.944,4.536,2.376,6.48,3.384c0.576,0.144,1.224,0.288,1.872,0.432c2.016,0.936,4.032,1.872,6.048,2.88
		c2.88,0.504,5.472,1.44,10.296,2.448c0.72,0.432,1.44,0.936,2.16,1.44c2.592,1.08,5.256,2.16,7.92,3.312
		c0.648,0.432,1.296,0.936,1.944,1.4399c0.432,0.072,0.936,0.144,1.44,0.288c0.072-2.016-0.432-4.68-0.864-9.936
		c-1.008-4.32-1.008-4.32-1.584-5.76c-0.504-0.288-1.008-0.648-1.584-1.008c-0.216-0.432-0.432-0.936-0.72-1.44
		c0-1.44,0-1.44,0.504-2.88c0.648-0.72,1.296-1.44,2.016-2.16c0.72-0.288,1.44-0.576,2.232-0.864
		c2.016-1.224,4.104-2.52,6.192-3.816c8.208-3.816,8.208-3.816,8.424-4.104c0.72-0.144,1.44-0.288,2.16-0.432
		c0.504-0.288,1.08-0.6479,1.656-1.008c2.592-0.936,5.256-1.872,7.92-2.88c1.008-0.144,2.088-0.288,3.168-0.432
		c2.376-0.792,4.752-1.584,7.2-2.448c0.792-3.4561,1.008-6.048,1.512-7.056c0.072-1.224,0.144-2.52,0.216-3.816
		c-1.8-1.224-3.6-2.52-5.472-3.816c-1.944-2.448-1.944-2.448-3.384-3.6c-0.864-0.288-1.8-0.576-2.736-0.864
		c-1.152-0.864-2.304-1.8-3.528-2.736c-0.144-0.648-0.36-1.2961-0.576-1.944c-1.152-0.648-2.376-1.368-3.6-2.088
		c-1.152-0.144-2.376-0.288-3.6-0.432c-0.576-0.36-1.224-0.792-1.872-1.224c-1.728-0.216-1.728-0.216-2.448-0.72
		c-4.752-1.656-4.752-1.656-5.256-2.16c-0.648,0.0721-1.296,0.144-1.944,0.216c-0.792-0.216-1.584-0.432-2.376-0.72
		c-3.384-2.16-3.384-2.16-4.536-2.592c-0.648,0.144-1.296,0.288-1.944,0.432c-2.448-1.224-4.896-2.52-7.416-3.8159
		c-0.144-0.216-0.288-0.432-0.504-0.72c-0.432-0.072-0.936-0.144-1.44-0.216c-2.376-1.44-2.376-1.44-2.88-2.088
		c-0.864-0.36-1.728-0.72-2.664-1.08c-0.216-0.216-0.432-0.432-0.72-0.72c-2.592-0.432-2.592-0.432-3.024-0.792
		c-0.936-3.096-0.936-3.096-1.44-3.6c0-0.36,0-0.792-0.072-1.224c0.288,0.072,0.576,0.216,0.936,0.36
		c1.8,3.024,1.8,3.024,3.024,4.248c3.528,1.872,7.056,3.744,10.656,5.616c1.728,0.432,1.728,0.432,3.6,0.432
		c1.944,1.008,3.384,1.44,4.824,2.448c1.08,0.288,2.232,0.576,3.384,0.936c2.52,1.224,5.04,2.448,7.632,3.744
		c1.224,0.072,4.32,1.08,7.488,1.512c0.216,0.288,2.592,1.224,3.096,1.728c2.376,0.936,3.096,1.656,4.32,1.872
		c3.384,1.944,3.384,1.944,5.76,3.888c0.936,1.152,0.936,1.152,3.384,3.096c0.432,0.72,0.864,1.512,1.296,2.304
		c0.864,0.576,1.8,1.152,2.736,1.8c0.648,0.072,1.296,0.144,1.944,0.216c0.072-1.08,0.216-2.16,0.36-3.24
		c0.432-0.432,0.432-0.432,0.936-2.592c0.216-2.88,0.504-3.6,0.72-9.144c0.504-0.936,0.504-0.936,1.224-3.816
		c0-0.576,0-1.152,0-1.728c-1.944-3.6-3.888-8.64-4.824-10.296c-2.88-6.984-4.824-10.8-6.696-15.624
		c-1.008-1.872-1.944-4.752-3.888-8.856c-0.072-0.648-0.144-1.296-0.216-1.944c-2.664-6.696-3.6-8.136-3.816-9.36
		c-0.504-0.432-1.008-2.16-1.44-2.592c-0.144-0.792-0.288-1.584-0.504-2.448c-0.36-0.576-0.792-1.224-1.224-1.872
		c-2.376-6.4799-2.376-6.4799-2.592-7.704c-0.648-1.008-1.296-2.016-1.944-3.096c-0.936-2.448-2.88-6.264-3.744-9.144
		c-1.08-1.44-2.16-2.88-3.24-4.32C47.16,98.64,45,94.824,43.056,90.72c-0.216-0.936-1.224-2.592-1.656-4.032
		c-1.008-1.44-1.944-3.888-2.88-5.04c-0.432-1.296-0.936-2.592-1.44-3.888c-1.008-1.152-1.008-1.152-3.888-6.48
		c-0.792-2.376-0.792-2.376-2.376-5.04c-0.648-0.792-1.296-1.584-1.944-2.3761c-3.816-8.1359-3.816-8.1359-4.752-10.8
		C22.176,50.4,20.232,46.584,19.296,45.36c-3.816-7.9201-3.816-7.9201-4.824-9.36c-1.872-4.752-1.872-4.752-3.816-8.64
		c-1.8-2.7361-3.672-5.5441-5.544-8.352c0-0.648,0-1.296,0-1.9441c0.36-0.2159,0.36-0.2159,1.008,0.2161
		c2.52,4.5359,5.04,9.072,7.632,13.68c1.872,3.888,3.816,7.848,5.76,11.808c2.52,4.608,5.112,9.2159,7.704,13.8961
		c0.936,2.232,1.872,4.4639,2.88,6.696c0.648,0.864,1.296,1.728,1.944,2.664c0.576,1.44,1.224,2.8799,1.872,4.3199
		c1.008,1.224,1.944,3.384,4.104,6.696c1.728,3.6,3.456,7.2,5.256,10.8c0.288,0.36,0.648,0.792,1.008,1.224
		c1.872,4.536,4.536,9.36,5.472,12.024c0.288,0.36,0.648,0.72,1.008,1.1519c0.36,0.864,0.72,1.728,1.152,2.664
		c0.36,0.36,0.792,0.792,1.224,1.224c0.216,0.936,0.72,1.44,4.824,9.576c3.816,9.864,3.816,9.864,5.76,15.624
		c0.936,1.44,2.376,5.472,3.312,6.912c0.144,0.936,0.288,1.872,0.504,2.88c0.216,0.216,0.432,0.432,0.72,0.72
		c0.288,1.008,0.576,2.088,0.936,3.168c5.76,13.176,7.704,16.992,13.392,30.096c0.216,0,0.432,0,0.72,0
		c0.792-1.584,0.792-1.584,1.728-5.616c0.72-5.328,0.72-5.328,1.008-5.76c0-1.368,0-2.736,0-4.104c-1.44-5.256-1.44-5.256-1.8-5.688
		c-1.224-0.432-1.224-0.432-1.584-0.792c0.216-1.656,0.216-1.656,0.72-3.096c0.144-0.216,0.36-0.432,0.576-0.72
		c0.576-0.144,1.152-0.288,1.728-0.432c0.576-1.368,1.152-2.736,1.8-4.176c0.936-3.816,1.44-4.752,1.872-7.2
		c0.504-0.936,2.448-9.792,3.384-12.24c0.504-3.6,0.504-3.6,0.504-5.76c-0.144-0.144-0.288-0.288-0.504-0.4319
		c0-0.864,0-1.728,0-2.664c0.432-1.008,0.936-2.016,1.44-3.096c0.936-18.504,0.936-18.504,0.72-20.448
		c-5.184-3.816-7.416-5.76-9.576-7.2c-0.648-0.792-1.296-1.584-1.944-2.376c-4.32-3.816-8.712-7.632-13.104-11.5201
		c-0.792-0.4319-1.656-0.936-2.52-1.44c-2.16-1.944-4.32-3.96-6.552-5.976c-0.072-0.2159-0.144-0.432-0.216-0.72
		c-0.36,0-0.792-0.072-1.224-0.144c-0.576-0.504-1.152-1.008-1.8-1.5839c0-1.44,0-1.44,0.36-1.8c0.216,0,0.432,0,0.72,0
		c0.504,0.576,0.504,0.576,0.792,1.584c3.168,2.1599,7.92,6.264,11.088,8.64c0.216,0.36,0.504,0.7921,0.792,1.224
		c0.576,0.216,1.152,0.504,1.728,0.792c3.816,3.6,3.816,3.6,6.48,5.544c1.944,1.944,3.96,3.9601,5.976,5.976
		c2.088,1.584,4.176,3.168,6.264,4.824c0.216,0,0.432,0,0.72,0c0.504-0.648,0.504-0.648,0.792-1.584
		c-0.072-1.008-0.144-2.016-0.216-3.096c-1.224-5.256-2.52-10.512-3.816-15.8401c-1.944-5.256-1.944-5.256-2.664-6.4799
		c0-0.288,0.072-0.6481,0.144-1.008c0.648,0,1.296,0,1.944-0.0721c0.36-0.2879,0.72-0.6479,1.152-1.0079
		c6.12-1.8721,12.24-3.744,18.36-5.616c0-0.288,0-0.576,0-0.936c-1.944-3.384-1.944-3.384-3.384-5.2559
		c-1.872-3.8881-1.872-3.8881-2.88-5.328c-0.216-0.144-0.504-0.2881-0.792-0.432c0.072,9.5759,0.072,9.5759,0.36,12.4559
		c-0.072,0.144-0.216,0.36-0.36,0.576c-0.72,0-0.72,0-1.08-0.36c-0.144-3.816-0.288-7.632-0.504-11.52
		c-0.432-2.592-0.936-5.256-1.44-7.92c-1.224-1.872-2.52-3.816-3.816-5.76c-2.16-2.592-4.392-5.184-6.624-7.7761
		c-0.216,0-0.432,0-0.72,0.072c0,1.584-0.072,3.168-0.144,4.824c0.288,1.512,0.648,3.024,1.008,4.608c0.216,3.6,0.216,3.6,0,8.856
		c0.432,2.376,0.936,4.752,1.44,7.2c0,3.168,0,6.336,0.072,9.5759c-0.36-0.2159-0.36-0.2159-0.792-2.8799
		c0-2.376,0-2.376-0.504-7.416c-0.36-1.656-0.792-3.312-1.224-5.04c0-3.024,0-6.048,0-9.144c-0.36-1.512-0.72-3.024-1.152-4.5361
		c0-2.376,0-4.752,0-7.1999c-1.008-2.1601-1.944-3.096-2.88-5.0401c-0.936-1.0079-1.872-2.016-2.88-3.0959
		c0-0.504,0.072-1.008,0.144-1.512c0.432,0,0.936,0,1.44-0.072c0.576,0.72,1.224,1.44,1.872,2.16c0.288,0,0.576-0.072,0.864-0.144
		c0.144-0.432,0.288-0.936,0.432-1.44c0.432-0.072,0.864-0.144,1.368-0.216c0,1.8719,0,3.816,0.072,5.7599
		c3.6,4.3201,7.2,8.6401,10.8,12.9601c0.288,0.072,0.576,0.216,0.864,0.36c0-1.224,0.072-2.4481,0.144-3.744
		c-0.144-1.512-0.288-3.024-0.504-4.536c-0.288-1.08-0.576-2.232-0.936-3.384c-0.72-5.472-0.72-8.136-1.224-11.52
		c0.072-1.728,0.216-3.4561,0.36-5.256c0.36,0,0.72,0,1.08,0c0.216,6.264,0.216,6.264,0.936,14.184
		c0.288,1.4401,0.648,2.8801,1.008,4.3201c0.936,9.576,0.936,12.96,1.44,15.5519c3.024,4.8961,6.048,9.7921,9.072,14.688
		c1.368,0.072,1.368,0.072,5.04-0.72c0-2.16,0-4.32,0-6.48c0.144-1.296,0.288-2.5919,0.504-3.8879
		c0.144-0.144,0.36-0.2881,0.576-0.432c0.864,0.432,0.864,0.432,1.368,1.152c0,1.224-0.288,1.44-0.504,5.04
		c0.144,1.368,0.288,2.736,0.504,4.104c1.584,0.072,3.24,0.2159,4.896,0.36c0.72,0.576,1.512,1.152,2.304,1.7999
		c0.144,0.504,0.288,1.0801,0.432,1.6561c0.288,0.216,0.576,0.432,0.864,0.72c3.456,0.144,6.912,0.36,10.368,0.576
		c0.72-0.1441,1.44-0.288,2.16-0.432c0-0.576,0-1.152,0.072-1.8c-0.288-1.6561-0.576-3.312-0.936-5.04
		c-0.36-5.1121-0.792-10.224-1.224-15.336c0.072-0.7921,0.144-1.584,0.216-2.448c-0.936-4.32-1.152-7.632-2.16-11.736
		c-1.44-9.576-1.44-9.576-2.16-17.28c0.216-0.144,0.432-0.288,0.648-0.504c0.144,0.144,0.36,0.288,0.576,0.504
		c0.504,1.944,0.936,7.92,2.376,18.216c1.008,3.8879,1.44,7.704,1.944,9.6479c0,1.584,0,3.168,0,4.7521
		c0.504,2.8799,0.936,12.96,1.44,16.344c0.504,0.936,0.504,0.936,1.44,4.824c0.648,0.2159,1.368,0.432,2.088,0.6479
		c0,0.36,0,0.7921,0.072,1.2241c-0.144,0.2159-0.288,0.432-0.504,0.7199c-0.432,0.0721-0.864,0.1441-1.296,0.2881
		c1.296,15.84,1.296,15.84,1.8,18.936c0.288,0.648,0.576,1.296,0.936,1.944c0.792,0.72,1.584,1.44,2.448,2.16
		c0.144,0.504,0.288,1.08,0.432,1.656c0.648,0.36,0.648,0.36,1.368,0.36c0.072-0.144,0.216-0.36,0.36-0.576c0-1.08,0-2.232,0-3.384
		c-0.288-1.872-0.648-3.816-1.008-5.7601c-0.216-5.0399-0.216-5.0399,0-8.856c-0.216-1.152-0.432-2.376-0.72-3.6
		c0-2.016,0-4.032,0-6.048c-0.216-0.576-0.432-1.2239-0.72-1.872c-0.072-1.8-0.144-3.6719-0.216-5.5439
		c-0.144-0.6481-0.288-1.296-0.504-1.944c0-1.08,0-2.16,0-3.312c-0.432-1.8719-0.936-3.816-1.44-5.7599
		c-0.288-7.1281-0.576-14.2561-0.936-21.384c-0.216-2.16-0.432-4.3201-0.72-6.48c0.36-0.36,0.36-0.36,1.08-0.36
		c0.36,0.5759,0.36,0.5759,2.304,11.376c0.144,5.76,0.288,11.52,0.432,17.28c0.72,4.608,0.72,4.608,1.224,11.088
		c0,1.2239,0,2.52,0,3.816c0.216,0.7199,0.432,1.44,0.72,2.1599c0.072,2.4481,0.144,4.8961,0.216,7.4161
		c0.72,4.824,0.72,4.824,0.504,5.544c0.072,2.8799,0.144,5.7599,0.216,8.64c0.72,5.5439,0.72,5.5439,0.72,8.64
		c0.288,1.1519,0.648,2.376,1.008,3.5999c1.872,2.376,2.88,4.104,3.6,4.536c0.432,1.008,0.936,1.44,7.2,11.808
		c9.0721,11.736,9.0721,11.736,10.08,12.672c0.288,0.576,0.576,1.152,0.936,1.728c6.408,7.704,12.816,15.48,19.224,23.256
		c0.936,0.648,1.872,1.296,2.88,1.944c0.576,1.08,1.224,2.16,1.872,3.312c1.296,1.512,2.592,3.024,3.888,4.608
		c0.288,0.72,0.576,1.44,0.936,2.16c0.648,0.72,1.296,1.44,1.944,2.16c3.312,5.472,5.256,8.136,5.76,9.36
		c3.816,5.04,3.816,5.04,14.4,20.376c0.936,1.944,1.44,2.376,2.952,5.544c1.08,0.936,4.968,6.48,8.568,10.512
		c2.304,3.168,4.6801,6.336,7.056,9.576c0.648,0.216,1.296,0.432,1.944,0.648c2.88,0.288,5.76,0.576,8.64,0.936
		c4.32,0.936,4.32,0.936,8.64,1.44c5.256,1.44,6.48,1.44,9.144,2.376c0.792,0.072,1.584,0.144,2.376,0.288
		c0.072-0.864,0.216-1.8,0.3599-2.736c0.144-0.144,0.36-0.288,0.576-0.504c0.432,0,0.936-0.072,1.44-0.144
		c1.728,0.936,4.32,2.88,6.048,3.8159c0.432,0.648,0.432,0.648,0.432,1.584c2.88,0.864,2.88,0.864,5.544,1.296
		c2.376,1.008,13.896,4.32,14.184,4.608c0.72,0.144,1.4401,0.288,2.16,0.432c0.792,0.432,1.584,0.936,2.376,1.44
		c0.864,0.144,1.728,0.288,2.664,0.504c5.616,1.872,11.304,3.816,16.992,5.76c0.4319,0.288,0.936,0.576,1.44,0.936
		c2.592,0.936,5.256,1.872,7.92,2.8799c0.432,0.288,0.936,0.648,1.44,1.008c1.656,0.576,3.312,1.224,5.04,1.872
		c6.984,3.888,8.208,4.824,11.808,6.768c2.736,1.944,5.544,3.96,8.3521,5.976c0.72,0.72,1.44,1.512,2.16,2.304
		c1.224,1.8,2.448,3.672,3.744,5.544c1.8721,4.536,1.8721,4.536,2.376,5.04c0.144,0.936,0.288,1.872,0.504,2.88
		c0.288,0.504,0.576,1.08,0.936,1.656c1.296,0.936,2.592,1.872,3.96,2.88c2.952,1.224,5.904,2.448,8.928,3.672
		c3.024,0.936,6.048,1.872,9.072,2.88c3.6,1.944,3.6,1.944,6.264,3.888c0.7921,1.08,0.7921,1.08,1.08,2.016
		c0,0.648,0,1.2961,0,1.944c-0.576,0.432-1.152,0.936-1.8,1.44c-1.44,0.072-1.44,0.072-5.04-0.36
		c-2.592-0.576-5.256-1.152-7.92-1.728c-1.3679,1.512-2.736,3.024-4.1039,4.608c-0.216,0.576-0.432,1.152-0.72,1.8
		c0.7921,0.216,1.584,0.504,2.448,0.792c0.576,0.432,1.2241,0.936,1.872,1.44c2.6641,1.008,2.6641,1.008,9.648,4.824
		c0.936,0.936,0.936,0.936,2.0161,3.024c0,0.648,0,1.2961,0,1.944c-0.504,1.152-0.504,1.152-1.584,2.376
		c-1.296,0.936-1.296,0.936-3.816,1.8c-0.864,0.072-1.728,0.144-2.664,0.216c-2.736-0.288-5.5441-0.576-8.3521-0.936
		C363.6,304.2,363.6,304.2,362.16,304.2c-1.44,1.368-2.88,2.736-4.3201,4.104c-0.6479,0.864-1.296,1.728-1.944,2.592
		c-5.184,4.248-10.368,8.568-15.552,12.888c-1.944,2.376-1.944,2.376-10.8,10.872c-0.648,0.864-1.296,1.728-1.944,2.664
		c-2.376,1.944-2.376,1.944-5.256,3.816c-3.024,2.592-6.048,5.256-9.144,7.92C312.912,349.128,312.624,349.2,312.264,349.344
		L312.264,349.344z M64.584,347.904c-3.6-0.72-4.104-1.08-5.04-1.224c-1.728,0.504-1.728,0.504-4.824,0.936
		c-22.536-0.432-22.536-0.432-24.984-0.72c-2.88,0.288-2.88,0.288-7.2,0.288c-0.432-0.144-0.936-0.288-1.44-0.504
		c-0.288-0.432-0.576-0.864-0.936-1.296c-1.224-0.36-4.32-0.36-6.984-0.864c-0.288-0.144-0.576-0.288-0.936-0.504
		c0-0.36,0-0.72,0-1.08c0.504,0,1.08,0,1.656-0.072c0.432,0.216,0.936,0.432,1.44,0.72c5.544,0,5.544,0,6.768,0.216
		c0.216,0.576,0.432,1.152,0.72,1.8c0.936,0,1.872-0.072,2.88-0.144c0.36-0.216,0.72-0.432,1.152-0.72
		c3.168,0.288,3.888,0.72,5.328,0.72c0.144-0.216,0.288-0.432,0.432-0.72c1.008,0,2.088,0,3.168,0c0.72,0.144,1.44,0.288,2.16,0.504
		c5.04-0.504,5.04-0.504,12.24-0.504c1.44,0.504,1.872,1.008,3.816,1.44c0.864,0,1.728,0,2.664,0
		c0.288-0.216,0.576-0.432,0.936-0.72c1.44,0,2.664,0.504,6.264,1.008c1.44,0,2.88,0,4.32,0c0.576-0.36,0.792-1.08,1.44-1.44
		c1.944,0,3.888,0.072,5.832,0.144c0.072-0.504,0.216-1.008,0.36-1.584c1.008,0,2.088,0,3.168,0c0.216-0.216,0.432-0.432,0.72-0.72
		c2.52,0.072,5.04,0.144,7.632,0.216c0.936-0.144,1.872-0.288,2.88-0.504c0.72,0.504,0.72,0.504,1.08,1.368
		c-0.504,0.504-0.504,0.504-2.16,1.224c-0.216,0.432-0.504,0.864-0.792,1.296c-1.44,0-2.88,0-4.32,0
		c-2.664-0.504-2.664-0.504-4.32-0.504c-0.648,0.36-1.296,0.792-1.944,1.224c-1.584,0-3.168,0-4.824,0
		c-0.72,0.432-0.72,0.432-3.816,0.72C67.608,347.904,66.096,347.904,64.584,347.904L64.584,347.904z M120.96,347.4
		c-2.448-0.648-4.896-1.296-7.416-1.944c-6.768-0.936-6.768-0.936-13.248-2.16c-2.592,0-5.256,0.072-7.92,0.144
		c0-0.216,0-0.432,0-0.72c0.36-0.072,0.792-0.216,1.224-0.36c0.288-0.288,0.576-0.576,0.936-0.936c8.64,0.72,8.64,0.72,15.408,1.656
		c0.36,0.216,0.72,0.432,1.152,0.72c2.952,0.648,5.904,1.296,8.928,1.944c1.224,0.072,2.52,0.144,3.816,0.216
		c1.224-0.504,1.224-0.504,2.16-0.504c0.144,0.216,0.288,0.432,0.504,0.648c-0.72,0.432-1.44,0.864-2.16,1.296
		C123.264,347.4,122.112,347.4,120.96,347.4L120.96,347.4z M129.816,345.24c-0.432-0.072-0.936-0.144-1.44-0.216
		c-0.432-0.648-0.432-0.648-0.216-1.08c0.216-0.072,0.432-0.216,0.72-0.36c0.936,0.216,1.872,0.432,2.88,0.72
		c2.16,0,2.16,0,8.136-1.008c1.296,0,2.592,0,3.888,0c4.032-0.72,4.032-0.72,5.256-0.576c0,0.288,0,0.648,0.072,1.008
		c-0.216,0.216-0.504,0.504-0.792,0.792c-1.44,0-1.44,0-3.384-0.504c-0.216,0.144-0.432,0.288-0.72,0.504
		C141.12,344.736,139.176,344.52,129.816,345.24L129.816,345.24z M153.576,344.304c-0.072-0.072-0.144-0.216-0.216-0.36
		c0.72-0.648,3.096-1.584,3.816-2.304c1.728,0,2.16,0.216,10.08,0c0.648,0.288,1.296,0.576,1.944,0.936
		c1.7281-0.072,3.4561-0.144,5.256-0.216c1.44-0.504,4.608-0.72,5.76-1.224c0.216-0.216,0.432-0.432,0.72-0.72
		c3.168-0.432,4.824-0.936,8.424-1.152c0.216,0.144,0.432,0.288,0.72,0.432c1.44-0.216,4.32-1.152,7.416-1.656
		c2.304-0.936,4.608-1.872,6.9839-2.88c0.36-0.288,0.7921-0.576,1.224-0.936c1.7281-0.648,3.4561-1.296,5.256-1.944
		c1.224-0.72,2.52-1.44,3.816-2.16c7.488,0.216,7.488,0.216,19.224,1.224c0.36,0.216,0.792,0.432,1.224,0.72
		c2.592,0,3.096-0.288,4.752-0.288c3.888,0.936,7.848,1.872,11.808,2.88c1.656,1.008,1.656,1.008,2.88,1.44
		c1.152-0.216,1.152-0.216,3.816,0c3.384,1.008,3.384,1.008,8.856,3.384c0.432,0.288,0.936,0.576,1.44,0.936
		c1.008,0.288,2.088,0.648,3.168,1.008c4.896,0.216,9.864,0.432,14.832,0.72c0.144,0.072,0.288,0.216,0.504,0.36
		c0,0.432,0,0.864,0,1.296c-0.72,0.216-10.08,0.216-10.8,0c-1.4399,0-2.8799,0-4.3199,0c-5.76-2.376-5.76-2.376-6.264-2.88
		c-4.896-1.224-9.864-2.52-14.832-3.816c-0.36-0.288-0.792-0.648-1.224-1.008c-4.536-0.936-4.536-0.936-8.136-2.16
		c-6.0479,0-6.0479,0-10.368-0.432c-0.288-0.144-0.576-0.288-0.936-0.504c-2.088-0.072-4.176-0.144-6.264-0.216
		c-1.152-0.504-1.152-0.504-2.592-0.72c-1.512,0-3.024,0-4.608,0c-1.152,0.288-2.376,0.576-3.6,0.936
		c-0.432,0.288-0.936,0.576-1.44,0.936c-1.44,0.432-2.88,0.936-4.32,1.44c-2.52,1.296-5.04,2.592-7.632,3.888
		c-3.456,0.864-6.912,1.728-10.368,2.592c-1.584,0-3.168,0-4.752,0c-2.016,0.288-4.032,0.648-6.048,1.008
		c-1.224,0.432-2.52,0.936-3.816,1.44c-2.232,0-4.464,0-6.696,0c-0.288-0.144-0.648-0.288-1.008-0.504c-2.952,0-5.904,0-8.856,0
		c-0.504,0.144-1.08,0.288-1.656,0.504C155.736,344.304,154.656,344.304,153.576,344.304L153.576,344.304z M314.424,330.336
		c-26.928-1.152-28.584-1.44-38.448-1.872c-13.392-1.944-14.832-2.448-21.312-3.384c-1.728-0.504-4.824-0.936-7.92-1.944
		c-3.096-0.576-6.192-1.224-9.36-1.872c-2.16-0.216-4.32-0.432-6.48-0.72c-2.376-0.648-4.752-1.296-7.2-1.944
		c-2.088-0.288-4.176-0.576-6.2639-0.936c-4.248-0.936-8.496-1.872-12.744-2.88c-3.96-1.296-7.92-2.592-11.952-3.888
		c-5.688-1.584-11.376-3.168-17.064-4.752c-0.504-0.288-1.08-0.648-1.656-1.008c-4.824-1.44-4.824-1.44-7.488-1.872
		c-3.816-1.2961-7.632-2.592-11.52-3.888c-6.12-2.52-12.24-5.04-18.432-7.632c-5.76-2.88-5.76-2.88-14.688-6.7679
		c-5.472-1.872-7.632-2.88-13.392-4.752c-14.904-6.768-17.784-7.704-19.224-8.64c-6.984-2.88-6.984-2.88-10.8-4.824
		c-1.152-0.288-2.376-0.576-3.6-0.936c-6.264-2.88-7.704-3.888-10.296-4.824c-1.728-0.936-1.728-0.936-2.16-1.44
		c-4.176-1.872-8.352-3.816-12.528-5.76c-0.936-0.648-1.872-1.296-2.88-1.944c-0.504-0.72-1.08-1.44-1.656-2.16
		c-0.504-0.144-1.08-0.36-1.656-0.576c-0.432-0.936-1.368-7.632-2.304-11.52c-0.288-0.864-0.648-1.728-1.008-2.592
		c-0.432-0.216-0.864-0.432-1.296-0.72c0-0.576-0.072-1.152-0.144-1.728c0.216-0.144,0.432-0.36,0.648-0.576
		c0.72-0.144,1.44-0.288,2.16-0.504c0.288-0.432,0.576-0.936,0.936-1.44c7.2-3.816,7.2-3.816,15.84-7.704
		c2.808-1.08,5.616-2.16,8.424-3.312c1.224-0.144,2.52-0.288,3.816-0.504c2.304-0.576,4.608-1.152,6.984-1.8
		c0.072,1.728,0.072,1.728-0.216,2.736c-1.512,0.144-3.024,0.288-4.608,0.504c-2.16,0.936-5.472,2.88-7.92,3.816
		c-1.08,0.648-2.16,1.296-3.312,1.944c-3.168,0.936-3.168,0.936-6.984,1.44c-2.664,1.944-4.536,2.88-5.544,3.816
		c0,0.432-0.072,0.864-0.144,1.368c0.504,1.224,0.504,1.224,1.44,2.16c1.728,0.72,3.456,1.44,5.184,2.232
		c1.08,0.144,2.232,0.288,3.384,0.504c8.424,2.88,8.424,2.88,10.296,3.816c3.888,1.008,5.76,1.944,8.928,2.88
		c2.16,1.008,8.352,2.88,16.056,5.76c2.952,1.296,5.904,2.592,8.856,3.888c-0.504,0.144-1.08,0.288-1.656,0.432
		c-0.432,0.432-0.864,0.864-1.368,1.368c0.216,0.504,0.432,1.08,0.72,1.656c0.576,0.288,1.152,0.648,1.8,1.008
		c0.648,0.072,1.296,0.144,1.944,0.288c0.288-0.432,0.648-0.864,1.008-1.296c0-0.432,0-0.936,0.072-1.44
		c-0.576-0.576-2.016-1.224-2.232-1.584c0.216-0.216,0.216-0.216,1.872,0c5.184,1.872,10.368,3.816,15.624,5.76
		c0.936,1.008,0.936,1.008,1.944,1.44c-1.008,0.504-1.008,0.504-3.168,0.72c-0.072,0.144-0.216,0.288-0.36,0.432
		c0.072,0.36,0.144,0.72,0.216,1.152c0.288,0.288,0.576,0.576,0.864,0.864c1.368,0.36,2.736,0.72,4.104,1.152
		c0.36-0.288,0.36-0.288,0.36-1.2961c-0.144-0.144-0.288-0.288-0.504-0.432c-0.144-0.72-0.36-1.44-0.576-2.16
		c4.968,1.44,9.936,2.88,14.904,4.392c0.144,0.216,0.288,0.432,0.432,0.72c6.048,1.944,13.248,3.8159,24.984,7.7039
		c0.936,0.144,1.872,0.2881,2.88,0.432c1.944,0.648,3.96,1.2961,5.976,1.944c2.232,0.432,4.464,0.936,6.768,1.44
		c7.632,2.376,9.792,3.384,21.312,6.696c2.448,1.008,2.448,1.008,12.744,3.888c8.856,1.872,23.976,5.76,41.04,9.576
		c12.024,1.944,26.4239,3.816,26.6399,4.104c2.592,0.144,5.256,0.288,7.92,0.432c9.576,1.44,9.576,1.44,15.84,1.944
		c5.976,0,12.96,0.504,23.544,0.72c3.024-0.072,6.048-0.144,9.072-0.216c15.84-1.224,18.72-1.728,21.168-1.8
		c0,0.216-0.072,0.432-0.144,0.72c-0.36,0.288-0.792,0.576-1.224,0.936c-1.224,1.584-2.52,3.168-3.816,4.824
		c-1.44,0.936-3.384,2.88-4.824,3.816c-8.856,7.92-8.856,7.92-15.1199,14.184c-0.864,0.648-1.8,1.296-2.736,1.944
		C329.544,329.904,320.616,330.336,314.424,330.336L314.424,330.336z M385.704,306.144c-11.52-1.944-11.52-1.944-19.4399-3.6
		c-0.072-0.072-0.144-0.216-0.288-0.36c1.872-2.376,3.816-4.752,5.76-7.128c1.008-0.864,2.088-1.728,3.168-2.592
		c0.432,0,0.936,0,1.44,0c1.656,0.936,4.32,1.872,10.296,4.752c1.44,1.008,2.88,1.44,6.264,3.384
		c0.432,0.504,0.864,1.008,1.296,1.584c0,0.504,0,1.08,0,1.656c-0.3599,0.36-0.72,0.792-1.08,1.224
		c-1.0079,0.36-2.016,0.72-3.096,1.08C388.584,306.144,387.144,306.144,385.704,306.144L385.704,306.144z M319.176,303.48
		c-9.36-0.72-9.36-0.72-18.432-0.936c-15.408-1.728-15.624-1.944-17.28-1.944c-0.288-0.144-0.648-0.288-1.008-0.504
		c-4.392-0.36-8.784-0.72-13.176-1.152c-5.04-1.008-5.04-1.008-12.24-1.944c-8.568-1.872-17.136-3.816-25.704-5.76
		c-13.896-3.816-13.896-3.816-16.776-4.8239c-1.656,0-1.656,0-3.384-0.432c-0.072-0.288-0.216-0.576-0.36-0.864
		c0.216-0.144,0.432-0.288,0.72-0.432c0.288-0.648,0.576-1.296,0.936-1.944c3.888-4.8239,6.768-7.92,7.704-9.36
		c1.224-1.08,2.448-2.232,3.744-3.384c0.36,0,0.7921-0.072,1.224-0.144c2.88,0.72,2.88,0.72,3.096,1.008c0.504,0,1.08,0,1.656,0
		c0.36,0.216,0.792,0.432,1.224,0.72c7.2,1.872,7.2,1.872,7.416,2.16c5.04,0.936,6.264,1.44,8.64,1.872
		c1.008,0.504,1.008,0.504,1.8,1.368c0,0.216,0,0.432,0,0.72c-2.664,2.664-2.664,2.664-3.384,3.0959
		c-0.936,1.44-0.936,1.44-7.2,7.92c0,0.576,0,1.152,0,1.728c0.432,0.288,0.432,0.288,1.872,0.072c0.288-0.576,0.576-1.152,0.936-1.8
		c5.976-6.336,8.136-8.28,9.576-10.224c0.6479-0.432,1.296-0.936,1.944-1.44c18.72,1.728,18.72,1.728,33.12,2.664
		c0.144,0.072,0.288,0.216,0.504,0.36c-7.704,9-7.704,9-10.584,12.96c-0.864,1.728-0.864,1.728-1.08,2.88
		c0.144,0.072,0.36,0.216,0.576,0.36c0.288-0.072,0.648-0.144,1.0081-0.216c1.8719-3.024,1.8719-3.024,3.816-5.544
		c0.648-0.504,1.296-1.08,1.944-1.656c3.816-4.968,3.816-4.968,7.2-8.784c7.416-0.144,7.416-0.144,24.696,0.36
		c1.512,0.144,3.024,0.288,4.536,0.504c1.08,0,2.232-0.072,3.384-0.144c-0.072,0.36-0.216,0.792-0.36,1.224
		c-0.936,1.224-1.8719,2.52-2.8799,3.816c-1.152,1.152-2.304,2.304-3.4561,3.456c-0.6479-0.072-1.296-0.144-1.944-0.216
		c-0.432-0.288-0.936-0.576-1.44-0.936c-0.288,0.072-0.576,0.144-0.936,0.216c-0.72-0.36-1.44-0.792-2.16-1.224
		c-0.936,0.072-1.872,0.144-2.88,0.288c-0.144,0.144-0.288,0.288-0.504,0.432c-1.2241-0.144-2.52-0.288-3.816-0.432
		c-1.512-0.576-3.024-1.152-4.608-1.8c-0.936,0-1.872-0.072-2.88-0.144c-1.08-0.432-2.16-0.936-3.312-1.44c-0.36,0-0.792,0-1.224,0
		c-0.576-0.216-1.152-0.504-1.728-0.792c0,0.576,0.072,1.224,0.144,1.872c1.8,1.008,6.84,4.824,8.568,5.616
		c1.152,1.008,1.152,1.008,3.312,1.944c3.888,3.384,3.888,3.384,5.04,4.896c1.296,0.648,2.592,1.368,3.888,2.088
		c0.432,0.72,0.432,0.72,0.936,0.936c1.368,0,2.736,0,4.1039,0c0.7921-1.512,0.7921-1.512,1.296-3.672c0-2.16,0-2.16,0.36-3.024
		c0.36,0,0.7921-0.072,1.224-0.144c0.072-0.36,0.144-0.72,0.288-1.152c0.288-0.36,0.6479-0.792,1.008-1.224c0-0.432,0-0.936,0-1.44
		c2.664-3.024,5.328-6.048,7.992-9.144c10.8719-0.144,11.808,0.144,15.912-0.144c1.368,0,2.808,0.072,4.248,0.144
		c0,0.288,0,0.576,0.072,0.864c-1.728,0.432-1.728,0.432-2.16,0.792c0.288,1.368,0.6479,2.7361,1.008,4.104
		c-3.816,5.544-3.816,5.544-4.752,6.48c-0.864,0-1.8,0.072-2.736,0.144c-1.44-1.008-1.44-1.008-2.664-1.296
		c-0.072,0.216-0.144,0.504-0.216,0.792c-1.008,0.504-2.88,0.936-3.6,1.44c-0.576,0-1.152,0.0721-1.728,0.144
		c2.16,2.016,2.16,2.016,5.04,3.96c2.664,0.936,2.664,0.936,3.168,1.44c0.504,0.072,1.08,0.144,1.656,0.216
		c0.504-0.36,1.08-0.72,1.656-1.08c-0.144-0.936,0.144-1.152,0.144-2.8799c1.872-3.096,2.88-4.032,6.696-9.36
		c2.304-1.44,2.304-1.44,2.52-1.944c0.504-0.144,1.008-0.288,1.584-0.432c0.4319-0.936,0.72-2.664,0.576-3.6
		c2.4479-0.144,2.4479-0.144,8.424,0.072c0.4319,0.144,0.936,0.288,1.44,0.504c2.088,0.072,4.176,0.144,6.264,0.216
		c0.36,0.288,0.72,0.648,1.152,1.008c0.864,2.304,1.296,2.736,3.24,6.84c0.144,0.144,0.288,0.288,0.504,0.504
		c0,0.504,0,1.08,0,1.656c-1.44,1.224-2.88,2.52-4.32,3.816c-1.368,1.656-2.736,3.312-4.104,5.04
		c-0.072,0.504-0.216,1.008-0.36,1.584c-0.432,0-0.936,0-1.44,0c-0.288-0.288-0.576-0.648-0.936-1.008
		c-0.72-0.0721-1.44-0.144-2.16-0.216c-5.256,0.936-5.256,0.936-6.264,1.44c-6.192,0.432-12.456,0.936-18.72,1.44
		C329.76,303.48,324.504,303.48,319.176,303.48L319.176,303.48z M328.104,293.184c-0.648-0.576-1.296-1.1519-1.944-1.8
		c0.216,0,0.4319-0.072,0.72-0.144c0.576,0.288,1.152,0.576,1.8,0.864c0,0.936,0,0.936-0.36,1.224
		C328.248,293.328,328.176,293.256,328.104,293.184L328.104,293.184z M377.064,290.664c0.072-0.36,0.144-0.792,0.288-1.224
		c2.16-2.376,3.024-2.88,4.608-4.536c0.36,0,0.72,0,1.08,0c-0.72,0.936-1.44,1.944-2.16,2.952c-1.44,1.08-1.44,1.08-2.88,2.664
		C377.712,290.52,377.424,290.592,377.064,290.664L377.064,290.664z M308.376,290.016c-0.72-0.432-0.72-0.432-1.08-1.008
		c0-0.288,0-0.648-0.072-1.008c0.936,0.36,0.936,0.36,1.512,1.008c0,0.288,0,0.576,0,0.936
		C308.664,289.944,308.52,289.944,308.376,290.016L308.376,290.016z M375.12,288.36c-0.216-0.144-0.432-0.36-0.72-0.576
		c-0.648-1.44-1.368-2.88-2.088-4.32c0-0.4319,0-0.936-0.072-1.44c1.224,0.072,2.52,0.216,3.816,0.36
		c1.296,0.504,2.592,1.008,3.8879,1.512c-1.368,1.44-2.736,2.952-4.104,4.4641C375.624,288.36,375.408,288.36,375.12,288.36
		L375.12,288.36z M395.784,285.696c-1.08-0.144-2.2319-0.288-3.384-0.432c-1.44-0.432-2.88-0.864-4.32-1.2961
		c0-0.288,0-0.6479,0-1.008c0.864-0.792,1.728-1.584,2.664-2.376c0.288,0,0.576-0.072,0.936-0.144
		c1.5119,0.792,3.0239,1.584,4.5359,2.376c0.432,0.504,0.936,1.008,1.44,1.584c0,0.288,0.072,0.648,0.144,1.008
		C397.44,285.696,397.44,285.696,395.784,285.696L395.784,285.696z M207.864,284.976c-3.384-0.936-4.32-1.44-8.64-2.376
		c-1.008-0.504-3.384-0.936-15.12-4.824c-12.744-3.816-12.744-3.816-26.424-8.352c-2.16-1.008-2.16-1.008-10.08-3.888
		c-1.944-0.288-3.96-0.576-5.976-0.936c-3.456-1.224-6.912-2.52-10.368-3.816c-4.176-1.296-8.424-2.592-12.672-3.888
		c-6.192-2.232-12.456-4.464-18.72-6.696c-2.952-1.224-5.904-2.52-8.928-3.816c-5.04-1.44-5.76-1.944-8.424-2.736
		c-0.072-0.288-0.144-0.648-0.216-1.008c1.872-0.072,3.816-0.216,5.76-0.36c0.576-0.144,1.152-0.288,1.728-0.504
		c5.832-0.504,11.664-1.08,17.496-1.656c1.368,0,2.736,0.0721,4.104,0.144c0,0.288-0.072,0.576-0.144,0.936
		c-0.792,0.792-1.584,1.584-2.448,2.448c-0.936,1.296-1.872,2.664-2.88,4.032c0,0.504,0.072,1.08,0.144,1.656
		c0.288,0,0.648,0.072,1.008,0.144c0.72-0.504,2.448-3.2401,4.392-5.4c1.224-0.936,1.224-0.936,1.584-1.584c0.36,0,0.792,0,1.224,0
		c0.792,1.584,0.792,1.584,1.728,4.968c1.08,1.8,2.16,3.6,3.312,5.4c0.432,0,0.864-0.072,1.296-0.144c0-0.576,0-1.224,0-1.872
		c-1.944-3.168-1.944-3.168-2.448-3.6c-0.936-2.4481-0.936-2.4481-1.728-6.048c2.376,0.36,5.04,1.296,17.28,4.176
		c1.512,0.576,3.024,1.152,4.536,1.8c-0.864,0.648-1.728,1.368-2.664,2.088c-1.944,2.088-3.96,4.176-5.976,6.336
		c0,0.36-0.072,0.792-0.144,1.224c0.36,0.072,0.72,0.216,1.08,0.36c2.376-2.448,4.752-4.968,7.2-7.4879
		c0.288-0.144,0.648-0.288,1.008-0.432c0.36-0.432,0.72-0.864,1.152-1.368c2.448,0.144,2.448,0.144,6.048,1.08
		c2.592,1.008,9.072,2.88,16.56,5.76c0.432,0.288,0.936,0.576,1.44,0.864c-8.928,8.064-8.928,8.064-9.792,9.144
		c0,0.36,0,0.7921,0,1.224c0.216,0.144,0.432,0.2881,0.6479,0.432c0.288-0.144,0.576-0.288,0.936-0.432
		c0.648-0.792,1.296-1.584,2.016-2.448c2.088-1.872,4.176-3.8159,6.264-5.76c0.72-0.432,1.512-0.864,2.304-1.296
		c2.376,0.216,2.376,0.216,4.32,0.72c0.72,0.432,0.72,0.432,3.096,0.936c0.216-0.072,0.432-0.144,0.72-0.216
		c0.072-0.4319,0.144-0.864,0.288-1.296c5.4,1.512,10.8,3.024,16.272,4.608c0.144,0.216,0.288,0.432,0.504,0.648
		c-0.936,1.08-1.656,1.512-5.76,5.832c-1.224,1.728-2.448,3.456-3.744,5.184c0.072,0.432,0.144,0.936,0.216,1.44
		c0.288,0,0.576,0.072,0.864,0.144c0.36-0.36,0.792-0.72,1.224-1.08c1.8-2.88,1.8-2.88,3.672-5.256
		c1.944-1.944,3.888-3.888,5.904-5.904c3.888,0.72,14.4,3.6,19.728,4.536c2.592,0.72,5.256,1.512,7.92,2.304
		c0,0.216-0.072,0.432-0.144,0.72c-4.608,4.824-4.608,4.824-5.328,5.256c-4.032,4.824-4.032,4.824-6.48,8.208
		c-0.072,0.576-0.144,1.152-0.288,1.728C208.872,284.976,208.368,284.976,207.864,284.976L207.864,284.976z M384.264,282.816
		c-2.52-0.792-5.1121-1.584-7.704-2.376c-2.16-0.288-4.32-0.576-6.48-0.936c-1.224-1.224-1.224-1.224-3.024-3.744
		c0-0.288,0-0.576,0-0.936c1.656-1.44,1.656-1.44,2.52-2.808c1.44,0,1.44,0,2.448,0.504c0.288,0.288,0.576,0.576,0.936,0.936
		c3.024,1.2961,6.048,2.592,9.144,3.888c2.016,0.648,4.104,1.296,6.192,2.016c0,0.288,0.072,0.648,0.144,1.008
		c-0.936,0.792-1.872,1.584-2.88,2.376C385.128,282.744,384.696,282.744,384.264,282.816L384.264,282.816z M362.376,278.496
		c-0.5041-0.144-1.08-0.288-1.656-0.432c-11.952,0-23.9761,0.072-36,0.144c0-0.216-0.072-0.432-0.144-0.72
		c1.08-1.008,1.08-1.008,2.808-1.872c0.288-1.296,0.288-1.296,0-1.656c-3.6-0.936-3.6-0.936-8.4241-2.88
		c-0.288-0.288-0.5759-0.576-0.936-0.936c-0.432-0.144-0.936-0.288-1.44-0.504c-0.4319,0.072-0.936,0.144-1.44,0.216
		c-3.024,1.728-6.048,3.528-9.144,5.328c0,0.36-0.072,0.72-0.144,1.08c0.576,0.72,0.576,0.72,2.088,1.44
		c-0.288,0.36-0.288,0.36-2.16,0.576c-10.512-0.288-21.096-0.576-31.68-0.936c-14.688-1.44-15.12-1.728-17.568-1.728
		c-1.296-0.216-2.592-0.504-3.96-0.792c0-0.288,0-0.576,0-0.936c1.8-0.936,3.6-1.872,5.4-2.808c0-0.648,0.072-1.296,0.144-2.016
		c-0.216-0.216-0.432-0.432-0.648-0.72c-2.376-0.36-4.752-0.72-7.128-1.08c-0.144-0.144-0.288-0.288-0.504-0.504
		c-0.432-0.072-0.936-0.144-1.44-0.216c-1.656,0.576-3.312,1.224-5.04,1.872c-1.44,0.864-2.88,1.728-4.3199,2.664
		c-2.664-0.216-2.664-0.216-9.36-1.656c-5.76-1.944-10.08-2.88-13.176-3.888c-3.168-0.576-6.408-1.224-9.648-1.872
		c-8.352-2.448-11.016-2.88-28.8-7.704c-1.656-0.936-1.656-0.936-5.976-2.376c-7.92-10.224-7.92-10.224-9.864-13.104
		c-0.288-0.648-0.576-1.2961-0.936-1.944c-2.16-2.0161-2.16-2.0161-3.024-3.312c-0.072-0.432-0.144-0.936-0.216-1.44
		c-1.08-1.224-1.08-1.224-1.8-1.584c-0.432-0.072-0.936-0.144-1.44-0.216c-0.504-0.504-0.504-0.504-3.096-1.728
		c-2.448-0.432-3.6-0.936-6.0479-1.44c-2.16-0.936-5.472-1.872-7.92-2.88c-9.576-2.88-9.576-2.88-11.952-3.312
		c-4.824-1.944-4.824-1.944-5.544-2.448c-5.976-1.872-5.976-1.872-10.08-3.6c-2.304-0.288-4.608-0.576-6.984-0.936
		c-0.864-1.44-1.8-2.88-2.736-4.392c-0.072-0.576-0.216-1.152-0.36-1.7281c2.16,0.36,7.92,2.304,11.736,3.2401
		c0.864,0.072,1.728,0.144,2.664,0.216c7.2,1.944,7.2,1.944,9.36,2.88c1.944,0.648,3.96,1.296,5.976,1.944
		c4.608,0.936,7.488,1.944,10.584,2.376c4.824,1.944,4.824,1.944,12.24,4.32c2.664,0.504,3.6,1.008,7.416,1.944
		c1.656,0.144,3.312,0.288,5.04,0.504c0.504-0.504,0.504-0.504,0.576-1.296c-0.936-2.448-0.936-2.448-1.152-4.32
		c0.144-0.216,0.288-0.432,0.432-0.72c0-0.72,0-1.44,0-2.16c-1.224-2.304-2.52-4.608-3.816-6.984
		c-0.864-2.088-1.728-4.176-2.664-6.264c0-0.504,0.072-1.08,0.144-1.656c0.72-0.288,1.44-0.576,2.16-0.864
		c4.176-0.936,8.352-1.872,12.528-2.88c2.376-0.936,2.376-0.936,4.536-1.44c3.816-1.944,6.48-2.88,8.136-3.816
		c4.248-1.584,8.496-3.168,12.744-4.824c7.7039-3.816,7.7039-3.816,10.8-5.76c0.288-0.288,0.576-0.576,0.936-0.936
		c0.432,0.072,0.936,0.144,1.44,0.216c2.448,1.944,2.448,1.944,5.544,3.816c3.672,3.312,7.344,6.696,11.016,10.08
		c7.704,10.4399,7.704,10.4399,8.208,11.448c0,0.36,0,0.792,0.072,1.224c-0.504,0.432-1.44,2.376-3.384,4.536
		c-0.144,0.72-0.288,1.44-0.432,2.16c-1.008,1.944-1.008,1.944-2.016,2.952c-1.728,1.08-3.528,2.232-5.328,3.384
		c-2.376,0.936-3.816,1.944-10.08,4.32c-1.656,0.936-1.656,0.936-4.536,1.944c-4.608,1.008-9.216,2.016-13.896,3.096
		c-4.176,0.504-8.352,1.08-12.528,1.656c-1.152-0.072-2.376-0.144-3.6-0.216c-0.72,0.576-0.72,0.576-0.936,1.08
		c0.936,1.296,0.936,1.296,1.656,1.584c2.592-0.072,5.256-0.144,7.92-0.288c3.024-0.36,6.048-0.72,9.144-1.152
		c14.616-2.664,14.616-2.664,22.104-3.6c2.736-0.648,5.544-1.296,8.352-1.944c1.728-0.072,3.528-0.144,5.328-0.216
		c0.144-0.144,0.288-0.288,0.432-0.504c1.44-0.288,2.88-0.576,4.32-0.936c1.512-0.576,3.024-1.152,4.608-1.728
		c1.5121,0.216,3.024,0.432,4.536,0.72c2.088,2.016,4.176,4.032,6.264,6.048c0.936,0.432,0.936,0.432,3.816,0.936
		c3.096,0.288,6.192,0.576,9.36,0.936c0.936,0.504,0.936,0.504,17.28,4.32c5.544,1.944,5.544,1.944,9.36,2.88
		c15.84,5.76,18,6.768,19.944,7.2c4.032,1.944,4.032,1.944,23.7599,9.648c5.184,2.52,10.368,5.04,15.5521,7.632
		c2.736,1.872,5.472,3.816,8.208,5.7599c0.792,0.936,1.5839,1.872,2.448,2.808c1.008,2.16,1.008,2.16,1.728,3.096
		c0,0.144-0.072,0.36-0.144,0.576C364.824,278.496,363.6,278.496,362.376,278.496L362.376,278.496z M365.256,272.52
		c-5.04-3.96-6.912-5.0399-9.504-7.056c0-0.36,0-0.792,0-1.224c1.008-1.656,1.008-1.656,5.688-7.7039c0.288,0,0.576,0,0.936-0.0721
		c0.576,0.7921,1.1519,1.656,1.8,2.52c0.936,1.872,1.872,3.816,2.88,5.76c0.144,0.936,0.288,1.872,0.504,2.88
		c0.936,1.944,0.936,1.944,1.152,3.096c-1.08,1.008-1.08,1.008-2.448,1.8C365.976,272.52,365.616,272.52,365.256,272.52
		L365.256,272.52z M56.664,266.76c-2.808-0.7921-5.616-1.584-8.424-2.376c-1.8-1.08-3.672-2.232-5.544-3.384
		c-0.36-0.432-0.72-0.936-1.152-1.44c-6.264-3.816-6.264-3.816-7.488-4.824c-0.432-0.72-0.432-0.72-2.592-2.736
		c0-0.36,0-0.72-0.072-1.152c0.864,0.216,1.728,0.504,2.664,0.792c1.656,0.936,3.312,1.872,5.04,2.88
		c0.864,1.08,0.864,1.08,1.296,2.088c1.08,0.576,2.16,1.152,3.312,1.728c0.576,0.648,1.224,1.296,1.872,1.944
		c2.232,1.224,4.464,2.52,6.768,3.816c6.696,1.944,6.696,1.944,7.2,2.304c-0.072,0.0721-0.144,0.216-0.288,0.36
		C58.392,266.76,57.528,266.76,56.664,266.76L56.664,266.76z M352.584,263.664c-13.464-6.768-13.464-6.768-14.472-7.056
		c0-0.36,0-0.792-0.072-1.224c3.816-5.976,3.816-5.976,7.56-10.944c0.288,0,0.576,0,0.936,0c11.088,7.704,11.088,7.704,13.68,9.936
		c-0.288,0.648-0.576,1.296-0.936,1.944c-0.432,0.36-0.936,0.72-1.4401,1.08c-1.368,2.088-2.736,4.176-4.1039,6.264
		C353.376,263.664,353.016,263.664,352.584,263.664L352.584,263.664z M334.08,255.024c-4.32-1.944-4.32-1.944-15.1201-6.12
		c0-0.36-0.072-0.792-0.144-1.224c0.936-0.936,0.936-0.936,6.696-9.072c0.648-0.648,1.368-1.368,2.088-2.088c0.72,0,1.44,0,2.16,0
		c0.936,0.288,1.872,0.576,2.88,0.936c1.44,0.7921,2.88,1.584,4.32,2.448c1.08,0.2881,2.232,0.576,3.384,0.936
		c0.432,0.504,2.376,1.44,3.6,2.52c-2.736,3.888-5.472,7.776-8.208,11.664C335.232,255.024,334.656,255.024,334.08,255.024
		L334.08,255.024z M291.6,254.52c-4.824-1.944-4.824-1.944-6.9841-2.376c-0.4319-0.648-0.4319-0.648-0.5759-1.8
		c0.936-1.224,0.936-1.224,2.2319-2.16c0.864-0.36,1.728-0.72,2.6641-1.08c0.936,0.072,1.8719,0.144,2.8799,0.216
		c2.88,0.936,4.608,1.944,6.84,2.808c0,0.36,0,0.72,0,1.152c-4.68,2.736-4.68,2.736-5.112,3.24
		C292.896,254.52,292.248,254.52,291.6,254.52L291.6,254.52z M88.344,252.864c-1.8-0.432-3.672-0.936-5.544-1.44
		c-0.936-1.008-0.936-1.008-2.304-1.8c0-0.936,0-0.936,0.36-1.368c0.936-0.0721,1.872-0.144,2.88-0.216
		c0.792,0.288,1.584,0.576,2.448,0.936c0.504,0.504,1.08,1.008,1.656,1.584c0.648,0.288,1.296,0.648,2.016,1.008
		c0,0.936,0,0.936-0.36,1.296C89.136,252.864,88.776,252.864,88.344,252.864L88.344,252.864z M315.36,247.32
		c-3.0959-0.936-3.0959-0.936-15.12-5.832c0-0.288-0.072-0.648-0.144-1.008c3.024-3.384,6.048-6.84,9.144-10.2961
		c0-0.216,0.072-0.4319,0.144-0.72c3.312,0.7921,8.352,2.736,10.8,3.24c1.512,0.576,3.024,1.224,4.536,1.872
		c0.144,0.216,0.288,0.432,0.504,0.648c-0.36,0.648-0.72,1.296-1.152,1.944c-0.216,0.144-0.432,0.288-0.72,0.432
		c-2.376,3.168-4.752,6.408-7.2,9.648C315.936,247.248,315.6479,247.248,315.36,247.32L315.36,247.32z M77.976,240.84
		c-0.144-0.072-0.36-0.216-0.576-0.36c0.216-1.152,0.432-2.376,0.72-3.6c3.816-9.072,3.816-9.072,7.632-16.992
		c0.288-0.36,0.648-0.792,1.008-1.224c0.36-1.08,0.72-2.232,1.152-3.384c-0.072-0.792-0.144-1.584-0.216-2.376
		c-0.504-0.432-1.08-0.936-1.656-1.44c-0.504-1.44-0.504-1.44-0.72-3.096c0.432-1.944,0.432-1.944,0.864-2.592
		c0.792,0,1.584,0,2.376,0c2.664,1.008,7.2,1.944,8.424,2.448c1.728,3.744,1.728,3.744,4.176,8.064
		c-0.288,3.096-0.288,3.096,0,3.312c0.576,1.872,1.224,3.816,1.872,5.76c0.648,1.08,1.296,2.232,1.944,3.384
		c0.936,2.664,0.936,2.664,2.88,6.264c1.944,1.872,1.944,1.872,2.16,2.376c-1.584,0.216-3.24,0.504-4.896,0.792
		c-1.152,0-2.376,0-3.6,0c-1.944,0.288-3.96,0.648-5.976,1.008c-3.168,0-3.168,0-6.264,0.432c-1.44,0.504-1.44,0.504-3.384,0.72
		c-1.008-0.072-2.016-0.144-3.096-0.216c-0.36,0.144-0.792,0.288-1.224,0.504C80.424,240.696,79.2,240.768,77.976,240.84
		L77.976,240.84z M296.64,240.336c-2.16-0.576-4.32-1.224-6.48-1.872c-0.504-0.288-1.08-0.6479-1.656-1.008
		c-1.656-0.432-3.312-0.936-5.04-1.44c-0.576-0.432-1.224-0.864-1.872-1.296c0-0.288,0-0.576,0-0.936
		c0.216-0.144,0.432-0.288,0.72-0.504c0.144-0.432,0.288-0.936,0.504-1.44c1.872-2.5919,3.816-5.256,5.76-7.92
		c0.36-0.288,0.72-0.576,1.08-0.864c1.296,0.216,2.592,0.432,3.888,0.72c1.728,0.648,3.456,1.296,5.256,1.944
		c1.44,0.288,2.88,0.576,4.32,0.936c1.656,1.008,1.656,1.008,4.104,1.944c0,0.36,0,0.72,0.072,1.08
		c-3.096,3.384-3.096,3.384-4.32,4.32c-0.288,0.576-0.576,1.152-0.936,1.728c-1.512,1.512-3.096,3.024-4.6801,4.608
		C297.144,240.336,296.928,240.336,296.64,240.336L296.64,240.336z M32.184,235.8c-0.936-0.648-1.872-1.296-2.88-1.944
		c-4.104-1.872-4.104-1.872-6.264-2.376c-1.44-0.936-2.88-1.872-4.32-2.88c-0.288-0.432-0.576-0.936-0.936-1.44
		c-0.72-0.288-1.44-0.576-2.16-0.936c-1.152-1.08-1.152-1.08-1.584-2.016c-1.224-0.576-2.448-1.224-3.744-1.872
		c-1.08-0.864-2.16-1.8-3.312-2.736c-1.008-1.584-1.008-1.584-1.224-2.592c1.224-0.432,1.224-0.432,2.664-0.432
		c0.432,0.504,0.792,1.584,1.728,2.808c1.224,0.72,2.448,1.44,3.744,2.232c1.368,1.296,2.736,2.592,4.104,3.888
		c0.792,0.432,1.584,0.936,2.376,1.44c1.584,0.576,3.168,1.224,4.824,1.872c1.872,1.08,3.816,2.232,5.76,3.384
		c0.216,0.504,0.504,1.008,0.792,1.584c0.36,0.288,0.792,0.576,1.224,0.936c-0.216,1.008-0.216,1.008-0.576,1.224
		C32.328,235.944,32.256,235.872,32.184,235.8L32.184,235.8z M279.144,235.08c-9.6479-1.944-9.6479-1.944-15.408-3.384
		c0-0.288-0.072-0.648-0.144-1.008c0.648-1.368,1.296-2.736,1.944-4.104c1.944-2.376,3.816-5.544,5.76-7.704
		c1.08,0,2.16-0.072,3.24-0.144c0.504,0.432,1.008,0.864,1.584,1.368c0,0.72,0,1.44,0,2.16c1.08,1.224,1.08,1.224,2.88,2.664
		c0.936,2.376,0.936,2.376,0.864,2.952c-0.6479,0.072-1.296,0.144-1.944,0.216c-0.216,0.216-0.432,0.432-0.648,0.6479
		c0,1.944,0,1.944,0.36,3.096c0.432,0.288,0.864,0.648,1.368,1.008C279.432,235.008,279.432,235.008,279.144,235.08L279.144,235.08z
		 M59.76,234.36c-1.224-0.144-2.52-0.288-3.816-0.504c-0.864-0.432-1.728-0.864-2.592-1.296c0-0.216,0-0.432,0-0.72
		c0.72-0.576,1.512-1.152,2.304-1.8c1.584-0.288,3.168-0.576,4.824-0.936c2.664-1.008,5.976-2.88,9.576-4.32
		c1.44-1.008,1.44-1.008,3.384-1.728c1.008,0,2.016,0.072,3.096,0.144c0,0.72,0.072,1.44,0.144,2.16
		c-0.216,1.728-0.432,3.528-0.72,5.328c-0.792,0.432-1.656,0.864-2.52,1.296c-2.664,0.432-2.664,0.432-5.256,1.44
		C63.576,233.856,61.2,234.36,59.76,234.36L59.76,234.36z M258.696,230.976c-0.72-0.144-1.44-0.288-2.16-0.432
		c-4.536-3.888-4.536-3.888-8.064-7.56c0-0.72,0-0.72,1.44-3.384c0.288-0.36,0.648-0.72,1.008-1.152
		c0.576-1.296,1.224-2.592,1.872-3.888c0.864-0.144,0.864-0.144,9.288,1.296c2.2321,0.576,4.4641,1.224,6.696,1.872
		c0,0.36,0.072,0.72,0.144,1.152c-1.008,1.008-1.008,1.008-4.824,6.48c-1.08,1.872-2.16,3.744-3.24,5.616
		C260.136,230.976,259.416,230.976,258.696,230.976L258.696,230.976z M78.984,227.52c0.072-3.816,0.072-3.816,0.288-4.536
		c0.432-0.288,0.864-0.576,1.368-0.936c0.432-0.072,0.936-0.144,1.44-0.288c-0.72,1.728-1.512,3.528-2.304,5.328
		C79.56,227.232,79.272,227.376,78.984,227.52L78.984,227.52z M282.96,227.52c-0.072-1.152-0.216-2.376-0.3599-3.5999
		c-0.648-0.72-1.2961-1.44-1.944-2.16c-0.072-0.36-0.216-0.72-0.36-1.152c5.328,0.792,5.328,0.792,6.984,1.296
		c0.072,0.072,0.144,0.216,0.216,0.36c-2.8801,3.816-2.8801,3.816-3.2401,4.824C283.824,227.232,283.392,227.376,282.96,227.52
		L282.96,227.52z M35.496,224.064c-1.944-0.648-3.96-1.368-5.976-2.088c-0.288-0.432-0.576-0.864-0.936-1.2961
		c-3.888-2.376-3.888-2.376-4.752-3.24c0-0.288,0-0.576,0-0.936c0.504-0.504,0.504-0.504,0.504-1.224
		c-1.224-0.576-2.448-1.152-3.672-1.8c-2.16-0.648-4.32-1.2961-6.48-1.944c-0.216-0.144-0.432-0.36-0.648-0.576
		c0-1.296,0-2.664,0-4.032c-1.368-0.792-2.736-1.584-4.104-2.448c-0.144-0.216-0.288-0.432-0.432-0.72
		c-1.584-1.008-3.168-2.0161-4.824-3.096c0-0.36,0.072-0.72,0.144-1.08c0.648,0,1.296,0,1.944,0C6.552,199.08,6.84,198.576,7.2,198
		c0.576,0.504,0.576,0.504,1.08,1.728c0.072,0.504,0.144,1.08,0.216,1.656c0.864,0.648,1.8,1.296,2.736,1.944
		c2.088,1.008,4.176,2.088,6.264,3.168c0.864,2.088,0.864,2.088,1.44,4.464c1.296,0.432,2.592,0.864,3.888,1.2961
		c0.288,0.36,0.576,0.792,0.936,1.224c1.44,0.648,2.88,1.296,4.32,1.944c2.88,1.872,2.88,1.872,4.104,2.952
		c0.072,1.008-0.144,1.224,0,2.088c0.216,0,0.504-0.072,0.792-0.144c0.072-0.432,0.144-0.936,0.216-1.44
		c0.216-0.072,0.432-0.216,0.648-0.36c2.16,0.216,2.16,0.216,8.856,1.656c0.144,0.144,0.36,0.288,0.576,0.432
		c0,0.72,0,0.72-0.432,1.152c-0.576,0.072-1.152,0.216-1.8,0.36c-0.504-0.072-1.08-0.216-1.656-0.36c0,0.432,0,0.936,0.072,1.44
		C39.096,223.56,39.096,223.56,35.496,224.064L35.496,224.064z M161.28,221.616c-2.16-0.144-4.32-0.288-6.48-0.432
		c-0.864-0.288-1.728-0.6479-2.664-1.008c-1.656-0.288-3.312-0.576-5.0399-0.936c-2.376-0.936-10.8-2.88-20.376-5.7599
		c-2.88-0.504-8.424-2.376-11.016-2.88c-3.744-1.224-7.488-2.52-11.304-3.816c-1.944-0.432-3.96-0.936-5.976-1.44
		c-0.36-0.36-0.792-0.72-1.224-1.08c-1.512-2.592-3.096-5.256-4.68-7.92c-0.288-0.864-0.648-1.728-1.008-2.664
		c0-0.4319,0.072-0.864,0.144-1.296c1.152,0.072,2.376,0.144,3.6,0.216c3.168,0.936,3.168,0.936,5.04,1.944
		c3.456,0.936,6.912,1.872,10.368,2.88c2.304,0.936,4.608,1.872,6.912,2.88c2.592,0.576,5.256,1.224,7.92,1.872
		c1.728,0.648,3.528,1.2961,5.328,1.944c3.24,0.648,6.48,1.2961,9.792,1.944c1.512,0.072,3.024,0.144,4.608,0.216
		c2.88-0.648,5.76-1.296,8.64-1.944c0.576,0,1.152,0.072,1.728,0.144c0.936,2.52,1.872,5.112,2.88,7.7039
		c1.944,3.384,1.944,3.384,2.448,3.816c1.872,4.824,1.872,4.824,2.16,5.04c0,0.144-0.072,0.36-0.144,0.576
		C162.432,221.616,161.856,221.616,161.28,221.616L161.28,221.616z M246.024,220.464c-4.104-4.32-4.104-4.32-4.968-5.616
		c0-0.576,0-1.152-0.072-1.728c5.472,0.36,5.472,0.36,9.072,1.008c0,0.432,0.072,0.936,0.144,1.44
		c-1.008,1.872-1.008,1.872-3.168,4.752C246.744,220.32,246.384,220.392,246.024,220.464L246.024,220.464z M80.64,218.304
		c-0.36-1.08-0.36-1.08-0.216-1.944c1.656-0.504,1.656-0.504,3.6-0.72c0.936,0.216,0.936,0.216,1.152,0.576
		c-0.432,0.864-0.432,0.864-1.152,1.368C82.944,217.8,81.792,218.016,80.64,218.304L80.64,218.304z M276.48,217.296
		c-0.936-0.432-0.936-0.432-2.088-1.728c0-0.216,0-0.432-0.072-0.72c0.36,0.072,0.792,0.144,1.224,0.288
		c0.792,0.576,1.584,1.152,2.376,1.8c-0.072,0.072-0.144,0.216-0.216,0.36C277.344,217.296,276.912,217.296,276.48,217.296
		L276.48,217.296z M56.376,215.424c-0.936-0.144-1.872-0.288-2.88-0.504c-1.944-1.368-3.96-2.736-5.976-4.104
		c-2.16-0.936-4.32-1.872-6.48-2.88c-2.088-0.36-4.176-0.72-6.264-1.152c-0.36-0.216-0.72-0.432-1.152-0.72
		c-0.36,0.072-0.792,0.144-1.224,0.216c-0.72-0.216-1.44-0.432-2.16-0.72c-0.216-0.36-0.432-0.72-0.72-1.08
		c0.144-0.144,0.288-0.36,0.504-0.576c1.44-0.288,1.44-0.288,1.656-0.648c-1.44-1.08-6.48-3.4561-6.984-3.9601
		c-1.656-0.432-3.312-0.936-5.04-1.44c-0.36-0.36-0.72-0.72-1.152-1.152c-3.6-1.944-4.104-2.448-5.328-2.88
		c-0.432-0.504-0.432-0.504-4.464-2.736c0-0.432,0.072-0.864,0.144-1.368c0.432-0.072,0.936-0.144,1.44-0.216
		C10.8,189,10.8,189,11.16,187.92c0.288,0,0.576-0.072,0.864-0.144c0,0.576,0,1.224,0.072,1.872c-0.504,0.432-0.504,0.432-0.72,1.44
		c2.016,1.224,4.032,2.52,6.12,3.816c2.16,0.792,2.16,0.792,8.424,4.392c1.944,0.504,1.944,0.504,6.264,2.448
		c0.432,0.2881,0.936,0.576,1.44,0.936c0.576,1.8,0.576,1.8,0.432,2.808c3.024,0.576,6.048,1.152,9.144,1.728
		c6.984,2.448,6.984,2.448,7.272,2.808c0,0.432,0,0.936,0,1.44c0.504,0.2881,1.008,0.576,1.584,0.936
		c4.32,1.2961,4.32,1.2961,5.04,1.8c0,0.288,0.072,0.576,0.144,0.864C56.592,215.568,56.592,215.568,56.376,215.424L56.376,215.424z
		 M80.424,213.408c0-1.008-0.072-2.088-0.144-3.168c0.936-6.4799,1.656-8.856,3.6-20.592c0.072-1.656,0.216-3.312,0.36-5.04
		c0.288,0.072,0.576,0.144,0.936,0.216c1.008,2.088,2.016,4.176,3.024,6.264c0,0.504,0,1.08,0,1.656
		c-1.944,5.04-3.384,7.92-5.544,13.896c0,1.368,0,2.736,0,4.104c0.504,1.224,0.504,1.224,0.504,1.944
		C82.296,212.904,81.36,213.12,80.424,213.408L80.424,213.408z M287.496,211.536c-0.936-0.432-0.936-0.432-3.816-0.936
		c-2.16-1.44-2.16-1.44-3.24-1.8c0-0.432,0.072-0.936,0.144-1.44c1.152,0.36,1.152,0.36,3.096,1.584c0.792,0,1.584,0,2.376,0
		c0.288-0.216,0.648-0.432,1.0081-0.648c0-0.288-0.072-0.576-0.144-0.936c0.216-0.216,0.504-0.432,0.792-0.72
		c0.216,0.072,0.504,0.216,0.7921,0.36c1.44-0.216,1.44-0.216,1.728-0.576c-0.072-0.432-0.144-0.936-0.216-1.44
		c-0.936-1.44-0.936-1.44-1.944-2.376c-0.072-0.288-0.144-0.648-0.216-1.008c0.072-0.144,0.216-0.36,0.36-0.576
		c0.288,0,0.6479,0,1.008,0c0.936,0.504,1.872,1.08,2.88,1.656c0.648,0,1.296,0,2.016-0.072c0-0.216,0-0.432,0-0.72
		c-0.72-0.864-1.44-1.728-2.16-2.664c0-0.72,0-0.72,0.36-1.08c0.504,0.072,1.08,0.144,1.656,0.216
		c0.072-0.072,0.144-0.216,0.288-0.36c-3.6-1.8-3.6-1.8-6.264-2.736c-1.872-0.288-3.816-0.648-5.76-1.008
		c-3.744-1.584-7.488-3.168-11.304-4.752c-1.584-0.288-3.168-0.648-4.752-1.008c-7.488-2.88-7.488-2.88-8.928-3.816
		c0-0.36-0.072-0.72-0.144-1.08c0.648-0.36,0.648-0.36,3.024-0.576c0.432,0.072,0.936,0.144,1.44,0.216
		c0.072-0.072,0.144-0.216,0.288-0.36c-1.0079-1.584-1.0079-1.584-2.16-2.52c-1.944-0.936-1.944-0.936-3.168-2.016
		c-0.432-1.008-0.432-1.008-0.504-1.944c-0.936-0.36-0.936-0.36-3.312-0.576c-1.08-0.648-2.232-1.296-3.384-1.944
		c-4.032-0.936-4.032-0.936-4.32-1.296c0.144-0.216,0.288-0.432,0.504-0.648c0.36-0.072,0.72-0.144,1.08-0.288
		c0.144-0.36,0.288-0.792,0.432-1.224c0.432-0.288,0.864-0.576,1.368-0.864c1.656-0.432,3.312-0.936,5.04-1.44
		c0.36-0.504,0.792-1.08,1.224-1.656c0.288,0,0.576,0,0.936,0c0.216,0.216,0.432,0.432,0.72,0.72c1.44-0.072,2.88-0.144,4.32-0.288
		c0.36,0.432,0.36,0.432,0.576,1.584c-0.144,0.216-0.288,0.432-0.504,0.72c-3.4561,0.864-3.4561,0.864-11.8801,1.944
		c0,0.216,0,0.432,0,0.72c1.08,0.648,2.232,1.296,3.384,1.944c9.144,2.232,9.144,2.232,9.576,2.5919c0,0.432,0.072,0.936,0.144,1.44
		c-0.216,0.216-0.432,0.432-0.72,0.72c0.072,0.288,0.144,0.648,0.216,1.008c0.288,0.288,0.6479,0.576,1.008,0.936
		c0.432,0.864,0.936,1.728,1.44,2.664c0,0.936-0.288,1.44-0.144,2.376c2.16,0.792,2.16,0.792,2.6641,1.296
		c1.8719,0.432,3.816,0.936,5.76,1.44c2.88,1.224,5.7599,2.52,8.64,3.816c3.816,1.008,3.816,1.008,7.416,1.44
		c2.448,0.936,4.968,1.872,7.488,2.88c0.504,0.576,1.008,1.224,1.512,1.872c0,0.216,0,0.432,0,0.72
		c-1.512,0.792-1.512,0.792-2.376,1.656c0.144,1.08,0.288,2.232,0.4319,3.384c-0.576,0.288-0.576,0.288-3.456,0.432
		c0,0.936,0.072,1.872,0.144,2.88c-0.504,0.72-0.504,0.72-1.728,1.44c0,0.432,0,0.936,0,1.44c-0.432,0.504-0.432,0.504-2.016,1.2961
		C288,211.536,287.784,211.536,287.496,211.536L287.496,211.536z M140.184,203.616c-1.872-2.088-3.744-4.176-5.688-6.336
		c0-0.288,0.072-0.576,0.144-0.864c0.792-0.144,1.584-0.288,2.376-0.432c0.576,0.072,1.152,0.144,1.728,0.216
		c0.072,0.648,0.144,1.368,0.288,2.088c1.368,1.296,2.736,2.664,4.104,4.032c0.072,0.36,0.144,0.792,0.216,1.224
		C142.344,203.544,141.264,203.544,140.184,203.616L140.184,203.616z M92.664,203.184c-1.44-0.4319-2.88-0.9359-4.32-1.44
		c0-0.504-0.072-1.008-0.144-1.584c0.576-1.368,1.152-2.736,1.8-4.104c0.216-0.072,0.432-0.144,0.72-0.216
		c0.216,0.792,0.504,1.584,0.792,2.448c0.648,1.08,1.296,2.16,1.944,3.312c0.072,0.432,0.144,0.936,0.216,1.44
		C93.384,203.04,93.024,203.112,92.664,203.184L92.664,203.184z M156.744,201.024c-0.432-0.576-0.864-2.016-1.368-2.52
		c-0.936-2.16-0.936-2.16-1.44-2.664c0-0.576,0-1.224-0.0721-1.872c0.2881,0.072,0.576,0.144,0.936,0.216
		c0.792,0.864,1.584,1.8,2.376,2.736c0.576,0.288,1.152,0.576,1.728,0.936c0.288,0.432,0.576,0.864,0.936,1.368
		c0,0.288,0,0.576,0.072,0.936c-0.576,0.288-1.152,0.576-1.728,0.864C157.752,201.024,157.248,201.024,156.744,201.024
		L156.744,201.024z M108.216,194.544c-0.864-0.288-1.8-0.576-2.736-0.864c0-0.36,0-0.72,0-1.1519
		c0.288-0.432,0.576-0.936,0.936-1.44c1.08-0.288,2.16-0.576,3.24-0.864c2.16-1.944,2.16-1.944,3.168-3.24
		c1.008-0.504,2.016-1.008,3.096-1.584c0.792-0.072,1.584-0.144,2.376-0.216c1.008-0.648,2.088-1.296,3.168-1.944
		c2.88-0.936,6.696-2.88,11.016-4.536c0.648,0,1.296,0,1.944,0.072c0.864,3.168,1.8,6.408,2.736,9.648
		c0,0.72-0.072,1.44-0.144,2.232c-1.152,0.504-5.04,1.44-5.76,1.944c-0.072,0.288-0.216,0.576-0.36,0.864
		c-0.504,0.216-1.008,0.504-1.512,0.7921c-2.448-0.072-4.968-0.144-7.488-0.216c-3.096-0.936-7.416-1.656-10.08-2.664
		c-0.36,0-0.72,0-1.152,0c-0.288,0.36-0.648,0.792-1.008,1.224c-0.216,0.648-0.432,1.296-0.72,1.944
		C108.72,194.544,108.504,194.544,108.216,194.544L108.216,194.544z M181.656,193.32c-1.872-2.16-1.872-2.16-3.96-3.96
		c0-0.432,0.072-0.864,0.144-1.296c2.16,0,2.16,0,3.6,0.432c0.936,0.936,1.872,1.872,2.88,2.88c0,0.36,0,0.72,0.072,1.152
		c-0.432,0.2159-0.864,0.504-1.296,0.792C182.664,193.32,182.16,193.32,181.656,193.32L181.656,193.32z M144.504,192.024
		c0.072-0.288,0.144-0.576,0.216-0.864c0.864-0.288,1.728-0.576,2.664-0.936c0.432,0,0.864,0.072,1.296,0.144
		c0,0.216,0,0.432,0,0.72C148.032,191.52,148.032,191.52,144.504,192.024L144.504,192.024z M151.92,190.224
		c-0.36-0.576-0.36-0.576-0.288-2.016C162,184.464,162,184.464,166.32,182.52c0.288-0.36,0.576-0.72,0.936-1.08
		c0-0.576,0.072-1.224,0.144-1.872c-3.888-4.104-3.888-4.104-5.904-5.76c0-0.216,0-0.432,0-0.72c1.44-0.288,2.88-0.576,4.32-0.864
		c8.136-0.144,16.272-0.288,24.48-0.504c2.52,0.288,5.112,0.576,7.704,0.936c0.36,0.144,0.792,0.288,1.224,0.504
		c0.072,0.288,0.144,0.576,0.288,0.864c-6.336,3.816-8.208,4.68-10.872,6.552c-1.224,0.648-2.52,1.2961-3.816,1.944
		c-5.76,1.944-8.208,2.376-14.904,4.32C164.376,187.776,160.56,188.784,151.92,190.224L151.92,190.224z M89.784,189.72
		c-0.432-0.36-2.304-4.896-4.248-8.496c-0.072-0.864-0.144-1.728-0.216-2.664c0.144-1.224,0.288-2.52,0.432-3.816
		c1.44-5.544,1.44-5.544,1.8-5.76c0.36,0.216,0.36,0.216,2.304,7.2c0.936,6.984,1.44,8.856,1.656,11.016
		c0.216,0.216,0.432,0.432,0.72,0.72c0,0.36,0,0.792,0,1.224C91.656,189.504,91.656,189.504,89.784,189.72L89.784,189.72z
		 M139.896,189.72c-1.08-3.528-2.16-7.056-3.24-10.656c0-1.224,0-1.224,0.36-1.584c1.44-0.504,1.44-0.504,4.824-0.72
		c0.792,1.584,0.792,1.584,1.296,3.528c1.008,1.944,2.016,3.96,3.096,5.976c0,0.36,0,0.792,0,1.224
		c-1.584,0.72-3.24,1.44-4.896,2.232C140.904,189.72,140.4,189.72,139.896,189.72L139.896,189.72z M105.84,188.064
		c-1.44-0.144-2.88-0.288-4.32-0.504c-0.504-0.216-1.08-0.432-1.656-0.72c-3.6,0.216-3.6,0.216-6.264,0
		c-0.36-0.576-0.36-0.576-0.864-2.952c-0.288-4.32-0.576-8.64-0.936-12.96c-0.648-1.296-1.296-2.592-1.944-3.888
		c-0.288-1.008-0.576-2.016-0.936-3.096c-0.072-1.008-0.144-2.016-0.288-3.096c0.432-1.728,0.864-3.456,1.368-5.184
		c1.944,0.216,1.944,0.216,14.4,3.6c3.384,0.432,11.304,2.376,18.504,3.816c1.152,0.504,1.152,0.504,7.632,1.368
		c0.72,2.736,1.512,5.544,2.304,8.352c0.072,0.936,0.144,1.872,0.216,2.88c-8.496,3.744-8.496,3.744-13.536,5.616
		c-0.432,0.288-0.936,0.648-1.44,1.008c-3.6,0.936-3.6,0.936-5.76,1.872c-1.224,1.2961-2.52,2.592-3.816,3.888
		C107.64,188.064,106.776,188.064,105.84,188.064L105.84,188.064z M220.104,186.336c-1.872-1.224-3.816-2.52-5.76-3.816
		c-0.72-0.6479-1.44-1.296-2.16-1.944c0-0.792-0.072-1.584-0.144-2.448c-1.944-2.448-1.944-2.448-3.024-3.384
		c-1.584-0.9359-3.24-1.8719-4.896-2.88c-4.68-0.864-4.68-0.864-9.36-2.16c-0.144-1.656-0.288-3.312-0.504-5.04
		c0-4.536,0-9.072,0-13.68c0.216-0.504,0.432-1.08,0.648-1.656c0.288,0.072,0.576,0.144,0.936,0.288
		c1.944,2.448,1.944,2.448,3.816,5.76c0.72,0.72,1.44,1.512,2.16,2.304c2.88,4.824,2.88,4.824,8.928,13.32
		c0.576,1.08,1.152,2.16,1.728,3.24c8.208,11.5201,8.208,11.5201,8.208,12.024C220.32,186.48,220.32,186.48,220.104,186.336
		L220.104,186.336z M148.824,185.616c-0.432-0.576-0.432-0.576-0.864-2.232c-0.288-0.36-0.648-0.792-1.008-1.224
		c-0.576-1.44-1.224-2.88-1.872-4.32c0-0.504,0-1.08,0.0721-1.656c2.376,0,4.824-0.072,7.2719-0.144
		c1.152,0.216,2.376,0.432,3.6,0.72c0.36-0.144,0.72-0.288,1.152-0.504c0.648,0,1.296,0,1.944,0c3.384,1.944,3.384,1.944,4.536,2.88
		c0,0.36,0.072,0.72,0.144,1.152c-0.288,0.216-0.576,0.504-0.864,0.792c-3.6,1.224-7.2,2.52-10.8,3.816
		C151.056,185.112,149.976,185.328,148.824,185.616L148.824,185.616z M204.48,183.744c-1.8-1.8-3.5999-3.6-5.4-5.4
		c0-0.36,0-0.792,0-1.224c0.504-0.288,1.008-0.576,1.584-0.864c0.288,0,0.576,0,0.936,0c5.256,3.888,5.256,3.888,6.12,4.968
		c0,0.288,0,0.576,0,0.936c-0.648,0.432-1.368,0.936-2.088,1.44C205.272,183.6,204.912,183.672,204.48,183.744L204.48,183.744z
		 M135.576,174.816c-0.36-0.576-0.36-0.576-1.8-9.216c0.216-0.288,0.432-0.576,0.648-0.864c0.936-0.216,0.936-0.216,2.16-0.072
		c1.728,3.384,1.728,3.384,3.672,8.64c-0.072,0.216-0.144,0.432-0.216,0.72C136.8,174.816,136.8,174.816,135.576,174.816
		L135.576,174.816z M147.096,173.52c0-1.296-0.072-2.664-0.144-4.032c0.288,0,0.576-0.072,0.864-0.144
		c0.864,1.152,1.728,2.304,2.664,3.456c-0.072,0.0721-0.144,0.216-0.216,0.36C149.256,173.232,148.176,173.376,147.096,173.52
		L147.096,173.52z M70.56,172.656c-2.88-1.872-2.88-1.872-5.256-3.816c-6.048-3.096-6.048-3.096-6.48-3.6
		c-0.648-0.144-1.296-0.36-1.944-0.576c-4.32-2.52-6.264-3.24-6.696-3.744c-0.792-0.072-1.584-0.144-2.448-0.216
		c-0.792-0.36-1.584-0.792-2.376-1.224c-0.216-0.288-0.432-0.576-0.72-0.864c-0.36,0-0.792,0-1.224-0.072
		c-0.432-0.504-0.432-0.504-8.352-4.32c-0.792,0-1.584,0-2.448,0c-10.296-5.04-10.296-5.04-11.016-5.688
		c-0.072-0.36-0.144-0.72-0.216-1.152c0.936,0,1.872-0.072,2.88-0.144c0.36,0.2881,0.72,0.576,1.152,0.936
		c7.704,3.384,7.704,3.384,9.648,3.888c3.096,1.872,3.096,1.872,6.48,3.312c0.504,0.576,1.08,1.152,1.656,1.728
		c0.936,0.288,1.872,0.576,2.88,0.936c3.6,1.944,3.6,1.944,5.256,2.376c0.288,0.288,0.648,0.648,1.008,1.008
		c0.288,0,0.576,0,0.936,0c4.104,1.872,4.32,2.16,5.76,2.592c5.76,3.168,5.76,3.168,8.136,4.104c0.288,0.432,0.648,0.936,1.008,1.44
		c1.224,0.648,2.52,1.368,3.816,2.088c0,0.288,0,0.576,0,0.936C71.568,172.584,71.064,172.584,70.56,172.656L70.56,172.656z
		 M143.064,172.44c-0.432-0.36-1.368-3.24-3.312-7.272c0-0.576,0-1.152,0-1.728c0.504-0.288,1.008-0.576,1.584-0.864
		c0.72-0.072,1.44-0.144,2.16-0.216c0,0.432,0.072,0.864,0.144,1.368c-0.504,0.72-0.504,0.72-0.72,2.16
		c0.216,2.16,0.432,4.32,0.72,6.48C143.28,172.584,143.28,172.584,143.064,172.44L143.064,172.44z M152.64,172.224
		c-0.504-0.648-0.864-2.736-1.8-4.176c-1.584-1.656-3.168-3.312-4.824-5.04c0-0.504,0.072-1.008,0.144-1.512
		c2.952-1.152,5.904-2.304,8.856-3.456c1.152-0.288,2.376-0.576,3.6-0.936c1.512-0.648,3.024-1.296,4.608-1.944
		c0.36,0,0.72,0,1.152-0.072c0.072,0.72,0.216,1.44,0.36,2.16c0.936,1.1519,2.88,5.256,4.824,8.352
		c0.432,1.224,0.432,1.224,0.72,1.44c0.072,0.864,0.216,1.8,0.36,2.736c-2.808,0.144-5.616,0.288-8.424,0.504
		C159.048,170.928,155.88,171.576,152.64,172.224L152.64,172.224z M173.016,169.416c-0.864-2.52-1.8-5.04-2.736-7.632
		c-1.944-3.384-1.944-3.384-2.448-3.816c-0.144-0.576-0.36-1.152-0.576-1.728c0.288-0.072,0.576-0.144,0.864-0.216
		c-0.072-0.72-0.216-1.44-0.36-2.16c5.904-1.872,11.808-3.744,17.784-5.688c1.296-0.576,2.664-1.224,4.032-1.872
		c0.288,0,0.648,0,1.008,0.072c0.432,0.648,0.936,1.296,1.44,1.944c0.288,1.728,0.288,1.728,0.072,20.88
		C183.384,169.56,183.384,169.56,173.016,169.416L173.016,169.416z M250.344,165.24c-2.448-0.288-4.968-0.576-7.488-0.936
		c-3.096-1.008-3.096-1.008-6.912-2.88c-7.92-1.944-7.92-1.944-9.144-1.944c-1.584-0.648-3.168-1.296-4.824-1.944
		c-5.04-0.936-5.04-0.936-8.352-1.872c-0.432-0.288-0.936-0.648-1.44-1.008c-5.76-1.872-5.76-1.872-6.192-2.232
		c0-0.72,0-0.72,0.504-1.656c0.432,0,0.864-0.072,1.368-0.144c0.2881,0.36,0.576,0.72,0.936,1.152
		c0.936,0.288,1.872,0.648,2.88,1.008c1.224,0,2.52,0,3.816,0c0.288,0.216,0.6479,0.504,1.008,0.792c0,0.36,0,0.792-0.072,1.224
		c1.512,0.36,1.512,0.36,8.7119,0.864c0.216,0.504,0.432,1.08,0.72,1.656c0.72,0.072,1.44,0.144,2.16,0.216
		c0.72,0.288,1.44,0.648,2.16,1.008c2.304,0.288,4.608,0.576,6.912,0.936c0.288,0.36,0.648,0.792,1.008,1.224
		c1.08,0.432,2.16,0.936,3.312,1.44c1.944,0.216,2.16,0,7.2,0.72c1.08,0.288,2.232,0.576,3.384,0.936
		c0.072,0.864,0.072,0.864-0.36,1.368C251.208,165.168,250.776,165.168,250.344,165.24L250.344,165.24z M126.936,162.144
		c-4.032-1.008-4.032-1.008-5.472-1.728c-9.648-1.656-10.8-2.16-14.184-2.592c-5.76-1.44-6.48-1.944-18.72-5.184
		c0-0.216-0.072-0.432-0.144-0.72c0.432-0.288,0.864-0.576,1.368-0.864c8.856-2.88,8.856-2.88,11.232-3.312
		c1.152-0.576,2.376-1.1519,3.6-1.728c4.104-0.936,4.104-0.936,9.864-2.88c9.864-1.872,11.016-2.376,12.456-2.376
		c0.36,0.36,0.36,0.36,5.616,13.32c0,0.576,0,1.152,0,1.728c-1.872,2.88-1.872,2.88-3.312,6.192
		C128.52,162,127.728,162.072,126.936,162.144L126.936,162.144z M132.48,162.144c-0.072-0.072-0.216-0.216-0.36-0.36
		c0.072-0.648,0.144-1.296,0.216-1.944c0.288-0.504,0.576-1.08,0.936-1.656c0.288,0,0.576,0,0.864,0c0.864,2.16,0.864,2.16,1.08,3.6
		C134.64,162.144,134.64,162.144,132.48,162.144L132.48,162.144z M138.456,160.92c-0.36-0.36-0.72-0.72-1.08-1.08
		c-0.288-0.936-0.576-1.872-0.936-2.88c-0.288-0.4319-0.648-0.936-1.008-1.44c0-0.576,0-1.224,0-1.872
		c3.888-6.768,4.32-7.92,6.264-10.8c0.288-0.792,0.576-1.584,0.936-2.448c0.648-0.792,1.368-1.656,2.088-2.52
		c2.448,0,4.896,0,7.416,0c1.944,0.504,7.92,0.936,10.368,1.44c1.872,0,3.816,0,5.76,0c3.312,0.648,6.696,1.296,10.08,1.944
		c3.6,0.432,7.2,0.936,10.8,1.44c0.2881,0.36,0.2881,1.296,0,1.656c-0.288,0.072-0.6479,0.144-1.008,0.216
		c-0.36,0.288-0.72,0.648-1.152,1.008c-10.584,3.312-10.584,3.312-11.304,3.816c-1.44,0.288-2.88,0.576-4.32,0.936
		c-0.6479,0.288-1.296,0.648-1.944,1.008c-2.304,0.576-4.608,1.224-6.912,1.872c-5.04,1.944-5.04,1.944-9.648,3.384
		c-0.144,0.144-0.288,0.288-0.432,0.504c-3.3839,0.936-4.32,1.44-13.248,3.816C138.96,160.92,138.744,160.92,138.456,160.92
		L138.456,160.92z M133.92,151.344c-0.864-1.296-1.8-4.176-4.248-9.72c0-0.504,0.072-1.08,0.144-1.656
		c3.888-0.864,3.888-0.864,5.04-1.368c2.16-0.144,4.32-0.36,6.48-0.576c-0.576,1.728-1.152,3.456-1.8,5.256
		c-0.432,0.432-0.936,0.936-1.44,1.44c-2.88,6.048-2.88,6.048-3.384,6.48C134.496,151.2,134.208,151.272,133.92,151.344
		L133.92,151.344z M89.064,148.32c0.072-0.72,0.144-1.44,0.288-2.16c3.888-4.32,4.824-5.76,6.048-6.696
		c1.872-2.376,2.88-4.32,4.752-6.48c2.16-1.872,4.392-3.744,6.624-5.688c0.36-0.144,0.792-0.288,1.224-0.432
		c0.936-1.008,3.6-2.88,4.536-3.888c1.152-0.576,2.376-1.224,3.6-1.872c0.288-0.288,0.648-0.648,1.008-1.008
		c0.36,0,0.72,0.072,1.152,0.144c3.744,8.208,4.68,10.8,5.616,12.528c1.728,4.536,1.728,4.536,1.728,5.256
		c-0.504,0.288-1.008,0.576-1.584,0.936c-3.024,0.576-6.048,1.152-9.072,1.8c-12.744,3.816-13.464,4.32-17.28,5.256
		C96.696,146.52,96.696,146.52,89.064,148.32L89.064,148.32z M91.224,140.4c0.864-3.96,1.8-7.92,2.736-11.952
		c0.288-0.72,0.576-1.44,0.936-2.16c0.936-4.32,0.936-4.32,1.944-11.808c0.864-0.144,14.256,1.8,19.44,2.16
		c-0.072,0.432-0.144,0.936-0.288,1.44c-0.36,0.36-0.72,0.792-1.08,1.224c-1.008,0.576-2.016,1.152-3.096,1.8
		c-4.752,4.032-7.92,6.12-12.672,10.152c-0.648,0.72-1.296,1.44-1.944,2.16c-0.288,0.648-0.576,1.296-0.936,1.944
		c-0.792,1.008-1.584,2.016-2.448,3.024C92.376,139.32,91.944,140.04,91.224,140.4L91.224,140.4z M182.376,139.32
		c-4.752-0.504-4.752-0.504-10.5121-1.656c-0.504-0.288-0.504-0.288-4.8239-0.72c-1.584,0-3.168,0-4.824,0
		c-1.656-0.504-1.656-0.504-5.544-0.864c-0.144-0.504-0.36-1.08-0.576-1.656c-0.936-1.368-1.872-2.736-2.88-4.104
		c-0.288-0.72-0.576-1.44-0.936-2.16c0-0.504,0-1.08,0-1.656c3.816-5.76,5.76-8.136,6.192-9.144
		c0.792-0.792,1.584-1.584,2.448-2.376c0.7921-1.368,1.656-2.736,2.5201-4.104c0.288,0,0.576-0.072,0.936-0.144
		c3.888,5.328,5.7599,7.488,7.92,10.584c3.888,4.32,7.704,9.36,11.52,13.68c0.936,1.296,1.872,2.592,2.88,3.96
		c-0.072,0.0721-0.144,0.216-0.216,0.36C185.112,139.32,183.744,139.32,182.376,139.32L182.376,139.32z M128.16,137.376
		c-3.744-8.208-4.68-10.872-8.568-19.008c-0.072-0.648-0.144-1.296-0.216-1.944c0.72-0.288,1.512-0.576,2.304-0.864
		c2.376-0.216,6.264-1.224,11.52-2.16c1.368-0.36,2.736-0.792,4.104-1.224c0.576,0,1.152,0.0721,1.728,0.144
		c0.288,0.72,0.288,0.72,1.944,22.608c-0.36,0.288-2.736,0.792-5.4,1.008c-1.8,0.432-3.6,0.936-5.472,1.44
		C129.456,137.376,128.808,137.376,128.16,137.376L128.16,137.376z M153.144,135.72c-1.8719-0.144-3.816-0.36-5.7599-0.576
		c0.216-0.864,0.504-1.728,0.792-2.664c0.576-0.72,1.152-1.512,1.8-2.304c0.288,0,0.648,0.0721,1.008,0.144
		c0.864,1.512,1.8,3.024,2.736,4.608c0,0.72,0,0.72-0.36,0.936C153.288,135.864,153.216,135.792,153.144,135.72L153.144,135.72z
		 M143.064,135.144c-0.864-7.92-0.864-7.92-1.152-8.136c-0.432-10.368-0.432-10.368-0.216-12.024c0.288,0,0.576-0.072,0.864-0.144
		c0.288,0.432,0.576,0.864,0.936,1.296c0.288,0.864,0.576,1.728,0.864,2.6639c1.872,2.4481,3.816,6.048,5.04,7.704
		c0,0.432,0,0.936,0,1.44c-1.008,0.936-1.008,0.936-3.888,5.04c-0.432,1.44-0.432,1.44-0.936,1.944
		C144.072,135,143.568,135.072,143.064,135.144L143.064,135.144z M150.696,123.84c-0.36-0.432-0.36-0.432-0.864-2.16
		c-2.232-3.168-4.536-6.336-6.84-9.576c0-0.216,0-0.432,0-0.72c3.024-0.576,6.048-1.152,9.144-1.8
		c0.7921-0.288,1.584-0.648,2.448-1.008c1.08-0.144,2.16-0.288,3.312-0.432c0.72-0.432,1.44-0.936,2.16-1.44
		c0.288,0,0.6479,0,1.008,0c0.432,0.504,0.864,1.008,1.296,1.584c-0.288,1.872-0.288,1.872-0.72,2.88
		c-0.216,0.144-0.4319,0.288-0.6479,0.432c-0.36,0-0.72-0.072-1.152-0.144c-0.576,0.72-1.152,1.512-1.8,2.304
		c-0.648,1.44-1.296,2.88-1.944,4.32c-1.44,1.44-1.44,1.44-4.32,5.76C151.416,123.84,151.056,123.84,150.696,123.84L150.696,123.84z
		 M111.816,114.12c-12.96-1.944-12.96-1.944-13.536-2.232c0-0.288,0-0.648,0.072-1.008c1.512-0.36,2.232-0.864,11.592-3.24
		c0.792,0,1.584,0,2.376,0c0.504,0.576,1.296,2.52,1.8,3.024c0.936,2.664,0.936,2.664,0.864,3.456
		C113.976,114.12,112.896,114.12,111.816,114.12L111.816,114.12z M118.584,113.904c-0.36-0.144-0.792-0.288-1.224-0.504
		c-0.72-1.512-1.512-3.096-2.304-4.68c-0.072-0.576-0.216-1.224-0.36-1.872c4.824-0.864,4.824-0.864,8.64-1.872
		c0.504,0,1.008,0.072,1.584,0.144c0.144,0.648,0.36,1.296,0.576,1.944c0.504,0,1.008,0,1.584,0c0.072-0.864,0.216-1.728,0.36-2.664
		c2.376-0.36,2.376-0.36,5.76-1.584c0.72,0,1.44,0,2.16,0c0.144,0.144,0.36,0.288,0.576,0.432c0.288,0.864,0.576,1.8,0.864,2.736
		c0.36,0,0.72-0.072,1.08-0.144c0-1.08,0-2.16,0-3.312c0.576,0,1.152-0.0721,1.8-0.144c0.288,0.432,0.576,0.936,0.936,1.44
		c0.288,0,0.576-0.072,0.864-0.144c0.072-0.36,0.216-0.72,0.36-1.1519c0.216-0.144,0.432-0.2881,0.72-0.432c3.6,0,3.6,0,4.104,0.288
		c5.472,0.936,5.472,0.936,10.512,2.376c0,0.288,0.072,0.576,0.144,0.864c-3.24,0.792-5.904,1.8-10.656,2.736
		c-1.008,0.072-2.088,0.144-3.168,0.216c-3.312,1.008-3.312,1.008-16.272,3.888C124.344,112.896,121.464,113.4,118.584,113.904
		L118.584,113.904z M96.984,108.504c-0.144-6.264-0.144-6.264,0.288-13.896c0.288-0.432,0.648-0.936,1.008-1.44
		c0.648-0.216,1.296-0.432,2.016-0.648c0.576,0,1.152,0.0721,1.728,0.144c0.288,4.104,0.288,4.104,1.008,8.136
		c0,2.0161,0,4.032,0,6.048C101.016,107.352,99,107.928,96.984,108.504L96.984,108.504z M105.84,105.984
		c-0.216-0.648-0.432-1.296-0.648-2.016c0-2.88,0-5.76,0-8.64c0.072-0.072,0.216-0.144,0.36-0.288
		c1.296,2.088,2.592,4.176,3.96,6.264c1.008,2.376,1.008,2.376,1.224,3.6C108.216,105.696,108.216,105.696,105.84,105.984
		L105.84,105.984z M113.04,104.256c-5.688-9.936-5.688-9.936-7.56-12.528c-0.072-0.432-0.144-0.936-0.288-1.44
		c0.504-0.288,1.008-0.648,1.584-1.008c2.088-0.72,4.176-1.512,6.264-2.304c5.76-0.432,8.64-0.936,10.8-0.936
		c0.216,0.288,0.432,0.576,0.72,0.864c-0.216,0.144-0.432,0.36-0.72,0.576c-1.08,0.144-2.232,0.288-3.384,0.504
		c-0.936-0.288-0.936-0.288-2.376-0.288c-0.648,0.36-1.296,0.72-1.944,1.08c-0.144,2.376-0.36,4.824-0.576,7.272
		c0.144,0.216,0.288,0.432,0.432,0.72c0.72,0.216,1.512,0.504,2.304,0.792c2.016,0.072,4.032,0.144,6.048,0.216
		c0.144,0.288,0.288,0.576,0.432,0.864c0,1.008,0.072,2.088,0.144,3.168c-2.592,0.72-5.184,1.44-7.776,2.232
		C115.776,104.112,114.408,104.184,113.04,104.256L113.04,104.256z M127.224,101.376c-0.144-0.432-0.288-0.864-0.432-1.296
		c0-0.864,0.072-1.728,0.144-2.592c0.432-0.288,0.936-0.576,1.44-0.864c1.584-0.072,3.168-0.144,4.824-0.288
		c0.432,0.936,0.864,1.872,1.296,2.808c0,0.216,0,0.504-0.072,0.792c-2.88,0.504-2.88,0.504-5.328,1.44
		C128.52,101.376,127.872,101.376,127.224,101.376L127.224,101.376z M156.024,101.376c-0.792-0.144-1.584-0.288-2.448-0.432
		c-2.16-1.008-2.16-1.008-2.736-1.584c-0.504-2.592-0.504-2.592-0.864-7.92c0.288,0,0.648,0.072,1.008,0.144
		c3.816,5.472,3.816,5.472,5.616,8.496c0.072,0.36,0.144,0.792,0.216,1.224C156.6,101.304,156.312,101.304,156.024,101.376
		L156.024,101.376z M136.584,99.36c-0.36-0.792-0.72-1.584-1.152-2.376c0-0.432,0-0.936-0.072-1.44
		c1.8-0.432,3.672-0.864,5.544-1.368c0.432,0,0.864,0.0721,1.296,0.144c0.072,1.584,0.144,3.168,0.216,4.824
		c-0.216,0.072-0.504,0.216-0.792,0.36c-0.576-0.072-1.152-0.144-1.728-0.288c-0.288-0.36-0.576-0.72-0.936-1.152
		c-0.216,0-0.432-0.072-0.72-0.144c-0.072,0.432-0.144,0.864-0.216,1.296C137.304,99.504,137.304,99.504,136.584,99.36
		L136.584,99.36z M147.384,99.504c-1.44-0.288-1.44-0.288-2.088-0.864c-0.72-7.632-0.72-7.632-0.936-7.92
		c0-1.872,0.072-3.816,0.144-5.76c0.288,0,0.576-0.072,0.936-0.144c2.16,2.088,2.16,2.088,2.52,2.808
		c0.216,3.816,0.432,7.632,0.72,11.52C148.32,99.504,148.32,99.504,147.384,99.504L147.384,99.504z M118.8,94.68
		c-0.288-0.072-0.288-0.072,0-4.176c5.76-0.648,6.696-1.08,18.936-3.024c0.792,0,1.584,0.072,2.448,0.144
		c0.288,2.16,0.288,2.16,0.216,4.176c-2.664,0.648-5.4,1.2961-8.136,1.944c-1.368,0.072-2.736,0.144-4.104,0.216
		c-0.432,0.216-0.936,0.432-1.44,0.72C124.128,94.68,121.464,94.68,118.8,94.68L118.8,94.68z M97.416,91.008
		c-0.36-2.16-0.36-2.16-0.216-3.312c0.864-0.288,1.728-0.576,2.664-0.936c0.36,0,0.72,0.072,1.152,0.144
		c0.864,1.44,0.864,1.44,0.864,2.16c-0.36,0.36-0.72,0.792-1.08,1.224C99.72,90.504,98.568,90.72,97.416,91.008L97.416,91.008z
		 M104.904,87.408c0.072-0.36,0.144-0.792,0.216-1.224c3.384-1.8,3.384-1.8,8.136-3.744c2.088-0.288,4.176-0.576,6.264-0.936
		c0.432,0.072,0.936,0.144,1.44,0.216c0.504,0.72,0.504,0.72,0.576,1.8c-0.792,0.36-0.792,0.36-9.216,1.296
		c-1.512,0.648-3.024,1.296-4.536,1.944C106.848,86.9761,105.912,87.192,104.904,87.408L104.904,87.408z M95.976,85.104
		c-0.648-3.312-1.296-6.624-2.016-9.936c0.288,0,0.576-0.072,0.864-0.144c1.512,2.736,3.024,5.472,4.608,8.28
		c0,0.216,0,0.4319,0,0.72c-0.576,0.504-0.576,0.504-2.232,1.08C96.84,85.104,96.408,85.104,95.976,85.104L95.976,85.104z
		 M128.16,83.6641c-1.008-0.144-2.016-0.2881-3.096-0.504c-0.504-0.864-0.504-0.864-0.648-2.016
		c0.936-0.2881,1.872-0.576,2.808-0.864c3.096,0,6.192,0,9.36,0c1.296,0.432,2.664,0.936,4.032,1.44
		c-0.216,0.144-0.432,0.288-0.72,0.504C135.144,82.656,129.6,83.6641,128.16,83.6641L128.16,83.6641z M101.52,83.016
		c-1.368-2.376-2.808-4.752-4.248-7.128c0-0.36,0.072-0.72,0.144-1.152c1.584-0.72,3.168-1.44,4.824-2.16
		c0.288,0,0.576,0.072,0.936,0.144c0.144,1.44,0.144,1.44-0.36,10.368C102.384,83.088,101.952,83.088,101.52,83.016L101.52,83.016z
		 M105.336,82.656c-0.072-0.144-0.216-0.36-0.36-0.576c0.072-3.168,0.144-6.336,0.216-9.576c1.296-0.288,2.664-0.576,4.032-0.864
		c1.728-0.072,3.456-0.144,5.256-0.216c1.944,2.5919,1.944,2.5919,4.536,7.056c-0.072,0.072-0.144,0.216-0.216,0.36
		c-0.504,0-1.08,0-1.656,0c-1.872,0.432-3.816,0.936-5.76,1.44c-1.44,0.936-1.44,0.936-5.04,2.376
		C106.056,82.656,105.696,82.656,105.336,82.656L105.336,82.656z M122.184,78.12c-1.08-1.656-2.16-3.384-3.312-5.112
		c0-0.36,0.072-0.792,0.144-1.224c0.648-0.216,1.296-0.4319,1.944-0.6479c4.608,0,9.216,0.072,13.896,0.144
		c1.728,2.016,3.456,4.032,5.184,6.048c0,0.72,0,0.72-0.36,0.936c-0.72-0.36-0.72-0.36-9.864-1.08
		C126.504,77.616,126,77.904,122.184,78.12L122.184,78.12z M139.68,73.584c-1.224-1.0081-1.224-1.0081-2.16-2.304
		c-0.072-0.792-0.216-1.584-0.36-2.376c-0.576-0.288-1.152-0.576-1.8-0.864c-1.944-2.736-1.944-2.736-7.128-8.712
		c0-0.216,0.072-0.4319,0.144-0.72c1.512-0.4321,3.024-0.8641,4.608-1.368c1.8,0,3.6,0,5.472-0.072
		c0.288,1.224,0.576,2.52,0.864,3.816c0.216,4.104,0.432,8.28,0.72,12.456C139.968,73.44,139.824,73.512,139.68,73.584
		L139.68,73.584z M95.76,72.576c-1.8-2.736-5.184-8.928-5.256-9.6479c2.736,0,5.544,0,8.352,0.072
		c3.384,0.936,3.384,0.936,3.96,1.368c-0.072,1.728-0.144,3.4561-0.216,5.256c-0.432,0.36-0.936,0.7921-1.44,1.224
		c-1.224,0.576-2.448,1.152-3.744,1.728C96.912,72.576,96.336,72.576,95.76,72.576L95.76,72.576z M105.12,69.84
		c-0.144-3.0961-0.144-3.0961,0.216-5.184c1.872,0.36,3.816,0.72,5.76,1.08c0.36,1.224,0.36,1.224,1.296,2.448
		c-0.072,0.216-0.144,0.432-0.216,0.72C109.872,69.192,107.496,69.48,105.12,69.84L105.12,69.84z M117.576,69.264
		c-0.36-0.144-0.72-0.288-1.152-0.504c-1.008-1.584-1.008-1.584-1.872-3.672c-0.072-0.36-0.144-0.792-0.216-1.2241
		c2.808-1.2239,5.688-2.4479,8.568-3.744c0.72-0.072,1.44-0.144,2.16-0.2159c0.432,0.2879,0.936,0.576,1.44,0.936
		c1.872,2.376,4.032,4.32,5.832,6.84c-0.072,0.288-0.144,0.648-0.216,1.008C128.664,68.9761,125.28,68.76,117.576,69.264
		L117.576,69.264z M108.936,62.064c-1.944-0.2159-3.96-0.4319-5.976-0.7199c-0.72-0.504-0.72-0.504-2.376-0.864
		c0.072-0.2881,0.144-0.576,0.216-0.864c2.16-0.576,4.32-1.224,6.48-1.8721c3.816-0.2879,3.816-0.2879,4.104,0
		c1.296,0.1441,2.664,0.2881,4.032,0.432c2.736-0.2879,5.472-0.5759,8.208-0.9359c-3.24,1.584-6.552,3.168-9.864,4.8239
		C112.176,62.064,110.592,62.064,108.936,62.064L108.936,62.064z M112.536,54.36c-0.216-0.072-0.216-0.072-0.216-0.936
		c0.72-0.216,1.44-0.432,2.16-0.72c2.232,0,4.464,0,6.696,0c0.144,0.072,0.288,0.2159,0.504,0.3599
		c-0.504,0.576-0.504,0.576-1.944,1.0801C117.36,54.216,114.984,54.288,112.536,54.36L112.536,54.36z"/>
</g>
</svg>
