<?xml version="1.0" encoding="utf-8"?>
<!-- Generator: Adobe Illustrator 21.1.0, SVG Export Plug-In . SVG Version: 6.00 Build 0)  -->
<svg version="1.1" id="L" xmlns="http://www.w3.org/2000/svg" xmlns:xlink="http://www.w3.org/1999/xlink" x="0px" y="0px"
	 viewBox="0 0 494.928 351.36" enable-background="new 0 0 494.928 351.36" xml:space="preserve">
<g>
	<path fill-rule="evenodd" clip-rule="evenodd" d="M181.008,351.216c-0.072-0.288-0.144-0.576-0.288-0.936
		c7.2-1.8,7.2-1.8,12.24-2.736c1.944,0,5.04-0.504,6.264-0.288c0.216-0.36,2.376-0.936,3.816-1.872c1.728,0,1.728,0,2.664,0.432
		c2.88-0.576,5.7599-1.224,8.64-1.872c0.144-0.36,0.288-0.72,0.432-1.08c1.296-0.216,2.592-0.432,3.888-0.648
		c0.72,0.144,1.44,0.288,2.16,0.504c0.288-0.216,0.576-0.432,0.936-0.72c0.792-0.072,1.584-0.144,2.448-0.216
		c3.6-1.44,3.6-1.44,4.32-2.088c0-0.432-0.072-0.864-0.144-1.368c0.144-0.144,0.36-0.288,0.576-0.432
		c2.88-0.288,5.76-0.576,8.64-0.936c1.296-0.288,2.592-0.576,3.888-0.936c0.216-0.216,0.432-0.432,0.72-0.648
		c-0.36-0.144-0.792-0.36-1.224-0.576c0-0.36-0.072-0.72-0.144-1.08c5.688-0.576,5.688-0.576,9.288-1.296
		c2.7361-0.936,5.544-1.872,8.3521-2.88c0.576-0.432,1.152-0.864,1.8-1.296c0-0.216,0.072-0.432,0.144-0.72
		c-6.264-0.432-6.264-0.432-13.896-1.584c-2.88,0-5.76,0-8.64,0c-0.072-0.432-0.144-0.864-0.288-1.296
		c2.16-0.288,4.32-0.576,6.48-0.864c5.976-1.152,11.952-2.376,18-3.6c2.448-1.008,2.448-1.008,6.264-1.944
		c5.04-0.936,10.08-1.872,15.12-2.88c2.2321-0.144,4.4641-0.288,6.696-0.504c5.04-0.936,5.04-0.936,7.704-1.872
		c0.504-0.288,1.08-0.6479,1.656-1.008c2.232-0.432,4.464-0.936,6.768-1.44c10.08-0.72,10.08-0.72,15.84-0.72
		c1.152,0.288,1.152,0.288,17.28,0c0.216-0.216,2.16-0.432,2.376-0.72c0.936,0,0.936,0,2.376-0.72
		c1.368-0.072,2.736-0.144,4.176-0.288c0.216-0.288,0.432-0.576,0.648-0.864c0.504,0,1.08,0,1.656,0
		c2.304-0.72,4.6079-1.44,6.984-2.16c0.648,0.072,1.296,0.144,1.944,0.216c0.144-0.144,0.288-0.36,0.432-0.576
		c0.864-0.36,1.728-0.72,2.664-1.08c0.936-1.368,0.936-1.368,2.376-2.448c1.224-0.432,1.224-0.432,4.104-2.376
		c0.288,0,0.576,0.072,0.936,0.144c0.36-0.936,0.36-0.936,1.08-1.44c0.072-0.36,0.144-0.792,0.216-1.224
		c-0.144-0.072-0.36-0.216-0.576-0.36c-6.48-0.216-6.48-0.216-8.856,0c-0.144-0.144-0.288-0.36-0.504-0.576
		c0.144-0.216,0.288-0.432,0.504-0.648c5.544-1.872,5.544-1.872,5.76-2.232c-0.288-0.288-0.576-0.576-0.936-0.864
		c-3.024,0.144-6.048,0.288-9.144,0.504c-0.216-0.072-0.432-0.216-0.648-0.36c0-0.36,0.072-0.72,0.144-1.08
		c1.728-0.504,7.704-1.008,20.664-2.664c0.072-0.072,0.144-0.216,0.216-0.36c-1.08-0.504-2.16-1.008-3.312-1.584
		c-2.16-0.432-2.16-0.432-9.36-0.72c-0.288-0.216-0.648-0.432-1.008-0.72c-0.072-0.2881-0.216-0.648-0.36-1.0081
		c-1.368-0.576-2.736-1.224-4.176-1.8719c-1.224-0.288-2.52-0.576-3.816-0.936c-2.016-0.072-4.104-0.216-6.192-0.36
		c0-0.288,0-0.576,0-0.936c0.216-0.216,0.432-0.432,0.648-0.72c-0.7921-0.072-1.584-0.144-2.376-0.216
		c0-0.576-0.072-1.152-0.144-1.728c1.2961-0.936,1.2961-0.936,4.6801-2.52c4.1039,0,4.1039,0,13.896-0.936
		c0.864-0.144,1.728-0.288,2.664-0.504c10.584,0.216,10.584,0.216,12.24,0c0.216-0.288,0.432-0.576,0.72-0.936
		c3.096,0,3.096,0,3.384-0.288c3.6-0.936,4.32-1.44,5.04-1.512c0.072,0.216,0.144,0.432,0.216,0.72
		c0.288-0.288,0.576-0.576,0.936-0.936c1.224-0.072,1.44-0.432,2.5201-0.72c-0.0721-0.288-0.216-0.576-0.36-0.864
		c-2.448-0.144-4.896-0.288-7.416-0.504c-1.224-0.504-1.224-0.504-5.04-0.936c-1.728,0-3.528-0.072-5.328-0.144
		c0-0.432,0-0.864,0.072-1.296c1.5121-0.216,3.024-0.432,4.536-0.72c0.072-0.072,0.144-0.216,0.216-0.36
		c-2.592-0.144-6.48,0.0721-6.84-0.216c0-0.36,0.072-0.72,0.144-1.152c2.376-0.432,2.376-0.432,11.016-0.936
		c2.592-0.432,5.256-0.936,7.92-1.44c0.792,0,1.584,0,2.448,0c0.864-0.288,1.728-0.576,2.592-0.936
		c0.144-0.216,0.288-0.432,0.504-0.648c-1.944-0.576-5.256-0.7921-5.688-1.152c0-0.36,0-0.792-0.072-1.224
		c3.096-0.36,3.096-0.36,5.04-0.864c0.072-0.072,0.144-0.216,0.216-0.36c-0.936-0.0721-1.44,0.144-3.312,0.144
		c-0.072-0.072-0.144-0.216-0.288-0.36c0.072-0.36,0.216-0.72,0.36-1.152c0.6479-0.432,3.24-0.864,3.744-1.152
		c14.616,0.72,14.616,0.72,17.064,0.504c0.216-0.216,0.216-0.216,1.872-0.144c0.288,0.36,0.288,0.36,1.008,0.36
		c0.432-0.432,0.432-0.432,1.656-0.72c1.656,0,3.096,0.504,4.536,0.432c0.072,0.216,0.144,0.432,0.288,0.72
		c1.152-0.144,1.44-0.432,5.256-0.648c0.216,0.216,1.944,0,2.88,0.216c0.072-0.288,0.216-0.648,0.36-1.008
		c0.288-0.216,0.576-0.432,0.864-0.648c2.016-0.072,4.032-0.216,6.048-0.36c0.144-0.288,0.288-0.576,0.432-0.936
		c2.232,0,4.464-0.072,6.696-0.144c1.728,0.288,3.456,0.576,5.256,0.936c2.016,0,4.032,0,6.048,0c2.736-0.36,5.544-0.72,8.352-1.152
		c2.736-1.152,5.472-2.376,8.2079-3.6c0.504,0,1.0801,0,1.6561,0c0.216,0.36,0.216,0.36,0.7199,0.432
		c1.5121-0.432,3.024-0.936,4.5361-1.44c0.648,0,1.296,0.072,2.016,0.144c-0.072,0.288-0.144,0.648-0.216,1.0081
		c-0.792,0.288-0.792,0.288-4.176,0.288c-3.816,1.008-3.816,1.008-5.976,1.944c-0.648,0-1.296,0-1.9441,0
		c-4.5359,1.944-4.5359,1.944-7.92,2.88c-0.4319,0.288-0.9359,0.576-1.44,0.936c-1.6559,0-2.1599,0.288-2.8799,0.288
		c-0.2881-0.144-0.576-0.288-0.936-0.504c-2.016-0.144-4.032-0.288-6.048-0.504c-5.256,0.288-5.256,0.288-17.712,1.944
		c-18.72,0.216-18.72,0.216-21.888,0.504c-0.936,0.288-1.872,0.576-2.88,0.936c-1.08,0.0721-2.16,0.144-3.312,0.216
		c-0.72,0.216-1.44,0.432-2.16,0.648c0.288,0.936,0.288,0.936,0.288,2.16c-0.288,0.216-0.648,0.504-1.008,0.792
		c-2.376,0.72-4.752,1.44-7.2,2.16c-2.448,0.288-4.968,0.576-7.488,0.864c0,0.576-0.072,1.152-0.144,1.728
		c-2.232,0.792-2.232,0.792-4.176,1.152c0.072,0.36,0.144,0.72,0.288,1.08c1.152,0.216,2.376,0.432,3.6,0.72c2.376,0,4.752,0,7.2,0
		c1.152-0.504,1.152-0.504,2.16-0.504c0.288-0.216,0.576-0.432,0.936-0.72c0.792,0,1.584,0.072,2.376,0.144
		c0,0.288,0.072,0.648,0.144,1.008c-1.008,0.576-2.016,1.152-3.024,1.728c-0.576,0-1.224,0.072-1.872,0.144
		c-0.504,0.576-0.504,0.576-3.168,1.584c-2.16,0.432-2.376,0.72-9.36,2.16c-0.864,0.432-1.728,0.936-2.592,1.44
		c-1.08,0.144-2.232,0.2881-3.384,0.432c-2.52-0.072-5.112-0.144-7.704-0.216c-5.904,0.504-11.808,1.08-17.712,1.656
		c-0.288,0.144-0.576,0.288-0.864,0.432c0,0.216,0.072,0.504,0.144,0.792c8.136,0.504,8.136,0.504,9.36,0.864
		c0,0.288,0,0.576,0.072,0.936c-0.288,0.2159-0.576,0.432-0.864,0.72c0,0.216,0,0.432-0.072,0.72c0.36,0.288,0.72,0.576,1.08,0.864
		c1.008,0.288,2.016,0.576,3.096,0.936c0.864,0.072,1.728,0.144,2.664,0.216c0.36,0.432,0.36,0.432,0.504,1.368
		c2.16,0.216,4.32,0.504,6.4799,0.7921c0.936,0.432,1.872,0.936,2.88,1.44c0.792,0.144,1.584,0.288,2.376,0.504
		c0,0.432,0,0.864,0.072,1.368c-0.504,0.432-1.008,0.864-1.512,1.296c-5.76,0.936-5.76,0.936-8.424,1.08
		c0.216,0.936,0.576,1.224,0.576,1.944c-0.36,0.36-0.72,0.72-1.152,1.152c0,0.288,0.072,0.576,0.144,0.864
		c0.576,0.0721,1.224,0.216,1.872,0.36c0.072,0.216,0.144,0.432,0.288,0.72c0.36,0.072,0.72,0.144,1.152,0.216
		c0,0.432,0.072,0.936,0.144,1.44c-0.504,0.72-1.368,1.224-1.944,2.16c-1.08,0.576-2.16,1.152-3.24,1.8
		c-1.8,1.368-3.6,2.736-5.472,4.104c-2.16,0.432-2.448,0.72-6.768,1.656c-2.592,0.936-6.4799,1.656-7.416,2.16
		c-5.76,0.936-5.76,0.936-9.576,1.944c-2.8799,0-3.168,0.216-5.7599,0.216c-5.04,0.504-5.04,0.504-9.144,0.504
		c-1.584-0.144-3.168-0.288-4.824-0.504c-4.608,0.36-9.216,0.792-13.896,1.224c-3.888,1.152-7.776,2.376-11.736,3.6
		c-2.952,0.288-5.904,0.576-8.928,0.936c-11.016,1.944-11.016,1.944-19.872,3.816c-4.536,1.152-9.144,2.304-13.752,3.528
		c-0.072,0.216-0.144,0.432-0.216,0.72c1.368,0.216,2.736,0.504,4.104,0.792c2.592,0.144,5.256,0.288,7.92,0.504
		c0.216,0.144,0.432,0.36,0.72,0.576c-0.288,0.504-0.576,1.008-0.936,1.584c-0.72,0.648-1.44,1.296-2.16,1.944
		c-4.824,1.872-4.824,1.872-13.248,4.32c-2.88,1.872-2.88,1.872-5.04,2.88c-4.032,0.936-4.032,0.936-9.072,1.44
		c-2.448,1.872-2.448,1.872-4.608,2.88c-0.936,0.288-1.872,0.576-2.88,0.936c-1.872,0.288-3.816,0.576-5.76,0.936
		c-1.8,0.648-3.6,1.296-5.472,1.944c-19.944,3.384-19.944,3.384-20.88,3.816c-1.008,0-2.088,0-3.168,0
		c-2.664,0.648-5.4,1.296-8.136,1.944C181.656,351.36,181.368,351.288,181.008,351.216L181.008,351.216z"/>
	<path fill-rule="evenodd" clip-rule="evenodd" d="M10.584,339.264c0-0.36,0-0.792,0.072-1.224c1.368-0.936,1.368-0.936,3.528-1.584
		c0.216,0.288,0.216,0.288,1.944,0.288c1.656-0.648,3.312-1.296,5.04-1.944c1.8-0.144,3.6-0.288,5.472-0.504
		c3.168-0.936,6.408-1.872,9.648-2.88c1.44-0.576,2.88-1.224,4.32-1.872c0.36-0.648,0.72-1.296,1.152-1.944
		c1.152-0.072,2.376-0.144,3.6-0.216c2.376-0.648,4.752-1.296,7.2-1.944c0.648-0.288,1.296-0.576,1.944-0.936
		c0.288-0.36,0.576-0.792,0.936-1.224c3.168-0.792,6.408-1.584,9.648-2.376c1.584,0.072,3.168,0.144,4.752,0.2159
		c0.72-0.504,1.08-1.512,1.728-1.944c0.792-0.144,1.584-0.288,2.376-0.432c1.944-1.224,1.944-1.224,2.16-1.584
		c-0.216-0.36-3.384-0.864-4.536-1.296c-2.088-0.288-4.176-0.648-6.264-1.008c-1.44-0.432-2.88-0.936-4.32-1.44
		c-3.312-0.288-6.696-0.576-10.08-0.936c-3.816-1.944-3.816-1.944-5.76-3.384c-3.096-0.936-3.096-0.936-12.024-2.88
		c-3.312-1.224-6.696-2.52-10.08-3.8159c-0.504-0.432-1.008-0.864-1.584-1.2961c-0.072-4.3199-0.144-8.64-0.216-12.96
		c0.288-3.744,0.576-7.488,0.936-11.304c0.648-1.296,1.296-2.664,1.944-4.032c7.128-1.872,18.864-5.688,26.568-7.632
		c2.592-0.36,5.256-0.72,7.92-1.152c1.8-0.864,3.6-1.728,5.472-2.664c0.288,0,0.648,0,1.008,0c0.144-0.144,0.288-0.288,0.432-0.504
		c11.088-2.88,13.464-3.816,21.384-5.76c0.864-0.144,1.728-0.288,2.664-0.432c2.448-0.936,4.896-1.872,7.416-2.88
		c3.816-4.608,3.816-4.608,5.76-6.48c0.288-0.576,0.576-1.152,0.936-1.728c0.216-0.144,0.432-0.288,0.72-0.432
		c0.576-1.008,1.152-2.016,1.8-3.024c0.288-1.152,0.576-2.376,0.936-3.6c0.648-1.08,1.296-2.16,1.944-3.312
		c1.584-1.8,3.168-3.672,4.824-5.544c1.872-2.808,3.816-5.616,5.76-8.424c0.576-1.152,1.224-2.376,1.872-3.6
		c1.512-1.728,3.024-3.456,4.608-5.256c-0.072-2.592-0.144-5.256-0.288-7.92c0.216-0.288,0.432-0.648,0.648-1.008
		c-3.096-0.0721-5.76-0.576-8.856-0.792c-5.328,0.432-5.328,0.432-6.984,0.216c-1.944-0.936-1.944-0.936-3.096-1.944
		c0-0.504-0.072-1.008-0.144-1.512c0.576-0.504,0.576-0.504,10.224-4.248c3.312-0.936,3.312-0.936,5.256-1.872
		c0.432-0.36,0.936-0.72,1.44-1.08c5.616-8.856,5.616-8.856,7.56-11.304c2.52-4.32,5.04-8.64,7.632-12.96
		c1.08-1.296,2.232-2.664,3.384-4.032c-0.144-3.024-0.288-6.048-0.504-9.144c-0.576-0.36-0.576-0.36-5.832-1.368
		c-3.024-0.144-6.048-0.288-9.144-0.432c-0.144-0.072-0.36-0.216-0.576-0.36c0-1.224,0-1.224,0.432-2.664
		c6.192-3.744,10.008-6.624,11.952-7.56c0.936-0.936,0.936-0.936,1.872-1.44c0.864-1.152,1.8-2.304,2.736-3.456
		c-0.072-0.36-0.144-0.792-0.216-1.224c-1.224-2.448-2.52-4.896-3.816-7.416c-3.888-6.264-3.888-6.264-5.76-10.08
		c-1.872-2.88-3.816-5.76-5.76-8.64c-2.736-3.312-5.472-6.696-8.208-10.08c-1.296-0.36-1.296-0.36-4.176-0.36
		c-0.792-0.576-1.656-1.152-2.52-1.8c0-0.504,0-1.08,0-1.656c0.288-0.432,0.576-0.936,0.936-1.44
		c1.368-1.008,1.368-1.008,6.264-3.168c-0.072-0.504-0.144-1.08-0.216-1.656c-1.008-1.944-1.008-1.944-5.04-7.92
		c-1.296-1.656-2.592-3.312-3.96-5.04C100.44,64.008,100.44,64.008,99.648,62.856c-4.608-1.152-4.608-1.152-5.328-1.656
		c0-0.432-0.072-0.864-0.144-1.296c0.648-0.72,0.648-0.72,1.368-1.08c1.8,0,3.6,0.072,5.4,0.144c0.216-1.8,0.432-3.672,0.72-5.5439
		c-0.072-1.7281-0.144-3.4561-0.288-5.256c0.144-0.6481,0.288-1.296,0.504-1.944c0.936-1.44,0.936-1.44,2.16-2.376
		c1.44-0.36,2.952-0.72,4.464-1.152c1.152,0.6481,2.376,1.2961,3.6,1.944c2.16,2.304,2.16,2.304,2.952,3.744
		c0.288,1.1521,0.648,2.376,1.008,3.6001c-0.072,2.5199-0.144,5.112-0.288,7.7039c0.144,0.144,0.288,0.36,0.432,0.576
		c1.8,0.288,3.6,0.576,5.472,0.936c0.288,0.216,0.576,0.432,0.864,0.648c0,0.432,0,0.936,0,1.44c-0.36,0.216-0.72,0.504-1.08,0.792
		c-1.152,0.288-2.304,0.576-3.528,0.864c0,0.216,0,0.4319,0,0.72c1.44,1.4399,2.88,2.8799,4.32,4.3199
		c2.808,3.312,5.616,6.696,8.424,10.08c2.376,2.376,4.752,4.752,7.2,7.2c0.072,0.36,0.216,0.72,0.36,1.08
		c5.328,0.216,8.208,0.72,10.8,0.864c-0.288-0.648-0.576-1.296-0.864-1.944c-0.072-1.224-0.144-2.52-0.216-3.816
		c0.144-0.576,0.288-1.152,0.504-1.728c0.432-0.288,0.864-0.576,1.296-0.864c1.296-0.072,2.592-0.144,3.888-0.216
		c0.432,0.288,0.936,0.576,1.44,0.936c0.72,1.656,1.44,3.312,2.232,4.968c0.144,0.792,0.288,1.584,0.504,2.376
		c2.736,0,5.472,0.072,8.28,0.144c0-0.288,0-0.576,0.072-0.864c-2.88-3.312-4.752-6.192-5.976-7.416
		c-1.224-1.8-2.52-3.672-3.816-5.544c-7.704-9.072-7.704-9.072-9.648-11.016c-3.168-4.032-6.336-8.136-9.576-12.24
		c-2.592-3.024-5.256-6.0481-7.92-9.144c-3.096-3.96-6.192-7.92-9.36-11.952c-0.072-0.288-0.144-0.6479-0.216-1.0079
		c-0.72-0.576-1.44-1.224-2.16-1.8721c-3.888-5.76-3.888-5.76-13.104-17.7839c-1.08-0.936-2.52-2.88-2.736-3.6001
		c-0.36-0.2879-0.792-0.5759-1.224-0.9359c-0.936-1.2961-1.872-2.592-2.88-3.888c-0.072-0.36-0.144-0.7201-0.216-1.152
		C97.488,0.432,97.704,0.216,97.92,0c0.288,0,0.648,0,1.008,0c3.816,5.544,5.976,7.92,11.592,15.7679
		c0.72,0.432,0.72,0.432,1.656,1.6561c0.144,0.4319,0.288,0.936,0.504,1.44c0.36,0.288,0.792,0.5759,1.224,0.936
		c0.432,1.008,2.376,3.384,4.32,6.48c7.632,9.648,9.792,12.024,11.952,15.12c6.048,6.9839,6.984,8.424,9.144,10.8
		c3.816,5.3281,3.816,5.3281,5.976,7.92c1.224,1.008,2.16,2.448,9.864,10.8c3.816,4.824,3.816,4.824,5.76,7.704
		c1.944,1.944,1.944,1.944,8.28,10.08c2.448,0.36,2.448,0.36,7.704,0.576c0.72-0.072,1.44-0.216,2.232-0.36c0-0.72,0-1.44,0-2.16
		c0.648-1.152,0.648-1.152,1.368-1.656c0.432,0,0.936-0.072,1.44-0.144c0.936,1.656,0.936,1.656,1.656,3.744
		c0.936,0.144,1.872,0.36,2.88,0.576c1.584-0.072,3.168-0.144,4.824-0.216c0.576-1.296,1.152-2.592,1.8-3.96
		c0.576-0.36,0.576-0.36,3.24-0.648c0.432,0.432,0.936,0.936,1.44,1.44c0.072,1.152,0.072,1.152-0.36,1.872
		c-0.504,0.072-1.008,0.144-1.584,0.288c-0.072,0.288-0.144,0.576-0.216,0.864c1.728,0.432,3.456,0.864,5.256,1.296
		c0.72,0.648,0.72,0.648,1.44,2.088c-0.36,1.224-0.36,1.224-1.296,2.664c-0.36,0.288-0.72,0.576-1.08,0.936
		c-5.256,1.512-10.512,3.096-15.84,4.68c-1.224,0.576-2.448,1.152-3.744,1.8c0,0.504,0,1.08,0,1.656
		c1.44,2.448,5.544,8.208,9,12.528c1.08,0,2.232,0,3.384,0.072c7.92-0.936,10.584-0.936,11.016-1.224
		c5.472-0.144,11.016-0.288,16.56-0.432c3.6-0.504,3.6-0.504,6.264-0.504c0.36,0.144,0.792,0.288,1.224,0.504
		c0.576,0.936,1.224,1.944,1.872,2.952c2.88,2.088,2.88,2.088,3.888,2.5201c0.576,0.864,1.224,1.728,1.872,2.664
		c2.448,1.44,2.448,1.44,7.704,5.544c3.384,1.872,3.384,1.872,4.5359,2.88c2.736,1.08,5.472,2.16,8.208,3.312
		c1.152,1.008,4.536,2.88,7.632,5.328c1.728,0.936,3.888,2.88,9.36,6.696c1.728,0.936,2.88,1.944,3.888,2.376
		c0.936,1.008,6.192,5.04,13.896,12.024c0.288,0.36,0.576,0.792,0.936,1.224c2.664,1.872,2.664,1.872,4.608,2.88
		c1.872,0.576,3.8159,1.224,5.7599,1.872c1.944,1.008,3.9601,2.088,5.976,3.168c0.432,0,0.936,0,1.44,0
		c2.808-0.936,5.616-1.872,8.424-2.88c1.584-0.144,3.168-0.288,4.752-0.504c0.864-0.288,1.728-0.576,2.664-0.936
		c4.464-0.6479,8.928-1.296,13.464-1.944c1.8-0.072,3.6-0.144,5.472-0.216c5.976-0.792,11.952-1.584,18-2.448
		c1.368-0.288,2.736-0.576,4.104-0.936c8.64-0.936,8.64-0.936,11.736-1.656c3.168,0,3.168,0,5.76-0.504
		c2.664,0.216,2.664,0.216,10.08,0c10.584-0.936,10.584-0.936,24.768-2.88c3.6-0.648,7.2-1.296,10.8-1.944
		c2.592-0.936,2.592-0.936,6.696-1.872c0.36,0,0.72,0.072,1.152,0.144c0,0.432,0.072,0.936,0.144,1.44
		c-0.432,0.288-0.936,0.576-1.44,0.936c-0.936,1.656-1.872,3.312-2.88,5.04c-0.576,2.232-1.152,4.464-1.8,6.696
		c0.792,0,1.584-0.072,2.448-0.144c0.792,1.152,0.792,1.152,0.792,1.872c-0.36,0.288-0.792,0.576-1.224,0.936
		c-7.488,2.736-7.488,2.736-7.992,3.24c-0.36,4.68-0.36,4.68-0.648,4.896c-0.288,0.792-0.576,1.584-0.936,2.448
		c-0.648,0.72-1.296,1.44-1.944,2.16c-0.864,0.576-1.728,1.224-2.592,1.872c-1.296,1.512-2.592,3.024-3.888,4.608
		c-1.44,3.312-2.376,4.536-4.32,9.36c-0.792,3.168-1.584,6.336-2.376,9.576c0,0.36,0.072,0.72,0.144,1.08c0.936,0,1.872,0,2.88,0
		c1.512-0.648,3.024-1.296,4.536-1.944c3.168,0,3.168,0,6.048,0.504c0.936,0.288,1.872,0.576,2.88,0.936
		c0.864-0.072,1.728-0.144,2.592-0.216c2.448-2.448,2.448-2.448,2.736-3.24c0.648,0,1.368-0.072,2.088-0.144
		c1.224,0.432,2.52,0.936,3.816,1.44c0.288,0.36,0.648,0.792,1.008,1.224c2.592,1.152,2.88,1.512,6.192,3.096
		c1.0081,0.216,2.088,0.432,3.168,0.72c1.2241,0,2.448,0,3.672-0.072c0.072-0.7921,0.144-1.584,0.216-2.448
		c0.144-0.072,0.2881-0.216,0.432-0.36c0.792,0.072,1.584,0.144,2.376,0.216c0.504,0.432,1.08,0.864,1.656,1.368
		c1.512,0.072,3.024,0.216,4.608,0.36c0.36,0.432,0.72,0.936,1.152,1.44c0.576,0,1.152,0,1.728,0
		c0.288-0.288,0.5759-0.648,0.936-1.008c0.504-0.072,1.08-0.144,1.6559-0.216c1.872,1.08,3.816,2.232,5.76,3.384
		c1.008,0,2.088,0,3.168,0c0.576,0.72,1.224,1.44,1.8719,2.232c1.584,1.224,3.168,2.448,4.824,3.672c0,0.504,0,1.008,0,1.512
		c-0.7199,0.144-1.4399,0.288-2.1599,0.504c-0.36,0.36-0.792,0.72-1.224,1.152c0,0.36-0.072,0.72-0.144,1.152
		c0.144,0.216,0.288,0.432,0.504,0.72c6.12,0.792,6.12,0.792,8.28,1.296c0.792,0.576,1.6559,1.152,2.52,1.8
		c0.72,1.944,0.72,1.944,0.72,3.096c-0.144,0.144-0.36,0.288-0.576,0.504c-1.008-0.504-1.008-0.504-1.584-1.224
		c0-1.152,0-1.152-0.504-2.16c-0.1441-0.144-0.36-0.288-0.576-0.504c-2.0161-0.216-4.104-0.504-6.1921-0.792
		c-0.504-0.504-0.504-0.504-5.3279-2.88c-0.432-0.72-0.432-0.72-1.8-1.584c0-0.216,0-0.432,0-0.72
		c0.864-0.936,2.52-2.016,2.8801-2.592c-0.216-1.008-0.216-1.008-0.72-1.728c-0.36-0.288-0.792-0.576-1.224-0.936
		c-2.736-0.864-4.896-2.088-6.336-2.52c-0.432-0.504-0.432-0.504-1.656-1.008c-0.288,0-0.576,0-0.936,0
		c-0.432,0.432-0.936,0.936-1.44,1.44c-2.4481-0.72-2.4481-0.72-5.328-2.16c-3.096-0.432-3.6-0.72-4.896-0.576
		c-0.144,0.2881-0.288,0.648-0.504,1.008c-1.296,0.288-3.456,0.288-4.392,0.576c-0.864,0-1.728,0-2.664,0
		c-1.08-0.288-2.232-0.648-3.384-1.008c-1.224-0.576-2.52-1.224-3.816-1.872c-1.656-1.08-3.312-2.232-5.04-3.384
		c-0.432,0-0.936,0-1.44,0c-0.288,0.36-0.576,0.792-0.936,1.224c-1.08,0.72-2.232,1.44-3.384,2.16
		c-5.5439-0.72-6.696-1.224-10.08-1.728c-0.864,0.288-1.728,0.648-2.664,1.008c-0.36,0.288-0.72,0.576-1.152,0.936
		c-3.888,0.72-3.888,0.72-8.424,0.936c-0.72,0.504-0.72,0.504-5.04,1.44c-2.16,1.728-2.16,1.728-3.384,2.16
		c-1.512,1.368-3.024,2.736-4.536,4.1039c-1.224,0.504-1.224,0.504-4.32,2.88c-4.32,1.44-4.32,1.44-5.04,1.944
		c-4.104,0.432-4.104,0.432-7.416,0.432c-0.36,0.144-0.792,0.288-1.224,0.504c-1.8,0-3.672,0-5.544,0
		c-1.872,0.504-5.256,0.936-5.472,1.224c-2.016,0.432-4.032,0.936-6.048,1.44c-6.696,6.192-6.696,6.192-7.632,6.696
		c-0.648,0.792-1.2961,1.584-1.944,2.376c-0.216,0.072-0.432,0.144-0.72,0.288c-0.648,0.792-1.296,1.584-1.944,2.376
		c-2.376,1.944-2.376,1.944-4.032,2.88c-3.384,0.936-3.384,0.936-4.32,1.44c-2.088,0.144-4.176,0.288-6.264,0.504
		c-1.656,0.432-3.312,0.936-5.04,1.44c-1.44,1.152-1.44,1.152-3.6,2.16c-1.008,0.288-2.016,0.576-3.096,0.936
		c-11.088,5.256-11.52,5.7599-15.84,7.7039c-0.936,0.2881-1.872,0.576-2.88,0.936c-4.968,0.936-9.936,1.872-14.904,2.88
		c-3.816,1.872-7.632,3.816-11.52,5.76c-1.8,0.6479-3.672,1.296-5.544,1.944c-1.44,0.936-6.696,2.88-9.792,4.32
		c-0.792,0.144-1.584,0.288-2.448,0.432c-0.576,0.288-1.224,0.648-1.872,1.008c-8.928,2.88-8.928,2.88-11.088,3.312
		c-0.576,0.288-1.224,0.648-1.872,1.008c-2.088,0.576-4.176,1.224-6.264,1.872c-1.224,0.576-2.52,1.152-3.816,1.728
		c-3.888,0.936-4.824,1.44-12.528,3.312c-3.6,0.504-4.752,1.008-10.8,1.944c-0.432,0.144-0.936,0.288-1.44,0.504
		c-1.224,0.072-2.52,0.144-3.816,0.216c-2.16,0.72-4.104,0.936-4.536,1.224c-0.72,0.072-1.44,0.144-2.16,0.216
		c-0.72,0.504-0.72,0.504-6.264,1.944c-4.104,0.432-4.104,0.432-6.264,0.936c-0.936,0.504-3.6,0.936-4.32,1.44
		c-3.6,0.936-4.536,1.44-11.952,3.384c-6.264,1.152-6.48,1.44-9.648,1.872c-0.288,0.144-0.576,0.288-0.936,0.504
		c-7.704,0.936-7.92,1.224-12.024,1.656c-0.576,0.288-1.224,0.6479-1.872,1.008c-2.016,0.288-4.032,0.576-6.048,0.936
		c-0.936,0.504-0.936,0.504-18.936,4.104c-6.696,0.936-16.056,2.88-19.224,3.0959c-2.232,0.648-4.464,1.2961-6.696,1.944
		c-1.008,0.144-2.016,0.2881-3.096,0.432c-1.728,1.296-3.528,2.592-5.328,3.888c-1.872,2.16-1.872,2.16-3.6,3.6
		c-1.152,0.144-2.376,0.288-3.6,0.432c-0.864,0.288-1.728,0.648-2.592,1.008c-1.944,2.376-1.944,2.376-2.448,2.592
		c-1.872,0-1.872,0-3.6-0.432c-2.952,0.504-5.904,1.08-8.856,1.656c-0.648,0.432-1.296,0.936-1.944,1.44
		c-1.584,0.648-3.168,1.296-4.752,1.944c-2.808,0.576-5.616,1.224-8.424,1.872c-0.648,0.576-1.296,1.152-1.944,1.728
		c-4.752,1.872-4.752,1.872-14.112,4.752c-2.016,0.288-4.032,0.648-6.048,1.008c-2.016,0.576-4.104,1.224-6.192,1.872
		C13.32,338.832,11.952,339.048,10.584,339.264L10.584,339.264z"/>
	<path fill-rule="evenodd" clip-rule="evenodd" fill="#FFFFFF" d="M73.224,314.856c-5.256-0.936-5.256-0.936-8.64-1.872
		c-0.936-0.504-0.936-0.504-7.92-1.728c-1.656-0.072-3.312-0.144-5.04-0.216c-0.864-0.288-1.728-0.576-2.664-0.936
		c-0.864-0.6479-1.728-1.296-2.592-1.944c-1.08-0.432-2.232-0.936-3.384-1.44c-4.824-0.936-4.824-0.936-10.296-2.376
		c-5.04-1.944-5.04-1.944-8.784-3.744c-0.288-4.32-0.504-4.752-1.008-10.8c0.216-3.312,0.432-6.696,0.72-10.08
		c0.504-1.44,0.504-1.44,0.864-1.8c0.792,0.072,1.584,0.144,2.448,0.216c1.512,0.432,3.024,0.936,4.536,1.44
		c8.424,1.008,13.68,1.944,17.784,2.16c1.224,0.288,2.52,0.6479,3.816,1.008c4.968,0.504,9.936,1.08,14.904,1.656
		c2.664,0.648,5.4,1.296,8.136,1.944c2.448,0.288,4.896,0.576,7.416,0.936c3.6,0.936,3.6,0.936,6.048,2.016
		c-0.432,2.952-0.432,2.952-0.648,12.312c0.072,0.864,0.144,1.7281,0.216,2.592c-0.648,0.864-1.296,1.728-2.016,2.664
		c-1.728,0.864-3.456,1.8-5.256,2.736c-1.08,1.584-2.232,3.168-3.384,4.824c-0.288,0.144-0.576,0.288-0.936,0.432
		C76.104,314.856,74.664,314.856,73.224,314.856L73.224,314.856z"/>
	<path fill-rule="evenodd" clip-rule="evenodd" d="M1.944,311.04c-0.504-0.144-1.08-0.36-1.656-0.576
		c-0.072-0.36-0.144-0.792-0.288-1.224c1.08-0.288,2.232-0.576,3.384-0.864c1.224-0.504,2.52-1.08,3.816-1.656
		c0.432,0,0.936,0,1.44,0c0.144,0.144,0.288,0.288,0.504,0.504c1.224,0,1.224,0,2.376-0.504c1.008-0.936,1.008-0.936,1.8-2.52
		c1.872-0.72,3.744-1.512,5.688-2.304c0.72-0.0721,1.44-0.144,2.16-0.216c0.072,0.072,0.144,0.216,0.216,0.36
		c-0.72,0.576-4.32,1.584-5.976,2.5201c-0.72,0.792-1.44,1.6559-2.16,2.52c-0.936,0.72-1.872,1.512-2.88,2.304
		c-2.088,0.504-4.176,1.08-6.264,1.656C3.384,311.04,2.664,311.04,1.944,311.04L1.944,311.04z"/>
	<path fill-rule="evenodd" clip-rule="evenodd" fill="#FFFFFF" d="M90.288,308.304c0.288-1.44,1.296-3.096,1.512-4.32
		c-0.072-3.384-0.144-6.84-0.216-10.296c0.144-1.008,0.288-2.088,0.432-3.168c0.288-0.504,0.576-1.008,0.864-1.584
		c3.6-0.936,6.048-1.872,6.264-2.16c2.952-0.936,5.904-1.872,8.856-2.88c1.296-0.144,2.592-0.2881,3.888-0.432
		c4.464-1.584,8.928-3.168,13.392-4.824c1.44-0.144,2.88-0.288,4.32-0.504c2.88-0.936,2.88-0.936,7.92-1.872
		c1.584-0.6479,3.168-1.296,4.824-1.944c3.6-0.792,7.2-1.584,10.8-2.376c0.504-0.288,1.08-0.648,1.656-1.008
		c3.528-0.432,7.056-0.936,10.584-1.44c3.6-0.936,8.856-1.872,12.24-2.88c2.376-0.288,4.752-0.576,7.2-0.936
		c2.304-0.648,4.608-1.2961,6.984-1.944c4.752-1.872,4.752-1.872,12.96-5.76c10.08-3.816,14.4-5.76,19.656-7.632
		c0.432-0.288,0.936-0.648,1.44-1.008c5.112-1.872,10.224-3.816,15.336-5.76c1.44-0.936,1.44-0.936,5.76-2.88
		c1.008-0.288,2.088-0.576,3.168-0.936c1.2961-0.6479,2.664-1.296,4.032-1.944c3.384-0.936,15.84-5.7599,19.008-6.696
		c0.936-0.504,2.88-0.936,7.2-2.88c1.6559-0.432,3.312-0.936,5.0399-1.44c1.2961-0.648,2.664-1.296,4.032-1.944
		c10.8-3.816,10.8-3.816,20.664-7.632c0.792-0.144,1.584-0.288,2.376-0.504c4.608-1.944,4.608-1.944,7.2-3.384
		c3.384-0.936,12.9601-4.752,18.72-6.696c0.72-0.504,0.72-0.504,21.384-7.2c4.104-0.936,7.2-1.944,12.024-2.88
		c5.472-1.944,5.472-1.944,11.232-3.384c1.08-0.432,2.232-0.936,3.384-1.44c5.544-0.936,8.64-1.872,12.456-2.592
		c5.544-1.944,9.144-2.88,9.864-3.384c1.728-0.144,3.456-0.288,5.256-0.504c0.072,0.072,0.144,0.216,0.288,0.36
		c-0.576,0.792-1.224,1.584-1.872,2.448c-0.9359,2.376-0.9359,2.376-2.88,5.976c-3.816,12.744-3.816,12.744-4.032,14.184
		c-2.16,0.72-4.392,1.44-6.624,2.232c-1.008,0.6479-2.016,1.296-3.096,1.944c-0.648,0.648-1.296,1.296-1.944,1.944
		c-5.256,3.816-5.256,3.816-8.64,5.76c-1.5121,0.432-3.024,0.936-4.536,1.44c-4.104,0.2881-8.28,0.576-12.456,0.936
		c-1.8,0.288-3.672,0.576-5.544,0.936c-3.816,1.224-3.816,1.224-5.04,1.224c-1.944,1.08-1.944,1.08-5.256,3.816
		c-0.432,0.6479-0.936,1.296-1.44,1.944c-1.44,0.936-6.048,5.256-7.2,6.624c-0.864,0.648-1.728,1.296-2.664,2.016
		c-2.376,0.936-2.376,0.936-6.984,1.944c-1.224,0.072-2.52,0.144-3.816,0.216c-0.72,0.504-0.72,0.504-7.2,2.376
		c-1.656,1.008-2.88,1.44-3.384,1.944c-2.88,0.936-20.16,8.64-21.8159,9.144c-2.304,0.288-4.608,0.576-6.984,0.936
		c-2.448,0.648-4.896,1.2961-7.416,1.944c-7.416,3.816-9.864,4.752-11.52,5.76c-6.984,2.88-6.984,2.88-22.32,8.64
		c-2.448,0.576-4.896,1.224-7.416,1.872c-1.44,0.648-2.88,1.2961-4.32,1.944c-4.896,1.584-9.792,3.168-14.688,4.824
		c-9.576,1.872-9.576,1.872-10.08,2.16c-1.44,0.144-2.88,0.288-4.32,0.432c-2.376,0.72-2.376,0.72-3.096,1.224
		c-7.416,1.44-9.36,2.16-13.176,2.88c-0.288,0.144-0.648,0.288-1.008,0.504c-2.304,0.288-4.608,0.576-6.912,0.936
		c-2.448,0.936-10.584,2.88-17.064,4.824c-4.536,1.008-9.072,2.0161-13.68,3.096c-0.72,0-1.44,0-2.16,0
		c-7.416,1.656-7.704,1.944-11.304,2.664c-0.864,0.072-1.728,0.144-2.592,0.216c-0.144,0.144-0.288,0.288-0.504,0.504
		c-3.384,0.432-3.384,0.432-7.92,1.44c-0.936,0.288-1.872,0.576-2.88,0.936c-8.856,1.44-8.856,1.44-12.456,1.656
		c-3.168,0.648-6.408,1.296-9.648,1.944c-2.52,0.288-5.04,0.576-7.632,0.936C94.608,307.368,92.448,307.8,90.288,308.304
		L90.288,308.304z"/>
	<path fill-rule="evenodd" clip-rule="evenodd" d="M2.88,297.864c0-0.432-0.072-0.864-0.144-1.296c1.08-0.648,2.16-1.296,3.24-1.944
		c2.664-0.36,2.664-0.36,6.048-1.368c0.936-0.576,1.872-1.224,2.88-1.872c1.296-0.36,2.664-0.72,4.032-1.08
		c0,0.216,0.072,0.432,0.144,0.72c-3.672,1.8-3.672,1.8-6.552,3.672c-2.016,0.648-4.032,1.296-6.048,1.944
		c-0.792,0.36-1.584,0.792-2.376,1.224C3.744,297.864,3.312,297.864,2.88,297.864L2.88,297.864z"/>
	<path fill-rule="evenodd" clip-rule="evenodd" d="M93.6,292.5359c0-0.504-0.072-1.008-0.144-1.512
		c0.648-0.36,0.648-0.36,4.464-0.864c0.36,0.072,0.792,0.144,1.224,0.216c0,0.36,0,0.72,0.072,1.152
		C96.048,292.3199,96.048,292.3199,93.6,292.5359L93.6,292.5359z"/>
	<path fill-rule="evenodd" clip-rule="evenodd" fill="#FFFFFF" d="M89.784,287.28c-0.144-0.144-0.288-0.288-0.504-0.504
		c-1.656-0.432-3.312-0.936-5.04-1.44c-4.32-0.216-4.32-0.216-9.576-0.936c-2.376-0.648-4.752-1.2961-7.2-1.944
		C63,282.024,58.536,281.52,54,281.016c-1.224-0.288-2.52-0.576-3.816-0.936c-1.944,0-13.68-1.944-19.224-2.376
		c-1.584-0.432-3.24-0.864-4.896-1.296c0-0.36,0-0.792,0-1.224c0.432-0.36,0.864-0.792,1.296-1.224
		c11.52-3.744,18.288-5.616,18.504-5.904c3.096-0.432,6.48-1.44,10.584-1.872c1.8-0.648,3.6-1.296,5.472-1.944
		c0.864-0.432,1.728-0.936,2.664-1.44c5.04-0.936,5.04-0.936,15.84-3.816c0.216-0.144,0.432-0.288,0.72-0.504
		c8.64-1.944,8.64-1.944,13.176-3.24c-0.288,0.936-0.576,1.872-0.864,2.88c-6.552,2.16-13.104,4.392-19.728,6.624
		c-15.408,3.816-21.888,5.76-27.864,7.2c-1.656,0.936-1.656,0.936-2.16,1.512c0.36,1.008,0.36,1.008,0.936,1.512
		c1.224,0.288,1.944,0.792,3.6,1.296c3.384,0,3.384,0,22.32,1.872c2.448,0.432,4.968,0.936,7.488,1.44
		c1.8,0.648,3.6,1.296,5.472,1.944c1.44,0.288,2.88,0.576,4.32,0.936c1.08,0.432,2.232,0.936,3.384,1.44
		c0.936-0.0721,1.872-0.144,2.88-0.216c1.512-0.432,3.024-0.936,4.536-1.44c2.376-0.288,4.752-0.576,7.2-0.936
		c1.44-0.648,2.88-1.296,4.32-1.944c3.816-1.08,7.632-2.232,11.52-3.384c0.576,0,1.152,0,1.728-0.072
		c0,0.216-0.072,0.432-0.144,0.72c-3.96,1.8-3.96,1.8-10.944,4.176c-1.44,0.144-2.88,0.288-4.32,0.504
		c-5.472,1.872-10.08,3.816-13.392,4.752c-0.936,0.144-1.872,0.288-2.88,0.504C90.504,287.28,90.504,287.28,89.784,287.28
		L89.784,287.28z"/>
	<path fill-rule="evenodd" clip-rule="evenodd" fill="#FFFFFF" d="M74.448,276.696c-3.168-0.432-3.168-0.432-4.608-0.936
		c-12.24-0.936-12.24-0.936-19.44-1.8c-0.072-0.216-0.144-0.432-0.216-0.72c1.728-0.576,3.456-1.152,5.256-1.8
		c8.208-1.944,8.208-1.944,18.504-4.8239c2.16-0.936,2.16-0.936,18-5.76c0.504,0,1.008,0.072,1.512,0.144
		c0.504,6.984,0.504,6.984,0.432,10.224c-1.584,0.576-3.168,1.224-4.824,1.872c-6.984,1.944-6.984,1.944-9.864,2.448
		c-0.72,0.2881-1.44,0.576-2.16,0.936C76.176,276.552,75.312,276.624,74.448,276.696L74.448,276.696z"/>
	<path fill-rule="evenodd" clip-rule="evenodd" fill="#FFFFFF" d="M126.72,272.664c-0.432-0.288-2.88-0.288-9.36-1.224
		c-1.8-0.432-3.6-0.936-5.472-1.4399c-2.088-0.072-4.176-0.144-6.264-0.216c-4.104-0.72-4.104-0.72-8.136-1.08
		c-0.432-2.376-0.432-2.376-0.648-5.976c0.072-1.584,0.144-3.168,0.216-4.824c0.864-0.648,1.728-1.368,2.592-2.088
		c0.936-0.216,0.936-0.216,7.416,0c2.88,0.216,5.76,0.432,8.64,0.72c1.08,0.288,2.232,0.648,3.384,1.008
		c12.672,1.44,12.672,1.44,13.752,1.8c0.072,3.168,0.144,6.336,0.216,9.576c-1.656,1.224-3.384,2.448-5.112,3.744
		C127.584,272.664,127.152,272.664,126.72,272.664L126.72,272.664z"/>
	<path fill-rule="evenodd" clip-rule="evenodd" fill="#FFFFFF" d="M146.16,269.784c-0.144-0.072-0.36-0.216-0.576-0.36
		c0.216-1.656,0.216-1.656-0.144-11.304c1.296-0.36,2.592-0.72,3.888-1.08c5.04,0,5.04,0,6.192-0.216
		c1.008-1.08,1.008-1.08,1.296-2.016c0.144-2.016,0.288-4.032,0.432-6.048c1.656,0.36,1.656,0.36,5.04,0.576
		c1.152,0.648,1.152,0.648,1.44,1.08c-0.864,1.728-1.872,2.952-3.744,6.984c-1.872,3.168-3.816,6.408-5.76,9.648
		c-1.08,0.936-1.08,0.936-2.52,1.728C147.6,269.784,147.6,269.784,146.16,269.784L146.16,269.784z"/>
	<path fill-rule="evenodd" clip-rule="evenodd" fill="#FFFFFF" d="M158.904,267.336c-0.072-0.0721-0.216-0.144-0.36-0.288
		c0.072-0.648,0.144-1.296,0.216-1.944c0.648-0.864,1.296-1.728,1.944-2.664c1.224-2.448,2.52-4.896,3.816-7.416
		c5.76-8.64,6.696-10.584,7.56-11.664c1.368-0.072,2.736-0.144,4.104-0.216c1.512-0.648,3.024-1.296,4.536-1.944
		c0.792-0.072,1.584-0.144,2.448-0.216c0.72-0.504,5.04-1.44,7.2-2.448c3.456-0.576,6.984-1.224,10.512-1.872
		c24.48-5.76,24.48-5.76,30.528-7.488c1.872-0.936,4.32-1.44,6.48-2.376c4.032-0.936,6.912-1.944,9.36-2.376
		c0.432,0,0.936,0,1.44,0.072c-1.008,1.368-3.384,3.24-11.088,10.728c-2.88,3.6-3.6,4.032-4.032,4.752
		c-4.608,3.888-4.608,3.888-9.648,7.704c-3.096,1.44-8.352,3.384-9.792,4.32c-6.48,2.8799-6.48,2.8799-9.648,3.8159
		c-3.168,1.512-6.336,3.024-9.576,4.608c-0.864,0.144-1.728,0.288-2.664,0.432c-2.16,1.008-2.16,1.008-8.352,2.88
		c-0.72,0-1.44,0-2.16,0c-5.976,1.08-11.952,2.232-18,3.384C162.144,267.192,160.56,267.2639,158.904,267.336L158.904,267.336z"/>
	<path fill-rule="evenodd" clip-rule="evenodd" fill="#FFFFFF" d="M136.368,265.176c-0.144-1.872-0.288-3.744-0.432-5.616
		c0.144-0.072,0.288-0.216,0.432-0.36c1.152,0.072,2.376,0.144,3.6,0.216c0,0.864,0,1.728,0.072,2.592
		c-0.144,0.576-0.288,1.224-0.504,1.872c-0.648,0.432-1.296,0.864-2.016,1.2961C137.16,265.176,136.8,265.176,136.368,265.176
		L136.368,265.176z"/>
	<path fill-rule="evenodd" clip-rule="evenodd" d="M173.52,259.92c-0.36-0.36-0.36-0.36-0.36-1.512
		c3.024-4.104,3.024-4.104,3.744-4.608c0.648-0.072,1.296-0.216,1.944-0.36c1.512-0.648,3.024-1.296,4.536-1.944
		c5.832-1.728,11.664-3.456,17.496-5.256c0.72,0,1.44,0,2.16,0c0.72,0.504,0.72,0.504,1.224,1.296
		c-0.936,1.368-0.936,1.368-2.88,3.2401c-2.16,0.648-4.32,1.296-6.48,1.944c-1.44,0.648-2.88,1.296-4.32,1.944
		c-3.528,0.936-7.056,1.872-10.584,2.88c-1.728,0.7921-3.456,1.584-5.256,2.376C174.384,259.92,173.952,259.92,173.52,259.92
		L173.52,259.92z"/>
	<path fill-rule="evenodd" clip-rule="evenodd" fill="#FFFFFF" d="M136.584,256.5359c-3.168-0.144-6.336-0.288-9.576-0.432
		c-10.368-1.44-10.368-1.44-10.8-1.728c-5.04-0.432-10.08-0.864-15.192-1.296c0-0.36,0.072-0.72,0.144-1.152
		c1.368-1.44,2.736-2.88,4.104-4.32c1.08-1.512,2.16-3.024,3.312-4.608c0.504,0,1.008-0.072,1.584-0.144
		c5.76,1.008,6.48,1.44,13.968,3.168c1.944-0.072,3.96-0.144,5.976-0.288c1.224-0.216,2.52-0.432,3.816-0.72
		c3.6,0.432,7.2,0.936,10.8,1.44c0.144,0.144,0.36,0.288,0.576,0.432c0.072,2.664,0.144,5.4,0.288,8.136
		c-0.072,0.216-0.216,0.504-0.36,0.792C142.344,256.032,139.464,256.248,136.584,256.5359L136.584,256.5359z"/>
	<path fill-rule="evenodd" clip-rule="evenodd" fill="#FFFFFF" d="M233.568,244.224c0.072-0.288,0.144-0.576,0.216-0.936
		c3.96-4.104,3.96-4.104,5.832-6.48c2.88-2.808,5.76-5.616,8.64-8.424c1.728-1.224,3.456-2.52,5.184-3.816
		c2.376-1.224,4.752-2.448,7.2-3.744c1.08-0.144,2.232-0.288,3.3839-0.504c0.72-0.504,0.72-0.504,5.976-1.944
		c0.864-0.072,1.728-0.144,2.664-0.288c-0.072,0.504-0.216,1.08-0.36,1.656c-1.008,2.232-2.088,4.464-3.168,6.696
		c0,0.288,0,0.648,0,1.008c0.216,0.144,0.432,0.36,0.648,0.576c0.36,0,0.792,0,1.224,0c0.288-0.432,0.576-0.864,0.936-1.368
		c3.672-9.072,3.672-9.072,4.176-9.576c13.32-3.744,13.32-3.744,16.92-4.536c-0.864,2.88-0.864,2.88-2.304,6.264
		c0,0.432,0,0.936,0,1.44c0.576,0.216,1.224,0.504,1.872,0.792c-1.296,0.648-2.592,1.2961-3.888,1.944
		c-10.512,3.816-10.512,3.816-14.832,5.76c-1.152,0.288-2.376,0.576-3.6,0.936c-10.08,3.816-10.08,3.816-19.008,6.696
		c-0.432,0.288-0.936,0.648-1.44,1.008c-1.872,0.576-3.816,1.224-5.76,1.872c-1.728,0.936-3.456,1.872-5.256,2.88
		C237.096,242.784,235.368,243.504,233.568,244.224L233.568,244.224z"/>
	<path fill-rule="evenodd" clip-rule="evenodd" fill="#FFFFFF" d="M169.704,239.7599c-0.216,0-0.432,0-0.72-0.072
		c0-0.36,0-0.792,0.072-1.224c0.648-0.936,1.296-1.872,1.944-2.88c0.072-0.36,0.144-0.792,0.216-1.224
		c-0.432-0.72-0.432-0.72-1.008-1.08c-1.296-0.072-2.592-0.144-3.888-0.216c-0.792,0.288-1.584,0.576-2.376,0.936
		c-1.008,0.144-2.016,0.288-3.096,0.504c-3.6,1.872-4.824,2.88-5.544,3.096c-3.6-0.216-3.6-0.216-6.48-0.72
		c-1.224-0.504-11.304-2.376-12.24-2.88c-2.232-0.36-4.464-0.72-6.768-1.08c-0.36-1.152-0.36-1.152-1.296-12.456
		c0-9.576,0-9.576-0.576-18.72c7.2,0.576,7.2,0.576,12.024,0.576c4.248,0.432,8.496,0.864,12.816,1.368
		c0.288,2.232,0.576,4.464,0.936,6.696c0.936,1.44,0.936,1.44,1.584,1.8c2.664,0,5.4,0,8.136,0c2.592,0.36,5.256,0.72,7.92,1.152
		c0.576-0.288,0.576-0.288,0.864-1.008c0-1.224,0-1.224-0.504-2.88c0-0.936,0.072-1.944,0.144-2.952
		c1.656-0.36,1.656-0.36,7.416-0.648c0.576,3.816,1.152,7.632,1.8,11.52c0.072,3.24,0.144,6.48,0.216,9.792
		c-2.592,3.096-5.256,6.192-7.92,9.36c-0.576,1.008-1.152,2.016-1.728,3.024C171,239.616,170.352,239.688,169.704,239.7599
		L169.704,239.7599z"/>
	<path fill-rule="evenodd" clip-rule="evenodd" fill="#FFFFFF" d="M109.944,239.688c0-0.288,0-0.648,0.072-1.008
		c0.936-1.728,1.872-3.456,2.88-5.256c1.44-1.512,2.88-3.024,4.32-4.536c2.664-4.176,5.328-8.3521,8.064-12.528
		c0.216-0.072,0.432-0.144,0.72-0.216c0.288,6.048,0.576,12.096,0.864,18.216c-0.36,0.36-0.36,0.36-3.24,1.296
		c-1.512,0.288-3.024,0.648-4.536,1.008c-3.168,1.44-3.168,1.44-7.92,2.88C110.808,239.5439,110.376,239.616,109.944,239.688
		L109.944,239.688z"/>
	<path fill-rule="evenodd" clip-rule="evenodd" fill="#FFFFFF" d="M175.464,238.968c0.216-0.648,0.504-1.296,0.792-1.944
		c2.88-4.104,2.88-4.104,5.76-7.416c0.648-0.432,1.296-0.936,1.944-1.44c0.216-0.72,0.432-1.44,0.72-2.16
		c-0.288-0.648-0.576-1.296-0.936-1.944c-0.144-3.024-0.288-6.048-0.504-9.144c-0.504-1.44-0.504-1.44-1.656-10.8
		c-0.576-0.36-1.152-0.72-1.8-1.08c-1.44,0.216-1.44,0.216-2.664,0.72c-0.504-0.072-1.08-0.144-1.656-0.216
		c0-0.504-0.072-1.008-0.144-1.584c1.944-2.592,2.376-3.816,3.816-5.76c0.648-0.432,0.648-0.432,6.408-1.584
		c0.792,0.864,1.584,1.728,2.376,2.664c0.432,0.072,0.936,0.144,1.44,0.216c0.36-0.576,0.36-0.576,0.36-1.296
		c-0.216-0.36-0.432-0.72-0.72-1.152c0-0.36,0-0.792-0.072-1.224c6.48-0.864,7.92-1.368,12.24-1.8
		c4.752-1.008,8.64-1.44,8.856-1.728c3.6-0.432,3.6-0.432,12.9601-2.376c0.936-0.288,1.872-0.576,2.88-0.936
		c6.984-1.008,6.984-1.008,10.584-1.224c0.72,0.504,0.72,0.504,3.816,4.824c0.36,0,0.792,0,1.224,0
		c0.432-0.648,0.432-0.648,0.576-2.016c-0.576-0.864-1.152-1.728-1.728-2.664c0-0.36,0.072-0.72,0.144-1.08
		c8.9279-1.944,8.9279-1.944,14.904-2.88c0.648-0.288,1.296-0.648,1.944-1.008c2.88-0.432,5.76-0.936,8.64-1.44
		c7.92-2.376,8.64-2.8799,13.8961-4.3199c1.08-0.0721,2.232-0.144,3.3839-0.216c5.04-0.936,10.08-1.872,15.1201-2.88
		c0-0.432,0-0.864,0.072-1.296c-0.144-0.072-0.36-0.216-0.576-0.36c-3.096,0.216-15.624,2.592-19.944,3.096
		c-5.472,1.944-5.472,1.944-12.2401,3.816c-9.072,1.944-10.512,2.448-25.416,5.328c-0.792,0.072-1.584,0.144-2.376,0.216
		c-2.448-3.096-2.448-3.096-6.408-9c-1.224-2.16-2.52-4.32-3.816-6.4799c-0.072-0.504-0.144-1.08-0.288-1.656
		c4.968-0.864,6.912-0.864,11.448-1.8c1.44-0.648,2.88-1.296,4.32-1.944c0.144-0.288,0.288-0.576,0.504-0.864
		c0-3.168,0-6.336,0.072-9.576c-0.504-4.536-0.504-4.536-0.936-6.192c-0.288-0.36-0.576-0.72-0.864-1.152
		c-0.36-0.144-0.72-0.288-1.152-0.432c-1.008,0.216-2.088,0.432-3.168,0.72c-3.24,1.224-6.48,2.52-9.792,3.816
		c-2.952,1.368-5.904,2.736-8.928,4.104c-0.36,0-0.72-0.072-1.152-0.144c-2.16-2.952-4.392-5.904-6.624-8.856
		c0-0.216,0-0.432,0.072-0.72c1.8-0.432,3.672-0.864,5.544-1.368c1.728,0,1.728,0,12.24-1.872
		c5.904-1.296,11.808-2.592,17.784-3.888c1.08-0.072,2.2321-0.144,3.384-0.216c1.5121,0.648,3.024,1.296,4.536,1.944
		c7.632,5.184,15.336,10.368,23.04,15.552c1.656,1.368,3.312,2.736,5.04,4.104c2.88,2.664,5.76,5.4,8.64,8.136
		c1.44,0.936,2.88,1.872,4.32,2.88c2.088,0.648,4.176,1.296,6.2639,1.944c3.816,1.944,3.816,1.944,14.4001,8.64
		c1.152,1.224,1.152,1.224,2.16,1.656c1.8,1.2961,3.6,2.592,5.472,3.888c3.888,3.816,6.48,5.76,8.928,8.28
		c-0.216,0.144-0.432,0.36-0.72,0.576c-2.664,0.504-2.664,0.504-13.248,3.816c-25.416,5.7599-25.416,5.7599-28.512,6.768
		c-2.448,1.224-4.968,2.52-7.488,3.816c-3.744,1.44-7.488,2.88-11.232,4.32c-1.224,0.936-5.544,2.88-8.424,4.824
		c-1.512,0.792-3.024,1.584-4.536,2.376c-3.384,0.936-3.6,1.224-11.5201,3.096c-3.312,0.936-6.696,1.872-10.08,2.88
		c-2.592,0.936-5.256,1.872-7.92,2.88c-2.88,0.504-6.0479,1.44-8.9279,1.944c-2.376,0.648-4.752,1.296-7.2,1.944
		c-6.192,1.224-12.456,2.52-18.72,3.816c-0.936,0.072-1.872,0.144-2.88,0.216C183.168,237.5999,183.168,237.5999,175.464,238.968
		L175.464,238.968z"/>
	<path fill-rule="evenodd" clip-rule="evenodd" d="M493.2,221.0399c-2.592-0.936-2.592-0.936-2.88-0.792c0-0.288,0-0.648,0-1.008
		c0.288,0,0.648,0,1.008,0c-0.072,0.144-0.144,0.288-0.288,0.504c0.432,0,0.936,0,1.44,0c0.144-0.216,0.288-0.432,0.5039-0.648
		c0.6481,0,1.2961,0.072,1.9441,0.144c-0.4321,1.224-0.4321,1.224-0.864,1.728C493.776,220.968,493.4879,220.968,493.2,221.0399
		L493.2,221.0399z"/>
	<path fill-rule="evenodd" clip-rule="evenodd" fill="#FFFFFF" d="M293.04,220.8239c-0.144-0.144-0.288-0.288-0.432-0.504
		c1.224-3.024,2.448-6.12,3.672-9.216c2.52-0.72,5.04-1.512,7.56-2.304c1.584-0.144,3.168-0.36,4.824-0.576
		c-1.8,6.264-1.8,6.264-2.808,8.424c-4.176,1.728-4.176,1.728-11.376,4.176C294.048,220.8239,293.544,220.8239,293.04,220.8239
		L293.04,220.8239z"/>
	<path fill-rule="evenodd" clip-rule="evenodd" d="M219.384,215.784c-0.648-0.36-1.296-0.72-1.944-1.08
		c-0.288-0.72-0.576-1.44-0.864-2.16c0-0.36,0-0.792,0-1.224c0.288-0.72,0.648-1.44,1.008-2.16
		c0.72-0.792,1.4399-1.584,2.1599-2.376c3.528-2.592,7.056-5.256,10.656-7.92c4.032-1.872,8.136-3.744,12.2401-5.688
		c4.6079-1.44,4.6079-1.44,5.5439-1.44c0.576,0.6479,0.576,0.6479,1.8,4.248c0.432,7.416,0.72,8.64,0.72,11.736
		c-0.144,0.288-0.288,0.648-0.504,1.008c-1.584,0.576-3.24,1.152-4.896,1.728c-8.64,1.944-8.64,1.944-12.024,2.448
		c-3.744,0.936-7.488,1.872-11.232,2.88C221.184,215.784,220.32,215.784,219.384,215.784L219.384,215.784z"/>
	<path fill-rule="evenodd" clip-rule="evenodd" fill="#FFFFFF" d="M272.448,215.424c0.072-0.288,0.144-0.576,0.288-0.936
		c0.576-0.144,1.224-0.288,1.872-0.504c-0.144,0.72-0.144,0.72-0.504,1.08C273.6,215.136,273.024,215.28,272.448,215.424
		L272.448,215.424z"/>
	<path fill-rule="evenodd" clip-rule="evenodd" fill="#FFFFFF" d="M309.168,215.208c0.072-0.792,0.144-1.584,0.288-2.448
		c1.944-5.472,1.944-5.472,2.304-5.904c4.104-0.936,4.104-0.936,9.6479-1.728c-1.1519,3.312-1.1519,3.312-1.1519,4.32
		c0.144,0.144,0.288,0.36,0.4319,0.576c0.36,0,0.72,0,1.152,0c0.504-0.648,0.504-0.648,2.664-6.048
		c10.584-2.16,10.584-2.16,12.024-2.232c0,0.648,0,1.296,0.072,1.944c0.576,0.432,0.576,0.432,0.72,0.936
		c-0.576,0.504-3.96,1.512-16.92,6.84c-1.872,0.432-3.6,1.44-9.36,3.6C310.464,215.064,309.816,215.136,309.168,215.208
		L309.168,215.208z"/>
	<path fill-rule="evenodd" clip-rule="evenodd" fill="#FFFFFF" d="M278.208,213.984c0.072-0.648,0.144-1.296,0.288-1.944
		c2.52-0.864,5.04-1.8,7.632-2.736c0.504-0.288,1.08-0.648,1.656-1.008c6.984-1.872,6.984-1.872,7.92-1.872
		c0.072,0.072,0.144,0.216,0.216,0.36c-0.864,1.944-0.864,1.944-1.656,2.736c-2.88,0.936-5.76,1.872-8.64,2.88
		C283.176,212.904,280.728,213.408,278.208,213.984L278.208,213.984z"/>
	<path fill-rule="evenodd" clip-rule="evenodd" fill="#FFFFFF" d="M298.368,208.008c0.288-1.728,0.288-1.728,0.792-2.664
		c1.512-0.576,3.096-1.152,4.68-1.8c6.048-1.44,6.264-1.728,7.488-1.8c-0.432,1.08-0.864,2.232-1.368,3.384
		c-0.504,0.216-1.008,0.504-1.512,0.792C305.136,206.568,301.752,207.288,298.368,208.008L298.368,208.008z"/>
	<path fill-rule="evenodd" clip-rule="evenodd" d="M257.328,206.64c-0.288-0.504-0.576-1.008-0.864-1.512
		c-0.504-4.104-0.72-10.8-1.008-12.528c0-1.08,0-2.16,0-3.312c0.504-1.224,0.504-1.224,1.08-1.728
		c0.792-0.288,1.584-0.576,2.448-0.864c1.584-0.144,3.168-0.288,4.824-0.432c1.44-0.288,2.88-0.648,4.32-1.008
		c4.752-0.576,9.576-1.224,14.4-1.872c1.944-0.36,3.96-0.792,5.976-1.224c0.216,0.0721,0.504,0.216,0.792,0.36
		c0.144,2.016,0.288,4.032,0.504,6.048c1.44,7.2,1.944,8.136,1.944,9.072c-0.288,0.648-0.648,1.296-1.008,1.944
		c-1.008,0.36-3.456,0.36-7.056,0.792c-1.872,0.504-1.872,0.504-4.5359,0.72c-15.1201,3.888-15.1201,3.888-19.44,5.328
		C258.912,206.496,258.12,206.568,257.328,206.64L257.328,206.64z"/>
	<path fill-rule="evenodd" clip-rule="evenodd" fill="#FFFFFF" d="M313.2,204.12c0.36-1.656,0.36-1.656,1.44-3.6
		c7.2-1.8,7.2-1.8,9.648-2.16c-0.288,0.792-0.576,1.584-0.864,2.448c-0.36,0.432-0.72,0.936-1.08,1.44
		C319.32,202.8239,316.296,203.472,313.2,204.12L313.2,204.12z"/>
	<path fill-rule="evenodd" clip-rule="evenodd" fill="#FFFFFF" d="M338.688,203.904c0.432-1.656,0.864-3.312,1.2961-5.04
		c0.576,0,1.152-0.072,1.8-0.144c0.216-0.36,0.504-0.72,0.792-1.08c0-0.432,0-0.936,0-1.44c-0.432-0.432-0.432-0.432-0.432-1.44
		c0.432-0.432,0.864-0.864,1.296-1.296c6.48-1.944,8.64-2.88,11.52-3.456c-2.736,6.696-2.736,6.696-3.024,8.136
		c0.288,0.504,0.288,0.504,0.288,1.224c-3.96,1.728-3.96,1.728-9.936,3.672C341.136,203.328,339.912,203.616,338.688,203.904
		L338.688,203.904z"/>
	<path fill-rule="evenodd" clip-rule="evenodd" fill="#FFFFFF" d="M169.704,202.5359c-1.656-0.072-3.312-0.144-5.04-0.216
		c-1.512-0.288-3.024-0.576-4.536-0.936c-3.168,0-5.76-0.504-11.304-0.72c-2.88-0.504-2.88-0.504-17.28-1.44
		c-3.816-0.72-4.104-1.008-4.824-1.08c0.072-0.216,0.144-0.432,0.216-0.72c1.8-0.288,3.672-0.576,5.544-0.864
		c1.08,0,2.232,0,3.384,0c4.32-1.44,8.424-3.384,9.864-3.816c1.8,0.216,3.6,0.432,5.472,0.72c3.744,0.072,7.488,0.144,11.304,0.216
		c0.648,0.144,1.296,0.288,1.944,0.504c2.592,0.144,5.256,0.288,7.92,0.432c1.152,0.216,2.376,0.432,3.6,0.648
		c0,0.36-0.072,0.792-0.144,1.224c-0.936,1.512-1.872,3.024-2.88,4.536c-0.576,0.504-1.152,1.008-1.8,1.512
		C170.712,202.5359,170.208,202.5359,169.704,202.5359L169.704,202.5359z"/>
	<path fill-rule="evenodd" clip-rule="evenodd" fill="#FFFFFF" d="M325.944,201.24c0.216-0.792,0.504-1.584,0.792-2.376
		c1.008-1.224,1.008-1.224,1.224-1.944c2.304-0.864,2.304-0.864,4.464-1.296c1.656-0.072,3.312-0.144,5.0399-0.288
		c0.216,0.288,0.504,0.576,0.792,0.864c-0.216,1.728-0.216,1.728-0.72,2.448c-2.016,0.792-2.016,0.792-6.048,1.728
		C329.688,200.664,327.816,200.952,325.944,201.24L325.944,201.24z"/>
	<path fill-rule="evenodd" clip-rule="evenodd" fill="#FFFFFF" d="M354.528,198.648c0.072-0.792,0.144-1.584,0.288-2.448
		c0.936-2.016,1.872-4.104,2.88-6.192c0.4319-0.36,0.864-0.72,1.368-1.152c5.04-1.872,5.04-1.872,6.984-2.88
		c1.512-0.432,3.024-0.864,4.536-1.296c-1.224,2.736-2.448,5.472-3.744,8.208c0,0.4319,0,0.9359,0,1.44
		c0.144,0.144,0.288,0.288,0.504,0.432c-0.072,0.144-0.144,0.288-0.288,0.504C361.44,197.064,361.44,197.064,354.528,198.648
		L354.528,198.648z"/>
	<path fill-rule="evenodd" clip-rule="evenodd" d="M297.144,197.064c-0.36-0.36-0.864-3.96-1.368-5.616
		c-0.216-3.24-0.432-6.552-0.72-9.864c0.144-0.216,0.288-0.432,0.504-0.72c2.52-0.864,7.56-1.8,11.88-3.024
		c1.584,2.088,1.584,2.088,5.904,6.408c1.944,1.512,3.96,3.024,5.976,4.536c0.504,2.376,0.504,2.376,0.504,3.6
		c-0.144,0.216-0.288,0.432-0.504,0.72c-2.376,0.216-4.824,0.504-7.272,0.7921c-8.208,1.944-8.208,1.944-9.144,2.448
		C301.032,196.56,299.088,196.776,297.144,197.064L297.144,197.064z"/>
	<path fill-rule="evenodd" clip-rule="evenodd" fill="#FFFFFF" d="M368.928,195.048c0.072-0.576,0.144-1.152,0.288-1.728
		c1.944-4.536,1.944-4.536,3.888-7.92c0.72-1.008,1.512-2.0161,2.304-3.024c5.76-1.872,7.92-2.88,8.856-2.952
		c-1.152,2.952-2.304,5.904-3.528,8.856c0,0.288,0,0.648,0,1.008c0.36,0.216,0.72,0.432,1.08,0.72c0.36-0.36,0.72-0.792,1.08-1.224
		c0.936-2.448,1.872-4.896,2.88-7.416c0.936-1.44,1.872-2.88,2.88-4.32c1.584-0.576,3.168-1.224,4.752-1.872
		c0.792-0.432,1.584-0.936,2.376-1.44c0.504-0.072,1.08-0.144,1.656-0.288c-0.864,3.096-0.864,3.096-4.176,11.736
		c0.072,0.288,0.216,0.576,0.36,0.936c0.36,0,0.792,0.072,1.224,0.144c0.792-1.296,0.792-1.296,4.608-11.376
		c0.432-0.648,0.864-1.368,1.368-2.088c2.16,0,4.32,0,6.48-0.072c-1.8,5.472-1.8,5.472-2.52,9.072c0.36,0.216,0.72,0.432,1.08,0.72
		c0.36-0.288,0.72-0.576,1.08-0.936c0.504-2.088,1.08-4.176,1.656-6.264c0.432-0.792,0.864-1.656,1.368-2.52
		c5.76,0.216,5.76,0.216,7.92,0c1.152-0.504,1.152-0.504,2.592-0.72c0.792,0.432,1.584,0.936,2.448,1.44
		c0.072,1.584,0.072,1.584-0.432,3.528c-2.016,2.16-2.016,2.16-3.24,3.096c-1.872,0.792-1.872,0.792-3.312,1.8
		c-0.936,0-1.872,0-2.88,0c-3.6,1.224-7.2,2.52-10.8,3.816c-3.96,1.08-7.992,2.232-12.024,3.384
		c-3.312,0.432-3.312,0.432-3.5999,0.72c-6.696,1.872-9.36,2.88-11.9521,3.312C372.24,194.184,372.24,194.184,368.928,195.048
		L368.928,195.048z"/>
	<path fill-rule="evenodd" clip-rule="evenodd" fill="#FFFFFF" d="M124.848,194.328c0.072-0.288,0.144-0.648,0.216-1.008
		c0.648-0.864,1.296-1.728,2.016-2.592c0.936-1.728,1.872-3.528,2.88-5.328c3.816-5.04,3.816-5.04,7.704-11.232
		c3.816-6.768,3.816-6.768,4.752-7.92c0.288,0,0.576-0.072,0.864-0.144c0.36,1.8,0.36,1.8,0.864,10.656
		c0.072,4.464,0.144,8.928,0.216,13.464c-0.144,0.216-0.36,0.432-0.576,0.72c-2.664,0.864-5.4,1.8-8.136,2.736
		C132.264,193.68,132.264,193.68,124.848,194.328L124.848,194.328z"/>
	<path fill-rule="evenodd" clip-rule="evenodd" fill="#FFFFFF" d="M181.728,192.888c0.288-1.224,0.288-1.224,0.72-1.7281
		c0.216,0,0.432-0.072,0.72-0.144c0.288,0.432,0.288,1.368,0,1.728C182.736,192.744,182.232,192.8159,181.728,192.888
		L181.728,192.888z"/>
	<path fill-rule="evenodd" clip-rule="evenodd" fill="#FFFFFF" d="M176.688,192.24c-4.248-0.288-8.496-0.576-12.744-0.936
		c-0.36-0.144-0.792-0.288-1.224-0.504c-4.32,0.216-4.32,0.216-13.392-0.216c-0.648-0.144-1.296-0.288-1.944-0.504
		c-0.072-0.144-0.216-0.36-0.36-0.576c-1.008-16.344-1.008-16.344-1.224-24.264c-1.224-11.016-1.224-11.016-1.08-12.672
		c1.224-0.144,1.224-0.144,1.728,0.072c-0.144,0.144-0.288,0.36-0.504,0.576c-0.144,1.728-0.144,1.728,0.576,11.304
		c0.216,1.656,0.432,3.312,0.72,5.04c0.216,0.072,0.432,0.216,0.648,0.36c0.936-0.072,1.872-0.144,2.88-0.216
		c0.432-0.864,0.432-0.864,0.576-2.016c-0.288-2.304-0.648-4.608-1.008-6.984c0-1.8,0-3.672,0-5.544
		c-0.432-1.152-1.08-1.872-1.296-2.592c1.152,0.072,2.376,0.144,3.6,0.216c-0.432,0.936-0.432,0.936-0.576,2.376
		c0.288,3.168,0.576,6.408,0.936,9.648c0.432,0.72,0.936,1.44,1.44,2.16c2.808,0.576,2.808,0.576,4.248,0.576
		c0.432-0.288,0.864-0.576,1.296-0.864c0.432-2.592,0.432-2.592,0.36-6.192c0.288,0.072,0.576,0.144,0.936,0.288
		c3.888,4.68,3.888,4.68,13.464,17.424c2.088,3.312,4.176,6.696,6.264,10.08c-0.792,1.296-1.584,2.592-2.448,3.96
		C177.984,192.24,177.336,192.24,176.688,192.24L176.688,192.24z"/>
	<path fill-rule="evenodd" clip-rule="evenodd" fill="#FFFFFF" d="M338.184,192.024c-0.648-0.288-1.296-0.648-1.944-1.008
		c-3.312-2.88-4.32-3.312-7.2-5.76c0-0.216-0.072-0.504-0.144-0.792c1.944-0.576,3.888-1.152,5.904-1.8
		c19.44-3.888,23.328-4.32,27.144-5.328c14.4-1.872,20.376-2.88,26.64-3.4561c0,0.2881,0,0.576,0,0.864
		c-2.88,1.224-5.76,2.52-8.64,3.816c-1.584,0.432-3.168,0.936-4.824,1.44c-0.504,0.288-1.08,0.576-1.656,0.936
		c-1.152,0.288-2.376,0.648-3.5999,1.008c-1.656,0.936-1.656,0.936-11.7361,4.752c-2.16,0.432-4.3199,0.936-6.48,1.44
		c-1.44,0.648-2.88,1.296-4.32,1.944c-0.792,0.072-1.584,0.144-2.448,0.216c-0.792,0.288-1.584,0.648-2.376,1.008
		C341.064,191.52,339.624,191.736,338.184,192.024L338.184,192.024z"/>
	<path fill-rule="evenodd" clip-rule="evenodd" fill="#FFFFFF" d="M186.768,191.736c-0.576-0.936-1.224-1.944-1.872-2.952
		c0-0.432,0-0.936,0-1.44c1.944-3.096,2.16-4.104,8.424-14.184c0.216-0.144,0.432-0.288,0.72-0.432
		c0.648-1.008,1.296-2.088,1.944-3.168c0-1.152-0.288-1.872-1.224-15.12c-0.288-0.432-0.576-0.936-0.936-1.44
		c-0.864-0.432-7.56-2.304-10.224-2.736c-0.432-0.288-5.256-0.504-7.2-0.36c0-0.288,0.072-0.576,0.144-0.936
		c3.24-1.944,4.464-2.304,5.904-3.312c0.72-0.216,0.72-0.216,8.352-0.216c7.488-0.936,14.688-2.376,16.344-2.376
		c1.944,2.016,1.944,2.016,5.7599,7.2c0.936,1.8,0.936,1.8,1.944,2.88c0,0.36,0,0.72,0.072,1.08c-2.7361,1.8-2.7361,1.8-6.336,3.672
		c-0.864,0.792-1.728,1.584-2.664,2.448c-0.576,0.864-1.152,1.8-1.8,2.736c0,0.432,0,0.936,0,1.44
		c0.936,1.44,0.936,1.44,2.088,2.304c0.936,0.216,0.936,0.216,10.296,0c5.04-0.504,5.04-0.504,7.2-0.36
		c0.792,0.936,2.736,4.536,10.44,15.84c0.072,0.288,0.144,0.576,0.216,0.936c-0.36,0.36-6.552,1.296-10.44,2.304
		c-10.2961,1.872-10.2961,1.872-14.112,2.88c-6.984,0.936-8.424,1.44-21.168,3.312C188.064,191.736,187.416,191.736,186.768,191.736
		L186.768,191.736z"/>
	<path fill-rule="evenodd" clip-rule="evenodd" d="M157.464,187.416c-0.792-0.288-1.584-0.576-2.376-0.936
		c-0.432-0.576-0.432-0.576-0.864-3.456c0-3.816-0.504-8.136-0.288-10.8c0.288-0.504,0.576-1.008,0.864-1.584
		c1.368,0,2.736,0,4.104,0c0.432,0.576,0.864,1.152,1.296,1.8c0.432,2.088,0.936,4.1761,1.44,6.264
		c-0.216,4.32-0.216,4.32-0.72,6.48c-0.432,0.648-0.864,1.296-1.296,2.016C158.904,187.272,158.184,187.344,157.464,187.416
		L157.464,187.416z"/>
	<path fill-rule="evenodd" clip-rule="evenodd" fill="#FFFFFF" d="M182.448,185.256c-1.944-2.376-5.688-8.496-10.944-15.696
		c-0.072-0.36-0.216-0.72-0.36-1.152c6.48,0.288,7.92,0.576,21.096,1.008c0,0.288,0.072,0.576,0.144,0.864
		c-3.024,4.968-6.048,9.936-9.144,14.904C183.024,185.184,182.736,185.184,182.448,185.256L182.448,185.256z"/>
	<path fill-rule="evenodd" clip-rule="evenodd" fill="#FFFFFF" d="M324.288,181.6559c-1.944-0.936-1.944-0.936-2.808-1.728
		c0.216-1.152,0.4319-2.376,0.72-3.6c0.6479-1.728,1.296-3.528,1.944-5.328c1.44-2.16,1.44-2.16,1.8-3.24
		c8.424-1.44,8.424-1.44,12.96-1.944c1.152,0,2.376,0,3.6-0.072c-0.072,0.36-0.216,0.792-0.36,1.224
		c-0.288,0.36-0.648,0.72-1.008,1.152c-3.816,7.488-3.816,7.488-5.76,12.024c-2.088,0.504-4.176,1.008-6.336,1.512
		C327.456,181.6559,325.872,181.6559,324.288,181.6559L324.288,181.6559z"/>
	<path fill-rule="evenodd" clip-rule="evenodd" fill="#FFFFFF" d="M338.4,179.424c0.072-0.792,0.216-1.584,0.36-2.376
		c1.944-4.32,1.944-4.32,3.816-7.704c0.648-0.864,1.296-1.728,1.944-2.664c0-0.36,0.072-0.72,0.144-1.152
		c4.248-0.576,8.496-1.224,12.744-1.872c1.728-0.072,3.4561-0.144,5.256-0.288c-1.224,2.232-2.448,4.464-3.744,6.696
		c-0.864,2.016-1.8,4.032-2.736,6.12C346.824,178.056,346.824,178.056,338.4,179.424L338.4,179.424z"/>
	<path fill-rule="evenodd" clip-rule="evenodd" fill="#FFFFFF" d="M318.744,178.056c-1.224-0.936-1.224-0.936-2.16-2.16
		c-1.152-0.576-2.376-1.224-3.6-1.872c-0.504-0.432-1.08-0.936-1.656-1.44c0-0.288-0.072-0.576-0.144-0.864
		c1.584-0.864,3.4561-1.296,5.4001-2.304c1.584-0.288,3.168-0.576,4.8239-0.936c0.72,0,1.44,0.072,2.16,0.144
		c-0.576,1.08-1.224,2.232-1.8719,3.384c-1.872,5.76-1.872,5.76-2.2321,6.048C319.248,178.056,319.032,178.056,318.744,178.056
		L318.744,178.056z"/>
	<path fill-rule="evenodd" clip-rule="evenodd" fill="#FFFFFF" d="M359.28,175.464c0-0.288-0.072-0.576-0.144-0.864
		c0.648-1.656,1.296-3.312,1.944-5.04c1.656-2.376,3.312-4.752,4.968-7.2c10.512-1.584,10.512-1.584,18.72-2.304
		c0.288,0,0.576,0.072,0.936,0.144c-0.864,1.728-1.368,2.16-1.8,3.168c-0.648,0.72-1.296,1.44-1.944,2.16
		c-1.44,2.376-2.88,4.752-4.32,7.2c-1.8,0.432-3.6,0.864-5.4,1.296C367.92,174.456,363.6,174.96,359.28,175.464L359.28,175.464z"/>
	<path fill-rule="evenodd" clip-rule="evenodd" fill="#FFFFFF" d="M380.664,172.224c0.792-2.16,0.792-2.16,2.736-5.256
		c3.816-5.04,3.816-5.04,5.04-6.264c0.936-0.216,1.872-0.432,2.808-0.648c3.6721-0.144,7.3441-0.288,11.0161-0.432
		c0.432,0.072,0.864,0.216,1.296,0.36c-0.072,0.36-0.144,0.792-0.216,1.224c-1.224,1.152-1.224,1.152-3.168,3.816
		c-0.216,0.072-0.504,0.216-0.792,0.36c-1.944,2.9521-1.944,2.9521-2.52,4.464c-0.432,0.216-0.864,0.504-1.296,0.792
		C390.6,171.144,385.632,171.648,380.664,172.224L380.664,172.224z"/>
	<path fill-rule="evenodd" clip-rule="evenodd" fill="#FFFFFF" d="M412.344,170.424c-0.288-0.072-0.576-0.216-0.864-0.36
		c0.072-0.432,0.144-0.936,0.216-1.44c0.288-0.432,0.648-0.936,1.008-1.44c0.36-0.072,0.72-0.144,1.08-0.216
		c0,0.576-0.072,1.224-0.144,1.872c0.072,0.144,0.216,0.36,0.36,0.576c0.288,0,0.648,0,1.008,0c0.432-0.576,1.008-2.952,2.016-4.896
		c1.08-0.936,1.08-0.936,6.1201-3.744c0.288,0,0.576,0.072,0.936,0.144c-0.72,1.728-1.512,3.528-2.304,5.328
		c-0.144,0.864-0.288,1.728-0.432,2.592c-0.576,0.36-0.576,0.36-5.4,1.584C414.792,170.424,413.568,170.424,412.344,170.424
		L412.344,170.424z"/>
	<path fill-rule="evenodd" clip-rule="evenodd" fill="#FFFFFF" d="M405.648,170.064c0.216-0.216,0.432-0.432,0.72-0.648
		c0.936-0.216,1.872-0.504,2.8799-0.792c-0.144,0.72-0.144,0.72-0.504,1.08C407.304,170.136,407.304,170.136,405.648,170.064
		L405.648,170.064z"/>
	<path fill-rule="evenodd" clip-rule="evenodd" fill="#FFFFFF" d="M400.824,168.624c0.072-0.432,0.216-0.936,0.36-1.44
		c0.576-1.008,1.224-2.016,1.872-3.096c1.296-1.512,2.592-3.024,3.888-4.608c7.56-1.08,7.56-1.08,10.224-1.08
		c0.144,0.072,0.288,0.216,0.432,0.36c-0.576,1.296-1.152,2.592-1.8,3.888c-1.656,0.864-3.384,1.8-5.112,2.736
		c-2.52,0.936-5.112,1.872-7.7039,2.88C402.264,168.336,401.544,168.48,400.824,168.624L400.824,168.624z"/>
	<path fill-rule="evenodd" clip-rule="evenodd" fill="#FFFFFF" d="M424.584,167.544c-0.144-0.144-0.288-0.288-0.504-0.504
		c0-0.504-0.072-1.008-0.144-1.512c0.936-2.232,1.872-4.464,2.88-6.768c1.8719-1.08,3.744-2.16,5.688-3.24
		c0.216,0,0.432,0.072,0.72,0.144c-0.648,1.152-1.296,2.376-1.944,3.6c-0.864,2.448-1.8,4.896-2.736,7.416
		c-0.792,0.288-1.656,0.576-2.5201,0.864C425.592,167.544,425.088,167.544,424.584,167.544L424.584,167.544z"/>
	<path fill-rule="evenodd" clip-rule="evenodd" d="M250.344,160.344c-0.288-0.216-0.576-0.432-0.936-0.648
		c-0.288-3.672-0.576-7.344-0.864-11.016c-1.44-4.032-1.44-4.032-1.44-5.04c0.576-0.288,1.152-0.576,1.8-0.864
		c1.728-0.072,3.456-0.144,5.256-0.216c3.384,3.384,3.384,3.384,6.768,6.264c3.312,1.872,3.312,1.872,5.976,3.816
		c0.288,0.36,0.576,0.792,0.936,1.224c0.792,0.504,1.584,1.008,2.448,1.512c0,0.36,0,0.7921,0.072,1.224
		c-0.144,0.2881-0.288,0.648-0.504,1.008c-1.224,0.432-2.448,0.864-3.672,1.296c-1.656,0-3.312,0-5.0399,0
		C257.544,159.336,253.944,159.84,250.344,160.344L250.344,160.344z"/>
	<path fill-rule="evenodd" clip-rule="evenodd" fill="#FFFFFF" d="M419.328,160.2c0.072-0.576,0.144-1.224,0.288-1.872
		c0.288-0.144,0.576-0.288,0.864-0.432c0.72,0,1.44,0.072,2.16,0.144c-0.936,1.08-0.936,1.08-2.592,2.016
		C419.832,160.056,419.616,160.128,419.328,160.2L419.328,160.2z"/>
	<path fill-rule="evenodd" clip-rule="evenodd" fill="#FFFFFF" d="M163.44,158.616c-2.88-3.312-2.88-3.312-3.816-4.896
		c0-0.36-0.072-0.72-0.144-1.152c1.44,0,2.952,0,4.464,0c0.072,1.008,0.216,2.016,0.36,3.096c-0.072,0.936-0.144,1.872-0.288,2.88
		C163.656,158.7599,163.656,158.7599,163.44,158.616L163.44,158.616z"/>
	<path fill-rule="evenodd" clip-rule="evenodd" fill="#FFFFFF" d="M146.16,149.976c-6.912-0.432-9.576-0.936-14.4-1.008
		c0-0.216,0.072-0.432,0.144-0.72c2.52-1.944,2.52-1.944,5.4-3.744c0.216,0,0.432,0,0.72,0c0.792,1.8,0.792,1.8,1.224,2.16
		c0.504,0,1.08,0,1.656,0c0.144-0.144,0.288-0.288,0.504-0.504c6.912-0.936,6.912-0.936,9.576-0.936
		c0.792,1.224,1.584,2.52,2.376,3.816c-0.288,0.216-0.576,0.432-0.936,0.72C150.336,149.832,148.248,149.904,146.16,149.976
		L146.16,149.976z"/>
	<path fill-rule="evenodd" clip-rule="evenodd" fill="#FFFFFF" d="M160.128,149.76c-1.008-0.072-2.088-0.144-3.168-0.216
		c-0.72-1.08-1.512-2.16-2.304-3.24c0-0.288,0-0.576-0.072-0.936c2.88-0.144,2.88-0.144,20.88,0.936
		c-0.144,0.144-0.288,0.36-0.504,0.576c-1.296,0.432-2.664,0.936-4.032,1.44c-0.648,0.36-1.296,0.7921-1.944,1.224
		C166.032,149.616,163.08,149.688,160.128,149.76L160.128,149.76z"/>
	<path fill-rule="evenodd" clip-rule="evenodd" fill="#FFFFFF" d="M140.4,143.208c0.072-0.36,0.216-0.792,0.36-1.224
		c1.44-1.368,2.952-2.736,4.464-4.104c0.288,0,0.576,0,0.936,0c0.72,1.08,1.512,2.2321,2.304,3.384c0,0.432-0.072,0.864-0.144,1.296
		C145.728,142.776,143.064,142.992,140.4,143.208L140.4,143.208z"/>
	<path fill-rule="evenodd" clip-rule="evenodd" fill="#FFFFFF" d="M165.384,143.064c-4.248-0.216-8.496-0.432-12.744-0.72
		c-0.648-0.72-1.296-1.512-2.016-2.304c-0.576-1.008-1.152-2.016-1.728-3.096c0-0.216,0.072-0.432,0.144-0.72
		c1.728-0.648,1.728-0.648,5.328-1.08c2.376-1.008,2.376-1.008,4.32-1.44c3.024,0,6.12,0.072,9.216,0.144
		c0,5.256,0,5.256-0.36,8.928C166.824,142.848,166.104,142.92,165.384,143.064L165.384,143.064z"/>
	<path fill-rule="evenodd" clip-rule="evenodd" fill="#FFFFFF" d="M186.984,143.064c-0.216,0-0.432-0.072-0.72-0.144
		c0.072-1.44,0.072-1.44,1.08-4.536c0.576-1.368,1.224-2.736,1.872-4.104c0.288,0,0.576-0.072,0.864-0.144
		c3.888,4.32,3.888,4.32,6.48,7.704c-0.144,0.144-0.288,0.288-0.432,0.504c-1.512,0.216-3.024,0.432-4.608,0.72
		C190.008,143.064,188.496,143.064,186.984,143.064L186.984,143.064z"/>
	<path fill-rule="evenodd" clip-rule="evenodd" fill="#FFFFFF" d="M181.44,142.488c0.432-3.168,0.864-6.408,1.296-9.648
		c0.72-1.152,1.512-2.304,2.304-3.456c0.288,0,0.648,0,1.008,0c0.504,0.576,1.08,1.152,1.656,1.8
		c-4.68,10.584-4.68,10.584-5.184,11.016C182.16,142.272,181.8,142.344,181.44,142.488L181.44,142.488z"/>
	<path fill-rule="evenodd" clip-rule="evenodd" fill="#FFFFFF" d="M198.288,141.984c0-0.648,0-1.296,0.072-1.944
		c-0.648-1.008-1.296-2.016-1.944-3.096c-2.016-1.944-2.016-1.944-4.32-5.04c0-0.36,0.072-0.792,0.144-1.224
		c0.432-0.288,0.936-0.576,1.44-0.936c0.576,0,1.152-0.072,1.728-0.144c2.16,1.944,2.16,1.944,7.2,7.416
		c0.576,0.936,1.152,1.872,1.728,2.808c0,0.936,0,0.936-0.288,1.296C202.176,141.408,200.232,141.696,198.288,141.984
		L198.288,141.984z"/>
	<path fill-rule="evenodd" clip-rule="evenodd" fill="#FFFFFF" d="M208.8,140.184c-0.936-1.08-0.936-1.08-1.8-2.736
		c-2.592-2.88-5.256-5.76-7.92-8.64c-0.072-0.576-0.216-1.152-0.36-1.728c0.792-0.072,1.584-0.216,2.448-0.36
		c0.504,0.432,1.08,0.936,1.656,1.44c0.648-0.072,1.296-0.144,1.944-0.216c0.864-0.288,1.728-0.648,2.592-1.008
		c9.648-1.872,11.088-2.376,22.104-4.32c0.72,0,1.44,0,2.16,0c10.2961,7.92,10.2961,7.92,13.176,9.864
		c0,0.288,0.072,0.576,0.144,0.864c-5.4,1.296-5.4,1.296-7.776,2.232c-8.64,1.512-17.28,3.024-25.92,4.608
		C210.456,140.184,209.664,140.184,208.8,140.184L208.8,140.184z"/>
	<path fill-rule="evenodd" clip-rule="evenodd" fill="#FFFFFF" d="M146.664,132.696c-2.16-2.592-2.52-3.456-3.528-4.608
		c-2.232-4.032-4.464-8.136-6.696-12.24c-1.944-2.664-2.88-4.608-7.92-12.024c-0.792-0.864-1.584-1.728-2.376-2.664
		c-0.072-0.4319-0.216-0.936-0.36-1.44c0.792,0.072,1.584,0.216,2.376,0.36c0.576,0.288,1.152,0.576,1.728,0.936
		c0.864,1.296,1.8,2.664,2.736,4.032c2.16,1.872,2.16,1.872,3.024,2.232c1.224,1.656,2.52,3.312,3.816,5.04
		c4.392,4.968,8.784,9.936,13.176,14.976c-1.224,1.368-2.52,2.808-3.816,4.248C148.104,131.904,147.384,132.264,146.664,132.696
		L146.664,132.696z"/>
	<path fill-rule="evenodd" clip-rule="evenodd" fill="#FFFFFF" d="M151.92,132.408c0.072-0.36,0.216-0.792,0.36-1.224
		c0.648-0.72,1.296-1.44,1.944-2.16c2.736-1.368,4.464-1.8,5.4-2.304c2.376,0,9.144-0.936,13.68-1.224
		c0.432,0,0.936,0.072,1.44,0.144c-0.072,0.288-0.216,0.648-0.36,1.008c-1.296,1.296-2.592,2.592-3.96,3.888
		c-3.384,0-6.84,0-10.296,0C157.248,131.0399,154.584,131.976,151.92,132.408L151.92,132.408z"/>
	<path fill-rule="evenodd" clip-rule="evenodd" fill="#FFFFFF" d="M189.36,128.3759c-0.288-0.36-0.576-0.72-0.936-1.152
		c-0.144-0.864-0.288-1.8-0.504-2.736c1.152,0,2.376-0.072,3.6-0.144c0.432,0.576,0.864,1.152,1.296,1.8c0,0.288,0,0.576,0,0.936
		c-0.72,0.432-1.44,0.864-2.232,1.296C190.224,128.3759,189.792,128.3759,189.36,128.3759L189.36,128.3759z"/>
	<path fill-rule="evenodd" clip-rule="evenodd" fill="#FFFFFF" d="M155.088,125.4959c-1.44-1.296-2.88-2.6639-4.32-4.032
		c-2.736-3.096-5.472-6.192-8.208-9.288c-2.52-3.2401-5.04-6.48-7.632-9.72c-1.944-1.872-3.888-4.32-4.392-4.608
		c-0.072-0.216-0.144-0.432-0.216-0.72c3.24,0.072,6.552,0.144,9.864,0.288c5.976,1.008,5.976,1.008,10.8,1.44
		c3.816,1.008,3.816,1.008,9.576,1.944c0.504,0.504,0.504,0.504,2.88,1.44c2.448,2.016,2.448,2.016,6.768,6.696
		c3.816,5.04,6.192,7.704,7.992,10.224c0,0.2881,0,0.648,0,1.0081c-1.368,0.576-2.736,1.1519-4.176,1.728
		c-1.656,0.288-3.312,0.648-5.04,1.008c-0.36,0.216-0.792,0.432-1.224,0.72c-5.976,0.72-5.976,0.72-8.136,0.72
		C155.808,125.4959,155.808,125.4959,155.088,125.4959L155.088,125.4959z"/>
	<path fill-rule="evenodd" clip-rule="evenodd" fill="#FFFFFF" d="M196.56,125.28c-0.216-0.144-0.432-0.288-0.72-0.504
		c0-0.288,0-0.648,0-1.008c1.224-0.432,1.224-0.432,3.168-0.432c0.216,0.072,0.432,0.216,0.72,0.36
		c-0.36,0.36-0.792,0.72-1.224,1.08C197.856,124.92,197.208,125.064,196.56,125.28L196.56,125.28z"/>
	<path fill-rule="evenodd" clip-rule="evenodd" fill="#FFFFFF" d="M181.728,118.8c-0.288-0.144-0.648-0.36-1.008-0.576
		c-2.232-2.88-4.464-5.832-6.696-8.784c-0.144-0.6479-0.288-1.296-0.504-2.016c0.72,0.072,0.72,0.072,4.32,2.016
		c4.104,4.104,5.328,5.04,6.264,6.264c0.36,0.288,0.792,0.576,1.224,0.936c0,0.288,0,0.576,0.072,0.864
		C184.176,117.9359,182.952,118.368,181.728,118.8L181.728,118.8z"/>
	<path fill-rule="evenodd" clip-rule="evenodd" fill="#FFFFFF" d="M175.464,100.8c-3.096-0.936-5.976-1.44-7.416-1.944
		c-2.16,0-4.32,0-6.48,0c-1.08-0.288-2.232-0.576-3.384-0.936c-1.008-0.072-2.016-0.144-3.096-0.216
		c-0.936-0.288-1.872-0.648-2.88-1.008c-2.088-0.144-4.176-0.288-6.264-0.432c-3.6-0.72-3.6-0.72-14.616-1.728
		c-3.672,0-7.344,0-11.088,0c-1.008,0.216-2.016,0.432-3.096,0.648c0-0.216,0-0.432,0.072-0.72c1.44-0.936,1.44-0.936,3.528-1.8
		c5.976-1.0081,5.976-1.0081,12.24-1.7281c3.6,0,7.2,0,10.8,0c1.368,0.144,2.736,0.288,4.104,0.504
		c5.256-0.216,12.24,0,18.936-0.216c9.792,0.072,19.656,0.144,29.52,0.216c2.376,0.504,2.376,0.504,2.952,0.864
		c0,0.288,0,0.576,0,0.936c-0.36,0.288-0.72,0.648-1.08,1.008c-6.408,1.872-12.888,3.744-19.368,5.616
		c-0.576,0.288-1.152,0.576-1.728,0.936C176.616,100.8,176.04,100.8,175.464,100.8L175.464,100.8z"/>
	<path fill-rule="evenodd" clip-rule="evenodd" d="M112.32,93.0959c-1.44-1.512-2.88-3.024-4.32-4.536
		c-1.224-1.584-2.52-3.24-3.816-4.896c-1.944-3.024-3.888-6.048-5.904-9.144c-4.752-6.12-9.576-12.24-14.4-18.4319
		C82.944,54.36,82.944,54.36,75.96,45c-0.36-0.288-0.792-0.576-1.224-0.936c-3.312-4.032-6.696-8.136-10.08-12.24
		c-1.872-2.88-1.872-2.88-13.896-18.216c-4.104-6.48-4.104-6.48-5.04-8.424C44.856,4.68,44.856,4.68,43.56,3.24
		c0-1.152,0-1.152,0.36-1.584c0.288,0,0.648,0,1.008,0c4.032,5.76,4.032,5.76,7.272,11.2319c1.224,1.152,2.16,2.88,4.32,5.256
		c3.816,5.04,3.816,5.04,5.976,7.416c1.296,1.8721,2.592,3.816,3.888,5.76c2.16,2.16,5.976,7.2,10.8,12.528
		c3.888,5.4,7.776,10.8,11.736,16.272c6.984,8.208,8.064,9.864,10.08,12.024c0.936,1.656,1.944,2.664,6.696,9.864
		c0.36,0.288,0.792,0.576,1.224,0.936c0.648,0.864,1.296,1.728,1.944,2.664c1.656,1.728,3.312,3.456,5.04,5.256
		c0,0.36,0,0.792,0,1.224c-0.504,0.72-0.504,0.72-1.368,1.152C112.464,93.24,112.392,93.168,112.32,93.0959L112.32,93.0959z"/>
	<path fill-rule="evenodd" clip-rule="evenodd" fill="#FFFFFF" d="M150.984,89.064c-0.288-0.144-0.36-4.464-0.144-5.904
		c0.648-0.36,0.648-0.36,2.304-0.36c0.216,0.144,0.432,0.288,0.72,0.504c0.432,1.08,0.864,2.16,1.296,3.24
		c0.216,1.944,0.216,1.944-0.072,2.232C153.72,88.848,152.352,88.92,150.984,89.064L150.984,89.064z"/>
	<path fill-rule="evenodd" clip-rule="evenodd" fill="#FFFFFF" d="M126.72,88.776c-0.72-0.576-1.44-1.224-2.16-1.872
		c-1.872-2.448-3.096-3.384-6.912-8.424c-3.312-3.888-6.696-7.776-10.08-11.736c-0.072-0.432-0.144-0.864-0.288-1.296
		c1.944-0.432,1.944-0.432,4.608-0.432c0.72,0.144,1.44,0.2881,2.16,0.504c2.952,3.312,5.904,6.624,8.856,9.936
		c1.944,2.808,1.944,2.808,4.824,5.904c0.576,1.08,1.152,2.16,1.728,3.24c1.008,3.168,1.008,3.168,0.864,3.744
		C128.16,88.776,128.16,88.776,126.72,88.776L126.72,88.776z"/>
	<path fill-rule="evenodd" clip-rule="evenodd" fill="#FFFFFF" d="M111.888,59.976c-3.384-0.432-3.384-0.432-7.2-0.432
		c-0.144-0.144-0.288-0.36-0.432-0.576c-0.216-3.384,0-5.5439-0.216-10.8c0.144-0.576,0.288-1.152,0.504-1.728
		c0.432-0.288,0.864-0.5759,1.296-0.864c0.792-0.072,1.584-0.1439,2.448-0.2159c0.576,0.288,1.224,0.5759,1.872,0.936
		c0.72,0.72,1.44,1.44,2.16,2.16c0.432,0.936,0.864,1.872,1.296,2.808c-0.072,2.88-0.144,5.7601-0.216,8.6401
		C112.896,59.904,112.392,59.904,111.888,59.976L111.888,59.976z"/>
</g>
</svg>
