<?xml version="1.0" encoding="utf-8"?>
<!-- Generator: Adobe Illustrator 21.1.0, SVG Export Plug-In . SVG Version: 6.00 Build 0)  -->
<svg version="1.1" id="L" xmlns="http://www.w3.org/2000/svg" xmlns:xlink="http://www.w3.org/1999/xlink" x="0px" y="0px"
	 viewBox="0 0 414.864 250.056" enable-background="new 0 0 414.864 250.056" xml:space="preserve">
<g>
	<path fill-rule="evenodd" clip-rule="evenodd" d="M23.904,250.056c-0.576-0.576-0.576-0.576-0.576-1.296
		c0.144-0.144,0.288-0.288,0.432-0.432c1.728,0,3.456-0.072,5.184-0.144c1.368-0.288,2.736-0.648,4.104-1.008
		c5.04-0.432,5.976-0.72,11.016-1.152c0.576-0.144,1.152-0.288,1.728-0.504c0.216-0.36,0.432-0.792,0.72-1.224
		c0.36-0.072,0.72-0.144,1.152-0.216c0.216,0.216,0.432,0.432,0.72,0.72c1.152,0.072,2.376,0.144,3.6,0.216
		c1.8-0.144,3.672-0.288,5.544-0.432c0.72-0.288,1.44-0.648,2.16-1.008c2.664-0.432,5.256-1.44,10.8-2.376
		c4.32-1.224,4.32-1.224,4.536-1.584c-0.432-0.36-0.432-0.36-6.192-2.232c-2.448-0.648-4.968-1.296-7.488-1.944
		c-2.736-0.936-5.544-1.872-8.352-2.88c-0.72-0.648-1.44-1.296-2.16-1.944c-0.576-1.296-1.224-2.592-1.872-3.888
		c0-8.64,0-8.64,0.288-11.5201c0.504-0.36,1.008-0.72,1.584-1.152c1.872-0.216,1.872-0.216,5.472,0
		c22.608-2.88,22.608-2.88,45.864-5.472c4.32-4.104,8.136-8.424,9.36-9.36c4.104-4.608,5.832-7.056,11.88-13.536
		c1.872-2.664,1.872-2.664,5.76-6.984c2.664-2.664,5.4-5.4,8.136-8.136c0-0.216,0-0.432-0.072-0.648
		c-1.152-0.216-2.376-0.432-3.6-0.72c-0.216-0.144-0.432-0.36-0.648-0.576c0-0.936,0-0.936,0.36-1.368
		c0.72-0.288,1.44-0.576,2.16-0.936c7.92-9.36,7.92-9.36,9.72-11.88c0.216-1.152,0.432-2.376,0.72-3.6
		c0.216-17.28,0.504-19.872,0.216-20.376c0-1.44,0.288-1.656,0.72-7.416c0.288-1.512,0.648-3.024,1.008-4.608
		c0.072-1.656,0.144-3.312,0.216-5.04c-4.32-5.472-6.264-8.64-8.424-11.232c-4.752-6.9839-5.976-8.208-6.912-10.08
		c-1.944-2.16-1.944-2.16-4.32-5.76c-0.072-0.288-0.216-0.648-0.36-1.008c-2.304-2.16-2.304-2.16-4.248-4.5359
		c-0.216-0.576-0.504-1.152-0.792-1.8c-0.432-0.36-0.936-0.792-1.44-1.224c-0.288-0.576-0.576-1.152-0.864-1.8
		c-0.36-0.36-0.792-0.72-1.224-1.152c-0.576-1.44-1.656-2.664-2.592-4.608c-0.432-0.36-0.936-0.72-1.44-1.152
		c-0.072-0.288-0.144-0.6479-0.288-1.008c-0.72-0.432-0.72-0.432-3.6-4.032c-0.288-0.864-0.576-1.728-0.936-2.664
		c-1.44-1.656-2.376-3.384-3.384-4.536c-1.08-1.944-2.16-3.168-5.04-8.424c-2.16-3.096-3.096-5.04-5.256-7.704
		c-0.072-0.432-0.216-0.936-0.36-1.44c-0.288-0.144-0.576-0.288-0.864-0.432c-0.36-0.648-0.72-1.296-1.152-1.944
		c0-0.288,0.072-0.648,0.144-1.008c-1.008-0.72-1.224-1.152-1.944-1.368c-0.36-1.224-1.368-2.664-2.304-4.8239
		c-1.224-1.656-1.656-2.88-7.416-11.7361c0-1.008,0-1.008,0.36-1.368c0.216,0,0.432,0,0.72,0c3.816,5.616,3.816,5.616,5.616,9
		c0.072,0.288,0.144,0.648,0.216,1.008c0.576,0.792,1.152,1.584,1.728,2.376c0.144,0.432,0.288,0.936,0.432,1.4401
		c3.888,5.976,4.824,7.92,5.328,8.424c0.144,0.36,0.288,0.72,0.432,1.152c1.08,1.44,2.232,2.88,3.384,4.32
		c0.936,1.944,1.944,3.168,4.32,7.488c0.504,0.432,2.52,3.6,4.536,5.976c1.944,3.096,1.944,3.096,2.88,5.256
		c3.888,5.04,4.824,6.768,6.768,8.928c0.936,1.872,0.936,1.872,4.392,6.696c2.16,2.52,4.392,5.112,6.624,7.7039
		c0.936,1.872,0.936,1.872,6.696,10.08c1.944,2.16,3.888,5.04,5.544,6.912c0.288,0.648,0.576,1.296,0.936,1.944
		c1.296,1.44,2.592,2.88,3.96,4.32c0.072-0.072,0.216-0.144,0.36-0.216c0.504-3.384,0.504-3.384,2.88-30.96
		c0.504-0.504,0.504-0.504,0.504-1.224c-0.216-0.216-0.216-0.216,0-3.096c0.288-1.368,0.576-2.736,0.936-4.104
		c-0.072-0.72-0.144-1.44-0.216-2.16c-0.936-0.936-1.944-3.096-4.104-6.2639c-3.816-7.632-5.04-9.36-5.472-10.5121
		c-0.648-0.504-0.648-0.504-6.048-10.08c-0.072-0.36-0.144-0.792-0.216-1.224c-0.36-0.36-0.792-0.792-1.224-1.224
		c-2.592-4.536-2.592-4.536-2.736-5.256c-0.288-0.072-0.576-0.216-0.936-0.36c-2.088-3.456-2.088-3.456-7.344-10.44
		c-0.072-0.432-0.216-0.864-0.36-1.368c-1.44-1.152-1.44-1.152-2.304-2.232c-0.36-0.792-0.72-1.584-1.152-2.376
		c-0.792-0.864-1.584-1.728-2.448-2.664c-3.816-5.976-5.76-9.864-7.632-12.4561c0-0.3599,0.072-0.7919,0.144-1.2239
		c0.288,0,0.576-0.072,0.936-0.144c1.944,3.024,3.672,6.408,10.44,17.208c0.36,0.288,0.72,0.576,1.08,0.936
		c1.368,2.088,2.736,4.176,4.176,6.264c0.216,0.144,0.432,0.288,0.72,0.432c0.936,1.728,2.664,3.6,3.096,4.608
		c1.008,1.152,1.008,1.152,3.168,5.0399c0.432,0.432,0.936,0.936,1.44,1.44c2.952,5.256,2.952,5.256,3.6,5.976
		c0.288,0.792,0.576,1.584,0.936,2.376c2.376,3.6,2.376,3.6,9.216,15.624c0.072-0.0721,0.216-0.144,0.36-0.216c0-0.72,0-1.44,0-2.16
		c0.144-0.432,0.288-0.936,0.504-1.44c0.288-0.216,0.576-0.432,0.936-0.72c-0.072-0.648-0.144-1.296-0.216-1.944
		c-0.504-0.72-0.504-0.72-1.8-1.584c-0.144-1.2961-0.144-1.2961,0.144-1.8c-0.432-2.52-0.936-5.04-1.44-7.632
		c0.576-0.648,0.576-0.648,1.8-1.152c1.368-0.216,2.736-0.432,4.104-0.72c3.816,0,3.816,0,4.176-0.288c0-0.216,0-0.432,0-0.72
		c-0.576-0.792-1.152-1.584-1.728-2.448c-0.072-0.432-0.144-0.864-0.288-1.296c-0.288-0.072-0.648-0.144-1.008-0.288
		c-0.72-0.864-1.44-1.728-2.16-2.592c-0.072-0.504-0.144-1.008-0.216-1.584c-0.36-0.072-0.792-0.216-1.224-0.36
		c-0.504-0.72-1.08-1.512-1.656-2.304c-0.216-0.072-0.432-0.144-0.72-0.216c-0.576-0.936-1.152-1.872-1.8-2.88
		c-0.792-0.72-1.584-1.44-2.448-2.16c-0.864-1.08-1.728-2.16-2.592-3.312c0-0.36-0.072-0.792-0.144-1.224
		c-0.216,0-0.432-0.072-0.72-0.144c-0.864-1.224-1.728-2.448-2.664-3.672c-0.072-0.36-0.144-0.792-0.216-1.224
		c-0.288-0.072-0.576-0.216-0.936-0.36c-3.096-3.744-6.192-7.56-9.288-11.376c-0.072-0.576-0.144-1.1521-0.216-1.728
		c0.288,0,0.576-0.072,0.864-0.144c0.216,0.144,0.432,0.2879,0.72,0.504c0.864,1.44,1.8,2.952,2.736,4.4639
		c2.304,2.5921,4.608,5.256,6.984,7.9201c1.44,2.232,2.88,4.464,4.32,6.696c2.16,2.448,2.16,2.448,2.592,3.384
		c0.432,0.216,0.864,0.504,1.368,0.792c0.936,1.368,2.376,2.808,2.88,3.744c1.944,2.304,3.96,4.68,5.976,7.056
		c0.072,0.288,0.144,0.576,0.288,0.864c0.216,0.072,0.432,0.144,0.72,0.216c0.576,0.936,1.224,1.872,1.872,2.808
		c0.648,0.576,1.296,1.224,1.944,1.872c0.792,0,1.584,0,2.376,0c0.288-0.288,0.648-0.576,1.008-0.936c0.288,0,0.576,0,0.936,0
		c0.288,0.36,0.576,0.792,0.936,1.224c1.512-0.072,3.024-0.144,4.608-0.288c0.288,0.432,0.288,1.872,0,2.16
		c-1.8,0.144-3.672,0.288-5.544,0.504c-0.72,0.504-0.72,0.504-1.08,1.368c0.072,0.432,0.144,0.936,0.216,1.44
		c2.664,2.8799,2.664,2.8799,5.04,4.752c1.368,1.584,2.736,3.168,4.104,4.824c0.648,0.216,1.296,0.504,2.016,0.792
		c0.144,1.008,0.36,2.016,0.576,3.024c1.08,1.224,1.08,1.224,2.448,2.16c0.936,1.152,1.872,2.376,2.88,3.6
		c1.08,2.16,2.16,4.32,3.312,6.48c8.208,9.864,8.208,9.864,9.72,12.24c2.592,2.952,5.184,5.904,7.8481,8.928
		c0.072,0.288,0.2159,0.576,0.36,0.936c0.216,0,0.432,0,0.72,0.072c0.72,0.72,1.44,1.512,2.16,2.304
		c0.792,1.728,0.792,1.728,3.672,5.76c1.008,1.008,1.008,1.008,2.88,3.888c1.8,1.944,3.672,3.96,5.544,5.976
		c0.648,1.008,1.296,2.016,1.944,3.096c1.152,1.08,2.376,2.232,3.6,3.384c0.432,0.936,0.936,1.872,1.44,2.88
		c0.216,0.144,0.504,0.288,0.792,0.504c6.048,0.288,6.768,0.576,17.064,1.008c1.008,0.288,1.008,0.288,8.64,0.72
		c0.792,0.288,1.584,0.648,2.448,1.008c0,0.6479,0,1.296,0.072,2.016c-0.72,0.648-1.44,1.296-2.16,1.944c0,0.288,0,0.576,0,0.936
		c7.92,10.8,7.92,10.8,13.68,18c0.36,0.288,0.72,0.576,1.08,0.864c0.72,0.144,1.44,0.288,2.16,0.432
		c4.104,5.904,4.104,5.904,7.92,10.728c0.072,0.504,0.216,1.08,0.3599,1.656c0.7921,0.792,1.656,1.584,2.5201,2.448
		c1.0079,0.288,1.0079,0.288,3.168,0.072c0.936-0.504,5.256-1.44,7.632-2.376c2.664,0,2.664,0,5.04-0.504
		c0.144-0.144,0.288-0.2881,0.504-0.5041c1.656-0.2159,1.656-0.2159,6.6959-0.2159c1.2961-0.2881,2.592-0.576,3.8881-0.936
		c2.664-0.144,5.4-0.288,8.136-0.504c0.36-0.144,0.792-0.288,1.224-0.504c8.856-0.432,8.856-0.432,12.96-0.216
		c0.864-0.144,1.728-0.288,2.592-0.504c8.424,0.288,8.424,0.288,42.768,0c4.752-0.144,9.576-0.288,14.4-0.432
		c3.096-0.288,6.192-0.648,9.36-1.008c2.232-0.576,4.464-1.224,6.696-1.872c0.864-0.432,1.728-0.936,2.6641-1.44
		c0.288,0,0.5759,0,0.936,0c0.4319,0.648,0.936,1.296,1.44,2.016c-0.504,0.864-0.504,0.864-2.808,2.664
		c-0.72,1.152-1.4399,2.376-2.16,3.6c0,0.504,0,1.08-0.072,1.656c0.72,0,1.44-0.072,2.16-0.144c0.072,0.504,0.216,1.008,0.36,1.584
		c-0.504,0.504-0.504,0.504-4.8961,2.304c-0.7919,0.72-1.5839,1.44-2.448,2.16c-3.816,5.04-3.816,5.04-8.496,12.096
		c-0.72,1.944-0.72,1.944-2.664,5.328c-0.504,0.432-0.504,0.432-4.32,10.08c-0.504,1.872-1.008,3.816-1.512,5.76
		c1.728-0.576,3.4559-1.224,5.256-1.872c5.472,0.216,11.016,0.432,16.56,0.72c2.376-0.288,4.752-0.576,7.2-0.936
		c0.792-0.216,1.584-0.432,2.376-0.72c0.2161,0.072,0.432,0.216,0.72,0.36c-0.0719,0.288-0.2159,0.648-0.36,1.008
		c-0.504,0.216-1.008,0.504-1.512,0.792c-6.4799,0.936-6.4799,0.936-8.2079,1.44c-13.68-0.216-13.68-0.216-17.712,0
		c-3.384,1.944-3.384,1.944-5.544,2.664c-3.312,0.144-6.696,0.288-10.08,0.432c-0.792,0.288-1.584,0.648-2.376,1.008
		c-1.44,0.936-2.88,1.872-4.32,2.88c-4.608,1.872-4.608,1.872-8.424,3.816c-5.76,1.944-5.76,1.944-9.576,2.88
		c-3.888,0.504-3.888,0.504-8.4241,0.504c-0.72-0.504-0.72-0.504-2.16-2.664c-0.936-0.216-0.936-0.216-4.1039-0.216
		c-1.224,0.288-2.5201,0.576-3.816,0.936c-1.008,0.432-2.016,0.936-3.096,1.44c-1.152,0.288-2.376,0.576-3.6,0.936
		c-1.368,0.648-2.736,1.2961-4.104,1.944c-1.584,0.36-3.168,0.792-4.824,1.224c-0.72,0-1.44,0-2.16,0
		c-3.6-1.008-3.6-1.008-9.072-1.944c-1.44-0.072-2.88-0.144-4.3199-0.216c-10.08,1.872-10.08,1.872-23.04,4.752
		c-0.648,0.288-1.296,0.648-1.944,1.008c-2.664,0.432-2.664,0.432-6.48,0.432c-2.16-0.576-4.32-1.224-6.48-1.872
		c-0.648-0.288-1.296-0.648-1.944-1.008c-0.792-0.144-1.5841-0.288-2.376-0.432c-1.152,0.072-2.376,0.144-3.6,0.216
		c-1.224,0.288-2.52,0.576-3.816,0.936c-0.504,0.504-0.504,0.504-1.728,1.008c-1.656,0.288-3.312,0.576-5.04,0.936
		c-0.432,0.288-0.936,0.576-1.44,0.936c-1.728,0.288-3.456,0.648-5.256,1.008c-2.448,0.936-4.896,1.872-7.416,2.88
		c-6.48,0.288-12.96,0.576-19.44,0.936c-1.8,0.432-3.672,0.936-5.544,1.44c-6.696,0.936-6.696,0.936-15.12,1.656
		c-2.448,0.0721-4.896,0.144-7.416,0.2881c-3.024-0.144-6.048-0.2881-9.144-0.504c-5.04,0.216-5.04,0.216-12.024,1.224
		c-2.736,0.576-5.544,1.224-8.352,1.872c-3.096,0.432-6.192,0.936-9.36,1.44c-8.424,0.72-10.368,1.224-15.12,1.728
		c-8.568,0.072-17.136,0.144-25.704,0.216c-3.384,0.504-5.544,0.504-8.424,0.936c-1.584,0.432-3.168,0.936-4.752,1.44
		c-0.504,0-1.008,0-1.584-0.072c0-0.2881-0.072-0.576-0.144-0.936c-1.224,0.072-2.52,0.144-3.816,0.288
		c-0.936,0.288-1.872,0.648-2.88,1.008c-3.24,0.576-6.552,1.224-9.864,1.872c-3.672,0.936-7.344,1.872-11.016,2.88
		c-5.544,0.504-5.544,0.504-8.856,0.504c-1.728,0.504-10.584,1.44-12.744,1.944c-4.104,0.432-4.104,0.432-5.976,0.936
		C27.504,249.912,25.704,249.984,23.904,250.056L23.904,250.056z M85.824,238.536c-0.432-0.072-0.936-0.144-1.44-0.288
		c0-3.456,0.072-6.912,0.144-10.368c-0.216-1.296-0.432-2.664-0.72-4.032c0.144-0.144,0.36-0.288,0.576-0.432
		c10.8-0.936,10.8-0.936,19.008-1.152c5.472-1.008,13.896-1.944,27.072-3.888c2.376-0.144,4.752-0.288,7.2-0.432
		c0.216-0.216,0.432-0.432,0.72-0.72c1.728-0.144,3.528-0.288,5.328-0.504c30.24-6.696,45.792-10.584,55.152-12.456
		c1.44-0.432,2.88-0.936,4.32-1.44c7.488-1.44,17.064-3.888,36-8.208c10.8-1.872,10.8-1.872,12.024-2.376
		c9.144-1.944,15.336-2.88,17.064-3.384c15.84-1.872,28.512-3.816,37.152-4.752c2.6641-0.504,12.744-1.44,19.728-2.448
		c7.992-0.792,15.984-1.584,23.976-2.376c14.184-2.376,15.624-2.88,36.216-6.264c2.592-0.936,5.256-1.872,7.92-2.88
		c0.648-0.072,1.296-0.144,1.944-0.288c-0.864,1.872-2.8079,4.536-6.408,10.512c-1.872,3.888-1.872,3.888-3.816,7.2
		c-1.152,2.736-2.376,5.472-3.6,8.2079c-3.24,1.728-3.24,1.728-9.2159,5.616c-4.32,1.872-4.32,1.872-8.424,3.312
		c-3.6,0.504-6.696,1.44-18,3.384c-3.096,0.216-4.3201,0.72-10.8,1.656c-0.7921,0.288-1.584,0.648-2.376,1.008
		c-1.512,0.144-3.024,0.288-4.536,0.432c-2.016,0.432-4.032,0.936-6.048,1.44c-2.2319,0.144-4.4639,0.288-6.6959,0.504
		c-0.216,0.144-0.4321,0.288-0.72,0.504c-4.104,0.4319-5.76,0.936-10.08,1.1519c-0.4319,0.144-0.936,0.2881-1.44,0.504
		c-1.8719,0.0721-3.816,0.144-5.7599,0.216c-2.16,0.504-9.576,1.0081-23.04,2.88c-4.032,0.36-8.136,0.792-12.24,1.224
		c-6.264-0.504-6.264-0.504-10.08-0.504c-2.088,0.648-4.176,1.296-6.264,1.944c-0.144,0.144-0.288,0.288-0.432,0.504
		c-4.248,0.432-8.496,0.936-12.744,1.44c-6.192,0.936-12.456,1.872-18.72,2.88c-17.28,1.872-23.256,2.88-31.68,3.6
		c-9.576,0.216-9.576,0.216-17.28,0.72c-11.448,1.584-22.896,3.168-34.344,4.752c-8.856,0.72-13.896,0.72-36.936,2.448
		C87.264,238.536,87.264,238.536,85.824,238.536L85.824,238.536z M78.912,237.384c-4.104-0.504-4.104-0.504-7.704-1.44
		c-0.72-0.288-1.44-0.648-2.16-1.008c-4.536-0.936-4.536-0.936-10.584-2.88c-1.584-0.576-3.168-1.224-4.752-1.872
		c-0.288-0.288-0.648-0.648-1.008-1.008c-0.36-0.72-0.72-1.44-1.08-2.232c-0.072-2.448-0.144-4.896-0.216-7.416
		c0.072-0.792,0.216-1.584,0.36-2.448c0.72-0.144,5.256,0.864,8.136,1.8c0.432,0.072,0.936,0.144,1.44,0.216
		c0.36,0.288,0.792,0.648,1.224,1.008c2.376,0.432,2.376,0.432,5.256,1.44c11.304,1.872,11.304,1.872,12.744,2.376
		c0.216,0.144,0.432,0.36,0.72,0.576c0.792,2.2321,0.792,2.2321,1.08,2.448c-0.288,9.576-0.288,9.576-0.576,10.44
		C80.856,237.384,79.92,237.384,78.912,237.384L78.912,237.384z M0.432,236.376c-0.144-0.072-0.288-0.144-0.432-0.288
		c0-0.288,0-0.648,0-1.008c0.648-0.36,0.648-0.36,4.752-1.08c1.728,0,3.456,0,5.256,0c0.864,0.216,1.728,0.432,2.664,0.72
		c1.296-0.072,2.664-0.144,4.032-0.216c5.544-1.0081,5.544-1.0081,9.144-1.944c1.08-0.072,2.232-0.144,3.384-0.216
		c3.24-0.648,6.48-1.296,9.792-1.944c8.64,0,8.64,0,10.8,0.216c0,0.36,0.072,0.72,0.144,1.152c-3.312,0.072-6.624,0.144-9.936,0.288
		c-14.4,2.4481-18,3.384-24.264,4.32c-1.08,0-2.232,0-3.384,0c-1.44-0.432-1.44-0.432-6.48-0.72
		C3.528,236.16,3.528,236.16,0.432,236.376L0.432,236.376z M67.392,216.72c-0.432-0.144-0.936-0.288-1.44-0.504
		c0-0.216-0.072-0.504-0.144-0.792c0.576-0.36,0.576-0.36,3.24-0.864c4.104-0.216,10.296-1.224,18.504-2.16
		c0.792-0.144,1.584-0.288,2.376-0.504c13.176-0.72,20.376-0.72,21.816-0.936c0.576,0,1.152,0.072,1.728,0.144
		c-1.008,1.296-1.008,1.296-1.728,1.8c-3.312,0.144-6.696,0.288-10.08,0.432c-2.736,0.36-5.544,0.792-8.352,1.224
		c-2.232,0-4.464,0-6.768,0c-1.008,0.216-2.016,0.432-3.096,0.72c-2.304,0-4.608,0-6.984,0c-4.752,0.72-4.752,0.72-6.912,1.44
		C68.832,216.72,68.112,216.72,67.392,216.72L67.392,216.72z M131.184,215.7841c-0.216,0-0.432-0.0721-0.72-0.144
		c-0.144-4.32-0.144-4.32,0.144-5.04c0.216-2.592,0.216-2.592,0.576-3.6c0.792-0.288,1.584-0.576,2.448-0.864
		c5.04-0.432,7.92-0.936,11.952-1.008c-0.288,0.576-0.576,1.224-0.864,1.872c-2.376,2.592-4.752,5.256-7.2,7.92
		c-0.792,0.288-1.584,0.576-2.448,0.864C133.776,215.7841,132.48,215.7841,131.184,215.7841L131.184,215.7841z M116.784,215.496
		c-0.504-0.072-1.008-0.144-1.584-0.288c0-0.216,0-0.432,0-0.72c0.936-1.08,1.872-2.16,2.808-3.312c0.864,0,1.728,0,2.664,0
		c1.152-0.432,1.152-0.432,2.88-0.576c0.072,1.728,0.072,1.728-0.432,4.104c-0.576,0.36-0.576,0.36-3.456,0.792
		C118.728,215.496,117.792,215.496,116.784,215.496L116.784,215.496z M141.552,215.0641c-0.288-0.144-0.288-0.144-0.432-0.864
		c0.648-0.864,1.296-1.728,1.944-2.592c0.72-0.648,1.44-1.296,2.16-1.944c1.224-1.656,2.52-3.312,3.816-5.04
		c1.44-1.44,2.88-2.88,4.32-4.32c3.888-5.04,3.888-5.04,7.704-9.144c2.16-1.872,4.104-4.32,6.264-6.48
		c1.872-2.376,4.032-4.536,5.976-7.416c0.216-0.504,0.432-1.08,0.72-1.656c0-0.864,0-1.728,0-2.664
		c-0.144-0.216-0.288-0.432-0.504-0.72c-1.296-0.36-1.296-0.36-5.976-0.72c0-0.288,0-0.576,0-0.936
		c4.824-4.104,5.76-5.328,10.08-9.144c1.224-1.512,2.52-3.024,3.816-4.536c0.288-0.144,0.576-0.288,0.864-0.432
		c8.424-0.432,12.24-0.936,16.56-0.936c1.728-0.504,1.728-0.504,6.264-0.936c1.152,0,2.376,0,3.6,0.072
		c2.304,3.672,4.68,7.344,7.056,11.088c0.072,0.36,0.144,0.792,0.216,1.224c-5.6161,1.008-6.552,1.512-12.816,2.448
		c-1.512,0.288-3.024,0.648-4.536,1.008c-1.08,0.576-2.232,1.224-3.384,1.872c-4.752,3.888-4.752,3.888-8.856,7.704
		c-2.88,3.024-5.76,6.048-8.64,9.144c-1.08,0.72-2.16,1.512-3.24,2.304c0,1.152,0,1.152,0.36,1.512
		c1.944,0.504,1.944,0.504,2.88,0.504c0.144-0.144,0.288-0.288,0.504-0.504c3.6-0.648,7.2-1.296,10.8-1.944
		c13.68-1.44,27.576-3.312,42.912-4.752c5.112-0.648,10.224-1.296,15.4081-1.944c3.816-0.936,14.112-2.376,16.056-2.88
		c1.08,0,2.232,0,3.384-0.072c0,0.216-0.0721,0.432-0.144,0.72c-0.792,0.576-1.584,1.224-2.448,1.872
		c-1.224,1.368-2.448,2.736-3.672,4.176c-3.6,1.008-6.48,1.44-10.08,2.448c-6.192,1.224-12.456,2.52-18.72,3.816
		c-7.92,1.8-15.84,3.672-23.76,5.544c-1.368,0.144-2.736,0.288-4.104,0.432c-5.976,1.944-5.976,1.944-12.24,3.6
		C174.96,207.648,158.256,211.32,141.552,215.0641L141.552,215.0641z M106.992,208.296c-0.144-0.144-0.288-0.288-0.504-0.432
		c2.304-2.52,4.608-5.112,6.984-7.704c0.216,0,0.504,0.072,0.792,0.144c0.072,1.152,0.144,2.376,0.216,3.6
		c-0.288,0.432-0.576,0.936-0.936,1.44c-1.08,0.72-2.16,1.44-3.24,2.232C109.224,207.7921,108.144,208.0081,106.992,208.296
		L106.992,208.296z M120.168,208.08c-1.224-0.504-1.224-0.504-2.376-1.44c0-0.576-0.072-1.152-0.144-1.8
		c0.432-0.288,0.864-0.576,1.296-0.936c1.728-0.0721,3.528-0.144,5.328-0.216c0,0.36-0.072,0.72-0.144,1.152
		c-1.944,1.944-1.944,1.944-2.448,2.88C121.176,207.7921,120.672,207.936,120.168,208.08L120.168,208.08z M146.304,204.12
		c-0.072-0.432-0.216-0.936-0.36-1.44c0.072-4.824,0.144-9.72,0.216-14.616c1.368-0.216,2.808-0.432,4.248-0.648
		c3.24-0.072,6.552-0.144,9.864-0.216c0.432,0.36,0.432,0.36,0.576,1.584c-2.016,2.16-4.032,4.3199-6.048,6.48
		c-0.576,0.864-1.224,1.728-1.872,2.664c-1.944,1.944-3.888,3.96-5.904,5.976C146.808,203.976,146.592,204.048,146.304,204.12
		L146.304,204.12z M118.512,201.528c-0.432-1.728-0.432-1.728-1.152-2.664c-0.072-1.008-0.144-2.016-0.216-3.096
		c2.016-2.664,2.016-2.664,2.736-3.168c1.224-0.144,3.168,0.144,3.888-0.144c0.504,0,1.08,0,1.656-0.072
		c-0.432,1.44-0.864,2.88-1.296,4.32c0,1.944,0.216,2.16,0.216,4.104c-0.504,0.144-1.008,0.36-1.512,0.576
		C121.392,201.384,119.952,201.456,118.512,201.528L118.512,201.528z M123.264,190.584c-0.216,0-0.432-0.072-0.72-0.144
		c0.072-0.36,0.216-0.72,0.36-1.152c1.944-1.944,3.816-4.608,7.416-8.424c1.08-1.008,2.16-2.016,3.312-3.024
		c0.216,0,0.432,0,0.72-0.072c-0.288,0.864-0.576,1.728-0.864,2.592c-2.88,5.04-3.888,6.264-5.76,9.648
		C124.992,190.08,124.992,190.08,123.264,190.584L123.264,190.584z M265.608,187.1281c0-0.216,0-0.432,0.072-0.72
		c1.152-1.008,2.376-2.088,3.6-3.168c3.744-1.8,3.744-1.8,9.072-3.744c2.376-0.216,2.592,0,11.52-1.1519
		c0.288-0.36,0.288-0.36,0.648-2.304c0.792-0.36,6.768-1.296,11.304-2.304c0.504,0,1.08,0.072,1.656,0.144
		c0,0.216,0.072,0.432,0.144,0.72c-1.944,2.448-4.104,4.608-6.9841,8.208c-9.6479,1.728-9.6479,1.728-27.6479,4.176
		C267.912,186.984,266.7599,187.056,265.608,187.1281L265.608,187.1281z M300.384,182.304c0.072-0.36,0.216-0.792,0.36-1.224
		c5.76-6.912,5.76-6.912,6.84-7.776c1.944-0.504,4.32-0.72,5.328-1.224c3.816-0.216,3.816-0.216,6.912-0.72
		c1.0081,0,2.088,0.072,3.168,0.144c-2.4481,3.24-3.168,3.672-4.104,4.896c-1.512,1.44-3.024,2.88-4.536,4.32
		c-0.36,0.144-0.792,0.288-1.224,0.504C310.248,181.224,310.248,181.224,300.384,182.304L300.384,182.304z M318.672,180.144
		c0.216-0.504,0.504-1.08,0.792-1.656c0.72-0.72,1.512-1.44,2.304-2.16c0.936-1.296,1.944-2.592,2.9521-3.888
		c2.16-1.872,2.16-1.872,3.024-2.304c4.968-0.216,9.936-0.504,14.904-0.792c-0.072,0.288-0.216,0.576-0.36,0.936
		c-2.5201,2.448-5.04,4.968-7.56,7.488c-0.504,0.216-1.08,0.504-1.656,0.7921c-3.384,0.504-5.328,0.504-11.808,1.44
		C320.4,180,319.536,180.0721,318.672,180.144L318.672,180.144z M339.048,178.056c-0.288-0.072-0.288-0.072-0.36-1.008
		c1.872-2.16,3.6-3.5999,4.536-5.0399c0.792-0.72,1.656-1.44,2.52-2.16c0.576-0.144,1.152-0.288,1.728-0.432
		c0.36-0.432,0.72-0.936,1.152-1.44c3.24-0.072,6.5519-0.144,9.864-0.216c0,0.288,0,0.576,0.072,0.864
		c-0.432,0.936-0.936,1.8719-1.44,2.88c-0.432,0.216-0.864,0.504-1.296,0.792c-1.008,1.08-2.016,2.232-3.0959,3.384
		c-0.432,0.288-0.936,0.576-1.44,0.936C347.256,177.048,343.152,177.552,339.048,178.056L339.048,178.056z M356.544,175.608
		c0.072-0.36,0.216-0.792,0.36-1.224c3.816-5.04,3.816-5.04,4.896-5.976c0.36-0.144,0.792-0.288,1.224-0.432
		c3.672,0.072,7.344,0.144,11.088,0.288c0.072,0.288,0.144,0.576,0.288,0.864c-2.0161,2.592-2.0161,2.592-3.456,3.888
		C361.584,174.96,361.584,174.96,356.544,175.608L356.544,175.608z M288.648,174.024c-0.36-0.36-0.36-0.36-0.504-1.584
		c2.88-0.864,2.88-0.864,13.248-2.736c7.416-0.432,14.832-0.936,22.32-1.44c-0.288,0.216-0.6479,0.432-1.008,0.72
		c-6.192,0.936-12.456,1.872-18.72,2.88c-3.0959,0-3.0959,0-5.472,0.432c-0.7919,0.288-1.584,0.648-2.4479,1.008
		C293.616,173.52,291.168,173.736,288.648,174.024L288.648,174.024z M375.264,172.224c0.072-0.432,0.216-0.936,0.36-1.44
		c0.6479-0.648,1.296-1.2961,1.944-1.944c0.36-0.0721,0.72-0.216,1.08-0.36c6.264,0.216,6.264,0.216,7.92,0.504
		c0.072,0.072,0.144,0.216,0.216,0.36c-0.216,0.144-0.432,0.36-0.72,0.576C377.928,171.864,377.928,171.864,375.264,172.224
		L375.264,172.224z M161.928,171.144c-6.12-0.648-12.312-1.296-18.504-1.944c-0.648-0.144-1.296-0.36-1.944-0.576
		c0-0.288,0-0.576,0-0.936c1.008-0.432,1.008-0.432,6.552-1.368c3.888,0.072,7.776,0.144,11.736,0.216
		c1.224,0.288,2.52,0.576,3.816,0.864c0.072,0.576,0.216,1.152,0.36,1.728c0.144,0.144,0.288,0.288,0.504,0.432
		c-0.072,0.4319-0.144,0.9359-0.288,1.44C163.44,171,162.72,171.0721,161.928,171.144L161.928,171.144z M285.9839,170.136
		c-0.7919-1.08-1.5839-2.16-2.376-3.24c0-0.432,0-0.864,0-1.368c1.944-0.864,1.944-0.864,7.2-2.088c0.216,0,0.432,0.072,0.72,0.144
		c-1.368,2.16-2.808,4.32-4.248,6.48C286.848,170.0641,286.416,170.0641,285.9839,170.136L285.9839,170.136z M290.808,169.3441
		c0-0.36,0-0.7921,0.072-1.224c1.944-2.88,1.944-2.88,4.032-5.4c1.152-0.288,2.376-0.576,3.6-0.936
		c3.2401-0.2881,6.48-0.576,9.7921-0.864c-0.072,0.288-0.216,0.648-0.36,1.008c-1.08,0.936-3.096,4.032-4.104,5.04
		C300.168,167.76,294.912,168.48,290.808,169.3441L290.808,169.3441z M327.312,168.264c-0.288-0.072-0.648-0.216-1.008-0.36
		c0.144-0.0721,0.288-0.216,0.504-0.36c1.8,0,3.672,0,5.544,0c-0.432,0.216-0.936,0.432-1.44,0.72
		C329.76,168.264,328.536,168.264,327.312,168.264L327.312,168.264z M306.864,166.824c0-0.36-0.072-0.72-0.144-1.08
		c1.08-1.44,1.08-1.44,4.68-5.04c5.544-0.648,5.544-0.648,11.592-0.864c0.864,0,1.728,0.072,2.592,0.144
		c-1.296,1.8-2.664,3.6-4.032,5.4c-1.0081,0.432-1.0081,0.432-7.92,1.44C311.4,166.824,309.168,166.824,306.864,166.824
		L306.864,166.824z M219.528,166.536c-2.376-3.096-4.752-6.264-7.128-9.432c-0.216-0.864-0.432-1.728-0.72-2.664
		c1.44-0.072,2.952-0.216,4.464-0.36c0.36-0.144,0.792-0.288,1.224-0.504c4.968-0.36,9.936-0.72,14.904-1.152
		c1.872-0.288,3.816-0.648,5.76-1.008c12.96-0.936,12.96-0.936,20.16-1.872c0.72-0.288,0.72-0.288,5.976-0.72
		c0.216,0.216,0.432,0.432,0.72,0.72c0.936,0.288,1.8719,0.576,2.88,0.936c2.232,3.384,4.464,6.768,6.696,10.224
		c-0.072,0.072-0.144,0.216-0.216,0.36c-27.576,2.376-30.024,2.88-32.904,2.88c-5.544,0.792-11.16,1.584-16.776,2.376
		C222.912,166.392,221.256,166.464,219.528,166.536L219.528,166.536z M382.752,166.248c0-0.216,0-0.432,0-0.72
		c2.88-0.288,5.76-0.648,8.64-1.008c-0.144,1.008-0.144,1.008-0.504,1.296C389.232,166.104,389.232,166.104,382.752,166.248
		L382.752,166.248z M394.992,165.744c0.288-1.224,0.288-1.224,1.296-2.664c1.08-0.576,2.16-1.152,3.24-1.8
		c0.6479-0.072,1.296-0.216,1.944-0.36c-0.4319,1.296-0.864,2.592-1.368,3.888c-0.648,0.216-1.296,0.504-2.016,0.792
		C397.08,165.6,396.072,165.672,394.992,165.744L394.992,165.744z M140.544,165.528c0.072-0.36,0.216-0.792,0.36-1.224
		c1.944-2.376,1.944-2.376,3.528-3.744c0.216,0,0.504,0.072,0.792,0.144c0,0.936,0,1.872,0,2.88c-1.08,0.792-1.08,0.792-3.456,1.8
		C141.408,165.384,140.976,165.456,140.544,165.528L140.544,165.528z M324.864,165.528c0.072-0.648,0.2159-1.296,0.36-1.944
		c1.44-1.944,2.16-2.376,3.24-3.6c1.728-0.36,3.6-0.36,4.608-0.648c4.752,0,4.752,0,9.792,0.432
		c-0.864,1.872-0.864,1.872-2.736,4.32c-0.36,0.216-0.72,0.504-1.08,0.792c-4.1039,0.072-8.28,0.144-12.456,0.216
		C326.016,165.24,325.44,165.384,324.864,165.528L324.864,165.528z M347.688,165.384c-2.376-0.504-2.376-0.504-4.608-0.576
		c0-0.288,0-0.648-0.072-1.008c0.936-1.224,1.872-2.52,2.88-3.816c0.432-0.072,0.864-0.216,1.296-0.36c3.6,0,7.2,0.072,10.8,0.144
		c-1.8,3.312-1.8,3.312-3.6,5.616C351.288,165.384,349.128,165.096,347.688,165.384L347.688,165.384z M357.984,165.384
		c0-0.36-0.072-0.72-0.144-1.08c0.576-0.72,1.224-1.512,1.8719-2.304c0.576-0.36,1.224-0.72,1.872-1.08
		c0.072-0.288,0.216-0.576,0.36-0.936c6.84-0.36,6.84-0.36,12.744-0.216c0,0.216,0,0.432,0,0.72c-0.864,1.152-1.8,2.304-2.736,3.456
		c-3.384,0.432-3.384,0.432-3.888,0.72c-1.944,0.072-3.96,0.144-5.976,0.216C360.144,165.384,360.144,165.384,357.984,165.384
		L357.984,165.384z M166.248,164.016c-0.072-0.504-0.216-1.08-0.36-1.656c0-1.872,0.072-3.816,0.144-5.76
		c1.44,0.072,2.88,0.144,4.392,0.288c0.216,6.696,0.216,6.696-0.072,7.272C168.984,164.16,167.616,164.088,166.248,164.016
		L166.248,164.016z M153.792,163.944c-1.872-0.216-3.816-0.432-5.76-0.648c0-1.728-0.072-3.456-0.144-5.256
		c0.072-0.72,0.216-1.44,0.36-2.16c4.68,0.144,9.432,0.36,14.184,0.576c0.288,0.144,0.648,0.288,1.008,0.432
		c0,2.232,0,4.4641-0.072,6.768C160.2,163.7281,157.032,163.8,153.792,163.944L153.792,163.944z M376.272,163.44
		c-0.288-0.072-0.288-0.072-0.4319-0.792c0.6479-0.936,1.296-1.872,1.944-2.88c0.576-0.144,1.152-0.288,1.8-0.432
		c3.024,0,6.12,0.072,9.216,0.144c-0.072,0.36-0.144,0.792-0.216,1.224c-0.432,0.504-0.936,1.08-1.44,1.656
		C381.312,163.224,381.312,163.224,376.272,163.44L376.272,163.44z M173.232,162.216c0-1.44-0.0721-2.88-0.144-4.392
		c0.072-0.216,0.216-0.432,0.36-0.648c1.008,0,2.016,0.072,3.096,0.144c0,0.72,0.0721,1.44,0.144,2.16
		c-0.864,0.864-1.728,1.728-2.664,2.664C173.808,162.144,173.52,162.144,173.232,162.216L173.232,162.216z M391.608,161.424
		c0-0.36,0-0.792,0.072-1.224c0.36-0.36,0.72-0.72,1.152-1.08c1.296,0,2.664,0.072,4.032,0.144c-0.3599,0.36-0.72,0.72-1.152,1.08
		C394.344,160.704,392.976,161.0641,391.608,161.424L391.608,161.424z M175.608,154.7281c-1.08-11.808-1.08-11.808-1.368-12.744
		c0.144-2.808,0.288-5.616,0.432-8.424c0.288,0.072,0.6479,0.144,1.008,0.288c0,1.944,0,3.96,0,5.976
		c1.008,8.856,1.008,8.856,1.224,13.464c-0.072,0.288-0.144,0.576-0.216,0.936C176.328,154.368,175.968,154.512,175.608,154.7281
		L175.608,154.7281z M155.232,153.216c-0.432-1.872-0.432-5.976-0.648-6.696c0-4.68,0.072-9.36,0.144-14.112
		c0.72,0.072,1.44,0.144,2.232,0.216c0,11.304,0,11.304,0.288,11.736c0.072,2.952,0.216,5.976,0.36,9
		C156.816,153.36,156.024,153.2881,155.232,153.216L155.232,153.216z M167.688,152.136c-0.072-0.072-0.216-0.144-0.36-0.288
		c0.216-2.664,0-5.328,0.144-8.784c0.216,0,0.432,0,0.72,0.072c0.288,1.728,0.288,1.728,0.072,8.928
		C167.904,152.28,167.904,152.28,167.688,152.136L167.688,152.136z M167.184,141.12c-0.288-0.72-0.576-1.44-0.864-2.232
		c0-2.8799,0-2.8799,0.2881-4.3199c0.072-0.072,0.2159-0.144,0.36-0.288c0.36,0.504,0.36,0.504,0.576,1.728
		c0,1.656,0,3.312,0,5.0399C167.472,141.048,167.328,141.048,167.184,141.12L167.184,141.12z M184.464,132.696
		c-0.288-0.216-0.576-0.432-0.936-0.72c-1.512-0.072-3.024-0.144-4.536-0.216c-0.36-0.144-0.792-0.288-1.224-0.504
		c-1.512-0.144-3.024-0.288-4.536-0.432c0-1.296,0-2.592-0.0721-3.96c5.832-0.36,13.4641-1.368,25.488-2.088
		c5.76,0.2881,5.76,0.2881,8.856,0c16.128-0.4319,18.504-0.2159,19.008-0.4319c15.12,0.4319,16.272,0.72,20.376,0.936
		c0.504,0.072,1.08,0.216,1.656,0.36c-0.072,0.072-0.144,0.216-0.216,0.36c-4.8239,0.504-4.8239,0.504-7.416,0.504
		c-12.024,1.872-23.328,3.312-24.048,3.6c-8.64,0.432-20.88,1.44-25.2,1.44C187.632,132.48,187.632,132.48,184.464,132.696
		L184.464,132.696z M167.688,130.824c-0.936-0.288-1.872-0.576-2.808-0.864c0-0.576,0.0721-1.152,0.144-1.8
		c2.88-0.504,2.88-0.504,5.544-0.576c0,0.864,0,1.728,0.072,2.664C170.064,130.536,170.064,130.536,167.688,130.824L167.688,130.824
		z M160.488,130.104c-0.936-0.288-0.936-0.288-4.536-0.144c0.144-0.288,0.288-0.576,0.432-0.864c5.544-0.72,5.544-0.72,5.76-0.576
		c0,0.36,0.072,0.792,0.144,1.224C161.928,130.104,161.928,130.104,160.488,130.104L160.488,130.104z M148.968,127.584
		c-0.144-1.944-0.144-1.944,0.36-6.696c0.432-1.224,0.432-1.224,0.576-3.5999c0.288,0.072,0.648,0.144,1.008,0.288
		c1.872,2.16,3.816,5.184,6.336,8.064c0,0.216,0,0.432,0,0.72c-0.288,0.144-0.576,0.288-0.864,0.504c-0.36,0-0.72-0.072-1.152-0.144
		c-0.432,0.144-0.936,0.288-1.44,0.504C152.208,127.296,150.624,127.44,148.968,127.584L148.968,127.584z M160.992,126.216
		c-2.16-2.16-3.168-3.6-3.888-4.032c-1.872-2.808-1.872-2.808-5.904-7.776c0-0.72,3.888-9.144,7.704-19.008
		c0.144-0.216,0.288-0.432,0.504-0.72c0.36,0,0.72,0,1.08,0c0.432,4.752,0.864,9.576,1.296,14.4
		c0.144,5.328,0.288,10.728,0.504,16.128c-0.144,0.288-0.36,0.648-0.576,1.008C161.496,126.216,161.28,126.216,160.992,126.216
		L160.992,126.216z M164.808,125.64c-0.792-12.024-1.656-24.12-2.52-36.216c0.144-0.936,0.36-1.872,0.576-2.88
		c0.288,0,0.648,0,1.008,0.072c2.016,3.096,4.032,6.192,6.048,9.288c0.288,12.744,0.504,13.68,0.72,27.576
		c-0.144,0.432-0.288,0.936-0.432,1.44c-0.288,0.144-0.576,0.288-0.864,0.504C167.832,125.496,166.32,125.5681,164.808,125.64
		L164.808,125.64z M172.944,124.416c0-1.08-0.072-2.16-0.144-3.312c0.504-0.72,1.44-4.32,4.32-12.456
		c0-0.288,0.072-0.648,0.144-1.008c0.36,0.072,0.792,0.144,1.224,0.216c2.52,3.672,5.04,7.344,7.56,11.088
		c0.936,1.08,1.872,2.232,2.88,3.384c0,0.288-0.072,0.648-0.144,1.008c-1.224,0-2.52,0-3.816,0c-1.944,0.288-3.96,0.648-5.976,1.008
		C176.976,124.3441,174.96,124.3441,172.944,124.416L172.944,124.416z M204.408,123.1201c-1.224-0.504-1.224-0.504-3.384-0.72
		c-0.576-1.152-1.152-2.304-1.8-3.456c0.216-1.656,0.216-1.656,0.72-2.88c5.184-1.8,5.184-1.8,5.904-2.304
		c0.072-1.08,0.072-1.08-0.36-2.016c-2.736-0.144-2.736-0.144-10.944,0.36c-1.8-2.52-5.616-9-6.624-10.224
		c-0.936-1.872-0.936-1.872-2.88-4.32c-0.288-0.7921-0.576-1.584-0.936-2.376c-0.792-1.152-1.584-2.376-2.376-3.6
		c0.072-1.008,0.144-2.016,0.216-3.096c0.288,0,0.576-0.072,0.864-0.144c1.008,0.72,2.016,1.44,3.096,2.16
		c8.64,7.632,12.24,10.44,12.744,11.232c5.976,5.04,7.704,6.048,8.64,6.984c3.6,2.52,7.2,5.112,10.8,7.704
		c1.944,1.872,1.944,1.872,3.672,4.176c0,0.36,0,0.72-0.072,1.08C213.768,122.4,208.224,122.616,204.408,123.1201L204.408,123.1201z
		 M193.824,122.544c0-0.648-0.072-1.296-0.144-1.944c0.504-2.376,0.504-2.376,0.864-3.024c0.216,0,0.432,0,0.72,0
		c0.504,0.864,0.504,0.864,0.576,2.304c-0.432,0.792-0.864,1.656-1.2961,2.52C194.328,122.4,194.112,122.472,193.824,122.544
		L193.824,122.544z M190.224,120.24c-2.16-2.16-2.16-2.16-3.024-3.672c0-0.288,0-0.648-0.072-1.008
		c3.816,0.36,3.816,0.36,4.176,0.72c-0.072,1.296-0.144,2.592-0.216,3.888C190.8,120.168,190.512,120.168,190.224,120.24
		L190.224,120.24z M185.184,113.544c-3.744-5.184-5.616-7.344-6.624-9.216c0.216-1.8,0.432-3.672,0.72-5.5439
		c0.288-1.224,0.648-2.5201,1.008-3.816c0.288,0,0.576-0.072,0.864-0.144c0.792,0.864,2.736,4.896,3.672,5.904
		c2.088,3.312,4.176,6.696,6.264,10.08c0.072,0.504,0.144,1.08,0.216,1.656c-1.08,0.36-4.68,0.792-5.112,1.08
		C185.904,113.544,185.544,113.544,185.184,113.544L185.184,113.544z M172.728,112.68c-0.072-3.888-0.144-7.776-0.216-11.736
		c0.36,0.072,0.72,0.144,1.152,0.216c0.72,0.864,1.512,1.728,2.304,2.664c0,0.432,0,0.936,0,1.44
		c-0.864,2.376-1.728,4.752-2.664,7.2C173.16,112.536,172.944,112.608,172.728,112.68L172.728,112.68z M212.544,109.944
		c-2.232-1.656-4.464-3.312-6.696-5.04c-0.648-0.288-1.296-0.576-1.944-0.864c-0.072-0.216-0.144-0.432-0.216-0.72
		c-2.664-1.872-3.96-3.312-8.424-6.696c-2.304-2.16-2.304-2.16-2.736-2.88c-1.296-0.936-2.592-1.872-3.96-2.88
		c-0.648-0.72-1.296-1.44-1.944-2.16c-3.024-1.944-3.024-1.944-3.744-2.664c0-0.576,0-1.224,0-1.872
		C183.888,81,183.888,81,184.32,78.6241c0-0.936,0.0721-1.872,0.144-2.88c0.216,0,0.432,0,0.72,0.072
		c2.88,3.384,5.04,5.328,8.64,9.504c0.648,0.864,1.2961,1.8,1.944,2.736c2.808,3.096,5.616,6.192,8.424,9.36
		c1.872,3.024,1.872,3.024,5.04,6.984c0.072,0.36,0.144,0.72,0.288,1.08c1.08,1.152,2.232,2.376,3.384,3.6
		C212.904,109.8,212.904,109.8,212.544,109.944L212.544,109.944z M151.128,106.2c0-2.304,0-4.608,0.072-6.912
		c0.792-8.064,1.584-16.128,2.448-24.264c0.432,0,0.864-0.072,1.296-0.144c0.648,0.36,1.296,0.72,1.944,1.08
		c0.936,1.224,0.936,1.224,2.52,4.32c0.144,2.952,0.288,5.904,0.432,8.928c-0.936,1.728-1.872,3.456-2.88,5.256
		c-0.576,1.656-1.224,3.312-1.872,5.04c-0.288,0.36-0.648,0.792-1.008,1.224c-0.576,1.584-1.224,3.168-1.872,4.752
		C151.848,105.696,151.488,105.912,151.128,106.2L151.128,106.2z M176.112,100.944c-1.152-1.584-2.304-3.168-3.528-4.824
		c0-3.672,0.072-7.416,0.144-11.16c0.216,0,0.432,0,0.72,0c3.816,4.104,3.816,4.104,5.616,6.624c-0.936,5.04-1.44,5.976-1.944,8.424
		c-0.432,0.936-0.432,0.936-0.792,1.152C176.256,101.088,176.184,101.016,176.112,100.944L176.112,100.944z M169.344,91.224
		c-0.936-1.368-1.872-2.736-2.88-4.104c-0.36-0.216-0.72-0.504-1.08-0.7921c-0.936-1.944-0.936-1.944-0.936-2.664
		c0.936-2.304,1.872-4.608,2.88-6.9839c0.288,0,0.576-0.0721,0.864-0.144c0.432,0.648,0.864,1.368,1.296,2.088
		c0.144,0.6479,0.288,1.296,0.432,1.944c0,3.384,0,6.84,0,10.296C169.776,90.936,169.56,91.08,169.344,91.224L169.344,91.224z
		 M179.424,88.056c-2.16-2.16-2.16-2.16-4.464-5.112c0-0.216,0-0.432-0.072-0.72c0.4319,0.072,0.9359,0.216,1.44,0.36
		c1.296,1.152,2.592,2.304,3.96,3.456c0,0.576,0,1.152,0,1.728C179.64,88.2,179.64,88.2,179.424,88.056L179.424,88.056z
		 M180.432,83.52c-0.576-0.432-1.224-0.864-1.872-1.296c-0.144-0.288-0.288-0.576-0.432-0.936c-2.736-1.872-2.736-1.872-5.4-4.248
		c0-0.864-0.072-1.8-0.144-2.736c3.168-0.072,6.336-0.144,9.504-0.216c-0.648,6.192-0.648,6.192-0.648,8.352
		c-0.432,1.008-0.432,1.008-0.792,1.224C180.576,83.664,180.504,83.592,180.432,83.52L180.432,83.52z M162.432,81.36
		c-0.144-0.144-0.288-0.36-0.504-0.576c-0.072-1.872-0.144-3.816-0.288-5.76c1.224-0.144,2.448-0.288,3.672-0.504
		c-0.864,3.384-0.864,3.384-1.872,6.048C162.648,81.5041,162.648,81.5041,162.432,81.36L162.432,81.36z M162.144,72.648
		c-0.144-1.8-0.288-3.672-0.432-5.544c0.216,0.072,0.504,0.144,0.792,0.216c0.72,1.08,1.44,2.232,2.16,3.384
		c0,0.288,0,0.576,0,0.936c-0.36,0.288-0.72,0.576-1.08,0.864C163.152,72.5041,162.648,72.576,162.144,72.648L162.144,72.648z
		 M156.672,72.216c-0.864-1.008-0.864-1.008-1.584-2.448c0.072-1.512,0.144-3.024,0.216-4.608c0.288-1.224,0.576-2.448,0.864-3.744
		c0.792,0,1.656,0.072,2.52,0.144c0.144,0.864,0.288,1.728,0.432,2.6639c0,2.664,0,5.328-0.072,7.992
		C158.256,72.216,157.464,72.216,156.672,72.216L156.672,72.216z M177.264,71.496c-1.512-0.072-3.024-0.144-4.536-0.216
		c-0.216-0.144-0.432-0.36-0.648-0.576c0-1.44,0-1.44,0.504-2.664c0-2.016-0.072-4.104-0.144-6.192c0.792,0,1.584-0.072,2.448-0.144
		c0.36,0.144,0.792,0.288,1.224,0.432c2.88,3.168,2.88,3.168,3.816,4.68c0.792,1.944,1.8,3.384,2.016,4.392
		C180.864,71.496,180.864,71.496,177.264,71.496L177.264,71.496z M167.688,71.28c-1.728-2.808-3.456-5.616-5.184-8.496
		c0-0.36,0-0.7921-0.072-1.224c1.008-0.0721,2.016-0.216,3.096-0.36c1.224,0.216,2.52,0.432,3.816,0.648
		c0,3.024,0.072,6.048,0.144,9.072C169.128,71.28,169.128,71.28,167.688,71.28L167.688,71.28z M152.352,64.8
		c-0.432-0.864-0.936-1.8-1.44-2.736c1.44-0.144,1.44-0.144,2.232,0.216c0,0.72,0,1.44,0,2.16
		C152.568,64.944,152.568,64.944,152.352,64.8L152.352,64.8z M159.048,58.824c-2.88-0.288-2.88-0.288-3.24-0.576
		c0-0.216,0-0.432,0.072-0.72c0.648,0,1.296-0.072,1.944-0.144c1.44,0.72,1.44,0.72,3.384,1.08c-0.072,0.072-0.144,0.216-0.216,0.36
		C160.344,58.824,159.696,58.824,159.048,58.824L159.048,58.824z M162.648,55.944c-0.288-0.144-0.576-0.288-0.936-0.504
		c0-0.576-0.072-1.152-0.144-1.8c0.36-0.36,0.72-0.72,1.152-1.152c0-0.936,0-1.872,0-2.88c0.432,0,0.864-0.072,1.368-0.144
		c4.824,4.032,4.824,4.032,6.48,5.7599c-0.36,0.216-0.792,0.432-1.224,0.72C167.112,55.944,164.88,55.944,162.648,55.944
		L162.648,55.944z M154.728,54.72c-0.216-0.216-0.432-0.432-0.72-0.72c-0.072-0.432-0.144-0.864-0.216-1.296
		c1.296,0.072,2.664,0.144,4.032,0.216c0,0.36,0.072,0.792,0.144,1.224C157.104,54.504,157.104,54.504,154.728,54.72L154.728,54.72z
		 M155.448,49.896c-3.096-0.432-3.096-0.432-3.528-0.792c-0.72-2.376-0.72-2.376-0.936-5.256c0.864-0.432,0.864-0.432,4.968-0.864
		c1.152,0.072,2.376,0.144,3.6,0.216c0.432,0.648,0.936,1.296,1.44,2.016c0,0.648,0,1.296,0.072,1.944
		c-0.432,0.792-0.864,1.656-1.296,2.52C158.328,49.752,156.888,49.824,155.448,49.896L155.448,49.896z"/>
</g>
</svg>
