<?xml version="1.0" encoding="utf-8"?>
<!-- Generator: Adobe Illustrator 21.1.0, SVG Export Plug-In . SVG Version: 6.00 Build 0)  -->
<svg version="1.1" xmlns="http://www.w3.org/2000/svg" xmlns:xlink="http://www.w3.org/1999/xlink" x="0px" y="0px"
	 viewBox="0 0 417.042 417.384" enable-background="new 0 0 417.042 417.384" xml:space="preserve">
<g>
	<path fill-rule="evenodd" clip-rule="evenodd" d="M347.346,417.384c-1.224-0.504-5.976-3.744-10.08-5.76
		c-0.288-0.288-0.576-0.648-0.936-1.008c-6.264-2.88-9.144-3.816-9.864-4.32c-5.04-1.872-17.784-7.632-28.8-11.952
		c-0.648-0.288-1.2961-0.648-1.944-1.008c-6.912-1.872-6.912-1.872-9.36-2.88c-0.432-0.576-4.536-2.88-5.76-3.816
		c-1.872-0.936-1.872-0.936-4.032-2.664c-1.512-0.432-3.024-0.936-4.608-1.44c-0.072-0.72-0.144-1.44-0.216-2.16
		c-5.112-2.592-10.224-5.256-15.336-7.92c-2.808-1.224-5.616-2.52-8.424-3.816c-1.08-0.36-2.232-0.72-3.384-1.08
		c0.072,0.36,0.216,0.792,0.36,1.224c0.936,0.936,0.936,0.936,1.944,3.096c0.072,0.432,0.216,0.936,0.36,1.44
		c0.432,0.288,0.864,0.648,1.2961,1.008c0.6479,0.936,1.296,1.872,2.016,2.88c0.72,0.576,1.512,1.224,2.304,1.872
		c0.144,0.432,0.288,0.936,0.504,1.44c3.0959,1.944,6.84,3.744,8.496,4.896c1.008,0.432,2.088,0.936,3.168,1.44
		c1.7281,1.296,3.4561,2.592,5.256,3.96c1.656,0.648,2.376,1.224,4.104,1.8c2.88,1.944,2.88,1.944,4.32,2.448
		c0.864,0.72,1.728,1.44,2.592,2.16c1.728,0.432,2.664,1.152,4.104,1.656c0.432,0.432,0.936,0.864,1.44,1.296
		c0.504,0,1.08,0.072,1.656,0.144c0.144,0.288,0.288,0.576,0.504,0.864c0.72,0.072,0.72,0.072,2.664,1.08
		c0.432,0.576,0.432,0.576,2.376,1.44c1.152,0.144,2.376,0.288,3.6,0.432c5.976,2.88,6.696,3.528,9.144,4.608
		c1.44,0.936,1.44,0.936,1.872,1.512c-0.144,0.216-0.288,0.432-0.432,0.648c-0.288,0-0.648,0-1.008,0
		c-1.008-0.648-2.016-1.296-3.096-1.944c-0.936-0.288-1.872-0.576-2.88-0.936c-0.432-0.288-0.936-0.648-1.44-1.008
		c-0.792-0.144-1.584-0.288-2.376-0.432c-3.744-1.872-7.488-3.816-11.304-5.76c-3.816-2.448-3.816-2.448-11.304-6.264
		c-0.7921-0.288-1.584-0.576-2.376-0.936c-2.88-2.088-2.88-2.088-10.08-6.264c-1.368-0.648-2.7361-1.296-4.104-1.944
		c-0.144-0.216-0.2881-0.432-0.432-0.72c-1.152-0.576-2.376-1.224-3.6-1.872c-1.152-0.864-2.376-1.728-3.6-2.664
		c-0.216,0-0.432,0-0.72-0.072c0-0.36-0.072-0.792-0.144-1.224c-0.432-0.36-0.936-0.792-1.44-1.224
		c-0.288-0.72-0.648-1.44-1.008-2.16c-0.576-0.72-1.224-1.44-1.872-2.16c-0.648-1.152-1.296-2.376-1.944-3.6
		c-0.864-0.576-1.728-1.224-2.664-1.872c-0.288-0.72-0.576-1.44-0.936-2.16c-1.224-1.368-2.52-2.736-3.816-4.104
		c-0.288-0.648-0.648-1.296-1.008-1.944c-2.16-2.16-3.672-3.024-5.832-5.4c-0.864-0.648-1.728-1.296-2.664-2.016
		c-0.36-0.72-0.72-1.44-1.08-2.16c-0.072-0.792-0.216-1.656-0.36-2.5201c-0.504,0-1.08,0-1.656,0
		c-1.008,0.576-2.0161,1.224-3.096,1.872c-0.72,0.216-1.44,0.432-2.16,0.72c-0.216-0.072-0.432-0.144-0.648-0.288
		c0-0.432,0-0.936,0-1.44c-1.8-2.16-3.672-4.32-5.544-6.48c-1.44-1.008-1.44-1.008-4.752-4.608
		c-0.504-0.288-1.008-0.576-1.584-0.936c-0.36-0.432-0.792-0.936-1.224-1.44c-2.88-1.944-4.536-3.384-7.416-4.968
		c-1.008-0.288-2.016-0.576-3.096-0.936c-1.152-0.648-2.376-1.296-3.5999-2.016c-0.288-0.648-0.576-1.296-0.864-1.944
		c-0.792-0.648-1.656-1.296-2.52-2.016c-0.288-0.432-0.576-0.864-0.936-1.368c-0.792-0.576-1.584-1.224-2.448-1.872
		c-0.936-1.728-1.944-3.456-2.952-5.256c-2.52-2.16-5.04-4.32-7.56-6.552c-0.792-0.36-1.584-0.72-2.376-1.08
		c-1.296-1.008-2.592-2.016-3.888-3.096c-0.864-0.288-1.728-0.576-2.592-0.936c-2.16-1.44-2.16-1.44-4.608-2.448
		c-6.696-1.872-6.696-1.872-12.456-3.816c-0.936-0.072-1.872-0.144-2.88-0.216c-2.376-0.648-4.752-1.296-7.2-1.944
		c-9.36-1.44-10.8-1.944-21.816-3.816c-3.744-1.08-7.488-2.232-11.304-3.384c-3.6-0.072-7.2-0.144-10.8-0.216
		c-2.304-0.648-4.608-1.2961-6.984-1.944c-0.432-0.576-0.432-0.576-0.504-2.232c-0.864-0.432-1.728-0.864-2.592-1.368
		c-0.144-0.288-0.288-0.576-0.504-0.864c-3.312-2.016-6.696-4.032-10.08-6.12c-1.008-0.792-2.016-1.584-3.096-2.376
		c-0.432-0.072-0.936-0.144-1.44-0.216c-0.216,0.144-0.432,0.288-0.72,0.432c-2.376-0.216-3.816-0.72-5.04-0.792
		c-0.072,0.504-0.216,1.08-0.36,1.656c-0.864,0.36-0.864,0.36-2.52,0.36c-0.36,1.368-0.36,1.368-0.864,1.8
		c-0.36,0.072-0.72,0.216-1.08,0.36c-3.096-0.216-3.6-0.504-4.752-0.36c-0.288,0.36-0.648,0.72-1.008,1.08
		c-1.008,0-2.016,0-3.096-0.072c0.144,1.008,0.36,2.016,0.576,3.096c-0.36,0.36-0.72,0.72-1.08,1.08
		c-0.72,0.072-1.44,0.216-2.16,0.36c0.36,1.656,0.864,2.376,1.08,3.384c-0.36,0.288-0.72,0.576-1.08,0.936
		c-0.576-0.144-1.224-0.288-1.872-0.504c0.072,0.36,0.144,0.792,0.288,1.224c3.168,3.384,3.168,3.384,4.32,5.04
		c1.008,0.864,2.088,1.728,3.168,2.664c0.072,1.008,0.144,2.016,0.216,3.096c-0.36,0.36-0.36,0.36-2.016,0.36
		c-1.656-0.504-1.656-0.504-7.704-1.224c-0.432,0.504-0.432,0.504-3.096,1.44c-0.432,0.36-0.936,0.792-1.44,1.224
		c-1.008,0.144-2.016,0.288-3.096,0.432c-1.656-0.072-3.312-0.144-5.04-0.216c-1.152-0.288-2.376-0.576-3.6-0.936
		c-2.016,0.216-4.032,0.432-6.048,0.72c-5.472-0.288-13.176-1.224-17.496-1.44c-1.944-0.504-1.944-0.504-2.376-1.008
		c-0.144-0.792-0.144-0.792,0.216-1.152c3.6,0,3.6,0,5.544-0.288c5.472,1.44,5.472,1.44,6.192,1.944
		c1.296-0.144,2.592-0.288,3.888-0.504c0.216,0.216,0.432,0.432,0.72,0.648c0.864,0.072,1.728,0.216,2.592,0.36
		c1.44-0.144,2.88-0.288,4.32-0.504c0.288-0.216,0.648-0.432,1.008-0.72c0.432,0,0.936,0,1.44,0
		c0.936,0.504,0.936,0.504,4.032,1.224c0.936,0,1.872,0,2.88,0c0.288-0.36,0.288-0.36,0.144-1.8c0.144-0.0721,0.36-0.216,0.576-0.36
		c1.584,0.144,3.168,0.288,4.824,0.432c0.36-0.288,0.36-0.288,0.72-1.512c0.36-0.288,0.792-0.648,1.224-1.008
		c0-0.36-0.072-0.72-0.144-1.152c0.072-0.072,0.216-0.216,0.36-0.36c0.36,0.072,0.792,0.144,1.224,0.216
		c3.096,1.944,3.096,1.944,6.696,3.6c0.36,0,0.72,0,1.08-0.072c0-0.216,0-0.432,0-0.72c-4.608-5.04-4.608-5.04-6.264-6.48
		c-1.368-1.8-2.736-3.672-4.104-5.544c-1.224-1.368-2.52-2.736-3.816-4.104c0-1.152,0-1.152,0.36-1.584c0.216,0,0.432,0,0.72,0
		c1.44,1.008,1.44,1.008,2.664,2.448c0.72,0,0.72,0,1.224-0.504c2.088,0,4.176,0.072,6.336,0.144c0-0.216,0-0.432,0-0.72
		c-0.936-0.864-1.872-1.728-2.88-2.664c0-1.152,0-1.152,0.36-1.584c1.944,0,3.384,0.504,3.96,0.432c0-0.72,0-1.44,0-2.16
		c0.432,0,0.864-0.072,1.296-0.144c2.16,0.936,5.328,1.872,5.904,1.8c0-0.216,0-0.432,0-0.72c-1.224-0.72-2.448-1.512-3.744-2.304
		c0-0.216-0.072-0.504-0.144-0.792c0.432-0.504,0.432-0.504,1.368-0.648c1.44,0.648,2.88,1.296,4.32,1.944c0.36,0,0.792,0,1.224,0
		c0.072-0.072,0.144-0.216,0.216-0.36c-0.936-1.44-0.936-1.44-1.08-2.376c0.072-0.144,0.216-0.288,0.36-0.432
		c1.44,0,2.664,0.5041,4.536,0.72c0-0.2159,0.072-0.504,0.144-0.792c-0.576-0.432-1.152-0.936-1.728-1.44
		c-1.08-1.656-1.08-1.656-1.872-2.376c0.072-0.36,0.144-0.792,0.216-1.224c0.504,0,1.008-0.072,1.584-0.144
		c0.288,0.144,0.576,0.288,0.936,0.504c1.728,0,4.32,0.432,5.616,0.36c0-0.648,0-1.296,0-1.944
		c-1.872-3.096-1.872-3.096-3.816-5.472c-3.816-7.2-4.824-8.64-6.696-12.744c-7.704-14.904-7.704-14.904-10.08-20.376
		c-1.296-1.8-2.592-3.672-3.888-5.544c-0.144-0.504-0.288-1.08-0.432-1.656c-3.384-5.328-4.32-6.264-6.264-9.864
		c-1.224-1.656-2.52-3.312-3.816-5.04c-3.888-4.104-3.888-4.104-6.048-5.976c-3.816-4.608-5.04-5.5439-6.912-8.2079
		c-4.104-4.752-4.104-4.752-7.2-8.856c-1.008-2.16-1.008-2.16-1.944-5.76c0.216-3.6,0.504-4.104,0.72-6.264
		c0.504-0.432,0.504-0.432,0.936-2.16c1.008-0.864,2.088-1.728,3.168-2.592c0-0.216,0-0.432,0-0.72
		c-0.576-0.6479-1.152-1.296-1.728-1.944c-0.432-1.44-1.44-2.88-2.376-5.544c-0.072-0.72-0.144-1.44-0.216-2.16
		c0.432-2.88,0.432-2.88,0.936-4.032c0.648-0.936,1.296-1.872,1.944-2.88c0.936-1.008,1.944-2.088,2.952-3.168
		c1.728-1.08,3.528-2.16,5.328-3.24c0.072-1.296,0.072-1.296-0.864-5.616c-0.936-1.944-1.44-2.376-1.656-3.384
		c0.936-1.44,0.936-1.44,1.512-1.872c1.944-0.432,1.944-0.432,5.328-0.432c2.664,0.504,2.664,0.504,10.08,2.88
		c0.36,0.288,0.792,0.648,1.224,1.008c3.24,1.5121,6.48,3.024,9.792,4.536c7.128,0.864,14.256,1.728,21.384,2.664
		c2.448,0.144,4.896,0.288,7.416,0.432c4.608,1.008,8.424,1.44,17.784,3.384c1.584,0.144,3.168,0.288,4.824,0.504
		c1.008,0.288,2.016,0.576,3.096,0.936c1.008,0.072,2.016,0.144,3.096,0.216c4.392,1.296,8.784,2.592,13.248,3.888
		c1.224,0.144,2.52,0.288,3.816,0.432c2.592,0.792,5.256,1.584,7.92,2.448c0.936,0.144,1.872,0.288,2.88,0.432
		c1.872,0.936,3.816,1.872,5.76,2.88c1.368,0.288,2.736,0.648,4.104,1.008c0.36,0.216,0.72,0.432,1.152,0.72
		c0.288,0,0.648,0,1.008,0c0.216-0.36,0.504-0.72,0.792-1.08c1.944-5.256,1.944-5.256,2.88-6.984
		c0.936-9.576,0.936-11.952,1.944-19.656c0.288-1.656,0.576-3.312,0.936-5.04c1.44-17.064,1.44-17.064,1.944-19.44
		c2.88-26.424,2.88-26.424,3.816-32.616c0.504-11.304,0.504-11.304,1.44-21.6c0.36-0.288,0.72-0.648,1.08-1.008
		c0.504,0.288,0.504,0.288,0.864,1.008c-0.288,5.76-1.224,13.68-1.44,20.16c-4.608,40.032-5.04,46.7999-5.328,47.52
		c0,1.728,0,3.456,0,5.256c-0.936,4.104-0.936,4.104-1.872,11.52c0,2.664,0,2.664,0.36,3.456c0.216,0,0.504,0,0.792-0.072
		c1.944-5.04,3.888-8.928,4.824-11.5201c0.504-1.008,1.08-2.088,1.656-3.168c0-0.432,0-0.936-0.072-1.44
		c-1.224-0.792-2.448-1.584-3.744-2.376c-0.072-0.504-0.144-1.08-0.216-1.656c0.288-0.36,0.576-0.792,0.936-1.224
		c1.512-0.936,3.096-1.872,4.68-2.8081c2.448-0.72,4.896-1.44,7.344-2.2319c0-0.936,0-1.872,0-2.88
		c-0.144-0.144-0.288-0.288-0.504-0.504c0.216-2.592,0.504-3.312,0.936-7.416c0-2.088,0-4.176,0-6.264
		c0.504-2.592,1.44-12.96,2.448-18.72c0.36-0.36,0.36-0.36,1.296-0.36c0.072,0.2161,0.216,0.432,0.36,0.6481
		c-0.72,6.192-1.656,18.4319-1.656,21.312c-0.144,2.016-0.288,4.032-0.504,6.048c0.072,2.448,0.144,4.896,0.216,7.416
		c0.288,0.144,0.576,0.288,0.864,0.504c1.08-0.216,2.232-0.432,3.384-0.648c9.36,0,24.696-0.72,38.16-0.72
		c0.216,0.216,1.656,0.216,1.944,0.504c2.736,0.072,5.544,0.144,8.352,0.216c0.72-0.504,0.72-0.504,1.8-0.792
		c0.144-0.432,0.288-0.936,0.504-1.44c1.872-2.16,4.32-4.104,16.056-16.848c3.096-2.8799,3.096-2.8799,5.184-4.3199
		c-0.144-0.1441-0.288-0.288-0.504-0.5041c1.944-0.5759,1.944-0.5759,2.304-0.9359c0-0.36,0-0.72,0-1.152
		c3.816-4.608,7.632-8.64,13.68-15.84c0.936-6.2641,0.936-6.2641,1.872-18c0.144-0.216,0.288-0.432,0.504-0.72c0.36,0,0.72,0,1.08,0
		c0.144,1.4399-0.864,13.392-0.72,15.552c1.2961-0.936,17.136-16.992,21.2401-20.592c1.944-2.448,4.32-4.824,6.12-7.272
		c1.008-0.432,1.008-0.432,3.168-2.376c0.072-0.144,0.144-0.288,0.216-0.504c0.288-0.072,0.576-0.144,0.936-0.216
		c0-0.504,0.072-1.0801,0.144-1.656c0.504-0.504,1.08-1.08,1.656-1.656c0.432-0.144,0.864-0.288,1.296-0.504
		c0.072-0.432,0.216-0.936,0.36-1.44c0.288-0.288,0.576-0.576,0.864-0.864c0.432,0,0.936,0,1.44-0.072
		c0.072-0.432,0.144-0.936,0.216-1.44c0.288-0.432,0.648-0.936,1.008-1.4401c0.432,0.2161,0.432,0.2161,0.792,0
		c0.144-0.4319,0.288-0.936,0.504-1.44c0.504-0.288,1.08-0.6479,1.656-1.0079c0.144-0.288,0.288-0.576,0.432-0.8641
		c0.72-0.4319,1.44-0.864,2.16-1.296c-0.072-0.144-0.144-0.288-0.288-0.504c1.152-1.296,2.376-2.592,3.6-3.96
		c1.44-0.4321,1.44-0.4321,1.8-0.792c0.072-0.36,0.144-0.792,0.216-1.224c3.312-3.312,6.696-6.696,10.08-10.08
		c1.008-0.792,2.016-1.584,3.024-2.376c0.36,0,0.792-0.072,1.224-0.144c0,0.36,0,0.72,0.072,1.08
		c-0.936,1.0081-0.936,1.0081-3.6,2.88c-2.16,2.448-2.16,2.448-14.76,15.12c-1.368,1.08-2.736,2.232-4.176,3.384
		c-0.936,1.44-3.096,3.384-4.104,4.824c-0.504,0.432-1.08,0.936-1.656,1.44c0,0.216,0,0.432-0.0721,0.72
		c-0.216,0-0.432,0-0.72,0.072c-0.648,0.936-1.296,1.872-1.944,2.88c-2.664,2.52-3.096,3.384-5.256,5.256
		c-0.864,1.368-0.864,1.368-6.624,7.632c-2.304,1.872-4.32,4.032-6.768,5.976c-0.936,1.44-0.936,1.44-15.12,16.3439
		c-0.144,1.8721-0.288,3.816-0.432,5.76c-0.288,1.6561-0.648,3.312-1.008,5.04c-0.936,8.856-0.936,8.856-1.656,22.536
		c0.144,0.216,0.288,0.4319,0.504,0.72c0,1.9439-0.288,2.376-0.72,6.2639c0,4.032-0.288,4.536-0.144,8.928
		c5.76,1.944,5.76,1.944,6.48,2.448c0.36,0,0.792,0,1.224,0c5.256,1.872,5.256,1.872,12.744,5.256
		c0.504,0.432,1.08,0.936,1.656,1.44c0.216,0,0.432,0,0.72-0.072c0.0721,0.288,0.144,0.576,0.216,0.936
		c0.72,0.072,1.512,0.144,2.304,0.216c0,0.288,0.072,0.648,0.144,1.008c1.872-0.144,1.872-0.144,3.6,0.288
		c1.152,0.648,1.152,0.648,4.752,1.728c5.616,2.5201,11.232,5.04,16.848,7.632c0.288,0,0.576,0,0.936,0
		c1.944-2.376,1.944-2.376,3.816-5.256c1.368-1.368,2.736-2.736,4.104-4.104c2.5201-3.312,5.112-6.624,7.704-9.936
		c3.096-3.384,6.264-6.84,9.432-10.296c0.288-0.648,0.576-1.296,0.936-1.944c5.76-7.416,10.08-12.24,12.96-16.272
		c1.944-2.16,2.88-3.6,10.8-12.2401c1.008-0.936,2.088-1.872,3.168-2.8799c0.576-0.864,1.224-1.728,1.872-2.664
		c1.296-1.368,2.664-2.736,4.032-4.104c0.36-0.144,0.72-0.36,1.152-0.576c0.288-0.576,0.576-1.152,0.864-1.8
		c0.288-0.072,0.576-0.216,0.864-0.36c0.7921-1.8,0.7921-1.8,1.656-2.664c0.216-0.072,0.504-0.216,0.792-0.36
		c1.008-1.44,2.448-2.592,4.32-5.256c0.936-0.864,1.872-1.7281,2.808-2.664c0.288-0.072,0.576-0.216,0.936-0.36
		c1.944-2.8799,2.664-3.384,3.024-4.176c0.216-0.144,0.432-0.288,0.72-0.504c0.936-1.872,0.936-1.872,1.872-3.096
		c0.6479-0.432,1.296-0.936,1.944-1.44c0.432-0.7201,0.936-1.44,1.44-2.1601c0.4319-0.0719,0.936-0.1439,1.44-0.2159
		c0.072-0.4319,0.144-0.936,0.216-1.44c1.08-1.08,2.16-2.232,3.24-3.384c0.72-0.36,1.512-0.792,2.304-1.224
		c0.072-0.432,0.216-0.864,0.36-1.2961c0.288,0,0.648-0.072,1.008-0.144c0-0.432,0-0.9359,0-1.4399
		c0.288-0.072,0.576-0.216,0.936-0.36c3.6-3.816,5.832-5.616,6.336-6.552c4.176-4.3201,4.176-4.3201,5.904-5.7601
		c0.36,0,0.792-0.072,1.224-0.1439c0,0.504,0,1.008,0.072,1.5839c-0.504,0.2881-1.008,0.576-1.512,0.936
		c-0.648,0.7921-1.296,1.6561-1.944,2.5201c-0.864,0.576-1.728,1.224-2.664,1.872c-1.872,2.16-10.08,10.08-11.952,12.384
		c-2.16,2.0161-4.32,4.68-5.544,5.616c-2.088,2.448-4.176,4.968-6.264,7.4879c-0.432,0.2881-0.936,0.576-1.44,0.936
		c-2.664,3.0961-5.4,6.192-8.136,9.36c-0.648,0.504-1.296,1.08-1.944,1.656c-3.816,4.752-4.464,5.184-9.216,10.944
		c-7.704,8.208-7.704,8.208-11.52,12.744c-3.888,5.256-7.704,9.576-19.224,24.264c-1.944,2.16-3.96,4.3201-5.976,6.48
		c-1.944,2.8799-4.104,5.256-8.2079,10.8c-0.72,0.72-1.44,1.44-2.16,2.16c-1.872,2.88-2.88,3.8159-4.32,5.976
		c0,0.216,0,0.432,0,0.72c1.296,0.72,2.664,1.44,4.032,2.2321c0.432,0.4319,0.936,0.9359,1.44,1.44
		c0.144,0.648,0.36,1.368,0.576,2.088c-0.432,0.504-0.936,1.08-1.44,1.656c-1.008,0.288-2.016,0.576-3.024,0.864
		c-7.632,0.936-7.632,0.936-9.792,1.44c-0.36,0.504-0.72,1.008-1.152,1.584c-4.752,15.12-5.256,17.712-5.76,18.432
		c-0.432,1.944-0.72,2.16-1.152,5.04c-0.288,0.72-0.648,1.44-1.008,2.16c-0.216,1.728-0.432,1.944-0.432,3.888
		c0.576,0.864,1.224,1.728,1.872,2.592c1.296,2.736,2.592,5.472,3.888,8.208c2.232,6.12,4.464,12.24,6.696,18.432
		c1.44,5.544,1.44,5.544,2.016,6.48c1.08,0.576,2.232,1.152,3.384,1.8c2.16,1.584,4.32,3.168,6.48,4.824
		c0.288,1.152,0.576,2.304,0.864,3.456c0.216,0.288,0.432,0.648,0.72,1.008c0,0.72,0,1.44,0,2.1599
		c-0.504,0.72-0.504,0.72-1.08,1.008c-1.368,0.144-2.736,0.288-4.104,0.504c-5.976-0.216-5.976-0.216-9.072-0.072
		c1.728,5.472,1.728,5.472,3.168,8.856c0.288,0.216,0.288,0.216,0.72,3.816c1.944,4.608,1.944,4.608,2.16,5.76
		c0.792,1.296,1.584,2.592,2.448,3.888c0.432,1.44,1.44,2.88,1.872,4.536c0.288,0.504,0.648,1.08,1.008,1.656
		c1.872,5.328,1.872,5.328,5.256,17.568c0.36,0.432,0.72,0.936,1.08,1.44c1.08,0.576,2.232,1.152,3.384,1.728
		c3.672,2.52,7.344,5.112,11.016,7.704c6.264,3.816,6.264,3.816,8.928,5.76c2.16,0.936,2.592,1.44,13.176,7.2
		c1.44,0.504,2.664,1.44,11.52,6.264c4.4641,3.024,8.928,6.12,13.4641,9.216c0.288,0.72,0.288,0.72,0.288,1.728
		c-0.576,0.576-1.224,1.224-1.872,1.872c-14.904,34.848-14.904,34.848-15.408,35.28c0,0.288,0,0.648-0.072,1.008
		c1.584-0.144,3.168-0.288,4.824-0.432c2.592,1.368,5.256,2.736,7.92,4.104c1.944,0.648,3.96,1.296,5.976,1.944
		c1.08,0.864,2.232,1.728,3.384,2.592c1.44,0.36,1.656,0.72,4.32,1.8c0.144,0.216,0.288,0.432,0.432,0.648
		c4.104,1.44,4.608,1.872,6.48,2.376c0.36,0.36,0.36,0.36,0.576,1.584c1.872,0.792,2.304,1.296,3.528,1.656
		c-0.072,0.288-0.144,0.576-0.216,0.864c-0.432,0.072-0.936,0.144-1.44,0.216c-1.44-0.72-3.168-0.936-3.384-1.224
		c-3.6-1.44-3.6-1.44-6.984-2.376c-0.36-0.288-0.72-0.576-1.152-0.936c-0.576,0-1.152,0-1.728,0
		c-5.256-2.16-6.696-3.168-9.792-4.608c-1.656-0.576-3.312-1.224-5.04-1.872c-0.144-0.576-0.288-1.152-0.432-1.8
		c-1.728-0.72-3.528-1.512-5.328-2.304c-0.72,0-1.4399,0-2.16,0c-0.36,0.144-0.792,0.288-1.224,0.504
		c-1.224,0.072-2.52,0.144-3.816,0.216c-0.432,0.648-0.432,0.648-0.648,2.52c0.504,1.008,0.504,1.008,0.504,2.16
		c-0.288,0.72-0.648,1.44-1.008,2.16c-1.296,1.08-2.664,2.232-4.032,3.384c-0.288,0.72-0.648,1.44-1.008,2.16
		c-1.008,1.152-2.088,2.304-3.168,3.456c-0.72,0-1.44,0-2.16,0c-0.144,0.072-0.288,0.216-0.432,0.36c0,0.648,0,1.296-0.072,1.944
		c1.44,0,2.88,0,4.32,0.072c2.088,0.432,4.176,0.936,6.264,1.44c1.872,1.008,3.312,1.224,5.328,2.304
		c-0.432,1.44-0.432,1.44-0.36,2.16c1.656,0.648,3.384,1.296,5.112,2.016c0.216,0.432,0.432,0.864,0.648,1.368
		c0.792,0.36,0.792,0.36,9.144,2.232c0.216,0.288,0.4319,0.648,0.72,1.008c0.864,0.216,1.728,0.504,2.664,0.792
		c0.144,0.288,0.288,0.648,0.432,1.008c0.288,0.144,0.648,0.288,1.008,0.504c0.432,0,0.936-0.072,1.44-0.144
		c0.792,0.288,1.656,0.576,2.52,0.864c0.072,0.216,0.216,0.432,0.36,0.72c0.648,0.288,1.296,0.648,1.944,1.008
		c2.232,0.288,4.4641,0.648,6.696,1.008c1.368,0.504,2.736,1.008,4.104,1.512c-0.936,0-1.872,0.072-2.88,0.144
		c-4.824-1.44-6.984-1.656-7.2-1.944c-1.728-0.216-2.664-0.72-6.4799-1.656c-0.792-0.432-1.584-0.936-2.448-1.44
		c-1.656-0.216-3.312-0.432-5.04-0.72c-0.504-0.36-1.08-0.792-1.656-1.224c-1.872-0.144-3.816-0.36-5.76-0.576
		c-0.072-0.576-0.144-1.224-0.216-1.872c-3.384-0.432-3.384-0.432-4.032-0.72c0-0.72,0-1.44-0.072-2.232
		c-2.376-0.576-2.376-0.576-2.88-1.08c-1.224-0.144-2.52-0.288-3.816-0.432c-0.144-0.864-0.144-0.864,0.216-1.44
		c0.648,0,1.296-0.072,1.944-0.144c-0.144-0.288-0.288-0.576-0.504-0.864c-8.64-0.936-8.64-0.936-14.184-1.872
		c-2.16-1.008-4.032-1.44-4.536-1.944c-0.72,0-0.72,0-1.656,0.72c-2.16-0.216-3.168-0.72-6.48-1.224c-0.936,0-1.872,0-2.8799,0
		c-1.944-0.936-1.944-0.936-3.168-1.872c-1.2961-0.144-2.664-0.288-4.032-0.504c-1.152-1.08-1.152-1.08-1.944-2.376
		c-0.72-0.288-0.72-0.288-2.376-0.288c-0.216,0.144-0.432,0.288-0.72,0.504c-1.512,0-3.024,0.072-4.608,0.144
		c0,0.36-0.072,0.792-0.144,1.224c0.36,1.08,0.792,2.16,1.224,3.312c-0.216,3.168-0.216,3.168-0.072,4.68
		c1.008,0.288,2.016,0.576,3.096,0.936c0.36,0.288,0.792,0.648,1.224,1.008c1.512,0.144,3.024,0.288,4.536,0.432
		c1.224,1.224,1.224,1.224,2.664,2.16c0.792,0,1.584,0,2.376,0c0.72,0.504,0.72,0.504,5.256,1.584
		c0.072,0.36,0.216,0.792,0.36,1.224c1.8,1.152,1.8,1.152,2.304,1.8c1.512,0.36,3.024,0.72,4.536,1.152
		c0.864,1.584,0.864,1.584,1.44,2.088c1.44-0.144,1.44-0.144,7.2,0.72c0,0.432,0.072,0.936,0.144,1.44
		c1.944,0.504,3.888,1.08,5.904,1.656c0.072,0.288,0.144,0.648,0.216,1.008c1.152,0.216,2.376,0.504,3.6,0.792
		c3.816,0.216,4.104,0,5.04,0c0.144,0.144,0.288,0.36,0.504,0.576c-0.144,0.216-0.288,0.432-0.504,0.648c-0.504,0-1.08,0-1.656,0
		c-0.216-0.144-0.432-0.288-0.72-0.504c-1.44,0.216-1.44,0.216-6.768-0.216c-0.432-0.288-0.432-0.288-3.312-0.504
		c-0.792-0.576-0.792-0.576-1.224-1.656c-3.816-1.008-3.816-1.008-8.424-1.8c0-0.288-0.0721-0.576-0.144-0.936
		c-0.216-0.144-0.504-0.288-0.792-0.504c-1.368-0.216-2.736-0.432-4.104-0.648c-1.224-1.728-1.224-1.728-1.872-2.16
		c-2.016-0.072-4.104-0.144-6.192-0.288c0.36-1.728,0.36-1.728,0.144-2.304c-5.04-1.008-5.04-1.008-5.4-1.296
		c-0.072-0.36-0.144-0.792-0.216-1.224c-0.432-0.216-0.864-0.432-1.296-0.648c-1.44-0.072-2.88-0.144-4.32-0.216
		c-0.72-0.72-0.72-0.72-2.16-1.224c-1.296-0.216-2.592-0.432-3.888-0.72c-0.144-0.216-0.288-0.504-0.432-0.792
		c-0.576-0.216-1.152-0.432-1.728-0.648c-1.08-0.792-2.16-1.584-3.312-2.376c-0.936-0.144-1.872-0.288-2.88-0.504
		c-1.008-0.936-2.88-1.872-5.328-3.6c-1.296,0-2.664,0-4.032,0c-0.36,0.144-0.792,0.288-1.224,0.504c-0.648,0-1.296,0-1.944,0
		c-0.432,0.288-0.936,0.576-1.44,0.936c-2.304,0.144-4.608,0.288-6.984,0.432c0,0.72,0.072,1.44,0.144,2.16
		c-0.36,0.288-0.792,0.576-1.224,0.936c-0.864,0.072-1.8,0.216-2.736,0.36c-2.88,1.872-2.88,1.872-4.32,2.52
		c-0.072,0.216-0.144,0.432-0.216,0.72c0.936,0.216,1.872,0.432,2.88,0.72c0.072,0.216,0.144,0.432,0.216,0.72
		c0.144-0.216,0.288-0.432,0.504-0.72c0.216,0.288,0.432,0.576,0.72,0.936c0.7921,0.216,1.584,0.432,2.376,0.72
		c0.504,0.576,1.728,0.864,3.168,2.016c1.152,0.288,1.872,1.008,18.72,8.64c3.456,1.44,6.984,2.88,10.512,4.32
		c0.432,0.288,0.936,0.648,1.44,1.008c2.448,0.936,4.968,1.872,7.488,2.88c0.144,0.216,0.288,0.432,0.432,0.72
		c3.168,0.936,7.7039,2.88,9.864,3.312c0.576,0.432,0.576,0.432,0.936,1.44c1.224,0.504,1.728,1.008,5.76,2.304
		c0,0.648,0,1.296,0,1.944c3.168,1.8,3.168,1.8,3.384,2.16C347.85,417.384,347.85,417.384,347.346,417.384L347.346,417.384z
		 M274.122,370.296c0-1.008-0.0721-2.088-0.144-3.168c0.288-3.528,0.648-7.056,1.008-10.584
		c-0.504-12.744-0.504-12.744-0.288-13.896c-0.432-1.656-0.864-3.312-1.296-5.04c5.328-0.936,10.728-1.872,16.128-2.808
		c4.32-0.216,10.296-1.224,18.432-2.16c3.312-0.648,6.696-1.296,10.08-1.944c2.808-0.288,5.616-0.576,8.424-0.936
		c0.36-0.144,0.792-0.288,1.224-0.504c13.392-1.872,15.552-2.376,21.096-2.88c9.144-1.872,9.144-1.872,34.776-6.048
		c-0.36,1.656-0.864,2.592-1.8,5.976c-0.432,0.864-0.936,1.728-1.44,2.664c-0.216,1.44-0.216,1.44-1.224,3.312
		c-3.816,9.36-3.816,9.36-8.64,19.944c-0.36,0.36-0.72,0.792-1.08,1.224c-2.376,0.792-10.296,2.232-24.696,6.048
		c-13.896,2.88-13.896,2.88-17.712,3.888c-12.24,1.872-12.24,1.872-18,2.376c-0.792,0.432-1.584,0.936-2.448,1.44
		c-1.728,0.072-3.456,0.144-5.256,0.216c-7.416,1.44-7.416,1.44-8.856,1.944c-0.648,0-1.296,0-1.944,0
		c-0.504,0.216-1.08,0.432-1.656,0.72C283.914,370.152,279.0179,370.224,274.122,370.296L274.122,370.296z M270.81,369.864
		c-1.368-0.288-2.736-0.648-4.104-1.008c-1.584-0.576-3.168-1.224-4.824-1.872c-7.632-3.888-7.632-3.888-14.112-7.704
		c-0.936-0.288-1.872-0.576-2.88-0.936c-7.2-3.888-9.648-4.824-12.672-6.624c-0.36-0.432-0.72-0.936-1.152-1.44
		c-1.08-0.576-2.232-1.224-3.384-1.8719c-0.072-0.36-0.144-0.792-0.216-1.224c-0.288-0.432-0.648-0.936-1.008-1.44
		c-0.432-0.216-0.864-0.432-1.296-0.648c-0.504,0-1.08,0-1.656,0c-0.72,0.504-0.72,0.504-1.656,0.504
		c-0.288-0.288-0.648-0.576-1.008-0.936c-0.504-0.144-1.08-0.288-1.656-0.504c-1.008-0.648-2.016-1.296-3.096-1.944
		c-0.792-0.288-1.584-0.576-2.448-0.936c-0.936-1.224-1.872-1.8-4.032-4.104c-0.864-0.648-1.728-1.296-2.664-2.016
		c-0.432-0.576-0.936-1.152-1.44-1.8c-0.792-0.36-1.584-0.72-2.376-1.08c-2.664-2.016-3.384-2.304-4.104-3.024
		c-1.728-0.576-3.456-1.224-5.256-1.872c-0.4319-0.288-0.936-0.648-1.44-1.008c-2.304-2.448-4.608-4.896-6.984-7.416
		c-0.576-1.152-1.152-2.304-1.8-3.456c-1.944-2.376-3.168-3.384-4.32-4.824c-1.8-1.152-1.8-1.152-2.736-1.44
		c0-0.216-0.072-0.432-0.144-0.72c-4.896-3.024-4.896-3.024-7.776-5.184c-0.648-0.216-1.296-0.432-1.944-0.72
		c-0.144-0.216-0.288-0.432-0.504-0.72c-3.816-1.152-3.816-1.152-4.536-1.008c-0.072-0.288-0.144-0.648-0.288-1.008
		c-2.376-0.936-2.592-1.296-3.816-1.8c-1.296-0.144-2.664-0.288-4.032-0.504c-0.504-0.432-0.504-0.432-1.224-0.432
		c-0.144,0.072-0.288,0.216-0.504,0.36c-0.072-0.2881-0.144-0.576-0.216-0.936c-1.008-0.432-2.016-0.864-3.096-1.368
		c-5.76-0.504-6.768-0.936-8.424-0.936c-1.44-0.504-1.44-0.504-1.944-1.008c-1.008-0.216-2.016-0.432-3.096-0.72
		c-1.44-0.072-2.88-0.144-4.32-0.216c-2.52-0.648-5.112-1.296-7.704-1.944c-1.872-0.216-3.816-0.432-5.76-0.72
		c-1.008-0.288-2.016-0.576-3.096-0.936c-1.512-0.936-3.024-1.872-4.536-2.88c-2.448-0.936-2.448-0.936-7.704-3.816
		c-1.224-1.08-1.224-1.08-2.376-2.664c-7.488-3.816-7.488-3.816-13.968-7.704c-1.656-1.224-3.312-2.52-5.04-3.816
		c-8.64-7.92-8.64-7.92-14.4-13.68c-0.288-0.072-0.576-0.216-0.864-0.36c0-0.288,0-0.576-0.072-0.936
		c-0.648-0.216-1.296-0.432-1.944-0.648c-0.72-0.936-1.44-1.944-2.16-2.952c-0.432-0.936-0.864-1.872-1.296-2.88
		c-0.288-0.216-0.576-0.432-0.864-0.72c-0.144-0.792-0.36-1.584-0.576-2.376c-1.944-3.384-7.704-15.408-7.92-16.344
		c-1.584-2.88-3.168-5.76-4.824-8.64c-0.288-0.288-0.576-0.576-0.936-0.936c-0.648-1.296-1.296-2.592-1.944-3.888
		c-2.376-3.744-4.752-7.488-7.2-11.232c-0.072-0.432-0.216-0.936-0.36-1.44c1.728,0.792,1.728,0.792,15.624,10.368
		c0.792,0.648,1.584,1.296,2.376,1.944c0.648,0.288,1.296,0.576,1.944,0.9359c0.288,0.2881,0.576,0.648,0.936,1.0081
		c3.384,1.872,6.264,3.816,12.024,6.696c8.424,5.76,14.904,9.576,17.496,11.52c6.768,3.816,7.92,4.824,10.08,5.76
		c3.672,2.52,7.344,5.112,11.088,7.704c3.816,1.872,3.816,1.872,23.472,13.392c7.992,5.184,15.984,10.368,24.048,15.624
		c2.16,1.08,4.32,2.232,6.48,3.384c3.096,1.872,6.192,3.816,9.36,5.76c0.432,0.144,0.936,0.288,1.44,0.432
		c1.08,0.792,2.16,1.584,3.312,2.448c0.432,0.144,0.936,0.288,1.44,0.4319c0.936,0.648,1.872,1.296,2.88,1.944
		c22.608,11.52,25.92,13.464,32.184,16.344c1.656,0.576,3.312,1.224,5.04,1.872c2.448,1.296,4.896,2.592,7.416,3.888
		c1.512,0.576,3.024,1.224,4.608,1.872c5.112,2.592,10.224,5.256,15.336,7.92c1.008,0.72,2.016,1.44,3.096,2.16
		c5.76,2.88,12.24,6.768,13.68,7.2c2.016,1.296,4.032,2.592,6.0479,3.888c0.936,0.288,1.872,0.576,2.88,0.936
		c0.504,0.432,1.08,0.936,1.656,1.44c0.432,1.656,0.864,3.312,1.296,4.968c0,1.656,0,1.656,0.936,9.576
		c-0.216,4.824-0.72,7.2-1.152,15.336c-0.144,0.72-0.288,1.44-0.504,2.16C271.386,369.72,271.098,369.792,270.81,369.864
		L270.81,369.864z M387.666,364.104c-0.648-0.36-1.2961-0.72-1.944-1.08c-0.072-0.288-0.144-0.576-0.216-0.936
		c0.864,0.072,1.728,0.144,2.664,0.288c0.792,0.36,1.584,0.792,2.376,1.224c-0.144,0.144-0.288,0.288-0.504,0.504
		C389.25,364.104,388.4579,364.104,387.666,364.104L387.666,364.104z M410.7059,346.32c-0.72-0.288-1.44-0.576-2.16-0.936
		c-5.76-3.888-6.984-5.04-9.864-6.984c-9.072-3.816-9.072-3.816-13.824-6.12c0-0.36,0-0.72,0-1.1519
		c0.288-0.216,0.576-0.432,0.864-0.72c1.8,0.72,3.672,1.44,5.5439,2.232c0.432,0.36,0.936,0.792,1.44,1.224
		c2.808,1.224,5.616,2.52,8.424,3.816c1.872,1.08,3.816,2.232,5.76,3.384c0.072,0.288,0.144,0.576,0.288,0.864
		c1.152,0.576,1.8719,1.368,4.752,3.312c0.144,0.288,0.288,0.576,0.432,0.936C411.858,346.176,411.282,346.248,410.7059,346.32
		L410.7059,346.32z M271.2419,334.8c-1.008-0.288-2.016-0.576-3.096-0.936c-7.416-3.888-12.24-6.768-14.4-7.704
		c-1.44-0.936-5.76-2.88-7.416-4.104c-1.008-0.4319-1.008-0.4319-4.608-3.096c-2.592-0.936-4.32-1.944-11.2321-4.896
		c-1.44-1.08-1.44-1.08-9.6479-5.184c-2.376-0.936-6.192-3.096-11.0161-5.04c-2.088-1.224-4.176-2.52-6.2639-3.816
		c-1.656-0.648-3.312-1.296-5.04-1.944c-3.312-1.944-7.2-3.816-15.552-8.64c-0.648-0.144-1.296-0.288-1.944-0.504
		c-4.824-2.88-6.984-3.816-15.336-8.856c-0.288,0.072-0.648,0.216-1.008,0.36c-0.072-0.288-0.216-0.576-0.36-0.936
		c-1.368-0.936-2.736-1.872-4.176-2.808c-0.648-0.144-1.296-0.288-1.944-0.432c-1.656-1.224-1.656-1.224-5.76-3.384
		c-4.752-3.816-10.512-7.704-11.52-8.64c-1.008-0.432-2.016-0.936-3.096-1.44c-0.936-0.936-0.936-0.936-7.2-4.824
		c-4.464-2.52-8.928-5.04-13.464-7.632c-1.944-1.2961-3.96-2.592-5.976-3.888c-1.224-0.576-2.52-1.224-3.816-1.872
		c-8.424-5.328-10.08-6.768-11.304-7.2c-4.824-2.88-5.256-3.384-7.2-4.32c0.216-0.36,0.216-0.36,1.44-1.0081
		c0.072-1.008,0.072-1.008-0.36-2.016c-1.296-1.44-2.592-2.88-3.888-4.32c-2.232-2.016-4.464-4.104-6.696-6.192
		c-2.016-2.664-4.32-4.824-5.256-6.264c-2.16-1.944-5.4-5.7599-6.768-6.696c-0.936-1.224-2.16-2.16-7.056-8.208
		c-0.504-0.288-1.08-0.576-1.656-0.864c-0.936-1.008-1.872-2.016-2.88-3.096c-1.224-0.504-2.88-1.944-3.96-2.2321
		c-0.504-1.728-0.504-1.728-1.08-2.448c-1.008-0.576-2.016-1.224-3.024-1.872c-0.288-0.36-0.576-0.7921-0.936-1.224
		c-0.072-1.728-0.216-3.4561-0.36-5.256c0.36,0.072,0.792,0.144,1.224,0.288c1.224,1.368,2.52,2.736,3.816,4.104
		c0.144,0.432,0.288,0.864,0.432,1.368c2.808,2.592,3.744,3.816,4.968,4.752c0.936,1.224,0.936,1.224,7.632,7.488
		c2.664,1.872,5.04,4.032,10.08,7.92c3.456,2.304,6.984,4.608,10.512,6.912c0.144,0.288,0.288,0.576,0.432,0.864
		c5.544,3.816,7.488,4.752,10.08,6.696c1.296,0.648,2.592,1.296,3.888,1.944c1.08,0.792,2.16,1.584,3.312,2.376
		c4.608,2.376,5.76,3.384,10.368,5.76c0.432,0.504,1.44,0.9359,2.592,1.944c0.72,0.288,1.44,0.576,2.16,0.936
		c0.792,0.648,1.584,1.296,2.448,1.944c3.816,1.872,5.04,2.88,6.912,3.816c5.544,4.104,8.64,5.976,12.24,8.856
		c3.384,1.944,5.76,3.888,7.704,4.824c0.792,0.72,1.584,1.44,2.376,2.16c1.008,0.432,2.088,0.936,3.168,1.44
		c7.416,5.04,8.856,6.264,18,12.24c1.008,0.864,2.016,1.728,3.096,2.664c1.584,0.576,3.168,1.224,4.824,1.872
		c1.872,1.008,3.816,2.088,5.76,3.168c0.432,0.72,0.432,0.72,5.472,4.536c9.648,5.76,9.648,5.76,12.24,7.704
		c1.656,1.512,3.312,3.024,5.04,4.536c1.08,0.648,2.232,1.296,3.384,1.944c1.224,1.152,2.5201,2.376,3.816,3.6
		c3.888,1.872,3.888,1.872,6.768,3.816c0.576,0,1.224,0,1.872,0c3.888,1.944,3.888,1.944,16.344,9.576
		c2.808,1.296,5.616,2.592,8.424,3.888c2.88,1.872,2.88,1.872,10.8,5.76c2.592,0.936,9.792,4.752,12.24,5.76
		c0.864,0.432,1.728,0.936,2.592,1.44c7.344-1.152,14.688-2.376,22.104-3.6c2.88-0.648,5.7599-1.296,8.64-1.944
		c10.08-1.44,11.5201-1.944,20.16-2.88c4.824-0.216,4.824-0.216,5.04,0c3.096-0.504,4.824-0.504,10.08-1.224
		c1.224-0.432,14.616-2.592,15.12-2.88c1.368-0.144,2.736-0.288,4.104-0.432c16.056-3.384,16.056-3.384,16.416-3.744
		c0-0.72,0-0.72-0.648-1.44c-19.368-11.376-19.368-11.376-27.072-15.48c-2.664-1.944-3.816-2.376-4.824-3.384
		c-3.096-1.872-3.096-1.872-7.416-5.04c-4.536-3.816-4.536-3.816-5.976-5.472c-0.864-0.432-1.728-0.936-2.664-1.44
		c-0.072-0.288-0.144-0.576-0.216-0.864c0.792,0.288,1.584,0.576,2.376,0.864c8.64,5.76,8.64,5.76,25.416,16.056
		c0.36,0,0.792,0,1.224-0.072c0,0.216,0,0.432,0.072,0.72c6.408,3.672,6.408,3.672,10.728,5.616c4.032,2.52,8.136,5.04,12.24,7.632
		c2.304,1.728,4.68,3.456,7.056,5.184c0,0.216,0,0.432,0,0.72c-0.504,0.288-1.008,0.576-1.512,0.864
		c-3.6,0.936-3.6,0.936-20.448,3.816c-2.664,0.288-5.4,0.576-8.136,0.936c-2.232,0.576-4.464,1.152-6.696,1.7281
		c-10.368,1.152-12.024,1.656-18.72,2.592c-1.944,0.504-3.168,0.504-3.384,0.72c-3.024,0.288-6.048,0.648-9.144,1.008
		c-14.112,2.376-14.112,2.376-15.84,2.376c-7.2,0.936-7.2,0.936-13.896,1.44c-7.704,1.44-10.584,1.656-11.52,1.944
		C274.4819,334.656,272.8979,334.7281,271.2419,334.8L271.2419,334.8z M273.69,328.104c-2.16-1.008-2.16-1.008-3.888-1.44
		c-2.52-1.296-5.04-2.592-7.632-3.888c-1.656-0.576-3.312-1.1519-5.04-1.728c0.072-0.288,0.144-0.576,0.216-0.864
		c2.88-0.504,2.88-0.504,8.136-0.72c0.288-0.144,0.648-0.288,1.008-0.504c3.6-0.288,7.2-0.576,10.8-0.936
		c2.16,0.072,4.32,0.144,6.4799,0.216c13.1761-2.16,14.6161-2.664,27.0721-4.536c1.008,0.072,2.088,0.144,3.168,0.216
		c3.8159,0.936,3.8159,0.936,6.192,1.944c1.728,1.224,3.528,2.52,5.328,3.816c-1.728,0.504-11.304,1.944-12.528,2.376
		c-2.5201,0.2881-5.04,0.648-7.632,1.0081c-6.48,1.44-10.584,1.8719-14.904,2.88c-3.096,0.36-6.192,0.72-9.36,1.152
		c-1.08,0.288-2.232,0.648-3.384,1.008C276.4259,328.104,275.058,328.104,273.69,328.104L273.69,328.104z M331.29,319.68
		c-6.768-3.816-6.768-3.816-12.744-7.704c-0.504-0.432-1.08-0.936-1.656-1.44c-0.216,0-0.432,0-0.72-0.072
		c0-0.216-0.072-0.432-0.144-0.72c-1.512-1.224-3.096-2.52-4.68-3.816c-7.2-4.032-7.2-4.032-8.424-4.968
		c-0.144-2.52,0.144-3.672,0.576-9.72c0.2159-1.008,0.4319-2.016,0.72-3.096c0-2.232,0-4.464,0-6.696
		c0.144-0.432,0.288-0.936,0.504-1.44c-0.216-1.08-0.432-2.2321-0.72-3.384c-1.224-1.224-2.664-2.16-4.32-4.104
		c0.072-0.288,0.216-0.576,0.36-0.864c0.936-0.072,1.872-0.144,2.88-0.216c2.448,0.936,5.76,2.88,8.208,3.816
		c0.288,0.288,0.576,0.648,0.936,1.008c1.944,0.936,2.376,1.44,4.824,2.376c2.88,1.584,5.76,3.168,8.64,4.824
		c0.288,0.36,0.576,0.72,0.936,1.152c0.72,0.288,1.44,0.648,2.16,1.008c1.584,1.224,3.168,2.52,4.824,3.816
		c6.48,4.176,11.952,8.136,15.336,10.08c2.16,0.936,2.16,0.936,3.096,1.08c0.072,0.216,0.144,0.432,0.216,0.72
		c1.512,0.864,1.512,0.864,2.952,1.296c1.152,1.008,1.152,1.008,15.1201,9.36c0,0.288,0,0.576,0.072,0.864
		c-2.952,0.864-6.12,1.296-9,2.304c-11.952,1.872-11.952,1.872-23.256,4.032C337.77,319.464,337.77,319.464,331.29,319.68
		L331.29,319.68z M252.3059,318.744c-0.936-0.72-1.872-1.44-2.88-2.16c-8.136-3.888-8.136-3.888-15.12-7.704
		c-4.824-3.24-9.72-6.552-14.616-9.864c-0.432-0.792-1.368-6.336-2.304-10.152c-0.072-0.936-0.216-1.872-0.36-2.88
		c5.76-0.36,12.456-0.36,17.496-0.864c2.736-0.648,5.472-1.296,8.208-1.944c2.376-0.216,4.752-0.432,7.2-0.72
		c9.0721-0.216,9.0721-0.216,18.936-0.936c1.224-0.504,1.224-0.504,3.816-0.72c0,0.936,0.072,1.872,0.144,2.808
		c-0.504,3.312-0.504,3.312-1.944,20.376c0.36,0.288,0.72,0.576,1.08,0.936c4.176-0.216,8.352-0.432,12.528-0.72
		c-0.4319,8.928-0.4319,8.928-0.144,9.144c0,1.224,0,1.224-0.36,2.232c-6.2639,0.72-6.2639,0.72-13.68,1.008
		c-2.088,0.36-4.176,0.72-6.264,1.152c-5.04,0-5.04,0-8.856,0.504c-0.288,0.144-0.576,0.288-0.936,0.504
		C253.602,318.744,252.9539,318.744,252.3059,318.744L252.3059,318.744z M286.6499,315.36c-0.432-3.24-0.432-3.24-0.288-5.616
		c0.216,0,0.432,0,0.72,0c0.864,3.816,0.864,3.816,0.864,5.256C287.3699,315.36,287.3699,315.36,286.6499,315.36L286.6499,315.36z
		 M290.97,314.856c-0.288-0.072-0.288-0.072-1.584-6.336c-0.648-1.584-1.296-3.168-1.944-4.752
		c-0.0721-0.792-0.144-1.584-0.216-2.448c0.576-0.36,0.576-0.36,5.4-1.296c1.584-0.072,3.168-0.144,4.824-0.288
		c0.72,0.144,1.44,0.288,2.16,0.504c0.792,0.792,1.584,1.584,2.376,2.376c2.88,1.944,4.824,2.88,5.256,3.384
		c1.152,0.648,2.376,1.296,3.6,1.944c1.08,1.008,2.232,2.016,3.384,3.096c-0.216,0.216-3.096,0.216-4.536,0.72
		C303.4259,312.696,293.562,314.64,290.97,314.856L290.97,314.856z M274.842,302.4c-0.504-0.144-1.008-0.36-1.584-0.576
		c0.216-3.816,0.432-7.632,0.72-11.52c1.368-0.144,1.368-0.144,2.808,0.072c0.216,0.288,0.216,0.288,1.944,0.72
		c1.152,0.792,2.376,1.584,3.6,2.448c0.576,1.08,0.576,1.08,2.016,6.12c0,0.432,0,0.936,0,1.44
		c-0.288,0.144-0.576,0.288-0.864,0.504C280.602,301.824,277.722,302.112,274.842,302.4L274.842,302.4z M286.1459,298.584
		c-4.248-15.48-4.248-15.48-5.184-20.304c0-1.152,0-2.376-0.072-3.6c1.008,0,2.016-0.072,3.096-0.144
		c9.576-1.872,10.08-2.16,11.304-2.16c1.08,0.648,2.16,1.296,3.312,1.944c3.384,3.024,3.384,3.024,3.888,3.96
		c0,0.288,0,0.648,0.0721,1.008c-0.144,0.216-0.288,0.432-0.504,0.72c-0.072,3.672-0.144,7.344-0.216,11.016
		c-0.504,2.376-0.504,5.04-0.936,6.48c-1.08,0.216-2.16,0.504-3.24,0.792c-1.224-0.144-2.5201-0.288-3.816-0.432
		c-1.44,0.216-2.88,0.432-4.32,0.72C288.45,298.584,287.2979,298.584,286.1459,298.584L286.1459,298.584z M215.0819,297.36
		c-0.936-0.432-1.872-0.936-2.88-1.44c-2.376-1.944-5.472-3.816-10.08-7.704c-1.8-1.224-3.6-2.52-5.472-3.816
		c-1.296-0.648-2.592-1.296-3.888-1.944c-2.52-1.872-5.04-3.816-7.632-5.76c-0.36,0-0.792,0.072-1.224,0.144
		c0-0.36-0.072-0.72-0.144-1.152c-3.672-1.872-6.12-2.808-6.84-3.384c-1.008-0.36-2.016-0.72-3.096-1.08
		c-0.72-0.72-1.44-1.008-4.32-3.888c-0.432-0.144-0.936-0.288-1.44-0.432c-2.664-2.16-2.664-2.16-6.696-4.608
		c-0.288,0-0.648,0-1.008-0.072c-0.072-0.216-0.144-0.432-0.216-0.72c-1.728-0.936-1.728-0.936-7.2-5.04
		c-0.72-0.288-1.44-0.576-2.16-0.864c-5.472-3.96-11.016-7.992-16.56-12.024c-0.936-0.504-1.872-1.008-2.88-1.512
		c-2.376-2.088-2.376-2.088-6.48-4.968c-1.368-0.576-2.736-1.224-4.104-1.872c-0.792-0.648-1.584-1.296-2.376-1.944
		c-13.176-7.704-19.224-11.52-23.04-13.464c-1.944-1.224-3.96-2.52-5.976-3.816c-15.12-11.016-15.12-11.016-19.944-14.904
		c-0.288-0.36-0.576-0.72-0.936-1.152c-0.936-0.648-1.872-1.296-2.88-1.944c-0.288-0.432-0.648-0.936-1.008-1.44
		c-1.44-0.936-1.44-0.936-2.376-2.16c-2.592-2.592-5.184-5.184-7.848-7.776c-0.144-0.648-0.288-1.2961-0.432-1.944
		c-0.792-0.576-1.656-1.152-2.52-1.8c-0.648-0.792-1.296-1.656-1.944-2.52c-2.52-2.16-2.52-2.16-3.024-2.88c0-1.008,0-2.016,0-3.096
		c0.144-0.36,0.288-0.792,0.504-1.224c2.016-1.872,2.016-1.872,4.68-3.816c1.296-0.576,2.592-1.152,3.888-1.8
		c1.944-0.648,3.96-1.296,5.976-1.944c1.728-0.216,3.456-0.432,5.256-0.72c3.024,0,6.048,0,9.144,0
		c2.376,0.504,7.704,0.936,10.296,1.44c1.152,0.072,2.376,0.144,3.6,0.216c5.328,1.296,10.728,2.592,16.128,3.888
		c7.92,2.376,7.92,2.376,9.072,2.952c-0.144,0.216-0.288,0.432-0.432,0.648c-2.016,0.576-4.032,1.224-6.048,1.872
		c-1.872,1.008-1.872,1.008-6.48,2.448c-0.936,0.144-1.872,0.288-2.88,0.432c-2.016,0.648-4.104,1.296-6.192,1.944
		c-3.6,1.944-3.6,1.944-7.92,3.816c-1.152,0.288-2.376,0.648-3.6,1.008c-1.872,0.216-3.816,0.432-5.76,0.72
		c-0.72,0.72-0.72,0.72-1.944,1.152c-0.288,0.36-0.576,0.792-0.936,1.224c-0.648,0.36-1.296,0.72-1.944,1.08
		c-0.072,0.216-0.216,0.432-0.36,0.72c0.072,0.648,0.144,1.296,0.216,1.944c0.504,0.432,1.008,0.936,1.584,1.44
		c7.2,3.672,12.744,7.056,13.68,7.272c0.864,0.648,1.728,1.296,2.664,1.944c3.096,1.44,7.2,4.104,8.352,4.536
		c2.52,1.872,5.112,3.816,7.704,5.76c3.384,1.944,5.544,2.88,6.696,3.888c1.008,0.576,2.088,1.224,3.168,1.872
		c1.224,1.08,2.448,2.16,3.672,3.312c-0.072,0.36-0.144,0.72-0.216,1.152c-2.448,2.16-2.448,2.16-4.32,4.32
		c-0.072,0.216-0.144,0.432-0.288,0.72c0.144,0.216,0.288,0.432,0.504,0.72c0.432,0,0.864,0.072,1.368,0.144
		c1.872-2.16,1.872-2.16,5.256-5.328c0.36,0,0.792,0,1.224,0c2.232,1.296,4.464,2.592,6.696,3.888
		c2.808,1.224,5.616,2.52,8.424,3.816c2.016,1.224,4.104,2.52,6.192,3.816c7.704,3.888,8.928,4.824,11.304,5.76
		c0.936,0.648,1.872,1.296,2.88,1.944c8.424,3.816,12.024,5.76,20.664,9.576c5.76,3.888,5.76,3.888,10.08,6.264
		c0.216-0.072,0.432-0.144,0.72-0.216c0-0.504,0-1.008,0.072-1.584c-1.944-2.376-1.944-2.376-3.816-5.472
		c-0.504-1.728-0.504-1.728-1.008-2.16c-0.936-1.656-1.872-3.312-2.88-5.0399c-2.52-3.6721-5.04-7.344-7.632-11.088
		c-3.888-4.752-5.76-7.632-11.52-15.12c-2.088-1.872-4.176-3.816-6.264-5.76c-1.8-1.224-3.6-2.52-5.4-3.816
		c-2.952-1.728-5.904-3.456-8.856-5.184c0-0.36-0.072-0.72-0.144-1.08c1.44-1.224,2.88-2.52,4.32-3.816
		c1.944-2.376,2.664-2.88,4.536-5.04c1.08-0.936,2.232-1.872,3.384-2.88c0.72-0.864,1.44-1.728,2.16-2.664
		c4.104-3.816,4.104-3.816,9.864-10.08c2.376-1.872,6.552-5.976,7.992-6.912c0.36-0.36,0.72-0.792,1.08-1.224
		c0.504,0,1.008-0.0721,1.584-0.144c0.432,0.288,0.864,0.576,1.296,0.864c0,0.504,0,1.08,0,1.656
		c0.288,0.216,0.576,0.432,0.864,0.72c1.152-1.296,2.304-2.664,3.456-4.032c0.792-0.648,1.584-1.2961,2.448-1.944
		c6.48-6.696,6.48-6.696,8.352-9.144c10.584-10.296,11.16-11.232,12.024-11.736c0.288-0.432,0.576-0.936,0.936-1.44
		c1.08-0.936,2.232-1.872,3.384-2.88c0-0.6479,0.072-1.296,0.144-1.944c5.688,1.872,11.376,3.744,17.064,5.616
		c0.288,0.216,0.576,0.432,0.936,0.648c0,0.504-0.072,1.08-0.144,1.656c-1.944,3.384-3.816,5.76-7.704,12.024
		c-1.872,2.376-4.032,4.536-8.856,10.584c-3.816,5.7599-4.824,6.912-6.696,10.08c-1.008,1.152-1.008,1.152-2.88,4.536
		c-1.008,2.376-1.008,2.376-1.008,3.096c1.296,2.448,2.592,4.968,3.888,7.488c0.0721,0.936,0.144,1.872,0.216,2.88
		c0.504,0.288,1.008,0.576,1.584,0.936c4.176,8.856,4.176,8.856,4.68,10.584c0.432,0.36,0.936,0.72,1.44,1.152
		c1.872,4.32,3.816,7.92,5.76,12.528c1.4399,5.7599,1.4399,5.7599,1.872,6.4799c0.288,0.216,0.648,0.432,1.008,0.72
		c0,1.728,0,3.4561,0,5.256c-0.144,0.144-0.288,0.288-0.504,0.504c-3.816,0.072-7.704,0.144-11.592,0.288
		c-0.36,0.144-0.792,0.288-1.224,0.504c-0.288,0.36-0.576,0.792-0.936,1.224c-0.576,0.144-1.152,0.36-1.728,0.576
		c0,0.216-0.0721,0.432-0.144,0.72c0.432,0.36,0.432,0.36,1.728,0.72c-0.504,3.384-0.504,3.384-1.944,9.36
		c-0.288,0.576-0.576,1.152-0.936,1.728c-0.504,2.376-0.504,2.376-0.72,6.912c0.2881,0.288,0.576,0.6479,0.936,1.008
		c0.936,2.88,1.944,4.536,2.376,6.192c1.008,1.944,2.88,7.488,8.64,21.384c0.576,2.232,1.152,4.464,1.728,6.696
		c0,1.08-0.072,2.16-0.144,3.24C215.586,297.36,215.37,297.36,215.0819,297.36L215.0819,297.36z M280.89,289.656
		c-2.088-0.864-4.248-1.8-6.408-2.736c0.072-1.656,0.144-3.312,0.216-5.04c0.288-0.072,0.576-0.216,0.864-0.36
		c0.576,0.288,1.152,0.576,1.728,0.936c1.656,1.728,1.656,1.728,3.096,2.52c0.216,0.864,0.504,1.728,0.792,2.664
		C281.1779,289.584,281.1779,289.584,280.89,289.656L280.89,289.656z M216.5219,283.68c-0.432-0.144-0.936-0.288-1.44-0.504
		c-0.288-0.288-0.576-0.648-0.864-1.008c-2.376-5.76-2.376-5.76-2.88-6.264c-0.936-3.096-1.944-6.192-2.952-9.36
		c5.544-0.864,5.544-0.864,6.984-1.368c3.312,0,8.856-0.72,18.432-1.44c2.304-0.288,4.608-0.576,6.984-0.936c1.224,0,2.52,0,3.816,0
		c1.872-0.288,3.816-0.576,5.76-0.936c2.592-0.072,5.256-0.144,7.92-0.288c0.504,0.144,1.008,0.288,1.584,0.432
		c0.072,1.08,0.144,2.16,0.216,3.312c-0.288,1.872-0.576,3.816-0.936,5.76c-0.216,0.432-0.432,0.936-0.72,1.44
		c0.0721,0.36,0.144,0.792,0.216,1.224c0.72,0.648,1.512,1.296,2.304,2.016c1.08,0.288,2.232,0.576,3.384,0.936
		c0.864,0.432,1.8,0.864,2.736,1.368c0,0.4319-0.0721,0.864-0.144,1.296c-2.592,0.216-2.592,0.216-4.5359,0.72
		c-3.2401,0.072-6.552,0.144-9.864,0.216c-3.6,0.36-7.2,0.792-10.8,1.224c-3.6,0.936-3.6,0.936-9.36,1.944
		C227.106,283.536,221.85,283.608,216.5219,283.68L216.5219,283.68z M278.946,281.304c-1.656-1.08-3.312-2.232-5.04-3.384
		c-0.936-0.432-1.872-0.864-2.88-1.296c0-0.288,0-0.576,0-0.864c1.44-0.504,1.44-0.504,7.416-1.08c0.36,2.16,0.72,4.32,1.08,6.48
		C279.162,281.4481,279.162,281.4481,278.946,281.304L278.946,281.304z M323.082,279.864c-7.416-3.888-8.64-4.824-11.52-6.264
		c-0.432-0.576-0.432-0.576-4.32-2.664c-0.504-0.504-1.08-1.08-1.656-1.656c-0.936-0.072-1.872-0.216-2.88-0.36
		c0-0.36-0.072-0.72-0.144-1.152c0.504-2.808,1.08-5.616,1.656-8.424c0-1.5121,0-3.024,0-4.536
		c0.504-1.224,1.944-10.08,3.168-14.688c0.072-1.296,0.216-2.664,0.36-4.032c0.216,0.072,0.504,0.144,0.792,0.216
		c1.944,4.824,2.88,7.92,3.888,10.08c0.144,0.648,0.288,1.296,0.432,1.944c1.728,3.2401,3.528,6.48,5.328,9.792
		c0.432,1.728,0.936,2.448,2.88,8.64c0.792,3.096,1.584,6.192,2.376,9.36c0.072,1.152,0.144,2.376,0.216,3.6
		C323.298,280.0081,323.298,280.0081,323.082,279.864L323.082,279.864z M76.41,274.32c-0.72-0.288-1.44-0.576-2.16-0.936
		c-2.88-2.016-5.832-4.032-8.784-6.12c0-0.288-0.072-0.576-0.144-0.936c1.296,0.216,2.592,0.504,3.888,0.792
		c0.72,0.288,1.44,0.576,2.16,0.936c1.872,1.944,3.744,3.888,5.616,5.904C76.8419,274.032,76.626,274.176,76.41,274.32L76.41,274.32
		z M263.61,273.6c-0.72-0.288-1.44-0.576-2.16-0.936c0-0.648-0.072-1.296-0.144-2.016c0.288-1.8,0.576-3.672,0.936-5.544
		c0-0.936,0-1.872-0.072-2.88c0.288,0.072,0.576,0.144,0.936,0.216c0.864,3.312,1.8,6.696,2.736,10.08c0,0.36,0,0.72-0.0721,1.08
		C265.0499,273.6,264.33,273.6,263.61,273.6L263.61,273.6z M268.8659,273.384c-0.864-1.584-0.864-1.584-1.8-4.464
		c-0.0721-0.792-0.216-1.584-0.36-2.376c1.224,0.432,2.5201,0.864,3.816,1.296c0.936,0.72,1.872,1.44,2.88,2.16
		c0.792,0.288,1.584,0.576,2.448,0.936c0.144,0.216,0.288,0.432,0.432,0.648c-0.144,0.144-0.2881,0.36-0.432,0.576
		c-1.08,0.288-2.232,0.576-3.384,0.936C271.314,273.168,270.09,273.24,268.8659,273.384L268.8659,273.384z M280.386,271.656
		c-0.288-0.072-0.288-0.072-0.864-1.728c-0.648-4.248-1.296-8.496-1.944-12.744c-0.072-1.368-0.144-2.736-0.216-4.104
		c0.936-0.072,1.872-0.216,2.808-0.36c0.144-0.216,0.288-0.432,0.432-0.72c2.448,0.504,2.448,0.504,3.888,0.504
		c0.216-0.144,0.432-0.288,0.72-0.504c0.144-0.792,0.36-1.656,0.576-2.52c0-1.944,0-3.96,0-5.976
		c0.432-2.664,0.432-2.664,1.08-11.5201c5.544-0.648,5.544-0.648,5.76-0.864c1.44,0.216,1.44,0.216,3.816,0.144
		c-0.432,3.744-0.864,7.488-1.2961,11.304c-0.72,3.816-1.44,7.632-2.16,11.52c0,1.224,0,2.52,0,3.816
		c0.576,0.504,0.576,0.504,1.584,0.792c5.76-0.432,5.976-0.72,7.2-0.792c0,1.08-0.072,2.232-0.144,3.384
		c-1.008,2.592-1.008,2.592-1.944,6.912c-0.36,0.288-0.72,0.648-1.08,1.008c-1.872,0.792-3.096,1.008-3.6,1.512
		c-0.2881,0.072-0.576,0.144-0.936,0.216c-0.288-0.144-0.576-0.288-0.936-0.432c-1.584,0-3.168,0-4.824,0
		c-0.864,0.288-1.728,0.576-2.664,0.936C283.914,271.512,282.186,271.584,280.386,271.656L280.386,271.656z M276.066,268.3441
		c-0.648-0.144-1.2961-0.2881-1.944-0.504c-2.88-1.944-6.696-3.96-8.136-5.04c-0.288-0.72-0.576-1.44-0.864-2.232
		c-0.0721-1.44-0.216-2.88-0.36-4.32c2.16,0.288,3.168,0.792,5.328,1.008c0.792,0.216,1.584,0.432,2.376,0.72
		c1.152,1.368,2.376,2.808,3.6,4.248c0.576,3.816,0.576,3.816,0.576,5.976C276.282,268.488,276.282,268.488,276.066,268.3441
		L276.066,268.3441z M274.41,256.824c-0.432-0.288-0.936-0.648-1.44-1.008c-1.152-0.288-2.376-0.576-3.6-0.936
		c-1.8-0.72-3.6-1.44-5.472-2.232c-0.936-4.104-0.936-4.104-1.008-5.544c2.16,0.36,4.32,0.792,6.48,1.224
		c0,1.2961-0.072,2.664-0.144,4.032c0.288,0.288,0.576,0.576,0.864,0.864c0.432,0.072,0.864,0.216,1.296,0.36
		c0.216,0.72,0.216,0.72,0.576,0.936c1.224-0.504,1.224-0.504,1.44-0.864c0.432,0,0.864,0.072,1.296,0.144
		C274.698,256.68,274.698,256.68,274.41,256.824L274.41,256.824z M182.682,253.656c-1.152-0.936-1.152-0.936-3.456-2.232
		c0-1.584,0.072-3.168,0.144-4.824c0.216,0,0.432,0,0.72,0c0.792,1.728,1.728,2.88,3.168,6.264c0,0.72,0,0.72-0.36,0.936
		C182.826,253.8,182.754,253.7281,182.682,253.656L182.682,253.656z M302.9219,246.6c0.144-1.656,0.144-1.656,0.504-1.872
		c0,0.432,0,0.936,0.0721,1.44C303.354,246.312,303.1379,246.456,302.9219,246.6L302.9219,246.6z M267.6419,246.024
		c-1.656-0.504-3.312-1.008-5.04-1.584c-1.08-4.32-1.08-4.32-1.296-6.912c0.432,0,0.864-0.072,1.296-0.144
		c5.328,1.872,6.048,2.376,7.704,2.88c-0.072,1.8-0.216,3.6-0.36,5.4c-0.072,0.072-0.216,0.216-0.36,0.36
		C268.938,246.024,268.29,246.024,267.6419,246.024L267.6419,246.024z M303.642,242.28c0.36-3.096,0.36-3.096,0.504-11.52
		c0.504,0.072,1.008,0.144,1.512,0.288c-0.72,7.92-0.72,7.92-1.152,9.7921C303.858,242.28,303.858,242.28,303.642,242.28
		L303.642,242.28z M269.37,237.816c-2.16-0.864-4.392-1.8-6.624-2.736c0-0.216,0-0.432,0.072-0.72
		c0.792-0.36,6.264-0.864,7.488-0.72c0.144,0.36,0.36,0.792,0.576,1.224c-0.072,0.936-0.144,1.872-0.216,2.88
		C270.2339,237.744,269.8019,237.744,269.37,237.816L269.37,237.816z M222.57,236.16c-0.144-1.08-0.144-1.08,0.288-2.736
		c20.088-2.304,20.088-2.304,20.304-2.52c7.704-0.288,9.864-0.72,24.048-1.728c8.28-0.864,16.56-1.728,24.912-2.592
		c1.512,0.072,3.024,0.144,4.608,0.216c14.832-1.944,14.832-1.944,23.04-2.736c0.144,1.152,0.36,2.376,0.576,3.6
		c-6.84,0.576-6.84,0.576-22.176,1.296c-5.328,0.72-5.76,1.08-6.768,0.936c-0.216,0.288-0.216,0.288-4.536,0.288
		c-0.504,0.432-0.504,0.432-1.224,0.432c-0.216-0.216-1.656-0.216-1.872,0c-3.672,0.072-7.344,0.144-11.088,0.288
		c-1.296,0.216-2.664,0.432-4.032,0.72c-1.008,0-2.088,0-3.168,0c-2.304,0.504-4.608,1.08-6.912,1.656
		c-1.008-0.216-16.56,1.224-21.384,1.44c-3.744,0.432-7.488,0.936-11.304,1.44C224.8019,236.16,223.722,236.16,222.57,236.16
		L222.57,236.16z M88.146,232.5601c-1.944-0.936-3.096-1.944-19.44-12.096c-0.144-0.216-0.288-0.432-0.504-0.648
		c-1.872-0.936-3.816-1.872-5.76-2.88c-8.856-5.76-10.512-7.2-13.392-9.072c-0.72-0.288-1.44-0.648-2.16-1.008
		c-0.432-0.432-0.936-0.936-1.44-1.44c-0.36-0.144-0.792-0.288-1.224-0.432c-5.256-4.104-6.984-5.04-11.736-8.928
		c-0.648-0.2159-1.296-0.504-1.944-0.792c-0.288-0.432-0.576-0.864-0.936-1.368c-1.008-0.432-1.944-1.44-4.608-3.312
		c-0.72-0.648-1.44-1.296-2.16-1.944c-1.08-1.512-2.16-3.024-3.312-4.536c-0.792-0.792-1.584-1.656-2.448-2.52
		c-1.872-2.808-1.872-2.808-3.096-4.104c-0.864-1.872-0.864-1.872-1.8-5.256c0.072-1.008,0.144-2.016,0.216-3.096
		c0.288-1.008,0.576-2.088,0.936-3.168c1.944-2.16,1.944-2.16,2.592-2.52c0.36,0,0.72,0,1.152-0.072
		c-0.144,2.592-0.144,2.592,0.288,6.768c0.432-0.072,0.936-0.144,1.44-0.216c0.288-0.576,0.288-0.576,0.432-4.392
		c0.432,0.072,0.936,0.144,1.44,0.288c0.936,0.792,1.872,1.656,2.88,2.52c0.72,2.88,1.512,5.76,2.304,8.712
		c0.288,1.872,0.576,3.816,0.936,5.76c0.576,1.872,1.152,3.744,1.8,5.616c1.224,0,1.224,0,1.584-0.36
		c0-1.224-1.008-4.32-2.88-13.464c-0.288-0.432-0.288-0.432-0.36-1.656c0.216,0,0.432,0,0.72,0.072
		c2.664,1.944,2.664,1.944,3.816,3.168c1.008,0.576,2.088,1.224,3.168,1.8719c1.584,1.656,3.24,3.312,4.896,4.968
		c0.432,4.824,0.432,4.824,0.936,6.48c0.504,0.72,0.504,0.72,3.096,10.584c0.432,0.072,0.864,0.144,1.368,0.288
		c0.144-0.144,0.288-0.288,0.504-0.432c0.072-1.08,0.072-1.08-0.432-2.016c-0.288-1.44-0.576-2.88-0.936-4.32
		c-0.648-1.728-1.296-3.528-1.944-5.328c-0.072-0.864-0.144-1.728-0.288-2.592c0.36,0.072,0.72,0.144,1.152,0.288
		c0.792,0.792,1.584,1.584,2.448,2.448c1.656,1.224,3.312,2.52,5.04,3.816c2.592,2.448,5.256,4.896,7.92,7.416
		c0.072,1.296,0.144,2.664,0.288,4.032c1.008,3.816,1.008,3.816,1.944,6.192c0.504,3.384,0.504,3.384,0.936,4.104
		c0.36,0,0.72,0,1.152,0.072c0.216-0.36,0.432-0.72,0.72-1.08c-0.432-0.936-0.432-0.936-0.864-4.248
		c-1.008-1.944-1.008-1.944-1.728-4.32c0-0.432,0-0.936-0.072-1.44c0.288,0.072,0.576,0.144,0.936,0.216
		c7.92,7.992,9.864,10.44,11.088,11.376c3.816,4.536,3.816,4.536,14.832,16.056c0.288,0.504,0.648,1.008,1.008,1.584
		C88.506,232.272,88.362,232.416,88.146,232.5601L88.146,232.5601z M231.4259,230.1841c-0.36-0.144-0.792-0.288-1.224-0.504
		c-2.448,0-4.896,0-7.416,0c-0.936-0.936-0.936-0.936-1.8-2.52c-1.008-3.096-1.944-4.536-2.88-7.416
		c-1.08-2.232-2.232-4.464-3.384-6.696c-0.072-0.72-0.216-1.44-0.36-2.16c1.584-0.216,3.168-0.432,4.824-0.648
		c1.584,0.144,3.168,0.288,4.824,0.504c0.72-0.504,0.72-0.504,1.152-1.368c0.432-0.144,0.936-0.36,1.44-0.576
		c3.888,0.216,3.888,0.216,10.584-0.216c0.216-0.288,0.936-0.288,1.44,0c0.72,0,0.936-0.288,39.816-3.168
		c1.512,1.08,3.024,2.232,4.6079,3.384c0.7921,0,1.584,0,2.376,0c1.224,0.648,2.5201,1.296,3.816,1.944
		c6.048,1.872,6.048,1.872,10.8,3.816c1.44,0.936,1.44,0.936,4.104,1.944c1.944,1.44,1.944,1.44,5.04,2.88
		c0.504,0.72,0.504,0.72,1.224,1.152c0.36,0,0.72,0,1.152,0c0.216-0.36,0.4319-0.72,0.72-1.08c0.36,0,0.792,0,1.224-0.072
		c0.648,0.432,1.296,0.936,1.944,1.44c0,0.288,0,0.576,0.072,0.864c-0.792,0.288-0.792,0.288-5.832,0.288
		c-4.104,0.72-5.544,0.72-6.048,1.008c-3.744,0.288-7.488,0.576-11.232,0.936c-1.872,0.36-3.816,0.792-5.76,1.224
		c-9.864,0.936-9.864,0.936-21.168,1.656c-0.504-0.072-1.08-0.144-1.656-0.216c-0.288,0.144-0.576,0.288-0.936,0.432
		c-1.08-0.072-2.232-0.144-3.384-0.216C242.946,228.744,237.69,229.68,231.4259,230.1841L231.4259,230.1841z M307.9619,216.5041
		c-1.44-1.008-1.44-1.008-6.48-3.168c-0.504-0.144-1.08-0.288-1.656-0.432c-0.648-0.36-1.296-0.7921-1.944-1.224
		c-0.864-0.144-1.728-0.288-2.592-0.504c-1.44-0.792-1.44-0.792-4.608-1.872c-1.152-0.72-2.376-1.44-3.6-2.16
		c-1.152-0.288-2.376-0.648-3.6-1.008c-1.152-0.936-3.312-1.872-3.8159-2.376c-0.72-0.144-1.44-0.288-2.16-0.504
		c-1.44-1.44-1.44-1.44-2.304-1.728c-1.08-1.728-2.232-3.528-3.384-5.328c-0.72-0.576-1.44-1.224-2.16-1.872
		c-0.288-1.08-0.576-2.232-0.936-3.384c0.072-1.8,0.144-3.672,0.216-5.544c-1.44-7.632-1.44-7.632-1.872-11.2321
		c-0.288-0.72-0.648-1.44-1.008-2.1599c-0.144-1.008-0.2881-2.088-0.432-3.168c-0.576-0.432-1.152-0.864-1.8-1.2961
		c-0.504-0.144-1.08-0.288-1.6559-0.504c-0.936-0.648-1.872-1.296-2.88-1.944c-0.864-0.288-1.728-0.576-2.664-0.936
		c-3.6-0.504-3.6-0.504-5.544-1.224c-2.592-0.576-5.256-1.224-7.92-1.872c-1.8-0.648-3.6-1.2961-5.472-1.944
		c-0.864-0.432-1.728-0.936-2.664-1.44c-0.792-0.144-1.584-0.36-2.448-0.576c-0.072-0.216-0.144-0.432-0.216-0.72
		c1.08,0,2.232-0.072,3.384-0.144c0.288-0.144,0.576-0.288,0.936-0.504c6.768,0.72,6.768,0.72,12.24,1.728
		c9.144,3.816,14.688,5.76,15.12,6.192c2.448,1.08,4.968,2.16,7.488,3.24c0.504,0.504,1.08,1.008,1.656,1.584
		c0.36-0.072,0.792-0.144,1.224-0.216c3.816-5.04,6.696-8.208,7.632-9.864c3.888-4.896,3.888-4.896,5.76-7.704
		c0.288-0.144,0.648-0.288,1.008-0.432c1.584,0.0721,3.168,0.144,4.752,0.216c0.072,0.36,0.216,0.72,0.36,1.08
		c-0.936,1.296-1.872,2.592-2.88,3.888c-0.36,0.288-0.792,0.576-1.224,0.936c-3.816,5.544-3.816,5.544-7.2,11.016
		c0,0.72,0,0.72,0.504,1.728c0.576,0.216,1.152,0.504,1.8,0.792c1.44,1.296,1.944,2.304,2.664,2.88
		c0.288-0.072,0.576-0.144,0.936-0.216c0.36-0.576,0.36-0.576,0.576-2.736c1.008-1.44,1.944-3.6,2.448-4.104
		c0.288-1.008,0.576-2.016,0.936-3.096c2.16-2.664,2.16-2.664,4.104-5.76c0.936-2.16,2.376-6.7679,2.736-7.128
		c1.44-0.072,2.88-0.216,4.32-0.36c-0.36,2.664-1.296,5.544-2.016,9.144c-0.504,0.72-1.44,4.32-1.944,5.256
		c-0.144,1.008-0.288,2.088-0.504,3.168c-1.224,3.456-2.52,6.984-3.816,10.512c-0.144,0.864-0.288,1.728-0.504,2.664
		c0.648,0.936,1.296,1.872,1.944,2.88c3.816,7.92,3.816,7.92,5.256,11.52c0.504,1.944,2.448,6.48,6.264,17.784
		c0.144,0.7921,0.288,1.584,0.504,2.376c0,0.576-0.072,1.152-0.144,1.8C308.466,216.5041,308.25,216.5041,307.9619,216.5041
		L307.9619,216.5041z M212.4899,207.936c-0.864-1.872-0.864-1.872-2.808-4.536c-0.432-1.152-0.936-2.376-1.44-3.6
		c0-0.432,0-0.936-0.072-1.44c1.8-0.288,3.6-0.576,5.472-0.864c1.296,0,2.592,0,3.888,0c3.312-0.936,3.312-0.936,4.032-1.44
		c2.16,0,3.384,0.2881,11.304,0c0.216,0.2881,0.216,0.2881,1.944,0.72c4.536-0.216,4.536-0.216,12.456-1.08
		c0.0721,0.072,0.144,0.144,0.216,0.288c0.072-0.216,0.144-0.432,0.288-0.72c7.92-0.144,11.0161,0.072,11.7361-0.144
		c1.08,0.072,2.232,0.144,3.384,0.216c0.36-0.144,0.72-0.288,1.152-0.432c1.08,0.072,2.232,0.144,3.384,0.216
		c0.864,0.6479,1.728,1.296,2.664,1.944c1.296,2.304,1.296,2.304,4.176,5.904c-0.072,0.144-0.216,0.288-0.36,0.432
		c-6.48,0.576-6.48,0.576-7.2,0.864c-7.416,0.216-7.416,0.216-7.7039,0.432c-4.032,0.504-9.7921,0.72-11.2321,1.008
		c-3.888,0-4.32,0.216-11.808,0.36c-0.144-0.0721-0.288-0.216-0.432-0.36c-4.608,0.432-4.608,0.432-6.048,0.936
		c-1.512,0-3.024,0-4.5359,0c-6.48,1.224-6.48,1.224-9.864,1.44C214.218,208.08,213.3539,208.0081,212.4899,207.936
		L212.4899,207.936z M138.762,201.816c-10.296-5.976-13.176-7.92-20.16-11.736c-2.592-1.944-2.592-1.944-12.24-7.704
		c-0.648-0.576-1.296-1.152-2.016-1.728c0-0.288,0-0.648,0-1.008c4.464-1.8,4.464-1.8,9.72-3.24c4.536-1.872,9.072-3.816,13.68-5.76
		c2.88-1.944,9.864-5.76,10.296-6.264c8.208-3.816,8.208-3.816,9.144-4.536c1.368,0.072,2.736,0.144,4.104,0.216
		c2.448,0.648,4.896,1.296,7.416,1.944c1.44,0.936,3.816,1.944,5.256,2.88c2.16,0.936,5.04,1.656,5.544,2.16
		c1.152,0.288,2.376,0.576,3.6,0.936c0,0.288,0,0.576,0.072,0.864c-3.24,3.024-6.48,6.0479-9.792,9.144
		c-1.944,2.376-1.944,2.376-6.264,6.696c-0.792,0.648-1.584,1.296-2.376,1.944c-1.944,2.376-1.944,2.376-8.208,8.424
		c-0.936,1.152-1.872,2.376-2.88,3.6c-1.368,1.008-2.736,2.088-4.176,3.168C139.266,201.816,139.05,201.816,138.762,201.816
		L138.762,201.816z M206.0099,195.336c-0.288-0.36-0.648-0.72-1.008-1.152c-1.2961-3.024-1.8-3.456-2.7361-5.616
		c0.0721-0.792,0.144-1.584,0.216-2.448c0.504-0.72,0.504-0.72,0.936-2.16c0.648-0.792,1.296-1.584,1.944-2.376
		c0.432-0.936,0.936-1.872,1.44-2.88c1.944-2.376,1.944-2.376,4.248-5.904c2.16-0.504,7.416-0.936,7.632-1.224
		c0.648,0.072,1.296,0.144,1.944,0.288c0.216,1.296,0.504,2.592,0.792,3.96c-0.144,3.024-0.288,6.048-0.432,9.144
		c-0.6479,2.736-1.296,5.544-1.944,8.352c-0.144,0.216-0.288,0.432-0.504,0.72c-1.584,0-3.24,0.072-4.896,0.144
		c-1.152,0.432-1.152,0.432-1.656,0.936C210.0419,195.192,208.026,195.264,206.0099,195.336L206.0099,195.336z M240.066,195.336
		c-0.36-0.144-0.792-0.288-1.224-0.432c-0.36-1.2961-0.36-1.2961-1.2961-2.7361c-0.072-0.576-0.144-1.152-0.288-1.728
		c0.504-6.696,1.008-9.576,1.44-16.776c0.144-0.936,0.288-1.872,0.504-2.8799c0.648-0.36,0.648-0.36,6.408-0.864
		c8.136,0.216,9.576,0,18,0.504c0.288,0.576,0.288,0.576,0.288,3.024c0.288,0.576,0.648,1.224,1.008,1.872
		c0.576,2.736,1.224,5.472,1.872,8.208c0.288,4.032,0,5.04,0,8.856c-1.656,1.656-1.656,1.656-1.7281,1.44
		c-0.72-0.144-1.44,0.072-1.728-0.144c-0.936,0-1.872,0.072-2.88,0.144c-0.216,0.36-1.656,0.432-2.376,0.72c0-0.216,0-0.432,0-0.72
		c-0.72,0.216-0.72,0.216-0.936,0.576c-4.104-0.504-4.104-0.504-6.264-0.504c-0.288,0.144-0.576,0.288-0.936,0.504
		c-1.008-0.0721-2.088-0.144-3.168-0.216c-2.592,0.432-2.592,0.432-2.88,0.72c-0.936,0-1.872,0-2.88,0
		C240.57,195.336,240.57,195.336,240.066,195.336L240.066,195.336z M43.506,183.6c-1.656-1.656-2.664-2.16-6.984-6.48
		c-1.656-1.224-3.312-2.52-5.04-3.816c-5.04-4.608-5.04-4.608-5.976-5.904c-1.872-1.584-3.744-3.168-5.688-4.752
		c0-0.36,0.072-0.792,0.144-1.224c9.864-3.744,9.864-3.744,10.224-4.104c0-0.288,0-0.576,0-0.936
		c-5.616-3.744-5.616-3.744-7.56-4.68c-0.864-0.72-1.728-1.512-2.664-2.304c-0.072-0.432-0.216-0.936-0.36-1.44
		c0.504-0.144,1.008-0.36,1.584-0.576c1.44,0.072,2.88,0.144,4.32,0.216c0.936,0.504,0.936,0.504,4.32,1.44
		c2.52,1.224,5.112,2.52,7.704,3.816c1.224,0.792,2.52,1.584,3.816,2.448c2.376,0.432,3.6,0.936,8.424,1.872
		c4.032,0,4.032,0,6.912,0.504c0.36,0.144,0.792,0.288,1.224,0.504c2.304-0.0721,4.608-0.144,6.984-0.288
		c6.192,1.008,9.792,1.224,11.232,1.728c3.888,0.432,4.32,0.72,11.304,1.152c3.744,0.792,7.488,1.584,11.304,2.448
		c6.192,1.872,10.8,2.88,13.392,3.816c3.888,0.936,3.888,0.936,9.36,2.808c0,0.216-0.072,0.432-0.144,0.72
		c-0.864,0.576-1.8,1.152-2.736,1.728c-0.72,0.216-1.44,0.432-2.16,0.648c-0.072-0.504-0.144-1.008-0.216-1.584
		c-1.944-0.648-3.96-1.296-5.976-1.944c-12.24-2.88-12.24-2.88-14.4-3.096c-1.512-0.432-3.024-0.936-4.608-1.44
		c-4.032-0.504-8.136-1.08-12.24-1.656c-0.144-0.144-0.288-0.288-0.432-0.504c-3.168-0.216-3.168-0.216-15.624-0.216
		c-0.36,0.288-0.792,0.576-1.224,0.936c-3.312,0.936-3.312,0.936-8.352,2.88c-1.296,0.648-2.592,1.296-3.888,1.944
		c-1.152,1.008-2.376,2.016-3.6,3.096c-0.936,1.584-0.936,1.584-1.584,3.96c-0.072,2.736-0.144,5.472-0.216,8.208
		C43.722,183.744,43.722,183.744,43.506,183.6L43.506,183.6z M80.01,180.5041c-0.288-0.144-0.288-0.144-0.432-1.08
		c0.36-0.36,0.72-0.792,1.08-1.224c1.224-0.504,2.448-1.008,3.672-1.584c1.8-0.072,3.6-0.144,5.472-0.216
		c0.648,0.216,1.296,0.4319,1.944,0.6479c-0.072,0.36-0.216,0.72-0.36,1.152c-0.576,0.288-1.152,0.576-1.8,0.864
		c-1.512,0.144-3.024,0.288-4.536,0.432c-1.08,0.288-2.232,0.648-3.384,1.008C81.162,180.5041,80.586,180.5041,80.01,180.5041
		L80.01,180.5041z M192.762,178.5601c-2.376-1.224-4.752-2.52-7.2-3.816c-0.144-0.288-0.288-0.576-0.432-0.864
		c0.288-0.576,0.576-1.152,0.936-1.8c2.376-2.664,3.6-3.6,4.536-4.896c2.16-2.088,5.76-4.968,6.768-5.4
		c2.592-2.7361,5.256-5.472,7.92-8.208c1.584-1.224,3.168-2.52,4.752-3.816c2.88-3.384,2.88-3.384,3.6-3.816
		c1.224,0.216,1.224,0.216,2.664,1.152c0.144,0.216,0.288,0.432,0.504,0.648c-1.872,3.096-5.904,8.424-7.848,11.736
		c-7.704,9.144-7.704,9.144-10.656,12.24c-1.512,2.232-3.024,4.536-4.536,6.84C193.4819,178.5601,193.122,178.5601,192.762,178.5601
		L192.762,178.5601z M213.93,170.136c0-0.216-0.072-0.504-0.144-0.792c0.144-0.2881,0.36-0.648,0.576-1.008
		c0.72-0.072,0.72-0.072,1.224,0.36c0,0.432,0,0.864,0.072,1.368C215.0819,170.0641,214.506,170.0641,213.93,170.136L213.93,170.136
		z M124.65,169.2c-5.328-1.944-5.328-1.944-16.128-5.256c-2.736-4.68-3.744-7.056-6.624-11.88
		c-0.288-0.7921-0.576-1.584-0.936-2.376c-1.08-1.656-2.232-3.312-3.384-5.04c-0.072-0.432-0.144-0.936-0.288-1.44
		c3.312,0.576,6.696,1.152,10.08,1.728c2.376,1.008,2.376,1.008,9.576,2.88c1.656,0.288,3.312,0.648,5.04,1.008
		c1.152,0.432,2.304,0.864,3.456,1.296c1.224,2.232,2.52,4.464,3.816,6.7679c0.792,1.872,1.584,3.816,2.448,5.76
		c0,1.008,0,2.016,0,3.096c-3.744,1.944-3.744,1.944-5.616,3.24C125.658,169.056,125.154,169.1281,124.65,169.2L124.65,169.2z
		 M178.3619,168.696c-0.432-0.432-0.432-0.432-1.152-0.576c0.072-0.432,0.144-0.936,0.288-1.44c2.808-2.88,5.616-5.76,8.424-8.64
		c0.72-1.08,1.512-2.16,2.304-3.24c3.096,0,3.096,0,4.104,0.216c0.072,0.072,0.144,0.216,0.216,0.36
		c-1.944,2.376-3.96,4.752-5.976,7.128c-2.16,1.872-4.104,4.032-6.48,5.976C179.514,168.552,178.938,168.6241,178.3619,168.696
		L178.3619,168.696z M243.45,168.8401c-0.072-0.216-0.144-0.432-0.288-0.72c-2.016,0.072-4.104,0.216-6.192,0.36
		c-0.288-0.288-0.648-0.576-1.008-0.936c-1.656-0.504-1.656-0.504-8.136-3.888c-2.664-0.216-2.664-0.216-5.5439,0
		c-1.872,0.504-1.872,0.504-3.384,0.432c0-0.36,0.072-0.792,0.144-1.224c0.864-1.224,1.728-2.52,2.664-3.816
		c0-0.288,0.0721-0.6479,0.144-1.008c0.432-0.072,0.936-0.216,1.44-0.36c1.296,0.072,2.664,0.144,4.032,0.216
		c0.936,0.288,1.872,0.648,2.88,1.008c3.6,0.432,3.6,0.432,4.608,0.936c0.144,0.144,0.288,0.288,0.432,0.504
		c5.544,1.872,5.544,1.872,7.704,2.88c7.92,1.872,9.144,2.376,14.184,3.312c0.216,0.36,0.216,0.36,0,0.72
		c-2.664,0.288-2.88,0.504-9.864,0.72c-1.08,0.072-2.232,0.216-3.384,0.36C244.026,168.6241,244.026,168.6241,243.45,168.8401
		L243.45,168.8401z M174.042,166.104c-1.512-0.288-3.024-0.648-4.536-1.008c-4.824-1.872-4.824-1.872-5.256-2.376
		c-1.296-0.648-2.592-1.296-3.888-1.944c-2.16-0.648-4.32-1.296-6.48-2.016c0-0.216,0-0.432,0-0.72
		c0.936-0.288,1.872-0.576,2.88-0.864c6.192-0.864,12.456-1.728,18.72-2.592c3.24,0,6.48,0.072,9.72,0.144
		c-0.072,0.432-0.144,0.936-0.216,1.44c-1.008,1.44-3.168,3.312-5.04,5.472c-1.512,1.44-3.096,2.952-4.68,4.464
		C174.906,166.104,174.474,166.104,174.042,166.104L174.042,166.104z M272.97,165.6c-2.52-1.224-5.112-2.52-7.704-3.816
		c-9.864-3.888-9.864-3.888-13.68-5.76c-5.544-1.008-6.48-1.44-14.328-2.736c0-0.36,0-0.792,0-1.224
		c0.288-0.504,0.576-1.008,0.864-1.584c1.728,0.216,4.824,1.224,6.768,1.44c2.16-0.216,2.16-0.216,14.616-0.216
		c17.064-1.008,20.664-1.44,25.7039-1.44c0.0721,0.0721,0.144,0.216,0.216,0.36c-0.6479,0.936-1.296,1.944-1.944,2.952
		c-0.216,0.072-0.432,0.144-0.72,0.288c-1.224,1.872-2.52,3.744-3.816,5.616c-1.728,1.944-3.4561,3.888-5.256,5.904
		C273.474,165.456,273.258,165.528,272.97,165.6L272.97,165.6z M134.226,164.016c-1.8-4.968-1.8-4.968-3.744-8.856
		c-0.504-0.432-1.44-2.592-1.944-3.096c-0.072-0.36-0.144-0.7921-0.288-1.224c1.44,0.288,2.88,0.576,4.32,0.864
		c2.016,0.936,4.104,1.872,6.192,2.88c0.864,0.144,1.728,0.288,2.664,0.432c0.864,0.432,1.728,0.936,2.664,1.44
		c0.072,0.864,0.144,1.728,0.216,2.664c-0.864,0.288-1.728,0.576-2.664,0.936c-0.864,0.648-1.728,1.296-2.592,1.944
		c-1.368,0.72-2.736,1.44-4.104,2.16C134.7299,164.16,134.514,164.088,134.226,164.016L134.226,164.016z M104.202,163.224
		c-2.232-0.648-4.464-1.296-6.696-1.944c-5.76-0.936-6.264-1.224-9.864-1.656c-1.872-0.504-1.872-0.504-8.136-1.44
		c-0.432-0.288-0.936-0.648-1.44-1.008c-4.104-5.04-4.104-5.04-5.256-5.976c-0.288-0.648-0.576-1.296-0.864-2.016
		c-0.72-0.72-1.44-1.44-2.16-2.16c-1.944-3.096-3.384-4.536-4.32-6.264c-0.288-0.36-0.648-0.72-1.008-1.152
		c0-0.288,0-0.648-0.072-1.008c3.888,0.288,7.776,0.576,11.736,0.864c10.8,1.872,10.8,1.872,17.28,3.312
		c0.648,0.648,1.296,1.296,1.944,1.944c0.936,1.44,1.872,2.88,2.88,4.32c3.672,7.128,4.68,8.568,7.056,13.32
		c0,0.288,0,0.576-0.072,0.864C104.922,163.224,104.562,163.224,104.202,163.224L104.202,163.224z M19.026,159.1201
		c-0.36-0.7921-0.36-0.7921-1.224-8.28c1.728,0.864,4.32,2.736,7.2,4.32c0.288,0.288,0.576,0.648,0.864,1.008
		c0,0.216,0,0.432,0,0.72C19.746,159.1201,19.746,159.1201,19.026,159.1201L19.026,159.1201z M15.642,157.896
		c-0.72-1.44-1.512-2.88-2.304-4.392c-0.072-0.936-0.144-1.872-0.216-2.88c0.936-3.096,0.936-3.096,1.368-3.744
		c0.216,0,0.432,0,0.72-0.072c0.792,5.976,0.792,5.976,1.008,10.8C16.074,157.6801,15.858,157.752,15.642,157.896L15.642,157.896z
		 M149.13,157.6801c-0.288-0.0721-0.288-0.0721-0.432-1.296c0.648-1.008,1.296-2.016,1.944-3.096c1.08-0.864,1.08-0.864,3.528-1.872
		c4.68-0.576,9.36-1.224,14.112-1.872c6.192-0.072,12.456-0.144,18.72-0.288c0.648,0.144,1.296,0.288,1.944,0.504
		c0,0.36,0,0.72,0.072,1.08c-0.432,0.576-0.936,1.1519-1.44,1.728c-12.096,0.288-12.096,0.288-18.576,0.792
		c-0.288-0.144-0.576-0.288-0.936-0.504c-6.984,0.72-6.984,0.72-9.144,1.224c-0.576,0.288-1.224,0.576-1.872,0.936
		c-1.368,0.288-2.736,0.648-4.104,1.008c-0.936,0.504-1.872,1.08-2.88,1.656C149.778,157.6801,149.49,157.6801,149.13,157.6801
		L149.13,157.6801z M69.642,157.176c-1.296-0.288-2.664-0.576-4.032-0.936c-2.448,0.072-4.968,0.144-7.488,0.216
		c-0.504-0.216-1.08-0.432-1.656-0.72c-2.376-0.144-4.752-0.288-7.2-0.432c-1.512-0.288-3.024-0.648-4.536-1.008
		c-1.944-0.936-1.944-0.936-2.592-1.512c-0.936-2.664-1.872-6.984-3.312-11.304c-0.288-0.72-0.648-1.44-1.008-2.16
		c-0.432-5.472-0.432-5.472-0.792-6.696c0.432,0,0.936,0,1.44,0.072c0.936,0.432,1.872,0.936,2.88,1.44
		c0.72,0.144,1.44,0.288,2.16,0.504c1.008,0.648,2.016,1.296,3.096,1.944c10.368,0.72,10.368,0.72,13.248,1.152
		c3.816,4.104,4.752,5.544,5.76,6.48c0.576,0.936,1.224,1.872,1.872,2.88c1.008,1.08,2.016,2.16,3.024,3.312
		c0.144,0.36,0.288,0.72,0.432,1.152c1.368,1.656,2.736,3.312,4.104,5.04c0,0.144,0,0.36-0.072,0.576
		C73.242,157.176,71.442,157.176,69.642,157.176L69.642,157.176z M193.9859,153.144c-1.008-0.072-2.016-0.216-3.096-0.36
		c0-0.36,0-0.7921,0.072-1.224c0.36-0.432,0.72-0.936,1.08-1.44c1.008-0.144,3.888,0.36,4.6801,0.72
		c-0.072,0.288-0.144,0.6479-0.216,1.008c-0.432,0.432-0.864,0.864-1.2961,1.296C194.85,153.144,194.418,153.144,193.9859,153.144
		L193.9859,153.144z M230.7059,152.424c-1.08-0.288-2.232-0.576-3.384-0.864c0.36-1.44,0.36-1.44,1.8-3.816
		c1.08-0.144,1.08-0.144,3.024,0.36c0.288,0.144,0.576,0.36,0.936,0.576c-0.432,0.864-0.432,0.864-0.936,1.224
		c0,0.72-0.072,1.44-0.144,2.16C231.4259,152.424,231.4259,152.424,230.7059,152.424L230.7059,152.424z M38.25,151.2
		c-2.448-0.936-5.76-2.88-10.512-5.112c0-0.648,0-1.296,0-1.944c-0.288-0.216-0.576-0.432-0.936-0.72
		c-0.936-3.384-0.936-3.384-0.936-4.536c0.576-0.432,3.024-0.864,3.96-1.368c0.36-0.576,0.36-0.576,0.36-1.296
		c-2.304-1.584-4.608-3.168-6.984-4.8239c-0.216-0.432-0.432-0.936-0.72-1.44c0-0.36,0.072-0.72,0.144-1.152
		c1.368,0,2.736-0.072,4.104-0.144c2.88,0.432,2.88,0.432,7.128,1.8c0.36,2.88,1.368,6.48,1.8,9.36
		c0.648,1.584,1.296,3.168,1.944,4.824c1.224,5.04,1.224,5.04,1.224,6.48C38.466,151.3441,38.466,151.3441,38.25,151.2L38.25,151.2z
		 M244.17,149.544c-8.64-2.88-9.36-3.384-11.808-3.888c-0.936-0.432-0.936-0.432-1.872-1.44c-1.008,0-1.224,0.288-2.448,0.288
		c-0.576-0.288-1.224-0.648-1.872-1.008c-3.6-0.936-3.6-0.936-14.4-4.752c-6.9839-2.88-6.9839-2.88-7.344-3.24
		c0.0721-0.36,0.144-0.792,0.216-1.224c2.52-2.952,5.112-5.904,7.704-8.856c3.816-5.544,3.816-5.544,5.76-7.704
		c0.432-0.288,0.936-0.576,1.44-0.936c0.936-1.44,2.16-2.376,3.096-4.104c0.36-0.432,0.792-0.936,1.224-1.44
		c1.584,0,3.24-0.072,4.896-0.144c6.12,0.936,12.312,1.872,18.504,2.8801c10.08,3.888,10.08,3.888,13.4641,4.8239
		c0.72,0.072,1.44,0.144,2.16,0.216c3.672,1.296,7.344,2.5919,11.016,3.888c17.496,7.632,17.496,7.632,23.04,9.72
		c3.816,2.016,8.64,3.96,12.024,5.832c4.536,1.944,4.536,1.944,7.92,3.888c0.36,0.288,0.72,0.576,1.152,0.936
		c0,0.432,0.072,0.864,0.144,1.368c-0.36,0.288-0.36,0.288-2.52,0.792c-6.624,0.936-13.248,1.872-19.944,2.88
		c-5.112,0-10.224,0-15.336,0c-0.936,0.144-1.872,0.288-2.88,0.504c-4.824,0.216-9.72,0.432-14.616,0.72
		C247.7699,149.256,247.7699,149.256,244.17,149.544L244.17,149.544z M152.946,149.4001c1.152-2.5201,2.304-5.04,3.456-7.632
		c1.944-3.168,1.944-3.168,2.88-5.544c1.944-2.6639,3.816-5.976,8.64-12.456c0.432,0,0.864-0.072,1.368-0.144
		c12.456,5.472,12.456,5.472,12.96,5.976c11.736,3.816,11.736,3.816,18.216,6.264c0.072,0.072,0.144,0.216,0.216,0.36
		c-3.096,3.744-6.192,7.5601-9.36,11.376c-3.096-0.144-6.192-0.288-9.36-0.504c-1.44,0.288-1.44,0.288-12.672,0.504
		C163.89,148.176,158.418,148.752,152.946,149.4001L152.946,149.4001z M198.81,148.824c-1.44-0.288-2.952-0.576-4.464-0.864
		c0-0.288,0-0.576,0-0.936c1.872-2.664,1.872-2.664,8.064-9.72c0.432,0.072,0.936,0.144,1.44,0.216
		c1.512,0.72,3.024,1.512,4.536,2.304c-4.32,4.176-8.136,8.496-8.856,9C199.314,148.824,199.098,148.824,198.81,148.824
		L198.81,148.824z M17.37,145.944c-0.36-0.288-0.72-0.576-1.152-0.864c0-0.216,0-0.432,0-0.72c0.288-0.36,0.648-0.72,1.008-1.152
		c1.584-0.936,3.168-1.8719,4.752-2.88c0.432,0,0.864-0.072,1.368-0.144c0.504,0.576,0.504,0.576,1.8,4.464
		c0,0.144-0.072,0.36-0.144,0.576c-1.224,0-2.52,0-3.816,0C19.962,145.44,18.666,145.656,17.37,145.944L17.37,145.944z
		 M152.442,145.224c-0.144-0.2159-0.288-0.4319-0.432-0.648c3.672-8.568,3.672-8.568,5.112-11.232
		c0.288-0.288,0.576-0.576,0.936-0.936c0.936-2.448,1.872-4.968,2.88-7.488c0.576-1.08,1.224-2.16,1.872-3.24
		c2.16,0.216,2.16,0.216,2.808,0.648c0,0.2881,0.072,0.576,0.144,0.936c-4.824,6.984-4.824,6.984-8.64,13.176
		c-0.936,2.448-2.88,5.76-3.816,7.92C153.018,144.648,152.7299,144.936,152.442,145.224L152.442,145.224z M200.97,133.92
		c-6.912-2.376-13.896-4.752-20.88-7.2c-0.504-0.504-5.328-2.376-12.96-6.264c-1.728-0.432-3.888-1.44-6.768-2.376
		c-0.648-0.432-1.296-0.864-2.016-1.296c0-0.2881,0-0.576,0.072-0.936c0.936-0.648,1.872-1.296,2.88-1.944
		c1.944-0.576,3.888-1.152,5.832-1.8c2.736-0.432,5.544-0.936,8.352-1.44c10.08-0.2881,20.88-1.0081,25.488-1.0081
		c1.656,0.288,1.656,0.288,4.752,0.288c0.936-0.144,1.872-0.288,2.88-0.504c1.584,0,3.168,0,4.824,0
		c1.944,0.504,1.944,0.504,8.424,0.936c0.072,0.0721,0.144,0.216,0.216,0.36c-1.224,1.512-2.5201,3.096-3.816,4.68
		c-0.72,0.648-1.44,1.296-2.16,1.944c-5.76,7.704-5.76,7.704-9.648,12.384c-2.16,2.016-2.16,2.016-3.816,4.176
		C202.122,133.92,201.5459,133.92,200.97,133.92L200.97,133.92z M257.85,116.136c-2.88-0.936-3.6-1.44-10.08-3.456
		c-0.288-0.36-0.288-0.36-1.728-0.864c-2.304-0.4319-4.608-0.936-6.912-1.44c-3.672-0.432-7.344-0.864-11.088-1.296
		c0-0.288-0.072-0.576-0.144-0.936c0.72-1.008,1.512-2.0161,2.304-3.096c0.72-0.648,1.512-1.296,2.304-1.944
		c0.288-0.432,0.576-0.936,0.936-1.44c1.08-0.936,2.232-1.872,3.3839-2.88c3.816-4.824,5.76-6.696,7.632-9.144
		c2.16-1.8719,4.104-4.3199,8.424-8.856c3.816-4.5361,5.976-6.48,8.856-10.08c0.288-0.072,0.576-0.144,0.864-0.2161
		c-1.8,13.8961-1.8,13.8961-2.736,24.48c-1.008,20.88-1.008,20.88-1.296,21.168C258.354,116.136,258.1379,116.136,257.85,116.136
		L257.85,116.136z"/>
</g>
</svg>
