<?xml version="1.0" encoding="utf-8"?>
<!-- Generator: Adobe Illustrator 21.1.0, SVG Export Plug-In . SVG Version: 6.00 Build 0)  -->
<svg version="1.1" id="vik" xmlns="http://www.w3.org/2000/svg" xmlns:xlink="http://www.w3.org/1999/xlink" x="0px" y="0px"
	 viewBox="0 0 480.3481 225.9712" enable-background="new 0 0 480.3481 225.9712" xml:space="preserve">
<g>
	<path fill-rule="evenodd" clip-rule="evenodd" stroke="#000000" stroke-width="0.216" stroke-miterlimit="2.6131" d="
		M174.096,225.828c0-0.576,0-1.152,0.072-1.656c-19.872-3.456-40.248,3.96-58.968-1.368c-3.816-2.736-14.04-1.368-17.424-0.864
		c-23.472,0-46.872-0.72-69.696-0.72c-0.216,0.216-7.344,0.648-7.488,0.648c-0.072-0.36-0.144-0.72-0.216-1.008
		c-3.096,0-19.44,1.296-20.16,0.576c6.912-1.512,15.048-0.36,22.176-1.944c1.296-9.144,0.792-20.448-2.664-28.44
		c0-0.216,0.072-0.36,0.144-0.504c6.624-2.448,21.816-9.072,28.728-4.968c9.072,0,24.696,1.944,33.768-0.648
		c0-5.976,2.016-4.536,6.192-7.272c5.688-9.072,14.472-28.224,10.8-38.808c-0.144-0.072-0.288-0.144-0.36-0.144
		c0-2.736,3.24-4.608,4.968-6.336c2.952-14.4,5.976-28.8,9-43.2C101.592,74.628,92.52,59.796,79.992,46.548
		C70.056,31.572,58.248,16.74,45.936,4.86c-0.216-0.072-0.432-0.072-0.576-0.072c0.648-6.4799,28.656,32.472,30.672,35.28
		c7.992,8.352,17.28,18.576,24.12,28.8c2.664,2.808,10.8,15.84,13.248,16.632c0.648-1.8,0.792-3.24,0.936-4.392
		c-11.664-3.6,16.56-6.336,19.152-6.48c0-1.368-24.048-28.728-24.696-29.52c-9.648-14.472-19.44-25.128-30.96-37.296
		c-0.072-0.216-0.072-0.36-0.072-0.504c4.104,0,23.184,25.056,28.368,32.184c2.232,9,20.448,24.408,28.656,34.2
		c0.072,0.216,0.144,0.432,0.216,0.72c2.376,0,21.528-0.864,23.472-2.16c0-23.76-5.328-49.104-2.592-72.144
		c0.072,0,0.144,0.072,0.288,0.144c0,23.688,2.592,47.16,3.384,70.92c0.792,1.368,14.4,1.224,17.136,0.576
		c0-16.056,0.072-32.112-0.216-47.52c-0.144-0.72-0.36-11.376-0.216-11.592c0.144,0,0.288,0,0.504,0
		c1.584,15.408,0.144,31.896,1.152,47.952c-0.072,3.384-1.224,8.136,0.288,11.592c1.224,0,23.328,0.072,25.56-1.44
		c0-20.376,0.144-40.248-1.728-60.552c0.288-0.216,0.288-0.216,0.576,0c2.16,18.648,2.88,38.16,2.88,57.6
		c0.144,0.936,0.288,1.944,0.432,2.952c3.744,0.072,9.144-0.144,12.816,2.664c0,0.36,0,0.792,0.072,1.224
		c-0.36,0.36,6.408,15.408,7.56,18c1.152,3.816,3.6,9.576,3.6,14.4c-0.864,0.864-0.864,1.8-1.152,3.384c0.504,0,1.008,0,1.584,0.072
		c0,0.216,0,0.432,0.072,0.648c-0.936,0.288-0.936,0.288-2.232,1.08c-0.936,4.824,11.52,12.456,15.84,17.208
		c0.144,0,0.36,0.072,0.576,0.144c0.504,1.368,2.952,2.808,3.456,4.464c-0.936,0.936-1.08,0.792-1.08,2.304
		c4.824,4.248,10.728,8.568,16.488,13.104c2.736,3.816,26.28,0.936,30.456-0.072c31.104-3.24,62.064-2.16,93.6-2.664
		c0.864,0.864,69.048-0.864,81.144-1.296c2.664,0.432,9.216-1.872,11.52-0.36c0,3.888-5.616,21.888-7.488,22.608
		c-0.072,0.144-0.072,0.36-0.072,0.576c0.864,0.072,1.8,0.144,2.736,0.216c0,0.36-30.672,2.376-35.136,3.816
		c-9.792,0.576-9.216,15.984-16.128,20.592c-0.72,2.88-6.336,8.496-8.64,11.376c-2.952,4.464-8.7119,9.792-9.9359,14.904
		c1.08-0.288,1.08-0.288,2.88-0.288c0,0.216,0,0.432,0.072,0.648c-1.512,0.144-4.032,0.072-4.392,1.44
		c0.504,0.144,0.504,0.144,0.72,0.504c-0.0721,0.072-0.144,0.144-0.216,0.288c-27.432-3.384-55.872,2.448-82.44-0.504
		c-10.512,0-20.448,2.448-30.384,2.16c-12.96-1.44-14.04-1.8-21.96-2.736c-20.88,1.008-40.752,2.376-61.056,2.376
		c-11.592,2.304-22.824,1.944-33.84,2.232C174.6,225.684,174.6,225.684,174.096,225.828L174.096,225.828z M191.0161,215.892
		c-1.2961-0.648-24.264-0.864-26.64-0.648c-31.68-1.008-63.648-2.52-94.896-2.52c-4.824-0.288-44.064-0.648-44.424-0.144
		c-1.224-7.056-2.448-14.112-3.672-21.168c9.576-0.576,19.728,0.144,29.952-0.072c18.936-1.944,41.544,0.648,60.264-4.6801
		c21.456-1.008,42.48-2.736,64.296-4.3199c19.728-2.664,39.744-2.7361,59.904-6.1201c2.016-0.072,65.304-4.896,66.24-3.456
		c21.24-1.512,43.704-1.44,65.376-3.24c28.08-0.72,56.304-1.224,84.744-1.224c0.792,0.144,1.584,0.288,2.376,0.504
		c-0.72,0.72-16.992,2.736-18.72,2.52c-2.376,2.376-7.416,12.312-8.928,15.624c-6.264,9.072-13.176,18-19.872,27.072
		c-0.216,0-0.432,0-0.576,0c-2.232-2.232-15.552-1.224-18.504-0.36c-17.928-1.08-38.304-1.728-55.296,1.08
		c-27.072,0.072-54.144,0.216-81.144,0.36c-1.944-0.216-3.888-0.36-5.7599-0.504c0-0.144,0.072-0.288,0.144-0.36
		c-1.224-0.216-6.264,0.216-6.84,0.216c-0.072,0.072-0.144,0.144-0.144,0.288c-0.864-0.864-1.008-0.576-1.656-0.648
		c-0.072,0.576-0.072,0.576-0.36,0.72c-1.296-1.296-13.176-0.072-14.4,0.288C217.512,215.1,192.528,214.884,191.0161,215.892
		L191.0161,215.892z M43.416,190.404c-1.656-0.144-2.016-0.36-5.256-0.432c0-0.936-0.432-0.72-0.648-0.864
		c-0.072-1.08-0.072-2.088-0.072-3.096c2.52-0.7921,8.352-0.0721,12.24,0.6479c9.36,0,22.536-1.512,32.256-0.216
		c0.144,0.36,0.72,0.936,0.504,2.016c-2.376,0.576-8.136,1.008-10.224,0.504C62.208,189.396,52.704,190.332,43.416,190.404
		L43.416,190.404z M30.24,190.044c-1.152-0.144-2.304-0.216-3.384-0.288c-0.072-0.144-0.144-0.288-0.216-0.36
		c2.88-1.368,5.904-2.304,9.216-3.384c0,1.296,0.072,2.5919,0.144,3.888C34.056,189.9,32.112,189.972,30.24,190.044L30.24,190.044z
		 M87.12,188.604c-1.08-0.072-2.16-0.144-3.24-0.216c-0.072-0.936-0.288-1.296-0.288-6.12c10.296-10.296,22.32-8.352,37.008-8.064
		c3.456-0.144,56.592-3.456,57.312-2.736c0,0.288,0.072,0.576,0.144,0.864c1.152-0.072,1.152-0.72,1.44-1.44
		c4.68-0.0721,4.68-0.0721,4.824,0.144c-1.368,1.944-19.728,10.512-23.76,11.088c-0.144,0.288-0.216,0.576-0.288,0.864
		c-5.184,0.936-48.888,2.52-49.176,2.952C102.96,187.236,94.752,188.244,87.12,188.604L87.12,188.604z M169.416,181.476
		c-0.072-0.216-0.144-0.432-0.216-0.648c6.336-1.872,12.312-6.84,18.36-9.864c6.192-2.016,17.424-1.584,25.056-1.584
		c0.648,0.2881-1.728,7.704-2.16,8.64C196.704,178.452,182.232,182.124,169.416,181.476L169.416,181.476z M212.616,178.02
		c-0.216-0.144-0.432-0.216-0.648-0.288c1.296-11.088,5.832-8.424,15.048-10.152c5.112,0,10.656-1.224,16.344-0.576
		c0,2.304-2.5201,5.976-3.744,8.136C230.472,175.14,221.04,178.02,212.616,178.02L212.616,178.02z M242.136,174.924
		c-0.576-0.288,2.736-6.912,2.736-7.056c2.664-2.664,23.616-4.536,29.808-5.04c-0.792,3.528-3.9601,6.408-5.04,10.152
		C261.36,174.852,250.272,174.636,242.136,174.924L242.136,174.924z M93.816,173.196c-0.072-0.576-0.144-1.08-0.144-1.584
		c3.24-3.24,6.912-22.248,8.496-27.144c1.008-4.68,27.864-3.6,33.192-3.744c0.216,0.072,0.432,0.144,0.72,0.288
		c-2.952,5.904-19.8,20.808-19.8,26.9279c2.376,0.936,8.064-0.432,11.16-0.72c14.832-0.936,29.952-2.088,44.856-2.52
		c0.432,0.36,2.232,2.736,1.944,4.32c-14.112,1.44-29.232,1.368-42.84,2.16C119.952,168.948,105.048,173.844,93.816,173.196
		L93.816,173.196z M272.0161,173.052c0.792-3.96,4.032-7.272,5.688-10.8c9.432-1.08,20.952,0,30.456-1.872
		c0.072,0.144,0.216,0.2881,0.36,0.432c-0.792,2.232-3.4561,8.496-5.04,10.08C292.536,170.892,282.456,172.764,272.0161,173.052
		L272.0161,173.052z M313.2,171.324c-2.808-1.368-5.544-0.144-7.704-0.072c0.72-3.744,2.952-7.56,4.968-10.44
		c9.72-0.072,20.448-0.792,30.672,0.072c0.072,0.144,0.216,0.2881,0.36,0.432c-1.152,2.592-2.952,5.688-3.816,8.424
		C329.4,170.748,321.048,171.108,313.2,171.324L313.2,171.324z M340.056,169.668c0.288-2.0161,2.88-6.984,4.104-8.496
		c9.288,0,19.584,0.504,29.5201,1.8c0,0.72-2.16,4.248-2.808,5.256C361.008,170.388,349.488,168.444,340.056,169.668
		L340.056,169.668z M180.936,169.38c-0.936-0.936-2.232-0.504-2.736-0.504c-1.008-1.728-2.016-2.808-1.8-4.176
		c6.192,0.144,12.456,0.36,18.72,0.576C192.456,168.876,184.824,169.38,180.936,169.38L180.936,169.38z M456.48,169.092
		c0-0.288,0-0.504,0.072-0.72c2.088-0.072,2.088-0.072,3.024,0.144c-0.072,0.072-0.144,0.144-0.216,0.288
		C458.3521,168.876,457.416,168.948,456.48,169.092L456.48,169.092z M373.6801,168.444c-0.288-0.072-0.576-0.072-0.864-0.072
		c0-1.44,2.592-4.32,3.024-5.04c6.912,0,18.792-1.44,25.992,0.72c0,1.08-0.72,3.096-1.8,4.176
		C391.248,168.3,382.4641,168.372,373.6801,168.444L373.6801,168.444z M402.12,168.3c-1.224-0.576,1.44-2.664,2.16-3.888
		c1.224,0,22.68,0.288,24.048,1.656c-0.144,0.504-0.288,1.008-0.432,1.512C419.76,167.652,409.4641,167.076,402.12,168.3
		L402.12,168.3z M197.496,168.012c1.08-3.384,16.128-4.896,18.144-3.744C215.64,168.516,201.312,167.652,197.496,168.012
		L197.496,168.012z M466.776,167.94c-3.96-0.36-7.848-0.72-11.736-1.008c0-2.52,9.432-16.2,11.16-19.152
		c17.28-2.304,11.952-0.792,6.552,16.848c-0.72,1.224-0.72,1.224-1.44,3.24C469.8,167.868,468.288,167.868,466.776,167.94
		L466.776,167.94z M430.056,167.508c0-0.288,0-0.504,0-0.72c1.8-1.08,3.384-0.504,6.12-0.144
		C434.016,167.364,431.856,167.364,430.056,167.508L430.056,167.508z M444.6,166.86c-4.608-1.152-8.424-1.44-12.528-1.872
		c0-3.456,7.632-13.896,9.648-16.704c6.5519-0.072,13.1039-0.144,19.656-0.216c-0.36,2.664-7.344,15.48-9.504,17.064
		c0,0.576,0.144,0.648,1.0081,0.648c1.8-2.232,3.384-5.688,4.752-7.992c0.072,0.072,0.216,0.216,0.36,0.36
		c-1.224,3.024-3.0241,5.688-4.752,8.496C450.36,166.716,447.48,166.788,444.6,166.86L444.6,166.86z M217.8,166.644
		c-0.36-0.144-0.72-0.288-1.008-0.432c0-4.752,9.792-3.096,13.104-2.808c0.936-0.936,3.096-1.152,3.096-2.376
		c-0.864-0.864-0.72-1.08-0.648-1.656c4.464-0.288,10.2961-2.52,13.464,3.096C245.808,166.14,223.416,165.852,217.8,166.644
		L217.8,166.644z M246.816,165.132c0.072-0.504,0.216-1.008,0.36-1.44c0.36,0,2.376-0.288,2.88,0.72
		C248.688,165.204,247.896,165.06,246.816,165.132L246.816,165.132z M426.2401,164.7c-3.744-0.36-7.488-0.72-11.16-1.008
		c1.296-4.608,3.888-10.944,5.688-15.48c11.088-0.288,11.088-0.288,16.128-0.144c-2.52,5.544-6.624,10.08-8.784,16.56
		C427.464,164.628,426.816,164.628,426.2401,164.7L426.2401,164.7z M410.76,163.764c-4.464-0.504-4.464-0.504-5.256-0.792
		c0-3.024,6.408-13.896,7.632-14.688c2.088-0.072,4.176-0.072,6.264-0.072c0,2.52-4.176,10.8-5.472,14.76
		C413.928,163.98,411.048,163.764,410.76,163.764L410.76,163.764z M399.9601,162.684C396,162.54,396,162.54,395.208,162.252
		c0-4.464,3.96-9.36,4.752-13.32c3.096-0.288,3.096-0.288,11.016-0.504C408.816,153.468,405.576,162.324,399.9601,162.684
		L399.9601,162.684z M379.656,162.324c-0.936-0.072-1.872-0.144-2.736-0.216c0-2.16,5.256-11.664,6.12-12.528
		c4.176-1.224,11.016-0.648,15.84-0.648c0,2.52-3.888,10.08-5.112,12.96C388.8,162.468,384.336,162.18,379.656,162.324
		L379.656,162.324z M370.8,161.82c-1.368-0.144-2.664-0.216-3.96-0.288c0.288-3.6,4.176-9.36,5.76-12.312
		c2.304-0.216,4.752-0.288,7.92,0.144c0,2.52-4.32,9.36-5.688,12.384C373.4641,161.748,372.096,161.748,370.8,161.82L370.8,161.82z
		 M364.32,161.46c-1.872-1.08-16.92-1.368-19.296-1.512c0-3.744,2.376-10.44,6.336-11.088c24.696,0.648,20.448-4.608,13.896,12.6
		C364.896,161.46,364.608,161.46,364.32,161.46L364.32,161.46z M279,161.028c0-1.944,1.08-3.744,2.16-4.824
		c0.72-0.072,23.544-3.384,24.696-2.232c-0.936,1.728-1.872,3.528-2.7361,5.328C295.56,160.812,286.56,160.164,279,161.028
		L279,161.028z M431.496,160.38c-1.296-0.6479,3.024-6.192,3.528-6.7679c0.072,0.072,0.144,0.144,0.2881,0.216
		C434.016,155.988,432.72,158.148,431.496,160.38L431.496,160.38z M314.28,159.804c-1.008-0.072-2.016-0.144-2.952-0.216
		c0.288-2.664,1.728-5.112,2.664-7.416c8.208-2.7361,18.504-2.664,27.648-2.88c0,0.36-3.96,9.432-5.4,10.368
		C328.824,159.66,321.192,159.372,314.28,159.804L314.28,159.804z M338.976,159.804c-0.216-0.144-0.432-0.288-0.648-0.432
		c0-2.088,4.32-7.632,5.472-10.152c2.016,0,2.016,0,2.88,0.288c-0.432,3.024-2.808,7.056-4.248,10.08
		C341.28,159.66,340.128,159.732,338.976,159.804L338.976,159.804z M307.08,159.444c-0.7921-0.072-1.512-0.144-2.232-0.216
		c0-2.808,2.808-4.464,3.312-6.48c1.368-0.216,2.736-0.36,4.176-0.504c0,1.656-2.016,5.184-3.096,7.056
		C308.5201,159.3,307.8,159.372,307.08,159.444L307.08,159.444z M274.176,159.084c-0.432-0.288-0.864-0.576-1.224-0.792
		c0.072-0.36,0.144-0.72,0.216-1.08c0.936-0.216,1.872-0.36,2.808-0.504c-0.288,1.224-0.288,1.224-1.008,2.304
		C274.6801,159.012,274.392,159.012,274.176,159.084L274.176,159.084z M458.28,157.86c-0.144-0.144-0.2879-0.288-0.3599-0.36
		c2.016-3.096,3.456-6.264,4.968-9.288c0.288,0,0.6479,0,1.0079,0C462.384,151.308,460.512,154.764,458.28,157.86L458.28,157.86z
		 M229.176,156.78c-5.472-1.368-13.32-11.736-18.216-13.32c-3.024-2.736-3.024-2.736-3.744-3.744c4.176-0.36,8.3521-0.72,12.6-1.008
		c0,2.448,16.416,13.536,16.416,16.92C234.288,156.636,230.76,156.636,229.176,156.78L229.176,156.78z M273.2401,155.556
		c-1.656-1.656-3.4561,1.08-3.4561-1.368c2.592-1.08,7.128-1.08,10.5121-1.224c0.072,0.072,0.216,0.144,0.36,0.288
		C279.648,154.908,274.536,155.988,273.2401,155.556L273.2401,155.556z M282.6,154.26c-0.288-0.288-0.288-0.288-0.288-1.152
		c1.728-1.296,16.704-2.304,21.384-2.52c0,0.216,0,0.432,0.072,0.72C297,152.82,288.864,154.26,282.6,154.26L282.6,154.26z
		 M437.256,150.228c0-1.008,0.504-1.008,0.864-1.296c0,0.144,0,0.36,0.0721,0.576C437.832,149.724,437.544,149.94,437.256,150.228
		L437.256,150.228z M101.52,141.3c-0.288-0.432-0.288-0.432-0.36-1.152c0.72,0.072,1.44,0.144,2.16,0.216
		c0.432-0.288,0.648-0.864,0.72-1.152c14.4-0.144,30.024-0.864,44.64-2.592c2.664,0,2.16-0.144,3.96,2.592
		C152.496,139.5,106.776,141.3,101.52,141.3L101.52,141.3z M158.76,139.644c-0.936-0.072-1.8-0.144-2.664-0.144
		c-0.864-1.152-1.008-1.656-1.08-2.232c14.544-1.944,31.248-1.08,46.44-2.088c5.328-0.072,9.216-2.448,12.384,2.592
		c-0.6479,1.368-23.904,0-29.664,1.008C183.168,137.772,161.568,139.572,158.76,139.644L158.76,139.644z M215.64,138.132
		c-0.504-1.368-1.44-2.376-1.2961-3.24c4.968-0.432,27.216-5.472,30.6721-2.88c0.504,0.72,1.008,0.504,1.296,2.16
		C236.376,133.812,225,137.556,215.64,138.132L215.64,138.132z M106.92,136.98c-0.144-0.216-3.24-0.216-4.392-0.432
		c1.368-3.384,2.808-6.696,4.248-10.008c10.584,1.728,22.608-1.728,33.84-2.16c0.288,0,6.264,6.408,6.264,8.424
		c-10.656,2.016-23.616,2.952-33.984,3.24C111.672,136.764,107.928,136.98,106.92,136.98L106.92,136.98z M153.576,132.804
		c-3.528,0-9.216-6.624-9.216-8.784c4.68-0.648,8.856-1.296,14.04-1.296c0.216,2.016-0.936,5.472,0.144,7.704
		c1.008-1.008,0.72-6.048,1.008-7.776c4.464-0.36,11.16-1.656,16.128-0.864c0.072,2.304,0.216,5.472,0,8.28
		c0.288-0.072,0.648-0.144,1.008-0.216c0-2.736,0.072-5.4,0.144-8.064c2.448-1.224,18.072-3.96,22.464-2.88
		c0,2.592,9.288,9.144,8.64,11.952c-6.696,1.656-13.392,0.72-19.44,1.44C179.136,132.444,177.84,132.66,153.576,132.804
		L153.576,132.804z M210.96,130.86c-1.44,0-9.432-11.376-9.432-12.168c2.808-2.808,20.376-4.176,25.128-4.464
		c0.288,1.728,10.512,10.224,12.672,12.24c0,0.144,0,0.288,0,0.504c-2.016,1.296-4.248,0.288-6.048,1.368
		C226.008,129.06,217.872,130.284,210.96,130.86L210.96,130.86z M111.456,125.604c-0.216-0.072-0.432-0.072-0.576-0.072
		c0-7.056,19.224-7.992,24.12-7.992c0.36,0.576,5.112,3.888,4.536,5.76C130.032,124.452,120.456,125.388,111.456,125.604
		L111.456,125.604z M107.496,125.316c-0.216-0.216-0.432-0.36-0.648-0.504c0.864-11.376,5.4-23.184,6.912-33.984
		c0.216,0,0.432,0.072,0.648,0.144c0,4.968-2.088,12.888-3.096,18.216C109.224,111.276,110.52,126.036,107.496,125.316
		L107.496,125.316z M142.92,122.796c-1.584-1.656-4.752-4.752-5.04-6.048c5.76-2.304,13.752-3.672,20.52-4.536
		c0,0.648,0,1.368,0,2.088c-2.448,0.504-4.896,1.08-7.344,1.656c0.072,0.144,0.216,0.288,0.36,0.504
		c1.08-0.144,12.456-2.5201,6.84,5.04C153.576,122.148,147.24,123.228,142.92,122.796L142.92,122.796z M110.88,121.788
		c-0.072-2.16,3.888-28.728,5.616-28.728c2.304,2.304,17.496,22.968,17.28,23.4c-2.232,0.288-17.064,4.032-18.72,1.584
		c-0.36,0-0.648,0-0.936,0C113.904,119.34,112.176,121.356,110.88,121.788L110.88,121.788z M159.84,121.572c0-0.576,0-1.08,0-1.584
		c0.288,0,0.576,0,0.936,0c0.144,0.504,0.432,0.72,0.432,1.224C160.776,121.5,160.776,121.5,159.84,121.572L159.84,121.572z
		 M136.656,115.74c-3.024-3.024-6.912-11.304-9.216-12.456c-4.68-4.68-14.4-14.832-9.72-21.888
		c7.704-0.504,15.48-1.296,23.616-2.304C141.408,82.188,141.048,115.74,136.656,115.74L136.656,115.74z M140.256,114.804
		c-0.792-1.656,2.448-36,3.744-36c0,11.232-1.656,22.824-1.44,34.56c0.72,0,0.72,0,1.008-0.216c0.36-4.68-0.216-33.696,3.312-34.848
		c4.032-0.144,8.064-0.288,12.096-0.432c0.216,9.504,0.288,19.44-0.288,29.304C153.432,113.364,147.672,113.652,140.256,114.804
		L140.256,114.804z M160.056,113.724c-0.072-0.648-0.144-1.296-0.144-1.872c4.248-1.152,11.736-4.176,16.344-3.96
		C176.256,111.924,162.36,113.724,160.056,113.724L160.056,113.724z M160.2,110.412c0-2.088,14.184-16.848,15.696-16.848
		c1.008,2.088,0.432,9.144,0.432,12.168C175.68,107.028,162.576,110.268,160.2,110.412L160.2,110.412z M178.056,108.9
		c-0.648-1.008-0.504-0.936-0.504-1.512c1.584-1.584,6.12-2.448,8.928-2.376c0.144,0.216,0.792,0.72,0.576,1.728
		C183.6,107.172,181.008,108.108,178.056,108.9L178.056,108.9z M190.8,106.02c-0.792-0.792-1.08-1.152-0.936-1.872
		c3.168-1.584,17.352-1.872,22.032-2.448c4.968-0.288,10.368,0.072,15.84,0c0.144,0.144,0.72,1.152,0.504,2.16
		C215.928,103.932,202.464,106.02,190.8,106.02L190.8,106.02z M160.056,105.444c-0.072-9.216-0.144-18.432-0.144-27.576
		c0.36-0.144,0.792-0.216,1.224-0.288c6.12,12.24,20.16,10.008,4.176,23.328C164.736,101.556,160.488,105.876,160.056,105.444
		L160.056,105.444z M178.2,105.444c-0.216-0.072-0.36-0.072-0.504-0.072c-0.36-2.52-0.864-8.64,0.864-9.072
		c1.872,1.656,3.744,3.384,5.616,5.112c-0.072,0.072-0.144,0.216-0.216,0.36c0.936,0.792,0.936,0.792,1.296,1.44
		C184.392,104.076,179.28,105.444,178.2,105.444L178.2,105.444z M192.2401,102.204c-0.216-0.072-1.8-22.608-1.8-25.272
		c0.936,0,1.872,0,2.88,0c0,3.096,10.584,8.568,11.592,12.6C201.312,93.348,197.136,101.844,192.2401,102.204L192.2401,102.204z
		 M187.2,102.06c-2.808-1.656-8.928-10.008-8.928-11.952c1.872-1.872,6.552-10.224,8.784-9.792
		c0.36,6.696,0.576,14.184,0.576,21.672C187.488,101.988,187.344,101.988,187.2,102.06L187.2,102.06z M197.28,101.772
		c1.5121-3.816,6.12-7.776,8.64-11.232c0.936,0,9.432,7.848,8.856,9.72C208.872,100.764,202.824,101.628,197.28,101.772
		L197.28,101.772z M220.6801,100.62c-1.224-0.216-2.448-0.36-3.6-0.504c-1.584-3.168-0.288-13.392-0.288-16.344
		C217.08,83.7,217.44,83.7,217.8,83.7c0.936,0.936,5.0399,11.736,5.472,13.752c0.576,0.288,1.656,1.008,1.368,2.808
		C223.056,100.404,222.336,100.62,220.6801,100.62L220.6801,100.62z M226.2961,100.404c-4.1761-7.776-5.472-15.84-9.864-22.752
		c-0.072-0.504-0.144-1.008-0.144-1.44c0.288-0.072,0.648-0.072,1.008-0.072c3.672,5.328,9.288,16.704,10.152,24.048
		C227.16,100.404,227.16,100.404,226.2961,100.404L226.2961,100.404z M214.92,97.236c-3.528-3.528-12.456-11.5201-2.304-13.176
		c1.008-1.224,1.296-3.456,2.664-3.456c0.504,1.584,0.936,15.12-0.072,16.704C215.064,97.236,214.992,97.236,214.92,97.236
		L214.92,97.236z M189.36,93.492c-0.144-1.368-0.288-2.664-0.36-3.96c0.288,0,0.576,0,0.936,0c-0.072,1.224-0.144,2.52-0.144,3.816
		C189.648,93.348,189.504,93.42,189.36,93.492L189.36,93.492z M174.96,88.884c-2.664-1.872-9.648-10.224-10.08-11.376
		c8.496-0.648,16.704-2.088,11.52,10.8719C175.896,88.524,175.392,88.668,174.96,88.884L174.96,88.884z M206.136,87.66
		c-3.744-3.672-7.92-7.776-11.664-10.008c0-1.368,16.992-1.512,19.584-1.512c0.36,0.432,0.36,0.432,0.432,1.152
		C211.824,79.524,208.872,86.796,206.136,87.66L206.136,87.66z M114.696,87.588c-0.144-2.088,0.288-4.68,0.864-6.12
		c0.216,0,0.432,0,0.72,0c-0.36,1.872-0.72,3.816-1.008,5.76C115.056,87.3,114.84,87.444,114.696,87.588L114.696,87.588z
		 M189,86.652c0-0.504,0-1.008,0-1.44c0.144,0,0.36,0,0.576,0c-0.0721,0.432-0.144,0.864-0.144,1.2961
		C189.288,86.508,189.144,86.58,189,86.652L189,86.652z M178.2,85.86c-0.792-0.792-0.36-6.624-0.36-7.632
		c1.8,0,4.536-0.936,7.416-1.08C185.256,77.724,178.776,85.5,178.2,85.86L178.2,85.86z M117.36,80.1
		c-1.584-0.072-4.248-0.072-4.248-1.368c11.232-4.176,26.28-2.376,38.808-4.608c2.232-0.144,4.464-0.288,6.696-0.36
		c0.216,1.584,0.216,1.584,0.072,2.664C145.368,77.652,130.248,80.1,117.36,80.1L117.36,80.1z M178.056,76.572
		c0-1.008,0.072-2.016,0.144-3.024c6.48-0.432,32.976-3.816,39.096,0.288C215.64,76.14,181.008,76.284,178.056,76.572
		L178.056,76.572z M160.056,76.284c-0.144-0.936-0.216-1.872-0.288-2.736c2.952-1.44,12.672-0.288,17.208,0
		c-0.072,0.864-0.144,1.728-0.216,2.592C171.144,76.14,165.6,76.212,160.056,76.284L160.056,76.284z"/>
</g>
</svg>
