<svg xmlns="http://www.w3.org/2000/svg" viewBox="0 0 529.31 137.33"><defs><style>.cls-1,.cls-2,.cls-3{fill:#fff;}.cls-1,.cls-2,.cls-23,.cls-24{stroke:#231f20;}.cls-1{stroke-width:2px;}.cls-4{fill:#f2f2f3;}.cls-5{fill:#e7e8e9;}.cls-6{fill:#dcddde;}.cls-7{fill:#d1d3d4;}.cls-8{fill:#c5c7c9;}.cls-9{fill:#babcbe;}.cls-10{fill:#b0b2b5;}.cls-11{fill:#a6a8aa;}.cls-12{fill:#9a9c9f;}.cls-13{fill:#909295;}.cls-14{fill:#86888b;}.cls-15{fill:#7b7d7f;}.cls-16{fill:#717375;}.cls-17{fill:#67686b;}.cls-18{fill:#5d5e61;}.cls-19{fill:#525355;}.cls-20{fill:#444446;}.cls-21{fill:#373537;}.cls-22,.cls-23,.cls-24{fill:#231f20;}.cls-23{stroke-width:0.21px;}.cls-25{fill:#948885;}.cls-26{fill:#2d2b2c;}.cls-27{fill:#dadcdd;}</style></defs><title>BE19000</title><g id="Layer_2" data-name="Layer 2"><g id="Layer_1-2" data-name="Layer 1"><path class="cls-1" d="M380.26,56.3,493.52,68.76,517.21,7.92c-13.39.22-28.58-2-44.64-.22L447.66,36.5Z"/><path class="cls-1" d="M12.92,85.6c14.76-6.12,32.4-10.87,49.82-13.75A58.61,58.61,0,0,1,82.33,58.24c9.58-4,14.91-3.38,25-3.53,67.82,0,160.42.22,228.24.22,7.27.22,48.31-.58,55.22.79L495.61,68.4c1.22,3.1-3,12.24-4.82,12.53-57,13.54-109.58,27.36-151.92,28.22-89.28-.07-178.34.5-268.13.5-23.18.72-42.19-1.66-57.89-6.55C-5.08,95.76-.69,93.09,12.92,85.6Z"/><polygon class="cls-1" points="485.67 90.36 489.27 80.2 391.28 103.03 485.67 90.36"/><path class="cls-2" d="M107.53,100.94h18.65a1,1,0,0,0,1-.94V60.26a1.09,1.09,0,0,0-1.08-.94l-18.43-.07a1.17,1.17,0,0,0-1.15,1L106.45,100A1,1,0,0,0,107.53,100.94Z"/><path class="cls-3" d="M161.89,73.29a2.74,2.74,0,0,0,3.17,0Z"/><path class="cls-4" d="M161.89,73.29a2.25,2.25,0,0,1-.65-.5h4.46a2.25,2.25,0,0,1-.65.5Z"/><path class="cls-5" d="M161.24,72.79a1.93,1.93,0,0,1-.5-.58h5.47a1.92,1.92,0,0,1-.5.58Z"/><path class="cls-6" d="M160.74,72.21c-.14-.14-.22-.36-.36-.5h6.19c-.14.14-.22.36-.36.5Z"/><path class="cls-7" d="M160.38,71.71a2.15,2.15,0,0,0-.29-.58h6.77a2.14,2.14,0,0,0-.29.58Z"/><path class="cls-8" d="M160.09,71.13a1.33,1.33,0,0,0-.14-.5H167a1.33,1.33,0,0,0-.14.5Z"/><path class="cls-9" d="M159.94,70.63a1.7,1.7,0,0,1-.14-.58h7.34a1.69,1.69,0,0,1-.14.58Z"/><path class="cls-10" d="M159.8,70.05c-.07-.14-.07-.36-.14-.5h7.63c-.07.14-.07.36-.14.5Z"/><path class="cls-11" d="M159.66,69.55a1.58,1.58,0,0,0-.07-.58h7.78a1.58,1.58,0,0,0-.07.58Z"/><path class="cls-12" d="M159.58,69V68.4h7.78V69Z"/><path class="cls-13" d="M159.58,68.4v-.5h7.78v.5h-7.78Z"/><path class="cls-14" d="M159.58,67.89c0-.22.07-.36.07-.58h7.63c0,.22.07.36.07.58Z"/><path class="cls-15" d="M159.66,67.32c0-.14.07-.36.07-.5h7.49c0,.14.07.36.07.5Z"/><path class="cls-16" d="M159.73,66.81c.07-.22.14-.36.22-.58H167c.07.22.14.36.22.58Z"/><path class="cls-17" d="M159.94,66.24a1.33,1.33,0,0,1,.14-.5h6.77a1.34,1.34,0,0,1,.14.5Z"/><path class="cls-18" d="M160.09,65.73a2.15,2.15,0,0,1,.29-.58h6.19a2.16,2.16,0,0,1,.29.58Z"/><path class="cls-19" d="M160.38,65.16c.07-.14.22-.36.29-.5h5.62c.07.14.22.36.29.5Z"/><path class="cls-20" d="M160.66,64.65a2,2,0,0,1,.5-.58h4.61a2,2,0,0,1,.5.58Z"/><path class="cls-21" d="M161.17,64.08a2.83,2.83,0,0,1,.72-.58h3.17a2.84,2.84,0,0,1,.72.58Z"/><path class="cls-22" d="M161.89,63.5a2.74,2.74,0,0,1,3.17,0Z"/><path class="cls-2" d="M163.47,73.8c2.16,0,3.89-2.45,3.89-5.4s-1.73-5.4-3.89-5.4-3.89,2.45-3.89,5.4S161.31,73.8,163.47,73.8Z"/><path class="cls-3" d="M185.22,73.29a2.74,2.74,0,0,0,3.17,0Z"/><path class="cls-4" d="M185.22,73.29a2.25,2.25,0,0,1-.65-.5H189a2.25,2.25,0,0,1-.65.5Z"/><path class="cls-5" d="M184.57,72.79a1.92,1.92,0,0,1-.5-.58h5.47a1.93,1.93,0,0,1-.5.58Z"/><path class="cls-6" d="M184.06,72.21c-.14-.14-.22-.36-.36-.5h6.19c-.14.14-.22.36-.36.5Z"/><path class="cls-7" d="M183.7,71.71a2.14,2.14,0,0,0-.29-.58h6.77a2.16,2.16,0,0,0-.29.58Z"/><path class="cls-8" d="M183.42,71.13a1.33,1.33,0,0,0-.14-.5h7.06a1.33,1.33,0,0,0-.14.5Z"/><path class="cls-9" d="M183.27,70.63a1.7,1.7,0,0,1-.14-.58h7.34a1.69,1.69,0,0,1-.14.58Z"/><path class="cls-10" d="M183.13,70.05c-.07-.14-.07-.36-.14-.5h7.63c-.07.14-.07.36-.14.5Z"/><path class="cls-11" d="M183,69.55a1.58,1.58,0,0,0-.07-.58h7.78a1.59,1.59,0,0,0-.07.58Z"/><path class="cls-12" d="M182.91,69V68.4h7.78V69Z"/><path class="cls-13" d="M182.91,68.4v-.5h7.78v.5h-7.78Z"/><path class="cls-14" d="M182.91,67.89c0-.22.07-.36.07-.58h7.63c0,.22.07.36.07.58Z"/><path class="cls-15" d="M183,67.32c0-.14.07-.36.07-.5h7.49c0,.14.07.36.07.5Z"/><path class="cls-16" d="M183.06,66.81c.07-.22.14-.36.22-.58h7.06c.07.22.14.36.22.58Z"/><path class="cls-17" d="M183.27,66.24a1.34,1.34,0,0,1,.14-.5h6.77a1.34,1.34,0,0,1,.14.5Z"/><path class="cls-18" d="M183.42,65.73a2.16,2.16,0,0,1,.29-.58h6.19a2.14,2.14,0,0,1,.29.58Z"/><path class="cls-19" d="M183.7,65.16c.07-.14.22-.36.29-.5h5.62c.07.14.22.36.29.5Z"/><path class="cls-20" d="M184,64.65a2,2,0,0,1,.5-.58h4.61a2,2,0,0,1,.5.58Z"/><path class="cls-21" d="M184.5,64.08a2.84,2.84,0,0,1,.72-.58h3.17a2.83,2.83,0,0,1,.72.58Z"/><path class="cls-22" d="M185.22,63.5a2.74,2.74,0,0,1,3.17,0Z"/><path class="cls-2" d="M186.8,73.8c2.16,0,3.89-2.45,3.89-5.4S189,63,186.8,63s-3.89,2.45-3.89,5.4S184.64,73.8,186.8,73.8Z"/><path class="cls-3" d="M208.4,73.29a2.74,2.74,0,0,0,3.17,0Z"/><path class="cls-4" d="M208.4,73.29a2.25,2.25,0,0,1-.65-.5h4.46a2.26,2.26,0,0,1-.65.5Z"/><path class="cls-5" d="M207.75,72.79a1.93,1.93,0,0,1-.5-.58h5.47a1.93,1.93,0,0,1-.5.58Z"/><path class="cls-6" d="M207.25,72.21c-.14-.14-.22-.36-.36-.5h6.19c-.14.14-.22.36-.36.5Z"/><path class="cls-7" d="M206.89,71.71a2.15,2.15,0,0,0-.29-.58h6.77a2.16,2.16,0,0,0-.29.58Z"/><path class="cls-8" d="M206.6,71.13a1.33,1.33,0,0,0-.14-.5h7.06a1.33,1.33,0,0,0-.14.5Z"/><path class="cls-9" d="M206.46,70.63a1.71,1.71,0,0,1-.14-.58h7.34a1.71,1.71,0,0,1-.14.58Z"/><path class="cls-10" d="M206.31,70.05c-.07-.14-.07-.36-.14-.5h7.63c-.07.14-.07.36-.14.5Z"/><path class="cls-11" d="M206.17,69.55a1.58,1.58,0,0,0-.07-.58h7.78a1.59,1.59,0,0,0-.07.58Z"/><path class="cls-12" d="M206.1,69V68.4h7.78V69Z"/><path class="cls-13" d="M206.1,68.4v-.5h7.78v.5H206.1Z"/><path class="cls-14" d="M206.1,67.89c0-.22.07-.36.07-.58h7.63c0,.22.07.36.07.58Z"/><path class="cls-15" d="M206.17,67.32c0-.14.07-.36.07-.5h7.49c0,.14.07.36.07.5Z"/><path class="cls-16" d="M206.24,66.81c.07-.22.14-.36.22-.58h7.06c.07.22.14.36.22.58Z"/><path class="cls-17" d="M206.46,66.24a1.34,1.34,0,0,1,.14-.5h6.77a1.34,1.34,0,0,1,.14.5Z"/><path class="cls-18" d="M206.6,65.73a2.16,2.16,0,0,1,.29-.58h6.19a2.14,2.14,0,0,1,.29.58Z"/><path class="cls-19" d="M206.89,65.16c.07-.14.22-.36.29-.5h5.62c.07.14.22.36.29.5Z"/><path class="cls-20" d="M207.18,64.65a2,2,0,0,1,.5-.58h4.61a1.94,1.94,0,0,1,.5.58Z"/><path class="cls-21" d="M207.68,64.08a2.83,2.83,0,0,1,.72-.58h3.17a2.83,2.83,0,0,1,.72.58Z"/><path class="cls-22" d="M208.4,63.5a2.74,2.74,0,0,1,3.17,0Z"/><path class="cls-2" d="M210,73.8c2.16,0,3.89-2.45,3.89-5.4S212.14,63,210,63s-3.89,2.45-3.89,5.4S207.82,73.8,210,73.8Z"/><path class="cls-3" d="M232.3,73.29a2.74,2.74,0,0,0,3.17,0Z"/><path class="cls-4" d="M232.3,73.29a2.25,2.25,0,0,1-.65-.5h4.46a2.27,2.27,0,0,1-.65.5Z"/><path class="cls-5" d="M231.66,72.79a1.94,1.94,0,0,1-.5-.58h5.47a1.93,1.93,0,0,1-.5.58Z"/><path class="cls-6" d="M231.15,72.21c-.14-.14-.22-.36-.36-.5H237c-.14.14-.22.36-.36.5Z"/><path class="cls-7" d="M230.79,71.71a2.15,2.15,0,0,0-.29-.58h6.77a2.16,2.16,0,0,0-.29.58Z"/><path class="cls-8" d="M230.5,71.13a1.34,1.34,0,0,0-.14-.5h7.06a1.33,1.33,0,0,0-.14.5Z"/><path class="cls-9" d="M230.36,70.63a1.69,1.69,0,0,1-.14-.58h7.34a1.67,1.67,0,0,1-.15.58Z"/><path class="cls-10" d="M230.22,70.05c-.07-.14-.07-.36-.14-.5h7.63c-.07.14-.07.36-.14.5Z"/><path class="cls-11" d="M230.07,69.55A1.59,1.59,0,0,0,230,69h7.77a1.58,1.58,0,0,0-.07.58Z"/><path class="cls-12" d="M230,69V68.4h7.77V69Z"/><path class="cls-13" d="M230,68.4v-.5h7.77v.5H230Z"/><path class="cls-14" d="M230,67.89c0-.22.07-.36.07-.58h7.63c0,.22.07.36.07.58Z"/><path class="cls-15" d="M230.07,67.32c0-.14.07-.36.07-.5h7.49c0,.14.07.36.07.5Z"/><path class="cls-16" d="M230.14,66.81c.07-.22.14-.36.22-.58h7.06c.07.22.15.36.22.58Z"/><path class="cls-17" d="M230.36,66.24a1.33,1.33,0,0,1,.14-.5h6.77a1.34,1.34,0,0,1,.14.5Z"/><path class="cls-18" d="M230.5,65.73a2.15,2.15,0,0,1,.29-.58H237a2.14,2.14,0,0,1,.29.58Z"/><path class="cls-19" d="M230.79,65.16c.07-.14.22-.36.29-.5h5.62c.07.14.22.36.29.5Z"/><path class="cls-20" d="M231.08,64.65a1.94,1.94,0,0,1,.51-.58h4.61a2,2,0,0,1,.5.58Z"/><path class="cls-21" d="M231.59,64.08a2.81,2.81,0,0,1,.72-.58h3.17a2.82,2.82,0,0,1,.72.58Z"/><path class="cls-22" d="M232.3,63.5a2.74,2.74,0,0,1,3.17,0Z"/><path class="cls-2" d="M233.89,73.8c2.16,0,3.89-2.45,3.89-5.4S236,63,233.89,63,230,65.44,230,68.4,231.73,73.8,233.89,73.8Z"/><path class="cls-3" d="M256.28,73.29a2.74,2.74,0,0,0,3.17,0Z"/><path class="cls-4" d="M256.28,73.29a2.25,2.25,0,0,1-.65-.5h4.46a2.25,2.25,0,0,1-.65.5Z"/><path class="cls-5" d="M255.63,72.79a1.92,1.92,0,0,1-.5-.58h5.47a1.93,1.93,0,0,1-.5.58Z"/><path class="cls-6" d="M255.13,72.21c-.14-.14-.22-.36-.36-.5H261c-.14.14-.22.36-.36.5Z"/><path class="cls-7" d="M254.77,71.71a2.15,2.15,0,0,0-.29-.58h6.77a2.14,2.14,0,0,0-.29.58Z"/><path class="cls-8" d="M254.48,71.13a1.33,1.33,0,0,0-.14-.5h7.06a1.33,1.33,0,0,0-.14.5Z"/><path class="cls-9" d="M254.34,70.63a1.7,1.7,0,0,1-.14-.58h7.34a1.68,1.68,0,0,1-.15.58Z"/><path class="cls-10" d="M254.19,70.05c-.07-.14-.07-.36-.14-.5h7.63c-.07.14-.07.36-.14.5Z"/><path class="cls-11" d="M254,69.55A1.58,1.58,0,0,0,254,69h7.78a1.58,1.58,0,0,0-.07.58Z"/><path class="cls-12" d="M254,69V68.4h7.78V69Z"/><path class="cls-13" d="M254,68.4v-.5h7.78v.5H254Z"/><path class="cls-14" d="M254,67.89c0-.22.07-.36.07-.58h7.63c0,.22.07.36.07.58Z"/><path class="cls-15" d="M254,67.32c0-.14.07-.36.07-.5h7.49c0,.14.07.36.07.5Z"/><path class="cls-16" d="M254.12,66.81c.07-.22.14-.36.22-.58h7.06c.07.22.15.36.22.58Z"/><path class="cls-17" d="M254.34,66.24a1.34,1.34,0,0,1,.14-.5h6.77a1.33,1.33,0,0,1,.14.5Z"/><path class="cls-18" d="M254.48,65.73a2.15,2.15,0,0,1,.29-.58H261a2.15,2.15,0,0,1,.29.58Z"/><path class="cls-19" d="M254.77,65.16c.07-.14.22-.36.29-.5h5.62c.07.14.22.36.29.5Z"/><path class="cls-20" d="M255.06,64.65a1.94,1.94,0,0,1,.5-.58h4.61a2,2,0,0,1,.5.58Z"/><path class="cls-21" d="M255.56,64.08a2.82,2.82,0,0,1,.72-.58h3.17a2.83,2.83,0,0,1,.72.58Z"/><path class="cls-22" d="M256.28,63.5a2.74,2.74,0,0,1,3.17,0Z"/><path class="cls-2" d="M257.86,73.8c2.16,0,3.89-2.45,3.89-5.4S260,63,257.86,63,254,65.44,254,68.4,255.7,73.8,257.86,73.8Z"/><path class="cls-3" d="M279.39,73.29a2.74,2.74,0,0,0,3.17,0Z"/><path class="cls-4" d="M279.39,73.29a2.27,2.27,0,0,1-.65-.5h4.46a2.24,2.24,0,0,1-.65.5Z"/><path class="cls-5" d="M278.74,72.79a1.94,1.94,0,0,1-.5-.58h5.47a1.91,1.91,0,0,1-.5.58Z"/><path class="cls-6" d="M278.24,72.21c-.14-.14-.21-.36-.36-.5h6.19c-.14.14-.22.36-.36.5Z"/><path class="cls-7" d="M277.88,71.71a2.18,2.18,0,0,0-.29-.58h6.77a2.12,2.12,0,0,0-.29.58Z"/><path class="cls-8" d="M277.59,71.13a1.33,1.33,0,0,0-.14-.5h7.06a1.32,1.32,0,0,0-.14.5Z"/><path class="cls-9" d="M277.45,70.63a1.72,1.72,0,0,1-.14-.58h7.34a1.69,1.69,0,0,1-.14.58Z"/><path class="cls-10" d="M277.3,70.05c-.07-.14-.07-.36-.14-.5h7.63c-.07.14-.07.36-.14.5Z"/><path class="cls-11" d="M277.16,69.55a1.58,1.58,0,0,0-.07-.58h7.78a1.58,1.58,0,0,0-.07.58Z"/><path class="cls-12" d="M277.09,69V68.4h7.78V69Z"/><path class="cls-13" d="M277.09,68.4v-.5h7.78v.5h-7.78Z"/><path class="cls-14" d="M277.09,67.89c0-.22.07-.36.07-.58h7.63c0,.22.07.36.07.58Z"/><path class="cls-15" d="M277.16,67.32c0-.14.07-.36.07-.5h7.49c0,.14.07.36.07.5Z"/><path class="cls-16" d="M277.23,66.81c.07-.22.14-.36.22-.58h7.06c.07.22.14.36.22.58Z"/><path class="cls-17" d="M277.45,66.24a1.33,1.33,0,0,1,.14-.5h6.77a1.35,1.35,0,0,1,.14.5Z"/><path class="cls-18" d="M277.59,65.73a2.14,2.14,0,0,1,.29-.58h6.19a2.17,2.17,0,0,1,.29.58Z"/><path class="cls-19" d="M277.88,65.16c.07-.14.22-.36.29-.5h5.62c.07.14.22.36.29.5Z"/><path class="cls-20" d="M278.17,64.65a1.94,1.94,0,0,1,.5-.58h4.61a2,2,0,0,1,.5.58Z"/><path class="cls-21" d="M278.67,64.08a2.83,2.83,0,0,1,.72-.58h3.17a2.85,2.85,0,0,1,.72.58Z"/><path class="cls-22" d="M279.39,63.5a2.74,2.74,0,0,1,3.17,0Z"/><path class="cls-2" d="M281,73.8c2.16,0,3.89-2.45,3.89-5.4S283.14,63,281,63s-3.89,2.45-3.89,5.4S278.82,73.8,281,73.8Z"/><path class="cls-3" d="M303.94,73.29a2.74,2.74,0,0,0,3.17,0Z"/><path class="cls-4" d="M303.94,73.29a2.26,2.26,0,0,1-.65-.5h4.46a2.27,2.27,0,0,1-.65.5Z"/><path class="cls-5" d="M303.3,72.79a1.91,1.91,0,0,1-.5-.58h5.47a1.92,1.92,0,0,1-.5.58Z"/><path class="cls-6" d="M302.79,72.21c-.14-.14-.22-.36-.36-.5h6.19c-.14.14-.22.36-.36.5Z"/><path class="cls-7" d="M302.43,71.71a2.12,2.12,0,0,0-.29-.58h6.77a2.21,2.21,0,0,0-.29.58Z"/><path class="cls-8" d="M302.14,71.13a1.31,1.31,0,0,0-.14-.5h7.06a1.34,1.34,0,0,0-.14.5Z"/><path class="cls-9" d="M302,70.63a1.74,1.74,0,0,1-.14-.58h7.34a1.7,1.7,0,0,1-.14.58Z"/><path class="cls-10" d="M301.86,70.05c-.07-.14-.07-.36-.14-.5h7.63c-.07.14-.07.36-.14.5Z"/><path class="cls-11" d="M301.71,69.55a1.58,1.58,0,0,0-.07-.58h7.78a1.6,1.6,0,0,0-.07.58Z"/><path class="cls-12" d="M301.64,69V68.4h7.78V69Z"/><path class="cls-13" d="M301.64,68.4v-.5h7.78v.5h-7.78Z"/><path class="cls-14" d="M301.64,67.89c0-.22.07-.36.07-.58h7.63c0,.22.07.36.07.58Z"/><path class="cls-15" d="M301.71,67.32c0-.14.07-.36.07-.5h7.49c0,.14.07.36.07.5Z"/><path class="cls-16" d="M301.78,66.81c.07-.22.14-.36.21-.58h7.06c.07.22.14.36.22.58Z"/><path class="cls-17" d="M302,66.24a1.35,1.35,0,0,1,.14-.5h6.77a1.32,1.32,0,0,1,.14.5Z"/><path class="cls-18" d="M302.14,65.73a2.17,2.17,0,0,1,.29-.58h6.19a2.11,2.11,0,0,1,.29.58Z"/><path class="cls-19" d="M302.43,65.16c.07-.14.22-.36.29-.5h5.62c.07.14.22.36.29.5Z"/><path class="cls-20" d="M302.72,64.65a2,2,0,0,1,.5-.58h4.61a1.93,1.93,0,0,1,.5.58Z"/><path class="cls-21" d="M303.22,64.08a2.87,2.87,0,0,1,.72-.58h3.17a2.83,2.83,0,0,1,.72.58Z"/><path class="cls-22" d="M303.94,63.5a2.75,2.75,0,0,1,3.17,0Z"/><path class="cls-2" d="M305.53,73.8c2.16,0,3.89-2.45,3.89-5.4s-1.73-5.4-3.89-5.4-3.89,2.45-3.89,5.4S303.37,73.8,305.53,73.8Z"/><path class="cls-3" d="M326.91,73.29a2.74,2.74,0,0,0,3.17,0Z"/><path class="cls-4" d="M326.91,73.29a2.25,2.25,0,0,1-.65-.5h4.46a2.24,2.24,0,0,1-.65.5Z"/><path class="cls-5" d="M326.26,72.79a1.92,1.92,0,0,1-.5-.58h5.47a1.92,1.92,0,0,1-.5.58Z"/><path class="cls-6" d="M325.76,72.21c-.14-.14-.22-.36-.36-.5h6.19c-.14.14-.22.36-.36.5Z"/><path class="cls-7" d="M325.4,71.71a2.17,2.17,0,0,0-.29-.58h6.77a2.14,2.14,0,0,0-.29.58Z"/><path class="cls-8" d="M325.11,71.13a1.34,1.34,0,0,0-.14-.5H332a1.33,1.33,0,0,0-.14.5Z"/><path class="cls-9" d="M325,70.63a1.7,1.7,0,0,1-.14-.58h7.34a1.69,1.69,0,0,1-.14.58Z"/><path class="cls-10" d="M324.82,70.05c-.07-.14-.07-.36-.14-.5h7.63c-.07.14-.07.36-.14.5Z"/><path class="cls-11" d="M324.68,69.55a1.6,1.6,0,0,0-.07-.58h7.78a1.58,1.58,0,0,0-.07.58Z"/><path class="cls-12" d="M324.61,69V68.4h7.78V69Z"/><path class="cls-13" d="M324.61,68.4v-.5h7.78v.5h-7.78Z"/><path class="cls-14" d="M324.61,67.89c0-.22.07-.36.07-.58h7.63c0,.22.07.36.07.58Z"/><path class="cls-15" d="M324.68,67.32c0-.14.07-.36.07-.5h7.49c0,.14.07.36.07.5Z"/><path class="cls-16" d="M324.75,66.81c.07-.22.14-.36.22-.58H332c.07.22.14.36.22.58Z"/><path class="cls-17" d="M325,66.24a1.32,1.32,0,0,1,.14-.5h6.77a1.35,1.35,0,0,1,.14.5Z"/><path class="cls-18" d="M325.11,65.73a2.14,2.14,0,0,1,.29-.58h6.19a2.17,2.17,0,0,1,.29.58Z"/><path class="cls-19" d="M325.4,65.16c.07-.14.22-.36.29-.5h5.62c.07.14.22.36.29.5Z"/><path class="cls-20" d="M325.69,64.65a1.93,1.93,0,0,1,.5-.58h4.61a2,2,0,0,1,.5.58Z"/><path class="cls-21" d="M326.19,64.08a2.81,2.81,0,0,1,.72-.58h3.17a2.82,2.82,0,0,1,.72.58Z"/><path class="cls-22" d="M326.91,63.5a2.74,2.74,0,0,1,3.17,0Z"/><path class="cls-2" d="M328.5,73.8c2.16,0,3.89-2.45,3.89-5.4S330.66,63,328.5,63s-3.89,2.45-3.89,5.4S326.34,73.8,328.5,73.8Z"/><path class="cls-3" d="M88.74,74a2,2,0,0,0,1.44.58H98.1a2.47,2.47,0,0,0,1.3-.58Z"/><path class="cls-4" d="M88.74,74a1.73,1.73,0,0,1-.43-.58l11.81.07-.72.5Z"/><path class="cls-5" d="M88.3,73.44a.82.82,0,0,1-.22-.58h12.67l-.65.65Z"/><path class="cls-6" d="M88.09,72.86a.91.91,0,0,1-.07-.43v-.14h13.25a4.08,4.08,0,0,0-.5.58Z"/><path class="cls-7" d="M88,72.28v-.65H101.7l-.43.65Z"/><path class="cls-8" d="M88,71.64v-.58h13.9a4.88,4.88,0,0,0-.21.58Z"/><path class="cls-9" d="M88,71.06v-.58h14v.22a.65.65,0,0,1-.07.36Z"/><rect class="cls-10" x="88.02" y="69.91" width="13.97" height="0.58"/><rect class="cls-11" x="88.02" y="69.26" width="13.97" height="0.65"/><rect class="cls-12" x="88.02" y="68.68" width="13.97" height="0.58"/><rect class="cls-13" x="88.02" y="68.11" width="13.97" height="0.58"/><rect class="cls-14" x="88.02" y="67.46" width="13.97" height="0.65"/><rect class="cls-15" x="88.02" y="66.88" width="13.97" height="0.58"/><rect class="cls-16" x="88.02" y="66.31" width="13.97" height="0.58"/><path class="cls-17" d="M88,66.31v-.58h13.75a1.16,1.16,0,0,1,.22.58H88Z"/><path class="cls-18" d="M88,65.73v-.65h13.32a2.51,2.51,0,0,1,.43.65Z"/><path class="cls-19" d="M88,65.08v-.58h12.82a3.63,3.63,0,0,1,.5.58Z"/><path class="cls-20" d="M88,64.51a4.77,4.77,0,0,1,.22-.58h12a4.4,4.4,0,0,1,.57.58Z"/><path class="cls-21" d="M88.23,63.93a1.55,1.55,0,0,1,.5-.65H99.47c.21.14.5.43.79.65Z"/><path class="cls-22" d="M88.74,63.28a2,2,0,0,1,1.44-.58H98.1a2.67,2.67,0,0,1,1.37.58Z"/><path class="cls-22" d="M90.18,74.59H98.1c1.22,0,3.89-2.66,3.89-3.89V66.31c0-.86-2.59-3.6-3.89-3.6H90.18A2.17,2.17,0,0,0,88,64.87v7.56A2.22,2.22,0,0,0,90.18,74.59Z"/><path class="cls-3" d="M76.42,74.16a2.11,2.11,0,0,0,1.51.43h5.69a1.47,1.47,0,0,0,1.08-.43Z"/><path class="cls-4" d="M76.42,74.16a.62.62,0,0,1-.22-.43H85a.92.92,0,0,1-.29.43Z"/><path class="cls-5" d="M76.21,73.72a.62.62,0,0,1,0-.5h8.93a1,1,0,0,1-.14.5Z"/><path class="cls-6" d="M76.21,73.22c.07-.14.22-.29.29-.43h8.64v.43Z"/><path class="cls-7" d="M76.5,72.79l.14-.14.36-.36h8.14v.5Z"/><polygon class="cls-8" points="77 72.28 77.5 71.78 85.14 71.78 85.14 72.28 77 72.28"/><polygon class="cls-9" points="77.5 71.78 77.94 71.35 85.14 71.35 85.14 71.78 77.5 71.78"/><polygon class="cls-10" points="77.94 71.35 78.44 70.84 85.14 70.84 85.14 71.35 77.94 71.35"/><polygon class="cls-11" points="78.44 70.84 78.87 70.41 85.14 70.41 85.14 70.84 78.44 70.84"/><polygon class="cls-12" points="78.87 70.41 79.38 69.91 85.14 69.91 85.14 70.41 78.87 70.41"/><polygon class="cls-13" points="79.38 69.91 79.88 69.4 85.14 69.4 85.14 69.91 79.38 69.91"/><polygon class="cls-14" points="79.88 69.4 80.31 68.97 85.14 68.97 85.14 69.4 79.88 69.4"/><polygon class="cls-15" points="80.31 68.97 80.82 68.47 85.14 68.47 85.14 68.97 80.31 68.97"/><polygon class="cls-16" points="80.82 68.47 81.25 68.04 85.14 68.04 85.14 68.47 80.82 68.47"/><polygon class="cls-17" points="81.25 68.04 81.75 67.53 85.14 67.53 85.14 68.04 81.25 68.04"/><path class="cls-18" d="M81.75,67.53l.5-.5L85.14,67v.58Z"/><path class="cls-19" d="M82.26,67l.43-.43,2.38-.07c0,.14.07.29.07.43Z"/><path class="cls-20" d="M82.69,66.6l.5-.5h0L84.78,66a1.16,1.16,0,0,1,.29.5Z"/><path class="cls-21" d="M83.19,66.09c.65-.58,1.3-.58,1.58-.07Z"/><path class="cls-22" d="M83.19,66.09l-6.55,6.55c-.94.94-.5,1.94,1.3,1.94h5.69a1.48,1.48,0,0,0,1.51-1.51V67.32C85.14,65.8,84.27,65.16,83.19,66.09Z"/><path class="cls-3" d="M67.5,67.17a24,24,0,0,0-3.6,3.46l.5.29Z"/><path class="cls-4" d="M67.5,67.17c.58-.43,1.15-.94,1.73-1.37l-4.39,5.4-.43-.29Z"/><path class="cls-5" d="M69.22,65.8c.58-.36,1.08-.79,1.66-1.15l-5.62,6.77-.43-.22Z"/><path class="cls-6" d="M70.88,64.65c.5-.36,1.08-.72,1.66-1.08l-6.77,8.13-.5-.29Z"/><path class="cls-7" d="M72.54,63.57l1.3-.86L66.2,72l-.43-.29Z"/><path class="cls-8" d="M73.83,62.71l1.22-.79L66.63,72.28,66.2,72Z"/><path class="cls-9" d="M75.06,61.92a14.22,14.22,0,0,0,1.44-.79L67.14,72.57l-.5-.29Z"/><path class="cls-10" d="M76.5,61.12c.36-.22.79-.43,1.22-.65L67.57,72.79l-.43-.21Z"/><path class="cls-11" d="M77.72,60.48a4.41,4.41,0,0,1,1-.5L68,73.08l-.43-.29Z"/><path class="cls-12" d="M78.73,60a10.86,10.86,0,0,1,1.3-.65l-11.52,14-.5-.29Z"/><path class="cls-13" d="M80,59.32a7.25,7.25,0,0,1,1.08-.5L69,73.65l-.5-.29Z"/><path class="cls-14" d="M81.1,58.82c.36-.14.65-.29.94-.43L69.44,73.87,69,73.65Z"/><path class="cls-15" d="M82,58.39c.14,0,.22-.07.29-.07l.29.36L69.94,74.16a.35.35,0,0,0-.22-.07l-.29-.21Z"/><path class="cls-16" d="M82.62,58.68l.29.43-12.31,15h-.65Z"/><path class="cls-17" d="M82.9,59.11l.29.43L71.31,74.08a2.18,2.18,0,0,0-.72.07Z"/><path class="cls-18" d="M83.19,59.54l.36.5L72.18,74c-.29,0-.58.07-.86.07Z"/><path class="cls-19" d="M83.55,60l.29.43L72.9,73.8a2.12,2.12,0,0,1-.72.22Z"/><polygon class="cls-20" points="83.84 60.48 84.13 60.91 75.7 71.2 72.9 73.8 72.9 73.8 83.84 60.48"/><polygon class="cls-21" points="84.13 60.91 84.49 61.34 78.87 68.18 75.7 71.2 84.13 60.91"/><path class="cls-22" d="M84.49,61.34l.14.22a2.67,2.67,0,0,1-.58,1.8l-5.18,4.82Z"/><path class="cls-22" d="M63.9,70.63l5.83,3.46a9.46,9.46,0,0,0,3.17-.29L84.06,63.36a2.67,2.67,0,0,0,.58-1.8l-2.3-3.24C76.06,60.76,67.06,66.67,63.9,70.63Z"/><path class="cls-3" d="M447.87,73.15a177.14,177.14,0,0,0-18.07-1.08c-3.38,0-5.69.29-7.06,1.08Z"/><path class="cls-2" d="M455.5,74.23a155.1,155.1,0,0,0-25.7-2.16c-4.39,0-7,.43-8.06,1.94-.22,1.37,2.66,2.09,8.06,1.94C439.52,76,451.9,75.09,455.5,74.23Z"/><path class="cls-1" d="M469.47,8.85c4.46.43,14.4,1.58,17.21.07,1.3.65,21.31,0,30.31-1.15,3-.14,12.67-3.17,11.16-5.47-1-2.09-45.5-1-53.86-1s-15.41,1.37-15.41,3.46S461.19,7.92,469.47,8.85Z"/><path class="cls-2" d="M495.54,5.54c7.2-.14,27.86-1.87,30.31-3.46S507.2.5,499.71.5s-10.94.43-10.94,2.45C489.27,5,488.34,5.68,495.54,5.54Z"/><path class="cls-23" d="M474.8,1.87c-2,.86-1.22,2.3.72,3l13.68-.07c-.58-1.44-.72-2.3.5-3.38C485.24,1.44,478.83,1.44,474.8,1.87Z"/><polygon class="cls-2" points="505.76 4.89 516.78 3.96 517.06 17.56 511.81 18.14 505.76 4.89"/><path class="cls-2" d="M149.29,79.84a178.44,178.44,0,0,1,60-.07l50.18,17L262.9,101c-4.18,5.47-10.8,7.2-22.39,9.22s-33.12,1.8-47.45,2c-9.36.5-14-.14-16.7-1.22V108.5a98.37,98.37,0,0,1-20.74-7.92,1.42,1.42,0,0,1-.86-1.44V94.89a21,21,0,0,1-3.6-.22l-1.87-.43Z"/><path class="cls-24" d="M142.07,46.67c-.28,10.07-.12,27,1.17,35.8l2.19-.47s2.4-23.7,1.53-33.2c-.11-1.22-.22-2.3-.32-3.24-.77-7.39-1.14-6.8-1.58-7.28a2.17,2.17,0,0,0-2.56,1.18A64.41,64.41,0,0,0,142.07,46.67Z"/><path class="cls-24" d="M142.11,129.67c-.33-9.79-.22-27.86,1.13-37.12l2.19.47s2.4,23.68,1.53,33.17c-.18,2-.34,3.56-.49,4.84-.66,5.71-1,5.24-1.41,5.69a2.17,2.17,0,0,1-2.56-1.18A52.18,52.18,0,0,1,142.11,129.67Z"/><path class="cls-2" d="M148.86,94.17V79.77a36.44,36.44,0,0,0-14.4,8C136.11,89.49,142.81,93.52,148.86,94.17Z"/><path class="cls-2" d="M259.52,97l3.46,4.1a18.69,18.69,0,0,1-8.14,5.62c21,.72,22.25-4.54,24.41-6.19C274,97.56,259.23,97.05,259.52,97Z"/><path class="cls-3" d="M163,90.28a16,16,0,0,0-1.58-1.58l-11.74-.07v1.66Z"/><path class="cls-22" d="M166.06,89.92c2.52-.22,5-4.61-.22-5.76-6.34-.36-10.22,1.87-10.15,3.17S162,90.5,166.06,89.92Z"/><path class="cls-25" d="M166,89.64a.59.59,0,0,0,.43.29,1.34,1.34,0,0,0,.72-.29Z"/><path class="cls-26" d="M165.63,84.67a1.59,1.59,0,0,1,.22-.36l.72.07c.14.07.36.22.65.36Z"/><path class="cls-22" d="M165.85,84.31c.07-.07.14-.07.29-.07a2.84,2.84,0,0,1,.43.14Z"/><path class="cls-27" d="M182.84,109.44c-1,0-1.94-.07-3-.14l-.14.14Z"/><path class="cls-7" d="M259.59,97.12l1.87,1.66c-14.9,5.11-58.25,1.73-66.6-1.66Z"/><path class="cls-2" d="M261.47,98.78c-17.14,5.9-72,.5-67.83-3.17l10.58-5.11L210,79.56c.5-1.08,3.82-2.52,5.18-2.59l10.08-.07c3.24.14,10.44.94,14.62,3.1Z"/><path class="cls-2" d="M239.79,79.92a43.56,43.56,0,0,0-16.56-3c-7.7-.36-11.09.43-12.46,1.73.43,1.08,4.32,1.66,10.66,1.87A69.46,69.46,0,0,0,239.79,79.92Z"/></g></g></svg>