<svg xmlns="http://www.w3.org/2000/svg" viewBox="0 0 551.65 204.9"><defs><style>.cls-1,.cls-2,.cls-5,.cls-6{fill:#fff;}.cls-1,.cls-2,.cls-4,.cls-45,.cls-6{stroke:#231f20;}.cls-1{stroke-width:2px;}.cls-3,.cls-4{fill:#231f20;}.cls-45,.cls-6{stroke-width:0.21px;}.cls-7{fill:#f2f2f3;}.cls-8{fill:#e7e8e9;}.cls-9{fill:#dcddde;}.cls-10{fill:#d1d3d4;}.cls-11{fill:#c5c7c9;}.cls-12{fill:#babcbe;}.cls-13{fill:#b0b2b5;}.cls-14{fill:#a6a8aa;}.cls-15{fill:#9a9c9f;}.cls-16{fill:#909295;}.cls-17{fill:#86888b;}.cls-18{fill:#7b7d7f;}.cls-19{fill:#717375;}.cls-20{fill:#67686b;}.cls-21{fill:#5d5e61;}.cls-22{fill:#525355;}.cls-23{fill:#444446;}.cls-24{fill:#373537;}.cls-25{fill:#fcfcfc;}.cls-26{fill:#f6f7f7;}.cls-27{fill:#f3f4f4;}.cls-28{fill:#eff0f0;}.cls-29{fill:#eeeeef;}.cls-30{fill:#e9eaeb;}.cls-31{fill:#e3e4e5;}.cls-32{fill:#dee0e1;}.cls-33{fill:#d8d9db;}.cls-34{fill:#d6d8d9;}.cls-35{fill:#d0d1d3;}.cls-36{fill:#cbcdcf;}.cls-37{fill:#c7c9cb;}.cls-38{fill:#c1c2c5;}.cls-39{fill:#bcbec0;}.cls-40{fill:#dadcdd;}.cls-41{fill:#c3c5c7;}.cls-42{fill:#bfc1c3;}.cls-43{fill:#b6b8ba;}.cls-44{fill:#b2b4b6;}.cls-45{fill:none;}.cls-46{fill:#ebeced;}.cls-47{fill:#e4e5e6;}.cls-48{fill:#e0e1e2;}.cls-49{fill:#f8f8f9;}</style></defs><title>C208</title><g id="Layer_2" data-name="Layer 2"><g id="Layer_1-2" data-name="Layer 1"><polygon class="cls-1" points="510.41 5.68 510.48 5.68 475.78 66.73 476.21 67.02 510.91 5.96 510.98 5.96 510.41 5.68"/><polygon class="cls-1" points="518.98 1.35 518.69 1.07 517.1 1.14 515.81 1.21 514.59 1.43 513.58 1.79 512.64 2.44 511.92 3.3 511.2 4.31 510.41 5.68 510.98 5.96 511.63 4.6 512.35 3.59 513.07 2.87 513.86 2.36 514.73 2 515.81 1.79 517.1 1.72 518.69 1.64 518.4 1.35 518.98 1.43 519.05 1.07 518.69 1.07 518.98 1.35"/><polygon class="cls-1" points="549.43 2.58 549.14 2.29 547.2 2.22 545.33 2.22 543.38 2.15 541.44 2.08 539.57 2 537.62 1.93 535.75 1.86 533.81 1.86 531.94 1.79 529.99 1.72 528.12 1.72 526.25 1.64 524.3 1.64 522.43 1.64 520.49 1.64 518.62 1.64 518.62 2.22 520.49 2.22 522.43 2.22 524.3 2.22 526.25 2.22 528.12 2.29 529.99 2.29 531.94 2.36 533.81 2.44 535.75 2.44 537.62 2.51 539.57 2.58 541.44 2.65 543.38 2.72 545.33 2.8 547.2 2.8 549.14 2.87 548.86 2.58 549.43 2.58 549.43 2.29 549.14 2.29 549.43 2.58"/><polygon class="cls-2" points="540.22 105.97 540.5 105.68 549.43 2.58 548.86 2.58 539.93 105.68 540.22 105.39 540.22 105.97 540.5 105.97 540.5 105.68 540.22 105.97"/><polygon class="cls-3" points="454.97 101.87 454.97 101.87 540.22 105.97 540.22 105.39 454.97 101.29 454.97 101.29 454.97 101.87"/><polygon class="cls-3" points="363.67 94.09 363.74 94.67 454.97 101.87 454.97 101.29 363.74 94.09 363.82 94.67 363.67 94.09 362.09 94.52 363.74 94.67 363.67 94.09"/><polygon class="cls-1" points="475.78 66.73 475.92 66.59 363.67 94.09 363.82 94.67 476.06 67.16 476.21 67.02 476.06 67.16 476.21 67.09 476.21 67.02 475.78 66.73"/><polyline class="cls-2" points="518.69 2.08 514.66 14.17 528.12 15.18 511.06 103.95"/><path class="cls-4" d="M17,78.68c-.39,12-.16,32.07,1.63,42.6l3-.56s5.25-28.47,2.13-39.49a21.16,21.16,0,0,1-.44-3.86c-1.07-8.79-1.59-8.09-2.2-8.66a3.23,3.23,0,0,0-3.55,1.4A66,66,0,0,0,17,78.68Z"/><path class="cls-4" d="M17,182.82c-.46-11.64-.3-33.15,1.57-44.16l3,.56s3.33,28.17,2.13,39.47c-.25,2.35-.48,4.23-.68,5.75-.91,6.79-1.39,6.24-2,6.77a3.23,3.23,0,0,1-3.55-1.4A53.37,53.37,0,0,1,17,182.82Z"/><path class="cls-5" d="M26,142.12c-2,0-15-2.66-24-9.07-2.09-1.44-2-2.81-.07-4.25,3.82-3,11.74-9.43,23.54-11.23Z"/><polygon class="cls-3" points="1.73 133.4 1.73 133.4 3.46 134.56 5.26 135.64 7.2 136.64 9.07 137.51 10.94 138.37 12.82 139.09 14.69 139.74 16.42 140.32 18.14 140.82 19.73 141.32 21.24 141.68 22.61 141.97 23.69 142.19 24.7 142.33 25.42 142.55 25.99 142.55 25.99 141.68 25.56 141.68 24.84 141.61 23.83 141.47 22.75 141.25 21.38 140.96 20.02 140.6 18.43 140.1 16.7 139.6 14.98 139.02 13.1 138.37 11.23 137.65 9.36 136.79 7.49 135.92 5.69 134.91 3.89 133.84 2.16 132.68 2.16 132.68 1.73 133.4"/><polygon class="cls-3" points="1.66 128.51 1.66 128.51 0.94 129.01 0.43 129.66 0.14 130.24 0 130.88 0.14 131.6 0.5 132.18 1.01 132.83 1.73 133.4 2.16 132.68 1.58 132.25 1.08 131.75 0.86 131.32 0.86 130.88 0.86 130.52 1.15 130.09 1.51 129.59 2.09 129.08 2.09 129.08 1.66 128.51"/><polygon class="cls-3" points="25.85 117.56 25.34 117.2 23.18 117.56 21.1 118.07 19.01 118.64 17.14 119.29 15.34 120.01 13.61 120.8 11.95 121.6 10.44 122.39 9 123.25 7.7 124.04 6.41 124.91 5.26 125.77 4.25 126.56 3.31 127.28 2.45 127.93 1.66 128.51 2.09 129.08 2.88 128.51 3.74 127.86 4.68 127.14 5.69 126.35 6.84 125.63 8.14 124.76 9.43 123.97 10.87 123.11 12.38 122.32 13.9 121.52 15.62 120.73 17.42 120.01 19.3 119.36 21.24 118.79 23.33 118.28 25.49 117.92 24.98 117.56 25.85 117.56 25.78 117.13 25.34 117.2 25.85 117.56"/><polygon class="cls-3" points="25.99 142.55 26.42 142.12 25.85 117.56 24.98 117.56 25.56 142.12 25.99 141.68 25.99 142.55 26.42 142.55 26.42 142.12 25.99 142.55"/><path class="cls-3" d="M60.26,184a9.86,9.86,0,1,1-9.86,9.86A9.83,9.83,0,0,1,60.26,184Z"/><path class="cls-6" d="M60.26,188.05a5.69,5.69,0,1,1-5.69,5.69A5.65,5.65,0,0,1,60.26,188.05Z"/><path class="cls-1" d="M26.78,117.28c7.78-4,29.66-6.41,34.2-6.91,13-1.87,30.89-1.73,47-2,.86-1.37,13.32-9.43,16.92-11.38,15-8.42,18.43-8.28,26.42-10.66,11.09-2.38,23.11-3.1,28.58-3.46,38,.94,52.71,1.58,72.65,2.74,66.89,4.18,133.85,8.06,200.66,12.17,19.94,1.44,95.69,4,93.38,10.8-3.74,10.94-30.46,19.94-38.52,21.31L342.5,158.75c-7.56,1.37-32.47,3.89-54.07,3.6-31.61.43-26.42.36-53.71.14l-118-2.38c-15.84-1.8-64.73,3.46-89.28-16.85Z"/><path class="cls-5" d="M127,95.75a98.93,98.93,0,0,0-18.36,12,22.5,22.5,0,0,0,5.76,4Z"/><path class="cls-7" d="M127,95.75l2.59-1.3-14.11,17.93c-.36-.22-.72-.36-1.08-.58Z"/><path class="cls-8" d="M129.6,94.45l2.59-1.3-15.55,19.73c-.36-.14-.72-.36-1.15-.5Z"/><path class="cls-9" d="M132.19,93.16c.86-.36,1.66-.79,2.52-1.15l-16.85,21.46c-.36-.22-.79-.36-1.22-.58Z"/><path class="cls-10" d="M134.71,92c.79-.36,1.51-.65,2.3-1l-17.93,23c-.43-.14-.79-.36-1.22-.5Z"/><path class="cls-11" d="M137,91c.79-.29,1.51-.65,2.3-.94l-19.08,24.41c-.43-.22-.79-.36-1.15-.5Z"/><path class="cls-12" d="M139.32,90.06l2.38-.86-20.16,25.7-1.3-.43Z"/><path class="cls-13" d="M141.7,89.2c.72-.29,1.51-.58,2.23-.79l-21.17,27c-.43-.14-.86-.36-1.22-.5Z"/><path class="cls-14" d="M143.93,88.4l2-.65-22,28c-.43-.14-.86-.22-1.22-.36Z"/><path class="cls-15" d="M145.94,87.76c.72-.22,1.44-.43,2.09-.65L125.28,116.2l-1.3-.43Z"/><path class="cls-16" d="M148,87.11c.14,0,.22-.07.36-.07a4.45,4.45,0,0,1,.86.36L126.5,116.63c-.43-.14-.86-.29-1.22-.43Z"/><path class="cls-17" d="M149.26,87.4c.36.14.79.29,1.22.5L127.87,117a9.55,9.55,0,0,0-1.37-.36Z"/><path class="cls-18" d="M150.48,87.9a7.34,7.34,0,0,0,1.08.58l-22.32,28.87a12.91,12.91,0,0,0-1.37-.36Z"/><path class="cls-19" d="M151.56,88.48c.36.22.72.43,1.15.65l-22.18,28.51a8.39,8.39,0,0,0-1.3-.29Z"/><path class="cls-20" d="M152.71,89.12c.29.22.65.43,1,.65L131.9,117.92a7.62,7.62,0,0,0-1.37-.29Z"/><path class="cls-21" d="M153.72,89.77c.29.22.65.43,1,.65l-21.46,27.72-1.37-.22Z"/><path class="cls-22" d="M154.73,90.42a12.36,12.36,0,0,0,1,.79l-21,27.07a13.12,13.12,0,0,1-1.51-.14Z"/><path class="cls-23" d="M155.74,91.21a10.26,10.26,0,0,1,1.08.79L136.3,118.36a11.72,11.72,0,0,1-1.51-.07Z"/><path class="cls-24" d="M156.82,92c.29.22.58.43.94.72l-19.94,25.7a3.5,3.5,0,0,1-.86-.07h-.65Z"/><path class="cls-3" d="M157.75,92.72c1.15.94,2.38,1.94,3.82,3.24,1.15.94,1.3,4,0,4.75l-19.15,16.13a6.14,6.14,0,0,1-4.61,1.58Z"/><path class="cls-2" d="M136.94,118.36c-7.49.29-24-5.83-28.3-10.58,9.22-8.06,27-17.35,39.74-20.74,2.23.86,5.83,2.38,13.18,8.93,1.15.94,1.3,4,0,4.75l-19.15,16.13A6.57,6.57,0,0,1,136.94,118.36Z"/><line class="cls-2" x1="36" y1="114.4" x2="36.86" y2="149.1"/><line class="cls-2" x1="106.56" y1="108.28" x2="106.56" y2="159.47"/><path class="cls-5" d="M53.71,164.87a4,4,0,0,0,3.38,2h20l8.71-2H53.71Z"/><path class="cls-25" d="M53.71,164.87h0l-.5-.58H90.72c-1.66.14-3.31.36-4.9.58Z"/><path class="cls-26" d="M53.21,164.29l-.5-.58h88.56a11.42,11.42,0,0,1-2.81.14l-41.26.07c-2.23.07-4.39.14-6.48.36Z"/><path class="cls-27" d="M52.7,163.72l-.43-.58h90.65a5.62,5.62,0,0,1-1.66.58Z"/><path class="cls-28" d="M52.27,163.14l-.5-.58h92a6,6,0,0,1-.86.58Z"/><path class="cls-29" d="M51.77,162.56l-.5-.58h93.1a4.24,4.24,0,0,1-.58.58Z"/><path class="cls-30" d="M51.26,162l-.5-.65h94.1a3.89,3.89,0,0,1-.5.65Z"/><path class="cls-8" d="M50.76,161.34l-.5-.58h94.9a2.16,2.16,0,0,1-.29.58Z"/><path class="cls-31" d="M50.26,160.76l-.5-.58h71c7.7.14,15.84.29,24.48.5a.07.07,0,0,1-.07.07Z"/><path class="cls-32" d="M49.75,160.19l-.5-.58H94.18c8.21.29,17,.43,26.57.58Z"/><path class="cls-9" d="M49.25,159.61l-.5-.58H82.08c3.89.22,7.92.43,12.1.58Z"/><path class="cls-33" d="M48.74,159l-.43-.58H74.88c2.38.22,4.75.43,7.2.58Z"/><path class="cls-34" d="M48.31,158.46l-.58-.65H68.54l6.34.65Z"/><path class="cls-10" d="M47.74,157.81l-.5-.58H64.15c1.44.21,2.88.36,4.39.58Z"/><path class="cls-35" d="M47.23,157.24l-.43-.58H60.41c1.22.14,2.45.36,3.74.58Z"/><path class="cls-36" d="M46.8,156.66l-.5-.58H57.46c.94.22,1.94.36,3,.58Z"/><path class="cls-37" d="M46.3,156.08l-.5-.58h8.78c.94.22,1.87.36,2.88.58Z"/><path class="cls-11" d="M45.79,155.51l-.5-.58H52.2c.79.22,1.58.36,2.38.58Z"/><path class="cls-38" d="M45.29,154.93l-.5-.65h4.9l2.52.65Z"/><path class="cls-39" d="M44.78,154.28l-1.73-2c2.16.72,4.39,1.44,6.62,2Z"/><path class="cls-2" d="M145.22,160.69c-1.08,2.16-3.1,3.46-6.77,3.17l-41.26.07a95.77,95.77,0,0,0-11.38.94l-8.71,2h-20a4,4,0,0,1-3.38-2l-10.66-12.6C68,160.91,99,159.47,145.22,160.69Z"/><path class="cls-4" d="M102.31,168.83l4.54.22v-.22Z"/><path class="cls-4" d="M102.31,168.83l-3.17-.22h7.7v.22Z"/><path class="cls-4" d="M99.14,168.61c-1.37-.07-2.66-.22-3.82-.29h11.52v.29Z"/><path class="cls-4" d="M95.33,168.32l-2.09-.22h13.61v.22Z"/><path class="cls-4" d="M93.24,168.11c-.94-.07-1.8-.22-2.66-.29h16.27v.29Z"/><path class="cls-4" d="M90.58,167.82c-.72-.07-1.37-.22-1.94-.29h18.22v.29Z"/><path class="cls-4" d="M88.63,167.53l-1.37-.22h19.58v.22Z"/><path class="cls-4" d="M87.26,167.32a11.36,11.36,0,0,1-1.66-.29h21.24v.29Z"/><path class="cls-4" d="M85.61,167l-1.15-.22h22.39V167Z"/><path class="cls-4" d="M84.46,166.81c-.5-.07-.94-.22-1.37-.29h23.76v.29Z"/><path class="cls-4" d="M83.09,166.52a6,6,0,0,0-1.08-.29h24.84v.29Z"/><path class="cls-4" d="M82,166.24c-.14-.07-.29-.07-.43-.14.07,0,.22-.07.29-.07h25v.22Z"/><path class="cls-4" d="M81.86,166a8.33,8.33,0,0,0,1.3-.29h23.69V166Z"/><path class="cls-4" d="M83.16,165.73c.36-.07.72-.14,1-.22h22.68v.22Z"/><path class="cls-4" d="M84.17,165.52c.36-.07.72-.22,1.08-.29h21.6v.29Z"/><path class="cls-4" d="M85.25,165.23c.43-.07.86-.22,1.3-.29h20.3v.29Z"/><path class="cls-4" d="M86.54,164.94l.86-.21h19.44v.21Z"/><path class="cls-4" d="M87.41,164.72c.58-.07,1.08-.22,1.66-.29h17.78v.29Z"/><path class="cls-4" d="M89.06,164.44a19.53,19.53,0,0,1,2.16-.29h15.62v.29Z"/><path class="cls-4" d="M91.22,164.15a19.92,19.92,0,0,1,3-.22l12.6.14v.07Z"/><path class="cls-2" d="M147.74,151.12h30.67l6.62-8.06v-41L172.8,97.48l-25.49,20.59c-2.23,1.8-5,2.81-5,5.76v21.89C142.34,149,143.93,151.12,147.74,151.12Z"/><path class="cls-5" d="M145.08,128.87h0a1.81,1.81,0,0,0,1.87-1.58Z"/><path class="cls-25" d="M145.08,128.87h-.5l2.38-2.09V127h0v.29Z"/><path class="cls-26" d="M144.58,128.87H144l2.81-2.52a1,1,0,0,1,.14.43Z"/><path class="cls-7" d="M144,128.87h-.5l3.17-2.88a1.22,1.22,0,0,1,.14.36Z"/><path class="cls-29" d="M143.5,128.87h-.58l3.53-3.17a1,1,0,0,0,.22.29Z"/><path class="cls-30" d="M142.92,128.87h-.5l3.82-3.38.21.22Z"/><path class="cls-8" d="M142.42,128.87h-.58l4-3.53c.14,0,.22.07.36.14Z"/><path class="cls-31" d="M141.84,128.87h-.5l4.1-3.67a.77.77,0,0,1,.43.14Z"/><path class="cls-32" d="M141.34,128.87h-.58l4.25-3.74h.07a.54.54,0,0,1,.36.07Z"/><polygon class="cls-40" points="140.76 128.87 140.11 128.87 144.36 125.12 145.01 125.12 140.76 128.87"/><polygon class="cls-34" points="140.11 128.87 139.61 128.87 143.78 125.12 144.36 125.12 140.11 128.87"/><path class="cls-10" d="M139.61,128.87h-.5l4.18-3.74h.5Z"/><path class="cls-35" d="M139.1,128.87c-.14-.07-.29-.07-.43-.14l4-3.6h.58Z"/><path class="cls-36" d="M138.67,128.72c-.14-.07-.22-.07-.36-.14l3.89-3.46h.5Z"/><path class="cls-37" d="M138.31,128.58a1,1,0,0,0-.29-.22l3.6-3.24h.58Z"/><path class="cls-41" d="M138,128.36c-.07-.14-.14-.22-.22-.36l3.31-2.88h.5Z"/><path class="cls-42" d="M137.81,128a.55.55,0,0,1-.14-.36l2.88-2.52h.58Z"/><path class="cls-12" d="M137.66,127.64a.55.55,0,0,1-.14-.36l2.52-2.16h.5Z"/><path class="cls-43" d="M137.52,127.28V127h0v-.29l1.87-1.58H140Z"/><path class="cls-44" d="M137.52,126.71a1.87,1.87,0,0,1,1.87-1.58h0Z"/><path class="cls-2" d="M139.39,128.87h5.69A1.82,1.82,0,0,0,147,127h0a1.86,1.86,0,0,0-1.87-1.87h-5.69a1.86,1.86,0,0,0-1.87,1.87h0A1.82,1.82,0,0,0,139.39,128.87Z"/><path class="cls-5" d="M145.3,150h0a1.82,1.82,0,0,0,1.87-1.66Z"/><path class="cls-25" d="M145.3,150h-.5l2.38-2.09v.22h0v.22Z"/><path class="cls-26" d="M144.79,150h-.58l2.81-2.52a1,1,0,0,1,.14.43Z"/><path class="cls-7" d="M144.22,150h-.5l3.17-2.88c.07.14.14.22.14.36Z"/><path class="cls-29" d="M143.71,150h-.58l3.53-3.17a1,1,0,0,0,.22.29Z"/><path class="cls-30" d="M143.14,150h-.5l3.82-3.38.22.22Z"/><path class="cls-8" d="M142.63,150h-.58l4-3.53c.15,0,.22.07.36.14Z"/><path class="cls-31" d="M142.06,150h-.5l4.1-3.67a.77.77,0,0,1,.43.14Z"/><path class="cls-32" d="M141.55,150H141l4.17-3.74h.14a.54.54,0,0,1,.36.07Z"/><polygon class="cls-40" points="140.98 150.03 140.33 150.03 144.5 146.29 145.15 146.29 140.98 150.03"/><polygon class="cls-34" points="140.33 150.03 139.82 150.03 144 146.29 144.5 146.29 140.33 150.03"/><path class="cls-10" d="M139.82,150h-.5l4.1-3.74H144Z"/><path class="cls-35" d="M139.32,150c-.14-.07-.29-.07-.43-.14l4-3.6h.5Z"/><path class="cls-36" d="M138.89,149.89a1.59,1.59,0,0,1-.36-.22l3.82-3.38h.58Z"/><path class="cls-37" d="M138.53,149.68a1,1,0,0,1-.29-.22l3.53-3.17h.58Z"/><path class="cls-41" d="M138.24,149.46c-.07-.07-.14-.22-.22-.29l3.24-2.88h.5Z"/><path class="cls-42" d="M138,149.17a.55.55,0,0,1-.14-.36l2.81-2.52h.58Z"/><path class="cls-12" d="M137.88,148.81a.55.55,0,0,1-.14-.36l2.45-2.16h.5Z"/><path class="cls-43" d="M137.74,148.45v-.29h0v-.29l1.73-1.58h.72Z"/><path class="cls-44" d="M137.74,147.88a1.85,1.85,0,0,1,1.73-1.58Z"/><path class="cls-2" d="M139.61,150h5.69a1.82,1.82,0,0,0,1.87-1.87h0a1.86,1.86,0,0,0-1.87-1.87h-5.69a1.86,1.86,0,0,0-1.87,1.87h0A1.82,1.82,0,0,0,139.61,150Z"/><path class="cls-5" d="M154.73,118.72v.22c-.14.72.29.72.72.72h24.7c.86,0,1.3-.22,1.51-.94Z"/><path class="cls-7" d="M154.73,118.72v-.94h27v.5c0,.14-.07.29-.07.43Z"/><rect class="cls-8" x="154.73" y="116.84" width="27" height="0.94"/><rect class="cls-9" x="154.73" y="115.91" width="27" height="0.94"/><path class="cls-10" d="M154.73,115.91v-.36a1.53,1.53,0,0,1,0-.58h27v.94Z"/><path class="cls-11" d="M154.73,115a1.91,1.91,0,0,1,.72-.79l.22-.14h26.06V115Z"/><polygon class="cls-12" points="155.66 114.03 156.89 113.03 181.73 113.03 181.73 114.03 155.66 114.03"/><polygon class="cls-13" points="156.89 113.03 158.11 112.09 181.73 112.09 181.73 113.03 156.89 113.03"/><polygon class="cls-14" points="158.11 112.09 159.26 111.16 181.73 111.16 181.73 112.09 158.11 112.09"/><polygon class="cls-15" points="159.26 111.16 160.49 110.22 181.73 110.22 181.73 111.16 159.26 111.16"/><polygon class="cls-16" points="160.49 110.22 161.64 109.28 181.73 109.28 181.73 110.22 160.49 110.22"/><polygon class="cls-17" points="161.64 109.28 162.86 108.35 181.73 108.35 181.73 109.28 161.64 109.28"/><polygon class="cls-18" points="162.86 108.35 164.09 107.34 181.73 107.34 181.73 108.35 162.86 108.35"/><polygon class="cls-19" points="164.09 107.34 165.31 106.4 181.73 106.4 181.73 107.34 164.09 107.34"/><polygon class="cls-20" points="165.31 106.4 166.46 105.47 181.73 105.47 181.73 106.4 165.31 106.4"/><path class="cls-21" d="M166.46,105.47l1.22-.94h14v.94Z"/><path class="cls-22" d="M167.69,104.53l1.15-.94h12.24c.36.14.5.43.65.94Z"/><path class="cls-23" d="M168.84,103.6l1.22-.94h8.64l1.73.65a2.56,2.56,0,0,1,.65.29Z"/><polygon class="cls-24" points="170.06 102.66 171.29 101.65 176.04 101.65 178.7 102.66 170.06 102.66"/><path class="cls-3" d="M171.29,101.65l.58-.43a2.64,2.64,0,0,1,2.3-.29l1.87.72Z"/><path class="cls-2" d="M154.73,118.93c-.14.72.29.72.72.72h24.7c1,0,1.51-.36,1.58-1.37V104.75a1.47,1.47,0,0,0-1.3-1.44l-6.26-2.38a2.64,2.64,0,0,0-2.3.29l-16.42,13a1.3,1.3,0,0,0-.72,1.37Z"/><path class="cls-5" d="M234.5,119a2.83,2.83,0,0,0,2,.79h27.07a2.83,2.83,0,0,0,2-.79Z"/><path class="cls-7" d="M234.5,119a3.24,3.24,0,0,1-.58-.79h32.26a3.24,3.24,0,0,1-.58.79Z"/><path class="cls-8" d="M233.93,118.21a2.59,2.59,0,0,1-.29-.79h32.83a2.59,2.59,0,0,1-.29.79Z"/><path class="cls-9" d="M233.64,117.42v-.79h32.83v.79Z"/><rect class="cls-10" x="233.64" y="115.84" width="32.83" height="0.79"/><rect class="cls-11" x="233.64" y="115.04" width="32.83" height="0.79"/><rect class="cls-12" x="233.64" y="114.25" width="32.83" height="0.79"/><rect class="cls-13" x="233.64" y="113.46" width="32.83" height="0.79"/><rect class="cls-14" x="233.64" y="112.67" width="32.83" height="0.79"/><rect class="cls-15" x="233.64" y="111.8" width="32.83" height="0.86"/><rect class="cls-16" x="233.64" y="111.01" width="32.83" height="0.79"/><rect class="cls-17" x="233.64" y="110.22" width="32.83" height="0.79"/><rect class="cls-18" x="233.64" y="109.43" width="32.83" height="0.79"/><rect class="cls-19" x="233.64" y="108.64" width="32.83" height="0.79"/><rect class="cls-20" x="233.64" y="107.84" width="32.83" height="0.79"/><rect class="cls-21" x="233.64" y="107.05" width="32.83" height="0.79"/><path class="cls-22" d="M233.64,107.05v-.79h32.83v.79Z"/><path class="cls-23" d="M233.64,106.26a2.58,2.58,0,0,1,.29-.79h32.26a2.58,2.58,0,0,1,.29.79Z"/><path class="cls-24" d="M233.93,105.47a2.29,2.29,0,0,1,.58-.86h31.1a2.29,2.29,0,0,1,.58.86Z"/><path class="cls-3" d="M234.5,104.6a2.83,2.83,0,0,1,2-.79h27.07a2.83,2.83,0,0,1,2,.79Z"/><path class="cls-2" d="M236.52,119.8h27.07a2.83,2.83,0,0,0,2.88-2.81V106.62a2.83,2.83,0,0,0-2.88-2.81H236.52a2.83,2.83,0,0,0-2.88,2.81V117A2.83,2.83,0,0,0,236.52,119.8Z"/><path class="cls-5" d="M197.64,118.93v.79h19.08a2,2,0,0,0,1.44-.79Z"/><path class="cls-7" d="M197.64,118.93v-.79h20.88a2.66,2.66,0,0,1-.36.79Z"/><path class="cls-8" d="M197.64,118.14v-.79h21.1a2.54,2.54,0,0,1-.22.79Z"/><path class="cls-9" d="M197.64,117.35v-.79h21.1v.79Z"/><rect class="cls-10" x="197.64" y="115.76" width="21.1" height="0.79"/><rect class="cls-11" x="197.64" y="114.97" width="21.1" height="0.79"/><rect class="cls-12" x="197.64" y="114.18" width="21.1" height="0.79"/><rect class="cls-13" x="197.64" y="113.39" width="21.1" height="0.79"/><rect class="cls-14" x="197.64" y="112.6" width="21.1" height="0.79"/><rect class="cls-15" x="197.64" y="111.8" width="21.1" height="0.79"/><rect class="cls-16" x="197.64" y="111.01" width="21.1" height="0.79"/><rect class="cls-17" x="197.64" y="110.22" width="21.1" height="0.79"/><rect class="cls-18" x="197.64" y="109.43" width="21.1" height="0.79"/><rect class="cls-19" x="197.64" y="108.64" width="21.1" height="0.79"/><rect class="cls-20" x="197.64" y="107.84" width="21.1" height="0.79"/><rect class="cls-21" x="197.64" y="107.05" width="21.1" height="0.79"/><path class="cls-22" d="M197.64,107.05v-.79h21.1v.79Z"/><path class="cls-23" d="M197.64,106.26v-.79h21a3.05,3.05,0,0,1,.14.79Z"/><path class="cls-24" d="M197.64,105.47v-.86h20.52l.43.86Z"/><path class="cls-3" d="M197.64,104.6v-.79h19.08a2,2,0,0,1,1.44.79Z"/><path class="cls-2" d="M197.64,119.72h19.08c1.08,0,2-1.22,2-2.74V106.55c0-1.51-.94-2.74-2-2.74H197.64Z"/><path class="cls-5" d="M333.29,119.29a1.64,1.64,0,0,0,1.3.65h19.15a1.64,1.64,0,0,0,1.3-.65Z"/><path class="cls-2" d="M334.58,119.94h19.15c1.15,0,2-1.22,2-2.81v-7.27c0-1.58-.94-2.74-2-2.81l-19.15-1.37c-1.08-.07-2,1.22-2,2.81v8.64C332.57,118.72,333.5,119.94,334.58,119.94Z"/><polygon class="cls-2" points="269.35 154.5 329.76 154.5 329.76 95.32 269.35 93.16 269.35 154.5"/><line class="cls-2" x1="269.35" y1="125.84" x2="329.9" y2="127.07"/><path class="cls-5" d="M502.56,131.1l5-1c1.3.5,2,1.15,1.94,1.73-.07,1.15-3.31,1.8-7.2,1.37a18.31,18.31,0,0,1-5.18-1.22l5.4-.86Z"/><path class="cls-2" d="M502.56,131.1l5-1c1.3.5,2,1.15,1.94,1.73-.07,1.15-3.31,1.8-7.2,1.37a18.31,18.31,0,0,1-5.18-1.22l5.4-.86Z"/><path class="cls-2" d="M217.66,151.33c13.39,0,31.18,4.54,34.56,8.35-1.8,2.52-12.6,5.18-25.7,5.25-16.27.07-22.61-4.32-23.11-7.2S204.26,151.33,217.66,151.33Z"/><path class="cls-4" d="M217.73,203.17a12.21,12.21,0,0,0,10.66,0Z"/><path class="cls-4" d="M217.73,203.17a8.43,8.43,0,0,1-2-1.22H230.4a8.43,8.43,0,0,1-2,1.22Z"/><path class="cls-4" d="M215.71,201.95a11.76,11.76,0,0,1-1.44-1.22h17.57a11.75,11.75,0,0,1-1.44,1.22Z"/><path class="cls-4" d="M214.27,200.72a6.71,6.71,0,0,1-1.15-1.3H233a6.67,6.67,0,0,1-1.15,1.3Z"/><path class="cls-4" d="M213.12,199.43a7.12,7.12,0,0,1-.79-1.22h21.46a7.07,7.07,0,0,1-.79,1.22Z"/><path class="cls-4" d="M212.33,198.2c-.22-.36-.43-.79-.65-1.22h22.75c-.22.43-.43.86-.65,1.22Z"/><path class="cls-4" d="M211.68,197a9.63,9.63,0,0,1-.5-1.3h23.76a9.56,9.56,0,0,1-.5,1.3Z"/><path class="cls-4" d="M211.18,195.68a6.13,6.13,0,0,1-.29-1.22h24.34a6.1,6.1,0,0,1-.29,1.22Z"/><path class="cls-4" d="M210.89,194.46a4,4,0,0,1-.22-1.22h24.77a4,4,0,0,1-.22,1.22Z"/><path class="cls-4" d="M210.67,193.24a7.81,7.81,0,0,1-.07-1.3h24.91a7.75,7.75,0,0,1-.07,1.3Z"/><path class="cls-4" d="M210.6,191.94a7,7,0,0,1,.07-1.22h24.77a6.9,6.9,0,0,1,.07,1.22H210.6Z"/><path class="cls-4" d="M210.67,190.72a8,8,0,0,1,.14-1.22H235.3a8.05,8.05,0,0,1,.14,1.22Z"/><path class="cls-4" d="M210.82,189.49c.14-.43.22-.86.36-1.3h23.76c.14.43.22.86.36,1.3Z"/><path class="cls-4" d="M211.18,188.2a6.24,6.24,0,0,1,.5-1.22h22.75a6.21,6.21,0,0,1,.5,1.22Z"/><path class="cls-4" d="M211.68,187a6.41,6.41,0,0,1,.58-1.22h21.6a6.32,6.32,0,0,1,.58,1.22Z"/><path class="cls-4" d="M212.26,185.75a10.24,10.24,0,0,1,.86-1.3H233a10.2,10.2,0,0,1,.86,1.3Z"/><path class="cls-4" d="M213.12,184.45c.36-.43.72-.86,1.08-1.22h17.71c.36.36.72.79,1.08,1.22Z"/><path class="cls-4" d="M214.2,183.23a11.78,11.78,0,0,1,1.44-1.22h14.83a11.68,11.68,0,0,1,1.44,1.22Z"/><path class="cls-4" d="M215.64,182a12.53,12.53,0,0,1,2.09-1.3h10.66a12.5,12.5,0,0,1,2.09,1.3Z"/><path class="cls-4" d="M217.73,180.71a12.21,12.21,0,0,1,10.66,0Z"/><path class="cls-6" d="M223.06,185.89a6.19,6.19,0,1,0,6.19,6.19A6.24,6.24,0,0,0,223.06,185.89Z"/><path class="cls-5" d="M273.17,119.15a1.78,1.78,0,0,0,1.51.79h20.16a2,2,0,0,0,1.51-.79Z"/><path class="cls-2" d="M274.68,119.94h20.16c1.15,0,2.09-1.22,2.09-2.81V106.76c0-1.58-.94-2.81-2.09-2.81H274.68c-1.22,0-2.16,1.22-2.16,2.81v10.37C272.52,118.72,273.46,119.94,274.68,119.94Z"/><path class="cls-5" d="M303.77,119.15a1.75,1.75,0,0,0,1.44.79h19.08a1.75,1.75,0,0,0,1.44-.79Z"/><path class="cls-2" d="M305.21,119.94h19.08c1.15,0,2-1.22,2-2.81v-9.58c0-1.58-.86-2.74-2-2.81L305.21,104c-1.15,0-2,1.22-2,2.81v10.37C303.19,118.72,304.06,119.94,305.21,119.94Z"/><path class="cls-2" d="M218.74,159.11c-.14-1.73,15,.14,14.54,1.8l-4,20.16c-4-1.66-7.49-2.45-10.51-.65Z"/><path class="cls-5" d="M60.34,196.69a1.33,1.33,0,0,0,1.37-1.15Z"/><path class="cls-25" d="M60.34,196.69a2.29,2.29,0,0,1-1-.22l2.45-2.23c0,.43-.07.79-.07,1.15v.14Z"/><path class="cls-26" d="M59.33,196.47a1.14,1.14,0,0,1-.58-.72l3.1-2.66a6.2,6.2,0,0,0-.07,1.15Z"/><path class="cls-7" d="M58.75,195.76v-.29c-.07,0-.14-.29-.14-.65l3.24-2.88v1.15Z"/><path class="cls-29" d="M58.61,194.82a5.8,5.8,0,0,1-.07-1.15l3.38-3c0,.43-.07.79-.07,1.22Z"/><path class="cls-30" d="M58.54,193.67v-1.15l3.46-3.1a7.84,7.84,0,0,0-.07,1.3Z"/><path class="cls-8" d="M58.54,192.52v-1.15l3.46-3.1v1.15Z"/><path class="cls-31" d="M58.54,191.36v-1.22l3.6-3.17c0,.14-.07.29-.07.43a3.5,3.5,0,0,1-.07.86Z"/><path class="cls-32" d="M58.54,190.14v-1.08l3.89-3.46c-.07.43-.22.86-.29,1.37Z"/><path class="cls-40" d="M58.54,189.06c0-.43-.07-.79-.07-1.15l4.32-3.74c-.14.43-.22.94-.36,1.44Z"/><path class="cls-34" d="M58.47,187.91v-.58c0-.14-.07-.36-.07-.5l4.75-4.18a7.8,7.8,0,0,0-.36,1.51Z"/><path class="cls-10" d="M58.39,186.83c-.07-.29-.14-.65-.22-.94l5.33-4.68c-.07.36-.22.86-.36,1.44Z"/><path class="cls-35" d="M58.18,185.89c-.07-.36-.14-.65-.22-.94l6-5.26q-.11.43-.43,1.51Z"/><path class="cls-36" d="M58,185c-.07-.36-.22-.65-.29-.94L64,178.47l-.07,1v.22Z"/><path class="cls-37" d="M57.67,184a4.66,4.66,0,0,0-.29-.94l6.7-5.83L64,178.47Z"/><path class="cls-41" d="M57.38,183.08c-.07-.29-.22-.58-.29-.86L64.15,176l-.07,1.3Z"/><path class="cls-42" d="M57.1,182.22a5.25,5.25,0,0,0-.36-.86l6.48-5.69h.72a.32.32,0,0,1,.22.22V176Z"/><path class="cls-12" d="M56.74,181.36a5.94,5.94,0,0,0-.29-.86l5.47-4.82h1.3Z"/><path class="cls-43" d="M56.45,180.49a7.61,7.61,0,0,1-.36-.86v-.07l4.39-3.89h1.44Z"/><path class="cls-44" d="M56.09,179.56v-3.67a.23.23,0,0,1,.22-.22h4.18Z"/><path class="cls-2" d="M56.3,175.67h7.63a.32.32,0,0,1,.22.22l-.22,3.6c0,.58-1.15,3.89-1.87,7.92-.14,2.52-.22,5.26-.36,8-.07,1.8-3,1.66-3,.07-.36-.07-.14-4.39-.29-8.14a37.54,37.54,0,0,0-2.38-7.7v-3.74A.23.23,0,0,1,56.3,175.67Z"/><line class="cls-2" x1="56.09" y1="179.7" x2="63.94" y2="179.7"/><path class="cls-25" d="M60.91,175.38a1.24,1.24,0,0,0,.86-.72Z"/><path class="cls-26" d="M60.91,175.38a.27.27,0,0,1-.22.07l1.15-1a.26.26,0,0,0-.07.22Z"/><path class="cls-7" d="M60.7,175.45h-.22l1.37-1.29h0v.29Z"/><path class="cls-29" d="M60.48,175.45a.27.27,0,0,1-.22-.07L61.85,174v.15Z"/><path class="cls-30" d="M60.26,175.38H60l1.73-1.58a.26.26,0,0,1,.07.21Z"/><path class="cls-8" d="M60,175.38c-.07-.07-.07-.07-.14-.07l1.87-1.66v.14Z"/><path class="cls-31" d="M59.9,175.31a.07.07,0,0,0-.07-.07l1.87-1.73c0,.07,0,.07.07.14Z"/><path class="cls-32" d="M59.83,175.24c-.07-.07-.14-.07-.14-.14l1.94-1.66a.07.07,0,0,0,.07.07Z"/><path class="cls-40" d="M59.69,175.09c-.07,0-.07,0-.07-.07l1.87-1.73c.07,0,.07.07.14.14Z"/><path class="cls-34" d="M59.62,175c-.07,0-.07-.07-.14-.14l1.94-1.66c.07,0,.07,0,.07.07Z"/><path class="cls-10" d="M59.47,174.88a.07.07,0,0,0-.07-.07l1.87-1.73c.07.07.14.07.14.14Z"/><path class="cls-35" d="M59.4,174.8c0-.07,0-.07-.07-.14L61.2,173a.07.07,0,0,0,.07.07Z"/><path class="cls-36" d="M59.33,174.66v-.14l1.73-1.58c.07.07.07.07.14.07Z"/><path class="cls-37" d="M59.33,174.52a.26.26,0,0,1-.07-.22l1.66-1.37h.14Z"/><path class="cls-41" d="M59.26,174.3v-.14l1.44-1.3a.26.26,0,0,1,.22.07Z"/><path class="cls-42" d="M59.26,174.16h0v-.22l1.3-1.08h.14Z"/><path class="cls-12" d="M59.26,173.94c0-.07.07-.14.07-.21l.86-.79a.65.65,0,0,1,.36-.07Z"/><path class="cls-43" d="M59.33,173.72a1.2,1.2,0,0,1,.86-.79Z"/><circle class="cls-45" cx="60.55" cy="174.16" r="1.3"/><path class="cls-25" d="M56.38,177.4a1.15,1.15,0,0,0,.65-.5Z"/><path class="cls-26" d="M56.38,177.4c-.07.07-.14.07-.22.14l1-.94c-.07.07-.07.22-.14.29Z"/><path class="cls-7" d="M56.16,177.54h-.29l1.37-1.15c0,.07-.07.14-.07.22Z"/><path class="cls-29" d="M55.87,177.54h-.14l1.51-1.37v.22Z"/><path class="cls-30" d="M55.73,177.54c-.14,0-.22-.07-.29-.07l1.8-1.58v.29h0Z"/><path class="cls-8" d="M55.44,177.47c-.07,0-.07-.07-.14-.07l1.87-1.66c0,.07,0,.14.07.14Z"/><path class="cls-31" d="M55.3,177.4c-.07,0-.07-.07-.14-.07l1.94-1.73c0,.07.07.07.07.14Z"/><path class="cls-32" d="M55.15,177.32c-.07,0-.07-.07-.14-.07l2-1.8c0,.07.07.07.07.15Z"/><path class="cls-40" d="M55,177.25c0-.07-.07-.14-.14-.22L57,175.31a.25.25,0,0,0,.07.14Z"/><path class="cls-34" d="M54.86,177l-.07-.07,2-1.73c.07,0,.07.07.14.07Z"/><path class="cls-10" d="M54.79,177c-.07-.07-.07-.07-.07-.14l2-1.73c0,.07.07.07.07.14Z"/><path class="cls-35" d="M54.72,176.82c-.07-.07-.07-.07-.07-.14L56.59,175c.07,0,.07.07.14.07Z"/><path class="cls-36" d="M54.65,176.68c-.07,0-.07-.07-.07-.14l1.87-1.58c.07,0,.07.07.15.07Z"/><path class="cls-37" d="M54.58,176.53a.26.26,0,0,1-.07-.22l1.73-1.44a.26.26,0,0,1,.22.07Z"/><path class="cls-41" d="M54.5,176.32v-.14h0L56,174.8a.26.26,0,0,1,.22.07Z"/><path class="cls-42" d="M54.5,176.17v-.29l1.37-1.08H56Z"/><path class="cls-12" d="M54.5,175.88c.07-.07.07-.14.14-.22l.86-.79a.65.65,0,0,1,.36-.07h0Z"/><path class="cls-43" d="M54.65,175.67a1.34,1.34,0,0,1,.86-.79Z"/><path class="cls-2" d="M55.87,174.8a1.37,1.37,0,1,0,1.37,1.37A1.42,1.42,0,0,0,55.87,174.8Z"/><path class="cls-25" d="M51.48,173a2,2,0,0,0,.65-.51Z"/><path class="cls-26" d="M51.48,173c-.07.07-.22.07-.29.14l1.08-1c-.07.14-.07.29-.14.36Z"/><path class="cls-7" d="M51.19,173.15h-.36l1.51-1.3c0,.07-.07.22-.07.29Z"/><path class="cls-29" d="M50.83,173.15h-.14l1.66-1.51v.22Z"/><path class="cls-30" d="M50.69,173.15c-.07,0-.14-.07-.22-.07l1.87-1.58v.14Z"/><path class="cls-8" d="M50.47,173.08c-.07,0-.14-.07-.22-.07l2-1.8c0,.07.07.14.07.29Z"/><path class="cls-31" d="M50.26,173a.25.25,0,0,0-.14-.07l2.09-1.87a.25.25,0,0,0,.07.14Z"/><path class="cls-32" d="M50.11,172.93c-.07-.07-.14-.07-.14-.14l2.09-1.94c.07.07.07.14.14.22Z"/><path class="cls-40" d="M50,172.79l-.14-.14L52,170.77l.07.07Z"/><path class="cls-34" d="M49.82,172.64l-.07-.07,2.09-1.94.14.14Z"/><path class="cls-10" d="M49.75,172.57c-.07-.07-.07-.15-.14-.15l2.09-1.94.14.14Z"/><path class="cls-35" d="M49.61,172.43v-.14l2-1.87a.07.07,0,0,0,.07.07Z"/><path class="cls-36" d="M49.61,172.28a.26.26,0,0,1-.07-.22l1.87-1.73c.07,0,.14.07.22.07Z"/><path class="cls-37" d="M49.54,172.07a.27.27,0,0,1-.07-.22l1.73-1.58a.26.26,0,0,0,.22.07Z"/><path class="cls-41" d="M49.47,171.85v-.14L51,170.27h.21Z"/><path class="cls-42" d="M49.47,171.71h0a.66.66,0,0,1,.07-.36l1.08-1.08H51Z"/><path class="cls-12" d="M49.54,171.35a.26.26,0,0,1,.07-.22l.72-.72c.07-.07.22-.07.29-.14Z"/><path class="cls-43" d="M49.61,171.13a1.19,1.19,0,0,1,.72-.72Z"/><circle class="cls-2" cx="50.9" cy="171.71" r="1.44"/><path class="cls-25" d="M57.38,169.33a1.73,1.73,0,0,0,.72-.72Z"/><path class="cls-26" d="M57.38,169.33a3.09,3.09,0,0,1-.36.07l1.08-1v.22Z"/><path class="cls-7" d="M57,169.4h-.22l1.37-1.22a.26.26,0,0,1-.07.22Z"/><path class="cls-29" d="M56.81,169.4h-.21L58.18,168v.14Z"/><path class="cls-43" d="M55.66,167.75a1.36,1.36,0,0,1,.94-.94Z"/><circle class="cls-45" cx="56.88" cy="168.11" r="1.3"/><path class="cls-30" d="M55.94,170.2l1.58-1a1.22,1.22,0,0,1-.5.07Z"/><path class="cls-8" d="M55.94,170.2l-2,1.3,2.52-2.3a1.58,1.58,0,0,0,.58.07Z"/><path class="cls-31" d="M53.93,171.49,52,172.72l4.1-3.67c.14.07.22.14.36.14Z"/><path class="cls-32" d="M52,172.72l-.43.29a1.75,1.75,0,0,0,.65-1l3.53-3.24a1.27,1.27,0,0,0,.36.29Z"/><path class="cls-40" d="M52.2,172a1.58,1.58,0,0,0,.07-.58l3.31-3a.55.55,0,0,0,.14.36Z"/><path class="cls-34" d="M52.27,171.42c-.07-.14-.07-.29-.14-.36l3.38-3a.54.54,0,0,0,.07.36Z"/><path class="cls-10" d="M52.13,171.06l-.22-.43,4-3.53.29-.14a1.48,1.48,0,0,0-.65,1.08Z"/><path class="cls-35" d="M51.91,170.63c-.07-.07-.22-.14-.29-.22L54.36,168l1.51-.86Z"/><path class="cls-36" d="M51.62,170.41a.55.55,0,0,0-.36-.14l1.59-1.44,1.51-.86Z"/><path class="cls-37" d="M51.26,170.27a1.07,1.07,0,0,0-.5-.07l.58-.5,1.51-.86Z"/><path class="cls-41" d="M50.76,170.2a6.83,6.83,0,0,1-.65.22l1.22-.72Z"/><path class="cls-2" d="M50.11,170.41l6-3.46c-1.51,1.15-.14,2.74,1.37,2.23l-6,3.82C53,171.85,52.06,169.55,50.11,170.41Z"/><polygon class="cls-31" points="73.01 167.24 73.51 166.88 73.37 166.88 73.01 167.24"/><polygon class="cls-32" points="73.01 167.24 68.76 170.12 72.43 166.88 73.37 166.88 73.01 167.24"/><polygon class="cls-40" points="68.76 170.12 64.44 173.07 71.42 166.88 72.43 166.88 68.76 170.12"/><path class="cls-34" d="M64.44,173.08l-3.31,2.23c.07-.07.14-.14.22-.14l9.22-8.28h.86Z"/><path class="cls-10" d="M61.34,175.16a1.63,1.63,0,0,0,.29-1.23l7.92-7.05h1Z"/><path class="cls-35" d="M61.63,173.94a1.3,1.3,0,0,0-.29-.65l7.2-6.41h1Z"/><path class="cls-36" d="M61.34,173.29a1.3,1.3,0,0,0-.5-.36l3.6-3.17,4.1-2.88Z"/><path class="cls-37" d="M60.84,172.93a1.2,1.2,0,0,0-1.08.14l4.68-3.31Z"/><path class="cls-2" d="M59.76,173.08l8.78-6.19h5l-12.38,8.42C62.5,174.16,61.06,172.21,59.76,173.08Z"/><path class="cls-25" d="M54.79,177l.14.14c-.07-.07-.07-.14-.14-.22Z"/><path class="cls-26" d="M54.79,177l-.29-.22.07-.14c.07.07.15.22.22.29Z"/><path class="cls-26" d="M56.52,175c.07.07.14.07.22.14l-.14-.14Z"/><path class="cls-7" d="M54.5,176.82l-.29-.29.29-.22c0,.14.07.22.07.36Z"/><path class="cls-7" d="M56.52,175c-.14,0-.22-.07-.36-.07l.14-.22.29.29Z"/><path class="cls-29" d="M54.22,176.53l-.29-.22.58-.43a.46.46,0,0,0,0,.43Z"/><path class="cls-29" d="M56.16,174.95a1.23,1.23,0,0,0-.5-.07l.43-.36.22.22Z"/><path class="cls-30" d="M53.93,176.32l-.22-.22,2.09-1.87.29.29-.43.36a1.17,1.17,0,0,0-1.15,1Z"/><polygon class="cls-8" points="53.71 176.1 53.42 175.88 55.51 174.01 55.8 174.23 53.71 176.1"/><polygon class="cls-31" points="53.42 175.88 53.14 175.6 55.3 173.72 55.51 174.01 53.42 175.88"/><polygon class="cls-32" points="53.14 175.6 52.85 175.38 55.01 173.51 55.3 173.72 53.14 175.6"/><polygon class="cls-40" points="52.85 175.38 52.56 175.16 54.72 173.29 55.01 173.51 52.85 175.38"/><polygon class="cls-34" points="52.56 175.16 52.34 174.95 54.5 173.07 54.72 173.29 52.56 175.16"/><polygon class="cls-10" points="52.34 174.95 52.13 174.73 54.29 172.79 54.5 173.07 52.34 174.95"/><polygon class="cls-35" points="52.13 174.73 51.84 174.44 54 172.57 54.29 172.79 52.13 174.73"/><polygon class="cls-36" points="51.84 174.44 51.55 174.23 53.78 172.28 54 172.57 51.84 174.44"/><polygon class="cls-37" points="51.55 174.23 51.26 174.01 53.5 172.07 53.78 172.28 51.55 174.23"/><path class="cls-41" d="M51.26,174,51,173.8l1.15-1.08a9.61,9.61,0,0,0,1.15-.86l.22.22Z"/><path class="cls-42" d="M51,173.8l-.22-.29.36-.36a3.86,3.86,0,0,0,1-.43Z"/><path class="cls-12" d="M50.76,173.51l-.29-.22.07-.14a.79.79,0,0,0,.58,0Z"/><path class="cls-43" d="M50.47,173.29l-.29-.22V173a.55.55,0,0,0,.36.14Z"/><path class="cls-44" d="M50.18,173c-.07,0-.14-.07-.22-.14l.22.22Z"/><path class="cls-2" d="M56.74,175.16l-3.46-3.31c-1.66,1.44-2.66,1.66-3.31,1l5,4.32C53.64,175.67,55.22,174.23,56.74,175.16Z"/><polygon class="cls-5" points="61.56 175.6 63.65 175.6 63.65 173.72 61.56 175.6"/><polygon class="cls-25" points="61.56 175.6 61.06 175.6 63.65 173.29 63.65 173.72 61.56 175.6"/><polygon class="cls-26" points="61.06 175.6 60.34 175.6 63.65 172.72 63.65 173.29 61.06 175.6"/><polygon class="cls-7" points="60.34 175.6 59.69 175.6 63.65 172.14 63.65 172.72 60.34 175.6"/><polygon class="cls-29" points="59.69 175.6 59.18 175.6 63.65 171.64 63.65 172.14 59.69 175.6"/><polygon class="cls-30" points="59.18 175.6 58.54 175.6 63.65 171.06 63.65 171.64 59.18 175.6"/><polygon class="cls-8" points="58.54 175.6 58.18 175.6 58.18 175.31 63.65 170.48 63.65 171.06 58.54 175.6"/><polygon class="cls-31" points="58.18 175.31 58.18 174.73 63.65 169.91 63.65 170.48 58.18 175.31"/><polygon class="cls-32" points="58.18 174.73 58.18 174.23 63.65 169.4 63.65 169.91 58.18 174.73"/><polygon class="cls-40" points="58.18 174.23 58.18 173.65 63.65 168.83 63.65 169.4 58.18 174.23"/><polygon class="cls-34" points="58.18 173.65 58.18 173.07 63.65 168.25 63.65 168.83 58.18 173.65"/><polygon class="cls-10" points="58.18 173.07 58.18 172.64 63.65 167.75 63.65 168.25 58.18 173.07"/><polygon class="cls-35" points="58.18 172.64 58.18 172.07 63.65 167.17 63.65 167.75 58.18 172.64"/><polygon class="cls-36" points="58.18 172.07 58.18 171.49 63.36 166.88 63.65 166.88 63.65 167.17 58.18 172.07"/><polygon class="cls-37" points="58.18 171.49 58.18 170.91 62.71 166.88 63.36 166.88 58.18 171.49"/><polygon class="cls-41" points="58.18 170.91 58.18 170.41 62.14 166.88 62.71 166.88 58.18 170.91"/><polygon class="cls-42" points="58.18 170.41 58.18 169.84 61.49 166.88 62.14 166.88 58.18 170.41"/><polygon class="cls-12" points="58.18 169.84 58.18 169.26 60.84 166.88 61.49 166.88 58.18 169.84"/><polygon class="cls-43" points="58.18 169.26 58.18 168.68 60.19 166.88 60.84 166.88 58.18 169.26"/><polygon class="cls-44" points="58.18 168.68 58.18 166.88 60.19 166.88 58.18 168.68"/><rect class="cls-2" x="58.18" y="166.88" width="5.47" height="8.71"/><path class="cls-5" d="M248.76,81.42l-.72-.79c-24.48-4.18-47.23-7.49-57.74-2.74l-5.62,3.53Z"/><polygon class="cls-5" points="248.76 81.42 249.41 82.14 183.6 82.14 184.68 81.42 248.76 81.42"/><polygon class="cls-25" points="249.41 82.14 250.2 82.93 182.3 82.93 183.6 82.14 249.41 82.14"/><polygon class="cls-26" points="250.2 82.93 250.92 83.72 181.08 83.72 182.3 82.93 250.2 82.93"/><polygon class="cls-26" points="250.92 83.72 251.57 84.44 179.93 84.44 181.08 83.72 250.92 83.72"/><polygon class="cls-7" points="251.57 84.44 252.29 85.24 178.7 85.24 179.93 84.44 251.57 84.44"/><polygon class="cls-28" points="252.29 85.24 253.08 86.03 177.41 86.03 178.7 85.24 252.29 85.24"/><polygon class="cls-29" points="253.08 86.03 253.8 86.82 176.18 86.82 177.41 86.03 253.08 86.03"/><polygon class="cls-46" points="253.8 86.82 254.45 87.54 175.03 87.54 176.18 86.82 253.8 86.82"/><polygon class="cls-30" points="254.45 87.54 255.17 88.33 173.74 88.33 175.03 87.54 254.45 87.54"/><polygon class="cls-8" points="255.17 88.33 255.96 89.12 172.51 89.12 173.74 88.33 255.17 88.33"/><path class="cls-47" d="M256,89.12l.65.72H171.5l.22-.22.79-.5Z"/><path class="cls-31" d="M256.61,89.84l.72.79H170.71a4.11,4.11,0,0,1,.79-.79Z"/><path class="cls-48" d="M257.33,90.64l.72.79H170.28a2.8,2.8,0,0,1,.43-.79Z"/><path class="cls-32" d="M258,91.43l.72.79h-88.7a1.45,1.45,0,0,1,.22-.79Z"/><path class="cls-9" d="M258.77,92.22l.72.72H170.06a1.22,1.22,0,0,1,0-.72Z"/><path class="cls-40" d="M259.49,92.94l.72.79H170.28a1.64,1.64,0,0,1-.22-.79Z"/><path class="cls-33" d="M260.21,93.73l.72.79H170.71a4.33,4.33,0,0,1-.43-.79Z"/><path class="cls-34" d="M260.93,94.52l.72.79H171.43a7.23,7.23,0,0,1-.72-.79Z"/><path class="cls-10" d="M261.65,95.32l2.3,2.45-1.73,2.81c-29.09,3-68.4,2.74-82.66-1.58-4.1-1-6.7-2.3-8.14-3.67Z"/><path class="cls-2" d="M171.72,89.63c-3.38,2.59-2.16,7,7.85,9.36,14.26,4.32,53.57,4.61,82.66,1.58L264,97.76,248,80.63c-24.48-4.18-47.23-7.49-57.74-2.74Z"/><path class="cls-2" d="M197.93,80.63c14.69,1.08,35.35,1.66,49.75-.14-14.62-2.16-35-6.34-49-4.46C188.78,76.67,187.85,79.69,197.93,80.63Z"/><line class="cls-2" x1="230.9" y1="81.49" x2="237.89" y2="101.87"/><path class="cls-5" d="M182.16,97a27.07,27.07,0,0,0,6.34,2.38l9.58.65a37.89,37.89,0,0,0,9-1.73c.94-.43.58-1.08.58-1.15s-.07-.07-.29-.14Z"/><path class="cls-5" d="M182.16,97c-.07-.07-.07-.07-.14-.07h25a3.12,3.12,0,0,1,.36.07Z"/><path class="cls-5" d="M182,96.9a.37.37,0,0,0-.29-.14H206.5a4.49,4.49,0,0,1,.5.14Z"/><path class="cls-25" d="M181.73,96.76c-.07-.07-.14-.07-.22-.14h24.41c.22.07.43.07.58.14Z"/><path class="cls-25" d="M181.51,96.61c-.07-.07-.14-.07-.22-.14h23.9c.22.07.5.07.72.14Z"/><path class="cls-49" d="M181.3,96.47c-.14-.07-.22-.07-.29-.14h23.33c.29.07.58.07.86.14Z"/><path class="cls-26" d="M181,96.32c-.07-.07-.14-.07-.22-.14h23c.22.07.36.07.58.14Z"/><path class="cls-26" d="M180.79,96.18c-.07-.07-.14-.07-.22-.14h22.54c.22.07.43.07.65.14Z"/><path class="cls-26" d="M180.58,96c-.07,0-.14-.07-.22-.14h22a2.12,2.12,0,0,0,.72.14Z"/><path class="cls-27" d="M180.36,95.89c-.07,0-.14-.07-.22-.14h21.53a2.55,2.55,0,0,0,.72.14Z"/><path class="cls-7" d="M180.14,95.75c-.07,0-.14-.07-.22-.14h21a3.05,3.05,0,0,0,.79.14Z"/><path class="cls-7" d="M179.93,95.6c-.07,0-.07-.07-.14-.14h20.3a3.07,3.07,0,0,0,.79.14Z"/><path class="cls-28" d="M179.78,95.46c-.07,0-.14-.07-.22-.14h19.66c.29.07.58.07.86.14Z"/><path class="cls-28" d="M179.57,95.32c-.07,0-.14-.07-.22-.14H198.5c.22.07.5.07.72.14Z"/><path class="cls-29" d="M179.35,95.17l-.14-.14h18.58c.29.07.5.07.72.14Z"/><path class="cls-29" d="M179.21,95a.15.15,0,0,1-.14-.14h18.07c.22.07.43.07.65.14Z"/><path class="cls-46" d="M179.06,94.88a.15.15,0,0,1-.14-.14h17.5a3.18,3.18,0,0,0,.72.14Z"/><path class="cls-30" d="M178.92,94.74c-.07,0-.14-.07-.22-.14h17.06a2.09,2.09,0,0,0,.65.14Z"/><path class="cls-30" d="M178.7,94.6l-.14-.14H195a2.12,2.12,0,0,0,.72.14Z"/><path class="cls-8" d="M178.56,94.45a1.89,1.89,0,0,1-.5-1c0-2,7.13-1.08,15.12.65a17.1,17.1,0,0,0,1.87.36Z"/><path class="cls-2" d="M193.18,94.09c8,1.66,14.47,2.74,14.47,3,0,.07.36.72-.58,1.15a37.89,37.89,0,0,1-9,1.73l-9.58-.65c-5.69-1.44-10.44-4.46-10.44-5.9C178.06,91.43,185.18,92.36,193.18,94.09Z"/><path class="cls-5" d="M204.26,150.47c.72-.43,1-1.94-.65-2.52-2.23-1-6.62-1.66-11.38-1.66-5,0-7.34,1.94-8.14,4.18Z"/><path class="cls-5" d="M204.26,150.47h0c-.07.14-.22.22-.29.36H184c.07-.14.07-.22.14-.36Z"/><path class="cls-25" d="M204,150.83l-.36.36H183.89a3.14,3.14,0,0,1,.07-.36Z"/><path class="cls-26" d="M203.62,151.19a3.2,3.2,0,0,1-.5.43h-19.3a.91.91,0,0,1,.07-.43Z"/><path class="cls-26" d="M203.11,151.62c-.14.14-.29.22-.43.36H183.74a3.14,3.14,0,0,1,.07-.36Z"/><path class="cls-7" d="M202.68,152c-.14.07-.29.22-.5.36H183.74V152Z"/><path class="cls-28" d="M202.18,152.34a5,5,0,0,1-.65.43l-17.78.07v-.5Z"/><path class="cls-29" d="M201.53,152.77a6.52,6.52,0,0,0-.58.36l-17.14.07a.78.78,0,0,1-.07-.36Z"/><path class="cls-46" d="M201,153.13a2.92,2.92,0,0,0-.65.36l-16.49.07v-.36Z"/><path class="cls-30" d="M200.3,153.49l-.86.43H184c-.07-.14-.07-.22-.14-.36Z"/><path class="cls-8" d="M199.44,153.92a2.25,2.25,0,0,1-.72.36l-14.62.07a1,1,0,0,1-.14-.43Z"/><path class="cls-47" d="M198.72,154.28a3.35,3.35,0,0,1-.72.36H184.25a.54.54,0,0,1-.14-.29Z"/><path class="cls-31" d="M198,154.64l-1.08.43H184.46l-.22-.43Z"/><path class="cls-48" d="M196.92,155.08a3.61,3.61,0,0,1-.94.36H184.75c-.07-.14-.22-.22-.29-.36Z"/><path class="cls-32" d="M196,155.44c-.29.14-.65.22-.94.36h-9.94l-.36-.36Z"/><path class="cls-9" d="M195,155.8l-1.44.43h-7.78a2.39,2.39,0,0,1-.72-.43Z"/><path class="cls-40" d="M193.61,156.23a13.66,13.66,0,0,1-1.66.36l-5.11.07a4.24,4.24,0,0,1-1-.43Z"/><path class="cls-33" d="M192,156.59a12.29,12.29,0,0,1-5.11.07Z"/><path class="cls-2" d="M192.24,146.29c4.75,0,9.14.65,11.38,1.66,1.66.58,1.37,2.09.65,2.52-3.1,4.1-20.52,11.09-20.52,1.94C183.74,149.46,185.9,146.29,192.24,146.29Z"/><path class="cls-2" d="M187.34,148.81c1.15,1,8.5.5,9.94-.58l1.08-48.31-10.08-.5C188,115.91,187.7,132.32,187.34,148.81Z"/><path class="cls-5" d="M515.59,102.59c-12-1.94-24.69-2.52-39.1-2.16-.14,0-7.2.94-9.86,2.16Z"/><path class="cls-5" d="M515.59,102.59l1.22.22H466.27a1.57,1.57,0,0,1,.36-.22Z"/><path class="cls-25" d="M516.82,102.8l1.37.22H466a1,1,0,0,1,.29-.22Z"/><path class="cls-26" d="M518.18,103a12.77,12.77,0,0,1,1.44.29H465.77A.39.39,0,0,1,466,103Z"/><path class="cls-26" d="M519.62,103.31l1.08.22h-55a.26.26,0,0,1,.07-.22Z"/><path class="cls-7" d="M520.71,103.52l1.08.22H465.55c0-.07.07-.14.14-.22h55Z"/><path class="cls-28" d="M521.78,103.74a10.14,10.14,0,0,1,1.44.29H465.48c0-.14,0-.22.07-.29Z"/><path class="cls-29" d="M523.22,104l1.08.22H465.55c0-.07-.07-.14-.07-.22Z"/><path class="cls-46" d="M524.3,104.24l1,.22H465.7c-.07-.07-.07-.14-.14-.22Z"/><path class="cls-30" d="M525.31,104.46c.36.07.79.22,1.15.29H466.06c-.14-.07-.22-.22-.36-.29Z"/><path class="cls-8" d="M526.47,104.75l-1,.22H466.27l-.22-.22Z"/><path class="cls-47" d="M525.46,105c-.29.07-.65.14-1,.22H466.56a1,1,0,0,0-.29-.22Z"/><path class="cls-31" d="M524.45,105.18a8.36,8.36,0,0,1-1.3.29H467.06a1.16,1.16,0,0,0-.5-.29Z"/><path class="cls-48" d="M523.15,105.47c-.36.07-.72.14-1,.22H467.5l-.43-.22Z"/><path class="cls-32" d="M522.14,105.68c-.36.07-.72.14-1,.22H467.93l-.43-.22Z"/><path class="cls-9" d="M521.14,105.9c-.5.07-.94.22-1.37.29H468.65a2.16,2.16,0,0,0-.72-.29Z"/><path class="cls-40" d="M519.77,106.19l-1.3.22H469.3l-.65-.22Z"/><path class="cls-33" d="M518.47,106.4l-1.22.22H469.87a5,5,0,0,1-.58-.22Z"/><path class="cls-34" d="M517.25,106.62c-.65.07-1.3.22-2,.29H471c-.36-.07-.79-.22-1.15-.29Z"/><path class="cls-10" d="M515.23,106.91a144.6,144.6,0,0,1-40.46.5,12,12,0,0,1-3.74-.5Z"/><path class="cls-2" d="M474.77,107.41a145.33,145.33,0,0,0,51.7-2.66c-15.27-3.67-31.18-4.75-50-4.32-.14,0-10.87,1.37-10.8,3.1C464.18,104.82,471.1,107.56,474.77,107.41Z"/></g></g></svg>