<svg xmlns="http://www.w3.org/2000/svg" viewBox="0 0 484.55 168.35"><defs><style>.cls-1,.cls-2,.cls-4{fill:#fff;}.cls-1,.cls-2,.cls-24,.cls-3,.cls-38{stroke:#231f20;}.cls-1{stroke-width:2px;}.cls-24,.cls-3{fill:none;}.cls-3{stroke-width:0.21px;}.cls-5{fill:#f2f2f3;}.cls-6{fill:#e7e8e9;}.cls-7{fill:#dcddde;}.cls-8{fill:#d1d3d4;}.cls-9{fill:#c5c7c9;}.cls-10{fill:#babcbe;}.cls-11{fill:#b0b2b5;}.cls-12{fill:#a6a8aa;}.cls-13{fill:#9a9c9f;}.cls-14{fill:#909295;}.cls-15{fill:#86888b;}.cls-16{fill:#7b7d7f;}.cls-17{fill:#717375;}.cls-18{fill:#67686b;}.cls-19{fill:#5d5e61;}.cls-20{fill:#525355;}.cls-21{fill:#444446;}.cls-22{fill:#373537;}.cls-23,.cls-38{fill:#231f20;}.cls-25{fill:#fcfcfc;}.cls-26{fill:#f6f7f7;}.cls-27{fill:#eff0f0;}.cls-28{fill:#eeeeef;}.cls-29{fill:#ebeced;}.cls-30{fill:#e9eaeb;}.cls-31{fill:#e4e5e6;}.cls-32{fill:#e3e4e5;}.cls-33{fill:#e0e1e2;}.cls-34{fill:#dee0e1;}.cls-35{fill:#dadcdd;}.cls-36{fill:#d8d9db;}.cls-37{fill:#d6d8d9;}.cls-39{fill:#948885;}.cls-40{fill:#908683;}.cls-41{fill:#8a827f;}.cls-42{fill:#857d7a;}.cls-43{fill:#807876;}.cls-44{fill:#7b7573;}.cls-45{fill:#77716f;}.cls-46{fill:#716c6b;}.cls-47{fill:#6d6867;}.cls-48{fill:#676363;}.cls-49{fill:#625e5e;}.cls-50{fill:#5d5959;}.cls-51{fill:#575353;}.cls-52{fill:#524e4e;}.cls-53{fill:#4b4849;}.cls-54{fill:#444242;}.cls-55{fill:#3e3c3c;}.cls-56{fill:#373435;}.cls-57{fill:#2d2b2c;}</style></defs><title>C425</title><g id="Layer_2" data-name="Layer 2"><g id="Layer_1-2" data-name="Layer 1"><path class="cls-1" d="M455.8,75.45l20.45-51.77c.21-1.3,9.43-22.1,6.84-22.18C475,1.07,454.15,1.14,443,1c-7.06.86-9.94.94-15,5.9L405.47,28.43c-12.31,12.74-39.31,39.82-44.86,41.4-9.5,3.17-25.78,3.31-39.6,3.31-13.18-.14-25.34.65-36,.72l-29.88,1.58,46.94,12.46,128.59,13.61,16.78-3.46Z"/><polygon class="cls-2" points="272.2 78.69 263.42 76.46 274.51 76.1 272.2 78.69"/><line class="cls-3" x1="407.2" y1="95.25" x2="409.58" y2="91.29"/><line class="cls-2" x1="404.54" y1="85.89" x2="421.82" y2="63.71"/><line class="cls-2" x1="425.85" y1="64.36" x2="426.79" y2="62.7"/><polyline class="cls-2" points="449.32 1 441.91 10.51 458.54 10.51 455.87 14.46"/><polyline class="cls-2" points="455.8 14.46 457.82 17.78 456.67 19.72 452.27 19.29 424.05 59.75 426.71 62.7"/><line class="cls-2" x1="425.92" y1="64.36" x2="421.82" y2="63.71"/><line class="cls-2" x1="460.77" y1="62.27" x2="446.8" y2="61.84"/><polyline class="cls-2" points="460.77 62.49 446.95 61.7 429.31 94.53 447.67 97.48"/><line class="cls-3" x1="404.61" y1="85.96" x2="409.58" y2="91.58"/><polygon class="cls-2" points="424.84 106.05 424.41 111.74 410.8 109.58 424.84 106.05"/><path class="cls-1" d="M445.79,98c4.25.72,3.38,4.61-27.14,10.73L261.26,141.47l-77,.36c-15.48,0-36.43.14-44.14.14-18.43-.14-23.69,0-52.06-.14-12.45,0-62.14.58-80.28-12.38-10.87-7.06-7.7-10.94,3.1-16.7,31.1-15.34,104-17.14,100.3-15.7,4-3.38,28.44-23.54,53.14-24.12,2.59,0,49.75,1.15,79.49,1.3a192.57,192.57,0,0,1,23.11,1.44l162,19.73Z"/><path class="cls-4" d="M126.26,99.35a7.82,7.82,0,0,0,5.54-1.44c3.31-1.94,7.49-6.12,10.44-8.64,2.09-1.87,2.16-2.81,2.74-5v-.07Z"/><path class="cls-5" d="M126.26,99.35l-.86-.21L145,83.23v.94Z"/><path class="cls-6" d="M125.39,99.14c-.07-.07-.22-.07-.29-.14a2.47,2.47,0,0,1-.65-.07l20.45-16.7a4.74,4.74,0,0,0,.07,1Z"/><path class="cls-7" d="M124.46,98.92c-.29-.07-.65-.07-1-.14l21.46-17.57v1Z"/><path class="cls-8" d="M123.45,98.78l-1.08-.22,22.46-18.29a4.12,4.12,0,0,0,.07.94Z"/><path class="cls-9" d="M122.37,98.56l-1.08-.22,23.47-19.08c0,.36.07.65.07,1Z"/><path class="cls-10" d="M121.29,98.34c-.29-.07-.65-.07-1-.14l24.41-19.87a4.11,4.11,0,0,1,.07.94Z"/><path class="cls-11" d="M120.28,98.2l-1-.22,25.42-20.66v1Z"/><path class="cls-12" d="M119.27,98l-1-.22,24.62-20a18.61,18.61,0,0,1,1.8-.72v.29Z"/><path class="cls-13" d="M118.27,97.77l-1-.21,23-18.72c.86-.43,1.73-.72,2.59-1.08Z"/><path class="cls-14" d="M117.26,97.55l-1-.22,21.31-17.28c.86-.43,1.8-.86,2.74-1.22Z"/><path class="cls-15" d="M116.25,97.34a5.54,5.54,0,0,0-1.08-.14l19.37-15.7a29.64,29.64,0,0,1,3-1.44Z"/><path class="cls-16" d="M115.17,97.19c-.29-.07-.65-.14-1-.22L131.08,83.3c1.08-.58,2.23-1.22,3.46-1.8Z"/><path class="cls-17" d="M114.16,97c-.36-.07-.72-.14-1-.22l13.46-10.87c1.44-.87,2.88-1.73,4.46-2.59Z"/><path class="cls-18" d="M113.15,96.76q-.65-.11-1.08-.22L120.35,90c1.87-1.3,4-2.74,6.26-4.1Z"/><path class="cls-19" d="M112.07,96.54a3.14,3.14,0,0,1-.36-.07c1.87-1.44,4.75-3.82,8.64-6.48Z"/><path class="cls-2" d="M125.11,99c2.3,1,4.61.22,6.7-1.08,3.31-1.94,7.49-6.12,10.44-8.64,2.09-1.87,2.16-2.81,2.74-5-.07-3.38-.29-5.62-.29-7.2-17,6.41-28.3,15.77-33,19.44C113.73,96.83,124,99,125.11,99Z"/><path class="cls-4" d="M152.18,96.69a3.53,3.53,0,0,0,3,.65l4.82-.65Z"/><path class="cls-5" d="M152.18,96.69a1.64,1.64,0,0,1-.43-.86h14.69l-6.48.86Z"/><path class="cls-6" d="M151.75,95.82a.26.26,0,0,1-.07-.22v-.22L169.39,95a2.23,2.23,0,0,1-1.37.65l-1.58.22Z"/><path class="cls-7" d="M151.67,95.39c-.07-.22-.07-.58-.14-1l18.36-.22a3,3,0,0,1-.5.79Z"/><path class="cls-8" d="M151.53,94.39c-.07-.29-.07-.72-.14-1.08l18.72-.07c-.07.36-.14.65-.22.94Z"/><path class="cls-9" d="M151.39,93.31a3,3,0,0,1-.07-.79l18.86-.14c0,.36-.07.65-.07.86Z"/><path class="cls-10" d="M151.31,92.51c-.07-.29-.07-.58-.14-.86l19-.14v.86Z"/><path class="cls-11" d="M151.17,91.65a3.6,3.6,0,0,0-.14-.86l19.22-.14-.07.86Z"/><path class="cls-12" d="M151,90.78c0-.29-.07-.58-.07-.94l19.3-.07v.86Z"/><path class="cls-13" d="M151,89.85c-.07-.29-.07-.65-.14-1h19.44v.94Z"/><path class="cls-14" d="M150.81,88.84a4.23,4.23,0,0,0-.14-.94l19.66.07-.07.86Z"/><path class="cls-15" d="M150.67,87.91c0-.29-.07-.58-.07-.94l19.73.14V88Z"/><path class="cls-16" d="M150.59,87c-.07-.29-.07-.58-.14-.86l19.94.14-.07.86Z"/><path class="cls-17" d="M150.45,86.11c0-.29-.07-.58-.07-.79l20,.07v.86Z"/><path class="cls-18" d="M150.38,85.31c-.07-.29-.07-.58-.14-.86l20.23.07-.07.87Z"/><path class="cls-19" d="M150.23,84.45c-.07-.5-.07-.94-.14-1.22l20.38.43h0v.86Z"/><path class="cls-20" d="M150.09,83.23a4,4,0,0,0-.07-.65l20.38.22a3.52,3.52,0,0,1,.07.86Z"/><path class="cls-21" d="M150,82.58h0c0-.22.07-.43.07-.65l20.16-.07a3.67,3.67,0,0,1,.14.94Z"/><path class="cls-22" d="M150.09,81.93a3.89,3.89,0,0,1,.5-.94h19.08a2.59,2.59,0,0,1,.58.86Z"/><path class="cls-23" d="M150.59,81a4,4,0,0,1,3-.86c7.78.29,5.69.29,13.75.29a3.4,3.4,0,0,1,2.3.58Z"/><path class="cls-2" d="M153.62,80.13c7.78.29,5.69.29,13.75.29,2.45,0,3,.79,3.1,3.24l-.29,8c.07,2.23-.5,3.82-2.16,4l-12.89,1.73c-1.37.22-3.24-.07-3.46-1.73l-1.66-13C150.16,80.63,151.46,80.13,153.62,80.13Z"/><path class="cls-2" d="M194.08,94.67a15.09,15.09,0,0,0,9.22,0Z"/><path class="cls-2" d="M194.08,94.67a14.45,14.45,0,0,1-1.87-.72h13a14.34,14.34,0,0,1-1.87.72Z"/><path class="cls-2" d="M192.21,94c-.43-.22-.86-.5-1.22-.72h15.41c-.36.22-.79.5-1.22.72Z"/><path class="cls-2" d="M191,93.23a10.79,10.79,0,0,1-.94-.72h17.28a10.79,10.79,0,0,1-.94.72Z"/><path class="cls-2" d="M190.05,92.51a6.77,6.77,0,0,1-.72-.72h18.72a6.77,6.77,0,0,1-.72.72Z"/><path class="cls-2" d="M189.33,91.79c-.22-.22-.36-.5-.58-.72h19.87c-.21.22-.36.5-.58.72Z"/><path class="cls-2" d="M188.75,91.07c-.14-.22-.22-.5-.36-.72H209c-.14.22-.22.5-.36.72Z"/><path class="cls-2" d="M188.39,90.35a2.14,2.14,0,0,1-.29-.72h21.17a2.14,2.14,0,0,1-.29.72Z"/><path class="cls-2" d="M188.11,89.63a2.14,2.14,0,0,1-.14-.72h21.46a2.13,2.13,0,0,1-.14.72Z"/><path class="cls-2" d="M188,88.91a2.45,2.45,0,0,1-.07-.72h21.6a2.45,2.45,0,0,1-.07.72Z"/><path class="cls-2" d="M187.89,88.19h0a2.46,2.46,0,0,1,.07-.72h21.46a2.46,2.46,0,0,1,.07.72Z"/><path class="cls-2" d="M188,87.47a2.14,2.14,0,0,1,.14-.72h21.17a2.12,2.12,0,0,1,.14.72Z"/><path class="cls-2" d="M188.11,86.75a2.15,2.15,0,0,1,.29-.72H209a2.15,2.15,0,0,1,.29.72Z"/><path class="cls-2" d="M188.39,86c.14-.22.22-.5.36-.72h19.87c.14.22.22.5.36.72Z"/><path class="cls-2" d="M188.75,85.31c.22-.22.36-.5.58-.72h18.72c.22.22.36.5.58.72Z"/><path class="cls-2" d="M189.33,84.59a6.7,6.7,0,0,1,.72-.72h17.28a6.7,6.7,0,0,1,.72.72Z"/><path class="cls-2" d="M190.05,83.87a10.6,10.6,0,0,1,.94-.72h15.41a10.59,10.59,0,0,1,.94.72Z"/><path class="cls-2" d="M191,83.15c.36-.22.79-.5,1.22-.72h13c.43.22.86.5,1.22.72Z"/><path class="cls-2" d="M192.21,82.43a14.6,14.6,0,0,1,1.87-.72h9.22a14.49,14.49,0,0,1,1.87.72Z"/><path class="cls-2" d="M194.08,81.71a15.11,15.11,0,0,1,9.22,0Z"/><path class="cls-2" d="M198.69,81c6,0,10.8,3.24,10.8,7.2s-4.82,7.2-10.8,7.2-10.8-3.24-10.8-7.2S192.71,81,198.69,81Z"/><path class="cls-2" d="M221.15,94.74a15.95,15.95,0,0,0,8.5,0Z"/><path class="cls-2" d="M221.15,94.74a13.23,13.23,0,0,1-1.8-.72h12.1a13.17,13.17,0,0,1-1.8.72Z"/><path class="cls-2" d="M219.35,94a6.79,6.79,0,0,1-1.22-.72h14.54a6.72,6.72,0,0,1-1.22.72Z"/><path class="cls-2" d="M218.13,93.31l-.86-.65h16.27l-.86.65Z"/><path class="cls-2" d="M217.27,92.66a3.41,3.41,0,0,1-.72-.72h17.71a3.38,3.38,0,0,1-.72.72Z"/><path class="cls-2" d="M216.55,91.94a3.92,3.92,0,0,1-.5-.65h18.72a3.9,3.9,0,0,1-.5.65Z"/><path class="cls-2" d="M216,91.29a3.88,3.88,0,0,1-.43-.72h19.58a3.82,3.82,0,0,1-.43.72Z"/><path class="cls-2" d="M215.61,90.57a2.57,2.57,0,0,1-.29-.65h20.16a2.49,2.49,0,0,1-.29.65Z"/><path class="cls-2" d="M215.32,89.92a2.57,2.57,0,0,1-.14-.72h20.45a2.55,2.55,0,0,1-.14.72Z"/><path class="cls-2" d="M215.18,89.2a2.45,2.45,0,0,1-.07-.72H235.7a2.45,2.45,0,0,1-.07.72Z"/><path class="cls-2" d="M215.11,88.48h0a2,2,0,0,1,.07-.65h20.45a2,2,0,0,1,.07.65Z"/><path class="cls-2" d="M215.18,87.83a2.57,2.57,0,0,1,.14-.72h20.16a2.55,2.55,0,0,1,.14.72Z"/><path class="cls-2" d="M215.32,87.11l.22-.65h19.73l.22.65Z"/><path class="cls-2" d="M215.54,86.46c.14-.22.29-.5.43-.72h18.86c.14.22.29.5.43.72Z"/><path class="cls-2" d="M216,85.74a3.85,3.85,0,0,1,.5-.65h17.86a4,4,0,0,1,.5.65Z"/><path class="cls-2" d="M216.47,85.1a3.42,3.42,0,0,1,.72-.72h16.42a3.41,3.41,0,0,1,.72.72Z"/><path class="cls-2" d="M217.19,84.38c.29-.22.5-.43.79-.65h14.83c.29.22.5.43.79.65Z"/><path class="cls-2" d="M218,83.73a10.64,10.64,0,0,1,1.22-.72h12.38a10.52,10.52,0,0,1,1.22.72Z"/><path class="cls-2" d="M219.21,83c.65-.29,1.3-.58,1.94-.79h8.5c.65.21,1.3.5,1.94.79Z"/><path class="cls-2" d="M221.15,82.22a15.92,15.92,0,0,1,8.5,0Z"/><path class="cls-2" d="M225.4,81.64c5.69,0,10.3,3.1,10.3,6.84s-4.61,6.84-10.3,6.84-10.3-3.1-10.3-6.84S219.71,81.64,225.4,81.64Z"/><path class="cls-2" d="M249.45,94.67a14.72,14.72,0,0,0,8.64,0Z"/><path class="cls-2" d="M249.45,94.67a8.12,8.12,0,0,1-1.87-.65H260a8.14,8.14,0,0,1-1.87.65Z"/><path class="cls-2" d="M247.58,94c-.43-.21-.87-.5-1.22-.72h14.83c-.36.21-.79.5-1.22.72Z"/><path class="cls-2" d="M246.35,93.31a4.64,4.64,0,0,1-.94-.72h16.7a4.64,4.64,0,0,1-.94.72Z"/><path class="cls-2" d="M245.42,92.58a6.68,6.68,0,0,1-.72-.72h18.14a6.77,6.77,0,0,1-.72.72Z"/><path class="cls-2" d="M244.7,91.86a4,4,0,0,1-.5-.65h19.15a4,4,0,0,1-.5.65Z"/><path class="cls-2" d="M244.19,91.22c-.14-.22-.29-.5-.43-.72h20c-.14.22-.29.5-.43.72Z"/><path class="cls-2" d="M243.76,90.5a3,3,0,0,1-.29-.72h20.59a3,3,0,0,1-.29.72Z"/><path class="cls-2" d="M243.47,89.78a2.56,2.56,0,0,1-.14-.72h20.88a2.56,2.56,0,0,1-.14.72Z"/><path class="cls-2" d="M243.33,89.06a2.47,2.47,0,0,1-.07-.72h21a2.43,2.43,0,0,1-.07.72Z"/><path class="cls-2" d="M243.26,88.34h0a2,2,0,0,1,.07-.65h20.88a2,2,0,0,1,.07.65Z"/><path class="cls-2" d="M243.33,87.69a2.55,2.55,0,0,1,.14-.72h20.59a2.56,2.56,0,0,1,.14.72Z"/><path class="cls-2" d="M243.47,87a3,3,0,0,1,.29-.72h20a3,3,0,0,1,.29.72Z"/><path class="cls-2" d="M243.76,86.25a3.35,3.35,0,0,1,.36-.72h19.3a3.39,3.39,0,0,1,.36.72Z"/><path class="cls-2" d="M244.12,85.53c.14-.22.36-.43.5-.65h18.29c.14.22.36.43.5.65Z"/><path class="cls-2" d="M244.63,84.88a6.86,6.86,0,0,1,.72-.72h16.85a6.76,6.76,0,0,1,.72.72Z"/><path class="cls-2" d="M245.35,84.16a7.71,7.71,0,0,1,.86-.72h15.12a7.71,7.71,0,0,1,.86.72Z"/><path class="cls-2" d="M246.21,83.44c.43-.21.79-.5,1.23-.72h12.67c.43.21.79.5,1.22.72Z"/><path class="cls-2" d="M247.44,82.72a9.54,9.54,0,0,1,2-.72h8.64a9.55,9.55,0,0,1,2,.72Z"/><path class="cls-2" d="M249.45,82a14.72,14.72,0,0,1,8.64,0Z"/><path class="cls-2" d="M253.77,81.35c5.83,0,10.51,3.1,10.51,7s-4.68,7-10.51,7-10.51-3.1-10.51-7S247.94,81.35,253.77,81.35Z"/><path class="cls-2" d="M275.23,94.74a12.45,12.45,0,0,0,7.49,0Z"/><path class="cls-2" d="M275.23,94.74a7.77,7.77,0,0,1-1.37-.58h10.22a7.81,7.81,0,0,1-1.37.58Z"/><path class="cls-2" d="M273.86,94.17a4.6,4.6,0,0,1-1-.58h12.24a4.65,4.65,0,0,1-1,.58Z"/><path class="cls-2" d="M272.85,93.59c-.29-.14-.5-.36-.79-.5h13.82c-.29.14-.5.36-.79.5Z"/><path class="cls-2" d="M272.06,93.09c-.22-.22-.36-.43-.58-.65h15c-.22.22-.36.43-.58.65Z"/><path class="cls-2" d="M271.48,92.44a4.08,4.08,0,0,1-.5-.58h16a4.16,4.16,0,0,1-.5.58Z"/><path class="cls-2" d="M271,91.86c-.07-.22-.22-.36-.29-.58h16.56c-.07.22-.22.36-.29.58Z"/><path class="cls-2" d="M270.69,91.29a4.93,4.93,0,0,1-.22-.58h17a5,5,0,0,1-.21.58Z"/><path class="cls-2" d="M270.47,90.71a1.35,1.35,0,0,1-.14-.58h17.28a1.35,1.35,0,0,1-.14.58Z"/><path class="cls-2" d="M270.33,90.14a2,2,0,0,1-.07-.65h17.42a2,2,0,0,1-.07.65Z"/><path class="cls-2" d="M270.26,89.49h0a1.42,1.42,0,0,1,.07-.58h17.28a1.4,1.4,0,0,1,.07.58Z"/><path class="cls-2" d="M270.33,88.91c0-.22.07-.43.07-.58h17.14c0,.14.07.36.07.58Z"/><path class="cls-2" d="M270.4,88.34a1.46,1.46,0,0,1,.29-.58h16.56a1.46,1.46,0,0,1,.29.58Z"/><path class="cls-2" d="M270.69,87.76a2.15,2.15,0,0,1,.29-.58h16a2.17,2.17,0,0,1,.29.58Z"/><path class="cls-2" d="M271,87.19a3.92,3.92,0,0,1,.43-.58h15.12a3.92,3.92,0,0,1,.43.58Z"/><path class="cls-2" d="M271.41,86.61c.22-.22.36-.43.58-.65h14c.22.22.36.43.58.65Z"/><path class="cls-2" d="M272,86l.72-.5h12.53l.72.5Z"/><path class="cls-2" d="M272.71,85.46c.36-.22.65-.43,1-.65h10.51c.36.21.65.43,1,.65Z"/><path class="cls-2" d="M273.71,84.81a12.94,12.94,0,0,1,1.51-.58h7.49a12.94,12.94,0,0,1,1.51.58Z"/><path class="cls-2" d="M275.23,84.23a12.45,12.45,0,0,1,7.49,0Z"/><path class="cls-2" d="M279,83.66c4.75,0,8.71,2.59,8.71,5.83s-4,5.83-8.71,5.83-8.71-2.59-8.71-5.83S274.22,83.66,279,83.66Z"/><path class="cls-2" d="M297.76,94.67a11.29,11.29,0,0,0,6.19,0Z"/><path class="cls-2" d="M297.76,94.67a8.63,8.63,0,0,1-1.22-.5h8.64a8.67,8.67,0,0,1-1.22.5Z"/><path class="cls-2" d="M296.54,94.17c-.29-.14-.65-.36-.94-.5h10.51c-.29.14-.65.36-.94.5Z"/><path class="cls-2" d="M295.6,93.66c-.22-.14-.43-.36-.65-.5h11.81c-.22.14-.43.36-.65.5Z"/><path class="cls-2" d="M295,93.16a3.27,3.27,0,0,1-.5-.5h12.82a3.36,3.36,0,0,1-.5.5Z"/><path class="cls-2" d="M294.45,92.66a2.2,2.2,0,0,1-.36-.5h13.54a2.17,2.17,0,0,1-.36.5Z"/><path class="cls-2" d="M294.09,92.15a1.8,1.8,0,0,1-.29-.5h14.11a1.77,1.77,0,0,1-.29.5Z"/><path class="cls-2" d="M293.8,91.65c-.07-.14-.14-.36-.21-.5h14.54c-.07.14-.14.36-.22.5Z"/><path class="cls-2" d="M293.59,91.15a1.22,1.22,0,0,1-.07-.5H308.2a1.23,1.23,0,0,1-.07.5Z"/><path class="cls-2" d="M293.51,90.64a1.22,1.22,0,0,1-.07-.5h14.83a1.22,1.22,0,0,1-.07.5Z"/><path class="cls-2" d="M293.44,90.14h0a1.22,1.22,0,0,1,.07-.5H308.2a1.22,1.22,0,0,1,.07.5Z"/><path class="cls-2" d="M293.51,89.63a1.22,1.22,0,0,1,.07-.5h14.54a1.22,1.22,0,0,1,.07.5Z"/><path class="cls-2" d="M293.59,89.13c.07-.14.14-.36.21-.5h14.11c.07.14.14.36.22.5Z"/><path class="cls-2" d="M293.8,88.62a1.8,1.8,0,0,1,.29-.5h13.54a1.77,1.77,0,0,1,.29.5Z"/><path class="cls-2" d="M294.09,88.12a2.18,2.18,0,0,1,.36-.5h12.82a2.15,2.15,0,0,1,.36.5Z"/><path class="cls-2" d="M294.45,87.62a3.24,3.24,0,0,1,.5-.5h11.81a3.32,3.32,0,0,1,.5.5Z"/><path class="cls-2" d="M295,87.11c.22-.14.43-.36.65-.5h10.51c.22.14.43.36.65.5Z"/><path class="cls-2" d="M295.6,86.61c.29-.14.65-.36.94-.5h8.64c.29.14.65.36.94.5Z"/><path class="cls-2" d="M296.54,86.11a8.86,8.86,0,0,1,1.22-.5H304a8.91,8.91,0,0,1,1.22.5Z"/><path class="cls-2" d="M297.76,85.6a11.32,11.32,0,0,1,6.19,0Z"/><path class="cls-2" d="M300.86,85.17c4.1,0,7.42,2.23,7.42,5s-3.31,5-7.42,5-7.42-2.23-7.42-5S296.75,85.17,300.86,85.17Z"/><path class="cls-24" d="M242.11,78.11h23.83a1.46,1.46,0,0,1,1.51,1.44v52a1.52,1.52,0,0,1-1.51,1.51H242.11a1.57,1.57,0,0,1-1.51-1.51v-52A1.51,1.51,0,0,1,242.11,78.11Z"/><path class="cls-4" d="M393.59,111.38a4.81,4.81,0,0,1-.72,1.51l7.2-1.51Z"/><path class="cls-4" d="M137.78,100.29a4,4,0,0,0,2.16.5l5.9-.43c.22,0,.5-.07.72-.07Z"/><path class="cls-5" d="M137.78,100.29a2.05,2.05,0,0,1-.58-.5H148a3.75,3.75,0,0,1-1.44.5Z"/><path class="cls-6" d="M137.2,99.78c-.07-.22-.22-.36-.22-.58h11.74a2,2,0,0,1-.72.58Z"/><path class="cls-7" d="M137,99.21a1.23,1.23,0,0,1-.07-.5h12a4.6,4.6,0,0,1-.14.5Z"/><path class="cls-8" d="M136.91,98.7c0-.21.07-.36.07-.58h11.88v.58Z"/><path class="cls-9" d="M137,98.13c.07-.14.14-.36.22-.5h11.52a1.34,1.34,0,0,0,.14.5Z"/><path class="cls-10" d="M137.2,97.62h0c0-.07.22-.22.58-.5l10.8-.07c.07.14.07.36.14.58Z"/><path class="cls-11" d="M137.78,97.12a4.35,4.35,0,0,1,.58-.58h10.15c0,.14.07.29.07.5Z"/><path class="cls-12" d="M138.35,96.54l.58-.58h9.5c0,.14.07.36.07.58Z"/><path class="cls-13" d="M138.93,96a6.27,6.27,0,0,1,.72-.58h8.71a1.78,1.78,0,0,0,.07.58Z"/><path class="cls-14" d="M139.65,95.39a3.27,3.27,0,0,1,.5-.5h8.14a1.23,1.23,0,0,0,.07.5Z"/><path class="cls-15" d="M140.15,94.89a4.6,4.6,0,0,1,.65-.58h7.42a1.58,1.58,0,0,0,.07.58Z"/><path class="cls-16" d="M140.8,94.31a3.61,3.61,0,0,1,.58-.5h6.77a1.23,1.23,0,0,0,.07.5Z"/><path class="cls-17" d="M141.38,93.81a4.32,4.32,0,0,1,.58-.58h6c.07.22.07.36.14.58Z"/><path class="cls-18" d="M142,93.23a4.19,4.19,0,0,0,.58-.5h5.4a1.23,1.23,0,0,1,.07.5Z"/><path class="cls-19" d="M142.53,92.73a4.68,4.68,0,0,1,.65-.58h4.68c0,.22.07.36.07.58Z"/><path class="cls-20" d="M143.18,92.15c.22-.22.43-.36.65-.58l3.89.07c.07.14.07.36.14.5Z"/><path class="cls-21" d="M143.83,91.58a5.86,5.86,0,0,0,.65-.58l2.74.07a1.66,1.66,0,0,1,.5.5v.07Z"/><path class="cls-22" d="M144.47,91l.07-.07c.65-.72,1.94-.36,2.66.14Z"/><path class="cls-2" d="M145.84,100.36l-5.9.43c-2.88,0-3.46-1.66-2.74-3.17.22-.29,6.77-6.19,7.34-6.7.86-.94,2.88-.07,3.17.65.5,2.09.58,4.32,1.15,6.7C149,99.57,147.79,100.22,145.84,100.36Z"/><path class="cls-2" d="M18,109.58l-2.3,23.69Z"/><path class="cls-4" d="M428.51,82.5c.07.22.14.5.22.72l-36.43.07.36-.72Z"/><path class="cls-25" d="M428.73,83.23a4.11,4.11,0,0,1,.29.86H391.94l.36-.79Z"/><path class="cls-26" d="M429,84.09a2.59,2.59,0,0,1,.29.79h-37.8l.43-.79Z"/><path class="cls-26" d="M429.31,84.88a3,3,0,0,1,.29.72l-38.52.07.43-.79Z"/><path class="cls-5" d="M429.59,85.6c.07.29.22.58.29.86H390.71l.36-.79Z"/><path class="cls-27" d="M429.88,86.46c.07.22.22.5.29.79H390.28l.43-.79Z"/><path class="cls-28" d="M430.17,87.26c.07.22.21.5.29.79H389.85l.43-.79Z"/><path class="cls-29" d="M430.46,88c.07.29.22.58.29.79H389.49l.36-.79Z"/><path class="cls-30" d="M430.75,88.84a2.58,2.58,0,0,0,.29.79h-42l.43-.79Z"/><path class="cls-6" d="M431,89.63a2.61,2.61,0,0,0,.29.79h-42.7l.43-.79Z"/><path class="cls-31" d="M431.32,90.43a2.59,2.59,0,0,0,.29.79H388.27l.36-.79Z"/><path class="cls-32" d="M431.61,91.22c.07.29.14.58.22.79h-44l.43-.79Z"/><path class="cls-33" d="M431.83,92a5.25,5.25,0,0,1,.29.79H387.4l.43-.79Z"/><path class="cls-34" d="M432.11,92.8c.07.29.22.5.29.79H387l.36-.79Z"/><path class="cls-7" d="M432.4,93.59c.07.29.22.5.29.79H386.61l.43-.79Z"/><path class="cls-35" d="M432.69,94.39c.07.29.22.58.29.86l-46.8-.07.43-.79Z"/><path class="cls-36" d="M433,95.25a5.58,5.58,0,0,1,.29.79L385.82,96l.36-.79Z"/><path class="cls-37" d="M433.27,96c.07.29.22.58.29.79l-48.17-.07.43-.79Z"/><path class="cls-2" d="M397.27,105c11.16,0,27.43.14,38.16-2.88,0,0-9.43-26.71-9.43-26.86-5.18-.79-15-1.08-21.67-1-5.69-.14-7.49.43-7.78.79l-14.11,27.43C382.36,105,393.74,105,397.27,105Z"/><path class="cls-2" d="M259.6,124.84c-2.09-2.38-22.54-8.21-29.45-10.3A374.77,374.77,0,0,0,96.81,100.29c-3.89.58-10.22,1-10.3,2.52l.86,24.26c.14,1.44,1.3,3.38,4.9,4.82,13.61,5.4,38.59,5.54,52.85,5.47C166.94,136.94,242.11,140.75,259.6,124.84Z"/><path class="cls-38" d="M77.14,159.93c-.44-10.83-.29-30.83,1.51-41.07l2.92.52s3.2,26.2,2,36.71c-.24,2.18-.46,3.94-.65,5.35-.87,6.32-1.34,5.8-1.87,6.29a3.14,3.14,0,0,1-3.4-1.3A48.18,48.18,0,0,1,77.14,159.93Z"/><path class="cls-38" d="M77.14,63.52c-.44,10.83-.29,30.83,1.51,41.07l2.92-.52s3.2-26.2,2-36.71c-.24-2.18-.46-3.94-.65-5.35-.87-6.32-1.34-5.8-1.87-6.29A3.14,3.14,0,0,0,77.67,57,48.18,48.18,0,0,0,77.14,63.52Z"/><path class="cls-2" d="M84.79,120.66l-.14-18c-6.41,1.22-15.34,4-20.74,7.56-1.15.94-1.51,1.44.79,3.67C69.38,117.57,76.51,119.23,84.79,120.66Z"/><path class="cls-2" d="M108.26,108.64l8.71,2.74c.65.14.86.22.86,1.66v1.58c0,1.3-.29,1.66-.94,1.8l-9.14,2.16c-.94.22-1.08.29-1.08-1.44l.07-6.91C106.75,108.06,107,108.14,108.26,108.64Z"/><path class="cls-3" d="M109.19,110.44h0a.65.65,0,0,1,.65.65v5.33a.64.64,0,0,1-.65.65h0a.64.64,0,0,1-.65-.65v-5.33A.65.65,0,0,1,109.19,110.44Z"/><path class="cls-39" d="M105.67,109.58a6.82,6.82,0,0,0-2.09-.14.65.65,0,0,0-.36.07Z"/><path class="cls-40" d="M105.67,109.58a9.81,9.81,0,0,1,1.8.5l-5.61-.22a5.52,5.52,0,0,1,1.37-.36Z"/><path class="cls-41" d="M107.47,110.08c.43.14.79.29,1.3.5L101,110.3l.87-.43Z"/><path class="cls-42" d="M108.76,110.58c.29.07.65.29,1.08.43l-9.58-.29a6.16,6.16,0,0,1,.72-.43Z"/><path class="cls-43" d="M109.84,111c.22.07.43.22.65.29v.14l-10.73-.29c.14-.14.36-.29.5-.43Z"/><path class="cls-44" d="M110.49,111.45v.5l-11.23-.36a3.15,3.15,0,0,1,.5-.43Z"/><path class="cls-45" d="M110.49,112v.43L99,112c.07-.14.22-.29.29-.43Z"/><path class="cls-46" d="M110.49,112.39v.43l-11.74-.36L99,112Z"/><path class="cls-47" d="M110.49,112.82v.43l-11.88-.36a1,1,0,0,1,.14-.43Z"/><path class="cls-48" d="M110.49,113.25l.07.5-12-.36h0a1.23,1.23,0,0,1,.07-.5Z"/><path class="cls-49" d="M110.56,113.75v.43l-12-.36v-.43Z"/><path class="cls-50" d="M110.56,114.19v.43l-11.88-.36c-.07-.14-.07-.29-.14-.43Z"/><path class="cls-51" d="M110.56,114.62V115l-11.73-.36a1,1,0,0,1-.14-.43Z"/><path class="cls-52" d="M110.56,115v.43L99,115.12c-.07-.14-.07-.29-.14-.43Z"/><path class="cls-53" d="M110.56,115.48v.5l-11.23-.29c-.14-.22-.22-.36-.36-.58Z"/><path class="cls-54" d="M110.56,116v.22a1.53,1.53,0,0,0-.36.22l-10.44-.29-.43-.43Z"/><path class="cls-55" d="M110.2,116.42a8.42,8.42,0,0,1-.94.36l-9.07-.22-.43-.43Z"/><path class="cls-56" d="M109.27,116.78a4.56,4.56,0,0,1-1.3.43l-7.13-.22-.65-.43Z"/><path class="cls-57" d="M108,117.21a10,10,0,0,1-2,.43h-3.89a4,4,0,0,1-1.22-.65Z"/><path class="cls-23" d="M106,117.64a15.32,15.32,0,0,1-2.45.22,5.36,5.36,0,0,1-1.44-.22Z"/><path class="cls-2" d="M103.58,109.43c2.3-.14,4.1.65,6.91,1.87l.07,4.9a15.39,15.39,0,0,1-7.06,1.66c-2.23,0-5-2-5-4.46C98.54,111.23,101.78,109.58,103.58,109.43Z"/><path class="cls-4" d="M219.07,116.7,216,112.89c-16.49-1.8-32.33-3.46-48.75-1.8-2.16.5-8,.79-8.42,2l-.43,3.6Z"/><path class="cls-2" d="M182.49,136.14c9.29,0,17.14-1.08,26.93-1.51,6.48-1.08,14.54-2.3,21.17-4l-2.52-3L216,112.89c-16.49-1.8-32.33-3.46-48.75-1.8-2.16.5-8,.79-8.42,2l-1.94,15.48C155,134.63,179.61,136.14,182.49,136.14Z"/><path class="cls-38" d="M156.86,128.73l1.73-14.9q1.08,1.3,4.1,1.51c-.72,5.76-1.44,11.59-2.16,17.35C158.23,131.68,156.35,130.6,156.86,128.73Z"/><path class="cls-2" d="M162.76,115.34c11.16,2.23,31,.36,53.07-2.45"/></g></g></svg>