<svg xmlns="http://www.w3.org/2000/svg" viewBox="0 0 532.01 178.4"><defs><style>.cls-1,.cls-2,.cls-3{fill:#fff;}.cls-1,.cls-2,.cls-23,.cls-42,.cls-43{stroke:#231f20;}.cls-1{stroke-width:2px;}.cls-4{fill:#f2f2f3;}.cls-5{fill:#e7e8e9;}.cls-6{fill:#dcddde;}.cls-7{fill:#d1d3d4;}.cls-8{fill:#c5c7c9;}.cls-9{fill:#babcbe;}.cls-10{fill:#b0b2b5;}.cls-11{fill:#a6a8aa;}.cls-12{fill:#9a9c9f;}.cls-13{fill:#909295;}.cls-14{fill:#86888b;}.cls-15{fill:#7b7d7f;}.cls-16{fill:#717375;}.cls-17{fill:#67686b;}.cls-18{fill:#5d5e61;}.cls-19{fill:#525355;}.cls-20{fill:#444446;}.cls-21{fill:#373537;}.cls-22,.cls-42,.cls-43{fill:#231f20;}.cls-23{fill:none;}.cls-24{fill:#fcfcfc;}.cls-25{fill:#f6f7f7;}.cls-26{fill:#eeeeef;}.cls-27{fill:#e9eaeb;}.cls-28{fill:#e3e4e5;}.cls-29{fill:#dee0e1;}.cls-30{fill:#dadcdd;}.cls-31{fill:#d6d8d9;}.cls-32{fill:#d0d1d3;}.cls-33{fill:#cbcdcf;}.cls-34{fill:#c7c9cb;}.cls-35{fill:#c3c5c7;}.cls-36{fill:#bfc1c3;}.cls-37{fill:#eff0f0;}.cls-38{fill:#ebeced;}.cls-39{fill:#e4e5e6;}.cls-40{fill:#e0e1e2;}.cls-41{fill:#d8d9db;}.cls-43{stroke-width:0.21px;}</style></defs><title>C441</title><g id="Layer_2" data-name="Layer 2"><g id="Layer_1-2" data-name="Layer 1"><path class="cls-1" d="M521.56,29.41C522,28,533.58,2,530.49,1.62,516.66,1.54,503.06.82,496.93,1c-3.74.14-6.62-.43-10.3,2.16L417.16,69.37c-13.61,13-29.38,11-44.5,11.88-14.4,1.08-84.6,1.44-96.91,1.58l25.49,4.1L322.91,95l109.22,14.33,61.2-1Z"/><polygon class="cls-2" points="311.46 89.38 307.22 88.23 304.77 87.94 307.93 84.42 316 84.42 311.46 89.38"/><polygon class="cls-2" points="304.77 87.94 297.42 87.08 299.8 84.49 307.93 84.42 304.77 87.94"/><polygon class="cls-2" points="297.42 87.08 290.15 86.14 291.66 84.49 299.8 84.49 297.42 87.08"/><polygon class="cls-2" points="290.15 86.14 276.76 84.56 291.66 84.49 290.15 86.14"/><polyline class="cls-2" points="505.72 73.33 494.7 72.68 475.12 103.71 494.27 106.23"/><polyline class="cls-2" points="437.46 110.41 465.33 71.82 471.3 73.62 472.45 72.46 468.21 67.71 498.59 25.81 501.76 26.67 502.55 25.16 500.75 23.43 502.77 20.84 484.91 20.84 500.75 1.11"/><polygon class="cls-2" points="460.57 117.03 460.14 122.94 445.89 120.7 460.57 117.03"/><path class="cls-1" d="M469.58,104.86c25.2,4.9,33.48,5.76,13.82,9.79l-155,32c-1.51.36-12.53,1.51-27.5,2.52-52,1.15-171.07-1-179.06-1-15.48.21-27.5.14-55-.58-10.37-.22-44.06-1.8-62.14-10.87-6.19-4.46-3.31-10.22-.36-12.24,23.47-18.14,105-19.8,109.37-20.3,1.44-2.16,19.22-19.73,49.54-23.4,2.74,0,75.67.22,106.63.5a181.81,181.81,0,0,1,23.47,1.22L452,102.2Z"/><path class="cls-3" d="M131.53,106.38a9.34,9.34,0,0,0,7.92-3c2.38-2.3,6.12-4.75,8.78-7.92,1.3-.79,1.73-2.45,1.66-4.39Z"/><path class="cls-4" d="M131.53,106.38c-.22-.07-.43-.07-.65-.14h-.29L149.82,90.1a5.11,5.11,0,0,1,.07,1Z"/><path class="cls-5" d="M130.6,106.23a9.41,9.41,0,0,1-1.08-.21l20.23-16.85a4.45,4.45,0,0,1,.07.94Z"/><path class="cls-6" d="M129.52,106a4,4,0,0,1-1.22-.22l21.24-17.57c.07.29.14.65.22.94Z"/><path class="cls-7" d="M128.3,105.8c-.29-.07-.65-.07-.94-.14l22-18.36a3.64,3.64,0,0,1,.14.94Z"/><path class="cls-8" d="M127.36,105.66a8.9,8.9,0,0,1-1.15-.29l22.9-18.94a4,4,0,0,1,.29.86Z"/><path class="cls-9" d="M126.21,105.37l-.94-.22,23.62-19.58.22.87Z"/><path class="cls-10" d="M125.27,105.15l-1.08-.21L148.6,84.7a4.06,4.06,0,0,1,.29.86Z"/><path class="cls-11" d="M124.19,104.94l-1-.22,25.13-20.81a2.57,2.57,0,0,1,.29.79Z"/><path class="cls-12" d="M123.18,104.72a6.19,6.19,0,0,1-1.08-.29l24.62-20.3c.5-.14,1-.36,1.51-.5,0,.07.07.22.07.29Z"/><path class="cls-13" d="M122.1,104.43l-.94-.22,23.47-19.37a17.74,17.74,0,0,1,2.09-.72Z"/><path class="cls-14" d="M121.17,104.22l-1-.22,22.1-18.29,2.38-.86Z"/><path class="cls-15" d="M120.16,104c-.36-.07-.65-.22-1-.29l20.52-16.92,2.59-1.08Z"/><path class="cls-16" d="M119.15,103.71l-.94-.22L137,87.94c.86-.36,1.73-.79,2.66-1.15Z"/><path class="cls-17" d="M118.22,103.5a6,6,0,0,0-1.08-.29L133.62,89.6c1.08-.5,2.23-1.08,3.38-1.66Z"/><path class="cls-18" d="M117.14,103.21a6,6,0,0,0-.86-.29l13.46-11.09c1.22-.79,2.52-1.51,3.89-2.23Z"/><path class="cls-19" d="M116.27,102.92c-.43-.14-.72-.22-.94-.29l8.21-6.77a65.7,65.7,0,0,1,6.19-4Z"/><path class="cls-20" d="M115.34,102.63c-.07-.07-.07-.07-.15-.07,2.09-1.8,4.82-4.18,8.35-6.7Z"/><path class="cls-2" d="M130.89,106.23a9.08,9.08,0,0,0,8.57-2.81c2.38-2.3,6.12-4.75,8.78-7.92,3.1-1.94,1.22-8.5,0-11.88a87.28,87.28,0,0,0-33,18.94A117.52,117.52,0,0,0,130.89,106.23Z"/><path class="cls-3" d="M157.6,103.28c.72.65,1.66.72,3.31.58l5.62-.58Z"/><path class="cls-4" d="M157.6,103.28a2.73,2.73,0,0,1-.65-.87h15.7a2.64,2.64,0,0,1-1.15.36l-5,.5Z"/><path class="cls-5" d="M157,102.42c-.14-.29-.22-.5-.36-.86h17.06a3.76,3.76,0,0,1-1,.86Z"/><path class="cls-6" d="M156.59,101.55a7.42,7.42,0,0,1-.22-.86h18a2.87,2.87,0,0,1-.72.86Z"/><path class="cls-7" d="M156.37,100.69c0-.07-.07-.14-.07-.22l-.14-.65h18.65a9.6,9.6,0,0,1-.43.86Z"/><path class="cls-8" d="M156.16,99.82,156,99h19.15a4.39,4.39,0,0,1-.36.86Z"/><path class="cls-9" d="M156,99l-.14-.86h19.51l-.22.86Z"/><path class="cls-10" d="M155.87,98.1l-.22-.87h19.73v.87Z"/><polygon class="cls-11" points="155.66 97.23 155.51 96.37 175.38 96.37 175.38 97.23 155.66 97.23"/><polygon class="cls-12" points="155.51 96.37 155.37 95.43 175.31 95.43 175.38 96.37 155.51 96.37"/><polygon class="cls-13" points="155.37 95.43 155.15 94.57 175.31 94.57 175.31 95.43 155.37 95.43"/><polygon class="cls-14" points="155.15 94.57 155.01 93.7 175.31 93.7 175.31 94.57 155.15 94.57"/><polygon class="cls-15" points="155.01 93.7 154.86 92.84 175.31 92.84 175.31 93.7 155.01 93.7"/><polygon class="cls-16" points="154.86 92.84 154.72 91.98 175.24 91.98 175.31 92.84 154.86 92.84"/><polygon class="cls-17" points="154.72 91.98 154.5 91.11 175.24 91.11 175.24 91.98 154.72 91.98"/><path class="cls-18" d="M154.5,91.11l-.14-.86h20.81a.65.65,0,0,1,.07.36v.5Z"/><path class="cls-19" d="M154.36,90.25l-.07-.36v-.5H175a1.92,1.92,0,0,1,.22.86Z"/><path class="cls-20" d="M154.29,89.38c0-.36.07-.65.07-.86h20.16a2.43,2.43,0,0,1,.43.86Z"/><path class="cls-21" d="M154.36,88.52a2.27,2.27,0,0,1,.43-.94h18.79a3.84,3.84,0,0,1,.94.94Z"/><path class="cls-22" d="M154.79,87.58c.5-.58,1.37-.72,3-.86l13.61.22a4.81,4.81,0,0,1,2.23.65Z"/><path class="cls-2" d="M157.74,86.72l13.61.22a3.79,3.79,0,0,1,3.89,3.67l.14,7.34c-.43,2.81-2.45,4.82-3.89,4.82l-10.58,1.08c-2.88.29-3.82-.14-4.61-3.38l-2-10.58C154.29,87.37,154.86,86.94,157.74,86.72Z"/><path class="cls-23" d="M284.61,85h25.2a1.55,1.55,0,0,1,1.58,1.58v53.5a1.65,1.65,0,0,1-1.58,1.58h-25.2a1.58,1.58,0,0,1-1.51-1.58V86.58A1.49,1.49,0,0,1,284.61,85Z"/><path class="cls-3" d="M435.74,122a7.84,7.84,0,0,1-1,1.66l8.06-1.66Z"/><path class="cls-24" d="M435.74,122l.22-.43h8.93l-2.09.43Z"/><path class="cls-2" d="M19.43,116.82l-2,24.55Z"/><polygon class="cls-3" points="32.25 146.12 33.33 146.12 33.4 145.11 32.25 146.12"/><polygon class="cls-24" points="32.25 146.12 31.89 146.12 33.4 144.82 33.4 145.11 32.25 146.12"/><polygon class="cls-25" points="31.89 146.12 31.45 146.12 33.4 144.46 33.4 144.82 31.89 146.12"/><polygon class="cls-4" points="31.45 146.12 31.02 146.12 33.47 144.03 33.4 144.46 31.45 146.12"/><polygon class="cls-26" points="31.02 146.12 30.59 146.12 33.47 143.67 33.47 144.03 31.02 146.12"/><polygon class="cls-27" points="30.59 146.12 30.09 146.12 33.47 143.24 33.47 143.67 30.59 146.12"/><polygon class="cls-5" points="30.09 146.12 29.66 146.12 33.47 142.88 33.47 143.24 30.09 146.12"/><polygon class="cls-28" points="29.66 146.12 29.22 146.12 30.45 145.11 30.59 145.11 30.59 145.04 33.54 142.45 33.47 142.88 29.66 146.12"/><polygon class="cls-29" points="29.22 146.12 28.79 146.12 30.02 145.11 30.45 145.11 29.22 146.12"/><polygon class="cls-29" points="30.59 145.04 30.59 144.61 33.47 142.16 33.54 142.16 33.54 142.45 30.59 145.04"/><polygon class="cls-30" points="28.79 146.12 28.57 146.12 28.57 145.9 29.58 145.11 30.02 145.11 28.79 146.12"/><polygon class="cls-30" points="30.59 144.61 30.59 144.25 33.11 142.09 33.47 142.16 30.59 144.61"/><polygon class="cls-31" points="28.57 145.9 28.57 145.54 29.15 145.11 29.58 145.11 28.57 145.9"/><polygon class="cls-31" points="30.59 144.25 30.59 143.89 32.75 141.94 33.11 142.09 30.59 144.25"/><polygon class="cls-7" points="28.57 145.54 28.57 145.18 28.72 145.11 29.15 145.11 28.57 145.54"/><polygon class="cls-7" points="30.59 143.89 30.59 143.46 32.39 141.87 32.75 141.94 30.59 143.89"/><polygon class="cls-32" points="28.57 145.18 28.57 145.11 28.72 145.11 28.57 145.18"/><polygon class="cls-32" points="30.59 143.46 30.59 143.1 32.03 141.8 32.39 141.87 30.59 143.46"/><polygon class="cls-33" points="30.59 143.1 30.59 142.66 31.74 141.73 32.03 141.8 30.59 143.1"/><polygon class="cls-34" points="30.59 142.66 30.59 142.31 31.38 141.66 31.74 141.73 30.59 142.66"/><polygon class="cls-35" points="30.59 142.31 30.59 141.94 31.02 141.51 31.38 141.66 30.59 142.31"/><polygon class="cls-36" points="30.59 141.94 30.59 141.51 30.66 141.44 31.02 141.51 30.59 141.94"/><polygon class="cls-9" points="30.59 141.51 30.59 141.44 30.66 141.44 30.59 141.51"/><polygon class="cls-2" points="30.59 141.44 30.59 145.11 28.57 145.11 28.57 146.12 33.33 146.12 33.54 142.16 30.59 141.44"/><path class="cls-2" d="M201.3,100.54a32.51,32.51,0,0,0,3.67.07l3.82.07a30.21,30.21,0,0,0,3.74-.14Z"/><path class="cls-2" d="M201.3,100.54a6.51,6.51,0,0,1-2.3-.65l16.06.07a10,10,0,0,1-2.52.58Z"/><path class="cls-2" d="M199,99.9a3.67,3.67,0,0,1-.94-.65l18.22-.07a5.12,5.12,0,0,1-1.22.79Z"/><path class="cls-2" d="M198.06,99.25l-.43-.65,19.15-.07a1.56,1.56,0,0,1-.5.65Z"/><path class="cls-2" d="M197.63,98.6a2.66,2.66,0,0,1-.36-.79h19.8a2.17,2.17,0,0,1-.29.72Z"/><path class="cls-2" d="M197.27,97.81a1.69,1.69,0,0,1-.14-.58l20-.07a2,2,0,0,1-.07.65Z"/><path class="cls-2" d="M197.13,97.23a2.93,2.93,0,0,1-.07-.79h20.09v.72Z"/><polygon class="cls-2" points="197.06 96.44 197.06 96.37 197.06 95.79 217.14 95.79 217.14 96.44 197.06 96.44"/><rect class="cls-2" x="197.05" y="95.07" width="20.09" height="0.72"/><rect class="cls-2" x="197.05" y="94.42" width="20.09" height="0.65"/><polygon class="cls-2" points="197.06 94.42 196.98 93.7 217.14 93.7 217.14 94.42 197.06 94.42"/><rect class="cls-2" x="196.98" y="93.06" width="20.16" height="0.65"/><rect class="cls-2" x="196.98" y="92.34" width="20.16" height="0.72"/><rect class="cls-2" x="196.98" y="91.69" width="20.16" height="0.65"/><path class="cls-2" d="M197,91.69V91h20.16v.72Z"/><path class="cls-2" d="M197,91c.07-.29.07-.5.14-.72l19.94.07a2,2,0,0,1,.07.65Z"/><path class="cls-2" d="M197.13,90.25a3.82,3.82,0,0,1,.43-.72l19.22.07a2.16,2.16,0,0,1,.29.72Z"/><path class="cls-2" d="M197.56,89.53a5.52,5.52,0,0,1,.65-.65l17.93.07a2.73,2.73,0,0,1,.65.65Z"/><path class="cls-2" d="M198.21,88.88a4.41,4.41,0,0,1,1.44-.65h15a3.7,3.7,0,0,1,1.51.72Z"/><path class="cls-2" d="M199.65,88.23a19.33,19.33,0,0,1,5.9-.65h3.38a18.92,18.92,0,0,1,5.69.65Z"/><path class="cls-2" d="M205.55,87.58h3.38c6,0,8.21,1.15,8.21,3.38v6.12c0,3.1-3.67,3.67-8.35,3.6l-3.82-.07c-2.74,0-7.85.58-7.92-4.25L197,91.26C197,87.94,201.66,87.58,205.55,87.58Z"/><path class="cls-2" d="M230.39,100.62c1.8.5,4,.22,5.62.22h3.1a32.91,32.91,0,0,0,4-.22Z"/><path class="cls-2" d="M230.39,100.62A5.22,5.22,0,0,1,229,100l16.7-.07a8.52,8.52,0,0,1-2.59.72Z"/><path class="cls-2" d="M229,100a8,8,0,0,1-.72-.79l18.5.07a3.92,3.92,0,0,1-1.08.65Z"/><path class="cls-2" d="M228.23,99.18a5.19,5.19,0,0,1-.36-.65h19.51a5.86,5.86,0,0,1-.65.72Z"/><path class="cls-2" d="M227.87,98.53c-.07-.22-.14-.5-.22-.72l20-.07a3.51,3.51,0,0,1-.29.79Z"/><path class="cls-2" d="M227.66,97.81a2.13,2.13,0,0,1-.14-.72l20.3-.07c-.07.29-.07.5-.14.72Z"/><path class="cls-2" d="M227.51,97.09a2.71,2.71,0,0,1-.07-.79h20.38V97Z"/><path class="cls-2" d="M227.44,96.3v-.72h20.38v.72Z"/><rect class="cls-2" x="227.44" y="94.86" width="20.38" height="0.72"/><polygon class="cls-2" points="227.44 94.86 227.37 94.14 247.81 94.14 247.81 94.86 227.44 94.86"/><rect class="cls-2" x="227.37" y="93.42" width="20.45" height="0.72"/><rect class="cls-2" x="227.37" y="92.7" width="20.45" height="0.72"/><path class="cls-2" d="M227.37,92.7V92h20.45v.72Z"/><path class="cls-2" d="M227.37,92c0-.29.07-.5.07-.72h20.38V92Z"/><path class="cls-2" d="M227.44,91.26c.07-.29.14-.5.22-.72h20a2.13,2.13,0,0,1,.14.72Z"/><path class="cls-2" d="M227.66,90.54a2.24,2.24,0,0,1,.36-.72h19.3a2.25,2.25,0,0,1,.36.72Z"/><path class="cls-2" d="M228,89.82a2,2,0,0,1,.65-.72l18-.07a2.25,2.25,0,0,1,.65.79Z"/><path class="cls-2" d="M228.66,89.1a3.1,3.1,0,0,1,1.44-.79h15a4.21,4.21,0,0,1,1.51.72Z"/><path class="cls-2" d="M230.1,88.3a15.19,15.19,0,0,1,5.11-.65H239a20.43,20.43,0,0,1,6.19.65Z"/><path class="cls-2" d="M235.22,87.66H239c4.32,0,8.86.22,8.86,3.89v5.11c0,3.46-3.53,4.18-8.71,4.18H236c-3.1,0-8.57,1.15-8.57-4.75l-.07-3.82C227.37,88.3,230.61,87.73,235.22,87.66Z"/><path class="cls-2" d="M316.65,99.61a10.18,10.18,0,0,0,4,.5h3.89a14.72,14.72,0,0,0,4.39-.5Z"/><path class="cls-2" d="M316.65,99.61a3,3,0,0,1-.79-.5h14a4.45,4.45,0,0,1-1,.5Z"/><path class="cls-2" d="M315.86,99.1a1.69,1.69,0,0,1-.5-.5l15.19-.07a4.71,4.71,0,0,1-.65.58Z"/><path class="cls-2" d="M315.35,98.6c-.07-.22-.21-.36-.29-.58H330.9a3,3,0,0,1-.36.5Z"/><path class="cls-2" d="M315.06,98a1.36,1.36,0,0,1-.14-.58H331a1.36,1.36,0,0,1-.14.58Z"/><path class="cls-2" d="M314.92,97.45a1.35,1.35,0,0,1-.14-.58h16.34a1.4,1.4,0,0,1-.07.58Z"/><path class="cls-2" d="M314.78,96.87c0-.14-.07-.29-.07-.5h16.42v.5Z"/><path class="cls-2" d="M314.7,96.37v-.58h16.49l-.07.58Z"/><rect class="cls-2" x="314.7" y="95.29" width="16.49" height="0.5"/><rect class="cls-2" x="314.7" y="94.71" width="16.49" height="0.58"/><polygon class="cls-2" points="314.7 94.71 314.63 94.14 331.19 94.14 331.19 94.71 314.7 94.71"/><polygon class="cls-2" points="314.63 94.14 314.63 93.63 331.26 93.63 331.19 94.14 314.63 94.14"/><rect class="cls-2" x="314.63" y="93.06" width="16.63" height="0.58"/><path class="cls-2" d="M314.63,93.06v-.5h16.63v.5Z"/><path class="cls-2" d="M314.63,92.55c0-.22.07-.43.07-.58h16.49c0,.22.07.36.07.58Z"/><path class="cls-2" d="M314.7,92a4.94,4.94,0,0,1,.22-.58H331a1.9,1.9,0,0,1,.22.58Z"/><path class="cls-2" d="M314.92,91.4a3.13,3.13,0,0,1,.43-.5h15.34a1.16,1.16,0,0,1,.29.5Z"/><path class="cls-2" d="M315.35,90.9a2.26,2.26,0,0,1,.79-.58h14a2.18,2.18,0,0,1,.58.58Z"/><path class="cls-2" d="M316.14,90.32a4.54,4.54,0,0,1,1.58-.58h11a3.92,3.92,0,0,1,1.37.58Z"/><path class="cls-2" d="M317.73,89.74a16.33,16.33,0,0,1,3.46-.29l2.59-.07a16.36,16.36,0,0,1,5,.36Z"/><path class="cls-2" d="M321.18,89.46l2.59-.07c5.26-.14,7.49.58,7.49,3.46l-.14,4c0,3-3.74,3.24-6.62,3.24h-3.89c-4,0-5.83-.58-5.9-4.18l-.07-3.1C314.56,90.25,317.22,89.38,321.18,89.46Z"/><path class="cls-2" d="M338.25,99.46a1.6,1.6,0,0,0,1.37.5l7.2-.07a9.86,9.86,0,0,0,2.81-.36Z"/><path class="cls-2" d="M338.25,99.46A1.5,1.5,0,0,1,338,99L350.7,99a3.82,3.82,0,0,1-1.08.58Z"/><path class="cls-2" d="M338,99a1.35,1.35,0,0,1-.14-.5l13.46-.07a1.93,1.93,0,0,1-.58.5Z"/><path class="cls-2" d="M337.82,98.53a1.58,1.58,0,0,1-.07-.58h13.82a1.82,1.82,0,0,1-.29.5Z"/><path class="cls-2" d="M337.74,98h0v-.5h14c-.07.22-.07.36-.22.5Z"/><path class="cls-2" d="M337.74,97.45v-.5l14.18.07a1,1,0,0,1-.14.43Z"/><path class="cls-2" d="M337.74,96.94l-.07-.5,14.33.07a1.4,1.4,0,0,1-.07.5Z"/><path class="cls-2" d="M337.67,96.44v-.5h14.4a1.59,1.59,0,0,1-.07.58Z"/><path class="cls-2" d="M337.67,95.94v-.5h14.4v.5Z"/><path class="cls-2" d="M337.67,95.43v-.58H352a1.58,1.58,0,0,1,.07.58Z"/><path class="cls-2" d="M337.67,94.86v-.5H352v.5Z"/><path class="cls-2" d="M337.67,94.35v-.5h14.25v.07c0,.14.07.29.07.43Z"/><path class="cls-2" d="M337.67,93.85l-.07-.5h14.26a1.24,1.24,0,0,0,.07.5Z"/><path class="cls-2" d="M337.6,93.34v-.5h14.11a1.34,1.34,0,0,0,.14.5Z"/><path class="cls-2" d="M337.6,92.84v-.5h13.9c.07.14.14.36.22.5Z"/><path class="cls-2" d="M337.6,92.34v-.07a.9.9,0,0,1,.07-.43h13.54c.07.14.22.36.29.5Z"/><path class="cls-2" d="M337.67,91.83a.77.77,0,0,1,.22-.5h12.74a4,4,0,0,1,.58.5Z"/><path class="cls-2" d="M337.89,91.33a1,1,0,0,1,.43-.5h10.51a3.82,3.82,0,0,1,1.8.5Z"/><path class="cls-2" d="M338.32,90.82a3.65,3.65,0,0,1,.86-.58h4.9l4.75.58Z"/><path class="cls-2" d="M339.18,90.25a3.89,3.89,0,0,1,1.94-.36l3,.36Z"/><path class="cls-2" d="M341.13,89.89l7.7.94c2.3.22,2.81,1.3,3.1,3.1.65,4.54-1,5.9-5.11,6l-7.2.07c-1.3,0-1.8-.65-1.87-2l-.14-5.69C337.53,90.75,339.69,89.74,341.13,89.89Z"/><path class="cls-2" d="M261.21,100.26a15.42,15.42,0,0,0,5,.43l5.18.07a21.06,21.06,0,0,0,5.26-.43Z"/><path class="cls-2" d="M261.21,100.26a3.63,3.63,0,0,1-1.15-.65h17.78a3.93,3.93,0,0,1-1.22.72Z"/><path class="cls-2" d="M260.06,99.61a4.59,4.59,0,0,1-.58-.65l18.94.07a2.19,2.19,0,0,1-.58.58Z"/><path class="cls-2" d="M259.48,99a2.25,2.25,0,0,1-.36-.72l19.58.07a3,3,0,0,1-.29.72Z"/><path class="cls-2" d="M259.12,98.24a1.72,1.72,0,0,1-.14-.65h19.94c-.07.29-.14.5-.22.72Z"/><path class="cls-2" d="M259,97.59c-.07-.22-.07-.43-.14-.65H279c0,.22-.07.43-.07.65Z"/><path class="cls-2" d="M258.83,96.94v-.72H279v.72Z"/><rect class="cls-2" x="258.83" y="95.5" width="20.16" height="0.72"/><rect class="cls-2" x="258.83" y="94.86" width="20.16" height="0.65"/><rect class="cls-2" x="258.83" y="94.14" width="20.16" height="0.72"/><rect class="cls-2" x="258.83" y="93.49" width="20.16" height="0.65"/><rect class="cls-2" x="258.83" y="92.84" width="20.16" height="0.65"/><rect class="cls-2" x="258.83" y="92.12" width="20.16" height="0.72"/><path class="cls-2" d="M258.83,92.12v-.65H279v.65Z"/><path class="cls-2" d="M258.83,91.47c0-.29.07-.5.07-.72l20-.07a2.69,2.69,0,0,1,.07.79Z"/><path class="cls-2" d="M258.9,90.75l.22-.65L278.85,90a2,2,0,0,1,.07.65Z"/><path class="cls-2" d="M259.12,90.1a2.17,2.17,0,0,1,.29-.72l19.22-.07c.07.22.14.5.22.72Z"/><path class="cls-2" d="M259.41,89.38a5.76,5.76,0,0,1,.65-.72h18.07a4,4,0,0,1,.5.65Z"/><path class="cls-2" d="M260.06,88.66a3.88,3.88,0,0,1,1.08-.65h16a2.45,2.45,0,0,1,1,.65Z"/><path class="cls-2" d="M261.14,88a13.7,13.7,0,0,1,5.33-.5l4.46.14c2.88,0,4.9-.07,6.19.36Z"/><path class="cls-2" d="M266.46,87.51l4.46.14c5.69,0,8.06-.29,8.06,4v4.82c0,4.1-2.74,4.32-7.63,4.32l-5.18-.07c-3.53,0-7.34.22-7.34-4.32V91.83C258.83,87.58,262.5,87.37,266.46,87.51Z"/><path class="cls-2" d="M290.44,100.69a28.4,28.4,0,0,0,5,.14l4.25-.07a25.47,25.47,0,0,0,4-.14Z"/><path class="cls-2" d="M290.44,100.69a3.79,3.79,0,0,1-1.73-.72l17.13-.07a5.9,5.9,0,0,1-2.16.72Z"/><path class="cls-2" d="M288.71,100a2.48,2.48,0,0,1-.72-.79h18.72a3.84,3.84,0,0,1-.87.72Z"/><path class="cls-2" d="M288,99.18a1.88,1.88,0,0,1-.36-.65h19.44a2.94,2.94,0,0,1-.36.65Z"/><path class="cls-2" d="M287.63,98.53a1.4,1.4,0,0,1-.22-.72h19.94a2.16,2.16,0,0,1-.29.72Z"/><path class="cls-2" d="M287.41,97.81c-.07-.22-.07-.5-.14-.72H307.5c-.07.22-.07.5-.14.72Z"/><path class="cls-2" d="M287.27,97.09v-.86H307.5v.86Z"/><rect class="cls-2" x="287.27" y="95.5" width="20.23" height="0.72"/><rect class="cls-2" x="287.27" y="94.78" width="20.23" height="0.72"/><polygon class="cls-2" points="287.27 94.78 287.27 94.06 307.57 94.06 307.5 94.78 287.27 94.78"/><rect class="cls-2" x="287.27" y="93.34" width="20.3" height="0.72"/><rect class="cls-2" x="287.27" y="92.62" width="20.3" height="0.72"/><path class="cls-2" d="M287.27,92.62h0v-.86l20.3.07v.79Z"/><path class="cls-2" d="M287.27,91.76c0-.22.07-.43.07-.65L307.5,91a2.69,2.69,0,0,1,.07.79Z"/><path class="cls-2" d="M287.34,91.11a3.05,3.05,0,0,1,.14-.79h19.87a2.58,2.58,0,0,1,.14.72Z"/><path class="cls-2" d="M287.49,90.32a1.17,1.17,0,0,1,.22-.65L307,89.6a3.39,3.39,0,0,1,.36.72Z"/><path class="cls-2" d="M287.7,89.67a2.66,2.66,0,0,1,.36-.79l18.43.07a3.85,3.85,0,0,1,.5.65Z"/><path class="cls-2" d="M288.06,88.88a1.76,1.76,0,0,1,.79-.65h16.63a5.16,5.16,0,0,1,1,.72Z"/><path class="cls-2" d="M288.86,88.23c1.3-.79,3.53-.72,7.06-.65h3.31c1.3,0,4.25-.36,6.26.65Z"/><path class="cls-2" d="M295.91,87.58h3.31c2,0,8.42-.86,8.35,4.32l-.07,4.68c-.07,4.75-5.11,4.1-7.78,4.18l-4.25.07c-4.18.07-8.21.5-8.21-4.39V92.62C287.27,87.15,289.5,87.51,295.91,87.58Z"/><path class="cls-3" d="M142.7,106.74a1.64,1.64,0,0,0,1.15.5l7.13-.36c.14-.07.22-.07.36-.14Z"/><path class="cls-4" d="M142.7,106.74a1.66,1.66,0,0,1-.5-.5h9.94a3,3,0,0,1-.79.5Z"/><path class="cls-5" d="M142.19,106.23a1,1,0,0,1-.14-.5h10.51a3.07,3.07,0,0,1-.43.5Z"/><path class="cls-6" d="M142,105.73a1.22,1.22,0,0,1-.07-.5h10.8a3.49,3.49,0,0,1-.22.5Z"/><path class="cls-7" d="M142,105.22a4.55,4.55,0,0,0,.14-.5h10.73a1.23,1.23,0,0,1-.07.5Z"/><path class="cls-8" d="M142.12,104.72a1,1,0,0,1,.22-.5h10.44l.07.5Z"/><path class="cls-9" d="M142.34,104.22a1.51,1.51,0,0,1,.29-.43l.07-.07h10l.07.5Z"/><polygon class="cls-10" points="142.69 103.71 143.2 103.21 152.63 103.21 152.7 103.71 142.69 103.71"/><polygon class="cls-11" points="143.2 103.21 143.7 102.7 152.63 102.7 152.63 103.21 143.2 103.21"/><polygon class="cls-12" points="143.7 102.7 144.28 102.2 152.56 102.2 152.63 102.7 143.7 102.7"/><polygon class="cls-13" points="144.28 102.2 144.78 101.7 152.49 101.7 152.56 102.2 144.28 102.2"/><polygon class="cls-14" points="144.78 101.7 145.29 101.19 152.41 101.19 152.49 101.7 144.78 101.7"/><polygon class="cls-15" points="145.29 101.19 145.79 100.69 152.34 100.69 152.41 101.19 145.29 101.19"/><polygon class="cls-16" points="145.79 100.69 146.37 100.18 152.27 100.18 152.34 100.69 145.79 100.69"/><polygon class="cls-17" points="146.37 100.18 146.87 99.68 152.2 99.68 152.27 100.18 146.37 100.18"/><polygon class="cls-18" points="146.87 99.68 147.38 99.18 152.13 99.18 152.2 99.68 146.87 99.68"/><path class="cls-19" d="M147.37,99.18l.14-.14a1.91,1.91,0,0,1,.43-.36h4.18v.5Z"/><path class="cls-20" d="M148,98.67a3.58,3.58,0,0,1,.58-.5H152a4.71,4.71,0,0,1,.14.5Z"/><path class="cls-21" d="M148.53,98.17c.29-.22.5-.36.72-.5h2.38c.14.14.22.36.36.5Z"/><path class="cls-22" d="M149.25,97.66a4.38,4.38,0,0,1,1.08-.5,2.07,2.07,0,0,1,1.3.5Z"/><path class="cls-2" d="M150.33,97.16a1.78,1.78,0,0,1,1.8,1.8l.72,5.76c0,1-.72,1.73-1.87,2.16l-7.13.36c-1,0-2.81-1.37-1.22-3.46l4.9-4.75C149,97.74,149.82,97.23,150.33,97.16Z"/><path class="cls-3" d="M474.54,92C473.1,87.87,472,84.78,472,84.7c-5.33-.79-15.19-1.08-22-1-5.83-.14-7.63.36-8,.79l-3.89,7.63Z"/><path class="cls-3" d="M474.54,92c.07.29.22.58.29.86H437.75l.43-.79Z"/><path class="cls-24" d="M474.83,92.91c.07.29.22.5.29.79H437.39l.36-.79Z"/><path class="cls-25" d="M475.12,93.7a3.55,3.55,0,0,0,.29.79H437l.43-.79Z"/><path class="cls-25" d="M475.41,94.5c.07.22.14.5.22.79h-39.1l.43-.79Z"/><path class="cls-4" d="M475.62,95.29a2.6,2.6,0,0,1,.29.79H436.17l.36-.79Z"/><path class="cls-37" d="M475.91,96.08a2.57,2.57,0,0,1,.29.79H435.74l.43-.79Z"/><path class="cls-26" d="M476.2,96.87c.07.22.22.5.29.79H435.37l.36-.79Z"/><path class="cls-38" d="M476.49,97.66c.07.22.21.5.29.79H434.94l.43-.79Z"/><path class="cls-27" d="M476.78,98.46c.07.29.22.5.29.79H434.51l.43-.79Z"/><path class="cls-5" d="M477.06,99.25c.07.29.22.58.29.79h-43.2l.36-.79Z"/><path class="cls-39" d="M477.35,100c.07.29.22.58.29.79H433.72l.43-.79Z"/><path class="cls-28" d="M477.64,100.83a2.62,2.62,0,0,0,.29.79H433.36l.36-.79Z"/><path class="cls-40" d="M477.93,101.62a2.56,2.56,0,0,0,.29.79H432.93l.43-.79Z"/><path class="cls-29" d="M478.22,102.42c.07.29.14.5.21.79H432.49l.43-.79Z"/><path class="cls-6" d="M478.43,103.21a4,4,0,0,1,.29.86L432.14,104l.36-.79Z"/><path class="cls-30" d="M478.72,104.07a8,8,0,0,0,.36.79l-47.38-.07.43-.79Z"/><path class="cls-41" d="M479.08,104.86a4,4,0,0,0,.29.86l-48.1-.14.43-.79Z"/><path class="cls-31" d="M479.37,105.73a4,4,0,0,0,.29.86l-48.82-.14.43-.86Z"/><path class="cls-2" d="M442.86,114.87c11.3-.07,27.79.14,38.66-3,0,0-9.58-27.07-9.5-27.22-5.33-.79-15.19-1.08-22-1-5.83-.14-7.63.36-8,.79l-14.18,27.79C427.82,114.73,439.33,114.73,442.86,114.87Z"/><path class="cls-2" d="M238.45,144.61c9.5-1,24-1.87,29.09-3.24-1.87-1.29-14.54-8.78-13-15.7C211.24,112.5,162,106.59,117.21,110.12c-4,.58-10.58,1.08-10.66,2.66l.86,25c.14,1.44,1.08,3.38,5,5,14.18,5.69,39.82,4.68,54.43,4.32C200.37,146.48,214.77,147.49,238.45,144.61Z"/><path class="cls-42" d="M97.52,170c-.44-10.83-.29-30.83,1.51-41.07l2.92.52s3.2,26.2,2,36.71c-.24,2.18-.46,3.94-.65,5.35-.87,6.32-1.34,5.8-1.87,6.29a3.14,3.14,0,0,1-3.4-1.3A48.07,48.07,0,0,1,97.52,170Z"/><path class="cls-42" d="M97.52,73.57c-.44,10.83-.29,30.83,1.51,41.07l2.92-.52s3.2-26.2,2-36.71c-.24-2.18-.46-3.94-.65-5.35-.87-6.32-1.34-5.8-1.87-6.29a3.14,3.14,0,0,0-3.4,1.3A48.07,48.07,0,0,0,97.52,73.57Z"/><path class="cls-2" d="M104.82,131.14l-.14-18.5c-6.7,1.22-15.84,4.1-21.38,7.78-1.22,1-1.58,1.44.79,3.75C88.91,128,96.26,129.63,104.82,131.14Z"/><path class="cls-3" d="M249.4,124.23,245.94,120C228,118,210.88,116.31,193,118c-2.3.5-8.71.86-9.07,2.23l-.5,4Z"/><path class="cls-2" d="M209.66,145.18c10,0,18.58-1.08,29.16-1.58,7.06-1.15,15.84-2.52,23-4.32L259,136,245.94,120C228,118,210.88,116.31,193,118c-2.3.5-8.71.86-9.07,2.23L181.79,137C179.78,143.6,206.49,145.18,209.66,145.18Z"/><path class="cls-43" d="M181.79,137.19l1.94-16.2c.72.94,2.23,1.51,4.39,1.66l-2.38,18.79C183.3,140.36,181.29,139.21,181.79,137.19Z"/><path class="cls-2" d="M188.2,122.72c12.1,2.38,33.7.29,57.53-2.74"/></g></g></svg>