<svg xmlns="http://www.w3.org/2000/svg" viewBox="0 0 564.83 180.24"><defs><style>.cls-1,.cls-22,.cls-23{fill:#fff;}.cls-1,.cls-23,.cls-24,.cls-45,.cls-46,.cls-48{stroke:#231f20;}.cls-1{stroke-width:2px;}.cls-2{fill:#dcddde;}.cls-3{fill:#dadcdd;}.cls-4{fill:#d8d9db;}.cls-5{fill:#d1d3d4;}.cls-6{fill:#d4d5d7;}.cls-7{fill:#d6d8d9;}.cls-8{fill:#dee0e1;}.cls-9{fill:#e0e1e2;}.cls-10{fill:#e3e4e5;}.cls-11{fill:#e4e5e6;}.cls-12{fill:#e7e8e9;}.cls-13{fill:#e9eaeb;}.cls-14{fill:#ebeced;}.cls-15{fill:#eeeeef;}.cls-16{fill:#eff0f0;}.cls-17{fill:#f2f2f3;}.cls-18{fill:#f3f4f4;}.cls-19{fill:#f6f7f7;}.cls-20{fill:#f8f8f9;}.cls-21{fill:#fcfcfc;}.cls-24,.cls-45{fill:none;}.cls-25{fill:#c5c7c9;}.cls-26{fill:#babcbe;}.cls-27{fill:#b0b2b5;}.cls-28{fill:#a6a8aa;}.cls-29{fill:#9a9c9f;}.cls-30{fill:#909295;}.cls-31{fill:#86888b;}.cls-32{fill:#7b7d7f;}.cls-33{fill:#717375;}.cls-34{fill:#4f5052;}.cls-35{fill:#5b5c5e;}.cls-36{fill:#67686b;}.cls-37{fill:#858789;}.cls-38{fill:#a3a5a8;}.cls-39,.cls-48{fill:#231f20;}.cls-40{fill:#373537;}.cls-41{fill:#444446;}.cls-42{fill:#d0d1d3;}.cls-43{fill:#5d5e61;}.cls-44{fill:#525355;}.cls-45,.cls-46{stroke-width:0.21px;}.cls-46{fill:#6d6f71;}.cls-47{fill:#bcbec0;}</style></defs><title>GI</title><g id="Layer_2" data-name="Layer 2"><g id="Layer_1-2" data-name="Layer 1"><path class="cls-1" d="M538.85,2.16c-8.06.72-19.08,5.18-24.55,14.4L472.47,69.62c-9.22,14.76-24.77,17.64-41.69,20.52L372.24,96l-.07,7.2L542.67,113,563.48,5.4c1-3.67,0-4.46-5-4.39C549.51,1.08,545.76,1.15,538.85,2.16Z"/><path class="cls-2" d="M388.52,104.47l-6.19-.22,3.46-4.9,2.59-.5c.65-.07,2.3-.29,4.54-.5Z"/><polygon class="cls-3" points="382.32 104.25 375.99 104.04 378.37 100.72 385.78 99.36 382.32 104.25"/><polygon class="cls-4" points="375.99 104.04 369.72 103.82 370.95 102.17 378.37 100.72 375.99 104.04"/><polygon class="cls-5" points="363.46 103.6 363.17 103.6 363.46 103.53 363.46 103.6"/><polygon class="cls-5" points="165.1 96.98 164.74 97.48 165.46 97.56 165.1 96.98"/><polygon class="cls-6" points="165.1 96.98 165.6 96.4 166.32 97.56 165.46 97.56 165.1 96.98"/><polygon class="cls-7" points="165.6 96.4 166.11 95.76 167.33 97.63 166.32 97.56 165.6 96.4"/><polygon class="cls-3" points="166.11 95.76 166.61 95.18 168.2 97.7 167.33 97.63 166.11 95.76"/><polygon class="cls-3" points="166.61 95.18 167.12 94.53 169.13 97.7 168.2 97.7 166.61 95.18"/><polygon class="cls-8" points="167.12 94.53 167.55 93.96 170.07 97.77 169.13 97.7 167.12 94.53"/><polygon class="cls-9" points="167.55 93.96 168.13 93.31 170.57 97.05 170.14 97.77 170.07 97.77 167.55 93.96"/><polygon class="cls-10" points="168.13 93.31 168.56 92.73 171 96.4 170.57 97.05 168.13 93.31"/><polygon class="cls-11" points="168.56 92.73 169.06 92.08 171.44 95.61 171 96.4 168.56 92.73"/><polygon class="cls-12" points="169.06 92.08 169.56 91.44 171.87 94.96 171.44 95.61 169.06 92.08"/><polygon class="cls-13" points="169.56 91.44 170.07 90.79 172.3 94.17 171.87 94.96 169.56 91.44"/><polygon class="cls-14" points="170.07 90.79 170.57 90.21 172.73 93.53 172.3 94.17 170.07 90.79"/><polygon class="cls-15" points="170.57 90.21 171.08 89.56 173.16 92.73 172.73 93.53 170.57 90.21"/><polygon class="cls-16" points="171.08 89.56 171.58 88.99 173.6 92.01 173.16 92.73 171.08 89.56"/><polygon class="cls-17" points="171.58 88.99 172.09 88.34 174.03 91.29 173.6 92.01 171.58 88.99"/><polygon class="cls-18" points="172.09 88.34 172.52 87.77 174.46 90.57 174.03 91.29 172.09 88.34"/><polygon class="cls-19" points="172.52 87.77 172.59 87.69 173.45 87.69 174.89 89.85 174.46 90.57 172.52 87.77"/><polygon class="cls-20" points="173.45 87.69 174.32 87.69 175.32 89.13 174.89 89.85 173.45 87.69"/><polygon class="cls-21" points="174.32 87.69 175.32 87.69 175.76 88.41 175.32 89.13 174.32 87.69"/><polygon class="cls-22" points="175.32 87.69 176.19 87.69 175.76 88.41 175.32 87.69"/><polygon class="cls-23" points="164.74 97.48 170.14 97.77 176.19 87.69 172.59 87.69 164.74 97.48"/><path class="cls-1" d="M138.6,161.85l-65.38.29c-25,0-37.94-1.87-51.12-5.62-6.77-1.87-14.18-4.46-18.14-7.27s-3.67-4.61-.79-7.34C10.95,134.64,28,124,42.05,119.73L54.8,106.34C60.92,100.08,72.58,96,94.61,96l257.47.14,43.7-.14c67.82,6.48,78.84,4.1,146.09,15.62,14.76,2.16,16,6.12-1.3,10.3-43.63,15-67.32,24.77-127.22,32.33C316.37,166.46,239.19,161.42,138.6,161.85Z"/><path class="cls-24" d="M93.6,107.2h15.7a4.83,4.83,0,0,1,4.68,5v36.07a4.83,4.83,0,0,1-4.68,5H93.6a4.83,4.83,0,0,1-4.68-5V112.17A4.83,4.83,0,0,1,93.6,107.2Z"/><path class="cls-5" d="M54.22,119.95a2,2,0,0,0,1.51-1.08l.29-.58Z"/><path class="cls-25" d="M54.22,119.95H52.56l4.9-4.46L56,118.29Z"/><polygon class="cls-26" points="52.56 119.95 51.05 119.95 58.9 112.68 57.46 115.48 52.56 119.95"/><polygon class="cls-27" points="51.05 119.95 49.54 119.95 60.27 110.01 58.9 112.68 51.05 119.95"/><path class="cls-28" d="M49.54,119.95H48l13.39-12.46a2.29,2.29,0,0,1-.43,1.22l-.65,1.3Z"/><path class="cls-29" d="M48,119.95H46.37l13.54-12.6h.86c.36-.14.5,0,.58.14Z"/><path class="cls-30" d="M46.37,119.95h-.72a.35.35,0,0,1-.43-.22l13.25-12.38h1.44Z"/><path class="cls-31" d="M45.22,119.73a1.85,1.85,0,0,1,0-1.51l11.59-10.87h1.66Z"/><path class="cls-32" d="M45.22,118.22c0-.07.07-.07.07-.14l8.86-9.72.94-.86a4.24,4.24,0,0,1,1-.14h.72Z"/><path class="cls-33" d="M54.15,108.36h0a1.8,1.8,0,0,1,.94-.86Z"/><path class="cls-23" d="M56.09,107.35h4.68c.86-.29.58.72.14,1.37l-5.18,10.15a2,2,0,0,1-1.87,1.08H45.65c-.65.14-.79-1.15-.36-1.87l8.86-9.72A1.94,1.94,0,0,1,56.09,107.35Z"/><path class="cls-34" d="M67,119.23h.07a1.35,1.35,0,0,0,1.44-1.08l.5-1.94Z"/><polygon class="cls-35" points="67.04 119.23 65.96 119.23 69.7 113.69 69.05 116.2 67.04 119.23"/><polygon class="cls-36" points="65.96 119.23 64.95 119.23 70.42 111.17 69.7 113.69 65.96 119.23"/><path class="cls-33" d="M64.95,119.23H63.87L71,108.79a1.07,1.07,0,0,1-.14.65l-.43,1.73Z"/><path class="cls-32" d="M63.87,119.23h-1l7.49-11a.69.69,0,0,1,.65.58Z"/><path class="cls-37" d="M62.86,119.23h-1l7.42-11h1.08Z"/><polygon class="cls-30" points="61.85 119.23 60.7 119.23 68.19 108.21 69.27 108.21 61.85 119.23"/><polygon class="cls-29" points="60.7 119.23 59.62 119.23 67.11 108.21 68.19 108.21 60.7 119.23"/><path class="cls-38" d="M59.62,119.23H59a.9.9,0,0,1-.43-.07L66,108.21h1.08Z"/><path class="cls-27" d="M58.61,119.16a.89.89,0,0,1-.65-.58L65,108.21h1Z"/><path class="cls-26" d="M58,118.58a1.07,1.07,0,0,1,.14-.65l2.3-4.39,3.53-5.33H65Z"/><path class="cls-25" d="M60.41,113.54l2.23-4.39a1.34,1.34,0,0,1,1.3-.94Z"/><path class="cls-23" d="M64.23,108.21H70c.94-.14,1.22.58.86,1.22l-2.3,8.71a1.35,1.35,0,0,1-1.44,1.08H59c-.94,0-1.3-.72-.94-1.3l4.54-8.79A1.43,1.43,0,0,1,64.23,108.21Z"/><path class="cls-39" d="M81.58,120c.43-.14.65-.5.58-1.22v-.65Z"/><path class="cls-40" d="M81.58,120a.92.92,0,0,1-.43.07h-.36l1.3-4.25.07,2.3Z"/><polygon class="cls-41" points="80.79 120.09 79.92 120.09 82.01 113.33 82.08 115.84 80.79 120.09"/><polygon class="cls-34" points="79.92 120.09 79.13 120.09 81.94 110.8 82.01 113.33 79.92 120.09"/><path class="cls-35" d="M79.13,120.09h-.86l3.6-11.59v.29l.07,2Z"/><path class="cls-36" d="M78.27,120.09h-.79l3.82-12.6a1.57,1.57,0,0,1,.58,1Z"/><path class="cls-33" d="M77.48,120.09h-.86l3.89-12.74h.14a1.44,1.44,0,0,1,.65.14Z"/><polygon class="cls-32" points="76.61 120.09 75.89 120.02 79.71 107.35 80.5 107.35 76.61 120.09"/><polygon class="cls-37" points="75.89 120.02 75.03 120.02 78.92 107.35 79.71 107.35 75.89 120.02"/><polygon class="cls-30" points="75.03 120.02 74.24 120.02 78.13 107.35 78.92 107.35 75.03 120.02"/><polygon class="cls-29" points="74.24 120.02 73.37 120.02 77.26 107.35 78.13 107.35 74.24 120.02"/><polygon class="cls-38" points="73.37 120.02 72.58 120.02 76.47 107.35 77.26 107.35 73.37 120.02"/><polygon class="cls-27" points="72.58 120.02 71.72 120.02 75.61 107.35 76.47 107.35 72.58 120.02"/><path class="cls-26" d="M71.72,120H71l3.89-12.67h.72Z"/><path class="cls-25" d="M71,120a1.33,1.33,0,0,1-.72-.5L74,107.35h.86Z"/><path class="cls-42" d="M70.28,119.52a1.4,1.4,0,0,1-.07-.94l1.37-5.9,1.58-5.26a1.42,1.42,0,0,1,.58-.07H74Z"/><path class="cls-3" d="M71.57,112.68l.94-4c.22-.72.36-1.08.65-1.3Z"/><path class="cls-23" d="M73.73,107.35h6.91c.79-.07,1.22.65,1.22,1.44l.29,10c.07.86-.29,1.3-1,1.3L71.43,120a1.12,1.12,0,0,1-1.22-1.44l2.3-9.86C72.8,107.64,72.94,107.35,73.73,107.35Z"/><path class="cls-22" d="M190.52,131.54a12.45,12.45,0,0,0,7.49,0Z"/><path class="cls-17" d="M190.52,131.54A13.1,13.1,0,0,1,189,131h10.51a13.17,13.17,0,0,1-1.51.58Z"/><path class="cls-12" d="M189,131a7.83,7.83,0,0,1-1.08-.58H200.6a7.82,7.82,0,0,1-1.08.58Z"/><path class="cls-2" d="M187.92,130.39a4.56,4.56,0,0,1-.86-.72h14.4a4.55,4.55,0,0,1-.86.72Z"/><path class="cls-5" d="M187.06,129.67a6.45,6.45,0,0,1-.72-.65h15.84a6.45,6.45,0,0,1-.72.65Z"/><path class="cls-25" d="M186.34,129c-.14-.22-.29-.36-.43-.58h16.7c-.14.22-.29.36-.43.58Z"/><path class="cls-26" d="M185.91,128.44c-.14-.22-.22-.43-.36-.65H203c-.14.22-.22.43-.36.65Z"/><path class="cls-27" d="M185.55,127.8l-.22-.65h17.86l-.22.65Z"/><path class="cls-28" d="M185.33,127.15a2.09,2.09,0,0,1-.14-.65h18.14a2.1,2.1,0,0,1-.14.65Z"/><path class="cls-29" d="M185.19,126.5a2,2,0,0,1-.07-.65H203.4a2,2,0,0,1-.07.65Z"/><path class="cls-30" d="M185.12,125.85h0a1.58,1.58,0,0,1,.07-.58h18.14a1.59,1.59,0,0,1,.07.58Z"/><path class="cls-31" d="M185.19,125.28c0-.22.07-.43.07-.65h18c0,.22.07.43.07.65Z"/><path class="cls-32" d="M185.26,124.63a2.56,2.56,0,0,1,.29-.65H203a2.55,2.55,0,0,1,.29.65Z"/><path class="cls-33" d="M185.55,124a2.94,2.94,0,0,1,.36-.65h16.7a2.92,2.92,0,0,1,.36.65Z"/><path class="cls-36" d="M185.91,123.33a1.51,1.51,0,0,1,.43-.58h15.84a1.5,1.5,0,0,1,.43.58Z"/><path class="cls-43" d="M186.34,122.76a4.64,4.64,0,0,1,.58-.65H201.6a4.64,4.64,0,0,1,.58.65Z"/><path class="cls-44" d="M186.92,122.11a7.62,7.62,0,0,1,.79-.65h13.1a7.66,7.66,0,0,1,.79.65Z"/><path class="cls-41" d="M187.71,121.46c.36-.22.72-.43,1.15-.65h10.8c.43.22.79.43,1.15.65Z"/><path class="cls-40" d="M188.86,120.81a6.62,6.62,0,0,1,1.66-.65H198a6.62,6.62,0,0,1,1.66.65Z"/><path class="cls-39" d="M190.52,120.16a12.45,12.45,0,0,1,7.49,0Z"/><path class="cls-23" d="M194.26,119.59c5,0,9.14,2.81,9.14,6.26s-4.1,6.26-9.14,6.26-9.14-2.81-9.14-6.26S189.22,119.59,194.26,119.59Z"/><path class="cls-22" d="M328.11,131.61a12.47,12.47,0,0,0,7.49,0Z"/><path class="cls-17" d="M328.11,131.61a13.05,13.05,0,0,1-1.51-.58h10.51a13.19,13.19,0,0,1-1.51.58Z"/><path class="cls-12" d="M326.6,131a8,8,0,0,1-1.08-.58h12.67a8,8,0,0,1-1.08.58Z"/><path class="cls-2" d="M325.52,130.46a4.52,4.52,0,0,1-.86-.72h14.4a4.57,4.57,0,0,1-.86.72Z"/><path class="cls-5" d="M324.65,129.74a6.56,6.56,0,0,1-.72-.65h15.84a6.56,6.56,0,0,1-.72.65Z"/><path class="cls-25" d="M323.93,129.09c-.14-.22-.29-.36-.43-.58h16.7c-.14.21-.29.36-.43.58Z"/><path class="cls-26" d="M323.5,128.52c-.14-.22-.22-.43-.36-.65h17.42c-.14.22-.22.43-.36.65Z"/><path class="cls-27" d="M323.14,127.87l-.22-.65h17.86l-.22.65Z"/><path class="cls-28" d="M322.92,127.22a2.12,2.12,0,0,1-.14-.65h18.14a2.09,2.09,0,0,1-.14.65Z"/><path class="cls-29" d="M322.78,126.57a2,2,0,0,1-.07-.65H341a2,2,0,0,1-.07.65Z"/><path class="cls-30" d="M322.71,125.92h0a1.57,1.57,0,0,1,.07-.58h18.14a1.57,1.57,0,0,1,.07.58Z"/><path class="cls-31" d="M322.78,125.35c0-.22.07-.43.07-.65h18c0,.22.07.43.07.65Z"/><path class="cls-32" d="M322.85,124.7a2.54,2.54,0,0,1,.29-.65h17.42a2.56,2.56,0,0,1,.29.65Z"/><path class="cls-33" d="M323.14,124.05a3,3,0,0,1,.36-.65h16.7a3,3,0,0,1,.36.65Z"/><path class="cls-36" d="M323.5,123.4a1.5,1.5,0,0,1,.43-.58h15.84a1.52,1.52,0,0,1,.43.58Z"/><path class="cls-43" d="M323.93,122.83a4.64,4.64,0,0,1,.58-.65H339.2a4.65,4.65,0,0,1,.58.65Z"/><path class="cls-44" d="M324.51,122.18a7.63,7.63,0,0,1,.79-.65h13.1a7.51,7.51,0,0,1,.79.65Z"/><path class="cls-41" d="M325.3,121.53c.36-.22.72-.43,1.15-.65h10.8c.43.22.79.43,1.15.65Z"/><path class="cls-40" d="M326.45,120.88a6.58,6.58,0,0,1,1.66-.65h7.49a6.58,6.58,0,0,1,1.66.65Z"/><path class="cls-39" d="M328.11,120.24a12.45,12.45,0,0,1,7.49,0Z"/><path class="cls-23" d="M331.85,119.66c5,0,9.14,2.81,9.14,6.26s-4.1,6.26-9.14,6.26-9.14-2.81-9.14-6.26S326.81,119.66,331.85,119.66Z"/><path class="cls-22" d="M224.79,131.47a12.45,12.45,0,0,0,7.49,0Z"/><path class="cls-17" d="M224.79,131.47a13.06,13.06,0,0,1-1.51-.58h10.51a13.13,13.13,0,0,1-1.51.58Z"/><path class="cls-12" d="M223.28,130.89a7.82,7.82,0,0,1-1.08-.58h12.67a7.76,7.76,0,0,1-1.08.58Z"/><path class="cls-2" d="M222.2,130.32a4.6,4.6,0,0,1-.86-.72h14.4a4.56,4.56,0,0,1-.86.72Z"/><path class="cls-5" d="M221.33,129.6a6.52,6.52,0,0,1-.72-.65h15.84a6.52,6.52,0,0,1-.72.65Z"/><path class="cls-25" d="M220.61,128.95c-.14-.22-.29-.36-.43-.58h16.7c-.14.22-.29.36-.43.58Z"/><path class="cls-26" d="M220.18,128.37c-.14-.22-.22-.43-.36-.65h17.42c-.14.22-.22.43-.36.65Z"/><path class="cls-27" d="M219.82,127.73l-.22-.65h17.86l-.22.65Z"/><path class="cls-28" d="M219.6,127.08a2.09,2.09,0,0,1-.14-.65H237.6a2.1,2.1,0,0,1-.14.65Z"/><path class="cls-29" d="M219.46,126.43a2,2,0,0,1-.07-.65h18.29a2,2,0,0,1-.07.65Z"/><path class="cls-30" d="M219.39,125.78h0a1.58,1.58,0,0,1,.07-.58H237.6a1.59,1.59,0,0,1,.07.58Z"/><path class="cls-31" d="M219.46,125.2c0-.22.07-.43.07-.65h18c0,.21.07.43.07.65Z"/><path class="cls-32" d="M219.53,124.56a2.55,2.55,0,0,1,.29-.65h17.42a2.56,2.56,0,0,1,.29.65Z"/><path class="cls-33" d="M219.82,123.91a2.93,2.93,0,0,1,.36-.65h16.7a2.83,2.83,0,0,1,.36.65Z"/><path class="cls-36" d="M220.18,123.26a1.51,1.51,0,0,1,.43-.58h15.84a1.5,1.5,0,0,1,.43.58Z"/><path class="cls-43" d="M220.61,122.69a4.59,4.59,0,0,1,.58-.65h14.69a4.62,4.62,0,0,1,.58.65Z"/><path class="cls-44" d="M221.19,122a7.63,7.63,0,0,1,.79-.65h13.1a7.53,7.53,0,0,1,.79.65Z"/><path class="cls-41" d="M222,121.39c.36-.22.72-.43,1.15-.65h10.8c.43.22.79.43,1.15.65Z"/><path class="cls-40" d="M223.13,120.74a6.62,6.62,0,0,1,1.66-.65h7.49a6.62,6.62,0,0,1,1.66.65Z"/><path class="cls-39" d="M224.79,120.09a12.47,12.47,0,0,1,7.49,0Z"/><path class="cls-45" d="M228.53,119.52c5,0,9.14,2.81,9.14,6.26s-4.1,6.26-9.14,6.26-9.14-2.81-9.14-6.26S223.49,119.52,228.53,119.52Z"/><path class="cls-22" d="M259,131.54a12,12,0,0,0,7.34,0Z"/><path class="cls-17" d="M259,131.54a9.49,9.49,0,0,1-1.51-.58h10.37a9.49,9.49,0,0,1-1.51.58Z"/><path class="cls-12" d="M257.48,131a7.8,7.8,0,0,1-1.08-.58h12.53a7.74,7.74,0,0,1-1.08.58Z"/><path class="cls-2" d="M256.4,130.39c-.29-.22-.58-.5-.86-.72h14.26c-.29.22-.58.5-.86.72Z"/><path class="cls-5" d="M255.53,129.67l-.65-.65h15.55l-.65.65Z"/><path class="cls-25" d="M254.88,129c-.14-.22-.29-.36-.43-.58h16.42c-.14.22-.29.36-.43.58Z"/><path class="cls-26" d="M254.45,128.44c-.14-.22-.22-.43-.36-.65h17.14c-.14.22-.22.43-.36.65Z"/><path class="cls-27" d="M254.09,127.8a2.29,2.29,0,0,1-.22-.65h17.57a2.29,2.29,0,0,1-.22.65Z"/><path class="cls-28" d="M253.88,127.15a2.08,2.08,0,0,1-.14-.65h17.86a2.06,2.06,0,0,1-.14.65Z"/><path class="cls-29" d="M253.73,126.5a2,2,0,0,1-.07-.65h18a2,2,0,0,1-.07.65Z"/><path class="cls-30" d="M253.66,125.85h0a1.61,1.61,0,0,1,.07-.58h17.86a1.6,1.6,0,0,1,.07.58Z"/><path class="cls-31" d="M253.73,125.28a2,2,0,0,1,.07-.65h17.71a2,2,0,0,1,.07.65Z"/><path class="cls-32" d="M253.8,124.63a2.57,2.57,0,0,1,.29-.65h17.14a2.6,2.6,0,0,1,.29.65Z"/><path class="cls-33" d="M254.09,124c.07-.21.22-.43.29-.65h16.56c.07.22.22.43.29.65Z"/><path class="cls-36" d="M254.38,123.33c.14-.22.29-.36.43-.58h15.7c.14.22.29.36.43.58Z"/><path class="cls-43" d="M254.81,122.76l.65-.65h14.4l.65.65Z"/><path class="cls-44" d="M255.46,122.11a6.49,6.49,0,0,1,.72-.65h13a6.46,6.46,0,0,1,.72.65Z"/><path class="cls-41" d="M256.18,121.46c.36-.22.79-.43,1.15-.65H268c.36.22.79.43,1.15.65Z"/><path class="cls-40" d="M257.33,120.81a6.62,6.62,0,0,1,1.66-.65h7.34a6.62,6.62,0,0,1,1.66.65Z"/><path class="cls-39" d="M259,120.16a12,12,0,0,1,7.34,0Z"/><ellipse class="cls-23" cx="262.66" cy="125.85" rx="9" ry="6.26"/><path class="cls-22" d="M293.48,131.54a14.64,14.64,0,0,0,3.17.43,11.44,11.44,0,0,0,3.6-.5Z"/><path class="cls-17" d="M293.48,131.54a10.47,10.47,0,0,1-1.58-.65h9.79a8.66,8.66,0,0,1-1.44.58Z"/><path class="cls-12" d="M291.89,130.89a3.64,3.64,0,0,1-1.15-.65h12.17a6.57,6.57,0,0,1-1.22.65Z"/><path class="cls-2" d="M290.74,130.24a3.4,3.4,0,0,1-.86-.65l13.82.07-.79.58Z"/><path class="cls-5" d="M289.88,129.6a2.75,2.75,0,0,1-.65-.65l15.12.07-.65.65Z"/><path class="cls-25" d="M289.23,128.95c-.14-.14-.29-.36-.43-.5l16-.07-.43.65Z"/><path class="cls-26" d="M288.8,128.44l-.43-.65,16.78-.07c-.14.22-.22.43-.36.65Z"/><path class="cls-27" d="M288.36,127.8a3.08,3.08,0,0,0-.29-.72h17.28a2.3,2.3,0,0,1-.22.65Z"/><path class="cls-28" d="M288.08,127.08c-.07-.22-.07-.43-.15-.65H305.5a2.12,2.12,0,0,1-.14.65Z"/><path class="cls-29" d="M287.93,126.43a2,2,0,0,1-.07-.65h17.71v.14a1.24,1.24,0,0,1-.07.5Z"/><path class="cls-30" d="M287.86,125.78v-.58H305.5a1.42,1.42,0,0,1,.07.58Z"/><path class="cls-31" d="M287.86,125.2c.07-.22.07-.43.14-.65h17.35a2.11,2.11,0,0,1,.14.65Z"/><path class="cls-32" d="M288,124.56a2.57,2.57,0,0,1,.29-.65l16.78-.07a3.1,3.1,0,0,1,.29.72Z"/><path class="cls-33" d="M288.29,123.91c.07-.22.22-.43.29-.65l16.13-.07a2.93,2.93,0,0,1,.36.65Z"/><path class="cls-36" d="M288.58,123.26a4,4,0,0,1,.5-.65l15.19.07c.14.14.29.36.43.5Z"/><path class="cls-43" d="M289.08,122.61a4.59,4.59,0,0,1,.58-.65l14,.07a2.72,2.72,0,0,1,.65.65Z"/><path class="cls-44" d="M289.66,122l.79-.58h12.31a2.49,2.49,0,0,1,.86.65Z"/><path class="cls-41" d="M290.45,121.39a3.63,3.63,0,0,1,1.15-.65h10.08a3.92,3.92,0,0,1,1.08.65Z"/><path class="cls-40" d="M291.6,120.74a6.15,6.15,0,0,1,1.58-.65L300,120a9.63,9.63,0,0,1,1.73.72Z"/><path class="cls-39" d="M293.19,120.09a11.44,11.44,0,0,1,3.6-.5A14.57,14.57,0,0,1,300,120Z"/><path class="cls-23" d="M296.79,119.59c4.9.07,8.78,3,8.78,6.34s-4.1,6.12-8.93,6-8.78-3-8.78-6.34S292,119.52,296.79,119.59Z"/><polygon class="cls-22" points="84.89 133.13 84.61 133.27 84.46 133.13 84.89 133.13"/><path class="cls-46" d="M149.69,144.07h0a.46.46,0,0,1-.43-.43v-.58a.46.46,0,0,1,.43-.43h0a.46.46,0,0,1,.43.43v.58A.46.46,0,0,1,149.69,144.07Z"/><path class="cls-46" d="M145.3,144.07h0a.46.46,0,0,1-.43-.43v-.58a.46.46,0,0,1,.43-.43h0a.46.46,0,0,1,.43.43v.58A.46.46,0,0,1,145.3,144.07Z"/><path class="cls-47" d="M487.66,119.16c-1.58-.86-3.24-1.58-4.75-2.23l17.57-.36Z"/><path class="cls-22" d="M535.18,105.26l-1.3-2.74c-11-3-23-2.52-28.15-2.38a12.76,12.76,0,0,0-6.48,2.16l-4.46,3Z"/><polygon class="cls-22" points="535.18 105.26 535.47 105.77 494.07 105.77 494.79 105.26 535.18 105.26"/><polygon class="cls-21" points="535.47 105.77 535.68 106.27 493.28 106.27 494.07 105.77 535.47 105.77"/><polygon class="cls-19" points="535.68 106.27 535.97 106.77 492.56 106.77 493.28 106.27 535.68 106.27"/><polygon class="cls-19" points="535.97 106.77 536.19 107.28 491.76 107.28 492.56 106.77 535.97 106.77"/><polygon class="cls-17" points="536.19 107.28 536.48 107.85 490.9 107.85 491.76 107.28 536.19 107.28"/><polygon class="cls-16" points="536.48 107.85 536.69 108.36 490.11 108.36 490.9 107.85 536.48 107.85"/><polygon class="cls-15" points="536.69 108.36 536.98 108.86 489.39 108.86 490.11 108.36 536.69 108.36"/><polygon class="cls-14" points="536.98 108.86 537.2 109.36 488.6 109.36 489.39 108.86 536.98 108.86"/><polygon class="cls-13" points="537.2 109.36 537.48 109.94 487.73 109.94 488.6 109.36 537.2 109.36"/><polygon class="cls-12" points="537.48 109.94 537.7 110.44 487.01 110.44 487.73 109.94 537.48 109.94"/><polygon class="cls-11" points="537.7 110.44 537.99 110.95 486.22 110.95 487.01 110.44 537.7 110.44"/><polygon class="cls-10" points="537.99 110.95 538.21 111.45 485.5 111.45 486.22 110.95 537.99 110.95"/><polygon class="cls-9" points="538.21 111.45 538.42 111.96 484.71 111.96 485.5 111.45 538.21 111.45"/><polygon class="cls-8" points="538.42 111.96 538.71 112.53 483.84 112.53 484.71 111.96 538.42 111.96"/><polygon class="cls-2" points="538.71 112.53 539 113.04 483.13 113.04 483.84 112.53 538.71 112.53"/><path class="cls-3" d="M539,113l.22.5H482.55l.43-.43.14-.07Z"/><path class="cls-4" d="M539.21,113.54l.22.5H482.19c.07-.14.22-.29.36-.5Z"/><path class="cls-7" d="M539.43,114l.29.58H481.9a2.17,2.17,0,0,1,.29-.58Z"/><path class="cls-5" d="M539.72,114.62l.79,1.58c-10.87,2.81-46.94,4.1-55.8,1.15-2.23-.72-3.31-1.44-2.81-2.74Z"/><path class="cls-23" d="M505.73,100.15c5.18-.14,17.14-.58,28.15,2.38l6.62,13.68c-10.87,2.81-46.94,4.1-55.8,1.15-3-.94-4-1.94-1.73-4.25l16.27-10.8A12.76,12.76,0,0,1,505.73,100.15Z"/><path class="cls-39" d="M484.42,117.28a28.55,28.55,0,0,0,5.11.94l12.1-11.45Z"/><path class="cls-40" d="M484.42,117.28c-.07-.07-.22-.07-.29-.14l18.22-11.09-.72.72Z"/><path class="cls-41" d="M484.13,117.14a3.09,3.09,0,0,0-.36-.07L503,105.33h.14l-.79.72Z"/><path class="cls-34" d="M483.77,117.07c-.07-.07-.14-.07-.29-.14l18.94-11.59H503Z"/><path class="cls-35" d="M483.48,116.92c-.07-.07-.22-.07-.29-.14L502,105.33h.43Z"/><path class="cls-36" d="M483.2,116.78c-.07-.07-.14-.07-.22-.14l18.58-11.38a.91.91,0,0,0,.43.07Z"/><path class="cls-33" d="M483,116.64c-.14-.07-.22-.07-.29-.14l18.43-11.3a.91.91,0,0,0,.43.07Z"/><path class="cls-32" d="M482.69,116.49a1,1,0,0,0-.29-.22l18.29-11.16a.92.92,0,0,0,.43.07Z"/><path class="cls-37" d="M482.4,116.28c-.07-.07-.14-.07-.22-.14L500.33,105c.14.07.22.07.36.14Z"/><path class="cls-30" d="M482.19,116.13c-.07-.07-.07-.14-.14-.22l18-11.09c.07.07.22.07.29.14Z"/><path class="cls-29" d="M482,115.92c-.07-.07-.07-.14-.14-.22l18-11c0,.07.07.07.14.14Z"/><path class="cls-38" d="M481.9,115.7c0-.07-.07-.14-.07-.22l17.86-11c.07.07.07.14.21.22Z"/><path class="cls-27" d="M481.83,115.48a.53.53,0,0,1-.07-.36l17.78-10.87c0,.07.07.14.14.22Z"/><path class="cls-26" d="M481.76,115.12v-.36L499.47,104c0,.14,0,.22.07.29Z"/><path class="cls-25" d="M481.76,114.77c0-.07.07-.22.07-.29l17.57-10.73a.26.26,0,0,0,.07.22Z"/><path class="cls-42" d="M481.83,114.48c.07-.14.22-.36.29-.5l17.28-10.51v.29Z"/><path class="cls-3" d="M482.12,114c.22-.22.43-.5.72-.79L499.4,103.1v.36Z"/><path class="cls-12" d="M482.84,113.18c.07-.07.22-.14.29-.22l4.54-3,11.81-7.27c0,.14-.07.29-.07.43Z"/><path class="cls-17" d="M487.66,109.94l6.12-4.1,5.83-3.6a1,1,0,0,1-.14.43Z"/><path class="cls-22" d="M493.78,105.84l6-4-.22.43Z"/><path class="cls-39" d="M483.12,113l16.7-11.16c-1.15,2.52-.14,3.67,3.31,3.53l-13.61,12.89C481.9,117.43,480.1,115.41,483.12,113Z"/><path class="cls-23" d="M502.92,105.48a90.16,90.16,0,0,0,30.67-3"/><path class="cls-23" d="M128.67,126.93l2.23-2c5.4-1,10.73-.86,16.2-.79l62,.5c25-.79,45.5,3,67.32,13.1l.07,8.57,3.24,3.1a97.64,97.64,0,0,1-27.57,6.34c-35,16.92-62.57,18.94-78-1.8l-15.7.29c-13-.22-23.47-1.15-28.3-3.31l-1.66-3.31Z"/><path class="cls-48" d="M117.8,104.59c-.25,8.13-.1,22.25,1,29.09l1.87-.37s2.36-19.34,1.57-27c-.1-1-.2-1.85-.29-2.61-.7-6-1-5.49-1.43-5.87a2.06,2.06,0,0,0-2.32,1A46.54,46.54,0,0,0,117.8,104.59Z"/><path class="cls-48" d="M117.84,174c-.3-7.89-.19-23,1-30.17l1.87.37s2.36,19.34,1.57,27c-.16,1.59-.31,2.87-.44,3.9-.59,4.6-.91,4.23-1.27,4.59a2.06,2.06,0,0,1-2.32-1A37.63,37.63,0,0,1,117.84,174Z"/><path class="cls-23" d="M125.21,130.68c-20.66,4.82-20.59,11.16,0,15.41Z"/><path class="cls-23" d="M130.68,124.84c-2.88.58-4.9,1.51-4.75,3.6v17.93c-.22,2.16,1.8,3.53,4.61,4.68Z"/><path class="cls-22" d="M258.48,152.64l-4,.72H176.12a2.82,2.82,0,0,1-.58-.72Z"/><path class="cls-21" d="M254.45,153.36l-2,.36c-.29.14-.5.22-.79.36H176.76a6.51,6.51,0,0,1-.65-.72Z"/><path class="cls-19" d="M251.64,154.08c-.5.22-1,.5-1.51.72H177.41a6.46,6.46,0,0,1-.65-.72Z"/><path class="cls-22" d="M296.43,143.64c-21.17-4.32-51.41-6.84-70-6.48l12.17,6.48Z"/><path class="cls-22" d="M296.43,143.64l3.1.65H239.84l-1.22-.65Z"/><path class="cls-21" d="M299.52,144.28c.94.22,1.87.43,2.74.65h-61.2l-1.22-.65Z"/><path class="cls-19" d="M302.26,144.93l2.38.65H242.28l-1.22-.65Z"/><path class="cls-19" d="M304.64,145.58c.86.22,1.66.43,2.45.65H243.51l-1.22-.65Z"/><path class="cls-17" d="M307.08,146.23c.72.22,1.44.43,2.09.65H244.73l-1.22-.65Z"/><path class="cls-16" d="M309.17,146.88c.72.22,1.37.43,1.94.65H246l-1.22-.65Z"/><path class="cls-15" d="M311.12,147.52c.58.22,1.15.43,1.66.65H247.18l-1.22-.65Z"/><path class="cls-14" d="M312.77,148.17c.58.22,1.08.43,1.58.65h-66l-1.22-.65Z"/><path class="cls-13" d="M314.36,148.82c.5.22.94.43,1.37.65h-66.1l-1.22-.65Z"/><path class="cls-12" d="M315.72,149.47c.43.22.79.43,1.15.65h-66l-1.22-.65Z"/><path class="cls-11" d="M316.88,150.12c.36.22.72.43,1,.65H252.08l-1.23-.65Z"/><path class="cls-10" d="M317.88,150.76a7.64,7.64,0,0,1,.79.65H253.3l-1.22-.65Z"/><path class="cls-9" d="M318.68,151.41l.07.07a3.51,3.51,0,0,1-.72.58h-63.5l-1.22-.65Z"/><path class="cls-8" d="M318,152.06a6.34,6.34,0,0,1-1.22.65H255.75l-1.22-.65Z"/><path class="cls-2" d="M316.8,152.71c-.43.22-.94.43-1.44.65H257l-1.22-.65Z"/><path class="cls-3" d="M315.36,153.36c-.5.21-1.08.43-1.66.65H258.2l-1.22-.65Z"/><path class="cls-4" d="M313.71,154c-.58.22-1.15.43-1.8.65H259.35L258.2,154Z"/><path class="cls-7" d="M311.91,154.65l-1.94.65H260.57l-1.22-.65Z"/><path class="cls-5" d="M310,155.3c-9.58,3.17-24.91,6.77-36.22,7l-13.18-7Z"/><path class="cls-23" d="M226.44,137.16c27.94-.5,82.44,5.4,92.3,14.33-2.38,2.66-28.22,10.44-45,10.8Z"/><path class="cls-22" d="M259.78,129.74l-6.12-8.35c-9.65-3.45-20.74-4.1-34.63-3.31-3.17.14-5.33.5-7,2.74l-6.12,8.93Z"/><polygon class="cls-22" points="259.78 129.74 260.57 130.82 205.21 130.82 205.92 129.74 259.78 129.74"/><polygon class="cls-21" points="260.57 130.82 261.44 131.97 204.41 131.97 205.21 130.82 260.57 130.82"/><polygon class="cls-19" points="261.44 131.97 262.23 133.13 203.62 133.13 204.41 131.97 261.44 131.97"/><polygon class="cls-19" points="262.23 133.13 263.09 134.28 202.83 134.28 203.62 133.13 262.23 133.13"/><polygon class="cls-17" points="263.09 134.28 263.96 135.43 202.04 135.43 202.83 134.28 263.09 134.28"/><polygon class="cls-16" points="263.96 135.43 264.82 136.58 201.32 136.58 202.04 135.43 263.96 135.43"/><polygon class="cls-15" points="264.82 136.58 265.61 137.73 200.52 137.73 201.32 136.58 264.82 136.58"/><polygon class="cls-14" points="265.61 137.73 266.48 138.88 199.73 138.88 200.52 137.73 265.61 137.73"/><polygon class="cls-13" points="266.48 138.88 267.34 140.04 198.94 140.04 199.73 138.88 266.48 138.88"/><polygon class="cls-12" points="267.34 140.04 268.2 141.19 198.15 141.19 198.94 140.04 267.34 140.04"/><polygon class="cls-11" points="268.2 141.19 269 142.34 197.36 142.34 198.15 141.19 268.2 141.19"/><polygon class="cls-10" points="269 142.34 269.86 143.49 196.56 143.49 197.36 142.34 269 142.34"/><polygon class="cls-9" points="269.86 143.49 270.73 144.65 195.77 144.65 196.56 143.49 269.86 143.49"/><path class="cls-8" d="M270.72,144.65l.79,1.15H190.8a11.94,11.94,0,0,1,4.68-.72l.29-.43Z"/><path class="cls-2" d="M271.52,145.8l.86,1.15-83.59-.07a6,6,0,0,1,2-1.08Z"/><path class="cls-3" d="M272.38,146.95l.86,1.15H187.85a5,5,0,0,1,.94-1.22Z"/><path class="cls-4" d="M273.24,148.1l.86,1.15H187.42a3.18,3.18,0,0,1,.43-1.15Z"/><path class="cls-7" d="M274.11,149.25l.79,1.15H188.43a2.56,2.56,0,0,1-1-.94v-.22Z"/><path class="cls-5" d="M274.9,150.4l8.21,11.16c-6.55,1.3-25.85,1.08-46.3.86a136.28,136.28,0,0,0,15.48-6.84c-37.87-.65-59-2.59-63.86-5.18Z"/><path class="cls-23" d="M236.81,162.43c20.45.22,39.74.43,46.3-.86l-29.45-40.18c-9.65-3.45-20.74-4.1-34.63-3.31-3.17.14-5.33.5-7,2.74l-16.56,24.26c-2.16-.22-7.7.58-8.06,4.39,1.3,3.1,22.68,5.4,64.87,6.12A136.28,136.28,0,0,1,236.81,162.43Z"/><path class="cls-40" d="M202.68,149.25h-.36L219.24,122h.43Z"/><path class="cls-41" d="M202.32,149.25a.91.91,0,0,0-.43-.07L218.81,122a.91.91,0,0,1,.43.07Z"/><path class="cls-34" d="M201.89,149.18a3.13,3.13,0,0,0-.36-.07L218.38,122h.43Z"/><path class="cls-35" d="M201.53,149.11a.92.92,0,0,1-.43-.07L217.88,122h.5Z"/><path class="cls-36" d="M201.1,149a.91.91,0,0,1-.43-.07l16.78-27.07a.91.91,0,0,0,.43.07Z"/><path class="cls-33" d="M200.67,149a.65.65,0,0,1-.36-.07l16.7-27h.43Z"/><path class="cls-32" d="M200.31,148.89a.55.55,0,0,1-.36-.07l16.7-26.93H217Z"/><path class="cls-37" d="M199.95,148.82c-.14,0-.29-.07-.43-.07l16.63-26.93c.14,0,.36.07.5.07Z"/><path class="cls-30" d="M199.52,148.75c-.14,0-.29-.07-.43-.07l16.7-26.86h.36Z"/><path class="cls-29" d="M199.08,148.68c-.14-.07-.22-.07-.36-.14l16.63-26.78a.91.91,0,0,1,.43.07Z"/><path class="cls-38" d="M198.72,148.53c-.14,0-.29-.07-.43-.07l16.63-26.78c.14,0,.29.07.43.07Z"/><path class="cls-27" d="M198.29,148.46c-.14-.07-.22-.07-.36-.14l16.63-26.71a.54.54,0,0,0,.36.07Z"/><path class="cls-26" d="M197.93,148.32a1.21,1.21,0,0,1-.36-.14l16.56-26.64a.92.92,0,0,0,.43.07Z"/><path class="cls-25" d="M197.57,148.17a1.24,1.24,0,0,1-.36-.14l16.56-26.57a.65.65,0,0,0,.36.07Z"/><path class="cls-42" d="M197.21,148c-.14,0-.22-.07-.36-.14l16.49-26.5c.14,0,.29.07.43.07Z"/><path class="cls-3" d="M196.85,147.88c-.14-.07-.22-.14-.29-.14L213,121.24c.14,0,.22.07.36.14Z"/><path class="cls-12" d="M196.56,147.74c-.14-.07-.22-.14-.36-.22L212.69,121a1,1,0,0,0,.29.22Z"/><path class="cls-17" d="M196.2,147.52c-.07-.07-.22-.14-.29-.29l16.49-26.5c0,.07.14.22.29.29Z"/><path class="cls-22" d="M195.92,147.24a1.66,1.66,0,0,1-.43-2.16l16.92-24.62v.29Z"/><path class="cls-39" d="M195.48,145.08l16.92-24.62c-.36,1.08,3.1,1.51,8.42,1.58l-17.71,27.29C197.36,148.68,194.4,147.38,195.48,145.08Z"/></g></g></svg>