<svg xmlns="http://www.w3.org/2000/svg" viewBox="0 0 79.98 30.84"><defs><style>.cls-1{fill:#231f20;fill-rule:evenodd;}</style></defs><title>JStream31</title><g id="Layer_2" data-name="Layer 2"><g id="Layer_1-2" data-name="Layer 1"><path class="cls-1" d="M0,20.69c0-.25.23-.4.36-.56A13.14,13.14,0,0,1,3,18.23a1.66,1.66,0,0,0,.23-.15,42.21,42.21,0,0,1,4.12-1.7,6,6,0,0,0,2.11-1,8.92,8.92,0,0,0,1.1-.82,5.24,5.24,0,0,1,.6-.48,3.13,3.13,0,0,0,.62-.47,5.23,5.23,0,0,1,1.39-.85,8.71,8.71,0,0,1,1.51-.5c4.2-.61,8.39-.52,12.58-.78l3-.15.22-1.86c1-.7,2.54-.35,3.76-.59l.06,0c.31.44.68.85,1,1.31A5.43,5.43,0,0,0,36,11c1.75-.11,3.55,0,5.27-.29,0,0,0-.06,0-.11a.74.74,0,0,1,.51-.4c.72,0,1.39-.11,2.09-.11a6.1,6.1,0,0,1,.66,0c.39-.08.72,0,1.09-.11a2.82,2.82,0,0,0,.44,0c.31-.07.62,0,.91,0,.24.07.5-.06.79,0a5.93,5.93,0,0,1,.75,0c.2,0,.36-.06.56,0,.6,0,1.16-.11,1.74-.08.42,0,.83,0,1.21-.08.34.1.72-.06,1.08,0,.09,0,.15,0,.23,0a2.51,2.51,0,0,0,.6-.11A17.09,17.09,0,0,0,56.57,8c.14-.12.28-.2.4-.29.49-.49,1.12-.77,1.64-1.27l.17-.11s0,0,0-.06l0-.54.15.55s0,0,0-.06l.45-.35,1.24-.89c-.26-.35-.77-.73-1.07-1C59,3.39,58.47,3,58,2.46a3.8,3.8,0,0,1,.54-.27c1.73-.25,3.65-.45,5,.66l.35-.2s0,0,.06-.07l.35-.24L67.59,0l4.13.37c.06,0,.06.06.06.11l0,0-.11,0L70.07,2.77c-.26.4-.54.73-.77,1.13-.07.09-.15.14-.13.23a1,1,0,0,1,.82.39.15.15,0,0,1,0,0l-.19.35L80,7.4l0,0a.16.16,0,0,1,0,.09c-.39,0-.81.08-1.21.14a24.46,24.46,0,0,0-3,.44l-.06,0c-1.91-.48-3.91-.75-5.84-1.15-.81-.15-1.61-.33-2.42-.46L65.54,9.14c-.23.4-.62.71-.75,1.15a37.73,37.73,0,0,0-2.36,3.31,2,2,0,0,1-.25,1.56,3.63,3.63,0,0,1-.93,1,2.19,2.19,0,0,1-.69,1.67c-1.12.39-1.84,1.13-3.06,1.46a11,11,0,0,1-1.06.35,4,4,0,0,1-.55.15c-.77.16-1.56.3-2.28.46a2,2,0,0,1-.73.42c-.47.16-1,.25-1.42.39-1,.14-2,.06-2.93.12a.12.12,0,0,0,0,.06A6.22,6.22,0,0,0,51,22.5c.2,0,.38.15.57.15l3.3,1.1c2.27.72,4.64,1.44,6.85,2.18,4.64,1.3,9.38,2.6,14,3.8l0,0s0,.06,0,.1a10.83,10.83,0,0,1-1.39.5,23.69,23.69,0,0,1-4.5.48,3.83,3.83,0,0,1-.5-.13c-6.66-1.43-13.3-2.88-19.94-4.28-2.23-.49-4.43-.86-6.62-1.38l0-.06-1.16-.31c-1.07-.26-2.15-.55-3.19-.81l-.64-.17a32.35,32.35,0,0,0-4.94-1c-.15,0-.27,0-.4,0a25.1,25.1,0,0,1-4.6-.3c-1-.15-1.94-.28-2.92-.34-1.84,0-3.77.2-5.6.37-1.32,0-2.66.27-4,.2-.16,0-.28,0-.4,0-.63,0-1.25,0-1.86,0s-1.14,0-1.72,0-.85,0-1.26,0c-.56,0-1.08-.08-1.61,0s-1,0-1.52-.07a21.71,21.71,0,0,1-2.31-.22c-.69-.07-1.37-.26-2-.38A9.57,9.57,0,0,1,.27,21,.5.5,0,0,1,0,20.69Zm.23,0a.42.42,0,0,1,.09-.24c.11-.09.27-.31.41-.4A8.66,8.66,0,0,1,2,19c.33-.27.72-.35,1-.6.11-.09.2-.11.29-.18a.81.81,0,0,0,.35-.17c.22-.08.45-.21.69-.3s.77-.34,1.14-.49a1.06,1.06,0,0,0,.29-.14c.73-.29,1.48-.55,2.18-.81a5.24,5.24,0,0,0,.61-.16,13.11,13.11,0,0,0,1.56-1c.31-.22.56-.42.86-.61l1-.7,0-.19.79-.55a9,9,0,0,1,2-.71,20.07,20.07,0,0,1,2.09-.3l.06-.06,10.3-.46L41.51,11a.17.17,0,0,1,0,.06l.35.07c.09,0,.2-.09.22-.21a.26.26,0,0,0-.1-.31l-.06,0a.21.21,0,0,0-.15.06l-.19.21,0-.1.35-.24c.14,0,.28-.06.43,0a11.7,11.7,0,0,1,1.67-.1l2.93-.1c2.25-.14,4.48-.08,6.72-.28.11,0,.21-.06.3-.07.91-.22,1.4-1,2.12-1.37,1.25-.85,2.51-1.87,3.74-2.76.29-.19.52-.38.81-.56.06,0,0,.11,0,.19s0-.07,0,0c.19-.66.9-.88,1.36-1.26l1.67-1.19,1-.62a3,3,0,0,1,.84-.63c.32-.32.78-.56,1.15-.87s.68-.63,1.19-.56c1.16.1,2.31.15,3.45.32-.4.66-.84,1.27-1.31,1.93-.32.63-1,1.1-1.12,1.8l.82.29c0,.13-.13.14-.2.22-.8.14-1.6-.06-2.39.08a4.33,4.33,0,0,0-.64,0,5.88,5.88,0,0,1-.84,0,4.08,4.08,0,0,0-.83,0c-.44,0-.86,0-1.28.06a6.87,6.87,0,0,0-2.1.2.18.18,0,0,0-.14.09.07.07,0,0,0,0,0c.21.18.57.12.84.22,0,0,0,0,0,0a4,4,0,0,1,.85.09c.27.08.52.09.78.15s.54.11.81.15l2.57.48-.27.39a2.3,2.3,0,0,1-.67,0c-.14,0-.28-.14-.37,0-1.39,1-2.73,2-4.06,3-1,.69-2,1.39-3.06,2-.33.2-.63.42-.89.6s-.7.44-1.08.63a9.15,9.15,0,0,1-1,1.16,3.71,3.71,0,0,1-.6.49c-.81.16-1.6,0-2.39.17a15.72,15.72,0,0,0-1.75.15,9.93,9.93,0,0,0-1.88.54,1.73,1.73,0,0,0-.34.29,2.72,2.72,0,0,0-.56,1.53,3.25,3.25,0,0,0,.64,1.9c.12.14.17.31.34.38a.06.06,0,0,0,0,0L50,20a2.13,2.13,0,0,0,.62.25,12.78,12.78,0,0,0,2.42.06v0a11.4,11.4,0,0,1-2.13.56,12.21,12.21,0,0,1-2.82-.08A.35.35,0,0,0,48,21c-.26.16-.62,0-.94.1a3.7,3.7,0,0,0-.65,0,7.8,7.8,0,0,1-1.15,0c-.48,0-.93-.12-1.4-.06s-1.19,0-1.77,0c-.39,0-.76-.1-1.13,0-.13-.06-.22,0-.33,0a25.57,25.57,0,0,0-4.3.33c-.32,0-.64.07-.93.15A7.21,7.21,0,0,0,34.1,22a.94.94,0,0,0-.39.55l-.85-.07a27.67,27.67,0,0,1-3-.1,7.43,7.43,0,0,1-1.4-.11,27.57,27.57,0,0,0-4.27-.46l-.84.06A7.43,7.43,0,0,0,24.08,20c.09-.28.12-.52.18-.77.09-1.17.23-2.58-.56-3.46-.19-.12-.31-.31-.49-.35-.2-.2-.53-.12-.77-.26a3.19,3.19,0,0,0-1,.15,4.59,4.59,0,0,0-.8.7,2.1,2.1,0,0,0-.2.4l-.1.16a6,6,0,0,0-.1,1.25c-.07.16,0,.29,0,.44a4,4,0,0,1,0,.93A8.48,8.48,0,0,1,20,20.45a3.25,3.25,0,0,1-.42,1.18,1.87,1.87,0,0,1-.31.52l-3.35.25-.32,0c-1.66.08-3.27,0-4.92.1-.44,0-.83,0-1.27,0s-1.07-.07-1.64,0l-.08,0a19.45,19.45,0,0,1-2.35-.15,7.43,7.43,0,0,0-.79-.11c-.21-.06-.41,0-.6-.1s-.6-.15-.91-.16A9.77,9.77,0,0,1,.24,20.75a0,0,0,0,0,0,0ZM8.9,16.28v0c.48-.39,1-.66,1.51-1.12a7,7,0,0,1,.62-.42c.35-.3.66-.51,1-.76.42-.06.7.21,1.1.27.12.06.24,0,.35.09s.43,0,.58.14,0,.19,0,.27l-.63,2.06a18.5,18.5,0,0,1-3.14,0,5.69,5.69,0,0,1-1-.23c-.13-.09-.3-.14-.37-.31v0Zm5.15.33c0-.3.18-.51.23-.81a4.17,4.17,0,0,1,.22-.7l.15-.29.2-.16,1.23.1a3,3,0,0,1,.31,1.8.64.64,0,0,1-.28.41c-.59.06-1.17-.06-1.74,0-.14,0-.26,0-.31-.17l0-.15Zm2.63-1.28c0-.19,0-.44.19-.56a1.66,1.66,0,0,1,1-.06l.15.13a6.15,6.15,0,0,1,.28,1.1c0,.3.2.54.11.83a.25.25,0,0,1-.11.11,1.76,1.76,0,0,1-1.4-.08,7.94,7.94,0,0,1-.19-1.48Zm3,6.76c0-.23.19-.39.25-.64a9.63,9.63,0,0,0,.59-4,2.27,2.27,0,0,1,.13-.86s0,0,0-.08a1.94,1.94,0,0,1,.89-1,1.5,1.5,0,0,1,1.12,0c.44,0,.7.37,1,.67a2.8,2.8,0,0,1,.39,1.32,8.46,8.46,0,0,1-.36,2.93,5.21,5.21,0,0,1-.63,1.42l-3.43.3v0Zm9-5.92.1-.61a.55.55,0,0,1,.52-.15.76.76,0,0,1,.44.41,2.3,2.3,0,0,1-.12,1.37.62.62,0,0,1-.61,0c-.1-.12-.14-.25-.22-.35-.06-.25-.06-.49-.1-.73Zm1.88-4.93.13-1.66a5.25,5.25,0,0,1,2.69-.3l.9-.16.15.21a14.33,14.33,0,0,1,1.26,1.73l-5.12.2v0ZM31.2,16a1.21,1.21,0,0,1,.13-.65,1,1,0,0,1,.71,0,1.26,1.26,0,0,1,.27.92,1.17,1.17,0,0,1-.18.7.64.64,0,0,1-.61.1.47.47,0,0,1-.25-.37c-.06-.25,0-.48-.07-.7Zm2.64-.14c0-.23,0-.58.24-.69a.85.85,0,0,1,.6-.06c.17.08.18.31.23.48a1.75,1.75,0,0,1-.22,1.29.76.76,0,0,1-.64-.06c-.23-.26-.17-.64-.22-1ZM34,22.46c0-.15.1-.22.21-.31a7.25,7.25,0,0,1,1.67-.62,11.12,11.12,0,0,1,2.5-.28,28.42,28.42,0,0,1,2.85-.13,8.17,8.17,0,0,0,1.15.06,9,9,0,0,0,1.23,0c.44.06.85,0,1.27.07,1.56.16,3.27-.35,4.41.82.21.1.41.23.61.31l.08,0,11.75,3.75,13.42,3.7c-.14.06-.26.1-.39.16a27.9,27.9,0,0,1-5,.66l-.14-.06-8.62-1.82c-.82-.15-1.6-.35-2.4-.49-4.93-1-9.85-2.08-14.75-3.13-.52-.19-1.1-.27-1.59-.45-.69-.13-1.33-.33-2-.48-.83-.22-1.72-.42-2.52-.64s-1.34-.31-2-.52l-1.64-.43L34,22.48v0Zm2.62-6.93,0-.4a.87.87,0,0,1,.68-.1,1.34,1.34,0,0,1,.3.85c-.06.3,0,.67-.21.87a.85.85,0,0,1-.49,0c-.36-.25-.26-.81-.32-1.22Zm2.81.1.06-.61a.34.34,0,0,0,.09-.1l.17-.1c.15,0,.37,0,.47.17s.1.1.12.16l.14,1.06a2.18,2.18,0,0,1-.15.25c-.12.1-.3.21-.45.13s-.16,0-.21-.07c-.18-.23-.15-.6-.24-.89ZM42,15.41l0-.45.15-.19c.1-.06.23,0,.35,0a.24.24,0,0,1,.25.14A2.1,2.1,0,0,1,43,16.16c0,.12-.07.24-.19.29a.64.64,0,0,1-.54-.1,2,2,0,0,1-.19-.94Zm6.56,2.08a1.68,1.68,0,0,1,.1-.65c0-.38.3-.56.4-.85a.89.89,0,0,1,.64-.39l.31.18a1,1,0,0,0-.86.23,2.2,2.2,0,0,0-.37,1.88,1.59,1.59,0,0,0,.09.32.25.25,0,0,0,.11.08.12.12,0,0,0,.06,0c.15-.35-.2-.85.13-1.17.27.21.36.59.6.86a1.62,1.62,0,0,1,.13.19c.19.15.2.47.46.61h.07a3.89,3.89,0,0,0-.2-2.81c-.06-.06,0,0,0-.06.26.09.35.35.48.55s.15.57.23.84a1.56,1.56,0,0,1,0,1,2.1,2.1,0,0,1-.75,1.35.65.65,0,0,1-.59-.11c-.19-.1-.25-.29-.39-.4l-.12-.21c-.23-.2-.25-.52-.4-.81s-.1-.37,0-.52l-.07-.11v0Zm.6,1.35v-.07c0-.08.12-.07.16,0a.74.74,0,0,0,.54.35c.08,0,.11-.19.27-.2l.08,0a.24.24,0,0,1,0,.25.66.66,0,0,1-.51.18c-.29-.08-.39-.32-.51-.5Zm1-3.35a6.08,6.08,0,0,1,1.8-.33c.51,0,1,0,1.44,0a40,40,0,0,1,5.73,0l.1,0a.19.19,0,0,1,0,.23,3.64,3.64,0,0,1-2,1.56A25.43,25.43,0,0,1,52.39,18a.3.3,0,0,0-.17.22,1.79,1.79,0,0,0,.14.37c.27.1.49,0,.76-.09s.5,0,.72-.15A12.1,12.1,0,0,0,55.9,18c.24-.09.44,0,.66-.12a15.78,15.78,0,0,1-2.13.45l-1.73.28a.39.39,0,0,0-.15.07c-.15.13,0,.32,0,.48.79,0,1.64-.26,2.46-.23l.09,0c.81-.06,1.58-.4,2.35-.52.85-.31,1.73-.51,2.48-.84.15,0,.3-.11.43-.15s.19-.06.27-.1-.06.12-.08.18-.28,0-.4.11a5.83,5.83,0,0,0-1,.34,12.19,12.19,0,0,1-1.8.55,29,29,0,0,1-3.57.66l-.56,0-.52.1a.19.19,0,0,0-.11.11l.09.29c0,.08.1.12.19.14.47,0,.94-.1,1.36-.15s.92-.11,1.35-.15l.06,0a23.44,23.44,0,0,1-3,.52,8.87,8.87,0,0,1-2.31-.19,3.4,3.4,0,0,0,.79-2.65,3.19,3.19,0,0,0-.69-1.46.14.14,0,0,1,0-.06l-.27-.24Zm2.27,2.75c.33-.1.67,0,1-.13a4.38,4.38,0,0,1,.64-.07,6.42,6.42,0,0,1,.77-.2c.65-.16,1.29-.32,1.9-.49a6,6,0,0,0,.73-.24,3.84,3.84,0,0,0,1-.56.25.25,0,0,0,.17-.09l.46-.44a2.71,2.71,0,0,0,.44-.83l.69.17.09.12.08.2a.31.31,0,0,0,.15,0,.1.1,0,0,1,.08.09c-.14.31-.54.37-.77.58a14.18,14.18,0,0,1-2.67,1.12c-.44.09-.87.23-1.31.28a3.78,3.78,0,0,0-.63.17,7.14,7.14,0,0,1-1.15.15c-.34,0-.67.15-1,.16s-.42.13-.6.15-.1-.07-.13-.15Zm.27.66v0c1.26-.18,2.56-.44,3.81-.69.49-.17,1-.23,1.45-.4a18.69,18.69,0,0,0,1.9-.78l1-.66,0,0a1.08,1.08,0,0,1-.09.61c-.42.23-1,.31-1.35.54l-1.75.57c-.71.16-1.44.41-2.14.52s-1.18.13-1.74.23a2.61,2.61,0,0,0-.82.12c-.13-.06-.23,0-.33,0s0,0,0,0Zm.21.67s0,0,0,0a24.4,24.4,0,0,0,3.68-.6,2,2,0,0,0,.62-.12,5.08,5.08,0,0,1,.65-.17,9.55,9.55,0,0,1,1-.31c.08,0,.15-.09.23-.07-.87.75-2.15.75-3.31,1.06-.25,0-.49,0-.72,0-.48,0-.94.11-1.36.17a2.46,2.46,0,0,1-.83.06s0,0,0,0Zm2.75-4.91.94-1,.28-.46a13.68,13.68,0,0,0,1.64-1c.67-.42,1.32-.8,2-1.19.18-.15.35-.26.53-.39.36-.2.58-.44.94-.63.56-.43,1.1-.72,1.64-1.2a3.47,3.47,0,0,0,.4-.27l.75-.6.92-.6c.07-.09.19-.24.35-.26a1.78,1.78,0,0,0,.67.07c-.89,1.16-1.42,2.65-2.82,3.41-1.22.68-2.44,1.3-3.65,2-.31.23-.69.37-1,.57s-.41.18-.59.28a5.05,5.05,0,0,1-1.23,1.35c-.6,0-1.23-.06-1.77,0Zm.13,4.91.13,0-.13,0Zm1-1.73c.21-.13.51-.1.73-.22a10.12,10.12,0,0,0,1.73-.68c.3-.21.7-.33,1-.53a2,2,0,0,0,.52-.35c-.16.32-.66.48-1,.73s-.52.19-.73.32a10.36,10.36,0,0,1-1.91.69l-.35,0ZM58,14.62l.56-.62.3-.42a.08.08,0,0,1,0-.06.35.35,0,0,1,.14-.07l0,0c0,.15-.21.23-.26.39a6.35,6.35,0,0,1-.44.56c-.1.06-.19.09-.23.16s-.08,0-.14.08l0,0Zm.38-12.09a7.29,7.29,0,0,1,2.52-.33,3.49,3.49,0,0,1,2.34.72l.09.08-.55.39-.1,0a6.92,6.92,0,0,1-1,.78s-.06,0-.07,0l-.81.58L58.35,2.56l0,0Zm0,12.17a6.34,6.34,0,0,0,.85-1.07l1.52-.77c1.1-.48,2-1.12,3.09-1.65l-1.67,2.4c-.11.08-.27.11-.37.2-.4.22-.69.6-1.1.72-.59.62-1.52.27-2.29.23h0l0,0Zm.81-1.35c.38-.22.76-.42,1.13-.64,1-.56,2-1,2.9-1.58.22-.06.31-.19.53-.24s.34-.23.48-.33l.06,0-.11.22C62.8,11.52,61.43,12.31,60,13c-.29.08-.49.31-.78.32Zm1.53,1.48a9.07,9.07,0,0,1,1.48-.9.18.18,0,0,1,0,.21c-.26.19-.64.31-.91.51a3.71,3.71,0,0,1-.6.22l0,0Zm.08.35a7.25,7.25,0,0,1,1.28-.62c0,.13-.07.37-.15.52a2.41,2.41,0,0,1-.73.8l-.11-.33-.29-.36Zm1.48-9.9a1.71,1.71,0,0,1,.45-.07c.37-.06.7,0,1-.06a5.07,5.07,0,0,0,.78,0c.5-.09,1,0,1.45,0a9.28,9.28,0,0,1,1.26,0c.87-.06,1.79.1,2.59,0l9.35,2.27c-1,.19-2,.26-3,.4a7.42,7.42,0,0,1-2-.24l-.08,0L67.87,6.39l-5.6-1.1Z"/></g></g></svg>