<svg xmlns="http://www.w3.org/2000/svg" viewBox="0 0 211.76 76.89"><defs><style>.cls-1{fill:#231f20;fill-rule:evenodd;}</style></defs><title>K-AIR90</title><g id="Layer_2" data-name="Layer 2"><g id="Layer_1-2" data-name="Layer 1"><path class="cls-1" d="M189.47,76.89a3.55,3.55,0,0,0,.61,0c1.88-3.48,1.15-7.91,1.6-12,5.82-2.74,15-2.62,19.42-7.21a4.89,4.89,0,0,0,.33-4.18C207,49.24,199,47.89,192.75,45.68c-.49-2.91.2-6.23-.16-9.26a4.29,4.29,0,0,0-.37-2.25,1.48,1.48,0,0,0-1.72,0c-1.19,2.95-.57,6.55-.82,9.83a14.66,14.66,0,0,1-4.3-.29c-16.06-.94-23.88-15.2-39.33-13.36-29.82,0-59.48,2.58-89.19-1-19.17,0-28.31-19-42.61-29.21L0,0,10.57,40.07C9.75,41.79,7.7,42.36,6.39,44c0,.08,0,.29,0,.41l1.72.53,4.75.94,2.13,6,.94.61L17,54.77A11.15,11.15,0,0,0,24.21,56c.12,0,.16.16.37.41l83.82,9.3c.45.12.49.82.66,1.43a1.06,1.06,0,0,0,1.11-.33c.12-.25-.12-.33-.08-.61a1.48,1.48,0,0,1,1.6-.53c1.27.45,2.21.41,3.32.86,17.17,3.85,34.08,1.43,51.09,2.34A74.2,74.2,0,0,0,189.31,65c.33,2.5-.86,5.41-.53,8.19a5.3,5.3,0,0,0,.53,3.65l.16,0ZM163.83,68l4.34-.2c.41,0,.37-.53.82-.61l3.48.74.29-2-8.32,1.43-.74.57.12,0ZM131.3,63.54c4.79,0,10.61-.16,14.63-3a.49.49,0,0,0-.08-.33L145,60.1l-4-10.61a10.61,10.61,0,0,0-4.79-1.15,16.37,16.37,0,0,0-4.26-.41,50.34,50.34,0,0,0-8.89,1.47c-2.21,1.84-4.83,3.48-6.55,5.57l-4.42,3.28c-.41,0-.41-.41-.78-.57-27.53-2-54.94.2-82.55-6.88-3.24-1.84-7.21-2-11-3H17c-1,.7,0,2.17.2,3.32a6.13,6.13,0,0,1,.53,1c18.48,6.8,38.47,3.52,57.35,6.39,0,.53-.45,1.43.2,2a6.5,6.5,0,0,0,3.73.29l3.36-.7-.82-2.21c7.74-2.5,16.84.41,24.95,1.64,0,.2.33.41.33.82-.45.57-1.31-.33-2,.16.08.33.61.16.82.45,0,.12.08.25,0,.37-6.55,2.09-13.15.66-19.62-1.23-.61-.2-.74-.74-1.27-.94-.33.16-.16.74-.16,1.15,15.65,5.9,30.77-.82,46.66,3.24Zm24.25-.08,9.5-.66c.29,0,.29.16.61.29a43,43,0,0,0,5-1.11,36.64,36.64,0,0,0,7.17-.45c2.13-.57,4.06.45,5.86.29.29,0,.37-.29.25-.57a104.34,104.34,0,0,0-10.53-1.72c-6,.57-12.54,1.11-17.74,3.32-.12.29-.12.41-.29.57l.2,0Zm33.31-.37a.54.54,0,0,0,.49-.25l-.49-2.91a.81.81,0,0,0-.41-.12l.12,3.15a.34.34,0,0,1,.29.12Zm3.36-.25c5.61-2.17,13.11-2,17.57-6a10.54,10.54,0,0,0,.16-2.5c-4.26-3.65-10.86-5.28-17-7.21-.12,0-.29,0-.33.16L192.38,55a3.43,3.43,0,0,0,3.24.37,5.89,5.89,0,0,0-2-1.6,1,1,0,0,1-.08-.41c3.44-1,7.33,1.76,11.06,1.27a1.06,1.06,0,0,1,.82.78c.16.61.45,1.56-.16,2-3.77-.12-7.62-.29-11.39.86a2.41,2.41,0,0,1-1.43.74c-.33.74-.12,1.56-.61,2.42A6.08,6.08,0,0,1,192,62.8l.25,0ZM76.16,59.52l4.34-.82a1.09,1.09,0,0,0,0-.37L76,59.48l.16,0Zm105.69-2.87,7.21-.25.25-10.53c-5.49-1.93-12-2.17-17.82-4.26-2-.12-4.71-.53-5.9,1-2.25,2.34-6.06,2-9,2.66-.74-.08-1.06-1-1.43-1A5.21,5.21,0,0,1,149,45.6c-1.19-.66-2.83-1.88-3.11-3.24a5.24,5.24,0,0,0-.12-1.64,4.68,4.68,0,0,1,2-2.7,13.17,13.17,0,0,1,6.39-.45l.61,1.23c1.27-.49,1.31-2.29,2-3.61,2.09-.25,4,1.31,5.49,2.29A9.81,9.81,0,0,1,164.44,40a1.84,1.84,0,0,0,1.19-.2c.29-1.39-.86-2.42-1.8-3.15-8.19-7.17-20.16-4.55-30.48-4.75-17.41.37-34.29,1.15-51.62.94-13.36-.45-26.51-.57-39.7-4.51l-3.11-.86c-2.87-3.28-6.1-7.91-10.16-9.5l-1-.61L25,16.51l-1,.25a11.52,11.52,0,0,0-4.55-1.56c-3.93-.57-7.82-1.35-11.55-2.17-.57-.08-.74.45-1.27.66L5,12.41a13.53,13.53,0,0,0,.45,4.34c1.31,6.19,3.2,11.92,5,17.78a7.71,7.71,0,0,1,.86,1.27l.86.41.82-.41c1.11-1.93-1.52-3.89-.82-5.82a.7.7,0,0,1,.41,0l2.66,6.6a1,1,0,0,1-.78,1H11.35c-.37.37.16,1.11.29,1.6l1,.53c.16.12.2.33.41.49,7.95-.74,16.18-2.34,24.46-2.62,2.33-.33,4.55-.29,6.19,1.11,2.95,2,5.53,3.11,7.87,5.74a2,2,0,0,1-1.27,1.88l-3.85,1.15c.16.66.9.57,1.35,1a751.66,751.66,0,0,0,83.16-2.17l-.66-1.88c0-2.09,0-4.42,1.68-5.69,1.31-.94,2.62-.33,3.73.16,1.76,1.31,1.43,3.24,1.39,5.2a7.53,7.53,0,0,0-.37,1.76s-.33,0-.37.2c2.09.53,5.33-.08,6.8,2l12.41.7,0,1c-3.24,1.35-7.13.61-10.69,1.07a8.32,8.32,0,0,0,1.84,4.92c8.85-1.39,17.62-.08,26.46-1.31,2.21-.74,4-2,6.43-1.11a.84.84,0,0,0,.66.29l1.47,3Zm-4.79-.86h.61c.7-.16-.37-.45-.61-.53-.12.08-.29.37-.12.53Zm-80-8.64A4.2,4.2,0,0,0,100.37,46a7.45,7.45,0,0,0,.66-5.28c-.45-1-1.93-1.39-3.2-1.47l-.61.16a5.18,5.18,0,0,0-2.38,3.2c.29,1.64.41,3.56,2,4.55ZM80.5,46.91a4.88,4.88,0,0,0,3.65-1.43c.61-1.19.37-2.09.49-3.11a4.38,4.38,0,0,0-4.42-1.6A4.83,4.83,0,0,0,76.57,43l.16,1.88c.74,1.31,2.21,1.64,3.77,2Zm-40.56-.2A18.61,18.61,0,0,0,48.14,45a28.31,28.31,0,0,0-7.37-5.16,4.78,4.78,0,0,0-1.23.2c-.25,0-.25-.2-.53-.25l-2.62-.12c-4.26.9-8.81,0-13.19,1.39-5,.2-10.41.53-14.83,2.7a102.68,102.68,0,0,0,21.06,1.52l1.31-2.7A1.92,1.92,0,0,1,31.83,42a1.12,1.12,0,0,1,.57,1.35,12.33,12.33,0,0,1-.9,2.09l8.44,1.23Zm84.76-.41a2.78,2.78,0,0,0,2.42-1,6.09,6.09,0,0,0,.08-5.2,4.55,4.55,0,0,0-2.5-1.84l-1.84.94c-1,.9-.78,2.58-.82,4.1a13.32,13.32,0,0,0,1.27,2.42l1.39.61ZM115,46c1.15.12,2.46,0,3-1a4.73,4.73,0,0,0,.78-4.71c-.49-.78-1.11-1.6-1.88-1.64-1.56-.16-2.91.12-3.65,1.19-.9,1.76-.25,3.69.41,5.16.45.57.74.94,1.35,1ZM53.58,40.48a49.41,49.41,0,0,0,11.18-.86c3.85-.61,7.66-1.23,11.39-2.21C67.1,39,58.13,38.67,49,39.25c-.12,0-.57.16-.16.49l4.71.74ZM10.73,25.6l.16,0,0-1a.41.41,0,0,0-.53,0c-.16.37.08.57.25,1l.16,0ZM9.55,22.2,9.67,22a.51.51,0,0,0-.37-.53c-.33.08-.08.45,0,.74l.29,0Zm-1.15-3,0-.78c-.33.16-.08.49-.16.78Z"/></g></g></svg>