<svg xmlns="http://www.w3.org/2000/svg" viewBox="0 0 128.23 104.94"><defs><style>.cls-1{fill:#231f20;fill-rule:evenodd;}</style></defs><title>K-Air90F(3)</title><g id="Layer_2" data-name="Layer 2"><g id="Layer_1-2" data-name="Layer 1"><path class="cls-1" d="M48,104.91a2.28,2.28,0,0,0,1.23-.14c.43,0,.55-.33.92-.31A5,5,0,0,0,51.69,103a8.72,8.72,0,0,0,1.07-5.62c-.12-.43.14-.78,0-1.17l.1-.29,1.95-1.17c.6-.16,1-.53,1.64-.76,1.21-.49,1.91-1.29,3.12-1.68C62,91,64.76,90,67.16,88.54a14.88,14.88,0,0,1,1.7.55c3.14,1.07,6.32,2.24,9.34,3.34,1.21.39,2.32.8,3.47,1.23.62.18,1.13.39,1.7.6,1.62.57,3.3,1.19,4.78,1.76.74.21,1.46.51,2.13.74,1.21.51,2.54.94,3.73,1.42a14.7,14.7,0,0,1,2.42.88c1.44.33,2.46,1.5,3.94,1.09A15.48,15.48,0,0,0,102.33,99s.1-.08.18-.08l4.9-2.91a.43.43,0,0,0,.08-.12,2.69,2.69,0,0,0,1.23-1.25l-.31-.62L107,93.3l-8.11-4.45-.66-.43c-.14.06-.18-.14-.37-.16a.26.26,0,0,1-.25-.14.3.3,0,0,0-.18,0c-.14,0-.23-.16-.33-.33l-1-.47-5.72-3c-.08-.06-.08-.18-.1-.27l-.23,0C90,84,90,84,90,83.88l-.64-.33-9-4.8c-.06,0-.08-.1-.14-.16s-.08,0-.14,0l-1.52-.88-7.8-4.27-.84-.57L69.66,71l0-.35c.29-.72,1.21-.74,1.6-1.42l1.95-1.46c.43-.43,1-.94,1.5-1.4.66-.57,1.15-1.09,1.62-1.54A32.75,32.75,0,0,0,78.59,62l3.92-3.88.8-.78,2.56-2.48s0-.08.08-.14l2.61-2.42a.25.25,0,0,0,.1-.16l1.87-1.95,2.79-3,.14-.39.9-.88A34.89,34.89,0,0,1,97.2,43a5,5,0,0,1,2-2.4c.37-.1.55-.53.88-.62a1.77,1.77,0,0,0,.2-.14c.16,0,.23-.14.35-.21l4.43-15.9L124.63,28c.66-.08,1-.74,1.48-1.15a12,12,0,0,0,1.25-1.25c.41-.47.94-.84.86-1.5l-2.63-1.31c-.66-.51-1.68-.72-2.36-1.15a6.25,6.25,0,0,0-.82-.25c-.06,0-.06-.12-.14-.18l-3.94-1.68-10.85-4.84c-.06-.23.25-.23.31-.39L109.26,13a1.27,1.27,0,0,0,.06-.14c.66-.72,1.76-1.52,1.89-2.63,0-.14-.23-.23-.41-.18-.37,0-.66.18-.92.23-2.15.6-4.31,1.33-6.26,1.93,0,0,0-.08-.1-.14a2.36,2.36,0,0,1-1.33-.82L99.7,9.58c-.06,0-.06-.14-.12-.23l-.82-.55-1.91-1.4c-.2,0-.29-.18-.41-.31L94,5.36,91.6,3.57h-.14L88.85,1.68,87.68.8a.42.42,0,0,0-.12-.14c0-.06-.08-.08-.16-.1A1.72,1.72,0,0,0,86.51,0C85,.7,84.09,2,82.69,3.2a.83.83,0,0,0-.12.23l-.21.2c0,.25-.31.39-.45.53s0,.23.06.37l3.08,3.82c.25.51.82,1,1.17,1.58,1,1.25,2,2.44,2.85,3.63,1.56,1.89,3.08,3.8,4.51,5.68-.39,1.54-1.81,2.65-2.09,4.27a1,1,0,0,0,.94.16c-.18,1.93-1.27,3.88-1.83,5.85-1.31,3.2-2.09,6.71-5.17,8.72l-3,2.32-4.41,3.18c-.29.37-.84.45-1.31.7a28.44,28.44,0,0,0-3.55,1.13c-2.67,1.19-5.17,2.48-7.72,3.73-.57.43-1.25.64-1.76,1-2,1-4,1.85-5.77,2.91-3.3,1.91-6.73,3.73-10,5.64L39.25,54c-.14,0-.18-.08-.27-.16l-.57-.35-.14.06-.68-.43c-.12-.08-.16-.23-.35-.29H37.1l-1.17-.51-1.42-.72s-.06-.08-.08-.12a16.27,16.27,0,0,1-2.28-1.27,2.6,2.6,0,0,1-.49-.41c-.49.12-.74-.25-1.19-.39C26,47,21.81,44.9,17.42,42.43l-6.28-3.3-2.5-1.35a.17.17,0,0,0-.08-.14c-.18-.23-.51-.1-.74-.27C6,37.28,4.45,38.43,2.91,39c-.66.23-1,.64-1.6.86A4.9,4.9,0,0,0,0,41.22l.12,1.31,1.07.64a31.23,31.23,0,0,1,3.59,3l1.09.94,8,6.85,4.64,4,7.33,6.2v.14A27.85,27.85,0,0,0,19.06,69a.51.51,0,0,1-.39.18A7.89,7.89,0,0,0,15,66.48a1.06,1.06,0,0,0-.35.18c.94,1.11,2.52,1.62,3.32,3.06a24.93,24.93,0,0,0-3,3.22c-.06,0-.12,0-.21,0-1.27.94-1.85,2.5-2.54,4.08l0,.9c1,.94,2.56.35,3.82.43.29.31.51.88,1,1,1,0,2,.94,2.91.37a2,2,0,0,1,.1-.23l2.67-1a.16.16,0,0,1,.1.1,11.71,11.71,0,0,1-.68,5.66l-.21.35-.08.25a.4.4,0,0,0,.23.35l.39-.21a6.88,6.88,0,0,0,.7-1.79c0-.47.39-.78.31-1.23a8.12,8.12,0,0,0,.16-1.74c0-.74,0-1.4,0-2.07l4.12-2.09L32.34,74s.1,0,.1.08l-1.23,1.46a16.29,16.29,0,0,1-1.7,1.95c-.25.39-.62.62-.8,1a37.29,37.29,0,0,0-5.79,9.11c-.12.78-.37,1.7.1,2.32a.38.38,0,0,1,.29.25c1.17.86,2.93.8,4.39.74a20.44,20.44,0,0,0,2.91-.53L32.4,90l3.49-1.17a.12.12,0,0,1,.1.08c.21.29-.1.7.08,1a9.91,9.91,0,0,0,.23,2.26c.06.16.06.25.14.31a10.24,10.24,0,0,0,.21,1.31,8.48,8.48,0,0,0,.59,1.81l1.15,2.2,2.44,3.16.35-.08.21-.37-.33-.64c-.08-.16-.33-.23-.39-.49a25.91,25.91,0,0,1-2.28-3.24A12.47,12.47,0,0,1,37.32,93c-.1-.51-.37-1-.25-1.46a6.26,6.26,0,0,1-.31-2.07,2.39,2.39,0,0,0,0-.84c2.15-1.07,4.72-1.7,6.79-2.73,1.31-.59,2.77-.94,4-1.54,1-.06,1.83-.86,2.77-.64a.68.68,0,0,0,.08.21c.1.18.43.06.59.21a.17.17,0,0,1,0,.14l-3.2,2.07a1.34,1.34,0,0,1-.6-.57l-.76-.25-.37.25-.18.39s0,.08,0,.1c.39.12.9.16,1.17.64-.23.45-.84.76-1.15,1.17-.66.51-1,1.07-1.52,1.44-.27.43-.74.7-1,1.07A11.2,11.2,0,0,0,42.37,92c-.76.88-2,2-1.79,3.47a2.84,2.84,0,0,1,.1.27,2.7,2.7,0,0,0,1.74.39c.72-.23,1.46-.25,2.13-.49l.64.35a.26.26,0,0,0,.08.14,7.12,7.12,0,0,0,2.93.31,3.38,3.38,0,0,0,2.77.23,2.79,2.79,0,0,1,1-.31c.08.94,0,2,.16,3C52,101,51.56,102.8,50,103.64a3.58,3.58,0,0,1-2,.47c-.29,0-.59-.14-.82,0l-.21.35.14.35.82.1Zm-2.61-.59.25-.21c.12-.1.06-.31.08-.47A8.92,8.92,0,0,1,43,101.88a.49.49,0,0,1-.25-.14l-.29.1s-.06,0-.08.08c0,.57.6.84.9,1.31.55.57,1.4.66,2,1.09a.22.22,0,0,0,.12,0Zm54.46-5.44a5.69,5.69,0,0,0,2.52-.86c.9-.45,1.62-.94,2.46-1.46a22.43,22.43,0,0,0,1.95-1.21,2,2,0,0,0,.66-.55c0-.08-.06-.1-.12-.16l-1.5.1c-.1,0-.1.06-.14.12a.46.46,0,0,1-.21-.06,4.68,4.68,0,0,0-1.31.55,19.2,19.2,0,0,0-3.67,2.32l-.14.18-.74.37-.45.45a.36.36,0,0,0,0,.12l.68.08ZM98,98.18A24.72,24.72,0,0,1,102.37,95a.47.47,0,0,0,.35-.16s.06-.06.06-.12l-.45-.23s-.06-.08-.12-.14L95,90.3l-2.34-1.23c-1.56-.94-3.18-1.76-4.78-2.71-1.79-.9-3.45-1.89-5.21-2.81-.53-.33-1-.62-1.54-.9C80.07,82,79,81.52,78,80.85c-3.32-1.72-6.46-3.63-9.79-5.31-.37-.23-.84-.18-1.13-.47-1.62-.62-3.61.62-5.36,1a26.64,26.64,0,0,0-6.36,3.14,14.52,14.52,0,0,0-2.77,2.38c-.16.37-.62.55-.74.88l1.17.74a46,46,0,0,1,7.24-2.93,20.58,20.58,0,0,1,3.65-1,.33.33,0,0,1,.27-.12,19.35,19.35,0,0,1,4.17-.47,21.12,21.12,0,0,1,2.46-.23.81.81,0,0,1,.57.84,24.3,24.3,0,0,1-6.38,7c.27.27.64.27,1,.49,1.17.23,2,.82,3.18,1.07.7.35,1.4.47,2.05.78.86.2,1.46.53,2.28.8,3.2,1.11,6.44,2.28,9.75,3.45.29,0,.47.2.74.25.86.29,1.66.57,2.52.88,1.17.43,2.34.8,3.49,1.27,2.56,1,5.62,1.76,7.9,3ZM50.11,95.76l1.64-.62c.18-.18,0-.49,0-.74a7.18,7.18,0,0,0-2.65-.14l0,1,.43.33.64.14Zm-3.26-.14,1-.16c.1-.1.12-.25.25-.37l-1.7.31c-.06.06,0,.08.06.12l.41.1Zm-5-.47A15.78,15.78,0,0,0,44,94.86a6.78,6.78,0,0,0,1.52-.45,4.14,4.14,0,0,1,1.07-.23c.29-.14-.1-.49-.12-.7-.2-.25-.33-.53-.49-.76l-1.52-1.25-.33-.12c-.14.14-.37.29-.43.53a.74.74,0,0,1-.21.14l-1.52,2.3-.33.53c0,.1.14,0,.21.1a.17.17,0,0,1,0,.14l0,0Zm10.81-.51,6-3.14a.14.14,0,0,1,.08-.14L65.48,88a2.85,2.85,0,0,0-2-.37c-.92.51-1.79,1-2.67,1.48S58.87,90,58,90.41c-1.85.84-3.39,1.81-5.19,2.65a2.44,2.44,0,0,0-.21,1.58Zm51.15-.35,1.68-.66L90.63,85.42a2.48,2.48,0,0,1-1.17.8.24.24,0,0,0-.06.14L92.34,88l11.49,6.32Zm-56.06-.72.84-.6-1.11.45c0,.1.06.12.14.18l.12,0Zm3.45-.16a.36.36,0,0,0,.14-.06c0-.08-.06-.1-.12-.18s-.43-.1-.66-.1A5.6,5.6,0,0,1,50,93a.12.12,0,0,0-.08.16l1.33.21ZM46.85,92a12.29,12.29,0,0,0,3.41-1.42A7,7,0,0,0,48.3,87.9c-1.17.51-2.11,1.85-3.24,2.83L46.52,92l.29,0,0,0Zm3.88,0s.12,0,.18,0-.14,0-.25,0l.06,0Zm1.11-.14c3-1.33,5.75-3,8.7-4.29.86-.6,1.89-1,2.71-1.48.45-.25.7-.57,1.15-.78.51-.51,1-.76,1.54-1.27l-2.77,1.81c-.06,0-.12,0-.21,0-.39.27-.88.45-1.31.72-3.32,1.68-6.61,3.32-10,4.92l.14.39Zm-.7-1.66,3.53-1.87,1.46-.74c.25-.06.45-.25.76-.35,1.15-.55,2.13-1.19,3.3-1.66.18-.12.18-.21.29-.33a18.08,18.08,0,0,0,3-1.72c.51-.43,1.17-.64,1.62-1.09a11.31,11.31,0,0,0,1.17-.74,30.12,30.12,0,0,0,2.54-1.87c-1.25,0-2.77.33-4.14.37a20.7,20.7,0,0,0-3.43,1.07c-.59.25-1.27.47-1.85.74-1.74.6-3.28,1.46-4.84,2a.42.42,0,0,0-.16.16l-5.34,3,.88.94L51,90.22ZM31.31,89A14.61,14.61,0,0,0,34,88.4a14.8,14.8,0,0,0,2.13-.92c0-.1.08-.25.06-.39l-4.92,2,0,0Zm-4.43-.37,4-1.46L35,85.54l.86-.43,2.38-.94,3.41-1.64a1.67,1.67,0,0,1,.76-.39c.51-.33,1.11-.47,1.6-.84,1.93-1,3.73-1.95,5.64-3,.29-.33.68-.33.82-.62l11.29-6.89a.44.44,0,0,0,.12-.14l7.49-5L65.5,68a.23.23,0,0,0-.16.14.35.35,0,0,1-.21.06L63,69.79l-3.94,2.38s-.06.06-.08.12-.23.1-.39.14-.06.08-.1.1L51.22,77h-.14l-7,3.88-6.81,3.3a23.26,23.26,0,0,0-2.61,1.23c-1.35.57-2.83,1.09-4.21,1.62s-2.34,1.17-3.57,1.6l0,0ZM25,87.82a12,12,0,0,0,2.2-.57c1.07-.45,2-1,3-1.42l.35-.21a6.8,6.8,0,0,0,1-.45c1.91-.72,3.3-1.81,5.11-2.54.9-.53,1.79-.88,2.63-1.37,2.07-1.19,4.33-2.2,6.48-3.26a.67.67,0,0,1,.29-.18c3.22-1.83,6.53-3.61,9.66-5.66A3.54,3.54,0,0,1,54.6,70.4l.06,1.54c0,.12-.14.14-.29.21a.36.36,0,0,1-.14-.06l-.2-.21s-.08,0-.1.06.06.49-.18.66l-.1,0a.62.62,0,0,1-.37-.41c-.41,1.46-1.66,2.09-2.83,2.73-.43,0-.9.25-1.25,0l-.8-3.12.27-.43c1-.51,2.52-1.85,3.88-.92a1.48,1.48,0,0,0,.39.31c.14-.06,0-.27.12-.41.23-.33.76-.45,1.09-.7a1,1,0,0,1,.88-.27.46.46,0,0,1,.27.29,3.18,3.18,0,0,0,.62,1.66l.27.31.29.06,5.4-3.41a.58.58,0,0,0,.14-.16l3.86-2.44a.5.5,0,0,0,.18-.23l2.24-1.6.53-.27a.44.44,0,0,0,.18-.16L67.9,61.37c0-.06-.12-.08-.18-.14l-.16-.49a.35.35,0,0,1,.08-.14,2.31,2.31,0,0,1,.64-.33,38.48,38.48,0,0,0,3.84-2.5l.43,0a.22.22,0,0,1,.14,0l1,2.56c2.15-1.54,4.1-3.37,6.14-5,3.39-3,6.87-6.22,10.12-9.36.08-.12.12-.14.16-.21l2.09-2,.33-.18,1.17-1.07L97,39.07l-2.73.8-.35.23a10.85,10.85,0,0,0-1.78.64c-.74.37-1.54.6-2.13,1a5.58,5.58,0,0,0-1.11.55l-1.6.84-3.94,1.83c-3.45,1.23-6.4,3.06-9.71,4.53-.41.21-.72.39-1.15.57s-.68.33-1,.51c-1.15.45-1.95,1.09-3,1.6-.21-.06-.43-.12-.49-.35,0-.06,0-.08.06-.14l.43-.21c.08-.06,0-.16,0-.29,1.85-2.13,4.21-3.32,6.26-5a17.29,17.29,0,0,0-3,1.11,9.78,9.78,0,0,0-1.54.8.35.35,0,0,1-.21,0L59.22,54l-.82.25-.21.21-2.71,1.48c-.06.06-.06.12-.14.21h-.2a14.5,14.5,0,0,1-2,1.17c-.7.25-1.17.68-1.79.94-1.29.66-2.4,1.5-3.59,2.22A42,42,0,0,0,44,63.2c-.29.08-.43.29-.7.39-.8.7-1.58,1.25-2.34,1.83a8.57,8.57,0,0,0-1.35,1,5.74,5.74,0,0,1,2.11,1.17c0,.39-.27.7-.35,1.17A10.59,10.59,0,0,1,40.24,71c-.14.43-.39.6-.51,1a8.67,8.67,0,0,0,2.22-4,6.11,6.11,0,0,1,2.15.57A6.25,6.25,0,0,1,46.7,70.4c.12,1.31-.68,2.5-1,3.73a6.12,6.12,0,0,1-.53,1.17.93.93,0,0,1-.14.35l-.29.14-.49-.12-.18-.2-4-1.91c-.06,0-.12,0-.2,0-.25-.18-.57-.37-.62-.74a.36.36,0,0,1,0-.14s.06-.06.08-.1c-.62.41-1.19-.16-1.83-.27a3.08,3.08,0,0,0-1-.33c-.12,0-.08.18-.21.27-.82.37-1.25,1.31-2,1.79-.16.41-.51.51-.72.84-.49.41-.9,1-1.37,1.4-.53.53-.92,1.19-1.44,1.7s-1,1.17-1.5,1.74a12.25,12.25,0,0,1-.82,1.17c-.49.62-.86,1.25-1.33,1.79-1,1.66-2.34,3-2.77,5,.12.16.41.08.64.21Zm12.27-.64,1.72-.7c0-.1,0,0,0-.12s.14,0,.21.06l4.47-1.76c-.12-.29-.64-.21-.94-.35-1.95.45-3.53,1.54-5.4,2.2l-.14.68Zm-20.17-.33a11.89,11.89,0,0,0,3-.23.85.85,0,0,0,.43-.18l.14-.29a.34.34,0,0,0-.21-.31l-.55.12A9.18,9.18,0,0,1,16,85.85l-.49.45,1.6.55ZM13.34,86l.45-.1a1,1,0,0,0,.12-.39c-.92-1-2.05-1.76-3-2.87a22.66,22.66,0,0,1-2.65-4.25,13.1,13.1,0,0,1-.78-6.42,12.63,12.63,0,0,1,.45-2.56,3.7,3.7,0,0,1,1.74-2.24,6.07,6.07,0,0,1,2.69-.84l.39-.33a.56.56,0,0,0-.16-.37l-2,.25a6.74,6.74,0,0,0-.88.53,6.57,6.57,0,0,0-2.26,2.38A17.77,17.77,0,0,0,7,77a8.36,8.36,0,0,0,.64,2c.41.92,1,1.62,1.42,2.48a18.76,18.76,0,0,0,3.28,3.67l.88.8a.08.08,0,0,1,.08,0Zm75.16-.14,1.31-.7s0-.08,0-.14l-11-6.09-1.35.78,1.64.9s.08.12.14.16l1.58.86.88.53,6.79,3.69ZM45.06,84.17l2.34-.82,2.75-2.91L47.54,81.6c-.06,0-.06.06-.14.12s-.12,0-.21,0-.08.06-.14.14L46.7,82l-.16.12L44,83.41a.64.64,0,0,0,0,.14l1.15.62Zm4.27-1.46a2.63,2.63,0,0,0,1.76-1.17,22.51,22.51,0,0,1,1.76-1.72.5.5,0,0,0,.12-.21.45.45,0,0,1,.23-.21L55,78.1a23.21,23.21,0,0,0-2.5,1.58,11.8,11.8,0,0,0-1.66,1.5c-.06,0-.08.12-.2.14l-1.25,1.4Zm27-3.59,1.42-.7L70,74.07l-1.46.35h-.33c-.06,0-.12.06-.06.14l1.7.88,6.46,3.67ZM18.86,79l.35,0s.06,0,.12-.1a1.22,1.22,0,0,0,0-.47l-2,.14,1.5.47Zm1.54-.82,1.81-.51-1.11-.21c-.35-.08-.84-.31-1.17,0l.37.74a.22.22,0,0,1,.1,0Zm-7.26-.57a27.56,27.56,0,0,0,4.08-.31.61.61,0,0,0,.16-.08l-.08-.7-.51-.76c-.35-.72-1.09-1-1.6-1.52a1.15,1.15,0,0,0-.39-.23c-.64.41-.92,1.23-1.37,1.89-.1.6-.53,1-.53,1.6.06,0,.14.1.25.1ZM23.52,77c3.32-1.48,6.46-3.43,10-4.9L33,71.47l.29-1.13-6,3.06s0,.12-.1.16l-3.53,1.83v1.23l-.27.39.06,0Zm-5.27-.35,1.42-.82-1.19.45c-.12.06-.16.16-.29.29s0,.12.06.08Zm3.39-.08h.43c.2,0,.12-.23.14-.39-.35-.35-.94-.14-1.4-.21a.32.32,0,0,0-.21.25l1,.35Zm25.18-.94,1.42-.16.43-.16L48,72.68l-.31-.18-.33,0a4.61,4.61,0,0,1-.7,1.81c-.18.31-.12.6-.29.86a.54.54,0,0,0,.14.33l.29.14Zm11.51-.23a3.4,3.4,0,0,0,1-.25c1-.1,1.48-.86,2.42-1.15,1.85-1.15,4-2.07,5.91-3.16.45-.37.86-.64,1.25-.94C70.83,69,72.33,67.3,74,66c.27-.29.72-.53.86-.88l-1.11.72a20.14,20.14,0,0,1-2.48,1.87c-.21.06-.29.23-.49.18l-.33-.37-.55.25c-.1,0-.14.14-.23.23L67,69.64c-.06,0-.08.08-.14.14l-2.28,1.46c-.14,0-.21.1-.29.23l-1.56,1-.29.37c-1.35.49-2.36,1.6-3.67,2.28a1.79,1.79,0,0,1-.1.16l-.41.18,0,0ZM17.65,75.2l3.24-1.74-1-1.37-.41-.29.06-.29a.42.42,0,0,1,.29-.27c.6-.1,1,.68,1.42,1,.27.25.37.53.57.74L30,69a1.78,1.78,0,0,0,.14-.2c.35,0,.53-.27.82-.37l.92-.51c1.54-.74,2.87-1.44,4.35-2.2.49-.41,1.07-.6,1.52-1a.67.67,0,0,0,.29-.08l1.23-.82.12-.18a3.46,3.46,0,0,0,1.72-1.56,31.49,31.49,0,0,0-6,.6,27,27,0,0,0-5.4,1.48c-1,.29-1.87.7-2.77,1-4.39,1.7-7.63,5.29-10.94,8.47l.16.27,1.4,1.27Zm3.51-.12.47,0c.08,0,.08-.16.06-.27-.21-.1-.45.1-.6.25Zm26-.14.57-.1-.12-.94-.51,1Zm-2.77-.1h.08c.84-1,1-2.63,1.58-3.86a1.31,1.31,0,0,0-.82-.94,12.37,12.37,0,0,0-2-.9c-.25,0-.47-.18-.68-.14a19,19,0,0,1-2.32,3.8c1.27.76,2.77,1.33,4.17,2.05Zm-21.83-.35a14.55,14.55,0,0,0,2.83-1.4c.37-.14.57-.35.86-.45a1.14,1.14,0,0,1,.18-.14l8.35-4.43L36.11,67l-6.59,3.67L23.9,73.42c0,.06-.08.1-.14.18l-1.17.53a.85.85,0,0,0,0,.35ZM50,74.32a4,4,0,0,0,2.36-1.64c.06-.59.14-1.27-.37-1.62s-.78-.06-1.17,0c-.51.23-.88.55-1.37.72-.23.76.27,1.62.35,2.44,0,0,0,.06.12.12l.08,0Zm13.67,0,1.11-.29,3.53-.66c.45-.25.39-.88.37-1.42a1.54,1.54,0,0,1,0-.41c-1.56.49-3.1,1.83-4.74,2.61,0,.14-.16,0-.27.14l0,0ZM38.7,71.86h.14c.21-.14.27-.39.45-.62a17.37,17.37,0,0,0,1.46-2.89c0-.23.08-.25.12-.43a.51.51,0,0,0-.18,0A6.74,6.74,0,0,0,38.56,67a24.35,24.35,0,0,0-2.48,4l2.63.88Zm15.18-.2-.1-.68.1.68Zm-19.06-.47.06,0,0-.39a.26.26,0,0,1,.12-.14l1.83-3.14a9.89,9.89,0,0,0-1.33,1.29c-.49.55-.78,1.13-1.17,1.64,0,.23-.27.43-.06.64l.53.14Zm22.06-.6a3.5,3.5,0,0,0,2.32-1.4c.43-.55.18-1.23.08-1.81a2.28,2.28,0,0,0-1.52-1,3.08,3.08,0,0,0-2,2.13,2.91,2.91,0,0,0,.72,1.89l.27.16.1,0Zm0-.86,1.58-.78a.64.64,0,0,1,.23-.33c.31-.57-.12-1-.43-1.35-.08,0-.08,0-.21-.08-.62.08-1,.57-1.35,1a1.19,1.19,0,0,0,.1,1.5l.08,0Zm3.71-1.37L61.91,68l.7-.72c.33-.31.23-.82.29-1.27a1.11,1.11,0,0,0-.51-1,1.33,1.33,0,0,0-1.64,0,2.67,2.67,0,0,0-1.25,1.91c0,.51,0,1,.51,1.23.23.08.37.23.59.31Zm.08-.7a2.86,2.86,0,0,0,1.46-1.09l.06-.92a.53.53,0,0,0-.55-.25,1.89,1.89,0,0,0-1.31,1c-.1.37-.33.72-.14,1l.43.21Zm3.43-1.46a2.53,2.53,0,0,0,2-1.17,1.83,1.83,0,0,0,.35-1.52,5.57,5.57,0,0,0-.68-.82l-.55-.2-1.31.45-.55.37A1.78,1.78,0,0,0,63,65.21a7.24,7.24,0,0,0,.49.72l.51.27ZM64,65.27a1.88,1.88,0,0,0,1.48-.88,3,3,0,0,0,.25-.68c-.14-.14-.33-.41-.55-.49a2.27,2.27,0,0,0-1.54.92.89.89,0,0,0,.1,1l.21.14.06,0ZM70.65,65l3.06-2.13v-.14L70.63,65l0,0Zm4.58-.14a10.42,10.42,0,0,0,1.93-2.42,1.25,1.25,0,0,0,.57-.59c0-.06.1-.06.14-.14L76.27,63l-1.25,1,.12.27v.62l.08-.06ZM27.35,63.67A45.48,45.48,0,0,1,32.24,62a36,36,0,0,1,4-.94c.88-.16,1.68-.16,2.48-.25s1.54-.08,2.28-.08h.72a.58.58,0,0,1,.53.37,4.17,4.17,0,0,1-.76,2l3.32-2.28v-.14l-5.93-3.1a2.62,2.62,0,0,0-.72-.49c-.84-.37-1.44-.9-2.28-1.25C34.45,55,33,54.21,31.52,53.47c-2-1.11-3.94-2.13-6-3.22a29.52,29.52,0,0,0-2.77-1.54c-3.73-1.95-7.26-4.23-11.16-5.85-1-1.09-2.56-1.5-3.82-2.28L4.45,42.35l-.37.37-.55.18A5.69,5.69,0,0,0,5,44.34l5,4.35,3.47,2.93c4.41,4,9.44,7.86,13.75,12Zm42.41-.74a26.78,26.78,0,0,1,2.48-1.54,1.8,1.8,0,0,0,.7-.66l-.72-1.87a.28.28,0,0,0-.12-.06l-3.39,2.11a.45.45,0,0,0-.06.1l1,1.91Zm5.11-1.07.35-.29-.37.23,0,.06ZM45.35,60.55l1.46-1c-1.87-1.54-4.35-2.5-6.44-3.78-2.42-1.31-4.76-2.61-7.24-3.86a2.18,2.18,0,0,0-.72-.37l-1-.49-1,.86c.16.23.49.23.74.47,1.37.78,2.63,1.42,3.94,2.15,2.05,1.09,4,2.26,6,3.3,1.25.74,2.42,1.33,3.59,2a1.1,1.1,0,0,1,.29,0c.06.1.21.12.29.21a.85.85,0,0,1,.08.51l.06,0Zm32-.72s.08-.12.14-.14a.32.32,0,0,0-.2.21l.06-.06Zm.72-.6.25-.27c-.12,0-.29.29-.25.27Zm-2.63-2.09a4,4,0,0,0,3.08-1.58,1.21,1.21,0,0,0-.12-1.31A1.62,1.62,0,0,0,77,54a6.12,6.12,0,0,0-2,1.13l-.21.35c-.31.23-.21.74-.16,1.09a1.3,1.3,0,0,0,.8.55Zm.06-.62a3.87,3.87,0,0,0,2.38-1.37.86.86,0,0,0,.08-.37c0-.06,0,0,0-.08a1.77,1.77,0,0,0-1.95.51c-.16.16-.25.16-.35.29s-.49.47-.39.88a.65.65,0,0,0,.27.14Zm6.34-.72,1.25-1.13a73.54,73.54,0,0,0,6.28-5.81,3.62,3.62,0,0,1,.8-.94c-.6.47-.88.84-1.48,1.35a.92.92,0,0,0-.14.29,26.09,26.09,0,0,0-2.79,2.52c-.64.53-1.21,1.13-1.81,1.6-.66.72-1.33,1.25-2.05,1.91,0,.1-.06.12-.1.21ZM29.24,51.36l1.27-.74-2.09-1.25c-.29-.08-.57-.31-.92-.43-.68-.49-1.54-.76-2.2-1.19l-1.79-1c-1.23-.51-2.26-1.21-3.39-1.66-.43.23-.76.51-1.15.7l10.26,5.56Zm42-1.62c4.27-2.13,8.52-4.23,12.95-6.24a14.26,14.26,0,0,0,1.64-.94c1.85-.72,3.63-1.66,5.44-2.4.41-.29,1-.33,1.4-.59,1.09-.43,2.3-.68,3.28-1.19l.12-.88.37-.92c.1-.31.08-.6.21-.88.7-2.28,1.4-4.72,1.93-7,.1-.43.16-.74.23-1.11a13.59,13.59,0,0,1-3.16,1,6.6,6.6,0,0,1-3.73,0,.2.2,0,0,0-.16.14L90.1,33.12c-.33.43-.41.94-.7,1.4-.37,1.87-2,2.83-3.08,4.08l-.59.37-.57.66-4,2.91a.28.28,0,0,1,0,.18,1.65,1.65,0,0,1-.68.35L77.83,45a6.6,6.6,0,0,0-1.48.94c-1.19.8-2.22,1.83-3.41,2.5-.62.51-1.17.86-1.68,1.31Zm19.14-2,1.29-1.19-1.29,1.19Zm1.5-1.42.51-.37,2.32-2.24-1.07.78c0,.06-.12.08-.12.21L92.3,45.94c-.2,0-.29.27-.37.35Zm-73.75-1,1-.66a7.61,7.61,0,0,0-1.93-1.09,6.43,6.43,0,0,1-2.09-1.19c-1.85-.86-3.45-2-5.38-2.79l-1,.55v.18l2.85,1.42c.84.64,1.85,1.07,2.75,1.62,1.29.7,2.4,1.4,3.73,2l.06,0Zm77.07-2a.36.36,0,0,0,.14-.06.67.67,0,0,0,.23-.29c-.08,0-.1.1-.23.1s-.23.27-.14.25Zm.64-.57c.08,0,.1-.06.18-.14.35-.68,1.15-1,1.4-1.79a.51.51,0,0,1,.33-.29l.39-.53c-.16-.1-.43.41-.66.55-.53.84-1.37,1.37-1.85,2.2,0,.12.16.06.21,0ZM2.28,42.33l2.5-1.25L8.58,39c-.31-.43-1-.47-1.6-.51A9.8,9.8,0,0,0,5.13,39c-.8.31-1.42.76-2.13,1a11.66,11.66,0,0,0-1.81,1.37.73.73,0,0,0,0,.14s0,.08.08.1l.68.59.35.12Zm95-4.33,1.78-.51.27-.78a.25.25,0,0,0,0-.14,7.3,7.3,0,0,1,.51-1.46c.18-1.4.74-2.83,1-4.19.14-.7.35-1.31.51-1.93a7.42,7.42,0,0,0,.31-1.81l.08-.29,1.76-1.25.29-1-3.12,1.81c-.25,0-.41.2-.62.33A12.86,12.86,0,0,1,99.44,29a5,5,0,0,0-.23.88A17.66,17.66,0,0,0,98.7,32,19.42,19.42,0,0,0,98,35v.21l-.2.27-.49,1.66-.1.88.06,0Zm3-1.4.35-.14,2.44-9.36a.83.83,0,0,0-.59.35l-2.26,9.17.06,0Zm24.19-9.27a.46.46,0,0,0,.21-.06l2.73-2.69c0-.25-.25-.29-.45-.39-.8.27-1.25,1.17-2,1.54-.37,0-.62-.18-.92-.18-.39-.41-1.11-.43-1.56-.84-2.5-1.19-5.33-2.07-7.82-3.12-.7-.21-1.21-.49-1.87-.72-2.05-.88-4.23-1.66-6.22-2.5a21.78,21.78,0,0,1-2.13-.8,6.89,6.89,0,0,1-1.17-.55A21.14,21.14,0,0,0,99,20.35l-.72.74c.39.37,1.09.27,1.56.57,3.71.86,7.69,1.85,11.47,2.65a14.61,14.61,0,0,0,1.95.43c.47.21,1,.25,1.52.43,1.89.31,3.73,1,5.58,1.13l4.17,1ZM95,26.37l.8-.21L95.33,26l-.33-.7-.29.76c0,.16.16.23.33.29Zm29.79-1.6c.51-.06.84-.57,1.27-.9l-17.44-7.74-2.36-1a9.79,9.79,0,0,0-2.36,1.4c3.3,1.42,6.69,2.65,10,4.06,3.61,1.44,7.14,2.83,10.85,4.17Zm-25.28-.33c.06,0,.1,0,.14-.12a.29.29,0,0,0-.21.08l.06,0ZM97.61,23l1.23-.51v-.1l-.88-.1c-.08,0-.08-.1-.21-.14s-.25.1-.37.2.06.08.14.08c.06.23-.25.18-.25.41s.16.1.29.21l0,0Zm-5.13-.1A20,20,0,0,0,96,21.5c3.86-2.4,6.69-6,10.92-7.43a13.65,13.65,0,0,0,3.12-3,7.85,7.85,0,0,0-1.19.31c-1.81.57-3.76.88-5.19,1.95l-1.17.41c-.14,0-.18.1-.29.18a18.23,18.23,0,0,0-1.85,1c-1.25.76-2.42,1.7-3.59,2.5a15.84,15.84,0,0,0-2.11,2,17.39,17.39,0,0,0-2.24,3.49Zm1.89-4.23c1.11-1.31,2.69-2.2,4-3.36a27.57,27.57,0,0,0-2.69-3c-.49-.51-1.09-1.09-1.5-1.48a30.89,30.89,0,0,0-2.28-2.38l-.23-.31L87.47,3.67c-.29-.37-1-.78-1-1.35l.68-.78c0-.18-.37-.1-.51-.18s0-.12,0-.21a.5.5,0,0,0-.12-.23c-.25,0-.41.16-.55.37L84,3,83,4.25a4.09,4.09,0,0,0,1.13,1.6L85.15,7.3l.55.82,4.12,5.25.59.62c0,.06.1.08.12.21s.08.08.14.14.1.08.1.2l2.46,3c0,.08.08.12.1.23.33.23.51.82,1,.94ZM99,14.88h.08l.74-.47c.06,0,.08-.12.14-.18l2.71-1.5A73.8,73.8,0,0,0,96.15,8,3.22,3.22,0,0,0,94.9,7L90.43,3.71A14.43,14.43,0,0,0,87.86,2c-.25,0-.43.29-.62.49A25.59,25.59,0,0,0,89.38,4.8c2.93,3.26,6.28,6.57,9.6,10.07Z"/></g></g></svg>