<svg xmlns="http://www.w3.org/2000/svg" viewBox="0 0 140.22 65.75"><defs><style>.cls-1{fill:#231f20;fill-rule:evenodd;}</style></defs><title>K-AIR350</title><g id="Layer_2" data-name="Layer 2"><g id="Layer_1-2" data-name="Layer 1"><path class="cls-1" d="M69.74,65.71a4.49,4.49,0,0,0-1.14,0h-.05l-1.64-.53-.2,0-.18,0,0,0-.42-.32a.4.4,0,0,0-.14,0,.43.43,0,0,1-.22,0l0,0v0l-.3-1v-.07l.1-.31-1.32-.66-.05-.06,0-.05h0a1.19,1.19,0,0,1-.09-.45v0a7.67,7.67,0,0,1,1.26-2.25A6,6,0,0,1,67,58.41l.2-.49a.71.71,0,0,1-.06-.3v0a1,1,0,0,1,.2-.26h0c.1-.1.19-.21.18-.32a3.28,3.28,0,0,0-1.56-.4,12.09,12.09,0,0,0-1.79.11,7.13,7.13,0,0,1-1.46.3,6.66,6.66,0,0,0-1.29.26l0,0,0,0a.77.77,0,0,0-.2-.06l-.09,0a12,12,0,0,0-2.87,1.36l-.67.39h0a12.38,12.38,0,0,0-1.55.63,10.54,10.54,0,0,1-1.91.73c-1.66.61-3.31,1.07-5.06,1.55l-.78.22h0a4,4,0,0,0-1.34.28,4,4,0,0,1-1.73.29l-1.8.08a49.73,49.73,0,0,1-6.18.05h0a4,4,0,0,0-1.66-.23,2.81,2.81,0,0,1-2.16-.59.75.75,0,0,1-.23-.28h0l0,0v0a2.61,2.61,0,0,1,.07-1.7h0a8.07,8.07,0,0,1,.77-1.55h0a34.71,34.71,0,0,1,2.85-4.49c.73-1,1.46-2.05,2.12-3.15h0l.61-.77,0,0a.69.69,0,0,0-.53.19,1.47,1.47,0,0,1-.37.22h0a4.84,4.84,0,0,0-.59.19h0l-.39.14-2.07.87c-1.44.61-2.84,1.21-4.53,1.83h0a5.83,5.83,0,0,0-1.65.51,4.2,4.2,0,0,1-2.31.49l0,0-.75-.45a4.76,4.76,0,0,1-1.53-.45h0a7.7,7.7,0,0,1-1.23-.77l0,0L23,51.83l0,0,0,0,.18-.37-2-.92,0,0L21,50.29a.86.86,0,0,1-.23-.37h0a1.78,1.78,0,0,1,.56-1.74h0c.1-.13.2-.26.29-.39h0a3.66,3.66,0,0,1,.8-.81,3.58,3.58,0,0,1,.95-.49.21.21,0,0,0,0-.14.54.54,0,0,1,0-.1l0-.06a2.69,2.69,0,0,1,.82-.69,5.84,5.84,0,0,0,.57-.4h0A21.74,21.74,0,0,1,28,43.17c1.13-.57,2.32-1.08,3.5-1.58a.22.22,0,0,0,0-.1,1.32,1.32,0,0,0-.48-.22l-.25-.08h0c-5.32-2.66-11-4.91-16.63-7.15C9.48,32.17,4.82,30.31.39,28.24l-.05-.05L0,27.49v-.07l.61-2.59h0l-.09,0-.09-.2.33-.18.59-2.06,0,0,0,0a.08.08,0,0,0,0,0v0l-.08,0,0-.09a7.75,7.75,0,0,1,.34-.79,5.27,5.27,0,0,0,.39-1v0l0-.09c.23-.4.44-.77.88-.77H3a1.09,1.09,0,0,0,.4.09.61.61,0,0,0,.31-.09l.06,0,.05,0a1.14,1.14,0,0,1,.38.39h0a1,1,0,0,1,.14.5v0l-.69,3.43a5.05,5.05,0,0,0,.68,1,1.84,1.84,0,0,0,1,.56l.07,0a3.55,3.55,0,0,0,1.87,1l.34.12,1,.31a30.81,30.81,0,0,1,3.23,1.09l2.25.7c1.7.52,3.38,1,5,1.7h0c.85.34,1.75.65,2.67.95s1.82.55,2.75.78h0a2.27,2.27,0,0,0,.65.2,2.39,2.39,0,0,1,.83.29,14.25,14.25,0,0,1,3.35,1,20.76,20.76,0,0,0,2.54.87h0a1.75,1.75,0,0,0,.52.17,2.54,2.54,0,0,1,.67.22,13.27,13.27,0,0,0,1.94.54c.5.11,1,.23,1.51.39h0l12.55,4.35.32-.2h0l.74-.47h0c7-3.38,15-5.85,22.95-8.28l3.41-1a2.69,2.69,0,0,0,.62-1.46,3.36,3.36,0,0,1,.34-1l0,0,1.43-.7,0,0,0,0,.18.09h0a.16.16,0,0,1,.08.14v0L79.13,29l.52.19,3-.79h0l.21-.06a1.89,1.89,0,0,1,.55-.11c1.94-1.11,3.8-2.26,5.63-3.45s3.63-2.44,5.45-3.75l2.25-5.57v0a.66.66,0,0,1,.17-.33c.32-.84.72-1.67,1.12-2.49A15.87,15.87,0,0,0,99.5,8.94a.71.71,0,0,0-.25-.12l0,0a1.07,1.07,0,0,1-.38-.66h0a1.85,1.85,0,0,1,0-.71l0,0,.61-.77,0-.05,0-.06L85,1.35l-.06,0V1.26L84.9.83V.75l.07,0a.36.36,0,0,0,.18-.18l0,0h.05c4-1.19,8.48.08,13,1.35A41.75,41.75,0,0,0,106.6,3.6L109.15,3h0l0,0a1.56,1.56,0,0,1,.2.16c.35.14.36.51.36.85a1.72,1.72,0,0,0,0,.35c2.74.6,5.55,1,8.34,1.3a75.05,75.05,0,0,1,9.76,1.65h.4l0,0a1.65,1.65,0,0,0,1.12.28,1.76,1.76,0,0,1,1.42.46l.07.08-.08.07a5.6,5.6,0,0,1-1.28.8c-.47.22-1,.41-1.52.62h0c-4.06-.1-8.22-.57-12.36-1-2.73-.31-5.45-.62-8.13-.82-.87,2.66-1.77,5.41-2.6,8.19s-1.62,5.66-2.27,8.48c0,.25-.07.54-.08.86a7,7,0,0,0,0,1v0c-.56,2.78-2.66,4.32-4.79,5.87a16.46,16.46,0,0,0-3.6,3.21l0,0a3,3,0,0,0-.92.77,6.71,6.71,0,0,1-.62.61c-1.08,1.14-2.19,2.4-3.33,3.69-.8.91-1.61,1.83-2.46,2.77h0a24.65,24.65,0,0,1-1.8,1.73,15.69,15.69,0,0,1-1.84,1.38,13.48,13.48,0,0,1-2.5,1.82,11.58,11.58,0,0,0-2.45,1.83.56.56,0,0,0,.19.29h0L90.56,52h0l11,1.63h0c4.12.39,8.3,1,12.45,1.58l2.48.35c1.27.14,2.54.4,3.81.66a35,35,0,0,0,5,.77h0c1.06.12,2.15.33,3.23.53.75.14,1.5.29,2.23.4h2.58a1.3,1.3,0,0,0,.64-.44,4.42,4.42,0,0,0,.48-.71h0l1.3-1.9,0,0a1,1,0,0,0,.37-.36h0l0,0a.17.17,0,0,0,0-.09.11.11,0,0,0-.09,0v-.22h.13l.15-.13c.25-.21.48-.4.48-.73l0-.05.67-1.13,0-.06h.07a2.47,2.47,0,0,0,1.52-.47h0a5.4,5.4,0,0,1,.56-.29h.08a.87.87,0,0,1,.24.13h0a.33.33,0,0,1,.13.27v.06l0,0a.39.39,0,0,0-.09.09l-.06.07-2.25,4.66L136,60.92l0,0,0,0-.14.06h0a1.8,1.8,0,0,0-.43.23l0,0a4.62,4.62,0,0,0-1.26.51,4.47,4.47,0,0,1-1.76.62h0a3.43,3.43,0,0,0-.87,0,2.49,2.49,0,0,1-1.51-.27l-.4,0c-4.15-.39-8.25-.77-12.51-1h0a31.37,31.37,0,0,0-4-.57c-1.35-.12-2.7-.18-4-.23h0c-3.1-.28-6.16-.62-9.21-1-3.85-.43-7.69-.86-11.55-1.16l-.31.24a14.7,14.7,0,0,1-4.59,2.69l-.25.1a49.59,49.59,0,0,0-5.71,2.59h0a3.44,3.44,0,0,0-1.28.54h0l-.14.08h0l-.82.26a17.6,17.6,0,0,1-4.58,1c-.25,0-.5,0-.74,0ZM7.67,26.54h0Zm63.8,38.35,2.88-.81h0a.92.92,0,0,1,.23,0l2.78-1.17c2.5-1,5-2.08,7.38-3.24l.25-.14a7.14,7.14,0,0,0,1.87-1.29H84.74s0,.13,0,.23a.92.92,0,0,1,0,.24l0,.06a4.82,4.82,0,0,1-1.8,1,7.19,7.19,0,0,0-1.35.61h0a7.25,7.25,0,0,1-1.19.47,5,5,0,0,0-1.3.56h0a35.22,35.22,0,0,0-5.34,2.29l-.82.41a.33.33,0,0,1-.19.26l-.09,0,0-.07,0,0a.31.31,0,0,1-.19.12l-.46.09-.16.11h0a.66.66,0,0,0-.2.17Zm-5.79-2.25a6.81,6.81,0,0,0,1.22,0,3.25,3.25,0,0,0,1.15-.38h0L69.76,62l.13-.37-.35-1.27-1.48.83H68l-.16,0h0l0,0-.42.88a.17.17,0,0,1-.08.14.34.34,0,0,1-.19,0,.27.27,0,0,1-.3-.17h0l-.14-.34-.49.38-.07,0a.71.71,0,0,0-.29,0l0,0h0l-.08.09,0,0-.24.15.07,0a.43.43,0,0,0,.18,0Zm4.78,0,1-.26-.87.11h0a.14.14,0,0,0-.1,0,.23.23,0,0,0-.05.11ZM72,62.32a13.43,13.43,0,0,0,5.89-1.72c.48-.22,1-.45,1.42-.65s1-.54,1.54-.79,1.17-.57,1.72-.89a26,26,0,0,0-2.57,1.22c-.67.35-1.33.69-2,1a7.41,7.41,0,0,1-1.52.64c-.33.11-.67.22-1,.37h0a6.67,6.67,0,0,0-.87.21,5,5,0,0,1-1,.22l-.2.2-.06,0L72,62.32Zm-34,0h1a36.09,36.09,0,0,0,8.37-.72h0c.43-.07.9-.18,1.35-.28l1-.22h0A3.51,3.51,0,0,0,51,60.73a3.69,3.69,0,0,1,1.19-.36,35.11,35.11,0,0,0,5.13-2.05l1.23-.57a8.63,8.63,0,0,1,1.79-1.05,6.22,6.22,0,0,0,2.11-1.39h0a21.37,21.37,0,0,1,2.63-2.07A21,21,0,0,1,68,51.62,16,16,0,0,1,71,50.42c1.06-.31,2.13-.54,3.11-.74h0a3.69,3.69,0,0,1,.79,0,5.87,5.87,0,0,1,.72.11l.5-.19h.07c1,.37,1.76-.21,2.52-.8a5.36,5.36,0,0,1,1.39-.87,23.25,23.25,0,0,0,2-1.42,22.2,22.2,0,0,1,2-1.43,12.39,12.39,0,0,1,1.29-1.3,9.88,9.88,0,0,0,1.59-1.68l0,0a6.25,6.25,0,0,0,1.07-1.14A5.49,5.49,0,0,1,89.2,39.8a43.86,43.86,0,0,1,3.16-3.49l.91-.94,0,0a2.35,2.35,0,0,0,.67-.61h0a2.14,2.14,0,0,1,.54-.51,7,7,0,0,1,1.23-1.3c-.54.39-1.09.78-1.65,1.13a15.5,15.5,0,0,1-2.25,1.64c-.44.28-.89.57-1.32.89h0c-.81.53-1.62,1-2.42,1.47s-1.74,1-2.61,1.6h0c-.66.38-1.26.75-1.85,1.11a46.74,46.74,0,0,1-4.15,2.33s0,0,0,0h0a.42.42,0,0,1-.23.24c-2.86,1.45-5.72,3-8.6,4.52-3.29,1.76-6.6,3.54-10,5.21h0l-.58.26a3.4,3.4,0,0,0-1.42.91l0,0-5.93,2.6h0a9.92,9.92,0,0,0-1.32.46A6.85,6.85,0,0,0,50.2,58h0c-1.92.65-3.87,1.31-5.85,1.93s-4,1.2-6.06,1.71h0A3.94,3.94,0,0,0,37,62h0l1.11.31Zm58.42-30,.74-.47h0A9,9,0,0,0,99.72,30c-.87.56-1.73,1.22-2.61,1.88l-.6.46ZM70.82,61.67l1.91-.36a1.79,1.79,0,0,1-.28-.78,1.64,1.64,0,0,1,.2-.93h0a2,2,0,0,1,1.08-.83,3.53,3.53,0,0,1,1.35-.12,2.57,2.57,0,0,0,1.7-.72,2.5,2.5,0,0,1,1.87-.72h.06l0,.06.59,1.3c1.81-.87,3.52-1.79,5.2-2.81s3.25-2.06,4.9-3.25l-6.87-.95a.8.8,0,0,1-.15.3.78.78,0,0,1-.36.24,13.74,13.74,0,0,1-2.82.78c-.52.11-1.05.21-1.59.36h0a41,41,0,0,0-5.09,1.62,13,13,0,0,0-4.2,2.63.68.68,0,0,1-.08.17h0a.46.46,0,0,0-.07.19l1.76,1.46,0,0c.08.17.17.33.26.49a3.68,3.68,0,0,1,.59,1.81Zm61.78,0,.41-.16A5,5,0,0,0,135.49,60a3.65,3.65,0,0,1,.26-.48,1.41,1.41,0,0,0,.29-.8v0l2.45-5.81a.52.52,0,0,0-.26,0h0a.76.76,0,0,0-.33.28c-.12.23-.23.45-.34.65a5.66,5.66,0,0,1-.36.57l-.09.41v.06l-.06,0a.29.29,0,0,0-.1.07h0l-.11.09h0c-.05,0-.09.14-.14.27h0c0,.07,0,.14-.08.21l0,0-.12.08h0l-.08.05L132.49,61a.92.92,0,0,1-.08.31h0a1.46,1.46,0,0,1-.17.29.77.77,0,0,0,.27.07Zm-96.77-.59h.84c.86-.17,1.69-.39,2.51-.6s1.78-.46,2.68-.63C45.49,58.77,49,57.39,52.37,56l2.56-1a1.17,1.17,0,0,1,.2-.29l0,0a11,11,0,0,0,2.22-1.11,13.18,13.18,0,0,1,2.07-1.08c1.43-.83,2.85-1.65,4.29-2.44s2.66-1.44,4-2.11a53.79,53.79,0,0,0-6.57,3.29A53.68,53.68,0,0,1,54,54.78a12.84,12.84,0,0,0-1.65.85,12.36,12.36,0,0,1-1.51.78h0a2.63,2.63,0,0,0-1.18.34,5,5,0,0,1-.58.25h0a12.4,12.4,0,0,0-3.39,1.13,13.62,13.62,0,0,1-3.46,1.17,56.63,56.63,0,0,1-5.9,1.77H36l-.12,0ZM67.88,47.91l.18-.09h0a15.33,15.33,0,0,0,3.79-1.71h0A23.16,23.16,0,0,0,76,44c.89-.53,1.78-1.07,2.75-1.54h0c2.16-1.12,4.16-2.41,6.12-3.68,1.6-1,3.19-2.07,4.83-3l.2-.16-.95.51-3.07,1.7h0c-.05,0-.08.06-.13.13h0l0,.06,0,0-4.86,3a.29.29,0,0,1-.18,0l-.14,0L78.84,42a3.4,3.4,0,0,1-1,.5,3.16,3.16,0,0,0-1.45.84l0,0c-1.53.72-3,1.42-4.38,2.16s-2.73,1.5-4.06,2.37Zm6,13,.44-.15-.21,0h0l-.62-.16.43.27Zm-.52-.33,0,0h0l-.11-.09v0l.13.08Zm1-1.05.2,0h-.2Zm-8.77,1.2a1.35,1.35,0,0,1,.67-.43A2,2,0,0,0,66.7,60l.33-.33,0,0a2,2,0,0,1,.43-.05.89.89,0,0,0,.6-.16l.09-.4c0-.08-.13-.12-.27-.18h0l-.05,0a4.43,4.43,0,0,0-2.29,1.78v0ZM130,60.51a2.6,2.6,0,0,0,1.08-.05,3.13,3.13,0,0,0,1-.48,2,2,0,0,1,.22-.3,1.13,1.13,0,0,0,.37-.83l-1.92-.22h0c-.24-.07-.51-.12-.79-.17h0a9.54,9.54,0,0,1-1.21-.29c-6.39-1-12.75-2-19.14-3s-12.71-1.74-19.08-2.39c-.53.4-1.1.76-1.64,1.1s-.79.5-1.13.74h0a7.59,7.59,0,0,0-1.69.78,3.62,3.62,0,0,0-1.15,1.19l-.05.16h0a.81.81,0,0,0-.05.55c.12.16.33.14.57.12a1.46,1.46,0,0,1,.63,0,2.5,2.5,0,0,1,1.21-.09,2.7,2.7,0,0,0,.8,0h0a1.8,1.8,0,0,1,.56.12,1.87,1.87,0,0,1,.37.21l2.77.06.12-.77v0a1.3,1.3,0,0,1,.4-.53h0a1.09,1.09,0,0,1,.59-.23h0c3.66.23,7.27.62,10.88,1,2.21.24,4.42.48,6.62.68h0c1.87.24,3.75.45,5.6.65,1.51.17,3,.34,4.47.51h0a3.73,3.73,0,0,0,1.2.17,2.61,2.61,0,0,1,1.3.26l7,1Zm-94.77-.57a10.42,10.42,0,0,0,2.23-.29c.77-.17,1.55-.41,2.31-.64.5-.2,1-.36,1.58-.53a13.11,13.11,0,0,0,2.63-1h.05a.85.85,0,0,1,.37.06l2.42-.94a98.53,98.53,0,0,0,9.86-4.23h0c.91-.51,1.82-.95,2.72-1.38a30.71,30.71,0,0,0,3.47-1.85h0a7.26,7.26,0,0,0,.73-.37h0a4.13,4.13,0,0,1,1-.46,27.88,27.88,0,0,1,2.62-1.37,21.79,21.79,0,0,0,2.86-1.55h0l2-1c2-1,4-2,5.85-3.21h0l1.22-.7,1.15-.67.05,0a.77.77,0,0,1,.33.05l7.34-4.17.1-.11h0l.13-.14h0l.74-.59L89,34.68a.84.84,0,0,1-.37-.51v0l0-1.8,0-.07c.17-.21.56-.21.82-.21h0c.6.26.55.95.51,1.64h0c0,.09,0,.18,0,.26v0l0,.11,5.74-3.9.07-.09h0A.66.66,0,0,1,96,30h0a14.93,14.93,0,0,0,3.21-2.72l.88-.88,0-.08h0l.06-.17,0-.07-2.8.35-1.09.2h0a61.33,61.33,0,0,0-8.38,1.76,57.16,57.16,0,0,1-8.85,1.8l-.31,1-.05.06-2,1.1h-.07a.46.46,0,0,1-.25-.13h0a1.13,1.13,0,0,1-.16-.22v-.07l.17-1a29.28,29.28,0,0,0-3.6,1c-1,.34-2.09.68-3.14.92-1.56.51-3,1-4.52,1.51-1.72.59-3.42,1.17-5.18,1.72s-3.23,1.19-4.73,1.83S52.28,39.26,50.8,40l0,0h0a1.67,1.67,0,0,1-.73.41l-.07.06a.25.25,0,0,0-.11.13v0l0,0-1.88.91,1.86.52.05,0h0a2.27,2.27,0,0,0,.48.48l.05,0v.06l-.1.67v0l-.11.26.4-.37.23-.39.05,0,.47-.2h.07l5.47,1.73.06,0v.06l.13.57v.05a1.3,1.3,0,0,1-.06.16h0l0,.09H57l.07-.06a.22.22,0,0,1,.19-.1c.17,0,.34,0,.4.17h0l.22.68h0l.16-1.46v-.06l0,0,.87-.47.06,0,.05,0,.22.13h0l0,.05A10.69,10.69,0,0,1,60,46a4,4,0,0,1,.12,1.83l0,.05A.45.45,0,0,1,60,48h0a1.27,1.27,0,0,0-.22.12l0,0h0a.85.85,0,0,1-.54.18.76.76,0,0,1-.53-.19h0l0,0,0,0L58,46.46l-.29,1.94v.06l-.06,0-2,.7,0-.09h0v.1h-.19l0-.13.16-.93-1.05.8,0,0-.05,0-5.77-1.9-.11,0,0-.11,1.06-2.38a5.24,5.24,0,0,0-.56,1A3.72,3.72,0,0,1,48,47.1l0,0h0l-4.36-1.06a5.45,5.45,0,0,0-1.32,1.18,4.54,4.54,0,0,0-.8,1.5l0,.05a13.09,13.09,0,0,0-2.69,3.26,22.2,22.2,0,0,1-1.52,2.12l-.45.63a19.49,19.49,0,0,0-2.22,3.59l.13,1.35h0l0-.09.1,0,.44.22Zm42.59-.63.5-.19.14-.14a.62.62,0,0,0,0-.26.94.94,0,0,1-.24.15h0a.88.88,0,0,0-.23.14l-.07.1h0l-.13.19Zm.53-1.19,0-.06-.05,0,.08,0Zm-15.7-1.86,3.68-.42L67.14,54l0-.06h.06l.63-.07h.05A2.93,2.93,0,0,0,69,54a2.87,2.87,0,0,1,1.62.32,6.42,6.42,0,0,0,2.94-.67,8.5,8.5,0,0,1,2.67-.73A32.49,32.49,0,0,1,79.68,52l.84-.19h0l.38-.1h0a2.24,2.24,0,0,0,.67-.23,8.71,8.71,0,0,0-2.67-.38,10,10,0,0,1-2.51-.31,20.74,20.74,0,0,0-5.32.5,14,14,0,0,0-4.34,1.78h0a6.41,6.41,0,0,0-1.2.91,5,5,0,0,1-1.16.86l-.2.13h0a5.46,5.46,0,0,0-1.47,1.25ZM27.84,53.57A6.42,6.42,0,0,0,29.73,53a6.86,6.86,0,0,1,2-.58A27.55,27.55,0,0,1,35.26,51c2.14-.8,4.24-1.58,5.58-3.16a.84.84,0,0,1,.07-.28l-.46.15c-.56.19-1.19.4-1.8.57A17.67,17.67,0,0,1,35,49.61,16,16,0,0,0,31.26,51h0a5.78,5.78,0,0,0-1.32.47,4.57,4.57,0,0,1-1.8.53l0,0a.59.59,0,0,1,.09.21v0l0,.47,0,.06-.51.63,0,0h0l.12.05h0Zm-2.39-2.81.5-.38h0l-1.72.14,1.22.24Zm.6-.45.27-.2.09-.37-.36.57Zm2.27.55.89-.12.21-.32,0,0h0l1-.21a5.18,5.18,0,0,0-2.45.3l-.59.16.82.24Zm-5.52-.6h0l0,0,0-.06a.38.38,0,0,1,.1-.22h0l0-.07.06,0L25.73,49l.1-.16h0l.11-.17,0-.05H26s0,0,0,0h0a.82.82,0,0,1,.2-.08.85.85,0,0,0-.14-.48l-1.7.41a1.71,1.71,0,0,0-.39.3h0a1.35,1.35,0,0,1-.78.45h0l0,0h0a1.41,1.41,0,0,1-.24-.08l-1.09.78,1,.41Zm4.49-.5,2.25-.5a2.51,2.51,0,0,1-.11-.81,1.54,1.54,0,0,1,.22-.77h0a3.3,3.3,0,0,1,.67-.82,1.62,1.62,0,0,1,1-.4h0a1.49,1.49,0,0,1,.58.13,1.43,1.43,0,0,0,.34.1l3.44-1.32h.06c.44.09.52.48.61.89a1.78,1.78,0,0,0,.21.62l2.68-1a.5.5,0,0,0,.11-.14l.09-.13,0,0a8.61,8.61,0,0,1,2-.86,12.08,12.08,0,0,0,1.62-.64h0a.68.68,0,0,1,.27,0h0a.21.21,0,0,0,.14,0h0l.47-.17h0a.71.71,0,0,1,.19,0,5.36,5.36,0,0,0,1.58-1.5,4.7,4.7,0,0,1,2.28-1.84,10,10,0,0,0-2.11-.7,7.45,7.45,0,0,0-2.26-.13h0a36.72,36.72,0,0,0-5.44.37,14.21,14.21,0,0,0-5.07,1.71h0a15.12,15.12,0,0,0-3.71,1.51c-.51.26-1,.52-1.52.75a14,14,0,0,1-1.39.75,6.73,6.73,0,0,0-2,1.29,5.28,5.28,0,0,1,1.53.7,2.7,2.7,0,0,1,1.08,1.46h0a3.71,3.71,0,0,1,.14,1.27v.13l0,0Zm3.78-.36a1.23,1.23,0,0,0,.33-.14h0l.14-.1-.2,0a1.39,1.39,0,0,0-.64,0h0l0,0h0a.77.77,0,0,1-.23-.18V49l.71.42Zm1.65-.7.23-.08h-.07a.27.27,0,0,0-.16.08Zm1.74-.64.59-.22-.1,0a.57.57,0,0,0-.33.09h0l-.15.13ZM22,48.42l2.35-1,.42-.27a2.14,2.14,0,0,0-.63-.06,3.16,3.16,0,0,0-1.34.38l-.8,1Zm9.59-.16,1.9-.82h0l.42,0a.46.46,0,0,0,.16-.16h0a1.67,1.67,0,0,1,.15-.18l0,0a5.35,5.35,0,0,1,.56-.15,5,5,0,0,1,.55-.09.17.17,0,0,0,.07-.05h0a.29.29,0,0,0,.06-.16.63.63,0,0,0,0-.22.53.53,0,0,0-.08-.17,6.51,6.51,0,0,0-1.39.58h0a4.06,4.06,0,0,1-2.63.65,1.21,1.21,0,0,1-.41.08H30.9l-.32.43a.42.42,0,0,0,0,.07l1,.24Zm4.49-.07,5.38-2h0a.36.36,0,0,1,.17.05l.12,0,.35-.38-5.84,2-.21.23Zm29.35-2.77a1.61,1.61,0,0,1-.84.3h-.1l-.06,0a.48.48,0,0,1-.14-.13h0a.63.63,0,0,1-.07-.15h0a5.88,5.88,0,0,1-.43-1.85,4.24,4.24,0,0,1,.23-1.69l0,0a1.09,1.09,0,0,1,.48-.36.9.9,0,0,1,.57,0l.05,0,0,.05a.26.26,0,0,0,.06.08h0a1,1,0,0,1,.17.24h0a9.22,9.22,0,0,1,.5,1.71,2.36,2.36,0,0,1-.28,1.72l0,0-.15.09Zm3.07-1.36a1.28,1.28,0,0,1-.42.23c0,.11,0,.16-.11.18a.21.21,0,0,1-.18-.1l-.06-.09-.3-.21a1.41,1.41,0,0,1-.68-.78v0a8.24,8.24,0,0,1,0-1.64,2.15,2.15,0,0,1,.64-1.41l.05,0,.53-.1h.06l0,.05a3.55,3.55,0,0,1,.65,1.42,6.85,6.85,0,0,1,.14,1.92v0a1,1,0,0,1-.33.59ZM71,43.46h-.37a1.43,1.43,0,0,1-.4-.23h0a2.1,2.1,0,0,1-.35-.37l0,0a6.12,6.12,0,0,1-.27-2,2.68,2.68,0,0,1,.52-1.49l0,0h.05l.93,0h.05l0,0,.53.63,0,.07a.61.61,0,0,0,0,.17.94.94,0,0,1,0,.26,6.25,6.25,0,0,1,0,1.71,1.87,1.87,0,0,1-.8,1.36l-.06,0Zm3.12-1.26a1,1,0,0,1-.58.23h0a.71.71,0,0,1-.4-.19h0a2.11,2.11,0,0,1-.31-.39l0,0-.06-.28c-.23-1.1-.5-2.35.18-3.21l0,0a1,1,0,0,1,.58,0,1.49,1.49,0,0,1,.6.29l0,0a4.7,4.7,0,0,1,.39,2.56c0,.19,0,.37,0,.56l0,.06a2.1,2.1,0,0,1-.4.45ZM33.1,40.64c.4-.1.79-.18,1.19-.26s1-.19,1.49-.34h0a29.64,29.64,0,0,1,4.83-.82l.19,0a4.05,4.05,0,0,1,1.12-.08A2.81,2.81,0,0,0,43.12,39,9.1,9.1,0,0,0,41,38.24a8.36,8.36,0,0,1-2.53-.93c-4.73-1.2-9.44-2.87-14.12-4.53C16.85,30.14,9.42,27.5,2,26.82a2.78,2.78,0,0,1-.3.17,2,2,0,0,0-.29.17v.05A15.23,15.23,0,0,1,5.2,28.54a23.22,23.22,0,0,0,2.67,1.07h0c3.39,1.46,6.85,2.8,10.31,4.14,5.11,2,10.21,4,15,6.26l.06,0v.07a.91.91,0,0,1-.07.31h0a.68.68,0,0,0,0,.22Zm43.31,0h-.59c-.17,0-.21-.14-.3-.32l0-.07h0a5.89,5.89,0,0,1-.4-1.61,2,2,0,0,1,.49-1.53l0,0,.05,0c.24-.12.64-.33.85,0v0l.17.38a2.78,2.78,0,0,1,.41,1.94,1.39,1.39,0,0,1,0,.33v.05A1.67,1.67,0,0,0,77,40c-.1.3-.2.61-.58.64Zm3-1.21-.53.23,0-.1v.11h-.1l-.06,0a1.94,1.94,0,0,1-.68-.8l-.15-.26h0a3.22,3.22,0,0,1-.26-1.27,1.92,1.92,0,0,1,.27-1.07l0,0,.11-.07a1,1,0,0,1,.88-.21l0,0,.7.93,0,0c0,.12,0,.24.07.37.14.76.29,1.57-.27,2.09l0,0Zm2.61-1.06a1,1,0,0,1-.82.27h0a.77.77,0,0,1-.43-.21.4.4,0,0,0-.14-.09l-.06,0a.91.91,0,0,1-.21-.36h0l0,0h0a4.56,4.56,0,0,1-.24-1.67A2,2,0,0,1,80.6,35l.06,0,.63-.13h.08a2.31,2.31,0,0,1,.26.18h0l.08.06,0,0a5.83,5.83,0,0,1,.54,1.54,2.73,2.73,0,0,1-.2,1.65l0,0Zm9.89-4.23h0l0,0Zm.85-.59a32.31,32.31,0,0,0,4.74-3,20.46,20.46,0,0,0,3.74-3.68c0-.1.06-.19.09-.27a.92.92,0,0,0,.09-.49c-.08,0-.15.11-.22.22a1.6,1.6,0,0,1-.12.17v.22a3.22,3.22,0,0,1-1.36,1.51,3.62,3.62,0,0,0-1.21,1.2l0,0a16.94,16.94,0,0,1-2.47,1.85c-.59.39-1.19.78-1.81,1.26h0l-.12,0a.3.3,0,0,0-.12,0h0l0,0h0l-.07.06v.06l0,0-1,.72ZM77.37,31l.64-.39.06-.07h0l0,0,.54-2.68a.79.79,0,0,0-.29.16l-.09.06-.9,3Zm8.44-3.22,3.67-.76,2.5-.77h0l6.82-1a7.5,7.5,0,0,0,.84-1.73,9.56,9.56,0,0,1,.65-1.45l.53-1.64c.91-2.81,1.75-5.4,2.87-8.06.24-.69.51-1.36.79-2a26.39,26.39,0,0,0,.94-2.53h0a.69.69,0,0,0,0-.16l-.06-.08a6.26,6.26,0,0,0-.89-.22,2.66,2.66,0,0,1-1.69-.77l0-.07a.34.34,0,0,0,0-.08h0a.43.43,0,0,1,0-.16l0-.06.05-.07h0a1.14,1.14,0,0,1,.46-.43h.06c.78.12,1.54.18,2.31.25s1.53.13,2.32.25c3,.43,5.93.81,8.88,1.14s5.89.63,8.85.89h0a1.5,1.5,0,0,0,.59,0h0a1.41,1.41,0,0,1,.49,0c.29,0,.41.24.55.46a1.93,1.93,0,0,0,.17.26l1.5-.48A4.33,4.33,0,0,0,128,8l-.34-.13h0a7.14,7.14,0,0,0-1.36-.46,11.5,11.5,0,0,0-1.44-.24h0a13.52,13.52,0,0,0-3-.48,20.57,20.57,0,0,1-2.14-.25.47.47,0,0,0-.2.06h0a.48.48,0,0,1-.39.06l0,0,0,0h0s0-.05-.15-.09c-.68-.07-1.38-.19-2.07-.31s-1.35-.23-2-.29h0a7.45,7.45,0,0,0-1-.23,6.21,6.21,0,0,1-.86-.2,15.91,15.91,0,0,1-1.59-.15,9.38,9.38,0,0,0-2.18-.12h0a.5.5,0,0,1-.51-.39l0-.08.47-.72L109,3.64l-3,.81h-.06c-1.69-.55-3.47-1.06-5.28-1.51s-3.44-.8-5.14-1.09a25.25,25.25,0,0,1-3.3-.71A13.48,13.48,0,0,0,86.78.47a29.59,29.59,0,0,0,6.28,2.35,46.91,46.91,0,0,1,4.69,1.56l3.06.83h.05l0,.05,0,.05a.56.56,0,0,1,0,.5h0l-1,1.43,0,0-.11.07h0a.77.77,0,0,0-.41.46c0,.2.2.38.41.55.07,0,.13-.06.2-.12a.52.52,0,0,1,.43-.19l.06,0,0,0h0a.43.43,0,0,1,.17.35v0a5.83,5.83,0,0,1-.63,1.72,8.68,8.68,0,0,0-.48,1.1h0L99,12.64a41.65,41.65,0,0,0-3.37,8.86l0,.09h-.09l0,0h0a.34.34,0,0,0,0,.12h0a.34.34,0,0,0,0,.08l0,.08-.07,0-9.58,5.89ZM1.4,25.91l2-.78A5.33,5.33,0,0,1,3,22c0-.28,0-.55,0-.82a12.81,12.81,0,0,0-.65,1.56,16.85,16.85,0,0,1-.63,1.56,2.32,2.32,0,0,1-.21.82,1.61,1.61,0,0,0-.17.75Zm99-.84h.34l4-12.72-.12.32c0,.06,0,.08-.1.11h0a.32.32,0,0,0-.13.13,2.58,2.58,0,0,1-.35,1,3.74,3.74,0,0,0-.35.87l0,0a3.32,3.32,0,0,0-.55,1.38h0a3.31,3.31,0,0,1-.51,1.31c-.17.61-.3,1.2-.43,1.77s-.28,1.26-.47,1.91v0a3.23,3.23,0,0,0-.24.73,2.71,2.71,0,0,0-.05.72h0c0,.16-.12.21-.24.25s-.12,0-.14.08l-.69,2.09Z"/></g></g></svg>