<svg xmlns="http://www.w3.org/2000/svg" viewBox="0 0 231.32 82.34"><defs><style>.cls-1{fill:#231f20;fill-rule:evenodd;}</style></defs><title>MetroIV</title><g id="Layer_2" data-name="Layer 2"><g id="Layer_1-2" data-name="Layer 1"><path class="cls-1" d="M40.07,33.71l1.08-.16.43-.5L41,32.88c-.86.45-1.14,0-1,.83ZM89.82,82.34l.28-.14.1-.11-2.43-2.26-.3.43c.25.37,1.9,2.07,2.35,2.07Zm-6.66-9.66,3.28,6.16c.13,0,.34,0,.34-.24S84,72.67,83.6,72.67Zm126-5.68a1.84,1.84,0,0,1-1.52-1.11l4.84.7v.13l-3.32.28Zm-4.15-1.59.69.07v.41h-.69a12.09,12.09,0,0,0-5.39.83l.83-1.08,4.56-.23Zm-26.67-.2c.94-1.28,7.88-.51,10.37-.42,3.46.13,7.38.7,10.91.7v.14l-4.83.33-3.32-.05-13.13-.69Zm-5.8.55c0-1.18.44-1.13,1.36-1.41a6.94,6.94,0,0,1,2.1-.53l2.35.17c-.49.64-3.45,2-3.45,2.59V67a7.6,7.6,0,0,1-1,.14h-.14c-.4,0-1.24-1-1.24-1.38Zm-80-3.45V61.9l.44-.23.52.12c.26-.2.25-.31.56-.31h1.8c.45,0,.1.12.69.28v.55c0,.67,1,.44,1,2.07H96.17c-.74,0-2.3.31-2.6.26-1-.17,0-.4-2.1-.4h-1c-.31,0-.3-.11-.55-.28l.82-1.25h.7l.38-.44.72,0v.28c.44-.1,1-.59,1,.14v.69a2.52,2.52,0,0,1-.13.71l.68-.3c-.09-.38-.28-.56-.28-.83s0-.16.14-.55c-.13-.07-.82-.55-.83-.55s-.4.31-.55.41Zm41.17.25,4.29,0c3.13,0,30,1.2,30.54,1.66-6.85,0-13.29-.17-19.62-.42s-12.82-.69-19.35-.69V63l4.14-.49Zm-21.14-.25h-.69c.05-.32.32-.27.69-.28v.28Zm1.24-.41c.12-.46-.15-.12.41-.41h.55c-.14.22-.18.41-.55.41ZM119,60.79c.38-.71.71-.83,1.8-.83v.28h-.41c-.1,0-.93.45-1.38.55Zm10.23-1.49c-.6.78-11.83,3.15-13.82,3.15l.28-.55-.45-.54,3.6-.64c-.84.61-2.94.38-3,1.43l13.41-2.86Zm-5.53-.44c1,0,1.43.14,1.8-.55l1.65.31-5.36,1.45,0-.66,1.93-.55Zm-40.9,2.21c0-1.35-.11-2,1-2.16,1-.16,2-.08,2.93-.24a32.94,32.94,0,0,1,6-.36c-.51,1.06-.52,2.12-1.56,2.72s-1.71,1.1-2.67,1.61c-1.87,1-5.34.52-7.68.89s-6,0-8.21.36a65.77,65.77,0,0,1-8.21.36c-5.06,0-11.35.46-16.3.83-2.51.19-5.92.15-8.43.14-2.68,0-5.4.28-8.29.28H27.5a75.26,75.26,0,0,1-8.58-.54c-1.47-.17-2.69-.29-4-.56-1-.21-2.94-.79-3.58-.84L11.79,62H13l69.09-3.23v2.54l.69-.28ZM96,58.16c.35-.48.68-.2,1.32-.48.48-.21.54-.45,1.15-.65a29.17,29.17,0,0,1,3-.63,45.13,45.13,0,0,1,6.46-.72h1a61.59,61.59,0,0,1,7.75.54c1.18.16,2.55.22,3.66.49.84.2,2.74.72,3.37.77-.2.77-4.67,1.8-5.72,2.16-.64.22-5.91,1.44-6.44,1.44h-.41c0-.8-.58-3.59-1.24-3.59h-.55c-.32,0-.41.1-.41.41s.76.86,1,1.5a11.19,11.19,0,0,1,.39,2c-2.19,1.16-8.22,1.52-11.19,2.21l-1.42-2.74c.84,0,1.66,1.33,1.83,2.05l.84-.4c-.79-1.64-2.07-4.25-4.29-4.3Zm26.39-1.93c4.78,0,10.09-.43,14.79-.41s9.71-.7,14.51-.69c2.35,0,4.88-.43,7.18-.41a59.58,59.58,0,0,0,7.27-.33c1.15-.21,6-.37,7.24-.36,2.3,0,4.6-.28,7.19-.28-.41.56-6,3-7.13,3.23-1.41.34-2.69.79-4,1.2-1.16.36-2.84.7-4,1.14-2.35.93-5.51,1.65-8,2.41a38.37,38.37,0,0,1-9.38.85v.14l-16.3-1c-.19-2.39-1.72-3.19-3.6-3.8a47,47,0,0,0-5.79-1.4v-.28Zm12.71-4.84v-.28h.28v.28Zm31.51-2.07c.5-.68,5.24-.81,6.49-1.11-.38.53-2.47.55-3.45.55v.41l-3,.14Zm31.22-5.82v.57l-1.29.35,1.28-.92ZM170,49.6c1.5.72,13.9-2.56,15.65-3a42.69,42.69,0,0,0,7.06-2.47c1.2-.58,2-.93,3.14-1.56s1.87-1.25,2.9-1.8c-.1,1.15-2.23,2.3-3,2.9a18.6,18.6,0,0,1-3.5,2.3,40.89,40.89,0,0,1-9.2,2.41,48.77,48.77,0,0,0-4.8,1.14c-1.48.42-3.37.54-5,.81-3.16.54-7.1.81-10.41,1.2-13.92,1.62-29.4,1.85-43.79,2.91-7.2.53-15,.55-22,1.37-1.79.21-3.78.25-5.66.28-1.64,0-3.73.42-5.38.42-1.92,0-3.65.13-5.53.27-1.43.11-4.08.18-5.42.39-3.37.53-7.73.17-11.05.69-1.09.17-4.42.27-5.49.31-1.78.07-3.86.25-5.53.28-7.32.1-14.91,1.1-22.25,1.1v-.14c1.34,0,8.54-.86,9.26-1.24l.69.17V58l.69.27,41.45-2.73v.81c.85,0,.63-.19,1-.83L98,54.66l.69.05v-.28a2,2,0,0,0,.69.14h.55c.56,0,.36-.34.28-.69l.4.3,1-.08-.11-.5h.39v.55h5.53c.88,0,.28-.89,1.24-1l-.34.51.34,0v-.28l.82.16v-.3h1.93c.51,0,.32.41.83.41h1.11l1.93-.15.4-.28c.69.6,5.3-.11,6.65-.12a67.37,67.37,0,0,0,6.86-.47c4.09-.74,9.51-.38,13.63-1,1.74-.27,5.1-.38,6.88-.44,2-.07,4.74-.41,6.77-.56,2.22-.16,12.54-.57,13.54-1.1ZM198.32,39h.94c-.16.61-.45.56-1,.83l-.13-.41.16-.41Zm-13.44-8.16v-.17l18.24.91v.36h.69c3.56,0,7.71.91,11.33,1.11,1.82.1,3.83.42,5.66.56.76.06,2,.2,2.77.27,1.33.12,1.3.56,2.48.56v.14l-2.76.27.16-.4c-1.4.1-2.82.68-4.17.68h-1.11c-1.61,0-1.44-.3-1.94-1.19l-31.38-3.09Zm-10.49-4.19v.18c-.16.6-1.14.68-1.74.88a15.36,15.36,0,0,1-2,.64,8.48,8.48,0,0,1-2.9-1.64l6.63-.06ZM187.65,25c.21-.39.25-.4.83-.41-.24.33-.28.37-.83.41Zm-9.12,4.7c.78-.49,6.59-2.52,7.92-3a33,33,0,0,0,7.12-3.8c1.94-1.27,5.07-2.85,6.7-4.22.63-.53,2.65-1.92,3-2.36a14.2,14.2,0,0,1,2.87-2.52l-4.78,16.87-14.56-1.07v.17l-8.29-.08ZM206.8,9.9c-.11,2.07-1.71,3.23-3,4.22-.71.56-3.41,3-4,3.15.11-.41,1.09-1.8,1.52-1.8h.55c.37-1.6.46-.49,1.24-1.66l.4.16.39-.35,0-.23h-.41l1.82-1.65.1.14-.11-.4L206.8,9.9Zm-22.19,15c.15-.2,6.3-3.83,7.3-4.58a26.57,26.57,0,0,0,3.1-2.85c1-1,2.16-1.74,3.11-2.69l3-3c.93-.93,1.83-2.26,2.75-3.05A9.54,9.54,0,0,0,205.17,7c.67-1,1-.92,1.44-1.46a30.07,30.07,0,0,1,2.6-3.21,13,13,0,0,1-1.34,4.6c-1,1.14-1.86,2-2.91,3s-1.86,2-2.9,3-2.07,1.71-3.11,2.7A48.66,48.66,0,0,1,192.46,21c-.88.59-7,3.82-7.85,3.9Zm46.71,9.26V34c-2.49-.06-5.71-.62-8-.7a72.62,72.62,0,0,1-7.94-.77c-2.34-.4-5.54-.57-8-.75-1.22-.09-2.51-.43-3.87-.41s-1.13,0-1-1a13,13,0,0,1,.35-1.73c.59-2.35,1.09-4.67,1.83-6.88a61.34,61.34,0,0,0,1.83-6.87c.22-1.4.72-1.9,1-3.41a20.61,20.61,0,0,1,.94-3.35,23.68,23.68,0,0,0,1.52-7h-5.67c-.68,0-1.24-.68-1.52-1.11h-.41c-.74.64-1.94,1.08-2.87,2a18.75,18.75,0,0,0-2.16,2.67c-1.28,1.88-2.37,4.18-3.53,6.14s-2.65,3.75-4,5.72c-.68,1-3.33,5.06-4.48,5.06-.19,0-.08-.15-.55-.28l.34.66c-.33.1-2,1.31-2.49,1.6-.94.57-1.58.84-2.54,1.33a16.57,16.57,0,0,1-6.36,1.52h-.69c-.31,0-.3-.11-.55-.28-1.37.32-6.49-.2-6.49,1.38,0,.87,1.57.7,1.66,1.8-2.75.64-6.3,2-9.1,2.92-1.5.49-8,2.89-9.13,2.89-7.53,0-15.63.57-23.36.68C110.81,36,94.79,37,79.59,37c-2.38,0-5.24.41-8,.41H63.15c-3,0-14.21.49-15.06,1.66.47.65,10.22-.57,12-.55,2,0,4.08-.27,6.36-.27,1.87,0,4.16-.19,6.22-.27,4.18-.16,8.42-.41,12.71-.42,3.8,0,8.84-.14,12.57-.42,1.89-.14,4.66-.14,6.5-.14,2.28,0,4.07-.14,6.36-.14,4.38,0,8.42-.28,12.71-.28,8,0,17.5-.33,25.15-1,.25.17.24.28.55.28h4.15c-.13-.6-.33-.36.28-.41v.55l20.73,1.38v-.55l-20.31-1.42c.63-.5,6-1.34,7.6-1.34,1-.64,2.07-.6,3.4-.88,1.09-.23,2.36-1,3.1-1,2.12-.23,4.56-1.19,6.9-1.39-.21.31-.55.49-.55.83,0,.84,5,1.13,6,1.23,2.31.25,4.38.24,6.76.42,2.1.16,4.47.4,6.63.55s4.57.55,6.63.55c0,.86-2.05,2.85-2.66,3.42a6.31,6.31,0,0,1-4.39,1.55l-15.33-1.87-2.5.07v.28c6.45,0,12.15,1.87,18,2.35-.16.61-2.64,1.45-3.36,1.75-1.25.53-2.31,1.13-3.4,1.71-1.5.79-6.64,1.6-7.74,2.34a35.47,35.47,0,0,0-4.69,1c-1.39.32-3.14.63-4.67.85-3.07.44-6.42,1-9.71,1.34a104.68,104.68,0,0,1-10.49.7c-3.27,0-7.16.55-10.5.55l-.53.44-.35-.41c-2.24,0-5,.5-7.13.53a57.57,57.57,0,0,0-7.08.52c-1,.15-2.68.09-3.7.17s-2.2.28-3.45.28-5.92.25-7.13.47a60.31,60.31,0,0,1-7.11.49c-2.15.07-4.76.49-7,.56-4.59.15-9.89.69-14.51.69l-.4.3-1.12-.19-1.39,0c-2,0-5.57.44-7.61.68s-5.7.29-7.87.28a88.17,88.17,0,0,0-15.06,1.38v.55h-1l.11-.56-7.15.77-.54.36-6.24.3-.28.51a58.06,58.06,0,0,0-5.79.7c-.85.09-5.06.55-5.26,1.09a9.41,9.41,0,0,0-2.21-.14c-.89,0-1.52.18-2.35.28-1.34.16-3.28.55-4.56.55-.34,0-.52-.35-.83-.55,0-1.64-1.27-2.18-1.93-3.18.87-1.3,4.38-3.43,6-4.24.91-.45,6.56-2.91,6.72-3.36-1.47.7-3.22,1.12-4.74,1.89s-2.83,1.43-4.24,2.25c-1.21.71-6.91,4.93-6.91,6.08v.14c0,2.94,1.45,3,3.75,3.71,2,.66,3.7,1.11,5.81,1.65a61,61,0,0,0,13.51,1.27c9.87,0,18.68-1.52,28.19-1.52,10,0,19.08-1,28.74-1h1.11c.33,1.24,3,2.82,4.24,3.36a23.7,23.7,0,0,0,5.9,1.56c2.22.37,4.07,1.29,6,1.44,1.1.08,2.2.41,3.19.54a17.85,17.85,0,0,1,2.89.84L109,74.59l.17.07,1.29-2.81,6.76.17,2.76,0a29.86,29.86,0,0,0,4.76-.49c1.21-.22,3.52-.82,4.36-.89v-.28h-.41l-9,1.38-2.78-.14-5.66-.46-.59-.48.45-4.31-.17,0-1.09,4.29.15,0c-.25.17-.24.28-.55.28h-.28a53,53,0,0,1-5.95-1.24c-1.92-.5-3.72-1.1-5.52-1.52L97.58,68l.69-.69.54-2.12c2.32,0,4.1-.11,6.35-.11s3.67-.42,5.8-.41c4.2,0,7.2-1,11.61-1-1.24,1.08-1.36.06-2.35,1.93.27,1.15.7,1.11,2.07,1.11h3.18c1.78,0,4-.14,6.08-.14h1.52l2.76.29v.26l-6.27,2.94c1.81.1,5.56-1.85,6.92-2.57,2-1.05,5.92-.78,8.75-.78h1.11c5,0,9.42.3,14.37.27,3.61,0,11,.78,14.09.28s10.31.14,14.23.14H203.4a.72.72,0,0,0-.69-.28h-1.93c.18-.5.86-.55,1.52-.55h1a1.41,1.41,0,0,1,.83.28v.69c.36-.18-.11-.14.41-.14h1.93l-.77-.89.77-.07a1.41,1.41,0,0,1,.83.28l-.17.68,1.41,0,7.18-.46v-.21c-4.81-.4-9-1.69-14.23-1.66-4.9,0-10.07-.75-15.07-.82-2.06,0-5.12-.53-7.32-.7-2.46-.18-5.05-.28-7.6-.28s-5.53-.15-7.87-.14c-2.71,0-5.23-.27-7.6-.27l30.51-9.06,0-.19-3.73.44c1.11-1.54,4.65-1.69,7.18-1.69l-2.47,1,0,.22c2.27-.53,4.72-1.17,6.94-1.63,1.69-.35,2.28-.08,2.62-1.66.21-1,.63-2.27.92-3.22.86-2.84,2.21-2.31,1.76-6.42-.11-1,1.82-5,1.85-6.41.95,0,.74.28,1.38.28h.28c2.52,0,4.53.05,7,.28,2.2.2,4.4.69,6.78.69h2.76l11.47-1.38Zm-135.83,30L95.9,64l.42.13c-.14-.54-.34-.43-.83-.69v.69Zm-4.18-.16c.52-.1.54-.1.53-.71l-.53.71ZM84.1,53.31h.29l.31-.66-.29-.16-.31.82Zm1.51-3-.36.82c.67-.24.46-1,1.11-1H88.3c0-.45.21-.81.26-1.14.11-.74-.17-.55-.12-1.2.08-1,1-.89,1.22-1.71l-1.31.71-1.43-2.74H84.76l.85,6.21Zm-7.4-5.53,1.11,5.77,2.21.17a7.59,7.59,0,0,0,.14-1V48.36c0-1-.94-4-1.66-4h-.28a13.46,13.46,0,0,0-1.52.41ZM93.14,44l1,5.64c.52.12,3,.32,3-.41v-.55c0-.92-1-4.84-1.8-4.84l-.42,0L93.14,44ZM52.92,49.74l10.36-.41v-1c0-1.65-1.52-4.84-3.18-4.84-.31,0-.3.11-.55.28l-3.45-.42c-1.36.91-2.3,4.7-3.18,6.36ZM48.6,43.61c0,1-.3,1.85-1.12,2.21a4.58,4.58,0,0,1-2.44.73l3.56-2.94Zm-6.73,5,8.43,1.11c.47.07,3.46-6.14,3.87-6.88l-5.8-.44c-1,.66-2.09,2.51-3.18,3.18s-3,1.74-3.32,3Zm59.69-4.56.83,5.22L105,49c0-2.74-1.13-3.79-1.24-5.14l-1.94-.25c-.07.1-.29.36-.28.41Zm8.84-.28a38.76,38.76,0,0,0,1.25,5.28l1.93-.17a2.68,2.68,0,0,0,.41-1.38v-.28a8.86,8.86,0,0,0-.71-2.75c-.42-1.06-.87-1.26-2.33-1.26a.53.53,0,0,0-.55.55Zm9.81,4.84h1a.93.93,0,0,0,.83-1v-.41c0-1.33-.56-4.14-1.66-4.14H119c-.74,0,0,2,.19,2.71.13.6.52,2.82,1.05,2.82Zm6.36-5.39c0,1.41,1.07,3.73,1.1,5.11l1.94-.41a7.6,7.6,0,0,0,.14-1v-.83c0-1.09-.75-3.32-1.52-3.32h-1.11c-.27,0-.55.25-.55.41Zm-84.16-1h1.81l-4.74,2.29,2.94-2.31ZM16.86,39.93c0-.58,2.62-.69,3.32-.69a11.55,11.55,0,0,1-1.24,1.66c-.81,0-2.07-.18-2.07-1ZM0,33.57v.55c.92.21,3.07,1.07,4.19,1.48,1.38.5,2.76,1.05,4.15,1.51a39.25,39.25,0,0,1,7.8,3.67c1.48.94,2.45.88,4.29,1.38a32,32,0,0,1,4.19,1.47c1.09.47,8,2.95,8.27,3.2-1.25,0-9.61,2.3-9.95,2.76.46.62,7.36-1.11,8.62-1.33s3.45-.79,4.36-.6a47.57,47.57,0,0,0,4.71.68c.51-.34,2.84-2.62,3.42-3.21.82-.83,3-2.32,3.2-3.38L44.77,41c.53-.72,2.4-.73,2.49-1.8a52.92,52.92,0,0,0-5.43,2.3c-1.48.63-1,.71-2.94.27-.87-.2-2.6-1.07-2.65-.15L39.52,43a33.91,33.91,0,0,1-2.9,2.35C36.28,45.32,30,43,29,42.71c-2.4-.72-5.44-2.11-7.72-2.64.13-1.61,2.49-.18,2.49-1.38v-.14c0-.67-2.34-.14-3.18-.14H20c-4,0-6.16-1.1-9.15-1.91-2.09-.57-6.48-2.78-8.26-2.93l0-.15,2-.26v-.62L.31,33,0,33.57Zm134.87,9.26c0,1.61,1,3.59,1,5.25a7.6,7.6,0,0,0,1,.14h.41c.88,0,1.11-.66,1.11-1.52a8,8,0,0,0-.67-3.2c-.56-1.33-2.78-.84-2.78-.67Zm8-.41c.35.74,1.32,5.39,1.93,5.39h1.38c1.63,0,.57-2.07.21-3-.54-1.35-.27-2.69-2.14-2.69h-.83a.88.88,0,0,0-.55.28ZM32.06,40.76l-.41,1.52c.93-.08.56-1.66,1.38-1.66.66,0,.85.36,1.52.41l0-.22L33.3,40.2c.13-1.52,3.12-4,2.76-4.84-1.49,1-3.08,3.85-3.73,4.28A57.92,57.92,0,0,1,26.14,38c-2-.6-4.07-1.17-6.09-1.79-1.72-.53-11.3-3.43-12.46-3.43H5.39c.17.63,2.41,1,3.12,1.16,1.11.27,2.4.57,3.39.9,2.21.73,4.63,1.1,6.84,1.86s4.74,1.29,6.85,1.86c1.66.45,5.69,1.08,6.47,2.24Zm4.7-5.66c0,.23.08.41.28.41.7,0,1.63-1.18,2.49-1.38v-.69c-.44.1-2.76,1.27-2.76,1.66Z"/></g></g></svg>