<svg xmlns="http://www.w3.org/2000/svg" viewBox="0 0 122.78 56.8"><defs><style>.cls-1{fill:#231f20;fill-rule:evenodd;}</style></defs><title>MU-II</title><g id="Layer_2" data-name="Layer 2"><g id="Layer_1-2" data-name="Layer 1"><path class="cls-1" d="M0,14.94a4.09,4.09,0,0,1,2.37-2.12,12.62,12.62,0,0,1,1.82-.43,14.91,14.91,0,0,0,1.58-.25L6,12c3.49-.08,7.75-1.79,10.61.66a1.08,1.08,0,0,1,.42.87c.38.32,1,.32,1.54.49s1.26.35,1.86.47c.91.27,1.84.31,2.75.56.8-.88,1.82-2,3.31-1.84.13,0,.22.07.28.07s0,.1,0,.17,0,0,0,.06A3.32,3.32,0,0,0,24,15c0,.08,0,.13,0,.14a.49.49,0,0,0,0,.15c1.26.46,2.75.64,4.09,1a7.92,7.92,0,0,1,.94.18c.6.2,1.12.27,1.69.45.22,0,.45.07.64.07a5.75,5.75,0,0,0-1.17-2.68c-.42-.64-1.1-1.24-1.47-1.86a.12.12,0,0,1,0-.08h.14a9.14,9.14,0,0,1,3,4.57c0,.1.06.11.1.17l1.24.28a6.84,6.84,0,0,0-.78-2.46c-.1-.22-.22-.38-.32-.64,0-.06,0-.11,0-.13s.28,0,.36.06c.68.94.81,2.43,1.4,3.42,2.4.7,4.93.46,7.28,1.44,0,0,0,.15,0,.22a.28.28,0,0,0,.18.2c2.23.46,4.58,1,6.86,1.63.45.11.91.22,1.34.36s.67.18,1,.14c.53.31,1.27.2,1.82.42.82.24,1.56.48,2.37.64.25,0,.45.13.7.13,1.59.38,3.18.7,4.73,1.17.53.08,1,.25,1.49.35a5.86,5.86,0,0,0,2,.32c.41-.13.78,0,1.13-.22,1-.75,1.79-1.91,2.93-2.39a.18.18,0,0,1,.13,0c.06,0,.06.13.06.2A7.56,7.56,0,0,0,66,23.88a.08.08,0,0,0,.06.07l2.5-.8L70,22.62a.13.13,0,0,0,0-.1c-.5-.52-1.52-.54-2-1.17l.08-.22a3.14,3.14,0,0,1,2.3-.82,14.43,14.43,0,0,1,3,.89c.13,0,.2.08.28.06l.29.2c2.77-1,5.34-2.23,8.09-3.37,1.73-.88,2.9-2.74,3.8-4.16,1-1.68,2.18-3.18,3.18-4.85,1.4-2,2.7-4.06,4.05-6.09.34-.42.64-.77,1-1.17S95,1.24,95.33.7L95.4.28l1-.28c.06,0,.06.06.08.1s.14,0,.22.06V.32A1.75,1.75,0,0,1,97,.7l1.8.38s0,.08,0,.14c-.36.53-.39,1.38-.74,2-.54,1.44-1,3.07-1.51,4.57s-.81,3.06-1.34,4.55c-.1.61-.36,1.16-.49,1.79q-1.61,4.57-3.1,9.23c0,.18,0,.35.06.47,1,.36,2.32.35,3,1.22a2.71,2.71,0,0,1,.2,1c0,.18-.07.35,0,.5.6.56,1.69.6,2.46,1,.54.15,1,.35,1.49.5s.81.27,1.16.41.89.28,1.31.43c.63.2,1.2.45,1.76.64a11.39,11.39,0,0,1,1.4.38,5.6,5.6,0,0,1,1,.35,6.52,6.52,0,0,1,1.72.54c.46.24.95.31,1.4.53.49,0,.8.25,1.28.31.75.61,2,.31,2.67,1,0,.21-.17.36-.32.5-1.24.64-2.64.41-3.9.39-1.58-.35-3.14-.64-4.72-1s-3.11-.54-4.64-.8c-.42-.15-.75-.15-1.12-.27s-.75-.15-1.08-.15-.5-.1-.75-.18c-.46,0-.87-.21-1.3-.24-2.11-.2-4.48-1.21-5.82.94l-.06.1L89,33.13c.7.34,1.47.5,2.25.8.56.1,1,.35,1.55.45.66.15,1.19.39,1.79.47a17.41,17.41,0,0,1,1.82.57,3.62,3.62,0,0,1,1.12.13c.36.17.75.17,1.08.35.8.18,1.56.43,2.28.61s1.44.34,2.09.59,1.35.28,2,.47c.22.13.47.14.64.22.53.15,1,.22,1.49.38.7.24,1.44.39,2.09.64s1.1.28,1.59.43a10.44,10.44,0,0,0,1.34.4c.49,0,.8.34,1.28.29.46.15.92.22,1.37.41.28,0,.45.15.7.21.66.28,1.45.31,1.77.95a.36.36,0,0,0,.08.2c.49.2,1,0,1.54,0a23.58,23.58,0,0,1,2.43,0c.11,0,.2,0,.27.06l.82.39c.18.35.46.75.25,1.2a4,4,0,0,1-.39.6c-.49.77-1.4,1.08-2,1.69l-.27,1a2.43,2.43,0,0,1-1.45,1.15c-.15.29-.63.31-.84.54-2.11.39-4.19,2.15-6.19,1.09-.24-.28-.6-.24-.8-.42-2.23.42-4.73,1.48-6.84.35a1.24,1.24,0,0,1-.82-.75c-.53-1.17.17-1.94.7-2.79a9,9,0,0,1,3.11-1.9c.38-.21.91-.27,1.34-.46l.13-.1a.35.35,0,0,0,0-.43c-.35-.27-.89-.22-1.24-.41a10.81,10.81,0,0,1-1.59-.46c-4.44-1.26-9-2.39-13.44-3.69-1-.25-1.9-.53-2.85-.78-1.3-.25-2.57-.89-3.81-.85-.13.06-.15.14-.22.2-.89.75-2.33.49-3.46.84-.75.81-.6,2.3-1.72,3a2.56,2.56,0,0,0-.88.41c-.38-.06-.85,0-1.12-.32l-2.83.39a9.2,9.2,0,0,1-1.34,2.32,1.15,1.15,0,0,1-.35.42l-.14.21a6.11,6.11,0,0,1-.63.57,1.53,1.53,0,0,1-.77.45s0,0-.07-.08l.06-.36A5.05,5.05,0,0,0,73.78,43a10.54,10.54,0,0,0,.64-1,2.88,2.88,0,0,0,.22-.7c-.4,0-1,0-1.33.27-.45.53-1.08.75-1.49,1.24l-1.4,1-3,2.21a4.47,4.47,0,0,0,3.18,1.1c2-.15,3.35-1.61,4.34-3.06a9.71,9.71,0,0,1,.95-1.56H76c.06.82-.64,1.4-.94,2.07a12.16,12.16,0,0,1-1.24,1.41,5.17,5.17,0,0,1-4.62,1.38A6.79,6.79,0,0,1,67,46.38c-.34.07-.57.34-.94.46a17.1,17.1,0,0,1-2.79,1.33c-.54.31-1.19.47-1.73.77a13.56,13.56,0,0,1-1.79.53,26,26,0,0,1-13.84-.29c-4.25-1-8.85,1.47-13.23,1.54-2.32.31-4.57.36-6.83.63a6,6,0,0,0-1.27.08,18.79,18.79,0,0,1-2.65.1c-.87,0-1.66,0-2.51-.08A11.1,11.1,0,0,1,15,50.53a9.28,9.28,0,0,1-1.48-1,2.31,2.31,0,0,1-1.08-2.25,6.53,6.53,0,0,1,1-2.49,4,4,0,0,0,.39-.53,9.54,9.54,0,0,1,1.58-1.86c1.69-1.34,3.37-2.63,5.13-3.78.68-.49,1.42-.81,2.05-1.3.47-.14.7-.61,1-.87s.54-.78.88-1.13a3.28,3.28,0,0,1,.67-.84,15.91,15.91,0,0,1,7.6-5.06A12,12,0,0,0,34.64,29s0,0,0-.08c-.88-.75-2.25,0-3.42-.07A13.72,13.72,0,0,0,30.49,30c-.06.06-.18,0-.28,0s-.11-.08-.13-.18l.54-1c-1-.22-2.33.1-3.27-.52-.41-.1-.64-.43-1.06-.41-.08,0-.15-.08-.18-.18a4,4,0,0,1-.85-2c-.82-.53-2.1-.91-2.32-2.14a3.6,3.6,0,0,1,1.4-2c.47-.34,1.17-.5,1.68-.8l.38-.7s0-.06,0-.1c-.43-.24-1-.31-1.49-.54A10.46,10.46,0,0,0,22.35,19,9,9,0,0,0,22,21.79a.33.33,0,0,1-.18.14l-.13,0c-.34-.57,0-1.42,0-2.12,0-.36.27-.73.11-1.06-.2-.1-.45-.11-.64-.21-.63-.13-1.21-.29-1.82-.45a17,17,0,0,0-1.73-.49c-.77-.11-1.55-.43-2.25-.54a6.31,6.31,0,0,0-1.15-.35,5.16,5.16,0,0,0-3.1-.25,12.18,12.18,0,0,1-1.45.29c-1.9.14-3.8.36-5.68.56-.46-.14-.94.08-1.34-.07a.67.67,0,0,0-.34,0c-.31-.15-.73-.15-1-.42A3.3,3.3,0,0,1,.36,16,.24.24,0,0,0,.28,16l-.28-1Zm1-.42v0l.61-.43c.2-.41.7-.5,1.13-.71s.59-.15.87-.25l.7.5c-.38.36-1.08.45-1.31,1a.71.71,0,0,0,.39.66c.57.28,1.26,0,1.84.28l.15.56a.65.65,0,0,1-.31.43c-.67.11-1.34,0-2,.06-.25,0-.5-.11-.7-.11a1,1,0,0,1-.32-.22.53.53,0,0,0-.14,0,1,1,0,0,1-.7-.56A1.41,1.41,0,0,0,1,14.55v0Zm2.84.18a1.11,1.11,0,0,1,1.12-.31c.46.14.94.22,1.34.34h.2c.06,0,.07,0,0,.08-.57.14-1.13,0-1.73.1a2.79,2.79,0,0,1-1-.15l0-.06Zm1.12-1.83a33.46,33.46,0,0,1,3.56-.38A18.86,18.86,0,0,1,14,13.57c2.88.47,5.82,1.33,8.62,2a.77.77,0,0,0,.21.11l-.63,1.45c-5.39-1-10.91-3.21-16.26-4.05-.2.06-.39,0-.54.1l-.24.13C5,13.2,5,13.06,4.92,12.9l0,0ZM6,15.64a5.19,5.19,0,0,0,.87-.21c.56-.13,1-.52,1.59-.21a20.37,20.37,0,0,1,2.21.59c-1.51.34-3,.35-4.58.56C6,16.37,6,16.3,6,16.24a.5.5,0,0,1,0-.14,1.68,1.68,0,0,1,0-.46Zm4.71-3.56,0,0a.86.86,0,0,1,.88.14l.07.1-1-.21Zm1.7,0a.25.25,0,0,1,0-.07,4.14,4.14,0,0,1,1.49.1,5,5,0,0,1,1.84.67l-.13.43-3-.63-.22-.5Zm.74,35.6A10.72,10.72,0,0,1,17,42c.31-.32.64-.45.89-.73L19,40.45l.77-.5c1.4-.89,2.78-1.83,4.25-2.72a4.35,4.35,0,0,0,.57-.54c.15-.2.22-.41.4-.52l.32.24c-.41.46-1.16.7-1.45,1.3a.4.4,0,0,0,0,.15.34.34,0,0,0,.35.11l.46-.31.08-.24a5.5,5.5,0,0,1,1.35-.8s0,.06.1.08c.6-.38,1.1.57,1.66.15.29-.46.73-.94,1-1.4a11.24,11.24,0,0,1,1.44-1.61,14.16,14.16,0,0,0,1.86-1.79c-.1-.28-.41-.28-.66-.38-.61,0-1.3-.42-1.8-.06a17.29,17.29,0,0,0-2.46,1.83c-.25.27-.53.42-.8.66A19.35,19.35,0,0,1,28.85,32c1.65-1.4,4-1.9,6.24-2.4a23.78,23.78,0,0,1,3-.64,2.1,2.1,0,0,1,.67-.11l-.08.36c.11.29.53.31.84.41a4.66,4.66,0,0,0,1.72-.11l.43-.28L42,28.1c1.28-.52,3-.17,4.13-.92A4.52,4.52,0,0,1,47,26l0-.2c-.25-.35-1-.28-1.37-.56-.13-.18,0-.47.1-.64.28-.24.68-.32.84-.67l-.06-.18c-2.64-.7-5.49-1.38-8.14-2.18a.8.8,0,0,1-.54-.21l-.24.06-1.79-.54v-.08a8.94,8.94,0,0,0,1.17-.28c6.61-1.34,13,2.21,19.61,3.16l.07,0c0,.2-.27.4-.11.66a.8.8,0,0,0,.68.5,1.08,1.08,0,0,0,.92-.27l.06-.1,0-.41,3.32.81c.08.06.13.07.14.1s0,.45.24.54a10.25,10.25,0,0,1,1.91.67h.14c.14.29-.24.7-.29,1.08s-.27.7-.41,1l-1.59-.41-2.32-.61a2.31,2.31,0,0,0-1.52,1,1.39,1.39,0,0,0-.11.88,3.28,3.28,0,0,0-3,.42.37.37,0,0,0-.07.2.55.55,0,0,0,.46.22c1.06-.64,2.25-.28,3.34-.1a11.91,11.91,0,0,1,2.05.5v.06c-.42.17-1,.14-1.35.52l.1.2c.67.13,1.37-.36,2.11-.28a.83.83,0,0,0,.35-.28l1,.24L62.47,32a.37.37,0,0,0,.36.24.3.3,0,0,0,.2-.2l0-1.13c.45-.15,1.08.22,1.59.34.1.56-.24,1.24-.06,1.82,0,0,.11,0,.2,0,.29-.1.31-.46.36-.74a1.92,1.92,0,0,1,.2-1l1.34.35s0,0,.07.06a.62.62,0,0,1,0,.24l-.08.1c0,.06.06.07.08.1.32.46.27,1.12.5,1.66,0,0,0,0-.08.06s.1.06,0,.08.08,0,.14.06l0,.27c-.45.7-1.24,1.21-1.13,2.19.32.53.85.74,1.28,1.19l-1.35.31L65.86,37a.28.28,0,0,0-.1,0c-.25.25-.07.78-.07,1.15l-2.57.74a18.24,18.24,0,0,0-1.86.36c-.35.14-.71.13-1,.29a18.11,18.11,0,0,1-2,.4,3.9,3.9,0,0,0-.92.25,16.16,16.16,0,0,0-2.54.53c-2.54.59-5.14.95-7.67,1.56a12,12,0,0,0-1.66.22c-.28.1-.47,0-.7.15-2.33.47-4.64.81-6.91,1.1a15.24,15.24,0,0,1-1.7.39c-1.1.2-2.21.35-3.25.54-.53.15-1,.11-1.49.28a4.32,4.32,0,0,0-.92.13,4,4,0,0,0-.67.15c-1,.14-2,.24-3,.35a29.35,29.35,0,0,0-2.95.45,21,21,0,0,0-2.32.29c-.61.2-1.33-.07-1.75.36,0,.08,0,.1,0,.14a.43.43,0,0,0,.31.35c1.51.1,3-.1,4.5,0,.73,0,1.42,0,2.09,0A37.43,37.43,0,0,0,32,46.77a5.89,5.89,0,0,1,1,0c1.61-.1,3.1-.4,4.69-.5a27.06,27.06,0,0,0,3-.35c.54-.13,1.09-.14,1.55-.29.91-.11,1.84-.34,2.7-.38A8.43,8.43,0,0,0,46.21,45c1.24-.1,2.4-.41,3.59-.46-.31.07-.42.36-.7.56l0,.1a.53.53,0,0,0,0,.14c.5.15.95-.35,1.49-.39.89-.43,1.73-.52,2.56-.95A40,40,0,0,1,60,42.71,37.62,37.62,0,0,1,63.82,42a4.13,4.13,0,0,0,.63,1.2,11.45,11.45,0,0,0,1.84,2.56,5.91,5.91,0,0,1-2,1.16s-.1,0-.15,0a20.85,20.85,0,0,1-4.66,1.94c-.29.11-.57.14-.87.27-1.45.27-2.89.34-4.29.48a11.77,11.77,0,0,0-1.54-.06,22,22,0,0,1-3.35-.25c-.43,0-.82-.14-1.2-.18a8.78,8.78,0,0,1-1.47-.42,6,6,0,0,1-1.42-.42,1.21,1.21,0,0,1-.38-.21.27.27,0,0,1,0-.1c.95-1.17,2.35-1.49,3.35-2.5,0,0-.07-.13-.17-.14a11.21,11.21,0,0,0-2.63,1.45c-.39.45-.85.52-1.15.95a107.58,107.58,0,0,1-20.91,3c-.31-.07-.61,0-.85-.1.4-.39,1.34-.52,1.3-1.35,0-.24-.21-.29-.27-.46a1.54,1.54,0,0,0-1.31-.15A2.19,2.19,0,0,0,21,49.83c0,.18-.08.28,0,.42l.32.5a25.34,25.34,0,0,1-2.74.06,8,8,0,0,1-5-2.23,2.09,2.09,0,0,1-.38-.92Zm5.92-24a17.75,17.75,0,0,1,.22-4.05.21.21,0,0,1,.24,0l.06.06a22.34,22.34,0,0,0,.24,7.21s0,.07-.1.1a.23.23,0,0,1-.24-.2,20.33,20.33,0,0,1-.42-3.1Zm1.16,6a.37.37,0,0,1,.06-.27s0,0,.07-.06a.19.19,0,0,1,.15.06c.84,2.28,1.68,4.37,4,5.32a.25.25,0,0,1,.13.29.23.23,0,0,1-.31.06,4.31,4.31,0,0,1-1.73-1.16,11.45,11.45,0,0,1-2.36-4.25Zm1-16.09.28-.88a3.54,3.54,0,0,0,.82-.94l.47-.56,1.48-1.08h.1l.24-.13a5.14,5.14,0,0,1,5.25.82c.25.25.52.38.66.67v.08a.24.24,0,0,1-.2.18C29.24,10.89,28.24,10,26.63,10c-2.08.06-3.55,1.48-4.59,3a1.47,1.47,0,0,1-.57.68l-.17-.06v0Zm.5,11.87a.67.67,0,0,1,.07-.32.15.15,0,0,1,.08,0s.1,0,.13,0,0,.41.13.59a3.66,3.66,0,0,0,.32,1.4,4.23,4.23,0,0,0,.13.71,18.15,18.15,0,0,0,1.45,3.14c.17.32.42.49.54.8l-.1.18H24.4c-.59-.35-.75-1-1.16-1.54A26.12,26.12,0,0,1,22,27a1.92,1.92,0,0,0-.1-.41l0-.7-.11-.46Zm1,23.88h0a1.19,1.19,0,0,0,.29.1s0,.1,0,.17-.08.07-.14.1-.14-.22-.22-.34Zm.08-31.93a2.32,2.32,0,0,1,.63-1.52l8.11,1.9s.06.14.06.22a8.49,8.49,0,0,1-1.89.41,2.37,2.37,0,0,0-1.42-1.17,2.48,2.48,0,0,0-2.42.7.31.31,0,0,1-.06.1l.08.18c.56-.06.89-.74,1.59-.63a2.09,2.09,0,0,1,1.47.59c0,.15.11.24.15.39-1.09.7-2.44-.25-3.62-.39-.92-.25-1.82-.46-2.7-.74v0Zm.63,6.33a3.05,3.05,0,0,1,.92-1.27,8.07,8.07,0,0,1,2-1c.78-.24,1.28.34,1.75.84a1.87,1.87,0,0,1,.29,2,1.48,1.48,0,0,1-.91,1.1,3.76,3.76,0,0,1-3.78-1.2,1.63,1.63,0,0,1-.22-.5ZM25,29.17a.21.21,0,0,1,0-.08s0,0,.07,0a.27.27,0,0,1,.14,0,1.22,1.22,0,0,0,.6.84,1.78,1.78,0,0,0,1.77-.1c.15-.14.22-.24.38-.28l.17.08A.3.3,0,0,1,28,30a2.06,2.06,0,0,1-1.86.39c-.39-.2-.89-.27-1-.7-.06-.21-.06-.35-.11-.52Zm1.44,17.18c.5-.18,1,0,1.55-.22,1.62-.18,3.27-.45,4.86-.59.6-.11,1.19-.06,1.73-.2a1.71,1.71,0,0,1,.32,0c1.23-.24,2.54-.32,3.78-.63a17.21,17.21,0,0,1,2.18-.22A20.79,20.79,0,0,1,43,44.15c.67-.17,1.31-.1,2-.31.29-.1.56-.08.84-.18,1.7-.35,3.41-.61,5.06-.81.38-.1.73-.1,1-.2a53,53,0,0,0,5.91-1.09c.47-.13.91-.13,1.35-.28.39.06.75-.25,1.12-.14,2-.35,3.87-.8,5.82-1.2.06.1.15.17.18.31-3.31,1-6.76,1.44-10.1,2.15a264.12,264.12,0,0,1-29.55,4s-.31,0-.15,0Zm.68-25.78c.42-.87,1.35-1,2.3-1.4,0,0,.06,0,.1.07s0,.47.32.54h.08c.07,0,.15-.08.2-.18l0-.56c.41-.28.95-.18,1.44-.34h.2c.1,0,.13.15.13.29s.14.17.24.24l.24-.07c.1-.08.1-.28.1-.46.22-.2.64-.11,1-.17a4.85,4.85,0,0,1,.38,2l-.64.66a.75.75,0,0,0,0,.73c.49.73,1.69.77,2.53,1.13a12,12,0,0,0,1.24.35c.47.15.89.24,1.31.39a5,5,0,0,1,1,.32s0,.07,0,.1a1.69,1.69,0,0,0-.88,1.27,1.39,1.39,0,0,1-.61,1,6.93,6.93,0,0,1-2.88,1.15,11.8,11.8,0,0,1-3.07.39c-.14-.56,0-1.34-.14-2,0-.06-.08-.14-.14-.18s-.15.08-.2.18L31,28a5.29,5.29,0,0,1-2.43,0c.39-.6,1.15-1,1.37-1.73a.38.38,0,0,0-.28-.31c-.39.06-.71-.2-1.1-.2-.06-.32.34-.75.43-1.16.1-.24.06-.46.15-.66a2.25,2.25,0,0,0-.41-2,6.64,6.64,0,0,0-1.66-1.35v0Zm1.51,19.08.75-1.76-.24-.42c.29-.63.78-1.09,1.09-1.72.39-.46.71-.87,1.09-1.3.21-.13.31-.32.46-.42a6.12,6.12,0,0,1,2-1.69,33.1,33.1,0,0,1,4,1.24l.64.39a.28.28,0,0,1,.13.32c-.22.59-.36,1.19-.54,1.77a23.08,23.08,0,0,0-.5,2.36c-.17.41-.17.75-.29,1.13a4.56,4.56,0,0,1-.17.78s0,0-.06.06c-1.13-.38-2.47-.94-3.69-1.31A16.85,16.85,0,0,0,30,38c-.14,0-.18.14-.28.18-.36.46-.17,1.2-.45,1.66-.11.14-.42.1-.59,0l-.08-.18Zm2.46-15.59a3.67,3.67,0,0,0,.13-1.26.54.54,0,0,1,.29-.17.36.36,0,0,1,.28.22,4.34,4.34,0,0,1-.13,1.42.26.26,0,0,1-.29.14.34.34,0,0,1-.29-.31v-.06Zm.63.84,0-.22c.38-.1.74-.49,1.17-.45a1.42,1.42,0,0,1,0,1.3h-.22a.16.16,0,0,1-.06-.06v-.41a.22.22,0,0,0,0-.15l-.75.18a.21.21,0,0,1-.17-.15v0Zm.27-3,0-.17a.34.34,0,0,1,.2-.2h.1a.53.53,0,0,1,.28.29l0,.63a.41.41,0,0,1-.31.22h-.08c-.24-.15-.06-.52-.18-.77Zm1.49,4.94,0-.7c0-.13.13-.18.15-.36a.36.36,0,0,1,.42-.06A1.28,1.28,0,0,1,34,26.94s0,0-.06.06a.35.35,0,0,1-.34,0,.23.23,0,0,1-.13-.18ZM34,18.48s0-.06.06-.08c.64,0,1.42.36,2.12.39a7.19,7.19,0,0,1,3.52.52c-.53.2-1,.08-1.59.24a5.51,5.51,0,0,0-1.3.14c-.36.1-.66.06-1,.18-.56.1-1,.35-1.49.43A8.2,8.2,0,0,1,34,18.48Zm1.58,10c0-.06,0-.07.07-.13l.74-.34a1.21,1.21,0,0,1-.74.49H35.6Zm1.4-.14c.18-.35.46-.67.67-1,1.13-.53,1-2,2.14-2.6.6-.38,1.38.06,1.91.21l-.7.31a11.77,11.77,0,0,1-1.49,2.58L37,28.31Zm1.41,12A10.81,10.81,0,0,1,38.92,37a4.57,4.57,0,0,1,1.66-2.77,3.6,3.6,0,0,1,3,0,5.47,5.47,0,0,1,.6,1.12c.11.52.31,1,.46,1.52.15.39.18.8.29,1.17a3.67,3.67,0,0,1-.06,2.09c-.59.5-1.44.41-2.08.59-1.41.07-2.93.67-4.19.06l-.22-.46ZM39.66,29c.56-1.16,1.13-2.32,1.82-3.45a4.68,4.68,0,0,1,.78-.21,18.92,18.92,0,0,1-.88,3,1.59,1.59,0,0,0-.21.47c-.39.35-1,.18-1.49.21v0Zm2.67-1.76.52-2a9.45,9.45,0,0,1,3,.87c.1.28-.21.53-.32.78l-3.2.36Zm6,8.64,0-.5c.43-.5,1.27-.52,1.93-.7.56.1,1.24.07,1.61.47A6,6,0,0,1,52.27,39c-.4.1-.94.11-1.4.24a13.06,13.06,0,0,1-2,.2c-.15-.14,0-.39-.08-.57a6.29,6.29,0,0,0-.38-3Zm4-5a.43.43,0,0,1,0-.13.34.34,0,0,1,.36-.14,3.62,3.62,0,0,0,2.22.61.24.24,0,0,1,.13.21l-.1.17c-.57.22-1.27-.11-1.9-.22-.22-.18-.54-.29-.73-.47v0Zm.7-.36v-.22a1.87,1.87,0,0,1,1-.56.15.15,0,0,1,.11.13c-.11.41-.56.5-.85.73a.41.41,0,0,1-.31,0v0Zm1.63,4.19a.4.4,0,0,1,.17-.36c.39-.35,1-.29,1.45-.42a2.84,2.84,0,0,1,1.9.36,8,8,0,0,1,.24,3.77,2.6,2.6,0,0,1-1.34.5,5.65,5.65,0,0,1-1.59.11c-.54-.42-.2-1.24-.36-1.84a5.31,5.31,0,0,0-.24-1.56,1.67,1.67,0,0,1-.22-.56Zm1.16-3.27v-.13c.71-.13,1.56-.08,2.36-.24a.34.34,0,0,1,.1,0s.06.06.07.14l-.07.18a7.17,7.17,0,0,1-2.44.06s0,0,0-.06Zm1.45-7.57.43.07s0,0,0,.08l-.32,0-.13-.11Zm3.84,10.28a.91.91,0,0,1,.32-.77,5,5,0,0,1,2.65-.21c.18.17.25.45.42.66a4.17,4.17,0,0,1,.17,3.3c-.5.6-1.47.34-2.11.6a3.32,3.32,0,0,1-.84,0,.44.44,0,0,1-.25-.17c-.35-.82,0-1.73-.21-2.61a2.43,2.43,0,0,0-.15-.78Zm2.56-5.78.7-1.93a4.77,4.77,0,0,1,1.4.28,1.62,1.62,0,0,0,.61.22.7.7,0,0,0-.15.1l-.85,1.75a.29.29,0,0,1-.15.1l-1.54-.45a.15.15,0,0,0,0-.07Zm.06-3.11.08,0,.54,0c.1,0,0,.15,0,.21l-.63-.21Zm.66,16.66A8.79,8.79,0,0,1,67,41.87c.28.22.28.53.59.63.2.25.59.6,1,.45a.32.32,0,0,0,0-.39,1.2,1.2,0,0,1-.73-.63.38.38,0,0,1,0-.08s.06-.07.11-.08a.22.22,0,0,0,.11-.11v-.08l-.52-.2s-.1,0-.08-.1l2.44-.6,1.44.63a4.11,4.11,0,0,0-.64.35c-.45,0-.82-.13-1.26-.08a.21.21,0,0,0-.17.18.27.27,0,0,0,0,.1c.27.25.81.06,1.16.31-.27.91-1.35,1.65-2.1,2.23a8.9,8.9,0,0,0-1.47,1.09c-.25,0-.41-.28-.59-.43a11.42,11.42,0,0,1-1.83-3.1Zm.41-16.23.32-.6c1.89-.75,4-1.37,6-2,.28.22.64.1,1,0s.5-.11.74-.2c1.3-.36,2.54-.66,3.78-.95.54-.21,1.15-.35,1.66-.54,1.13-.31,2.18-.74,3.27-1a31.34,31.34,0,0,1-2.29,3.81l-.08.06a21.9,21.9,0,0,0-3.45,0c-.81-.07-1.59.06-2.37,0a54,54,0,0,0-7,.75.42.42,0,0,0-.36.25l0,.18a.29.29,0,0,0,.32.14c1.19,0,2.32-.43,3.45-.47,1,0,2.1-.45,2.92,0a8.26,8.26,0,0,1,1.22,1.72,9.8,9.8,0,0,1,.7,1.84,21.74,21.74,0,0,1-3.52-.91l-6.27-2a.14.14,0,0,0,0-.06Zm1.08,3.24.7-1.93,3.62,1.12s0,0,.06.08-.15.31-.06.46l.7.27c.1.21.35.28.47.52a1.94,1.94,0,0,1,.87,1.06c-.41.25-.85-.1-1.26-.06-.85-.17-1.59-.42-2.4-.64-.54-.15-1.08-.28-1.58-.46a5.22,5.22,0,0,0-.84-.21.64.64,0,0,1-.27-.15.14.14,0,0,0,0-.06Zm.75,10.84a13.41,13.41,0,0,1,1.93-.53c.13,0,.2,0,.24,0a1,1,0,0,1,.18.43,8.75,8.75,0,0,1-2.18.45l-.17-.35v0Zm.27-3.52c0-.5.43-.81.61-1.2a7,7,0,0,1,2.68-1.82,2.41,2.41,0,0,1,1.93,1.54,2.66,2.66,0,0,1,0,1.83,2.49,2.49,0,0,1-1.23,1.48,1.66,1.66,0,0,1-1.24-.21c-.08-.11-.14-.2-.24-.22a1.53,1.53,0,0,1-1.09-.27,3.51,3.51,0,0,1-1.37-.95.82.82,0,0,1-.06-.18Zm1.17-4.06,1.42.28c.1.1,0,.28,0,.42l-.92.36c-.07-.39-.13-.91-.53-1Zm1.66,7.51a2.77,2.77,0,0,0,.92.6l-.6-.2-.29-.34s-.1-.14,0-.07Zm.47-7.28a2.42,2.42,0,0,1,1.21-1,.67.67,0,0,0,.34-.1l.17.08.56-.28A4.14,4.14,0,0,1,72.71,33a.33.33,0,0,0,.2.2H73a.32.32,0,0,0,.22-.34A11.45,11.45,0,0,0,73.1,31l1.9-.38c.08.11.08.29.27.35a.35.35,0,0,0,.28-.24,1.55,1.55,0,0,1,.07-.2,3.16,3.16,0,0,1,1.23-.21c.14.46.17.95.29,1.44A2.92,2.92,0,0,1,76.85,34a1,1,0,0,0,.5.7,16.16,16.16,0,0,1,4.19.94,4.81,4.81,0,0,1-1.2,3.21,2.64,2.64,0,0,1-1,.64s-.07.06-.08.1l-1.34.7-.8.1-.14-.6c-.06,0-.06-.06-.14-.07h-.1l-.36.66c-.21.21-.68.21-1,.24,0-.46.22-1,0-1.42a.17.17,0,0,0-.17,0l-.32,1.45a7.92,7.92,0,0,1-2.71.21c-.46-.15-1-.1-1.31-.38a2.23,2.23,0,0,0,1.7-.63c.27-.5.77-1.12.54-1.76-.13-.24-.47-.18-.7-.24-.07,0-.1,0-.14,0,.07-.42.5-.67.5-1.2a3,3,0,0,0-.25-2.5,3.54,3.54,0,0,0-2.35-1.66v-.06Zm1-3.94a17.83,17.83,0,0,1,3.6,1.17.37.37,0,0,1,.1.29l-2.05.46c-.42-.36-.57-1-1.17-1.37l-.49-.54Zm2-3.62,6,.06a8.71,8.71,0,0,1,.54.75A10.29,10.29,0,0,1,80.09,27,7.26,7.26,0,0,1,80,29.37a4,4,0,0,1-.24,1c-.5.13-1-.32-1.54-.32-.28-.18-.57-.22-.87-.38a.33.33,0,0,1-.18,0c-.56-1.62-.95-3.37-2-4.48l-.2,0c0,.06-.06.06-.07.13a13.88,13.88,0,0,1,1.61,4.06c-.31.06-.74-.22-1.1-.32-.5-.54-.54-1.41-.94-2a9.23,9.23,0,0,0-1.34-2.19Zm1.7,11.89c.25-.61,0-1.31.17-1.9a.34.34,0,0,1,.39,0c0,.08.06.1.07.15a8.68,8.68,0,0,1,.07,1.08,2.91,2.91,0,0,1-.24.78A.34.34,0,0,1,75,37a.29.29,0,0,1-.13-.21Zm.5.46a.15.15,0,0,1,0-.07l1.42-.94.22.08s0,.07.07.1c-.18.6-.07,1.4-.53,1.84a1.85,1.85,0,0,1-1.09-.6l-.13-.42Zm.14-3c.08-.18.13-.46.38-.53h.14a.8.8,0,0,1,.31.61c-.07.22-.13.38-.31.43a1.65,1.65,0,0,1-.2,0l-.24-.14-.08-.42Zm.61,3.13s0-.08,0-.08l.24-.08c.1.06,0,.17,0,.25s0,0-.08,0l-.17-.07v-.06Zm1,1.63.13-.87c0-.06.13-.06.2-.06a.61.61,0,0,1,.24.22l-.2.82c-.06.08-.18.06-.28,0a.24.24,0,0,1-.08-.15Zm.27-8.28v-.18a18.51,18.51,0,0,1,3.17,1l-2.82,1.2-.35-2Zm2.12,2,0-.06c1-.36,2.1-.7,3.07-1a1.5,1.5,0,0,1,.66.14,1.33,1.33,0,0,0,.1.14c.1.08.29,0,.41,0l1.93.6-.1.31.1.18c3,.85,6.3,1.76,9.3,2.64.49.17,1,.21,1.48.41.91.2,1.87.46,2.75.74,5.75,1.66,11.76,3,17.35,5.06-2.35.43-5.07.67-7.53,1.37a1.38,1.38,0,0,0-.8-1v-.24c.1-.24.34-.31.6-.39a.24.24,0,0,1,.1-.06c.06,0,.1-.1.14-.2-1.93-.91-4.34-1.12-6.34-2,0,0-.1,0-.14,0l-.14,0a7.34,7.34,0,0,1-1-.27c-7.37-2.07-14.69-4.13-22-6.31v0Zm.28,7.58.06-.22a.89.89,0,0,1,.38-.28c.1.15-.13.35-.28.5l-.08.06s-.13,0-.07-.06Zm2.32-3.3.25-1a6.85,6.85,0,0,1,2.37.56.1.1,0,0,1,0,.08c-.6.56-1.63.36-2.47.45h-.11s0,0,0-.06Zm2.12-5.59.36-.95c.07,0,.11.18.24.2l.8,0c.11,0,.08.13.07.22a8.46,8.46,0,0,1-.45.81l-1-.24ZM84.72,30a7.89,7.89,0,0,0,.52-5.11c.24-.14.66,0,1-.08a1.07,1.07,0,0,0,.36,0c.41,1.28,0,2.7-.25,4.05-.49.47-1.15.64-1.58,1.12l-.07,0V30Zm1.06-6c.63-1,1.23-2.05,1.91-3,.45-.54.74-1.09,1.13-1.63.61-1.06,1.52-1.91,2.16-2.93.06-.07.1-.08.14-.15a6.82,6.82,0,0,0,.52-.73c.32-.28.34-.6.64-.84.28-.53.8-.84,1-1.3a9.39,9.39,0,0,1,1-1.09l.41-.27c0,.5-.41.91-.39,1.42-.25,1.83-1.65,2.7-2.43,4.06-.18.21-.22.46-.45.6a5.22,5.22,0,0,1-.52.75c-.2.17-.21.35-.39.5-.39.52-.8,1-1.1,1.49A25.83,25.83,0,0,1,87,24.1L85.79,24v0Zm.53,5.85a1.41,1.41,0,0,1,.92-.47s0-.08.1-.13l.18-.1a.09.09,0,0,0,.13,0c.39-.56,1.24-.63,2-.95a12,12,0,0,1,4-.91c2.85.39,5.47,1.68,8.31,2.3a8.16,8.16,0,0,0,1.17.38,23.6,23.6,0,0,1,2.43.85,1.71,1.71,0,0,1,.81.29c-.8.41-1.76-.14-2.64.28-3.69-.34-7.36-1.9-10.92-1.62a1.13,1.13,0,0,0-.13.2.18.18,0,0,0-.06.08,45.71,45.71,0,0,0-5.36-.15c-.35,0-.66,0-.95,0l0-.06Zm1.49,2.85.46-.31c.14.08,0,.31.14.43a.12.12,0,0,1-.1.1l-.53-.2,0,0Zm.1-.94L89,30.47h.5L88.15,31.7a.85.85,0,0,1-.25.11v0Zm1.2-11.86.15-.17-.18.2,0,0Zm2.36,6.83.21-1.93a.32.32,0,0,0,.1-.07.31.31,0,0,1,0-.1c.81.2,1.84.32,2.23,1,.17.31,0,.56,0,.84a8.17,8.17,0,0,0-2.4.31h-.11a.15.15,0,0,0,0-.07Zm2.43-13.07.08-.22a.11.11,0,0,1,.1,0c0,.1-.06.2-.1.27s-.1.11-.08,0Zm10,33a3.69,3.69,0,0,1,1.3-1.2,1.88,1.88,0,0,1,1,.47,2.79,2.79,0,0,1-.11,2.78c-.15.15-.21.32-.35.45l-1.38-.38c.1-.31.45-.75.25-1.16a1.36,1.36,0,0,0-.6-.8c-.07-.08-.1-.08-.13-.14v0ZM106,45c.36-.18.85-.27,1.22-.46.53,0,.71.67,1.26.61.1,0,.15,0,.24-.07l.27-.24.28-.57.24.1.38.57.47-.06a.41.41,0,0,0,.22-.24l-.77-.87c.22-.18.54-.14.81-.27a34.42,34.42,0,0,1,7.72-1,8.37,8.37,0,0,1,.52.87,3.67,3.67,0,0,1,.18,1.37.53.53,0,0,1,0,.27l.08.22a7.13,7.13,0,0,0-.88.41c-.84.29-1.54.74-2.36,1-1.72.54-3.34,1.3-5.08,1.7.1-.77.67-1.75.21-2.51a.64.64,0,0,0-.25-.21c-.14,0-.27.11-.43.07a.31.31,0,0,0-.11.35,1.29,1.29,0,0,1,.28,1c-.18.45-.25.94-.63,1.21l-.07.29a12.31,12.31,0,0,1-3.09.74A4.53,4.53,0,0,0,107,46c-.2-.43-.61-.66-.94-1v0Zm2.21-.75a.54.54,0,0,1,.4-.13s0,0,0,.07l-.13.27-.2,0c-.06,0-.08-.07-.13-.17Zm2.32,12.51a1.1,1.1,0,0,1,0-.13s.13-.08.06.06,0,.07-.06.1l0,0Zm1.17-8A31.17,31.17,0,0,0,119.38,46h.08a.64.64,0,0,1-.25.6,17.81,17.81,0,0,1-6.45,2.63c-.36-.15-.81-.17-1-.46Zm.28-2a.56.56,0,0,1,.36-.56.39.39,0,0,1,.41.15.59.59,0,0,1,0,.38l-.47.39-.18-.06-.13-.31Zm6.79-5.39c0-.06.15-.07.22-.08s-.1.11-.14.15-.1,0-.08-.07Zm.46,1a6.9,6.9,0,0,1,2.05.18,2,2,0,0,1,.22,1.28,6,6,0,0,1-.42.49l-.56.25a.35.35,0,0,1-.1.11l-.32.15c-.06-.1.08-.13.08-.22s-.11-.07-.18-.08a4.9,4.9,0,0,0-.81-2.15Z"/></g></g></svg>