<svg xmlns="http://www.w3.org/2000/svg" viewBox="0 0 74.74 42.06"><defs><style>.cls-1{fill-rule:evenodd;}</style></defs><title>P-180</title><g id="Layer_2" data-name="Layer 2"><g id="Layer_1-2" data-name="Layer 1"><path class="cls-1" d="M35.63,20.7c0,.4.14.72.54.72h.06c.26,0,.91-2.16-.06-2.16-.34,0-.54,1.06-.54,1.44ZM72,33c0,.14.06.25.24.25s.17-.07.18-.24c.5.12,1.56.4,1.68.84l-6.05,2.3-.9-1.87L72,33ZM22.31,17.88c.14,0,.49.7.54.9-.24-.13-.72-.31-.72-.66,0,0,.1-.24.18-.24Zm8.22,5.64c-.95.2-2-.84-3.3-.84a20.68,20.68,0,0,0-3.27.8c-1.11.28-2.09.55-3.19.83-2.08.52-4.41,1.17-6.5,1.59S10,27,7.69,27.44A54.94,54.94,0,0,1,1,28.8,1,1,0,0,1,.54,28l24.88-7.12c.05-.13.07-.06.07-.2s0-.11-.06-.18c-.17,0-.1-.06-.24-.06s-.38.12-.72.12-.92-.88-1.14-1c.63-.94-.48-1.38-.48-2a1.75,1.75,0,0,1,1.26-1.2A21.78,21.78,0,0,1,27,17a6.6,6.6,0,0,1,2.23,1.43,1.79,1.79,0,0,1,.48.48c.18.24.28.22.52.38a9.31,9.31,0,0,1,1,.82c.37.38,1.62,1.46,1.66,2h-.18c-.88,0-2.16.54-2.16,1.38ZM27,16.44a3.29,3.29,0,0,1,.59-1.09,6.6,6.6,0,0,1,.85-.83L31,18.11c-.39,0-.6.25-1,.25,0,0-1.23-.94-1.4-1.06A13.62,13.62,0,0,0,27,16.44Zm14.46-3.66c0-.16.09-.18.18-.24l.57.76c-.32,0-.75-.2-.75-.46v-.06Zm11.82,2.94c-.78,0-1.84.7-1.86,1.5A10.64,10.64,0,0,1,49.69,17c-.26-.06-.53-.14-.75-.21s-.63-.31-.65-.31h-.06a6.52,6.52,0,0,1-1.26.3h-.12a5.73,5.73,0,0,1-2.16-.66c-.2-.09-1.81-.83-1.86-.9a1.39,1.39,0,0,0,1.08-.42c-.2-.38-.69-.44-1.08-.78.23-.05.36-.14.36-.42s-1.26-1-1.26-1.68c0-.34.77-1,1.19-1a12.39,12.39,0,0,1,1.83.33,15.53,15.53,0,0,1,3.26,1c.93.44,4.86,2.72,5.06,3.46ZM51,13.2c.68-.16,1.55-.51,2.26-.74s1.48-.45,2.23-.71c1.46-.49,3-.92,4.5-1.38L64.47,9c.88-.27,3.87-1.48,4.51-.53a20.1,20.1,0,0,0-2,.8L65,10c-1.29.52-2.66,1.12-4,1.56s-2.66,1.06-4,1.53c-.68.24-1.3.52-2,.75a18.36,18.36,0,0,0-2,.76L51,13.2ZM28.31,3a9.56,9.56,0,0,1,2-.84L28.58,4.29c0-.5-.27-.77-.27-1.28ZM24.47,1.92h-.06c-.36,0-.45.11-.78.12l-.08-.6h.38a8.17,8.17,0,0,1,2.8.8c1,.53,1.11,1,1.48,2.12a38.86,38.86,0,0,0,2.18,5A41.4,41.4,0,0,0,33,13.81s5.54.95,6.1,1c3.81.64,7.3,2.52,10.36,4a41.41,41.41,0,0,1,4.59,2.55c.76.48,1.42.95,2.16,1.44s1.33,1.21,1.93,1.61c0,.34.11.63-.08.88s-.52.08-.52.56v.06c0,.37,1.47,1.81,1.78,2.11s1.47,1.85,2.05,1.85h.42a5.8,5.8,0,0,0,1.14-.3c.38,0,2.46,2.91,2.78,3.4.45.67,2,3.29,2,4.16.39.58.31,1.19.54,1.68a1,1,0,0,1-.66.18h-.6l-3-.41,0-.08.79-.25A.54.54,0,0,0,64.9,38c0-.07-.12-.18-.24-.18h-.12a36,36,0,0,0-4.44,1.92,26.59,26.59,0,0,1-4.44,1.86c-.68,0-1.29-1-1.74-1.08v-.12a29.66,29.66,0,0,0,4.86-2.94c0-.93-1.94-2-2.64-2.4s-.95-.67-1.54-1-1-.66-1.51-1c-1-.61-2.23-1.27-3.25-1.79s-2.17-1.22-3.15-1.83-2.08-1.27-3.14-1.9l-.78-.48c-.29-.17-.58-.24-.85-.41-.46-.29-1-.71-1.44-1-1-.64-2-1.36-3-2.06-.4-.3-2.54-2.15-2.77-2.21V21.3c.34,0,.84-.13.84-.48,0-.09-.2-.18-.3-.18-.33,0-1.83.44-2.28.54l-2.4-2.28c.3-.45.93-.1,1.26-.72-.18-.27-.65-.63-1-1.08l-.84-1.2a11.09,11.09,0,0,1-1.56-2.52c.25-.48-.85-3.11-1.07-3.79a13.72,13.72,0,0,1-1-4A4.22,4.22,0,0,1,27,3.06c-3.69,0-6.61,1.38-10.2,1.38H16a.58.58,0,0,1-.42-.12,23.94,23.94,0,0,0,2.38-.5c.8-.18,1.56-.36,2.36-.52s1.61-.37,2.36-.52,1.94-.27,2.21-.67a.39.39,0,0,0-.36-.18Zm2.64-.12C28,1.6,29,1.26,29.88,1L31.32.67c1-.26.56,0,1.37,0l-1.59.67,0-.07A13.62,13.62,0,0,1,28,2.46c-.05,0-.31-.3-.42-.36a1.2,1.2,0,0,1-.42-.3ZM74.74,34.08v-.42c-.21-.14-.37-.4-.71-.61a4.94,4.94,0,0,0-.88-.38,3,3,0,0,0-2.09.08,32.41,32.41,0,0,1-4.13,1s-1.67-2.37-1.88-2.62c-.36-.43-.69-.81-1-1.23s-.85-.89-1-1.18c-.76-1.25-3.24-3.45-4.39-4.61a32.16,32.16,0,0,0-5.22-3.78,29.63,29.63,0,0,0-2.89-1.61c-.54-.27-2.57-1.37-3-1.46v-.12l.54-.17a12.94,12.94,0,0,0,3.23.71h.84c.85,0,2-.61,2-1.5,0-.74-.55-.78-.66-1.2L69.5,8.78c0-.21.07-.1.07-.32,0-.8-1.48-.86-2.22-.84a17.38,17.38,0,0,0-2.45.73c-1.49.4-3.31,1-4.82,1.54s-3.26,1-4.86,1.5c-.65.21-4.46,1.45-4.85,1.45h-.06c-.1,0-.84-.54-1-.64-.38-.2-.73-.32-1.12-.5a18.43,18.43,0,0,0-2.47-.77,10.39,10.39,0,0,0-2.75-.49c-.8,0-2.06.38-2.34.9l.33.91c0,1,0,1.21.75,1.48a3,3,0,0,1,1.19,1l-.78.07h-.78c-1.51,0-3.31-.73-4.8-1-2-.31-3.28,0-4.12-1.58-.35-.68-3.74-7.63-3.74-7.72a23.77,23.77,0,0,1,2-2.5c.56-.23,3-1,3-1.46L32.33,0h-.48c-.1.06-5.28,1.5-5.46,1.5C26,1.5,24.88,1,24.17,1,22.58.89,23.09,1,23.09,2.22L14.33,4.13c0,.51.44.7.8.89.56.28.67.14,1.31,0l2.83-.47a46.06,46.06,0,0,1,5.79-.81c.24.49,3,9.12,3,9.36v.66c0,.66-1.6,1.7-1.62,2.52h-.3c-.33,0-1.18-.67-2.12-.57-.57.06-2,.22-2,.75v.36l.06.48c-.16.23-.48.4-.48.78,0,.69.73.9,1.08,1.38s.89.89,1.14,1.26c-2,.46-4.06,1.2-6,1.73s-4,1.15-6,1.73-4,1.13-6,1.73c-1,.3-2,.57-3,.85l-1.5.42c-.3.09-1.36.28-1.36.56v.3c0,.52.57,1.38,1.08,1.38.3,0,2.81-.67,3.34-.8,1.12-.28,2.23-.55,3.35-.79,2.24-.49,4.5-1,6.69-1.52L21,24.71c1-.26,2.28-.49,3.33-.81.85-.25,2.57-.55,3.22-.86a6.61,6.61,0,0,0,3.91,1.12,3.52,3.52,0,0,0,1.86-.63,1.94,1.94,0,0,0,.28-1c0-.14-.29-.61-.35-.9l.36-.13c.24.9,4.53,3.87,5.5,4.59A31.32,31.32,0,0,0,42.27,28l3.14,1.84c2,1.21,4.43,2.39,6.6,3.48.89.45,6.18,3.16,6.18,3.84v.18c0,.38-4.64,2.42-5,3.06a5.76,5.76,0,0,0,2.34,1.62h.36c.36,0,3.09-1.34,3.69-1.58s3.42-1.6,3.62-1.6,1.09.25,1.49.31,1.07.2,1.57.23c1,.05,2.52.42,2.52-.84,0-.4-.48-1.25-.48-1.74s5.6-2.33,6.42-2.76ZM51,28.62c0,.68.51.8,1,1.07a12.72,12.72,0,0,0,1.42.68,20.1,20.1,0,0,0,2.95,1.25c.81,0,4.38-1,4.38-1.38,0-.76-1.3-1.93-1.75-2.39-.67-.67-1.16-1.68-2.32-1.82A32.3,32.3,0,0,0,53,26.4c-.81,0-1.3-.1-1.6.5A6,6,0,0,0,51,28.62Zm-3.42-1.5c0,.42.18.84.6.84h.18c.34,0,.66-1.38.66-1.8v-.3c0-.19-.6-.42-.72-.42-.42,0-.72,1.19-.72,1.68Zm-1.8-.3h.12c.3,0,.54-1.4.54-1.8V24.9c0-.52-.2-.5-.54-.66-.8.42-1.12,2.58-.12,2.58Zm-2.82-2c0,.42.11.84.54.84h.06a.75.75,0,0,0,.29-.06l.43-1.92c-.1-.15-.43-.54-.66-.54-.42,0-.66,1.18-.66,1.68Zm-2.1-1.08c0,.54.15.8.6.9.41-.22.6-1.48.6-2.1-.12-.18-.2-.36-.48-.36h-.12c-.37,0-.6,1.09-.6,1.56Zm-1.86-1v.06c0,.38.16.72.54.72s.9-2.34.12-2.34h-.06c-.41,0-.6,1.09-.6,1.56Zm-1.86-1.14v.12c0,.26.32.78.54.78.39,0,.48-.89.48-1.32v-.54a.87.87,0,0,0-.06-.3c-.25,0-.13-.06-.36-.06-.41,0-.6.86-.6,1.32Z"/></g></g></svg>