<svg xmlns="http://www.w3.org/2000/svg" viewBox="0 0 65.28 54.24"><defs><style>.cls-1{fill:#231f20;fill-rule:evenodd;}</style></defs><title>PA-31T</title><g id="Layer_2" data-name="Layer 2"><g id="Layer_1-2" data-name="Layer 1"><path class="cls-1" d="M11.52,0A103.2,103.2,0,0,0,.11.68a.62.62,0,0,0-.06.61C.89,2.46,3,1.78,3.72,3c2.83,4,5.45,7.7,8,11.72C10,15.19,8,15.18,6.44,16a17,17,0,0,0-2.33,1,1.13,1.13,0,0,0-.61.79,1.24,1.24,0,0,0,.24.63.27.27,0,0,0,.13.11c.58.39,1.38.49,2,.84-.11.19-.42.36-.24.71s.25.9.62,1.15a3,3,0,0,0,1.9.21,26,26,0,0,0,4.1-.27c.28-.08.5-.11.76-.19.76-.11,1.5-.21,2.24-.38.14.11.38.12.47.33s.06.19.1.29a.21.21,0,0,1-.17.19c-.9.3-1.79.44-2.68.75C9.74,23.35,5.87,23.87,4.34,27a2.57,2.57,0,0,0,0,1.79,2.89,2.89,0,0,0,.7.67,17.71,17.71,0,0,0,5.49.73c1.14.08,2.21.15,3.34.13L21.12,30c.1,0,.14.1.18.17l2,1.07a.09.09,0,0,1,0,.08,9.19,9.19,0,0,1-1.6.7s0,.05-.08.1c-.76.19-1.17.8-1.81,1.12a10.25,10.25,0,0,1-1.18,1,.85.85,0,0,0,0,.86c.13.17.29.23.36.36a4.33,4.33,0,0,0,1.22.34,1.22,1.22,0,0,1,.21.05l.08.1.68.06s.06,0,.06.08-.15.14-.19.26a1.68,1.68,0,0,0,.4,1.14,1.81,1.81,0,0,0,.69,1c3.73.3,7.7-1.68,11.26-1.44,1.76,1.3,3.48,2.61,5.19,3.93C43,44.57,47.51,48,51.81,51.7v.11a3.13,3.13,0,0,1-.71.64c-.19.31-.46.65-.27,1.1.44.59,1.35.58,2.08.68,2.65,0,5.2-1.34,7.26-2.41a7,7,0,0,1,3-1.21.49.49,0,0,0,.15-.56c-.3-.16-.76.11-1.07-.13l0-.51.28-.43-.09-.25c-.68-.11-1.18.51-1.79.65-.12-.06-.2-.17-.35-.18a10.76,10.76,0,0,0-3.26.57l-.39-.33c-5.35-5.32-10.66-10.78-16-16.19-1.35-1.57-3.26-2.79-4.07-4.55,5-1.65,8.72-4.17,12.75-6.55a8.89,8.89,0,0,1,2,1.42c3.2,2.49,6.28,5.26,9.52,7.52a4.55,4.55,0,0,0,2.3.45c.75-.15,1.8.12,2.27-.43-1.14-1.25-2.68-2.35-3.92-3.62-2.75-2.31-5.46-4.83-8.16-7.26l-.26-.39c1.92-3,4.33-6.07,6.58-9.05.24-.56.83-.89.93-1.54a.73.73,0,0,0-.2-.2C58.13,9,56,9.16,54.72,11c-.76.75-1.65,1.38-2.37,2.18a28.25,28.25,0,0,1-3.39,3c-2.68-2.26-5.46-4.34-8-6.57l-.09-.08s0,0,0,0l-.15-.08a19.21,19.21,0,0,1-1.92.23c-.38,0-.84,0-1,.34a1.09,1.09,0,0,0,.2.78c2,2.21,4.52,4.08,6.51,6.44a.09.09,0,0,1,0,.08,28.28,28.28,0,0,1-4.07.21c-2.19-.1-4.36-.31-6.51-.21-.29.06-.53,0-.72.14a28.92,28.92,0,0,0-6.79.27C19.78,15.33,14.95,7.48,9.13,2.85a1.26,1.26,0,0,1-.3-.35A8,8,0,0,1,12,1.71c.08-.05,0-.19,0-.28a2.42,2.42,0,0,1-.47-.57l.09-.18.1-.43s0-.05.05-.11S11.6,0,11.52,0ZM9.33.61C8.06.75,6.78.59,5.48.75l.4.06L6,.93S6,1,6,1A12.15,12.15,0,0,0,9.35.62ZM4.67.79,3.83.91c-.09,0,.08,0,0,.05L5.42,1,4.81.91S4.74.86,4.73.8Zm6,.25a18.88,18.88,0,0,1-5.62.73A16.84,16.84,0,0,0,3,1.64s0,0-.08.06H2.83s0,0-.08-.06H2.31a13.11,13.11,0,0,0,7.81-.17c.27-.15.58,0,.85-.12l0-.25L10.72,1ZM8.12,2.68a19.74,19.74,0,0,1-3.28,0,.07.07,0,0,0-.08.05c2.72,3.93,5.51,7.81,8.32,11.7.07.06.11.13.17.14a24.79,24.79,0,0,1,4.44.29c.08,0,.12.09.16.15s0,0,0,.05a35.3,35.3,0,0,0-6.37.27,40.62,40.62,0,0,0-4.37.83l.56,1v.1a.24.24,0,0,1-.14.15l-.44-.2c-.24.23-.55-.06-.85.1l-.5-.14s0,0-.06.06-.39.17-.58.11c-.23.26-.59.23-1,.23H4c-.11.06-.08.24,0,.35s.38.18.46.3.1-.12.18-.12l.18,0,.17.15.58.06s.05,0,.06-.08a.25.25,0,0,1,.3,0c.12,0,.27-.13.39,0s.16.14.28.14,0,0,.08-.06l.39.1.15-.05c.19,0,.33.25.57.15a.26.26,0,0,0,.11-.13l-.14-.5a.26.26,0,0,1,0-.1s.06-.05.12-.06a.75.75,0,0,1,.41.39c.08.49.72.69.5,1.21,0,0,0,.05,0,.05l.58-.05c.08,0,.08-.13.14-.18l0-.21s0,0-.08,0,0,.16-.08.2-.28.07-.39,0a.55.55,0,0,1-.21-.31c0-.18.21-.25.36-.32a116.43,116.43,0,0,0,12.08-.44,4.34,4.34,0,0,0-1.24-1.63c-.34-.25-.66-.59-1-.83l-.05-.06a.44.44,0,0,1,.21-.23l.15,0a.57.57,0,0,1,.43-.16c1,.77,1.49,1.9,2.53,2.53l.39.46a.28.28,0,0,1-.13.31c-.12.12-.3.09-.39.19L23.94,18l-7.14-7C13.87,8.14,11,5.58,8.16,2.69Zm51.4,6.9c-.8.1-1.8-.24-2.47.29.05.12.27.08.3.25a.33.33,0,0,1-.23.2c-2.46,2.06-5,4.41-7.43,6.69-.15.16-.3.31-.56.25-4.23,1.34-8.89.69-13.33.54-.2.06-.35-.15-.51,0a3.43,3.43,0,0,1-.76.28,9.27,9.27,0,0,1-1.29,1.73h-.06a.24.24,0,0,1-.11-.24,10.53,10.53,0,0,0,1.18-1.79c-.23-.15-.56,0-.79,0a19.52,19.52,0,0,0-1.16,1.68.34.34,0,0,1-.23.29l-.15-.06c0-.47.4-.84.58-1.22.12-.16.3-.3.24-.5H30.67A55.62,55.62,0,0,0,23,19a14.8,14.8,0,0,0,2.86,2.81L26,22c.25.31.78.5.78,1-.26.4-.83.47-1.12.88a3.14,3.14,0,0,0-.36.2,8.69,8.69,0,0,1-1.81,1.05c-.88-.72-1.79-1.48-2.68-2.27-.1,0-.17.14-.23.25l-.11.61.18.35-.07.13c-.14.17-.39.1-.57,0s-.32-.43-.15-.67c.06-.08.18,0,.26-.08l.11-.58a.24.24,0,0,1,.14-.15.24.24,0,0,0,.08-.2.66.66,0,0,0-.28-.29c-.3,0-.6.19-.89.08a.28.28,0,0,1-.31,0,1,1,0,0,1-.59-.54.22.22,0,0,1,.14-.18c.35.06.62.38,1,.3a1.45,1.45,0,0,0,.26-.09c-.06-.3-.42-.56-.65-.76A64.79,64.79,0,0,0,8.78,24.18c-1.67.73-3.36,1.35-4.05,3.14a2.45,2.45,0,0,0-.05.46c.2.15.59.13.83.31,10.06,1.13,20.1-.5,30.14-2.07l2.28-.35c4.53-.69,7.33-3.33,10.73-5.23a8.68,8.68,0,0,1,1.19-.92l.1-.16.14,0c0-.15.3-.16.39-.38,0,0-.06-.08,0-.13l.48-.18.23-.3c0-.05.13-.05.19-.11s.05,0,.05-.1l.46-.5h-.27s-.05,0-.11-.06a.25.25,0,0,1,0-.08.27.27,0,0,1,.16-.11l.11,0a.13.13,0,0,1,.07-.08.15.15,0,0,0,.09,0,.19.19,0,0,1,.1-.08c.09,0,.12.17.17.27.26-.13.45-.41.75-.56a1,1,0,0,0,.39-.45A24,24,0,0,0,59.61,9.7s0-.06,0-.08,0,0-.06,0Zm-19.33.69-1.82.1c-.08.15.16.29.25.41a.47.47,0,0,1,.57.05c2.18,2.15,4.47,4.43,6.68,6.48a4,4,0,0,0,2.26-.68c0-.14-.14-.26-.23-.34-2.61-2.06-5-4.41-7.71-6ZM18.52,15.09h-.19l.47.09v0l-.28,0Zm33.15,2.11a.24.24,0,0,1,0,.1c.05,0,0-.05.05-.1Zm1.34.88-1.44,1.08L52.3,19l.58-.55v-.11s0,0,0-.05H53s0-.05,0-.11l.09-.14Zm-4.11,0-.13,0a.12.12,0,0,0,0,.11l.13-.11a.06.06,0,0,1,0,0Zm3.5.65a.16.16,0,0,0-.09.05s0,0,0,.08-.12.06-.19.09l.18,0s0,0,0-.09l.11-.08Zm-30.87,0a7.12,7.12,0,0,0-.82.13c-2.67.39-5.3.11-7.93.47l-.05.32c0,.12.15.27,0,.39l-.11.08c-1.33,0-2.95.52-4.07-.26l0-.05v-.23c0-.06-.08-.08-.14-.06-.67.23-1.49-.25-2.07.06A5,5,0,0,1,6.84,21c3.65,0,7.4-.87,11.07-1.28a19.94,19.94,0,0,1,2-.33s.06,0,0,.05a29.82,29.82,0,0,1-3.5.89c-.15.05-.3,0-.39.13s-.06,0-.06.1.06.48.27.57a11.85,11.85,0,0,0,3-1c.55-.34,1-.67,1.58-1a3.4,3.4,0,0,1,.63-.29Zm27.84.06a.08.08,0,0,1-.05.06h.12s0,0,0-.08Zm2.8,1.22a13.88,13.88,0,0,1-1.85.32A2.46,2.46,0,0,0,49,21.1a2.47,2.47,0,0,0,1,.82.94.94,0,0,1,.54-.35h.06c3.57,3,7.21,6,10.75,8.94l-.08.15c.72.5,1.72.2,2.6.24l.08,0-.06-.2c-3.73-3.51-7.82-7-11.66-10.54Zm-3.83,1.35c-3.31,1.65-5.94,4.72-10.25,5.07-3.39.69-6.77,1.26-10.09,1.63-3,.19-6,.73-9.05.8a60.52,60.52,0,0,1-6.53.25c-.7-.05-1.36-.08-2-.15A35,35,0,0,1,5,28.64c-.08,0,.08.05,0,.06a5.61,5.61,0,0,0,2.16.85,102.08,102.08,0,0,0,15.05-.16l.23.11c1.43-.2,2.74-.13,4.18-.32.6,0,1.15-.17,1.72-.12a.12.12,0,0,1,0,.06c-2,.3-4,.54-6,.64.11.1.29.13.41.25.82.31,1.65,1.12,2.62.84a22.46,22.46,0,0,1,5.61-.6.34.34,0,0,1,.12.14s0,0,0,.08-.26,0-.4.09a27.16,27.16,0,0,0-3,.31,23.52,23.52,0,0,0-3.08.69,20.89,20.89,0,0,0-2.1.73.1.1,0,0,0,0,.08l.45.43v.08a2.29,2.29,0,0,1,.7,1.36s0,.07-.12.09l-.15,0L23.18,34a.68.68,0,0,1-.3-.28,1.28,1.28,0,0,1-.75,0c-.17.11-.36,0-.54.13a.28.28,0,0,1-.12,0c-.05,0-.1.13-.2.16-.31.35-.92,0-1.36.35-.06,0-.09.14-.14.19s-.13,0-.18,0-.11.19-.23.27c.38.18.82-.12,1.16.12.08,0,.11.08.18.06s.15-.24.31-.3a.59.59,0,0,0,.33-.12l.28.08a.16.16,0,0,0,.15-.11c.24-.16.58.09.85-.08.17,0,.26.18.36.23l.28-.06.08-.12c.09-.05.24-.16.35-.08a.47.47,0,0,1,.06.11,18.79,18.79,0,0,0,5.56-.32c2.35-.4,4.71-.57,7-1.18l.49-.06a.12.12,0,0,0,0,0l-.72-.69,0-.13L34.75,31c-.06-.2-.34-.31-.34-.58l-2-.21a12.12,12.12,0,0,1,2.84.08c.85.42,1.58,1.44,2.27,1.9.18.39.78.62.83,1l-.06.12-.12.05a.41.41,0,0,1-.24.29,20.85,20.85,0,0,0-2.3.36c-2.11.44-4.25.72-6.33,1.14a.18.18,0,0,0,0,.18c.12.14.36.35.29.61a8.07,8.07,0,0,1-3.75.41,1.86,1.86,0,0,1-.94-.41c-.06-.21-.3-.18-.45-.26a23.35,23.35,0,0,1-2.71.32c-.09.15.08.34.08.54s.24.49.34.75.06.27,0,.4l.17.32a5,5,0,0,0,2.39-.15c1.29-.3,2.55-.42,3.8-.68s2.66-.49,4-.84c.2-.07.43-.07.57-.19A35.1,35.1,0,0,0,37,34.25a.13.13,0,0,1,.12.08A14.68,14.68,0,0,1,34.57,36c5.7,5,11.69,9.83,17.52,14.63a4.4,4.4,0,0,1,.56.54,23.84,23.84,0,0,0,3.44-1.22.17.17,0,0,0,0-.06,32.06,32.06,0,0,0-2.83-2.94c-5.4-5.4-10.48-10.64-16-16.2-.7-.64-1.52-1.3-1.47-2.32.12-.26.47-.2.69-.38,4.8-1.36,8.18-3.79,11.93-5.93.13-.13.26-.16.34-.27l-.4-.4Zm-6.48.69c-.21,0-.47.06-.7.06-.4.17-.82.21-.92.6a3,3,0,0,0-.34,1,.6.6,0,0,0,0,.72,4.21,4.21,0,0,0,1.57-.48,2.47,2.47,0,0,0,.64-1.53c0-.19-.05-.32-.24-.4Zm-3.79.31c-.44,0-.89.21-1.35.24a.64.64,0,0,0-.39.55c0,.46-.38.85-.26,1.3a.4.4,0,0,0,.06.42,3.61,3.61,0,0,0,1.65-.3,2.73,2.73,0,0,0,.63-1.89.33.33,0,0,0-.21-.27l-.14,0Zm-8.89.27a2,2,0,0,0-1.84,1.05c-.28.83-1,1.36-1.22,2.22,0,0,0,0,0,.08a.19.19,0,0,0,.12.08,16,16,0,0,0,2.86-.53c.26-.85.83-1.85.58-2.74a.34.34,0,0,0,0-.08l-.48-.09Zm4.93.16a2.68,2.68,0,0,0-1.71.46,4.47,4.47,0,0,0-.68,2.11v.08c.15.19.48.08.71.05a5.37,5.37,0,0,0,1.2-.35c.48-.16.54-.76.73-1.18,0-.4.23-.86-.13-1.13l-.13,0Zm-8.33,1.63-1.48.85a.79.79,0,0,0-.19.67c.27.18.71.12,1.08.18a.44.44,0,0,0,.13-.06,7,7,0,0,1,.77-1.39L26,24.6l-.23-.1Zm-5.11,8.7s0,0-.06,0,.08,0,.11-.06l0,0Zm3.83,3.52h-.43a10.62,10.62,0,0,0,3,.32c-.84-.17-1.73-.18-2.59-.31ZM61.57,49.38a.38.38,0,0,0-.32.17.08.08,0,0,0,0,.06h.3c.08,0,.08-.08.08-.14l-.09-.1ZM59,49.84c-.55.1-1.09.25-1.66.39a11,11,0,0,0-2.22.71s0,0,.08,0,0,0,0,.06a.47.47,0,0,1-.18.2l.54,0,.23-.23.31-.24a.1.1,0,0,1,.09.05.36.36,0,0,1-.24.29l-.18.25a1.58,1.58,0,0,1-1,0s0,0-.05-.05.06-.1.14-.12.08-.12,0-.18a8.88,8.88,0,0,0-2.15.82c-.05,0-.07.14-.13.19l-.26.14-.11.18c.08.21.36.28.61.34A15.71,15.71,0,0,0,60.6,50.4c.08-.08.15-.13.15-.17a.18.18,0,0,0,0-.08l-.54-.06L60,50c-.35,0-.73.12-1-.13Zm3,.33c-.05,0-.17.09-.21.2l.41-.08c0-.09-.11-.09-.18-.14Zm-5.85,2.95H56.1c0,.05.06,0,.12,0s0,0-.06,0Zm-.39.12c-.78.12-1.59.25-2.39.31a5.34,5.34,0,0,1-1.15-.19s0,.08,0,.13l.51.08c.19.24.56.12.83.09a9.83,9.83,0,0,0,2.23-.4Z"/></g></g></svg>