<svg xmlns="http://www.w3.org/2000/svg" viewBox="0 0 71.79 24.16"><defs><style>.cls-1{fill-rule:evenodd;}</style></defs><title>PA-31T-1</title><g id="Layer_2" data-name="Layer 2"><g id="Layer_1-2" data-name="Layer 1"><path class="cls-1" d="M26.29,11.75c0,.26.63.85.84,1,.25-.17.42-1.07.42-1.5,0,0-.15-.12-.18-.12a2.15,2.15,0,0,0-1.08.66ZM31.57,22l-.42-.06v-.08l.42.14Zm1.2-.72v-.12h.36v0l-.36.07ZM29,21.21l1.82.53,0,.07-1.8-.6Zm5.3-.16c.59,0,1.14.18,1.14.72s-.33.54-.82.62c-.33.06-1,.24-1.17,0,.58,0,1.68-.1,1.68-.66s-.31-.66-.84-.66V21Zm.72-.18c.33-.08.73-.36,1-.36h2.58c.44,0,.88.32,1.32.36A3.9,3.9,0,0,1,36.31,24a3.4,3.4,0,0,1-2.64-1.26c.79,0,1.92-.09,1.92-.9v-.18c0-.46-.43-.55-.6-.78ZM31.57,22l.54.06c0-.3-.47-.29-.8-.4l-1-.3c-.59-.2-1.28-.49-1.84-.62a.59.59,0,0,1,.42-.12h.36A13.76,13.76,0,0,1,31,21c.38.06,1.58,0,1.61.43a.35.35,0,0,0-.3.36c0,.87.64.43.89.83l-1.06-.23L32,22.14,31.57,22Zm-3.91-1.28a2.12,2.12,0,0,1,1.14.41l-1.14-.41Zm-24.6.18c0,.44.18.3.18.44a.45.45,0,0,1-.48.48H2c-.84,0-1.49-1.2-1.8-1.8.47-.23,21.34-1.62,23.53-1.62,1.6,0,5.55,1.13,6.12,2l-3.06.19a1,1,0,0,0-.48-1L3.06,20.9Zm30-1.72a8.8,8.8,0,0,0,2.46.48v.12L33,19.42v-.24ZM30,19.12c.26.06.33.18.66.18h1.08v.17l-.54.07h-.48c-.37,0-.52-.17-.78-.24l.06-.18ZM40,18.23c.68.33,11.5,3.66,12,3.66h.3a1.46,1.46,0,0,0,.84-.24c-.47,2-6,.93-7.68.6-.64-.13-1.25-.29-1.89-.45s-.57,0-.76-.44a2.62,2.62,0,0,0-.52-.67,9.46,9.46,0,0,0-1.35-1c-.8-.53-.79-.22-.95-1.45ZM33.85,18a3.35,3.35,0,0,1,1.51.89l-1.6-.77,0,.06c0-.09,0-.18.12-.18ZM56.36,18l.36.48a2.46,2.46,0,0,1-2.1.73l-.54-.07c.07-.26.11-.12.53,0a2.35,2.35,0,0,0,.77,0c.44-.08,1.1-.15,1.1-.64v-.06a.61.61,0,0,0-.12-.36Zm-21.61-.18c1.16,0,3.75,1.38,3.84,2.46H36.19l.42-.54c-.68-1.43-.88-1.07-1.86-1.92Zm19.75.3a1.74,1.74,0,0,1-.54.36h-.18l-.54-.07a3.61,3.61,0,0,1-.18-.89v-.18H54l.24.78ZM32.89,20.92c-.32.15-.36-.81-.36-1.2v-.06a5.08,5.08,0,0,1,.55-2.24l.59.2c-.36.53-.64.57-.85,1.42a3.67,3.67,0,0,0-.08,1,5.4,5.4,0,0,1,.16.86ZM30,19.12l-.18.18c-.53,0-2.21-.85-3-1.06a15.76,15.76,0,0,0-3.58-.5h-.25l.07-.26-.49.14,0,.07c-.1,0-.24-.07-.24-.18,0-.61,4-.72,4.92-.72h.6a24.85,24.85,0,0,1,2.64.12c.68.08,1.92.4,2.41.42,0,.37-.41,1.05-.48,1.68a5.52,5.52,0,0,0,.12,1.91,7.28,7.28,0,0,1-1.41-.15c-.9-.17-.61,0-1.07-.55a5.17,5.17,0,0,0-2.11-1.13,21.09,21.09,0,0,0-2.56-.68c-.67-.13-2.31-.16-2.64-.6a19.41,19.41,0,0,1,4.4.76c1.16.35,2.67,1.28,3.94,1.28a.62.62,0,0,0,.42.18h.12c.23,0,.54-.23.54-.42v-.24c0-.72-.77-.48-1.38-.48h-.12s-2.3-.86-2.7-1a13.52,13.52,0,0,0-3.18-.54h-.78l-.9.07v.06A18.74,18.74,0,0,1,30,18.83l-.12.16.11.13Zm23-.78c-1.46-.34-1.3-.22-2.28-1.08h2.1L53,18.34ZM33.93,16.27a29.21,29.21,0,0,0,3.35,1.1c.59.16,1.11.37,1.69.53.78.22,1,.22,1,1.22a15.86,15.86,0,0,0-3-1.25c-.63-.17-1.05-.27-1.76-.4a6.18,6.18,0,0,0-1,0c-.49,0-.52-.15-.9-.18l-.06-.05.74-.94Zm22.78.44h0c-.61,0-2.47-.1-2.52-.6l2.51.59ZM35.29,15.53a2.76,2.76,0,0,1,2.09.13,2.44,2.44,0,0,1,1.51,1l-3.6-1.14Zm17.53,1.56H51.2c-.86,0-.73,0-1.26-.36-.26-.17-1.91-1.16-2-1.26,1.17.1,2.9,1.38,4.32,1.38l.52.22,0,0Zm4.08-1.74c.7-.06,2.31-.84,2.88-.84.32,0,.72,1.81.72,2.4V17c0,2.11-1.55,4.26-3.6,4.26h-.3a3.63,3.63,0,0,1-3-2,3.92,3.92,0,0,0,.78.18h.72c.63,0,1.8-.29,1.8-.9v-.12a.55.55,0,0,0-.42-.54,4.51,4.51,0,0,1,.73-.47c.34-.22.35-.34.59-.61-.34-.72-.64-.88-.9-1.38Zm-2-.47c.49.23,1.56.55,1.85,1l-2.05-.73.2-.22Zm-2.05,1.67c-.53,0-1.45.25-1.75-.11a3,3,0,0,0-1.34-.7c-.62-.24-2.8-.75-3.09-1a10.46,10.46,0,0,1,2.72.64c.46.15.8.28,1.22.46s.76.6,1,.58l1.2-.08v.2Zm.3-.66c.12-.25.45-1.56.72-1.56a7,7,0,0,1,.9.24c0,.15-.46.78-.6,1.08a3.56,3.56,0,0,0-.24,1.44H53c.07-.27.36-.32.36-.66a1.22,1.22,0,0,0-.24-.54Zm-3.54-2.12,4,.39-.67,1.64.06,0a3.46,3.46,0,0,0-.91,0,2.66,2.66,0,0,1-.79-.24c-.53-.18-1-.38-1.56-.54a14,14,0,0,0-3.52-.68L46,14l3.54-.22Zm4.38.32c.66-1,1.41-.88,2.65-1.19a1.72,1.72,0,0,1,1.51,0c.4.17,1,.7,1.12.74v.18l-3.36,1L54,14.09ZM33,17.15c-.56,0-1.62-.36-2.34-.42l-1.26-.12c-.81-.06-.49.07-1-.34a14.41,14.41,0,0,1-2.8-2.72l8.09,2.68-.65.92Zm21.24-3.73-.51.58-1-.21,1.51-.37Zm2.34-.8v.09l-1,.19v-.08l1-.21ZM7.8,12.29a78.32,78.32,0,0,1,8.52-1.44c1.39-.16,8.21-1.35,8.59.07L23.83,11c-.06-.11-.15-.32-.36-.29L9.72,12.5v.15l-1.38.14c-.13,0-.48-.4-.54-.5Zm50.18.3a29,29,0,0,0,3-.63l2.89-.65a26.25,26.25,0,0,1,6-1.11h1.08a.86.86,0,0,1,.72.24l-.71.44c-.08-.15-.12-.32-.31-.32h-.06c-.56,0-4.65,1.33-5.56,1.58s-1.84.54-2.73.81a25.45,25.45,0,0,1-2.75.79c-.12-.46-1.19-.87-1.5-1.14ZM27.19,9.41a53.1,53.1,0,0,1,8.55.58c1.38.23,2.59.38,3.91.65a25,25,0,0,1,3.54,1,4.23,4.23,0,0,1,2.45,2.11c.47.76.11.79,1,1.26.48.25,1,.54,1.46.82a17.86,17.86,0,0,1,2.74,1.82c.52.49,2,1.79,2,2.59h-.12a8.16,8.16,0,0,0-1.43-1.81,10.13,10.13,0,0,0-1.9-1.4,44.15,44.15,0,0,0-4.36-2.24H45a15.07,15.07,0,0,0-4.26.9c0,.41,1.17.46,1.55.55l1.67.43c1.15.28,2.15.66,3.2,1a22.73,22.73,0,0,1,2.95,1.25c.49.25.88.46,1.36.74.3.17,1,.84,1.34.7a.48.48,0,0,1-.48.36c-1,0-6.07-1.71-7.26-2.11s-2.39-.74-3.56-1.12l-1.77-.57c-.74-.24-.74-.65-1.29-1.06l0-2.43-2.11-.51c-.35.18-.31.47-.42.9A7.29,7.29,0,0,0,35.71,15c0,.14,0,.07.06.24-.41,0-.62.18-.9.18-.45,0-5-1.58-5.78-1.84-.94-.31-1.89-.68-2.85-.93S24,12,23.83,11.22L25,11.15h.18v-.42c0-.61,3.21-.2,3.82-.1,1.23.22,2.76.31,4,.45s6.86,1.13,7.26,1.68A1.38,1.38,0,0,0,39,14.09v.54c0,.47,0,1.5.42,1.5h.12a9.12,9.12,0,0,0,1.3-.68,6.87,6.87,0,0,1,1.45-.53,10.14,10.14,0,0,1,1.69-.29,17.71,17.71,0,0,0,1.92-.12,8,8,0,0,0-1.15-1.78c-1.1-1.15-1-.26-2.2-.74a23.36,23.36,0,0,0-4.58-1.36A60.4,60.4,0,0,0,27.19,9.47V9.41ZM31.63,9c1.15,0,8.19-1.17,8.4-.36H39.8V8.57a32.47,32.47,0,0,0-4.23.52c-.66.11-1.42.21-2.08.27A4.36,4.36,0,0,1,31.63,9Zm-8.57,1L20.9.18h.17A9.31,9.31,0,0,1,22,2.39c.25.76.54,1.51.81,2.31s.56,1.51.83,2.29c.2.58.48,1.94,1.12,1.94h.12a.55.55,0,0,0,.54-.6c0-.3-2.8-7.24-3.12-7.91.66,0,.62.18.84.6-.17,0-.24,0-.24.18s1.4,3,1.58,3.46c.26.61.5,1.15.78,1.74s.43,1.38,1.12,1.4c.31.58,1.69.7,2.45.85a22.88,22.88,0,0,0,2.65.59v.06l-3.06-.13a16.7,16.7,0,0,0-5.33.79Zm48.73.6v-.3a1.75,1.75,0,0,0-1.08-.3h-.36a28.1,28.1,0,0,0-6.88,1.22c-1.15.27-2.2.46-3.35.73-.57.13-1.13.26-1.67.37a5.62,5.62,0,0,1-1.73.13,3.85,3.85,0,0,0-1.62.42,3.8,3.8,0,0,1-1.47.52,16.42,16.42,0,0,1-1.66.39c-.54,0-1.2-.12-1.86-.12H48.86l-2.94.18a4.83,4.83,0,0,0-1.86-2,13.65,13.65,0,0,0-2.81-1,38.24,38.24,0,0,0-6.55-1.13V9.59a27.35,27.35,0,0,0,2.92-.38c.52-.09,2.67-.2,2.67-.63V8.39c-.4-.11-.47-.3-1.14-.3h-.06l-8.28.78c-.11,0-3.38-.74-3.74-.83-.57-.14-.75-.81-1-1.31s-.46-1-.72-1.56c-.49-1-1-2.07-1.48-3.08-.25-.51-.48-1-.76-1.52S21.94.28,21.49,0h-.72c-.17.36.83,4.33,1,5,.23,1,.82,4.38,1.12,5a56,56,0,0,0-8,.79l-3.8.59c-.6.09-1.27.2-1.89.33-.27.06-1.66.33-1.66.51s.39.57.54.66c.32.2.54.08,1,.06.65,0,1.48-.16,2.11-.24,1.31-.15,2.89-.42,4.14-.49s2.78-.36,4.14-.48,3-.48,4.14-.48a25,25,0,0,0,2.18,2.91A15.83,15.83,0,0,0,27,15.45c.3.3,1.23,1,1.37,1.15-1.17,0-6.36-.11-6.36.84,0,.36.62.59.84.78-3.81,0-7.76.67-11.53.72-1.8,0-3.88.36-5.7.42A39.72,39.72,0,0,0,0,19.84V20a4.73,4.73,0,0,0,.95,1.51c.59.59.84.54,1.82.46,1.4-.1,3.3-.24,4.62-.24,3,0,6.22-.5,9.18-.48s6.26-.5,9.24-.48a3.21,3.21,0,0,1,2,.35c.6.22,1.14.42,1.77.63a13.36,13.36,0,0,0,3.8,1c.75.5,1.2,1.38,2.64,1.38h.6A4.07,4.07,0,0,0,40,21a21.22,21.22,0,0,1,2.26.68c.76.23,1.55.42,2.34.6a24,24,0,0,0,5.13.75h.78c1.26,0,2.62-.31,2.86-1.34s-.68-2.26-1.12-2.91l1,.32a4,4,0,0,0,3.49,2.38,4.23,4.23,0,0,0,3.9-4.2v-.66A4.61,4.61,0,0,0,60,14.39a29.74,29.74,0,0,0,3-.89c.92-.31,2.07-.66,3-.91,1.1-.29,5.26-1.46,5.76-2ZM33.55,14.39c.43.49.88.27,1.44.54.37-.2.28-.39.38-.88a6.69,6.69,0,0,0,.22-1c0-.27-1.11-.48-1.44-.48s-.45,1.54-.6,1.86Zm-2-.6c0,.34,1,.41,1.26.48.5-.26.35-1.22.6-1.74a1.78,1.78,0,0,0-1.26-.42h-.06c-.32,0-.54,1.33-.54,1.68Zm-2.1-.66c.22.42.78.41,1.32.54a2.48,2.48,0,0,0,.48-1.56c0-.32-1-.41-1.26-.48-.42.28-.31,1-.54,1.5Zm-1.87-.48a1.53,1.53,0,0,0,1.15.48c.32,0,.51-1.17.54-1.5-.19-.28-.86-.36-1.37-.37l-.32,1.39Z"/></g></g></svg>