<svg xmlns="http://www.w3.org/2000/svg" viewBox="0 0 202 105.93"><defs><style>.cls-1{fill-rule:evenodd;}</style></defs><title>PA-46-500</title><g id="Layer_2" data-name="Layer 2"><g id="Layer_1-2" data-name="Layer 1"><path class="cls-1" d="M70.5,40.67a.9.9,0,0,0,1,1h4.24a.91.91,0,0,0,1-1V37.45c0-.49-.26-1-.73-1H71.53a.9.9,0,0,0-1,1v3.22ZM94,30l-1.75-2.57-3-4.36-.68,0L90,27.36l.23.72.05.17.63,1.95-.24.08-.24.08-.6-1.86c-2-.48-19.2.24-22.51-.28-1.82-.29-3.23-.22-5.07-.64a17.32,17.32,0,0,1-4-1.67,23.45,23.45,0,0,1-3.4-2.3c-.77-.7-2.37-2.37-3-2.79l-1.49.87L32.66,4.2l.11-.11h2.34C34.52,1.91,31,.55,27.93.78l-6.86.83C22.41,4.15,23.88,7,25.39,9.42s2.8,5.31,4.39,7.9,2.8,5.32,4.39,7.9c.66,1.08,4.37,7.24,4,8h.29v.73h1c4.5,0,10.26,1.22,12,3.81l-.44.14c.39.54.63.18,1.2.55a8.11,8.11,0,0,1,.81,1c.58.69,1,1.21,1.61,1.9A49.92,49.92,0,0,0,58.11,45a9.2,9.2,0,0,0,4.16,2.86c.79.34,4.58,2.11,5,2.15-1.42-1.23-3.36-2.33-4.94-3.69s-3-2.68-4.53-4.24a30.15,30.15,0,0,1-3.9-4.88c-.58-.88-1.36-1.75-1.84-2.55s-.69-2.74-1.2-3.19c-3.08-2.69-6.37-5.27-9-8.41-1.18-1.41-6.83-9-7.2-10.35.17.12,6.34,7.86,7,8.69a80.22,80.22,0,0,0,7.63,8.17c1.32,1.32,3.13,2.22,3.54,4.36.29,1.55,2.52,3.3,3.56,4.34a36.51,36.51,0,0,0,9.18,6.62,64.76,64.76,0,0,0,11.36,4.44,49.37,49.37,0,0,0,6.49,1.4c1.63.18,5.23.76,6.76,1.14,2,.51,4.66.71,6.83,1.07a64.74,64.74,0,0,0,7,.87c2.16.08,5.71.41,7.4.08a51,51,0,0,1,7.23-.67c4.76,0,7.92,1.4,12.87,1.47a68.77,68.77,0,0,1,6.91.26c2,.32,4.83,0,7,.18s4.57.4,6.59.58,4.6.67,6.43.74,4.42.48,6.41.76c1.46.21,4.92.85,6.32.85a7.34,7.34,0,0,0,3.07-.73c-1.11,0-5.09-1-6.65-1.25-2.44-.47-4.5-.59-7.07-1-4.17-.62-10.11-1.41-14.51-1.58-5-.2-10.25-.29-15.65-.29s-10.67-.32-15.8-.29c-2.28,0-5.17-.28-7.46-.44s-5.31-.28-7.4-.65c-1.92-.33-5.4-.72-7.23-.82a65.16,65.16,0,0,1-6.93-1.11A69.08,69.08,0,0,1,72.86,46.5c-1.42-.56-10.22-4.74-10.7-5.39.76.18,3.77,1.76,4.78,2.24,1.64.78,3.2,1.4,4.92,2.1,2.53,1,7.95,2.77,11.07,3,8.65.56,16.76,2,26.18,2h3.95c4.55,0,8.76-.29,13.16-.29h13.31c4.31,0,8.74.59,12.87.59,2.71,0,10.54.37,12.73.88.66-1.25,1.78-1.72,1.9-2a11.92,11.92,0,0,0,4.1-.58c.87-.44,2.31-1.46,3.36-1.46,2,0,4.39.37,4.39,2.34v.59c0,2.17-3.7,2.22-4.68,3.06l12-1.45c-.11-1.27-2.11-3.26-1.67-5.76.32-1.77,1.11-4.93,2.69-5.06A26.06,26.06,0,0,0,183.38,39a24.75,24.75,0,0,0-4.84-1.45,65.93,65.93,0,0,0-11.2-1.38c-3.6,0-7.92-.74-11.7-.73-2.11,0-4.08-.3-6-.29-2.8,0-2.84-.63-4.68-1.61-.56.37-2.3,2.34-2.93,2.34-.23,0-11.76-6.56-12-6.81l1.43-.94c-1.54,0-2.78-.59-4.38-.59h-4.68c-3.22,0-6.36.29-9.8.29-1.69,0-16.72.39-19.12.55l.91,1.33,0,0-.18.12L94,30Zm-4.54-2.6L88,22.91l-.1-.31.32,0,1.14-.06h.14l.08.12,3.25,4.75,32.06-.91a27.81,27.81,0,0,1,5.32.53c.88.16,1.61.24,2.49.43.63.14,1.8.8,2.13.8,0,0,17.55-12.85,19.25-14.11,3.24-2.4,6.41-4.64,9.6-7.07,2.5-1.9,9.54-2.52,14.15-2.52.63,0,1.61.48,1.61,1,0,1.87-4.9,6.38-6.18,7.72-2.29,2.4-4.67,4.66-7,7-1.63,1.63-13.74,13.36-14,14.08h.44a87.12,87.12,0,0,1,10.18.5c1.26.23,3.59.29,4.88.38,1.63.11,3.55.38,5,.44a44.22,44.22,0,0,1,9,1.66c1.3.43,6.82,2.91,6.93,3.9,2.66.06,5.45,1.56,7.31,2.49,2.45,1.23,4.26,2,6,4v.88c-1.66,1.92-7.66,3.4-11.11,3.66-3.63.27-3.24.5-5.7,1.76-1.65.84-3.29,1.62-5.07,2.39-2.5,1.08-8.38,3-11.75,3-4.61,0-9.66.44-14.48.44s-9.85,0-14.77,0c-2.56,0-9.59,1.92-12.37,2.55-4,.91-8.3,1.65-12.08,2.69-1.64.45-4.77.77-6.07,1.39-1.71.81-3.37,1.54-5.07,2.39C96.86,72.2,90,75.1,83.37,78.42c-3.3,1.66-6.7,3.06-10,4.73s-6.8,3.28-10.14,4.78c-6.73,3-13.38,6.43-20.14,9.56-3.4,1.57-6.69,3.07-10,4.73-1.72.85-3.35,1.61-5.07,2.39-1.23.56-6,1.24-6.14,1.32H18c-.32-.2-3-.43-3.66-.59-1.13-.28-2.33-.51-3.48-.76s-2.13-.7-3.2-1-2.23-1.12-2.83-1.26l-.07-.14L96,57.75c-2.79-.11-5.92-.42-8.53-.41-2.87,0-5.13-.81-7.46-1.32-4.44-1-8.61-3.47-12.57-4.84-1.68-.58-4.35-1.88-6.06-2.71a61.18,61.18,0,0,0-6.31-2.32c-1.78-.59-11.94-5-12.37-5s-15.44,5.52-17,6.14c-1.68.7-16.2,6.14-17,6.14H7.46a22.56,22.56,0,0,1-4-.35A17.16,17.16,0,0,0,0,52.23v-1a48,48,0,0,0,5.38-1.49,39.3,39.3,0,0,0,4.94-1.93c3.3-1.34,6.39-2.92,9.69-4.2,3.15-1.23,6.47-3,9.65-4.24,1.64-.64,3.16-1.39,4.83-2A6.53,6.53,0,0,0,36.69,36c1.32-1,.35-1.46.92-2.62L19.6.88,25.3,0h4.83c1.11.71,2.72,0,4.57,1.86,1.21,1.21,1.7,3.23,2.48,4,2.25,2.11,4.57,4.11,6.73,6.29,1.35,1.36,13,12.33,13.71,12.33,1.87,0,6.23-3.8,11.26-3.8h1.46c1.61,0,3.66.17,3.66,1.76,0,.86-6.2,3.91-6.87,4.83v.15H89.46Zm-82,75.05,3.07-.15H11a37.69,37.69,0,0,1,7.33.57c1.3.39,5.52,1.26,6.27,1.76l-2.92.31H18c-2.36,0-9.25-1.6-10.53-2.49ZM26,104.32l-.15-.44c-.68,0-6.55-1.7-7.78-2-2.34-.6-6.53-.47-9.48-.47.32-.43,47.47-23.2,52.46-25.65,8.78-4.32,17.48-8.6,26.28-12.78,4.77-2.26,8.1-4.28,13.68-5.78,4.58-1.23,11-2.9,16.7-2.9h1.9c3.68,0,17.4,3.28,18.43,4.68a68.06,68.06,0,0,0-8,1.76c-2.3.58-5.78,1.42-8,1.75-2.58.38-5.39,1.25-8,1.79a28.09,28.09,0,0,0-7.69,2.26c-8.79,4.44-18,8.23-26.72,12.63-4.36,2.19-8.95,4.1-13.31,6.29-2.18,1.09-4.41,2.06-6.63,3.17-2,1-4.71,2.4-6.74,3.21-4.5,1.81-8.89,4.51-13.31,6.29-2.16.87-4.62,2.1-6.67,3.13A45.39,45.39,0,0,1,26,104.32ZM76,53.83l.06-.2,6.25,1.89,0,.22L76,53.83Zm95.7-4.09c.25-.13,2.13-1.17,2.19-1.17h1.76c.81,0,2.19.28,2.19,1v1c0,.8-3.81,2-4.68,2.19a2.12,2.12,0,0,0,.15-.73c0-1.32-1.09-1.57-1.61-2.34Zm13.75-2.93c0-2.57.55-1.48,2.63-1.32,1.27.1,2.81.41,4.21.62,2.14.31,6.29,1.29,8.37,1.29l.46.72c-.67,1-1.57.95-3,.69-1.16-.2-2.45-.11-3.63-.32s-2.62-.17-3.63-.32c-.84-.13-1.21.21-1.63-.42-.25-.38-.43-.93-1-.93h-.44c-.75,0-1,.41-1.17,1l-1-.16a1.93,1.93,0,0,1-.15-.72v-.15ZM2,51.79c.44-.38,4.22-1.34,5.21-1.67,1.4-.48,3.28-1.39,4.72-2C15,46.8,18.15,45.33,21.31,44s6.31-2.64,9.41-4c1.83-.83,8.18-3.21,8.34-5.12h.73c2.88,0,9,1.17,10.09,2.63-1.46.34-3.65,1.39-5.25,1.92-1.79.59-3.48,1.31-5.27,1.9-3.44,1.14-6.91,2.59-10.38,3.81C26.47,46,9.3,52.69,8,52.52l-6-.73ZM58.95,25c2.85-1.51,6.29-3.51,10.53-3.51h.29c1.17,0,3-.07,3.22.88-1.47.39-6.73,4.68-7.9,4.68-1.75,0-5.48-1.15-6.14-2Zm77.38,3.36c2.68-2.33,6.31-4.63,9.24-6.85s6.22-4.75,9.28-6.81c8-5.38,9.16-9.3,22.73-9.3h.15a2.11,2.11,0,0,1,.73.15c0,1.61-5.52,6.76-6.76,8l-7.31,7.32L157,28.27l-3.66,3.66c-1.69,1.69-1.79,2.16-5.16,2.16H148c-.72,0-8.65-5.45-11.7-5.71ZM36,6c-.26-.14-.47-.18-.47-.57V5L36,6Zm82.32,29.13c-2,0-7.29.09-7.78,1.43-.21.57-.24,3.32-.38,4.16-.27,1.67.4,2.6,1.87,2.6h9.22c.59,0,1.61-.81,1.61-1.32v-.15c0-1.73-2.55-6.73-4.24-6.73ZM128.57,30l-3.28,2c-1,.6-2.64,1.15-2.29,2.55a33.9,33.9,0,0,0,3.41,7c2.25,2.35,4.74.43,7.18-.8S138,38.22,140.27,37a125.78,125.78,0,0,0-11.7-7ZM94.64,41a1.4,1.4,0,0,0,1.61,1.61h3.95c.87,0,1.46-.3,1.46-1.17V37.6a1.12,1.12,0,0,0-.88-.88h-5c-.87,0-1.17.59-1.17,1.46V41Zm-12.58-.29a1.1,1.1,0,0,0,1.17,1.17h4.1c.53,0,1.17-.4,1.17-.88V37.45a.91.91,0,0,0-1-1H83.08a.9.9,0,0,0-1,1v3.22Z"/></g></g></svg>