<svg xmlns="http://www.w3.org/2000/svg" viewBox="0 0 180.44 109.7"><defs><style>.cls-1{fill:#231f20;fill-rule:evenodd;}</style></defs><title>PA-42-1000</title><g id="Layer_2" data-name="Layer 2"><g id="Layer_1-2" data-name="Layer 1"><path class="cls-1" d="M49.16,109.7c1-.25,2.42,0,2.84-1a1.74,1.74,0,0,0-.28-1.72.61.61,0,0,1,.06-.28l32.8-15.49c3.32-1.49,6.53-4,10.47-2.65,2.48.45,4.76.2,7.12.79h.45c.23,0,.23.23.42.37,1,.2,2.25.39,3.41.68.51.28,1,.28,1.41.51a27.09,27.09,0,0,1,3.35.68c1.44.39,2.62.2,3.91.62a8.52,8.52,0,0,0,4.81-.93,5,5,0,0,0,2.14-1.07c.2-.34.28-1,.87-1.13.82-.17,1.44-.9,2.34-1.13.68-.48,1.32-.65,1.77-1.3a3.12,3.12,0,0,0-1.41-2.31l-.45-.68-2.7-2.2c-.11-.06-.17-.2-.23-.37L116,78.64c0-.17-.14,0,0-.23a17.71,17.71,0,0,1,2.17-.68c1.94-.28,4-1.49,5.8-.59a190.87,190.87,0,0,0,24.89,2c.42,0,.59.28.73.23,1.6-.37,3.29,0,5-.37,1.83-.06,3.77-.39,5.35-.48.73-.28,1.32-.23,1.89-.48a10.36,10.36,0,0,1,2.53-.42,10.09,10.09,0,0,0,2-.56c.79-.45,1.6-.7,2.34-1.13l.65-.93a2.62,2.62,0,0,0,0-2.11,30,30,0,0,0-6.48-6c-1.32-.39-2-1.44-3.18-1.75-1-.7-2.2-1.07-3.15-1.63-1.35-.59-2.76-1-4-1.41-1-.06-1.49-.59-2.28-.68-3-1.21-5.83-2.59-8.67-3.69a4.43,4.43,0,0,1,.7-3.13l10.39.79a.53.53,0,0,0,.28.28,13.9,13.9,0,0,1,3.32.31c3.72.42,7.77,1.8,11.29.65,1-.65,2.08-1.18,3-1.72.34-.23.25-.79.28-1.21l5.35-2.14,0-.56c-.17-.23-.53-.34-.62-.73l-.17-.56c-2.56-2.51-6.08-3.63-9.94-4.81-3.58-.73-7.18-1.13-10.67-1.6a1.15,1.15,0,0,1-.11-.25c.59-1.07,1.6-1.58,2.28-2.39,1.41-1.21,2.7-2.51,4.14-3.72l14.61-13.6c1.58-.37,3.8,0,4.73-1.49.06-.31-.2-.51-.25-.87-1.21-1.24-3.58-1.21-5.32-1.77-4.14-.68-8.22-.2-12.25-.65,0,.2,0,.08-.11.28A10.72,10.72,0,0,0,157.9,20c-.37.25-.62.37-.7.76a.26.26,0,0,0,.17.23,10.08,10.08,0,0,1,5.94,1.49c.11.28-.11.45-.28.65-2.45,1.41-4.62,3.21-7.1,4.62a8.24,8.24,0,0,1-1.35,1.07c-1.75,1.1-3.32,2.22-5,3.24a11.86,11.86,0,0,1-1.86,1.3c-4.17,2.65-8.33,5.66-12.64,8-.11.11-.17.23-.31.39l-9.66.87c-.68.68-1.86.39-2.56.87a16.13,16.13,0,0,0-4.56,2c-1.18,1-1.69,2.2-2.82,2.68-3.89-.59-7.74-1.46-11.68-1.58a4.38,4.38,0,0,0-3-1.83c-.28,0-.39.34-.42.7a1,1,0,0,1,.11.7,12.62,12.62,0,0,0-3.55-.42,12,12,0,0,0-2-.51c-1.13,0-2.14-.45-3.1-.39-1-.31-2-.2-3-.51-3.49-.14-6.79-.59-10.14-.14-3.6-1.41-7.32-2.76-10.81-4.08-3.58-1.55-8.48-1.77-10.19-5.32-.11-.59-.53-.7-.7-1.15L50,24.13l-.42-.87L48,21.57l-.34-.7a1.45,1.45,0,0,0-.37-.34l-.82-1.21-3-3.46c1.35-1.32,3.55-2,5.15-3.24.37-.11.56-.31.87-.39L67.69,1.07A.85.85,0,0,0,67.1.34c-3.21-.7-6.53-.34-8.84,1.32-5.86,2.9-11.88,5.69-17.63,8.53a32.19,32.19,0,0,1-3.83,1.72c-1.72,1-4.11.56-6.11,1.13a15.45,15.45,0,0,0-4.14.28l-.87.7a2.37,2.37,0,0,0,1.27,2.28.32.32,0,0,1-.14.31L0,31.68s0,.2.06.25c2.08,1,4.39.59,6.59.7C15.8,28.81,24,24.55,33.08,21c1.44,1.41,1.44,4.25,2.65,5.86.17,1,.68,1.58.9,2.59l1.3,2,2.51,5.55.34.28.87,1.83,1.13,2.28c-.08.39.31.45.42.84l2,4.7L48,51.42a.82.82,0,0,0,.62.42c1.52.08,2.7,1.21,4.11,1.69,3.91,1.83,8.14,3.13,11.88,5.1.31.11.39.31.62.48,1,0,1.49,1.07,2.51,1.27.79.37,1.18.79,1.91,1.18.82.56,1.49,1.38,2.28,1.8.39.17.48.51.7.62a64.72,64.72,0,0,0,7.69,2.51c1.27.23,2.51.7,3.66.93.9.45,1.63.45,2.45.79,1.18.28,2.42.17,3.41.7A1.94,1.94,0,0,1,90,70.73a13.14,13.14,0,0,1-5,3.6,45.84,45.84,0,0,0-7.69.37c-1.18,0-2,.7-3.18.65-1.44.68-2.93.84-4.22,1.61-.73.2-1.24.68-2,1-1.13.56-2.06,1-3.13,1.52-.28.23,0,.73.17,1l2.14,1.27,3,1.58c-1.21,1.32-2.73,1.83-4.22,3.1-1.21.76-2.51,1.52-3.63,2.25-5.8,3.8-11.38,7.55-17.2,11.23-.7.23-1.1.82-1.72,1-.08.08-.14.25-.28.39a1.33,1.33,0,0,0-1,.56c-1.55.11-3.24-.45-4.84-.25a32.3,32.3,0,0,0-5.83-.54,6.09,6.09,0,0,0-3.55.79,1.31,1.31,0,0,0-1.3.76c.51.84,1.91.48,2.7,1.15,2.82.65,4.45,2.56,7.1,3.44,1.1.51,2.48.68,3.41,1.1,3.21.62,6.22,1.1,9.4,1.41Zm-1.41-.82c1.13-.14,2.62.23,3.63-.45v-.56c-.08-.08-.25-.17-.37-.28l-.42-.7a28.94,28.94,0,0,0-5-2.7c-4.56-2-9.69-2.31-14.67-2.22a2.39,2.39,0,0,0-1,.28c0,.17-.17,0-.06.23a23.68,23.68,0,0,0,8.87,4.7,78.79,78.79,0,0,0,9,1.72Zm1.27-4c2.51-1.21,5.49-2.42,8.25-3.55,1.66-.7,3-1.75,4.56-2.39,3.44-1.91,7.57-3.44,11.09-5.12a17.72,17.72,0,0,1,2.82-1.44l12.39-6.28c-.59-1-2.53-1.13-3.72-1.66A21.49,21.49,0,0,0,81,83.6c-2.67-.06-5.18-.82-7.8-.51a6.29,6.29,0,0,0-3.8,1.69c-9,5.72-17.91,11.46-26.72,17.4l6,2.48c.11,0,.08.25.31.23Zm65.8-13.37h1.44c.25-.2-.11-.39-.23-.59a.92.92,0,0,1,.08-.82l-7.74.08c.73.39,1.72.31,2.51.7a25.35,25.35,0,0,0,3.35.42c.31,0,.39.2.59.2ZM108,89.23l10.36-.45c.06,0,.11-.11.11-.25-1.44-.82-3.52-.37-5.24-.73a15.14,15.14,0,0,1-6.36,0c-.42-.28-1-.59-1.1-1.24-1.69-.79-3.75-.59-5.46-1.27-1.21,0-2-.51-3.18-.62a41.9,41.9,0,0,0-5.46-1.38c-7.15-1.24-14.13-2.73-21.17-4a1.09,1.09,0,0,1-.7-.7c-.08-.39.34-.59.51-.84l-4.39,2c-.06.17.08.37.2.51,1.8.65,3.69,2.22,5.69,2.31A32.29,32.29,0,0,1,88.58,85c2,1,3.41,3.13,6.11,2.73.76.39,1.44.08,2.22.51,3.77-.11,7.38.82,11.09,1Zm9.85-2-.2-.14-2.22-.31c0,.14-.2,0,0,.23l2.45.23Zm-9.29-.11c1.8,0,3.74.23,5.55-.42.28-.25,0-.76-.11-1l-.76-.42a11.2,11.2,0,0,1-5.52.84c-.25.45.59.45.65,1a.55.55,0,0,1,.2,0Zm16.22-.28.79,0a28.06,28.06,0,0,0-6.5-1c-.25.31.37.31.59.42,1.8.56,3.44.25,5.12.59Zm-7-.73.11-.11c.23-1,0-2.37.68-3.29a3.23,3.23,0,0,1,.45-1.13,1.72,1.72,0,0,1,1.3-.42c.2-.14-.28-.25-.42-.39-1-.45-2.08-.65-3-1.1a34.16,34.16,0,0,0-6.53-1.49c-.2,0-.2-.2-.42-.28-.53,0-1-.39-1.52-.34-1.3-.45-2.48-.06-3.6-.48A127.09,127.09,0,0,0,84.7,75l-4.53,2.42c-.08.28-.42.48-.62.87L110,84.81c.2,0,.2.2.42.28l2-1.13A2.65,2.65,0,0,1,115,85l.45.79,2.42.31Zm-12.53-.68c.45,0,1,0,1.21-.34-.62-.39-1.52-.31-2.22-.62-3.21-.51-6.48-1.27-9.46-1.86-3.41-.73-6.64-1.3-9.77-2-1.55-.51-2.87-.45-4.2-1-1.6-.08-3.49-.37-4.53-1.41a3,3,0,0,1-.17-.28l.11-.59,2.59-1.86a6.08,6.08,0,0,0-5.12,2.2c-.14.14-.14.34-.28.53a.64.64,0,0,0,.14.28c4.34,1.72,9.46,2.22,14.11,3.24.9,0,1.58.39,2.45.39a27.59,27.59,0,0,1,3.35.79c1.89.14,3.52,1,5.24,1.15.51.39,1.07.2,1.44.45l5.12,1Zm17.77,0h1l-.73-.34-3.55-1.21c-.2,0-.2-.2-.45-.31a.31.31,0,0,0-.34.14,1.94,1.94,0,0,0-.08.7l4.11,1Zm1.44-.84a.58.58,0,0,0,.25-.06c-1.21-1.44-2.87-3-4.93-2.42a.44.44,0,0,0-.2.2c0,.11-.17.31-.06.51l4.93,1.77Zm24.89-5.83a78.37,78.37,0,0,0,11.91-1.21c1.3-.31,2.36-.48,3.63-.7.34-.25.56-.08,1-.25l1.21-.7c0-.06,0-.2-.08-.23a1.25,1.25,0,0,0-.42.08c-1.8-.37-3.72.14-5.55-.37-.68.28-1.3-.2-1.86.08-7-.59-13.88-.93-20.95-1.83-1.18-.48-2.31-.42-3.52-.82a17.61,17.61,0,0,1-2.73-.31c-1-.45-1.89-.17-3-.56-2.22-.34-4.45-.82-6.48-1.1-1.6-.25-3.13-.59-4.62-.93-2.14-.42-4.39-.62-6.5-1.1-4.65-1-9.26-1.13-13.63-2.28-4.59-1.32-9.6-2-13.91-3.07a49.45,49.45,0,0,1-6.17-2.08,18.57,18.57,0,0,1-4.28-1.55,42.8,42.8,0,0,1-9-3.72l-8.36-3.66c-1.83-.73-3.32-2-5.12-2.84-.59-.37-1.13-.45-1.72-.79a17.89,17.89,0,0,0-2.14-.51c-.25.73.65,1.32.84,2,.37.31.39.51.59.62L57,54.54c2.11,1.15,4.67,1.55,6.42,2.82a14.82,14.82,0,0,1,3.55,2c3.29,1.13,4.93,4.2,8.53,4.93a8.64,8.64,0,0,0,2.17.82c2.31.68,4.93,1.21,7.07,2a13.44,13.44,0,0,0,2.59.56A120.94,120.94,0,0,0,100,69.27c1.61-.08,3,.59,4.56.42a25.75,25.75,0,0,1,3.77.59c1,.23,1.83.2,2.62.45a34.62,34.62,0,0,1,5.72,1.38c2.62.93,5.35,1.61,7.49,2.93.37.45.9.48,1.13.68a.47.47,0,0,1,.17.31l-.2.51c2.34.87,5.55.39,8,1.18l16.08,1Zm-39.11-1.58,9.55-2.9a7.39,7.39,0,0,0-2.31-.87,23.38,23.38,0,0,0-4-1.3,46,46,0,0,0-5.24-1,165.11,165.11,0,0,0-17.2-1.63,7.35,7.35,0,0,1-2.53,3.77,5,5,0,0,0-1.24,1,76.37,76.37,0,0,1,12.14,1.18,16.63,16.63,0,0,1,4.28.48,13.33,13.33,0,0,0,1.91.45c1.63.37,3.13.06,4.62.79Zm52.48-2.42,1-.14c-11-.65-22-2.2-33.11-3.69-.2,0-.2-.2-.42-.31-2.11-.17-4.34-.79-6.53-.82-4.7-1-9.35-2.08-13.83-2.82-4.93-.76-10-1.66-14.73-2.7a20.3,20.3,0,0,1-3.69-.87c-2.2-.25-4.31-.9-6.42-1.35-.53-.28-1-.25-1.44-.48-1-.28-1.91-.51-2.79-.7-1.6-.39-2.82-1-4.22-1.38-2.25-1-4-1.27-6.11-2.53-1.72-1-3.86-1.6-5.35-2.7-1.1-.73-2.22-1-3-1.89l-.7-.31c-.25-.08-.31-.51-.53-.73-1.21-.82-2.31-1.77-3.43-2.7a2.18,2.18,0,0,0-2-.87c.42,1,2,2,2.84,3,1,.93,2.08,1.55,3.13,2.45a16.26,16.26,0,0,0,3.72,2.22A57.37,57.37,0,0,0,73.63,59a7.93,7.93,0,0,0,2.08.7A34,34,0,0,1,79,61.07a67.53,67.53,0,0,0,8.5,2.28,37.87,37.87,0,0,1,5.27,1.13c.73,0,1.24.37,2,.37a7.26,7.26,0,0,1,2.51.79c.87,0,1.72.34,2.39.37.9.08,1.75.7,2.45.28l4.11.59c.42.28,1.07.11,1.58.48,3.13.53,6.14,1,9.07,1.52,2,.31,4,.79,5.83,1.13,3.13.48,6.25,1.21,9.24,1.58a212.32,212.32,0,0,0,21.37,2.73l9.4.42Zm5.55-.59c.08,0,.23.08.34,0l-.11-1.21c-.08-.08-.14-.17-.23-.2a.62.62,0,0,1-.23-.39l-3.77-3.55a2.46,2.46,0,0,1-1.13-.87c-2.14-1.13-4-2.34-6.36-3.41a6.49,6.49,0,0,0-1.46-.65c-1.49-.45-2.82-1-4.25-1.3-1.07-.08-1.49-.82-2.59-1-1.21-.7-2.7-1-3.83-1.72-1.61-.7-3.13-1.13-4.53-1.77l-2-.76c-.2.2-.2.53-.39.76l-8.28,5.8-1.3,1.3a3.59,3.59,0,0,1-2.53-.51c-.9-2-2.11-3.43-2.7-5.72.45-1.75,2.73-2.22,3.66-3.46l4.17-3a.47.47,0,0,0,0-.28c-8.45-2.53-17.88-3.72-26.75-4.84l.25,1.83a.68.68,0,0,1-.53.7l-2-.53c-.17-.08-.17-.37-.17-.59l-.42-.7a1.11,1.11,0,0,0-.7-.9c-1.75-.7-3.44-.62-5.12-1-1.52-.14-3-.59-4.31-.68-2.62-.42-5-.37-7.46-.65a24.69,24.69,0,0,0-2.9.11c.34.17.51.39.9.48a.83.83,0,0,1,.23.82s-.08.08-.23.14c-2.53-.65-5.49-.11-8.22.34-.59.34-1.21.25-1.72.51-2.06.73-4.17.56-6.11,1.07-1.55,0-3,.34-4.39.37-.25.11,0,.31.06.53,1.58,1.35,2.93,3.1,4.9,4.2a8.08,8.08,0,0,0,1.41.93,5.7,5.7,0,0,1,1.44.68,23.4,23.4,0,0,1,3.13,1.66c1.3.45,2.28.9,3.58,1.44a56,56,0,0,0,7,2.34c5.32,1.61,10.73,2.48,16,3.66a49.61,49.61,0,0,0,6.34,1.07c.65.28,1.15.25,1.8.53a26.26,26.26,0,0,1,5,.76c1.72.08,3.35.79,5,1,1.35.51,2.87.51,4.25.93,1.41.25,2.79.45,4.05.56,1.8.31,3.52.59,5.12.82a49.1,49.1,0,0,1,7,1.32c10.47,1.32,20.81,2.17,31.17,3.13Zm-47.08-9.38,1.41-.11a2.39,2.39,0,0,0-.48-2.31c-1.18-1.21-.28-3.49-1.63-4.28l-3.41-.11-1,.56.08,4.67c.08.2.28.34.31.59,1.07,1.38,3.1.2,4.67,1Zm-12.11-1.69c1-.11,2.2.28,2.9-.42a5.68,5.68,0,0,0-.34-4.14c-.9-.87-2.48-.56-3.69-1h-.28c-1.07.93-.31,2.73-.25,4.11.14.34.08.65.25.84l1.41.59Zm-8.08-1.13h2.53a2.24,2.24,0,0,0,.7-.87l-.51-3.72-2.2-.93c-.11,0-.23.06-.42.08l-2.11-.11c-.9,1.41-.11,3.21-.08,4.81l2.08.73Zm-8.84-1.21c.17,0,.2-.2.42-.23l1.72-.14c.06-.65.08-1.52.14-2.31A18.62,18.62,0,0,0,94,55.95a4.56,4.56,0,0,0-1.1-.68L89.82,55a2.36,2.36,0,0,0-.7.84l.7,4,2.39.93ZM81.88,58.82l3-.17c.9-1,0-2.73-.06-4.11a1.81,1.81,0,0,0-.11-.28c-1-.65-2.45-.34-3.69-.53l-.56.23c-.9.87-.08,2.28-.25,3.6a4.13,4.13,0,0,0,1.69,1.27Zm-6.14-1.46a1.15,1.15,0,0,0,1.13-.54c.37-1.21-.14-2.17-.23-3.27a1.89,1.89,0,0,0-.9-.84l-2.82-.11c-.17,0-.37,0-.42.11l.11,3.38a1.43,1.43,0,0,0,.73.73l2.39.54Zm63.13-.84a1.16,1.16,0,0,0,.28,0l.84-2.22a14.51,14.51,0,0,0-3.72-1.52,32.6,32.6,0,0,0-3.66-1A33.39,33.39,0,0,1,138,55.81c.39.2.54.59.87.7Zm26.86,0c.25-.08-.11-.37-.11-.56l.39-1.1-8.81.51,8.53,1.15Zm-17.91-2,15.37-.39c-.31.06-.42-.11-.7-.31-2.14-.11-5,1.1-6.36-1-.08-.14-.17-.25-.17-.25L119.84,48a.81.81,0,0,1-.59-.54c.9-1.52,2.7-1.91,3.83-3.32-1.83,0-3.63,1.15-5.12,2l-1.69,1.89c.87.37,1.89.37,2.82.65,1.18.56,2.31,0,3.44.59,4.08,1.1,8.28,1.18,12.11,2.08,1.15.37,2.31.84,3.38,1.21,1.35.51,3,.73,4.28,1.13a.53.53,0,0,0,.28.28l5.27.53Zm16.5-.53,2.28-.59c-.39-.25-1-.06-1.41-.11l-1,.65.11.06Zm-5.72-.87,4.7-.14c.31,0,.42-.28.68-.48.06-.17,0,0,.11-.23a.71.71,0,0,0-.37-.59l-.53-.28c-.2.08-.11.34-.31.42a11.44,11.44,0,0,1-4.28.59.37.37,0,0,0-.25.28,1,1,0,0,0,.14.39l.11,0Zm-1.55-1.41.59-.14c-1.07-.56-2.48-.2-3.58-.68-8.9-1.41-17.54-2.22-26.5-3.21-.59-.31-1.18-.17-1.6-.68a1.07,1.07,0,0,1,.11-.84l3.72-3.38-1.6.08-4,3.29-.42.84c10.19,2.79,21.4,2.7,31.87,4.51l1.41.2Zm11.26-.14h4.25c.2,0,.25-.08.11-.25l-4.48-.54-.06.73.17.06Zm-1.89-.17h.42l1.75-4.76c-.7-.34-1.69-.54-2.45-.87a177.82,177.82,0,0,0-31.82-3.24c-1.3.31-2,1.24-3.1,1.86-.23.25-.59.28-.79.48l-.7,1v.42c1.35,1.07,3.32.68,5,1.27a104.4,104.4,0,0,1,11,1.21,1.91,1.91,0,0,1,.37.11c4.93.42,9.69,1.32,14.67,2.2l.42.2c.2-.06.08-.37.28-.42a2.42,2.42,0,0,1,2.7-.08c.62.7,1.52.31,2.25.62Zm5.72-1.07,1.41.08c-.08-.59-1.18-1.32-1.83-1.72a5.68,5.68,0,0,0-2.59-1l-.82,1.89.11.2,3.72.56Zm-69.1-1.46.08-.06-.65-2.11-1.44-1,1.13,2,.37.87c.11.08.23.28.51.28ZM61.38,47.16c.68-.17,1.3.06,2-.14,5.29.14,10.14-1.52,15.26-1.77-.45-.39-1.1-.48-1.6-.87-4.73-1.69-9.46-3.72-14.25-5.12-.65-.34-1.32-.28-1.83-.59a9.61,9.61,0,0,0-2.7-.82A5.46,5.46,0,0,1,56,37.76c-.65-.14-.84-.9-1.27-1.24a10.59,10.59,0,0,0-.93-1.58c-.79-1.44-1.72-2.76-2.53-4.11-.37-.51-.68-.93-1-1.41s-.7-1.15-1.13-1.72a.61.61,0,0,1-.31-.45,3.56,3.56,0,0,0-.34-.28l-.79-1.41a2.09,2.09,0,0,0-.37-.31l-2.7-3.6-2-3.1a1.09,1.09,0,0,1,0-.25l1.21-.7a.4.4,0,0,0-.08-.28l-.73-.79-1.41-.82c-.11-.11-.17-.28-.31-.39-3.18-2.59-7.83-2-11.77-1.69a10.67,10.67,0,0,0-2.76.51.71.71,0,0,0-.25.48l.7,1.13,5.83-.2a10.54,10.54,0,0,1,6.25.51,2.12,2.12,0,0,1,.82,1.69L34.94,20a4.21,4.21,0,0,1-.7.42c-.06,0-.11.11-.14.28l3,7.63c1.63.23,2.53,2.17,4.11,2.93l.42.65c2.9,2.17,5.58,4.87,8.53,7.24a2.36,2.36,0,0,1,.53.25l4.7,4.34L59.07,46a1.23,1.23,0,0,0,.76,1l1.55.14Zm-6.67-.45h.42c.08,0,.08-.11,0-.25L46,38.35l-4.08-3.72c-1-.23-1.58-1.18-2.28-1.89-.31.17.08.68.2,1a2.18,2.18,0,0,1,1.61,1.21l1.44,1.32c3.27,4,7.1,6.79,10.67,10.05l1.15.39Zm95.4-3.94,1-.11,7.94-7.12c3.94-3.29,7.57-6.76,11.66-10.39l1.52-1.58a12.76,12.76,0,0,0-1.52-.39c-2.51.25-5.29-1.15-7.41.42a29.45,29.45,0,0,0-3.41,2.2c-4.62,3.1-9.46,6.39-14.08,9.24a.84.84,0,0,0-.31.37l-9.46,6.25,14.05,1.13ZM3,31.93c1.89.31,3.41-.53,5.1-1.32,4.17-2,8.05-3.94,12.11-6.11.9-.45,1.72-.82,2.56-1.15a11.12,11.12,0,0,1,1.55-.62c1.41-.9,3.44-1.41,5-2.25a46.7,46.7,0,0,0,7.69-3.86c-.11-.17,0,0-.14-.2-1.77-.37-3.49.08-5.29.08a15.63,15.63,0,0,0-4.11.62c-.2,0-.25.28-.42.48a16.51,16.51,0,0,0-3.55,1.72c-3.6,2.06-7.32,3.91-10.81,6.08-3.77,2.08-7.35,4-11,6.11,0,.08,0,.17,0,.23l1.3.2ZM173,22.56l4.79-.37a3.12,3.12,0,0,1,.45.08,4.45,4.45,0,0,1,.7-.14.92.92,0,0,0,.56-.56.25.25,0,0,0-.14-.25,7.56,7.56,0,0,0-2.7-1c-.79,0-1.6-.42-2.22-.37a40.17,40.17,0,0,0-13-.06c-.08.11-.2.17-.25.37.08.39.53.45.84.7,3.35,1.58,7.26.87,11,1.58Zm-131.1-8c.14-.34.62-.39.84-.79L50.6,9.38a3.08,3.08,0,0,0,.28-.31c2.67-1.8,5.83-2.93,8.5-4.84A6,6,0,0,0,61,3.35c1.38-.59,2.34-1.69,3.83-2.11A2,2,0,0,1,65.35.9c-3.35-1-6.22,1-9.09,2.28C52,5.3,47.7,7.35,43.47,9.35L37.11,12.5l4.67,2.11.14-.08Z"/></g></g></svg>