<svg xmlns="http://www.w3.org/2000/svg" viewBox="0 0 151.89 54.43"><defs><style>.cls-1{fill:#231f20;fill-rule:evenodd;}</style></defs><title>PC-12</title><g id="Layer_2" data-name="Layer 2"><g id="Layer_1-2" data-name="Layer 1"><path class="cls-1" d="M129.63,54.43h-1.18c-3.09-.48-6.21-.89-9.32-1.29-6.12-.8-12.28-1.6-18.46-3h0a5.71,5.71,0,0,0-1.06-.26,4.29,4.29,0,0,1-1.43-.43c-1.12-.28-2.2-.59-3.27-.89-1.77-.5-3.51-1-5.31-1.34l-1,.42h0c-3.33.9-6.79.66-10.28.41-1.61-.11-3.23-.22-4.84-.22h0c-5.13-.55-10.1-.82-15.23-1.09l-3.84-.21a43.2,43.2,0,0,1-5.1-.47,31.26,31.26,0,0,0-6.63-.4h0a57.06,57.06,0,0,0-6.08-.4c-4.85-.15-9.7-.3-13.91-3.28h0A12.53,12.53,0,0,0,19.4,40.6a14.69,14.69,0,0,1-3.21-1.35l-.07,0,0-.08A1.3,1.3,0,0,0,15.79,38a4.54,4.54,0,0,1-.5-.89,33.54,33.54,0,0,0-2.2-3.69c-.79-1.15-1.64-2.25-2.57-3.37v0a.86.86,0,0,1-.11-.39.83.83,0,0,1,.08-.34l-.42-1,0,0,0,0a2.54,2.54,0,0,0,.12-.3l0-.09.1,0,4.41,1.55,0,0c.57.69,1.13,1.4,1.69,2.12A24.66,24.66,0,0,0,21.66,37h0a2.21,2.21,0,0,1,.24.3h0c.12.16.23.32.39.36a1.09,1.09,0,0,1,.59.33,1.91,1.91,0,0,0,.83.47c3.32-.44,6.32.27,9.33,1a25.79,25.79,0,0,0,9,1h0a22.86,22.86,0,0,1,3.81,0,28.55,28.55,0,0,1,3.79.64c.93,0,1.9.09,2.86.18a20.11,20.11,0,0,0,4.16.11l-4.54-2.33,0,0a1.75,1.75,0,0,1-.12-.35.57.57,0,0,0-.08-.22,13.58,13.58,0,0,1-1.8-.91,9.58,9.58,0,0,0-3-1.26h0a49.45,49.45,0,0,0-10-3.49c-1.91-.52-3.81-1-5.61-1.66l0,0,0,0-1.29-3.43L22,25.16l-.05,0-.56-.68,0-.07V24a5.48,5.48,0,0,0-.43-2.65v0c-.28-1.58-.64-3.14-1-4.69-.45-1.92-.89-3.82-1.17-5.75l-2-7.57L.15,1.24H.08l0-.06A.75.75,0,0,1,0,.75H0A.47.47,0,0,1,.24.41h0L11.16.28h.05a2,2,0,0,0,1.17.19h.43A9.69,9.69,0,0,1,17.45.11c.69.05,1.4.11,2.09.11h0c2,.24,3.94.56,5.91.88a85.82,85.82,0,0,0,11,1.29,4.51,4.51,0,0,1,3.19.13,8.89,8.89,0,0,0,1.26.31h0a.46.46,0,0,1,.22.15.48.48,0,0,1,.11.26V3.3a2.07,2.07,0,0,0-.17.46c-.1.37-.2.71-.61.71h0L31.5,3.79,28.94,5.46l1.57,3.44a8.32,8.32,0,0,1,1.24,1.52A5.51,5.51,0,0,0,34.85,13c4.23,1,8.52,2.31,12.79,3.66a126.83,126.83,0,0,0,15.21,4.14l-1.09-2.23-.09-.18.2,0,2.49.31h0a.84.84,0,0,1,.63.39l.12.14h0l1.53,2.2c4.65.75,9.39,1.32,14.13,1.89C90.89,24.58,101,25.8,110.54,28.8l0,0,1.23,1.29c1.54.7,3.51.07,5-.42h0l-.06-5.08,0-.07a.72.72,0,0,0,.1-.25c.06-.22.11-.43.47-.48h0l1.49.06h0a2.2,2.2,0,0,1,.92.68,3.94,3.94,0,0,0,.72.63l0,0,0,0a30.06,30.06,0,0,0,6.3,6.91l0,.07a2.43,2.43,0,0,0,.13.37,2.56,2.56,0,0,1,.22.81c0,.25-.11.43-.45.43l-.83.06-.59.59,0,0-2.91,1.8a.49.49,0,0,0-.14.28l4.52,1.65c2.89.72,5.75,1.57,8.59,2.5s5.65,1.93,8.47,3l.23-.05a1.67,1.67,0,0,1,.45-.07l.07,0,.61.55,2.78,1.24h0l3.67,2.3,0,0a.55.55,0,0,1,.09.43h0a1.34,1.34,0,0,1-.21.5l0,0a14,14,0,0,1-5.94,1.18c-.86,0-1.71.09-2.51.2a5.47,5.47,0,0,0-.77.93h0a7.8,7.8,0,0,0-.61,1.24v0a3.3,3.3,0,0,1-1.18,1,4.83,4.83,0,0,1-1.68.44,36.9,36.9,0,0,1-9.3.75ZM15.29,37.16h0ZM130,53.41a3.5,3.5,0,0,0,1.54.12,4.32,4.32,0,0,1,1.34.05,12.72,12.72,0,0,1,2.93-.43,11.91,11.91,0,0,0,2.88-.43h0a2.79,2.79,0,0,0,1.8-.71,4.6,4.6,0,0,0,1.08-1.56l-.06-.09a.46.46,0,0,0-.11-.1L137,49.64a14,14,0,0,1-2.49-.15c-.82-.12-1.63-.29-2.44-.48-1.76-.3-3.42-.64-5.06-1-2-.42-4-.82-6.1-1.13a2.74,2.74,0,0,1-1.48-.22,1.85,1.85,0,0,0-1.63,0h-.08a18,18,0,0,0-2.14-.34,10.54,10.54,0,0,1-3-.65,13.87,13.87,0,0,1-2.8-.37c-.47-.1-.94-.19-1.42-.26h0c-2.47-.49-5-1-7.42-1.57s-4.85-1.1-7.19-1.66h0A11.7,11.7,0,0,0,90.65,41a13.22,13.22,0,0,1-2.78-.64c-2.14-.34-4.3-.82-6.44-1.38s-4.25-1.17-6.3-1.8h0a34.49,34.49,0,0,0-4.63-1,35.81,35.81,0,0,1-4.3-.94A28.2,28.2,0,0,1,62,34.49a29.24,29.24,0,0,0-3.29-.63h0c-4.23-1.17-8.39-2.21-12.54-3.25-2.89-.72-5.78-1.45-8.69-2.21a1.47,1.47,0,0,1-.88-.08,2,2,0,0,0-.35-.09c1.65,1,3.4,1.9,5.18,2.83a66.41,66.41,0,0,1,8.83,5.21,8,8,0,0,1,1.61.7,7.78,7.78,0,0,0,1.17.54h0c2.84,1.24,6,.73,9.19.22a24.89,24.89,0,0,1,6.48-.48,5.36,5.36,0,0,1,2.2.09,6.42,6.42,0,0,0,1.77.16h.12a35.68,35.68,0,0,1,9.44,2.11h0c.31.17.62.33.93.48A6.12,6.12,0,0,1,85,41.23a8,8,0,0,1,2.83,1.1,10.78,10.78,0,0,1,2.54,2.23l0,0a2.72,2.72,0,0,0,.38.64c.28.38.52.72.31,1.17A127.15,127.15,0,0,0,104.34,50l1,.23c8.26,1.43,16.45,2.3,24.64,3.17h0ZM132.11,49h0Zm-42-3a19.82,19.82,0,0,0-9.59-5.72,59.28,59.28,0,0,0-12.45-2.05l-4,.52c-2.17.28-4.29.56-6.35.86l3.81,2.19,7.18.43h0a45,45,0,0,0,5.33.38c4.29.14,8.68.28,11.75,3l0,0a1.3,1.3,0,0,1,.14.65.78.78,0,0,0,.11.47L90,46H90l.07,0Zm56.77,2.45,3.54-.18c.14-.09.16-.16.13-.21h0a1.34,1.34,0,0,0-.46-.3,1.8,1.8,0,0,1-.38-.23c-.58-.29-1.11-.59-1.63-.88A17.64,17.64,0,0,0,144.43,45l-1.34,2.34c.4.34.93.19,1.5,0l.45-.12h0a2.21,2.21,0,0,1,1.13.7,3.64,3.64,0,0,0,.68.54Zm-7.1-.81,1.17-.12,1.84-3.08c-2.42-1-5.09-2-7.83-2.92S129.62,40,127,39.39h0l-4.28-1.27c-1.35-.39-2.67-.77-3.86-1.09h0l-1.08-.66a21.84,21.84,0,0,1-3.78.45,5.94,5.94,0,0,1-3.5-.95c-.07,0-.09,0-.09.08a1.13,1.13,0,0,0,.09.33,1.76,1.76,0,0,1,.07.2v0a1.14,1.14,0,0,1-.07.48l0,0c-1.13.88-2.84.69-4.47.51a12.56,12.56,0,0,0-2.36-.12h0l-.35-.12c-1.33-.45-2.59-.88-2.89-2.19v0l.31-1.93,0-.06c.24-.22.49-.48.74-.75,1.1-1.16,2.3-2.44,4.28-1.5h0a4.1,4.1,0,0,1,.44.29,1.06,1.06,0,0,0,.32.19c.15,0,.19-.14.24-.27a.71.71,0,0,1,.39-.46h0l3-.49c.07-.2-.1-.34-.27-.48h0l-.15-.14c-3.89-1.79-8.19-2.25-12.54-2.72a64.69,64.69,0,0,1-8.54-1.3c-.9-.12-1.81-.28-2.71-.46s-1.82-.38-2.76-.6c-4.18-.43-8.34-.94-12.49-1.45-11.07-1.36-22.12-2.72-33.22-2.4h0a19.14,19.14,0,0,0-4-.36,17.38,17.38,0,0,1-3.65-.32.34.34,0,0,1-.22-.16h0a.93.93,0,0,1-.12-.29v0a.43.43,0,0,1,.07-.27h0a.81.81,0,0,1,.22-.19l.06,0,25.74,1.26L29.89,12.17l-.08,0v-.08a1.51,1.51,0,0,1,.07-.47l0,0c.33-.33.83-.21,1.25-.1h0l.08,0L27.43,5.76l-1.89-.49h0l0,0A.59.59,0,0,1,25.41,5h0a2.49,2.49,0,0,1,0-.28V4.65l.08,0,4.39-1V3.32a29.14,29.14,0,0,0-3-.94c-.67-.18-1.34-.36-2-.58-.63-.05-1.27-.15-1.88-.25h0A16,16,0,0,0,20.6,1.3h0l-4.81-.19a.82.82,0,0,0-.16.13,1.12,1.12,0,0,0-.15.24l0,.06h-.07L8.73,1.29,26.27,2.83l.07,0a1,1,0,0,1,.21.35v0a.83.83,0,0,1-.06.32h0a.41.41,0,0,1-.19.21h0l-8.07-.06,4.56,19.94L31.08,27l0,0,0,0,1,2.88a49.16,49.16,0,0,0,8,2.8c1.26.36,2.53.72,3.8,1.13l-14.7-8-.06,0V25.8a.4.4,0,0,1,.07-.25L26,24.79h0l-.06,0h0a.42.42,0,0,1-.18-.3.82.82,0,0,1,0-.4h0a.91.91,0,0,1,.08-.18l0-.06H26c11.63,2,23.79,4.92,35.71,7.79h0c3.33.8,6.65,1.6,10,2.4h0a34.94,34.94,0,0,0,3.43.85c1.15.24,2.31.49,3.38.82a1.72,1.72,0,0,1,.88.15l.32.11,1.31.23c1.26.22,2.53.44,3.73.76h0c1.26.4,2.56.77,3.84,1.13,1.48.42,2.95.83,4.35,1.3,2.75.45,5.49,1,8.19,1.48,2.19.42,4.35.83,6.46,1.19h0l19.79,3.78c.06,0,0-.1,0-.18a.51.51,0,0,1,0-.38v0a2.07,2.07,0,0,1,1.59-.68,6.76,6.76,0,0,1,1.82.2l2.66.49,3.16-.06.06,0a2.53,2.53,0,0,1,.82,1.69l.08.36,2.15.42Zm-62.13-.5,6.88.06.1,0h0a.28.28,0,0,0,.17-.18.79.79,0,0,0,0-.34,2.37,2.37,0,0,0-.13-.53,6,6,0,0,0-1.76-1.1,5.16,5.16,0,0,0-1.94-.4h0c-1.5,0-3,.07-4.4.09-2.44,0-4.83.07-7.33.22h0a25.91,25.91,0,0,0-2.89,0,18,18,0,0,1-3.93-.17A14.53,14.53,0,0,1,56,45a28.3,28.3,0,0,0-3.25-.26h0c-2.74-.26-5.4-.56-8-.85-2.41-.27-4.8-.53-7.2-.76-.21.17-.1.5,0,.82h0l0,.14,40.06,3.1Zm42-1.44L95.56,41c3.54.92,7.12,1.73,10.71,2.45,4.45.89,8.91,1.64,13.34,2.31ZM32.9,44.52l2.35-.19a.93.93,0,0,0,.42-.26h0a1.77,1.77,0,0,0,.35-.51,1,1,0,0,0-.53-.51h0a1.3,1.3,0,0,1-.76-.89v-.41l-.83-.83c-1.86-1-4-1.09-6.16-1.16-2.46-.08-4.86-.15-6.64-1.7a16,16,0,0,1-3.61-3.85c-1.54-2.06-3.05-4.07-5.56-4.49l5.75,9.2a3,3,0,0,1,1.14.38,3.7,3.7,0,0,0,.94.36h0a11.47,11.47,0,0,1,2.85,1.07,15.11,15.11,0,0,0,2,.86h0c2.31,1.52,5.24,2.21,8.11,2.88l.11,0Zm30-.81,8-.19a14.77,14.77,0,0,0-3.2,0h0a125.16,125.16,0,0,1-13.77-1,106.29,106.29,0,0,0-15.67-.93,2,2,0,0,1-.79.11c.67.13,1.38.21,2.09.28a14.81,14.81,0,0,1,3.85.75c5.77.05,11.45.44,17.11.83l2.39.16Zm28-3.81c-2.21-.67-4.56-1.31-6.89-1.95l-1.78-.49c-2.44-.42-4.7-.94-7-1.47a28.68,28.68,0,0,0,3.35.94,29,29,0,0,1,3.92,1.13c2.87.73,5.62,1.29,8.37,1.84Zm-.33-4.56L89.44,36l-.06-.09,0,.11L89,36.1H89l0,0a2.43,2.43,0,0,0-.67-.38,1.37,1.37,0,0,1-.79-.59v0a3.39,3.39,0,0,1,1-2.95,5.15,5.15,0,0,0,.59-.91l0-.05h.06l1-.19h0a1.26,1.26,0,0,1,.66.35h0a3.13,3.13,0,0,1,.48.57l0,0v0l-.68,3.29v0l0,0Zm27.88-.2,6-3.47,0,0,0,0,.18.07a15,15,0,0,1-3-3.53A22.67,22.67,0,0,0,120,26a6.16,6.16,0,0,1-.57-.5,2.79,2.79,0,0,0-.57-.46l-.93-.05-.43,5.86v.07l-.07,0-2.39.82,1.75,2A1.36,1.36,0,0,1,117,34a2.61,2.61,0,0,1,.16.34l1.13.77Zm-51-.88-2.76-.69c-3-.77-6-1.53-9.09-2.06h0c-1.21-.4-2.37-.76-3.53-1.09s-2.29-.62-3.48-.9a10.72,10.72,0,0,1-2.17-.39,7.93,7.93,0,0,0-2.22-.35h0l-4.06-.84c3.22.74,6.44,1.54,9.65,2.33,5.91,1.47,11.8,2.93,17.69,4Zm14.2-.16-.19.12-.06-.09,0,.1-.19.06h0l0,0-1.12-.62,0,0L80,33.5h0a3.41,3.41,0,0,0-.41-.54l0,0a3.56,3.56,0,0,1,0-1.6A2.84,2.84,0,0,1,80,30l0,0,1.06-.44.06,0,0,0,.81.62,0,0A4.21,4.21,0,0,1,82,33.06a9,9,0,0,0-.24,1v0l0,0Zm-8.37-1.31-.2,0h-.18a3.55,3.55,0,0,1-.63-.44h0a1.35,1.35,0,0,1-.41-.62v0l.37-3v0l0,0,.25-.18h0a1.53,1.53,0,0,1,.87-.4h0l.3.09.11,0h.09v.09a2.43,2.43,0,0,0,.56,1h0l0,0,0,0a4.06,4.06,0,0,1,0,2,2.44,2.44,0,0,1-.87,1.43l-.06,0a2,2,0,0,0-.35,0Zm-6.43-1.29a1.32,1.32,0,0,1-.67.14h-.05l-1-.56,0-.05a3.88,3.88,0,0,1-.23-2,3.75,3.75,0,0,1,.81-1.87l0,0a1.3,1.3,0,0,1,.48-.07h0l0,0h0c.37.37.68.68,1.12,1.18l0,0a3.24,3.24,0,0,1,.11,1.58,4.23,4.23,0,0,1-.62,1.62l0,0Zm-7.8-1.14-.17,0-.23.11-.05,0-.05,0-.1-.06c-.25-.15-.37-.22-.43-.36h0a3.21,3.21,0,0,1-.17-1.69,5.67,5.67,0,0,1,.68-1.94l0-.05h.78a1.41,1.41,0,0,1,.88.88v2.11a1.57,1.57,0,0,1-.35.63,1,1,0,0,1-.55.31h0a1,1,0,0,0-.24,0Zm5.77-9.2h.39a4.71,4.71,0,0,0-.54-.83,2.23,2.23,0,0,0-.71-.58l.86,1.42Z"/></g></g></svg>