<svg xmlns="http://www.w3.org/2000/svg" viewBox="0 0 218.88 60.42"><defs><style>.cls-1{fill:#231f20;fill-rule:evenodd;}</style></defs><title>TBM-700(2)</title><g id="Layer_2" data-name="Layer 2"><g id="Layer_1-2" data-name="Layer 1"><path class="cls-1" d="M102.38,59.92c-10.72-.71-21-1.8-31.16-2.74-13.56-2-27.67-4.46-41.4-6.81-.88-.25-.41-.93-1.15-1C18.49,47.32.9,43.5,0,42.85c0-3.41,12.29-7.57,21.41-6.35,8.54,1.19,18.07,1.86,28.14,3.3a18.07,18.07,0,0,1,1.66-1.45C47.21,27.64,41.91,12.58,38,.43c3.31-.13,6.86-.91,10,0,8.72,5,18,16.89,25.33,25.68,5.36.63,11.53,1.31,17.87,1.63a38.11,38.11,0,0,0,6.54-1.17c0-1.71-1-3.13-1-4.51a7.7,7.7,0,0,0,1.27-.3c1.3,0,1.95,3.23,3.22,4.08,6.75-1.25,21-4.24,26.58-5.62-.44-1.37-1.13-2.39-1.57-3.66a3,3,0,0,1,2.33-1,38,38,0,0,0,3.8,4.21C145.6,18.93,159.69,23.52,162,27c10.37.31,27.31.52,43.3.45,4.07-.16,13.61.82,13.58,5.2,0,3.52-7.07,6-11.19,6.65-7,14.05-63.27,18.71-86.74,19-2,.26-6.05.21-8.31.23-7,1.48-10.1,2.52-10.26,1.36Zm1-.25c0-.6,0-1.22,0-1.84.58-.58,6.74,0,7.46,0a44.15,44.15,0,0,1-7.5,1.79ZM73.91,56.72c1.94-.53,6.24-1.6,8.38-3-1.11-.19-11-1.42-11.71-.74-.06.39-.3,3.18-.37,3.25-3.28-.55-28.55-4.61-35-5.62.94-.6,2.27-1.68,3.29-2.44-3.87-.4-6.39-.87-8.63-.85-.18.46-.3,1-.34,1.08-4.87-.93-15.68-3.15-22.16-4.65,3.46.17,7.84-.19,10.84-1.89,2.42,0,4.79,1,6.7,1,.58-.53,1-.49,1.43-.85-2.06-.54-4.39-1.15-5.45-1.29A3.64,3.64,0,0,0,22,37.64C55.1,41.07,94.12,46,125.6,50c-30.09-2.7-60.89-5.39-90.25-9.18-1.33,0-4.87,2-5.06,3.31,9.25,1.57,64.05,7.58,96.72,11-2.31,2.31-7.06,2.55-10.22,2.55-4,0-13.65-.88-14.18-.46-.38.77.4,1.56-.12,2.07-9.55-.76-19.33-1.5-28.59-2.53Zm52.57.46C130,56,129.31,53.56,128.8,51c-.66-2.4-16.35-4.27-22.59-4.53,31.25-3.26,63-6,95.29-10.13a2.63,2.63,0,0,0,.53-1.57c-37,3.24-71.47,5.7-108.32,9.79-7.13-.37-25.48-2.6-30-3.36-1.92,0-4.31-3.91-3.05-5.17C73.14,33.36,87,30.32,98.68,27.54c.77-.77-1.1-3.62-1.1-4.9a2.15,2.15,0,0,1,1-.23,20.7,20.7,0,0,0,2.42,4.1c7-1.32,22.74-4.76,28-5.82.09-.54-1.37-3-1.75-3.57,0-.83.35-.6,1.22-.64,1.23,1.23,2.35,2.67,3.59,3.91,8.55-1.25,28.57,3.06,29.37,7.28,7.28-.2,30.16.25,43.19.57-1.57,3.69-.88,9.05,2,11.37-10,12.91-71.79,17.53-80.11,17.58Zm-55.25-.8c-.4-.27-.1-2.43-.07-2.81,2.26,0,7.55.24,9.3.46a50.84,50.84,0,0,1-9.23,2.35Zm-41.1-6.65c0-.53.25-1.4.28-2,1.58.3,5.5.6,6.77.83a9.62,9.62,0,0,1-2.81,1.52,38.05,38.05,0,0,1-4.24-.39ZM1.29,42.15C2.88,40.26,6.93,38.88,10,38c2.86-.86,9-1.77,11.25.37-.48,2.72-6.92,3.91-8.9,4.35-2.53.56-10.75.75-11-.53Zm49-1.85c.31-1.86,5.55-3,7.13-3.19a5,5,0,0,0,1.76,4.09c-.08.08-6.52-.66-8.9-.9ZM87.55,38.4a8.75,8.75,0,0,1,.86-4.89c1-.3,2.69-.87,4-.46A33.3,33.3,0,0,1,92,37.8a8.19,8.19,0,0,1-4.45.6Zm-35.49-.75c-3.9-11.55-8.5-23.42-12.46-36.13.23,0,2.54-.16,2.77-.16,3.52,9,8.94,21.12,14.69,34.69-1.18.17-3.8,1.36-5,1.61Zm44.11-.52c-.51-2.54-.19-4.15.61-5.23a16.6,16.6,0,0,1,4.17-.82,35.57,35.57,0,0,1-.21,5.17,9.67,9.67,0,0,1-4.56.89ZM205.73,36c2.5-.11,4.85-.68,7.39-.81-.43,1.55-5.8,1.5-6.58,2.35-.57.11-.73-.89-.81-1.54Zm-99.68-.43a20,20,0,0,1-.12-5.27c.28-.84,4.31-1.84,5.22-1.57-.07,1.48.3,5.18-.26,5.87a8.76,8.76,0,0,1-4.84,1Zm-46-.26c-4-8.29-12.47-25.08-17-34a7,7,0,0,1,6.49,1.08,30.15,30.15,0,0,1,.39,3.08C51.82,8,64.66,21.77,68.16,26.69c.61-1.11.79-2.27,2.72-2.48.66.91,1.66,1.91,2.53,2.87,1.87.2,15.31,1.53,15.12,1.73C79,31.07,69.69,33.13,60.07,35.34Zm145.09-.46c-.09-.76-.19-1.66-.23-2.42a4.39,4.39,0,0,0,1.15,0c0,.66.93-.1,1-.37a8.62,8.62,0,0,0,3.68-.53c.78,0,1.55.35,2.32.35.74-.28.95-.34,1-1.2-.41-.14-1.1.1-1.38-.18a11.48,11.48,0,0,0-2.78-.12c-.44-.55-.11-1.15-1.15-1.15-.29.29-.39.25-.81.3,0-.62-.65-.45-1.22-.58,0-1.77,11.25.44,11.3,3.82-.2.05-.9-.3-1.54-.3a32.68,32.68,0,0,1-3.34.69c-.32.32-.42.65-.69.92-2.51.19-4.87.51-7.39.76Zm-89.31-1c-.49-1.63-.1-4.18.27-5.94a9.2,9.2,0,0,1,5.64-.92,23.07,23.07,0,0,1-.43,6c-.61.61-4.67,1.06-5.48.86Zm9.82-.51a16.53,16.53,0,0,1,.28-6.93c1.37-2.05,4.86-2.43,7.11-1.68,1.35.83,6.37,4.91,5.55,6.56-2.66-1.18-9.78,1.42-12.93,2Zm17.06-2.69c-2.51-2-5.61-4.33-7.54-6.26,0-2.7,5-2.84,7.67-2.45,2.39.35,15.72,2.56,16.59,5.52-2-1.23-8.29,0-16.71,3.18Z"/></g></g></svg>