<svg xmlns="http://www.w3.org/2000/svg" viewBox="0 0 434.32 253.78"><defs><style>.cls-1{fill:#231f20;fill-rule:evenodd;}</style></defs><title>TBM-700</title><g id="Layer_2" data-name="Layer 2"><g id="Layer_1-2" data-name="Layer 1"><path class="cls-1" d="M402.5,253.78l-5.47-.86A224.7,224.7,0,0,0,364,242a143.87,143.87,0,0,0-24.12-6v.5c-4.18,1.51-6.84,5-11,6.84-11.74.72-12.46-4.32-8.28-13-2.74-2.38-5.83-2.74-8.5-3.89-8.57-2.09-16.63-5-24.48-6.7q-22.57-6.91-45.14-13.68c-4.46-2.66-11.3-2.74-14.62-5-15.7-3.89-31.61-7.49-46.22-12.74-5.11,1-9.5,4.54-14.26,6.62v.5c-1.08.36-2.16.79-3.17,1.22v.43a8.42,8.42,0,0,0-1.44.36c-6.34,3.53-12.38,7.13-18.86,9.43-7.56,4.9-16.92,7-24.55,10.51l-2.88.43c-8.64,2.74-17.21,3.82-25.2,6-3.6,0-7.92-.5-10.08-.5-4-1.8-10-2.66-11-6.34-4.25.58-12,1.44-15.12-.86-1.15-.29-2.3-.58-3.38-.79-1.51-5,2.09-7.63,5-11.52,1.51-1.3,1.51-1.3,2.16-1.44,0-1.22,6.62-5.76,7.42-6V196a6,6,0,0,1,.86-.58c-4.39-3.74-4.61-4-1.87-8.93,2.66-2.45,3.17-4.75,7.34-4.75a9.59,9.59,0,0,0,5.54,1.22c.86-.79,2.88-2.3,3.24-3.1h.5c5.47-8.71,17-13.32,24.12-20.45,3.1-1.94,6.19-3.89,9.36-5.76a3.59,3.59,0,0,0-2-1.58v-.5q-14.69-9.4-29.23-18.79c-15.84-8-30.24-17.21-44.86-26.14-11.81-6.19-22.75-13.68-33-20.74C1.39,83.14-.2,80.33,0,75.79,5,72,10.1,71.47,15.5,68.66c2.66-.29,10.73-1.44,12.89-3.17,1.66.22,1.66.79,2.3,3.31,4.46,4.32,12,7.27,18.58,9.86,6.62,3.67,13,8.21,20.59,11.45v.43l8.21,3.24c12,6,23.62,12.24,36.43,18.22,10.58,5.47,22.18,10.94,33.48,17.06,1.08-.65,4.68-3,5-4,3-1.87,6.91-5.47,10.08-6.34,8.21-4.54,17.35-7.49,25.63-11.81,15.19-5,31-11.38,46.37-17.14,0-2.45,3.24-3.6,5.54-3.38,0,1.8,0,1.8.29,2.09,5.69-2.16,6.7-2.81,13.61-5.18.5-1.87.36-4.39,3-3.89a5.39,5.39,0,0,1,.36,2.74c4.1-1.37,8.57-4.18,12.74-6.41,1.22-1,3-1.94,3.74-3.53a1.36,1.36,0,0,1,.58-.14v-1.3a27.74,27.74,0,0,1-6.26-3.46c-9.07-4.75-9.07-4.75-16.92-9.22a176.22,176.22,0,0,1-22.18-10.8c0-4.61.94-3.1,4.39-5.33,4.39-.65,9.14-2.52,14.11-1.51a77.56,77.56,0,0,0,14.11,5.26c6.7,3.89,15.48,7.34,23.33,10.73.14-.65,8.21-14.18,10.94-19.58,5.11-7.06,8.14-15.77,12.24-23.26,3.46-5,4.82-8.28,10.37-11.09,2.45-.65,5.47-1.37,8.42-1.87A3.44,3.44,0,0,1,329.85,0c.65,2.38-.5,4.46-1.37,7-3.89,15.48-10,31.32-14.4,47.52-2.45,11.3-2.45,11.3-2.3,11.88.43.43.43.43,3.89,1.66,13.61,2.81,28.08,9.29,42.7,10.58,9.43,3.74,19.8,5.83,30.1,9.58,1.22.07,2.09-.22,3.74.79,1.58,3.53-5.83,7.27-8.42,8.35-1.8.14-3.53.29-5.26.5-13.82-.58-27.65-4.18-40.54-6.48-10.51-3-21.74-2.52-31.39-5.54-.65.29-.65.29-1.8,1.51-3.82,5.4-7.56,10.8-11.3,16.27-1.3,2.23-9.58,15.26-12.38,16.42a54.2,54.2,0,0,1-13.46,12.53c-.79,1.08-1,1.73-2.3,2.3-6,5-12,10.08-18,15.12-5.69,6.12-9.65,10.87-9.22,19.73,1.44.43,4.61,2.3,6.48,2.3,8.06,3.24,16.92,5.54,25.92,8.35,9.07,3.6,18.36,7.7,28.66,10.22,1.73.72,6,1.66,7.7,3.31,20.45,6.62,41.47,12.89,62.28,21,17.78,5.26,35.64,12.46,54,18.5,3.38.22,7,.07,10.87.36.22.22.22.22.29,1.44-1.58,1.22-2,1.94-6.48,5.47-4.18,2.52-5.62,3.67-8.5,7.27a48.32,48.32,0,0,1-16.85,5.76Zm-1.66-2.38c-3.1-.86-7.78-2.52-8.86-3.82a5.23,5.23,0,0,0,1.22-3.24c-5.18-2.59-12.53-2.38-16.63-4.9-6.77-2-15.12-5-21.6-6.48-4-1.94-9.86-3.74-13.68-3.46-1,2.09-1.87,3.74-3.82,4.82a8.94,8.94,0,0,0-1.44-3.46c-.72,0-1.08-1.22-1.22-1.51-3.74-2.81-6.62-1.22-10.3-.79,0-1.44,3.24-.86,3.24-3.82-2.3-2.3-9.36-3-11.66-3.53-1.15-.5-1.15-.5-9.07-2.38-5.9-1.94-11.66-3.89-17.28-5.33-13.9-5.54-28.66-8.28-41.76-13.18-8-1.8-15.26-4.46-22.32-6.26-10.94-1.87-21-6-30.31-10.37-.58-4.46,13.61-8.06,16.85-8.78,8.06-2.66,17.5-2.88,26.42-2.66,15.7,5.83,32.18,10.94,48.24,17.28,10.15,3,20.38,7.63,31.18,10.3l32.18,10.58c21.6,8.35,44.14,16.06,67,23.76a36.38,36.38,0,0,0,11,2.52v.72c-4.61,2.88-7.92,4.61-11,8.93-3.89.72-8.21,3.31-11.81,4.9-1.51,0-3,.07-4.54.14ZM80.66,220.15c.5-1.08,1-2.09,1.58-3.1-.22,1.22-.36,2.81-1.58,3.1ZM61.51,215.4a29.52,29.52,0,0,1-7.27-2.66c0-4.54,9.14-11.09,12.53-13.39,4.82-4.32,5.54-3,10.87.29.58,1,.43,1.87,2.59,2.45.86,3.6.29,6.41-2.45,9.58a41.22,41.22,0,0,1-16.27,3.74Zm21.82-2.66a19.3,19.3,0,0,0-1.94-.5,5.52,5.52,0,0,1,.94-3c3.46-.07,6.91.07,10.37-.14.29.94.58,1.87.94,2.88-3.46.22-6.91.43-10.3.72ZM104.2,212c-3.31-.5-7.63,0-8.21-3.17.79-.07,1.8.22,11.59.36,4.75-1.66,4.75-1.66,5.26-1.58,0,3.17-6.41,4.1-8.64,4.39Zm12-3.82c-.07-1.51-.14-3-.14-4.46.5-.29,5.11-.72,9.14-1.44,12.1-5,24.84-8.64,36.72-15.12,9.94-4.18,19.58-11,29.81-14.9,12.38-7.2,25.92-12.67,38.52-20.3,3-3,7.92-4.82,11.59-7.78,5.4-2.74,10.87-6.41,16.42-9.36,2.16-2.74,7.06-5,9.94-7.63a6.72,6.72,0,0,1,2.52-.86,25.22,25.22,0,0,0-3.24,3.46,11.77,11.77,0,0,0-6.26,4.54c-2.16.94-3.6,2.23-5.62,3.17-3.6,4.75-11.23,8.64-15.77,12.46-7.56,4-15.62,10.3-23.62,13-3.6,3-10.66,3.24-13,5.62,0,.94-.29,1.58.5,2.66-.36.36-4.82,1.3-10.3,3.24-2.16,1.22-4.39,2-6.26,3.17-1.44,1.37-2.88,2.74-4.25,4.18-.14-1.51-.14-1.51-.5-2-2.59,0-3.1,1-4.61,2.3-5,2.52-9.5,5.11-14,8-13.9,6.12-30.6,14.54-45.36,17-.72.36-1.44.72-2.16,1.15ZM85,206.76a16.06,16.06,0,0,0-1.66-.29,14.55,14.55,0,0,0-1.66-6.55c-2.23-.43-2.09-2.74-4.1-3v-.5c-.58-.22-.94-.79-3.38-2.3a10.15,10.15,0,0,0-1.44-.07c2.52-5.9,10.22-12.53,15-17.06,12.38-10,17-13.32,18.72-14.9,8.5-5.4,17.78-10.51,26.42-16.06,9.07-8.14,18.43-16.42,28.73-23.69.94-.43,1.73-1.15,13.54-6.91,2.74-.72,2.74-.72,3.38-1.22,5-1.87,14.26-5.76,24.84-9.58.86-.5,6.84-2.38,21.1-7.7.72-.5,6.7-2.38,10.08-3.89,6.91-.5,13.54-5.76,21-6.41,6.41-3.1,13.18-6.77,19.51-10.51,1.44-2.16,3.46-5.11,5.47-6.62,7.34-12,14.33-24.77,21.6-36.5,3.82-8.14,3.82-8.14,8.5-17.21,3.17-4.54,5.54-10.3,11.59-10.58-1.66,6.62-6,14.4-9,20.74-.94,2.16-1.87,4.32-2.74,6.55.43.43.72,1.08,1.58,1.08,3.38-7.34,6.41-15.48,10.44-22.18.79-2.3,1.58-4.61,2.45-6.91.36-.22.36-.22,1.37-.14C325,9.55,321.79,16,318.91,20.86c-1,4.32-5.54,8.78-3.38,13.75-.72,3.24-3,2.38-3.38,5.9-.65,1.15-1.3,2.3-1.94,3.53-2.09,7.06-5.4,14.62-8.42,22-.5,2.59-1.87,5-1.87,8a3.23,3.23,0,0,1,1.44,1.51c-1.94,1.73-3.17,1.58-4.32,4.32,2,3.6,1,7.92,1,12.38a82,82,0,0,1-5.54,8.64c-5.33,8.42-11.23,17.14-18.94,23.9H273c.07-.43.14-.79.22-1.15,7.49-8.42,7.49-8.42,13-15,3.53-5.76,7.27-11.09,9.36-17.06a48.43,48.43,0,0,0-.29-13.39c1.37-4.1,2.88-8.06,3.89-12.17,1.73-3.82,12-25.42,10.44-27.79a2.23,2.23,0,0,0-1.58.43c-3.24,9.36-8,18.43-11.3,27.86-.72,4.75-4.75,10.08-4.75,15l1.08.65c1.73,6.91-2.23,15.77-6.84,21.24a36.86,36.86,0,0,1-2.88,4.61c-11.66,13.25-12.24,14.18-13.54,15.41-6.48,3.67-11.81,9.29-18.5,12.24a14.42,14.42,0,0,1-6.19,3.6c-6.19,4.25-13,7.78-18.94,12.46-3.89,1.94-8.14,4.39-11.66,5.83-4.32,2.38-9.22,5.47-13.61,6.91-5.11,2.88-11.66,5.54-16,8.64-.94.22-16.27,8.42-28.94,14.69-6.34,2.66-13.61,6.55-19.94,7.63-5.62,3-14,5.9-20.16,5.47l-.65-.86c-2.3,0-4.54,1.44-6.55,2.3a23.83,23.83,0,0,1-5.4.14l-1.73-1.51c-3.67.29-6.91,1.58-8.28,4.82-2.74,1.37-5.9,1-8.28,1.08ZM66.26,190.92c0-2.23,3.24-7,5.18-6.55-1.51,2.16-3.67,3.17-4.61,6.12a4,4,0,0,0-.58.43ZM179.8,186.1a1.57,1.57,0,0,0-.22-.36c.58-.86,1.37-2.23,2.38-2.52a26,26,0,0,0-.94,2.52,6.08,6.08,0,0,0-1.22.36Zm25-14.9c4.9-2.38,11.3-3.1,16.92-4.46,4.25,0,9.22-.86,13.61,1.08a5.65,5.65,0,0,0,.14,1c-10.58-1.3-20.81,1.94-30.67,2.38Zm-22.32-7.63c-1.73-1.73-1.37-3-1.44-4.32,2.74-6,5.18-14.54,9.72-19.08,8.71-2.09,12.82-5.11,11.23,8.64-2.52,6.41-10.66,8-14.4,12.67a20.6,20.6,0,0,1-5.11,2.09Zm-9.14-.5-19.44-7.56c-5.9-5,1.08-7.34,3.46-11.3,4.54-2.23,7.06-10.3,12.89-10.3.5,1,13.1,4.68,15.19,6,0,1.8-1,3.46-1.87,5.33-1.44,4.25-3.74,14.62-8.06,17.71-.72,0-1.44.07-2.16.14Zm-30-12.24a34.48,34.48,0,0,1-6.26-3.46c-.07-4.25,1.15-4.25,4.1-7.06,7-4,12.67-16.42,22.1-9.36.22,3.6-5.69,7.85-8.5,10.22-2.74,3.1-7.13,8.93-11.45,9.65ZM122,149.38c-9.79-6-19.44-12.46-28.37-18.14-7.56-3.17-15.19-7.92-21.82-11.52-1.22-.86-2.38-1.66-3.53-2.45A226.7,226.7,0,0,1,43.8,102.65c-1.15-.5-2.66-1.8-6.48-3.82-3.17-1.8-10.08-5.18-11.59-7.2-5.33-3.24-10.94-7.85-15.48-10.37a16.45,16.45,0,0,0-1.8-.14,15.19,15.19,0,0,0-1.66,1.37,5.23,5.23,0,0,1-4.25-5.26c6.12-4.39,14.62-5.47,22.18-7.42a6.26,6.26,0,0,1,2.74-.72,27.91,27.91,0,0,0,11.81,7.7c2.23,1.51,5.54,2.74,8.64,4,6.34,3.53,13.18,9.07,20.59,11.52,1.73,1,1.73,1,11.09,4.9,7.34,4.1,15.26,7.49,23.33,12.1,4.46,2,5.83,3,10.51,4.9,7.92,4,7.92,4,8.71,4.75,2.74.94,5.83,3.67,9.29,4.32,1.8,1.15,12.74,6.48,14.11,7.49,0,.43,0,.43-1.3,1.87-7.13,5.11-13.61,14.26-22.25,16.7ZM208.82,147c-2.38-1.87-1.44-9.22-1.58-11.88,1.44-4.32.94-4.25,5.54-3.38,1.66,3,.94,6.12,1.94,9.86-.5,3.89-2.88,4.25-5.9,5.4Zm16.13-7.92c-.5-.22-.94-.43-1.37-.65-.36-4.61-2.59-13.75,4.54-13,1.44,5.83,4,11.52-3.17,13.61Zm17.5-9.14c-2.16-2.16-1.08-8.5-.86-11.16,1.37-1.37,2.66-2.38,5-1.22.65,4,2.38,8.93-1.44,12.24-.94,0-1.87.07-2.74.14Zm29.74-4.32c.14-.36.14-.36.36-.29a.72.72,0,0,0-.36.29ZM381.62,94.87c-.94-.36-.94-.36-5.76-.86A103.77,103.77,0,0,0,357,90.7c-7.92-2.88-15.55-3.1-23.11-3.89-7.7-1.51-15.26-4-22.54-4.75-1.58-.65-3.17-1.22-4.68-1.8,0-5,7.85-6.91,11.16-8.28,3,.22,6.26,1.3,9.79,2.38,9.58,1.94,20.59,5.54,30.74,6.7,8.5,3,17.71,6,27.14,8.42,1,.5,2,1,3.1,1.51,0,1.8-5.47,3.74-7,3.89Zm-78.7-20.59c1.3-1.3,2.23-2.81,4.1-3.17-.86,1.94-2.45,2.3-4.1,3.17Zm7.92-3.38V69.67a1.36,1.36,0,0,1,.58-.14c.43.36.43.36.43.94-.36.14-.72.29-1,.43Zm-33.12-4.32c-1-1.73-3.89-2-4.9-2.3-3.89-1.94-5.69-3.1-14.4-7.2a133.14,133.14,0,0,1-23.18-11.23,11.11,11.11,0,0,0-1.22-.36,2.1,2.1,0,0,1,.14-.65,40.24,40.24,0,0,1,12.6-1.94,101.77,101.77,0,0,0,9.72,3.82c5.9,1.58,11.59,5.83,18.22,7.49,2.74,1.22,5.33,3,8.86,4.32,0,1.87-3.31,6.26-4.54,7.92a7.93,7.93,0,0,0-1.3.14Z"/></g></g></svg>