<?xml version="1.0" encoding="utf-8"?>
<!-- Generator: Adobe Illustrator 21.1.0, SVG Export Plug-In . SVG Version: 6.00 Build 0)  -->
<svg version="1.1" id="Blu" xmlns="http://www.w3.org/2000/svg" xmlns:xlink="http://www.w3.org/1999/xlink" x="0px" y="0px"
	 viewBox="0 0 376.128 447.552" enable-background="new 0 0 376.128 447.552" xml:space="preserve">
<g>
	<path fill-rule="evenodd" clip-rule="evenodd" d="M217.152,447.552c-0.36-0.144-0.792-0.288-1.224-0.432
		c-1.224-1.368-1.224-1.368-1.584-2.304c0-0.792,0-1.584,0-2.376c0.288-0.792,0.576-1.584,0.936-2.376
		c3.168-4.68,6.408-9.432,9.648-14.184c0.432-1.44,0.432-1.44,2.376-5.256c0.648-2.52,1.296-5.112,1.944-7.704
		c0.36-3.672,0.72-7.344,1.152-11.016c0-5.4,0-10.872,0-16.344c-1.152-18.504-1.656-21.6-1.656-24.984
		c-0.144-2.232-0.288-4.464-0.504-6.696c0.216-2.808,0.432-5.616,0.72-8.424c0.288-1.296,0.648-2.664,1.008-4.032
		c0-0.72,0-1.44,0-2.16c-0.288-0.7921-0.648-1.584-1.008-2.448c-4.032-4.32-4.032-4.32-7.2-7.2c-1.44-0.936-1.44-0.936-3.816-3.096
		c-1.944-2.88-3.816-6.264-4.32-6.696c-1.224-2.88-2.52-5.76-3.816-8.64c-2.52-4.896-5.112-9.792-7.704-14.688
		c-1.944-2.592-2.376-3.6-3.384-4.752c-0.144-0.36-0.288-0.792-0.432-1.224c-0.936-1.224-1.872-2.52-2.88-3.816
		c-2.16-1.944-2.16-1.944-4.104-4.32c-1.152-0.936-2.304-1.872-3.456-2.88c-0.288-0.72-0.576-1.44-0.864-2.16
		c-5.544-4.536-11.16-9.072-16.776-13.68c-4.32-2.88-5.328-3.888-8.208-5.76c-1.224-0.576-2.448-1.224-3.672-1.8719
		c-0.72-0.144-1.44-0.2881-2.16-0.432c-2.88-2.16-2.88-2.16-3.816-3.168c-2.88-1.512-2.88-1.512-4.104-2.592
		c-0.576-0.864-1.152-1.8-1.8-2.736c0.072-0.648,0.144-1.296,0.216-1.944c0.36-0.288,0.72-0.576,1.08-0.936
		c1.728-0.432,3.528-0.864,5.328-1.368c1.656-0.072,3.312-0.216,5.04-0.36c0.072-0.216,0.144-0.432,0.216-0.72
		c-0.144,1.008-0.144,1.008,0.216,1.44c0.72-0.144,0.72-0.144,7.488,1.296c0.936,0.504,8.64,1.944,23.7599,5.76
		c1.008,0.288,2.016,0.648,3.096,1.008c6.984,3.816,7.416,4.32,8.424,4.752c4.032,2.88,5.0399,3.888,7.92,5.76
		c8.856,7.704,9.792,8.928,12.24,10.944c0.144,0.288,0.288,0.576,0.432,0.864c3.168,2.592,3.168,2.592,6.768,6.12
		c4.32,5.4,5.04,5.832,6.912,8.496c2.016,2.16,4.032,4.392,6.12,6.624c0.36,0.648,0.792,1.296,1.224,1.944
		c2.16,1.872,3.096,3.096,5.472,5.04c0.576,0.576,1.152,1.224,1.8,1.872c1.008,0.36,1.008,0.36,3.672,2.304
		c2.16,0.216,2.16,0.216,4.536,0c0.648-0.288,1.296-0.648,1.944-1.008c2.16-2.16,2.16-2.16,2.448-2.736
		c-0.072-0.936-0.144-1.872-0.216-2.88c-0.6479-0.864-1.296-1.728-1.944-2.592c-0.4319-1.44-0.9359-2.88-1.4399-4.32
		c0.072-0.72,0.144-1.44,0.288-2.16c0.288-0.648,0.576-1.296,0.936-1.944c1.152-1.152,2.304-2.304,3.528-3.528
		c1.656-0.144,3.312-0.288,5.04-0.432c1.512-0.288,3.024-0.648,4.536-1.008c1.44-0.576,2.88-1.224,4.32-1.872
		c5.976-3.888,5.976-3.888,8.424-5.7599c7.632-8.208,7.632-8.208,13.248-14.76c0.504-1.656,0.504-1.656,3.384-7.92
		c0.288-2.664,0.576-5.4,0.936-8.136c0-3.528,0-7.056-0.072-10.584c-0.36,0-0.792-0.072-1.224-0.144
		c-0.504,0.576-1.008,1.152-1.584,1.8c-0.576,0.288-1.152,0.576-1.728,0.864c-1.44,0-1.44,0-3.168-0.504
		c-4.608-2.52-9.216-5.112-13.8961-7.704c-1.944-1.584-3.96-3.168-5.976-4.752c-1.08-0.648-2.232-1.296-3.384-1.944
		c-3.816-3.384-4.824-3.816-5.7599-4.824c-3.6-2.592-7.2-5.256-10.8-7.92c-4.32-3.816-4.32-3.816-8.136-7.632
		c-3.888-5.184-3.888-5.184-11.448-16.704c-2.376-4.32-4.752-8.64-7.2-12.96c-1.296-0.144-6.336,0.36-12.816,0.576
		c-1.224-0.144-2.5201-0.288-3.816-0.432c-1.944,0.72-4.824,2.592-8.64,4.536c-1.08,0.432-2.232,0.864-3.384,1.368
		c-1.08,2.88-1.08,2.88-1.584,3.6c-0.36,0.216-0.72,0.504-1.08,0.7921c-3.312,0.504-3.312,0.504-5.472,0.504
		c-5.328-1.944-5.328-1.944-6.768-2.16c-0.576,1.296-0.576,1.296-1.152,1.656c-2.808-0.216-5.616-0.432-8.424-0.72
		c-1.368-0.288-2.736-0.576-4.104-0.936c-3.456-1.296-6.984-2.592-10.512-3.888c-1.08-0.576-2.232-1.224-3.384-1.872
		c-2.592-1.872-5.256-3.816-7.92-5.76c-2.16-2.448-3.6-3.528-8.424-8.928c-0.72-0.432-1.44-0.936-2.16-1.44
		c-1.8-0.288-3.6-0.576-5.472-0.936c-3.168-0.144-6.408-0.288-9.648-0.504c-7.632-0.936-7.632-0.936-23.976-3.816
		C99.864,153.288,99,153,98.064,152.64c-0.504-0.576-1.008-1.152-1.584-1.8c-0.072-0.72-0.144-1.44-0.216-2.16
		c4.104-4.104,4.104-4.104,5.904-5.4c1.944-0.792,3.96-1.584,5.976-2.448c6.264-1.872,6.264-1.872,6.48-2.16
		c2.52-0.576,5.04-1.152,7.56-1.728c-0.072-0.288-0.144-0.648-0.216-1.008c-0.648-0.72-1.296-1.44-1.944-2.16
		c-2.448-1.872-4.896-3.816-7.344-5.76c-6.696-3.744-6.696-3.744-14.832-7.56c-5.688-2.88-11.376-5.76-17.064-8.64
		c-2.88-0.936-4.752-1.944-29.232-11.52c-22.824-6.696-23.544-7.2001-28.584-8.64c-2.952-0.288-5.904-0.576-8.856-0.936
		C2.304,86.832,2.304,86.832,1.584,86.4c-0.432-0.72-0.936-1.512-1.44-2.3041c0-0.432-0.072-0.936-0.144-1.4399
		c0.144-0.4321,0.288-0.936,0.504-1.4401c0.36-0.4319,0.792-0.9359,1.224-1.4399c0.72-0.288,1.512-0.576,2.304-0.864
		c2.736,0,5.544,0,8.352,0c7.056,1.4401,14.112,2.8801,21.168,4.3201c13.896,3.888,13.896,3.888,29.52,7.704
		c4.68,0.936,9.36,1.872,14.112,2.88c4.464,0.6479,8.928,1.296,13.464,1.944c24.48,1.44,24.48,1.44,37.944,1.872
		c8.928-0.216,17.856-0.432,26.856-0.72c2.664,0.288,2.664,0.288,6.48,0.288c0.36-0.144,0.792-0.288,1.224-0.504
		c8.64-0.936,8.64-0.936,21.096-2.88c2.592-0.792,5.256-1.584,7.92-2.376c1.224-0.6479,2.52-1.296,3.816-1.944
		c6.048-1.944,15.84-5.76,24.264-8.64c1.584-0.936,3.168-1.872,4.824-2.8801c1.872-2.376,1.872-2.376,3.168-4.6799
		c0.864-0.72,1.728-1.44,2.664-2.16c3.096-3.7441,6.192-7.4881,9.36-11.232c0.576-1.224,1.224-1.728,1.656-2.88
		c3.816-4.7521,7.632-9.576,11.52-14.4c2.5921-2.736,5.256-5.472,7.92-8.208c4.32-3.816,6.624-6.1921,8.208-7.2001
		C269.712,27,269.856,26.784,270,26.496c10.584-7.632,15.408-11.52,20.808-15.3361c2.592-2.16,4.32-3.0239,6.696-4.968
		c2.304-0.936,4.608-1.872,6.984-2.88c0.72-0.576,1.44-1.224,2.16-1.872c2.16-0.4319,4.32-0.936,6.48-1.44
		c1.152,0.144,2.376,0.288,3.6,0.432c0.36,0.432,0.36,0.432,0.36,2.088c-0.144,0.648-0.288,1.296-0.504,1.944
		c-2.88,4.752-2.88,4.752-3.816,6.912c-3.168,4.536-6.408,9.072-9.648,13.68c-1.872,3.384-2.88,4.608-6.696,10.8
		c-1.944,2.448-1.944,2.448-3.816,5.544c-0.6479,1.656-1.296,3.312-1.944,5.04c-1.224,5.3279-2.52,10.6559-3.816,16.056
		c-0.072,4.5359-0.144,9.072-0.288,13.68c0.648,1.656,1.296,3.312,1.944,5.0399c0.648,2.448,1.296,4.9681,1.944,7.488
		c0.36,0.504,0.72,1.08,1.152,1.6561c2.304,1.944,4.608,3.96,6.9839,5.976c3.384,1.9439,5.4,2.736,12.168,6.6239
		c1.296,0.576,2.664,1.2241,4.032,1.8721c1.008,1.0079,3.888,2.88,8.424,6.7679c0.936,0.576,1.8719,1.2241,2.88,1.872
		c15.84,13.68,17.496,14.688,19.656,16.56c3.168,3.672,6.408,7.416,9.648,11.16C362.88,153,362.88,153,366.768,159.984
		c2.232,4.896,4.464,9.864,6.696,14.832c1.944,10.08,1.944,10.08,2.376,14.4c0.072,3.24,0.144,6.552,0.288,9.864
		c-0.144,4.32-0.288,8.64-0.504,12.9601c-0.7921,5.472-1.584,11.016-2.376,16.56c-5.76,19.656-6.048,19.944-6.9839,23.544
		c-1.224,2.952-2.52,5.904-3.816,8.856c-7.704,15.624-7.704,15.624-11.52,22.536c-1.872,2.592-3.816,5.256-5.76,7.92
		c-2.16,2.232-4.32,4.4641-6.48,6.768c-0.864,0.576-1.728,1.224-2.664,1.872c-1.944,2.16-1.944,2.16-6.696,9.144
		c-0.288,0.936-0.648,1.872-1.008,2.88c-0.432,0.792-0.936,1.584-1.44,2.376c-0.288,1.872-0.576,3.816-0.936,5.76
		c-0.072,2.808-0.144,5.616-0.216,8.424C324,339.48,324,339.48,324,341.64c-1.296,5.472-2.664,11.016-4.032,16.56
		c-1.008,2.16-1.008,2.16-1.944,3.384c-0.72,0.432-1.512,0.936-2.304,1.44c-0.936,0.072-0.936,0.072-1.872-0.432
		c-0.864-1.512-0.864-1.512-1.8-4.608c-0.6479-4.248-1.296-8.496-1.944-12.744c-0.648-1.944-1.296-3.96-1.944-5.976
		c-0.792-1.728-1.584-3.528-2.376-5.328c-1.224-2.232-2.52-4.464-3.816-6.696c-0.936-1.152-1.872-2.376-2.88-3.6
		c-0.144-0.432-0.288-0.936-0.504-1.44c-0.504-0.36-1.008-0.7921-1.584-1.224c-1.224-0.0721-2.52-0.216-3.816-0.36
		c-0.72,0.504-2.376,0.936-2.88,1.44c-3.024,1.584-6.048,3.168-9.072,4.824c-2.448,1.8719-5.76,3.816-6.768,4.752
		c-0.936,1.44-3.0959,3.6-5.04,6.624c-1.512,3.096-3.096,6.192-4.68,9.36c-0.504,1.944-0.936,5.544-1.44,6.768
		c-0.936,8.352-1.224,9.072-2.16,17.496c-1.944,11.304-1.944,11.304-3.816,20.376c-3.888,14.688-3.888,14.688-5.76,20.16
		c-1.008,1.944-1.944,4.608-2.448,5.04c-0.288,0.72-0.576,1.44-0.936,2.16c-3.816,5.544-7.704,10.368-9.576,13.248
		c-1.224,0.936-2.16,2.16-11.808,10.08c-3.96,2.88-3.96,2.88-5.616,3.672C218.088,447.552,218.088,447.552,217.152,447.552
		L217.152,447.552z M217.584,444.96c-0.144-0.072-0.36-0.216-0.576-0.36c0-0.864,0-1.728,0-2.664
		c2.88-4.536,6.696-9.792,8.136-12.24c0.504-0.432,1.944-3.6,4.104-7.416c0.792-3.168,1.584-6.336,2.376-9.576
		c0.504-4.608,1.008-9.288,1.584-13.968c1.44-1.224,2.88-2.52,4.392-3.816c1.944-2.376,1.944-2.376,3.888-5.544
		c3.816-8.856,3.816-8.856,4.752-11.952c0.288-2.016,0.648-4.032,1.008-6.048c0.36-0.072,0.72-0.144,1.08-0.216
		c0,0.792,0,1.584,0.072,2.376c-0.576,4.968-1.224,9.936-1.872,14.904c-1.008,3.816-1.008,3.816-1.944,5.76c0,0.504,0,1.08,0,1.656
		c-0.648,2.52-1.296,5.112-1.944,7.704c-1.8719,5.256-1.8719,5.256-3.816,9.576c-0.648,1.08-1.296,2.232-1.944,3.384
		c-1.872,2.16-5.976,5.976-6.912,7.2c0.072,0.288,0.144,0.576,0.216,0.936c0.504,0.072,1.008,0.144,1.584,0.288
		c-0.288,0.576-0.576,1.224-0.864,1.872c-1.152,1.368-2.376,2.736-3.6,4.104c0,0.504,0,1.08,0,1.656
		c0.288,0.36,0.576,0.72,0.864,1.08c1.584,0.144,3.168,0.36,4.824,0.576c-3.6,3.096-7.2,6.192-10.8,9.288
		c-1.008,0.432-2.088,0.936-3.168,1.44C218.592,444.96,218.088,444.96,217.584,444.96L217.584,444.96z M232.992,395.64
		c-0.144-7.704-0.144-7.704-0.864-17.784c2.88-1.872,2.88-1.872,4.32-3.312c0.144-0.288,0.288-0.648,0.432-1.008
		c1.008-1.08,2.088-2.16,3.168-3.312c0.288-0.576,0.576-1.152,0.936-1.728c0.792-4.608,1.584-9.216,2.376-13.896
		c0.936-3.312,1.872-6.696,2.88-10.08c0.648-1.08,1.296-2.232,1.944-3.384c1.224-0.936,1.224-0.936,3.24-3.096
		c1.8-0.0721,3.672-0.216,5.544-0.36c0.144,0.072,0.288,0.216,0.504,0.36c-1.368,1.44-2.736,2.88-4.104,4.392
		c-3.744,6.408-3.744,6.408-7.128,13.104c-0.144,0.4319-0.288,0.9359-0.432,1.44c0.216,4.6079,0.216,4.6079,0,6.768
		c-0.144,0.432-0.288,0.936-0.504,1.44c-0.36,0.36-0.792,0.72-1.224,1.152c0,0.648,0,1.296,0,1.944
		c0.36,0.36,0.792,0.792,1.224,1.224c-0.216,4.32-0.216,4.32-0.72,7.632c-1.944,5.76-1.944,5.76-3.816,10.08
		c-0.648,1.08-1.2961,2.232-1.944,3.384c-1.44,1.584-2.88,3.24-4.392,4.896C234,395.496,233.496,395.568,232.992,395.64
		L232.992,395.64z M231.984,375.264c-0.864-9.864-0.864-9.864-0.864-13.68c0.936-1.08,1.872-2.232,2.88-3.384
		c0.936-1.728,1.872-3.456,2.88-5.256c0.432-1.512,0.936-3.024,1.44-4.608c0.648-0.936,1.296-1.872,1.944-2.88
		c3.816-4.032,3.816-4.032,6.624-6.4799c0.072,0.144,0.216,0.288,0.36,0.504c-0.288,0.288-0.648,0.576-1.008,0.936
		c-0.576,1.296-1.224,2.592-1.872,3.888c-0.7921,2.736-1.584,5.544-2.448,8.352c-0.936,5.184-1.872,10.368-2.88,15.624
		c-1.656,1.944-3.312,3.9601-5.04,5.976C232.704,375.12,232.704,375.12,231.984,375.264L231.984,375.264z M315.072,360
		c-0.864-3.024-2.808-13.824-4.248-19.584c-0.504-0.72-2.376-5.76-3.816-8.64c-0.504-0.432-0.504-0.432-2.88-5.04
		c-0.288-1.656-0.288-1.656,0-2.16c0.432-6.192,0.432-6.192,1.872-16.056c1.008-2.376,2.88-8.424,4.248-11.664
		c0.216,0,0.432,0.072,0.72,0.144c0.144,0.216,0.288,0.504,0.504,0.792c0.072,0.864,0.144,1.728,0.288,2.592
		c-0.432,0.72-0.432,0.72-1.44,4.536c-0.288,2.232-0.576,4.464-0.936,6.696c-0.144,3.096-0.288,6.192-0.504,9.36
		c-0.216,0.216-0.432,0.4319-0.72,0.72c0.72,3.888,0.72,3.888,1.224,5.04c0.288,0.072,0.576,0.216,0.864,0.36
		c0.216-5.184,0.504-10.44,0.7921-15.696c0.36-2.088,0.792-4.176,1.2239-6.264c0.072-0.072,0.216-0.144,0.36-0.216
		c0.576,1.224,1.08,4.5359,2.0159,7.416c0.2881,0.288,1.2241,5.544,1.7281,6.984c0.936,5.976,0.936,5.976,1.4399,13.464
		c0,2.304,0,4.608,0,6.912c-1.008,8.64-1.008,8.64-1.008,10.368c0.216,0.144,0.432,0.36,0.648,0.576c0.36,0,0.792,0.072,1.224,0.144
		c-0.144,1.584-0.288,3.168-0.432,4.752c-0.432,1.296-0.936,2.5919-1.44,3.888C316.224,359.856,316.224,359.856,315.072,360
		L315.072,360z M231.048,357.552c-0.072-0.288-0.216-0.648-0.36-1.008c0.072-2.808,0.144-5.616,0.216-8.424
		c0.432-2.592,0.936-5.256,1.44-7.92c-0.072-0.72-0.144-1.44-0.216-2.16c-0.648-1.08-1.296-2.232-1.944-3.384
		c-1.944-2.16-1.944-2.16-10.584-10.08c-0.576-0.864-1.224-1.728-1.872-2.592c-3.888-7.488-3.888-7.488-8.208-16.848
		c0-0.288,0-0.576-0.072-0.936c0.792,0.216,1.584,0.504,2.376,0.792c5.76,3.888,5.76,3.888,7.704,4.824
		c2.448,2.52,4.896,5.112,7.416,7.704c5.328,3.816,5.328,3.816,9.864,6.696c3.096,0.936,3.096,0.936,6.264,1.44
		c0,0.432,0,0.864,0.0721,1.368c-0.216,0.576-0.5041,1.152-0.7921,1.728c-1.584-0.072-3.168-0.144-4.824-0.2159
		c-0.936-0.2881-1.872-0.576-2.88-0.936c-3.096-1.944-3.096-1.944-5.256-2.88c-2.016-1.368-4.032-2.736-6.048-4.104
		c-1.152-0.432-2.376-0.936-3.6-1.44c-0.288,0.072-0.576,0.144-0.936,0.216c0,0.504-0.072,1.008-0.144,1.584
		c0.36,0.36,0.36,0.36,3.24,1.296c3.168,1.944,5.76,3.888,12.528,7.704c1.008,0.288,2.016,0.576,3.096,0.936
		c1.368,0.144,2.736,0.288,4.104,0.504c0.0721,0.576,0.144,1.152,0.288,1.8c0.36,0.648,0.72,1.296,1.08,1.944
		c1.44,0.936,1.44,0.936,2.088,1.656c0,0.216,0,0.4319,0,0.72c-2.88,3.168-2.88,3.168-5.04,5.04c-0.936,1.152-1.872,2.376-2.88,3.6
		c-1.008,2.16-1.008,2.16-1.944,5.328c-2.88,5.04-2.88,5.04-3.96,6.192C231.192,357.696,231.12,357.624,231.048,357.552
		L231.048,357.552z M319.104,349.416c-0.144-0.792,0.36-7.056,0.576-15.48c-0.432-7.632-0.432-7.632-1.152-13.176
		c-0.648-2.664-1.296-5.4001-1.944-8.136c-0.36-1.008-0.792-2.088-1.224-3.168c-0.936-6.192-0.936-6.192-1.8719-10.296
		c-0.504-1.656-1.0081-3.312-1.584-5.04c-0.576-0.072-1.224-0.144-1.8719-0.216c1.728-6.9839,2.736-10.08,3.6719-14.904
		c3.816-11.736,3.816-11.736,5.76-16.56c0.288-0.432,0.576-0.936,0.864-1.44c0.288-0.072,0.576-0.144,0.936-0.216
		c0.864,6.264,1.8,12.6,2.736,18.936c0.36,1.728,0.792,3.456,1.224,5.256c0.144,2.16,0.288,4.32,0.504,6.4799
		c-0.144,4.176-0.288,8.352-0.504,12.528c-0.432,0.36-0.936,0.72-1.44,1.152c-0.072,0.864-0.144,1.728-0.216,2.664
		c-0.504,0.936-0.504,0.936-0.576,1.656c1.152,0.072,2.376,0.144,3.6,0.288c-0.864,2.376-0.864,2.376-1.872,4.032
		c-0.288,2.16-0.576,4.32-0.936,6.48c0,2.016,0,4.032,0,6.0479c-0.936,6.696-1.224,6.912-1.656,11.9521
		c-0.288,2.232-0.6479,4.464-1.008,6.7679c-1.44,4.32-1.44,4.32-1.8,4.536C319.248,349.56,319.176,349.488,319.104,349.416
		L319.104,349.416z M250.992,331.92c-0.36-0.144-0.792-0.288-1.224-0.504c-0.288-0.432-0.576-0.864-0.864-1.296
		c0.072-0.648,0.144-1.296,0.216-1.944c0.792-1.08,1.584-2.16,2.448-3.312c0.936-2.448,0.936-2.448,2.376-8.928
		c0.288-0.36,0.576-0.72,0.936-1.152c3.816-1.872,7.632-3.744,11.448-5.688c5.976-4.824,6.984-5.256,19.224-14.976
		c0.432-0.648,5.04-4.464,5.976-5.688c0.864-0.576,1.728-1.224,2.664-1.872c1.872-2.304,3.816-4.608,5.7599-6.984
		c0.936-1.44,1.872-2.952,2.8801-4.464c0.4319-1.08,0.864-2.16,1.296-3.312c0.792-3.384,1.584-6.84,2.376-10.296
		c0.216-4.752,0.432-9.576,0.72-14.4c-0.288-1.656-0.576-3.312-0.936-5.04c0-3.168,0-6.408,0.072-9.648
		c1.0081-0.36,1.0081-0.36,1.512-0.864c0.576-0.072,1.224-0.144,1.872-0.288c0.072-0.216,0.144-0.432,0.216-0.72
		c1.008-0.144,1.008-0.144,1.944,0.288c1.8,3.528,1.8,3.528,3.744,6.624c0.576,1.656,1.224,3.312,1.872,5.04
		c0.936,4.248,1.8719,8.496,2.88,12.744c0,0.648,0,1.2961,0,1.944c-0.936,1.152-0.936,1.152-2.88,5.256
		c-2.8801,7.416-3.312,9.144-3.6,9.36c-1.872,6.984-1.872,6.984-3.816,15.624c-1.944,5.976-3.816,13.896-5.76,19.656
		c-0.288,0.648-0.576,1.296-0.936,1.944c-1.728,1.584-3.528,3.168-5.3281,4.752c-0.9359,1.728-1.44,2.16-1.8719,3.168
		c-1.008,0.216-2.016,0.504-3.024,0.792c-4.032,1.944-17.28,9.576-19.44,10.584c-0.72,0.144-1.44,0.288-2.16,0.4319
		c-3.312-0.2159-3.312-0.2159-5.976,0c-4.032,1.0081-8.136,2.088-12.2399,3.1681C252.576,331.92,251.784,331.92,250.992,331.92
		L250.992,331.92z M242.784,323.28c-1.872-0.432-3.816-0.936-5.76-1.44c-2.952-2.016-5.904-4.032-8.856-6.048
		c-1.944-1.872-1.944-1.872-3.816-4.32c-1.512-1.224-3.024-2.52-4.608-3.816c-1.152-0.648-2.376-1.296-3.6-1.944
		c-0.936-0.792-1.872-1.584-2.88-2.376c-1.224-0.648-2.52-1.296-3.816-1.944c-0.72,0-1.44,0-2.16,0
		c-1.8-3.456-1.8-3.456-7.56-12.816c-0.936-1.296-1.872-2.664-2.88-4.032c-1.224-1.008-1.224-1.008-2.664-2.88
		c0-0.216,0-0.432-0.072-0.72c0.504,0.072,1.08,0.144,1.656,0.288c2.592,1.296,5.256,2.592,7.92,3.888
		c1.944,1.224,3.96,2.52,5.976,3.816c4.104,4.536,4.104,4.536,8.208,8.496c2.52,3.384,5.0399,6.768,7.632,10.224
		c2.16,2.16,2.16,2.16,4.608,4.104c0.792,0.288,1.584,0.576,2.376,0.936c0.864,0.648,1.728,1.296,2.664,1.944
		c2.448,0.936,4.896,1.872,7.416,2.88c0.792,0.576,1.584,1.224,2.376,1.872c0,0.504,0.072,1.008,0.144,1.584
		c-0.288,0.72-0.648,1.44-1.008,2.16C243.648,323.136,243.216,323.208,242.784,323.28L242.784,323.28z M301.824,322.272
		c-1.872-2.376-1.872-2.376-3.0959-3.312c0-0.432-0.072-0.864-0.144-1.296c1.368-1.512,2.736-3.024,4.104-4.608
		c0.288-0.072,0.576-0.144,0.864-0.216c-0.864,7.416-0.864,7.416-1.368,9.36C302.112,322.2,301.968,322.2,301.824,322.272
		L301.824,322.272z M320.832,321.336c-1.4401-1.224-1.4401-1.224-1.728-1.08c0-2.88,0-2.88-0.36-4.032
		c0.288-0.576,0.576-1.152,0.936-1.728c-0.072-2.88-0.144-5.76-0.216-8.64c-0.144-0.432-0.288-0.936-0.504-1.44
		c-1.152-10.512-1.152-10.512-2.376-18.936c0.36-0.36,0.36-0.36,1.08-0.36c0.288,0.432,0.576,0.864,0.864,1.296
		c0.576,5.112,1.224,10.224,1.872,15.408c0.288,1.512,0.6479,3.024,1.008,4.5359c0.216,2.304,0.432,4.608,0.72,6.984
		c0,2.304,0,4.608,0,6.912c-0.144,0.288-0.288,0.6479-0.504,1.008C321.408,321.264,321.12,321.264,320.832,321.336L320.832,321.336z
		 M253.152,312.84c0-1.368,0-2.736,0-4.104c0.936,0,1.872,0.072,2.88,0.144c1.152-0.144,2.376-0.288,3.6-0.504
		c0.432-0.504,1.656-0.936,3.6-2.376c0.792-1.08,1.584-2.16,2.376-3.24c0-0.504,0-1.08,0.072-1.656
		c-0.288-0.792-0.576-1.584-0.936-2.448c-0.648-0.864-1.296-1.728-1.944-2.592c-0.36-0.936-0.72-1.872-1.152-2.88
		c0-0.792,0-1.584,0-2.448c0.936-1.152,1.944-2.376,2.952-3.6c1.944-0.288,3.888-0.576,5.832-0.864
		c2.88-0.936,2.88-0.936,5.472-1.44c6.768-3.816,7.2-4.32,8.208-4.752c1.512-1.296,3.024-2.592,4.536-3.888
		c5.976-6.48,5.976-6.48,6.696-6.912c5.904-7.056,5.904-7.056,7.56-9.504c0.216-2.592,0.216-2.592,0.648-3.6
		c0.216-0.072,0.432-0.144,0.72-0.216c0.072,1.656,0.072,1.656-0.864,8.424c-0.648,2.592-1.296,5.256-1.944,7.92
		c-1.944,3.816-1.944,3.816-3.816,6.696c-1.872,2.16-3.816,4.32-5.76,6.48c-2.448,1.944-6.48,5.7599-23.328,19.44
		c-0.864,0.648-1.8,1.296-2.736,1.944C258.624,310.536,258.624,310.536,253.152,312.84L253.152,312.84z M234.864,311.472
		c-1.296-0.576-2.664-1.224-4.032-1.872c-1.08-0.936-2.232-1.872-3.384-2.88c-2.592-3.528-5.256-7.056-7.92-10.584
		c-8.64-8.64-8.64-8.64-11.016-10.584c-0.72-0.288-1.44-0.576-2.16-0.936c-0.864-0.648-1.728-1.296-2.664-1.944
		c-2.592-1.224-5.256-2.52-7.92-3.816c-1.8-0.288-3.672-0.576-5.544-0.936c-0.36-0.864-0.36-0.864-2.304-3.024
		c-2.16-1.872-3.672-2.736-8.712-6.84c-0.36-0.144-0.7921-0.288-1.224-0.504c-2.232-1.872-4.464-3.816-6.696-5.76
		c-0.648-0.432-1.368-0.864-2.088-1.296c0-0.216,0-0.432-0.0721-0.72c1.8,0.288,3.672,0.576,5.544,0.864
		c4.752,1.584,9.576,3.168,14.4,4.752c1.44,1.008,1.44,1.008,5.256,2.88c1.584,1.224,3.168,2.448,4.752,3.744
		c0,0.288,0.072,0.648,0.144,1.008c-0.144,0.144-0.288,0.288-0.504,0.432c0,0.36,0,0.792,0,1.224c0.504,0.72,0.504,0.72,1.368,1.08
		c2.664,0.432,2.664,0.432,4.1039,0.936c0.576,0.864,1.224,1.728,1.872,2.664c0.72,0.648,1.44,1.296,2.16,2.0161
		c0.288,0.6479,0.576,1.296,0.864,1.944c3.24,1.944,5.7599,4.104,11.952,7.92c0.144,0.216,0.288,0.432,0.504,0.72
		c0.072,0.72,0.144,1.44,0.216,2.16c3.384,4.104,4.104,4.536,5.184,5.976c0.864,0.72,1.8,1.44,2.736,2.16
		c0.288,0.936,0.648,1.872,1.008,2.88c1.872,1.944,1.872,1.944,4.752,5.76C235.224,311.4,235.224,311.4,234.864,311.472
		L234.864,311.472z M327.528,300.6c0-2.952,0-5.904,0.072-8.856c-0.576-4.176-1.224-8.352-1.872-12.528
		c-0.144-2.16-0.288-4.32-0.504-6.48c-0.936-6.336-1.872-12.744-2.88-19.152c-1.944-7.92-1.944-7.92-2.376-11.088
		c-0.648-1.584-1.296-3.168-1.944-4.752c-1.8719-3.456-3.816-6.912-5.76-10.368C310.32,225,310.32,225,301.248,211.104
		c-0.6479-1.44-1.296-2.88-1.944-4.32c-7.704-7.92-7.704-7.92-11.52-12.24c-5.04-3.888-5.04-3.888-5.832-4.752
		c-0.3599-0.072-0.7919-0.144-1.2239-0.216c-0.144,0.216-0.288,0.432-0.504,0.72c-0.36-0.216-0.72-0.432-1.152-0.72
		c-1.296-1.944-2.592-3.96-3.888-5.976c-1.8-3.9601-4.68-12.384-5.04-12.744c-0.432,0-0.864,0.072-1.296,0.144
		c0.216,1.44,0.72,2.376,2.592,9.144c0.648,1.512,1.296,3.024,1.944,4.536c1.08,1.872,2.232,3.816,3.384,5.76
		c0.936,4.104,0.936,4.104,1.8719,6.48c1.0081,1.44,1.0081,1.44,4.824,9.144c0.072,0.504,0.144,1.08,0.216,1.656
		c-0.072,0.072-0.216,0.144-0.36,0.216c-0.648-0.576-1.296-1.224-2.016-1.872c-2.088-3.024-4.176-6.048-6.264-9.144
		c-0.936-1.944-1.8721-3.96-2.88-5.976c-1.872-5.112-3.816-10.224-5.76-15.408c-1.224-4.8961-2.52-9.864-3.816-14.832
		c-0.4319,0-0.864-0.072-1.296-0.144c0,0.576-0.072,1.152-0.144,1.8c1.224,5.112,2.52,10.224,3.816,15.336
		c2.088,5.328,4.176,10.728,6.264,16.128c3.816,6.696,3.816,6.696,8.64,13.896c2.16,2.16,3.096,3.6,5.04,5.544
		c0.792,0,1.656,0,2.52,0.072c1.8,3.024,1.8,3.024,5.904,8.568c3.816,4.536,5.76,6.48,6.192,7.416c0,0.144,0,0.36-0.072,0.576
		c-0.504,0.072-1.08,0.144-1.656,0.216c-0.432,0.36-0.936,0.792-1.44,1.224c-2.448-0.216-2.448-0.216-3.888-0.72
		c-0.792-0.648-1.584-1.296-2.376-1.944c-0.288-0.432-0.576-0.936-0.936-1.44c-0.576-0.144-1.152-0.288-1.728-0.432
		c-4.32-3.888-6.192-6.048-6.912-6.4799c-1.0079-1.44-1.728-1.944-3.6-4.608c-0.288-0.288-0.648-0.576-1.008-0.936
		c-1.224-2.088-2.448-4.176-3.744-6.336c-7.632-16.344-7.632-16.344-7.92-16.56c-3.0959-7.56-6.192-15.192-9.36-22.824
		c-0.576-2.664-1.224-5.4-1.872-8.136c-0.36-0.36-0.72-0.792-1.08-1.224c-0.216,0.144-0.432,0.288-0.648,0.504
		c0,0.432,0,0.936,0,1.44c0.648,2.448,1.296,4.8961,1.944,7.416c2.88,7.344,5.76,14.688,8.64,22.104
		c3.168,6.696,6.336,13.392,9.576,20.16c3.888,5.7599,3.888,5.7599,8.424,11.52c-0.072,0.144-0.216,0.288-0.36,0.504
		c-1.584-0.936-3.168-1.872-4.752-2.808c-4.824-3.816-4.824-3.816-6.984-5.976c-1.944-1.008-1.944-1.008-4.104-2.88
		c-1.8-1.296-3.6-2.592-5.472-3.888c-1.44-1.44-2.88-2.88-4.32-4.32c-1.368-1.656-2.7361-3.312-4.104-5.04
		c-7.704-11.016-7.704-11.016-13.464-18.576c-3.816-6.48-4.68-8.64-5.472-9.72c-2.448,0-2.664,0.216-8.208,0.504
		c-0.432,0.216-0.432,0.216-6.48,0.432c-0.7921-0.072-1.584-0.144-2.376-0.288c0-0.288,0-0.648,0.072-1.008
		c0.936-1.152,1.872-2.376,2.88-3.6c1.296-2.448,2.592-4.896,3.888-7.416c1.44-3.816,1.44-3.816,3.312-10.08
		c0.576-2.952,1.224-5.976,1.872-9c0.36-0.144,0.72-0.288,1.152-0.504c4.104-5.256,4.104-5.256,4.824-5.76
		c0.36-0.072,0.792-0.216,1.224-0.36c-0.144,2.16-0.648,4.32-0.648,6.768c0.144,0.36,0.36,0.72,0.576,1.152
		c1.008,0.504,1.008,0.504,1.944,0.576c2.016-2.016,2.016-2.016,3.024-3.672c1.8-1.656,3.6-3.312,5.4-4.968
		c0.36-0.072,0.792-0.144,1.224-0.288c-0.216,0.936-0.432,1.872-0.648,2.88c0,1.008,0,2.016,0,3.096
		c0.504,1.008,1.008,2.016,1.584,3.0959c0.72,0.504,0.72,0.504,1.944,0.576c0.216-0.216,0.216-0.216,3.096-0.432
		c2.952-2.016,5.904-4.032,8.856-6.048c0.576-0.144,1.152-0.288,1.728-0.432c0.288-0.576,0.288-0.576,0.288-1.584
		c-0.504-0.144-1.008-0.36-1.512-0.576c-1.152,0.576-2.376,1.224-3.6,1.872c-5.04,3.888-5.04,3.888-5.976,4.32
		c-1.08,0.072-2.232,0.144-3.384,0.288c-0.504-0.864-0.504-0.864-0.864-3.456c0.072-0.288,0.216-0.648,0.36-1.008
		c0.36-0.288,0.72-0.576,1.08-0.936c-0.072-1.008-0.144-2.016-0.216-3.096c-0.504-0.72-1.296-1.152-1.8-1.944
		c-0.36,0-0.792-0.072-1.224-0.144c-7.632,7.2-7.632,7.2-8.64,8.424c-0.216,0-0.432,0.0721-0.72,0.144
		c0.072-0.864,0.216-1.728,0.36-2.664c0.936-2.376,1.944-4.104,2.16-5.04c-0.216-0.36-0.504-0.72-0.792-1.08
		c-4.824,1.656-4.824,1.656-6.48,2.592c-0.936,1.08-1.872,2.232-2.88,3.384c-0.36,0.072-0.792,0.216-1.224,0.36
		c-0.36-10.512-0.36-10.512-0.864-14.112c-0.5041-2.016-1.08-4.032-1.656-6.048c-1.008-1.152-1.008-1.152-1.944-2.88
		c-1.584-1.08-3.168-2.16-4.824-3.312c-0.432-1.224-0.432-1.224-1.08-1.728c-0.288,0-0.576-0.072-0.9359-0.144
		c-0.432,0.504-0.432,0.504-0.576,1.872c0.936,1.656,0.936,1.656,2.0161,2.592c0.6479,0.288,1.296,0.576,1.944,0.864
		c1.08,0.864,2.16,1.8,3.24,2.736c1.872,5.76,1.872,5.76,2.16,7.488c0,1.44,0,2.88,0,4.32c-0.36,0.216-0.36,0.216-1.8-0.432
		c-1.368,0-2.736,0-4.104,0c-0.288,0.144-0.576,0.288-0.936,0.504c-1.368,2.088-2.7361,4.176-4.104,6.264
		c-1.296,3.744-1.296,3.744-1.656,4.032c-0.432-0.072-0.936-0.144-1.44-0.216c-0.432-0.36-0.936-0.72-1.44-1.08
		c-1.224-1.656-2.448-3.312-3.744-5.04c-0.432-2.88-0.936-5.7599-1.44-8.64c-0.936-2.88-0.936-2.88-1.656-6.696
		c-0.216-0.288-0.432-0.576-0.648-0.936c-0.288,0-0.576-0.072-0.936-0.144c-0.432,0.4319-0.432,0.4319-0.576,1.8
		c0.576,2.16,1.224,4.32,1.872,6.4801c0.72,4.3199,0.72,4.3199,0.648,6.552c-2.16,0.504-2.16,0.504-3.096,1.08
		c-0.288,0.36-0.648,0.792-1.008,1.224c-0.576,1.368-1.152,2.736-1.8,4.104c-0.36,0-0.72,0-1.08,0.072
		c-1.296-2.016-2.664-4.104-4.032-6.192c-0.648,0-1.296,0-1.944,0c-2.16,2.16-4.824,4.032-5.256,4.752
		c-0.288,0.216-0.648,0.432-1.008,0.72c-0.432,0-0.936,0-1.44-0.072c-0.864-1.944-1.8-3.96-2.736-5.976
		c-0.288-0.36-0.648-0.792-1.008-1.224c-0.936-3.384-1.44-4.3199-2.376-8.424c-0.36-0.504-0.72-1.008-1.08-1.584
		c-1.512-0.144-3.024-0.288-4.536-0.432c-1.8,0.216-3.672,0.432-5.544,0.72c-2.88,0.936-2.88,0.936-9.792,3.816
		c-0.576,0.504-1.152,1.08-1.728,1.656c-10.08-1.872-10.08-1.872-10.512-2.16c-2.016-0.144-4.032-0.288-6.048-0.432
		c-0.288-0.288-0.576-0.648-0.936-1.008c-3.312-1.656-6.624-3.384-10.008-5.112c0-0.288,0-0.576-0.072-0.936
		c3.168,0.072,6.336,0.144,9.576,0.288c0.648-0.144,1.296-0.288,1.944-0.4319c0.216-0.2161,0.432-0.432,0.72-0.7201
		c1.152,0,2.376,0,3.6,0c2.664,0.936,2.664,0.936,3.096,1.4401c0.6479-0.216,1.296-0.432,1.944-0.72
		c0.36-0.2881,0.792-0.6481,1.224-1.0081c0.792-0.288,1.584-0.576,2.376-0.936c4.536-0.504,4.536-0.504,5.544-0.936
		c0.144-0.216,0.288-0.4319,0.432-0.648c3.888,0.36,4.104,0.648,5.544,0.648c1.44-0.504,1.44-0.504,10.296-1.944
		c0.288,0.432,0.648,0.936,1.008,1.44c1.08-0.072,2.16-0.144,3.312-0.216c0.792-0.432,1.584-0.936,2.448-1.44
		c0.936-0.144,1.872-0.288,2.88-0.5041c0.144-0.1439,0.288-0.2879,0.432-0.5039c2.16-0.4321,2.16-0.4321,3.168-0.936
		c0.432-0.504,0.432-0.504,2.8799-1.224c1.0081,0.072,2.0161,0.144,3.096,0.288c0.504-0.1439,1.08-0.288,1.656-0.5039
		c1.584-0.072,3.168-0.144,4.824-0.216c0.288,0.2879,0.576,0.576,0.936,0.936c0.6479,0,1.296,0,1.944,0
		c0.216,0.144,0.432,0.288,0.72,0.504c0.864-0.072,1.728-0.144,2.664-0.2881c0.504-0.36,1.08-0.72,1.656-1.1519
		c0.432,0,0.936,0,1.44,0c0.144,0.144,0.288,0.2879,0.504,0.4319c2.664-0.2159,5.4-0.4319,8.136-0.72
		c0.936-0.432,0.936-0.432,1.656-0.432c0.4319,0.792,0.936,1.656,1.44,2.52c1.008,0,2.088,0,3.168,0.072
		c0.576,0.432,1.224,0.936,1.872,1.44c0.864,0,1.728,0,2.664,0c0.432,0.288,0.936,0.648,1.44,1.008c0.72,1.8,1.44,3.6,2.232,5.4
		c1.008,1.224,1.008,1.224,1.584,1.512c0.648-0.072,1.296-0.144,1.944-0.2159c0.432-1.2241,0.864-2.4481,1.296-3.672
		c0.288-0.36,0.576-0.72,0.864-1.152c0.288,0,0.576,0,0.936,0c0.36,0.36,0.72,0.72,1.08,1.152c0.144,0.792,0.36,1.584,0.576,2.376
		c0.36,0.216,0.792,0.432,1.224,0.72c0.576-0.504,0.576-0.504,1.584-2.664c0.36-0.072,0.72-0.216,1.08-0.36
		c0.288,0.648,0.576,1.368,0.936,2.088c0.432,0.144,0.936,0.36,1.44,0.576c0.504-0.648,0.504-0.648,0.72-1.8
		c0.288,0,0.648,0,1.008,0.072c0.432,0.648,0.936,1.296,1.44,1.9439c0.936-0.0719,1.872-0.144,2.88-0.2159
		c1.44-1.08,1.44-1.08,1.872-1.8c0.864,0,1.728-0.072,2.664-0.144c1.44,0.216,2.88,0.4319,4.32,0.648
		c0.36,3.096,0.36,3.096,0.792,4.32c0.36,0.216,0.864-0.144,1.8719-0.144c0.2161,0.216,0.2161,0.216,3.096,0.144
		c0.072,0.72,0.072,0.72,0.72,1.44c0.432,0,0.936,0,1.44,0.072c0.432-0.432,0.936-0.936,1.44-1.44c0.432,0,0.936,0,1.44,0
		c0.4319,0.648,0.936,1.296,1.44,1.944c0.72,0.072,1.44,0.216,2.16,0.36c0.144,0.792,0.36,1.584,0.576,2.376c0,1.4399,0,2.88,0,4.32
		c1.4399,2.16,1.4399,2.16,2.088,2.52c1.656-0.0721,3.312-0.144,5.04-0.216c0.4321-0.144,0.936-0.288,1.44-0.504
		c0.7921-0.648,1.584-1.2961,2.376-1.944c0.216,0,0.432,0,0.72-0.072c0.072,4.536,0.072,4.536,0.36,4.824
		c0.072,0.72,0.144,1.44,0.216,2.16c0.504,0.72,0.504,0.72,1.08,1.008c1.4401-0.216,1.4401-0.216,8.928-2.592
		c0.432-0.504,0.432-0.504,1.872-0.864c0.072,1.008,0.216,2.088,0.36,3.168c1.08,1.008,1.08,1.008,2.52,1.656
		c0.144,2.16-0.36,6.984-0.2161,7.92c0.288,0.216,0.576,0.432,0.936,0.72c0.504-0.36,0.504-0.36,2.448-0.864
		c0.936-0.936,2.16-1.44,2.592-1.944c1.008-0.432,1.008-0.432,2.016-0.288c-0.216,2.88-0.216,2.88,0,5.76
		c0.432,0.2881,0.864,0.576,1.368,0.936c0.936,0.072,0.936,0.072,1.944-0.36c0.432-0.504,0.432-0.504,2.16-1.44
		c0.504-0.144,1.08-0.288,1.656-0.504c1.512-0.0721,3.024-0.144,4.5359-0.216c0.2161,0.072,0.4321,0.216,0.72,0.36
		c0,0.36,0.072,0.7921,0.144,1.224c-0.4319,1.656-0.936,3.312-1.44,5.04c0.432,2.592,0.216,3.096,0.36,5.328
		c0.6481,0.072,1.296,0.144,1.944,0.288c1.656-0.648,3.312-1.296,5.04-1.944c1.44,0.216,1.44,0.216,1.6559,0.576
		c-0.288,0.504-0.576,1.008-0.864,1.512c0,1.44,0,1.44,0.504,3.096c0.216,0.144,0.432,0.288,0.72,0.504c0.864,0,1.8,0,2.736,0.072
		c0.288,0.144,0.648,0.36,1.008,0.576c0.936,1.584,1.656,2.088,2.0161,2.952c-0.72,1.08-1.44,2.16-2.16,3.312
		c0,0.36,0.072,0.72,0.144,1.08c1.44-0.216,1.44-0.216,2.592-0.72c0.7919,0,1.584,0.072,2.376,0.144
		c1.008,2.16,1.008,2.16,1.08,3.096c-0.432,0.72-0.432,0.72-0.432,1.944c0.072,0.072,0.216,0.216,0.36,0.36c0.792,0,1.584,0,2.376,0
		c0.288,0.144,0.648,0.288,1.0081,0.432c0.576,0,1.224,0,1.8719-0.072c-0.072,1.224-0.2159,2.52-0.36,3.8159
		c-0.216,0.288-0.432,0.648-0.72,1.008c0,0.36,0.072,0.72,0.144,1.152c0.72,0.36,0.72,0.36,5.976,1.224
		c-0.36,1.224-0.36,1.224-0.864,1.944c0.288,0.72,0.288,0.72,0.864,1.152c1.224-0.36,1.224-0.36,2.736-0.216
		c-0.216,0.792-0.4319,1.584-0.72,2.376c-0.288,0.288-0.576,0.648-0.936,1.008c0.072,0.216,0.144,0.432,0.2161,0.72
		c0.36,0.216,0.72,0.432,1.152,0.648c0.072,0.36,0.144,0.792,0.288,1.224c0.7921,0.36,1.584,0.792,2.448,1.224
		c0,0.216,0,0.432,0,0.72c-0.4319,0.432-0.936,0.936-1.4399,1.44c0,0.504,0.072,1.008,0.144,1.512
		c0.504,0.144,1.08,0.288,1.656,0.504c0.504,0.864,0.504,0.864,1.224,1.44c1.4399,0.504,1.4399,0.504,1.872,0.936
		c0,0.432,0.072,0.864,0.144,1.368c-0.288,1.152-0.648,2.376-1.008,3.6c-0.72,0.72-0.72,0.72-0.72,1.224
		c0.504,0.432,0.504,0.432,1.584,0.792c0.288,0.576,0.576,1.152,0.864,1.8c0,0.36,0,0.792,0,1.224
		c-0.432,0.504-0.936,1.08-1.44,1.656c0,0.288,0,0.6479,0,1.008c0.576,0.216,1.152,0.504,1.8,0.792c0,0.576,0,1.152,0.072,1.8
		c-0.216,0.288-0.432,0.648-0.72,1.008c0,0.504,0,1.08,0,1.656c1.008,1.224,1.008,1.224,1.728,2.664c0,0.432,0,0.936,0,1.44
		c-1.008,1.872-1.008,1.872-1.224,3.096c0.936,3.096,0.936,3.096,1.656,7.2c-0.792,1.152-1.584,2.376-2.376,3.5999
		c-0.216,3.6-0.216,3.6,0,8.136c-0.144,0.576-0.288,1.152-0.504,1.728c-0.936,1.152-0.936,1.152-1.656,3.096
		c-0.072,0.648-0.144,1.296-0.216,1.944c-0.864,1.08-1.728,2.16-2.664,3.312c-0.072,0.936-0.144,1.872-0.2159,2.88
		c-1.944,2.448-1.944,2.448-2.8801,4.104c-0.2159,0.792-0.4319,1.584-0.72,2.376c0,1.728,0,1.728-0.504,3.168
		c0.072,0.936,0.144,1.872,0.216,2.88c-1.224,2.52-2.52,5.0399-3.816,7.632c-0.072,0.576-0.144,1.152-0.216,1.728
		c-1.656,2.592-3.312,5.256-5.04,7.92c-1.224,0.936-1.224,0.936-2.16,2.376c-0.288,0.792-0.6479,1.584-1.008,2.376
		c-0.72,0.864-1.44,1.728-2.16,2.664c-0.288,0.072-0.6479,0.216-1.0079,0.36c-1.44,2.16-2.88,4.392-4.392,6.624
		C328.32,300.456,327.96,300.528,327.528,300.6L327.528,300.6z M187.344,262.512c-13.176-3.816-13.176-3.816-18.72-5.04
		c-0.432,0-0.936,0.072-1.44,0.144c-0.144,0.288-0.288,0.576-0.432,0.864c-1.584-1.008-3.168-2.0161-4.824-3.024
		c-0.0721-0.216-0.144-0.432-0.216-0.72c3.096-0.36,3.096-0.36,5.976-0.144c3.384,1.008,6.48,1.44,6.696,1.728
		c0.648,0.144,1.296,0.288,1.944,0.432c1.08,0.648,2.232,1.296,3.384,1.944c1.8,0.648,3.6,1.296,5.472,1.944
		c1.008,0.504,2.088,1.08,3.168,1.656C188.064,262.368,187.704,262.44,187.344,262.512L187.344,262.512z M334.512,256.032
		c-0.216-0.216-0.4321-0.5041-0.72-0.7921c0.144-0.288,0.288-0.576,0.432-0.864c0.432-0.288,0.936-0.576,1.44-0.936
		c3.888-5.04,3.888-5.04,5.328-6.48c0-0.36,0-0.72,0.072-1.08c-0.504-0.288-1.008-0.576-1.512-0.864
		c-0.792-0.144-1.584-0.288-2.448-0.504c-0.504-0.288-1.08-0.576-1.656-0.936c-0.936-1.296-0.936-1.296-1.8-3.24
		c-0.288-0.216-0.648-0.432-1.008-0.72c0-0.36,0-0.72,0-1.152c3.888-6.048,3.888-6.048,5.76-8.2079
		c0.36-0.936,0.792-1.872,1.224-2.88c0-1.08,0-2.16,0-3.312c-0.144-0.288-0.288-0.648-0.504-1.008
		c-6.768-1.296-6.768-1.296-7.776-1.8c-0.288-0.36-0.576-0.72-0.864-1.08c-0.072-0.792-0.144-1.584-0.216-2.376
		c0.288-0.936,0.576-1.872,0.936-2.88c2.088-2.592,4.176-5.256,6.264-7.92c0.072-0.36,0.216-0.792,0.36-1.224
		c-3.096-0.864-3.096-0.864-8.136-1.8c-0.36-0.288-0.792-0.576-1.224-0.936c-0.6479-1.224-1.296-2.448-2.016-3.744
		c0-0.792,0-1.584,0-2.376c0.288-0.864,0.576-1.728,0.936-2.664c0.288-0.36,0.576-0.72,0.936-1.152c0-0.216,0-0.432-0.072-0.648
		c-1.512-0.432-3.024-0.936-4.5359-1.44c-0.648-0.864-1.296-1.8-1.944-2.736c-0.432-1.08-0.864-2.232-1.368-3.384
		c-0.144-1.224-0.288-2.52-0.432-3.816c0.072-1.152,0.144-2.376,0.216-3.5999c0.504-1.224,0.504-1.224,0.864-3.6
		c-2.88-0.144-2.88-0.144-6.48,0.072c-1.728-0.288-3.456-0.576-5.256-0.936c-0.36-0.432-0.72-0.864-1.152-1.296
		c-0.072-1.008-0.144-2.016-0.216-3.096c0.936-2.664,0.936-2.664,1.08-3.888c-1.44,0.36-3.312,1.2961-5.472,1.8
		c-3.168-0.72-3.168-0.72-3.888-1.224c-0.288-0.576-0.576-1.152-0.864-1.7281c-0.216-5.04-0.216-5.04,0-10.08
		c-1.296-0.144-1.296-0.144-6.336,0.288c-0.72,0.432-1.44,0.936-2.16,1.44c-0.7921-0.072-1.584-0.144-2.376-0.216
		c-1.44-0.936-1.44-0.936-1.944-1.584c0-0.288-0.072-0.576-0.144-0.936c1.944-5.04,1.944-5.04,1.872-5.76
		c-0.288,0-0.648-0.072-1.0081-0.144c-5.472,1.944-5.472,1.944-9.792,3.888c-1.008,0-1.008,0-1.728-0.504
		c-0.432-0.936-0.864-1.944-1.296-2.952c-0.504-5.76-1.008-7.92-1.008-9.36c0.144-0.144,0.288-0.288,0.432-0.432
		c0.288,0,0.576,0.072,0.936,0.144c0.7921,3.888,0.7921,3.888,1.296,8.2079c0.288,0.72,0.576,1.44,0.936,2.16
		c0.288,0,0.576,0,0.864,0.0721c2.736-1.008,5.472-2.0161,8.208-3.096c0.576,0,1.224,0,1.872,0c0.288,0.216,0.648,0.504,1.008,0.792
		c-0.072,0.36-0.144,0.792-0.288,1.224c1.008,0.36,1.008,0.36,1.224,0.72c-1.368,3.384-1.368,3.384-1.584,5.04
		c0.144,0.144,0.36,0.288,0.576,0.504c0.576,0,1.152,0,1.728,0.072c0.72-0.432,1.44-0.936,2.16-1.44
		c1.872-0.144,3.816-0.288,5.76-0.432c0.792,0.144,1.584,0.288,2.376,0.432c0.072,0.216,0.216,0.432,0.36,0.648
		c-0.072,2.88-0.144,5.76-0.216,8.64c0.432,2.376,0.432,2.376,0.864,2.952c0.7921,0.072,1.584,0.144,2.376,0.288
		c2.16-0.504,2.16-0.504,3.816-1.44c0.936-0.144,1.872-0.288,2.88-0.504c0.504-0.504,0.504-0.504,1.008-0.504
		c0.288,0.432,0.288,0.432,0.288,1.872c-0.432,1.2241-0.936,2.52-1.44,3.816c-0.072,1.08-0.144,2.232-0.216,3.384
		c0.936,0.216,1.872,0.504,2.808,0.792c3.6,0,7.2,0,10.872-0.072c-0.072,0.792-0.144,1.584-0.216,2.376
		c-0.432,1.152-0.936,2.376-1.44,3.6c0,1.6559,0,3.312,0,5.0399c0.936,3.816,0.936,3.816,1.872,5.76
		c1.08,0.936,1.08,0.936,2.808,1.8c1.0081,0.072,2.0161,0.144,3.096,0.216c0.576,0.288,1.152,0.576,1.728,0.936
		c0.144,0.288,0.288,0.576,0.432,0.864c-0.936,1.296-2.16,2.304-3.096,3.6c-0.072,0.576-0.216,1.152-0.36,1.728
		c0.072,0.792,0.144,1.584,0.216,2.376c0.936,1.656,0.936,1.656,1.584,2.0161c5.976,1.44,8.856,1.8,10.08,2.376
		c0.36,0.432,0.36,0.432,0.36,1.368c-4.104,4.824-4.104,4.824-7.92,9.864c-0.144,0.432-0.288,0.936-0.504,1.44
		c0,0.792,0,1.584,0,2.376c0.36,0.36,0.36,0.36,8.064,1.8c0.4321,0.864,0.864,1.8,1.296,2.736c-0.072,1.152-0.144,2.376-0.216,3.6
		c-0.288,0.864-0.6479,1.728-1.008,2.664c-1.872,2.664-1.872,2.664-3.816,4.824c-0.36,0.864-0.792,1.728-1.2241,2.592
		c0.144,1.08,0.288,2.232,0.504,3.384c0.36,0.432,0.72,0.936,1.08,1.44c1.08,0.216,2.232,0.504,3.384,0.792
		c0.936,0.648,1.872,1.296,2.8801,1.944c0,0.288,0,0.576,0.072,0.864c-2.376,3.168-4.752,6.336-7.2,9.576
		C335.664,255.6,335.088,255.816,334.512,256.032L334.512,256.032z M159.552,254.376c-1.008-0.936-1.008-0.936-1.44-2.0161
		c0.576-0.072,1.224-0.144,1.872-0.216c0,0.72,0.072,1.44,0.144,2.16C159.768,254.52,159.768,254.52,159.552,254.376
		L159.552,254.376z M301.824,228.456c-1.0079-0.72-2.016-1.44-3.0959-2.16c-3.816-4.5359-3.816-4.5359-8.64-10.944
		c-1.224-2.088-2.4481-4.248-3.744-6.408c-1.944-4.32-3.816-7.704-5.76-12.024c-0.288-0.432-0.576-0.936-0.936-1.44
		c-0.144-1.008-0.36-2.0161-0.576-3.096c0.36,0.072,0.72,0.144,1.152,0.288c1.872,1.368,3.816,2.736,5.76,4.104
		c1.512,1.44,3.024,2.88,4.608,4.32c1.224,1.728,2.52,3.456,3.816,5.256c1.296,2.592,1.296,2.592,3.24,5.472
		c1.224,2.592,2.52,5.256,3.816,7.92c0.216,2.88,0.72,5.04,0.936,8.64C302.04,228.6,302.04,228.6,301.824,228.456L301.824,228.456z
		 M304.992,226.08c-0.432-0.864-0.432-0.864-0.72-4.68c0.216,0.072,0.4319,0.144,0.72,0.216c0.936,1.224,1.872,2.52,2.88,3.816
		C307.584,225.792,307.584,225.792,304.992,226.08L304.992,226.08z M264.384,208.08c-4.032-5.4-4.032-5.4-5.976-8.784
		c-5.04-10.512-10.152-21.096-15.264-31.68c-1.944-5.04-1.944-5.04-3.096-6.912c0-0.864,0.072-1.728,0.144-2.664
		c0.288,0,0.576-0.072,0.936-0.144c0.216,0.288,0.432,0.576,0.72,0.864c0.792,2.664,1.296,3.384,2.232,6.48
		c3.816,8.136,7.632,16.272,11.52,24.48c0.288,0.36,0.648,0.792,1.0079,1.224c0.432,1.44,1.4401,3.096,1.872,4.32
		c0.504,0.432,2.4481,4.536,4.824,7.92c0.432,0.0721,0.864,0.144,1.368,0.288c0.216,0.864,0.504,1.728,0.792,2.592
		c0,0.504,0,1.08,0,1.656C264.6,208.224,264.6,208.224,264.384,208.08L264.384,208.08z M208.224,169.2
		c-0.504-0.288-1.08-0.648-1.656-1.008c-0.288-0.576-0.576-1.152-0.864-1.728c-0.648-0.4319-1.296-0.864-2.016-1.368
		c-0.792-0.144-1.584-0.288-2.376-0.504c-0.288-0.576-0.576-1.152-0.864-1.728c-0.144-0.936-0.288-1.872-0.504-2.88
		c0.216-2.664,0.504-2.88,0.504-4.104c-0.144-0.288-0.288-0.576-0.504-0.936c0.72-2.664,1.656-4.824,2.16-6.768
		c0.504-0.936,0.504-0.936,1.944-6.48c0.144-1.728,0.36-3.456,0.576-5.256c0.216,0,0.432,0,0.72,0.072
		c2.16,1.944,2.16,1.944,4.32,3.384c2.16,0.504,2.16,0.504,3.384,0.504c0.072-0.072,0.216-0.216,0.36-0.36c0-0.792,0-1.584,0-2.376
		c0.288-1.08,0.576-2.232,0.936-3.384c0.936-1.584,1.872-3.168,2.88-4.824c0.504-0.288,1.008-0.576,1.584-0.864
		c0.648,0,1.296,0,1.944,0c1.152,0.504,1.152,0.504,2.232,1.584c0.504,2.664,0.504,2.664,0.72,8.424
		c-1.944,9.36-1.944,9.36-3.384,14.616c-0.936,1.728-1.872,4.608-3.816,8.64c-0.792,1.368-1.584,2.736-2.376,4.104
		c-0.72,0.648-1.44,1.2961-2.16,1.944c-0.72,0.432-1.512,0.864-2.304,1.296C209.232,169.2,208.728,169.2,208.224,169.2
		L208.224,169.2z M179.928,165.312c-7.704-0.432-7.704-0.432-12.024-0.936c-0.936-0.288-1.872-0.576-2.88-0.936
		c-1.656-1.296-3.312-2.592-5.04-3.888c-1.944-1.944-3.96-3.96-5.976-5.976c-1.44-0.216-2.376,0-9.144,0.216
		c-5.976,0.72-5.976,0.72-8.64,0.72c-1.872-0.288-3.816-0.576-5.76-0.936c-15.84-1.44-18.72-1.44-27.072-2.376
		c-0.648-0.144-1.296-0.288-1.944-0.504c-0.504-0.36-1.008-0.72-1.584-1.08c0.072-0.432,0.144-0.936,0.216-1.44
		c0.648-0.576,1.296-1.224,1.944-1.872c2.736-1.224,5.472-2.448,8.28-3.744c2.16-0.648,4.32-1.296,6.48-1.944
		c2.448-0.432,4.968-0.936,7.488-1.44c2.16,0,4.32,0,6.48,0c11.52,1.944,11.52,1.944,19.872,3.816
		c1.008,0.288,2.088,0.648,3.168,1.008c0.864,0.072,1.728,0.144,2.592,0.216c0.576-0.504,1.152-1.008,1.728-1.584
		c0-1.08,0-2.16,0.072-3.312c-0.288-0.504-0.576-1.08-0.936-1.656c-0.792-0.72-1.584-1.44-2.448-2.16
		c-3.096-1.872-6.264-3.744-9.432-5.688c-1.872-1.8-3.816-3.672-5.76-5.544c-0.072-0.288-0.144-0.648-0.216-1.008
		c11.016,2.232,12.24,2.736,14.4,2.952c0.792-1.512,0.792-1.512,1.872-2.5201c1.152-0.2159,2.376-0.432,3.6-0.72
		c-0.36,1.944-0.36,1.944-0.36,3.888c0.936,1.656,0.936,1.656,2.016,2.592c0.6479,0.288,1.296,0.576,1.944,0.864
		c1.656,0.144,3.312,0.288,5.04,0.432c3.384-0.216,3.384-0.216,6.264-0.72c0.936-0.432,0.936-0.432,1.656-0.432
		c1.008,2.088,2.016,4.176,3.024,6.336c0.144,0.72,0.288,1.44,0.432,2.16c0.216,0.144,0.432,0.288,0.648,0.504
		c0.432,0,0.936,0,1.44,0.072c2.664-1.872,3.6-2.88,6.2639-4.752c0.2881-0.288,0.576-0.648,0.936-1.008c0.36,0,0.792,0,1.224,0
		c1.872,3.528,1.872,3.528,4.032,6.48c0.648,0,1.296,0,1.944,0c0.6479-0.792,1.296-1.656,1.944-2.52
		c0.648-1.5121,1.296-3.024,2.016-4.536c0.648,0,1.296-0.072,2.016-0.144c0.072,0.144,0.216,0.288,0.36,0.432
		c0.072,1.872,0.144,3.816,0.216,5.76c-0.936,5.04-0.936,5.04-1.872,8.352c-3.384,8.208-3.888,8.64-4.824,10.8
		c-0.648,1.008-1.296,2.088-1.944,3.168c-0.72,0.432-0.72,0.432-2.16,2.592c-0.576,0.288-1.152,0.576-1.728,0.864
		c-1.512,0.36-3.024,0.72-4.608,1.152C183.456,165.312,181.728,165.312,179.928,165.312L179.928,165.312z M258.912,145.872
		c-0.72-0.432-1.512-0.864-2.304-1.2961c-0.288-0.72-0.288-0.72-0.288-3.0959c0.144-0.504,0.288-1.08,0.504-1.656
		c0.288-0.288,0.576-0.648,0.936-1.008c0.504,0,1.008-0.0721,1.584-0.144c0.144,0.144,0.36,0.288,0.576,0.432
		c-0.2159,1.152-0.2159,1.152-0.576,1.512c-0.36,0.072-0.72,0.216-1.08,0.36c-0.072,0.576-0.144,1.152-0.2159,1.728
		c0.576,0.72,0.576,0.72,1.296,1.008c0.36,0,0.792,0,1.224,0c1.224-0.936,1.224-0.936,4.824-2.88
		c0.576-0.576,1.224-1.224,1.8719-1.872c1.0081,0,1.0081,0,1.296,0.36c-0.072,0.504-0.144,1.08-0.216,1.656
		c-2.52,1.944-5.904,3.888-7.056,4.824C260.496,145.8,259.704,145.8,258.912,145.872L258.912,145.872z M154.008,141.336
		c-6.192-1.224-12.456-2.52-18.72-3.816c-7.704-0.72-7.704-0.72-9.36-1.224c-3.384-2.88-3.816-3.6-8.424-7.416
		c-1.872-1.296-3.816-2.592-5.76-3.888c-1.8-0.936-3.6-1.872-5.472-2.88c-1.296-0.432-2.592-0.936-3.888-1.44
		c-2.232-1.2239-4.464-2.52-6.696-3.816c-8.64-3.816-8.64-3.816-16.344-7.704c-6.84-2.736-13.68-5.544-20.592-8.352
		c0.072-0.072,0.144-0.1441,0.216-0.288c1.8,0.216,3.672,0.432,5.544,0.72c2.304,0.6479,4.608,1.2959,6.912,1.944
		c1.152,0,2.376,0,3.6,0c2.376,0.288,4.752,0.576,7.2,0.936c3.384,1.0081,8.208,1.944,11.304,2.88
		c0.216,0.288,2.376,0.288,6.984,1.2239c11.232,3.8161,16.056,5.7601,19.152,6.696c3.888,1.872,7.848,3.816,11.808,5.76
		c3.096,2.16,3.096,2.16,7.416,6.048c1.944,2.16,1.944,2.16,5.256,5.04c4.824,3.096,4.824,3.096,8.64,5.04
		c2.16,1.872,2.16,1.872,3.024,3.024c0,0.504-0.072,1.008-0.144,1.512C155.16,141.336,154.584,141.336,154.008,141.336
		L154.008,141.336z M276.192,80.136c-0.936-0.2881-1.872-0.576-2.88-0.936c0-0.4321-0.072-0.864-0.144-1.296
		c0.6481-0.7921,1.296-1.584,2.0161-2.448c2.448-1.8,2.448-1.8,5.76-3.744c0.936-0.072,1.872-0.144,2.8799-0.216
		c0.576,5.4,0.576,5.4,1.296,8.28C283.392,80.136,283.392,80.136,276.192,80.136L276.192,80.136z M269.712,77.472
		c-2.88-1.44-2.88-1.44-5.3281-2.2319c0-0.216-0.072-0.432-0.144-0.72c8.208-7.92,8.208-7.92,10.512-9.72
		c1.584-0.6481,3.168-1.296,4.752-1.944c1.656-0.36,3.312-0.72,5.04-1.08c0,1.656,0.072,3.312,0.144,5.04
		c-0.144,0.6479-0.288,1.296-0.504,1.944c-0.576,0.36-0.576,0.36-3.456,0.792c-2.0881,1.296-4.176,2.592-6.264,3.888
		c-2.16,2.0161-2.16,2.0161-3.6,4.032C270.504,77.472,270.144,77.472,269.712,77.472L269.712,77.472z M258.624,74.88
		c-2.592-0.504-2.592-0.504-3.6-1.008c0-0.216-0.072-0.504-0.144-0.7921c1.008-1.4399,5.328-5.7599,9.36-10.296
		c2.88-2.736,5.76-5.472,8.64-8.2079c1.656-1.224,3.312-2.52,5.04-3.816c8.3521-4.248,8.3521-4.248,9.504-4.464
		c0.288,0,0.648,0.072,1.008,0.144c-3.312,13.8961-3.312,13.8961-3.744,14.4c-0.4319-0.288-0.864-0.5759-1.296-0.864
		c-1.944,0.2161-1.944,0.2161-6.7679,1.6561c-3.312,1.944-3.312,1.944-5.976,3.888c-2.592,2.52-5.256,5.04-7.92,7.632
		c-0.288,0.504-0.5759,1.008-0.864,1.584C260.784,74.736,259.704,74.808,258.624,74.88L258.624,74.88z M241.344,72.72
		c-1.152-0.504-1.152-0.504-2.16-1.4399c-0.072-0.36-0.216-0.72-0.36-1.08c3.816-5.256,9.864-12.456,10.296-13.464
		c1.008-0.936,2.88-3.6,4.824-5.472c1.944-2.448,5.976-6.264,8.856-9.648c1.224-0.936,1.224-0.936,5.04-5.256
		c5.472-4.4641,11.0159-8.928,16.56-13.4641c3.168-1.8719,3.168-1.8719,5.688-3.816c1.8-0.9359,3.672-1.8719,5.544-2.808
		c5.472-1.8719,5.472-1.8719,9.576-2.88c0.936-0.072,1.8719-0.1439,2.88-0.2159c0.144,0.072,0.288,0.2159,0.504,0.3599
		c-1.944,3.3841-3.8881,5.9041-5.184,8.2081c-0.288,0.288-0.648,0.576-1.008,0.936c-2.88,4.464-5.7601,8.928-8.64,13.464
		c-0.216,0.0719-0.504,0.144-0.792,0.216c-0.072-0.36-0.216-0.792-0.36-1.224c-0.4319,0-0.864-0.072-1.296-0.144
		c-3.312,1.584-6.696,3.168-10.08,4.824c-7.704,5.976-12.24,10.08-14.904,12.0239c-20.376,18.432-20.376,18.432-21.384,18.936
		c-0.288,0.504-0.576,1.008-0.864,1.584C243.288,72.72,243.288,72.72,241.344,72.72L241.344,72.72z M251.712,72.432
		c-1.44-0.432-1.44-0.432-3.888-0.576c0-0.216-0.072-0.432-0.144-0.72c8.64-7.9201,8.64-7.9201,10.8-10.2961
		c4.6801-3.8159,9.432-7.632,14.184-11.52c2.088-1.8719,4.176-3.816,6.336-5.7599c2.088-1.224,4.176-2.4481,6.264-3.744
		c1.872-0.792,3.816-1.584,5.76-2.376c0.36,0,0.7921,0,1.224,0.072c-1.8,3.888-1.8,3.888-2.304,5.544
		c-1.512,0.576-3.096,1.152-4.6801,1.8c-2.4479,1.2239-4.8959,2.52-7.416,3.816c-1.728,1.296-3.4561,2.592-5.256,3.888
		c-2.9521,2.5919-5.9041,5.256-8.928,7.92c-4.032,4.752-4.032,4.752-11.016,11.952C252.36,72.432,252.072,72.432,251.712,72.432
		L251.712,72.432z M234.648,70.416c0-0.216,0-0.432,0.072-0.72c3.384-4.5361,5.328-6.696,9.144-12.24
		c3.888-4.7521,7.776-9.576,11.736-14.4c11.088-10.8,11.088-10.8,15.408-14.616c10.44-7.704,10.44-7.704,15.12-11.52
		c3.744-2.52,7.56-5.112,11.376-7.7041c3.384-1.7999,6.264-2.7359,11.52-5.6159c0.864-0.288,1.728-0.648,2.664-1.0081
		c0.792-0.072,1.584-0.1439,2.376-0.2159c0.072,0.288,0.216,0.576,0.36,0.864c-0.144,0.504-0.288,1.08-0.504,1.6559
		c-1.872,2.88-1.872,2.88-2.8799,5.04c-0.504,0.576-1.008,1.152-1.512,1.728c-0.504-0.4319-0.504-0.4319-1.44-0.648
		c-1.44,0.072-2.88,0.144-4.32,0.2161c-9.864,3.888-9.864,3.888-13.896,5.7599c-2.664,1.944-6.048,3.96-8.64,6.048
		c-1.008,1.152-1.008,1.152-13.248,10.7999c-6.48,6.48-8.352,8.8561-16.056,16.7761c-7.704,9.864-7.704,9.864-15.84,19.6559
		C235.656,70.272,235.152,70.344,234.648,70.416L234.648,70.416z"/>
</g>
</svg>
