<?xml version="1.0" encoding="utf-8"?>
<!-- Generator: Adobe Illustrator 21.1.0, SVG Export Plug-In . SVG Version: 6.00 Build 0)  -->
<svg version="1.1" id="Bone" xmlns="http://www.w3.org/2000/svg" xmlns:xlink="http://www.w3.org/1999/xlink" x="0px" y="0px"
	 viewBox="0 0 469.944 155.52" enable-background="new 0 0 469.944 155.52" xml:space="preserve">
<g>
	<path fill-rule="evenodd" clip-rule="evenodd" d="M239.904,155.52c-3.888-0.576-7.776-1.224-11.736-1.872
		c-1.152-0.288-2.376-0.648-3.6-1.008c-3.816-1.872-3.816-1.872-11.304-6.192c-16.56-14.184-16.56-14.184-18.432-16.128
		c-4.608-0.936-11.52-1.872-12.24-2.16c-7.488-0.936-7.488-0.936-12.24-1.872c-0.288-0.288-3.384-0.72-3.888-1.008
		c-4.032,0-4.032,0-7.92-0.432c-0.432-0.288-5.976-1.44-6.192-1.728c-2.88-0.864-5.76-1.728-8.64-2.592c-1.152,0-2.376,0-3.6,0
		c-0.432,0.576-0.432,0.576-1.368,3.744c-3.816,6.912-3.816,6.912-7.704,13.176c-0.576,0.792-1.224,1.584-1.872,2.376
		c-1.224,0.72-2.448,1.5121-3.744,2.304c-3.096,0.432-3.096,0.432-4.32,0.936c-2.016-0.072-4.104-0.144-6.192-0.216
		c-0.864-0.288-1.728-0.648-2.664-1.008c-1.872-2.232-3.744-4.464-5.688-6.768c-1.44-3.384-1.44-3.384-2.016-3.888
		c-1.584-0.576-3.168-1.152-4.752-1.8c-0.72-0.648-1.44-1.296-2.16-1.944c-0.648-0.936-1.296-1.944-1.944-2.9521
		c-1.512-4.968-3.096-9.9359-4.68-14.904c-1.44-3.312-1.44-3.312-1.944-3.816c-4.68-1.8-6.336-2.808-8.712-3.744
		c-2.88-1.944-6.768-3.816-8.208-4.824c-1.44-0.432-3.096-1.44-8.64-3.312c-3.096-0.504-3.096-0.504-8.136-1.944
		C49.824,90,49.824,90,42.408,86.688c-5.256,0-6.984-0.288-13.176,0c-0.648-0.144-1.296-0.288-1.944-0.504
		c-1.584-1.224-3.168-2.52-4.824-3.816c-2.736-5.184-2.736-5.184-4.032-6.984c-3.168-0.936-7.488-2.88-9.144-3.384
		c-1.872-1.224-3.816-2.5201-5.76-3.816c-0.936-1.368-1.872-2.736-2.808-4.176C0,60.624,0,60.624,0,58.248
		c0.216-1.656,0.432-3.312,0.72-5.04c1.008-2.664,1.008-2.664,1.944-4.32c0.648-0.648,1.296-1.296,2.016-1.944
		c1.008-0.576,2.088-1.224,3.168-1.872c4.824-1.872,9.72-3.744,14.616-5.688c19.008-4.32,19.008-4.32,20.16-4.824
		c1.8-0.288,3.672-0.576,5.544-0.936C63,32.256,77.904,30.888,92.808,29.52c9.36-0.432,10.584-0.72,18.216-1.152
		c1.008-0.288,1.008-0.288,11.304-1.008c2.952,0,5.904,0,8.856,0c5.112,0.432,10.224,0.936,15.408,1.44
		c28.08,3.888,28.08,3.888,42.696,5.544c2.16,0,4.32,0,6.48,0c0.504-0.504,2.232-3.96,5.112-8.496
		c1.008-0.936,1.44-1.944,5.76-6.264c4.608-3.816,4.608-3.816,9.864-7.632c4.68-2.52,9.36-5.04,14.04-7.632
		c4.824-1.872,4.824-1.872,8.424-2.88c3.384-0.432,6.84-0.936,10.296-1.44c0.504,0,1.08,0.072,1.656,0.144
		c0.072,0.216,0.144,0.432,0.288,0.72c0.216,0.072,0.504,0.144,0.792,0.288c-0.216,2.304-0.432,4.608-0.72,6.912
		c0,2.88,0,5.7599,0,8.64c1.008,5.76,1.008,5.76,2.88,12.744c3.888,8.64,3.888,8.64,4.824,10.08c2.232,1.872,4.5359,3.816,6.84,5.76
		c4.176,4.536,4.176,4.536,6.12,7.2c0.648,1.224,1.296,2.52,1.944,3.816c0.72,2.88,1.44,5.76,2.16,8.64
		c-0.288,0.504-0.288,0.504-0.288,1.224c2.592,1.224,5.184,2.448,7.848,3.672c3.528,1.296,7.056,2.592,10.584,3.888
		c2.52,0.576,5.04,1.224,7.632,1.872c3.8879,0.648,7.848,1.2961,11.808,1.944c2.88,0.0721,5.7599,0.144,8.64,0.216
		c10.944-0.288,21.8881-0.576,32.832-0.936c1.296-0.144,2.592-0.288,3.888-0.504c5.184-1.224,10.368-2.52,15.552-3.816
		c2.016-0.648,4.032-1.296,6.048-1.944c1.656-0.936,1.656-0.936,4.32-1.872c3.096-1.872,6.192-3.816,9.36-5.76
		c1.656-1.296,3.312-2.592,5.04-3.888c8.352-7.632,8.352-7.632,12.24-11.736c5.472-6.984,10.944-13.968,16.416-20.952
		c2.88-4.32,5.76-8.64,8.64-12.96c0.864-0.432,1.8-0.864,2.736-1.368c0.36,0.072,0.792,0.144,1.224,0.216
		c0.72,0.72,0.72,0.72,1.08,1.584c0.216,2.9521,0.4319,5.904,0.72,8.928c-0.288,0.72-0.288,0.72-2.16,17.496
		c-0.936,3.672-1.872,7.344-2.88,11.016c-0.648,1.8-1.296,3.672-1.944,5.544c-2.52,4.68-5.1119,9.432-7.704,14.184
		c-3.816,5.76-3.816,5.76-9.576,15.336c-0.072,0.432-0.144,0.936-0.216,1.44c0.288,0.36,0.576,0.7921,0.936,1.224
		c1.944,1.224,3.8879,2.448,5.904,3.672c4.4639,1.872,8.928,3.816,13.4639,5.76c4.608,3.168,9.216,6.336,13.8961,9.576
		c12.24,11.808,12.24,11.808,14.3999,14.328c1.0801,1.8,2.2321,3.6,3.3841,5.4c0,0.288,0,0.576,0.072,0.864
		c-0.936,1.296-1.8719,2.664-2.8799,4.032c-0.5761,0-1.152,0.072-1.8,0.144c-4.1041-0.6479-8.28-1.296-12.456-1.944
		c-13.68-3.816-17.064-4.5359-17.496-4.8239c-8.928-1.872-12.24-2.88-17.5681-3.816c-8.64-0.936-8.64-0.936-9.072-1.224
		c-4.752-0.936-9.576-1.872-14.4-2.88c-15.84,0-16.848,0.288-20.4479,0.288c-2.592,0.432-5.256,1.44-8.8561,2.376
		c-1.4399,0.648-2.8799,1.296-4.3199,1.944c-1.872,1.224-3.816,2.52-5.76,3.816c-5.76,6.2639-5.76,6.2639-7.92,8.136
		c-1.224,1.728-2.448,3.456-3.744,5.184c-0.504,1.728-0.504,1.728-0.72,4.32c-0.432,0.576-0.936,1.152-1.44,1.728
		c-1.296,0.288-1.296,0.288-3.24,0.072c-1.944-0.504-3.96-1.08-5.976-1.656c-1.152-0.648-2.376-1.296-3.6-1.944
		c-7.416-5.976-7.416-5.976-10.584-8.136c-1.872-0.72-2.592-1.44-6.48-3.384c-1.5839-0.144-3.168-0.288-4.752-0.504
		c-0.216-0.144-0.432-0.288-0.72-0.432c-9.144,0.72-9.144,0.72-19.944,2.16c-9.144,0.432-9.144,0.432-11.016,0.72
		c-5.616,0-11.2321,0-16.848,0c-4.32-0.504-4.32-0.504-14.112-0.72c-0.864,3.744-0.864,3.744-1.368,7.344
		c0.072,2.448,0.144,4.896,0.216,7.416c0.432,1.584,0.936,3.168,1.4399,4.824c0.072,0.864,0.144,1.728,0.288,2.592
		c-0.072,0.36-0.216,0.72-0.36,1.08C242.64,155.376,241.272,155.448,239.904,155.52L239.904,155.52z M227.664,149.544
		c-1.512-0.648-3.024-1.296-4.536-1.944c-2.16-1.224-4.32-2.52-6.48-3.816c-2.088-1.656-4.176-3.312-6.264-5.04
		c-0.936-1.224-0.936-1.224-7.344-6.84c0-0.216,0.072-0.432,0.144-0.72c1.152,0,2.376-0.072,3.6-0.144
		c1.008,1.08,2.088,2.2321,3.168,3.384c0.072,0.432,0.144,0.864,0.288,1.368c0.936,1.08,1.872,2.16,2.88,3.312
		c9.288,5.76,9.288,5.76,12.888,7.704c1.008,0.432,2.016,0.864,3.096,1.296c0.288,0.36,0.648,0.72,1.008,1.08
		c-0.072,0.072-0.144,0.216-0.288,0.36C229.104,149.544,228.384,149.544,227.664,149.544L227.664,149.544z M235.368,146.88
		c-0.36-0.144-0.792-0.288-1.224-0.432c-0.072-0.504-0.144-1.008-0.216-1.584c2.16,0.864,2.16,0.864,2.52,1.224
		c0,0.216-0.072,0.504-0.144,0.792C236.016,146.88,235.728,146.88,235.368,146.88L235.368,146.88z M229.104,143.064
		c-2.16-0.936-2.16-0.936-11.52-6.696c-1.44-1.44-2.88-2.88-4.32-4.32c-0.072-0.36-0.144-0.72-0.216-1.08
		c1.944,0.144,3.96,0.36,5.976,0.576c2.0161,2.5201,2.0161,2.5201,2.5201,3.744c0.648,0.648,1.296,1.296,1.944,1.944
		c6.84,4.32,6.84,4.32,7.776,5.256c0.144,0.504,0.144,0.504-0.216,0.72C230.4,143.208,229.752,143.136,229.104,143.064
		L229.104,143.064z M337.392,141.408c-0.3599-0.072-0.72-0.216-1.152-0.36c0-0.216,0.072-0.432,0.144-0.72
		c0.3599-0.288,0.72-0.576,1.08-0.936c0.36-1.944,0.36-1.944,0.648-2.232c-0.216-0.072-0.432-0.144-0.72-0.216
		c0-0.216-0.072-0.432-0.144-0.72c-0.72-0.432-0.72-0.432-5.904-5.76c-1.512-1.08-3.096-2.16-4.68-3.312
		c-0.072-0.288-0.144-0.648-0.216-1.008c0.504-0.144,1.008-0.36,1.584-0.576c0.504,0,1.08,0,1.6559,0.072
		c2.16,1.944,4.32,3.888,6.48,5.904c4.824,2.88,4.824,2.88,5.04,3.2401C337.608,141.552,337.608,141.552,337.392,141.408
		L337.392,141.408z M235.152,140.4c-0.36-0.36-0.792-0.72-1.224-1.08c-0.864-1.872-0.864-1.872-1.368-2.376
		c0-0.216,0.072-0.432,0.144-0.72c0.288,0,0.648-0.072,1.008-0.144c2.16,1.944,2.16,1.944,2.88,3.024
		c-0.144,0.36-0.2881,0.792-0.432,1.224C235.872,140.328,235.512,140.328,235.152,140.4L235.152,140.4z M334.224,140.4
		c-0.792-0.288-1.584-0.576-2.376-0.936c-5.5441-3.816-5.5441-3.816-10.296-7.704c-1.512-0.864-3.024-1.8-4.608-2.736
		c0-0.216,0-0.432,0-0.72c1.008-0.36,1.008-0.36,2.4479-0.216c0.144,0.216,0.288,0.504,0.4321,0.792
		c2.6639,1.008,2.6639,1.008,6.048,2.88c2.592,2.16,5.256,4.32,7.92,6.48c0.36,0.576,0.72,1.152,1.152,1.8
		C334.728,140.4,334.728,140.4,334.224,140.4L334.224,140.4z M116.784,138.96c-0.432-0.144-0.936-0.288-1.44-0.432
		c-1.08-1.296-2.16-2.592-3.312-3.96c-0.72-1.944-1.512-3.96-2.304-5.976c-2.304-0.864-2.304-0.864-6.336-1.872
		c-0.432-0.288-0.936-0.576-1.44-0.936c-0.576-1.08-1.224-2.16-1.872-3.2401c-3.816-12.456-3.816-12.456-5.976-18.216
		c0-1.008,0-2.016,0-3.096c0.648-1.584,1.296-3.168,1.944-4.824c0.576-0.864,1.224-1.728,1.872-2.664
		c1.224-0.936,1.224-0.936,1.728-1.656c0.072-0.288,0.144-0.576,0.216-0.936c-0.072-0.216-0.216-0.432-0.36-0.648
		c-0.72-0.072-1.44-0.144-2.16-0.216c-1.656,0.432-1.656,0.432-3.312,1.44c-0.648,0.648-1.296,1.296-1.944,2.016
		c-2.808,6.264-2.808,6.264-3.168,6.48c-1.656-0.576-3.312-1.152-4.968-1.8c-5.76-3.816-5.76-3.816-7.704-4.824
		c-4.104-1.224-8.28-2.52-12.456-3.8159c-1.656-0.144-3.312-0.288-5.04-0.504c-4.104-1.44-4.104-1.44-4.608-1.872
		c-0.864-0.144-1.728-0.288-2.592-0.504c-0.72-0.576-1.512-1.152-2.304-1.8c0-0.288-0.072-0.576-0.144-0.936
		c1.296-0.072,2.592-0.216,3.888-0.36c5.256-1.944,5.256-1.944,11.232-4.824c0.288-0.216,0.576-0.504,0.864-0.792
		c0.072-0.576,0.144-1.152,0.216-1.728c-0.504-0.936-0.504-0.936-1.296-1.44c-4.104,0.36-5.76,0.864-11.736,1.296
		c-0.288-0.216-5.76,0.288-17.064,0.288c-7.2-2.448-9.576-2.88-10.8-3.384c-0.864-0.144-1.728-0.288-2.664-0.504
		c-0.576-0.72-1.224-1.44-1.872-2.16c-2.736-0.936-5.472-1.872-8.208-2.88c-1.44-0.936-2.88-1.872-4.32-2.88
		c-0.576-0.792-1.224-1.656-1.872-2.52c-0.288-0.864-0.576-1.728-0.864-2.592c0.072-1.584,0.144-3.168,0.216-4.824
		c0.288-0.936,0.576-1.872,0.936-2.88c1.08-1.44,1.08-1.44,2.304-2.376c5.184-1.872,10.368-3.744,15.624-5.688
		c5.184-1.224,10.368-2.52,15.624-3.816c3.384-0.648,6.84-1.296,10.296-1.944c3.384-0.144,6.84-0.288,10.296-0.432
		c2.16-0.288,4.32-0.648,6.48-1.008c12.96,0,12.96,0,19.224-0.432c2.16-0.504,2.16-0.504,6.984-1.008
		c14.112-0.432,14.112-0.432,19.656-0.936c0.648-0.144,1.296-0.288,1.944-0.504c1.944,0,3.96,0,5.976,0
		c2.376-0.432,2.376-0.432,6.984-0.432c0.504,0.144,1.08,0.288,1.656,0.432c2.808,0,5.616,0,8.424,0
		c0.72,0.144,1.44,0.288,2.16,0.504c3.456,0.144,6.984,0.288,10.512,0.504c10.368,1.656,13.248,1.872,14.904,2.376
		c14.184,1.944,14.184,1.944,23.544,2.88c0.216,0.36,0.216,0.36,1.152,0.72c0.864,0.0721,1.728,0.144,2.664,0.216
		c0.288,0.144,0.576,0.288,0.936,0.504c1.08,0,2.232,0,3.384,0c0.432,0.2881,0.936,0.576,1.44,0.936
		c5.76,1.584,11.52,3.168,17.28,4.824c4.824,1.944,6.48,2.376,7.2,2.88c1.224,0.216,9.576,4.104,12.744,5.256
		c4.032,1.944,5.76,2.52,6.48,3.168c1.224,0.288,2.52,0.576,3.816,0.936c1.368,0.648,2.736,1.2961,4.104,1.944
		c6.696,1.872,6.696,1.872,16.272,5.256c5.3279,2.52,10.728,5.112,16.128,7.704c4.032,1.44,6.48,1.872,8.64,2.88
		c2.376,0.72,2.88,1.152,10.512,3.096c4.32,0.72,8.64,1.44,12.96,2.16c14.976-0.36,29.952-0.792,44.928-1.224
		c3.312-0.936,6.696-1.872,10.08-2.88c3.096-0.576,6.192-1.224,9.36-1.872c3.24-1.44,6.48-2.88,9.792-4.32
		c2.448-1.584,4.968-3.168,7.488-4.824c0.144-0.216,0.288-0.432,0.432-0.72c1.296-0.792,2.592-1.584,3.888-2.376
		c1.584-1.296,3.168-2.592,4.752-3.888c2.736-2.592,5.472-5.256,8.208-7.92c6.336-7.992,12.744-15.984,19.152-23.976
		c1.584-2.304,3.168-4.608,4.824-6.984c0.288-0.072,0.576-0.144,0.936-0.288c0.36,1.872,0.36,1.872,0.144,4.032
		c-0.288,0.504-0.288,0.504-0.288,3.384c-0.288,1.08-0.576,2.232-0.936,3.384c-0.936,9.792-1.44,11.52-1.44,12.96
		c-0.936,3.312-2.88,7.92-4.32,12.672c-1.872,3.528-3.816,7.056-5.76,10.584c-8.1359,13.464-8.1359,13.464-10.08,16.056
		c-0.36,0.288-0.792,0.648-1.224,1.008c-0.216,0.504-0.432,1.08-0.72,1.656c0,1.224,0.072,2.52,0.144,3.816
		c0.432,0.144,0.936,0.36,1.44,0.576c1.008,1.008,1.008,1.008,6.9839,4.8239c4.536,1.944,6.264,2.376,8.64,3.6
		c2.88,0.936,2.88,0.936,5.976,2.376c2.88,1.944,2.88,1.944,4.824,3.888c1.008,0.504,2.0159,1.08,3.0959,1.656
		c0.144,0.216,0.288,0.432,0.504,0.72c0.648,0.288,1.296,0.576,1.944,0.936c0.936,1.08,3.816,3.168,5.976,5.3279
		c0.792,0.576,1.584,1.224,2.376,1.872c0.2879,0.432,0.576,0.864,0.864,1.368c1.656,1.44,3.312,2.88,5.04,4.32
		c0.936,1.944,0.936,1.944,2.376,3.816c0,0.144,0,0.36-0.072,0.576c-3.816-0.36-7.632-0.72-11.52-1.152
		c-4.536-1.296-9.0721-2.592-13.6801-3.888c-5.4-1.224-10.8719-2.52-16.344-3.816c-5.112-0.792-10.224-1.584-15.3359-2.376
		c-3.024-0.792-6.048-1.584-9.144-2.448c-5.832-0.216-11.664-0.432-17.496-0.72c-2.16,0.288-2.16,0.288-5.04,0.288
		c-1.584-0.576-3.168-1.152-4.824-1.728c-2.16,0-5.04,0.504-10.296,0.504c-1.728,0.288-3.528,0.576-5.3279,0.936
		c-6.192,1.944-6.192,1.944-11.0161,3.888c-10.8,2.88-10.8,2.88-19.944,5.76c-14.832,3.312-14.832,3.312-16.272,3.816
		c-1.44-0.216-1.44-0.216-10.368,0.504c-3.456,0.432-6.984,0.936-10.512,1.44c-5.3279,0.288-10.728,0.576-16.128,0.936
		c-17.28-0.216-29.016-0.72-36-0.72c-1.872-0.144-3.816-0.288-5.76-0.504c-9.072,0-9.072,0-15.12-0.432
		c-4.032,0.072-8.136,0.144-12.24,0.216c-1.8719-0.36-3.816-0.792-5.76-1.224c-0.432,0.072-0.936,0.144-1.44,0.288
		c-8.64-1.44-17.28-2.88-25.92-4.32c-2.016-0.144-4.104-0.288-6.192-0.504c-1.512-0.288-3.024-0.576-4.608-0.936
		c-5.976-1.944-6.912-2.448-12.24-3.888c-1.656-0.072-3.312-0.144-5.04-0.288c-0.288-1.872-0.576-3.816-0.864-5.76
		c-1.224-4.68-2.52-9.432-3.816-14.184c-0.288-0.504-0.576-1.08-0.936-1.656c-0.72,0-1.512-0.072-2.304-0.144
		c-0.504,0.432-1.08,0.864-1.656,1.296c0.36,0.504,0.36,0.504,1.08,3.6c0.072,0.792,0.144,1.584,0.216,2.448
		c1.224,2.376,1.224,2.376,2.664,6.912c0.432,3.168,0.72,3.384,0.936,6.984c-0.144,2.16-0.288,4.32-0.504,6.48
		c-0.576,1.44-1.224,2.88-1.872,4.32c-1.872,3.096-3.816,6.192-5.76,9.36c-2.664,1.944-2.664,1.944-4.176,2.736
		C121.824,138.96,121.824,138.96,116.784,138.96L116.784,138.96z M121.608,135.144c-0.288-0.432-0.576-0.864-0.936-1.296
		c-0.864-2.664-1.152-2.88-4.968-16.776c-1.08-3.24-2.232-6.552-3.384-9.864c0-0.792,0-1.584,0-2.376
		c0.36-0.288,0.72-0.576,1.152-0.864c0.576,0,1.224,0,1.872,0c0.144,0.144,0.288,0.288,0.504,0.432
		c0.864,2.736,1.8,5.544,2.736,8.352c0.288,1.44,0.576,2.88,0.936,4.32c1.008,2.16,1.008,2.16,4.824,14.616
		c0.072,0.936,0.144,1.872,0.216,2.88C124.2,134.784,123.264,134.64,121.608,135.144L121.608,135.144z M229.608,135.144
		c-1.296-0.864-2.592-1.8-3.96-2.736c0-0.288-0.072-0.576-0.144-0.936c3.168,0.072,3.168,0.072,4.608,0.432
		c0.288,1.44,0.288,1.44,0.072,3.168C229.824,135.288,229.824,135.288,229.608,135.144L229.608,135.144z M113.688,130.824
		c-1.08-0.792-1.08-0.792-1.368-1.512c-0.216-2.448-0.72-3.6-1.152-5.76c-0.288-0.288-0.288-0.288-4.104-11.808
		c-0.072-0.864-0.144-1.728-0.216-2.592c0.432-1.008,0.432-1.008,1.08-1.368c0.432,0,0.936,0,1.44,0
		c0.432,0.504,0.864,1.008,1.296,1.584c0.288,1.368,0.576,2.736,0.936,4.104c0.288,0.576,0.648,1.224,1.008,1.872
		c0.144,0.792,0.288,1.584,0.432,2.448c0.648,1.512,1.296,3.024,1.944,4.536c0.936,4.32,1.44,5.256,1.656,6.696
		c-0.144,0.36-0.288,0.792-0.432,1.224C115.416,130.392,114.552,130.608,113.688,130.824L113.688,130.824z M343.584,130.824
		c-1.296-0.648-2.6639-1.296-4.032-1.944c-1.584-1.44-3.168-2.88-4.752-4.392c0-0.288,0.072-0.576,0.144-0.864
		c0.72-0.216,1.44-0.432,2.16-0.72c0.36,0,0.792,0.072,1.224,0.144c0.936,1.08,0.936,1.08,6.264,4.896
		c1.0081,0.072,2.0161,0.216,3.096,0.36c-0.936,0.792-1.8719,1.656-2.88,2.52C344.448,130.824,344.016,130.824,343.584,130.824
		L343.584,130.824z M125.928,128.52c-2.16-7.848-4.392-15.768-6.624-23.688c-0.072-1.152-0.144-2.376-0.216-3.6
		c0.432-1.008,0.432-1.008,1.08-1.44c0.504,0,1.08-0.072,1.656-0.144c0.216,0.144,0.432,0.36,0.72,0.576
		c1.8,6.264,3.24,12.744,3.744,13.464c1.872,8.424,1.872,8.424,2.88,11.304c0.072,0.864,0.144,1.728,0.216,2.592
		c-0.072,0.144-0.216,0.36-0.36,0.576c-0.504,0.144-1.08,0.288-1.656,0.504C126.936,128.664,126.432,128.592,125.928,128.52
		L125.928,128.52z M348.192,127.008c-0.144-0.576-0.288-1.152-0.432-1.8c-1.152-0.9359-2.376-1.8719-3.6-2.88
		c0-0.36,0.072-0.792,0.1439-1.224c0.72-0.36,0.72-0.36,1.7281-0.216c0.288,0.432,0.576,0.864,0.9359,1.296
		c0.72,0.36,1.4401,0.792,2.16,1.224c1.944-0.288,1.944-0.288,2.376-0.72c0.144,0.072,0.288,0.144,0.504,0.216
		c-1.584,2.304-1.584,2.304-3.6,4.248C348.336,127.152,348.264,127.08,348.192,127.008L348.192,127.008z M352.512,122.688
		c-0.504-0.504-0.864-2.304-1.584-3.24c0-0.288,0.072-0.576,0.144-0.864c3.6-0.936,3.6-0.936,5.7599-1.224
		c0.072,0.072,0.144,0.216,0.2161,0.36C353.232,122.184,353.232,122.184,352.512,122.688L352.512,122.688z M130.248,121.464
		c-0.216-0.144-0.432-0.36-0.72-0.576c-2.808-9.576-2.808-9.576-3.744-13.68c0-0.9359,0-1.8719,0-2.88
		c0.144-0.288,0.288-0.576,0.504-0.936c0.864-0.432,0.864-0.432,2.304-0.648c0.216,0.288,0.504,0.576,0.792,0.864
		c1.368,4.968,2.736,9.936,4.104,14.904c0,0.432,0,0.936,0,1.44c-0.144,0.288-0.288,0.576-0.504,0.936
		C132.12,121.032,131.184,121.248,130.248,121.464L130.248,121.464z M101.664,120.24c-1.8-7.488-1.8-7.488-2.52-12.096
		c0.144-0.216,0.288-0.432,0.504-0.72c0.432,0,0.864-0.072,1.296-0.144c0.504,0.36,1.008,0.72,1.584,1.152
		c0.792,3.168,1.584,6.336,2.376,9.576c0,0.72,0,1.44-0.072,2.232C103.824,120.24,102.744,120.24,101.664,120.24L101.664,120.24z
		 M344.304,102.024c-0.2159-0.072-0.4319-0.216-0.72-0.36c-0.144-0.36-0.36-0.72-0.576-1.152c0.072-0.576,0.144-1.152,0.216-1.728
		c0.288-0.36,0.576-0.72,0.936-1.152c0-0.36,0-0.792,0-1.224c-0.432-0.504-0.432-0.504-0.936-1.944c0.36-0.792,0.72-1.656,1.08-2.52
		c0.7921-0.288,1.584-0.576,2.4481-0.936c0.288-0.864,0.072-1.8,0.288-2.736c-0.144-1.0081-0.288-2.088-0.432-3.168
		c0.432-0.936,0.432-0.936,1.08-1.44c0.36-0.072,0.7921-0.216,1.224-0.36c0.576,0.072,1.224,0.144,1.872,0.216
		c0.36,0.432,0.72,0.864,1.08,1.368c0.144,0.648,0.288,1.296,0.504,1.944c-0.216,2.016-0.432,4.104-0.72,6.192
		c-0.288,0.72-0.648,1.44-1.008,2.16c-0.288,0.216-0.576,0.432-0.936,0.72c-0.504,3.6-0.504,3.6-0.936,4.608
		c-0.432,0.288-0.864,0.576-1.368,0.936C346.392,101.592,345.384,101.808,344.304,102.024L344.304,102.024z M289.872,101.808
		c-0.288-0.432-0.576-0.864-0.864-1.296c0-1.44,0-1.44,0.432-2.16c-0.144-1.512-0.288-3.024-0.432-4.608
		c0.432-0.792,0.864-1.584,1.296-2.376c0.8641-0.288,1.8-0.576,2.7361-0.936c0-0.36,0-0.792-0.0721-1.224
		c-0.6479,0-1.296-0.072-1.944-0.144c-0.36-0.216-0.72-0.504-1.08-0.792c0-5.76,0-5.76,0.3599-6.984
		c0.36-0.288,0.7921-0.576,1.2241-0.864c1.6559,0,1.6559,0,2.664,0.36c0.216,1.872,0.504,3.8159,0.792,5.7599
		c0.72,0,1.512,0.0721,2.304,0.144c0.7919-3.24,0.7919-3.24,1.224-3.888c1.44-0.216,1.44-0.216,2.8799,0.144
		c0.144,0.36,0.36,0.792,0.576,1.224c0.0721,0.864,0.144,1.728,0.216,2.664c-0.288,0.504-0.5759,1.08-0.936,1.6559
		c-0.864,0.2881-1.8,0.576-2.736,0.936c0.072,1.008,0.144,2.088,0.216,3.168c1.944,0.072,1.944,0.072,3.096,0.432
		c1.2239,1.944,1.2239,1.944,1.584,3.168c0,1.872,0,1.872-0.504,3.312c-1.296,1.008-1.296,1.008-2.232,1.296
		c-0.576,0-1.152,0-1.728,0c-0.288-0.288-0.576-0.648-0.8641-1.008c0-2.16-0.4319-3.888-0.288-5.544
		c-0.792,0.144-1.584,0.288-2.448,0.504c-0.144,1.584-0.36,3.168-0.576,4.752c-0.144,0.288-0.288,0.648-0.504,1.008
		c-0.576,0.432-1.152,0.864-1.8,1.296C291.6,101.808,290.736,101.808,289.872,101.808L289.872,101.808z M306.432,101.52
		c-0.288-0.432-0.648-0.864-1.008-1.296c0-1.224-0.072-2.52-0.144-3.816c-0.2159-0.36-0.4319-0.792-0.72-1.224
		c0-0.504,0-1.08,0-1.656c0.504-0.504,1.008-1.008,1.584-1.584c1.008,0.072,2.088,0.144,3.168,0.216c0-0.288,0-0.648,0.072-1.008
		c-0.432-1.152-0.936-2.376-1.44-3.6c-0.072-0.576-0.144-1.152-0.216-1.7281c0.072-0.36,0.216-0.792,0.36-1.224
		c0.36-0.144,0.792-0.36,1.224-0.576c0.6479,0,1.368,0,2.088-0.072c0.648,1.008,1.368,2.016,2.088,3.096
		c0.288,0.792,0.576,1.584,0.936,2.376c0,1.08,0.072,2.232,0.144,3.384c1.08-0.216,2.232-0.432,3.384-0.648
		c0.936,0.648,0.936,0.648,1.4399,1.368c0,0.504,0,1.08,0.072,1.656c-0.288,0.792-0.576,1.584-0.936,2.448
		c-0.576,0.432-1.152,0.864-1.8,1.296c-0.6481,0-1.296,0-1.944,0c-0.288-0.432-0.576-0.864-0.864-1.296
		c0-1.44,0.288-2.16,0.144-3.384c-0.72-0.144-0.72-0.144-3.6,0.216c0,1.512-0.072,3.024-0.144,4.608
		c-0.144,0.36-0.288,0.72-0.432,1.152c-0.432,0.288-0.864,0.648-1.368,1.008C307.872,101.304,307.152,101.376,306.432,101.52
		L306.432,101.52z M279.072,100.08c-0.432-0.576-0.432-0.576-0.648-2.448c0.432-0.648,0.936-1.296,1.44-1.944
		c0-0.504,0-1.08,0-1.656c-0.432-0.648-0.936-1.296-1.44-1.944c0-0.648,0-1.296,0-1.944c0.936-1.152,0.936-1.152,2.304-2.16
		c0.648,0,1.296-0.072,1.944-0.144c1.008,1.152,1.008,1.152,2.016,3.024c0.288,1.296,0.576,2.592,0.936,3.888
		c0,0.936,0,1.872,0,2.88c-1.08,0.792-2.16,1.584-3.2399,2.376C281.304,100.008,280.224,100.008,279.072,100.08L279.072,100.08z
		 M354.168,100.08c-0.288-0.072-0.576-0.144-0.8641-0.288c-0.2159-2.88-0.2159-2.88,0-4.824c-0.2159-1.08-0.4319-2.232-0.72-3.384
		c0.144-0.288,0.288-0.576,0.504-0.936c0.576-0.36,1.152-0.72,1.8-1.08c0.648-0.072,1.296-0.216,2.016-0.36
		c-0.144-1.152-0.288-2.376-0.504-3.6c0.288-0.792,0.576-1.656,0.8641-2.52c0.72-0.072,1.44-0.144,2.16-0.288
		c0.288,0.216,0.648,0.432,1.008,0.648c0.792,1.944,1.584,3.96,2.376,5.976c0.936,0.0721,1.872,0.216,2.88,0.36
		c0.216,0.216,0.432,0.432,0.72,0.72c0.2881,0,0.576,0,0.936,0c0.36-0.288,0.792-0.576,1.224-0.936
		c0.072-2.52,0.072-2.52-0.504-6.84c0.864-0.288,1.728-0.576,2.6641-0.864c1.44,0.72,1.44,0.72,1.944,1.44
		c0.288,1.152,0.648,2.304,1.008,3.528c0.432,0.36,0.864,0.72,1.368,1.1519c0.4321-0.576,0.864-1.224,1.296-1.872
		c-0.144-1.008-0.288-2.088-0.504-3.168c0.36-0.72,0.72-1.44,1.08-2.16c1.224-0.36,1.224-0.36,2.664-0.144
		c0.576,1.152,1.152,2.304,1.8,3.528c0.72,0.864,1.44,1.728,2.16,2.664c0.648,1.512,1.296,3.024,1.944,4.536
		c0,1.224,0,1.224-0.504,2.16c-0.576,0.36-0.576,0.36-2.952,0.576c-0.2159-0.144-0.4319-0.288-0.72-0.504
		c-0.864-2.952-0.864-2.952-1.512-4.176c-0.216-0.144-0.432-0.36-0.648-0.576c-0.72,0-1.44,0.072-2.16,0.144
		c0.288,1.152,1.296,2.592,2.232,5.04c0,0.504,0,1.08,0,1.656c-0.576,0.432-1.152,0.864-1.8,1.296
		c-0.504-0.072-1.08-0.144-1.656-0.216c-0.72-0.6479-0.72-0.6479-2.376-3.96c-0.288,0-0.648-0.072-1.0079-0.144
		c-1.656,0.936-1.656,0.936-3.312,1.368c-0.288,0.936-0.576,1.872-0.864,2.88c-0.648,0.72-0.648,0.72-1.296,1.008
		c-0.864,0-1.728,0-2.664,0c-0.144-0.144-0.288-0.36-0.504-0.576c-0.3599-3.096-0.3599-3.096-0.72-3.96c-0.36,0-0.72,0-1.152,0
		c-1.224,1.224-1.224,1.224-2.664,2.088c-0.648,3.312-0.648,3.312-1.08,3.816c-0.576,0.216-1.152,0.504-1.8,0.792
		C355.608,100.08,354.888,100.08,354.168,100.08L354.168,100.08z M335.664,99.144c-0.36-0.36-0.72-0.72-1.08-1.08
		c0.216-2.376,0.216-2.376,0.72-4.32c0.504-0.72,0.504-0.72,0.6481-2.16c-0.72,0.288-1.44,0.576-2.16,0.864
		c-0.792,0-1.584,0.072-2.448,0.144c-0.576-1.224-0.576-1.224-1.224-1.944c-0.36,0.864-0.72,1.728-1.08,2.664
		c-0.288,0.288-0.576,0.576-0.936,0.936c0,2.376,0,2.376-0.216,3.096c-0.432,0.288-0.864,0.576-1.296,0.864
		c-0.6479,0.0721-1.296,0.144-1.944,0.216c-0.432-0.72-0.864-1.44-1.368-2.232c0-1.728,0-1.728,0.504-3.168
		c0.288-0.288,0.576-0.576,0.936-0.936c0-0.432,0.072-0.936,0.144-1.44c-0.216,0.072-0.432,0.144-0.72,0.216
		c-0.144,0.288-0.288,0.576-0.432,0.864c-0.6479,0.288-1.296,0.576-1.944,0.936c-0.432-0.072-0.936-0.144-1.44-0.216
		c-0.936-1.728-1.872-3.456-2.808-5.184c0.216-1.008,0.4321-2.016,0.6481-3.096c1.2239-0.36,1.2239-0.36,2.8799-0.288
		c0.2161,0.576,0.504,1.152,0.792,1.728c0.72,0.936,1.512,1.872,2.304,2.88c0.504-0.4319,1.008-0.9359,1.584-1.44
		c0.36-0.072,0.72-0.216,1.08-0.36c0.432,0.072,0.936,0.144,1.44,0.216c1.224,1.296,1.224,1.296,1.944,1.584
		c0-0.6479,0-1.296,0.072-1.944c0.3599-0.432,0.72-0.936,1.08-1.44c1.224-0.36,1.224-0.36,2.448-0.36
		c0.288,0.216,0.576,0.432,0.936,0.72c0.7919,1.8,0.7919,1.8,1.224,3.744c1.152-0.36,2.304-0.792,3.456-1.224
		c0.144-1.08,0.288-2.16,0.4319-3.312c0.648-0.72,0.648-0.72,1.584-1.224c0.576,0,1.152-0.072,1.728-0.144
		c0.432,0.936,0.864,1.872,1.296,2.808c0,1.44,0,1.44-0.504,2.592c-0.8641,0.432-1.8,0.936-2.736,1.44
		c-1.08,4.824-1.08,4.824-2.088,7.488c-0.432,0.288-0.864,0.576-1.296,0.936C337.104,98.712,336.384,98.928,335.664,99.144
		L335.664,99.144z M272.592,98.928c-0.144-0.144-0.2881-0.36-0.432-0.576c-0.432-8.208-0.432-8.208-0.216-9.36
		c0.504-0.504,0.504-0.504,0.936-1.944c0.576-0.432,1.152-0.936,1.728-1.44c0-0.288,0.072-0.576,0.144-0.936
		c-0.864-0.144-1.728-0.288-2.664-0.432c-0.936,1.44-0.936,1.44-2.304,2.808c-0.072,1.224-0.144,2.52-0.216,3.816
		c-0.432,1.008-0.936,2.088-1.44,3.168c-0.504,0.288-1.008,0.576-1.584,0.936c-0.936,0-1.872,0-2.88,0.072
		c-0.288-0.504-0.576-1.008-0.864-1.512c0.288-1.44,1.224-3.096,1.44-4.536c-0.936-1.944-0.936-1.944-1.008-2.664
		c-1.44,0.144-2.88,0.288-4.32,0.504c0,1.1519-0.072,2.376-0.144,3.6c-0.288,0.936-0.648,1.872-1.008,2.88
		c-0.576,0.432-1.152,0.864-1.728,1.296c-0.936,0-1.872,0-2.8801,0c-0.144-0.216-0.288-0.432-0.504-0.648
		c0-0.864-0.072-1.728-0.144-2.592c0.216-0.504,0.432-1.08,0.72-1.656c0-0.864,0-1.728,0-2.664c-0.432-0.648-0.936-1.296-1.44-1.944
		c-0.072-0.432-0.144-0.936-0.216-1.44c0.648-0.648,1.296-1.296,2.016-2.016c0.792,0,1.584,0,2.448,0
		c0.3599,0.432,0.72,0.936,1.1519,1.44c0.288,0,0.576-0.072,0.864-0.144c0-0.72,0-1.44,0-2.16
		c-0.288-0.864-0.648-1.728-1.0079-2.592c-0.36-0.432-0.72-0.936-1.152-1.44c-0.072-0.432-0.144-0.936-0.288-1.44
		c1.08-1.224,1.08-1.224,1.872-1.584c0.7921,0.072,1.584,0.144,2.376,0.216c0.36,0.36,0.792,0.792,1.224,1.224
		c1.728,3.24,1.728,3.24,2.2319,4.68c0.216,1.224,0.432,2.52,0.6481,3.816c2.592-0.864,2.592-0.864,2.8799-1.224
		c-0.288-0.36-0.288-0.36-1.728-0.792c-0.288-0.576-0.576-1.152-0.864-1.8c0-1.44-0.432-3.096-0.432-5.256
		c0.504-0.432,1.0081-0.864,1.584-1.368c0.792,0.072,1.584,0.144,2.376,0.216c0.576,1.008,1.152,2.016,1.8,3.024
		c0.144,0.576,0.288,1.152,0.432,1.728c0.36,0.288,0.792,0.576,1.224,0.936c0.432,0.864,0.864,1.728,1.296,2.664
		c0.4321-0.36,0.8641-0.792,1.368-1.224c0-2.16,0-2.16-0.288-3.6c0.288-0.288,0.6479-0.576,1.008-0.936
		c0.7919,0,1.656-0.072,2.52-0.144c0.432,0.36,0.936,0.72,1.44,1.152c0.792,3.312,0.792,3.312,1.8,5.688
		c0.072,0.792,0.144,1.584,0.216,2.376c-0.504,1.44-0.504,1.44-1.44,2.88c-1.08,1.008-1.08,1.008-1.944,1.44
		c0.072,1.872,0.144,3.816,0.288,5.76c-0.144,0.648-0.288,1.296-0.504,1.944c-0.936,1.224-0.936,1.224-2.016,1.8
		C274.176,98.928,273.384,98.928,272.592,98.928L272.592,98.928z M244.512,94.824c-0.216-0.144-0.432-0.36-0.72-0.576
		c0-0.72-0.072-1.44-0.144-2.16c0.288-0.432,0.576-0.936,0.936-1.44c0.072-0.72,0.144-1.44,0.216-2.16
		c-0.288-1.008-0.576-2.016-0.936-3.096c-0.36-0.36-0.792-0.792-1.224-1.224c0-1.224,0-1.224,0.504-2.664
		c0.144-0.144,0.288-0.288,0.504-0.432c0-0.288-0.072-0.648-0.144-1.008c-0.432-0.288-0.864-0.576-1.296-0.936
		c0.072-2.16,0.144-4.32,0.216-6.48c-0.36-0.648-0.72-1.296-1.08-1.944c-0.504-0.144-1.08-0.36-1.656-0.576
		c-0.288,0.576-0.576,1.152-0.864,1.8c-0.72,0.432-1.44,0.864-2.232,1.296c-0.936,0-1.872,0-2.88-0.072c0,1.08,0,2.16,0.072,3.312
		c-0.36,0.576-0.72,1.152-1.08,1.728c-0.72,0.504-1.512,1.08-2.304,1.656c0,0.36,0,0.792,0,1.224c0.288,0.72,0.648,1.44,1.008,2.16
		c0.072,0.936,0.144,1.872,0.216,2.88c-0.144,0.864-0.288,1.728-0.504,2.592c-0.648,0.648-1.296,1.2961-2.016,2.0161
		c-0.432,0.072-0.936,0.144-1.44,0.288c-0.504-0.144-1.08-0.288-1.656-0.504c-0.36-0.792-0.36-0.792-0.36-2.5201
		c0.144-0.288,0.288-0.576,0.432-0.936c0-1.008,0-2.016,0-3.096c-0.288-0.792-0.576-1.584-0.936-2.448c0-0.576,0-1.224,0-1.872
		c0.504-1.008,1.224-1.44,2.664-3.6c0.144-1.296,0.288-2.592,0.432-3.888c-0.432-2.376-0.432-2.376-0.792-2.88
		c-0.288,0-0.576-0.072-0.936-0.144c-1.008,1.008-1.008,1.008-2.88,2.16c-0.864,0-1.728,0-2.664,0
		c-0.432,0.432-0.864,0.864-1.368,1.368c0,0.288,0,0.576,0,0.936c0.648,0.936,1.296,1.872,1.944,2.88
		c0.648,1.44,1.296,2.88,1.944,4.32c0,1.08,0,2.232,0,3.384c-0.288,0.432-0.648,0.936-1.008,1.44
		c-0.72,0.432-1.44,0.864-2.232,1.296c-0.648-0.072-1.296-0.144-1.944-0.216c-0.216-0.216-0.4319-0.432-0.72-0.648
		c0-0.648-0.072-1.368-0.144-2.088c0.144-0.216,0.288-0.432,0.504-0.72c0-0.72,0-1.44,0-2.16c-0.144-0.432-0.288-0.936-0.504-1.44
		c-0.216,0-0.504,0-0.792-0.072c-0.864,2.232-0.864,2.232-1.8,3.384c-1.584,0.864-1.584,0.864-3.024,1.296
		c-1.08-0.072-2.16-0.144-3.312-0.216c-0.72-0.576-0.72-0.576-1.008-1.512c-0.216,0-0.432,0-0.72,0
		c-0.36,1.656-0.36,1.656-1.296,3.6c-0.648,0.432-1.296,0.864-2.016,1.296c-1.44,0-1.44,0-2.664-0.504
		c-0.5041-0.864-0.5041-0.864-0.648-2.52c0.288-0.36,0.648-0.72,1.008-1.152c0-4.104,0-4.104-0.36-5.544
		c-0.72-0.144-2.16,0.36-3.096,0.36c-0.576-0.288-1.152-0.576-1.728-0.864c-0.432,0-0.936-0.072-1.44-0.144
		c-0.36,0.432-0.36,0.432-1.296,3.312c-0.648,0.792-1.296,1.584-1.944,2.376c-1.8,0.792-1.8,0.792-3.24,1.08
		c-0.504-0.216-1.08-0.432-1.656-0.648c-0.216-0.648-0.432-1.368-0.648-2.088c0.144-0.288,0.288-0.648,0.504-1.008
		c0.72-0.432,1.44-0.936,2.16-1.44c0.072-0.288,0.144-0.576,0.216-0.936c-0.432-1.224-0.864-2.448-1.296-3.744
		c-0.792,0-1.584-0.072-2.376-0.144c-1.8,3.384-1.8,3.384-2.88,4.608c-0.936,0.504-1.872,1.008-2.88,1.512
		c-0.288,0.72-0.576,1.512-0.864,2.304c-0.36,0.36-0.792,0.792-1.224,1.224c-0.72,0.36-1.44,0.72-2.232,1.08
		c-1.224,0-1.224,0-2.376-0.504c-0.144-0.144-0.288-0.288-0.504-0.504c0-0.432-0.072-0.864-0.144-1.296
		c0.36-0.576,0.792-1.224,1.224-1.872c0-1.224,0-1.224-0.576-3.888c-1.296,0-2.592-0.072-3.888-0.144
		c0,0.288-0.072,0.576-0.144,0.864c0.432,0.36,0.432,0.36,1.584,0.576c0.144,0.216,0.288,0.432,0.504,0.72
		c0,1.2961,0,2.664,0.072,4.032c-0.288,0.504-0.576,1.08-0.936,1.656c-0.792,0.576-1.656,1.152-2.52,1.8
		c-0.504,0.144-1.08,0.288-1.656,0.432c-0.792-0.144-1.584-0.288-2.376-0.432c-0.288-0.504-0.648-1.008-1.008-1.584
		c-0.216,0-0.432-0.072-0.72-0.144c-0.72,0.432-1.44,0.936-2.16,1.44c-1.008,0.072-2.016,0.216-3.096,0.36
		c-0.288,0.576-0.576,1.152-0.936,1.8c-2.16,1.944-2.16,1.944-4.104,3.168c-0.792,0-1.584,0-2.376,0
		c-0.432-0.288-0.864-0.576-1.368-0.864c-0.072-0.504-0.144-1.08-0.216-1.656c0.288-0.36,0.576-0.792,0.936-1.224
		c0.72-0.4319,1.512-0.864,2.304-1.296c0.432-0.792,0.936-1.656,1.44-2.52c0.072-1.44,0.072-1.44-0.216-2.808
		c-0.72,0-1.944,0.504-3.6,0.72c-0.72-0.432-1.512-0.864-2.304-1.296c0-0.504,0-1.08,0-1.656c0.936-0.936,2.736-1.944,3.816-2.88
		c0.936-1.44,0.936-1.44,1.44-3.096c0.072-0.792,0.144-1.584,0.216-2.448c-0.144-0.216-0.36-0.4319-0.576-0.72
		c-0.36,0-0.72-0.072-1.152-0.144c-0.648,0.432-1.296,0.936-1.944,1.44c-0.936-0.0721-1.872-0.144-2.88-0.216
		c-0.144-0.144-0.288-0.288-0.504-0.504c0-0.576-0.072-1.152-0.144-1.728c0.432-0.72,0.936-1.44,1.44-2.16
		c0.432-0.288,0.936-0.648,1.44-1.008c1.008-2.16,1.008-2.16,1.008-2.88c-0.144-0.288-0.288-0.576-0.504-0.936
		c-0.432-0.288-0.864-0.576-1.296-0.864c-1.224,0.216-1.656,0.72-2.88,1.224c-0.504-0.072-1.08-0.144-1.656-0.288
		c-0.36-0.216-0.792-0.504-1.224-0.792c0.216-0.504,0.216-0.504,0.216-2.16c1.008-0.36,1.008-0.36,1.296-0.72
		c0.072-0.504,0.144-1.08,0.288-1.656c-0.288-1.296-0.648-2.592-1.008-3.888c-0.288-0.504-0.576-1.08-0.936-1.656
		c-0.648-0.432-1.296-0.936-1.944-1.44c0-0.432,0-0.936,0-1.44c0.648-0.432,1.368-0.936,2.088-1.44c0.648,0,1.296-0.072,1.944-0.144
		c0.72,0.792,1.44,1.584,2.16,2.376c0.72,1.152,1.44,2.376,2.16,3.6c0.144,0,0.36,0,0.576-0.0721
		c0.144-0.504,0.36-1.08,0.576-1.6559c0.864,0,1.728-0.0721,2.664-0.144c0.432,0.288,0.936,0.576,1.44,0.936
		c0.72,1.08,1.44,2.232,2.16,3.384c0.216,0,0.504-0.072,0.792-0.144c0.072-0.72,0.144-1.44,0.288-2.16
		c-0.432-1.296-0.936-2.664-1.44-4.032c0-0.432,0-0.936,0-1.44c0.288-0.36,0.576-0.792,0.936-1.224
		c1.368-0.36,1.368-0.36,2.52-0.144c0.288,0.504,0.648,1.008,1.008,1.584c0.576,1.656,1.152,3.312,1.728,5.04c0,0.72,0,1.44,0,2.16
		c-0.936,2.376-0.936,2.376-0.936,3.384c0.648,0.864,1.296,1.728,1.944,2.592c0.288,0,0.576,0.072,0.864,0.144
		c0.432-1.08,0.864-2.16,1.296-3.24c-0.288-3.6-0.288-3.6,0-5.544c0.144-0.288,0.288-0.576,0.432-0.936
		c1.368-0.36,1.368-0.36,3.024-0.288c0.288,0.576,0.576,1.152,0.864,1.728c0.72,3.384,0.72,3.384,0.72,5.76
		c-0.288,0.936-0.288,0.936-0.144,1.944c0.864-1.224,0.864-1.224,1.296-2.448c0.216-2.16,0.432-4.32,0.72-6.48
		c0.432-0.36,0.864-0.72,1.368-1.08c0.36-0.072,0.792-0.144,1.224-0.216c0.36,0.144,0.72,0.288,1.152,0.432
		c0.36,0.72,0.792,1.512,1.224,2.304c0.216-0.288,0.504-0.576,0.792-0.936c0.072-1.584,0.144-3.168,0.288-4.824
		c0.144-0.216,0.36-0.432,0.576-0.72c0.576-0.144,1.152-0.36,1.728-0.576c0.576,0.144,1.224,0.36,1.872,0.576
		c0.576,1.44,0.576,1.44,1.08,5.04c0,0.576,0,1.152,0,1.7281c0.504,0.288,1.008,0.576,1.584,0.936c0.576,1.08,1.152,2.232,1.8,3.384
		c0.072,1.152,0.216,2.376,0.36,3.6c0.936,0.144,1.872,0.36,2.88,0.576c0.36-0.36,0.36-0.36,0.576-2.52
		c-0.288-0.792-0.576-1.584-0.936-2.376c-1.08-1.008-2.016-1.368-2.52-2.088c0-0.576-0.072-1.152-0.144-1.8
		c1.08-1.1519,1.08-1.1519,2.088-1.584c0.72,0.072,1.44,0.144,2.16,0.288c1.656,0.936,1.656,0.936,2.592,1.872
		c1.008,1.728,1.008,1.728,1.296,2.808c-0.072,1.944-0.144,3.96-0.216,5.976c0.36,0.36,0.36,0.36,1.8,0.864
		c0.504,0.72,0.504,0.72,1.224,0.936c0.36-0.576,0.36-0.576,0.36-2.232c-0.288-1.656-0.648-3.312-1.008-5.04
		c0.072-0.288,0.144-0.648,0.288-1.008c0.504-0.288,1.008-0.576,1.584-0.864c0.864,0.144,1.728,0.288,2.592,0.504
		c0.288-0.36,0.288-0.36,0.144-2.52c0.288-0.504,0.576-1.008,0.864-1.584c0.864-0.072,1.728-0.144,2.592-0.216
		c0.288,0.36,0.576,0.72,0.864,1.08c0.72,2.16,1.44,4.32,2.16,6.48c0,0.864,0.072,1.728,0.144,2.664c0.72,0,1.44-0.072,2.16-0.144
		c0.432,0.2881,0.936,0.576,1.44,0.936c1.872,2.448,1.872,2.448,2.736,4.032c0.288,1.008,0.576,2.016,0.936,3.096
		c0.576,0.144,1.152,0.36,1.8,0.576c0-1.08,0.072-2.16,0.144-3.24c-1.008-4.536-1.008-4.536-1.8-6.48
		c-0.288,0-0.576-0.072-0.936-0.144c-0.432,0.216-0.936,0.432-1.44,0.72c-0.864-0.072-1.728-0.216-2.664-0.36
		c-0.504-0.72-1.368-4.032-2.808-7.128c0.288-1.944,0.288-1.944,0.648-2.4481c0.36-0.144,0.792-0.36,1.224-0.576
		c0.504,0.072,1.08,0.144,1.656,0.216c1.44,1.44,1.44,1.44,3.384,4.536c0.864,0.144,1.728,0.288,2.592,0.504
		c0.36,0.288,0.792,0.576,1.224,0.936c2.736,5.184,3.456,7.344,3.816,7.632c0.2881-0.72,0.576-1.44,0.864-2.16
		c0.36-0.288,0.72-0.576,1.08-0.864c0.504-0.072,1.08-0.144,1.656-0.288c0.36,0.216,0.792,0.432,1.224,0.648
		c0.792,1.224,0.792,1.224,2.16,5.544c0.432-0.216,0.936-0.432,1.44-0.648c0.648,0.072,1.296,0.216,1.944,0.36
		c0.72,0.576,0.72,0.576,2.376,3.096c0.216,0,0.504,0,0.792,0.0721c-0.072-1.152-0.144-2.376-0.216-3.6
		c-0.216-0.36-0.432-0.792-0.72-1.224c0-0.792,0-1.584,0-2.376c0.576-0.432,1.152-0.864,1.8-1.368
		c0.648,0.0721,1.296,0.144,1.944,0.216c2.016,3.528,2.016,3.528,2.952,5.904c0,0.288,0.072,0.648,0.144,1.008
		c0.288,0,0.648-0.072,1.008-0.144c0.216-0.216,0.432-0.432,0.72-0.72c0.72,0.072,1.44,0.144,2.16,0.216
		c0.504,0.288,1.08,0.576,1.656,0.936c0.648,0.864,1.296,1.728,1.944,2.664c0.144,0.648,0.36,1.368,0.576,2.088
		c-0.288,4.536-0.288,4.536-0.72,5.976c-0.36,0.288-0.792,0.576-1.224,0.936c0.216,1.008,2.376,4.32,3.384,6.4799
		c0.216,0.936,0.432,1.872,0.72,2.88c0,0.7921,0,1.584,0,2.448c-0.144,0.432-0.288,0.936-0.504,1.44
		c-0.936,0.72-1.944,1.44-2.952,2.232C245.952,94.824,245.232,94.824,244.512,94.824L244.512,94.824z M235.152,92.664
		c-1.944-0.504-1.944-0.504-2.592-1.08c0-0.792,0-1.584,0-2.376c0.432-0.432,0.864-0.864,1.368-1.368
		c1.224-0.432,1.224-0.432,1.656-0.936c0-1.224,0.072-2.448,0.144-3.672c-0.144-0.36-0.288-0.792-0.504-1.224
		c0.216-0.792,0.432-1.656,0.648-2.52c0.504-0.144,1.08-0.288,1.656-0.504c0.4319,0.0721,0.9359,0.144,1.44,0.216
		c0.36,0.288,0.792,0.648,1.224,1.008c0.288,1.008,0.648,2.016,1.008,3.024c0,1.584,0,3.168,0,4.752
		c-0.144,0.36-0.288,0.7921-0.432,1.224c-2.16,1.944-2.16,1.944-3.456,2.736C236.592,92.16,235.872,92.376,235.152,92.664
		L235.152,92.664z M283.392,86.4c-0.3599-0.432-0.72-0.864-1.152-1.296c0.072-1.152,0.144-2.376,0.288-3.6
		c0.36-0.432,0.72-0.936,1.08-1.44c1.2239-0.36,1.2239-0.36,3.0959-0.36c0.36,0.36,0.72,0.72,1.08,1.08c0,0.936,0,1.872,0,2.88
		c-0.288,0.576-0.576,1.152-0.936,1.728c-0.504,0.216-1.0081,0.504-1.584,0.792C284.688,86.256,284.04,86.328,283.392,86.4
		L283.392,86.4z M68.832,84.528c-0.72-0.36-1.44-0.72-2.16-1.08c0.072-0.288,0.144-0.576,0.216-0.936
		c1.944-0.648,3.6-0.648,5.76-1.152c0.36-0.36,0.792-0.72,1.224-1.152c2.88-0.936,5.76-1.872,8.64-2.88
		c2.88-2.376,5.76-4.752,8.64-7.2c1.224-2.52,2.448-5.04,3.672-7.56c0.504-3.384,0.936-9.864,1.44-11.736
		c0.576-0.504,0.576-0.504,1.8-0.864c0.576,0,1.152,0,1.728,0c0.288,0.36,0.576,0.72,0.936,1.08
		c-0.288,3.024-0.576,6.048-0.864,9.144c-0.288,1.224-0.576,2.52-0.936,3.816c-1.008,1.656-1.44,2.88-2.448,4.32
		c-0.288,0.792-0.576,1.584-0.936,2.376c-1.944,2.448-1.944,2.448-5.976,6.48c-1.224,0.864-2.448,1.8-3.744,2.736
		c-2.592,1.008-9.792,2.88-13.68,4.32C71.064,84.312,69.984,84.384,68.832,84.528L68.832,84.528z M29.448,82.368
		c-1.08-0.864-2.16-1.8-3.24-2.736c0-0.288-0.072-0.648-0.144-1.008c1.728,0.36,3.888,1.296,7.704,2.304
		c2.448,0.072,4.896,0.144,7.416,0.216c0.072,0.0721,0.144,0.216,0.288,0.36c-0.144,0.144-0.288,0.36-0.504,0.576
		C37.152,82.152,33.336,82.224,29.448,82.368L29.448,82.368z M163.872,82.368c-0.288-0.144-0.288-0.144-0.432-1.296
		c0.288-0.648,0.576-1.296,0.864-1.944c0.648,0,1.296,0,1.944,0c-0.072,0.648-0.216,1.296-0.36,1.944
		c-0.288,0.432-0.576,0.864-0.864,1.296C164.664,82.368,164.304,82.368,163.872,82.368L163.872,82.368z M206.784,82.008
		c-0.072-0.864-0.216-1.728-0.36-2.664c-0.504-1.512-1.08-3.024-1.656-4.536c0.144-1.584,0.288-3.168,0.432-4.824
		c-0.144-0.72-0.288-1.44-0.432-2.16c-0.648-0.432-0.648-0.432-2.016-0.576c-0.576,0.144-1.152,0.288-1.7281,0.432
		c-0.288,0.36-0.576,0.72-0.864,1.152c-0.144,1.08-0.288,2.16-0.432,3.312c-0.36,0.288-0.72,0.576-1.08,0.864
		c-0.288-0.072-0.576-0.216-0.864-0.36c-0.504-3.6-0.504-3.6-0.36-4.824c0.864-0.432,1.728-0.864,2.664-1.296
		c0.648-1.008,1.296-2.088,1.944-3.168c2.376-0.936,2.376-0.936,3.312-1.008c0.072,0.432,0.216,0.936,0.36,1.44
		c0.36,0.504,0.792,1.08,1.224,1.656c0.144,0.648,0.288,1.296,0.432,1.944c-0.216,2.376-0.72,3.816-0.72,5.04
		c0.504,0.936,0.504,0.936,1.152,1.296c1.872,0.216,1.872,0.216,3.816-0.144c0,1.296,0,2.592,0.072,3.888
		c-0.144,0.432-0.288,0.936-0.432,1.44c-2.016,0.792-2.016,0.792-3.24,1.728C207.288,81.864,207.288,81.864,206.784,82.008
		L206.784,82.008z M157.392,80.28c-0.504-0.864-1.008-1.728-1.584-2.592c-0.36-0.072-0.72-0.144-1.08-0.216
		c0.072-1.008,0.072-1.008,0.504-1.728c0.72-0.144,1.44-0.36,2.16-0.576c0.432-0.288,0.936-0.648,1.44-1.008
		c0.288,0,0.576,0,0.936-0.072c-0.072,1.224-0.216,2.52-0.36,3.816c-1.008,1.944-1.008,1.944-1.8,2.664
		C157.536,80.496,157.464,80.424,157.392,80.28L157.392,80.28z M249.768,79.704c-0.216-0.4319-0.432-0.864-0.648-1.296
		c0-1.512,0-3.024,0-4.536c-0.288-1.08-0.576-2.232-0.936-3.384c0.0721-0.504,0.144-1.08,0.216-1.6559
		c0.504-0.504,1.008-1.0081,1.584-1.584c0.72,0.072,1.44,0.144,2.16,0.216c0.36,0.504,0.792,1.008,1.224,1.584
		c0.432,1.368,0.864,2.736,1.296,4.104c0.072,0.936,0.144,1.872,0.216,2.88c-0.288,0.864-0.576,1.728-0.936,2.592
		c-0.432,0.288-0.864,0.648-1.296,1.008C251.712,79.632,250.776,79.632,249.768,79.704L249.768,79.704z M178.272,74.304
		c-0.432-0.936-0.432-0.936-0.648-2.88c0.288-0.864,0.576-1.728,0.864-2.664c0.864-0.072,1.728-0.144,2.664-0.216
		c0,0.576-0.072,1.152-0.144,1.7281c-0.648,1.296-1.296,2.664-1.944,4.032C178.848,74.304,178.56,74.304,178.272,74.304
		L178.272,74.304z M191.448,72c-0.288-0.072-0.288-0.072,0-5.616c0.144,0.216,0.36,0.432,0.576,0.72
		c0.216,3.384,0.216,3.384,0,4.824C191.664,72.144,191.664,72.144,191.448,72L191.448,72z M170.064,71.712
		c0.36-3.6,0.36-3.6,0.216-7.2c1.008-1.08,2.016-2.232,3.024-3.384c0.288-0.072,0.576-0.144,0.864-0.216
		c-0.072,1.872-0.216,3.816-0.36,5.76c-1.008,3.312-1.008,3.312-1.8,4.896C171.36,71.568,170.712,71.64,170.064,71.712
		L170.064,71.712z M164.088,71.28c-0.432-0.288-0.936-0.576-1.44-0.936c-0.36,0-0.792,0-1.224-0.072
		c0.36-2.4481,0.36-2.4481,0.72-3.024c1.224-0.504,1.224-0.504,2.16-1.44c0.288,0,0.648-0.072,1.008-0.144
		c-0.144,3.6-0.144,3.6-0.648,5.328C164.52,71.064,164.304,71.136,164.088,71.28L164.088,71.28z M155.952,68.04
		c-1.008-1.296-1.008-1.296-2.16-2.232c-0.288,0-0.648-0.072-1.008-0.144c0.072-0.864,0.216-1.728,0.36-2.592
		c0.432-0.72,0.864-1.44,1.368-2.232c0.432,0,0.936,0,1.44-0.0721c0.216,0.144,0.432,0.2881,0.72,0.432
		c0.216,1.008,0.504,2.0161,0.792,3.024c-0.216,2.664-0.216,2.664-0.72,3.888C156.528,68.112,156.24,68.112,155.952,68.04
		L155.952,68.04z M270.432,63.648c-3.024-1.296-6.048-2.592-9.144-3.888c0-0.216,0-0.504,0-0.792
		c0.7919-0.432,1.584-0.864,2.376-1.368c1.296-0.144,2.592-0.288,3.888-0.432c0.288-0.216,0.576-0.432,0.936-0.72
		c0.36,0,0.7921,0,1.224,0.072c0.7921,1.944,0.7921,1.944,1.728,5.832c0,0.432,0,0.864-0.072,1.296
		C271.08,63.648,270.792,63.648,270.432,63.648L270.432,63.648z M67.104,61.704c-0.936-0.288-1.872-0.576-2.88-0.936
		c-0.936-0.6479-1.872-1.296-2.88-1.944c-0.288-0.432-0.576-0.864-0.936-1.296c0.36-0.432,0.792-0.864,1.224-1.368
		c1.152-0.432,1.152-0.432,1.872-1.152c1.44,0,2.88,0,4.32,0c0.864-0.288,1.728-0.648,2.664-1.008
		c0.36-0.648,0.72-1.2961,1.08-2.0161c0.504-0.288,1.008-0.576,1.584-0.864c0.72-0.072,1.44-0.144,2.16-0.216
		c0.144,0.072,0.36,0.216,0.576,0.36c0.144,0.432,0.288,0.936,0.432,1.44c-0.216,1.944-0.216,1.944-1.152,4.32
		c-1.944,2.448-1.944,2.448-3.168,3.384c-1.152,0.432-2.304,0.864-3.456,1.296C68.112,61.704,67.608,61.704,67.104,61.704
		L67.104,61.704z M178.704,59.904c-0.288-0.504-0.576-1.08-0.936-1.656c-1.008-0.144-2.016-0.288-3.024-0.504
		c0-0.36,0.072-0.792,0.144-1.224c2.88-0.072,2.88-0.072,4.32-0.36c0.36,0.648,0.36,0.648,0.36,3.528
		c-0.216,0.144-0.432,0.288-0.648,0.504C178.848,60.12,178.776,60.048,178.704,59.904L178.704,59.904z M255.312,57.888
		c-6.264-1.944-6.984-2.448-8.64-2.88c-0.072-0.288-0.144-0.576-0.288-0.864c1.728-0.864,4.104-2.736,7.488-4.68
		c2.16-0.792,4.32-1.584,6.48-2.376c0.36,0.072,0.72,0.144,1.152,0.216c2.448,1.944,2.448,1.944,4.176,3.96
		c0,0.2881,0,0.576-0.072,0.864c-5.76,1.872-5.76,1.872-7.92,2.88c-0.4319,0.504-0.864,1.008-1.368,1.584
		c-0.072,0.432-0.144,0.864-0.288,1.296C255.816,57.888,255.6,57.888,255.312,57.888L255.312,57.888z M147.744,56.16
		c-0.216-0.072-0.216-0.072-0.432-2.232c0.216,0,0.432,0,0.72,0.072c0.792,1.584,0.792,1.584,0.72,2.16
		C148.464,56.16,148.104,56.16,147.744,56.16L147.744,56.16z M242.352,53.784c-2.376-1.08-4.752-2.16-7.128-3.24
		c0-0.216,0-0.4319,0-0.72c2.232-2.16,4.464-4.32,6.696-6.48c1.8-1.08,3.5999-2.16,5.472-3.24c0.504-0.144,1.08-0.288,1.656-0.504
		c1.656-0.072,3.312-0.144,5.04-0.216c0.576,1.008,1.152,2.016,1.8,3.024c0,0.36,0,0.792,0,1.224
		c-2.664,1.224-5.328,2.448-8.064,3.672c-2.592,1.944-2.592,1.944-4.32,3.6c-0.072,0.936-0.144,1.872-0.216,2.88
		C243,53.784,242.712,53.784,242.352,53.784L242.352,53.784z M229.824,48.528c-1.296-0.648-2.664-1.296-4.032-1.944
		c-3.168-0.936-3.168-0.936-4.968-1.8c0-0.288,0.072-0.576,0.144-0.864c0.504-0.288,1.08-0.576,1.656-0.936
		c0.648-0.792,1.296-1.656,1.944-2.52c4.824-4.176,4.824-4.176,6.696-6.336c3.384-1.944,3.384-1.944,5.7599-3.888
		c2.304-0.936,4.608-1.872,6.984-2.88c4.104-0.72,4.104-0.72,5.256-0.576c0.576,2.448,1.08,3.168,1.296,5.04
		c0.504,1.224,0.504,1.224,1.008,1.7281c0,0.4319-0.072,0.864-0.144,1.296c-1.872,0-1.872,0-4.32,0.432
		c-2.448,1.296-4.896,2.592-7.416,3.888c-1.728,1.224-3.456,2.52-5.256,3.816c-1.944,2.16-1.944,2.16-2.88,3.816
		c-0.144,0.504-0.288,1.008-0.432,1.584C230.688,48.384,230.256,48.456,229.824,48.528L229.824,48.528z M216.144,42.984
		c-2.304-0.792-4.608-1.656-6.984-2.52c0-0.288,0-0.576-0.072-0.936c0.288-0.432,0.576-0.936,0.936-1.44
		c4.824-4.104,4.824-4.104,7.416-5.976c0.864-1.008,1.728-2.088,2.664-3.168c2.16-2.016,4.392-4.032,6.624-6.12
		c0.432-0.144,0.936-0.288,1.44-0.504c0.72-0.576,1.44-1.224,2.16-1.872c0.72-0.288,1.44-0.648,2.16-1.008
		c0.792-0.576,1.584-1.224,2.376-1.872c2.808-1.296,5.616-2.592,8.424-3.888c1.008-0.072,2.016-0.144,3.096-0.216
		c0.144,0.216,0.36,0.432,0.576,0.648c0.216,2.304,0.432,4.608,0.72,6.912c-0.072,0.288-0.144,0.576-0.288,0.864
		c-1.296,0.288-2.592,0.576-3.888,0.936c-2.952,1.2241-5.904,2.52-8.856,3.816c-5.76,3.888-5.76,3.888-13.464,9.648
		c-0.576,0.72-1.224,1.44-1.8719,2.232c-0.576,1.08-1.224,2.232-1.872,3.384c0,0.288,0,0.648,0,1.008
		C217.008,42.912,216.576,42.912,216.144,42.984L216.144,42.984z M201.528,38.16c-0.72-0.432-1.44-0.936-2.16-1.44
		c0-0.504-0.072-1.008-0.144-1.512c3.816-6.264,3.816-6.264,5.76-8.856c4.3199-4.104,4.3199-4.104,9.144-8.208
		c1.944-1.224,3.888-2.448,5.904-3.744c3.6-1.872,7.2-3.816,10.8-5.76c4.536-1.872,4.536-1.872,8.352-2.88
		c2.592-0.216,5.256-0.504,7.92-0.792c-0.072,1.224-0.216,2.52-0.36,3.816c-2.736,0.36-3.672,0.864-5.4,1.296
		c-4.752,1.944-4.752,1.944-8.64,3.888c-4.752,3.312-4.752,3.312-8.352,5.4c-4.104,3.96-4.104,3.96-10.8,9.72
		c-5.328,3.816-5.328,3.816-7.488,5.76c-0.864,1.08-1.728,2.16-2.592,3.312C202.824,38.16,202.176,38.16,201.528,38.16
		L201.528,38.16z"/>
</g>
</svg>
