<?xml version="1.0" encoding="utf-8"?>
<!-- Generator: Adobe Illustrator 21.1.0, SVG Export Plug-In . SVG Version: 6.00 Build 0)  -->
<svg version="1.1" id="Cang" xmlns="http://www.w3.org/2000/svg" xmlns:xlink="http://www.w3.org/1999/xlink" x="0px" y="0px"
	 viewBox="0 0 391.464 375.624" enable-background="new 0 0 391.464 375.624" xml:space="preserve">
<g>
	<path fill-rule="evenodd" clip-rule="evenodd" d="M307.152,375.624c-3.384-1.008-3.384-1.008-5.544-1.944
		c-5.7599-3.816-11.016-6.696-13.896-8.64c-1.8-0.936-3.672-1.872-5.544-2.88c-1.944-2.088-3.96-4.176-5.976-6.264
		c-3.744-5.616-3.744-5.616-9.504-13.536c-0.648-0.72-1.296-1.44-1.944-2.16c-0.7921-0.576-1.656-1.152-2.52-1.8
		c-1.224-0.288-2.52-0.576-3.816-0.936c-3.6-0.288-3.6-0.288-19.656,0c-2.448-0.144-4.968-0.288-7.488-0.504
		c-2.16-0.936-11.016-3.816-11.736-4.32c-4.824-1.944-4.824-1.944-6.984-2.376c-11.52-4.824-11.52-4.824-11.952-5.328
		c-1.8-0.936-3.672-1.872-5.544-2.88c-5.04-1.872-5.256-2.16-7.2-2.592c-2.52-1.296-5.112-2.592-7.704-3.888
		c-4.896-3.24-9.864-6.48-14.832-9.792c-2.16-1.008-2.16-1.008-8.424-4.824c-9.36-7.704-9.36-7.704-14.616-11.52
		c-4.32-4.536-4.32-4.536-9.144-10.296c-0.504-0.288-1.08-0.648-1.656-1.008c-3.96-4.32-7.992-8.64-12.024-12.96
		c-4.32-3.816-8.136-7.92-12.24-11.736c-1.944-2.088-3.96-4.176-5.976-6.264c-1.08-0.936-2.232-1.872-3.384-2.88
		c-8.424-4.752-9.576-5.76-12.744-7.632c-2.376-1.008-2.376-1.008-11.016-3.384c-1.584-0.792-3.168-1.584-4.824-2.376
		c-2.448-0.6479-4.896-1.296-7.416-1.944c-3.816-0.648-7.632-1.296-11.52-1.944c-6.696-1.872-12.24-3.816-19.44-5.76
		c-1.152-0.576-2.376-1.224-3.6-1.872c-0.936-1.008-0.936-1.008-5.904-4.896c0-1.08,0-2.232,0-3.384
		c0.648-1.944,1.296-3.96,1.944-5.976c0.072-0.864,0.144-1.728,0.216-2.664c-0.504-0.72-0.504-0.72-0.504-1.656
		c0.36-0.288,0.72-0.6479,1.08-1.008c3.672,0.36,5.544,0.144,8.928,0.36c0.72,0.504,1.44,1.08,2.16,1.656c0.216,0,0.432,0,0.72,0
		c0.216-0.432,0.504-0.864,0.792-1.296c0.864-0.216,1.728-0.432,2.664-0.72c0.144-0.936,0.288-1.872,0.504-2.88
		c1.296-1.152,1.296-1.152,2.304-1.584c2.304,0.216,4.608,0.432,6.912,0.72c1.512,0.432,3.024,0.936,4.608,1.44
		c3.312,1.944,3.312,1.944,5.976,3.888c0.72,0.648,1.44,1.296,2.16,2.016c4.104,5.184,4.104,5.184,5.976,8.064
		c2.16,2.16,2.16,2.16,5.04,4.32c1.944,0.936,7.92,2.88,10.08,3.816c1.368,0.288,2.736,0.576,4.104,0.936
		c1.656,0.6479,3.312,1.296,5.04,1.944c5.76,2.88,11.52,5.7599,17.28,8.64c1.872,1.224,3.816,2.52,5.76,3.816
		c1.584,1.296,3.168,2.592,4.824,3.888c1.152,0.432,1.656,0.936,5.76,2.376c1.656,0.216,1.656,0.216,2.376,0.72
		c2.448,0.072,4.896,0.144,7.416,0.216c3.96-0.936,7.992-1.872,12.024-2.88c2.88-1.872,2.88-1.872,6.984-3.816
		c1.224-1.008,2.52-2.016,3.816-3.024c1.944-2.736,2.664-3.24,4.392-5.688c1.44-6.768,1.44-6.768,1.944-7.92
		c0.216-2.304,0.432-4.6079,0.72-6.9839c-0.072-1.872-0.144-3.816-0.216-5.76c0.432-5.544,0.432-5.544,0.72-19.224
		c-0.288-0.936-0.504-8.64-1.008-11.952c-0.432-0.72-1.44-7.92-2.376-10.8c-0.432-2.304-0.936-4.608-1.44-6.984
		c-0.072-1.728-0.144-3.456-0.216-5.256c0.432-2.808,0.936-5.616,1.44-8.424c0.216-17.784,0.216-17.784,0-26.856
		c-0.288-0.72-0.72-5.328-1.008-6.048c-0.432-19.872-0.216-22.032-0.432-28.08c0.216-2.592,0.216-2.592,1.44-9.072
		c0.072-3.312,0.144-6.696,0.216-10.08c-0.936-9.648-0.936-9.648-1.944-15.8401c-0.72-12.7439-0.72-12.7439-0.936-23.7599
		c-0.288-1.512-0.576-3.024-0.936-4.608c-0.288-3.168-0.648-6.336-1.008-9.576c-0.504-2.88-1.08-5.76-1.656-8.64
		c0.144-0.216,0.288-0.432,0.504-0.72c0.288,0,0.576-0.0721,0.864-0.144c0.216,0.36,0.504,0.72,0.792,1.08
		c1.944,5.328,1.944,5.328,2.376,7.2c1.008,1.728,2.88,7.2,3.384,7.704c0.504,1.224,0.504,1.224,1.44,7.2
		c0.648,2.1601,1.296,4.3201,1.944,6.48c0.792,3.96,1.584,7.992,2.376,12.024c0.936,8.856,0.936,8.856,1.44,16.9921
		c0.72,4.896,1.512,9.792,2.304,14.688c0.216-0.072,0.504-0.144,0.792-0.288c0.504-3.312,0.504-3.312,1.224-17.496
		c-0.936-10.08-0.936-10.08-2.88-23.976c-0.144-2.52-0.288-5.1121-0.504-7.704c-0.288-1.656-0.576-3.312-0.936-5.04
		c-0.072-2.52-0.144-5.1121-0.216-7.704c0.144-0.36,0.288-0.7201,0.432-1.152c0.288-0.2159,0.576-0.4319,0.864-0.72
		c0.432,0.288,0.864,0.576,1.296,0.936c0.792,1.728,1.584,3.4561,2.448,5.256c1.872,8.928,2.88,12.024,3.816,16.128
		c0.288,2.16,0.576,4.3199,0.936,6.48c1.944,7.92,2.88,13.68,3.312,14.832c0.216,0,0.432,0.0719,0.72,0.1439
		c0.216-0.6479,0.504-1.296,0.792-2.0159c0.648-3.528,1.2961-7.0561,1.944-10.584c0.216-3.312,0.432-6.696,0.72-10.0801
		c0-4.608,0-9.2159,0-13.8959c0.432-1.44,0.432-1.44,0.864-1.8721c0.216,0,0.432,0,0.72,0c0.216,0.2881,0.504,0.576,0.792,0.8641
		c0.648,2.736,1.296,5.472,1.944,8.2079c0.36,2.88,0.72,5.7599,1.152,8.64c-0.072,3.816-0.144,7.632-0.216,11.52
		c-0.504,4.752-1.08,9.576-1.656,14.4c0,1.296,0,2.664,0.072,4.032c0.216-0.144,0.432-0.288,0.648-0.432
		c0.576-1.656,1.224-3.312,1.872-5.04c1.296-5.472,2.592-11.0159,3.888-16.5599c0.432-3.888,1.44-9.3601,2.376-18
		c0.504-0.72,0.504-0.72,1.44-4.104c0.432,0,0.864-0.0721,1.368-0.144c0.792,2.088,0.792,2.088,1.008,3.528
		c0.648,1.008,1.2961,2.016,1.944,3.096c0.216,2.376,0.216,2.376,0,12.456c-0.936,6.048-1.944,10.08-2.88,17.064
		c-0.288,1.008-0.576,2.016-0.936,3.0959c-0.432,3.024-0.936,6.048-1.44,9.144c-0.432,1.152-0.936,2.376-1.44,3.6
		c-1.944,7.2-1.944,7.2-3.168,13.896c0.288,0,0.576,0.0719,0.864,0.144c0.36-0.288,0.72-0.576,1.08-0.864
		c1.944-5.976,1.944-5.976,3.8159-12.9601c0.7921-1.944,1.584-3.9599,2.4481-5.976c0.792-3.168,1.584-6.3361,2.376-9.576
		c0.648-1.728,1.296-3.528,1.944-5.3281c1.584-5.7599,3.168-11.5199,4.752-17.2799c0.6479-0.432,0.6479-0.432,2.592-0.576
		c1.152,0.936,1.152,0.936,1.512,1.584c0.144,1.872,0.288,3.816,0.504,5.7599c-0.288,0.432-0.72,4.3201-2.664,12.2401
		c-0.936,2.376-0.936,2.376-2.88,10.8c-3.816,11.232-4.824,13.392-5.76,16.56c-0.216,1.656-0.72,2.592-2.16,9.36
		c0,0.792,0,1.584-0.072,2.376c0.288-0.0721,0.576-0.216,0.936-0.36c0.72-1.08,1.44-2.16,2.232-3.24
		c0.648-1.728,1.296-3.456,1.944-5.256c3.816-7.704,4.824-9.144,13.464-26.424c0.432-3.024,0.936-6.048,1.44-9.144
		c0.288-1.08,0.576-2.16,0.936-3.312c1.944-3.384,1.944-3.384,3.024-4.608c0.72-0.144,0.72-0.144,1.656,0.36
		c0.36,0.864,0.36,0.864,1.08,11.6639c-0.648,4.392-1.296,8.7841-1.944,13.176c-1.224,2.8799-2.52,5.7599-3.816,8.64
		c-3.816,5.328-3.816,5.328-4.824,6.264c-3.816,6.48-3.816,6.48-7.632,13.68c-0.648,1.512-1.296,3.024-1.944,4.536
		c-0.504,2.88-0.504,2.88-0.36,3.744c0.36,0,0.792,0,1.224,0c0.504-0.288,1.08-0.648,1.656-1.008
		c0.648-0.72,1.2961-1.44,1.944-2.232c0.864-2.16,1.8-4.32,2.736-6.4799c1.944-2.376,1.944-2.376,7.704-10.8
		c1.872-3.24,3.816-6.5519,5.76-9.864c2.376-5.0401,2.88-5.472,5.256-10.08c0.648-0.864,1.296-1.728,1.944-2.592
		c1.152-1.0079,2.376-2.088,3.6-3.168c0.576,0,1.152-0.072,1.8-0.144c0.36,0.432,0.36,0.432,0.36,2.0881
		c-0.504,1.6559-0.72,5.76-1.44,9.8639c-1.008,3.8161-1.008,3.8161-1.944,6.1921c-1.44,2.448-1.44,2.448-3.384,5.04
		c-1.872,1.944-1.872,1.944-5.7599,6.984c-7.632,12.024-7.632,12.024-8.136,12.456c-1.368,2.448-2.736,4.968-4.104,7.488
		c-0.072,0.936-0.144,1.872-0.216,2.88c0.072,0.072,0.216,0.144,0.36,0.216c2.304-1.944,4.68-3.9601,7.056-5.976
		c2.16-2.448,3.384-3.384,7.2-7.92c7.7039-8.424,7.7039-8.424,9.648-11.088c1.152-1.0801,2.304-2.16,3.456-3.24
		c0.864-0.072,1.728-0.144,2.664-0.2161c0.7921,1.08,0.7921,1.08,1.08,2.0161c-0.072,1.296-0.144,2.592-0.288,3.888
		c-0.936,3.312-0.936,3.312-1.872,5.256c-4.104,4.104-4.608,5.0399-17.784,18c-4.104,4.536-4.104,4.536-7.704,9.36
		c0,0.36,0,0.792-0.072,1.224c2.664-0.864,4.536-1.872,7.2-2.808c5.256-4.824,5.256-4.824,6.696-5.76
		c0.936-1.08,1.872-2.232,2.88-3.384c1.08-0.576,2.232-1.224,3.384-1.872c0.648-0.792,1.296-1.656,1.944-2.52
		c0.576-1.152,1.152-2.376,1.728-3.6c1.944-2.16,1.944-2.16,3.312-3.024c0.576,0,1.224,0,1.8719,0c1.44,0.936,1.44,0.936,2.0161,1.8
		c-0.072,1.512-0.144,3.024-0.216,4.608c-0.288,0.864-0.576,1.728-0.936,2.592c-0.936,1.656-1.872,3.312-2.88,5.04
		c-1.944,1.944-1.944,1.944-2.448,2.88c0,0.288,0,0.648-0.072,1.008c3.024-1.224,6.048-2.448,9.144-3.744
		c0.36-0.288,0.72-0.648,1.152-1.008c0.432-0.072,0.936-0.144,1.44-0.216c0.3599,0.36,0.7919,0.72,1.2239,1.08
		c-0.576,2.088-1.152,4.176-1.8,6.264c-0.6479,1.08-1.296,2.232-1.944,3.384c-1.944,2.16-1.944,2.16-5.5439,5.256
		c0,0.288,0.072,0.576,0.144,0.936c1.584-0.4319,3.168-0.864,4.8241-1.296c0.864-0.576,1.728-1.152,2.6639-1.728
		c0.288,0,0.6481,0.072,1.008,0.144c-0.216,1.728-0.72,3.168-1.152,6.9839c-0.144,0.72-0.288,1.44-0.504,2.16
		c-0.6479,0.864-1.296,1.728-1.944,2.664c-2.952,1.728-2.952,1.728-7.272,3.672c-1.008,0.288-2.088,0.576-3.168,0.864
		c-0.072,0.216-0.144,0.432-0.216,0.72c1.008-0.216,2.088-0.432,3.168-0.648c3.312-0.144,6.696-0.288,10.0799-0.432
		c0.936,0.432,0.936,0.432,1.512,1.08c-0.072,0.36-0.144,0.792-0.216,1.224c-1.296,1.584-2.592,3.168-3.888,4.752
		c-0.144,0.36-0.288,0.792-0.432,1.224c-0.72,0.7921-1.512,1.584-2.304,2.376c-0.36,0.144-0.72,0.288-1.152,0.504
		c0.144,0.36,0.288,0.72,0.432,1.08c0.72,0.072,1.44,0.144,2.16,0.216c1.872-0.504,3.816-1.08,5.76-1.656c0.5759,0,1.152,0,1.728,0
		c0.72,0.432,0.72,0.432,1.152,1.08c0.144,1.224,0.144,1.224-0.144,2.88c2.088,0.792,2.088,0.792,3.528,1.8
		c0,0.648,0,1.2961,0.072,2.0161c-0.576,0.792-1.224,1.584-1.872,2.448c-0.6481,0.432-1.296,0.936-1.944,1.44
		c0,0.288,0.072,0.576,0.144,0.936c0.864,0.216,1.728,0.504,2.664,0.792c1.152,1.008,1.152,1.008,1.512,1.872
		c0,0.432,0,0.936,0,1.44c-0.288,0.432-0.576,0.936-0.936,1.44c-0.4321,0.2881-0.8641,0.576-1.368,0.936
		c-0.936,0.216-1.872,0.504-2.808,0.792c-1.224,0.72-2.448,1.512-3.744,2.304c0,0.288,0,0.648,0,1.008
		c0.576,0.288,0.576,0.288,6.84,1.008c1.224,0,2.52,0,3.816,0c0.36,0.288,0.7921,0.648,1.224,1.008c0,1.008,0,2.0161,0.072,3.024
		c-0.792,1.008-1.584,2.016-2.376,3.096c-0.072,0.36-0.144,0.792-0.216,1.224c1.0079,0,2.0159-0.072,3.024-0.144
		c0.576-0.792,1.224-1.584,1.872-2.448c1.368-1.224,2.736-2.52,4.104-3.816c5.5439-4.104,5.5439-4.104,15.336-10.8
		c3.8879-1.944,3.8879-1.944,7.704-4.32c2.376-2.16,2.376-2.16,7.704-5.976c2.016-2.376,4.104-4.752,6.192-7.2
		c0.288-0.504,0.576-1.008,0.864-1.584c0.432-0.36,0.864-0.72,1.2961-1.08c1.08-1.44,2.16-2.88,3.24-4.392
		c0.504-1.728,0.504-2.88,1.944-7.704c0.432-3.6,1.44-7.416,3.816-21.6c0-3.672,0-7.344,0-11.016
		c0.144-0.576,0.288-1.152,0.504-1.728c3.456-0.36,3.456-0.36,4.176-0.144c0.288,0.504,0.6479,1.008,1.0079,1.584
		c0.216,1.008,0.504,2.088,0.792,3.168c-0.072,2.52-0.1439,5.04-0.216,7.632c-2.16,19.44-2.16,21.888-2.664,25.488
		c-0.288,0.864-0.5759,1.728-0.936,2.592c-1.728,1.584-3.528,3.168-5.3279,4.824c-1.872,2.376-1.872,2.376-2.88,4.1039
		c-0.144,0.936-0.36,1.872-0.576,2.88c0.72-0.288,1.44-0.576,2.16-0.864c1.368-1.44,2.7361-2.88,4.1041-4.32
		c2.52-3.96,5.04-7.92,7.5599-11.88c2.2321-4.752,4.4641-9.576,6.696-14.4c0.288-0.36,0.576-0.792,0.936-1.224
		c0.936-2.232,1.8719-4.464,2.88-6.696c1.4399-5.76,1.4399-5.76,6.2639-20.664c1.0801-1.1519,1.0801-1.1519,3.384-2.5919
		c0.36,0,0.72-0.072,1.08-0.144c0.4319,0.36,0.864,0.72,1.296,1.0801c0.072,1.6559,0.144,3.312,0.216,5.0399
		c-1.2241,5.04-2.52,10.08-3.816,15.12c-1.944,5.04-1.944,5.04-3.816,11.016c-1.296,2.736-2.592,5.472-3.888,8.208
		c-0.936,1.584-1.872,3.168-2.88,4.752c-0.432,1.08-0.936,2.232-1.44,3.384c0,0.432,0,0.936-0.072,1.44
		c0.432-0.072,0.936-0.216,1.44-0.36c1.08-1.08,2.2321-2.16,3.384-3.24c1.872-2.664,3.816-6.048,10.08-15.048
		c0.72-0.648,1.44-1.296,2.16-2.016c1.8719-2.664,1.8719-2.664,4.752-5.976c2.8801-5.5439,3.744-6.696,4.176-7.92
		c1.008-0.936,1.008-0.936,2.88-4.104c0.72-0.72,1.512-1.44,2.304-2.16c0.432,0,0.936-0.072,1.44-0.144
		c0.144,0.216,0.288,0.432,0.504,0.648c0,0.648,0,1.296,0.072,1.944c-0.936,5.256-0.936,5.256-2.88,12.24
		c-1.224,2.736-2.52,5.544-3.816,8.3521c-1.44,1.944-1.944,3.384-2.8799,4.32c-3.816,6.4799-5.04,7.92-5.976,9.648
		c-1.008,1.008-2.016,2.016-3.024,3.096c-3.96,5.256-6.1201,7.416-7.056,8.856c0,0.216,0,0.432,0.072,0.72
		c2.016-1.224,4.032-2.52,6.12-3.816c10.08-7.704,10.584-8.424,15.408-12.24c1.44-1.224,2.8801-2.52,4.3201-3.816
		c2.0159-1.368,4.032-2.808,6.1199-4.248c0.648-0.072,1.296-0.144,1.944-0.216c0.144,0.144,0.288,0.36,0.432,0.576
		c0,0.72,0.072,1.44,0.144,2.16c-0.936,2.088-1.872,4.176-2.88,6.264c-2.16,2.16-3.528,3.096-9,8.424
		c-0.288,0.072-0.576,0.144-0.936,0.288c-2.376,1.872-4.752,3.816-7.2,5.76c-0.072,0.288-0.144,0.576-0.288,0.864
		c2.8801-0.864,2.8801-0.864,6.768-2.736c5.544-3.168,11.16-6.408,16.7761-9.648c0.432,0,0.936,0,1.4399,0
		c0.4321,0.648,0.864,1.368,1.296,2.088c0.072,0.648,0.144,1.296,0.216,1.944c-0.432,1.44-2.376,5.256-2.4481,6.192
		c1.0081,0.072,2.0161,0.216,3.0961,0.36c0.36,0.648,0.36,0.648,0.36,1.8c-0.6479,0.72-1.296,1.44-1.944,2.16
		c-2.52,1.872-5.112,3.816-7.7039,5.76c-0.0721,0.288-0.144,0.648-0.2161,1.008c0.072,0.072,0.2161,0.144,0.36,0.216
		c3.0961-0.936,6.192-1.872,9.36-2.808c0.576,0,1.152,0.072,1.8,0.144c-0.072,0.576-0.144,1.152-0.216,1.728
		c-1.008,1.152-1.44,2.16-4.608,5.76c0,0.216,0.072,0.504,0.144,0.792c1.296,0.288,2.592,0.576,3.888,0.936
		c0,0.432,0,0.864,0.072,1.368c-0.6479,0.792-1.296,1.584-2.016,2.376c-0.6479,0.432-1.296,0.936-1.944,1.44
		c0,0.288-0.072,0.648-0.144,1.008c0.2159,0.288,0.4319,0.576,0.72,0.936c0,0.288,0,0.576,0,0.936
		c-0.72,0.648-1.44,1.296-2.232,1.944c-1.008,0.504-2.016,1.08-3.024,1.656c0,0.216,0,0.432-0.072,0.72
		c0.432,0.072,0.936,0.216,1.44,0.36c0.432,0.432,0.864,0.864,1.296,1.368c-0.216,0.936-0.432,1.872-0.72,2.88
		c-0.6479,0.504-1.296,1.08-1.944,1.656c0,0.648,0,1.296,0,1.944c-0.144,0.36-0.288,0.72-0.504,1.152
		c-1.296,1.008-2.232,1.2961-2.736,1.728c-0.1439,0.936,0.144,1.44,0.144,2.88c-0.144,0.288-0.288,0.576-0.504,0.936
		c-1.8,1.08-3.6721,2.232-5.5441,3.384c0,0.288,0.072,0.576,0.144,0.936c1.8,0.936,1.8,0.936,2.304,1.656c0,0.216,0,0.432,0,0.72
		c-0.36,0.432-0.72,0.936-1.08,1.44c-1.44,0.864-1.44,0.864-6.984,2.664c-0.36,0.72-0.72,1.44-1.08,2.16
		c-1.296,0.7921-1.296,0.7921-7.056,2.664c0,0.288,0,0.576,0.0721,0.936c1.152,0.792,1.152,0.792,4.032,1.8
		c0.792,1.8,0.792,1.8,1.512,2.736c-0.072,0.72-0.144,1.44-0.216,2.16c-0.144,0.216-0.288,0.4319-0.504,0.72
		c-0.936,0.288-1.944,0.576-2.952,0.864c-2.16,0-4.32,0.072-6.48,0.144c0.072,0.432,0.144,0.936,0.288,1.44
		c0.432,0.36,0.936,0.72,1.4401,1.152c0.5759,0.936,1.152,1.872,1.728,2.88c0,0.432,0,0.936,0,1.44
		c-0.576,0.576-1.152,1.152-1.8,1.728c-0.936,0-1.872,0-2.88,0c0,1.224,0,2.5201,0.072,3.816c-0.4319,0.36-0.864,0.792-1.296,1.224
		c-1.872,0.792-1.872,0.792-3.312,1.008c-1.08,1.296-2.16,2.664-3.312,4.032c-0.072,1.08-0.144,2.16-0.216,3.312
		c-0.432,0.288-0.864,0.576-1.296,0.864c-1.08,0.288-2.2321,0.576-3.384,0.864c-0.288,0.936-0.576,1.872-0.864,2.88
		c-0.36,0.288-0.72,0.576-1.0801,0.936c-1.728,0.072-3.456,0.144-5.256,0.216c0.072,0.288,0.2161,0.648,0.36,1.008
		c1.08,0.504,2.2321,1.08,3.384,1.656c0,0.648,0,1.296,0,1.944c-0.288,0.432-0.576,0.864-0.864,1.296
		c-2.16,0.936-2.16,0.936-4.536,1.584c0.072,0.72,0.576,1.152,1.296,3.6c-0.072,0.288-0.144,0.576-0.216,0.936
		c-0.576,0.504-1.152,1.008-1.8,1.512c-1.224-0.072-2.52-0.144-3.816-0.216c-0.72-0.504-0.72-0.504-3.384-1.224
		c-0.504,0-1.08,0.072-1.656,0.144c-0.4319,0.36-0.936,0.792-1.44,1.224c-0.288,1.512-0.576,3.024-0.864,4.536
		c-0.144,0.072-0.36,0.216-0.576,0.36c-1.152,0-2.376-0.072-3.6-0.144c-0.288,0.576-0.576,1.152-0.864,1.728
		c-0.36,0.216-0.72,0.504-1.08,0.792c-1.08,0.144-2.2321,0.288-3.384,0.432c-0.072,0.432-0.216,0.936-0.36,1.44
		c-1.08,1.152-1.08,1.152-2.016,1.512c-1.08,0-2.2321,0.072-3.384,0.144c0.36,1.224,0.864,1.656,1.08,3.096
		c-2.016,2.664-2.016,2.664-2.736,3.024c-0.72,0.072-1.44,0.144-2.16,0.216c-0.648-0.144-1.296-0.288-1.944-0.504
		c-0.36-0.288-0.72-0.576-1.152-0.936c-0.576-1.08-1.224-2.16-1.872-3.24c-0.288-0.0721-0.6479-0.144-1.008-0.216
		c0,1.944-0.072,3.96-0.144,5.976c-0.648,0.72-1.296,1.44-1.944,2.16c-0.504,1.224-0.504,1.224-0.504,2.448
		c0.36,1.584,0.7921,3.168,1.224,4.752c-0.3599,0.36-0.72,0.792-1.08,1.224c-0.864,0-1.728,0-2.592,0.072
		c-1.0081-0.432-1.0081-0.432-5.544-0.936c-5.976-2.376-5.976-2.376-7.2-2.52c0.216,1.728,0.504,3.528,0.792,5.328
		c1.512,1.512,3.096,3.024,4.68,4.536c0.936,0.576,1.944,1.152,2.952,1.8c1.08,0.936,2.16,1.8719,3.312,2.88
		c3.024,1.944,6.048,3.888,9.144,5.832c2.376,2.088,2.376,2.088,5.04,3.96c3.384,1.944,3.816,2.448,5.04,2.88
		c10.296,7.704,10.296,7.704,19.44,13.968c0.504,0.072,1.08,0.144,1.656,0.216c0.4319-0.216,0.936-0.432,1.44-0.72
		c1.08,0.072,2.2319,0.144,3.384,0.216c2.448,0.936,4.896,1.872,7.416,2.88c1.728,1.44,2.6641,2.808,4.1041,3.888
		c1.944,2.16,3.384,3.24,9.36,10.152c0.576,0.792,1.152,1.584,1.8,2.448c0.288,1.8,0.576,3.672,0.936,5.544
		c1.44,3.312,1.944,3.816,2.376,5.256c0,0.36,0,0.792,0,1.224c-0.432,0.432-0.432,0.432-1.728,0.576
		c-2.16-1.008-2.16-1.008-5.04-1.944c-2.088-1.224-4.176-2.52-6.264-3.816c-1.44-1.08-2.88-2.232-4.3201-3.384
		c-1.1519-0.36-2.376-0.792-3.6-1.224c-1.44,0-2.952,0.072-4.464,0.144c0,0.288,0,0.648,0,1.008c0.648,0.72,1.296,1.44,1.944,2.16
		c0.576,0.36,1.224,0.72,1.872,1.152c-0.216,1.224-0.216,1.224-0.576,1.584c-0.432,0-0.936,0-1.44,0
		c-0.504-0.288-1.08-0.648-1.656-1.008c-2.304-0.432-4.608-0.936-6.9839-1.44c-5.04-1.872-5.04-1.872-7.416-2.376
		c-0.936-0.072-1.872-0.144-2.88-0.216c-6.696,0.936-6.696,0.936-7.2,1.296c0.504,0.36,1.008,0.792,1.512,1.224
		c0,1.008,0,2.016,0,3.096c0.288,0.36,0.6481,0.792,1.0081,1.224c0.288,1.584,0.576,3.168,0.936,4.824
		c0.288,0.72,0.576,1.44,0.936,2.16c0.576,0.576,1.152,1.224,1.728,1.872c1.872,4.104,1.872,4.104,2.376,5.76
		c0,0.432,0,0.936,0,1.44c-0.144,0.144-0.288,0.288-0.504,0.504c-1.728,0.072-1.728,0.072-4.608-0.36
		c-0.6481-0.36-1.296-0.792-1.944-1.224c-0.72,0-1.44,0.072-2.16,0.144c-0.288,0.792-0.576,1.584-0.864,2.376
		c0.216,2.664,0.216,2.664,0.72,3.888c0,1.008,0,2.016,0,3.096C308.808,375.624,308.808,375.624,307.152,375.624L307.152,375.624z
		 M312.192,360c-0.864-0.648-1.728-1.296-2.664-1.944c-6.48-1.872-6.48-1.872-8.856-2.88c-1.224-0.936-1.224-0.936-1.728-1.656
		c0-0.216-0.072-0.504-0.144-0.792c0.648-0.36,1.368-0.72,2.088-1.152c1.224,0,2.52,0,3.816,0c5.04,1.008,5.04,1.008,5.616,1.368
		c0.72,2.232,1.4399,4.464,2.16,6.696C312.408,359.712,312.336,359.856,312.192,360L312.192,360z M282.888,354.456
		c-2.664-0.936-2.664-0.936-4.104-1.872c-0.576-0.792-1.152-1.656-1.8-2.52c-0.3599-1.008-0.7919-2.016-1.224-3.096
		c-0.1439-1.296-0.3599-2.592-0.5759-3.888c0.216,0,0.432,0.072,0.72,0.144c0.648,1.08,1.296,2.16,1.944,3.312
		c1.584,2.016,3.168,4.032,4.824,6.048c2.16,0.936,3.6,1.152,4.032,1.512c-0.072,0.072-0.144,0.216-0.216,0.36
		C285.336,354.456,284.112,354.456,282.888,354.456L282.888,354.456z M307.152,349.416c-1.08-0.216-2.232-0.432-3.384-0.72
		c-2.88,0-2.88,0-6.696-0.432c-1.2239-0.36-2.4479-0.72-3.6719-1.08c-0.072-0.216-0.144-0.432-0.216-0.72
		c1.656,0.36,3.312,0.72,5.04,1.08c3.24,0.144,6.552,0.288,9.864,0.432c0.144,0.144,0.36,0.288,0.576,0.432
		c0,0.288,0,0.648-0.072,1.008C308.16,349.416,307.656,349.416,307.152,349.416L307.152,349.416z M301.824,345.384
		c-3.672-0.648-7.344-1.296-11.016-1.944c-1.44-0.432-2.88-0.936-4.32-1.44c-1.584-1.584-3.168-3.24-4.824-4.896
		c0-0.288-0.072-0.576-0.144-0.936c0.36-0.144,0.72-0.288,1.152-0.432c2.592,0,2.592,0,5.472,0.504
		c4.824,1.944,4.824,1.944,8.208,3.816c0.432,0.504,0.432,0.504,8.136,4.824C304.272,345.096,304.272,345.096,301.824,345.384
		L301.824,345.384z M329.688,344.664c-5.976-2.16-9.144-2.88-10.8-3.6c-3.816-4.608-3.816-4.608-5.76-6.48
		c-1.728-1.368-3.456-2.736-5.256-4.104c-3.384-1.944-3.384-1.944-6.768-3.384c-2.592-0.432-2.592-0.432-3.816-0.936
		c-1.2239-0.936-1.2239-0.936-5.5439-5.976c-3.096,0-6.192,0-9.36,0c-5.7599,0.936-5.7599,0.936-6.12,1.296
		c0.072,0.4319,0.144,0.936,0.216,1.44c6.192,3.744,6.192,3.744,8.064,5.256c0.432,0.792,0.936,1.584,1.44,2.448
		c-0.072,0.072-0.1439,0.216-0.2159,0.36c-2.4481-0.144-4.896-0.288-7.416-0.504c-1.008-1.296-4.752-8.712-10.944-19.08
		c0-0.936,0-0.936,0.432-1.44c1.8719-0.144,1.8719-0.144,6.192,0.36c2.232,0.648,4.4641,1.296,6.696,1.944
		c4.32,1.872,4.32,1.872,15.1201,7.632c1.728,1.152,3.456,2.376,5.256,3.6c0.36,0,0.792,0,1.224,0
		c0.504-0.576,0.504-0.576,0.576-1.512c-0.72-0.576-1.44-1.152-2.232-1.8c-3.888-2.232-7.848-4.464-11.808-6.768
		c-2.376-0.936-5.976-2.88-8.352-3.816c-4.1039-0.936-5.04-1.44-7.488-1.944c-4.536-0.432-4.536-0.432-9.36-0.432
		c-6.48,1.872-12.96,3.816-19.44,5.76c-0.936,0.072-1.872,0.144-2.88,0.216c-0.288-0.432-0.576-0.864-0.864-1.2961
		c0.0721-0.936,0.144-1.872,0.288-2.88c-0.288-0.36-0.576-0.72-0.864-1.08c-1.44,0.216-1.44,0.216-2.376,0.72
		c-1.8,5.184-1.8,5.184-2.304,5.904c-0.648,0.144-1.296,0.36-2.016,0.576c-0.792,0-1.584,0-2.376,0
		c-0.144-0.216-0.2881-0.432-0.504-0.648c0-0.648-0.072-1.368-0.144-2.088c0.432-0.72,0.936-1.44,1.44-2.16
		c0.288-1.152,0.576-2.376,0.936-3.6c0-3.168,0-3.168-0.432-5.328c-0.072-0.144-0.216-0.36-0.36-0.576
		c-0.36-0.072-0.792-0.144-1.224-0.288c-0.288,0.36-0.576,0.72-0.864,1.152c-0.432,3.816-0.432,3.816-1.44,7.92
		c-0.288,0.432-0.576,0.936-0.936,1.44c-1.008,0.576-2.016,1.224-3.096,1.872c-1.008,1.44-1.008,1.44-1.296,2.304
		c-9.36-0.72-9.36-0.72-9.648-1.008c-3.096-0.432-3.096-0.432-4.032-0.792c-0.144-0.288-0.288-0.648-0.504-1.008
		c0-1.872-0.072-3.744-0.144-5.688c0.504-1.44,0.504-1.44,0.72-3.6c-0.144-0.288-0.288-0.648-0.504-1.008
		c-0.648,0-1.296-0.0721-2.016-0.144c-0.288,0.432-0.576,0.864-0.864,1.368c-1.872,6.9839-1.872,6.9839-2.376,7.7039
		c-0.576,0.504-1.152,1.008-1.8,1.5121c-1.44,0.288-2.88,0.576-4.32,0.936c-0.072,0.144-0.216,0.288-0.36,0.432
		c0.072,0.864,0.144,1.728,0.216,2.592c0.864,0.648,1.728,1.296,2.664,1.944c3.168,1.512,6.336,3.096,9.504,4.68
		c0.936,0.144,1.872,0.288,2.88,0.432c2.16,1.008,2.16,1.008,4.104,2.448c0.72,0.936,1.44,1.944,2.16,2.952
		c-0.288,0.36-0.288,0.36-1.008,0.36c-2.16-0.936-3.6-1.152-12.96-5.04c-1.656-0.936-3.312-1.872-5.04-2.88
		c-0.864-0.288-1.728-0.576-2.592-0.936c-3.384-2.88-3.384-2.88-6.984-6.696c-0.864-1.8-3.024-4.4641-4.968-8.28
		c-0.576-1.5121-1.224-3.024-1.872-4.536c-0.576-0.288-1.152-0.576-1.8-0.864c-0.648,0.072-1.296,0.144-1.944,0.216
		c-0.288,0.432-0.576,0.864-0.936,1.296c-0.864,2.952-0.864,2.952-1.224,3.168c-0.864-0.7921-1.8-1.584-2.736-2.376
		c-1.008-3.168-1.008-3.168-1.944-7.704c0-1.152,0-2.376,0-3.6c-0.288-1.368-0.576-2.736-0.936-4.104
		c-0.36-0.504-0.792-1.08-1.224-1.656c-0.792-0.144-0.792-0.144-1.8,0.36c-1.872,2.5201-1.872,2.5201-3.024,4.68
		c-0.144,2.16-0.288,4.32-0.432,6.48c-0.288,0.36-0.576,0.792-0.864,1.224c-0.576-0.432-1.152-0.936-1.8-1.44
		c-0.648-2.808-1.296-5.616-1.944-8.424c-0.144-2.448-0.288-4.8961-0.432-7.416c-0.216-0.576-0.432-1.152-0.648-1.728
		c-0.6479,0-1.368-0.072-2.088-0.144c-0.576,0.72-1.224,1.512-1.872,2.304c-0.432,2.664-0.432,5.76-0.936,7.704
		c-0.36,0-0.72,0-1.08,0.072c-1.152-0.936-2.376-1.872-3.6-2.88c-0.288-0.504-0.576-1.008-0.864-1.512
		c-0.432-2.16-0.432-2.16-0.936-8.424c-0.936-1.872-0.936-1.872-2.232-3.456c-0.648,0.072-1.296,0.144-1.944,0.216
		c-1.368,1.008-2.736,2.016-4.104,3.096c-0.216,0-0.432,0-0.72-0.072c-0.288-0.432-0.576-0.936-0.864-1.44
		c-0.288-2.376-0.576-4.752-0.936-7.2c-0.936-1.44-0.936-1.44-2.664-3.096c-0.288,0-0.648-0.072-1.008-0.144
		c-0.288,0.144-0.648,0.36-1.008,0.576c-1.296,3.6-1.296,3.6-1.8,4.104c-0.576,0-1.152,0-1.8,0.072
		c-2.16-1.872-2.592-2.592-7.2-6.552c-0.432-0.72-0.936-1.44-1.44-2.16c-0.072-0.36-0.144-0.792-0.216-1.224
		c2.376,0.144,3.096,0.576,4.32,0.576c0.504-0.576,0.504-0.576,0.576-1.728c-0.504-0.72-0.504-0.72-1.656-4.32
		c0.072-1.008,0.144-2.088,0.216-3.168c0.504-0.504,1.008-1.0081,1.584-1.584c0.72-0.216,1.44-0.432,2.16-0.72
		c1.8-0.144,3.672-0.288,5.544-0.432c0.216-0.144,0.432-0.288,0.72-0.504c0.432,0,0.936,0,1.44-0.072c0,1.008,0,2.016,0.072,3.096
		c0.432,0.504,0.936,1.08,1.44,1.656c0.648,0,1.368,0.072,2.088,0.144c2.16-2.16,4.032-4.608,5.76-6.048
		c0.504,0,1.008,0.072,1.512,0.144c0.936,1.44,0.936,1.44,2.088,2.304c0.504,0.0721,1.08,0.144,1.656,0.216
		c0.432-0.288,0.936-0.576,1.44-0.936c0.648-0.864,1.296-1.728,1.944-2.664c0.504,0,1.08,0,1.656,0
		c0.936,0.504,0.936,0.504,5.544,1.44c1.584,0,3.168,0,4.752,0c0.576-0.288,1.152-0.576,1.728-0.936
		c0.72-0.648,1.44-1.368,2.16-2.088c0.792-1.872,0.792-1.872,1.296-4.968c-0.144-5.256-0.288-10.512-0.504-15.84
		c-0.9359-6.2639-0.9359-6.2639-1.6559-14.4c-0.144-0.144-0.2881-0.288-0.5041-0.504c0.216-4.752,0.432-9.576,0.72-14.4
		c-0.2159-13.896-0.2159-13.896-0.504-15.12c-0.072-1.44-0.144-2.88-0.216-4.32c-0.288-0.504-0.576-1.08-0.936-1.656
		c0-0.576,0-1.152,0-1.728c-2.448-10.08-2.448-10.08-3.384-15.84c0.072-1.8,0.144-3.6,0.216-5.472
		c0.504-1.44,0.72-4.824,1.008-5.544c0.216-14.904,0.432-16.056,0.432-23.04c-0.936-7.92-0.936-7.92-1.44-10.296
		c-0.432-11.808-0.216-13.968-0.432-28.584c0.144-0.936,0.288-1.872,0.432-2.88c0.288,0,0.576-0.072,0.864-0.144
		c0.504,1.512,1.008,3.0959,1.584,4.68c0,3.024,0,6.048,0,9.144c-0.144,1.08-0.288,2.2321-0.504,3.384
		c-0.072,5.904-0.144,11.808-0.216,17.712c0.936,2.88,0.936,2.88,1.512,3.6c0.288,0,0.648,0.072,1.008,0.144
		c0.72-0.504,0.72-0.504,2.016-2.304c0.36-1.08,0.7921-2.16,1.224-3.312c0.144-1.368,0.288-2.736,0.432-4.104
		c2.88-3.384,2.88-3.384,3.888-5.04c0.432-1.44,0.432-1.44,3.312-6.264c0.216-0.144,0.432-0.288,0.72-0.432
		c1.944-3.024,3.888-6.0481,5.904-9.144c0.792-0.432,1.584-0.864,2.448-1.368c0.72,0,1.44,0,2.16,0
		c0.432,0.504,0.432,0.504,0.792,2.088c-0.072,0.792-0.144,1.584-0.216,2.376c-0.936,2.0161-1.872,4.0321-2.88,6.0481
		c-0.288,0.36-0.648,0.72-1.008,1.152c-0.576,1.44-1.224,2.88-1.872,4.32c-0.648,0.792-1.296,1.584-1.944,2.448
		c-1.296,0.576-2.592,1.152-3.96,1.728c-1.44,1.44-1.44,1.44-1.8,2.304c-0.144,2.16-0.288,4.32-0.504,6.48
		c-1.872,6.264-1.872,6.264-2.376,7.2c0,0.576,0,1.152,0,1.728c0.144,0.216,0.288,0.432,0.504,0.72c0.432,0,0.864,0,1.296,0.072
		c0.936-1.296,1.872-2.592,2.88-3.96c0.864-2.88,0.864-2.88,1.8-4.752c0.936-1.224,0.936-1.224,2.088-2.088c0.36,0,0.72,0,1.152,0
		c0.288,0.432,0.576,0.864,0.864,1.368c0,1.656,0,3.312,0,5.04c-0.504,2.376-0.504,2.376-0.72,5.976
		c0.288,0.432,0.576,0.864,0.864,1.296c0.432,0,0.936,0,1.44,0c3.096-3.096,4.032-4.536,6.192-6.48
		c0.576-0.288,1.152-0.576,1.728-0.936c0.288,0,0.6479,0.0721,1.008,0.144c0.144,1.728,0.288,3.456,0.504,5.256
		c-3.816,6.4799-3.816,6.4799-5.04,8.136c0,0.504,0.072,1.008,0.144,1.584c0.36,0,0.792,0,1.224,0
		c0.576-0.792,1.224-1.584,1.872-2.448c1.512-1.296,3.024-2.664,4.608-4.032c1.872-2.304,1.872-2.304,3.096-4.32
		c0.36,0,0.72,0.072,1.08,0.144c0.144,2.16,0.288,4.32,0.432,6.48c-0.144,0.432-0.288,0.936-0.432,1.44
		c0.216,1.656,0.216,1.656,0.576,2.0161c0.36,0,0.792,0,1.224,0c2.16-2.16,2.16-2.16,3.6-3.168c0.288,0,0.576,0,0.936,0
		c0.504,0.6479,0.504,0.6479,0.576,1.584c-0.36,1.872-0.72,3.816-1.152,5.76c0.072,0.144,0.216,0.36,0.36,0.576
		c0.36,0.072,0.792,0.144,1.224,0.288c0.432-0.288,0.936-0.6479,1.44-1.008c1.152-1.296,2.304-2.592,3.456-3.888
		c0.432-1.224,0.432-1.224,0.936-1.728c0.288-1.44,0.576-2.88,0.936-4.32c0.288-0.576,0.648-1.224,1.008-1.872
		c0.432-0.288,0.864-0.576,1.296-0.864c1.728,0.216,1.728,0.216,1.944,0.576c-0.288,0.792-0.576,1.584-0.864,2.448
		c-0.072,1.296-0.144,2.664-0.216,4.032c-1.944,2.448-1.944,2.448-3.888,5.544c-0.288,0.792-0.576,1.584-0.936,2.376
		c-1.944,2.448-1.944,2.448-2.376,3.384c-0.504,2.376-0.504,2.376-1.008,3.096c-0.648,0.144-1.296,0.36-2.016,0.576
		c-1.152,0.6479-2.376,1.296-3.6,1.944c-3.816,2.52-7.632,5.112-11.5201,7.7039c-1.44,1.368-2.88,2.7361-4.3199,4.176
		c-0.936,1.368-1.872,2.736-2.88,4.104c0,0.288-0.072,0.576-0.144,0.936c0.432,0,0.864,0.072,1.368,0.144
		c1.44-1.512,2.88-3.024,4.32-4.608c4.824-3.816,4.824-3.816,8.856-7.632c6.264-3.888,6.264-3.888,10.08-5.7599
		c3.888-1.008,3.888-1.008,4.608-1.44c0.072-0.72,0.144-1.512,0.288-2.304c0.36-0.36,0.72-0.72,1.08-1.152
		c0.288-0.072,0.648-0.144,1.008-0.288c0.072,0.36,0.216,0.792,0.36,1.224c0.576,0.36,0.576,0.36,1.584,0.36
		c1.152-0.648,2.376-1.296,3.6-1.944c0.432,0,0.864,0.072,1.296,0.144c-0.216,0.936-0.432,1.872-0.72,2.8799
		c-0.648,0.72-1.296,1.44-1.944,2.16c-1.584,1.224-3.24,2.448-4.896,3.672c-8.856,8.208-8.856,8.208-13.896,12.528
		c-1.152,0.72-2.376,1.44-3.6,2.16c-0.648,0.072-1.296,0.144-1.944,0.216c-1.44,1.872-2.88,3.744-4.32,5.616
		c-0.144,1.008-0.144,1.008,0.216,1.584c1.7281,0.216,1.944,0,4.104,0.216c1.8-2.232,1.8-2.232,4.32-4.752
		c1.44-1.008,3.6-3.4561,7.992-7.344c1.296-0.864,2.592-1.728,3.888-2.592c0.144-0.648,0.288-1.2961,0.432-1.944
		c5.904-3.816,5.904-3.816,8.352-5.688c0.72-0.216,1.44-0.432,2.16-0.72c1.512,0.072,3.024,0.144,4.536,0.288
		c0.648,0.432,1.296,0.936,1.944,1.44c0,0.504,0,1.008,0.072,1.584c-1.08,0.792-1.08,0.792-8.496,4.608
		c-0.36,0.36-0.792,0.792-1.224,1.224c-3.6,2.376-7.2,4.752-10.8,7.2c-3.456,2.664-6.912,5.328-10.44,8.064c0,0.216,0,0.432,0,0.72
		c0.36,0.216,0.72,0.432,1.08,0.72c5.4-3.816,5.4-3.816,6.336-4.824c6.192-4.104,12.384-8.208,18.648-12.384
		c1.08-0.288,2.232-0.576,3.384-0.936c1.728,0,3.456,0,5.256,0c0.432,0.144,0.936,0.288,1.44,0.504c0,0.36,0,0.72,0.072,1.08
		c-0.72,0.648-1.44,1.296-2.16,1.944c-2.9521,1.872-5.904,3.744-8.928,5.616c-0.144,0.216-0.288,0.432-0.504,0.72
		c-7.2,3.816-7.2,3.816-10.08,5.7599c-9.576,7.92-9.576,7.92-10.584,8.352c-1.872,1.44-5.76,5.328-8.136,7.2
		c-0.288,0.432-0.576,0.864-0.936,1.368c0.144,0.216,0.288,0.504,0.4319,0.792c0.432,0,0.936,0,1.44,0
		c4.608-3.816,4.608-3.816,6.768-5.976c3.312-2.5201,6.696-5.112,10.08-7.704c3.024-1.872,6.048-3.816,9.072-5.76
		c4.608-1.872,4.608-1.872,6.984-2.376c5.04-0.504,5.04-0.504,8.136-0.504c1.008,0.504,1.008,0.504,1.224,0.864
		c-0.792,0.504-1.584,1.008-2.376,1.584c-1.728,0.576-3.528,1.224-5.328,1.872c-8.64,3.888-18.4319,7.704-23.76,10.08
		c-0.216,0.36-0.432,0.72-0.72,1.08c0.144,0.288,0.288,0.576,0.504,0.864c0.648,0,1.296,0,1.944,0
		c1.728-0.864,3.456-1.728,5.256-2.664c11.304-3.816,11.304-3.816,14.184-5.04c1.224-0.288,2.52-0.576,3.816-0.936
		c2.52-0.288,5.112-0.576,7.704-0.936c0.864,0.0721,1.728,0.144,2.592,0.216c0.144,0.144,0.288,0.36,0.504,0.576
		c-0.144,0.216-0.288,0.432-0.504,0.648c-12.456,3.312-13.392,3.816-16.56,4.752c-2.16,1.008-4.032,1.44-5.76,2.448
		c-1.44,0.432-4.752,2.376-13.68,6.192c-1.296,0.72-2.592,1.512-3.9601,2.304c0,0.576,0.0721,1.1519,0.144,1.8
		c0.72,0.072,1.44,0.144,2.16,0.216c2.16-0.936,4.32-1.872,6.48-2.88c3.24-0.864,6.552-1.728,9.864-2.592
		c2.376-0.792,4.752-1.584,7.2-2.448c1.08-0.144,2.16-0.288,3.312-0.432c2.088-0.576,4.176-1.152,6.264-1.728
		c0.72,0,1.44,0.072,2.16,0.144c1.44,1.08,1.44,1.08,3.384,2.016c0,0.36,0,0.72,0.072,1.152c-1.44,0.216-2.88,0.504-4.392,0.792
		c-9.144,3.816-9.864,4.32-10.8,4.464c0,0.432-0.072,0.936-0.144,1.44c0.144,0.072,0.36,0.216,0.576,0.36
		c3.384-0.72,3.384-0.72,9.648-2.664c1.8,0,3.6,0,5.472,0c1.008,0.288,2.088,0.576,3.168,0.936c0.216,0.36,0.504,0.72,0.792,1.152
		c0,0.432,0,0.936,0,1.44c-0.864,0.576-1.8,1.224-2.736,1.872c-2.952,0.648-5.904,1.296-8.856,2.016
		c-0.216,0.144-0.432,0.288-0.72,0.504c-5.04,0.936-5.328,1.224-8.208,1.656c-5.256,1.944-5.256,1.944-9.072,3.888
		c-1.224,0.936-5.544,2.8799-11.304,6.192c-0.36,0.432-0.36,0.432-0.36,1.152c0.36,0.216,0.72,0.432,1.08,0.72
		c3.096-1.872,9.864-5.1841,10.296-5.688c4.608-1.944,4.608-1.944,10.08-3.816c3.888-0.72,7.848-1.44,11.808-2.16
		c2.304,0.072,4.608,0.144,6.912,0.216c1.44,0.288,2.88,0.576,4.32,0.936c0.432,0.288,0.864,0.576,1.2961,0.864
		c0,1.008,0,1.008-0.288,1.296c-2.88,0.504-2.88,0.504-4.608,1.224c-11.232,0.504-11.232,0.504-20.88,1.44
		c-3.6,0.936-3.6,0.936-4.176,1.368c0,0.288,0,0.576,0,0.936c0.36,0.144,0.72,0.36,1.08,0.576c1.224-0.072,2.52-0.144,3.816-0.216
		c3.312-0.576,6.696-1.152,10.08-1.728c6.48,0,6.48,0,16.848,0.72c2.592,1.008,2.592,1.008,4.032,2.088
		c0.1439,0.216,0.288,0.432,0.504,0.72c0,0.504,0,1.08,0.072,1.656c-0.6479,0.432-1.296,0.864-2.0159,1.296
		c-1.656,0.288-1.656,0.288-3.816,0.288c-3.6-1.008-6.984-1.44-8.64-1.944c-2.232-0.144-4.464-0.288-6.696-0.504
		c-10.08,0.72-10.08,0.72-26.424,2.664c-0.72,0.144-1.44,0.288-2.16,0.504c-0.36,0.288-0.72,0.576-1.08,0.864
		c0,0.216,0,0.432,0.072,0.72c0.216,0.0721,0.504,0.144,0.792,0.288c4.392-0.504,8.784-1.08,13.176-1.656
		c5.184-0.144,10.368-0.288,15.624-0.504c2.448,0.216,4.896,0.432,7.416,0.72c2.376,0.432,4.752,0.936,7.2,1.44
		c0.432,0.288,0.936,0.648,1.44,1.008c5.256,1.44,5.256,1.44,5.544,1.8c-0.36,0.36-0.7919,0.72-1.2239,1.08
		c-0.8641,0.144-1.728,0.288-2.664,0.432c-0.936,0.576-1.872,1.152-2.88,1.728c-0.576,0.072-1.224,0.144-1.872,0.216
		c-0.936-0.432-1.872-0.936-2.88-1.44c-2.808-0.432-5.616-0.936-8.424-1.44c-2.448,0.072-4.896,0.144-7.416,0.216
		c-0.36,0.288-0.72,0.576-1.152,0.864c0,0.288,0,0.648,0,1.008c0.432,0.288,0.432,0.288,7.128,0.072
		c0.72-0.504,0.72-0.504,1.44-0.576c0,0.216,0,0.432,0,0.72c2.52,0.432,5.112,0.864,7.704,1.296
		c0.216,0.216,0.432,0.432,0.648,0.648c0.36,1.656,0.36,1.656,0.864,2.16c2.52,0.792,8.784,1.728,12.888,2.736
		c0.216,0.36,0.216,0.36,0,0.72c-1.656,0.288-3.312,0.576-5.04,0.936c-0.576,0.288-1.152,0.576-1.728,0.936
		c-0.432,0.576-0.936,1.152-1.44,1.728c0,0.432-0.072,0.864-0.144,1.296c0.144,0.216,0.288,0.432,0.504,0.72
		c1.8,0.864,3.528,1.296,4.464,1.8c0,0.288,0,0.576,0.072,0.864c-0.72,0.576-1.44,1.152-2.232,1.8
		c-1.944,0.432-1.944,0.432-2.304,0.864c0.072,0.432,0.144,0.936,0.216,1.44c1.08,0.288,2.16,0.648,3.312,1.008
		c0.36,0.288,0.72,0.648,1.152,1.008c0.864,0,1.728,0,2.6639,0c0.936,0.288,1.872,0.576,2.88,0.936c0.432,0.36,0.936,0.72,1.44,1.08
		c-0.936,0.6479-1.872,1.296-2.88,2.016c-1.08,0.144-2.2319,0.288-3.384,0.504c-1.656-0.216-1.656-0.216-3.096-0.72
		c-0.432-0.288-0.936-0.576-1.44-0.936c-1.656-2.016-3.312-4.032-5.04-6.048c-2.16-1.872-2.16-1.872-5.04-3.816
		c-2.304-0.648-4.608-1.2961-6.984-1.944c-0.936-0.072-1.872-0.144-2.88-0.216c-0.288,0.144-0.576,0.288-0.936,0.504
		c0,0.288-0.072,0.576-0.144,0.864c0.432,0.432,0.936,0.936,1.44,1.44c0,0.216,0,0.432,0,0.72c-0.432,0.72-0.936,1.44-1.44,2.16
		c0,0.792,0,1.584,0,2.376c0.504,1.224,0.504,1.224,2.376,3.6c2.088,0.792,2.088,0.792,12.888,3.672
		c0.36,0.36,0.7921,0.72,1.224,1.08c-0.288,0.36-0.288,0.36-1.224,0.648c-2.952-0.216-5.904-0.432-8.856-0.72
		c-7.2-1.944-7.2-1.944-20.16-4.824c-5.472-0.648-11.016-1.296-16.56-1.944c-2.808-0.144-5.616-0.288-8.424-0.432
		c-0.504,0.432-0.504,0.432-0.648,1.2961c1.368,0.864,1.368,0.864,2.808,1.296c5.472,0.288,11.016,0.648,16.56,1.008
		c2.664,0.36,5.4,0.72,8.136,1.152c2.376,0.648,4.752,1.296,7.2,1.944c3.888,1.872,7.848,3.816,11.808,5.76
		c0.36,0.288,0.72,0.576,1.152,0.936c0.072,1.44,0.216,2.952,0.36,4.464c0.288,0.432,0.576,0.936,0.936,1.44
		c0,0.288,0,0.576-0.072,0.864c-1.224,0-1.224,0-2.376-0.504c-0.432,0.072-0.936,0.216-1.44,0.36c0,0.36-0.072,0.792-0.144,1.224
		c0.288,0.36,0.576,0.792,0.936,1.224c1.728,0.936,3.4561,1.872,5.184,2.808c0.288,0.36,0.576,0.792,0.936,1.224
		c-0.072,0.072-0.144,0.216-0.216,0.36c-1.08-0.072-2.232-0.144-3.384-0.216c-4.752-1.944-8.136-3.888-10.296-4.824
		c-1.44-0.288-2.88-0.576-4.32-0.936c-1.944-1.008-1.944-1.008-3.384-1.44c-1.44-0.144-2.88-0.288-4.32-0.504
		c-2.592,0.504-2.592,0.504-4.536,0.504c-1.224-0.648-2.52-1.296-3.816-1.944c-2.808-0.936-5.616-1.8719-8.424-2.88
		c-4.536-0.936-4.536-0.936-9.36-2.376c-4.752-2.2321-9.576-4.464-14.4-6.768c-1.944-1.872-1.944-1.872-2.88-3.312
		c-0.648-0.36-1.296-0.792-1.944-1.224c-1.1519,0.072-2.376,0.144-3.6,0.216c-2.88,1.008-2.88,1.008-3.6,1.584
		c0,0.6479-0.072,1.296-0.144,1.944c0.72,0.72,1.512,1.44,2.304,2.1599c2.448,0.792,2.448,0.792,2.88,1.296
		c0,0.432,0.072,0.864,0.144,1.368c-1.008,3.816-1.008,3.816-1.728,5.256c0,0.432,0,0.936,0,1.44
		c0.144,0.144,0.288,0.288,0.504,0.504c0.36,0,0.72,0,1.08,0.072c1.296-0.864,2.592-1.728,3.888-2.664
		c1.08,0,2.16,0.072,3.312,0.144c0,2.952,0.072,5.904,0.144,8.928c0.432,1.6559,0.432,1.6559,1.08,2.376c0.36,0,0.792,0,1.224,0.072
		c0.936-1.08,0.936-1.08,1.728-2.736c1.0081-1.008,2.0161-2.016,3.024-3.024c0.648,0,1.296,0.072,2.016,0.144
		c0.144,1.008,0.288,2.088,0.504,3.168c0.144,0.216,0.36,0.432,0.576,0.72c1.008,0.288,1.008,0.288,2.232,0.072
		c1.8719-0.936,1.8719-0.936,2.88-1.944c0.216,0,0.4319,0,0.72,0c0.576,0.792,1.224,1.656,1.872,2.52
		c0.36,1.008,0.72,2.088,1.08,3.168c0.648,0.36,0.648,0.36,1.584,0.36c0.936-1.008,0.936-1.008,1.872-3.024
		c1.224-0.36,1.224-0.36,3.384-0.36c1.224,0.936,1.224,0.936,2.448,1.44c0.432,0.072,0.936,0.144,1.44,0.216
		c1.152,1.368,1.152,1.368,1.512,2.304c0,1.8,0,3.672,0,5.544c-0.216,1.8-0.432,3.672-0.72,5.544
		c0.144,0.144,0.288,0.288,0.504,0.432c0.576,0,1.152,0.072,1.8,0.144c0.7921-1.08,0.7921-1.08,4.176-9.216
		c0.792-0.936,1.656-1.872,2.52-2.88c0.288,0,0.648-0.072,1.008-0.144c0.432,0.432,0.432,0.432,0.576,2.016
		c-0.504,1.44-0.504,1.44-0.504,3.384c1.08,1.44,1.08,1.44,1.8,1.8c0.648,0,1.296,0,1.944,0c1.008-1.08,2.016-2.16,3.096-3.24
		c0.072-0.288,0.144-0.576,0.288-0.936c0.504,0.072,1.08,0.144,1.656,0.288c1.8,2.808,1.8,2.808,2.232,4.248
		c0.144,1.44,0.288,2.88,0.504,4.32c0.72,0.504,0.72,0.504,1.584,0.576c0.36-0.36,0.72-0.72,1.08-1.08
		c0.72-1.44,1.512-2.9521,2.304-4.464c0.288,0,0.576,0,0.936,0c1.224,1.008,1.224,1.008,2.016,2.088
		c0.144,2.16,0.2881,4.32,0.504,6.48c0.36,0.36,0.72,0.792,1.08,1.224c0.288,0.072,0.576,0.144,0.936,0.288
		c0.864-0.216,1.728-0.432,2.664-0.72c2.16-1.872,2.16-1.872,2.52-2.448c0.288-1.44,0.576-2.88,0.864-4.32
		c0.72,0.072,1.44,0.144,2.16,0.288c1.008,0.648,2.016,1.296,3.096,1.944c0.288,0.36,0.576,0.792,0.936,1.224
		c3.168,1.44,4.32,2.376,8.424,4.32c1.224,0.72,2.52,1.44,3.816,2.16c0.36,1.008,0.72,2.016,1.08,3.024
		c0.72,0.72,1.44,1.44,2.16,2.16c1.512,0.648,3.096,1.296,4.6801,2.016c0.432,0,0.936,0,1.44,0
		c0.864,0.288,1.728,0.576,2.6639,0.936c0.4321-0.072,0.936-0.144,1.44-0.216c1.872,0.216,3.816,0.432,5.76,0.72
		c1.152,0.936,2.376,1.872,3.6,2.88c1.656,0.432,3.312,0.936,5.04,1.44c3.384,0.432,3.384,0.432,4.536,0.936c0.72,0,1.4399,0,2.16,0
		c10.584,7.704,10.584,7.704,13.968,9.72c1.224,1.728,2.52,3.456,3.816,5.256c-0.072,0.072-0.144,0.216-0.216,0.36
		c-0.6479-0.072-1.296-0.144-1.944-0.216c-4.32-1.944-4.32-1.944-13.176-5.04c-0.72,0-1.4399,0.072-2.16,0.144
		c0,0.288-0.072,0.576-0.144,0.936c0.432,0.36,0.864,0.792,1.296,1.224c1.728,0.792,1.728,0.792,5.328,1.8
		c2.592,1.224,5.256,2.52,7.92,3.816c2.2321,1.44,4.464,2.88,6.696,4.32c0.936,0.072,1.872,0.144,2.8801,0.216
		c1.368,1.152,2.736,2.376,4.1039,3.6c0.216,0.576,0.504,1.224,0.792,1.872c0,0.504,0,1.008-0.072,1.512
		c-0.648-0.072-1.296-0.144-1.944-0.2159c-2.808-1.872-5.616-3.816-8.4241-5.76c-7.2-3.888-7.2-3.888-12.6719-6.264
		c-0.7921,0.072-1.584,0.144-2.4481,0.216c-0.072,0.144-0.2159,0.288-0.3599,0.432c0.216,1.152,0.216,1.152,0.6479,1.512
		c3.096,0.936,3.096,0.936,7.2,2.88c2.16,1.224,4.32,2.52,6.48,3.816c5.472,4.104,9.7921,6.984,11.016,8.208
		c0,0.648,0,1.296,0.072,2.016C331.2,344.52,330.48,344.592,329.688,344.664L329.688,344.664z M308.088,339.12
		c-1.2241-0.288-2.52-0.576-3.816-0.936c-1.2961-0.648-2.592-1.296-3.8881-1.944c-0.504-0.4319-1.08-0.936-1.656-1.44
		c0-0.36-0.072-0.72-0.144-1.08c0.504-0.288,1.008-0.576,1.584-0.864c1.44-0.072,2.88-0.144,4.32-0.216
		c0.144-0.144,0.288-0.288,0.504-0.504c0.288,0,0.576,0,0.936,0c1.8,1.368,3.672,2.736,5.544,4.104
		c0.576,0.576,1.152,1.152,1.728,1.8c0,0.288,0,0.576-0.072,0.864C311.472,338.976,309.816,339.048,308.088,339.12L308.088,339.12z
		 M269.712,334.584c-10.296-0.4319-20.592-0.936-30.96-1.44c-1.512-0.288-3.024-0.6479-4.608-1.008
		c-2.016-1.224-4.104-2.52-6.192-3.816c-8.64-6.264-8.64-6.264-11.808-8.136c-1.8-0.792-3.6-1.584-5.472-2.448
		c-3.384-0.432-3.384-0.432-4.824-0.936c-0.072-0.072-0.144-0.216-0.216-0.36c0.72,0,1.44-0.072,2.16-0.144
		c2.304,0.432,4.608,0.936,6.912,1.44c5.256,0.072,10.5121,0.144,15.84,0.288c11.088-1.944,11.088-1.944,17.784-3.384
		c1.584-0.432,3.168-0.936,4.824-1.44c0.936,0,1.872,0,2.88,0c1.872,2.664,3.096,3.96,6.192,8.424
		c1.296,1.224,2.592,2.52,3.888,3.816c3.672,6.12,3.672,6.12,4.608,8.28c-0.072,0.216-0.144,0.432-0.216,0.72
		C270.288,334.44,270,334.512,269.712,334.584L269.712,334.584z M295.128,329.76c-0.504-0.072-1.08-0.144-1.656-0.216
		c-1.368-0.648-2.736-1.296-4.104-1.944c-0.864-0.648-1.728-1.296-2.664-1.944c-0.576,0-1.224,0-1.872,0
		c-0.936-0.576-1.8719-1.224-2.88-1.872c0-0.288-0.072-0.576-0.144-0.864c1.296-0.144,2.592-0.36,3.96-0.576
		c1.728,0.072,3.456,0.144,5.256,0.216c3.888,4.32,3.888,4.32,5.544,5.76c0.072,0.864,0.072,0.864-0.216,1.224
		C295.992,329.616,295.56,329.688,295.128,329.76L295.128,329.76z M265.608,281.736c-1.944-0.936-1.944-0.936-4.536-2.88
		c-1.512-0.576-3.024-1.224-4.608-1.872c-0.36-0.288-0.72-0.576-1.08-0.864c0-0.216,0-0.432-0.072-0.72
		c1.44,0.288,2.88,0.576,4.32,0.864c1.656,0.936,4.752,1.872,7.2,3.312c0.288,0.504,0.576,1.008,0.936,1.584
		c-0.144,0.144-0.288,0.36-0.504,0.576C266.7599,281.736,266.184,281.736,265.608,281.736L265.608,281.736z M288.144,280.8
		c-4.752-0.936-4.752-0.936-7.632-1.944c-1.512-0.864-3.024-1.728-4.608-2.592c-0.072-0.2881-0.144-0.576-0.216-0.864
		c6.264,0.576,6.264,0.576,8.424,1.08c1.584,0.792,3.168,1.584,4.752,2.376c0.144,0.576,0.36,1.224,0.576,1.872
		C289.008,280.728,288.576,280.728,288.144,280.8L288.144,280.8z M271.584,265.176c-0.576-0.144-1.224-0.288-1.872-0.432
		c-2.088-1.08-4.176-2.232-6.264-3.384c-0.72-0.216-1.512-0.504-2.304-0.792c0.072-0.432,0.144-0.936,0.216-1.44
		c1.8-1.008,1.8-1.008,3.744-1.584c1.368,0,2.736,0,4.1039,0c0.432,0.144,0.936,0.288,1.4401,0.432
		c0.576,0.432,1.152,0.864,1.8,1.368c0.144,0.504,0.288,1.08,0.432,1.656c2.088,2.448,2.088,2.448,2.8799,2.88
		c0,0.216,0,0.432,0,0.72c-0.4319,0.144-0.864,0.36-1.296,0.576C273.528,265.176,272.592,265.176,271.584,265.176L271.584,265.176z
		 M298.944,244.8c-1.512-0.432-3.0959-0.864-4.68-1.296c0-0.36,0.072-0.72,0.144-1.08c0.432,0,0.936,0,1.44,0
		c0.3599,0.288,0.7919,0.576,1.2239,0.936c0.936,0.36,1.872,0.72,2.88,1.08C299.664,244.8,299.664,244.8,298.944,244.8
		L298.944,244.8z M308.808,244.08c-0.432-0.288-0.936-0.576-1.44-0.936c-0.288-0.504-0.576-1.008-0.864-1.584
		c-0.6481-0.504-1.2961-1.08-1.944-1.656c0-0.216,0-0.432-0.072-0.72c0.648,0,1.296-0.072,1.944-0.144
		c0.504,0.288,1.08,0.576,1.656,0.936c0.6479,0.72,1.296,1.512,1.944,2.304c0.144,0.576,0.36,1.152,0.576,1.728
		C310.032,244.008,309.456,244.008,308.808,244.08L308.808,244.08z M315.792,235.944c-1.728-0.648-3.528-1.296-5.328-1.944
		c-1.224-0.72-2.448-1.44-3.744-2.232c0-0.288,0-0.648-0.072-1.008c0.504,0.072,1.08,0.216,1.6559,0.36
		c1.296,0.648,2.592,1.296,3.8881,1.944c1.152,0.288,2.376,0.576,3.6,0.936c1.656,0.936,1.656,0.936,1.872,1.296
		c-0.144,0.216-0.288,0.432-0.432,0.648C316.8,235.944,316.296,235.944,315.792,235.944L315.792,235.944z M291.528,231.12
		c-1.44-0.504-1.44-0.504-4.1041-0.72c-0.936,0.504-0.936,0.504-1.44,0.504c-0.288-0.288-0.5759-0.6479-0.936-1.008
		c0-0.288-0.072-0.648-0.144-1.008c0.504-1.008,0.504-1.008,0.504-1.944c-1.584-1.224-1.584-1.224-3.168-1.944
		c0-0.288,0-0.576,0-0.936c1.008-0.936,1.008-0.936,1.944-2.664c0.072-0.504,0.144-1.08,0.216-1.656
		c-0.216-0.36-0.504-0.72-0.7921-1.08c-2.016-0.72-4.032-1.512-6.048-2.304c0-0.288,0-0.576,0-0.936
		c0.576-0.288,1.152-0.576,1.728-0.936c0.2161-0.288,0.504-0.648,0.792-1.008c-0.072-0.72-0.1439-1.44-0.216-2.16
		c-0.4319-0.504-0.936-1.08-1.44-1.656c0-0.216,0-0.432,0-0.72c0.288-0.288,0.576-0.576,0.936-0.936c0-0.576,0-1.152,0-1.728
		c-0.504-0.504-1.008-1.008-1.512-1.584c-1.584,0-3.168,0.072-4.824,0.144c0.072-0.288,0.216-0.576,0.36-0.936
		c1.224-0.936,1.224-0.936,2.16-2.16c0.144-0.432,0.288-0.936,0.504-1.44c-0.072-0.432-0.144-0.936-0.288-1.44
		c-0.288-0.36-0.5759-0.792-0.936-1.224c-0.792-0.288-1.656-0.576-2.52-0.936c0-0.36-0.072-0.792-0.144-1.224
		c0.288-0.936,0.6479-1.872,1.0079-2.88c0-0.7921,0-1.584,0-2.376c-0.432-0.432-0.864-0.864-1.296-1.368
		c-0.936-0.072-1.872-0.144-2.88-0.288c0.2159-0.648,0.504-1.296,0.792-1.944c2.592-2.88,5.256-5.76,7.92-8.64
		c1.296-1.152,2.592-2.304,3.96-3.528c1.944-0.936,3.6-2.376,22.608-13.896c5.04-3.816,5.04-3.816,6.48-5.256
		c0.36-0.072,0.72-0.216,1.152-0.36c-0.072,0.648-0.216,1.296-0.36,1.944c-0.7919,1.08-1.584,2.16-2.376,3.312
		c-1.08,1.008-2.16,2.088-3.24,3.168c-2.16,0.792-2.16,0.792-2.52,1.152c0,0.288,0,0.648,0,1.008c0.432,0.432,0.936,0.936,1.44,1.44
		c0.3599,0,0.72,0,1.08,0.0721c1.944-1.728,3.96-3.4561,5.976-5.256c0.576,0,1.152,0,1.728,0c3.312-1.944,3.312-1.944,7.416-3.888
		c2.664-1.872,4.824-3.816,6.264-4.752c0.72-0.648,1.44-1.296,2.16-1.944c0.216,0,0.432,0.072,0.72,0.144
		c-1.656,1.872-3.312,3.744-5.04,5.616c-1.8719,1.656-3.816,3.312-5.76,5.04c-6.264,3.816-6.264,3.816-8.928,5.76
		c-0.072,0.288-0.216,0.576-0.36,0.864c-0.792,0.432-1.656,0.864-2.52,1.296c-0.216,0.36-0.432,0.72-0.72,1.08
		c0.288,0.288,0.648,0.576,1.0081,0.864c0.504,0.072,1.08,0.144,1.656,0.216c1.44-0.648,2.88-1.296,4.32-1.944
		c1.512-0.936,3.024-1.872,4.5359-2.88c2.448-0.936,2.448-0.936,3.888-1.152c0.504,0.504,1.08,1.008,1.656,1.512
		c0.072,1.224,0.072,1.224-0.36,3.168c-1.584,0.576-3.24,1.152-4.896,1.8c-2.592,1.224-5.256,2.5201-7.92,3.816
		c-1.008,0.288-2.088,0.576-3.168,0.936c-0.432,0.504-0.432,0.504-0.576,1.368c0.36,0.216,0.72,0.504,1.08,0.792
		c3.816-0.936,7.632-1.872,11.52-2.88c0.648,0,1.296,0.072,1.944,0.144c0.144,0.288,0.288,0.576,0.4319,0.864
		c1.44,0.936,1.44,0.936,4.1041,1.872c0,0.288,0,0.576,0.072,0.864c-0.144,0.216-0.36,0.432-0.576,0.72
		c-2.952,0.288-5.904,0.576-8.856,0.864c-0.936,0.432-0.936,0.432-9.36,1.872c-0.72,0.504-0.72,0.504-1.08,1.1519
		c0.2161,1.152,0.2161,1.152,0.576,1.5121c11.304-0.936,11.304-0.936,16.848-1.656c4.752,0,5.976-0.288,9.576-0.288
		c6.264-0.72,6.264-0.72,9.864-1.44c1.0081-0.288,2.016-0.576,3.096-0.936c2.088-0.144,4.176-0.36,6.264-0.576
		c0,0.288-0.072,0.576-0.144,0.936c-0.504,0.288-1.008,0.576-1.584,0.864c-3.6,0.432-7.416,1.44-11.736,1.872
		c-3.6,1.008-8.424,1.944-15.84,4.104c-3.816-0.072-7.632-0.144-11.52-0.216c-5.04,0.936-5.04,0.936-7.704,1.152
		c-0.072,0.144-0.2159,0.288-0.3599,0.432c0.072,0.432,0.144,0.936,0.216,1.44c4.824,0.072,9.6479,0.144,14.5439,0.288
		c5.76,1.008,5.76,1.008,9.36,1.944c0.144,0.144,0.288,0.36,0.504,0.576c-0.216,0.36-0.216,0.36-0.936,0.648
		c-3.6,0.216-3.6,0.216-6.7681,0c-0.288-0.144-0.5759-0.288-0.936-0.504c-1.8-0.072-3.6719-0.144-5.5439-0.216
		c-2.88,0.36-5.7601,0.72-8.6401,1.152c-0.216,0.36-0.4319,0.72-0.72,1.08c0.144,0.288,0.288,0.576,0.504,0.864
		c0.72,0.216,0.72,0.216,8.8561,0.216c2.736,0.288,5.472,0.648,8.2079,1.008c15.84,4.32,15.84,4.32,16.056,4.68
		c-0.216,0.36-0.216,0.36-2.376,0.792c-6.7679-0.144-13.608-0.288-20.4479-0.432c-2.592-0.504-2.592-0.504-8.3521-1.008
		c-1.8,0-3.672,0-5.544,0c-0.792,0.288-1.656,0.576-2.52,0.864c0,0.36,0,0.792,0,1.224c0.144,0.144,0.288,0.288,0.4319,0.504
		c1.872,0,3.744,0,5.688,0.072c0.432,0.144,0.936,0.288,1.4401,0.504c1.728,0.144,3.456,0.288,5.256,0.432
		c3.384,1.008,3.384,1.008,3.6,1.368c-0.4321,0.576-0.936,1.152-1.44,1.8c-0.504,0.072-1.0801,0.144-1.656,0.216
		c-1.224-0.288-2.52-0.576-3.816-0.936c-7.92-1.008-10.368-1.008-14.4-1.44c-1.08,0-2.232,0-3.384,0
		c-0.216,0.144-0.432,0.36-0.6479,0.576c0,0.288,0,0.648,0,1.008c0.2159,0.144,0.4319,0.288,0.6479,0.432
		c4.536,0.36,4.536,0.36,9.864,1.296c1.944,0.936,3.96,1.872,5.976,2.88c1.08,0.36,2.232,0.72,3.384,1.08
		c-0.072,0.072-0.144,0.216-0.288,0.36c-2.4481-0.144-4.896-0.288-7.416-0.432c-4.824-1.44-5.76-1.944-7.416-2.16
		c-0.144,0.072-0.288,0.216-0.432,0.36c0,0.36,0,0.792,0,1.224c0.576,0.864,1.152,1.728,1.728,2.592
		c-0.3599,0-0.72,0.072-1.08,0.144c-2.376-1.008-2.376-1.008-3.6-1.224c-0.072,0.072-0.216,0.216-0.36,0.36
		c0.072,0.648,0.144,1.296,0.216,1.944c0.288,0.504,0.576,1.08,0.936,1.656c2.4481,1.944,4.32,4.104,5.544,5.04
		c0.288,0.36,0.576,0.792,0.936,1.224c0,0.144,0,0.36-0.072,0.576c-0.216,0-0.432,0-0.72,0c-0.648-0.792-1.296-1.584-1.944-2.376
		c-1.872-1.008-1.872-1.008-3.312-1.224c-0.504,0.576-0.504,0.576-0.864,1.584c0.072,1.44,0.144,2.88,0.216,4.32
		c0.504,1.44,0.504,1.44,0.36,2.016C292.176,231.12,291.888,231.12,291.528,231.12L291.528,231.12z M322.488,229.464
		c-6.9839-2.88-6.9839-2.88-8.64-3.96c-0.072-0.288-0.144-0.576-0.216-0.936c0.7919,0.072,1.584,0.144,2.376,0.288
		c8.856,2.88,8.856,2.88,9.216,3.312c0,0.216,0,0.432,0,0.72C324.36,229.32,324.36,229.32,322.488,229.464L322.488,229.464z
		 M328.248,221.544c-7.92-1.944-7.92-1.944-8.856-2.448c0-0.288-0.072-0.648-0.144-1.008c0.432-0.72,0.432-0.72,1.08-1.152
		c0.648-0.072,1.296-0.144,1.944-0.216c2.16,0.504,2.16,0.504,6.552,0.864c0.504,2.376,0.504,2.376,0.36,3.9601
		C328.896,221.544,328.608,221.544,328.248,221.544L328.248,221.544z M31.608,218.88c-0.504-0.288-1.08-0.576-1.656-0.936
		c0-0.288,0-0.576-0.072-0.864c1.368-0.432,2.736-0.864,4.104-1.296c0.936-1.008,1.872-2.088,2.88-3.168
		c1.44-0.936,1.44-0.936,2.448-1.152c0.72-0.72,1.44-1.44,2.16-2.16c0.36-0.72,0.72-1.44,1.152-2.1599
		c1.08-0.576,2.232-1.152,3.384-1.728c1.872,0,3.816,0,5.76,0c0.576,0.144,1.224,0.288,1.872,0.432c0,0.216,0.072,0.432,0.144,0.72
		c-0.288,0.36-0.576,0.72-0.936,1.152c-0.504,1.728-0.504,1.728-1.008,5.544c-0.288,0.648-0.576,1.296-0.936,1.944
		c-0.504,0.216-1.008,0.504-1.512,0.792c-0.648,0.072-1.296,0.144-1.944,0.216c-1.224-0.72-1.224-0.72-1.944-0.72
		c-0.216,0.288-0.216,0.288-3.096,0.432c-0.072-0.288-0.216-0.648-0.36-1.008c-0.36-0.072-0.72-0.144-1.08-0.216
		c0,0.216-0.072,0.432-0.144,0.72c-0.576-0.72-0.576-0.72-0.576-1.224c-0.288-0.144-0.576-0.288-0.864-0.432
		c0-0.432-0.072-0.936-0.144-1.44c-0.576,0.432-0.576,0.432-0.936,0.216c-0.36,1.368-0.72,2.736-1.08,4.104
		c-0.936,0.936-0.936,0.936-2.52,1.728C32.832,218.88,32.832,218.88,31.608,218.88L31.608,218.88z M335.232,216.504
		c-2.304-0.792-4.608-1.584-6.984-2.448c-0.864-0.144-1.728-0.288-2.664-0.432c-1.152-0.432-2.376-0.936-3.6-1.44
		c0-0.288-0.072-0.576-0.1439-0.864c0.72-0.288,1.512-0.576,2.304-0.864c1.512,0,3.024,0,4.608,0
		c2.016,0.288,4.1039,0.648,6.192,1.008c2.88,0.936,2.88,0.936,3.6,1.44c0.072,0.36,0.216,0.72,0.36,1.08
		c-0.792,0.792-1.584,1.584-2.376,2.376C336.096,216.36,335.664,216.432,335.232,216.504L335.232,216.504z M18.648,216
		c-1.008-0.72-2.016-1.44-3.096-2.16c-5.76-1.944-5.76-1.944-11.52-3.384c-1.008-0.072-2.088-0.144-3.168-0.216
		c-0.288-0.36-0.576-0.72-0.864-1.08c0.072-0.432,0.144-0.936,0.288-1.44c2.304-0.36,2.304-0.36,7.56-0.36
		c1.584-0.288,3.168-0.576,4.824-0.936c1.8-0.792,3.6-1.584,5.472-2.448c0.432-0.072,0.936-0.144,1.44-0.216
		c0.144,0.072,0.36,0.216,0.576,0.36c0.072,0.576,0.144,1.152,0.288,1.728c-0.36,0.36-0.792,0.72-1.224,1.152
		c-0.072,1.296-0.144,2.592-0.216,3.888c0.216,0.36,0.432,0.72,0.72,1.152c0.072,0.576,0.144,1.1519,0.216,1.728
		c0.144,0.144,0.288,0.288,0.504,0.432c0,1.44,0,1.44-0.36,1.8C19.656,216,19.152,216,18.648,216L18.648,216z M332.784,195.84
		c-0.72-0.072-1.44-0.144-2.16-0.216c-0.072-0.072-0.144-0.216-0.216-0.36c0.432-0.216,0.936-0.432,1.4399-0.648
		c6.48-0.936,14.184-1.656,15.3361-1.512c0,0.216-0.072,0.432-0.144,0.72c-1.008,0.792-1.008,0.792-2.232,1.296
		C341.2079,195.624,341.2079,195.624,332.784,195.84L332.784,195.84z M332.784,179.784c-0.504-0.144-1.08-0.36-1.656-0.576
		c0-0.288-0.072-0.648-0.144-1.008c0.288-0.432,0.576-0.936,0.936-1.44c0.72-0.2881,1.512-0.576,2.304-0.864
		c5.544-0.936,11.088-1.44,11.52-1.656c1.08,0,2.2319,0,3.384,0c0.216,0.36,0.216,0.36,0,0.72
		c-3.888,1.224-7.776,2.5201-11.736,3.816C335.88,179.064,334.368,179.424,332.784,179.784L332.784,179.784z M330.624,172.296
		c-0.216-0.072-0.216-0.072-0.36-1.008c9.288-5.688,9.288-5.688,12.888-7.632c1.08-0.432,2.16-0.936,3.312-1.44
		c1.152-0.072,2.376-0.144,3.6-0.216c0.432,0.072,0.936,0.216,1.44,0.36c0,0.36,0.072,0.792,0.1439,1.224
		c-0.576,0.648-1.1519,1.2961-1.7999,2.0161c-3.816,0.936-4.824,1.44-11.52,3.384C332.352,171.864,332.352,171.864,330.624,172.296
		L330.624,172.296z M333.072,160.92c0.072-0.288,0.144-0.576,0.288-0.936c1.224-0.936,2.448-1.872,3.744-2.808
		c2.448-0.936,2.448-0.936,3.384-0.936c0.072,0.072,0.216,0.216,0.36,0.36C334.224,160.488,334.224,160.488,333.072,160.92
		L333.072,160.92z M219.024,141.984c0.576-1.44,1.152-2.88,1.8-4.32c0.936-1.584,1.872-3.168,2.88-4.824
		c0.36-0.288,0.72-0.576,1.08-0.864c0.864-0.072,1.728-0.144,2.664-0.216c0.072,0.288,0.216,0.576,0.36,0.864
		c-1.944,2.592-3.888,5.256-5.904,7.92C220.968,140.976,220.032,141.48,219.024,141.984L219.024,141.984z M213.048,119.448
		c0-1.296-0.072-2.592-0.144-3.888c-0.216-0.288-0.432-0.576-0.72-0.936c0-0.288,0-0.576,0-0.936
		c0.432-0.504,0.864-1.008,1.368-1.584c0.504,0,1.08-0.072,1.656-0.144c0,0.864,0,1.728,0.072,2.664
		c0.36,0.864,0.792,1.728,1.224,2.664c-0.936,1.152-0.936,1.152-2.232,2.016C213.912,119.304,213.48,119.376,213.048,119.448
		L213.048,119.448z M207.288,114.48c0-0.648-0.072-1.2961-0.144-2.0161c1.944-6.264,1.944-6.264,2.376-6.9839
		c3.528-1.8,3.528-1.8,4.248-1.872c-0.36,3.816-0.36,3.816-0.864,5.76c-1.512,1.656-3.096,3.312-4.68,5.04
		C207.936,114.408,207.648,114.408,207.288,114.48L207.288,114.48z M199.152,108.36c-0.576-1.6559-1.152-3.312-1.728-5.0399
		c0.7921-0.0721,1.584-0.216,2.448-0.36c1.44-0.936,1.44-0.936,2.376-1.944c0.288,0,0.576,0,0.936-0.072
		c-0.072,0.936-0.216,1.872-0.36,2.88c-0.288,0.864-0.576,1.728-0.936,2.664c-0.576,0.648-1.152,1.296-1.8,2.016
		C199.8,108.504,199.512,108.432,199.152,108.36L199.152,108.36z M188.568,105.624c-0.936-0.504-0.936-0.504-1.368-1.296
		c0-0.72,0-1.44,0-2.16c0.288-1.008,0.648-2.088,1.008-3.168c1.872-3.312,3.312-6.912,4.176-8.064c0.72,0,0.72,0,1.944,0.504
		c1.656-0.216,2.376-0.72,3.6-1.08c-0.36,1.2239-0.864,1.728-2.808,5.7599c-2.88,7.488-2.88,7.488-3.816,8.928
		C190.008,105.624,190.008,105.624,188.568,105.624L188.568,105.624z M172.728,91.584c0.072-2.664,0.36-2.8799,0.792-9.144
		c1.584-0.36,3.024-1.296,4.032-1.44c-0.864,4.104-0.864,4.104-1.872,6.768c-0.792,1.152-1.584,2.376-2.376,3.6
		C173.16,91.44,172.944,91.512,172.728,91.584L172.728,91.584z"/>
</g>
</svg>
