<?xml version="1.0" encoding="utf-8"?>
<!-- Generator: Adobe Illustrator 21.1.0, SVG Export Plug-In . SVG Version: 6.00 Build 0)  -->
<svg version="1.1" id="Do" xmlns="http://www.w3.org/2000/svg" xmlns:xlink="http://www.w3.org/1999/xlink" x="0px" y="0px"
	 viewBox="0 0 381.5388 433.656" enable-background="new 0 0 381.5388 433.656" xml:space="preserve">
<g>
	<path fill-rule="evenodd" clip-rule="evenodd" d="M2.9628,433.656c-0.576-0.288-1.224-0.576-1.872-0.936
		c-0.288-0.36-0.648-0.72-1.008-1.08c-0.144-1.44-0.144-1.44,0.36-6.696c0.648-3.528,1.296-7.056,1.944-10.584
		c2.88-10.584,2.88-10.584,4.752-18.72c0.648-1.944,1.296-3.96,1.944-5.976c1.224-2.808,2.52-5.616,3.816-8.424
		c3.888-7.2,3.888-7.2,7.704-13.464c1.872-2.592,3.816-5.256,5.76-7.92c4.248-3.888,8.568-7.776,12.888-11.664
		c3.096-2.232,6.192-4.464,9.36-6.696c0.288-0.432,0.576-0.864,0.936-1.296c0.36-1.224,0.72-2.52,1.08-3.816
		c0.144-2.088,0.288-4.176,0.432-6.2639c0.576-2.16,1.152-4.32,1.728-6.48c0.936-10.296,0.936-10.296,2.376-20.88
		c0.648-9.792,1.296-19.656,1.944-29.52c0.936-9,1.872-18.072,2.88-27.144c1.224-5.4,2.52-10.8,3.816-16.272
		c0.648-3.672,1.296-7.344,1.944-11.088c3.24-11.592,6.48-23.184,9.792-34.776c2.52-5.904,5.112-11.808,7.704-17.784
		c2.52-5.04,5.112-10.08,7.704-15.12c1.584-2.664,3.168-5.4,4.752-8.136c0-0.288,0-0.576,0-0.936
		c-0.576-0.432-13.248-5.184-22.176-9.072c-2.88-0.288-5.76-0.576-8.64-0.936c-6.696,0-13.392,0-20.16,0
		c-2.376,0.144-4.752,0.288-7.2,0.504c-1.8-0.144-3.6-0.288-5.472-0.504c-0.432-0.36-0.864-0.72-1.368-1.08
		c-0.504-1.152-0.504-1.152-0.504-2.16c0.504-1.152,2.448-3.312,4.32-5.976c1.008-0.936,4.824-6.264,8.64-10.8
		c5.688-4.536,11.376-9.072,17.064-13.68c3.24-1.872,6.48-3.744,9.72-5.688c4.104-1.872,7.488-3.816,13.968-6.696
		c2.88-0.936,5.76-1.872,8.64-2.88c8.136-1.944,18.72-3.816,27.792-5.7599c22.32-3.816,22.32-3.816,26.208-4.8241
		c1.1519-0.576,2.376-1.2239,3.6-1.872c0.792-0.0719,1.584-0.1439,2.376-0.2879c1.944-2.1601,1.944-2.1601,6.696-8.856
		c2.592-2.808,5.256-5.6161,7.92-8.4241c5.76-5.184,11.5201-10.3679,17.28-15.5519c5.544-3.888,5.544-3.888,17.784-11.52
		c2.88-1.584,5.76-3.168,8.64-4.824c5.472-2.52,11.016-5.112,16.56-7.704c7.344-2.52,14.688-5.0401,22.104-7.632
		c4.536-1.296,9.0719-2.592,13.68-3.888c0.864,0,1.728,0,2.592,0c0.936-0.288,1.872-0.576,2.88-0.936
		c2.088-0.288,4.176-0.576,6.264-0.936c4.608,0,9.216,0,13.896,0c4.3199,0.4319,4.3199,0.4319,8.928,1.44
		c16.776,5.76,16.776,5.76,21.312,7.632c1.152,0.936,2.376,1.872,3.6,2.88c1.152,0.6479,2.376,1.296,3.6,1.944
		c10.584,7.704,10.584,7.704,12.96,9.144c0.72,0.0719,1.44,0.144,2.16,0.216c4.104-0.504,4.104-0.504,8.928-0.72
		c3.168,0.288,6.336,0.5759,9.576,0.936c1.512,0.288,3.024,0.6479,4.536,1.008c4.824,1.8719,4.824,1.8719,8.424,3.816
		c0.792,0.648,1.584,1.296,2.376,1.944c1.08,0.576,2.232,1.224,3.384,1.8719c0.576,0.7201,1.1519,1.5121,1.8,2.3041
		c0.432,1.944,0.432,1.944,1.152,3.6c-0.144,0.72-0.288,1.44-0.432,2.16c-0.648,1.0079-1.296,2.088-1.944,3.168
		c-8.28,7.632-8.28,7.632-12.96,11.52c-2.016,1.224-4.032,2.52-6.12,3.8159c-5.328,2.5921-10.656,5.2561-15.984,7.92
		c0,0.288,0.072,0.576,0.144,0.936c1.8,1.08,3.672,2.232,5.5439,3.384c2.0161,2.8799,2.0161,2.8799,3.2401,5.5439
		c0,0.7921,0,1.584,0,2.376c-0.648,1.08-1.296,2.232-1.944,3.384c-1.944,1.872-1.944,1.872-4.392,3.672
		c-2.448,0.936-4.968,1.872-7.488,2.88c-3.6,0.504-3.6,0.504-12.24,0.936c-6.192,0.936-12.456,1.8719-18.72,2.88
		c-2.664,0.6479-5.4001,1.296-8.136,1.944c-0.504,0.36-1.08,0.72-1.656,1.08c-1.872,3.6-1.872,3.6-3.744,8.208
		c-1.296,2.304-2.592,4.608-3.888,6.912c-3.816,5.328-3.816,5.328-7.632,10.08c-3.672,3.6-7.344,7.2-11.088,10.8
		c0,1.008,0.504,1.728,1.44,7.7039c1.944,6.984,1.944,6.984,4.104,12.744c0,1.584,0,3.168,0,4.752c-0.936,3.6-1.44,4.32-1.656,5.328
		c-0.36,0.288-0.36,0.288-2.52,0.576c-1.512-0.648-3.024-1.296-4.536-1.944c-5.04-2.88-5.04-2.88-9.144-4.824
		c-2.88-0.936-5.76-1.872-8.64-2.88c-0.72,0-1.44,0-2.16,0c-3.6,3.168-7.2,6.408-10.8,9.648c-2.88,1.872-2.88,1.872-7.704,5.76
		c-0.144,2.304-0.144,2.304,0.36,13.104c-0.504,19.44-0.504,19.44-1.224,31.176c-0.144,0.936-0.288,1.872-0.432,2.88
		c-2.88,9.576-2.88,9.576-5.76,17.496c-1.728,3.312-3.528,6.696-5.328,10.08c-0.144,0.72-0.288,1.44-0.432,2.16
		c-1.512,0-3.096,0.072-4.68,0.144c-0.36-0.36-0.792-0.72-1.224-1.08c-1.8-4.32-1.8-4.32-3.744-10.584
		c-0.936-2.016-1.872-4.104-2.88-6.192c-1.872-5.904-3.816-11.808-5.76-17.784c-2.88-7.2-2.88-7.2-4.752-13.176
		c-0.432-0.792-0.936-1.584-1.44-2.448c-0.72,0-1.512-0.072-2.304-0.144c-1.224,0.648-2.52,1.2961-3.816,1.944
		c-1.872,1.224-3.816,2.52-5.76,3.816c-13.68,11.52-13.68,11.52-21.384,18.504c-15.552,16.56-15.552,16.56-24.12,26.28
		c-0.288,0.792-0.576,1.584-0.936,2.448c-1.944,2.592-5.76,6.48-9.648,11.232c-3.816,5.328-3.816,5.328-7.632,11.52
		c-7.704,14.184-7.704,14.184-9.648,18.288c-1.872,5.04-3.816,10.08-5.76,15.12c-1.872,6.192-3.816,11.232-5.76,18.216
		c-0.936,7.704-1.44,9.36-3.312,24.48c0.072,2.808,0.144,5.616,0.216,8.424c0.288,1.512,0.576,3.024,0.936,4.536
		c1.296,3.312,2.592,6.696,3.888,10.08c0.936,1.944,1.872,3.96,2.88,5.976c0.936,3.456,1.872,6.912,2.88,10.368
		c0.144,1.296,0.288,2.664,0.432,4.032c-0.072,3.456-0.144,6.912-0.216,10.368c-0.936,5.976-0.936,5.976-1.944,10.08
		c-0.576,1.872-1.224,3.816-1.872,5.76c-3.888,6.912-3.888,6.912-5.76,11.016c-0.432,0.648-0.936,1.296-1.44,1.944
		c-0.864,0.288-0.864,0.288-4.896,0.072c-0.216-0.072-0.504-0.216-0.792-0.36c-0.36-0.864-0.72-1.728-1.08-2.592
		c1.008-3.168,2.088-6.408,3.168-9.648c0.144-1.08,0.288-2.16,0.432-3.312c-0.072-1.512-0.144-3.024-0.216-4.608
		c-0.648-1.872-1.296-3.816-1.944-5.76c-0.576-1.008-1.224-2.016-1.872-3.096c-1.944-1.944-3.888-3.96-5.904-5.976
		c-3.528-2.88-7.056-5.76-10.656-8.64c-1.008-1.944-1.008-1.944-1.944-4.608c-0.432-2.376-0.864-4.752-1.296-7.2
		c-6.264,3.744-13.68,7.56-19.944,11.376c-5.4,3.816-10.8,7.632-16.272,11.52c-2.736,2.592-5.472,5.256-8.208,7.92
		c-2.88,3.6-5.76,7.2-8.64,10.8c-0.576,1.008-1.152,2.016-1.8,3.024c-1.224,2.88-2.52,5.76-3.816,8.64
		c-0.648,2.16-1.296,4.32-1.944,6.48c-0.216,0.36-0.504,0.72-0.792,1.08C4.1148,433.656,3.5388,433.656,2.9628,433.656
		L2.9628,433.656z M85.7628,338.832c-1.152-0.936-1.152-0.936-4.104-2.448c0-0.648,0-1.296-0.072-1.944
		c0.936-2.88,8.64-21.096,9.576-24.264c1.944-4.752,1.944-4.752,5.76-15.84c0.288-1.44,0.576-2.88,0.936-4.32
		c3.888-11.736,7.704-21.6,8.64-24.912c1.872-4.536,3.816-9.072,5.76-13.68c1.008-1.224,4.824-8.208,13.392-21.528
		c0.216,0,0.432,0,0.72-0.0721c0.432,4.392,0.864,8.784,1.296,13.176c-0.072,0.864-0.144,1.728-0.288,2.664
		c-1.872,1.944-3.816,3.9601-5.76,5.976c-2.52,3.528-5.04,7.056-7.632,10.584c-1.296,2.16-2.592,4.32-3.888,6.48
		c-2.52,4.896-5.04,9.864-7.632,14.832c-1.296,3.024-2.592,6.048-3.888,9.144c-2.52,7.416-5.04,14.832-7.632,22.32
		c-0.288,1.368-0.648,2.736-1.008,4.104c-1.44,10.512-1.44,10.512-1.872,15.84c-0.432,1.296-0.864,2.592-1.296,3.888
		C86.4828,338.832,86.1228,338.832,85.7628,338.832L85.7628,338.832z M133.7868,235.8c-0.216-1.368-0.432-2.736-0.648-4.104
		c0-1.296,0-2.664,0-4.032c0.288-1.656,0.648-3.312,1.008-5.0399c0.576-1.728,1.224-3.528,1.872-5.328
		c0.504-0.432,0.504-0.432,1.4399-2.376c0.432-0.216,0.864-0.432,1.368-0.648c3.096,0,3.6,0.288,4.824,0.288
		c0.216-0.288,0.504-0.576,0.792-0.864c0.144-0.792,0.288-1.584,0.504-2.376c0-1.584,0-3.168,0-4.824
		c0.288-0.432,0.576-0.936,0.936-1.44c0.36-0.072,0.72-0.216,1.08-0.36c2.448,0.216,2.88,0.504,6.768,1.224
		c0.288-0.36,0.576-0.72,0.936-1.08c-0.36-9.864-0.36-9.864-0.144-14.4c0.936-4.824,0.936-4.824,1.944-7.92
		c0.936-1.512,1.872-3.024,2.88-4.536c2.016-1.944,2.016-1.944,3.456-2.808c0.288,0,0.648,0,1.008-0.0721
		c-0.288,2.952-0.576,5.904-0.864,8.856c0.072,0.864,0.144,1.728,0.216,2.664c1.08,0.936,1.08,0.936,3.528,2.016
		c0.288,0,0.576,0,0.936,0c0.72-0.648,0.72-0.648,1.08-1.8c0.936-8.424,0.936-8.424,1.872-12.9601
		c0.648-1.512,1.296-3.024,1.944-4.536c3.816-5.76,3.816-5.76,8.64-14.184c0.432-0.432,0.864-0.936,1.368-1.44
		c0.36-0.072,0.72-0.144,1.152-0.216c0,3.816-0.072,7.632-0.144,11.52c0.144,0.504,0.288,1.08,0.504,1.656
		c0.36,0.216,0.72,0.504,1.08,0.792c1.08,0.216,2.2321,0.432,3.384,0.72c0.504-0.432,0.504-0.432,1.296-2.736
		c0.072-4.176,0.144-8.424,0.216-12.672c1.296-4.032,2.592-8.136,3.888-12.24c1.8719-4.32,1.8719-4.32,3.816-7.488
		c1.944-2.376,1.944-2.376,5.76-7.92c1.512-1.584,3.096-3.24,4.68-4.896c0.36,0,0.792-0.072,1.224-0.144
		c0.216,1.44,0.504,2.88,0.792,4.32c1.944,3.6,1.944,3.6,3.024,4.824c0.288,0.144,0.576,0.288,0.864,0.504
		c0.144,0.792,0.288,1.584,0.432,2.376c0.432,0.36,0.864,0.792,1.368,1.224c1.44,0.288,1.44,0.288,2.376,0.792
		c0.288-0.072,0.648-0.144,1.008-0.216c0.792-1.584,0.792-1.584,2.736-8.28c1.872-10.8,1.872-10.8,2.88-14.616
		c1.872-4.32,1.872-4.32,5.76-11.304c3.816-5.76,3.816-5.76,7.632-10.8c7.704-7.92,13.248-13.1761,17.064-17.28
		c2.3039-2.16,4.608-4.32,6.984-6.48c0-0.2881-0.072-0.576-0.144-0.936c-1.224-1.44-2.592-2.304-3.6-3.312
		c-0.72-0.432-1.44-0.936-2.16-1.44c-4.536-1.4399-4.536-1.4399-6.9119-1.872c-2.232-0.936-4.464-1.8719-6.768-2.8799
		c-0.576-0.7921-1.152-1.656-1.8-2.52c0.072-0.648,0.144-1.296,0.216-1.944c0.648-0.72,1.296-1.44,1.944-2.16
		c1.008-0.576,2.016-1.152,3.024-1.8c1.656-0.648,3.312-1.296,5.04-1.9441c6.12-1.4399,12.3119-2.8799,18.504-4.3199
		c1.584,0,3.168,0,4.752,0c0.288,0.144,0.648,0.288,1.008,0.504c1.6559,1.8,3.312,3.672,5.04,5.544
		c1.872,0.936,3.816,1.44,4.536,1.872c0.504-0.072,1.08-0.1441,1.656-0.2161c0.792-0.6479,1.584-1.296,2.448-1.944
		c3.024-1.224,6.048-2.52,9.072-3.816c2.376-0.6479,4.752-1.296,7.2-1.9439c19.728-3.816,19.728-3.816,31.464-5.76
		c11.016-0.432,11.016-0.432,20.376-0.432c2.52,0.288,5.112,0.576,7.704,0.936c6.48,1.944,8.856,2.376,9.432,2.808
		c-0.072,0.36-0.144,0.72-0.2161,1.152c-3.384,2.88-3.384,2.88-7.2,6.7681c-2.448,1.872-4.896,3.816-7.416,5.76
		c-1.656,0.936-3.312,1.8719-4.968,2.88c-4.248,1.7279-12.168,5.616-21.096,9.4319c-7.056,2.52-14.184,5.112-21.312,7.704
		c-2.016,1.08-4.032,2.16-6.048,3.312c-1.512,1.08-3.024,2.232-4.536,3.3839c-2.664,3.024-5.4,6.048-8.136,9.144
		c-0.144,1.0081-0.2881,2.0161-0.432,3.0241c-1.872,5.0399-2.88,6.696-4.752,11.2319c-1.296,2.304-2.592,4.608-3.888,6.984
		c-3.816,5.256-3.816,5.256-7.632,9.864c-3.888,4.032-3.888,4.032-12.24,11.7361c-4.824,4.104-13.248,12.24-19.008,17.064
		c-1.4399,1.584-2.8799,3.168-4.3199,4.752c-2.232,2.016-4.464,4.032-6.696,6.048c-3.6,2.664-7.2,5.4-10.8,8.136
		c0.144,5.904,0.288,11.808,0.504,17.784c-0.144,7.2-0.288,14.4-0.504,21.6c-0.288,2.592-0.576,5.256-0.936,7.92
		c-0.936,3.312-1.872,6.696-2.88,10.08c-0.936,2.448-1.872,4.896-2.88,7.416c-0.576,0.936-1.152,1.944-1.8,2.952
		c-0.288,0-0.576,0-0.864-0.072c-0.936-2.088-1.8719-4.176-2.88-6.264c-0.936-3.6-6.696-20.592-8.64-25.632
		c-1.944-6.048-1.944-6.048-2.88-7.92c-1.008-1.008-2.016-2.088-3.024-3.168c-1.512-0.576-3.024-1.152-4.536-1.8
		c-0.864-0.072-1.728-0.144-2.592-0.216c-0.864,0.144-1.728,0.288-2.664,0.432c-2.376,1.296-4.752,2.592-7.2,3.888
		c-3.24,2.52-6.552,5.04-9.864,7.632c-5.04,4.464-10.08,8.928-15.12,13.464c-6.768,7.2-13.536,14.4-20.376,21.6
		C134.2908,235.656,134.0748,235.728,133.7868,235.8L133.7868,235.8z M270.0828,155.952c-3.816-1.872-3.816-1.872-5.256-2.88
		c-9.576-3.816-9.576-3.816-10.296-3.888c0-0.36,0-0.792,0.072-1.224c3.672-3.456,7.416-6.912,11.16-10.44
		c0.288,0,0.648-0.072,1.008-0.144c0.576,2.088,1.152,4.176,1.728,6.264c0.864,2.376,1.728,4.752,2.664,7.2
		c0,3.816,0,3.816-0.216,4.8239C270.2989,156.096,270.2989,156.096,270.0828,155.952L270.0828,155.952z M93.4668,134.64
		c-4.968-1.872-9.936-3.816-14.904-5.76c-1.224-0.648-2.52-1.296-3.816-1.944c-5.04-0.936-5.04-0.936-10.584-1.584
		c-0.432-1.008-0.864-2.016-1.296-3.096c-0.936-0.504-1.872-1.08-2.88-1.656c-0.288-0.936-0.648-1.872-1.008-2.88
		c-0.288-0.2881-0.648-0.576-1.008-0.864c-0.432,0-0.936,0-1.44-0.072c-0.864,2.376-0.864,2.376-2.088,4.752
		c-0.72,0.432-1.44,0.936-2.16,1.44c-0.144,0.648-0.288,1.296-0.504,1.944c-0.288,0.216-0.648,0.504-1.008,0.792
		c-3.6,0.288-7.2,0.576-10.8,0.864c0.216-0.576,0.504-1.224,0.792-1.872c3.816-4.824,4.824-6.48,5.976-7.488
		c1.152,0,2.304-0.072,3.528-0.144c2.88-0.936,2.88-0.936,6.984-2.88c1.728-1.584,3.456-3.168,5.256-4.752
		c1.872-0.936,3.816-1.872,5.76-2.88c0.648-0.072,1.296-0.2159,1.944-0.36c-0.144,1.224-0.144,1.224-1.584,4.32
		c-1.944,2.6639-1.944,2.6639-3.888,5.976c0,1.44,0,1.44,0.504,2.88c0.36,0.36,0.36,0.36,1.584,0.504c0,0.216,0,0.4319,0,0.72
		c0.648-0.072,1.296-0.216,1.944-0.36c1.872-2.52,5.76-8.9281,7.632-11.304c4.32-4.104,4.32-4.104,6.768-5.976
		c0.504-0.216,1.08-0.432,1.656-0.72c0.432,0,0.936,0,1.44,0.0719c-1.944,2.808-1.944,2.808-11.52,14.1841
		c-0.72,1.296-1.512,2.592-2.304,3.888c0.216,2.592,0.216,2.592,0.864,4.32c0.936-0.144,1.224,0.072,2.664,0.072
		c0.72-0.648,1.44-1.296,2.16-1.944c2.52-3.168,5.04-6.336,7.632-9.576c1.368-1.368,2.736-2.736,4.104-4.104
		c0.936-0.72,1.872-1.44,2.88-2.16c0.216,0,0.504,0.0721,0.792,0.144c0.432,1.152,0.864,2.304,1.368,3.456
		c1.224,0.288,1.224,0.288,2.88,0.288c2.376-2.232,4.752-4.464,7.2-6.768c0.288,0,0.576,0.072,0.936,0.144
		c-0.288,0.576-0.576,1.152-0.936,1.8c-1.368,1.224-2.736,2.52-4.104,3.8159c-1.224,1.872-2.52,3.816-3.816,5.7601
		c-3.816,4.104-3.816,4.104-4.248,4.968c0,0.792,0,1.584,0,2.376c0.288,0.504,0.576,1.08,0.864,1.656
		c1.44,0.36,1.44,0.36,3.168,0.36c5.76-6.48,5.76-6.48,6.48-6.912c2.52-3.312,5.04-6.696,7.632-10.0801
		c4.104-3.888,4.104-3.888,8.64-7.7039c1.656-0.8641,3.312-1.728,5.04-2.664c0.576,0,1.152,0,1.728-0.0721
		c-0.144,0.6481-0.288,1.296-0.432,1.9441c-3.816,6.4799-3.816,6.4799-6.192,9.792c-1.296,1.44-2.592,2.88-3.888,4.32
		c-1.872,2.592-3.816,5.256-5.76,7.92c-1.296,1.296-2.664,2.592-4.032,3.888c-0.864,0.576-1.728,1.224-2.664,1.872
		c-1.584,1.656-3.168,3.312-4.824,5.04c-0.864,0.432-1.8,0.864-2.736,1.296c-0.504,0-1.08,0-1.656-0.072
		c-0.144,0.936-0.144,0.936-0.504,1.224C93.6108,134.784,93.5389,134.712,93.4668,134.64L93.4668,134.64z M315.0108,78.1199
		c0.504-0.3599,1.08-0.7199,1.656-1.0799c21.384-7.704,21.384-7.704,22.104-7.704c0.576,0.72,1.224,1.44,1.872,2.16
		c1.8,1.152,3.672,2.304,5.544,3.528c0,0.36,0,0.72,0.072,1.152c-0.36,0.288-0.72,0.648-1.152,1.0079
		C342.5869,77.472,331.5708,77.472,315.0108,78.1199L315.0108,78.1199z M260.2908,55.656c-4.32-0.504-4.32-0.504-5.76-0.936
		c-0.648-0.648-1.368-1.2961-2.088-2.016c-0.072-0.72-0.144-1.44-0.216-2.1601c0.576-1.0079,1.224-2.088,1.872-3.1679
		c2.88-1.872,2.88-1.872,6.912-3.744c1.08-0.144,2.16-0.288,3.312-0.432c1.584,0.072,3.168,0.144,4.824,0.216
		c0.72,0.288,1.44,0.5759,2.16,0.9359c1.656,1.7281,4.104,3.6001,5.4,4.9681c-0.072,0.432-0.144,0.936-0.288,1.44
		c-0.576,0.3599-0.576,0.3599-4.896,1.296c-1.152,0.6481-2.376,1.296-3.6,1.944c-1.44,0.4319-2.88,0.936-4.32,1.44
		C262.5228,55.512,261.4428,55.584,260.2908,55.656L260.2908,55.656z"/>
</g>
</svg>
