<?xml version="1.0" encoding="utf-8"?>
<!-- Generator: Adobe Illustrator 21.1.0, SVG Export Plug-In . SVG Version: 6.00 Build 0)  -->
<svg version="1.1" id="Do" xmlns="http://www.w3.org/2000/svg" xmlns:xlink="http://www.w3.org/1999/xlink" x="0px" y="0px"
	 viewBox="0 0 313.416 412.344" enable-background="new 0 0 313.416 412.344" xml:space="preserve">
<g>
	<path fill-rule="evenodd" clip-rule="evenodd" d="M261.288,412.344c-0.3599-0.36-0.72-0.72-1.152-1.08
		c-0.288-0.864-0.576-1.728-0.936-2.592c-1.368-1.8-2.736-3.672-4.104-5.544c-1.224-2.52-2.52-5.112-3.816-7.704
		c-1.872-2.736-3.816-5.544-5.76-8.352c-1.224-1.296-2.52-2.592-3.816-3.888c-2.52-1.872-5.04-3.816-7.56-5.76
		c-0.648-0.288-1.296-0.576-1.944-0.864c-1.584-0.288-3.168-0.576-4.752-0.936c-3.168-0.288-6.408-0.576-9.648-0.936
		c-7.776-1.08-15.624-2.232-23.472-3.384c-6.768-1.944-11.808-2.88-14.184-3.816c-1.656-1.008-1.656-1.008-2.664-1.944
		c-0.5041-0.936-1.0081-1.944-1.584-2.952c0-0.864,0-1.728,0-2.664c0.288-1.08,0.648-2.232,1.008-3.384
		c1.224-2.232,2.5201-4.464,3.816-6.696c1.224-1.656,2.52-3.312,3.816-5.04c5.904-5.04,5.904-5.04,10.08-9.144
		c1.8-1.224,3.6-2.52,5.4-3.816c6.984-3.744,6.984-3.744,14.904-7.56c3.312-1.296,6.696-2.592,10.08-3.888
		c4.104-0.936,4.104-0.936,6.768-1.872c2.376-1.944,2.376-1.944,3.816-3.528c0.36-1.368,0.36-1.368,0.792-15.336
		c-0.072-2.376-0.144-4.752-0.216-7.2c-0.288-1.152-0.576-2.376-0.936-3.6c-1.44-10.08-1.44-10.08-4.32-26.136
		c-0.936-3.672-1.872-7.344-2.88-11.016c-1.008-2.16-2.88-7.92-6.768-16.848c-0.576-1.152-1.224-2.376-1.872-3.6
		c-9.72-13.392-10.44-13.896-11.52-15.336c-0.432-1.008-0.936-2.016-1.44-3.096c-0.504-3.384-0.504-3.384-0.72-9.36
		c-0.288-1.08-0.648-2.232-1.0081-3.384c-0.576-1.08-1.224-2.232-1.8719-3.384c-15.624-18.216-15.624-18.216-19.728-22.536
		c-5.976-5.328-11.952-10.656-18-16.056c-1.296-1.44-2.664-2.88-4.032-4.32c-1.008-1.728-1.008-1.728-2.88-3.888
		c-1.008-0.504-2.016-1.008-3.024-1.584c-0.504,0-1.08,0-1.656,0c-0.504,0.648-2.304,4.968-4.248,8.568
		c-0.648,0.864-1.296,1.728-2.016,2.664c-0.432,0.216-0.936,0.504-1.44,0.792c-0.864,0.072-1.728,0.144-2.592,0.216
		c-1.008-0.288-2.088-0.576-3.168-0.936c-0.432-0.504-0.432-0.504-2.16-1.44c-1.656-1.872-3.312-3.744-5.04-5.616
		c-4.608-8.28-9.216-16.632-13.824-24.9839c-0.288,0-0.648-0.0721-1.008-0.144c-1.944,3.528-1.944,3.528-5.76,9
		c-1.944,2.304-1.944,2.304-4.8239,6.48c-1.512,1.296-3.024,2.592-4.536,3.96c-1.08,0.36-2.232,0.792-3.384,1.224
		c-0.864,0-1.728,0-2.664,0c-0.576-0.288-1.224-0.576-1.872-0.936c-2.016-2.16-4.032-4.392-6.048-6.624
		c-3.816-5.976-3.816-5.976-6.624-11.016c-0.432-2.304-0.936-4.608-1.44-6.984c-0.216-11.952,0-15.84-0.432-32.112
		c-0.072-1.08-0.144-2.232-0.288-3.384c-0.936-1.224-0.936-1.224-7.632-6.984c-9.72-7.632-9.72-7.632-13.32-10.08
		c-0.648-0.072-1.296-0.2159-1.944-0.36c-1.944-1.224-3.96-2.52-5.976-3.816c-5.256-4.1041-5.256-4.1041-10.8-7.92
		c-2.16-1.2961-4.32-2.592-6.48-3.888c-8.352-3.816-16.776-7.632-25.2-11.52c-0.936-0.576-1.872-1.224-2.88-1.872
		c-0.936-1.152-1.872-2.376-2.88-3.6c-1.8-3.744-1.8-3.744-2.808-6.624c-0.072-1.152-0.144-2.376-0.216-3.6
		c0.144-0.5041,0.288-1.0801,0.504-1.656c2.52-1.944,2.52-1.944,5.832-3.816c0.792-0.288,1.584-0.576,2.448-0.864
		c5.256-0.504,5.256-0.504,13.68-0.72c9.36-1.944,9.36-1.944,12.024-2.88c1.224-0.6481,2.52-1.296,3.816-1.944
		c5.76-3.816,9.36-5.7599,9.864-6.264c1.872-0.936,3.816-1.8719,5.76-2.88C60.12,3.888,62.28,2.88,70.2,0.504
		C71.28,0.36,72.432,0.2159,73.584,0c1.8,0,3.672,0,5.544,0c0.216,0.144,0.432,0.288,0.72,0.504
		C93.024,1.008,93.024,1.008,97.56,1.44c1.08,0.288,2.232,0.6479,3.384,1.0079c2.232,0.144,4.464,0.288,6.696,0.4321
		c3.312,0.4319,6.696,0.936,10.08,1.4399c0.792,0.288,1.584,0.6479,2.448,1.008c1.008,0.144,2.016,0.288,3.096,0.432
		c12.024,3.8879,16.56,5.76,20.16,6.7679c3.816,1.44,3.816,1.44,4.536,2.0161c3.888,1.08,14.904,4.8961,18.504,5.904
		c0.648,0.288,1.2961,0.576,1.944,0.936c2.664,0.6479,5.4,1.296,8.136,1.944c3.528,1.08,7.056,2.16,10.584,3.312
		c3.744,1.4399,7.488,2.88,11.232,4.3199c7.2,3.8881,7.2,3.8881,17.064,9.864c7.7039,3.384,7.7039,3.384,10.8,4.3201
		c4.68,1.0079,9.432,2.016,14.184,3.096c0.288,0.216,0.576,0.432,0.936,0.7199c13.68,0.504,13.68,0.504,20.3761,1.008
		c0.576,0.1441,1.152,0.2881,1.728,0.4321c1.8,0,3.6,0,5.472,0c4.32,0.288,8.64,0.648,12.96,1.0079
		c6.48,1.4401,7.488,1.872,11.808,2.5921c1.152,0.504,1.152,0.504,3.6,0.7199c1.4399,1.0081,5.976,2.8801,7.416,3.8881
		c1.6559,1.656,1.6559,1.656,4.3199,3.6719c0.576,0.7201,1.152,1.44,1.8,2.232c0.144,0.504,0.288,1.08,0.4321,1.6561
		c0.576,0.7919,1.152,1.584,1.728,2.376c0.4319,3.168,0.4319,3.168,0.4319,6.264c-0.5759,1.5839-1.2239,3.168-1.8719,4.824
		c-2.448,2.16-2.448,2.16-4.32,4.32c-2.448,1.872-4.896,3.816-7.344,5.76c-10.296,5.616-10.296,5.616-11.52,6.048
		c-2.592,1.944-2.592,1.944-4.752,3.96c-0.432,1.512-0.432,1.512-0.432,4.104c0.648,2.088,1.296,4.176,1.944,6.264
		c1.584,4.104,3.168,8.28,4.824,12.456c0.936,4.608,0.936,4.608,2.376,9.144c1.944,4.5359,1.944,4.5359,2.88,5.7599
		c2.88,15.12,2.88,15.12,5.76,32.4c0.072,1.872,0.144,3.816,0.216,5.76c0.936,5.76,1.872,11.52,2.88,17.28
		c0.576,5.544,1.152,11.16,1.728,16.776c0,4.392,0,8.784,0,13.248c-1.44,16.56-1.728,16.992-2.664,30.96
		c-0.936,6.192-0.936,6.192-2.88,15.84c-0.288,0.288-0.576,0.576-0.936,0.936c-1.944,7.704-1.944,7.704-6.768,24.264
		c-0.936,1.44-0.936,1.44-5.76,12.456c-3.816,9.576-3.816,9.576-5.76,13.68c-0.576,1.008-1.224,2.016-1.872,3.096
		c-1.008,2.88-1.008,2.88-1.944,6.768c-0.072,1.008-0.144,2.016-0.216,3.0959c1.872,4.464,3.816,8.928,5.76,13.464
		c0.936,3.744,1.872,7.488,2.88,11.232c0.288,2.304,0.576,4.608,0.936,6.984c0.36,5.976,0.792,11.952,1.224,18
		c-0.936,2.592-1.872,5.256-2.88,7.92c-1.296,1.944-2.592,3.96-3.888,5.976c-1.872,2.16-3.816,4.32-5.76,6.48
		c-4.176,2.88-6.48,5.04-7.7759,5.904c-0.5041,0.144-1.08,0.288-1.656,0.432c-1.08,0.648-2.232,1.296-3.384,1.944
		C262.08,412.344,261.72,412.344,261.288,412.344L261.288,412.344z M262.728,407.952c0-1.008-0.072-2.088-0.144-3.168
		c-1.296-2.952-2.592-5.904-3.888-8.856c-0.72-1.224-1.44-2.52-2.16-3.816c-0.288-0.864-0.576-1.728-0.936-2.664
		c-1.224-2.088-2.52-4.176-3.816-6.264c-1.44-1.44-2.88-2.88-4.32-4.32c-1.728-1.224-3.456-2.52-5.184-3.816
		c-2.448-1.08-4.896-2.16-7.416-3.24c-1.512-0.144-3.024-0.288-4.536-0.504c-1.512-0.36-3.024-0.792-4.608-1.224
		c-2.376,0-4.032,0.288-4.752,0c-2.448-0.144-4.968-0.288-7.488-0.432c-1.7281-0.288-3.456-0.648-5.256-1.008
		c-13.68-1.44-13.896-1.656-17.28-1.872c-0.36-0.288-0.792-0.648-1.224-1.008c-2.376-0.792-4.752-1.584-7.2-2.448
		c-0.36-0.72-0.36-0.72-0.36-2.88c0.648-1.512,1.296-3.024,1.944-4.608c1.8719-2.592,3.816-5.256,5.76-7.92
		c1.872-1.728,3.744-3.456,5.616-5.256c2.736-1.944,2.736-1.944,4.824-3.816c8.64-5.184,8.64-5.184,10.08-5.688
		c1.152-0.648,2.376-1.296,3.6-1.944c2.448-0.936,4.896-1.872,7.416-2.88c3.528-0.576,7.056-1.224,10.584-1.872
		c5.976-1.944,5.976-1.944,10.296-2.88c0.36-0.432,0.72-0.864,1.08-1.296c0.936-6.048,0.936-6.048,1.224-11.304
		c-0.288-0.936-0.288-0.936-0.288-9.36c-0.936-4.32-1.872-12.24-2.88-17.784c-0.288-0.432-0.576-0.936-0.9359-1.44
		c-1.944-6.48-2.376-9.072-2.88-10.08c-2.376-13.68-2.376-13.68-2.664-14.112c-0.576-2.808-1.224-5.616-1.872-8.424
		c-3.888-11.304-3.888-11.304-5.76-15.84c-1.008-1.44-2.88-5.256-10.584-17.784c-0.936-2.88-0.936-2.88-1.44-3.6
		c-0.936-6.192-0.936-6.192-1.08-9.576c0.288,0,0.648,0,1.008,0.072c1.296,1.296,2.664,2.592,4.032,3.888
		c1.368,1.584,2.736,3.24,4.104,4.896c2.52,3.6,5.112,7.272,7.704,10.944c1.224,1.512,2.52,3.024,3.816,4.536
		c1.872,2.88,3.816,5.832,5.76,8.784c1.224,2.448,2.448,4.896,3.672,7.416c0.288,0.36,0.648,0.792,1.008,1.224
		c1.872,4.536,1.872,4.536,5.76,12.456c1.872,5.544,1.872,5.544,2.376,6.264c0.504,2.664,0.504,2.664,0.936,3.384
		c0.288,0.144,0.576,0.288,0.864,0.432c0.288-0.216,0.576-0.432,0.864-0.72c0-2.376,0.432-5.976,0.936-19.152
		c-0.072-3.672-0.144-7.344-0.2159-11.088c-0.648-6.336-1.296-12.744-1.944-19.152c-0.648-3.312-1.296-6.696-1.944-10.08
		c-1.224-5.04-2.5201-10.08-3.816-15.12c-1.872-5.184-3.816-10.368-5.76-15.624c-1.944-3.816-3.816-8.856-7.704-17.064
		c-2.52-4.104-5.04-8.28-7.632-12.456c-6.768-9.576-8.64-11.7361-10.584-14.616c-12.24-13.248-12.24-13.248-14.4-15.12
		c-8.136-8.424-8.136-8.424-9.36-10.08c-4.032-3.744-8.064-7.488-12.096-11.304c-0.288-0.072-0.576-0.2161-0.936-0.36
		c-2.16-2.16-6.984-6.264-9.648-8.208c-6.48-3.96-6.696-4.3199-8.352-5.256c-0.648-0.072-1.296-0.2161-1.944-0.36
		c0-0.288,0-0.576,0-0.936c-0.288,0-0.576-0.072-0.936-0.144c-0.432-0.36-0.936-0.792-1.44-1.224
		c-3.384-1.152-4.104-1.656-6.984-2.592c-4.32-1.944-10.296-3.8881-13.68-5.3281c-1.944-0.4319-3.816-1.44-8.424-2.736
		c-1.296-5.7599-1.296-5.7599-2.736-14.616c-1.944-6.48-1.944-6.48-4.464-16.3441c1.224,0.36,1.224,0.36,7.4879,4.176
		c7.632,1.944,7.632,1.944,12.672,2.88c4.608,1.296,9.288,2.592,13.968,3.8879c3.96,1.5841,7.92,3.1681,11.952,4.752
		c0.216,0.2161,0.432,0.4321,0.72,0.7201c0.432-0.072,0.936-0.144,1.44-0.216c0.432-0.576,0.936-1.152,1.44-1.8
		c0.576-3.24,1.152-6.48,1.8-9.792c-0.072-2.376-0.144-4.752-0.216-7.2c-0.72-2.6641-1.728-5.04-2.016-6.4801
		c1.152,0.2161,2.376,0.504,3.6,0.7921c7.416,3.096,7.416,3.096,10.512,4.824c1.512,0.288,3.024,0.5759,4.608,0.936
		c1.8,0.648,3.6,1.368,5.472,2.088c0.864,4.032,1.8,10.5121,2.304,12.24c0.432,2.952,0.936,5.9041,1.44,8.8561
		c1.872,2.376,1.872,2.376,4.032,4.536c2.88,2.16,2.88,2.16,6.264,4.104c10.08,7.7039,10.08,7.7039,14.04,10.4399
		c1.584,0.288,3.168,0.576,4.824,0.936c1.224-0.216,1.224-0.216,1.944-0.72c0.576,0,1.224,0,1.872,0
		c3.384-0.936,3.384-0.936,5.76-1.944c0.936-0.576,1.872-1.224,2.88-1.872c0.288-0.432,0.576-0.864,0.864-1.296
		c0.072-0.792,0.144-1.584,0.216-2.448c0.648-0.36,0.648-0.36,3.024-0.576c7.92,1.872,17.496,4.7521,21.384,5.4721
		c2.592,1.008,2.592,1.008,4.752,1.4399c2.592,0,5.256,0,7.92,0c3.744-1.2241,7.488-2.52,11.304-3.816
		c2.16-0.072,4.32-0.144,6.48-0.216c1.656,0.288,3.312,0.576,5.04,0.936c2.16,0.936,2.16,0.936,4.32,2.52
		c0.072,0.288,0.216,0.6479,0.36,1.008c-0.072,0.288-0.144,0.576-0.288,0.936c-4.896,3.816-4.896,3.816-10.656,7.7039
		c-5.472,3.096-11.016,6.264-16.56,9.432c-1.008,1.152-2.016,2.376-3.096,3.6c-0.432,0.936-0.864,1.872-1.368,2.808
		c-0.072,1.8-0.144,3.6-0.216,5.472c0.288,1.296,0.576,2.592,0.936,3.888c0.648,1.008,1.296,2.016,1.944,3.096
		c0.288,0.864,0.576,1.728,0.936,2.664c1.944,2.88,1.944,2.88,4.824,8.136c1.44,4.536,1.44,4.536,2.376,8.64
		c1.872,4.824,3.816,9.72,5.76,14.6161c0,0.792,0,1.584,0,2.448c1.008,2.16,1.008,2.16,2.448,7.2c0,0.36,0,0.72,0,1.152
		c-0.576,0.576-1.152,1.152-1.728,1.728c-1.728,0.576-3.528,1.152-5.328,1.728c-3.8881,1.944-3.8881,1.944-9.144,3.888
		c-2.16,0.576-4.32,1.224-6.48,1.872c-5.976,1.008-5.976,1.008-11.304,2.448c-0.216,0.144-0.432,0.36-0.72,0.576
		c-0.288,0.792-0.576,1.584-0.8641,2.448c0.72,2.376,0.72,2.376,2.6641,6.912c1.08,2.088,2.232,4.176,3.384,6.264
		c1.224,3.96,2.52,7.992,3.816,12.024c5.7599,27.576,5.7599,27.576,6.264,29.016c1.8719,12.024,3.816,21.816,5.76,35.064
		c0.144,2.52,0.288,5.04,0.432,7.632c0.6479,4.392,1.296,8.784,1.944,13.248c0.216,4.536,0.216,4.536,0,6.696
		c0.144,0.216,0.288,0.432,0.504,0.72c0.432,3.816,0.432,3.816,0.936,5.04c-0.072,0.504-0.144,1.08-0.216,1.656
		c-7.704,12.96-7.704,12.96-9.648,16.848c-0.432,1.4399-1.4399,2.8799-3.312,7.416c-1.944,3.816-1.944,3.816-3.384,7.704
		c-0.072,0.936-0.144,1.872-0.216,2.88c0.144,0.864,0.288,1.728,0.432,2.592c0.72,1.296,1.44,2.592,2.16,3.888
		c0,0.288,0,0.576,0,0.936c-0.504,0.72-1.0801,1.44-1.656,2.16c-0.504,0.288-1.08,0.576-1.656,0.936
		c-1.944,2.88-1.944,2.88-4.32,7.2c-1.008,5.04-1.008,5.04-1.44,9.864c0.072,1.8,0.144,3.672,0.216,5.544
		c0.288,2.016,0.576,4.104,0.936,6.192c1.296,5.688,2.592,11.376,3.888,17.064c0.288,2.52,0.576,5.112,0.936,7.704
		c0.072,2.16,0.144,4.32,0.216,6.48c0.504,0.72,0.504,0.72,1.368,1.152c-1.08,1.008-2.232,2.016-3.384,3.024
		C264.024,407.376,263.376,407.6639,262.728,407.952L262.728,407.952z M268.92,402.48c-0.576-4.824-1.152-9.648-1.8-14.472
		c-3.816-17.496-3.816-17.496-4.32-18.936c-0.504-4.104-0.504-4.104-0.504-9.864c0.288-2.304,0.6479-4.608,1.008-6.984
		c1.872-4.032,1.872-4.032,3.816-7.2c2.376-1.872,2.376-1.872,3.24-3.024c0.288,0,0.648,0,1.0081,0
		c0.936,1.08,0.936,1.08,1.512,2.592c0.072,1.728,0.144,3.456,0.216,5.256c0.504,1.944,0.504,1.944,1.44,3.6
		c0.72,0.648,1.4399,1.296,2.16,1.944c0.7921,1.08,1.584,2.16,2.448,3.312c0.936,4.608,0.936,4.608,1.872,13.248
		c0.072,1.944,0.144,3.96,0.288,5.976c-0.144,2.304-0.288,4.608-0.504,6.984c-0.6479,2.736-1.296,5.544-1.944,8.352
		c-1.2241,1.44-2.52,2.88-3.816,4.32c-1.728,1.584-3.456,3.168-5.256,4.824C269.496,402.408,269.208,402.408,268.92,402.48
		L268.92,402.48z M234.36,361.2239c-1.44-0.504-2.88-1.08-4.32-1.656c-1.0081-0.648-2.016-1.296-3.096-1.944
		c-0.648-0.648-1.296-1.296-1.944-1.944c-1.656-0.936-1.656-0.936-3.312-1.44c-0.792,0-1.584,0-2.448,0
		c-1.872,0.792-3.816,1.584-5.76,2.448c-1.872-0.288-1.872-0.288-2.88-0.72c-0.504-0.792-1.008-1.656-1.584-2.52
		c0-0.792,0-1.584,0-2.376c0.288-0.72,0.648-1.44,1.008-2.16c0.576-0.72,1.224-1.44,1.872-2.16c2.232-1.728,4.464-3.528,6.768-5.328
		c0.432-1.152,1.44-2.16,1.872-3.096c0.648-0.36,0.648-0.36,1.584-0.36c0.648,0.288,1.296,0.576,1.944,0.936
		c1.944,0.072,3.96,0.144,5.976,0.216c1.6559-0.144,3.312-0.288,5.04-0.432c2.232-0.576,4.464-1.152,6.768-1.728
		c1.008,0,2.016,0,3.096,0c0.432,0.288,0.936,0.648,1.44,1.008c0.144,0.432,0.36,0.864,0.576,1.296
		c-0.216,3.6-0.216,3.6-1.224,9.144c-0.432,0.936-0.432,0.936-0.936,4.104c-0.648,1.44-1.296,2.88-1.944,4.32
		c-1.872,2.376-1.872,2.376-2.952,3.312c-0.648,0.288-1.296,0.576-1.944,0.864C236.808,361.08,235.584,361.152,234.36,361.2239
		L234.36,361.2239z M233.928,358.56c-1.584-0.648-3.168-1.296-4.824-2.016c-1.224-1.152-2.52-2.304-3.816-3.456
		c-0.792-0.36-1.584-0.792-2.448-1.224c-1.728,0.072-3.456,0.144-5.256,0.216c-1.656,1.008-1.656,1.008-4.104,1.944
		c-0.5041-0.072-1.08-0.144-1.656-0.216c-0.216-0.36-0.432-0.72-0.648-1.08c0-0.432,0-0.936,0-1.44
		c0.648-0.936,1.296-1.872,1.944-2.88c2.448-1.872,4.896-3.744,7.344-5.688c0.36-0.144,0.792-0.288,1.224-0.432
		c0.216-0.36,0.432-0.72,0.72-1.08c0.72-0.144,3.096,0.36,6.48,0.36c3.312-0.36,6.696-0.792,10.08-1.224
		c0.864-0.288,1.728-0.576,2.592-0.936c1.08,0,2.16,0.072,3.24,0.144c-0.072,1.152-0.144,2.376-0.216,3.6
		c-0.648,3.024-1.296,6.048-1.944,9.072c-1.44,3.168-1.944,3.6-2.376,4.608c-0.576,0.432-1.152,0.936-1.8,1.44
		C237.24,358.56,237.24,358.56,233.928,358.56L233.928,358.56z M285.984,291.024c-0.936-4.104-1.872-8.28-2.808-12.456
		c-0.936-7.92-0.936-7.92-1.152-13.68c-4.3199-26.136-4.3199-26.136-4.824-27.576c-0.288-2.592-0.576-5.256-0.936-7.92
		c-1.872-9.36-3.816-18.72-5.7601-28.08c-0.6479-2.304-1.296-4.608-1.944-6.984c-1.224-3.384-2.52-6.84-3.816-10.296
		c-1.584-3.312-3.168-6.696-4.824-10.08c0-0.576,0.072-1.152,0.144-1.728c2.8799-0.864,2.8799-0.864,12.24-2.736
		c2.16-0.648,4.32-1.296,6.48-1.944c4.968-1.8,9.936-3.672,14.904-5.544c0.288,0,0.576,0.072,0.936,0.144
		c0.432,2.592,0.864,5.256,1.296,7.92c0.36,0.72,0.7921,1.44,1.224,2.16c0.936,6.264,1.44,7.488,3.816,24.048
		c0,7.632,0,7.632-0.216,9.072c0.144,0.288,0.288,0.648,0.432,1.008c-0.216,8.496-0.432,17.064-0.72,25.632
		c-1.872,17.28-1.872,17.28-2.376,25.704c-0.936,4.1039-0.936,4.1039-3.816,12.96c-0.504,0.504-6.264,16.776-7.704,20.16
		C286.416,290.88,286.2,290.952,285.984,291.024L285.984,291.024z M253.8,259.632c-0.576-1.656-1.152-3.312-1.8-5.04
		c-1.944-3.6-3.816-7.92-7.704-15.12c-0.576-1.44-1.224-2.88-1.872-4.32c-2.088-3.096-4.1761-6.192-6.264-9.36
		c-1.368-1.584-2.736-3.168-4.104-4.8239c-2.52-3.744-5.04-7.488-7.632-11.304c-1.7281-1.656-1.7281-1.656-3.888-4.536
		c-1.44-1.368-2.88-2.736-4.32-4.104c-1.8-2.016-3.6-4.104-5.472-6.192c-0.72,0-1.512-0.072-2.304-0.144
		c-3.312-3.888-3.312-3.888-4.536-4.968c-0.936-1.512-1.872-3.096-2.88-4.68c-4.104-4.536-8.28-9.072-12.456-13.68
		c-3.168-2.736-6.408-5.544-9.648-8.352c-1.872-2.16-1.872-2.16-8.64-8.208c-0.936-1.08-1.872-2.16-2.88-3.312
		c-3.816-5.76-3.816-5.76-7.56-10.656c-0.288-1.8-0.576-3.672-0.936-5.544c-1.44-2.664-1.44-2.664-3.384-5.256
		c-2.376-2.088-4.824-4.248-7.272-6.408c-1.944-0.72-1.944-0.72-4.3199-0.936c-2.448-0.936-4.968-1.872-7.488-2.88
		c-1.44-1.008-2.88-2.0161-4.32-3.024c-1.872-2.304-1.872-2.304-3.744-5.256c-0.288-0.7921-0.576-1.584-0.936-2.376
		c-0.072-0.864-0.144-1.728-0.216-2.664c0.936-2.88,0.936-2.88,1.872-7.2c0.504-4.32,0.504-4.32,1.008-6.48
		c0.144-2.952,0.288-5.904,0.432-8.856c-0.0721-3.1679-0.144-6.408-0.216-9.648c-0.144-1.008-0.36-2.016-0.576-3.096
		c0.936,0.072,1.872,0.216,2.88,0.36c8.352,3.168,16.776,6.3359,25.2,9.576c4.824,2.376,5.256,2.88,5.976,3.096
		c5.04,3.8879,5.04,3.8879,7.92,5.7599c7.2,6.048,7.2,6.048,8.208,6.48c2.952,2.808,5.904,5.616,8.856,8.424
		c0.072,0.504,0.216,1.008,0.36,1.584c2.16,1.872,4.32,3.816,6.48,5.76c3.816,4.104,3.816,4.104,12.24,12.024
		c2.592,2.88,5.256,5.76,7.92,8.64c3.24,4.464,6.48,8.928,9.792,13.392c3.528,5.976,7.056,11.952,10.584,18
		c0.936,2.448,1.44,2.88,2.88,6.984c0.072,0.504,0.144,1.08,0.216,1.656c3.888,7.92,3.888,7.92,5.76,12.528
		c1.296,4.104,2.592,8.28,3.888,12.456c0.936,3.96,1.872,7.992,2.88,12.024c0.432,2.88,0.936,5.76,1.44,8.64
		c0.432,6.696,0.432,6.696,1.44,13.896c0.144,4.824,0.288,9.72,0.432,14.616c-0.216,4.032-0.432,8.136-0.72,12.24
		C254.232,259.416,254.016,259.4879,253.8,259.632L253.8,259.632z M143.424,155.808c-0.864-0.648-1.728-1.2961-2.664-1.944
		c-3.816-3.816-3.816-3.816-5.76-6.336c-1.728-3.384-3.456-6.84-5.184-10.2961c-0.432-1.728-0.432-1.728-5.256-14.184
		c-0.072-0.648-0.216-1.296-0.36-1.944c1.224,0.36,4.32,2.304,8.64,4.176c1.224,1.008,1.224,1.008,5.04,2.88
		c0.216,0.432,0.432,0.936,0.72,1.44c0.72-0.072,1.44-0.144,2.16-0.216c1.296,0.936,2.592,1.872,3.888,2.88
		c0.72,1.728,1.44,3.456,2.232,5.184c-0.072,2.448-0.144,4.896-0.216,7.416c0.216,0.144,0.504,0.288,0.792,0.504
		c0,0.936,0.072,1.872,0.144,2.88c-0.72,3.816-0.72,3.816-1.656,6.2639c-0.288,0.432-0.576,0.864-0.864,1.2961
		C144.576,155.808,144,155.808,143.424,155.808L143.424,155.808z M98.784,140.904c-0.864-0.288-1.728-0.576-2.664-0.936
		c-0.792-0.576-1.656-1.152-2.52-1.8c0.072-1.08,0.144-2.232,0.216-3.384c1.512-6.768,3.024-13.536,4.608-20.376
		c0.144-3.24,0.288-6.552,0.432-9.864c-0.144-1.656-0.288-3.312-0.432-5.04c-0.648-1.944-1.296-3.96-1.944-5.976
		c-0.288-0.432-0.576-0.936-0.936-1.44c-0.72-0.576-1.512-1.152-2.304-1.8c-2.16,0-2.16,0-3.312,0.4319
		c-0.792,0.6481-1.584,1.2961-2.448,1.944c-0.864,1.224-1.8,2.448-2.736,3.744c-0.504,1.656-0.504,1.656-0.864,2.016
		c-0.288-0.072-0.576-0.216-0.864-0.36c-0.072-3.888-0.144-7.776-0.216-11.736c0.288-5.04,0.576-10.08,0.936-15.12
		c1.008-5.256,2.448-9.864,4.32-18.2159c0.936-2.952,1.872-5.9041,2.88-8.928c1.008-1.6561,1.008-1.6561,2.88-6.912
		c1.296-2.088,2.592-4.176,3.888-6.2639c0.792-0.864,1.584-1.728,2.376-2.664c1.152-0.5041,2.304-1.0081,3.528-1.584
		c1.296,0,2.664,0,4.032,0c2.016,0.648,4.032,1.296,6.048,1.944c3.096,1.944,3.096,1.944,4.032,2.88
		c0.864,1.584,0.864,1.584,0.864,2.3041c-0.288,0.2159-0.864,0.0719-2.52,0.792c-0.216-0.2161-0.216-0.2161-1.224,0
		c-0.144,0.432-0.36,0.864-0.576,1.368c0.36,4.4639,0.72,8.928,1.152,13.4639c1.944,11.2321,1.944,11.2321,3.888,26.3521
		c0.144,4.32,0.288,8.64,0.432,12.96c-0.36,4.32-0.72,8.64-1.152,12.96c-1.296,4.536-2.592,9.072-3.888,13.68
		c-3.816,10.584-3.816,10.584-6.192,16.344c-0.936,1.584-1.872,3.168-2.88,4.8239c-0.648,0.72-1.368,1.44-2.088,2.16
		c-1.224,0.72-2.52,1.44-3.816,2.232C99.432,140.904,99.144,140.904,98.784,140.904L98.784,140.904z M90.144,133.2
		c-0.936-1.44-1.872-2.88-2.808-4.392c-0.936-2.376-1.872-6.48-2.16-6.696c-0.432-6.768-0.72-7.704-1.152-12.528
		c-0.216-0.36-0.432-0.72-0.72-1.152c0.072-1.152,0.144-2.376,0.216-3.6c0.288-0.288,0.576-0.648,0.936-1.008
		c0.648-1.584,1.296-3.168,1.944-4.752c0.648-0.792,1.296-1.584,1.944-2.448c0.288-0.72,0.576-1.44,0.936-2.16
		c0.576-0.432,1.152-0.864,1.8-1.296c0.432-0.072,0.936-0.144,1.44-0.288c0.288,0.144,0.648,0.288,1.008,0.5039
		c0.288,0.576,0.576,1.152,0.936,1.8c0.576,2.232,1.152,4.464,1.8,6.768c0.072,2.952,0.144,5.904,0.216,8.856
		c-0.288,2.232-0.576,4.464-0.936,6.696c-1.08,4.392-2.232,8.784-3.384,13.248c-0.432,0.792-0.864,1.584-1.296,2.448
		C90.648,133.2,90.432,133.2,90.144,133.2L90.144,133.2z M80.064,78.048c-1.224-1.296-2.52-2.592-3.816-3.888
		c-9.864-7.92-9.864-7.92-15.12-11.736c-0.792-0.288-1.584-0.576-2.448-0.936c-0.36-0.2881-0.72-0.6481-1.152-1.008
		c-4.608-2.5201-9.288-5.04-13.968-7.632c-0.36-0.288-0.72-0.6481-1.152-1.0081c-5.328-2.376-5.328-2.376-7.2-3.5999
		c-1.08-0.288-2.232-0.576-3.384-0.936c-1.224-0.6481-2.52-1.296-3.816-1.944c-1.8-0.576-3.672-1.2241-5.544-1.872
		c-8.136-3.888-8.136-3.888-11.52-5.76c-2.16-2.088-2.16-2.088-3.96-4.464c-0.36-0.792-0.792-1.584-1.224-2.376
		c0-1.08,0-2.2321,0-3.384c0.144-0.216,0.288-0.432,0.504-0.72c2.52-0.864,2.52-0.864,6.624-1.8
		c1.728-0.144,3.456-0.288,5.256-0.504c3.024,0,6.048,0,9.144,0c3.096-0.432,3.096-0.432,9.072-0.432
		c1.08-0.288,2.232-0.648,3.384-1.008c1.584-1.224,3.168-2.52,4.824-3.816c2.88-1.872,5.76-3.816,8.64-5.7601
		c2.16-0.936,3.6-1.944,7.92-3.816C62.28,9.36,63.504,9,64.728,8.64c3.744-0.576,7.488-1.224,11.232-1.8719
		c7.2-0.504,7.2-0.504,12.744-0.504c1.44,0.072,2.88,0.216,4.32,0.36c0.72,1.872,1.44,3.816,2.232,5.76c0,0.5759,0,1.152,0,1.728
		c0.288,0.7919,0.648,1.584,1.008,2.376c0.504,2.952,1.08,5.9039,1.656,8.856c-0.288,0.36-0.576,0.792-0.936,1.2241
		c-0.144,0.6479-0.288,1.296-0.504,1.9439c-1.224,1.9441-2.52,3.9601-3.816,5.9761c-1.296,3.0239-2.592,6.048-3.888,9.144
		c-1.224,3.96-2.52,7.92-3.816,11.952c-0.936,5.3281-1.44,6.264-1.656,7.488c-0.144,0.216-0.288,0.432-0.504,0.72
		c-0.432,2.52-0.936,5.04-1.44,7.632c-0.144,2.0161-0.288,4.032-0.504,6.048C80.28,78.192,80.28,78.192,80.064,78.048L80.064,78.048
		z M225.72,75.384c-1.44-0.216-1.44-0.216-3.312-1.224c-0.504-0.72-0.504-0.72-10.368-8.352c-5.976-3.888-5.976-3.888-8.3521-5.76
		c-2.088-2.304-2.088-2.304-2.592-3.4561c-0.288-2.2319-0.576-4.4639-0.936-6.768c-0.288-1.08-0.576-2.1599-0.936-3.312
		c-0.144-1.6559-0.288-3.312-0.504-5.0399c-0.216-0.936-0.504-1.872-0.792-2.8801c0.504,0.0721,1.08,0.144,1.656,0.2881
		c1.152,0.6479,2.376,1.296,3.6,1.9439c2.52,1.8721,5.112,3.816,7.704,5.76c2.016,1.2241,4.104,2.5201,6.192,3.816
		c2.448,1.0079,2.448,1.0079,4.824,2.448c3.096,0.936,3.096,0.936,7.704,1.8719c11.736,0.7201,13.392,1.0081,29.52,1.728
		c12.456,0.2161,12.456,0.2161,20.88,0.72c1.728,0.288,3.456,0.576,5.256,0.936c1.1519,0.504,2.376,1.08,3.6,1.6559
		c1.8,0.288,3.672,0.6479,5.544,1.0081c1.728,0.5759,3.456,1.224,5.256,1.8719c3.384,1.944,3.384,1.944,5.256,3.528
		c1.08,1.7999,2.16,3.6719,3.2401,5.5439c0,0.4321,0,0.936,0,1.44c-0.072,0.0721-0.216,0.144-0.36,0.2161
		c-3.0959-1.8-3.0959-1.8-5.76-2.808c-1.2239-0.2161-2.52-0.432-3.816-0.7201c-4.824,0-4.824,0-9.36,0.504
		c-2.88,1.08-5.76,2.2321-8.64,3.384c-1.944,0.216-1.944,0.216-9.576,0.216c-8.496-2.304-16.992-4.608-25.488-6.9841
		c-0.72,0-1.44,0-2.16,0c-1.008,0.2881-2.016,0.6481-3.096,1.008c-0.288,0.36-0.576,0.7201-0.864,1.0801
		c-0.072,0.864-0.144,1.728-0.216,2.6639c-0.576,0.4321-1.152,0.936-1.8,1.44c-1.368,0.576-2.736,1.152-4.104,1.7281
		C230.544,75.0239,228.168,75.168,225.72,75.384L225.72,75.384z M168.12,50.9039c-4.536-1.944-4.536-1.944-12.456-4.824
		c-4.536-1.2239-9.072-2.5199-13.68-3.8159c-8.856-1.944-8.856-1.944-11.7361-2.88c-3.384-1.944-3.384-1.944-6.048-3.816
		c-2.16-2.1601-2.16-2.1601-4.032-4.824c-1.152-1.08-2.376-2.2321-3.6-3.384c-2.448-0.936-4.104-1.872-7.488-2.88
		c-0.936-0.144-1.872-0.288-2.88-0.432c-1.944,0.144-3.96,0.288-5.976,0.432c-0.864-2.4481-1.8-7.488-3.528-13.752
		c0-0.36,0-0.792,0-1.224c0.792-0.576,1.584-1.2241,2.448-1.872c2.736-0.144,2.736-0.144,7.344,0.288
		c0.72,0.288,1.44,0.648,2.16,1.008c1.872,0.288,3.816,0.576,5.76,0.936c2.448,0.6479,4.896,1.296,7.416,1.944
		c1.44,0.144,2.88,0.288,4.32,0.432c4.824,1.44,4.824,1.44,5.544,1.944c0.0721,0.648,0.144,1.368,0.216,2.088
		c-0.216,0.0721-0.432,0.144-0.72,0.2161c0.216,0.504,0.432,1.08,0.72,1.656c0.144-0.072,0.288-0.216,0.504-0.36
		c0.432,0.144,0.936,0.288,1.44,0.504c0.72-0.504,0.72-0.504,2.592-1.0081c0.216-0.2159,0.432-0.4319,0.72-0.7199
		c1.08,0.072,2.232,0.1439,3.384,0.288c3.816,1.224,7.632,2.52,11.52,3.816c5.544,2.1599,11.16,4.392,16.776,6.624
		c0.576,2.88,1.584,5.544,2.304,8.64c0,1.872,0,3.816,0,5.76c-1.008,6.696-1.008,6.696-1.8,9.2159
		C168.984,50.9039,168.552,50.9039,168.12,50.9039L168.12,50.9039z M66.168,45.864c-3.096-0.648-6.192-1.296-9.36-1.944
		c-14.4-3.816-14.4-3.816-20.664-5.76c-5.04-0.936-12.24-2.8801-22.104-4.7521c-0.144-0.0719-0.36-0.2159-0.576-0.3599
		c0-0.288,0.072-0.648,0.144-1.008c0.792-0.36,1.584-0.72,2.376-1.0801c2.448,0.2161,4.896,0.432,7.416,0.7201
		c4.608,0.936,9.288,1.872,13.968,2.88c0.576,0.288,1.224,0.6479,1.872,1.008c1.44,0.144,2.88,0.288,4.32,0.432
		c1.728-0.072,3.528-0.144,5.328-0.216c3.096-0.936,3.096-0.936,8.64-1.9441c5.256-1.872,5.256-1.872,7.92-2.376
		c1.512,0.072,3.024,0.144,4.536,0.2161c1.152,0.6479,2.376,1.296,3.6,1.944c0.648,0.6479,1.296,1.296,1.944,2.016
		c0.648,1.296,1.296,2.592,2.016,3.8879c0,0.7201,0,1.44,0,2.1601c-0.288,0.504-0.648,1.08-1.008,1.6559
		c-0.432,0.288-0.864,0.6481-1.296,1.0081c-1.224,0.504-2.52,1.008-3.816,1.512C69.696,45.864,67.968,45.864,66.168,45.864
		L66.168,45.864z M70.488,41.7599c-0.144-1.152-0.288-2.304-0.504-3.456c0.72,0.072,1.44,0.216,2.16,0.36
		c0.432,0.288,0.936,0.576,1.44,0.936c0,0.4319,0,0.864,0.072,1.3679C71.424,41.7599,71.424,41.7599,70.488,41.7599L70.488,41.7599z
		 M64.44,41.3279c-2.16-0.576-4.32-1.152-6.48-1.8c0-0.2159,0-0.432,0-0.7199c1.656-0.288,3.312-0.576,5.04-0.864
		c0.864,0,1.728,0.072,2.664,0.144c0.36,0.72,0.36,0.72,0.36,2.16c-0.144,0.288-0.288,0.5759-0.504,0.936
		C65.16,41.184,64.8,41.256,64.44,41.3279L64.44,41.3279z"/>
</g>
</svg>
