<?xml version="1.0" encoding="utf-8"?>
<!-- Generator: Adobe Illustrator 21.1.0, SVG Export Plug-In . SVG Version: 6.00 Build 0)  -->
<svg version="1.1" id="Ea" xmlns="http://www.w3.org/2000/svg" xmlns:xlink="http://www.w3.org/1999/xlink" x="0px" y="0px"
	 viewBox="0 0 532.08 369.648" enable-background="new 0 0 532.08 369.648" xml:space="preserve">
<g>
	<path fill-rule="evenodd" clip-rule="evenodd" d="M192.6,369.648c-1.008-0.288-2.016-0.648-3.096-1.008
		c-0.648-0.432-1.296-0.936-1.944-1.44c-1.152,0-1.152,0-5.472,1.44c-1.44,0-2.88,0-4.32,0c-0.576-0.144-1.152-0.288-1.728-0.432
		c-2.88-1.944-2.88-1.944-5.04-3.96c-0.288-0.504-0.576-1.08-0.864-1.656c0-1.368,0.072-2.736,0.144-4.104
		c-5.04,0.36-5.04,0.36-11.952,0.36c-1.8-0.936-3.672-1.872-5.544-2.88c-1.224-1.368-2.448-2.736-3.744-4.176
		c-0.072-0.432-0.144-0.936-0.216-1.44c0.504-1.584,1.008-3.168,1.584-4.824c-3.816,0.576-7.632,1.152-11.52,1.8
		c-0.936,0-1.872,0-2.88,0c-1.728-0.288-3.528-0.648-5.328-1.008c-1.44-0.72-2.88-1.44-4.32-2.16
		c-0.576-0.648-1.224-1.296-1.872-2.016c-0.432-0.792-0.864-1.584-1.368-2.376c-0.072-0.864-0.216-1.728-0.36-2.664
		c-1.872-0.072-3.816-0.216-5.76-0.36c-0.936-0.648-1.872-1.296-2.88-1.944c-0.864-1.008-1.8-2.088-2.736-3.168
		c-0.504-2.16-0.504-2.16-0.504-4.608c0.936-1.656,0.936-1.656,3.384-4.32c0-0.288,0.072-0.576,0.144-0.936
		c-0.864-0.072-1.728-0.216-2.664-0.36c-2.16-2.16-2.16-2.16-2.88-2.448c0-1.224-0.072-2.448-0.144-3.672
		c0.432-1.44,0.936-2.88,1.44-4.32c4.32-3.816,4.32-3.816,7.704-7.2c3.96-1.8,3.96-1.8,5.616-2.808
		c1.368-0.288,2.736-0.576,4.104-0.936c0.504-0.288,1.08-0.576,1.656-0.936c1.008-1.368,1.008-1.368,1.8-3.024
		c0.36-0.288,0.792-0.576,1.224-0.936c4.464-1.8,4.464-1.8,5.904-2.808c1.728-0.288,3.456-0.576,5.256-0.936
		c2.16-0.936,2.16-0.936,7.416-2.16c5.76-0.288,11.52-0.576,17.28-0.936c2.088-0.36,4.176-0.792,6.264-1.224
		c1.656-0.648,3.312-1.296,5.04-1.944c1.44-0.936,2.88-1.872,4.32-2.88c0.288-0.36,0.576-0.72,0.936-1.08
		c-0.432-0.576-0.432-0.576-1.44-1.08c-2.376-0.432-2.376-0.432-8.352-0.936c-2.448,0-4.968,0-7.488,0
		c-0.72-0.648-1.44-1.296-2.16-1.944c-0.144-0.504-0.36-1.008-0.576-1.512c-0.576-0.36-0.576-0.36-2.736-0.36
		c-2.448,0.432-2.448,0.432-3.168,0.216c-0.36-0.72-0.72-1.44-1.08-2.2321c-0.288-0.144-0.576-0.288-0.864-0.504
		c-0.864,0-1.728-0.072-2.592-0.144c-1.44,0.432-2.88,0.936-4.32,1.44c-0.792-0.0721-1.584-0.144-2.376-0.216
		c-0.36-0.504-0.72-1.008-1.152-1.584c-0.936-5.0399-0.936-5.0399-1.296-5.904c-0.36,0-0.72,0-1.152,0
		c-1.728,1.008-1.728,1.008-3.888,1.728c-0.936,0-1.872,0-2.88,0c-0.936-0.648-1.872-1.296-2.88-1.944
		c-0.288-0.504-0.576-1.008-0.864-1.512c-0.288-1.296-0.576-2.592-0.936-3.888c-0.792-0.36-0.792-0.36-5.616-1.296
		c-1.368-0.648-2.736-1.296-4.104-1.944c-5.04-4.104-5.04-4.104-5.976-5.184c-0.288-1.008-0.576-2.016-0.864-3.096
		c-0.144-1.5121-0.288-3.024-0.504-4.536c0.72-2.664,0.72-2.664,1.224-3.6c0-0.288,0-0.648-0.072-1.008
		c-1.728-1.296-1.728-1.296-7.488-4.176c-2.304-1.728-4.608-3.456-6.912-5.256c-0.432-0.864-0.864-1.8-1.368-2.736
		c0.072-1.8,0.144-3.672,0.216-5.544c-3.312-2.88-4.176-3.24-6.768-5.688c-2.16-2.592-2.16-2.592-3.384-3.6
		c-1.8-2.736-1.8-2.736-2.304-4.176c-0.216-2.376-0.216-2.376,0-6.696c-1.152-0.576-2.304-1.152-3.456-1.8
		c-2.376-2.16-2.376-2.16-4.104-3.24c-0.288-0.792-0.576-1.584-0.864-2.376c0.216-1.656,0.432-3.312,0.72-5.04
		c0.432-0.36,0.864-0.72,1.368-1.152c1.44-0.144,2.88-0.36,4.32-0.576c-0.36-0.504-0.792-1.008-1.224-1.584
		c-3.816-1.872-3.816-1.872-5.256-2.952c-0.072-0.288-0.216-0.576-0.36-0.936c0.144-2.016,0.288-4.032,0.432-6.0479
		c-6.552-3.744-8.928-4.68-10.368-5.6161c-0.648-0.72-1.368-1.512-2.088-2.304c-0.504-1.44-0.504-1.44-0.504-3.096
		c0.288-1.656,0.648-3.312,1.008-5.04c-1.08-0.576-2.16-1.152-3.24-1.8c-0.792-0.648-1.584-1.296-2.376-1.944
		c-0.36-0.648-0.72-1.296-1.152-2.016c0-0.864,0-1.728,0-2.664c1.008-3.312,1.008-3.312,1.44-4.032
		c0.36-0.288,0.72-0.576,1.152-0.864c3.312-0.504,3.312-0.504,3.6-0.864c-2.448-1.296-4.968-2.592-7.488-3.96
		c-1.872-1.224-3.816-2.52-5.76-3.816c-4.752-4.104-4.752-4.104-9.36-8.568c-0.144-0.576-0.36-1.224-0.576-1.872
		c0.288-1.08,0.576-2.232,0.936-3.384c0.36-0.504,0.72-1.08,1.08-1.656c0.72-0.36,0.72-0.36,2.448-0.36
		c0.576,0.288,1.224,0.576,1.872,0.936c0.288,0.36,0.648,0.792,1.008,1.224c0.576,0.288,1.224,0.576,1.872,0.936
		c1.296,0.072,2.592,0.144,3.888,0.216c0.432-0.432,0.936-0.864,1.44-1.296c-6.768-3.96-6.768-3.96-13.248-7.344
		c-3.312-1.44-5.04-1.872-5.472-2.376c-2.376-1.368-4.752-2.736-7.2-4.1039c-4.104-3.2401-4.104-3.2401-4.968-4.392
		c-0.144-0.792-0.288-1.584-0.504-2.376c-1.944-1.296-3.96-2.592-5.976-3.888c-4.608-3.888-9.216-7.776-13.896-11.736
		c-0.36-0.504-0.792-1.08-1.224-1.656c0.072-0.936,0.144-1.872,0.216-2.88c0.288-1.008,0.648-2.088,1.008-3.168
		c0.576-0.36,0.576-0.36,2.304-0.576c1.656,0.936,5.04,3.816,6.192,4.3199c0.72,0.0721,1.44,0.216,2.16,0.36
		c0.72,0.576,0.72,0.576,3.384,1.296c0.216-0.36,0.216-0.36-0.216-0.936c-0.36-0.144-0.792-0.288-1.224-0.504
		c-0.936-1.224-0.936-1.224-2.16-2.16c-0.72-0.288-1.44-0.576-2.16-0.936c-2.664-1.944-4.536-3.888-5.544-4.32
		c-0.072-0.288-0.216-0.576-0.36-0.864c-1.656-1.584-3.312-3.168-5.04-4.752c-0.936-1.512-1.872-3.024-2.88-4.608
		c-0.648-1.512-1.296-3.024-1.944-4.5361c0-0.504,0-1.08,0-1.6559c0.432-1.152,0.936-2.376,1.44-3.6
		c0.216-0.144,0.432-0.288,0.648-0.4321c0.648,0,1.296,0,1.944,0c1.44,1.008,3.6,3.384,8.352,7.2
		c0.936,0.648,1.872,1.2961,2.88,1.944c4.104,1.44,4.824,1.944,6.264,2.376c0.216,0.288,2.664,0.72,5.544,2.16
		c0.936,0.144,1.872,0.288,2.88,0.504c0.432,0.504,2.16,0.936,4.32,1.944c0.36,0,0.72,0.072,1.152,0.144
		c-0.072-0.36-0.216-0.792-0.36-1.224c-1.8-1.224-3.6-2.448-5.4-3.744c-4.32-3.816-6.696-6.264-9.072-8.136
		c-10.584-10.8-11.52-12.168-13.968-14.4c-2.16-2.5921-4.392-5.184-6.624-7.7761C0.144,37.08,0.072,36.288,0,35.424
		c0.288-0.72,0.576-1.44,0.936-2.1601c0.504-0.504,1.008-1.0079,1.584-1.584c0.36,0,0.792,0,1.224,0
		c0.504,0.36,1.08,0.72,1.656,1.08c3.888,4.4641,3.888,4.4641,5.328,5.688c0.936,0,1.872-0.504,4.032-1.008
		c0.072-0.072,0.144-0.2159,0.288-0.3599c-1.872-3.528-1.872-3.528-2.808-5.976c-0.504-2.16-0.504-2.16-0.504-4.752
		c-1.872-3.888-5.76-10.8-7.2-14.184c-0.072-0.72-0.144-1.44-0.216-2.16C6.264,6.192,6.264,6.192,6.84,5.7599
		c0.432,0,0.936,0,1.44,0c0.504,0.504,0.504,0.504,3.6,1.728c0.648,1.224,1.296,2.4479,1.944,3.672
		c1.944,2.6639,3.96,5.328,5.976,8.064c4.824,4.32,6.768,6.48,10.8,9.864c1.296,0.576,2.592,1.224,3.888,1.872
		c1.728,1.296,3.456,2.592,5.256,3.888c1.224,0.576,2.52,1.2239,3.816,1.8719c2.664,1.944,8.928,5.76,9.864,6.048
		c0.36-0.36,0.36-0.36,0.576-2.304c-0.288-0.864-0.576-1.728-0.936-2.592c-4.104-6.048-6.048-9.6479-6.984-10.8
		c-0.936-1.8-1.872-3.672-2.88-5.5439c-0.936-2.88-0.936-2.88-1.944-4.5361c-0.936-1.0079-1.872-2.8799-2.88-4.104
		c-1.44-2.88-1.44-2.88-2.376-5.76c-0.072-0.9359-0.144-1.8719-0.216-2.88C37.224,0.648,37.224,0.648,37.8,0
		c0.576,0,1.152,0,1.728,0c0.36,0.144,0.72,0.288,1.152,0.5039c0.504,1.008,1.08,2.0161,1.656,3.0241
		c0.432,0.2879,0.864,0.576,1.368,0.936c1.872,2.808,3.816,5.616,5.76,8.424c2.376,2.5201,4.752,5.1121,7.2,7.704
		c1.08,1.512,2.16,3.024,3.312,4.5359c0.36,0.2881,0.792,0.576,1.224,0.936c1.224,1.584,2.52,3.168,3.816,4.824
		c4.104,4.104,4.104,4.104,7.2,7.704c1.584,1.296,3.168,2.664,4.824,4.032c1.368,1.4399,2.736,2.8799,4.104,4.3199
		c4.752,3.888,5.256,4.608,23.76,20.16c7.2,5.616,14.4,11.232,21.672,16.848c1.368,0.72,2.736,1.44,4.104,2.232
		c0.36,0.072,0.792,0.144,1.224,0.216c0-1.584-0.072-3.24-0.144-4.896c1.44-4.032,1.44-4.032,1.944-4.536
		c0.72,0,1.512-0.072,2.304-0.144c1.872,1.44,1.872,1.44,3.312,1.944c1.008,1.512,1.008,1.512,1.8,3.744
		c0.432,0.432,0.864,0.936,1.296,1.44c0.576,0.216,1.152,0.504,1.728,0.792c1.008,0.936,2.016,1.872,3.096,2.88
		c0.576,0.792,1.152,1.656,1.8,2.52c2.376,2.16,2.376,2.16,4.536,4.608c4.608,3.816,5.04,4.536,12.24,10.512
		c5.688,3.96,5.688,3.96,8.568,6.48c1.08,1.152,2.232,2.376,3.384,3.6c0.936,1.656,1.728,3.888,2.736,5.544
		c0.936,2.376,1.872,5.976,7.632,23.0399c0.648,1.44,1.296,2.88,1.944,4.32c3.096,3.744,6.192,7.488,9.36,11.304
		c0.36,0.576,0.72,1.224,1.08,1.872c4.176,4.32,4.176,4.32,7.056,7.92c3.888,7.2,5.76,11.52,6.768,13.248
		c0.936,2.376,2.88,5.76,5.76,11.7361c0.288,0.864,0.576,1.728,0.936,2.664c0.432,0.576,0.936,1.224,1.44,1.872
		c0.072,0.432,0.144,0.936,0.216,1.44c0.216,0.144,0.432,0.36,0.648,0.576c1.944-0.36,3.96-0.72,5.976-1.152
		c2.376,0.072,4.752,0.144,7.2,0.216c1.8719,0.288,3.816,0.576,5.76,0.936c4.824,1.44,4.824,1.44,6.048,1.44
		c0.936-1.44,1.872-2.88,2.88-4.392c0.576-1.368,1.152-2.736,1.728-4.104c1.944-2.592,3.888-6.192,9.648-14.112
		c0.72-0.792,1.44-1.584,2.16-2.448c0.576-1.008,1.224-2.0161,1.872-3.096c1.368-1.368,2.736-2.736,4.104-4.104
		c1.224-1.656,2.52-3.312,3.816-5.04c4.32-4.032,4.32-4.032,6.264-6.192c2.52-1.872,5.04-3.744,7.56-5.688
		c5.256-3.168,10.512-6.336,15.84-9.576c0.792-0.288,1.584-0.648,2.448-1.008c3.456-2.232,6.984-4.464,10.512-6.696
		c0.792-0.288,1.584-0.576,2.448-0.936c1.152-1.008,3.312-1.944,14.4-8.64c0.936-1.008,0.936-1.008,17.712-12.528
		c3.168-1.872,3.168-1.872,7.2-4.752c1.296-1.44,2.592-2.88,3.888-4.32c2.376-1.944,2.376-1.944,10.512-9.864
		c0.432-0.648,0.936-1.2961,1.44-1.944c0.792-0.576,1.584-1.224,2.448-1.872c1.872-2.664,1.872-2.664,5.76-6.984
		c3.816-5.256,7.632-10.512,11.52-15.84c3.672-6.336,3.672-6.336,5.616-9.216c0.576-0.7201,1.224-1.44,1.872-2.16
		c0.864-0.648,1.728-1.2961,2.664-1.944c1.944-2.16,6.264-6.192,7.56-7.056c2.88,0.216,2.88,0.216,4.32,0.72
		c0.864,1.08,0.864,1.08,1.08,1.8c-0.072,1.7999-0.144,3.672-0.216,5.5439c-2.16,8.3521-2.16,8.3521-2.304,10.08
		c1.44-0.576,2.88-1.224,4.32-1.872c12.24-7.632,12.24-7.632,13.248-8.64c1.872-1.2239,3.816-2.52,5.76-3.8159
		c9.072-7.92,9.072-7.92,13.896-11.7361c10.296-10.08,12.744-12.0239,17.064-16.5599c1.872-2.52,1.872-2.52,3.816-4.608
		c0.36-0.288,0.792-0.576,1.224-0.936c1.224-1.584,2.52-3.24,3.816-4.8961c2.88-4.968,2.88-4.968,3.816-5.9039
		c1.224-0.504,1.224-0.504,2.1599-0.504c2.16,1.008,2.16,1.008,3.384,1.944c0.36,1.0799,0.36,1.0799,0.576,3.5279
		c-0.936,3.6001-0.936,3.6001-2.88,8.8561c-1.2241,2.52-2.5201,5.112-3.816,7.7039c-1.872,3.168-3.816,6.3361-5.76,9.5761
		c-0.864,1.152-1.728,2.376-2.664,3.6c0,0.288,0.072,0.5759,0.144,0.936c0.432-0.144,0.936-0.3601,1.44-0.576
		c3.6-2.52,7.2-5.1121,10.8-7.704c5.904-5.328,11.808-10.656,17.784-16.056c3.816-5.04,7.632-9.36,9.576-12.24
		c1.944-2.304,2.88-3.888,3.816-4.608c0.36-0.072,0.792-0.1439,1.2239-0.2159c0.7921,0.2879,1.584,0.576,2.376,0.936
		c0.36,0.36,0.7921,0.7919,1.2241,1.2239c0.072,0.6481,0.216,1.368,0.36,2.0881c-0.576,2.6639-1.152,5.4-1.728,8.136
		c-1.224,3.312-2.52,6.696-3.816,10.08c-1.872,3.168-3.816,6.336-5.76,9.5759c-2.592,3.4561-5.256,6.912-7.92,10.368
		c-4.536,5.3281-9.072,10.656-13.6801,16.056c-0.072,0.36-0.2159,0.792-0.3599,1.224c1.08-0.288,2.232-0.576,3.384-0.864
		c2.376-1.296,4.752-2.592,7.2-3.888c1.512-1.296,3.024-2.664,4.536-4.032c1.008-0.6479,2.088-1.296,3.168-1.944
		c0.72-0.72,1.44-1.4399,2.16-2.16c1.728-1.224,3.456-2.5201,5.256-3.816c0.648-0.72,1.296-1.44,1.944-2.16
		c0.936-0.648,1.872-1.296,2.88-1.944c2.376-2.52,4.752-5.1121,7.2-7.704c0.936-0.4319,0.936-0.4319,2.592-0.4319
		c2.1599,0.936,2.1599,0.936,2.88,1.512c0.072,0.36,0.2159,0.792,0.36,1.224c-0.2161,0.792-0.432,1.584-0.72,2.448
		c-1.2241,2.016-2.52,4.104-3.816,6.192c-0.144,0.576-0.2881,1.152-0.504,1.728c-1.2241,2.16-2.52,4.32-3.816,6.48
		c-2.52,3.3839-5.112,6.84-7.704,10.296c-2.592,2.5919-5.184,5.256-7.776,7.92c-8.784,7.704-11.448,9.576-13.68,11.52
		c-6.048,3.816-6.048,3.816-10.4401,6.984c0,0.216-0.072,0.432-0.144,0.72c1.08-0.144,2.2321-0.288,3.384-0.432
		c3.6-1.224,7.2-2.52,10.8-3.816c3.528-1.512,7.056-3.024,10.584-4.5359c5.76-3.888,5.76-3.888,10.08-6.264
		c1.944-1.728,3.96-3.456,5.976-5.256c0.504,0,1.08,0,1.656,0c1.008,0.648,2.088,1.296,3.168,2.016c0,0.6481,0,1.2961,0.072,1.944
		c-0.6481,1.08-1.296,2.232-1.9441,3.384c-3.8159,5.04-3.8159,5.04-5.7599,7.2c-2.952,2.592-5.976,5.256-9,7.92
		c-15.552,11.376-15.552,11.376-17.712,12.672c-0.072,0.288-0.144,0.648-0.2161,1.008c2.2321,0,4.4641-0.072,6.6961-0.144
		c1.008-0.288,2.016-0.648,3.0959-1.008c1.08-0.072,2.232-0.144,3.384-0.216c0.432-0.36,0.936-0.792,1.44-1.224
		c0.792,0,1.584,0,2.376,0c0.936,0.576,1.872,1.152,2.88,1.728c0,0.36,0.072,0.72,0.144,1.08
		c-0.936,1.584-1.8719,3.168-2.8799,4.824c-0.72,0.576-1.44,1.2241-2.16,1.872c-4.68,2.736-4.68,2.736-5.904,3.744
		c-2.52,1.224-5.04,2.52-7.632,3.816c-2.088,0.7921-4.176,1.656-6.264,2.5201c-0.5759,1.08-1.152,2.232-1.7999,3.384
		c-0.648,0.792-1.296,1.584-1.9441,2.376c-3.0959,1.944-3.0959,1.944-5.112,2.7361c-3.816,0.936-7.6319,1.872-11.5199,2.88
		c-0.576,1.08-1.224,2.16-1.872,3.312c-4.032,4.32-4.032,4.32-8.352,8.352c-3.024,1.8-3.024,1.8-7.056,3.744
		c-2.592,0.792-5.256,1.584-7.92,2.376c-0.6479,0-1.296,0.072-1.944,0.144c-0.864,3.096-0.864,3.096-1.8,5.256
		c-0.648,0.864-1.296,1.728-1.944,2.664c-0.576,0.432-1.152,0.864-1.8,1.296c-2.376-0.072-4.752-0.144-7.2-0.216
		c-6.912,0.72-6.912,0.72-14.4,1.08c0,0.288-0.072,0.576-0.144,0.936c1.08,1.296,2.232,2.592,3.384,3.888c0,0.864,0,1.728,0,2.592
		c-0.216,0.36-0.504,0.72-0.792,1.08c-2.232,0-4.464,0-6.768,0c-0.288,0.144-0.576,0.288-0.936,0.504
		c-2.088,0.288-4.176,0.576-6.264,0.936c-1.44,0.648-2.88,1.296-4.32,1.944c-0.576,0.576-1.224,1.224-1.872,1.872
		c-1.728,0.504-6.048,1.008-7.704,1.44c0,0.288-0.072,0.576-0.144,0.864c1.368,0.72,2.808,1.512,4.248,2.304
		c0,0.72,0,1.512,0.072,2.304c-0.144,0.216-0.288,0.432-0.504,0.72c-0.9359,0.144-1.944,0.36-2.952,0.576c-2.592,0-5.256,0-7.92,0
		c-0.288,0.072-0.648,0.216-1.008,0.36c0,0.36,0.072,0.7921,0.144,1.224c0.144,0.144,0.288,0.288,0.504,0.432
		c-0.072,0.648-0.144,1.296-0.288,1.944c-0.936,1.44-0.936,1.44-2.016,2.376c-0.936,0.288-1.872,0.576-2.88,0.864
		c-1.44,0.936-3.816,1.872-4.536,2.5201c-0.072,0.504-0.216,1.08-0.36,1.656c-0.288,0.288-0.576,0.576-0.864,0.864
		c-0.504,0.144-1.08,0.288-1.656,0.432c-1.224,0.792-2.52,1.656-3.816,2.52c-0.504,1.008-0.504,1.008-1.728,2.088
		c-2.232,0.72-4.464,1.512-6.696,2.304c-0.144,0.72,0.36,2.16,0.36,4.032c-0.2881,0.36-0.576,0.72-0.864,1.08
		c-1.944,0.144-3.96,0.288-5.976,0.504c-0.288,0.216-0.576,0.432-0.936,0.72c-1.8,0-3.672,0-5.544,0
		c-1.584,0.432-3.168,0.936-4.824,1.44c-0.936,0.576-1.872,1.224-2.88,1.872c-0.432,0.648-0.936,1.296-1.44,1.944
		c-1.44,0.216-1.44,0.216-7.632,0c-2.088,0.792-4.176,1.584-6.264,2.376c0,0.288-0.072,0.576-0.144,0.864
		c1.008,1.008,2.016,2.088,3.096,3.168c0.504,0.0721,1.008,0.144,1.584,0.288c2.304,1.296,4.608,2.664,6.984,4.032
		c0.432,0.504,0.864,1.08,1.296,1.656c4.32,3.24,8.712,6.48,13.104,9.72c1.944,2.16,4.104,4.032,4.536,4.752
		c1.44,1.008,1.44,1.008,5.544,2.88c0.792,0.648,1.584,1.296,2.376,1.944c0.648,0.792,1.296,1.656,1.944,2.52
		c1.08,2.16,2.16,4.3199,3.24,6.48c1.872,8.64,1.872,8.64,2.376,12.24c0.648,0.864,1.296,1.728,1.944,2.664
		c2.952,2.664,4.68,3.816,5.76,5.04c0.936,1.512,1.872,3.024,2.88,4.536c0.432,1.152,0.936,2.376,1.44,3.6
		c0.144,0.9359,0.288,1.8719,0.432,2.88c-0.144,1.296-0.288,2.592-0.432,3.888c-1.944,3.312-1.944,3.312-3.888,5.76
		c-1.08,0.936-2.16,1.872-3.312,2.88c-1.224,0.144-2.448,0.36-3.744,0.576c-0.576-0.36-1.152-0.72-1.8-1.08
		c-0.504-1.224-0.504-1.224-1.44-6.48c-0.288-0.72-0.576-1.44-0.936-2.16c-1.944-2.16-1.944-2.16-4.464-4.104
		c-1.008-0.2881-2.016-0.576-3.096-0.864c-0.864,0-1.728,0-2.664-0.072c0.072,0.432,0.216,0.936,0.36,1.44
		c4.824,5.256,4.824,5.256,6.696,7.92c1.224,1.008,2.448,2.016,3.744,3.096c0.072,0.864,0.2159,1.728,0.36,2.664
		c-0.36,0.36-0.72,0.792-1.08,1.224c-1.584,0.144-3.168,0.36-4.752,0.576c-1.8-0.144-3.672-0.288-5.544-0.504
		c-1.368-0.288-2.736-0.576-4.104-0.936c-5.256-2.88-5.256-2.88-6.696-3.384c-1.44-0.936-2.88-1.872-4.32-2.88
		c-2.88-4.176-2.88-4.176-4.32-5.76c-7.704-0.504-7.704-0.504-10.296-0.936c-5.328-1.44-5.328-1.44-7.704-2.448
		c-0.864-0.072-1.728-0.144-2.664-0.216c-0.576,0.288-1.224,0.576-1.872,0.936c-0.432,0.576-0.936,1.152-1.44,1.728
		c-0.216,0-0.432,0.072-0.72,0.144c0,1.6559,0,3.312,0.072,5.0399c0.288,0.864,0.576,1.728,0.936,2.592
		c0.504,0.576,1.008,1.152,1.584,1.728c0.36,1.08,0.72,2.16,1.08,3.312c0.288,0.36,0.576,0.792,0.936,1.224
		c0.72,2.016,1.512,4.104,2.304,6.192c0.216,0,0.432,0.072,0.72,0.144c0.648-0.288,1.296-0.576,1.944-0.936
		c0.288-0.36,0.576-0.792,0.936-1.224c1.512-1.08,3.024-2.232,4.608-3.384c2.592-0.936,2.592-0.936,5.76-1.656
		c1.44,0.072,2.88,0.144,4.3199,0.216c0.936-0.216,1.872-0.432,2.88-0.72c1.2961,0,2.664,0,4.032,0
		c0.36,0.144,0.792,0.288,1.224,0.504c0,0.432,0,0.864,0.072,1.368c-0.288,0.432-0.576,0.936-0.936,1.44
		c-0.648,0.432-1.296,0.936-2.016,1.44c0,0.216-0.072,0.432-0.144,0.72c1.44,3.816,1.44,3.816,1.8,4.032
		c1.944-0.36,1.944-0.36,10.08-0.576c1.368,0.72,2.736,1.512,4.176,2.304c0.144,0.36,0.2881,0.72,0.5041,1.152
		c-0.072,0.36-0.144,0.792-0.216,1.224c-1.296,0.792-1.296,0.792-2.736,1.08c-0.288,0-0.648-0.072-1.008-0.144
		c-0.072,0.72-0.216,1.44-0.36,2.16c-1.944,4.32-1.944,4.32-2.16,5.544c0.504,0.216,1.008,0.504,1.584,0.792c0.72,0,1.44,0,2.16,0
		c3.816-2.52,7.632-5.04,11.52-7.632c2.592-0.864,5.256-1.728,7.92-2.664c1.8,0,3.672,0,5.544,0
		c1.512,0.6479,3.024,1.296,4.536,1.944c0.936,0.144,1.8719,0.288,2.88,0.432c1.224,1.008,1.8,2.088,2.52,2.592
		c0,0.72,0.072,1.44,0.144,2.16c-0.648,0.216-1.296,0.504-1.944,0.792c-0.864,0-1.728,0-2.664,0
		c-0.936,0.288-1.872,0.576-2.88,0.936c-2.232,1.584-4.536,3.168-6.84,4.752c0,0.2159,0.072,0.4319,0.144,0.72
		c0.72,0.216,1.44,0.504,2.16,0.792c0.936,0.648,1.872,1.296,2.88,1.944c1.656,1.872,1.656,1.872,2.664,3.6
		c0.216,0.864,0.504,1.8,0.792,2.736c0.072,1.296,0.144,2.592,0.216,3.888c-0.432,0.936-0.432,0.936-0.432,1.656
		c0.72,0.504,0.72,0.504,1.152,1.44c-0.072,0.504-0.144,1.08-0.216,1.656c-0.432,0.288-0.864,0.648-1.296,1.008
		c-1.224,0-2.52,0-3.816,0.072c-0.72-0.36-1.44-0.792-2.16-1.224c-2.16,0-2.16,0-6.984-0.72c-4.68-0.144-9.432-0.288-14.184-0.432
		c-0.576,0.144-1.224,0.288-1.872,0.432c-7.92,3.888-7.92,3.888-10.8,5.76c-1.944,1.944-2.88,2.448-6.264,5.544
		c-1.08,1.224-2.232,2.52-3.384,3.816c-0.792,0.144-1.584,0.288-2.376,0.504c-3.096-0.216-3.096-0.216-4.32-0.72
		c-0.864-1.08-0.864-1.08-1.368-2.736c-0.144-1.152-0.288-2.376-0.432-3.6c0.504-2.304,1.08-4.608,1.656-6.984
		c0.792-1.296,1.584-2.664,2.376-4.032c0-0.36,0.072-0.792,0.144-1.224c-1.44,0.072-5.976,1.08-10.8,1.512
		c-1.008-0.072-2.016-0.144-3.096-0.216c-0.432,0.504-0.936,1.008-1.44,1.584c-0.36,0.072-0.7921,0.216-1.224,0.36
		c-0.864,2.016-0.864,2.016-1.8,5.616c0.072,0.432,0.144,0.936,0.216,1.44c0.864,0.144,0.864,0.144,4.032-0.576
		c0.72,0.432,0.72,0.432,1.152,1.08c0,0.36,0.072,0.792,0.144,1.224c-0.144,0.36-0.288,0.72-0.504,1.152
		c-1.512,0.864-4.896,1.8-5.832,2.304c-1.584,0.432-3.168,0.936-4.824,1.44c-3.384,0-3.384,0-6.48-0.504
		c-0.72-0.288-1.44-0.576-2.16-0.936c-0.648-0.648-1.296-1.296-1.944-1.944c-0.432-1.08-0.864-2.16-1.296-3.24
		c0.072-1.872,0.144-3.816,0.216-5.76c0.936-2.88,4.824-11.232,5.4-13.392c-0.576,0.072-1.224,0.144-1.872,0.288
		c-0.72,0.648-1.44,1.296-2.16,1.944c-1.656,0.936-3.312,1.872-5.04,2.88c-0.576,0.144-1.152,0.288-1.728,0.504
		c-2.16,0.144-4.32,0.288-6.48,0.432c-0.504,0.288-1.08,0.648-1.656,1.008c-2.16,0.288-4.32,0.576-6.48,0.936
		c-2.448-0.072-4.896-0.144-7.416-0.216c-2.448-0.936-4.968-1.872-7.488-2.88c-0.936-0.648-1.872-1.296-2.88-1.944
		c-0.864-1.224-1.728-2.52-2.592-3.816c-0.288,0-0.648-0.072-1.008-0.144c0.144,4.896,0.36,9.792,0.576,14.688
		c-0.288,1.224-0.576,2.52-0.936,3.816c-0.936,2.304-1.872,4.608-2.88,6.984c-0.648,0.72-1.2961,1.44-1.944,2.16
		c-1.0081,0.432-2.088,0.864-3.168,1.296c-1.008,0-2.088,0-3.168,0c-0.576,0.864-1.224,1.728-1.872,2.592
		c-1.08,0.792-2.232,1.584-3.384,2.448c-1.584,0.144-3.168,0.36-4.824,0.576c-2.376,2.304-2.376,2.304-3.816,3.24
		c-1.944,0.504-1.944,0.504-5.544,0.72c-0.792-0.288-1.584-0.576-2.376-0.936c-0.36-0.288-0.792-0.648-1.224-1.008
		c-0.36-0.072-0.72-0.144-1.152-0.216c-0.576,0.288-1.152,0.576-1.728,0.936c-0.936,0.144-1.872,0.288-2.88,0.504
		c-1.584-0.072-3.168-0.144-4.752-0.216c-1.152-0.72-2.376-1.44-3.6-2.16c-0.288,0.072-0.648,0.144-1.008,0.216
		c-1.296,0.936-2.664,1.872-4.032,2.88C195.048,369.36,195.048,369.36,192.6,369.648L192.6,369.648z M176.544,364.104
		c-0.36-0.576-0.36-0.576-0.36-2.52c0.936-3.096,0.936-3.096,0.936-3.816c-0.144-0.144-0.288-0.288-0.504-0.504
		c0-0.288,0.072-0.576,0.144-0.936c2.952-1.872,5.904-3.744,8.928-5.688c0.72-0.576,1.44-1.224,2.16-1.872
		c3.168-3.96,6.336-7.92,9.576-11.88c3.816-7.128,3.816-7.128,5.616-11.304c0.072-0.504,0.216-1.08,0.36-1.656
		c0.504,0.072,1.008,0.144,1.584,0.216c0,1.008,0,2.088,0,3.168c-0.288,0.72-0.648,1.44-1.008,2.16
		c-0.144,0.864-0.288,1.728-0.432,2.592c-1.44,3.168-1.944,5.328-3.888,9.36c-0.576,0.936-1.224,1.872-1.872,2.88
		c-0.432,1.368-0.936,2.736-1.44,4.104c-1.296,1.8-2.592,3.672-3.888,5.544c-2.016,2.16-4.104,4.32-6.192,6.48
		c-1.44,0.864-2.952,1.8-4.464,2.736c-1.08,0.288-2.16,0.576-3.312,0.936C177.84,364.104,177.192,364.104,176.544,364.104
		L176.544,364.104z M192.168,364.248c0.072-0.288,0.144-0.576,0.288-0.936c2.016-2.232,4.032-4.464,6.048-6.768
		c1.44-2.304,2.88-4.608,4.32-6.912c0.144-0.648,0.288-1.296,0.432-1.944c0.288-0.432,0.576-0.864,0.864-1.368
		c0.216,0,0.432,0,0.72-0.072c-0.432,2.232-0.864,4.464-1.296,6.696c-1.8,2.448-3.6,4.968-5.4,7.488
		C192.888,364.104,192.888,364.104,192.168,364.248L192.168,364.248z M206.784,363.6c-0.432-0.144-0.936-0.288-1.44-0.432
		c0-0.36-0.072-0.72-0.144-1.08c1.224-1.944,2.52-3.96,3.816-5.976c1.008-2.88,1.944-6.984,2.88-9.648
		c0.792-3.384,1.584-6.84,2.448-10.296c0.936-6.696,0.936-6.696,1.44-8.136c-0.072-1.368-0.216-2.736-0.36-4.104
		c0.36,0.072,0.72,0.144,1.08,0.216c0.072,2.52,0.144,5.112,0.216,7.704c-0.144,0.432-0.288,0.936-0.504,1.44
		c-0.072,1.224-0.144,2.52-0.216,3.816c0.288,1.44,0.576,2.88,0.936,4.32c-0.216,4.608-0.72,7.704-0.936,12.744
		c-0.648,1.728-1.296,3.456-1.944,5.256c-1.872,2.448-1.872,2.448-3.096,3.384C208.224,363.6,208.224,363.6,206.784,363.6
		L206.784,363.6z M219.744,363.6c0-0.288-0.072-0.648-0.144-1.008c0.936-3.384,0.936-3.384,1.944-5.76
		c0.432-3.816,0.936-7.632,1.44-11.52c-0.288-1.872-0.648-3.816-1.008-5.76c0-1.152,0-2.376,0-3.6
		c0.216-0.864,0.432-1.728,0.72-2.664c0-3.096,0-6.192,0-9.36c0.504,0,1.008,0,1.584,0c0.288,0.648,0.576,1.296,0.864,1.944
		c1.08,4.68,2.16,9.36,3.312,14.112c0.072,1.8,0.144,3.672,0.288,5.544c-0.144,2.16-0.288,4.32-0.504,6.48
		c-0.7921,2.448-1.584,4.896-2.376,7.416c-0.936,1.08-1.872,2.232-2.88,3.384c-0.504,0.216-1.008,0.504-1.584,0.792
		C220.896,363.6,220.32,363.6,219.744,363.6L219.744,363.6z M233.928,355.392c0.144-2.016,0.36-4.032,0.576-6.048
		c0-2.304,0-4.608,0-6.912c-1.944-8.928-1.944-8.928-3.024-15.84c0.792,0,1.584,0,2.376,0c1.08,5.04,1.08,5.04,2.088,7.92
		c0.432,3.312,0.936,11.952,0.936,16.272c-0.432,1.152-0.936,2.376-1.44,3.6C234.936,354.672,234.432,355.032,233.928,355.392
		L233.928,355.392z M157.104,354.24c-0.288-0.144-0.576-0.288-0.936-0.432c-0.288-0.504-0.576-1.008-0.864-1.584
		c0.216-0.936,0.432-1.872,0.72-2.88c0.936-1.152,0.936-1.152,1.872-3.096c-0.216-1.944-0.432-2.16-0.288-3.024
		c3.312-1.224,6.696-2.52,10.08-3.816c0.504-0.288,1.08-0.648,1.656-1.008c0.216,0,0.432,0.072,0.72,0.144
		c-2.232,1.584-4.464,3.24-6.696,4.896c-1.944,2.448-1.944,2.448-3.168,3.384c0,0.576-0.072,1.152-0.144,1.8
		c1.944,1.728,1.944,1.728,2.592,2.016c0.576,0,1.224,0,1.872,0c1.008-0.792,2.088-1.584,3.168-2.376
		c0.288-0.432,0.576-0.864,0.936-1.296c5.76-3.96,5.76-3.96,9.144-6.84c0.288-0.504,0.576-1.008,0.936-1.584
		c0.072-1.44,0.072-1.44-0.36-2.376c-0.576-0.36-1.152-0.792-1.728-1.224c0-0.36,0.072-0.72,0.144-1.152
		c10.296-7.704,10.296-7.704,17.28-12.384c1.728,0.216,1.728,0.216,2.88,0.72c0,0.432,0.072,0.864,0.144,1.296
		c-1.008,2.664-1.008,2.664-4.824,10.08c-0.648,0.648-1.296,1.296-1.944,1.944c-3.816,5.256-3.816,5.256-7.632,9.864
		c-3.456,2.232-6.912,4.464-10.44,6.696c-1.944,0.576-3.96,1.152-5.976,1.8C161.424,354.24,161.424,354.24,157.104,354.24
		L157.104,354.24z M301.608,352.584c-0.576-0.288-1.152-0.576-1.728-0.936c-0.288-0.504-0.576-1.008-0.864-1.584
		c0-2.232,0-4.464,0-6.696c1.584-3.888,3.168-7.776,4.824-11.736c0.864-0.864,1.728-1.728,2.664-2.664
		c0.072-0.648,0.144-1.296,0.216-1.944c-0.36-0.36-3.24-0.864-4.176-1.296c-0.864,0.072-1.728,0.144-2.664,0.216
		c-5.472,1.44-5.472,1.44-6.696,1.44c-0.936-1.224-0.936-1.224-2.16-2.16c-0.36-0.144-0.792-0.288-1.224-0.504
		c-0.864-1.728-0.864-1.728-1.584-4.176c0-0.792,0-1.584,0-2.376c0.288-1.152,0.648-2.376,1.008-3.6
		c0.576-0.72,1.224-1.44,1.872-2.16c1.368-0.36,1.368-0.36,3.312-0.36c1.44,0.576,2.88,1.224,4.3199,1.872
		c1.008,0.648,2.0161,1.296,3.096,1.944c2.664,0.504,2.664,0.504,6.696,0.72c0.648-0.216,1.296-0.432,1.944-0.72
		c2.664,0.72,2.664,0.72,3.6,1.224c0.648-0.072,1.296-0.144,1.944-0.288c0.792-0.576,1.584-1.224,2.376-1.872
		c0.936-1.08,1.872-2.232,2.88-3.384c1.44-0.936,2.88-1.872,4.32-2.88c0.288-0.36,0.576-0.792,0.936-1.224
		c1.584-0.936,3.168-1.872,4.824-2.88c0.216,0,0.432,0,0.72,0c0.36,0.36,0.792,0.72,1.224,1.08c0.792,2.448,0.792,2.448,0.792,3.168
		c-6.84,4.176-6.84,4.176-9,5.112c-0.72,0.648-1.44,1.296-2.16,1.944c-1.224,1.8-2.52,3.6-3.816,5.4
		c-1.8,3.744-3.6,7.488-5.4,11.304c-4.104,4.104-4.104,4.104-7.488,7.92c0,0.72,0,0.72,0.288,0.936
		c-0.72,2.448-1.44,4.968-2.16,7.488c0,1.152,0,2.376,0,3.6C303.48,352.512,302.544,352.512,301.608,352.584L301.608,352.584z
		 M243.288,349.128c-0.144-0.648-0.288-1.296-0.432-1.944c0-4.32,0-4.32-0.432-9.072c-0.648-2.448-1.296-4.968-1.944-7.488
		c-0.072-1.296-0.216-2.664-0.36-4.032c1.44,0,2.88,0,4.32,0.072c0.288,0.648,0.576,1.368,0.864,2.088
		c0.432,7.2,0.432,7.2,0.936,9.792c-0.0721,1.368-0.144,2.736-0.216,4.104c-1.008,4.104-1.008,4.104-1.944,6.264
		C243.504,349.344,243.504,349.344,243.288,349.128L243.288,349.128z M333.504,348.912c0-0.432,0-0.936,0.072-1.44
		c0.936-1.584,1.872-3.168,2.88-4.824c2.304-2.376,2.304-2.376,4.32-3.816c0.216-0.72,0.432-1.44,0.72-2.16
		c-1.152-1.944-1.152-1.944-2.376-3.168c-0.576-0.144-1.152-0.288-1.8-0.504c-0.072-0.288-0.216-0.576-0.36-0.936
		c-1.296-0.936-3.24-1.872-6.48-4.32c0.072-0.288,0.216-0.576,0.36-0.864c3.528-0.936,7.056-1.872,10.584-2.88
		c0.792,0,1.584,0,2.376,0c3.888,1.944,3.888,1.944,7.92,3.384c0.648,0.072,1.296,0.144,1.944,0.216
		c0.864-0.288,1.728-0.576,2.664-0.936c6.48-3.816,9.072-5.76,14.616-9.144c2.664-0.936,2.664-0.936,4.32-1.152
		c0.72,0.144,1.44,0.288,2.16,0.432c0,0.288,0,0.576,0.072,0.864c-3.456,1.8-6.048,3.744-9.216,5.616
		c-0.792,0.648-1.584,1.296-2.376,1.944c-1.944,0.936-1.944,0.936-4.248,2.808c-0.072,0.36-0.144,0.72-0.216,1.152
		c0.432,0.36,0.864,0.792,1.296,1.224c0.936,0.216,1.944,0.504,2.952,0.792c2.232-0.072,4.464-0.144,6.696-0.216
		c0.504,0.504,0.504,0.504,1.656,0.936c1.8,2.304,1.8,2.304,2.016,3.024c0,1.08,0,2.232,0,3.384
		c-0.144,0.432-0.288,0.936-0.432,1.44c-6.12-0.36-6.12-0.36-9-0.864c-2.808-0.072-5.616-0.144-8.424-0.216
		c-1.8,0.144-3.6,0.288-5.472,0.432c-3.888,1.008-3.888,1.008-8.64,2.88c-2.448,1.44-4.968,2.952-7.488,4.464
		c-0.792,0.72-1.584,1.512-2.376,2.304C334.008,348.768,333.792,348.84,333.504,348.912L333.504,348.912z M132.408,342.504
		c-0.648-0.072-1.296-0.144-1.944-0.216c-0.36-0.288-0.792-0.648-1.224-1.008c0-0.576-0.072-1.152-0.144-1.728
		c1.08-1.368,2.232-2.736,3.384-4.104c3.528-0.864,3.528-0.864,9.72-1.8c7.488-1.944,7.488-1.944,13.68-3.888
		c3.888-1.584,7.848-3.168,11.808-4.752c4.176-2.52,8.424-5.112,12.672-7.704c1.656-1.368,3.312-2.736,5.04-4.104
		c0.36,0,0.792,0,1.224,0c0.72,1.08,1.44,2.16,2.232,3.312c0,0.288,0,0.576,0,0.936c-5.256,3.816-10.584,7.632-15.912,11.52
		c-3.024,1.872-6.048,3.744-9.144,5.616c-1.44,0.648-2.88,1.296-4.32,1.944c-3.888,1.224-7.776,2.52-11.736,3.816
		c-7.704,1.944-7.704,1.944-9.36,2.16C136.44,342.504,134.424,342.504,132.408,342.504L132.408,342.504z M321.984,336.96
		c-1.008-0.072-2.016-0.144-3.096-0.288c0.288-1.008,1.2961-2.16,3.672-6.264c0.432,0,0.864-0.072,1.368-0.144
		c3.312,1.944,3.312,1.944,5.976,3.96c-0.216,0.144-0.432,0.36-0.72,0.576C326.808,335.52,324.432,336.24,321.984,336.96
		L321.984,336.96z M117.504,332.208c-0.288-0.072-0.576-0.216-0.864-0.36c0-0.864,0-1.728,0-2.664
		c2.376-2.16,2.376-2.16,3.744-3.024c2.664-0.936,2.664-0.936,3.384-1.512c0.144-0.288,0.288-0.576,0.432-0.864
		c4.032,0,8.136,0,12.24,0c2.232-0.288,4.464-0.576,6.768-0.936c2.448-0.648,4.896-1.296,7.416-1.944
		c4.68-1.872,9.432-3.816,14.184-5.76c5.976-3.816,12.24-7.2,13.392-8.136c1.44-0.792,2.88-1.584,4.32-2.448
		c0.432-0.072,0.936-0.144,1.44-0.288c0,0.72-0.072,1.44-0.144,2.16c-2.304,1.8719-4.608,3.816-6.912,5.7599
		c-5.76,3.816-5.76,3.816-14.04,8.64c-4.608,1.872-9.216,3.744-13.896,5.616c-7.92,1.872-7.92,1.872-10.8,2.88
		c-12.24,1.872-12.24,1.872-16.848,2.88C120.096,332.208,118.8,332.208,117.504,332.208L117.504,332.208z M325.8,323.424
		c0.864-1.872,0.864-1.872,2.736-4.32c0.648-0.72,1.368-1.44,2.088-2.16c2.664-1.368,5.4-2.736,8.136-4.176
		c1.296,0.144,2.592,0.288,3.888,0.432c0.792-0.072,1.584-0.144,2.376-0.216c0.072,0.072,0.216,0.216,0.36,0.36
		c0,0.648,0,1.296,0,1.944c-0.648,1.224-1.296,2.52-1.944,3.816c-0.504,0.288-1.008,0.576-1.512,0.864
		c-1.08,0.144-2.232,0.288-3.384,0.432C327.528,323.28,327.528,323.28,325.8,323.424L325.8,323.424z M124.2,319.248
		c-2.448-0.144-4.896-0.288-7.416-0.504c-0.648-0.216-1.368-0.504-2.088-0.792c0-1.224,0-1.224,0.72-3.888
		c2.16-1.944,4.32-3.96,6.48-5.976c1.368-0.72,2.808-1.512,4.248-2.304c4.104-0.936,4.104-0.936,6.48-1.944
		c0.36-0.288,0.792-0.576,1.224-0.936c1.296-2.016,1.296-2.016,1.872-3.456c4.608-1.8,4.608-1.8,6.48-2.808
		c1.368-0.144,2.736-0.288,4.104-0.432c1.08-0.432,2.232-0.936,3.384-1.44c1.008-0.144,2.016-0.288,3.096-0.504
		c2.952,0,5.904,0.072,8.856,0.144c-1.872,1.08-7.2,2.952-9.36,3.96c-1.224,0.288-2.52,0.576-3.816,0.936
		c-1.08,0.648-2.232,1.296-3.384,1.944c-1.008,0.288-2.016,0.576-3.096,0.936c-1.008,0.648-2.016,1.296-3.096,1.944
		c-1.512,0.288-3.024,0.576-4.608,0.936c-2.592,1.224-5.976,2.16-6.336,2.52c0.072,0.576,0.144,1.152,0.216,1.728
		c0.504,0.432,0.504,0.432,0.936,1.44c0.576,0.432,1.224,0.864,1.872,1.2961c0.72,0,1.44,0,2.16,0
		c1.872-1.0081,4.536-1.944,5.256-2.448c1.44-0.288,2.88-0.576,4.32-0.936c1.944-0.936,1.944-0.936,3.096-1.944
		c4.824-1.872,4.824-1.872,6.48-2.88c1.872-0.576,3.816-1.224,5.76-1.872c0.576-0.288,1.152-0.648,1.728-1.008
		c2.16-0.576,4.32-1.224,6.48-1.872c3.816-1.944,3.816-1.944,6.912-3.888c0.576-0.144,1.152-0.288,1.728-0.432
		c0.432-0.288,0.936-0.648,1.44-1.0081c0.072-0.576,0.144-1.224,0.216-1.8719c1.08-0.288,2.232-0.648,3.384-1.008
		c0.288-0.216,0.576-0.432,0.936-0.72c0.504,0,1.08,0,1.656-0.072c-0.36,1.224-0.864,1.944-1.8,5.04
		c-0.144,1.08-0.288,2.232-0.504,3.384c-0.72,0.576-1.44,1.224-2.16,1.872c-3.096,1.872-6.264,3.744-9.432,5.616
		c-1.368,0.648-2.736,1.296-4.104,1.944c-0.936,0.648-1.872,1.296-2.88,1.944c-6.696,2.88-8.352,3.816-15.552,6.696
		c-2.448,0.648-4.968,1.296-7.488,1.944c-1.944,0.216-3.96,0.432-5.976,0.72C129.816,319.248,127.008,319.248,124.2,319.248
		L124.2,319.248z M352.224,294.768c-1.44-0.648-2.88-1.2961-4.32-1.944c-2.88-1.944-2.88-1.944-4.824-2.88
		c-1.8-3.24-2.304-3.672-2.52-4.68c1.584-0.936,1.584-0.936,2.52-1.08c1.368,0.936,2.736,1.872,4.104,2.88
		c1.944,2.664,3.816,4.68,5.76,7.344C352.728,294.768,352.728,294.768,352.224,294.768L352.224,294.768z M372.168,289.44
		c-0.936-1.512-1.8719-3.024-2.8799-4.536c-1.728-1.44-1.728-1.44-2.664-2.664c-1.944-0.936-3.96-1.872-5.976-2.88
		c-1.872-0.216-3.816-0.432-5.76-0.72c-5.544,0.288-6.984,0.72-8.64,0.72c-0.648-0.72-1.2961-1.44-1.944-2.16
		c-0.864-0.576-1.728-1.224-2.664-1.872c-0.072-0.2881-0.144-0.576-0.216-0.864c1.656-0.072,3.312-0.216,5.04-0.36
		c2.304-0.936,4.608-1.872,6.984-2.88c0.72-0.648,1.44-1.296,2.16-1.944c2.16,0,2.16,0,4.32,0.504
		c1.656,1.656,1.656,1.656,2.592,3.096c6.048,5.04,6.048,5.04,7.92,6.984c0.864,1.368,0.864,1.368,2.52,5.4
		c0,3.168,0,3.168-0.216,4.104C372.384,289.584,372.384,289.584,372.168,289.44L372.168,289.44z M300.888,285.552
		c0.0721-0.936,0.144-1.872,0.288-2.88c0.576-2.088,1.152-4.176,1.728-6.264c0-0.504-0.0721-1.08-0.144-1.656
		c-0.936-0.504-0.936-0.504-2.592-0.864c-0.792,0.144-1.584,0.288-2.448,0.432c-0.72,0.72-1.44,1.44-2.16,2.16
		c-0.288-0.072-0.576-0.144-0.864-0.288c0-2.664,0-2.664,0.504-4.824c0.144-0.288,0.288-0.576,0.504-0.936c0-0.576,0-1.152,0-1.728
		c-0.504-0.288-1.008-0.576-1.584-0.864c-0.936-0.072-1.872-0.144-2.88-0.216c-1.872,0.504-1.872,0.504-3.6,1.44
		c-0.504,0-1.08,0.072-1.656,0.144c0-0.288,0-0.576,0.072-0.936c1.296-1.728,2.592-3.528,3.888-5.328
		c0.144-0.576,0.288-1.224,0.432-1.872c-0.072-0.648-0.144-1.296-0.216-1.944c-0.216-0.432-0.504-0.864-0.792-1.368
		c-1.368-0.072-2.736-0.144-4.104-0.288c-0.072-1.152-0.216-2.376-0.36-3.6c-0.36-0.792-0.7921-1.584-1.224-2.448
		c0.072-0.432,0.144-0.936,0.216-1.44c0.288-0.288,0.648-0.576,1.008-0.936c-0.0721-0.432-0.144-0.936-0.288-1.44
		c-0.576-0.648-1.224-1.2961-1.872-1.944c-0.72-1.656-1.224-2.16-1.584-3.6c2.448,0.144,2.448,0.144,3.168-0.144
		c0.216-0.432,0.504-0.864,0.792-1.296c0.072-0.72,0.216-1.512,0.36-2.304c1.224,0,2.664,0.504,4.32,0.504
		c1.008-0.504,1.008-0.504,1.8-1.5121c0.144-0.432,0.288-0.936,0.504-1.44c0-1.656,0.072-3.3839,0.144-5.112
		c0.72,0,1.44,0.072,2.16,0.144c0.72,0.504,0.72,0.504,2.16,0.936c0.432,0,0.936,0,1.44,0c0.936-1.08,0.936-1.08,1.296-2.232
		c0.144-1.944,0.36-3.9601,0.576-5.976c0.72,0.072,1.44,0.144,2.16,0.288c0.648,0.288,1.296,0.648,1.944,1.008
		c0.648,0.072,1.296,0.144,1.944,0.216c0.432-0.504,0.936-1.008,1.44-1.584c0.72-1.656,1.44-3.384,2.16-5.112
		c0.72,0,0.72,0,5.472,2.16c0.576,0.072,1.152,0.144,1.728,0.216c0.792,0.72,1.584,1.44,2.376,2.16
		c4.536,2.88,4.536,2.88,8.424,4.824c0.288,0.504,0.648,1.008,1.008,1.584c1.224,3.168,2.448,6.336,3.744,9.576
		c0.576,0.504,0.576,0.504,3.168,1.2961c0.36,0,0.72,0,1.152,0c0.576-0.2881,1.152-0.576,1.728-0.936
		c0.288-0.36,0.576-0.7921,0.936-1.224c0.432,0.072,0.936,0.144,1.44,0.216c2.88,2.736,5.76,5.472,8.64,8.2079
		c0.432,0.144,0.936,0.288,1.44,0.432c1.08,0.936,2.232,1.872,3.384,2.88c1.224,2.52,2.448,5.04,3.672,7.632
		c0.36,1.584,0.792,3.168,1.224,4.752c-0.072,0.072-0.216,0.144-0.36,0.288c-0.936-0.288-1.872-0.576-2.88-0.864
		c-16.344-7.704-16.344-7.704-23.76-11.52c-0.432-0.288-0.936-0.648-1.44-1.008c-0.7921-0.216-1.584-0.432-2.376-0.72
		c-0.792,0.072-1.584,0.144-2.448,0.288c-0.792,0.432-1.584,0.864-2.376,1.296c-0.072,0.36-0.216,0.792-0.36,1.224
		c1.584,2.8799,3.168,5.7599,4.752,8.64c0.36,0.432,0.792,0.936,1.224,1.44c0.36,1.152,0.792,2.376,1.224,3.6
		c-3.24,1.872-3.24,1.872-3.456,2.376c0.792,2.16,0.792,2.16,2.736,5.3279c0.648,0.864,1.296,1.728,2.016,2.592
		c1.944,1.728,3.888,3.528,5.904,5.328c0.072,0.216,0.144,0.432,0.216,0.72c-0.864,0.576-1.8,1.152-2.736,1.728
		c-0.72,0-0.72,0-1.368-0.576c-0.576-1.152-1.224-2.376-1.872-3.6c-1.008-0.576-2.016-1.152-3.024-1.8
		c-0.936-1.296-1.872-1.944-4.752-5.544c-1.008-0.432-2.088-0.936-3.168-1.44c-0.504,0-1.08,0-1.656,0
		c-1.08,0.576-2.16,1.224-3.24,1.872c0,1.152,0,1.152,0.432,1.656c1.872,0.792,1.872,0.792,3.312,1.8
		c0.432,0.576,0.936,1.224,1.44,1.872c0.072,0.36,0.144,0.72,0.288,1.152c2.448,2.16,2.448,2.16,2.88,2.88
		c-0.072,0.144-0.216,0.288-0.36,0.432c-2.088-0.864-2.088-0.864-6.408-1.8c-1.512,0-3.024,0-4.608,0
		c-1.08,0.288-2.16,0.576-3.312,0.936c-1.368,0.792-2.736,1.584-4.104,2.448c-0.504,0.144-1.08,0.288-1.656,0.432
		c-0.648,0.576-1.296,1.152-1.944,1.728C301.536,285.408,301.248,285.48,300.888,285.552L300.888,285.552z M341.928,271.008
		c-2.16-0.504-2.16-0.504-4.32-1.44c0-0.288-0.072-0.576-0.144-0.864c0.936-3.096,0.936-3.096,1.296-3.312
		c0.576,1.152,0.576,1.152,2.304,3.096c1.44,0.072,2.952,0.216,4.464,0.36c0.432-0.288,0.936-0.648,1.44-1.008
		c0.144-0.288,0.36-0.648,0.576-1.008c0-0.72,0.072-1.44,0.144-2.16c1.152,0.288,1.152,0.288,3.168,1.656
		c-0.072,0.36-0.144,0.792-0.216,1.224c-0.288,0.36-0.576,0.72-0.936,1.152c-1.584,0.864-1.584,0.864-6.12,2.304
		C343.08,271.008,342.504,271.008,341.928,271.008L341.928,271.008z"/>
</g>
</svg>
