<?xml version="1.0" encoding="utf-8"?>
<!-- Generator: Adobe Illustrator 21.1.0, SVG Export Plug-In . SVG Version: 6.00 Build 0)  -->
<svg version="1.1" id="Flag" xmlns="http://www.w3.org/2000/svg" xmlns:xlink="http://www.w3.org/1999/xlink" x="0px" y="0px"
	 viewBox="0 0 497.808 301.176" enable-background="new 0 0 497.808 301.176" xml:space="preserve">
<g>
	<path fill-rule="evenodd" clip-rule="evenodd" d="M200.088,301.176c-1.368-0.288-2.736-0.576-4.104-0.936
		c-0.792-0.648-1.584-1.296-2.376-1.944c-0.288-0.432-0.576-0.864-0.864-1.296c0.072-0.504,0.144-1.08,0.216-1.656
		c0.648-0.936,1.296-1.872,1.944-2.88c2.232-4.896,4.464-9.792,6.696-14.688c2.088-3.456,4.176-6.984,6.264-10.512
		c0.216-1.008,0.216-1.008,4.104-7.92c1.224-1.512,2.52-3.024,3.816-4.608c0-0.216,0-0.432,0-0.72
		c-0.288-0.288-0.576-0.576-0.936-0.936c-1.584-0.144-4.176,0.36-10.44,0.36c-1.224-0.288-2.52-0.648-3.816-1.008
		c-1.368-0.576-2.736-1.224-4.104-1.872c-0.936-0.72-1.872-1.44-2.88-2.16c-0.36,0-0.792,0-1.224,0
		c-0.432,0.36-0.936,0.72-1.44,1.152c-1.08,0-2.16,0-3.312,0c-6.48-1.872-6.48-1.872-9.144-2.88
		c-1.08-0.576-2.232-1.224-3.384-1.872c-0.576-0.792-1.224-1.584-1.872-2.448c-0.72,0-1.44,0.504-4.104,1.008
		c-1.08,0-2.232,0-3.384,0c-1.08-0.288-2.16-0.6479-3.312-1.008c-3.6-1.872-3.6-1.872-6.48-3.816
		c-1.224-1.224-1.224-1.224-3.384-4.5359c-0.216,0-0.432,0-0.72,0c-0.792,0.576-1.584,1.224-2.376,1.872
		c-3.168,0.288-3.168,0.288-6.048,0.144c-0.072,0.72-0.216,1.44-0.36,2.16c-0.288,0.576-0.576,1.152-0.936,1.728
		c-0.648,0.72-1.368,1.44-2.088,2.16c-1.584,0.864-3.168,1.8-4.752,2.736c-0.936,0.216-1.872,0.432-2.88,0.72
		c-2.16,0.144-4.32,0.36-6.48,0.576c-0.288,0.792-0.576,1.584-0.864,2.448c-0.72,0.576-1.512,1.224-2.304,1.872
		c-1.584,0.864-3.168,1.8-4.752,2.7361c-3.096,1.008-3.096,1.008-5.256,1.224c-1.296-0.072-2.592-0.144-3.888-0.216
		c-1.224,0.936-2.52,1.872-3.816,2.88c-1.224,0.432-2.52,0.936-3.816,1.44c-3.456,0.504-6.912,1.08-10.368,1.656
		c-1.224-0.288-2.52-0.576-3.816-0.936c-1.44-1.008-1.44-1.008-2.664-2.304c-0.864-2.376-0.864-2.376-1.296-4.536
		c0.072-0.792,0.144-1.584,0.216-2.376c0.288-0.72,0.576-1.44,0.936-2.16c4.104-4.104,4.104-4.104,5.4-5.04
		c1.008-0.288,2.088-0.576,3.168-0.864c0.576-1.008,1.152-2.016,1.8-3.024c1.584-1.224,3.24-2.448,4.896-3.744
		c3.168-0.936,3.168-0.936,6.048-1.44c2.16-0.144,4.32-0.288,6.48-0.432c0.216-0.72,0.504-1.512,0.792-2.304
		c1.944-2.16,1.944-2.16,3.24-3.096c2.16-0.864,2.16-0.864,6.048-1.8c0.936-0.072,1.872-0.144,2.88-0.288
		c0.576-0.72,1.224-1.44,1.872-2.16c2.88-1.872,4.824-2.592,6.48-3.6c1.584-0.432,3.168-0.936,4.824-1.44
		c0.864,0,1.728,0,2.664-0.072c-0.144-0.72-0.144-0.72-4.032-6.696c-0.144-1.152-0.288-2.376-0.432-3.6
		c0.072-1.512,0.144-3.024,0.216-4.608c-1.944-2.232-3.96-4.464-5.976-6.696c-0.36-0.6479-0.792-1.296-1.224-1.944
		c-0.288-1.008-0.576-2.016-0.936-3.096c0-3.096,0-3.096,0.432-5.544c1.08-2.16,2.232-4.32,3.384-6.48
		c0.72-0.432,0.72-0.432,1.8-1.656c1.728-0.864,1.728-0.864,2.52-1.656c0-0.288-0.072-0.648-0.144-1.008
		c-1.08-0.936-1.08-0.936-2.16-2.376c-0.504-1.152-1.008-2.376-1.512-3.6c0.072-1.08,0.144-2.232,0.216-3.384
		c1.224-2.16,2.52-4.32,3.816-6.48c1.008-0.936,1.008-0.936,2.448-2.88c0.216-0.504,0.432-1.08,0.72-1.656
		c0-0.504-0.072-1.008-0.144-1.584c-2.16-0.936-3.312-1.944-6.48-3.816c-0.72-0.648-1.44-1.296-2.16-1.944c-2.304,0-4.608,0-6.912,0
		c-0.936-0.288-1.872-0.576-2.88-0.936c-7.704-3.888-7.704-3.888-8.64-4.608c-0.72,0-1.44,0-2.16,0
		c-4.608-1.44-4.608-1.44-7.2-1.872c-1.008-0.576-2.088-1.152-3.168-1.728c-0.36,0-0.72,0-1.152,0
		c-0.288-0.432-0.576-0.864-0.864-1.296c-0.432-0.216-0.864-0.432-1.296-0.72c-0.216,0.432-0.432,0.864-0.72,1.296
		c-1.008,0.288-1.008,0.288-5.76,0.288c-2.16-0.504-4.608-1.44-6.984-1.944c-1.368-0.792-2.736-1.584-4.104-2.376
		c-1.872-2.448-1.872-2.448-3.024-4.68c-0.432-3.6-0.72-4.104-0.936-8.64c0.288-0.504,0.576-1.08,0.936-1.656
		c2.16-1.944,2.16-1.944,5.04-3.888c0.576-0.288,1.224-0.576,1.872-0.864c1.008-0.072,2.016-0.144,3.096-0.216
		c0.936,0.504,0.936,0.504,2.664,0.936c0.288,0.288,0.576,0.648,0.936,1.008c0.288,0,0.576,0,0.936,0
		c0.576-0.288,1.152-0.648,1.728-1.008c0.936-0.072,1.872-0.144,2.88-0.216c2.016,0.432,4.104,0.936,6.192,1.44
		c0.792,0.648,1.584,1.2961,2.448,1.944c0.864,1.008,1.728,2.016,2.592,3.096c0.288,0,0.648,0,1.008,0
		c0.936-0.936,0.936-0.936,2.16-1.44c1.152-0.072,2.376-0.144,3.6-0.216c1.152,0.288,2.376,0.576,3.6,0.936
		c0.936,0.648,1.872,1.296,2.88,1.944c1.728,2.304,3.456,4.608,5.256,6.912c0.72-0.36,1.44-0.72,2.16-1.152
		c1.224-0.072,2.52-0.144,3.816-0.288c2.232,0.648,4.464,1.296,6.768,1.944c3.312,1.944,3.312,1.944,4.536,2.376
		c1.944,2.16,3.384,3.168,4.32,4.32c1.656,1.008,1.656,1.008,2.16,1.008c0.072-0.072,0.216-0.216,0.36-0.36
		c0-1.944,0.432-2.88,0.936-6.48c2.736-1.944,3.384-2.664,4.968-3.528c2.448-0.72,4.896-1.44,7.416-2.16c1.008,0,2.016,0,3.096,0
		c1.224,0.504,1.224,0.504,2.16,0.504c2.16-2.16,2.16-2.16,5.76-5.04c1.368-0.648,2.736-1.296,4.104-1.944
		c1.512-0.432,3.024-0.936,4.536-1.44c1.296,0,2.592,0,3.888,0c0.432,0.144,0.936,0.288,1.44,0.504
		c0.576-0.072,1.224-0.144,1.872-0.216c4.824-3.888,4.824-3.888,7.704-5.76c0-0.288,0-0.576,0.072-0.864
		c-0.432-0.288-0.936-0.576-1.44-0.936c-1.224-2.376-2.52-4.752-3.816-7.2c-3.096-4.968-6.264-10.008-9.432-15.048
		c-1.728,0-3.384,0.504-21.168,2.88c-5.04,1.296-10.08,2.592-15.12,3.888c-11.232,3.816-11.232,3.816-18,5.76
		c-10.296,1.872-23.976,3.816-25.416,4.32c-3.816,0.072-7.632,0.144-11.52,0.216c-4.824-0.144-9.72-0.288-14.616-0.504
		c-11.52,0.72-11.52,0.72-12.24,1.008c-2.088,0-4.176,0-6.264,0c-4.536-1.008-16.776-2.88-25.92-4.824
		c-3.384-1.44-4.824-1.656-6.696-2.664c-1.008-0.288-2.088-0.576-3.168-0.936c-2.448-1.08-4.896-2.232-7.416-3.384
		c-1.44,0.144-1.44,0.144-1.656,0.504c-0.216-0.072-0.432-0.144-0.72-0.216c-1.368-1.296-2.736-2.592-4.104-3.888
		c-2.088-2.304-4.176-4.68-6.264-7.056c-0.144-1.152-0.36-2.376-0.576-3.6c-0.432-0.792-0.936-1.584-1.44-2.376
		C0.216,75.672,0.144,74.664,0,73.584c0.216-0.216,0.432-0.432,0.648-0.72c0.36,0,0.792-0.072,1.224-0.144
		c1.008,0.288,2.016,0.576,3.096,0.936c6.48-0.216,6.48-0.216,15.84-1.224c4.536-0.936,5.76-1.44,15.12-3.312
		c2.376-0.648,4.752-1.296,7.2-1.944c11.016-3.816,11.016-3.816,20.664-7.704c5.328-2.52,10.656-5.0399,16.056-7.632
		c6.984-4.176,14.04-8.352,21.096-12.528c0.792-0.144,1.584-0.288,2.448-0.4319c1.44-0.648,2.88-1.296,4.32-1.944
		c0.936-0.648,1.872-1.296,2.88-1.944c8.352-3.816,17.712-7.632,21.6-9.576c3.384-1.08,6.84-2.2319,10.296-3.384
		c0.072-1.5119-0.144-2.232-0.144-6.048c0.936-1.944,0.936-1.944,2.376-3.8879c0.648-0.432,1.368-0.864,2.088-1.2961
		c0.648-0.072,1.296-0.144,1.944-0.2879c0.936-0.936,0.936-0.936,1.872-1.44c0.864,0.072,1.728,0.144,2.664,0.2879
		c0.504,0.36,1.08,0.7201,1.656,1.0801c1.44,1.584,2.88,3.168,4.32,4.752c2.736,4.6079,6.624,12.024,8.496,16.128
		c2.52,4.3199,5.112,8.64,7.704,12.96c1.584,2.376,3.168,4.752,4.824,7.2c1.872,3.816,2.88,5.256,3.312,6.48
		c0.504,0.504,1.08,1.944,2.664,3.816c3.816,6.4799,4.32,6.984,6.336,10.8c1.368,1.872,2.808,3.816,4.248,5.76
		c1.872,3.384,5.76,9.144,7.632,12.528c1.0081,1.152,1.44,2.16,2.448,3.312c0.432,1.008,0.432,1.008,1.656,2.16
		c0.648,1.296,1.296,2.592,1.944,3.888c2.88,3.6,2.88,3.6,3.6,4.032c0.792,1.152,1.584,2.376,2.376,3.6
		c0,1.296,0.072,2.592,0.144,3.888c1.8,0,3.672-0.072,5.544-0.144c0.72,0.144,1.44,0.288,2.16,0.432
		c1.44,0.648,2.88,1.2961,4.32,1.944c0.288,0.36,0.576,0.7921,0.936,1.224c1.224,0,1.224,0,5.04-1.008c2.664,0,2.664,0,5.256,0.504
		c0.72,0.2881,1.44,0.576,2.16,0.936c2.016,2.16,4.032,4.392,6.048,6.624c0.432,0,0.936,0.0721,1.44,0.144
		c1.656-1.008,1.656-1.008,4.032-1.944c0.792-0.072,1.584-0.144,2.448-0.216c2.592,0.936,2.592,0.936,3.312,0.936
		c0.648-0.864,1.296-1.728,1.944-2.664c1.368-0.72,2.736-1.44,4.1039-2.16c1.656,0,3.312,0.504,4.3201,0.288
		c0.576-0.792,1.224-1.584,1.8719-2.448c0.792-0.576,1.584-1.224,2.448-1.872c1.512-0.792,3.024-1.584,4.536-2.448
		c2.664-0.072,5.4-0.144,8.136-0.216c0.288-0.36,0.648-0.72,1.0081-1.08c1.728-4.32,3.672-7.92,5.616-12.456
		c5.76-11.304,5.76-11.304,7.632-15.624c7.704-13.896,7.704-13.896,9.6479-18c1.224-3.096,2.52-6.192,3.816-9.36
		c0.936-1.8,1.872-3.6,2.8801-5.472c1.44-3.888,2.376-5.544,3.384-8.64c3.816-8.208,4.752-11.088,6.696-14.688
		c0.288-1.008,0.576-2.016,0.936-3.0961c1.296-2.6639,2.592-5.4,3.8879-8.136c0.936-1.5839,1.872-3.168,2.8801-4.824
		c0.4319-0.432,0.936-0.936,1.44-1.44c0.144-0.36,0.288-0.7921,0.4319-1.2241c3.168-3.5999,3.168-3.5999,4.464-4.5359
		c0.72-0.2881,1.44-0.576,2.16-0.864c2.304-0.072,4.608-0.144,6.984-0.216c0.36,0.144,0.792,0.288,1.224,0.432
		c0.576,0.7919,1.224,1.656,1.872,2.52c0.072,0.504,0.216,1.0081,0.36,1.512c-0.216,4.536-0.216,4.536-0.936,8.64
		c2.88,1.2241,5.832,2.448,8.784,3.6721c2.232,0.6479,4.464,1.296,6.696,1.9439c6.696,3.0961,6.696,3.0961,11.736,5.0401
		c5.9041,1.872,11.808,3.816,17.784,5.76c1.0801,0.576,2.2321,1.224,3.384,1.8719c10.296,4.3201,10.296,4.3201,12.24,4.824
		c3.024,1.44,6.048,2.88,9.072,4.32c4.464,1.224,8.928,2.52,13.464,3.816c8.136,2.88,10.2961,3.888,16.56,5.76
		c0.72,0.2881,1.44,0.648,2.16,1.008c4.824,0.936,4.824,0.936,12.024,2.88c3.24,0.504,6.48,1.08,9.792,1.656
		c2.736,0.144,5.472,0.288,8.208,0.504c2.232-0.216,4.464-0.432,6.696-0.72c1.4399-0.432,2.8799-0.936,4.3199-1.44
		c1.4399,0.216,1.4399,0.216,1.8,0.576c0,0.36,0,0.792,0,1.224c-1.008,1.224-2.88,5.04-8.64,14.4
		c-1.584,1.872-3.1681,3.816-4.824,5.76c-0.072,0.36-0.144,0.792-0.216,1.224c-1.296,0.792-4.464,1.728-6.336,2.736
		c-3.6721,1.224-7.3441,2.52-11.088,3.816c-6.264,1.584-12.6,3.168-18.936,4.824c-2.304,0.288-4.608,0.576-6.984,0.936
		c-2.448,0.648-4.896,1.296-7.416,1.944c-2.448,0.36-4.896,0.72-7.416,1.152c-24.984,0-26.424,0.288-32.4,0
		c-17.568,0.288-17.568,0.288-18.504,0c-2.592-0.072-5.256-0.144-7.92-0.216c-13.176-3.816-26.352-7.632-39.6-11.52
		c-6.48,0-6.48,0-8.136-0.216c-0.288,0.144-0.576,0.36-0.864,0.576c-4.608,10.368-4.608,10.368-6.48,15.624
		c-1.872,3.888-3.816,7.776-5.7599,11.736c0,0.216,0,0.432,0.072,0.72c2.664,0.864,4.608,1.8,6.048,2.016
		c0.504-0.432,1.656-0.72,2.376-1.44c1.008-0.216,1.008-0.216,7.704,0c5.76,1.944,5.76,1.944,7.416,2.88
		c1.512,1.2961,3.024,2.592,4.608,3.888c2.592,0,3.816-0.288,7.632,0c5.04,1.872,5.76,2.376,7.488,2.88
		c0.7919,0.432,1.584,0.936,2.376,1.44c1.944,2.376,1.944,2.376,2.736,3.96c0.288,0,0.576,0,0.864,0.072
		c1.2239-0.432,2.52-0.936,3.8159-1.44c0.2161-0.216,0.4321-0.432,0.72-0.72c1.152-0.288,2.376-0.576,3.6-0.936
		c0.72,0,1.44,0,2.16,0c1.44-0.936,2.448-2.016,4.104-3.096c0.288-0.288,0.576-0.648,0.936-1.008
		c3.384-1.872,3.384-1.872,5.04-2.376c1.152-0.144,2.376-0.288,3.6-0.504c0.36-0.216,0.792-0.432,1.224-0.72
		c0.936,0.0721,1.872,0.144,2.88,0.288c2.376-1.944,2.376-1.944,5.76-3.888c1.8-0.576,3.672-1.224,5.544-1.872
		c1.296-0.648,2.664-1.296,4.032-1.944c2.448-1.944,2.448-1.944,2.88-2.664c1.008-0.576,2.088-1.224,3.168-1.872
		c2.88-1.008,2.88-1.008,7.2-1.944c4.032-0.504,4.032-0.504,8.64-0.504c1.296,0.648,2.664,1.296,4.032,1.944
		c0.792,0.648,1.584,1.296,2.448,2.016c2.16,3.2401,2.16,3.2401,2.88,3.744c0,1.368-0.072,2.808-0.144,4.248
		c-0.648,1.152-1.296,2.376-1.944,3.6c-2.16,2.16-2.16,2.16-4.536,4.032c-1.368,0.576-2.736,1.152-4.176,1.8
		c-1.152,0.144-2.376,0.288-3.6,0.504c-0.648,0.792-1.296,1.584-1.944,2.376c-0.864,0.648-1.728,1.296-2.664,1.944
		c-2.8799,0.936-2.8799,0.936-7.632,1.872c-1.512,0.144-3.024,0.288-4.608,0.504c-1.8,1.224-3.6,2.52-5.472,3.816
		c-1.368,0.648-2.736,1.2961-4.104,1.944c-3.384,0.72-3.384,0.72-4.824,0.72c-4.536,4.104-4.536,4.104-7.632,6.48
		c-1.368,0.648-2.736,1.368-4.104,2.088c-0.144,1.152,0.36,5.04,0.576,10.512c-0.072,0.864-0.144,1.728-0.216,2.664
		c-1.44,3.096-1.44,3.096-1.584,4.32c1.008,0.216,2.088,0.504,3.168,0.792c0.72,0.648,1.44,1.296,2.16,1.944
		c0.4319,1.008,0.864,2.016,1.296,3.024c0.072,1.584,0.144,3.168,0.216,4.824c-0.288,1.872-0.576,3.816-0.936,5.76
		c-0.648,1.224-1.296,2.52-1.944,3.816c-0.504,0.72-1.08,1.44-1.656,2.16c0.216,1.44,0.216,1.44,1.152,3.384
		c0.072,2.592,0.144,5.256,0.288,7.92c-0.288,1.224-0.648,2.52-1.008,3.816c-0.576,0.936-1.2241,1.872-1.872,2.88
		c-1.152,1.224-2.376,2.52-3.6,3.816c0,0.216,0,0.432,0,0.72c0.216,0.144,0.432,0.288,0.72,0.504
		c0.216,0.648,0.432,1.296,0.72,1.944c0,1.584,0,3.168,0,4.752c1.296,0.432,2.592,0.864,3.96,1.2961
		c0.936,1.08,1.872,2.232,2.8799,3.384c1.656,0.072,3.3121,0.144,5.04,0.216c1.728,0.432,3.456,0.936,5.256,1.4399
		c1.7999,1.296,3.672,2.592,5.544,3.888c0.288,0.0721,0.576,0.144,0.936,0.216c0.72-0.216,1.44-0.4319,2.16-0.72
		c1.152,0.0721,2.376,0.144,3.6,0.216c3.6,1.944,3.6,1.944,4.824,2.88c1.656,0.504,1.656,0.504,9.864,1.44
		c2.16,0.648,4.3201,1.296,6.48,1.944c1.152,0.648,2.376,1.296,3.6,1.944c0.792,0.576,1.584,1.224,2.376,1.872
		c0.72,1.44,1.44,2.952,2.232,4.464c-0.072,1.584-0.144,3.168-0.216,4.824c-0.936,1.152-1.872,2.376-2.88,3.6
		c-1.152,0.576-2.304,1.152-3.456,1.8c-0.936,0.216-1.872,0.432-2.88,0.72c-1.008,0-2.016,0-3.096,0
		c-1.296-0.216-2.592-0.432-3.888-0.72c-0.936,0.432-0.936,0.432-4.5359,0.936c-1.0801-0.072-2.232-0.144-3.384-0.216
		c-5.256-1.944-5.256-1.944-5.76-2.448c-0.576-0.288-1.224-0.576-1.872-0.936c-0.936-0.864-1.8719-1.728-2.88-2.664
		c-1.4399,0-1.4399,0-3.8879,0.504c-1.0081-0.072-2.0161-0.144-3.096-0.216c-1.44-0.6479-2.88-1.296-4.32-1.944
		c-2.16-2.16-2.16-2.16-4.536-3.816c-1.944,0-1.944,0-3.168,0.432c-3.6-0.2159-3.6-0.2159-8.136-1.152
		c-1.8-0.936-3.672-1.872-5.544-2.88c-0.864-0.864-1.728-1.728-2.592-2.664c-0.36,0-0.792,0-1.224,0
		c-0.648,1.008-1.296,2.016-1.944,3.096c-2.16,1.944-3.6,2.88-4.536,3.888c-1.8,0.936-3.6721,1.872-5.544,2.88
		c-2.6641,0.576-5.4,1.224-8.136,1.872c-1.728,1.296-3.4561,2.592-5.256,3.888c-1.584,0.432-3.168,0.936-4.824,1.44
		c-1.656,0.072-3.312,0.144-5.04,0.216c-1.224-0.288-2.52-0.576-3.816-0.936c-0.72-0.36-1.44-0.792-2.16-1.224
		c-0.288,0-0.6481,0.072-1.008,0.144c-1.152,1.08-1.152,1.08-2.88,2.016c-3.816,0.936-3.816,0.936-6.192,1.224
		c-0.864-0.288-1.728-0.648-2.664-1.008c-0.864-0.576-1.728-1.224-2.664-1.872c-0.288,0-0.576,0-0.936,0
		c-1.2239,0.936-1.2239,0.936-4.1039,2.376c0,0.288-0.072,0.576-0.144,0.864c1.944,4.104,1.944,4.104,2.88,5.544
		c0.288,0.216,0.648,0.432,1.008,0.72c0.576,1.512,1.224,3.024,1.872,4.536c1.584,2.448,3.168,4.896,4.824,7.416
		c0.144,0.432,0.288,0.936,0.504,1.44c0.792,0.936,1.584,1.872,2.376,2.88c0.288,0.936,0.576,1.872,0.864,2.88
		c0.216,0,0.432,0,0.72,0c0.576,1.296,1.152,2.592,1.8,3.888c0.792,1.152,1.584,2.376,2.376,3.6
		c0.288,0.864,0.576,1.728,0.936,2.592c1.0081,0.936,2.0881,1.872,3.168,2.88c0.144,0.432,0.288,0.936,0.432,1.44
		c-0.072,0.72-0.144,1.44-0.216,2.16c-0.936,1.44-0.936,1.44-2.52,2.7361c-0.8641,0.144-1.728,0.288-2.592,0.504
		c-4.032,0.144-8.136,0.288-12.24,0.504c-0.36-0.36-0.792-0.72-1.224-1.08c-7.56-12.024-8.064-12.456-9-14.184
		c-1.008-1.152-1.008-1.152-12.528-21.312c-0.576-1.44-1.224-2.88-1.872-4.32c-1.944-2.88-1.944-2.88-4.176-7.128
		c-2.4481-0.216-2.88-0.504-6.264-0.936c-0.936-0.288-1.8719-0.648-2.88-1.008c-1.0079-0.576-2.016-1.224-3.096-1.872
		c-2.16-1.944-2.16-1.944-3.528-3.744c0-0.288,0-0.576-0.072-0.936c-0.216,0-0.432,0-0.72,0c-0.432,1.944-0.432,1.944-0.864,2.664
		c-1.08,0.792-1.08,0.792-3.456,1.728c-0.936,0.792-1.872,1.584-2.88,2.448c-1.5121,0.432-3.024,0.936-4.608,1.44
		c-1.296,0-2.664,0-4.032,0c-1.944,2.16-1.944,2.16-4.824,4.536c-1.224,0.504-1.224,0.504-2.304,1.368c0,0.288,0,0.576,0,0.936
		c0.144,0.144,0.288,0.288,0.504,0.504c0.072,0.432,0.144,0.936,0.216,1.44c-0.288,0.864-0.576,1.728-0.936,2.592
		c-1.944,3.168-2.16,4.104-3.24,5.328c-0.288,0.144-0.576,0.288-0.864,0.432c-0.936,2.376-1.872,4.752-2.88,7.2
		c-3.816,7.344-7.632,14.688-11.52,22.104c-1.944,2.88-1.944,2.88-2.88,5.0399c-1.152,0.576-2.304,1.152-3.456,1.8
		c-1.08,0.072-2.232,0.144-3.384,0.216c-0.792,0.216-1.584,0.432-2.376,0.72C202.032,301.176,201.096,301.176,200.088,301.176
		L200.088,301.176z M89.928,257.976c-0.648-0.144-1.296-0.288-1.944-0.504c-1.152-0.936-1.152-0.936-2.016-2.232
		c-0.504-1.656-0.504-1.656-0.72-4.824c0.144-0.36,0.288-0.72,0.432-1.152c1.08-1.08,2.232-2.232,3.384-3.384
		c0.504-0.288,1.008-0.576,1.584-0.864c1.368-0.072,2.736-0.144,4.104-0.216c0.72,0.288,1.44,0.576,2.16,0.936
		c1.296,1.224,2.664,2.52,4.032,3.816c3.168,1.944,3.6,2.448,5.04,3.024c0,0.288,0.072,0.648,0.144,1.008
		c-0.792,0.576-1.656,1.224-2.52,1.872c-2.376,0.864-2.376,0.864-9.36,2.304C92.808,257.832,91.368,257.904,89.928,257.976
		L89.928,257.976z M226.728,252.72c-2.88-0.072-5.76-0.144-8.64-0.288c-0.504-0.288-1.08-0.576-1.656-0.936
		c-0.576-0.864-1.224-1.8-1.872-2.736c-1.656-4.32-1.656-4.32-2.592-7.704c-0.792-1.512-1.584-3.024-2.448-4.536
		c0-0.432,0.072-0.936,0.144-1.44c0.72-0.36,0.72-0.36,3.888-0.864c1.008,0.072,2.016,0.144,3.096,0.216
		c1.368,0.288,2.736,0.648,4.104,1.008c1.296,0.648,2.664,1.296,4.032,2.016c4.104,3.96,4.104,3.96,6.768,5.904
		c2.016,0.936,4.104,1.872,6.192,2.88c0,0.288,0.072,0.576,0.144,0.864c-0.72,0.576-1.44,1.224-2.16,1.872
		c-1.944,1.08-3.888,2.16-5.904,3.2401C228.384,252.432,227.952,252.72,226.728,252.72L226.728,252.72z M112.032,252.216
		c-2.088-0.504-4.176-1.08-6.264-1.656c-1.368-0.936-2.736-1.872-4.104-2.88c-1.872-2.088-1.872-2.088-4.32-4.104
		c-1.44-0.504-1.44-0.504-1.872-0.936c0-0.36-0.072-0.72-0.144-1.08c0.72-0.792,1.44-1.584,2.16-2.376
		c0.792-0.576,1.656-1.224,2.52-1.872c1.656-0.432,1.656-0.432,1.944-0.72c1.728-0.216,3.456-0.432,5.256-0.72
		c5.76,0.288,5.76,0.288,7.2,0.72c4.104,3.888,4.104,3.888,6.984,6.048c0.576,1.08,1.152,2.16,1.728,3.24c0,0.504,0,1.08,0,1.656
		c-0.216,0.288-0.504,0.576-0.792,0.864c-1.656,0.936-3.312,1.872-5.04,2.88c-0.936,0.288-1.872,0.576-2.88,0.936
		C113.616,252.216,112.824,252.216,112.032,252.216L112.032,252.216z M207.792,251.496c-1.44-0.072-2.88-0.144-4.32-0.216
		c-1.728-0.648-3.528-1.296-5.328-1.944c-0.936-0.648-1.872-1.296-2.88-1.944c-1.872-2.16-1.872-2.16-2.736-3.672
		c-0.72-2.16-1.44-4.32-2.16-6.48c-0.36-0.72-0.792-1.44-1.224-2.16c0-0.504,0-1.08-0.072-1.656
		c1.584-0.288,3.168-0.576,4.752-0.864c1.512,0.072,3.024,0.144,4.608,0.216c1.08,0.288,2.16,0.576,3.312,0.936
		c4.104,1.944,4.104,1.944,5.544,3.024c0.648,1.008,1.296,2.016,1.944,3.024c1.152,3.168,2.304,6.336,3.456,9.504
		c0,1.44,0,1.44-0.36,1.728C210.816,251.136,209.304,251.28,207.792,251.496L207.792,251.496z M188.784,247.896
		c-2.232-0.432-4.464-0.936-6.696-1.44c-0.72-0.288-1.44-0.576-2.16-0.936c-3.384-2.448-3.384-2.448-4.536-2.88
		c-1.08-1.944-2.16-3.888-3.312-5.904c-0.144-0.864-0.288-1.728-0.432-2.592c0-2.376,0-4.752,0-7.2
		c0.144-0.144,0.36-0.288,0.576-0.432c1.008-0.072,2.088-0.144,3.168-0.216c1.08,0.288,2.16,0.576,3.312,0.936
		c1.152,0.648,2.376,1.296,3.6,1.944c1.08,0.936,2.232,1.872,3.384,2.88c1.224,2.52,2.448,5.04,3.672,7.56
		c1.944,5.76,2.448,6.48,2.664,7.488c-0.504,0.216-1.008,0.504-1.512,0.792C189.936,247.896,189.36,247.896,188.784,247.896
		L188.784,247.896z M306.648,246.96c-0.864-0.288-1.728-0.648-2.6641-1.008c-0.864-0.792-1.728-1.584-2.592-2.376
		c-0.576-0.288-1.152-0.576-1.728-0.936c-1.872-2.448-3.744-5.616-6.12-8.496c0-0.72,0.072-1.44,0.144-2.16
		c0.648-0.36,1.296-0.72,1.944-1.152c2.376,0,2.376,0,5.472,0.504c1.8,0.936,3.672,1.872,5.544,2.88
		c1.944,2.16,3.96,4.392,5.976,6.624c0.432,0.792,0.936,1.656,1.44,2.52c0.288,0.216,0.648,0.504,1.008,0.7921
		c-1.44,1.08-1.44,1.08-3.6,2.088C309.888,246.456,308.304,246.672,306.648,246.96L306.648,246.96z M294.408,246.456
		c-0.576-1.224-1.152-2.448-1.8-3.672c-5.7599-9.144-5.7599-9.144-5.904-9.864c1.0081,0.216,2.088,0.504,3.168,0.7921
		c0.432,0.288,0.936,0.6479,1.44,1.008c1.152,1.368,2.376,2.736,3.6,4.176c0.072,0.432,0.144,0.936,0.288,1.44
		c1.0801,1.368,2.2321,2.736,3.384,4.104c0,0.216,0,0.432,0,0.72c-0.504,0.216-1.008,0.504-1.512,0.792
		C296.2079,246.096,295.344,246.24,294.408,246.456L294.408,246.456z M404.568,246.24c-1.728-0.72-3.456-1.512-5.184-2.304
		c-0.216-0.72-0.936-1.152-1.44-2.16c-0.144-1.008-0.288-2.016-0.504-3.096c-0.288-0.504-0.576-1.08-0.936-1.656
		c-1.44-4.824-1.44-4.824-3.384-9.36c0-0.432,0-0.936,0-1.44c1.152-0.432,2.304-0.864,3.528-1.368
		c0.8641,0.0721,1.728,0.144,2.6641,0.216c0.864,0.432,1.728,0.936,2.592,1.44c0.288,0.432,0.648,0.936,1.008,1.44
		c0.792,0.648,1.584,1.296,2.376,1.944c1.512,2.448,3.096,4.896,4.68,7.344c0.576,2.16,1.224,4.32,1.872,6.48
		c0,0.648,0,1.296-0.072,2.016c-0.792,0.144-1.584,0.288-2.376,0.504C407.808,246.24,406.224,246.24,404.568,246.24L404.568,246.24z
		 M417.528,246.24c-1.4401-0.504-1.4401-0.504-2.88-1.44c-0.36-0.864-0.36-0.864-0.36-3.24c-1.296-2.52-2.592-5.112-3.8881-7.704
		c-0.5759-0.864-1.2239-1.728-1.8719-2.592c-0.288-0.792-0.576-1.584-0.864-2.448c1.512,0,3.024-0.072,4.608-0.144
		c3.024,0.936,6.048,1.872,9.072,2.88c1.44,0.792,2.88,1.656,4.32,2.52c0.288,0.72,0.576,1.44,0.864,2.232
		c-0.288,5.04-0.288,5.04-0.72,6.696c-0.792,0.648-1.584,1.296-2.448,1.944c-2.016,0.792-2.016,0.792-4.392,1.296
		C418.536,246.24,418.032,246.24,417.528,246.24L417.528,246.24z M321.9839,245.736c-1.0079-0.288-2.0159-0.576-3.0959-0.936
		c-0.864-0.72-1.728-1.44-2.664-2.16c-1.08-1.512-2.16-3.024-3.312-4.608c-1.224-0.936-1.224-0.936-3.168-3.312
		c-0.36-0.864-0.36-0.864-0.72-1.08c0-0.4319,0-0.936,0-1.44c0.648-0.576,1.296-1.1519,1.944-1.8c1.944-0.504,2.88-1.008,5.76-1.44
		c2.16,0,2.16,0,3.816,0.432c6.048,3.888,6.048,3.888,8.424,5.76c0.936,1.224,0.936,1.224,2.376,2.1599
		c1.224,1.08,2.52,2.16,3.816,3.312c0,0.288,0.072,0.576,0.1439,0.936c-1.296,0.936-2.5919,1.872-3.96,2.88
		c-2.376,0.792-2.376,0.792-5.76,1.296C324.432,245.736,323.2079,245.736,321.9839,245.736L321.9839,245.736z M240.912,244.512
		c-1.44-0.288-2.88-0.576-4.32-0.936c-2.16-1.224-4.32-2.52-6.48-3.816c-4.32-4.104-4.32-4.104-5.832-5.184c0-0.432,0-0.936,0-1.44
		c2.088-2.16,2.088-2.16,4.104-3.744c1.152-0.432,2.376-0.936,3.6-1.44c2.664,0,2.664,0,4.608,0.504
		c0.576,0.792,1.224,1.584,1.872,2.376c1.872,1.584,3.816,3.168,5.76,4.824c1.944,0.936,1.944,0.936,3.888,1.44
		c1.872,0.144,3.816,0.288,5.76,0.504c0,0.648-0.072,1.296-0.144,2.016c-1.08,0.576-2.16,1.152-3.24,1.8
		c-0.72,0.648-1.44,1.2961-2.16,1.944c-0.72,0.288-1.44,0.576-2.16,0.936C244.44,244.368,242.712,244.44,240.912,244.512
		L240.912,244.512z M126.648,244.08c-0.72-0.288-1.44-0.648-2.16-1.008c-4.536-3.816-4.536-3.816-9.144-8.352
		c0-0.72-0.072-1.512-0.144-2.304c0.864-0.72,1.728-1.44,2.664-2.16c2.088-0.864,2.088-0.864,4.464-1.296c1.584,0,3.168,0,4.824,0
		c3.6,0.936,3.6,0.936,5.76,1.872c1.008,0.6479,2.016,1.296,3.096,1.944c4.536,1.944,4.536,1.944,5.112,2.52
		c-0.072,0.864-0.144,1.728-0.216,2.664c-1.008,1.08-2.016,2.232-3.096,3.384c-2.52,1.296-2.52,1.296-5.616,2.232
		C129.312,244.08,129.312,244.08,126.648,244.08L126.648,244.08z M269.712,244.08c-1.2961-0.144-2.592-0.288-3.8881-0.504
		c-1.152-0.6479-2.376-1.296-3.6-1.944c-0.576-0.576-1.224-1.224-1.872-1.872c-0.288-0.504-0.576-1.008-0.864-1.584
		c-1.0081-3.816-1.0081-3.816-2.16-11.232c0.072-0.648,0.144-1.296,0.216-1.944c0.36,0,0.72-0.072,1.08-0.144
		c1.296,0.288,2.592,0.576,3.8879,0.936c2.808,5.76,5.616,11.592,8.496,17.424c0,0.144-0.072,0.36-0.144,0.576
		C270.504,243.864,270.144,243.936,269.712,244.08L269.712,244.08z M166.248,240.912c-1.656-0.576-3.312-1.224-5.04-1.872
		c-1.368-0.792-2.736-1.584-4.104-2.448c-0.936-1.44-0.936-1.44-1.8-3.888c-0.216-2.448-0.216-2.448-0.72-4.104
		c0.216-5.976,0.216-5.976,0.72-8.424c0.144-0.216,0.288-0.432,0.504-0.72c0.072-0.72,0.144-1.44,0.216-2.16
		c0.504-0.432,0.504-0.432,1.8-3.744c0.288,0,0.648,0,1.008,0c1.44,1.08,2.88,2.232,4.32,3.384c0.288,0.864,1.296,1.8,4.176,6.12
		c0.432,1.512,0.936,3.024,1.44,4.608c0,1.008,0,2.016,0,3.096c0.36,2.52,0.72,5.112,1.152,7.704
		c-0.072,0.72-0.144,1.44-0.288,2.232C168.912,240.912,168.912,240.912,166.248,240.912L166.248,240.912z M387.792,240.696
		c-1.512-0.792-3.024-1.584-4.608-2.376c-0.936-1.224-0.936-1.224-3.096-3.168c-0.216-0.576-0.432-1.152-0.648-1.728
		c0-2.88,0-5.76,0-8.64c-0.288-1.152-0.576-2.376-0.936-3.6c0.072-0.288,0.216-0.576,0.3599-0.864
		c0.936-0.072,1.8721-0.144,2.8801-0.288c0.72,0.144,1.44,0.288,2.16,0.504c0.36,0.504,0.72,1.008,1.08,1.584
		c0.576,0.216,1.152,0.504,1.8,0.792c1.944,2.16,1.944,2.16,3.888,5.04c0.864,3.168,1.8,6.336,2.736,9.504
		c0.216,0.36,0.432,0.792,0.72,1.224c0,0.216-0.072,0.504-0.144,0.792c-1.08,0.36-2.16,0.792-3.312,1.224
		C389.736,240.696,388.8,240.696,387.792,240.696L387.792,240.696z M338.112,239.256c-1.008-0.432-2.088-0.936-3.168-1.44
		c-2.232-1.944-4.4641-3.96-6.696-5.976c-1.152-0.792-2.304-1.656-3.528-2.52c0-0.72,0-0.72,0.504-1.224
		c3.96-1.8,3.96-1.8,7.56-3.024c2.592-0.072,5.256-0.144,7.92-0.216c2.52,0.288,5.112,0.576,7.704,0.936
		c2.088,0.648,4.176,1.296,6.264,1.944c0.432,0.864,0.432,0.864,0.576,2.304c-0.288,0.72-0.6479,1.44-1.008,2.16
		c-1.512,1.224-3.024,2.52-4.536,3.816c-1.44,0.72-2.8799,1.512-4.392,2.304c-1.296,0.288-2.592,0.576-3.8881,0.936
		C340.344,239.256,339.264,239.256,338.112,239.256L338.112,239.256z M249.264,235.152c-1.152-0.288-2.376-0.576-3.6-0.936
		c-1.44-0.936-1.44-0.936-5.976-4.824c-0.648-0.936-1.296-1.944-1.944-2.952c-0.576-1.728-1.152-3.456-1.8-5.256
		c-0.216-2.592-0.432-5.256-0.72-7.92c1.08-0.144,1.08-0.144,3.024,0.288c6.264,2.88,6.696,3.384,8.64,4.32
		c0.72,0.648,1.44,1.296,2.16,1.944c1.944,2.664,1.944,2.664,5.04,5.76c0.432,0.792,0.864,1.656,1.296,2.5201
		c0.504,3.5999,0.504,3.5999,0.36,5.904c-1.44,0.432-1.44,0.432-2.16,0.936C252.144,235.008,250.704,235.08,249.264,235.152
		L249.264,235.152z M372.168,235.152c-1.44-0.288-2.88-0.576-4.32-0.936c-1.8-0.936-3.6721-1.872-5.5441-2.88
		c-0.936-1.008-1.8719-2.016-2.88-3.096c0-0.288,0-0.576,0-0.864c2.5201-2.16,2.5201-2.16,6.3361-6.48
		c1.296-1.728,2.592-3.456,3.8879-5.256c0.36,0,0.72-0.072,1.0801-0.144c0.864,0.288,1.728,0.576,2.6639,0.936
		c0.2161,0.504,0.4321,1.008,0.648,1.584c0.504,0.432,1.008,0.936,1.584,1.44c0.6479,1.872,1.296,3.816,1.944,5.76
		c-0.072,2.88-0.144,5.7599-0.288,8.64c-0.648,0.432-1.296,0.864-2.0161,1.2961C374.256,235.152,373.248,235.152,372.168,235.152
		L372.168,235.152z M145.872,233.712c-2.304-0.576-4.608-1.224-6.984-1.872c-9.144-4.824-9.144-4.824-9.576-5.328
		c0-0.288-0.072-0.648-0.144-1.008c0.432-0.288,0.864-0.648,1.296-1.008c4.32-1.8,4.32-1.8,8.424-3.024c1.008,0,2.016,0,3.096,0
		c2.16,1.008,2.16,1.008,3.384,1.944c2.16,0.576,4.32,1.152,6.48,1.8c0,1.8-0.072,3.672-0.144,5.544
		c-0.648,0.72-1.296,1.44-1.944,2.16c-0.504,0.216-1.008,0.504-1.512,0.7921C147.456,233.712,146.664,233.712,145.872,233.712
		L145.872,233.712z M206.352,233.496c-0.936-0.432-1.872-0.936-2.88-1.44c-1.8-0.432-3.672-0.936-5.544-1.44c-1.8,0-3.672,0-5.544,0
		c-0.936,0.216-1.872,0.432-2.88,0.72c-0.576,0-1.224-0.072-1.872-0.144c-2.16-2.016-3.6-2.952-4.608-3.96
		c-0.432-0.288-0.936-0.576-1.44-0.936c-1.44-0.504-2.88-1.008-4.32-1.512c-0.072-0.216-0.144-0.432-0.216-0.72
		c0.432-0.144,0.936-0.288,1.44-0.432c0.504-0.504,1.08-1.08,1.656-1.656c0.72,0,1.44,0,2.16,0c1.008,0.504,5.328,1.224,5.544,1.44
		c1.368-0.216,2.736-0.4319,4.104-0.72c3.816-1.44,3.816-1.44,5.472-1.656c1.728,0.936,1.728,0.936,2.16,1.44
		c-0.288,0.0721-0.576,0.216-0.936,0.36c0.288,0.216,0.576,0.432,0.936,0.72c1.728,0.36,3.528,0.72,5.328,1.08
		c1.8,0.144,3.6,0.2881,5.472,0.432c1.8-0.072,3.672-0.144,5.544-0.216c0.936,0.936,0.936,0.936,2.664,1.944
		c2.016,0.648,4.104,1.296,6.192,2.016c-0.288,0.576-0.576,1.152-0.864,1.728c-0.864,0.792-1.728,1.584-2.592,2.376
		c-0.504,0-1.008,0-1.584,0.0721c-1.296-0.2881-2.664-0.576-4.032-0.936c-3.384,0.216-3.384,0.216-6.264,0.72
		c-0.36,0.216-0.792,0.432-1.224,0.72C207.648,233.496,207,233.496,206.352,233.496L206.352,233.496z M305.2079,230.832
		c-1.224-0.576-2.52-1.224-3.816-1.872c-1.296-0.144-2.592-0.288-3.8879-0.504c-1.44,0.072-2.88,0.144-4.32,0.216
		c-1.224,0.648-2.52,1.296-3.816,1.944c-1.728-0.432-3.456-0.864-5.256-1.296c0-0.288-0.072-0.576-0.144-0.936
		c1.152-1.224,2.304-2.448,3.4559-3.744c8.6401-1.008,8.6401-1.008,10.8-1.008c0.576,0.144,1.152,0.288,1.728,0.504
		c0.4321-0.504,0.4321-0.504,4.032-1.944c1.224-0.216,1.224-0.216,5.04,0c0.432-0.288,0.936-0.576,1.44-0.936
		c1.728-0.144,3.528-0.288,5.328-0.504c1.584-0.504,3.168-1.08,4.752-1.6559c0.72,0,1.4399,0,2.16,0
		c2.448,0.936,4.104,1.944,7.488,3.3839c0.144,0.144,0.288,0.36,0.432,0.576c-1.656,1.08-1.656,1.08-8.352,3.96
		c-0.36,0.072-0.7921,0.144-1.2241,0.216c-1.152-0.216-2.376-0.432-3.6-0.72c-1.584,0.288-3.168,0.648-4.824,1.008
		c-1.512,0.576-3.024,1.224-4.536,1.872c-0.36,0.432-0.7921,0.936-1.2241,1.44C306.36,230.832,305.784,230.832,305.2079,230.832
		L305.2079,230.832z M226.224,226.8c-4.752-1.008-4.752-1.008-7.2-1.944c-0.432-0.288-0.936-0.576-1.44-0.936
		c-0.576-0.9359-1.224-1.8719-1.872-2.88c-0.36-1.008-0.72-2.016-1.152-3.024c-0.144-3.168-0.288-6.336-0.432-9.576
		c0.288-0.36,0.576-0.792,0.936-1.224c0.864-0.36,0.864-0.36,3.96-0.864c1.296,0.072,2.592,0.144,3.888,0.288
		c1.584,0.576,3.168,1.224,4.752,1.872c2.88,1.944,2.88,1.944,3.888,3.024c0.4319,0.7921,0.864,1.584,1.296,2.4481
		c0.936,6.48,1.44,7.92,1.656,10.08c-0.936,0.576-1.944,1.152-2.952,1.728c-2.664,0.72-2.664,0.72-2.88,1.008
		C227.88,226.8,227.088,226.8,226.224,226.8L226.224,226.8z M355.104,226.512c-0.432-0.432-0.432-0.432-2.592-1.44
		c-1.8-0.432-3.672-0.936-5.544-1.44c-6.984-0.72-9.36-0.72-10.0081-1.008c0-0.216,0-0.432,0-0.72
		c1.728-1.584,3.528-3.168,5.3281-4.824c0.936-1.44,5.04-5.76,5.976-7.2c0.432-0.288,0.864-0.576,1.368-0.864
		c2.376-0.504,7.632-0.936,10.512-1.44c1.8-0.072,3.672-0.144,5.544-0.216c0.216,0.216,0.432,0.432,0.72,0.72
		c0.648,0,1.296-0.072,1.944-0.144c0.072,2.16,0.072,2.16-0.432,4.608c-0.216,0.36-0.432,0.72-0.72,1.152
		c0,1.224,0,1.224-0.432,2.448c-1.008,0.936-2.88,3.816-6.768,8.136c-1.152,0.72-2.304,1.44-3.456,2.232
		C356.112,226.512,355.608,226.512,355.104,226.512L355.104,226.512z M282.168,226.08c-0.288-0.36-0.576-0.72-0.864-1.08
		c0.072-0.288,0.2159-0.576,0.36-0.864c0.936,0,1.872,0.0721,2.88,0.144c-0.432,0.504-0.936,1.008-1.44,1.512
		C282.816,225.864,282.528,225.936,282.168,226.08L282.168,226.08z M169.848,223.56c-0.072-0.504-0.216-1.08-0.36-1.656
		c-1.944-3.6-1.944-3.6-4.896-7.992c-2.16-1.512-2.16-1.512-5.544-3.096c0-0.288,0-0.576,0-0.936c0.936-0.36,0.936-0.36,3.384-0.648
		c0.792,0.144,1.584,0.288,2.376,0.504c2.16,2.376,2.16,2.376,2.88,2.736c0.288,0.504,0.576,1.008,0.936,1.584
		c1.656,1.44,3.312,2.88,5.04,4.32c3.168,1.44,3.168,1.44,3.384,1.8c-0.36,0.36-0.792,0.72-1.224,1.08
		c-0.936,0.288-1.872,0.576-2.88,0.936c-0.36,0.288-0.72,0.648-1.152,1.008C171.144,223.272,170.496,223.416,169.848,223.56
		L169.848,223.56z M208.728,222.696c-1.728-0.288-3.456-0.576-5.256-0.936c-0.864-0.288-1.728-0.648-2.664-1.008
		c-0.936-0.936-2.88-1.872-4.104-3.0959c-0.576-1.44-1.152-2.88-1.8-4.392c-0.936-1.008-3.096-5.04-4.104-6.264
		c0-0.36,0-0.792,0-1.224c0.648-0.432,1.368-0.936,2.088-1.44c1.44-0.36,1.944-0.864,3.096-1.296c1.512,0,3.024,0,4.608,0
		c2.16,0.576,4.32,1.224,6.48,1.872c2.88,1.944,2.88,1.944,3.816,2.88c0.792,1.584,0.792,1.584,1.296,3.744
		c0.072,1.872,0.144,3.816,0.216,5.76c0.36,1.584,0.792,3.168,1.224,4.824c-0.36,0.144-0.72,0.36-1.08,0.576
		C211.32,222.696,210.024,222.696,208.728,222.696L208.728,222.696z M258.192,222.696c-1.296-0.144-2.592-0.288-3.888-0.504
		c-0.936-1.152-0.936-1.152-3.024-2.736c0-0.72,0-1.44,0-2.16c0.936-1.728,1.872-3.456,2.88-5.256c0.288,0,0.576-0.072,0.864-0.144
		c0.288,0.36,0.648,0.72,1.008,1.08c1.368,2.7361,2.736,5.472,4.176,8.208c0.072,0.432,0.144,0.936,0.2159,1.44
		C259.704,222.624,258.9839,222.624,258.192,222.696L258.192,222.696z M150.192,222.4799c-0.864-0.288-1.728-0.6479-2.664-1.008
		c-0.936-0.72-1.872-1.44-2.88-2.232c-4.68-6.696-4.68-6.696-5.184-7.92c-0.072-1.584-0.144-3.168-0.216-4.824
		c0.504-1.08,1.008-2.16,1.512-3.312c0.864-0.936,1.728-1.872,2.664-2.88c1.44-0.864,1.44-0.864,3.6-2.808
		c0.432,0.072,0.936,0.144,1.44,0.216c0.864,0.648,1.728,1.296,2.664,1.944c1.08,1.296,2.232,2.592,3.384,3.96
		c0.288,1.44,0.288,1.44,0.576,6.984c-0.792,2.808-1.584,5.616-2.448,8.424c-0.432,3.096-0.432,3.096-0.792,3.456
		C151.344,222.4799,150.768,222.4799,150.192,222.4799L150.192,222.4799z M289.368,221.76c-1.44-0.648-2.88-1.296-4.32-1.944
		c-0.4319-0.432-0.864-0.864-1.368-1.296c-0.072-0.504-0.144-1.008-0.288-1.584c-0.6479-0.072-1.296-0.144-1.944-0.216
		c-4.32-3.888-4.32-3.888-6.264-6.048c0-0.288-0.072-0.648-0.144-1.008c5.04-3.888,5.04-3.888,6.624-4.752
		c1.08-0.288,2.232-0.576,3.384-0.936c1.8-0.072,3.6721-0.144,5.544-0.216c4.32,0.432,4.32,0.432,5.256,0.792
		c1.944,2.664,1.944,2.664,4.68,7.7039c-0.288,2.448-0.288,2.448,0,3.888c-1.152,0.072-2.304,0.144-3.456,0.288
		c-0.8641-0.144-1.728-0.288-2.664-0.432c-0.288,0.144-0.576,0.288-0.936,0.432c-0.072,0.36-0.144,0.72-0.288,1.152
		c0.864-0.144,1.728-0.288,2.664-0.504c-0.072,0.144-0.144,0.288-0.216,0.432c0.432,0.144,0.432,0.144,1.872-0.648
		c0.288,0.576,0.5759,1.224,0.864,1.872c-0.4319,0-0.864,0-1.296,0c0,0.864,0,0.864-0.288,1.224
		c0.288,0.072,0.648,0.144,1.008,0.216c-0.072,0.072-0.144,0.216-0.288,0.36c-0.288-0.072-0.576-0.216-0.936-0.36
		c-0.144,0.288-0.288,0.576-0.504,0.864C293.904,221.472,293.904,221.472,289.368,221.76L289.368,221.76z M332.784,221.256
		c-0.864-0.288-1.728-0.576-2.592-0.936c-0.36-0.36-0.792-0.792-1.224-1.224c-1.656-0.936-3.312-1.872-5.04-2.88
		c-1.944-2.376-1.944-2.376-2.88-4.104c-1.8-4.896-1.8-4.896-2.088-6.336c0.504-0.432,1.008-2.376,2.448-4.752
		c0.36-0.144,0.72-0.288,1.08-0.432c0.864,0,1.728,0,2.664,0c4.536,1.008,4.536,1.008,6.912,1.944
		c0.432,0.288,0.864,0.576,1.296,0.864c1.008,3.384,1.008,3.384,1.944,8.424c2.736,5.04,2.736,5.04,2.8801,5.976
		c-1.296,1.08-2.592,2.232-3.96,3.384C333.792,221.184,333.288,221.184,332.784,221.256L332.784,221.256z M187.848,219.816
		c-1.656-0.288-3.312-0.576-5.04-0.936c-2.376-0.936-4.752-1.872-7.2-2.88c-4.824-3.888-4.824-3.888-7.92-6.768
		c0-0.288,0-0.648,0-1.008c0.216-0.144,0.504-0.288,0.792-0.504c0.144-0.432,0.288-0.936,0.504-1.44
		c1.8-0.864,3.024-1.8,5.688-2.808c4.32-0.216,4.32-0.216,6.192,0c1.008,0.504,2.448,0.72,4.32,1.728
		c0.864,0.72,1.728,1.44,2.664,2.16c1.8,2.88,3.6,5.832,5.4,8.784c-0.288,2.592-0.288,2.592-0.576,2.952
		c-0.72,0.2159-1.44,0.4319-2.16,0.72C189.648,219.816,188.784,219.816,187.848,219.816L187.848,219.816z M278.352,219.816
		c-1.944-3.024-1.944-3.024-2.448-4.392c0.36,0.072,0.792,0.144,1.224,0.288c2.16,1.944,2.16,1.944,2.52,2.592
		c0,0.288,0,0.576,0,0.936C278.568,219.96,278.568,219.96,278.352,219.816L278.352,219.816z M311.472,218.16
		c-1.368-0.288-2.736-0.648-4.104-1.008c-1.224-0.936-1.224-0.936-3.0959-3.24c-1.8-3.168-3.6-6.336-5.472-9.576
		c0.216-1.008,0.432-2.016,0.72-3.096c0.936-0.288,1.872-0.576,2.808-0.864c1.6559-0.144,3.312-0.288,5.04-0.504
		c0.648,0.432,1.296,0.936,1.944,1.4399c0.72,0.144,1.44,0.288,2.16,0.504c1.008,0.648,2.016,1.296,3.096,1.944
		c0.432,0.504,0.936,1.08,1.44,1.656c0.216,1.152,0.504,2.304,0.792,3.528c0.936,2.016,1.872,4.104,2.88,6.192
		c0,0.288,0,0.648,0,1.008c-0.288,0.216-0.648,0.504-1.008,0.792c-1.368,0.36-2.736,0.792-4.104,1.224
		C313.56,218.16,312.552,218.16,311.472,218.16L311.472,218.16z M339.768,215.28c-0.72-1.368-1.512-2.736-2.304-4.176
		c-0.504-3.6-0.504-3.6-1.224-5.76c0-0.504,0.072-1.008,0.144-1.584c0.72-0.144,1.44-0.288,2.16-0.504
		c0.432,0.0721,0.936,0.144,1.44,0.216c2.304,1.08,4.608,2.232,6.984,3.384c0.072,0.288,0.216,0.576,0.36,0.864
		c-2.088,2.448-4.176,4.896-6.264,7.416C340.632,215.136,340.2,215.208,339.768,215.28L339.768,215.28z M233.712,210.24
		c-1.2961-1.008-2.592-2.088-3.888-3.168c-4.32-1.872-4.32-1.872-7.416-2.88c-5.256,0.288-5.256,0.288-7.704,0.72
		c-1.1519,0.504-1.1519,0.504-2.88,0.72c-2.376-1.872-2.376-1.872-4.32-2.88c-2.304-0.576-4.608-1.224-6.912-1.872
		c-1.512,0-3.024,0-4.608,0c-1.584,0.288-3.168,0.576-4.752,0.936c-2.16,0.936-2.16,0.936-2.664,1.44
		c-0.504-0.072-1.08-0.144-1.656-0.216c-1.44-1.008-1.44-1.008-3.6-1.944c-2.664-0.504-2.664-0.504-6.264-0.72
		c-1.08,0.144-2.232,0.288-3.384,0.504c-0.72,0.288-1.44,0.576-2.16,0.936c-1.656,1.44-1.656,1.44-3.6,2.376
		c-0.72,0.936-1.44,1.872-2.16,2.88c-2.376-0.072-4.752-0.216-7.2-0.36c-0.072-0.864-0.216-1.728-0.36-2.592
		c-0.288-0.72-0.576-1.44-0.936-2.16c-1.008-1.152-2.088-2.376-3.168-3.6c-1.584-1.224-3.168-2.52-4.752-3.816
		c0.072-0.576,0.144-1.152,0.216-1.728c0.648-1.296,1.296-2.664,1.944-4.032c0.432-2.088,0.936-4.176,1.44-6.264
		c0.072-1.08,0.144-2.232,0.216-3.384c-0.144-1.224-0.288-2.52-0.504-3.816c-0.432-1.152-0.936-2.376-1.44-3.6
		c0-0.36,0-0.792,0-1.224c1.008-1.152,1.44-2.376,2.88-3.816c0.144-0.504,0.288-1.08,0.504-1.656
		c0.36-0.288,0.792-0.648,1.224-1.008c0.432-2.16,0.72-2.376,1.08-4.68c1.944,0.216,1.944,0.216,7.92,1.944c1.44,0,2.88,0,4.32,0
		c1.656-0.504,1.656-0.504,3.6-0.504c2.88,1.944,2.88,1.944,4.824,2.88c2.16,0.504,2.16,0.504,6.192,0.936
		c1.656-0.072,3.312-0.144,5.04-0.216c0.864-0.288,1.728-0.576,2.664-0.936c0.864-0.72,1.728-1.44,2.664-2.16
		c2.88,0.216,2.88,0.216,10.512,1.656c1.512-0.072,3.024-0.144,4.608-0.216c1.584-0.432,3.168-0.936,4.752-1.44
		c0.576-0.576,1.152-1.152,1.7281-1.728c0.72,0,1.44,0,2.16,0c0.432,0.144,0.936,0.288,1.44,0.504c2.376,0,4.752,0.072,7.2,0.144
		c0.072,0.936,0.144,1.872,0.288,2.88c3.888,5.976,8.64,14.4,9.648,15.624c2.376,4.32,4.752,8.64,7.2,12.96
		c0.072,0.504,0.144,1.08,0.216,1.656c-5.76,11.304-5.76,11.304-6.984,12.96c0,1.44,0.504,2.88,0.432,3.96
		C236.16,210.24,234.936,210.24,233.712,210.24L233.712,210.24z M272.088,208.296c-2.52-4.536-5.04-9.144-7.56-13.752
		c0.072-0.648,0.144-1.296,0.216-1.944c2.88-6.48,4.824-9.864,6.696-13.896c0.216-0.864,0.432-1.728,0.72-2.664
		c1.44-2.664,1.944-3.096,3.8879-6.264c3.816-8.136,3.816-8.136,5.616-11.16c1.584,0.216,3.168,0.432,4.824,0.72
		c2.52-0.144,5.1121-0.288,7.704-0.504c6.48,1.944,6.48,1.944,9.072,2.448c1.296,0,2.592,0,3.888,0
		c5.472-1.008,5.472-1.008,8.3521-1.944c1.728-0.936,1.728-0.936,3.8879-1.656c0.36,0,0.72,0,1.152,0
		c0.144-0.144,0.288-0.288,0.504-0.504c3.816-0.144,7.632-0.288,11.52-0.504c1.944-0.288,3.96-0.576,5.976-0.936
		c0.792-0.288,1.584-0.576,2.448-0.936c1.8719-1.44,1.8719-1.44,3.096-1.944c7.704,0,7.704,0,9.576-0.36
		c-0.144,0.792-0.36,1.584-0.576,2.448c0.072,1.944,0.144,3.96,0.2159,5.976c0.432,1.368,0.936,2.736,1.4401,4.104
		c0.72,0.576,1.44,1.224,2.16,1.872c0.936,1.44,0.936,1.44,1.584,1.944c-0.144,1.44-0.144,1.44-2.088,7.704
		c-0.432,7.92-0.432,7.92-0.216,10.296c0.144,0.504,0.288,1.08,0.504,1.656c-0.288,2.664-0.288,2.664-0.72,4.104
		c-1.728,2.448-3.528,4.896-5.328,7.416c-1.872,4.824-1.872,4.824-2.232,5.184c-0.7921-0.2159-1.584-0.4319-2.376-0.72
		c-1.44-1.008-1.44-1.008-6.264-3.168c-1.584,0-3.168,0-4.824,0c-2.0161-0.792-4.104-1.584-6.192-2.376
		c-1.8-0.216-3.6721-0.432-5.5441-0.72c-1.0079,0.288-2.0159,0.576-3.0959,0.936c-0.36,0.432-0.792,0.936-1.224,1.44
		c-3.312-0.864-6.696-1.728-10.08-2.592c-1.008-0.072-2.016-0.144-3.0959-0.288c-3.6,0.504-3.6,0.504-6.768,1.44
		c-1.584,1.584-1.584,1.584-1.872,2.448c-9.144-0.288-9.144-0.288-12.744,0c-3.096,1.44-3.096,1.44-4.824,1.872
		c-1.152,1.008-4.32,2.88-6.48,4.824C272.736,208.296,272.448,208.296,272.088,208.296L272.088,208.296z M351.288,206.28
		c0-0.36-0.072-0.792-0.144-1.224c0.648-1.512,1.296-3.024,1.944-4.536c0.576-0.864,1.224-1.728,1.8719-2.664
		c1.0081-1.008,2.088-2.016,3.168-3.096c0.576-1.008,1.224-2.016,1.872-3.096c0.576-0.576,1.152-1.152,1.728-1.728
		c7.56-3.744,7.56-3.744,9-4.176c1.656,0,1.656,0,2.016,0.36c0.288,1.008,0.576,2.016,0.936,3.096
		c-0.216,2.376-0.432,4.752-0.72,7.2c-0.288,0.72-0.5759,1.44-0.936,2.16c-1.944,2.448-1.944,2.448-5.904,6.264
		c-3.816,0.504-7.632,1.008-11.448,1.512C353.592,206.352,352.44,206.352,351.288,206.28L351.288,206.28z M137.952,201.312
		c-0.576-0.36-1.152-0.72-1.728-1.08c-1.008-1.224-2.016-2.448-3.096-3.672c-0.576-1.224-1.152-2.448-1.8-3.744
		c-0.288-1.872-0.288-1.872-0.288-4.536c0.648-1.8,1.296-3.672,1.944-5.544c0.72-0.72,1.44-1.44,2.16-2.16
		c2.808-1.8,2.808-1.8,3.96-3.024c1.728-0.432,2.448-0.936,4.32-1.44c1.44-0.936,2.88-1.44,3.888-2.376
		c0.36-0.072,0.72-0.144,1.152-0.216c1.008,1.512,1.296,2.736,1.584,3.024c0,5.472,0,5.472-0.504,10.08
		c-0.504,0.72-0.504,0.72-1.44,4.032c-0.936,1.6559-1.872,3.312-2.88,5.0399c-2.16,1.944-3.816,2.88-6.48,5.544
		C138.528,201.24,138.24,201.24,137.952,201.312L137.952,201.312z M359.424,188.352c-0.864-3.672-0.864-3.672-1.08-6.336
		c0.504-5.472,0.504-5.472,0.936-7.632c0.432-1.368,0.936-2.736,1.44-4.104c2.88-3.6,4.104-4.536,4.608-5.256
		c0.792-0.432,1.656-0.936,2.52-1.44c1.584,0,3.168-0.072,4.824-0.144c0.576,0.288,1.224,0.576,1.872,0.936
		c0.288,0.432,0.648,0.864,1.008,1.296c0.216,1.08,0.504,2.232,0.792,3.384c-0.072,1.656-0.144,3.312-0.216,5.04
		c-1.008,3.6-1.008,3.6-1.944,5.544c-0.936,1.08-1.872,2.232-2.8801,3.384C367.344,184.752,363.384,186.552,359.424,188.352
		L359.424,188.352z M253.368,175.68c-0.648-0.864-1.368-1.8-2.088-2.736c-2.232-3.96-4.464-7.992-6.696-12.024
		c-0.936-2.664-0.936-2.664-1.944-4.32c-0.792-0.648-1.656-1.296-2.52-1.944c0-0.216,0-0.432-0.072-0.72
		c2.376-1.872,2.376-1.872,11.016-10.08c0.432-0.792,0.936-1.584,1.44-2.376c0.288,0,0.576-0.072,0.864-0.144
		c1.512,1.224,3.024,2.52,4.536,3.816c1.008,0.648,2.088,1.296,3.168,1.944c1.8721,0.504,1.8721,0.504,6.192,0.936
		c0,0.288,0.072,0.576,0.144,0.864c-1.872,4.248-3.816,8.496-5.76,12.744c-2.52,4.68-5.04,9.36-7.56,14.04
		C253.872,175.68,253.656,175.68,253.368,175.68L253.368,175.68z M139.104,174.672c-1.656-0.936-1.656-0.936-2.88-2.232
		c-0.864-1.44-0.864-1.44-1.08-2.376c0-1.08,0-2.232,0-3.384c1.224-2.088,2.52-4.176,3.816-6.264c1.008-0.936,1.008-0.936,2.664-3.6
		c0.504-1.656,0.504-1.656,0.936-2.16c2.88-0.144,5.832-0.36,8.784-0.576c0.864,0.792,1.728,1.584,2.664,2.376
		c0.072,0.576,0.216,1.152,0.36,1.8c-0.072,1.0081-0.144,2.088-0.288,3.168c-1.872,3.312-1.872,3.312-3.96,6.192
		c-2.376,1.872-4.752,3.744-7.128,5.616C141.264,173.736,139.608,174.672,139.104,174.672L139.104,174.672z M359.712,167.04
		c-1.0081-1.008-2.088-2.088-3.168-3.168c-0.288-0.504-0.576-1.008-0.864-1.512c-0.216-1.008-0.432-2.016-0.72-3.096
		c0-1.2961,0-2.592,0-3.888c0.288-1.224,0.576-2.52,0.8641-3.816c1.512-0.576,3.024-1.152,4.608-1.8
		c0.936-0.648,1.8719-1.296,2.88-1.944c0.72-0.72,1.44-1.44,2.16-2.16c1.008-0.432,2.016-0.936,3.096-1.44
		c0.432,0,0.936,0,1.44-0.072c0,0.792-0.072,1.584-0.144,2.376c0.288,0.648,0.576,1.296,0.936,1.944
		c0.144,1.08,0.288,2.16,0.504,3.312c-0.2159,3.6-0.2159,3.6-0.72,5.7599c-0.936,1.44-0.936,1.44-2.88,3.384
		C364.824,162.864,359.928,167.184,359.712,167.04L359.712,167.04z M184.752,162.432c-1.44-0.144-2.88-0.288-4.32-0.432
		c-1.512-0.432-3.024-0.936-4.608-1.44c-0.72-0.72-1.44-1.44-2.16-2.16c-0.72-1.368-1.512-2.736-2.304-4.176
		c-0.288-1.296-0.576-2.592-0.936-3.888c-0.504-0.432-0.504-0.432-1.224-2.16c0-0.288,0.072-0.576,0.144-0.936
		c2.16,0,4.32-0.072,6.48-0.144c1.512,0.288,3.024,0.576,4.608,0.936c0.864,0.288,1.728,0.648,2.592,1.008
		c0.792,0.576,1.584,1.224,2.448,1.872c1.44,1.656,2.88,3.312,4.32,5.04c2.016,3.744,2.016,3.744,2.016,4.464
		c-0.36,0.288-0.72,0.648-1.08,1.008c-0.72,0.216-1.44,0.504-2.16,0.792C187.344,162.288,186.048,162.36,184.752,162.432
		L184.752,162.432z M204.624,160.776c-5.472-0.936-5.472-0.936-8.856-1.944c-1.656-0.936-1.656-0.936-2.664-2.016
		c-1.44-2.16-2.88-4.32-4.32-6.48c-0.288-0.072-0.576-0.144-0.936-0.216c0-0.432,0-0.936,0.072-1.44
		c0.72-0.648,1.44-1.296,2.16-1.944c0.864-0.288,1.728-0.576,2.592-0.864c1.8,0,3.6,0,5.472,0c1.008,0.288,2.088,0.648,3.168,1.008
		c2.16,1.944,4.32,3.96,6.48,5.976c0.432,0.648,0.936,1.2961,1.44,1.944c1.152,0.864,2.304,1.8,3.456,2.736
		c0,0.576,0,1.152,0,1.7281c-1.296,0.792-1.296,0.792-3.24,1.296C207.864,160.632,206.28,160.704,204.624,160.776L204.624,160.776z
		 M303.264,159.336c-1.008-0.144-2.016-0.36-3.096-0.576c-0.072-0.504-0.216-1.08-0.36-1.656c-1.008-1.008-1.008-1.008-1.944-2.664
		c-1.512-0.864-1.512-0.864-3.96-3.24c-1.8-2.52-1.8-2.52-4.176-7.056c0-0.288,0-0.648,0-1.008c0.936-1.656,0.936-1.656,1.8-2.52
		c1.944-0.504,1.944-0.504,4.32-0.72c1.44,0.288,2.88,0.576,4.3199,0.936c2.808,1.296,5.616,2.592,8.424,3.888
		c4.32,4.896,4.32,4.896,6.48,6.912c0.432,1.008,0.864,2.016,1.296,3.024c0,0.432-0.072,0.864-0.144,1.296
		c-3.096,0.72-3.816,1.224-7.92,2.16c-0.72,0.288-1.4401,0.648-2.16,1.008C305.2079,159.192,304.272,159.264,303.264,159.336
		L303.264,159.336z M164.808,159.12c-5.04-1.44-5.256-1.728-7.92-2.664c-0.72-0.792-1.44-1.584-2.16-2.376
		c-1.224-2.016-2.448-4.032-3.744-6.12c-0.936-3.096-0.936-3.096-1.944-5.256c0-0.432,0-0.936,0-1.44
		c0.936-0.432,1.872-0.864,2.808-1.368c2.664,0.216,2.664,0.216,6.48,1.224c0.72,0.288,1.44,0.576,2.16,0.936
		c1.152,0.792,2.304,1.656,3.456,2.52c0.072,0.432,0.144,0.936,0.216,1.44c0.576,0.432,1.152,0.936,1.728,1.44
		c0.288,0.792,0.576,1.584,0.936,2.448c0.648,1.008,1.296,2.016,1.944,3.096c0.936,2.88,0.936,2.88,1.872,4.536
		c0,0.288,0,0.648,0,1.0081c-0.576,0.144-1.152,0.36-1.728,0.576C167.544,159.12,166.176,159.12,164.808,159.12L164.808,159.12z
		 M219.744,157.68c-1.44-0.288-2.88-0.648-4.32-1.008c-1.8719-0.936-1.8719-0.936-4.32-2.88c-2.16-2.376-4.536-4.32-5.472-5.616
		c-0.576-0.504-1.152-1.008-1.728-1.584c0-0.288,0-0.648,0-1.008c1.8-1.008,1.8-1.008,3.6-2.448c0.648-0.144,1.296-0.36,1.944-0.576
		c1.368,0,2.736,0,4.104,0c2.376,0.576,4.752,1.224,7.2,1.872c0.576,0.288,1.224,0.648,1.872,1.008
		c2.16,2.016,6.048,6.48,8.208,8.352c0.36,0.432,0.72,0.864,1.1519,1.368c0,0.288,0.0721,0.576,0.144,0.936
		c-1.944,0.432-3.888,0.864-5.904,1.296C224.064,157.464,221.904,157.5359,219.744,157.68L219.744,157.68z M285.048,156.96
		c-0.504-0.144-1.08-0.288-1.656-0.504c0-0.36-0.072-0.72-0.144-1.08c0.936-2.16,3.816-6.48,4.32-7.92
		c0.072-0.072,0.216-0.216,0.36-0.36c0.36,0,0.72,0.072,1.08,0.144c0.144,0.504,0.288,1.08,0.432,1.656
		c3.888,5.76,3.888,5.76,4.608,7.488C292.968,156.672,292.968,156.672,285.048,156.96L285.048,156.96z M321.552,155.016
		c-0.72-0.144-1.44-0.288-2.16-0.504c-0.504-0.576-0.504-0.576-2.808-5.328c-0.36-0.288-0.792-0.648-1.224-1.008
		c-0.432-0.864-0.936-1.728-1.44-2.592c0-0.432,0-0.936-0.072-1.44c2.304-0.36,4.608-0.72,6.9839-1.152
		c1.584,0.072,3.168,0.144,4.752,0.288c1.008,0.432,1.008,0.432,4.32,0.72c0.648,0.288,1.296,0.576,1.944,0.936
		c2.376,1.944,2.376,1.944,3.384,2.376c0.72,0.792,1.44,1.584,2.16,2.448c3.312,1.44,3.312,1.44,3.6721,1.8
		c0,0.216,0,0.504-0.072,0.792c-1.656,0.648-3.312,1.296-5.04,1.944C331.2,154.512,326.376,154.728,321.552,155.016L321.552,155.016
		z M233.208,152.856c-2.088-1.8719-4.176-3.744-6.264-5.616c-0.288-0.432-0.576-0.864-0.936-1.368
		c-0.792-0.576-1.584-1.224-2.376-1.872c-1.224-0.576-2.448-1.152-3.672-1.8c0-0.2159,0-0.4319-0.072-0.72
		c0.72-0.6479,1.44-1.296,2.16-1.944c2.016-0.72,4.032-1.512,6.12-2.304c1.584-0.072,3.168-0.144,4.824-0.216
		c3.96,1.224,7.92,2.52,11.952,3.816c1.44,0.288,2.88,0.576,4.3199,0.864c0,0.216,0.0721,0.432,0.144,0.72
		c-4.248,3.888-4.248,3.888-5.04,4.32c-0.936,1.08-1.872,2.232-2.88,3.384c-0.864,0.648-1.7281,1.296-2.664,1.944
		c-0.648,0.216-1.296,0.504-2.016,0.792C235.656,152.856,234.432,152.856,233.208,152.856L233.208,152.856z M143.928,152.136
		c-1.44-0.288-2.88-0.576-4.32-0.936c-1.944-1.008-1.944-1.008-5.256-3.384c-0.504-0.72-2.16-1.944-4.032-4.176
		c-0.432-1.224-0.432-1.224-0.936-1.656c-0.504-2.4481-1.44-5.04-1.944-7.488c-0.288-0.72-0.576-1.44-0.936-2.16
		c0-0.288,0.072-0.576,0.144-0.936c0.504-0.288,1.08-0.576,1.656-0.864c1.512,0,3.024,0,4.608,0c1.08,0.288,2.16,0.576,3.312,0.936
		c3.888,1.944,4.32,2.448,5.328,2.88c1.872,2.16,1.872,2.16,3.672,5.184c2.88,8.64,2.88,8.64,3.384,9.36
		c0.072,0.792,0.144,1.584,0.216,2.448c-0.504,0.432-0.504,0.432-2.52,0.792C145.512,152.136,144.72,152.136,143.928,152.136
		L143.928,152.136z M347.688,150.696c-1.368-0.288-2.736-0.576-4.104-0.936c-5.256-4.104-9.576-6.984-9.936-7.56
		c0-0.2159,0-0.4319,0.0721-0.72c1.368-0.9359,2.304-1.944,3.744-2.88c2.88-0.936,5.832-1.872,8.784-2.808
		c1.224-0.072,2.52-0.144,3.816-0.216c3.6,0.936,3.6,0.936,7.2,2.376c3.168,1.944,3.168,1.944,7.3441,5.184c0,0.216,0,0.432,0,0.72
		c-2.3041,1.944-2.3041,1.944-5.328,3.888c-2.304,0.864-4.68,1.8-7.056,2.736C350.712,150.552,349.2,150.624,347.688,150.696
		L347.688,150.696z M185.688,147.096c-1.08-0.648-2.232-1.296-3.384-1.944c-0.792-0.216-1.584-0.432-2.376-0.72
		c-1.656-0.144-3.312-0.36-5.04-0.576c0.072-0.216,0.144-0.432,0.216-0.72c0.288-0.144,0.576-0.288,0.864-0.432
		c0.432-0.576,0.864-1.224,1.296-1.872c0.792-0.432,1.584-0.936,2.448-1.44c0.216-0.288,0.432-0.576,0.72-0.936
		c1.656-0.072,3.312-0.144,5.04-0.216c5.256-1.944,5.256-1.944,6.912-2.88c3.888-1.008,5.544-1.728,6.48-1.728
		c1.296,0.432,2.592,0.936,3.888,1.44c1.08-0.072,2.16-0.144,3.312-0.216c3.168-0.936,3.168-0.936,5.544-1.944
		c1.224-0.72,2.52-1.44,3.816-2.16c0.36,0,0.7921,0,1.224,0c1.44,0.936,2.88,1.872,4.32,2.88c4.32,1.44,4.32,1.44,4.536,1.728
		c-0.432,0.432-4.752,2.376-6.696,3.816c-0.792,0.144-1.584,0.288-2.376,0.504c-0.288,0.288-0.648,0.576-1.008,0.936
		c-2.88-0.216-2.88-0.216-6.4799,0c-0.864,0.288-1.728,0.576-2.592,0.936c-0.864,0.6479-1.728,1.296-2.664,1.944
		c-0.936,0.144-1.872,0.288-2.88,0.504c-1.584-0.072-3.168-0.144-4.824-0.288c-1.656,0.144-3.312,0.288-5.04,0.504
		c-0.576,0.288-1.224,0.576-1.872,0.936c-0.72,0.648-1.44,1.296-2.16,1.944C186.552,147.096,186.12,147.096,185.688,147.096
		L185.688,147.096z M126.432,145.44c-1.656-0.432-3.312-0.936-5.04-1.44c-1.728-0.936-3.528-1.872-5.328-2.88
		c-0.72-0.72-1.44-1.44-2.16-2.16c-1.872-2.808-1.872-2.808-3.744-6.84c-1.44-4.32-1.44-4.32-1.656-6.264
		c0.144-0.216,0.288-0.432,0.504-0.72c0.144-1.008,0.288-2.016,0.432-3.096c0.216-0.072,0.432-0.216,0.648-0.36
		c1.224,0,2.52,0,3.816,0c1.008,0.288,2.088,0.576,3.168,0.936c0.432,0.288,0.936,0.576,1.44,0.936
		c1.224,1.728,2.52,3.456,3.816,5.184c0.72,1.584,1.44,3.168,2.232,4.824c2.88,10.08,3.384,10.8,3.312,11.592
		C127.44,145.224,126.936,145.296,126.432,145.44L126.432,145.44z M268.272,144.72c-2.736-0.936-5.472-1.872-8.208-2.88
		c-3.6-1.944-3.6-1.944-6.336-3.96c-0.288-0.72-0.288-0.72-0.288-3.816c-0.936-3.384-0.936-3.384-1.872-5.544
		c-1.008-1.44-1.008-1.44-1.44-2.664c0-0.288,0-0.576,0-0.936c1.152-0.576,2.304-1.152,3.456-1.8
		c0.792-0.072,1.584-0.144,2.448-0.288c0.576,0.288,1.224,0.6479,1.872,1.008c0.936,1.008,1.872,2.016,2.88,3.096
		c1.224,1.8,2.52,3.6,3.816,5.4c2.088,1.944,2.088,1.944,4.68,5.328c0.1439,0.72,0.288,1.44,0.504,2.16c0.72,0,1.512,0,2.304,0
		c-0.072,0.504-0.216,1.08-0.36,1.656c-0.72,1.08-1.512,2.16-2.304,3.24C269.064,144.72,268.704,144.72,268.272,144.72
		L268.272,144.72z M165.528,141.84c-1.008-0.648-2.016-1.296-3.096-1.944c-1.512-0.648-3.024-1.296-4.608-1.944
		c-1.512-0.432-3.096-0.864-4.68-1.296c0.216-2.376,0.216-2.376,0.936-4.32c1.224-0.72,2.448-1.512,3.744-2.304
		c4.32-1.44,4.32-1.44,6.48-1.872c0.864,0.072,1.728,0.144,2.664,0.216c4.32,4.32,4.32,4.32,6.696,6.264
		c1.008,0.432,1.44,1.08,3.24,2.52c0,0.288,0,0.576,0,0.936c-1.296,0.864-1.296,0.864-4.896,2.304
		c-1.584,0.432-3.168,0.936-4.824,1.44C166.68,141.84,166.104,141.84,165.528,141.84L165.528,141.84z M308.592,141.336
		c-3.0959-1.44-6.192-2.88-9.36-4.32c-1.728-0.144-3.528-0.36-5.328-0.576c1.296-5.256,1.296-5.256,1.728-5.688
		c2.376,0,2.376,0,5.256-0.432c1.224-0.504,1.224-0.504,2.376-1.44c5.544,1.152,5.544,1.152,10.368,1.656
		c3.816-0.216,3.816-0.216,8.64,0.144c0.72,0.576,0.72,0.576,4.752,2.016c1.008,0,2.088,0,3.168,0
		c0.576-0.216,1.224-0.4319,1.872-0.72c0.792,0,1.5839,0.0721,2.448,0.144c0.144,0.216,0.288,0.504,0.432,0.792
		c1.08,0.648,2.2319,1.368,3.384,2.088c-0.216,0.36-0.216,0.36-10.08,5.616c-0.792,0.072-1.584,0.144-2.376,0.216
		c-3.528-0.216-7.056-0.432-10.584-0.72c-3.096,0.504-3.096,0.504-5.04,1.224C309.744,141.336,309.168,141.336,308.592,141.336
		L308.592,141.336z M368.352,141.12c-2.16-1.008-5.04-2.88-6.48-3.384c-1.0081-0.936-1.0081-0.936-2.88-1.944
		c-0.432-0.144-0.936-0.288-1.44-0.432c-0.576-0.432-1.152-0.936-1.728-1.44c-2.376-0.504-2.376-0.504-2.88-0.864
		c0-0.216-0.072-0.432-0.144-0.72c2.088-1.872,2.088-1.872,4.752-3.744c3.312-0.936,4.032-1.44,5.976-1.872
		c0.144-0.144,0.288-0.288,0.504-0.504c1.44-0.216,1.44-0.216,4.032,0.216c1.44,0.504,1.44,0.504,3.168,0.72
		c2.592,1.944,4.536,2.88,10.008,6.912c0,0.288,0.072,0.576,0.144,0.936c-5.544,3.816-5.544,3.816-8.712,5.616
		c-0.576,0.144-1.152,0.288-1.728,0.504C370.08,141.12,369.216,141.12,368.352,141.12L368.352,141.12z M108.144,138.672
		c-1.44-0.432-1.656-0.72-4.32-1.152c-1.296-0.648-2.664-1.296-4.032-1.944c-0.792-0.648-1.584-1.296-2.448-1.944
		c-0.936-1.296-1.872-2.592-2.88-3.96c-1.8-5.256-1.8-5.256-2.304-7.632c-0.072-1.368-0.144-2.736-0.216-4.104
		c0.36-0.288,0.72-0.576,1.08-0.864c1.296-0.072,2.592-0.144,3.888-0.216c1.08,0.288,2.16,0.576,3.312,0.936
		c1.296,0.936,2.592,1.872,3.888,2.88c0.576,1.152,1.224,2.304,1.872,3.528c0.072,0.792,0.216,1.584,0.36,2.376
		c1.152,3.168,2.376,6.408,3.6,9.648c0,0.72,0,1.44-0.072,2.232C109.296,138.528,108.72,138.6,108.144,138.672L108.144,138.672z
		 M248.112,138.24c-1.368-0.432-2.736-0.936-4.104-1.44c-1.08-0.648-2.232-1.296-3.384-1.944c-1.224-1.224-2.52-2.52-3.816-3.816
		c-1.8-3.024-2.304-4.68-2.808-5.4c-0.792-2.376-1.584-4.752-2.376-7.2c0.072-0.36,0.216-0.72,0.36-1.08
		c0.432-0.144,0.936-0.288,1.44-0.504c1.584-0.072,3.168-0.144,4.824-0.216c2.376,0.936,2.376,0.936,3.816,2.016
		c1.728,2.088,3.528,4.176,5.328,6.264c2.736,5.976,3.168,7.704,3.456,7.92c0,1.8-0.072,3.6-0.144,5.4
		C249.84,138.24,248.976,138.24,248.112,138.24L248.112,138.24z M273.024,136.296c-0.216-0.144-0.432-0.288-0.72-0.504
		c0-0.216-0.072-0.504-0.144-0.792c1.368-0.936,1.368-0.936,2.592-1.224c-0.216,0.792-0.432,1.656-0.72,2.52
		C273.744,136.296,273.384,136.296,273.024,136.296L273.024,136.296z M90.648,135.792c-2.304-0.576-4.608-1.224-6.984-1.872
		c-1.008-0.648-2.016-1.296-3.096-1.944c-0.72-1.08-1.512-2.16-2.304-3.24c-0.072-1.872-0.144-3.816-0.216-5.76
		c-0.144-0.144-0.288-0.288-0.504-0.4319c0.072-0.576,0.144-1.152,0.216-1.728c0.72-0.792,1.44-1.584,2.16-2.376
		c3.24-1.944,3.24-1.944,4.464-2.304c0.864,0.0721,1.728,0.144,2.664,0.216c0.288,0.216,0.576,0.432,0.936,0.648
		c0.576,1.44,1.152,2.88,1.8,4.32c1.944,6.984,1.944,6.984,3.096,10.08c1.008,0.936,1.008,0.936,2.448,3.096
		c0.072,0.288,0.144,0.648,0.216,1.008C93.744,135.792,93.744,135.792,90.648,135.792L90.648,135.792z M180.432,134.352
		c-0.648-0.144-1.296-0.288-1.944-0.432c-0.936-0.648-1.872-1.296-2.88-1.944c-1.512-1.512-3.096-3.096-4.68-4.68
		c0-0.36,0-0.72,0-1.152c1.296-1.08,2.664-2.232,4.032-3.384c3.528-1.8,3.528-1.8,7.128-3.24c1.584,0.072,3.168,0.144,4.824,0.216
		c0.504,0.288,1.08,0.576,1.656,0.936c2.16,3.168,4.32,6.336,6.552,9.504c0,0.288,0,0.648,0,1.008
		c-0.432,0.288-0.864,0.576-1.296,0.936c-5.04,1.8-5.04,1.8-7.2,2.232C184.608,134.352,182.52,134.352,180.432,134.352
		L180.432,134.352z M229.104,132.912c-4.32-0.936-4.32-0.936-7.2-1.872c-1.296-1.08-2.664-2.16-4.032-3.24
		c-0.576-1.008-1.224-2.016-1.872-3.096c-0.576-1.8-1.224-3.672-1.872-5.544c0-0.504,0-1.08,0-1.656
		c0.288-0.648,0.576-1.296,0.936-1.944c0.72-0.432,1.512-0.864,2.304-1.368c0.864-0.144,1.728-0.288,2.664-0.432
		c1.296,0.216,2.664,0.432,4.032,0.72c1.008,0.432,2.088,0.936,3.168,1.44c0.072,0.36,0.144,0.72,0.288,1.08
		c0.648,0.792,1.296,1.584,1.944,2.376c0.936,1.944,1.944,5.76,2.88,7.488c0.144,0.72,0.288,1.44,0.504,2.16
		c0.288,0.36,0.576,0.72,0.936,1.152c0.216,0.792,0.432,1.584,0.72,2.448C233.928,132.912,233.928,132.912,229.104,132.912
		L229.104,132.912z M342.864,132.696c-0.72-0.504-1.656-0.504-3.816-1.44c-0.864-0.6479-1.728-1.296-2.6639-1.944
		c-0.144-1.944-0.36-3.888-0.576-5.832c-0.504-0.9359-0.504-0.9359-0.864-3.816c2.664-0.432,2.664-0.432,5.3279-0.432
		c1.584,0.432,3.168,0.936,4.752,1.44c0.504,0.504,4.824,2.448,6.264,3.384c0.432,0.648,0.864,1.368,1.296,2.088
		c0,0.288,0,0.576,0,0.936c-4.104,4.104-4.104,4.104-5.4,4.896c-1.152,0.216-1.152,0.216-1.872,0.72
		C344.52,132.696,343.728,132.696,342.864,132.696L342.864,132.696z M385.128,132.4799c-1.152-0.4319-2.376-0.9359-3.6-1.44
		c-1.944-1.296-3.96-2.592-5.976-3.888c-0.432-0.144-0.936-0.288-1.44-0.432c-2.88-1.944-2.88-1.944-4.824-2.88
		c0-0.288-0.072-0.576-0.144-0.864c1.944-2.16,1.944-2.16,3.816-3.6c1.2241-0.504,2.4481-1.008,3.744-1.584
		c2.52-0.072,5.112-0.144,7.704-0.216c0.792,0.288,1.584,0.576,2.376,0.936c1.152,1.08,2.376,2.232,3.6,3.384
		c0.5759,0.288,1.152,0.576,1.728,0.936c1.008,1.08,2.088,2.16,3.168,3.312c0,0.288,0,0.576,0,0.936
		c-0.36,0.288-0.72,0.576-1.152,0.936c-0.288,0.576-0.648,1.152-1.008,1.728c-1.296,0.72-2.592,1.44-3.888,2.232
		C387.288,132.4799,387.288,132.4799,385.128,132.4799L385.128,132.4799z M203.472,132.192c-1.008-0.288-2.088-0.576-3.168-0.936
		c-1.152-0.864-2.376-1.728-3.6-2.664c-1.872-2.8799-3.744-5.7599-5.616-8.712c0-0.216,0-0.432,0-0.72
		c0.288-0.36,0.576-0.792,0.936-1.224c5.616-3.816,5.616-3.816,8.28-5.256c1.152,0,2.376-0.072,3.6-0.144
		c1.368,0.2881,2.736,0.576,4.104,0.936c0.864,0.432,1.728,0.936,2.664,1.44c0.576,2.304,1.152,4.608,1.728,6.912
		c0.576,1.44,1.152,2.88,1.728,4.32c0,0.504,0,1.08,0,1.656c-1.08,0.936-1.08,0.936-4.464,2.736
		C207.072,131.472,207.072,131.472,203.472,132.192L203.472,132.192z M267.048,130.752c-0.72-0.72-1.44-1.44-2.16-2.16
		c-0.72-1.152-1.512-2.304-2.304-3.456c-0.72-0.432-0.72-0.432-1.224-1.1519c0-0.576,0-1.152,0-1.7281
		c0.504-1.152,0.504-1.152,1.44-2.16c0.792-0.432,1.656-0.936,2.52-1.44c0.576,0,1.152-0.072,1.728-0.144
		c1.08,0.648,2.2321,1.296,3.384,1.944c2.16,2.376,2.16,2.376,3.6,3.384c2.88,0.936,2.88,0.936,5.04,1.296
		c-0.4321,1.728-1.152,2.664-1.944,4.896c-0.36-0.072-0.792-0.144-1.224-0.216C271.152,130.5359,271.152,130.5359,267.048,130.752
		L267.048,130.752z M326.808,130.32c-2.664-1.008-2.664-1.008-5.76-2.88c-0.936-1.44-0.936-1.44-1.944-2.448
		c-3.744-7.056-3.744-7.056-5.616-9.936c0-0.288-0.072-0.576-0.144-0.936c1.08-0.432,2.232-0.864,3.384-1.368
		c1.872,0,3.816,0,5.7599,0c4.824,1.008,4.824,1.008,5.76,1.44c0.936,1.224,0.936,1.224,2.736,2.808
		c0.072,0.504,0.144,1.08,0.216,1.656c0.288,0.432,0.648,0.936,1.0079,1.44c0.2881,1.08,0.576,2.232,0.936,3.384
		c0.144,1.8,0.288,3.672,0.504,5.544c-0.3599,0.288-0.3599,0.288-3.96,1.296C328.752,130.32,327.816,130.32,326.808,130.32
		L326.808,130.32z M297.288,128.376c-0.288-0.072-0.288-0.072-0.36-2.016c0.288-0.432,0.576-0.936,0.936-1.44
		c0.288,0,0.576-0.072,0.8641-0.144c1.656,0.936,1.656,0.936,2.16,1.656c0,0.36,0,0.72,0.072,1.152
		c-0.576,0.432-0.576,0.432-2.016,0.792C298.44,128.376,297.864,128.376,297.288,128.376L297.288,128.376z M313.344,127.872
		c-1.8-0.144-3.6-0.288-5.472-0.432c-1.0081-0.288-2.088-0.648-3.168-1.008c-0.4319-0.288-0.936-0.576-1.44-0.936
		c-0.144-0.288-0.288-0.576-0.432-0.864c-1.152-0.792-2.304-1.584-3.528-2.376c0.2159-0.792,0.4319-1.584,0.72-2.376
		c1.368-2.232,2.808-4.536,4.248-6.84c1.1519,0.216,2.376,0.432,3.6,0.72c0.504,0.288,1.08,0.576,1.656,0.936
		c1.944,2.016,1.944,2.016,3.816,4.536c1.8,4.032,1.8,4.032,3.96,7.632c0,0.216,0,0.504-0.072,0.792
		C315.936,127.728,314.64,127.8,313.344,127.872L313.344,127.872z M405.288,125.496c-0.216-0.216-0.432-0.432-0.72-0.72
		c-1.656,0-3.312,0-5.04,0c-0.936-0.288-1.872-0.576-2.8801-0.936c-1.4399-1.008-3.384-3.168-9.1439-7.92
		c0-0.288-0.072-0.576-0.144-0.864c0.936-0.576,1.872-1.152,2.808-1.8c2.232-0.792,4.464-1.584,6.696-2.376
		c1.8,0.072,3.672,0.144,5.544,0.216c1.08,0.648,2.232,1.296,3.384,1.944c2.16,2.16,4.752,4.032,6.912,5.976
		c0.576,0.36,1.152,0.72,1.728,1.08c-0.288,0.576-0.5759,1.152-0.864,1.728c-1.296,0.864-2.592,1.8-3.96,2.736
		C408.168,124.848,406.728,125.136,405.288,125.496L405.288,125.496z M280.008,122.4c-1.584-0.144-3.168-0.288-4.824-0.504
		c-0.432-0.288-0.936-0.576-1.44-0.936c-0.648-0.72-1.296-1.512-2.0161-2.304c0.072-0.504,0.144-1.08,0.2161-1.656
		c0.6479-0.72,1.296-1.44,1.944-2.16c1.08-0.648,2.16-1.296,3.24-1.944c0.936-0.36,1.872-0.72,2.88-1.08
		c1.368,0.072,2.736,0.144,4.104,0.216c0.288,0.144,0.576,0.288,0.936,0.504c0.072,0.864,0.072,0.864-0.36,2.304
		c-1.008,1.656-1.44,3.384-3.888,7.416C280.584,122.256,280.296,122.328,280.008,122.4L280.008,122.4z M417.744,118.512
		c-0.5759-0.144-1.2239-0.288-1.8719-0.432c-1.008-0.648-2.088-1.296-3.168-1.944c-1.152-1.224-4.032-3.096-6.48-5.544
		c-1.224-0.792-2.448-1.584-3.744-2.448c0-0.216,0-0.432,0-0.72c1.152-0.936,2.376-1.872,3.6-2.88
		c2.088-0.864,2.088-0.864,6.408-1.872c2.52-0.216,5.112-0.432,7.704-0.72c0.864,0.288,1.728,0.648,2.592,1.008
		c0.792,0.576,1.584,1.224,2.448,1.872c0.864,1.656,1.8,3.312,2.736,4.968c0,0.648,0,1.296,0,1.944
		c-0.648,1.152-1.296,2.376-1.944,3.6c-1.224,0.864-2.448,1.8-3.672,2.736C419.688,118.512,419.688,118.512,417.744,118.512
		L417.744,118.512z M108.144,100.08c-2.16-2.088-2.16-2.088-5.976-6.768c-5.688-9.216-7.56-11.808-11.448-18.576
		c-0.576-1.296-1.224-2.664-1.872-4.032c-1.944-2.88-1.944-2.88-5.328-9.144c-0.144-0.648-0.288-1.296-0.432-1.944
		c-0.432-0.864-0.936-1.728-1.44-2.592c0-0.288,0-0.648,0-1.008c3.24-1.872,8.64-5.76,16.2-10.224c0.216,0,0.432,0,0.72,0
		c0.648,0.792,1.296,1.584,1.944,2.448c1.224,2.5201,2.448,5.04,3.672,7.56c0.648,0.936,1.296,1.872,1.944,2.88
		c1.872,4.104,2.376,4.536,3.312,6.48c1.944,2.664,3.888,6.264,5.76,8.856c2.88,4.896,5.76,9.792,8.64,14.688
		c1.512,1.8,3.024,3.6,4.608,5.472c0,0.504-0.072,1.008-0.144,1.584c-7.2,1.8719-7.2,1.8719-16.56,3.816
		C110.592,99.72,109.368,99.864,108.144,100.08L108.144,100.08z M39.024,97.632c-2.232-0.288-4.464-0.576-6.696-0.936
		c-1.944-0.6479-3.96-1.296-5.976-1.944c-7.704-3.816-7.704-3.816-11.088-5.7599c-1.656-1.584-3.312-3.168-5.04-4.752
		c-1.872-2.664-2.88-3.6-4.752-6.624c-0.072-0.432-0.144-0.936-0.288-1.44c3.888,0.36,5.328,0.864,8.208,1.296
		c0.288,0.144,0.576,0.2881,0.936,0.504c4.536,0.7921,9.072,1.584,13.68,2.376c9.144,0,9.144,0,10.296,0.288
		c2.232,0.144,4.464,0.288,6.768,0.432c1.44-0.072,2.88-0.144,4.32-0.216C69.984,77.04,69.984,77.04,75.744,75.6
		c1.584-0.648,3.168-1.296,4.824-1.944c0.504-0.072,1.08-0.144,1.656-0.216c0.648-0.36,1.296-0.792,1.944-1.224
		c0.288,0,0.576,0,0.936,0c2.664,4.392,5.328,8.856,8.064,13.3199c0.072,0.648,0.144,1.2961,0.216,1.944
		c-1.296,0.792-1.296,0.792-4.176,1.8c-4.104,0.936-8.28,1.872-12.456,2.88c-8.712,1.584-17.424,3.168-26.208,4.752
		C41.904,97.632,41.904,97.632,39.024,97.632L39.024,97.632z M390.672,90c-5.328-0.648-10.728-1.296-16.128-1.944
		c0-0.216-0.072-0.504-0.144-0.792c0.6479-1.0081,1.296-2.088,1.944-3.168c0.648-1.512,1.296-3.024,1.944-4.536
		c1.944-3.672,3.96-7.344,5.976-11.016c1.872-4.176,3.816-8.3521,5.76-12.528c0.288-1.296,0.576-2.664,0.936-4.032
		c0.6481-1.08,1.296-2.232,1.944-3.384c3.816-9.576,3.816-9.576,5.256-12.456c0.504,0,1.008-0.072,1.5839-0.144
		c2.16,0.576,4.3201,1.224,6.48,1.872c1.728,1.008,1.728,1.008,12.456,4.968c0,0.36,0.072,0.792,0.144,1.224
		c-0.432,1.152-0.936,2.376-1.44,3.6c-0.36,0.288-0.7921,0.576-1.224,0.936c-0.936,3.096-1.44,3.816-2.376,6.984
		c-3.816,7.416-7.704,15.84-11.52,23.04c-2.304,3.672-4.68,7.344-7.056,11.088C393.696,89.784,392.184,89.856,390.672,90L390.672,90
		z M445.104,81.792c-0.216-0.144-0.4319-0.288-0.72-0.432c-1.728-0.144-3.4559-0.288-5.256-0.504c-1.8-0.432-3.672-0.936-5.544-1.44
		c-2.016-0.144-4.104-0.288-6.192-0.504c-11.808-1.872-11.808-1.872-19.008-3.312c0-0.36-0.072-0.72-0.144-1.08
		c3.888-8.136,3.888-8.136,8.064-15.768c1.224,0,2.448,0.504,7.92,1.44c2.592,0.648,5.256,1.2961,7.92,1.944
		c2.592,0.36,5.256,0.792,7.92,1.224c3.0961,0.072,6.192,0.144,9.36,0.216c0.288,0.216,0.6479,0.432,1.0079,0.72
		c3.888,0.072,7.7761,0.144,11.7361,0.216c1.6559-0.144,3.312-0.288,5.04-0.432c4.824-1.008,4.824-1.008,17.784-2.88
		c1.0079,0,2.016,0.072,3.096,0.144c-0.576,1.224-1.152,2.52-1.8,3.816c-2.232,3.096-4.4641,6.192-6.768,9.36
		c-2.736,1.944-3.672,2.232-4.8961,3.24c-1.08,0.4319-2.1599,0.9359-3.312,1.44c-4.8239,0.936-12.744,1.872-16.56,2.592
		C451.584,81.792,448.344,81.792,445.104,81.792L445.104,81.792z M122.328,78.696c-1.8-2.736-1.8-2.736-2.808-3.672
		c-3.312-7.2-3.312-7.2-3.816-7.704c-0.36-1.224-0.792-2.52-1.224-3.816c0-0.36,0.072-0.792,0.144-1.224
		c5.4-2.232,10.872-4.536,16.344-6.84c3.816-1.872,7.632-3.816,11.52-5.76c2.664-1.9439,2.664-1.9439,10.584-6.768
		c0.36,0,0.72,0,1.152,0c0.648,0.72,1.296,1.512,1.944,2.304c3.816,6.336,3.816,6.336,7.056,12.528
		c-0.072,0.216-0.144,0.432-0.216,0.72c-2.592,1.872-5.184,3.744-7.776,5.616c-5.976,3.168-11.952,6.336-18,9.576
		c-4.176,1.584-8.352,3.168-12.528,4.824C123.912,78.552,123.12,78.624,122.328,78.696L122.328,78.696z M379.152,67.68
		c-2.664-1.008-2.664-1.008-9.6479-2.88c-20.592-7.704-20.592-7.704-36-13.824c0-0.432,0.072-0.936,0.1439-1.44
		c2.5201-4.392,5.04-8.856,7.56-13.32c0.6481,0.072,1.2961,0.144,1.944,0.216c0.72,0.288,1.44,0.6479,2.16,1.008
		c2.448,0.576,4.8959,1.224,7.416,1.8719c29.736,11.52,31.68,12.528,34.344,13.4641c0,0.36,0,0.72,0.072,1.08
		c-3.816,8.424-4.824,10.08-5.7599,12.528c-0.288,0.36-0.576,0.72-0.936,1.1519C380.016,67.5359,379.584,67.608,379.152,67.68
		L379.152,67.68z"/>
</g>
</svg>
