<?xml version="1.0" encoding="utf-8"?>
<!-- Generator: Adobe Illustrator 21.1.0, SVG Export Plug-In . SVG Version: 6.00 Build 0)  -->
<svg version="1.1" id="Ja" xmlns="http://www.w3.org/2000/svg" xmlns:xlink="http://www.w3.org/1999/xlink" x="0px" y="0px"
	 viewBox="0 0 261.432 349.704" enable-background="new 0 0 261.432 349.704" xml:space="preserve">
<g>
	<path fill-rule="evenodd" clip-rule="evenodd" d="M169.2,349.704c-6.696-0.936-6.696-0.936-7.344-1.296
		c0-0.36,0.072-0.792,0.144-1.224c0.936,0,1.872-0.072,2.88-0.144c2.088,0.216,4.176,0.432,6.264,0.72
		c0.288,0.36,0.576,0.72,0.936,1.08c-0.144,0.216-0.288,0.432-0.504,0.648C170.784,349.56,169.992,349.632,169.2,349.704
		L169.2,349.704z M145.44,348.984c0-0.36-0.072-0.72-0.144-1.08c0.36-0.36,0.36-0.36,4.464-0.864c3.024,0,6.12,0.072,9.216,0.144
		c0,0.288-0.072,0.648-0.144,1.008C154.368,348.408,149.904,348.696,145.44,348.984L145.44,348.984z M139.464,348.048
		c-2.952-0.216-5.904-0.432-8.928-0.72c-0.36-0.288-0.72-0.576-1.152-0.864c0.144-0.288,0.288-0.576,0.432-0.864
		c0.288-0.144,0.648-0.288,1.008-0.432c0.2881-0.864,0.2881-0.864,0.72-1.224c1.2961-0.288,2.664-0.576,4.032-0.936
		c0.288-0.36,0.648-0.792,1.008-1.224c0.72-0.36,1.44-0.72,2.16-1.08c-0.504-0.36-2.88-0.864-3.384-1.296
		c0-0.36-0.072-0.72-0.144-1.08c0.36-0.216,0.72-0.4319,1.08-0.6479c0.36,0,0.792,0,1.224,0c0.144,0.144,0.288,0.288,0.504,0.504
		c0.504,0.072,1.08,0.144,1.656,0.216c0.288-0.216,0.576-0.432,0.936-0.72c4.104,0,4.32,0.288,9.144,0.288
		c0.936,0.072,1.944,0.216,2.952,0.36c0,0.432,0,0.864-0.072,1.296c-2.664-0.072-5.4-0.216-8.136-0.36
		c0.288,1.944,0.288,1.944,0,2.304c-1.368,0.288-2.736,0.576-4.104,0.936c-4.824,1.944-4.824,1.944-6.48,2.376
		c-0.216,0.216-0.432,0.432-0.72,0.648c0.504,0.36,0.504,0.36,7.92,1.296c0.216,0.288,0.432,0.576,0.72,0.864
		c-0.072,0.072-0.144,0.216-0.216,0.36C140.904,348.048,140.184,348.048,139.464,348.048L139.464,348.048z M63.36,347.76
		c-0.072-0.072-0.216-0.144-0.36-0.288c0.072-0.432,0.144-0.936,0.216-1.44c0.36-0.36,0.792-0.792,1.224-1.224
		c11.88-5.688,11.88-5.688,13.32-6.12c0.144-0.216,0.288-0.432,0.504-0.648c-1.008-0.36-1.008-0.36-6.768-0.792
		c-11.952-0.288-11.952-0.288-15.552,0c-0.144-0.144-0.288-0.288-0.504-0.504c0-0.36,0-0.72,0-1.08
		c6.984-0.36,6.984-0.36,13.896-0.36c4.464,0.216,8.928,0.432,13.464,0.72c0.36,0.144,0.792,0.288,1.224,0.504
		c0,1.008-0.072,2.016-0.144,3.024c-8.28,2.736-10.656,3.168-13.104,4.176c-0.288,0.288-0.576,0.576-0.864,0.864
		c0,0.216,0,0.432-0.072,0.72c3.672,0,7.344,0,11.016,0.072c0.72,0.144,1.44,0.288,2.16,0.504c0,0.432,0,0.864,0,1.296
		C79.92,347.544,79.92,347.544,63.36,347.76L63.36,347.76z M90.72,347.76c-1.224-0.432-1.224-0.432-1.584-1.008
		c0-1.008,0-1.008,0.36-1.368c1.656,0.072,3.312,0.144,5.04,0.216c0.36,0.432,0.36,0.432,0.36,1.368
		c-0.36,0.36-0.36,0.36-2.016,0.792C92.16,347.76,91.44,347.76,90.72,347.76L90.72,347.76z M101.736,346.824
		c-1.656-0.216-1.656-0.216-2.016-0.576c0-0.72,0-0.72,0.36-1.08c2.088-0.072,4.176-0.144,6.264-0.288
		c0.216,0.432,0.504,0.864,0.792,1.368c-0.144,0.144-0.288,0.288-0.504,0.504C105.048,346.752,103.392,346.752,101.736,346.824
		L101.736,346.824z M125.28,346.824c-1.44-0.216-2.952-0.504-4.464-0.792c0-0.288,0-0.648,0-1.008
		c0.216-0.072,0.432-0.216,0.648-0.36c1.656,0.144,3.312,0.288,5.04,0.504c0.216,0.36,0.432,0.72,0.72,1.08
		c-0.144,0.144-0.288,0.36-0.504,0.576C126.288,346.824,125.784,346.824,125.28,346.824L125.28,346.824z M115.2,346.32
		c-1.08-0.072-2.232-0.144-3.384-0.216c-0.216-0.288-0.432-0.576-0.72-0.864c0.504-0.576,0.504-0.576,1.224-0.792
		c1.08,0,2.2321,0,3.384,0c0.72,0.432,0.72,0.432,1.152,1.296C116.64,346.104,116.64,346.104,115.2,346.32L115.2,346.32z
		 M224.424,341.064c-6.768-0.936-6.768-0.936-7.488-1.296c0-0.36,0-0.72,0-1.08c2.52,0.216,5.112,0.432,7.704,0.72
		c0.216,0.144,0.432,0.288,0.72,0.432c0,0.36,0,0.72,0.072,1.152C225.144,340.9921,224.784,340.9921,224.424,341.064
		L224.424,341.064z M196.56,340.128c-6.984-0.72-6.984-0.72-7.56-1.08c0-0.36-0.072-0.792-0.144-1.224
		c2.952,0.144,5.904,0.36,8.928,0.576c0.432,0.504,0.432,0.504,0.576,1.368C198,340.128,198,340.128,196.56,340.128L196.56,340.128z
		 M210.96,340.128c-1.944-0.144-3.96-0.288-5.976-0.504c-0.216-0.144-0.4319-0.288-0.72-0.504c0-0.288-0.072-0.648-0.144-1.0081
		c1.296-0.144,1.296-0.144,8.064,0.288c0.288,0.432,0.288,0.432,0.216,1.728C211.968,340.128,211.464,340.128,210.96,340.128
		L210.96,340.128z M179.784,339.1201c-1.152-0.144-2.376-0.288-3.6-0.432c-0.792-0.432-1.584-0.936-2.448-1.44
		c0-0.288-0.072-0.576-0.144-0.864c0.216-0.144,0.432-0.36,0.648-0.576c1.944-0.648,3.96-1.296,5.976-1.944
		c1.008-0.144,2.088-0.288,3.168-0.504c2.16-0.936,4.536-1.44,5.76-2.232c-0.144-0.144-0.288-0.288-0.504-0.504
		c0-0.288,0-0.576,0-0.936c1.224,0,2.5201-0.072,3.816-0.144c2.88,0.504,2.88,0.504,3.888,1.08c0.072,0.144,0.144,0.288,0.216,0.504
		c-0.144,0.144-0.288,0.36-0.504,0.576c-0.864,0-1.728,0-2.592,0c-0.144,0.216-0.288,0.432-0.504,0.72
		c-4.608,1.296-9.288,2.592-13.968,3.96c0,0.36,0,0.72,0.072,1.08c1.152,0.216,1.44,0,5.7599,0
		c0.288,0.6479,0.288,0.6479,0.216,1.656C183.312,339.1201,181.584,339.1201,179.784,339.1201L179.784,339.1201z M91.44,338.904
		c-0.648-0.144-1.296-0.288-1.944-0.504c-0.288-0.432-0.576-0.864-0.864-1.296c0.072-0.288,0.144-0.576,0.288-0.936
		c1.44,0,2.952-0.072,4.464-0.144c0.216,0.144,0.432,0.288,0.72,0.504c0,0.288,0,0.576,0.072,0.864
		c-0.504,0.504-1.008,1.008-1.512,1.512C92.304,338.904,91.872,338.904,91.44,338.904L91.44,338.904z M123.12,338.904
		c-0.072-0.072-0.216-0.216-0.36-0.36c0-0.432,0.0721-0.864,0.144-1.296c1.152-0.288,1.152-0.288,6.192-0.288
		c1.44,0.144,2.88,0.288,4.32,0.504c0,0.288,0.072,0.576,0.144,0.864c-0.144,0.144-0.288,0.288-0.504,0.504
		C129.744,338.832,126.432,338.832,123.12,338.904L123.12,338.904z M40.32,338.4c-0.36-0.576-0.36-0.576-0.36-1.296
		c0.576-0.36,6.84-1.296,8.28-1.8c0.648,0.072,1.296,0.144,1.944,0.216c0.288,0.36,0.576,0.72,0.936,1.08
		c-0.216,0.36-0.216,0.36-3.6,1.368C45.144,338.112,42.768,338.256,40.32,338.4L40.32,338.4z M113.256,337.4641
		c-0.216-0.144-0.432-0.288-0.72-0.504c0-0.216-0.072-0.504-0.144-0.792c0.144-0.072,0.288-0.216,0.4319-0.36
		c4.752,0,4.752,0,6.048,0.36c0,0.432,0,0.864-0.072,1.296C117,337.4641,115.128,337.4641,113.256,337.4641L113.256,337.4641z
		 M57.384,333.648c-0.216-0.072-0.432-0.2159-0.648-0.36c0-0.36,0-0.792,0-1.224c4.464-2.304,4.464-2.304,5.184-2.304
		c0.288,0.36,0.576,0.72,0.936,1.08c-0.288,0.432-0.576,0.864-0.936,1.368c-0.72,0.432-1.44,0.936-2.16,1.44
		C58.968,333.648,58.176,333.648,57.384,333.648L57.384,333.648z M91.224,333.144c-0.144-0.144-0.288-0.36-0.504-0.576
		c-0.144-1.44,0.36-4.32,0.792-19.656c0.288-2.448,0.288-2.448,0.144-3.168c-0.864-0.072-1.728-0.216-2.592-0.36
		c-0.216-0.144-0.432-0.288-0.72-0.504c-0.144-0.792-0.144-0.792,0.216-1.152c3.384-0.504,3.384-0.504,3.672-0.864
		c0.216-4.176,0.432-8.424,0.72-12.672c0.144-0.144,0.288-0.288,0.504-0.504c-0.072-0.432-0.144-0.936-0.216-1.44
		c-13.464-26.424-13.464-26.424-13.968-26.856c-0.576-1.08-1.224-2.232-1.872-3.384c-1.872-2.16-3.816-4.32-5.76-6.48
		c0.072-0.936,0.144-1.872,0.216-2.88c0.648-1.368,1.296-2.736,1.944-4.104c1.224-2.016,2.52-4.104,3.816-6.192
		c0.648-1.584,1.296-3.168,1.944-4.824c0.936-3.24,1.872-6.552,2.88-9.864c2.376-5.616,4.752-11.304,7.2-16.992
		c0-0.36-0.072-0.72-0.144-1.152c-1.656-0.432-1.656-0.432-3.312-0.432c-1.728,0.936-2.16,1.44-3.6,2.16
		c-4.104,0.432-4.104,0.432-6.048,0.936c-0.72,0.504-2.16,0.936-9.072,4.824c-1.872,1.296-3.816,2.664-5.76,4.032
		c-1.44,1.296-2.88,2.592-4.32,3.888c-7.704,8.136-7.704,8.136-14.4,14.616c-1.44,0.936-2.88,1.872-4.32,2.88
		c-0.864,0.288-1.728,0.576-2.664,0.936c-1.584-0.072-3.168-0.144-4.824-0.216c-0.432-0.144-0.936-0.288-1.44-0.504
		c-0.936-1.08-1.872-2.16-2.88-3.312c-1.44-1.008-1.44-1.008-3.096-3.024c-0.072-0.36-0.144-0.72-0.216-1.152
		c-2.664,0.576-2.664,0.576-5.328,0.576c-0.432-0.288-0.864-0.576-1.296-0.864c-0.144-0.792-0.288-1.584-0.504-2.376
		c0.072-1.8,0.144-3.672,0.216-5.5439c0.648-2.9521,1.296-5.904,1.944-8.856c0.936-2.16,0.936-2.16,4.32-12.96
		c3.816-9.144,3.816-9.144,5.76-13.176c2.232-6.336,4.464-12.672,6.696-19.008c1.008-1.656,1.008-1.656,2.88-5.976
		c0.288-0.288,0.648-0.576,1.008-0.936c1.224-2.232,2.52-4.464,3.816-6.768c7.704-11.232,11.52-16.272,12.024-17.28
		c3.168-2.592,6.336-5.256,9.576-7.92c4.176-2.88,8.352-5.832,12.6-8.784c7.2-3.816,7.2-3.816,13.68-7.632
		c5.76-3.888,5.76-3.888,10.8-7.704c1.296-1.08,2.592-2.232,3.888-3.384c0.504-0.144,1.08-0.2881,1.656-0.432
		c1.224-1.008,2.52-2.088,3.816-3.168c4.32-1.872,4.32-1.872,7.92-3.816c1.728-0.648,3.528-1.296,5.328-1.944
		c1.512-0.216,3.024-0.432,4.536-0.72c2.16-0.072,4.32-0.144,6.48-0.216c3.312,0.144,6.696,0.288,10.08,0.504
		c1.872-0.4319,3.8159-0.936,5.7599-1.44c1.368-1.08,2.736-2.232,4.104-3.384c0.864-2.16,1.8-4.32,2.736-6.552
		c0.216-1.656,0.432-3.312,0.72-5.04c-0.144-4.464-0.288-8.928-0.504-13.464c-0.288-0.864-0.576-1.728-0.936-2.664
		c-3.888-6.48-3.888-6.48-6.2639-9.7921c-0.288-0.72-0.576-1.4399-0.936-2.16c-2.232-2.808-4.464-5.616-6.768-8.424
		c-1.872-4.536-1.872-4.536-2.88-7.704c-0.432-3.0961-0.72-3.6-1.152-7.416c-0.288-0.72-0.288-5.76,0-7.92
		c0.576-2.6639,1.224-5.4,1.872-8.136c4.104-4.824,4.104-4.824,7.128-7.92c1.7281-0.936,3.4561-1.8719,5.256-2.808
		c2.304-0.648,4.608-1.296,6.984-1.944c2.376,0,4.752,0,7.2,0c4.32,1.0081,4.32,1.0081,6.984,1.944
		c1.152,0.648,2.376,1.296,3.6,1.944c2.16,1.872,2.592,2.592,4.752,4.536c1.296,1.8719,2.592,3.8159,3.888,5.7599
		c0.7921,2.0881,0.7921,2.0881,3.4561,6.4081c0.144,0.864,0.288,1.728,0.432,2.5919c-0.072,0.864-0.144,1.7281-0.216,2.6641
		c0.936,1.224,0.936,1.224,2.88,4.824c3.816,4.5361,7.704,8.64,15.624,18.2161c2.52,2.88,5.04,5.76,7.632,8.64
		c1.44,1.368,2.952,2.736,4.464,4.1039c5.76,6.1201,11.592,12.2401,17.424,18.4321c0.792,1.008,1.584,2.088,2.376,3.168
		c2.16,1.872,5.976,5.976,13.176,12.96c2.448,1.872,2.448,1.872,5.4,4.752c0.576,0.864,1.152,1.728,1.8,2.664
		c-0.072,0.36-0.144,0.7921-0.216,1.224c-0.648,0.216-1.2961,0.504-2.016,0.792c-1.368-0.0721-2.736-0.144-4.104-0.216
		c-3.096-0.648-6.192-1.296-9.36-1.944c-1.656-0.648-3.312-1.296-5.04-1.944c-4.824-2.52-9.72-5.04-14.616-7.632
		c-2.88-1.944-8.136-4.824-9.144-5.76c-2.232-1.296-4.464-2.592-6.696-3.888c-10.584-7.92-10.584-7.92-15.12-11.7361
		c-2.16-2.376-8.424-7.9199-9.36-9.144c-1.224-0.9359-2.16-2.1599-3.096-2.8799c-0.216,0-0.432,0-0.72-0.072
		c0.648,7.2,1.296,14.4,2.016,21.6c-0.072,4.392-0.144,8.7841-0.288,13.1761c-0.288,1.656-0.576,3.312-0.936,5.04
		c-1.224,3.6-1.224,3.6-1.656,6.0479c-1.44,3.168-2.88,6.336-4.32,9.576c-0.72,0.648-1.44,1.296-2.16,1.944
		c-0.648,0.936-1.296,1.8719-1.944,2.88c-0.432,0.288-0.936,0.576-1.44,0.936c-1.944,2.664-1.944,2.664-2.664,3.096
		c-3.816,6.264-3.816,6.264-5.76,10.368c-0.432,1.44-0.432,1.44-2.376,5.04c-0.792,2.952-1.584,5.904-2.376,8.856
		c-0.648,1.368-1.296,2.736-1.944,4.104c-0.216,1.44-1.656,5.256-2.16,5.976c-0.936,2.664-0.936,2.664-2.88,6.48
		c-1.224,1.656-2.52,3.312-3.816,5.04c-2.808,2.808-5.616,5.616-8.424,8.424c-9.864,7.632-9.864,7.632-14.616,11.7361
		c-1.656,1.656-3.312,3.312-5.0399,5.0399c-1.008,1.656-1.008,1.656-2.88,3.6c-1.008,3.096-1.008,3.096-2.448,6.264
		c-0.72,0.576-1.44,1.224-2.16,1.872c-0.216,1.728,0,1.944-0.216,4.8239c-0.432,1.512-0.936,3.024-1.44,4.536
		c0,1.656,0,3.312,0,5.04c-0.936,8.64-1.44,18-1.944,20.664c-0.072,2.808-0.144,5.616-0.216,8.424
		c0.288,1.728,0.576,3.4561,0.936,5.256c0,2.088,0,4.176,0,6.264c-0.432,2.376-0.432,2.376-1.44,5.04
		c-0.432,2.9521-0.936,5.9041-1.44,8.856c0.288,9.576,0.288,9.576,0.72,12.96c0.504,0.936,0.504,0.936,1.44,4.536
		c3.888,7.92,5.76,10.8,7.2,13.968c0.36,0.216,0.36,0.216,4.752-0.144c0.288-0.144,0.576-0.2881,0.936-0.504
		c1.728,0,3.456-0.0721,5.256-0.144c0.072,0.072,0.144,0.216,0.288,0.36c4.5359-0.2159,7.632-0.72,11.232-0.72
		c0.504,0.432,0.504,0.432,0.576,1.152c-0.288,0.288-0.288,0.288-8.208,1.2961c-0.936,0-1.872,0-2.88,0
		c-0.216-0.216-0.432-0.432-0.72-0.72c-2.088,0.36-4.176,0.72-6.264,1.08c0,0.216,0,0.432,0,0.72c0.36,0.072,0.792,0.216,1.224,0.36
		c0.288,0.288,0.576,0.576,0.936,0.936c0.936-0.216,0.936-0.216,7.92,0c0.216,0.072,0.432,0.216,0.72,0.36
		c0,0.288,0,0.648,0.0721,1.008c-0.144,0.072-0.36,0.144-0.576,0.288c-2.52-0.144-5.04-0.288-7.632-0.432
		c-0.216-0.216-0.432-0.432-0.72-0.72c-0.72,0.216-0.72,0.216-4.824-0.36c0,0.432,0,0.936,0.072,1.44
		c0.936,1.584,1.872,3.168,2.88,4.824c0.936,2.232,1.872,4.464,2.88,6.696c0,0.504,0,1.08,0,1.656
		c-0.216,0.432-0.504,0.864-0.792,1.296c-0.72-0.072-1.44-0.144-2.16-0.216c-1.44-0.936-3.384-3.096-4.32-3.6
		c-0.6479-0.072-1.296-0.144-1.944-0.216c-0.144,0.288-0.36,0.576-0.576,0.864c0.216,4.032,0.216,4.032,0.576,5.76
		c7.704,0.072,7.704,0.072,18.72,0.792c0.36,0.288,0.72,0.576,1.08,0.864c0,0.216,0,0.432,0,0.72
		c-0.144,0.144-0.36,0.288-0.576,0.504c-4.104-0.288-8.28-0.576-12.456-0.864c-2.592,0-5.256,0-7.92,0
		c-0.6479-0.144-1.296-0.288-1.944-0.504c0-0.36-0.072-0.72-0.144-1.08c0.216-0.144,0.432-0.288,0.72-0.432
		c-0.072-0.432-0.144-0.936-0.216-1.44c-1.8-3.96-3.6-7.992-5.4-12.024c-0.216-0.0721-0.432-0.144-0.72-0.216
		c-0.36,3.8159-0.864,5.472-1.08,7.632c-0.144,0.36-0.288,0.792-0.504,1.224c-0.072,1.368-0.144,2.736-0.216,4.104
		c-0.504,1.152-0.504,1.152-1.368,1.872c-1.296-1.224-2.664-2.448-4.032-3.744c-0.432,0-0.936,0-1.44,0
		c-0.4319,0.288-0.936,0.648-1.44,1.008c-1.8,2.304-1.8,2.304-2.808,4.176C91.44,333.288,91.44,333.288,91.224,333.144
		L91.224,333.144z M144,332.424c-2.88-0.216-2.88-0.216-3.744-0.576c0-0.36,0-0.792,0-1.224c0.144-0.144,0.36-0.288,0.576-0.432
		c3.672,0.576,3.672,0.576,7.9919,0.792c0.144,0.216,0.36,0.432,0.576,0.648c0,0.216-0.072,0.504-0.144,0.792
		C147.528,332.424,145.8,332.424,144,332.424L144,332.424z M165.816,331.2c-0.36-1.008-0.36-1.008-0.216-1.656
		c2.376,0,4.824,0.072,7.272,0.144c0,0.504,0,1.008-0.072,1.512C170.496,331.2,168.192,331.2,165.816,331.2L165.816,331.2z
		 M183.384,330.768c-2.16-0.288-4.392-0.576-6.624-0.864c0-0.432,0.0721-0.864,0.144-1.296c2.88,0.144,5.76,0.288,8.64,0.432
		c0.216,0.144,0.432,0.288,0.72,0.504c0.0721,0.864,0.0721,0.864-0.288,1.224C185.112,330.768,184.248,330.768,183.384,330.768
		L183.384,330.768z M156.96,330.264c-2.088-0.144-4.176-0.36-6.264-0.576c0-0.432,0-0.864,0-1.368
		c1.728-0.072,3.528-0.144,5.328-0.216c0.144-0.432,0.288-0.864,0.432-1.296c1.152-0.288,2.376-0.576,3.6-0.864
		c1.728,0.216,1.728,0.216,2.448,0.72c0,0.288,0,0.576,0.072,0.864c-0.792,0.36-0.792,0.36-3.24,0.792
		c-0.0721,0.576-0.216,1.224-0.36,1.872C158.328,330.192,157.68,330.192,156.96,330.264L156.96,330.264z M66.024,330.048
		c-0.504-0.504-0.504-0.504-0.648-1.584c0.216-0.288,0.432-0.576,0.648-0.936c-1.08-0.288-2.16-0.576-3.312-0.936
		c0-0.432,0.072-0.864,0.144-1.368c0.864-0.144,1.728-0.2881,2.664-0.5041c1.584,0,3.168,0,4.824,0
		c1.152,0.5041,1.152,0.5041,1.656,1.2241c0,0.504,0,1.008,0.072,1.584c-0.144,0.216-0.288,0.432-0.432,0.72
		c-0.576,0.288-1.152,0.576-1.8,0.936C68.616,329.472,67.32,329.76,66.024,330.048L66.024,330.048z M25.704,328.824
		c-0.432-0.36-0.432-0.36-0.432-1.296c0.36-0.216,0.72-0.432,1.08-0.72c0.504,0.216,1.512-0.144,4.824-0.144
		c0.288-0.144,0.648-0.288,1.008-0.504c1.008-0.072,2.016-0.144,3.096-0.216c3.096,0.504,3.096,0.504,4.824,0.504
		c1.872-0.216,3.816-0.432,5.76-0.72c0.216,0.144,0.432,0.288,0.72,0.432c0.792,0,1.584,0,2.376,0c0,0.288,0,0.576,0.072,0.864
		c-0.72,0.288-1.44,0.576-2.232,0.864c-4.536,0.72-4.536,0.72-7.416,0.72c-1.008-0.144-2.088-0.288-3.168-0.504
		c-2.016,0-4.104,0-6.192,0c-0.504,0.504-0.504,0.504-1.224,0.72C27.792,328.824,26.784,328.824,25.704,328.824L25.704,328.824z
		 M52.56,327.6c-0.216-0.144-0.432-0.36-0.648-0.576c0-0.216,0.072-0.432,0.144-0.72c3.168-0.864,3.168-0.864,5.544-1.08
		c0.144,0.072,0.36,0.2159,0.576,0.36c0,0.432,0,0.864-0.072,1.296C56.304,327.096,54.432,327.312,52.56,327.6L52.56,327.6z
		 M76.32,327.6c-0.36-0.288-0.36-0.288-0.36-1.512c0.36-0.36,2.304-0.864,2.736-1.368c0.576-0.072,1.152-0.144,1.728-0.2159
		c0.36,0.4319,0.72,0.9359,1.152,1.44c0,0.288,0.072,0.576,0.144,0.864C81.144,327.168,81.144,327.168,76.32,327.6L76.32,327.6z
		 M93.384,326.808c0-1.656,0-3.312,0-5.04c0.72,0,1.44-0.072,2.16-0.144c1.152,0.504,1.152,0.504,1.872,0.504
		c0.36-0.36,0.36-0.36,0.36-1.08c-0.36-0.288-0.72-0.576-1.08-0.864c-1.008-0.288-2.016-0.576-3.096-0.936c0-1.44,0-2.952,0-4.464
		c0.504,0,1.08-0.0721,1.656-0.144c0.288,0.216,0.648,0.432,1.008,0.72c0.2881,0,0.648,0,1.0081-0.072c0-0.36,0-0.7921,0-1.224
		c-0.36-0.288-0.72-0.576-1.08-0.936c-0.792-0.216-1.584-0.432-2.376-0.72c0.36-5.04,0.36-5.04,0.72-6.624c0.288,0,0.648,0,1.008,0
		c0.216,0.288,0.432,0.576,0.72,0.9359c0.504-0.072,1.08-0.144,1.656-0.2159c0-0.36,0-0.72,0.072-1.08
		c-1.008-0.576-2.088-1.152-3.168-1.8c-0.144-0.504-0.288-1.008-0.4319-1.512c0.072-2.088,0.216-4.1761,0.36-6.264
		c1.152,1.512,2.304,3.024,3.528,4.536c1.44,3.168,1.872,3.6,4.752,9.36c-0.072,2.952-0.144,5.904-0.216,8.928
		c-0.936,5.04-0.936,5.04-1.8,7.992c-0.216,0-0.432,0-0.72,0c-0.36-0.288-0.72-0.576-1.152-0.936c-0.72-0.216-1.44-0.432-2.16-0.72
		C95.832,325.584,94.608,326.16,93.384,326.808L93.384,326.808z M43.704,324.72c-0.504-0.4319-0.504-0.4319-0.648-1.296
		c0.432-0.288,0.864-0.576,1.368-0.864c2.376-0.72,4.752-1.44,7.2-2.16c0.144,0.216,0.36,0.432,0.576,0.648
		c0,0.216-0.072,0.504-0.144,0.792C44.424,324.72,44.424,324.72,43.704,324.72L43.704,324.72z M120.24,324.72
		c-0.504-0.504-1.008-1.008-1.584-1.512c0-0.216,0-0.432-0.072-0.72c0.504,0,1.08,0,1.656,0.072c0.36,0.648,0.36,0.648,0.576,2.088
		C120.456,324.864,120.456,324.864,120.24,324.72L120.24,324.72z M130.32,324.72c-0.288-0.144-0.576-0.288-0.936-0.4319
		c0-0.288-0.072-0.576-0.144-0.864c0.72-0.72,0.72-0.72,5.616-3.024c4.32-0.936,4.32-0.936,8.208-2.16c0,0.288,0,0.576,0.072,0.864
		c-1.08,0.504-2.16,1.008-3.24,1.584c-0.36,0.576-0.36,0.576-0.432,1.584c10.512-0.432,10.512-0.432,12.456-0.864
		c3.096,0.072,6.192,0.144,9.36,0.216c0.648,0.144,1.296,0.288,1.944,0.504c1.728,0,3.456,0,5.256,0
		c0.0721,0.072,0.216,0.216,0.36,0.36c0,0.36-0.0721,0.72-0.144,1.08c-1.656,0.144-3.312,0.288-5.04,0.432
		c-12.96-0.432-13.68-0.216-19.656-0.216c-0.432,0.144-0.936,0.288-1.44,0.504C138.528,324.432,134.424,324.576,130.32,324.72
		L130.32,324.72z M172.8,323.5681c-2.88-0.504-2.88-0.504-3.24-0.864c0-0.72,0-0.72,0.36-1.08c1.656,0.072,3.312,0.144,5.04,0.216
		c0.36,0.648,0.36,0.648,0.216,1.44C174.24,323.5681,174.24,323.5681,172.8,323.5681L172.8,323.5681z M111.096,323.064
		c-1.8-3.456-2.736-6.12-10.44-21.96c-1.08-1.728-2.232-3.456-3.384-5.256c-5.76-11.304-6.696-12.456-17.28-33.624
		c-1.872-2.592-4.32-5.256-5.976-7.632c0.072-0.6479,0.144-1.296,0.216-1.944c0.648-1.368,1.296-2.736,1.944-4.104
		c1.224-2.016,2.52-4.104,3.816-6.192c0.72-2.664,1.728-4.608,3.6-11.304c2.88-7.704,2.88-7.704,7.704-19.224
		c0.288-0.432,0.576-0.864,0.864-1.296c0.504,0,1.08,0,1.6559,0.072c0.792,0.72,1.584,1.512,2.448,2.304
		c2.88,0.936,2.88,0.936,3.168,1.368c-0.216,2.88-0.432,5.76-0.72,8.64c-0.36,0.72-0.72,1.44-1.152,2.16
		c-1.08-1.008-1.08-1.008-3.024-2.16c-0.144,0.072-0.288,0.144-0.504,0.216c0,0.288,0,0.576-0.072,0.936
		c0.792,0.6479,1.656,1.296,2.52,1.944c0.36,0.072,0.7921,0.144,1.224,0.216c-0.144,1.44-0.144,1.44-0.504,1.728
		c-0.792-0.432-1.584-0.864-2.376-1.368c-0.4319,0-0.936,0-1.44,0c-0.144,0.144-0.288,0.36-0.504,0.576
		c0.144,0.216,0.288,0.432,0.504,0.72c-0.288,0.36-1.44,0.36-1.872,0.792c-0.144,0.36-0.288,0.72-0.432,1.152
		c-0.288,0.216-0.576,0.432-0.864,0.72c-0.072,0.576-0.216,1.152-0.36,1.728c-0.216,0-0.504-0.072-0.792-0.144
		c-0.216,0.216-0.432,0.504-0.72,0.792c0.144,0.216,0.288,0.432,0.432,0.648c1.224,0.432,1.224,0.432,2.664,1.44
		c0.216,0,0.504-0.0721,0.792-0.144c0-0.288,0.072-0.576,0.144-0.936c0.432,0.144,0.936,0.288,1.44,0.432
		c-0.792,1.296-1.584,2.592-2.376,3.888c-0.648,1.944-0.648,1.944-1.008,2.16c-0.576-0.432-1.152-0.936-1.8-1.44
		c-0.288,0-0.648,0-1.008,0c0,0.288-0.072,0.576-0.144,0.936c0.72,0.72,1.44,1.44,2.16,2.16c0.36,0.072,0.72,0.144,1.08,0.288
		c-0.072,0.432-0.216,0.936-0.36,1.44c-0.936-0.792-1.872-1.584-2.808-2.448c-0.36,0-0.72,0-1.152,0
		c-0.072,0.144-0.144,0.288-0.216,0.504c0.504,0.576,1.08,1.224,1.656,1.872c-0.216,0.216-0.432,0.432-0.72,0.648
		c0,0.432-0.072,0.864-0.144,1.296c1.08,1.008,2.232,2.088,3.384,3.168c0,0.936,0,0.936-0.864,2.736c-0.864,0-1.728,0-2.592,0
		c-0.432,0.36-0.432,0.36-0.432,1.08c0.576,0.288,1.152,0.576,1.8,0.936c0,0.288,0.072,0.648,0.144,1.008
		c-0.432,1.008-0.864,2.088-1.296,3.168c-0.936,0-1.872,0-2.88,0c-0.216,0.216-0.432,0.432-0.72,0.648
		c0.216,0.216,0.432,0.504,0.72,0.792c0.936,0.144,1.872,0.288,2.88,0.504c0.864,0.36,1.728,0.72,2.664,1.08
		c0.432,0.72,0.432,0.72,0.216,1.08c-0.792,0-1.584,0-2.376,0c-1.008,0.504-1.008,0.504-1.224,0.864
		c0.36,0.288,0.792,0.576,1.224,0.936c-0.432,0.504-0.432,0.504-0.432,1.44c0.288,0.216,0.576,0.432,0.864,0.72
		c0,0.36,0.072,0.792,0.144,1.224c0.432,0.72,0.936,1.44,1.44,2.16c-0.216,0.216-0.432,0.432-0.72,0.72
		c0.072,0.648,0.144,1.2961,0.216,1.944c0.576,0.216,1.152,0.504,1.8,0.792c0.072,0.504,0.216,1.008,0.36,1.584
		c2.52,1.656,2.52,1.656,2.88,2.16c-1.512,0.36-1.512,0.36-2.52,0.936c0.504,0.576,0.504,0.576,2.448,1.224
		c-0.504,0.288-1.008,0.576-1.584,0.936c0,0.2159,0,0.4319,0,0.72c0.216,0.144,0.504,0.288,0.792,0.504
		c1.008-0.36,1.008-0.36,4.104-0.36c0.504-0.504,0.504-0.504,1.224-0.504c0.216,0.432,0.432,0.864,0.72,1.296
		c-0.072,0.072-0.144,0.216-0.216,0.36c-1.944,0-1.944,0-3.888,0.504c-0.144,0.144-0.288,0.36-0.432,0.576
		c0.432,0.648,0.432,0.648,1.2961,1.008c0.144,0.72,0.288,1.44,0.432,2.16c0.72,0.504,0.72,0.504,2.088,0.576
		c0.648-0.216,1.296-0.504,2.016-0.792c0.072-0.216,0.216-0.432,0.36-0.72c0.36,0.216,0.36,0.216,0.576,1.656
		c-2.016,0.36-2.016,0.36-2.736,0.792c0,0.288-0.072,0.576-0.144,0.864c0.144,0.072,0.288,0.216,0.432,0.36
		c2.88,0,2.88,0,3.888,0.36c0,0.216,0,0.432,0,0.72c-2.232,0.864-2.232,0.864-2.736,1.44c0.144,0.144,0.288,0.36,0.504,0.576
		c1.152-0.072,2.376-0.144,3.6-0.216c0.216,0.36,0.216,0.36,0,0.72c-2.16,0.504-2.16,0.504-2.52,0.864c0,0.72,0,0.72,0.36,1.08
		c0.72,0,1.224-0.288,3.6-0.288c0.36,0.432,0.36,0.432,0.216,1.44c-0.72,0.072-1.44,0.144-2.16,0.288
		c-0.144,0.144-0.288,0.36-0.432,0.576c0.144,0.144,0.288,0.36,0.432,0.576c1.08,0.144,2.232,0.288,3.384,0.432
		c-0.072,0.216-0.144,0.504-0.216,0.792c-1.728,0.504-1.728,0.504-2.088,0.864c0,0.72,0,0.72,0.36,0.936
		c0.288,0,0.6479-0.072,1.008-0.144c0.288,0.144,0.576,0.288,0.936,0.504c-0.504,0.288-1.08,0.576-1.656,0.936
		c0,0.288-0.072,0.576-0.144,0.864c0.936,0.216,1.944,0.432,2.952,0.72c0.072,0.216,0.144,0.432,0.288,0.72
		c-0.504,0.072-1.08,0.216-1.656,0.36c-0.144,0.864-0.144,0.864,0.216,1.224c0.432,0.144,0.936,0.288,1.44,0.432
		c-0.36,0.36-0.792,0.72-1.224,1.08c0.216,0.216,0.432,0.432,0.72,0.648c0.936,0.288,1.872,0.576,2.88,0.936
		c0.576-0.0721,1.152-0.144,1.728-0.216c0.2881,0.576,0.2881,0.576,0.216,1.656c-1.656-0.216-1.656-0.216-3.6-0.072
		c0,0.288,0,0.648,0,1.008c0.72,0.216,1.44,0.432,2.16,0.72c-0.432,0.432-0.936,0.864-1.4399,1.368
		c0.144,0.144,0.288,0.36,0.504,0.576c2.88,0.936,3.096,1.224,3.6,1.224c0.144-0.144,0.2881-0.288,0.432-0.504
		c0.216,0,0.432,0.072,0.72,0.144c0.504,0.936,0.504,0.936,0.288,1.296c-2.88-0.216-3.6-0.504-5.184-0.36c0,0.288,0,0.6479,0,1.008
		c0.792,0.36,1.656,0.72,2.52,1.152c0.144,0.36,0.36,0.792,0.576,1.224c0.36,0.288,0.792,0.576,1.224,0.936
		c0.432,1.224,0.432,1.224,0.36,1.8c-0.72,0.072-1.44,0.144-2.16,0.216C112.392,321.768,111.744,322.416,111.096,323.064
		L111.096,323.064z M54,321.408c-0.144-0.216-0.288-0.432-0.504-0.648c2.16-1.08,2.16-1.08,2.88-1.8
		c2.664-0.72,2.664-0.72,4.104-0.72c0.36,0.648,0.36,0.648,0.36,1.872c-0.72,0.2159-1.512,0.504-2.304,0.792
		C57.024,321.048,55.512,321.192,54,321.408L54,321.408z M29.736,320.184c-1.872-0.072-3.816-0.144-5.76-0.216
		c-0.432-0.504-0.432-0.504-0.576-1.296c0.144-0.144,0.36-0.288,0.576-0.432c1.8-0.072,3.672-0.144,5.544-0.216
		c0.504,0.288,1.08,0.576,1.656,0.936c0,0.288,0.072,0.576,0.144,0.864C30.744,320.184,30.744,320.184,29.736,320.184
		L29.736,320.184z M117.864,319.968c-0.144-0.504-0.288-1.008-0.432-1.584c0.072-0.144,0.216-0.288,0.36-0.432
		c0.288,0.576,0.576,1.224,0.864,1.872C118.44,319.824,118.152,319.8961,117.864,319.968L117.864,319.968z M34.776,319.68
		c-0.216-0.216-0.432-0.504-0.72-0.792c0.216-0.288,0.432-0.576,0.72-0.864c1.8,0.072,3.672,0.144,5.544,0.216
		c0.144,0.216,0.36,0.432,0.576,0.648c0,0.216,0,0.504-0.072,0.792C38.808,319.68,36.792,319.68,34.776,319.68L34.776,319.68z
		 M45.36,319.68c-0.288-0.072-0.576-0.144-0.864-0.288c0-0.36,0-0.792,0-1.224c0.648-0.36,0.648-0.36,3.96-0.864
		c0.576,0.072,1.152,0.144,1.728,0.216c0.216,0.36,0.432,0.72,0.72,1.08c-0.144,0.216-0.288,0.432-0.504,0.648
		C48.744,319.392,47.088,319.536,45.36,319.68L45.36,319.68z M17.496,319.464c-0.288-0.288-0.576-0.576-0.936-0.864
		c0.216-0.216,0.432-0.504,0.72-0.792c3.096,0.216,3.096,0.216,3.456,0.576c-0.072,0.288-0.144,0.648-0.216,1.008
		C19.512,319.392,18.504,319.392,17.496,319.464L17.496,319.464z M65.736,319.248c-0.144-0.288-0.288-0.576-0.432-0.864
		c0.144-0.144,0.288-0.36,0.432-0.576c1.512-0.288,3.024-0.648,4.608-1.008c0.216,0.216,0.432,0.432,0.72,0.648
		c0,0.288,0,0.576,0.072,0.936c-0.504,0.504-0.504,0.504-1.8,0.864C68.184,319.248,66.96,319.248,65.736,319.248L65.736,319.248z
		 M146.664,318.528c-0.216-0.144-0.432-0.36-0.648-0.576c0-0.288,0-0.648,0-1.008c0.36-0.36,0.72-0.72,1.08-1.152
		c1.512-0.432,3.024-0.864,4.608-1.368c0.432,0.072,0.936,0.144,1.44,0.216c0.144,0.216,0.288,0.432,0.432,0.648
		c-1.152,1.08-1.152,1.08-3.816,2.52C148.752,318.024,147.744,318.2401,146.664,318.528L146.664,318.528z M13.464,314.64
		c-0.144-0.216-0.288-0.504-0.504-0.792c0.216-0.288,0.432-0.576,0.72-0.864c2.88-0.216,4.32-0.72,6.48-0.936
		c0.216,0.216,0.216,0.216,1.944,0.432c0.288,0.432,0.288,1.152,0,1.44C18.216,314.424,18.216,314.424,13.464,314.64L13.464,314.64z
		 M1.44,314.424C0.216,313.92,0.216,313.92,0,313.56c0.504-0.576,0.504-0.576,1.944-1.08c2.16-0.072,4.32-0.144,6.48-0.288
		c-0.144,1.152-0.144,1.152-0.504,1.512C5.976,314.208,5.976,314.208,1.44,314.424L1.44,314.424z M139.68,313.704
		c-1.656-0.144-3.312-0.288-5.04-0.504c0-0.288-0.072-0.648-0.144-1.008c2.088-0.432,2.088-0.432,5.904-0.432
		c0.36,0.144,0.792,0.288,1.224,0.504c0,0.36,0,0.72,0.072,1.08C141.12,313.704,141.12,313.704,139.68,313.704L139.68,313.704z
		 M146.376,313.488c-0.288-0.072-0.576-0.216-0.864-0.36c0-0.288,0.072-0.576,0.144-0.936c0.432-0.144,0.936-0.288,1.44-0.432
		c1.08,0,2.232,0,3.384,0c0.216,0.144,0.432,0.288,0.72,0.504c0.0721,0.864,0.0721,0.864-0.216,1.224
		C149.472,313.488,147.96,313.488,146.376,313.488L146.376,313.488z M157.464,312.984c-0.72-0.072-1.44-0.144-2.16-0.216
		c-0.216-0.288-0.432-0.576-0.72-0.864c0.072-0.144,0.144-0.288,0.216-0.504c1.656,0,3.312,0,5.04-0.072
		c0.144,0.144,0.288,0.288,0.504,0.432c0,0.288,0,0.576-0.072,0.864C159.336,312.984,159.336,312.984,157.464,312.984
		L157.464,312.984z M26.64,312.48c-0.072-0.072-0.216-0.144-0.36-0.288c0-0.288,0.072-0.576,0.144-0.864
		c2.232-0.2159,4.464-0.4319,6.696-0.72c0.36,0.36,0.36,0.36,0.36,1.08c-0.36,0.36-0.36,0.36-3.24,0.792
		C29.088,312.48,27.864,312.48,26.64,312.48L26.64,312.48z M37.944,311.544c-0.432-0.36-0.432-0.36-0.432-1.296
		c0.432-0.36,3.312-0.864,4.752-0.864c0.216,0.216,0.216,0.216,3.312,0.216c0.144,0.288,0.288,0.576,0.504,0.864
		c-0.144,0.144-0.288,0.36-0.504,0.576C41.544,311.544,41.544,311.544,37.944,311.544L37.944,311.544z M53.496,310.32
		c-0.936-0.144-1.872-0.288-2.88-0.432c-0.072-0.288-0.216-0.576-0.36-0.864c0.576-0.144,1.152-0.36,1.8-0.576
		c6.768-0.504,6.768-0.504,8.208-0.288c0.576,0.648,0.576,0.648,0.576,1.368C60.264,309.8881,60.264,309.8881,53.496,310.32
		L53.496,310.32z M66.744,310.104c-0.504-0.864-0.504-0.864-0.288-1.224c1.512-0.288,3.024-0.576,4.608-0.936
		c0.936,0,1.944,0.072,2.952,0.144c0,0.504,0,1.08,0,1.656c-0.144,0.072-0.36,0.216-0.576,0.36
		C71.208,310.104,68.976,310.104,66.744,310.104L66.744,310.104z M81.36,309.6c-1.08-0.144-2.232-0.288-3.384-0.432
		c0-0.36-0.072-0.72-0.144-1.08c0.288-0.144,0.576-0.288,0.864-0.504c1.224,0.36,1.224,0.36,2.88,0.36
		c0.432-0.216,0.936-0.432,1.44-0.72c0.864,0,1.728,0,2.664-0.0721c0,0.72,0,1.44,0.072,2.16C85.176,309.6,85.176,309.6,81.36,309.6
		L81.36,309.6z M174.96,308.88c-4.32-0.936-4.32-0.936-4.536-1.296c0.36-0.36,0.72-0.72,1.152-1.08
		c2.88-0.0721,5.76-0.144,8.64-0.216c0.36,0.36,0.36,0.36,0.36,1.08c-0.576,0.504-2.016,0.792-2.952,1.512
		C176.76,308.88,175.896,308.88,174.96,308.88L174.96,308.88z M146.16,307.44c-1.152,0-2.376,0-3.6-0.072
		c-0.144-0.72-0.144-0.72-0.72-1.224c0.936-0.144,1.872-0.36,2.88-0.576c1.368,0.072,2.736,0.144,4.1039,0.216
		c0.216,0.144,0.432,0.36,0.72,0.576c0.0721,0.288,0.144,0.648,0.216,1.008C148.608,307.368,147.384,307.368,146.16,307.44
		L146.16,307.44z M157.68,307.44c-0.216-0.2159-0.216-0.2159-1.656-0.288c0-0.36-0.072-0.792-0.144-1.224
		c2.88,0,5.832-0.072,8.784-0.144c0.288,0.36,0.576,0.72,0.936,1.08c-0.504,0.36-0.504,0.36-1.6559,0.576
		C161.856,307.44,159.768,307.44,157.68,307.44L157.68,307.44z M186.696,306.72c-1.224-0.072-2.448-0.144-3.744-0.288
		c0-0.216,0-0.432-0.072-0.72c1.44-0.432,2.88-0.432,6.264-1.584c0.216-0.288,0.216-0.288,4.32-0.144
		c-0.36,0.576-0.792,1.152-1.224,1.8C187.704,306.72,187.704,306.72,186.696,306.72L186.696,306.72z M201.384,303.84
		c-0.648-0.144-1.296-0.288-1.944-0.432c0-0.36-0.072-0.72-0.144-1.08c2.304-0.36,3.024-0.864,7.56-1.584
		c1.44,0.216,1.44,0.216,1.8,0.648c0,0.216,0,0.432,0,0.72c-0.504,0.288-1.008,0.576-1.584,0.936
		c-0.936,0.072-1.872,0.216-2.808,0.36c-0.144,0.144-0.288,0.288-0.504,0.432C202.968,303.84,202.176,303.84,201.384,303.84
		L201.384,303.84z M217.224,303.624c-2.16-0.504-2.16-0.504-4.824-0.504c-0.216-0.216-0.432-0.504-0.72-0.792
		c0.144-0.2159,0.288-0.4319,0.504-0.648c1.008-0.144,2.016-0.288,3.096-0.432c1.152,0.072,2.376,0.144,3.6,0.216
		c0.288,0.144,0.576,0.288,0.936,0.504c0,0.36,0.072,0.72,0.144,1.08C219.384,303.408,219.384,303.408,217.224,303.624
		L217.224,303.624z M103.176,282.96c-3.744-5.832-3.744-5.832-6.12-10.368c-0.0721-0.72-0.216-1.44-0.36-2.16
		c1.008,0,2.088,0,3.168,0.0721c0.072-1.08,0.072-1.08-0.288-1.44c-1.008-0.288-2.016-0.576-3.096-0.936
		c-0.36-1.296-0.36-1.296-0.216-3.888c1.656,0.288,1.656,0.288,2.7361,0.144c0-0.288,0-0.576,0-0.936
		c-0.216-0.144-0.432-0.288-0.648-0.504c-0.864-0.144-1.728-0.2881-2.592-0.432c0.0721-0.936,0.144-1.872,0.216-2.808
		c1.368,0.072,2.736,0.216,4.104,0.36c-0.072-0.36-0.144-0.72-0.288-1.152c-1.872-0.864-1.872-0.864-3.312-1.224
		c0.0721-2.16,0.0721-2.16,0.504-3.024c0.432,0,0.936,0,1.44,0c0.936,0.504,0.936,0.504,1.872,0.504
		c0.072-0.072,0.144-0.216,0.288-0.36c-1.008-1.368-1.008-1.368-1.728-1.8c-0.72,0-1.44-0.0721-2.16-0.144
		c-0.36-3.096-0.36-3.096-0.216-5.76c0.72-0.144,2.376,0.36,3.672,0.288c-0.216-1.008-0.216-1.008-0.576-1.368
		c-1.08-0.216-2.16-0.504-3.312-0.792c0.144-1.872,0.2881-3.816,0.432-5.76c1.224,0.288,1.224,0.288,4.608,0.432
		c-0.144-0.936-0.144-0.936-0.504-1.296c-0.936-0.288-0.936-0.288-3.6-0.36c0.144-1.08,0.288-2.232,0.504-3.384
		c2.376,0.144,3.096,0.576,3.672,0.504c-0.072-0.432-0.144-0.936-0.216-1.44c-1.584-0.864-1.584-0.864-2.304-0.936
		c0.216-0.792,0.432-1.584,0.72-2.448c1.944-0.144,1.944-0.144,3.384,0.144c0.072-0.864,0.072-0.864-0.216-1.44
		c-0.72-0.288-1.44-0.576-2.232-0.864c-0.36-2.16-0.36-2.16-0.216-2.376c1.008-0.144,1.008-0.144,2.16,0.072
		c0.144-1.008,0.144-1.008-0.216-1.44c-0.36,0-0.792,0-1.224-0.072c0.072-1.8,0.216-3.672,0.36-5.544
		c0.432-0.144,0.864-0.36,1.368-0.576c2.376,0,3.096-0.288,5.256-0.36c0,2.376,0,4.752,0.072,7.2
		c-0.288,1.944-0.576,3.96-0.936,5.976c-0.072,2.376-0.144,4.752-0.216,7.2c-0.288,2.376-0.6479,4.752-1.008,7.2
		c0.072,2.232,0.144,4.464,0.288,6.768c0.216,1.2961,0.432,2.664,0.72,4.032c0,1.656,0,3.312,0,5.04
		c-0.504,3.168-1.008,4.32-2.88,14.184c-0.072,2.376-0.144,4.752-0.288,7.2C103.392,283.104,103.392,283.104,103.176,282.96
		L103.176,282.96z M96.984,278.64c-0.288-0.072-0.288-0.072-1.008-1.728c-0.36-0.072-0.72-0.144-1.152-0.288
		c0.432-1.44,0.432-1.44,0.7921-1.656c0.6479,1.008,1.296,2.016,1.944,3.096C97.416,278.208,97.2,278.424,96.984,278.64
		L96.984,278.64z M93.384,271.2241c-0.36-0.216-0.72-0.5041-1.152-0.7921c0-0.72,0-0.72,0.504-1.224
		c0.864-0.144,0.864-0.144,1.224,0.216c0,0.576,0,1.152,0,1.728C93.6,271.368,93.6,271.368,93.384,271.2241L93.384,271.2241z
		 M92.664,265.968c-0.648-0.432-1.296-0.936-1.944-1.44c0.216-0.288,0.216-0.288,1.44-0.288c0.432,0.288,0.864,0.576,1.296,0.864
		c0,0.288,0,0.576-0.072,0.864C93.168,265.968,92.952,265.968,92.664,265.968L92.664,265.968z M92.376,259.92
		c-0.936-1.44-0.936-1.44-2.16-2.376c0-0.36-0.072-0.72-0.144-1.08c0.504-0.432,0.504-0.432,2.88-6.696
		c0.288-0.072,0.576-0.144,0.864-0.216c0.36,3.6,0.36,3.6,0.144,6.912c-0.216,1.008-0.432,2.088-0.72,3.168
		C92.592,260.0641,92.592,260.0641,92.376,259.92L92.376,259.92z M88.344,250.56c-0.72-0.576-1.224-1.44-2.88-2.736
		c0.144-0.144,0.288-0.36,0.432-0.576c0.36,0,0.792,0,1.224,0c1.224,0.936,1.224,0.936,1.656,1.8c0,0.432,0.072,0.936,0.144,1.44
		C88.56,250.704,88.56,250.704,88.344,250.56L88.344,250.56z M32.616,239.04c-1.872-0.432-1.872-0.432-2.88-0.936
		c-0.936-1.08-0.936-1.08-1.8-2.736c0-0.936,0-1.872,0-2.88c4.824-3.8159,4.824-3.8159,13.896-11.736
		c2.808-2.736,5.616-5.472,8.424-8.208c0.288-0.072,0.576-0.144,0.864-0.216c0.216,3.096,0.504,6.192,0.792,9.36
		c0.216,1.08,0.432,2.232,0.72,3.384c-0.936,1.44-1.656,1.872-2.592,3.6c-2.16,1.944-4.32,3.96-6.48,5.976
		c-2.808,1.944-2.808,1.944-6.12,3.816C36.216,238.824,36.216,238.824,32.616,239.04L32.616,239.04z M90,237.6
		c-0.576-0.432-1.152-0.864-1.8-1.296c0-0.288,0.0721-0.576,0.144-0.864c0.36,0,0.72,0,1.152,0c0.36,0.288,0.72,0.576,1.08,0.864
		c0,0.36,0,0.792,0,1.224C90.216,237.744,90.216,237.744,90,237.6L90,237.6z M94.32,233.0641c-0.936-1.224-0.936-1.224-2.88-2.7361
		c0.072-0.072,0.144-0.216,0.216-0.36c1.008,0.216,1.008,0.216,2.448,1.152c0.288,0.288,0.576,0.648,0.936,1.008
		c0,0.288,0,0.576,0.0721,0.864C94.896,232.992,94.608,232.992,94.32,233.0641L94.32,233.0641z M18.936,231.768
		c0-1.152,0.072-2.376,0.144-3.5999c1.368-1.512,2.736-3.096,4.176-4.6801c0.216,0,0.432,0,0.72,0.072
		c-0.576,1.512-1.152,3.024-1.8,4.608c-0.792,1.08-1.584,2.232-2.376,3.3839C19.512,231.6241,19.224,231.696,18.936,231.768
		L18.936,231.768z M95.976,230.4c-0.576-0.504-1.224-1.008-1.872-1.512c0.144-0.072,0.288-0.216,0.432-0.36
		c1.224,0.432,1.224,0.432,1.728,0.936c0,0.288,0,0.576,0.0721,0.864C96.264,230.328,96.12,230.328,95.976,230.4L95.976,230.4z
		 M54.504,222.048c-0.432-3.24-0.432-3.24-0.432-8.064c0.144-0.72,0.288-1.44,0.504-2.16c0.792-0.576,1.584-1.224,2.376-1.872
		c1.296-2.016,2.592-4.032,3.888-6.048c0.432-1.08,0.864-2.232,1.296-3.384c0.288,0,0.576,0,0.864,0.072
		c-0.144,1.44-0.288,2.88-0.504,4.32c0.504,0.72,0.504,0.72,1.368,1.296c1.152-0.288,1.152-0.288,2.016-1.08
		c0.576-3.168,1.224-6.336,1.872-9.576c0.432-1.296,0.936-2.592,1.44-3.888c0.36,0,0.72,0,1.152,0
		c0.072,2.448,0.072,2.448-0.432,7.92c-0.936,4.104-0.936,4.104-1.44,8.928c0.504,0.72,0.504,0.72,1.152,1.008
		c0.36-0.072,0.72-0.144,1.152-0.216c0.144-0.144,0.288-0.36,0.504-0.576c0.216-1.656,0.504-3.312,0.792-5.04
		c0.288-1.008,0.648-2.016,1.008-3.096c0.432-4.32,0.432-4.32,0.936-6.768c0.288-0.144,0.576-0.288,0.864-0.432
		c-0.648,5.76-0.648,5.76-0.648,7.92c0.432,0.36,0.864,0.72,1.368,1.152c0.288-0.072,0.576-0.216,0.936-0.36
		c0.288-0.36,0.576-0.72,0.864-1.08c0.936-6.192,0.936-6.192,1.872-9.792c0.288-0.576,0.648-1.152,1.008-1.728
		c0.36-0.0721,0.72-0.144,1.08-0.216c-0.288,1.584-0.576,3.168-0.864,4.824c-0.288,0.576-0.576,1.224-0.936,1.872
		c0.072,0.648,0.144,1.2961,0.216,1.944c0.144,0.144,0.36,0.288,0.576,0.504c0.576,0.0721,1.152,0.144,1.728,0.216
		c-0.072,0.432-0.216,0.936-0.36,1.44c-0.648,0.72-1.296,1.44-1.944,2.16c-0.144,0.36-0.288,0.792-0.504,1.224
		c-4.032,3.816-4.032,3.816-5.04,5.256c-3.456,1.8-4.608,2.736-8.712,4.68c-3.312,2.88-6.696,5.76-10.08,8.64
		C55.152,222.048,54.864,222.048,54.504,222.048L54.504,222.048z M34.56,219.312c0-0.216,0-0.432,0.072-0.72
		c0.648-0.792,1.296-1.584,1.944-2.448c0.576-0.432,1.152-0.864,1.8-1.296c0.216,0,0.432,0,0.72,0.072
		c0.072,0.72,0.216,1.44,0.36,2.232c-0.792,0.576-1.656,1.152-2.52,1.728C36.144,219.024,35.352,219.1681,34.56,219.312
		L34.56,219.312z M102.96,216.0001c0-0.216-0.072-0.5041-0.144-0.7921c0.936-1.44,0.936-1.44,3.096-3.384
		c0.576-0.432,1.224-0.864,1.872-1.296c0.288,0,0.576-0.072,0.936-0.144c-0.072,1.296-0.216,2.592-0.36,3.888
		c-0.504,0.936-0.504,0.936-1.08,1.2961C105.336,216.0001,105.336,216.0001,102.96,216.0001L102.96,216.0001z M100.08,212.184
		c-2.664-0.936-2.664-0.936-4.32-1.944c-0.36-0.504-0.792-1.08-1.224-1.656c-0.72-0.144-1.44-0.288-2.16-0.504
		c-2.592-1.872-2.592-1.872-4.032-2.376c-0.648-0.072-1.296-0.144-1.944-0.216c-0.288,0.216-0.576,0.432-0.936,0.72
		c-1.872,0.576-3.816,1.152-5.76,1.8c0.072-0.36,0.144-0.7921,0.288-1.224c1.224-0.936,1.224-0.936,3.168-3.096
		c1.872-2.664,1.872-2.664,3.816-6.264c1.008-1.152,2.016-2.376,3.096-3.6c2.52-1.872,2.52-1.872,5.904-3.816
		c4.104-0.864,10.8-1.8,12.2401-2.304c5.7599-3.816,5.7599-3.816,8.208-5.7599c1.224-1.44,2.52-2.88,3.816-4.32
		c0.936-0.792,1.872-1.584,2.88-2.376c0.288-0.432,0.576-0.864,0.936-1.368c0.864-0.648,1.728-1.296,2.664-2.016
		c11.016-5.256,11.016-5.256,12.456-6.264c1.224-1.872,2.448-3.744,3.744-5.616c1.584-2.88,3.168-5.7599,4.752-8.64
		c0.648-1.944,1.296-3.96,1.944-5.976c0.504-3.6,0.504-3.6,3.384-15.12c0.432-1.152,0.936-2.376,1.44-3.6c0-0.432,0-0.936,0-1.44
		c-0.648-0.504-0.648-0.504-2.0161-0.6479c-6.768,8.784-6.768,8.784-10.584,13.248c-1.584,1.224-3.168,2.52-4.824,3.816
		c-0.36,0.072-0.72,0.216-1.152,0.36c0.072-0.864,0.144-1.728,0.288-2.592c0.648-1.152,1.296-2.376,1.944-3.6
		c-0.072-0.432-0.144-0.936-0.216-1.44c-0.576-0.432-0.576-0.432-1.8-0.432c-0.648,0.792-1.296,1.584-1.944,2.448
		c-0.864,2.016-1.8,4.032-2.736,6.12c-0.144,0.72-0.288,1.44-0.504,2.16c-0.288,0.432-0.576,0.936-0.936,1.44
		c-1.584,1.224-3.24,2.448-4.896,3.672c-0.288,0-0.648,0.072-1.008,0.144c0.288-1.2961,0.576-2.664,0.864-4.032
		c0.864-1.8,1.728-3.672,2.592-5.544c-0.072-0.504-0.144-1.08-0.216-1.656c-0.144-0.144-0.36-0.288-0.576-0.432
		c-0.432,0-0.936,0-1.44,0c-0.216,0.216-0.432,0.432-0.72,0.648c-2.0161,4.464-4.032,8.928-6.12,13.464
		c-1.08,0.576-1.08,0.576-2.5201,0.72c0.792-2.16,1.2961-2.88,1.8-4.824c0.936-1.656,2.8799-6.48,3.5999-7.704
		c0-0.288,0-0.576,0-0.936c-0.288-0.36-0.576-0.72-0.864-1.08c-0.432,0-0.936,0-1.44,0c-1.872,2.952-2.736,4.896-4.68,8.064
		c-1.944,4.032-1.944,4.032-2.88,6.696c-1.44,1.656-1.44,1.656-1.944,2.664c-0.432,0.288-0.864,0.576-1.296,0.936
		c0-0.288-0.072-0.576-0.144-0.936c0.432-0.936,0.936-1.872,1.44-2.88c0-0.36,0-0.792,0-1.224c0.792-2.088,1.584-4.176,2.448-6.264
		c-0.288-1.152-0.288-1.152-0.72-1.656c-0.504,0-1.008-0.072-1.584-0.144c-0.936,1.44-1.872,2.88-2.88,4.3199
		c-1.224,3.312-2.448,6.624-3.744,10.008c-0.432,0.144-0.864,0.288-1.296,0.432c0.864-2.592,1.8-5.256,2.736-7.92
		c0.432-0.864,0.936-1.728,1.44-2.592c-0.216-1.944-0.216-1.944-0.576-2.304c-0.504,0.072-1.08,0.144-1.656,0.216
		c-1.8,2.52-1.8,2.52-2.808,4.68c-0.432,1.728-0.72,1.944-1.656,4.824c-0.432,0.792-0.936,1.584-1.44,2.376
		c-0.072,0.36-0.144,0.792-0.216,1.224c-1.224,0.936-2.16,2.16-3.024,2.664c-0.144-1.008,0.36-2.448,0.36-3.384
		c-0.36-0.36-0.72-0.792-1.08-1.224c-0.504,0.288-1.08,0.576-1.6559,0.936c-1.8,3.384-2.808,6.264-4.68,9.864
		c-0.504,0.504-1.008,1.008-1.584,1.584c-1.08,0.288-2.16,0.576-3.312,0.936c-2.592,1.584-5.256,3.168-7.92,4.824
		c-1.728,0.432-1.728,0.432-2.808,0.36c0-0.216,0-0.432,0-0.72c1.08-0.936,4.32-2.88,7.2-5.256c0.144-0.36,0.288-0.792,0.504-1.224
		c0.864-0.648,1.728-1.296,2.592-1.944c0.288-0.576,0.648-1.224,1.008-1.872c0.72-0.72,1.44-1.44,2.16-2.16
		c0.288-0.576,0.576-1.1519,0.936-1.728c0.936-0.576,1.872-1.152,2.808-1.8c4.752-4.104,4.752-4.104,5.7599-4.536
		c0.432-0.576,0.864-1.152,1.2961-1.8c0.072-0.864,0.144-1.728,0.216-2.664c3.24-3.096,3.24-3.096,5.04-4.32
		c0.288-0.72,0.576-1.44,0.936-2.16c1.728-1.296,3.456-2.592,5.184-3.96c1.44-0.072,2.88-0.144,4.3199-0.216
		c2.16-1.44,2.16-1.44,4.608-2.448c1.152-0.288,2.376-0.576,3.6-0.936c1.8,0,3.6,0,5.472,0c1.152-0.288,2.376-0.576,3.6-0.936
		c7.488-3.888,7.488-3.888,13.68-7.7039c3.384-2.88,3.384-2.88,4.32-4.1761c0.576-1.224,1.152-2.52,1.8-3.8159
		c0.6479-0.864,1.296-1.728,1.944-2.664c0-0.288,0-0.576,0-0.936c-0.576-0.432-0.576-0.432-1.584-0.432
		c-0.576,0.792-1.224,1.584-1.872,2.448c-1.656,1.296-3.312,2.664-5.04,4.032c-5.76,2.88-5.76,2.88-10.368,5.76
		c-2.88,1.008-5.04,1.44-6.192,1.944c-5.544,0.216-5.544,0.216-7.632-0.072c0.144-2.016,0.288-4.032,0.504-6.048
		c-0.216-0.288-0.432-0.576-0.72-0.936c0.072-0.36,0.216-0.72,0.36-1.08c0.36-0.144,0.792-0.288,1.224-0.504c0.936,0,1.872,0,2.88,0
		c1.656,0.936,1.656,0.936,3.816,2.88c0.792-0.0721,1.584-0.144,2.448-0.216c2.592-1.944,2.592-1.944,5.04-3.384
		c0.216-0.432,0.504-0.864,0.7921-1.296c-0.072-0.504-0.144-1.08-0.216-1.656c-0.72-0.504-0.72-0.504-2.304-0.864
		c-1.872,0.36-3.8159,0.72-5.7599,1.152c-0.36-0.072-0.72-0.144-1.152-0.216c-0.432-0.432-0.864-0.864-1.368-1.296
		c0-0.36,0-0.792,0-1.224c2.16-1.872,2.16-1.872,3.384-3.312c0-1.008,0-1.008-0.36-1.368c-0.504,0.072-1.08,0.144-1.656,0.216
		c-0.36,0.288-0.792,0.648-1.224,1.008c-0.936,0.288-1.872,0.576-2.88,0.936c-1.944-0.216-2.376-0.504-3.816-0.504
		c-1.728,1.008-1.728,1.008-4.104,1.944c-1.656,0.216-1.656,0.216-5.256-0.216c-0.288-0.072-0.576-0.216-0.864-0.36
		c-0.144-0.432-0.288-0.936-0.504-1.44c0.072-0.36,0.144-0.792,0.216-1.224c3.528-2.52,7.128-5.04,10.728-7.56
		c2.16-0.936,4.32-1.872,6.48-2.88c5.04-0.936,5.04-0.936,9.144-1.224c3.024,0.144,6.048,0.288,9.0721,0.504
		c1.872-0.072,3.816-0.144,5.76-0.216c0.432-0.144,0.936-0.288,1.44-0.504c1.224,0.216,1.224,0.216,3.168,0
		c0.432-0.504,0.432-0.504,1.44-0.936c0.36,0,0.72,0,1.152,0c0.216,0.216,0.432,0.504,0.72,0.7921
		c1.8,7.9919,1.8,7.9919,2.736,13.752c0.648,1.872,1.296,3.816,1.944,5.76c0.648,0.864,1.296,1.728,2.016,2.592
		c3.024,1.944,4.392,2.52,4.608,2.88c-3.816,6.84-3.816,6.84-4.248,7.2c-5.256,11.52-5.256,11.52-7.2,15.12
		c-0.936,2.88-1.872,4.824-2.376,6.768c-0.504,0.72-2.376,6.912-2.88,9.36c-1.224,1.944-2.52,3.96-3.816,5.976
		c-5.328,6.264-6.048,6.696-6.984,7.92c-4.824,3.816-4.824,3.816-10.44,7.704c-0.288,0.072-0.576,0.144-0.936,0.288
		c-2.304,1.872-4.608,3.816-6.984,5.76c-1.296,1.44-2.664,2.88-4.032,4.32c-0.432,0.144-0.936,0.288-1.44,0.504
		c-0.648,0.864-1.296,1.8-1.944,2.736c-0.576,1.224-1.152,2.448-1.8,3.672c-1.296,2.016-2.592,4.104-3.96,6.192
		c-2.88,1.944-2.88,1.944-5.1841,3.888c-0.432,0.504-0.864,1.008-1.296,1.512C101.088,212.184,100.584,212.184,100.08,212.184
		L100.08,212.184z M56.16,204.6241c0-1.08-0.072-2.16-0.144-3.312c0.432-1.872,0.936-3.816,1.44-5.76
		c0.936-1.152,1.872-2.304,2.808-3.528c0.216,0,0.432,0,0.72-0.072c-0.288,1.296-0.576,2.664-0.864,4.032
		c-2.88,7.488-2.88,7.488-3.744,8.928C56.304,204.84,56.232,204.768,56.16,204.6241L56.16,204.6241z M47.304,204.192
		c0.072-0.72,0.144-1.44,0.288-2.16c1.008-2.304,2.088-4.608,3.168-6.984c0-0.432,0-0.936,0-1.44
		c-0.144-0.216-0.288-0.432-0.504-0.72c-0.432,0-0.864-0.072-1.296-0.144c-0.288,0.144-0.576,0.288-0.936,0.504
		c-1.872,3.744-1.872,3.744-3.744,6.624c-0.792,0.936-1.584,1.872-2.448,2.88c-0.216,0.072-0.504,0.144-0.792,0.216
		c0.216-1.08,0.504-2.232,0.792-3.384c2.088-4.464,4.176-8.928,6.264-13.392c0.288-1.584,0.576-3.168,0.936-4.824
		c0.792-1.8,1.584-3.672,2.448-5.544c0.288-1.728,0.576-3.456,0.936-5.256c0.648-1.152,1.296-2.376,1.944-3.6
		c0.432-6.696,0.432-6.696,0.936-8.856c0.648-1.656,1.296-3.312,1.944-5.04c1.08-3.816,2.16-7.632,3.312-11.52
		c1.44-1.728,1.44-1.728,6.12-5.7599c2.016-1.44,4.032-2.952,6.048-4.4641c0.72,0,0.72,0,1.08,0.36c0,0.36,0,0.792,0,1.224
		c-0.504,0.72-0.504,0.72-0.72,2.16c0.432,1.152,0.432,1.152,1.08,1.656c0,0.504-0.072,1.08-0.144,1.656
		c-0.432,0.72-0.936,1.44-1.44,2.16c-0.504,1.944-0.504,1.944-0.504,2.88c0.144,0.144,0.288,0.36,0.432,0.576
		c0.792,0.144,1.584,0.288,2.376,0.4319c-0.072,0.288-0.216,0.576-0.36,0.936c-4.608,3.816-4.608,3.816-5.544,5.04
		c-0.216,2.376,0,2.664-0.216,4.104c-1.296,0.936-2.592,1.872-3.888,2.88c-0.288,0.576-0.576,1.224-0.936,1.872
		c-0.648,0.72-1.296,1.44-1.944,2.16c-3.888,1.8-3.888,1.8-5.04,2.664c0,0.72,0,1.44,0,2.16c0.504,0.936,0.504,0.936,1.152,1.296
		c0.432,0.072,0.936,0.144,1.44,0.216c1.08-0.144,2.16-0.36,3.312-0.576c-0.36,2.16-0.36,2.16-0.864,3.168
		c-0.864,0.576-1.728,1.224-2.592,1.872c-0.504,1.008-0.504,1.008-0.504,2.448c0.072,0.144,0.216,0.36,0.36,0.576
		c0.648,0.144,1.296,0.36,1.944,0.576c-2.88,2.016-2.88,2.016-5.184,4.32c-0.504,5.04-0.504,5.04-0.504,7.92
		c-0.288,1.1519-0.576,2.376-0.936,3.6c0,0.648,0,1.296,0,1.944c-0.648,1.44-1.296,2.88-1.944,4.32
		c-1.872,2.88-1.872,2.88-3.816,5.256C48.312,203.472,47.808,203.832,47.304,204.192L47.304,204.192z M83.016,197.208
		c0.288-1.656,0.648-3.312,1.008-5.0399c0.288,0.072,0.576,0.144,0.936,0.216c0.216,0.288,0.504,0.648,0.792,1.008
		c-0.072,0.36-0.144,0.72-0.216,1.152C83.592,196.992,83.592,196.992,83.016,197.208L83.016,197.208z M29.736,195.048
		c4.176-11.52,4.68-12.24,8.28-21.816c3.816-7.704,3.816-7.704,6.696-12.744c0.288,0,0.576-0.072,0.864-0.144
		c0,0.792,0.072,1.656,0.144,2.52c-0.288,1.08-0.648,2.232-1.008,3.384c-2.88,6.264-2.88,6.264-7.632,15.12
		c-0.72,2.88-0.72,2.88-2.664,7.416c-1.224,1.872-2.52,3.816-3.816,5.76C30.312,194.688,30.024,194.832,29.736,195.048
		L29.736,195.048z M88.056,190.7281c0.288-1.8,0.576-3.672,0.864-5.544c0.288-0.936,0.576-1.872,0.936-2.88
		c0.288-0.072,0.576-0.144,0.864-0.216c0,2.376-0.072,4.752-0.144,7.2C89.784,189.72,88.92,190.2241,88.056,190.7281
		L88.056,190.7281z M93.816,187.3441c-0.144-1.152-0.144-1.152,0.864-7.2c0.072-0.288,0.216-0.576,0.36-0.864
		c0.216,0,0.504,0.072,0.7921,0.144c-0.0721,1.656-0.144,3.312-0.216,5.04c0.288,0.288,0.576,0.576,0.864,0.864
		c0.36,0,0.7921,0,1.224,0c0.432-0.72,0.432-0.72,1.152-4.464c0.216,0,0.432,0,0.72,0c0.36,1.224,0.36,1.224,0.864,1.728
		c0.432,0,0.864,0,1.296,0.072c0.288-0.432,0.576-0.864,0.864-1.296c0.144-1.224,0.36-2.52,0.576-3.816
		c0.936,0.0721,1.872,0.144,2.88,0.288c0.432-0.792,0.864-1.584,1.296-2.448c0.864-0.144,1.584,0.072,4.752-0.144
		c2.376-2.592,4.752-5.256,7.2-7.92c0.576-0.288,1.224-0.576,1.872-0.864c0,1.296-0.072,2.592-0.144,3.888
		c1.008,1.152,1.008,1.152,1.008,1.656c-4.104,4.104-4.104,4.104-6.048,6.4799c-2.376,1.872-4.824,3.816-7.272,5.76
		c-0.936,0.432-1.872,0.864-2.88,1.296C99.576,186.48,94.824,187.488,93.816,187.3441L93.816,187.3441z M124.344,169.1281
		c0.072-0.864,0.144-1.728,0.216-2.664c0.216,0,0.432,0,0.72,0c0.072,1.008,0.36,1.44,0.216,2.52
		C125.136,168.984,124.776,169.056,124.344,169.1281L124.344,169.1281z M46.584,168.912c0.432-1.872,0.864-3.816,1.296-5.76
		c0.216-4.824,0.216-4.824,0-6.48c0.288-0.72,0.576-1.44,0.936-2.16c1.728-2.304,3.456-4.608,5.256-6.984
		c0.288-0.072,0.576-0.144,0.864-0.216c-0.36,2.16-0.864,3.312-1.296,5.76c-1.008,2.376-1.008,2.376-1.944,5.976
		c-1.44,3.096-2.88,6.192-4.32,9.36C47.16,168.552,46.872,168.696,46.584,168.912L46.584,168.912z M128.664,166.968
		c0.792-4.32,0.792-4.32,1.872-8.424c0.288,0.072,0.576,0.144,0.864,0.288c0.072,1.152,0.144,2.376,0.216,3.6
		c0.144,0.216,0.288,0.432,0.504,0.72c0.504,0,1.008,0,1.584,0.0721c0.432-0.576,0.432-0.576,1.656-6.1201
		c0.432,0.072,0.936,0.216,1.44,0.36c0.216,0.936,0.504,1.872,0.792,2.808c0.504,0.432,0.504,0.432,0.72,1.152
		c-0.288,0.576-0.576,1.152-0.936,1.728c-1.584,0.864-3.24,1.8-4.896,2.736C129.816,166.824,129.816,166.824,128.664,166.968
		L128.664,166.968z M168.48,120.528c-3.6-1.944-3.6-1.944-4.824-2.88c-0.288-0.504-0.576-1.008-0.864-1.584
		c-0.576-2.16-1.224-4.32-1.872-6.48c-0.504-3.6-0.504-3.6-1.944-10.296c-0.936-2.88-0.936-2.88-1.944-4.536
		c0-0.288,0-0.648,0-1.008c1.944-3.096,1.944-3.096,3.888-7.416c0.288-1.8,0.576-3.672,0.936-5.5439
		c0.072-1.512,0.144-3.024,0.216-4.5361c-0.36-3.312-0.72-6.696-1.152-10.08c-0.6479-1.728-1.296-3.456-1.944-5.256
		c-3.8159-6.264-3.8159-6.264-7.7039-11.808c-0.144-1.008-0.2881-2.016-0.432-3.096c-0.288-0.936-0.648-1.872-1.008-2.8801
		c-0.216-3.816,0-6.4799-0.432-10.08c0.072-1.08,0.144-2.232,0.216-3.3839c0.6479-1.656,1.296-3.312,1.944-5.04
		c0.576-1.08,1.224-2.16,1.872-3.312c4.824-4.608,4.824-4.608,7.128-6.48c0.936-0.6481,1.944-1.296,2.952-1.944
		c0.504-0.0721,1.008-0.2161,1.584-0.36c6.768,0.2159,6.768,0.2159,10.08,0.72c2.304,1.224,4.608,2.52,6.984,3.8159
		c0.72,0.6481,1.4399,1.296,2.16,1.9441c0.288,0.504,0.576,1.008,0.936,1.512c0.288,0.936,0.576,1.944,0.864,2.952
		c0,0.504,0,1.08,0,1.6559c-0.432,1.152-0.936,2.376-1.44,3.6c-0.288,0-0.576,0-0.864,0.072c-0.72-0.576-1.512-1.152-2.304-1.728
		c-0.144-1.584-0.288-3.168-0.432-4.824c-1.944-2.88-1.944-2.88-3.168-4.104c-0.216-0.072-0.504-0.2161-0.792-0.36
		c-0.504,0.072-1.08,0.1439-1.656,0.2159c-0.432,0.36-0.936,0.7921-1.44,1.2241c-0.432,0.7199-0.864,1.5119-1.368,2.304
		c-0.072,0.936-0.144,1.8719-0.216,2.8799c0.144,0.432,0.288,0.936,0.432,1.44c1.008,1.224,1.008,1.224,1.584,1.512
		c1.224,0.144,2.448,0.2881,3.744,0.4321c0.144,0.504,0.288,1.08,0.432,1.656c0.576,0.648,1.152,1.296,1.728,1.944
		c0,0.216,0,0.432,0,0.72c-1.584,0.792-1.584,0.792-3.744,2.736c-0.936,1.8-0.936,1.8-1.8,4.464
		c0.216,4.1041,0.432,8.28,0.72,12.4561c0.936,5.256,1.944,9.144,3.384,16.776c0.288,3.168,0.576,6.408,0.936,9.6479
		c0,4.32,0,8.64,0,12.96c-0.288,2.16-0.576,4.32-0.936,6.48c-1.944,8.352-1.944,8.352-2.88,10.8
		c-1.584,3.096-3.168,6.192-4.8239,9.36C168.696,120.672,168.696,120.672,168.48,120.528L168.48,120.528z M253.44,102.528
		c-0.864-0.144-1.728-0.288-2.664-0.504c-9.0721-7.92-9.0721-7.92-13.896-11.736c-8.424-8.424-8.424-8.424-24.696-25.92
		c-4.608-4.3201-4.608-4.3201-12.528-12.528c-3.816-5.112-3.816-5.112-4.752-6.84c-7.92-8.712-7.92-8.712-8.568-9.072
		c0-0.2159,0-0.432,0-0.7199c1.1519-0.792,2.304-1.584,3.456-2.376c0.648,0,1.296-0.072,1.944-0.144
		c2.448,2.6641,4.968,5.4001,7.488,8.136c0.792,1.3679,4.896,5.688,12.816,15.048c2.16,1.8719,4.32,4.3199,5.04,4.752
		c1.872,2.376,3.816,4.752,5.76,7.2c1.656,1.44,2.592,2.88,10.8,12.24c2.16,1.9439,3.096,3.168,5.256,5.04
		c1.224,1.512,2.52,3.024,3.816,4.608c8.64,8.352,8.64,8.352,12.528,12.456c0,0.072-0.072,0.216-0.144,0.36
		C254.592,102.528,254.016,102.528,253.44,102.528L253.44,102.528z M243.864,100.368c-1.656-0.648-3.312-1.296-5.04-1.944
		c-3.456-1.872-6.912-3.816-10.368-5.76c-0.792-0.6479-1.584-1.296-2.376-1.944c-4.392-2.52-8.784-5.04-13.176-7.632
		c-8.64-6.7679-10.368-7.704-12.744-9.864c-0.432-0.2881-0.936-0.576-1.44-0.936c-4.536-4.68-4.536-4.68-5.04-5.544
		c-1.584-1.368-3.168-2.736-4.824-4.1039c-0.864-1.0081-1.728-2.0161-2.592-3.096c-0.576-0.3601-1.152-0.72-1.728-1.08
		c-1.872-2.304-1.872-2.304-3.312-3.384c-0.216-2.592-0.432-5.184-0.648-7.848c1.944-5.5441,1.944-5.5441,3.816-9.648
		c0.36,0,0.72,0,1.152,0c1.224,1.8,2.5201,3.5999,3.816,5.4c7.704,9.144,7.704,9.144,16.344,18.504
		c1.44,1.4399,2.88,2.88,4.32,4.3199c3.888,4.4641,7.776,8.928,11.736,13.392c8.136,7.92,8.136,7.92,12.024,12.24
		c2.52,2.232,5.0399,4.464,7.632,6.768c0.648,0.144,1.296,0.288,1.944,0.432c0.216,0.288,0.504,0.576,0.792,0.864
		C244.152,100.2241,244.152,100.2241,243.864,100.368L243.864,100.368z M145.656,40.1041c-0.288-0.36-0.576-0.72-0.864-1.08
		c-0.288-0.864-0.576-1.728-0.936-2.592c-0.504-2.736-1.08-5.472-1.656-8.2079c0-1.2241,0-2.52,0-3.816
		c0.288-2.376,0.576-4.752,0.936-7.2c0.936-2.88,0.936-2.88,1.944-4.5361c1.296-1.4399,2.664-2.8799,4.032-4.3199
		c1.8-1.2241,3.6-2.448,5.472-3.744c2.448-0.576,4.896-1.152,7.416-1.728c1.872,0,3.816,0,5.7599,0
		c2.16,0.648,4.32,1.296,6.48,1.944c1.08,0.648,2.232,1.296,3.384,1.944c1.872,1.872,1.872,1.872,4.752,5.76
		c0.144,0.864,0.144,0.864-0.144,1.08c-1.008-0.72-2.088-1.512-3.168-2.304c-2.952-0.504-5.904-1.08-8.928-1.656
		c-2.016,0-4.104,0-6.192,0c-1.296,0.576-2.592,1.224-3.888,1.8719c-3.312,2.448-4.32,2.88-6.48,4.824
		c-0.936,1.1519-1.872,2.376-2.88,3.5999c-1.8,3.5281-1.8,3.5281-4.176,9.7201c0.072,3.24,0.144,6.552,0.216,9.864
		c-0.072,0.1439-0.216,0.36-0.36,0.576C146.16,40.1041,145.944,40.1041,145.656,40.1041L145.656,40.1041z"/>
</g>
</svg>
