<?xml version="1.0" encoding="utf-8"?>
<!-- Generator: Adobe Illustrator 21.1.0, SVG Export Plug-In . SVG Version: 6.00 Build 0)  -->
<svg version="1.1" id="Mar" xmlns="http://www.w3.org/2000/svg" xmlns:xlink="http://www.w3.org/1999/xlink" x="0px" y="0px"
	 viewBox="0 0 389.52 345.6" enable-background="new 0 0 389.52 345.6" xml:space="preserve">
<g>
	<path fill-rule="evenodd" clip-rule="evenodd" d="M342.4319,345.6c-0.72-0.072-1.4399-0.216-2.16-0.36
		c0.7921-2.376,0.7921-2.376,2.736-10.728c0.432-1.152,0.936-2.376,1.44-3.6c0.432-2.304,0.936-4.608,1.44-6.984
		c0-1.08,0-2.232,0-3.384c-1.008-1.872-1.008-1.872-1.944-4.752c-0.216-2.664-0.216-2.664,0.216-7.92
		c0.4319-1.728,0.936-3.528,1.44-5.328c0.072-1.944,0.1439-3.96,0.288-5.976c-1.944-5.976-1.944-5.976-2.88-7.92
		c-1.296-1.944-2.592-3.96-3.888-5.976c-3.816-7.2-3.816-7.2-5.76-11.52c-0.288-1.2961-0.576-2.592-0.936-3.888
		c0-3.168,0-6.336,0-9.576c-1.296-0.864-1.296-0.864-6.84-3.024c-1.08-1.152-2.16-2.376-3.312-3.6
		c-0.864-2.232-1.584-5.4-1.944-5.976c-1.44,0.216-1.44,0.216-5.04,0c-1.656-0.504-1.656-0.504-3.384-1.44
		c-4.032-2.88-4.032-2.88-7.416-5.76c-1.656-0.144-3.312-0.288-5.04-0.504c-0.936-0.288-1.872-0.576-2.88-0.936
		c-1.224-0.72-2.52-1.44-3.816-2.16c-1.512,0-3.024,0-4.608,0c-3.816-1.008-7.632-2.088-11.52-3.168
		c-1.584,0.792-3.168,1.584-4.752,2.448c-2.088,0.288-4.176,0.576-6.264,0.936c-3.6-0.216-3.6-0.216-6.264-0.72
		c-1.224-0.432-2.52-0.936-3.816-1.44c-1.44-1.368-2.88-2.736-4.32-4.176c0.936-1.512,1.872-3.024,2.88-4.608
		c1.584-1.296,3.168-2.592,4.824-3.96c3.888-2.232,7.776-4.464,11.736-6.696c3.384-0.936,3.384-0.936,12.024-2.376
		c1.584-0.648,3.168-1.296,4.752-1.944c1.2961-0.216,2.592-0.432,3.8881-0.72c5.256-0.216,10.512-0.432,15.84-0.72
		c3.168,0.288,6.336,0.576,9.576,0.936c12.024,3.888,12.024,3.888,17.064,5.76c2.376,1.008,4.752,2.088,7.2,3.168
		c0.288,0,0.576,0,0.936,0c0.864-3.312,1.8-6.624,2.736-9.936c0.288-1.872,0.576-3.816,0.936-5.76
		c-0.216-3.5999-0.216-3.5999-1.152-8.208c-1.296-3.024-2.592-6.048-3.888-9.072c-1.584-2.376-3.168-4.752-4.752-7.2
		c-2.88-2.736-5.832-5.472-8.784-8.208c-1.584-1.224-3.168-2.52-4.824-3.816c-3.312-1.944-9.288-4.68-10.728-5.688
		c-0.864-0.216-1.728-0.432-2.664-0.72c-6.192-0.576-12.456-1.224-18.72-1.872c-1.8,0-3.6,0.072-5.4,0.144
		c0.144,2.016,0.288,4.104,0.432,6.192c-0.144,1.296-0.288,2.592-0.432,3.888c-3.888,4.752-3.888,4.752-5.184,5.76
		c-0.576,0.072-1.224,0.144-1.872,0.288c-0.864-0.216-1.728-0.432-2.664-0.72c-1.008-0.576-2.016-1.224-3.096-1.872
		c-1.0081-0.288-2.088-0.648-3.168-1.0081c-3.168-1.584-6.336-3.168-9.576-4.752c-0.288,0-0.576,0.072-0.864,0.144
		c0,0.216,0.072,0.432,0.144,0.72c0.864,0.576,1.7999,1.224,2.736,1.872c0.648,0.72,1.296,1.44,1.944,2.16
		c1.656,1.368,3.312,2.736,5.04,4.104c1.224,1.224,2.52,2.52,3.816,3.816c0,0.72,0,1.44,0,2.16c-0.288,0.72-0.576,1.44-0.936,2.16
		c-1.008,1.008-2.088,2.088-3.168,3.168c-0.7921,0.432-1.584,0.864-2.4481,1.2961c-0.864,0.072-1.728,0.144-2.6639,0.216
		c-3.096-0.504-3.096-0.504-5.976-1.44c-1.008-0.936-2.088-1.872-3.168-2.88c-2.376-0.936-6.192-1.944-8.352-2.88
		c-2.88-0.288-5.76-0.576-8.64-0.936c-2.52-1.296-5.112-2.592-7.704-3.888c-2.664-1.872-2.664-1.872-4.824-4.032
		c-0.144-0.288-0.288-0.576-0.432-0.864c-0.432,0-0.936-0.072-1.44-0.144c-1.296,0.2881-2.592,0.648-3.888,1.0081
		c-10.08,0.936-10.08,0.936-16.272,1.152c-3.384-0.432-4.824-0.936-14.4-2.88c-1.512-0.4319-3.024-0.9359-4.608-1.44
		c-1.152-0.144-2.376-0.288-3.6-0.432c-2.664-1.2961-5.4-2.592-8.136-3.888c-1.512-1.08-3.024-2.16-4.536-3.312
		c-3.744-5.184-3.744-5.184-4.032-6.12c-1.368-0.432-2.7361-0.864-4.176-1.368c-6.912-0.936-6.912-0.936-11.52-1.872
		c-1.8-0.648-3.6-1.2961-5.472-1.944c-2.592-1.224-5.256-2.52-7.92-3.816c-3.168-1.008-3.168-1.008-7.704-1.944
		c-0.144-0.144-0.288-0.288-0.504-0.504c-1.44-0.144-2.88-0.288-4.32-0.432c-2.88,0.216-2.88,0.216-7.2,1.152
		c-0.936,0.288-1.872,0.648-2.88,1.008c-0.72,0-1.44,0-2.16,0c-0.36-0.144-0.72-0.36-1.152-0.576
		c0.288-1.008,0.792-1.44,2.736-4.608c0.864-0.576,1.728-1.224,2.592-1.872c0.432-0.576,0.936-1.152,1.44-1.728
		c0-0.288,0-0.576,0-0.936c-0.432-0.288-0.864-0.576-1.296-0.864c-2.448-0.648-4.896-1.2961-7.416-1.944
		c-8.136-0.936-8.136-0.936-12.96-1.872c-6.264-1.944-6.264-1.944-11.304-3.888c-1.8-0.288-3.6-0.576-5.472-0.936
		c-2.52-0.144-5.112-0.288-7.704-0.504c-5.112-0.792-10.224-1.584-15.336-2.376c-4.176-0.072-8.352-0.144-12.528-0.216
		c-6.048-0.72-12.096-1.44-18.216-2.16c-5.76,0-11.52,0-17.28,0c-1.584-0.648-3.168-1.296-4.824-1.944
		c0-0.216-0.072-0.504-0.144-0.792c1.008-0.576,2.016-1.224,3.024-1.872c3.168-0.432,3.168-0.432,19.728-1.152
		c3.024,0.432,6.048,0.936,9.072,1.44c4.392,0,8.784,0,13.248,0c18,0.936,18,0.936,22.032,1.44c5.472-0.216,11.016-0.432,16.56-0.72
		c3.096-0.288,6.192-0.648,9.36-1.008c10.08-1.872,10.08-1.872,16.344-3.312c0.936-0.504,8.64-2.448,16.344-4.824
		c15.552-7.704,15.552-7.704,22.536-11.52c2.88-1.224,5.76-2.5201,8.64-3.816c2.16-1.944,2.16-1.944,14.184-15.624
		c3.24-4.248,6.48-8.496,9.792-12.744c5.328-5.472,10.728-11.0159,16.128-16.5599c2.592-3.0961,5.256-6.192,7.92-9.3601
		c2.52-2.5199,5.04-5.0399,7.632-7.6319c6.624-5.112,13.248-10.2241,19.944-15.408c1.944-1.224,3.96-2.52,5.976-3.816
		c3.6-1.584,7.2-3.168,10.8-4.824c3.816-1.224,7.632-2.52,11.52-3.816c2.232-0.36,4.464-0.7919,6.768-1.2239
		c1.296,0,2.664,0,4.032,0c2.16,0.504,2.16,0.504,2.88,1.008c0,0.288,0.072,0.576,0.144,0.864
		c-2.2321,3.7439-4.4641,7.4879-6.768,11.2319c-0.7921,1.8-1.584,3.6721-2.376,5.5441c-0.072,0.72-0.216,1.44-0.36,2.16
		c0.792,0.072,1.584,0.144,2.376,0.216c0.072,0.2159,0.216,0.432,0.36,0.72c-0.072,5.1839-0.216,10.3679-0.36,15.624
		c0.576,0.216,1.152,0.4319,1.728,0.72c0.0721,1.9439-0.3599,5.976-0.6479,12.9599c0.36,0.0721,0.72,0.2161,1.152,0.3601
		c0.36,0.4319,0.72,0.864,1.1519,1.296c0.0721,1.08,0.144,2.232,0.288,3.384c1.872,0.36,1.872,0.36,2.592,0.792
		c0.36,0.864,0.36,0.864,0.72,3.528c0.36,0.072,0.792,0.144,1.224,0.216c1.44,1.08,1.44,1.08,2.664,1.584
		c0.216,0.576,0.432,1.1519,0.648,1.8c0.72,0.072,1.44,0.216,2.232,0.3599c0.288,0.2161,0.576,0.432,0.936,0.7201
		c1.2239,0,1.2239,0,2.376,0.576c0.288,0.432,0.648,0.864,1.008,1.296c1.008,0.144,2.016,0.288,3.0959,0.504
		c0.36,0.576,0.72,1.152,1.0801,1.8c1.224,0.432,2.4479,0.864,3.744,1.296c0.288,0.36,0.576,0.792,0.936,1.224
		c0.648,0.072,1.296,0.144,1.944,0.216c0.288,0.576,0.576,1.152,0.936,1.8c0.504,0.144,1.08,0.2881,1.656,0.504
		c0.216,0.36,0.4319,0.72,0.72,1.08c2.88,0,5.04-0.504,6.48-0.504c0.7921,0.144,1.584,0.288,2.448,0.504
		c1.44,1.08,1.44,1.08,2.376,2.304c0.432,1.44,0.864,2.88,1.296,4.32c1.728,0.144,3.4561,0.36,5.184,0.576
		c1.008-0.072,2.016-0.144,3.096-0.216c0.288,0.36,0.648,0.72,1.008,1.152c0.072,0.432,0.144,0.864,0.288,1.368
		c1.008,0.072,2.016,0.216,3.0239,0.36c0.36,0.144,0.7921,0.36,1.2241,0.576c0.072,0.288,0.2159,0.6479,0.36,1.008
		c1.008,0.288,2.016,0.648,3.024,1.008c0.288,0.288,0.576,0.648,0.936,1.008c2.88,0.432,2.88,0.432,4.104,0.936
		c1.872,2.376,1.872,2.376,4.032,4.32c3.168,1.944,3.168,1.944,12.744,6.696c1.44,1.368,1.44,1.368,4.536,5.76
		c0.072,0.864,0.2159,1.728,0.36,2.592c-0.144,3.672-0.288,7.344-0.504,11.016c5.76,5.976,9.648,10.584,13.464,14.616
		c1.584,2.16,3.168,4.32,4.824,6.48c2.52,4.32,5.04,8.64,7.632,12.96c1.296,2.952,2.5919,5.904,3.888,8.928
		c0.5759,2.016,1.224,4.104,1.872,6.192c0.4319,2.448,0.936,4.968,1.44,7.488c0.1439,0.144,0.288,0.288,0.504,0.432
		c0.072,0.576,0.144,1.1519,0.216,1.728c-0.288,3.744-0.576,7.4879-0.936,11.232c-1.8719,7.056-3.816,14.112-5.7599,21.168
		c-1.584,5.112-3.168,10.224-4.824,15.336c-0.936,4.536-1.872,9.072-2.88,13.68c-0.576,10.368-1.224,20.736-1.872,31.176
		c-0.432,4.896-0.936,9.792-1.44,14.688c-0.792,4.752-1.584,9.576-2.448,14.4c-0.144,2.16-0.288,4.32-0.432,6.48
		c-1.944,9.576-1.944,9.576-3.888,16.56c-0.576,1.512-1.224,3.024-1.8719,4.536c-1.296,2.232-2.592,4.464-3.888,6.696
		c-1.296,1.368-2.6641,2.736-4.032,4.104c-1.728,1.224-3.528,2.52-5.328,3.816c-1.152,0.576-2.304,1.152-3.456,1.8
		C345.168,344.952,343.8,345.24,342.4319,345.6L342.4319,345.6z M347.472,339.768c0.216-1.368,0.504-2.736,0.792-4.104
		c0.648-1.8,1.296-3.6,1.944-5.472c0.576-2.52,1.2239-5.112,1.872-7.704c0.288-0.36,0.648-0.792,1.0079-1.224
		c1.872-5.472,2.8801-7.632,4.7521-13.896c0.36-3.672,0.792-7.344,1.224-11.016c-0.072-0.36-0.216-0.792-0.36-1.224
		c-2.592,0.792-2.592,0.792-4.3199,1.8c-0.36,1.584-0.36,4.896-0.864,10.656c-0.792,2.592-1.584,5.256-2.376,7.92
		c-0.144,0.216-0.36,0.432-0.576,0.72c-0.648-0.72-0.648-0.72-1.08-1.872c0.072-2.232,0.144-4.464,0.2159-6.768
		c0.432-1.512,0.936-3.024,1.44-4.536c0.216-2.376,0.432-4.752,0.648-7.2c0.432,0,0.936-0.072,1.44-0.144
		c0.216-0.2159,0.504-0.504,0.792-0.792c0.936-3.888,4.824-16.848,5.544-20.664c0.072-3.888,0.144-7.776,0.216-11.736
		c-0.792,0-1.656-0.072-2.52-0.144c-1.8719,0.936-1.8719,0.936-2.304,1.584c-0.4319,7.632-0.4319,7.632-0.216,10.08
		c-0.2159,1.728-0.4319,3.456-0.72,5.256c-0.432,1.152-0.936,2.376-1.44,3.6c-0.936,4.104-0.936,4.104-1.944,6.984
		c-0.072,0.072-0.216,0.144-0.36,0.216c-2.0161-3.096-4.032-6.192-6.12-9.36c0-0.432,0.072-0.864,0.1439-1.368
		c1.2241,0,1.2241,0,1.944-0.4319c0.432-2.5201,0.864-5.04,1.296-7.56c3.816-12.024,3.816-12.024,4.536-15.336
		c0-0.576,0-1.152-0.072-1.728c-1.008,0.072-2.016,0.216-3.096,0.36c-0.36,0.144-0.792,0.36-1.224,0.576
		c-0.36,0.792-0.36,0.792-0.864,4.392c-0.648,1.584-1.296,3.168-1.944,4.752c-0.936,3.888-0.936,3.888-1.872,6.264
		c-0.504,3.816-0.504,3.816-1.008,4.824c-0.072,0.072-0.216,0.144-0.36,0.216c-0.648-1.224-1.296-2.52-2.016-3.816
		c-0.36-1.152-0.792-2.376-1.224-3.6c-0.144-3.9601-0.288-7.992-0.432-12.024c-0.144-0.288-0.288-0.576-0.504-0.936
		c0-0.576,0-1.152,0-1.728c0.36-0.936,0.792-1.872,1.224-2.88c-0.648-0.4319-0.648-0.4319-1.8-0.576
		c-0.72,0.144-1.44,0.36-2.16,0.576c-0.936,1.44-0.936,1.44-2.16,2.52c-1.944-0.72-1.944-0.72-3.384-1.8
		c-0.576-1.008-1.152-2.016-1.8-3.096c-0.072-0.7921-0.144-1.584-0.216-2.376c1.08-0.648,2.16-1.296,3.24-1.944
		c1.368-0.504,2.736-1.08,4.176-1.656c0.288-0.792,0.576-1.584,0.864-2.448c-0.648,0-1.296-0.072-1.944-0.144
		c-6.696,2.448-6.696,2.448-7.92,2.664c-1.8719-2.736-1.8719-2.736-2.592-3.384c-1.224,0-1.224,0-3.168,0.504
		c-0.504,0.288-1.0081,0.576-1.584,0.864c-0.144,0.288-0.288,0.576-0.432,0.936c-0.432,0-0.864,0.072-1.296,0.144
		c-2.16-1.944-3.888-2.88-5.472-4.1761c0-0.288,0-0.648,0-1.008c1.656-0.936,3.312-1.872,4.968-2.88
		c0.864-0.144,1.728-0.36,2.664-0.576c2.952,0,5.904,0,8.856,0c0.4319-0.288,0.864-0.576,1.296-0.864
		c0.2159-1.152,0.72-1.872,0.72-2.376c-0.576-0.36-0.576-0.36-3.96-0.864c-1.512,0.072-3.024,0.144-4.536,0.216
		c-1.584,0.288-3.168,0.648-4.824,1.008c-1.656,0.576-3.312,1.224-5.04,1.872c-1.296,0.792-2.6641,1.584-4.032,2.448
		c-1.296,0.072-2.592,0.144-3.888,0.216c-2.592-0.504-2.592-0.504-3.6-0.936c-1.44-1.008-2.88-2.088-4.32-3.168
		c-2.592,0-2.592,0-4.536,0.504c-0.936-0.072-1.8719-0.216-2.88-0.36c0-0.288,0-0.576,0-0.936c1.512-0.576,3.024-1.152,4.536-1.8
		c4.32-1.008,4.32-1.008,10.08-1.944c2.808-0.144,5.616-0.288,8.424-0.504c0.576-0.216,1.152-0.504,1.8-0.792
		c0.144-0.864,0.36-1.728,0.576-2.664c-2.376-0.144-2.376-0.144-9.576,0.36c-4.104,0.792-8.28,1.584-12.456,2.376
		c-1.512,0.648-3.024,1.296-4.608,1.944c-1.656,0.432-3.312,0.936-5.04,1.44c-0.504-0.072-1.08-0.144-1.656-0.216
		c-0.432-0.432-0.936-0.936-1.44-1.44c-1.224,0.072-2.52,0.144-3.816,0.216c-1.44,0.936-2.88,1.872-4.32,2.88
		c-0.7921,0.288-1.584,0.576-2.4481,0.936c-2.8799,0.288-2.8799,0.288-3.5999,0.144c0.072-0.288,0.216-0.576,0.36-0.936
		c1.368-0.936,2.808-1.872,4.248-2.808c5.112-1.584,10.224-3.168,15.336-4.752c2.232-0.432,4.464-0.936,6.696-1.44
		c0.576-0.36,1.152-0.72,1.728-1.08c0.216-0.72,0.432-1.44,0.72-2.16c-0.792,0-1.584-0.072-2.448-0.144
		c-2.952,0.648-5.904,1.296-8.856,1.944c-5.04,1.584-10.08,3.168-15.1201,4.752c-3.816,1.944-3.816,1.944-7.2,4.32
		c-0.288,0-0.576,0.072-0.936,0.144c0-0.504-0.072-1.08-0.144-1.656c1.8719-2.376,1.8719-2.376,4.032-4.32
		c6.192-3.744,6.192-3.744,11.664-6.624c1.152-0.288,2.376-0.576,3.6-0.936c2.52-0.288,5.1119-0.648,7.704-1.008
		c1.872-0.864,3.816-1.728,5.76-2.592c1.8,0.072,3.672,0.144,5.544,0.216c3.024-0.144,6.048-0.288,9.072-0.504
		c2.952,0.288,5.904,0.648,8.928,1.008c2.016,0.576,4.1039,1.224,6.192,1.872c16.1281,6.768,16.1281,6.768,20.448,8.208
		c0.72,0,1.44,0,2.16,0c0.504-0.288,1.08-0.648,1.656-1.008c0.648-0.72,1.296-1.44,1.944-2.16c0.288-0.576,0.576-1.152,0.936-1.8
		c1.8-6.696,1.8-6.696,2.952-12.456c0-2.304,0-4.608,0-6.912c-0.288-1.44-0.576-2.88-0.936-4.32
		c-1.224-3.168-2.52-6.408-3.816-9.648c-1.296-2.304-2.592-4.608-3.888-6.912c-3.816-5.544-5.7601-7.92-6.696-9.648
		c-1.008-1.08-2.016-2.16-3.096-3.312c-4.464-3.024-9-6.048-13.536-9.072c-1.728-0.432-1.728-0.432-8.64-3.312
		c-3.8881-1.0081-3.8881-1.0081-7.704-1.44c-1.728-0.576-3.456-1.152-5.256-1.728c-1.656,0-3.312,0-5.04,0
		c-2.16,0.504-2.16,0.504-14.4,1.728c-2.592-2.592-5.256-5.256-7.92-7.92c-1.0081-0.648-2.088-1.296-3.168-1.944
		c-2.16-1.944-2.16-1.944-7.632-5.76c-6.48-3.816-6.48-3.816-12.24-7.704c-2.16-1.08-4.32-2.16-6.48-3.312
		c-3.744-0.648-7.488-1.296-11.304-1.944c-1.512,0.072-3.024,0.144-4.536,0.216c-0.288,0.144-0.648,0.288-1.008,0.504
		c-0.576,0.936-1.152,1.872-1.8,2.808c0.216,1.152,0.216,1.152,0.648,1.728c2.376-0.216,2.376-0.216,6.696,0
		c3.024,0.432,6.048,0.936,9.144,1.44c1.224,0.648,2.52,1.296,3.816,1.944c2.376,1.944,2.376,1.944,11.304,7.704
		c3.6,1.872,3.6,1.872,6.48,3.816c1.512,1.368,3.024,2.736,4.536,4.104c1.008,0.576,2.016,1.224,3.0959,1.872
		c3.3121,3.384,6.696,6.768,10.0801,10.224c0.576,0.792,1.152,1.584,1.7999,2.448c0.144,0.432,0.288,0.936,0.504,1.44
		c0.072,1.512,0.144,3.024,0.216,4.5359c-0.144,0.144-0.36,0.288-0.576,0.504c-0.648,0-1.296,0-1.944,0.072
		c-2.376-0.936-4.032-1.944-9.072-3.816c-2.304-1.296-4.608-2.592-6.984-3.888c-1.512-1.368-3.024-2.736-4.536-4.176
		c-2.088-2.448-4.176-4.896-6.264-7.344c-0.6479-0.432-1.296-0.936-1.944-1.44c-1.08,0-2.16,0-3.312,0
		c-0.864-0.288-1.728-0.576-2.664-0.936c-1.44-1.08-1.44-1.08-1.944-1.944c-0.504-0.288-1.08-0.576-1.656-0.936
		c-0.864,0.216-1.728,0.432-2.664,0.72c-1.728,0.144-3.456,0.288-5.256,0.504c-1.224-0.288-2.52-0.648-3.816-1.008
		c-0.792-0.864-1.584-1.728-2.448-2.592c-0.432-0.144-0.936-0.288-1.44-0.504c-0.216,0.072-0.432,0.144-0.72,0.216
		c-0.936,1.44-0.936,1.44-1.656,1.944c-0.072,0.36-0.216,0.72-0.36,1.08c0.072,0.432,0.144,0.936,0.216,1.44
		c0.648,0.864,1.296,1.728,2.016,2.664c1.512,0.792,1.512,0.792,5.112,1.8c0.576,0.072,1.224,0.144,1.872,0.216
		c1.872-0.2881,3.816-0.576,5.76-0.936c0.288,0.072,0.648,0.144,1.008,0.216c1.44,1.584,1.44,1.584,2.376,2.16
		c1.584,0.4319,3.168,0.936,4.824,1.44c0.792,0,1.584,0,2.376,0c0.504,0.792,1.08,1.656,1.656,2.52
		c-0.216,0.36-0.216,0.36-7.632,2.304c-7.2,0.936-11.52,1.872-19.728,2.88c-11.016,0.72-11.016,0.72-18,0.72
		c-13.392-0.72-13.392-0.72-17.712-1.224c-6.048-1.944-6.048-1.944-12.312-4.392c0-0.288,0-0.576,0.072-0.864
		c0.288-0.072,0.576-0.216,0.936-0.36c-0.072-0.144-0.144-0.288-0.216-0.504c0.288-0.288,0.576-0.576,0.936-0.864
		c0.432,0,0.936,0,1.44,0c0.288-0.36,0.576-0.72,0.936-1.152c3.384-1.944,3.384-1.944,7.2-4.824c1.44-0.504,1.728-0.864,1.944-0.792
		c0.216-0.216,0.432-0.432,0.72-0.72c0.144,0.144,0.288,0.288,0.432,0.432c0.576-0.72,1.152-1.512,1.728-2.304
		c0.504-0.144,1.08-0.288,1.656-0.432c1.008-1.008,1.008-1.008,1.296-1.8c1.44-1.368,2.88-2.7361,4.32-4.104
		c1.296-1.728,2.592-3.456,3.888-5.256c1.224-2.376,2.52-4.752,3.816-7.2c1.944-5.544,1.944-5.544,2.88-9.576
		c0.0721-1.512,0.144-3.024,0.216-4.608c0.504-0.432,0.504-0.432,1.368-0.576c0.936,1.152,0.936,1.152,2.376,2.16
		c0.144,0,0.288,0,0.504,0c2.376-2.5201,2.376-2.5201,2.736-3.24c-0.072-0.504-0.144-1.08-0.216-1.656
		c-0.792-1.368-1.584-2.736-2.448-4.104c0-0.288,0.072-0.576,0.144-0.864c0.864,0.072,1.728,0.144,2.664,0.216
		c0.216-0.216,0.432-0.432,0.72-0.72c0.36,0,0.7921,0,1.224,0c0.432,0.504,0.432,0.504,2.88,1.44
		c1.224,1.584,2.52,3.168,3.816,4.824c2.376,1.944,2.376,1.944,3.096,2.16c0.36-0.792,0.36-0.792,1.008-1.224
		c0.72,0.072,1.44,0.144,2.16,0.288c0.936-1.224,2.16-2.16,2.952-3.456c0.072-0.288,0.144-0.648,0.216-1.008
		c-0.432-1.152-0.432-1.152-0.432-2.16c0.432-0.504,0.864-1.008,1.296-1.584c0.432,0,0.936,0,1.44,0
		c0.7921,0.288,1.584,0.648,2.448,1.008c0.936,0.144,1.872,0.288,2.88,0.432c1.296,1.296,2.664,2.592,4.032,3.888
		c0.648,0.936,1.296,1.872,1.944,2.88c0.288,0.144,0.576,0.36,0.936,0.576c1.944,3.384,1.944,3.384,3.6,5.544
		c0.36,0,0.7921,0,1.224,0.072c0.936-1.44,2.16-2.52,3.096-3.816c0.072-0.432,0.216-0.864,0.36-1.296
		c-0.144-1.512-0.36-3.024-0.576-4.536c1.008,0.072,2.016,0.144,3.096,0.216c0.288-0.36,0.288-0.36,1.008-0.36
		c1.152,1.2961,2.376,2.592,3.6,3.96c0.504,0.36,1.08,0.72,1.656,1.08c2.016,3.024,4.104,6.12,6.192,9.216
		c0.648-0.432,1.008-1.224,1.944-1.8c0.288-0.504,0.648-1.08,1.008-1.656c0-0.504,0-1.008,0.072-1.584
		c-0.936-2.376-1.944-3.816-2.664-5.76c0-0.576,0-1.224,0-1.872c0.216-0.36,0.4319-0.792,0.6479-1.224
		c0.216-0.0721,0.432-0.216,0.72-0.36c0.504,0.0721,1.08,0.144,1.656,0.216c0.6479,0.288,1.296,0.576,1.944,0.936
		c2.16,2.088,2.16,2.088,2.592,3.024c0.576,0.072,1.152,0.216,1.728,0.36c1.08,1.08,2.232,2.232,3.384,3.384
		c0.4321,0.72,0.936,1.44,1.44,2.16c0.432,0.288,0.936,0.576,1.44,0.936c0.7921,1.8,0.7921,1.8,2.2321,3.744
		c0.3599,0,0.72,0,1.08,0.072c0.72-1.008,1.512-2.088,2.304-3.168c0-0.72,0-1.44,0-2.16c-0.288-1.008-0.576-2.088-0.864-3.168
		c1.512,0.072,3.024,0.216,4.608,0.36c0.7919,0.288,1.584,0.576,2.376,0.936c0.72,0,1.44,0,2.16,0
		c1.44,1.008,1.44,1.008,2.6639,1.44c0.504,0,1.08,0,1.656,0c1.2241,1.008,3.096,3.384,7.704,7.704
		c1.224,2.376,2.448,4.752,3.6719,7.128c0.4321,0.216,0.8641,0.504,1.368,0.792c0.216,0,0.432-0.072,0.72-0.144
		c0.576-1.008,1.152-2.016,1.728-3.096c0-1.872,0-1.872-0.432-2.88c-0.36-0.504-0.792-1.08-1.224-1.656
		c0.144-1.224,0.144-1.224,0.504-1.44c0.72-1.44,1.512-2.952,2.304-4.464c1.0081,0.072,2.0161,0.144,3.096,0.216
		c0.648,0.288,1.296,0.648,1.944,1.008c1.656,2.232,2.592,2.88,3.6,4.176c0.936,1.944,3.096,4.824,6.192,10.296
		c1.008,0.648,1.008,0.648,1.728,1.584c0.72-0.144,0.72-0.144,0.936-0.576c0.648,0,1.296-0.072,1.944-0.144
		c0.936-0.936,0.936-0.936,1.872-1.44c0.936,0.072,1.872,0.144,2.88,0.216c0.36-0.288,0.792-0.576,1.224-0.936
		c3.096,0,3.384-0.216,5.04-0.216c1.512,0.576,3.024,1.224,4.536,1.872c0.6479,0.72,1.296,1.44,1.944,2.16
		c1.008,0.648,2.016,1.368,3.096,2.088c1.08,1.44,2.232,2.88,3.384,4.392c0.936,0,1.872,0,2.88,0c3.456,5.4,6.912,10.8,10.44,16.272
		c1.872,4.536,1.872,4.536,2.88,5.976c0.936,2.808,1.872,5.616,2.88,8.424c0.2161,1.584,0.4319,3.168,0.72,4.752
		c0,2.52,0,5.112,0,7.704c-0.504,1.656-0.504,1.656-1.44,7.92c-3.888,14.184-9.648,32.904-12.528,43.92
		c-0.288,2.304-0.576,4.608-0.936,6.984c-0.288,6.912-0.576,13.896-0.936,20.88c-0.648,7.632-1.296,15.336-1.944,23.04
		c-0.936,4.752-0.936,4.752-2.376,14.616c-0.144,2.16-0.288,4.32-0.504,6.48c-0.432,2.88-0.936,5.76-1.44,8.64
		c-1.224,4.032-2.52,8.136-3.816,12.24c-1.44,2.664-1.944,3.096-2.88,4.824c-1.368,1.512-2.736,3.024-4.104,4.536
		c-0.792,0.648-1.6559,1.296-2.52,1.944C348.264,339.624,347.904,339.696,347.472,339.768L347.472,339.768z M357.048,219.96
		c-0.144-1.368,0.36-3.528,1.296-11.736c0.504-1.152,0.504-1.152,0.936-4.32c0.576-1.152,1.1519-2.376,1.728-3.6
		c0-1.512,0-3.024,0-4.536c0.144-0.648,0.288-1.2961,0.432-1.944c-0.072-0.504-0.144-1.08-0.216-1.656
		c-0.288-0.36-0.576-0.792-0.936-1.224c-0.432-2.232-0.936-4.464-1.44-6.696c-0.072-1.512-0.216-3.024-0.36-4.536
		c-0.4321-0.432-0.864-0.936-1.368-1.44c-0.072-0.7921-0.144-1.584-0.288-2.448c-0.7921,0-1.584,0.072-2.448,0.144
		c-0.144-0.288-0.36-0.576-0.576-0.864c0.072-1.512,0.144-3.024,0.216-4.536c-0.792-0.288-1.656-0.576-2.52-0.864
		c-1.152-1.08-1.152-1.08-2.16-2.664c-0.576-0.288-1.224-0.576-1.872-0.936c-0.144-0.864-0.288-1.8-0.432-2.736
		c-0.792-0.36-0.792-0.36-3.672-0.864c-0.072-0.144-0.216-0.36-0.36-0.576c0-1.008,0.072-2.0161,0.144-3.096
		c-1.296,0-2.592,0-3.888,0c-0.144-0.288-0.288-0.576-0.4319-0.864c-0.648-0.288-1.296-0.648-1.944-1.008c0-0.792,0-1.656,0-2.52
		c-1.08-0.144-2.232-0.36-3.384-0.576c-0.36-0.432-0.72-0.936-1.152-1.44c-1.368-0.072-2.736-0.144-4.104-0.216
		c-0.936-0.504-0.936-0.504-2.16-1.944c-0.936-0.0721-1.872-0.144-2.8801-0.216c-0.72-0.576-1.4399-1.152-2.16-1.728
		c-0.504,0.072-1.08,0.144-1.656,0.288c-1.512-0.216-3.024-0.432-4.608-0.72c-0.576-0.792-1.224-1.584-1.872-2.448
		c-0.864-0.36-1.728-0.72-2.664-1.152c-1.728,0-3.456,0-5.256,0c-0.576-0.216-1.152-0.432-1.728-0.72c-3.6,0-3.6,0-4.032-0.288
		c-2.448-0.432-2.448-0.432-3.168-0.936c-1.584,0-3.168,0-4.752,0c-0.36-0.216-0.7921-0.432-1.224-0.72c-1.512,0-3.024,0-4.536,0
		c-1.944-0.936-4.32-1.44-6.984-2.376c-1.44-0.144-2.88-0.288-4.32-0.504c-1.512-0.36-3.024-0.792-4.5359-1.224
		c-1.152,0-2.376,0-3.6,0c-0.288-0.144-0.648-0.288-1.008-0.432c0-0.36-0.072-0.72-0.144-1.08c1.08-0.576,2.16-1.152,3.312-1.8
		c3.312,0,4.3199-0.288,6.192-0.288c0.504,0.504,0.504,0.504,3.384,1.44c0.648-0.144,1.296-0.288,1.944-0.432
		c1.656,0.432,1.872,0.72,4.032,0.936c0.36,0.288,0.7919,0.576,1.2239,0.936c0.7921,0,1.584,0,2.376,0
		c0.4321,0.216,0.936,0.432,1.44,0.72c0.216-0.144,0.4321-0.288,0.72-0.432c2.16,0,2.16,0,3.6,0.432
		c0.576,0.36,1.152,0.792,1.728,1.224c2.448,0.072,4.896,0.144,7.416,0.216c0.216,0.144,0.432,0.288,0.72,0.504
		c1.656,0.072,3.312,0.144,5.04,0.216c0.4319-0.288,0.936-0.576,1.44-0.936c0.6479,0,1.296,0,1.944,0
		c1.08,0.864,2.16,1.728,3.312,2.664c0.576,0.144,1.152,0.288,1.728,0.432c0.576,0.648,1.2239,1.296,1.872,1.944
		c2.8799,0.216,3.168,0.504,6.4799,0.576c0.576,0.576,1.152,1.152,1.728,1.8c1.152,0.144,2.376,0.288,3.6,0.504
		c0.36,0.432,0.72,0.936,1.152,1.44c1.8,0.288,3.672,0.576,5.544,0.864c0.216,0.216,0.432,0.432,0.72,0.72
		c0.792,0,1.584,0,2.376,0.072c1.224,0.504,1.224,0.504,1.944,1.152c0,0.864,0,1.728,0.072,2.592
		c0.4319,0.288,0.864,0.576,1.368,0.864c1.224,0,2.376-0.504,4.104-0.504c0.36,0.504,0.72,1.008,1.152,1.584
		c-0.36,1.944-0.36,1.944-0.216,3.096c0.432,0.072,0.936,0.216,1.44,0.36c1.224,0.936,1.224,0.936,1.656,1.584
		c0.072,0.432,0.216,0.936,0.36,1.44c2.16,2.16,2.16,2.16,3.024,3.6c0.864,0.36,1.728,0.72,2.664,1.08
		c0.72,0.792,0.72,0.792,1.296,2.304c0,0.864-0.072,1.728-0.144,2.592c0.648,0,1.296,0.072,1.944,0.144
		c0.72,0.576,0.72,0.576,1.08,1.296c0.144,0.864,0.288,1.728,0.432,2.664c0.36,0.36,0.792,0.792,1.224,1.224
		c0,1.152,0.072,2.376,0.144,3.6c0.144,0.144,0.288,0.288,0.432,0.432c0,0.864,0.072,1.728,0.144,2.664
		c0.144,0.288,0.288,0.576,0.504,0.936c0,2.88,0,2.88,0.4319,4.32c0.504,0.72,0.504,0.72,0.72,2.16
		c-0.144,0.72-0.288,1.44-0.432,2.16c0.072,0.936,0.144,1.872,0.216,2.88c-0.72,2.664-0.72,2.664-1.656,4.608
		c-0.216,1.44-0.432,2.88-0.72,4.32c0,1.08,0,2.16,0,3.312c-0.504,1.008-0.504,1.008-2.448,9.36
		c-0.576,0.648-1.152,1.296-1.728,2.016c-0.288,0.144-0.648,0.288-1.008,0.504C357.696,220.104,357.408,220.032,357.048,219.96
		L357.048,219.96z M264.888,180.72c-1.656-0.288-3.312-0.576-5.04-0.936c-0.72-0.648-1.44-1.296-2.16-1.944
		c-4.32-1.872-4.32-1.872-10.296-3.816c-4.608-0.216-4.608-0.216-8.208-0.72c-7.416-3.816-7.416-3.816-8.496-4.68
		c0-0.216,0-0.432,0.072-0.72c6.12-1.296,12.312-2.592,18.504-3.96c0.288,0.792,0.576,1.656,0.864,2.52
		c1.44,1.008,2.88,2.088,4.32,3.168c1.08,0.576,2.16,1.152,3.24,1.728c2.376,1.944,4.32,4.104,8.64,7.92
		c0.072,0.864,0.072,0.864-0.216,1.224C265.752,180.576,265.32,180.648,264.888,180.72L264.888,180.72z M171.792,145.008
		c-0.792-0.72-1.584-1.44-2.448-2.16c-1.44-0.216-2.88-0.432-4.32-0.72c-2.736-0.072-5.544-0.216-8.352-0.36
		c0-0.216,0-0.432,0.072-0.72c1.584-0.936,3.168-1.872,4.824-2.88c7.56-1.8,7.56-1.8,13.824-3.744
		c1.872-0.936,1.872-0.936,4.32-2.88c1.224-1.44,2.52-2.88,3.816-4.32c0.936-1.656,0.936-1.656,1.8-3.96
		c0.144-0.72,0.288-1.44,0.432-2.16c0-5.256,0-5.256-0.432-10.5121c-0.144-0.36-0.288-0.792-0.504-1.224
		c-0.432,0-0.864-0.072-1.296-0.144c-0.288,0.36-0.576,0.792-0.936,1.224c-0.576,0.288-1.152,0.576-1.728,0.936
		c-0.072,0.216-0.216,0.432-0.36,0.648c0.216,2.16,0.432,4.32,0.72,6.48c-0.072,1.584-0.144,3.168-0.216,4.752
		c-1.008,2.664-1.008,2.664-2.88,5.76c-1.584,1.008-1.584,1.008-7.056,3.24c-3.888,0.936-4.104,1.224-6.768,1.656
		c-2.232,1.296-4.464,2.592-6.696,3.888c-1.152,1.08-2.376,2.16-3.6,3.312c-1.224-0.216-1.224-0.216-2.448-0.792
		c0-0.216,0-0.432,0-0.72c0.864-0.576,1.728-1.152,2.664-1.8c0-0.792,0.072-1.656,0.144-2.52c-0.072-0.216-0.216-0.432-0.36-0.648
		c-0.288-0.072-0.576-0.144-0.936-0.216c-0.936-1.08-1.872-2.232-2.88-3.384c-2.304-1.728-4.608-3.456-6.984-5.256
		c-2.232-1.224-4.464-2.52-6.696-3.816c-1.512-0.432-3.024-0.936-4.608-1.44c-1.152,0.072-2.376,0.144-3.6,0.216
		c-1.008,0.288-2.016,0.576-3.096,0.936c-0.936,1.008-0.936,1.008-2.304,1.872c0,0.432,0,0.936,0,1.44
		c-0.072,0.072-0.216,0.144-0.36,0.216c-1.8-1.152-3.6-2.376-5.4-3.6c0-0.432,0.072-0.864,0.144-1.368
		c1.656-0.432,5.256-2.376,7.2-2.88c2.232-0.072,4.464-0.144,6.696-0.216c1.296,0.144,2.592,0.288,3.888,0.504
		c0.288-0.144,0.576-0.288,0.936-0.504c0.288-0.432,0.576-0.936,0.936-1.44c1.728-0.936,1.728-0.936,2.16-1.44
		c2.664-0.504,2.664-0.504,3.168-0.936c0.072-0.432,0.144-0.864,0.288-1.2961c0.648-0.792,1.296-1.584,1.944-2.448
		c1.08-0.36,1.08-0.36,5.904-0.576c2.376,0.936,3.816,1.872,9.144,4.032c1.656,1.008,3.312,2.088,5.04,3.168
		c0.72,0,0.72,0,1.152-0.504c0.576,0,1.152,0,1.728,0c0.216-0.36,0.216-0.36,1.872-0.936c0.072-0.288,0.216-0.576,0.36-0.864
		c1.944-1.44,2.376-2.16,3.096-2.592c1.08-1.44,2.448-2.448,4.608-5.3279c0.576-0.432,2.736-0.864,3.744-1.584
		c0.36,0,0.72,0,1.152,0c0.72,0.432,1.44,0.936,2.16,1.44c1.008,0,2.088,0,3.168,0c2.592,1.008,2.592,1.008,4.032,1.224
		c0.144-0.144,0.288-0.288,0.504-0.504c0.36,0,0.792,0,1.224,0c0.576,0.432,1.224,0.936,1.872,1.44c0.36,0,0.7921,0,1.2241,0
		c0.144-0.144,0.288-0.288,0.504-0.432c1.44,0.216,1.44,0.216,2.16,0.72c0.72-0.288,1.44-0.576,2.16-0.864
		c-0.216,0.72-0.432,1.44-0.648,2.16c0.072,1.008,0.144,2.088,0.216,3.168c-1.44,5.256-1.44,5.256-3.312,10.8
		c-1.296,2.232-2.592,4.464-3.888,6.696c-1.872,2.376-1.872,2.376-2.88,4.104c-1.224,1.296-2.52,2.664-3.816,4.032
		c-1.656,1.224-3.3839,2.448-5.112,3.744c-6.048,1.872-6.984,2.376-8.928,2.88C172.584,145.008,172.224,145.008,171.792,145.008
		L171.792,145.008z M204.624,140.184c-2.592-0.936-2.592-0.936-4.32-2.016c0.144-0.288,0.288-0.576,0.504-0.864
		c0.936-0.216,1.656-0.936,3.384-1.944c0.936,0.36,0.936,0.36,2.592,0.504c0.288-0.144,0.648-0.288,1.008-0.504
		c1.8-0.144,3.6-0.36,5.472-0.576c0,0.216,0,0.432,0,0.72c0.936,0,1.872-0.072,2.88-0.144c0.144,0.288,0.288,0.576,0.504,0.864
		c1.944,0.144,1.944,0.144,2.232,0.504c0,0.648,0,1.296,0,1.944c-0.36,0.36-0.72,0.72-1.152,1.152c-1.8,0.36-1.8,0.36-4.464,0.36
		c-0.936-0.504-3.096-0.72-3.312-0.936c-0.432,0-0.936,0-1.44,0c-0.36,0.216-0.792,0.432-1.224,0.72
		C206.424,140.04,205.56,140.112,204.624,140.184L204.624,140.184z M148.752,139.248c-0.648-0.144-1.296-0.288-1.944-0.504
		c-1.944-0.936-3.96-1.872-5.976-2.88c-0.936-0.864-1.872-1.728-2.88-2.664c-8.64-3.816-8.64-3.816-11.304-5.256
		c-1.08-0.792-2.232-1.656-3.384-2.52c0.144-0.072,0.288-0.216,0.504-0.36c1.944,0,3.96,0,5.976,0
		c1.08,0.288,2.232,0.576,3.384,0.936c1.152,0.648,2.376,1.296,3.6,1.944c2.808,1.872,5.616,3.816,8.424,5.76
		c3.816,4.104,3.816,4.104,4.536,5.256C149.472,139.248,149.472,139.248,148.752,139.248L148.752,139.248z M149.904,121.968
		c-1.008-0.144-2.016-0.288-3.096-0.504c-2.808-3.456-2.808-3.456-2.808-3.96c1.512-1.224,3.096-2.52,4.68-3.816
		c0.72-0.288,1.44-0.576,2.232-0.864c0.72-0.0721,1.44-0.144,2.16-0.216c2.16,0.432,2.16,0.432,3.312,1.08
		c0.36,0.72,0.36,0.72,0.576,2.88c-0.288,0.72-0.576,1.44-0.936,2.16c-2.52,1.944-2.52,1.944-4.176,2.736
		C151.2,121.608,150.552,121.752,149.904,121.968L149.904,121.968z M349.344,115.92c-1.872-1.224-3.816-2.448-5.76-3.672
		c0-0.288-0.072-0.576-0.144-0.936c0.36-0.432,0.72-0.936,1.08-1.44c1.2239-0.72,2.448-1.512,3.672-2.304c0.36,0,0.72,0,1.152,0
		c0.288,0.36,0.576,0.72,0.864,1.08c0.144,0.864,0.288,1.728,0.432,2.664c-0.144,1.44-0.288,2.88-0.432,4.32
		C349.56,116.064,349.56,116.064,349.344,115.92L349.344,115.92z M337.824,109.008c-0.7921-0.432-1.656-0.864-2.5201-1.296
		c0-0.288,0-0.648,0-1.008c2.16-2.16,2.16-2.16,3.5281-3.024c1.4399-0.432,1.4399-0.432,2.376-1.152
		c0.648,0.072,1.296,0.144,1.944,0.216c0.504,0.288,1.08,0.576,1.656,0.936c0.072,0.288,0.216,0.576,0.36,0.864
		c-1.728,0.864-3.4561,1.8-5.184,2.736c-0.504,0.576-1.08,1.152-1.656,1.728C338.184,109.008,338.04,109.008,337.824,109.008
		L337.824,109.008z M328.968,104.688c-1.368-0.72-2.736-1.512-4.1041-2.304c0-0.216-0.072-0.432-0.1439-0.72
		c1.944-1.872,1.944-1.872,3.312-2.736c1.44-0.576,2.88-1.152,4.32-1.728c0.36,0,0.72,0,1.152,0c0.936,0.432,1.8719,0.936,2.88,1.44
		c0.144,0.864,0.144,0.864-0.216,1.224c-0.432,0.144-0.936,0.288-1.44,0.504c-1.584,1.44-3.168,2.88-4.824,4.32
		C329.616,104.688,329.328,104.688,328.968,104.688L328.968,104.688z M317.952,99.6479c-0.792-0.4319-1.584-0.936-2.448-1.4399
		c0-0.288-0.072-0.576-0.144-0.864c1.944-2.16,1.944-2.16,2.88-3.6c1.296-0.864,2.664-1.8,4.032-2.736c0.576,0,1.2241,0,1.872,0
		c0.864,0.576,0.864,0.576,1.08,1.296c1.152,0.36,2.304,0.72,3.528,1.08c-1.944,0.936-1.944,0.936-5.04,1.944
		c-2.16,2.16-2.16,2.16-5.04,4.3199C318.456,99.6479,318.24,99.6479,317.952,99.6479L317.952,99.6479z M308.592,95.76
		c-1.584-0.432-3.168-0.936-4.824-1.44c0-0.216-0.072-0.504-0.144-0.792c7.344-5.7599,7.344-5.7599,9-6.624
		c1.008,0.072,2.088,0.144,3.168,0.216c0.288,0.432,0.288,0.432,0.288,1.584c-0.7919,0.648-1.5839,1.296-2.376,1.944
		c-0.936,1.44-0.936,1.44-4.176,5.1121C309.24,95.76,308.952,95.76,308.592,95.76L308.592,95.76z M296.784,91.944
		c-1.08-0.432-2.16-0.864-3.24-1.296c0.072-0.36,0.144-0.792,0.216-1.224c0.648-0.936,1.296-1.872,1.944-2.88
		c1.296-0.864,2.592-1.8,3.96-2.736c0.864-0.288,1.728-0.648,2.664-1.008c0.504-0.72,1.08-1.44,1.656-2.16
		c0.72,0.144,0.72,0.144,1.8,0.864c0.504,1.728,0.504,1.728,0.504,2.88c-2.088,1.584-4.176,3.168-6.264,4.824
		c-1.224,1.4399-1.224,1.4399-1.656,2.664C297.864,91.872,297.36,91.872,296.784,91.944L296.784,91.944z M285.048,89.064
		c-1.008-0.216-2.016-0.504-3.024-0.792c0.216-1.008,0.216-1.008,0.72-1.44c0.6479-1.008,1.296-2.088,1.944-3.168
		c1.44-1.224,2.88-2.52,4.392-3.816c1.944-0.936,3.6721-1.368,4.392-1.8c0.216,0,0.432,0,0.72,0.072
		c0.072,0.144,0.144,0.288,0.216,0.504c0.648,0.144,1.296,0.288,1.944,0.504c0,0.216-0.072,0.432-0.144,0.72
		c-1.6559,1.224-3.312,2.52-5.0399,3.816c-0.936,1.296-1.872,2.592-2.88,3.888c-1.224,0.936-1.224,0.936-1.584,1.512
		C286.2,89.064,285.624,89.064,285.048,89.064L285.048,89.064z M166.752,87.768c0.072-0.504,0.144-1.08,0.288-1.656
		c2.088-2.304,4.1761-4.608,6.264-6.984c3.096-4.536,3.096-4.536,11.736-15.624c1.224-0.936,3.168-3.312,15.408-15.552
		c2.52-2.952,5.04-5.9041,7.632-8.928c2.808-2.6641,5.616-5.4,8.424-8.136c4.824-3.816,10.44-7.704,12.816-9.864
		c2.52-1.872,5.04-3.816,7.56-5.76c2.592-1.296,3.024-1.8,11.448-5.616c1.656-0.648,3.312-1.296,5.04-1.944
		c3.312-0.936,6.696-1.872,10.08-2.88c1.008-0.072,2.016-0.216,3.096-0.36c-0.36,1.44-1.296,2.8799-3.24,6.984
		c-0.504,0.504-2.376,4.824-3.384,6.4799c-0.936,2.3761-0.936,2.3761-2.016,3.8161c-6.912,3.7439-6.912,3.7439-9.36,4.6799
		c-2.664,1.872-5.4,3.816-8.136,5.7601c-1.728,1.584-3.456,3.168-5.256,4.824c-2.88,1.872-2.88,1.872-7.704,5.76
		c-2.592,2.52-5.256,5.04-7.92,7.632c-5.256,3.888-5.256,3.888-9.864,7.7039c-0.72,0.72-1.44,1.44-2.16,2.16
		c-7.632,9.864-7.632,9.864-9.576,12.024c-1.224,1.872-2.52,3.816-3.816,5.76c-0.864,1.728-1.728,3.456-2.664,5.256
		C185.184,84.24,168.912,87.624,166.752,87.768L166.752,87.768z M274.032,86.4c-1.08-0.072-2.232-0.144-3.384-0.288
		c0-0.288,0-0.648,0.072-1.008c0.936-1.5121,1.8719-3.024,2.88-4.536c1.728-1.584,3.456-3.1679,5.184-4.824
		c1.584-0.936,3.6-2.736,4.824-3.456c1.512,0.216,3.024,0.432,4.5359,0.72c0,0.432,0.072,0.864,0.144,1.296
		c-1.0801,0.576-2.16,1.152-3.2401,1.8c-1.4399,1.368-2.8799,2.736-4.3199,4.104c-1.656,2.016-3.312,4.1039-5.04,6.192
		C275.184,86.4,274.608,86.4,274.032,86.4L274.032,86.4z M263.232,84.96c-1.08-0.072-2.232-0.144-3.384-0.288
		c0-0.288-0.072-0.648-0.144-1.008c1.944-2.88,1.944-2.88,5.76-7.2c2.16-1.872,3.096-3.0961,7.56-6.912
		c0.432-0.288,0.936-0.576,1.44-0.864c0.792,0,1.584,0,2.448,0c0.36,0.144,0.72,0.36,1.152,0.576
		c-0.288,0.432-0.576,0.864-0.936,1.296c-0.504,0.288-1.08,0.648-1.656,1.008c-0.936,0.936-1.8719,1.872-2.88,2.88
		c-0.864,0.576-1.728,1.224-2.664,1.872c-1.512,2.016-3.096,4.104-4.68,6.192c-0.288,0.792-0.576,1.584-0.864,2.448
		C264.024,84.96,263.664,84.96,263.232,84.96L263.232,84.96z M251.424,84.024c-1.584-0.144-3.168-0.288-4.752-0.504
		c-0.144-1.008-0.144-1.008,0.288-2.016c4.104-3.816,5.544-4.752,13.968-12.96c2.376-1.872,2.376-1.872,6.84-6.336
		c0.288,0,0.576,0,0.936,0c0.504,0.792,0.504,0.792,2.448,2.016c-2.16,1.656-2.16,1.656-8.928,7.776
		c-3.816,4.104-3.816,4.104-7.632,8.784c-0.864,1.44-0.864,1.44-1.368,3.168C252.648,83.952,252.072,83.952,251.424,84.024
		L251.424,84.024z M239.472,82.8c-1.728-0.216-3.456-0.504-5.184-0.792c0-0.216,0-0.432,0-0.72c0.576-0.864,1.224-1.728,1.872-2.664
		c2.016-2.16,4.032-4.32,6.12-6.48c4.968-3.816,6.84-5.76,12.168-9.576c0.72-0.648,1.44-1.296,2.232-1.944
		c2.376-1.512,4.824-3.096,7.272-4.68c0.288,0,0.576,0,0.936-0.072c0,0.504-0.072,1.08-0.144,1.656
		c-5.04,5.04-10.08,10.08-15.12,15.12c-1.008,0.648-2.016,1.296-3.024,1.944c-3.4561,3.096-3.4561,3.096-5.4001,5.472
		c-0.936,2.16-0.936,2.16-1.512,2.88C239.616,82.944,239.544,82.872,239.472,82.8L239.472,82.8z M198.432,82.728
		c0.072-0.504,0.144-1.08,0.288-1.656c0.648-1.152,1.296-2.376,1.944-3.6c3.816-5.328,3.816-5.328,11.52-15.12
		c1.224-1.008,1.656-1.728,8.28-7.7039c0.576-0.2881,1.152-0.576,1.8-0.936c2.88-2.592,5.832-5.256,8.784-7.92
		c4.752-3.8879,9.504-7.848,14.256-11.808c1.872-1.2239,3.744-2.52,5.616-3.816c2.448-1.2239,4.968-2.448,7.4881-3.744
		c2.664-0.504,2.664-0.504,3.384-0.36c0.144,0.288,0.288,0.576,0.432,0.936c-0.072,2.52-0.216,5.1119-0.36,7.704
		c-0.288,1.008-0.5759,2.088-0.936,3.168c-6.048,3.816-6.048,3.816-11.088,7.632c-2.16,1.944-2.16,1.944-4.896,3.744
		c-1.224,1.224-2.5201,2.52-3.816,3.816c-1.728,1.2241-3.456,2.52-5.256,3.816c-2.952,2.52-5.904,5.1119-8.928,7.704
		c-1.872,2.16-4.32,4.32-6.192,6.48c-1.728,1.44-3.6,3.816-4.824,4.896c-0.432,0.792-0.864,1.584-1.368,2.448
		c-0.144,1.008-0.288,2.016-0.432,3.096C213.048,81.864,208.224,81.864,198.432,82.728L198.432,82.728z M224.568,82.08
		c-1.584,0-3.168,0-4.824-0.072c0.072-0.72,0.216-1.44,0.36-2.16c1.296-1.8,2.592-3.672,3.96-5.544
		c2.736-2.664,5.472-5.4,8.28-8.136c2.952-2.592,5.976-5.256,9-7.92c2.88-1.944,2.88-1.944,5.4-4.104
		c0.936-1.152,3.744-3.0961,8.136-6.912c2.376-1.44,4.752-2.952,7.128-4.4639c0.288,0,0.576,0,0.936,0.072
		c0,1.224,0.072,2.4481,0.144,3.6721c-0.144,1.584-0.288,3.168-0.504,4.752c-2.88,1.872-5.76,3.744-8.712,5.616
		c-4.608,3.888-7.488,5.7599-11.808,9.648c-0.936,0.576-1.872,1.224-2.88,1.872c-3.816,4.1039-3.816,4.1039-7.92,7.92
		c-1.872,2.52-1.872,2.52-3.816,5.76C226.512,82.08,225.576,82.08,224.568,82.08L224.568,82.08z"/>
</g>
</svg>
