<?xml version="1.0" encoding="utf-8"?>
<!-- Generator: Adobe Illustrator 21.1.0, SVG Export Plug-In . SVG Version: 6.00 Build 0)  -->
<svg version="1.1" id="Nauc" xmlns="http://www.w3.org/2000/svg" xmlns:xlink="http://www.w3.org/1999/xlink" x="0px" y="0px"
	 viewBox="0 0 413.496 347.49" enable-background="new 0 0 413.496 347.49" xml:space="preserve">
<g>
	<path fill-rule="evenodd" clip-rule="evenodd" d="M77.4,347.49c-1.44-0.288-2.88-0.648-4.32-1.008
		c-0.648-0.288-1.296-0.576-1.944-0.936c-1.44-1.224-2.88-2.52-4.32-3.816c-0.72-1.008-1.512-2.016-2.304-3.024
		c-0.576-1.944-1.224-3.96-1.872-5.976c-0.288-3.024-0.648-6.048-1.008-9.144c-0.144-0.36-0.36-0.72-0.576-1.08
		c-10.08,0.72-13.392,1.224-19.872,1.656c-8.928-0.432-8.928-0.432-16.344-1.152c-1.224-0.288-2.52-0.648-3.816-1.008
		c-2.952-1.224-5.904-2.52-8.928-3.816c-4.32-3.816-4.32-3.816-8.136-7.92c-1.8-2.736-1.8-2.736-2.808-4.896
		c-0.216-0.936-0.432-1.872-0.72-2.88c0-1.152,0-2.376,0-3.6c0.288-1.152,0.648-2.376,1.008-3.5999
		c2.232-4.392,4.464-8.784,6.696-13.1761c2.88-8.424,2.88-8.424,5.76-15.84c0.936-5.328,0.936-5.328,1.224-10.08
		c-0.144-0.936-0.288-1.872-0.504-2.88c-0.792-1.656-1.584-3.312-2.376-5.04c0.072-0.288,0.144-0.6479,0.216-1.008
		c0.648-0.72,1.296-1.44,2.016-2.16c8.424-1.8,8.424-1.8,10.368-2.52c5.544-0.504,5.544-0.504,21.6-1.224
		c5.76,0.504,5.76,0.504,10.8,1.44c1.008,0.288,2.016,0.648,3.096,1.008c1.152,0.144,2.376,0.288,3.6,0.432
		c1.728,0.648,3.528,1.296,5.328,1.944c1.08,0.144,2.16,0.288,3.312,0.504c0.072-0.0721,0.144-0.216,0.288-0.36
		c-1.728-1.584-3.528-3.168-5.328-4.824c-0.072-0.576-0.144-1.224-0.216-1.872c0.432,0,0.936-0.072,1.44-0.144
		c0.36-0.36,0.792-0.792,1.224-1.224c1.44-0.648,2.88-1.296,4.32-1.944c4.32-0.936,4.32-0.936,8.352-1.44
		c1.512,0,3.024,0,4.608-0.072c0-0.288-0.072-0.576-0.144-0.936c-0.72-0.72-1.512-1.512-2.304-2.304
		c-2.16,0.072-4.32,0.144-6.48,0.216c-2.52,0.36-5.04,0.792-7.632,1.224c-1.296,0-2.592,0-3.888,0
		c-2.304-0.648-4.608-1.2961-6.912-1.944c-1.872-0.936-3.816-1.872-5.76-2.88c-0.648-0.648-1.296-1.2961-1.944-2.016
		c-3.816-6.048-3.816-6.048-7.704-11.52c-1.872-2.088-1.872-2.088-5.472-4.968c-1.872-0.576-3.816-1.224-5.76-1.872
		c-1.152-0.648-2.376-1.296-3.6-1.944c-0.072-0.576-0.144-1.152-0.288-1.8c1.44-0.288,2.88-0.576,4.32-0.864
		c3.096-0.216,6.192-0.432,9.36-0.72c2.448,0.288,4.968,0.648,7.488,1.008c8.352,1.872,8.352,1.872,14.616,3.6
		c0.072-0.072,0.144-0.216,0.216-0.36c-2.736-3.456-5.544-6.912-8.352-10.44c-2.16,0-2.16,0-4.32-0.504
		c-0.288-0.144-0.648-0.288-1.008-0.504c-4.464-0.576-8.928-1.224-13.392-1.872c-3.384-1.008-3.384-1.008-7.488-2.88
		c-1.008-0.648-2.016-1.296-3.096-1.944c-0.648-0.648-1.296-1.296-1.944-1.944c-1.224-1.872-2.448-3.744-3.744-5.616
		c-0.936-2.952-1.872-5.904-2.88-8.856c-1.872-2.8799-1.872-2.8799-3.6-4.8239c-1.656-1.224-3.312-2.5201-5.04-3.816
		c-0.72-0.936-1.44-1.872-2.16-2.88c0-0.216,0.072-0.432,0.144-0.648c2.16-0.432,2.16-0.432,4.32-0.432
		c5.76,1.872,11.52,3.8159,17.28,5.7599c12.96,5.76,12.96,5.76,13.968,5.904c0-0.432-0.072-0.936-0.144-1.44
		c-2.88-5.76-2.88-5.76-3.528-7.92c-4.248-2.52-8.496-5.112-12.816-7.704c-4.32-3.816-4.32-3.816-8.136-7.92
		c-1.584-2.232-3.168-4.464-4.824-6.696c-3.816-9.36-3.816-9.36-5.76-13.464c-0.648-1.008-1.296-2.016-1.944-3.096
		c-6.48-5.76-6.48-5.76-6.912-6.48c0-0.432,0.072-0.936,0.144-1.44c1.512,0,3.024-0.072,4.536-0.144
		c5.256,2.52,10.512,5.04,15.84,7.632c3.888,2.592,7.776,5.256,11.736,7.92c0.36,0,0.72,0,1.08-0.072
		c0.216-1.584,0.432-3.168,0.72-4.824c-0.36-0.36-0.36-0.36-4.896-1.296c-1.8-1.296-3.672-2.592-5.544-3.888
		c-1.872-1.872-1.872-1.872-3.744-4.608c-0.576-2.088-1.224-4.176-1.872-6.264c-0.792-4.104-1.584-8.28-2.448-12.456
		c-0.288-5.76-0.576-11.52-0.936-17.28c-0.936-3.168-0.936-3.168-2.88-7.92c-0.648-1.008-1.296-2.088-1.944-3.168
		c-0.216-0.792-0.432-1.584-0.72-2.376c0.144-0.216,0.288-0.4319,0.432-0.648c1.152,0.072,2.376,0.144,3.6,0.288
		c1.872,0.936,1.872,0.936,7.2,4.752c2.592,2.304,2.592,2.304,6.48,6.768c1.224,1.872,2.52,3.744,3.816,5.616
		c0.648,1.224,1.296,2.448,1.944,3.744c0.144,0,0.36-0.072,0.576-0.144c0.144-1.512,0.288-3.024,0.432-4.536
		c1.944-6.4799,1.944-6.4799,2.88-8.64c0.936-1.368,1.872-2.736,2.88-4.104c0.576-0.504,1.152-1.08,1.728-1.656
		c0-0.72,0-1.44,0-2.16c-0.648-0.72-0.648-0.72-6.48-13.464c-0.792-2.304-1.584-4.608-2.448-6.912
		c-0.288-1.728-0.576-3.528-0.936-5.328c0-3.0961,0-6.192,0-9.36c0.144-1.4401,0.288-2.88,0.504-4.32
		c0.576-2.304,1.224-4.6081,1.872-6.9121c0.576-1.5839,1.224-3.1679,1.872-4.8239c0.216,0,0.432-0.072,0.72-0.144
		c0.864,0.288,1.728,0.576,2.592,0.936c1.008,1.08,2.88,4.32,6.768,9.6479C48.24,29.61,48.24,29.61,50.112,33.426
		c0.648,1.584,1.296,3.168,1.944,4.8239c0.36,2.16,0.72,4.3201,1.08,6.48c0.576-0.288,1.152-0.576,1.728-0.864
		c1.512-1.224,3.024-2.52,4.536-3.816c5.976-3.8879,5.976-3.8879,12.456-7.7039c0.936-0.288,1.872-0.576,2.88-0.936
		c1.8-0.216,3.672-0.432,5.544-0.72c1.656-1.0079,1.656-1.0079,2.376-1.0079c1.008,0.72,2.088,1.4399,3.168,2.16
		c0.288,1.368,0.288,1.368,0.072,3.024c-3.816,6.048-3.816,6.048-5.76,8.64c-2.592,2.88-5.256,5.76-7.92,8.64
		c-4.536,3.888-4.536,3.888-8.424,7.704c-2.952,1.8719-5.976,3.8159-9,5.7599c-1.512,0.648-3.024,1.2961-4.536,1.944
		c0,0.36-0.072,0.72-0.144,1.152c0.648,1.44,1.296,2.88,1.944,4.32c0.432,2.088,0.936,4.176,1.44,6.264c0,1.368,0,2.736,0,4.104
		c-0.648,2.5201-1.296,5.04-1.944,7.632c-0.576,1.296-1.224,2.592-1.872,3.888c-3.888,5.976-4.824,7.92-5.76,9.072
		c-0.288,0.216-0.648,0.432-1.008,0.72c-0.936,7.488-0.936,7.488-1.872,11.808c0,1.296-0.072,2.664-0.144,4.032
		c0.216,0,0.432-0.072,0.72-0.144c1.296-1.872,2.592-3.816,3.888-5.76c1.584-1.656,3.168-3.312,4.752-5.04
		c1.44-0.936,1.44-0.936,5.76-2.88c4.104-0.432,4.104-0.432,5.328-0.216c0.432,0.288,0.864,0.576,1.296,0.864
		c0.072,0.432,0.144,0.936,0.216,1.44c-2.88,6.264-2.88,6.264-4.32,10.08c-1.944,14.616-1.944,14.616-2.88,19.944
		c-1.944,6.912-1.944,6.912-3.816,11.952c-1.296,2.304-2.592,4.608-3.888,6.984c-0.432,0.504-0.936,1.08-1.44,1.656
		c0.072,1.08,0.144,2.232,0.288,3.384c0.288,1.008,0.576,2.016,0.936,3.096c1.008,2.088,2.016,4.176,3.024,6.2639
		c0.36-0.216,0.36-0.216,2.232-7.92c1.584-3.888,3.168-7.776,4.824-11.736c1.728-2.52,3.456-5.112,5.256-7.704
		c0.432-0.216,0.864-0.432,1.368-0.648c1.224,0,2.52,0,3.816,0c0.36,0.36,0.792,0.72,1.224,1.08c-0.36,0.504-0.36,0.504-0.36,1.944
		c-1.008,1.944-1.008,1.944-2.448,6.768c-0.144,2.016-0.288,4.104-0.432,6.192c0.072,1.656,0.144,3.312,0.216,5.04
		c0.936,3.888,2.88,9.144,3.384,11.52c0,4.32,0,4.32-0.504,10.08c-0.288,1.584-0.576,3.168-0.936,4.824
		c-0.648,1.872-1.296,3.816-1.944,5.76c-0.216,0.288-0.432,0.576-0.72,0.936c0,0.36,0,0.792,0,1.224
		c1.872,2.232,3.816,4.464,5.76,6.696c0.936,1.728,1.44,2.16,2.376,3.888c0.288,0.36,0.648,0.72,1.008,1.152
		c0.288,0,0.576,0.072,0.864,0.144c0.072-4.104,0.144-8.208,0.288-12.384c0.432-2.376,0.936-4.752,1.44-7.2
		c1.008-2.592,1.008-2.592,2.88-9.36c0.936-1.2961,1.872-2.664,2.88-4.032c1.008-0.864,2.016-1.728,3.024-2.592
		c2.448-0.432,2.448-0.432,4.824-0.288c0.576,1.152,0.576,1.152,0.792,3.312c-0.288,1.584-0.576,3.168-0.936,4.824
		c0,1.656,0,3.312,0,5.04c0.936,6.264,0.936,6.264,2.88,16.056c0.648,2.448,1.296,4.968,1.944,7.488
		c0.072,2.304,0.144,4.608,0.216,6.912c-0.72,4.752-1.44,9.576-2.16,14.4c1.944,1.944,1.944,1.944,4.68,3.888
		c0.288,0.072,0.648,0.144,1.008,0.288c0.216,0.432,0.504,0.864,0.792,1.368c1.512,0.576,3.096,1.152,4.68,1.8
		c1.728,0.216,3.528,0.432,5.328,0.72c0-0.288,0-0.576,0.072-0.864c-1.584-4.896-3.168-9.864-4.824-14.832
		c-0.288-2.232-0.576-4.464-0.936-6.768c-0.072-2.88-0.144-5.76-0.216-8.64c-0.504-0.936-0.504-0.936-0.576-2.592
		c0.72-0.216,1.44-0.432,2.16-0.648c0.792,0,1.584,0,2.376,0c1.44,0.936,1.44,0.936,7.2,5.76c1.224,1.584,2.52,3.168,3.816,4.8239
		c1.296,1.944,2.592,3.9601,3.888,5.976c1.728,3.528,1.728,3.528,3.672,9c0.504,4.104,0.504,4.104,0.72,9.144
		c-0.072,2.808-0.144,5.616-0.216,8.424c0.144,0.648,0.36,1.368,0.576,2.088c0.432,0,0.936,0.072,1.44,0.144
		c0.936-0.36,1.872-0.792,2.88-1.224c1.44-0.288,2.88-0.576,4.32-0.936c0.72-0.288,1.44-0.576,2.16-0.936
		c1.512-0.144,3.024-0.288,4.608-0.504c9.36-1.944,10.296-2.376,13.392-2.88c1.008-0.504,1.008-0.504,6.048-1.44
		c0.936-0.072,1.872-0.144,2.88-0.216c0.144-0.144,0.288-0.288,0.432-0.504c2.88-0.504,4.608-0.504,4.824-0.72
		c15.12-0.936,15.12-0.936,15.624-1.224c4.032-0.432,4.032-0.432,25.416-1.152c14.616,0,14.616,0,24.696,0.432
		c3.168,0.504,16.344,1.44,23.76,2.448c0.72,0.216,1.44,0.432,2.16,0.72c2.952,0.288,5.904,0.576,8.928,0.936
		c9.576,1.944,9.576,1.944,19.44,3.384c0.288,0,0.648-0.0721,1.008-0.144c-0.216-4.32-0.216-4.32,0-10.08
		c1.008-5.472,1.44-9.36,2.448-13.68c0-0.576,0.072-1.224,0.144-1.872c-0.72,0.072-1.4399,0.144-2.16,0.288
		c-0.72,0.288-1.44,0.648-2.16,1.008c-1.296,0.936-2.592,1.944-3.888,2.952c-0.144,0.288-0.288,0.576-0.432,0.864
		c-0.288,0.072-0.648,0.144-1.008,0.216c-0.864-2.016-1.296-2.448-3.24-7.488c-0.648-1.2961-1.296-2.592-1.944-3.888
		c-3.816-4.752-3.816-4.752-7.272-8.28c-0.216,0-0.432,0-0.72,0c-1.224,1.368-2.5201,2.736-3.816,4.104
		c-5.76,3.816-8.208,5.7599-11.52,7.632c-3.6,1.584-7.2,3.168-10.8,4.824c-2.016,0.648-4.032,1.296-6.048,1.944
		c-7.704,1.44-15.48,2.88-23.256,4.32c-4.32,0.144-8.64,0.288-12.9601,0.432c-3.744-0.216-7.4879-0.432-11.304-0.72
		c-3.816-0.576-7.632-1.224-11.52-1.872c-5.976-1.944-5.976-1.944-15.84-5.76c-1.656-1.008-1.656-1.008-6.192-2.88
		c-2.88-2.448-2.88-2.448-3.888-2.88c-0.36-0.576-0.72-1.152-1.152-1.728c-0.288,0-0.648,0-1.008,0
		c-0.36,0.36-0.72,0.792-1.152,1.224c-0.432,0.144-0.936,0.288-1.44,0.504c-2.52,3.4561-5.112,6.984-7.704,10.512
		c-1.8,4.032-1.8,4.032-2.808,5.472c-0.432,0.288-0.864,0.576-1.296,0.936c-1.368-0.504-2.736-1.08-4.176-1.656
		c-0.288-0.936-0.648-1.872-1.008-2.88c-0.576-0.792-1.224-1.584-1.872-2.448c-0.864-0.576-1.728-1.224-2.664-1.872
		c-0.072-0.288-0.144-0.648-0.216-1.008c4.752-4.032,4.752-4.032,8.136-7.416c0.288-0.432,0.576-0.936,0.936-1.44
		c2.664-1.944,2.664-1.944,5.544-4.824c0-0.288,0-0.576,0-0.936c-4.104-4.104-5.976-6.4799-9.864-10.584
		c-1.224-1.584-2.52-3.168-3.816-4.752c-2.52-4.536-5.112-9.072-7.704-13.68c-0.936-2.16-1.872-4.32-2.88-6.48
		c-1.872-6.9839-1.872-6.9839-3.816-12.24c-0.936-4.824-0.936-4.824-3.384-13.464c-0.432-5.256-0.432-5.256-0.936-6.984
		c0-7.2,0-7.2,0.36-10.08c-1.152,0.36-1.152,0.36-2.16,1.296c-0.576,1.08-1.224,2.16-1.872,3.24
		c-0.432,1.296-0.864,2.592-1.368,3.888c-1.296,0.792-1.296,0.792-2.52,1.08c-0.792,0-1.584,0-2.376,0
		c-0.432-0.144-0.936-0.288-1.44-0.504c-3.744-7.272-5.688-10.152-7.56-13.536c-2.52-2.952-5.112-5.904-7.704-8.856
		C68.4,98.73,66.456,96.57,65.52,95.13c-3.888-4.536-3.888-4.536-5.76-7.2c-0.648-1.08-1.296-2.232-1.944-3.384
		c-0.36-1.728-0.792-3.456-1.224-5.256c0-1.8,0-3.672,0-5.544c1.44-3.816,1.44-3.816,2.448-5.472c0.72-0.648,1.44-1.296,2.232-1.944
		c1.368-0.576,2.736-1.1519,4.104-1.8c1.656-0.288,3.312-0.648,5.04-1.008c4.536-0.144,9.072-0.288,13.68-0.432
		c3.096-0.936,6.192-1.872,9.36-2.88c1.656-0.936,3.312-1.872,5.04-2.88c1.44-1.296,2.88-2.5919,4.32-3.8879
		c1.944-2.3761,4.104-4.3201,10.08-11.52c4.824-2.376,4.824-2.376,5.04-2.7361c-3.816-6.4799-3.816-6.4799-4.896-9.0719
		c0-0.8641,0-1.728,0-2.664c0.936-1.224,0.936-1.224,1.44-2.664c0.504-0.2881,1.008-0.576,1.584-0.864c0.432,0,0.936,0,1.44,0
		c0.504,0.288,1.08,0.648,1.656,1.0079c1.944,2.88,3.816,4.7521,9.576,12.4561c1.944,1.944,5.76,6.9839,7.704,8.856
		c4.104,5.256,8.28,10.512,12.456,15.84c0.288,0,0.576,0,0.864-0.072c0-0.216,0.072-0.432,0.144-0.72
		c7.416-3.744,7.416-3.744,15.84-8.568c11.952-3.816,11.952-3.816,16.992-5.76c3.6-0.936,7.2-1.872,10.8-2.88
		c7.92-0.936,7.92-0.936,13.464-1.152c9.36,0.432,9.36,0.432,19.44,1.44c3.024,0.576,6.048,1.2241,9.144,1.872
		c4.608,2.5201,9.216,5.1121,13.896,7.704c0.936,0.936,0.936,0.936,5.544,3.816c0.576,0.648,1.224,1.368,1.872,2.0881
		c0.216,0.5039,0.432,1.0799,0.72,1.6559c1.08-1.1519,3.024-4.3199,3.96-5.256c3.816-6.048,7.632-12.096,11.52-18.216
		c7.704-8.928,7.704-8.928,15.336-18.504c0.72-0.576,1.512-1.152,2.304-1.8c1.584,0,3.168,0,4.824,0
		c0.432,0.288,0.936,0.5759,1.44,0.936c0.432,0.6479,0.864,1.368,1.296,2.0879c0,0.432,0,0.936,0,1.4401
		c-0.2881,0.72-0.576,1.44-0.936,2.16c-1.368,1.5839-2.7361,3.168-4.104,4.752c0.072,0.4321,0.144,0.936,0.216,1.4401
		c1.584,1.512,3.168,3.024,4.824,4.608c0.936,0.648,1.872,1.296,2.808,2.0159c7.416,4.032,7.416,4.032,13.68,7.92
		c5.256,1.584,10.5121,3.168,15.84,4.752c1.656,0.648,3.312,1.296,5.04,1.944c3.096,1.944,3.096,1.944,6.192,4.5359
		c0.6479,0.792,1.296,1.656,1.944,2.52c2.52,4.32,5.0399,8.64,7.56,13.032c0.936,2.376,0.936,2.376,1.872,6.192
		c-0.072,1.296-0.144,2.592-0.216,3.888c-0.2881,0.792-0.576,1.584-0.936,2.376c-2.16,2.664-5.544,5.76-7.488,8.136
		c-1.224,2.88-2.52,5.7599-3.816,8.64c-2.376,3.888-2.376,3.888-2.88,4.32c-0.432,1.008-0.936,2.088-1.44,3.168
		c-0.216,1.656-0.216,1.656-0.72,2.376c-0.504,0.288-1.08,0.576-1.656,0.936c-0.936,1.368-1.872,2.736-2.88,4.104
		c-1.44,0.936-3.384,3.096-8.064,6.984c-5.544,3.816-5.544,3.816-13.464,8.64c-4.968,1.728-4.968,1.728-7.416,2.232
		c-1.44,0.072-2.952,0.216-4.464,0.36c0.504,5.328,0.504,5.328,0.504,11.808c-1.44,10.512-1.44,10.512-1.944,12.24
		c-0.576,3.6-1.224,7.2-1.872,10.8c-2.88,8.136-2.88,8.136-5.76,15.336c-1.296,2.304-2.592,4.608-3.888,6.9839
		c-1.872,2.16-3.744,4.32-5.616,6.552c-0.864,0.216-1.728,0.432-2.664,0.648c0,0.288,0,0.576-0.072,0.936
		c0.936,1.224,3.312,3.384,7.416,8.136c0.648,0.864,1.296,1.728,1.944,2.664c1.224,0.936,2.448,1.872,3.672,2.88
		c1.728,0.792,4.608,2.736,6.552,3.672c0.216-0.072,0.432-0.144,0.72-0.216c0.72-2.376,1.44-4.824,2.2321-7.272
		c-0.0721-0.216-0.216-0.504-0.36-0.792c0.36,0,0.792,0,1.224-0.072c1.944-2.664,1.944-2.664,6.552-7.56
		c0.504-1.656,0.504-1.656,1.584-3.384c0.576-0.432,1.584-2.376,2.16-2.736c2.664,0,2.664,0,3.888,0.432
		c0.2881,0.648,0.2881,0.648,0.576,18.432c-0.288,5.04-0.576,10.08-0.864,15.12c1.296-0.576,2.592-1.224,3.888-1.872
		c1.008-0.72,2.088-1.44,3.168-2.232c-0.072-0.864-0.144-1.728-0.216-2.664c-0.288-1.0081-0.576-2.0161-0.936-3.096
		c-0.144-1.368-0.288-2.736-0.504-4.104c0.36-3.24,0.792-6.48,1.224-9.792c0.288-0.576,0.576-1.152,0.936-1.728
		c0.648-2.16,1.296-4.32,1.944-6.48c0.288-2.952,0.576-5.904,0.936-8.856c-0.072-3.2401-0.144-6.552-0.216-9.864
		c-0.144-1.08-0.288-2.16-0.504-3.312c-0.504-1.368-1.08-2.736-1.656-4.104c0.072-0.432,0.144-0.936,0.216-1.4399
		c0.36-0.432,0.72-0.936,1.08-1.44c1.008-0.36,1.008-0.36,4.104-0.36c0.288,0.144,0.576,0.288,0.936,0.432
		c1.296,1.728,2.592,3.528,3.888,5.328c2.7361,4.68,2.7361,4.68,4.608,8.496c0.792,3.456,1.584,6.912,2.448,10.368
		c0.72,13.392,0.72,13.392,1.08,14.4c2.016-1.944,2.016-1.944,3.96-4.32c1.872-2.88,1.872-2.88,5.04-6.768c0-0.216,0-0.432,0-0.72
		c-0.72-0.576-1.44-1.224-2.16-1.872c-0.648-1.008-1.296-2.088-1.944-3.168c-0.648-1.512-1.296-3.024-1.944-4.536
		c-0.216-1.224-0.432-2.5201-0.72-3.816c0-3.888,0-3.888,0.504-10.368c0.936-3.816,0.936-3.816,4.824-16.272
		c0.072-1.44,0.144-2.88,0.216-4.32c-0.648-2.088-1.296-4.176-1.944-6.264c-0.504-0.72-1.08-1.44-1.656-2.16
		c0.216-1.944,0.216-1.944,0.576-2.88c0.504-0.36,0.504-0.36,2.448-0.864c1.944,0.216,1.944,0.216,3.384,0.72
		c4.752,3.816,4.752,3.816,6.912,5.976c1.944,2.88,1.944,2.88,3.744,6.624c1.872,5.76,1.872,5.76,3.456,12.24
		c0.216,0,0.432-0.0721,0.72-0.144c0.576-1.512,1.152-3.024,1.8-4.608c0.936-3.888,1.944-6.264,2.88-9.6479
		c0-0.432-0.072-0.936-0.144-1.44c-0.432-0.216-0.432-0.216-1.512-2.376c-0.36-0.288-0.792-0.576-1.224-0.936
		c-3.816-4.824-3.816-4.824-5.76-7.704c-1.944-4.3199-1.944-4.3199-2.376-5.976c-0.288-2.736-0.648-5.472-1.008-8.208
		c-1.872-5.904-3.816-11.808-5.76-17.712c-0.072-0.792-0.144-1.584-0.216-2.448c0.504-1.656,0.504-1.656,1.08-2.52
		c1.224-0.504,1.224-0.504,3.888-0.936c1.872,0.72,1.872,0.72,5.256,2.592c0.864,1.224,1.8,2.448,2.736,3.744
		c0.864,0.648,1.728,1.296,2.664,1.944c2.16,3.24,4.32,6.552,6.552,9.864c0.216-0.216,0.432-0.432,0.648-0.72
		c0.216-2.16,0.432-4.32,0.72-6.48c-0.792-2.592-1.584-5.256-2.448-7.92c-0.648-0.144-1.296-0.288-2.016-0.504
		c-1.872-2.736-3.816-5.472-5.76-8.28c-3.816-6.84-3.816-6.84-5.616-10.944c-1.944-5.472-1.944-5.472-3.888-12.672
		c-0.216-2.016-0.432-4.032-0.72-6.048c0-2.952,0-5.904,0-8.856c-0.144-0.432-0.36-0.864-0.576-1.368c-4.536,0-4.536,0-9.072-0.432
		c-1.296-0.432-2.592-0.936-3.888-1.44c-0.864-0.72-1.728-1.44-2.592-2.16c-4.032-4.32-8.136-8.712-12.24-13.1041
		c-1.656-2.5919-3.312-5.256-4.968-7.9199c-2.16-1.872-3.384-3.312-5.904-5.256c0-0.432,0-0.936-0.072-1.4401
		c0.72-0.4319,1.512-0.864,2.304-1.3679c0.936,0,1.872,0,2.88,0c3.6,0.6479,7.2,1.2959,10.8,1.944
		c3.4561,1.224,6.984,2.52,10.5121,3.816c1.8,0.936,3.672,1.872,5.544,2.88c5.76,4.824,5.76,4.824,7.2,6.48
		c0.144,0,0.36,0,0.576-0.072c0.288-2.448,0.576-4.896,0.936-7.416c0.648-2.376,1.296-4.752,1.944-7.2001
		c2.232-5.3999,4.464-10.8719,6.696-16.3439c1.944-3.0961,1.944-3.0961,3.024-4.1041c2.448-0.3599,2.448-0.3599,3.888-0.2159
		c0.072,1.2239-0.144,1.656-0.072,3.0959c0.072,0.1441,0.216,0.2881,0.36,0.504c0.144,2.952,0.288,5.9041,0.504,8.8561
		c0.432,3.4559,0.936,6.912,1.44,10.368c0.072,3.0239,0.144,6.048,0.216,9.072c-0.432,6.7679-0.432,6.7679-0.432,12.024
		c-1.008,8.424-1.008,8.424-1.4399,9.576c0.072,0.432,0.144,0.936,0.216,1.44c1.584,3.312,3.168,6.696,4.824,10.08
		c1.44,6.048,1.44,6.048,1.8,6.48c2.016-2.88,3.96-5.04,7.776-10.296c1.224-0.936,1.224-0.936,4.32-4.32
		c0.936-1.656,0.936-1.656,2.16-2.88c0.576-0.288,1.152-0.576,1.8-0.864c0.6479-0.072,1.296-0.144,1.944-0.216
		c0.288,0.504,0.576,1.008,0.936,1.512c-0.288,0.72-0.576,1.44-0.864,2.232c-0.288,1.872-0.576,3.816-0.936,5.76
		c-0.144,6.12-0.288,12.24-0.504,18.432c-0.576,3.024-1.224,6.048-1.872,9.144c-0.648,1.656-1.296,3.312-1.944,5.04
		c-1.224,1.6559-2.52,3.312-3.816,5.0399c-1.08,0.936-2.232,1.872-3.384,2.88c-1.224,1.44-2.52,2.88-3.816,4.32
		c0,3.384-0.288,3.816-0.72,8.64c0,1.224,0,2.52,0.072,3.816c0.648-0.432,0.648-0.432,4.464-5.472c4.32-3.888,4.32-3.888,9.36-7.704
		c2.952-1.872,5.976-3.744,9-5.688c1.152-0.2881,2.376-0.576,3.6-0.936c1.584,0,3.168-0.072,4.824-0.144
		c0.288,0.144,0.576,0.288,0.936,0.504c0.072,0.72,0.216,1.44,0.36,2.16c-1.296,0.576-2.5919,1.152-3.96,1.8
		c-0.72,0.648-1.44,1.296-2.16,1.944c-1.872,2.952-1.872,2.952-4.68,8.784c-0.504,1.872-0.504,1.872-1.944,12.24
		c-0.288,0.792-0.576,1.584-0.936,2.376c-0.648,0.936-1.296,1.872-2.016,2.88c-1.368,1.224-2.808,2.52-4.248,3.8159
		c-2.232,1.2961-4.536,2.592-6.84,3.888c-1.8,1.224-3.6,2.52-5.4,3.816c-0.936,1.224-1.872,2.52-2.88,3.816
		c-0.72,0.432-1.44,0.936-2.232,1.44c-0.216,0.288-0.432,0.648-0.648,1.008c-1.224,4.392-2.448,8.784-3.672,13.176
		c0.504-0.288,1.08-0.576,1.656-0.864c2.736-2.52,5.472-5.112,8.208-7.704c3.24-2.52,6.48-5.04,9.792-7.632
		c3.384-1.944,3.384-1.944,7.704-3.888c2.8799-0.936,2.8799-0.936,4.32-1.152c0.936,0,1.8719,0,2.88,0.072
		c0.216,0.504,0.504,1.008,0.792,1.512c-0.0719,0.504-0.144,1.008-0.288,1.512c-0.864,0.288-1.728,0.576-2.6639,0.936
		c-1.6561,1.944-3.312,3.888-5.04,5.904c-1.8,4.608-1.8,4.608-3.744,11.304c-1.944,4.104-1.944,4.104-3.816,7.2
		c-3.888,4.536-3.888,4.536-6.048,6.48c-0.864,0.648-1.8,1.296-2.736,1.944c-2.232,0.864-4.464,1.8-6.696,2.736
		c-3.384,0.936-6.84,1.872-10.296,2.88c-1.152,0.936-2.376,1.872-3.6,2.88c-0.936,0.288-1.872,0.576-2.88,0.936
		c-0.648,0.864-1.296,1.8-1.944,2.736c-0.36,0.936-0.792,1.944-1.224,2.952c4.32-1.584,8.64-3.168,12.96-4.752
		c3.816-0.936,7.632-1.872,11.52-2.88c1.872-0.216,3.816-0.432,5.76-0.72c1.152,0.144,2.376,0.288,3.6,0.504
		c0.36,0.504,0.792,1.08,1.224,1.656c0,0.504,0,1.008,0.072,1.584c-0.144,0.144-0.288,0.288-0.432,0.504
		c-1.44,0-2.952,0-4.4641,0.072c-1.44,0.648-2.88,1.296-4.32,1.944c-2.592,1.944-2.592,1.944-4.536,3.816
		c-1.944,3.24-1.944,3.24-3.744,6.912c-1.224,1.728-2.52,3.456-3.816,5.256c-1.944,1.944-1.944,1.944-6.984,5.76
		c-8.28,3.672-8.28,3.672-11.376,4.68c-4.392,0.936-8.784,1.872-13.176,2.88c-1.296,0.432-2.592,0.936-3.888,1.44
		c-2.88,0.216-2.88,0.216-4.536,0c-1.584,1.224-3.168,2.52-4.824,3.816c-2.2321,1.44-4.464,2.88-6.696,4.32c0,0.288,0,0.576,0,0.864
		c3.384-0.864,3.384-0.864,9.144-1.8c1.8-0.144,3.6-0.288,5.472-0.504c8.928,0.216,8.928,0.216,15.624,0.72
		c3.096,0.504,3.096,0.504,5.544,1.44c1.08,0.792,2.16,1.584,3.312,2.376c0,0.432,0.072,0.864,0.144,1.368
		c-0.504,0.576-1.008,1.224-1.584,1.872c1.224,0.144,3.6-0.36,7.92-0.792c4.536-0.144,9.072-0.288,13.68-0.504
		c6.048,0.072,12.168,0.144,18.288,0.216c1.152,0.144,2.376,0.288,3.5999,0.504c1.4401,0.648,2.88,1.296,4.32,1.944
		c0.2881,0.432,0.648,0.864,1.0081,1.2961c-0.216,0.864-0.432,1.728-0.72,2.664c-0.936,1.584-1.872,3.168-2.88,4.824
		c-0.432,2.0161-0.936,4.104-1.44,6.192c0.2159,3.744,0.4319,7.4881,0.72,11.304c1.944,5.976,1.944,5.976,2.88,8.136
		c2.52,3.6,5.1119,7.2,7.704,10.8c0.288,0.936,0.576,1.872,0.936,2.88c0.072,2.016,0.144,4.032,0.288,6.048
		c-0.288,1.152-0.6479,2.376-1.008,3.6c-1.224,2.016-2.5199,4.104-3.816,6.192c-1.224,1.512-2.52,3.024-3.816,4.608
		c-4.824,3.816-4.824,3.816-7.848,5.7599c-2.592,1.224-5.184,2.448-7.848,3.672c-6.048,1.944-6.048,1.944-10.368,2.88
		c-2.736,0.216-5.544,0.432-8.3521,0.72c-5.328-0.936-5.328-0.936-9.144-1.944c-5.04-1.872-5.04-1.872-5.76-2.376
		c-0.36,0-0.72,0.072-1.08,0.144c-0.288,2.952-0.648,5.904-1.008,8.856c-0.288,1.08-0.576,2.232-0.936,3.384
		c-0.648,1.08-1.2961,2.232-1.944,3.384c-1.368,1.44-2.736,2.88-4.176,4.32c-1.224,0.936-2.448,1.872-3.744,2.88
		c-2.016,0.792-2.016,0.792-5.616,1.728c-2.376,0.288-2.376,0.288-7.2,0.288c-1.296-0.144-2.664-0.288-4.032-0.504
		c-6.048-1.944-8.208-2.376-10.368-3.384c-0.216-0.216-0.432-0.432-0.72-0.72c-3.168-0.936-6.336-1.872-9.576-2.88
		c-9.864-1.872-17.496-3.816-31.464-6.696c-7.2-1.224-14.4-2.52-21.6-3.816c-5.976-0.792-11.952-1.584-18-2.448
		c-35.28-0.72-35.28-0.72-47.952-0.72c-8.928,0.504-12.528,1.008-25.2,1.944c-16.848,3.384-16.848,3.384-20.448,3.816
		c-5.472,1.944-9.792,3.888-26.136,9.648c-4.32,1.872-10.08,3.816-29.016,11.52c-1.08,0.216-2.232,0.432-3.384,0.72
		C79.848,347.49,78.624,347.49,77.4,347.49L77.4,347.49z M77.616,343.386c-0.936-0.144-1.872-0.288-2.88-0.504
		c-2.376-1.872-2.376-1.872-4.32-3.96c-0.576-1.656-1.152-3.312-1.8-4.968c-0.936-6.984-0.936-6.984-4.824-28.08
		c-0.576-2.592-1.224-5.256-1.872-7.92c-2.016-5.832-4.032-11.664-6.048-17.568c0-1.08,0-2.16-0.072-3.312
		c4.32-0.864,12.24-1.872,16.344-2.808c0.72-0.072,1.44-0.144,2.16-0.216c12.24-3.384,24.696-7.2,29.232-8.208
		c7.632-2.52,15.336-5.04,23.04-7.632c4.392-1.296,8.784-2.592,13.248-3.888c3.6-0.576,7.2-1.224,10.8-1.872
		c6.624-1.4399,13.248-2.8799,19.872-4.3199c1.728,0,1.728,0,6.984-1.008c3.24,0,6.552,0,9.864,0
		c1.656-0.288,3.312-0.576,5.04-0.936c5.976-0.216,9.072,0,16.992-0.504c6.552,0.072,13.104,0.144,19.728,0.288
		c20.376,1.44,20.376,1.44,28.296,2.376c2.304,0.4319,4.608,0.936,6.984,1.44c2.88,0.288,5.76,0.576,8.64,0.936
		c4.608,0.936,9.216,1.872,13.896,2.88c5.04,0.504,5.04,0.504,9.864,1.44c0.864,0.288,1.8,0.576,2.7361,0.864
		c0.144,0.36,0.36,0.792,0.576,1.224c4.608,1.08,6.984,2.016,10.584,2.952c9.864,3.888,9.864,3.888,15.84,5.76
		c5.832,1.08,11.664,2.232,17.496,3.384c2.52,0.072,5.112,0.144,7.7039,0.216c3.096-0.432,3.096-0.432,4.824-0.936
		c0.864-0.432,1.728-0.936,2.592-1.44c0.288,0,0.648,0,1.008-0.0721c-0.288,1.008-0.576,2.0161-0.864,3.096
		c-0.288,0.504-0.648,1.08-1.008,1.656c-1.224,3.6-2.52,7.2-3.816,10.8c-0.936,3.744-1.872,7.488-2.88,11.304
		c-1.08,7.4879-2.232,14.976-3.384,22.5359c-0.432,5.76-0.432,5.76-0.936,8.208c-0.936,2.376-0.936,2.376-2.88,5.976
		c-0.792,0.864-1.584,1.728-2.376,2.664c-1.152,0.936-2.304,1.872-3.528,2.88c-1.872,0.792-1.872,0.792-4.032,1.296
		c-2.232-0.072-4.464-0.144-6.696-0.288c-2.232-0.576-4.4641-1.224-6.768-1.872c-0.432-0.36-0.936-0.792-1.44-1.224
		c-0.864-0.144-1.728-0.288-2.592-0.504c-1.224-0.936-1.224-0.936-3.168-1.872c-7.632-1.944-7.632-1.944-10.296-2.88
		c-5.76-1.296-11.52-2.592-17.28-3.888c-2.52-0.36-5.112-0.72-7.704-1.152c-0.864-0.288-1.728-0.648-2.592-1.008
		c-9.72-1.728-19.512-3.456-29.304-5.256c-4.536-0.432-9.072-0.936-13.68-1.44c-38.16-0.72-41.04-0.504-49.896-0.72
		c-19.224,1.44-19.224,1.44-27.144,2.376c-8.856,1.944-8.856,1.944-12.024,2.88c-2.376,1.008-2.376,1.008-4.32,1.44
		c-1.728,0.144-3.456,0.288-5.256,0.504c-2.952,1.224-5.904,2.52-8.856,3.816c-1.512,0.432-3.024,0.936-4.608,1.44
		c-2.952,1.296-5.904,2.592-8.856,3.888c-0.792,0.144-1.584,0.288-2.376,0.432c-4.824,1.944-7.92,2.88-20.88,8.208
		c-2.16,0.576-4.32,1.224-6.48,1.872c-0.792,0.36-1.584,0.792-2.448,1.224C79.056,343.386,78.336,343.386,77.616,343.386
		L77.616,343.386z M42.624,319.842c-3.96-0.144-7.992-0.288-12.024-0.432c-2.088-0.288-4.176-0.648-6.264-1.008
		c-5.256-1.872-5.256-1.872-9.576-3.816c-0.864-0.648-1.728-1.296-2.664-1.944c-0.936-1.008-1.872-2.016-2.88-3.096
		c-2.736-5.112-2.736-5.112-3.24-6.84c-0.072-0.936-0.144-1.872-0.216-2.88c0.144-0.864,0.288-1.728,0.432-2.592
		c3.888-7.488,3.888-7.488,7.704-15.624c1.872-5.04,3.816-10.08,5.76-15.12c0.216-1.656,0.432-3.312,0.72-5.04
		c0-1.8719,0-3.8159,0-5.76c-0.36-1.368-0.792-2.736-1.224-4.104c0-0.72,0-1.44,0-2.16c0.36-0.288,0.72-0.576,1.152-0.864
		c2.736-0.576,5.544-1.224,8.352-1.872c1.512-0.144,3.024-0.288,4.608-0.504c5.4-0.0721,10.8-0.144,16.272-0.216
		c2.088,0.288,4.176,0.576,6.264,0.936c6.984,2.16,6.984,2.16,7.2,2.52c-0.216,0.36-6.264,2.304-10.8,4.176
		c-2.232,1.296-4.464,2.592-6.696,3.888c-1.08,0.936-2.232,1.872-3.384,2.88c-0.288,0.792-0.576,1.656-0.864,2.52
		c-0.072,0.792-0.144,1.584-0.216,2.376c0.144,0.648,0.288,1.296,0.432,1.944c0.648,1.08,1.296,2.232,1.944,3.384
		c1.944,2.16,1.944,2.16,4.104,4.032c0.792,0.4319,1.584,0.936,2.376,1.44c2.232,6.0479,4.464,12.168,6.696,18.288
		c0.792,3.6,1.584,7.2,2.448,10.8c1.44,10.08,1.44,10.08,1.44,12.456C59.904,317.97,59.904,317.97,42.624,319.842L42.624,319.842z
		 M366.84,316.242c-4.248-1.296-8.496-2.592-12.744-3.888c0-0.36-0.072-0.792-0.144-1.224c0.936-5.832,1.872-11.664,2.88-17.496
		c0.648-2.592,1.296-5.256,1.944-7.92c3.024-7.992,6.048-15.984,9.144-24.048c0-1.08,0-2.16,0-3.312
		c-0.288-0.288-0.576-0.648-0.864-1.008c-2.52-1.0081-5.0399-2.0161-7.632-3.024c-5.472-0.72-11.016-1.44-16.56-2.16
		c-1.656,0.288-3.312,0.648-5.04,1.008c-5.328,1.872-6.048,2.376-8.64,3.024c0.072-0.3601,0.144-0.792,0.288-1.224
		c1.872-1.224,3.744-2.5201,5.688-3.816c7.92-3.744,7.92-3.744,17.496-7.632c2.736-0.576,5.472-1.224,8.208-1.872
		c1.512-0.144,3.024-0.288,4.5359-0.504c24.264,0,24.264,0,31.6801,0.216c0.936,0.288,0.936,0.288,1.224,0.648
		c-0.576,1.584-1.224,3.168-1.872,4.8239c-0.216,1.5121-0.432,3.024-0.72,4.536c0.288,10.8,0.288,10.8,0.72,13.896
		c0.648,1.872,1.296,3.816,1.944,5.76c0.648,1.368,1.296,2.736,1.944,4.104c2.376,3.312,4.752,6.696,7.2,10.08
		c0.144,1.224,0.288,2.52,0.4319,3.816c-0.072,1.008-0.144,2.088-0.216,3.168c-0.648,1.224-1.296,2.52-1.944,3.816
		c-1.224,1.8-2.52,3.672-3.8159,5.5439c-1.224,1.2961-2.52,2.664-3.816,4.032c-1.8,1.296-3.6,2.592-5.4001,3.888
		c-2.448,1.224-4.896,2.448-7.416,3.672c-3.312,0.936-6.696,1.872-10.08,2.88C372.456,316.098,369.648,316.17,366.84,316.242
		L366.84,316.242z M101.664,261.522c-3.024-1.728-6.048-3.456-9.144-5.256c-0.072-0.216-0.144-0.504-0.216-0.792
		c3.096,0.432,6.192,0.864,9.36,1.296c8.856,0,12.672-0.288,13.176,0c-1.44,0.936-1.44,0.936-5.976,2.88
		C102.6,261.522,102.6,261.522,101.664,261.522L101.664,261.522z M318.384,258.21c-4.536-1.512-9.072-3.096-13.608-4.68
		c0-0.216,0-0.432-0.072-0.72c4.032-0.144,4.032-0.144,4.32,0.072c1.008-0.216,2.016-0.432,3.096-0.72c1.44,0,2.88,0,4.32,0
		c6.264-0.936,8.424-1.656,9.144-1.512c-1.2961,1.368-2.592,2.736-3.888,4.176c-0.72,1.08-1.44,2.232-2.16,3.384
		C319.176,258.21,318.816,258.21,318.384,258.21L318.384,258.21z M333,246.1139c0-0.216,0-0.432,0.072-0.72
		c2.52-1.944,2.52-1.944,5.688-3.888c1.872-0.864,3.816-1.8,5.76-2.736c3.816-1.008,3.816-1.008,8.424-1.728
		c2.592,0.36,2.592,0.36,2.88,0.72c-2.232,0.648-4.464,1.296-6.768,1.944C338.976,243.522,338.976,243.522,333,246.1139
		L333,246.1139z M197.64,225.81c-6.264-0.504-6.264-0.504-16.344-1.944c-3.168-0.936-6.336-1.872-9.576-2.88
		c-9.144-3.816-9.144-3.816-13.176-5.76c-1.08-0.792-2.232-1.584-3.384-2.376c0-0.432-0.072-0.864-0.144-1.2961
		c1.224-1.872,2.52-3.816,3.816-5.7599c2.52-3.168,5.112-6.408,7.704-9.648c1.872-2.736,3.816-5.544,5.76-8.352
		c2.664-2.88,5.4-5.76,8.136-8.64c1.44-2.448,1.44-2.448,3.384-4.608c0.288,0,0.576-0.072,0.864-0.144
		c0.288,0.288,0.576,0.6479,0.936,1.008c4.608,0.936,4.608,0.936,7.488,1.872c2.304,1.296,4.608,2.592,6.912,3.888
		c2.16,1.584,4.32,3.168,6.4799,4.752c0.864,1.152,1.8,3.312,2.736,4.464c0.288,0.072,0.576,0.144,0.864,0.288
		c0.072,0.288,0.144,0.576,0.288,0.936c1.152,0.36,1.152,0.36,2.16,0.36c0.288-0.288,0.648-0.576,1.008-0.864
		c1.296-2.52,2.592-5.0399,3.888-7.632c0.576-0.72,1.224-1.44,1.872-2.16c1.296-0.936,2.664-1.872,4.032-2.808
		c1.944-0.648,3.9601-1.296,5.976-1.944c3.168-0.36,6.336-0.72,9.576-1.152c0.36,0.072,0.792,0.144,1.224,0.216
		c0.792,1.008,1.584,2.016,2.376,3.096c1.224,0.504,1.224,0.504,2.16,0.504c0.288-0.216,0.288-0.216,1.224-0.216
		c0.576,0.648,1.152,1.296,1.8,2.016c0,0.288-0.072,0.576-0.144,0.864c-13.896,7.632-13.896,7.632-21.6,11.5201
		c-2.664,0.936-5.4,1.872-8.136,2.88c-1.44,0.288-2.88,0.576-4.32,0.936c-1.728,0-3.456,0-5.256,0
		c-1.728-0.936-1.728-0.936-3.384-1.224c-3.888-0.144-7.776-0.288-11.736-0.432c-1.872-0.288-3.816-0.648-5.76-1.008
		c-2.664-0.936-2.664-0.936-5.3279-2.376c-1.584-1.44-3.168-2.88-4.752-4.32c-0.432-0.072-0.936-0.144-1.44-0.216
		c-1.008,0.432-2.088,0.936-3.168,1.44c0,0.504-0.072,1.008-0.144,1.584c0.288,0.504,0.648,1.08,1.008,1.656
		c2.376,2.16,2.376,2.16,5.0399,4.104c1.44,0.576,2.952,1.152,4.464,1.728c3.096,0.648,6.192,1.296,9.36,1.944
		c4.608,0.144,9.216,0.288,13.896,0.504c1.584,0.288,3.168,0.576,4.824,0.936c1.152,0,2.376,0,3.6,0
		c6.696-1.944,8.64-2.88,14.616-4.824c3.816-1.872,3.816-1.872,17.496-9.576c0.864-0.648,1.728-1.296,2.664-1.944
		c0.072-0.216,0.144-0.504,0.216-0.792c0.288,0,0.6479,0,1.008,0.072c2.52,2.592,5.04,5.256,7.632,7.92
		c3.24,3.888,6.552,7.776,9.864,11.664c-0.72,0.6479-1.44,1.296-2.16,2.016c-5.76,3.888-5.76,3.888-7.92,5.76
		c-2.52,1.296-5.112,2.592-7.704,3.888c-3.024,1.224-6.048,2.52-9.0721,3.816c-2.232,0.648-4.464,1.296-6.7679,1.944
		c-14.832,2.88-14.832,2.88-21.096,3.816C204.84,225.81,204.84,225.81,197.64,225.81L197.64,225.81z M146.52,205.6499
		c-7.704-8.424-7.704-8.424-11.52-12.96c-3.816-5.904-5.76-9.72-9.504-15.984c-0.648-1.44-1.296-2.88-1.944-4.32
		c-1.872-6.4799-1.872-6.4799-3.816-11.952c-1.224-5.112-2.52-10.224-3.816-15.408c-0.504-5.04-0.504-5.04-1.008-6.912
		c0-1.08,0-2.232,0-3.384c0.432-2.1599,0.936-4.3199,1.44-6.4799c0.144-0.216,0.288-0.432,0.504-0.72
		c4.464-1.8,4.464-1.8,8.28-3.744c7.2-1.944,10.08-2.376,13.464-3.384c1.584-0.216,3.168-0.504,4.824-0.7921
		c-0.864,2.16-1.872,3.816-3.744,9.144c-0.648,2.664-1.296,5.4-1.944,8.136c0,2.448,0,4.896,0,7.416
		c0.432,3.672,0.936,7.344,1.44,11.088c1.944,6.48,1.944,6.48,3.816,11.2321c0.648,1.08,1.296,2.232,1.944,3.384
		c3.816,4.824,3.816,4.824,7.92,9.144c1.44,1.224,2.952,2.52,4.464,3.816c1.08,1.152,2.16,2.376,3.312,3.6
		c0,0.216,0.072,0.432,0.144,0.72C146.736,205.794,146.736,205.794,146.52,205.6499L146.52,205.6499z M273.96,196.506
		c-7.704-8.136-7.704-8.136-15.624-15.84c-2.376-1.944-2.376-1.944-4.176-3.96c0-0.216,0-0.432,0-0.72
		c0.576-0.36,0.576-0.36,2.304-0.576c1.008-0.648,2.016-1.2961,3.096-1.944c1.944-2.7361,1.944-2.7361,4.6801-7.56
		c1.872-5.04,1.872-5.04,3.8159-11.952c0.648-3.6,1.2961-7.2,1.944-10.8c0-2.448,0-4.968,0-7.488
		c-1.008-7.9199-1.008-7.9199-1.944-12.96c-0.504-1.8-1.008-3.6-1.512-5.472c0.936,0.072,1.872,0.144,2.88,0.288
		c5.472,1.944,5.472,1.944,8.64,3.384c4.752,3.816,4.752,3.816,9.0721,7.9199c1.1519,0.792,2.376,1.584,3.6,2.376
		c0.144,1.368,0.144,1.368-0.144,2.304c0.504,0.504,0.504,0.504,1.008,2.448c0.216,1.8,0.432,3.6,0.72,5.472c0,2.16,0,4.32,0,6.48
		c-1.08,6.696-2.232,13.392-3.384,20.16c-1.872,5.112-3.816,10.224-5.76,15.408c-1.224,2.376-2.52,4.752-3.816,7.2
		c-1.44,1.8-2.88,3.6-4.32,5.472C274.176,196.6499,274.176,196.6499,273.96,196.506L273.96,196.506z M164.52,181.8899
		c-2.232-1.872-4.464-3.816-6.696-5.7599c-4.32-4.6801-4.32-4.6801-8.064-9.216c-4.32-10.368-4.464-11.5201-5.04-12.744
		c-0.432-3.384-0.936-6.84-1.44-10.296c0.072-2.808,0.144-5.616,0.216-8.424c0.648-2.376,1.296-4.752,1.944-7.2
		c0.576-1.512,1.224-3.024,1.872-4.536c1.296-1.8,2.592-3.672,3.888-5.544c0.288-0.72,0.576-1.44,0.936-2.16
		c1.8-1.224,3.6-2.52,5.4-3.816c2.664-2.736,5.328-5.472,8.064-8.208c0.936-1.8,1.872-3.6,2.88-5.472c0.36,0,0.72-0.072,1.08-0.144
		c0.72,0.576,1.44,1.224,2.16,1.872c3.816,4.608,3.816,4.608,7.416,8.2079c0.576,0.072,1.152,0.144,1.728,0.216
		c0.432,0.504,0.432,0.504,0.576,1.584c-0.288,0.432-0.648,0.936-1.008,1.44c0.072,1.08,0.144,2.232,0.288,3.384
		c0.288,0.576,0.576,1.224,0.936,1.872c1.224,1.224,1.224,1.224,3.24,2.52c3.384,0.504,3.384,0.504,7.2,0.72
		c1.512,1.584,3.024,3.24,4.608,4.896c2.232,2.736,4.464,5.472,6.696,8.28c0,0.36,0,0.72,0.072,1.152
		c-5.688,6.84-11.376,13.68-17.136,20.592c-0.576-0.432-0.576-0.432-2.52-4.5359c-1.944-7.2-2.376-10.2961-2.664-10.584
		c-0.432-5.04-0.432-5.04-0.936-6.48c-0.144-0.216-0.36-0.432-0.576-0.72c-1.656-0.144-1.656-0.144-4.68,0.288
		c-1.584,3.888-3.168,7.776-4.824,11.736c-0.288,1.44-0.576,2.88-0.936,4.32c-0.648,5.256-1.296,10.512-1.944,15.84
		c-0.288,1.44-0.576,2.88-0.936,4.32c0.216,0.432,0.432,0.936,0.72,1.4399c1.08,0.648,2.16,1.2961,3.24,2.0161
		c0.648,0,1.2961,0.072,1.944,0.144c-1.944,2.88-1.944,2.88-6.984,9C165.024,181.8899,164.808,181.8899,164.52,181.8899
		L164.52,181.8899z M251.856,174.402c-1.152-1.0081-2.304-2.088-3.4561-3.168c0.216-1.728,1.152-4.824,2.16-9.648
		c0.288-3.312,0.576-6.696,0.936-10.08c0-17.496,0-17.496-0.216-19.152c-0.432-0.504-0.864-1.008-1.296-1.512
		c-3.168-0.576-3.168-0.576-3.744-0.432c-0.144,0.864-0.288,1.728-0.504,2.664c-1.944,4.536-1.944,4.536-3.816,8.136
		c-4.104,4.104-4.104,4.104-10.8,9.864c-0.288,0-0.576,0-0.864,0.072c-1.224-1.512-2.52-3.024-3.816-4.536
		c-3.672-3.744-7.416-7.56-11.16-11.376c0.0721-0.576,0.144-1.152,0.216-1.728c3.24-3.816,6.552-7.632,9.864-11.52
		c2.376-3.6,2.376-3.6,3.024-3.96c1.296-0.288,2.664-0.576,4.032-0.936c0.864-1.08,1.728-2.16,2.664-3.24c0-0.72,0-1.44,0.072-2.16
		c-0.432-0.936-0.432-0.936-0.432-2.664c2.592-3.2401,5.184-6.552,7.776-9.864c0.288,0,0.648,0,1.008-0.072
		c1.872,0.936,1.872,0.936,4.32,2.88c1.872,3.096,1.872,3.096,5.76,8.28c1.872,2.016,1.872,2.016,4.536,3.96
		c0.648,0.936,1.296,1.944,1.944,2.952c1.728,5.832,1.728,5.832,2.7361,10.368c0.288,2.448,0.576,4.896,0.936,7.416
		c-0.072,3.6-0.144,7.2-0.216,10.8c-0.936,4.32-1.872,8.64-2.88,12.96c-0.936,2.448-1.872,4.968-2.88,7.488
		c-3.888,6.4799-3.888,6.4799-5.184,8.208C252.36,174.402,252.144,174.402,251.856,174.402L251.856,174.402z M220.68,168.2099
		c-0.36-0.144-0.792-0.288-1.224-0.504c-0.36-0.504-0.72-1.08-1.152-1.656c-0.288-0.072-0.576-0.216-0.864-0.36
		c-0.576-1.656-1.152-3.312-1.728-5.04c-0.432-4.104-0.936-5.976-1.44-9.864c-0.072-1.8-0.144-3.6-0.288-5.472
		c0.432,0.072,0.936,0.144,1.44,0.288c4.32,4.32,6.192,6.768,14.4,15.768c0,0.36,0,0.792,0.072,1.224
		c-1.944,2.16-1.944,2.16-4.104,4.032c-0.72,0.432-1.44,0.936-2.232,1.44C222.624,168.066,221.688,168.138,220.68,168.2099
		L220.68,168.2099z M201.456,167.7059c-0.72-0.072-1.44-0.144-2.16-0.216c-2.88-2.088-2.88-2.088-5.256-4.32
		c0-0.36-0.072-0.72-0.144-1.08c0.288-0.648,0.576-1.296,0.936-1.944c3.888-4.752,3.888-4.752,7.704-10.08
		c0.288-0.576,0.576-1.224,0.936-1.872c0.72-0.792,1.44-1.584,2.16-2.448c0.288-0.0721,0.576-0.144,0.864-0.216
		c-0.072,4.824-0.216,9.72-0.36,14.616c-0.504,3.6-0.504,3.6-0.936,5.04c-0.432,0.72-0.936,1.44-1.44,2.16
		C202.68,167.7059,202.68,167.7059,201.456,167.7059L201.456,167.7059z M101.88,131.4899c-1.224-1.872-2.52-3.816-3.816-5.76
		c-3.888-4.8239-3.888-4.8239-11.808-13.464c-3.816-4.968-7.632-9.936-11.52-14.904c-2.592-3.096-5.256-6.264-7.92-9.432
		c-1.872-3.024-1.872-3.024-3.24-5.976c-0.504-2.664-0.504-2.664-0.72-6.768c0.216-1.656,0.216-1.656,1.224-4.032
		c1.08-1.44,1.08-1.44,2.376-2.448c0.792-0.288,1.656-0.576,2.52-0.864c1.728-0.072,3.528-0.144,5.328-0.216
		c0.072,0.288,0.144,0.576,0.288,0.864c-0.144,0.3601-0.288,0.792-0.432,1.224c0,0.936,0,1.872,0,2.88
		c0.576,1.872,1.224,3.816,1.872,5.76c1.296,2.376,2.592,4.752,3.888,7.2c3.672,3.312,7.416,6.696,11.16,10.08
		c1.08,1.44,1.08,1.44,7.776,7.416c4.824,3.816,4.824,3.816,9.144,7.92c1.872,2.88,1.872,2.88,2.88,5.256
		c0.432,1.584,0.936,3.168,1.44,4.824c0.072,1.008,0.144,2.0161,0.216,3.096c-1.656,0.864-3.384,1.8-5.112,2.736
		c-1.584,1.512-3.168,3.024-4.824,4.608C102.384,131.4899,102.168,131.4899,101.88,131.4899L101.88,131.4899z M300.384,129.3299
		c-1.512-0.6479-3.024-1.296-4.608-1.944c-1.008-0.648-2.016-1.296-3.096-1.944c-6.264-5.76-7.704-6.696-8.784-7.776
		c-0.648-3.168-1.296-6.336-1.944-9.576c-3.312-28.08-3.816-30.24-5.256-43.2c-0.504-1.944-0.504-1.944-1.44-10.8
		c-0.216-0.216-0.432-0.4319-0.72-0.72c0-0.2159,0-0.432,0-0.7199c4.104-5.544,4.104-5.544,13.68-17.064
		c0.288-0.072,0.576-0.144,0.864-0.216c0.36,4.3199,4.176,27.864,5.112,35.496c0.648,3.6,1.296,7.2,1.944,10.8
		c2.52,11.2321,5.112,22.536,7.7039,33.84c1.872,11.808,1.872,11.808,1.872,12.96c-0.576,0.36-0.576,0.36-2.736,0.864
		C302.112,129.3299,301.248,129.3299,300.384,129.3299L300.384,129.3299z M312.12,124.65c-0.216-0.144-0.432-0.288-0.648-0.504
		c-0.576-3.312-1.224-6.696-1.872-10.08c-2.52-11.0161-5.112-22.032-7.704-33.12c-1.944-11.016-3.816-24.48-4.824-29.52
		c-0.936-6.696-0.936-6.696-1.296-11.52c4.608,1.8,4.608,1.8,8.424,3.744c2.16,1.4399,4.32,2.8799,6.48,4.3199
		c1.512,0.576,3.096,1.152,4.68,1.8c0,0.7919,0,1.584,0,2.376c3.816,17.28,3.816,17.28,7.632,32.184
		c1.944,6.264,1.944,6.264,5.76,21.384c0.216,1.44,0.432,2.88,0.72,4.32c-0.576,1.008-1.224,2.016-1.872,3.096
		c-1.296,1.44-2.592,2.88-3.888,4.3199c-1.656,1.224-3.384,2.5201-5.112,3.816c-1.8,1.08-3.672,2.232-5.544,3.384
		C312.768,124.65,312.48,124.65,312.12,124.65L312.12,124.65z M205.56,124.506c-1.224-1.224-2.448-2.448-3.744-3.672
		c0-0.288,0.072-0.6479,0.144-1.008c1.224,0,2.52,0,3.8159,0c0.0721,0.576,0.216,1.152,0.36,1.728
		c-0.0721,0.936-0.144,1.872-0.216,2.88C205.848,124.434,205.704,124.434,205.56,124.506L205.56,124.506z M118.656,121.0499
		c-1.8-6.4799-1.8-6.4799-2.736-8.856c-1.296-1.656-2.592-3.312-3.888-5.04c-1.296-1.368-2.664-2.736-4.032-4.104
		c-13.464-11.736-18.36-15.624-22.608-19.656c-1.872-3.168-1.872-3.168-2.376-3.6c-0.648-1.512-1.296-3.024-1.944-4.608
		c-0.432-2.16-0.432-2.16-0.432-5.472c0.288-0.288,0.576-0.576,0.864-0.864c0.864-0.144,1.728-0.2881,2.592-0.504
		c0.576-0.36,1.152-0.792,1.728-1.224c6.192-1.872,6.192-1.872,11.52-3.816c5.256-2.88,7.92-4.824,8.856-5.112
		c0.216,1.512,0.504,3.024,0.792,4.536c0.648,1.872,1.296,3.816,1.944,5.76c1.224,2.376,2.52,4.752,3.816,7.2
		c0.648,0.864,1.296,1.728,1.944,2.664c1.368,1.224,2.736,2.52,4.176,3.816c5.832,3.672,11.304,7.56,12.312,7.992
		c0.432,0.504,2.16,1.44,4.32,3.384c1.224,1.728,2.52,3.456,3.816,5.184c1.8,3.816,1.8,3.816,2.736,6.696
		c0.288,1.44,0.576,2.88,0.936,4.32c0,1.368,0,2.736,0,4.104c-0.144,0.432-0.288,0.936-0.432,1.44
		c-6.624,1.8-19.8,4.68-22.464,5.616C119.664,120.906,119.16,120.978,118.656,121.0499L118.656,121.0499z M275.4,114.21
		c-3.3839-0.792-6.84-1.584-10.296-2.448c-0.864-0.36-1.728-0.72-2.664-1.08c-0.72-0.648-1.44-1.2961-2.16-2.0161
		c-1.224-2.088-2.52-4.176-3.816-6.336c-2.52-2.232-5.112-4.536-7.704-6.84c-0.288-0.432-0.576-0.864-0.936-1.368
		c0-0.36-0.072-0.72-0.144-1.152c0.288-0.648,0.576-1.2961,0.936-1.944c0.648-0.72,1.296-1.44,1.944-2.16
		c15.336-24.48,15.84-24.912,16.272-25.92c0.72-0.864,1.512-1.8,2.304-2.736c0.216,0,0.4319,0,0.72,0.072
		c0.36,3.384,0.864,5.328,3.24,23.112c0.936,9.36,1.944,15.12,2.88,24.912c0.504,1.944,0.504,1.944,0.72,5.76
		C276.264,114.066,275.832,114.138,275.4,114.21L275.4,114.21z M149.4,111.906c-0.072-1.44-0.216-2.88-0.36-4.32
		c-0.648-2.304-1.296-4.608-1.944-6.912c-1.944-3.888-3.384-5.7599-3.816-6.7679c-1.872-1.872-3.816-3.816-5.76-5.76
		c-4.752-3.168-9.576-6.336-14.4-9.576c-1.44-1.224-2.88-2.5201-4.32-3.816c-1.296-2.232-2.592-4.464-3.888-6.768
		c-0.792-2.592-1.584-5.256-2.376-7.92c-0.072-1.224-0.144-2.52-0.216-3.816c0.144-0.792,0.288-1.584,0.432-2.376
		c0.288-0.4319,0.648-0.936,1.008-1.44c-0.144-0.936-0.288-1.872-0.504-2.88c1.224-1.728,2.52-3.528,3.816-5.3279
		c0.648-0.432,1.368-0.8641,2.088-1.2961c0.504,0,1.08,0,1.656,0c2.52,3.1681,5.112,6.3361,7.704,9.576
		c4.032,4.392,8.136,8.784,12.24,13.176c1.224,1.584,2.52,3.1681,3.816,4.8239c3.816,3.8881,7.632,7.7761,11.52,11.7361
		c3.672,4.32,7.344,8.712,11.088,13.104c-0.144,0.144-0.288,0.36-0.504,0.576c-0.36,0-0.792,0-1.224,0
		c-0.72,0.504-0.72,0.504-2.52,3.024c-0.648,1.08-1.296,2.232-1.944,3.384c-1.872,2.16-1.872,2.16-7.2,6.984
		C150.336,111.69,150.336,111.69,149.4,111.906L149.4,111.906z M188.784,106.506c-0.288-0.144-0.6479-0.288-1.008-0.504
		c-1.224-1.584-2.52-3.168-3.8159-4.752c-4.32-4.104-4.32-4.104-6.624-6.84c0-0.432,0.072-0.864,0.144-1.368
		c0.432-0.072,0.864-0.144,1.296-0.288c0.0721-0.36,0.144-0.792,0.216-1.224c1.8-1.656,3.6-3.312,5.4-5.04
		c2.304-1.224,4.608-2.448,6.984-3.744c2.952-0.936,5.904-1.872,8.928-2.88c2.304-0.36,4.608-0.792,6.912-1.224
		c2.304,0,4.608,0,6.984,0c2.232,0.648,4.464,1.296,6.696,1.944c1.512,0.648,3.024,1.296,4.608,1.944
		c0.936,0.576,1.872,1.224,2.88,1.872c1.584,1.8,3.168,3.672,4.752,5.544c0.288,0.072,0.6479,0.216,1.008,0.36
		c0.072,0.432,0.144,0.936,0.216,1.44c0.432,0.216,0.864,0.432,1.296,0.72c0,0.36,0,0.792,0,1.224
		c-1.368,1.512-2.736,3.024-4.104,4.5359c-1.728,2.376-3.456,4.752-5.256,7.2c-3.816,0.072-7.704,0.144-11.592,0.288
		c0.144-0.288,0.288-0.576,0.432-0.864c0.6479-0.288,1.296-0.648,1.944-1.008c0.36-0.432,0.792-0.864,1.224-1.296
		c0.792-1.872,0.792-1.872,1.296-4.32c0.216-2.8799,0.216-2.8799,0-4.5359c-1.008-1.656-1.008-1.656-1.44-2.88
		c-0.72-0.72-1.44-1.44-2.16-2.16c-0.504-0.288-1.008-0.576-1.584-0.864c-1.224-0.288-2.52-0.576-3.816-0.936
		c-1.584,0.144-3.168,0.288-4.824,0.432c-1.08,0.648-2.16,1.296-3.312,1.944c-0.648,0.648-1.368,1.368-2.088,2.088
		c-0.936,1.872-0.936,1.872-1.44,3.6c0,0.72,0,1.44,0,2.16c0.936,2.592,0.936,2.592,1.44,5.04c2.016,2.592,2.016,2.592,2.88,3.096
		c0,0.504,0,0.504-0.576,0.792c-2.88,0-5.76,0-8.64,0C192.312,106.146,190.584,106.29,188.784,106.506L188.784,106.506z
		 M210.6,101.25c-0.648-0.432-1.296-0.936-1.944-1.44c-1.872,0-1.872,0-2.304-0.36c-0.216-1.224-0.216-1.224-0.216-5.256
		c0.144-0.576,0.288-1.152,0.504-1.728c1.296-1.08,1.296-1.08,2.016-1.2961c0.792,0,1.584,0,2.448,0
		c0.288,0.144,0.576,0.288,0.936,0.432c0.432,0.72,0.864,1.512,1.296,2.304c0,1.296,0,2.592,0,3.888
		c-0.936,2.88-0.936,2.88-1.44,3.312C211.464,101.1059,211.032,101.178,210.6,101.25L210.6,101.25z M334.44,101.25
		c-0.864-2.016-4.68-15.984-5.688-18.864c-3.816-14.616-3.816-14.616-7.2-29.016c0-0.7199,0-1.44-0.072-2.1599
		c3.6,0.7919,3.6,0.7919,9.576,2.736c0.576,0.288,1.152,0.576,1.728,0.936c1.5121,1.2961,3.024,2.592,4.536,3.888
		c1.944,2.592,1.944,2.592,7.56,12.096c0.72,1.728,1.44,3.528,2.16,5.328c0,1.656,0,3.312,0,5.04c-0.504,1.872-0.504,1.872-1.44,3.6
		c-1.944,2.16-4.104,4.032-6.048,6.192c-1.872,3.6-1.872,3.6-3.312,7.488c-0.288,0.36-0.648,0.72-1.008,1.152
		C334.8,101.1059,334.8,101.1059,334.44,101.25L334.44,101.25z M172.944,89.2259c-1.008-0.936-1.008-0.936-2.88-3.816
		c-0.6479-0.288-1.296-0.648-1.944-1.008c-0.504-0.0721-1.08-0.144-1.656-0.216c-2.016-2.16-4.032-4.32-6.048-6.48
		c-4.752-6.984-4.752-6.984-7.056-9.72c0-0.216,0-0.432,0-0.72c2.304-1.296,3.456-2.304,13.824-8.064
		c4.536-1.872,13.68-4.752,18.72-6.696c2.448-0.648,4.896-1.296,7.416-1.944c3.672-0.4319,7.344-0.936,11.016-1.44
		c5.256,0.2161,10.512,0.432,15.84,0.72c3.96,0.648,7.992,1.296,12.024,1.944c1.008,0.288,2.016,0.5759,3.096,0.936
		c3.6,1.944,6.0479,2.88,12.96,6.768c5.544,3.816,5.544,3.816,6.984,5.256c0,0.288,0,0.576,0.072,0.864
		c-8.64,12.744-10.512,16.056-12.456,18.504c-0.936,1.656-0.936,1.656-3.384,4.32c-0.432,0-0.864,0-1.296,0.072
		c-1.872-2.304-3.816-4.608-5.76-6.984c-1.2961-0.936-2.664-1.872-4.032-2.88c-2.88-0.936-5.76-1.872-8.64-2.88
		c-1.728-0.36-3.528-0.72-5.328-1.152c-2.952,0-5.904,0-8.856,0c-1.944,0.2881-3.96,0.576-5.976,0.936
		c-3.888,1.224-7.848,2.52-11.808,3.816c-2.448,1.296-4.896,2.592-7.416,3.888c-2.664,1.872-2.664,1.872-4.824,3.816
		c-0.576,0.72-1.224,1.44-1.872,2.16C173.448,89.2259,173.232,89.2259,172.944,89.2259L172.944,89.2259z"/>
</g>
</svg>
