<?xml version="1.0" encoding="utf-8"?>
<!-- Generator: Adobe Illustrator 21.1.0, SVG Export Plug-In . SVG Version: 6.00 Build 0)  -->
<svg version="1.1" id="Nauc" xmlns="http://www.w3.org/2000/svg" xmlns:xlink="http://www.w3.org/1999/xlink" x="0px" y="0px"
	 viewBox="0 0 469.2239 373.68" enable-background="new 0 0 469.2239 373.68" xml:space="preserve">
<g>
	<path fill-rule="evenodd" clip-rule="evenodd" d="M63.504,373.68c-11.016-1.44-11.016-1.44-15.12-2.376
		c-1.296-0.648-2.664-1.296-4.032-1.944c-3.384-0.936-3.384-0.936-5.328-1.944c-1.152-1.152-2.16-1.656-4.32-3.6
		c-0.576-0.792-1.224-1.584-1.872-2.376c-1.368-2.952-2.304-6.336-2.808-7.056c-0.936-4.32-0.936-4.32-4.824-18.216
		c-1.872-5.544-2.592-8.928-2.88-9.36c-0.432-2.232-0.936-4.464-1.44-6.768c-0.936-2.376-0.936-2.376-3.6-11.52
		c-4.32-19.872-4.752-23.256-5.76-27.072c-0.144-1.08-0.288-2.232-0.432-3.384c-2.88-11.52-3.888-16.776-4.608-18.936
		c-1.872-10.08-2.376-11.52-4.32-22.32c-0.144-1.512-0.288-3.024-0.432-4.608c-0.36-1.296-0.792-2.664-1.224-4.032
		C0.288,224.064,0,223.128,0,220.68c0.504-1.44,0.504-1.44,1.008-4.536c1.872-3.384,2.88-4.536,3.312-5.544
		c0.72-0.72,1.44-1.44,2.16-2.16c3.168-1.872,6.336-3.816,9.504-5.76c3.816-1.224,7.632-2.448,11.52-3.744
		c4.32-0.936,4.32-0.936,5.544-1.44c3.6-0.432,14.4-0.936,19.944-0.936c3.6,0.648,7.2,1.2961,10.8,1.944
		c1.296,0.432,2.664,0.936,4.032,1.44c1.008,0.576,2.088,1.224,3.168,1.872c0.576,0.72,1.224,1.44,1.872,2.16
		c1.08,2.16,2.16,4.392,3.24,6.624c0.36,0.216,0.792,0.432,1.224,0.72c0.432,1.008,0.432,1.008,0.792,1.224
		c0.144-0.144,0.288-0.288,0.504-0.504c0.288,0.144,0.648,0.288,1.008,0.504c0,0.216,0,0.432,0,0.72
		c-1.44,0.072-1.44,0.072-2.88,0.504c0.288,5.472,0.792,9.36,1.008,13.68c0.288,0.936,0.288,4.032,0.648,5.112
		c4.32,0.504,4.32,0.504,13.176,0.72c8.064-0.216,16.2-0.504,24.336-0.792c-0.072-0.288-0.144-0.648-0.216-1.008
		c-1.944-2.16-4.32-4.032-8.136-7.92c-2.52-1.872-2.52-1.872-4.824-4.3199c-5.184-3.816-5.184-3.816-5.76-4.536
		c0-0.216,0-0.432,0-0.72c0.216-0.072,0.432-0.216,0.648-0.36c0.864,0.072,1.728,0.144,2.592,0.216
		c14.4,3.816,14.4,3.816,20.448,5.76c2.952,0.648,5.904,1.2961,8.856,1.944c4.32,0.504,8.64,1.08,12.96,1.656
		c23.976,0.504,23.976,0.504,35.28,0.504c2.232-0.072,4.464-0.144,6.696-0.288c0.36,0.144,0.792,0.288,1.224,0.504
		c1.44,0.072,2.88,0.144,4.32,0.216c7.704-0.288,15.4799-0.576,23.256-0.936c0.144-0.072,0.36-0.216,0.576-0.36
		c0.36-3.456,0.792-6.984,1.224-10.512c-0.144-0.216-0.36-0.432-0.576-0.648c-3.24-0.072-6.552-0.144-9.864-0.216
		c-6.912,0.432-6.912,0.432-21.816,0.72c-19.944,0-22.824-0.288-28.08-0.288c-0.936-0.216-0.936-0.216-12.96-0.432
		c-7.704,0.216-15.48,0.432-23.256,0.72c-5.544-0.288-5.76-0.504-13.248-1.224c-0.216-0.144-0.432-0.36-0.72-0.576
		c0-0.648-0.072-1.296-0.144-1.944c0.288-0.72,0.648-1.44,1.008-2.16c2.376-1.872,5.256-5.0399,6.48-5.976
		c0.432-0.648,0.936-1.296,1.44-1.944c2.376-1.872,10.8-10.296,13.68-12.672c0.576-0.792,1.224-1.584,1.872-2.448
		c2.736-2.736,5.472-5.544,8.208-8.352c9.576-11.088,17.496-19.728,27.072-30.96c1.944-2.88,1.944-2.88,3.888-5.04
		c0.288-0.72,0.576-1.44,0.936-2.16c1.224-1.368,2.52-2.736,3.816-4.104c1.008-1.944,4.824-7.2,5.76-8.856
		c0.36-0.36,0.792-0.792,1.224-1.224c2.376-4.104,2.88-4.536,3.816-6.264c1.08-1.584,2.232-3.168,3.384-4.752
		c0.648-1.368,1.296-2.736,1.944-4.104c1.44-1.944,2.88-3.96,4.32-5.976c2.88-5.544,2.88-5.544,3.6-6.264
		c0.144-0.504,0.288-1.08,0.432-1.656c0.936-1.512,1.872-3.024,2.88-4.608c0.36-0.36,0.792-0.72,1.224-1.152
		c1.944-3.6,3.816-6.264,4.824-8.208c0.576-0.864,1.224-1.728,1.872-2.592c1.944-4.104,3.888-7.488,5.76-12.024
		c1.944-3.384,2.88-5.7599,4.824-9.3599c0.432-1.224,0.936-2.52,1.44-3.816c0.216-0.216,0.432-0.432,0.72-0.72
		c3.816-8.64,3.816-8.64,7.704-19.008c0.432-2.16,1.44-5.04,5.76-23.256c0.288-2.0881,0.576-4.176,0.936-6.264
		c0.288-0.792,0.576-1.584,0.936-2.376c0.432,0,0.864-0.0721,1.368-0.144c0.36,0.36,0.792,0.792,1.224,1.224
		c1.224,2.016,2.52,4.104,3.816,6.192c7.7039,9.648,7.7039,9.648,9.576,11.664c0.432,0.72,0.864,1.44,1.296,2.16
		c0,3.672,0,7.344,0,11.088c0.72,7.344,1.44,14.688,2.16,22.032c0.288,0.936,0.576,1.872,0.864,2.88
		c0.216,0,0.432,0.072,0.72,0.1439c1.008-1.0079,2.088-2.088,3.168-3.1679c1.872-2.376,3.816-4.824,5.7599-7.272
		c1.44-2.16,2.8801-4.392,4.3201-6.624c0.288-0.072,0.576-0.144,0.936-0.2159c0.504,0.5759,1.08,1.152,1.656,1.8
		c0.864,2.376,0.864,2.376,1.8,6.264c0.936,2.016,1.872,4.104,2.88,6.192c6.696,12.0239,6.696,12.0239,11.448,19.584
		c0.216,0,0.432,0,0.72,0c0.72-0.936,1.44-1.872,2.16-2.88c0.36,0.072,0.72,0.144,1.152,0.216c0.288,0.576,0.5759,1.152,0.864,1.8
		c0.144,1.008,0.288,2.088,0.432,3.168c0.648,2.304,1.296,4.608,1.944,6.912c1.44,3.168,1.44,3.168,1.944,3.6
		c0.936,2.736,1.872,5.472,2.88,8.208c0.936,1.152,0.936,1.152,2.88,4.752c1.872,4.608,2.88,6.264,9.576,21.888
		c0.288,0.936,0.576,1.872,0.936,2.88c1.296,2.52,2.592,5.04,3.8881,7.632c0.5759,1.728,1.224,3.528,1.872,5.328
		c1.5839,3.384,3.168,6.84,4.824,10.296c0.936,2.592,1.872,5.256,2.8799,7.92c0.144,0.936,0.288,1.872,0.504,2.88
		c5.76,14.4,6.696,16.056,7.632,18.72c1.008,1.944,1.008,1.944,2.88,7.416c0.6479,0.936,1.296,1.872,1.944,2.88
		c1.4399,4.104,1.944,4.824,5.256,13.464c0.288,0.216,0.288,0.216,2.8799,8.424c0,1.44,0,1.44-0.288,1.728
		c-0.72,0.144-1.44,0.288-2.16,0.504c-10.368-0.216-10.368-0.216-14.688-0.72c-9.0721-0.504-9.0721-0.504-16.272-0.504
		c-0.288,0.288-0.288,0.288-3.384,0.504c-4.1041-0.504-4.1041-0.504-10.8-0.72c-7.704,0.504-14.616,0.504-19.08,0.864
		c-0.216,3.6-0.432,7.2-0.72,10.8c0.072,0.432,0.216,0.936,0.36,1.44c3.384,0.36,3.384,0.36,12.4561,0.36
		c8.9279-0.504,8.9279-0.504,19.008-0.504c7.56-0.432,15.12-0.936,22.752-1.44c5.4-0.936,10.872-1.872,16.344-2.88
		c1.872-0.6479,3.816-1.296,5.76-1.944c0.864-0.432,1.728-0.936,2.664-1.44c0.432-0.792,0.432-0.792,1.44-1.44
		c1.296-0.288,2.664-0.576,4.032-0.936c0.288,0.072,0.6479,0.144,1.0079,0.216c0,0.432,0,0.864,0.072,1.368
		c-1.224,1.224-1.224,1.224-2.16,2.88c-5.04,3.816-10.8,7.704-12.96,9.576c-1.8,1.2961-3.672,2.592-5.544,3.888
		c0,0.288,0,0.576-0.072,0.936c3.168-0.216,6.3359-0.432,9.5759-0.648c3.168,0.072,6.408,0.144,9.6481,0.288
		c6.84-0.288,13.68-0.648,20.592-1.008c1.08,0.144,2.232,0.288,3.384,0.504c2.376-0.216,2.376-0.216,2.664-0.576
		c-0.432-0.936-0.432-0.936-0.864-5.544c0-0.936,0-1.872,0-2.88c0.5759-2.016,1.224-4.104,1.8719-6.192
		c0.648-1.512,1.296-3.024,1.944-4.608c0.6479-0.864,1.296-1.728,1.944-2.592c0.288-0.792,0.576-1.584,0.936-2.448
		c0.72-0.72,1.4399-1.44,2.16-2.16c1.44-0.936,2.88-1.872,4.32-2.88c1.728-0.72,3.456-1.512,5.184-2.304
		c3.168-0.792,6.3361-1.584,9.576-2.376c2.52-0.072,5.112-0.144,7.704-0.216c1.584,0.144,3.168,0.288,4.824,0.432
		c3.744,0.936,7.488,1.872,11.2321,2.88c3.024,1.2961,6.048,2.592,9.144,3.888c3.528,1.872,7.056,3.816,10.584,5.76
		c0.792,0.576,1.5839,1.224,2.376,1.872c2.664,3.3839,2.664,3.3839,3.4559,4.752c-0.72,9.576-0.72,9.576-1.6559,16.056
		c-1.872,9.144-3.816,18.36-5.76,27.576c-1.08,3.816-2.232,7.632-3.384,11.5201c-3.8161,17.784-3.8161,17.784-5.76,28.368
		c-1.4401,5.256-1.4401,5.256-1.656,7.416c-0.504,0.72-0.504,0.72-2.448,8.856c-1.872,10.368-1.872,10.368-3.816,18.504
		c-0.36,1.152-0.792,2.376-1.224,3.6c-0.432,2.592-0.936,5.256-1.44,7.92c-0.576,1.512-1.224,3.024-1.8719,4.536
		c0,0.576,0,1.152,0,1.728c-0.6481,1.728-1.296,3.456-1.944,5.256c-4.32,4.104-4.32,4.104-7.776,6.84
		c-3.6,1.872-3.6,1.872-6.264,2.88c-2.6641,0.576-5.4,1.224-8.136,1.872c-4.824,0.504-4.824,0.504-6.48,1.008
		c-5.904,0.288-11.808,0.576-17.784,0.936c-1.872-0.216-3.816-0.432-5.7599-0.72c-2.16-0.936-2.16-0.936-6.192-1.944
		c-4.1041-1.872-4.1041-1.872-7.488-3.816c-0.72-0.576-1.44-1.152-2.16-1.8c-0.432-0.864-0.864-1.728-1.296-2.592
		c-0.288-0.288-0.648-0.648-1.008-1.008c-0.288-0.792-0.576-1.584-0.936-2.376c-0.3599-1.944-0.7919-3.96-1.224-5.976
		c1.008-6.984,1.008-6.984,1.944-11.304c1.224-2.664,1.224-2.664,1.368-3.6c-11.808,0.072-11.808,0.072-24.48,0.576
		c-2.304-0.144-4.608-0.288-6.984-0.504c-22.104,0-22.104,0-44.64,0.504c-39.6-0.72-40.8241-0.936-45.8641-0.936
		c-0.72,0.144-1.44,0.288-2.16,0.432c-0.864-0.144-1.728-0.288-2.592-0.432c-6.048,0-6.048,0-7.488,0.216
		c-4.752-0.504-4.752-0.504-13.176-0.72c-3.096,0.072-6.192,0.144-9.36,0.216c-10.008-0.216-20.016-0.432-30.024-0.72
		c-6.696,0.504-18.432,0.72-27.576,1.44c-35.784,0.72-35.784,0.72-37.944,1.008c-1.944-0.072-3.96-0.144-5.976-0.288
		c-2.448,0.288-4.896,0.648-7.416,1.008c-0.216,0.144-0.432,0.36-0.648,0.576c0,1.728,0,1.728,0.504,3.888
		c-0.216,2.448-0.432,4.896-0.72,7.416c-1.008,4.536-1.008,4.536-1.44,7.92c-0.648,0.864-1.296,1.728-1.944,2.664
		c-1.368,1.152-2.736,2.376-4.104,3.6c-2.664,1.656-5.328,3.384-7.992,5.112c-4.824,1.44-4.824,1.44-5.76,1.944
		c-7.92,1.872-7.92,1.872-13.896,2.88C66.096,373.5359,64.8,373.608,63.504,373.68L63.504,373.68z M57.744,368.856
		c-4.104-1.08-8.28-2.16-12.456-3.312c-4.536-1.944-4.536-1.944-5.976-2.88c-1.944-2.448-1.944-2.448-2.808-4.176
		c-0.144-0.72-0.288-1.44-0.504-2.16c-0.288-0.288-0.576-0.648-0.936-1.008c-0.072-0.504-0.144-1.08-0.216-1.656
		c1.08-1.44,2.376-2.376,8.712-8.424c0.792-0.36,0.792-0.36,1.584-0.216c0,3.384,0,3.384,0.504,10.08
		c0.288,0.792,0.576,1.584,0.936,2.376c0.432,0,0.864,0.072,1.368,0.144c8.136-3.888,8.136-3.888,10.8-4.824
		c3.096-0.504,3.096-0.504,5.04-1.224c2.52-0.288,5.04-0.576,7.632-0.936c5.184,0.072,10.368,0.144,15.624,0.216
		c1.656,0.504,1.656,0.504,6.48,1.008c1.224,0.432,2.52,0.936,3.816,1.44c0,0.36,0.072,0.72,0.144,1.08
		c-0.288,0.864-0.648,1.728-1.008,2.664c-0.576,0.72-1.224,1.44-1.872,2.16c-1.8,1.224-3.6,2.52-5.4,3.816
		c-1.8,0.864-3.672,1.8-5.544,2.736c-3.312,0.936-6.696,1.44-11.736,2.88c-5.544,0.216-10.8,0-11.304,0.216
		C59.688,368.856,58.752,368.856,57.744,368.856L57.744,368.856z M393.7679,366.264c-2.304-0.144-4.608-0.288-6.9839-0.504
		c-6.192-1.944-6.192-1.944-10.512-3.816c-0.936-0.648-1.872-1.296-2.88-1.944c-0.648-1.08-1.296-2.232-1.944-3.384
		c0-0.504,0-1.008,0-1.512c0.4321-0.288,0.936-0.576,1.44-0.864c1.152-0.288,2.376-0.576,3.6-0.936
		c0.504-0.504,0.504-0.504,2.376-1.44c4.1041-1.008,4.1041-1.008,9.36-1.728c6.9839,0,6.9839,0,14.4,0.504
		c2.0159,0.288,4.032,0.576,6.0479,0.936c6.912,1.944,6.912,1.944,9.36,2.88c1.44,1.08,1.44,1.08,3.6,3.384
		c1.152,0,1.152,0,1.512-0.36c1.44-4.032,1.44-4.032,2.88-9.36c1.944-3.6,1.944-3.6,2.376-5.04c0.288,0,0.576-0.072,0.864-0.144
		c0.72,0.504,0.72,0.504,1.944,0.72c0.864,0.648,1.728,1.296,2.6639,1.944c1.872,2.16,1.872,2.16,2.592,2.664
		c0.072,0.432,0.216,0.864,0.36,1.296c-0.072,1.368-0.144,2.736-0.216,4.104c-1.008,1.656-1.008,1.656-3.168,3.816
		c-0.7919,0.576-1.584,1.152-2.448,1.8c-4.32,1.944-9.864,3.816-12.0239,4.824c-1.0801,0.288-2.2321,0.576-3.384,0.936
		c-3.96,0.36-7.92,0.792-11.952,1.224C400.392,366.264,397.08,366.264,393.7679,366.264L393.7679,366.264z M33.264,348.12
		c-0.864-2.376-1.296-4.536-3.24-9.36c-3.096-11.736-3.384-11.952-7.2-25.92c-3.816-16.992-3.816-16.992-9.576-46.08
		c-0.792-3.024-1.584-6.048-2.448-9.072c-2.376-13.464-2.376-13.464-2.88-17.568c-0.288-0.936-0.576-1.872-0.936-2.88
		c-0.432-2.448-0.864-4.896-1.296-7.416c0.216,0,0.432,0,0.72,0.072c2.664,1.944,2.664,1.944,5.976,3.888
		c3.024,0.936,6.048,1.872,9.144,2.88c3.24,0.2881,6.552,0.576,9.864,0.936c31.896-0.936,31.896-0.936,39.6-1.44
		c8.136,0.36,16.272,0.7921,24.48,1.224c5.184-0.072,10.368-0.144,15.552-0.288c3.024-0.216,6.048-0.432,9.144-0.72
		c1.224,0.864,2.52,1.728,3.816,2.664c3.312,0.144,6.696,0.288,10.08,0.504c9.648,1.152,9.648,1.152,9.864,1.44
		c6.984,0.432,7.416,0.72,19.44,1.152c0.36,0.144,0.792,0.288,1.224,0.504c5.472,0.216,16.056-0.216,25.416,0
		c3.96-0.072,7.992-0.144,12.024-0.216c10.44,0.36,20.88,0.72,31.392,1.152c6.768-0.216,6.768-0.216,7.2,0
		c5.328,0.288,12.024,0,37.44,0.72c8.424-0.432,16.128-0.432,18.288-0.72c30.96-0.216,30.96-0.216,32.616-0.432
		c0.288-0.432,0.5759-0.936,0.936-1.44c3.744-2.232,7.488-4.464,11.304-6.768c4.464,0.0721,8.928,0.144,13.464,0.288
		c14.616-0.288,29.2321-0.6479,43.92-1.008c6.768,0.288,13.536,0.648,20.376,1.008c16.56-0.288,16.56-0.288,21.0959-0.72
		c4.824-1.008,7.488-1.944,8.928-2.16c0.432-0.288,0.432-0.288,7.9199-2.16c1.584-0.792,3.168-1.584,4.7521-2.448
		c0.432-0.072,0.9359-0.144,1.4399-0.288c-0.36,3.816-0.864,5.256-1.296,8.64c-1.296,4.752-2.592,9.576-3.8881,14.4
		c-1.2239,5.616-2.52,11.304-3.816,16.992c-0.6479,3.816-1.296,7.632-1.944,11.52c-0.576,2.2321-1.224,4.4641-1.8721,6.768
		c-1.4399,7.92-1.944,9.072-2.1599,10.8c-0.504,1.44-0.504,1.44-3.384,16.056c-0.288,2.52-0.576,5.112-0.936,7.704
		c-0.936,2.736-1.872,5.544-2.88,8.352c-1.944,9.864-1.944,9.864-2.88,13.464c-0.288,0.864-0.6479,1.728-1.008,2.664
		c-0.216,0-0.504,0-0.792,0.072c-0.936-1.224-0.936-1.224-2.16-2.16c-3.6-1.944-3.6-1.944-5.5441-3.384
		c-2.304-0.936-4.608-1.872-6.912-2.88c-3.6-0.936-4.608-1.44-6.984-1.872c-0.216-0.144-0.432-0.288-0.72-0.504
		c-2.232-0.432-4.464-0.936-6.696-1.44c-15.84-0.216-15.84-0.216-19.944-0.504c-2.592,0.144-5.256,0.288-7.92,0.504
		c-20.88-0.216-20.88-0.216-32.904,0c-0.7921-0.144-1.584-0.288-2.376-0.504c-5.7601,0.216-11.52,0.432-17.28,0.72
		c-3.528-0.144-7.056-0.288-10.584-0.432c-0.72-0.144-1.44-0.288-2.16-0.504c-1.8-0.072-3.6-0.144-5.472-0.216
		c-0.288,0.144-0.648,0.288-1.008,0.432c-3.024,0.216-6.048,0.432-9.072,0.72c-10.296-0.72-20.592-1.44-30.96-2.16
		c-8.2079,0-8.2079,0-8.9279,0.288c-4.752,0.216-4.752,0.216-14.4,0c-1.44,0.144-2.88,0.288-4.32,0.432
		c-3.024-0.144-6.048-0.288-9.0721-0.432c-30.96,0.216-30.96,0.216-48.96,0c-0.72-0.072-1.44-0.144-2.16-0.288
		c-5.472,0.288-11.016,0.648-16.56,1.008c-37.944,0.216-38.448,0.432-57.168,0.72c-1.944,0.288-3.96,0.576-5.976,0.936
		c-5.328,0.072-10.656,0.144-16.056,0.216c-1.8-0.144-3.672-0.288-5.544-0.432c-1.944,0.072-3.96,0.144-5.976,0.216
		c-11.808,2.376-12.96,2.8799-15.408,3.384c-2.376,0.936-6.192,1.872-13.896,4.752c-1.872,1.296-3.816,2.592-5.76,3.888
		c-1.08,0.936-2.232,1.872-3.384,2.88C33.768,348.264,33.552,348.192,33.264,348.12L33.264,348.12z M270.648,241.704
		c-0.936-0.144-1.872-0.288-2.8801-0.504c-23.976-0.72-31.1759-1.224-47.5199-1.656c-7.92,0.216-25.92,0-36,0.216
		c-15.84-0.936-15.84-0.936-16.776-1.224c-6.696-0.144-13.392-0.288-20.16-0.432c-12.024-1.008-13.968-1.44-16.128-1.44
		c-1.512-0.144-3.024-0.288-4.536-0.504c-0.936-0.288-1.872-0.576-2.88-0.936c-1.656-1.728-1.656-1.728-4.32-3.6
		c-2.664-2.736-5.4-5.472-8.136-8.208c-1.08-0.864-2.232-1.8-3.384-2.736c-0.072-0.288-0.144-0.576-0.216-0.936
		c6.84,1.512,13.68,3.096,20.592,4.68c1.944,0,4.32,0.432,6.768,0.432c4.608,0.432,9.216,0.936,13.896,1.44
		c32.616-0.216,32.616-0.216,33.12,0c5.472,0.144,11.016,0.288,16.56,0.504c5.4-0.072,10.872-0.144,16.344-0.216
		c12.24,0.432,12.24,0.432,22.032,1.152c9.576-0.144,19.152-0.288,28.8-0.432c0.576-0.144,1.152-0.288,1.728-0.504
		c11.2321-0.36,22.5361-0.792,33.84-1.224c5.256,0.288,13.8961,0,16.992,0.288c3.024,0,6.048,0,9.144,0
		c3.312-0.288,6.696-0.648,10.08-1.008c5.688-1.152,11.376-2.304,17.064-3.456c0,0.216-0.072,0.432-0.1439,0.72
		c-10.944,7.56-19.8,13.32-22.176,15.264c-3.168,1.872-3.168,1.872-4.104,2.88c-0.648,0-1.296,0-1.944,0
		c-0.36-0.144-0.72-0.288-1.152-0.504c-1.008-0.072-2.088-0.144-3.168-0.216c-2.2319,0.216-4.464,0.432-6.6959,0.72
		c-11.7361,0-11.7361,0-24.696,0.432c-3.888,0.288-7.848,0.648-11.808,1.008C276.12,241.704,273.384,241.704,270.648,241.704
		L270.648,241.704z M14.544,230.4c-0.936-0.432-1.872-0.936-2.88-1.44c-0.792-0.648-1.584-1.296-2.376-2.016
		c-0.936-1.44-1.872-2.88-2.808-4.32c-0.216-4.32-0.432-4.536-0.216-6.984c1.944-2.16,1.944-2.16,6.336-5.976
		c1.728-0.936,3.528-1.872,5.328-2.808c1.584-0.576,3.168-1.224,4.824-1.872c3.456-0.936,6.984-1.872,10.512-2.88
		c4.032-0.576,8.136-1.152,12.24-1.728c3.384,0,4.32,0.288,10.08,0.288c1.512,0.144,3.024,0.288,4.608,0.432
		c1.44,0.288,2.88,0.648,4.32,1.008c1.872,2.376,1.872,2.376,2.952,4.464c0,1.296,0,2.664,0,4.032
		c-0.288,0.648-0.576,1.2961-0.936,1.944c-2.088,2.16-2.088,2.16-5.76,5.04c-2.304,0.792-2.304,0.792-7.344,1.8
		c-3.6,0.432-4.752,0.936-13.68,2.16c-5.04-0.144-10.08-0.288-15.12-0.504c-0.72-0.144-1.44-0.288-2.16-0.504c-1.44,0-2.88,0-4.32,0
		c-0.504,0.576-1.008,1.224-1.584,1.872c-0.072,0.504-0.144,1.08-0.216,1.656c0.936,4.824,0.936,4.824,1.224,5.256
		c0,0.36-0.072,0.72-0.144,1.08C16.488,230.4,15.552,230.4,14.544,230.4L14.544,230.4z M447.552,229.32
		c0.072-0.36,0.144-0.72,0.2879-1.152c0.7201-0.72,1.4401-1.44,2.1601-2.16c0.432-0.936,0.936-1.872,1.44-2.88
		c-0.072-0.648-0.1441-1.296-0.2161-1.944c-0.144-0.144-0.36-0.288-0.5759-0.504c-1.08,0-2.2321-0.072-3.384-0.144
		c-9.576,1.008-9.576,1.008-16.056,1.224c-2.232-0.288-4.4641-0.576-6.696-0.936c-2.448-0.648-4.968-1.296-7.488-1.944
		c-1.656-0.6479-3.312-1.296-5.04-1.944c-1.872-1.224-3.816-2.52-5.7599-3.816c-0.576-0.792-1.152-1.656-1.8-2.52
		c0-0.72,0-1.44,0-2.16c1.944-2.592,1.944-2.592,3.2401-3.6c4.1039-1.8,4.1039-1.8,7.488-2.736c4.032-0.504,4.032-0.504,12.672-0.72
		c2.088,0.144,4.176,0.288,6.264,0.432c3.24,0.936,6.552,1.872,9.864,2.88c7.416,3.888,11.736,5.76,15.12,7.704
		c1.296,1.08,2.664,2.232,4.032,3.384c1.2241,0.432,1.2241,0.432,1.728,0.936c0,0.504,0,1.008,0.072,1.584
		c-0.432,1.08-0.936,2.232-1.44,3.384c-1.944,1.872-1.944,1.872-5.832,4.608C452.088,228.24,452.088,228.24,447.552,229.32
		L447.552,229.32z M234.648,224.136c-7.704-0.432-7.704-0.432-10.8-1.008c0-0.864-0.072-1.728-0.144-2.664
		c0.936-7.92,0.936-7.92,1.368-9.144c6.192-0.144,16.272,0.144,16.776-0.144c7.992-0.144,15.984-0.288,23.976-0.432
		c0.576-0.144,1.152-0.288,1.728-0.504c1.2961,0,2.6641,0,4.032,0c0.72,0.216,1.44,0.432,2.16,0.648
		c0.1439,8.856,0.1439,8.856-0.144,11.952c-0.072,0.072-0.144,0.216-0.288,0.36c-3.2401,0.072-6.5521,0.144-9.8641,0.216
		c-0.6479,0.144-1.296,0.288-1.944,0.504C252.576,223.9919,243.648,224.064,234.648,224.136L234.648,224.136z M219.528,223.2
		c-1.008-0.072-2.016-0.216-3.024-0.36c0.072-1.728,0.144-3.456,0.216-5.256c1.008-5.544,1.008-5.544,1.368-6.12
		c1.368-0.072,2.736-0.144,4.104-0.288c0.216,0.36-0.648,4.968-1.44,12.024C220.392,223.2,219.96,223.2,219.528,223.2L219.528,223.2
		z M276.192,223.2c-0.144-1.656-0.288-3.384-0.4321-5.112c0.288-5.76,0.288-5.76,0.6481-7.128c0.7919-0.072,1.584-0.144,2.376-0.216
		c0.36,0.072,0.72,0.216,1.08,0.36c0,3.384,0,6.84,0,10.296c-0.072,0.504-0.2159,1.008-0.36,1.584
		C278.424,223.056,277.344,223.128,276.192,223.2L276.192,223.2z M176.328,209.304c-14.112-0.144-28.296-0.288-42.48-0.504
		c-2.88-0.504-2.88-0.504-6.696-0.72c-1.8,0.288-3.672,0.576-5.544,0.936c-8.424-0.216-8.856-0.432-11.52-0.576
		c0-0.216,0-0.4319,0.072-0.72c4.752-2.736,5.184-3.24,8.568-5.184c0.72-0.288,1.44-0.576,2.16-0.936
		c1.872-1.224,3.816-2.52,5.76-3.816c4.824-4.104,4.824-4.104,9.864-7.92c2.232-2.016,4.464-4.032,6.696-6.048
		c0.288-0.432,0.576-0.936,0.936-1.44c7.488-7.56,8.424-8.856,9.648-9.792c1.872-2.16,4.32-4.32,5.256-5.544
		c12.96-12.24,12.96-12.24,17.064-16.56c0.792-1.008,1.584-2.016,2.376-3.024c0.072-0.432,0.216-0.864,0.36-1.368
		c0.792-0.648,1.584-1.296,2.376-1.944c1.224-1.584,2.52-3.168,3.816-4.824c1.368-1.224,2.736-2.52,4.104-3.816
		c3.816-5.256,5.76-7.416,6.696-8.856c1.008-1.008,14.904-20.16,16.344-22.608c1.224-0.936,1.224-0.936,3.096-3.312
		c1.944-3.6,5.76-9.648,6.264-10.08c1.872-3.6,3.816-7.2,5.76-10.8c6.696-18.288,6.696-18.288,7.56-19.872
		c0.216,0,0.432,0.072,0.72,0.144c0,6.048,0.072,12.168,0.144,18.288c-0.216,1.152-0.432,2.376-0.72,3.6
		c0,5.976,0,5.976,0.72,18.216c-1.008,22.824-1.008,31.176-1.44,40.104c0,3.456,0,6.984,0,10.512
		c-0.504,5.04-0.504,5.04-0.504,9.864c0.144,1.08,0.288,2.232,0.504,3.384c0.072,4.176,0.144,8.424,0.216,12.672
		c-0.144,2.304-0.288,4.608-0.504,6.984c0.288,12.96,0,15.336,0,22.536c-0.072,0.504-0.144,1.0081-0.288,1.584
		c-19.008,0.72-30.24,0.72-39.888,1.152c-5.7599,0-5.7599,0-7.416-0.216C183.096,208.9439,179.712,209.088,176.328,209.304
		L176.328,209.304z M334.512,208.8c-3.8879-0.504-3.8879-0.504-22.608-1.224c-9.576,0.288-9.576,0.288-34.272,0
		c-0.4321-0.0721-0.8641-0.144-1.368-0.288c-0.504-3.168-0.936-11.808-1.944-21.6c-0.4321-3.024-0.936-6.048-1.44-9.144
		c0-3.384-0.936-14.616-0.936-18.936c0.288-1.656,0.576-3.312,0.936-5.04c0.144-2.304,0.288-4.608,0.504-6.984
		c-0.072-4.824-0.144-9.72-0.216-14.616c0.144-3.024,0.288-6.048,0.432-9.144c-0.144-2.304-0.288-4.608-0.432-6.984
		c0.216-12.456,0.216-12.456,0-20.376c-0.288-0.72-0.288-0.72-0.72-23.976c0.072-6.336,0.2161-12.6721,0.36-19.008
		c0.216,0.072,0.432,0.1439,0.72,0.2159c2.16,4.392,4.32,8.7841,6.5519,13.248c1.944,2.6641,1.944,2.6641,8.568,13.32
		c0.432,0,0.936,0,1.4401,0c0.2159-0.144,0.4319-0.288,0.72-0.5039c0.36,0,0.72,0.072,1.08,0.144
		c0.288,1.224,0.576,2.52,0.936,3.816c0,1.368,0,2.736,0,4.104c-0.216,0.792-0.432,1.584-0.72,2.376
		c0.144,0.144,0.288,0.288,0.504,0.5039c0.432,2.376,0.432,2.376,1.44,12.9601c0.576,3.816,1.224,7.632,1.872,11.52
		c0.648,2.88,1.296,5.76,1.944,8.64c1.872,5.688,3.816,11.376,5.7601,17.064c0.7919,2.88,1.5839,5.76,2.376,8.64
		c7.704,19.656,7.704,19.656,11.52,28.296c3.8881,5.544,3.8881,5.544,4.608,6.984c0.216,0.144,0.432,0.288,0.72,0.432
		c0.936,1.944,0.936,1.944,4.752,7.704c1.296,1.728,2.592,3.456,3.888,5.256c2.52,2.88,5.04,5.76,7.632,8.64
		c1.08,0.936,2.232,1.872,3.384,2.88c0.072,0.216,0.144,0.432,0.216,0.72C339.9839,208.512,337.248,208.6559,334.512,208.8
		L334.512,208.8z M344.592,205.704c-0.936-0.648-1.872-1.296-2.88-1.944c-7.704-9.144-7.704-9.144-9.6479-11.016
		c-1.872-2.52-3.816-5.04-5.7601-7.56c-2.52-4.104-5.04-8.28-7.5599-12.456c-1.944-4.32-3.816-9.36-5.7601-13.464
		c-2.88-8.856-3.816-10.8-6.6959-20.16c-0.288-0.72-0.6481-1.44-1.0081-2.16c-0.936-3.96-1.8719-7.992-2.8799-12.024
		c-3.816-9.792-3.816-9.792-4.7521-13.176c-1.008-5.76-1.008-5.76-1.944-14.904c0-2.304,0-4.608-0.072-6.912
		c0.216,0,0.432,0,0.72,0.072c1.512,3.456,3.024,6.912,4.608,10.44c0.288,0.288,0.648,0.648,1.0081,1.008
		c2.52,5.904,5.04,11.808,7.632,17.712c0.288,0.36,0.648,0.792,1.008,1.224c1.872,5.256,1.872,5.256,2.376,5.976
		c0.144,0.792,0.288,1.584,0.504,2.448c0.936,1.728,1.872,3.456,2.88,5.256c7.632,18.936,7.632,18.936,9.36,22.536
		c0.576,2.016,1.224,4.032,1.872,6.048c2.52,5.616,5.112,11.304,7.704,16.992c0.288,1.08,0.576,2.232,0.936,3.384
		c1.584,3.672,3.168,7.344,4.824,11.016c0.4319,1.656,0.936,3.312,1.4399,5.04c0.864,1.656,1.728,3.312,2.664,5.04
		c0,1.44,0,1.44-0.36,1.728C344.736,205.848,344.664,205.7759,344.592,205.704L344.592,205.704z M116.568,200.304
		c0-0.216,0-0.432,0.072-0.72c3.96-4.104,7.992-8.28,12.024-12.456c1.44-1.296,2.88-2.592,4.32-3.888
		c8.136-8.856,12.024-13.68,16.56-18.72c2.664-3.312,5.4-6.696,8.136-10.08c0.936-0.864,1.872-1.728,2.88-2.5919
		c0.504-1.008,4.608-5.544,6.48-8.424c0.72-0.792,1.512-1.656,2.304-2.52c0.288,0,0.648,0,1.008,0c1.872,2.16,1.872,2.16,5.04,5.112
		c0.288,1.008,0.288,1.008,0.072,1.728c-1.224,1.368-2.52,2.736-3.816,4.104c-2.232,1.8719-4.464,3.816-6.768,5.76
		c-4.176,4.608-8.424,9.216-12.672,13.896c-2.304,1.944-2.304,1.944-10.368,10.584c-9.216,7.92-9.216,7.92-16.56,13.68
		C122.544,197.4959,122.544,197.4959,116.568,200.304L116.568,200.304z M269.424,153.864c-0.3599-1.08-0.3599-1.08-1.7999-15.48
		c-0.36-1.44-0.7921-2.88-1.224-4.32c-0.144-2.16-0.2881-4.32-0.432-6.48C260.2079,89.424,260.2079,89.424,259.2,81
		c-0.936-13.896-0.936-13.896-1.44-18.216c0.072-0.504,0.144-1.08,0.288-1.6561c2.88-3.8879,2.88-3.8879,7.2-8.64
		c1.872-2.88,2.376-4.1041,3.816-6.048c0.288-0.144,0.5759-0.288,0.864-0.432c0,1.584-0.072,3.168-0.144,4.752
		c0.144,1.0081,0.288,2.088,0.504,3.168c0.2159,9.5759,0,10.8,0.4319,30.24c0.288,2.16,0,23.472,0.288,26.136
		c0.216,19.44,0.216,19.44,0,35.28c-0.72,7.2-0.72,7.2-1.008,8.136C269.64,154.008,269.64,154.008,269.424,153.864L269.424,153.864z
		 M235.368,48.024c-0.936-1.8-0.936-1.8-2.088-5.4001c-0.936-6.6959-0.936-6.6959-1.44-14.9039c0.648-2.304,1.296-4.608,1.944-6.912
		c0.504-3.6,0.504-3.6,0.864-4.392c0.216,0,0.432,0,0.72,0c0.36,1.2239,0.36,1.2239,0.792,7.488
		c-0.144,7.992-0.288,15.9839-0.432,23.976C235.656,47.88,235.512,47.9519,235.368,48.024L235.368,48.024z"/>
</g>
</svg>
