<?xml version="1.0" encoding="utf-8"?>
<!-- Generator: Adobe Illustrator 21.1.0, SVG Export Plug-In . SVG Version: 6.00 Build 0)  -->
<svg version="1.1" id="Nauc" xmlns="http://www.w3.org/2000/svg" xmlns:xlink="http://www.w3.org/1999/xlink" x="0px" y="0px"
	 viewBox="0 0 327.0959 406.584" enable-background="new 0 0 327.0959 406.584" xml:space="preserve">
<g>
	<path fill-rule="evenodd" clip-rule="evenodd" d="M158.544,406.584c-3.528-0.288-7.056-0.648-10.584-1.008
		c-7.776-1.08-15.624-2.16-23.472-3.312c-9.648-2.88-9.648-2.88-12.24-3.384c-2.808-1.008-5.616-2.016-8.424-3.096
		c-1.656-1.008-1.656-1.008-4.104-1.944c-5.472-3.168-11.016-6.336-16.56-9.576c-2.376-1.584-4.752-3.168-7.2-4.824
		c-0.504,0-1.08,0-1.656,0c-1.08,1.008-2.232,2.016-3.384,3.096c-0.576,0.936-1.224,1.872-1.872,2.808
		c-1.368,1.296-2.736,2.592-4.104,3.96c-1.728,0.792-3.456,1.584-5.256,2.376c-1.44,0-2.88,0-4.32,0
		c-2.88-0.936-2.88-0.936-6.768-2.88c-3.096-1.944-3.096-1.944-8.136-5.76c-2.16-1.872-4.32-3.816-6.48-5.76
		c-2.16-2.664-18.864-19.8-24.12-25.776c-5.76-10.08-5.76-10.08-7.704-14.184c-0.648-1.8-1.296-3.6-1.944-5.472
		C0.144,328.392,0.072,324.936,0,321.48c0.288-0.792,0.576-1.6559,0.864-2.52c0.504,0.072,1.08,0.144,1.656,0.216
		c2.16,1.944,2.16,1.944,5.04,3.888c1.656,0.936,3.312,1.872,5.04,2.88c2.664,0.936,2.664,0.936,6.48,1.656c0.936,0,1.872,0,2.88,0
		c0.072-0.072,0.144-0.216,0.288-0.36c-0.432-1.152-0.432-1.152-1.872-10.08c-0.216-3.816-0.216-3.816,0-8.352
		c0.432-2.016,0.936-4.032,1.44-6.048c0.432-1.008,0.936-2.016,1.44-3.096c0.432,0,0.864-0.072,1.368-0.144
		c0.432,0.288,0.936,0.576,1.44,0.936c1.224,1.872,2.52,3.816,3.816,5.76c1.296,1.512,2.592,3.096,3.888,4.68
		c0.576,1.008,1.224,2.016,1.872,3.024c4.104,4.32,5.328,5.256,6.48,6.696c1.008,0.504,1.008,0.504,6.768,5.76
		c1.44,1.512,2.88,3.024,4.32,4.608c1.584,1.296,3.168,2.664,4.752,4.032c0.432-0.072,0.936-0.144,1.44-0.216
		c2.16-2.16,11.304-10.08,13.968-12.024c3.312-1.872,3.816-2.376,6.48-3.816c0.792-0.216,1.584-0.432,2.376-0.72
		c1.944,1.224,3.96,2.52,5.976,3.816c3.384,2.88,6.984,6.768,11.304,10.8c3.24,2.52,6.552,5.112,9.864,7.704
		c0.72,0.288,1.44,0.576,2.16,0.936c0.792,0.648,1.584,1.296,2.376,1.944c2.376,0.936,2.376,0.936,10.08,4.824
		c2.664,0.936,5.4,1.872,8.136,2.88c5.976,1.224,11.952,2.52,18,3.816c2.376,0.288,4.752,0.576,7.2,0.936
		c3.672,0.072,7.344,0.144,11.088,0.288c5.616-0.648,11.304-1.296,16.992-1.944c4.176-0.792,8.352-1.584,12.528-2.376
		c1.08-0.432,2.16-0.936,3.312-1.44c0.144-1.584-0.36-4.464-0.36-10.224c0.792-1.872,1.584-3.816,2.376-5.76
		c1.368-0.936,1.368-0.936,3.024-2.592c2.88-0.432,2.88-0.432,3.24-0.72c0.144-0.432,0.288-0.936,0.504-1.44
		c0.072-1.368,0.144-2.736,0.216-4.104c-0.792-0.432-1.656-0.864-2.52-1.368c-0.432-0.72-1.656-1.8-2.0161-2.448
		c-0.072-1.0081-0.216-2.088-0.36-3.168c-1.656,0.864-3.816,2.736-6.696,4.68c-2.304,1.224-4.608,2.52-6.9839,3.816
		c-1.872,1.296-3.816,2.592-5.76,3.888c-3.096,2.52-6.192,5.0399-9.36,7.632c-1.512,1.944-3.096,3.888-4.6801,5.904
		c-0.6479,1.584-1.296,3.168-1.944,4.824c-0.432,0.576-0.864,1.152-1.296,1.8c-0.432,0.072-0.936,0.216-1.44,0.36
		c-0.144,0.144-0.288,0.36-0.504,0.576c-0.432,0-0.936,0-1.44,0c-0.648-0.936-1.296-1.944-2.016-2.952
		c-2.232-2.088-4.536-4.176-6.84-6.264c-3.816-2.592-7.632-5.256-11.448-7.92c-6.048-5.256-12.096-10.512-18.216-15.84
		c-3.96-4.32-3.96-4.32-9.864-10.08c-1.872-2.232-3.816-4.464-5.76-6.696c-1.224-2.0161-2.52-4.032-3.816-6.048
		c-1.584-3.384-3.168-6.84-4.824-10.296c-0.432-1.368-0.936-2.7361-1.44-4.104c-0.144-1.512-0.36-3.024-0.576-4.536
		c-0.216,0.072-0.432,0.144-0.72,0.216c-0.576,1.152-1.152,2.376-1.8,3.6c-1.944,6.48-1.944,6.48-2.88,10.8
		c-0.288,0.648-0.576,1.296-0.936,1.944c-1.296,0.792-1.296,0.792-3.744,1.512c-0.36-0.216-0.72-0.504-1.08-0.792
		c-0.936-3.528-1.872-7.056-2.88-10.584c-0.288-2.232-0.576-4.464-0.936-6.696c-0.144-3.312-0.288-6.696-0.504-10.08
		c0.504-4.32,1.08-8.64,1.656-12.96c0.288-1.08,0.648-2.232,1.008-3.384c1.872-3.816,1.872-3.816,3.816-6.696
		c0.936-1.08,1.872-2.232,2.88-3.384c0.864-0.576,1.8-1.224,2.736-1.872C99,238.824,99,238.824,99.72,239.04
		c0.864,2.304,0.864,2.304,1.44,2.808c1.08,5.04,1.08,5.04,2.016,7.92c0.648,1.152,1.296,2.376,1.944,3.5999
		c1.224,1.584,2.52,3.168,3.816,4.752c4.824,3.888,4.824,3.888,12.384,9.144c1.08,0.216,2.232,0.504,3.3839,0.792
		c1.152,0.648,2.376,1.296,3.6,1.944c0.36,1.08,0.36,1.08,0.36,2.52c-0.36,0.36-0.792,0.792-1.224,1.224
		c-1.8,0.792-1.8,0.792-2.232,1.296c-1.44-0.216-2.88-0.432-4.32-0.72c-1.008-0.432-2.088-0.936-3.168-1.44
		c-2.376-0.216-4.752-0.504-7.2-0.792c0.072,0.72,0.216,1.44,0.36,2.16c1.224,2.448,2.52,4.896,3.816,7.416
		c0.936,1.44,1.872,2.88,2.88,4.32c3.888,4.104,3.888,4.104,5.76,6.696c1.44,1.368,2.88,2.736,4.32,4.104
		c3.168,2.52,6.408,5.112,9.6479,7.704c3.24,1.872,3.24,1.872,7.56,3.672c1.44,0.432,2.88,0.936,4.32,1.44
		c0.792,0.072,1.584,0.144,2.376,0.216c0.288-0.288,0.648-0.576,1.008-0.936c0.72-2.016,1.44-4.032,2.232-6.12
		c0.504-5.976,0.936-16.56,1.656-23.976c-0.576-0.864-1.224-1.728-1.872-2.664c-0.72-0.576-1.512-1.152-2.304-1.8
		c-0.72-0.144-1.44-0.288-2.16-0.504c-0.936-0.72-1.872-1.44-2.88-2.16c-1.224-1.584-2.52-3.24-3.816-4.896
		c-0.6479-1.584-1.368-3.168-2.088-4.752c0.072-1.656,0.144-3.312,0.288-5.04c-0.288-0.576-0.648-1.152-1.008-1.728
		c-1.512-0.144-2.232,0.144-5.832,0.144c-1.512-0.648-3.024-1.296-4.536-1.944c-0.864-0.648-1.728-1.296-2.664-1.944
		c-1.944-2.232-1.944-2.232-2.808-3.672c-0.36-1.5121-0.72-3.024-1.152-4.536c0-1.152,0-2.376,0-3.6c0.72-2.88,0.72-2.88,0.72-4.104
		c-0.072-0.216-0.216-0.432-0.36-0.72c-2.88-0.144-2.88-0.144-6.696,0.072c-0.432-0.576-0.864-1.152-1.368-1.728
		c-0.504-2.88-0.504-2.88-0.936-3.6c-0.864-0.144-1.8-0.288-2.736-0.432c-1.944,0.288-1.944,0.288-4.32,0
		c-0.36-0.216-0.72-0.504-1.152-0.792c-0.216-0.936-0.216-0.936-0.432-12.96c0.288-0.36,0.576-0.792,0.936-1.224
		c2.592-0.432,5.184-0.864,7.848-1.296c0.432-0.648,0.432-0.648,0.288-1.296c0.144-1.08,0.288-2.232,0.504-3.384
		c0.576-0.72,0.576-0.72,1.368-1.08c1.152,0,2.376,0,3.6,0c0.288,0.144,0.576,0.288,0.936,0.432c0.576,1.08,1.152,2.16,1.8,3.312
		c0.144,0.576,0.288,1.224,0.432,1.872c1.584,0.36,1.584,0.36,7.344,0.576c1.08-0.144,2.232-0.288,3.384-0.432
		c0-0.36,0-0.72,0.072-1.08c-0.504-0.504-1.008-1.08-1.512-1.656c-0.072-0.36-0.216-0.792-0.36-1.224
		c0.216-4.536,0.216-4.536,0.72-6.696c0.576-0.72,1.224-1.44,1.872-2.16c-0.288-1.296-0.576-2.592-0.936-3.888
		c0-1.224,0-2.52,0-3.816c0.288-0.864,0.576-1.728,0.936-2.664c0.36-0.432,0.72-0.936,1.08-1.44
		c0.864-0.576,1.728-1.224,2.664-1.872c0.864-0.36,1.8-0.792,2.736-1.224c0.144-1.512,0.288-3.024,0.504-4.536
		c0.288-1.008,0.576-2.088,0.936-3.168c1.944-3.816,1.944-3.816,3.888-6.696c1.512-1.224,3.024-2.52,4.536-3.816
		c1.008-0.576,2.016-1.224,3.024-1.872c1.512-0.576,3.024-1.224,4.536-1.872c1.872-0.36,3.816-0.792,5.76-1.224
		c2.088,0,4.176,0,6.264,0c1.368,0.288,2.736,0.576,4.104,0.936c1.8,0.936,3.6,1.872,5.472,2.88c2.304,1.872,4.608,3.816,6.984,5.76
		c0.648,1.152,1.296,2.304,1.944,3.528c0.864,3.024,1.8,6.048,2.736,9.144c0.216,1.8,0.432,3.6,0.72,5.472c0,1.296,0,2.592,0,3.888
		c-1.008,3.6-1.008,3.6-1.44,4.032c-0.6479,1.584-1.296,3.168-1.944,4.824c-3.8159,4.824-3.8159,4.824-5.04,5.976
		c-1.08,0.648-2.16,1.296-3.24,1.944c-1.584,0.576-3.168,1.1519-4.752,1.8c0,0.288-0.072,0.576-0.144,0.864
		c0.144,0.288,0.36,0.576,0.576,0.936c1.368,0,2.736,0,4.104,0.072c1.008-0.288,2.0161-0.576,3.096-0.936
		c0.288-0.216,0.576-0.504,0.864-0.792c0.432-1.44,0.864-2.88,1.296-4.32c0.216-0.144,0.432-0.288,0.72-0.432
		c1.296-0.072,2.592-0.144,3.888-0.216c0.216,0.072,0.432,0.216,0.648,0.36c1.08,2.16,1.08,2.16,2.448,5.904
		c2.1599,0.216,2.1599,0.216,9.36,0.216c1.44-0.288,2.88-0.576,4.32-0.936c0.144-0.144,0.288-0.288,0.504-0.504
		c0.216-1.224,0.504-2.448,0.792-3.672c0.216-0.216,0.432-0.504,0.648-0.792c5.472-0.576,5.472-0.576,6.192-0.36
		c0.864,1.584,0.864,1.584,2.736,6.624c0.72,0.72,0.72,0.72,1.584,1.08c1.152,0,2.376,0,3.6,0c1.008,1.296,1.008,1.296,1.584,2.808
		c0.0721,3.4561,0.144,6.984,0.216,10.512c-0.288,0.36-0.576,0.792-0.936,1.224c-1.296,0.072-2.592,0.216-3.96,0.36
		c-0.648,0.288-1.296,0.576-1.944,0.936c-0.936,1.08-0.936,1.08-1.8,3.024c-0.216,1.224-0.432,2.52-0.72,3.816
		c-0.144,0.072-0.36,0.216-0.576,0.36c-1.224,0-2.52,0-3.816,0c-0.432-0.144-0.936-0.2881-1.44-0.504
		c-0.288-0.36-0.648-0.72-1.008-1.152c-0.0721-1.152-0.216-2.304-0.36-3.456c-0.144-0.288-0.288-0.648-0.504-1.008
		c-1.728-0.864-1.728-0.864-3.888-1.296c-2.232,0.072-4.464,0.144-6.768,0.216c-0.792,0.144-1.584,0.288-2.376,0.504
		c-0.432,0.648-0.864,1.296-1.368,2.016c-0.144,0.648-0.288,1.296-0.432,1.944c-0.432,0.504-0.864,1.008-1.296,1.512
		c-1.224,0.288-1.224,0.288-5.544,0.288c-0.792-0.432-1.584-0.936-2.376-1.44c-0.072-1.44-0.144-2.952-0.288-4.464
		c-0.432-0.144-0.936-0.36-1.44-0.576c-3.384,0-6.84-0.072-10.296-0.144c-0.144,2.16-0.144,2.16,1.296,25.488
		c-0.36,1.872-0.792,3.816-1.224,5.76c-0.648,0.216-1.296,0.504-2.016,0.792c-0.936,0-1.872,0-2.88,0
		c-0.432-0.36-0.936-0.792-1.44-1.224c-0.36,0-0.72,0-1.152-0.072c0.792,2.376,0.792,2.376,1.44,3.24
		c2.376,0.432,2.376,0.432,8.64,0.936c3.0959,0.936,5.256,1.944,7.2,2.376c0.936,0.648,1.872,1.296,2.88,1.944
		c1.872,2.664,1.872,2.664,3.672,6.12c0.504,2.664,0.504,2.664,0.72,6.768c0.288,0.432,0.576,0.936,0.936,1.44
		c0.432,0.216,0.864,0.4319,1.368,0.72c0.576-0.432,1.152-0.936,1.8-1.44c1.8-0.144,3.6-0.288,5.4-0.432
		c1.008,0.288,2.0161,0.648,3.096,1.008c1.008,0.576,2.088,1.224,3.168,1.872c1.728,2.088,1.728,2.088,2.736,4.032
		c0.144,0.576,0.36,1.224,0.576,1.872c0.288,0,0.6479,0.072,1.008,0.144c0.864-1.2961,1.8-2.592,2.736-3.96
		c1.584-4.032,3.168-8.136,4.752-12.24c0.2159-1.368,0.4319-2.736,0.6479-4.104c-0.504,0.072-1.08,0.216-1.656,0.36
		c-2.52,1.224-5.112,2.52-7.7039,3.816c-1.368-0.072-2.736-0.144-4.104-0.288c-0.072-0.576-0.216-1.152-0.36-1.728
		c0.216-0.432,0.432-0.936,0.72-1.44c2.016-2.16,4.536-4.032,12.96-11.736c2.304-2.592,4.608-5.256,6.9839-7.92
		c1.584-2.448,3.168-4.896,4.752-7.416c0.504-1.728,0.504-1.728,1.44-3.168c0.72-0.432,0.72-0.432,2.304-2.16
		c0.288,0.144,0.648,0.288,1.008,0.504c0.2881,0.504,0.576,1.08,0.936,1.656c0.432,0.288,0.936,0.576,1.44,0.936
		c0.288,0.432,0.576,0.936,0.936,1.44c0.864,5.328,0.864,5.328,1.8,14.472c0.216,0.72,0.432,1.44,0.72,2.16
		c0.072,1.728,0.144,3.456,0.216,5.256c0.432,3.096,0.936,6.192,1.44,9.36c0.072,3.168,0.144,6.336,0.288,9.576
		c-1.008,4.32-1.008,4.32-1.944,6.48c-0.648,0.36-1.296,0.72-2.016,1.08c-0.432,0-0.936-0.072-1.44-0.144
		c-0.288-0.432-0.576-0.864-0.864-1.368c-0.504-6.48-0.504-6.48-0.936-8.928c-0.144-0.36-0.36-0.792-0.576-1.224
		c-0.288,0-0.6479,0-1.008-0.072c-0.576,0.72-1.224,1.44-1.872,2.232c-7.704,12.9601-7.704,12.9601-11.52,18.864
		c-0.6479,0.792-1.296,1.584-1.944,2.376c0,0.36,0,0.72,0,1.152c0.144,0.144,0.36,0.288,0.576,0.432
		c0.936,2.448,1.944,4.104,3.384,8.424c0.072,1.008,0.144,2.016,0.216,3.096c-0.288,0.864-0.576,1.728-0.936,2.664
		c-1.944,2.376-1.944,2.376-4.248,4.32c-0.288,0.144-0.576,0.288-0.936,0.504c-0.36,2.016-0.72,4.104-1.08,6.192
		c0.72,0.432,1.512,0.864,2.304,1.296c0.72,0.792,1.44,1.584,2.16,2.448c0.792,1.8,0.792,1.8,1.656,4.896
		c0.288,0,0.648,0.072,1.008,0.144c1.8-1.296,3.6-2.592,5.472-3.888c13.968-11.736,13.968-11.736,14.4-12.456
		c1.656-1.224,3.312-2.52,5.04-3.816c1.08-0.648,2.232-1.296,3.3839-1.944c0.72,0.072,1.44,0.144,2.16,0.216
		c5.04,3.888,5.04,3.888,6.984,5.76c0.288,0,0.576,0,0.936,0c0.936-1.152,1.872-2.376,2.88-3.6c0-0.432,0-0.864,0.072-1.296
		c-4.752-10.8-4.752-10.8-5.04-11.016c-0.936-5.04-0.936-5.04-1.44-10.08c0-8.136,0-8.136,0.504-13.896
		c0.936-2.664,0.936-2.664,1.944-4.608c0.432-0.504,0.864-1.008,1.296-1.584c0.936,0,1.8719,0,2.88,0
		c0.72,0.504,0.72,0.504,3.024,4.248c0.576,2.16,1.224,4.32,1.872,6.48c1.008,5.544,1.008,5.544,1.944,13.176
		c0.144,2.52,0.288,5.112,0.504,7.704c0.072,0.144,0.216,0.288,0.36,0.504c1.296-1.728,2.592-3.528,3.96-5.328
		c1.872-3.312,1.872-3.312,2.88-5.976c0.936-4.104,0.936-4.104,1.152-6.696c-0.792-0.72-1.584-1.44-2.376-2.16
		c-1.224-1.584-2.52-3.168-3.816-4.824c-1.872-2.88-3.816-5.76-5.7601-8.64c-1.296-2.448-2.592-4.896-3.8879-7.416
		c-1.872-4.824-1.872-4.824-3.816-8.64c-0.936-4.608-0.936-4.608-1.944-7.92c0-1.008,0-2.088,0-3.168
		c0.144-0.72,0.288-1.44,0.504-2.16c1.224-1.44,1.224-1.44,3.024-2.736c1.224,0.216,1.224,0.216,1.944,0.72
		c0.072,0.576,0.144,1.152,0.288,1.8c1.296,1.44,2.592,2.88,3.8879,4.32c2.52,3.384,5.04,6.84,7.632,10.296
		c1.944,3.384,3.888,7.488,4.68,8.64c0.072-0.072,0.216-0.144,0.36-0.216c0.288-2.376,0.288-2.376,0.288-11.304
		c-0.792-1.296-1.656-2.664-2.52-4.032c-1.512-0.936-3.0961-1.872-4.68-2.8799c-3.816-4.8961-7.632-9.792-11.52-14.688
		c-3.888-6.696-3.888-6.696-5.76-10.8c-0.432-1.296-0.936-2.664-1.44-4.032c-0.0721-1.44-0.144-2.88-0.288-4.32
		c0.6479-1.008,0.6479-1.008,2.088-1.944c0.648,0,1.296-0.072,1.944-0.144c0.288,0.36,0.6479,0.72,1.008,1.08
		c0.144,0.576,0.288,1.152,0.504,1.728c1.008,0.576,2.016,1.224,3.024,1.872c1.5839,1.368,3.2399,2.736,4.8959,4.104
		c1.2241,1.512,2.52,3.024,3.816,4.536c2.16,3.168,4.392,6.408,6.624,9.6479c0.072-0.072,0.216-0.144,0.36-0.288
		c-0.072-1.728-0.144-3.456-0.216-5.256c-2.88-11.736-2.88-11.736-4.176-15.624c-1.08-0.072-2.232-0.216-3.384-0.36
		c-3.6-1.944-3.6-1.944-5.04-2.376c-2.088-1.296-4.176-2.592-6.264-3.888c-4.752-3.816-4.752-3.816-8.856-7.632
		c-2.8799-3.384-2.8799-3.384-5.688-7.56c-0.936-2.4481-1.872-4.8961-2.88-7.416c-0.936-3.888-1.44-4.824-1.44-5.76
		c0.72-0.432,1.512-0.936,2.304-1.44c0.864,0,1.728-0.072,2.664-0.144c4.536,1.872,5.976,2.88,8.424,3.816
		c1.008,0.6479,2.016,1.296,3.096,1.944c1.944,1.728,3.96,3.456,5.9761,5.256c0.288,0,0.576,0,0.864-0.072
		c-0.216-0.864-0.432-1.728-0.72-2.664c-1.584-3.168-3.168-6.336-4.824-9.576c-1.08-1.224-2.16-2.448-3.24-3.744
		c-0.72-0.072-1.44-0.144-2.16-0.288c-3.312-1.872-3.312-1.872-8.136-3.816c-2.232-1.224-4.464-2.52-6.696-3.816
		c-3.024-2.5201-6.048-5.112-9.144-7.704c-1.368-1.512-2.7361-3.024-4.104-4.536c-1.224-1.728-2.52-3.456-3.816-5.184
		c-3.744-7.416-3.744-7.416-4.248-8.856c0-0.288,0-0.576,0-0.936c1.08-1.728,1.08-1.728,1.584-2.088
		c0.72-0.072,1.44-0.144,2.16-0.216c0.288,0.36,3.888,1.44,8.208,3.312c2.952,1.872,5.904,3.816,8.856,5.76
		c2.808,2.808,5.616,5.616,8.424,8.424c2.016,2.592,4.104,5.184,6.192,7.776c1.944,3.384,1.944,3.384,4.32,6.768
		c1.728,1.08,1.728,1.08,6.048,5.112c0.288,0.36,0.576,0.792,0.936,1.224c0.216,0,0.432,0.072,0.72,0.144
		c-0.36-14.6161-0.36-14.6161-0.144-19.656c0.936-4.824,0.936-4.824,1.8-7.128c2.88-0.936,2.88-0.936,3.6-0.936
		c0.216,0.216,0.432,0.432,0.72,0.72c1.224,2.808,2.448,5.616,3.744,8.496c0.144,0.936,0.288,1.872,0.432,2.88
		c1.008,2.664,1.008,2.664,3.888,14.4c0.288,2.88,0.576,5.76,0.936,8.64c-0.072,2.52-0.144,5.112-0.216,7.704
		c-0.648,2.952-1.296,5.904-1.944,8.856c-0.144,1.512-0.288,3.024-0.504,4.608c-0.288,0.36-0.576,0.72-0.936,1.152
		c0.072,0.72,0.144,1.44,0.216,2.16c0.6479,1.368,1.296,2.736,1.944,4.104c1.152,3.6,2.304,7.2,3.4561,10.8
		c0.36-0.504,0.72-1.08,1.08-1.656c5.76-22.104,5.76-22.104,7.704-28.584c0.936-1.656,0.936-1.656,2.664-3.384
		c0.72,0,1.512-0.072,2.304-0.144c1.152,0.504,1.152,0.504,1.656,1.008c0.216,0.864,0.504,1.8,0.792,2.7361
		c0.216,2.52,0.432,5.112,0.72,7.7039c-0.072,4.392-0.144,8.784-0.216,13.176c-0.288,1.728-0.576,3.528-0.936,5.328
		c-0.936,2.5201-1.8719,5.04-2.8799,7.632c-5.76,11.088-5.76,11.088-7.704,15.624c-1.584,0.936-1.584,0.936-2.736,1.224
		c0.072,1.872,0.5759,3.312,1.296,11.52c0.504,0.432,0.504,0.432,1.296,2.376c0.36-0.36,0.72-0.792,1.08-1.224
		c1.944-4.752,1.944-4.752,3.8881-8.64c2.52-4.176,5.04-8.424,7.632-12.672c1.584-2.304,3.168-4.608,4.824-6.9839
		c1.224-0.936,2.448-1.872,3.744-2.808c0.72-0.072,1.44-0.144,2.16-0.216c1.944,0.504,1.944,0.504,2.376,0.936
		c0,2.016,0.072,4.104,0.144,6.192c-1.2961,5.7599-2.592,11.52-3.888,17.28c-0.576,1.656-1.224,3.312-1.872,5.0399
		c-0.648,1.152-1.296,2.376-1.944,3.6c-2.52,3.816-5.112,7.632-7.704,11.52c-1.224,1.512-2.52,3.024-3.816,4.536
		c-3.456,2.88-5.544,5.256-6.84,6.12c-0.072,1.728-0.144,3.456-0.216,5.184c0.216,0,0.432-0.0721,0.72-0.144
		c1.656-1.584,3.312-3.168,5.04-4.824c2.3041-1.224,4.608-2.52,6.9841-3.816c2.16-0.936,4.32-1.872,6.48-2.88
		c2.376,0.216,2.376,0.216,3.6,0.72c0.288,0.576,0.288,0.576,0.072,4.176c-1.224,2.808-2.52,5.616-3.816,8.424
		c-2.52,3.744-5.112,7.488-7.704,11.304c-2.592,2.52-5.256,5.04-7.92,7.632c-1.584,1.296-3.168,2.592-4.824,3.888
		c-6.3361,3.816-6.3361,3.816-9.072,5.76c-1.296,0.216-2.592,0.504-3.96,0.792c-2.16,2.376-2.16,2.376-5.904,7.56
		c-0.936,1.728-0.936,1.728-1.944,2.88c0,0.216,0,0.432,0,0.72c2.304,2.232,4.608,4.536,6.912,6.84
		c0.36,0.072,0.72,0.144,1.152,0.216c1.728-1.224,3.528-2.52,5.328-3.816c0.936-1.224,0.936-1.224,5.256-5.04
		c3.528-4.032,7.056-8.064,10.5839-12.096c1.2241-1.656,2.4481-3.312,3.6721-5.04c1.224-2.448,2.52-4.896,3.816-7.416
		c0.504-0.504,1.008-1.008,1.584-1.584c0.288,0,0.648,0,1.0081,0c0.288,0.576,0.288,2.736,1.296,6.12
		c0.216,0.36,0.432,0.792,0.72,1.224c0.144,2.448,0.288,4.896,0.432,7.416c-0.144,4.536-0.288,9.072-0.432,13.68
		c0.864,0.072,5.4-0.864,6.624-1.368c2.592-0.432,2.592-0.432,5.76-1.44c7.632-3.816,7.632-3.816,8.136-4.32
		c0.504,0,1.008,0.072,1.512,0.144c-0.2159,2.16-0.2159,2.16-1.1519,4.824c-1.0081,1.944-1.944,4.824-7.2,17.064
		c-0.504,0.432-0.504,0.432-8.208,12.96c-7.632,9.576-7.632,9.576-11.736,14.112c-2.16,1.944-3.096,3.384-7.2,7.704
		c-3.384,3.024-6.84,6.048-10.296,9.144c-1.368,0.936-2.808,1.872-4.248,2.88c-2.088,0.792-2.088,0.792-5.976,1.728
		c-0.432-0.072-0.936-0.144-1.44-0.216c-1.728-1.224-3.4561-2.52-5.256-3.816c-1.944-1.944-1.944-1.944-3.816-4.464
		c-1.872-3.312-1.872-3.312-2.448-4.824c-0.36,0-0.72,0-1.152-0.072c-1.296,0.792-2.5919,1.584-3.888,2.376
		c-2.88,0.936-2.88,0.936-3.312,1.44c-1.728,0.936-2.16,1.44-3.888,2.376c-0.432,0.504-0.432,0.504-3.6,2.448
		c-14.616,7.632-14.616,7.632-22.032,11.016c-1.584,0.288-3.168,0.576-4.824,0.936c-3.96,1.296-7.992,2.592-12.024,3.888
		c-1.224,0.216-2.52,0.432-3.816,0.72c-3.816,0.288-7.632,0.576-11.52,0.936c-5.04,0.936-5.04,0.936-9.576,1.224
		C171.864,406.584,165.24,406.584,158.544,406.584L158.544,406.584z M160.92,404.424c-4.896-0.432-9.864-0.936-14.832-1.44
		c-6.696-0.936-13.392-1.872-20.16-2.88c-2.52-0.648-5.112-1.296-7.7039-1.944c-3.888-1.224-7.776-2.52-11.736-3.816
		c-2.88-1.296-5.76-2.592-8.64-3.888C91.8,386.64,80.28,379.944,77.688,378c-0.576-0.288-1.152-0.576-1.728-0.936
		c-0.936-1.224-0.936-1.224-5.04-4.824c-5.256-4.104-5.256-4.104-12.24-10.296c-3.816-4.32-3.816-4.32-5.976-6.264
		c-1.152-1.8-2.304-3.6-3.528-5.4c0-1.44,0-1.44,0.504-2.592c2.88-3.888,2.88-3.888,3.6-4.32c0.648-0.72,1.296-1.4399,1.944-2.16
		c7.2-6.048,7.632-6.768,12.312-10.584c1.008-0.36,1.944-1.368,2.952-1.8c1.584-1.152,3.168-2.376,4.752-3.6
		c2.232-1.008,4.464-2.088,6.768-3.168c0.72,0,1.44,0,2.16,0c0.864,0.432,1.728,0.936,2.592,1.44
		c0.936,0.864,1.872,1.728,2.88,2.664c0.36,0.072,0.792,0.216,1.224,0.36c0,0.216,0,0.432,0.072,0.72
		c2.448,2.448,4.968,4.968,7.488,7.488c1.8,1.44,3.6,2.88,5.472,4.32c2.808,1.872,5.688,3.744,8.568,5.616
		c0.432,0.144,0.936,0.288,1.44,0.432c1.224,1.008,1.224,1.008,6.48,3.888c4.5359,1.872,11.304,4.032,11.52,4.32
		c6.12,1.224,12.312,2.52,18.504,3.816c2.52,0.288,5.04,0.576,7.632,0.936c3.024,0.072,6.048,0.144,9.144,0.288
		c5.976-0.648,11.952-1.296,18-1.944c4.824-0.936,9.72-1.872,14.616-2.88c4.608-1.872,9.288-3.816,13.968-5.76
		c5.112-3.168,10.224-6.336,15.336-9.576c7.7039-6.768,12.744-10.584,14.616-12.528c1.728-1.152,2.664-2.16,6.048-4.536
		c0.792-0.072,1.584-0.144,2.376-0.216c1.5121,1.296,3.024,2.664,4.536,4.032c3.168,3.5999,6.408,7.2,9.648,10.8
		c1.008,0.792,2.016,1.584,3.096,2.448c0.072,0.288,0.216,0.576,0.36,0.864c1.656,0.936,1.656,0.936,2.88,2.16
		c0.144,0.432,0.288,0.936,0.432,1.44c1.008,1.224,2.088,2.52,3.168,3.816c0.5759,1.224,1.224,2.52,1.8719,3.816
		c0,0.36,0,0.792,0,1.224c-3.816,4.824-7.632,10.584-11.592,15.624c-4.32,4.032-4.32,4.032-8.136,7.056
		c-0.36,0.144-0.792,0.288-1.2241,0.432c-1.512,1.296-3.0239,2.592-4.536,3.888c-3.888,2.52-7.848,5.04-11.808,7.632
		c-5.328,2.88-10.656,5.76-16.056,8.64c-4.824,1.008-7.2,1.944-17.784,4.32c-0.72,0.576-1.44,1.152-2.16,1.728
		c-1.224,0.288-2.52,0.576-3.816,0.936c-6.408,0.792-12.816,1.584-19.224,2.376c-12.24,0.288-18.936,0-19.44,0.288
		C161.928,404.424,161.424,404.424,160.92,404.424L160.92,404.424z M271.8,389.664c0-0.648-0.072-1.296-0.144-1.944
		c2.16-3.312,5.04-6.912,6.048-8.856c0.432-1.944,1.44-4.536,2.88-10.584c0.432-5.256,0.432-5.256,0.72-15.336
		c-0.288-0.504-0.504-2.16-1.44-4.536c-0.648-1.08-1.296-2.232-1.944-3.384c-1.224-1.224-1.224-1.224-3.0959-3.816
		c-0.432-0.936-0.936-1.872-1.44-2.88c0.072-0.288,0.1439-0.648,0.216-1.008c0.936-0.936,3.96-2.88,8.64-6.912
		c5.76-6.264,7.704-8.928,11.52-12.96c3.816-5.04,3.816-5.04,5.544-6.768c0.576-1.224,1.152-2.448,1.8-3.744
		c0.36,0,0.72,0.072,1.08,0.144c0.432,1.224,0.432,1.224,0.72,1.44c0.432,6.048,0.432,6.048,0.72,6.48
		c-0.72,14.184-1.0079,14.688-1.08,16.344c1.224,0.072,1.224,0.072,6.48-0.864c2.88-0.9359,2.88-0.9359,5.76-1.44
		c5.04-1.944,5.04-1.944,7.92-3.384c0.36,0,0.7921,0.072,1.224,0.144c-0.4319,0.72-1.368,3.888-2.304,6.048
		c-0.288,1.224-0.6479,2.52-1.0079,3.816c-0.936,2.232-1.872,4.464-2.88,6.696c-2.52,4.176-5.04,8.352-7.632,12.528
		c-2.232,2.952-4.464,5.904-6.768,8.856c-0.144,0.432-0.288,0.936-0.432,1.44c-0.36,0.072-0.72,0.216-1.08,0.36
		c-4.104,4.32-4.104,4.32-6.264,6.192c-0.576,0.864-1.224,1.728-1.872,2.664c-2.232,2.232-4.464,4.464-6.768,6.696
		c-1.728,1.296-3.456,2.592-5.256,3.96c-0.504,0.576-1.08,1.152-1.656,1.8c-1.296,0.792-2.592,1.584-3.888,2.448
		C274.248,389.736,274.248,389.736,271.8,389.664L271.8,389.664z M54.144,387.36c-0.864-0.288-1.728-0.576-2.664-0.936
		c-1.08-0.648-2.16-1.296-3.312-1.944c-2.16-1.944-7.2-5.76-12.024-10.08c-3.672-3.744-7.344-7.488-11.016-11.304
		c-1.512-1.224-3.024-2.52-4.608-3.816c-3.816-4.536-3.816-4.536-9.576-12.384c-2.16-4.248-4.392-8.568-6.624-12.888
		c-0.648-2.592-1.296-5.256-1.944-7.92c0-1.008,0-2.088-0.072-3.168c0.432,0.072,0.936,0.216,1.44,0.36
		c1.872,1.44,3.816,2.88,5.76,4.32c0.72,0.288,1.44,0.576,2.16,0.936c2.52,0.576,5.112,1.152,7.704,1.7281
		c1.8,0.072,3.6,0.144,5.472,0.2159c0.288-0.36,0.648-0.72,1.008-1.08c-0.432-1.152-0.864-2.376-1.368-3.6
		c-0.432-3.168-0.936-6.336-1.44-9.576c0.072-1.584,0.144-3.168,0.216-4.824c0.432-2.088,0.864-4.176,1.368-6.336
		c0.216,0,0.432,0,0.72,0c0.576,1.152,1.152,2.304,1.8,3.456c1.224,1.728,2.52,3.528,3.816,5.328c5.04,5.76,5.04,5.76,9.864,10.8
		c2.016,1.872,4.104,3.816,6.192,5.76c2.736,2.16,5.472,4.32,8.28,6.48c0,0.288,0.072,0.576,0.144,0.936
		c-4.32,4.104-4.32,4.104-6.264,6.48c-2.88,6.264-2.88,6.264-3.816,9.144c-0.144,0.936-0.288,1.872-0.504,2.88
		c0.216,2.16,0.432,4.32,0.72,6.48c1.296,2.736,2.592,5.544,3.888,8.352c1.224,1.8,2.52,3.672,3.816,5.544
		c1.944,4.104,1.944,4.104,2.376,5.76c0,3.6,0,3.6-0.288,4.896C55.008,387.36,54.576,387.36,54.144,387.36L54.144,387.36z
		 M206.28,348.408c-0.36-1.944-0.36-1.944-0.864-3.168c-0.072-1.296-0.144-2.664-0.216-4.032c0.144-0.648,0.288-1.296,0.504-1.944
		c0.864-1.224,1.8-2.448,2.7361-3.744c0.4319,0,0.936,0,1.44-0.072c0.072,0.792,0.216,1.584,0.36,2.376
		c0.36,0.288,0.72,0.576,1.08,0.9359c0.288,0,0.648,0.0721,1.008,0.144c0.36-0.288,0.72-0.648,1.152-1.008
		c0.216-0.576,0.432-1.224,0.72-1.872c0.576,0.072,1.152,0.144,1.728,0.216c0.936,1.584,0.936,1.584,1.7281,3.96
		c0.072,0.792,0.144,1.584,0.288,2.448c-2.304,1.728-2.304,1.728-5.904,3.672C210.168,346.968,208.224,347.688,206.28,348.408
		L206.28,348.408z M64.44,323.784c-1.152-0.648-2.376-1.296-3.6-1.944c-0.864-1.368-1.728-2.736-2.592-4.104
		c-0.864-0.144-1.728-0.288-2.664-0.432c-1.728-0.648-3.456-1.296-5.256-1.944c-3.6-1.944-3.6-1.944-8.208-3.816
		c-1.008-0.648-2.016-1.2961-3.096-1.944c-1.584-1.368-3.168-2.736-4.824-4.104c-1.872-2.16-3.816-4.32-5.76-6.552
		c-0.936-1.584-1.872-3.168-2.88-4.824c-0.576-1.512-1.152-3.024-1.8-4.536c-1.872-3.24-3.816-6.552-5.76-9.864
		c-0.936-1.296-1.872-2.664-2.88-4.032c-0.072-0.288-0.144-0.6479-0.216-1.008c0.432-1.152,0.432-1.152,1.08-1.656
		c0.648-0.216,1.296-0.432,1.944-0.648c1.296,0.072,2.664,0.144,4.032,0.288c4.32,1.872,4.32,1.872,7.704,3.816
		c1.584,1.224,3.168,2.52,4.824,3.816c0.576,0.864,1.224,1.728,1.872,2.664c3.528,3.888,7.056,7.776,10.584,11.736
		c0.144,0,0.36,0,0.576-0.072c-0.216-1.224-1.224-3.384-3.096-11.304c-0.144-0.216-0.288-0.432-0.504-0.72
		c-0.648-0.288-1.296-0.576-2.016-0.864c-2.16-1.872-3.096-3.096-11.304-10.296c-0.936-1.008-1.872-2.016-2.88-3.096
		c-3.816-5.904-3.816-5.904-5.76-9.504c-0.576-1.44-1.152-2.88-1.8-4.32c-0.864-3.168-1.728-6.336-2.664-9.576
		c-0.216-5.904-0.432-11.808-0.72-17.784c0.576-1.224,1.224-2.52,1.872-3.816c0.216-0.072,0.432-0.216,0.72-0.36
		c1.152,0,2.376,0,3.6,0c0.792,1.584,2.736,3.744,6.552,9.216c1.944,3.888,2.376,5.328,6.264,13.248
		c4.32,10.08,4.32,10.08,4.68,10.296c0.576-0.72,0.576-0.72,1.08-2.88c0.144-2.664,0.288-5.4,0.432-8.136
		c-0.216-0.144-0.432-0.288-0.72-0.504c-0.288-1.44-0.576-2.88-0.936-4.32c-1.944-2.88-3.816-6.696-4.824-7.92
		c-0.936-1.872-1.872-3.816-2.88-5.76c-1.224-3.96-2.52-7.992-3.816-12.024c-0.504-7.2-0.504-7.2-0.504-11.232
		c0.288-2.808,0.648-5.616,1.008-8.424c0.288-0.864,0.576-1.728,0.936-2.664c1.944-2.88,1.944-2.88,3.96-5.04
		c0.936,0.288,1.872,0.576,2.88,0.864c1.224,1.512,1.224,1.512,2.016,3.024c0.288,1.296,0.648,2.664,1.008,4.032
		c1.872,3.888,1.872,3.888,4.32,10.368c0.432,2.232,0.936,4.464,1.44,6.696c0.36,3.744,0.72,7.4879,1.08,11.304
		c0.36-0.432,0.72-0.936,1.08-1.44c1.584-4.608,3.168-9.288,4.752-13.968c-0.216-5.04-0.216-5.04-1.872-18.432
		c0.072-4.68,0.144-9.432,0.216-14.184c0.288-1.656,0.576-3.312,0.936-5.04c1.296-4.104,2.592-8.28,3.888-12.456
		c0.576-1.08,1.224-2.232,1.872-3.384c1.944-2.16,1.944-2.16,3.312-3.024c0.216,0,0.432,0,0.72,0
		c0.576,0.432,1.224,0.936,1.872,1.44c0.144,0.864,0.144,0.864-0.144,3.024c0.144,0.504,0.288,1.08,0.504,1.656
		c-0.072,5.904-0.144,11.808-0.216,17.784c-0.216,1.584-0.432,3.168-0.72,4.824c0,1.008,0,2.016,0.072,3.096
		c7.848-8.64,7.848-8.64,12.888-14.904c1.872-4.032,3.816-7.2,4.752-9.36c2.016-2.376,4.032-4.752,6.048-7.2
		c5.112-3.816,5.112-3.816,8.28-5.76c2.52-1.224,5.112-2.448,7.704-3.744c1.728-0.576,3.456-1.224,5.256-1.872
		c0.792-0.072,1.584-0.144,2.376-0.288c0.648,0.288,1.296,0.648,1.944,1.008c0.792,1.296,0.792,1.296,1.296,3.24
		c-0.36,0.216-0.792,0.432-1.224,0.72c-0.288,0.864-0.576,1.728-0.936,2.664c-1.728,2.592-3.456,5.256-5.256,7.92
		c-2.52,2.88-5.112,5.76-7.704,8.64c-2.16,1.872-4.32,3.816-6.48,5.76c-6.336,3.816-12.672,7.632-19.08,11.52
		c-0.792,0.216-1.584,0.504-2.376,0.792c-1.872,2.952-3.744,5.976-5.688,9c-0.432,1.08-0.936,2.232-1.44,3.384
		c0,0.432,0.072,0.936,0.144,1.44c0.72-0.648,1.512-1.2961,2.304-1.944c0.576-0.7921,1.224-1.584,1.872-2.376
		c4.824-3.816,4.824-3.816,5.76-4.824c5.544-3.816,5.544-3.816,10.512-6.624c2.592-0.72,2.592-0.72,4.32-0.72
		c0.864,0.792,1.728,1.656,2.592,2.52c0,0.504,0.072,1.008,0.144,1.512c-2.16,2.376-2.16,2.376-9.864,12.9601
		c-2.664,2.592-5.4,5.256-8.136,7.92c-3.24,2.52-6.48,5.04-9.72,7.632c-2.088,2.016-4.248,4.032-6.408,6.0479
		c-0.288,0.432-0.576,0.936-0.936,1.44c-0.504,0.288-1.08,0.576-1.656,0.936c-1.944,5.256-1.944,5.256-2.88,8.856
		c0,0.4319,0,0.9359,0.072,1.44c1.44-1.512,2.952-3.024,4.464-4.536c4.464-3.816,8.928-7.632,13.464-11.52
		c1.44-0.576,2.952-1.152,4.464-1.8c0.72,0,1.44,0,2.16,0c0.288,0.144,0.576,0.288,0.936,0.432c0.504,0.648,1.08,1.296,1.656,1.944
		c0.144,1.368,0.144,1.368-0.36,3.744c-1.944,2.88-1.944,2.88-3.816,6.264c-3.816,4.68-7.632,9.36-11.52,14.112
		c-1.368,1.368-2.736,2.736-4.104,4.104c-4.824,3.816-4.824,3.816-10.152,8.712c-0.36,0.144-0.792,0.288-1.224,0.504
		c-0.36,2.304-0.648,2.52-1.08,5.184c0.144,2.88,0.288,5.76,0.432,8.64c0.288,0.36,0.576,0.792,0.864,1.224
		c1.08-1.44,4.896-8.208,6.84-11.088c2.16-2.376,2.16-2.376,5.04-6.192c1.44-1.008,3.6-3.168,6.12-5.04
		c0.648-0.288,1.296-0.576,1.944-0.864c0.648,0.072,1.296,0.144,1.944,0.216c2.376,1.944,2.376,1.944,2.736,2.52
		c0,0.72-0.288,1.224-1.224,9.36c-1.224,2.808-2.52,5.616-3.816,8.424c-1.296,2.376-2.592,4.752-3.888,7.2
		c-1.872,2.664-3.816,5.4-5.76,8.136c-1.872,1.944-4.32,3.888-4.752,4.608c-0.504,0.288-1.008,0.576-1.584,0.936
		c0,0.36-0.072,0.792-0.144,1.224c0.432,1.656,0.936,3.312,1.44,5.04c0.936,1.872,1.872,3.816,2.88,5.76
		c0.288,0,0.576,0,0.864,0.072c1.8-4.68,2.736-8.28,4.68-12.816c0.288-0.936,0.576-1.872,0.936-2.88
		c0.648-0.936,1.296-1.872,1.944-2.88c1.512-1.512,3.096-3.096,4.68-4.68c0.432,0.072,0.936,0.144,1.44,0.216
		c0.792,0.4319,1.584,0.9359,2.448,1.44c0.144,0.216,0.288,0.432,0.432,0.72c0,1.008,0.072,2.016,0.144,3.024
		c-0.936,7.128-1.872,14.256-2.88,21.384c-1.944,4.032-1.944,4.032-6.768,12.672c0,0.432,0,0.936,0,1.44
		c1.08,2.016,2.232,4.032,3.384,6.048c0,0.288,0,0.576,0,0.936c-0.36,0.216-0.72,0.504-1.08,0.792
		C65.448,323.568,64.944,323.64,64.44,323.784L64.44,323.784z M215.928,320.184c-0.36-0.36-0.792-0.792-1.224-1.224
		c-0.36-0.072-0.792-0.144-1.224-0.216c-0.504,0.36-1.08,0.72-1.656,1.152c-0.288,0-0.576,0-0.936-0.072
		c-0.432-0.72-0.864-4.536-1.152-5.04c0-0.288,0-0.576,0-0.936c1.368-1.296,2.736-2.592,4.104-3.888c0.36,0,0.72-0.072,1.08-0.144
		c0.792,1.224,1.584,2.448,2.448,3.744c0.2881,1.224,0.2881,1.224,0.0721,4.608C216.144,320.328,216.144,320.328,215.928,320.184
		L215.928,320.184z M180.36,310.536c-0.576-0.216-1.152-0.504-1.8-0.792c-0.936-3.6-0.936-3.6-1.944-10.296c0-2.736,0-5.472,0-8.208
		c0.144-0.36,0.288-0.72,0.432-1.08c1.872-0.144,3.816-0.288,5.76-0.504c2.376-0.936,2.376-0.936,3.816-1.152
		c0.576,0.36,1.152,0.72,1.8,1.08c0.288,1.872,0.576,3.816,0.936,5.76c1.728,2.52,3.456,5.112,5.1841,7.704
		c0.432,0.216,0.936,0.432,1.44,0.72c0,0.216,0,0.432,0.072,0.72c-2.376,1.872-2.376,1.872-5.832,3.816
		c-4.32,1.8-4.32,1.8-6.264,2.232C182.808,310.536,181.584,310.536,180.36,310.536L180.36,310.536z M200.304,301.104
		c-1.152-1.08-2.376-2.232-3.6-3.384c-0.288-0.72-0.576-1.44-0.864-2.16c-0.072-1.152-0.144-2.376-0.216-3.6
		c0.144-0.288,0.288-0.576,0.432-0.936c0.576-0.36,1.152-0.792,1.728-1.224c0.648,0,1.296-0.072,2.016-0.144
		c1.08,0.288,2.232,0.648,3.384,1.008c1.44,0.936,1.44,0.936,1.8,1.584c0.144,0.792,0.288,1.584,0.432,2.376
		c0.288,0.36,0.648,0.792,1.008,1.224c0,0.216,0,0.432,0,0.72c-1.944,2.16-1.944,2.16-4.968,4.536
		C201.096,301.104,200.736,301.104,200.304,301.104L200.304,301.104z M177.264,284.616c-0.36-0.288-0.792-0.576-1.224-0.936
		c-0.288-0.504-0.576-1.008-0.936-1.584c-0.648-2.592-0.648-2.592-0.648-4.752c0.288-0.648,0.576-1.368,0.864-2.088
		c2.448-0.4319,2.88-0.72,3.888-0.72c0.288,0.144,0.576,0.2881,0.936,0.5041c0.576,1.1519,1.152,2.304,1.8,3.528
		c0,1.224,0,2.52,0,3.816c-0.36,0.36-0.72,0.792-1.08,1.224c-0.6479,0.288-1.296,0.576-1.944,0.936
		C178.416,284.544,177.84,284.544,177.264,284.616L177.264,284.616z M159.768,269.28c-1.008-0.648-2.088-1.296-3.168-1.944
		c-1.152-1.224-2.304-2.448-3.4561-3.672c0-0.288-0.072-0.576-0.144-0.936c2.16,0.792,2.16,0.792,5.76,2.736
		c0.576,0.432,1.152,0.936,1.728,1.44c0,0.72-0.072,1.512-0.144,2.304C159.984,269.424,159.984,269.424,159.768,269.28
		L159.768,269.28z M162.36,259.2c-0.36-0.36-0.72-0.72-1.152-1.08c-0.072-0.288-0.144-0.576-0.288-0.936
		c1.008,0.072,1.008,0.072,1.728,0.576c0.216,0.36,0.432,0.792,0.72,1.224C163.08,259.056,162.72,259.128,162.36,259.2L162.36,259.2
		z M156.888,254.16c-1.224-0.504-1.224-0.504-4.608-0.936c-0.864-0.432-1.728-0.936-2.592-1.44
		c-1.296-0.144-2.592-0.288-3.888-0.504c-0.288-0.216-0.576-0.504-0.864-0.792c0.072-2.16,0.144-4.32,0.288-6.48
		c-0.504-3.384-1.008-4.32-1.44-6.048c-0.288-0.504-0.648-1.08-1.008-1.656c-0.864-0.72-1.8-1.44-2.736-2.16
		c-1.08-0.432-2.16-0.864-3.312-1.368c-1.08,0-2.232,0-3.384,0c-4.32,1.008-5.256,1.44-6.264,1.44
		c-0.432-0.792-0.864-1.584-1.296-2.448c0-0.576,0.072-1.224,0.144-1.872c3.816-0.216,7.2,0,14.112-0.216
		c0.36,0.36,0.864,2.088,1.944,3.384c1.656,0,3.312,0,5.04,0c1.224-0.504,1.224-0.504,2.016-1.296
		c0.072-0.7921,0.216-1.584,0.36-2.448c3.024-0.144,6.048-0.2881,9.144-0.432c-0.288,8.352-0.576,16.776-0.864,25.2
		C157.464,254.088,157.176,254.088,156.888,254.16L156.888,254.16z M134.064,247.68c-0.216-0.144-0.432-0.36-0.72-0.576
		c-0.36-1.944-0.36-1.944-0.144-3.816c0.288-0.432,0.576-0.864,0.864-1.368c0.648,0,1.296,0,1.944,0
		c0.216,0.288,0.432,0.576,0.72,0.864c0,1.008,0,2.016,0.072,3.096c-0.504,0.576-1.008,1.152-1.584,1.728
		C134.856,247.608,134.496,247.608,134.064,247.68L134.064,247.68z M145.368,214.776c0-0.216-0.072-0.504-0.144-0.792
		c0.864-0.36,0.864-0.36,2.736-1.8c0.288-0.936,0.648-1.872,1.008-2.808c0.216,0,0.432,0,0.72-0.072
		c1.152,0.936,1.152,0.936,2.16,2.232c-0.072,0.144-0.144,0.2881-0.288,0.5041c0.216,0.072,0.432,0.144,0.72,0.288
		c-0.072,0.288-0.216,0.576-0.36,0.936c-0.576,0.432-1.152,0.864-1.8,1.296C148.536,214.632,146.952,214.704,145.368,214.776
		L145.368,214.776z M143.928,208.08c-0.144-0.144-0.288-0.288-0.504-0.504c-0.432-0.072-0.936-0.144-1.44-0.216
		c-0.288,0.144-0.576,0.288-0.936,0.504c-0.936-0.216-1.872-0.432-2.88-0.72c-0.144-0.144-0.288-0.288-0.504-0.504
		c0-0.504,0-1.008,0-1.512c0.648-0.432,1.296-0.864,1.944-1.368c0.72,0,5.0399,1.944,6.192,2.088c-0.072,0.72-0.216,1.44-0.36,2.16
		C144.936,208.008,144.432,208.008,143.928,208.08L143.928,208.08z M173.448,206.424c-0.432-1.8-0.432-1.8-0.864-6.12
		c-0.576-1.944-1.152-3.96-1.728-5.976c-0.072-1.152-0.144-2.376-0.216-3.6c-0.36-0.288-0.72-0.576-1.08-0.864
		c-0.792-0.144-1.584-0.288-2.376-0.504c-1.656,0.216-4.536,0-5.976,0.216c-1.224,0.504-1.224,0.504-1.728,1.08
		c-0.144,0.792-0.144,0.792,0.576,9.144c-0.288,1.584-0.576,3.168-0.936,4.824c-0.432,0-0.864,0-1.296,0.072
		c-1.008-0.576-2.0161-1.224-3.096-1.872c0-0.2881-0.072-0.576-0.144-0.864c1.872-4.536,1.872-4.536,2.376-6.48
		c-0.072-1.296-0.144-2.664-0.216-4.032c-0.288-0.864-0.648-1.728-1.008-2.664c-0.576-0.72-1.224-1.44-1.872-2.16
		c-0.792-0.648-1.656-1.296-2.52-1.944c-0.864-0.144-1.728-0.288-2.664-0.432c0.072-0.936,0.216-1.872,0.36-2.88
		c1.008-1.584,2.016-3.168,3.096-4.8239c2.448-1.944,2.448-1.944,5.688-3.744c1.656-0.504,3.312-1.08,5.0399-1.656
		c1.728,0.072,3.4561,0.144,5.256,0.216c1.08,0.288,2.232,0.576,3.384,0.936c1.8,0.792,3.672,1.656,5.544,2.52
		c0.936,1.368,2.376,2.52,3.6,4.104c1.7281,4.608,1.7281,4.608,2.2321,6.984c0,2.448,0,4.896,0,7.416
		c-0.936,3.888-0.936,3.888-1.944,6.264c-1.224,1.584-2.52,3.168-3.816,4.824c-0.72,0.576-1.44,1.152-2.232,1.728
		C174.456,206.208,173.952,206.28,173.448,206.424L173.448,206.424z M145.08,196.92c0.144-2.16,0.144-2.16,0.504-2.88
		c0.936-0.432,0.936-0.432,2.16-0.576c0.072,0.072,0.216,0.216,0.36,0.36c-0.072,0.504-0.144,1.08-0.288,1.656
		c-0.36,0.36-0.72,0.792-1.08,1.224C146.232,196.776,145.656,196.848,145.08,196.92L145.08,196.92z M160.2,158.616
		c-3.6-0.144-7.2-0.288-10.8-0.432c-4.536-1.008-4.536-1.008-8.136-1.44c-1.584-0.432-3.168-0.936-4.824-1.44
		c-1.152-0.144-2.376-0.288-3.6-0.504c-1.224-0.648-2.52-1.296-3.816-1.944c-2.376-1.872-2.376-1.872-4.32-3.96
		c-1.944-2.88-1.944-2.88-2.808-4.752c-1.656-7.704-1.656-7.704-3.096-12.456c-1.224-2.376-2.52-4.752-3.816-7.2
		c-2.88-4.32-3.888-5.328-5.76-8.64c-1.872-4.536-3.816-9.072-5.76-13.68c-1.944-0.936-3.888-1.872-5.904-2.808
		c-0.288-0.36-0.576-0.72-0.936-1.08c0-1.224-0.072-2.52-0.144-3.816c0.936-2.664,1.224-2.88,1.224-3.384
		c-1.296-0.864-1.296-0.864-2.304-2.16c-0.144-0.7919-0.36-1.584-0.576-2.376c0-1.3679,0-2.7359,0-4.1039
		c0.936-1.8719,0.936-1.8719,1.152-3.312c-0.72-0.6481-1.44-1.296-2.16-1.944c-0.288-0.936-0.576-1.872-0.936-2.88
		c0.216-3.096,0.216-3.096,0.72-4.536c0.792-0.576,1.656-1.2241,2.52-1.872c0.432-0.072,0.864-0.144,1.296-0.288
		c-0.216-1.728-0.216-1.728,0-4.3199c0.288-0.864,0.648-1.728,1.008-2.664c1.872-2.376,1.872-2.376,2.52-2.808
		c1.584-0.288,3.168-0.576,4.824-0.936c0.216-1.584,0.504-3.24,0.792-4.8961c0.504-0.864,1.08-1.7279,1.656-2.6639
		c1.368,0,2.808-0.072,4.248-0.144c4.104,1.944,4.104,1.944,4.536,2.448c0.288,0,0.576-0.072,0.864-0.144
		c0.144-0.72,0.288-1.44,0.432-2.16c0.36-0.72,0.72-1.44,1.08-2.16c2.664-1.7999,2.664-1.7999,3.888-2.304
		c0.432-0.072,0.936-0.144,1.4399-0.2159c1.008,0.288,2.0161,0.576,3.096,0.936c1.152,0.6479,2.376,1.296,3.6,1.944
		c0.36,0.36,0.792,0.792,1.224,1.224c0.216,0,0.432,0,0.72,0c0.432-0.432,0.936-0.936,1.44-1.44c1.944-0.504,1.944-0.504,5.04-0.72
		c1.08,0.5759,2.232,1.224,3.384,1.872c0.576,0.72,1.224,1.4399,1.872,2.16c0.36,0,0.792,0,1.224,0
		c0.648-0.288,1.2961-0.576,1.944-0.936c2.16,0.2159,2.16,0.2159,3.816,0.7199c0.792,0.8641,1.584,1.7281,2.376,2.6641
		c4.104-0.2881,5.328,0,6.336-0.144c0.504-4.752,1.44-8.64,1.44-9.7919c-0.504-0.36-1.08-0.7921-1.656-1.2241
		c-1.944-3.0959-1.944-3.0959-2.376-4.3199c-0.072-0.864-0.144-1.7281-0.288-2.6641c0.936-2.448,1.872-4.896,2.88-7.416
		c0.072-0.864,0.144-1.7281,0.288-2.664c-0.144-0.288-0.288-0.576-0.504-0.936c-0.792-0.144-0.792-0.144-5.832,0.7921
		c-1.584,0.576-3.168,1.1519-4.824,1.728c-0.432,0.4319-0.936,0.936-1.44,1.44c-0.432,0-0.864-0.072-1.368-0.144
		c-0.216-3.096,0-7.416-0.432-10.8c-0.36-1.584-0.792-3.168-1.224-4.7521c0-0.7919,0.072-1.5839,0.144-2.4479
		c0.648,0,1.2961-0.072,1.944-0.144c2.592,0.504,2.592,0.504,3.816,1.008c2.448,0.216,4.896,0.432,7.416,0.72
		c0.432-0.144,0.936-0.288,1.44-0.504c0.36-0.5761,0.36-0.5761,0.576-4.6801c-0.144-0.504-0.288-1.08-0.432-1.6559
		c-0.576-0.8641-1.152-1.728-1.728-2.664c0-0.288,0-0.5761,0-0.936C159.264,0.36,159.264,0.36,160.92,0
		c4.752,0.072,9.576,0.144,14.4,0.216c0.432,0.432,0.864,0.864,1.296,1.368c0,0.936,0,0.936-0.72,2.664c0,1.512,0,3.024,0,4.5359
		c0.504,1.4399,0.504,1.4399,1.08,1.944c1.008,0.2881,1.008,0.2881,4.824,0.0721c1.152-0.288,2.376-0.5761,3.6-0.936
		c1.008-0.648,2.088-1.296,3.168-1.944c0.36,0,0.72,0,1.152,0c0.144,0.144,0.288,0.288,0.504,0.504
		c0.576,15.48,0.576,15.48,0.36,17.64c-0.216,0.2159-0.432,0.432-0.6479,0.72c-1.152,0.072-1.152,0.072-3.312-0.36
		c-1.728-0.792-3.456-1.584-5.256-2.448c-1.1519-0.288-2.376-0.576-3.6-0.936c-0.792,0.072-1.584,0.144-2.448,0.2161
		c-0.072,0.1439-0.216,0.2879-0.36,0.432c0.072,0.7919,0.144,1.584,0.216,2.376c0.792,1.944,1.584,3.96,2.448,5.976
		c0.072,1.44,0.144,2.88,0.216,4.3201c-0.432,1.008-0.936,2.088-1.44,3.168c-0.648,0.72-1.296,1.4399-1.944,2.16
		c-0.288,0.936-0.576,1.8719-0.936,2.88c-0.072,2.1599-0.144,4.3199-0.216,6.48c0.0721,0.504,0.216,1.008,0.36,1.512
		c0.864,0.144,1.728,0.288,2.664,0.504c0.504,0.36,1.08,0.72,1.656,1.152c0.72,0,0.72,0,1.08-0.288
		c0.288-0.864,0.576-1.728,0.936-2.664c1.944-1.944,1.944-1.944,3.384-2.88c0.648-0.288,1.296-0.576,2.016-0.864
		c1.152,0.072,2.376,0.144,3.6,0.216c3.384,2.6639,3.384,2.6639,3.888,2.6639c0.576-1.08,1.152-2.1599,1.728-3.24
		c0.936-0.432,1.872-0.864,2.808-1.296c0.792,0,1.584,0,2.376,0c0.648,0.288,1.296,0.576,1.944,0.936
		c0.36,0.3599,0.792,0.7919,1.224,1.2239c0.288,0.072,0.576,0.144,0.936,0.2161c0.72-0.432,1.44-0.936,2.16-1.44
		c3.096-0.936,3.096-0.936,5.256-1.224c0.36,0.144,0.792,0.288,1.224,0.504c0.936,1.08,1.872,2.232,2.88,3.384
		c0.216,0.5759,0.504,1.152,0.792,1.8c0.36,0,0.72,0,1.152,0.072c0.504-0.288,1.08-0.576,1.656-0.936
		c0.72-0.072,1.44-0.1439,2.16-0.2159c0.936,0.72,1.872,1.44,2.88,2.2319c0.792,1.0081,1.656,2.0881,2.52,3.1681
		c0.144,0.792,0.288,1.5839,0.432,2.376c0.648,0.072,1.368,0.216,2.088,0.36c1.224,0.6479,2.52,1.296,3.816,1.944
		c0.576,0.648,1.152,1.296,1.8,2.0159c0.288,1.0801,0.576,2.2321,0.936,3.384c0,0.648,0,1.296,0,1.944
		c-0.432,0.72-0.432,0.72-0.36,1.6561c3.6,1.944,3.6,1.944,4.68,2.88c0.144,0.288,0.288,0.576,0.504,0.936
		c0.072,1.656,0.144,3.312,0.216,5.04c-0.936,1.44-0.936,1.44-2.16,2.4481c0,0.7199,1.008,2.376,1.728,4.752
		c0,1.008,0,2.088,0,3.168c-0.648,0.936-1.296,1.872-1.944,2.8799c-1.2961,0.936-1.2961,0.936-2.7361,1.44
		c0.0721,1.152,0.36,1.44,0.576,5.256c-0.144,0.432-0.2881,0.936-0.504,1.44c-0.864,0.936-1.7281,1.872-2.592,2.88
		c-1.08,0.432-2.16,0.864-3.24,1.296c-1.224,2.0881-2.448,4.248-3.744,6.408c-1.872,4.032-3.816,8.136-5.76,12.24
		c-1.584,2.664-3.168,5.4-4.824,8.136c-0.504,0.216-1.008,0.504-1.512,0.792c-1.224,2.52-2.448,5.04-3.744,7.632
		c-0.936,1.152-1.872,2.376-2.88,3.6c-0.288,0.576-0.576,1.224-0.936,1.872c-2.016,2.016-4.032,4.032-6.048,6.048
		c-1.5121,0.936-1.5121,0.936-6.048,2.736c-1.872,0.576-3.816,1.224-5.76,1.872c-5.76,0.936-11.52,1.872-17.28,2.88
		C167.616,158.112,163.944,158.328,160.2,158.616L160.2,158.616z M156.168,152.64c-2.808-0.072-5.616-0.144-8.424-0.216
		c-2.88-0.432-5.76-0.936-8.64-1.44c-3.096-1.008-3.096-1.008-5.544-1.44c-0.216-0.288-0.432-0.576-0.72-0.864
		c0-0.288,0-0.576,0-0.936c1.44-0.864,1.44-0.864,4.32-1.8c6.048-1.008,6.048-1.008,14.184-1.944c3.6-0.216,7.2-0.432,10.8-0.72
		c6.264,0.072,12.6,0.144,18.936,0.216c2.808,0.288,5.616,0.648,8.424,1.008c4.104,1.152,4.104,1.152,4.32,1.512
		c-0.216,0.216-0.432,0.432-0.72,0.648c-2.952,0.936-5.904,1.872-8.856,2.88c-6.336,0.936-12.672,1.872-19.008,2.88
		C162.216,152.496,159.192,152.568,156.168,152.64L156.168,152.64z M129.24,141.696c-0.576-1.152-1.152-2.304-1.8-3.528
		c-0.0721-1.008-0.144-2.088-0.216-3.168c5.184-1.8,5.184-1.8,12.096-3.744c5.0399-0.936,5.0399-0.936,12.24-1.872
		c4.032-0.288,8.136-0.648,12.24-1.008c3.168-0.072,6.408-0.144,9.648-0.216c10.944,1.1519,21.888,2.376,32.832,3.6
		c0.072,0.072,0.144,0.216,0.288,0.36c-0.576,1.152-1.224,2.376-1.872,3.6c-1.44,1.728-2.88,3.528-4.32,5.328
		c-0.5041,0-1.0081,0-1.5121,0.072c-2.88-0.936-11.304-2.88-14.616-3.384c-7.704-0.432-7.704-0.432-23.328-0.432
		c-5.832,0.432-11.664,0.936-17.496,1.44c-2.808,0.432-5.616,0.936-8.424,1.44c-1.512,0.504-3.024,1.08-4.536,1.656
		C130.104,141.84,129.672,141.768,129.24,141.696L129.24,141.696z M124.488,121.176c-0.864-0.72-1.728-1.44-2.664-2.16
		c-2.376-3.096-2.376-3.096-3.6-4.176c-3.744-6.48-3.744-6.48-5.688-10.512c-0.288-0.864-0.576-1.728-0.936-2.664
		c0-0.936,0-1.872-0.072-2.88c0.36,0.072,0.72,0.216,1.152,0.36c0.432,0.4319,0.936,0.936,1.44,1.44
		c0.936,0.432,1.872,0.936,2.88,1.44c0.648,0.144,1.296,0.288,1.944,0.432c1.656,1.008,1.656,1.008,4.104,1.9439
		c1.296,0.288,2.664,0.576,4.032,0.936c1.2961,0.648,2.592,1.296,3.888,1.944c0.504,0.504,1.008,1.008,1.512,1.584
		c0,0.36,0,0.792,0,1.224c-1.224,1.584-2.52,3.168-3.816,4.752c-1.08,2.088-2.16,4.176-3.2401,6.336
		C125.136,121.176,124.848,121.176,124.488,121.176L124.488,121.176z M207,118.8c-0.144-0.072-0.36-0.216-0.576-0.36
		c-0.648-1.872-1.296-3.816-1.944-5.76c-0.216-1.2239-0.432-2.52-0.72-3.816c0.72-1.296,1.512-2.592,2.304-3.96
		c0.792-0.288,1.584-0.648,2.376-1.008c1.872-0.144,3.816-0.2881,5.76-0.432c1.512-0.288,3.024-0.648,4.608-1.008
		c0.72-0.2881,1.44-0.576,2.16-0.936c1.224-1.008,2.52-2.016,3.816-3.024c1.944-3.312,1.944-3.312,3.384-6.48
		c0.216,0,0.432,0,0.72-0.072c1.152,0.576,2.376,1.224,3.6,1.872c1.008,1.368,1.008,1.368,1.296,2.304c0,0.576,0,1.152,0,1.728
		c-0.504,1.152-0.504,1.152-1.44,2.376c-0.288,0.144-0.576,0.288-0.864,0.504c-0.936,0-1.872,0-2.88,0.072
		c-0.432-0.504-0.432-0.504-1.44-0.936c-0.576,0-1.224,0-1.872,0c-1.224,1.8719-2.448,3.744-3.744,5.616
		c-0.936,1.872-1.872,3.816-2.88,5.76c-0.648,0.504-0.648,0.504-1.584,0.504c-0.432,0.792-0.432,0.792-1.08,1.224
		c-0.432,1.152-0.936,2.376-1.44,3.6c-0.936,0.936-0.936,0.936-2.52,1.728C209.16,118.8,209.16,118.8,207,118.8L207,118.8z
		 M153.288,117.864c-0.648-0.144-1.296-0.288-1.944-0.504c-1.44-0.936-2.88-1.8719-4.32-2.88c-0.936-1.368-1.8719-2.736-2.88-4.104
		c-0.432-1.296-0.864-2.592-1.368-3.888c0-0.36,0-0.7921,0-1.224c2.448-1.944,2.448-1.944,4.032-2.808
		c1.44-0.072,2.88-0.144,4.32-0.2161c2.376,0.648,4.752,1.296,7.2,1.944c0.936,0.432,1.944,0.864,2.952,1.296
		c-0.072,0.936-0.144,1.872-0.216,2.88c-0.432,1.512-0.936,3.024-1.44,4.608c-1.296,1.584-2.592,3.168-3.888,4.752
		C154.944,117.72,154.152,117.792,153.288,117.864L153.288,117.864z M177.768,116.136c-0.648-0.144-1.296-0.288-1.944-0.432
		c-1.656-1.008-1.656-1.008-2.088-1.584c-0.936-2.592-0.936-2.592-1.872-6.696c0-0.5039,0-1.0799,0-1.6559
		c0.864-0.576,1.8-1.224,2.7361-1.872c0.72-0.216,1.44-0.432,2.16-0.72c3.168,0,3.168,0,6.984,0.504
		c1.8,0.432,3.672,0.936,5.544,1.44c0.36,0.288,0.72,0.576,1.152,0.936c0,0.432,0.072,0.864,0.144,1.3679
		c-1.08,1.584-2.232,3.1681-3.384,4.824c-1.296,0.936-2.592,1.872-3.96,2.88c-0.864,0.216-1.728,0.504-2.592,0.792
		C179.712,115.992,178.776,116.064,177.768,116.136L177.768,116.136z M102.168,99.36c-1.08-0.576-2.16-1.1519-3.312-1.8
		c0-1.008,0-2.016,0-3.096c0.144-0.432,0.288-0.936,0.504-1.44c0.72-0.2881,1.512-0.576,2.304-0.864
		c1.656-0.072,3.312-0.144,5.04-0.216c1.08,1.512,2.232,3.096,3.384,4.68c-0.288,0.36-3.384,1.296-6.048,2.736
		C103.464,99.36,102.816,99.36,102.168,99.36L102.168,99.36z M210.6,94.824c-2.88-1.008-2.88-1.008-4.32-1.944
		c-0.864-1.08-0.864-1.08-3.744-7.56c-0.576-2.448-1.224-4.896-1.872-7.416c-0.36,0-0.72-0.072-1.08-0.144
		c-0.432,0.504-0.864,1.008-1.368,1.584c-0.936,3.6-0.936,3.6-1.872,9.864c-0.288,0.792-0.648,1.584-1.008,2.376
		c-0.504,0.216-1.008,0.504-1.512,0.792c-2.5201,0.576-5.112,1.1519-7.704,1.728c-2.016,0-4.104,0-6.192,0
		c-1.008-0.288-2.088-0.648-3.168-1.008c-1.08-0.576-2.16-1.224-3.312-1.8721c-0.864-0.7919-1.728-1.6559-2.592-2.5199
		c-0.432-1.944-0.432-1.944-0.72-7.2c1.44-2.0881,2.952-4.176,4.464-6.264c0.792-0.576,1.656-1.224,2.52-1.872
		c2.448-1.224,4.896-2.4481,7.344-3.744c2.376-0.936,4.752-1.872,7.2-2.88c4.104-1.008,4.104-1.008,7.2-1.44
		c3.816,0.216,3.816,0.216,9.576,1.152c4.824,1.9439,4.824,1.9439,6.48,2.8799c1.008,1.224,1.008,1.224,1.8,2.808
		c0.288,1.1519,0.576,2.376,0.936,3.6c0.2159,2.952,0.4319,5.904,0.72,8.856c-1.872,5.5441-1.872,5.5441-2.88,7.704
		c-1.08,1.224-1.08,1.224-2.952,2.52C211.896,94.824,211.248,94.824,210.6,94.824L210.6,94.824z M127.368,93.384
		c-0.792-0.144-1.584-0.288-2.448-0.504c-3.312-1.944-3.312-1.944-5.7599-3.816c-1.8-3.24-1.8-3.24-3.24-7.056
		c-0.072-1.4399-0.144-2.8799-0.216-4.3199c0.288-1.008,0.576-2.088,0.936-3.168c0.648-0.936,1.296-1.872,1.944-2.88
		c1.512-1.2241,3.024-2.52,4.536-3.816c7.344-3.744,7.344-3.744,9-4.248c3.672,0.36,7.344,0.792,11.088,1.224
		c1.728,0.6479,3.456,1.296,5.256,1.944c3.384,1.872,3.384,1.872,8.856,5.76c1.728,1.5839,3.456,3.24,5.184,4.8959
		c0.216,1.08,0.432,2.2321,0.72,3.384c0,0.864,0,1.728,0,2.664c-0.432,2.448-0.936,4.8961-1.44,7.416
		c-0.36,0.3599-0.72,0.72-1.08,1.08c-1.656,0.432-1.656,0.432-5.7599,0.72c-3.024,0-6.048,0-9.144,0
		c-1.44-0.432-2.88-0.936-4.32-1.4401c-0.288-0.2879-0.576-0.5759-0.864-0.8639c-1.512-3.8881-3.024-7.776-4.608-11.664
		c-0.216,0-0.432,0-0.72,0c-0.576,0.576-1.224,1.2239-1.872,1.872c-0.72,2.5919-0.936,5.7599-1.44,6.696
		c-0.288,1.512-0.576,3.0239-0.936,4.5359c-0.288,0.288-0.576,0.648-0.936,1.008C128.52,93.384,128.52,93.384,127.368,93.384
		L127.368,93.384z M233.424,90.504c-1.224-0.504-2.664-0.72-4.464-1.584c0.216-4.752,0.216-4.752,0.648-7.632
		c2.16,0.144,4.3199,0.36,6.4799,0.576c0.576,0.864,1.152,1.7999,1.728,2.736c0,1.296,0,2.592,0,3.8881
		c-0.432,0.576-0.864,1.152-1.296,1.728C235.512,90.288,234.504,90.36,233.424,90.504L233.424,90.504z M101.664,89.496
		c-1.368-0.432-2.808-0.864-4.248-1.296c-0.144-1.8-0.288-3.6-0.432-5.472C97.272,82.152,97.56,81.576,97.92,81
		c0.504-0.288,1.008-0.576,1.584-0.864c1.44,0,1.44,0,4.392,0.864c0.72,5.5439,1.224,6.768,1.152,8.064
		C103.968,89.208,102.816,89.352,101.664,89.496L101.664,89.496z M229.32,78.9839c-0.864-3.4559-0.864-3.4559-1.152-6.3359
		c1.656-0.144,3.096-0.648,6.912-0.864c0.864,0.432,1.728,0.936,2.664,1.4399c0.144,0.2161,0.288,0.504,0.504,0.7921
		c0.0721,1.224,0.144,2.448,0.288,3.672c-0.216,0.2159-0.504,0.504-0.792,0.7919C234.36,78.48,231.048,78.9839,229.32,78.9839
		L229.32,78.9839z M102.168,77.976c-1.728-0.288-3.528-0.576-5.328-0.936c-0.432-0.504-0.864-1.0079-1.296-1.512
		c-0.144-0.72-0.288-1.4401-0.504-2.16c0.072-0.576,0.144-1.152,0.216-1.728c1.08-1.152,1.08-1.152,1.872-1.584
		c0.72,0,1.44,0,2.16,0c1.8,0.7919,3.6,1.584,5.472,2.448c0.144,2.736,0.144,2.736-0.144,3.24c-0.216,1.944-0.216,1.944-0.576,2.232
		C103.464,77.976,102.816,77.976,102.168,77.976L102.168,77.976z M227.664,70.7759c-0.576-1.4399-1.152-2.8799-1.8-4.3919
		c-0.432-0.72-0.936-1.44-1.44-2.1601c0-0.2879,0-0.5759,0-0.9359c2.232-2.16,2.232-2.16,3.024-2.592c0.432,0,0.936,0,1.44,0
		c1.08,0.648,2.16,1.296,3.312,1.944c0.432,0.792,0.864,1.6559,1.296,2.52c-0.072,0.7921-0.144,1.584-0.216,2.448
		c-0.432,0.576-0.864,1.152-1.296,1.728C229.824,69.84,228.168,70.7759,227.664,70.7759L227.664,70.7759z M104.76,70.056
		c-1.224-0.576-2.52-1.224-3.816-1.872c-0.432-0.72-0.864-1.5121-1.368-2.304c0.216-1.2241,0.432-2.52,0.72-3.816
		c0.576-0.72,1.224-1.512,1.872-2.304c1.44-0.072,2.88-0.144,4.32-0.2161c0.504,0.1441,1.08,0.2881,1.656,0.4321
		c0.72,0.72,1.44,1.4399,2.16,2.16c0,0.288,0,0.5759,0.072,0.864c-0.936,1.368-1.872,2.736-2.88,4.1039
		c-0.936,2.376-0.936,2.376-1.44,2.88C105.624,69.9839,105.192,69.9839,104.76,70.056L104.76,70.056z M173.16,64.6559
		c-0.0721-0.36-0.216-0.7199-0.36-1.1519c0.072-2.16,0.144-4.32,0.216-6.48c0.288-0.432,0.576-0.864,0.864-1.368
		c0.576,0,1.152,0,1.728,0c0.432,0.2881,0.936,0.6481,1.44,1.0081c0.432,0.648,0.936,1.296,1.44,2.0161
		c0.072,1.008,0.144,2.088,0.288,3.1679c-1.584,0.936-3.24,1.944-4.896,2.9521C173.664,64.8,173.448,64.728,173.16,64.6559
		L173.16,64.6559z M160.488,62.856c-2.088-1.3679-4.248-2.736-6.408-4.1759c0-0.432,0-0.936,0-1.44c0.36-0.36,0.72-0.72,1.08-1.1521
		c0.72-0.2879,1.44-0.5759,2.16-0.864c0.72,0.072,1.44,0.1441,2.16,0.2161c0.36,0.288,0.792,0.576,1.224,0.936
		c0.144,2.088,0.36,4.248,0.576,6.408C161.064,62.784,160.776,62.784,160.488,62.856L160.488,62.856z M221.904,61.416
		c-2.376-1.872-2.376-1.872-5.544-3.8159c0-0.504-0.072-1.0081-0.144-1.5121c0.432-0.792,0.936-1.5839,1.44-2.4479
		c0.504-0.288,1.008-0.576,1.584-0.8641c0.648-0.0719,1.296-0.1439,1.944-0.2159c1.224,0.936,1.224,0.936,3.384,3.4561
		c0,1.0079,0,2.0879,0.072,3.168c-0.432,0.72-0.936,1.44-1.44,2.16C222.768,61.3441,222.336,61.3441,221.904,61.416L221.904,61.416z
		 M112.464,60.696c-1.224-1.2961-2.448-2.5921-3.744-3.888c-0.072-0.792-0.144-1.5841-0.216-2.448
		c0.432-1.872,0.432-1.872,1.152-2.8801c0.72,0,1.512-0.072,2.304-0.144c0.792,0.288,1.584,0.6479,2.448,1.0081
		C117,54.216,117,54.216,117.504,54.936c0,0.7199,0,1.512,0.072,2.304c-1.224,1.08-2.52,2.2319-3.816,3.384
		C113.328,60.624,112.896,60.624,112.464,60.696L112.464,60.696z M181.08,59.688c0.144-5.04,0.144-5.04,0.576-6.7681
		c1.008-1.44,1.008-1.44,2.304-2.376c1.008-0.3599,1.008-0.3599,4.608-0.3599c1.152,0.936,2.376,1.872,3.6,2.88
		c0.216,0.72,0.504,1.512,0.792,2.304c-0.072,0.144-0.144,0.2879-0.216,0.432c-2.016,0.576-4.032,1.152-6.12,1.8
		C182.304,59.5439,182.304,59.5439,181.08,59.688L181.08,59.688z M150.408,56.664c-1.152-0.576-2.304-1.152-3.528-1.8
		c0.072-0.432,0.144-0.936,0.216-1.44c0.288-0.36,0.648-0.792,1.008-1.224c0.648,0,1.296-0.072,2.016-0.144
		c1.44,1.008,1.44,1.008,1.8,1.584c0,2.16,0,2.16-0.36,3.024C151.2,56.664,150.84,56.664,150.408,56.664L150.408,56.664z
		 M213.048,55.944c-0.936-0.2881-1.872-0.6481-2.88-1.008c-1.656-0.144-3.312-0.36-5.04-0.576c0-1.4401,0-2.8801,0.072-4.3201
		c0.216-0.2159,0.432-0.432,0.72-0.72c1.08-0.432,2.16-0.864,3.24-1.296c0.72,0,1.44,0,2.16,0c0.72,0.4321,0.72,0.4321,2.52,3.024
		c0.216,0.72,0.216,4.032-0.072,4.896C213.552,55.944,213.336,55.944,213.048,55.944L213.048,55.944z M120.6,55.368
		c0-1.5121-0.072-3.024-0.144-4.608c0.144-0.72,0.288-1.44,0.504-2.16c1.08-0.864,1.08-0.864,3.024-1.584c0.648,0,1.296,0,1.944,0
		c1.44,0.792,2.88,1.584,4.32,2.448c0.36,0.4319,0.72,0.9359,1.152,1.4399c0,0.432,0.072,0.864,0.144,1.296
		C127.944,53.208,124.272,54.288,120.6,55.368L120.6,55.368z M195.768,54.936c-0.144-0.072-0.288-0.144-0.432-0.288
		c-0.072-0.864-0.144-1.728-0.216-2.6641c0.936-3.0959,0.936-3.0959,1.368-3.5279c1.008-0.072,2.016-0.144,3.096-0.216
		c0.504,0.288,1.08,0.576,1.656,0.936c0.864,1.3679,0.864,1.3679,1.584,3.528c0,1.224,0,1.224-0.36,1.8
		C200.232,54.648,198,54.792,195.768,54.936L195.768,54.936z M142.488,53.064c-1.08-0.2881-2.232-0.6481-3.384-1.008
		c-1.368-0.0721-2.7361-0.144-4.104-0.288c0.072-0.576,0.216-1.152,0.36-1.728c0.864-0.864,0.864-0.864,1.584-1.08
		c0.792,0,1.584,0,2.376,0c1.944,0.936,1.944,0.936,3.168,1.944c0.216,0.432,0.504,0.864,0.792,1.296c0,0.288,0,0.5759-0.072,0.864
		C142.992,53.064,142.776,53.064,142.488,53.064L142.488,53.064z"/>
</g>
</svg>
