<?xml version="1.0" encoding="utf-8"?>
<!-- Generator: Adobe Illustrator 21.1.0, SVG Export Plug-In . SVG Version: 6.00 Build 0)  -->
<svg version="1.1" id="Nauc" xmlns="http://www.w3.org/2000/svg" xmlns:xlink="http://www.w3.org/1999/xlink" x="0px" y="0px"
	 viewBox="0 0 435.456 398.88" enable-background="new 0 0 435.456 398.88" xml:space="preserve">
<g>
	<path fill-rule="evenodd" clip-rule="evenodd" d="M214.92,398.88c-4.824-0.504-4.824-0.504-11.52-0.72
		c-10.368-1.872-20.736-3.816-31.176-5.76c-3.24-1.08-6.552-2.232-9.864-3.384c-2.088-0.936-4.176-1.872-6.264-2.88
		c-4.032-1.224-8.136-2.52-12.24-3.816c-2.376-0.936-4.752-1.872-7.2-2.88c-3.312-1.944-3.312-1.944-5.76-2.88
		c-1.296,0.072-2.664,0.144-4.032,0.216c-6.48,2.88-9.864,4.824-14.184,6.696c-2.448,0.792-4.896,1.584-7.416,2.448
		c-7.2,0.432-7.2,0.432-8.424,0.72c-7.632-0.216-15.336-0.432-23.04-0.72c-1.512-0.288-3.024-0.648-4.536-1.008
		c-11.304-3.816-11.304-3.816-18-5.76c-4.32-0.936-4.32-0.936-10.584-1.872c-3.312,0.216-6.696,0.432-10.08,0.72
		c-2.304,0.576-4.608,1.224-6.984,1.872c-2.376,1.008-4.752,2.088-7.2,3.168c-0.792,0.072-1.584,0.144-2.376,0.216
		c-1.44-1.8-1.8-2.952-2.448-3.672c0-0.144,0-0.288-0.072-0.504c3.816-5.04,4.32-6.264,8.136-11.736
		c0.936-1.728,1.944-2.664,7.2-9.864c-0.072-0.216-0.144-0.432-0.216-0.72c-2.592-1.872-5.184-3.816-7.848-5.76
		c-0.648-0.72-1.296-1.44-2.016-2.16c-0.288-0.648-0.576-1.296-0.936-1.944c-1.224-1.152-1.224-1.152-1.728-2.16
		c0-0.288,0-0.576,0-0.936c0.432-0.288,0.864-0.576,1.368-0.864c1.728-0.432,3.456-0.936,5.256-1.44
		c5.04-0.504,5.04-0.504,12.24-0.504c4.176,0.648,8.352,1.296,12.528,1.944c3.6,0.936,7.2,1.872,10.8,2.88
		c12.24,1.944,24.48,3.384,30.672,4.536c9.864,0,9.864,0,14.904-0.432c2.88-0.648,5.76-1.296,8.64-1.944
		c5.472-1.728,11.016-3.456,16.56-5.256c1.944-1.656,3.96-3.312,5.976-5.04c1.944-2.808,1.944-2.808,3.6-6.048
		c0.288,0,0.648,0,1.008,0c1.872,1.008,1.872,1.008,3.096,2.088c0.288,0.72,0.576,1.44,0.936,2.16
		c5.256,2.52,10.512,5.04,15.84,7.56c5.76,1.872,5.76,1.872,9.864,2.88c0.72,0,1.44,0.072,2.16,0.144
		c0.144,0.36,0.288,0.72,0.432,1.152c1.584,0.576,3.168,1.152,4.824,1.8c3.4561,0.936,6.912,1.872,10.368,2.88
		c5.76,0.936,11.52,1.872,17.28,2.88c2.592,0.144,5.256,0.288,7.92,0.504c2.664-0.072,5.4-0.144,8.136-0.288
		c16.056-1.872,16.056-1.872,22.104-2.88c3.312-0.936,3.312-0.936,6.912-1.44c1.872-0.576,3.816-1.224,5.76-1.8719
		c1.728-1.0081,4.608-1.944,17.28-7.704c3.24-1.224,6.552-2.52,9.864-3.816c2.448-1.296,4.896-2.592,7.416-3.888
		c2.2321-1.584,4.4641-3.168,6.7681-4.752c1.872-2.664,1.872-2.664,2.592-3.168c0.288,0,0.6479,0,1.008,0
		c0.72,0.72,1.44,1.512,2.16,2.304c0.7919,2.448,0.7919,2.448,1.728,4.32c0.792,0.792,1.584,1.584,2.448,2.448
		c1.368,0.936,2.736,1.872,4.176,2.88c1.8,0.576,3.6721,1.152,5.5441,1.728c4.464,0.936,8.9279,1.872,13.464,2.88
		c3.744,0.288,7.488,0.648,11.232,1.008c3.24-0.072,6.552-0.144,9.864-0.288c5.688-0.792,11.376-1.584,17.064-2.376
		c1.152-0.504,5.04-0.936,8.856-1.944c6.984-1.44,14.04-2.88,21.096-4.32c2.736-0.792,5.472-1.584,8.2079-2.376
		c1.6561-0.936,6.48-2.88,10.2961-4.824c1.08-0.792,2.2319-1.584,3.3839-2.376c0.288-0.7921,0.288-0.7921,0.936-1.2241
		c0.288,0,0.576,0,0.936,0c1.2241,1.0081,1.2241,1.0081,2.16,2.304c0.072,0.36,0.2159,0.792,0.36,1.224
		c-0.072,0.792-0.144,1.584-0.2159,2.376c-0.648,1.152-1.2961,2.376-1.944,3.6c-1.2241,1.656-2.52,3.312-3.816,5.04
		c-2.16,1.872-4.32,3.816-6.48,5.76c-1.584,1.008-3.168,2.088-4.824,3.168c0,0.216,0,0.432,0,0.72
		c2.808,2.952,5.616,5.904,8.424,8.856c4.0319,5.04,4.0319,5.04,6.48,8.856c0.072,0.432,0.144,0.936,0.216,1.44
		c-0.936,1.224-0.936,1.224-1.512,1.584c-1.224,0-3.168-0.504-15.408-1.728c-1.656,0.144-3.312,0.288-5.04,0.504
		c-9.792,1.944-9.792,1.944-17.28,3.816c-7.632,2.52-15.336,5.112-23.04,7.704c-8.64,1.944-8.64,1.944-11.952,2.376
		c-6.984-0.216-6.984-0.216-17.064-1.152c-5.976-1.008-14.4-1.944-23.04-3.384c-2.8799-0.936-5.7599-1.872-8.64-2.88
		c-1.08,0.072-2.2321,0.144-3.384,0.216c-11.232,3.888-11.232,3.888-20.592,7.704c-7.848,3.816-15.696,7.632-23.544,11.52
		c-5.7599,1.944-5.7599,1.944-11.304,3.384c-3.096,0.432-3.096,0.432-4.536,0.936C223.056,398.16,223.056,398.16,214.92,398.88
		L214.92,398.88z M211.824,393.12c-3.024-0.144-6.0479-0.288-9.144-0.504c-3.528-0.432-7.056-0.936-10.584-1.44
		c-3.6-0.936-9.576-1.944-15.552-3.384c-1.512-0.144-3.024-0.288-4.608-0.432c-3.744-1.296-7.488-2.592-11.232-3.888
		c-2.016-0.936-4.032-1.872-6.048-2.88c-4.104-1.224-8.28-2.52-12.456-3.816c-4.824-1.944-4.824-1.944-13.68-6.264
		c-2.88,0-2.88,0-5.544,0.504c-3.816,1.872-7.632,3.816-11.52,5.76c-2.52,0.936-5.04,1.872-7.632,2.88
		c-1.44,0.288-2.88,0.576-4.32,0.936c-3.168,0-4.32,0.288-16.344,0.288c-4.104-0.144-8.28-0.288-12.456-0.504
		c-3.816-1.224-7.632-2.52-11.52-3.816c-4.896-1.296-9.792-2.592-14.688-3.888c-1.8-0.216-3.6-0.432-5.472-0.72
		c-2.088,0.072-4.176,0.144-6.264,0.288c-2.952,0.432-5.904,0.864-8.856,1.296c0.072-0.504,0.144-1.08,0.288-1.656
		c1.296-1.8,2.592-3.672,3.888-5.544c1.296-1.44,2.592-2.88,3.96-4.32c0.936-0.792,1.944-1.584,2.952-2.376
		c0.216-0.72,0.432-1.44,0.72-2.16c-0.504-0.576-1.008-1.152-1.512-1.8c-0.864-0.288-1.728-0.648-2.664-1.008
		c-1.944-1.224-3.96-2.52-5.976-3.816c-1.224-1.008-2.52-2.016-3.816-3.096c0-0.36,0-0.72-0.072-1.08
		c1.512-0.36,1.512-0.36,6.984-0.864c2.952,0.072,5.904,0.144,8.928,0.216c3.456,0.648,6.984,1.296,10.512,1.944
		c3.456,0.936,6.912,1.872,10.368,2.88c5.976,0.936,6.48,1.224,23.04,3.6c2.448,0.432,4.896,0.936,7.416,1.44
		c3.528,0.072,7.056,0.144,10.584,0.216c2.664-0.288,5.4-0.576,8.136-0.936c4.752-1.224,9.576-2.52,14.4-3.816
		c2.952-1.08,5.904-2.232,8.856-3.384c2.232-1.872,4.464-3.816,6.768-5.76c0.72-0.792,1.44-1.584,2.16-2.376
		c0.432,0.072,0.936,0.144,1.44,0.216c3.816,2.16,8.352,4.104,16.056,7.92c22.104,7.704,22.104,7.704,29.736,10.08
		c6.9839,1.44,6.9839,1.44,19.728,3.384c4.032,0.072,8.136,0.144,12.24,0.216c3.6-0.288,7.2-0.576,10.8-0.936
		c4.32-0.648,8.64-1.296,12.9601-1.944c2.664-0.648,5.4-1.296,8.136-1.944c1.8-0.576,3.672-1.224,5.544-1.872
		c1.656-1.008,1.656-1.008,15.12-6.768c4.032-1.584,8.136-3.168,12.24-4.752c3.096-1.944,3.096-1.944,6.912-3.888
		c2.304-1.656,4.608-3.312,6.9841-5.04c0.2159,0,0.4319,0,0.72,0c0.72,0.792,1.44,1.584,2.16,2.448
		c4.536,3.816,4.536,3.816,7.416,5.76c2.376,0.936,4.752,1.872,7.2,2.88c7.92,1.872,7.92,1.872,13.464,2.88
		c2.808,0.288,5.616,0.576,8.424,0.936c2.304,0.072,4.608,0.144,6.912,0.216c2.88-0.144,5.76-0.288,8.64-0.4319
		c4.608-0.648,9.288-1.296,13.968-1.944c18.936-3.816,18.936-3.816,35.496-7.704c0.432,0,0.936,0.072,1.44,0.144
		c-1.584,1.152-3.168,2.376-4.824,3.6c-0.288,0.864-0.576,1.728-0.864,2.664c0.072,1.08,0.144,2.232,0.288,3.384
		c2.52,1.872,3.4559,2.232,5.9039,4.176c2.16,2.16,2.16,2.16,5.616,6.336c0,0.288-0.072,0.576-0.144,0.864
		c-3.6,0-5.256-0.288-11.2321,0c-3.4559,0.576-6.9119,1.224-10.368,1.872c-6.336,1.872-12.744,3.816-19.152,5.76
		c-3.672,1.296-7.344,2.592-11.088,3.888c-2.304,0.576-4.608,1.224-6.912,1.872c-2.088,0.288-4.176,0.648-6.264,1.008
		c-6.48,0-6.48,0-7.92-0.288c-2.52-0.144-5.112-0.288-7.704-0.432c-5.184-0.648-10.368-1.296-15.552-1.944
		c-3.528-0.648-7.056-1.296-10.584-1.944c-2.808-0.864-5.616-1.728-8.424-2.592c-1.224,0.072-2.52,0.144-3.816,0.216
		c-5.328,1.872-10.656,3.816-16.056,5.76c-2.592,1.224-5.256,2.52-7.92,3.816c-0.936,0.648-1.8719,1.296-2.8799,1.944
		c-15.624,7.704-15.624,7.704-18,8.64c-7.2,1.944-7.2,1.944-16.128,3.816C216.144,393.12,216.144,393.12,211.824,393.12
		L211.824,393.12z M97.056,344.16c-1.584-0.288-3.168-0.648-4.752-1.008c-1.296-0.576-2.592-1.224-3.888-1.872
		c-0.864-0.648-1.728-1.296-2.592-1.944c0-0.504-0.072-1.008-0.144-1.512c0.288-0.36,0.576-0.792,0.936-1.224
		c2.016-0.936,4.032-1.872,6.12-2.808c2.376-0.576,4.752-1.224,7.2-1.872c2.232-0.144,4.464-0.288,6.768-0.504
		c0-0.216,0-0.504-0.072-0.792c-0.432-0.288-0.864-0.576-1.368-0.864c-0.792-0.144-1.584-0.288-2.448-0.504
		c-15.84,0.216-15.84,0.216-20.376,0c-0.864-0.144-1.728-0.288-2.664-0.504c-0.504-0.288-1.08-0.576-1.656-0.936
		c-1.872-2.376-3.816-4.752-5.76-7.2c-1.872-3.168-3.816-6.336-5.76-9.504c-0.864-2.016-1.728-4.032-2.664-6.12
		c-3.312-0.936-3.312-0.936-5.472-1.872c-2.52-1.584-5.112-3.168-7.704-4.824c-1.224-1.296-2.52-2.592-3.816-3.96
		c0.216-0.504,0.216-0.504,0-0.936c0.72-0.648,1.656-0.864,1.872-1.224c3.168-0.792,6.408-1.656,9.648-2.52
		c1.512,0.072,3.024,0.144,4.536,0.216c1.8,0.432,3.672,0.864,5.544,1.368c-0.864-2.16-1.872-3.384-3.312-6.696
		c-0.072-0.72-0.144-1.4399-0.288-2.16c-1.656,0.576-3.312,1.152-5.04,1.728c-1.8,0.36-3.672,0.792-5.544,1.224
		c-2.088,0-4.176,0-6.264,0c-3.312-0.936-3.312-0.936-6.48-2.376c-3.312-2.736-6.696-5.472-10.08-8.208
		c-0.072-0.576-0.216-1.152-0.36-1.728c1.584-0.864,1.584-0.864,4.68-1.872c11.304-0.432,11.304-0.432,15.84-0.936
		c0-0.36,0.072-0.72,0.144-1.08c-0.648-1.224-1.296-2.52-1.944-3.816c-0.504-1.944-1.08-3.96-1.656-5.976c0-1.512,0-3.024,0-4.608
		c-0.576-0.36-0.576-0.36-3.96-0.864c-2.664,0.144-5.4,0.288-8.136,0.504c-0.648-0.288-1.296-0.576-1.944-0.936
		c-4.32-4.248-4.32-4.248-8.424-8.928c-1.224-2.16-2.448-4.32-3.744-6.552c-0.936-2.376-1.872-4.752-2.88-7.2
		c-0.288-1.224-0.576-2.52-0.936-3.816c0-1.368,0-2.736,0-4.104c-0.72-0.648-1.44-1.2961-2.16-1.944
		c-1.224-0.576-2.448-1.152-3.672-1.8c-1.224-1.224-1.224-1.224-2.088-2.736c-0.36-1.152-0.792-2.376-1.224-3.6
		c0-1.656,0-3.312,0-5.0399c0.648-1.872,1.296-3.816,1.944-5.76c1.224-2.16,1.224-2.16,1.224-2.88
		c-1.584-1.224-3.168-2.52-4.824-3.816c-1.872-2.88-3.816-5.76-5.76-8.64c-0.432-1.152-0.936-2.376-1.44-3.6
		c-0.072-1.008-0.144-2.088-0.216-3.168c0.144-0.36,0.288-0.72,0.432-1.152c0.864-0.4319,0.864-0.4319,3.528-0.6479
		c1.08,0.288,2.232,0.576,3.384,0.936c1.872,0.936,3.816,1.872,5.76,2.88c5.976,4.824,5.976,4.824,6.696,5.04
		c0.072-0.792,0.072-0.792-1.368-5.832c-0.216-5.04-0.216-5.04,0-9.144c0.648-3.096,1.296-6.192,1.944-9.36
		c0.936-2.16,0.936-2.16,2.016-3.816c1.224-0.864,1.224-0.864,3.672-1.8c0.216-1.296,0.504-2.592,0.792-3.96c0-1.656,0-3.312,0-5.04
		c-0.504-2.592-1.08-5.256-1.656-7.92c-0.648-1.368-1.296-2.736-1.944-4.104c-1.944-2.88-1.944-2.88-4.824-8.352
		c-0.144-0.432-0.288-0.936-0.432-1.44c0.072-1.584,0.144-3.168,0.216-4.824c0.288-0.864,0.576-1.728,0.936-2.664
		c0.936-1.4399,1.872-2.8799,2.88-4.3199c0.36-0.288,0.792-0.576,1.224-0.936c1.224-1.8,2.52-3.672,3.816-5.544
		c3.888-4.032,8.424-7.92,10.8-10.296c0.288-2.304,0.648-4.608,1.008-6.9839c0.936-3.312,0.936-3.312,2.88-7.92
		c1.872-3.312,1.872-3.312,3.816-5.76c1.368-0.144,1.368-0.144,3.528,0.36c0.216,0.144,0.432,0.288,0.72,0.504
		c0.216,1.152,0.504,2.304,0.792,3.456c0.072,2.736,0.144,5.4719,0.216,8.208c-0.432,3.024-0.936,6.048-1.44,9.072
		c-0.072,1.584-0.144,3.168-0.288,4.8239c1.152-0.36,3.816-2.304,9.36-5.184c0.144-0.144,0.288-0.36,0.432-0.576
		c-0.288-0.288-0.576-0.576-0.864-0.936c0-0.72,0-1.44,0-2.16c-0.936-3.168-0.936-3.168-1.872-5.04
		c0.072-2.448,0.144-4.968,0.216-7.4881c0.288-1.44,0.576-2.88,0.936-4.32C61.2,67.824,61.2,67.824,62.496,65.52
		c0.792,0.072,1.584,0.1439,2.448,0.2159c0.504,0.288,1.08,0.576,1.656,0.864c0,0.936-0.072,1.872-0.144,2.88
		c0.144,0.288,0.288,0.5759,0.504,0.936c0.072,2.0159,0.144,4.032,0.216,6.048c-0.288,3.0239-0.576,6.048-0.936,9.072
		c-0.288,1.512-0.648,3.024-1.008,4.608c-0.576,1.584-1.224,3.168-1.872,4.752c0,0.576,0.072,1.152,0.144,1.8
		c0.504,0,1.008,0,1.512-0.072c0.432-2.016,0.936-4.032,1.44-6.048c1.224-1.944,2.52-3.96,3.816-5.976
		c0.72-0.7921,1.44-1.584,2.16-2.376c1.656-0.936,3.312-1.872,4.968-2.808c2.376-0.504,2.376-0.504,4.104-0.504
		c1.224,0.288,2.52,0.6479,3.816,1.0079c0.36,0,0.72-0.072,1.08-0.1439c0.432-1.6561,0.936-3.312,1.44-5.04
		c0.072-2.952,0.144-5.904,0.216-8.856c-0.648-3.312-1.296-6.6961-1.944-10.0801c0-0.7919,0.072-1.5839,0.144-2.376
		c1.008-0.864,1.008-0.864,4.824-2.808c2.664-1.872,5.4-3.816,8.136-5.76c1.944-1.944,4.32-3.816,8.208-7.7759
		c1.44-1.6561,2.88-3.312,4.32-4.9681c0.36-0.072,0.72-0.1439,1.152-0.2159c2.16,0.936,2.16,0.936,3.456,1.8
		c0.072,0.432,0.144,0.936,0.288,1.44c-0.504,1.008-1.008,1.44-3.888,7.9199c-0.936,3.1681-0.936,3.1681-2.16,9.1441
		c-0.072,1.8719-0.144,3.816-0.216,5.7599c0.432,5.976,0.936,11.952,1.44,18c-0.072,3.384-0.144,6.84-0.216,10.296
		c-0.288,1.152-0.648,2.376-1.008,3.6c-0.576,1.368-1.224,2.736-1.872,4.104c-1.296,1.728-2.592,3.456-3.888,5.256
		c-1.584,1.296-3.24,2.5919-4.896,3.888c-1.656,0.792-1.656,0.792-4.752,1.728c-3.168,0.288-3.168,0.288-12.24,0.288
		c-1.152-0.144-2.376-0.288-3.6-0.504c-1.368-0.648-2.736-1.2961-4.104-1.944c-1.08-1.008-2.232-2.016-3.384-3.096
		c-0.072-0.216-0.144-0.504-0.216-0.792c-0.432,0.072-0.936,0.144-1.44,0.288c-0.648,0.72-1.296,1.44-1.944,2.16
		c-1.8,3.312-3.744,5.904-5.616,9.288c-1.944,2.88-1.944,2.88-3.888,5.04c-0.072,0.36-0.144,0.792-0.288,1.224
		c4.032-0.144,4.032-0.144,12.24,0.288c1.872,0.648,3.816,1.296,5.76,1.944c4.032,2.88,4.032,2.88,4.392,3.528
		c0,0.2881,0,0.576,0,0.936c-1.008,0.648-2.016,1.2961-3.024,1.944c-1.8,0.648-3.6,1.296-5.472,2.0161
		c-4.032,0.072-8.136,0.144-12.24,0.2159c-1.8-0.288-3.672-0.576-5.544-0.936c-1.584-0.648-3.168-1.296-4.752-1.944
		c-2.232-1.224-4.464-2.52-6.768-3.816c-0.144-0.216-0.288-0.432-0.432-0.72c-0.216,0-0.432-0.072-0.72-0.144
		c0.288,1.224,1.296,3.168,1.728,4.608c1.008,1.656,1.008,1.656,2.88,6.912c0.288,1.296,0.648,2.592,1.008,3.888
		c0.072,1.656,0.144,3.312,0.216,5.04c-0.288,0.7921-0.576,1.584-0.936,2.376c-1.944,2.88-1.944,2.88-5.76,7.2
		c-1.296,1.224-2.592,2.52-3.888,3.816c-2.232,1.728-4.464,3.528-6.696,5.3279c-0.432,0.0721-0.864,0.144-1.296,0.2881
		c0,0.36-0.072,0.72-0.144,1.1519c0.288,0.936,0.576,1.872,0.936,2.88c0.288,0.36,0.648,0.72,1.008,1.152
		c0.432,1.728,0.432,1.728,1.44,3.384c0.288,1.44,0.576,2.88,0.936,4.32c0.072,3.528,0.144,7.056,0.216,10.584
		c-0.144,1.152-0.288,2.376-0.432,3.6c0.072,0.072,0.216,0.144,0.36,0.216c0.72-0.288,1.44-0.576,2.16-0.864
		c0.36-0.576,0.36-0.576,0.792-4.68c1.872-3.6,3.816-7.2,5.76-10.8c1.08-1.152,1.08-1.152,1.872-1.584c0.72,0,1.44,0,2.16,0
		c0.576,0.288,1.224,0.648,1.872,1.008c0.288,1.512,0.576,3.096,0.864,4.68c0.072,2.7361,0.216,5.472,0.36,8.28
		c1.656,0,3.312,0,5.04,0c14.4,1.872,14.4,1.872,20.88,3.096c0.792-5.4,0.792-5.4,2.736-14.256
		c1.224-4.392,2.52-8.784,3.816-13.1761c1.296-3.528,2.592-7.056,3.888-10.584c2.52-5.184,5.04-10.368,7.632-15.624
		c0.792-1.08,1.584-2.16,2.448-3.312c0.576-1.152,1.224-2.376,1.872-3.6c6.984-9.6479,6.984-9.6479,7.92-11.304
		c1.368-0.864,1.368-0.864,2.304-2.088c0.144-0.432,0.288-0.864,0.504-1.296c0.288-0.072,0.576-0.216,0.936-0.36
		c0.648-0.648,1.296-1.296,1.944-2.016c0.144-0.432,0.288-0.936,0.504-1.44c0.288-0.072,0.576-0.216,0.936-0.36
		c3.96-4.68,6.12-6.84,7.632-8.784c0.288-0.072,0.648-0.2161,1.008-0.36c1.512-1.368,3.024-2.736,4.536-4.104
		c1.008-0.4319,5.76-4.32,6.768-4.752c1.152-1.2239,2.16-1.728,2.592-2.448c1.008-0.432,1.44-0.9361,5.544-2.88
		c1.44-1.08,1.656-1.512,5.04-3.672c0.792-0.6479,1.584-1.3679,2.376-2.088c3.168-1.44,3.168-1.44,5.04-1.872
		c0.36-1.08,0.36-1.08,0.864-1.584c1.08-0.36,1.08-0.36,3.24-0.504c0.072,0.216,0.216,0.504,0.36,0.792
		c-0.144,3.6-0.288,7.2-0.504,10.8c0.504,4.32,0.72,11.232,2.376,26.64c-0.144,0.216-0.36,0.432-0.576,0.72
		c-2.376,0.792-2.376,0.792-3.96,1.656c-0.072,0.288-0.216,0.576-0.36,0.936c-0.864,0.792-1.8,1.584-2.736,2.448
		c0,0.216-0.072,0.432-0.144,0.72c-0.36,0.144-0.72,0.288-1.08,0.432c-0.072,0.216-0.144,0.432-0.216,0.72
		c-1.152,1.008-2.376,2.088-3.6,3.168c-0.288,0.0721-0.576,0.144-0.864,0.2881c-1.08,1.1519-2.16,2.376-3.312,3.6
		c-0.504,0.288-1.008,0.576-1.512,0.864c-0.36,0.648-0.72,1.296-1.08,1.944c-1.152,0.936-1.152,0.936-2.592,2.88
		c0,0.288-0.072,0.576-0.144,0.936c-0.216,0.072-0.432,0.144-0.72,0.216c-4.032,5.76-4.032,5.76-7.776,11.808
		c-1.296,2.448-2.592,4.896-3.888,7.416c-0.576,1.584-1.224,3.168-1.872,4.8239c-1.584,5.4-3.168,10.872-4.824,16.344
		c-0.792,4.104-1.584,8.28-2.376,12.456c-0.072,3.24-0.144,6.552-0.288,9.864c0.144,1.2961,0.288,2.664,0.504,4.032
		c2.304,1.872,4.68,3.816,7.056,5.76c2.088,1.296,4.176,2.592,6.264,3.888c3.816,1.872,7.632,3.744,11.52,5.616
		c9.144,3.816,9.144,3.816,9.864,4.32c0.144,0.36,0.36,0.72,0.576,1.08c0,0.648,0,1.296,0,1.944
		c-0.432,0.576-0.936,1.224-1.44,1.872c-3.816,14.904-3.816,14.904-4.824,18c-0.216,0.4319-0.504,0.864-0.792,1.296
		c-1.08-0.072-2.232-0.144-3.384-0.216c-7.632-2.88-11.952-4.824-13.392-5.112c1.728,4.32,2.448,5.256,4.392,9.576
		c3.816,5.544,3.816,5.544,9.576,12.744c1.872,1.944,3.816,3.96,5.76,5.976c3.312,2.5201,6.624,5.112,10.008,7.704
		c1.872,1.224,3.816,2.52,5.76,3.816c13.68,7.56,17.784,9.4319,20.88,11.376c0.72,0.288,1.44,0.576,2.16,0.936
		c15.84,3.888,15.84,3.888,25.416,5.76c3.888,0.504,3.888,0.504,9.36,0.72c3.528-0.576,7.056-1.224,10.584-1.872
		c3.816-0.936,7.632-1.872,11.5201-2.88c4.32-1.944,4.32-1.944,7.2-2.8799c4.824-2.5201,9.72-5.112,14.616-7.704
		c2.664-1.944,6.048-3.816,14.184-9.576c3.816-3.528,7.632-7.056,11.52-10.584c2.52-2.88,5.112-5.76,7.704-8.64
		c3.816-5.184,3.816-5.184,8.64-12.816c1.2241-2.664,2.4481-5.4,3.6721-8.136c0.432-1.44,0.864-2.88,1.368-4.32
		c-0.36,0.072-0.792,0.144-1.224,0.288c-1.656,1.296-3.312,2.592-5.04,3.888c-2.16,1.224-4.3199,2.52-6.4799,3.816
		c-2.4481,1.08-4.8961,2.232-7.416,3.384c-0.576-0.072-1.152-0.144-1.728-0.288c-1.224-1.944-2.52-3.96-3.816-5.976
		c-1.2239-2.376-2.4479-4.824-3.744-7.272c-0.432-1.2961-0.936-2.592-1.44-3.888c-0.072-1.008-0.144-2.016-0.216-3.096
		c0.144-0.648,0.288-1.296,0.432-1.944c1.008-0.288,2.016-0.576,3.024-0.864c3.888-1.872,10.584-5.76,12.024-6.192
		c0.216-0.288,1.6559-0.72,7.92-4.608c0.72-0.216,1.2239-0.936,7.2-4.752c1.3679-1.368,2.736-2.7361,4.176-4.1761
		c0.216-0.72,0.216-0.72,0-10.584c-0.288-2.664-0.576-5.4-0.936-8.136c-0.6479-2.88-1.296-5.76-1.944-8.64
		c-0.936-1.944-0.936-1.944-3.816-11.088c-1.296-2.664-2.592-5.4-3.888-8.136c-3.816-6.696-7.632-12.744-8.64-13.896
		c-0.288-0.576-0.576-1.152-0.936-1.728c-3.24-3.816-6.552-7.632-9.864-11.52c-9.36-7.632-9.36-7.632-11.808-9.36
		c-0.7921-0.144-1.584-0.288-2.4481-0.432c-0.072-1.8-0.216-3.672-0.36-5.544c0.504-10.296,0.504-10.296,0.504-16.776
		c-0.72-12.744-1.224-17.064-1.224-19.2241c0.288-0.2879,0.576-0.5759,0.864-0.864c2.376-0.936,2.376-0.936,4.1041-1.2239
		c0.3599,0.288,0.72,0.648,1.152,1.008c2.448,0.936,2.448,0.936,2.88,1.44c3.384,1.872,3.384,1.872,14.904,9.576
		c9.864,7.704,11.736,9.576,13.464,10.584c4.032,4.032,6.48,5.976,10.512,10.296c7.92,10.44,7.92,10.44,11.808,16.2
		c2.52,4.032,5.04,8.136,7.632,12.24c3.744,7.488,5.616,12.024,5.904,12.24c2.232,5.976,4.464,11.952,6.696,18
		c2.88,12.528,2.88,12.528,4.104,19.728c0.36,0.216,3.024-0.6479,24.84-4.752c3.816-0.432,3.816-0.432,5.76-0.936
		c0-0.576,0-1.152,0.072-1.8c-2.88-6.696-2.88-6.696-3.816-9.792c-0.36-0.576-0.7921-1.152-1.224-1.728
		c0-0.216,0.072-0.432,0.144-0.72c0.432-0.36,0.936-0.72,1.44-1.08c0.792-0.144,1.584-0.288,2.448-0.504
		c1.728,0.72,3.456,1.44,5.256,2.16c0.792,0.6479,1.584,1.296,2.376,1.944c5.328,2.6639,5.328,2.6639,6.048,2.6639
		c0.288-0.576,0.288-0.576,1.008-7.344c0.648-1.584,1.296-3.168,1.944-4.752c-0.072-0.648-0.144-1.296-0.216-1.944
		c-1.368-1.44-2.808-2.88-4.248-4.32c-2.376-1.944-4.752-3.96-7.2-5.976c-1.584-1.8-3.24-3.672-4.896-5.544
		c-0.216-0.864-0.432-1.728-0.72-2.664c0.072-1.656,0.144-3.312,0.216-5.04c0.288-1.584,0.648-3.168,1.008-4.752
		c1.872-3.888,3.816-6.984,4.4641-8.64c-1.08,0.072-2.2321,0.144-3.384,0.288c-2.448,1.296-4.896,2.592-7.416,3.888
		c-2.88,0.72-2.88,0.72-10.584,1.656c-1.368,0-2.736,0-4.104,0c-0.504,0.144-1.08,0.288-1.656,0.504c-0.72,0-1.44-0.072-2.16-0.144
		c-0.216-0.288-0.4321-0.576-0.72-0.864c-2.592-0.576-5.256-1.152-7.92-1.728c0.072-0.72,0.072-0.72,1.08-2.664
		c1.4399-0.936,2.952-1.872,4.464-2.808c2.88-0.936,2.88-0.936,8.856-3.816c2.664-0.504,2.664-0.504,5.544-1.656
		c0.072-0.072,0.144-0.216,0.216-0.36c-3.816-5.4-3.816-5.4-4.6801-7.1999c-0.4319-1.5121-0.864-3.0961-1.296-4.6801
		c-2.16,0.216-2.16,0.216-9.648,2.16c-6.696,0.936-6.696,0.936-11.736,1.152c-3.384-0.432-3.384-0.432-7.92-1.44
		c-1.368-0.576-2.736-1.224-4.104-1.872c-0.288-0.288-0.576-0.576-0.864-0.864c0-0.216,0-0.432-0.072-0.72
		c-2.088,0-4.176,0.072-6.264,0.144c-1.8-0.648-3.6-1.296-5.472-1.944c-2.664-1.944-2.664-1.944-3.6-3.024
		c-0.576-1.152-1.224-2.304-1.872-3.528c-0.072-1.656-0.144-3.312-0.216-5.04c0.936-9.144,0.936-12.744,2.16-24.7679
		c0-1.2241,0-2.52-0.072-3.816c-0.216,0.072-0.432,0.1439-0.72,0.216c-1.44,1.728-2.88,3.456-4.32,5.184
		c-1.656,1.224-3.312,2.52-5.04,3.816c-1.944,0.936-1.944,0.936-5.0399,1.944c-9.144,1.152-11.0881,1.656-12.7441,1.656
		c-0.216-0.144-0.4319-0.3601-0.72-0.576c0-0.288-0.072-0.576-0.144-0.936c0.288-0.8641,0.576-1.7281,0.936-2.6641
		c0.648-0.864,1.296-1.728,1.944-2.6639c1.44-1.2241,2.88-2.5201,4.32-3.816c1.152-0.576,2.304-1.1521,3.528-1.8
		c0.216-0.288,0.4319-0.576,0.72-0.864c-3.888-2.016-3.888-2.016-13.248-7.7759c-2.52-2.0881-5.112-4.176-7.704-6.336
		c0-0.4321,0.072-0.936,0.1439-1.4401c0.2161-0.144,0.4321-0.288,0.72-0.504c0-0.2159,0.072-0.432,0.144-0.7199
		c0.936-0.288,1.8719-0.5761,2.88-0.864c2.16-0.072,4.3199-0.144,6.4799-0.2161c3.528,0.2161,7.056,0.4321,10.584,0.72
		c0-0.288,0-0.576,0.072-0.864c-1.512-4.6799-3.0239-9.36-4.5359-14.1119c0.504-0.504,1.0079-1.0081,1.584-1.584
		c0.864,0,1.728,0,2.592,0c1.728,0.936,2.664,1.152,6.048,3.096c1.44,1.584,2.88,3.168,4.3201,4.824
		c1.224,1.8,2.52,3.5999,3.816,5.472c0.864,1.8,1.8,3.6,2.736,5.472c2.52,0.7919,3.24,1.296,8.7839,3.168
		c8.4241,3.888,8.4241,3.888,11.5201,5.0399c0.864,0.6481,1.728,1.368,2.6639,2.0881c0.72,0.936,1.44,1.872,2.2321,2.88
		c0.4319,1.152,0.936,2.376,1.44,3.5999c-0.0721,2.2321-0.144,4.4641-0.216,6.696c-0.288,1.584-0.648,3.168-1.008,4.824
		c-0.144,1.872-0.2881,3.816-0.432,5.76c0.504,2.88,1.08,5.7599,1.656,8.64c0.288,0.864,0.576,1.728,0.936,2.664
		c2.304,2.16,2.304,2.16,5.184,4.032c1.152,0.288,2.376,0.648,3.6,1.008c0-0.288,0.072-0.648,0.144-1.008
		c-1.368-1.44-2.736-2.88-4.104-4.32c-0.6479-1.2961-1.296-2.6641-1.944-4.0321c-0.72-3.1679-0.72-3.1679-0.72-4.3199
		c1.008-1.0081,1.008-1.0081,3.024-2.3041c0.576,0.0721,1.152,0.144,1.728,0.2161C351,71.712,351,71.712,353.88,72.72
		c2.88,1.872,2.88,1.872,5.76,4.32c0.936,1.08,1.872,2.16,2.8799,3.312c0.2161,0,0.4321,0.072,0.72,0.1439
		c-0.36-4.5359-0.36-4.5359-0.864-6.192c0-2.16,0-4.3199,0-6.48c0.288-1.656,0.576-3.312,0.936-5.04
		c1.944-4.6081,1.944-4.6081,2.88-6.048c0.936-0.6479,1.872-1.296,2.808-2.016c0.72,0,0.936,0.36,2.016,0.864
		c2.88,7.632,2.88,7.632,3.816,11.232c0.072,1.152,0.144,2.376,0.288,3.6c-0.504,4.3199-0.504,4.3199-0.504,6.48
		c-0.288,1.44-0.576,2.88-0.936,4.32c-2.88,6.9839-3.384,7.488-3.6,8.64c2.592,0.576,5.184,1.152,7.776,1.8
		c1.0079,0.432,2.088,0.936,3.168,1.4401c0.216,0,0.504,0,0.792-0.072c-0.216-2.16-0.4319-4.32-0.72-6.48
		c-0.072-2.808-0.144-5.6161-0.216-8.424c0.288-1.7999,0.576-3.6719,0.936-5.5439c0.576-1.152,0.576-1.152,1.656-2.16
		c0.864-0.3601,0.864-0.3601,2.088-0.3601c1.224,0.936,1.224,0.936,3.096,3.0961c0.6479,1.008,1.296,2.088,1.944,3.168
		c0.864,2.16,1.8,4.392,2.736,6.624c0.144,2.52,0.36,5.04,0.576,7.632c1.44,1.368,2.952,2.736,4.464,4.104
		c3.24,4.104,6.552,8.28,9.864,12.456c0.4321,0.936,0.936,1.872,1.44,2.88c0.216,1.296,0.4321,2.592,0.72,3.888
		c0,2.232,0,4.464,0,6.696c-1.008,4.824-1.008,4.824-2.88,10.584c-1.944,4.752-1.944,4.752-3.888,11.016
		c-0.072,1.152-0.144,2.376-0.216,3.6c0.072,0.504,0.216,1.08,0.36,1.656c1.08-0.288,2.232-0.576,3.384-0.864
		c1.4399,0.144,1.4399,0.144,2.376,0.648c0.576,1.008,1.152,2.016,1.8,3.096c0.648,1.656,1.296,3.312,1.944,5.04
		c0.4319,2.664,0.4319,2.664,0.72,8.928c-0.432,3.24-0.936,6.48-1.44,9.792c-0.216,0.576-0.432,1.152-0.72,1.728
		c0,0.432,0,0.936,0.072,1.44c4.68-3.888,4.68-3.888,7.488-5.76c1.2239-0.576,2.52-1.224,3.816-1.872
		c1.512-0.432,3.024-0.936,4.608-1.44c4.536-0.432,6.192-0.936,7.632-1.008c-0.072,1.152-0.216,2.376-0.36,3.6
		c-1.2241,1.944-2.52,3.96-3.816,5.976c-1.296,1.5121-2.592,3.024-3.888,4.536c-4.536,3.888-4.536,3.888-7.92,6.264
		c0,0.36,0,0.792,0,1.224c1.0081,2.592,1.0081,2.592,1.944,6.4799c0,2.376,0,4.752,0,7.2c-0.432,2.664-0.936,5.4-1.44,8.136
		c-1.2241,0.72-2.448,1.44-3.6721,2.232c-0.72,2.808-1.5119,5.688-2.304,8.568c-1.584,3.528-3.168,7.056-4.824,10.584
		c-1.224,1.5121-2.52,3.024-3.816,4.536c-1.6561,1.224-3.312,2.52-4.968,3.816c-0.576,0.288-1.224,0.576-1.872,0.864
		c-3.5281,0.864-7.056,1.8-10.584,2.7361c0,2.088,0.072,4.176,0.144,6.2639c-0.144,1.224-0.288,2.5201-0.504,3.816
		c-0.936,2.88-0.936,2.88-1.944,5.04c-0.288,1.368-0.648,2.736-1.008,4.104c3.312-0.576,6.696-1.152,10.08-1.8
		c3.024-0.072,6.048-0.144,9.072-0.288c1.44,0.504,1.44,0.504,2.16,1.152c0.144,1.152,0.144,1.152-0.36,2.88
		c-1.944,2.16-1.944,2.16-6.48,5.976c-1.152,0.648-2.304,1.296-3.456,1.944c-12.744,3.672-12.744,3.672-17.064,4.608
		c-1.656,0.072-3.312,0.144-5.04,0.288c-0.504,1.512-1.08,3.096-1.656,4.68c2.232-0.576,4.464-1.152,6.696-1.8
		c6.984-1.008,6.984-1.008,9.36-1.008c0.576,0.288,1.152,0.576,1.8,0.864c0.072,0.792,0.144,1.584,0.216,2.448
		c-1.368,1.296-2.736,2.664-4.176,4.032c-1.872,1.296-3.816,2.592-5.76,3.888c-2.016,0.72-4.104,1.44-6.192,2.232
		c-0.144,1.224-0.288,2.448-0.4319,3.744c-0.288,1.008-0.576,2.016-0.936,3.096c-7.704,13.968-7.704,13.968-9.576,16.848
		c-0.648,0.792-1.296,1.584-1.944,2.376c-1.224,0.936-2.448,1.872-3.744,2.88c-0.648,0.216-1.368,0.504-2.088,0.792
		c-3.888,0.288-3.888,0.288-17.568,0c-1.512,0.288-3.024,0.648-4.536,1.008c-3.816,1.872-3.816,1.872-5.256,2.88
		c-0.288,0.504-0.648,1.008-1.0081,1.512c0,0.504,0,1.008,0,1.512c4.608-1.584,9.288-3.168,13.968-4.752
		c6.912-0.216,6.912-0.216,11.52,0c0.936,0.288,0.936,0.288,1.656,0.864c0.144,0.288,0.288,0.576,0.504,0.936
		c-0.432,2.664-0.432,2.664-0.8641,3.672c-1.0079,1.152-1.0079,1.152-3.4559,2.952c-1.728,0.936-3.8881,2.88-6.048,4.32
		c-2.016,0.36-4.104,0.792-6.192,1.224c-1.368,0-2.736,0-4.1039,0c-2.448-0.432-4.8961-0.936-7.416-1.44c-1.368,0-2.736,0-4.104,0
		c-1.44-1.008-2.664-1.44-3.024-2.016c-0.072-0.576-0.144-1.152-0.2159-1.728c-1.08-0.576-2.16-1.152-3.24-1.8
		c-4.824-3.816-4.824-3.816-7.416-6.264c-0.288-0.432-0.648-0.864-1.0081-1.296c-0.864-3.168-1.7999-6.336-2.736-9.576
		c0.072-2.808,0.144-5.616,0.216-8.424c0.36-0.36,0.36-0.36,2.52-0.864c0.7921,0,1.584,0,2.4481,0
		c2.376,2.16,2.376,2.16,7.632,8.208c0.504,0,0.504,0,0.864-0.576c0.144-1.872,0.288-3.816,0.432-5.76
		c0.648-2.088,1.296-4.176,1.944-6.264c1.224-1.944,2.52-3.96,3.816-5.976c1.008-0.936,2.088-1.872,3.168-2.88
		c1.08-0.432,1.08-0.432,3.744-0.648c1.152,0.504,1.152,0.504,1.656,1.08c0.504,1.656,1.008,3.312,1.512,5.04
		c2.736,0.072,5.544,0.216,8.3519,0.36c2.952,0.792,5.9041,1.584,8.8561,2.376c1.224,0,2.52,0,3.816,0
		c1.08-0.288,2.232-0.576,3.384-0.936c0.36-0.216,0.72-0.504,1.08-0.792c0-0.216,0.072-0.432,0.144-0.72
		c-1.368-0.576-2.736-1.224-4.104-1.872c-1.8719-1.656-3.816-3.312-5.7599-5.04c-0.936-1.44-2.88-3.312-4.824-6.336
		c-0.576-1.224-1.152-2.52-1.8-3.816c-0.432-1.872-0.936-3.816-1.44-5.76c0-1.872,0-3.816,0-5.76
		c0.288-1.368,0.576-2.736,0.936-4.104c0.288-0.72,0.648-1.44,1.0081-2.16c0.2159-1.656,0.2159-1.656,0.5759-2.016
		c1.44-0.288,1.44-0.288,3.8881-0.288c0.504,0.144,1.08,0.288,1.656,0.504c0.6479,0.792,1.296,1.584,1.944,2.376
		c3.672,7.344,6.048,13.104,6.696,14.112c0.576-0.504,0.576-0.504,2.52-4.32c0-0.216,0-0.432,0-0.72
		c-0.936-1.152-1.872-2.376-2.88-3.6c-1.944-5.04-1.944-5.04-3.168-7.2c0.144-4.032,0.288-8.136,0.504-12.2401
		c0.288-1.44,0.576-2.88,0.936-4.3199c0.648-1.584,1.296-3.168,1.944-4.824c1.008-0.936,2.016-1.872,3.024-2.808
		c0.36-0.072,0.792-0.144,1.224-0.216c1.728-4.68,1.728-4.68,3.672-8.496c1.944-2.8799,1.944-2.8799,3.816-5.0399
		c3.024-1.944,3.024-1.944,10.512-5.688c1.872-0.432,3.816-0.936,5.76-1.44c3.096-0.144,6.192-0.288,9.36-0.432
		c4.32-1.008,4.32-1.008,8.136-1.44c0.2159-0.288,0.4319-0.576,0.72-0.864c-0.216-0.36-1.944-1.296-5.976-4.176
		c-0.72-0.648-1.44-1.296-2.16-1.944c-1.08-0.648-2.232-1.296-3.384-1.944c-2.304-0.792-4.608-1.584-6.9839-2.376
		c-3.024-0.072-6.048-0.144-9.072-0.216c-4.824,0.432-9.864,1.44-23.04,2.88c-0.432,4.608-0.8641,9.216-1.368,13.824
		c-1.944,8.136-1.944,8.136-2.88,13.896c-0.648,2.304-1.296,4.608-1.944,6.984c-1.872,4.824-3.816,9.72-5.76,14.616
		c-0.576,1.152-1.2241,2.376-1.872,3.6c-3.888,5.544-3.888,5.544-5.76,8.856c-2.52,3.312-5.112,6.696-7.704,10.08
		c-0.864,0.864-1.728,1.728-2.664,2.664c-1.872,2.664-3.816,4.536-7.92,9.36c-1.44,1.368-2.88,2.736-4.32,4.104
		c-0.936,0.576-1.872,1.224-2.88,1.872c-1.296,1.296-2.664,2.592-4.032,3.888c-5.3281,3.816-5.3281,3.816-7.488,5.76
		c-1.944,1.224-3.888,2.5201-5.832,3.816c-1.944,0.792-1.944,0.792-4.824,2.736c-0.288,0.288-0.576,0.576-0.936,0.936
		c-4.248,2.232-8.496,4.464-12.744,6.768c-8.856,3.816-8.856,3.816-14.4,5.76c-7.2001,1.872-7.2001,1.872-16.776,3.8159
		c-3.384,0.432-6.84,0.936-10.2961,1.44c-7.992,0.144-15.9839,0.288-24.048,0.504c-3.312-0.072-6.696-0.144-10.08-0.288
		c-4.032-0.576-8.136-1.224-12.24-1.872c-5.184-1.296-10.368-2.592-15.552-3.888c-9.864-3.816-9.864-3.816-13.968-5.76
		c-6.624-3.816-13.248-7.632-19.872-11.52c-3.312-2.52-6.696-5.04-10.08-7.632c-4.176-4.032-8.352-8.136-12.528-12.24
		c-2.664-3.096-5.4-6.192-8.136-9.36c-2.52-3.312-5.112-6.624-7.704-10.008c-1.872-2.952-3.816-5.904-5.76-8.856
		c-1.8-3.6-3.744-8.3521-4.176-10.08c-1.296-2.88-2.592-5.76-3.888-8.64c-1.872-6.192-1.872-6.192-2.88-11.0161
		c-0.576-1.728-1.224-3.456-1.872-5.256c-0.576-3.024-1.152-6.048-1.8-9.072c-1.08-0.288-2.232-0.576-3.384-0.936
		c-1.944-0.144-3.96-0.2881-5.976-0.504c-8.136,0.288-8.136,0.288-12.744,0.72c-4.104,0.936-8.28,1.872-12.456,2.88
		c-0.36,0.288-0.792,0.648-1.224,1.008c-2.232,0.792-4.464,1.656-6.696,2.52c0,0.216,0,0.432,0,0.72
		c1.656,0.36,6.696,0.792,7.416,1.08c0.72,0,1.44-0.072,2.16-0.144c-0.216-0.144-0.432-0.2881-0.72-0.504
		c0.288,0,0.648,0,1.008-0.0721c1.224,0.432,2.52,0.936,3.816,1.44c0.144,0.288,0.288,0.576,0.504,0.864
		c1.44,0.216,1.44,0.216,2.16,0.792c0.576,0.216,1.224,0.432,1.872,0.72c0.36,0,0.792,0,1.224-0.072
		c0.144,0.288,0.288,0.648,0.504,1.008c0.216,0,0.432,0.072,0.72,0.144c0-0.216,0-0.432,0-0.72c0.216,0,0.432,0,0.72,0
		c0.216,0.72,1.152,1.44,1.512,2.448c0.36,0.216,0.648-0.072,1.44,0c0,0.36,0.072,0.72,0.144,1.152c1.08,0.936,2.16,1.872,3.24,2.88
		c0.144,0.288,0.288,0.648,0.432,1.008c1.08,1.008,2.232,2.0161,3.384,3.096c1.584,2.592,3.168,5.256,4.824,7.92
		c0.36,0.216,0.72,0.504,1.08,0.792c0.72,0,1.44,0,2.16,0c0.36,0.288,0.72,0.576,1.08,0.864c1.152,3.024,2.376,6.048,3.6,9.144
		c0.144,1.224,0.288,2.52,0.432,3.816c-0.072,1.368-0.144,2.736-0.216,4.104c-0.936,3.6-0.936,3.6-2.88,8.856
		c-0.864,1.512-1.728,3.024-2.664,4.608c0,0.216,0,0.432,0,0.72c1.224,1.296,2.448,2.592,3.744,3.888
		c0.216,0,0.432,0.072,0.72,0.144c0.072,0.432,0.216,0.936,0.36,1.44c1.512,2.088,3.096,4.176,4.68,6.336c0.72,0,0.72,0,1.008-0.36
		c-0.216-1.512-0.432-3.024-0.648-4.536c0-1.728,0-3.456,0-5.256c0.936-5.04,0.936-5.04,1.944-8.424
		c0.288-0.72,0.576-1.44,0.936-2.16c0.936-0.936,0.936-0.936,1.8-2.304c0.648-0.144,1.296-0.288,1.944-0.432
		c0.864,0,1.728,0.072,2.664,0.144c0.792,4.32,1.728,6.912,2.736,11.0161c0,1.656,0,3.312,0,5.0399
		c-0.288,1.584-0.648,3.168-1.008,4.824c-0.576,1.728-1.224,3.456-1.872,5.256c-1.008,1.944-2.016,3.96-3.024,5.976
		c-0.36,0.144-0.72,0.288-1.152,0.504c-0.144,1.224-0.144,1.224-0.648,2.16c-0.576,0.36-4.392,1.296-7.56,2.736
		c-1.44,0.216-2.88,0.4319-4.32,0.6479c0,0.216,0,0.432,0,0.72c1.008,0.144,2.088,0.36,3.168,0.576c1.944,0,3.96,0,5.976,0
		c1.944-0.504,9.36-3.384,12.96-4.32c1.512-0.144,3.024-0.288,4.536-0.504c1.152,0.072,2.376,0.144,3.6,0.216
		c0.792,0.288,1.584,0.648,2.448,1.008c1.44,1.368,2.88,2.736,4.32,4.176c2.88,4.32,2.88,4.32,5.616,9.144
		c0.432,1.44,0.936,1.944,1.152,2.8799c0.288,0.216,0.576,0.432,0.864,0.72c0.072,0.36,0.144,0.792,0.288,1.224
		c0.432,0.072,0.936,0.144,1.44,0.288c1.728-5.112,1.728-5.112,3.672-9.216c0.792-1.224,1.584-2.52,2.376-3.816
		c0.36-0.072,0.72-0.216,1.152-0.36c0.864,0.072,1.728,0.216,2.592,0.36c0.864,3.384,1.8,9.144,2.52,11.736
		c-0.072,1.296-0.144,2.592-0.216,3.888c-0.936,2.376-1.872,4.752-2.88,7.2c-1.584,2.16-3.168,4.32-4.824,6.48
		c-0.72,0.432-1.44,0.864-2.232,1.296c-1.008,0-1.944-0.504-3.384-0.504c-0.216-0.216-0.216-0.216-1.224-0.144
		c-0.432,0.648-0.936,1.368-1.44,2.088c-0.432,0.216-0.936,0.432-1.44,0.72c-3.312,0.432-6.48,1.44-14.4,2.88
		C100.944,344.16,99,344.16,97.056,344.16L97.056,344.16z M177.696,263.952c-1.44-0.144-2.88-0.288-4.32-0.432
		c-0.576-0.288-1.224-0.648-1.872-1.008c-4.104-5.256-5.04-6.84-6.264-7.92c-1.8-3.672-1.8-3.672-2.88-5.328
		c-2.664-0.432-13.896-1.368-16.056-1.872c-1.728,0-1.728,0-2.088-0.288c0-1.224,0-1.224,0.36-1.584
		c0.432-0.144,0.936-0.288,1.44-0.504c0.36-0.36,0.792-0.792,1.224-1.224c2.736-6.336,3.672-7.776,5.616-12.096
		c1.944-3.096,2.88-5.256,4.824-8.64c0.288-0.936,0.576-1.872,0.936-2.88c2.88-5.472,4.824-10.296,5.76-11.952
		c0.648-1.8,1.296-3.672,1.944-5.544c4.752-10.8,5.256-12.744,5.76-13.464c0.288-1.0081,0.576-2.0161,0.936-3.096
		c1.944-3.816,3.816-8.424,4.32-9.144c0-0.216,0-0.432,0-0.72c-2.16-2.16-2.16-2.16-4.536-4.032
		c-0.288-0.432-0.648-0.936-1.008-1.44c-0.072-1.08-0.144-2.232-0.216-3.384c0.36-0.504,3.96-2.52,6.624-4.68
		c0.288-0.36,0.576-0.792,0.936-1.224c0.576-0.288,1.152-0.576,1.728-0.936c3.6-3.384,4.536-4.608,5.76-5.544
		c0.936-1.44,0.936-1.44,3.312-3.816c0.864-1.512,1.8-3.096,2.736-4.68c0.144-0.648,0.288-1.296,0.504-1.944
		c0.288,0,0.576-0.072,0.864-0.144c3.816,6.624,4.824,7.704,5.976,9.648c0.36,0,0.72-0.072,1.08-0.144
		c0.288-0.36,0.576-0.72,0.864-1.152c0.792,0.432,0.792,0.432,1.08,1.152c0.0721,0.864,0.144,1.728,0.216,2.6639
		c0.504,0.288,1.008,0.576,1.584,0.936c0.792-0.144,1.584-0.36,2.376-0.576c1.512,0.072,3.024,0.144,4.6079,0.216
		c1.08-0.216,2.16-0.432,3.312-0.72c1.728-0.936,1.728-0.936,2.16-1.584c1.296-5.976,1.296-5.976,1.728-6.552
		c0.288,0,0.576,0,0.936,0c0.36,0.576,0.792,1.152,1.224,1.8c1.008,2.88,2.088,5.76,3.168,8.64c0.216,0.144,0.432,0.288,0.648,0.504
		c0.504-0.4319,0.504-0.4319,1.44-0.4319c0.432,0.144,0.936,0.288,1.44,0.504c7.92-0.216,7.92-0.216,11.304,0
		c2.232-0.72,4.464-1.44,6.696-2.16c0.432,0.072,0.936,0.144,1.44,0.216c0.792,1.368,0.792,1.368,2.736,6.408
		c0.6479,2.376,1.296,4.752,1.944,7.2c0.432,3.96,0.936,7.992,1.44,12.024c0,3.456,0,6.984,0,10.512
		c0.432,2.448,2.592,9.648,2.88,9.864c0.576,1.728,1.2239,3.456,1.872,5.256c2.2319,4.176,4.464,8.352,6.768,12.528
		c3.816,5.976,3.816,5.976,7.92,11.736c1.44,1.44,2.8799,2.88,4.392,4.32c3.168,1.8,3.168,1.8,7.704,3.672
		c0.504,0.648,0.504,0.648,0.576,1.872c-0.432,0.432-5.832,1.728-6.768,2.232c-2.232,0.648-4.464,1.296-6.768,1.944
		c-3.384,0.576-6.84,1.224-10.296,1.872c-0.72,0.72-1.44,1.512-2.16,2.304c-0.288,0.576-0.576,1.152-0.864,1.728
		c-2.52,2.52-5.04,5.04-7.56,7.632c-2.16,0.864-2.16,0.864-4.536,1.296c-11.52,0.504-12.96,0.288-27.864,0.504
		C205.056,262.8,191.376,263.376,177.696,263.952L177.696,263.952z M170.28,256.536c-0.36-0.072-0.792-0.144-1.224-0.216
		c-0.432-0.648-0.864-1.296-1.296-2.016c0-0.288,0.072-0.576,0.144-0.864c2.16-0.288,2.16-0.288,25.416-0.72
		c1.44-0.36,2.88-0.7921,4.32-1.224c2.376,0,4.752,0,7.2,0c0.36-0.216,0.792-0.432,1.224-0.72c0.864,0.072,1.728,0.144,2.592,0.216
		c0.144,0.144,0.288,0.288,0.504,0.504c0.36,0,0.792,0,1.224,0c0.144-0.216,0.288-0.432,0.432-0.72
		c6.984-0.504,6.984-0.504,29.088-0.936c5.832-0.504,11.664-1.008,17.496-1.584c-0.072,0.288-0.216,0.648-0.36,1.008
		c-1.8,0.936-4.176,1.7281-4.68,2.2321c-5.976,0.288-11.952,0.576-18,0.936c-2.376,0.288-4.752,0.648-7.2,1.008
		c-11.736,0.72-11.736,0.72-24.48,0.936c-4.104,0.504-4.104,0.504-19.224,1.44c-0.144,0.144-0.288,0.288-0.432,0.504
		C178.776,256.392,174.528,256.464,170.28,256.536L170.28,256.536z M166.464,251.28c-0.432-0.432-0.864-0.864-1.368-1.2961
		c0-0.36,0.072-0.72,0.144-1.152c2.808-0.144,5.616-0.288,8.424-0.432c0.936,0.72,0.936,0.72,1.656,0.72
		c0.504-0.504,0.504-0.504,1.944-1.008c7.92-0.72,15.84-1.44,23.76-2.16c0,0.864,0,1.728,0.072,2.592
		c-1.512,0.288-1.512,0.288-1.8,0.576c-3.888,0.432-7.776,0.936-11.736,1.44C180.576,250.776,173.52,250.992,166.464,251.28
		L166.464,251.28z M206.064,248.616c-0.216,0-0.432,0-0.72-0.072c-0.648-7.92-0.864-16.848-1.152-18.288
		c-0.144-5.112-0.288-10.224-0.432-15.336c-0.288-4.32-0.6479-8.64-1.008-12.96c0.072-1.656,0.144-3.312,0.288-5.04
		c1.872-6.4799,2.88-8.64,3.312-11.016c0.144-0.288,0.288-0.648,0.504-1.008c0.504,0,1.008-0.072,1.584-0.144
		c1.8,1.296,3.672,2.592,5.5439,3.888c0.576,0.576,1.152,1.152,1.728,1.8c0.504,1.944,0.504,1.944,1.44,3.5999
		c1.656,1.656,3.312,3.312,5.04,5.04c-0.072,0.648-0.144,1.296-0.216,1.944c-0.504,0.72-1.944,5.472-2.376,7.92
		c-0.504,1.152-0.504,1.152-4.3199,17.712c-1.584,5.616-3.168,11.232-4.824,16.848c-0.648,1.584-1.296,3.168-1.944,4.752
		C207.936,248.616,207.936,248.616,206.064,248.616L206.064,248.616z M213.696,248.616c-0.792-0.072-1.656-0.216-2.52-0.36
		c0.072-0.72,0.144-1.44,0.216-2.16c1.008-2.592,1.008-2.592,8.424-29.232c0.648-2.952,1.296-5.904,1.944-8.9279
		c1.224-4.1761,2.5201-8.424,3.816-12.6721c0.504-0.936,1.008-1.944,1.584-2.952c0.216-0.072,0.432-0.144,0.72-0.216
		c0.576,10.368,0.576,10.368,0.36,12.24c0.072,7.272,0.144,14.544,0.216,21.888c0.504,3.312,0.504,3.312,0.504,7.92
		c-0.216,2.376-0.432,4.752-0.72,7.2c-2.304,1.872-5.328,3.816-7.704,5.76c-0.144,0.288-0.288,0.576-0.504,0.936
		C217.944,248.184,215.856,248.4,213.696,248.616L213.696,248.616z M226.224,248.4c-0.936,0-1.872-0.072-2.88-0.144
		c0-0.288,0-0.576,0.072-0.936c2.52-1.728,5.04-3.456,7.56-5.184c7.2,0.216,12.528,0.72,14.688,0.504
		c0.432-0.288,0.432-0.288,5.976-0.504c0.648,0.36,1.296,0.72,1.944,1.08c0,0.936,0,1.872,0.072,2.88
		c-0.792,0.36-0.792,0.36-13.536,1.8C235.512,248.04,230.904,248.184,226.224,248.4L226.224,248.4z M160.416,246.456
		c-1.656-0.216-3.312-0.504-5.04-0.792c0.072-0.216,0.144-0.432,0.216-0.72c2.88-1.944,6.552-3.744,12.528-7.632
		c3.96-3.24,7.992-6.48,12.024-9.792c0.504-0.72,1.08-1.44,1.656-2.16c0.216,0,0.432-0.072,0.72-0.144
		c-0.36,1.728-0.36,1.728-4.248,11.304c-3.816,8.424-3.816,8.424-4.32,8.856c-2.016,0.36-2.016,0.36-8.208,0.36
		c-0.864,0.216-1.728,0.432-2.664,0.72C162.216,246.456,161.352,246.456,160.416,246.456L160.416,246.456z M177.48,245.232
		c-0.288-0.072-0.288-0.072-0.144-1.512c1.224-2.5201,2.52-5.112,3.816-7.704c1.152-3.456,2.376-6.984,3.6-10.512
		c1.944-3.888,1.944-3.888,5.76-10.08c2.88-6.2639,2.88-6.2639,3.888-7.92c0.936-3.168,1.872-4.824,2.88-7.488
		c0.36-0.36,0.36-0.36,1.296-0.36c0.576,0.936,1.152,1.872,1.8,2.808c0.072,1.44,0.144,2.88,0.216,4.32
		c-1.656,15.12-1.656,15.12-2.16,17.712c0,2.376,0,4.752,0,7.2c0.288,2.952,0.648,5.904,1.008,8.928
		c0,0.792-0.072,1.584-0.144,2.448C181.296,245.016,181.296,245.016,177.48,245.232L177.48,245.232z M149.4,244.944
		c0.792-3.168,0.792-3.168,2.232-6.768c0.288-0.36,0.648-0.72,1.008-1.152c0.288-0.936,0.576-1.872,0.936-2.88
		c2.88-4.824,3.816-6.9839,4.824-8.424c0.432-1.44,1.44-2.88,3.312-7.704c0.648-1.152,1.296-2.376,1.944-3.6
		c0.288-1.008,0.576-2.016,0.936-3.096c0.648-1.224,1.296-2.52,1.944-3.8159c0.648-1.872,1.296-3.816,1.944-5.76
		c0.936-1.44,0.936-1.44,4.752-10.08c0.936-2.448,1.872-4.968,2.88-7.488c1.008-1.44,1.944-4.032,2.88-5.76
		c0.432-0.36,0.432-0.36,1.152-0.36c1.872,2.16,6.48,6.2639,8.352,8.424c2.16,1.872,2.16,1.872,4.1039,4.032
		c1.08,1.656,2.2321,3.312,3.384,5.04c0,0.36,0,0.72,0.0721,1.1519c-4.824,10.08-5.256,11.7361-6.264,13.1761
		c-0.936,2.376-1.872,3.5999-3.816,7.2c-2.52,3.24-5.112,6.552-7.7039,9.864c-3.168,2.52-6.336,5.04-9.576,7.632
		c-1.944,1.224-3.888,2.448-5.832,3.744c-0.576,0.144-1.152,0.288-1.728,0.432c-0.864,0.648-1.728,1.296-2.592,1.944
		c-6.768,3.384-6.768,3.384-7.704,4.104C150.408,244.8,149.904,244.872,149.4,244.944L149.4,244.944z M267.48,241.2
		c-7.416-1.944-7.416-1.944-11.304-2.664c-0.216-0.288-0.432-0.576-0.72-0.864c-0.072-6.552-0.216-13.104-0.36-19.656
		c-0.504-4.752-0.504-4.752-0.792-12.456c0.216,0.072,0.432,0.144,0.72,0.216c3.672,7.92,3.672,7.92,7.488,14.904
		c3.168,4.68,6.408,9.432,9.6481,14.184c0.936,1.008,1.8719,2.0161,2.8799,3.096c0,0.504,0,1.08,0,1.656
		c-0.36,0.288-0.72,0.576-1.08,0.864C269.64,240.912,268.92,241.2,267.48,241.2L267.48,241.2z M243,239.976
		c-3.6-0.072-7.2-0.144-10.8-0.216c-0.504-0.648-0.504-0.648-1.368-4.464c0.288-18.72,0-29.736,0.288-31.896
		c0.216-0.36,0.432-0.792,0.72-1.224c-0.072-2.592-0.216-5.256-0.36-7.92c0.216,0.072,0.432,0.144,0.72,0.216
		c0.216,0.936,0.504,1.944,0.792,2.952c0.648,1.008,1.296,2.0161,1.944,3.096c1.224,3.312,2.52,6.696,3.816,10.08
		c3.888,8.64,5.328,11.016,6.264,13.464c2.664,4.536,5.4,9.072,8.136,13.68c0,0.504,0,1.008-0.072,1.512
		C246.6,239.976,246.6,239.976,243,239.976L243,239.976z M201.024,236.736c-0.216-1.296-0.432-2.664-0.648-4.032
		c0-8.9279,0-8.9279,0.36-12.528c0.216,0,0.432,0,0.72,0c-0.144,4.32,0.36,10.8,0.144,15.408
		C201.312,236.736,201.312,236.736,201.024,236.736L201.024,236.736z M252.576,233.28c-1.08-1.368-2.16-2.7361-3.24-4.176
		c-2.52-5.184-5.112-10.368-7.704-15.624c-2.88-7.416-2.88-7.416-3.312-9.144c-0.288-0.504-0.648-1.08-1.008-1.656
		c-0.432-2.16-1.44-4.536-4.32-14.4c0-0.432,0-0.936-0.072-1.44c1.44,0.072,4.536,1.08,10.584,2.016
		c3.816-0.216,3.816-0.216,6.696,0c0.144,0.072,0.36,0.216,0.576,0.36c0.504,3.888,0.936,12.528,2.664,30.96
		c-0.072,4.32-0.144,8.64-0.288,12.96C252.792,233.424,252.792,233.424,252.576,233.28L252.576,233.28z M199.584,196.992
		c-0.144-0.0721-0.288-0.144-0.432-0.2881c0-0.792,0-1.584,0-2.448c0.432-1.368,0.864-2.736,1.368-4.176
		c0.216,0,0.432-0.072,0.72-0.144c0,1.44-0.072,2.88-0.144,4.3199c-0.936,2.664-0.936,2.664-1.296,2.88
		C199.728,197.136,199.656,197.064,199.584,196.992L199.584,196.992z M222.624,195.552c-1.296-1.5121-2.592-3.024-3.888-4.536
		c0-0.216-0.072-0.504-0.144-0.792c2.16-3.168,4.392-6.336,6.624-9.504c0.72,0.072,0.72,0.072,1.08,0.576
		c-0.72,5.544-0.72,5.544-1.656,9.648c-1.44,4.536-1.44,4.536-1.8,4.752C222.768,195.696,222.696,195.624,222.624,195.552
		L222.624,195.552z M196.416,192.5999c-0.864-0.936-1.296-1.944-2.664-3.3839c0-0.7921,0.072-1.584,0.144-2.376
		c0.6479-0.936,1.296-1.872,1.944-2.88c1.368-1.224,2.736-2.448,4.176-3.744c0.288,0,0.648,0,1.008-0.0721
		c0,1.008,0,2.016,0.072,3.096c-0.648,1.224-1.296,2.52-1.944,3.816c-0.576,1.8-1.224,3.672-1.872,5.5439
		C196.992,192.5999,196.704,192.5999,196.416,192.5999L196.416,192.5999z M216.36,187.632c-0.504-0.288-1.08-0.576-1.656-0.936
		c-0.72-0.72-1.44-1.44-2.16-2.16c-1.368-0.792-2.736-1.584-4.1039-2.376c0-0.36-0.072-0.72-0.144-1.08
		c1.44-4.104,1.944-4.536,2.376-5.976c4.104-4.104,4.104-4.104,4.752-4.464c0.432,0,0.936,0,1.44,0c1.8,1.944,3.6,3.96,5.472,5.976
		c0,0.6479,0.072,1.368,0.144,2.088c-0.288,1.008-0.6479,2.0161-1.008,3.096c-0.576,1.08-1.224,2.232-1.872,3.384
		c-0.648,0.792-1.296,1.584-1.944,2.376C217.224,187.56,216.792,187.56,216.36,187.632L216.36,187.632z M203.616,187.56
		c0-2.592-0.0721-5.256-0.144-7.92c0.144-0.288,0.288-0.576,0.504-0.936c0.936,0,1.872-0.072,2.808-0.144
		c0,0.432,0,0.864,0.072,1.296c-0.432,0.864-0.936,1.728-1.44,2.664C203.976,187.344,203.976,187.344,203.616,187.56L203.616,187.56
		z M191.376,186.4799c-2.232-2.16-4.464-4.32-6.696-6.4799c0-0.432-0.072-0.864-0.144-1.2961c10.44-6.624,10.44-6.624,13.104-8.568
		c0.72-0.792,1.44-1.584,2.16-2.376c0.216,0,0.432,0,0.72,0.0721c0,0.36-0.072,0.792-0.144,1.224
		c0.504,1.224,0.504,1.224,0.936,4.104c-0.072,1.224-0.144,2.52-0.216,3.816c-0.792,0.432-1.656,0.864-2.52,1.2961
		c-1.224,1.368-2.52,2.736-3.816,4.104c-0.936,1.368-1.872,2.736-2.88,4.104C191.736,186.4799,191.592,186.4799,191.376,186.4799
		L191.376,186.4799z M250.704,185.976c-0.792-0.36-1.584-0.792-2.448-1.224c-15.336-2.592-16.776-2.592-17.136-2.952
		c-0.648-4.248-1.2961-8.496-1.944-12.744c-0.936-3.096-0.936-3.096-1.656-7.2c0.864-0.36,0.864-0.36,4.68-0.864
		c2.448,0.072,4.896,0.144,7.416,0.288c1.656-0.576,3.312-1.152,5.04-1.728c0.504,0,1.008,0.072,1.584,0.144
		c0.432,1.224,0.72,1.44,3.6,11.808c0.504,3.744,1.08,7.488,1.656,11.232c0,1.08,0,2.16-0.0721,3.24
		C251.208,185.976,250.992,185.976,250.704,185.976L250.704,185.976z M226.44,178.056c-0.288-0.432-0.576-0.864-0.864-1.2961
		c0.216-2.376,0.216-2.376,0.576-2.664c0.216,0.216,0.432,0.432,0.648,0.72c0.072,1.008,0.144,2.088,0.216,3.168
		C226.656,178.2,226.656,178.2,226.44,178.056L226.44,178.056z M181.8,177.12c-2.376-1.944-2.376-1.944-4.104-2.88
		c-1.152-1.152-2.376-2.304-3.6-3.528c-0.432-0.936-0.432-0.936-0.576-2.088c0.432-0.72,0.432-0.72,2.736-2.592
		c0.288-0.144,0.648-0.288,1.008-0.432c2.16-2.1599,2.16-2.1599,7.2-6.0479c2.304-2.52,4.608-5.04,6.912-7.632
		c0.72-1.224,1.44-2.448,2.16-3.744c0.216,0,0.432-0.072,0.72-0.144c1.224,2.088,2.448,4.248,3.744,6.408c0,0.864,0,1.728,0,2.664
		c0.504,0.504,1.08,1.08,1.656,1.656c0.216,1.368,0.432,2.7361,0.72,4.104c-0.936,1.512-1.872,3.024-2.88,4.536
		c-2.5201,2.16-2.5201,2.16-5.112,3.96c-0.36,0.144-0.792,0.288-1.224,0.432c-2.232,1.584-4.4641,3.168-6.696,4.824
		C183.024,177.12,183.024,177.12,181.8,177.12L181.8,177.12z M203.616,176.256c-0.36-12.24-0.36-12.24-0.144-14.832
		c0.144-0.216,0.288-0.4319,0.432-0.6479c0.288,0,0.576,0,0.936,0c0.936,0.936,0.936,0.936,2.664,1.944
		c0.792,0.288,1.584,0.576,2.376,0.936c0.432,0.504,0.936,1.008,1.44,1.584c-0.36,0.72-1.368,6.264-2.304,8.856
		c-0.432,0.648-0.864,1.296-1.296,2.016C206.352,176.112,204.984,176.184,203.616,176.256L203.616,176.256z M221.904,173.52
		c-1.008-1.728-1.008-1.728-1.728-2.16c-0.576-0.72-1.224-1.44-1.872-2.16c0-0.36,0-0.72-0.072-1.08
		c1.44-0.72,2.88-1.512,4.392-2.304c0.144-0.216,0.288-0.432,0.432-0.72c0.432-0.072,0.936-0.144,1.44-0.216
		c0,0.576,0.072,1.152,0.144,1.8c-0.288,0.936-0.648,1.872-1.008,2.88c-0.432,3.384-0.432,3.384-0.792,3.96
		C222.552,173.52,222.264,173.52,221.904,173.52L221.904,173.52z M215.64,166.752c-0.144-0.144-0.288-0.36-0.504-0.576
		c0-0.504-0.072-1.08-0.144-1.656c0.936-1.728,1.872-3.456,2.88-5.256c0.36-0.36,0.792-0.792,1.224-1.224
		c0.072-0.792,0.144-1.584,0.216-2.376c0.216-0.504,0.432-1.008,0.648-1.512c0.216,0,0.432,0,0.72-0.072c0.36,0.576,1.8,7.56,1.8,9
		c-2.52,1.8-4.464,2.736-5.616,3.672C216.504,166.752,216.072,166.752,215.64,166.752L215.64,166.752z M211.536,162.216
		c-0.864-0.648-1.728-1.2961-2.592-1.944c-0.072-0.2881-0.144-0.648-0.288-1.0081c1.584,0.144,3.168,0.2881,4.824,0.432
		c-0.072,0.432-0.216,0.936-0.36,1.44c-0.288,0.36-0.576,0.72-0.864,1.08C212.04,162.216,211.824,162.216,211.536,162.216
		L211.536,162.216z M212.544,142.416c-0.6479-0.6479-1.296-1.296-1.944-2.016c-2.808-1.872-5.616-3.816-8.424-5.76
		c-3.6-1.944-4.032-2.448-5.76-3.384c-5.04-1.944-5.04-1.944-11.232-3.816c-1.152-0.648-2.376-1.296-3.6-1.944
		c-2.52-1.872-5.112-3.816-7.704-5.76c-1.224-1.44-2.52-2.88-3.816-4.32c-1.224-2.376-2.448-4.824-3.744-7.272
		c-1.008-2.88-1.008-2.88-1.944-7.488c-0.216-2.8799-0.72-5.472-1.44-15.84C162,63,162,63,161.496,36.144
		c-0.216-2.304-0.432-4.608-0.72-6.984c0.072-1.2241,0.216-2.448,0.36-3.744c1.008-0.216,3.168-1.224,3.6-1.656
		c1.728-0.504,1.728-0.504,8.928-1.44c6.12-1.872,12.24-3.816,18.432-5.76c4.248-1.584,8.496-3.168,12.744-4.824
		c1.368-0.936,2.736-1.8719,4.104-2.88c0.864-1.368,1.8-2.736,2.736-4.176c0.288-0.864,0.576-1.728,0.936-2.6639
		c0.288-0.2881,0.576-0.576,0.864-0.864c1.656-0.432,2.376-0.936,4.104-1.152c0.432,0.4319,0.432,0.4319,0.792,1.7999
		c0,1.8,0,3.6721,0,5.5441c0.144,0.432,0.288,0.936,0.504,1.44c0.72,0.792,1.44,1.5839,2.232,2.376
		c1.224,0.576,2.448,1.152,3.672,1.8c1.8,0.576,3.6,1.2239,5.472,1.872c6.192,1.296,12.456,2.592,18.72,3.888
		c4.32,0.36,8.64,0.72,12.96,1.152c0.36,0.288,0.72,0.576,1.08,0.864c0.72,1.944,0.72,1.944,1.656,3.384
		c0.144,9.7921,0.288,19.6561,0.504,29.5201c0.36,7.9199,0.792,15.84,1.224,23.7599c0.216,21.096,0.216,21.096,0,28.584
		c-0.288,1.152-0.648,2.376-1.0081,3.6c-0.576,1.08-1.224,2.16-1.8719,3.312c-0.936,1.008-1.872,2.088-2.8801,3.168
		c-6.048,3.816-6.048,3.816-9.72,5.616c-3.888,1.224-7.776,2.52-11.736,3.816c-4.248,1.872-8.496,3.8159-12.744,5.76
		c-0.864,0.648-1.728,1.296-2.664,1.944c-2.448,2.664-4.896,5.4-7.416,8.136c-0.792,0.36-1.584,0.792-2.376,1.224
		C213.552,142.56,213.048,142.488,212.544,142.416L212.544,142.416z M214.92,136.512c-2.376-1.872-2.376-1.872-8.424-5.76
		c-6.696-3.816-6.696-3.816-7.2-4.32c-3.96-1.224-7.92-2.52-11.952-3.816c-1.728-0.936-2.88-1.944-4.608-2.88
		c-4.752-3.816-4.752-3.816-6.912-5.976c-0.6479-0.792-1.296-1.656-1.944-2.52c-0.936-1.872-1.872-3.816-2.808-5.76
		c-0.936-3.096-0.936-3.096-1.872-8.424c-0.288-3.312-0.6479-6.696-1.008-10.08c-1.44-26.64-1.872-39.312-2.376-44.136
		c0.144-1.368,0.288-2.736,0.504-4.104c-0.216-3.744-0.432-7.488-0.72-11.232c2.088-0.288,4.176-0.576,6.336-0.864
		c8.28-2.5201,16.632-5.112,24.984-7.704c3.168-1.224,6.336-2.52,9.576-3.816c2.016-1.1519,4.032-2.376,6.0479-3.5999
		c0.36,0,0.72,0,1.152,0.072c0.648,0.648,1.296,1.368,1.944,2.088c2.376,1.2241,4.752,2.5201,7.2,3.816
		c2.16,0.6481,4.32,1.2961,6.4799,1.9441c4.392,0.936,8.784,1.872,13.1761,2.88c4.752,0.576,9.576,1.152,14.4,1.7999
		c0.072,0.4321,0.144,0.936,0.288,1.44c0.432,0,0.936,0,1.44,0c0.288,11.0881,0.648,22.176,1.008,33.3361
		c0.36,5.616,0.7919,11.232,1.2239,16.848c-0.072,10.512-0.144,21.096-0.216,31.68c-1.0079,2.88-1.0079,2.88-1.944,4.536
		c-1.944,1.944-1.944,1.944-4.32,3.816c-3.456,1.944-3.456,1.944-7.992,3.744c-2.16,0.576-4.32,1.224-6.48,1.872
		c-4.248,1.872-8.496,3.816-12.744,5.76c-2.088,1.296-4.1761,2.592-6.264,3.888c-2.16,2.0161-2.16,2.0161-5.04,5.256
		C215.568,136.368,215.28,136.44,214.92,136.512L214.92,136.512z M212.76,130.5359c-0.288,0-0.576,0-0.936-0.072
		c-0.288-0.864-0.576-1.728-0.864-2.664c-3.24-1.8-3.24-1.8-11.376-7.56c-4.104-1.944-7.2-2.88-13.968-5.76
		c-1.872-1.08-3.816-2.232-5.76-3.384c-1.296-1.224-2.664-2.52-4.032-3.816c-0.576-1.152-1.224-2.304-1.872-3.456
		c-1.872-8.424-1.872-8.424-3.816-19.44c-0.36-3.528-0.792-7.056-1.224-10.584c0.288-0.5039,0.288-0.5039,0.288-20.376
		c-0.504-12.744-0.504-12.744-0.288-17.568c0.504-1.4399,0.504-1.4399,0.864-1.8c1.44-0.2159,1.728,0,3.168,0
		c2.88-0.6479,5.76-1.2959,8.64-1.944c5.976-1.8719,11.952-3.8159,18-5.76c3.456-1.728,6.984-3.4559,10.512-5.2559
		c0.432-0.72,0.936-1.44,1.44-2.16c1.152-0.216,2.376-0.432,3.6-0.72c0.36,0.36,0.792,0.72,1.224,1.08
		c0.072,0.288,0.216,0.6479,0.36,1.0079c0.792,0.576,1.584,1.2241,2.376,1.8719c2.016,0.7201,4.032,1.5121,6.12,2.3041
		c3.96,0.5759,7.992,1.224,12.024,1.8719c1.944,0.4321,3.96,0.936,5.976,1.4401c1.872,0.072,3.816,0.1439,5.76,0.288
		c0.648-0.1441,1.296-0.288,1.944-0.504c1.656,0.72,1.656,0.72,2.16,1.2239c1.8,13.1041,1.8,13.1041,3.24,26.0641
		c0.144,6.264,0.288,12.6,0.432,18.9359c-0.144,0.2161-0.288,0.432-0.432,0.7201c0.288,3.5999,0.576,7.2,0.936,10.7999
		c-0.288,3.672-0.576,7.344-0.936,11.0161c-1.944,9.144-1.944,9.144-2.88,12.024c-0.72,0.864-1.44,1.728-2.16,2.664
		c-2.304,1.872-2.304,1.872-5.4,3.816c-1.728,0.864-3.456,1.8-5.256,2.736c-1.728,0.648-3.528,1.296-5.328,1.944
		c-2.952,0.792-5.904,1.584-8.856,2.376c-3.816,1.944-3.816,1.944-6.48,3.816c-1.944,2.304-1.944,2.304-2.88,4.104
		c-0.504,0.216-1.08,0.432-1.656,0.72C214.56,130.5359,213.696,130.5359,212.76,130.5359L212.76,130.5359z M215.856,123.912
		c-0.288-2.52-0.576-5.04-0.864-7.632c0-2.304,0-4.608,0-6.984c0.216-2.88,0.432-5.76,0.72-8.64
		c-0.432-3.5999-0.432-3.5999-0.936-15.84c-0.36-2.592-0.72-5.256-1.08-7.92c3.6,0.144,3.6,0.144,4.824-0.144
		c2.16-0.1441,4.32-0.288,6.48-0.432c3.024-0.648,6.048-1.296,9.144-1.944c2.88-0.216,5.76-0.432,8.64-0.72
		c2.232,0.288,4.464,0.5759,6.696,0.936c0.144,0.2159,0.36,0.432,0.576,0.6479c0.432,3.6,0.936,7.2001,1.44,10.8
		c-0.72,7.92-0.72,7.92-1.224,9.864c-1.224,0.576-2.4481,1.152-3.6721,1.728c-0.36,0.72-0.792,1.44-1.224,2.16
		c-2.88,0.504-2.88,0.504-6.192,1.728c-0.432-4.896-0.432-4.896-0.648-14.544c2.088-0.432,4.248-0.864,6.408-1.296
		c0.288-0.432,0.576-0.864,0.936-1.368c-0.504-1.152-0.504-1.152-1.224-1.656c-2.232-0.072-4.464-0.144-6.696-0.216
		c0-0.5041,0-1.08,0.072-1.656c1.008-1.008,1.008-1.008,1.44-2.1601c0-0.5759,0-1.1519,0-1.7279
		c-0.288-0.36-0.576-0.7201-0.936-1.152c-0.792,0-1.656-0.072-2.52-0.144c-0.792,0.288-1.584,0.5759-2.376,0.936
		c-0.576,0.432-1.152,0.864-1.8,1.368c0,2.16,0,2.16,0.432,3.312c0.216,0.144,0.4319,0.288,0.72,0.504c0,0.36,0,0.72-0.072,1.08
		c-1.512,0.144-3.024,0.2881-4.536,0.432c-0.72,0.504-2.448,1.008-3.168,1.584c0,0.576-0.072,1.152-0.144,1.728
		c0.432,0.144,0.864,0.36,1.368,0.576c2.232,0,4.464,0.072,6.696,0.144c0,5.04,0.072,10.08,0.144,15.12
		c-0.36,0.288-0.36,0.288-2.0161,0.288c-0.936-0.576-1.8719-1.224-2.88-1.872c-0.936-1.44-1.944-2.952-2.952-4.464
		c-0.648-0.36-0.648-0.36-1.656-0.36c-0.432,0.504-1.872,0.936-3.024,2.088c0,0.576,0,1.224,0,1.872
		c0.648,1.152,1.368,2.376,2.088,3.6c2.376,1.8,2.376,1.8,4.32,2.736c1.152,0.144,2.376,0.288,3.5999,0.504
		c0.72,0.432,1.44,0.936,2.16,1.44c0.288,0.432,0.576,0.936,0.936,1.4399c1.008-0.072,2.088-0.144,3.168-0.2159
		c2.16-1.008,2.592-1.584,3.456-2.016c0.144-0.792,0.288-1.584,0.432-2.448c0.432-0.36,0.432-0.36,7.848-2.16
		c-0.36,2.664-0.36,2.664-1.368,5.544c-1.872,2.16-1.872,2.16-4.176,4.104c-3.024,1.368-6.048,2.736-9.072,4.176
		c-2.304,0.576-4.608,1.224-6.984,1.872c-1.584,0.648-3.168,1.296-4.824,1.944c-1.944,1.152-3.96,2.376-5.976,3.6
		C216.216,124.056,216.072,123.9839,215.856,123.912L215.856,123.912z M40.176,117.072c-0.288-0.576-0.576-1.152-0.864-1.728
		c-0.288-1.512-0.576-3.024-0.936-4.608c-0.072-1.584-0.144-3.168-0.216-4.752c0.144-0.5759,0.36-1.152,0.576-1.728
		c0.288,0,0.576,0,0.864,0c0.576,1.296,1.224,2.592,1.872,3.888c0.432,0.504,0.936,1.08,1.44,1.656
		c-0.432,4.104-0.216,4.32-0.216,5.256c-0.576,0.6479-1.152,1.296-1.8,2.016C40.68,117.072,40.464,117.072,40.176,117.072
		L40.176,117.072z M184.464,73.656c-3.168-0.216-6.408-0.504-9.648-0.792c-0.072-0.216-0.216-0.4321-0.36-0.72
		c-0.36-11.448-0.792-22.8961-1.224-34.3441c0.144-0.288,0.288-0.5759,0.504-0.9359c3.168-0.576,6.336-1.224,9.504-1.8721
		c12.024-3.816,12.024-3.816,16.056-4.752c3.456-1.5121,6.912-3.024,10.368-4.608c0.288,0,0.648,0.072,1.008,0.144
		c0.72,13.68,0.72,19.728,1.224,27.1439c0.216,18.936,0.216,18.936-0.0721,20.5201c-1.008,0-1.728-0.288-7.4879-0.288
		c-1.44,0.144-2.88,0.288-4.32,0.504C194.832,73.656,189.648,73.656,184.464,73.656L184.464,73.656z M134.496,70.0559
		c-1.224-0.2879-2.52-0.5759-3.816-0.936c-1.44-0.6479-2.88-1.296-4.32-1.944c-0.792-0.6479-1.584-1.2959-2.376-1.944
		c-1.584-2.0159-3.168-4.0319-4.824-6.12c-0.288-0.6479-0.576-1.368-0.864-2.088c0.216-4.608,0-6.9841,0.216-11.52
		c0.648-2.952,1.296-5.904,1.944-8.928c0.288-0.792,0.576-1.584,0.936-2.376c3.888-6.2641,3.888-6.2641,6.768-10.296
		c0.576-0.576,1.152-1.152,1.8-1.7281c0.72,0,1.44-0.0719,2.16-0.1439c0.432,0.288,0.864,0.5759,1.296,0.864
		c-0.072,2.016-0.144,4.032-0.216,6.048c-0.648,2.376-1.296,4.752-1.944,7.2c-0.648,1.5839-1.296,3.168-1.944,4.752
		c0,0.432,0,0.936-0.072,1.44c2.376-0.36,4.824-1.2961,11.736-3.24c0.864-0.144,1.728-0.2881,2.664-0.504
		c1.656,0,3.312,0.072,5.04,0.144c0.072,1.008,0.576,1.728,0.576,2.664c-1.008,1.44-2.016,2.88-3.096,4.32
		c-1.512,1.224-3.024,2.52-4.608,3.816c-1.512,0.72-3.024,1.512-4.608,2.304c-4.824,1.44-7.488,1.872-8.352,2.304
		c0,0.216,0,0.432,0,0.72c3.528,1.728,3.528,1.728,7.848,4.608c1.512,1.44,3.024,2.8799,4.536,4.32
		c2.448,1.4399,2.448,1.4399,3.6,2.592c0,0.36,0.072,0.72,0.144,1.152c-0.36,0.288-0.72,0.6479-1.08,1.0079
		c-1.08,0.432-2.232,0.8641-3.384,1.296C138.384,69.912,136.44,69.984,134.496,70.0559L134.496,70.0559z M184.464,67.392
		c-1.08-0.288-2.232-0.576-3.384-0.936c-0.432-0.432-0.936-0.936-1.44-1.44c0-0.792-0.072-1.656-0.144-2.5201
		c0.936-0.576,1.872-1.1519,2.808-1.7999c0.504,0,1.08,0,1.656,0c0.792,0.504,1.584,1.08,2.376,1.6559c0.576,0,1.152,0,1.728,0
		c0.504-0.5759,1.008-1.1519,1.512-1.728c0-0.6479,0.072-1.2959,0.144-1.944c-3.384-0.864-3.384-0.864-4.536-1.4399
		c-0.288-0.504-0.576-1.08-0.864-1.656c0-1.152,0-2.376,0-3.6c0.432-1.4401,0.432-1.4401,1.44-2.88
		c1.44-0.864,2.88-1.728,4.32-2.664c0.432-1.224,0.432-1.224,0.864-4.104c-0.864,0.072-1.728,0.216-2.664,0.36
		c-1.512-0.0721-3.024-0.144-4.536-0.216c-0.36-0.288-0.72-0.576-1.152-0.864c0-0.4321,0.072-0.936,0.144-1.4401
		c0.288-0.1439,0.576-0.2879,0.864-0.4319c0.0721-0.6479,0.216-1.368,0.36-2.088c0.936,0.1439,0.936,0.1439,1.224,0.504
		c1.584,0.072,3.168,0.144,4.752,0.216c1.728-0.936,2.88-1.944,4.824-2.8801c0.36-0.072,0.7921-0.144,1.224-0.2159
		c0.936,0.432,0.936,0.432,1.44,1.152c0.072,0.72,0.144,1.512,0.288,2.304c-0.432,4.608-0.72,5.04-1.152,7.488
		c-0.288,0.5759-0.648,1.224-1.008,1.872c-1.44,1.44-2.88,2.8799-4.32,4.32c0,0.4319,0,0.9359,0,1.4399
		c0.144,0.072,0.288,0.216,0.432,0.36c1.224-0.072,2.52-0.144,3.816-0.216c0.36,0.144,0.72,0.36,1.08,0.576
		c0.072,0.72,0.144,1.44,0.216,2.16c-0.144,1.368-0.288,2.736-0.504,4.104c-0.2881,0.72-0.576,1.44-0.936,2.16
		c-0.648,0.648-1.2961,1.296-2.0161,1.944c-2.88,1.728-2.88,1.728-4.8239,2.448C187.2,67.392,185.832,67.392,184.464,67.392
		L184.464,67.392z"/>
</g>
</svg>
