<?xml version="1.0" encoding="utf-8"?>
<!-- Generator: Adobe Illustrator 21.1.0, SVG Export Plug-In . SVG Version: 6.00 Build 0)  -->
<svg version="1.1" id="Nauc" xmlns="http://www.w3.org/2000/svg" xmlns:xlink="http://www.w3.org/1999/xlink" x="0px" y="0px"
	 viewBox="0 0 286.776 426.24" enable-background="new 0 0 286.776 426.24" xml:space="preserve">
<g>
	<path fill-rule="evenodd" clip-rule="evenodd" d="M41.4,426.24c-0.576-0.36-1.152-0.72-1.8-1.08
		c0.072-0.648,0.144-1.296,0.216-1.944C43.704,412.2,43.704,412.2,44.64,408.6c0.144-1.368,0.288-2.736,0.504-4.104
		c-0.072-0.864-0.144-1.728-0.288-2.592c-2.16-0.144-4.32-0.288-6.552-0.432c-9.576-1.44-9.576-1.44-14.904-1.872
		c-4.536-1.008-4.536-1.008-7.2-1.944c-0.432-0.432-0.936-0.936-1.44-1.44c0-0.216-0.072-0.504-0.144-0.792
		c0.72-0.864,1.44-1.728,2.16-2.664c2.088-1.872,4.176-3.816,6.264-5.76c0.288-0.432,0.576-0.936,0.936-1.44
		c1.44-1.368,2.88-2.736,4.32-4.104c1.584-1.152,3.168-2.376,4.824-3.6c-0.072-0.432-0.144-0.936-0.216-1.44
		c-2.88-3.312-4.32-5.472-8.208-9.792c-0.72-0.504-10.8-12.744-12.24-14.904c-0.072-0.72-0.144-1.44-0.216-2.16
		c0.288-0.432,0.576-0.936,0.936-1.44c2.304-1.944,4.608-3.96,6.984-5.976c3.528-2.232,7.056-4.464,10.656-6.768
		c2.664-1.224,5.328-2.448,7.992-3.744c3.6-1.224,7.2-2.52,10.8-3.816C62.784,324,62.784,324,75.6,320.7599
		c0-0.288,0-0.576-0.072-0.864c-0.576-0.288-1.152-0.576-1.728-0.936c-1.008-1.08-2.016-2.232-3.096-3.384
		c-0.576-1.224-1.152-2.448-1.8-3.672c-1.584-1.008-3.744-1.872-5.184-2.808c-0.72-0.288-1.44-0.576-2.16-0.936
		c-1.008-0.792-2.016-1.584-3.096-2.448c-0.936-1.368-1.872-2.736-2.808-4.176c-0.936-3.816-0.936-3.816-1.44-4.752
		c-3.096-1.944-3.096-1.944-6.912-4.824c-1.296-1.728-2.592-3.456-3.888-5.256c-0.36-1.296-0.72-2.592-1.152-3.888
		C36.36,279,36.36,279,31.464,275.184c-1.944-3.168-1.944-3.168-2.88-5.544c-0.072-0.936-0.144-1.872-0.288-2.88
		c0.288-0.432,0.648-0.936,1.008-1.44c0.072-0.648,0.144-1.296,0.216-1.944c-2.808-3.024-5.616-6.048-8.424-9.072
		c-0.792-1.512-1.584-3.024-2.376-4.608c-0.072-1.8-0.144-3.6-0.216-5.472c-3.168-3.3839-3.168-3.3839-4.608-5.3279
		c-0.864-2.304-1.728-4.608-2.592-6.912c0.216-5.76,0.216-5.76,0-7.488c-1.944-2.376-1.944-2.376-4.824-7.2
		c-0.216-1.08-0.432-2.16-0.72-3.312c0.504-3.6,0.504-3.6,0.504-5.544c-0.144-0.72-0.288-1.44-0.504-2.16
		c-0.792-1.008-1.584-2.016-2.376-3.096c-0.288-0.864-0.648-1.728-1.008-2.664c-0.144-1.152-0.288-2.376-0.432-3.6
		c0.072-1.8,0.144-3.672,0.216-5.544c0.288-1.224,0.576-2.52,0.936-3.816c-0.72-1.44-2.592-3.816-3.096-4.824
		c0-1.5121,0-3.024,0-4.536c0.288-1.152,0.576-2.376,0.936-3.6c0.792-1.08,1.584-2.232,2.448-3.384
		c0.072-0.288,0.144-0.576,0.216-0.936c-0.648-1.008-1.296-2.016-1.944-3.096c-0.216-0.864-0.432-1.728-0.72-2.664
		c0-1.584,0-3.168,0-4.824c0.288-0.792,0.648-1.584,1.008-2.376c1.872-2.664,1.872-2.664,2.88-3.6
		c0.432-1.224,0.432-1.224,0.432-2.88c-0.936-2.664-0.936-2.664-1.44-5.04c-0.072-1.872-0.144-3.816-0.216-5.76
		c0.432-2.16,0.936-4.32,1.44-6.48c1.44-1.6559,1.44-1.6559,2.376-3.3839c-1.152-3.312-1.152-3.312-1.656-5.976
		c0.072-0.792,0.144-1.584,0.216-2.376c2.88-4.32,3.888-6.264,4.608-6.984c0.072-0.36,0.144-0.792,0.216-1.224
		c0.216-0.144,0.432-0.288,0.72-0.432c-0.216-2.16-0.216-2.16-0.72-3.384c-0.072-1.944-0.144-3.96-0.216-5.976
		c0.792-2.16,1.584-4.32,2.376-6.4799c1.656-1.44,1.656-1.44,3.6-3.8881c0.792-0.5759,1.584-1.2239,2.376-1.872
		c0.144-1.5839,0.288-3.168,0.504-4.824c0.936-2.6639,1.944-4.3199,4.824-10.8c4.032-4.1039,4.032-4.1039,4.536-5.0399
		c0.936-4.32,0.936-4.32,2.88-10.296c0.288-0.72,0.576-1.44,0.936-2.16c1.368-1.7999,2.736-3.6719,4.104-5.5439
		c1.224-0.936,1.224-0.936,4.248-2.304c0.216-0.648,0.504-1.296,0.792-2.016c1.944-2.376,1.944-2.376,3.816-5.544
		c2.448-1.872,4.32-3.816,6.84-5.76c1.656-0.576,3.384-1.152,5.112-1.8c0.504-0.72,1.08-1.44,1.656-2.16
		c1.944-0.936,4.536-2.8799,8.424-4.824c1.152-0.2879,2.376-0.5759,3.6-0.9359c4.752-5.6161,4.752-5.6161,6.912-7.704
		c0.864-0.432,1.728-0.936,2.664-1.44c2.808-0.432,5.616-0.936,8.424-1.44c0.72-0.576,1.44-1.2241,2.16-1.872
		c3.6-1.944,3.6-1.944,6.192-2.88c1.368-0.288,2.736-0.648,4.104-1.008c1.008,0,2.016,0,3.096,0c0.432-0.504,0.936-1.08,1.44-1.656
		c6.768-3.816,6.768-3.816,8.208-4.3201c1.872-0.072,3.816-0.1439,5.76-0.2159c0.216-0.2161,0.432-0.432,0.72-0.72
		c0.432,0,0.936,0,1.44,0c0.36-0.288,0.72-0.648,1.152-1.008c1.08-0.4321,2.232-0.936,3.384-1.44c4.32-0.72,4.32-0.72,6.984-0.72
		c1.728,0.216,3.456,0.4319,5.256,0.72c3.384-0.432,7.416-1.44,10.584-1.872c1.656,0,3.312,0,5.04,0
		c1.872,0.432,3.816,1.44,5.04,1.656c2.52-0.0721,5.04-0.1441,7.632-0.216c0.7921,0.1439,1.584,0.288,2.448,0.432
		c0.72,0.288,1.44,0.6479,2.16,1.0079c1.152,1.152,1.512,2.016,3.312,3.744c1.152-0.216,2.376-0.432,3.6-0.648
		c1.8,0.288,3.672,0.576,5.544,0.936c0.504,0.504,0.504,0.504,2.88,1.44c0.792,0.648,1.584,1.296,2.376,1.944
		c0.72,0.864,1.44,1.728,2.16,2.6639c1.584,0.0721,3.168,0.1441,4.824,0.2161c4.824,1.944,4.824,1.944,11.736,5.256
		c2.448,2.16,2.448,2.16,3.384,2.664c1.584,0.288,3.168,0.576,4.824,0.936c2.16,0.936,4.32,1.872,6.48,2.88
		c1.1519,1.008,2.16,1.44,4.536,3.384c0.792,1.368,1.512,3.744,1.944,4.1039c1.728,0.576,3.456,1.2241,5.256,1.872
		c1.44,1.0801,1.944,1.9441,3.384,2.88c0.936,1.0081,1.872,2.0881,2.88,3.1681c0.4319,0.792,0.864,1.6559,1.296,2.5199
		c0.144,1.1521,0.36,2.3761,0.576,3.6001c2.664,0.792,2.664,0.792,4.608,1.8c2.592,1.872,2.592,1.872,4.536,3.816
		c0.72,0.864,1.44,1.8,2.16,2.736c0.576,1.08,1.152,2.2319,1.8,3.384c0.36,1.728,0.72,3.528,1.152,5.328
		c2.448,2.376,3.384,3.816,5.544,6.192c0.936,1.4399,1.872,2.88,2.8799,4.3199c0.936,2.448,1.656,6.048,2.16,6.9841
		c0.144,1.1519,0.2881,2.376,0.504,3.6c2.0161,3.816,4.104,7.632,6.192,11.52c0.504,2.664,0.504,2.664,0.504,5.256
		c1.224,1.584,2.52,3.168,3.816,4.824c0.936,1.656,1.872,3.312,2.88,5.04c0.288,1.1519,0.648,2.376,1.008,3.6
		c0,0.864,0,1.728,0,2.664c-0.504,1.656-0.504,1.656-0.72,4.536c1.8719,2.16,1.8719,2.16,2.88,3.816
		c0.4319,1.44,0.936,2.88,1.4399,4.32c0.144,1.152,0.2881,2.376,0.432,3.6c-0.144,1.8-0.288,3.672-0.432,5.544
		c-1.4399,3.384-1.728,3.6-1.728,4.32c0.504,0.936,0.504,0.936,1.44,5.04c0.144,1.512,0.288,3.024,0.504,4.536
		c-0.072,1.152-0.144,2.376-0.216,3.6c-1.008,2.88-1.008,2.88-1.728,4.104c0,0.432,0,0.936,0,1.44c0.72,1.944,1.44,3.96,2.16,5.976
		c0,6.048,0,6.048-0.432,9.144c-0.936,1.512-1.8719,3.024-2.8799,4.536c0.2159,2.448,1.152,6.984,1.8719,12.744
		c-0.576,1.656-1.224,3.312-1.8719,5.04c-0.648,1.008-1.296,2.016-1.944,3.096c0,1.728,0,3.528,0,5.3279
		c-0.432,3.096-0.936,6.192-1.44,9.36c-0.288,0.792-0.576,1.584-0.936,2.376c-0.936,0.792-1.872,1.584-2.808,2.376
		c-0.36,1.008-0.36,5.328-0.792,7.92c-1.008,2.16-1.008,2.16-1.944,5.04c-2.88,5.328-2.88,5.328-3.384,5.76
		c0,4.32,0,4.32-0.432,10.368c-0.144,0.72-0.288,1.44-0.504,2.16c-0.432,0.936-0.936,1.872-1.44,2.88
		c-1.944,2.376-1.944,2.376-6.9839,7.416c-0.288,1.944-0.576,3.9601-0.936,5.976c-1.08,2.448-2.232,4.968-3.384,7.488
		c-0.936,1.08-1.944,2.16-2.952,3.312c-2.664,1.8-4.824,2.736-5.544,3.384c-0.288,1.368-0.576,2.736-0.864,4.104
		c-0.576,1.44-1.224,2.88-1.872,4.32c-1.944,2.376-1.944,2.376-4.248,4.32c-2.304,0.864-4.608,1.8-6.912,2.736
		c-0.432,1.296-0.864,2.592-1.368,3.96c-0.576,1.08-1.224,2.232-1.872,3.384c-1.008,1.152-2.088,2.376-3.168,3.6
		c-1.152,0.576-2.304,1.1519-3.456,1.728c-2.736,0.936-5.544,1.872-8.352,2.88c-0.936,1.08-1.872,2.16-2.808,3.312
		c0,0.288,0.0721,0.648,0.144,1.008c4.536,1.944,4.536,1.944,10.8,3.888c3.6,1.224,7.2,2.52,10.8,3.816
		c2.664,0.648,5.4,1.296,8.136,1.944c3.744,1.224,7.488,2.52,11.304,3.816c9.576,4.824,9.576,4.824,12.024,5.76
		c2.16,1.2241,4.32,2.5201,6.48,3.816c1.728,1.584,3.456,3.168,5.256,4.824c0.2881,0.576,0.576,1.152,0.936,1.8
		c-0.936,1.08-2.376,2.016-3.312,3.024c-2.88,1.872-4.104,3.096-5.544,4.032c-2.16,2.088-2.16,2.088-5.976,6.768
		c-2.232,3.024-4.464,6.12-6.768,9.216c-0.72,1.296-1.512,2.592-2.304,3.888c0,0.216,0,0.432,0,0.72c0.36,0.36,0.72,0.72,1.08,1.152
		c0.576,0.072,1.152,0.216,1.728,0.36c1.656,1.44,7.416,5.544,12.24,9.36c1.368,1.224,2.736,2.52,4.104,3.816
		c0.216,0.504,0.504,1.008,0.792,1.584c-0.072,0.72-0.144,1.44-0.216,2.16c-0.144,0.216-0.288,0.432-0.504,0.72
		c-1.44,0.576-2.88,1.152-4.392,1.8c-7.488,1.944-7.488,1.944-10.584,2.376c-12.744,0.504-12.744,0.504-14.4,0.864
		c0,0.216-0.072,0.432-0.144,0.72c1.944,5.544,1.944,5.544,3.6,11.304c-0.072,3.384-0.144,6.84-0.216,10.296
		c-0.36,0.288-0.72,0.648-1.08,1.008c-1.224-0.432-1.224-0.432-4.824-2.808c-0.576-0.72-1.224-1.44-1.8719-2.16
		c-2.88-1.944-2.88-1.944-6.48-3.816c-1.872-0.792-3.816-1.584-5.76-2.448c-12.24-3.312-12.96-3.816-16.56-4.752
		c-0.648-0.288-1.296-0.648-1.944-1.008c-3.6-0.936-3.6-0.936-5.544-1.872c-1.944-1.728-3.96-3.528-5.976-5.328
		c-0.648-0.864-1.296-1.8-1.944-2.736c-0.504-1.296-1.008-2.664-1.584-4.032c0-3.384,0-3.384,0.504-6.768
		c0.2881-0.576,0.576-1.224,0.936-1.872c3.9601-4.824,3.9601-4.824,8.208-9.36c0-0.216,0-0.432,0-0.72
		c-1.224-1.224-1.224-1.224-1.8-2.232c-1.152-0.36-2.376-0.72-3.6-1.08c-2.376-0.288-4.752-0.576-7.2-0.936
		c-4.32-0.144-8.64-0.288-12.96-0.504c-2.52,0.144-5.112,0.288-7.704,0.504c-0.144-0.144-0.288-0.288-0.432-0.504
		c-1.8-0.288-3.672-0.576-5.544-0.936c-9.432,0.072-18.864,0.144-28.296,0.216c-0.864,0.144-1.728,0.288-2.664,0.504
		c-8.64,0-8.64,0-11.016-0.216c-9.864,0.72-11.808,1.152-22.104,2.16c-2.16,0.432-2.16,0.432-9.144,0.936
		c-2.16,0.504-4.32,1.008-6.48,1.584c0,0.216-0.072,0.432-0.144,0.72c0.72,0.432,1.44,0.936,2.16,1.44
		c0.432,0.072,0.864,0.216,1.368,0.36c2.16,2.304,4.32,4.68,6.48,7.056c0.936,1.584,0.936,1.584,2.736,6.48
		c0.072,0.432,0.144,0.936,0.216,1.44c-0.576,1.512-1.224,3.024-1.872,4.608c-0.648,0.864-1.296,1.728-1.944,2.592
		c-2.16,1.944-2.16,1.944-4.896,3.888c-4.032,1.872-8.136,3.744-12.24,5.616c-6.624,1.872-13.248,3.816-19.944,5.76
		c-1.44,0.648-2.88,1.296-4.32,2.016c-0.432,0.576-3.312,2.52-5.472,4.464c-1.584,1.872-3.168,3.816-4.824,5.76
		C42.264,426.24,41.832,426.24,41.4,426.24L41.4,426.24z M46.944,415.8c0-0.648,0-1.296,0.072-1.944
		c0.144-0.288,0.288-0.576,0.504-0.936c0.072-4.464,0.144-8.928,0.216-13.464c-0.216-0.288-0.504-0.576-0.792-0.864
		c-1.8,0-3.672,0-5.544,0c-3.672-0.288-7.344-0.576-11.016-0.936c-4.536-0.936-4.536-0.936-8.856-2.376
		c-0.432-0.36-0.432-0.36-0.432-1.296c1.944-1.944,2.88-3.384,13.464-13.968c0.36,0,0.72-0.072,1.08-0.144
		c2.88,3.312,5.76,6.696,8.64,10.08c1.152,0.648,2.376,1.296,3.6,1.944c8.208,1.944,8.208,1.944,12.744,2.664
		c3.024-0.216,6.048-0.432,9.144-0.648c-0.144,0.216-0.288,0.432-0.504,0.648c-3.816,0.936-7.416,1.44-8.064,1.8
		c0,0.288,0,0.576,0,0.936c0.288,0.288,0.576,0.576,0.864,0.864c3.096,0,3.096,0,5.976-0.504c6.48-2.88,6.48-2.88,8.928-4.32
		c0.432-0.504,0.432-0.504,6.696-3.384c0.792-0.072,1.584-0.144,2.376-0.216c0,0.432,0.072,0.864,0.144,1.368
		c-0.648,0.864-1.296,1.728-1.944,2.592c-1.224,1.008-2.448,2.088-3.744,3.168c-2.376,0.576-4.752,1.152-7.128,1.728
		c-3.096,0.432-6.192,0.936-9.36,1.44c0,0.432-0.072,0.864-0.144,1.368c2.52,0.072,12.096-1.08,14.04-1.008
		c-1.152,0.648-2.376,1.368-3.6,2.088c-1.656,0.432-3.312,0.936-5.04,1.44c-2.304,0.288-4.608,0.576-6.984,0.936
		c-1.08,0.288-2.16,0.576-3.312,0.936c-1.368,0.648-2.736,1.296-4.104,1.944c-0.792,0.648-1.584,1.296-2.376,1.944
		c-1.512,1.872-3.024,3.816-4.608,5.76C47.592,415.512,47.304,415.6559,46.944,415.8L46.944,415.8z M244.008,415.6559
		c-4.824-4.536-4.824-4.536-7.488-6.48c-1.44-0.648-2.88-1.296-4.32-1.944c-8.64-2.376-8.64-2.376-13.392-3.312
		c-5.76-1.944-5.76-1.944-10.08-3.888c-1.44-1.008-2.952-2.088-4.464-3.168c0-0.216-0.072-0.432-0.144-0.72
		c0.648,0.072,1.2961,0.144,1.944,0.288c3.024,1.296,6.048,2.592,9.144,3.888c2.736,0.936,5.544,1.872,8.352,2.88
		c4.824,0.432,4.824,0.432,5.76,0.216c0.072-0.144,0.216-0.36,0.36-0.576c-0.072-0.36-0.144-0.792-0.216-1.224
		c-0.288-0.144-0.576-0.36-0.864-0.576c-1.872-0.144-3.816-0.288-5.76-0.504c-1.008-0.432-2.016-0.864-3.024-1.296
		c0-0.288,0.072-0.576,0.144-0.864c2.16,0.072,4.32,0.144,6.48,0.216c2.088,0.432,4.176,0.936,6.264,1.44
		c0.936-0.216,0.936-0.216,1.44-0.72c0-0.432,0-0.864,0.072-1.296c-0.288-0.288-0.648-0.576-1.008-0.864
		c-2.16-0.576-4.32-1.224-6.48-1.872c-3.816-0.432-7.632-0.936-11.52-1.44c-1.008-0.648-2.088-1.296-3.168-1.944
		c-0.072-0.36-0.144-0.72-0.216-1.08c3.888,0.504,7.776,1.008,11.736,1.584c11.808,0.216,11.808,0.216,17.28,0
		c0.648-0.144,1.2961-0.288,1.944-0.504c1.584-1.296,3.168-2.592,4.824-3.96c0.936-1.584,0.936-1.584,6.192-8.064
		c0.576,0,1.152,0,1.728,0c5.472,3.888,5.472,3.888,6.48,4.32c3.096,2.808,6.264,5.688,9.432,8.568c0,0.36,0,0.792,0,1.224
		c-3.024,0.864-6.12,1.8-9.216,2.736c-2.304,0.288-4.608,0.576-6.984,0.936c-9.36,0.216-9.36,0.216-13.392,0.72
		c-0.504,0.864-0.504,0.864-0.648,1.8c0.936,4.104,0.936,4.104,2.88,10.368c0.216,1.512,0.432,3.024,0.72,4.536
		C244.224,415.8,244.224,415.8,244.008,415.6559L244.008,415.6559z M84.384,397.296c0-0.288,0-0.576,0.072-0.936
		c1.008-1.008,2.016-2.016,3.024-3.024c0.288,0,0.576,0.072,0.864,0.144c0,0.288,0,0.576,0,0.936
		c-1.008,1.224-1.008,1.224-3.024,2.664C85.032,397.152,84.744,397.224,84.384,397.296L84.384,397.296z M44.064,383.256
		c-1.224-1.224-2.52-2.52-3.816-3.816c-15.624-18.288-16.848-19.368-18.72-21.744c-0.792-0.792-1.584-1.584-2.448-2.376
		c-0.792-1.08-1.584-2.232-2.376-3.384c0-0.36-0.072-0.72-0.144-1.152c0.648-0.648,1.296-1.2961,1.944-1.944
		c3.528-2.5201,7.056-5.112,10.656-7.704c3.024-1.872,6.048-3.744,9.144-5.616c11.304-4.32,11.304-4.32,12.024-4.824
		c6.192-1.872,12.456-3.816,18.72-5.76c5.4-1.224,10.8-2.52,16.272-3.816c2.088-0.648,4.176-1.296,6.264-1.944
		c3.024-0.432,6.048-0.936,9.144-1.44c2.376-0.072,4.752-0.144,7.2-0.216c6.192-0.648,12.456-1.296,18.72-1.944
		c3.6,0,8.136-0.504,15.336-0.504c3.744,0.288,7.488,0.648,11.304,1.008c28.8,1.44,32.112,1.872,36.432,1.872
		c1.728,0.144,3.528,0.288,5.328,0.504c2.376,0.432,4.752,0.936,7.2,1.44c0.288,0.216,0.576,0.432,0.936,0.72
		c11.304,2.88,13.896,3.816,18,4.824c0.432,0.288,0.936,0.576,1.44,0.936c8.64,2.52,17.28,5.112,25.92,7.704
		c7.416,2.88,7.416,2.88,9.144,3.312c3.816,1.944,8.64,3.888,12.24,5.76c1.296,1.152,2.664,2.304,4.032,3.528
		c0,0.36,0.072,0.792,0.144,1.224c-2.016,2.016-4.032,4.104-6.048,6.192c-11.52,14.688-11.52,14.688-22.536,28.08
		c-0.432,0-0.864,0.072-1.296,0.144c-4.824-3.6-4.824-3.6-6.696-5.328c-3.888-1.224-7.848-2.52-11.808-3.816
		c-14.4-3.384-20.88-4.536-21.096-4.824c-0.72,0-0.9359,0.288-7.92,0.288c-3.816-0.504-5.76-0.504-27.864-3.168
		c-2.88-0.216-5.76-0.432-8.64-0.72c-4.104-0.072-8.28-0.144-12.456-0.216c-6.624,0.432-13.248,0.936-19.944,1.44
		c-3.096,0-6.192,0-9.36,0c-9.432,1.08-18.864,2.232-28.296,3.384c-3.312,0.144-6.696,0.288-10.08,0.432
		c-8.136,1.944-9.36,2.448-11.736,2.88c-3.816,1.296-7.632,2.592-11.52,3.888c-2.592,1.224-5.256,2.52-7.92,3.816
		c-1.152,0.936-2.376,1.872-3.6,2.88C44.928,383.256,44.496,383.256,44.064,383.256L44.064,383.256z M80.064,319.3919
		c-1.152-0.576-2.376-1.224-3.6-1.872c-1.08-0.936-2.232-1.872-3.384-2.88c-0.936-1.584-0.936-1.584-1.44-3.456
		c0.936-0.288,1.872-0.576,2.88-0.864c1.08,0,2.232,0,3.384,0c3.816,0.936,3.816,0.936,8.424,1.44c1.8,0.576,3.6,1.224,5.472,1.872
		c0.504,0.432,1.008,0.864,1.584,1.368c0,0.504-0.072,1.008-0.144,1.512C81.288,319.3919,81.288,319.3919,80.064,319.3919
		L80.064,319.3919z M208.224,317.952c-3.816-0.936-3.816-0.936-6.696-1.152c-0.648-1.152-1.368-2.304-2.088-3.456
		c0.072-1.152,0.144-2.376,0.216-3.6c0.432-0.576,0.936-1.152,1.44-1.728c6.12-3.816,6.12-3.816,10.728-6.12
		c0.72-0.072,1.44-0.216,2.16-0.36c0.36,1.728,0.36,1.728,0.576,8.424c-0.216,2.664-0.216,2.664-0.72,3.816
		c-1.368,1.368-2.736,2.736-4.104,4.104C209.232,317.8799,208.728,317.8799,208.224,317.952L208.224,317.952z M190.944,316.296
		c-0.216,0-0.432,0-0.72-0.072c0-0.2159,0-0.432,0.072-0.72c0.72-0.648,1.512-1.296,2.304-1.944c1.944-0.864,1.944-0.864,3.6-1.08
		c0.144,0.072,0.36,0.216,0.576,0.36c0.504,1.44,0.504,1.44,0.72,3.3839C195.336,316.2239,193.176,316.2239,190.944,316.296
		L190.944,316.296z M216.864,311.904c0.072-5.544,0.072-5.544-0.36-9.864c-0.288-0.864-0.648-1.728-1.008-2.664
		c0-0.432,0-0.936,0-1.44c1.008-1.656,1.008-1.656,1.44-2.88c1.944-2.16,1.944-2.16,3.24-3.096c2.664-1.224,5.328-2.448,7.992-3.744
		c0.36,0,0.72,0,1.152,0c0.288,0.504,0.576,1.008,0.864,1.584c1.44,7.2,1.44,7.2,1.44,8.856c-0.288,1.152-0.6479,2.376-1.008,3.6
		c-0.576,1.296-1.224,2.592-1.872,3.888c-0.648,0.72-1.296,1.44-1.944,2.16c-1.584,0.936-1.584,0.936-6.552,2.736
		C219.168,311.3279,218.016,311.6159,216.864,311.904L216.864,311.904z M70.488,309.6c-0.504-0.504-5.76-2.448-9.144-4.32
		c-0.36-0.288-0.792-0.648-1.224-1.008c-0.576-0.864-1.224-1.8-1.872-2.736c-0.864-2.376-0.864-2.376-1.152-4.32
		c3.024-0.144,3.024-0.144,7.128,0.36c1.08,0.288,2.232,0.576,3.384,0.936c1.296,0.648,2.664,1.296,4.032,1.944
		c1.152,1.008,2.376,2.016,3.6,3.024c0.288,0.432,0.648,0.936,1.008,1.44c0.072,1.08,0.144,2.16,0.216,3.24
		c-1.08,0.144-2.232,0.288-3.384,0.432c-0.504,0.288-1.08,0.648-1.656,1.008C71.136,309.6,70.848,309.6,70.488,309.6L70.488,309.6z
		 M234.144,296.64c-0.36-0.576-0.36-0.576-1.368-6.12c-0.792-1.872-1.584-3.816-2.376-5.76c0.072-0.36,0.144-0.792,0.216-1.224
		c1.944-2.592,1.944-2.592,4.32-5.04c1.728-1.224,3.456-2.448,5.184-3.744c1.0081-1.44,1.0081-1.44,1.728-1.872
		c0.216,0,0.432,0,0.72,0c0.792,2.304,0.792,2.304,2.016,7.776c0.072,2.232,0.144,4.464,0.216,6.768
		c-0.144,0.72-0.288,1.44-0.504,2.16c-0.576,0.936-1.224,1.872-1.872,2.88c-0.72,0.72-1.512,1.44-2.304,2.16
		c-0.864,0.432-1.728,0.864-2.592,1.296C236.448,296.136,235.296,296.352,234.144,296.64L234.144,296.64z M64.008,295.632
		c-2.952-0.288-5.904-0.576-8.928-0.936c-1.872-0.936-1.872-0.936-5.976-3.816c-3.744-4.896-3.744-4.896-4.248-6.12
		c-0.072-0.936-0.144-1.872-0.216-2.88c0.936,0,1.872-0.072,2.808-0.144c1.728,0.288,3.456,0.576,5.256,0.936
		c1.584,0.648,3.168,1.296,4.824,1.944c0.864,0.648,1.728,1.296,2.592,1.944c0.648,0.864,1.296,1.8,1.944,2.736
		c0.144,0.576,0.36,1.152,0.576,1.728c0.504,0.36,1.08,0.72,1.656,1.152c0.288,0.72,0.648,1.44,1.008,2.16
		c0,0.432-0.072,0.864-0.144,1.296C64.8,295.632,64.44,295.632,64.008,295.632L64.008,295.632z M95.688,294.912
		c-1.512-0.792-3.024-1.584-4.608-2.376c-0.864-0.648-1.728-1.296-2.592-1.944c-2.016-0.936-4.032-1.872-6.048-2.88
		c-1.872-0.36-3.816-0.72-5.76-1.152c-1.728,0.072-3.456,0.144-5.256,0.216c-4.536,0.936-4.536,0.936-5.544,1.44
		c-0.504,0-1.08,0-1.656,0c-0.936-1.08-1.872-2.232-2.88-3.384c-1.512-1.08-3.024-2.16-4.536-3.312
		c-1.872-5.184-1.872-5.184-2.808-7.056c-0.648-0.792-1.296-1.584-1.944-2.448c-0.792-0.576-1.584-1.224-2.376-1.872
		c-1.512-0.72-3.096-1.512-4.68-2.304c-0.36-0.576-0.36-0.576-1.296-6.336c-0.648-1.656-1.296-3.312-1.944-5.04
		c-1.224-1.584-2.52-3.168-3.816-4.824c-2.664-2.16-2.664-2.16-3.384-3.096c-0.072-1.512-0.144-3.024-0.216-4.608
		c-1.44-4.536-1.44-4.536-2.448-6.696c-0.576-0.864-1.224-1.728-1.872-2.664c-0.36-0.288-0.792-0.576-1.224-0.936
		c-0.288-0.504-0.576-1.08-0.936-1.656c0.72-4.32,0.72-4.32,0.72-6.048c-0.288-0.72-0.288-0.72-0.504-5.04
		c0.72,0,1.512-0.0721,2.304-0.144c8.136,1.728,8.136,1.728,8.424,2.088c-0.936,1.152-1.872,2.376-2.88,3.6
		c0,0.432-0.072,0.936-0.144,1.44c0.144,0.144,0.36,0.288,0.576,0.504c2.448-0.864,2.448-0.864,8.424-4.032
		c1.44,0,1.44,0,5.256,1.008c1.08,0.432,2.232,0.936,3.384,1.44c1.512,0.288,3.024,0.576,4.536,0.936
		c2.16,0.936,2.16,0.936,8.208,2.808c0.072,1.656,0.072,1.656,0.432,2.016c1.008,0,2.16-0.504,3.888-0.72
		c0.72,0.288,1.44,0.576,2.16,0.936c0.576,0.072,1.224,0.144,1.872,0.216c1.44,1.008,4.104,1.944,5.76,2.88
		c3.168,1.008,6.984,2.88,9.864,3.888c7.704,3.816,8.136,4.32,10.584,5.256c1.152,0.648,2.376,1.296,3.6,1.944
		c5.976,4.176,11.952,8.424,18,12.672c0.288,0.36,0.576,0.792,0.936,1.224c3.096,2.592,6.192,5.184,9.36,7.776
		c3.024,3.528,6.12,7.056,9.216,10.584c-0.072,0.288-0.144,0.648-0.216,1.008c-1.08,0.072-1.08,0.072-4.176-0.432
		c-3.168-1.872-6.408-3.816-9.648-5.76c-2.664-1.224-5.4-2.52-8.136-3.816c-2.16-0.432-4.32-0.936-6.48-1.44
		c-2.232,0.072-4.464,0.144-6.696,0.216c-2.016,0.288-4.032,0.648-6.048,1.008c-5.472,2.88-5.472,2.88-7.92,3.816
		c-0.576,0.432-1.152,0.864-1.8,1.368c-0.072,0.36-0.144,0.72-0.216,1.152c0.36,0.36,0.36,0.36,4.464,1.296
		c1.728,0.936,3.456,1.872,5.256,2.88c0.576,1.008,1.152,2.016,1.8,3.024c0.288,1.296,0.576,2.592,0.936,3.888
		c-0.072,0.864-0.144,1.728-0.216,2.592c-0.288,1.008-0.648,2.088-1.008,3.168c-0.432,0.4319-0.864,0.864-1.296,1.296
		C98.568,294.912,98.568,294.912,95.688,294.912L95.688,294.912z M247.104,280.872c-1.008-3.528-2.016-7.128-3.024-10.728
		c0-1.08,0-2.232,0-3.384c0.648-1.944,1.296-3.96,1.944-5.976c1.512-1.728,1.512-1.728,2.376-2.16
		c0.288-0.648,0.576-1.2961,0.936-1.944c0.504-0.2881,1.008-0.576,1.584-0.864c0.576-0.072,1.152-0.144,1.728-0.216
		c1.872,2.952,3.168,5.616,3.672,6.12c0.432,1.44,0.936,2.88,1.44,4.32c0,1.008,0,2.016,0,3.096c-2.88,6.264-2.88,6.264-3.816,7.704
		c-1.944,1.944-1.944,1.944-3.888,3.3839C247.824,281.016,247.824,281.016,247.104,280.872L247.104,280.872z M49.824,280.8
		c-0.216-0.36-0.216-0.36-3.384-1.008c-0.792,0-1.584,0-2.376,0c-0.216,0.144-0.432,0.288-0.72,0.504
		c-0.36-0.072-0.792-0.144-1.224-0.216c-5.76-3.384-6.192-3.888-7.2-4.32c-0.72-0.648-1.44-1.296-2.16-1.944
		c-1.8-2.952-1.8-2.952-2.304-4.392c0-0.576,0-1.152,0-1.728c1.008-1.872,1.008-1.872,1.584-2.304c0.648,0,1.296,0,1.944,0
		c1.224,0.2881,2.52,0.648,3.816,1.0081c7.488,3.816,7.488,3.816,9.864,4.752c0.864,0.648,1.728,1.296,2.664,1.944
		c1.872,2.376,1.872,2.376,2.736,3.96c0.216,1.152,0.432,2.376,0.72,3.6C53.424,280.944,53.424,280.944,49.824,280.8L49.824,280.8z
		 M193.32,277.416c-2.232-0.288-4.464-0.576-6.696-0.936c-2.088-0.648-4.176-1.296-6.2639-1.944
		c-1.296-0.648-2.664-1.296-4.032-1.944c-2.016-1.224-4.032-2.52-6.048-3.816c-2.16-1.944-2.16-1.944-7.2-5.76
		c-0.936-1.224-0.936-1.224-3.312-3.096c-2.736-1.08-5.472-2.232-8.208-3.384c-8.352-0.936-8.352-0.936-10.08-1.44
		c-0.288-0.216-0.576-0.504-0.864-0.792c0-0.216,0-0.432-0.072-0.72c3.096,0.072,3.816,0.288,7.416,0.288
		c4.104,0.504,4.104,0.504,7.92,0.504c3.168,0.936,12.744,4.824,28.584,10.584c3.384,1.8719,4.536,2.88,5.544,3.312
		c0.432,0.504,3.096,1.44,6.696,3.384c4.32,3.384,4.32,3.384,4.824,4.176c-0.144,0.216-0.288,0.432-0.504,0.648
		C196.704,277.2,196.704,277.2,193.32,277.416L193.32,277.416z M201.96,272.592c-1.584-1.008-3.24-2.088-4.896-3.168
		c-0.072-6.12-0.144-12.312-0.288-18.504c0.144-3.096,0.288-6.192,0.504-9.36c-0.144-3.312-0.288-6.696-0.504-10.08
		c0.216-0.072,0.432-0.216,0.648-0.36c1.368,0.072,2.736,0.144,4.104,0.216c1.296,31.824,1.296,31.824,1.296,40.968
		C202.176,272.736,202.176,272.736,201.96,272.592L201.96,272.592z M220.248,269.424c-0.144-6.984-0.144-6.984,0.216-12.672
		c0.36,0,0.792,0,1.224,0c0.9359,0.648,1.8719,1.368,2.88,2.088c0.072,0.216,0.144,0.432,0.288,0.72
		c-0.144,1.872-0.288,3.816-0.432,5.76c-0.936,1.08-1.872,2.232-2.88,3.384C221.112,268.92,220.68,269.136,220.248,269.424
		L220.248,269.424z M241.128,268.776c-1.368-0.648-2.736-1.296-4.104-1.944c-8.64-2.88-8.64-2.88-9.864-2.952
		c0-1.44,0.072-2.88,0.144-4.32c-0.288-0.792-0.648-1.584-1.008-2.376c-2.0161-1.944-2.0161-1.944-3.6721-2.88
		c-1.368-0.432-2.736-0.864-4.104-1.368c0-0.216-0.072-0.504-0.144-0.792c0.144-0.144,0.288-0.288,0.432-0.432
		c2.88-0.432,2.88-0.432,3.816-0.936c2.2321-0.072,4.464-0.144,6.696-0.216c2.592,0.576,5.256,1.224,7.92,1.872
		c6.984,3.888,6.984,3.888,8.064,4.752c0,0.72,0,0.72-1.944,4.752c-0.432,2.088-0.936,4.176-1.44,6.264
		C241.344,268.92,241.344,268.92,241.128,268.776L241.128,268.776z M134.784,267.336c-1.44-0.936-1.44-0.936-4.104-3.384
		c-0.144-0.792,0.144-1.296,0.144-3.168c-1.008-9.648-1.44-17.064-2.448-25.92c0-0.576,0.072-1.224,0.144-1.872
		c1.44-0.072,2.88-0.144,4.32-0.216c0.576,0.864,0.576,0.864,0.864,2.304c0,1.872,0,3.816,0,5.76
		c0.216,2.088,0.432,4.176,0.72,6.2639c0,1.2961-0.072,2.592-0.144,3.888c-0.864,0.144-1.728,0.288-2.592,0.504
		c-0.144,0.144-0.2881,0.36-0.504,0.576c0,0.504-0.0721,1.008-0.144,1.512c1.584,0.792,1.584,0.792,3.528,1.296
		c0.144,0.504,0.36,1.008,0.576,1.584c0.072,3.6,0.216,7.2,0.36,10.872C135.288,267.336,135.072,267.336,134.784,267.336
		L134.784,267.336z M41.4,266.1119c-0.576-0.288-1.224-0.576-1.872-0.936c-2.304-0.648-4.608-1.296-6.984-1.944
		c-1.44-1.08-1.44-1.08-9.144-9.36c-0.576-0.72-1.152-1.44-1.8-2.232c-1.224-3.096-1.224-3.096-1.224-4.104
		c0.216-0.36,0.432-0.72,0.648-1.152c0.72,0,1.44-0.072,2.16-0.144c1.728,0.576,3.456,1.224,5.256,1.8719
		c2.016,0.936,4.032,1.872,6.048,2.88c2.592,2.16,2.592,2.16,4.536,4.32c0.576,1.008,1.152,2.016,1.8,3.024
		c0.936,3.6,0.936,3.6,1.44,6.984c0,0.216-0.072,0.504-0.144,0.792C41.904,266.1119,41.688,266.1119,41.4,266.1119L41.4,266.1119z
		 M258.624,261.432c-1.8-3.312-1.8-3.312-4.248-6.912c-0.144-0.72-0.288-1.44-0.432-2.16c-0.216-0.288-0.432-0.576-0.72-0.936
		c-0.072-0.864-0.144-1.728-0.288-2.664c1.944-5.976,1.944-5.976,2.88-7.704c0.288-0.288,0.648-0.576,1.008-0.936
		c1.872-3.384,2.88-4.536,3.744-6.264c0.36,0.072,0.72,0.216,1.152,0.36c1.224,1.8,2.448,3.6,3.744,5.4
		c0.576,1.152,1.224,2.376,1.872,3.6c0.288,1.008,0.648,2.088,1.008,3.168c-0.2159,1.944-0.4319,3.9601-0.72,5.976
		c-0.288,0.792-0.6479,1.584-1.008,2.376c-0.576,0.792-1.224,1.584-1.872,2.448c-1.584,1.44-3.168,2.88-4.824,4.32
		C259.488,261.504,259.056,261.504,258.624,261.432L258.624,261.432z M177.768,260.352c-1.296-0.576-2.664-1.152-4.032-1.728
		c-0.216-5.04-0.432-10.08-0.72-15.12c0.504-9.864,0.504-9.864,0.36-11.52c1.728,0,3.528-0.072,5.328-0.144
		c0.072,0.144,0.216,0.36,0.36,0.576c0.432,17.064,0.72,19.944,0.72,27.648C179.424,260.352,179.424,260.352,177.768,260.352
		L177.768,260.352z M157.104,252.432c-0.936-0.216-1.872-0.504-2.808-0.792c-0.576-6.552-1.152-13.104-1.728-19.656
		c1.44,0.072,2.88,0.144,4.392,0.216c0.504,6.696,1.08,13.392,1.656,20.16C158.112,252.36,157.608,252.36,157.104,252.432
		L157.104,252.432z M244.44,251.28c-0.288-0.36-0.576-0.72-0.864-1.08c-0.144-0.72-0.288-1.44-0.432-2.16
		c0-8.136,0-8.136-0.36-16.344c0.72,0,1.44,0,2.16,0c0.792,12.024,0.792,12.024,1.08,13.248c0,1.8,0,3.6,0,5.472
		c-0.144,0.216-0.288,0.432-0.504,0.72C245.16,251.136,244.8,251.208,244.44,251.28L244.44,251.28z M113.4,250.272
		c-1.1519-0.432-1.1519-0.432-5.904-3.672c-0.072-4.32-0.144-8.64-0.216-12.96c1.08-0.36,1.08-0.36,4.68-0.648
		c0.288,0.072,0.648,0.216,1.008,0.36c0.288,9.432,0.288,9.432,1.008,16.848C113.616,250.416,113.616,250.416,113.4,250.272
		L113.4,250.272z M219.744,248.1119c-0.072-1.44-0.216-2.88-0.36-4.392c0.432-10.8,0.432-10.8,0.792-12.24
		c0.936,0,1.944-0.072,2.952-0.144c0.144,0.936,0.36,1.872,0.576,2.808c0,7.416,0,7.416-0.504,12.96
		c-0.36,0.216-0.72,0.504-1.08,0.7921C221.328,247.968,220.536,248.0399,219.744,248.1119L219.744,248.1119z M31.104,247.3919
		c-7.704-2.88-7.704-2.88-9.864-3.312c-1.296-1.296-2.664-2.592-4.032-3.888c-0.936-1.584-1.872-3.24-2.808-4.896
		c-0.36-1.152-0.792-2.376-1.224-3.6c0-3.096,0-3.096,0.432-4.536c0.432,0,0.936,0,1.44,0.072c3.24,1.872,6.48,3.816,9.792,5.76
		c3.888,3.168,3.888,3.168,4.824,4.248c0.576,1.224,1.152,2.52,1.8,3.816c0.72,3.384,0.72,3.384,0.72,5.76
		c-0.072,0.144-0.216,0.36-0.36,0.576C31.608,247.3919,31.392,247.3919,31.104,247.3919L31.104,247.3919z M267.984,239.472
		c-0.504-0.432-1.368-2.232-5.184-7.272c-0.432-0.432-0.936-0.936-1.44-1.44c-0.504-3.096-0.504-3.096-0.504-5.76
		c0.144-1.008,0.288-2.016,0.504-3.096c0.936-2.16,0.936-2.16,2.88-5.328c0.36-0.36,0.72-0.72,1.08-1.152
		c0.288,0,0.648-0.072,1.008-0.144c1.944,1.872,3.96,3.816,5.976,5.76c0.288,0.432,0.576,0.936,0.936,1.44
		c0.288,1.008,0.576,2.016,0.864,3.024c-0.216,1.656-0.432,3.312-0.72,5.04c-0.648,1.512-1.296,3.024-1.944,4.536
		c-0.864,1.44-1.8,2.88-2.736,4.392C268.488,239.472,268.272,239.472,267.984,239.472L267.984,239.472z M77.184,232.056
		c-1.368-0.504-2.736-1.008-4.104-1.512c0-0.216-0.072-0.432-0.144-0.72c7.128-3.744,7.128-3.744,15.552-7.632
		c2.952-0.936,5.904-1.872,8.856-2.88c1.224-0.216,2.52-0.432,3.816-0.72c1.728,0,3.528,0,5.328,0
		c2.592,1.008,3.816,1.944,8.856,3.888c1.224,0.576,2.52,1.224,3.816,1.872c3.168,2.448,3.6,3.168,4.176,3.528
		c0,0.504,0,1.08,0,1.656c-0.216,0.432-0.504,0.864-0.792,1.296c-7.704,0.144-15.48,0.2881-23.256,0.504
		c-2.304,0.216-4.608,0.432-6.984,0.72C80.064,231.84,80.064,231.84,77.184,232.056L77.184,232.056z M24.84,230.8319
		c-6.48-3.816-6.48-3.816-10.584-5.832c-0.36-0.648-0.72-1.296-1.152-1.944c-2.088-2.16-2.088-2.16-3.96-4.752
		c-0.36-0.936-0.792-1.872-1.224-2.88c0.216-4.104,0.216-4.104,0.648-5.328c1.008,0.072,2.016,0.216,3.096,0.36
		c3.816,1.944,3.816,1.944,8.424,3.816c1.152,1.08,1.656,1.944,4.32,4.104c0.288,0.432,0.576,0.864,0.936,1.296
		c0.36,1.512,0.72,3.024,1.08,4.608c0,1.44,0,2.88,0,4.32c-0.288,0.72-0.576,1.44-0.864,2.232
		C25.344,230.8319,25.128,230.8319,24.84,230.8319L24.84,230.8319z M128.52,230.8319c-0.72-0.144-1.44-0.36-2.16-0.576
		c0.288-1.44,0.648-2.88,1.008-4.32c0.288,0.072,0.576,0.144,0.936,0.216c1.296,2.952,1.296,2.952,1.512,4.392
		C129.384,230.616,128.952,230.688,128.52,230.8319L128.52,230.8319z M133.344,230.4c-1.944-3.024-1.944-3.024-2.808-4.896
		c-0.288-1.368-0.576-2.736-0.936-4.104c0.072-1.44,0.144-2.88,0.216-4.32c0.288-0.936,0.648-1.872,1.008-2.88
		c2.376-11.304,2.376-11.304,3.816-16.56c0.288-0.72,0.576-1.44,0.936-2.16c2.52-3.816,5.112-7.632,7.704-11.52
		c2.808-3.528,5.688-7.128,8.568-10.728c0.432,0,0.864,0.072,1.296,0.144c0.72,17.568,0.72,17.568,0.936,31.464
		c-0.216,6.2639-0.216,6.2639-0.504,7.416c0.072,2.16,0.144,4.32,0.288,6.48c-0.072,0.072-0.216,0.144-0.36,0.288
		c-0.288-0.216-0.648-0.432-1.008-0.72c0.072,0.576,0.216,1.224,0.36,1.872c0.288,0.4319,0.648,0.9359,1.008,1.44
		c0.432,3.888,0.432,3.888,0.36,8.064C147.312,229.896,140.328,230.1119,133.344,230.4L133.344,230.4z M170.28,229.68
		c-0.72,0-1.44-0.0721-2.16-0.144c0.0721-0.288,0.144-0.576,0.216-0.936c3.024-1.872,6.048-3.744,9.144-5.688
		c1.44-0.216,1.44-0.216,13.464-0.432c2.304-0.288,4.608-0.648,6.984-1.008c7.416-1.872,7.416-1.872,9.792-2.88
		c3.168-0.936,5.328-1.872,12.024-3.816c2.16-0.792,4.32-1.584,6.48-2.376c8.856-1.944,8.856-1.944,10.584-2.664
		c7.632,0.216,7.632,0.216,13.176,0.72c5.04,0.9359,5.04,0.9359,5.76,1.368c0,0.216,0,0.432,0.072,0.72
		c-4.752,3.816-10.512,7.632-21.96,16.272c-7.632,0.144-8.352,0.36-27.288,0.576c-3.528-0.072-7.056-0.144-10.584-0.2159
		C180.864,229.68,180.864,229.68,170.28,229.68L170.28,229.68z M240.84,229.3919c-0.216,0-0.4319,0-0.72-0.072
		c0.0721-0.36,0.216-0.792,0.36-1.224c3.96-3.168,7.992-6.336,12.024-9.576c3.024-1.944,6.12-3.888,9.216-5.904
		c0.648-0.648,1.2961-1.296,1.944-1.944c0.216,0,0.504,0.072,0.792,0.144c0.072,0.432,0.144,0.936,0.288,1.44
		c-0.144,0.432-0.288,0.936-0.504,1.44c-0.648,0.792-1.296,1.584-1.944,2.448c-0.936,1.8-1.872,3.6-2.88,5.472
		c-0.144,2.16-0.288,4.32-0.432,6.48c-4.176,0.432-8.352,0.864-12.6,1.296C244.584,229.3919,242.712,229.3919,240.84,229.3919
		L240.84,229.3919z M66.888,228.672c-2.448-0.936-6.264-1.872-8.64-2.88c-1.44-0.288-2.88-0.576-4.32-0.936
		c-3.384-1.44-3.384-1.44-4.32-1.512c0.072-0.36,0.144-0.792,0.288-1.224c3.528-1.872,7.128-3.744,10.728-5.688
		c2.88-0.936,2.88-0.936,8.856-3.816c2.808-0.792,5.616-1.584,8.424-2.376c3.024-0.0721,6.048-0.216,9.144-0.36
		c-0.144,0.36-0.288,0.792-0.432,1.224c-5.976,5.832-12.024,11.664-18.072,17.568C68.04,228.672,67.464,228.672,66.888,228.672
		L66.888,228.672z M160.2,228.5999c3.24-7.2,3.24-7.2,7.056-17.28c0.648-1.944,1.296-3.96,1.944-5.976
		c3.816-9.144,3.816-9.144,6.696-16.848c3.888-12.96,4.32-15.552,6.264-21.096c2.232-5.04,4.464-10.08,6.696-15.12
		c1.944-5.544,1.944-5.544,3.888-10.08c1.872-3.6,1.872-3.6,4.752-10.584c0.648-1.08,1.296-2.16,1.944-3.312
		c0.288-0.864,0.576-1.728,0.936-2.664c2.88-4.824,3.384-6.264,3.744-6.624c0.216,0,0.432,0,0.72-0.072
		c1.8,9.0721,2.7361,12.24,3.744,17.496c0,0.648,0,1.2961,0,1.944c-0.288,0.36-0.648,0.72-1.008,1.152
		c-0.936,3.168-0.936,3.168-3.816,10.8c-0.288,1.296-0.576,2.592-0.936,3.888c-1.008,1.656-2.88,6.912-3.888,8.856
		c-0.504,0.432-1.08,0.936-1.656,1.44c-1.224,3.672-2.52,7.344-3.816,11.016c-0.648,2.592-1.296,5.256-1.944,7.92
		c-1.944,4.32-1.944,4.32-2.376,6.264c-2.16,6.264-2.448,6.48-4.32,12.24c-0.576,0.936-1.152,1.872-1.728,2.88
		c-1.872,5.7599-1.872,5.7599-4.752,12.744c-0.288,0.504-0.648,1.08-1.008,1.656c-5.616,2.736-8.712,4.68-14.688,7.56
		C161.424,227.952,161.424,227.952,160.2,228.5999L160.2,228.5999z M158.04,223.56c-0.072-0.72-0.216-1.44-0.36-2.16
		c0.144-0.936,0.2881-1.872,0.504-2.88c-0.288-5.544-0.648-11.16-1.008-16.776c0-4.248,0-8.496,0-12.744
		c0.648-1.152,1.2961-2.376,1.944-3.6c1.944-5.76,1.944-5.76,4.824-12.744c1.872-3.8159,1.872-3.8159,3.816-8.64
		c7.704-15.12,7.704-15.12,9.144-17.496c0.288-1.152,0.576-2.376,0.936-3.6c1.08-1.44,11.7361-12.744,12.4561-13.176
		c3.888-4.608,3.888-4.608,8.352-9.072c0.216,0,0.432,0,0.72-0.072c-1.368,3.096-1.368,3.096-2.304,6.264
		c-1.944,3.6-2.448,4.032-4.32,8.136c-0.288,0.504-0.648,1.08-1.008,1.656c-0.576,2.0161-1.224,4.032-1.872,6.048
		c-3.888,8.856-3.888,8.856-9.648,23.472c-0.792,1.296-1.584,2.592-2.376,3.888c-1.224,4.392-2.52,8.784-3.816,13.176
		c-1.944,4.536-3.384,9.144-5.328,13.68c-1.872,5.256-3.816,9.36-5.76,15.336c-0.432,0.864-0.936,1.728-1.44,2.664
		c-0.936,3.096-1.872,5.04-2.88,8.424C158.472,223.416,158.256,223.488,158.04,223.56L158.04,223.56z M39.96,220.5359
		c-6.192-0.936-6.192-0.936-8.136-1.512c0-0.288-0.072-0.648-0.144-1.008c1.368-1.08,2.736-2.16,4.176-3.312
		c0.72-0.144,1.44-0.288,2.232-0.432c4.68-2.52,9.36-5.04,14.112-7.632c1.8-0.576,3.672-1.152,5.544-1.728
		c0.792,0,1.584,0.072,2.376,0.144c-0.576,0.72-1.224,1.512-1.872,2.304c-6.48,5.76-9.144,7.632-11.304,9.576
		c-1.44,0.936-1.44,0.936-4.536,3.6C41.616,220.5359,40.824,220.5359,39.96,220.5359L39.96,220.5359z M274.464,220.3199
		c-2.376-2.304-4.752-4.68-7.128-7.056c-0.288-1.584-0.576-3.168-0.936-4.824c0.072-1.944,0.144-3.96,0.216-5.976
		c1.08-1.944,1.08-1.944,1.728-2.448c0.0721-0.72,0.144-1.44,0.216-2.16c0.7921-0.576,1.584-1.224,2.376-1.872
		c0.432,0,0.864-0.072,1.368-0.144c0.72,0.576,1.44,1.224,2.16,1.872c1.944,2.664,4.32,5.04,5.112,6.408
		c-0.072,1.8-0.144,3.672-0.216,5.5439c-0.288,1.944-0.576,3.9601-0.936,5.976c-0.288,1.008-0.648,2.016-1.008,3.096
		c-0.576,0.504-1.152,1.008-1.728,1.584C275.328,220.3199,274.896,220.3199,274.464,220.3199L274.464,220.3199z M190.44,218.52
		c0-0.216,0.072-0.432,0.144-0.72c4.68-1.8,4.68-1.8,11.664-3.744c2.592-0.432,5.256-0.936,7.92-1.44
		c0.432,0,0.936,0.072,1.44,0.144c-0.432,0.36-0.936,0.72-1.44,1.08c-2.88,0.936-5.76,1.872-8.64,2.88
		C197.856,217.296,194.184,217.872,190.44,218.52L190.44,218.52z M26.784,217.44c-0.72-0.648-1.44-1.296-2.16-1.944
		c0-0.504-0.072-1.008-0.144-1.512c0.144-0.216,0.288-0.432,0.504-0.72c0.216-1.44,0.432-2.88,0.72-4.32
		c-0.432-1.872-0.936-3.816-1.44-5.7599c-0.432-1.008-0.936-2.088-1.44-3.168c-1.944-2.376-1.944-2.376-3.888-4.032
		c0.216-3.096,0.432-6.192,0.72-9.36c-0.072-1.08-0.144-2.2321-0.216-3.384c-0.36-1.08-0.792-2.232-1.224-3.384
		c0-1.656,0.288-2.376,0.504-11.952c-1.224-6.264-1.224-6.264-1.224-7.92c0.432-1.008,0.936-2.088,1.44-3.168
		c0.072-2.52,0.144-5.04,0.288-7.632c-0.36-2.232-0.792-4.464-1.224-6.768c1.224-1.152,1.224-1.152,3.096-4.032
		c1.008-2.664,1.008-2.664,1.44-5.0399c0-4.824,0-4.824-0.432-7.488c-0.504-1.44-0.504-1.44-0.504-2.592
		c0.936-1.44,0.936-1.44,1.944-2.448c1.872-4.032,1.872-4.032,3.312-7.92c0.144-1.224,0.288-2.52,0.432-3.816
		c0.576-0.072,1.224-0.216,1.872-0.36c1.44-0.648,2.88-1.296,4.32-1.944c3.6-0.936,3.6-0.936,11.808-2.376
		c2.16-1.008,2.16-1.008,3.096-1.008c0.504,0.2881,3.6,0.2881,4.104,0.504c0.936,0,1.872,0,2.88,0
		c0.864,0.432,1.728,0.936,2.592,1.44c0.72,0,1.44,0,2.16,0c0.792,0.2881,1.584,0.576,2.448,0.936c1.656,0,1.656,0,2.376-0.432
		c2.376-0.504,2.376-0.504,2.736-0.864c0.072-3.384,0.144-6.84,0.216-10.296c0.504-1.6561,1.008-2.376,1.44-4.104
		c0.504-0.4321,1.44-2.16,1.944-2.592c0.144-0.288,0.288-0.6481,0.504-1.0081c0.432-0.288,0.936-0.576,1.44-0.936
		c0.36-0.504,0.72-1.0801,1.08-1.656c2.52-1.944,2.52-1.944,4.68-4.32c0.288-0.648,0.576-1.296,0.936-1.944
		c0.648-0.7921,1.368-1.6561,2.088-2.52c1.152-0.504,1.152-0.504,3.6-2.664c0.792-0.864,1.584-1.728,2.376-2.6641
		c1.512,0,3.024,0,4.536,0c1.944-0.936,2.448-1.4399,3.6-1.6559c1.728,0.504,1.728,0.504,3.168,0.504
		c0.72-0.288,1.44-0.648,2.16-1.008c1.656-0.2161,1.656-0.2161,4.032,0c0.72,0.2879,1.44,0.6479,2.16,1.008
		c1.728,0,2.664-0.288,3.888-0.288c0.936,0.36,1.44,1.0079,2.376,1.4399c1.368,0,2.736,0,4.104,0
		c0.216-0.1439,0.432-0.2879,0.72-0.432c0.288-0.864,0.288-0.864,0.576-4.6799c-0.288-0.936-0.288-0.936-0.288-2.16
		c0.648-0.648,1.296-1.2961,1.944-1.944c0.072-1.152,0.144-2.376,0.216-3.6c0.144-0.216,0.288-0.4321,0.504-0.72
		c0.2881-1.6561,0.576-3.312,0.936-5.04c1.944-2.88,1.944-2.88,2.88-5.04c0.288-1.44,0.648-2.8801,1.008-4.3201
		c0.288-0.576,0.576-1.2239,0.936-1.872c0.936-0.936,1.872-1.8719,2.88-2.88c0.504-1.4399,0.504-1.4399,0.504-2.1599
		c-0.144-0.2161-0.36-0.432-0.576-0.648c-0.864,0.072-1.728,0.144-2.664,0.216c-1.368,1.08-2.736,2.232-4.104,3.384
		c-0.576,0.288-1.224,0.576-1.872,0.936c-2.232,2.592-4.464,5.2559-6.768,7.92c-0.864,3.0239-1.8,4.968-2.736,8.7839
		c-1.944,2.16-1.944,2.16-3.744,3.4561c-3.6-0.2161-6.192-0.72-10.512-0.72c-0.576,0.288-1.152,0.6479-1.728,1.008
		c-2.592,0.432-3.816,0.936-6.192,1.152c-0.432,0.144-0.936,0.288-1.44,0.504c-0.72,0.72-1.44,1.44-2.16,2.16
		c-1.152,0.648-2.376,1.296-3.6,1.944c-0.648,0.648-1.296,1.296-1.944,2.0161c-0.216,0.6479-0.432,1.296-0.72,2.016
		C78.12,70.056,78.12,70.056,73.8,72c-0.936,0.936-2.88,1.872-3.312,2.376c-0.576,0.072-1.152,0.144-1.728,0.216
		c-2.16,1.008-2.16,1.008-5.04,3.168c-0.432,0.648-0.864,1.296-1.296,2.016c-0.648,1.8-1.296,3.672-1.944,5.5441
		c-0.288,0.288-0.576,0.5759-0.936,0.9359c-0.432,1.08-0.936,2.2321-1.44,3.384c-0.072,1.296-0.216,2.592-0.36,3.96
		c-3.6,0.936-3.6,0.936-4.536,1.44c-0.648,0-1.296,0-1.944,0c-0.504,0.216-1.08,0.432-1.656,0.72c-2.448,0-2.448,0-5.04,0.432
		c-2.952,0.936-5.904,1.872-8.928,2.88c-0.936,1.0079-2.592,1.944-4.752,4.104c-0.36,0.504-0.792,1.08-1.224,1.656
		c-0.936,0.504-0.936,0.504-2.16,0.72c-0.072-0.216-0.216-0.504-0.36-0.792c0.072-0.36,0.144-0.792,0.216-1.224
		c1.584-1.2239,3.168-2.52,4.824-3.816c0.288-0.504,0.576-1.08,0.936-1.656c0.792-2.52,1.584-5.112,2.376-7.704
		c0.072-2.0881,0.144-4.176,0.288-6.264c2.16-1.872,2.16-1.872,4.032-4.032c1.944-2.88,1.944-2.88,3.888-6.48
		c0.576-1.512,1.224-3.0239,1.872-4.608c2.16-1.8719,2.16-1.8719,8.928-9.36c1.872-3.312,1.872-3.312,3.816-7.92
		c1.08-0.432,2.16-0.864,3.24-1.2961c0.864-0.6479,1.728-1.2959,2.664-1.9439c1.872-1.8721,3.816-3.816,5.76-5.76
		c1.368-0.432,2.736-0.936,4.104-1.4401c1.728-1.2239,3.456-2.52,5.256-3.8159c1.44-1.368,2.88-2.7361,4.32-4.1041
		c1.872-0.288,3.816-0.576,5.76-0.936c1.728-0.6479,3.456-1.2959,5.256-1.9439c1.008-0.648,2.088-1.296,3.168-1.9441
		c0.792-0.7199,1.584-1.4399,2.376-2.1599c0.864,0,1.728,0,2.664,0c1.944-0.432,3.96-0.936,5.976-1.44
		c2.88-1.872,2.88-1.872,3.6-2.592c1.8,0.144,3.672,0.288,5.544,0.4319c1.152-0.072,2.376-0.144,3.6-0.2159
		c1.224-0.648,2.52-1.296,3.816-1.944c0.72-0.5041,1.44-1.0801,2.16-1.656c2.664,0.216,3.096,0.504,8.856,0.72
		c1.728-0.288,3.528-0.5761,5.328-0.936c1.224-0.576,2.52-1.152,3.816-1.728c0.36,0,0.792,0,1.224,0
		c0.792,0.288,1.584,0.6479,2.376,1.008c1.656,0.072,3.312,0.1439,5.04,0.216c2.376-0.5041,2.376-0.5041,5.04-0.72
		c0.648,0.6479,1.296,1.296,1.944,1.944c0.864,0.432,1.728,0.936,2.592,1.4399c2.592,0.36,5.256,0.72,7.92,1.152
		c2.016-0.0721,4.032-0.144,6.048-0.216c0.288,0.504,0.576,1.08,0.936,1.656c4.32,2.88,4.32,2.88,5.256,3.888
		c0.864,0.288,1.728,0.576,2.664,0.936c3.816,0.504,3.816,0.504,8.64,0.72c0.792,0.7921,1.656,1.6561,2.52,2.5201
		c0,0.4319,0.072,0.936,0.144,1.4399c1.152,0.36,1.656,0.864,2.88,1.296c0.432,0.7201,0.432,0.7201,1.152,1.2241
		c0.576,0.072,1.152,0.144,1.728,0.2159c0.36,0.2161,0.72,0.4321,1.1519,0.7201c2.088,0.4319,4.1761,0.936,6.264,1.44
		c0.936,1.44,1.944,2.9519,2.952,4.4639c0.36,0.2161,0.792,0.4321,1.224,0.72c0.0721,0.2159,0.144,0.432,0.216,0.72
		c1.44,1.08,2.952,2.2321,4.464,3.384c2.16,0.864,4.32,1.7999,6.48,2.736c2.304,4.248,2.304,4.248,2.736,5.688
		c0.648,0.864,1.296,1.7281,1.944,2.592c-0.072,0.432-0.144,0.936-0.216,1.44c-0.864,0.072-1.8,0.216-2.736,0.36
		c-0.504,0.504-0.864,1.8-1.224,2.16c-0.648,0-1.296,0-1.944,0c-1.8,2.808-3.744,4.9681-5.184,7.3441
		c-0.072,0.504-0.144,1.008-0.288,1.512c-1.008-0.144-2.088-0.2881-3.168-0.432c-1.44-1.008-4.032-1.944-4.752-2.448
		c-0.936-0.2881-1.872-0.576-2.88-0.936c-6.984,0.2159-7.704,0.504-8.928,0.504c-0.72-0.2881-0.72-0.2881-2.592-0.2881
		c-0.36,0.432-0.792,0.864-1.224,1.368c0.504,0.36,1.08,0.7921,1.656,1.2241c0,0.36,0.072,0.7199,0.144,1.1519
		c-0.504,0.504-1.44,2.6641-2.448,3.888c-0.576,0.2161-1.152,0.504-1.728,0.7921c-2.16,2.016-3.168,3.6-3.888,4.104
		c-0.504,0-1.08,0-1.656,0c-0.936-0.432-1.872-0.936-2.88-1.44c-2.16,0-2.16,0-4.32-0.504c-0.936-0.504-0.936-0.504-2.88-0.72
		c-0.36,0.2881-0.792,0.576-1.224,0.936c-1.656-0.216-2.88-0.72-4.752-0.72c-1.728,0.504-1.728,0.504-2.088,0.864
		c0.072,0.4321,0.144,0.936,0.216,1.44c0.792,0.6481,1.584,1.296,2.448,1.944c3.744,1.296,4.176,1.8,5.184,2.232
		c0.936,0.144,1.872,0.288,2.88,0.504c0.936,0.864,1.872,1.728,2.88,2.664c0.504,0.144,1.08,0.288,1.656,0.432
		c0.432,0.576,0.936,1.1519,1.44,1.728c0.648,0.288,1.2961,0.576,1.944,0.936c1.512,1.584,3.024,3.168,4.536,4.824
		c0.648,0.072,1.296,0.144,1.944,0.216c1.152-0.504,1.152-0.504,1.512-1.08c0-0.936,0-1.872,0-2.88
		c0.504-0.36,1.08-0.72,1.656-1.152c0.072-1.008,0.144-2.088,0.288-3.168c0.504-0.504,1.08-1.08,1.656-1.6559
		c0.072-0.936,0.144-1.8721,0.216-2.88c0.792-0.648,1.584-1.296,2.448-1.944c0.144-0.432,0.288-0.936,0.432-1.44
		c1.44-1.152,1.44-1.152,2.448-2.376c2.016-0.864,2.016-0.864,3.456-1.08c0.936,0.576,1.872,1.2239,2.88,1.872
		c0.864,0.864,1.8,1.728,2.736,2.592c0.072,0.792,0.144,1.584,0.288,2.376c0.936,1.224,0.936,1.224,1.872,3.3839
		c0.648,0.504,1.368,1.0081,2.088,1.512c2.376,0.2161,2.376,0.2161,2.736-0.072c0-1.08,0-2.232,0-3.384
		c0.504-1.2239,0.504-1.2239,1.944-2.8799c0.144-0.7921,0.288-1.584,0.432-2.376c0.216-0.144,0.432-0.288,0.72-0.504
		c1.44-3.816,1.44-3.816,3.024-6.696c0.432-0.2881,0.936-0.576,1.44-0.864c0.072-0.504,0.216-1.008,0.36-1.584
		c1.944-3.096,1.944-3.096,3.816-5.256c0.864-0.576,1.728-1.152,2.592-1.8c0.504,0,1.08,0,1.656,0
		c1.512,0.72,3.096,1.512,4.68,2.304c0,1.296,0,2.664,0,4.0319c0.288,1.0081,0.576,2.0881,0.936,3.1681
		c1.368,1.8719,2.736,3.816,4.104,5.7599c1.152,1.224,2.376,2.52,3.6,3.816c0.2881,1.5839,0.576,3.168,0.936,4.8239
		c0.648,1.512,1.2961,3.024,1.944,4.5361c1.872,2.88,1.872,2.88,5.976,7.704c0.072,2.376,0.144,4.752,0.216,7.2
		c0.144,0.72,0.288,1.44,0.504,2.16c1.584,2.736,3.168,5.544,4.824,8.352c0,0.432,0,0.936,0,1.44
		c-0.216,0.648-0.432,1.2961-0.72,1.944c0.072,1.584,0.144,3.168,0.216,4.824c1.584,3.312,3.168,6.696,4.824,10.08
		c0,0.504,0,1.08,0,1.656c-0.504,0.936-0.504,0.936-1.008,4.104c0,0.792,0,1.584,0,2.376c0.216,0.216,0.432,0.432,0.648,0.72
		c-0.072,0.648-0.144,1.296-0.216,1.944c0.216-0.072,0.504-0.144,0.792-0.288c1.224-7.2,1.224-7.2,1.584-7.776
		c0.432,0.072,0.936,0.144,1.44,0.216c2.88,1.944,2.88,1.944,6.264,4.824c0.864,0.432,1.728,0.936,2.592,1.44
		c0.576,1.512,1.152,3.096,1.8,4.68c0.504,4.32,0.504,4.32,0.504,7.416c-0.144,0.792-0.288,1.584-0.504,2.448
		c-0.4319,0.72-0.864,1.44-1.296,2.232c-0.36,0-0.792,0-1.224,0c-1.584-1.08-3.168-2.232-4.752-3.384c-0.288,0-0.648,0-1.008-0.0721
		c-0.36-0.936-0.36-0.936-1.08-1.44c-0.936-2.664-0.936-2.664-1.44-3.384c0-0.36,0-0.72,0-1.152c-0.72-1.8-1.512-3.672-2.304-5.544
		c-0.072,0.936,0.144,1.44,0,2.376c-0.216-0.36-0.432-0.72-0.72-1.152c0.36,2.88,1.08,5.04,1.368,6.912
		c-1.224,1.224-1.224,1.224-2.16,2.664c-0.144,0.648-0.288,1.2961-0.504,1.944c-0.072,2.304-0.144,4.608-0.216,6.912
		c1.872,6.7679,1.872,6.7679,2.88,9.144c0,0.72,0,1.44,0,2.16c-1.008,1.44-1.44,2.88-2.448,4.536
		c-0.288,2.376-0.576,4.752-0.936,7.2c0.504,5.04,0.504,5.04,0.504,7.488c-1.008,0.936-1.008,0.936-2.304,2.952
		c-3.24,0.72-6.48,1.44-9.792,2.16c-2.448-1.944-2.448-1.944-10.8-9.936c-1.728-1.8-3.528-3.672-5.328-5.5439
		c-3.816-5.256-3.816-5.256-11.52-17.064c-5.76-10.296-5.76-10.296-9.576-16.2c-1.872-3.528-3.744-7.056-5.688-10.656
		c-0.936-3.816-2.88-9.36-4.752-15.84c-0.216-1.584-0.432-3.168-0.72-4.752c0-2.376,0-4.752,0-7.2
		c0.144-0.648,0.288-1.296,0.432-1.944c0.648-0.6481,1.296-1.2961,1.944-1.944c0.288-0.504,0.576-1.08,0.936-1.656
		c3.384-3.6,7.2-8.424,8.424-9.36c0.936-1.224,0.936-1.224,1.44-2.8801c0.648-0.6479,1.296-1.2959,1.944-1.944
		c0-1.152,0-1.152-0.36-1.5839c-0.4319,0-0.9359,0-1.44,0C216,96.48,210.816,101.16,205.56,105.84
		c-1.224,0.288-2.52,0.576-3.816,0.936c-1.152,0-2.376,0-3.6,0c-1.44-0.288-2.88-0.576-4.32-0.936
		c-4.104-1.944-7.416-3.888-11.304-5.7601c-1.08-0.7919-2.16-1.5839-3.312-2.4479c-3.888-1.872-3.888-1.872-7.2-3.816
		c-2.448-1.872-4.968-3.816-7.488-5.76c-2.16-2.16-2.16-2.16-3.6-3.0961c0-0.432-0.072-0.8639-0.144-1.2959
		c1.944-3.168,1.944-3.168,3.168-4.608c0-0.36-0.072-0.72-0.144-1.08c-0.504,0.072-1.08,0.144-1.656,0.216
		c-1.008,0.936-2.016,1.872-3.096,2.88c-0.216,0-0.432,0-0.648-0.072c-0.504-8.424-0.936-29.736-1.584-39.384
		c-0.576-0.432-1.224-0.864-1.872-1.296c-0.72,0-0.72,0-1.368,0.5759c-0.072,3.024-0.144,6.048-0.216,9.144
		c1.44,20.16,1.44,24.696,1.944,30.744c-0.288,1.584-0.648,3.168-1.008,4.752c-4.8961,5.184-9.864,10.368-14.832,15.624
		c-4.32,3.816-4.32,3.816-6.624,6.336c-0.216,0-0.4319,0.072-0.72,0.144c-0.36-1.944-0.36-1.944-0.36-6.696
		c0.216-0.216,0.432-0.4319,0.72-0.72c-0.072-1.08-0.144-2.2319-0.216-3.384c0.216-0.2159,0.432-0.4319,0.72-0.7199
		c0.144-0.504,0.288-1.08,0.432-1.6561c0.648-0.7919,1.296-1.5839,1.944-2.448c0.288-1.08,0.576-2.16,0.936-3.312
		c1.944-2.448,1.944-2.448,5.5439-6.0479c0-0.432,0-0.936,0-1.44c-0.864-0.72-0.864-0.72-1.8-1.0801
		c-3.096,0.2161-3.096,0.2161-5.76,0.72c-3.6,1.944-4.536,2.88-6.192,3.816c-1.872,3.744-1.872,3.744-3.6,6.264
		c-0.576,0.1439-1.152,0.288-1.728,0.504c-0.432,0.72-0.864,1.512-1.296,2.304c-0.792,0-1.656,0-2.52,0.072
		c-0.936-0.216-1.872-0.432-2.88-0.72c-0.216,0.144-0.432,0.288-0.72,0.504c-1.368,0.072-2.736,0.144-4.104,0.216
		c-0.288-0.216-0.576-0.432-0.936-0.72c-0.432,0-0.936,0-1.44,0c-0.432,0.504-0.936,1.08-1.44,1.6559
		c-0.72-0.2159-0.72-0.2159-2.376-1.8719c-0.36,0-0.792,0-1.224,0c-0.504,0.432-0.504,0.432-1.368,3.024
		c-0.576,0.288-0.576,0.288-4.392,0.792c-0.648,0.288-1.296,0.5759-1.944,0.936c-0.288,0.36-0.576,0.72-0.936,1.08
		c-0.072,0.7201-0.216,1.44-0.36,2.232c0.36,0.2881,0.36,0.2881,4.464,0.072c0.576,0.288,1.224,0.576,1.872,0.936
		c2.736-0.072,5.472-0.144,8.208-0.216c0.36-0.144,0.72-0.288,1.152-0.504c0.576,0,1.152,0,1.728,0
		c0.4319,0.216,0.936,0.4319,1.44,0.72c0.936,0,1.872,0,2.88,0c0.576,0.288,1.224,0.648,1.872,1.008
		c0.936,0.144,1.872,0.288,2.88,0.4319c2.088,1.2961,4.176,2.592,6.264,3.888c0.504,0.7201,0.504,0.7201,1.944,1.6561
		c0.288,0,0.576,0.072,0.936,0.144c-0.072,0.288-0.216,0.576-0.36,0.936c-1.512,1.368-3.024,2.736-4.608,4.104
		c-11.52,11.736-11.52,11.736-19.152,20.16c-2.376,2.88-4.752,5.76-7.2,8.64c-9.72,9.72-19.512,19.512-29.304,29.304
		c-0.576,0.216-1.152,0.504-1.8,0.792c-0.288,0.504-0.576,1.008-0.864,1.584c-4.032,3.816-5.976,6.264-7.92,8.136
		c-1.872,2.448-9.576,10.584-10.512,12.024c-2.16,1.944-2.16,1.944-6.048,6.48c-0.576,0.864-1.224,1.728-1.872,2.664
		c-0.72,0.576-1.44,1.224-2.16,1.872c-1.296,1.728-2.592,3.528-3.888,5.328c-1.944,2.0161-3.96,4.104-5.976,6.192
		C28.152,217.296,27.504,217.368,26.784,217.44L26.784,217.44z M182.088,216.864c0.216-1.008,0.504-2.088,0.792-3.168
		c4.824-12.672,4.824-12.672,5.256-14.616c1.872-4.464,3.816-8.928,5.7599-13.464c1.944-6.696,1.944-6.696,5.76-17.712
		c1.008-2.16,1.44-3.888,2.448-5.544c3.816-11.304,3.816-11.304,7.56-21.168c0.288,0,0.576,0,0.936,0
		c2.16,4.68,4.392,9.432,6.624,14.184c-0.864,2.16-1.728,4.32-2.664,6.48c-0.6479,2.448-1.296,4.968-1.944,7.488
		c-3.816,9.072-3.816,9.072-10.512,26.856c-0.288,0.432-0.648,0.936-1.008,1.44c-1.872,5.04-1.872,5.04-5.76,13.464
		c-0.288,0.432-0.576,0.936-0.936,1.44C184.68,216.216,184.68,216.216,182.088,216.864L182.088,216.864z M21.24,213.12
		c-3.96-1.7281-7.92-3.528-11.952-5.328c-3.888-5.256-3.888-5.256-4.752-7.056c-0.216-1.008-0.432-2.016-0.72-3.096
		c0-1.584,0-3.168,0-4.824c0.504-2.16,0.504-2.16,0.864-2.52c0.432,0.072,0.936,0.144,1.44,0.216
		c1.296,0.648,2.592,1.296,3.888,1.944c10.296,7.7039,10.296,7.7039,11.232,8.784c0.864,1.944,0.864,1.944,2.304,6.9839
		c0,0.792,0,1.584,0,2.376c-0.288,0.792-0.648,1.584-1.008,2.376C22.104,212.976,21.672,213.0479,21.24,213.12L21.24,213.12z
		 M199.08,210.5999c0.072-0.504,0.216-1.08,0.36-1.656c3.816-8.424,3.816-8.424,7.704-16.128c3.312-11.016,4.32-13.392,6.192-19.656
		c1.584-4.536,3.168-9.072,4.824-13.68c0.36,0,0.72-0.072,1.08-0.144c5.616,10.008,5.616,10.008,7.056,12.168
		c0,0.288,0,0.576,0,0.936c-0.288,0.288-0.576,0.576-0.936,0.936c-1.944,6.984-1.944,6.984-3.816,12.528
		c-0.504,0.72-1.944,5.976-2.448,6.912c-1.872,7.2-1.872,7.2-3.816,13.464c-0.36,0.36-0.72,0.72-1.08,1.08
		C209.16,208.44,204.12,209.52,199.08,210.5999L199.08,210.5999z M256.968,208.296c-3.528-0.72-7.128-1.44-10.728-2.232
		c0-0.216,0-0.432-0.072-0.72c1.872-0.144,5.04-1.152,7.632-1.368c2.664,2.376,2.664,2.376,3.888,3.96
		C257.4,208.296,257.4,208.296,256.968,208.296L256.968,208.296z M263.664,207.792c-0.864-0.648-1.728-1.296-2.664-2.016
		c-0.72-0.792-1.44-1.656-2.16-2.52c0-0.216-0.072-0.504-0.144-0.792c0.6479-0.432,0.6479-0.432,5.904-1.224
		c-0.072,2.16-0.216,4.32-0.36,6.48C263.88,207.936,263.88,207.936,263.664,207.792L263.664,207.792z M218.088,206.496
		c0.072-0.864,0.144-1.728,0.288-2.592c1.44-4.32,1.44-4.32,2.448-6.264c2.088-7.2,4.176-14.4,6.336-21.6
		c0.144-0.216,0.36-0.432,0.576-0.72c0.288,0,0.576-0.072,0.864-0.144c1.296,1.728,2.592,3.456,3.888,5.256
		c2.016,2.304,4.032,4.608,6.048,6.912c0,0.216,0,0.432,0,0.72c-0.288,0.288-0.576,0.576-0.936,0.936
		c-4.32,13.68-4.32,13.68-4.68,15.696C228.024,205.272,223.056,205.848,218.088,206.496L218.088,206.496z M236.808,203.976
		c0-0.792-0.072-1.656-0.144-2.52c0.936-4.032,1.44-5.256,1.872-7.92c0.432-1.224,0.864-2.52,1.368-3.816
		c0.216,0,0.432,0,0.72,0.072c5.976,7.2,8.136,9.288,9.72,11.232c0,0.216-0.072,0.504-0.144,0.792
		c-1.44,0.504-5.76,0.936-6.192,1.224C241.632,203.3279,239.256,203.616,236.808,203.976L236.808,203.976z M279.288,200.592
		c-4.104-5.04-4.104-5.04-5.328-5.976c-1.008-0.432-2.016-0.864-3.024-1.296c-0.216-1.08-0.432-2.232-0.72-3.384
		c0.72-7.632,0.72-7.632,1.224-9.576c0.36-0.648,0.72-1.296,1.08-1.944c0.36,0,0.792-0.072,1.224-0.144
		c2.592,2.088,5.184,4.248,7.776,6.408c0.504,1.656,0.504,1.656,1.656,9.864c-0.576,1.656-1.224,3.312-1.872,5.04
		c-0.36,0.288-0.72,0.576-1.08,0.936C279.936,200.52,279.648,200.52,279.288,200.592L279.288,200.592z M15.984,194.616
		c-2.376-1.584-4.752-3.168-7.2-4.824c-0.936-0.432-1.872-0.864-2.88-1.296c-0.072-0.504-0.216-1.08-0.36-1.656
		c-1.008-1.224-1.008-1.224-1.728-1.656c-0.576-0.936-1.224-1.872-1.872-2.88c0-1.152,0-2.376,0-3.6
		c0.288-1.008,0.576-2.088,0.936-3.168c0.432-0.72,0.936-1.44,1.44-2.16c0.36,0,0.72-0.072,1.08-0.144
		c1.368,0.648,2.736,1.296,4.104,1.944c1.8,1.224,3.672,2.52,5.544,3.816c0.576,0.864,1.152,1.728,1.728,2.592
		c0.288,1.008,0.648,2.016,1.008,3.096c-0.216,2.952-0.432,5.904-0.72,8.856c-0.504,1.008-0.504,1.008-0.864,1.224
		C16.128,194.7599,16.056,194.688,15.984,194.616L15.984,194.616z M280.44,181.4399c-1.944-1.728-3.96-3.456-5.976-5.184
		c-0.36-1.296-0.72-2.664-1.08-4.032c-0.288-0.648-0.648-1.296-1.008-1.944c-0.576-2.16-1.224-4.32-1.872-6.48
		c0-5.04,0-5.04,0.432-7.416c0.144-0.144,0.288-0.288,0.432-0.432c0.504,0,1.08,0,1.656,0c3.168,2.376,6.336,4.752,9.576,7.128
		c1.08,2.664,1.08,2.664,2.016,6.264c-0.144,2.448-0.288,4.896-0.432,7.416C280.656,181.584,280.656,181.584,280.44,181.4399
		L280.44,181.4399z M156.888,177.2639c-0.216-2.592-0.432-5.256-0.648-7.92c0.504-0.72,0.504-0.72,0.936-2.16
		c3.888-4.32,5.76-6.984,10.728-12.384c0.216,0,0.432,0,0.72,0.072c-1.224,2.808-2.448,5.616-3.744,8.424
		c-2.376,4.536-4.752,9.072-7.2,13.68C157.464,177.0479,157.176,177.12,156.888,177.2639L156.888,177.2639z M14.76,176.832
		c-5.256-3.816-5.256-3.816-8.136-5.4c-1.224-1.944-2.448-3.96-3.744-5.976c0-1.656,0-3.312,0-5.04
		c0.288-0.792,0.576-1.584,0.936-2.376c2.088-2.664,2.088-2.664,3.312-3.744c0.36,0.072,0.72,0.144,1.152,0.216
		c1.368,1.368,2.736,2.736,4.104,4.104c1.224,1.512,2.448,3.096,3.672,4.68c0.504,3.168,0.504,3.168,0.72,7.488
		c-0.144,1.872-0.288,3.816-0.432,5.76C15.984,176.832,15.984,176.832,14.76,176.832L14.76,176.832z M125.64,175.3919
		c-0.072-0.144-0.216-0.36-0.36-0.576c0.072-3.96,0.144-7.92,0.216-11.952c0.432-2.088,0.936-4.176,1.44-6.264
		c0.648-0.936,1.296-1.872,1.944-2.88c1.44-1.44,2.88-2.88,4.32-4.32c2.664-1.944,3.096-2.664,8.136-6.48
		c1.728-0.936,1.728-0.936,4.248-2.88c3.96-3.6,3.96-3.6,6.984-5.904c0.216,0,0.432,0,0.72-0.072c0.072,5.4,0.144,10.8,0.288,16.272
		c-1.656,1.296-3.312,2.592-5.04,3.888c-4.032,3.816-4.032,3.816-8.64,7.632c-3.816,4.104-10.152,9.864-13.5359,13.536
		C126.144,175.3919,125.928,175.3919,125.64,175.3919L125.64,175.3919z M14.544,158.4c-1.224-1.368-2.52-2.7361-3.816-4.104
		c-0.792-0.648-1.584-1.296-2.448-1.944c-0.72-2.016-1.512-4.032-2.304-6.048c-0.144-1.296-0.288-2.592-0.432-3.888
		c0.216-2.88,0.216-2.88,1.152-7.632c0.36-0.288,0.72-0.648,1.08-1.008c0.648,0,1.296-0.072,1.944-0.144
		c1.656,1.728,3.312,3.456,5.04,5.184c0.36,1.008,0.36,1.008,0.576,3.6c0.504,0.72,0.504,0.72,1.728,6.264
		c-0.072,2.592-0.144,5.256-0.288,7.92c-0.432,0.576-0.864,1.152-1.296,1.8C15.192,158.4,14.904,158.4,14.544,158.4L14.544,158.4z
		 M159.264,145.08c0.216-1.08,0.504-2.232,0.792-3.384c1.872-4.752,3.816-9.576,5.76-14.4c0.648-1.152,1.296-2.376,1.944-3.6
		c3.816-9.792,4.824-11.736,6.696-16.992c1.944-3.384,1.944-3.384,2.88-5.544c0.36,0,0.72-0.072,1.152-0.144
		c4.752,1.944,4.752,1.944,8.352,3.816c0.864,0.576,1.8,1.224,2.7361,1.872c-0.072,0.504-0.144,1.08-0.216,1.656
		c-0.936,1.944-1.44,2.376-7.704,14.184c-0.432,1.44-0.936,2.16-1.152,3.096c-2.448,1.944-4.32,3.816-6.264,5.256
		c-1.44,1.512-2.88,3.024-4.32,4.608C166.392,138.672,162.864,141.84,159.264,145.08L159.264,145.08z M156.888,141.9839
		c0-2.376-0.072-4.752-0.144-7.2c0.144-1.584,0.288-3.168,0.432-4.824c1.584-1.224,3.168-2.5201,4.824-3.816
		c0.72-0.864,1.44-1.728,2.16-2.664c0-0.792,0-1.584,0-2.376c-0.36-0.288-0.72-0.648-1.08-1.008
		c-2.736,1.944-2.736,1.944-4.752,3.744c-0.288,0-0.648,0.072-1.008,0.144c0.36-16.128,0.36-16.128,0.144-19.728
		c0.72-0.792,1.44-1.584,2.16-2.376c3.816-8.64,3.816-8.64,4.68-10.008c0.288,0,0.576,0,0.936,0c2.16,1.728,5.328,3.6,9.36,6.7679
		c0,0.432,0.072,0.864,0.144,1.296c-3.168,7.56-6.408,15.192-9.648,22.824c-0.576,1.872-1.224,3.816-1.872,5.76
		c-1.872,4.392-3.816,8.784-5.76,13.176C157.32,141.768,157.104,141.84,156.888,141.9839L156.888,141.9839z M138.168,140.832
		c-0.288-0.216-0.576-0.504-0.864-0.792c-1.008-3.6-1.008-3.6-1.224-5.976c0.504-5.04,0.504-5.04,1.44-9.864
		c1.944-4.32,1.944-4.32,5.76-11.52c1.872-3.024,3.816-6.048,5.76-9.144c1.512-2.088,3.096-4.176,4.68-6.3359
		c0.216,0,0.432-0.072,0.72-0.144c0.144,4.968,0.36,9.936,0.576,14.904c-0.072,5.112-0.144,10.224-0.216,15.336
		c-4.896,4.464-9.792,9-14.76,13.536C139.464,140.832,138.816,140.832,138.168,140.832L138.168,140.832z M281.664,140.832
		c-3.096-2.16-6.192-4.32-9.36-6.552c-1.8-3.6-2.808-5.04-5.184-10.08c-0.072-1.44-0.144-2.88-0.216-4.32
		c0.288-0.576,0.576-1.152,0.864-1.8c2.592,0.216,2.592,0.216,6.192,1.152c1.008,0.4319,2.088,0.936,3.168,1.44
		c1.296,1.296,2.664,2.5919,4.032,3.8879c0.576,0.864,1.152,1.8,1.8,2.7361c0.36,1.8,0.792,3.672,1.224,5.544
		c-0.288,5.544-0.288,5.544-0.72,7.416c-0.072,0.144-0.216,0.36-0.36,0.576C282.672,140.832,282.168,140.832,281.664,140.832
		L281.664,140.832z M17.208,139.392c-5.76-6.696-5.76-6.696-7.704-9.576c-0.504-1.44-1.008-2.88-1.584-4.392c0-0.936,0-1.872,0-2.88
		c0.936-1.728,1.944-2.88,3.816-6.048c0.432-0.36,0.432-0.36,1.872-0.36c1.368,2.016,2.736,4.032,4.176,6.12
		c0,0.288,0,0.648,0,1.008c-0.144,0.144-0.288,0.288-0.504,0.432c0.072,0.288,0.144,0.648,0.216,1.008
		c0.936,0.792,1.872,1.584,2.88,2.376c0.288,1.44,0.288,1.44,0.288,4.536c-0.144,1.008-0.288,2.088-0.504,3.168
		c-0.432,1.152-0.936,2.376-1.44,3.6C17.424,139.5359,17.424,139.5359,17.208,139.392L17.208,139.392z M19.584,121.392
		c-1.44-1.944-2.88-3.96-4.32-5.976c-0.072-0.576-0.216-1.152-0.36-1.8c-0.288-0.36-0.648-0.72-1.008-1.152
		c-0.936-2.88-0.936-2.88-1.44-5.76c0-0.792,0-1.584,0-2.448c0.504-0.936,0.504-0.936,1.44-4.32c1.008-1.656,1.008-1.656,4.248-5.04
		c0.36-0.288,0.792-0.5759,1.224-0.864c0.36,0,0.72,0,1.152,0c0.288,0.4319,0.648,0.936,1.008,1.44
		c0.864,2.16,1.8,4.392,2.736,6.624c0.936,4.32,0.936,4.32,1.152,6.768c-0.144,1.224-0.288,2.52-0.432,3.816
		c-0.936,2.232-1.872,4.464-2.88,6.696c-0.576,0.648-1.152,1.296-1.8,2.016C20.088,121.392,19.872,121.392,19.584,121.392
		L19.584,121.392z M185.4,121.3199c0.864-2.376,0.864-2.376,5.6161-11.736c0.432-0.504,0.864-1.008,1.368-1.584
		c7.2,1.6559,7.2,1.6559,7.92,2.016c-1.008,1.008-2.016,2.016-3.096,3.024c-2.664,1.872-4.824,3.816-10.08,7.632
		C186.552,120.8879,185.976,121.1039,185.4,121.3199L185.4,121.3199z M279,119.736c-1.152-0.648-2.376-1.296-3.6-1.944
		c-2.016-0.576-4.104-1.224-6.192-1.872c-1.44-1.44-1.44-1.44-3.384-4.248c-1.944-3.6-1.944-3.6-3.024-6.192c0-1.44,0-2.88,0-4.32
		c0.144-0.36,0.36-0.792,0.576-1.224c0.504,0,1.008-0.072,1.512-0.144c1.872,0.504,1.872,0.504,5.976,0.72
		c0.72,0.504,4.536,5.7599,6.696,8.064c1.008,1.656,1.008,1.656,2.52,5.328c-0.216,4.536-0.216,4.536-0.504,5.76
		C279.216,119.88,279.216,119.88,279,119.736L279,119.736z M25.848,101.16c-1.584-3.384-3.168-6.84-4.752-10.296
		c0.288-3.168,0.288-3.168,0.72-5.04c1.944-4.1039,2.88-6.7679,3.888-8.64c1.224-1.152,2.448-2.304,3.744-3.528
		c0.432,0,0.936,0.072,1.44,0.144c0.864,2.808,1.8,5.616,2.736,8.424c0.144,1.296,0.288,2.664,0.432,4.0319
		c-0.072,1.08-0.144,2.2321-0.216,3.384c-0.288,1.368-0.576,2.736-0.936,4.104c-0.648,1.44-1.296,2.88-1.944,4.32
		c-1.368,1.008-2.736,2.088-4.176,3.168C26.496,101.232,26.208,101.232,25.848,101.16L25.848,101.16z M157.608,99.216
		c0-1.656-0.072-3.312-0.144-5.04c0.432-3.6,0.72-3.816,1.152-5.976c0.144-0.216,0.2881-0.432,0.504-0.72
		c0.2881,0,0.576-0.072,0.864-0.144c0.864,0.7921,1.8,1.6561,2.736,2.52c0,1.008,0,1.008-0.504,1.728
		c-0.216,0.144-0.432,0.2881-0.72,0.432c-2.16,4.1041-2.16,4.1041-3.096,6.48C158.184,98.7119,157.896,98.928,157.608,99.216
		L157.608,99.216z M272.088,98.856c-0.36-0.144-0.792-0.288-1.224-0.504c-2.592-0.288-5.256-0.576-7.92-0.936
		c-0.936-1.44-0.936-1.44-4.824-5.5439c-1.872-2.88-1.872-2.88-3.24-5.6161c0-0.9359,0-1.8719-0.072-2.8799
		c2.376,0.36,2.376,0.36,5.256,1.296c1.944,1.008,1.944,1.008,3.384,2.088c0.288,0.36,0.576,0.72,0.936,1.08
		c0.864,0.1441,1.728,0.2881,2.664,0.432c0.576,0.7921,1.224,1.584,1.872,2.4481c1.08,2.088,2.16,4.176,3.24,6.336
		C272.376,98.784,272.376,98.784,272.088,98.856L272.088,98.856z M264.888,84.9599c-1.152-0.6479-2.376-1.2959-3.6-1.944
		c-2.16-0.7919-4.32-1.5839-6.48-2.376c-2.448-2.16-2.448-2.16-6.264-6.264c-0.648-1.008-1.296-2.016-1.944-3.024
		c-0.432-1.008-0.864-2.0161-1.296-3.0961c0-0.792,0.072-1.5839,0.144-2.376c3.168-0.072,6.336-0.2159,9.576-0.36
		c0.4319,0.144,0.936,0.288,1.44,0.432c1.944,2.4479,3.96,4.968,5.976,7.488c0.576,1.368,1.152,2.736,1.8,4.176
		c1.224,5.76,1.224,5.76,1.224,7.2C265.104,85.104,265.104,85.104,264.888,84.9599L264.888,84.9599z M34.92,80.7119
		c-1.152-3.312-2.304-6.624-3.456-10.008c0-0.9359,0-1.8719,0-2.88c0.576-2.304,1.224-4.6079,1.872-6.984
		c0.648-1.0079,1.296-2.016,1.944-3.0959c1.152-1.368,2.376-2.736,3.6-4.104c1.584-0.144,1.584-0.144,2.664,0.216
		c0.936,2.88,0.936,2.88,1.44,5.5439c0,3.312,0,6.6961,0,10.0801c-0.936,2.16-1.872,4.32-2.88,6.4799
		C38.736,77.544,37.368,79.128,36,80.784C35.64,80.784,35.28,80.784,34.92,80.7119L34.92,80.7119z M45,65.736
		c-0.144-2.736-0.36-5.472-0.576-8.28c0.288-0.576,0.576-1.224,0.936-1.8721c0.504-0.288,1.008-0.5759,1.584-0.864
		c0.648-0.936,1.296-1.872,1.944-2.808c0.216-1.5121,0.432-3.024,0.72-4.536c-0.36-0.144-0.792-0.36-1.224-0.576
		c0-0.36-0.072-0.7201-0.144-1.08c0.288-1.0081,0.576-2.0161,0.936-3.096c1.224-1.08,2.448-2.2321,3.744-3.384
		c2.664-0.864,2.664-0.864,4.104-0.936c0.36,2.88,0.36,2.88,0.36,7.416c-0.144,1.152-0.288,2.376-0.504,3.6
		c-0.432,1.584-0.936,3.168-1.44,4.824c-0.648,1.08-1.296,2.16-1.944,3.312c-3.816,4.608-4.536,5.04-6.552,7.4879
		C45.72,65.736,45.72,65.736,45,65.736L45,65.736z M245.664,63.36c-0.432-0.144-0.936-0.288-1.44-0.504
		c-0.36-0.36-0.792-0.792-1.224-1.2241c-2.5919-0.9359-4.32-1.8719-7.416-2.8799c-0.432-0.288-0.936-0.576-1.44-0.936
		c-1.152-1.296-2.304-2.592-3.528-3.96c-0.288-0.792-0.576-1.584-0.936-2.376c0-0.36,0-0.792,0-1.2241
		c0.576-0.288,1.152-0.5759,1.8-0.864c1.584-0.2159,3.168-0.432,4.824-0.7199c3.6,0,6.264,0.504,8.136,0.504
		c1.08,0.6479,2.232,1.296,3.384,1.944c3.384,3.312,3.816,4.176,4.536,4.752c0.648,1.368,1.296,2.808,2.016,4.248
		c0,0.864,0,1.8-0.072,2.736C251.424,63,248.544,63.144,245.664,63.36L245.664,63.36z M59.184,48.816
		c0-3.816-0.072-7.632-0.144-11.52c0.288-0.576,0.576-1.224,0.936-1.8719c0.72-0.7201,1.44-1.44,2.16-2.16
		c3.024-1.8721,3.024-1.8721,6.192-3.312c0.864-0.072,1.728-0.144,2.592-0.288c-0.144,1.8-0.36,3.6-0.576,5.4719
		c-1.944,5.328-1.944,5.328-2.448,6.048c-0.216,0.144-0.432,0.288-0.72,0.432c-0.144,0.72-0.288,1.44-0.432,2.16
		c-4.608,3.8881-4.608,3.8881-5.904,4.6801C60.336,48.5279,59.76,48.672,59.184,48.816L59.184,48.816z M227.88,48.24
		c-0.144-0.144-0.288-0.288-0.432-0.504c-3.168-0.936-3.168-0.936-6.48-2.376c-0.864-0.6481-1.728-1.296-2.664-1.944
		c-2.376-2.664-2.376-2.664-3.6-3.672c0-0.6479-0.072-1.296-0.144-1.944c1.08-0.864,1.08-0.864,2.808-1.584
		c1.728-0.288,3.456-0.576,5.256-0.936c1.7281,0.072,3.456,0.144,5.256,0.216c0.288,0.144,0.648,0.288,1.008,0.504
		c0.288-0.144,0.576-0.2881,0.936-0.504c2.376,0.2159,2.376,0.2159,3.816,0.72c1.944,1.944,1.944,1.944,3.384,2.88
		c0.936,1.152,1.8719,2.3039,2.88,3.456c0.36,1.008,0.36,1.008,0.36,2.952c-0.288,0.72-0.288,0.72-0.864,1.0079
		c-2.16,0-2.16,0-8.136,1.0081C228.888,48.24,228.888,48.24,227.88,48.24L227.88,48.24z M70.704,40.176
		c0.432-1.656,0.864-3.312,1.296-5.04c0.288-2.376,0.576-4.752,0.936-7.2c3.888-4.5361,3.888-4.5361,6.048-6.48
		c0.648-0.432,1.296-0.864,2.016-1.296c2.016-0.2161,4.032-0.432,6.048-0.72c0,0.36,0,0.72,0.072,1.0799
		c-0.288,0.936-0.576,1.872-0.936,2.88C82.8,30.096,82.8,30.096,81.864,31.32c-0.36,0.216-0.792,0.4319-1.224,0.72
		c0,0.648,0,1.296,0,1.944c-0.792,0.7199-1.584,1.44-2.376,2.16c-1.872,1.224-3.744,2.448-5.616,3.672
		C72,39.888,71.352,40.032,70.704,40.176L70.704,40.176z M215.208,36c-0.36-0.36-0.792-0.7921-1.224-1.224c-0.432,0-0.936,0-1.44,0
		c-0.288,0.144-0.576,0.288-0.936,0.504c-1.8-0.216-3.672-0.432-5.544-0.72c-1.008-0.2881-2.016-0.648-3.096-1.008
		c-2.88-1.872-2.88-1.872-3.6-2.016c-0.288-1.152-0.648-1.44-1.152-2.88c0-0.216,0.072-0.432,0.144-0.72
		c1.296-0.576,2.592-1.152,3.888-1.8c1.944-0.504,3.96-1.08,5.976-1.6559c2.232,0,4.464,0,6.696,0c0.72,0.144,1.44,0.288,2.16,0.432
		c1.872,0.936,3.816,1.872,5.76,2.88c2.664,2.448,2.664,2.448,3.4561,3.528c0,0.72,0,0.72-0.432,1.224
		c-2.88,0.504-5.832,1.08-8.784,1.656c-0.144,0.2159-0.288,0.5039-0.432,0.792c-0.216,0-0.432,0.072-0.72,0.1439
		C215.64,35.856,215.64,35.856,215.208,36L215.208,36z M86.76,30.9599c-0.576-0.0719-1.152-0.2159-1.8-0.3599
		c0.216-1.224,0.216-1.224,4.104-10.0801c1.008-1.1519,2.016-2.376,3.096-3.5999c1.872-0.936,3.744-1.872,5.688-2.808
		c1.152-0.2881,2.376-0.576,3.6-0.936c1.872,0.2159,1.872,0.2159,2.16,0.576c-0.648,1.08-1.296,2.2321-1.944,3.384
		c-0.576,1.6561-1.152,3.312-1.8,5.04c-0.432,0.72-0.936,1.44-1.44,2.16c-0.144,0.6481-0.288,1.296-0.504,1.944
		c-2.664,1.944-2.664,1.944-4.176,2.736C91.44,29.664,89.136,30.312,86.76,30.9599L86.76,30.9599z M189.288,26.64
		c-1.368-0.288-2.736-0.6479-4.104-1.0081c-2.664-1.8719-2.664-1.8719-4.68-3.672c0-0.3599,0-0.7919,0-1.2239
		c6.84-3.816,6.84-3.816,9-4.68c1.368-0.288,2.736-0.576,4.104-0.936c0.936,0.072,1.872,0.144,2.88,0.2159
		c2.88,1.2241,5.76,2.52,8.64,3.816c1.44,0.9359,2.88,1.8719,4.32,2.88c-0.144,0.144-0.288,0.288-0.504,0.504
		c-1.512,0.2879-3.024,0.576-4.536,0.936c-2.808,1.008-5.616,2.088-8.424,3.168C193.752,26.64,191.52,26.64,189.288,26.64
		L189.288,26.64z M101.88,24.12c-0.072-0.144-0.216-0.2881-0.36-0.504c0.216-1.44,0.216-1.44,2.16-6.48
		c1.944-3.312,1.944-3.312,3.816-5.7599c1.8-1.224,3.6-2.52,5.4-3.816c0.648-0.216,1.2961-0.432,1.944-0.648
		c1.5121,0,3.024,0.072,4.608,0.144c-0.288,1.008-0.576,2.088-0.864,3.168c-3.888,5.76-3.888,5.76-6.624,9.216
		c-1.152,0.216-1.152,0.216-1.44,0.5759c0.072,0.2161,0.216,0.432,0.36,0.72c-0.072,0.288-0.144,0.648-0.216,1.008
		c-0.432,0.288-0.936,0.576-1.44,0.936c-1.512,0.504-3.096,1.008-4.68,1.512C103.68,24.192,102.816,24.192,101.88,24.12
		L101.88,24.12z M114.84,20.736c0.0721-0.864,0.216-1.728,0.36-2.592c1.224-1.728,2.52-3.528,3.816-5.3279
		c0.936-1.8,1.872-3.6,2.8799-5.472c2.088-1.9441,2.088-1.9441,3.528-2.88c1.728-0.432,3.456-0.864,5.256-1.368
		c1.2961,0.072,2.592,0.144,3.888,0.216c1.008,0.2159,2.016,0.4319,3.096,0.72c0.216,0.216,0.432,0.432,0.72,0.648
		c-1.8,2.88-1.8,2.88-4.68,6.2639c-0.576,0.2161-1.152,0.504-1.8,0.7921c-5.544,5.04-5.544,5.04-6.984,5.976
		c-0.072,0.36-0.216,0.7201-0.36,1.152c-0.36,0.288-0.72,0.576-1.08,0.936c-0.936,0.2159-1.872,0.504-2.88,0.792
		C118.728,20.592,116.784,20.664,114.84,20.736L114.84,20.736z M170.28,19.872c-1.8719-0.2881-3.816-0.576-5.76-0.936
		c-0.648-0.36-1.296-0.72-1.944-1.08c0-0.36,0-0.72-0.072-1.152c1.728-1.2239,3.456-2.448,5.184-3.744
		c0.792-0.2879,1.584-0.6479,2.376-1.0079c2.16-1.8721,2.16-1.8721,4.824-3.6c0.792-0.144,1.584-0.288,2.376-0.432
		c1.512,0.072,3.024,0.144,4.536,0.2159c1.368,0.6481,2.736,1.2961,4.104,1.944c0.792,0.5761,1.584,1.2241,2.376,1.8721
		c0.864,1.368,0.864,1.368,0.864,2.088c-2.736,1.368-5.472,2.736-8.28,4.176c-0.504,0.072-1.08,0.144-1.656,0.216
		c-0.576,0.288-1.152,0.6479-1.728,1.008C173.448,19.872,173.448,19.872,170.28,19.872L170.28,19.872z M134.784,17.496
		c-1.224-0.144-2.52-0.288-3.816-0.504c0-0.648-0.0721-1.296-0.144-2.0161c2.232-1.8719,2.232-1.8719,3.96-2.736
		c0.936-1.008,1.872-2.016,2.88-3.024c0.936-1.8,1.944-2.8801,3.384-5.184c1.44-0.432,2.88-0.936,4.32-1.44
		c5.04-0.72,5.04-0.72,7.92-0.72c0.216,0.0719,0.432,0.2159,0.72,0.36c0.072,0.2879,0.144,0.6479,0.288,1.008
		c0.72,0.072,1.44,0.144,2.1599,0.2159c-0.072,0.576-0.144,1.152-0.216,1.728c-0.936,1.44-0.936,1.44-1.944,2.376
		c-0.504,0.288-1.08,0.5759-1.656,0.936c-1.44,1.296-2.88,2.5919-4.32,3.888c-1.368,0.72-2.736,1.4399-4.176,2.232
		c-0.288,0.432-0.576,0.864-0.864,1.368c-1.512,0.792-1.512,0.792-3.96,1.296C137.808,17.352,136.296,17.424,134.784,17.496
		L134.784,17.496z M151.848,16.2719c-2.664-0.4319-2.664-0.4319-3.384-0.936c0-0.2159,0-0.504,0-0.7919
		c2.52-1.944,2.952-2.6641,7.992-6.48c1.008-1.224,1.008-1.224,1.944-3.168c1.0081-0.3599,2.0161-0.72,3.024-1.08
		c1.728-0.072,3.456-0.144,5.256-0.216c1.2961,0.288,2.592,0.576,3.888,0.936c0.36,0.504,0.72,1.008,1.152,1.584
		c-0.288,0.936-0.576,1.872-0.864,2.88c-1.152,0.936-2.952,1.8-8.928,5.8319c-1.008-0.2159-1.008-0.2159-2.664,0
		c-2.664,1.0081-2.664,1.0081-5.04,1.44C153.432,16.2719,152.64,16.2719,151.848,16.2719L151.848,16.2719z"/>
</g>
</svg>
