<?xml version="1.0" encoding="utf-8"?>
<!-- Generator: Adobe Illustrator 21.1.0, SVG Export Plug-In . SVG Version: 6.00 Build 0)  -->
<svg version="1.1" id="Nauc" xmlns="http://www.w3.org/2000/svg" xmlns:xlink="http://www.w3.org/1999/xlink" x="0px" y="0px"
	 viewBox="0 0 300.528 387.144" enable-background="new 0 0 300.528 387.144" xml:space="preserve">
<g>
	<path fill-rule="evenodd" clip-rule="evenodd" d="M147.024,387.144c-1.224-1.512-2.52-3.024-3.8159-4.608
		c-3.6-2.52-7.2-5.04-10.8-7.632c-2.16-1.296-4.32-2.592-6.48-3.888c-8.64-3.816-11.52-4.752-13.68-5.76
		c-3.744-1.224-7.488-2.52-11.304-3.816c-2.952-1.224-5.904-2.52-8.856-3.816c-4.68-2.376-9.432-4.752-14.184-7.2
		c-12.96-8.64-12.96-8.64-13.896-9.648c-2.304-1.656-4.608-3.312-6.984-5.04c-0.432-0.72-0.432-0.72-5.472-4.536
		c-0.648-0.792-1.296-1.584-1.944-2.376c-3.384-2.88-3.384-2.88-6.264-6.048c-1.8-3.168-1.8-3.168-2.592-4.032
		c-0.36-0.072-0.792-0.144-1.224-0.288c-1.224-1.8-2.52-3.6-3.816-5.472c-1.296-2.232-2.592-4.536-3.888-6.84
		c-1.224-2.664-2.448-5.4-3.744-8.136c-1.224-3.312-2.52-6.696-3.816-10.08c-1.872-7.704-3.744-15.408-5.616-23.184
		c-1.44,0.072-2.88,0.144-4.32,0.216c-1.08,0.432-2.232,0.936-3.384,1.44c-0.72,0.648-1.44,1.296-2.16,1.944
		c-0.504,0.144-1.08,0.288-1.656,0.432c-0.504-0.216-1.08-0.432-1.656-0.72c-0.864-2.016-0.864-2.016-1.872-5.832
		c-0.288-2.232-0.576-4.464-0.936-6.696c0.216-14.688,0.216-14.688,0.72-21.6c0.648-3.24,1.296-6.552,1.944-9.864
		c1.872-5.976,2.88-8.424,3.456-11.016c-4.536-0.864-4.536-0.864-5.76-1.368c-1.872-2.736-1.872-2.736-3.024-5.4
		c0-1.08,0-2.16,0-3.312c0.288-0.72,0.648-1.44,1.008-2.16c0.864-0.864,1.8-1.728,2.736-2.664c2.16-0.864,2.16-0.864,4.608-1.368
		c6.48-0.072,12.96-0.144,19.44-0.216c3.456-0.216,6.984-0.432,10.512-0.72c0.864-2.736,0.864-2.736,4.68-19.512
		c1.944-5.76,1.944-5.76,3.816-12.528c1.296-2.952,2.592-5.904,3.888-8.856c1.872-3.672,3.816-7.344,5.76-11.016
		c2.592-3.6721,5.256-7.344,7.92-11.088c-0.072-0.288-0.216-0.576-0.36-0.864c-0.72-0.288-1.44-0.576-2.16-0.936
		c-4.32-4.32-5.544-5.256-5.976-5.976c-5.544-5.04-6.48-6.264-10.368-9.648c-2.592-2.736-2.592-2.736-3.456-4.176
		c-0.288-0.864-0.648-1.728-1.008-2.592c0-0.432,0-0.936,0-1.44c0.648-1.0081,1.296-2.088,1.944-3.168
		c1.008-0.72,2.016-1.512,3.024-2.304c0.864-0.216,1.728-0.432,2.664-0.72c1.224,0,2.52,0,3.816,0
		c0.864,0.288,1.728,0.648,2.664,1.008c3.672,3.312,7.344,6.696,11.016,10.08c2.664,1.872,2.664,1.872,4.824,3.816
		c0.936,1.224,0.936,1.224,3.816,3.6c0.72-0.216,0.72-0.216,5.256-4.104c2.16-1.224,4.32-2.52,6.48-3.816
		c4.608-2.304,9.216-4.68,13.824-7.056c0-0.216,0-0.432,0-0.72c-0.432-0.288-0.936-0.576-1.44-0.936
		c-0.072-0.432-0.216-0.936-0.36-1.44c-1.368-0.288-2.736-0.576-4.104-0.864c-3.096-1.944-3.096-1.944-4.32-3.168
		c-0.288-0.792-0.576-1.584-0.864-2.448c0-0.576,0-1.152-0.072-1.728c-3.888,0-7.776,0.072-11.736,0.144
		c-4.176-0.432-8.352-0.936-12.528-1.44c-5.76-1.944-5.76-1.944-7.632-2.88c-0.288-0.288-0.648-0.648-1.008-1.008
		c-0.144-0.648-0.36-1.296-0.576-2.016c0.216-2.952,0.432-5.904,0.72-8.856c0.576-2.304,1.224-4.6079,1.872-6.9839
		c0.648-0.36,0.648-0.36,4.464-0.864c5.76,0.288,5.76,0.288,21.168,0c0.792-0.144,1.584-0.288,2.376-0.4319
		c0.072-0.864,0.216-1.8,0.36-2.7361c0.288-0.6479,0.576-1.296,0.936-1.944c0.648-0.7921,1.296-1.584,1.944-2.376
		c1.008-0.7921,2.016-1.584,3.096-2.448c0-1.008,0-2.016,0-3.0961c0.288-0.7199,0.576-1.4399,0.936-2.1599
		c1.296-1.5841,2.592-3.1681,3.888-4.824c0.792-0.576,1.656-1.152,2.52-1.8c1.728-0.432,3.456-0.936,5.256-1.44
		c1.584-1.872,3.168-3.816,4.8239-5.76c1.656-0.936,1.656-0.936,5.976-2.376c1.152,0,2.376,0,3.6,0
		c0.288-1.008,0.576-2.0161,0.864-3.024c0.576-0.792,1.224-1.584,1.872-2.3761c1.152-0.9359,2.376-1.8719,3.6-2.88
		c0-0.36,0-0.792-0.072-1.2239c-0.432-0.216-0.864-0.432-1.368-0.72c0-1.008,0-2.016,0-3.096c0.648-2.304,1.296-4.608,1.944-6.984
		c1.44-2.88,1.944-3.312,3.816-6.696c1.296-1.6561,2.592-3.312,3.888-5.04c5.0399-3.816,5.0399-3.816,7.344-5.184
		c1.224-0.216,2.52-0.4321,3.8159-0.72c4.104,0,8.28,0,12.4561,0c3.168,0.504,6.408,1.08,9.6479,1.656
		c0.72,0.504,1.656,0.72,6.192,3.6c1.728,2.088,3.528,4.1759,5.328,6.264c1.224,2.5919,2.448,5.184,3.672,7.848
		c0.936,2.6641,1.872,5.4,2.88,8.136c0.216,1.944,0.216,1.944,0.216,8.424c-0.144,1.0081-0.288,2.0161-0.432,3.0961
		c-0.648,1.728-1.2961,3.4559-1.944,5.256c-0.648,0.936-1.2961,1.872-1.944,2.88c-4.032,3.8879-4.032,3.8879-7.632,6.7679
		c-1.008,0.432-2.016,0.864-3.024,1.296c-0.144,0.288-0.36,0.576-0.576,0.864c0.072,1.224,0.144,2.52,0.216,3.816
		c0.288,0.864,0.576,1.728,0.936,2.664c0.36,0.4319,0.72,0.936,1.08,1.4399c2.736,0.864,5.472,1.8,8.208,2.736
		c4.32,0.936,12.2401,1.872,17.064,2.8801c3.456,0.4319,6.984,0.9359,10.512,1.44c8.568,0.288,17.136,0.576,25.704,0.936
		c6.48,0.936,6.48,0.936,10.8,1.944c2.376,0.936,2.376,0.936,5.04,2.376c0.216,0.288,0.504,0.576,0.792,0.864
		c0.432,1.6561,0.936,3.312,1.44,5.0401c-0.072,1.512-0.144,3.024-0.216,4.536c-1.944,4.104-1.944,4.104-3.024,5.544
		c-1.08,0.432-2.16,0.864-3.312,1.296c-2.664,0.144-5.4,0.288-8.136,0.504c-10.368-0.288-10.368-0.288-21.168,0
		c-1.584,0.144-3.168,0.288-4.752,0.432c-1.008,0.288-2.088,0.576-3.168,0.864c0,0.288-0.072,0.648-0.144,1.008
		c1.008,2.16,1.008,2.16,1.944,5.04c0.216,1.8,0.432,3.6,0.72,5.472c9.144,5.76,9.144,5.76,14.616,9.648
		c4.608,3.816,4.608,3.816,8.208,7.2c0.36,0,0.72,0,1.08,0.072c1.008-0.792,2.0161-1.584,3.096-2.376
		c8.208-7.92,8.208-7.92,10.08-10.08c2.304-2.016,4.608-4.032,6.984-6.048c1.152-0.432,2.376-0.936,3.6-1.44
		c1.0801-0.072,2.2321-0.144,3.384-0.216c0.72,0.216,1.44,0.432,2.16,0.72c0.288,0.504,0.6479,1.008,1.008,1.584
		c0.072,0.864,0.144,1.728,0.288,2.664c-0.936,2.16-1.872,4.32-2.88,6.48c-1.872,2.16-3.816,4.32-5.7599,6.48
		c-3.096,2.52-6.192,5.04-9.36,7.632c-1.512,1.584-3.024,3.168-4.608,4.824c0,0.216,0,0.432,0,0.72
		c3.888,5.544,3.888,5.544,7.704,11.736c1.872,3.816,3.816,7.632,5.76,11.52c1.224,3.456,2.52,6.912,3.816,10.368
		c1.944,6.696,1.944,6.696,2.88,9.072c0.504,3.888,1.008,5.328,1.944,10.584c0.36,3.384,0.72,6.84,1.0801,10.296
		c7.9199,0.144,7.9199,0.144,10.5839-0.144c2.808,0.144,5.616,0.288,8.424,0.504c1.8,0.288,3.6,0.576,5.472,0.936
		c1.8,0.648,3.672,1.296,5.544,1.944c0.864,0.648,1.728,1.296,2.6641,1.944c1.728,2.736,1.728,2.736,2.0159,3.744
		c0,0.864,0,1.728,0,2.592c-0.6479,0.936-1.296,1.872-1.944,2.88c-2.736,1.8-2.736,1.8-3.96,2.16c0,0.2881-0.072,0.648-0.144,1.0081
		c0.648,2.232,1.296,4.464,1.944,6.696c0.504,3.384,0.504,3.384,0.936,13.68c-0.072,3.168-0.144,6.336-0.216,9.576
		c-0.288,2.592-0.576,5.256-0.936,7.92c-0.648,2.808-1.296,5.616-1.944,8.424c-0.936,2.88-1.872,5.76-2.88,8.64
		c-0.288,0.36-0.576,0.7921-0.936,1.224c-0.792,0-1.656-0.072-2.52-0.144c-2.8799-1.944-2.8799-1.944-6.48-3.888
		c-0.504-0.072-1.08-0.144-1.656-0.288c-1.872,8.64-1.872,8.64-3.744,15.552c-1.872,5.184-3.816,10.368-5.7601,15.624
		c-1.8719,3.528-3.816,7.056-5.76,10.584c-1.44,1.944-2.88,3.96-4.3199,5.976c-0.504,1.944-0.504,1.944-1.44,3.816
		c-2.16,1.944-2.16,1.944-3.6,2.88c-2.232,2.592-4.464,5.256-6.768,7.92c-2.664,2.592-5.4,5.256-8.136,7.92
		c-2.592,2.232-5.256,4.4641-7.92,6.768c-3.168,1.872-6.336,3.816-9.576,5.76c-5.616,2.736-8.28,3.672-11.664,5.616
		c-5.04,1.872-6.912,2.88-17.712,6.696c-1.944,0.936-1.944,0.936-19.944,6.696c-10.584,5.76-11.016,6.264-12.744,7.2
		c-0.936,1.008-3.816,2.88-6.912,5.76c-0.432,0.792-0.936,1.584-1.44,2.448c-1.224,0.936-1.224,0.936-3.384,1.872
		C148.32,386.928,147.672,387,147.024,387.144L147.024,387.144z M148.032,379.944c-0.6479-0.72-1.296-1.44-1.944-2.16
		c-5.256-3.888-5.256-3.888-11.016-7.704c-2.16-1.224-4.32-2.52-6.48-3.816c-2.808-1.296-5.616-2.592-8.424-3.888
		c-7.128-2.52-14.256-5.04-21.384-7.632c-16.272-7.704-16.272-7.704-19.656-9.648c-11.52-7.632-11.52-7.632-19.44-13.392
		c-4.824-3.888-4.824-3.888-9.144-7.92c-0.288-0.36-0.576-0.72-0.864-1.08c0-0.36,0-0.7921,0-1.2241
		c1.656-1.728,3.312-3.456,5.04-5.256c0.432-0.288,0.936-0.576,1.44-0.936c3.744-3.744,7.488-7.488,11.232-11.232
		c0.288,0,0.576,0,0.936,0c2.16,1.944,3.6,2.88,9.864,8.928c2.592,1.872,2.592,1.872,4.752,3.816c2.16,1.224,4.32,2.52,6.48,3.816
		c2.808,1.296,5.616,2.592,8.424,3.888c1.44,0.288,2.88,0.576,4.32,0.936c1.584,0,3.168,0,4.824,0
		c1.008-0.288,2.016-0.576,3.096-0.936c2.88-1.944,2.88-1.944,6.264-5.04c0.216-0.36,0.432-0.72,0.72-1.08
		c0.288,0,0.576-0.072,0.936-0.144c0.792,0.288,1.584,0.576,2.376,0.936c6.552,0.936,13.104,1.872,19.728,2.88
		c0.216,0.36,0.072,10.512,0.576,16.704c0.432,13.248,0.432,13.248,0.936,18c0.144,0.576,0.288,1.152,0.504,1.728
		c0.648,0.72,1.296,1.44,2.016,2.16c1.728,0.792,1.728,0.792,4.824,1.728c0.936-0.072,1.872-0.144,2.88-0.216
		c0.936-0.648,1.872-1.296,2.88-1.944c0.432-0.648,0.864-1.296,1.296-2.016c0.288-1.584,0.576-3.168,0.936-4.752
		c0.144-2.52,0.288-5.112,0.504-7.704c0-4.104,0-8.28,0-12.456c-0.504-7.2-0.504-7.2-1.08-10.8c1.8,0,3.672-0.072,5.544-0.144
		c3.312-0.648,6.696-1.296,10.08-1.944c4.32-1.08,8.64-2.232,12.96-3.384c0.216,0,0.504,0.072,0.792,0.144
		c0.144,0.648,0.288,1.296,0.504,1.944c0.936,1.44,0.936,1.44,3.096,3.384c3.024,1.728,3.024,1.728,5.688,2.736
		c2.376,0.432,2.376,0.432,7.2,0.72c1.728-0.288,3.456-0.648,5.256-1.008c7.488-3.312,7.488-3.312,7.92-3.816
		c1.08-0.648,2.232-1.296,3.384-1.944c2.52-1.944,5.112-3.96,7.704-5.976c2.592-2.376,5.256-4.752,7.92-7.2c0.288,0,0.576,0,0.936,0
		c8.136,8.424,8.136,8.424,13.896,13.68c0,0.288,0.072,0.576,0.144,0.864c-0.648,0.864-1.296,1.728-1.944,2.664
		c-2.52,2.664-5.112,5.4-7.704,8.136c-2.52,2.232-5.04,4.464-7.632,6.696c-1.728,1.296-3.456,2.592-5.184,3.888
		c-3.168,1.872-6.336,3.744-9.576,5.616c-12.024,5.76-12.024,5.76-17.784,8.136c-10.8,3.816-10.8,3.816-12.96,4.824
		c-5.256,1.584-10.512,3.168-15.84,4.752c-1.512,0.648-3.024,1.296-4.536,1.944c-6.264,3.816-6.264,3.816-12.024,7.704
		c-4.32,3.816-4.32,3.816-5.256,5.04C148.68,379.944,148.392,379.944,148.032,379.944L148.032,379.944z M199.368,321.84
		c-1.584-0.288-3.168-0.576-4.824-0.936c-1.08-0.792-2.2321-1.656-3.384-2.52c-0.0721-0.72-0.216-1.44-0.36-2.16
		c1.008-1.44,1.008-1.44,2.304-2.376c5.112-2.52,10.224-5.04,15.408-7.632c3.312-2.016,6.696-4.104,10.08-6.192
		c1.944-1.44,3.9601-2.88,5.976-4.32c0.288,0,0.576,0,0.936,0.072c1.8,2.088,3.672,4.176,5.544,6.264
		c-8.136,7.776-8.136,7.776-12.744,11.664c-1.08,0.792-2.16,1.584-3.312,2.376c-6.984,3.816-6.984,3.816-9.36,4.824
		c-1.368,0.288-2.736,0.576-4.104,0.936C200.808,321.84,200.088,321.84,199.368,321.84L199.368,321.84z M104.544,319.68
		c-5.04-0.936-5.04-0.936-8.352-1.944c-2.52-1.224-5.112-2.52-7.704-3.816c-0.936-0.648-1.872-1.296-2.88-1.944
		c-4.608-4.104-9.216-8.208-13.824-12.312c0-0.216,0-0.432,0-0.72c1.944-2.664,1.944-2.664,2.52-3.888c0.288,0,0.648,0,1.008-0.072
		c4.32,3.816,4.32,3.816,9.576,7.92c3.024,1.872,6.048,3.816,9.144,5.76c6.12,2.52,12.24,5.04,18.432,7.56
		c0,0.216,0.072,0.432,0.144,0.72c-0.936,0.648-1.872,1.296-2.808,1.944c-0.792,0.216-1.584,0.504-2.376,0.792
		C106.488,319.68,105.552,319.68,104.544,319.68L104.544,319.68z M148.464,317.016c-3.384-0.216-6.84-0.432-10.296-0.72
		c-4.464-0.576-8.928-1.224-13.464-1.872c-0.432-0.432-0.936-0.936-1.44-1.44c-0.576-0.288-1.224-0.648-1.872-1.008
		c-1.584-0.288-3.168-0.576-4.824-0.936c-3.744-1.224-7.488-2.5201-11.304-3.816c-1.872-1.008-4.752-1.944-8.856-3.888
		c-2.808-1.728-5.616-3.456-8.424-5.256c-3.168-2.592-6.336-5.256-9.576-7.92c-1.44-1.44-2.88-2.88-4.32-4.32
		c-2.52-3.096-5.112-6.192-7.704-9.36c-4.464-6.624-8.928-13.3199-13.392-20.016c-1.872-3.816-1.872-3.816-5.688-13.176
		c-0.144-2.088-0.288-4.176-0.504-6.264c-1.872-8.424-1.872-8.424-2.88-11.736c-0.288-2.952-0.576-5.904-0.936-8.928
		c0.072-3.744,0.144-7.4879,0.216-11.232c0.648-4.392,1.296-8.784,1.944-13.248c1.224-5.328,2.52-10.656,3.816-16.056
		c3.888-11.736,3.888-11.736,5.76-16.56c3.888-7.704,3.888-7.704,7.704-14.4c1.224-1.872,2.52-3.816,3.816-5.76
		c7.704-9.864,7.704-9.864,11.52-14.184c1.44-1.296,2.88-2.664,4.32-4.032c5.688-3.744,9.288-5.688,10.512-6.624
		c2.592-1.008,4.032-1.944,18.432-8.208c8.928-1.872,8.928-1.872,20.16-3.816c8.64-0.936,8.64-0.936,16.56-1.44
		c5.184-0.144,10.368-0.288,15.624-0.504c1.8,0.072,3.672,0.144,5.544,0.288c3.744,0.576,7.488,1.224,11.232,1.872
		c8.208,1.944,8.208,1.944,15.12,3.888c1.584,0.576,3.168,1.224,4.8239,1.872c0.288,0.288,0.576,0.648,0.936,1.008
		c0.648,0.144,1.296,0.288,1.944,0.432c2.664,1.44,2.664,1.44,3.096,1.944c0.936,0.288,1.872,0.576,2.88,0.936
		c9.6479,5.76,9.6479,5.76,13.68,8.64c2.736,2.52,5.472,5.112,8.208,7.704c2.592,3.24,5.256,6.552,7.92,9.864
		c1.872,2.736,3.816,5.544,5.76,8.352c1.872,3.528,3.744,7.128,5.616,10.728c1.728,4.536,3.456,9.072,5.256,13.68
		c0,1.152,0,2.376,0,3.6c0.648,1.872,1.296,3.816,1.944,5.76c0.72,3.168,1.44,6.336,2.16,9.576
		c0.4319,7.7039,0.4319,7.7039,0.72,22.32c-0.288,3.6-0.648,7.2-1.008,10.8c-0.576,3.456-1.224,6.912-1.872,10.368
		c-1.296,4.464-2.592,8.9279-3.888,13.392c-1.224,3.168-2.52,6.408-3.816,9.648c-1.224,2.376-2.52,4.752-3.816,7.2
		c-7.704,11.232-7.704,11.232-12.816,17.856c-0.792,0-1.584,0-2.448,0c-0.36,0.288-0.72,0.576-1.152,0.936
		c-0.648,0.936-1.296,1.872-1.944,2.88c-1.512,1.224-3.024,2.52-4.536,3.816c-3.6,2.52-7.2,5.112-10.8,7.7039
		c-4.392,2.52-8.784,5.112-13.248,7.704c-4.536,1.872-9.072,3.816-13.68,5.76c-2.952,0.936-5.904,1.8719-8.856,2.88
		c-8.64,1.872-8.64,1.872-17.064,3.312C155.664,317.016,152.064,317.016,148.464,317.016L148.464,317.016z M40.752,310.536
		c-0.288-0.36-0.648-0.72-1.008-1.152c-1.872-3.456-3.744-6.912-5.616-10.44c-3.888-9.36-3.888-9.36-5.76-14.616
		c-1.944-6.984-1.944-6.984-4.824-19.944c-0.072-1.728-0.144-3.456-0.216-5.256c-0.432-0.288-0.864-0.648-1.368-1.008
		c-2.232,0.432-4.464,0.864-6.696,1.296c-1.656,0.864-3.312,1.728-5.04,2.664c-0.36,0-0.72,0-1.08-0.072
		c-0.36-2.376-0.792-4.752-1.224-7.2c0-8.64,0.288-11.304,0.504-22.32c0.648-2.88,1.296-5.76,1.944-8.64
		c1.872-5.76,1.872-5.76,2.88-7.704c0.288,0,0.576-0.072,0.864-0.144c0.576,0.648,1.224,1.296,1.872,1.944
		c4.32,3.312,8.64,6.696,12.96,10.08c2.16,0.936,4.32,1.872,6.48,2.88c3.168,0.432,3.168,0.432,4.104,0.792
		c1.8,9.864,2.736,13.248,2.952,15.192c-0.504,0.432-1.008,0.864-1.512,1.296c-0.72,0.144-1.44,0.288-2.16,0.432
		c-0.72,0.432-1.44,0.936-2.16,1.44c-0.36,1.152-0.36,1.152-0.72,1.368c0,0.864-0.072,1.7281-0.144,2.664
		c1.224,3.744,2.52,7.488,3.816,11.232c5.76,11.808,5.76,11.808,7.704,15.12c3.816,5.328,3.816,5.328,9.144,12.024
		c0,0.216,0,0.432,0,0.72c-4.536,5.112-9.072,10.224-13.68,15.336c-0.432,0.648-0.864,1.2961-1.296,2.016
		C41.256,310.536,41.04,310.536,40.752,310.536L40.752,310.536z M258.192,308.376c-4.104-4.536-9.8639-11.7361-11.952-13.752
		c0-0.36,0-0.792,0-1.224c2.016-2.16,4.032-4.32,6.048-6.48c0.936-1.656,0.936-1.656,4.752-6.4799
		c1.872-3.888,3.816-7.776,5.76-11.736c1.944-5.544,1.944-5.544,2.448-7.92c0-1.728,0-3.456,0-5.256
		c-0.216-0.792-0.432-1.584-0.72-2.448c-1.08-1.296-2.16-2.664-3.2399-4.032c-0.576-0.288-1.152-0.648-1.728-1.008
		c0.144-1.872,0.144-1.872,2.232-9.792c1.512-0.288,3.024-0.576,4.536-0.864c4.536-1.944,4.536-1.944,12.24-5.76
		c1.224-1.008,1.224-1.008,3.384-1.944c2.592-2.088,5.256-4.176,7.9199-6.264c0.36-0.072,0.72-0.144,1.152-0.288
		c0.288,3.744,0.576,7.488,0.864,11.232c-0.216,4.896-0.432,9.7921-0.72,14.688c-1.944,10.296-1.944,10.296-2.8801,13.896
		c-1.008,2.664-1.008,2.664-1.584,3.384c-3.6-1.872-3.6-1.872-7.416-4.248c-1.224-0.216-1.224-0.216-1.44-0.504
		c-0.936,0.144-1.872,0.288-2.88,0.504c-0.1439,0.288-0.288,0.576-0.504,0.864c-0.576,3.672-1.152,7.344-1.8,11.016
		c-0.648,2.448-1.296,4.968-1.944,7.488c-1.872,5.328-3.816,10.656-5.7599,16.056c-4.752,9.144-4.752,9.144-6.048,10.872
		C258.696,308.376,258.48,308.376,258.192,308.376L258.192,308.376z M150.408,296.424c-4.68-0.6479-9.432-1.296-14.184-1.944
		c-3.6-0.936-3.6-0.936-22.32-7.416c-2.88-1.296-5.76-2.592-8.64-3.888c-2.2321-1.224-4.464-2.52-6.696-3.816
		c-1.728-1.224-3.456-2.52-5.256-3.816c-1.368-1.296-2.736-2.592-4.104-3.888c-3.744-4.1761-7.488-8.424-11.304-12.672
		c-1.224-2.16-2.448-4.392-3.744-6.624c-1.872-4.104-3.816-8.28-5.76-12.456c-1.224-3.6-2.52-7.2-3.816-10.8
		c-0.936-5.04-0.936-5.04-1.44-9.864c-0.072-3.816-0.144-7.632-0.216-11.52c0.144-2.232,0.288-4.4641,0.432-6.696
		c0.648-3.528,1.296-7.056,1.944-10.584c1.944-7.416,1.944-7.416,3.816-13.392c1.296-2.952,2.592-5.904,3.888-8.928
		c1.584-2.88,3.168-5.76,4.752-8.64c1.296-1.728,2.592-3.456,3.888-5.256c2.664-3.096,5.328-6.192,7.992-9.36
		c1.368-1.224,2.808-2.52,4.248-3.816c4.32-2.88,4.32-2.88,6.552-4.824c3.312-1.872,6.696-3.816,10.08-5.76
		c8.424-3.744,8.424-3.744,11.088-4.68c15.624-3.888,15.624-3.888,19.44-4.608c3.528,0.072,7.056,0.144,10.584,0.288
		c6.48,0.576,12.96,1.224,19.44,1.872c4.32,0.936,8.64,1.872,12.96,2.88c9.7921,3.888,9.7921,3.888,13.68,5.7599
		c4.032,2.5201,8.136,5.112,12.24,7.704c2.664,2.592,5.4,5.256,8.136,7.92c1.224,1.512,2.5201,3.024,3.816,4.536
		c2.16,3.096,4.392,6.192,6.624,9.288c0.144,1.08,0.288,2.2321,0.432,3.384c1.296,3.24,2.592,6.48,3.888,9.792
		c0.576,2.088,1.224,4.176,1.872,6.264c1.08,6.624,2.232,13.248,3.384,19.944c0.504,6.912,0.504,6.912,0.72,16.992
		c-0.216,3.888-0.216,3.888-0.72,6.48c-0.504,1.224-1.44,6.048-3.816,13.68c-1.296,2.52-2.592,5.112-3.888,7.704
		c-2.52,4.104-5.04,8.28-7.632,12.456c-1.2961,1.656-2.592,3.312-3.888,5.04c-4.536,4.824-4.536,4.824-12.456,12.528
		c-2.952,2.592-5.904,5.256-8.856,7.92c-3.456,2.304-6.912,4.68-10.44,7.056c-1.008,0.432-2.016,0.936-3.096,1.44
		c-3.888,0.936-3.888,0.936-6.7679,1.152c-6.912,1.944-6.912,1.944-9.576,2.448c-2.808,0.216-5.616,0.432-8.424,0.72
		C156.312,296.424,153.36,296.424,150.408,296.424L150.408,296.424z M157.608,290.808c-0.36-6.48-0.36-6.48-0.216-7.344
		c1.944,0,3.96,0,5.976,0c1.368-0.288,2.7361-0.648,4.104-1.008c3.96-1.584,7.92-3.168,11.952-4.752
		c2.952-1.872,5.904-3.816,8.928-5.76c1.224-1.08,2.52-2.232,3.816-3.384c0.36,0.072,0.792,0.144,1.224,0.216
		c0.936,1.008,4.032,3.168,5.76,5.04c0,0.36,0,0.72,0.072,1.152c-4.32,3.816-4.32,3.816-9.576,7.632
		c-2.304,1.368-4.68,2.736-7.056,4.176c-0.936,0-1.872,0-2.88,0c-1.224,0.504-1.224,0.504-9.144,2.448
		C164.592,290.16,164.592,290.16,157.608,290.808L157.608,290.808z M241.848,289.944c-2.16-1.944-2.16-1.944-4.104-4.32
		c0-0.36-0.072-0.72-0.144-1.08c3.816-5.112,7.632-10.224,11.52-15.336c1.296-2.304,2.592-4.608,3.888-6.984
		c1.512-3.384,3.096-6.768,4.68-10.224c0.216,0,0.432,0,0.72,0c0.432,0.504,0.864,1.008,1.296,1.584
		c0.144,0.7921,0.288,1.584,0.504,2.376c-0.216,2.016-0.432,4.032-0.72,6.048c-0.6481,1.8-1.2961,3.6-1.944,5.472
		c-1.872,3.816-3.816,7.632-5.76,11.5201c-5.976,6.768-7.92,9.36-9.72,11.088C241.992,290.088,241.92,290.016,241.848,289.944
		L241.848,289.944z M137.232,288.936c-12.024-3.816-12.024-3.816-25.488-8.64c-1.8-0.864-3.6-1.728-5.472-2.592
		c-2.664-1.728-5.328-3.456-8.064-5.184c0-0.288,0-0.576,0-0.936c0.576-0.792,1.224-1.584,1.872-2.376
		c2.664-1.944,2.664-1.944,4.104-3.6c0.144-0.288,0.288-0.648,0.504-1.008c0.36-0.072,0.72-0.216,1.08-0.36
		c1.728,1.368,3.456,2.736,5.256,4.104c3.816,2.232,7.632,4.464,11.5201,6.696c1.008,0.288,2.088,0.576,3.168,0.936
		c1.512,0.936,3.024,1.872,4.536,2.88c3.096,1.224,6.192,2.448,9.36,3.744c0.144,2.088,0.36,4.176,0.576,6.2639
		C139.248,288.864,138.24,288.864,137.232,288.936L137.232,288.936z M60.408,288.216c-2.52-3.24-5.112-6.48-7.704-9.7921
		c-1.224-2.016-2.448-4.032-3.744-6.12c-1.728-3.6-3.456-7.2-5.256-10.8c-0.936-3.6-1.224-3.816-2.16-7.704
		c0-0.36,0.072-0.72,0.144-1.152c0.72-0.504,1.944-0.864,2.376-1.368c0.288,0.072,0.576,0.216,0.864,0.36
		c0.576,1.584,1.224,3.168,1.872,4.824c1.296,2.304,2.592,4.608,3.888,6.984c3.168,4.752,6.336,9.576,9.576,14.4
		c1.512,1.944,3.024,3.96,4.536,5.976c0,0.288,0,0.576,0,0.936c-1.152,1.08-2.376,2.232-3.6,3.384
		C60.984,288.144,60.696,288.144,60.408,288.216L60.408,288.216z M149.688,279.36c-2.448-0.288-4.896-0.576-7.416-0.936
		c-2.448-0.936-4.968-1.872-7.488-2.88c-2.88-1.944-2.88-1.944-4.752-2.88c-1.8-0.648-3.672-1.296-5.544-1.944
		c-2.088-1.08-4.176-2.232-6.264-3.384c-2.592-1.872-5.256-3.816-7.92-5.76c-0.72-0.72-1.44-1.44-2.16-2.16
		c-1.224-2.016-2.448-4.032-3.744-6.048c-0.72-1.656-1.44-3.312-2.16-5.04c0-0.432,0-0.936,0-1.44
		c2.088-0.864,3.744-1.872,4.464-1.872c2.16,2.664,2.16,2.664,4.32,4.608c1.728,1.224,3.528,2.52,5.328,3.816
		c13.176,7.2,13.176,7.2,15.552,8.136c4.608,1.008,4.608,1.008,6.768,1.224c5.328,0,10.656,0,16.056,0
		c0.432,0.144,0.936,0.288,1.44,0.504c0.144,0.216,0.288,0.504,0.504,0.792c0.36,0,0.72,0.072,1.152,0.144
		c8.2079-3.384,8.2079-3.384,13.68-5.256c1.872-0.936,3.816-1.872,5.76-2.88c1.296-1.008,2.592-2.088,3.888-3.168
		c1.584-0.936,3.168-1.872,4.752-2.88c0.792-0.288,1.584-0.576,2.448-0.936c1.8-1.08,3.6-2.232,5.472-3.384
		c0.432-0.072,0.936-0.144,1.44-0.216c0.36,0.864,0.36,0.864,1.08,6.4081c-0.072,1.728-0.144,3.456-0.216,5.256
		c-1.296,2.088-2.592,4.176-3.888,6.264c-0.936,1.152-1.872,2.376-2.88,3.6c-1.584,1.224-3.24,2.52-4.896,3.816
		c-4.824,2.88-4.824,2.88-8.64,4.68c-2.448,0.936-4.896,1.872-7.416,2.88c-2.376,0.432-2.376,0.432-13.464,0.936
		C153.216,279.36,151.488,279.36,149.688,279.36L149.688,279.36z M211.104,262.224c-4.032-4.248-4.032-4.248-7.416-7.128
		c-0.72-0.432-1.512-0.864-2.304-1.296c-0.144-3.744-0.288-7.488-0.504-11.232c1.8-0.576,3.6-1.224,5.472-1.872
		c0.576-0.432,1.224-0.936,1.872-1.44c0-0.432,0.072-0.864,0.144-1.296c-2.88-8.64-2.88-8.64-3.888-10.8
		c-0.936-0.936-0.936-0.936-3.672-2.304c-1.368-0.072-2.736-0.144-4.104-0.288c0.432-4.176,0.864-8.352,1.296-12.528
		c-0.432-7.2-0.72-8.352-1.152-14.112c-0.216-1.152-0.432-2.376-0.72-3.6c-2.88-6.984-2.88-6.984-3.384-7.488
		c-1.944-3.6-1.944-3.6-2.376-5.04c-3.888-6.192-3.888-6.192-7.704-11.232c-5.04-3.888-5.04-3.888-7.992-5.688
		c-0.792-0.288-1.584-0.576-2.448-0.936c-0.072-0.36-0.216-0.72-0.36-1.08c0.504-0.504,0.504-0.504,2.376-5.04
		c0.144-1.728,0.288-3.456,0.504-5.256c0.216-0.72,0.432-1.44,0.72-2.16c0-0.792,0-1.584,0-2.448c-0.288-0.72-0.576-1.44-0.936-2.16
		c-0.6479-0.72-1.296-1.44-1.944-2.16c-1.224-0.864-2.448-1.8-3.672-2.736c-2.448-1.008-2.448-1.008-4.608-1.44
		c-1.872,0.072-3.8159,0.216-5.7599,0.36c0.864-2.376,0.864-2.376,1.8-3.6c0-0.648,0-1.368-0.072-2.088c-0.216,0-0.432,0-0.72-0.072
		c-0.144-1.944-0.288-3.96-0.432-5.976c1.872-0.144,1.872-0.144,11.664,0.792c5.04,1.224,10.08,2.52,15.12,3.816
		c3.024,1.2961,6.048,2.592,9.144,3.888c9.144,5.76,9.144,5.76,11.52,7.632c0.648,0.648,1.296,1.296,1.944,1.944
		c0,0.36,0,0.72,0.072,1.08c-1.368,1.656-2.736,3.312-4.104,5.04c-8.136,8.208-8.136,8.208-10.296,10.08
		c-1.08,1.368-2.232,2.736-3.384,4.104c0,0.648,0,1.296,0,1.944c0.648,1.008,1.296,2.016,1.944,3.096
		c1.08,0.936,1.08,0.936,3.744,2.232c0.864,0,1.728,0,2.664,0c1.152-0.432,1.152-0.432,6.48-4.32
		c4.32-4.032,6.912-5.976,11.952-10.8c0.288-0.072,0.648-0.144,1.008-0.216c1.224,2.016,2.5201,4.032,3.816,6.12
		c1.512,3.528,3.096,7.056,4.68,10.584c0.936,3.384,1.872,6.84,2.88,10.296c1.44,9.648,1.44,9.648,1.2961,10.656
		c-1.584,0.288-3.168,0.648-4.752,1.008c-15.408,1.44-15.408,1.44-18,1.872c-0.288,0.216-0.648,0.432-1.008,0.648
		c-0.504,1.08-1.008,2.232-1.584,3.384c0,2.232,0,4.464,0,6.696c0.36,0.864,0.792,1.728,1.224,2.664c0.72,0.72,1.44,1.44,2.16,2.16
		c1.08,0.288,2.16,0.648,3.2401,1.008c3.744-0.0721,7.4879-0.144,11.304-0.216c3.024,0.216,6.048,0.432,9.144,0.648
		c0,0.792,0,1.584,0.072,2.376c-0.504,1.224-0.504,1.224-1.224,1.944c-0.144,2.52-0.288,5.04-0.432,7.632
		c-0.936,3.024-1.872,6.048-2.88,9.144c-1.296,2.448-2.592,4.896-3.888,7.416c-2.52,3.96-5.04,7.992-7.632,12.024
		c-3.888,4.824-3.888,4.824-4.968,5.76C211.752,262.224,211.464,262.224,211.104,262.224L211.104,262.224z M85.824,259.92
		c-4.032-5.184-4.032-5.184-5.976-8.28c-1.872-3.744-3.744-7.4879-5.688-11.232c-0.936-2.52-1.872-5.112-2.88-7.704
		c-0.936-3.816-0.936-3.816-1.44-4.824c-0.288-1.8-0.576-3.6-0.936-5.472c-0.072-2.808-0.216-5.616-0.36-8.424
		c8.424-0.864,8.424-0.864,16.56-1.368c1.512-0.288,3.024-0.576,4.608-0.936c1.44-1.08,1.44-1.08,2.736-2.736
		c0.216-0.792,0.432-1.584,0.72-2.376c-0.288-5.76-0.288-5.76-0.72-8.208c-0.72-0.72-1.512-1.44-2.304-2.16
		c-0.72-0.288-1.44-0.576-2.16-0.864c-4.176-0.144-8.424-0.288-12.672-0.432c-1.656,0.144-3.312,0.36-5.04,0.576
		c0.072-1.152,0.144-2.376,0.288-3.6c0.648-2.52,1.296-5.04,1.944-7.632c1.224-3.528,2.52-7.056,3.816-10.584
		c1.944-4.104,1.944-4.104,5.76-10.8c3.888-5.76,3.888-5.76,5.76-7.92c0.36,0,0.72-0.072,1.152-0.144
		c1.44,0.936,5.256,4.824,9.792,8.856c6.264,4.8239,6.264,4.8239,6.984,5.0399c2.16,0,2.16,0,3.5999-0.432
		c1.656-1.584,3.312-3.168,5.04-4.824c0.216-0.504,0.504-1.008,0.792-1.512c0-0.7921,0-1.584,0-2.4481
		c-0.288-0.72-0.576-1.44-0.936-2.16c-8.64-8.136-8.64-8.136-13.896-12.672c0-0.288,0-0.648,0-1.008
		c1.512-1.224,3.096-2.52,4.68-3.816c2.304-1.224,4.608-2.52,6.912-3.816c3.456-1.584,6.912-3.168,10.368-4.752
		c14.184-3.6,17.28-4.032,18.936-4.5359c3.168,0,3.168,0,4.1039,0.36c0.36,2.448,0.36,2.448,0.576,8.208
		c-2.304,2.16-2.304,2.16-4.896,4.032c-0.792,1.152-1.656,2.376-2.5201,3.6c-5.616,1.8-5.616,1.8-7.344,2.736
		c-1.152,1.008-1.152,1.008-3.024,3.744c-0.216,1.152-0.432,2.376-0.72,3.6c0.504,1.44,0.504,1.44,1.44,2.448
		c1.8,0.936,1.8,0.936,2.88,1.872c1.008,1.44,1.008,1.44,1.44,2.88c-0.216,1.944-0.216,1.944-0.576,2.5201
		c-2.16,1.224-4.32,2.52-6.48,3.8159c-2.16,1.944-2.16,1.944-7.2,7.56c-1.224,1.728-2.448,3.528-3.744,5.328
		c-1.872,4.104-1.872,4.104-2.88,5.76c-0.936,2.592-1.872,5.256-2.88,7.92c-0.288,1.512-0.576,3.024-0.936,4.536
		c-0.504,6.048-0.504,6.048-0.72,17.784c0.936,4.536,0.936,4.536,1.944,7.704c0,0.432-0.072,0.864-0.144,1.296
		c-0.936,0.144-1.872,0.2881-2.88,0.432c-1.152,0.576-2.304,1.224-3.456,1.872c-1.944,3.312-1.944,3.312-2.88,4.32
		c-0.792,0.504-1.656,1.008-2.52,1.512c-0.504,0.072-1.08,0.144-1.656,0.216c-0.504,0.504-1.728,0.72-2.16,1.224
		c-0.36,0.072-0.72,0.216-1.152,0.36c0.072,1.152,0.144,2.376,0.288,3.6c0.288,0.72,0.576,1.44,0.936,2.16
		c1.08,1.08,2.232,2.232,3.384,3.384c0,0.144,0,0.288,0,0.504c-0.432,0.288-0.864,0.576-1.368,0.936
		c-0.072,1.44-0.072,1.44,0.36,3.384c1.944,4.536,1.944,4.536,2.16,5.76c-0.36,0.216-0.36,0.216-3.672,0.072
		c-1.08,0.432-2.232,0.936-3.384,1.44c-1.584,1.44-3.168,2.8799-4.752,4.3199C86.544,259.92,86.184,259.92,85.824,259.92
		L85.824,259.92z M140.832,259.2c-1.008-0.072-2.088-0.144-3.168-0.216c-2.736-0.936-5.544-1.872-8.3521-2.88
		c-2.88-1.944-2.88-1.944-8.2079-4.824c0-0.648-0.0721-1.296-0.144-2.016c-0.936-0.936-0.936-0.936-2.88-4.32
		c-0.432-1.584-0.864-3.168-1.296-4.824c0.288,0.072,0.648,0.216,1.008,0.36c3.312,3.312,6.696,6.696,10.08,10.08
		c1.0081,0.648,2.0161,1.296,3.096,1.944c5.256,1.872,5.256,1.872,12.744,3.816c1.152,0.504,2.376,1.08,3.6,1.656
		c2.16-0.072,4.32-0.144,6.48-0.216c0.576,0.072,1.224,0.216,1.872,0.36c0.144,0.144,0.288,0.288,0.504,0.504
		c-0.072,0.072-0.144,0.216-0.216,0.36C150.912,259.056,145.872,259.128,140.832,259.2L140.832,259.2z M160.272,258.696
		c-0.216,0-0.432,0-0.72-0.072c0-0.216,0-0.432,0-0.72c0.792,0.072,1.584,0.144,2.376,0.216
		C161.712,258.48,161.712,258.48,160.272,258.696L160.272,258.696z M103.608,241.92c-1.368-0.792-2.736-1.584-4.104-2.376
		c-0.576-1.08-1.152-2.16-1.8-3.24c0-0.72,0-0.72,0.36-1.08c1.44-0.432,2.88-0.936,4.32-1.44c0.72-0.432,1.44-0.936,2.16-1.44
		c0.648-0.72,1.296-1.44,1.944-2.16c0.216,0,0.432-0.072,0.72-0.144c0.792,4.32,0.792,4.32,0.792,6.768
		c-0.432,1.44-0.432,1.44-0.72,1.656c-0.072,0.792-0.144,1.584-0.216,2.376c-0.504,0.288-1.008,0.576-1.512,0.864
		C104.904,241.776,104.256,241.848,103.608,241.92L103.608,241.92z M163.872,240.696c-3.024-0.72-6.0479-1.44-9.144-2.16
		c-0.36-0.576-0.36-0.576-0.648-4.176c1.08-1.872,2.232-3.816,3.384-5.7599c1.008-1.008,2.016-2.016,3.024-3.024
		c0.288,0,0.576,0,0.936-0.072c0.072,0.432,0.144,0.936,0.216,1.44c0.144-0.072,0.288-0.144,0.504-0.216
		c0.792,1.008,1.584,2.016,2.376,3.096c0.576,0.36,1.152,0.72,1.728,1.08c1.44,0.072,2.88,0.144,4.32,0.216
		c0.288,0.432,0.576,0.864,0.936,1.296c-0.288,0.792-0.576,1.584-0.864,2.448c-0.576,0.864-1.224,1.728-1.872,2.664
		c-2.16,1.872-2.664,2.592-3.528,3.096C164.808,240.624,164.376,240.624,163.872,240.696L163.872,240.696z M193.608,239.04
		c-0.432-0.36-0.936-0.72-1.44-1.08c-0.36-1.152-0.864-1.656-1.368-2.88c0.216-0.936,0.432-1.872,0.72-2.88
		c0.288-0.432,0.648-0.936,1.008-1.44c1.008-0.72,2.0161-1.512,3.024-2.304c0.792,0,1.584,0,2.376,0
		c1.224,0.504,1.224,0.504,2.016,1.368c0.792,2.304,1.584,4.608,2.376,6.984c0,0.504,0,1.08,0,1.656
		c-0.216,0.144-0.5041,0.288-0.7921,0.504c-0.936-0.072-0.936-0.072-2.16-0.648c-0.72,0.072-1.44,0.144-2.16,0.216
		c-0.216,0.144-0.432,0.288-0.72,0.504C195.552,239.04,194.616,239.04,193.608,239.04L193.608,239.04z M141.048,237.816
		c-0.648-0.144-1.2961-0.288-1.944-0.432c-1.152-1.296-2.376-2.592-3.6-3.888c0-0.792-0.072-1.584-0.144-2.448
		c1.152-1.152,2.376-2.376,3.6-3.6c0.36,0,0.72-0.072,1.152-0.144c0.288,0.288,0.576,0.576,0.936,0.936
		c1.224,0.648,2.52,1.296,3.816,1.944c1.944,2.52,2.736,4.176,3.96,5.4c-0.0721,0.36-0.144,0.7921-0.216,1.224
		c-0.288,0.288-0.576,0.648-0.864,1.008C145.512,237.816,143.28,237.816,141.048,237.816L141.048,237.816z M263.448,233.208
		c1.296-8.928,1.296-8.928,2.16-18.504c7.488,0.144,14.976,0.288,22.5359,0.504c-0.288,0.72-0.576,1.44-0.864,2.16
		c-1.872,2.376-1.872,2.376-3.816,4.32c-1.8,1.224-3.6,2.52-5.4,3.816c-3.96,2.232-7.9919,4.464-12.024,6.696
		C265.176,232.488,264.312,232.848,263.448,233.208L263.448,233.208z M149.688,228.96c-0.288-0.288-0.576-0.576-0.936-0.936
		c-1.296-0.648-2.5919-1.296-3.888-1.944c-0.576-0.72-1.152-1.44-1.8-2.232c-0.072-0.432-0.216-0.936-0.36-1.44
		c0.576-0.144,1.152-0.288,1.728-0.432c0.216-0.288,0.504-0.648,0.792-1.008c0.072-0.72,0.144-1.44,0.216-2.16
		c0.36-0.288,0.72-0.576,1.1519-0.864c1.224,0,2.5201-0.072,3.816-0.144c-1.368,3.384-1.368,3.384-1.368,4.104
		c1.44,1.224,1.44,1.224,1.728,1.944c0,2.592,0,2.592-0.504,5.04C149.904,229.104,149.904,229.104,149.688,228.96L149.688,228.96z
		 M173.664,226.584c-2.16-1.944-2.16-1.944-3.096-3.168c-1.8-4.392-1.8-4.392-2.448-5.328c0.648-4.608,0.648-4.608,1.08-12.96
		c0.648,0,1.368,0,2.088-0.072c0.216,0.288,0.432,0.576,0.72,0.864c0.864,0.2881,1.728,0.576,2.664,0.936
		c0.072,0.288,0.144,0.576,0.288,0.864c0.432,0.36,0.864,0.792,1.368,1.224c0.216,0.432,0.432,0.936,0.72,1.44
		c0.792,0.216,1.584,0.504,2.376,0.792c0.072,0.216,0.216,0.432,0.36,0.648c-0.072,1.368-0.144,2.736-0.216,4.104
		c-0.288,0.9359-0.648,1.8719-1.008,2.88c-0.36,0.504-0.72,1.08-1.152,1.656c-0.144,0.936-0.288,1.872-0.504,2.88
		c-0.792,1.008-1.584,2.016-2.376,3.096C174.24,226.44,173.952,226.512,173.664,226.584L173.664,226.584z M155.232,226.44
		c-0.144-4.032-0.144-4.032,0.072-8.64c0.36-0.144,0.72-0.36,1.08-0.576c0.936,0,1.872,0,2.88,0
		c1.08,0.288,2.232,0.576,3.3839,0.864c0,0.576-0.072,1.224-0.144,1.872c-0.288,0.576-0.576,1.152-0.936,1.728
		c-0.936,0.576-1.872,1.224-2.88,1.872c-0.792,0.792-1.584,1.584-2.448,2.448C155.952,226.152,155.592,226.296,155.232,226.44
		L155.232,226.44z M36.144,225.36c-1.224-0.6479-2.52-1.296-3.816-1.944c-1.872-1.224-3.816-2.52-5.76-3.816
		c-1.8-1.512-3.672-3.096-5.544-4.68c0-0.288,0-0.576,0-0.864c5.328,0,10.656,0.072,15.984,0.144
		c0.216,3.6721,0.432,7.344,0.72,11.088C37.224,225.288,36.72,225.288,36.144,225.36L36.144,225.36z M129.024,222.264
		c-1.872-2.16-1.872-2.16-4.32-4.104c-1.8-2.952-1.8-2.952-2.016-3.9601c0-1.296,0-2.664,0-4.032
		c0.432-3.528,0.936-7.056,1.44-10.584c0.144-0.216,0.36-0.432,0.576-0.648c0.432,0,0.936,0,1.44,0
		c1.44,0.792,2.88,1.584,4.32,2.448c0.432,0.432,0.864,0.864,1.296,1.296c-0.216,1.44-0.216,1.44-0.72,2.448
		c-0.144,1.872-0.288,3.816-0.432,5.76c0.144,2.52,0.288,5.04,0.432,7.632c0.504,1.728,0.504,1.728,0.432,3.24
		C130.248,222.264,130.248,222.264,129.024,222.264L129.024,222.264z M136.008,219.816c-0.216-0.072-0.432-0.144-0.648-0.288
		c-0.144-0.936-0.288-1.872-0.432-2.88c0.072-3.096,0.216-6.192,0.36-9.36c1.512,0,3.024,0,4.536,0.072
		c0.576,0.576,1.152,1.152,1.8,1.8c0.072,0.792,0.144,1.584,0.216,2.448c-0.72,2.376-0.72,2.376-1.152,6.192
		c-0.792,0.576-1.656,1.152-2.52,1.8C137.448,219.672,136.728,219.744,136.008,219.816L136.008,219.816z M149.472,215.784
		c-0.216-0.144-0.504-0.36-0.792-0.576c-0.36-1.584-0.72-3.168-1.08-4.824c0-1.944,0-1.944,0.288-2.88
		c0.864-0.432,1.8-0.936,2.736-1.44c1.512-0.072,3.024-0.216,4.608-0.36c0.72,0.576,0.72,0.576,1.008,1.296
		c-0.072,0.936-0.144,1.872-0.216,2.88c-0.72,1.8-1.44,3.6-2.232,5.4C151.344,215.784,151.344,215.784,149.472,215.784
		L149.472,215.784z M163.584,214.056c-0.288-0.36-0.576-0.72-0.936-1.08c-0.072-1.296-0.216-2.664-0.36-4.032
		c0.144-1.728,0.36-3.456,0.576-5.256c0.288,0,0.648,0,1.008,0.072c0.2881,1.08,0.648,2.16,1.0081,3.24
		c-0.144,2.232-0.2881,4.464-0.432,6.768C163.8,214.2,163.8,214.2,163.584,214.056L163.584,214.056z M150.912,203.76
		c-0.288-0.72-0.576-1.44-0.864-2.232c-0.864-0.576-1.728-1.152-2.664-1.728c-0.0721-0.288-0.216-0.576-0.36-0.864
		c-0.72-0.072-1.44-0.144-2.16-0.288c0-0.216,0.072-0.432,0.144-0.72c0.432-0.2881,0.864-0.576,1.296-0.864c0.864,0,1.728,0,2.664,0
		c2.304-0.36,4.608-0.792,6.984-1.224c0.072,0.072,0.144,0.216,0.288,0.36c-0.36,0.2881-0.36,0.2881-0.72,2.448
		c0,1.512,0,3.024,0,4.536C154.944,203.544,154.944,203.544,150.912,203.76L150.912,203.76z M178.992,192.744
		c-1.944-1.008-3.888-1.44-4.608-2.016c-0.36-1.224-0.36-1.224-0.36-3.168c0.864-0.864,1.728-1.728,2.664-2.592
		c0.144-0.288,0.288-0.648,0.432-1.008c0.432,0,0.864-0.072,1.368-0.144c0.36,0.288,0.792,0.648,1.224,1.008
		c0.216,0.576,0.504,1.152,0.792,1.8c0.216,1.656,0.432,3.312,0.72,5.04C180.144,192.456,180.144,192.456,178.992,192.744
		L178.992,192.744z M145.584,191.016c-0.792-0.144-1.584-0.36-2.376-0.576c0-0.216,0-0.432,0-0.72
		c-1.656-0.432-3.312-0.864-5.04-1.2961c-0.072-0.288-0.216-0.576-0.36-0.864c-1.8-0.576-1.8-0.576-2.016-0.36
		c-1.44-0.144-1.44-0.144-2.448-0.72c-0.144-1.512-0.144-1.512,0.36-3.672c0.936-1.728,0.936-1.728,2.88-4.104
		c1.296-0.936,1.296-0.936,2.52-1.368c0.576,0,1.152,0,1.728,0c1.512,0.648,3.024,1.296,4.5359,1.944
		c1.008,0.072,2.0161,0.144,3.096,0.216c0.144-0.144,0.288-0.288,0.504-0.432c0.216-1.008,0.504-2.016,0.792-3.024
		c1.8-1.44,1.8-1.44,2.808-1.8c0.864-0.072,1.728-0.144,2.664-0.216c0.936,0.144,1.872,0.288,2.88,0.432
		c0.432,0.864,0.864,1.728,1.296,2.592c1.8,0.864,3.6,1.8,5.4,2.736c0.864,0.576,1.728,1.224,2.664,1.872
		c0.216,1.08,0.504,2.16,0.7921,3.312c-0.216,1.872-0.216,1.872-0.72,2.88c-0.504,0.216-1.008,0.504-1.5121,0.792
		c-1.44,0.2881-2.88,0.576-4.32,0.936c-1.08,0-2.232,0-3.384,0C151.632,190.584,151.632,190.584,145.584,191.016L145.584,191.016z
		 M142.488,159.12c-0.936-0.216-0.936-0.216-1.368-0.792c0-0.576,0-1.152,0-1.728c-0.288-0.36-0.576-0.72-0.936-1.152
		c0.072-1.152,0.144-2.376,0.216-3.6c0.36-0.288,0.72-0.576,1.152-0.864c0.576,0.072,1.224,0.144,1.872,0.216
		c0.432,0.2881,0.936,0.576,1.44,0.936c2.736,3.312,2.736,3.312,3.24,4.464c0.072,0.72,0.144,1.44,0.216,2.16
		c-0.2881,0.072-0.648,0.216-1.0081,0.36C145.728,159.12,144.144,159.12,142.488,159.12L142.488,159.12z M165.312,158.616
		c-0.6479-0.432-1.296-0.936-1.944-1.44c-1.44-0.432-1.44-0.432-4.1039-0.72c-2.88,1.008-3.312,1.44-4.032,1.584
		c-0.144-0.936-0.288-1.872-0.432-2.88c0.432-1.296,0.936-2.664,1.44-4.032c0.648-0.504,1.368-1.008,2.088-1.584
		c3.384,0.216,3.384,0.216,4.824,0.72c0.504,0.432,1.08,0.936,1.656,1.44c0.432,1.224,0.864,2.448,1.2961,3.744
		c0.216,2.88,0.216,2.88-0.0721,3.168C165.816,158.616,165.6,158.616,165.312,158.616L165.312,158.616z M133.848,152.856
		c-0.216-0.144-0.432-0.36-0.648-0.576c-0.072-0.576-0.144-1.224-0.216-1.872c0.936-1.728,0.936-1.728,2.304-3.312
		c0.504,0,1.08,0,1.656,0c1.224,1.008,1.224,1.008,1.584,1.872C136.08,150.84,134.064,153,133.848,152.856L133.848,152.856z
		 M151.632,150.264c-0.936-1.008-1.872-2.088-2.88-3.168c-1.728-0.936-1.728-0.936-5.688-2.232c0.072-0.576,0.216-1.152,0.36-1.728
		c0.36,0,0.792,0,1.224-0.072c0.864,0.432,1.728,0.936,2.664,1.44c2.592,0.432,3.6,0.936,5.472,1.152
		c0.216,0.288,0.432,0.648,0.72,1.008c0.36,0.144,0.792,0.288,1.224,0.432c0,0.288,0,0.576,0.072,0.864
		c-0.72,0.72-1.44,1.44-2.16,2.16C152.352,150.12,151.992,150.192,151.632,150.264L151.632,150.264z M170.352,149.76
		c-0.72-0.648-1.44-1.296-2.16-1.944c-0.864-0.432-1.728-0.936-2.664-1.44c-3.6-0.432-3.6-0.432-4.824-0.936
		c-0.288-0.216-0.576-0.504-0.864-0.792c0-1.008,0-1.008,0.432-1.872c0.288-0.144,0.576-0.288,0.936-0.432
		c2.6639,0.216,2.6639,0.216,4.1039,0.72c0.7921,0.576,1.584,1.224,2.376,1.872c0.936,1.152,1.872,2.304,2.88,3.528
		C170.64,149.688,170.64,149.688,170.352,149.76L170.352,149.76z M152.568,138.96c-0.36-0.36-0.792-0.792-1.224-1.224
		c-0.432-0.072-0.864-0.144-1.296-0.288c0-0.216-0.072-0.432-0.144-0.72c1.296,0,2.592,0,3.888,0.072
		c0.144,0.072,0.288,0.216,0.432,0.36c-0.288,0.576-0.576,1.152-0.864,1.728C153.144,138.888,152.856,138.888,152.568,138.96
		L152.568,138.96z M205.128,104.4c-2.592-1.08-5.256-2.16-7.92-3.24c0-0.288,0-0.576,0-0.936c0.504-0.288,1.008-0.576,1.512-0.936
		c1.152-0.144,2.304-0.288,3.528-0.432c0.648,0.288,1.2961,0.648,1.944,1.008c0.648,0.648,1.2961,1.296,2.0161,2.016
		c0,0.792-0.072,1.656-0.144,2.52C205.776,104.4,205.488,104.4,205.128,104.4L205.128,104.4z M106.704,100.08
		c-0.864-0.216-1.8-0.504-2.736-0.792c0.072-0.288,0.144-0.648,0.216-1.008c1.872-2.52,3.744-5.04,5.688-7.56
		c1.5121-0.288,3.024-0.576,4.536-0.936c5.544-1.944,5.544-1.944,7.2-2.304c-0.288,1.08-0.576,2.232-0.864,3.384
		c-0.6479,0.936-1.296,1.872-1.944,2.88c-3.816,4.104-3.816,4.104-4.896,4.896c-1.512,0.432-3.024,0.936-4.536,1.44
		C108.504,100.08,107.64,100.08,106.704,100.08L106.704,100.08z M124.272,96.696c-0.576-0.144-1.152-0.36-1.728-0.576
		c0-0.288-0.072-0.576-0.144-0.936c1.944-3.384,1.944-3.384,4.824-9.576c2.52-0.864,2.52-0.864,7.344-1.872
		c1.224-0.072,2.52-0.144,3.816-0.288c-0.864,2.448-1.8,4.8961-2.7361,7.416c-1.008,1.08-2.016,2.2321-3.024,3.384
		c-2.88,1.728-2.88,1.728-4.536,2.232C126.864,96.552,125.568,96.624,124.272,96.696L124.272,96.696z M190.728,95.904
		c0.072-0.36,0.216-0.792,0.36-1.224c0.72-0.72,1.44-1.44,2.16-2.16c2.376-1.44,2.376-1.44,2.736-2.016
		c0.648,0.216,1.296,0.4319,1.944,0.72c0.504,0.576,1.08,1.152,1.656,1.8c-0.216,0.36-0.216,0.36-5.976,2.736
		C192.672,95.76,191.736,95.832,190.728,95.904L190.728,95.904z M96.624,95.544c-0.864-0.504-1.728-1.008-2.592-1.584
		c0-0.288,0-0.576-0.072-0.936c3.24-0.36,6.552-0.72,9.864-1.08c0.072,0.072,0.144,0.216,0.288,0.36
		c-1.008,1.296-1.008,1.296-2.16,2.232c-0.864,0.288-1.728,0.648-2.664,1.008C98.424,95.544,97.56,95.544,96.624,95.544
		L96.624,95.544z M177.552,93.816c-0.504-0.072-1.008-0.144-1.584-0.288c0.072-0.288,0.144-0.648,0.216-1.008
		c3.816-3.816,3.816-3.816,5.184-4.68c1.224-0.288,2.52-0.576,3.816-0.936c0.144-0.504,0.288-1.008,0.504-1.584
		c2.16,0.36,2.16,0.36,5.04,1.44c0,0.288,0,0.648,0.072,1.008c-1.44,1.44-2.88,2.88-4.32,4.32c-0.576,0.288-1.152,0.576-1.8,0.936
		c-1.152,0.216-2.304,0.504-3.528,0.792C180,93.816,178.776,93.816,177.552,93.816L177.552,93.816z M141.768,93.6
		c-0.72-0.216-1.44-0.504-2.16-0.792c0-0.432-0.072-0.936-0.144-1.44c0.648-1.512,1.296-3.024,1.944-4.608
		c1.152-1.152,1.152-1.152,3.456-2.52c0.36-0.72,0.792-1.44,1.224-2.16c3.096-0.504,3.096-0.504,8.64-0.936
		c1.368,0,2.736,0,4.104,0.072c-2.016,2.448-4.032,4.968-6.048,7.488c-2.16,2.016-2.16,2.016-4.752,3.96
		c-0.792,0.288-1.584,0.576-2.448,0.936C144.36,93.6,143.064,93.6,141.768,93.6L141.768,93.6z M159.768,91.944
		c-0.72-0.144-1.44-0.288-2.16-0.504c0-0.36-0.072-0.72-0.144-1.08c0.936-1.44,0.936-1.44,2.88-3.312
		c2.088-0.864,2.088-0.864,9.288-2.808c0.216-0.72,0.504-1.44,0.792-2.232c1.296,0,2.592-0.072,3.96-0.144
		c1.296,0.2881,2.592,0.576,3.888,0.864c0,0.216-0.072,0.432-0.144,0.72c-3.888,4.032-3.888,4.032-6.12,5.832
		c-2.448,0.864-4.896,1.728-7.416,2.664C163.008,91.944,161.424,91.944,159.768,91.944L159.768,91.944z M204.192,90.504
		c-1.08-1.08-2.232-2.232-3.384-3.384c-1.656-0.936-2.664-1.944-9.576-5.76c-3.168-0.936-3.168-0.936-5.328-1.944
		c-3.816-0.936-7.632-1.8719-11.52-2.88c-2.16-0.216-4.32-0.4319-6.48-0.7199c-3.744-0.0721-7.488-0.144-11.232-0.216
		c-3.744,0.288-7.488,0.576-11.304,0.936c-12.96,1.944-12.96,1.944-17.496,2.88c-4.68,1.584-9.4319,3.168-14.184,4.824
		c-9.576,1.944-9.576,1.944-16.344,2.88c-12.24,0.72-12.24,0.72-19.152,0.72c-3.024-0.288-6.048-0.576-9.144-0.936
		c-2.592-0.432-5.256-0.936-7.92-1.44c-0.072-0.6479-0.216-1.296-0.36-2.016c0.36-2.52,0.72-5.112,1.152-7.704
		c0.216-0.288,0.432-0.576,0.648-0.936c5.544-0.144,11.52,0.072,46.296-0.864c3.312-0.288,6.696-0.648,10.08-1.0081
		c6.336-0.936,12.672-1.8719,19.008-2.88c1.152-0.288,2.376-0.576,3.6-0.936c0.792-3.4559,0.792-3.4559,1.296-4.3919
		c0.432-4.104,0.432-4.104,0.432-9.864c-0.432-1.4401-0.432-1.4401-0.936-2.16c-0.792-0.36-3.24-0.36-4.392-0.864
		c-1.224-0.936-1.224-0.936-2.16-2.304c0-0.504-0.072-1.08-0.144-1.656c0.936-0.936,0.936-0.936,2.304-1.8
		c0.36-0.504,0.72-1.08,1.152-1.6561c1.08-0.1439,2.232-0.2879,3.384-0.5039c0.936-0.3601,1.872-0.792,2.8799-1.224
		c0.432,0,0.936,0,1.44,0c0.7921,0.648,1.584,1.2959,2.376,1.944c0.864,0.2159,1.728,0.432,2.664,0.72
		c2.232-0.072,4.464-0.144,6.696-0.2159c1.512-0.432,3.024-0.936,4.608-1.44c1.512-1.296,3.024-2.5921,4.536-3.888
		c1.944-2.52,1.944-2.52,2.88-4.176c0.792-2.376,0.792-2.376,1.08-4.32c0-1.008,0-2.0161,0-3.096
		c-0.432-1.512-0.936-3.024-1.4399-4.5359c-0.936-1.296-1.872-2.592-2.88-3.888c-1.008-0.576-2.0161-1.152-3.024-1.8
		c-5.472-1.944-5.472-1.944-8.64-2.664c-1.152,0-2.376,0-3.6,0c-3.6,1.0081-3.6,1.0081-5.472,1.944
		c-1.224,0.936-1.224,0.936-4.752,4.68c-0.072,0.936-0.144,1.872-0.216,2.88c-0.576,0.288-1.152,0.648-1.8,1.008
		c-0.648,0.5759-1.2961,1.224-1.944,1.872c-1.152-0.2881-2.304-0.576-3.528-0.8641c-1.152,0-2.376,0.072-3.6,0.144
		c0.216-1.728,0.504-3.4561,0.792-5.256c0.288-0.936,0.576-1.872,0.936-2.8799c0.936-1.8721,1.872-3.816,2.88-5.76
		c3.888-5.04,3.888-5.04,6.048-7.2c0.576-0.432,1.152-0.864,1.8-1.368c0.936-0.216,1.872-0.432,2.8799-0.72
		c3.816,0.072,7.632,0.144,11.5201,0.288c5.544,0.936,5.544,0.936,8.424,1.8719c1.008,0.6481,2.0161,1.2961,3.096,1.9441
		c1.944,2.664,1.944,2.664,4.824,5.544c0.864,1.5839,1.8,3.24,2.736,4.8959c1.872,5.5441,2.88,7.488,3.312,9.36
		c0.288,3.6,0.288,3.6,0.288,9.864c-0.648,2.1599-1.296,4.32-1.944,6.48c-1.944,2.664-1.944,2.664-4.176,5.04
		c-2.664,1.944-4.536,2.736-6.984,4.752c-0.936,1.0801-0.936,1.0801-1.8,2.6641c0,1.152,0,2.376,0,3.5999
		c0.288,1.5121,0.576,3.0241,0.936,4.6081c0.6479,0.936,1.296,1.872,1.944,2.88c2.088,0.864,4.248,1.8,6.408,2.736
		c4.752,1.4399,4.752,1.4399,9.36,2.376c18.216,2.88,18.216,2.88,25.92,3.8159c7.704,0.2881,15.48,0.648,23.256,1.0081
		c6.9839,0.936,6.9839,0.936,11.016,1.8719c1.008,0.648,2.088,1.2961,3.168,1.944c0.288,0.504,0.648,1.008,1.008,1.584
		c0,1.08,0,2.232,0,3.384c-0.432,0.36-0.864,0.72-1.296,1.152c-0.864,0.288-1.728,0.576-2.592,0.864
		c-9.36,0.2159-21.888,0-32.688,0.4319C205.344,90.216,205.128,90.504,204.192,90.504L204.192,90.504z M92.088,69.1199
		c0-0.3599-0.072-0.7199-0.144-1.0799c0.936-1.44,0.936-1.44,1.944-2.376c0.432,0,0.864-0.072,1.296-0.144
		c1.368,1.008,2.736,2.016,4.104,3.0239c-0.216,0.3601-0.216,0.3601-1.944,0.576C95.616,69.1199,93.888,69.1199,92.088,69.1199
		L92.088,69.1199z M109.584,68.328c0.216-0.72,1.296-1.944,1.8-3.168c0.144-1.512,0.288-3.024,0.504-4.536
		c0.288-0.216,0.576-0.432,0.864-0.6481c1.152-0.1439,2.376-0.2879,3.6-0.432c1.152-0.432,2.376-0.9359,3.6-1.4399
		c1.44-1.656,2.88-3.312,4.32-5.04c0.936-0.144,1.872-0.288,2.88-0.5041c3.6-1.44,3.6-1.44,4.32-1.44
		c0.936,1.2241,1.872,2.5201,2.88,3.8161c1.44,1.008,1.44,1.008,3.816,2.088c0.36,0.936,0.36,0.936,0.576,4.32
		c-0.288,0.936-0.576,1.8719-0.936,2.8799c-7.2,1.224-14.472,2.448-21.744,3.672C113.904,68.04,111.744,68.184,109.584,68.328
		L109.584,68.328z M103.608,65.52c-0.72-0.6481-1.44-1.296-2.16-1.944c-1.08-0.36-2.232-0.7201-3.384-1.1521
		c-0.144-0.2159-0.288-0.432-0.432-0.7199c0-0.792-0.072-1.6561-0.144-2.5201c0.288-0.6479,0.576-1.296,0.936-1.944
		c1.296-1.296,2.592-2.6639,3.96-4.032c0.576-0.288,1.152-0.576,1.728-0.864c0.432,0,0.936,0,1.44,0.072
		c1.296,3.384,1.296,3.384,1.728,5.832c0,0.72,0,1.44,0,2.16c-0.288,0.72-0.576,1.44-0.936,2.16
		c-0.576,0.4319-1.152,0.8639-1.8,1.2959c-0.36,1.584-0.36,1.584-0.72,1.8C103.752,65.664,103.68,65.592,103.608,65.52
		L103.608,65.52z M111.024,53.784c-0.72-0.504-0.72-0.504-1.152-1.2241c0-0.7919-0.072-1.6559-0.144-2.5199
		c0.288-0.576,0.576-1.224,0.936-1.8721c0.936-1.0079,1.872-2.0159,2.808-3.0239c1.872-1.008,1.872-1.008,3.312-1.44
		c1.152,0,2.304,0.072,3.456,0.144c0.288,0.72,0.288,0.72,0.288,4.3199c-0.6479,1.152-1.296,2.376-1.944,3.6
		c-2.736,1.728-2.736,1.728-3.672,2.016C113.616,53.784,112.32,53.784,111.024,53.784L111.024,53.784z M124.992,46.8
		c-0.144-0.504-0.288-1.0081-0.432-1.5121c-0.072-2.088-0.144-4.176-0.216-6.2639c0.288-0.504,0.576-1.08,0.936-1.6561
		c2.304-1.944,4.032-2.808,4.464-3.312c1.44-0.4319,2.88-0.936,4.32-1.44c0.72,0,1.44,0.0721,2.16,0.144
		c-0.072,1.584-0.216,3.168-0.36,4.824c-0.288,0.936-0.576,1.872-0.936,2.88c-0.936,1.0799-1.872,2.232-2.88,3.384
		c-1.872,0.936-3.744,1.944-5.616,2.952C126,46.8,125.496,46.8,124.992,46.8L124.992,46.8z M155.952,41.04
		c0-0.216-0.072-0.504-0.144-0.792c0.864-0.864,0.864-0.864,1.584-1.152c1.224,0,2.52,0.072,3.816,0.144
		c-0.072,0.288-0.216,0.648-0.36,1.0081c-0.72,0.216-1.512,0.504-2.304,0.792C157.68,41.04,156.816,41.04,155.952,41.04
		L155.952,41.04z M140.112,38.304c0.072-1.4399,0.144-2.88,0.288-4.3199c1.008-2.16,1.008-2.16,1.944-3.096
		c0.576-0.288,1.152-0.576,1.8-0.864c1.368-0.144,2.736-0.3601,4.104-0.576c-0.072,1.296-0.216,2.6639-0.36,4.032
		c-0.144,0.288-0.288,0.6481-0.504,1.0081c-0.72,0.576-1.5121,1.224-2.304,1.8719c-1.152,0.576-2.304,1.152-3.528,1.8
		C141.12,38.16,140.616,38.2321,140.112,38.304L140.112,38.304z M152.064,35.208c0-2.0881-0.072-4.176-0.144-6.264
		c0.288-0.648,0.648-1.296,1.008-1.944c1.296-0.864,1.296-0.864,3.024-1.584c0.72,0,1.44,0.072,2.232,0.1439
		c-0.216,2.3761-0.432,4.7521-0.72,7.2001c-0.36,0.3599-2.736,1.296-3.24,1.7999C153.504,34.776,152.784,34.9919,152.064,35.208
		L152.064,35.208z M161.208,31.824c0-0.792,0-1.584,0.072-2.376c0.144-0.36,0.288-0.792,0.504-1.224
		c0.36-0.288,0.72-0.576,1.08-0.864c0.288,0,0.648,0,1.008,0c0.432,0.36,0.936,0.7921,1.44,1.2241
		c0.576,1.296,0.576,1.296,0.576,2.52c-0.216,0.144-0.432,0.288-0.648,0.504c-0.432-0.432-0.432-0.432-1.368-0.432
		C162.648,31.68,162.648,31.68,161.208,31.824L161.208,31.824z M148.032,23.76c-0.216,0-0.4319,0-0.72-0.072
		c0.0721-0.5761,0.144-1.152,0.2881-1.728c0.36-0.288,0.72-0.576,1.08-0.936c0.792-0.2881,1.584-0.576,2.448-0.864
		c0.648,0,1.296,0.072,1.944,0.1439c-2.664,2.0161-2.664,2.0161-3.888,3.4561C148.824,23.76,148.464,23.76,148.032,23.76
		L148.032,23.76z"/>
</g>
</svg>
