<?xml version="1.0" encoding="utf-8"?>
<!-- Generator: Adobe Illustrator 21.1.0, SVG Export Plug-In . SVG Version: 6.00 Build 0)  -->
<svg version="1.1" id="Nauc" xmlns="http://www.w3.org/2000/svg" xmlns:xlink="http://www.w3.org/1999/xlink" x="0px" y="0px"
	 viewBox="0 0 311.472 431.064" enable-background="new 0 0 311.472 431.064" xml:space="preserve">
<g>
	<path fill-rule="evenodd" clip-rule="evenodd" d="M258.84,431.064c-2.088-0.216-4.1761-0.432-6.264-0.72
		c-2.736-0.648-5.544-1.296-8.352-1.944c-12.24-3.816-12.24-3.816-17.568-5.76c-4.104-1.872-8.28-3.816-12.456-5.76
		c-1.224-0.936-1.224-0.936-9.576-4.824c-4.032-1.44-8.136-2.88-12.2401-4.32c-3.672-0.936-7.344-1.872-11.088-2.88
		c-4.536-0.792-9.0721-1.584-13.68-2.376c-3.6-0.216-7.2-0.432-10.8-0.72c-2.448,0.072-4.896,0.144-7.416,0.216
		c-4.104,0.432-8.28,0.936-12.4561,1.44c-1.08,0.288-2.232,0.648-3.384,1.008c-2.088,0.288-4.176,0.576-6.264,0.936
		c-5.256,1.944-5.256,1.944-7.2,2.376c-5.328,2.52-10.656,5.112-16.056,7.704c-2.88,1.944-2.88,1.944-6.696,3.816
		c-3.312,1.296-6.696,2.592-10.08,3.888c-3.456,0.936-6.912,1.872-10.368,2.88c-7.632,0.432-7.632,0.432-8.352,0.72
		c-5.04,0-10.08,0-15.12,0c-2.592-0.432-5.256-0.936-7.92-1.44c-1.224-1.008-1.224-1.008-2.088-2.304
		c-0.648-1.656-1.296-3.312-1.944-5.04c-2.232-7.272-4.464-14.544-6.696-21.816c-1.224-2.232-2.52-4.464-3.816-6.696
		c-0.576-0.648-1.152-1.296-1.728-1.944c-0.792,0-1.584-0.072-2.448-0.144c-1.224,0.504-4.824,0.936-6.48,1.44
		c-0.864,0.072-1.728,0.144-2.664,0.216c-2.16,0.648-4.32,1.296-6.48,1.944c-5.76,2.88-5.76,2.88-6.48,3.6c-0.432,0-0.936,0-1.44,0
		c-0.216-0.144-0.432-0.36-0.648-0.576c0.072-0.432,0.144-0.936,0.288-1.44c1.872-2.88,3.816-5.76,5.76-8.64
		c3.816-7.416,3.816-7.416,6.696-13.896c0-0.288,0-0.648,0-1.008c-2.16-1.872-3.096-3.096-7.2-6.696
		c-0.288-0.144-0.576-0.288-0.864-0.504c-1.08-1.656-3.24-3.816-5.112-6.48c-0.72-0.576-1.44-1.224-2.16-1.872
		c0.072-0.576,0.144-1.152,0.216-1.728c0.144-0.2159,0.36-0.4319,0.576-0.72c0.864,0,1.728-0.072,2.664-0.144
		c1.584-0.72,3.168-1.44,4.824-2.16c0.864-0.144,1.728-0.288,2.664-0.432c1.584-0.6479,3.168-1.296,4.752-1.944
		c2.52-0.648,5.112-1.296,7.704-1.944c2.808-0.432,5.616-0.936,8.424-1.44c3.816-0.216,7.632-0.4319,11.52-0.72
		c5.04,0.504,5.04,0.504,9.792,1.44c5.04,1.944,5.76,2.448,8.64,3.384c1.008,0.936,2.448,1.44,2.88,1.944
		c1.008,0.432,1.944,1.44,3.6,2.376c0.648,0.72,1.296,1.44,1.944,2.16c1.8,3.96,2.232,5.904,4.68,11.448
		c0.72,4.536,0.72,4.536,0.864,8.352c1.08-0.288,2.16-0.576,3.312-0.864c6.768-3.312,7.2-3.816,11.088-5.76
		c5.904-2.376,11.808-4.752,17.712-7.2c7.704-2.592,7.704-2.592,7.92-2.952c-0.144-0.216-0.288-0.432-0.432-0.648
		c-1.584-0.936-3.168-1.872-4.824-2.88c-0.648-0.144-1.296-0.288-1.944-0.432c-0.144-0.144-0.288-0.288-0.432-0.504
		c-0.936-0.216-1.872-0.432-2.88-0.72c-2.88,0.072-5.76,0.144-8.64,0.216c-1.296,0.432-2.592,0.936-3.888,1.44
		c-1.872,0.072-3.816,0.144-5.76,0.288c-0.864-0.144-1.728-0.288-2.592-0.504c-5.04-1.872-10.08-3.816-15.12-5.76
		c-0.432-0.576-0.432-0.576-0.432-1.512c0.144-0.216,0.288-0.432,0.432-0.648c1.512-0.792,3.024-1.584,4.536-2.376
		c2.088-0.2881,4.176-0.648,6.264-1.0081c7.416,0,7.416,0,9.792-0.216c0.072-0.072,0.144-0.216,0.288-0.36
		c-7.92-5.904-7.92-5.904-11.808-8.28c-1.512,0.216-3.024,0.432-4.536,0.72c-4.392,1.08-8.784,2.232-13.176,3.384
		c-1.296-0.072-2.592-0.144-3.888-0.288c-2.376-0.936-2.376-0.936-3.816-1.872c-1.368-1.368-2.736-2.736-4.104-4.104
		c-5.256-3.816-5.256-3.816-9.72-6.552c0-0.432,0-0.936,0-1.44c0.36-0.288,0.72-0.576,1.08-0.864c2.448-0.504,3.6-1.008,7.704-1.944
		c2.16-0.216,2.16-0.216,7.2,0.216c4.32,1.008,4.32,1.008,9.864,1.728c0.072-0.072,0.144-0.216,0.216-0.36
		c-0.936-1.368-2.88-3.24-12.456-15.048c-1.224-0.4319-1.224-0.4319-3.6-0.4319c-0.936,0.288-1.872,0.576-2.88,0.936
		c-2.736-0.072-5.472-0.144-8.208-0.216c-2.664-0.936-5.4-1.872-8.136-2.88c-0.936-0.648-1.872-1.296-2.88-1.944
		c-1.872-2.448-3.816-4.896-5.76-7.344c-1.8-1.512-3.672-3.096-5.544-4.68c0-0.432-0.072-0.864-0.144-1.296
		c0.288-0.288,0.576-0.576,0.864-0.864c1.08-0.144,2.232-0.288,3.384-0.4319c3.096,0.216,3.096,0.216,8.136,1.1519
		c6.264,1.944,6.264,1.944,10.8,3.888c1.44,0.792,2.88,1.584,4.32,2.376c0.144,0,0.36,0,0.576-0.072
		c-0.216-1.224-0.216-1.224-8.208-20.088c-1.728-0.504-1.728-0.504-4.824-0.936c-1.8-0.648-3.672-1.296-5.544-1.944
		c-1.152-0.648-2.376-1.296-3.6-1.944c-0.792-0.576-1.584-1.224-2.376-1.8719c-0.936-1.08-1.872-2.232-2.88-3.384
		c-3.744-8.712-5.688-14.256-7.56-18.36c0.072-0.504,0.144-1.08,0.216-1.656c0.288-0.0721,0.576-0.216,0.864-0.36
		c1.944,0.216,3.096,0.72,5.544,1.152c4.032,1.944,4.032,1.944,7.2,3.888c2.376,1.8719,2.376,1.8719,6.48,5.976
		c0.576,0.864,1.224,1.728,1.872,2.664c0.216,0,0.432,0.072,0.72,0.144c-0.864-8.208-0.864-8.208-1.8-13.464
		c-1.44-0.936-2.952-1.872-4.464-2.88c-1.224-0.576-2.52-1.152-3.816-1.8c-1.224-1.368-2.52-2.736-3.816-4.104
		c-1.368-2.52-2.808-5.04-4.248-7.56c-0.936-3.312-1.872-6.696-2.88-10.08c-0.144-1.152-0.288-2.376-0.432-3.6
		c0.072-1.656,0.144-3.312,0.216-5.04c0.072-0.072,0.216-0.216,0.36-0.36c0.864,0,1.728,0,2.664,0
		c1.728,1.368,3.456,2.736,5.256,4.104c1.368,1.296,2.736,2.5919,4.104,3.96c1.944,3.24,4.68,9.144,5.472,10.08
		c0.36-0.216,0.36-0.216,0.648-0.936c0.072-1.656,0.144-3.312,0.216-5.04c-0.288-1.152-0.576-2.376-0.936-3.6
		c-2.52-4.536-5.112-9.072-7.704-13.68c-1.944-5.04-1.944-5.04-2.88-8.64c-0.288-1.872-0.576-3.816-0.936-5.7599
		c-0.288-6.048-0.288-6.048-0.288-14.4001c0.144-1.296,0.288-2.592,0.504-3.888c0.288-0.792,0.576-1.584,0.936-2.376
		c0.648-0.144,0.648-0.144,3.312,0.792c0.792,0.648,1.584,1.368,2.376,2.088c1.944,2.8799,1.944,2.8799,2.736,4.5359
		c2.88,11.5201,2.88,11.5201,3.384,12.744c0.936,8.64,0.936,12.024,1.296,13.464c0.36-0.288,0.36-0.288,2.304-10.368
		c0.792-2.304,1.584-4.608,2.376-6.912c0.432-0.864,0.936-1.728,1.44-2.664c-0.072-1.368-0.144-2.736-0.216-4.104
		c-1.008-4.032-1.44-4.752-2.448-8.136c-0.504-3.888-1.08-7.776-1.656-11.7361c0-7.2,0-7.2,0.504-13.248
		c0.36-2.52,0.72-5.04,1.152-7.632c0.648-1.656,1.296-3.312,1.944-5.04c1.224-0.72,2.448-1.512,3.744-2.304
		c0.504,0.072,1.08,0.144,1.656,0.216c0.504,0.576,0.504,0.576,2.304,5.4c0.936,4.104,0.936,4.104,2.376,13.464
		c0.144,3.384,0.288,6.84,0.504,10.296c-0.288,1.008-0.288,1.008-0.36,3.384c0.36-0.072,0.792-0.216,1.224-0.36
		c2.16-2.448,2.16-2.448,6.912-9c0-0.864,0.072-1.728,0.144-2.664c-0.648-2.736-1.296-5.544-1.944-8.3521
		c-0.288-2.232-0.576-4.464-0.936-6.768c0.144-3.384,0.288-6.84,0.432-10.296c0.648-2.448,1.296-4.896,1.944-7.4159
		c1.872-4.6801,3.816-9.432,5.76-14.1841c0.288-0.3601,0.576-0.72,0.864-1.08c0.936,0,0.936,0,1.944,0.432
		c1.008,1.1519,1.008,1.1519,2.016,3.312c1.44,6.192,1.872,9.576,2.376,11.232c-0.072,2.52-0.144,5.112-0.216,7.704
		c-0.648,2.808-1.296,5.616-1.944,8.424c-1.224,2.376-1.224,2.376-4.536,10.8c0,0.432,0,0.936,0.072,1.44
		c1.224-0.936,2.448-1.872,3.744-2.88c4.104-4.32,4.104-4.32,5.976-6.768c1.008-1.872,1.008-1.872,6.768-15.84
		c1.872-2.88,3.816-5.04,4.752-6.48c1.008-0.936,2.088-1.872,3.168-2.88c1.872-1.224,3.744-2.448,5.616-3.744
		c2.016-0.936,4.032-1.8719,6.048-2.8799c3.816-1.1521,3.816-1.1521,4.536-1.1521c0.144,0.144,0.288,0.2881,0.504,0.4321
		c0.072,1.368,0.072,1.368-0.864,5.184c-0.648,1.44-1.296,2.88-1.944,4.32c-1.224,2.088-2.52,4.176-3.816,6.2639
		c-1.296,1.5121-2.592,3.024-3.888,4.536c-4.752,3.888-7.776,5.76-8.352,6.48c-2.232,1.44-4.464,2.88-6.768,4.32
		c-0.936,1.008-1.872,2.088-2.88,3.168c0,0.216,0,0.432-0.072,0.72c3.096-1.152,3.096-1.152,6.696-2.088
		c1.368-0.144,2.736-0.288,4.104-0.504c0.936-0.288,1.872-0.576,2.88-0.936c3.384-0.216,4.32-0.504,10.296-0.936
		c0.36,1.08,0.36,1.08,0.144,2.304c-0.648,1.152-1.296,2.376-1.944,3.5999c-1.44,1.8-2.88,3.6-4.32,5.472
		c-5.616,3.744-6.84,4.176-7.272,4.68c-1.44,0.648-2.88,1.296-4.32,1.944c-5.76,0.936-7.2,1.44-19.44,3.096
		c-2.664,0.936-2.664,0.936-4.32,1.944c-1.008,0.936-1.008,0.936-4.968,6.624c0,0.288,0.072,0.576,0.144,0.936
		c8.856-3.744,8.856-3.744,14.616-5.688c1.296-0.288,2.592-0.576,3.888-0.936c6.192-0.504,7.632-0.936,9.36-0.936
		c0.432,0.432,0.432,0.432,0.576,1.584c-0.648,1.5121-1.296,3.024-1.944,4.536c-0.936,1.08-1.872,2.232-2.88,3.384
		c-1.728,1.224-3.456,2.52-5.184,3.816c-2.088,0.792-3.528,1.8-8.136,3.672c-2.592,0.648-5.256,1.296-7.92,1.944
		c-1.296,0.144-2.664,0.288-4.032,0.504c-0.72,0.288-1.44,0.576-2.16,0.936c-1.368,0.9359-2.736,1.8719-4.104,2.88
		c-1.224,1.44-2.52,2.88-3.816,4.32c-0.576,1.512-1.224,3.096-1.872,4.68c-0.432,1.872-0.936,3.816-1.44,5.76
		c0,0.72,0,1.44-0.072,2.16c0.288-0.072,0.576-0.216,0.936-0.36c1.008-0.936,2.088-1.872,3.168-2.88
		c5.76-3.816,5.76-3.816,6.192-4.32c2.88-1.44,5.76-2.376,9.648-4.32c3.096-1.944,3.096-1.944,4.032-2.88
		c0.288-0.072,0.648-0.144,1.008-0.216c0.216,0.144,0.432,0.36,0.72,0.576c0,0.792,0,1.584,0.072,2.448
		c-0.288,1.224-0.576,2.52-0.936,3.816c-0.648,1.512-1.296,3.024-1.944,4.536c-1.224,1.872-2.52,3.816-3.816,5.76
		c-1.512,1.368-3.024,2.736-4.608,4.104c-6.048,3.672-6.048,3.672-10.152,5.616c-1.728,1.224-3.456,2.52-5.256,3.816
		c-1.008,1.368-1.008,1.368-2.304,4.248c-0.144,1.872-0.288,3.816-0.504,5.76c0.072,1.224,0.144,2.52,0.216,3.816
		c0.288,0,0.576,0.072,0.864,0.144c1.368-1.584,2.736-3.168,4.104-4.824c1.512-1.224,3.024-2.52,4.536-3.816
		c1.44-0.792,2.88-1.584,4.32-2.448c0.936-0.288,1.872-0.576,2.88-0.936c0.936-0.648,1.872-1.2961,2.88-1.944
		c1.296-1.152,2.592-2.376,3.888-3.6c0.36,0.072,0.72,0.144,1.152,0.288c0.072,0.144,0.216,0.36,0.36,0.576
		c-0.072,1.728-0.144,3.528-0.216,5.328c-0.648,1.728-1.296,3.456-1.944,5.256c-1.584,2.304-3.168,4.608-4.824,6.984
		c-0.72,0.432-1.656,1.656-6.48,5.472c-2.16,2.16-2.16,2.16-4.752,4.104c-1.368,1.44-2.736,2.88-4.104,4.32
		c-0.36,1.008-0.792,2.016-1.224,3.096c0.288,4.824,0.288,4.824,1.224,11.304c0.36,1.152,0.72,2.376,1.08,3.6
		c0.36-0.36,0.72-0.7921,1.08-1.224c0.936-2.592,0.936-2.592,2.88-5.976c1.584-1.944,3.168-3.96,4.824-5.976
		c1.872-3.312,3.816-6.696,5.76-10.08c0.288-0.792,0.576-1.584,0.936-2.448c0.216-2.376,0.216-2.376,0.504-3.096
		c0.216-0.144,0.504-0.288,0.792-0.504c0.72,0,1.44-0.072,2.232-0.144c0.144,0.216,0.288,0.432,0.432,0.648
		c0.072,5.112,0.216,10.224,0.36,15.336c-0.936,3.888-0.936,3.888-1.944,6.768c-0.576,1.008-1.224,2.016-1.872,3.096
		c-3.888,4.104-3.888,4.104-7.704,8.856c-0.648,0.936-1.296,1.872-1.944,2.88c-0.936,2.448-0.936,2.448-1.44,4.608
		c0,1.8,0,3.6,0,5.472c0.288,1.368,0.648,2.736,1.008,4.104c0.792,1.944,1.656,3.96,2.52,5.976c0.216,0,0.432,0,0.72,0
		c0.432-2.232,0.864-4.464,1.296-6.696c1.44-4.32,1.44-4.32,3.384-8.424c0.792-1.08,1.584-2.16,2.376-3.312
		c0.936-4.104,0.936-4.104,1.44-7.7039c0.432,0,0.864-0.0721,1.368-0.144c0.216,0.36,0.504,0.72,0.792,1.08
		c0.288,1.512,0.576,3.024,0.936,4.608c1.008,2.592,1.008,2.592,1.728,5.976c0.072,3.24,0.144,6.552,0.216,9.864
		c-0.504,0.936-0.504,0.936-1.44,5.976c-2.88,6.984-2.88,6.984-3.6,9.576c0,1.152,0,2.376,0,3.6c1.944,2.88,1.944,2.88,9.576,12.24
		c1.008,1.0081,2.088,2.088,3.168,3.1681c0.432,0.144,0.864,0.288,1.296,0.432c-0.864-5.256-0.864-5.256-1.584-14.616
		c0.288-1.944,0.288-1.944,0.504-12.024c0.072-0.288,0.216-0.576,0.36-0.864c0.36,0,0.792,0,1.224,0
		c1.656,1.656,3.312,3.312,5.04,5.04c0.936,1.584,2.16,2.808,2.952,4.464c1.008,3.888,1.008,3.888,3.384,11.088
		c0.216,2.376,0.216,2.376,0.216,12.96c0.432,2.232,0.936,4.464,1.44,6.696c11.304,7.704,11.304,7.704,20.304,13.32
		c0.72,0.288,1.44,0.576,2.16,0.864c-0.864-2.88-4.68-11.52-6.12-15.624c-0.432-2.16-0.936-4.32-1.44-6.48
		c-0.072-1.152-0.144-2.376-0.216-3.6c0.072-0.216,0.216-0.432,0.36-0.648c0.36,0,0.792,0,1.224,0
		c0.216,0.144,0.432,0.288,0.72,0.504c0.216,0.648,0.504,1.368,0.792,2.088c2.376,1.872,6.48,5.976,7.704,6.912
		c0.936,1.296,1.872,2.592,2.88,3.888c0.576,1.224,1.224,2.52,1.872,3.816c0.72,3.6,1.224,4.536,2.664,9.864
		c0.504,0.72,1.44,3.816,3.384,7.416c1.008,0.648,2.016,1.296,3.024,2.016c1.872-0.072,3.816-0.144,5.76-0.216
		c4.752-0.648,9.576-1.296,14.4-1.944c5.256-0.216,6.192-0.504,18-1.44c5.112,0.216,10.224,0.432,15.336,0.72
		c6.12,0.936,12.312,1.872,18.504,2.88c0.864,0,1.728,0,2.592,0c2.376-0.72,4.752-1.44,7.2-2.16c0.72-1.152,1.512-2.304,2.304-3.456
		c0.576-3.024,1.224-6.048,1.872-9.144c0.648-1.944,1.296-3.96,1.944-5.976c1.944-4.104,1.944-4.104,3.816-7.2
		c4.104-3.816,4.104-3.816,6.12-5.256c2.952-0.864,2.952-0.864,3.672-1.368c0.576,0.072,1.224,0.144,1.872,0.216
		c0.36,0.432,0.36,0.432,0.36,1.584c-0.504,0.504-0.504,0.504-1.44,2.664c-0.288,1.512-0.576,3.024-0.936,4.536
		c-0.216,2.448-0.432,4.968-0.72,7.488c-1.944,4.032-1.944,4.032-4.32,7.632c0.216,0.72,0.216,0.72,0.576,1.008
		c10.656-7.704,10.656-7.704,16.56-11.52c1.728-1.44,3.456-2.88,5.184-4.32c0.144-0.432,0.288-0.936,0.432-1.44
		c-0.216-10.08-0.216-10.08,0-18.504c0.432-2.232,0.936-4.464,1.44-6.696c1.944-3.888,2.448-4.32,4.32-7.704
		c1.224-1.08,2.448-2.16,3.744-3.2401c2.16-0.504,2.664-1.008,4.104-1.224c0.432,0.792,0.864,1.656,1.296,2.52
		c0.216,1.584,0.432,3.168,0.72,4.824c-0.072,2.52-0.144,5.112-0.216,7.704c-0.432,2.232-0.936,4.464-1.44,6.696
		c-1.44,4.32-1.44,4.32-1.584,5.76c0.36-0.072,0.792-0.216,1.224-0.36c2.88-2.592,5.76-5.256,8.64-7.92
		c1.584-1.8,3.2401-3.6,4.896-5.4c-0.072-0.648-0.144-1.296-0.216-1.944c-0.792-1.656-1.584-3.312-2.448-5.04
		c-0.576-1.728-1.224-3.456-1.872-5.256c-0.432-2.232-0.936-4.464-1.44-6.696c0-1.656,0-3.312,0-5.0399
		c0.288-1.8,0.576-3.6721,0.936-5.544c3.816-8.856,3.816-8.856,4.248-9.288c0.288,0,0.576,0,0.936,0
		c1.08,1.008,2.232,2.088,3.384,3.168c0.864,2.016,1.8,4.032,2.736,6.12c0.576,3.024,1.224,6.048,1.872,9.144
		c0,1.008,0.072,2.0161,0.144,3.096c0.216,0,0.432-0.072,0.72-0.144c0.288-0.576,0.648-1.152,1.008-1.8
		c0.72-2.52,1.44-5.04,2.232-7.632c0.36-0.432,0.792-0.936,1.224-1.44c0.072-0.576,0.144-1.152,0.216-1.728
		c-3.528-4.608-7.056-9.216-10.584-13.896c-0.432-1.44-0.432-1.44-2.376-5.04c-0.432-1.872-0.936-3.816-1.44-5.76
		c-0.0721-1.224-0.144-2.52-0.216-3.816c0.144-1.368,0.288-2.736,0.432-4.104c1.944-5.04,1.944-5.04,2.304-5.4
		c1.224,0.216,1.224,0.216,1.728,0.72c0.072,0.288,0.144,0.576,0.288,0.864c1.44,1.512,2.88,3.024,4.32,4.536
		c0.648,0.936,1.296,1.872,1.944,2.88c5.76,11.304,5.76,11.304,6.84,12.744c0.144-0.216,0.36-0.432,0.576-0.72
		c0.432-2.16,0.936-4.32,1.44-6.48c0.072-2.088,0.144-4.176,0.288-6.264c-0.648-0.792-1.2961-1.584-1.944-2.376
		c-2.5201-1.872-5.112-3.816-7.704-5.76c-3.816-5.328-3.816-5.328-5.76-8.64c-0.576-1.368-1.224-2.736-1.872-4.104
		c-1.008-4.32-1.008-4.32-1.224-6.984c0.072-0.792,0.144-1.584,0.216-2.376c0.288-0.504,0.576-1.008,0.864-1.584
		c0.576,0.072,1.152,0.144,1.728,0.216c5.04,3.888,5.04,3.888,7.92,5.76c1.872,2.088,1.872,2.088,4.3199,4.104
		c1.5121,2.016,3.024,4.032,4.536,6.12c0.144,0,0.288,0.072,0.504,0.144c0.144-0.216,0.288-0.432,0.432-0.648
		c-0.072-3.384-0.216-6.84-0.36-10.296c-0.504-0.432-0.504-0.432-1.44-2.16c-1.368-1.224-2.736-2.52-4.176-3.816
		c-2.952-2.016-5.904-4.032-8.856-6.12c-1.08-0.936-2.232-1.872-3.384-2.88c-2.88-3.888-2.88-3.888-3.744-4.68
		c-0.648-1.152-1.2961-2.376-1.944-3.6c-0.36-2.808-0.72-5.616-1.152-8.424c0.144-0.0721,0.36-0.216,0.576-0.36
		c1.296,0.216,2.592,0.432,3.888,0.72c2.376,0.936,2.376,0.936,7.92,3.816c2.592,2.376,5.256,4.752,7.92,7.128
		c0.216,0,0.504,0,0.7921,0c-0.216-3.096-0.216-3.096-0.72-5.04c-0.432-0.792-0.936-1.584-1.44-2.376
		c-0.144-0.792-0.2881-1.584-0.504-2.448c-0.864-2.304-1.8-4.68-2.736-7.056c-1.872-1.008-1.872-1.008-5.04-1.944
		c-2.9521-0.432-5.904-0.936-8.856-1.44c-4.32-1.944-4.32-1.944-7.7039-3.816c-2.88-1.944-2.88-1.944-4.536-3.384
		c-1.944-2.376-1.944-2.376-4.68-6.552c-0.432-1.08-0.936-2.232-1.44-3.384c0-0.432,0-0.936,0.072-1.44
		c0.288,0,0.648-0.072,1.008-0.144c1.152,0.4319,2.376,0.936,3.6,1.44c3.816,0.504,3.816,0.504,8.136,0.504
		c1.008,0.288,2.088,0.576,3.168,0.936c1.152,0.648,2.376,1.296,3.6,1.944c2.0161,1.728,4.104,3.456,6.192,5.256
		c0.216,0,0.4319,0.072,0.72,0.144c-0.2881-0.936-0.576-1.872-0.864-2.88c-1.872-3.6-1.872-3.6-4.752-7.92
		c-1.224-1.224-1.224-1.224-2.808-2.16c-1.512-0.432-3.024-0.864-4.536-1.368c-1.872,0-1.872,0-6.696,1.008c-1.224,0-2.52,0-3.816,0
		c-1.8-0.288-3.672-0.648-5.544-1.008c-1.08-0.576-2.232-1.224-3.384-1.872c-1.224-1.296-2.52-2.592-3.816-3.888
		c-3.816-5.04-3.816-5.04-9.144-11.16c0.504-0.576,0.504-0.576,1.44-0.792c0.288,0.144,0.648,0.288,1.008,0.432
		c2.52,0,5.04,0,7.632,0c7.92,1.944,7.92,1.944,12.528,3.384c0.576,0.36,1.224,0.792,1.872,1.224c1.008,0,1.008,0,1.224-0.36
		c-0.504-0.864-0.504-0.864-5.04-5.184c-3.096-1.944-3.096-1.944-8.856-4.824c-0.864-0.288-1.728-0.576-2.664-0.936
		c-3.096-1.944-3.096-1.944-5.544-4.104c-1.224-1.656-2.52-3.384-3.816-5.112c-0.576-1.944-1.152-3.96-1.8-5.976
		c-0.792-3.672-1.584-7.344-2.448-11.088c-0.432-0.432-0.432-0.432-0.432-1.44c0.072-0.072,0.216-0.216,0.36-0.36
		c0.432,0.072,0.936,0.144,1.4399,0.216c0.504,0.504,0.504,0.504,0.792,1.368c0.648,0.648,1.368,1.296,2.088,1.944
		c5.04,2.736,7.416,3.672,10.584,5.616c0.72,0.576,1.44,1.224,2.16,1.872c4.032,4.8239,4.032,4.8239,7.416,9.72
		c0.576,2.016,1.152,4.032,1.8,6.048c0.144,1.8,0.288,3.672,0.432,5.544c1.944,2.16,6.48,6.192,10.8,10.8
		c0.288,0.072,0.576,0.144,0.864,0.216c-0.36-1.656-0.864-2.664-1.296-4.824c-0.288-0.792-0.648-1.584-1.008-2.376
		c-0.288-1.728-0.576-3.456-0.936-5.256c-1.944-5.544-1.944-5.544-2.376-7.92c0.36-3.168,0.72-6.408,1.152-9.648
		c0.432-1.152,0.936-2.376,1.44-3.6c0.144-1.8,0.288-3.6,0.504-5.472c0.216-0.216,0.432-0.432,0.648-0.648c0.216,0,0.432,0,0.72,0
		c0.936,1.296,0.936,1.296,2.736,5.184c0.576,0.72,1.224,1.44,1.872,2.16c0.648,1.08,1.296,2.232,1.944,3.384
		c1.944,5.256,1.944,5.256,3.096,9.7919c-0.072,2.016-0.144,4.032-0.216,6.048c-0.936,4.32-1.944,7.2-2.16,8.64
		c0.072,2.88,0.144,5.76,0.216,8.64c0.504,2.592,0.504,2.592,0.72,5.472c4.32,6.768,4.32,6.768,4.968,7.2
		c0.072-0.072,0.216-0.144,0.36-0.216c-0.432-2.52-0.936-5.112-1.44-7.704c0-6.192,0-6.192,0.432-9.36
		c0.648-1.224,1.296-2.52,1.944-3.816c1.224-1.512,2.52-3.024,3.816-4.536c0.504-1.224,1.008-4.104,1.368-4.752
		c0.36,0,0.792,0,1.224,0c0.7921,1.152,0.7921,1.152,3.168,6.408c1.008,5.256,1.008,5.256,1.224,8.136c0,3.024,0,6.048,0,9.144
		c-0.648,3.384-1.296,6.84-1.944,10.296c-0.576,2.232-1.224,4.464-1.872,6.768c-0.216,2.376-0.432,4.752-0.72,7.2
		c0.72,1.44,1.152,3.816,2.16,6.192c0.144,0.576,0.288,1.1519,0.432,1.728c0.648,1.152,1.296,2.376,1.944,3.5999
		c0.288,1.08,0.576,2.16,0.936,3.312c0.288,0,0.576,0.072,0.864,0.144c0.288-0.576,0.576-1.152,0.864-1.8
		c0.936-7.92,0.936-7.92,1.872-12.024c0.792-2.016,1.584-4.104,2.448-6.192c0.36-1.728,0.72-3.528,1.08-5.328
		c0.36,0,0.792-0.072,1.224-0.144c0.144,0.216,0.36,0.432,0.576,0.648c1.872,7.416,2.376,8.64,3.096,12.024
		c0.072,3.096,0.144,6.192,0.216,9.36c-0.576,2.9521-1.224,5.904-1.872,8.856c-1.872,4.392-3.816,8.784-5.76,13.176
		c-0.216,1.008-0.432,2.088-0.72,3.168c0,2.952-0.072,5.904-0.144,8.856c0.288-0.072,0.648-0.216,1.008-0.36
		c1.656-2.16,3.384-4.392,5.112-6.624c1.944-1.44,2.376-2.16,4.536-4.032c1.08-0.72,2.16-1.512,3.312-2.304c0.432,0,0.936,0,1.44,0
		c0.288,0.576,0.288,0.576,0.072,8.784c-0.936,3.312-0.936,3.312-2.88,7.92c-0.936,1.728-1.872,3.4561-2.88,5.256
		c-1.44,1.224-2.376,2.664-6.984,6.696c-1.872,2.16-1.872,2.16-3.6,3.6c-0.72,4.752-1.44,9.576-2.232,14.4
		c0.288-0.0721,0.576-0.216,0.936-0.36c5.328-4.824,5.328-4.824,5.76-5.544c2.448-1.656,4.968-3.312,7.488-5.04
		c4.32-0.936,4.32-0.936,5.472-0.936c0.072,0.216,0.216,0.432,0.36,0.648c-2.664,6.696-4.5359,12.672-5.0399,13.392
		c-0.144,0.576-0.2881,1.152-0.504,1.728c-0.576,0.432-0.576,0.432-3.6,5.0399c-1.728,1.44-3.456,2.88-5.256,4.32
		c-9.216,3.672-9.216,3.672-9.936,4.176c-0.072,0.648-0.216,1.296-0.36,2.016c-1.944,4.608-1.944,4.608-2.88,7.92
		c-1.08,2.448-2.232,4.968-3.384,7.488c0,0.36,0,0.72-0.072,1.152c4.32-1.8,4.32-1.8,8.136-3.744
		c3.024-1.008,6.048-2.016,9.144-3.096c1.44,0,2.88,0,4.3199,0c0.432,0.504,2.592,1.44,3.312,2.016c0,0.576,0.072,1.152,0.144,1.728
		c-0.504,0.504-0.504,0.504-1.296,0.792c-4.104,4.32-4.104,4.32-6.048,6.768c-0.288,0.504-0.576,1.008-0.864,1.584
		c-1.224,1.152-2.448,2.304-3.672,3.456c-1.368,0.2159-2.736,0.4319-4.104,0.72c-2.952,0-5.904,0-8.856,0
		c-2.664,0.4319-3.816,0.936-6.48,1.1519c-0.216-0.144-0.432-0.288-0.72-0.4319c-0.36,0.072-0.792,0.144-1.224,0.216
		c-1.296,1.584-2.664,3.168-4.032,4.824c-9.144,8.136-9.144,8.136-12.168,11.16c0,0.216,0.072,0.432,0.144,0.72
		c1.944-0.432,3.96-0.864,5.976-1.368c1.872-0.216,3.816-0.4319,5.76-0.72c4.824,0.288,4.824,0.288,7.488,0.72
		c0.216,0.2881,0.216,0.2881,3.816,1.224c0.864,0.432,1.728,0.936,2.664,1.44c0.216,0.36,0.504,0.72,0.792,1.08
		c0,0.432,0,0.936,0,1.44c-2.52,1.8-4.176,3.456-7.272,5.4c-1.728,0.504-3.168,1.44-5.544,2.376
		c-1.728,0.288-3.456,0.648-5.256,1.008c-2.88,0-5.76,0-8.64,0c-1.224-0.504-1.224-0.504-8.928-1.728
		c-3.816,1.008-5.76,1.944-7.2,2.16c-1.368,1.152-2.736,2.304-4.176,3.528c0,0.288-0.072,0.576-0.144,0.936
		c4.824,0.36,4.824,0.36,9.864,1.296c0.936,0.2881,1.872,0.648,2.8799,1.008c1.008,0.144,2.0161,0.288,3.096,0.432
		c0.36,0.288,0.72,0.576,1.08,0.864c0,0.36,0,0.792,0,1.224c-1.2961,0.576-2.592,1.152-3.9601,1.8
		c-2.016,1.224-4.104,2.5201-6.192,3.816c-1.584,0.648-3.168,1.296-4.824,1.944c-1.872,0.216-3.816,0.432-5.76,0.72
		c-1.224-0.144-2.52-0.288-3.816-0.504c-1.296-0.432-2.592-0.936-3.888-1.44c-1.5121-0.144-3.024-0.288-4.536-0.504
		c-1.008,0.072-2.016,0.144-3.096,0.288c-4.176,1.44-8.352,2.952-12.528,4.464c0,0.216,0,0.432,0,0.72
		c11.304,3.672,11.304,3.672,12.24,4.176c1.8,0.36,3.672,0.72,5.544,1.152c3.024,1.296,6.048,2.592,9.144,3.888
		c7.416,3.816,7.416,3.816,9.7921,4.752c0.936,0.648,1.872,1.296,2.88,1.944c0.36,0.072,0.792,0.144,1.224,0.216
		c0.864-2.232,1.8-4.464,2.736-6.768c0.288-1.368,0.576-2.7361,0.936-4.104c0.288-0.648,0.648-1.296,1.008-1.944
		c0.36-1.44,0.72-2.88,1.152-4.32c1.944-2.376,1.944-2.376,4.104-4.32c1.944-1.224,3.888-2.448,5.904-3.744
		c8.64-3.312,8.64-3.312,8.856-3.6c4.32-0.936,4.32-0.936,5.544-1.44c3.384-0.216,6.84-0.4319,10.296-0.72
		c0.72,0.2881,6.264,0.72,10.368,1.44c2.592,0.7921,5.256,1.584,7.92,2.448c1.656,0.936,1.656,0.936,4.32,1.872
		c6.192,3.96,6.192,3.96,8.136,5.544c0,0.504,0,1.008,0.072,1.584c-0.576,1.08-1.224,2.2321-1.872,3.384
		c-0.792,0.936-1.656,1.944-2.52,2.952c-0.216,0-0.432,0.072-0.72,0.144c-0.072,0.288-0.216,0.576-0.36,0.936
		c-4.464,4.104-4.464,4.104-7.488,6.48c-0.072,0.36-0.144,0.792-0.216,1.224c0.6479,0.792,1.296,1.584,1.944,2.376
		c1.224,2.232,2.52,4.464,3.816,6.768c0.936,3.312,0.936,3.312,1.944,5.256c0.216,1.152,0.432,2.376,0.72,3.6
		c0,1.656,0,3.312,0,5.04c-0.288,0.432-0.576,0.864-0.864,1.296c-0.36,0-0.72,0-1.152,0c-0.288-0.36-0.648-0.792-1.008-1.224
		c-3.6-1.872-3.6-1.872-6.192-2.88c-1.8-0.216-3.672-0.432-5.5439-0.72c-1.8,0-3.672,0-5.544,0c-0.864,2.088-1.296,4.464-1.8,5.184
		c-0.936,3.168-1.944,5.04-2.376,6.48c-3.888,8.208-3.888,8.208-9.144,20.664c-0.648,1.872-1.296,3.816-1.944,5.76
		c-0.36,0.288-0.72,0.576-1.08,0.936c-2.016,0.432-4.104,0.864-6.192,1.296C262.224,430.848,260.568,430.92,258.84,431.064
		L258.84,431.064z M257.904,427.68c-2.808-0.288-5.616-0.576-8.424-0.936c-3.672-0.936-7.344-1.872-11.016-2.88
		c-4.176-1.584-8.352-3.168-12.528-4.824c-1.44-0.936-10.08-4.824-13.392-6.696c-1.44-0.648-2.88-1.296-4.32-1.944
		c-0.864-0.648-1.728-1.296-2.664-1.944c-4.32-1.224-8.64-2.52-12.96-3.816c-7.416-1.656-7.416-1.656-8.424-2.16
		c-4.536-0.864-9.0721-1.728-13.68-2.664c-3.96-0.36-7.92-0.72-11.952-1.152c-4.824,0-4.824,0-12.024,0.432
		c-3.6,0.432-7.2,0.936-10.8,1.44c-2.808,0.648-5.616,1.296-8.424,1.944c-3.6,1.224-7.2,2.52-10.8,3.816
		c-1.6559,1.008-1.6559,1.008-13.896,6.768c-1.512,0.936-3.024,1.872-4.536,2.88c-3.6,1.44-7.2,2.88-10.8,4.32
		c-2.952,0.936-5.904,1.872-8.928,2.88c-10.8,0.936-10.8,0.936-18.432,1.152c-7.704-0.432-7.704-0.432-11.088-0.936
		c-0.504-0.144-1.08-0.288-1.656-0.504c-0.432-0.504-0.864-1.008-1.368-1.512c-0.936-2.448-1.872-4.896-2.88-7.416
		c-1.872-9.36-1.872-9.36-2.88-12.528c-4.752-10.512-4.752-10.512-5.112-11.952c1.368,0.072,2.736,0.144,4.104,0.288
		c3.456-0.216,6.984-0.432,10.512-0.72c1.296-0.288,2.592-0.576,3.888-0.936c12.24-5.256,12.24-5.256,12.672-5.76
		c6.048-2.88,6.048-2.88,6.48-3.384c6.984-3.816,9.144-4.752,9.648-5.256c2.376-0.936,2.376-0.936,9.576-4.824
		c5.472-2.232,11.016-4.4641,16.56-6.696c3.24-0.936,6.552-1.872,9.864-2.88c10.08-1.44,11.9521-1.44,25.632-3.384
		c7.488-0.432,7.488-0.432,11.088-0.936c2.592,0,5.256,0,7.92,0c3.744,0.288,7.488,0.576,11.232,0.936
		c20.448,3.384,20.448,3.384,21.6,3.888c0.216,0.288,0.432,0.576,0.72,0.936c1.296,0.072,2.592,0.144,3.888,0.216
		c4.032,1.296,8.136,2.592,12.24,3.888c1.44,0.288,2.88,0.576,4.32,0.936c2.88,1.224,5.76,2.52,8.64,3.816
		c2.376,1.296,4.752,2.592,7.2,3.888c2.592,0.936,2.592,0.936,4.32,1.872c0.792,0.648,1.584,1.296,2.376,1.944
		c5.04,2.88,7.2,3.816,8.64,4.824c6.264,2.592,6.264,2.592,7.92,3.6c2.952,1.08,5.904,2.16,8.856,3.312
		c2.736,0.576,5.472,1.152,8.208,1.728c1.944,0,3.96,0,5.976,0c0.648-0.144,1.296-0.288,1.944-0.504
		c0.576,0,1.224,0.072,1.872,0.144c0,0.504,0.072,1.08,0.144,1.656c-3.816,9.216-7.632,18.432-11.52,27.648
		c-1.08,2.232-2.16,4.464-3.24,6.768c-1.224,0.288-2.52,0.648-3.816,1.008C262.224,427.536,260.064,427.608,257.904,427.68
		L257.904,427.68z M302.976,390.456c-1.224-0.576-2.52-1.224-3.816-1.872c-1.656-0.432-3.312-0.936-5.04-1.44
		c-2.304,0-4.608-0.072-6.984-0.144c0.288-1.296,0.576-2.664,0.864-4.032c0-0.936,0-1.872,0-2.88
		c-1.944-4.104-1.944-4.104-2.88-5.328c-0.864-0.432-3.168-2.592-5.184-3.96c-3.6-0.792-7.2-1.584-10.8-2.376
		c-3.096,0-3.096,0-11.016-1.008c-2.88-0.936-2.88-0.936-7.2-1.872c-1.944-2.448-1.944-2.448-2.304-3.24
		c-0.072-0.7921-0.144-1.584-0.216-2.376c0.288-0.936,0.576-1.8719,0.936-2.88c1.728-1.296,3.456-2.592,5.184-3.888
		c2.52-1.224,5.112-2.448,7.704-3.744c5.976-1.872,5.976-1.872,10.8-2.88c5.472-0.432,5.472-0.432,8.856-0.432
		c3.744,0.576,7.488,1.224,11.304,1.872c2.016,0.648,4.104,1.296,6.192,1.944c0.504,0.504,0.504,0.504,3.888,1.656
		c0.432,0.72,0.432,0.72,1.872,1.728c1.44,0.432,1.44,0.432,2.88,1.44c0,0.288,0.072,0.576,0.144,0.864
		c-0.288,0.144-0.576,0.288-0.864,0.432c-1.584,2.232-3.168,4.536-4.752,6.84c-1.872,1.584-3.8159,3.168-5.76,4.824
		c-1.944,0.936-1.944,0.936-2.448,1.44c0,0.72-0.072,1.512-0.144,2.304c0.576,0.288,1.152,0.576,1.728,0.936
		c2.16,2.664,2.16,2.664,4.032,5.544c1.008,2.592,1.008,2.592,1.728,3.6c0.288,1.296,0.576,2.664,0.936,4.032
		c0.36,0.72,0.792,1.44,1.224,2.16c0,0.864-0.072,1.8-0.144,2.736C303.48,390.456,303.264,390.456,302.976,390.456L302.976,390.456z
		 M8.496,388.944c0.072-0.432,0.216-0.936,0.36-1.44c2.52-4.032,5.112-8.136,7.704-12.24c0.576-1.584,1.224-3.168,1.872-4.824
		c-0.072-0.504-0.144-1.08-0.216-1.656c-2.88-3.384-4.104-4.32-7.92-8.856c-1.656-1.584-3.312-3.168-5.04-4.824
		c-0.216-0.36-0.432-0.792-0.72-1.224c0-0.288,0.072-0.576,0.144-0.936c1.224-0.576,2.52-1.152,3.816-1.8
		c4.104-1.008,4.104-1.008,6.48-1.944c4.392-0.936,8.784-1.872,13.248-2.88c7.2-0.936,7.2-0.936,13.68-1.44
		c2.448,0.216,4.896,0.432,7.416,0.72c1.44,0.288,2.88,0.576,4.32,0.936c2.304,0.936,4.608,1.872,6.984,2.88
		c6.192,3.888,6.192,3.888,7.2,4.824c0.504,1.008,1.008,2.016,1.512,3.024c0,0.504,0,1.08,0,1.656
		c-0.144,0.288-0.288,0.648-0.504,1.008c-1.8,1.224-3.6,2.52-5.4,3.816c-2.376,0.792-2.376,0.792-5.472,1.296
		c-4.32-0.144-8.64-0.288-12.96-0.504c-4.104,1.008-4.104,1.008-6.264,1.944c-0.432,0.504-1.44,0.936-3.6,2.88
		c-1.584,2.16-3.168,4.392-4.752,6.624c-0.504,1.512-1.008,3.024-1.584,4.536c0.072,1.08,0.144,2.232,0.216,3.384
		c-0.504,0.216-1.008,0.504-1.512,0.792c-10.08,1.944-10.08,1.944-16.128,3.384C10.44,388.584,10.44,388.584,8.496,388.944
		L8.496,388.944z M153.72,336.96c-4.464-0.648-8.9279-1.296-13.464-1.944c-2.664-0.576-5.4-1.224-8.136-1.872
		c-5.544-1.944-5.544-1.944-14.4-5.76c-2.592-1.296-5.256-2.592-7.92-3.888c-6.264-3.816-7.416-4.752-9.36-5.7599
		C95.616,313.92,95.616,313.92,86.976,306c-0.936-1.224-0.936-1.224-3.312-3.096c-2.592-3.24-5.256-6.48-7.92-9.72
		c-1.584-2.592-3.168-5.256-4.752-7.92c-0.432-1.44-4.32-8.424-7.2-15.12c-0.936-2.952-1.872-5.904-2.88-8.856
		c-0.576-4.032-1.224-8.136-1.872-12.2401c-0.72-10.584-0.72-10.584-1.008-11.52c0-5.328,0-5.328,0.504-13.968
		c0.288-2.592,0.576-5.256,0.936-7.92c1.944-8.64,2.448-9.792,3.384-14.112c0.504-0.72,0.504-0.72,2.376-7.488
		c4.824-11.232,4.824-11.232,5.328-13.176c2.592-3.312,5.256-6.696,7.92-10.08c2.664-2.808,5.4-5.616,8.136-8.424
		c5.4-4.104,10.872-8.28,16.344-12.456c1.08-1.44,1.08-1.44,2.736-2.88c1.728-0.864,2.16-1.368,9.864-5.184
		c3.384-1.944,3.384-1.944,11.52-5.76c1.656-0.648,3.312-1.296,5.04-1.944c2.304-0.576,4.608-1.224,6.984-1.872
		c6.552-1.08,13.104-2.16,19.656-3.24c-5.544-2.088-5.544-2.088-9.36-3.96c-1.368-0.864-2.7361-1.728-4.104-2.664
		c-0.432,0.072-0.936,0.144-1.44,0.216c-0.864,0.648-1.728,1.296-2.592,1.944c-1.584,0.6479-3.168,1.296-4.824,1.944
		c-1.728,0-3.456,0-5.256,0c-1.728-0.288-3.528-0.648-5.328-1.008c-1.08-0.576-2.16-1.224-3.312-1.872
		c-0.72-0.6481-1.44-1.2961-2.16-1.944c-1.008-1.368-2.016-2.736-3.024-4.176c-2.448-6.264-2.448-6.264-3.168-7.2
		c0-1.44,0.504-2.664,0.72-4.104c0.288-0.216,0.576-0.432,0.864-0.72c0.288,0.144,0.576,0.288,0.864,0.504
		c0.288,1.08,0.576,2.232,0.936,3.384c2.16,2.88,2.16,2.88,3.24,3.816c3.384,1.944,3.384,1.944,4.32,2.232
		c1.8-0.072,3.672-0.144,5.544-0.216c5.5439-1.944,5.5439-1.944,7.416-2.88c2.448-1.944,2.448-1.944,4.608-4.32
		c0.576-1.152,1.152-2.304,1.728-3.456c0.36,0,0.72-0.072,1.152-0.144c0.432,0.504,0.432,0.504,1.728,4.464
		c1.368,1.368,2.736,2.736,4.104,4.104c0.792,0.576,1.656,1.152,2.52,1.7281c0.936,0.288,1.872,0.648,2.88,1.008
		c1.44,0.072,2.88,0.144,4.32,0.216c1.44-0.288,2.88-0.576,4.32-0.936c4.104-1.944,4.104-1.944,7.4879-3.888
		c0.7921-0.6479,1.584-1.296,2.376-2.016c0.72-1.296,1.44-2.664,2.232-4.032c0.36,0,0.72-0.072,1.152-0.144
		c0.144,0.144,0.288,0.36,0.432,0.576c0,1.008,0.072,2.088,0.144,3.168c0.72,1.008,1.44,2.016,2.16,3.096
		c0.648,0.648,1.2961,1.296,2.0161,1.944c1.44,0.72,2.88,1.44,4.32,2.232c0.648,0.072,1.296,0.144,1.944,0.216
		c3.096-0.576,6.192-1.224,9.36-1.872c0.864-0.2881,1.728-0.648,2.664-1.008c2.88-1.8719,2.88-1.8719,5.472-4.032
		c0.36-0.576,0.576-1.8,1.008-2.16c0.2881,0,0.576,0,0.936,0c0.144,0.36,0.36,0.72,0.576,1.08c-0.216,3.816-0.216,3.816-0.72,5.76
		c-1.944,2.88-1.944,2.88-2.88,4.824c-2.376,2.1599-2.376,2.1599-6.336,4.896c-2.448,0.936-4.896,1.872-7.416,2.88
		c-1.512,0.144-3.024,0.288-4.608,0.432c-1.008-0.072-2.016-0.144-3.096-0.216c-2.376-0.936-2.376-0.936-4.104-1.944
		c-0.144-0.216-0.288-0.432-0.432-0.72c-0.36,0-0.792,0-1.224,0c-0.72,0.6479-1.44,1.296-2.16,1.944
		c-1.584,0.648-3.168,1.296-4.824,1.944c-1.872,0.36-3.8159,0.72-5.7599,1.08c0,0.288,0,0.576,0,0.936
		c4.32,0.576,8.64,1.152,12.96,1.8c1.008,0.504,1.008,0.504,8.424,2.376c14.616,5.76,14.616,5.76,16.56,6.264
		c0.36,0.36,0.792,0.72,1.224,1.08c2.016,0.792,4.104,1.656,6.192,2.52c6.048,3.816,6.048,3.816,9.864,6.696
		c0.504,0.648,1.08,1.296,1.656,1.944c1.728,0.936,1.728,0.936,6.048,4.32c0.432,0.72,0.432,0.72,6.912,7.344
		c1.944,2.88,1.944,2.88,9.6479,12.312c1.872,2.736,3.816,5.472,5.76,8.28c1.224,2.448,2.448,4.968,3.672,7.488
		c1.08,2.952,2.232,5.904,3.384,8.856c0.792,3.096,1.584,6.192,2.376,9.36c0.936,6.768,0.936,6.768,1.44,12.744
		c0,3.96,0,7.992,0,12.024c-0.288,4.176-0.576,8.424-0.936,12.672c-1.296,5.472-2.592,11.016-3.888,16.56
		c-1.872,5.328-1.872,5.328-5.76,14.4c-1.872,3.816-3.816,7.632-5.76,11.52c-2.376,2.88-3.312,4.608-4.32,5.544
		c-0.576,0.9359-1.224,1.8719-1.872,2.88c-1.224,0.936-5.04,5.04-14.04,12.96c-7.848,5.76-10.008,7.704-12.744,9.576
		c-6.912,3.744-6.912,3.744-19.152,9.504c-1.728,0.432-3.888,1.44-7.92,2.376c-0.72,0.288-1.44,0.576-2.16,0.936
		c-3.6,0.648-7.2,1.296-10.8,1.944C167.4,336.744,167.4,336.744,153.72,336.96L153.72,336.96z M159.264,334.8
		c-1.584-0.072-3.168-0.216-4.752-0.36c0-0.216,0-0.432,0-0.72c1.008-0.792,2.088-1.584,3.168-2.376
		c1.296-1.44,2.664-2.88,4.032-4.32c1.296-1.872,2.592-3.816,3.888-5.76c0.576-1.512,1.152-3.024,1.8-4.608
		c0.72-0.36,5.0399-0.792,12.744-2.232c0.36,0,0.72,0,1.152,0.072c0.36,1.0081,0.36,1.0081,0.36,3.384
		c-0.288,1.08-0.576,2.232-0.936,3.384c-0.936,1.584-1.872,3.168-2.8799,4.824c-1.944,2.16-2.88,3.6-4.824,5.76
		c-0.504,0.288-1.008,0.576-1.584,0.936c-0.288,0.4319-0.576,0.864-0.936,1.296C166.176,334.584,166.176,334.584,159.264,334.8
		L159.264,334.8z M149.184,333.864c-11.304-1.944-11.304-1.944-15.408-2.88c-0.072-0.36-0.216-0.72-0.36-1.08
		c4.896-3.816,4.896-3.816,6.984-5.976c2.8799-3.6,2.8799-3.6,4.3199-6.048c0.288-0.72,0.576-1.512,0.864-2.304
		c2.376,0,5.256,0.504,11.736,1.008c2.448,0,4.896,0.072,7.416,0.144c-0.36,2.16-0.36,2.16-1.2961,4.3199
		c-0.504,0.432-2.448,3.816-4.3199,6.192c-1.368,1.296-2.7361,2.592-4.104,3.888C152.28,333,152.28,333,150.336,333.864
		C149.976,333.864,149.616,333.864,149.184,333.864L149.184,333.864z M174.384,333.504c0.216-0.5041,0.504-1.08,0.7921-1.656
		c1.44-1.44,1.944-2.448,2.88-3.168c1.008-1.296,2.016-2.664,3.096-4.032c0.648-1.368,1.296-2.736,1.944-4.104
		c0.504-2.16,0.504-2.16,0.936-6.696c0.144-0.216,0.288-0.432,0.432-0.648c1.872-0.648,3.8159-1.296,5.7599-1.944
		c8.856-3.816,8.856-3.816,9.576-3.888c0,1.224,0,2.52,0.072,3.816c-0.288,1.8-0.576,3.672-0.936,5.544
		c-0.648,1.44-1.296,2.8799-1.944,4.3199c-1.584,2.5201-3.168,5.04-4.752,7.632c-1.224,0.576-2.448,1.152-3.744,1.8
		c-3.816,0.936-4.032,1.224-7.632,2.16C178.704,332.928,176.544,333.216,174.384,333.504L174.384,333.504z M128.016,329.256
		c-13.392-5.76-13.392-5.76-14.544-6.552c0-0.216,0.072-0.432,0.144-0.72c1.512-0.576,3.024-1.152,4.608-1.8
		c3.312-1.944,4.32-2.88,6.192-3.888c1.08-1.08,2.232-2.16,3.384-3.24c0.36-0.864,0.792-1.728,1.224-2.592
		c3.096,0.792,8.136,2.736,11.736,3.672c0.72,0.288,1.44,0.576,2.232,0.864c-0.072,0.648-0.144,1.2961-0.216,1.944
		c-0.288,0.72-0.576,1.44-0.936,2.16c-1.296,1.584-2.592,3.168-3.888,4.824c-1.8,1.44-3.6,2.88-5.4,4.32
		C129.744,329.04,129.744,329.04,128.016,329.256L128.016,329.256z M195.696,327.24c0.432-1.08,0.864-2.16,1.296-3.312
		c0.648-1.008,1.296-2.088,1.944-3.168c1.944-4.752,1.944-4.752,2.664-7.416c0.432-6.48,0.432-6.48,0.72-7.704
		c1.944-1.224,3.96-2.52,5.976-3.816c2.088-1.584,4.176-3.168,6.264-4.824c0.288,0,0.576-0.072,0.864-0.144
		c0.216,0.432,0.504,0.864,0.792,1.368c-0.072,1.8-0.144,3.672-0.216,5.544c-0.648,2.88-1.296,5.76-1.944,8.64
		c-0.504,0.432-0.504,0.432-4.32,8.136c-3.816,2.016-7.704,4.032-11.592,6.12C197.352,326.808,196.56,327.024,195.696,327.24
		L195.696,327.24z M109.8,320.904c-4.824-2.88-7.2-4.824-8.424-5.328c-1.872-1.512-3.744-3.024-5.616-4.608
		c0-0.216,0-0.432,0.072-0.72c1.944-0.288,3.888-0.576,5.832-0.864c1.728-0.432,3.456-0.936,5.256-1.44
		c0.504-0.504,3.6-1.44,5.256-2.448c0.864-0.864,1.728-1.728,2.664-2.592c0.36,0.072,0.792,0.144,1.224,0.216
		c6.192,3.816,6.192,3.816,10.872,6.12c0,0.288,0,0.648,0,1.008c-0.936,1.656-0.936,1.656-3.6,4.536
		c-1.8,0.936-2.88,1.944-7.056,4.176c-1.4399,0.288-2.8799,0.576-4.3199,0.936c-0.432,0.288-0.936,0.648-1.44,1.008
		C110.304,320.904,110.088,320.904,109.8,320.904L109.8,320.904z M214.704,316.728c0.072-0.648,0.144-1.2961,0.288-1.944
		c1.008-1.944,1.008-1.944,1.728-4.824c0.432-3.096,0.432-3.096,0.936-4.32c0.144-2.304,0.288-4.608,0.504-6.912
		c-0.504-1.7281-0.504-1.7281-1.224-2.664c0-0.36,0-0.7921,0-1.224c4.536-4.536,4.536-4.536,6.624-6.984
		c0.288,0,0.576,0,0.936-0.072c0.288,0.504,0.648,1.008,1.008,1.512c1.7281,6.552,1.7281,6.552,2.0161,8.928c0,1.8,0,3.672,0,5.544
		c-0.216,1.44-0.432,2.88-0.72,4.32C216.072,316.008,216.072,316.008,214.704,316.728L214.704,316.728z M157.536,314.136
		c-1.944-0.144-3.96-0.36-5.976-0.576c0-2.16-0.072-4.32-0.144-6.48c-0.216-1.656-0.432-3.312-0.72-5.04
		c-0.504-0.936-0.504-0.936-0.504-1.656c1.368-1.44,2.88-2.376,3.312-3.024c1.656-0.648,3.312-1.296,5.04-1.944
		c4.032-0.432,4.032-0.432,6.912-1.152c0.648,0,1.296,0,1.944,0.072c1.08,2.088,2.16,4.176,3.24,6.264
		c0.936,3.384,0.936,3.384,2.16,6.048c0,1.44,0,1.44-0.72,4.32c0.288,0.432,0.576,0.936,0.936,1.44
		c-0.0721,0.216-0.144,0.432-0.216,0.72c-2.016,0.216-4.032,0.504-6.12,0.792C163.656,313.992,160.632,314.064,157.536,314.136
		L157.536,314.136z M146.736,312.984c-2.664-0.648-5.4-1.296-8.136-1.944c-5.7599-1.944-5.7599-1.944-12.744-4.824
		c-1.728-1.008-3.456-2.088-5.256-3.168c0-0.288-0.072-0.648-0.144-1.008c1.44-1.224,2.88-2.52,4.32-3.816
		c2.088-2.664,4.176-5.4001,6.264-8.136c0.432,0,0.864-0.072,1.296-0.144c1.08,0.576,2.232,1.224,3.384,1.872
		c2.088,1.584,4.1761,3.168,6.264,4.824c0.864,1.44,1.8,2.952,2.736,4.464c0.144,0.648,0.288,1.296,0.432,1.944
		c0.216,0.144,0.432,0.288,0.648,0.432c1.296-0.936,1.296-0.936,2.376-1.152c0.288,1.584,0.576,3.168,0.864,4.752
		c0,1.368,0,2.736,0,4.104c-0.144,0.504-0.288,1.08-0.504,1.656C147.96,312.84,147.384,312.912,146.736,312.984L146.736,312.984z
		 M175.824,312.48c-0.144-3.24-0.144-3.24-1.368-11.376c-1.152-2.232-2.376-4.464-3.6-6.696c0-0.288,0-0.648,0-1.008
		c1.08-0.504,2.16-1.008,3.24-1.584c0.936-0.144,1.872-0.288,2.88-0.432c1.8-0.648,3.672-1.296,5.544-1.944
		c4.032-2.088,8.136-4.176,12.24-6.264c0.288,0,0.576,0.072,0.936,0.144c1.152,1.08,2.376,2.16,3.6,3.24
		c2.52,3.744,5.112,7.488,7.704,11.304c0.072,0.504,0.216,1.008,0.36,1.584c-1.8,1.224-3.6,2.448-5.4,3.672
		c-7.704,3.816-7.704,3.816-12.2401,5.76c-5.7599,1.944-5.7599,1.944-11.304,3.384C177.552,312.336,176.688,312.408,175.824,312.48
		L175.824,312.48z M93.024,308.16c-2.448-1.944-4.32-4.104-8.424-7.92c-0.288-0.36-0.576-0.792-0.936-1.224
		c0-0.288,0-0.648-0.072-1.008c2.16,0,4.32,0,6.552,0.072c1.584-0.144,3.168-0.288,4.752-0.504c4.32-1.872,4.32-1.872,7.704-3.816
		c0.216,0,0.432,0,0.72,0c2.664,3.384,2.664,3.384,3.6,4.176c-0.072,0.144-0.144,0.2881-0.216,0.504
		c0.504,0.576,1.08,1.152,1.656,1.8c0.504,0,0.504,0,0.72-0.36c-0.72-0.576-0.72-0.576-0.936-1.44c1.44,0.36,1.44,0.36,2.736,1.224
		c0,0.36,0,0.792,0.0721,1.224c0.072-0.216,0.144-0.432,0.288-0.72c0.936,0.288,0.936,0.288,1.44,0.72c0,0.288,0,0.576,0.072,0.936
		c-0.288,0.432-0.576,0.936-0.936,1.44c-0.792,0.648-1.656,1.296-2.52,1.944c-2.88,0.72-5.76,1.44-8.64,2.232
		C98.136,307.656,95.616,307.872,93.024,308.16L93.024,308.16z M229.824,304.704c-0.288-3.744-0.576-7.488-0.864-11.304
		c-0.936-2.376-1.872-4.752-2.88-7.2c0-0.432,0-0.936,0-1.44c1.224-1.8,2.52-3.6,3.816-5.472c1.44-2.448,2.88-4.968,4.32-7.488
		c0.36,0,0.72-0.072,1.08-0.144c1.296,2.304,1.296,2.304,2.52,3.528c1.944,5.976,1.944,5.976,2.16,7.416
		c-0.072,2.592-0.144,5.256-0.216,7.92c-0.648,2.232-1.296,4.464-1.944,6.768c-1.224,1.44-2.52,2.88-3.816,4.3199
		c-1.08,0.936-2.232,1.872-3.384,2.88C230.4,304.56,230.112,304.632,229.824,304.704L229.824,304.704z M116.784,300.96
		c-3.456-2.88-6.912-5.76-10.368-8.64c0-0.36-0.072-0.72-0.144-1.08c2.52-1.872,3.744-3.096,5.328-4.032
		c0.936-1.008,0.936-1.008,2.376-1.944c1.944-2.376,1.944-2.376,4.248-6.264c0.216,0,0.432-0.072,0.72-0.144
		c8.3521,7.704,8.3521,7.704,10.152,9.072c0,0.216,0,0.432,0,0.72c-1.944,2.376-1.944,2.376-3.816,5.256
		c-4.1039,4.104-4.1039,4.104-7.4879,6.984C117.504,300.888,117.144,300.888,116.784,300.96L116.784,300.96z M209.16,297.36
		c-1.8-3.24-2.808-5.616-5.688-10.152c-1.872-1.872-3.816-3.816-5.76-5.7599c0-0.216,0-0.432,0-0.72
		c1.296-1.584,2.592-3.168,3.888-4.824c1.872-4.104,1.872-4.104,2.5201-4.824c1.44-0.36,1.44-0.36,4.3199-0.36
		c0.36,0.216,0.7921,0.432,1.224,0.72c1.152,0,1.152,0,1.5121-0.36c0.072-0.504,0.216-1.08,0.36-1.656c0.288,0,0.648,0,1.008,0.072
		c2.88,2.808,5.76,5.616,8.64,8.424c1.44,0.792,2.88,1.584,4.3199,2.376c0,0.36,0,0.72,0.0721,1.152
		c-3.816,4.752-3.816,4.752-7.704,9.072c-4.032,3.888-4.032,3.888-7.632,6.768C209.88,297.288,209.52,297.288,209.16,297.36
		L209.16,297.36z M86.976,296.136c-1.296-0.144-2.664-0.288-4.032-0.432c-1.224-0.72-1.224-0.72-3.6-1.224
		c-1.944-2.88-1.944-2.88-3.168-4.176c-2.16-4.248-4.392-8.496-6.624-12.744c0-0.36,0.072-0.72,0.144-1.152
		c1.296,0.576,2.592,1.152,3.888,1.728c0.36,0.288,0.72,0.648,1.152,1.008c3.384,0.936,6.048,1.152,7.488,1.656
		c1.872-0.072,3.816-0.144,5.76-0.216c1.296-0.216,2.664-0.432,4.032-0.72c1.872,2.88,3.816,5.76,5.76,8.64
		c1.08,1.224,2.232,2.448,3.384,3.672c-0.288,0.36-0.576,0.72-0.936,1.08c-3.888,1.944-3.888,1.944-5.76,2.448
		C92.304,295.704,89.64,296.136,86.976,296.136L86.976,296.136z M242.064,290.808c-0.144-0.576-0.288-1.152-0.432-1.728
		c0.288-2.16,0.288-2.16,0.288-5.76c-0.216-1.296-0.432-2.664-0.72-4.032c-0.504-0.72-1.44-3.888-3.384-7.92
		c-0.504-0.72-1.08-1.44-1.656-2.16c0.0721-0.72,0.144-1.44,0.216-2.16c1.944-4.8239,1.944-4.8239,4.4641-13.032
		c0.288,0,0.576,0,0.936-0.072c1.224,1.152,1.224,1.152,3.168,4.032c0.864,2.52,1.8,5.04,2.7361,7.632
		c0.936,5.256,0.936,5.256,1.152,7.92c-0.216,3.096-0.216,3.096,0,4.536c-0.288,0.288-0.576,0.576-0.936,0.936
		c0.216,1.008,0.216,1.008,0.504,1.224c-0.288,0.936-1.224,2.376-3.168,6.696c-0.576,0.936-1.224,1.872-1.872,2.88
		C242.928,290.088,242.496,290.448,242.064,290.808L242.064,290.808z M103.536,289.224c-4.032-4.464-4.032-4.464-7.92-9.648
		c-1.224-2.088-2.52-4.176-3.816-6.336c-1.08-2.232-2.16-4.464-3.24-6.696c-0.072-0.72-0.144-1.44-0.288-2.16
		c-0.216-0.144-0.432-0.288-0.72-0.504c-1.872-5.256-1.872-5.256-2.592-8.64c1.512-0.144,3.096-0.36,4.68-0.576
		c5.76-1.944,5.76-1.944,8.136-3.168c0.36,0,0.72,0.0721,1.08,0.144c0.288,1.44,0.576,2.88,0.936,4.32
		c0.144,0.072,0.288,0.216,0.432,0.36c0.432-0.072,0.936-0.144,1.44-0.216c0.576-0.432,1.224-0.936,1.872-1.44
		c0.432,0,0.936,0,1.44,0c0.576,1.584,1.152,3.24,1.8,4.896c1.224,2.5919,2.52,5.256,3.816,7.92c1.944,2.448,1.944,2.448,5.76,8.424
		c0,0.216,0,0.432,0,0.72c-0.432,0.288-0.936,0.576-1.44,0.936c-0.288,0.576-0.576,1.152-0.936,1.728
		c-4.32,4.752-4.32,4.752-5.256,6.192c-1.368,1.152-2.736,2.376-4.104,3.6C104.256,289.08,103.896,289.152,103.536,289.224
		L103.536,289.224z M83.88,279.36c-4.824-0.936-4.824-0.936-8.136-1.944c-3.888-1.872-3.888-1.872-5.544-3.096
		c-0.936,0-1.224,0.216-2.088-0.072c-0.576-1.296-1.224-2.592-1.872-3.888c-0.936-2.736-1.872-5.544-2.88-8.352
		c-0.288-1.656-0.648-3.312-1.008-5.04c0-1.008,0-2.088-0.072-3.168c0.288,0.072,0.576,0.216,0.936,0.36
		c0.432,0.648,0.936,1.296,1.44,1.944c1.584,1.224,3.168,2.52,4.824,3.816c4.104,2.376,4.104,2.376,4.536,2.88
		c4.32,1.944,4.32,1.944,6.768,2.664c1.152,0.072,2.376,0.144,3.6,0.216c1.872,3.24,1.872,3.24,6.048,11.88
		c-0.072,0.288-0.144,0.648-0.216,1.008c-1.152,0.216-2.304,0.504-3.456,0.792C85.824,279.36,84.888,279.36,83.88,279.36
		L83.88,279.36z M226.944,278.64c-1.008-0.648-2.088-1.296-3.168-1.944c-2.376-2.16-4.32-4.536-9.576-9.36
		c-1.656-0.936-1.656-0.936-4.104-1.8c-0.36-0.648-0.36-0.648-1.296-6.912c0-3.744,0.072-7.488,0.144-11.304
		c1.152-0.36,2.376-0.72,3.6-1.08c5.256-0.792,10.512-1.584,15.84-2.376c8.3521-0.504,8.3521-0.504,11.376-0.36
		c0,3.096,0,3.096-0.288,3.384c-0.144,1.224-0.288,2.52-0.432,3.816c-0.648,2.808-1.296,5.616-1.944,8.424
		c-1.944,4.752-1.944,4.752-2.16,6.192c-0.216,0.216-0.432,0.432-0.72,0.72c-3.816,7.92-3.816,7.92-5.76,11.304
		C227.16,278.784,227.16,278.784,226.944,278.64L226.944,278.64z M165.024,276.48c-1.296-0.072-2.592-0.144-3.888-0.216
		c-0.504-0.288-1.008-0.576-1.584-0.864c-0.072-1.008-0.144-2.016-0.216-3.096c0.288-3.096,0.576-6.192,0.936-9.36
		c0.432-2.16,0.864-4.32,1.368-6.48c1.44-0.648,4.536-1.08,6.984-2.088c2.592-1.872,2.592-1.872,4.752-4.032
		c1.08-1.8,2.16-3.6,3.24-5.4c0.936-3.6,0.936-3.6,1.44-7.416c0-1.44,0-2.88,0-4.32c-0.936-4.32-0.936-4.32-1.944-7.488
		c-0.576-1.008-1.224-2.016-1.872-3.096c-1.656-1.152-3.312-2.376-5.04-3.6c0.072-0.792,0.144-1.584,0.216-2.376
		c0.936-1.944,0.936-1.944,2.016-3.384c0.288-0.288,0.648-0.576,1.008-0.864c1.656,0,3.312,0,5.04,0
		c16.344,3.816,16.344,3.816,19.224,4.824c0.648,0.792,1.296,1.656,2.016,2.52c0.144,0.864,0.288,1.728,0.432,2.664
		c0.216,0.36,0.432,0.72,0.72,1.152c0.144,1.1519,0.288,2.376,0.504,3.6c0,3.312,0,6.696,0,10.08
		c-0.432,2.52-0.936,5.112-1.44,7.704c0.072,1.08,0.144,2.232,0.216,3.384c-1.296,0.432-2.592,0.864-3.888,1.2961
		c-5.76,0.936-5.76,0.936-6.192,1.296c0,0.576,0,1.152,0,1.728c0.936,1.224,1.872,2.5201,2.88,3.816
		c0.504,1.656,0.504,1.656,0.72,5.04c-0.144,0.432-0.288,0.936-0.432,1.44c-0.648,0.936-1.2961,1.872-1.944,2.88
		c-0.72,0.648-1.512,1.296-2.304,1.944c-5.976,3.672-8.856,5.112-9.288,5.616c-5.328,1.872-5.328,1.872-9.36,2.88
		C167.904,276.336,166.464,276.408,165.024,276.48L165.024,276.48z M140.544,272.88c-0.648-0.144-1.296-0.288-1.944-0.504
		c-3.384-1.872-6.264-3.816-8.136-4.752c-5.76-3.888-5.76-3.888-8.208-6.048c-1.872-2.376-1.872-2.376-3.744-5.328
		c-0.2881-0.792-0.576-1.584-0.936-2.448c0-0.864,0-1.728,0-2.592c0.432-1.008,0.936-2.088,1.44-3.168
		c1.224-0.504,2.448-1.008,3.744-1.584c3.816-0.432,3.816-0.432,4.176-0.792c0-0.504-0.072-1.08-0.144-1.656
		c-2.016-2.16-2.016-2.16-4.536-4.32c-1.8-1.008-3.816-2.808-5.04-3.312c-0.288-0.216-0.576-0.504-0.864-0.792
		c0-1.944,0-3.96,0-5.976c0.144-1.296,0.288-2.592,0.504-3.888c0.6479-1.8,1.296-3.6,1.944-5.472
		c1.224-2.304,2.52-4.608,3.816-6.984c1.224-1.584,2.52-3.168,3.816-4.824c0.72-0.576,1.512-1.152,2.304-1.8
		c1.44-0.72,2.88-1.44,4.32-2.16c1.008,0.072,2.088,0.144,3.168,0.216c1.152,0.288,2.376,0.648,3.6,1.008c1.08,0,2.16,0,3.312,0
		c2.52,0.432,5.112,0.936,7.704,1.44c0.864,0.432,1.728,0.936,2.6639,1.44c0.432,0.648,0.864,1.296,1.2961,2.016
		c0.432,2.448,0.432,2.448,0.36,5.616c-0.72,0.288-0.72,0.288-5.0399,0.72c-1.368,0.648-2.7361,1.296-4.104,1.944
		c-1.152,1.224-2.16,1.656-5.04,4.536c-0.576,1.08-1.152,2.16-1.8,3.312c-1.944,5.7599-1.944,5.7599-2.376,8.136
		c0,1.584,0,3.168,0,4.824c0.288,1.152,0.576,2.376,0.936,3.6c0.432,0.936,0.936,1.872,1.44,2.88
		c1.944,2.376,1.944,2.376,3.816,5.256c1.296,0.936,2.592,1.872,3.888,2.88c0,2.16,0,2.16-0.288,2.376
		c-3.816,13.968-3.816,13.968-4.752,16.128C141.408,272.808,140.976,272.808,140.544,272.88L140.544,272.88z M251.424,271.656
		c-0.432-1.296-0.864-4.392-1.152-4.608c-0.576-2.088-1.224-4.176-1.872-6.2639c-0.648-1.368-1.2961-2.7361-1.944-4.104
		c-1.944-2.88-1.944-2.88-4.536-5.976c0.36-5.688,0.72-11.376,1.08-17.064c0.432,0.072,0.936,0.216,1.44,0.36
		c0.792,0.648,1.584,1.296,2.376,1.944c1.296,1.584,2.592,3.168,3.888,4.752c1.728,3.528,1.728,3.528,2.736,4.752
		c1.872,6.696,1.872,6.696,2.376,9.576c0.288,0.288,0.576,0.576,0.864,0.936c0,0.576,0,1.152,0.072,1.728
		c-0.288,1.512-0.576,3.024-0.936,4.536c-1.224,3.096-2.448,6.2639-3.672,9.432C251.928,271.656,251.712,271.656,251.424,271.656
		L251.424,271.656z M81,263.736c-1.08-0.288-2.232-0.576-3.384-0.936c-2.952-1.872-5.904-3.816-8.856-5.76
		c-2.16-1.944-2.16-1.944-5.04-5.544c-0.648-0.2159-1.368-0.504-2.088-0.792c-0.432-4.5359-0.936-9.072-1.44-13.68
		c0-1.44,0.072-2.88,0.144-4.32c0.216,0,0.432,0,0.72,0.072c3.888,5.688,3.888,5.688,5.76,7.92c1.368,1.296,2.736,2.592,4.104,3.888
		c0.504,0.144,1.08,0.288,1.656,0.432c0.432,0.36,0.936,0.792,1.44,1.224c1.872,0.72,3.816,1.44,5.76,2.16
		c0.36,0.648,0.36,0.648,1.296,7.128c0.792,2.448,1.584,4.896,2.448,7.416c0,0.144-0.072,0.36-0.144,0.576
		C82.584,263.592,81.792,263.664,81,263.736L81,263.736z M161.856,253.368c1.8-10.584,1.8-10.584,1.8-12.528
		c1.944-9.36,1.944-9.36,3.816-16.56c0.288-0.7921,0.648-1.584,1.008-2.376c0.288,0,0.576-0.0721,0.864-0.144
		c2.88,1.944,2.88,1.944,3.816,2.88c0.7921,1.368,0.7921,1.368,1.8,4.464c0.288,1.8,0.576,3.672,0.936,5.544
		c-0.072,1.656-0.144,3.312-0.216,5.04c-0.288,1.224-0.648,2.52-1.008,3.816c-0.576,1.224-1.224,2.52-1.872,3.816
		c-2.088,2.664-2.088,2.664-4.104,4.608c-0.936,0.432-1.944,0.864-2.952,1.2961C164.448,253.224,163.152,253.296,161.856,253.368
		L161.856,253.368z M84.816,252.216c-0.288-0.072-0.576-0.144-0.864-0.288c-0.432-2.736-0.936-5.472-1.44-8.208
		c-0.072-2.304-0.144-4.608-0.216-6.912c0.144-0.216,0.36-0.432,0.576-0.72c2.448-0.864,2.448-0.864,7.272-1.872
		c3.6-0.072,7.2-0.144,10.8-0.216c1.224,0.288,2.52,0.576,3.816,0.936c0.072,1.872,0.072,1.872-0.36,4.248
		c-1.584,2.808-3.168,5.616-4.824,8.424c-0.432,0.288-0.864,0.576-1.296,0.936c-0.648,0.072-1.296,0.216-1.944,0.36
		c-2.376,1.08-4.752,2.16-7.2,3.312C87.696,252.216,86.256,252.216,84.816,252.216L84.816,252.216z M146.52,251.064
		c-0.432-0.36-0.936-0.72-1.44-1.08c-3.816-5.184-3.816-5.184-4.824-6.984c-0.288-0.864-0.576-1.728-0.864-2.592
		c-0.216-5.544-0.216-5.544,0-7.488c1.944-4.752,1.944-4.752,3.888-8.64c2.2321-2.16,2.2321-2.16,4.8961-4.032
		c0.576-0.288,1.152-0.576,1.728-0.864c2.88-0.504,2.88-0.504,4.248-0.36c0.144,1.656,0.144,1.656-0.36,5.544
		c-0.576,2.16-1.224,4.32-1.872,6.4799c-1.44,6.624-2.88,13.248-4.32,19.872C147.24,250.92,146.88,250.992,146.52,251.064
		L146.52,251.064z M257.4,250.776c-0.936-2.448-1.872-4.968-2.808-7.4879c-0.504-0.72-1.08-1.44-1.656-2.16
		c-0.288-0.72-0.576-1.44-0.936-2.16c-1.008-1.008-1.008-1.008-2.088-2.664c-4.392-3.816-4.392-3.816-7.056-5.76
		c-0.288-2.448-0.576-4.896-0.936-7.416c-2.448-10.8-2.448-10.8-2.736-13.464c1.152,0.216,2.376,0.504,3.6,0.792
		c3.096,1.944,3.096,1.944,10.512,5.76c4.104,2.88,4.104,2.88,6.12,4.752c0.144,0.576,0.288,1.224,0.504,1.872
		c0,7.92,0,7.92,0.216,9.144c-0.72,10.584-0.72,10.584-1.44,15.84c-0.288,0.936-0.576,1.872-0.936,2.88
		C257.688,250.704,257.544,250.704,257.4,250.776L257.4,250.776z M78.624,246.24c-1.08-0.288-2.232-0.576-3.384-0.936
		c-1.08-0.72-2.232-1.512-3.384-2.304c-1.44-1.368-2.88-2.736-4.32-4.176c-4.32-6.408-4.32-6.408-5.976-8.208
		c-0.288,0-0.576,0-0.936-0.072c0-1.44-0.072-2.88-0.144-4.32c0.288-3.6721,0.576-7.344,0.936-11.0161
		c0.504-1.008,0.504-1.008,1.44-4.608c0.288-0.144,0.576-0.288,0.864-0.432c0.072,0.504,0.216,1.08,0.36,1.656
		c2.16,3.6,2.16,3.6,5.04,9.864c1.224,1.584,2.52,3.168,3.816,4.752c1.44,1.368,2.952,2.736,4.464,4.104
		c0.504,0.216,1.08,0.504,1.656,0.792c0,1.368,0.072,2.808,0.144,4.248c-0.216,1.224-0.432,2.52-0.72,3.816
		c0.216,0.864,0.432,1.728,0.72,2.664c-0.504,0.72-0.504,0.72-0.504,1.44c0.216,0.288,0.432,0.576,0.72,0.936
		c0,0.432,0,0.936,0,1.44C78.84,246.384,78.84,246.384,78.624,246.24L78.624,246.24z M203.184,245.88
		c0.432-2.664,0.864-5.4,1.296-8.136c0-1.944,0-3.96,0-5.976c-0.72-6.768-1.008-7.2-1.008-8.424
		c0.864-0.648,1.728-1.2961,2.664-1.944c5.976-2.664,11.952-5.328,17.928-8.064c1.512-0.288,3.024-0.576,4.5359-0.936
		c2.5201-0.792,5.112-1.656,7.704-2.52c0.576,1.872,1.152,3.816,1.728,5.76c0.648,3.456,1.296,6.912,1.944,10.368
		c0.144,3.168,0.288,6.336,0.504,9.576c-0.288,4.536-0.288,4.536-0.576,4.896c-7.2,0-7.2,0-15.84,0.504
		c-1.728,0.288-3.528,0.576-5.328,0.936c-2.736,0.792-5.544,1.584-8.3521,2.376c-0.4319,0-0.936,0-1.44,0
		c-0.4319-0.288-0.936-0.576-1.44-0.936c-0.288,0.072-0.6479,0.144-1.008,0.216c-0.576,0.648-1.224,1.296-1.872,1.944
		C204.192,245.592,203.688,245.736,203.184,245.88L203.184,245.88z M82.656,233.064c0-1.152-0.072-2.304-0.144-3.4561
		c0.288-2.448,0.648-4.968,1.008-7.488c0.576-2.736,1.224-5.544,1.872-8.352c0.288-0.288,0.648-0.648,1.008-1.008
		c0.144-1.08,0.288-2.16,0.432-3.312c1.944-4.608,1.944-4.608,5.76-12.24c0.936-1.512,1.872-3.024,2.88-4.608
		c0.288,0,0.576-0.072,0.864-0.144c2.448,1.44,3.384,2.448,6.048,4.32c4.032,3.888,4.032,3.888,8.136,8.424
		c1.944,2.808,3.96,5.616,5.976,8.424c0.36,0.36,0.792,0.72,1.224,1.08c0,0.36,0,0.792,0.0721,1.224
		c-1.872,4.32-1.872,4.32-3.816,10.2961c-0.216,2.088-0.432,4.176-0.72,6.2639c-0.072,0.0721-0.216,0.144-0.36,0.216
		c-0.144-0.216-0.36-0.432-0.576-0.72c-1.512-0.288-3.096-0.576-4.68-0.864c-0.216-0.144-0.432-0.288-0.72-0.504
		c-0.504,0-1.08,0-1.656,0c-0.36,0.288-0.792,0.648-1.224,1.008c-1.44-0.288-1.44-0.288-11.52,0
		c-1.512,0.144-3.024,0.288-4.536,0.432C83.664,233.064,83.664,233.064,82.656,233.064L82.656,233.064z M78.624,229.176
		c-2.664-1.872-2.664-1.872-4.608-3.816c-0.936-1.296-0.936-1.296-4.68-8.28c-1.656-3.816-3.312-7.632-5.04-11.52
		c0-0.72,0-1.44,0-2.16c3.816-10.8,3.816-10.8,5.688-14.976c0.288,0,0.576-0.072,0.936-0.144c0,0.864,0,1.728,0.072,2.664
		c0.504,0.72,0.504,0.72,2.16,6.264c0.504,0.432,2.88,6.48,3.888,8.136c1.584,1.296,3.456,3.672,6.12,6.12c0,0.36,0,0.72,0.072,1.08
		c-0.288,0.72-0.576,1.44-0.936,2.16c-0.648,2.808-1.296,5.616-1.944,8.424c-0.144,1.584-0.288,3.168-0.432,4.752
		c-0.144,0.36-0.288,0.792-0.504,1.224C79.2,229.104,78.912,229.104,78.624,229.176L78.624,229.176z M202.896,220.968
		c-0.36-1.44-0.36-1.44-0.216-2.304c0.288,0,0.576-0.072,0.936-0.144c0.36-1.44,0.36-1.44,1.296-11.736
		c1.944-2.664,4.104-5.04,5.04-6.48c4.392-3.6,8.856-7.2,13.32-10.8c0.648-0.216,1.296-0.432,1.944-0.648
		c1.296,1.872,2.592,3.744,3.888,5.688c1.224,2.304,2.448,4.608,3.672,6.984c0.792,1.872,1.584,3.816,2.376,5.76
		c0,0.288,0,0.648-0.072,1.008c-1.944,0.504-1.944,0.504-9.36,1.44c-2.664,0.792-5.4,1.584-8.136,2.448
		c-1.08,0.576-2.232,1.224-3.384,1.872c-1.008,0.792-2.016,1.584-3.096,2.448c-5.04,2.88-5.04,2.88-6.2639,3.816
		C204.192,220.536,203.544,220.752,202.896,220.968L202.896,220.968z M258.12,217.224c-3.096-2.16-3.096-2.16-4.104-3.168
		c-1.584-0.936-3.168-1.872-4.752-2.88c-2.304-0.936-4.608-1.872-6.984-2.88c-1.4399-0.288-2.8799-0.576-4.3199-0.936
		c-1.224-2.808-2.448-5.616-3.744-8.496c-1.08-2.088-2.232-4.176-3.384-6.264c0-0.288,0-0.576-0.072-0.936
		c2.448,0.216,4.896,0.504,7.416,0.792c1.296,0.288,2.592,0.648,3.888,1.008c8.136,3.816,8.136,3.816,9.576,4.752
		c0.864,0.792,1.728,1.584,2.664,2.448c0.432,0.144,0.936,0.36,1.44,0.576c0.792,2.16,0.792,2.16,2.736,9.864
		c0.432,4.104,0.432,4.104,0.36,6.12C258.624,217.224,258.408,217.224,258.12,217.224L258.12,217.224z M119.16,212.184
		c-1.8-2.448-3.672-4.896-5.544-7.344c-2.232-2.448-4.464-4.896-6.696-7.344c-0.504-0.288-1.08-0.576-1.656-0.936
		c-2.16-2.16-2.16-2.16-7.632-6.336c0-0.288,0-0.576,0-0.936c3.888-4.824,3.888-4.824,7.704-8.928c2.52-2.232,5.04-4.464,7.56-6.696
		c0.36,0,0.792-0.072,1.224-0.144c2.232,5.688,2.232,5.688,2.736,7.56c2.52,4.248,5.112,8.496,7.704,12.744
		c1.152,1.512,2.376,3.024,3.6,4.536c0.936,2.88,1.656,4.104,1.656,4.824c-2.088,1.584-4.176,3.168-6.264,4.824
		c-1.08,1.296-2.16,2.664-3.312,4.032C119.88,212.04,119.52,212.112,119.16,212.184L119.16,212.184z M83.376,209.736
		c-0.72-0.576-1.44-1.224-2.16-1.872c-0.864-1.152-1.8-2.304-2.736-3.456c-1.944-5.328-3.888-9.144-5.328-13.248
		c-0.072-3.096-0.144-6.192-0.216-9.36c1.224-1.872,2.52-3.816,3.816-5.76c3.888-4.5359,3.888-4.5359,6.912-7.56
		c0.216,0,0.432,0,0.72-0.072c-0.288,1.8-0.576,3.6-0.864,5.472c0.072,2.016,0.144,4.032,0.216,6.048
		c0.288,1.728,0.576,3.456,0.936,5.256c0.936,2.088,1.872,4.176,2.88,6.264c0.936,1.008,1.872,2.016,2.88,3.096
		c-0.072,0.432-0.144,0.936-0.216,1.44c-0.936,1.8-1.872,3.672-2.88,5.544c-0.936,2.88-1.944,4.536-3.24,8.208
		C83.88,209.736,83.664,209.736,83.376,209.736L83.376,209.736z M202.464,204.48c-3.384-0.936-3.384-0.936-15.912-5.616
		c0-0.288,0-0.576-0.072-0.936c0.504-0.432,1.08-0.936,1.656-1.44c0.288-0.576,0.576-1.152,0.936-1.728
		c3.672-3.6,7.344-7.2,11.088-10.8c0.576-0.792,1.224-1.584,1.872-2.376c2.592-2.376,5.256-4.752,7.92-7.2
		c0.504,0,1.008-0.072,1.584-0.144c1.512,1.368,3.024,2.736,4.608,4.104c2.232,2.52,4.464,5.0399,6.768,7.56c0,0.216,0,0.432,0,0.72
		c-1.656,1.512-3.312,3.024-5.04,4.536c-1.8,1.296-3.6,2.592-5.4,3.888c-2.952,3.096-5.904,6.264-8.856,9.432
		C203.256,204.48,202.896,204.48,202.464,204.48L202.464,204.48z M182.304,197.496c-3.384-0.936-3.384-0.936-5.328-1.872
		c-0.144-2.52-0.144-2.52,0.144-3.024c1.872-12.96,1.872-12.96,1.872-15.336c-0.288-0.432-0.648-0.864-1.008-1.368
		c-1.728-0.432-3.528-0.936-5.328-1.44c-1.152-0.072-2.376-0.144-3.6-0.216c-0.36-0.144-0.72-0.288-1.152-0.504
		c-0.864-1.512-1.368-3.456-1.872-4.392c-2.376-11.304-2.376-11.304-2.448-12.744c2.376,0.072,4.752,0.216,7.2,0.36
		c2.016,0.288,4.104,0.576,6.192,0.936c2.52,0.648,5.112,1.296,7.704,1.944c3.312,1.224,6.696,2.52,10.08,3.816
		c2.448,1.296,4.896,2.592,7.416,3.888c2.016,1.44,4.032,2.88,6.0479,4.32c0,0.36,0,0.72,0.0721,1.08
		c-1.224,0.936-2.16,2.16-4.32,4.104c-2.736,1.872-2.736,1.872-5.256,4.032c-2.088,2.16-4.176,4.32-6.2639,6.48
		c-1.944,2.664-1.944,2.664-7.2,8.2079c-0.288,0.504-0.576,1.08-0.936,1.656C183.672,197.424,183.024,197.424,182.304,197.496
		L182.304,197.496z M253.08,197.064c-0.936-0.648-1.872-1.2961-2.88-1.944c-4.104-1.944-4.104-1.944-8.856-3.816
		c-2.232-0.432-4.464-0.936-6.768-1.44c-1.872-0.072-3.816-0.216-5.76-0.36c-3.816-5.04-3.816-5.04-7.632-9.504
		c-1.728-1.728-3.528-3.456-5.328-5.256c0-0.36-0.072-0.72-0.144-1.08c0.936-0.288,1.872-0.576,2.808-0.864
		c2.664-0.36,5.4-0.792,8.136-1.224c2.088,0,4.176,0,6.264,0c1.944,0.288,3.96,0.648,5.976,1.008c2.88,3.816,2.88,3.816,4.896,5.904
		c1.944,3.096,1.944,3.096,3.888,5.256c0.936,1.584,1.872,3.168,2.88,4.824c0.936,2.304,1.872,4.608,2.88,6.912
		c0.072,0.432,0.144,0.936,0.216,1.44C253.296,197.208,253.296,197.208,253.08,197.064L253.08,197.064z M127.584,193.896
		c-1.944-2.52-1.944-2.52-7.632-11.592c-0.432-1.224-0.936-1.656-2.88-6.48c-0.432-2.88-0.432-2.88-0.936-3.816
		c0.072-0.288,0.144-0.648,0.216-1.008c2.88-1.872,5.832-3.744,8.784-5.616c3.024-1.296,6.048-2.592,9.144-3.888
		c2.4481-0.792,4.8961-1.584,7.416-2.376c0.432,0,0.936,0,1.44-0.0721c0.288,2.664,0.576,5.4,0.864,8.136
		c1.872,8.856,1.872,8.856,5.256,21.816c0.072,0.864,0.144,1.728,0.216,2.664c-0.648,0-1.296,0-2.016,0.072
		c-4.32-0.936-9.36-1.44-11.2321-1.872c-0.4319-0.216-0.936-0.432-1.44-0.72c-1.08,0-2.232,0-3.384,0
		c-1.44,0.936-1.44,0.936-2.304,2.016c-0.504,2.448-0.504,2.448-0.792,2.736C128.088,193.896,127.872,193.896,127.584,193.896
		L127.584,193.896z M155.16,192.744c-1.08-0.144-2.232-0.36-3.384-0.576c-2.016-8.64-2.016-8.64-4.896-19.008
		c-0.576-3.384-1.1519-6.84-1.728-10.296c0-3.384,0-3.384-0.216-3.6c0.072-0.288,0.216-0.576,0.36-0.864
		c3.024-0.504,6.048-1.08,9.144-1.656c2.232,0,4.536,0.072,6.84,0.144c0.432,1.2961,0.936,2.664,1.44,4.032
		c0.936,6.48,0.936,6.48,2.16,11.808c-0.504,0.072-1.008,0.144-1.584,0.288c-0.36,0.432-0.72,0.864-1.152,1.368
		c0.288,0.432,0.576,0.936,0.936,1.44c0.36,1.656,0.36,1.656,0.36,6.984c-0.144,1.512-0.288,3.024-0.504,4.536
		c-0.432,1.224-0.936,2.52-1.44,3.816c-0.576,0.432-1.152,0.936-1.8,1.44C158.184,192.6,156.672,192.672,155.16,192.744
		L155.16,192.744z M91.296,192.024c-1.008-1.08-2.016-2.16-3.096-3.24c-0.576-1.728-1.152-3.4561-1.8-5.256
		c-0.288-1.8-0.648-3.672-1.008-5.544c0-1.08,0-2.232,0-3.384c0.576-2.664,1.152-5.4,1.728-8.136
		c-0.288-0.504-0.288-0.504-0.288-1.224c0.72-0.72,1.44-1.44,2.16-2.16c2.376-1.728,4.752-3.456,7.128-5.184
		c0.288,0,0.576,0,0.936-0.072c-0.288,1.44-0.576,2.88-0.864,4.32c0,1.728,0,3.456,0,5.256c0.504,1.944,0.504,1.944,0.504,4.104
		c0.648,2.304,1.296,4.608,1.944,6.9839c0.504,0.72,1.08,1.44,1.656,2.16c0,0.36,0,0.72,0,1.152
		c-2.52,3.312-5.112,6.696-7.704,10.08C92.16,191.88,91.728,191.952,91.296,192.024L91.296,192.024z M102.096,178.776
		c-1.152-1.1519-1.152-1.1519-2.016-2.736c-1.008-3.8159-1.008-3.8159-1.944-9.072c0-1.656,0-3.312,0-5.04
		c0.432-2.016,0.936-4.032,1.44-6.048c0.288-0.432,0.576-0.936,0.936-1.44c3.168-2.592,3.168-2.592,4.752-3.456
		c0.288-0.432,0.576-0.864,0.936-1.368c1.152-0.792,2.376-1.656,3.6-2.52c0.504-0.072,1.08-0.144,1.656-0.288
		c-0.36,7.632-0.36,7.632-1.08,12.672c0.288,1.8,0.576,3.672,0.936,5.544c0.288,0.792,0.648,1.584,1.008,2.376
		c0.36,0.36,0.72,0.792,1.152,1.224c0,0.288,0,0.576,0,0.936c-7.92,6.7679-7.92,6.7679-10.296,9.144
		C102.816,178.704,102.456,178.704,102.096,178.776L102.096,178.776z M212.256,171.576c-1.656-1.224-3.312-2.52-5.04-3.816
		c-2.592-1.584-5.256-3.168-7.92-4.824c0-0.216-0.0721-0.504-0.144-0.792c2.664-1.944,2.664-1.944,6.192-3.744
		c4.32-0.864,8.64-1.728,12.96-2.664c3.6,0.504,3.6,0.504,5.472,0.504c2.448,1.944,2.448,1.944,6.768,5.976
		c1.296,1.44,2.664,2.88,4.032,4.32c2.016,3.528,2.016,3.528,2.016,4.032c-0.36,0.216-2.448-0.432-11.592-0.864
		c-1.944,0.432-1.944,0.432-5.544,0.432c-1.8,0.432-3.6,0.936-5.472,1.44C213.408,171.576,212.832,171.576,212.256,171.576
		L212.256,171.576z M115.776,167.256c-0.576-0.72-1.224-1.44-1.872-2.232c-0.864-2.16-0.864-2.16-1.152-3.6
		c0-4.104,0-4.104,0.72-14.4c1.008-1.656,1.008-1.656,1.944-2.664c2.16-1.224,4.392-2.448,6.624-3.744
		c4.536-1.872,6.264-2.88,7.416-3.168c-1.5121,3.384-3.096,6.84-4.68,10.296c-0.36,1.44-0.792,2.88-1.224,4.32
		c-0.072,3.744-0.144,7.4879-0.216,11.304c-2.088,1.224-4.176,2.52-6.336,3.816C116.64,167.184,116.208,167.184,115.776,167.256
		L115.776,167.256z M196.2,161.496c-9.864-3.816-9.864-3.816-15.768-5.616c0-0.288,0-0.576,0-0.936
		c0.648-1.08,1.296-2.232,1.944-3.3839c4.32-3.816,4.32-3.816,7.056-5.76c1.944-0.864,1.944-0.864,8.712-2.52
		c2.16-0.216,2.16-0.216,3.096-0.72c0.432,0.072,0.936,0.144,1.44,0.216c3.5999,1.944,3.5999,1.944,8.424,3.888
		c2.376,1.872,2.376,1.872,7.632,5.256c0.504,0.864,0.504,0.864,0.288,1.224c-1.08,0.144-2.232,0.288-3.384,0.432
		c-1.512,0.432-3.024,0.936-4.536,1.44c-1.728,0.288-3.528,0.648-5.328,1.008c-4.536,1.872-4.536,1.872-5.256,2.376
		c-0.72,0.144-1.44,0.288-2.16,0.504c-1.368,2.304-1.368,2.304-1.944,2.736C196.344,161.64,196.272,161.568,196.2,161.496
		L196.2,161.496z M126.36,161.28c-0.216-1.152-0.432-2.304-0.648-3.4561c0-1.8,0-3.672,0-5.5439c0.648-2.16,1.296-4.32,1.944-6.48
		c0.936-1.944,1.872-3.96,2.88-5.976c1.152-1.368,2.304-2.736,3.456-4.104c7.992-1.8,7.992-1.8,15.912-3.024
		c0.576,0,1.224,0.072,1.872,0.144c-5.76,8.136-5.76,8.136-7.56,11.304c-1.44,3.816-1.44,3.816-1.944,6.264
		c-0.072,1.872-0.144,3.816-0.216,5.76c-4.824,1.656-9.648,3.384-14.472,5.112C127.224,161.28,126.792,161.28,126.36,161.28
		L126.36,161.28z M145.296,155.304c-0.144-1.08-0.36-2.16-0.576-3.24c0.144-1.08,0.288-2.2321,0.432-3.384
		c0.936-2.304,1.872-4.608,2.88-6.912c1.872-2.52,3.816-5.112,5.76-7.7039c2.448-1.944,2.448-1.944,2.808-2.5201
		c10.584,0.432,10.584,0.432,11.016,0.72c2.52,0.36,5.112,0.72,7.704,1.152c0.216,0.36,0.216,0.36-0.216,1.008
		c-0.36,0.144-0.792,0.288-1.224,0.432c-1.008,0.936-2.016,1.872-3.096,2.88c-1.872,2.592-3.816,5.184-5.76,7.848
		c-1.872,3.384-1.872,3.384-2.808,4.536c-0.936,2.664-0.936,2.664-1.44,3.384c-1.8,0.36-8.28,0.792-14.256,1.8
		C146.16,155.304,145.728,155.304,145.296,155.304L145.296,155.304z M175.32,155.016c-3.744-0.432-7.488-0.864-11.304-1.296
		c0.072-0.864,0.216-1.728,0.36-2.592c0.936-1.44,2.16-2.664,8.136-10.8c1.944-2.16,1.944-2.16,4.248-4.104
		c1.872-0.936,1.872-0.936,2.88-1.8c2.16,0.216,2.16,0.216,5.76,1.152c5.0399,1.944,5.0399,1.944,10.584,4.464
		c0.216,0.288,0.432,0.576,0.72,0.864c-0.504,0.432-6.48,2.376-7.2,2.88c-0.432,0.144-0.936,0.288-1.44,0.432
		c-1.656,1.296-3.312,2.592-5.04,3.888c-1.944,2.232-1.944,2.232-5.328,6.912C176.904,155.016,176.112,155.016,175.32,155.016
		L175.32,155.016z M117.216,99.864c-0.288-0.144-0.576-0.288-0.936-0.504c0-0.648-0.072-1.296-0.144-2.0161
		c0.648-1.3679,1.296-2.7359,1.944-4.1039c0.792-0.864,1.584-1.728,2.376-2.592c2.808-2.088,2.808-2.088,4.248-3.744
		c0-0.4321,0-0.864,0.072-1.296c-1.224-1.368-2.52-2.736-3.816-4.104c-0.504-0.36-1.008-0.7201-1.584-1.08
		c-0.432-0.6481-0.864-1.296-1.296-2.0161c-0.072-0.936-0.144-1.872-0.288-2.8799c0.288-0.288,0.576-0.576,0.864-0.864
		c0.432,0.072,0.936,0.144,1.44,0.216c0.576,0.648,1.152,1.296,1.728,1.944c0.504,0.288,1.08,0.5759,1.656,0.936
		c1.44,1.944,2.664,2.8799,3.6,4.176c0.36,0.36,0.792,0.7199,1.224,1.0799c0.432-0.0719,0.936-0.1439,1.44-0.2159
		c3.816-4.1039,4.5359-4.536,7.416-8.136c1.224-0.504,1.224-0.504,2.16-0.504c0.36,0.504,0.792,1.0081,1.224,1.584
		c-0.864,2.16-0.864,2.16-2.808,5.0399c-1.584,1.8001-3.168,3.6721-4.824,5.544c0,0.2881,0.072,0.576,0.144,0.936
		c1.08,1.2241,3.456,3.096,4.464,4.3201c0.288,0.792,0.576,1.584,0.936,2.376c0,0.648,0,1.296,0,1.9439
		c-0.144,0.1441-0.288,0.2881-0.504,0.504c-0.432,0-0.864,0-1.2961,0.0721c-1.656-0.936-4.32-3.3841-7.2-5.2561
		c-0.36,0-0.72,0-1.152,0c-3.888,4.0321-3.888,4.0321-8.208,7.92c-0.36,0.216-0.72,0.432-1.152,0.72
		C118.368,99.864,117.792,99.864,117.216,99.864L117.216,99.864z M220.68,99.864c-0.36-0.36-0.36-0.36-0.36-1.584
		c0.576-0.864,1.224-1.728,1.872-2.592c0.576-1.44,1.152-2.8799,1.728-4.3199c0.072-1.0081,0.144-2.0881,0.216-3.168
		c-0.288-2.592-0.576-5.256-0.936-7.92c-0.288-1.2239-0.648-2.52-1.008-3.816c-1.872-3.5999-1.872-3.5999-3.816-6.2639
		c-0.72-0.7921-1.44-1.584-2.16-2.376c-1.872-1.296-3.744-2.592-5.616-3.96c-0.72-0.288-1.44-0.648-2.16-1.008
		c-2.376-0.2161-4.752-0.432-7.2-0.72c-2.088,0.288-4.176,0.6479-6.264,1.008c-4.536,1.8719-4.536,1.8719-8.136,3.816
		c-0.648,0.648-1.296,1.296-1.944,1.944c-0.288,0.072-0.576,0.144-0.936,0.216c-0.288-0.432-0.576-0.864-0.864-1.296
		c-0.936-4.536-0.936-4.536-1.944-7.2c-1.224-2.1601-2.52-4.32-3.816-6.48c-1.872-1.584-3.816-3.168-5.76-4.824
		c-0.936-0.432-1.944-0.864-2.952-1.296c-2.232-0.432-4.464-0.936-6.768-1.4399c-2.664-0.072-5.4-0.144-8.136-0.288
		c-0.6479,0.144-1.296,0.288-1.944,0.504c-1.152,0.648-2.376,1.296-3.6,1.944c-2.16,1.872-2.16,1.872-4.32,4.392
		c-0.432,0.936-0.864,1.944-1.296,2.952c-0.288,0.36-0.648,0.7201-1.008,1.152c-0.936,2.52-1.872,5.112-2.88,7.704
		c-0.432,2.376-0.432,2.376-0.936,3.6c-0.576,0.36-0.576,0.36-2.0161,0.36c-0.864-0.6479-1.728-1.296-2.664-1.944
		c-2.376-0.936-4.752-1.8721-7.2-2.88c-3.6-0.216-3.6-0.216-11.52,0.216c-0.72,0.504-0.72,0.504-5.472,2.448
		c-2.448,2.16-2.448,2.16-4.32,4.5359c-0.936,1.728-1.872,3.4561-2.808,5.184c-0.936,2.88-0.936,2.88-1.44,3.6001
		c0.072,1.6559,0.144,3.312,0.216,5.04c0.648,2.16,1.296,4.32,1.944,6.48c0.936,1.4399,0.936,1.4399,2.016,2.376
		c1.944,0.864,1.944,0.864,3.168,1.8c0,0.504,0,1.008,0.072,1.5839c-0.576,0.3601-0.576,0.3601-1.296,0.3601
		c-1.008-0.576-2.016-1.152-3.096-1.728c-1.08-0.144-2.232-0.288-3.384-0.432c-1.152-0.6481-2.376-1.296-3.6-1.944
		c-2.16-1.9441-2.16-1.9441-4.032-4.176c-0.576-1.008-1.224-2.0161-1.872-3.0961C90,85.032,89.496,83.736,88.992,82.44
		c-0.072-2.448-0.144-4.896-0.216-7.416c0.288-2.448,0.576-4.896,0.936-7.416C90,66.6,90.36,65.52,90.72,64.44
		c0.72-0.936,1.152-2.376,2.592-5.04c0.648-0.72,1.296-1.4399,1.944-2.16c1.512-1.2241,3.096-2.52,4.68-3.816
		c1.512-0.936,3.024-1.872,4.608-2.808c1.944-0.792,3.96-1.584,5.976-2.376c4.824-0.936,4.824-0.936,10.8-1.6559
		c1.872,0.288,3.816,0.5759,5.76,0.9359c0.792,0.2881,1.584,0.576,2.376,0.936c1.296,0.792,2.592,1.584,3.888,2.448
		c0.288,0,0.648-0.072,1.008-0.144c1.008-2.88,1.008-2.88,1.44-5.04c0.936-2.304,1.8719-4.608,2.88-6.9119
		c1.296-1.584,2.592-3.1681,3.888-4.824c2.592-1.944,4.536-3.816,7.344-5.688c2.592-0.936,2.592-0.936,8.856-2.376
		c1.728-0.072,3.456-0.1441,5.256-0.216c0.72,0.4319,3.384,0.9359,4.104,1.4399c0.72,0.144,1.44,0.288,2.1599,0.432
		c0.432,0.288,0.936,0.648,1.44,1.0081c0.648,0.144,1.2961,0.288,1.944,0.4319c1.656,1.2961,3.312,2.5921,5.04,3.8881
		c0.36,0.072,0.72,0.144,1.152,0.216c0-0.36,0.072-0.72,0.144-1.08c-0.648-2.16-1.296-4.3201-1.944-6.48
		c-0.648-1.512-1.296-3.024-1.944-4.536c-1.224-1.944-2.52-3.96-3.816-5.976c-1.224-1.368-2.448-2.736-3.744-4.104
		c-1.512-0.2881-3.024-0.576-4.536-0.864c-1.5121,0.072-3.024,0.144-4.536,0.216c-2.376,1.008-4.536,1.44-6.696,2.448
		c-0.792,0.576-1.584,1.2239-2.448,1.872c-0.792,0.936-1.584,1.872-2.376,2.808c-0.072,0.432-0.216,0.936-0.36,1.44
		c-1.08,1.2239-1.08,1.2239-1.584,1.44c-0.288-0.144-0.576-0.2881-0.864-0.504c0.216-1.44,0.432-2.8799,0.72-4.3199
		c0.936-1.728,1.872-3.4561,2.88-5.256c2.16-2.16,4.392-4.3201,6.624-6.48C157.464,2.52,159.552,1.296,161.64,0
		c1.152,0.072,2.376,0.144,3.6,0.2159c1.152,0.2881,2.376,0.6481,3.6,1.0081c2.8799,1.8719,2.8799,1.8719,5.256,3.816
		c0.648,0.72,1.296,1.512,1.944,2.3039c1.224,2.3041,2.448,4.608,3.672,6.984c1.296,3.384,2.592,6.8401,3.888,10.2961
		c0.144,1.5839,0.288,3.168,0.432,4.824c-0.432,3.312-0.432,3.312-0.432,7.92c2.376,2.8799,4.752,5.7599,7.2,8.64
		c1.872,4.032,1.872,4.032,2.736,5.328c1.224-0.216,3.6-1.4401,7.2-2.376c2.808-0.36,5.616-0.792,8.424-1.224
		c1.872,0,3.816,0,5.76,0c3.384,1.008,3.384,1.008,7.704,2.88c0.936,0.6479,1.872,1.2959,2.8799,1.944
		c1.224,1.368,2.5201,2.736,3.816,4.176c0.648,1.008,1.296,2.016,1.944,3.024c0.864,2.592,1.8,5.184,2.736,7.848
		c0.432,2.232,0.936,4.464,1.44,6.696c0.072,1.584,0.144,3.1679,0.216,4.824c-0.288,2.376-0.576,4.752-0.936,7.2
		c-0.936,2.1601-1.872,4.3201-2.8799,6.4801c-1.008,0.936-1.944,2.5919-2.7361,3.456c-1.8,0.936-3.672,1.8719-5.544,2.8799
		C222.624,99.36,221.688,99.576,220.68,99.864L220.68,99.864z M186.624,96.696c-0.216-0.144-0.432-0.36-0.72-0.576
		c0-0.36-0.072-0.72-0.144-1.152c0.288-0.6479,0.576-1.296,0.936-1.944c1.872-1.944,3.816-3.96,5.76-5.976
		c-0.0721-0.36-0.144-0.792-0.216-1.224c-1.224-0.936-2.16-2.16-6.264-6.264c-0.792-0.936-1.584-1.872-2.376-2.88
		c0-1.8719,0-1.8719,0.36-2.304c0.504-0.144,1.08-0.2881,1.656-0.432c1.008,0.504,2.088,1.08,3.168,1.656
		c1.08,1.08,2.16,2.2319,3.312,3.384c1.584,1.08,3.168,2.16,4.824,3.312c0.288,0,0.576,0,0.936,0
		c2.52-1.872,5.112-3.816,7.704-5.7601c1.08-0.5759,2.232-1.2239,3.384-1.8719c0.432,0,0.864,0.072,1.2961,0.144
		c-0.0721,0.792-0.144,1.584-0.288,2.376c-0.7921,1.44-1.584,2.88-2.376,4.32c-3.816,4.536-3.816,4.536-5.544,5.976
		c0,0.216,0,0.4319,0,0.72c0.936,1.08,1.872,2.232,2.88,3.384c1.008,2.376,1.008,2.376,1.008,3.3839
		c-0.288,0.2881-0.576,0.6481-0.864,1.0081c-0.36,0.072-0.72,0.144-1.152,0.288c-2.16-1.224-2.16-1.224-3.888-2.664
		c-0.936-1.224-0.936-1.224-2.16-2.16c-0.216,0-0.432,0-0.72,0c-2.664,1.728-5.4,3.4559-8.136,5.256
		C188.208,96.696,187.416,96.696,186.624,96.696L186.624,96.696z M159.984,71.496c-2.664-0.936-2.664-0.936-4.32-1.872
		c-0.6479-0.648-1.296-1.368-1.944-2.0881c-0.288-0.5759-0.576-1.2239-0.864-1.8719c-0.072-0.936-0.144-1.872-0.216-2.8801
		c0.432-4.1039,0.432-4.1039,0.936-5.7599c0.936-0.936,0.936-0.936,1.944-2.664c1.08-0.792,2.16-1.6559,3.24-2.52
		c1.008,0,2.016,0,3.096,0c0.72,0.5039,3.384,0.9359,5.76,1.9439c0.792,0.7921,1.584,1.6561,2.448,2.5201
		c0.216,0.936,0.504,1.872,0.792,2.88c-0.072,1.152-0.144,2.376-0.216,3.5999c-1.944,4.8241-1.944,4.8241-2.88,6.2641
		c-2.736,1.7279-2.736,1.7279-4.68,2.448C162.072,71.496,161.064,71.496,159.984,71.496L159.984,71.496z"/>
</g>
</svg>
