<?xml version="1.0" encoding="utf-8"?>
<!-- Generator: Adobe Illustrator 21.1.0, SVG Export Plug-In . SVG Version: 6.00 Build 0)  -->
<svg version="1.1" xmlns="http://www.w3.org/2000/svg" xmlns:xlink="http://www.w3.org/1999/xlink" x="0px" y="0px"
	 viewBox="0 0 450.288 343.152" enable-background="new 0 0 450.288 343.152" xml:space="preserve">
<g>
	<path fill-rule="evenodd" clip-rule="evenodd" d="M277.344,343.152c-2.376-0.936-2.376-0.936-3.816-2.016
		c-3.816-5.04-3.816-5.04-5.76-8.136c-0.864-1.944-0.864-1.944-1.8-5.256c-3.888-7.704-3.888-7.704-6.768-14.4
		c-0.576-1.872-1.224-3.816-1.872-5.76c-1.944-3.888-1.944-3.888-3.888-6.984c-1.872-4.824-1.872-4.824-5.76-13.464
		c-0.576-1.08-1.224-2.16-1.872-3.312c-0.936-2.304-1.872-4.608-2.88-6.984c-7.704-15.84-7.704-15.84-17.28-34.56
		c-1.296-1.944-2.592-3.96-3.888-5.976c-3.816-6.912-7.632-13.896-11.52-20.88c-3.816-8.424-3.816-8.424-5.256-12.24
		c-0.288-0.288-0.576-0.648-0.936-1.008c-0.504-2.16-0.504-2.16-0.72-6.696c0.144-1.152,0.288-2.376,0.432-3.6
		c1.008-3.096,1.008-3.096,2.88-11.52c1.296-3.672,2.592-7.344,3.888-11.016c2.232-7.632,4.464-15.336,6.696-23.04
		c0-0.792,0.072-1.584,0.144-2.448c-5.76-0.864-5.76-0.864-19.944-2.304c-5.256,0-5.256,0-10.08,0.504
		c-3.672-0.648-7.344-1.296-11.016-1.944c-4.32-1.224-8.64-2.52-12.96-3.816c-3.024-1.224-6.048-2.52-9.144-3.816
		c-2.304-1.296-4.608-2.592-6.912-3.888c-3.816-2.52-7.632-5.04-11.52-7.632c-1.224-1.728-2.448-3.456-3.744-5.184
		c-0.648-1.584-1.296-3.168-1.944-4.752c-0.432-2.592-0.936-5.256-1.44-7.92c0-1.656,0-3.312,0-5.04
		c0.648-2.0161,1.296-4.032,1.944-6.048c0.432-0.72,0.936-1.44,1.44-2.16c0-0.288,0.072-0.576,0.144-0.936
		c-1.8,0.072-3.672,0.216-5.544,0.36c-4.032-0.072-8.136-0.144-12.24-0.288c-3.528-0.288-7.056-0.576-10.584-0.936
		c-6.264-0.936-12.6-1.872-18.936-2.88c-3.672-1.224-7.344-2.52-11.016-3.816c-1.728-1.008-11.304-4.824-15.12-6.768
		c-1.584-0.576-3.168-1.224-4.824-1.8719c-5.688-1.584-11.376-3.1681-17.064-4.824c-2.736-0.36-5.544-0.792-8.352-1.2239
		c-1.728,0-3.528,0-5.328,0c-11.952,1.44-11.952,1.44-15.552,2.16c-0.504-0.576-3.168-1.656-4.608-2.592
		c-0.576-0.792-1.224-1.584-1.872-2.448C0.792,63,0.432,62.208,0,61.344c0-0.576,0-1.152,0-1.728
		c0.936-3.312,1.872-6.696,2.88-10.08C6.264,45,6.264,45,8.208,43.056c3.096-1.8721,7.056-3.744,8.496-4.6801
		c1.584-0.6479,3.168-1.296,4.824-1.944c3.816-0.936,3.816-0.936,9.144-2.88c1.512-0.144,3.024-0.288,4.536-0.432
		c3.6-1.008,3.6-1.008,13.896-2.88c4.608-0.504,4.608-0.504,7.488-0.504c1.872-0.504,14.616-2.376,24.192-4.32
		c7.92-0.936,7.92-0.936,13.248-1.944c9.144-0.936,18.36-1.872,27.576-2.88c14.616-2.5201,29.232-5.04,43.92-7.632
		c4.68-0.936,9.432-1.872,14.184-2.88c2.016-0.648,4.104-1.296,6.192-1.9441c3.672-0.6479,7.344-1.2959,11.088-1.9439
		c3.9601-0.936,7.92-1.8721,11.952-2.88c8.64-1.4401,12.96-1.8721,20.16-3.312c3.24,0.072,6.552,0.144,9.864,0.216
		c3.528,0.288,7.056,0.576,10.584,0.936c6.912,1.944,11.9521,3.888,18.216,5.7599c8.424,3.888,8.424,3.888,15.624,7.704
		c2.592,1.728,5.256,3.456,7.92,5.256c0.936,1.0801,1.872,2.1601,2.88,3.2401c1.728,4.104,1.728,4.104,2.736,5.544
		c0.216,1.008,0.432,2.088,0.72,3.168c0,1.08,0,2.16,0,3.312C297.36,36,297,36.864,296.64,37.8
		c-0.576,0.7921-1.224,1.584-1.872,2.376c-1.728,1.296-3.528,2.592-5.328,3.8879c-9.576,4.824-19.224,9.72-28.872,14.6161
		c-0.0721,0.288-0.144,0.576-0.216,0.936c5.976-0.36,5.976-0.36,22.32-2.016c9.072,0.0721,18.216,0.144,27.36,0.216
		c3.096,0.288,6.192,0.576,9.36,0.936c6.12,0.936,12.24,1.872,18.432,2.88c7.992,1.872,15.984,3.816,24.048,5.76
		c2.016,0.6479,4.104,1.296,6.192,1.944c3.096,0.648,6.192,1.296,9.36,1.944c19.944,7.632,19.944,7.632,31.248,11.52
		c4.464,2.232,8.9279,4.464,13.392,6.696c0.864,0.2881,1.728,0.576,2.664,0.936c4.68,2.5201,9.432,5.112,14.184,7.704
		c5.256,3.816,5.256,3.816,6.1919,4.824c1.0801,0.576,2.2321,1.224,3.384,1.872c0.504,0.504,1.08,1.008,1.6561,1.584
		c0,1.8,0.072,3.672,0.144,5.544c-0.072,0.36-0.216,0.72-0.36,1.08c-0.6479,0.144-1.296,0.288-1.944,0.432
		c-0.432,0.72-4.32,3.6-5.256,4.608c-1.44,0.432-3.096,1.44-5.04,1.872c-1.2239,0.648-2.52,1.296-3.816,1.944
		c-5.04,1.872-10.08,3.816-15.12,5.76c-4.032,1.224-8.136,2.52-12.24,3.816c-4.896,1.296-9.7921,2.592-14.688,3.888
		c-4.824,0.936-9.72,1.872-14.616,2.88c-10.368,1.08-20.736,2.16-31.176,3.24c0.216,1.8,0.504,3.672,0.792,5.544
		c0.072,3.672,0.144,7.344,0.216,11.016c-0.576,1.008-1.224,2.016-1.872,3.096c-0.648,0.72-1.296,1.44-1.944,2.16
		c-1.224,0.864-2.52,1.728-3.816,2.664c0,3.168,0,6.336,0,9.576c-0.648,1.584-1.296,3.168-1.944,4.824
		c-1.944,2.88-1.944,2.88-4.824,5.976c-0.432,1.296-0.936,2.592-1.44,3.888c-0.288,1.8719-0.576,3.816-0.936,5.76
		c0.216,4.536,0.216,4.536,0.72,7.416c-0.072,0.72-0.144,1.44-0.216,2.16c-0.288,0.792-0.648,1.584-1.008,2.376
		c-0.936,1.152-1.872,2.376-2.88,3.6c0,3.816,0,7.632,0,11.52c-0.288,3.024-0.576,6.048-0.936,9.144
		c-0.936,4.32-0.936,4.32-1.944,6.984c-1.44,2.16-1.44,2.16-2.592,3.096c-1.296,0.72-2.592,1.44-3.888,2.16c0,2.304,0,4.608,0,6.984
		c-0.936,3.6-0.936,3.6-1.872,5.976c-1.944,2.88-1.944,2.88-3.888,5.0399c-0.936,0.7921-1.872,1.584-2.88,2.376
		c-0.216,1.008-0.216,1.008-0.432,14.904c-0.432,1.944-0.936,3.96-1.44,5.976c-2.16,2.448-2.16,2.448-3.528,3.384
		c-0.864,0.36-1.8,0.792-2.736,1.224c-0.072,2.448-0.144,4.896-0.216,7.416c-1.008,3.6-1.008,3.6-1.224,5.256
		c0.504,1.224,0.504,1.224,0.504,2.448c-1.944,2.592-1.944,2.592-6.768,10.512c-0.216,0.72-0.432,1.44-0.72,2.16
		c-0.36,4.896-0.72,9.792-1.152,14.688c-0.288,0.792-0.648,1.584-1.008,2.376c-1.08,1.584-2.16,3.168-3.312,4.824
		c-2.88,1.872-2.88,1.872-4.896,2.736C279.792,343.152,279.792,343.152,277.344,343.152L277.344,343.152z M280.008,327.6
		c-0.288-0.432-0.576-0.936-0.936-1.44c-2.16-6.552-4.392-13.176-6.624-19.8c-1.872-3.312-3.816-6.696-5.76-10.08
		c-1.944-4.32-1.944-4.32-2.88-5.544c-0.792-0.576-1.584-1.224-2.448-1.872c-0.936-3.168-1.872-6.408-2.88-9.648
		c-1.224-2.88-2.52-5.76-3.816-8.64c-5.76-10.512-5.76-10.512-7.704-14.616c-1.224-3.888-2.52-7.776-3.816-11.736
		c-3.816-7.488-11.52-20.88-15.336-28.08c-1.296-1.728-2.592-3.528-3.888-5.328c-1.872-3.6-2.88-4.752-4.32-7.92
		c-0.216-3.384-0.432-6.84-0.72-10.296c0.648-2.52,1.296-5.112,1.944-7.704c2.52-6.768,5.112-13.536,7.704-20.376
		c1.224-4.536,2.52-9.072,3.816-13.68c0.4319-2.88,0.936-5.76,1.44-8.64c0.072-3.672,0.144-7.344,0.216-11.016
		c-0.144-3.888-0.288-7.848-0.432-11.808c-0.72-4.032-1.728-7.416-2.664-11.952c-1.224-3.024-2.52-6.048-3.816-9.144
		c-1.944-2.664-1.944-2.664-2.52-3.024c-0.648,0-1.2961,0-1.944,0c-0.216-0.36-0.216-0.36-1.872-0.504
		c-0.576,0.144-1.152,0.288-1.728,0.504c-0.288,0.288-0.576,0.576-0.936,0.936c0,0.864-0.072,1.728-0.144,2.592
		c0.648,2.736,1.296,5.544,1.944,8.352c0.288,2.16,0.576,4.32,0.936,6.48c0.072,3.168,0.144,6.408,0.216,9.648
		c-0.36,2.592-0.72,5.256-1.152,7.92c-0.36,0.288-0.36,0.288-10.224,1.296c-8.856-0.288-8.856-0.288-21.096-1.224
		c-1.728-0.288-3.456-0.576-5.256-0.936c-4.968-1.296-9.936-2.592-14.904-3.888c-3.6-1.224-7.2-2.52-10.8-3.816
		c-2.232-1.224-4.464-2.52-6.696-3.816c-0.72-0.72-1.44-1.44-2.16-2.16c-3.888-5.4-3.888-5.4-4.752-7.056
		c-0.288-1.152-0.576-2.376-0.936-3.6c-0.072-1.44-0.144-2.88-0.216-4.32c0.936-4.32,0.936-4.32,1.872-7.2
		c0.936-1.512,1.872-3.024,2.88-4.608c0.648-0.792,1.368-1.584,2.088-2.376c4.536-3.816,4.536-3.816,7.272-5.76
		c1.656-0.576,3.312-1.152,4.968-1.8c3.096-1.944,3.096-1.944,11.016-5.76c4.392-2.52,8.784-5.1119,13.248-7.704
		c11.52-7.704,11.52-7.704,16.776-11.52c9.144-7.704,9.144-7.704,10.08-8.784c0.936-1.6561,0.936-1.6561,1.44-3.312
		c1.656-0.144,5.04,0.3599,9.36,0.576c4.104-0.432,8.28-0.936,12.456-1.44c2.232-0.648,4.464-1.2961,6.768-1.944
		c1.44-0.576,2.88-1.2241,4.32-1.872c2.8799-1.944,2.8799-1.944,5.976-4.824c1.296-2.736,2.232-3.96,2.952-5.832
		c0-1.296,0-2.592,0-3.8881c-0.144-0.504-0.288-1.08-0.432-1.6559c-0.648-1.08-1.296-2.232-1.944-3.3841
		c-0.72-0.7919-1.44-1.584-2.16-2.376c-0.7921-0.5759-1.656-1.1519-2.52-1.7999c-2.16-0.504-2.16-0.504-10.8-1.224
		c-1.872,0.072-3.816,0.1439-5.76,0.216c-1.44,0.2879-2.88,0.648-4.32,1.008c-0.576,0.288-1.224,0.576-1.872,0.936
		c-1.008,1.008-2.088,2.016-3.168,3.096c-1.656,1.0079-1.656,1.0079-2.88,1.4399c-4.176,0-8.424,0-12.672-0.072
		c0.072-0.36,0.144-0.7921,0.288-1.2241c0.864-0.5759,1.728-1.1519,2.592-1.7999c2.448-0.936,4.896-1.872,7.416-2.88
		c7.416-1.944,7.416-1.944,12.96-2.88c3.312,0.072,6.696,0.144,10.08,0.216c10.584,1.944,10.584,1.944,14.184,2.88
		c2.736,0.936,5.544,1.872,8.352,2.8799c4.104,1.9441,4.104,1.9441,7.488,3.8881c1.584,1.224,3.168,2.52,4.752,3.816
		c4.104,4.8961,4.104,4.8961,4.608,5.9041c0.288,4.5359,0.576,4.824,0.576,5.544c-0.504,0.72-0.504,0.72-0.72,2.1599
		c-0.72,0.72-1.44,1.4401-2.16,2.16c-2.232,1.224-4.536,2.448-6.84,3.6719c-0.936,0.2881-1.872,0.5761-2.88,0.936
		c-2.448,1.2961-4.896,2.592-7.416,3.8881c-6.912,2.52-13.896,5.04-20.88,7.632c-3.024,1.296-6.048,2.5919-9.144,3.8879
		c-5.184,2.5201-10.368,5.04-15.624,7.632c-5.76,3.888-5.76,3.888-10.8,7.704c-4.32,3.816-6.192,5.976-6.912,6.48
		C197.28,83.16,197.28,83.16,197.28,83.88c0.504,0.936,0.504,0.936,1.728,1.944c0.864,0.288,0.864,0.288,5.4,0.576
		c2.088-0.288,4.176-0.648,6.264-1.008c11.088-3.168,22.176-6.336,33.336-9.576c9.36-1.944,9.36-1.944,18.936-3.384
		c7.344-0.4319,14.688-0.936,22.104-1.44c14.184,0,14.184,0,15.624,0.2881c8.136,0.576,16.272,1.224,24.4799,1.8719
		c6.192,0.936,12.456,1.872,18.72,2.88c21.312,5.544,21.312,5.544,23.256,5.76c4.104,1.296,8.28,2.592,12.456,3.888
		c3.888,1.872,3.888,1.872,6.768,2.88c2.016,1.224,4.104,2.52,6.192,3.816c1.872,2.232,3.816,4.536,5.76,6.84
		c0.432,0.936,0.864,1.872,1.296,2.88c-0.144,1.728-0.288,3.528-0.432,5.328c-0.432,0.576-0.936,1.224-1.44,1.872
		c-0.72,0.288-1.512,0.576-2.304,0.864c-2.016,0.288-4.104,0.576-6.192,0.936c-0.504,0.72-0.504,0.72-0.864,2.088
		c0.072,0.792,0.144,1.584,0.216,2.376c0.288,0.504,0.576,1.08,0.936,1.656c1.08,0.576,2.16,1.152,3.312,1.8
		c0.72,0.144,1.44,0.288,2.16,0.504c4.536,0,4.536,0,5.04-0.288c7.416,0.72,7.416,0.72,9.072,1.08
		c-0.216,0.216-0.432,0.432-0.72,0.648c-1.008,0.288-2.016,0.576-3.096,0.936c-6.48,0.936-6.48,0.936-10.296,1.944
		c-4.752,0.936-9.576,1.872-14.4,2.88c-2.808,0.288-5.616,0.576-8.424,0.936c-5.328,0.144-10.656,0.2881-16.056,0.504
		c-8.928-0.288-8.928-0.288-10.368-0.576c0-0.288-0.072-0.648-0.144-1.008c0.648-1.512,1.296-3.024,1.944-4.536
		c0.504-2.376,0.504-2.376,1.08-8.856c0.648-0.72,1.296-1.44,2.016-2.16c0.936-1.44,1.872-2.88,2.88-4.32
		c0.576-1.8,1.152-3.672,1.728-5.544c0-1.08,0-2.232,0-3.384c-0.144-0.72-0.288-1.44-0.504-2.16c-1.944-2.592-1.944-2.592-3.024-3.6
		c-0.936-0.576-1.8719-1.152-2.808-1.8c-6.768-2.88-6.768-2.88-8.208-3.816c-1.44-0.432-2.88-0.936-4.32-1.44
		c-0.936-0.648-1.872-1.296-2.88-1.944c-1.656-1.512-3.312-3.024-5.04-4.536c-0.792,0.072-1.584,0.144-2.376,0.216
		c-0.432,0.432-0.864,0.864-1.368,1.368c-0.072,0.504-0.144,1.08-0.2159,1.656c0.288,1.008,0.576,2.016,0.9359,3.096
		c4.968,3.888,4.968,3.888,7.8481,5.76c1.728,0.864,3.456,1.8,5.256,2.736c0.648,0.72,1.296,1.512,1.944,2.304
		c0.216,0.648,0.504,1.296,0.792,1.944c0.216,1.368,0.432,2.736,0.72,4.104c-0.4319,1.656-0.4319,1.656-0.792,2.016
		c-0.288,0-0.576,0-0.936,0c-2.088-1.296-4.176-2.592-6.2639-3.888c-2.808-1.224-5.616-2.5201-8.424-3.816
		c-5.76-1.944-5.76-1.944-8.64-3.384c-0.936-0.072-1.872-0.144-2.88-0.216c-0.504,0.432-1.08,0.936-1.656,1.44
		c0,0.288-0.072,0.576-0.144,0.864c1.224,1.224,2.088,1.512,3.024,2.736c0.72,0.504,0.72,0.504,3.6,1.44
		c1.44,0.288,2.88,0.576,4.32,0.936c0.792,0.288,1.584,0.648,2.376,1.008c4.608,3.816,4.608,3.816,6.768,5.976
		c1.872,2.304,3.816,4.68,5.76,7.056c0.144,0.648,0.36,1.296,0.576,1.944c0,0.936,0,1.872,0,2.88
		c-0.072,0.144-0.216,0.36-0.36,0.576c-0.432,0.144-0.936,0.288-1.44,0.504c-1.512-0.504-3.024-1.08-4.536-1.656
		c-0.72-0.72-5.328-3.6-7.488-5.544c-1.296-1.584-2.664-3.168-4.032-4.824c-1.008-0.864-2.088-1.728-3.168-2.592
		c-2.16,0-2.16,0-3.6,0.432c-0.432,0.36-0.936,0.72-1.44,1.152c0,0.288-0.072,0.576-0.144,0.936c4.32,4.824,4.32,4.824,8.424,8.856
		c1.656,1.2961,3.312,2.592,5.04,3.888c1.584,1.8,3.168,3.6,4.824,5.472c0.432,1.008,0.936,2.088,1.44,3.168
		c0,0.288-0.072,0.648-0.144,1.008c-1.656-0.216-1.656-0.216-4.032-1.152c-1.152-0.648-2.376-1.296-3.6-1.944
		c-4.32-3.024-8.64-6.0479-12.96-9.144c-0.648,0-1.296,0-1.944,0c-0.72,0.432-1.44,0.864-2.16,1.368
		c-0.504,0.792-0.504,0.792-0.648,1.656c0.648,0.792,1.2961,1.584,1.944,2.448c5.976,3.816,9.72,6.696,12.744,8.64
		c1.224,1.44,2.52,2.88,3.816,4.32c4.176,3.816,4.176,3.816,5.544,4.752c1.224,1.872,2.52,3.816,3.816,5.76
		c0.36,0.936,0.792,1.872,1.224,2.88c0,0.36,0,0.792,0,1.224c-0.288,0.432-0.576,0.864-0.864,1.296
		c-0.936-0.072-1.872-0.144-2.88-0.216c-0.792-0.432-1.584-0.936-2.376-1.44c-3.816-4.104-5.544-5.544-5.976-6.264
		c-1.512-1.368-3.024-2.736-4.608-4.104c-5.256-3.816-5.256-3.816-6.192-4.752c-1.296-0.576-2.592-1.152-3.888-1.728
		c-0.864,0-1.728,0-2.592,0c-2.664,2.16-2.664,2.16-3.384,3.024c0.288,0.432,0.576,0.864,0.936,1.2961
		c1.008,0.504,1.008,0.504,3.168,1.008c2.592,2.16,7.92,5.976,12.2401,9.792c1.872,2.016,3.816,4.032,5.7599,6.12
		c0.936,1.656,1.872,3.312,2.88,5.04c0.864,2.664,1.8,5.328,2.736,7.992c0.072,1.08,0.144,2.16,0.216,3.312
		c-0.288,1.0081-0.576,2.088-0.936,3.168c-2.088,3.096-2.088,3.096-3.024,3.888c-0.504,0-1.08,0-1.656,0
		c-0.72-0.792-1.44-1.584-2.16-2.376c-7.56-11.16-8.568-12.096-12.384-17.64c-2.664-3.096-5.4-6.192-8.136-9.36
		c-1.296-0.36-1.296-0.36-2.52-0.36c-1.008,0.792-2.016,1.656-3.024,2.52c0,0.36,0,0.792,0,1.224
		c2.52,2.952,5.112,5.904,7.704,8.856c2.52,3.528,5.04,7.056,7.632,10.584c1.368,2.232,2.736,4.464,4.104,6.696
		c0.936,1.08,1.872,2.232,2.88,3.384c0.648,3.888,1.296,7.776,1.944,11.736c0.432,5.76,0.432,5.76,0.216,8.208
		c-0.288,0.216-0.576,0.432-0.864,0.72c-0.72-0.648-1.44-1.296-2.232-1.944c-15.12-20.88-15.12-20.88-19.224-26.136
		c-0.072-0.576-0.144-1.152-0.216-1.728c-0.504-0.36-1.008-0.792-1.584-1.224c-0.936,0-1.872,0.0721-2.88,0.144
		c-0.936,0.504-1.872,1.656-3.024,2.52c0,0.216,0,0.432,0,0.72c7.704,10.08,7.704,10.08,21.888,30.024
		c1.872,5.544,1.872,5.544,2.88,9.864c0.432,3.312,0.432,3.312,0.432,9.072c-0.216,0.648-0.504,1.296-0.792,2.016
		c-0.432-0.072-0.936-0.144-1.44-0.216c-0.432-0.288-0.936-0.576-1.44-0.936c-0.648-1.008-1.2961-2.016-1.944-3.024
		c-2.808-5.976-5.616-11.952-8.496-18c-3.24-4.32-6.552-8.64-9.864-12.96c-1.368-1.296-2.736-2.664-4.104-4.032
		c-1.296-0.432-1.296-0.432-2.736-0.432c-0.936,0.792-1.872,1.656-2.88,2.52c0,0.288-0.072,0.648-0.144,1.008
		c2.016,2.16,4.032,4.32,6.048,6.48c4.752,6.696,4.752,6.696,5.76,7.704c3.816,7.2,3.816,7.2,10.8,22.032
		c0.288,1.5121,0.576,3.024,0.936,4.608c0.936,11.952,0.936,11.952,0.936,17.28c-0.432,1.872-0.432,1.872-0.936,2.88
		c-0.216,0-0.5041,0-0.7921,0.072c-0.864-1.512-2.808-6.84-6.624-14.976c-1.296-3.024-2.592-6.048-3.888-9.144
		c-1.224-2.448-2.52-4.896-3.816-7.416c-1.872-3.024-3.816-6.048-5.76-9.144c-2.52-2.952-5.04-5.904-7.56-8.856
		c-1.656-0.36-1.656-0.36-3.096-0.144c-2.664,2.0161-2.664,2.0161-3.096,2.7361c0.288,0.504,0.576,1.008,0.936,1.584
		c1.224,1.224,2.52,2.52,3.816,3.816c3.888,5.4,5.76,8.784,9.648,14.688c1.728,3.24,1.728,3.24,9.432,21.456
		c0.864,2.448,1.728,4.968,2.664,7.488c0.936,10.8,1.44,12.672,1.872,17.28c-0.144,3.024-0.288,6.048-0.432,9.072
		c-0.216,0.144-0.432,0.288-0.648,0.504c-0.36-0.72-0.72-1.44-1.08-2.16c-0.576-2.16-1.224-4.32-1.872-6.48
		c-3.888-10.296-3.888-10.296-7.704-19.224c-3.168-5.976-6.336-11.952-9.576-18c-1.944-2.592-2.88-4.32-3.888-5.472
		c-0.576-1.008-1.224-2.088-1.872-3.168c-1.8-2.232-3.6-4.464-5.4-6.696c-0.864,0-1.728-0.072-2.664-0.144
		c-1.08,0.648-2.16,1.368-3.24,2.088c0.072,0.504,0.144,1.08,0.216,1.656c1.944,2.664,1.944,2.664,3.888,4.536
		c1.872,3.168,2.88,4.32,4.752,7.488c0.288,0.36,0.648,0.72,1.008,1.152c11.52,21.6,11.52,21.6,11.952,23.04
		c0.648,1.368,1.296,2.736,1.944,4.104c1.584,4.608,3.168,9.216,4.824,13.896c0.288,1.44,0.576,2.88,0.936,4.32
		c1.44,3.384,1.44,3.384,1.944,5.544c0,1.656,0,3.312,0,5.04c-1.44,7.92-1.44,7.92-1.8,8.28c-0.432,0-0.864-0.072-1.368-0.144
		c-0.144-0.864-0.288-1.728-0.432-2.592c-1.0081-1.944-1.0081-1.944-8.64-22.32c-1.872-4.176-3.816-8.352-5.76-12.528
		c-1.872-3.456-3.816-6.9839-5.76-10.512c-1.944-2.448-5.76-8.64-8.64-12.528c-0.648-0.648-1.296-1.296-2.016-2.016
		c-0.792,0-1.584,0-2.448,0c-1.152,0.7921-2.376,1.656-3.6,2.5201c1.944,3.24,5.76,8.28,11.52,16.992
		c3.168,6.4799,6.336,12.96,9.504,19.512c2.88,7.632,5.76,15.336,8.64,23.04c0.216,1.296,0.432,2.664,0.72,4.032
		c0,2.52,0,5.112,0,7.704c-0.288,1.44-0.648,2.88-1.008,4.32c-0.288,3.816-0.576,7.632-0.936,11.52
		c-0.144,0.288-0.288,0.576-0.504,0.936C280.584,327.456,280.296,327.528,280.008,327.6L280.008,327.6z M411.048,119.664
		c0.36-1.8,0.72-3.672,1.08-5.544c0.576-0.288,1.152-0.576,1.8-0.864c4.104-0.936,4.104-0.936,6.984-1.944
		c0.936-1.296,0.936-1.296,1.728-3.456c0-1.584,0-3.168,0-4.752c-0.288-0.576-0.576-1.152-0.936-1.728
		c-1.728-1.008-3.456-2.016-5.184-3.096c-0.072-0.936-0.072-0.936,0.36-1.656c0.216-0.144,0.432-0.288,0.72-0.504
		c0-0.432,0.0721-0.936,0.144-1.44c0.432,0,0.936,0,1.44,0.072c2.808,1.296,5.616,2.592,8.424,3.888
		c3.384,1.872,6.84,3.816,10.2961,5.76c0.504,0.432,1.008,0.864,1.5839,1.296c0,0.288,0,0.648,0,1.008
		c-1.728,1.224-3.4559,2.5201-5.184,3.816C426.6,113.544,418.824,116.568,411.048,119.664L411.048,119.664z M111.528,78.912
		c-9.36-0.936-9.36-0.936-14.184-1.872c-3.096-1.008-3.096-1.008-12.672-2.88c-4.176-1.296-8.352-2.5919-12.528-3.888
		c-10.296-3.816-10.296-3.816-19.44-7.632c-4.032-1.8719-8.136-3.816-12.24-5.76c-0.072-0.36-0.144-0.7199-0.216-1.08
		c14.904-2.808,14.904-2.808,21.384-3.744c7.488-0.648,14.976-1.2961,22.536-1.944c3.528-0.432,7.056-0.936,10.584-1.44
		c3.024-0.7921,6.048-1.584,9.072-2.376c35.568-3.0961,35.568-3.0961,36-3.384c11.088-1.8719,11.088-1.8719,20.664-3.816
		c17.064-2.376,18.72-2.88,26.424-3.816c0.792-0.2161,1.584-0.432,2.376-0.7201c1.08,0,2.232,0,3.384,0
		c2.232,0.576,4.464,1.2241,6.696,1.8721c1.368,0.936,2.736,1.8719,4.176,2.808c-0.072,0.504-0.144,1.08-0.216,1.656
		c-0.648,0.864-1.296,1.728-1.944,2.6639c-7.2,5.76-10.224,7.7041-13.68,10.8001c-3.456,1.944-7.776,3.6719-22.68,11.376
		c-9.792,3.8159-9.792,3.8159-15.84,5.76c-14.832,3.816-14.832,3.816-27.36,6.696c-0.432,0.216-0.936,0.432-1.44,0.72
		C117.432,78.912,114.48,78.912,111.528,78.912L111.528,78.912z M6.192,61.2c0-0.3599-0.072-0.72-0.144-1.0799
		c0.576-2.232,1.224-4.464,1.872-6.696c1.296-1.656,2.592-3.312,3.96-5.04c0.864-0.576,1.728-1.2239,2.664-1.872
		c1.44-0.4319,4.824-2.376,9.648-4.3199c2.376-0.792,4.752-1.584,7.2-2.376c6.192-0.936,9.792-1.9441,20.16-3.816
		c2.304-0.144,4.608-0.288,6.912-0.504c8.352-1.4399,16.776-2.88,25.2-4.3199c2.16-0.144,4.32-0.2881,6.48-0.504
		c1.152-0.288,2.376-0.576,3.6-0.936c16.128-1.944,26.928-2.88,33.408-3.816c1.512-0.3601,3.024-0.7921,4.536-1.2241
		c2.664,0,5.544-0.504,8.136-0.504c0.144-0.144,0.288-0.288,0.504-0.4321c21.816-3.888,40.824-7.7039,42.984-7.9199
		c0.216,0.216,5.472-0.504,7.416-1.008c1.44,0,2.16,0.288,8.424,0.288c0.216,0.072,0.504,0.216,0.792,0.36
		c-1.656,9.864-1.656,9.864-2.016,14.472c-1.8-0.36-3.672-0.72-5.544-1.152c-1.656,0.072-3.312,0.144-5.04,0.216
		c-0.36,0.144-0.72,0.288-1.152,0.504c-7.92,0.936-9.648,1.44-24.48,3.312c-6.84,1.2959-13.752,2.592-20.664,3.888
		c-17.784,1.872-26.424,2.376-35.784,3.312c-8.856,1.944-8.856,1.944-23.976,4.608c-2.52,0.144-5.112,0.288-7.704,0.4319
		c-5.4,0.6481-10.8,1.2961-16.272,1.944c-6.552,1.224-13.104,2.52-19.728,3.816c-6.912,1.872-13.896,3.816-20.88,5.76
		C13.248,58.104,9.72,59.616,6.192,61.2L6.192,61.2z M221.184,37.656c-2.16-0.288-4.32-0.576-6.48-0.936
		c-1.152-0.288-2.376-0.6481-3.6-1.008c-2.52-1.008-5.112-2.088-7.704-3.168c0-0.288,0-0.648-0.072-1.008
		c0.648-0.576,1.296-1.152,2.016-1.8c2.16-0.936,2.16-0.936,5.76-1.944c9.864-1.8719,9.864-1.8719,13.248-2.16
		c0.792,0.144,1.584,0.2881,2.376,0.504c0.792,0.6481,1.584,1.2961,2.376,1.9441c0.792,0.288,1.584,0.576,2.448,0.936
		c1.2961-0.072,2.664-0.144,4.032-0.216c2.016-0.936,4.032-1.872,6.048-2.8799c0.792-0.144,1.584-0.2881,2.376-0.504
		c1.44,0.072,2.88,0.1439,4.32,0.2159c1.944,1.2241,1.944,1.2241,2.736,2.0881c0,0.432,0,0.936,0,1.44
		c-0.648,0.72-1.296,1.44-1.944,2.1599c-0.936,0.6481-1.944,1.296-2.952,1.9441c-4.32,1.7279-4.32,1.7279-7.704,2.736
		c-4.752,0.936-4.752,0.936-10.08,1.4399C226.008,37.512,223.632,37.584,221.184,37.656L221.184,37.656z"/>
</g>
</svg>
