<?xml version="1.0" encoding="utf-8"?>
<!-- Generator: Adobe Illustrator 21.1.0, SVG Export Plug-In . SVG Version: 6.00 Build 0)  -->
<svg version="1.1" id="P" xmlns="http://www.w3.org/2000/svg" xmlns:xlink="http://www.w3.org/1999/xlink" x="0px" y="0px"
	 viewBox="0 0 422.856 364.32" enable-background="new 0 0 422.856 364.32" xml:space="preserve">
<g>
	<path fill-rule="evenodd" clip-rule="evenodd" d="M223.128,364.32c-6.264-1.944-6.264-1.944-12.24-3.384
		c-3.6-0.288-7.2-0.576-10.8-0.936c-2.232,0.072-4.464,0.144-6.768,0.216c-0.576,0.432-1.224,0.936-1.872,1.44
		c-0.36,0-0.792,0-1.224,0c-2.592-1.224-5.256-2.52-7.92-3.816c-14.904-3.816-14.904-3.816-18.216-4.32
		c-3.816-0.072-7.632-0.144-11.52-0.216c-0.72,0.432-1.44,0.936-2.16,1.44c-0.432,0-0.936,0-1.44,0
		c-0.36-0.288-0.792-0.648-1.224-1.008c0-0.72-0.072-1.44-0.144-2.232c0.432-2.808,0.936-5.616,1.44-8.424
		c0.072-2.52,0.144-5.04,0.216-7.632c-0.288-4.32-0.576-8.64-0.936-12.96c-0.288-2.16-0.576-4.32-0.936-6.48
		c-1.872-7.992-3.816-15.984-5.76-24.048c-0.936-2.592-1.872-5.256-2.88-7.92c-1.728-3.312-3.528-6.696-5.328-10.08
		c-0.504-0.216-1.008-0.432-1.512-0.72c-0.216-0.936-0.432-1.872-0.648-2.88c-2.808-0.864-5.616-1.8-8.496-2.736
		c-1.44-1.008-1.44-1.008-1.8-1.584c0.072-0.432,0.144-0.936,0.216-1.44c6.552-5.184,13.176-10.368,19.8-15.552
		c2.304-2.448,2.88-3.384,3.528-3.888c-0.576-2.88-1.152-5.76-1.728-8.64c0.072-2.592,0.144-5.256,0.288-7.92
		c0.792-3.744,1.584-7.488,2.376-11.232c0-0.288-0.072-0.648-0.144-1.008c-0.936-0.288-1.872-0.576-2.808-0.864
		c-3.672-0.36-7.344-0.72-11.088-1.152c-9,0.072-18,0.144-27.072,0.216c-5.04,0.288-10.08,0.576-15.12,0.936
		C67.824,216,60.84,215.784,46.944,216c-5.544,0.504-5.544,0.504-19.224,0.72c-3.024-0.144-6.048-0.288-9.072-0.504
		c-5.544-0.936-5.544-0.936-9.36-1.872c-6.48-2.88-6.48-2.88-8.208-3.96c-0.288-0.792-0.576-1.584-0.864-2.376
		c-0.072-0.792-0.144-1.584-0.216-2.448c1.224-1.296,2.52-2.664,3.816-4.032c4.608-3.888,4.608-3.888,10.08-7.7039
		c4.032-2.52,8.064-5.112,12.168-7.704c7.272-5.112,14.616-10.224,21.96-15.336c4.752-3.528,9.504-7.056,14.256-10.584
		c3.888-2.664,7.848-5.328,11.808-8.064c0.432-0.144,0.936-0.288,1.44-0.432c4.752-3.384,10.8-7.2,12.672-8.64
		c4.32-4.32,6.264-6.624,10.584-10.584c3.384-2.52,6.84-5.112,10.296-7.704c6.048-3.816,8.208-4.752,9.36-5.76
		c1.656-0.936,3.312-1.872,5.04-2.88c0.072-1.224,0.216-2.448,0.36-3.672c0.936-0.936,0.936-0.936,7.56-4.824
		c3.096-1.224,6.192-2.448,9.36-3.744c3.816-1.224,7.632-2.52,11.52-3.816c14.904-3.8159,19.728-4.824,26.424-6.696
		c3.744-0.432,7.488-0.936,11.304-1.44c3.6-1.944,6.48-3.888,8.352-4.824c3.888-1.08,7.848-2.232,11.808-3.384
		c1.152-0.144,2.376-0.288,3.6-0.432c1.656-0.648,3.312-1.296,5.04-1.944c2.736-0.648,5.544-1.296,8.352-1.944
		c1.872-0.576,3.816-1.224,5.76-1.8719c5.544-1.008,5.544-1.008,10.08-1.44c0.864-0.6481,1.728-1.2961,2.664-1.944
		c1.152-0.432,2.304-0.864,3.456-1.296c-0.216-1.944-2.16-8.64-2.664-11.304c-0.144-1.728-0.288-3.456-0.432-5.256
		c0.072-2.6641,0.144-5.4,0.216-8.136c0.288-1.8719,0.576-3.816,0.936-5.7599c0.648-2.0161,1.296-4.0321,1.944-6.048
		c0.648-1.44,1.296-2.88,1.944-4.32c1.224-1.872,2.52-3.816,3.816-5.76c1.224-1.44,2.52-2.8799,3.816-4.3199
		c2.088-1.872,4.176-3.816,6.264-5.7601c5.904-3.816,5.904-3.816,17.424-10.44c1.656-0.6479,3.312-1.296,5.04-1.944
		c2.304-0.576,4.608-1.224,6.984-1.8721c3.456-0.6479,6.984-1.2959,10.512-1.944c1.584,0,3.168,0,4.824,0
		c1.872,0.2881,3.816,0.576,5.76,0.936c1.008,0.288,2.016,0.648,3.096,1.0079c6.48,3.816,6.48,3.816,9.144,5.7601
		c11.736,12.96,11.736,12.96,13.896,14.832c1.584,1.08,3.168,2.232,4.824,3.384c5.976,0.936,5.976,0.936,21.096,2.376
		c10.8,1.944,10.8,1.944,24.768,3.888c9.072,1.8719,9.072,1.8719,24.4799,5.7599c1.512,0.5761,3.024,1.2241,4.536,1.8721
		c0.36,0.36,0.72,0.72,1.08,1.152c0.144,0.432,0.288,0.936,0.4321,1.44c-0.072,0.936-0.144,1.8719-0.216,2.88
		c-0.432,0.2159-0.864,0.504-1.296,0.792c-2.52-0.216-5.112-0.432-7.704-0.72c-19.656-3.816-19.656-3.816-23.256-4.32
		c-13.464-0.504-13.464-0.504-38.664-1.944c-2.88,0-5.76,0-8.64,0c-1.152,0.936-2.376,1.872-3.6,2.88
		c-4.104,2.5199-8.28,5.112-12.456,7.704c-0.648,0.72-1.368,1.512-2.088,2.304c-0.648,0.2159-1.2961,0.504-2.0161,0.792
		c-2.448,2.232-4.896,4.464-7.416,6.768c-0.936,1.152-1.872,2.304-2.88,3.4559c-0.936,1.584-1.872,3.168-2.808,4.824
		c-0.432,2.6641-0.936,5.4001-1.44,8.136c-0.072,4.536-0.144,9.072-0.216,13.68c0.792,9.504,1.584,19.008,2.376,28.584
		c0,3.384,0,6.84,0,10.296c-1.8719,6.48-2.8799,8.64-3.312,10.368c-1.008,1.44-1.008,1.44-6.768,12.456
		c-1.872,2.16-1.872,2.16-9.576,13.464c-2.592,2.592-5.256,5.256-7.92,7.92c-1.512,1.224-3.024,2.52-4.536,3.816
		c-0.288,0.4319-0.648,0.936-1.008,1.44c-1.872,1.224-3.816,2.52-5.7599,3.816c-1.512,1.296-3.096,2.592-4.6801,3.888
		c-4.5359,3.096-9.072,6.264-13.608,9.432c-4.32,2.52-8.64,5.112-12.96,7.704c-4.104,1.8719-4.104,1.8719-11.52,5.76
		c-1.656,0.576-3.312,1.224-5.04,1.872c-7.92,3.888-7.92,3.888-16.56,7.704c-12.744,3.816-12.744,3.816-20.448,5.76
		c-1.8,0.36-3.6,0.72-5.472,1.08c-7.632,13.68-7.632,13.68-11.448,21.168c-1.872,2.88-3.816,5.76-5.76,8.64
		c-0.648,0.72-1.296,1.44-1.944,2.16c-1.296,0.72-2.592,1.44-3.888,2.232c-2.88-0.504-2.88-0.504-4.608-0.504
		c-3.744,3.024-7.56,6.048-11.376,9.0721c0,0.288,0,0.576,0,0.936c2.664,1.224,5.328,2.448,8.064,3.672
		c12.672,7.704,19.44,11.52,25.416,15.408c1.44,1.296,2.88,2.664,4.32,4.032c3.096,1.944,3.096,1.944,4.104,2.88
		c1.368,2.16,2.736,4.392,4.176,6.624c0,0.576,0,1.152,0,1.728c-3.888,7.632-3.888,7.632-5.76,10.512
		c-1.368,1.368-2.736,2.736-4.104,4.104c-1.224,0.936-2.448,1.872-3.744,2.88c-1.152,0.4319-2.304,0.864-3.528,1.296
		c-1.008,0-2.088,0-3.168,0c-0.936-0.432-1.872-0.936-2.88-1.44c-0.936-0.936-0.936-0.936-2.88-4.464
		c-0.288-1.008-0.576-2.016-0.864-3.096c-0.072-1.872-0.144-3.816-0.216-5.76c0.936-2.376,0.936-2.376,2.88-5.76
		c0.36-0.288,0.72-0.576,1.08-0.936c0.864-0.36,1.728-0.72,2.664-1.08c0.792,0,1.584,0,2.376,0c0.36,0.288,0.72,0.576,1.08,0.864
		c0,0.576,0,1.224,0,1.872c-0.144,0.36-0.288,0.792-0.504,1.224c-0.936,0.504-1.944,1.008-2.952,1.512
		c-0.288,0.648-0.576,1.368-0.864,2.088c0.0721,1.8,0.144,3.672,0.216,5.544c0.2881,1.008,0.648,2.016,1.008,3.096
		c0.504,0.576,1.008,1.152,1.584,1.8c0.36,0,0.72,0,1.152,0c1.224-1.08,3.024-3.744,4.896-5.616
		c0.576-0.792,1.152-1.584,1.728-2.448c0-0.36-0.072-0.792-0.144-1.224c0.36-0.144,0.7921-0.288,1.224-0.432
		c0.936-1.368,0.936-1.368,2.16-4.104c1.224-0.576,1.224-0.576,1.512-1.1519c-0.072-0.576-0.144-1.152-0.216-1.728
		c-0.288-0.36-0.576-0.72-0.936-1.152c-1.008-0.648-2.016-1.296-3.024-1.944c-0.648-0.72-1.296-1.44-2.016-2.16
		c-1.656-1.224-3.312-2.52-5.04-3.816c-12.744-7.7039-12.744-7.7039-15.48-9.648c-3.312-1.872-6.696-3.744-10.08-5.616
		c-4.824-1.944-4.824-1.944-5.76-2.016c0,0.288,0,0.576,0.072,0.936c3.888,6.984,3.888,6.984,5.76,11.304
		c0.648,1.944,1.296,3.96,1.944,5.976c1.872,7.488,3.816,14.976,5.76,22.536c0.936,6.4799,0.936,6.4799,1.656,15.84
		c0,3.6,0,7.2,0,10.8c-0.288,1.8-0.576,3.672-0.936,5.544c0,0.576,0.072,1.152,0.144,1.8c3.096-0.288,3.096-0.288,9.144-0.288
		c5.976,1.008,5.976,1.008,12.456,2.448c0.9359-0.504,3.384-1.008,5.04-1.944c0.864-0.288,1.728-0.576,2.664-0.936
		c4.896-0.936,9.864-1.872,14.832-2.88c2.88-0.288,5.76-0.648,8.64-1.008c3.744-0.144,7.488-0.288,11.304-0.432
		c3.888,0.072,7.776,0.144,11.736,0.216c2.7361,0.72,5.472,1.44,8.208,2.16c0.432,0.648,0.864,1.368,1.296,2.088
		c0,0.504,0,1.08,0,1.656c-0.144,0.288-0.288,0.576-0.504,0.936c-0.216,0.072-0.504,0.216-0.792,0.36
		c-2.952-0.648-5.904-1.296-8.928-1.944c-5.7599,0-11.52,0-17.28,0c-3.96,0.288-7.92,0.648-11.952,1.008
		c-10.08,1.872-10.08,1.872-14.184,2.88c0,0.288,0,0.576,0,0.864c1.512,0.72,3.024,1.44,4.536,2.232
		c2.448-0.216,2.448-0.216,6.048-1.224c7.632,0,7.632,0,13.392,0.504c3.096,0.648,6.192,1.296,9.36,1.944
		c1.512,0.432,3.024,0.936,4.608,1.44c0.792,0.864,0.792,0.864,1.296,2.016c0,0.648,0,1.296,0,1.944
		c-0.144,0.288-0.288,0.576-0.504,0.936C223.848,364.32,223.848,364.32,223.128,364.32L223.128,364.32z M136.008,265.8961
		c-1.656-0.432-3.312-0.936-5.04-1.44c0-0.288-0.072-0.648-0.144-1.008c13.68-12.024,13.68-12.024,14.616-13.248
		c0.36,0,0.72,0,1.08,0c0.144,0.576,0.36,1.152,0.576,1.728c1.008,1.224,2.088,2.52,3.168,3.8159c0,0.216,0,0.432,0,0.72
		c-4.32,3.096-8.712,6.264-13.104,9.432C136.8,265.8961,136.44,265.8961,136.008,265.8961L136.008,265.8961z M155.16,253.656
		c-0.72-0.432-0.72-0.432-1.656-1.8c-0.936-2.664-1.872-5.4-2.808-8.136c-0.288-1.512-0.576-3.024-0.936-4.536
		c0.072-2.952,0.144-5.904,0.216-8.856c0.648-3.096,1.296-6.192,1.944-9.36c0.432-1.152,0.936-2.376,1.44-3.6
		c0-0.36,0-0.792,0-1.224c-4.896-4.248-4.896-4.248-6.336-5.184c-1.224-0.432-2.52-0.936-3.816-1.44
		c-5.256-0.432-10.512-0.936-15.84-1.44c-6.624,0-13.248,0.072-19.944,0.144c0-0.288,0-0.576,0.072-0.936
		c2.52-1.224,5.04-2.448,7.632-3.744c3.168-1.872,6.336-3.816,9.576-5.76c1.584-1.296,3.168-2.592,4.824-3.888
		c3.312-0.216,6.696-0.432,10.08-0.72c14.832,0,14.832,0,24.48-0.432c16.992-1.944,16.992-1.944,22.752-2.88
		c8.064-1.872,16.128-3.816,24.264-5.76c5.76-1.944,5.76-1.944,15.12-5.76c0.936-0.648,1.872-1.296,2.88-1.944
		c1.08-0.36,2.232-0.792,3.384-1.224c0.216-0.648,0.504-1.296,0.792-2.016c1.152-0.576,2.376-1.224,3.6-1.872
		c4.896-3.888,4.896-3.888,9.144-7.704c2.664-2.808,5.4-5.616,8.136-8.424c3.816-5.04,3.816-5.04,5.76-8.136
		c0.648-1.656,1.2961-3.312,1.944-5.0399c0.576-3.6,1.224-7.2,1.872-10.8c0-2.88,0-2.88,0.504-5.976
		c-0.072-2.304-0.144-4.608-0.216-6.984c-0.648-6.912-1.296-13.896-1.944-20.88c-0.936-4.104-1.44-5.256-3.384-13.464
		c-0.936-2.16-0.936-2.16-2.88-9.36c-1.872-4.032-1.872-4.032-2.88-6.912c-0.288-1.8719-0.576-3.816-0.936-5.7599
		c-0.072-1.6561-0.144-3.312-0.216-5.0401c0.144-2.4479,0.288-4.968,0.432-7.4879c0.648-2.664,1.296-5.4,1.944-8.136
		c1.224-2.664,2.52-5.4,3.816-8.136c3.888-4.824,3.888-4.824,7.704-8.928c1.44-1.2239,2.88-2.52,4.32-3.8159
		c15.9839-9.504,15.9839-9.504,17.424-10.008c0.432,0,0.936,0,1.44,0c6.696-1.872,10.08-2.376,11.52-2.88
		c5.76-0.72,5.76-0.72,9.144-0.72c2.52,0.432,5.04,0.936,7.632,1.4399c3.6,1.9441,3.6,1.9441,6.48,3.8881
		c12.528,12.96,12.528,12.96,17.28,17.3519c0,0.936,0.0721,1.9441,0.144,2.952c-0.144,0.432-0.288,0.936-0.504,1.4401
		c-0.648,0.576-1.2961,1.224-1.944,1.8719c-5.616,3.8881-11.952,7.704-17.64,11.52c-5.0399,3.888-5.0399,3.888-9.432,7.704
		c-1.872,2.304-3.816,4.608-5.76,6.984c-0.792,1.584-1.584,3.1679-2.448,4.752c-0.432,2.592-0.936,5.256-1.44,7.92
		c-0.144,2.16-0.288,4.32-0.432,6.48c0.072,3.096,0.144,6.192,0.216,9.36c0.72,9.216,1.44,18.432,2.16,27.648
		c0,3.384,0,6.84,0,10.296c-0.792,2.808-1.584,5.616-2.376,8.424c-2.52,4.32-5.112,8.64-7.704,12.96
		c-2.52,3.816-5.112,7.632-7.7039,11.5201c-1.224,1.44-2.5201,2.8799-3.816,4.3199c-2.592,2.376-5.256,4.752-7.92,7.2
		c-0.6479,0.216-1.296,0.504-2.016,0.792c-3.168,2.52-6.336,5.112-9.576,7.704c-5.544,3.816-7.92,5.76-11.088,7.632
		c-0.792,0.648-1.584,1.296-2.376,1.944c-13.176,7.704-17.064,9.576-20.376,11.52c-3.168,1.224-6.408,2.52-9.648,3.816
		c-7.416,3.888-7.416,3.888-11.52,5.76c-3.744,1.296-7.488,2.592-11.232,3.888c-10.8,2.88-10.8,2.88-15.84,3.816
		c-4.104,0-4.104,0-4.968,0.36c0,0.792,0,1.584,0,2.448c-7.704,13.392-7.704,13.392-11.52,20.88c-1.872,2.88-3.816,5.76-5.76,8.64
		c-0.504,0.504-1.008,1.08-1.584,1.656C156.312,253.584,155.736,253.584,155.16,253.656L155.16,253.656z M19.08,210.024
		c-6.912-1.008-6.912-1.008-10.8-1.944c0-0.216-0.072-0.504-0.144-0.792c3.312-2.592,6.696-5.256,10.08-7.92
		c4.032-2.52,8.064-5.112,12.168-7.704c5.184-3.6,10.368-7.272,15.624-10.944c0.288,0,0.576,0,0.936,0
		c1.44,0.936,1.44,0.936,3.816,1.944c6.264,1.872,6.264,1.872,15.624,5.256c0.216,0.36,0.216,0.36-0.216,0.936
		c-16.128,7.704-16.128,7.704-23.328,11.52c-9.072,3.888-9.072,3.888-16.056,7.2c-2.664,1.944-2.664,1.944-3.816,2.448
		C21.672,210.024,20.376,210.024,19.08,210.024L19.08,210.024z M37.584,210.1681c0-0.216,0-0.432,0.072-0.72
		c2.736-1.224,5.544-2.448,8.352-3.744c4.896-2.5201,9.864-5.112,14.832-7.704c3.528-1.584,7.056-3.168,10.584-4.824
		c2.664-0.936,5.4-1.872,8.136-2.88c7.488,0.72,7.488,0.72,10.368,1.224c0.072,0.072,0.144,0.216,0.216,0.36
		c-4.752,2.88-9.576,5.832-14.4,8.784c-3.744,1.872-7.488,3.816-11.304,5.76c-3.096,0.936-3.096,0.936-8.352,3.312
		c-2.16-0.072-4.32-0.144-6.48-0.216C45.648,209.7361,41.616,209.9521,37.584,210.1681L37.584,210.1681z M78.408,209.5201
		c-1.656,0-3.312,0-5.04-0.072c0.072-0.216,0.144-0.432,0.216-0.72c14.904-8.568,15.336-9.072,19.224-10.944
		c3.312-1.872,6.696-3.816,10.08-5.76c5.4,0.36,10.8,0.72,16.272,1.08c0,0.216-0.072,0.432-0.144,0.72
		c-2.016,1.224-4.104,2.52-6.192,3.816c-7.776,3.744-7.776,3.744-13.104,6.624c-2.736,1.08-5.544,2.16-8.352,3.24
		c-0.216,0.504-0.432,1.008-0.72,1.512C89.928,209.304,89.928,209.304,78.408,209.5201L78.408,209.5201z M127.8,188.424
		c-2.736-0.288-5.544-0.648-8.352-1.008c-11.304-0.432-15.12-0.936-33.84-1.872c-5.4-0.648-10.872-1.2961-16.344-1.944
		c-6.984-1.944-12.456-3.816-18.216-5.4c0-0.216,0-0.432,0.072-0.72c4.104-2.952,8.28-5.904,12.456-8.856c0.288,0,0.576,0,0.864,0
		c0.288,0.432,0.648,0.864,1.008,1.296c2.592,0.936,2.592,0.936,7.632,1.944c3.6,0.432,5.328,0.936,19.008,3.312
		c5.472,0.432,11.016,0.936,16.56,1.44c8.064,0.144,16.128,0.288,24.192,0.504c24.768-0.216,24.768-0.216,27.864-0.504
		c4.032,1.584,8.136,3.168,12.24,4.824c4.104,0.936,4.104,0.936,8.64,2.376c-0.72,0.504-0.72,0.504-5.256,1.44
		c-5.112,0.648-10.224,1.2961-15.408,1.944c-3.312,0.144-6.696,0.288-10.08,0.504c-5.112,0-10.224,0-15.336,0
		C132.984,187.92,130.392,188.136,127.8,188.424L127.8,188.424z M202.248,179.496c-0.432-0.288-0.936-0.576-1.44-0.936
		c-9.648-0.504-9.648-0.504-20.664-1.656c-2.736-0.792-5.472-1.656-8.208-2.52c0-0.288,0-0.576,0-0.936
		c12.96-3.168,25.92-6.336,38.952-9.504c8.64-2.88,8.64-2.88,12.456-3.888c11.304-1.872,15.84-2.88,20.16-3.456
		c-0.072,0.288-0.216,0.6479-0.36,1.008c-4.104,4.32-4.104,4.32-8.208,8.136c-2.7361,1.944-9.216,5.616-12.096,7.56
		c-3.384,1.224-6.84,2.5201-10.296,3.816c-2.952,0.792-5.904,1.584-8.856,2.376C203.256,179.496,202.752,179.496,202.248,179.496
		L202.248,179.496z M134.568,171.144c-15.84-0.504-15.84-0.504-27.864-0.504c-5.832-0.432-11.664-0.936-17.496-1.44
		c-6.696-1.152-13.392-2.304-20.16-3.456c0.072-0.36,0.144-0.792,0.288-1.224c2.592-1.872,5.184-3.744,7.848-5.616
		c10.584,1.656,19.656,2.592,25.92,3.6c3.168,0.288,6.336,0.576,9.576,0.936c4.248-0.072,8.496-0.144,12.744-0.216
		c2.664-0.288,5.4-0.648,8.136-1.008c0.072-0.216,0.144-0.504,0.288-0.792c0.576,0.216,1.224,0.504,1.872,0.792
		c4.176,2.664,8.352,5.328,12.528,8.064c-0.072,0.072-0.144,0.216-0.288,0.36c-1.584,0.144-3.168,0.288-4.752,0.504
		C140.328,171.144,137.448,171.144,134.568,171.144L134.568,171.144z M159.48,168.9841c-2.016-1.08-4.104-2.2321-6.192-3.384
		c-0.072-0.36-0.144-0.72-0.288-1.08c2.952-0.432,5.904-0.864,8.928-1.296c6.264-1.872,12.6-3.816,18.936-5.76
		c5.04-2.448,5.04-2.448,5.76-2.448c7.92,3.888,7.92,3.888,10.296,5.328c-0.432,0.288-0.936,0.576-1.44,0.936
		c-10.08,2.376-20.16,4.752-30.24,7.2C161.424,168.9841,161.424,168.9841,159.48,168.9841L159.48,168.9841z M142.2,159.12
		c-1.8-1.224-3.6-2.448-5.4-3.672c0-0.288,0.072-0.576,0.144-0.864c6.12-0.936,12.312-1.872,18.504-2.88
		c3.96-1.2961,7.92-2.592,11.952-3.888c1.728-0.936,2.16-1.44,3.168-1.872c0.36,0.072,0.72,0.144,1.152,0.216
		c1.872,1.224,3.816,2.52,5.76,3.816c0,0.288,0.0721,0.576,0.144,0.864c-11.16,3.744-11.16,3.744-21.024,6.624
		C150.624,158.4,150.624,158.4,142.2,159.12L142.2,159.12z M210.6,157.176c-2.376-0.432-2.376-0.432-2.592-0.72
		c-0.936,0-1.872,0-2.88,0c-1.656-0.576-3.312-1.224-5.04-1.872c-2.52-1.296-5.112-2.592-7.704-3.888
		c-0.072-0.216-0.144-0.504-0.216-0.792c2.52-0.576,5.04-1.152,7.632-1.8c5.76-1.944,5.76-1.944,10.08-3.888
		c1.08-0.576,2.232-1.224,3.384-1.872c1.512-1.368,3.024-2.736,4.536-4.104c1.44,0.216,1.44,0.216,3.168,0.936
		c2.376,0,4.752,0.072,7.2,0.144c-0.144,10.08-0.144,10.08,0.072,12.528c-0.36,0.288-7.56,2.232-15.912,5.112
		C211.752,157.032,211.176,157.1041,210.6,157.176L210.6,157.176z M109.8,156.96c-7.992-0.936-15.984-1.944-23.976-2.952
		c0-0.216-0.072-0.432-0.144-0.72c1.728-1.296,3.456-2.592,5.184-3.888c2.016-1.944,4.032-3.96,6.12-5.976
		c0.936-1.44,0.936-1.44,2.016-2.304c0.936,0.072,1.872,0.144,2.88,0.216c2.16,0.648,4.32,1.296,6.48,1.944
		c1.512,0.648,3.024,1.296,4.608,1.944c2.232,1.224,4.464,2.52,6.696,3.816c7.2,5.76,7.2,5.76,7.56,6.408
		c0,0.216-0.072,0.504-0.144,0.792c-1.152,0.144-2.376,0.288-3.6,0.504C118.944,156.816,114.408,156.8881,109.8,156.96L109.8,156.96
		z M232.488,151.056c-0.144-0.576-0.288-1.224-0.432-1.872c0-1.584,0-3.168,0-4.824c0.216-1.008,0.432-2.016,0.72-3.096
		c0.504-0.288,1.008-0.576,1.584-0.864c1.8,0,3.672,0,5.544,0c4.032-0.432,8.136-0.936,12.24-1.44c3.384-1.44,3.384-1.44,4.32-1.512
		c-0.072,0.72-0.216,1.44-0.36,2.16c-0.648,1.656-1.296,3.312-1.944,5.04c-1.944,2.88-1.944,2.88-3.384,4.536
		c-1.872,0-3.744,0-5.616,0.072c-3.744,0.648-7.488,1.2961-11.232,1.944C233.496,151.2,232.992,151.128,232.488,151.056
		L232.488,151.056z M128.304,148.3201c-1.728-1.368-3.456-2.736-5.184-4.176c0-0.288,0-0.576-0.072-0.936
		c6.192-0.504,12.456-1.008,18.72-1.584c3.456-1.296,6.984-2.592,10.512-3.888c0.936-0.72,1.872-1.44,2.88-2.16
		c0.36,0,0.792,0,1.224,0c5.976,3.888,5.976,3.888,7.56,5.184c0,0.288-0.072,0.576-0.144,0.864c-2.664,0.936-5.4,1.872-8.136,2.88
		c-5.328,0.936-10.656,1.872-16.056,2.88C131.184,148.3201,131.184,148.3201,128.304,148.3201L128.304,148.3201z M181.368,145.224
		c-2.088-1.296-4.176-2.592-6.264-3.888c-2.52-1.872-5.112-3.816-7.704-5.76c-0.072-0.288-0.144-0.648-0.216-1.008
		c3.6-0.288,7.2-0.576,10.8-0.864c3.96-0.648,7.992-1.2961,12.024-1.944c3.456-0.936,6.984-1.872,10.512-2.88
		c2.952-1.224,5.904-2.52,8.928-3.816c0.864-0.648,1.728-1.296,2.592-1.944c1.872,0.216,3.744,0.432,5.6161,0.648
		c0,1.224,0,2.52,0,3.816c-0.936,2.16-0.936,2.16-1.872,3.6c-4.104,3.816-4.104,3.816-6.624,5.76
		c-3.384,1.944-3.384,1.944-7.416,3.672c-6.264,1.944-6.264,1.944-10.8,2.88c-2.664,0.288-5.4,0.648-8.136,1.008
		C181.8,145.224,181.8,145.224,181.368,145.224L181.368,145.224z M107.64,136.584c-0.36-0.144-0.72-0.288-1.152-0.504
		c0-0.216-0.072-0.504-0.144-0.792c2.232-1.944,2.232-1.944,7.632-5.76c3.816-2.16,7.632-4.392,11.448-6.624
		c0.648-0.144,1.296-0.288,1.944-0.504c0.072-0.216,0.144-0.504,0.288-0.792c0.648,0,1.368-0.072,2.088-0.144
		c6.264,1.872,6.264,1.872,11.52,3.816c2.592,1.728,5.256,3.456,7.92,5.256c0.072,0.864,0.072,0.864-0.216,1.224
		c-2.448,0.936-4.968,1.872-7.488,2.88c-2.592,0.504-11.232,0.936-13.68,1.44c-3.312,0.216-16.776,0.216-18,0.504
		C109.08,136.584,108.36,136.584,107.64,136.584L107.64,136.584z M239.4,133.344c0.072-0.288,0.216-0.576,0.36-0.936
		c1.944-1.296,3.888-2.592,5.904-3.888c1.296-1.296,2.592-2.664,3.96-4.032c0.432-1.008,0.432-1.008,3.816-5.328
		c0.144-1.224,0.288-2.52,0.504-3.816c0.936-0.936,1.8-1.368,2.304-2.16c0.288-0.072,0.576-0.144,0.936-0.216
		c0.144,2.232,0.36,4.464,0.576,6.696c0,2.448,0,4.896,0,7.416c-0.504,2.448-0.504,2.448-0.792,2.736
		c-1.944,0.504-3.6,1.44-6.984,2.448C246.456,132.624,242.928,132.9841,239.4,133.344L239.4,133.344z M228.888,132.696
		c-2.88-0.432-2.88-0.432-6.768-0.576c0.072-2.736,0.144-5.472,0.288-8.28c3.312-0.288,6.696-0.576,10.08-0.936
		c5.04-1.008,5.04-1.008,11.232-2.88c0.432-0.216,0.936-0.432,1.44-0.72c0.288,0,0.648,0,1.008,0.072
		c-0.432,0.648-0.936,1.368-1.44,2.088c-2.952,1.872-5.904,3.816-8.928,5.76c-0.72,0.576-1.44,1.224-2.16,1.872
		c-0.864,1.152-1.728,2.376-2.592,3.6C230.328,132.696,229.608,132.696,228.888,132.696L228.888,132.696z M155.88,128.16
		c-2.664-1.872-5.4-3.816-8.136-5.76c-0.072-0.216-0.144-0.504-0.216-0.792c2.016,0,4.104,0,6.192,0.072
		c2.016-0.288,4.032-0.576,6.048-0.936c6.48-1.944,6.48-1.944,11.52-3.888c7.2-3.816,7.2-3.816,10.08-5.76
		c0.936-0.936,1.872-1.872,2.88-2.88c0.792-1.512,1.584-3.024,2.448-4.608c0-1.008,0.0721-2.088,0.144-3.168
		c0.72,0.216,0.72,0.216,3.888,3.24c1.152,0.648,2.376,1.296,3.6,1.944c7.416,1.872,7.416,1.872,11.736,2.52
		c-0.864,2.376-0.864,2.376-2.808,6.264c-0.072,0.792-0.144,1.584-0.216,2.376c1.152,0.504,2.304,1.008,3.528,1.512
		c-1.08,0.648-2.232,1.296-3.384,1.944c-1.584,0.648-3.168,1.296-4.824,1.944c-5.184,1.224-10.368,2.52-15.552,3.816
		c-3.312,0.432-6.696,0.936-10.08,1.44C167.112,127.656,161.496,127.872,155.88,128.16L155.88,128.16z M214.2,116.64
		c-3.6-0.936-3.6-0.936-4.104-1.296c0-0.288,0-0.576-0.072-0.936c1.08-1.944,2.16-3.888,3.24-5.904
		c3.312-0.36,6.696-0.72,10.08-1.08c-0.072,0.504-0.216,1.08-0.36,1.656c-0.648,0.936-1.296,1.872-1.944,2.88
		c-1.368,1.512-2.736,3.096-4.176,4.68C216,116.64,215.136,116.64,214.2,116.64L214.2,116.64z M225.504,116.784
		c0-0.288,0-0.576,0.072-0.936c3.888-5.544,5.76-8.928,6.84-10.368c1.512-0.576,3.024-1.152,4.608-1.8
		c1.368-0.288,2.736-0.576,4.104-0.936c2.448-1.296,4.896-2.592,7.416-3.888c1.8-1.224,3.672-2.52,5.544-3.816
		c0.216,0,0.504,0.072,0.792,0.144c0.936,3.6,0.936,3.6,1.44,6.984c0,0.792,0,1.584-0.072,2.448
		c-0.288,0.072-0.648,0.144-1.008,0.288c-0.936,1.224-1.872,2.52-2.88,3.816c-3.816,1.944-3.816,1.944-10.8,4.824
		c-1.872,0.576-3.816,1.224-5.76,1.872C229.608,116.424,229.608,116.424,225.504,116.784L225.504,116.784z M133.344,116.424
		c-0.288-0.144-0.576-0.288-0.936-0.504c0-0.216-0.072-0.504-0.144-0.792c0.504-0.288,1.008-0.648,1.512-1.008
		c5.832-2.16,11.664-4.392,17.568-6.624c4.464-1.224,8.928-2.52,13.464-3.816c8.856-1.944,8.856-1.944,12.456-3.096
		c0.504-0.504,0.504-0.504,2.376-1.008c0.648,0,1.296,0,1.944-0.072c-0.072,0.648-0.216,1.296-0.36,1.944
		c-1.368,1.512-2.736,3.024-4.104,4.536c-3.024,1.944-3.024,1.944-6.336,3.672c-3.24,1.296-6.552,2.592-9.864,3.888
		c-1.152,0.288-2.376,0.576-3.6,0.936c-5.04,0.504-5.04,0.504-11.016,0.72c-1.584-0.072-3.168-0.144-4.824-0.216
		c-1.728,0.144-3.456,0.288-5.256,0.432c-0.504,0.288-1.08,0.648-1.656,1.008C134.208,116.424,133.776,116.424,133.344,116.424
		L133.344,116.424z M208.44,101.304c-2.88-0.288-5.76-0.648-8.64-1.008c-3.6-0.936-3.6-0.936-6.264-2.016c0-0.288,0-0.576,0-0.936
		c1.2961-0.936,2.592-1.872,3.9601-2.88c1.368-0.576,2.808-1.152,4.248-1.8c2.88-0.792,5.76-1.584,8.64-2.448
		c1.08-0.0721,2.232-0.144,3.384-0.288c-0.2881,1.512-0.576,3.024-0.864,4.536c-0.864,2.16-1.8,4.32-2.736,6.552
		C209.448,101.304,209.448,101.304,208.44,101.304L208.44,101.304z M217.584,100.7281c0.792-3.888,1.8-7.2,2.736-12.9601
		c0.648-0.4319,0.648-0.4319,15.048-4.1039c-0.576,2.448-1.224,4.896-1.872,7.416c-1.872,3.888-1.872,3.888-4.392,7.92
		C224.784,99.864,224.784,99.864,217.584,100.7281L217.584,100.7281z M238.464,95.904c1.224-4.104,2.448-8.28,3.672-12.456
		c0.216-0.288,0.432-0.576,0.648-0.864c0.864-0.144,1.728-0.288,2.664-0.504c2.376-1.944,2.376-1.944,3.312-2.376
		c0.576-0.072,1.152-0.144,1.728-0.288c1.728,4.968,1.728,4.968,2.448,8.5681c-2.16,1.944-2.952,2.232-3.888,3.24
		c-2.736,1.44-5.472,2.88-8.208,4.32C240.048,95.616,239.256,95.7601,238.464,95.904L238.464,95.904z M306.864,29.3041
		c-0.864-0.216-1.728-0.432-2.664-0.72c-1.1519-0.936-2.376-1.872-3.6-2.8801c-0.576-1.1519-1.152-2.3039-1.8-3.4559
		c-0.144-1.152-0.288-2.376-0.504-3.6c0.288-1.0801,0.648-2.232,1.008-3.3841c0.936-1.6559,1.872-3.312,2.88-5.0399
		C303.336,9,303.336,9,304.704,8.0641c0.36-0.072,0.7921-0.216,1.224-0.36c0.864,0.072,1.728,0.144,2.592,0.216
		c0.36,0.288,0.792,0.5759,1.224,0.936c1.224,2.376,2.448,4.752,3.672,7.128c0.576,0.792,1.152,1.5839,1.728,2.376
		c0.936,3.384,0.936,3.384,1.152,5.544c-0.576,1.08-1.224,2.2319-1.872,3.384c-0.576,0.2159-1.152,0.504-1.8,0.792
		C310.752,28.4401,308.808,28.8721,306.864,29.3041L306.864,29.3041z"/>
</g>
</svg>
