<?xml version="1.0" encoding="utf-8"?>
<!-- Generator: Adobe Illustrator 21.1.0, SVG Export Plug-In . SVG Version: 6.00 Build 0)  -->
<svg version="1.1" id="S" xmlns="http://www.w3.org/2000/svg" xmlns:xlink="http://www.w3.org/1999/xlink" x="0px" y="0px"
	 viewBox="0 0 316.026 331.704" enable-background="new 0 0 316.026 331.704" xml:space="preserve">
<g>
	<path fill-rule="evenodd" clip-rule="evenodd" d="M149.688,331.704c-0.936-0.288-1.872-0.648-2.88-1.008
		c-1.368-1.008-2.736-2.016-4.104-3.096c-1.584,0-3.168,0-4.824,0c-3.816,0.936-7.632,1.44-11.016,2.376
		c-4.32,0.504-4.32,0.504-5.976,1.008c-4.176,0.072-8.352,0.144-12.528,0.216c-5.184-0.288-10.368-0.576-15.552-0.936
		c-3.24-0.648-6.552-1.296-9.864-1.944c-1.44-0.648-2.88-1.296-4.32-1.944c-2.88-2.232-5.76-4.464-8.64-6.696
		c-4.824-5.76-5.184-6.552-6.408-7.56c-0.216-0.576-0.432-1.224-0.72-1.872c0-4.608,0-4.608,0.504-8.64
		c0.936-3.384,0.936-3.384,2.88-8.208c0.288-1.44,0.576-2.88,0.936-4.32c1.44-3.096,1.44-3.096,1.944-5.04c0-0.792,0-1.584,0-2.376
		c-0.792-1.584-1.584-3.168-2.376-4.824c-1.872-1.728-3.816-3.456-5.76-5.256c-2.88-1.944-2.88-1.944-18.144-13.824
		c-1.872-0.936-6.48-4.104-7.416-5.04c-0.936-0.648-1.872-1.296-2.88-1.944c-3.816-3.816-3.816-3.816-10.584-9.576
		c-5.976-6.48-7.2-7.416-9.36-9.864c-1.872-2.952-2.88-4.032-3.816-5.616c-0.648-0.432-0.648-0.432-2.52-3.6
		c-0.648-1.44-1.296-2.88-1.944-4.32c-1.008-4.032-2.016-8.136-3.096-12.24c0.072-2.304,0.144-4.608,0.216-6.912
		c0.504-4.176,1.08-8.352,1.656-12.528c-0.576-2.448-1.224-4.896-1.872-7.416c-0.36-2.448-0.792-4.896-1.224-7.416
		c0.144-3.24,0.288-6.552,0.504-9.864c0.936-4.536,0.936-4.536,1.872-7.704c1.944-3.816,1.944-3.816,2.448-4.32
		c0.072-0.576,0.144-1.224,0.216-1.872c-0.504-1.944-0.504-1.944-0.936-6.264c0.216-1.944,0.216-1.944-0.288-7.704
		c0.144-2.736,0.288-5.544,0.504-8.352c0.504-1.224,0.504-1.224,1.44-6.0479c1.224-3.024,2.52-6.048,3.816-9.0721
		c0.648-1.08,1.296-2.232,1.944-3.384c1.224-1.512,2.52-3.024,3.816-4.5359c0.288-1.944,0.288-1.944,0.72-12.024
		c0.504-0.72,0.504-0.72,1.224-4.104c0.072-1.44,0.144-2.88,0.216-4.32c0.648-1.944,1.296-3.96,1.944-5.976
		c1.224-2.088,2.52-4.176,3.816-6.264c2.52-1.872,5.112-3.816,7.704-5.76c1.8-0.864,3.6-1.8,5.4-2.7361
		c3.6-1.008,6.264-1.4399,6.984-1.9439c0-1.8,0-3.6,0.072-5.4c0.936-2.52,1.872-5.04,2.88-7.632
		c1.296-1.728,2.592-3.528,3.888-5.328c1.584-1.224,3.24-2.52,4.896-3.816c1.44-0.576,2.88-1.152,4.32-1.8
		c2.376-0.576,4.752-1.152,7.2-1.7281c1.512-0.0719,3.024-0.1439,4.608-0.2159c8.64,0.936,9.36,1.224,10.8,1.224
		c0.216-0.864,0.504-1.8,0.792-2.736c1.224-2.52,2.52-5.112,3.816-7.704C90,20.808,90,20.808,90.936,19.584
		c0.936-0.6479,1.872-1.296,2.808-1.944c1.584-0.576,3.168-1.152,4.824-1.8c1.08-0.1439,2.16-0.288,3.312-0.504
		c3.024-0.0719,6.048-0.1439,9.144-0.2159c1.152,0.288,2.376,0.576,3.6,0.936c1.0081,0.432,2.0161,0.936,3.096,1.44
		c0.36,0,0.792,0,1.224,0c3.672-5.8321,3.672-5.8321,7.56-11.0881c0.648-0.6479,1.2961-1.296,2.016-1.944
		c1.512-0.936,3.024-1.8719,4.536-2.88c0.864-0.288,1.728-0.576,2.664-0.864c2.16-0.2159,4.32-0.432,6.48-0.72
		c1.296,0.072,2.592,0.144,3.888,0.2159c4.752,1.9441,4.752,1.9441,8.136,3.888c1.728,1.2241,3.456,2.5201,5.256,3.8161
		c2.232,2.376,4.464,4.752,6.768,7.2c0.504-0.072,1.08-0.144,1.656-0.2159c1.368-0.936,2.7361-1.8721,4.104-2.88
		c1.2961-0.432,2.664-0.936,4.032-1.4401c1.296-0.144,2.592-0.288,3.888-0.504c1.728,0.072,3.456,0.144,5.256,0.216
		c1.152,0.288,2.376,0.648,3.6,1.008c1.152,0.576,2.376,1.2239,3.6,1.872c4.824,4.6079,5.256,5.328,7.416,7.2
		c2.376,2.52,4.752,5.112,7.2,7.704c0.576,0.072,1.152,0.144,1.728,0.216c1.152-0.432,2.376-1.4401,4.752-2.376
		c0.936-0.072,1.8719-0.144,2.88-0.216c3.24,0.576,6.552,1.224,9.864,1.872c2.664,1.296,5.4,2.5919,8.136,3.8879
		c1.008,0.936,2.664,1.8719,5.76,4.752c1.008,1.2961,2.088,2.5921,3.168,3.888c4.176,8.064,5.112,10.6561,6.048,12.3841
		c3.096,0.072,6.192,0.144,9.2879,0.288c2.3041,0.648,4.608,1.296,6.9841,1.944c1.656,0.936,2.592,1.944,4.032,2.88
		c1.008,1.008,2.088,2.016,3.168,3.096c1.2239,1.656,2.52,3.312,3.8159,5.04c1.8,3.744,2.7361,4.968,5.616,10.728
		c0.288,1.728,0.576,3.456,0.936,5.256c-0.216,3.384-0.216,3.384-0.936,6.264c0.144,0.144,0.288,0.288,0.504,0.504
		c0.576,0.072,1.152,0.144,1.8,0.288c2.16,1.944,2.16,1.944,5.256,3.888c1.4399,1.296,2.8799,2.664,4.3199,4.032
		c3.168,4.32,3.888,4.824,4.824,6.12c1.224,1.08,1.224,1.08,2.952,3.672c0.648,1.728,1.296,3.456,1.944,5.256
		c0.144,0.864,0.288,1.728,0.504,2.664c0,1.584,0,3.168,0,4.752c-0.288,2.304-0.648,4.608-1.008,6.9839
		c0.072,2.088,0.144,4.176,0.288,6.264c0.288,0.864,0.576,1.728,0.936,2.592c3.816,4.824,3.816,4.824,6.264,8.424
		c0.576,2.448,1.2241,4.896,1.872,7.416c0.072,2.16,0.144,4.32,0.288,6.48c-0.432,2.376-0.936,4.752-1.44,7.2
		c0,0.792,0,1.584,0,2.448c2.88,5.04,2.88,5.04,3.816,7.416c0.1439,1.584,0.288,3.168,0.504,4.824c-0.288,0.936-0.288,3.816,0,4.536
		c0.216,11.016,0.216,11.016,0,13.464c-0.288,1.224-0.648,2.52-1.008,3.816c-0.936,2.232-1.872,4.4641-2.88,6.696
		c-2.16,1.944-2.16,1.944-8.28,8.928c-2.88,2.592-5.76,5.256-8.64,7.92c-4.752,3.816-9.576,7.632-14.4,11.52
		c-6.192,3.816-6.192,3.816-16.488,9.432c-6.768,5.544-7.2,6.264-11.808,10.296c-5.04,5.04-10.08,10.152-15.12,15.264
		c-0.288,0.432-0.576,0.936-0.864,1.44c0,0.36,0,0.792,0,1.224c0.648,0.72,1.296,1.44,1.944,2.16c0.648,1.152,1.296,2.376,1.944,3.6
		c0.936,1.08,1.872,2.232,2.88,3.384c0.144,0.504,0.288,1.08,0.432,1.656c0.936,1.224,1.872,2.52,2.88,3.816
		c1.296,2.808,2.592,5.616,3.888,8.424c0.216,1.008,0.432,2.016,0.72,3.096c-0.288,3.888-0.288,3.888-0.72,6.048
		c-0.144,0.36-0.288,0.72-0.504,1.152c-1.368,1.512-2.736,3.024-4.104,4.608c-4.68,3.816-4.68,3.816-10.152,7.488
		c-1.152,0.648-2.376,1.296-3.6,1.944c-2.88,0.936-4.824,1.944-11.52,4.32c-2.16,0.216-2.376,0.504-9.576,1.944
		c-1.728,0.216-3.528,0.432-5.328,0.72c-2.304,0.072-4.608,0.144-6.912,0.216c-0.216,0.144-0.432,0.288-0.72,0.504
		c-1.944,0.216-1.944,0.216-15.12-0.288c-3.24-0.36-6.552-0.72-9.864-1.152c-2.88,0-5.76,0-8.64,0
		c-1.08,0.144-2.232,0.288-3.384,0.432c-0.936,0.648-1.872,1.296-2.88,1.944c-1.584,0.648-3.168,1.296-4.752,1.944
		C152.136,331.704,150.912,331.704,149.688,331.704L149.688,331.704z M103.608,328.536c-3.312-0.288-6.696-0.576-10.08-0.936
		c-2.952-0.432-5.904-0.936-8.928-1.44c-1.512-0.648-3.024-1.296-4.536-1.944c-0.936-0.576-1.872-1.224-2.88-1.872
		c-1.944-2.16-4.32-4.104-6.264-6.264c-0.072-0.72-0.216-1.44-0.36-2.232c-0.36-0.864-0.792-1.728-1.224-2.664
		c0-0.792,0-1.584,0-2.376c0.288-0.648,0.648-1.296,1.008-1.944c0.576-0.648,1.224-1.296,1.872-1.944
		c2.088-0.864,2.088-0.864,5.472-1.584c1.8,0,3.6,0,5.472,0c5.112,1.296,10.224,2.592,15.408,3.888
		c5.472,1.872,7.632,2.88,16.776,5.76c5.328,1.872,10.656,3.816,16.056,5.76c1.368,0.936,2.7361,1.872,4.104,2.88
		c0.648,0.864,1.2961,1.728,1.944,2.592c-0.504,0.504-0.504,0.504-3.6,1.44c-3.6,0.504-6.9839,1.44-13.968,2.448
		C113.904,328.536,113.904,328.536,103.608,328.536L103.608,328.536z M154.008,328.104c-0.288-0.144-0.648-0.288-1.008-0.504
		c-0.936,0.216-0.936,0.216-2.592,0c-3.24-2.376-6.5519-4.752-9.864-7.2c-2.232-2.016-4.464-4.032-6.696-6.12
		c-0.6479-1.0081-1.368-2.016-2.088-3.096c-1.944-1.944-3.816-4.32-8.64-8.856c-0.288-0.7921-0.576-1.584-0.936-2.448
		c-0.864-0.576-1.728-1.224-2.664-1.872c-7.704-7.2-7.704-7.2-9.576-9.36c-4.68-3.888-6.768-6.048-11.52-9.864
		c-1.584-1.8-3.168-3.672-4.824-5.544c-0.72-0.576-1.512-1.224-2.304-1.872c-5.544-5.688-11.088-11.376-16.632-17.064
		c-5.4-5.256-10.872-10.512-16.344-15.84c-0.576-0.072-1.152-0.216-1.8-0.36c-5.04-4.104-5.04-4.104-10.296-7.92
		c-0.72-0.72-1.44-1.44-2.16-2.16c-1.8-1.296-3.672-2.592-5.544-3.888c-1.224-1.152-2.52-2.376-3.816-3.6
		c-0.504-0.144-1.08-0.288-1.656-0.4319c-1.944-1.944-1.944-1.944-2.304-2.7361c-1.44-1.008-5.76-5.5439-6.984-6.4799
		c-1.224-1.584-2.52-3.168-3.816-4.824c-1.296-2.088-2.592-4.176-3.888-6.264c-0.432-1.8-0.936-3.6-1.44-5.472
		c0-1.8,0-3.672-0.072-5.544c0.216,0,0.432,0,0.72,0.072c1.368,1.512,2.736,3.096,4.104,4.68c4.536,4.248,4.536,4.248,6.912,6.12
		c0.792,0.432,1.584,0.936,2.448,1.44c0.144,0.216,0.288,0.432,0.432,0.72c1.44,0.936,2.88,1.872,4.32,2.88
		c1.872,1.728,3.816,3.528,5.76,5.328c1.008,0.432,4.104,2.952,5.04,4.032c1.8,1.584,3.672,3.168,5.544,4.824
		c0.504,0.288,1.08,0.576,1.656,0.936c5.544,4.824,6.984,5.76,7.92,6.768c1.728,0.936,2.16,1.44,3.888,2.376
		c4.536,4.104,4.536,4.104,14.4,12.024c8.136,8.136,8.136,8.136,9.36,9.072c1.872,2.448,5.76,6.2639,13.392,15.12
		c1.872,2.376,3.816,4.752,5.76,7.128c2.232,2.16,4.464,4.32,6.768,6.552c1.224,1.584,2.52,3.168,3.816,4.824
		c4.32,4.176,4.32,4.176,8.136,8.64c1.296,1.944,2.592,3.888,3.888,5.904c1.728,3.6,1.728,3.6,2.232,4.104
		c0.288,0,0.576,0,0.864,0.072c0.36-0.576,0.36-0.576,0.36-2.016c-3.024-5.688-6.048-11.376-9.144-17.0641
		c-0.144-0.72-0.288-1.44-0.504-2.16c-1.224-1.44-2.52-2.88-3.816-4.32c-1.224-2.016-2.5201-4.104-3.816-6.192
		c-0.72-0.648-1.44-1.296-2.16-1.944c-0.936-1.44-1.872-2.88-2.88-4.32c-0.36-0.2881-0.792-0.576-1.224-0.936
		c-3.816-4.824-3.816-4.824-24.12-28.08c-2.52-2.16-4.536-4.3199-5.4-4.8239c-2.088-2.16-4.176-4.32-6.264-6.48
		c-7.128-5.112-14.256-10.296-21.456-15.48c-3.168-2.952-6.336-5.904-9.576-8.928c-7.92-10.152-7.92-10.152-8.856-11.736
		c-0.576-0.288-1.152-0.576-1.728-0.936c-1.872-2.376-3.816-4.752-5.76-7.2c-7.56-12.096-7.56-12.096-8.496-14.04
		c-1.008-0.936-1.008-0.936-1.944-2.664c-0.936-2.592-2.88-5.976-3.816-8.64c-1.008-1.872-1.008-1.872-1.944-5.04
		c-1.08-0.936-1.08-0.936-1.656-2.16C7.2,144.36,7.2,144.36,6.696,135c0.072-2.232,0.144-4.464,0.288-6.696
		c0.432-2.16,0.864-4.32,1.296-6.4799c0.216,0,0.432,0,0.72,0c0.288,1.08,0.576,2.232,0.864,3.3839
		c3.816,9.576,3.816,9.576,7.632,18.216c1.872,3.816,3.816,7.632,5.76,11.52c3.24,4.32,6.552,8.64,9.864,12.96
		c1.44,1.44,2.88,2.88,4.32,4.32c0.288,0.504,0.576,1.08,0.936,1.656c6.264,7.2,6.264,7.2,14.4,15.624
		c0.864,0.72,1.728,1.44,2.664,2.16c1.224,1.584,2.52,3.168,3.816,4.824c0.504,0.072,1.008,0.144,1.584,0.288
		c1.512,1.728,3.024,3.528,4.608,5.328c0.36,0.072,0.72,0.144,1.152,0.216c1.224,1.44,1.224,1.44,4.824,4.464
		c1.224,1.512,2.52,3.096,3.816,4.68c3.456,3.384,6.912,6.84,10.368,10.296c3.816,5.04,3.816,5.04,7.632,9.36
		c4.104,4.104,4.104,4.104,10.8,11.736c1.872,3.096,3.816,6.192,5.76,9.36c3.744,5.184,3.744,5.184,5.184,7.848
		c0.504,0.36,1.008,0.72,1.584,1.152c0.576,1.08,1.224,2.16,1.872,3.24c1.08,1.44,2.232,2.88,3.384,4.32
		c3.672,7.128,3.672,7.128,6.552,11.952c0.504,0.432,1.008,0.936,1.584,1.44c0.36,0,0.792,0,1.224,0.072
		c0.288-0.36,0.576-0.792,0.936-1.224c0-0.576,0.072-1.152,0.144-1.728c-0.144-0.288-0.288-0.648-0.504-1.008
		c-0.504-0.288-1.008-0.576-1.512-0.936c-0.936-1.584-1.872-3.168-2.808-4.824c-1.944-4.536-3.816-7.92-5.76-12.24
		c-0.648-1.08-1.296-2.16-1.944-3.312c-0.936-2.88-2.88-6.984-3.312-8.424c-1.008-1.44-1.008-1.44-4.824-9.864
		c-1.224-2.016-2.52-4.104-3.816-6.192c-3.816-5.184-7.632-10.368-11.52-15.624c-11.808-14.184-11.808-14.184-13.68-16.776
		c-4.32-4.608-5.04-5.0399-7.2-7.4879c-4.32-4.032-4.32-4.032-8.208-8.3521c-1.44-1.944-1.44-1.944-3.816-4.104
		c-0.432-0.288-0.936-0.576-1.44-0.936c-3.384-3.888-6.768-7.848-10.224-11.808c-0.72-0.576-1.44-1.224-2.232-1.872
		c-4.32-5.328-4.32-5.328-5.544-6.264c-1.944-2.88-3.384-4.536-5.256-7.704c-7.704-10.8-7.704-10.8-9.648-14.112
		c-1.872-3.888-2.376-4.32-2.88-5.328c-1.872-9.072-3.312-18-4.752-24.192c-0.144-1.368-0.288-2.736-0.504-4.1039
		c-0.216-0.504-0.432-1.08-0.72-1.656c-0.216-13.248-0.216-13.248,0-17.568c0.432-0.2881,0.864-0.576,1.368-0.864
		c0.576-2.088,1.152-4.176,1.728-6.336c1.944-2.592,1.944-2.592,3.168-3.6c0.864-0.36,0.864-0.36,3.456-0.576
		c0.144,4.68,0.144,4.68-0.144,5.4c0.216,3.816,0.432,7.632,0.72,11.52c1.296,4.824,2.592,9.72,3.888,14.616
		c2.88,8.928,3.816,10.8,4.32,12.744c1.224,3.024,2.52,6.048,3.816,9.144c1.944,2.88,1.944,2.88,2.88,4.752
		c1.224,1.224,1.224,1.224,6.48,8.424c0.792,0.72,1.584,1.44,2.376,2.16c6.768,8.424,6.768,8.424,14.4,17.064
		c4.608,3.8159,4.608,3.8159,8.928,7.92c2.592,2.952,5.256,5.904,7.92,8.856c1.872,2.664,5.76,6.9839,6.696,8.424
		c0.288,0.792,0.576,1.584,0.936,2.376c3.816,5.832,7.632,11.664,11.52,17.496c4.464,8.136,8.928,16.272,13.464,24.48
		c1.872,3.96,3.816,7.9919,5.7599,12.024c2.088,5.184,4.176,10.368,6.264,15.624c0.288,1.656,0.576,3.312,0.936,5.04
		c0.432,0.432,0.864,0.936,1.296,1.44c0.288-0.216,0.576-0.432,0.864-0.72c-0.0721-0.936-0.144-1.872-0.216-2.88
		c-1.008-3.384-1.008-3.384-2.448-10.584c-0.072-1.152-0.144-2.376-0.216-3.6c0.216-0.216,0.432-0.432,0.72-0.72
		c-0.072-0.72-0.144-1.44-0.216-2.16c-0.288-0.792-0.648-1.584-1.008-2.376c-0.216-0.144-0.432-0.288-0.72-0.504
		c-2.52-6.84-5.04-13.752-7.632-20.664c-5.76-13.392-5.76-13.392-9.648-21.6c-3.816-6.48-3.816-6.48-5.76-10.512
		c-9.576-15.408-11.52-18-13.392-21.168c-0.504-0.432-1.44-2.592-5.328-8.136c-0.576-1.224-1.224-2.5201-1.872-3.816
		c-0.792-1.008-1.584-2.088-2.448-3.168c-0.144-0.576-0.288-1.224-0.432-1.872c-0.72-0.792-1.44-1.584-2.16-2.448
		c-5.76-9.576-5.76-9.576-6.768-10.8c-0.936-2.16-2.88-5.472-6.696-14.112c-2.376-4.392-4.752-8.784-7.2-13.248
		c-0.648-0.576-1.296-1.224-1.944-1.872c-0.576-0.936-1.224-1.872-1.872-2.88c-1.296-3.24-2.592-6.552-3.888-9.864
		c-0.576-2.52-1.224-5.112-1.872-7.704c-1.008-7.2-1.008-7.2-1.44-14.112c0-4.8239-0.504-11.088-0.288-15.12
		c0.648-1.656,1.296-3.312,1.944-5.0399c1.008-1.296,2.016-2.592,3.096-3.8881c5.688-3.744,5.688-3.744,6.912-4.176
		c1.656,0,3.312-0.072,5.04-0.144c-0.576,1.4401-1.224,2.88-1.872,4.32c-0.432,2.592-0.936,5.256-1.44,7.92
		c0.072,2.088,0.144,4.176,0.288,6.264C64.8,75.24,64.8,75.24,65.736,79.128c1.296,2.952,2.592,5.904,3.888,8.856
		c0.936,1.224,0.936,1.224,4.752,9.144c1.944,2.592,2.88,4.32,3.888,5.256c1.44,2.448,2.88,4.896,4.32,7.416
		c0.288,0.864,0.576,1.728,0.936,2.664c3.168,5.256,6.336,10.512,9.576,15.84c2.52,3.672,5.112,7.344,7.704,11.016
		c3.816,7.92,5.76,11.304,6.696,13.464c0.504,0.504,1.44,2.664,2.448,3.816c1.224,2.304,2.52,4.6079,3.816,6.9839
		c3.816,10.08,3.816,10.08,6.264,15.336c0.432,1.944,0.432,1.944,4.32,11.304c2.5201,8.136,5.04,16.272,7.632,24.48
		c1.08,4.536,2.232,9.072,3.384,13.68c0.432,3.816,0.936,7.632,1.44,11.52c0.144,2.952,0.288,5.904,0.504,8.856
		c0.432,1.44,0.432,1.44,0.864,1.8c0.36-0.072,0.72-0.144,1.152-0.216c0.36-0.576,0.36-0.576,0.864-5.184
		c-0.288-2.592-0.648-5.256-1.008-7.92c0-3.96,0-7.92,0-11.952c-0.432-3.888-0.432-3.888-0.432-6.768
		c-1.008-3.096-6.768-26.136-7.704-28.512c-0.936-4.32-2.88-10.08-3.816-13.968c-1.008-2.88-1.008-2.88-1.44-5.256
		c-1.296-3.24-2.592-6.552-3.888-9.864c-0.576-2.016-1.224-4.104-1.872-6.192c-2.88-6.48-2.88-6.48-6.768-13.968
		c-0.144-0.144-0.288-0.288-0.432-0.432c-0.216-1.584-0.432-3.168-0.72-4.824c-0.288-0.288-0.648-0.576-1.008-0.936
		c-1.872-3.384-1.872-3.384-4.32-8.64c-1.872-5.5439-1.872-5.5439-4.752-12.744c-1.296-2.52-2.592-5.112-3.888-7.704
		c-7.632-17.496-7.632-17.496-7.92-17.712c-1.872-4.68-3.816-9.432-5.76-14.184c-0.576-2.952-1.224-5.904-1.872-8.856
		c-0.504-15.12-0.504-15.12-0.288-17.784c0.432-2.52,0.936-5.112,1.44-7.704c0.648-0.72,1.584-1.08,2.448-2.16
		c0.288-1.08,0.576-2.16,0.936-3.312c1.944-3.384,1.944-3.384,3.816-6.048c1.368-0.864,2.808-1.7999,4.248-2.736
		c0.36,0,0.792-0.072,1.224-0.144c-0.864,6.048-0.864,6.048-1.584,9.144c0.216,0.288,0.432,0.576,0.72,0.936
		c0.72,5.328,0.72,5.328,0.936,9.36c0.504,1.4399,0.504,1.4399,1.44,7.2c0.936,2.808,1.872,5.616,2.88,8.424
		c2.376,4.464,4.752,8.928,7.2,13.464c1.872,3.96,3.816,7.92,5.76,11.952c2.88,7.2,3.816,10.368,7.704,19.44
		c0.936,3.168,2.88,8.208,4.752,14.184c1.008,2.376,1.008,2.376,4.824,15.84c1.584,6.552,3.168,13.104,4.824,19.656
		c1.44,9.576,2.88,19.152,4.3199,28.8c0.144,2.448,0.288,4.968,0.432,7.488c0.144,0.576,0.288,1.224,0.504,1.872
		c0.936,14.184,0.936,18.288,1.44,21.384c0.216,7.704,0.216,7.704,0.72,11.304c-0.144,2.664-0.288,5.4-0.504,8.136
		c0.648,1.08,1.296,2.232,1.944,3.384c0.648,0.288,0.648,0.288,1.584,0.288c0.36-0.576,0.36-0.576,0.792-5.112
		c0.288-7.92,0-15.336,0.288-15.84c0-1.008,0-2.016,0-3.096c-0.144-0.576-0.288-1.152-0.504-1.728
		c-0.072-1.872-0.144-3.816-0.216-5.76c0.144-0.288,0.288-0.576,0.432-0.936c-0.072-0.864-0.144-1.728-0.216-2.664
		c0.216-0.288,0.432-0.576,0.72-0.936c-0.216-2.664-0.216-2.664-0.72-4.32c-1.656-21.6-2.16-32.4-3.096-44.64
		c-1.1519-8.064-2.376-16.128-3.6-24.264c-1.4399-6.912-2.448-10.296-4.3199-19.152c-0.432-3.096-0.936-6.192-1.44-9.36
		c-1.944-6.48-1.944-6.48-3.888-11.52c-0.936-4.32-0.936-4.32-3.816-14.184c-0.936-1.944-0.936-1.944-2.88-8.856
		c-0.936-4.824-0.936-4.824-1.944-14.688c-0.072-2.6639-0.144-5.4-0.216-8.1359c0.144-2.2321,0.288-4.4641,0.504-6.696
		c0.432-1.008,0.936-2.088,1.44-3.168c0.576-3.0959,1.224-6.192,1.872-9.36c0.288-0.72,0.648-1.4399,1.008-2.16
		c1.224-1.512,2.52-3.024,3.816-4.536c1.512-1.368,3.024-2.736,4.536-4.104c1.08-0.576,2.16-1.152,3.312-1.8
		c1.08-0.2881,2.16-0.576,3.312-0.936c1.584-0.072,3.168-0.144,4.824-0.2881C147.888,9,149.472,9.144,151.128,9.36
		c3.6,0.936,3.6,0.936,6.48,1.2239c2.376,2.16,3.312,3.6,8.352,9c0.936,1.728,1.872,3.456,2.88,5.256
		c1.224,3.312,2.448,6.696,3.744,10.0801c0.936,4.752,1.872,9.576,2.88,14.4c0,6.48,0,6.48-0.504,12.24
		c-0.288,1.728-0.576,3.528-0.936,5.328c-3.168,9.36-6.408,18.72-9.648,28.08c-0.936,4.032-1.872,8.136-2.88,12.24
		c-0.792,6.264-1.584,12.6-2.376,18.936c-0.936,18.72-0.936,18.72-1.44,23.976c-0.072,5.112-0.144,10.224-0.216,15.408
		c-0.144,1.008-0.288,2.0161-0.504,3.096c-0.072,5.4-0.144,10.872-0.216,16.344c-0.216,1.08-0.432,2.16-0.72,3.312
		c0,4.608,0.216,5.328,0,43.488c-0.36,5.256-0.792,10.512-1.224,15.84c0.216,1.44,0.216,1.44,0,5.256
		c0.144,0.36,0.36,0.792,0.576,1.224c0.432,0.288,0.936,0.576,1.44,0.936c0.36-0.216,0.36-0.216,0.864-1.656
		c0.504-5.7599,0.504-5.7599,0.936-15.84c1.44-14.184,1.728-14.4,2.664-24.9839c0-1.944,0-3.9601,0-5.976
		c0.504-3.744,1.08-7.488,1.656-11.304c0.288-5.256,0.648-10.512,1.008-15.84c1.224-9.504,2.52-19.008,3.816-28.584
		c0.936-3.816,0.936-3.816,2.376-12.672c0.144-4.4641,0.288-8.928,0.504-13.4641c0.6479-3.168,1.296-6.336,1.944-9.576
		c0.432-5.04,0.432-5.04,1.44-10.08c2.52-7.416,5.0399-14.832,7.632-22.32c3.816-9.792,7.632-19.656,11.52-29.52
		c0.936-1.872,1.872-3.816,2.88-5.76c0.432-1.44,0.936-2.88,1.44-4.3199c1.008-5.5441,1.008-5.5441,1.224-8.424
		c-0.216-3.528-0.504-7.0561-0.792-10.584c0.216,0,0.432-0.072,0.72-0.144c2.016,2.1601,4.032,4.3921,6.048,6.624
		c1.872,3.5281,3.816,7.056,5.76,10.584c1.584,4.6079,3.168,9.216,4.824,13.896c0.144,1.08,0.288,2.232,0.504,3.384
		c0,2.16,0,4.32,0,6.48c-0.936,4.536-1.872,9.072-2.88,13.68c-0.648,1.872-1.296,3.816-1.944,5.76
		c-3.168,7.344-6.336,14.688-9.576,22.104c-1.944,3.6-1.944,3.6-5.76,12.672c-0.288,0.216-0.648,0.4319-1.008,0.72
		c0,0.864,0,1.728,0,2.664c-0.576,1.728-1.224,3.456-1.872,5.256c-2.5201,5.832-5.112,11.664-7.704,17.568
		c-1.872,5.616-3.816,11.304-5.76,16.992c-1.872,7.992-3.816,15.984-5.76,24.048c-0.936,5.76-0.936,5.76-2.88,14.832
		c-0.648,2.016-1.2961,4.032-1.944,6.048c-0.576,4.464-1.224,8.928-1.872,13.392c-0.216,3.456-0.432,6.912-0.72,10.368
		c0.144,0.216,0.288,0.432,0.432,0.72c-0.216,5.7599-0.216,5.7599-0.432,6.192c0.216,6.048,0.216,6.048,1.152,14.688
		c0.432,0,0.864,0,1.368,0.072c0.144-0.144,0.288-0.288,0.504-0.504c0-2.088-0.072-4.176-0.144-6.336
		c0.288-3.672,0.576-7.344,0.936-11.016c0.288-1.44,0.576-2.88,0.936-4.32c0.144-1.872,0.288-3.816,0.504-5.76
		c0.936-3.816,1.44-4.824,2.376-9.36c1.008-3.096,1.44-6.264,2.448-9.36c0.144-1.08,0.288-2.232,0.432-3.384
		c1.44-4.536,1.44-4.536,6.264-24.912c0.504-2.7361,1.08-5.472,1.656-8.208c1.296-3.312,2.592-6.696,3.888-10.08
		c2.52-5.76,5.04-11.52,7.632-17.28c1.872-3.816,3.816-7.632,5.76-11.52c0.648-1.728,1.296-3.456,1.944-5.256
		c1.944-3.6,2.376-5.04,4.32-8.424c0.504-0.432,7.2-13.392,9.144-16.272c1.224-2.592,2.5201-5.256,3.816-7.92
		c3.816-6.048,3.816-6.048,6.696-11.52c3.888-8.424,3.888-8.424,5.328-12.528c0.432-2.376,0.432-2.376,0.936-3.312
		c0.072-0.936,0.144-1.872,0.216-2.88c0.144-0.216,0.288-0.432,0.504-0.72c-0.216-3.168-0.504-4.104-0.936-12.24
		c-1.008-2.8801-1.008-2.8801-1.944-7.704c-0.864-2.52-1.728-5.1121-2.664-7.704c0-0.504,0-1.08-0.072-1.6561
		c1.368,0.576,2.736,1.1521,4.104,1.8c2.376,1.8719,2.376,1.8719,5.76,5.256c1.224,1.728,2.448,3.4561,3.672,5.184
		c0.936,2.88,0.936,2.88,2.88,7.4161c-0.072,0.864-0.144,1.728-0.216,2.664c-0.216,0.4319-0.432,0.936-0.72,1.44
		c0.432,0.504,0.432,0.504,1.584,0.792c0.648,1.584,1.296,3.168,2.016,4.752c0.576,3.384,1.224,6.84,1.872,10.296
		c-0.072,2.808-0.144,5.616-0.216,8.424c-1.944,9.36-1.944,9.36-3.8159,16.272c-3.168,8.064-6.408,16.128-9.648,24.264
		c-3.168,5.904-6.336,11.808-9.576,17.784c-1.944,2.592-9.576,15.336-11.5201,18c-0.936,2.16-2.88,5.0399-8.64,15.84
		c-0.936,1.152-0.936,1.152-8.64,16.056c-1.728,3.672-3.456,7.344-5.256,11.016c-0.432,0.288-0.936,0.648-1.44,1.008
		c-3.888,9.576-3.888,9.576-4.32,11.5201c-0.648,1.224-1.296,2.52-1.944,3.816c-3.816,11.52-5.76,16.344-9.576,28.296
		c-1.008,4.608-2.088,9.288-3.168,13.968c0,0.936,0.072,1.944,0.144,2.952c0.36,0,0.792,0,1.224,0
		c0.432-0.576,0.864-1.152,1.296-1.8c0.288-2.016,0.576-4.104,0.936-6.192c1.872-5.904,3.816-11.808,5.76-17.784
		c1.296-3.0959,2.592-6.192,3.888-9.36c0.936-1.584,1.872-3.168,2.88-4.824c0.288-1.08,0.576-2.16,0.936-3.312
		c1.728-3.96,3.456-7.992,5.256-12.024c1.008-0.936,1.44-1.944,1.944-2.376c3.816-7.272,7.632-14.544,11.52-21.888
		c1.872-2.664,3.816-5.4,5.7599-8.136c0.432-0.288,0.936-0.576,1.44-0.936c4.32-7.488,4.824-7.92,5.256-8.928
		c0.504-0.432,0.504-0.432,8.208-13.392c3.816-5.328,3.816-5.328,11.52-14.688c3.816-4.032,3.816-4.032,7.632-8.64
		c1.944-2.88,1.944-2.88,2.664-3.312c2.52-4.536,5.112-9.072,7.704-13.68c1.872-3.888,3.816-7.848,5.76-11.808
		c1.2239-3.24,2.52-6.48,3.8159-9.792c1.944-7.704,1.944-7.704,2.88-12.528c0.36-2.88,0.72-5.76,1.0801-8.64
		c0.2159,0,0.4319,0.072,0.72,0.144c1.584,2.376,3.168,4.824,4.824,7.272c0.576,1.656,1.152,3.384,1.8,5.112
		c0.072,1.08,0.1439,2.16,0.216,3.312c-0.144,0.144-0.2881,0.288-0.504,0.504c-0.432,3.384-0.432,3.384-0.936,5.0399
		c-0.504,0.72-0.504,0.72-0.72,2.16c0.432,3.024,0.936,6.048,1.44,9.144c-0.072,4.104-0.144,8.28-0.216,12.456
		c-1.008,6.984-1.008,6.984-1.944,11.304c-0.288,0.936-0.576,1.872-0.936,2.88c-1.44,2.592-2.88,5.256-4.32,7.92
		c-1.008,0.936-2.88,4.032-6.768,8.856c-0.576,0.936-1.224,1.872-1.8719,2.88c-0.72,0.72-1.44,1.44-2.16,2.16
		c-1.872,3.528-3.816,7.056-5.76,10.584c-2.52,3.5999-5.112,7.2-7.704,10.8c-5.112,6.264-10.224,12.6-15.336,18.936
		c-1.368,1.44-2.736,2.88-4.104,4.32c-6.984,8.9279-14.04,17.856-21.096,26.856c-0.432,0.864-0.936,1.728-1.44,2.664
		c-3.888,5.04-5.76,7.92-7.704,10.08c-1.224,1.872-2.52,3.816-3.816,5.76c-0.504,0.288-1.008,0.576-1.584,0.936
		c-1.512,2.88-3.096,5.76-4.68,8.64c-0.648,2.016-1.296,4.032-1.944,6.048c-0.432,0.792-0.936,1.584-1.44,2.376
		c-0.288,1.656-0.576,3.312-0.936,5.04c-0.504,0.72-0.504,0.72-1.44,5.04C176.616,279,176.616,279,176.4,280.44
		c0.072,0.072,0.216,0.216,0.36,0.36c0.288-0.072,0.6479-0.144,1.008-0.216c2.736-5.616,4.608-10.44,6.552-14.0399
		c0.36-0.432,0.792-0.936,1.224-1.44c0.936-2.88,2.88-6.696,3.816-9.144c7.2-12.456,7.2-12.456,11.016-18.216
		c0.288-0.288,0.648-0.576,1.008-0.936c0.576-1.08,1.224-2.232,1.872-3.384c2.88-3.672,5.76-7.344,8.64-11.016
		c7.272-8.064,14.544-16.128,21.888-24.264c1.368-1.008,2.736-2.016,4.176-3.024c0.288-0.576,0.576-1.152,0.864-1.8
		c2.88-3.096,2.88-3.096,6.696-7.92c3.024-4.392,6.048-8.784,9.144-13.176c0.288-0.648,0.576-1.2961,0.936-1.944
		c11.52-13.392,12.456-14.832,14.4-16.992c5.76-8.928,5.76-8.928,13.464-22.104c0.936-2.16,1.44-2.664,6.696-13.464
		c0.504-0.432,0.504-0.432,3.384-7.2c0.432-1.8,0.936-3.6,1.44-5.472c0.288,0,0.576-0.072,0.864-0.144
		c0.432,0.288,0.936,0.576,1.44,0.936c1.728,3.744,1.728,3.744,2.0161,4.968c0,0.504,0,1.08,0,1.656
		c-0.144,0.216-0.288,0.432-0.504,0.72c0,2.52,0,5.112,0,7.704c-0.144,0.216-0.2881,0.432-0.504,0.72c0,3.5999,0,3.5999-0.432,7.416
		c-0.648,2.88-1.296,5.76-1.944,8.64c-1.944,5.76-1.944,5.76-3.816,9.864c-1.944,2.592-1.944,2.592-5.76,6.48
		c-0.792,0.576-1.584,1.224-2.448,1.872c-0.144,0.36-0.288,0.792-0.432,1.224c-2.448,1.944-2.448,1.944-16.848,15.336
		c-7.632,8.928-7.632,8.928-15.336,18.504c-1.728,2.304-3.456,4.608-5.256,6.9839c-0.648,0.216-1.2961,0.504-2.0161,0.792
		c-0.6479,1.08-1.368,2.16-2.088,3.24c-17.28,20.664-18.36,21.6-24.264,28.8c-1.224,1.728-2.52,3.528-3.816,5.328
		c-3.8159,6.12-7.632,12.24-11.52,18.432c-1.944,3.888-5.76,9.864-6.696,11.808c-0.288,0.36-0.648,0.72-1.008,1.152
		c-11.52,20.88-11.52,20.88-13.896,25.92c-0.144,0.792-0.288,1.584-0.504,2.448c-2.376,4.32-4.752,8.64-7.2,12.96
		c-0.072,0.432-0.144,0.936-0.216,1.44c0.36,0.288,0.36,0.288,1.584,0.072c3.744-7.056,7.56-14.112,11.376-21.24
		c0.576-0.792,1.152-1.656,1.8-2.52c0.576-0.144,1.152-0.288,1.728-0.504c0.576-1.368,1.152-2.7361,1.728-4.176
		c1.944-2.88,1.944-2.88,3.888-5.04c7.632-11.736,9.792-14.4,10.8-16.272c2.16-2.16,5.976-6.768,10.08-11.088
		c1.872-2.376,13.896-14.832,17.712-19.44c4.032-4.032,8.136-8.136,12.24-12.24c1.872-2.16,3.816-4.32,5.76-6.48
		c2.808-1.8,2.808-1.8,4.032-2.88c0.576-0.864,1.224-1.8,1.872-2.736c2.4479-1.944,4.608-4.104,6.048-5.04
		c7.272-6.48,14.544-12.96,21.816-19.44c4.1039-4.32,4.1039-4.32,5.976-6.768c4.104-3.816,4.104-3.816,6.048-5.976
		c3.816-6.264,3.816-6.264,6.696-10.224c1.224-3.024,2.448-6.048,3.672-9.072c0.288-0.288,0.576-0.576,0.864-0.864
		c0.288,0.072,0.576,0.216,0.864,0.36c0.288,2.016,0.576,4.032,0.936,6.048c-0.072,1.584-0.144,3.168-0.216,4.752
		c-1.008,4.608-1.008,4.608-1.224,6.768c-0.648,0.792-1.296,1.584-1.944,2.376c-0.7919,1.368-1.584,2.736-2.376,4.104
		c-7.704,8.856-7.704,8.856-11.52,13.896c-0.36,0.288-0.792,0.576-1.224,0.936c-0.576,0.936-1.224,1.872-1.872,2.88
		c-2.52,2.736-5.1119,5.472-7.704,8.208c-17.064,15.336-17.064,15.336-34.056,31.392c-1.944,2.16-1.944,2.16-2.8799,3.6
		c-5.472,5.472-11.0161,11.016-16.56,16.56c-2.5201,3.024-5.112,6.048-7.704,9.144c-3.24,3.528-6.552,7.056-9.864,10.584
		c-0.936,1.656-2.88,3.816-4.752,6.48c-0.648,0.576-1.2961,1.224-1.944,1.872c-0.936,1.728-2.88,4.32-4.824,7.704
		c-1.728,2.448-3.456,4.896-5.256,7.416c-1.224,2.16-2.52,4.32-3.816,6.48c-5.76,7.92-5.76,7.92-6.264,8.928
		c0,0.288,0.072,0.576,0.144,0.936c0.36,0,0.792,0,1.224,0.072c0.72-0.576,9.36-13.032,10.512-14.112
		c2.52-3.312,5.112-6.696,7.704-10.08c3.816-4.392,7.704-8.856,11.592-13.32c2.808-2.52,5.616-5.112,8.424-7.704
		c3.528-2.52,7.128-5.04,10.728-7.56c7.488-5.904,14.976-11.808,22.5359-17.784c0.72-0.288,1.44-0.576,2.16-0.936
		c2.808-2.52,5.616-5.112,8.424-7.704c1.008-0.576,2.016-1.224,3.096-1.872c6.696-5.328,6.696-5.328,7.704-5.76
		c8.856-7.704,13.896-11.52,16.056-13.464c0.432-0.288,0.936-0.576,1.44-0.936c8.136-8.424,8.136-8.424,12.2401-13.32
		c0.216-0.072,0.432-0.144,0.72-0.216c-0.288,1.008-0.576,2.016-0.8641,3.096c-1.224,2.376-2.52,4.752-3.816,7.2
		c-3.888,5.976-3.888,5.976-5.7599,8.424c-4.1041,3.8159-4.1041,3.8159-11.3041,9.576c-0.504,0.288-1.0079,0.576-1.584,0.936
		c-3.96,3.888-3.96,3.888-8.712,7.704c-2.016,1.224-4.032,2.52-6.048,3.816c-3.528,1.872-7.056,3.744-10.656,5.616
		c-2.592,1.944-2.592,1.944-6.6959,6.048c-0.936,0.576-1.872,1.224-2.88,1.872c-4.392,4.104-8.784,8.208-13.176,12.384
		c-1.296,1.512-2.592,3.024-3.888,4.536c-1.872,2.736-3.816,5.472-5.76,8.208c-7.632,9-7.632,9-15.552,17.64
		c-8.64,7.2-8.64,7.2-9.648,7.632c-3.816,3.888-3.816,3.888-7.2,6.768c-5.76,3.168-11.52,6.336-17.28,9.576
		c-1.512,0.648-3.024,1.296-4.536,1.944c-6.264,3.816-6.264,3.816-10.08,5.76c-1.512,0.576-3.024,1.224-4.536,1.872
		c-1.368,0.792-2.736,1.584-4.104,2.448C154.656,328.104,154.368,328.104,154.008,328.104L154.008,328.104z M192.384,325.944
		c-4.104-0.216-8.28-0.432-12.456-0.72c-0.288-0.216-0.648-0.432-1.008-0.72c-5.256-1.44-5.256-1.44-5.616-1.8
		c0-0.36,0-0.792,0-1.224c0.288-0.288,0.576-0.576,0.936-0.936c13.608-7.56,13.608-7.56,21.744-12.384
		c2.376-0.936,2.376-0.936,8.64-4.32c1.008-0.288,2.0161-0.576,3.096-0.936c2.232-1.296,4.464-2.592,6.768-3.888
		c9.072-3.816,9.072-3.816,11.952-4.752c2.88-0.504,2.88-0.504,7.92-0.72c0.576,0.144,1.152,0.288,1.728,0.4319
		c1.152,1.008,1.152,1.008,2.016,2.304c0.144,1.008,0.288,2.088,0.432,3.168c-0.072,1.44-0.144,2.88-0.216,4.32
		c-0.288,1.512-0.576,3.024-0.936,4.536c-0.648,1.08-1.296,2.232-1.944,3.384c-1.224,1.224-2.52,2.52-3.816,3.816
		c-2.52,1.872-5.0399,3.744-7.56,5.616c-2.448,0.648-4.896,1.296-7.416,1.944c-2.592,0.432-5.256,0.936-7.92,1.44
		c-6.768,0.432-6.768,0.432-11.808,0.432C194.04,325.44,193.32,325.944,192.384,325.944L192.384,325.944z M129.024,312.984
		c-3.312-1.296-6.696-2.592-10.08-3.888c-2.52-1.224-5.112-2.52-7.704-3.816c-12.24-7.704-16.272-10.584-23.976-15.336
		c-3.096-2.448-6.192-4.968-9.36-7.488c-3.672-3.24-7.344-6.48-11.016-9.792c-5.328-3.888-10.368-8.208-15.408-12.024
		c-1.656-0.936-1.656-0.936-6.48-4.824c-3.312-1.872-3.312-1.872-9.072-5.7599c-5.544-5.256-6.984-6.192-13.248-11.952
		c-2.016-2.16-4.104-4.32-6.192-6.48c-3.888-5.04-3.888-5.04-7.704-10.944c-0.432-1.008-0.864-2.016-1.368-3.096
		c-0.144-0.864-0.288-1.728-0.432-2.664c-0.144-0.144-0.288-0.288-0.504-0.432c-0.432-1.44-0.936-2.88-1.44-4.32
		c0-0.432,0-0.936,0-1.44c0.504-0.72,0.504-0.72,0.648-1.944c0.216,0,0.432,0,0.72,0.072c1.872,3.24,1.872,3.24,5.616,11.232
		c1.224,1.656,2.52,3.312,3.816,5.04c1.224,1.296,2.52,2.664,3.816,4.032c3.024,2.592,6.048,5.256,9.144,7.92
		c2.664,1.872,5.328,3.744,8.064,5.616c0.504,0.144,1.08,0.288,1.656,0.504c9.144,7.704,13.464,11.736,18.504,15.624
		C84.6,275.976,84.6,275.976,90.648,279.864c0.576,0.288,1.224,0.576,1.872,0.936c1.584,1.224,3.168,2.52,4.824,3.816
		c0.36,0.504,0.72,1.008,1.08,1.584c10.152,7.704,10.152,7.704,15.336,12.024c0.576,0.216,1.152,0.504,1.8,0.792
		c8.928,6.768,8.928,6.768,10.368,8.208c0.576,0.864,1.224,1.8,1.872,2.736c1.728,1.584,1.728,1.584,2.016,2.16
		c0,0.288,0,0.576-0.072,0.864C129.528,312.984,129.312,312.984,129.024,312.984L129.024,312.984z"/>
</g>
</svg>
