<?xml version="1.0" encoding="utf-8"?>
<!-- Generator: Adobe Illustrator 21.1.0, SVG Export Plug-In . SVG Version: 6.00 Build 0)  -->
<svg version="1.1" id="Ship" xmlns="http://www.w3.org/2000/svg" xmlns:xlink="http://www.w3.org/1999/xlink" x="0px" y="0px"
	 viewBox="0 0 448.344 584.64" enable-background="new 0 0 448.344 584.64" xml:space="preserve">
<g>
	<path fill-rule="evenodd" clip-rule="evenodd" d="M307.368,584.64c-3.384-0.432-3.384-0.432-6.7681-1.4401
		c-1.872-0.9359-1.872-0.9359-4.32-2.88c-0.72-0.792-1.44-1.6559-2.16-2.52c-1.8-3.528-1.8-3.528-2.736-5.976
		c-0.504-2.88-0.504-2.88-0.72-8.352c0.288-2.304,0.576-4.608,0.936-6.9839c0.936-2.88,1.944-7.416,2.8801-9.864
		c0.72-2.88,0.72-2.88,1.944-5.76c2.52-3.024,5.04-6.048,7.632-9.072c1.4399-1.296,2.8799-2.592,4.3199-3.888
		c0.648-0.792,1.296-1.584,1.944-2.376c3.816-3.24,7.632-6.5519,11.52-9.864c1.44-0.936,2.952-1.872,4.4641-2.88
		c3.816-1.8,3.816-1.8,17.064-9.504c3.5999-2.88,3.5999-2.88,9.5759-6.84c1.08-1.008,2.16-2.016,3.24-3.096
		c0-0.216,0.072-0.432,0.144-0.72c-0.648,0.072-1.296,0.216-1.944,0.36c-5.976,3.816-11.304,7.704-15.1199,9.864
		c-0.432,0.144-0.936,0.288-1.4401,0.432c-0.36,0.288-0.792,0.648-1.224,1.008c-1.08,0.432-2.16,0.936-3.312,1.44
		c-2.0159,0.432-4.032,0.936-6.048,1.44c-1.584,0-3.168,0-4.752,0c-2.88-0.936-5.7601-1.872-8.6401-2.88
		c-1.44-0.936-2.88-1.872-4.32-2.88c-0.6479-0.864-1.296-1.728-1.944-2.664c-0.936-2.16-1.8719-4.32-2.808-6.552
		c0-2.376,0-4.752,0-7.2c-0.792-0.144-0.792-0.144-2.232,0.288c-0.936,0.648-1.872,1.296-2.88,1.944
		c-18.216,7.704-18.216,7.704-19.656,8.64c-11.592,5.472-23.184,11.016-34.848,16.56c-0.504,0.36-1.08,0.792-1.656,1.224
		c-4.968,2.232-9.936,4.464-14.904,6.696c-1.008,0.288-2.016,0.576-3.096,0.936c-1.152,0.6479-2.376,1.296-3.6,1.944
		c-4.608,1.728-9.216,3.456-13.896,5.256c-0.432,0.288-0.936,0.648-1.44,1.008c-1.872,0.576-3.816,1.224-5.76,1.872
		c-3.096,1.296-6.192,2.592-9.36,3.888c-6.048,1.872-12.168,3.816-18.288,5.76c-7.92,1.872-7.92,1.872-16.776,3.6
		c-11.736,1.8719-19.944,2.88-23.76,3.6c-2.088,0-4.176,0-6.264,0c-5.472-1.944-9.576-3.8881-11.016-4.32
		c-4.536-4.104-4.536-4.104-6.48-6.264c-3.744-8.712-3.744-8.712-5.184-12.816c-0.288-3.168-0.576-6.336-0.936-9.576
		c-0.792,0-1.656-0.072-2.52-0.144c-1.872,0.576-3.816,1.224-5.76,1.8719c-4.032,1.872-8.136,3.816-12.24,5.76
		c-1.8,1.08-3.672,2.2321-5.544,3.384c-3.6,2.664-7.2,5.4-10.8,8.136c-0.432,0.72-0.432,0.72-6.192,5.544
		c-0.576,0.288-1.152,0.576-1.728,0.936c-3.816,3.168-7.632,6.408-11.52,9.648c-0.36,0-0.72,0-1.152,0
		c-0.288-0.36-0.576-0.72-0.864-1.08c0-0.36,0-0.792,0-1.224c0.936-1.4399,1.872-3.6,2.376-4.032
		c1.224-3.744,2.52-7.488,3.816-11.304c0.648-2.6641,1.296-5.4,1.944-8.136c0.432-3.96,0.936-7.992,1.44-12.024
		c0-4.68,0-9.432,0-14.184c-0.648-3.6-1.296-7.2-1.944-10.8c-1.44-4.032-2.376-7.632-4.32-12.96
		c-1.872-3.312-3.816-5.76-7.632-11.736c-1.944-2.376-1.944-2.376-5.328-7.704c0-0.36,0-0.72,0-1.152
		c2.448-1.944,2.88-2.664,7.488-6.48c4.608-3.168,9.216-6.336,13.824-9.504c7.2-3.888,7.2-3.888,15.552-7.704
		c3.384-0.936,3.384-0.936,8.208-2.88c1.656-0.936,1.656-0.936,6.48-2.88c3.672-1.224,7.344-2.52,11.016-3.816
		c3.168-0.792,6.336-1.584,9.576-2.448c3.168-0.144,6.408-0.288,9.648-0.432c1.656-0.504,1.656-0.504,3.6-0.72
		c0.72,0.432,0.72,0.432,1.44,1.8c-3.744,5.256-3.744,5.256-7.632,11.736c-1.224,2.88-2.52,5.76-3.816,8.64
		c-0.792,2.52-1.584,5.112-2.376,7.704c0.216,0.792,0.432,1.584,0.72,2.376c0.936,1.224,0.936,1.224,2.232,2.16
		c0.792,0.144,1.584,0.36,2.448,0.576c3.024-0.072,6.048-0.144,9.144-0.216c7.632-1.944,7.632-1.944,10.8-2.376
		c2.592-1.008,5.256-1.44,6.48-1.944c3.096-0.504,3.096-0.504,4.032-0.936c0.144-0.216,0.288-0.432,0.504-0.648
		c-1.656-0.36-3.312-0.72-5.04-1.08c-7.704-0.72-7.92-0.936-12.456-1.44c-0.72-0.432-0.72-0.432-6.48-1.44
		c-0.72-0.288-1.44-0.576-2.16-0.936c-1.224-1.224-1.224-1.224-2.088-2.52c-0.072-1.08-0.144-2.16-0.216-3.312
		c0.288-0.576,0.576-1.152,0.936-1.728c0.36-0.288,0.792-0.576,1.224-0.936c1.08-0.288,2.16-0.576,3.24-0.864
		c3.816,0,7.632,0,11.52,0c3.6,0.288,7.2,0.576,10.8,0.936c0.216-0.072,0.504-0.144,0.792-0.288
		c-0.72-1.944-4.536-8.424-5.472-10.584c-1.008-1.44-2.88-5.976-6.84-13.464c-0.216,0-0.432-0.072-0.72-0.144
		c-0.36,0.36-0.792,0.792-1.224,1.224c-0.576,0.144-1.224,0.288-1.872,0.504c-2.304,0.072-4.608,0.144-6.984,0.216
		c-5.76-0.936-5.76-0.936-6.696-1.44c-1.368-0.288-2.736-0.576-4.104-0.936c-2.88,0.216-2.88,0.216-4.104,0.72
		c0,0.36-0.072,0.72-0.144,1.08c0.144,0.288,0.288,0.576,0.504,0.936c-0.216,1.728-0.216,1.728-0.72,2.448
		c-3.24,1.728-3.24,1.728-5.832,2.736c-9.144,1.872-9.144,1.872-17.784,3.312c-3.024-0.072-6.048-0.144-9.144-0.216
		c-1.8-0.288-3.6-0.576-5.472-0.936c-2.376-0.648-4.752-1.296-7.2-1.944c-3.024-1.08-6.048-2.232-9.144-3.384
		c-1.584-0.216-3.168-0.4319-4.824-0.72c-1.512,0-3.024,0-4.536,0c-2.376,1.008-2.376,1.008-4.32,2.448
		c-0.72,0.216-1.44,0.432-2.16,0.72c-0.936,0.072-1.872,0.144-2.88,0.216c-2.664-0.648-5.4-1.296-8.136-1.944
		c-1.584-0.576-3.168-1.224-4.824-1.8719c-1.152-0.144-2.376-0.2881-3.6-0.5041c-6.264,0.216-8.856,0.72-13.464,0.936
		c-0.432-0.144-0.936-0.288-1.44-0.4319c-0.936-1.584-0.936-1.584-1.08-2.52c0.288-1.08,0.576-2.232,0.936-3.384
		c0.288-0.504,0.648-1.08,1.008-1.656c1.224-1.224,2.52-2.52,3.816-3.816c3.024-1.872,3.024-1.872,4.464-2.304
		c2.376,0,4.752,0,7.2,0c2.664,0.432,5.976,1.44,11.016,2.376c1.8,0,3.672,0,5.544,0c1.944-0.648,3.96-1.296,5.976-1.944
		c1.728,0,3.528,0,5.328,0c7.632,1.008,7.632,1.008,11.952,1.944c1.296,0.432,2.592,0.936,3.888,1.44
		c1.008,0.072,2.016,0.144,3.096,0.216c0-0.288,0-0.648,0.072-1.008c-5.976-7.704-5.976-7.704-10.08-12.2401
		c-1.152-1.08-2.376-2.232-3.6-3.3839c0-0.216,0-0.432,0-0.72c0.288-0.36,0.576-0.72,0.864-1.08c0.36,0,0.792,0,1.224,0
		c1.944,1.224,3.96,2.52,5.976,3.816c1.728,0.792,3.528,1.584,5.328,2.376c0.288,0.288,0.576,0.648,0.936,1.008
		c1.224,0.576,2.52,1.224,3.816,1.872c3.672,0.7921,7.344,1.584,11.088,2.448c2.376-0.072,4.752-0.144,7.2-0.288
		c3.384-0.576,6.84-1.224,10.296-1.8719c1.872,0,3.816,0,5.76,0c1.584,0.288,3.168,0.576,4.824,0.936
		c2.16,0.936,2.16,0.936,2.592,1.44c2.088,1.368,4.176,2.736,6.264,4.104c1.008,0.216,2.016,0.432,3.096,0.72c2.376,0,4.752,0,7.2,0
		c0.144-0.216,0.288-0.432,0.504-0.648c0-0.648-0.072-1.368-0.144-2.088c0.144-0.432,0.288-0.936,0.504-1.44
		c2.016-1.944,2.016-1.944,2.736-2.304c2.088,0,4.176,0,6.264,0c1.368-0.144,2.736-0.2881,4.104-0.5041c0-0.36,0-0.72,0.072-1.08
		c-0.36-0.432-0.792-0.936-1.224-1.44c0.576-2.448,1.152-4.896,1.728-7.416c0.36-4.464,0.72-8.928,1.152-13.464
		c-2.16-2.16-2.16-2.16-7.92-9.576c-2.88-5.04-2.88-5.04-3.312-6.264c-0.936-1.08-1.872-2.16-2.88-3.312
		c-1.08-1.728-2.232-3.528-3.384-5.328c-0.936-2.376-1.944-4.032-2.664-6.192c-0.144-1.152-0.288-2.376-0.432-3.6
		c-0.648-2.088-1.296-4.176-1.944-6.264c-0.288-2.808-0.576-5.616-0.936-8.424c0.072-2.592,0.216-5.256,0.36-7.92
		c-1.44,0.072-2.88,0.216-4.32,0.36c-5.256,0.936-10.512,1.872-15.84,2.88c-2.304,0.648-4.608,1.296-6.984,1.944
		c-3.096,0.576-6.192,1.224-9.36,1.8719c-15.12,3.888-15.12,3.888-31.392,7.704c-1.656,0.648-3.312,1.296-5.04,1.944
		c-2.448,0.432-2.448,0.432-3.888,0.216c-0.504-0.288-1.08-0.576-1.656-0.936c-0.792-0.792-1.584-1.656-2.376-2.52
		c-0.288-0.936-0.576-1.872-0.864-2.88c0.072-1.368,0.144-2.736,0.216-4.104c0.288-0.576,0.576-1.224,0.936-1.872
		c0.72-0.648,1.512-1.296,2.304-1.944c4.824-3.168,9.72-6.336,14.616-9.576c1.728-1.296,3.456-2.592,5.184-3.888
		c2.664-2.52,5.4-5.04,8.136-7.632c1.296-1.656,2.592-3.312,3.888-5.04c0.936-2.448,0.936-2.448,1.44-5.328
		c0.432-8.856,0.432-8.856,0.936-13.68c0-2.376,0-4.752,0-7.2c-0.288-1.44-0.576-2.88-0.936-4.32
		c-1.296-2.592-2.592-5.256-3.888-7.92c-1.224-2.016-2.52-4.104-3.816-6.192c-2.592-2.592-5.184-5.256-7.776-7.92
		c-4.464-3.888-4.464-3.888-17.208-13.968c-2.88-3.096-2.88-3.096-3.816-4.536c-0.144-0.936-0.288-1.872-0.504-2.88
		c0.36-0.288,0.72-0.576,1.152-0.864c0.504-0.072,1.08-0.144,1.656-0.216c7.704,1.872,11.016,2.376,25.704,5.976
		c1.152,0.504,27.576,6.264,28.512,6.264c4.176-1.872,8.352-3.816,12.528-5.76c2.16-1.296,4.32-2.592,6.48-3.888
		c9.36-7.992,9.36-7.992,13.68-12.24c2.52-3.384,5.04-6.84,7.632-10.296c0.864-1.8,0.864-1.8,1.296-3.456
		c-0.072-0.864-0.144-1.728-0.216-2.664c-1.872-1.224-3.816-2.52-5.76-3.816c-0.648-0.792-1.296-1.584-1.944-2.376
		c-0.576-1.08-1.224-2.232-1.872-3.384c0-1.152,0-2.376,0-3.6c0.288-0.648,0.576-1.296,0.936-1.944
		c0.648-0.72,1.296-1.4399,2.016-2.16c1.728-1.2241,3.456-2.52,5.184-3.816c-0.072-1.368-0.144-2.736-0.216-4.104
		c-0.432-2.376-0.936-4.7521-1.44-7.2c-0.936-1.584-1.872-3.168-2.88-4.752c-1.944-1.944-3.384-2.88-5.544-4.824
		c-2.232-1.512-4.536-3.0961-6.84-4.68c-3.6-1.44-3.816-1.7281-14.616-5.544c-3.96-1.224-7.992-2.52-12.024-3.816
		c-1.512-0.6479-3.024-1.296-4.536-1.944c-0.864-0.648-1.728-1.296-2.664-1.944c-0.432-0.144-0.936-0.2881-1.44-0.432
		c-0.36-0.3601-0.72-0.72-1.152-1.08c-0.432-1.152-0.864-2.376-1.368-3.6c-0.072-1.08-0.144-2.2321-0.216-3.384
		c0.144-0.7921,0.288-1.584,0.432-2.376c2.16-2.6641,2.16-2.6641,3.384-3.6001c1.152-0.3599,2.304-0.7199,3.528-1.0799
		c2.376,0.0719,4.752,0.1439,7.2,0.216c1.512,0.2159,3.024,0.4319,4.536,0.7199c0.72,0.504,0.72,0.504,10.584,4.3201
		c5.616,1.8719,11.304,3.8159,16.992,5.7599c7.92,1.944,7.92,1.944,19.224,4.1041c3.384,0,6.84,0,10.296,0
		c0.144-0.072,0.36-0.216,0.576-0.3601c-0.072-0.7919-0.144-1.5839-0.216-2.376c-0.936-2.304-1.872-4.6079-2.88-6.9839
		c-0.72-0.792-1.44-1.584-2.16-2.376c-2.016-1.296-4.032-2.592-6.12-3.888c-2.448-0.864-4.896-1.8-7.416-2.736
		c-4.536-1.0081-4.536-1.0081-8.64-1.44c-1.944-0.6481-3.96-1.296-5.976-1.944c-0.792-0.72-1.584-1.44-2.448-2.16
		c-0.72-1.512-1.512-3.0961-2.304-4.68c0-1.44,0-2.88,0-4.32c0.288-1.152,0.648-2.376,1.008-3.6
		c0.576-1.0081,1.224-2.016,1.872-3.096c0.432-0.288,0.864-0.576,1.368-0.864c2.88-0.2161,5.76-0.432,8.64-0.72
		c4.32,0.144,8.64,0.288,12.96,0.504c4.752,0.7201,9.576,1.4401,14.4,2.1601c1.944-3.024,1.944-3.024,2.736-4.896
		c0.936-4.176,1.872-8.352,2.88-12.5281c0.072-3.0959,0.144-6.192,0.216-9.3599c-0.936-2.664-1.872-5.4-2.88-8.136
		c-0.936-1.224-1.872-3.0959-5.76-8.136c-0.936-2.448-0.936-2.448-1.44-2.88c0-0.288,0-0.648,0-1.008
		c0.288-0.504,0.576-1.008,0.864-1.584c0.576-0.144,1.152-0.288,1.728-0.432c3.096,0.864,6.192,1.728,9.36,2.592
		c11.232,1.944,11.232,1.944,18.936,2.88c5.76,0,5.76,0,6.336-0.288c0-0.288,0-0.576-0.072-0.864
		c-4.968-0.936-9.936-1.872-14.904-2.88c-0.72-0.576-1.44-1.152-2.16-1.728c-1.656-0.432-1.656-0.432-2.088-0.7921
		c0.504-8.8559,0.504-8.8559,1.008-11.52c0.216-0.144,0.504-0.288,0.792-0.504c0.432,0.2881,0.936,0.6481,1.44,1.0081
		c2.016,0.5759,4.032,1.152,6.048,1.728c2.304,0.288,4.608,0.6479,6.984,1.008c0.72,0.216,1.44,0.432,2.16,0.7199
		c0.432,0,0.864-0.0719,1.296-0.1439c0.432-9.576,0.432-9.576,0.216-13.896c-0.072-0.2161-0.216-0.432-0.36-0.6481
		c-0.576,0-1.224,0-1.872,0c-1.152,0.2881-2.376,0.6481-3.6,1.0081c-2.52,0.288-5.112,0.576-7.7039,0.936
		c-3.816,0.936-7.632,1.8719-11.52,2.88c-6.696,0.936-11.016,1.944-16.776,2.8799c-0.792,0-1.584,0-2.448,0
		c-0.864-0.288-1.728-0.576-2.592-0.936c-4.104-0.2881-4.104-0.2881-4.464-0.576c0-1.008,0-1.008,0.36-1.368
		c2.16-0.504,2.16-0.504,6.696-2.376c0.36-0.36,0.792-0.792,1.224-1.2241c4.536-1.9439,11.52-5.7599,26.136-12.9599
		c2.232-0.288,4.464-0.5761,6.768-0.936c2.8799-1.008,7.416-1.944,12.96-3.888c1.872,0,1.872,0,2.88,0.288
		c0.216,0.576,0.432,1.152,0.648,1.8c0.216,0.1439,0.432,0.288,0.72,0.504c0.144,4.536,0.288,9.144,0.504,13.752
		c1.44-0.072,2.88-0.144,4.32-0.216c2.88-1.008,9.864-2.4481,10.368-2.8801c5.976-1.944,5.976-1.944,10.512-3.8879
		c1.152-0.576,2.376-1.224,3.6-1.8719c2.448-1.9441,2.448-1.9441,6.48-4.3201c1.656-0.2159,3.312-0.432,5.04-0.72
		c2.16,0,4.32,0,6.48,0c0.36,0.36,0.36,0.36,1.8,7.056c0.288,2.88,0.576,5.7599,0.936,8.64c0,4.608,0,4.608-0.216,4.824
		c1.656,17.784,1.656,17.784,2.16,19.944c1.728,0.576,3.456,1.152,5.184,1.728c2.952,0.576,5.9041,1.152,8.856,1.7279
		c5.616,0.432,11.232,0.936,16.848,1.44c0.504,0.2881,1.008,0.5761,1.512,0.8641c-0.216,1.656-0.216,1.656,0,3.6
		c-0.36,1.944-0.792,3.9599-1.224,5.9759c-0.576,0.5041-0.576,0.5041-1.512,0.7921c-6.9839-0.72-20.16-2.592-29.5199-3.456
		c0.576,5.544,0.792,13.464,1.296,17.064c0.072,1.6559,0.144,3.312,0.216,5.0399c0.216,0.1441,0.432,0.36,0.648,0.576
		c2.88,0.648,5.76,1.296,8.64,1.944c3.816,0.576,7.632,1.2239,11.52,1.872c2.088,0.144,4.176,0.2879,6.264,0.504
		c2.16,0.6479,4.32,1.296,6.48,1.944c3.6,1.872,3.6,1.872,7.9199,4.752c8.3521,8.424,12.2401,12.744,16.56,16.848
		c3.6721,5.616,3.6721,5.616,5.04,8.136c6.984-0.72,14.04-1.4399,21.096-2.16c3.168-0.144,6.336-0.2881,9.576-0.504
		c5.4,0.2159,10.872,0.4319,16.344,0.72c2.88,0.288,5.76,0.648,8.64,1.008c2.952,0.576,5.904,1.224,8.856,1.872
		c4.68,1.872,9.432,3.816,14.184,5.76c2.592,1.296,5.256,2.592,7.9199,3.888c1.944,1.224,3.96,2.5199,5.976,3.816
		c2.52,1.872,5.112,3.816,7.704,5.7599c0.6479,0.8641,1.296,1.728,1.9439,2.6641c2.2321,2.016,4.4641,4.104,6.696,6.192
		c3.816,4.32,3.816,4.32,9.144,11.304c1.44-0.2161,1.44-0.2161,1.872-0.504c1.08,0,2.232,0,3.384,0
		c1.728,0.648,3.4559,1.2959,5.256,1.944c0.864,0.648,1.728,1.296,2.664,1.944c0.7919,1.296,0.7919,1.296,1.08,2.304
		c0,0.864,0,1.7279,0,2.592c-0.2881,0.864-0.648,1.728-1.008,2.664c-2.88,4.104-2.88,4.104-4.32,6.696
		c-0.072,0.648-0.144,1.296-0.288,1.944c0.4319,0,0.936,0,1.4399,0.072c0.432,0.504,0.432,0.504,1.4399,1.008
		c0.072,0.4319,0.1441,0.864,0.2161,1.296c-0.2161-0.288-0.432-0.576-0.6479-0.936c-1.0081-0.36-1.512-0.864-2.2321-0.936
		c0.216,0.792,0.504,1.584,0.792,2.376c0.288,0.432,0.648,0.936,1.0081,1.44c1.152,0.936,2.376,1.872,3.6,2.88
		c0,0.432-0.072,0.864-0.144,1.296c-0.864,0.072-1.8,0.2159-2.736,0.36c0.072,1.584,0.1439,3.168,0.2159,4.824
		c0.432,2.592,0.936,5.256,1.4401,7.92c-0.072,2.664-0.144,5.4-0.216,8.136c-1.44,15.84-1.44,15.84-1.728,16.128
		c-0.576,2.592-1.224,5.256-1.8721,7.92c-1.296,3.6-2.592,7.2-3.8879,10.8c-0.576,2.376-1.224,4.752-1.8721,7.2
		c-1.8719,4.608-3.8159,9.216-5.7599,13.896c-2.88,3.6-2.88,3.6-8.64,12.24c-1.368,1.512-2.736,3.024-4.1039,4.536
		c-4.5361,3.888-9.504,7.704-13.6801,11.52c-2.664,2.808-5.4,5.616-8.136,8.424c-4.608,4.104-4.608,4.104-9.72,7.92
		c-1.944,1.224-3.96,2.448-5.976,3.672c-4.8239,1.944-4.8239,1.944-12.528,5.76c-4.464,1.584-8.928,3.168-13.392,4.824
		c-7.92,1.944-7.92,1.944-12.528,2.664c-1.584,0.072-3.168,0.216-4.824,0.36c0,0.36,0,0.792-0.072,1.224
		c2.88,9.576,2.88,9.576,3.096,11.232c0,2.376,0,4.752,0,7.2c-0.288,1.008-0.5759,2.088-0.936,3.168
		c-1.8,1.872-3.672,3.816-5.544,5.76c-1.584,1.296-3.168,2.664-4.824,4.032c-0.936,2.16-0.936,2.16-2.88,8.64
		c-1.872,7.704-1.872,7.704-4.392,16.128c1.152-0.288,2.376-0.576,3.6-0.864c4.392-1.872,8.784-3.816,13.176-5.76
		c10.8-3.888,10.8-3.888,19.728-6.768c1.512-0.288,3.024-0.576,4.5359-0.936c2.808-0.216,5.616-0.432,8.424-0.72
		c2.016,0.072,4.1041,0.144,6.192,0.216c3.816,0.648,7.632,1.296,11.52,1.944c2.088,1.224,4.176,2.52,6.264,3.816
		c2.376,1.872,4.752,3.816,7.2,5.76c3.096,1.944,3.096,1.944,5.544,3.888c2.592,2.736,5.256,5.544,7.92,8.352
		c0.576,1.008,1.2241,2.016,1.872,3.024c0.288,0.792,0.576,1.584,0.864,2.448c1.872,2.88,1.872,2.88,2.88,5.04
		c0.576,2.16,1.224,4.32,1.872,6.48c0.144,1.4399,0.288,2.8799,0.504,4.3199c-0.072,1.512-0.144,3.024-0.216,4.536
		c-0.936,3.888-1.872,7.776-2.88,11.736c-1.872,2.952-3.816,5.904-5.76,8.928c-1.2239,1.368-2.448,2.736-3.744,4.176
		c-0.72,0.216-0.72,0.216-2.88,0.216c-0.288-0.144-0.576-0.36-0.936-0.576c-0.072-0.288-0.216-0.576-0.36-0.936
		c0.072-1.152,0.144-2.376,0.216-3.6c0.792-4.536,1.584-9.072,2.376-13.68c-0.72-5.328-1.44-10.728-2.16-16.128
		c-0.576-1.872-1.224-3.816-1.872-5.76c-1.944-3.312-1.944-3.312-5.76-8.352c-1.368-1.368-2.736-2.736-4.104-4.104
		c-1.512-1.224-3.096-2.52-4.68-3.816c-2.736-1.584-5.544-3.168-8.352-4.752c-2.88-0.432-2.88-0.432-14.4-0.72
		c-3.744,0.432-7.488,0.936-11.304,1.44c-2.2321,0.648-4.464,1.296-6.696,1.944c-3.4559,1.224-6.912,2.52-10.368,3.816
		c-2.736,1.296-5.544,2.592-8.352,3.888c-10.368,3.816-10.368,3.816-14.904,5.76c-6.264,1.872-6.264,1.872-19.224,6.696
		c-4.536,1.944-4.536,1.944-6.48,2.376c-2.736,1.296-5.5441,2.592-8.352,3.888c-3.24,1.224-6.552,2.52-9.864,3.816
		c-1.224,0.648-2.52,1.296-3.816,1.944c-1.728,0.576-3.528,1.224-5.3281,1.872c-3.816,1.944-6.696,2.88-10.296,4.824
		c-3.024,0.936-6.048,1.872-9.144,2.88c-11.952,5.76-11.952,5.76-14.616,6.696c-0.144,0.2161-0.288,0.432-0.504,0.72
		c-5.256,1.944-5.976,2.448-25.632,10.08c-8.64,2.88-10.8,3.888-30.528,11.088c-0.432,0.432-0.432,0.432-11.232,4.32
		c-12.96,3.816-17.28,4.752-30.24,8.64c-5.04,0.936-5.04,0.936-13.464,1.872c-8.424,0.504-8.424,0.504-10.8,1.008
		c-0.216,0.432-0.432,0.864-0.648,1.296c-0.216,6.984-0.216,6.984,0,18c1.008,10.08,1.44,12.24,1.944,18.504
		c0.936,3.6,1.872,7.2,2.88,10.8c3.816,8.424,3.816,8.424,4.536,10.584c0.288,0.2159,0.648,0.432,1.008,0.72
		c0.144,0.504,0.288,1.08,0.432,1.656c1.296,1.368,2.592,2.736,3.96,4.104c1.152,0.576,2.376,1.224,3.6,1.872
		c7.488,1.8,7.488,1.8,11.088,2.304c3.6-0.2161,7.2-0.432,10.8-0.72c24.264-5.76,24.264-5.76,25.2-6.264
		c1.08-0.288,2.232-0.576,3.384-0.936c18.216-7.704,18.216-7.704,19.656-8.64c3.888-1.512,7.776-3.024,11.736-4.608
		c0.576-0.072,1.152-0.144,1.728-0.216c1.656-0.936,6.696-2.88,22.752-10.584c2.88-1.224,5.76-2.52,8.64-3.816
		c4.32-1.584,8.64-3.168,12.96-4.824c15.84-7.632,23.04-11.52,27.144-13.392c3.528-1.872,7.056-3.816,10.584-5.76
		c4.752-1.944,4.752-1.944,9.36-3.384c1.296-0.648,2.664-1.296,4.032-1.944c8.208-3.168,16.488-6.336,24.768-9.576
		c1.224-0.648,2.52-1.296,3.816-1.944c1.872-0.576,3.816-1.224,5.7601-1.872c8.856-3.888,8.856-3.888,11.736-4.824
		c5.184-0.936,10.368-1.872,15.624-2.88c2.448,0,4.8961,0,7.416,0c1.584,0.288,3.168,0.576,4.824,0.936
		c5.04,1.944,5.04,1.944,7.704,3.384c0.936,0.936,2.592,1.944,5.472,4.536c1.296,1.512,2.592,3.024,3.8881,4.608
		c1.512,2.304,3.024,4.68,4.608,7.056c0.36,1.44,0.72,2.88,1.08,4.32c0.864,0.504,0.864,0.504,1.728,0.576
		c0.36-0.144,0.72-0.36,1.152-0.576c0,0.288,0,0.576,0.072,0.864c-1.08,0.288-2.16,0.576-3.312,0.864
		c-0.288,2.88-0.576,5.76-0.936,8.64c-1.08,2.88-2.232,5.76-3.384,8.64c-1.872,3.312-1.872,3.312-2.376,3.816
		c-0.36,1.152-0.792,2.376-1.224,3.6c-0.72,0.72-0.72,0.72-1.872,2.88c0,0.432,0,0.936,0,1.44c-0.36,0.216-0.36,0.216-0.864,2.016
		c-0.288-0.072-0.576-0.216-0.864-0.36c0-0.216,0-0.432-0.072-0.72c-0.288,0.072-0.576,0.216-0.936,0.36
		c-1.944,2.16-1.944,2.16-6.48,6.264c-2.952,2.232-5.904,4.464-8.928,6.696c-4.896,2.2319-9.864,4.464-14.832,6.696
		c-1.872,0.432-3.816,0.936-5.7601,1.44c-3.6719,1.296-7.344,2.592-11.088,3.888c-1.512,0.792-3.024,1.584-4.536,2.376
		c-1.944,0.504-1.944,0.504-5.76,2.376c-2.592,1.872-5.256,3.816-7.92,5.76c-1.944,1.944-1.944,1.944-5.76,6.768
		c-0.576,1.08-1.152,2.16-1.8,3.24c-0.072,1.224-0.216,2.52-0.36,3.816c0.7921,0.072,1.584,0.216,2.376,0.36
		c2.16,0.936,2.16,0.936,2.664,1.44c0.432,0.072,0.936,0.144,1.44,0.216c1.368-0.288,2.736-0.576,4.104-0.936
		c1.728-0.072,3.456-0.144,5.256-0.2159c1.368,0.576,2.736,1.224,4.104,1.8719c1.44,1.224,1.44,1.224,3.312,3.744
		c0.36,1.008,0.36,1.008,0.36,4.608c-0.504,0.72-0.504,0.72-0.936,2.376c-1.368,1.584-2.736,3.168-4.1039,4.824
		c-3.816,2.808-7.704,5.616-11.592,8.496c-2.4481,0.936-2.4481,0.936-6.48,1.872C313.128,584.64,310.248,584.64,307.368,584.64
		L307.368,584.64z M310.968,571.6799c-2.592-0.9359-5.2559-1.8719-7.9199-2.8799c-0.432-0.36-0.936-0.72-1.44-1.08
		c-0.36-1.512-0.72-3.024-1.152-4.536c0-1.224,0-2.52,0-3.816c0.648-2.52,1.296-5.112,1.944-7.704
		c0.648-1.656,1.296-3.312,1.944-5.04c1.872-3.0961,3.816-5.472,4.752-7.2c2.088-2.592,4.176-5.256,6.264-7.92
		c1.728-1.512,3.456-3.024,5.184-4.536c3.6-2.6641,7.2-5.328,10.8-8.064c1.008-0.288,2.016-0.576,3.096-0.936
		c12.024-7.704,14.4-9.648,17.28-11.52c3.8881-1.944,6.9841-3.888,11.088-5.76c0.936-0.648,1.872-1.296,2.88-1.944
		c0.792-0.936,1.584-1.872,2.376-2.88c0.144-1.08,0.36-2.16,0.576-3.24c-0.288-1.08-0.576-2.16-0.936-3.312
		c-0.6481-0.936-1.2961-1.872-1.944-2.88c-0.936-0.936-1.872-1.872-2.88-2.88c-1.8-0.864-1.8-0.864-3.672-1.368
		c-2.16,0-4.32,0.072-6.48,0.144c0-0.504,0-1.08,0.072-1.656c1.44-1.728,1.44-1.728,2.16-2.16c1.872-2.952,3.816-5.904,5.7599-8.928
		c1.368-1.44,2.736-2.88,4.104-4.32c2.52-0.864,2.52-0.864,6.84-1.584c1.368,0,2.736,0,4.104,0c1.728,0.648,3.456,1.296,5.256,1.944
		c2.88,1.944,2.88,1.944,5.04,3.816c0.288,0.432,0.576,0.864,0.936,1.368c0.432,1.224,0.864,2.52,1.296,3.816
		c0,1.728,0,3.528,0,5.328c-0.936,3.312-0.936,3.312-1.872,8.64c-1.0081,1.656-1.0081,1.656-1.944,4.536
		c-0.6479,0.792-1.296,1.584-1.944,2.376c-0.936,1.944-0.936,1.944-4.752,7.704c-2.16,2.664-2.16,2.664-4.464,4.824
		c-6.696,3.672-6.696,3.672-10.8,5.616c-3.744,1.224-7.488,2.52-11.2321,3.816c-4.1039,1.944-9.3599,3.816-18,7.704
		c-6.7679,3.816-6.7679,3.816-9.6479,5.76c-2.16,1.944-4.32,3.96-6.48,5.976c-3.816,4.32-3.816,4.32-7.632,9.36
		c-1.8719,3.24-1.8719,3.24-3.312,6.624c-0.216,1.44-0.216,1.44-0.216,7.2c0.216,0.792,0.432,1.584,0.72,2.376
		c0.7921,0.648,1.656,1.296,2.52,1.944c1.368,0.576,2.736,1.152,4.104,1.8c2.664,1.872,2.664,1.872,3.456,2.736
		c0.072,0.432,0.144,0.936,0.216,1.4401c-0.432,0.288-0.864,0.6479-1.296,1.0079C314.136,571.464,312.552,571.536,310.968,571.6799
		L310.968,571.6799z M65.16,517.608c0.36-3.384,0.36-3.384,1.584-8.64c-0.288-0.72,0-5.04,0-10.8c-1.44-8.424-1.944-9.576-2.88-14.4
		c-0.648-2.232-1.296-4.464-1.944-6.696c-3.816-9.144-6.696-14.904-8.64-19.944c0.072-0.648,0.144-1.296,0.216-1.944
		c1.44-1.224,2.952-2.52,4.464-3.816c2.736-1.872,5.472-3.744,8.208-5.688c9.216-4.32,18.504-8.64,27.792-12.96
		c5.544-1.44,5.544-1.44,6.984-1.512c-0.864,1.656-0.864,1.656-2.808,4.104c-0.792,1.8-1.584,3.6-2.376,5.472
		c-0.648,2.448-1.296,4.968-1.944,7.488c-0.288,1.944-0.576,3.96-0.936,5.976c0,2.52,0,5.112,0,7.704
		c0.936,13.896,1.44,18.216,1.656,25.2c0.36,2.952,0.792,5.904,1.224,8.856c0.936,2.664,0.936,2.664,1.44,5.256
		c0,0.432,0,0.864-0.072,1.296c-1.944,0.504-2.88,1.008-9.36,2.88c-2.592,1.296-5.256,2.592-7.92,3.888
		c-9.864,5.76-9.864,5.76-13.464,8.136C66.024,517.464,65.592,517.536,65.16,517.608L65.16,517.608z M321.984,495.864
		c-0.936-0.288-1.872-0.576-2.88-0.936c-0.792-0.504-1.584-1.008-2.376-1.584c-0.144-2.376-0.144-2.376,0.288-4.536
		c0.504-0.288,1.008-0.576,1.584-0.864c1.152,0.072,2.376,0.144,3.6,0.216c2.664,1.008,7.92,3.888,9.864,4.464
		c-0.072,0.288-0.216,0.648-0.3599,1.008c-2.0161,0.72-4.032,1.44-6.1201,2.232C324.432,495.864,323.208,495.864,321.984,495.864
		L321.984,495.864z M334.944,482.184c-3.6-0.504-3.6-0.504-5.04-0.936c-2.88-1.944-2.88-1.944-4.5359-3.384
		c0-0.504-0.072-1.008-0.144-1.512c0.144-0.216,0.288-0.432,0.432-0.72c1.152-0.576,2.304-1.224,3.528-1.872
		c9.8641-3.312,9.8641-3.312,10.0801-3.6c2.52-0.72,5.1119-1.44,7.7039-2.16c0.576,0,1.224,0.072,1.8721,0.144
		c-0.864,1.44-0.864,1.44-2.304,5.328c-1.872,2.16-1.872,2.16-2.88,4.032c-1.224,1.08-2.52,2.232-3.816,3.384
		C337.824,481.68,337.824,481.68,334.944,482.184L334.944,482.184z M16.704,440.928c-0.432-0.144-0.936-0.288-1.44-0.504
		c-1.944-3.24-1.944-3.24-3.24-6.336c0-0.72,0-1.44,0-2.16c0.936-0.936,0.936-0.936,2.304-1.8c5.184-0.936,10.368-1.872,15.552-2.88
		c9.36-1.008,11.52-1.008,12.024-1.224c1.224-0.072,2.52-0.144,3.816-0.216c4.824-1.008,4.824-1.008,6.048-1.008
		c0.216,0.144,0.432,0.288,0.72,0.504c0.144,1.008,0.36,2.016,0.576,3.024c0.936,1.44,0.936,1.44,1.656,3.384
		c0,0.864,0,1.728,0,2.592c-0.36,0.288-0.72,0.576-1.08,0.864c-4.032,0.936-8.136,1.872-12.24,2.88
		c-13.176,1.872-15.12,2.376-20.16,2.88C19.728,440.928,18.216,440.928,16.704,440.928L16.704,440.928z M184.68,432.648
		c0.36-0.936,1.296-1.944,3.24-5.256c1.872-2.232,3.816-4.464,5.76-6.768c2.376-1.8719,2.376-1.8719,5.4-3.744
		c1.728-0.288,3.528-0.576,5.328-0.936c1.512-0.072,3.024-0.144,4.536-0.216c2.52,0.576,5.112,1.224,7.704,1.872
		c1.296,0.648,2.664,1.296,4.032,1.944c0,0.36,0.072,0.72,0.144,1.08c-7.344,2.736-7.344,2.736-11.376,4.6801
		c-3.672,1.224-7.344,2.52-11.088,3.816c-3.888,1.08-7.776,2.232-11.736,3.384C185.976,432.504,185.328,432.576,184.68,432.648
		L184.68,432.648z M172.944,425.52c-5.04-0.936-5.04-0.936-9.864-2.376c-1.944,0.216-3.96,0.432-5.976,0.72
		c-0.648,0.216-1.296,0.432-1.944,0.72c-0.144-0.072-0.36-0.216-0.576-0.36c0-0.432,0.072-0.864,0.144-1.296
		c2.88-0.432,5.76-0.936,8.64-1.44c1.296-0.648,2.664-1.296,4.032-1.944c0.72-0.648,1.44-1.296,2.16-1.944
		c2.664-0.936,7.2-1.872,27.36-7.632c2.16-1.008,7.488-2.88,15.84-6.768c3.168-1.872,3.168-1.872,3.6-2.376
		c2.808-1.224,5.616-2.52,8.424-3.816c4.464-2.52,8.928-5.112,13.464-7.704c1.872-1.224,3.816-2.52,5.76-3.816
		c3.24-2.52,6.48-5.112,9.792-7.704c11.088-7.704,11.088-7.704,18.72-13.464c3.312-1.584,6.696-3.168,10.08-4.752
		c7.488-1.944,7.488-1.944,13.68-3.888c1.08-0.072,2.2321-0.144,3.384-0.288c-0.864,4.536-0.864,4.536-1.656,7.056
		c-7.704,0.936-7.704,0.936-11.808,1.872c-1.44,0.648-2.88,1.296-4.32,1.944c-1.656,1.224-3.312,2.52-5.04,3.816
		c-0.936,1.008-1.872,2.088-2.8799,3.168c-6.192,3.816-6.192,3.816-8.352,4.752c-2.2321,0.648-4.464,1.296-6.7681,1.944
		c-4.536,1.944-4.536,1.944-7.92,3.816c-1.512,1.296-3.024,2.592-4.536,3.96c-0.936,1.224-1.872,2.448-2.88,3.744
		c-7.92,3.816-7.92,3.816-18.72,9.576c-2.376,1.944-2.376,1.944-11.52,7.704c-0.36,0.432-0.7921,0.936-1.224,1.44
		c-3.312-0.504-3.312-0.504-7.416-0.504c-1.944,0.2881-3.96,0.648-5.976,1.0081c-0.864,0.288-1.728,0.576-2.664,0.9359
		c-1.728,1.224-3.4561,2.52-5.256,3.816c-1.296,1.512-2.592,3.024-3.888,4.608c-0.72,0.576-1.44,1.224-2.16,1.872
		c-1.728,0.936-3.456,1.872-5.256,2.88c-1.008,0.216-2.016,0.432-3.096,0.72C175.248,425.52,174.096,425.52,172.944,425.52
		L172.944,425.52z M150.12,416.592c0.072-0.36,0.216-0.792,0.36-1.224c2.376-1.944,2.376-1.944,5.4-3.816
		c6.12-2.52,12.312-5.04,18.504-7.632c6.696-1.872,6.696-1.872,10.584-2.592c2.0161,0,4.104,0,6.192,0
		c0.072,0.072,0.144,0.216,0.288,0.36c-0.144,0.144-0.288,0.36-0.504,0.576c-3.096,1.224-6.192,2.52-9.36,3.816
		c-4.608,1.44-9.216,2.88-13.896,4.3199c-3.672,2.0161-7.344,4.032-11.088,6.048C154.44,416.448,152.28,416.52,150.12,416.592
		L150.12,416.592z M223.56,414.72c-0.648-0.216-1.296-0.504-2.016-0.792c0-0.288,0-0.576,0-0.936c0.864-0.648,1.8-1.296,2.736-1.944
		c7.2-3.744,7.2-3.744,15.84-7.56c2.016-0.648,4.032-1.296,6.048-1.944c8.856-7.704,11.52-9.576,12.4559-10.584
		c2.88-0.936,8.4241-1.872,12.024-2.88c2.592-1.872,2.592-1.872,4.752-4.032c1.872-2.808,3.816-5.688,5.7599-8.568
		c0.648-0.504,1.296-1.008,1.944-1.512c1.944-0.504,1.944-0.504,9.864-1.44c1.44,0,2.88-0.072,4.32-0.144
		c0,1.872,0,3.816,0.072,5.76c-9.2159,5.76-11.736,7.704-20.952,13.32c-1.5839,0.648-3.168,1.296-4.824,1.944
		c-6.48,3.816-14.184,7.632-17.28,9.576c-1.44,0.648-2.88,1.296-4.32,1.944c-7.128,2.52-14.256,5.04-21.384,7.632
		c-1.224,0.72-2.52,1.44-3.816,2.16C224.424,414.72,223.992,414.72,223.56,414.72L223.56,414.72z M146.52,410.184
		c-0.576-0.792-0.576-0.792-1.08-2.232c0-1.584,0-3.168,0-4.8239c0.432-1.44,0.936-2.88,1.44-4.32
		c0.432-0.288,0.864-0.576,1.368-0.864c5.616-1.728,11.304-3.456,16.992-5.256c0.432-0.2881,0.936-0.648,1.44-1.0081
		c4.824-1.872,4.824-1.872,8.208-2.88c2.88-1.224,5.76-2.52,8.64-3.816c6.192-3.168,12.4561-6.336,18.72-9.576
		c5.976-3.888,5.976-3.888,15.8401-9.648c4.3199-3.816,4.3199-3.816,9.576-7.632c6.696-6.048,6.696-6.048,11.52-9.864
		c1.944-1.224,3.9601-2.52,5.976-3.816c3.816-1.872,7.632-3.816,11.52-5.76c20.88-7.704,20.88-7.704,26.928-9.648
		c15.84-3.816,15.84-3.816,23.04-5.256c2.088,0,4.176,0.072,6.336,0.144c0,0.216,0,0.432,0,0.72
		c-2.16,3.528-4.392,7.056-6.624,10.656c-2.016-0.36-4.104-0.792-6.192-1.224c-2.736,0-5.472,0-8.208,0
		c-3.6721,0.648-7.344,1.296-11.0161,1.944c-7.704,1.944-7.704,1.944-13.6799,3.816c-1.5121,0.648-3.024,1.296-4.536,1.944
		c-4.68,2.52-9.432,5.112-14.184,7.704c-5.4,3.816-10.872,7.632-16.344,11.52c-4.32,3.816-4.32,3.816-9.36,7.632
		c-1.224,1.584-2.52,3.168-3.816,4.824c-1.368,1.368-2.736,2.736-4.104,4.104c-5.04,3.816-5.04,3.816-13.68,9.576
		c-2.52,1.224-5.04,2.52-7.632,3.816c-2.88,0.936-5.76,1.872-8.64,2.88c-2.448,0.144-4.968,0.2881-7.4879,0.504
		c-3.672,1.224-7.344,2.52-11.016,3.816c-12.24,7.704-15.84,9.648-19.44,12.024C146.88,410.184,146.736,410.184,146.52,410.184
		L146.52,410.184z M282.384,395.712c0-0.216,0-0.432,0.072-0.72c11.448-7.704,11.448-7.704,15.552-10.008c0.216,0,0.432,0,0.72,0
		c0.7921,0.792,1.584,1.656,2.376,2.52c-0.504,0.576-0.504,0.576-7.704,4.464C289.728,393.192,286.056,394.416,282.384,395.712
		L282.384,395.712z M208.008,393.768c0.072-0.36,0.144-0.792,0.288-1.224c1.944-2.16,1.944-2.16,20.88-19.44
		c5.112-3.816,10.296-7.632,15.48-11.52c6.84-3.168,13.752-6.336,20.664-9.504c6.264-1.872,6.264-1.872,11.52-3.816
		c6.3361-1.44,12.6721-2.88,19.008-4.32c2.16,0,4.3201,0,6.48,0c0.216,0.36,0.216,0.36-0.144,1.368
		c-0.6479,0.432-0.6479,0.432-7.056,2.232c-2.376,0.288-4.752,0.576-7.2,0.936c-2.3041,0.648-4.608,1.296-6.9841,1.944
		c-2.664,1.224-5.4,2.52-8.136,3.816c-2.16,1.296-4.3199,2.592-6.48,3.888c-11.088,7.632-16.128,11.52-24.48,17.28
		c-1.008,0.36-2.16,1.44-5.544,3.312c-1.656,1.296-3.312,2.592-5.04,3.888c-1.944,1.224-3.96,2.5201-5.976,3.816
		C212.328,392.184,212.328,392.184,208.008,393.768L208.008,393.768z M150.624,388.224c0-1.08-0.072-2.16-0.144-3.312
		c0.288-2.2321,0.576-4.464,0.936-6.768c0.288-0.432,0.576-0.864,0.864-1.296c0.72-0.288,11.808-0.288,18.504-0.72
		c1.08-0.2881,2.232-0.648,3.384-1.0081c0.504,0,1.08,0.0721,1.656,0.144c0.504,0.864,0.504,0.864,1.08,1.224
		c0,0.216,0,0.432,0,0.72c-6.624,3.816-6.624,3.816-10.656,5.616C155.88,386.64,155.88,386.64,150.624,388.224L150.624,388.224z
		 M160.488,373.248c-5.76-0.288-5.76-0.288-7.2-0.72c-0.144-0.288-0.288-0.576-0.432-0.864c0.504-4.104,1.008-8.28,1.584-12.456
		c0.288,0,0.648-0.072,1.008-0.144c0.792,0.648,1.584,1.296,2.376,2.016c2.232,3.096,4.464,6.192,6.696,9.288
		c0.144,0.72,0.36,1.512,0.576,2.304c-0.288,0.288-0.288,0.288-1.728,0.576C162.432,373.248,161.496,373.248,160.488,373.248
		L160.488,373.248z M168.624,372.168c-0.576-1.08-1.152-2.232-1.8-3.384c-7.92-9.792-10.08-11.952-11.52-13.896
		c0.72-7.2,0.72-7.2,1.152-8.856c0.144-0.216,0.288-0.432,0.504-0.72c1.08-0.144,1.08-0.144,2.52,0.288
		c1.944,1.944,1.944,1.944,3.888,4.608c5.472,4.536,8.136,7.2,8.856,7.632c0.36-0.072,0.792-0.144,1.224-0.216
		c0.36-0.36,0.72-0.72,1.152-1.08c0.288-0.576,0.576-1.224,0.864-1.872c0.072-0.792,0.144-1.584,0.216-2.448
		c-0.288-2.376-0.576-4.752-0.936-7.2c-0.288-1.224-0.648-2.52-1.008-3.816c-0.576-1.368-1.224-2.736-1.872-4.104
		c-1.008-1.152-1.944-2.88-2.88-3.816c-1.296-2.376-2.592-4.752-3.888-7.2c-1.224-0.936-2.448-1.872-3.672-2.808
		c-0.792-0.288-1.584-0.576-2.376-0.936c-0.144-2.232-0.144-2.232,0.288-7.056c0.36-1.656,0.72-3.312,1.152-5.04
		c2.592-0.144,2.592-0.144,14.112,0.792c4.608,1.008,4.608,1.008,5.256,1.368c0.36,0.72,0.36,0.72,0.864,6.2639
		c0.072,5.976,0.144,11.952,0.216,18c-0.144,3.6-0.288,7.2-0.432,10.8c-1.008,5.976-2.448,20.376-2.88,22.032
		c-0.648,0.72-0.648,0.72-2.304,1.584c-1.512,0.36-3.024,0.72-4.536,1.152C170.064,372.24,169.344,372.24,168.624,372.168
		L168.624,372.168z M189,369.288c1.8-20.16,1.8-20.16,2.304-30.24c-0.288-11.736-0.504-12.744-0.576-22.104
		c0.936,0.288,1.872,0.576,2.88,0.864c6.912,3.816,6.912,3.816,7.488,4.464c0.216,1.8,0.432,3.6,0.72,5.472
		c0,3.456,0,6.912,0,10.368c-0.576,6.12-1.224,12.2401-1.872,18.432c-0.72,2.448-1.44,4.968-2.16,7.488
		c-2.592,1.656-5.184,3.384-7.776,5.112C189.72,369.144,189.36,369.216,189,369.288L189,369.288z M142.704,365.04
		c-0.36-0.288-0.792-0.576-1.224-0.936c-0.576-0.864-1.224-1.728-1.872-2.664c-0.36-0.216-0.72-0.504-1.152-0.792
		c-0.432-1.224-1.44-2.376-3.312-5.76c-2.52-3.816-5.112-7.632-7.704-11.52c-0.648-1.368-1.296-2.736-1.944-4.104
		c-0.936-5.04-1.872-7.632-2.88-12.24c-0.216-1.728-0.432-3.456-0.72-5.256c0-2.304,0-4.608,0-6.984
		c0.504-2.16,0.504-2.16,0.864-2.736c1.584-0.36,3.168-0.792,4.824-1.224c0.36,0,0.792,0.072,1.224,0.144
		c1.872,3.528,3.744,7.056,5.616,10.584c0.936,2.592,0.936,2.592,1.872,7.416c0.648,1.728,1.296,3.456,1.944,5.256
		c1.944,2.664,1.944,2.664,3.96,4.824c0.72,0.648,1.512,1.296,2.304,1.944c0,4.896,0,9.864,0,14.832
		c-0.36,3.024-0.792,6.048-1.224,9.144C142.92,365.184,142.92,365.184,142.704,365.04L142.704,365.04z M311.904,361.008
		c-0.36-0.36-0.36-0.36-1.08-5.4c0.072-0.288,0.2159-0.576,0.3599-0.864c0.504,0,1.0801,0,1.656,0
		c0.6481,0.288,1.296,0.576,1.944,0.936c0,0.2881,0,0.576,0.072,0.864c-1.872,3.6-1.872,3.6-2.736,4.608
		C312.048,361.152,311.976,361.08,311.904,361.008L311.904,361.008z M214.488,353.952c0.72-7.2,1.44-14.4,2.232-21.5999
		c0.36,0,0.72-0.072,1.08-0.144c1.728,0.432,3.528,0.936,5.328,1.44c0.864,0,1.728,0,2.592,0c3.168-1.008,3.168-1.008,7.488-1.944
		c2.592-0.936,5.256-1.872,7.92-2.88c0.72-0.648,1.44-1.296,2.16-1.944c1.296-0.792,2.664-1.584,4.032-2.376
		c0.36,0,0.792,0,1.224-0.072c-0.0721,1.944-0.216,3.96-0.36,5.976c-0.144,0.504-0.288,1.08-0.504,1.656
		c-1.224,1.008-4.464,2.88-10.08,6.768c-4.824,3.816-10.656,7.632-15.984,11.5201C218.52,352.224,218.52,352.224,214.488,353.952
		L214.488,353.952z M318.888,348.984c-1.44-0.648-2.88-1.296-4.32-1.944c0-0.576-0.072-1.152-0.144-1.728
		c0.072-0.216,0.216-0.432,0.36-0.648c0.648,0.072,1.296,0.144,1.944,0.216c1.08,0.432,2.16,0.936,3.312,1.44
		c0,0.504,0.072,1.008,0.144,1.584C319.104,349.128,319.104,349.128,318.888,348.984L318.888,348.984z M323.424,340.128
		c-1.656-0.7921-3.312-1.584-5.04-2.4481c0-0.4319-0.072-0.864-0.144-1.296c0.288-0.72,0.576-1.44,0.936-2.16
		c0.648-0.72,1.296-1.44,1.944-2.16c0.72-1.224,1.512-2.448,2.304-3.744c0.288,0,0.576,0,0.936,0c0.792,0.72,1.584,1.44,2.448,2.16
		c0.432,0.864,0.864,1.728,1.296,2.592c0,0.288,0,0.576,0,0.936c-1.944,2.376-3.888,5.76-4.464,6.264
		C323.568,340.272,323.496,340.2,323.424,340.128L323.424,340.128z M144.144,336.96c-0.792-0.72-1.584-1.44-2.376-2.232
		c-0.648-1.008-1.296-2.088-1.944-3.168c-0.576-2.448-1.152-4.896-1.8-7.416c-0.648-1.656-1.296-3.312-1.944-5.04
		c-1.368-2.448-2.736-4.896-4.104-7.416c0-0.432,0.072-0.864,0.144-1.368c2.088-0.288,4.176-0.576,6.264-0.936
		c3.888-0.072,7.776-0.144,11.736-0.216c0,0.504,0.072,1.008,0.144,1.584c-0.648,4.392-1.296,8.784-1.944,13.176
		c-1.944,8.856-1.944,8.856-3.24,13.032C144.792,336.96,144.504,336.96,144.144,336.96L144.144,336.96z M263.16,324.504
		c-0.144-1.296-0.144-1.296,0.72-9c1.44-0.36,2.88-0.72,4.32-1.08c1.512-0.144,3.024-0.288,4.608-0.504
		c0.792,0.072,1.584,0.144,2.376,0.288c0.2161,0.144,0.4321,0.36,0.72,0.576c0,0.432,0,0.936,0.072,1.44
		c-0.936,1.008-1.872,2.088-2.88,3.168c-0.432,0.7921-0.936,1.584-1.44,2.376c-1.512,0.576-3.024,1.152-4.608,1.8
		C265.752,323.856,264.456,324.144,263.16,324.504L263.16,324.504z M281.16,318.672c-0.36-2.664-0.36-2.664-1.296-5.328
		c-0.288-0.216-0.288-0.216-0.144-1.08c4.032-0.432,8.136-0.936,12.2401-1.44c2.592-0.072,5.256-0.144,7.92-0.216
		c3.6,0.432,3.6,0.432,5.544,0.936c-0.144,0.144-0.288,0.288-0.504,0.504C291.96,315.864,291.96,315.864,281.16,318.672
		L281.16,318.672z M221.904,317.088c-1.368-0.648-2.736-1.296-4.104-1.944c-1.872-1.224-3.816-2.52-5.76-3.816
		c-2.592-1.296-5.256-2.592-7.92-3.888c-9.36-3.816-9.36-3.816-19.872-7.632c-1.296-0.288-2.592-0.648-3.888-1.008
		c-5.832-0.792-11.664-1.584-17.496-2.376c-6.552-0.072-13.104-0.144-19.656-0.216c-10.656,1.584-21.312,3.168-31.968,4.752
		c-5.832,1.296-11.664,2.592-17.496,3.888c-4.32,1.224-8.64,2.52-12.96,3.816c-5.256,1.872-10.512,3.816-15.84,5.76
		c-0.864,0.072-1.728,0.216-2.664,0.36c0.072-0.288,0.216-0.576,0.36-0.936c1.584-1.224,3.24-2.52,4.896-3.816
		c2.808-2.592,5.688-5.256,8.568-7.92c3.816-4.824,3.816-4.824,4.752-6.4799c0.432-1.44,0.936-2.88,1.44-4.32
		c0.288-2.808,0.648-5.616,1.008-8.424c0.504-2.376,1.08-4.752,1.656-7.2c-0.072-6.984-0.144-14.04-0.216-21.096
		c-0.288-1.584-0.648-3.168-1.008-4.824c-1.224-3.312-2.52-6.696-3.816-10.08c-1.224-1.8-2.52-3.672-3.816-5.544
		c-1.008-1.08-2.088-2.16-3.168-3.312c0-0.288,0-0.6479-0.072-1.008c5.976,0.36,5.976,0.36,13.176,1.296
		c6.408,1.296,12.816,2.592,19.224,3.888c7.416,1.224,14.832,2.52,22.32,3.816c4.392,0.936,8.784,1.872,13.176,2.88
		c2.304,0.288,4.608,0.576,6.984,0.936c3.6,1.008,3.6,1.008,8.856,1.944c2.592,0.288,5.256,0.576,7.92,0.936
		c16.56,3.888,16.56,3.888,23.76,5.328c0.648,0.72,1.296,1.44,1.944,2.232c1.224,2.664,2.448,5.328,3.672,7.992
		c0.936,2.664,1.872,5.4,2.88,8.136c0.936,1.656,1.872,3.312,2.88,5.04c1.872,2.448,3.816,4.896,5.76,7.416
		c1.296,1.368,2.592,2.736,3.888,4.104c2.232,3.024,4.464,6.048,6.696,9.144c0.936,1.944,1.872,3.96,2.88,5.976
		c0.648,2.16,1.296,4.32,1.944,6.48c0.432,2.304,0.936,4.608,1.44,6.984c0,0.864,0,1.728,0,2.592
		C222.192,316.944,222.048,317.016,221.904,317.088L221.904,317.088z M229.824,315.36c-0.0721-2.232-0.216-4.464-0.36-6.768
		c-0.648-2.88-1.296-5.76-1.944-8.64c-1.944-4.8239-1.944-4.8239-5.76-12.744c-3.816-6.264-3.816-6.264-8.64-13.176
		c-1.224-2.736-2.52-5.472-3.816-8.208c-1.296-2.232-2.592-4.464-3.888-6.696c-1.152-1.656-2.376-3.312-3.6-5.04
		c0-0.216,0-0.432-0.072-0.72c2.088,0.216,4.176,0.504,6.264,0.792c3.312,1.008,21.312,4.824,36.936,8.64
		c4.752,0.936,9.576,1.872,14.4,2.88c7.488,1.872,14.976,3.816,22.536,5.76c6.408,1.296,12.816,2.592,19.224,3.888
		c23.76,3.816,23.76,3.816,25.2,4.32c5.5439,1.008,11.16,2.016,16.776,3.024c-0.072,0.432-0.216,0.936-0.36,1.44
		c-7.704,10.2961-7.704,10.2961-16.344,21.096c-0.216,0-0.504,0-0.792,0.072c-1.4399-0.936-1.4399-0.936-6.696-2.88
		c-2.088-0.576-4.176-1.224-6.264-1.8719c-11.0159-1.944-11.0159-1.944-14.4-2.16c-5.832,0.144-11.664,0.288-17.496,0.432
		c-3.096,0.288-6.192,0.648-9.3599,1.008c-5.9041,1.224-11.808,2.52-17.784,3.816c-3.096,1.224-6.192,2.52-9.36,3.816
		c-4.392,2.52-8.784,5.112-13.176,7.704C230.688,315.216,230.256,315.288,229.824,315.36L229.824,315.36z M350.28,313.2
		c-0.288-0.864-0.5759-1.8-0.864-2.736c-0.072-0.864-0.1439-1.7281-0.2159-2.592c0.936-1.728,0.936-1.728,3.816-5.04
		c5.76-9.864,6.768-11.088,12.528-21.168c0.288-0.288,0.576-0.576,0.936-0.936c1.728-3.024,3.456-6.048,5.256-9.144
		c0.7919-0.864,1.584-1.728,2.4479-2.592c1.8721-3.6,3.816-6.264,5.76-9.864c11.52-15.12,11.52-15.12,19.152-25.92
		c7.704-11.52,7.704-11.52,15.408-22.32c5.76-7.272,11.52-14.544,17.28-21.8159c0.864-1.368,1.8-2.736,2.736-4.104
		c0.36,0,0.72,0,1.08,0c0.936,4.104,0.936,4.104,1.944,11.304c0,2.88,0,5.76,0,8.64c-0.288,3.168-0.6479,6.336-1.0079,9.576
		c-0.936,4.752-1.872,9.576-2.88,14.4c-0.792,2.808-1.584,5.616-2.376,8.424c-0.648,1.152-1.296,2.376-1.944,3.6
		c-0.576,1.944-1.224,3.96-1.872,5.976c-3.888,7.704-3.888,7.704-7.704,14.4c-2.952,3.6-5.904,7.2-8.856,10.8
		c-5.7599,5.184-11.592,10.368-17.424,15.624c-9.72,7.632-9.72,7.632-20.16,15.336c-7.056,3.312-14.184,6.624-21.312,9.936
		C351.432,313.056,350.856,313.128,350.28,313.2L350.28,313.2z M340.704,272.88c-3.744-1.224-7.488-2.52-11.304-3.816
		c-4.032-0.936-6.696-1.944-23.04-5.76c-10.8-1.944-10.8-1.944-19.8719-4.104c-2.4481,0-2.4481,0-4.32-0.432
		c0-1.296-0.072-2.592-0.144-3.96c0.144-0.432,0.288-0.936,0.432-1.44c0-2.664,0-5.4,0-8.136c0.288-1.296,0.648-2.592,1.008-3.888
		c0.504-0.072,1.008-0.216,1.584-0.36c1.656,0.072,3.312,0.144,5.04,0.216c1.4399,0.648,2.8799,1.296,4.3199,1.944
		c4.32,2.52,8.6401,5.112,12.9601,7.704c0.936,0.936,1.8719,1.872,2.8799,2.88c2.448,1.872,4.8961,3.816,7.416,5.76
		c1.224,0.576,2.52,1.224,3.816,1.872c0.9359,0.216,1.8719,0.432,2.8799,0.72c0.792,0,1.584,0,2.448,0
		c0.936-0.576,1.872-1.224,2.88-1.872c0.7921-1.584,0.7921-1.584,1.728-5.4c0-0.72,0.0721-1.44,0.144-2.16
		c1.44,0.072,1.44,0.072,2.448,0.576c4.32,3.96,4.32,3.96,5.256,5.256c0.792,2.304,0.792,2.304,1.296,2.808
		c0.936,3.816,0.936,3.816,1.44,7.92c0,1.224,0,2.448-0.072,3.672C341.568,272.88,341.136,272.88,340.704,272.88L340.704,272.88z
		 M358.704,258.912c0.864-3.312,1.7999-6.696,2.736-10.08c0.936-6.48,0.936-6.48,1.944-10.584c0.288-4.032,0.576-8.136,0.936-12.24
		c-0.36-1.44-0.36-1.44-0.72-1.656c0.504-9.648,0.504-9.648,0.504-17.784c-0.648-4.68-1.296-9.432-1.944-14.184
		c-0.648-3.24-1.296-6.48-1.944-9.792c-1.584-5.688-3.168-11.376-4.752-17.064c-0.648-1.368-1.296-2.736-1.944-4.1041
		c-2.6641-3.384-5.4-6.84-8.136-10.296c-11.808-11.7359-11.808-11.7359-14.184-13.6799c-5.544-3.816-10.584-7.704-12.312-8.568
		c-0.72-0.144-1.44-0.288-2.16-0.432c-1.944-2.4481-1.944-2.4481-3.888-4.3201c-0.7919-0.5759-1.656-1.1519-2.52-1.7999
		c0-0.288,0-0.576-0.072-0.936c1.296-0.288,2.664-0.5761,4.032-0.864c9.6481-1.008,17.568-1.44,21.8881-1.944
		c2.88-0.144,5.76-0.288,8.64-0.504c4.392,0.072,8.784,0.144,13.176,0.2879c10.8,0.936,10.8,0.936,17.28,1.8721
		c1.3679,0.288,2.736,0.648,4.104,1.0079c3.312,1.2241,6.6959,2.5201,10.08,3.816c2.592,1.2241,5.256,2.52,7.92,3.816
		c3.168,1.8719,6.336,3.816,9.5759,5.76c0.936,1.008,3.816,2.88,5.976,4.824c3.888,4.68,3.888,4.68,11.52,14.976
		c1.08,2.7361,2.16,5.472,3.24,8.2081c-0.072,0.36-0.144,0.7919-0.216,1.2239c-7.704,10.8-11.52,15.552-26.928,36.9361
		c-7.632,9.864-13.392,17.784-15.336,19.944c-0.648,1.008-1.296,2.016-1.944,3.0959c-0.288,0.864-0.576,1.728-0.936,2.664
		c-7.704,11.0161-15.336,21.312-22.896,32.256C359.208,258.768,358.992,258.84,358.704,258.912L358.704,258.912z M249.768,257.544
		c-0.72-0.072-1.44-0.216-2.16-0.36c0.072-0.2881,0.144-0.576,0.288-0.936c1.584-0.936,1.584-0.936,3.528-1.656
		c0.072,2.376,0.072,2.376-0.216,2.952C250.776,257.544,250.272,257.544,249.768,257.544L249.768,257.544z M271.584,256.608
		c-1.944-0.504-1.944-0.504-4.1039-0.504c-0.864-2.52-0.864-2.52-0.936-3.672c0.792,0.072,1.584,0.144,2.376,0.288
		c0.72,0.288,1.44,0.648,2.16,1.008c0.864,0.792,1.728,1.656,2.664,2.5201c-0.072,0.072-0.144,0.216-0.2161,0.36
		C272.88,256.608,272.232,256.608,271.584,256.608L271.584,256.608z M345.744,256.32c-0.36-0.144-0.792-0.288-1.224-0.432
		c-2.16-2.448-2.16-2.448-6.48-6.264c-1.152-0.648-2.376-1.296-3.6-1.944c-1.44-0.4319-2.88-0.9359-4.32-1.44
		c-0.864-2.232-1.8-4.464-2.736-6.768c-1.8719-7.272-3.816-14.544-5.76-21.888c-1.872-4.752-3.816-9.576-5.7599-14.4
		c-2.52-4.6801-5.1121-9.36-7.704-14.112c-3.816-5.616-7.632-11.2321-11.52-16.848c-0.72-0.432-2.664-2.88-6.624-6.696
		c-1.584-1.368-3.24-2.736-4.896-4.1041c-1.368-0.864-2.736-1.728-4.104-2.5919c0-0.2881,0-0.6481-0.072-1.008
		c1.2241,0,2.52-0.0721,3.816-0.1441c2.808,0.936,5.616,1.8721,8.424,2.88c2.376,1.2961,4.752,2.592,7.2,3.8881
		c1.8,1.224,3.6721,2.52,5.5441,3.816c0.5759,0.72,1.2239,1.44,1.8719,2.16c1.008,0.504,1.008,0.504,2.88,0.936
		c2.448,1.944,2.448,1.944,9.36,8.928c2.88,1.8719,2.88,1.8719,4.1041,2.952c0.936,1.368,3.0959,3.384,9.2159,11.088
		c0.072,0.648,0.144,1.296,0.216,1.944c0.936,1.584,1.872,3.168,2.88,4.752c1.296,3.312,2.592,6.696,3.888,10.08
		c1.872,6.264,1.872,6.264,2.88,8.64c1.224,4.68,2.52,9.4319,3.816,14.184c0.936,1.944,0.936,1.944,1.656,4.32
		c-0.216,3.672-0.4319,7.344-0.72,11.016c-0.936,6.48-0.936,6.48-1.296,7.056C346.392,256.32,346.104,256.32,345.744,256.32
		L345.744,256.32z M321.768,251.064c-1.944-0.72-1.944-0.72-3.168-1.656c-0.576-0.72-1.224-1.5121-1.872-2.304
		c-2.376-1.944-4.752-3.888-7.2-5.904c-6.9839-3.816-6.9839-3.816-11.304-5.76c-7.344-2.232-14.688-4.464-22.104-6.696
		c-0.792-0.36-1.584-0.7921-2.376-1.224c-0.648,0.072-1.296,0.144-1.944,0.288c-0.72-0.504-0.72-0.504-3.312-1.224
		c-1.2961-0.144-2.592-0.288-3.8881-0.504c-0.864,0.072-1.728,0.144-2.592,0.288c-7.2-1.008-7.2-1.008-18.288-1.944
		c-4.032,0.216-5.256,0-6.912,0.216c-0.288,0.288-10.08,1.224-15.408,2.16c-2.592,0.648-5.256,1.296-7.92,1.944
		c-10.5121,3.384-10.5121,3.384-11.7361,3.528c0-0.288,0-0.648,0.072-1.008c2.52-2.736,5.112-5.544,7.704-8.352
		c1.872-3.096,3.816-6.192,5.76-9.36c1.944-6.048,1.944-6.048,3.816-13.68c0.288-1.8,0.648-3.672,1.008-5.544
		c0.072-1.44,0.144-2.88,0.216-4.32c-0.288-4.608-0.576-9.216-0.936-13.896c-0.288-1.8-0.648-3.672-1.008-5.544
		c-0.576-2.088-1.224-4.176-1.872-6.264c-0.936-2.376-1.872-4.752-2.88-7.2c-0.792-1.008-1.584-2.016-2.448-3.096
		c-0.144-0.504-0.36-1.08-0.576-1.656c2.304,0.216,4.608,0.504,6.984,0.792c13.824,2.88,27.648,5.76,41.544,8.64
		c5.904,1.728,11.808,3.456,17.712,5.256c0.36,0,0.792,0,1.224,0c0.288-0.2159,0.576-0.4319,0.936-0.72c0.36,0,0.792,0,1.224,0
		c4.824,3.888,4.824,3.888,8.856,7.704c1.296,1.44,2.592,2.88,3.8879,4.32c5.76,8.496,5.76,8.496,7.632,10.8
		c3.8881,6.336,5.76,9.864,6.7681,11.16c3.6719,7.488,3.6719,7.488,7.488,16.56c0.6479,2.016,1.296,4.032,1.944,6.048
		c2.088,8.208,4.176,16.416,6.264,24.696c0,2.664,0,2.664-0.3599,3.456C322.416,251.064,322.128,251.064,321.768,251.064
		L321.768,251.064z M237.744,250.344c-5.544-1.44-11.16-2.88-16.776-4.32c-4.176-0.648-8.352-1.2961-12.528-1.944
		c0-0.288,0-0.648,0-1.008c2.952-1.224,5.904-2.448,8.928-3.744c1.944-0.648,3.96-1.296,5.976-1.944
		c2.88-0.648,5.76-1.296,8.64-1.944c4.104-0.576,8.28-1.224,12.456-1.872c1.8,0,3.672,0,5.544,0c0.072,0.072,0.216,0.216,0.36,0.36
		c0,0.792,0,1.584,0,2.376c-0.648,0.504-0.648,0.504-4.176,1.8c-1.152,0.072-2.376,0.144-3.6,0.216
		c-0.288,0.288-0.648,0.648-1.008,1.008c-0.576,1.152-1.152,2.304-1.8,3.456c-0.2881,1.008-0.576,2.088-0.936,3.168
		c-0.144,1.44-0.288,2.88-0.504,4.32C237.96,250.488,237.96,250.488,237.744,250.344L237.744,250.344z M171,237.888
		c-0.36-0.144-0.72-0.288-1.152-0.504c0-0.36-0.072-0.72-0.144-1.08c1.152-4.752,2.376-9.576,3.6-14.4
		c0.144-0.072,0.36-0.216,0.576-0.36c1.656-0.072,3.312-0.144,5.04-0.216c3.888,0.288,7.848,0.576,11.808,0.936
		c1.872,0.288,3.816,0.576,5.76,0.936c0.432,0.432,0.432,0.432,0.576,1.368c-1.296,1.368-2.592,2.736-3.96,4.104
		c-15.12,7.488-15.12,7.488-19.44,9.216C172.8,237.888,171.936,237.888,171,237.888L171,237.888z M160.2,235.44
		c-7.776-1.368-15.624-2.736-23.472-4.176c0.072-0.216,0.144-0.432,0.216-0.72c1.512-0.576,3.024-1.152,4.536-1.8
		c4.536-1.224,9.072-2.52,13.68-3.816c3.096-0.576,6.192-1.152,9.36-1.8c-0.288,2.16-0.576,4.32-0.864,6.48
		c-0.576,1.872-1.224,3.816-1.872,5.76C161.28,235.368,160.776,235.368,160.2,235.44L160.2,235.44z M355.32,228.24
		c-0.36-0.576-0.36-0.576-3.24-13.536c-1.944-5.256-1.944-5.256-2.16-6.912c0.288-0.72,0.576-1.44,0.936-2.16
		c0.648-2.7361,1.2961-5.472,1.944-8.208c0.432-3.24,0.864-6.48,1.368-9.792c0.216,0,0.432,0,0.72,0
		c0.936,6.12,1.944,12.24,2.952,18.432c-0.072,4.32-0.144,8.64-0.216,12.96c-0.144,1.584-0.288,3.168-0.504,4.8239
		c-0.936,3.6-0.936,3.6-1.44,4.32C355.608,228.168,355.464,228.168,355.32,228.24L355.32,228.24z M112.968,228.168
		c0-0.216,0-0.432,0.072-0.72c9.576-7.92,9.576-7.92,18-15.624c3.816-4.752,3.816-4.752,6.984-7.92
		c0.936-1.584,1.872-3.168,2.88-4.752c0.576-1.872,1.224-3.816,1.872-5.76c0.288-1.656,0.648-3.312,1.008-5.0399
		c0.072-1.584,0.144-3.168,0.216-4.824c-0.936-2.16-0.936-2.16-1.944-3.384c-0.648-0.432-1.296-0.936-2.016-1.44
		c0-0.504-0.072-1.08-0.144-1.656c0.792-1.656,1.584-3.312,2.448-5.04c0.144-1.224,0.288-2.52,0.432-3.816
		c-0.072-3.8881-0.144-7.848-0.216-11.808c-0.936-2.952-1.872-5.9041-2.88-8.856c-1.224-1.7281-2.52-3.456-3.816-5.256
		c-2.232-2.2321-4.464-4.4641-6.768-6.768c-0.432-0.144-0.864-0.288-1.296-0.432c-0.072-0.2161-0.144-0.432-0.216-0.72
		c1.584,0.216,3.168,0.504,4.824,0.792c3.6,1.2239,7.2,2.52,10.8,3.816c1.656,0.2879,3.312,0.648,5.04,1.008
		c4.392,1.224,8.784,2.52,13.176,3.816c5.76,1.872,11.52,3.816,17.28,5.7599c5.184,1.4401,10.368,2.88,15.624,4.3201
		c1.224,1.4399,2.52,2.9519,3.816,4.464c3.816,5.4719,3.816,5.4719,5.7599,8.856c1.224,2.736,2.448,5.472,3.672,8.208
		c0.936,2.88,1.872,5.76,2.88,8.64c0.144,1.008,0.288,2.016,0.504,3.096c0.072,2.952,0.144,5.904,0.216,8.856
		c-0.288,2.088-0.576,4.176-0.936,6.264c-0.504,0.72-4.32,9.864-6.264,13.464c-0.216,0-0.5041,0-0.7921,0.072
		c-1.44-0.648-2.88-1.296-4.32-1.944c-1.944-0.432-3.96-0.936-5.976-1.44c-4.104-0.432-4.104-0.432-17.568-0.936
		c-3.312,0.072-6.696,0.144-10.08,0.216c-5.256,0.936-10.512,1.872-15.84,2.88c-2.304,0.648-4.608,1.296-6.912,1.944
		c-6.912,2.5201-13.896,5.112-20.88,7.704c-1.8,0.936-3.672,1.872-5.544,2.88C115.056,227.448,114.048,227.808,112.968,228.168
		L112.968,228.168z M345.528,201.168c-1.296-2.16-2.592-4.32-3.888-6.4799c-3.816-4.68-7.632-9.432-11.52-14.1841
		c-5.76-5.976-5.76-5.976-7.632-8.28c-4.32-3.96-10.0801-10.2241-12.2401-12.0961c-0.288-0.3599-0.576-0.7199-0.864-1.08
		c0.072-0.36,0.144-0.792,0.216-1.2239c3.816-4.32,3.816-4.32,5.76-7.2001c1.944-4.032,1.944-4.032,2.88-6.9119
		c0.36-2.0881,0.72-4.176,1.08-6.264c0.36,0,0.792-0.0721,1.224-0.144c2.376,1.944,2.376,1.944,8.136,5.76
		c3.888,3.8881,7.848,7.7761,11.808,11.736c1.296,1.6561,2.664,3.312,4.032,4.9681c1.368,2.2319,2.736,4.464,4.1039,6.696
		c-0.072,0.288-0.216,0.6479-0.3599,1.008c0.072,5.616,0.1439,11.304,0.2159,16.992c-0.288,3.096-0.576,6.192-0.936,9.36
		c-0.432,2.448-0.864,4.896-1.296,7.344C346.032,201.168,345.816,201.168,345.528,201.168L345.528,201.168z M270.864,152.424
		c-1.944-0.432-3.96-0.9359-5.976-1.4399c-0.432-0.576-0.432-0.576-1.152-3.6721c-0.072-3.528-0.144-7.056-0.288-10.5839
		c0.864,0.216,1.728,0.5039,2.592,0.792c2.448,1.2959,4.968,2.5919,7.4879,3.888c2.88,1.8,5.76,3.6,8.6401,5.472
		c-0.288,0.288-0.288,0.288-2.8801,0.72c-1.368,0.6479-2.736,1.296-4.104,1.9439c-0.5759,0.936-1.152,1.8721-1.7999,2.808
		C272.592,152.352,271.728,152.352,270.864,152.424L270.864,152.424z M308.088,151.9199c-3.744-6.3359-4.752-7.4879-5.184-8.496
		c-1.296-1.4399-2.592-2.88-3.888-4.3199c-9.576-7.632-9.576-7.632-12.456-9.576c-15.696-7.56-15.696-7.56-17.352-8.568
		c-7.488-1.872-7.488-1.872-12.96-2.88c-2.592-0.216-5.256-0.432-7.92-0.72c-3.168,0-6.408,0-9.648,0
		c-2.448,0.216-4.896,0.432-7.416,0.72c-7.92,1.944-7.92,1.944-10.8,2.88c-8.856,3.888-8.856,3.888-14.4,6.768
		c-0.216,0-0.432-0.072-0.648-0.144c0-0.432,0-0.936,0-1.44c0.648-1.152,1.296-2.376,1.944-3.6c1.584-4.3199,3.168-8.64,4.824-12.96
		c0.7921-5.4,1.584-10.8,2.376-16.272c-0.216-6.4799-0.216-6.4799-0.792-10.3679c3.96,0.2879,7.92,0.576,11.952,0.8639
		c2.16,0.2881,4.32,0.5761,6.48,0.936c2.232,0.6481,4.464,1.296,6.7679,1.944c10.8,1.872,14.832,2.8801,39.312,7.6321
		c7.704,3.888,7.704,3.888,14.184,7.704c1.728,1.6559,3.456,3.312,5.256,5.04c1.944,2.88,5.7601,7.344,6.48,8.784
		c-0.144,0.1439-0.288,0.36-0.432,0.5759c-1.368,0.504-2.736,1.0081-4.104,1.584c-0.936,1.512-0.936,1.512-1.584,1.944
		c-0.216,0.648-0.504,1.368-0.7921,2.088c0.72,0.504,1.44,1.008,2.16,1.584c1.944,0.6481,3.96,1.296,5.976,1.944
		c0.936,0.576,1.872,1.224,2.88,1.8719c1.368,1.296,2.736,2.592,4.1039,3.9601c0.6481,1.368,1.2961,2.736,2.0161,4.104
		c-0.72,5.5439-0.72,5.5439-1.728,9.6479c-0.576,1.296-1.224,2.6639-1.8719,4.032C308.304,152.064,308.304,152.064,308.088,151.9199
		L308.088,151.9199z M247.32,147.6c-7.2-1.872-19.152-5.76-26.64-7.632c-0.648-0.2881-1.296-0.576-1.944-0.864
		c0-0.216,0-0.432-0.072-0.72c2.592-1.872,2.592-1.872,5.904-3.744c1.8-0.792,3.6-1.584,5.472-2.376
		c1.584-0.288,3.168-0.576,4.824-0.936c9.864,0.2159,9.864,0.2159,11.016,0.432c0.36,0.432,0.36,0.432,1.584,5.904
		c0.216,2.304,0.432,4.608,0.72,6.984c0,0.936-0.072,1.944-0.144,2.952C247.824,147.6,247.608,147.6,247.32,147.6L247.32,147.6z
		 M182.304,139.968c-7.92-1.944-7.92-1.944-12.744-3.456c-3.96-15.408-4.896-20.16-5.904-23.3281
		c-0.576-1.08-1.224-2.16-1.872-3.312c-0.648-0.72-1.368-1.4399-2.088-2.1599c-1.152-0.576-2.304-1.224-3.528-1.872
		c-3.6-1.2241-7.2-2.52-10.8-3.816c-7.92-1.944-11.088-2.376-14.184-3.384c-0.504-0.2161-1.008-0.504-1.584-0.792
		c0-0.36,0.072-0.72,0.144-1.08c1.44-0.288,1.44-0.288,7.92,0c2.952,0.36,5.904,0.72,8.856,1.1519
		c3.888,1.0081,3.888,1.0081,9.864,1.9441c18.504,5.7599,22.32,6.6959,24.984,7.704c4.104,0.936,8.28,1.8719,12.456,2.88
		c2.592,0.36,5.256,0.72,7.92,1.08c-0.072,0.648-0.216,1.296-0.36,1.944c-0.648,1.224-1.296,2.52-1.944,3.816
		c-7.704,10.296-7.704,10.296-14.4,18.72c-0.576,1.296-1.152,2.592-1.8,3.96C182.952,139.968,182.664,139.968,182.304,139.968
		L182.304,139.968z M114.84,130.608c-9.576-3.888-9.576-3.888-16.56-7.056c0-0.216,0-0.432,0-0.72
		c1.8,0.576,3.672,1.152,5.544,1.7279c12.312,5.688,12.312,5.688,12.24,5.9041C115.704,130.464,115.272,130.536,114.84,130.608
		L114.84,130.608z M199.584,101.088c-0.432-0.072-0.864-0.2161-1.368-0.36c-0.072-0.7921-0.144-1.584-0.216-2.376
		c0.288-2.448,0.576-4.968,0.864-7.488c0.36,0.072,0.792,0.216,1.224,0.36c1.08,1.5839,2.1599,3.24,3.312,4.8959
		c0.36,2.2321,0.36,2.2321,0.144,4.6081c-0.0721,0.0719-0.216,0.216-0.36,0.36C202.032,101.088,200.808,101.088,199.584,101.088
		L199.584,101.088z M186.12,98.424c-12.672-2.376-12.672-2.376-13.68-2.88c0-0.36-0.072-0.7199-0.144-1.08
		c1.08-0.576,2.16-1.152,3.312-1.8c1.8-0.648,3.6-1.2961,5.472-1.944c2.16-0.432,4.32-0.936,6.48-1.44
		c0.576,0,1.152,0.072,1.8,0.1439c0,2.16,0,4.32,0,6.48c-0.144,0.792-0.288,1.584-0.504,2.448
		C187.992,98.352,187.056,98.352,186.12,98.424L186.12,98.424z M171,80.784c0.36-3.6,0.36-3.6,1.296-7.92
		c0.216-3.024,0.432-6.048,0.72-9.072c-0.432-5.76-0.432-5.76-0.288-8.568c8.856,1.656,8.856,1.656,17.28,3.6
		c12.456,3.816,20.376,5.7599,26.856,7.704c2.304,0.432,4.608,0.936,6.984,1.44c0.504,0.36,1.08,0.7199,1.656,1.08
		c-0.072,0.072-0.144,0.216-0.216,0.36c-1.08,0.072-2.232,0.144-3.384,0.2159c-3.96-0.288-7.992-0.576-12.024-0.936
		c-2.16-0.6479-4.32-1.2959-6.48-1.944c-1.872-0.936-3.816-1.872-5.76-2.8799c-1.296-0.8641-2.664-1.728-4.032-2.664
		c-0.432,0-0.936,0-1.44,0c-0.864,1.152-0.864,1.152-1.152,2.088c-0.072,1.656-0.144,3.312-0.216,5.04
		c0.936,4.824,1.44,6.264,1.368,7.272C176.544,79.488,173.664,80.424,171,80.784L171,80.784z M242.568,76.608
		c-0.792-0.144-1.584-0.288-2.448-0.504c-2.376-2.3041-2.376-2.3041-2.736-2.952c-0.216-1.512-0.432-3.024-0.72-4.608
		c-0.648-1.512-1.296-3.0239-1.944-4.5359c-0.648-0.936-1.296-1.872-1.944-2.88c-2.016-1.944-2.016-1.944-4.608-3.744
		c-3.096-0.936-6.192-1.872-9.36-2.88c-1.512-0.288-3.024-0.576-4.608-0.936c-1.872-0.6481-3.816-1.296-5.76-1.944
		c-1.944-1.08-3.96-2.2319-5.976-3.384c0-0.576,0-1.152,0-1.728c0.288,0,0.576-0.072,0.936-0.1441
		c1.872,0.432,3.816,0.936,5.76,1.44c1.368,0.1441,2.736,0.2881,4.104,0.4321c1.224,0.288,2.52,0.648,3.816,1.0079
		c0.432-0.0719,0.936-0.1439,1.44-0.2879c0.648-0.504,1.296-1.008,1.944-1.512c0.792-3.384,0.792-3.384,1.8-6.264
		c0-0.5759,0-1.2239,0-1.8719c-0.144-0.36-0.288-0.792-0.504-1.224c-1.08-0.936-1.08-0.936-2.736-1.8
		c-2.664-0.288-5.4-0.6479-8.136-1.0079c-3.24-0.7201-6.552-1.44-9.864-2.1601c-0.36-0.576-0.36-0.576-0.864-3.456
		c-0.072-1.5839-0.144-3.168-0.216-4.752c1.584-0.864,1.584-0.864,3.24-1.368C210.6,23.328,217.8,22.608,227.448,22.32
		c2.304-0.216,4.608-0.432,6.912-0.72c2.016,0.432,4.032,0.864,6.12,1.368c0.144,5.8319,0.288,11.664,0.504,17.496
		c-0.144,0.288-0.288,0.6479-0.504,1.008c-1.944,0-3.888-0.072-5.832-0.144c-1.8-0.36-3.672-0.792-5.544-1.224
		c-0.648,0.072-1.296,0.1439-1.944,0.216c-0.288,0.3599-0.576,0.7199-0.864,1.152c0,2.376,0.504,4.032,0.72,6.912
		c0.288,0.72,0.288,0.72,0.504,3.888c0.576,0.7199,0.576,0.7199,1.368,1.008c14.4,1.224,14.4,1.224,15.336,1.584
		c0.36,2.16,0.36,2.16,0.72,21.744C244.152,76.608,243.36,76.608,242.568,76.608L242.568,76.608z"/>
</g>
</svg>
