<?xml version="1.0" encoding="utf-8"?>
<!-- Generator: Adobe Illustrator 21.1.0, SVG Export Plug-In . SVG Version: 6.00 Build 0)  -->
<svg version="1.1" id="Swh" xmlns="http://www.w3.org/2000/svg" xmlns:xlink="http://www.w3.org/1999/xlink" x="0px" y="0px"
	 viewBox="0 0 350.0775 456.984" enable-background="new 0 0 350.0775 456.984" xml:space="preserve">
<g>
	<path fill-rule="evenodd" clip-rule="evenodd" d="M177.8534,456.984c-8.64-5.04-8.64-5.04-9.072-5.544
		c-2.592-1.224-5.256-2.52-7.92-3.816c-3.816-1.44-7.632-2.88-11.52-4.32c-1.152-0.288-2.376-0.576-3.6-0.936
		c-4.392-0.648-8.784-1.296-13.248-1.944c-2.592-0.648-5.256-1.296-7.92-1.944c-11.952-3.816-11.952-3.816-22.536-7.632
		c-8.136-3.888-8.136-3.888-11.52-5.76c-3.816-2.52-7.632-5.112-11.52-7.704c-4.104-4.104-4.104-4.104-7.92-8.424
		c-2.952-2.592-5.904-5.256-8.856-7.92c-2.592-2.664-5.256-5.4-7.92-8.136c-3.024-2.592-6.048-5.256-9.144-7.92
		c-3.024-2.232-6.048-4.464-9.144-6.696c-1.944-1.872-3.96-3.816-5.976-5.76c-0.864-0.648-1.728-1.296-2.664-1.944
		c-1.296-1.368-2.664-2.736-4.032-4.104c-0.216,0-0.432,0-0.72,0c-3.168,1.944-3.6,2.448-4.608,2.88
		c-0.432,0.504-0.432,0.504-12.24,6.264c-0.576,0.072-1.224,0.144-1.872,0.216c-0.432-0.144-0.936-0.288-1.44-0.432
		c-0.792-0.648-1.584-1.368-2.448-2.088c-0.144-0.648,0.864-4.752,3.24-19.368c0.288-5.4,0.576-10.872,0.936-16.344
		c-0.072-3.168-0.144-6.336-0.216-9.576c-0.288-2.016-0.576-4.032-0.936-6.048c-2.448-7.92-2.448-7.92-2.448-8.856
		c0.504-0.72,0.504-0.72,1.368-1.08c0.648,0.072,1.296,0.144,1.944,0.216c4.032,1.944,13.896,5.76,17.712,7.704
		c2.664,0.936,2.664,0.936,19.008,5.472c2.232,0,4.464,0,6.696,0c1.512-0.432,3.024-0.936,4.536-1.44
		c0.936-0.072,1.872-0.144,2.88-0.216c3.168,1.944,3.168,1.944,3.456,2.52c-0.072,0.72-0.144,1.44-0.216,2.16
		c-3.816,6.264-3.816,6.264-4.824,7.488c-2.376,1.872-2.376,1.872-4.536,4.32c0,0.288,0,0.576,0,0.936
		c9.216,7.92,9.216,7.92,16.056,14.184c0.648,0.792,1.296,1.584,1.944,2.376c2.376,2.088,4.752,4.176,7.2,6.264
		c2.232,2.376,4.464,4.752,6.696,7.2c1.728,1.224,3.528,2.52,5.328,3.8159c0.576,0.648,1.224,1.296,1.872,1.944
		c5.184,3.816,5.184,3.816,8.064,5.616c3.888,1.872,8.424,4.752,10.8,5.76c3.384,0.936,3.384,0.936,8.208,1.656
		c3.24-0.072,6.48-0.144,9.792-0.216c4.824-1.008,4.824-1.008,7.704-1.944c1.224-0.648,2.52-1.296,3.816-1.944
		c1.368-1.224,2.736-2.52,4.104-3.816c5.76-7.56,5.76-7.56,7.704-10.656c2.736-7.704,2.736-7.704,4.176-12.96
		c0.72-4.1039,0.72-4.1039,0.576-5.5439c-0.864-0.576-1.8-1.224-2.736-1.872c-3.96-1.872-3.96-1.872-9-3.744
		c-1.008-0.648-2.016-1.2961-3.096-1.944c-0.792-0.2881-1.584-0.576-2.448-0.936c-6.696-3.888-6.696-3.888-8.8559-4.824
		c-5.76-4.104-5.76-4.104-9.576-7.2c-0.288,0-0.648,0.072-1.008,0.144c-1.872,3.24-1.872,3.24-3.816,5.832
		c-2.376,1.944-2.376,1.944-5.76,3.888c-0.936,0.288-1.872,0.576-2.88,0.936c-1.8,0.072-3.672,0.144-5.544,0.216
		c-0.864-0.288-1.728-0.576-2.592-0.936c-0.36-0.288-0.792-0.576-1.224-0.936c-0.648-0.864-1.296-1.728-1.944-2.664
		c-0.432-1.224-0.864-2.448-1.296-3.672c0.072-1.8,0.144-3.672,0.216-5.544c1.944-3.816,1.944-3.816,3.816-6.48
		c2.52-2.664,2.52-2.664,3.744-3.6c0.648-0.288,1.296-0.576,1.944-0.864c0-0.216,0-0.504,0.072-0.792
		c-0.576-1.08-1.224-2.232-1.872-3.384c-6.264-8.856-6.264-8.856-8.208-12.24c-0.432-1.656-2.376-5.256-6.192-14.616
		c-0.792-3.096-1.584-6.192-2.448-9.36c-0.936-8.64-0.936-8.64-1.512-11.808c-1.224-0.144-1.224-0.144-3.816,0.36
		c-2.592-0.072-5.256-0.144-7.92-0.216c-3.6-1.008-3.6-1.008-5.328-1.944c-0.936-0.936-0.936-0.936-2.736-4.176
		c-0.288-1.224-0.648-2.52-1.008-3.816c0-1.008,0-2.088,0-3.168c0.288-0.72,0.648-1.44,1.008-2.16
		c0.792-0.792,1.584-1.584,2.376-2.376c3.456-1.944,3.456-1.944,5.904-2.808c0.936-0.072,1.872-0.144,2.88-0.216
		c4.104,0.936,4.536,1.224,8.136,1.656c0.216,0.072,0.432,0.144,0.72,0.288c1.8-5.4,2.736-9.72,4.176-13.824
		c1.944-4.032,1.944-4.032,2.88-6.696c0.432-2.088,0.936-4.176,1.44-6.264c1.296-2.52,2.592-5.04,3.888-7.632
		c2.88-4.32,3.816-6.48,7.416-11.808c0-0.288,0-0.576,0-0.936c-1.872-0.936-3.744-1.872-5.616-2.808
		c-1.944-1.872-1.944-1.872-4.824-5.472c-0.504-1.728-1.008-3.456-1.584-5.184c0-1.512,0-3.024,0-4.536
		c1.008-2.664,1.008-2.664,1.944-4.104c0.72-0.576,1.512-1.152,2.304-1.8c4.104-1.944,4.104-1.944,4.32-2.304
		c-0.144-0.144-0.288-0.36-0.504-0.576c-0.36-0.072-0.72-0.144-1.152-0.216c-1.296-0.792-2.592-1.584-3.888-2.448
		c-0.36,0-0.72,0-1.152,0c-2.448,1.944-2.448,1.944-3.312,3.024c-0.144,2.592-0.288,5.256-0.432,7.92
		c-0.288,0.792-0.648,1.584-1.008,2.448c-0.576,0.792-1.224,1.584-1.872,2.376c-0.288,0.72-0.648,1.44-1.008,2.16
		c-0.144,1.44-0.288,2.88-0.432,4.32c-0.936,2.664-1.872,5.4-2.88,8.136c-0.648,1.008-1.296,2.088-1.944,3.168
		c-0.936,0.936-1.872,1.872-2.88,2.88c-0.792,0.432-1.656,0.936-2.52,1.44c-1.656,0.288-1.656,0.288-5.976,0.072
		c-1.224-0.504-1.224-0.504-3.816-0.936c-1.008-0.6479-2.088-1.296-3.168-1.944c-0.576-0.936-1.152-1.944-1.8-2.952
		c-0.216-1.224-0.216-1.224-0.216-6.048c0.144-0.72,0.288-1.44,0.432-2.16c0.648-1.152,1.296-2.376,1.944-3.5999
		c0.288-1.656,0.576-3.312,0.936-5.04c0.648-1.584,1.296-3.168,1.944-4.752c1.368-2.52,2.736-5.112,4.104-7.7039
		c0-1.152,0.072-2.376,0.144-3.6c-0.288,0-0.648,0-1.008,0.072c-0.792,0.648-1.584,1.296-2.376,1.944
		c-6.984,3.816-6.984,3.816-7.416,4.32c-1.296,0.432-2.592,0.936-3.888,1.44c-0.936,0.144-1.872,0.288-2.88,0.504
		c-1.8-0.072-3.6-0.144-5.472-0.288c-3.024-0.576-6.048-1.224-9.144-1.872c-1.728-0.648-3.456-1.296-5.256-1.944
		c-0.936-0.648-1.872-1.296-2.88-1.944c-1.368-1.224-2.736-2.52-4.104-3.816c-1.224-1.584-2.52-3.24-3.816-4.896
		c-1.224-2.16-2.448-4.32-3.744-6.4799c-0.792-2.808-1.584-5.616-2.448-8.424c-0.072-1.152-0.144-2.376-0.216-3.6
		c0.144-1.152,0.288-2.376,0.504-3.6c7.632-11.016,7.632-11.016,11.52-16.056c5.04-3.816,5.04-3.816,8.28-5.688
		c1.368-0.432,2.736-0.936,4.104-1.44c3.384-0.432,6.84-0.936,10.296-1.44c4.32,0,4.32,0,7.416,0.504
		c1.008,0.288,2.088,0.576,3.168,0.936c6.696,3.888,6.696,3.888,8.64,5.328c0.576,1.008,1.152,2.016,1.728,3.024
		c0.432,0.144,0.864,0.36,1.368,0.576c2.88,0,2.88,0,5.04-0.288c0.648-0.936,1.296-1.872,1.944-2.88
		c0.864-0.576,1.728-1.224,2.592-1.872c1.656-0.792,3.312-1.584,5.04-2.448c0.864-0.072,1.728-0.144,2.664-0.216
		c0.864,0.288,1.728,0.576,2.664,0.936c3.816,3.168,3.816,3.168,4.536,3.384c0.648-0.648,1.296-1.296,1.944-2.016
		c0.576-0.36,1.224-0.72,1.872-1.08c0.864-0.072,1.728-0.144,2.664-0.288c1.584,0.288,3.168,0.648,4.824,1.008
		c1.008,0.576,2.016,1.224,3.096,1.872c1.944,2.52,1.944,2.52,3.384,4.968c0.936,0.072,1.152-0.144,3.096-0.36
		c11.736,0.216,23.256,0,41.976,0.432c0.144-1.296-0.36-4.608-0.144-8.496c0.144-0.2161,0.288-0.432,0.504-0.72
		c-1.08-1.08-3.96-3.024-4.896-4.104c-0.504-1.152-1.008-2.304-1.584-3.528c0-1.008,0-2.088,0-3.168
		c0.936-2.88,0.936-2.88,1.584-4.032c0.792-0.7921,1.6559-1.584,2.52-2.448c-0.072-0.288-0.216-0.576-0.36-0.936
		c-3.096-1.08-3.096-1.08-4.8239-2.088c-0.936-1.224-1.872-2.4481-2.88-3.672c-1.8-3.6001-1.8-3.6001-3.744-8.8561
		c-0.288-2.16-0.576-4.3199-0.936-6.48c0.072-1.5119,0.144-3.0239,0.216-4.6079c0.576-2.304,1.224-4.608,1.872-6.912
		c-0.792-0.288-1.584-0.5759-2.448-0.864c-0.936-0.6479-1.872-1.368-2.88-2.088c-0.72-1.008-1.44-2.016-2.16-3.096
		c-0.864-2.232-1.8-4.464-2.736-6.696c-0.288-2.6639-0.648-5.3999-1.008-8.1359c0.216-2.952,0.432-5.904,0.72-8.928
		c1.008-5.256,1.008-5.256,1.944-8.352c1.224-2.376,2.52-4.752,3.816-7.2c0.936-1.368,1.872-2.736,2.88-4.1039
		c1.368-1.368,2.736-2.736,4.104-4.104c4.68-3.816,4.68-3.816,12.888-9.504c1.8-0.936,3.6-1.872,5.472-2.88
		c1.512-0.432,3.024-0.936,4.608-1.44c3.672-0.432,7.344-0.936,11.016-1.44c4.32,0,4.32,0,8.64,0.504
		c7.416,1.944,7.416,1.944,9.864,2.88c1.872,1.1519,3.816,2.304,5.76,3.456c0.432,0.648,2.592,2.52,6.696,7.2
		c0.936,1.3679,1.872,2.7359,2.88,4.1039c0.576,1.296,1.152,2.592,1.8,3.888c1.224,3.96,2.52,7.92,3.816,11.952
		c1.44,6.9839,1.944,8.208,2.376,11.088c-0.072,2.376-0.144,4.752-0.216,7.2c-0.288,1.656-0.576,3.312-0.936,5.04
		c-0.6479,1.872-1.296,3.816-1.944,5.76c-1.944,3.6-1.944,3.6-4.824,10.08c-0.576,0.792-1.224,1.584-1.872,2.376
		c-1.368,1.224-2.7361,2.52-4.104,3.8159c-2.52,1.7281-5.112,3.5281-7.704,5.3281c0,0.216,0,0.4319,0,0.72
		c0.648,0.72,1.296,1.4399,1.944,2.16c0.936,1.872,0.936,1.872,1.944,5.76c0,1.2239,0,2.52,0,3.816
		c-0.144,0.432-0.288,0.936-0.504,1.44c-2.016,1.944-2.016,1.944-4.104,3.384c0,0.216,0,0.432,0,0.72
		c2.16,1.872,2.16,1.872,4.32,4.536c0.504,2.664,0.504,2.664,0.504,5.7599c-0.936,1.6561-0.936,1.6561-2.016,2.88
		c-1.44,0.936-1.44,0.936-3.384,1.656c1.296,11.304,1.296,11.304,1.728,12.384c9.576,0.288,19.152,0.576,28.8,0.9359
		c14.256-0.2159,28.584-0.432,42.912-0.72c3.24-0.2159,6.552-0.432,9.864-0.72c0.936,0.288,1.872,0.576,2.88,0.936
		c0.432-0.072,0.936-0.144,1.44-0.216c2.448-1.728,4.896-3.456,7.416-5.256c1.656-0.936,3.312-1.872,5.04-2.88
		c1.08-0.288,2.232-0.648,3.384-1.008c6.48-0.72,6.48-0.72,10.296-0.72c3.6,0.504,3.6,0.504,7.488,1.44
		c5.04,1.944,5.04,1.944,12.96,5.76c1.152,1.008,1.152,1.008,2.8799,1.944c0.72,0.792,1.44,1.584,2.16,2.376
		c1.656,3.456,3.384,6.984,5.112,10.512c0.504,5.976,0.504,5.976,0.504,10.296c-0.36,2.232-0.792,4.464-1.224,6.696
		c-1.584,3.528-3.168,7.056-4.824,10.584c-1.224,1.224-2.52,2.52-3.816,3.816c-2.736,1.944-2.736,1.944-7.056,4.464
		c-3.168,0.936-6.336,1.872-9.576,2.88c-2.16,0.216-4.32,0.432-6.48,0.72c-2.232-0.144-4.464-0.288-6.768-0.504
		c-4.752-1.944-4.752-1.944-8.136-3.816c-3.384-2.448-3.384-2.448-6.264-3.888c-1.008-1.08-2.016-2.16-3.096-3.312
		c-11.736-0.288-11.736-0.288-26.424-0.144c0,0.216,0.072,0.432,0.144,0.72c0.216,0.144,0.432,0.288,0.72,0.504
		c1.008,1.8,2.016,3.672,3.096,5.544c0,1.008,0,2.016,0,3.096c-0.936,2.88-0.936,2.88-2.88,6.984
		c-1.728,2.304-3.456,4.608-5.256,6.912c-0.576,0.432-1.152,0.936-1.728,1.44c0,1.008,0.504,1.728,0.72,2.664
		c1.944,2.16,2.88,3.816,5.328,6.264c1.872,3.096,1.872,3.096,5.76,10.8c1.728,5.184,3.456,10.368,5.256,15.552
		c0.288,2.016,0.576,4.032,0.936,6.048c0.144,2.88,0.288,5.76,0.504,8.64c0.288,1.296,0.576,2.592,0.864,3.888
		c0.432,0.072,0.936,0.144,1.44,0.288c1.008-0.288,2.016-0.648,3.096-1.008c1.44-0.144,2.88-0.288,4.32-0.432
		c1.512,0.072,3.024,0.144,4.608,0.216c1.296,0.648,2.664,1.296,4.032,1.944c0.6479,0.72,1.296,1.44,1.944,2.16
		c0.576,1.152,1.152,2.304,1.8,3.456c0.144,0.936,0.288,1.872,0.432,2.88c-0.072,0.864-0.144,1.728-0.216,2.664
		c-0.288,0.936-0.576,1.872-0.936,2.88c-0.648,0.864-1.368,1.728-2.088,2.664c-1.296,0.72-2.664,1.44-4.032,2.232
		c-0.648,0.144-1.296,0.288-1.944,0.504c-2.016-0.072-4.104-0.144-6.192-0.288c-2.088-0.432-4.176-0.936-6.264-1.44
		c-0.504,0-1.008,0.072-1.584,0.144c-0.936,3.888-0.936,3.888-1.44,4.608c-1.224,5.76-2.52,11.52-3.816,17.28
		c-1.008,2.16-1.008,2.16-2.88,7.92c-1.2961,2.16-2.592,4.32-3.888,6.48c-1.224,1.6559-2.52,3.312-3.816,5.0399
		c-1.944,3.816-2.376,5.472-2.664,5.76c0,0.36,0,0.72,0,1.152c3.312,1.8,3.312,1.8,5.904,3.744c1.296,1.512,2.592,3.096,3.888,4.68
		c1.872,3.096,1.872,3.096,2.736,5.04c0.072,1.008,0.144,2.016,0.216,3.096c-0.144,1.152-0.2881,2.376-0.504,3.6
		c-0.288,0.576-0.576,1.1519-0.936,1.728c-0.7921,0.648-1.656,1.296-2.52,2.016c-0.936,0.288-1.872,0.576-2.88,0.936
		c-1.224,0.072-2.52,0.144-3.816,0.216c-0.936-0.144-1.872-0.288-2.88-0.432c-1.728-0.936-3.456-1.872-5.256-2.88
		c-1.08-0.936-2.232-1.872-3.384-2.88c-1.008-1.584-2.016-3.168-3.096-4.824c-0.288,0-0.648,0-1.008,0
		c-5.04,4.104-5.04,4.104-9.0721,6.984c-1.008,0.432-2.088,0.936-3.168,1.44c-5.04,3.816-5.04,3.816-7.2,5.76
		c-3.456,1.872-6.984,3.816-10.5121,5.76c-9.864,2.88-9.864,2.88-12.024,3.24c0.216,3.024,0.504,6.048,0.792,9.144
		c1.944,8.64,1.944,8.64,2.88,11.52c0.648,1.44,1.296,2.88,1.944,4.32c0.936,1.44,1.872,2.88,2.88,4.32
		c1.152,0.936,2.304,1.872,3.456,2.88c3.96,2.088,7.992,4.176,12.024,6.336c4.6079,0.216,4.6079,0.216,10.8,0
		c2.304-0.288,4.608-0.648,6.984-1.008c7.416-1.872,7.416-1.872,16.56-4.752c0.216-0.288,1.944-0.72,10.8-4.608
		c1.008-0.576,2.016-1.224,3.096-1.872c3.888-3.888,7.704-8.208,8.424-8.64c1.944-2.16,1.944-2.16,9.864-9.36
		c10.8-13.248,10.8-13.248,11.52-13.68c0.864-1.368,1.8-2.7361,2.7361-4.1761c0.072-0.288,0.144-0.648,0.216-1.008
		c-0.504-0.432-0.504-0.432-0.936-1.44c-1.584-0.936-1.584-0.936-3.888-3.096c-1.872-2.88-1.872-2.88-5.76-7.416
		c-0.936-1.944-0.936-1.944-0.936-2.664c0.216-0.648,0.432-1.296,0.72-1.944c2.52-0.864,2.52-0.864,3.744-1.584
		c4.8239,0.144,9.72,0.288,14.616,0.504c4.032-0.288,8.136-0.576,12.24-0.936c4.32-1.296,8.64-2.592,12.96-3.888
		c3.024-1.44,6.048-2.88,9.144-4.32c1.944-0.432,2.88-0.936,4.104-1.152c0.72,0.432,0.72,0.432,1.008,1.08
		c0.072,0.792,0.144,1.584,0.288,2.376c-0.288,0.576-0.648,1.1519-1.008,1.728c-0.936,2.952-1.872,5.904-2.88,8.856
		c-0.288,1.584-0.576,3.168-0.936,4.824c-0.936,10.8-1.44,13.896-1.944,23.04c-0.72,4.5359-0.72,4.5359-1.152,9.792
		c0,4.608,0,4.608-0.288,7.704c-0.432,0.288-0.864,0.576-1.296,0.936c-0.936,0.288-1.872,0.576-2.88,0.864c-0.504,0-1.08,0-1.656,0
		c-0.288-0.36-0.576-0.792-0.936-1.224c-1.8-0.936-3.672-1.872-5.544-2.88c-2.16-1.944-2.16-1.944-4.824-3.6
		c-0.288,0-0.576,0-0.936,0c-2.16,2.16-2.16,2.16-5.976,6.984c-10.6559,10.944-21.312,21.888-31.968,32.832
		c-0.576,0.792-1.224,1.584-1.872,2.448c-2.088,1.944-4.176,3.96-6.2639,5.976c-3.312,2.52-6.696,5.112-10.08,7.704
		c-1.008,0.576-2.016,1.224-3.096,1.872c-0.72,0.648-1.44,1.296-2.16,1.944c-2.016,1.224-4.032,2.52-6.0479,3.816
		c-2.664,1.296-5.4,2.592-8.136,3.888c-1.8,0.576-3.672,1.224-5.544,1.872c-5.184,1.296-10.368,2.592-15.552,3.888
		c-6.0479,0.936-6.0479,0.936-14.688,1.872c-13.176,2.448-13.176,2.448-16.272,3.384c-3.168,1.44-3.168,1.44-6.48,2.376
		c-1.008,0.648-2.088,1.296-3.168,1.944c-2.16,1.944-2.16,1.944-3.096,2.376c-0.936,1.08-1.872,2.16-2.88,3.312
		C179.6534,456.912,178.7894,456.912,177.8534,456.984L177.8534,456.984z M177.1334,450.504c-3.456-1.872-6.984-3.816-10.512-5.76
		c-5.112-1.872-10.224-3.816-15.408-5.76c-9.072-1.944-9.072-1.944-19.872-3.816c-4.536-1.296-9.072-2.592-13.68-3.888
		c-3.6-1.224-7.2-2.52-10.8-3.816c-2.952-1.224-5.904-2.52-8.928-3.816c-3.168-1.872-6.336-3.816-9.576-5.76
		c-1.584-1.296-3.168-2.592-4.824-3.888c-1.872-2.088-3.816-4.176-5.76-6.336c-2.88-2.592-5.76-5.184-8.64-7.776
		c-3.24-3.24-6.48-6.552-9.792-9.864c-2.232-1.872-4.464-3.816-6.768-5.76c-3.816-2.88-7.632-5.76-11.52-8.64
		c-4.32-4.104-4.32-4.104-8.856-7.92c-5.76-6.12-5.76-6.12-6.264-6.984c-1.296-0.288-2.664-0.576-4.032-0.936
		c-0.36,0.072-0.792,0.144-1.224,0.216c-1.728,1.296-3.456,2.592-5.256,3.888c-1.656,0.936-3.312,1.872-5.04,2.88
		c-0.72,0.216-1.44,0.432-2.16,0.72c0-0.576-0.072-1.152-0.144-1.8c0.432-3.312,0.936-6.696,1.44-10.08
		c0.36-5.832,0.72-11.664,1.152-17.496c-0.072-3.888-0.144-7.848-0.216-11.808c-0.216-1.872-0.504-3.816-0.792-5.76
		c0.576,0.072,1.224,0.216,1.872,0.36c9.648,3.816,9.648,3.816,15.624,5.76c5.112,1.224,10.224,2.52,15.336,3.816
		c1.728,0.144,3.528,0.288,5.328,0.432c-0.288,0.504-0.576,1.08-0.864,1.656c-1.368,1.44-2.736,2.88-4.104,4.32
		c-0.792,1.08-1.584,2.232-2.376,3.384c0.072,0.2159,0.144,0.432,0.216,0.72c1.224,0.936,2.16,2.376,3.6,3.312
		c0.288,0.36,0.576,0.792,0.936,1.224c0.648,0.216,1.368,0.504,2.088,0.792c5.04,4.104,5.04,4.104,13.464,12.024
		c0.576,0.72,1.224,1.512,1.872,2.304c2.664,2.016,11.808,10.656,16.344,14.472c0.936,0.648,1.872,1.296,2.88,1.944
		c1.512,1.368,3.024,2.736,4.536,4.104c2.808,1.872,5.616,3.816,8.424,5.76c4.104,1.872,4.104,1.872,10.8,5.76
		c1.368,0.432,2.736,0.936,4.104,1.44c1.656,0.288,3.312,0.576,5.04,0.936c2.304,0.144,4.608,0.288,6.912,0.504
		c6.48-0.72,6.48-0.72,11.808-1.728c1.656-0.576,3.312-1.224,5.04-1.872c1.008-0.648,2.0161-1.296,3.096-1.944
		c1.224-1.368,2.52-2.736,3.816-4.104c2.52-3.528,5.04-7.056,7.56-10.656c0.648-1.224,1.296-2.52,1.944-3.816
		c1.872-7.416,1.872-7.416,2.88-10.296c0.432-2.088,0.864-4.248,1.296-6.408c1.44-0.072,2.88-0.144,4.32-0.216
		c1.296,0.144,2.592,0.36,3.888,0.576c-0.648,1.512-1.368,3.024-2.088,4.6079c0.072,2.0161,0.144,4.104,0.216,6.192
		c1.008,3.168,1.008,3.168,1.944,4.824c0.72,0.72,1.512,1.44,2.304,2.232c0.72,0.288,1.4399,0.648,2.1599,1.008
		c0.864,0.072,1.7281,0.144,2.664,0.216c4.032-0.936,4.032-0.936,6.48-1.944c0.864-0.576,1.728-1.224,2.592-1.872
		c0.936-1.224,1.872-2.448,2.88-3.744c0.864-2.16,0.864-2.16,1.296-4.752c0-1.152,0-2.376,0-3.6
		c-0.216-1.368-0.504-2.7361-0.792-4.104c1.44,0,2.8799-0.0721,4.3199-0.144c0.0721,0.072,0.216,0.216,0.36,0.36
		c0.144,2.304,0.288,4.608,0.432,6.9839c0.6479,3.312,1.296,6.696,1.944,10.08c1.944,5.76,1.944,5.76,3.816,9.864
		c1.296,2.016,2.592,4.104,3.888,6.192c1.584,1.296,3.2401,2.592,4.896,3.888c7.2,3.816,7.2,3.816,11.304,5.616
		c6.264,0.216,6.264,0.216,12.24,0c3.816-0.648,7.632-1.296,11.5201-1.944c12.744-3.816,12.744-3.816,18.216-5.76
		c2.88-1.224,5.76-2.52,8.64-3.816c2.16-1.44,4.32-2.88,6.48-4.32c2.592-2.736,5.256-5.472,7.92-8.208
		c2.88-2.52,5.76-5.04,8.64-7.632c2.016-2.016,4.032-4.032,6.048-6.12c2.52-3.096,5.04-6.192,7.632-9.288
		c1.296-1.8,2.592-3.6,3.888-5.472c0.288-1.584,0.576-1.8,0.576-3.456c-0.504-0.72-0.504-0.72-0.72-1.728
		c-1.368-1.44-3.456-2.736-5.616-4.896c-0.72-1.152-1.512-2.304-2.304-3.456c0-0.288,0.072-0.576,0.144-0.864
		c4.392-0.144,8.784-0.288,13.176-0.504c3.024-0.288,6.048-0.576,9.144-0.936c6.696-1.944,7.632-2.448,17.712-5.4
		c-0.36,1.944-0.864,3.096-1.8,7.416c-0.648,5.904-1.296,11.808-1.944,17.784c-0.4319,9.36-0.4319,9.36-1.44,18.504
		c-0.216,0.36-0.432,0.72-0.72,1.152c-5.112-3.816-5.112-3.816-8.712-6.12c-1.944-0.216-2.16-0.576-3.384-0.72
		c-0.792,0.288-1.584,0.576-2.376,0.936c-1.368,1.44-2.736,2.88-4.104,4.32c-3.816,4.968-3.816,4.968-7.632,9.144
		c-1.08,0.936-2.232,1.872-3.384,2.88c-8.856,9.144-12.744,13.68-16.56,17.496c-1.944,2.304-10.08,10.584-13.896,14.904
		c-2.952,2.52-5.904,5.112-8.928,7.704c-5.472,3.816-7.2,4.752-12.672,8.64c-3.456,1.656-6.912,3.312-10.368,5.04
		c-13.68,3.816-13.68,3.816-21.6,5.76c-6.12,0.792-12.24,1.584-18.432,2.376c-1.224,0.504-4.824,0.936-6.264,1.44
		c-0.936,0.144-1.872,0.288-2.88,0.504c-2.952,1.08-5.904,2.16-8.856,3.312c-1.44,0.792-2.88,1.656-4.32,2.52
		c-1.008,1.08-1.008,1.08-2.664,2.088C177.9975,450.36,177.5654,450.432,177.1334,450.504L177.1334,450.504z M175.9814,368.64
		c-0.648-0.288-1.296-0.576-1.944-0.936c-0.504-0.504-1.008-1.008-1.584-1.512c-0.288-1.44-0.576-2.88-0.936-4.32
		c0.072-1.296,0.144-2.592,0.216-3.888c0.72-1.152,1.512-2.304,2.304-3.456c1.44-0.288,1.44-0.288,5.976-0.144
		c0.36,2.448,0.864,3.384,1.8,7.2c-0.072,1.08-0.144,2.232-0.216,3.384c-0.504,1.224-0.504,1.224-2.304,3.456
		C178.5734,368.64,178.5734,368.64,175.9814,368.64L175.9814,368.64z M167.5575,349.92c-3.096-0.432-7.416-0.432-9.576-0.792
		c-0.144-0.432-0.288-0.936-0.432-1.44c-0.36-0.288-0.72-0.576-1.08-0.936c-3.096-1.368-3.096-1.368-3.528-1.872
		c-1.872-0.576-3.816-1.224-5.76-1.8719c-5.472-2.88-11.016-5.76-16.56-8.64c-5.328-3.888-5.328-3.888-9.648-7.7039
		c-5.76-3.816-6.912-4.824-7.92-5.256c-1.008-0.936-2.016-1.872-3.096-2.88c-3.816-5.184-5.76-8.568-11.736-16.488
		c-1.872-3.096-1.872-3.096-4.752-9.288c-0.936-2.376-1.872-4.752-2.88-7.2c-0.792-3.168-1.584-6.408-2.376-9.648
		c-0.648-4.752-1.296-9.576-1.944-14.4c-0.072-2.592-0.144-5.256-0.216-7.92c1.008-4.032,2.016-8.136,3.096-12.24
		c1.296-3.096,2.592-6.192,3.888-9.36c0.576-2.52,1.224-5.04,1.872-7.632c0.648-1.44,1.296-2.88,1.944-4.32
		c1.872-3.312,3.816-6.696,5.76-10.08c3.816-5.328,7.704-10.08,11.016-14.904c8.208-8.424,8.208-8.424,10.44-10.296
		c2.16-1.224,4.32-2.448,6.552-3.744c3.816-1.728,7.632-3.528,11.52-5.328c3.816-0.936,10.8-1.872,15.12-2.88
		c0.288-0.432,0.576-0.864,0.936-1.296c1.728-1.008,3.456-2.0161,5.256-3.024c2.736-0.72,5.472-1.44,8.208-2.16
		c1.584,0,3.168,0,4.752,0c2.088,0.216,4.176,0.432,6.264,0.72c0.864-0.072,1.728-0.144,2.664-0.216
		c2.232,0.36,4.464,0.792,6.696,1.224c1.224,0,2.5201,0,3.816,0c1.008,0.432,2.088,0.936,3.168,1.44
		c0.432,0.432,0.936,0.936,1.44,1.44c4.032,0.0721,8.136,0.144,12.24,0.216c3.312,1.44,6.696,2.88,10.08,4.32
		c6.192,5.256,6.192,5.256,7.2,5.76c1.872,2.16,4.32,4.176,8.64,8.424c0.72,0.432,1.152,1.152,2.376,2.232
		c0.216,0.504,0.504,1.008,0.792,1.512c5.544,5.976,5.544,5.976,7.344,7.416c0.792,0.216,1.584,0.504,2.448,0.792
		c1.872,2.448,1.872,2.448,3.672,4.248c1.224,2.664,2.5201,5.4,3.816,8.136c1.728,5.184,3.528,10.368,5.328,15.624
		c0.288,2.088,0.576,4.176,0.936,6.2639c0.216,6.696,0.72,9.7921,0.936,17.496c-0.288,4.536-0.576,9.0721-0.936,13.6801
		c-1.584,7.128-3.168,14.256-4.824,21.3839c-0.936,2.664-1.872,5.4001-2.88,8.136c-1.224,2.232-2.52,4.464-3.816,6.696
		c-1.224,1.584-2.52,3.168-3.8159,4.824c-0.648,1.44-1.2961,2.88-1.944,4.32c-4.104,6.264-4.104,6.264-5.976,8.64
		c-1.44,0.936-8.064,7.2-10.728,9.144c-0.648,0.576-1.296,1.224-2.016,1.872c-1.8,0.864-2.9521,1.8-5.112,2.736
		c-3.168,1.944-3.168,1.944-8.424,5.76c-5.256,2.88-5.256,2.88-6.48,3.888c-4.536,1.872-4.536,1.872-7.7039,2.88
		c-1.5121,0.288-3.024,0.576-4.536,0.936C177.4214,349.2,177.4214,349.2,167.5575,349.92L167.5575,349.92z M101.8214,338.688
		c-0.72-0.288-1.44-0.648-2.16-1.008c-0.36-0.432-0.792-0.864-1.224-1.296c-0.288-0.72-0.576-1.44-0.864-2.16
		c0.072-1.584,0.144-3.168,0.216-4.752c0.936-1.656,1.872-3.312,2.88-5.04c1.944-1.944,1.944-1.944,2.592-2.304
		c0.216,0,0.432,0,0.72,0c1.872,1.872,1.872,1.872,7.488,6.12c0,0.288,0,0.576,0,0.936c-3.312,6.048-3.312,6.048-4.32,7.2
		c-2.736,1.944-2.736,1.944-3.672,2.304C102.9735,338.688,102.3975,338.688,101.8214,338.688L101.8214,338.688z M166.6215,337.68
		c-2.952-0.288-5.904-0.576-8.928-0.936c-1.656-0.432-3.312-0.936-5.04-1.44c-1.656-0.936-1.656-0.936-9.072-3.816
		c-1.08-0.648-2.232-1.296-3.384-1.944c-6.4799-4.824-6.4799-4.824-15.12-11.736c-0.936-1.224-0.936-1.224-5.544-5.184
		c-4.032-4.896-5.976-6.84-9.72-11.736c-0.936-2.16-4.104-7.416-5.04-9.576c-0.936-3.096-1.872-6.192-2.88-9.36
		c-1.08-4.68-2.232-9.432-3.384-14.184c-0.288-3.6-0.576-7.2-0.936-10.8c0.216-3.168,0.432-6.336,0.72-9.576
		c0.648-3.672,1.296-7.344,1.944-11.088c0.936-2.88,1.872-5.76,2.88-8.64c0.432-0.576,0.936-1.224,1.44-1.872
		c0.288-0.936,0.576-1.872,0.936-2.88c1.224-2.232,2.52-4.464,3.816-6.768c4.104-5.976,4.104-5.976,6.984-9.576
		c4.104-3.888,8.28-7.776,12.456-11.736c0.144-0.36,0.288-0.792,0.504-1.224c2.736-1.872,5.472-3.744,8.28-5.688
		c7.2-3.8159,7.2-3.8159,11.808-5.7599c5.04-1.08,10.08-2.16,15.12-3.312c0.864-0.288,1.728-0.648,2.592-1.008
		c2.16,0,2.664,0.288,5.04,0.288c2.448-0.504,2.448-0.504,8.424-1.008c2.592,0,5.256,0,7.92,0c3.672,0.936,7.344,1.872,11.016,2.88
		c4.608,1.8719,9.288,3.816,13.968,5.76c3.888,2.52,7.776,5.112,11.736,7.704c2.448,1.944,4.8961,3.96,7.416,5.976
		c2.736,2.88,5.472,5.76,8.208,8.64c1.872,3.168,3.816,6.336,5.76,9.504c0.864,1.872,1.8,3.816,2.7361,5.76
		c1.224,4.32,2.52,8.64,3.816,12.96c0.648,3.024,1.296,6.048,1.944,9.144c0.144,2.088,0.288,4.176,0.432,6.2639
		c0.216,0.288,0.432,0.576,0.72,0.936c0.072,1.656,0.144,3.312,0.288,5.04c-0.36,1.08-0.792,2.232-1.224,3.384
		c0,1.944,0,3.96,0,5.976c-0.288,0.648-0.576,1.296-0.936,1.944c-0.288,2.736-0.648,5.544-1.008,8.352
		c-1.872,6.984-2.88,9.648-3.312,12.24c-1.2961,2.5201-2.592,5.112-3.888,7.704c-1.224,1.656-2.52,3.312-3.816,5.04
		c-7.704,8.64-11.52,13.464-15.696,17.784c-5.688,3.816-8.064,5.76-14.184,9.576c-2.52,1.224-5.04,2.448-7.632,3.672
		c-3.384,1.008-3.384,1.008-18,3.888C177.1334,337.68,177.1334,337.68,166.6215,337.68L166.6215,337.68z M256.1175,333.864
		c-1.44-0.288-2.88-0.576-4.32-0.936c-1.08-0.648-2.232-1.296-3.384-1.944c-0.792-0.648-1.584-1.296-2.376-2.016
		c-0.432-0.72-0.864-1.44-1.368-2.16c0-0.36,0-0.792,0-1.224c2.448-2.16,2.448-2.16,3.888-3.816c0.288,0,0.576-0.072,0.864-0.144
		c2.304,1.224,4.608,2.52,6.912,3.816c2.16,2.16,2.16,2.16,4.104,4.68c0.288,0.576,0.576,1.152,0.936,1.728
		c-0.288,0.36-0.576,0.72-0.936,1.08c-0.648,0.288-1.296,0.576-1.944,0.936C257.7014,333.864,256.9094,333.864,256.1175,333.864
		L256.1175,333.864z M164.6775,331.2c-3.816-0.432-3.816-0.432-4.248-0.792c0.288-3.6,0.288-3.6,0.288-10.584
		c0.288-3.744,0.576-7.488,0.936-11.232c-0.216-12.744-0.216-12.744-0.072-18.72c2.16,0.2881,3.096,0.7921,6.696,1.728
		c0.072,0.144,0.216,0.288,0.36,0.432c-0.072,2.52-0.144,5.04-0.288,7.632c0.216,4.392,0.432,8.784,0.72,13.248
		c-0.432,14.616-0.72,15.552-0.72,18C168.0615,331.2,168.0615,331.2,164.6775,331.2L164.6775,331.2z M174.2534,331.344
		c0.144-7.92,0.36-15.84,0.576-23.76c-0.216-4.464-0.432-8.928-0.72-13.392c0.288-1.44,0.288-1.44,0.864-2.088
		c1.512-0.0721,3.024-0.216,4.608-0.36c-0.144,3.024-0.288,6.048-0.432,9.144c0.288,25.416,0.288,25.416,0.144,30.096
		C177.6375,331.056,175.9814,331.2,174.2534,331.344L174.2534,331.344z M185.7735,330.48c-0.288-1.296-0.576-2.592-0.864-3.888
		c-0.216-6.048,0-19.008-0.216-26.64c0.216-3.024,0.432-6.048,0.72-9.144c1.08-0.432,2.16-0.864,3.24-1.368
		c0.648-0.072,1.296-0.144,1.944-0.216c0.36,0.864,0.36,0.864,0.36,3.24c-0.288,2.592-0.648,5.256-1.008,7.92
		c0.144,9.72,0.288,19.512,0.504,29.304C189.8774,330.048,189.8774,330.048,185.7735,330.48L185.7735,330.48z M153.3734,328.824
		c-1.008-0.288-2.016-0.576-3.0959-0.936c-2.304-1.2961-4.608-2.592-6.984-3.888c-2.664-2.088-5.328-4.176-8.064-6.336
		c0-0.2881,0-0.576,0-0.936c0.936-1.44,1.8719-2.88,2.88-4.32c1.944-1.944,2.88-3.384,5.04-5.256
		c3.816-3.888,7.632-7.848,11.52-11.808c0.36-0.072,0.72-0.144,1.1519-0.216c-0.144,4.824-0.144,4.824,0.0721,13.68
		c-0.432,6.624-0.936,13.248-1.44,19.944C154.0934,328.752,153.7335,328.752,153.3734,328.824L153.3734,328.824z M196.8615,328.248
		c0-1.08-0.072-2.232-0.144-3.384c-0.288-0.36-0.648-0.72-1.008-1.152c0-8.568,0-17.136,0-25.7039
		c0.216-1.512,0.432-3.024,0.648-4.536c0.36,0,0.792,0,1.224,0.072c1.944,1.584,3.96,3.168,5.976,4.824
		c0.072,0.288,0.144,0.576,0.216,0.864c1.728,1.008,3.888,2.952,6.9839,5.112c1.944,1.944,4.32,3.816,8.424,7.704
		c1.44,0.936,1.872,1.656,2.88,2.52c-3.528,2.592-7.056,5.184-10.584,7.776c-3.24,1.584-6.552,3.168-9.864,4.824
		C200.0294,327.528,198.4454,327.888,196.8615,328.248L196.8615,328.248z M129.9015,313.2c-2.016-1.728-4.104-3.528-6.192-5.328
		c0-0.432,0-0.936,0-1.44c0.936-1.368,1.872-2.736,2.88-4.104c6.552-6.192,13.104-12.456,19.728-18.72
		c0.72-0.936,1.5121-1.872,2.304-2.808c0.288,0,0.576,0,0.936,0c1.584,1.872,3.24,3.744,4.896,5.688
		c-0.0721,0.36-0.144,0.792-0.216,1.224c-1.944,2.88-1.944,2.88-3.888,5.04c-2.16,1.872-6.192,6.48-8.352,8.3521
		c-2.16,2.448-4.248,4.32-10.944,12.024C130.6934,313.128,130.3335,313.128,129.9015,313.2L129.9015,313.2z M226.0934,310.32
		c-2.376-2.16-2.376-2.16-5.256-4.032c-1.08-1.08-2.232-2.232-3.384-3.384c-1.656-1.224-3.312-2.52-5.04-3.816
		c-8.856-7.92-8.856-7.92-14.976-12.816c0-0.36,0-0.792,0.072-1.224c1.728-1.728,3.528-3.4561,5.328-5.184
		c0.288,0,0.576,0.072,0.936,0.144c3.096,2.592,6.192,5.184,9.36,7.776c4.392,4.032,8.784,8.136,13.248,12.24
		c0.504,0.288,1.08,0.576,1.656,0.936c1.08,1.08,2.232,2.16,3.384,3.24c-1.584,2.016-3.168,4.032-4.824,6.12
		C226.4535,310.32,226.3094,310.32,226.0934,310.32L226.0934,310.32z M119.1014,302.4c-0.648-0.72-1.296-1.44-1.944-2.232
		c-1.224-2.16-2.448-4.32-3.744-6.48c-0.648-1.512-1.296-3.024-1.944-4.536c-3.816-13.248-3.816-13.248-5.472-20.16
		c0-0.792,0-1.584,0.072-2.448c5.256-0.288,10.584-0.576,15.912-0.864c3.168,0,6.336,0,9.576,0
		c3.888,0.288,7.776,0.648,11.736,1.008c0.864,2.304,1.296,4.464,3.24,9c-0.072,0.216-0.144,0.432-0.216,0.72
		c-0.6479,0.216-1.296,0.504-2.016,0.792c-1.296,1.584-2.592,3.168-3.888,4.824c-4.32,3.816-8.136,7.92-12.24,11.736
		c-3.816,4.104-5.976,6.048-8.136,8.64C119.7494,302.4,119.4614,302.4,119.1014,302.4L119.1014,302.4z M235.0215,299.52
		c-0.72-0.72-1.44-1.44-2.16-2.16c-1.8-1.296-3.672-2.664-5.544-4.032c-10.584-9.648-15.336-13.464-19.656-17.568
		c-0.36-0.216-0.72-0.504-1.152-0.792c0-0.504,0-1.08,0-1.656c0.648-1.8,1.296-3.672,1.944-5.544
		c0.288-0.072,0.576-0.216,0.864-0.36c7.416,0.288,14.832,0.576,22.32,0.936c5.688-0.072,11.376-0.144,17.064-0.216
		c0,0.792,0,1.656,0.0721,2.52c-1.944,8.424-2.88,10.8-3.816,14.4001c-0.936,2.16-1.872,4.3199-2.88,6.4799
		c-1.296,1.8-2.592,3.672-3.888,5.544c-0.792,0.792-1.584,1.584-2.376,2.376C235.5974,299.448,235.3094,299.448,235.0215,299.52
		L235.0215,299.52z M168.9975,285.12c-1.584-0.288-3.168-0.576-4.824-0.936c-2.736-1.224-5.544-2.52-8.3521-3.816
		c-0.6479-0.792-1.296-1.584-1.944-2.448c-1.224-2.232-2.52-4.536-3.8159-6.84c-0.576-2.952-1.224-5.904-1.872-8.856
		c0-6.696,0-6.696,0.504-11.7361c0.288-1.08,0.576-2.232,0.936-3.3839c1.296-1.872,2.592-3.816,3.888-5.76
		c1.944-1.872,3.96-3.816,5.976-5.76c3.024-1.872,3.024-1.872,7.128-3.744c2.16-0.432,4.32-0.936,6.4799-1.44
		c2.0161-0.072,4.104-0.144,6.192-0.216c1.296,0.144,2.592,0.288,3.888,0.504c4.32,1.872,4.32,1.872,9.36,4.752
		c1.44,1.008,2.88,2.016,4.32,3.024c1.296,1.368,2.664,2.736,4.032,4.176c1.296,2.16,2.592,4.392,3.96,6.624
		c0.072,1.656,0.144,3.312,0.216,5.04c-0.576,3.168-1.224,6.408-1.872,9.648c-0.936,2.592-1.872,5.256-2.88,7.92
		c-0.6479,0.936-1.296,1.872-1.944,2.88c-1.296,1.2961-2.592,2.664-3.96,4.032c-3.096,1.944-3.096,1.944-6.912,3.744
		c-1.872,0.576-3.816,1.224-5.76,1.872C177.8534,284.904,177.8534,284.904,168.9975,285.12L168.9975,285.12z M279.3734,262.584
		c-4.536-0.936-4.536-0.936-6.624-1.8c0.072-1.2961,0.144-2.664,0.288-4.032c0.576-0.504,1.584-0.864,2.0161-1.368
		c3.888-0.936,3.888-0.936,8.2079-1.44c1.224,0.072,2.52,0.144,3.816,0.216c0.648,0.36,1.296,0.72,1.944,1.08
		c0.36,0.432,0.72,0.936,1.152,1.44c0,0.504,0.072,1.008,0.144,1.512c-0.288,0.504-0.648,1.08-1.008,1.656
		c-0.864,0.648-1.8,1.296-2.736,1.944C282.0374,262.584,282.0374,262.584,279.3734,262.584L279.3734,262.584z M229.6934,261.648
		c-6.048-0.36-12.096-0.792-18.216-1.224c-0.36-0.576-0.36-0.576-0.72-4.68c4.824-0.144,4.824-0.144,39.6,0.504
		c-0.144,3.384-0.144,3.384-0.648,5.04C246.0374,261.648,246.0374,261.648,229.6934,261.648L229.6934,261.648z M68.7014,260.208
		c-0.936-0.144-1.872-0.288-2.88-0.504c-0.144-0.144-0.288-0.36-0.504-0.576c0-0.792-0.072-1.584-0.144-2.376
		c0.648-0.72,1.296-1.44,2.016-2.16c1.368-0.576,2.736-1.224,4.104-1.872c0.936,0,1.872,0,2.88,0
		c1.584,0.288,3.168,0.648,4.824,1.008c0.144,0.288,0.36,0.576,0.576,0.864c0.216,2.376,0.216,2.376,0,3.816
		c-1.656,0.576-3.384,1.152-5.112,1.8C72.5894,260.208,70.6455,260.208,68.7014,260.208L68.7014,260.208z M106.1414,259.704
		c-0.288-0.072-0.576-0.216-0.864-0.36c-0.288-0.72-0.288-0.72-0.288-2.592c0.144-0.576,0.288-1.152,0.432-1.728
		c22.32-0.144,29.52-0.576,36.216-0.432c0.072,3.096,0.072,3.096-0.216,4.896c-4.32-0.144-8.64-0.288-12.96-0.504
		C121.0454,259.2,113.6295,259.416,106.1414,259.704L106.1414,259.704z M241.2134,249.84c-27.792-0.72-27.792-0.72-31.392-1.08
		c-2.304-5.976-2.808-6.696-3.168-8.136c0.576-0.072,1.152-0.216,1.728-0.36c3.816-4.536,3.816-4.536,9.7921-10.584
		c0.432-0.288,0.936-0.576,1.44-0.936c2.736-2.664,5.472-5.4,8.2079-8.136c2.664-2.376,5.4-4.752,8.136-7.2
		c0.288,0,0.576,0,0.936,0.072c1.8,2.952,2.304,3.384,6.12,10.152c0.936,2.16,0.936,2.16,1.944,3.6
		c3.816,12.456,3.816,12.456,5.76,20.16c0,0.576,0,1.224,0,1.872c-0.072,0.072-0.216,0.216-0.36,0.36
		C247.3335,249.696,244.3094,249.768,241.2134,249.84L241.2134,249.84z M106.8615,248.184c-0.288,0-0.648,0-1.008-0.072
		c0.432-3.096,0.864-6.192,1.296-9.36c0.504-0.72,0.504-0.72,3.384-10.584c3.384-6.696,3.384-6.696,7.56-13.608
		c0.216,0,0.432,0,0.72,0c4.104,4.104,8.64,7.92,15.12,14.184c1.584,1.8,3.168,3.672,4.824,5.544c1.8,1.656,3.672,3.384,5.544,5.112
		c0.216,0.36,0.504,0.792,0.792,1.224c-0.072,0.648-0.144,1.296-0.216,1.944c-1.008,1.944-1.008,1.944-1.944,4.824
		c-0.288,0.144-0.576,0.288-0.864,0.432c-2.808,0-5.688-0.072-8.568-0.144c-2.376,0.144-4.752,0.288-7.2,0.504
		C119.8214,248.184,113.3415,248.184,106.8615,248.184L106.8615,248.184z M203.3415,236.16c-1.296-1.2961-2.664-2.592-4.032-3.888
		c0-0.216,0.072-0.432,0.144-0.72c1.44-1.296,2.952-2.592,4.464-3.888c4.68-5.04,9.36-10.08,14.04-15.12
		c2.232-1.872,4.176-4.032,7.776-6.912c0.432-0.504,0.864-1.008,1.368-1.584c0.36,0.072,0.72,0.144,1.152,0.216
		c1.152,1.08,2.376,2.16,3.6,3.24c0.288,0.504,0.648,1.08,1.008,1.656c-2.448,2.016-4.968,4.032-7.488,6.12
		c-2.664,2.808-5.4,5.616-8.136,8.424c-8.856,8.136-8.856,8.136-13.176,12.456C203.8455,236.16,203.6294,236.16,203.3415,236.16
		L203.3415,236.16z M149.0535,235.008c-2.16-1.944-2.592-2.664-7.2-6.768c-1.872-2.376-1.872-2.376-5.76-6.48
		c-4.32-4.032-4.752-4.752-11.232-10.512c-1.44-1.944-1.44-1.944-1.584-2.736c0.576-0.792,1.224-1.584,1.872-2.448
		c0.864-0.72,1.728-1.512,2.592-2.304c0.216,0,0.432,0,0.72,0c6.48,5.76,6.48,5.76,7.92,7.488c1.2241,0.936,2.5201,1.872,3.816,2.88
		c4.32,5.256,8.64,9.72,12.456,14.112c0.432,0.576,0.864,1.224,1.296,1.872c-0.0721,0.432-0.144,0.936-0.216,1.44
		c-1.152,1.08-2.376,2.16-3.6,3.312C149.7735,234.864,149.4134,234.936,149.0535,235.008L149.0535,235.008z M191.1014,227.088
		c-1.584-0.792-3.168-1.584-4.8239-2.448c-0.072-0.432-0.216-0.864-0.36-1.296c0-8.352,0-16.776,0-25.2
		c0.144-3.024,0.288-6.048,0.432-9.072c0.216-1.584,0.432-3.168,0.72-4.824c0.144-0.072,0.288-0.216,0.432-0.36
		c4.536,0.72,4.536,0.72,6.48,1.296c0,7.56-0.072,15.192-0.144,22.824c-1.008,7.92-1.008,7.92-1.8,19.08
		C191.7495,227.088,191.4615,227.088,191.1014,227.088L191.1014,227.088z M162.0135,225.864c-0.36-30.312-0.36-30.312-0.216-39.456
		c1.872-0.432,3.816-0.864,5.76-1.368c0.792,0,1.584,0.072,2.376,0.144c-0.576,12.96-1.152,25.92-1.8,38.88
		c-0.36,0.36-0.36,0.36-4.896,1.8C162.8774,225.864,162.4454,225.864,162.0135,225.864L162.0135,225.864z M198.3015,224.784
		c0-1.512-0.072-3.024-0.144-4.536c0.504-5.472,1.08-11.016,1.656-16.56c0-5.328,0.072-10.656,0.144-16.056
		c0.432,0,0.936,0,1.44,0.072c1.224,0.648,2.52,1.2961,3.816,1.944c1.944,0.432,1.944,0.432,6.264,2.376
		c3.744,2.52,7.488,5.112,11.304,7.704c0.216,0.36,0.432,0.72,0.72,1.08c-3.888,3.528-7.848,7.056-11.808,10.656
		c-4.176,4.464-8.424,8.928-12.672,13.464C198.8055,224.928,198.5894,224.856,198.3015,224.784L198.3015,224.784z M174.9734,223.488
		c-0.216-0.144-0.216-0.144-0.576-9.216c0.936-18.288,0.936-18.288,1.8-29.952c1.584-0.072,3.168-0.144,4.824-0.288
		c-0.36,3.744-0.72,7.488-1.152,11.232c-0.144,9.288-0.288,18.576-0.432,27.864C177.4214,223.488,177.4214,223.488,174.9734,223.488
		L174.9734,223.488z M155.1014,221.544c-1.8719-2.232-3.816-4.464-5.76-6.696c-8.424-8.424-13.968-13.464-15.408-15.12
		c-0.072-0.36-0.216-0.72-0.36-1.08c1.872-1.224,3.816-2.52,5.76-3.816c10.44-5.688,10.44-5.688,12.888-6.624
		c1.44-0.216,2.88-0.432,4.32-0.72c0.0721,1.8,0.0721,1.8-0.4319,8.28c0,20.664,0,20.664-0.216,25.416
		C155.3174,221.688,155.3174,221.688,155.1014,221.544L155.1014,221.544z M104.7014,195.12c-1.368-0.576-2.736-1.224-4.104-1.872
		c-0.72-0.648-1.44-1.296-2.16-1.944c-0.936-1.368-1.872-2.736-2.808-4.176c-0.216-1.008-0.432-2.016-0.72-3.096
		c0-0.864,0-1.728,0-2.664c0.144-0.36,0.288-0.792,0.504-1.224c1.152,0,2.304-0.072,3.528-0.144c1.152,0.288,2.376,0.6479,3.6,1.008
		c1.296,1.224,2.664,2.52,4.032,3.816c0.288,0.576,0.648,1.152,1.008,1.8c0.216,0.936,0.432,1.872,0.72,2.88
		c0.216,0.072,0.432,0.144,0.72,0.288c0,0.288-0.072,0.576-0.144,0.936c-1.08,1.44-2.16,2.88-3.24,4.392
		C105.3495,195.12,105.0614,195.12,104.7014,195.12L104.7014,195.12z M248.7014,191.52c-1.368-1.44-2.808-2.88-4.248-4.392
		c0.072-0.432,0.144-0.936,0.216-1.44c0.936-1.656,1.872-3.312,2.88-5.04c1.944-2.16,1.944-2.16,5.472-4.968
		c0.72-0.216,0.72-0.216,2.376-0.072c0.432,1.008,0.864,2.016,1.296,3.0959c-0.216,3.888-0.216,3.888-0.72,5.544
		c-1.224,1.728-2.52,3.456-3.816,5.256c-0.792,0.6479-1.6559,1.296-2.52,1.944C249.3494,191.448,249.0615,191.448,248.7014,191.52
		L248.7014,191.52z M114.0614,184.608c-0.648-1.08-1.296-2.232-1.944-3.384c-1.224-1.368-2.448-2.7361-3.744-4.176
		c0.072-0.288,0.216-0.576,0.36-0.864c0.864-0.36,1.728-0.792,2.664-1.224c0.432,0,0.936,0,1.44,0
		c0.648,0.288,1.296,0.648,1.944,1.008c1.08,0,2.16,0,3.312,0c1.296-0.288,2.592-0.648,3.888-1.008
		c0.864-0.72,1.728-1.44,2.592-2.16c1.224-0.216,1.224-0.216,7.488-0.216c0.072,0.072,0.144,0.216,0.216,0.36
		c-9.36,4.896-9.36,4.896-12.24,6.84c-1.728,1.584-3.456,3.168-5.256,4.824C114.5655,184.608,114.3495,184.608,114.0614,184.608
		L114.0614,184.608z M239.0535,182.16c-1.0081-1.0081-2.0161-2.0161-3.096-3.096c-5.256-3.816-5.256-3.816-7.416-5.76
		c-1.656-0.72-3.312-1.44-4.968-2.232c0-0.216,0-0.432-0.072-0.72c15.336-0.432,15.336-0.432,27.36-0.432
		c0.36,0.072,0.72,0.216,1.152,0.36c-0.144,0.216-0.288,0.4319-0.432,0.6479c-3.384,1.872-3.384,1.872-6.048,3.816
		c-3.816,4.896-3.816,4.896-5.472,7.416C239.7735,182.16,239.4134,182.16,239.0535,182.16L239.0535,182.16z M305.2934,175.68
		c-0.936-0.144-1.872-0.288-2.88-0.432c-1.656-1.008-1.656-1.008-4.032-1.944c-2.736-1.872-5.472-3.816-8.2079-5.76
		c-1.152-1.152-2.376-2.376-3.6-3.6c-1.44-0.144-2.88-0.288-4.32-0.504c-10.224-0.0721-20.448-0.144-30.672-0.216
		c-10.512,0.144-21.096,0.288-31.68,0.504c-2.952,0.216-5.904,0.432-8.928,0.72c-2.664,0-5.4,0-8.136,0
		c-0.936-1.008-0.936-1.008-2.664-1.944c-2.232,0-4.464,0-6.696,0c-1.728-0.432-3.528-0.864-5.328-1.2961
		c0.288-4.032,0.576-8.136,0.864-12.24c-0.288-1.44-0.576-2.88-0.936-4.32c-0.72-1.512-1.44-3.024-2.16-4.536
		c-0.864-0.72-1.728-1.44-2.664-2.16c-0.504-0.216-1.008-0.432-1.512-0.648c-1.296,0.072-2.592,0.144-3.888,0.216
		c-1.44,0.936-2.88,1.872-4.32,2.88c-0.576,0.936-1.152,1.872-1.8,2.808c-0.648,1.872-1.296,3.816-1.944,5.76
		c-0.216,1.944-0.216,1.944-0.216,12.456c-0.504,0.288-1.008,0.576-1.512,0.864c-1.368,0.288-2.736,0.576-4.104,0.936
		c-4.32,1.944-4.32,1.944-5.76,2.88c-0.36,0.072-0.792,0.144-1.224,0.216c-1.656-0.432-1.656-0.432-8.856-0.936
		c-6.696,0-13.392,0.072-20.088,0.144c0-1.944,0-1.944-0.432-4.32c-3.888-8.64-3.888-8.64-12.24-25.416c0-0.288,0-0.648,0.072-1.008
		c0.576-0.072,1.152-0.216,1.728-0.36c9.72,0.072,19.512,0.144,29.304,0.216c6.696,0.504,30.672,1.008,34.776,1.44
		c4.032,0.144,8.136,0.288,12.24,0.504c4.104-0.072,8.28-0.144,12.456-0.216c5.184,0.144,10.368,0.288,15.624,0.432
		c21.24-0.216,42.552-0.432,63.864-0.72c0.216,0.216,0.432,0.432,0.72,0.72c0.72,0,1.44,0,2.16,0
		c11.52-7.632,11.52-7.632,13.392-8.64c1.368-0.432,2.736-0.936,4.104-1.44c3.024-0.072,6.048-0.144,9.144-0.216
		c2.16,0.432,4.3199,0.936,6.4799,1.44c2.88,1.2239,5.76,2.52,8.64,3.816c0.432,0.648,0.432,0.648,1.872,1.728
		c0.576,1.0081,1.152,2.0161,1.8,3.024c0.288,1.296,0.576,2.664,0.936,4.032c0.36,0.648,0.72,1.296,1.08,1.944
		c0.792,0.36,0.792,0.36,2.232,0.504c0.288,1.44,0.288,1.44,0.288,8.856c-0.288,1.224-0.576,2.52-0.936,3.816
		c-1.224,2.808-2.5201,5.616-3.816,8.424c-2.16,2.664-2.16,2.664-4.32,4.536c-2.016,1.224-4.032,2.448-6.12,3.744
		c-2.952,0.936-5.904,1.872-8.856,2.88C310.6215,175.68,310.6215,175.68,305.2934,175.68L305.2934,175.68z M40.8374,172.8
		c-5.544-0.936-5.544-0.936-9.36-1.872c-1.152-0.6479-2.376-1.296-3.6-1.944c-0.792-0.648-1.584-1.296-2.376-1.944
		c-1.944-2.376-1.944-2.376-3.888-5.4c-0.576-1.152-1.152-2.304-1.8-3.528c-0.648-2.304-1.296-4.608-1.944-6.984
		c-0.072-1.368-0.144-2.736-0.216-4.104c0.144-0.936,0.288-1.872,0.504-2.88c3.312-5.04,3.312-5.04,7.2-10.296
		c1.224-1.44,2.52-2.88,3.816-4.32c1.296-0.936,2.592-1.872,3.96-2.88c1.8-0.72,3.672-1.512,5.544-2.304
		c3.672-0.504,7.344-1.08,11.016-1.656c1.584,0.072,3.168,0.144,4.824,0.216c1.152,0.288,2.376,0.576,3.6,0.936
		c3.6,1.944,3.6,1.944,6.264,3.888c1.224,2.0161,2.448,4.032,3.672,6.12c0.36,0.216,0.72,0.504,1.08,0.792c0.36,0,0.792,0,1.224,0
		c0.144-0.144,0.288-0.288,0.504-0.432c0.936,0,1.944,0.072,2.952,0.144c0.288,0.936,0.576,1.872,0.936,2.88
		c2.448,1.872,2.448,1.872,4.32,3.816c0.936,1.368,1.872,2.736,2.88,4.104c3.888,10.8,3.888,10.8,5.328,15.552
		c0,0.648-0.072,1.2961-0.144,2.0161c-10.8-0.432-10.8-0.432-18.936-1.152c-0.36-0.288-0.792-0.648-1.224-1.008
		c-1.872,0-1.872,0-2.88,0.36c-0.864,1.008-0.864,1.008-1.8,2.952c-0.72,0.72-1.44,1.44-2.16,2.16
		c-3.168,1.872-6.336,3.816-9.504,5.76c-0.792,0.216-1.584,0.504-2.376,0.792C45.8054,172.656,43.3574,172.728,40.8374,172.8
		L40.8374,172.8z M308.4615,163.008c-0.72-0.144-1.44-0.288-2.16-0.504c-3.6-1.944-3.6-1.944-4.824-2.88
		c-1.944-2.736-1.944-2.736-2.88-4.68c-0.288-1.008-0.576-2.0161-0.864-3.096c-0.072-1.008-0.144-2.016-0.216-3.096
		c0.144-0.864,0.288-1.728,0.432-2.664c0.936-1.656,1.872-3.312,2.88-5.04c0.36-0.36,0.792-0.792,1.224-1.224
		c0.792-0.432,1.656-0.864,2.52-1.296c2.448-0.504,3.384-1.008,6.048-1.44c1.008,0,2.016,0,3.096,0
		c2.6639,0.936,2.6639,0.936,4.3199,1.872c0.7921,1.368,1.656,2.808,2.5201,4.248c0.936,2.88,1.44,6.48,1.872,7.92
		c-0.216,1.584-0.432,3.168-0.72,4.824c-0.288,0.576-0.576,1.224-0.936,1.8719c-0.648,0.72-1.2961,1.44-1.944,2.16
		c-3.6721,1.8-3.6721,1.8-6.768,2.736C310.9094,162.792,309.6854,162.864,308.4615,163.008L308.4615,163.008z M174.2534,160.848
		c-0.072-1.224-0.216-2.448-0.36-3.744c0.072-2.376,0.144-4.752,0.216-7.2c0.144-0.72,0.288-1.44,0.504-2.16
		c1.656-2.376,2.664-4.536,3.24-5.04c0.648,0,1.296-0.072,1.944-0.144c0.936,1.08,0.936,1.08,1.8,3.024
		c0.288,1.368,0.576,2.736,0.936,4.104c-0.072,2.448-0.144,4.896-0.216,7.416c-0.288,1.224-0.576,2.448-0.864,3.744
		C179.0775,160.848,176.7014,160.848,174.2534,160.848L174.2534,160.848z M45.6614,158.904c-1.296-0.288-2.592-0.576-3.888-0.936
		c-0.72-0.288-1.44-0.648-2.16-1.008c-0.72-0.576-1.44-1.224-2.16-1.872c-0.576-0.864-1.152-1.8-1.8-2.736
		c-0.648-1.8-1.296-3.672-1.944-5.544c0.072-0.792,0.144-1.584,0.288-2.376c0.576-0.864,1.224-1.728,1.872-2.664
		c2.16-1.944,2.16-1.944,5.184-3.8159c0.648-0.288,1.296-0.576,1.944-0.864c1.44-0.072,2.88-0.144,4.32-0.288
		c2.16,0.504,2.16,0.504,4.104,1.44c0.72,0.648,1.44,1.296,2.16,1.944c0.864,1.224,1.8,2.448,2.736,3.744
		c0.936,2.664,0.936,2.664,1.152,4.32c-0.216,0.72-0.216,0.72-0.216,4.32c-0.288,0.72-0.576,1.44-0.936,2.16
		c-1.944,2.376-1.944,2.376-3.24,3.384c-1.44,0.216-2.88,0.504-4.32,0.792C47.7495,158.904,46.7414,158.904,45.6614,158.904
		L45.6614,158.904z M306.3015,156.96c-0.936-0.72-1.872-1.44-2.88-2.232c-0.432-1.944-0.432-1.944-0.432-4.104
		c0.144-0.504,0.288-1.08,0.504-1.656c0.792-1.152,1.584-2.376,2.376-3.6c1.8-0.936,1.8-0.936,5.688-2.088c0.864,0,1.728,0,2.664,0
		c0.72,0.36,1.44,0.72,2.16,1.08c0.432,0.72,0.432,0.72,0.7921,2.448c0,1.44,0,2.88,0,4.32c-0.288,0.648-0.576,1.296-0.936,1.944
		c-0.648,0.648-1.296,1.296-2.016,2.016c-1.8,0.576-3.672,1.224-5.544,1.872C307.8854,156.96,307.0934,156.96,306.3015,156.96
		L306.3015,156.96z M44.2214,153.36c-0.648-0.144-1.296-0.288-1.944-0.432c-0.648-0.432-1.368-0.864-2.088-1.296
		c-0.432-1.44-0.432-1.44-0.432-3.888c1.872-2.376,1.872-2.376,2.952-3.312c1.728-0.864,2.232-1.368,2.952-1.584
		c1.656,0,3.312,0,5.04,0c0.144,0.072,0.36,0.216,0.576,0.36c0,2.16,0.432,4.536,0.432,6.48c-0.576,0.864-1.224,1.728-1.872,2.664
		c-0.432,0.216-0.864,0.504-1.296,0.792C47.1014,153.216,45.6614,153.288,44.2214,153.36L44.2214,153.36z M185.7735,130.104
		c-12.2401-0.936-12.2401-0.936-22.68-1.296c-0.936-4.32-0.936-4.32-1.296-8.64c8.856-0.72,17.712-1.512,26.64-2.304
		c1.944,0.072,3.96,0.144,5.976,0.216c0.072,0.072,0.144,0.216,0.288,0.36c-0.432,0.792-0.432,0.792-0.864,3.888
		c0,2.5919,0.072,5.184,0.144,7.776C191.2455,130.104,188.5094,130.104,185.7735,130.104L185.7735,130.104z M169.2134,81.864
		c-0.216,0-0.432,0-0.72-0.0721c0.072-0.4319,0.216-0.9359,0.36-1.44c3.816-6.0479,3.816-6.0479,7.704-11.52
		c1.44-1.3679,2.88-2.736,4.392-4.104c3.168-2.376,6.336-4.752,9.504-7.2c0.288-0.792,0.576-1.584,0.936-2.376
		c0.072-1.512,0.144-3.024,0.288-4.608c0.432-1.152,0.936-2.376,1.44-3.6c0.432-4.752,0.432-4.752,0.216-6.48
		c-1.944-2.88-2.88-3.816-3.96-5.76c-1.224-1.08-2.52-2.16-3.816-3.24c-1.44-0.504-1.44-0.504-4.32-0.936
		c-2.664,0.216-2.664,0.216-5.976,1.152c-2.448,1.0081-2.448,1.0081-5.328,2.88c-1.296,1.296-2.664,2.592-4.032,3.888
		c-0.432,0.6479-0.864,1.296-1.368,2.0161c-0.072,1.296-0.144,2.592-0.216,3.8879c0.144,1.1521,0.2881,2.3761,0.432,3.6001
		c-5.4,3.816-5.4,3.816-10.08,7.632c-6.48,6.48-6.48,6.48-7.416,7.7039c-0.36,0-0.72,0-1.08,0.0721
		c-0.504-0.36-1.08-0.72-1.656-1.0801c-0.72-1.0079-1.44-2.0159-2.16-3.0959c-0.576-1.296-1.152-2.6641-1.8-4.032
		c-0.288-1.656-0.648-3.312-1.008-5.04c-0.072-1.872-0.144-3.816-0.216-5.7601c0.432-3.456,0.936-6.9119,1.44-10.3679
		c1.944-4.536,1.944-4.536,5.256-10.8c1.944-2.16,4.104-4.032,5.04-5.256c4.68-3.816,4.68-3.816,10.368-7.7041
		c1.944-0.8639,3.888-1.7999,5.904-2.7359c1.512-0.288,3.024-0.648,4.5359-1.008c2.88-0.216,5.76-0.432,8.64-0.72
		c1.728,0.144,3.456,0.288,5.256,0.504c2.232,0.6479,4.464,1.296,6.7679,1.9439c2.304,1.2241,4.608,2.5201,6.912,3.816
		c1.44,1.368,2.88,2.736,4.32,4.104c1.944,2.52,1.944,2.52,3.744,5.904c1.224,3.6,2.52,7.2,3.816,10.8
		c1.08,4.7521,2.232,9.576,3.384,14.4c-0.216,2.88-0.432,5.76-0.72,8.64c-0.432,1.872-0.936,3.816-1.44,5.76
		c-1.872,3.96-3.816,7.92-5.76,11.952c-4.104,2.88-4.896,3.744-6.624,4.68c-0.432,0.504-3.312,1.44-5.256,2.664
		c-1.512-0.144-3.024-0.288-4.536-0.504c-2.808,0.072-5.616,0.144-8.424,0.216C179.2935,81.144,179.2935,81.144,169.2134,81.864
		L169.2134,81.864z M170.6534,44.64c-0.36-1.008-0.36-1.008-0.576-3.888c0.144-0.288,0.288-0.648,0.432-1.008
		c0.72-0.576,1.512-1.2241,2.304-1.872c1.944-0.864,5.544-1.872,6.48-1.872c1.152,0.648,2.376,1.296,3.6,1.944
		c0.864,1.1519,1.728,2.304,2.664,3.4559c-0.072,0.072-0.144,0.2161-0.216,0.36c-2.304,0.144-4.608,0.288-6.984,0.504
		c-1.152,0.288-2.376,0.576-3.6,0.936c-0.936,0.432-1.872,0.936-2.88,1.44C171.5175,44.64,171.0854,44.64,170.6534,44.64
		L170.6534,44.64z"/>
</g>
</svg>
