<?xml version="1.0" encoding="utf-8"?>
<!-- Generator: Adobe Illustrator 21.1.0, SVG Export Plug-In . SVG Version: 6.00 Build 0)  -->
<svg version="1.1" id="Swh" xmlns="http://www.w3.org/2000/svg" xmlns:xlink="http://www.w3.org/1999/xlink" x="0px" y="0px"
	 viewBox="0 0 316.08 318.672" enable-background="new 0 0 316.08 318.672" xml:space="preserve">
<g>
	<path fill-rule="evenodd" clip-rule="evenodd" d="M153.072,318.672c-0.72-0.144-1.44-0.288-2.16-0.432
		c-0.792-0.648-1.584-1.296-2.448-1.944c-0.864-1.296-0.864-1.296-1.8-3.456c-0.432-2.52-0.936-5.112-1.44-7.704
		c-0.216-4.32-0.216-4.32,0-10.08c-3.384-9.072-3.384-9.072-3.96-9.792c-10.5121-1.872-10.5121-1.872-18.936-3.744
		c-2.952-0.936-5.904-1.872-8.856-2.88c-3.024-1.296-6.048-2.592-9.144-3.888c-4.68-2.52-9.432-5.0399-14.184-7.632
		c-1.8-1.296-3.6-2.592-5.472-3.888c-1.656-1.44-3.312-2.88-5.04-4.32c-0.432-0.072-0.936-0.144-1.44-0.216
		c-1.296,0.936-2.592,1.872-3.888,2.88c-5.472,1.944-5.472,1.944-8.856,2.664c-2.304,5.184-2.808,5.616-3.24,6.624
		c-0.792,0.576-1.584,1.224-2.448,1.872c-2.232,0.864-2.232,0.864-3.672,1.08c-2.16-0.072-4.32-0.144-6.48-0.216
		c-0.864-0.288-1.728-0.648-2.664-1.008c-2.16-1.872-2.16-1.872-3.024-3.168c-0.072-1.296-0.144-2.5919-0.216-3.888
		c0.288-1.584,0.576-3.168,0.936-4.752c0.432-1.008,0.936-2.088,1.44-3.168c0.648-0.792,1.296-1.584,1.944-2.376
		c1.512-1.224,3.024-2.52,4.536-3.816c0.648-0.936,1.296-1.872,1.944-2.88c1.224-3.456,2.52-6.912,3.816-10.368
		c-0.072-0.288-0.144-0.576-0.216-0.936c-2.52-3.168-5.112-6.336-7.704-9.576c-1.872-3.168-2.376-3.6-6.192-9.864
		c-3.888-9.144-3.888-9.144-7.704-19.656c-0.648-2.376-1.296-4.752-1.944-7.2c-0.432-2.736-0.936-5.472-1.44-8.208
		c-0.144-1.944-0.288-3.96-0.432-5.976c-0.432-1.656-0.864-3.312-1.296-5.04c-1.152-0.288-2.376-0.576-3.6-0.864
		c-2.016-0.936-4.032-1.8719-6.048-2.88c-0.432-0.072-0.936-0.144-1.44-0.216c-2.52,0.72-5.04,1.44-7.632,2.16
		c-1.656,0-3.312,0-5.04,0c-1.944-0.504-1.944-0.504-3.6-1.44c-1.944-1.944-1.944-1.944-2.808-3.456
		C0.288,162.36,0.288,162.36,0,160.2c0-1.1519,0-2.376,0-3.6c0.288-0.648,0.648-1.296,1.008-1.944
		c1.08-1.008,2.16-2.016,3.312-3.096c4.248-1.8,4.248-1.8,5.688-2.088c1.08,0,2.232,0,3.384,0c1.872,0.504,1.872,0.504,6.192,0.72
		c1.728-0.432,1.728-0.432,6.048-2.376c4.752-0.936,4.752-0.936,6.192-1.44c1.8-6.552,3.744-15.48,5.616-21.96
		c3.888-9.576,3.888-9.576,7.704-17.712c3.816-6.912,7.632-13.896,11.52-20.88c1.44-2.16,2.88-4.32,4.32-6.48
		c0.072-0.36,0.144-0.792,0.216-1.224c-1.224-2.304-2.52-4.608-3.816-6.984c-1.944-2.592-1.944-2.592-3.24-3.6
		c-0.792-0.288-1.584-0.576-2.376-0.864c-0.864-0.576-1.728-1.224-2.664-1.872c-1.872-2.088-1.872-2.088-3.816-4.824
		c-0.288-0.72-0.576-1.44-0.864-2.232c-0.072-1.584-0.144-3.168-0.216-4.824c0.288-0.792,0.576-1.584,0.936-2.376
		c0.936-1.368,1.872-2.736,2.88-4.104c2.16-2.16,2.16-2.16,3.456-3.096c0.72-0.216,1.44-0.4321,2.232-0.648c1.152,0,2.376,0,3.6,0
		c0.792,0.288,1.584,0.576,2.376,0.936c0.936,0.648,1.872,1.296,2.88,1.944c1.44,1.512,2.88,3.096,4.32,4.68
		c0.432,1.368,0.864,2.736,1.296,4.104c0.864,0.648,1.8,1.296,2.736,1.944c2.808,1.368,5.616,2.7361,8.424,4.176
		c0.576-0.216,1.152-0.4319,1.728-0.7199c1.656-1.296,3.312-2.592,5.04-3.888c6.768-3.816,13.536-7.6321,20.376-11.5201
		c2.16-0.936,4.32-1.872,6.4799-2.88c1.944-0.576,3.9601-1.224,5.976-1.8721c0.576-0.5759,1.152-1.1519,1.728-1.7279
		c1.728-0.432,3.456-0.936,5.256-1.44c1.152-0.144,2.376-0.288,3.5999-0.432c0.72-0.504,0.72-0.504,4.824-1.44
		c2.448-0.288,4.896-0.6481,7.416-1.0081c0.216-0.1439,0.432-0.288,0.72-0.4319c1.008,0,2.016,0,3.096,0
		c0.288-0.216,0.648-0.432,1.008-0.648c0.576-2.592,1.152-5.184,1.728-7.848c0.576-1.296,1.152-2.5921,1.728-3.8881
		c-0.0721-0.72-0.144-1.44-0.288-2.16c-0.216-0.36-0.432-0.72-0.72-1.152c-0.216-1.584-0.432-3.168-0.72-4.824
		c0-1.1519,0-2.376,0-3.5999c0.216-0.936,0.432-1.872,0.72-2.88c0.288-0.432,0.648-0.936,1.008-1.44
		c1.296-0.936,2.592-1.872,3.96-2.808c1.8-0.576,3.672-1.224,5.544-1.872c0.864,0,1.728,0,2.592,0
		c1.296,0.576,2.592,1.2239,3.888,1.872c1.44,1.2959,2.88,2.592,4.32,3.888c0.792,1.8,0.792,1.8,1.728,5.616
		c-0.072,1.008-0.144,2.088-0.216,3.168c-0.936,2.376-0.936,2.376-2.88,5.472c0.072,0.648,0.144,1.296,0.216,1.944
		c1.296,3.0959,2.592,6.192,3.888,9.36c0.144,0.7919,0.288,1.584,0.432,2.376C185.184,36,185.184,36,189.288,36.432
		c16.776,5.76,18.936,6.768,24.696,8.64c2.52,1.296,5.112,2.592,7.704,3.888c2.088,1.224,4.176,2.52,6.264,3.816
		c2.376,1.944,2.376,1.944,11.232,8.136c1.944-0.72,8.928-4.536,11.088-5.472c0.432-0.288,0.864-0.576,1.296-0.864
		c0.288-0.576,0.576-1.224,0.936-1.872c1.224-1.584,2.52-3.168,3.816-4.824c2.448-1.944,2.448-1.944,4.248-2.808
		c0.936-0.144,1.872-0.288,2.88-0.432c1.368,0.0721,2.736,0.144,4.104,0.216c1.224,0.648,2.52,1.296,3.816,1.944
		c0.648,0.576,1.296,1.224,1.944,1.872c0.792,1.584,1.584,3.168,2.448,4.752c0,0.936,0,1.872,0,2.88
		c-0.288,0.936-0.576,1.872-0.936,2.88c-0.6479,0.864-1.296,1.728-1.944,2.592c-0.72,0.648-1.44,1.296-2.16,1.944
		c-1.584,0.72-3.24,1.44-4.896,2.232c-0.144,0.216-0.36,0.432-0.576,0.648c-0.288,1.224-0.648,2.52-1.008,3.816
		c-1.224,2.736-2.52,5.472-3.816,8.208c-0.504,0.576-1.08,1.224-1.656,1.872c0.072,0.288,0.144,0.648,0.216,1.008
		c1.944,2.592,3.816,6.192,5.76,9.072c0.216,0.144,0.432,0.288,0.72,0.504c3.816,8.64,3.816,8.64,9.576,23.256
		c1.296,3.888,2.592,7.848,3.8881,11.808c1.8719,8.136,1.8719,8.136,4.032,19.656c0.432,0.36,4.464,1.296,7.128,2.232
		c1.656,0.792,3.312,1.584,5.04,2.448c2.592-0.072,5.256-0.144,7.92-0.288c1.224,0.144,2.52,0.288,3.816,0.504
		c0.792,0.2881,1.584,0.576,2.4479,0.936c0.936,0.648,1.8721,1.2961,2.88,1.944c0.936,1.152,1.872,2.376,2.88,3.6
		c0.216,0.648,0.504,1.368,0.7921,2.088c0.072,1.008,0.144,2.016,0.216,3.096c-0.144,0.936-0.288,1.872-0.432,2.88
		c-0.288,0.504-0.648,1.08-1.0081,1.656c-0.936,0.936-1.8719,1.872-2.8799,2.88c-0.576,0.288-1.152,0.576-1.728,0.864
		c-3.384,0.432-3.384,0.432-11.088,0.72c-1.872-0.504-1.872-0.504-5.256-0.72c-1.944,0.576-3.96,1.224-5.976,1.872
		c-1.656,0.792-3.312,1.656-5.04,2.52c-0.432,1.728-0.432,1.728-0.864,6.048c-0.432,1.8-0.936,3.672-1.44,5.544
		c0.072,1.008,0.144,2.016,0.216,3.096c-1.224,3.672-2.52,7.344-3.816,11.016c-3.168,6.624-6.408,13.248-9.648,19.944
		c-1.728,2.592-3.456,5.256-5.256,7.92c-0.072,0.432-0.144,0.936-0.216,1.44c-2.376,2.952-4.752,5.904-7.2,8.856
		c0,0.36,0,0.792,0,1.224c0.936,1.44,1.872,2.88,2.88,4.32c1.8719,5.256,1.8719,5.256,2.952,7.2c5.184,3.816,5.184,3.816,7.128,5.76
		c0.576,0.792,1.224,1.584,1.8721,2.376c0.288,0.792,0.648,1.584,1.0079,2.448c0,1.728,0,3.456,0,5.256
		c-1.0079,3.6-1.0079,3.6-1.944,5.544c-1.152,0.864-2.304,1.8-3.456,2.736c-0.72,0.144-1.44,0.288-2.16,0.432
		c-2.16-0.216-2.16-0.216-5.04-1.152c-0.936-0.648-1.872-1.296-2.88-1.944c-1.44-1.512-2.88-3.096-4.32-4.6801
		c-0.936-1.584-0.936-1.584-2.88-3.456c-1.656-1.008-4.104-1.944-4.536-2.448c-3.168-1.872-3.168-1.872-6.48-4.32
		c-0.216,0-0.432,0-0.72,0c-5.04,3.888-5.04,3.888-14.688,10.584c-4.32,2.376-5.472,3.384-7.416,4.32
		c-1.008,0.792-2.0161,1.584-3.096,2.376c-1.512,0.648-3.024,1.296-4.608,1.944c-9.432,2.52-18.864,5.112-28.296,7.704
		c-2.7361,0.288-5.472,0.576-8.208,0.864c-2.016,5.472-2.016,5.472-5.4,12.672c0.288,1.8,0.648,3.672,1.008,5.544
		c0,2.16,0,4.32,0,6.48c-1.008,3.096-1.008,3.096-1.944,4.536c-0.36,0.288-0.72,0.648-1.08,1.008c-1.656,0.72-3.312,1.44-5.04,2.232
		C155.808,318.528,154.44,318.6,153.072,318.672L153.072,318.672z M155.952,314.64c-0.36-0.144-0.792-0.288-1.224-0.504
		c-0.576-0.648-1.152-1.296-1.8-2.016c-0.288-0.72-0.648-1.44-1.008-2.16c-0.288-1.656-0.576-3.312-0.936-5.04
		c-0.0721-1.584-0.144-3.168-0.216-4.824c0.144-0.72,0.288-1.4399,0.432-2.16c0.504,0,1.008-0.072,1.584-0.144
		c0.288,0.144,0.648,0.288,1.008,0.504c1.512,0,3.024,0.072,4.536,0.144c0,0.792,0,1.584,0.072,2.376
		c0.288,1.08,0.648,2.232,1.008,3.384c0,2.16-0.288,2.376-0.72,8.424c-1.008,1.656-1.008,1.656-1.584,2.016
		C156.744,314.64,156.384,314.64,155.952,314.64L155.952,314.64z M151.848,295.2c-0.72-0.504-0.72-0.504-1.368-1.8
		c0-0.36,0-0.792-0.072-1.224c3.096,0.072,6.192,0.216,9.36,0.36c-0.216,0.936-0.432,1.872-0.72,2.808
		C156.672,295.344,154.296,295.272,151.848,295.2L151.848,295.2z M159.552,294.912c0.288-0.576,0.576-1.152,0.936-1.728
		c0,0.288,0,0.576,0.072,0.936C159.768,295.056,159.768,295.056,159.552,294.912L159.552,294.912z M158.112,289.872
		c-6.768-0.432-6.768-0.432-9.144-0.936c-0.504-0.864-0.504-0.864-0.72-2.016c3.816-0.36,3.816-0.36,14.904-0.504
		c-0.864,2.88-0.864,2.88-1.152,3.168c-0.072-0.216-0.216-0.432-0.36-0.72c-0.144,0.216-0.288,0.504-0.432,0.792
		C160.2,289.728,159.192,289.8,158.112,289.872L158.112,289.872z M152.352,279.36c-0.288-0.288-11.52-1.224-16.56-2.16
		c-4.68-1.08-9.432-2.232-14.184-3.384c-8.424-3.816-8.424-3.816-15.624-6.696c-7.416-3.888-7.416-3.888-13.896-7.704
		c-1.872-1.224-3.816-2.52-5.76-3.816c-4.104-4.104-4.104-4.104-12.744-12.024c-1.872-2.016-3.816-4.032-5.76-6.12
		c-0.576-0.36-1.224-0.72-1.872-1.08c-2.52-2.808-5.04-5.616-7.632-8.496c-1.872-3.6-1.872-3.6-5.76-9.576
		c-1.872-3.6-3.816-7.2-5.76-10.8c-1.872-4.824-1.872-4.824-3.816-11.304c-1.224-7.56-2.52-15.192-3.816-22.824
		c-0.288-1.08-0.648-2.16-1.008-3.312c-0.288-4.032-0.576-8.136-0.936-12.24c0.072-2.016,0.144-4.032,0.216-6.048
		c1.872-8.064,3.816-16.128,5.76-24.192c1.872-4.68,3.816-9.432,5.76-14.184c5.112-9.504,10.224-19.008,15.408-28.584
		c0.72-0.576,1.44-1.224,2.16-1.872c1.224-1.584,2.52-3.168,3.816-4.824c4.248-3.888,8.496-7.776,12.744-11.736
		c2.448-1.872,4.896-3.816,7.416-5.76c5.472-3.168,10.944-6.336,16.488-9.504c2.664-1.296,5.4-2.592,8.136-3.888
		c4.536-1.584,9.072-3.168,13.68-4.752c2.808-0.432,5.616-0.936,8.424-1.4399c29.736,0.936,29.736,0.936,36,0.936
		c5.76,0.648,11.52,1.296,17.28,1.9439c6.48,1.872,8.64,2.88,11.952,3.6c0.432,0.504,0.936,1.08,1.44,1.656
		c4.752,1.872,9.576,3.816,14.4,5.76c6.48,3.816,6.48,3.816,10.8,6.696c1.008,0.936,2.016,1.872,3.024,2.808c0,0.72,0,1.44,0,2.16
		c2.016,1.944,7.272,5.76,19.152,15.624c1.296,1.584,2.592,3.168,3.888,4.752c1.584,2.304,3.168,4.608,4.752,6.984
		c7.704,18.936,7.704,18.936,11.52,29.52c0.648,2.16,1.296,4.32,1.944,6.48c0.936,5.04,1.872,10.08,2.88,15.12
		c0.504,6.984,0.504,6.984,0.72,20.376c-0.144,0.36-0.288,0.792-0.504,1.224c-0.4319,5.112-0.936,10.224-1.44,15.336
		c-3.816,11.808-3.816,11.808-7.632,21.888c-3.8879,8.856-3.8879,8.856-4.824,11.952c-1.8719,3.024-3.816,6.048-5.76,9.144
		c-3.816,4.5359-7.704,9.864-11.52,14.4c-4.104,3.816-13.176,11.52-17.28,15.336c-9.576,7.704-9.576,7.704-13.824,10.584
		c-8.352,3.672-8.352,3.672-12.168,5.616c-6.984,1.944-6.984,1.944-9.144,2.88c-5.256,1.08-10.512,2.232-15.84,3.384
		c-6.912,0.72-13.896,1.44-20.88,2.16C154.944,279.36,153.648,279.36,152.352,279.36L152.352,279.36z M51.984,270.216
		c-0.72-0.36-1.512-0.72-2.304-1.08c-0.216-0.72-0.216-0.72,0-5.976c0.288-1.008,0.648-2.016,1.008-3.096
		c0.576-0.864,1.224-1.728,1.872-2.664c0.864-0.576,1.728-1.152,2.592-1.8c0.432,0.072,0.936,0.144,1.44,0.216
		c1.44,1.224,2.88,2.52,4.32,3.816c0,0.36,0,0.72,0.072,1.152c-0.36,0.288-0.792,0.576-1.224,0.936
		c-0.792,2.088-1.584,4.176-2.376,6.264c-2.16,1.872-2.16,1.872-2.952,2.232C53.64,270.216,52.848,270.216,51.984,270.216
		L51.984,270.216z M261.072,270.216c-0.864-0.288-1.728-0.576-2.664-0.936c-1.08-0.936-2.2319-1.872-3.384-2.88
		c-2.736-4.464-2.736-4.464-3.24-4.896c0-0.36,0-0.792,0-1.224c1.944-1.944,1.944-1.944,4.32-3.816c0.288,0,0.576-0.072,0.864-0.144
		c2.0881,1.584,4.176,3.168,6.264,4.752c0.576,1.008,1.224,2.016,1.872,3.024c0.144,1.008,0.36,2.088,0.576,3.168
		c-0.144,0.504-0.288,1.08-0.432,1.656c-1.008,0.936-1.008,0.936-1.8,1.2961C262.656,270.216,261.864,270.216,261.072,270.216
		L261.072,270.216z M64.512,259.92c-5.544-5.04-5.544-5.04-6.48-6.2639c0-0.216-0.072-0.504-0.144-0.792
		c0.504-0.864,1.008-1.728,1.584-2.664c0.432,0,0.936-0.072,1.44-0.144c4.752,4.104,4.752,4.104,8.352,7.704
		c0,0.288,0.072,0.576,0.144,0.864c-1.008,0.432-2.016,0.864-3.024,1.296C65.808,259.92,65.16,259.92,64.512,259.92L64.512,259.92z
		 M248.544,258.912c-0.792-0.216-1.584-0.504-2.376-0.792c0-0.36,0-0.792,0.072-1.224c2.304-2.16,4.608-4.392,6.912-6.624
		c0.288,0,0.648,0.072,1.008,0.144c1.008,2.664,1.008,2.664,1.008,3.384c-1.944,1.656-3.888,3.384-5.904,5.112
		C249.048,258.912,248.832,258.912,248.544,258.912L248.544,258.912z M71.712,256.752c-3.456-3.0959-6.912-6.192-10.368-9.36
		c0-0.72-0.072-1.44-0.144-2.232c0.144-0.432,0.288-0.936,0.504-1.44c0.36,0,0.72-0.072,1.08-0.144
		c3.744,3.528,7.488,7.056,11.304,10.584c0,0.36,0,0.72,0.072,1.08c-0.288,0.072-0.648,0.216-1.008,0.36
		C72.144,256.752,72.144,256.752,71.712,256.752L71.712,256.752z M242.064,255.816c-0.144-0.072-0.36-0.216-0.576-0.36
		c0-0.288,0-0.576,0-0.936c0.72-0.648,1.44-1.296,2.16-1.944c3.816-4.752,3.816-4.752,6.696-7.632c0.288,0,0.576,0,0.864-0.072
		c0.216,0.504,0.504,1.008,0.792,1.512c-0.072,0.36-0.144,0.72-0.216,1.152c-2.664,2.7361-5.4,5.472-8.136,8.208
		C243.144,255.744,242.64,255.744,242.064,255.816L242.064,255.816z M154.512,247.176c-2.952-0.144-5.904-0.288-8.928-0.504
		c-1.8-0.288-3.6-0.576-5.472-0.936c-6.984-1.944-6.984-1.944-12.24-3.816c-2.736-1.296-5.472-2.592-8.208-3.888
		c-4.392-2.52-8.784-5.04-13.176-7.632c-1.8-1.296-3.672-2.592-5.544-3.888c-2.952-2.664-5.904-5.4-8.856-8.136
		c-1.584-1.8-3.168-3.672-4.824-5.544c-1.224-1.944-2.52-3.96-3.816-5.976c-1.872-3.672-3.744-7.416-5.688-11.16
		c-1.584-5.832-3.168-11.664-4.752-17.496c-0.288-2.88-0.648-5.76-1.008-8.64c-0.072-2.304-0.144-4.608-0.216-6.984
		c0.936-8.208,1.872-16.416,2.88-24.696c0.504-2.376,1.08-4.752,1.656-7.2c-0.072-0.216-0.144-0.432-0.216-0.72
		c1.944-4.32,5.76-11.304,6.696-13.68c1.296-1.872,2.592-3.816,3.888-5.76c2.664-3.24,5.4-6.552,8.136-9.864
		c1.224-1.224,2.52-2.52,3.816-3.816c4.32-3.168,8.64-6.336,12.96-9.576c2.448-1.224,4.896-2.448,7.344-3.744
		c11.304-4.32,11.304-4.32,11.664-4.68c0.432-1.44,0.432-1.44,1.08-2.16c0.72-0.36,4.104-0.864,7.416-1.8
		c0.792-0.288,1.584-0.648,2.448-1.008c4.536-0.936,4.536-0.936,15.12-2.16c8.136,0,8.136,0,14.4,0.504
		c9.576,1.944,9.576,1.944,16.56,3.816c4.68,2.5201,9.36,5.112,14.112,7.704c1.728,1.224,3.528,2.52,5.328,3.816
		c9.36,8.208,9.36,8.208,10.8,9.864c0.576,0.288,1.224,0.576,1.872,0.936c0.936,1.008,1.872,2.088,2.88,3.168
		c0.288,0.144,0.648,0.288,1.008,0.432c1.872,2.16,3.312,3.168,5.256,5.4c1.8,3.168,1.8,3.168,4.68,6.984
		c1.224,2.592,2.52,5.256,3.816,7.92c1.584,4.32,3.168,8.64,4.824,12.96c0.936,4.608,0.936,4.608,2.376,15.84
		c0,8.64,0,8.64-0.216,10.08c-0.288,0.288-2.16,12.744-4.104,23.04c-0.432,1.728-0.936,3.528-1.44,5.328c0,0.792,0,1.584,0,2.376
		c-1.224,2.592-2.52,5.256-3.816,7.92c-1.872,3.168-3.816,6.336-5.76,9.576c-1.296,1.728-2.592,3.528-3.888,5.328
		c-2.592,2.88-5.184,5.76-7.776,8.64c-1.512,1.296-3.096,2.664-4.68,4.032c-1.872,1.296-3.744,2.592-5.616,3.888
		c-15.336,7.488-15.336,7.488-22.536,11.376c-1.512,0.576-3.024,1.224-4.608,1.872c-1.512,0.288-3.024,0.648-4.536,1.008
		c-1.08,0-2.232,0-3.384,0c-3.24,0.504-6.48,1.08-9.792,1.656C159.84,247.176,157.176,247.176,154.512,247.176L154.512,247.176z
		 M159.552,240.696c-3.816-0.144-7.632-0.288-11.5201-0.504c-2.016-0.288-4.032-0.576-6.0479-0.936
		c-7.416-1.944-7.416-1.944-12.6721-3.8159c-2.736-1.296-5.472-2.592-8.2079-3.888c-4.464-2.52-8.928-5.04-13.392-7.632
		c-1.368-1.008-2.736-2.016-4.104-3.024c-2.088-1.944-4.176-3.888-6.264-5.904c-1.872-2.304-3.816-4.608-5.76-6.912
		c-3.744-6.624-3.744-6.624-7.56-14.256c-1.944-6.048-1.944-6.048-4.824-17.064c-0.936-9.36-0.936-9.36-1.152-15.84
		c1.44-12.456,1.44-12.456,1.872-19.656c0.432-2.7361,0.936-5.472,1.44-8.208c2.52-4.536,5.112-9.072,7.704-13.68
		c1.224-1.872,2.52-3.816,3.816-5.76c3.888-4.536,3.888-4.536,5.76-7.2c1.872-1.944,3.816-3.96,5.76-5.976
		c3.816-2.88,7.632-5.76,11.448-8.64c3.312-1.872,6.696-3.744,10.08-5.688c2.952-1.224,5.904-2.52,8.856-3.816
		c1.8-0.288,3.672-0.576,5.544-0.936c0.864-0.288,1.728-0.648,2.664-1.008c4.752-0.936,4.752-0.936,12.456-1.872
		c4.104,0,8.28,0,12.456,0c6.984,0.936,6.984,0.936,14.184,2.376c1.8,0.648,3.672,1.296,5.544,1.944
		c2.5201,1.224,5.04,2.52,7.632,3.816c2.088,1.224,4.176,2.52,6.264,3.816c7.416,5.7599,7.416,5.7599,11.736,9.72
		c1.512,1.872,3.024,3.816,4.608,5.76c0.936,0.504,1.872,1.008,2.8799,1.584c0.72,0.72,1.44,1.44,2.16,2.16
		c1.872,2.88,3.816,5.832,5.76,8.784c2.16,5.544,4.32,11.16,6.552,16.776c0.648,3.456,1.296,6.912,1.944,10.368
		c0.72,9.072,0.72,9.072,0.72,12.24c-0.936,6.912-1.872,13.896-2.88,20.88c-1.296,4.824-2.592,9.72-3.888,14.616
		c-0.576,1.368-1.224,2.736-1.872,4.104c-1.872,3.024-3.816,6.048-5.76,9.072c-1.2961,1.656-2.592,3.312-3.888,5.0399
		c-2.592,2.808-5.184,5.6161-7.776,8.424c-2.592,1.872-5.256,3.816-7.92,5.76c-15.552,7.56-22.752,11.376-26.136,12.816
		c-1.872,0.144-3.816,0.288-5.76,0.504c-2.52,0.432-5.112,0.936-7.704,1.44C162.72,240.552,161.136,240.624,159.552,240.696
		L159.552,240.696z M283.824,167.76c-0.072-0.432-0.216-0.864-0.36-1.296c0.216-5.544,0-10.584,0.144-13.68
		c0.936,0,1.872-0.072,2.8801-0.144c0.1439,0.072,0.3599,0.216,0.5759,0.36c0.072,3.24,0.144,6.552,0.216,9.864
		c-0.144,1.152-0.288,2.376-0.432,3.6C284.04,167.904,284.04,167.904,283.824,167.76L283.824,167.76z M30.384,166.5359
		c-0.36,0-0.72,0-1.152-0.072c-0.216-2.592-0.432-5.256-0.648-7.92c0-2.2321,0.072-4.464,0.144-6.768
		c0.648-0.144,1.296-0.288,1.944-0.432c0,3.168-0.072,6.336-0.144,9.576c0.144,1.8,0.288,3.672,0.432,5.544
		C30.6,166.68,30.6,166.68,30.384,166.5359L30.384,166.5359z M300.168,165.6c-3.384-0.504-3.384-0.504-4.104-0.864
		c-0.144-1.296-0.36-2.664-0.5759-4.032c0-1.296,0.072-2.664,0.1439-4.032c1.2961-0.144,2.664-0.288,4.032-0.432
		c1.8,0.072,3.672,0.144,5.544,0.216c3.096,0.936,3.096,0.936,5.04,1.944c0.216,0.288,0.504,0.576,0.792,0.864
		c0,0.864,0,1.728,0,2.5919c-0.936,1.728-0.936,1.728-1.872,2.664c-0.6479,0.216-1.296,0.504-2.0159,0.792
		C304.272,165.6,304.272,165.6,300.168,165.6L300.168,165.6z M289.584,165.24c0-3.672,0-7.344,0-11.088c0.288,0,0.648,0,1.008-0.072
		c0.576,0.36,1.224,0.72,1.872,1.152c0.072,0.432,0.216,0.864,0.36,1.368c-0.216,7.704-0.216,7.704-0.504,8.136
		C290.808,165.312,290.808,165.312,289.584,165.24L289.584,165.24z M25.128,165.096c-0.648-0.432-1.368-0.864-2.088-1.296
		c-0.144-0.432-0.288-0.936-0.432-1.44c-0.072-2.448-0.144-4.896-0.288-7.416c0.216-0.216,0.432-0.432,0.648-0.72
		c1.008-0.288,2.016-0.648,3.096-1.008c0.144,3.672,0.36,7.344,0.576,11.088c-0.072,0.216-0.144,0.504-0.288,0.792
		C25.992,165.096,25.56,165.096,25.128,165.096L25.128,165.096z M6.192,164.88c-1.224-0.504-1.224-0.504-1.584-1.08
		c-0.144-0.72-0.288-1.44-0.504-2.16c0.072-0.936,0.144-1.872,0.216-2.88c1.944-2.376,1.944-2.376,3.168-3.384
		c1.8-0.936,1.8-0.936,3.96-1.584c0.936,0,1.872,0,2.88,0c1.8,0.288,3.672,0.648,5.544,1.008c0.288,3.456,0.288,3.456,0.216,7.632
		c-2.88,0.792-5.76,1.584-8.64,2.448C9.72,164.88,7.992,164.88,6.192,164.88L6.192,164.88z M254.304,75.816
		c-1.152-0.936-3.096-3.384-10.512-10.584c0-0.432-0.072-0.864-0.144-1.296c0.576-0.288,1.152-0.576,1.8-0.936
		c0.432,0,0.936-0.072,1.44-0.144c3.24,2.952,6.552,5.976,9.864,9c0,0.36,0,0.792,0.072,1.224c-0.4319,0.792-0.936,1.584-1.44,2.376
		C254.52,75.96,254.52,75.96,254.304,75.816L254.304,75.816z M63.792,74.52c-0.432-0.936-0.432-0.936-0.432-2.16
		c0.936-1.512,1.872-3.024,2.88-4.536c1.584-1.656,3.168-3.312,4.752-4.968c0.576,0.072,1.224,0.144,1.872,0.216
		c0.576,0.288,1.152,0.648,1.728,1.008c0.072,0.288,0.144,0.576,0.288,0.864c-3.384,3.168-6.84,6.336-10.296,9.576
		C64.368,74.52,64.08,74.52,63.792,74.52L63.792,74.52z M257.904,69.84c-1.296-1.296-2.664-2.592-4.032-3.888
		c-0.864-0.576-1.728-1.224-2.664-1.872c-0.648-0.6479-1.296-1.3679-1.944-2.088c0-0.288-0.0721-0.576-0.144-0.936
		c0.72-0.432,1.512-0.864,2.304-1.296c0.432,0,0.936,0,1.44,0c1.728,1.656,3.528,3.312,5.328,5.04
		c0.288,0.504,0.576,1.008,0.936,1.584c0.072,1.44,0.072,1.44-0.36,2.88C258.12,69.984,258.12,69.984,257.904,69.84L257.904,69.84z
		 M62.064,68.616c-0.504-0.648-1.08-1.296-1.656-2.016c0-0.36-0.072-0.792-0.144-1.224c1.584-1.656,3.168-3.312,4.824-5.04
		c0.504,0,1.008-0.072,1.584-0.144c0.504,0.288,1.08,0.648,1.656,1.008c0,0.36,0,0.72,0.072,1.08c-2.952,2.88-5.04,5.544-6.12,6.48
		C62.208,68.76,62.136,68.688,62.064,68.616L62.064,68.616z M58.032,63.792c-0.792-0.288-1.584-0.576-2.448-0.936
		c-0.936-0.648-1.872-1.296-2.88-1.944c-0.936-1.1519-1.872-2.304-2.88-3.456c-0.288-0.72-0.576-1.44-0.864-2.16
		c-0.072-1.08-0.144-2.16-0.216-3.312c0.936-1.944,0.936-1.944,2.376-3.888c0.864-0.288,1.728-0.576,2.592-0.864
		c0.576,0.072,1.224,0.144,1.872,0.288c0.936,0.576,1.872,1.224,2.88,1.872c1.008,0.936,2.088,1.872,3.168,2.88
		c0.576,1.728,1.152,3.456,1.728,5.184c-0.072,0.288-0.144,0.648-0.216,1.008C59.328,63,59.328,63,58.248,63.936
		C58.176,63.936,58.104,63.864,58.032,63.792L58.032,63.792z M259.632,62.856c-1.44-1.224-2.952-2.448-4.464-3.672
		c0-0.288,0-0.648,0-1.008c0.936-0.936,1.872-2.88,6.696-8.64c0.432-0.288,0.864-0.576,1.368-0.864c2.592-0.216,2.592-0.216,5.04,0
		c0.3599,0.288,0.72,0.648,1.152,1.008c0.36,0.7201,0.72,1.512,1.08,2.304c0,1.008,0,2.016,0,3.096
		c-0.648,0.936-1.296,1.872-1.944,2.88c-0.792,0.648-1.584,1.296-2.376,1.944c-4.6801,1.728-4.6801,1.728-5.4,2.232
		c-0.144,0.216-0.288,0.432-0.432,0.72C260.136,62.856,259.92,62.856,259.632,62.856L259.632,62.856z M166.032,33.336
		c-4.5359-0.216-9.144-0.504-13.752-0.7921c0.144-2.8799,0.144-2.8799,0.504-3.312c6.984-0.216,6.984-0.216,13.464,0
		c1.296,3.528,1.296,3.528,1.224,4.104C167.04,33.336,166.536,33.336,166.032,33.336L166.032,33.336z M157.824,26.64
		c-1.44,0-2.88-0.072-4.32-0.144c0.36-2.592,0.36-2.592,0.72-3.24c2.448-0.072,4.968-0.144,7.488-0.216
		c1.656,0.432,1.656,0.432,2.376,1.08c0.36,0.72,0.36,0.72,0.576,2.376C162.432,26.496,160.128,26.568,157.824,26.64L157.824,26.64z
		 M159.264,20.376c-1.152-0.072-2.304-0.216-3.456-0.36c-0.504-2.16-0.504-2.16-1.728-5.04c-0.072-2.592-0.144-5.2561-0.216-7.92
		c0.36-0.4319,0.72-0.936,1.08-1.4401c1.152-0.504,2.376-1.0079,3.6-1.584c0.4319,0,0.936,0,1.44,0
		c0.936,0.4321,1.872,0.936,2.88,1.4401c1.008,1.0079,2.016,2.0159,3.024,3.024c0.432,1.944,0.432,1.944,0.432,5.76
		c-0.288,0.7919-0.576,1.584-0.936,2.448c-0.792,1.152-1.584,2.376-2.376,3.6C161.784,20.304,160.56,20.304,159.264,20.376
		L159.264,20.376z"/>
</g>
</svg>
