<?xml version="1.0" encoding="utf-8"?>
<!-- Generator: Adobe Illustrator 21.1.0, SVG Export Plug-In . SVG Version: 6.00 Build 0)  -->
<svg version="1.1" id="Swor" xmlns="http://www.w3.org/2000/svg" xmlns:xlink="http://www.w3.org/1999/xlink" x="0px" y="0px"
	 viewBox="0 0 376.2 370.584" enable-background="new 0 0 376.2 370.584" xml:space="preserve">
<g>
	<path fill-rule="evenodd" clip-rule="evenodd" d="M132.696,370.584c-0.72-0.504-0.72-0.504-6.696-2.448
		c-3.096-0.432-4.32-0.936-7.704-1.44c-1.44-0.576-2.88-1.224-4.32-1.872c-1.008-0.648-2.016-1.296-3.096-1.944
		c-1.512-1.224-3.024-2.52-4.536-3.816c-1.944-2.448-2.88-4.104-4.824-6.264c-1.224-1.944-2.52-3.888-3.816-5.904
		c-2.52-4.608-5.04-9.216-7.632-13.896c-0.936-2.4481-1.872-4.8961-2.88-7.416c-2.52-5.328-5.04-10.656-7.632-16.056
		c-0.792-1.08-1.584-2.232-2.448-3.384c-1.44-3.096-2.376-5.976-2.88-6.696c-0.144-0.72-0.288-1.44-0.432-2.16
		c-1.296-2.952-2.592-5.904-3.888-8.928c-1.224-4.104-2.52-8.28-3.816-12.456c-1.08-2.304-2.232-4.608-3.384-6.984
		c-1.872-2.592-4.032-4.752-5.976-7.2c-2.16-2.016-4.32-4.104-6.48-6.192c-0.936-1.296-1.872-2.592-2.88-3.888
		c-1.872-3.672-3.816-7.344-5.76-11.016c-0.432-0.648-0.936-1.296-1.44-1.944c-1.512-0.144-3.096-0.288-4.68-0.432
		c-0.144-0.72-0.144-0.72,0.36-1.728c0.936-0.576,1.872-1.224,2.88-1.872c-0.072-0.648-0.144-1.296-0.216-1.944
		c-0.648-1.44-1.296-2.88-1.944-4.32c-0.792-0.36-0.792-0.36-3.672-0.36c-0.216-0.216-0.432-0.432-0.72-0.648
		c0.072-0.36,0.144-0.72,0.216-1.152c1.224-0.36,1.224-0.36,2.664-1.368c0.072-0.792,0.072-0.792-1.44-4.896
		c-1.512-0.216-3.024-0.432-4.608-0.72c0-0.216-0.072-0.432-0.144-0.72c0.144-0.216,0.288-0.432,0.504-0.72
		c0.936-0.432,1.872-0.864,2.808-1.2961c0-0.504,0-1.008,0.072-1.584c-0.432-2.304-0.936-4.608-1.44-6.912
		c-0.072-4.536-0.144-9.0721-0.216-13.68c-0.072-0.144-0.216-0.288-0.36-0.432c-3.6-0.432-3.6-0.432-3.96-0.792
		c0-0.504,0.072-1.008,0.144-1.584c3.6-0.936,3.6-0.936,4.176-1.2961c0.144-2.952,0.36-5.904,0.576-8.856
		c-1.224-0.216-2.52-0.432-3.816-0.72c0-0.432-0.072-0.936-0.144-1.44c0.432-0.288,0.864-0.576,1.368-0.864
		c1.008-0.288,2.088-0.576,3.168-0.864c0.288-0.72,0.504-6.696,0.288-8.352c-0.576-0.432-0.576-0.432-3.744-0.864
		c-0.144-0.216-0.288-0.432-0.432-0.648c0.144-0.216,0.288-0.504,0.432-0.792c3.888-1.44,3.888-1.44,4.104-1.8
		c-0.36-0.72-0.36-0.72-1.368-11.016c-0.072-3.744-0.144-7.488-0.216-11.304c-0.288-1.44-0.576-2.88-0.936-4.32
		c-0.936-2.88-1.872-5.76-2.88-8.64c-0.648-3.24-1.296-6.552-1.944-9.864c-0.648-1.944-1.296-3.96-1.944-5.976
		c-1.224-2.016-2.448-4.032-3.672-6.048c-0.72,0-1.44,0.072-2.16,0.144c-2.664,0.936-2.664,0.936-3.816,0.936
		c-1.296-0.576-2.664-1.1519-4.032-1.728c0.072-0.432,0.144-0.936,0.288-1.44c0.504-0.288,1.008-0.648,1.512-1.008
		c5.112-1.8,5.112-1.8,5.328-2.16c-1.224-2.304-2.52-4.608-3.816-6.984c-1.008-2.952-2.088-5.904-3.168-8.856
		c-1.8,0-3.6-0.072-5.472-0.144C0.216,84.744,0.216,84.744,0,84.3839c0.144-0.216,0.288-0.432,0.504-0.72
		c0.72-0.36,1.44-0.72,2.16-1.08c1.872-0.432,3.744-0.864,5.616-1.296c0.072-2.376,0.144-4.752,0.216-7.2
		c0.432-1.512,0.936-3.024,1.44-4.608c0.072-0.864,0.144-1.728,0.216-2.592C8.496,66.456,6.768,66.024,5.04,65.52
		c-1.296-0.648-2.592-1.296-3.888-2.0161c0-0.2879,0-0.5759,0-0.936c1.728-0.864,1.728-0.864,3.888-1.368
		c3.096,0.2161,4.824,0.7201,7.2,0.936c1.224-2.0159,2.448-4.0319,3.672-6.048c3.888-4.824,6.768-7.92,9.144-11.088
		c-0.072-0.288-0.144-0.576-0.216-0.936c-1.008-0.936-1.008-0.936-2.88-4.104c0.072-0.432,0.216-0.936,0.36-1.44
		c1.944-0.36,1.944-0.36,5.04-0.36c0.432,0.648,0.936,1.296,1.44,2.016c0.36,0,0.792,0.072,1.224,0.144
		c1.152-0.6479,2.376-1.296,3.6-1.944c2.592-0.936,5.256-1.8721,7.92-2.88c0.576-0.792,1.152-1.584,1.728-2.448
		c0.576-0.36,1.224-0.72,1.872-1.152c0.72-0.0721,1.44-0.144,2.16-0.2161c1.656,0.504,1.656,0.504,4.032,0.504
		c2.088-0.6479,4.176-1.296,6.264-1.944c2.952-0.36,5.904-0.7921,8.856-1.224c3.024,0,6.048,0,9.144,0
		c1.8-0.288,3.672-0.576,5.544-0.936c4.752-0.216,5.76,0,12.96,0.216c0.792,0.144,1.584,0.288,2.376,0.504c2.376,0,4.752,0,7.2,0
		c2.592,0.216,5.256,0.432,7.92,0.72c4.536-0.504,4.536-0.504,25.2-1.44c4.248-0.792,8.496-1.584,12.744-2.376
		c0.072-0.072,0.144-0.216,0.216-0.36c-0.288-0.36-0.576-0.7201-0.936-1.0801c-1.224-0.504-1.224-0.504-4.824-3.3839
		c-0.792-0.936-1.584-1.8721-2.376-2.88c0-0.432,0-0.8641-0.0721-1.296c0.36-0.216,0.7921-0.432,1.224-0.6481
		c2.16,0,2.16,0,3.888,0.504c0.576,0.7921,1.224,1.584,1.872,2.376c0.936,0.7921,1.872,1.584,2.88,2.448
		c1.008,0.504,2.088,1.0801,3.168,1.6561c1.656-0.2161,1.656-0.2161,4.752-1.2241c0.936-0.5759,1.872-1.2239,2.88-1.8719
		c0-0.288,0.072-0.576,0.144-0.864c-2.448-1.8719-2.448-1.8719-3.384-3.0959c-0.072-0.432-0.144-0.936-0.216-1.44
		c0.504-0.216,1.008-0.432,1.584-0.648c1.44,0,1.44,0,3.096,0.504c1.224,1.2239,1.224,1.2239,2.88,2.376
		c0.504-0.072,1.08-0.144,1.656-0.2161c2.664-1.944,2.664-1.944,5.04-4.1039c3.888-4.68,3.888-4.68,4.176-5.3281
		C177.12,6.84,177.048,6.48,176.976,6.12c-4.32-3.816-4.32-3.816-4.824-4.536c0-0.504,0.072-1.008,0.144-1.584
		c0.792,0,1.584,0,2.448,0c1.224,0.648,2.52,1.296,3.816,1.944c4.824,3.816,10.584,7.632,14.616,11.016
		c1.728,0.936,7.2,4.824,8.208,5.256c0.432,0.504,9.36,6.264,14.616,10.08c2.304,2.0161,4.608,4.032,6.984,6.12
		c3.816,4.6801,3.816,4.6801,5.76,7.704c8.856,0.1439,8.856,0.1439,13.176,0.5759c1.152,0.2881,2.376,0.6481,3.6,1.0081
		c2.808,1.224,5.616,2.52,8.424,3.816c3.816,2.52,7.632,5.112,11.52,7.704c3.024,1.2239,6.048,2.5199,9.072,3.816
		c0.432,0.648,0.936,1.296,1.44,2.0159c1.368,0,2.736,0.072,4.104,0.144c5.328-0.4319,10.656-0.936,16.056-1.4399
		c33.12,0,33.12,0,40.824,0.216c15.12,1.944,15.12,1.944,17.064,2.4481c6.912,0,6.912,0,11.736-0.504
		c2.808,0.072,5.616,0.144,8.424,0.2159c1.44,0.504,1.44,0.504,1.8719,1.0081c0,0.4319,0.072,0.864,0.144,1.296
		c-0.144,0.432-0.288,0.936-0.504,1.44c-0.576,0.4321-1.152,0.936-1.7999,1.44c-2.664,0-5.4001-0.072-8.136-0.144
		c-12.672,0.864-25.416,1.728-38.16,2.664c-2.52,0.648-5.112,1.296-7.704,1.944c-3.24,1.2239-6.48,2.52-9.792,3.816
		c-0.936,0.144-1.872,0.288-2.88,0.504c-2.448,1.44-3.888,1.872-5.328,2.88c-3.24,1.4401-6.48,2.88-9.792,4.32
		c-12.528,3.816-12.528,3.816-20.664,6.624c0.072,0.288,0.144,0.648,0.216,1.008c1.44,0.504,1.44,0.504,3.6,1.944
		c0.144,0.288,0.36,0.576,0.576,0.864c2.7361,1.224,5.544,2.448,8.352,3.672c0.864,0.648,1.728,1.296,2.592,1.944
		c0.144,0.36,0.36,0.72,0.576,1.08c1.224,0.576,2.448,1.152,3.744,1.8c1.512,1.152,3.024,2.376,4.608,3.6
		c0.288,0.648,0.288,2.304,0.576,3.24c-0.504,1.944-0.504,1.944-0.864,2.304c-2.376-0.576-4.752-1.152-7.2-1.728
		c-1.944-0.216-3.96-0.432-5.976-0.72c-2.304,0-4.608,0-6.984,0c-5.4,0.36-10.8,0.792-16.272,1.224
		c-3.24-0.072-6.552-0.144-9.864-0.216c-1.656,0.936-4.104,2.88-7.2,4.752c-2.376,1.944-2.376,1.944-5.544,3.888
		c-0.864,0.144-1.728,0.288-2.592,0.432c-1.584-0.072-3.168-0.144-4.824-0.216c-1.8-0.648-3.672-1.296-5.544-1.944
		c-5.04-0.432-5.04-0.432-6.192-0.216c-0.936,0.648-1.872,1.296-2.88,1.944c-0.7921,0.144-1.584,0.288-2.448,0.432
		c-0.432,0.288-0.936,0.648-1.44,1.008c-3.312,1.224-6.696,2.52-10.08,3.816c-7.272,3.168-14.544,6.336-21.816,9.576
		c-3.384,1.944-7.92,3.888-15.336,7.704c-2.88,1.224-5.76,2.52-8.64,3.816c-2.304,1.2961-4.608,2.592-6.984,3.888
		c-6.84,3.168-13.752,6.336-20.664,9.576c-1.944,1.08-3.96,2.232-5.976,3.384c-1.944,0.432-1.944,0.432-4.824,0.576
		c-0.072,0.576-0.216,1.152-0.36,1.728c-1.512,0.288-1.512,0.288-2.52,0.792c-0.288,0.432-0.576,0.936-0.936,1.44
		c-0.504,0.072-1.08,0.144-1.656,0.216c-0.288,0.216-0.648,0.432-1.008,0.648c-0.072,0.432-0.216,0.936-0.36,1.44
		c-0.864,0.216-1.8,0.504-2.736,0.792c-0.288,0.864-0.576,1.728-0.864,2.592c-0.792,0.2159-1.656,0.504-2.52,0.792
		c-0.864,1.584-0.864,1.584-1.296,3.528c-0.36,0.072-0.72,0.144-1.08,0.288c-0.864,1.584-0.864,1.584-1.44,2.088
		c-0.36,0.072-0.792,0.216-1.224,0.36c-0.36,0.864-0.72,1.728-1.152,2.592c-0.36,0.144-0.792,0.288-1.224,0.432
		c-0.36,0.576-0.72,1.224-1.08,1.872c-0.504,2.448-0.504,2.448-0.864,2.664c0,0.792-0.072,1.584-0.144,2.376
		c0.648,4.536,1.296,9.0721,1.944,13.68c1.224,5.616,2.52,11.232,3.816,16.848c4.824,16.992,5.76,21.6,6.768,24.696
		c0.936,5.976,1.872,9.576,3.816,23.256c0.144,5.184,0.288,10.368,0.504,15.624c-0.288,18.216-0.288,18.216,0,29.304
		c0.576,3.168,1.224,6.336,1.872,9.576c0.936,3.24,1.872,6.552,2.88,9.864c0.648,1.584,1.296,3.168,1.944,4.752
		c7.704,13.968,7.704,13.968,9.576,16.848c3.6,3.888,7.272,7.776,10.944,11.736c0.144,0.36,0.36,0.792,0.576,1.224
		c-0.216,0.432-0.432,0.936-0.72,1.44c-2.16,1.872-2.16,1.872-3.672,2.736C133.56,370.584,133.128,370.584,132.696,370.584
		L132.696,370.584z M121.68,361.224c-1.656-0.648-3.312-1.296-5.04-1.944c-2.88-1.944-2.88-1.944-5.976-4.68
		c-1.944-2.376-2.88-3.96-4.824-6.336c-3.816-5.904-3.816-5.904-8.568-14.04c-3.816-9.144-3.816-9.144-4.176-10.8
		c0.216,0.072,0.432,0.144,0.72,0.216c1.944,2.736,1.944,2.736,7.2,8.784c0.792,0.72,1.584,1.44,2.448,2.16
		c0.864,0.288,1.728,0.576,2.592,0.936c1.368,0,2.736,0,4.104,0c1.224,2.664,2.448,5.328,3.672,8.064
		c1.872,3.312,3.816,6.696,5.76,10.08c3.888,5.544,3.888,5.544,4.824,6.48c0.072,0.288,0.144,0.576,0.216,0.936
		C123.696,361.08,122.688,361.152,121.68,361.224L121.68,361.224z M107.784,330.264c-1.584-1.44-3.168-2.88-4.824-4.32
		c-1.224-1.656-2.52-3.312-3.816-5.0399c-3.888-6.84-3.888-6.84-7.704-12.528c-3.816-4.536-3.816-4.536-7.704-9.936
		c-1.296-2.304-2.664-4.608-4.032-6.9839c0.216,0,0.432,0,0.72-0.0721c0.936,0.648,1.872,1.2961,2.88,2.016
		c0.288,0.36,0.576,0.792,0.936,1.224c2.088,1.296,4.176,2.592,6.264,3.96c4.32,1.872,4.32,1.872,6.48,2.376
		c1.224,0.072,2.52,0.144,3.816,0.216c2.88-0.936,2.88-0.936,3.6-0.7921c0.216,5.688,0.504,11.376,0.792,17.064
		c2.88,11.736,2.88,11.736,2.88,12.672C108,330.1199,107.928,330.192,107.784,330.264L107.784,330.264z M99.36,297.576
		c-3.816-1.872-3.816-1.872-8.64-4.752c-2.16-2.016-4.32-4.032-6.48-6.048c-1.224-1.728-2.52-3.456-3.816-5.256
		c-1.944-3.744-1.944-3.744-2.808-6.12c-0.936-4.536-0.936-4.536-1.656-10.08c2.376-2.376,2.376-2.376,7.2-6.48
		c1.224-1.512,2.52-3.024,3.816-4.536c7.704-12.024,7.704-12.024,10.008-16.344c0.216,0,0.504,0,0.792,0
		c0.864,3.024,1.728,6.048,2.664,9.144c0.432,4.104,0.432,4.104,0.36,6.12c-0.936,0-1.872,0-2.88,0
		c-2.376,1.872-6.48,5.76-9.144,7.632c-3.312,2.88-3.312,2.88-7.416,5.76c-0.792,0.288-1.584,0.648-2.376,1.008
		c-0.36,0.36-0.792,0.72-1.224,1.152c-0.072,0.36-0.144,0.72-0.216,1.152c1.872,0.288,1.872,0.288,2.88,0.792
		c0.864,0,1.728,0,2.592,0c2.088-1.224,4.176-2.52,6.264-3.816c3.24-2.808,6.552-5.616,9.864-8.424
		c0.576-0.792,1.224-1.584,1.872-2.376c0.288,0,0.576,0.072,0.864,0.144c1.872,11.016,1.872,11.016,2.376,15.336
		c0.216,12.024,0.504,15.336,0.504,23.976c-0.072,0.288-0.216,0.576-0.36,0.864c-0.864,0-1.728,0-2.664,0
		c-0.36,0.288-0.72,0.576-1.152,0.936C100.224,297.4319,99.792,297.5039,99.36,297.576L99.36,297.576z M76.32,257.976
		c0-0.288-0.072-0.648-0.144-1.008c3.816-14.4,5.76-23.328,7.704-30.528c0.576-1.872,1.224-3.816,1.872-5.76
		c0.648-1.296,1.296-2.664,1.944-4.032c0.936-1.368,1.872-2.808,2.808-4.248c0.216,0,0.504,0.072,0.792,0.144
		c3.816,16.056,5.256,21.096,5.256,22.104c-0.36,0.216-1.008-0.144-2.736,0.072c-0.36,0.2881-0.72,0.576-1.152,0.936
		c-1.008,1.872-2.016,3.744-3.024,5.688c-3.888,5.76-3.888,5.76-5.76,9.144c-1.656,1.944-3.312,3.96-5.04,5.976
		C76.536,258.12,76.536,258.12,76.32,257.976L76.32,257.976z M65.304,251.856c-2.16-2.736-2.16-2.736-2.88-3.312
		c-0.288-0.864-0.576-1.728-0.864-2.664c-0.936-1.296-1.872-2.664-2.88-4.032c0-0.864,0-1.728,0-2.664
		c-0.288-0.288-0.648-0.576-1.008-0.936c-0.144-0.864-0.288-1.728-0.432-2.664c-0.792-1.512-1.584-3.024-2.448-4.536
		c-0.432-2.88-0.936-4.104-1.44-6.768c-0.432-0.864-0.936-1.728-1.44-2.592c0.288-1.728,0.288-1.728,0-2.448
		c-0.72-0.432-0.72-0.432-1.152-1.44c-0.432-2.592-0.936-5.256-1.44-7.92c0-1.08,0-2.16,0-3.312
		c-0.288-2.016-0.648-4.032-1.008-6.048c0-3.816,0-7.632,0-11.5201c0.216-1.512,0.432-3.024,0.72-4.536
		c0.36-0.36,0.792-0.792,1.224-1.224c0.936-1.872,1.44-3.816,4.824-10.512c0.576-2.088,1.224-4.176,1.872-6.264
		c1.944-4.104,1.944-4.104,3.888-7.416c0.576-1.512,1.224-3.024,1.872-4.608c0.792-1.296,1.584-2.664,2.448-4.032
		c1.008-0.144,2.016-0.288,3.024-0.432c0.72-0.576,1.152-1.512,1.656-1.872c0.648,0,1.296,0,1.944,0
		c0.216,0.144,0.432,0.288,0.72,0.432c1.44-0.072,2.88-0.144,4.32-0.216c0.864-0.432,1.728-0.936,2.592-1.44
		c0.144-0.216,0.288-0.432,0.504-0.72c0.432-0.144,0.936-0.288,1.44-0.504c0.36-0.792,0.36-0.792,0.36-2.448
		c-0.144-0.576-0.288-1.152-0.504-1.728c0-0.576,0.072-1.152,0.144-1.8c0.504-0.144,1.08-0.288,1.656-0.504
		c0.432-0.792,0.936-1.584,1.44-2.376c1.224,0.216,1.224,0.216,2.664,0c0.504-0.576,0.504-0.576,1.224-0.72
		c2.232,2.304,2.736,3.24,3.888,4.248c1.224,0.072,2.448,0.144,3.744,0.288c0.288-0.432,0.648-0.864,1.008-1.296
		c0.144-0.792,0.36-1.584,0.576-2.376c0-0.864,0-1.728,0-2.664c-0.288-1.008-0.648-2.016-1.008-3.096
		c-0.072-1.152-0.144-2.376-0.216-3.6c0.792-2.376,1.584-4.752,2.376-7.2c0.504-0.504,1.008-1.008,1.584-1.584
		c1.008,0.216,1.008,0.216,1.224,0.504c1.368,0.072,2.736,0.144,4.104,0.216c0.504-0.648,1.08-1.296,1.656-1.944
		c0.432,0,0.936,0,1.44,0c0.936,0.504,1.872,1.008,2.88,1.584c3.096,0.576,3.096,0.576,3.816,0.36
		c0.288-0.432,0.576-0.864,0.864-1.296c0.432-2.376,0.432-2.376,0.936-3.6c0.144-2.088,0.288-4.176,0.504-6.264
		c0.936-1.44,1.872-3.6,2.376-4.032c0.144-0.288,0.288-0.648,0.504-1.008c0.72-0.072,1.512-0.216,2.304-0.36
		c0.288-0.288,0.576-0.576,0.936-0.936c1.008,0.072,2.016,0.144,3.096,0.216c0.36-0.504,0.792-1.008,1.224-1.584
		c0.36,0,0.792,0,1.224-0.072c1.08,1.008,2.16,2.016,3.312,3.096c1.368,0.072,2.736,0.144,4.104,0.216
		c0.288-0.288,0.576-0.576,0.936-0.936c0.36-1.512,0.864-2.232,1.8-5.616c0.936-1.224,0.936-1.224,1.08-1.944
		c0.7921-0.072,1.584-0.216,2.4481-0.36c0.36-0.36,0.72-0.792,1.152-1.224c0.36-2.232,0.36-2.232,1.224-4.32
		c4.536-0.216,4.824,0,6.48-0.216c0.36-0.36,0.792-0.792,1.224-1.224c0.216,0,0.432,0,0.72,0c0.288,0.2881,0.576,0.648,0.936,1.0081
		c0.792,0.144,1.584,0.288,2.376,0.4319c1.44-0.216,1.44-0.216,3.168-1.1519c2.16-2.664,2.16-2.664,3.312-4.6801
		c0.936-0.216,1.872-0.4319,2.88-0.648c0.288-0.36,0.648-0.72,1.008-1.1519c0.792-2.016,0.792-2.016,1.656-3.168
		c0.792-0.072,1.584-0.144,2.376-0.216c0.72-1.08,1.44-2.16,2.16-3.24c0.216,0,0.432-0.072,0.72-0.144
		c0.36,0.36,0.792,0.792,1.224,1.224c0.432,1.44,0.864,2.952,1.296,4.464c0.504,0.504,1.008,1.008,1.584,1.512
		c0.72,0.144,1.44,0.288,2.16,0.504c1.224-0.216,1.224-0.216,2.16-0.936c0.864,0,1.728,0,2.664,0c1.152-1.08,1.152-1.08,1.512-1.8
		c0.0721-1.224,0.144-2.5201,0.216-3.816c0.216-0.504,0.432-1.008,0.648-1.5119c0.288,0,0.576,0,0.936,0
		c0.648,0.5039,1.296,1.008,1.944,1.584c0.864,0.144,1.728,0.288,2.664,0.504c1.152-0.288,1.152-0.288,1.656-0.72
		c0.216-0.6479,0.504-1.296,0.792-2.016c1.872-1.512,3.312-2.088,4.032-2.6639c0.144-0.2881,0.288-0.576,0.432-0.8641
		c0.936-0.2159,1.872-0.432,2.88-0.72c1.224-1.224,1.224-1.224,2.664-1.944c0.72,0,1.44,0,2.16,0
		c0.216,0.216,0.432,0.432,0.72,0.648c-2.376,2.0159-2.376,2.0159-4.32,4.176c-0.648,0.864-1.296,1.8-1.944,2.736
		c-0.288,0.864-0.576,1.728-0.864,2.664c0,0.792,0,1.584,0,2.448c0.144,0.432,0.288,0.936,0.504,1.44
		c0.576,0.648,1.152,1.296,1.8,2.016c0.288,0.072,0.576,0.216,0.864,0.36c0,0.288,0,0.576,0,0.936
		c-0.288,0.432-0.648,0.936-1.008,1.44c-0.216,0-0.504,0.072-0.792,0.144c-0.648-0.792-1.296-1.584-1.944-2.448
		c-0.504-0.216-1.08-0.432-1.656-0.72c-2.16-0.0721-4.32-0.144-6.48-0.2161c-0.216,0.36-0.432,0.792-0.72,1.224
		c-0.36,0-0.792,0.072-1.224,0.144c-0.216,0.504-0.432,1.0081-0.72,1.512c-0.864,0.072-1.728,0.216-2.592,0.36
		c-0.432,0.72-0.432,0.72-0.72,3.024c-1.224,0-1.224,0-5.76-1.0081c-0.864-0.576-1.728-1.224-2.664-1.8719
		c-3.384-0.2881-3.384-0.2881-4.32-0.144c-0.072,0.216-0.216,0.432-0.36,0.72c0.216,1.584,0.432,3.168,0.72,4.824
		c-0.144,0.072-0.36,0.216-0.576,0.36c-3.6,0-3.888,0.216-6.264,0.36c-0.072,0.864-0.216,1.728-0.36,2.664
		c-0.504,0.072-1.008,0.144-1.584,0.288c-0.288,0.432-0.576,0.936-0.936,1.44c-1.152,0.072-2.376,0.144-3.6,0.288
		c-0.504,0.792-0.504,0.792-0.864,2.304c-1.152,0-2.304,0-3.456,0.072c-0.864,1.368-0.864,1.368-1.656,3.816
		c-0.72,0.288-0.72,0.288-3.384,0.288c-0.288,0.432-0.576,0.936-0.936,1.44c-0.36,0.144-0.792,0.288-1.224,0.432
		c-1.152,0-2.376,0-3.6,0c-0.288,0.72-0.576,1.5121-0.864,2.304c-0.864,0.072-1.728,0.144-2.664,0.288
		c-0.144,0.288-0.288,0.576-0.432,0.936c-0.288,0.144-0.576,0.288-0.864,0.504c-1.008,0-2.016,0-3.096-0.072
		c-0.504,0.864-0.504,0.864-1.44,1.368c-1.152,0-2.376,0-3.6,0c-0.36,1.008-0.792,2.016-1.224,3.096c-0.576,0-1.224,0-1.872,0
		c-0.432,0.648-0.936,1.296-1.44,1.944c-0.936,0.072-1.872,0.216-2.88,0.36c-0.504,0.792-0.504,0.792-1.224,1.296
		c-0.648,0-1.296,0-1.944,0c-0.36,0.504-0.72,1.008-1.08,1.584c-0.504,1.944-0.504,1.944-0.936,2.664
		c-0.36,0.072-0.72,0.144-1.08,0.288c-0.36,0.864-0.36,0.864-0.144,1.872c1.008,0.792,2.016,1.584,3.096,2.376
		c0.936,0.072,1.872,0.216,2.808,0.36c0.432-0.288,0.936-0.648,1.44-1.008c0.36-0.576,0.792-1.152,1.224-1.8
		c3.6-0.792,3.6-0.792,5.976-1.8c0.36-0.504,0.792-1.008,1.224-1.512c1.008-0.216,2.016-0.432,3.096-0.648
		c0.792-0.792,0.792-0.792,0.936-1.512c1.08,0,2.232-0.072,3.384-0.144c0.36-0.216,0.72-0.504,1.08-0.792
		c0-0.2881,0.072-0.648,0.144-1.0081c1.224,0,2.52,0.0721,3.816,0.144c0.36-0.288,0.792-0.648,1.224-1.008
		c2.52-0.072,5.04-0.144,7.632-0.216c0.36-0.216,0.72-0.504,1.08-0.792c0.072-0.864,0.216-1.728,0.36-2.664
		c1.224,0.072,1.728,0.36,4.104,0.36c0.288-0.144,0.576-0.288,0.936-0.504c0.072-0.36,0.144-0.72,0.288-1.08
		c1.152,0.36,1.152,0.36,3.312,2.016c2.88,0,4.32-0.432,6.264-0.432c0.36-0.36,0.792-0.72,1.224-1.08
		c0.288-0.864,0.576-1.728,0.936-2.664c2.88-0.144,3.096-0.36,4.536-0.144c0.288,0.288,0.288,0.288,3.168,0.504
		c0.432-0.576,0.864-1.1519,1.296-1.8c0-0.792,0.072-1.584,0.144-2.376c2.592,0.36,2.592,0.36,5.256,0.36
		c0.792-0.864,0.792-0.864,1.296-2.016c0-0.432,0.072-0.936,0.144-1.44c1.08,0,2.232-0.072,3.384-0.144
		c0.432-0.576,0.864-1.152,1.296-1.8c0-0.288,0.072-0.576,0.144-0.936c0.504,0,1.08-0.0721,1.656-0.144
		c0.216-0.288,0.432-0.648,0.72-1.008c0.432-0.072,0.936-0.144,1.44-0.216c0.144-0.288,0.288-0.576,0.504-0.864
		c0.792-0.504,1.584-1.008,2.376-1.512c0.72-0.072,1.44-0.144,2.16-0.288c0.72,1.08,1.44,2.16,2.232,3.312c0,0.288,0,0.576,0,0.936
		c-0.576,0.792-1.224,1.584-1.872,2.376c-0.144,0.576-0.288,1.152-0.504,1.728c0,0.864,0,1.728,0,2.592
		c0.7921,1.44,1.584,2.88,2.376,4.32c0,0.288,0,0.576-0.072,0.864c-0.648,0-1.296,0-1.944,0c-1.152-0.504-1.152-0.504-3.6-0.72
		c-0.144,0.144-0.36,0.36-0.576,0.576c0,1.008,0.216,1.224,0.144,2.016c-1.944,0.288-1.944,0.288-5.544,0
		c-0.504,0.504-0.504,0.504-0.864,1.872c-5.112,1.296-5.112,1.296-5.544,1.656c0,0.4319,0,0.9359,0,1.44
		c-0.432,0.504-0.432,0.504-10.152,4.68c-0.864,0.216-1.728,0.432-2.664,0.72c-2.16,0-3.312-0.288-7.2,0
		c-0.144,0.072-0.36,0.216-0.576,0.36c0,0.504,0,1.08,0,1.656c0.216,0.288,0.432,0.648,0.72,1.008
		c-1.0081,0.936-1.0081,0.936-1.44,1.872c-2.736,0.432-5.472,0.864-8.28,1.296c-1.44,1.584-1.44,1.584-2.088,3.024
		c-1.728,0.36-1.728,0.36-2.736,0.864c-0.072,0.288-0.216,0.576-0.36,0.864c-0.792,0.288-0.792,0.288-2.016,0.288
		c-0.36,0.288-0.792,0.648-1.224,1.008c-1.512-0.072-3.024-0.144-4.536-0.288c-0.504,0.576-1.008,1.224-1.584,1.872
		c-0.216,0.792-0.504,1.584-0.792,2.448c-0.648,0.144-1.296,0.288-1.944,0.504c-1.0081,0-2.016,0-3.096,0
		c-0.288,0.576-0.576,1.152-0.864,1.8c-2.304,0.36-3.024,0.864-4.464,1.08c-0.864-0.072-1.728-0.144-2.592-0.216
		c-0.504,0.576-0.504,0.576-1.224,3.096c-1.008,0.0721-2.016,0.144-3.096,0.216c-0.288,0.36-0.648,0.792-1.008,1.224
		c-0.72,0.144-1.44,0.36-2.16,0.576c-0.36,0.288-0.72,0.576-1.152,0.864c-0.432,0.648-0.864,1.368-1.368,2.088
		c-1.152,0-2.304-0.072-3.456-0.144c-0.144,0.216-0.288,0.432-0.504,0.72c-0.72,0.288-1.44,0.576-2.16,0.936
		c-0.576,0.936-1.152,1.872-1.8,2.808c-1.512,0.792-1.512,0.792-2.16,1.44c-0.432,0.72-0.864,1.44-1.296,2.232
		c-0.936,0.216-1.872,0.432-2.88,0.72c-0.504,0.648-1.08,1.296-1.656,1.944c-0.576,0.144-1.152,0.288-1.728,0.432
		c-0.432,0.7921-0.936,1.584-1.44,2.448c-0.648,0.36-1.296,0.72-1.944,1.08c-0.648,1.584-1.296,3.168-2.016,4.824
		c-1.296,0.576-1.8,1.296-3.456,2.232c-0.432,1.224-0.864,2.448-1.368,3.744c-0.144,0.072-0.36,0.216-0.576,0.36
		c-0.288-0.072-0.576-0.216-0.864-0.36c-0.72-2.88-1.44-5.76-2.16-8.64c-0.072-2.664-0.144-5.328-0.288-8.064
		c-1.08-0.072-2.232-0.144-3.384-0.216c-1.224,0.432-1.224,0.432-1.656,0.936c-0.144,0.936-0.288,1.872-0.432,2.808
		c-0.288,0.504-0.576,1.08-0.936,1.656c0.072,1.224,0.144,2.52,0.216,3.816c-0.576,1.8-1.224,3.672-1.872,5.544
		c-3.888,8.856-4.824,11.736-7.704,18.216c-1.224,5.04-2.52,10.08-3.816,15.12c-1.008,6.768-1.008,6.768-1.728,14.688
		c0,11.52,0,11.52-0.432,17.712c-0.288,1.224-0.72,8.64-1.224,11.808C65.88,251.928,65.592,251.928,65.304,251.856L65.304,251.856z
		 M72.72,245.6639c0.216-4.248,0.504-8.496,0.792-12.744c0-3.096,0-6.192,0-9.36c0.144-1.512,0.288-3.024,0.504-4.536
		c2.304-0.864,2.304-0.864,2.808-1.44c1.224-3.816,2.448-7.632,3.672-11.52c2.88-6.984,2.88-6.984,6.264-13.68
		c0.288-0.072,0.576-0.144,0.864-0.216c0.288,2.88,0.792,4.752,1.728,12.456c0.504,2.376,0.504,2.376,0.432,3.24
		c-0.576,0.144-1.152,0.288-1.728,0.432c-0.72,0.6479-1.44,1.368-2.16,2.088c-1.224,1.8-2.448,3.672-3.744,5.544
		c-0.936,2.232-1.872,4.464-2.88,6.696c-0.936,3.24-1.872,6.552-2.88,9.864c-0.936,4.32-1.872,8.64-2.88,12.96
		C73.296,245.52,73.008,245.5919,72.72,245.6639L72.72,245.6639z M77.04,200.304c0.864-3.384,1.8-6.84,2.736-10.296
		c1.944-4.32,3.816-9.648,4.68-11.2321c0.288,0,0.576,0.072,0.864,0.144c0.936,3.6,0.936,3.6,0.936,5.04
		c-0.648,0.648-1.296,1.296-1.944,1.944c-1.08,1.584-2.16,3.168-3.312,4.824c0.072,0.36,0.144,0.72,0.216,1.152
		c-1.152,2.736-2.376,5.472-3.6,8.208C77.472,200.1599,77.256,200.232,77.04,200.304L77.04,200.304z M38.88,168.12
		c0-2.232,0-4.464,0.072-6.696c-0.936-6.984-0.936-6.984-1.152-12.24c0-1.584,0.072-3.168,0.144-4.824
		c0.792,0.144,1.584,0.36,2.376,0.576c3.384-0.216,3.384-0.216,5.04-0.72c1.152,0,2.376,0,3.6,0c0.72,0.216,1.44,0.432,2.16,0.648
		c0,0.36,0,0.792,0.072,1.224c-4.32,7.2-4.752,8.352-5.76,9.576c-1.872,5.04-1.872,5.04-3.816,9.36
		c-0.648,0.936-1.296,1.872-1.944,2.88C39.456,167.976,39.168,168.048,38.88,168.12L38.88,168.12z M37.44,140.544
		c-1.152-3.24-2.304-6.552-3.528-9.864c0-0.72,0-1.44-0.072-2.16c1.872-0.432,3.816-0.864,5.76-1.296
		c2.376-1.008,2.376-1.008,4.32-1.44c4.608,0,9.216,0,13.896,0c1.656,0.144,3.312,0.288,5.04,0.4319
		c0.576,0.216,1.152,0.432,1.728,0.648c-1.296,1.584-2.592,3.168-3.888,4.752c-1.224,1.944-2.52,3.888-3.816,5.904
		c-0.792,0.864-1.584,1.728-2.376,2.664c-1.224,0-1.224,0-5.76-1.008c-2.376,0.216-4.752,0.432-7.2,0.72
		C38.88,140.6159,38.88,140.6159,37.44,140.544L37.44,140.544z M32.616,123.264c-0.288-1.368-0.576-2.736-0.864-4.104
		c-0.576-1.728-1.224-3.456-1.872-5.256c-1.296-2.16-2.592-4.32-3.888-6.48c-0.072-0.504-0.144-1.08-0.288-1.656
		c1.584,0,3.168-0.072,4.752-0.144c1.872,0.288,3.816,0.576,5.76,0.936c8.28,0.7921,16.632,1.584,24.984,2.376
		c3.6,0.144,7.2,0.288,10.8,0.504c2.304,0.36,4.608,0.72,6.984,1.08c-0.288,0.432-0.576,0.936-0.864,1.44
		c-7.704,8.208-7.704,8.208-10.44,10.584c-3.6-0.864-3.6-0.864-7.704-1.368c-5.04-0.072-10.08-0.144-15.12-0.216
		c-5.256,0.936-5.256,0.936-10.8,2.376C33.624,123.3359,33.12,123.3359,32.616,123.264L32.616,123.264z M79.92,105.624
		c-9.504-0.648-19.008-1.296-28.584-1.944c-16.992-1.944-16.992-1.944-20.376-2.664c-2.664,0.072-5.4,0.144-8.136,0.288
		c-1.296-2.088-2.592-4.248-3.888-6.408c-0.72-1.944-1.512-3.96-2.304-5.976c-0.072-0.864-0.144-1.728-0.288-2.592
		c7.704,0,15.48-0.072,23.256-0.144c3.816,0.144,7.632,0.288,11.52,0.4319c4.104,0.648,8.28,1.2961,12.456,1.944
		c16.848,0.504,16.848,0.504,21.168,0.936c4.32,1.44,8.64,2.88,12.96,4.32c0,0.288,0,0.576,0.072,0.864
		c-0.648,0.648-1.296,1.296-1.944,1.944c-1.728,1.224-3.456,2.52-5.256,3.816c-1.8,1.584-3.672,3.168-5.544,4.824
		C83.016,105.624,83.016,105.624,79.92,105.624L79.92,105.624z M252,105.624c-2.376-0.144-4.752-0.288-7.2-0.504
		c-5.256-1.944-5.256-1.944-9.144-2.88c-0.72-0.072-1.44-0.144-2.16-0.216c-0.4319-0.648-0.4319-0.648-0.576-2.016
		c0.288-0.72,0.576-1.44,0.936-2.16c0.072-0.864,0.144-1.728,0.216-2.664c-0.36-0.504-0.72-1.08-1.152-1.656
		c0.072-1.512,0.144-3.024,0.216-4.608c-0.216-0.144-0.432-0.288-0.72-0.432c-0.072-1.008-0.216-2.088-0.36-3.168
		c-0.288-0.288-0.576-0.576-0.864-0.936c-0.288-1.584-0.576-3.168-0.936-4.824c-0.288-0.216-0.576-0.432-0.936-0.72
		c0-2.592-0.504-4.536-0.504-5.472c0.288-0.288,0.576-0.648,0.936-1.008c0.36,0,0.72,0,1.152,0c0.576,1.584,1.152,3.168,1.728,4.824
		c0.36,0.288,0.72,0.576,1.08,0.936c1.224-0.576,2.448-1.152,3.672-1.8c0.936-0.936,0.936-0.936,1.512-2.232
		c0.072-1.152,0.144-2.376,0.216-3.6c0.648-0.648,1.872-1.152,3.024-2.088c0.576-1.152,1.152-2.376,1.728-3.6
		c0.432,0,0.936,0,1.44,0c0.288,0.288,0.576,0.576,0.936,0.936c0.864,0,1.728,0,2.664,0c0.504,0.432,1.08,0.936,1.656,1.44
		c0,1.224,0,2.4479,0.0721,3.744c-0.432,1.008-2.376,3.6-3.096,5.04c0.072,0.792,0.144,1.584,0.216,2.448
		c1.008,1.656,1.008,1.656,1.872,2.448c1.1519,0.432,2.376,0.936,3.6,1.44c1.224,0,2.52,0,3.816,0
		c1.368-0.576,2.736-1.224,4.104-1.8719c2.16-2.1601,2.16-2.1601,2.952-3.4561c0-2.16-0.504-3.888-0.792-6.48
		c1.152,0.072,2.376,0.1439,3.6,0.288c1.8,0.3599,3.6,0.7919,5.472,1.224c2.736-0.072,5.472-0.144,8.208-0.216
		c2.664-0.288,5.4-0.6481,8.136-1.008c8.424-1.872,8.424-1.872,13.896-2.592c2.2321,0,4.4641,0,6.768,0.072
		c-0.144,0.2161-0.288,0.4321-0.504,0.6481c-7.704,3.816-10.8,5.7599-12.024,6.192c-0.432,0.504-0.432,0.504-4.536,2.448
		c-4.824,1.872-4.824,1.872-22.32,7.632c-1.584,0.144-3.168,0.288-4.8239,0.504c-2.376,0.648-4.752,1.296-7.2,1.944
		c-1.872,0.936-3.816,1.8719-5.76,2.8799c-0.792,0.864-1.656,1.8-2.52,2.736c-0.072,0.72-0.144,1.44-0.216,2.16
		c0.864,0.648,1.8,1.296,2.736,1.944c2.376,0.864,4.752,1.8,7.2,2.736c1.656,0.288,3.312,0.576,5.04,0.936
		c3.24,0.144,6.552,0.288,9.864,0.504c1.656,0.288,3.312,0.576,5.04,0.936c4.32,1.728,4.32,1.728,4.104,1.944
		c-2.952,0-5.904,0-8.928,0c-3.816,0.504-3.816,0.504-15.336,1.224C256.824,105.624,254.448,105.624,252,105.624L252,105.624z
		 M224.856,98.64c-4.032-0.504-4.032-0.504-11.736-0.792c-0.072-0.72-0.216-1.44-0.36-2.16c-0.648-0.936-1.296-1.872-1.944-2.88
		c-0.288-0.792-0.576-1.584-0.936-2.448c0.072-1.512,0.144-3.024,0.216-4.536c0.072-0.072,0.216-0.216,0.36-0.36
		c7.2-0.504,7.2-0.504,9.648-0.288c1.224,0.792,2.52,1.584,3.816,2.448c0,0.288,0,0.576,0.072,0.864
		c-1.44,1.656-1.44,1.656-1.44,2.16c0.288,0.216,0.288,0.216,0.432,0.936c0.72,0,1.44,0,2.16,0.072
		c0.936,1.224,0.936,1.224,1.296,2.304c-0.216,0.648-0.432,1.296-0.72,1.944c0.072,0.36,0.144,0.792,0.216,1.224
		c0.216,0.216,0.432,0.4319,0.72,0.72c0,0.216,0,0.504-0.072,0.792C226.008,98.64,225.432,98.64,224.856,98.64L224.856,98.64z
		 M102.24,90.5039c-4.68-1.584-9.432-3.168-14.184-4.824c-3.096-0.36-6.192-0.792-9.36-1.224c-7.92,0-7.92,0-14.832-0.432
		c-4.536-0.648-9.072-1.296-13.68-1.944c-4.104,0-4.104,0-10.8-0.504c-23.76,0-23.76,0-24.408-0.288
		c-0.072-1.8-0.144-3.672-0.216-5.544c0.72-2.592,1.512-5.256,2.304-7.9201c4.392,0.36,8.784,0.7201,13.176,1.0801
		c2.16,0,4.32,0,6.48,0c3.096,0.2879,6.192,0.576,9.36,0.936c11.016,1.944,25.2,3.816,30.744,4.824
		c4.464,0.576,8.928,1.224,13.392,1.872c6.48,1.44,12.96,2.88,19.44,4.32c1.08,0.504,2.232,1.008,3.384,1.584
		c-0.936,1.08-0.936,1.08-10.296,8.064C102.6,90.5039,102.456,90.5039,102.24,90.5039L102.24,90.5039z M212.904,80.64
		c-1.5121-0.288-3.024-0.576-4.608-0.936c-0.288-0.4319-0.576-0.864-0.864-1.296c0-0.72,0-1.44,0-2.16
		c0.288-0.864,0.648-1.728,1.008-2.664c0.576-0.936,1.224-1.872,1.872-2.88c0.72-0.792,1.512-1.584,2.304-2.4481
		c1.44,0.144,1.44,0.144,2.4481-0.072c1.1519-1.008,1.1519-1.008,1.872-2.088c0.288,0,0.576,0,0.864,0.072
		c0.144,0.432,0.288,0.936,0.432,1.44c0.864,0.288,0.864,0.288,1.152,0.6479c1.224,0.2161,2.52,0.504,3.816,0.7921
		c0,0.432,0,0.936,0.072,1.44c0.504,0.72,0.504,0.72,0.504,1.1519c-0.504,0.432-1.08,0.936-1.656,1.4401
		c0.216,1.44,0.216,1.44,1.152,3.384c-0.072,1.224-0.144,2.52-0.216,3.816C217.944,80.64,217.944,80.64,212.904,80.64L212.904,80.64
		z M117.864,79.2c-1.656-0.648-3.312-1.296-5.04-1.944c-7.488-1.872-7.488-1.872-25.92-5.76c-18.72-2.88-27.36-3.816-39.168-5.76
		c-4.464-0.432-8.928-0.936-13.392-1.44c-2.448,0-4.968,0-7.488,0c-2.376-0.216-4.752-0.504-7.2-0.7921
		c0-0.3599-0.072-0.7919-0.144-1.2239c0.432-0.936,0.936-1.872,1.44-2.88c3.024-3.6,6.048-7.2001,9.144-10.8
		c0.648,0,1.368-0.072,2.088-0.144c0.792,0.2879,1.584,0.648,2.376,1.008c5.184,1.224,10.368,2.52,15.624,3.816
		c5.256,0.648,10.512,1.296,15.84,1.944c2.52,0.1439,5.04,0.2879,7.632,0.432c7.416,1.2959,14.832,2.5919,22.32,3.888
		c6.048,1.8719,6.048,1.8719,16.344,5.7599c8.64,3.816,8.64,3.816,12.024,5.76c0.72,0.5759,1.44,1.152,2.232,1.8
		c0,0.216,0,0.432,0,0.72c-2.52,1.944-5.544,3.816-6.696,4.824C118.08,79.344,118.08,79.344,117.864,79.2L117.864,79.2z
		 M132.48,70.5599c-2.88-1.944-2.88-1.944-3.816-2.8799c-2.88-1.224-5.76-2.52-8.64-3.816c-6.624-2.52-13.248-5.112-19.944-7.704
		c-2.88-0.6481-5.76-1.296-8.64-1.944c-5.544-0.936-11.16-1.872-16.776-2.88c-4.896-0.288-9.792-0.576-14.688-0.936
		c-3.312-0.432-6.696-0.936-10.08-1.44c-4.752-1.224-9.576-2.52-14.4-3.816c0-0.288-0.072-0.576-0.144-0.864
		c0.864-0.576,1.728-1.2241,2.664-1.872c4.176-1.584,8.352-3.168,12.6-4.752c0.432,0,0.936,0,1.44,0
		c2.52,0.7919,5.112,1.584,7.704,2.448c7.272,1.224,14.544,2.5199,21.816,3.816c2.592,0.288,5.256,0.576,7.92,0.936
		c7.992,1.584,15.984,3.168,24.048,4.824c4.032,1.2241,8.136,2.52,12.24,3.816c4.752,1.944,4.752,1.944,18.216,8.64
		c0.36,0.2881,0.72,0.576,1.08,0.8641c0,0.288,0,0.648,0,1.0079c-3.96,2.16-7.92,4.3201-11.88,6.552
		C132.984,70.5599,132.768,70.5599,132.48,70.5599L132.48,70.5599z M151.92,61.1999c-1.08-0.7199-2.232-1.4399-3.384-2.1599
		c-5.184-2.52-10.368-5.112-15.552-7.704c-6.12-1.872-12.312-3.816-18.504-5.7601c-18.216-3.816-18.216-3.816-29.304-5.76
		c-1.728-0.1439-3.456-0.288-5.256-0.432c-6.336-1.2239-12.672-2.448-19.08-3.744c0-0.2159-0.072-0.4319-0.144-0.7199
		c4.104-0.8641,4.104-0.8641,8.208-1.2961c1.872,0,3.816,0,5.76,0c8.352-1.0079,8.352-1.0079,12.672-1.2239
		c9.144,0.504,9.144,0.504,12.528,0.936c1.296-0.0721,2.664-0.1441,4.032-0.216c2.736,0.216,5.472,0.432,8.208,0.72
		c7.2-0.504,7.2-0.504,12.096-0.36c0.144,0.288,0.288,0.6479,0.432,1.008c0.432,0.288,0.864,0.576,1.368,0.936
		c3.816,1.5119,7.632,3.0959,11.52,4.68c7.704,3.816,16.56,7.632,22.104,10.512c0.864,0.792,1.728,1.5839,2.592,2.448
		c2.448,0.936,2.448,0.936,5.328,1.656c0.432-0.576,0.864-1.152,1.296-1.8c0-0.7201,0-0.7201-0.5041-1.872
		c-2.52-1.944-2.52-1.944-7.2719-4.752c-6.48-2.88-6.48-2.88-11.52-4.752c-7.704-3.888-7.704-3.888-16.56-7.704
		c-0.36,0-0.792,0-1.224-0.072c0-0.216,0-0.432,0-0.72c2.376-0.432,2.376-0.432,9.144-0.864c10.296-1.944,10.296-1.944,13.68-2.88
		c0.216-0.288,0.216-0.288,1.44-0.288c2.592,1.944,14.616,9.648,22.536,14.4c1.728,1.728,3.456,3.528,5.256,5.3279
		c0,0.2881,0.072,0.576,0.144,0.8641c-5.112,1.872-10.296,3.744-15.48,5.616c-2.16,0.576-4.32,1.2239-6.48,1.872
		C153.144,60.984,153.144,60.984,151.92,61.1999L151.92,61.1999z M190.08,47.52c-3.384-3.384-4.104-3.816-5.04-5.04
		c-0.864-0.72-1.728-1.44-2.664-2.16c-13.392-7.704-16.056-9.576-19.656-11.52c-0.576-0.4321-1.152-0.8641-1.8-1.2961
		c0-0.2879,0-0.5759,0-0.9359c2.088-1.224,4.176-2.448,6.336-3.7441c0.288,0,0.648,0,1.008,0c2.16,1.2241,4.32,2.5201,6.48,3.816
		c3.816,2.8801,3.816,2.8801,10.08,6.6961c2.232,1.872,4.464,3.816,6.696,5.76c3.816,4.824,3.816,4.824,4.824,5.7599
		c0,0.36,0,0.72,0.072,1.152C192.024,47.304,192.024,47.304,190.08,47.52L190.08,47.52z M202.824,44.6399
		c-2.808-3.1679-5.616-6.3359-8.424-9.5759c-3.096-2.232-6.192-4.464-9.36-6.768c-1.224-0.576-2.52-1.2241-3.816-1.8719
		c-2.664-1.944-2.664-1.944-9.288-5.616c0-0.288,0-0.648,0-1.008c0.936-0.576,1.872-1.2241,2.88-1.872
		c1.152-1.152,2.376-2.376,3.6-3.6c0.288-0.6481,0.576-1.296,0.936-1.9441c1.008-0.936,1.008-0.936,1.872-2.304
		c0.432,0.072,0.936,0.144,1.44,0.216c0.432,0.504,2.16,1.44,6.912,5.3279C200.88,23.256,200.88,23.256,211.68,30.96
		c1.512,1.224,3.024,2.52,4.536,3.816c1.368,1.44,2.7361,2.952,4.104,4.464c0.864,1.368,1.728,2.736,2.664,4.176
		c-0.216,0.144-0.432,0.288-0.72,0.504c-1.44-0.144-2.88-0.288-4.32-0.504C207.864,44.1359,204.984,44.6399,202.824,44.6399
		L202.824,44.6399z"/>
</g>
</svg>
