<?xml version="1.0" encoding="utf-8"?>
<!-- Generator: Adobe Illustrator 21.1.0, SVG Export Plug-In . SVG Version: 6.00 Build 0)  -->
<svg version="1.1" xmlns="http://www.w3.org/2000/svg" xmlns:xlink="http://www.w3.org/1999/xlink" x="0px" y="0px"
	 viewBox="0 0 553.248 211.968" enable-background="new 0 0 553.248 211.968" xml:space="preserve">
<g>
	<path fill-rule="evenodd" clip-rule="evenodd" d="M182.304,211.968c-3.096-0.936-6.192-1.872-9.36-2.88
		c-2.376-1.296-4.752-2.5919-7.2-3.888c-3.456-2.52-6.984-5.0399-10.512-7.632c-1.368-1.44-2.736-2.88-4.104-4.32
		c-0.648-0.936-1.296-1.872-1.944-2.808c-0.72-1.44-1.44-2.88-2.16-4.392c-7.992-0.648-15.984-1.296-23.976-1.944
		c-2.16-0.648-4.32-1.296-6.48-1.944c-4.752-0.936-9.576-1.872-14.4-2.88c-11.304-3.816-11.304-3.816-18.504-5.76
		c-9.792-3.816-13.896-5.76-18.72-7.632c-1.152-0.648-2.376-1.296-3.6-1.944c-8.208-3.528-16.416-7.056-24.696-10.584
		c-1.872-0.576-3.816-1.224-5.76-1.872c-12.024-2.88-12.024-2.88-18.216-4.824c-4.824-1.944-4.824-1.944-8.208-3.816
		c-0.432-0.36-0.936-0.72-1.44-1.08c-0.576-1.008-1.224-2.016-1.872-3.024c-0.36-1.44-0.72-2.88-1.152-4.392
		c0-3.168,0-3.168,0.504-5.544c0.936-2.16,0.936-2.16,1.944-3.384c1.44-0.936,1.44-0.936,3.744-1.8
		c1.584-0.288,3.168-0.576,4.752-0.936c1.944-0.072,3.888-0.216,5.904-0.36c0-0.72,0-0.72-1.008-2.376
		c-0.288-0.288-0.576-0.648-0.936-1.008c-1.8-0.864-1.8-0.864-7.776-2.736c-1.656-1.008-1.656-1.008-3.6-2.88
		c-0.432-0.576-0.864-1.152-1.368-1.8c-0.072-0.504-0.144-1.08-0.216-1.656c0.288-1.152,0.576-2.376,0.936-3.6
		c0.648-1.296,1.296-2.592,1.944-3.888c1.224-1.584,2.52-3.168,3.816-4.752c1.44-1.368,2.952-2.736,4.464-4.104
		c5.184-2.808,10.368-5.688,15.624-8.568c9-3.816,18.072-7.632,27.144-11.52c2.448-0.576,4.896-1.224,7.416-1.872
		c5.256-1.872,10.512-3.816,15.84-5.76c6.696-1.944,11.736-3.888,25.2-7.704c5.76-1.224,11.52-2.52,17.28-3.816
		c9.504-1.728,19.08-3.456,28.656-5.184c0.072-0.288,0.144-0.576,0.216-0.936c1.008-0.936,1.944-2.664,2.448-3.096
		c1.872-4.536,3.816-9.072,5.76-13.68c3.816-6.768,7.632-13.608,11.52-20.448c1.584-2.376,3.168-4.752,4.752-7.2
		c1.368-1.152,1.368-1.152,4.752-3.024c0.144-0.216,0.288-0.432,0.432-0.72c0.648,0,1.296,0,1.944,0
		c1.728,0.648,3.456,1.2961,5.256,1.944c1.08,0.648,2.232,1.296,3.384,1.944c5.544,4.464,11.16,8.928,16.776,13.392
		c6.048,6.264,6.048,6.264,6.984,6.768c3.744,0.936,7.488,1.872,11.304,2.88c3.24,0.576,6.48,1.224,9.792,1.872
		c2.088,0.648,4.176,1.296,6.264,1.944c2.952,0.648,5.904,1.296,8.856,1.944c3.24,0.936,6.552,1.872,9.864,2.88
		c5.76,3.816,5.76,3.816,6.984,4.32c0.432,0,0.936,0,1.44,0c2.52-2.52,5.04-5.112,7.632-7.704c3.024-2.52,6.048-5.112,9.144-7.704
		c2.952-2.232,5.904-4.464,8.856-6.696c1.872-0.936,3.816-1.872,5.76-2.88c2.88-0.936,2.88-0.936,14.688-5.76
		c7.92-1.944,7.92-1.944,13.896-2.88c3.024-0.216,6.048-0.432,9.144-0.72c10.08,0.504,10.08,0.504,12.672,0.936
		c1.656,0.648,3.312,1.2961,5.04,1.944c0.576,0.432,1.152,0.864,1.8,1.368c-0.072,0.504-0.144,1.08-0.216,1.656
		c-0.504,0.432-1.008,0.864-1.584,1.296c-1.584,0.288-3.168,0.576-4.752,0.936c-2.16,0.936-4.32,1.872-6.48,2.88
		c-2.88,1.872-5.76,3.816-8.64,5.76c-1.44,1.296-2.88,2.592-4.32,3.888c-7.92,8.856-7.92,8.856-9.864,11.5919
		c-0.288,0.648-0.576,1.296-0.864,1.944c0.072,2.52,0.144,5.112,0.216,7.704c0.216,1.08,0.432,2.232,0.72,3.384
		c0.288,0.576,0.648,1.224,1.008,1.872c0.36,0.2881,0.72,0.576,1.08,0.864c2.808,0.288,5.616,0.576,8.424,0.936
		c5.976,1.44,5.976,1.44,8.136,1.656c0.792-0.288,1.584-0.576,2.376-0.936c2.664-2.16,2.664-2.16,3.888-2.664
		c1.08-0.072,2.16-0.144,3.312-0.288c-0.36,1.8719-0.36,1.8719-1.584,4.752c0,0.36,0.072,0.792,0.144,1.224
		c2.736,0.72,5.472,1.44,8.208,2.232c1.008-0.072,2.016-0.144,3.096-0.216c1.944-0.936,3.96-1.872,5.976-2.88
		c1.944-0.216,1.944-0.216,2.664,0c0.072,0.216,0.216,0.432,0.36,0.648c-0.288,2.376-0.288,2.376-1.296,5.472
		c1.944,0.432,3.96,0.864,5.976,1.296c0.72,0,1.44,0,2.16,0c2.16-1.152,4.32-2.376,6.48-3.6c0.648,0,1.296,0,1.944,0
		c0.216,0.144,0.432,0.288,0.72,0.504c0.072,0.504,0.144,1.0081,0.288,1.584c-0.36,1.008-0.72,2.016-1.152,3.096
		c0,0.36,0.072,0.72,0.144,1.08c2.664,0.936,5.4,1.872,8.136,2.88c1.08-0.216,2.232-0.432,3.384-0.72
		c1.44-0.864,2.88-1.728,4.32-2.664c0.792,0,1.584,0,2.376,0c0.504,0.648,0.504,0.648,0.576,1.872
		c-0.36,1.512-0.72,3.024-1.08,4.536c6.2639,1.8,6.2639,1.8,7.92,2.016c0.864-0.432,1.728-0.936,2.664-1.44
		c3.096-0.936,3.096-0.936,6.696-2.664c0.576,0,1.152,0,1.728,0c0.144,0.144,0.288,0.288,0.432,0.504
		c0,0.72,0.072,1.512,0.144,2.304c-1.944,3.6-1.944,3.6-2.016,4.32c2.592,0.576,5.256,1.152,7.92,1.8
		c0.576-0.648,1.224-1.368,1.872-2.088c1.008-0.648,2.088-1.296,3.168-2.016c0.72,0,1.44,0,2.16,0
		c0.432,0.504,0.432,0.504,0.576,1.8c-0.216,1.512-0.4319,3.024-0.72,4.608c2.592,0.72,5.184,1.44,7.776,2.232
		c0.864,0.072,1.728,0.144,2.664,0.216c0.144-0.216,0.288-0.432,0.504-0.72c0.936-0.504,1.872-1.08,2.88-1.656
		c1.656,0,1.656,0,2.376,0.36c0.072,1.08,0.144,2.232,0.216,3.384c7.488,1.8,7.488,1.8,8.424,1.8
		c0.936-1.584,0.936-1.584,2.16-2.664c0.72-0.36,1.44-0.792,2.16-1.224c0.648,0,1.296,0,1.944,0
		c0.288,0.432,0.288,0.432,0.288,2.808c-0.432,0.936-0.432,0.936-0.36,1.944c4.608,0.288,4.608,0.288,14.904,0.072
		c2.0881-0.288,4.176-0.576,6.264-0.936c0.648-0.72,1.296-1.44,1.944-2.16c3.672-6.336,3.672-6.336,7.056-11.376
		c1.224-2.736,2.52-5.472,3.816-8.208c0.648-0.864,1.296-1.728,1.944-2.592c0.936-2.16,2.88-5.328,6.696-12.96
		c0.6479-1.728,1.296-3.528,1.944-5.328c2.88-4.032,6.6959-10.512,10.512-16.272c1.8719-2.304,3.816-4.608,5.76-6.984
		c4.104-3.816,5.04-5.04,13.6799-12.744c2.5201-1.872,2.5201-1.872,4.032-2.52c0.936,0,1.872,0,2.88,0
		c0.648,0.432,1.296,0.864,2.0161,1.368c0,2.304,0,4.608,0,6.912c-0.288,4.32-0.648,8.64-1.0081,12.96
		c-0.576,3.744-1.224,7.488-1.8719,11.304c-0.648,2.664-1.296,5.4-1.9441,8.136c-0.6479,1.872-1.296,3.816-1.9439,5.76
		c-0.288,1.5121-0.576,3.024-0.936,4.608c-1.2241,3.888-2.52,7.776-3.816,11.736c-1.296,2.88-2.592,5.76-3.888,8.64
		c-1.224,1.584-2.5201,3.168-3.816,4.824c-0.936,2.16-2.88,5.04-3.816,6.912c-1.008,1.08-2.088,2.2321-3.168,3.384
		c-0.576,1.152-1.224,2.376-1.872,3.6c-3.888,4.32-3.888,4.32-5.328,6.264c0.2879,1.656,0.2879,1.656,2.16,5.976
		c3.816,7.416,7.632,14.832,11.52,22.32c1.296,2.088,2.592,4.176,3.888,6.264c1.872,4.536,1.872,4.536,5.76,11.952
		c1.872,5.544,3.816,9.864,4.752,12.96c0.288,0.288,0.288,0.288,1.224,4.32c3.816,8.424,3.816,8.424,4.824,9.864
		c0.432,1.44,0.936,2.88,1.44,4.32c0.936,1.44,0.936,1.44,2.16,4.32c0,1.656,0,1.656-0.504,3.096
		c-0.5759,0.432-1.1519,0.864-1.7999,1.296c-0.576,0-1.224,0-1.872,0c-3.6-0.936-7.2-1.872-10.8-2.88
		c-3.384-1.872-3.384-1.872-7.704-3.816c-2.376-1.584-4.752-3.168-7.2-4.824c-0.72-0.288-1.4399-0.576-2.16-0.936
		c-3.312-2.592-6.696-5.256-10.0801-7.92c-2.8079-2.952-5.6159-5.904-8.4239-8.856c-8.136-10.008-8.136-10.008-10.0801-12.744
		c-1.296-2.5201-1.7999-2.952-11.376-20.232c-2.88-7.488-3.888-9.144-4.32-10.368c-0.576,0-1.152-0.072-1.8-0.144
		c-2.376,0.288-4.752,0.648-7.2,1.008c-4.248,0.216-8.496,0.432-12.744,0.72c-1.08,0.144-2.16,0.36-3.312,0.576
		c0,0.648,0,1.296,0.072,1.944c-1.224,1.224-1.224,1.224-3.024,2.16c-0.576,0-1.224,0-1.872,0.072
		c-1.224-1.08-1.224-1.08-2.664-2.88c-1.296,0.216-2.664,0.432-4.032,0.72c-0.288,1.584-0.576,3.168-0.864,4.752
		c-1.008,0.9359-1.008,0.9359-2.304,1.656c-0.792-0.648-1.656-1.296-2.52-1.944c-0.72-0.864-1.44-1.8-2.232-2.736
		c-1.728,0.36-3.528,0.72-5.328,1.152c-0.144,0.864-0.144,0.864,0.144,4.032c-0.288,0.936-0.648,1.872-1.008,2.88
		c-0.576,0.432-0.576,0.432-1.728,0.576c-1.8-0.432-3.672-0.936-5.544-1.44c-0.936-1.224-0.936-1.224-1.656-1.728
		c-0.288-0.072-0.648-0.144-1.008-0.216c-1.44,0.432-2.88,0.936-4.32,1.44c-0.144,1.08,0.36,4.248,0.144,5.688
		c-0.432,0.216-0.864,0.504-1.296,0.792c-0.576-0.072-1.152-0.144-1.728-0.216c-1.296-0.6479-2.664-1.296-4.032-1.944
		c-0.288-0.288-0.648-0.576-1.008-0.936c-0.576,0.072-1.224,0.144-1.872,0.216c-0.576,0.288-1.224,0.576-1.872,0.864
		c-0.432,2.376-0.432,2.376-1.44,4.824c-0.576,0.432-0.576,0.432-2.448,0.576c-2.448-1.008-2.448-1.008-4.32-2.16
		c-1.008,0.072-2.088,0.144-3.168,0.216c-5.904,2.016-11.8799,4.032-17.856,6.12c0.072,0.7921,0.144,1.584,0.216,2.448
		c-0.072,0.144-0.216,0.36-0.36,0.576c-1.656,0-1.656,0-1.872-0.288c-1.944-0.432-1.944-0.432-2.664-0.936
		c-11.016,3.6-11.016,3.6-14.4,5.0399c0,0.288-0.072,0.576-0.144,0.864c0.792,0.72,1.584,1.44,2.376,2.16
		c1.368,1.944,2.736,3.96,4.104,5.976c4.32,4.4641,8.64,8.928,12.96,13.4641c9.864,8.64,10.8,9.864,14.4,12.744
		c0.504,1.152,0.504,1.152,0.504,2.376c-0.648,0.432-1.296,0.864-2.016,1.296c-1.08-0.144-2.232-0.288-3.384-0.504
		c-4.536-0.144-9.072-0.288-13.68-0.432c-5.544-1.008-8.64-1.944-13.68-2.88c-3.024-0.936-6.0479-1.872-9.144-2.88
		c-8.64-3.888-8.64-3.888-19.872-9.648c-1.656-0.576-3.312-1.224-5.04-1.872c-1.8-0.288-3.672-0.6479-5.544-1.008
		c-2.664,0-5.976,0.504-7.2,0.288c-0.936-1.008-0.936-1.008-1.944-1.44c-5.184,0.864-10.368,1.728-15.552,2.592
		c-5.76,1.944-5.76,1.944-12.744,3.888c-1.44,0.576-2.88,1.224-4.32,1.872c-2.664,0.648-5.4,1.296-8.136,1.944
		c-11.304,1.944-11.304,1.944-31.968,4.824c-8.64,0.288-17.28,0.576-25.92,0.936c-20.88,1.4399-20.88,1.4399-21.96,1.8
		c0.216,3.168,0.216,3.168,0.216,17.568c1.008,3.312,1.008,3.312,1.224,5.472c-0.432,0.504-0.864,1.008-1.296,1.584
		C183.6,211.968,182.952,211.968,182.304,211.968L182.304,211.968z M183.744,182.592c-0.36-1.008-0.72-2.088-1.08-3.168
		c-0.936-0.576-1.944-1.152-2.952-1.8c-4.608-1.944-4.608-1.944-7.92-2.88c-6.48-0.936-6.48-0.936-12.528-1.44
		c-2.16,0.0721-4.32,0.144-6.48,0.216c-0.864,0.288-1.728,0.648-2.592,1.008c-0.936,0.576-1.872,1.224-2.88,1.872
		c-1.008,1.8-1.008,1.8-1.944,2.88c-13.464-0.72-13.464-0.72-23.256-1.656c-0.864-0.288-1.728-0.576-2.664-0.936
		c-6.192-1.296-12.456-2.592-18.72-3.888c-11.52-3.816-11.52-3.816-16.704-5.112c0-0.216,0-0.432-0.072-0.72
		c3.096-0.36,3.096-0.36,15.12-3.24c4.32-1.944,4.32-1.944,7.416-3.888c1.44-1.296,2.88-2.664,4.32-4.032
		c1.224-1.512,2.52-3.096,3.816-4.68c1.224-2.232,2.448-4.464,3.744-6.696c0.288-1.296,0.576-2.592,0.936-3.888
		c0.072-1.656,0.144-3.312,0.216-5.04c-0.144-0.864-0.288-1.728-0.432-2.592c-1.008-2.16-1.008-2.16-1.008-2.88
		c0.936-1.512,1.872-3.024,2.88-4.608c0.648-1.8,1.296-3.6,1.944-5.472c0.432-2.88,0.936-5.76,1.44-8.64
		c0.072-1.512,0.144-3.024,0.216-4.608c-0.288-1.944-0.576-3.96-0.936-5.976c-1.944-5.256-1.944-5.256-3.456-10.296
		c0.504,0,1.08,0,1.656,0.072c0.576,0.432,1.152,0.936,1.728,1.44c11.232,1.944,11.232,1.944,16.056,2.376
		c10.296,3.888,10.296,3.888,19.224,7.704c8.136,3.816,8.136,3.816,13.176,6.696c1.512,1.296,3.024,2.592,4.536,3.888
		c1.368,0.792,2.736,1.584,4.104,2.376c0.504-0.072,1.08-0.144,1.656-0.216c1.512-1.296,3.024-2.592,4.608-3.888
		c6.48-3.816,6.48-3.816,9.072-5.76c2.304-1.224,4.608-2.52,6.984-3.816c2.304-0.936,4.608-1.8719,6.984-2.88
		c5.256-0.936,5.256-0.936,11.016-1.44c2.448,0.0721,4.896,0.144,7.416,0.216c2.304,0.288,4.608,0.648,6.984,1.008
		c3.816,0.936,7.632,1.872,11.52,2.88c3.384,0.576,6.84,1.224,10.296,1.872c0.864,0,1.728,0,2.664,0
		c0.216-0.216,0.432-0.432,0.72-0.72c0.288-0.792,0.576-1.584,0.936-2.448c1.0081-0.144,4.824,0.288,9.36,0.288
		c0.648-0.72,1.296-1.44,1.944-2.232c1.656-0.072,3.312-0.216,5.04-0.36c1.8-2.016,1.8-2.016,2.16-2.88c1.368,0,2.736,0,4.104,0
		c0.504-0.144,1.08-0.288,1.656-0.504c0.432-0.432,0.936-0.936,1.44-1.44c1.008,0.216,2.016,0.432,3.096,0.72
		c2.376-0.072,4.752-0.144,7.2-0.216c1.7281-0.504,1.7281-0.504,3.384-0.648c0.216,0.504,0.504,1.008,0.792,1.512
		c0.576,0.432,1.152,0.936,1.8,1.44c1.944,0.792,1.944,0.792,3.384,1.728c1.8,0.648,3.672,1.2961,5.544,1.944
		c1.44,0.144,2.88,0.2881,4.32,0.504c0.72-0.6479,1.44-1.296,2.16-1.944c7.704,1.224,7.704,1.224,11.304,1.44
		c0.504-0.072,1.08-0.144,1.656-0.216c1.728,0.36,3.456,0.72,5.256,1.152c5.4,0.072,10.872,0.144,16.344,0.288
		c1.08-0.144,2.2321-0.288,3.384-0.504c4.896,0,9.864,0,14.832,0c5.544-0.936,5.544-0.936,7.2-1.44
		c3.744,0.0721,7.488,0.144,11.304,0.216c19.44,1.44,19.44,1.44,22.824,1.944c3.456,0,6.984,0,10.512,0
		c5.9041,0.864,11.808,1.728,17.7841,2.664c2.304,0,4.608,0,6.984,0c5.472,0.504,11.016,1.08,16.56,1.656
		c5.544,0.072,11.16,0.144,16.776,0.216c1.944-0.432,2.664-0.936,10.584-3.312c1.152-0.072,2.376-0.144,3.6-0.288
		c2.304,0.432,4.608,0.864,6.912,1.368c0.864,1.44,0.864,1.44,2.304,5.04c0.072,0.5041,0.144,1.08,0.216,1.656
		c-0.432,0.288-0.8641,0.576-1.296,0.864c-1.224,0-4.3201-1.008-7.704-1.44c-3.816-0.144-7.632-0.288-11.52-0.504
		c-3.816,0.936-3.816,0.936-6.48,1.944c-0.4319,0.432-0.4319,0.432-2.16,1.152c-2.88,0.288-5.76,0.648-8.64,1.008
		c-5.112,0.288-10.224,0.576-15.336,0.936c-6.84,1.224-13.752,2.52-20.664,3.816c-2.304,0.648-4.608,1.2961-6.912,1.944
		c-4.248,1.584-8.496,3.168-12.744,4.824c-1.152,0.288-2.376,0.576-3.6,0.936c-3.096,1.44-6.48,2.376-10.8,4.32
		c-7.128,2.232-14.256,4.464-21.384,6.696c-8.928,3.168-17.856,6.408-26.856,9.648c-17.064,7.632-17.064,7.632-26.424,11.52
		c-10.512,3.816-12.456,4.752-18.72,6.696c-2.52,0.648-5.04,1.296-7.632,1.944c-3.456,0.576-6.912,1.224-10.368,1.872
		c-4.752,1.44-9.576,2.88-14.4,4.32c-1.44,0.648-2.88,1.2961-4.32,1.944c-5.04,0.936-7.92,1.944-15.84,3.384
		c-8.136,0.936-8.136,0.936-20.592,2.88C196.992,181.728,196.992,181.728,183.744,182.592L183.744,182.592z M71.424,162.5041
		c-5.04-1.944-22.032-9.576-35.712-15.336c-6.768-1.944-15.624-3.888-22.104-5.76c-5.04-1.944-5.04-1.944-8.64-3.888
		c-0.288-0.432-0.576-0.864-0.864-1.296c-0.072-0.864-0.144-1.728-0.216-2.592c0.144-0.576,0.288-1.152,0.432-1.728
		c1.008-1.44,1.008-1.44,2.304-2.376c0.72-0.288,1.44-0.576,2.16-0.864c1.656-0.288,3.312-0.576,5.04-0.936c1.656,0,3.312,0,5.04,0
		c0.648,0.144,1.296,0.288,1.944,0.432c5.256,3.168,10.512,6.408,15.84,9.648c2.376,0.936,4.752,1.872,7.2,2.88
		c3.6,0.936,3.6,0.936,8.856,1.872c16.56,1.44,16.56,1.44,25.488,1.944c4.32-0.144,8.64-0.36,12.96-0.576
		c0.288,1.944,0.288,1.944,1.296,4.536c-0.072,0.864-0.144,1.728-0.288,2.664c-1.872,2.664-1.872,2.664-3.816,4.824
		c-1.152,0.936-2.376,1.872-3.6,2.88c-1.512,0.72-3.096,1.44-4.68,2.232c-1.512,0.072-3.024,0.144-4.536,0.216
		C73.152,162.2881,73.152,162.2881,71.424,162.5041L71.424,162.5041z M94.968,158.112c0.072-1.224,0.576-2.16,1.512-7.488
		c-0.072-1.152-0.144-2.376-0.216-3.6c-0.216-0.792-0.432-1.584-0.72-2.376c0-0.4319,0.072-0.9359,0.144-1.44
		c6.264-1.8,6.264-1.8,11.52-3.744c2.88-1.944,2.88-1.944,6.264-4.824c0.432-0.072,0.936-0.144,1.44-0.216
		c0.144,0.648,0.36,1.368,0.576,2.088c-0.072,1.008-0.144,2.016-0.288,3.096c-1.224,2.16-2.52,4.32-3.816,6.48
		c-1.224,1.584-2.52,3.168-3.816,4.824c-1.512,1.224-3.096,2.52-4.68,3.816c-1.008,0.648-2.088,1.296-3.168,1.944
		C98.136,157.1041,96.552,157.608,94.968,158.112L94.968,158.112z M125.424,155.808c-0.792-0.432-1.584-0.936-2.376-1.44
		c-0.864-1.296-0.864-1.296-1.656-3.24c-1.008-0.36-1.008-0.36-2.88-0.504c0-0.36,0-0.72,0-1.152
		c0.432-0.144,0.936-0.288,1.44-0.432c1.08,0.072,2.16,0.144,3.312,0.288c0.864,0.792,1.728,1.584,2.664,2.376
		c2.664,0,6.48,0.504,12.96,0.72c2.448-0.36,4.896-0.792,7.416-1.224c4.104,0,5.76,0.288,8.208,0.288
		c1.296-0.144,2.664-0.288,4.032-0.504c17.28-0.216,17.28-0.216,19.224-0.504c3.672-0.144,7.344-0.288,11.016-0.432
		c7.704-1.008,7.704-1.008,9.864-1.008c0.792,0.288,1.584,0.648,2.376,1.008c0.648,0,1.296,0,1.944,0
		c1.944-0.72,3.96-1.44,5.976-2.16c0.72,0,1.44,0,2.16,0c1.152,0.36,2.376,0.72,3.6,1.152c2.376-0.504,4.752-1.08,7.2-1.656
		c1.8,0,3.672,0,5.544,0c0.864,0.144,1.728,0.288,2.664,0.504c4.32,0,8.352-0.504,20.592-0.72c9.864-0.504,9.864-0.504,12.528-0.288
		c0.4319,0.144,0.864,0.288,1.368,0.432c0.648,1.152,0.648,1.152,0.648,1.872c-0.36,0.36-0.36,0.36-7.56,1.296
		c-8.136,0.288-8.856,0-13.464,0c-6.4799,1.008-6.4799,1.008-11.016,1.224c-1.152-0.216-2.376-0.432-3.6-0.72
		c-2.304,0.0721-4.608,0.144-6.984,0.216c-1.728,0.576-3.456,1.152-5.256,1.728c-0.72,0-1.44,0-2.16,0
		c-1.08-0.6479-2.232-1.296-3.384-1.944c-0.432,0.0721-0.936,0.144-1.44,0.216c-3.816,1.944-3.816,1.944-5.976,2.664
		c-0.792,0-1.584,0-2.376,0c-0.792-0.36-1.584-0.792-2.448-1.224c-5.256,0.72-5.256,0.72-14.112,1.44c-4.608,0-4.608,0-8.208,0.504
		c-2.376-0.072-4.752-0.144-7.2-0.216c-0.792-0.144-1.584-0.288-2.376-0.504c-3.312,0.216-6.696,0.432-10.08,0.72
		c-1.152-0.072-2.376-0.144-3.6-0.216c-0.36-0.144-0.792-0.288-1.224-0.504c-3.672,0.504-7.344,1.08-11.016,1.656
		c-4.032-0.144-8.136-0.288-12.24-0.432c-0.36,0.216-0.792,0.432-1.224,0.72C127.368,155.808,126.432,155.808,125.424,155.808
		L125.424,155.808z M78.192,138.528c-16.344-1.008-16.344-1.008-25.704-1.944c-1.944-0.288-3.96-0.576-5.976-0.936
		c-2.232-0.6479-4.464-1.296-6.768-1.944c-4.32-1.944-4.32-1.944-11.016-5.7599c-1.296-0.864-2.592-1.8-3.96-2.736
		c-1.008-2.16-1.944-3.384-3.888-7.2c-0.216-0.216-0.432-0.432-0.72-0.72c0-0.288,0.072-0.576,0.144-0.936
		c0.288-0.288,0.648-0.576,1.008-0.864c0.792,0,1.584,0,2.376,0c0.72-0.504,1.512-2.016,2.376-2.88
		c1.08,0.072,2.232,0.144,3.384,0.216c0.576-0.36,0.576-0.36,1.08-1.296c3.24-0.36,3.24-0.36,4.464-0.864
		c0.36-0.72,0.72-1.44,1.152-2.16c0.864-0.216,1.728-0.432,2.664-0.72c0.432-0.936,0.936-1.944,1.44-2.952
		c0.144,0.576,0.36,1.224,0.576,1.872c0.72,0.72,1.44,1.44,2.16,2.16c6.84,3.744,6.84,3.744,9.288,4.68
		c0.792,0.144,1.584,0.288,2.376,0.504c1.584,0,3.168,0,4.824,0c0.864-0.144,1.728-0.288,2.592-0.504
		c1.08-0.648,2.232-1.296,3.384-1.944c0.72-0.72,1.44-1.44,2.16-2.16c0.936-1.584,1.872-3.2401,2.88-4.896
		c0.216-0.792,0.504-1.584,0.792-2.376c0.072-1.08,0.144-2.232,0.288-3.384c-0.288-0.792-0.648-1.584-1.008-2.376
		c-0.72-1.008-1.44-2.016-2.16-3.096c0-0.216,0.072-0.432,0.144-0.72c5.544,3.816,7.2,4.608,9.864,6.552
		c1.656,0,1.656,0,4.104-0.504c0.144-0.432,0.288-0.864,0.432-1.296c3.888,0.36,4.104,0.144,6.984,0.36
		c0.648-0.072,1.296-0.144,1.944-0.216c0.144-0.144,0.288-0.288,0.432-0.504c3.168-0.216,3.168-0.216,4.824-0.72
		c0.936-0.936,1.872-1.872,2.88-2.88c1.08-0.144,2.232-0.288,3.384-0.504c0.144-0.288,0.288-0.648,0.432-1.008
		c0.864-0.288,1.728-0.576,2.664-0.864c0.504-0.648,0.504-0.648,0.936-2.736c0.432,0.072,0.936,0.144,1.44,0.288
		c2.232,1.44,4.464,2.88,6.768,4.32c0.576,0.792,1.224,1.656,1.872,2.52c0.72,2.448,1.512,4.968,2.304,7.488
		c0.216,1.368,0.432,2.736,0.72,4.104c-0.216,2.52-0.432,5.04-0.72,7.632c-1.008,4.608-1.008,4.608-1.944,6.984
		c-1.944,2.16-1.944,2.16-2.88,3.6c-2.232,1.944-4.464,3.96-6.696,5.976c-0.936,0.648-1.872,1.296-2.88,1.944
		c-4.176,1.8-4.176,1.8-7.56,2.736c-0.792,0.0721-1.584,0.216-2.376,0.36c0.072-0.576,0.144-1.224,0.288-1.872
		c1.008-1.944,1.008-1.944,1.728-4.104c0-1.944,0-3.96,0-5.976c-0.288-2.16-0.648-4.32-1.008-6.48
		c-0.576-1.512-1.224-3.024-1.872-4.608c-1.44-1.944-2.88-3.96-4.32-5.976c-1.8-1.224-3.6-2.52-5.4-3.816
		c-0.432,0-0.936-0.072-1.44-0.144c0,1.44-0.072,2.952-0.144,4.464c0.288,0.4319,0.576,0.9359,0.936,1.44
		c2.664,1.872,2.664,1.872,4.824,3.816c1.08,1.8,2.232,3.672,3.384,5.544c0.216,1.152,0.432,2.376,0.72,3.6c0,1.944,0,3.96,0,5.976
		c-0.288,0.864-0.648,1.728-1.008,2.664c-0.792,1.224-1.584,2.52-2.376,3.816c-0.144,0.936-0.288,1.872-0.504,2.88
		C83.664,138.24,83.664,138.24,78.192,138.528L78.192,138.528z M13.104,107.2801c-0.576-0.216-1.152-0.504-1.8-0.792
		c0-0.36,0-0.792,0-1.224c3.816-4.536,3.816-4.536,5.76-6.48c4.536-2.52,9.072-5.04,13.608-7.56
		c6.192-2.88,6.192-2.88,29.232-12.456c4.824-1.008,4.824-1.008,7.704-1.944c0.432,0,0.936,0.072,1.44,0.144
		c0.288,0.36,0.576,0.72,0.936,1.08c3.6,0.72,3.6,0.72,12.024,1.656c2.592,0.504,5.256,1.08,7.92,1.656
		c0.432,0.72,0.936,1.512,1.44,2.304c0,0.288,0,0.648,0.072,1.008c-0.36,0.216-1.728,0.072-3.672,0.288
		c-0.936-0.432-1.872-0.936-2.88-1.44c-1.368,0-2.736,0-4.104,0c-0.36,0.288-0.72,0.576-1.152,0.864
		c0.432,0.936,0.432,0.936,0.216,1.296c-1.656-0.216-2.88-0.72-5.544-1.152c-0.432-0.288-0.432-0.288-1.872-0.288
		c-1.008,0.504-1.008,0.504-1.224,0.864c0.216,0.504,0.216,0.504,0,0.864c-0.864,0-1.728,0-2.664,0
		c-0.144,0.144-0.288,0.288-0.432,0.432c0.072,4.248,0.072,4.248-0.288,5.544c-0.36-0.072-0.72-0.144-1.152-0.216
		c-0.936-0.648-1.872-1.296-2.88-1.944c-4.104-1.944-4.104-1.944-6.264-2.664c-1.656,0-3.312,0-5.04,0
		c-0.72,0.144-1.44,0.288-2.16,0.504c-1.584,1.008-3.168,2.016-4.824,3.024c-0.576,0.648-1.224,1.296-1.872,2.016
		c-1.872,3.528-1.872,3.528-3.744,7.848c0,3.096,0,3.096-0.288,3.312c-1.08-1.152-2.448-2.016-3.456-3.024
		c-0.576-0.288-1.224-0.576-1.872-0.936c-0.648,0-1.296,0-1.944,0c-0.936,0.504-2.88,0.936-4.824,2.088
		c-0.144,0.504-0.288,1.008-0.432,1.512c-1.944-0.504-1.944-0.504-3.384-0.504c-0.288,0.144-0.576,0.288-0.936,0.504
		c-0.144,0.504-0.288,1.008-0.432,1.584c-1.296,0.36-5.112,0.36-6.552,0.792c-0.936,0.648-0.936,0.648-1.44,1.44
		C13.968,107.2801,13.536,107.2801,13.104,107.2801L13.104,107.2801z M62.064,104.76c-0.36-0.432-0.36-0.432-0.576-3.312
		c-0.288-0.504-0.648-1.08-1.008-1.656c-0.72-0.648-1.44-1.296-2.232-1.944c-1.512-0.432-3.024-0.864-4.536-1.368
		c-1.368,0-2.736,0-4.104-0.072c0.072-0.432,0.216-0.936,0.36-1.44c2.232-1.944,2.232-1.944,3.96-2.88
		c0.792-0.288,1.584-0.576,2.376-0.864c3.6,0,3.6,0,4.464,0.36c0.144,0.36,0.288,0.7921,0.432,1.224c0.72,0.72,1.44,1.44,2.16,2.16
		c0.648,0.936,1.296,1.872,1.944,2.88c0.072,0.72,0.144,1.44,0.216,2.16c-2.88,4.824-2.88,4.824-3.24,5.04
		C62.208,104.976,62.136,104.9041,62.064,104.76L62.064,104.76z M476.568,98.64c-14.616-1.152-16.776-1.656-27.864-2.592
		c-2.88-0.648-5.76-1.296-8.64-1.944c-4.536-1.944-4.536-1.944-9.36-3.384c-2.448-0.288-4.896-0.576-7.416-0.936
		c-5.04-1.224-10.08-2.52-15.1201-3.816c-9.864-1.944-9.864-1.944-15.12-3.384c-2.16-0.936-2.16-0.936-6.264-1.944
		c-0.504-0.288-1.08-0.576-1.656-0.936c-2.088-0.288-4.176-0.576-6.264-0.936c-1.08,0-2.16,0-3.312,0
		c-4.104-1.008-4.104-1.008-6.768-1.224c-0.144,0.216-0.288,0.432-0.432,0.72c-2.664-0.216-7.704-1.224-15.624-2.16
		c-1.224-0.288-2.52-0.576-3.816-0.936c-0.144-0.144-0.288-0.288-0.504-0.504c-7.2-0.936-7.2-0.936-9.36-1.44
		c-0.288-0.36-0.576-0.792-0.936-1.224c-1.224-0.432-1.224-0.432-12.24-2.16c-0.288-0.36-0.648-0.72-1.008-1.152
		c-9.072-1.008-9.072-1.008-11.952-1.008c-1.872-0.288-3.816-0.576-5.76-0.936c-0.936-0.36-1.872-0.792-2.88-1.224
		c-4.68-0.216-9.432-0.432-14.184-0.72c-2.448-0.576-4.896-1.224-7.416-1.872c-6.768-1.008-6.768-1.008-10.8-1.944
		c-5.256-0.6479-10.512-1.296-15.84-1.944c-6.984-0.216-30.24-0.216-31.968,0c-3.672,0-7.344,0-11.016,0
		c-23.976,1.944-23.976,1.944-34.56,2.448c-21.6,2.376-21.6,2.376-25.92,2.592c-6.264,1.008-6.264,1.008-13.896,2.88
		c-2.016,0.648-4.032,1.296-6.048,1.944c-3.096,1.224-6.192,2.52-9.36,3.816c-7.2,3.888-7.2,3.888-9.072,5.328
		c-1.08,0.216-2.232,0.432-3.384,0.72c-0.36,0.288-0.792,0.576-1.224,0.936c-0.432,0.72-0.864,1.5121-1.296,2.304
		c-0.288,0-0.576,0-0.864,0.072c-1.656-0.936-4.536-1.872-8.136-3.816c-1.872-0.648-3.816-1.296-5.76-1.944
		c-9.864-1.872-9.864-1.872-13.68-2.88c0-0.216,0-0.504,0-0.792c1.944-0.864,1.944-0.864,19.656-6.624
		c16.344-3.816,16.344-3.816,35.568-7.704c6.12-0.936,12.24-1.872,18.432-2.88c12.24-0.936,12.24-0.936,16.128-0.936
		c0.864-0.432,1.728-0.936,2.592-1.44c3.024-0.288,6.048-0.576,9.144-0.936c12.96,0,12.96,0,17.28-0.288
		c11.088,0.432,22.176,0.936,33.336,1.44c4.32-0.072,8.64-0.144,12.96-0.216c9.72,0.288,19.5121,0.576,29.304,0.936
		c18.72,1.944,18.72,1.944,24.984,2.88c8.64,0.504,11.736,1.008,18.936,1.44c2.52,0.576,5.112,1.152,7.704,1.728
		c4.32,0,4.32,0,7.92,0.432c12.24,2.88,12.24,2.88,26.856,6.768c1.224,0.432,2.52,0.936,3.816,1.44
		c5.328,1.224,10.728,2.52,16.128,3.816c4.752,1.584,9.576,3.168,14.4,4.824c25.416,7.632,25.416,7.632,49.392,14.4
		c3.4561,0.576,6.912,1.224,10.368,1.872c1.512,0.432,3.024,0.936,4.536,1.44c2.376,0.216,4.752,0.432,7.2,0.72
		c10.584,0,16.056-0.432,18.72-0.36c-0.864,1.08-1.728,2.16-2.664,3.24C480.6,98.64,478.584,98.64,476.568,98.64L476.568,98.64z"/>
</g>
</svg>
