<?xml version="1.0" encoding="utf-8"?>
<!-- Generator: Adobe Illustrator 21.1.0, SVG Export Plug-In . SVG Version: 6.00 Build 0)  -->
<svg version="1.1" id="C" xmlns="http://www.w3.org/2000/svg" xmlns:xlink="http://www.w3.org/1999/xlink" x="0px" y="0px"
	 viewBox="0 0 259.63 279.284" enable-background="new 0 0 259.63 279.284" xml:space="preserve">
<g>
	<path fill-rule="evenodd" clip-rule="evenodd" d="M0.3424,279.2106c-0.0984-0.0983-0.1806-0.2622-0.2619-0.4252L0,278.6238
		l0.1264-0.1264c0.0601-0.0601,0.1196-0.1326,0.184-0.2117c0.093-0.114,0.1976-0.2418,0.32-0.3643l0.1522-0.0714
		c2.1608-0.216,4.3226-0.4323,6.4721-0.7188l0.0547-0.0012l4.7282,0.4297c6.952-0.6684,7.41-0.7132,8.246-0.9462
		c-0.0034-0.1125-0.0122-0.2304-0.0374-0.3611c-3.7301-1.8297-3.7386-1.8357-4.4742-2.4242l-0.095-0.0759v-0.1182
		c0-0.2888-0.0507-0.5856-0.1089-0.9252v-0.0008l-0.0312-0.1848l-0.0182-0.1086l0.07-0.0876
		c0.2761-0.3453,0.7628-0.6973,1.8099-1.4539c1.2988-0.9388,3.4792-2.5152,7.2176-5.4893c2.0778-2.1472,2.122-2.1934,2.444-2.8366
		c0.1457-1.1707,0.2866-2.3643,0.4266-3.5575l0.0403-0.1103c0.1321-0.1981,0.2653-0.3971,0.4706-0.6738l0.2092-2.092l0.0714-0.1522
		c0.1273-0.1273,0.2894-0.2721,0.4592-0.4243c0.1553-0.1392,0.3206-0.2869,0.4986-0.4618c0.2837-1.2775,0.5697-2.556,0.9227-3.8276
		l0.0779-0.123c0.2333-0.1998,0.6058-0.824,0.972-1.438c0.3316-0.5558,0.6599-1.1049,0.9136-1.383
		c0.2044-0.6526,0.6743-1.7184,1.2183-2.9521c0.7132-1.6169,1.5557-3.5266,2.0769-5.1307l0.008-0.0195
		c8.6133-20.3131,8.6485-20.3947,9.6497-22.112c1.8675-5.2435,1.8706-5.2497,3.8183-9.3617l0.0224-0.0383
		c0.3461-0.4847,0.7747-1.0564,1.2042-1.6291l0.7152-2.0446c0.6999-2.0069,1.4111-4.0445,2.1535-6.0596l0.034-0.0623
		c1.3864-1.8717,1.4134-1.9083,1.6061-2.5495c-0.0028-0.4445-0.0621-0.9516-0.1255-1.4629c-1.5384-0.8028-1.605-0.8513-3.155-2.1989
		c-0.3918,0.0633-0.8382,0.1284-1.2849,0.192c-0.6183,0.3463-1.2529,0.7693-1.8859,1.1913l-0.1386,0.0423h-5.6928
		c-0.7058,0.4229-0.739,0.428-1.9088,0.574l-0.3226,0.0402l0.0454-0.3226l0.0266-0.1893c0.0649-0.4632,0.1375-0.9771,0.2662-1.4928
		l0.0723-0.1221c0.9831-0.9128,0.9865-0.9162,2.8244-3.744c0.2112-0.6305,0.4496-1.2365,0.6979-1.8672l0.2854-0.7291
		c-0.0028-0.9301-0.0995-1.4856-0.1925-2.0239c-0.0686-0.3952-0.136-0.7824-0.1664-1.3036l-0.0167-0.2866l0.286,0.024
		c0.7461,0.0621,1.5038,0.18,2.3074,0.3051l0.3492,0.0538c1.618-0.0697,3.2375-0.1411,4.9638-0.2129
		c0.5547-0.2792,1.1846-0.629,1.8141-0.9788l0.121-0.0323c1.4964,0,1.4967,0.0003,2.5594,0.5315l0.07,0.0515
		c1.076,1.1435,1.1163,1.1846,1.5253,1.361h1.7388c5.5363-11.215,5.5389-11.2227,5.9632-12.6371l0.0451-0.0839
		c0.292-0.3651,0.6392-0.7815,0.9862-1.1982l4.7387-10.9854l0.0156-0.0292c0.6347-1.0582,1.2833-2.2102,1.931-3.3619
		c0.4385-1.3136,0.9357-2.6631,1.4326-4.0121l0.0096-0.0216c3.511-7.3086,7.0225-14.6183,10.5809-22.098
		c2.6419-6.4052,4.9186-11.6436,6.9594-16.3395c2.0208-4.6496,3.8112-8.7687,5.4929-12.9557l0.0692-0.0966
		c0.2214-0.1896,0.8237-1.345,1.4842-2.6118c0.638-1.2234,1.3306-2.55,1.8303-3.2766c0.2486-1.0948,0.6703-2.1595,1.1582-3.3882
		c0.3804-0.9582,0.8014-2.0191,1.2121-3.2831l0.0148-0.0343c1.9287-3.8574,1.9559-3.9101,2.6603-4.8262l0.2307-0.7917
		c0.2809-0.9686,0.5723-1.9713,0.9113-2.9886l0.0284-0.0606c0.2744-0.4119,0.633-0.9131,0.9921-1.416
		c1.0908-2.9406,1.857-4.9433,2.4579-6.5154c1.209-3.1621,1.7527-4.5828,2.9996-8.5643l0.0068-0.0196
		c0.9269-2.2819,1.8544-4.5646,2.882-6.9868l0.0068-0.0156c3.8755-7.6794,3.8973-7.7216,5.3198-9.8555
		c0.1457-0.5865,0.2829-1.2047,0.4198-1.8218l0.0332-0.0811c0.6409-0.997,1.2784-2.0577,1.9151-3.1184
		c0.0692-0.4215,0.1389-0.9063,0.2078-1.3901l0.0479-0.1142c0.4589-0.612,0.9348-1.2232,1.4099-1.8343
		c0.1409-0.563,0.2837-1.1274,0.4998-1.7031l0.0399-0.0703c0.4706-0.5791,1.6061-2.6711,2.6581-4.6091
		c0.9487-1.7484,1.8329-3.3746,2.1537-3.7307c0.603-1.2087,1.0284-2.2156,1.3943-3.0816c0.4989-1.1805,0.8901-2.1064,1.4749-2.9468
		c2.2328-4.5377,4.4665-9.0768,6.6878-13.663l0.0479-0.0683c0.4034-0.4034,0.7762-0.6695,1.1109-0.9088
		c0.3744-0.2673,0.699-0.4995,0.9496-0.8571l0.0657-0.0939l0.114-0.0116c0.5998-0.0599,1.2021-0.1713,1.8465-0.29l0.195-0.0356
		c0.2685-1.4774,0.5395-2.9636,0.8328-4.6522L146.253,0h0.21c0.2282,0,0.5329,0.0002,0.8524,0.0799l0.1729,0.0433l0.0156,0.1772
		c0.1369,1.5786,0.2741,3.1583,0.4144,4.8367c0.5928,0.0658,1.1892,0.1309,1.8091,0.1927l0.2256,0.0227V5.578v0.7199l-0.0422,0.1387
		c-0.271,0.4068-0.6242,0.9023-0.9791,1.3986c-0.0652,0.3966-0.1307,0.8484-0.1956,1.3022
		c1.2279,2.5273,2.5052,5.0805,3.7814,7.6331l0.0099,0.0227c2.4767,6.4395,5.0905,13.0464,7.704,19.6529l-0.0006,0.0002
		c1.2189,2.7956,2.5149,5.6035,3.8106,8.4113l0.0096,0.0264c0.6627,1.9882,1.4414,3.9971,2.5157,6.7697
		c1.2367,3.1918,2.8669,7.3987,5.1794,13.7968c0.4459,0.8283,1.1112,2.5373,2.4851,6.069
		c1.5503,3.9841,4.0099,10.3036,8.1029,20.3646h-0.0003c3.5637,8.3047,6.2992,14.8369,8.8841,21.0099
		c2.9758,7.1061,5.7538,13.7404,9.3189,21.9444c1.0437,1.3915,1.0508,1.3975,2.105,2.3111l0.0723,0.1054
		c2.533,7.1657,5.1168,14.2701,7.6997,21.3732h0.0002c1.2308,3.0407,2.5226,6.0551,3.814,9.0683l0.006,0.0145
		c2.5217,7.0847,3.7287,10.2924,4.9561,13.5564c0.978,2.5991,1.9698,5.2356,3.6791,9.9768
		c0.9349,2.1571,1.8703,4.3155,2.8749,6.4684l0.0158,0.0419l0.1806,0.6835c0.2285,0.8697,0.4668,1.7754,0.7484,2.6776
		c2.1971,5.2895,3.7494,9.3339,5.0343,12.6828c0.9938,2.5897,1.8295,4.7664,2.6649,6.747l0.0068,0.0187
		c1.4377,4.3138,1.4482,4.3447,1.6622,5.7719c2.1424,5.2132,2.1458,5.22,3.8633,8.297l0.0303,0.0907
		c0.2123,1.6988,0.2132,1.705,1.1291,4.2412c0.9845,1.6874,1.0151,1.7433,1.3513,3.0186c0.114,0.049,0.2264,0.1111,0.3486,0.178
		h0.0012c0.0728,0.0399,0.1488,0.0814,0.2202,0.1185h3.7576l0.0604,0.0079c0.5658,0.1412,1.1319,0.2829,1.7099,0.4961h3.026
		c1.6942-0.4164,3.1697-0.8495,4.3614-1.1996c1.4828-0.4357,2.535-0.7444,3.0823-0.7444h0.1531l0.0695,0.1387
		c0.0524,0.1051,0.1837,0.2364,0.3141,0.3668l0.0944,0.0944l-0.0261,0.131c-0.0723,0.3617-0.1451,0.7245-0.2148,1.1444
		l-0.0607,0.1258l-1.9211,2.1345c-0.921,1.9128-0.9382,1.9432-1.9244,3.1411c-0.1211,0.4737-0.2917,1.0015-0.4694,1.5372
		c0.7112,0.0646,1.4709,0.1363,2.2266,0.2622l0.2089,0.0346v0.2115v0.936v0.1117l-0.0862,0.0757
		c-0.2749,0.2407-1.9947,1.0531-4.625,2.2949c-3.4382,1.6234-8.4473,3.9892-13.7662,6.7298
		c-0.5706,0.4597-1.3133,0.913-2.0692,1.3734c-0.7983,0.4858-1.6121,0.9819-2.2252,1.4868l-0.0595,0.0362
		c-1.0565,0.4578-4.7803,2.5844-8.7262,4.8382c-3.9589,2.2606-8.1431,4.6497-10.1126,5.6259
		c-0.0933,0.2325-0.1896,0.4672-0.3081,0.7268c5.1772,0.0672,5.2583,0.0802,8.5722,0.5737l0.1406,0.0703
		c0.1364,0.1364,0.1375,0.1369,3.5966-0.0706c1.5639-0.4759,1.5679-0.4791,2.0262-0.9374l0.1474-0.0714
		c2.3783-0.2883,4.7574-0.5769,7.1932-0.9349l0.028-0.002l6.2385-0.2151c0.9986-0.2137,1.9981-0.4286,3.0659-0.7132l0.1191-0.0017
		c1.0193,0.235,1.0199,0.2356,1.3626,0.6639l0.1239,0.1551l-0.1239,0.1551c-0.3458,0.4323-0.3464,0.4326-4.0334,1.1699
		l-0.0321,0.004l-0.8081,0.0558c-3.892,0.2679-7.8426,0.5403-11.8182,0.8765c-2.147,1.0021-2.1626,1.0054-4.3336,1.4397
		l-0.0487,0.0051c-2.6691,0-2.6807-0.0006-5.0556-0.432H210.543h-0.1032l-0.0734-0.0734c-0.0714-0.0714-0.1346-0.1783-0.195-0.2934
		c-1.9774-0.0737-3.9353-0.2134-5.8924-0.3532l-6.4451,0.4297c-4.998,0.9995-4.9998,1.0001-5.9066,1.4188l-0.1102,0.0224
		c-4.8351-0.1315-8.1306-0.3696-11.1061-0.584c-1.9216-0.1386-3.7117-0.2679-5.6625-0.3518
		c-11.2794,0.5026-11.2808,0.5032-13.6375,0.9318l-0.0536,0.004c-3.6845-0.1443-7.3704-0.2897-11.0611-0.4312l-0.5332,0.0884
		c-1.1253,0.186-2.2963,0.3798-3.4654,0.6259l-0.0448,0.0048c-2.9518,0.0718-5.9043,0.1443-8.928,0.216h-0.0264
		c-1.7243-0.1435-3.4492-0.2874-5.2452-0.5026l-0.3861,0.0212c-2.4531,0.136-4.968,0.2758-7.5047,0.4813l-0.0451-0.0009
		c-1.3595-0.1429-2.7192-0.2866-4.0912-0.5023c-1.5673,0.0712-3.1359,0.1434-4.6987,0.2846l-0.5332,0.106
		c-0.917,0.1814-1.8765,0.3713-2.831,0.6097l-0.0604,0.0079c-1.3087,0-2.5535-0.0763-4.2837-0.1823
		c-2.7153-0.1664-6.6345-0.4071-13.9332-0.5389c-11.4021,0.1752-18.2971,0.3275-24.3303,0.4601
		c-8.8103,0.1939-15.7853,0.3478-32.332,0.476h-0.0037l-16.5376-0.2157c-5.9825,0.7205-5.9851,0.7208-10.0995,0.7208l-0.036-0.0031
		c-1.9176-0.2841-1.923-0.2849-4.4813-0.2849c-2.6631,0.5037-2.6728,0.504-5.3467,0.504H0.4158L0.3424,279.2106L0.3424,279.2106z
		 M24.029,273.651l0.2858,0.0927c12.6986-0.4419,23.8538-0.6122,31.443-0.7282c4.733-0.072,8.0771-0.1234,9.5477-0.2064
		l0.074,0.0068l1.692,0.4229c5.0153-0.286,10.0511-0.502,15.086-0.7177l0.0096-0.0012c5.2489,0,5.2492-0.0003,13.6596-0.7188h0.0264
		c11.5117,0.2877,11.5123,0.2877,20.1461,0h0.0264c2.8919,0.2169,5.7611,0.3606,8.6292,0.5037
		c5.3158-0.0836,8.8951-0.1023,12.9481-0.1235c6.3607-0.0329,13.8911-0.0723,31.1763-0.3801h0.0068
		c10.0038,0.144,20.0047,0.2163,30.0045,0.288c5.6409-0.4283,11.2828-0.8569,16.8786-1.2166
		c0.4788-0.6157,0.9556-1.2311,1.3623-1.8411l0.0352-0.0411c3.9016-3.7621,7.8032-7.5251,11.6394-11.222
		c-0.4626-0.0474-0.9244-0.0842-1.3867-0.0842v-0.0003c-19.3927,1.2206-19.4128,1.2226-42.8474,3.0915
		c-0.9978,0.4986-1.0659,0.5102-5.5695,1.2248l-0.1114,0.0176l-0.0867-0.0723c-0.2375-0.1979-0.4862-0.3816-0.7206-0.5541
		l-0.0008-0.0009c-0.142-0.1046-0.2798-0.2067-0.4198-0.3161c-4.4076,0.3544-8.841,0.6409-13.2735,0.9269
		c-0.6483,0.2134-1.2906,0.3571-1.9327,0.4998l-0.0507,0.0059l-32.5415,0.4312c-0.265,0.1726-0.5252,0.3183-0.7674,0.4538h-0.0008
		c-0.1429,0.0797-0.2803,0.1571-0.4053,0.2319l-0.0848,0.0323c-2.9024,0.5077-2.9026,0.508-6.5231,0.508l-0.0711-0.0108
		c-0.7416-0.2223-0.779-0.2347-1.2504-0.7047c-3.8968,0.2086-3.9178,0.2137-6.0378,0.7084l-0.0646,0.0059
		c-3.3707-0.1122-9.8028-0.049-15.5001,0.0065c-5.2155,0.0511-9.8167,0.0958-10.9125-0.0051
		c-4.7761,0.4989-4.7792,0.4997-6.1963,0.9249l-0.0791,0.0096l-6.6833-0.2157c-3.9515,0.208-7.9177,0.3498-11.819,0.4887
		l-0.3676,0.0133c-0.7812,0.3523-1.5659,0.6381-2.3491,0.9229l-0.1123,0.0139c-0.6299-0.0697-1.2736-0.07-1.9168-0.07H58.47
		l-0.0695-0.1386c-0.1644-0.3282-0.2846-0.6463-0.3946-0.9357l-0.0553-0.1483c-14.1823,0.225-22.2622,0.1933-26.6442,0.176
		c-2.4075-0.0093-3.6947-0.015-4.2591,0.029c-2.3967,2.0848-4.2984,3.6076-5.8757,4.8696c-1.2674,1.0145-2.3219,1.859-3.2907,2.7266
		c-0.0264,0.1262-0.038,0.2395-0.0431,0.347c1.6869,0.0612,3.3443,0.0623,5.0012,0.0623l0.0975,0.0208
		C23.3076,273.4197,23.684,273.5407,24.029,273.651L24.029,273.651z M218.7607,269.9455c-0.0187,0.0865-0.0298,0.1667-0.0369,0.2438
		c0.3112-0.1015,0.6126-0.1934,0.8765-0.2489c8.5396-4.809,12.1907-6.9783,17.0294-9.8527
		c2.7003-1.6039,5.773-3.4299,10.3283-6.0891c-1.3943,0.1352-3.8704,0.4742-6.3374,0.849
		c-3.3148,0.5037-6.5976,1.0689-7.1935,1.2892c-2.431,2.1268-4.8603,4.2531-6.8012,5.9434L218.7607,269.9455L218.7607,269.9455z
		 M29.9049,263.6155c0.6829,0.0476,1.3802,0.0485,2.0781,0.0485v0.0011c15.3179-0.2157,15.3473-0.216,19.2164-0.0011
		c1.8768-0.2007,3.7494-0.3393,5.5638-0.4731l0.3325-0.0247c0.0638-0.0454,0.1208-0.0901,0.1738-0.1361
		c-0.5511-0.1324-2.5824-0.254-11.8321-0.811c-12.8684,0.2798-13.2032,0.2869-15.3981,0.6182
		C29.9942,263.1073,29.9494,263.3734,29.9049,263.6155L29.9049,263.6155z M66.4367,263.1331
		c1.5936,0.316,1.9689,0.3254,11.4103,0.532v-0.0011c0.739,0,2.8383-0.252,4.7135-0.5344c0.7926-0.119,1.5404-0.2392,2.1155-0.341
		c-1.4893-0.0862-5.0589-0.1312-16.874-0.2812c-0.4431,0.1264-0.8861,0.2517-1.3371,0.3293
		C66.4475,262.9426,66.4398,263.0395,66.4367,263.1331L66.4367,263.1331z M90.5439,262.4366
		c2.0404,0.1193,4.0365,0.2319,6.016,0.292c3.5869-0.2149,7.1926-0.3592,10.7974-0.5034h0.0156
		c2.6719,0.072,5.345,0.1448,7.8996,0.2154c1.2759-0.1414,2.5526-0.2843,3.7865-0.4289c0.7092-0.1843,1.2592-0.3711,1.8743-0.5797
		c1.0443-0.3543,2.2768-0.773,4.8101-1.3609l0.0556-0.0071h2.16l0.1446,0.0471c0.3101,0.2214,0.6134,0.4116,0.8997,0.591
		l0.0002-0.0006c0.161,0.1006,0.3181,0.1984,0.4703,0.2985h11.2292v0.0009c14.0655-0.4156,14.5568-0.4306,15.4554-0.6829
		c0.3512-0.6426,0.4402-0.7642,1.3762-1.5661c-4.0661-0.0672-8.1366-0.1318-12.2956-0.1318v-0.0003
		c-30.4064,1.9403-30.4421,1.9431-34.9772,1.9431C103.6675,261.1873,97.0735,261.8121,90.5439,262.4366L90.5439,262.4366z
		 M58.9669,260.5393c0.0808,0.4008,0.0964,0.4345,0.1948,0.4615l28.2416-0.2154l1.1619-0.127
		c3.5141-0.3838,6.9778-0.7625,10.4755-1.0877l0.0116-0.0139c-0.7498-0.3041-1.4445-0.5564-2.1382-0.8087l-0.1649-0.0601v-0.1741
		c0-1.1846,0.0008-1.34,0.3546-1.9669c-0.6032-0.078-1.027-0.0448-3.6706,0.18v0.5c0.1877,0.1264,0.3676,0.2554,0.5026,0.3904
		l0.0907,0.0905l-0.0212,0.1272c-0.0678,0.4079-0.0681,0.8317-0.0681,1.2549v0.1831l-0.1758,0.055
		c-1.1543,0.3606-2.3091,0.7217-3.3947,1.0111l-0.0635,0.0088h-1.944l-0.0703-0.0107c-1.2753-0.375-1.2758-0.3753-1.8935-0.9159
		l-0.0862-0.0754v-0.112v-0.936v-0.1031l0.0734-0.0735c0.9377-0.9377,1.1251-1.1253,1.2285-1.4941
		c-11.4848,0.8402-11.5129,0.8391-14.1687,0.6956l-0.1845-0.0102l-0.0448-0.1783c-0.0797-0.3195-0.08-0.5502-0.08-0.7804v-0.229
		l0.2285-0.0199c5.0998-0.4433,11.0279-0.7744,16.1345-1.0595c4.7951-0.2676,8.8643-0.4949,10.8567-0.7396l0.0276-0.0009
		l14.904-0.216l0.0272,0.0009l4.2866,0.4286l2.56-0.4266l0.0547-0.0028c2.4166,0.1378,4.8348,0.2761,7.1391,0.411
		c-0.5703-0.1241-1.5743-0.2503-2.9557-0.4243c-1.6832-0.2123-3.9192-0.4944-6.613-0.9318l-0.0839-0.0295
		c-0.4544-0.2596-0.4555-0.2602-9.7438-0.9745c-8.1139,0.5026-8.1298,0.5042-22.9946,1.9403
		c-1.7929,0.3583-3.5251,0.6472-5.2566,0.9357l-0.0283,0.0028c-4.2381,0.2155-8.4938,0.36-12.7488,0.5041h-0.0284
		c-2.5775-0.2146-5.0601-0.3583-7.541-0.4998l-0.4907,0.3271l-0.013,0.0777v0.0009c-0.0482,0.2809-0.0901,0.5315-0.1037,0.7735
		c0.3614,0.1803,0.7172,0.3549,1.023,0.4799l0.1627,0.004c2.9262,0.0695,5.7864,0.1378,8.7112,0.1378h0.2948l-0.0488,0.2911
		c-0.0697,0.4199-0.14,0.8402-0.14,1.1829v0.2372l-0.2384,0.0116c-3.0022,0.1429-6.0052,0.286-8.9509,0.3583
		C59.7807,259.7635,59.7033,259.8043,58.9669,260.5393L58.9669,260.5393z M29.3542,260.7196
		c2.2558,0.0634,4.4943,0.0643,6.7328,0.0643v0.0011l12.8619-0.2143c2.1047-1.8944,2.1359-1.9153,4.9986-3.8478l0.0544-0.0272
		c0.7682-0.2795,1.5378-0.5593,2.3148-0.7758c0.0876-0.1131,0.1692-0.2098,0.2463-0.3008c0.0904-0.1063,0.1743-0.2053,0.2407-0.2988
		c0.356-1.7864,0.6409-3.4931,0.9252-5.1996l0.0079-0.032c1.9457-6.2697,1.9494-6.281,5.7453-17.024
		c-0.1922-2.1146-0.2078-2.2626-0.4776-2.7567c-1.008-0.106-1.5857-0.2273-2.2011-0.3574
		c-0.6341-0.1338-1.3113-0.2773-2.5688-0.4207l-0.1106-0.0128l-0.0652-0.0927c-0.538-0.7685-0.5383-0.769-0.7628-2.2666
		l-0.0161-0.1089l0.0717-0.0861c1.4391-1.7271,2.8599-3.3622,4.2795-4.9947c0.4224-2.1129,0.4328-2.1402,1.4386-4.7982
		l0.0244-0.0479c0.9388-1.4442,0.9521-1.4647,2.143-2.6555c0.1658-0.7004,0.4051-1.4714,0.6891-2.3848h0.0003
		c0.4793-1.5429,1.0871-3.4977,1.6685-6.1806l0.0187-0.0527c0.2024-0.434,0.347-0.7367,0.4859-1.0281
		c0.3362-0.7053,0.6622-1.389,0.9473-2.0535c1.9366-5.7381,1.9375-5.7413,2.8709-9.3313l0.0215-0.0558
		c0.2222-0.413,0.5448-1.4057,0.8737-2.4188c0.3781-1.1653,0.7656-2.359,1.0556-2.8162c0.3526-1.6985,0.6386-3.3415,0.9244-4.9848
		l0.006-0.0263l0.8657-3.0223c1.0123-3.5311,2.0152-7.0288,2.948-10.4304l0.1789-0.8912c0.296-1.4692,0.5837-2.8984,0.8255-4.3489
		l0.0088-0.036c0.9266-2.8522,0.9473-2.9131,1.4411-3.6196c0.2203-1.2379,0.4079-1.9168,0.8609-3.5555
		c0.4224-1.5282,1.0794-3.9033,2.2292-8.4323l0.0147-0.0422l1.9383-4.3075c0.2809-0.9011,0.5191-1.8054,0.7473-2.6739l0.1805-0.6834
		l0.0139-0.0391l1.9366-4.3039c0.6466-2.1555,1.2935-4.3118,1.8655-6.457l0.008-0.0252c1.1497-3.0183,2.3-6.0372,3.382-9.0672
		l0.0323-0.0607c0.2214-0.3102,0.4116-0.6134,0.591-0.8997l-0.0005-0.0002c0.1068-0.1712,0.2117-0.3373,0.3183-0.4987
		c1.4173-4.962,1.4423-5.0436,1.9454-5.7634c0.5315-1.9023,1.9485-5.6576,3.183-8.9288c0.9947-2.6354,1.8706-4.9558,2.0597-5.713
		l0.0391-0.0842c0.3444-0.4822,0.6894-0.9643,0.9802-1.3989l0.3977-1.4958c0.5108-1.9182,1.0125-3.8015,1.463-5.6594l0.0116-0.036
		c1.1463-2.7944,2.2932-5.5897,3.382-8.3481l0.0108-0.0235c1.3031-2.5339,2.607-5.0686,3.8072-7.469
		c0.4995-1.4281,0.9995-2.8568,1.4312-4.2959l0.0275-0.0607c0.3532-0.5652,0.7076-1.1313,0.9919-1.6279
		c1.3827-3.8951,3.2564-8.4569,6.0003-15.1384c1.9519-4.7537,4.3464-10.5834,7.3225-18.0213l-0.0544-0.0397
		c-0.1667,0.1658-0.2325,0.3824-0.5613,1.4783l-0.0499,0.0909c-0.4308,0.5026-0.8623,1.0066-1.1945,1.4046
		c-0.9255,2.563-0.9383,2.5903-1.9372,4.0175c-0.3586,1.0063-0.6414,1.9242-0.9235,2.8409l-0.0303,0.0655
		c-0.2118,0.3177-0.4595,0.6769-0.7036,1.0301c-0.3311,0.4802-0.6525,0.9459-0.9434,1.4026
		c-2.3349,4.7565-3.4211,7.2513-4.0251,8.638c-0.394,0.9054-0.5865,1.3476-0.7948,1.6537c-0.9355,2.3239-1.8542,4.862-2.6669,7.1082
		c-0.8677,2.3987-1.6163,4.4671-2.1421,5.6004c-0.5565,1.838-1.4658,4.0283-2.2051,5.8091
		c-0.5052,1.2175-0.9309,2.2427-1.1035,2.8185l-0.0195,0.047c-0.4031,0.7484-0.7118,1.423-1.0933,2.2572
		c-0.5797,1.2668-1.3263,2.8981-2.7879,5.6506c-0.2041,0.5446-0.37,0.9811-0.5264,1.3927c-0.466,1.2291-0.9224,2.4319-1.3368,3.6232
		l-0.0128,0.0295c-1.3124,2.6248-2.5943,5.1174-3.8752,7.6085c-0.4303,1.7218-0.4535,1.7764-4.7568,12.0328l-0.0079,0.0156
		c-1.3434,2.6472-2.0798,4.2766-2.5535,5.3251c-0.3821,0.8453-0.5958,1.3195-0.8291,1.6617
		c-0.8444,2.5313-1.3643,3.8186-1.7376,4.7421c-0.2594,0.6426-0.4476,1.1083-0.6231,1.694l-0.0479,0.0879
		c-0.1752,0.2103-0.3481,0.4011-0.5122,0.5825c-0.167,0.1845-0.326,0.3614-0.4615,0.5278
		c-0.4235,1.4111-0.5057,1.5843-8.1363,17.7729l-0.0488,0.0703c-0.235,0.235-0.4737,0.7438-0.9853,1.8354
		c-0.4779,1.0202-1.188,2.5348-2.34,4.7719c-0.2718,1.0556-1.3745,3.5427-3.0226,7.2643c-1.1628,2.6249-2.598,5.864-4.1834,9.5933
		l-0.0116,0.0244c-0.203,0.3609-0.4572,0.8025-0.7087,1.2393c-0.4011,0.6971-0.7923,1.3768-1.1574,2.0605
		c-3.5864,7.6215-5.6934,12.4515-7.2417,16.0013c-0.9354,2.1444-1.6679,3.8234-2.4007,5.3711
		c-0.8124,2.0934-1.368,3.3607-2.0475,4.9122c-0.8819,2.0135-1.9757,4.5102-4.1414,9.9856l-0.0411,0.0672
		c-0.1752,0.2103-0.3481,0.4011-0.5122,0.5825c-0.1715,0.1897-0.3348,0.3702-0.4728,0.5409
		c-1.6415,3.5722-2.649,6.1092-3.304,7.7593c-0.4822,1.2149-0.777,1.9573-1.0055,2.3023c-0.4782,1.3586-0.8439,2.2104-1.1438,2.9112
		c-0.282,0.6579-0.5068,1.1821-0.7138,1.872l-0.0119,0.0315c-2.2173,4.9272-3.2403,7.4432-3.8027,8.8271
		c-0.4175,1.027-0.5859,1.4406-0.8099,1.7697c-0.6809,1.7282-1.2535,3.0679-1.794,4.3339c-0.9272,2.1719-1.764,4.1312-2.9446,7.5827
		l-0.0156,0.0363c-0.646,1.2206-1.2926,2.4421-1.9335,3.5821c-0.3413,1.1537-0.6967,2.2141-1.0284,3.2054
		c-0.5652,1.6889-1.065,3.1813-1.3337,4.6601l-0.042,0.1007c-0.3405,0.4765-0.6809,0.9532-0.9695,1.3839
		C29.3632,259.7839,29.3553,260.2513,29.3542,260.7196L29.3542,260.7196z M52.0458,260.3582c0.0368,0.36,0.0493,0.4014,0.127,0.4249
		c1.4737-0.0685,2.8548-0.0711,4.233-0.0711c0.606-0.8702,1.2146-1.6838,1.8232-2.495v-0.4073
		c-1.7229-0.1222-1.8-0.11-3.0946,0.2137C54.0913,258.8561,53.0677,259.6085,52.0458,260.3582L52.0458,260.3582z M164.8661,258.3451
		c0.5443,0.5309,1.0882,1.0162,1.6322,1.4998c7.0203-0.2809,7.0974-0.2854,10.5919-0.7047
		c0.2318-0.2324,0.4606-0.4637,0.6397-0.6865c-0.0368-0.1919-0.0484-0.3784-0.0518-0.5627l-6.2206-0.2075
		C166.2956,258.0845,165.2942,258.1625,164.8661,258.3451L164.8661,258.3451z M104.084,257.4108
		c-0.1239,0.6199-0.2475,1.2401-0.324,1.851c9.584-0.3662,15.2141-0.688,22.5868-1.1095
		c5.5417-0.3169,12.0711-0.6905,22.0487-1.1832h0.032l2.5753,0.2145c5.2866-0.3568,10.5242-0.6446,15.7609-0.9315
		c0.0811-0.0476,0.1619-0.0907,0.2409-0.1318c-2.5775-0.3807-2.9372-0.4011-6.7637-0.5924
		c-0.4717,0.4703-0.5092,0.4828-1.2507,0.7053l-0.1998,0.0598l-0.0938-0.1876c-0.1136-0.2274-0.2342-0.4164-0.3546-0.5981
		c-1.5974-0.199-1.7668-0.1993-8.9513-0.1993c-0.3806,0.1639-0.3954,0.1899-0.7699,0.8138l-0.0734,0.1222h-0.1403
		c-0.5893,0-0.6157-0.0009-1.1253-0.5823c-1.7964-0.0802-2.6181-0.034-4.6114,0.0774c-1.2849,0.072-3.0586,0.1703-5.9179,0.2815
		c-0.1292,0.2415-0.2534,0.4294-0.3776,0.616l-0.0873,0.1304l-0.1556-0.0221c-1.0151-0.1451-1.1154-0.1602-1.3286-0.5009
		c-7.0458,0-7.1073-0.0037-13.5125-0.5018c-0.3615,0.1162-0.7126,0.1848-1.0233,0.2449v0.0003l-0.1806,0.0354l-0.0734,0.0031
		c-1.94-0.2004-3.89-0.3396-5.7807-0.4745l-0.3983-0.0284l-10.5251,0.2149c-0.3835,0.1437-0.7662,0.2874-1.1284,0.4323
		l0.3793,0.2149l0.0005-0.0008c0.4828,0.2718,0.9471,0.534,1.3896,0.7551l0.171,0.0853L104.084,257.4108L104.084,257.4108z
		 M167.8901,254.524c5.7492,1.0057,5.7586,1.008,10.0414,1.436c5.9616,0,5.9823-0.0008,16.3128-0.5703
		c2.9665-2.5455,4.826-4.3342,6.1007-5.5616c0.8189-0.7877,1.3992-1.3476,1.8834-1.7317c-0.0017-0.7713-0.0352-0.9073-0.7334-3.3831
		c-17.0679-0.9243-17.075-0.9238-18.269-0.7132l-0.1545-0.0235c-0.2974-0.1488-0.6072-0.2661-0.8886-0.373
		c-0.0933-0.0352-0.1843-0.07-0.2761-0.1064l-10.9426-0.4291l-1.9117,0.4249l-0.078,0.0051
		c-0.8401-0.0839-1.3807-0.1664-1.8416-0.2367c-0.7362-0.1119-1.2693-0.1933-2.454-0.1933l-0.1446-0.0471
		c-0.4757-0.3396-0.9525-0.6806-1.3825-0.9689l-4.4257-0.4215c-0.4147,0.1182-0.8286,0.2356-1.207,0.3127
		c0.064,1.7061,0.0916,1.8754,0.7701,5.9488c0.5009,0.5723,0.9995,1.1426,1.395,1.6038l0.0567,0.1202
		c0.2885,1.6605,0.3016,1.7388,0.0147,2.2459l0.3815,2.0979c2.6065,0.2108,5.2112,0.4218,7.7233,0.5612L167.8901,254.524
		L167.8901,254.524z M196.7825,255.007c0.0417,0.1723,0.0791,0.3447,0.0992,0.5207c5.5301,0,5.7438-0.0034,7.461-0.2571
		c0.0434-0.4042,0.0457-0.8181,0.0457-1.2317c-0.4799-0.8918-0.5043-0.9745-1.2433-4.1309h-1.0423
		c-0.1902,0.2733-0.3568,0.5406-0.5159,0.7943l0.0005,0.0003c-0.1145,0.1834-0.2262,0.3614-0.3407,0.5332l-0.0456,0.0516
		C199.7319,252.5468,198.2611,253.8062,196.7825,255.007L196.7825,255.007z M206.4104,254.8737
		c0.2367,0.123,0.4209,0.2421,0.5987,0.36c3.795-0.3512,7.5897-0.7027,11.2759-0.9834v-0.9924v-0.1065l0.0783-0.074
		c1.3552-1.2838,2.711-2.5691,4.0864-3.8001c0.6426-0.9269,1.2889-1.7881,1.9344-2.6487l0.0545-0.0536
		c0.3087-0.2206,0.6262-0.4195,0.9255-0.6072v-0.0009c0.1508-0.0941,0.2971-0.1866,0.4337-0.2758
		c0.0408-0.2058,0.0794-0.4085,0.1009-0.5916l-0.1247,0.0074c-2.2997,0.1355-4.54,0.2676-6.8,0.3359h-0.0196
		c-3.8268-0.2086-7.64-0.3498-11.3874-0.4887l-0.288-0.0105c-0.7928,1.0565-0.8668,1.1262-2.8939,2.8828v1.0792
		C205.5756,253.1091,205.5957,253.1761,206.4104,254.8737L206.4104,254.8737z M59.4437,248.9904
		c-0.2662,1.8646-0.5326,3.7301-0.7416,5.5406c0.5499-0.222,0.7152-0.3478,1.7135-1.1112l0.091-0.0439
		c0.5156-0.1287,1.0295-0.2013,1.4927-0.2661l0.1893-0.0267l0.0998,0.0068c0.7727,0.2106,1.55,0.3529,2.327,0.494h13.9419
		c4.5164-0.5017,4.5238-0.5032,9.5409-1.4349l0.0272-0.0039c6.9055-0.5034,13.8115-1.0071,20.666-1.44h0.0235l6.48,0.216
		l0.0291,0.002c4.9394,0.76,9.8419,1.4593,14.6949,2.1512l2.0574,0.2937h2.6796c0.1917-0.7254,0.502-2.588,0.7543-4.4288
		c0.2361-1.724,0.4209-3.4203,0.4107-4.1306c-0.845-0.7078-1.6075-1.4009-2.3698-2.0939l-0.0303-0.0343
		c-0.5562-0.7314-1.1733-1.5296-1.783-2.3182c-0.7487-0.9677-1.4879-1.925-2.2266-2.9089c-1.4159-1.0349-2.6164-2.0372-3.818-3.0401
		c-1.0757-0.8983-2.1538-1.7989-3.3557-2.7l-0.034-0.03c-0.6945-0.7523-1.5338-1.6685-2.3766-2.5878
		c-6.3414-0.2112-6.4848-0.2112-32.5023-0.2112c-6.8658,0.5006-13.7321,1.0012-20.548,1.4323
		c-0.3282,0.3677-0.633,0.7279-0.9286,1.0775c-0.2673,0.3161-0.5281,0.6245-0.7758,0.9043l-1.9196,4.6925
		c-0.5304,2.037-1.0607,3.6153-1.7731,5.7353C60.9352,244.3456,60.2841,246.283,59.4437,248.9904L59.4437,248.9904z
		 M220.1814,253.6293c-0.0728,0.1939-0.1267,0.3918-0.1718,0.5766c2.6209-0.2069,5.2401-0.4141,7.7924-0.6208
		c6.5046-0.9091,6.6469-0.9295,7.4316-1.2558c1.3828-1.5902,1.4012-1.6219,3.2428-4.9515l0.0332-0.0468l1.9044-2.1158
		c0.1046-0.3679,0.2083-0.7344,0.2812-1.0661c-7.545,0.0683-7.6547,0.0763-12.0376,0.5629
		c-2.0242,2.0243-2.0534,2.0495-3.8956,3.4665c-0.5751,0.7818-1.137,1.5778-1.6877,2.3579c-0.3799,0.5383-0.7566,1.0715-1.169,1.643
		l-0.0383,0.042C221.307,252.7115,220.746,253.2013,220.1814,253.6293L220.1814,253.6293z M152.8773,253.5547
		c0.5649,0.1146,1.1429,0.1803,1.7203,0.2441c1.019-0.1344,2.0268-0.2061,3.0339-0.2736c0.0556-0.4521-0.0187-1.3513-0.1017-2.3544
		c-0.0726-0.8736-0.1519-1.8252-0.1568-2.6555c-0.201-0.2712-0.3314-0.4672-0.4618-0.6627l-0.0371-0.0899
		c-0.3476-1.7388-0.6307-3.4203-0.9105-5.0995c-1.3745-0.3112-1.4751-0.3096-3.8012-0.1766
		c-0.1335,0.0947-0.2384,0.1925-0.3374,0.2897v3.0563C152.1734,248.4099,152.5212,250.9872,152.8773,253.5547L152.8773,253.5547z
		 M137.3663,253.3104c0.4933,0.1117,0.9493,0.2151,1.4103,0.2735h6.1781c0.2268-0.1341,0.4266-0.2406,0.6171-0.3385
		c-0.7753-0.9592-1.5693-1.8867-2.3627-2.8125c-0.9865-0.4935-1.0414-0.5392-4.2726-3.3488
		c-0.3351-0.0558-0.6679-0.1117-0.961-0.1667c-0.2625,0.654-0.2625,0.9409-0.2625,4.3965l-0.0108,0.0712
		c-0.1888,0.6296-0.3232,1.2642-0.451,1.8995L137.3663,253.3104L137.3663,253.3104z M237.9915,250.9795
		c-0.1075,0.4298-0.2146,0.8589-0.2891,1.2527c1.8822-0.3186,3.717-0.5828,5.5491-0.8445c-0.0629-0.8096-0.1278-1.5945-0.193-2.3783
		c-0.4056-0.7438-0.8107-1.4882-1.1534-2.2278c-0.2704-0.0533-0.5408-0.1021-0.8051-0.1122
		C239.9029,247.8671,239.8604,247.9339,237.9915,250.9795L237.9915,250.9795z M243.265,245.5049
		c0.8467,1.9752,1.6707,3.8307,2.4937,5.6826l6.4505-0.8322c0.1805-0.1205,0.3566-0.2404,0.4742-0.3524
		c1.3646-2.3198,1.4205-2.4193,3.0285-6.0208c-4.335,0.5253-4.4234,0.5258-7.2249,0.5258l-0.0868-0.0168
		c-0.5471-0.205-1.108-0.3472-1.6676-0.4873h-3.3511C243.322,244.5355,243.2685,245.0211,243.265,245.5049L243.265,245.5049z
		 M143.0167,248.5944l1.9114,1.0619l0.0779,0.0683c0.0474,0.0632,0.0581,0.0776,0.1318,0.0247
		c0.142-3.9155,0.2857-7.7621,0.4277-11.6076l-0.4277-8.3455c-0.0936-0.1404-0.1854-0.279-0.2574-0.4012
		c-1.2286,0.0681-2.4571,0.1335-3.6709,0.1364c-0.1556,0.104-0.3067,0.2078-0.4181,0.3056
		c-0.9227,5.6784-0.9292,5.7095-1.929,9.9941c-0.2097,2.7984-0.2134,2.8522-0.0779,5.2234
		C140.8547,246.4347,140.8972,246.4749,143.0167,248.5944L143.0167,248.5944z M203.3887,244.8646
		c0.0482,0.9462,0.0689,1.0817,0.2543,1.2819c0.2945-0.0578,0.5905-0.1111,0.8918-0.1213l0.7674-0.7673
		c-0.0323-0.1743-0.0437-0.3436-0.0477-0.5116C204.6305,244.8019,204.0069,244.8527,203.3887,244.8646L203.3887,244.8646z
		 M206.5464,243.144c2.1263,0.1616,5.3694,0.4088,10.4743,0.8637c1.785-0.1369,3.5892-0.2089,5.3289-0.2784l0.1905-0.0076
		c4.2375-0.487,8.8636-0.8578,12.4078-1.1412c2.8508-0.2279,4.9947-0.4006,5.6245-0.5182c-0.1046-0.597-0.2634-1.1486-0.4884-1.9287
		c-0.2718-0.9425-0.6386-2.2127-1.1157-4.2625c-0.9216-1.2053-0.9332-1.233-1.9426-3.6125l-0.0099-0.0264
		c-0.5414-1.8329-0.938-2.7442-1.5424-4.134c-0.4359-1.0026-0.9805-2.2541-1.7629-4.2704l-0.0125-0.0459
		c-0.142-0.7824-0.2849-1.5659-0.3589-2.3508c-1.0692-2.139-1.0766-2.1614-1.578-4.3106
		c-4.8022-10.5364-4.8217-10.5789-5.7492-13.434c-0.2738-0.4261-0.682-1.669-1.0902-2.9115
		c-0.4079-1.2424-0.8167-2.4857-1.0468-2.8145l-0.0312-0.0615c-2.3911-6.8942-3.9005-10.944-5.419-15.0191
		c-1.2289-3.2981-2.4651-6.6141-4.155-11.397c-1.4695-3.5274-4.2021-10.5976-6.7816-17.2718
		c-2.4503-6.3391-4.7625-12.3207-5.7231-14.5701l-0.9026-0.9026l-0.0459-0.0652c-1.948-3.8965-1.9505-3.901-3.8214-8.9382
		c-0.9314-1.9338-3.1444-7.2034-5.623-13.1055c-2.7587-6.5695-5.8465-13.9221-7.8395-18.2843l-0.0048-0.0116l-6.6937-16.8423
		h-0.0003c-3.8871-9.0697-3.8911-9.0788-5.762-14.6197c-1.8728-4.6134-3.2794-8.293-4.3455-11.084
		c-1.1443-2.9951-1.8978-4.9658-2.4128-5.9595l-0.0116-0.0264c-1.4465-3.8339-4.0981-10.3698-6.5047-16.13
		c-2.3715-5.6772-4.5012-10.5928-4.995-11.4041l-0.0224-0.0487c-0.6486-1.8745-1.2983-3.7505-1.8692-5.5332
		c-1.7303-3.4606-1.7819-3.5612-2.6303-4.737c-0.4595,0.0014-0.523,0.0179-0.7795,0.2285l-0.4286,15.0006
		c0.2151,6.9594,0.2157,6.9614,0.7188,11.4928l0.002,0.0273c0,4.5031-0.0312,7.778-0.0629,11.1254
		c-0.0644,6.7974-0.1324,13.9076,0.0612,34.4052c2.6362,7.4818,5.2733,14.9647,7.8962,22.5417
		c0.3178,0.493,1.3708,3.1706,2.4066,5.9962c1.0667,2.9092,2.1294,5.9941,2.3584,6.9987c1.9377,5.0236,1.9409,5.0307,5.3158,12.2114
		l0.0216,0.0695c0.212,1.4139,0.2129,1.4196,1.1335,4.2522c0.2401,0.3597,0.7186,1.5644,1.222,2.8358l-0.0008,0.0003
		c0.5712,1.4426,1.1783,2.9738,1.4184,3.3171l0.0332,0.0663c0.9394,2.9222,1.6424,4.8665,2.1747,6.3394
		c0.5653,1.5627,0.94,2.6005,1.2022,3.7077c0.1675,0.2134,0.3033,0.4119,0.4286,0.5958c0.0947,0.1389,0.1854,0.2722,0.2602,0.3719
		l0.0411,0.0819c1.7093,6.0536,3.3741,12.1331,5.0383,18.2114c0.131,0.3634,0.3243,0.8947,0.513,1.4137
		c0.4649,1.2781,0.9202,2.5288,1.3456,3.8038c0.2769,0.4357,0.8671,2.0613,1.5109,3.8358c0.6715,1.8519,1.4037,3.869,1.8706,4.8033
		l0.0175,0.0439c0.5032,1.7972,1.0063,3.5944,1.4372,5.3167l1.936,4.5173l0.0099,0.0264c0.6463,2.1548,1.2935,4.3106,1.8709,6.4757
		c2.5702,6.9976,5.1415,13.9958,7.7,21.0875l0.004,0.0108c1.944,6.2651,1.9463,6.2711,3.8154,13.964
		c0.9924,2.3403,1.0086,2.3808,1.9091,5.6364C203.1713,242.886,204.1535,242.9617,206.5464,243.144L206.5464,243.144z
		 M189.3024,242.4489c2.1461,0.1539,4.6738,0.3354,9.2166,0.5516V243c1.8062,0,2.0398-0.0009,2.2615-0.1539
		c-0.0666-0.9269-0.1346-1.8085-0.2024-2.6886c-0.1406-0.241-0.2483-0.474-0.3464-0.6863
		c-0.0504-0.1089-0.0992-0.2137-0.1352-0.2858l-0.0176-0.0439c-2.5435-9.0309-4.2645-14.4921-5.3362-17.8951
		c-0.7452-2.3653-1.1793-3.742-1.3609-4.6401c-1.4219-3.5552-1.4247-3.5597-2.4197-5.1945l-0.0301-0.0763
		c-0.1533-0.6905-0.3189-1.2606-0.4762-1.8036c-0.2792-0.9629-0.5357-1.8459-0.6766-3.221c-0.5672-1.135-1.135-2.2689-1.7039-3.3358
		l-0.0196-0.0459c-0.6454-2.1518-1.2914-4.3044-1.8683-6.4664l-1.9338-4.0825l-0.0247-0.1063v-1.3952
		c-3.0784-8.0901-3.086-8.113-5.0221-14.5664c-0.2182-0.4368-0.3555-0.7038-0.4989-0.9839
		c-0.3316-0.6469-0.6525-1.2736-0.9354-1.8862l-0.0156-0.0428c-2.0089-7.8928-2.0095-7.8933-2.6425-9.0893l-0.0235-0.0635
		c-0.4615-2.1299-0.815-3.4795-1.1069-4.5946c-0.3047-1.1622-0.5437-2.0756-0.7625-3.3094
		c-0.527-1.2467-0.8949-2.4256-1.1682-3.3004c-0.235-0.7531-0.3954-1.2671-0.4677-1.3212l-0.0839-0.1122
		c-1.8731-5.0428-1.8794-5.0598-2.382-7.5016c-1.1596-2.7544-2.3198-5.5094-3.376-8.1153l-0.006-0.0176
		c-0.6423-1.9987-1.2858-3.9983-1.8564-5.9207l-0.6749-0.6749l-0.0487-0.0712c-1.0041-2.1515-1.0284-2.2022-1.099-3.1836
		c-0.8402-1.1208-0.8731-1.2036-2.795-5.9731l-0.0167-0.0655l-0.2081-1.8726c-0.2736-0.3436-0.4763-0.6151-0.6789-0.8852
		l-0.0363-0.0675c-1.0128-2.8936-1.9466-5.7657-2.8794-8.6366c-0.8802-2.0551-2.1402-5.294-3.4365-8.6264
		c-1.4275-3.6697-2.9001-7.4534-3.9555-9.8878c-0.0439,0.9326-0.0434,3.386-0.0434,10.2767
		c0.2137,1.1438,0.3574,2.2204,0.5009,3.2959l0.002,0.0315c0.1145,18.6123,0.2293,28.2191,0.3118,35.1173
		c0.0731,6.1509,0.1214,10.1699,0.1214,16.2916h-0.0003c0.1159,1.832,0.186,4.2,0.2894,7.7368
		c0.1513,5.1622,0.377,12.8257,0.9315,25.0325c0.1519,0.3106,0.2662,0.6122,0.3705,0.8869c0.0414,0.1094,0.0817,0.2158,0.1183,0.307
		l0.0175,0.076c0.1508,2.2611,0.2857,3.8109,0.4059,5.1899c0.2191,2.5166,0.3892,4.4654,0.5295,9.4181l0.2055,1.2897
		c0.4325,2.7102,0.8578,5.3756,1.2288,8.0317c0.2758,0.7231,0.6576,3.3922,1.0321,6.0177c0.3396,2.382,0.6752,4.7296,0.9074,5.4932
		l0.0088,0.0411c0.1545,1.2104,0.2934,2.027,0.4618,3.0163c0.2925,1.7209,0.6749,3.9694,1.4008,9.8592l0.7546,0.7546l1.6602,0.415
		l0.0578,0.0224c0.9607,0.5173,2.2022,1.0202,3.2701,1.4525c0.945,0.3824,1.7575,0.7115,2.1577,0.9652
		c1.6736,0,1.7122,0.006,2.8469,0.4315c0.7747-0.0006,1.3527-0.0173,2.0086-0.0363c1.7152-0.0504,3.9552-0.1162,10.4845,0.038
		l0.0596,0.0088c0.7755,0.2115,1.5559,0.354,2.3357,0.4958C185.4623,242.1734,187.1989,242.2981,189.3024,242.4489
		L189.3024,242.4489z M130.61,236.1934c2.8279,3.9589,2.8721,4.0213,4.9229,6.3456c0.1737-0.0422,0.3441-0.0814,0.5006-0.1012
		c0.4583-2.1676,0.4807-2.4667,1.1658-12.9514c-0.7347-0.1335-1.4592-0.2662-2.0659-0.3873
		c-4.208,0.0698-8.4155,0.1401-12.5348,0.1443c0.197,0.4136,0.36,0.7917,0.5207,1.1673c2.1124,1.4085,2.1398,1.4343,4.278,3.5725
		c1.0673,0.7115,2.1348,1.4239,3.1541,2.1518L130.61,236.1934L130.61,236.1934z M150.3836,227.1004h0.0003
		c0.9581,10.9522,1.0003,11.4378,1.2884,11.9174c0.0587-0.0133,0.2273-0.17,1.0885-0.9833c-0.14-3.0163-0.2832-6.016-0.4261-9.0153
		l-0.1338-0.9348c-0.3149-2.1955-0.6228-4.3433-0.8739-6.478l-0.0008-0.0099c-0.3376-4.4606-0.6137-8.9479-0.8858-13.3739
		l-0.0414-0.671c-0.1006-0.0504-0.1992-0.1003-0.2943-0.1508C150.2422,214.0083,150.3136,220.555,150.3836,227.1004
		L150.3836,227.1004z M154.8479,233.7327v3.363c0.0199-0.0062,0.0439-0.0181,0.0771-0.0366v-2.999L154.8479,233.7327
		L154.8479,233.7327z M138.577,229.8019v4.5045c0.1089-0.197,0.2101-0.385,0.2979-0.5584c0.1344-1.277,0.2684-2.5552,0.3424-3.8259
		C138.9869,229.8815,138.7786,229.8416,138.577,229.8019L138.577,229.8019z M61.1005,226.5925
		c2.6821,0.0683,5.3663,0.1355,8.1065,0.1355v0.0009c11.7513-0.2979,16.5243-0.4196,18.5091-0.504
		c-1.9289-0.2296-5.4771-0.6074-8.9824-0.9808c-4.6925-0.4997-9.3104-0.9927-10.061-1.1863c-1.9074-0.2117-1.927-0.214-5.269-0.0748
		l-2.0455,1.8411l-0.0901,0.2616C61.2059,226.2637,61.1478,226.4304,61.1005,226.5925L61.1005,226.5925z M118.5576,226.22
		c2.7499,0.0805,4.4683,0.1307,4.8892,0.2191c12.2062-0.6423,13.4277-0.7075,13.7662-0.887c0-5.6398,0.0037-5.6679,0.434-8.5388
		c1.4386-28.5539,2.1581-34.5379,2.1581-37.4114l0.0275-0.1114c0.1488-0.2974,0.2662-0.6072,0.3731-0.8886
		c0.0348-0.0922,0.0677-0.1826,0.1035-0.2733c0-3.5501,0.0079-3.636,1.658-22.0763l0.0099-0.0515
		c0.1242-0.4045,0.1956-1.3553,0.3753-3.7613c0.2097-2.8043,0.5669-7.5782,1.3428-15.844l0.0088-0.0487
		c0.2273-0.7586,0.3339-1.8859,0.4617-3.2429c0.1089-1.1608,0.2344-2.4886,0.4638-3.903
		c-0.2151-5.9544-0.2151-5.9683,0.0005-12.7253c-0.4504-11.2615-0.8175-17.0606-1.0814-21.236
		c-0.1565-2.4778-0.2773-4.3829-0.3583-6.5489v-0.0116c0.07-4.9119,0.148-8.4526,0.2281-12.1136
		c0.1673-7.6252,0.3462-15.7768,0.4919-37.8465c-0.2143-7.4336-0.3583-14.8062-0.5015-22.178
		c-1.377-0.7872-1.4522-0.8459-2.2958-1.8828c-0.2032,0.0493-0.407,0.0933-0.6157,0.1083
		c-2.3771,4.6144-2.4001,4.6527-3.3247,5.8629c-2.8653,5.9453-2.8684,5.9525-4.8062,10.7612l-0.0547,0.0839l-0.692,0.6919
		c-1.8459,3.7632-1.8521,3.7794-3.2805,8.0654l-0.0088,0.0247c-1.9428,4.3181-1.9505,4.3345-3.8818,7.4818
		c-0.144,0.6489-0.2886,1.2957-0.4235,1.836l-0.008,0.0255c-1.4425,3.8951-1.4488,3.9118-2.4568,5.5678
		c-2.6941,7.0617-4.1845,10.7422-5.311,13.5252c-0.8626,2.1314-1.514,3.74-2.3131,5.8918l-0.0088,0.0215
		c-2.8723,5.9607-2.8809,5.9783-4.8163,9.3473c-0.9306,3.3653-0.9391,3.3877-2.6538,7.1745
		c-0.214,1.6418-0.2253,1.6786-1.6591,6.4811l-0.0352,0.0714c-0.4873,0.6962-0.4881,0.6974-4.2894,10.2368
		c-0.7498,2.2213-1.3482,3.8718-1.8547,5.2685c-0.8079,2.2278-1.3822,3.8115-1.9548,6.0146l-0.0139,0.0403l-1.9403,4.3118
		c-2.3748,6.4772-2.3763,6.4812-4.8177,14.1648l-0.0255,0.0567c-0.2342,0.3745-0.4332,0.7407-0.6216,1.0868
		c-0.1069,0.1964-0.2098,0.3881-0.2963,0.54l-0.3336,1.1367c-0.3869,1.3136-0.7643,2.5946-1.095,3.863l-0.0139,0.0403l-1.9347,4.299
		c-2.1566,8.6264-2.1586,8.6321-4.0314,14.3955l-0.0879,0.1219c-0.212,0.159-0.2126,0.1596-1.8493,7.9878l-0.0068,0.0264
		c-0.4802,1.4777-0.9794,3.4103-1.8677,6.851c-0.8467,3.2794-2.0452,7.9197-3.8883,14.7362l-0.0031,0.0099
		c-2.8777,9.1367-2.8817,9.1494-4.822,14.1801c-0.3594,1.512-0.6457,3.0124-0.9312,4.5116l-0.0683,0.1306l-0.4252,0.4252
		c0.0675,1.1469,0.1335,2.2918,0.1386,3.3653c0.7478,0.4757,1.4924,0.9496,2.1818,1.3632l0.0947,0.1024
		c0.3662,0.7328,0.6559,1.4561,0.9448,2.1787l0.0156,0.0603l0.051,0.3801c0.1182,0.8802,0.2313,1.7173,0.2974,2.547
		c2.2697,0.532,2.8499,0.5924,25.9926,2.9767C106.3885,225.8622,113.9437,226.0845,118.5576,226.22L118.5576,226.22z
		 M138.4869,223.5702c0.11,0.707,0.214,1.3779,0.2798,2.0375l0.915-0.1525c0.1134-0.2013,0.2092-0.4053,0.2956-0.5927
		c0.0386-0.083,0.0757-0.1641,0.1202-0.2551l0.4286-6.645l0.004-0.0332l0.2526-1.2595h0.0009
		c0.4136-2.0574,0.8192-4.0751,1.1846-6.1455c1.0094-8.5127,1.9435-16.9866,2.8769-25.4597c0-7.0645-0.0272-11.867-0.0524-16.3006
		c-0.0448-7.8747-0.0833-14.6174,0.042-28.5681c-1.8655,17.5249-1.8655,17.6057-1.8655,20.6861l-0.002,0.0272
		c-0.6264,5.6389-1.1185,11.1852-1.546,16.0084c-0.4113,4.6423-0.7642,8.6176-1.1174,11.3412l-0.2157,15.8261v0.0156
		c-0.3405,4.564-0.6157,9.1034-0.8867,13.5816l-0.0493,0.8147l-0.0039,0.0292c-0.2835,1.5607-0.4989,3.1329-0.7135,4.7049
		L138.4869,223.5702L138.4869,223.5702z M143.174,212.5247c-1.5233,11.0611-1.6347,11.8715-1.5321,12.7629
		c2.0038-0.0002,2.1569-0.0082,3.1283-0.235c-0.1398-7.0656-0.138-7.2318,0.0754-23.8028c-0.0703-0.1758-0.1395-0.3513-0.201-0.5187
		l-0.0199,0.0295c0,2.6104-0.0074,2.6779-0.9377,10.9806l-0.049,0.1222C143.451,212.1128,143.3103,212.32,143.174,212.5247
		L143.174,212.5247z M65.154,220.8614c1.9491,0.2953,2.2003,0.3393,2.4097,0.523c0.3189-0.0439,0.6318-0.0538,0.9425-0.0561
		c-0.0496-0.7305-0.0525-1.4083-0.0527-2.0829c-0.3847-0.3209-0.7657-0.6423-1.0885-0.9578
		c-0.5848-0.0649-1.167-0.1302-1.6679-0.1913c-0.0933,0.0916-0.1888,0.1791-0.2911,0.2489
		C65.2859,219.217,65.2173,220.0416,65.154,220.8614L65.154,220.8614z M49.8285,190.1242
		c-0.1395,0.3203-0.2931,0.6729-0.4238,1.0834c0.4187-0.1024,0.8303-0.1956,1.2087-0.2529c1.3674-0.8889,1.3779-0.8997,2.283-1.8746
		l0.1003-0.108l0.1426,0.0357c1.1511,0.2877,2.3031,0.576,3.3871,0.8648l0.1434,0.1026c0.0533,0.0803,0.1083,0.15,0.1582,0.2141
		c0.1726-0.2418,0.3385-0.4884,0.4997-0.7271c0.1287-0.1902,0.2537-0.3759,0.3872-0.5649c-0.0502-0.3943-0.059-0.7416-0.0607-1.0789
		l-0.1675-0.0179c-1.2232-0.1292-2.3939-0.2531-3.5575-0.3178l-0.2735-0.0153l0.0403-0.2696
		c0.2095-1.3989,0.2208-1.4658,0.9785-3.3622c-0.364-0.0502-0.7203-0.0913-1.0361-0.0958
		c-0.3081,0.1505-0.6072,0.2636-0.8799,0.3671c-0.0797,0.0301-0.1568,0.0584-0.2285,0.0865
		c-0.4091,0.69-0.7557,1.3817-1.1007,2.0719l-0.0975,0.1043c-0.3416,0.1989-0.6446,0.3821-0.9439,0.5618l0.0003,0.0005
		c-0.506,0.3051-0.9964,0.6001-1.5103,0.8804l-0.1035,0.0304l-0.2032,0.0127c-1.0284,0.0644-2.0029,0.1253-2.9645,0.1316
		c-0.3022,0.6579-0.3229,0.754-0.2313,1.3238l1.6622,0.1848c0.6948-0.485,0.769-0.4949,2.9129-0.7807l0.3455-0.0462l-0.0683,0.3418
		C50.1557,189.3736,50.0017,189.7259,49.8285,190.1242L49.8285,190.1242z M143.03,13.9941l0.0555,0.0255
		c0.0658-0.0222,0.1276-0.0346,0.1825-0.042c0.137-0.3588,0.1545-0.7436,0.2725-4.0457h-0.4947
		c-0.2886,0.9332-0.2928,1.1064-0.2928,3.9312c0.0975,0.0544,0.1933,0.095,0.2761,0.131H143.03L143.03,13.9941z"/>
</g>
</svg>
