<?xml version="1.0" encoding="utf-8"?>
<!-- Generator: Adobe Illustrator 21.1.0, SVG Export Plug-In . SVG Version: 6.00 Build 0)  -->
<svg version="1.1" id="c" xmlns="http://www.w3.org/2000/svg" xmlns:xlink="http://www.w3.org/1999/xlink" x="0px" y="0px"
	 viewBox="0 0 479.5101 551.5801" enable-background="new 0 0 479.5101 551.5801" xml:space="preserve">
<g>
	<path fill-rule="evenodd" clip-rule="evenodd" d="M168.2269,551.5801c-2.4398-0.1633-4.9198-0.3741-7.4455-0.5885
		c-9.9176-0.8419-20.5526-1.7447-29.1379,0.0746l-0.1035,0.0118c-7.9821,0-15.8389-0.6703-23.6305-1.3348
		c-5.7336-0.4887-11.433-0.9752-17.0671-1.1872l-0.0312-0.002c-2.7672-0.2767-5.5928-0.491-8.4195-0.703
		c-0.2163,0.167-0.4592,0.28-0.7036,0.3499c-0.3739,0.1068-0.7594,0.1116-1.0621,0.0612l-0.252-0.0422l-0.1134-0.2292
		c-1.7065-3.4617-17.5181-1.804-27.4147-0.7668c-3.5779,0.3751-6.3981,0.6707-7.5855,0.6123l-0.0547-0.006
		c-3.4642-0.5541-3.5674-0.5712-7.2989-0.7679c-0.0505,0.1519-0.0913,0.311-0.1307,0.4689l-0.0839,0.3365l-0.3455,0.0385
		c-1.1203,0.1245-2.7102-0.1539-4.3152-0.4348c-2.1849-0.3824-4.4031-0.7708-5.034-0.1397l-0.256,0.1366
		c-2.9767,0.5952-5.4984,0.9844-7.7876,1.2158c-0.3305,0.0363-0.6579,0.066-0.9834,0.0904
		c-5.4845,0.4587-9.7475-0.0031-16.0855-0.6925c-0.7347-0.0796-1.4981-0.163-2.2938-0.2477l-0.2701-0.0289l-0.1225-0.2446
		c-0.0162-0.0323-0.0385-0.0684-0.057-0.0984C0.0598,547.3295,0,547.2337,0,547.05V546.55h0.5c3.0895,0,5.8785,0.347,8.5915,0.684
		c5.8646,0.729,11.3706,1.4139,18.7211-1.6529l0.1718-0.0372c1.531-0.0612,2.3916-0.0967,2.9152-0.136
		c-4.4325-2.7371-7.1586-4.6307-9.2426-6.9539c-2.2312-2.4872-3.6884-5.4219-5.6715-10.3527
		c-0.0989-0.1083-0.1965-0.233-0.2906-0.3745l-0.0011,0.0005c-1.8839-2.8261-2.505-12.816-2.1138-22.6119
		c0.3914-9.8124,1.8096-19.4981,4.0016-21.6907l0.002-0.002c0.0635-0.0632,0.1281-0.1219,0.1919-0.174
		c0.614-2.2796,1.7283-5.3776,3.0226-8.1261c1.0837-2.3014,2.2997-4.3693,3.4685-5.538l0.1055-0.0779
		c4.4402-2.5574,7.507-4.7517,9.4467-7.4373c1.8524-2.5648,2.6958-5.6188,2.7544-9.9278c-0.8788-0.0009-1.7648,0.0488-2.6459,0.0975
		c-1.891,0.1046-3.7639,0.2083-5.6608-0.1709l-0.2228-0.1074c-1.4953-1.2492-2.3692-2.3854-2.7493-3.4143
		c-0.5383-1.4576-0.1264-2.6787,0.9091-3.6986c0.9516-0.9369,2.4469-1.6852,4.1978-2.2779
		c4.7089-1.5945,11.378-2.1098,14.0819-2.1461c0.0281-0.0456,0.0576-0.091,0.0896-0.1378c0.2934-0.4292,0.769-0.9235,1.3331-1.2422
		c0.616-0.3478,1.334-0.4938,2.0557-0.1661l0.002,0.002l0.053,0.0244c0.5672-0.5536,2.2104-3.2919,3.9991-6.4562
		c2.7266-4.8243,5.6908-10.5588,5.8082-11.2638l0.0938-0.2188c1.3983-1.855,2.6515-3.9552,3.9109-6.0656
		c1.8476-3.0965,3.7111-6.2184,6.0792-8.6788l-0.2089-0.2092l0.1936-0.3316c1.4803-2.5378,3.7355-5.6146,6.0854-8.8206
		c1.3416-1.8306,2.7156-3.7049,3.9889-5.5383c0.3918-0.6667,0.7775-1.3283,1.1577-1.9851l0.0136-0.0215l2.649-4.0771
		c0.7569-1.4244,1.3209-2.7442,1.6047-3.9044l0.078-0.1721c0.1318-0.186,0.4289-0.5987,0.7886-1.0987
		c2.4409-3.3923,8.233-11.442,8.7814-13.6372l0.0689-0.2758l0.2727-0.0817c0.4113-0.1233,2.8602-3.5909,5.7966-7.9475
		c4.9759-7.3831,11.2076-17.2236,11.607-18.0669l0.0547-0.0898c4.3186-5.6472,8.0983-11.9046,11.8548-18.1236
		c3.522-5.8309,7.0248-11.6292,10.963-16.9061c0.2375-1.0851,2.1518-4.2162,4.6284-7.9472
		c4.8226-7.2638,11.8315-16.9646,12.5059-17.8481l-0.002-0.0014c2.8267-3.9617,5.7359-8.1465,8.6638-12.3582
		c6.7062-9.6463,13.515-19.4402,20.5118-28.1991l0.2344-0.1621c0.6174-0.2058,1.6497-1.1115,2.889-2.4004
		c3.8447-4.7636,7.8472-9.4564,11.8888-14.1242c4.5158-6.1645,9.6454-12.1629,14.7458-18.1267
		c4.8926-5.7206,9.76-11.4108,14.0082-17.157l0.0468-0.0566c5.1752-5.1752,9.6741-11.7156,14.1562-18.2322
		c4.4708-6.4998,8.9269-12.9775,14.033-18.0926c5.6134-8.415,12.0592-16.4252,18.4674-24.3882
		c4.5975-5.713,9.1769-11.4038,13.4147-17.2043l0.0195-0.0236c10.2756-12.3306,20.0895-24.9969,29.9044-37.6647
		c6.6586-8.5944,13.3188-17.1904,20.1296-25.6893l0.0352-0.0411c5.3663-5.3663,9.9695-12.028,14.5162-18.6078
		c4.4274-6.4074,8.8033-12.7392,13.7869-17.7582c0.3359-8.6094,0.8408-8.6227,7.4954-8.7701
		c0.8107-0.0182,1.7203-0.0386,2.7675-0.0805l0.121,0.0099l0.2396,0.0499c3.1578,0.6579,3.3698,0.7038,3.6686,4.5799
		c5.4057,4.4181,10.3734,12.5099,15.3873,20.679c3.4141,5.5624,6.8508,11.1614,10.4398,15.6189l0.0236,0.0312
		c5.0938,7.4724,10.8536,14.6886,16.6666,21.9719c11.5906,14.521,23.3969,29.3137,30.6643,47.0452
		c9.1406,13.7379,15.9631,30.0694,20.7692,47.1989c5.4742,19.5123,8.3344,40.0683,9.0258,59.0077v0.0272
		c-0.611,26.5763-1.7229,53.2043-2.8406,79.9745c-0.7285,17.447-1.4598,34.9554-2.0554,52.5115l-0.004,0.0587
		c-1.3892,9.0952-2.2368,18.1709-3.0892,27.3076c-1.0981,11.7663-2.2059,23.6355-4.4747,35.71l-0.0215,0.08
		c-0.8351,2.2672-1.775,4.5408-2.7201,6.8269c-1.8723,4.5301-3.767,9.1132-4.9587,13.959c-0.2178,1.7416-0.4195,3.1266-0.8362,4.479
		c-0.4199,1.3621-1.0522,2.6651-2.1274,4.2225l-0.1445,0.2092l-0.256,0.0056c-9.1395,0.2013-9.7151,0.2143-11.3922,0.4493
		c-1.0732,3.8449-13.7477,19.1883-16.4838,22.5005l-0.0297,0.0357c-5.6305,9.269-12.1403,17.6706-19.3127,25.4112l-0.0009-0.0009
		c-7.1269,7.6904-14.9103,14.7317-23.1384,21.3262v0.0816c2.2362,0.1361,4.3044,0.5647,6.427,1.0034
		c2.6818,0.5547,5.4544,1.1282,8.748,1.1307c2.6178-0.2996,6.2728-1.3495,10.0088-2.4233
		c5.3422-1.5347,10.8511-3.1178,13.9845-2.6827l0.0567,0.9765c-2.2459,0.5893-4.4989,1.2368-6.713,1.8726
		c-7.5181,2.1595-14.5967,4.193-22.572,4.193l-0.119-0.0159c-7.2181-1.7839-17.604-3.4957-27.1497-3.1624
		c-6.8683,0.2396-13.2919,1.5375-17.7502,4.6318c-0.8824,1.0587-1.6432,2.0449-2.3539,2.9653
		c-3.483,4.5122-5.7991,7.5107-13.8524,8.6718c-1.6396,0.62-3.4537,0.8691-5.2039,1.1081c-2.2709,0.3104-4.4297,0.606-5.7645,1.6738
		l-0.3104,0.1115c-4.4801,0-11.2728,0.7637-17.5022,2.0593c-5.1968,1.0812-9.9899,2.5277-12.6921,4.2004l-0.1817,0.0683
		c-1.4508,0.2386-5.1417,0.6517-9.8972,1.1832c-14.0765,1.574-37.5466,4.199-38.8729,6.1639l-0.125,0.1849l-0.2226,0.03
		c-1.7665,0.2368-3.4225,0.6013-4.9995,0.9479c-4.6346,1.019-8.6125,1.8936-13.4478-0.8195
		c-11.0971-1.8195-23.241,0.5579-35.0867,2.8771c-7.4636,1.4615-14.8111,2.9005-21.7469,3.2625H168.2269L168.2269,551.5801z
		 M82.6313,385.7675c-1.0171,1.9055-2.3536,3.9713-3.818,6.0826c-1.6381,2.7879-3.365,5.6426-5.1228,8.4742
		c-2.2025,3.5487-4.4657,7.0795-6.6787,10.4171l-0.0623,0.0782c-2.2241,2.2241-6.0251,8.0354-9.4056,13.9221
		c-3.1493,5.4836-5.925,11.0129-6.7122,13.746c1.554-0.1593,3.1924-0.4252,4.8705-0.6976c2.9205-0.4742,5.961-0.968,8.8778-0.968
		l0.2872,0.0919c3.1119,2.1849,6.5429,2.2839,10.9707,2.4117l0.608,0.0175l1.2883-0.0606c2.3814-0.11,4.8155-0.2237,7.5895-0.6248
		c3.9966-5.5316,7.7684-11.1323,11.5277-16.7148c4.5726-6.7901,9.1287-13.5553,13.9844-20.0557l0.0468-0.0547
		c2.342-2.342,4.0725-5.375,5.7696-8.35c1.5015-2.632,2.9789-5.2208,4.8427-7.2972c1.7232-2.7902,3.774-5.5157,5.8249-8.2412
		c2.4956-3.3171,4.9929-6.6359,6.8788-10.0542l0.0391-0.0587c1.2793-1.7056,2.9486-3.7984,4.796-6.1149
		c2.9733-3.7282,6.4097-8.0374,9.2982-12.0651c1.5401-2.3471,3.0572-4.7163,4.5681-7.0892c0.7563-1.4057,1.3-2.6635,1.5559-3.7091
		l0.0675-0.2755l0.2664-0.0839c0.3705-0.1168,1.8601-2.1121,3.6717-4.7081c0.2234-0.3203,0.4518-0.65,0.6829-0.9856
		c1.425-2.1907,2.8658-4.3651,4.3387-6.5081c1.6438-2.524,2.9628-4.6049,3.3432-5.2234l0.0196-0.0275
		c18.8955-26.4538,37.1628-53.1978,54.9802-80.1763c17.8109-26.968,35.1796-54.182,52.2822-81.5822
		c3.7579-7.0098,7.5163-14.0202,11.2903-20.8564l0.0216-0.0352c4.1451-6.2357,8.0833-12.4393,11.9171-18.6345
		c3.8305-6.19,7.5782-12.4058,11.327-18.642l0.043-0.0626c3.316-4.0034,5.8635-8.5289,8.358-12.96
		c1.904-3.3826,3.7783-6.7124,5.9581-9.7472c0.8705-4.2316,3.7222-8.7739,6.5373-13.2571c2.3153-3.687,4.6063-7.3355,5.6968-10.6716
		l0.0607-0.123c1.1758-1.756,3.0591-4.3503,5.2946-7.4302c7.5493-10.4006,19.1304-26.3565,20.1742-32.828
		c-2.4928,1.7728-6.5863,8.3851-8.2684,11.1027l-0.0187,0.0304l-0.0547,0.0743c-3.6171,3.9787-6.9146,8.5099-10.2056,13.0323
		c-3.92,5.3867-7.8325,10.7622-12.2499,15.1852c-4.2874,6.0225-9.1168,11.9545-13.955,17.8965
		c-3.7769,4.6389-7.56,9.2855-11.0804,13.9688l-0.0447,0.0547c-7.3336,7.3335-14.595,17.0609-21.4218,26.2059
		c-2.113,2.8307-4.1842,5.6055-6.2555,8.3033l-0.0156,0.0195c-10.382,12.2198-20.459,25.8857-30.3928,39.3571
		c-4.4283,6.0057-8.8285,11.9733-13.2957,17.8614l-0.0428,0.0527c-1.732,1.732-3.3625,3.958-5.0145,6.2136
		c-1.8944,2.5869-3.8188,5.2143-5.9825,7.2317c-6.7983,8.9997-14.3861,17.7106-21.9954,26.4456
		c-1.5911,1.8266-3.1828,3.6547-4.7685,5.4867l-0.2063,0.2818l-0.0487,0.0606c-0.5706,0.5706-1.8612,2.1671-3.4612,4.1468
		c-2.4071,2.9778-5.5026,6.8091-7.9925,9.4139c-4.4776,5.5389-8.7418,11.1699-12.604,16.9631l-0.0624,0.0763
		c-3.6397,3.6396-6.6458,8.435-9.6517,13.2301c-3.0339,4.8402-6.0684,9.6806-9.7594,13.381
		c-12.0685,18.0853-24.0911,36.3353-36.0995,54.6868C104.6191,351.9431,93.6187,368.8579,82.6313,385.7675L82.6313,385.7675z
		 M127.9786,543.5342c11.0531-0.0269,22.2174-0.0541,33.0919,0.9286c5.0482-0.187,10.2115-0.2985,15.4233-0.4102
		c16.6844-0.3585,33.8834-0.7285,50.1423-3.6847l0.0391-0.006c14.5341-1.4388,28.3454-3.4172,42.1351-5.934
		c13.7863-2.5164,27.5655-5.5749,42.0347-9.1741l0.0332-0.0079c8.488-1.4978,17.0167-3.9801,25.5209-6.455
		c2.5594-0.745,5.1162-1.4894,7.5452-2.1719c10.7453-3.738,21.5972-7.835,32.2379-12.5668
		c10.6393-4.7313,21.0756-10.103,30.9943-16.3919l0.0822-0.0411c4.5629-1.8252,11.2887-11.6246,13.4921-16.0316l0.0215-0.0411
		c2.012-3.2255,4.6133-6.3641,7.2073-9.4935c3.0458-3.6748,6.0815-7.3392,8.0932-11.0648
		c-1.4553,0.5695-4.3611,2.5402-7.2411,4.4921c-3.1617,2.1433-6.2938,4.2653-7.7979,4.6168
		c-2.8511,3.3885-10.2631,7.1464-16.7545,10.4363c-3.5856,1.817-6.8873,3.4906-8.9421,4.8606l-0.0547,0.0295
		c-5.2157,2.6078-10.7172,5.0587-16.2527,7.2845c-5.7869,2.3272-11.6119,4.411-17.187,6.1747
		c-1.7034,1.6174-5.4995,2.9574-9.3807,3.975c-3.8806,1.0173-7.8568,1.7206-9.8538,2.0477
		c-4.6683,1.2263-9.4793,2.1768-14.2857,3.1266c-6.7932,1.3422-13.5811,2.6838-19.8664,4.7786l-0.0938,0.0215
		c-8.0379,1.044-16.1005,2.4191-24.1279,3.7879c-10.1328,1.7277-20.2114,3.4466-30.2437,4.494l-0.0391,0.002
		c-12.8021,0.3319-25.8182,1.7623-38.649,3.172c-6.6263,0.728-13.2041,1.451-19.6164,2.0101
		c-1.1953,0.2715-9.0065,0.7336-15.9086,0.9198c-4.9822,0.1346-9.5241,0.1282-10.836-0.1907
		c-14.7441,1.2985-29.3247,1.5942-43.8369,1.8881c-10.2881,0.2084-20.543,0.4167-30.8336,0.9847l-0.123-0.0079
		c-3.9563-0.7787-10.0222-0.4464-16.1391-0.1114c-7.9206,0.4337-15.9282,0.8723-19.8436-1.0854l-0.203-0.1017l-0.057-0.2186
		l-0.0439-0.1695h-0.0006l-0.0122-0.049c-1.6401,0.5862-5.7237,2.8704-10.491,5.6925c-8.9365,5.29-20.2249,12.2703-22.324,13.6117
		c6.1067,2.1243,13.1845,3.5923,20.5225,4.5026c8.5799,1.0641,17.5003,1.3646,25.63,1.0607h0.0156
		c3.937-0.0286,7.8148,0.0114,11.7125,0.0516c5.868,0.0601,11.7836,0.1213,18.0119-0.0516h0.0448
		C109.7501,543.5787,118.8269,543.5563,127.9786,543.5342L127.9786,543.5342z M16.2405,519.1636
		c0.7855,7.0157,2.7264,13.1349,6.6776,15.9006c3.1777-0.8373,7.8982-5.0941,11.7097-9.792
		c3.8064-4.6919,6.6824-9.7719,6.156-12.2309c-3.589-5.7728-6.3607-14.8043-7.6218-23.7294
		c-1.2056-8.5334-1.031-16.9948,1.127-22.4578c0.1077-0.6409,0.2313-1.279,0.364-1.9066h0.0003
		c0.0686-0.3237,0.1384-0.6398,0.2078-0.9471c-0.9505,0.5485-2.014,1.5956-3.157,2.7204c-1.6832,1.6569-3.532,3.4761-5.6287,4.3093
		c-1.9576,1.2875-5.8626,11.3604-7.4928,15.5662c-0.2715,0.7007-0.4805,1.2399-0.6117,1.5602
		C16.7814,493.8655,14.9553,507.6808,16.2405,519.1636L16.2405,519.1636z M41.8949,520.1642
		c-1.8553,2.7471-3.9526,5.8524-6.1597,8.2576c1.1475-0.6922,2.2198-1.343,3.27-1.9805
		c14.6432-8.8886,25.2116-15.3017,43.8531-16.2286c-0.0051-0.1054-0.0292-0.1885-0.0638-0.2557l-0.0009,0.0005
		c-0.0694-0.1335-0.1956-0.2336-0.2965-0.3092l-0.1953-0.324c-0.4541-2.9968,0.4221-5.3252,1.3156-7.7006
		c0.4963-1.3187,0.9986-2.6538,1.26-4.1082c-3.0515,0.0428-8.6735,0.1565-13.9434,0.4515
		c-5.3575,0.3002-10.3053,0.7761-11.6232,1.527l-0.0074,0.0221l-0.0006-0.0003c-0.2965,0.9147-0.4754,1.4621-1.7617,1.6483
		c-2.8828,1.6555-3.1456,2.4942-3.4413,3.4418c-0.2891,0.9275-0.6063,1.944-2.5937,3.5887l-0.2492,0.2064l-0.2917-0.1457
		c-0.089-0.0445-0.0964-0.0893-0.1375-0.0893h-0.5v-0.5c0-0.3286,0.0003-0.6409,0.011-1.0466l0.0057-0.1599
		c-0.0618,0.0371-0.125,0.0779-0.1882,0.1196c-1.2288,0.8115-2.6827,2.4035-3.7035,4.2072
		c-0.9975,1.7626-1.5707,3.7097-1.0777,5.271c0.0938,0.2977,0.2251,0.5795,0.3965,0.8394l0.121,0.1834l-0.0527,0.2109
		c-0.0558,0.2242-0.0561,0.5559-0.0561,0.887v0.6095l-0.5975-0.1194c-0.3101-0.0618-0.644-0.0621-0.9105-0.0621h-0.3764
		l-0.104-0.3633c-0.0921-0.3223-0.1624-0.4652-0.2282-0.5276C43.0415,518.4672,42.4794,519.2988,41.8949,520.1642L41.8949,520.1642z
		 M192.3242,527.4532c-2.0917-3.1484-1.4803-5.2387,0.5924-6.6158c4.1193-2.7366,14.4417-2.249,19.3952-2.0151
		c0.9006,0.0422,1.6183,0.076,2.1017,0.0791c0.3115-0.1009,0.6205-0.186,0.9346-0.2625c0.3702-0.0901,0.7109-0.1624,1.0545-0.231
		l0.3064-0.0615l0.1893,0.2529c1.8533,2.4709,1.3799,4.3107-0.4448,5.679c-4.714,3.5353-19.3297,3.4285-23.1077,3.4012
		l-0.6077-0.0034l-0.2667-0.0017L192.3242,527.4532L192.3242,527.4532z M72.5596,515.2104
		c6.8766-0.3951,17.5459-1.0089,19.6982,0.4515c19.5066-0.0029,39.2666-0.4865,59.0255-0.97
		c6.5869-0.161,13.174-0.3229,19.7736-0.4666c5.7844-1.9069,13.4805-1.9301,21.3347-1.9533
		c6.3595-0.019,12.8254-0.0386,18.4025-1.0641l0.0664-0.0079c6.3975-0.3104,13.1006-1.1375,19.8796-1.9734
		c8.85-1.0916,17.8319-2.1997,26.5513-2.2025c4.9451-0.6412,9.5831-1.2124,14.2778-1.7901
		c30.6414-3.7723,63.7141-7.8443,92.1311-19.1988l0.0372-0.0136c12.9107-3.9575,25.3221-10.1588,37.7354-16.3607l0.0009,0.0017
		c1.5009-0.7503,2.9778-1.4887,3.912-1.9536c2.2077-1.637,6.2836-3.9957,10.9429-6.6918
		c10.7323-6.2104,24.5993-14.2367,25.2899-18.8787c-0.4337-0.1264-0.7081-0.127-1.931-0.0828
		c-0.8912,1.8014-5.4706,5.7076-10.817,9.7631c-7.361,5.5834-16.2247,11.5311-18.7708,12.5682
		c-2.1129,2.0413-7.4573,4.2809-12.1544,6.2484c-3.8911,1.6299-7.3259,3.0694-7.8676,3.8959l-0.1157,0.1761l-0.2064,0.0408
		c-7.2532,1.4307-14.3325,4.0085-21.4197,6.5889c-8.1998,2.9854-16.4112,5.9754-24.9517,7.2252
		c-3.7769,2.1223-9.1936,2.7556-14.3156,3.3537c-4.6029,0.5372-8.9637,1.0471-11.5132,2.5699l-0.2186,0.0703
		c-4.3353,0.3282-8.9099,1.4964-13.4651,2.6595c-5.3682,1.3708-10.7124,2.7346-15.6906,2.7422
		c-6.4846,1.1344-12.9515,1.9755-19.3232,2.804c-6.0645,0.7886-12.0436,1.5662-17.9303,2.5883l-0.1406,0.004
		c-7.1104-0.8286-13.9518,0.1043-20.6781,1.0219c-4.2996,0.5862-8.5536,1.167-12.8268,1.2827
		c-5.3604,1.0536-10.9693,1.2283-16.5288,1.4009c-5.4244,0.1687-10.8034,0.3359-15.8377,1.3286l-0.0958,0.0099
		c-6.1072,0-12.1328,0.1315-18.134,0.2625c-10.7467,0.2341-21.418,0.4669-31.6307-0.0468c-1.8839,0.0569-3.7661,0.1122-5.6455,0.165
		c-2.5753,0.1772-5.2021,0.4093-7.8123,0.6384c-5.2469,0.4612-10.431,0.9164-15.1319,0.9247
		c-2.325,1.2106-10.832,1.4785-19.3581,1.7464c-8.1632,0.2565-16.3446,0.5131-18.6945,1.3388
		C69.4389,515.3887,70.8848,515.3065,72.5596,515.2104L72.5596,515.2104z M129.3259,509.7838
		c1.4615-0.1003,2.9151-0.1828,4.3546-0.2398h0.0468c0.449,0.0258,0.8994,0.0493,1.3501,0.072
		c3.4965-0.1055,6.9982-0.2166,10.5035-0.3286c13.5334-0.4314,27.1213-0.8654,40.6332-0.9672
		c7.1529-1.2997,14.5293-1.6898,21.9731-2.0829c8.6247-0.4556,17.3421-0.9164,25.8454-2.8015l0.0643-0.0099
		c5.4936-0.4915,10.9673-0.8705,16.479-1.2521c18.2358-1.262,36.8995-2.554,54.8515-7.7303l0.0468-0.0117l1.8167-0.3351
		c21.5325-3.9688,41.5253-7.6544,63.2653-15.4834l0.0624-0.0196c1.6764-0.3625,9.567-2.4432,15.495-4.451
		c3.3747-1.1429,6.0797-2.2331,6.5126-2.8942l0.2226-0.1857c4.841-2.0747,20.277-10.7527,31.7877-18.536
		c6.9703-4.7132,12.4738-9.0428,13.1893-11.2328c-0.6942-0.0703-1.3527-0.1502-2.0032-0.2293
		c-1.4383-0.1749-2.838-0.3458-4.071-0.362c-5.6455,5.0899-13.2382,8.0598-20.5782,10.9293
		c-3.5419,1.3847-7.0254,2.7459-10.1661,4.2971c-0.1196,1.5131-0.5627,6.9554-1.4896,7.8823l-0.1891,0.1888l-0.2619-0.0522
		c-0.6801-0.1358-1.361-0.2724-2.0979-0.436l-0.3926-0.0873v-0.3988c0-1.0658-0.0006-1.1115,0.7682-5.7906
		c-2.5129,0.252-5.358,1.2444-8.3378,2.5608c-1.1327,0.5431-2.2427,1.065-3.3383,1.5664c-1.3358,0.6562-2.6833,1.3448-4.0267,2.031
		c-4.5606,2.3292-9.0694,4.6324-12.9583,5.5885l-0.0839,0.0139c-8.5411,0.631-8.5153,1.3725-8.4359,3.6533
		c0.0593,1.6985,0.1434,4.1088-1.9715,7.6243l-0.1826,0.3028l-0.3427-0.0683c-0.3101-0.0618-0.644-0.0621-0.9105-0.0621h-0.5001
		v-0.5c0-2.2754,0.4252-4.4419,0.824-6.4774c0.1735-0.8839,0.3419-1.7444,0.4666-2.5736c-2.2726,0.1117-4.5576,0.3212-6.8466,0.6018
		c-4.6978,0.923-9.6049,1.7206-14.4028,2.4333c-1.061,0.2098-2.1194,0.4224-3.175,0.6338
		c-3.7587,0.7531-7.4798,1.4984-11.1859,2.1143c-2.2512,1.2847-6.2203,1.7787-10.1148,2.2626
		c-3.8857,0.483-7.6958,0.9564-9.3992,2.1498l-1.9102,11.2493l-0.0712,0.4181h-0.421c-0.7104,0-1.4213,0.0002-2.0333,0.068
		l-0.6196,0.0686l0.0688-0.6194c0.0695-0.6262,0.3062-1.9397,0.5777-3.4464c0.485-2.6935,1.0862-6.0369,1.0989-6.8425
		c-1.3909,0.1366-2.3915,0.4561-3.4066,0.7792v0.002c-0.2518,0.0797-0.5029,0.1599-0.7994,0.2488l-0.0859,0.0176
		c-0.6273,0.0732-2.1027,0.2172-4.1062,0.4122c-10.5154,1.0239-35.9493,3.5016-37.4562,5.5106l-0.1432,0.1905l-0.2376,0.0088
		c-1.6824,0.0604-3.6442,0.0765-5.7441,0.0935c-1.3329,0.0108-2.7233,0.0213-4.1355,0.0451
		c-4.2111,0.5236-9.2341,0.8121-13.1802,1.0052c-1.8127,0.339-3.4313,0.7926-4.7401,1.3997l0.0102,0.2166
		c0.0966,1.8726,0.3977,7.6873-0.3144,8.3994l-0.1726,0.1726l-0.2415-0.03c-0.5417-0.0674-1.0681-0.1431-1.5937-0.218
		l-0.3503-0.0502l-0.0695-0.3464c-0.2738-1.3705-0.4685-2.77-0.5972-4.1547c-0.1247-1.338-0.1862-2.6561-0.1996-3.9166
		c-2.6994,0.1284-5.3963,0.2577-8.0382,0.3861c-0.2092,2.6731-0.7177,4.5187-1.2246,6.3609c-0.3028,1.0999-0.6057,2.2-0.8402,3.4767
		l-0.0958,0.523l-0.5153-0.1287c-0.2242-0.0558-0.4796-0.0561-0.671-0.0561h-0.544l0.046-0.5411
		c0.1448-1.7039,0.29-3.4248,0.369-5.0403c0.0712-1.4624,0.0932-2.8834,0.021-4.2106h-2.9021
		c-13.2658,1.059-26.6162,1.3929-39.9033,1.7246c-18.0119,0.4499-35.9101,0.8975-53.4005,3.1584
		c0.4053,0.8824,1.3833,2.2657,2.4001,3.7029c1.7289,2.4432,3.5629,5.0346,3.183,6.2427c-0.243,0.7722-1.0769,1.0262-2.8018,0.4839
		l-0.2517-0.1797c-1.4511-1.959-2.8627-4.0485-4.2205-6.0585c-1.3187-1.9522-2.5872-3.8313-3.7672-5.4085
		c-0.7863-0.0119-1.6019-0.0281-2.4386-0.0457c-4.6797-0.0981-10.0794-0.2117-13.6069,0.5326
		c-0.0334,0.6704-0.0513,1.3331-0.0677,1.9967c-0.1046,4.1479-0.212,8.3843-3.9149,11.6952l0.0076,0.0323
		c2.1736,0.0681,4.3515,0.1369,6.5925,0.2047v-0.0017c2.3539,0,2.3542-0.0003,4.9737-0.354l0.0663-0.006
		C109.7036,510.262,119.4908,510.0587,129.3259,509.7838L129.3259,509.7838z M35.2171,490.6255
		c0.9153,7.6838,3.2389,15.1931,7.4579,21.7244h0.1046c2.9611-4.7035,4.7154-9.1953,4.9493-13.6465
		c0.237-4.5065-1.086-8.9952-4.2951-13.6502l-0.4368-0.6341l0.7572-0.1392c2.62-0.4825,4.242,4.43,5.4955,8.227
		c0.2007,0.6077,0.3923,1.1849,0.5732,1.6991c4.3169-4.4739-0.976-18.2132-4.9286-28.4724
		c-2.5892-6.7212-4.631-12.0217-2.9287-12.873l0.3229-0.1616l0.2531,0.2534c0.2112,0.2112,0.6554,1.0137,1.2345,2.1487v-0.3552
		c0-3.6813,1.0508-5.2636,2.0744-6.8046c0.6477-0.9751,1.2847-1.9332,1.582-3.4736c-0.0746,0.0054-0.1485,0.0125-0.2205,0.0193
		c-0.2543,0.0244-0.5227,0.0607-0.7776,0.097l-0.6582,0.0938l0.0938-0.6582c0.0459-0.3229,0.2149-0.6506,0.3889-0.9887
		c0.0621-0.1205,0.1256-0.2438,0.18-0.3615c-2.5135-0.4561-5.707-0.4226-8.8078,0.0045c-3.2499,0.4476-6.3856,1.3275-8.5147,2.5285
		c-2.0316,2.4347-2.283,3.676-1.5789,4.2681c0.9678,0.8136,3.5668,0.7846,6.1208,0.7563c1.7402-0.0193,3.4617-0.0385,4.7375,0.2129
		l0.4286,0.0842l-0.0264,0.4351c-0.1406,2.3247-0.142,2.3558,0.0643,7.1742c2.2419,2.3896,2.7692,6.7073,3.2624,10.7538h0.0003
		c0.2855,2.3411,0.5607,4.5887,1.1438,6.2408c0.5451-0.1732,1.3677-0.3016,2.2612,0.2086l0.2166,0.1236l0.0314,0.2475
		c0.2089,1.6413-0.7648,3.7922-1.8122,6.1055c-1.5678,3.4637-3.3123,7.3185-1.1333,9.7254l0.3056-0.0077
		c1.0247-0.0343,2.6135-0.087,3.1765,0.476c0.413,0.413,0.4096,0.9578-0.3172,1.6846l-0.3535,0.1446l-0.5057,0.0003
		c-2.6402,0.0017-3.8846,0.0025-4.7276-0.5714c-0.7812-0.5318-1.0604-1.4114-1.5871-3.0722
		c-0.1321-0.4167-0.2795-0.883-0.3957-1.2345c-2.2153-3.3452-2.7465-6.3915-2.1461-9.1876
		c0.5859-2.7289,2.2493-5.1914,4.4688-7.4446c-0.0346-1.942-0.5525-5.0273-1.2988-7.8253c-0.5394-2.024-1.1917-3.8832-1.8553-5.0173
		c-0.3084,0.9437-0.3884,2.2348-0.4649,3.4911c-0.0201,0.3345-0.0406,0.6667-0.0615,0.9507l-0.0139,0.0839
		C35.0169,472.2431,34.1365,481.5544,35.2171,490.6255L35.2171,490.6255z M44.2349,455.2441l-0.4037-0.0341
		c0.483,0.9496,1.0551,2.1187,1.6645,3.3613c0.542,1.1052,1.1134,2.2711,1.6594,3.363c1.0525,2.1047,2.0265,4.0453,2.5254,5.0227
		c-0.2832-2.3411-1.3453-5.2067-2.1912-7.4911c-0.3104-0.8391-0.593-1.6007-0.8079-2.2638l-0.0941-0.2905l0.2152-0.2151
		l0.0621-0.061c-0.0746-1.2501-0.6766-1.472-1.2659-1.472c-0.233,0-0.4578,0.0238-0.6625,0.0451
		C44.674,455.2364,44.4379,455.2608,44.2349,455.2441L44.2349,455.2441z M229.7356,489.3054
		c3.9393-0.7251,8.704-0.9297,13.2307-1.0063c2.3641-0.2951,4.4445-0.6644,5.8853-1.1324c-3.8962,0.3314-7.7513,0.682-11.507,1.0964
		c-2.8593,0.3155-5.6761,0.6696-8.433,1.0826L229.7356,489.3054L229.7356,489.3054z M336.0753,472.9552
		c4.7939-0.9485,9.6386-1.8524,14.4785-2.4457c2.5699-0.5054,5.0754-1.0485,7.4636-1.6359c0.3793-1.2501,0.72-2.6742,0.9521-4.0677
		c0.1877-1.1268,0.3047-2.2314,0.3161-3.2029c-0.0672,0.0057-0.1327,0.013-0.1979,0.0201c-0.1298,0.0142-0.2573,0.0309-0.3798,0.049
		c-0.2742,0.6812-0.692,1.2436-1.2025,1.6883c-0.7157,0.6233-1.6143,1.0145-2.5503,1.1769
		c-0.9266,0.1607-1.8964,0.0972-2.7652-0.1862c-0.6968-0.2271-1.332-0.5964-1.8335-1.103c-1.656,0.095-4.3727,0.3314-6.5531,0.7333
		c-1.2988,0.2395-2.3876,0.5264-2.882,0.8561c0.1377,2.973,0.1309,2.9883-0.1361,3.5229l-0.1148,0.2293l-0.2543,0.0403
		c-0.7957,0.1256-2.573,0.4782-3.9418,0.8203c-0.8286,0.2069-1.4581,0.3691-1.4666,0.3832l-0.1123,0.1871l-0.212,0.0454
		c-3.1172,0.665-4.0005-0.0482-4.2313-1.131c-0.0859-0.4025-0.0573-0.8229-0.0289-1.2354c0.0209-0.3053,0.0408-0.6069,0.0068-0.834
		c-2.1714,0.2007-7.5512,1.0346-11.7057,1.9029c-2.0103,0.4201-3.7111,0.8002-4.5212,1.0349
		c2.4622,0.7614,7.6816,2.4188,8.3494,5.0445l2.1078-0.288C328.2735,474.0673,332.1371,473.5394,336.0753,472.9552
		L336.0753,472.9552z M385.2488,460.459c1.1199-0.5499,2.2331-1.0772,3.3307-1.5625c1.5574-0.7466,3.1575-1.5335,4.818-2.3638
		l0.0547-0.0252c0.4816-0.1723,0.9712-0.339,1.4128-0.4893c3.0892-1.0511,3.5275-1.2021,3.7707-5.7438
		c-3.6686,0.5105-7.5787,1.9927-11.439,3.4551c-4.0008,1.516-7.9512,3.0115-11.6033,3.4254
		c-0.0289,0.0692-0.0567,0.1431-0.0842,0.22h-0.002c-0.0462,0.129-0.0873,0.271-0.1171,0.4207l-0.0734,0.3674l-0.3736,0.0331
		c-1.3867,0.1222-5.1344,0.8292-8.2613,1.5849c-2.1217,0.5131-3.933,1.031-4.4407,1.366l-0.0649,0.2724
		c-0.3625,1.495-1.5738,6.484-1.5497,7.0507c6.1741-1.1761,11.4134-2.6856,16.5549-4.6236
		C379.8578,462.8375,382.5071,461.7127,385.2488,460.459L385.2488,460.459z M84.4469,508.4875l2.0469,0.1862
		c4.6913-1.2498,4.0666-9.8856,3.7142-14.7467c-0.0643-0.8892-0.1199-1.6563-0.1329-2.2717l-1.6687-10.6378
		c-0.0544-0.0099-0.1094-0.0182-0.1636-0.0264c-0.0329,0.9595-0.0476,1.9063-0.0609,2.8596
		c-0.032,2.2663-0.0647,4.5766-0.3507,7.0679c0.0479,1.8794-0.8504,4.9969-1.7637,8.1655c-0.623,2.1617-1.2532,4.3484-1.5885,6.1104
		c0.093-0.3322,0.2069-0.6879,0.3365-1.0556c0.7149-2.0291,1.8499-4.591,2.1688-5.0924l0.2636-0.2049
		c0.1553-0.0516,0.3008-0.0768,0.4521-0.0884c0.1423-0.0111,0.2741-0.0111,0.4241-0.0111h0.2069l0.1466,0.1466
		c0.2563,0.2562,0.4555,2.046,0.182,3.8593c-0.1054,0.699-0.273,1.4199-0.5219,2.0778c-0.258,0.6829-0.6046,1.2977-1.0602,1.7532
		h-0.002c-0.6129,0.6125-1.4026,0.9411-2.4097,0.7892l-0.2792-0.1406c-0.0706-0.0706-0.1162-0.1763-0.1412-0.3107
		C84.2051,507.5968,84.2607,508.1377,84.4469,508.4875L84.4469,508.4875z M73.4701,507.8077
		c-1.103-0.6556-1.7416-1.3275-2.0237-1.9857c-0.2971-0.6937-0.2118-1.3544,0.144-1.9616c0.3197-0.5457,0.8629-1.0352,1.5341-1.453
		c1.6223-1.0094,4.0754-1.6495,5.8555-1.6495h0.2475l0.1508,0.2012c0.4334,0.5777,0.6585,1.1509,0.7169,1.7059
		c0.0726,0.6894-0.1114,1.3368-0.4703,1.9261c-0.3379,0.5553-0.8351,1.0582-1.4156,1.4936
		c-1.3221,0.9916-3.1147,1.6503-4.4345,1.7892L73.4701,507.8077L73.4701,507.8077z M338.3617,505.4547
		c-0.7928-0.6741-1.2708-1.4318-1.5502-2.2108c-0.2764-0.7702-0.3555-1.5446-0.3555-2.2739v-0.2492l0.2032-0.1511
		c1.836-1.3672,8.6201-4.3112,13.1119-5.1066c1.2852-0.2276,2.4069-0.2826,3.2111-0.0833c0.9902,0.2455,1.5452,0.8282,1.4612,1.8564
		c-0.079,0.9709-0.8486,2.3808-2.5684,4.3498l-0.2812,0.1621c-1.6138,0.3112-3.3554,1.046-5.1069,1.7844
		c-2.6716,1.1262-5.3674,2.2629-7.8477,2.0375L338.3617,505.4547L338.3617,505.4547z M54.9558,488.7748
		c-0.9556,2.452-1.2835,5.1673-0.642,8.1369l0.284-0.0233c1.65-0.1403,5.4782-0.4677,6.7793-0.0159v-0.0006
		c4.7189,0.3629,9.7708-0.1403,14.8646-0.6477c2.9464-0.2934,5.908-0.5885,8.8367-0.7203h0.0011
		c-0.0221-0.0443-0.0448-0.1069-0.0337-0.199c0.0425-0.3608,0.0403-0.8558-0.0252-1.419c-0.2285-1.9633-1.2183-4.7013-3.7253-5.3955
		l-0.3674-0.1017V488.01v-0.504v-0.2069l0.1465-0.1465c0.1071-0.1071,0.2151-0.2154,0.3524-0.3084
		c-0.159-5.0031-4.3002-6.2742-8.9898-6.2742v0.002c-3.0172,0-6.2549,0.5134-8.8733,0.928
		c-1.6359,0.2591-3.0348,0.4808-4.0232,0.5216C57.5915,483.9973,55.9386,486.2534,54.9558,488.7748L54.9558,488.7748z
		 M91.5874,486.7186l0.5987,8.1799c1.0159-0.0573,2.0472-0.1021,3.0935-0.1415c1.1157-0.0419,2.2601-0.0771,3.4211-0.1111
		c0.3685-0.4187,0.6877-0.9941,1.0199-1.5937c0.8521-1.5361,1.7813-3.21,3.8999-3.4869c-0.3756-1.1894-1.1469-2.0908-2.1266-2.7445
		l-0.0003,0.0006c-1.0466-0.6976-2.3341-1.12-3.642-1.313c-1.3184-0.1947-2.6527-0.1559-3.7837,0.0675
		C92.9322,485.8001,92.0242,486.1992,91.5874,486.7186L91.5874,486.7186z M102.958,493.0679
		c-0.5363,0.3762-0.9794,0.8569-1.2671,1.4156c1.5885-0.1701,3.1915-0.3416,4.8872-0.5176
		c-0.0318-0.1434-0.0958-0.3067-0.1758-0.4756c-0.2529-0.5338-0.6551-1.0562-0.8617-1.3054
		C104.6149,492.2294,103.7001,492.5474,102.958,493.0679L102.958,493.0679z M110.543,493.9959
		c3.7397,0.0703,7.4812,0.1432,11.2714,0.2832c3.8452-0.182,7.8395-0.3098,11.9024-0.4391
		c11.8667-0.3787,24.3258-0.7767,36.0491-2.6501l0.0782-0.008c0.4702,0,12.8829-0.6157,21.6289-1.2628
		c3.9963-0.2953,7.1867-0.5743,7.9943-0.7565c-0.0552-0.3818-0.1102-0.7515-0.1633-1.0707l-0.0422-0.2545l0.1808-0.1809
		c0.1553-0.1553,0.3167-0.2956,0.4918-0.4297c0.0927-0.0712,0.1902-0.14,0.292-0.2075c-0.0666-1.5078-0.6741-2.9055-1.1781-4.0657
		c-0.1485-0.3421-0.2888-0.6661-0.4059-0.9672c-3.1391-0.3796-12.4671-1.1821-19.7944-0.7534
		c-4.3322,0.2534-7.9228,0.9176-8.9637,2.3219l-0.1406,0.1896l-0.2361,0.0116c-6.1458,0.3005-12.3854,1.326-18.5,2.3309
		c-4.0853,0.671-8.1161,1.3334-12.0251,1.766c-2.711,0.883-8.2233,1.262-13.8288,1.6461c-2.6209,0.1797-5.2628,0.3611-7.5963,0.5899
		c-4.6689,0.4575-8.2712,1.0573-8.4141,2.0837C109.5766,492.7819,110.0582,493.3893,110.543,493.9959L110.543,493.9959z
		 M179.2074,492.4238c0.3518,0.0108,0.7121,0.0281,1.0845,0.0541c0.7889-0.002,10.2843-0.3277,17.2584-0.8251l-0.5473-0.0088
		C190.8051,491.5389,184.0915,491.4243,179.2074,492.4238L179.2074,492.4238z M85.9138,489.6096l0.1672,0.2372
		c0.0995-0.3937,0.1395-0.8235,0.131-1.2084c-0.0079-0.3574-0.0374-0.6474-0.0845-0.7755
		c-0.7931,0.0116-1.0771,0.0958-1.0771,0.2296C85.0504,488.3853,85.4518,488.9545,85.9138,489.6096L85.9138,489.6096z
		 M86.0868,487.7977l-0.0003,0.0006l0.0031,0.0014L86.0868,487.7977L86.0868,487.7977z M219.3134,489.9722
		c-0.5771-0.0547-1.2322,0.0493-1.8369,0.1919C218.0617,490.1414,218.6513,490.0974,219.3134,489.9722L219.3134,489.9722z
		 M105.685,487.65c0.616,0.7985,1.4329,1.5494,2.3556,2.0202c1.7572-0.0658,23.6812-2.5818,39.7145-4.8807
		c6.1481-0.8816,11.3992-1.7067,14.2288-2.3017c-10.4853-0.1094-21.1127,0.4813-31.5258,1.059
		c-4.6718,0.2591-9.3016,0.5164-13.8972,0.7081c-1.4922,0.8119-4.2511,0.8195-6.8939,0.8254
		c-2.0347,0.0048-3.998,0.0091-5.0981,0.3722C104.6815,486.0632,105.0831,486.8699,105.685,487.65L105.685,487.65z
		 M202.6698,486.4957c0.39,0.8045,0.7526,1.55,0.9995,2.1237c3.155,0.2582,4.8921-0.1145,5.8261-1.2197
		c0.9215-1.0902,1.1543-2.9684,1.2368-5.6923l-0.1489,0.011v0.0003c-2.1996,0.1638-5.6826,0.4232-6.8535-0.3385
		c-0.2197-0.0023-0.4848-0.0079-0.7296-0.0136h-0.002c-1.0213-0.0241-1.6957-0.0399-2.3202,0.3898
		C200.8335,482.7072,201.8217,484.7465,202.6698,486.4957L202.6698,486.4957z M213.8692,481.0572
		c-0.2464,1.5452-0.2571,1.7603-0.3198,6.4239c1.0378-0.0564,2.0905-0.1012,3.1581-0.14c1.1177-0.0408,2.2629-0.0751,3.4234-0.1083
		c0.7237-1.7407,0.631-3.2383,0.0779-4.3937c-0.3433-0.7169-0.8666-1.3082-1.4822-1.7456
		c-0.6148-0.4366-1.3221-0.7189-2.0333-0.8201C215.6689,480.1277,214.6368,480.3618,213.8692,481.0572L213.8692,481.0572z
		 M54.3336,482.0791c-0.2761,1.3127-0.5014,2.4576-0.1202,4.089c0.3384-0.3912,0.8234-1.0695,1.3039-1.8
		c0.5584-0.849,1.0803-1.7439,1.3391-2.338C55.9942,482.0317,55.1401,482.0403,54.3336,482.0791L54.3336,482.0791z
		 M258.1985,485.8889c-1.4052,0.163-2.7312,0.3798-3.7695,0.6423c0.379-0.0448,0.8212-0.0947,1.3034-0.1488
		c1.7612-0.1982,4.0723-0.4583,5.7929-0.7685C260.4342,485.6683,259.2935,485.7618,258.1985,485.8889L258.1985,485.8889z
		 M38.594,480.2142c-0.0017,1.8938,0.2583,3.8432,0.5842,5.1659c0.2112-0.832,0.4827-1.7082,0.7608-2.6053
		c0.8524-2.7474,1.7685-5.7005,1.082-7.9929c-0.1667-0.0116-0.3214-0.0012-0.4623,0.0281
		c-0.6894,0.1423-1.1642,0.7855-1.4755,1.6945v0.002C38.7337,477.5261,38.5951,478.8513,38.594,480.2142L38.594,480.2142z
		 M83.177,485.1053l0.3731,0.5712c0.9204-0.104,1.889-0.1672,2.8635-0.2256c0.055-2.2881,0.0459-2.5611-0.1726-4.4867
		c-1.7104,0.0672-3.4498,0.1828-5.1911,0.3025C81.4147,482.4034,82.2583,483.6977,83.177,485.1053L83.177,485.1053z
		 M264.9373,483.6713c-0.123,0.8413-0.3328,0.9879-0.3753,1.0372c0.5023,0.0153,1.9865,0.0553,2.5838-0.1786
		c-0.0516-0.3056-0.1041-0.6063-0.1599-0.8864l-0.0623-0.3112l0.2576-0.1885c0.4014-0.2942,0.9973-1.6625,1.5367-3.2148
		c0.5496-1.5817,1.0154-3.3208,1.1616-4.3393l-2.1288,0.1522c-1.22,3.0691-1.7663,4.7546-2.2187,6.1506v0.002
		C265.3288,482.5204,265.1437,483.0911,264.9373,483.6713L264.9373,483.6713z M90.5468,481.0816
		c0.0247,0.3104,0.1219,1.1268,0.3937,3.3814c0.3722-0.0153,0.8073-0.025,1.2796-0.0363c2.1852-0.0525,5.1976-0.1256,6.8845-0.8382
		c-2.2031-2.6779-5.4224-2.5909-8.301-2.5129L90.5468,481.0816L90.5468,481.0816z M294.7657,481.1493
		c-1.3373,0.1236-2.6739,0.3807-4.0039,0.659c0.7356-0.0816,1.474-0.1791,2.1733-0.2942
		C293.5981,481.405,294.2203,481.2828,294.7657,481.1493L294.7657,481.1493z M101.8037,481.6816
		c5.0746,0.0726,10.2005,0.2155,15.3261,0.3578c13.4884-0.6534,27.3413-2.382,41.2733-4.1199
		c4.3379-0.5411,8.6853-1.084,13.1219-1.6053c0.3866-0.9232,0.6616-2.4126,0.8558-4.0433c0.3045-2.5603,0.4005-5.4445,0.417-7.0826
		c-3.3993,0.0935-7.1714,1.1083-10.9709,2.1294c-3.6468,0.9796-7.3199,1.9673-10.7819,2.1801
		c-17.8447,3.1558-36.8359,3.4702-55.2402,3.7743c-6.5806,0.1086-13.0864,0.2166-19.451,0.4532
		c0.1695,0.6395,0.4473,1.3039,0.8226,1.9956c0.4694,0.8643,1.0922,1.7742,1.8445,2.7357c2.8763,0.2256,5.3133,0.1049,7.5654-0.0074
		C91.6401,478.197,95.7903,477.9907,101.8037,481.6816L101.8037,481.6816z M159.4448,479.7476
		c-3.2647,0.3615-6.5786,0.7926-8.9243,1.1772c1.9162-0.0573,3.8985-0.0652,5.9159-0.0737
		c6.9931-0.0295,14.4091-0.0615,21.1569-2.1725c-1.8031-7.1362,0.7798-13.9567,3.3418-20.7198
		c0.7662-2.022,1.5307-4.0399,2.177-6.0755c0.1213-0.6225,0.2364-1.2033,0.3436-1.745c0.8396-4.246,1.1974-6.0565,0.7166-7.0855
		c-0.3396-0.7265-1.2047-1.2013-2.7113-2.0273c-1.1869-0.6508-2.7473-1.5077-4.7554-2.8729
		c-0.4898-0.0899-0.9632-0.1171-1.4167-0.0887h-0.002c-2.2672,0.1414-4.176,1.6852-5.6613,3.8786
		c-1.5267,2.255-2.6028,5.1905-3.17,8.0274c-0.3555,1.7782-0.5097,3.5107-0.449,5.0063c0.7325,0.3013,1.4638,0.6814,2.2294,1.0786
		c1.3462,0.6982,2.8026,1.4542,4.4671,1.8808l0.1485,0.0646c1.9868,1.2895,3.0682,5.6367,3.0682,10.025h-0.002
		c-0.0003,1.6945-0.157,3.4019-0.4799,4.9405c-0.3282,1.5641-0.8311,2.9664-1.5185,4.0255
		c-0.8393,1.2929-1.9505,2.0869-3.3553,2.0869l-0.2441-0.0646C169.8477,478.7478,164.7442,479.1608,159.4448,479.7476
		L159.4448,479.7476z M223.1569,479.4479c0.0216,0.1931,0.0765,0.3867,0.2826,0.6514c0.0845-0.2429,0.1684-0.476,0.252-0.7039
		C223.5104,479.4094,223.333,479.4279,223.1569,479.4479L223.1569,479.4479z M205.2014,479.4675l0.6386-0.1851v0.6472
		c1.2657-0.0555,1.6651-0.1159,4.9887-0.6497c0.4462-1.0591,0.4428-2.1215,0.4397-3.1042c-0.0042-1.389-0.0079-2.6411,1.0621-3.7111
		l0.1465-0.1465h0.2069h0.72h0.3209l0.1341,0.2951c0.3543,0.7801,0.2432,2.6501,0.1562,4.1151l-0.019,0.3368
		c1.1956,0.3101,3.8602,0.5794,6.4006,0.5941c2.0545,0.0122,3.9985-0.1406,4.9459-0.5692c0.847-0.8753,3.5663-1.6259,7.2683-2.2481
		c-3.0217,0.2781-6.0364,0.5136-9.0355,0.6826c-0.0598,0.4887-0.1245,0.5536-0.4581,0.8873l-0.1465,0.1465h-0.2069
		c-0.466,0-0.716-0.0746-1.1228-0.1953c-0.2795-0.0828-0.6471-0.1925-1.2787-0.3186l-0.7086-0.1417l0.3824-0.612
		c0.1479-0.2367,0.2369-0.474,0.2885-0.6956c0.036-0.1548,0.0553-0.3062,0.063-0.4459c-0.9579-1.097-2.6002-3.0852-4.5012-5.3884
		c-4.5607-5.5256-10.6384-12.89-11.9874-13.8427l-0.1803,0.2939c-3.1295,5.1027-10.1781,16.5969-10.4009,21.9594
		c1.0669,0.6852,3.4977,1.4579,5.9723,1.9554C201.6394,479.5991,203.9935,479.817,205.2014,479.4675L205.2014,479.4675z
		 M249.2603,473.0306l-1.7016,0.1987c8.4764-0.5975,16.9126-0.8056,20.2484-0.5663c0.3512-0.307,0.7158-0.5975,1.0868-0.8799
		c-1.1826-0.0451-2.9075-0.0669-4.5677-0.0669c-2.3989,0-4.5433-0.1015-4.5703-0.0609l-0.1292,0.1933l-0.2339,0.0255
		C256.077,472.2315,252.671,472.6309,249.2603,473.0306L249.2603,473.0306z M194.3853,479.7802
		c-1.9267-0.4173-3.3222-0.3132-4.9408-0.1125c0.3138,0.0113,0.6951,0.0368,1.1169,0.0643
		C191.698,479.8068,193.1493,479.9015,194.3853,479.7802L194.3853,479.7802z M52.2332,474.7682
		c0.1551,1.3329,0.5361,2.723,1.2798,4.3679c1.8952-0.1299,3.8472-0.2611,5.8005-0.3912c0.8487-1.4661,1.8987-2.982,2.9514-4.5023
		c1.4519-2.0965,2.9103-4.2024,3.816-6.1478c-2.2768,0.2977-4.6097,0.6421-6.876,1.0554c-2.4239,0.4422-4.7755,0.9652-6.9083,1.601
		C52.1453,472.1692,52.0789,473.4482,52.2332,474.7682L52.2332,474.7682z M61.7406,478.7019
		c-0.0482,0.1449-0.2086,0.203-0.2529,0.2367c1.5097-0.0448,3.1059-0.0598,4.7557-0.0754c3.1096-0.0298,6.4137-0.0615,9.7747-0.3044
		c-0.4028-1.1174-1.1095-2.0843-1.7782-3.0005c-0.8127-1.1143-1.5755-2.1603-1.7887-3.3894
		c-0.3637-0.8371-0.6287-1.5455-0.8481-2.1337c-0.6678-1.7884-0.8552-2.2912-2.7924-2.3309
		c-0.2234,0.3347-0.618,0.8895-1.1135,1.5868C65.802,471.9577,62.3863,476.7647,61.7406,478.7019L61.7406,478.7019z
		 M179.9149,477.8172c0.2225,0.2225,0.521,0.3915,0.902,0.4036c0.648-0.1295,1.018-0.2043,1.2314-0.252
		c-0.4241-0.4269-0.9193-0.7654-1.4105-0.9541c-0.4513-0.1732-0.8915-0.2146-1.2455-0.0627
		C179.4676,477.1961,179.6352,477.5374,179.9149,477.8172L179.9149,477.8172z M182.9072,458.1396
		c-1.7793,5.5083-3.5569,11.012-4.5156,16.5365l1.5489-0.5162c0.3566-1.3445,1.0879-3.6074,1.9613-6.3105
		c2.6907-8.3248,6.7558-20.9041,5.3436-23.1154h-0.4425C185.7847,449.2324,184.3449,453.6878,182.9072,458.1396L182.9072,458.1396z
		 M298.3459,468.9005c-6.6166,0.5494-24.0843,1.9999-27.7458,4.2327c4.2671-1.1064,8.8376-1.8544,13.5233-2.3953
		c5.1055-0.589,10.3592-0.9312,15.5098-1.218c0.3282-0.2497,0.3923-0.4748,0.3994-0.7634
		C299.5864,468.7968,299.0242,468.8441,298.3459,468.9005L298.3459,468.9005z M212.6789,462.1926
		c3.4968,4.4223,7.6053,9.1423,9.7174,10.9528c4.9499-0.9595,10.6378-1.1112,16.2848-1.262
		c2.6989-0.072,5.3881-0.1446,8.0037-0.3076c-0.1228-0.1293-0.2517-0.1707-0.3765-0.2112
		c-0.1607-0.0524-0.3175-0.1032-0.4935-0.2208l-0.3152-0.2106l0.1199-0.3594c2.1178-6.3542,23.5786-7.5421,35.0136-8.1745
		c2.4168-0.1335,4.3812-0.2432,5.5953-0.3677c2.1317-0.7418,4.3407-2.0242,6.4485-3.5087c2.1401-1.5072,4.1774-3.2227,5.9293-4.796
		l0.1366-0.0859c2.1271-0.923,6.3108-3.2621,10.0247-5.6956c2.6297-1.7229,5.0085-3.4832,6.2175-4.7965
		c-1.1293-1.2892-1.7852-1.5968-2.7739-2.0599l-0.0938-0.0439c-4.8608-0.7452-4.896-3.0444-4.9306-5.4187
		c-0.0266-1.8224-0.0555-3.6983-3.2766-4.6443c-7.6447-0.0014-15.5403-0.2211-23.4779-0.4422
		c-17.7957-0.4949-35.805-0.9964-52.6935,0.9723c2.3196,1.6427,12.0365,8.2369,19.872,13.248
		c4.8969,3.132,9.0346,5.578,10.1166,5.6718l0.21,0.0182l0.1355,0.1695c0.1165,0.1457,0.2205,0.2968,0.3104,0.4498
		c0.4394,0.7492,0.6134,1.6365,0.4689,2.5022c-0.1437,0.864-0.6033,1.7061-1.4293,2.3666c-0.1752,0.14-0.3648,0.2713-0.5667,0.3895
		l-0.252,0.0703c-1.421,0-11.0605-6.3278-19.7323-12.6564c-6.8752-5.017-13.1899-10.0692-14.4051-12.028
		c-5.7283,0.2574-11.4063,0.8138-17.0646,1.368c-7.3993,0.7242-14.7685,1.4457-22.1972,1.497
		c-0.7758,0.5658-2.3854,0.7021-3.9628,0.8342c-1.0661,0.0893-2.1166,0.1766-2.7677,0.3759
		c0.9652,0.7126,3.8988,2.6356,6.4851,3.6771c1.3093,0.5273,2.4967,0.8269,3.1879,0.599c-0.0267-0.2721-0.0272-0.5352-0.0272-0.7988
		v-0.5094l0.5097,0.0113c1.787,0.0391,3.5385,0.0964,5.2843,0.1531c7.9197,0.258,15.7396,0.5122,24.0494-0.9677
		c0.6599-1.0559,1.8904-1.2144,3.4501-0.7606c1.531,0.4453,3.414,1.5052,5.3609,2.8613c1.9185,1.3365,3.9203,2.9758,5.7115,4.6001
		c3.7154,3.3684,6.4454,6.7918,5.8524,7.5827l-0.1446,0.1927l-0.2421,0.0065c-1.4256,0.038-2.9806,0.0309-4.5743,0.0235
		c-4.2791-0.0193-8.8469-0.0403-11.9594,0.8195c-0.1485,0.4898-0.2843,0.9737-0.4105,1.457
		c-0.1454,0.5565-0.2902,1.1534-0.4373,1.7793l-0.125,0.5315l-0.5173-0.1723c-0.1332-0.0442-0.3127-0.0445-0.4918-0.0445h-0.5v-0.5
		c0-1.26,0.0762-2.2139,0.2857-3.062c0.1978-0.8005,0.5097-1.4885,0.9797-2.2232c-0.0309-0.1454-0.0615-0.2772-0.0919-0.4031
		c-1.8527-0.3237-2.4859-0.025-2.63,0.7047c-0.1088,0.5533-0.0317,1.3513,0.0596,2.3011c0.0845,0.8762,0.1805,1.8763,0.163,2.9784
		l-0.0096,0.5992l-0.5859-0.1171c-0.3101-0.0618-0.5746-0.0621-0.8385-0.0621h-0.4584l-0.0397-0.4569
		c-0.0303-0.3501-0.0535-0.7438-0.0754-1.1225h-0.0002c-0.0578-0.9856-0.108-1.849-0.379-2.4605
		c-1.3561-0.0198-2.5059,0.051-3.5839,0.191c-1.0131,0.1313-1.97,0.3249-2.9818,0.5624
		C207.1539,454.909,209.6907,458.4138,212.6789,462.1926L212.6789,462.1926z M73.6166,469.8845
		c0.341,0.7412,0.7869,1.4297,1.334,1.8484c0.9499-0.0615,1.9647-0.1843,3.0039-0.3104c1.618-0.1964,3.2975-0.4005,4.9856-0.4005
		h0.2245l0.1505,0.1721c1.7844,2.0396,32.2039-0.2897,50.0485-1.656c5.2092-0.3988,9.3512-0.7163,11.4471-0.8169l0.4133-0.0488
		c3.5804-0.413,27.5244-3.1779,27.9969-7.8814c-3.7834-5.2928-18.4215-2.7538-28.3031-1.0395
		c-3.0439,0.5278-5.6443,0.9788-7.3823,1.1041c-5.4323,1.6157-11.6946,1.8972-17.8296,2.1725
		c-5.0615,0.2268-10.0366,0.4504-14.3365,1.4202l-0.0527,0.0099c-2.0577,0.2398-9.491,0.8325-16.7839,1.4136
		c-7.3602,0.5862-14.5488,1.1347-15.7258,1.235C72.8819,467.7653,73.1458,468.862,73.6166,469.8845L73.6166,469.8845z
		 M256.7248,467.4889c-3.7999,0.8847-6.9925,2.19-8.104,3.9665l2.5041-0.2154v-0.0003c7.3037-0.631,14.7374-1.2736,22.4949-1.6512
		c1.6099-0.724,3.5861-2.0211,5.4797-3.2641l0.0009,0.0014l0.5643-0.3719c-0.7214,0.2245-1.4187,0.5085-2.0556,0.7673
		c-0.9715,0.3946-1.8113,0.7361-2.4843,0.7696c-0.7948,0.0394-1.3226-0.263-1.4797-1.1582
		C270.2449,465.7917,262.7589,466.0837,256.7248,467.4889L256.7248,467.4889z M297.9589,463.7194
		c-4.7698,0.3013-17.3987,1.1004-20.1498,5.6795c7.4418-0.9737,14.8802-1.944,22.2188-2.8276
		c0.9176-0.4453,0.883-1.1786,0.8654-1.548l-0.0037-0.0646c-0.1021,0.1023-0.2061,0.1882-0.3118,0.2568
		c-0.2869,0.1865-0.5867,0.2614-0.8782,0.2305c-0.2974-0.0315-0.5709-0.1687-0.8013-0.404l-0.002-0.002
		c-0.2838-0.2903-0.5048-0.7455-0.6115-1.3416L297.9589,463.7194L297.9589,463.7194z M301.7242,463.5215
		c-0.0896,0.2542-0.1894,0.4825-0.2965,0.6843c0.3396,0.0014,0.7231,0.3855,1.6582,1.3238l0.3909,0.392
		c11.0399,0.5788,22.629-3.1122,33.9766-6.7269c6.6929-2.1319,13.3036-4.2381,19.6852-5.4371
		c1.0269-0.3447,5.3189-1.8754,8.2961-3.3075c1.3881-0.6678,2.463-1.2628,2.666-1.5832c-2.3148-3.4293-5.4116-6.2543-8.3843-8.9666
		c-2.5648-2.3394-5.0392-4.5972-6.8859-7.1183h-17.4722c-1.6137,0.4175-3.0311,0.3297-4.3287,0.2491
		c-1.2527-0.0776-2.3862-0.1485-3.3937,0.2957c-2.6359,3.6403-8.6575,9.5114-14.8887,14.4094
		c-5.1225,4.0269-10.408,7.4103-14.1134,8.3908c-1.0812,1.211-2.2521,2.302-3.5042,3.2531
		c-0.9921,0.7534-2.0333,1.4179-3.1167,1.9851c4.4357-0.7135,8.7758-1.3748,13.1309-2.0389
		c10.3235-1.5746,20.7386-3.1632,31.1403-5.2144l0.0958-0.0099c2.4417,0,3.8097,0.7724,4.3976,1.5191
		c0.3203,0.4073,0.4354,0.8354,0.3858,1.1812c-0.0656,0.4578-0.3742,0.7758-0.868,0.8238
		c-0.4164,0.0403-0.9885-0.1602-1.6191-0.7452c-3.1927-0.2968-7.6363,0.2959-11.6464,1.5211
		c-3.6292,1.1089-6.8823,2.7269-8.4833,4.6545l-0.1723,0.2072l-0.2651-0.0295c-0.2543-0.0281-0.4952-0.0422-0.7177-0.055
		c-1.0228-0.0587-1.783-0.1032-1.9811-0.9488c-2.0245,0.0216-5.8943,0.1789-9.0989,0.4961
		C304.2388,462.9316,302.4675,463.1964,301.7242,463.5215L301.7242,463.5215z M303.626,468.4433
		c0.0114,0.1287,0.0303,0.2628,0.0533,0.4042c0.6364-0.036,1.6101-0.1454,2.4874-0.3677c0.6686-0.1695,1.267-0.3986,1.5638-0.6953
		l0.1466-0.1465h0.2068c3.7372,0,7.4563-0.0179,11.2083-0.4099c3.6961-0.3861,7.4525-1.1361,11.3434-2.5897
		c1.1194-1.7138,5.493-1.9151,9.9349-2.1195c3.8135-0.1754,7.6804-0.3543,9.2055-1.3952v-0.9777v-0.2863l0.252-0.1451
		c1.0071-0.5811,2.3275-1.12,3.7621-1.5222c1.3323-0.3734,2.7729-0.633,4.1644-0.7044l0.4408-0.0227l0.0768,0.4348
		c0.1718,0.974,0.1934,1.0993,0.487,1.5304c0.1023,0.0012,0.2163,0.0048,0.3475,0.0105c0.1213,0.0051,0.2449,0.0128,0.3707,0.0252
		c0.3493-0.6077,0.5528-1.4664,0.6707-2.3136c0.1035-0.7433,0.1389-1.4822,0.1505-2.0443c-5.319,0.1366-11.296,2.389-17.1283,4.5867
		c-4.5018,1.696-8.9193,3.3602-12.9413,4.0238c-3.4631,2.0089-9.7234,2.4338-15.4653,2.823
		C309.9719,466.8803,305.3821,467.1912,303.626,468.4433L303.626,468.4433z M52.5033,467.7083
		c0.0714,0.0476,0.138,0.0737,0.1967,0.0737c0.8065,0,0.8067-0.0003,3.623-0.7041l0.0624-0.0119
		c1.2827-0.1553,2.5484-0.2888,3.7077-0.4105c3.619-0.3807,6.1475-0.6469,7.3196-1.4539c1.4879-1.0236,0.6877-3.2763-2.9594-8.602
		c-2.8006-0.1233-5.6508,0.2976-8.4968,0.7172c-2.1101,0.3112-4.218,0.6219-6.3388,0.7166
		c0.0873,0.8498,0.3764,2.7164,0.8237,4.6253c0.5261,2.2459,1.2515,4.5108,2.0599,5.0497H52.5033L52.5033,467.7083z
		 M217.3028,466.0319c-0.8929-0.5956-1.7617-1.5415-2.4163-2.5024c-0.7155-1.0505-1.1906-2.1509-1.1906-2.8794v-0.2475
		l0.2013-0.1508c0.6423-0.4816,1.3915-0.8631,2.1858-1.1231c1.2572-0.4119,2.6439-0.5264,3.9214-0.2684
		c1.3057,0.2636,2.4994,0.9147,3.3367,2.031c0.2593,0.3461,0.4844,0.7353,0.6661,1.169c0.591-0.1562,1.173-0.2721,1.7552-0.3883
		l0.2106-0.0423l0.176,0.1262c0.3308,0.2364,0.5604,0.6721,0.7126,1.2135c0.1596,0.5656,0.2471,1.2711,0.2883,1.9715l0.0133,0.2248
		l-0.1579,0.1579c-0.1743,0.1743-1.3918,0.3152-2.9114,0.4238c-2.6297,0.1877-6.3261,0.3708-6.5141,0.3708L217.3028,466.0319
		L217.3028,466.0319z M74.6141,464.2563c1.4978-0.0182,3.0793-0.0374,4.4237,0.2857c13.3398-0.3512,27.1471-1.3652,40.9731-2.9092
		c14.5312-1.6228,29.0735-3.8313,43.1082-6.4706c0.9627-1.6886,1.703-3.7967,2.2734-5.9091
		c0.557-2.0622,0.9519-4.1196,1.2336-5.8022c-3.7769-1.4499-17.4524,0.2197-25.8554,1.2455
		c-2.9225,0.3569-5.2121,0.6361-6.2799,0.6812c-3.5768,0.8739-7.5858,1.637-11.5367,2.2048
		c-3.8512,0.5536-7.6603,0.9241-10.9746,1.0349c-3.6281,1.3292-8.8756,1.6923-14.4363,2.0764
		c-8.5385,0.5896-17.8344,1.2319-22.754,5.5312c-0.5564,0.8158-1.1066,1.6302-1.6503,2.4435
		c-0.4289,0.6415-0.8563,1.2861-1.2849,1.9358c-0.3438,1.0403-0.5426,2.1968-0.5749,3.4849
		C72.1553,464.2855,73.3541,464.2713,74.6141,464.2563L74.6141,464.2563z M70.8899,460.2554
		c0.6474-2.0032,1.7793-3.6006,3.2726-4.8813c0.2486-0.3637,0.4978-0.726,0.7475-1.0877c-1.8284-0.0261-4.6148,0.6511-6.5948,1.1313
		c-0.5034,0.1222-0.9567,0.2316-1.3193,0.3132c0.0179,0.7322,0.4073,1.7396,0.9454,2.7935c0.5737,1.1248,1.3099,2.2816,1.959,3.2408
		C70.2295,461.2609,70.5589,460.758,70.8899,460.2554L70.8899,460.2554z M217.3167,463.2539
		c0.5987,0.4411,1.4984,0.6815,2.7904,0.7835c0.1511-0.0031,0.4586-0.1077,0.8456-0.2395c0.3756-0.1281,0.8175-0.2795,1.3178-0.4019
		c-0.7132-0.6242-1.082-1.2087-1.4096-1.7294c-0.091-0.1448-0.1783-0.2854-0.2662-0.4133
		c-1.6316,0.2043-2.9409,0.3745-4.2094,0.5397C216.5652,462.4398,216.86,462.9174,217.3167,463.2539L217.3167,463.2539z
		 M363.1034,456.3895c-0.1179,0.7356-0.2421,1.5041-0.2866,2.3706c2.9486-0.8365,3.7523-1.0681,4.0442-1.2047l-0.0626-0.3104
		c-0.2597-1.2812-0.457-2.2538-0.457-3.0096c0-0.726,0.1392-1.2603,0.4969-1.6529c-1.22,0.4691-2.4224,0.9366-3.4676,1.5177
		C363.346,454.8736,363.2275,455.6148,363.1034,456.3895L363.1034,456.3895z M371.4216,450.4878
		c-0.7571,0.4756-1.5783,0.8731-2.4236,1.2348c1.2537-0.1803,3.0407-0.2126,5.542-0.2126h0.3577l0.1148,0.3438l0.9703,2.9109
		c1.347-0.0275,4.7736-0.8552,8.2905-1.868c4.2856-1.2339,8.6564-2.7283,9.5598-3.3789l0.2285-0.0899
		c5.5953-0.7151,5.6917-3.8401,5.7715-6.4454c0.0556-1.8147,0.1052-3.4169,1.632-4.1638l0.3212-0.1573l0.2512,0.2512
		c0.1021,0.1021,0.2038,0.1902,0.3126,0.2843c0.157,0.1361,0.3277,0.2841,0.4794,0.4357l0.1465,0.1466v0.2069
		c0,0.9215-0.0677,2.0945-0.1329,3.2295c-0.0644,1.1217-0.1279,2.2054-0.1182,2.9645c1.7087-0.5684,5.6979-2.4375,9.3132-4.3138
		c2.6337-1.3666,5.046-2.7139,6.1761-3.5175c-1.4426-0.1301-3.1581-0.188-4.8776-0.2463c-3.5311-0.1196-7.0789-0.2409-8.5563-1.0114
		c-4.7594-0.4193-10.0848-1.4083-15.5795-2.429c-11.421-2.1215-23.582-4.3798-32.8949-1.8842
		c0.8881,1.027,2.6223,2.6042,4.6011,4.4034c4.6985,4.2723,10.749,9.7744,10.749,12.8849l-0.0003,0.2744L371.4216,450.4878
		L371.4216,450.4878z M48.3437,454.2327c0.1758,0.4864,0.3535,0.9836,0.5352,1.5185c3.1524-0.0879,11.3451-0.7365,18.1335-1.7872
		c4.2344-0.6554,7.8982-1.459,9.371-2.3582c-0.0822-1.1758-0.7191-1.6078-1.1339-1.889l-0.004-0.002l-0.0108-0.0074
		c-5.6551,0.2597-10.8383,1.3887-15.9219,2.4959C55.6611,452.9987,52.0588,453.7828,48.3437,454.2327L48.3437,454.2327z
		 M408.5955,445.564c-3.3815,1.4298-5.7662,2.4389-6.7896,7.9001c4.2474-1.283,10.8916-3.7678,16.8503-6.658
		c4.269-2.0707,8.1791-4.3463,10.5817-6.5248c-0.7557-0.2767-1.8193-0.5275-2.9707-0.7447
		c-2.2306-0.4209-4.7693-0.7081-6.1027-0.8229c-0.3467,0.7438-1.1049,1.4669-1.9902,2.0761
		c-1.241,0.8538-2.7664,1.5148-3.697,1.6855C412.2955,443.9987,410.3221,444.8338,408.5955,445.564L408.5955,445.564z
		 M47.8655,447.711c-1.0613,1.6075-2.1643,3.2785-1.4244,4.5368c4.3364-0.8669,8.7265-1.741,13.2281-2.6269
		c4.1839-0.8232,8.43-1.6501,12.765-2.4775c-6.7439-7.8888-9.8243-7.3599-16.1739-6.2665c-1.7756,0.3055-3.799,0.6537-6.2436,0.8864
		c-0.7067,0.5669-0.6931,0.7671-0.6267,1.7002c0.0215,0.3047,0.0482,0.6752,0.0641,1.1888l-0.0176,0.1502
		C49.1703,445.7344,48.5249,446.7121,47.8655,447.711L47.8655,447.711z M79.8746,450.7936c0.0658,0.0196,0.1361,0.0391,0.212,0.0596
		c11.6677-1.8658,23.8399-3.6604,36.1001-5.2144c12.3032-1.5588,24.675-2.8746,36.6828-3.7735
		c3.0098-0.5017,3.8503-0.6426,4.1556-0.7347c-0.0317-0.6381-0.1684-1.1308-0.3804-1.4967
		c-0.1797-0.3096-0.4173-0.5295-0.6922-0.6713c-0.2823-0.1451-0.6143-0.2126-0.9726-0.2126c-0.6848,0-1.4508,0.244-2.166,0.6593
		l-0.1837,0.0627c-2.7598,0.379-5.675,0.7962-8.5825,1.2115c-12.2859,1.7558-24.4984,3.5016-36.5465,3.9739
		c-1.5874,0.4535-4.6644,0.7242-8.2363,1.0377C91.2081,446.4025,80.5507,447.3382,79.8746,450.7936L79.8746,450.7936z
		 M78.0752,448.8205c0.0094,0.0966,0.0184,0.1602,0.0295,0.2055c0.0289-0.015,0.0488-0.0338,0.0618-0.057v-0.002
		c0.0247-0.0439,0.0442-0.1004,0.0587-0.1667l-0.0357,0.0048h-0.002L78.0752,448.8205L78.0752,448.8205z M388.11,448.4077
		c-1.22-0.7254-3.2763-1.0622-5.3677-1.4049c-2.2989-0.3762-4.64-0.7599-6.16-1.6951l-0.1329-0.121
		c-1.3385-1.7263-3.8427-3.8534-6.4658-5.6568c-2.6031-1.7895-5.3051-3.2491-7.077-3.6658l-0.2271-0.0536l-0.1049-0.2101
		c-0.0385-0.0771-0.1293-0.2474-0.2177-0.4144v-0.002c-0.1412-0.2661-0.2715-0.5116-0.3759-0.7727l-0.3248-0.8118l0.862,0.1324
		c0.2608,0.04,0.5499,0.1343,0.8716,0.2395c0.8501,0.2775,1.9854,0.6477,2.9274-0.0697l0.2183-0.1667l0.2582,0.0964
		c2.6342,0.9814,4.8591,1.2549,6.9908,1.5168c3.7704,0.4632,7.2609,0.8929,12.2993,4.9827
		c0.2494,0.0864,0.5227,0.2424,0.8047,0.4513c0.8365,0.6194,1.8467,1.7799,2.5759,3.0226c0.7568,1.2898,1.2237,2.6983,0.932,3.769
		c-0.0692,0.254-0.1797,0.4901-0.3362,0.701l-0.1508,0.2032H389.66h-1.296v-0.5L388.11,448.4077L388.11,448.4077z M72.8362,443.6223
		c0.955,1.0151,2.0838,2.0121,3.1201,2.8792c1.5523,0.2614,2.9038-0.2418,4.0414-1.1321c1.4023-1.0973,2.4925-2.7763,3.2482-4.369
		c-4.0771,0.0706-8.1184,0.1964-12.1572,0.3243C71.4733,442.0522,72.0995,442.8388,72.8362,443.6223L72.8362,443.6223z
		 M90.1148,438.923c1.7399-0.2994,3.6377-0.3954,5.61-0.3989c9.0023-0.934,17.9541-1.9944,26.9467-3.2261
		c10.4099-1.4258,20.8718-3.0818,31.5221-5.036c0.0513-0.0799,0.114-0.1425,0.1769-0.2055l0.2812-0.1406
		c0.2293-0.0335,0.5343-0.0734,0.8014-0.108h0.002c1.4105-0.1823,1.599-0.2069,2.0248-1.963l0.093-0.383h0.3912
		c0.2826,0,0.5479,0.055,0.858,0.1193v0.0003l0.1775,0.0363l0.3447,0.07l0.0499,0.3478c0.0184,0.1281,0.0213,0.2574,0.0238,0.3872
		c0.0048,0.2319,0.0105,0.4725,0.286,0.6673c11.4004-2.4976,24.037-2.4854,36.6616-2.4732
		c7.7607,0.0074,15.518,0.0144,22.9884-0.5658c0.1747-0.6114,0.2478-0.6743,0.7818-1.1318l0.184-0.1579l0.2378,0.0485l0.1658,0.0278
		c0.2832,0.0474,0.7563,0.1256,1.2387,0.2637c0.1375-0.4782,0.2804-0.9531,0.5006-1.3938l0.3101-0.62l0.4887,0.489
		c0.4037,0.4036,0.4215,0.5383,0.5054,1.1775c0.013,0.0995,0.0287,0.2189,0.0672,0.4697l0.0885,0.5743H223.34h-0.0011
		c0.0487,0.0502,0.0921,0.1024,0.1295,0.1576c10.1299,0.1253,20.311-0.0655,30.5444-0.2571
		c11.7888-0.2211,23.6477-0.4442,35.5902-0.1865c0.0399-0.0493,0.0839-0.0919,0.1275-0.1355l0.1466-0.1465h0.2068
		c1.2203,0,2.6275,0.0958,4.1344,0.1979c1.743,0.1182,3.6224,0.2452,5.4963,0.2421c-1.2997-3.7468-6.1234-7.6688-10.9346-11.5801
		c-4.8024-3.9036-9.5927-7.7981-11.069-11.6822c-14.6951,0.4799-29.4974,1.6013-44.2061,2.715
		c-16.6195,1.2583-33.1214,2.5084-49.3248,2.8159c-3.8086,1.12-6.4573,0.1347-7.9418-1.4669
		c-0.6659-0.718-1.0973-1.561-1.2954-2.3984c-0.2015-0.8524-0.1618-1.707,0.1171-2.4276c0.4317-1.1154,1.4082-1.9037,2.92-1.9037
		l0.2225,0.0547c3.5399,1.7699,5.523,0.1097,6.9301-2.7051c0.8252-1.6503,1.474-3.7134,2.1115-5.7418
		c1.0755-3.4209,2.1231-6.7505,4.0496-8.1833c1.0335-4.0751,3.5342-8.5215,6.0171-12.9353
		c2.5909-4.6061,5.1621-9.1772,5.955-13.1426l0.0411-0.1193c3.2009-6.6181,6.3686-13.2409,9.493-19.8771
		c3.1161-6.6186,6.1928-13.2576,9.2211-19.927l0.1993-0.2228c0.1088-0.0652,4.5002-9.3699,8.6658-18.2937
		c3.7281-7.9863,7.2349-15.6265,7.2958-16.0528l0.0391-0.1346c4.3044-9.4927,8.8302-19.1458,13.3537-28.7946
		c3.8631-8.2397,7.7253-16.4781,11.4883-24.7034l0.0077-0.0156c0.1494-0.2985,0.3523-0.5783,0.5604-0.8567
		c0.4737-1.7904,3.4381-8.4268,6.5622-15.0658c3.3217-7.0594,6.8613-14.1585,7.8284-15.5129
		c1.3442-6.6745,5.4871-14.1129,9.561-21.4273c3.0872-5.5432,6.1351-11.0154,7.8627-15.9829l0.0156-0.0371
		c3.0441-6.8582,6.4046-13.7744,9.754-20.6694c3.9042-8.0359,7.7952-16.0452,11.122-23.8206l0.1953-0.2285
		c0.3986-0.2489,2.372-4.254,4.5397-8.8969c2.9676-6.3564,6.2343-13.8362,6.3939-14.6752l0.0411-0.123
		c0.5749-1.2014,1.6664-3.4333,3.1218-6.4092c7.8656-16.0826,26.3755-53.9323,29.5623-63.9116
		c-1.5871,2.9135-4.062,6.3487-6.4681,9.6871c-2.1296,2.9554-4.2047,5.8349-5.5335,8.1746l-0.0565,0.0799
		c-5.3455,6.1631-9.3795,13.3489-13.3982,20.5078c-0.5046,0.8989-1.0106,1.8-1.6642,2.9545
		c-3.9989,7.9969-8.2307,15.9199-12.7667,23.6687c-4.5388,7.754-9.3832,15.3364-14.6027,22.6451
		c-4.6111,8.53-9.7878,16.9867-14.9871,25.4795c-5.1149,8.3552-10.2523,16.7472-14.8808,25.2565l-0.0176,0.0315
		c-7.1373,11.1027-14.0754,22.3681-21.0237,33.6501c-11.4279,18.5556-22.8852,37.1588-35.1459,54.9235l-0.0351,0.0448
		c-8.0592,9.2307-14.7778,20.1143-21.4903,30.9881c-6.8698,11.1288-13.7347,22.2488-22.0445,31.623
		c-0.2991,0.4456-0.695,0.9496-1.1132,1.4814c-0.6327,0.8056-1.3195,1.6801-1.7317,2.4217l-0.0527,0.0762
		c-3.1348,3.7585-6.0593,7.7369-8.8744,11.8349c-1.3158,2.0188-2.8386,4.3195-4.2616,6.3916
		c-1.6826,2.586-3.3432,5.1979-5.0043,7.8103l-1.3467,2.1169c-1.1367,2.0871-2.7,4.46-4.4648,6.9304
		c-3.8775,5.9125-7.9075,11.6969-12.3806,17.0827l-5.076,7.2839c-14.5193,20.831-29.1007,41.7506-43.285,63.0261
		c-0.1888,0.4255-0.3767,0.8521-0.5431,1.3028L90.1148,438.923L90.1148,438.923z M100.7566,439.6427
		c-1.6903-0.0618-3.3749-0.1241-5.0034-0.1199c-1.493,0.1551-2.9883,0.3073-4.4844,0.4553l-0.0743,0.002l-0.9343-0.0499
		c-3.6638,0.6562-6.537,2.2717-7.7227,5.9743c18.6885-1.7045,37.6804-4.2211,56.7076-6.7425
		c5.7943-0.7673,11.592-1.5364,17.4813-2.2944c0.1023-0.4059,0.1471-1.1854,0.3498-4.9833
		c-6.656,0.506-13.333,1.9956-19.9431,3.4699c-7.9767,1.7793-15.859,3.5374-23.5264,3.5476
		C109.8913,439.9761,105.3074,439.8088,100.7566,439.6427L100.7566,439.6427z M190.1733,444.2201
		c0.561,0.3011,1.076,0.576,1.4281,0.8543c2.9361-0.4172,6.2583-0.5414,9.6967-0.6695c7.1719-0.2679,14.8581-0.5562,20.4809-3.6028
		c-0.3237-0.9924-1.9125-0.8623-2.8647-0.7849l-0.2764,0.0207l-0.0304,0.0958v0.002c-0.0374,0.1273-0.0709,0.2789-0.1054,0.4518
		l-0.0805,0.4025h-0.4096c-0.1791,0-0.3586,0.0003-0.4918,0.0445l-0.3538,0.1179l-0.2126-0.3053
		c-0.3064-0.4405-4.2023-0.4538-9.0606-0.2806c-8.0224,0.2866-18.4632,1.1835-20.3224,1.4834
		C187.6275,442.8527,189.0201,443.6013,190.1733,444.2201L190.1733,444.2201z M294.12,444.018v-1.6203
		c-1.5636-0.0851-3.5121-0.0493-5.3101,0.1982c-1.5177,0.2089-2.922,0.5677-3.8719,1.1318l-0.254,0.0703
		c-2.0634,0-5.0332-1.3334-7.613-3.0435c-2.7363-1.8139-5.0714-4.0881-5.4711-5.6874l-0.0978-0.39l0.3614-0.1783
		c0.2529-0.1248,0.5171-0.2415,0.7897-0.3492c3.0538-1.2061,8.2789-1.8388,13.2075-1.2033c4.9932,0.6443,9.7101,2.592,11.668,6.5599
		c0.1063,0.2157,0.2043,0.4354,0.2922,0.6582l0.0076,0.3379c-0.0581,0.1743-0.1165,0.3495-0.1165,0.5638v0.3481l-0.3303,0.1205
		c-0.3577,0.1301-0.5726,0.2038-0.7557,0.2664h-0.002c-0.4938,0.1693-0.7226,0.2477-0.7603,0.3036
		c-0.0306,0.0453-0.0341,0.233-0.0397,0.5806c-0.0057,0.3268-0.0131,0.7594-0.0582,1.3019l-0.0382,0.4589h-0.4598
		c-0.1791,0-0.3585,0.0003-0.4918,0.0445l-0.6562,0.2186V444.018L294.12,444.018z M281.0801,441.125
		c0.415,0.0627,0.6191,0.1755,1.4202,0.6557c0.832-0.0712,5.6435-0.5737,9.2605-1.0548c1.5588-0.2072,2.8768-0.4034,3.5087-0.5428
		c-1.4208-3.4157-5.3057-4.7752-9.5162-5.1729c-4.2911-0.4051-8.9223,0.1877-11.7292,0.6458v0.485
		c0.2667,0.2061,0.563,0.4456,0.8892,0.7092c1.5951,1.2878,3.9547,3.1924,5.8074,3.7375l0.3594,0.1057v0.3728V441.125
		L281.0801,441.125z M312.1321,439.0103c1.3428,0.4901,2.7808,1.0151,4.2206,2.2932c1.368-0.4249,1.7674-1.3416,1.4578-2.5948
		c-1.5032-6.0891-17.1641-19.1084-25.7802-26.2709c-2.8386-2.3599-4.9232-4.0927-5.5324-4.7778
		c-0.5902-0.4915-1.1835-1.1177-1.7612-1.7266c-0.762-0.8033-1.4947-1.5752-2.0563-1.8834
		c0.0527,3.1791,5.3754,7.6635,11.2776,12.6357c7.9478,6.6954,16.9135,14.2486,16.0336,21.3931
		C310.649,438.4683,311.3751,438.7339,312.1321,439.0103L312.1321,439.0103z M159.772,438.3569
		c0.0502,1.4797,0.0706,1.7439,0.2407,2.5333c1.0658-0.0856,2.052-0.0975,2.9761-0.1089c2.9923-0.0366,5.2994-0.0663,7.5002-2.8032
		c-1.0406-0.3209-2.5121-0.4215-4.0655-0.3937C163.944,437.629,161.2843,438.0066,159.772,438.3569L159.772,438.3569z
		 M414.8235,436.1799c10.9604,1.3824,22.0513,2.4792,32.9462,3.522h7.3392c1.5602-1.7246,2.126-5.235,2.6505-8.4943
		c0.5208-3.2363,1.004-6.2396,2.463-7.3675c0.2512-0.7971,1.0117-2.8888,1.707-4.5399c0.4297-1.0208,0.8561-1.8958,1.1733-2.2666
		c2.1949-5.6801,3.2406-11.7337,4.2412-17.5322c0.3546-2.0551,0.7044-4.08,1.0913-6.0197c0.2132-11.17,1.5622-22.1131,2.891-32.8932
		c0.5029-4.0793,1.003-8.1366,1.4282-12.0807c0.0882-6.8992,0.3532-13.9433,0.6179-20.9849
		c0.3884-10.3351,0.7765-20.666,0.6058-30.4489l0.0059-0.0898c2.0963-12.3058,2.0806-24.5081,2.0653-36.5749
		c-0.0088-6.9679-0.0176-13.8921,0.3768-20.7545l0.0193-0.3376l0.3225-0.1077c0.1409-0.0468,0.2943-0.0899,0.453-0.1318
		l0.2129-29.4596c-1.2903-17.57-4.9445-34.0427-8.5825-50.4434c-0.6529-2.9443-1.3077-5.8935-1.838-8.3356
		c-0.4938-1.1855-0.9933-2.3901-1.4981-3.6079c-5.0041-12.0671-10.5744-25.4993-17.0209-35.6577l-0.0624-0.1484
		c-1.5894-6.4151-7.8251-15.2759-12.3826-21.7526c-1.1362-1.614-2.1682-3.0809-3.0272-4.3693l-0.0431-0.0799
		c-3.3177-7.6533-9.0544-14.4108-14.5894-20.931c-3.4047-4.0105-6.7343-7.9325-9.4008-11.9418
		c-5.688-6.6516-10.4964-13.8555-15.2404-20.9634c-4.7914-7.1785-9.5182-14.2589-15.0191-20.5597
		c0.0093,0.0963,0.0238,0.1958,0.0448,0.3011l0.2364,1.1826l-0.9788-0.6525c0.4039,1.6509,2.7762,8.407,4.7344,13.9858
		c1.2773,3.6395,2.3842,6.7941,2.6507,7.9067c0.4958,0.2726,0.8943,0.8384,1.1783,1.5429c0.2869,0.7109,0.47,1.5828,0.5236,2.416
		h0.163l0.1149,0.3438c1.3279,3.9847,2.819,8.2587,4.5263,12.5456c1.7031,4.2755,3.6213,8.56,5.8065,12.5725l0.0468,0.119
		c1.3139,5.324,2.9112,10.9318,4.5312,16.6201c1.8113,6.3615,3.6527,12.8262,5.1888,19.2398l0.0059,0.0233
		c0.8286,4.3707,1.6991,8.8538,2.5668,13.324c3.1689,16.3236,6.3048,32.4865,8.4478,48.6808
		c0.1392,0.2934,0.2872,0.5703,0.4431,0.8314l0.0683,0.199c0.3583,3.0554,0.574,6.2192,0.7266,9.4504
		c2.4633,23.9222,2.3127,48.0056-3.5444,72.8717l-0.0547,0.2321l-0.2145,0.1035c-0.7067,0.3411-3.4138,6.569-6.5002,14.2351
		c-2.3768,5.9031-4.951,12.6331-7.0165,18.218c-0.7331,2.3309-1.5985,4.6856-2.5529,7.0557
		c-0.6891,1.965-1.1764,3.4302-1.3788,4.1652l-0.0331,0.0896c-2.7178,5.4677-4.828,11.4208-6.9446,17.392
		c-2.5781,7.2731-5.167,14.5746-8.8912,21.1212c-4.4543,11.5208-10.1458,22.5516-15.8975,33.6992
		c-0.5831,1.1301-1.1676,2.2623-1.7507,3.3956c-1.8757,4.3279-3.9819,9.0439-6.2224,13.6775
		c-2.2521,4.6577-4.6502,9.2552-7.1039,13.3342c-0.2233,0.4856-0.6486,1.3433-1.2186,2.4911
		c-3.6218,7.2915-13.1153,26.4053-10.4504,29.1169c0.6814,0.0868,1.3745,0.3317,2.1288,0.5981
		c1.069,0.3773,2.2745,0.8027,3.6823,0.8209c5.709-2.4438,15.4922,0.676,24.3674,3.5073c4.6284,1.4763,9.0071,2.8732,12.3698,3.3395
		l0.0332,0.0059C392.9922,433.1239,403.8508,434.7963,414.8235,436.1799L414.8235,436.1799z M398.956,283.7792
		c0.6746-1.9213,1.5366-4.305,2.5118-6.9429c0.6514-2.0715,1.1954-4.123,1.5981-6.1461l0.0312-0.0995l0.6534-1.5135l-0.0017-0.0009
		c1.5245-3.5283,3.0702-7.1062,4.0048-10.6574l0.0195-0.0567c1.937-4.8784,3.8033-9.5975,5.5004-14.3824
		c1.6855-4.752,3.1912-9.5355,4.4078-14.5403c1.1793-8.9972,1.5234-17.9623,1.8587-26.7094c0.0927-2.416,0.1851-4.8163,0.292-7.1629
		c-0.4621-5.2242-0.6211-10.5469-0.7776-15.7819c-0.0828-2.7683-0.1655-5.5117-0.2925-8.2094
		c-0.3543-3.4438-0.7625-6.8848-1.2163-10.3241c-1.6501-3.6122-2.1657-9.1712-2.6547-14.4382
		c-0.4958-5.3413-0.9635-10.3779-2.5231-12.5349l-0.0878-0.207c-0.4984-2.7947-0.9102-5.919-1.3315-9.1154
		c-0.9589-7.2762-1.9686-14.9355-4.2514-20.2952l-0.0351-0.127c-0.7371-5.1928-2.024-11.0656-3.559-16.8524
		c-1.7521-6.6044-3.8253-13.088-5.7736-18.3223l-0.0275-0.0995c-0.9351-6.1818-3.9087-12.6102-6.8063-18.8741
		c-2.1832-4.7203-4.3248-9.3493-5.5448-13.7591c-1.9639-3.1998-3.1995-7.5961-4.4136-11.9169
		c-1.2183-4.3345-2.416-8.5922-4.2761-11.3683c-1.5486,10.3269-3.0651,20.7244-4.5439,31.1669
		c-0.6049,4.6012-1.2314,9.0375-1.8167,12.9879c-1.0661,7.7184-2.1101,15.4556-3.1317,23.2032
		c-2.9299,22.2174-5.6792,44.5839-8.2043,66.8744c0.4581,1.1434-0.0323,4.7115-0.4774,7.9413
		c-0.2812,2.0421-0.5431,3.9433-0.5431,4.8945l-0.6148,0.0544c-1.6223,11.6229-3.1703,23.2047-4.7191,34.7859l-0.1406,0.2892
		c-0.1729,0.1729-1.0066,4.9527-1.8819,10.4349c-0.9066,5.6807-1.8227,12.0784-2.0775,14.9587l-0.0247,0.2769l-0.2509,0.1253
		c-0.0654,0.0326-0.1117,0.0788-0.157,0.1241l-0.7223,0.7223l-0.1272-1.0151c-0.0434-0.3472,0.0433-1.2668,0.1921-2.1762
		c0.1227-0.752,0.2906-1.5163,0.4635-1.9673c0.5788-4.8407,1.3047-9.6857,2.0245-14.4896
		c1.1594-7.7389,2.3037-15.3734,2.7899-22.7148l0.006-0.0527c1.2245-7.1669,2.0344-14.3008,2.8358-21.3616
		c0.7994-7.0424,1.5911-14.0136,2.7762-20.8788c0.9423-14.7515,3.2389-29.8202,5.4947-44.6221
		c1.0349-6.7921,2.0622-13.5295,2.9313-20.0378l0.0156-0.0762c0.1735-0.5876,0.6948-3.4979,1.3887-7.8355
		c0.3541-2.2137,0.7523-4.796,1.1716-7.6269c0.601-4.3517,1.2084-8.6945,1.8215-13.0264c0.7594-5.7784,1.4848-11.8145,2.05-17.4678
		c1.3178-13.1786,1.84-24.2247,0.0365-24.7576V2.0749l-0.0218-0.0048l-0.2095-0.034l-0.1207-0.175
		c-0.379-0.5473-5.3397,0.3923-6.9333,0.6942l-0.1916,0.0369c-0.2396,0.7881-0.4374,1.6121-0.5947,2.5166
		c-0.1522,0.8759-0.2665,1.8242-0.3401,2.8811h0.0459l0.2225,0.9454c-0.1684,0.0841-0.3076,0.1692-0.4371,0.2749
		c0.023,0.707,0.066,2.7363-0.3398,3.4521c-0.2412,0.733-0.3759,1.5196-3.3063,25.7009c-0.3243,4.0024-0.8784,8.2902-1.5256,12.6068
		l-2.6816,22.2007c0.1905,4.0946-0.7084,13.225-1.978,23.4603c-2.2845,18.415-5.8589,40.5258-6.3853,43.3182l0.0774,0.0111
		c-0.1489,1.0423-0.2239,1.8932-0.2872,2.6109c-0.0677,0.7722-0.1236,1.3959-0.2492,1.9897l0.1265,0.0405v0.9451
		c-0.0785,0.026-0.1593,0.0697-0.2322,0.1199v2.3595v0.5001h-0.3274c-1.2161,10.2427-2.6201,20.6677-4.0558,31.1683
		c-2.2527,18.8768-4.5992,37.7549-6.9472,56.647l-0.8538,6.8649c-0.6284,6.9222-1.1407,13.8249-1.4944,20.6921l0.3566,0.0632
		c-0.0689,2.1104-0.3781,4.1238-0.6931,6.1787c-0.3506,2.2873-0.7098,4.6273-0.7469,7.1317l-0.5228,0.1551
		c-0.1003,0.4272-0.1635,0.7177-0.2026,0.9765l0.3634,0.0417c0.0425,0.4705-0.1939,2.2791-0.4796,3.886
		c-0.2086,1.1752-0.4617,2.2779-0.6806,2.7668c-0.3804,3.8931-0.7206,8.1533-0.9553,12.4594
		c-0.2043,3.7517-0.3285,7.5467-0.3285,11.1725l-0.0059,0.0683c-0.1998,1.4153-0.7657,4.9739-1.5117,9.6689
		c-2.6617,16.7485-7.6473,48.1201-6.8372,48.6746l0.8282,0.5667l-0.9533,0.318c-0.0688,0.0229-0.1386,0.0451-0.2041,0.0677
		c0.0596,1.5483-0.4836,4.8668-1.0941,8.5958c-1.0886,6.6424-2.3982,14.6375-1.0114,15.3306l0.1309,0.0918
		c0.22,0.22,0.4193,0.4782,0.5922,0.7636c0.4603,0.7594,0.7084,1.6983,0.6565,2.6303c-0.0533,0.9485-0.4119,1.8938-1.1653,2.6473
		c-0.1868,0.1868-0.4028,0.3631-0.6475,0.5264c-0.4541,1.8813-0.8861,4.1485-1.2818,6.6286
		c-0.087,2.1361-0.2101,4.5306-0.3855,6.9026c-0.3209,4.341-0.8209,8.6392-1.5965,11.2604c-0.1721,2.7-0.269,5.199-0.2755,7.2927
		c1.5344,1.3952,3.1345,2.8564,4.7338,4.3166l0.1542,0.2715l0.5153,2.5767c0.8524-1.0857,1.8513-2.033,2.848-2.9795
		c0.8935-0.8481,1.7861-1.6968,2.554-2.6328c-0.4912-0.3107-0.9961-0.5332-1.4873-0.6633c-0.5704-0.1508-1.1155-0.1743-1.586-0.0598
		c-0.4422,0.1074-0.8235,0.341-1.0987,0.7078c-0.1658,0.2214-0.2974,0.4966-0.3849,0.8274l-0.0989,0.373H320.9h-0.576h-0.4255
		l-0.0666-0.4238c-0.1857-1.1772-0.1318-3.0461,0.0317-5.0116c0.2293-2.7527,0.6733-5.7231,0.9717-7.2261
		c0.1463-5.4096,0.6143-11.0208,1.2606-16.5603c0.6472-5.5471,1.4755-11.0387,2.3397-16.1909
		c0.4626-9.199,2.1694-18.5051,3.8571-27.7109c1.7274-9.4227,3.4359-18.7424,3.7607-27.6991
		c-0.0774-0.0352-0.1466-0.0694-0.216-0.104l-0.7696-0.3849l0.7149-0.4762c0.1627-0.1086,0.3254-0.2183,0.5218-0.3067
		c0.8119-11.7159,2.8832-24.3788,4.8019-36.1071c0.3509-2.1458,0.6968-4.2596,1.0089-6.205
		c0.6888-13.3177,2.7028-26.405,4.7061-39.424c1.3612-8.8481,2.7181-17.6661,3.6465-26.4561l0.9902-0.0175
		c0.7267,5.1244,0.095,13.2525-0.9811,21.4355c-1.0746,8.1734-2.5871,16.386-3.6309,21.7125
		c-1.1449,8.4819-2.3091,17.1689-3.3871,26.0269c-1.0491,8.6236-2.0044,17.318-2.7534,25.9654
		c0.0916,0.0128,0.1908,0.0326,0.2994,0.0598l0.4155,0.1038l-0.0405,0.4272c-0.1761,1.8496-0.9185,4.5227-1.6271,7.0756
		c-0.468,1.6855-0.9218,3.3188-1.1832,4.6199c-0.3384,2.7675-0.8342,5.5471-1.3359,8.3619
		c-0.6718,3.7695-1.3556,7.6034-1.6838,11.545l-0.008,0.0488c-2.1229,11.5509-4.0839,23.6029-5.648,35.7746
		c-1.5429,12.0092-2.7023,24.1424-3.2507,36.0385c0.0688,0.0136,0.1409,0.0323,0.2128,0.0564l0.254,0.0845l0.0703,0.2571
		c0.1341,0.4924-0.0269,1.1489-0.216,1.9174c-0.1576,0.6412-0.3382,1.3731-0.3552,2.0662c1.8708,0.1312,3.3914,0.2585,4.6973,0.3668
		c2.1623,0.1792,3.7429,0.3104,5.1027,0.3198c3.6967-2.632,8.2097-15.3229,10.8695-22.8053
		c0.5233-1.4712,0.9748-2.7416,1.3467-3.7256l0.0253-0.0567c3.731-7.069,7.2266-14.1701,10.7161-21.2581
		c1.5959-3.2417,3.1896-6.4792,4.9039-9.908l0.1681-0.1933c0.0913-0.0609,4.5117-8.5751,8.0742-15.5988
		c2.2845-4.5034,4.1871-8.3636,4.3169-8.9348l0.0462-0.2044l0.1763-0.11c0.6993-0.4371,5.2109-11.2887,8.0345-18.0805
		c1.0533-2.5339,1.8729-4.5068,2.1985-5.2104c2.0418-7.8026,5.8196-15.8862,9.5911-23.9576
		C395.0118,292.8481,397.1452,288.2815,398.956,283.7792L398.956,283.7792z M314.4183,423.3452
		c0.1942-3.0376,0.4816-6.3218,0.8402-9.5681c0.326-2.9557,0.7112-5.8842,1.1389-8.5706c0.1027-2.5121,0.1539-4.6539,0.1789-5.9745
		c-6.2482,0.0666-12.3786,0.6236-18.4513,1.1747c-4.6463,0.4218-9.2602,0.8405-13.8691,1.0358
		c0.0933,0.2968,0.3796,0.7849,0.775,1.3572c0.5771,0.8354,1.385,1.7927,2.2085,2.6161c0.9471,0.947,1.885,1.6973,2.452,1.8281
		l0.2719,0.0626l0.0893,0.2673c0.3801,1.141,7.3749,7.2281,12.8049,11.9532c2.7046,2.3539,5.0244,4.3727,5.9916,5.3263
		c1.6271-0.1242,3.3443-0.1927,5.0655-0.2588C314.0941,424.2682,314.2616,423.8467,314.4183,423.3452L314.4183,423.3452z
		 M334.2954,243.0235c1.7745-19.5069,4.4683-39.1601,7.1331-58.6071l0.6475-4.7318c3.2079-26.8685,6.2257-53.7098,8.784-80.5212
		l0.0371-0.1466c1.5287-3.6354,1.6141-8.4237,1.6979-13.2069c0.0916-5.1859,0.1834-10.3677,2.0963-14.2543
		c0.4289-2.7465,0.9136-5.6046,1.4162-8.5734c0.6624-3.9099,1.3564-8.0107,1.9684-12.0847
		c0.5805-4.8033,1.0882-8.9943,1.5316-12.6513c0.2764-3.4225,0.3821-6.6285,0.2307-9.4524
		c-4.574,11.8065-11.1064,24.5724-17.3622,36.7965c-3.0416,5.9434-6.0182,11.7595-8.667,17.2666
		c-6.103,13.311-12.5033,26.705-18.9138,40.119c-3.1266,6.543-6.2561,13.0908-9.5089,19.9659
		c-1.347,5.3356-9.7537,21.7275-13.087,28.2268c-0.7169,1.3983-1.1971,2.334-1.3141,2.5891
		c-0.1976,0.6636-0.4714,1.2458-6.3031,13.6656c-5.2492,11.179-15.016,31.9776-33.315,71.1176l-0.0975,0.1426
		c-0.1168,0.1168-8.5023,18.0671-17.1666,36.6159c-9.0244,19.319-18.3503,39.2831-19.0956,40.6434
		c-3.8268,9.2455-8.3931,18.7339-12.9436,28.19c-2.5872,5.3759-5.1693,10.7419-7.5869,16.0005l-0.0318,0.8649l-0.6264,0.1567
		c-0.4437,1.0227-0.8173,1.8723-1.1931,2.7278c-1.4029,3.1935-2.8301,6.4432-4.1046,9.7852l0.1681,0.0437l-0.0431,0.9745
		c-0.3294,0.0547-0.6585,0.1097-0.9697,0.1678c-0.0966,0.2001-0.1613,0.3523-0.199,0.5255
		c-0.0536,0.2452-0.0692,0.5782-0.0692,1.1906v0.3578l-0.3439,0.1148c-0.0521,0.0172-0.1054,0.0541-0.1602,0.1012v0.4
		c0.1123,0.0515,0.2327,0.1142,0.3532,0.1944l-0.2772,0.9159c-0.241,0-0.4955,0.0394-0.7535,0.0884
		c-0.1491,0.2724-0.4031,0.752-0.5457,1.2079c-0.0969,0.3112-0.1505,0.6075-0.0487,0.7152
		c9.3464-1.0321,18.8631-1.486,28.4655-1.9435c10.3127-0.4915,20.7255-0.9881,31.1457-2.2162l0.0566-0.004
		c8.8597,0,18.013-0.8246,27.2732-1.6583c9.5259-0.8575,19.1653-1.7257,28.6708-1.7257v0.0006
		c1.006-0.0527,2.2479-0.0711,3.5938-0.0901c3.814-0.0547,8.4881-0.123,11.2972-1.0774
		c1.7342-10.6361,2.6782-21.5269,3.6165-32.3618c0.9791-11.3054,1.9536-22.5515,3.8245-33.4471l0.0366-0.2132l0.1783-0.1188
		c0.1888-0.1256,0.3965-0.2053,0.6114-0.2682C327.4974,297.9431,330.8865,270.4654,334.2954,243.0235L334.2954,243.0235z
		 M159.8403,432.1528c-0.1072,1.2807-0.2874,3.4475,0.0323,4.1541c0.883-0.0346,1.9063-0.0244,2.9979-0.0139
		c3.945,0.0385,8.8214,0.0862,11.1776-2.0081l0.2753-0.123c5.2761-0.6205,10.698-1.0188,16.1677-1.4202
		c9.623-0.7061,19.3978-1.4241,28.7583-3.3863c0.008-0.2021,0.0208-0.4025,0.0378-0.5995h0.0002
		c0.0139-0.1667,0.0309-0.33,0.0488-0.489c-0.2727-0.0595-0.54-0.1026-0.7864-0.1425l-0.149-0.0244
		c-8.8972,0.0009-17.7698,0.2528-26.5573,0.6389c-8.6757,0.3816-17.2964,0.8966-25.7828,1.4306
		c-0.9085,1.4692-4.2245,1.4993-5.9097,1.5137l-0.2721,0.002C159.8683,431.8239,159.8544,431.9815,159.8403,432.1528
		L159.8403,432.1528z M337.9697,430.6152l0.735,0.0865c0.254-0.0091,0.6919-0.006,1.2504-0.0029
		c2.6873,0.0156,8.3951,0.0474,9.7963-1.0542c-0.9655-0.0558-2.0052-0.1429-3.1011-0.2344
		c-4.6457-0.3889-10.3033-0.8626-13.6266,0.6477c1.6591,0.1687,3.2881,0.3611,4.9462,0.557V430.6152L337.9697,430.6152z
		 M353.5532,429.7943c3.4792,0.2143,6.9123,0.4892,10.343,0.7633c0.2081,0,0.3625-0.0005,0.4882-0.0059
		c-1.495-0.8252-3.9197-1.7059-6.1679-2.2742c-2.1274-0.538-4.0433-0.8133-4.7043-0.4949c0.0002,0.394,0.0014,0.7838,0.007,1.0789
		C353.5251,429.1636,353.5353,429.474,353.5532,429.7943L353.5532,429.7943z M323.1683,429.574
		c0.4936,0.0732,1.0548,0.1982,1.7666,0.4091l0.4243,0.0065h0.002c1.3626,0.0224,3.8866,0.0632,5.1219-0.8294
		c-2.9792-0.2557-5.6684-0.2656-8.189-0.2662c-0.0649,0.1636-0.0774,0.2948-0.0627,0.5922
		C322.5268,429.4981,322.8301,429.5242,323.1683,429.574L323.1683,429.574z M222.4434,428.3665
		c-0.1647,0.2764-0.3067,0.5142-0.369,0.9709c13.269-1.5852,26.8951-1.3096,40.6163-1.0333
		c8.7831,0.1769,17.6053,0.3543,26.3962,0.0434c-0.0641-0.472-0.1207-0.7305-0.3169-0.9788
		c-20.05-1.1104-41.6169-0.2214-61.5051,0.599l-4.7001,0.1928C222.5231,428.2336,222.4823,428.3013,222.4434,428.3665
		L222.4434,428.3665z M292.024,428.4873c2.0696,0.0669,4.1381,0.1389,6.1795,0.2695c0.7212-0.0952,1.5755-0.1477,2.3576-0.1959
		c0.6032-0.0372,1.1614-0.072,1.55-0.1165c-0.6976-1.0151-3.7284-1.0032-6.3332-0.8172c-1.0882,0.0776-2.1036,0.1905-2.8754,0.2758
		c-0.3424,0.0377-0.6398,0.07-0.8785,0.093V428.4873L292.024,428.4873z M311.072,427.0521c0.2018,0.2228,0.5267,0.464,0.97,0.7633
		c0.2633-0.0215,0.5275-0.1023,0.7829-0.2341c0.2585-0.1335,0.5097-0.3195,0.7458-0.5488c-0.0301-0.0802-0.0638-0.1514-0.101-0.2151
		l-0.0009,0.0005c-0.1578-0.2707-0.39-0.4136-0.6508-0.4725c-0.3067-0.0692-0.6653-0.036-1.0125,0.0451
		c-0.3489,0.0813-0.6804,0.2086-0.9426,0.3336C310.9048,426.8372,310.9745,426.9444,311.072,427.0521L311.072,427.0521z
		 M336.0033,427.606c1.8992,0.0009,3.8066,0.0085,5.7767,0.0734v-0.0014h7.9262c-0.0286-0.0352-0.0626-0.0728-0.1028-0.1131
		c-0.4844-0.4836-1.5384-0.9924-2.8687-1.4062c-1.3668-0.4252-3.0007-0.7376-4.5961-0.8104
		C339.4567,425.2254,336.8871,425.7711,336.0033,427.606L336.0033,427.606z M177.6308,404.6783
		c0.2514,0.646,0.6301,1.2214,1.1905,1.5434c13.6261-0.0065,27.2724-1.1067,40.9884-2.2124
		c13.9189-1.1219,27.911-2.2504,42.0324-2.2513c6.1863-0.5094,12.3001-1.1311,18.4371-1.7544
		c12.2805-1.2475,24.6569-2.5052,37.1446-2.8474l0.057-0.0411c0.5862-0.4515,0.8856-1.0953,0.974-1.7254
		c0.0782-0.5593-0.0051-1.0982-0.1976-1.4771c-38.0511,1.6469-76.3302,4.6709-114.0206,7.6479
		c-3.5362,0.2789-7.0682,0.5587-10.5937,0.8356l-0.2874,0.0224l-0.1639-0.2412c-0.7852-1.1574-5.3901,0.2327-8.267,1.1013
		c-1.1795,0.356-2.0911,0.6315-2.4809,0.6315h-0.5v-0.4348c-0.8725,0.1185-1.749,0.2464-2.6425,0.4249l-0.6914,0.138l0.0998-0.6985
		c0.1451-1.017-0.1261-1.3059-0.5032-1.3597c-0.2565-0.0366-0.589-0.0068-0.9028,0.0207l-0.1318,0.011
		C177.1764,402.7385,177.2785,403.7723,177.6308,404.6783L177.6308,404.6783z M336.24,240.69c0-0.432,0.019-0.877,0.0471-1.3181
		c0.0253-0.3991,0.0632-0.8295,0.101-1.2467l0.496,0.0448l0.4961,0.0448c-0.0338,0.3739-0.0687,0.7725-0.097,1.2195
		c-0.0255,0.4042-0.0431,0.8238-0.0431,1.2557h-0.5H336.24L336.24,240.69z M144.9187,12.2275
		c0.0833-0.167,0.167-0.3135,0.2602-0.4476c0.1009-0.1462,0.2098-0.2775,0.3356-0.4034l0.1891-0.1888l0.2619,0.0522
		c0.2914,0.0581,0.5788,0.1581,0.8969,0.2693l0.3138,0.1083l0.546,0.1817l-0.2568,0.5134c-0.2478,0.4958-0.7948,0.646-1.3039,0.6715
		c-0.2982,0.0148-0.5766-0.0131-0.7353-0.0289c-0.0284-0.0026-0.0499-0.0051-0.0621-0.0051h-0.8065L144.9187,12.2275
		L144.9187,12.2275z"/>
</g>
</svg>
