<?xml version="1.0" encoding="utf-8"?>
<!-- Generator: Adobe Illustrator 21.1.0, SVG Export Plug-In . SVG Version: 6.00 Build 0)  -->
<svg version="1.1" id="Cus" xmlns="http://www.w3.org/2000/svg" xmlns:xlink="http://www.w3.org/1999/xlink" x="0px" y="0px"
	 viewBox="0 0 390.888 455.9761" enable-background="new 0 0 390.888 455.9761" xml:space="preserve">
<g>
	<path fill-rule="evenodd" clip-rule="evenodd" d="M151.848,455.9761c-1.656-0.144-3.312-0.288-5.04-0.504
		c-1.728-0.504-3.456-1.08-5.256-1.656c-1.872,0-3.816,0-5.76,0c-6.84,0.432-13.752,0.936-20.664,1.44
		c-8.352,0.072-16.776,0.144-25.2,0.216c-0.504-0.288-1.08-0.576-1.656-0.936c-3.168-0.504-3.168-0.504-6.768-1.656
		c-2.952,0-5.904,0-8.856,0c-2.952,0.216-5.904,0.432-8.856,0.72c-14.4,0-14.4,0-19.224,0.216c-6.984-0.936-6.984-0.936-7.704-1.224
		c-3.672-0.144-7.344-0.288-11.016-0.432c-0.792-0.144-1.584-0.288-2.376-0.504c-2.016-0.072-4.032-0.144-6.048-0.216
		c-1.584,0.144-3.168,0.288-4.752,0.432c-1.44-0.144-2.88-0.288-4.32-0.432c-0.864,0.216-1.728,0.432-2.664,0.72
		c-1.656,0.072-3.312,0.144-5.04,0.216C0.144,451.8,0.144,451.8,0,450.8641c0.648-0.432,0.648-0.432,3.024-0.864
		c1.512-0.072,3.096-0.216,4.68-0.36c-0.72-6.48-0.72-6.48-1.224-7.92c-0.72-3.816-1.44-7.632-2.16-11.52
		c0.072-3.528,0.144-7.056,0.288-10.584c-0.144-0.216-0.288-0.432-0.504-0.72c0.072-0.432,0.144-0.936,0.216-1.44
		c0.288-0.36,0.576-0.72,0.864-1.08c1.008,0.216,1.008,0.216,1.728,0.72c12.96-1.44,12.96-1.44,18.216-1.656
		c1.656-0.504,1.656-0.504,5.76-1.008c2.52,0,5.112,0,7.704,0c4.536-0.432,9.072-0.936,13.68-1.44
		c4.896-0.216,9.864-0.432,14.832-0.72c1.872-0.216,3.816-0.432,5.76-0.72c20.88-0.936,20.88-0.936,25.2-1.44
		c4.608-0.288,9.288-0.576,13.968-0.936c0.432-0.144,0.936-0.288,1.44-0.504c0.072-0.792-0.432-2.448-0.432-4.392
		c0.216-0.288,0.432-0.576,0.648-0.936c1.584-0.144,3.168-0.288,4.824-0.432c0.864,1.44,1.728,2.952,2.592,4.464
		c0.864,0,1.728,0.072,2.664,0.144c3.384-0.504,3.384-0.504,3.672-0.864c0.288-1.944,0.648-3.96,1.008-5.976
		c0.936-2.376,0.936-2.376,1.872-6.264c0-0.864,0.072-1.728,0.144-2.664c-2.16,0.144-2.16,0.144-6.192,1.08
		c-6.264,1.944-6.264,1.944-10.584,2.88c-2.16,1.008-2.16,1.008-16.56,5.76c-0.504,0.288-1.08,0.648-1.656,1.008
		c-1.224,0-1.224,0-2.16-0.504c0-0.36-0.072-0.72-0.144-1.08c3.6-14.616,5.472-20.88,7.416-29.016
		c0.504-0.936,1.44-4.824,2.376-7.416c0.648-2.808,1.296-5.616,1.944-8.424c1.224-3.96,2.52-7.992,3.816-12.024
		c0.648-2.88,1.296-5.76,1.944-8.64c0.72-1.8,1.44-3.6,2.16-5.472c3.816-13.68,13.464-51.84,17.28-65.52
		c0.144-0.144,0.288-0.288,0.504-0.504c0-0.432,0-0.936,0-1.44c0.432-1.08,0.936-2.232,1.44-3.384c2.88-11.52,2.88-11.52,3.312-14.4
		c1.944-6.48,1.944-6.48,2.448-7.2c3.6-14.832,5.472-23.76,5.976-24.696c0.648-2.808,1.296-5.616,1.944-8.424
		c0.936-3.024,1.872-6.0479,2.88-9.072c0.936-4.608,0.936-4.608,2.376-9.648c0.504-0.936,8.856-35.496,8.856-36.72
		c1.008-2.88,1.944-7.2,2.88-9.792c1.944-7.2,3.888-12.96,7.704-27.864c0.648-2.088,1.296-4.176,1.944-6.264
		c2.88-12.96,2.88-12.96,8.64-35.2801c1.728-6.3359,3.456-12.7439,5.256-19.1519c0.432-2.592,0.936-5.256,1.44-7.92
		c0.936-3.7441,1.872-7.488,2.88-11.304c0.648-3.528,1.296-7.056,1.944-10.584c0.288-5.04,0.576-10.08,0.936-15.12
		c0.288-1.8,0.576-3.6,0.936-5.472c0.288,0,0.576-0.072,0.864-0.144c0.504,0.4321,0.504,0.4321,0.864,2.0161
		c-0.72,5.328-0.72,5.328-1.008,5.76c0,1.872,0.072,3.816,0.144,5.76c0.288,0.1439,0.576,0.288,0.864,0.504
		c3.816,7.2,11.52,20.664,15.336,27.864c3.816,8.136,6.696,15.552,7.704,17.28c3.816,9.072,3.816,9.072,5.256,13.392
		c0.648,1.296,1.296,2.592,1.944,3.888c1.224,3.456,2.52,6.984,3.816,10.512c1.44,6.048,2.88,10.8,3.816,15.84
		c6.768,22.824,6.768,22.824,9.648,33.408c5.76,26.856,6.192,30.456,6.696,31.896c0.936,4.824,1.44,9.36,4.32,27.36
		c0.216,3.096,2.16,14.184,3.096,21.384c0.504,6.48,0.504,10.08,1.44,23.256c0.288,3.096,0.648,6.192,1.008,9.36
		c0.936,18.72,1.872,31.68,2.88,57.6c0,13.464-0.288,18.936-0.288,51.84c-0.216,4.824-0.216,4.824,0,6.984
		c0.36,0.216,1.872,0.072,5.904,0.288c0.072,0.144,0.216,0.288,0.36,0.432c-0.072,0.432-0.144,0.936-0.216,1.44
		c-0.36,0.216-0.72,0.504-1.08,0.792c-3.2401,1.008-6.552,2.016-9.864,3.096c-0.936,1.4399-3.096,3.6-6.912,8.208
		c-0.792,0.72-1.584,1.44-2.448,2.16c-0.216-0.144-0.432-0.288-0.72-0.504c0-0.576-0.0721-1.152-0.144-1.8
		c0.144-0.504,0.288-1.08,0.504-1.656c2.88-4.32,2.88-4.32,3.024-5.04c-3.6,0.072-3.6,0.072-11.016,1.08
		c-3.312,0.936-6.696,1.872-10.08,2.88c-10.8,1.872-10.8,1.872-19.008,3.744c0.144,1.512,0.288,3.024,0.504,4.536
		c9.864-0.144,10.296-0.36,19.44-0.864c1.368-0.144,2.736-0.288,4.104-0.504c3.6-0.072,7.2-0.144,10.8-0.216
		c6.696-0.936,6.696-0.936,10.8-1.944c2.16-0.936,4.32-1.872,6.48-2.88c0.936-0.576,1.872-1.224,2.88-1.872
		c5.976-6.048,5.976-6.048,7.2-6.984c1.224-0.072,2.5201-0.144,3.816-0.216c0.792,0.144,1.584,0.288,2.376,0.432
		c7.632-0.144,15.336-0.288,23.04-0.432c1.1519-0.288,2.376-0.648,3.6-1.008c1.8-1.224,3.672-2.52,5.544-3.816
		c1.8-1.656,3.672-3.312,5.544-5.04c1.296-1.584,2.664-3.168,4.032-4.824c7.92-8.136,7.92-8.136,14.184-13.896
		c1.44-0.936,1.44-0.936,3.816-1.944c0.7921,0,1.584,0,2.4481,0c1.8,0.432,3.5999,0.936,5.472,1.44c1.944,1.008,3.6,1.44,4.32,1.944
		c1.8,0.432,3.672,0.936,5.544,1.44c1.44,0.936,1.44,0.936,2.664,2.304c0.072,1.8,0.144,3.672,0.288,5.544
		c-1.872,5.472-1.872,5.472-4.752,12.456c-3.888,15.12-3.888,15.12-5.76,20.88c-0.2881,0.432-0.648,0.936-1.0081,1.44
		c-0.72,0.432-1.44,0.864-2.232,1.296c-1.872,4.032-3.744,8.064-5.688,12.168c-0.36,0.36-0.72,0.72-1.152,1.152
		c-0.792,1.584-1.584,3.168-2.448,4.824c0,0.216,0.072,0.504,0.144,0.792c0.36,0.216,0.792,0.432,1.224,0.648
		c0.576,1.008,1.1519,2.016,1.8,3.096c0.432,1.584,0.936,3.168,1.44,4.824c0.864,0.36,0.864,0.36,3.744,0.576
		c6.912-0.216,6.912-0.216,8.856,0c1.224,0.648,2.52,1.296,3.816,1.944c4.32,0.936,4.32,0.936,6.984,1.872
		c0.864,0.432,1.728,0.936,2.664,1.44c0.72,1.08,1.44,2.16,2.232,3.312c0.216,10.8,0.216,10.8,0.576,13.896
		c3.6,0,7.2,0,10.8719,0.072c0.936,0.504,0.936,0.504,2.376,0.72c2.376-0.072,4.752-0.144,7.2-0.288
		c-0.072,0.36-0.216,0.72-0.36,1.152c-0.864,0.36-1.8,0.72-2.736,1.08c-1.728-0.072-3.528-0.144-5.328-0.216
		c-1.44,0.144-2.88,0.288-4.32,0.432c-4.32-0.432-6.192-0.936-8.136-0.936c-0.144,0.144-0.288,0.288-0.504,0.504
		c-2.448-0.216-4.896-0.432-7.416-0.72c-0.36-0.144-0.792-0.288-1.224-0.504c-2.16,0-2.592,0.216-6.48,0.504
		c-0.432,0.432-0.936,0.936-1.44,1.44c-1.008,0.288-2.016,0.576-3.096,0.936c-2.88-0.216-2.88-0.216-4.104-0.72
		c-1.944,0.072-3.96,0.144-5.976,0.216c-1.0081,0.288-2.0161,0.648-3.096,1.008c-1.224,0.936-1.224,0.936-3.168,1.872
		c-1.008,0.288-2.016,0.648-3.096,1.008c-5.688,0.576-11.376,1.224-17.064,1.872c-2.664,0.648-5.4,1.296-8.136,1.944
		c-1.152,0.432-2.376,0.936-3.6,1.44c-1.944-0.216-1.944-0.216-6.984,0c-5.76,0.936-17.496,1.944-20.88,2.664
		c-3.672,0.144-7.344,0.288-11.016,0.432c-1.152,0.216-2.376,0.432-3.6,0.72c-4.104-0.216-4.104-0.216-9.144-0.936
		c-1.44,0-2.88,0-4.32,0c-0.792-0.144-1.584-0.288-2.376-0.504c-8.64,0-8.64,0-13.176-0.432c-7.776,0.432-15.552,0.936-23.328,1.44
		c-7.92-0.432-15.84-0.936-23.76-1.44c-3.168,0.216-6.336,0.432-9.576,0.72c-2.88,0.432-5.76,0.936-8.64,1.44
		C154.224,455.7601,154.224,455.7601,151.848,455.9761L151.848,455.9761z M150.192,454.5361c-1.296-0.144-2.5919-0.288-3.888-0.504
		c-1.44-0.432-2.88-0.936-4.32-1.44c-1.728-0.072-3.456-0.144-5.256-0.216c-4.104,0.504-19.656,1.44-27.576,1.656
		c-5.976-0.072-11.952-0.144-18-0.216c-0.576-0.288-1.152-0.576-1.728-0.936c-1.152-0.144-2.376-0.288-3.6-0.504
		c-1.224-0.36-2.52-0.792-3.816-1.224c-2.16,0-4.32,0-6.48,0c-4.536,0.288-9.072,0.648-13.68,1.008
		c-8.856-0.288-8.856-0.288-17.28,0c-0.504-0.144-1.08-0.288-1.656-0.504c-5.616-0.432-11.232-0.936-16.848-1.44
		c-0.576-0.144-1.224-0.288-1.872-0.504c-4.32-0.072-8.64-0.144-12.96-0.216c-0.288-0.144-0.648-0.288-1.008-0.504
		c-0.288-0.792-0.576-1.584-0.864-2.448c-1.08-5.472-2.16-11.016-3.312-16.56c0-5.544,0-5.544,0.36-6.912
		c9.144-0.432,9.144-0.432,10.584-0.216c0.288,0.144,0.576,0.288,0.936,0.504c4.464-0.216,8.928-0.432,13.464-0.72
		c6.48-0.072,12.96-0.144,19.44-0.288c5.76,0.288,11.52,0.648,17.28,1.008c1.512,0.216,3.024,0.432,4.536,0.72
		c2.664,0,5.4,0,8.136,0c0.36-0.144,0.792-0.288,1.224-0.504c1.44,0.144,2.88,0.288,4.32,0.504c5.328,0,10.656,0,16.056,0
		c4.968,0.216,9.936,0.432,14.904,0.72c3.672-0.072,7.344-0.144,11.016-0.288c25.2,0.504,25.2,0.504,30.528,0.288
		c1.152,0.144,2.376,0.288,3.6,0.432c10.08,0,10.08,0,10.296,0.288c2.808-0.144,5.616-0.288,8.424-0.504
		c25.92,0,25.92,0,29.232,0.216c2.232-0.216,4.464-0.432,6.768-0.72c1.872,0.144,3.816,0.288,5.76,0.504
		c7.632-0.504,7.632-0.504,14.832-0.504c1.224,0.288,1.224,0.288,3.168,0.288c0.144-0.144,0.288-0.288,0.432-0.504
		c0.936-0.072,1.872-0.144,2.88-0.216c8.784,0.36,17.568,0.72,26.424,1.152c6.624-0.144,13.248-0.288,19.944-0.432
		c0.144-0.216,0.288-0.432,0.432-0.648c0.792,0,1.584,0.072,2.448,0.144c2.232,0.648,4.464,1.296,6.696,1.944
		c2.376,1.44,4.824,2.376,5.976,3.312c0.36,0.648,0.36,0.648,0.36,3.024c-0.648,2.304-1.296,4.608-1.944,6.984
		c-1.872,4.824-1.872,4.824-4.32,9.576c-1.296,0.36-4.176,0.576-4.896,0.864c-6.912,0.936-6.912,0.936-11.52,1.152
		c-1.008,0.216-2.016,0.432-3.096,0.72c-5.544,0.288-5.544,0.288-6.984,0.72c-4.32-0.216-4.32-0.216-8.64,0
		c-2.448,0.432-4.896,0.936-7.416,1.44c-3.384-0.216-3.384-0.216-8.136-0.936c-1.2961,0-2.592,0-3.888,0
		c-0.864-0.144-1.728-0.288-2.592-0.504c-8.208,0-8.208,0-12.024-0.432c-24.48,1.44-24.48,1.44-29.304,1.44
		c-6.48-0.432-12.96-0.936-19.44-1.44c-11.232,1.152-11.232,1.152-19.152,2.376C158.832,454.5361,154.512,454.5361,150.192,454.5361
		L150.192,454.5361z M366.624,439.2001c-2.232-0.288-4.464-0.648-6.696-1.008c-1.008,0-2.016,0-3.096,0
		c-1.08-0.288-2.232-0.576-3.384-0.936c-1.728-1.08-3.456-2.232-5.256-3.384c-1.152-0.144-2.376-0.288-3.6-0.432
		c-2.52-1.08-5.112-2.232-7.704-3.384c-0.72-0.144-1.44-0.288-2.16-0.504c-2.52-0.144-5.112-0.288-7.704-0.432
		c-4.752,0.216-4.752,0.216-7.416,0.72c-6.984-0.288-7.92,0-10.2961,0c-1.224-1.08-1.224-1.08-1.728-2.088
		c-1.656-1.08-1.656-1.08-2.88-1.512c0-0.288,0-0.576,0-0.864c6.48-0.144,12.96-0.36,19.44-0.576
		c7.272,0.072,14.544,0.144,21.888,0.216c0.936-0.144,1.872-0.288,2.88-0.504c1.872,0,3.816,0,5.76,0
		c2.376-0.432,2.376-0.432,2.736-0.792c0-0.36,0.072-0.792,0.144-1.224c-9.36,0.576-9.36,0.576-12.744,1.08
		c-2.664-0.216-2.664-0.216-3.024-0.576c-0.072-1.728-0.216-3.456-0.36-5.256c2.88,0,5.76-0.072,8.64-0.144
		c1.584,0.432,3.168,0.936,4.824,1.44c2.88,1.872,2.88,1.872,4.104,2.376c0.504-0.072,1.08-0.144,1.656-0.216
		c1.08,0.216,2.232,0.432,3.384,0.72c0.72,0.432,1.44,0.936,2.16,1.44c0.576,0.864,1.224,1.8,1.872,2.736
		c0,4.248,0.072,8.496,0.144,12.744C367.704,438.912,367.2,439.0561,366.624,439.2001L366.624,439.2001z M267.264,430.7761
		c-2.16-0.936-2.16-0.936-2.88-1.584c-0.144-0.288-0.288-0.576-0.432-0.936c0.288-0.936,0.288-0.936,1.152-1.8
		c1.08-0.144,2.232-0.288,3.384-0.504c2.16,0,4.32,0,6.4799,0c2.664,1.008,2.664,1.008,2.952,1.368
		c-0.072,0.432-0.144,0.936-0.216,1.44c-0.36,0.36-0.72,0.792-1.08,1.224c-1.152,0.216-2.376,0.504-3.6,0.792
		C271.152,430.7761,269.208,430.7761,267.264,430.7761L267.264,430.7761z M245.448,430.0561c-1.368-0.072-2.736-0.144-4.104-0.216
		c-0.576-0.288-1.224-0.648-1.872-1.008c0-0.432-0.072-0.864-0.144-1.296c0.4319-0.288,0.864-0.576,1.296-0.936
		c1.008-0.216,2.088-0.432,3.168-0.648c7.92,0,7.92,0,8.352,0.288c1.152,0.144,2.376,0.288,3.6,0.432
		c0.072,0.144,0.216,0.288,0.36,0.432c-0.072,0.432-0.144,0.936-0.216,1.44c-1.8,0.792-1.8,0.792-5.4,1.512
		C248.832,430.0561,247.176,430.0561,245.448,430.0561L245.448,430.0561z M299.232,423.7921c-2.232-0.576-4.464-1.224-6.768-1.872
		c-12.24-1.44-12.672-1.728-26.352-3.744c0.072-2.376,0.144-4.752,0.288-7.2c1.368-0.36,5.184-0.576,5.472-0.864
		c3.024-0.072,6.048-0.144,9.072-0.216c7.056,0.36,14.112,0.792,21.168,1.224c3.744,0,7.488,0,11.232,0
		c5.328-0.504,9.144-0.504,19.944-1.728c1.008,0,2.016,0,3.096,0c1.008,1.008,1.008,1.008,1.944,2.808
		c0,0.792-0.072,1.584-0.144,2.376c0.36,1.008,0.792,2.088,1.224,3.168c0,1.44,0,1.44-0.504,3.096
		c0.216,1.224,0.504,1.44,0.36,2.232c-21.816,0-21.816,0-35.4959,0.288C302.256,423.5041,300.744,423.6481,299.232,423.7921
		L299.232,423.7921z M264.168,422.8561c-6.912-0.288-13.896-0.576-20.88-0.936c-8.424,0.072-16.92,0.144-25.416,0.216
		c-3.0959-0.144-6.192-0.288-9.36-0.504c-8.496,0.072-16.992,0.144-25.488,0.288c-12.456-0.504-29.736-0.72-33.12-1.008
		c-8.856,0-9.576-0.216-25.416-0.216c-0.792-0.144-1.584-0.288-2.376-0.504c-0.792,0.072-1.584,0.144-2.448,0.288
		c-2.016-0.144-4.104-0.288-6.192-0.504c-10.944,0.072-21.888,0.144-32.904,0.216c-5.04-0.288-10.08-0.576-15.12-0.936
		c-1.584-0.216-3.168-0.432-4.824-0.72c-7.92,0.216-9.792,0.504-14.832,0.504c-1.944-0.288-1.944-0.288-2.88,0
		c-5.328,0.216-12.024,0-25.92,0.432c-2.016,0-4.032,0-6.048-0.072c0-0.216,0-0.432,0-0.72c6.408-0.72,12.816-1.512,19.224-2.304
		c2.664-0.072,5.4-0.144,8.136-0.216c2.592-0.288,5.256-0.648,7.92-1.008c7.272-0.36,14.544-0.72,21.888-1.152
		c0.936-0.144,1.872-0.288,2.88-0.504c8.208-0.36,16.416-0.792,24.696-1.224c6.192-0.504,12.456-1.008,18.72-1.512
		c0,1.512-0.072,3.024-0.144,4.536c0.288,0.144,0.576,0.288,0.864,0.504c0.36-0.216,0.72-0.432,1.08-0.72
		c0.144-1.08,0.288-2.232,0.432-3.384c-0.216-2.376-0.216-2.376-1.008-5.976c0.576,0.072,1.224,0.144,1.872,0.216
		c0.576,1.008,1.152,2.088,1.8,3.168c1.44,4.032,1.44,4.032,2.16,6.912c0.648,0.36,0.648,0.36,1.368,0.36
		c0.144-0.144,0.288-0.36,0.432-0.576c0.144-2.376-0.144-3.384,0-5.04c0.432-0.288,0.864-0.576,1.296-0.936
		c0.576,0,1.224-0.072,1.872-0.144c0.144,0.144,0.288,0.36,0.432,0.576c-0.864,3.168-0.864,3.168-1.08,5.76
		c0.288,0.144,0.576,0.288,0.864,0.504c0.144-0.216,0.36-0.432,0.576-0.72c0.504-2.016,1.008-4.032,1.584-6.048
		c0.72-0.072,1.44-0.216,2.16-0.36c6.192-0.072,12.456-0.144,18.72-0.216c9.072,0.288,18.216,0.576,27.36,0.936
		c6.84,0,13.752,0,20.664,0c7.344,0.432,14.688,0.936,22.032,1.44c4.824,1.008,4.824,1.008,11.304,1.944
		c1.944,0.144,3.96,0.288,5.976,0.504c2.52,0.576,5.112,1.224,7.704,1.872c3.96,1.296,7.992,2.592,12.024,3.888
		c1.872,0.216,3.312,0,8.856,0.432c13.464,1.944,13.464,1.944,13.896,2.304c-0.072,0.072-0.144,0.216-0.216,0.36
		C274.248,422.8561,269.208,422.8561,264.168,422.8561L264.168,422.8561z M164.592,418.5361c-0.792-0.144-1.584-0.36-2.448-0.576
		c0-0.288-0.072-0.576-0.144-0.936c1.296-1.512,2.592-3.024,3.96-4.608c7.704-0.144,7.704-0.144,9.432,0.144
		c2.448,0.072,4.896,0.144,7.416,0.216c0.144,0.288,0.288,0.576,0.504,0.864c-1.152,1.44-2.376,2.88-3.5999,4.392
		c-2.088-0.072-4.1761-0.144-6.264-0.216C170.496,418.032,167.544,418.248,164.592,418.5361L164.592,418.5361z M100.944,418.3201
		c-1.44-0.288-7.92-0.288-8.496-0.576c0-0.432,0-0.936,0-1.44c0.936-0.792,1.944-1.584,2.952-2.448
		c4.176,0,8.352-0.072,12.528-0.144c0.36,0.648,0.36,0.648,0.36,2.088c-1.224,1.224-1.224,1.224-2.736,2.016
		C103.608,418.3201,103.608,418.3201,100.944,418.3201L100.944,418.3201z M133.128,418.032c-0.648-0.216-1.368-0.504-2.088-0.792
		c0-0.288,0-0.576,0-0.936c1.008-1.008,2.088-2.088,3.168-3.168c1.296-0.144,3.456,0.144,12.816,0.144
		c0.432-0.144,0.936-0.288,1.44-0.504c0.432,0,0.864,0.072,1.296,0.144c0,0.36,0,0.792,0,1.224c-1.44,1.296-2.88,2.592-4.392,3.888
		C140.544,417.816,140.544,417.816,133.128,418.032L133.128,418.032z M215.208,409.1761c-0.216-0.072-0.432-0.216-0.648-0.36
		c-0.936-5.472-0.936-5.472-1.872-8.64c-0.288-0.216-0.288-0.216-0.504-7.632c0.216-0.144,0.432-0.288,0.72-0.504
		c0.216-1.44,0.216-1.44-0.072-2.304c-0.36-0.072-0.72-0.216-1.152-0.36c-0.072-0.504-0.144-1.08-0.288-1.656
		c4.536-0.36,8.352-0.36,11.952-0.864c3.6,0,12.024-0.72,19.008-0.72c2.304-0.144,4.608-0.288,6.912-0.504
		c2.88-0.576,5.76-1.224,8.64-1.872c2.232-1.08,4.464-2.232,6.768-3.384c0.936-0.936,0.936-0.936,3.816-2.8799
		c1.872-1.8,3.816-3.672,5.76-5.544c3.096,0,3.096,0,5.76,0.504c5.4-0.216,10.872-0.432,16.344-0.72
		c1.152,0.072,2.376,0.144,3.6,0.216c1.872-0.144,3.816-0.288,5.76-0.432c0.432-0.504,2.16-1.44,3.312-2.448
		c1.008-0.432,1.944-1.44,5.04-3.312c1.008-1.152,2.088-2.376,3.168-3.6c0.432-0.288,0.936-0.6479,1.44-1.008
		c5.76-6.696,5.76-6.696,10.8-11.952c8.136-6.984,8.136-6.984,9.072-7.488c0.936,0,1.872,0,2.88,0c1.44,0.288,2.88,0.648,4.32,1.008
		c4.608,1.872,4.608,1.872,5.544,2.592c-0.216,0.288-0.216,0.288-0.936,0.288c-2.52-0.792-5.112-1.584-7.704-2.448
		c-0.936,0-1.872,0-2.88,0c-0.7921,0.648-1.584,1.296-2.376,1.944c-5.688,8.28-5.688,8.28-9.504,13.32
		c-14.688,17.568-14.688,17.568-15.4081,18c-1.224,2.016-2.52,4.032-3.816,6.048c-0.36,0.36-0.792,0.72-1.224,1.152
		c-0.144,0.432-0.288,0.936-0.432,1.44c-0.144,0.072-0.36,0.216-0.576,0.36c-12.96,0.936-12.96,0.936-15.408,1.44
		c-0.864-0.072-1.728-0.144-2.592-0.216c-0.36,0.144-0.792,0.288-1.224,0.432c-8.712,0.288-17.424,0.648-26.136,1.008
		c-1.8-0.144-3.672-0.288-5.544-0.504c-5.112,0.072-10.224,0.144-15.336,0.216c-1.44,0.144-2.88,0.288-4.32,0.504
		c-1.152,0.648-2.376,1.296-3.5999,1.944c-1.368,1.512-2.7361,3.024-4.104,4.536c-7.56,10.224-7.56,10.224-10.2961,14.4
		C217.008,409.1761,216.144,409.1761,215.208,409.1761L215.208,409.1761z M210.384,408.9601c-3.024-0.288-6.12-0.576-9.216-0.864
		c0.072-0.504,0.144-1.08,0.216-1.656c2.664-3.744,5.4-7.488,8.136-11.304c0.288-0.072,0.576-0.144,0.864-0.216
		c0.072,1.872,0.216,3.816,0.36,5.76c0.432,1.656,0.936,3.312,1.44,5.04c0.072,0.936,0.144,1.872,0.216,2.88
		C211.608,408.9601,211.608,408.9601,210.384,408.9601L210.384,408.9601z M312.912,408.9601c-0.288-0.576-0.576-1.152-0.864-1.8
		c-0.2881-0.288-0.648-0.576-1.0081-0.936c-1.224-2.16-2.52-4.32-3.816-6.48c-1.368-1.872-2.736-3.816-4.104-5.76
		c0-0.36,0-0.792,0-1.224c1.08-1.728,2.232-3.456,3.384-5.256c5.688-0.432,5.688-0.432,19.8-0.648
		c2.592,0.288,5.256,0.576,7.92,0.864c-0.072,0.504-0.216,1.08-0.36,1.656c-3.024,5.76-6.048,11.52-9.144,17.28
		c-0.072,0.504-0.144,1.008-0.288,1.584c-1.944,0.432-5.328,0.432-6.984,0.72C315.936,408.9601,314.424,408.9601,312.912,408.9601
		L312.912,408.9601z M289.584,408.4561c-0.936,0-1.872,0-2.88-0.072c0-0.216,0-0.432,0-0.72c1.008-0.288,2.088-0.576,3.168-0.864
		c0.216-0.36,0.504-0.72,0.792-1.08c0-0.792,0-1.584,0-2.376c1.584-0.864,1.584-0.864,2.52-1.944
		c0.072-0.792,0.216-1.584,0.36-2.376c0.9359-1.008,0.9359-1.008,1.944-3.168c0-0.576,0-1.224,0-1.872
		c1.152-1.008,1.152-1.008,2.16-2.664c0.072-0.288,0.144-0.576,0.216-0.936c-0.504-1.008-0.864-1.224-1.08-2.16
		c1.944,0.072,1.944,0.072,7.488-0.504c0,0.288-0.0721,0.576-0.144,0.936c-3.888,5.544-3.888,5.544-7.704,12.024
		c-0.792,2.232-1.584,4.464-2.376,6.696c-0.2881,0.288-0.648,0.648-1.0081,1.008
		C291.888,408.3841,290.736,408.3841,289.584,408.4561L289.584,408.4561z M284.112,408.2401c-1.368-0.072-2.736-0.216-4.104-0.36
		c0-0.288,0-0.576,0.072-0.936c0.576-0.72,1.224-1.512,1.872-2.304c0.216,0,0.432-0.072,0.72-0.144
		c0.072,0.648,0.144,1.296,0.288,1.944c1.368,1.224,1.368,1.224,1.44,1.656C284.328,408.0961,284.256,408.1681,284.112,408.2401
		L284.112,408.2401z M326.592,408.0961c0.072-0.576,0.144-1.224,0.288-1.872c0.6479-0.936,1.296-1.872,1.944-2.88
		c0.288-0.936,0.576-1.872,0.936-2.88c4.824-9.144,4.824-9.144,7.128-12.888c4.536,0.216,4.536,0.216,6.912,0.648
		c0,0.36,0.072,0.72,0.144,1.152c-3.816,7.488-3.816,7.488-9.576,17.784C329.904,407.9521,329.904,407.9521,326.592,408.0961
		L326.592,408.0961z M136.512,407.376c0.072-0.288,0.144-0.576,0.288-0.936c0.792-0.648,1.656-1.296,2.52-1.944
		c4.104-1.8,4.104-1.8,7.272-2.736c1.584-0.792,3.168-1.584,4.752-2.448c3.168-0.936,4.104-1.44,7.92-2.376
		c0.216,0,0.432,0.072,0.72,0.144c-3.6,2.016-3.6,2.016-8.352,3.96c-1.8,0.576-3.672,1.224-5.544,1.872
		c-2.664,1.44-5.4,2.88-8.136,4.32C137.52,407.2321,137.016,407.3041,136.512,407.376L136.512,407.376z M129.312,406.9441
		c0.072-1.08,0.144-2.232,0.288-3.384c1.008-4.032,2.088-8.136,3.168-12.24c0.216-0.216,0.432-0.432,0.72-0.72
		c3.024-0.936,6.12-1.872,9.216-2.808c14.4-2.376,15.84-2.88,24.264-4.32c2.232-0.072,4.4641-0.144,6.696-0.216
		c2.448,0.504,2.448,0.504,6.984,0.648c0.072,4.32,0.36,4.536,0.216,5.112c-3.672,0.792-7.344,1.584-11.016,2.376
		c-5.256,1.944-5.256,1.944-17.496,5.76c-3.312,1.296-6.696,2.592-10.08,3.888C130.248,406.8,130.248,406.8,129.312,406.9441
		L129.312,406.9441z M283.104,403.3441c0.072-0.432,0.216-0.936,0.36-1.44c3.816-5.544,3.816-5.544,7.704-11.808
		c0.072-0.432,0.216-0.864,0.36-1.296c0.792,0,1.584,0,2.376,0.072c-0.936,1.08-0.936,1.08-1.8,2.664c0,0.576,0,1.152,0,1.728
		c-0.792,0.504-1.584,1.08-2.376,1.656c-0.072,0.936-0.144,1.872-0.288,2.88c-0.576,0.432-1.224,0.936-1.872,1.44
		c-0.504,1.44-0.504,1.44-0.504,3.384C285.768,402.8401,284.472,403.0561,283.104,403.3441L283.104,403.3441z M95.472,400.1761
		c3.672-15.84,3.672-15.84,7.488-30.24c0.648-2.016,1.296-4.104,1.944-6.192c0.288-1.656,0.576-3.312,0.936-5.04
		c1.728-5.472,3.528-11.016,5.328-16.56c0.576-2.52,1.224-5.112,1.872-7.704c0.648-1.656,1.296-3.312,1.944-5.04
		c0.288-1.728,0.576-3.456,0.936-5.256c1.944-6.48,1.944-6.48,2.448-7.488c5.256-21.312,5.472-23.256,6.48-26.136
		c0.432-2.16,0.936-3.096,2.88-11.736c1.584-5.832,3.168-11.664,4.752-17.568c0.288-0.72,0.648-1.44,1.008-2.16
		c5.472-19.872,5.472-19.872,5.976-20.592c1.944-8.928,3.816-15.84,6.696-29.304c0.504-1.224,1.44-5.256,2.448-8.136
		c3.816-14.4,4.752-17.064,6.696-25.488c0.504-0.936,6.264-24.696,8.136-33.552c8.208-28.584,8.208-28.584,8.64-30.96
		c1.296-4.752,2.592-9.576,3.888-14.4c1.152-6.048,1.152-6.048,1.656-6.984c5.256-20.664,5.544-20.88,9.576-36.2161
		c0.072,0.072,0.144,0.144,0.288,0.2161c-0.216,2.088-0.432,4.176-0.72,6.264c-0.288,0.936-0.648,1.872-1.008,2.88
		c-0.936,6.192-2.88,15.84-3.816,19.152c-0.288,2.232-0.576,4.464-0.936,6.768c-0.504,0.936-0.504,0.936-2.448,11.232
		c-0.432,3.8159-0.936,7.6319-1.44,11.52c-0.792,3.312-1.584,6.696-2.376,10.08c-0.144,1.8-0.288,3.672-0.504,5.544
		c-0.792,3.528-1.584,7.056-2.376,10.584c0,1.44,0,2.88,0,4.32c-0.504,3.672-1.08,7.344-1.656,11.016c0,1.44,0,2.88,0,4.32
		c-0.936,5.688-1.872,11.376-2.88,17.064c-2.448,9.792-2.448,9.792-2.88,12.672c-0.144,2.448-0.288,4.968-0.504,7.488
		C162,207.216,162,207.216,160.128,217.08c-0.144,0.432-0.288,0.936-0.504,1.44c-0.144,2.88-0.288,5.76-0.504,8.64
		c-0.576,4.68-1.224,9.432-1.872,14.184c-0.288,1.296-0.6479,2.664-1.008,4.032c-0.432,4.824-0.432,4.824-1.152,8.424
		c-0.288,0.216-0.288,0.216-1.224,3.096c-0.072,1.44-0.144,2.88-0.216,4.32c-0.576,2.7361-1.152,5.472-1.728,8.208
		c-0.288,0.792-0.576,1.584-0.936,2.376c-0.936,6.048-1.872,12.096-2.88,18.216c-0.432,1.728-0.936,3.528-1.44,5.328
		c-0.936,7.632-1.944,13.392-2.88,21.096c-0.504,1.944-0.936,6.48-2.16,12.24c0,2.664,0,2.664-0.504,7.2
		c-0.432,2.376-0.936,4.752-1.44,7.2c-0.72,6.696-0.72,6.696-0.936,11.736c-0.288,0.576-0.576,1.152-0.936,1.728
		c-0.648,3.6-1.296,7.2-1.944,10.8c-0.648,2.304-1.296,4.608-1.944,6.912c-0.144,1.656-0.288,3.312-0.432,5.0399
		c-1.944,9.144-1.944,9.144-2.304,9.936c-0.864,0.288-1.728,0.648-2.592,1.008c-1.512,0.288-3.024,0.576-4.608,0.936
		c-12.96,3.816-15.552,4.824-23.472,7.2C98.856,398.9521,97.2,399.5281,95.472,400.1761L95.472,400.1761z M175.392,392.472
		c0.072-0.072,0.144-0.216,0.216-0.36c4.536-0.72,9.072-1.44,13.68-2.16c1.224,0,2.52,0,3.816,0c0.36-0.432,0.792-0.936,1.224-1.44
		c3.96-0.216,7.992-0.432,12.024-0.72c1.008,0.072,2.016,0.216,3.096,0.36c0,0.72,0,1.44,0.072,2.232
		c-2.304,0.216-4.68,0.504-7.056,0.792c-21.6,0.936-21.6,0.936-22.032,1.224C177.984,392.6161,177.984,392.6161,175.392,392.472
		L175.392,392.472z M133.632,388.4401c0.072-1.08,0.144-2.232,0.288-3.384c0.288-1.224,0.648-2.52,1.008-3.816
		c0.288-2.52,0.576-5.112,0.936-7.704c0.648-2.304,1.296-4.608,1.944-6.912c0.432-3.6,0.936-4.608,1.44-7.704
		c0.216-0.288,0.432-0.576,0.72-0.936c0.216-1.296,0.432-2.592,0.72-3.888c0.216-3.168,0.432-6.336,0.72-9.576
		c3.096-23.04,3.096-23.04,6.912-48.456c0.6479-2.952,1.296-5.904,1.944-8.928c0.936-7.632,0.936-7.632,2.376-14.832
		c1.008-2.448,1.008-2.448,2.448-8.424c0.144-2.16,0.288-4.32,0.432-6.48c1.008-2.664,1.008-2.664,1.944-6.984
		c0.144-1.44,0.288-2.88,0.504-4.32c0.144-0.432,0.36-0.936,0.576-1.44c0.144,0.648,0.36,1.296,0.576,1.944
		c-0.216,31.176-0.216,31.176,0,43.92c0.288,2.664,0.288,2.664,0,16.344c0.72,12.456,1.008,12.672,1.44,21.816
		c0.216,2.304,0.432,4.608,0.72,6.984c1.224,4.032,1.224,4.032,2.16,9.072c0.936,2.232,1.872,4.464,2.88,6.7679
		c0.144,0.7921,0.288,1.584,0.504,2.376c3.816,8.64,3.816,8.64,5.76,12.456c0.144,1.08,0.288,2.232,0.504,3.384
		c1.224,3.024,2.52,6.048,3.816,9.144c0.432,0.504,0.936,1.08,1.44,1.6559c0.216,0.936,0.216,0.936-0.072,1.296
		c-1.08-0.144-2.232-0.288-3.384-0.504c-3.384,0.216-6.84,0.432-10.2961,0.72c-7.4879,1.44-7.92,1.728-19.44,3.6
		C141.336,386.5681,137.52,387.5041,133.632,388.4401L133.632,388.4401z M184.464,388.152c-0.144-1.152-0.144-1.152,0.144-1.368
		c0.144-0.432,0.288-0.936,0.432-1.44c0.864-0.432,0.864-0.432,5.688-1.368c1.152,0,2.376,0,3.6,0
		c11.736-1.944,11.736-1.944,14.904-2.232c0.072,1.368,0.144,2.736,0.216,4.176c-4.392,0.144-8.784,0.288-13.176,0.432
		c-2.304,0.216-4.608,0.432-6.984,0.72c-1.152,0.36-2.376,0.792-3.6,1.224C185.328,388.2961,184.896,388.2241,184.464,388.152
		L184.464,388.152z M344.088,385.92c-1.152-0.144-2.376-0.288-3.6-0.504c-2.592,0.072-5.256,0.144-7.92,0.216
		c-2.808-0.288-5.616-0.576-8.424-0.936c-2.376,0.216-2.376,0.216-13.104,0.144c0-0.936,0-0.936,0.648-2.16
		c2.448-0.216,4.896-0.432,7.416-0.648c0.36,0.072,0.792,0.144,1.224,0.288c4.32-0.216,8.64-0.432,12.96-0.72
		c1.944-0.648,3.96-1.296,5.976-1.944c1.44-0.936,1.44-0.936,3.384-3.024c4.68-8.568,4.68-8.568,5.112-9.792
		c1.2961-2.088,2.592-4.176,3.888-6.264c1.512-3.312,3.096-6.624,4.68-9.936c0.72,0.072,0.72,0.072,1.656,0.72
		c0,0.36,0.072,0.72,0.144,1.08c-1.944,5.76-2.448,6.264-4.32,11.304c-1.296,5.0399-2.592,10.08-3.888,15.12
		c-1.8719,5.04-1.8719,5.04-2.88,6.912C346.104,385.7761,345.096,385.8481,344.088,385.92L344.088,385.92z M184.968,380.1601
		c-0.216-1.008-0.432-2.016-0.6479-3.024c0-9.36,0-9.36,0.288-11.5201c-0.144-2.304-0.288-4.6079-0.504-6.912
		c0.216-6.048,0-11.088,0.144-16.56c0.288,0.072,0.576,0.144,0.936,0.288c1.872,2.736,3.816,5.472,5.76,8.208
		c1.944,3.672,1.944,3.672,6.768,11.016c0.72-0.216,0.72-0.216,1.008-0.576c-0.072-0.36-0.144-0.792-0.216-1.224
		c-1.872-3.456-3.816-6.984-5.76-10.512c-4.824-7.2-5.76-8.208-6.696-9.864c-0.576-0.216-1.152-0.432-1.8-0.72
		c-0.36-17.784-0.648-20.16-1.584-77.976c0.072-1.8,0.216-3.672,0.36-5.544c0.216,0,0.432,0,0.72,0
		c3.888,5.112,3.888,5.112,6.768,9.432c0.576,1.368,1.152,2.808,1.728,4.248c0.36,0.432,0.72,0.864,1.152,1.296
		c0.792,0.288,1.584,0.576,2.448,0.864c0.288,1.584,0.648,3.168,1.008,4.824c0.72,8.64,0.936,9.072,1.872,24.696
		c0.288,2.376,0.648,4.752,1.008,7.2c1.872,22.104,2.16,23.04,3.096,33.84c0,1.152,0,2.376,0,3.6
		c1.728,10.152,3.456,20.304,5.256,30.456c-0.072,0.216-0.144,0.432-0.216,0.72c-3.384,0.576-6.768,1.152-10.152,1.8
		c-2.16,0-4.608,0.504-6.048,0.504C187.344,379.656,186.192,380.1601,184.968,380.1601L184.968,380.1601z M313.632,380.1601
		c-0.288-0.144-0.288-0.144-0.432-1.08c3.6-4.536,4.104-5.544,11.808-14.616c2.88-3.6,5.76-7.2,8.64-10.8
		c0.288-0.648,0.576-1.296,0.936-1.944c1.584-1.944,3.168-3.96,4.824-5.976c0.864-0.432,0.864-0.432,2.736-0.432
		c2.736,0.792,5.472,1.584,8.208,2.448c3.096,0.432,3.096,0.432,4.032,0.936c0,0.288,0.072,0.576,0.144,0.864
		c-1.296,3.024-2.592,6.048-3.888,9.144c-1.872,3.24-3.816,6.48-5.76,9.792c-1.08,2.232-2.16,4.4641-3.312,6.768
		c-0.648,0.72-1.296,1.44-1.944,2.16c-1.08,0.288-1.08,0.288-2.952,1.296c-1.368,0.288-2.736,0.576-4.104,0.936
		C322.488,380.1601,322.488,380.1601,313.632,380.1601L313.632,380.1601z M179.712,378.576c-2.304-4.032-3.312-6.48-4.248-7.92
		c-0.936-2.376-0.936-2.376-1.44-5.04c-1.944-3.816-2.88-6.4799-3.816-7.92c-1.728-4.32-2.664-7.92-3.6-9.576
		c-0.648-1.872-1.2961-3.816-1.944-5.76c-0.648-3.384-1.296-6.84-1.944-10.296c-0.072-1.512-0.144-3.024-0.288-4.608
		c0.792,0.072,1.584,0.216,2.376,0.36c0.648,0.288,1.296,0.576,1.944,0.936c8.136,1.944,8.136,1.944,12.888,3.528
		c0.216,3.024,0.432,6.048,0.648,9.144c-0.288,5.976-0.288,18.936,0,25.2c0,11.232,0,11.232-0.288,11.952
		C179.928,378.576,179.856,378.576,179.712,378.576L179.712,378.576z M210.168,375.8401c-0.216-0.432-0.432-0.864-0.648-1.296
		c-0.288-2.52-0.576-5.112-0.936-7.704c-0.936-3.816-0.936-3.816-3.816-19.656c-1.44-18-1.728-19.224-3.6-42.048
		c-0.432-4.176-0.936-8.424-1.44-12.672c-0.288-7.92-0.288-7.92-0.504-8.424c-0.288-3.528-0.576-7.056-0.936-10.584
		c-0.288-1.44-0.648-2.88-1.008-4.32c-0.432-4.752-0.72-5.256-1.152-10.296c-0.792-5.976-1.584-11.952-2.448-18
		c-0.576-7.488-1.224-14.976-1.872-22.536c-1.008-6.768-2.88-25.2-4.608-38.664c0-1.224,0-2.52-0.072-3.816
		c0.288,0,0.576,0,0.936,0.072c2.16,3.024,2.16,3.024,5.04,6.264c0.72,0.432,0.72,0.432,6.048,6.696c0.432,0,0.864,0,1.296-0.072
		c0-0.576,0-1.152,0-1.728c-6.768-7.416-10.584-12.24-13.464-15.336c-0.504-3.096-0.504-6.696-1.944-19.44c0-1.728,0-3.456,0-5.256
		c2.88-43.2,3.168-43.92,3.384-49.4641c0.36-2.448,0.72-4.8959,1.08-7.416c0.216,0,0.432,0,0.72,0c1.224,3.6,2.448,7.2,3.744,10.8
		c3.816,7.92,3.816,7.92,4.752,9.36c0.288,0,0.576,0,0.864,0.072c0-0.432,0.072-0.864,0.144-1.296
		c-1.944-3.816-1.944-3.816-5.76-13.4641c-0.6479-1.8719-1.296-3.816-1.944-5.7599c-0.792-1.656-1.584-3.312-2.376-5.04
		c0.072-4.32,0.144-8.64,0.216-12.96c0.432-4.68,0.936-9.36,1.44-14.112c0.432-7.344,0.936-14.688,1.44-22.104
		c0.144-0.6481,0.288-1.296,0.504-1.944c0-1.512,0-3.024,0-4.5359c0.504-3.528,1.008-7.056,1.584-10.584
		c0.288,0.072,0.576,0.216,0.936,0.36c3.96,6.408,6.84,10.44,8.712,13.824c0.648,0.936,1.296,1.872,1.944,2.88
		c2.52,5.184,5.112,10.368,7.704,15.624c1.872,5.0399,5.76,13.6799,9.576,23.4719c1.944,4.3201,1.944,4.3201,4.824,12.2401
		c1.872,7.92,2.88,10.8,4.752,19.44c1.944,6.2639,2.16,7.92,8.424,29.52c2.88,13.248,2.88,13.248,3.384,14.688
		c2.88,15.84,3.816,19.44,5.76,30.96c1.872,13.392,2.16,14.112,5.04,34.56c1.1519,17.496,1.44,18.936,1.656,24.912
		c0.936,10.08,0.936,12.96,1.224,14.184c0.432,10.584,1.152,18.504,1.872,34.344c0.216,11.016,0.432,22.032,0.72,33.12
		c-0.144,2.232-0.288,4.464-0.432,6.696c0.216,26.856,0.216,26.856,0,31.464c-0.288,0.72-0.648,1.44-1.008,2.16
		c-0.576,0.792-1.224,1.584-1.872,2.376c-0.72,0.576-1.5121,1.152-2.304,1.8c-2.448,0.576-4.896,1.224-7.416,1.872
		c-9.36,1.44-9.36,1.44-13.68,2.448c-0.864,0.288-1.728,0.576-2.664,0.936c-11.232,1.944-11.232,1.944-13.68,2.664
		C215.64,375.3361,212.904,375.5521,210.168,375.8401L210.168,375.8401z M177.984,329.2561c-0.864-0.288-1.728-0.576-2.592-0.936
		c-1.44-0.144-2.88-0.288-4.32-0.504c-1.008-0.864-2.088-1.728-3.168-2.664c-1.872-0.072-3.744-0.144-5.616-0.288
		c-0.072-1.512-0.144-3.024-0.288-4.608c-0.216-0.936-0.432-1.872-0.72-2.88c-0.144-3.096-0.288-6.192-0.432-9.36
		c0.144-4.392,0.288-8.784,0.432-13.176c-0.216-3.744-0.432-7.488-0.72-11.304c0-12.96,0.288-16.056,0-19.872
		c0.288-1.008,0.288-1.008,0.504-9.144c-0.216-16.344-0.216-16.344,0-18.216c0.216-0.216,0.432-0.432,0.648-0.648
		c0.36,0,0.72,0,1.152,0c1.728,1.296,1.728,1.296,2.16,1.944c8.64,5.76,10.8,7.632,12.528,8.712
		c1.872,2.304,1.872,2.304,3.312,3.384c0.144,10.584-0.144,12.528-0.36,25.704c0.216,0.504,0,6.696,0.216,13.176
		c-0.144,9.432-0.288,18.864-0.432,28.368c-0.504,4.536-0.504,11.016-0.864,12.312
		C178.992,329.2561,178.488,329.2561,177.984,329.2561L177.984,329.2561z M194.544,267.1921c-1.224-2.16-2.52-4.32-3.816-6.48
		c-6.696-9.432-6.696-9.432-7.488-10.008c-0.36-7.2-0.36-19.224-0.576-23.328c0.216-12.24,0.504-14.112,0.72-45.072
		c0.216-2.52,0.4319-5.112,0.72-7.704c0.072-0.072,0.216-0.144,0.36-0.216c0.072,0.144,0.216,0.288,0.36,0.432
		c3.6,28.368,3.816,32.4,4.32,34.848c1.44,14.112,1.656,18.72,1.944,19.152c0.936,12.96,0.936,12.96,1.872,21.384
		c0.504,1.656,0.504,1.656,2.16,17.064C194.76,267.4801,194.76,267.4801,194.544,267.1921L194.544,267.1921z M180.144,245.7361
		c-1.296-1.224-2.664-2.52-4.032-3.816c-2.88-2.232-5.76-4.464-8.64-6.768c-1.512-0.936-3.024-1.872-4.608-2.88
		c-0.936-1.152-0.936-1.152-1.584-1.512c0-3.24,0-6.552,0-9.864c1.944-10.8,1.944-10.8,2.88-14.112
		c0.216-2.592,0.432-5.256,0.72-7.92c1.008-4.104,3.384-19.44,4.32-23.544c0.288-2.232,0.648-4.464,1.008-6.696
		c0.432-0.936,0.936-1.872,1.44-2.88c0.144-0.864,0.288-1.728,0.432-2.664c1.008-1.944,1.008-1.944,1.368-3.24
		c0.216,0,0.432,0,0.72,0c0.864,0.6479,1.728,1.296,2.664,2.016c1.008,1.08,2.016,2.16,3.096,3.24
		c0.648,0.144,1.296,0.36,1.944,0.576c0.144,1.944,0.36,3.888,0.576,5.832c-0.288,4.176-0.648,8.424-1.008,12.672
		c0.288,10.08,0,11.088,0,28.8c-0.216,4.68-0.432,9.432-0.72,14.184c0.288,1.656,0.288,17.784,0,18.504
		C180.36,245.8801,180.36,245.8801,180.144,245.7361L180.144,245.7361z M184.248,173.8801c0.0721-0.648,0.144-1.296,0.216-1.944
		c0,0.576,0.072,1.152,0.144,1.728C184.536,173.7361,184.392,173.808,184.248,173.8801L184.248,173.8801z M236.592,163.8721
		c-0.504-0.432-0.504-0.432-0.864-1.296c-0.072-0.864-0.144-1.728-0.288-2.592c0.504-2.88,0.504-2.88,0.504-5.544
		c-0.288-0.648-0.576-1.296-0.936-1.944c-0.504-0.504-1.008-1.008-1.584-1.584c-1.08-0.216-2.16-0.432-3.312-0.72
		c-0.504,0-1.008,0.072-1.584,0.144c-0.288,0.5041-0.576,1.0081-0.864,1.584c-0.936,0-0.936,0-1.296-0.36
		c-0.144-0.864-0.288-1.728-0.504-2.664c-1.08-0.648-2.16-1.296-3.24-2.016c-0.36-0.36-0.72-0.792-1.152-1.224
		c-1.944-0.936-1.944-0.936-3.888-2.376c-0.216-0.36-0.432-0.72-0.72-1.08c0.144-0.288,0.288-0.576,0.504-0.936
		c0.504,0,1.08-0.072,1.656-0.144c0.936,0.36,1.872,0.72,2.88,1.1519c1.368,0,2.736,0,4.104,0c1.44-0.288,2.88-0.576,4.32-0.936
		c0.216-0.2159,0.432-0.4319,0.72-0.72c1.44,0,1.44,0,1.8,0.36c0.144,1.08,0.288,2.232,0.432,3.384
		c0.792,1.584,1.656,3.168,2.52,4.824c1.008,1.008,2.016,2.016,3.024,3.096c0.072,0.432,0.144,0.936,0.2159,1.44
		c-0.288,1.368-0.576,2.736-0.9359,4.104c-0.144,1.728-0.2881,3.456-0.504,5.256
		C236.808,164.0161,236.808,164.0161,236.592,163.8721L236.592,163.8721z M181.368,162.9361c-0.36-0.144-0.792-0.288-1.224-0.504
		c-0.576-0.72-1.224-1.44-1.872-2.16c-3.888-3.096-4.32-3.816-5.04-4.3199c-0.216,0-0.432,0-0.72-0.072
		c0.072-2.232,0.144-4.464,0.288-6.696c1.008-5.544,3.888-25.92,4.608-28.8c3.816-23.5439,3.816-23.5439,6.624-38.088
		c0.2881,0,0.576,0,0.936,0c0.936,1.296,0.936,1.296,2.16,2.376c0.216,0,0.432,0.072,0.72,0.144
		c-0.072,2.808-0.216,5.616-0.36,8.424c-0.792,8.3521-1.584,16.776-2.448,25.2c-0.144,3.6-0.288,7.2-0.432,10.8
		c-0.144,0.936-0.288,1.8719-0.504,2.88c-0.504,12.456-1.224,19.44-1.44,28.08c-0.144,0.792-0.288,1.584-0.504,2.376
		C181.584,163.08,181.584,163.08,181.368,162.9361L181.368,162.9361z M186.408,79.7761c-0.144-0.144-0.288-0.36-0.504-0.576
		c-0.36,0-0.72-0.0721-1.152-0.144c0.7921-5.472,1.2961-6.912,2.232-13.6801c1.224-3.816,1.224-3.816,1.584-4.032
		c-0.36,9.792-0.36,9.792-0.864,14.616c-0.288,1.2239-0.576,2.52-0.936,3.816C186.696,79.7761,186.552,79.7761,186.408,79.7761
		L186.408,79.7761z M188.568,60.6241c0-0.72,0-1.4401,0-2.16c0.216,0,0.432,0,0.72,0
		C188.928,60.3361,188.928,60.3361,188.568,60.6241L188.568,60.6241z"/>
</g>
</svg>
