<?xml version="1.0" encoding="utf-8"?>
<!-- Generator: Adobe Illustrator 21.1.0, SVG Export Plug-In . SVG Version: 6.00 Build 0)  -->
<svg version="1.1" id="E" xmlns="http://www.w3.org/2000/svg" xmlns:xlink="http://www.w3.org/1999/xlink" x="0px" y="0px"
	 viewBox="0 0 352.234 397.944" enable-background="new 0 0 352.234 397.944" xml:space="preserve">
<g>
	<path fill-rule="evenodd" clip-rule="evenodd" d="M0.648,397.944c-0.216-0.072-0.432-0.216-0.648-0.36
		c0-0.432,0.072-0.936,0.144-1.44c4.824-0.36,4.824-0.36,6.984-0.864c0.288-0.144,0.576-0.288,0.936-0.504
		c1.728-0.144,3.456-0.288,5.256-0.432c1.656-0.288,3.312-0.648,5.04-1.008c2.88,0.288,5.76,0.648,8.64,1.008
		c0.36,0.216,0.792,0.432,1.224,0.72c6.264,0.432,6.264,0.432,8.856,0.936c6.984-0.72,6.984-0.72,16.56-2.16
		c5.328,0.216,6.48,0.504,12.744,0.504c1.728-0.216,3.456-0.432,5.256-0.648c-0.072-0.072-0.144-0.216-0.216-0.36
		c-2.52-0.144-5.112-0.288-7.704-0.432c-1.152-0.504-1.152-0.504-7.2-1.44c-2.376,0-2.88-0.288-11.232-1.224
		c-7.704-1.944-7.704-1.944-13.248-3.816c-1.08-0.648-2.16-1.296-3.312-1.944c-0.72-0.648-1.44-1.296-2.16-1.944
		c-1.944-0.936-1.944-0.936-3.168-1.872c-0.432-0.72-0.936-1.44-1.44-2.16c-2.16-1.944-2.16-1.944-4.896-5.4
		c0-7.416,0-7.416-0.288-9.576c0.288-1.584,0.648-3.168,1.008-4.824c0.576-1.656,1.224-3.312,1.872-5.04
		c1.872-3.6,3.816-7.2,5.76-10.8c4.104-4.104,4.104-4.104,6.048-6.48c2.016-0.72,4.032-1.512,6.12-2.304
		c0.072-0.432,0.216-0.864,0.36-1.296c1.872-3.24,3.816-6.552,5.76-9.864c1.152-0.9359,1.152-0.9359,2.016-2.304
		c0.864-0.144,1.728-0.288,2.664-0.432c0.432-0.288,0.936-0.648,1.44-1.008c2.664-0.936,5.4-1.872,8.136-2.88
		c3.816-0.792,7.632-1.584,11.52-2.376c7.488-6.984,7.488-6.984,12.024-10.8c0.36-0.504,0.792-1.008,1.224-1.584
		c-0.288-0.288-0.576-0.576-0.864-0.936c0-1.44,0-1.44,0.432-2.16c0.792-0.576,1.584-1.224,2.448-1.872
		c1.872-3.384,1.872-3.384,4.752-7.704c1.008-0.936,1.944-2.664,4.104-5.04c3.816-5.544,3.816-5.544,5.76-8.856
		c0.936-2.16,0.936-2.16,7.2-12.528c0.288-0.288,0.576-0.576,0.936-0.936c6.408-11.088,12.816-22.176,19.224-33.336
		c1.872-2.808,3.816-5.616,5.76-8.424c5.76-9.864,6.264-10.296,10.08-16.344c2.88-5.256,6.696-11.232,8.64-15.12
		c0.936-0.936,2.88-4.536,4.824-6.912c0.432-1.224,0.432-1.224,4.32-6.768c3.8159-4.752,4.752-6.48,10.8-14.832
		c1.584-2.7361,3.168-5.472,4.752-8.208c1.296-1.656,2.592-3.312,3.888-5.04c0.576-1.08,1.224-2.16,1.872-3.312
		c0.936-1.152,1.872-2.376,2.88-3.6c1.944-3.6,3.888-6.48,10.584-18.288c0.432-0.504,0.936-1.08,1.44-1.656
		c0.288-0.936,0.576-1.872,0.936-2.88c1.944-3.096,2.664-5.04,5.04-9.144c0.288-0.288,0.648-0.576,1.008-0.936
		c0.432-1.224,0.936-1.6561,1.872-3.816c5.76-8.64,7.704-12.024,9.648-14.688c3.816-7.2,7.2-14.4,11.016-21.096
		c1.872-3.024,3.816-6.048,5.76-9.144c0.432-1.2241,0.936-2.52,1.44-3.816c2.52-4.5361,5.112-9.072,7.704-13.6801
		c1.872-4.104,1.872-4.104,5.76-11.304c1.08-2.736,2.16-5.544,3.312-8.352c1.08-2.304,2.232-4.608,3.384-6.984
		c1.944-5.256,1.944-5.256,2.88-6.9841c0.072-1.728,0.144-3.4559,0.216-5.2559c0.504-0.72,0.504-0.72,1.152-1.08
		C258.768,0.36,259.848,0.2159,261,0c0.576,0.072,1.152,0.144,1.728,0.2159c0.864,0.6481,1.7281,1.2961,2.592,1.9441
		c0,0.576,0.072,1.152,0.144,1.8c-0.216,0.432-0.432,0.936-0.72,1.44c0,0.72,0,1.4399,0,2.16c5.7599,11.52,6.192,12.96,11.952,23.76
		c0.648,0.936,1.296,1.872,1.944,2.88c0.936,2.664,1.44,3.384,1.944,5.3279c0.576,0.936,1.224,1.8721,1.872,2.88
		c1.44,4.032,2.448,7.92,3.384,10.2961c0.936,3.6,2.88,8.424,6.696,20.16c0.504,0.72,1.44,3.816,1.944,4.536
		c0.936,2.88,0.936,2.88,1.944,4.824c4.032,13.896,4.536,14.616,6.48,21.6c0.792,2.088,1.584,4.176,2.376,6.2639
		c0.504,3.096,0.504,3.096,2.376,9.7921c1.08,2.52,2.232,5.112,3.384,7.7039c0.288,1.944,0.576,3.9601,0.936,5.976
		c1.08,4.392,2.232,8.784,3.384,13.248c0,1.44,0,1.44,0.936,5.472c0.288,0.288,0.288,0.288,2.664,13.968
		c0.288,4.464,0.576,8.928,0.936,13.392c0.648,4.464,1.296,8.928,1.944,13.464c0,2.88,0,2.88,0.936,11.304
		c1.44,8.496,2.88,17.064,4.32,25.632c1.44,15.408,1.944,25.92,2.448,30.24c0.216,6.696,0.432,13.392,0.72,20.16
		c-0.288,5.04-0.288,5.04,0,14.904c-0.504,8.136-1.008,12.024-1.008,13.896c0.144,0.144,0.288,0.36,0.432,0.576
		c5.616-0.144,11.304-0.288,16.992-0.432c0.36,0.144,0.792,0.288,1.224,0.432c0.36,0.36,0.72,0.72,1.08,1.152
		c0,0.576,0,1.224,0,1.872c-0.504,0.72-0.504,0.72-1.368,1.224c-1.512,0.216-3.024,0.504-4.536,0.792
		c-0.864,0.504-1.728,1.008-2.592,1.584c-0.144,0.288-0.288,0.576-0.504,0.864c-0.648,0.288-1.296,0.576-1.944,0.936
		c-3.6,3.6-3.6,3.6-3.96,4.248c0,0.576-0.072,1.224-0.144,1.872c0.432,0.216,0.864,0.432,1.368,0.72
		c0.072,0.432,0.144,0.936,0.216,1.44c-0.936,1.224-0.936,1.224-2.232,2.016c-1.944,0.504-1.944,0.504-6.264,2.448
		c-3.384,2.952-3.816,3.6-5.76,5.112c-0.936,1.152-1.872,2.304-2.88,3.528c-5.544,5.04-6.4799,6.336-14.904,14.4
		c-3.816,4.536-6.192,7.92-6.696,8.28c-0.072,0.216-0.144,0.432-0.216,0.72c1.224-0.072,2.52-0.216,3.816-0.36
		c0.7921-0.288,1.584-0.648,2.376-1.008c3.888-0.792,7.848-1.584,11.808-2.376c0.792-0.792,1.584-1.584,2.376-2.376
		c0.504-0.144,1.08-0.288,1.656-0.504c0.864,0.072,1.728,0.144,2.664,0.216c0.432,0.36,0.936,0.792,1.44,1.224
		c1.512,0.648,3.024,1.296,4.536,1.944c1.584,0.288,3.168,0.576,4.824,0.936c1.584,0,3.168,0,4.824,0c3.6,0.432,7.2,0.936,10.8,1.44
		c2.592-0.216,2.592-0.216,4.32,0c0.288,0.36,0.288,0.36,0.072,1.368c-0.36,0.288-0.36,0.288-7.776,0.072
		c-6.264-0.504-6.264-0.504-7.92-0.936c-2.16,0.216-2.16,0.216-5.544,0c-1.512-0.216-3.024-0.432-4.536-0.72
		c-4.536-1.944-4.536-1.944-6.48-3.168c-0.504,0.072-1.08,0.144-1.656,0.288c-1.152,0.936-2.376,1.872-3.6,2.88
		c-3.672,0.576-7.344,1.224-11.088,1.872c-0.504,0.288-1.08,0.648-1.656,1.008c-1.08,0.144-2.232,0.288-3.384,0.432
		c-0.864,0.288-1.728,0.648-2.592,1.008c-1.008,0.144-2.088,0.288-3.168,0.432c-1.584,0.432-3.168,0.936-4.752,1.44
		c-3.384,1.944-5.76,2.88-8.64,4.608c-1.656,0.432-3.312,0.936-5.04,1.44c-1.728,0-4.104-0.504-6.984-0.72
		c-2.52,0.288-5.112,0.576-7.704,0.936c-6.912,1.944-6.912,1.944-9.36,2.88c-11.952,1.944-11.952,1.944-15.552,2.16
		c-0.648,0.648-1.296,1.296-1.944,1.944c-0.72,0.216-1.44,0.432-2.16,0.72c-3.384,0-5.76-0.288-14.4-0.288
		c-1.944-0.216-1.944-0.216-5.256,0c-7.7039,1.944-7.7039,1.944-9.864,2.88c-1.44,1.008-2.376,2.16-3.384,2.664
		c-0.144,0.216-0.288,0.432-0.432,0.72c-2.016,0.432-4.032,0.936-6.048,1.44c-1.872,0.144-3.8159,0.288-5.7599,0.504
		c-3.312,0.936-3.312,0.936-14.616,2.88c-4.536,0.432-6.264,0.936-11.52,1.44c-1.584,0-3.168,0-4.824,0
		c-3.384-0.792-6.84-1.584-10.296-2.448c-1.152-0.072-2.376-0.144-3.6-0.216c-1.224,0.504-1.224,0.504-3.816,0.936
		c-1.944,1.008-1.944,1.008-4.1039,1.728c-6.84-0.288-13.752-0.648-20.664-1.008c-1.08,0.432-2.16,0.936-3.312,1.44
		c-0.792,0.144-1.584,0.288-2.448,0.504c-12.96,0.216-12.96,0.216-15.552,0c-1.512,0.432-3.024,0.936-4.608,1.44
		c-2.952,0.072-5.904,0.144-8.856,0.216c-5.976-0.432-16.56-0.432-17.28-0.72c-1.656-0.072-3.312-0.144-5.04-0.216
		c-8.136,0.936-8.136,0.936-13.464,1.944c-5.976,0-5.976,0-6.912-0.288c-5.04-0.432-5.04-0.432-10.368-1.44
		c-2.232-0.072-4.464-0.144-6.696-0.216c-2.376,0.504-8.424,0.936-9.864,1.44C4.464,397.944,4.464,397.944,0.648,397.944
		L0.648,397.944z M75.744,394.56c-0.432-0.144-0.936-0.36-1.44-0.576c0.72,0,1.44-0.072,2.16-0.144
		c1.44,0.504,1.44,0.504,1.224,0.72C77.04,394.56,76.392,394.56,75.744,394.56L75.744,394.56z M104.328,391.176
		c-6.408-0.288-12.816-0.576-19.224-0.936c-1.584-0.288-3.168-0.576-4.824-0.936c-1.944,0-3.96,0-5.976,0
		c-4.968-0.72-9.936-1.44-14.904-2.16c-1.152-0.504-4.752-1.008-8.136-1.944c-5.976-0.936-5.976-0.936-14.4-2.952
		c0-0.216-0.072-0.432-0.144-0.72c1.656-1.008,2.664-2.16,6.264-5.04c0.936-1.44,2.16-2.448,4.536-6.048
		c0.144-0.36,0.288-0.72,0.504-1.152c3.024-0.144,12.096,0.288,12.816,0.576c8.208,0.936,13.464,1.872,23.04,2.88
		c5.328,0.216,17.28,0,36.72,0.216c12.6-0.072,25.272-0.144,37.944-0.216c3.384-0.504,17.784-1.44,28.296-2.448
		c7.488-0.432,10.08-0.936,12.24-0.936c2.448-0.504,7.92-0.936,20.448-2.88c3.816-0.288,7.632-0.576,11.52-0.936
		c9.576-1.44,9.576-1.44,12.672-2.16c1.152,0,2.376,0,3.6,0.072c-0.216,0.216-0.432,0.432-0.72,0.648
		c-6.696,1.872-6.696,1.872-9.072,2.88c-11.304,1.872-11.304,1.872-11.808,2.16c-1.872,0.144-3.816,0.288-5.76,0.432
		c-1.728,0.288-3.4561,0.648-5.256,1.008c-2.52,0.216-5.112,0.432-7.704,0.72c-4.68,0.072-9.36,0.144-14.112,0.216
		c-5.328,0.936-5.328,0.936-15.84,1.944c-8.208,0.432-8.208,0.432-10.8,0.936c-18.504,0.504-18.504,0.504-32.904,1.224
		c-5.256-0.288-14.4,0-18.72-0.288c-2.376,0.288-2.376,0.288-23.256,0.288c-6.264-0.72-8.208-1.224-16.344-2.16
		c-4.392-0.288-8.784-0.648-13.176-1.008c-0.288,0.072-0.648,0.144-1.008,0.288c-0.144,0.216-0.288,0.504-0.432,0.792
		c0.144,0.288,0.288,0.576,0.432,0.864c0.288,0.144,0.648,0.288,1.008,0.504c5.616,0.432,11.304,0.936,16.992,1.44
		c3.528,0.432,7.056,0.936,10.584,1.44c7.2,0.216,8.424,0,9.144,0.216c16.056-0.216,16.056-0.216,34.056,0
		c0.72,0.072,1.44,0.144,2.16,0.216c5.256-0.36,10.512-0.72,15.84-1.152c5.976,0.216,5.976,0.216,6.4799,0
		c25.416-1.44,26.136-1.728,31.68-2.16c1.44-0.216,2.88-0.432,4.32-0.72c4.752-0.072,9.576-0.144,14.4-0.288
		c7.2-0.72,11.7361-1.44,17.496-1.872c5.76-1.008,6.768-1.44,11.52-2.16c7.488-2.16,7.488-2.16,8.424-2.664
		c4.248-0.936,8.496-1.872,12.744-2.88c2.88-1.44,2.88-1.44,8.64-3.384c2.304-0.576,4.608-1.224,6.912-1.872
		c4.608-1.944,4.608-1.944,9.6479-3.6c1.44-1.008,1.44-1.008,3.312-1.728c0.864-0.144,1.728-0.288,2.664-0.432
		c4.536-1.944,8.136-3.888,17.28-7.704c1.656-0.936,1.656-0.936,2.376-1.08c-0.288,0.576-0.576,1.152-0.864,1.728
		c-4.32,3.816-5.256,5.04-5.976,5.472c-1.944,2.448-1.944,2.448-5.976,6.768c-1.08,0.432-2.16,0.864-3.24,1.296
		c-9.576,5.76-9.576,5.76-15.12,8.64c-2.376,0.576-4.752,1.224-7.2,1.872c-0.144,0.144-0.288,0.288-0.504,0.504
		c-1.872,0-1.872,0-8.136,0.936c-6.9839,1.944-6.9839,1.944-9.864,2.448c-0.72,0.288-1.44,0.576-2.16,0.936
		c-3.96,0.648-7.92,1.296-11.952,1.944c-1.296,0.072-2.592,0.144-3.888,0.216c-0.432,0.288-0.936,0.576-1.44,0.936
		c-1.944,0.36-3.96,0.792-5.976,1.224c-13.176,0-13.176,0-16.56,0.216c-7.2,1.944-7.92,2.448-9.36,2.88
		c-1.008,0.864-2.016,1.728-3.096,2.664c-6.768,0.936-6.768,0.936-11.304,1.944c-3.9601,0.432-7.992,0.936-12.024,1.44
		c-12.96,0.432-22.752,1.152-24.4799,0.936c-2.88,0.216-2.88,0.216-3.6,0.504c-1.8-0.072-3.6-0.144-5.472-0.288
		c-1.44,0.288-2.88,0.648-4.32,1.008c-4.896,0.144-9.792,0.288-14.688,0.432c-2.232-0.144-4.464-0.288-6.696-0.432
		C110.088,391.176,110.088,391.176,104.328,391.176L104.328,391.176z M28.44,380.376c-2.376-0.936-2.376-0.936-3.6-1.872
		c-1.872-2.448-2.88-3.168-4.32-5.04c-0.36-1.08-0.576-7.344-0.864-8.28c0.216-1.728,0.432-3.456,0.72-5.256
		c0.648-1.656,1.296-3.312,1.944-5.04c1.584-2.952,3.168-5.904,4.824-8.928c2.016-2.592,2.016-2.592,3.744-4.104
		c0.36,0,0.72,0,1.152,0c0.864,1.728,0.864,1.728,1.8,4.824c0.504,3.384,0.936,4.32,0.936,5.328c-1.872,2.16-1.872,2.16-5.76,8.136
		c-1.224,2.232-2.52,4.464-3.816,6.696c0.072,0.288,0.144,0.648,0.216,1.008c0.864,0.288,0.864,0.288,1.872,0.072
		c0.288-0.36,0.576-0.792,0.936-1.224c0.288,0,0.576,0,0.936,0c0.432,0.648,0.936,1.368,1.44,2.088c0,0.432,0.072,0.936,0.144,1.44
		c-0.648,0.936-1.296,1.872-1.944,2.88c0,0.288,0,0.576,0,0.936c0.144,0.144,0.288,0.288,0.504,0.504c0.504,0,1.008,0,1.584,0.072
		c1.728-2.232,2.232-3.456,2.736-3.888c0.936-2.16,2.88-5.04,4.752-8.424c1.944-2.664,1.944-2.664,2.592-3.024
		c0.216,0,0.432,0,0.72,0c1.44,2.16,1.44,2.16,3.168,6.12c0.504,1.944,1.008,2.664,1.008,3.384
		c-0.648,1.008-1.296,2.016-1.944,3.096c-1.224,1.368-2.52,2.736-3.816,4.104c-1.224,0.936-2.448,1.872-3.744,2.88
		c-1.224,0.504-2.52,1.008-3.816,1.512C31.176,380.376,29.808,380.376,28.44,380.376L28.44,380.376z M52.488,375.336
		c-0.432-0.216-0.936-0.432-1.44-0.72c-2.664,0-2.664,0-3.024-0.288c0.216-1.728,0.216-1.728,0.576-2.088
		c1.728-0.504,1.728-0.504,2.88-0.504c1.008,1.008,2.16,1.44,2.52,1.872c0,1.44,0,1.44-0.36,1.728
		C53.28,375.336,52.92,375.336,52.488,375.336L52.488,375.336z M109.584,370.296c-2.808-0.072-5.616-0.144-8.424-0.288
		c0.072-0.432,0.216-0.936,0.36-1.44c1.368-1.8,2.808-3.672,4.248-5.544c0.72,0,1.44-0.072,2.16-0.144
		c3.096,0.648,6.192,1.368,9.36,2.088c-0.864,1.656-0.864,1.656-2.808,4.32c-0.432,0.216-0.864,0.504-1.296,0.792
		C112.032,370.152,110.808,370.224,109.584,370.296L109.584,370.296z M122.04,370.296c-1.512-0.072-3.096-0.144-4.68-0.288
		c0.072-0.36,0.144-0.792,0.216-1.224c1.008-1.152,2.016-2.304,3.024-3.528c1.224,0,2.16,0.288,6.768,0.72c1.152,0,2.376,0,3.6,0
		c1.296,0.216,2.664,0.432,4.032,0.648c-0.072,0.504-0.216,1.08-0.36,1.656c-0.432,0.504-0.864,1.008-1.296,1.584
		C129.6,370.008,125.856,370.152,122.04,370.296L122.04,370.296z M142.488,370.08c-1.8-0.072-3.672-0.216-5.544-0.36
		c0-0.36,0-0.72,0.0721-1.152c0.288-0.432,0.6479-0.936,1.008-1.44c0.576-0.144,1.152-0.288,1.8-0.432
		c5.688-0.072,11.376-0.144,17.064-0.216c0,0.288,0,0.576,0.0721,0.864c-0.432,0.792-0.936,1.584-1.44,2.376
		c-0.36,0.072-0.72,0.216-1.08,0.36C150.48,370.08,146.52,370.08,142.488,370.08L142.488,370.08z M159.264,369.864
		c-0.288-0.144-0.288-0.144-0.36-1.296c0.432-0.648,0.936-1.296,1.44-1.944c14.0399-0.864,14.0399-0.864,20.736-0.936
		c-0.432,0.864-0.864,1.728-1.296,2.592C172.944,368.784,166.104,369.288,159.264,369.864L159.264,369.864z M91.584,369.576
		c-1.152,0-2.376,0-3.6-0.072c0.216-0.72,0.504-1.44,0.792-2.16c2.448-3.096,3.384-4.824,4.248-5.688c2.16-0.216,2.16-0.216,6.264,0
		c1.224,0.288,2.448,0.576,3.672,0.864c-0.072,0.432-0.144,0.936-0.216,1.44c-1.584,1.8-3.168,3.672-4.824,5.544
		C95.832,369.504,93.744,369.504,91.584,369.576L91.584,369.576z M80.28,369.36c-7.416-0.936-8.136-1.224-13.176-1.656
		c-4.392-0.792-8.784-1.656-13.248-2.52c0-0.288,0-0.576-0.072-0.936c1.152-0.576,2.304-1.224,3.456-1.872
		c0.72-0.144,1.44-0.288,2.16-0.432c1.44-1.008,2.88-1.44,6.048-3.168c0.216,0,0.504,0.072,0.792,0.144
		c0.216,0.288,0.432,0.648,0.72,1.008c0,0.504,0,1.08,0,1.656c0.144,0.216,0.36,0.432,0.576,0.72c0.72,0.072,1.44,0.216,2.232,0.36
		c0.288-0.288,0.576-0.648,0.936-1.008c0.936,0,1.872,0,2.88,0c0.864,0.216,1.728,0.432,2.664,0.648c0,0.216-0.072,0.432-0.144,0.72
		c-0.936,0.936-1.872,1.872-2.88,2.88c0,0.36,0,0.792,0,1.224c0.576,0.576,0.576,0.576,1.296,0.576
		c2.016-2.016,4.032-4.032,6.048-6.048c3.024-0.072,6.048-0.144,9.072-0.216c0,0.288,0.072,0.576,0.144,0.864
		c-1.728,2.304-3.528,4.608-5.328,6.984C83.088,369.288,81.72,369.288,80.28,369.36L80.28,369.36z M183.528,367.848
		c0.072-0.648,0.144-1.296,0.288-1.944c0.144-0.144,0.288-0.288,0.504-0.504c2.16-0.072,4.392-0.216,6.624-0.36
		c1.944-0.504,6.48-0.936,7.2-1.224c6.984-0.432,7.416-0.72,8.856-0.792c-0.072,0.432-0.216,0.936-0.36,1.44
		c-0.288,0.36-0.576,0.792-0.936,1.224c-4.752,0.648-9.504,1.296-14.256,2.016c-0.936-0.072-1.872-0.144-2.88-0.288
		C186.912,367.56,185.256,367.704,183.528,367.848L183.528,367.848z M32.544,365.256c-0.216-0.144-0.432-0.36-0.648-0.576
		c-0.72-2.16-0.72-2.16-0.72-3.312c0.144-0.36,0.288-0.792,0.504-1.224c0.36,0,0.72-0.072,1.08-0.144
		c0.072,0.648,0.216,1.368,0.36,2.088c0.36,0.504,0.792,1.08,1.224,1.656c-0.144,0.504-0.36,1.008-0.576,1.512
		C33.408,365.256,32.976,365.256,32.544,365.256L32.544,365.256z M209.448,365.184c0.0721-0.504,0.144-1.08,0.2881-1.656
		c0.288-0.36,0.6479-0.792,1.008-1.224c1.944-0.288,3.888-0.576,5.904-0.864c1.584,0,3.168,0,4.752,0
		c1.44-0.504,6.0479-0.936,6.48-1.224c1.008-0.072,2.088-0.144,3.168-0.288c-0.864,2.592-0.864,2.592-1.224,2.952
		C219.96,363.816,213.768,364.824,209.448,365.184L209.448,365.184z M141.048,364.536c-0.288,0-0.648,0-1.008-0.072
		c0.072-0.432,0.216-0.936,0.36-1.44c0.648-0.792,1.296-1.584,1.944-2.376c0.144-0.576,0.36-1.152,0.576-1.728
		c1.44-0.36,1.44-0.36,7.92-0.36c0.864,1.8,0.864,1.8,1.8,2.808c0.576,0,1.152,0,1.8,0.072c1.44-0.504,5.544-0.936,6.048-1.224
		c0.36,0,0.72,0,1.152-0.072c-0.288,0.72-0.576,1.44-0.864,2.16c-0.432,0.504-0.936,1.08-1.44,1.656
		C156.168,364.32,156.168,364.32,141.048,364.536L141.048,364.536z M49.104,364.32c-0.648-1.08-1.296-2.16-1.944-3.24
		c-0.576-1.44-1.152-2.88-1.8-4.32c0-0.288,0.072-0.576,0.144-0.864c2.88,0.216,5.76,0.432,8.64,0.72
		c0.144,0.144,0.36,0.288,0.576,0.432c0.216,2.376,0.504,2.88,0.504,3.816c-1.584,1.152-3.24,2.304-4.896,3.456
		C49.968,364.32,49.536,364.32,49.104,364.32L49.104,364.32z M135,364.32c-3.6-0.504-6.912-0.504-11.952-0.936
		c0-0.504-0.072-1.008-0.144-1.584c0.936-1.44,0.936-1.44,2.016-2.304c1.728-0.144,3.528-0.288,5.328-0.432
		c0.144,0.216,0.288,0.504,0.432,0.792c0,0.504-0.072,1.008-0.144,1.512c0.504,0.936,0.504,0.936,1.152,1.296
		c0.936,0,0.936,0,2.376-0.72c1.224,0,2.52,0.072,3.8159,0.144c-0.36,1.656-0.36,1.656-0.72,2.232
		C136.44,364.32,135.72,364.32,135,364.32L135,364.32z M165.24,364.104c-0.7921,0-1.584-0.072-2.376-0.144
		c0-0.36,0-0.72,0.072-1.152c0.936-1.728,1.872-3.456,2.808-5.184c1.008-0.144,2.016-0.288,3.096-0.504
		c0.936,0.072,1.872,0.144,2.88,0.216c0.144,0.144,0.288,0.288,0.504,0.504c0,0.792,0,1.656,0.0721,2.52
		c0.144,0.072,0.288,0.216,0.4319,0.36c2.0161-0.216,4.104-0.432,6.192-0.72c0.792-0.288,1.584-0.576,2.448-0.936
		c0.216-0.576,0.432-1.152,0.72-1.8c1.296-0.144,2.664-0.288,4.032-0.504c-0.864,2.448-0.864,2.448-2.7361,5.76
		c-0.6479,0.504-0.6479,0.504-1.8,0.864C177.768,363.816,177.768,363.816,165.24,364.104L165.24,364.104z M186.408,362.88
		c0-0.432-0.072-0.864-0.144-1.296c0.936-1.656,1.944-3.312,2.952-5.04c1.512-0.36,1.512-0.36,6.048-0.504
		c-0.36,1.44-0.864,2.16-0.864,3.168c0.36,0.288,0.36,0.288,8.28,0.072c1.08-0.288,2.232-0.576,3.384-0.936
		c0.144-0.144,0.288-0.288,0.504-0.504c1.152-0.216,2.376-0.504,3.6-0.792c0,0.36-0.072,0.72-0.144,1.152
		c-0.432,0.72-0.936,1.44-1.44,2.16c-4.464,0.864-4.464,0.864-15.696,2.304C190.728,362.736,188.568,362.808,186.408,362.88
		L186.408,362.88z M116.568,362.376c-1.656-0.288-3.384-0.648-5.112-1.008c0-0.216,0-0.432,0-0.72c1.584,0,3.168-0.072,4.824-0.144
		c1.008-0.504,1.008-0.504,1.224-0.864c0.504,0,1.08-0.072,1.656-0.144c0.432,0.432,0.936,0.864,1.44,1.368
		c-0.36,0.504-0.72,1.008-1.152,1.512C118.512,362.376,117.576,362.376,116.568,362.376L116.568,362.376z M233.424,362.16
		c0-0.216-0.072-0.504-0.144-0.792c0.936-2.16,0.936-2.16,1.368-2.592c2.88-0.576,5.76-1.224,8.64-1.872
		c1.8719-0.6479,3.8159-1.296,5.7599-1.944c0.576-0.072,1.224-0.144,1.872-0.216c0.072,0.072,0.144,0.216,0.288,0.36
		c-0.864,2.664-0.864,2.664-1.368,3.384c0,1.44,0,1.44-0.36,1.728c-2.448,0.216-4.896,0.432-7.416,0.72
		c-1.512,0.288-3.024,0.648-4.536,1.008C236.16,362.016,234.792,362.088,233.424,362.16L233.424,362.16z M36.36,360
		c-0.576-0.864-1.152-1.8-1.8-2.736c0-0.432,0-0.936,0-1.44c0.432-0.504,0.864-1.008,1.368-1.584c0.432,0,0.936,0,1.44,0
		c1.152,0.936,1.152,0.936,2.16,2.304c-0.864,1.152-1.728,2.304-2.664,3.456C36.72,360,36.576,360,36.36,360L36.36,360z
		 M103.824,359.784c-0.504,0-1.08-0.072-1.656-0.144c0-0.216,0-0.432,0-0.72c1.008,0,2.016,0.072,3.096,0.144
		c0.216,0.36,0.216,0.36,0,0.72C104.832,359.784,104.328,359.784,103.824,359.784L103.824,359.784z M212.04,359.64
		c0.576-1.44,1.152-2.88,1.8-4.32c0.36-0.432,0.72-0.936,1.08-1.44c0.576,0,1.152,0,1.728,0c-0.288,0.288-0.576,0.648-0.864,1.008
		c0,0.504,0,1.08,0,1.656c0.144,0.072,0.36,0.216,0.576,0.36c2.304-0.144,4.608-0.288,6.984-0.504
		c5.0399-0.936,5.0399-0.936,7.2-1.656c0.36-0.576,0.36-0.576,0.36-2.736c-0.288-0.288-0.648-0.648-1.008-1.008
		c0-0.72,0-0.72,0.432-1.08c3.312-0.936,3.312-0.936,4.752-0.936c0.504,0.72,0.504,0.72,0.576,2.016
		c-0.432,1.728-1.44,3.384-1.872,5.04c-0.36,0.288-0.72,0.576-1.08,0.864c-1.872,0.432-3.816,0.936-5.76,1.44
		C222.408,358.776,221.688,359.064,212.04,359.64L212.04,359.64z M73.584,359.28c-0.288-0.072-0.288-0.072-0.504-1.08
		c2.16-0.144,4.32-0.288,6.48-0.432c-0.072,0.36-0.216,0.72-0.36,1.152C76.968,359.28,76.968,359.28,73.584,359.28L73.584,359.28z
		 M252.648,359.424c0.072-0.72,0.144-1.44,0.288-2.16c0.72-1.224,1.512-2.448,2.304-3.744c2.304-0.648,4.608-1.296,6.984-1.944
		c10.296-3.816,10.296-3.816,13.176-4.608c-0.504,1.656-1.0081,3.312-1.584,5.04c-2.016,0.864-4.032,1.8-6.048,2.736
		c-6.048,1.872-6.048,1.872-12.024,4.32C254.736,359.136,253.728,359.28,252.648,359.424L252.648,359.424z M86.76,359.064
		c-1.008,0-2.016-0.072-3.096-0.144c0.072-0.36,0.144-0.72,0.216-1.08c1.296-0.072,2.592-0.144,3.888-0.216
		c0.288,0.216,0.576,0.504,0.936,0.792C88.488,358.776,88.488,358.776,86.76,359.064L86.76,359.064z M61.344,358.2
		c0-0.504,0-1.08,0.072-1.656c0.432-0.648,0.936-1.296,1.44-1.944c0.288-0.072,0.576-0.216,0.864-0.36
		c1.512,0.144,3.024,0.288,4.608,0.504c0.144,0.216,0.288,0.504,0.432,0.792c-0.936,1.584-0.936,1.584-1.656,2.088
		c-0.288,0.072-0.576,0.144-0.936,0.216c-0.216-0.144-0.432-0.288-0.72-0.504c-0.72,0-1.44,0-2.16,0
		C62.64,357.624,61.992,357.912,61.344,358.2L61.344,358.2z M101.16,356.904c-0.576-0.144-1.224-0.288-1.872-0.504
		c-1.656,0.072-3.312,0.144-5.04,0.216c-0.36-0.144-0.792-0.288-1.224-0.432c-1.008,0-2.016,0-3.096,0
		c-0.432-0.288-0.936-0.648-1.44-1.008c-2.88,0.288-2.88,0.288-15.408,0.504c0-0.792-0.072-1.656-0.144-2.52
		c0.432-0.36,0.432-0.36,3.744-0.576c1.584,0.072,3.168,0.144,4.824,0.216c0.216-0.144,0.432-0.36,0.72-0.576
		c0.072-1.224,0.072-1.224-0.36-1.944c-0.144-0.072-0.36-0.216-0.576-0.36c-2.88,0-3.6-0.216-9.648,0.216
		c-1.152-0.936-2.376-1.872-3.6-2.88c-3.816-0.432-3.816-0.432-5.76-0.216c-0.792,0.288-1.584,0.576-2.376,0.936
		c-0.72,0.72-1.44,1.44-2.16,2.16c-0.216,0-0.432,0-0.72,0c-0.936-1.368-1.872-2.736-2.808-4.176c0-0.288,0-0.576,0-0.936
		c0.288-0.288,0.648-0.576,1.008-0.936c1.512-3.24,3.024-6.552,4.536-9.864c0.072-0.648,0.216-1.368,0.36-2.088
		c9-0.864,18.072-1.728,27.144-2.592c1.224-0.288,2.52-0.648,3.816-1.008c5.04-0.432,6.48-0.936,15.84-1.728
		c0,0.792-0.072,1.584-0.144,2.376c0.288,0.504,0.648,1.08,1.008,1.656c1.944,1.584,3.96,3.168,5.976,4.824
		c0.288,0.36,0.576,0.792,0.936,1.224c2.016,1.512,4.032,3.024,6.048,4.536c0.936,1.656,0.936,1.656,1.512,2.16
		c0.576,0,1.152,0,1.728,0.072c0.432-0.144,0.936-0.36,1.44-0.576c0,0.648,0,1.296,0.072,1.944c0.144,0.216,0.288,0.432,0.504,0.72
		c0.432,0.144,0.864,0.36,1.368,0.576c3.024-0.072,6.048-0.144,9.072-0.216c0.576-0.144,1.152-0.288,1.728-0.504
		c8.136-0.216,11.52-0.72,15.84-0.72c1.872-0.144,3.816-0.288,5.76-0.504c0.864-0.288,1.728-0.576,2.592-0.936
		c0.648-0.792,1.296-1.656,1.944-2.52c0.432-0.36,0.936-0.72,1.44-1.08c0.504-0.144,1.08-0.288,1.656-0.504
		c1.656-0.072,3.312-0.144,5.04-0.216c1.8,0.216,3.672,0.432,5.544,0.72c0.504-0.072,1.08-0.144,1.656-0.216
		c1.44,0.432,1.44,0.432,4.104,0.432c0.216-0.144,0.432-0.36,0.72-0.576c0-0.432,0-0.936,0.072-1.44
		c-0.288-0.432-0.576-0.936-0.936-1.44c-1.44-1.008-2.88-2.016-4.32-3.096c-0.648-1.008-1.296-2.016-2.016-3.096
		c-1.008-0.576-2.016-1.224-3.096-1.872c-0.864-0.072-1.728-0.144-2.664-0.216c-0.936,1.44-0.936,1.44-1.4399,1.656
		c-5.544-0.216-5.544-0.216-10.08,0c-0.936,0.648-1.872,1.2961-2.88,1.944c-0.288,0.36-0.576,0.7921-0.936,1.224
		c-0.576,0.288-1.1519,0.576-1.728,0.936c-10.08,0.936-10.08,0.936-10.512,1.224c-3.384,0-10.08,0.72-13.248,0.72
		c-0.216-0.144-0.432-0.288-0.72-0.504c-0.504,0-1.08,0-1.656,0c-0.36,0.288-0.792,0.576-1.224,0.936c-0.216,0-0.432,0-0.72,0
		c-0.288-0.36-0.576-0.72-0.936-1.152c-1.08-0.648-2.232-1.296-3.384-1.944c-6.912-6.12-6.912-6.12-7.344-6.84
		c0-0.36,0.072-0.72,0.144-1.08c5.76-0.792,11.52-1.584,17.28-2.376c5.7599,0,5.7599,0,8.928,0.432
		c14.112-0.432,14.112-0.432,21.312-0.216c2.448,0.504,2.448,0.504,5.76,0.72c0.72-0.576,0.72-0.576,1.224-1.584
		c1.08-0.792,2.232-1.656,3.3839-2.52c0.504-0.072,1.08-0.144,1.656-0.216c0.36,0.36,0.36,0.36,0.7921,1.8
		c0.288,0,0.576,0.072,0.864,0.144c0.288-0.144,0.648-0.288,1.008-0.504c0.576,0.072,1.224,0.144,1.872,0.216
		c0.792,0.288,1.584,0.648,2.448,1.008c5.4,0.144,10.8,0.36,16.272,0.576c0.072,1.0081,0.216,2.088,0.36,3.168
		c0.36,0.432,0.72,0.936,1.08,1.44c0.432,0.144,0.936,0.36,1.44,0.576c3.168,0,4.104-0.288,9.36-0.288
		c0.72-0.432,0.72-0.432,1.08-1.008c0-0.4319,0-0.936,0-1.4399c-0.432-0.432-0.936-0.936-1.44-1.44c0-0.288,0-0.648-0.0721-1.0081
		c1.44-0.144,1.44-0.144,1.656-0.36c1.872,0.072,3.816,0.144,5.76,0.216c0.792,2.304,1.296,3.024,1.512,4.032
		c-0.072,2.304-0.144,4.608-0.216,6.912c0.144,0.216,0.288,0.432,0.504,0.72c0.504,0.144,1.008,0.36,1.584,0.576
		c1.296,0,2.664,0,4.032,0c0.72,0.216,1.44,0.432,2.16,0.72c1.8-0.072,3.672-0.144,5.544-0.216c0.72-0.504,0.72-0.504,1.08-1.296
		c-0.288-0.936-0.288-0.936-0.864-1.368c-3.816-0.216-3.816-0.216-7.416-0.936c-0.216-0.072-0.432-0.2159-0.648-0.36
		c0-0.216,0-0.432,0-0.72c0.216-0.072,0.432-0.216,0.648-0.36c2.376-0.072,4.752-0.144,7.2-0.216
		c0.432-0.144,0.936-0.2881,1.44-0.504c2.376,0,4.752,0,7.2,0c3.6-0.504,11.736-0.936,14.904-1.44c0.936,0,1.944,0.072,2.952,0.144
		c0.144,0.36,0.288,0.792,0.504,1.224c1.296,1.152,2.592,2.376,3.96,3.6c1.656,0.288,1.656,0.288,8.64,0.072
		c0.144,0.144,0.288,0.36,0.504,0.576c-0.144,0.216-0.288,0.432-0.504,0.648c-11.304,3.816-11.304,3.816-16.056,5.76
		c-2.016,0.288-4.032,0.576-6.048,0.936c-1.44,0.648-2.88,1.296-4.32,1.944c-4.032,0.936-4.032,0.936-6.696,1.872
		c-2.5201,0.216-5.112,0.432-7.704,0.648c0-0.792-0.072-1.584-0.144-2.376c-1.152-1.008-2.736-1.872-4.896-4.032
		c-0.864-0.36-1.728-0.72-2.592-1.152c-1.728,0.072-3.528,0.144-5.328,0.216c-0.504,0.216-1.08,0.432-1.656,0.72
		c-0.72,0.072-1.44,0.144-2.16,0.216c-0.36,0.432-0.36,0.432-0.36,1.584c2.8799,1.944,7.056,5.328,7.2,5.76
		c-0.576,0.36-5.184,1.296-5.4,1.584c-1.44,0.144-2.88,0.288-4.32,0.4319c-0.864,0.288-1.728,0.648-2.664,1.008
		c-1.008,0.072-2.016,0.144-3.096,0.216c-0.072-0.504-0.216-1.008-0.36-1.512c-1.08-1.008-1.944-1.44-2.448-2.16
		c0-1.44,0.288-2.16,0.288-3.384c-0.144-0.36-0.288-0.792-0.504-1.224c-0.288-0.144-0.576-0.288-0.864-0.432
		c-0.216,0.144-0.504,0.288-0.7921,0.432c-0.576,1.152-1.152,2.304-1.8,3.456c-0.792,0.072-1.584,0.144-2.376,0.288
		c-0.288-0.216-0.648-0.432-1.008-0.72c-3.24,0.144-6.48,0.288-9.792,0.432c-1.08-0.216-2.232-0.432-3.384-0.72
		c-5.76,1.44-7.2,1.44-12.24,2.448c-2.376,0.288-4.752,0.576-7.2,0.936c-9.144,0.504-12.744,0.936-22.32,1.44
		c-1.872-0.144-3.816-0.288-5.76-0.504c-1.512,0.144-3.024,0.288-4.536,0.504c-3.168-0.216-3.168-0.216-6.984-0.936
		c-1.224,0.936-1.224,0.936-4.32,2.16c-8.136,0.216-8.136,0.216-8.64,0c-9.144-0.288-9.144-0.288-12.744,0
		c-0.288,0.144-0.576,0.36-0.864,0.576c0,0.288,0,0.648,0,1.008c0.432,0.144,0.864,0.36,1.368,0.576
		c13.68,0.432,13.68,0.432,14.4,0.72c2.448-0.072,4.896-0.144,7.416-0.288c1.008-0.288,2.088-0.576,3.168-0.936
		c0.288-0.216,0.576-0.432,0.936-0.72c2.88,0.072,5.76,0.144,8.64,0.216c0.288-0.144,0.576-0.288,0.936-0.432
		c2.448,0.144,4.968,0.288,7.488,0.432c0.288-0.144,0.576-0.288,0.936-0.432c2.88-0.072,5.76-0.144,8.64-0.288
		c0.648-0.144,1.296-0.288,1.944-0.432c2.736,0.072,5.544,0.144,8.352,0.216c15.408-1.44,15.408-1.44,21.168-2.376
		c3.744-0.072,7.488-0.216,11.232-0.36c0,0.504,0.072,1.08,0.144,1.656c0.216,0.216,0.432,0.432,0.72,0.72c0,1.44,0,1.44,0.432,2.16
		c1.152,0.144,1.152,0.144,2.808-0.144c0.072,0.288,0.216,0.576,0.36,0.864c-0.36,0.288-2.016,0.144-23.4,1.8
		c-1.512-0.072-3.024-0.144-4.536-0.216c-4.176,0.288-8.352,0.576-12.528,0.936c-3.672,0.072-7.344,0.144-11.016,0.216
		c-1.368,0.144-2.736,0.288-4.104,0.504c-2.592-0.216-2.88-0.504-4.536-0.504c-0.504,0.288-0.504,0.288-11.52,1.008
		c-3.096-0.288-3.096-0.288-5.976,0c-2.88-0.504-2.88-0.504-3.888-1.008c-1.008-0.072-2.016-0.144-3.096-0.216
		c-4.32,0.504-4.32,0.504-5.256,0.936C105.696,356.688,103.464,356.76,101.16,356.904L101.16,356.904z M271.08,357.048
		c0.072-0.216,0.144-0.432,0.216-0.72c0.792-0.36,1.584-0.72,2.448-1.152c0.36,0,0.792,0,1.224,0
		C273.672,355.752,272.376,356.4,271.08,357.048L271.08,357.048z M236.52,355.896c0-0.216-0.0721-0.504-0.144-0.792
		c0.792-2.376,1.584-4.752,2.448-7.2c3.888-1.368,7.776-2.808,11.664-4.248c3.6-0.72,3.6-0.72,6.48-0.792
		c-0.144,1.656-0.144,1.656-0.648,2.88c-0.288,0.288-0.576,0.576-0.936,0.936c-0.288,1.08-0.6479,2.2321-1.008,3.384
		c-0.288,0.36-0.576,0.792-0.936,1.224c-3.816,1.224-7.704,2.448-11.592,3.672C240.12,355.248,238.32,355.536,236.52,355.896
		L236.52,355.896z M53.64,353.736c-4.32-0.432-4.32-0.432-10.08-1.44c-0.648-1.224-1.296-2.448-2.016-3.672c0-0.648,0-1.296,0-1.944
		c0.36-0.432,0.72-0.864,1.08-1.296c5.256-0.504,5.256-0.504,8.136-0.504c3.744,5.4,3.744,5.4,4.68,7.128c0,0.36,0,0.72,0,1.152
		c-0.144,0.144-0.36,0.288-0.576,0.504C54.504,353.664,54.072,353.664,53.64,353.736L53.64,353.736z M84.6,353.16
		c-0.36-0.432-0.36-0.432-0.36-1.872c0.576-0.504,0.576-0.504,1.8-0.864c1.224,0.216,1.224,0.216,5.76,0
		c0.288,0.36,0.648,0.72,1.008,1.08c-0.432,0.936-0.432,0.936-1.008,1.296c-1.728,0-3.456,0-5.256,0
		c-0.144,0.144-0.288,0.288-0.504,0.504C85.608,353.304,85.104,353.232,84.6,353.16L84.6,353.16z M199.8,353.16
		c0.144-0.36,0.36-0.72,0.576-1.152c-0.072-0.792-0.144-1.584-0.288-2.448c0.576,0,1.224,0.072,1.872,0.144
		c0.72,0.288,1.44,0.576,2.16,0.936c0.36,1.08,0.36,1.08,0.144,2.088C203.4,353.016,203.4,353.016,199.8,353.16L199.8,353.16z
		 M243,352.296c-0.504-0.144-1.08-0.288-1.656-0.432c0-0.36-0.072-0.72-0.144-1.08c0.864-0.72,0.864-0.72,4.248-2.088
		c0.504-0.072,1.08-0.144,1.656-0.216c0.36,0.288,0.72,0.576,1.08,0.864c0,0.36,0,0.792,0,1.224
		C246.6,351.36,246.6,351.36,243,352.296L243,352.296z M223.848,352.224c0-0.216,0-0.432,0-0.72c0.936,0,1.872,0,2.8799,0
		c-0.144,0.144-0.288,0.36-0.504,0.576C225.432,352.08,224.64,352.152,223.848,352.224L223.848,352.224z M286.488,350.64
		c-0.072-0.072-0.144-0.216-0.288-0.36c2.88-1.584,2.88-1.584,9.36-4.464c0.576-0.144,1.152-0.288,1.728-0.432
		c7.2-3.888,7.2-3.888,13.68-6.768c0.216,0.072,0.432,0.144,0.72,0.288c-3.6,1.872-3.6,1.872-6.48,3.816
		c-2.952,1.224-5.904,2.52-8.928,3.816c-1.656,0.936-3.312,1.872-5.04,2.88C288.36,350.424,288.36,350.424,286.488,350.64
		L286.488,350.64z M256.968,350.568c0.216-0.864,0.504-1.728,0.792-2.664c1.584-0.864,1.584-0.864,4.464-1.8
		c0-0.576,0-1.152,0.072-1.8c-0.792-0.072-1.584-0.216-2.448-0.36c0-0.432-0.072-0.864-0.144-1.296
		c0.144-0.288,0.288-0.648,0.432-1.008c4.248-1.8,4.248-1.8,7.344-2.736c2.52-0.288,5.112-0.648,7.704-1.008
		c0.936,1.224,0.936,1.224,2.952,3.024c0,0.432,0,0.936,0,1.44c-0.36,0.288-0.72,0.648-1.08,1.008
		c-8.856,3.672-8.856,3.672-16.992,6.552C259.056,350.136,258.048,350.352,256.968,350.568L256.968,350.568z M277.56,350.136
		c0-0.216-0.072-0.504-0.144-0.792c0.648-1.44,1.296-2.88,1.944-4.32c0.936-0.792,1.872-1.584,2.88-2.376
		c-0.0721-0.792-0.144-1.584-0.216-2.448c-0.144-0.2159-0.288-0.4319-0.504-0.72c0.072-0.72,0.144-1.44,0.216-2.16
		c0.504-1.08,1.008-2.16,1.584-3.312c0.648-0.288,1.296-0.648,1.944-1.008c2.448-0.72,4.896-1.512,7.416-2.304
		c1.728-0.144,3.528-0.36,5.328-0.576c0,0.576,0,1.152,0.072,1.728c-1.728,3.456-3.456,6.984-5.256,10.512c0,0.576,0,1.152,0,1.728
		c-3.96,1.728-5.616,2.736-8.28,3.672c-0.504,0.288-1.08,0.576-1.656,0.936C281.16,349.128,279.36,349.632,277.56,350.136
		L277.56,350.136z M91.584,342.936c-4.68-0.072-9.432-0.144-14.184-0.216c-0.576-0.648-1.152-1.296-1.8-2.016
		c-0.648-1.152-1.296-2.376-1.944-3.6c-0.072-0.432-0.144-0.936-0.216-1.44c0.216-0.216,0.432-0.432,0.648-0.648
		c5.616-0.072,11.304-0.144,16.992-0.216c0.36,0.288,0.792,0.576,1.224,0.936c0.216,0.648,0.504,1.368,0.792,2.088
		c1.008,0.936,1.008,0.936,1.44,1.944c0,2.376,0,2.376-0.288,2.736C93.384,342.648,92.52,342.792,91.584,342.936L91.584,342.936z
		 M45.504,342.504c0-0.36-0.072-0.72-0.144-1.08c0.288-0.648,0.576-1.2961,0.936-1.944c1.656-1.584,3.312-3.24,4.968-4.896
		c1.008-0.288,2.016-0.648,3.096-1.008c0.936-0.072,1.872-0.144,2.88-0.288c-0.36,1.872-0.36,1.872-2.304,6.48
		c-0.432,0.864-0.936,1.728-1.44,2.592C50.832,342.36,48.168,342.432,45.504,342.504L45.504,342.504z M296.064,342.36
		c0.216-1.008,0.504-2.016,0.792-3.096c1.008-1.44,1.008-1.44,4.608-9.576c0.072-0.504,0.216-1.008,0.36-1.584
		c1.44-0.504,1.44-0.504,3.816-0.72c2.664,0.432,3.6,0.936,7.92,1.44c0.216,0.072,0.432,0.216,0.72,0.36
		c0,0.36,0.072,0.792,0.144,1.224c-0.648,1.44-1.296,2.88-1.944,4.32c-3.24,1.728-7.992,3.672-14.256,7.056
		C297.504,341.928,296.784,342.144,296.064,342.36L296.064,342.36z M40.968,341.424c-0.288-0.864-0.576-1.7281-0.864-2.664
		c-0.288-0.36-0.648-0.72-1.008-1.152c0-0.288,0.072-0.576,0.144-0.864c1.44-0.504,1.44-0.504,6.48-1.08
		c-0.36,0.936-2.304,3.096-3.744,5.76C41.688,341.424,41.328,341.424,40.968,341.424L40.968,341.424z M245.16,338.616
		c-5.472-0.432-5.976-0.72-7.632-0.72c-0.36-0.216-0.72-0.504-1.152-0.792c0-1.224,0-1.224,0.432-1.8
		c2.376,0.216,2.376,0.216,7.416,0c2.16,0.936,2.16,0.936,2.88,1.512c0.0721,1.512,0.0721,1.512-0.216,1.8
		C246.312,338.616,245.736,338.616,245.16,338.616L245.16,338.616z M312.12,338.616c-0.0721-0.072-0.144-0.216-0.216-0.36
		c3.5999-2.016,4.104-2.52,5.0399-2.736c0.288,0,0.576,0.072,0.936,0.144c-0.864,0.648-1.728,1.296-2.592,2.016
		C312.84,338.616,312.84,338.616,312.12,338.616L312.12,338.616z M278.568,336.96c0-0.504,0-1.008-0.072-1.512
		c0.576-0.072,1.152-0.144,1.728-0.288c-0.36,1.44-0.36,1.44-0.72,1.8C279.216,336.96,278.928,336.96,278.568,336.96L278.568,336.96
		z M40.968,333.36c0-0.216-0.072-0.504-0.144-0.792c1.224-2.16,2.52-4.32,3.816-6.48c0.648-0.72,1.296-1.44,1.944-2.16
		c6.84-3.744,6.84-3.744,9.504-4.752c2.016-0.432,4.104-0.936,6.192-1.44c0.576,0,1.152,0.072,1.728,0.144
		c-0.288,0.504-0.648,1.008-1.008,1.584c-0.936,0.576-1.872,1.224-2.88,1.872c-1.224,1.368-2.52,2.736-3.816,4.104
		c-1.512,1.296-3.024,2.592-4.536,3.96c-0.648,0.792-1.296,1.656-1.944,2.52c-3.816,0.936-3.816,0.936-7.2,1.44
		C42.12,333.36,41.544,333.36,40.968,333.36L40.968,333.36z M275.4,332.856c-1.656-1.728-3.312-3.456-5.04-5.256
		c0-0.36-0.072-0.72-0.144-1.08c3.024-0.864,3.024-0.864,6.192-1.296c2.88,0,3.0959,0.216,10.08,0.216
		c0.288,0.144,0.576,0.288,0.936,0.504c1.944,0.072,3.96,0.144,5.976,0.216c1.44,0.216,2.88,0.432,4.32,0.72
		c-0.576,0.288-1.224,0.576-1.872,0.936c-2.7361,0.648-5.472,1.296-8.208,1.944c-2.88,0.936-5.76,1.872-8.64,2.88
		C277.848,332.712,276.624,332.784,275.4,332.856L275.4,332.856z M316.44,332.568c0.36-2.16,0.36-2.16,0.936-3.384
		c4.608-0.864,4.608-0.864,7.272-1.08c0.216,0.072,0.432,0.216,0.72,0.36c-0.432,0.36-0.936,0.72-1.44,1.08
		C317.448,332.424,317.448,332.424,316.44,332.568L316.44,332.568z M56.088,330.408c0.072-0.36,0.144-0.792,0.288-1.224
		c1.296-1.368,2.592-2.736,3.888-4.104c1.8-1.296,1.8-1.296,2.52-1.44c-0.072,0.432-0.216,0.936-0.36,1.44
		c-0.792,1.44-1.584,2.88-2.448,4.32C58.68,329.688,57.384,330.048,56.088,330.408L56.088,330.408z M63.288,329.04
		c0-0.216-0.072-0.504-0.144-0.792c0.576-1.152,1.224-2.376,1.872-3.5999c0.648-1.7281,1.296-3.528,1.944-5.328
		c0.72-0.72,1.44-1.44,2.16-2.16c1.368-0.576,2.808-1.152,4.248-1.8c4.32-0.576,8.64-1.152,12.96-1.8
		c-0.144,0.864-0.288,1.728-0.432,2.664c-0.576,1.224-1.224,2.52-1.872,3.816c-1.8,2.448-3.6,4.968-5.4,7.488
		c-5.256,0.792-10.08,1.008-12.024,1.512C65.52,329.04,64.44,329.04,63.288,329.04L63.288,329.04z M221.904,327.384
		c-0.288-0.432-0.576-0.864-0.864-1.296c0-0.648,0.072-1.296,0.144-1.944c1.224-0.36,1.224-0.36,2.664-1.368
		c0.792-1.008,1.728-3.672,2.736-4.896c1.872-4.032,5.256-9.792,6.48-12.456c0.72-0.504,0.72-0.504,1.656-2.16
		c0.288-0.864,0.576-1.728,0.936-2.664c0.288-0.36,0.648-0.72,1.008-1.152c1.224-2.592,2.5201-5.256,3.816-7.92
		c2.88-7.488,3.816-9.144,13.464-32.4c0.144-0.72,0.288-1.44,0.432-2.16c0.288-0.576,0.648-1.152,1.008-1.728
		c0.432-2.592,0.432-2.592,1.872-7.2c0-0.504,0-1.08,0-1.656c2.16-6.984,2.664-7.704,3.6-11.736c0.504-3.6,1.008-5.04,1.44-8.928
		c2.448-11.952,3.384-18.432,5.328-27.072c0.288-0.936,0.576-1.872,0.936-2.88c0.936-7.776,1.872-15.552,2.88-23.328
		c0-6.192,0.216-7.2,0.72-25.2c-0.216-1.656-0.216-11.952-0.504-12.672c-0.432-17.064-0.216-24.48-0.432-33.624
		c-0.288-1.44-0.288-5.976-1.224-17.064c-0.072-3.888-0.144-7.776-0.216-11.736c-0.36-3.672-0.792-7.344-1.224-11.016
		c-0.288-9.504-0.576-19.008-0.936-28.5841c-0.504-1.6559-0.504-1.6559-1.44-9.3599c-0.216-0.648-0.432-1.296-0.72-1.944
		c0-1.584-0.0721-3.168-0.144-4.752c0.216,0,0.432,0,0.72,0.072c4.824,9.36,9.648,18.7921,14.544,28.2241
		c0.144,0.864,0.288,1.728,0.432,2.6639c4.464,12.384,8.928,24.7679,13.464,37.152c3.816,12.744,4.824,15.408,6.696,22.1041
		c1.008,2.376,1.008,2.376,4.824,16.056c0.792,1.728,1.584,3.528,2.376,5.328c0.144,1.296,0.288,2.664,0.504,4.032
		c1.944,7.2,1.944,7.2,5.76,25.2c0.432,2.736,0.936,5.472,1.44,8.2079c0.288,4.104,0.576,8.28,0.936,12.4561
		c1.008,6.696,1.44,11.736,1.944,13.896c0.144,2.376,0.288,4.752,0.504,7.2c2.16,13.68,2.16,13.68,2.592,18.504
		c0.144,0.36,0.288,0.792,0.504,1.224c1.944,14.6161,1.944,14.6161,3.384,29.232c0,1.8,0,3.672,0,5.544
		c0.936,10.08,0.936,10.08,1.656,22.104c0,8.208,0,16.416,0,24.696c-0.936,4.824-0.936,4.824-1.224,5.256
		c0,3.168,0,3.168-0.432,6.48c-0.144,0.288-0.288,0.648-0.504,1.008c-1.512,0.792-1.512,0.792-7.992,2.736
		c-7.488,1.872-7.488,1.872-17.28,3.816c-12.744,1.944-28.584,3.816-40.608,5.76c-3.312,0.216-5.472,0.72-15.84,1.224
		c-4.032,0.432-10.512,0.432-11.952,0.72C228.528,327.384,225.216,327.384,221.904,327.384L221.904,327.384z M83.88,326.88
		c-0.36,0-0.72,0-1.152-0.072c0.072-0.4319,0.144-0.936,0.288-1.4399c1.296-2.0161,2.592-4.032,3.888-6.048
		c1.872-4.032,1.872-4.032,3.312-6.192c0.648-0.432,3.744-0.864,4.752-1.368c1.584-0.288,3.168-0.576,4.752-0.936
		c2.088,0,4.176,0,6.264,0c0.216,0.072,0.432,0.216,0.72,0.36c-0.576,1.512-1.152,3.024-1.8,4.536
		c-2.88,5.328-3.888,6.4799-5.184,8.784c-1.224,0.144-2.52,0.288-3.816,0.432c-0.648,0.216-1.296,0.432-1.944,0.72
		c-1.08,0-2.16,0-3.312,0C89.208,326.16,89.208,326.16,83.88,326.88L83.88,326.88z M314.28,326.16
		c-0.792-0.072-1.584-0.216-2.376-0.36c0-0.216,0-0.432,0.072-0.72c2.304-0.864,2.304-0.864,4.968-1.44
		c-0.36,1.728-0.36,1.728-0.72,2.304C315.576,326.016,314.928,326.088,314.28,326.16L314.28,326.16z M319.32,325.8
		c0.36-1.872,0.36-1.872,0.864-2.88c0.432-0.288,0.864-0.576,1.296-0.864c0.72,0,1.44,0,2.16-0.072
		c-0.072,0.36-0.216,0.792-0.36,1.224c-0.504,0.72-1.008,1.44-1.584,2.16C320.904,325.512,320.112,325.656,319.32,325.8
		L319.32,325.8z M325.584,324.648c0-0.288,0-0.648,0.072-1.008c0.288-0.36,0.576-0.72,0.864-1.08c0.216,0,0.432,0,0.72-0.072
		c0,0.4319-0.0721,0.936-0.144,1.44C326.592,324.144,326.088,324.36,325.584,324.648L325.584,324.648z M300.384,324
		c-1.656-0.072-3.312-0.144-5.0399-0.216c-0.072-0.072-0.144-0.216-0.216-0.36c1.44-0.648,1.44-0.648,7.416-1.8
		c0.864,0,1.728-0.072,2.664-0.144c-0.864,2.16-0.864,2.16-1.224,2.52C302.832,324,301.608,324,300.384,324L300.384,324z
		 M105.264,323.784c-0.504,0-1.08-0.072-1.656-0.144c0-0.504,0-1.08,0.072-1.656c1.944-3.6,3.816-8.136,5.256-10.8
		c2.592-0.36,2.592-0.36,3.024-0.648c4.68,0,9.432,0,14.184-0.072c-0.072,0.432-0.216,0.936-0.36,1.44
		c-1.008,1.224-1.944,3.096-2.448,3.6c-0.432,1.224-0.936,1.656-2.88,5.04c-0.072,0.432-0.144,0.864-0.288,1.296
		c-6.264,0.504-6.768,0.72-8.424,0.72c-0.216-0.216-0.432-0.432-0.72-0.72c-1.656,0-1.656,0-2.088,0.36
		c-0.144,0.2881-0.288,0.648-0.432,1.0081c-0.432,0.144-0.864,0.36-1.296,0.576C106.56,323.784,105.912,323.784,105.264,323.784
		L105.264,323.784z M307.08,323.928c0.072-0.432,0.216-0.936,0.36-1.44c0.432-0.648,0.936-1.2961,1.44-1.944
		c4.68-1.368,7.848-1.8,10.728-2.808c0.288,0,0.576,0,0.936,0c0.936,1.224,0.936,1.224,1.44,1.44
		c-0.504,0.504-0.504,0.504-3.096,1.44C315,321.696,311.04,322.776,307.08,323.928L307.08,323.928z M123.48,321.624
		c-0.072-0.36-0.216-0.72-0.36-1.08c0.648-1.44,1.296-2.88,1.944-4.32c2.88-3.816,2.88-3.816,3.816-5.544
		c0.288-0.072,0.576-0.216,0.864-0.36c4.536-0.072,9.072-0.144,13.68-0.216c0.072,0.288,0.216,0.576,0.36,0.864
		c-3.888,6.696-4.824,8.856-5.616,9.648c-4.608-0.216-4.608-0.216-7.4879,0C125.208,321.624,125.208,321.624,123.48,321.624
		L123.48,321.624z M163.8,320.904c-0.576-0.072-1.224-0.216-1.872-0.36c0.288-2.16,0.288-2.16,0.792-3.6
		c0.504-0.504,1.44-2.88,3.816-6.696c1.584-0.432,1.584-0.432,7.128-0.648c2.232,0.072,4.464,0.216,6.696,0.36
		c-1.8,3.888-1.8,3.888-4.104,7.488c-0.936-0.432-0.936-0.432-4.248-0.648c-2.664,1.944-2.664,1.944-6.48,4.104
		C164.952,320.904,164.376,320.904,163.8,320.904L163.8,320.904z M141.48,320.76c0.072-0.504,0.216-1.08,0.36-1.656
		c1.224-2.232,2.52-4.464,3.816-6.696c0.36-0.288,0.792-0.648,1.224-1.008c0.288-0.504,0.576-1.008,0.864-1.584
		c11.736,0.288,11.736,0.288,16.056,0.144c-1.224,2.736-2.448,5.472-3.744,8.208c-0.432,0.72-0.936,1.44-1.44,2.16
		c-2.448,0-4.968-0.072-7.488-0.144C147.96,320.328,144.72,320.544,141.48,320.76L141.48,320.76z M194.328,320.4
		c-2.5919-0.072-5.256-0.144-7.92-0.216c-1.8-0.216-3.672-0.432-5.544-0.72c-0.72-0.288-1.44-0.576-2.16-0.864
		c0.216-0.936,0.504-1.872,0.792-2.88c1.944-2.88,1.944-2.88,3.384-4.536c0.0721-0.432,0.216-0.936,0.36-1.44
		c5.76,0.072,11.592,0.144,17.424,0.216c0,0.216,0,0.432,0,0.72c-1.584,3.096-3.168,6.192-4.824,9.36
		C195.336,320.112,194.832,320.256,194.328,320.4L194.328,320.4z M201.528,320.4c-0.864-0.072-1.728-0.216-2.664-0.36
		c0-0.36,0-0.72,0.072-1.152c0.936-2.088,1.872-4.176,2.88-6.264c1.08-1.44,2.448-2.376,2.88-3.096
		c0.504-0.144,1.008-0.288,1.584-0.432c2.304,0,4.608,0,6.984,0c0.936,0.144,1.872,0.288,2.88,0.432c0,0.792,0,1.584,0.072,2.376
		c-1.872,4.104-1.872,4.104-4.176,7.776C207.288,320.184,207.288,320.184,201.528,320.4L201.528,320.4z M215.424,319.896
		c0-0.216-0.072-0.504-0.144-0.792c0.288-0.864,0.576-1.728,0.936-2.664c1.224-2.232,2.448-4.536,3.744-6.84
		c0.288,0,0.576,0.072,0.864,0.144c0,1.008,0,2.016,0,3.096c-0.432,2.304-0.936,4.608-1.44,6.984
		C218.088,319.824,216.792,319.824,215.424,319.896L215.424,319.896z M322.488,319.32c0.216-0.576,0.504-1.224,0.792-1.872
		c0.576-0.432,1.152-0.864,1.8-1.368c0.72-0.072,1.44-0.216,2.16-0.36c-0.0721,0.648-0.216,1.296-0.36,1.944
		c-0.288,0.36-0.576,0.792-0.936,1.224C325.08,319.176,325.08,319.176,322.488,319.32L322.488,319.32z M330.408,317.016
		c0-0.216-0.072-0.504-0.144-0.792c0.432-1.08,0.936-2.232,1.44-3.384c0.576-0.144,1.152-0.36,1.8-0.576c1.944,0,3.9601,0,5.976,0
		c0.288,0.072,0.648,0.216,1.008,0.36c-0.72,0.504-1.44,1.008-2.16,1.512c-1.944,0-1.944,0-3.6,0.504
		c-0.288,0.432-0.648,0.936-1.008,1.44C331.128,317.016,331.128,317.016,330.408,317.016L330.408,317.016z M75.744,312.624
		c0-0.216,0-0.432,0.072-0.72c1.224-0.936,2.16-2.16,9.288-8.568c0.72,0,1.656,0.504,5.76,1.008c4.32,0,5.76-0.288,11.52-0.288
		c0.216,0.072,0.432,0.144,0.72,0.288c4.032-0.144,8.136-0.288,12.24-0.504c10.44,0.288,20.952,0.576,31.464,0.936
		c15.336-0.216,16.056,0,23.04,0c1.872-0.216,1.872-0.216,10.08,0.288c0.72-0.144,1.44-0.288,2.16-0.504
		c3.96,0.072,7.92,0.144,11.952,0.216c4.032-0.144,8.136-0.288,12.24-0.432c2.952-0.432,5.904-0.936,8.928-1.44
		c0.864-0.288,1.728-0.648,2.592-1.008c1.368-0.216,2.736-0.432,4.104-0.72c0,0.576,0,1.224,0.072,1.872
		c-0.216,1.296-0.504,2.592-0.792,3.888c-1.224,0.288-15.336,0.288-21.6,0.72c-32.904,0-44.136,0.288-52.056,0
		c-23.76,0.72-24.48,0.504-36,0.72c-1.44,0.288-1.44,0.288-9.36,0c-1.728,0.216-3.528,0.432-5.328,0.72
		c-1.08,0.288-2.16,0.648-3.312,1.008C81.72,311.976,79.56,311.976,75.744,312.624L75.744,312.624z M147.024,298.296
		c-5.544-0.432-5.544-0.432-13.176-0.432c-0.432-0.36-0.936-0.792-1.44-1.224c-2.16-0.936-2.664-1.44-5.544-2.376
		c-0.648-0.2881-1.296-0.648-1.944-1.008c-0.792-0.72-1.584-1.44-2.376-2.16c-0.432-0.648-0.864-1.296-1.368-2.016
		c-0.144-0.72-0.288-1.44-0.432-2.16c0.072-2.592,0.144-5.256,0.216-7.92c3.816-5.04,3.816-5.04,4.536-5.472
		c8.64-8.928,13.248-13.248,15.12-15.408c0.648-1.008,1.296-2.016,1.944-3.096c11.736-14.184,13.68-16.056,17.496-21.096
		c0.36-0.288,0.792-0.648,1.224-1.008c0.936-1.44,1.872-2.88,2.88-4.32c1.224-0.936,3.456-3.816,9.864-10.8
		c0.216-0.144,0.432-0.288,0.72-0.432c1.224-1.8,2.52-3.6721,3.816-5.544c0.72-0.648,1.44-1.2961,2.16-1.944
		c1.944-2.664,3.96-5.4,5.976-8.136c0.72-0.648,1.44-1.296,2.16-1.944c0.648-0.936,1.296-1.872,1.944-2.88
		c0.72-0.576,1.44-1.224,2.16-1.872c0.936-1.44,0.936-1.44,5.04-5.544c0.288-0.648,0.576-1.296,0.936-1.944
		c0.72-0.576,1.44-1.224,2.16-1.872c1.08-1.728,2.232-3.528,3.384-5.328c0.936-1.08,1.872-2.16,2.88-3.312
		c0.648-1.152,1.296-2.376,1.944-3.6c0.72-0.504,0.72-0.504,1.656-1.728c0.288-0.72,0.576-1.44,0.936-2.16
		c0.36-0.288,0.792-0.576,1.224-0.936c1.224-1.8,2.52-3.672,3.816-5.544c1.584-1.584,3.168-3.168,4.824-4.752
		c0.936-1.728,0.936-1.728,1.944-2.88c0.936-2.448,0.936-2.448,2.52-5.328c0.36-0.36,0.72-0.72,1.08-1.152
		c1.08-2.016,2.16-4.032,3.312-6.048c1.008-0.936,1.008-0.936,4.32-6.192c0.648-1.8,1.296-3.672,1.944-5.544
		c0.648-1.224,1.296-2.52,1.944-3.816c0.144-0.648,0.288-1.296,0.432-1.944c0.648-1.152,1.296-2.376,1.944-3.6
		c5.76-14.184,5.76-14.184,6.12-15.624c0.216,0,0.432,0,0.72,0c-0.36,6.048-1.296,12.528-2.016,24.768
		c-0.288,0.936-0.288,5.976-2.16,25.92c-1.584,12.456-3.168,24.912-4.824,37.44c-0.648,7.2-1.296,14.4-1.944,21.6
		c-1.44,10.08-1.44,10.08-3.312,29.232c-2.088,15.192-4.176,30.384-6.264,45.648c-0.936,2.376-0.936,2.376-1.944,3.816
		c-0.504,0.432-1.008,0.864-1.512,1.296c-2.664,0.504-2.664,0.504-8.64,0.936c-19.656,0-19.656,0-41.256,0.504
		c-3.456,0.216-6.912,0.432-10.368,0.72C158.256,298.152,152.64,298.224,147.024,298.296L147.024,298.296z M114.624,298.08
		c-3.24-0.216-6.552-0.504-9.864-0.792c0.072-0.36,0.216-0.792,0.36-1.224c0.864-0.792,1.728-1.584,2.664-2.376
		c0.144-0.432,0.288-0.936,0.432-1.44c1.296-1.512,2.592-3.024,3.888-4.608c1.44-1.224,2.88-2.52,4.32-3.816
		c0.432-0.144,0.864-0.288,1.296-0.504c0.144,2.016,0.36,4.032,0.576,6.048c0.936,1.4399,1.872,2.8799,2.88,4.3199
		c1.44,1.08,2.88,2.16,4.32,3.312c-0.072,0.36-0.072,0.36-1.728,0.864C120.744,297.936,117.72,298.008,114.624,298.08
		L114.624,298.08z M98.28,297.864c-4.032-0.504-4.032-0.504-9.576-0.576c0.36-1.728,0.36-1.728,1.296-3.6
		c2.88-4.3199,4.824-6.4799,11.52-16.344c0.936-1.944,1.872-3.96,2.88-5.976c1.944-2.664,1.944-2.664,7.704-12.2401
		c0.576-1.368,1.224-2.736,1.872-4.104c2.16-2.88,4.104-6.48,6.984-11.016c0.288-0.792,0.576-1.584,0.936-2.448
		c1.944-2.88,5.76-10.08,8.928-15.336c0.72-0.504,0.72-0.504,3.6-5.04c0.432-1.224,1.44-2.376,3.816-6.984
		c0.504-0.432,0.504-0.432,0.6479-1.44c0.2881-0.0721,0.576-0.216,0.936-0.36c13.32-21.672,13.32-21.672,13.752-22.896
		c0.792-0.936,1.584-1.872,2.448-2.88c0.144-0.36,0.288-0.792,0.432-1.224c5.76-7.92,5.76-7.92,6.264-9.072
		c1.584-1.872,3.168-3.816,4.824-5.76c0.144-0.36,0.288-0.792,0.432-1.224c1.872-2.592,3.816-5.256,5.76-7.92
		c1.944-3.6,3.888-6.264,5.76-9.576c3.888-5.328,5.76-8.424,6.768-9.36c0.576-1.2961,1.224-2.592,1.872-3.888
		c2.88-4.032,2.88-4.032,4.824-7.632c2.88-4.68,5.76-9.4319,8.64-14.184c1.08-2.52,2.232-5.112,3.384-7.704
		c0.936-1.296,1.872-2.664,2.88-4.032c0.936-2.16,0.936-2.16,1.872-3.168c4.32-7.2,4.32-7.2,9.144-14.112
		c2.376-4.968,4.752-9.936,7.2-14.904c2.52-3.8881,5.112-7.776,7.704-11.736c1.224-2.5201,2.52-5.112,3.816-7.7041
		c1.08-1.7999,2.232-3.6719,3.384-5.5439c0.432-1.44,0.432-1.44,2.376-5.04c0.288-0.36,0.576-0.7199,0.936-1.1519
		c0.288-0.864,0.648-1.728,1.008-2.664c1.872-3.528,3.816-7.056,5.76-10.584c0.576-1.6559,1.224-3.312,1.872-5.04
		c0.792-1.584,1.584-3.168,2.448-4.752c0.432-0.072,0.864-0.144,1.2961-0.288c-0.2881,2.52-0.576,5.112-0.864,7.704
		c-0.144,4.68-0.288,9.432-0.432,14.184c-1.008,8.856-1.008,8.856-1.944,13.896c-2.376,26.136-2.88,28.5839-3.384,34.056
		c-0.36,1.728-0.72,3.528-1.152,5.328c-1.944,4.752-1.944,4.752-5.76,16.0561c-1.44,3.312-2.88,6.696-4.32,10.08
		c-0.216,0.144-0.432,0.288-0.72,0.504c-1.584,4.68-3.168,9.36-4.824,14.112c-3.816,6.048-5.76,8.64-8.64,13.68
		c-1.944,2.88-3.816,6.264-6.264,9.864c-0.504,0.216-1.008,0.504-1.512,0.792c-5.76,7.704-5.76,7.704-7.416,9.36
		c-1.944,3.384-3.3839,5.04-5.184,8.0641c-0.648,0.72-1.296,1.44-1.944,2.16c-0.288,0.648-0.576,1.296-0.936,1.944
		c-2.52,3.24-5.112,6.552-7.7039,9.864c-1.224,0.936-1.224,0.936-12.24,13.68c-0.288,0.576-0.576,1.224-0.936,1.872
		c-1.728,1.872-3.528,3.816-5.3279,5.76c-0.2881,0.648-0.576,1.296-0.936,1.944c-1.2961,1.584-2.592,3.168-3.96,4.824
		c-3.24,3.384-6.48,6.84-9.72,10.296c-0.288,0.648-0.576,1.296-0.936,1.944c-1.008,1.08-2.088,2.16-3.168,3.312
		c-0.576,0.936-1.224,1.872-1.872,2.88c-1.296,1.368-2.592,2.736-3.888,4.104c-3.6,4.392-7.2,8.784-10.8,13.176
		c-0.576,0.432-1.224,0.936-1.872,1.44c-1.2961,1.8-2.592,3.672-3.888,5.544c-2.952,3.168-5.904,6.336-8.856,9.576
		c-1.44,1.008-1.44,1.008-3.384,3.168c-1.872,2.592-1.872,2.592-7.776,9.072c-0.792,0.648-1.656,1.296-2.52,1.944
		c-3.528,3.888-7.056,7.776-10.584,11.736c-0.432,1.008-0.432,1.008-0.936,1.44C99.504,297.72,98.928,297.792,98.28,297.864
		L98.28,297.864z M234.648,295.92c-0.144-0.936-0.288-1.944-0.432-2.952c0.576-6.408,1.152-12.816,1.728-19.224
		c0.72-5.688,1.44-11.376,2.16-17.064c0-1.08,0-2.16,0-3.312c0.936-4.608,0.936-4.608,1.44-9.648
		c0.144-3.024,0.288-6.048,0.432-9.072c1.44-11.808,1.44-11.808,1.728-12.528c0.216-9.36,0.216-9.36,0.72-16.056
		c0.432-1.44,0.432-4.536,2.376-18.72c0-2.88,0.936-9.144,2.376-25.416c0.144-0.36,0.288-0.792,0.504-1.224
		c1.44-15.84,2.376-22.824,2.88-30.2401c0.432-3.24,0.936-6.552,1.44-9.864c0-1.224,0-2.52,0-3.816
		c1.224-9.144,1.656-15.12,3.096-25.704c0.504-1.6561,0.504-1.6561,3.168-21.0961c0.432-11.3039,0.432-11.3039,1.152-18.2159
		c0.288-1.296,0.648-2.592,1.008-3.888c0.504-5.04,1.08-10.08,1.656-15.12c0.072-2.6641,0.216-5.4,0.36-8.136
		c0.216,0,0.432,0,0.72,0c0.576,4.032,1.152,8.136,1.8,12.24c0.144,6.624,0.288,13.2479,0.504,19.944
		C266.4,66.6,266.4,66.6,266.904,69.48c0.432,9.6481,0.432,9.6481,0.432,15.624c0.288,4.8241,0.648,9.7201,1.008,14.6161
		c0.432,31.248,0.432,31.248,0.936,46.584c-0.216,8.928-0.432,17.856-0.72,26.856c-0.936,6.768-1.44,13.464-2.376,20.664
		c-1.944,7.416-1.944,7.416-3.888,17.064c-0.432,3.6-0.432,3.6-5.256,27.36c-0.72,1.944-1.44,3.9601-2.16,5.976
		c-0.288,1.8-0.576,3.672-0.936,5.544c-0.576,1.584-1.152,3.168-1.728,4.752c-0.144,0.936-0.288,1.872-0.432,2.88
		c-10.584,25.488-10.584,25.488-11.088,26.208c-0.288,1.008-0.576,2.016-0.936,3.096c-1.224,2.664-2.52,5.4-3.816,8.136
		C234.864,296.064,234.864,296.064,234.648,295.92L234.648,295.92z"/>
</g>
</svg>
