<?xml version="1.0" encoding="utf-8"?>
<!-- Generator: Adobe Illustrator 21.1.0, SVG Export Plug-In . SVG Version: 6.00 Build 0)  -->
<svg version="1.1" id="Full" xmlns="http://www.w3.org/2000/svg" xmlns:xlink="http://www.w3.org/1999/xlink" x="0px" y="0px"
	 viewBox="0 0 447.264 584.64" enable-background="new 0 0 447.264 584.64" xml:space="preserve">
<g>
	<path fill-rule="evenodd" clip-rule="evenodd" d="M159.984,584.64c-2.664-0.432-2.664-0.432-6.696-0.432
		c-0.792-0.288-1.584-0.648-2.448-1.0081c-3.888-0.144-7.776-0.288-11.736-0.432c-0.648-0.1439-1.296-0.288-1.944-0.504
		c-10.512-0.72-10.512-0.72-16.56-0.72c-0.864,0.144-1.728,0.2881-2.592,0.504c-4.752-0.144-9.576-0.288-14.4-0.504
		c-3.24,0.2161-6.552,0.432-9.864,0.72c-1.944-0.072-3.96-0.144-5.976-0.216c-0.648-0.144-1.296-0.288-1.944-0.504
		c-1.512,0-3.024,0-4.536,0c-1.728-0.504-1.728-0.504-6.264-0.936c-1.08,0-2.232,0-3.384,0c-6.912-1.44-6.912-1.44-7.344-1.8
		c-0.144-0.432-0.288-0.936-0.432-1.44c-4.176-0.144-4.176-0.144-13.824,0.36c-1.08,0.216-2.16,0.4321-3.312,0.72
		c-15.84,0.2159-15.84,0.2159-31.68,0c-7.92,0.432-7.92,0.432-14.688,0.432c-0.072-0.072-0.216-0.144-0.36-0.288
		c0.072-0.36,0.144-0.792,0.216-1.224c0.864-0.504,0.864-0.504,2.088-0.648c1.44,0.072,2.88,0.144,4.32,0.288
		C7.128,576.72,7.704,576.36,8.28,576c0.864,0.072,1.728,0.144,2.664,0.288c0.648-0.432,1.296-0.864,1.944-1.368
		c-1.224-0.792-1.224-0.792-2.088-1.872c0.072-0.864,0.144-1.728,0.216-2.664c0.648-0.72,1.296-1.44,1.944-2.16
		c2.016-1.656,4.032-3.312,6.12-5.04c5.328-2.736,5.328-2.736,5.76-3.24c4.824-1.944,4.824-1.944,10.8-3.816
		c1.368-0.7921,2.736-1.584,4.104-2.448c0.72-0.144,1.44-0.288,2.16-0.432c0.504-0.504,0.504-0.504,4.104-2.448
		c2.376-0.432,4.752-0.936,7.2-1.44c1.584-0.576,3.168-1.224,4.752-1.872c0.864-0.648,1.728-1.296,2.664-1.944
		c0.72-0.288,1.44-0.576,2.16-0.936c0.36-0.432,0.792-0.864,1.224-1.368c1.008-3.168,2.088-6.336,3.168-9.576
		c0.144-1.008,0.288-2.0161,0.504-3.096c1.584-4.104,3.168-8.28,4.824-12.456c0.432-2.088,0.936-4.176,1.44-6.264
		c0.936-1.944,2.16-6.696,3.096-8.64c0.936-3.384,1.44-4.32,1.944-6.984c0.936-2.16,2.88-9.792,4.752-14.616
		c1.944-6.48,2.88-8.64,9.144-27.576c0.504-0.72,0.504-0.72,4.824-14.688c0.144-1.008,0.288-2.016,0.432-3.096
		c0.432-0.864,0.936-1.728,1.44-2.664c0.504-2.592,1.008-3.312,3.6-12.456c0.288-0.216,4.104-11.016,6.048-15.12
		c1.872-5.04,3.816-10.08,5.76-15.12c0.576-2.448,1.224-4.896,1.872-7.416c3.888-10.584,5.76-16.56,6.768-19.008
		c0.144-0.792,0.288-1.584,0.432-2.376c0.936-2.376,1.872-4.752,2.88-7.2c0.288-0.432,0.648-0.936,1.008-1.44
		c0.936-4.104,0.936-4.104,2.16-7.92c0-1.6559,0-1.6559,0.432-2.8799c0.288-0.216,2.16-5.976,3.168-8.136
		c0.432-1.944,0.432-1.944,6.192-16.56c0.576-0.792,1.152-1.584,1.728-2.448c0.432-2.376,0.72-2.592,1.152-4.536
		c0.792-1.728,1.584-3.456,2.448-5.256c0.144-0.864,0.288-1.728,0.432-2.664c0.288-0.648,0.648-1.2961,1.008-1.944
		c4.752-14.832,4.752-14.832,5.76-16.992c3.312-11.808,3.6-12.024,4.032-14.4c3.888-11.52,4.824-13.464,5.04-14.688
		c1.008-2.376,1.008-2.376,1.44-2.88c0.432-1.656,0.936-3.312,1.44-5.04c0.288-0.576,0.648-1.224,1.008-1.872
		c1.872-6.768,1.872-6.768,2.376-7.704c0.072-0.936,0.144-1.872,0.216-2.8799c0.864-1.944,1.728-3.9601,2.664-5.976
		c0.288-1.368,0.576-2.736,0.936-4.104c3.888-10.8,3.888-10.8,6.048-15.624c0.144-0.792,0.288-1.584,0.432-2.376
		c0.288-0.504,0.648-1.08,1.008-1.656c1.872-6.048,1.872-6.048,5.76-16.128c0.288-0.432,0.576-0.936,0.936-1.44
		c0.288-1.296,0.576-2.664,0.936-4.032c0.432-1.008,0.936-2.088,1.44-3.168c0.504-2.376,1.008-3.312,1.944-6.696
		c0.936-1.6559,1.44-3.816,3.384-7.416c0.936-4.104,2.88-9.864,4.752-16.56c0.144-1.008,0.288-2.0881,0.504-3.168
		c3.816-9.576,5.76-13.68,6.696-16.776c0.504-0.72,1.44-4.32,9.144-23.544c0.936-3.6001,1.944-5.76,5.76-16.992
		c0.864-1.7281,1.728-3.528,2.664-5.328c3.816-11.736,3.816-11.736,6.696-19.6561c0.36-0.5039,0.792-1.08,1.224-1.6559
		c2.376-8.424,2.88-9.144,3.312-10.584c0.504-0.72,2.16-6.696,2.448-6.984c0.144-0.576,0.288-1.2241,0.432-1.872
		c0.432-0.576,0.936-1.152,1.44-1.728c1.584-5.7599,3.168-11.52,4.824-17.28c0.648-1.728,1.296-3.456,1.944-5.256
		c3.816-7.2,3.816-7.2,5.04-8.856c0.216-1.728,0.432-1.944,0.432-2.88c-0.72-0.432-1.44-0.936-2.16-1.44
		c-0.432-1.008-0.432-1.008-0.432-2.448c0.576-0.648,1.152-1.296,1.8-2.0161c1.44-0.5039,1.44-0.5039,5.76-1.0079
		c2.88,0,5.76,0,8.64,0c0.648,0.144,1.296,0.288,1.944,0.504c0.288,0.36,0.576,0.792,0.936,1.224c0,0.6479,0,1.296,0.072,2.016
		c-0.144,0.288-0.288,0.6479-0.432,1.0079c0.36,2.6641,0.72,5.4,1.152,8.136c2.52,6.8401,5.112,13.7521,7.704,20.6641
		c1.944,7.2,1.944,7.2,2.376,7.632c1.296,3.816,2.592,7.632,3.888,11.52c1.224,3.0961,2.52,6.1921,3.816,9.36
		c8.136,27.36,10.08,32.9041,11.016,36.72c1.944,5.76,1.944,5.76,2.88,7.488c1.944,7.416,3.888,13.392,5.7599,20.592
		c1.008,2.664,1.008,2.664,1.44,5.04c0.648,1.512,1.2961,3.024,1.944,4.608c1.944,6.912,3.816,11.952,6.264,21.096
		c6.192,18.72,6.192,18.72,6.696,21.096c0.648,1.512,1.296,3.024,1.944,4.608c0.576,2.376,1.224,4.752,1.872,7.2
		c1.296,3.6,2.592,7.2,3.888,10.8c0.288,1.512,0.576,3.024,0.936,4.536c1.584,4.752,3.168,9.576,4.824,14.4
		c0.288,1.44,0.576,2.88,0.936,4.32c2.088,6.12,4.176,12.312,6.264,18.504c0.144,0.864,0.288,1.728,0.432,2.592
		c0.288,0.576,0.648,1.152,1.008,1.728c2.232,6.552,4.464,13.104,6.696,19.656c0.936,2.232,1.872,4.464,2.88,6.696
		c1.656,5.544,3.096,9.36,4.104,13.248c0.288,0.576,0.576,1.224,0.936,1.872c0.072,0.72,0.144,1.44,0.216,2.16
		c1.008,1.224,1.008,1.224,1.944,3.384c0.504,1.944,0.504,1.944,2.376,6.48c1.08,4.032,2.232,8.136,3.384,12.24
		c0.936,2.376,1.872,4.752,2.88,7.2c0.288,1.152,0.576,2.376,0.936,3.6c0.144,0.144,0.288,0.288,0.504,0.504
		c0.288,1.224,0.576,2.52,0.936,3.816c1.008,1.944,1.944,5.256,2.88,7.416c0.216,1.152,0.432,2.376,0.72,3.6
		c1.008,1.944,1.008,1.944,2.88,7.2c0.648,1.08,1.296,2.232,1.944,3.384c0.936,3.6,0.936,3.6,2.376,7.2
		c0.288,0.216,1.224,3.816,6.048,17.784c0.144,0.864,0.288,1.728,0.432,2.592c1.584,4.968,3.168,9.936,4.824,14.904
		c0.072,0.648,0.144,1.296,0.216,1.944c0.288,0.576,0.648,1.224,1.008,1.872c2.376,10.368,4.3199,16.848,9.072,35.784
		c0.504,0.72,1.44,5.04,1.944,5.976c3.384,13.464,3.384,13.464,4.824,18.288c0.576,3.024,1.224,6.048,1.872,9.072
		c1.152,4.248,2.376,8.496,3.6,12.744c1.008,4.536,2.088,9.072,3.168,13.68c0.432,1.008,0.936,2.016,1.44,3.096
		c0.144,0.864,0.288,1.728,0.432,2.664c0.936,2.448,1.872,4.896,2.88,7.416c0.216,1.296,0.432,2.592,0.72,3.888
		c1.8719,5.472,3.744,10.944,5.688,16.488c2.664,0.144,8.424-0.36,15.12-0.36c0.2161,0.144,0.4321,0.288,0.72,0.504
		c0,0.432,0,0.864,0.072,1.368c-0.432,0.432-2.736,0.792-4.896,1.728c-2.4481,2.232-4.8961,4.536-7.416,6.84
		c0,0.36-0.072,0.7921-0.144,1.224c0.288,0.864,0.576,1.8,0.8639,2.736c3.3841-0.72,3.3841-0.72,5.5441-1.656
		c0.576,0,1.224,0,1.872,0c0.72,0.864,0.72,0.864,0.864,1.8c-0.288,0.864-0.6481,1.728-1.008,2.6641
		c-1.872,2.16-3.24,3.0959-7.2,7.2c-8.856,7.704-8.856,7.704-13.392,12.024c-1.944,2.376-1.944,2.376-8.424,8.856
		c-1.944,2.88-1.944,2.88-3.816,6.264c0,0.2159,0.072,0.504,0.144,0.792c5.256,0.216,5.256,0.216,7.92,0.72c3.816,0,7.632,0,11.52,0
		c3.816-0.504,11.0161-0.936,11.736-1.224c1.512,0,3.024,0,4.536,0c0.6479,0.36,1.296,0.72,1.944,1.08
		c-0.144,0.216-0.288,0.4319-0.504,0.648c-4.752,0-16.056,0.936-27.36,1.4399c-1.656-0.2159-3.312-0.4319-5.04-0.72
		c-2.232,0.072-4.464,0.144-6.696,0.216c-6.264,0.936-6.264,0.936-13.464,1.656c-4.32-0.864-8.64-1.728-12.96-2.592
		c-1.152,0-2.376,0-3.6,0c-4.32,0.936-4.32,0.936-8.136,1.4399c-0.432,0.2161-0.936,0.432-1.44,0.72
		c-10.296,1.872-10.296,1.872-14.4001,2.376c-10.8,0.2159-10.8,0.2159-12.744,0c-1.872,0.504-1.872,0.504-4.536,0.504
		c-1.368-0.36-2.736-0.7921-4.1039-1.224c-4.4641-0.072-8.928-0.144-13.392-0.216c-2.52-0.2159-5.112-0.432-7.704-0.72
		c-6.12,0.072-12.312,0.144-18.504,0.2159c-1.872,0.2881-3.816,0.576-5.76,0.936c-2.736,0.144-5.544,0.288-8.352,0.504
		c-1.08,0.288-2.232,0.576-3.384,0.936c-6.264,0-6.264,0-6.696,0.288c-0.792,0.1439-1.584,0.288-2.448,0.432
		c-4.824,0-9.72,0-14.616,0c-0.504-0.2881-1.08-0.576-1.656-0.936c-1.584-0.288-3.168-0.576-4.824-0.936
		c-0.36-0.288-0.792-0.5759-1.224-0.864c-1.512,0-3.024-0.072-4.536-0.144c-1.728,0.144-3.456,0.288-5.256,0.504
		c-1.296-0.144-2.592-0.288-3.888-0.504c-1.224,0.072-2.52,0.144-3.816,0.288c-2.088-0.144-4.176-0.288-6.264-0.504
		c-12.2401,0.2161-12.2401,0.2161-15.336,0c-1.8,0.36-3.672,0.792-5.544,1.224c-6.48,0.432-12.456,0.432-16.272,0.72
		c-1.224-0.288-1.224-0.288-10.8-0.288C162.144,584.208,160.92,584.64,159.984,584.64L159.984,584.64z M258.84,583.2
		c-0.216-0.2159-0.216-0.2159-6.48-0.2159c-2.376-0.936-6.192-1.944-7.632-2.6641c-5.04,0.288-6.984,0-9.36,0.288
		c-3.384,0-4.104-0.288-9.864-0.288c-0.864-0.144-1.728-0.288-2.664-0.432c-4.176,0.072-8.424,0.144-12.672,0.2161
		c-1.368-0.144-2.736-0.288-4.104-0.504c-3.6,0.504-3.6,0.504-4.824,1.008c-3.096,0.288-6.192,0.576-9.36,0.936
		c-12.24-0.2159-12.24-0.2159-20.16,0c-10.08,0.936-10.08,0.936-10.8,1.224c-7.92-0.72-7.92-0.72-9.792-1.224
		c-3.816-0.1439-7.632-0.288-11.52-0.504c-0.288-0.144-0.648-0.288-1.008-0.432c-3.816,0-3.816,0-9.576-0.72c-2.88,0-5.76,0-8.64,0
		c-0.864,0.144-1.728,0.288-2.664,0.432c-4.896-0.144-9.864-0.288-14.832-0.432c-1.8,0.144-3.672,0.288-5.544,0.432
		c-3.096-0.072-6.192-0.144-9.36-0.2159c-2.664-0.504-6.48-0.504-7.92-0.936c-6.696-0.504-6.696-0.504-12.96-1.296
		c-0.072-0.288-0.216-0.648-0.36-1.008c-0.648-0.432-1.368-0.936-2.088-1.4401c-4.032-0.1439-4.968,0.144-15.768,0.576
		c-0.648,0.144-1.296,0.288-1.944,0.504c-4.968,0.0719-9.936,0.1439-14.904,0.2159c-1.152-0.144-2.376-0.288-3.6-0.432
		c-8.352,0.2161-8.352,0.2161-9.576,0c-0.144-0.864,0.072-1.08,0.072-2.016c-0.216-0.288-0.504-0.576-0.792-0.864
		c-1.584-0.432-3.168-0.864-4.824-1.296c0-0.288-0.072-0.648-0.144-1.008c0.36-0.432,0.72-0.936,1.08-1.4401
		c1.512-1.2239,3.024-2.52,4.608-3.8159c2.52-1.5121,5.112-3.096,7.704-4.6801c2.88-1.0079,2.88-1.0079,6.912-1.944
		c1.872-0.864,3.816-1.728,5.76-2.664c9.288,0.432,18.576,0.936,27.864,1.44c24.264-0.216,30.024,0,34.56-0.216
		c3.384,0.216,3.384,0.216,15.624,0c2.52,0.144,5.04,0.288,7.632,0.504c3.024-0.072,6.048-0.144,9.144-0.288
		c20.664,0.72,20.664,0.72,22.104,1.0079c11.52,0,11.52,0,12.24-0.288c5.112-0.288,10.224-0.576,15.336-0.936
		c5.688,0,11.376,0,17.064,0c3.312-0.504,3.312-0.504,6.48-0.504c0.4319,0.288,8.856,0.288,11.736,0
		c4.32,0,11.016,0.504,12.744,0.288c5.112,0.072,10.224,0.144,15.336,0.216c0.36-0.144,0.792-0.288,1.224-0.504
		c28.512-0.432,58.536-0.432,59.04-0.72c4.752-0.216,10.512,0,12.96-0.216c1.08,0.072,2.16,0.144,3.312,0.216
		c3.096-0.288,6.192-0.576,9.36-0.936c3.672,0,7.344,0,11.088,0c2.304-0.144,4.608-0.2881,6.912-0.504
		c13.464,0,13.464,0,24.48-0.432c1.584-0.144,3.168-0.288,4.824-0.504c3.672,0,7.344,0,11.016,0
		c6.984-0.72,15.408-0.936,31.968-1.944c1.656-0.432,1.656-0.432,5.256-0.576c-0.072,0.2881-0.216,0.6481-0.36,1.0081
		c-4.32,4.032-10.08,10.296-14.184,14.112c-1.368,1.656-2.7361,3.312-4.104,5.04c-1.872,3.384-1.872,3.384-3.672,5.904
		c-9.864,1.44-9.864,1.44-12.024,1.44c-4.176-0.792-8.424-1.584-12.672-2.448c-5.04,0.288-5.04,0.288-10.8,1.224
		c-3.384,0.936-3.384,0.936-13.248,2.88c-3.744,0.288-7.488,0.576-11.232,0.936c-1.656-0.072-3.312-0.144-5.04-0.2161
		c-1.368,0.144-2.736,0.2881-4.104,0.504c-1.8-0.432-3.672-0.936-5.544-1.44c-8.64,0-9.072-0.288-14.4-0.288
		c-1.872-0.288-3.816-0.5759-5.7599-0.936c-6.192,0.216-6.192,0.216-10.08,0c-3.24,0.216-6.4799,0.432-9.792,0.72
		c-1.728,0.288-3.528,0.576-5.328,0.936c-2.304,0.144-4.608,0.288-6.912,0.504c-0.72,0.2161-1.44,0.432-2.16,0.72
		c-6.264,0.216-7.2,0.504-9.144,0.504c-0.504,0.144-1.08,0.288-1.656,0.432C263.88,583.2,261.36,583.2,258.84,583.2L258.84,583.2z
		 M156.384,554.904c-1.944-0.216-1.944-0.216-3.6-0.72c-27.144-0.2159-29.016-0.504-38.88-0.504
		c-20.88,0.504-26.856,0.288-29.016,0.504c-4.968-0.072-9.936-0.144-14.904-0.2159c-6.192-0.288-12.456-0.6481-18.72-1.0081
		c-0.432-0.144-0.936-0.288-1.44-0.432c-0.648,0-1.296,0.072-1.944,0.144c0-0.2161,0-0.432,0-0.72c3.24-0.36,6.552-0.72,9.864-1.152
		c8.856,0.288,8.856,0.288,42.696,0.504c17.856-0.1439,35.712-0.288,53.568-0.504c8.712-0.216,17.424-0.432,26.136-0.72
		c14.472-0.072,28.944-0.1439,43.416-0.2159c0.288,0.1439,0.648,0.288,1.008,0.504c10.296-0.504,16.272-0.504,27.072-1.224
		c13.68-0.504,13.68-0.504,17.064-0.936c6.48,0.2159,62.64,0.432,82.584,0.2159c5.184-0.2159,10.368-0.4319,15.552-0.72
		c1.728-0.216,3.528-0.432,5.328-0.72c0.144,0.144,0.288,0.288,0.432,0.504c1.224,0,1.44-0.288,21.6-0.72
		c1.44-0.288,2.88-0.6479,4.32-1.0079c0.288,0,0.648,0.072,1.008,0.144c0.144,0.144,0.288,0.36,0.432,0.576c0.288,0,0.648,0,1.008,0
		c0.216-0.288,0.432-0.576,0.72-0.936c3.6-0.504,14.616-0.936,15.552-1.2239c2.52-0.216,5.112-0.4321,7.704-0.72
		c0.144,0.144,0.288,0.288,0.504,0.504c0.36,0,0.72,0,1.1519,0c1.224-0.936,1.224-0.936,2.16-1.224c5.04-0.432,5.04-0.432,7.2-0.936
		c1.0801-0.432,2.2321-0.936,3.384-1.44c0.36,0,0.7921,0,1.2241-0.072c0,0.288-0.072,0.576-0.144,0.936
		c-2.016,1.944-4.032,3.888-6.12,5.832c-1.44-0.2159-1.44-0.2159-11.304,0.504c-2.376,0.504-2.376,0.504-11.9521,1.224
		c-0.36-0.072-0.792-0.144-1.224-0.288c-17.496,0.504-36.936,1.4399-38.16,1.728c-17.064,0.432-19.224,0.72-24.48,0.72
		c-2.88,0.288-5.76,0.5759-8.64,0.936c-5.04,0-21.816,0.936-33.84,1.224c-0.792-0.072-1.584-0.144-2.376-0.288
		c-42.768,0.72-42.768,0.72-50.4,0.504c-2.232,0.144-4.464,0.288-6.768,0.504c-14.616-0.288-16.776,0-59.472-0.504
		c-1.296,0.144-2.592,0.288-3.888,0.504C173.376,554.256,164.88,554.5439,156.384,554.904L156.384,554.904z M68.04,549.6479
		c-2.376-0.288-2.376-0.288-8.64-0.36c0.072-0.288,0.216-0.5759,0.36-0.936c1.08-0.576,2.16-1.224,3.24-1.872
		c2.016-0.072,4.032-0.144,6.048-0.288c0,0.72,0,1.4399,0.072,2.16c0.504,0.72,0.504,0.72,0.36,1.008
		C69.048,549.432,68.544,549.504,68.04,549.6479L68.04,549.6479z M71.424,549.6479c-0.288-0.1439-0.288-0.1439-0.36-0.864
		c0.36-1.008,0.72-2.0161,1.08-3.096c3.96-0.432,7.992-0.936,12.024-1.44c-0.432,1.44-0.864,1.944-0.864,2.664
		c0.36,0.288,0.36,0.288,1.584,0.288c0.936-1.296,0.936-1.296,2.88-2.8799c3.456,0,6.984,0,10.512-0.072
		c-0.36,2.16-0.36,2.16-0.144,3.096c0.432,0,0.864,0.072,1.368,0.144c0.504-0.648,0.504-0.648,1.224-3.456
		c18-0.864,18-0.864,26.856-0.864c0.072,0.864-0.648,3.24-0.648,4.464c0.432,0.288,0.432,0.288,1.584,0.288
		c0.288-0.288,0.576-0.648,0.864-1.008c0.288-1.368,0.576-2.736,0.936-4.104c3.24-0.432,6.48-0.864,9.72-1.368
		c5.832-0.144,11.664-0.288,17.568-0.432c4.032-0.504,4.032-0.504,12.96-1.008c3.456,0,6.912,0.072,10.368,0.144
		c-0.072,0.576-0.144,1.152-0.216,1.728c-0.864,0.576-1.728,1.2239-2.6639,1.872c0,1.152,0.072,2.376,0.144,3.6
		c0.288,0,0.648,0.072,1.008,0.144c0.288-0.144,0.576-0.288,0.936-0.504c1.656-0.144,3.312-0.2881,5.04-0.504
		c1.224,0.504,1.224,0.504,2.376,0.504c0.576-1.224,1.152-2.4481,1.8-3.672c0-0.288,0-0.648-0.072-1.0081c-2.088,0-4.176,0-6.264,0
		c0-0.4319,0-0.936,0.072-1.4399c0.216-0.36,0.432-0.7921,0.648-1.224c8.424,0.144,8.424,0.144,8.64,0.36
		c10.008-0.072,20.016-0.144,30.024-0.216c0.648,0.072,1.296,0.216,2.016,0.36c0,0.432,0,0.936,0,1.44
		c-1.008,2.664-1.008,2.664-1.224,4.104c0.144,0.216,0.288,0.432,0.504,0.72c0.36,0,0.72,0,1.08,0.072
		c0.504-0.432,0.504-0.432,1.224-2.16c0.216,0,0.4319,0,0.72-0.072c0.072,0.864,0.144,1.728,0.288,2.664
		c0.432,0.288,0.432,0.288,1.584,0.288c0.36-0.36,0.7921-0.72,1.224-1.152c1.224,0.144,2.52,0.288,3.816,0.432
		c1.44-0.432,1.44-0.432,2.16-0.936c4.896,0.072,9.792,0.144,14.688,0.2161c1.152,0.2159,2.376,0.432,3.6,0.72
		c-0.288,0.288-6.264,0.72-7.2,1.008c-12.024,0.432-16.56,0.936-21.888,1.152c-0.288-0.144-0.576-0.288-0.936-0.432
		c-17.784,0-26.424,0.432-44.136,0.432c-1.944-0.2161-10.8,0.288-88.344,1.0079C79.128,549.36,78.624,549.6479,71.424,549.6479
		L71.424,549.6479z M150.12,547.92c-0.432-0.072-0.936-0.144-1.44-0.216c-0.144-0.144-0.36-0.36-0.576-0.576
		c0.072-0.36,0.144-0.7921,0.216-1.224c0.576-0.576,1.152-1.152,1.8-1.8c4.32-0.432,8.64-0.936,12.96-1.44
		c0.144,0.072,0.36,0.216,0.576,0.36c0,0.648,0,1.296,0,1.944c-0.432,0.72-0.432,0.72-1.8,1.44c-0.504,0-1.08-0.072-1.656-0.144
		C158.328,546.7679,158.328,546.7679,150.12,547.92L150.12,547.92z M193.824,546.984c-0.216-0.144-0.432-0.2881-0.72-0.504
		c-1.944,0-1.944,0-2.304-0.288c0.216-1.728,0.216-1.728,0.72-3.168c0.144-0.144,0.36-0.288,0.576-0.432
		c3.384-0.144,6.984,0.288,16.1281,0.072c1.512-0.216,3.024-0.432,4.536-0.72c0.288,0.432,0.648,0.864,1.008,1.296
		c-1.008,1.152-2.088,2.304-3.168,3.528c-0.936,0-0.936,0-2.5919-0.504c-3.744,0.072-7.488,0.144-11.304,0.216
		C195.768,546.624,194.832,546.7679,193.824,546.984L193.824,546.984z M264.168,546.984c-1.5121,0-3.024,0-4.608-0.072
		c0.36-0.72,0.72-1.44,1.08-2.16c-0.072-0.648-0.144-1.2961-0.216-1.944c-0.288-0.36-0.648-0.792-1.008-1.224
		c-2.232-0.36-2.232-0.36-2.952-0.72c0.72-0.576,0.72-0.576,2.16-1.08c3.096,0.216,3.096,0.216,4.896,0.648
		c-0.216,1.656-0.216,1.656-0.936,3.0959c0,0.576,0.072,1.152,0.144,1.8c0.288,0,0.576,0,0.9359,0
		c0.216-0.288,0.5041-0.576,0.7921-0.864c0.432-1.296,0.936-2.664,1.44-4.032c0.288-0.216,0.576-0.432,0.864-0.648
		c1.656,0,3.312,0,5.04,0c6.984,0.72,6.984,0.72,14.184,1.08c-0.072,0.288-0.144,0.576-0.216,0.864
		c-5.328,0.432-6.984,0.936-9.36,1.152c-0.216,0.144-0.432,0.288-0.72,0.504c0,0.36-0.072,0.72-0.144,1.08
		c0.144,0.144,0.288,0.288,0.432,0.504c8.496,0.144,17.064,0.36,25.632,0.576c0.288-0.36,0.576-0.7919,0.936-1.2239
		c2.376,0,2.376,0,2.736-0.288c0.072-1.152,0.2159-2.376,0.36-3.6c1.152,0,2.376,0,3.6,0c-0.072,0.576-0.216,1.2239-0.36,1.8719
		c-0.792,1.4401-1.656,2.88-2.52,4.3201c-1.656,0.1439-2.592-0.144-15.12-0.36C280.728,546.7679,267.48,546.7679,264.168,546.984
		L264.168,546.984z M316.224,546.984c-4.32-0.2161-4.32-0.2161-6.264-0.072c0.072-0.72,0.216-1.44,0.36-2.16
		c0.648-1.152,1.2961-2.376,1.944-3.6c1.728-0.216,3.456-0.432,5.184-0.648c3.816,0.216,3.816,0.216,4.752,0.504
		c15.408,0.216,16.344,0.432,24.048,0.432c0,0.288,0,0.576,0.072,0.864c-0.576,1.368-1.1519,2.736-1.8,4.176
		C335.088,546.624,325.656,546.7679,316.224,546.984L316.224,546.984z M349.848,546.48c-0.576,0-1.152,0-1.728-0.072
		c0.864-3.816,0.864-3.816,1.224-4.464c2.16-0.216,11.016-0.216,12.744,0c0.72-0.072,1.44-0.144,2.16-0.216
		c1.872,0.288,3.816,0.576,5.76,0.936c0.864,0.288,1.728,0.576,2.592,0.936c-0.216,0.288-4.032,0.72-5.04,1.224
		c-0.216,0.216-0.432,0.432-0.72,0.72C357.264,546.048,353.664,546.48,349.848,546.48L349.848,546.48z M377.928,545.04
		c-0.432-0.288-0.936-0.576-1.44-0.936c0-0.504-0.072-1.0081-0.144-1.512c3.816-8.208,4.032-9.144,5.472-11.808
		c2.592-0.36,10.728-0.576,11.448-0.36c5.4-0.072,10.872-0.2159,16.344-0.36c-1.8719,3.168-1.8719,3.168-8.9279,13.104
		c-3.096,0.936-3.096,0.936-7.632,1.656C388.008,544.896,382.968,544.968,377.928,545.04L377.928,545.04z M65.88,544.464
		c0.072-0.72,0.216-1.44,0.36-2.16c1.944-5.256,2.376-7.2,2.88-7.92c0.36-0.072,0.72-0.216,1.08-0.36
		c0.576,0.072,1.152,0.144,1.728,0.216c0.072,1.368,0.072,1.368-0.864,6.624c-1.008,2.6639-1.008,2.6639-1.584,3.168
		C68.328,544.176,67.104,544.32,65.88,544.464L65.88,544.464z M74.088,543.384c-0.288,0-0.648,0-1.008-0.072
		c0.288-2.2321,0.576-4.4641,0.864-6.7681c0.288-0.5759,0.576-1.152,0.864-1.7999c10.8-0.504,10.8-0.504,18.72-0.576
		c-0.288,0.72-0.576,1.44-0.864,2.16c-1.8,1.8719-3.6,3.744-5.4,5.616c-3.384,0.432-6.84,0.936-10.296,1.44
		C76.032,543.384,75.096,543.384,74.088,543.384L74.088,543.384z M405.504,543.168c-0.648,0-1.296-0.072-1.944-0.144
		c0.072-0.432,0.216-0.936,0.36-1.44c1.872-2.664,3.816-5.4,5.76-8.136c1.944-1.944,1.944-1.944,3.024-3.6
		c11.736-1.368,11.736-1.368,15.84-1.584c0.36,0.36,0.36,0.36,2.232,6.12c0,0.576,0,1.152,0,1.728
		c-1.4399,1.6559-2.8799,3.312-4.3199,5.04c-2.7361,0.432-5.472,0.864-8.208,1.296C414.0001,542.664,409.752,542.88,405.504,543.168
		L405.504,543.168z M90.36,542.448c0-0.288-0.072-0.576-0.144-0.864c1.296-1.296,2.592-2.664,3.888-4.032
		c0.576-0.936,1.224-1.872,1.872-2.88c0.504-0.072,1.008-0.144,1.584-0.288c-0.072,0.432-0.216,0.936-0.36,1.44
		c-1.08,2.016-2.232,4.032-3.384,6.048C92.664,542.016,91.512,542.232,90.36,542.448L90.36,542.448z M96.84,542.448
		c-0.144-0.072-0.36-0.216-0.576-0.36c0-0.288,0-0.576,0-0.936c1.872-3.6,1.872-3.6,3.816-6.48c0.288,0,0.576-0.072,0.864-0.144
		c-0.072,1.368-0.216,2.736-0.36,4.176c-1.008,2.88-1.008,2.88-1.44,3.384C98.424,542.16,97.632,542.304,96.84,542.448
		L96.84,542.448z M103.32,542.448c-0.432,0-0.936-0.072-1.44-0.144c0.576-2.52,1.152-5.04,1.8-7.632
		c6.336-0.288,12.672-0.576,19.08-0.864c2.592,0.144,5.184,0.36,7.776,0.576c-0.072,0.648-0.144,1.296-0.216,1.944
		c-0.936,2.16-1.44,4.104-1.944,4.824c-4.896,0.288-9.792,0.648-14.688,1.008C106.92,542.16,106.92,542.16,103.32,542.448
		L103.32,542.448z M226.44,542.592c0.2881-0.792,0.576-1.584,0.864-2.448c1.584-0.288,3.24-0.576,4.896-0.864
		c1.728,0.216,3.528,0.4321,5.328,0.72c4.32,0.072,8.64,0.144,12.96,0.288c2.88,0.432,2.88,0.432,4.32,0.936
		c-0.144,0.144-0.288,0.288-0.504,0.504c-0.936,0.144-1.872,0.288-2.88,0.432c-14.184-0.432-14.184-0.432-14.616-0.72
		c-1.728-0.144-3.528-0.288-5.328-0.432C229.824,541.512,228.168,542.016,226.44,542.592L226.44,542.592z M297.72,542.448
		c-3.024-0.144-6.0479-0.288-9.072-0.504c0-0.36,0-0.72,0-1.08c6.696-0.36,6.696-0.36,14.112-0.2161
		c0,0.288-0.072,0.576-0.144,0.936c-0.576,0.36-0.576,0.36-2.7361,0.864C299.16,542.448,298.44,542.448,297.72,542.448
		L297.72,542.448z M373.608,541.728c-4.608-1.008-4.608-1.008-8.208-1.44c-4.824-0.144-9.72-0.288-14.616-0.504
		c-0.144-4.68-0.144-4.68,0.216-7.776c2.448-0.36,4.608-0.36,5.328-0.648c5.256-0.432,5.256-0.432,22.752-0.72
		c0,0.36,0.072,0.72,0.144,1.152c-3.888,8.64-3.888,8.64-4.68,9.936C374.256,541.728,373.968,541.728,373.608,541.728
		L373.608,541.728z M131.4,540.864c1.8-4.752,1.8-4.752,2.736-6.48c0.864-0.072,1.728-0.216,2.592-0.36
		c6.12,0.072,12.24,0.144,18.432,0.216c16.128,1.008,16.128,1.008,18.288,1.44c2.52,0,5.04,0,7.632,0
		c0,0.648,0.072,1.368,0.144,2.088c-0.36,0.36-0.36,0.36-3.96,0.7921c-2.376,0-4.752,0-7.2,0c-17.784,1.224-32.4,1.728-35.28,2.16
		C133.704,540.72,132.552,540.792,131.4,540.864L131.4,540.864z M338.328,539.784c-16.344-0.504-16.848-0.72-25.2-0.792
		c0.072-0.648,0.144-1.296,0.288-1.944c1.008-2.16,1.44-3.816,1.872-4.248c0.72-0.216,0.72-0.216,13.68-0.72
		c6.48,0,12.96,0,19.44-0.072c-0.144,3.096-0.432,3.6-0.864,6.984c-0.072,0.144-0.216,0.36-0.36,0.576
		C344.232,539.64,341.28,539.712,338.328,539.784L338.328,539.784z M255.24,538.704c0.072-0.36,0.216-0.72,0.36-1.152
		c0.648-0.432,0.648-0.432,2.304-0.648c0.36,0.648,0.36,0.648,0.216,1.44C257.184,538.416,256.248,538.56,255.24,538.704
		L255.24,538.704z M281.448,538.56c-0.936-0.144-1.872-0.36-2.88-0.576c-0.072-1.512-0.144-3.024-0.288-4.536
		c5.328-0.36,5.328-0.36,9.864-0.216c-0.864,4.32-0.864,4.32-1.224,5.112C285.984,538.56,285.984,538.56,281.448,538.56
		L281.448,538.56z M290.304,538.56c-0.288,0-0.576,0-0.936-0.072c0.288-2.376,0.288-2.376,1.296-5.256
		c3.744-0.432,3.744-0.432,10.44-0.432c0.36,0.144,0.72,0.288,1.08,0.432c0.144,0.576,0.288,1.224,0.432,1.872
		c0,1.152,0,2.304-0.072,3.456C298.512,538.56,294.408,538.56,290.304,538.56L290.304,538.56z M307.08,538.56
		c-0.504-0.072-1.08-0.144-1.656-0.216c-0.36-0.576-0.36-0.576-0.72-5.4c2.592-0.072,5.256-0.144,7.92-0.216
		c-0.288,1.08-0.576,2.232-0.864,3.384c-0.432,0.72-0.864,1.44-1.296,2.232C309.384,538.416,308.232,538.488,307.08,538.56
		L307.08,538.56z M193.104,538.344c-1.368-0.072-2.736-0.144-4.104-0.216c-0.432-0.144-0.936-0.288-1.44-0.504
		c-2.376,0-2.376,0-3.024-0.36c0-0.36,0.072-0.72,0.144-1.152c0.36-0.144,0.792-0.288,1.224-0.432c1.08,0,2.232,0,3.384,0
		c7.92,1.008,7.92,1.008,18.216,1.728c6.984,0,6.984,0,12.744,0.36c-0.072,0.072-0.144,0.2161-0.288,0.36
		C200.088,538.344,198.144,538.128,193.104,538.344L193.104,538.344z M242.784,538.344c-4.32-0.504-4.32-0.504-8.424-0.576
		c0.072-0.36,0.216-0.792,0.36-1.224c1.656-1.08,3.312-2.16,4.968-3.24c2.664,0.072,5.4,0.144,8.136,0.2161
		c0.072,0.288,0.216,0.5759,0.36,0.864c-0.288,1.224-0.576,2.4481-0.864,3.744C245.808,538.2,244.296,538.272,242.784,538.344
		L242.784,538.344z M273.528,538.128c-0.216,0-0.432-0.072-0.72-0.144c-0.216-1.584-0.432-3.168-0.72-4.752
		c1.656-0.144,1.656-0.144,3.096,0.216c0,1.512,0,3.024,0.072,4.536C274.68,537.984,274.104,538.056,273.528,538.128
		L273.528,538.128z M228.888,537.552c0.072-0.792,0.144-1.584,0.288-2.448c0.288-0.504,0.576-1.08,0.864-1.656
		c1.08,0,2.232-0.072,3.384-0.144c0.216,0.072,0.432,0.2161,0.72,0.36c-1.08,0.864-2.232,1.728-3.384,2.664
		c-0.072,0.288-0.216,0.576-0.36,0.936C229.896,537.3359,229.392,537.408,228.888,537.552L228.888,537.552z M225.504,536.904
		c-0.216-0.36-0.432-0.792-0.72-1.224c-0.72-0.216-17.28-0.432-20.376-0.792c0-0.216,0-0.432,0-0.72
		c17.496-0.6479,18-0.864,22.752-0.72c0,0.36,0.0721,0.792,0.144,1.224c-1.008,1.8719-1.008,1.8719-1.584,2.376
		C225.648,537.048,225.576,536.976,225.504,536.904L225.504,536.904z M174.168,533.808c-3.384-0.504-10.368-0.72-13.968-1.224
		c-13.392-0.072-26.856-0.144-40.32-0.216c-5.976,0.072-11.952,0.216-18,0.36c0.288-1.008,0.576-2.016,0.864-3.096
		c7.632-12.024,11.52-17.568,14.4-22.608c0.36-0.432,0.72-0.936,1.152-1.44c0.576-1.512,1.224-3.024,1.872-4.536
		c2.52,0,5.04-0.072,7.632-0.144c6.408,0.288,12.816,0.576,19.224,0.936c3.528,0.288,7.056,0.648,10.584,1.008
		c4.464,0.072,8.928,0.144,13.392,0.216c1.512,0.144,3.024,0.288,4.608,0.504c4.536,0.072,9.072,0.144,13.68,0.216
		c12.24,0.936,12.24,0.936,15.84,1.44c6.984,0.072,14.04,0.144,21.096,0.216c2.304,0.144,4.608,0.288,6.984,0.504
		c10.08,0,10.08,0,12.456-0.216c1.224-0.288,2.52-0.648,3.816-1.008c1.008,0,2.088,0.072,3.168,0.144
		c-0.144,3.6-0.432,4.824-0.432,11.304c-0.144,2.088-0.288,4.176-0.432,6.264c-1.944,1.8719-3.6,4.032-4.824,5.04
		c-0.576,0.072-1.152,0.144-1.8,0.288c-0.504,0.288-1.08,0.6479-1.656,1.008c-0.72,0.144-1.44,0.288-2.16,0.4319
		c-0.864,0.648-1.728,1.296-2.664,1.944c-1.152,0.216-1.152,0.216-14.112,0c-4.104,0.504-24.048,1.656-29.088,1.656
		c-3.888,0.288-7.776,0.648-11.736,1.008C180.576,533.808,177.408,533.808,174.168,533.808L174.168,533.808z M433.08,532.728
		c-0.288-0.72-0.576-1.44-0.864-2.16c-0.0719-0.936-0.1439-1.872-0.288-2.88c1.152-0.072,2.376-0.216,3.6-0.36
		c1.152,0.072,2.376,0.2159,3.6,0.36c-0.72,0.864-1.44,1.8-2.16,2.736c-0.9359,0.7921-1.8719,1.584-2.8799,2.376
		C433.8,532.8,433.44,532.8,433.08,532.728L433.08,532.728z M74.808,532.368c-1.44-0.288-2.88-0.576-4.392-0.864
		c0-0.432,0-0.936-0.072-1.44c1.44-3.96,2.88-7.92,4.32-11.952c1.44-6.048,2.88-10.08,3.312-12.744
		c0.288-0.648,0.648-1.296,1.008-1.944c0.432-2.376,1.44-4.752,2.88-9.36c0.144-0.936,0.288-1.872,0.432-2.88
		c0.504-0.72,1.44-4.752,3.384-9.36c0.936-4.032,0.936-4.032,3.816-12.456c1.008-2.16,2.88-8.424,4.824-13.464
		c0.936-3.312,1.944-5.472,7.704-24.912c0.72-1.44,1.152-3.6,1.44-3.888c0.576-2.232,1.224-4.464,1.872-6.696
		c9.144-23.976,9.648-24.696,11.52-30.24c0.648-2.376,1.296-4.752,1.944-7.2c2.16-6.192,4.32-12.456,6.48-18.72
		c0.072-0.504,0.144-1.08,0.216-1.656c1.008-1.944,1.44-3.888,4.32-10.368c0.648-2.448,1.296-4.896,1.944-7.416
		c0.288-0.288,0.576-0.576,0.936-0.936c0-0.432,0-0.936,0-1.44c3.024-8.496,6.048-16.992,9.144-25.488
		c0.288-0.072,0.576-0.216,0.864-0.36c0.792-2.952,1.512-4.392,1.8-6.336c0.288-0.504,0.576-1.08,0.936-1.656
		c2.88-8.352,5.76-16.776,8.64-25.2c4.32-14.688,4.824-15.624,6.696-21.888c1.296-3.24,2.592-6.48,3.888-9.792
		c0.432-1.728,0.936-3.528,1.44-5.328c0.72-0.936,0.72-0.936,2.16-4.536c0.288-1.368,0.576-2.736,0.936-4.104
		c0.432-0.936,0.936-1.872,1.44-2.88c0-0.504,0-1.08,0-1.656c1.944-5.76,2.88-9.576,3.384-10.2961
		c3.312-9.6479,3.6-9.864,11.736-32.4c0.144-0.216,0.288-0.432,0.504-0.72c0.072-0.792,0.144-1.584,0.216-2.448
		c0.288-0.432,0.576-0.936,0.936-1.44c0.504-2.16,0.504-2.16,2.448-6.912c0.72-3.384,0.72-3.384,1.152-3.888
		c1.944-4.752,3.384-9.792,4.32-11.736c0.432-1.584,0.936-3.168,1.44-4.824c0.288-0.504,0.648-1.08,1.008-1.6561
		c1.224-4.6799,2.52-9.432,3.816-14.184c0.648-1.7279,1.296-3.456,1.944-5.2559c2.376-4.536,2.376-4.536,3.816-8.424
		c0.288-1.224,0.576-2.52,0.936-3.816c0.288-0.6481,0.648-1.296,1.008-1.9441c0.144-0.7199,0.288-1.4399,0.432-2.1599
		c3.384-8.3521,4.32-10.08,6.264-15.336c0.936-3.3841,0.936-3.3841,1.944-5.256c0.288-1.368,0.576-2.736,0.9359-4.1039
		c7.2-18.216,7.2-18.216,9.144-23.76c0.144-0.648,0.288-1.296,0.432-1.9441c0.288-0.3599,0.648-0.7199,1.008-1.1519
		c0.936-3.1681,0.936-3.1681,2.016-5.76c0.288-0.2161,0.576-0.432,0.936-0.72c0,0.36,0.072,0.72,0.144,1.152
		c-1.944,9.144-2.88,14.9039-3.384,16.344c-3.816,18-3.816,18-7.2,32.4c-0.144,1.584-0.288,3.168-0.432,4.824
		c-0.432,2.376-0.936,4.752-1.44,7.2c-1.008,8.64-1.008,8.64-2.448,16.992c-1.224,2.88-2.52,5.76-3.816,8.64
		c-1.584,4.68-3.168,9.4319-4.824,14.184c-1.872,6.984-1.872,6.984-2.376,7.704c-0.072,0.72-0.144,1.44-0.216,2.16
		c-0.144,0.144-0.288,0.288-0.504,0.432c-1.224,3.888-2.52,7.848-3.816,11.808c-0.432,2.0161-0.936,4.104-1.44,6.192
		c-0.144,0.144-0.288,0.288-0.504,0.504c-3.6,12.024-3.6,12.024-7.416,23.544c-0.792,2.016-1.584,4.104-2.448,6.192
		c-1.584,6.48-3.168,12.96-4.752,19.44c-0.504,0.72-2.448,7.488-3.384,9.864c-0.9359,3.8159-0.9359,3.8159-9.576,30.744
		c-5.76,15.84-5.76,15.84-9.648,25.2c-0.288,0.432-0.576,0.936-0.936,1.44c-0.936,4.032-1.44,5.256-4.32,18.432
		c-0.432,1.152-0.936,2.376-1.44,3.6c-3.816,13.464-3.816,13.464-6.696,25.488c-2.52,7.92-5.112,15.84-7.704,23.76
		c-0.648,2.592-1.296,5.256-1.944,7.92c-1.224,3.744-2.52,7.488-3.816,11.232c-0.432,2.232-0.936,4.464-1.44,6.768
		c-0.504,0.72-0.504,0.72-2.88,9.36c-0.648,3.168-1.296,6.336-1.944,9.576c-2.232,8.64-4.464,17.28-6.696,25.92
		c-2.376,7.2-4.824,16.776-5.256,17.496c-3.888,14.4-3.888,14.4-4.824,19.224c-0.216,0.432-0.504,0.864-0.792,1.296
		c-5.472-0.072-11.016-0.144-16.56-0.216c-0.72,0.288-1.44,0.576-2.16,0.936c-0.432,0.648-0.432,0.648-0.432,1.8
		c0.36,0.36,0.792,0.792,1.224,1.224c2.016,0.864,4.032,1.8,6.12,2.736c2.88,1.944,2.88,1.944,5.76,3.384
		c3.6,0.288,7.2,0.576,10.8,0.864c-0.072,0.792-0.216,1.584-0.36,2.376c-0.288,0.72-0.576,1.44-0.936,2.16
		c-3.888,4.32-3.888,4.32-7.704,9.144c-3.816,5.472-3.816,5.472-4.824,6.48c-1.872,3.312-2.88,4.32-6.696,10.08
		c-0.792,0.7921-0.792,0.7921-1.512,1.008C90.144,532.08,89.424,532.368,74.808,532.368L74.808,532.368z M98.568,532.008
		c0.072-0.36,0.144-0.792,0.288-1.224c2.88-4.32,2.88-4.32,3.528-4.752c0.072,0.144,0.216,0.288,0.36,0.432
		c-1.08,1.728-2.232,3.528-3.384,5.328C99.144,531.864,98.856,531.936,98.568,532.008L98.568,532.008z M245.16,531.36
		c-0.216-0.072-0.216-0.072-0.216-0.792c4.32-1.8,4.824-2.304,5.544-2.376c-0.288,0.792-0.576,1.584-0.864,2.376
		c-0.216,0.144-0.432,0.288-0.648,0.504C247.752,531.144,246.456,531.216,245.16,531.36L245.16,531.36z M278.28,531.36
		c-0.072-0.144-0.216-0.36-0.36-0.576c-0.072-3.6-0.144-7.2-0.216-10.8c-0.144-0.864-0.288-1.728-0.504-2.592
		c0.072-3.816,0.144-7.632,0.216-11.52c2.808-2.088,2.808-2.088,4.032-2.592c0.288-0.36,0.576-0.72,0.9359-1.152
		c2.88-1.944,2.88-1.944,4.824-2.88c0.72-0.72,1.44-1.44,2.16-2.16c2.016-1.512,4.104-3.024,6.192-4.608c0.216,0,0.432,0,0.72-0.072
		c-1.296,8.424-1.8,10.08-4.176,25.92c-1.944,9.576-1.944,9.576-2.88,12.456c-0.288,0.072-0.576,0.216-0.864,0.36
		C283.608,531.144,282.6,531.36,278.28,531.36L278.28,531.36z M292.68,531.144c-0.36,0-0.72,0-1.152-0.072
		c0.288-2.448,0.792-3.6,1.728-10.368c0.504-1.656,1.44-8.352,2.448-13.176c0.144-1.512,0.288-3.024,0.432-4.536
		c1.44-6.768,1.44-6.768,1.8-6.984c0.36,0.936,0.36,3.096,1.368,7.704c0.432,4.752,0.936,7.416,0.936,10.296
		c0.36,4.464,0.792,8.928,1.224,13.464c0,1.008-0.072,2.088-0.144,3.168C298.44,530.784,295.56,530.928,292.68,531.144
		L292.68,531.144z M252.648,531.072c0.072-0.792,0.144-1.584,0.288-2.448c0.288-0.144,0.576-0.288,0.864-0.4319
		c0,0.504,0.072,1.08,0.144,1.6559c-0.144,0.288-0.288,0.576-0.504,0.936C253.224,530.856,252.936,530.928,252.648,531.072
		L252.648,531.072z M271.584,530.784c-0.144-0.288-0.288-0.576-0.504-0.936c-0.432-3.24-0.864-6.5519-1.296-9.864
		c-0.432-1.656-0.936-3.312-1.44-5.04c0-0.72,0-1.44,0-2.16c1.872-1.872,1.872-1.872,5.616-4.68c0.216,0,0.432,0.072,0.72,0.144
		c0.072,0.216,0.216,0.432,0.36,0.72c0,9.576,0.216,10.296,0.144,21.96C274.032,530.928,272.808,530.856,271.584,530.784
		L271.584,530.784z M305.928,530.928c-0.576,0-1.152-0.072-1.728-0.144c-0.432-2.736-0.864-5.544-1.296-8.352
		c-0.288-7.704-0.288-7.704-1.224-16.848c-0.936-5.256-1.44-10.512-1.944-12.96c0-0.288,0.072-0.576,0.144-0.864
		c1.8-0.072,3.672-0.144,5.544-0.216c1.584,0.144,3.168,0.288,4.824,0.504c19.656,0,32.616,0.432,40.536,0.432
		c9.36,0.72,27.144,2.664,33.624,3.6c0.432,0.288,8.136,1.224,9.36,1.728c2.016,0.288,4.104,0.576,6.192,0.936
		c8.64,3.384,8.64,3.384,10.368,3.816c3.6,1.584,7.2,3.168,10.8,4.824c0.3599,0.288,0.72,0.576,1.152,0.936
		c2.016,5.688,2.016,5.688,3.024,7.632c0.144,0.864,0.288,1.728,0.432,2.592c0.648,1.8,1.296,3.6721,1.944,5.5441
		c0,0.504,0,1.08,0,1.656c-0.576,0.36-9,1.296-9.72,1.584c-5.328,0.288-10.656,0.576-16.056,0.936
		c-20.376,0.216-26.856,0.504-47.736,0.72c-1.0081,0.2159-1.0081,0.2159-1.728,0.72c-10.296,0.504-24.48,0.504-39.096,0.936
		C311.4,530.928,311.4,530.928,305.928,530.928L305.928,530.928z M257.904,529.632c0-1.008-0.072-2.088-0.144-3.168
		c0.288-0.576,0.576-1.152,0.864-1.8c0.72,0.144,0.72,0.144,1.08,0.648c0,1.08,0,2.16,0,3.312
		C259.128,528.912,258.552,529.272,257.904,529.632L257.904,529.632z M265.104,529.344c0.072-0.216,0.144-0.432,0.216-0.72
		c0.576-0.504,1.152-1.008,1.728-1.584c0.216,0,0.432,0,0.72-0.072c-0.072,0.72-0.144,1.4399-0.288,2.2319
		C266.688,529.2,265.896,529.272,265.104,529.344L265.104,529.344z M253.8,526.248c0.144-0.936,0.288-1.872,0.504-2.88
		c0.288,0,0.576,0,0.936,0c0.072,0.144,0.144,0.288,0.288,0.432c-0.288,0.648-0.576,1.296-0.864,1.944
		C254.376,525.888,254.088,526.032,253.8,526.248L253.8,526.248z M258.624,516.672c0-0.72,0-1.44,0-2.16c0.216,0,0.432,0,0.72,0.072
		c0.504,0.72,0.504,0.72,0.576,1.584C259.56,516.528,259.56,516.528,258.624,516.672L258.624,516.672z M268.2,508.752
		c-0.36-3.384-0.36-3.384-0.36-8.424c0.216-1.656,0.216-1.656-0.216-24.696c0.216-5.976,0.432-11.952,0.72-18
		c-0.288-8.64-0.504-9.648-0.72-19.944c0.216-12.024,0.216-12.024,0-24.984c-0.288-4.32-0.288-4.32-0.288-22.32
		c0.144-4.752,0.288-9.576,0.504-14.4c-0.216-15.408-0.432-30.816-0.72-46.2961c0.216-27.576,0.216-27.576,0.504-35.496
		c-0.216-4.248-0.432-8.496-0.72-12.744c0.216-16.992,0.432-34.056,0.72-51.12c-0.504-31.4641-0.72-32.616-0.504-36.216
		c-0.216-16.3441-0.216-16.3441-0.504-17.28c-0.144-3.024-0.288-6.048-0.432-9.144c0.216-17.28,0.216-17.28,0-41.976
		c-0.072-2.592-0.144-5.256-0.288-7.92c0.144-5.472,0.288-11.016,0.504-16.56c-0.216-46.08-0.216-46.08-0.792-73.008
		c0.216,0,0.432,0,0.72,0c0.288,4.104,0.792,6.48,1.728,19.728c0,6.696,1.008,23.976,1.4399,38.376
		c0.504,6.696,0.504,6.696,1.008,27.144c0,5.976,0,11.952,0,18c0.432,7.9199,0.432,7.9199,0.216,9.576
		c0.216,25.704,0.216,25.704,0.936,49.464c0.288,1.656,0.504,11.952,1.008,19.872c-0.504,2.448-0.504,2.448-0.288,2.664
		c0.0721,11.088,0.144,22.176,0.288,33.336c-0.2159,9.936-0.4319,19.872-0.72,29.808c0.144,11.592,0.288,23.184,0.432,34.776
		c0.144,1.008,0.288,2.0161,0.504,3.096c-0.216,3.888-0.216,3.888,0.216,13.968c0.504,3.6,0.504,3.6,0.72,10.8
		c-0.072,5.472-0.144,11.016-0.216,16.56c0.504,5.976,0.504,10.8,0.936,14.4c0.288,6.48,0,10.2961,0.288,15.84
		c0,4.6801,0,9.36,0,14.112c-0.504,2.664-0.504,2.664-1.008,3.384c0.504,3.6,0.504,3.6,1.008,14.904
		c-0.288,20.592-0.288,20.592,0,22.536c0.432,21.816,0.72,23.256,0.72,33.336c-0.288,1.008,0,14.688-0.504,30.528
		c-0.576,0.72-0.576,0.72-5.616,4.032C269.064,508.536,268.632,508.608,268.2,508.752L268.2,508.752z M420.84,504.72
		c-3.0239-1.224-6.048-2.52-9.072-3.816c-3.6-1.224-7.2-2.52-10.8-3.816c-7.2-1.296-14.4-2.592-21.6-3.888
		c-17.784-1.872-17.784-1.872-30.744-2.88c-5.544,0-12.744-0.432-41.256-0.936c-2.448-0.144-4.968-0.36-7.488-0.576
		c0-0.288-0.072-0.576-0.144-0.936c3.888-11.52,6.768-21.6,8.208-25.2c0.432-2.448,2.88-9.648,3.312-12.24
		c1.44-4.32,1.44-4.32,1.944-5.04c3.816-14.4,3.816-14.4,4.32-15.12c0.648-1.728,1.296-3.528,1.944-5.328
		c2.16-7.704,4.32-15.48,6.48-23.256c0.144-0.936,0.288-1.872,0.432-2.88c0.288-0.864,0.648-1.728,1.008-2.664
		c2.88-14.832,3.816-18,5.256-26.64c0.288-1.224,0.576-2.52,0.936-3.816c1.008-8.424,1.944-13.68,2.88-21.384
		c0.288-0.72,0.288-0.72,1.728-10.8c0.432-7.92,1.44-16.776,2.16-30.672c0-4.464,0-8.928,0-13.464
		c-1.008-14.6161-1.008-14.6161-2.448-28.296c-0.936-4.824-0.936-4.824-1.44-9.36c-1.872-8.424-2.88-14.904-4.752-23.04
		c-0.648-2.016-1.296-4.032-1.944-6.048c-1.944-8.352-1.944-8.352-2.376-11.52c-0.6479-2.304-1.296-4.608-1.944-6.912
		c-0.288-1.8-0.576-3.672-0.936-5.5439c-1.944-5.976-5.76-20.664-7.704-26.424c-0.216-2.376-0.216-2.376,0-2.592
		c0.504,0.72,2.376,7.2,3.384,9.36c0.72,2.016,1.44,4.104,2.16,6.192c0.576,2.448,1.224,4.968,1.872,7.488
		c0.648,1.584,1.296,3.168,1.944,4.752c1.944,6.7679,2.88,11.088,3.816,13.968c0.504,0.72,0.504,0.72,2.448,6.192
		c3.816,12.96,3.816,12.96,9.072,29.088c0.288,0.216,4.104,11.736,5.544,15.336c0.0721,0.504,0.144,1.08,0.216,1.656
		c1.296,3.24,2.592,6.552,3.888,9.864c4.752,15.1201,5.76,17.28,6.696,20.376c0.936,1.728,3.816,9.36,4.3199,11.5201
		c0.504,1.008,0.936,3.6,2.88,9.864c0.504,0.72,0.504,0.72,4.32,11.304c1.44,4.608,2.88,9.216,4.32,13.896
		c2.232,5.472,4.464,11.016,6.696,16.56c1.2961,3.816,2.592,7.632,3.888,11.52c1.08,3.96,2.16,7.992,3.312,12.024
		c0.648,1.584,1.296,3.168,1.944,4.752c6.696,24.48,6.696,24.48,8.424,29.52c0.4319,3.168,1.4399,6.984,1.8719,10.368
		c0.504,0.72,1.44,4.32,1.944,5.256c0.936,3.6,1.44,4.32,6.264,23.544c0.288,0.792,0.576,1.584,0.936,2.376c0,1.44,0,1.44,0.936,7.2
		c2.88,10.296,2.88,10.296,3.888,12.96c1.872,8.64,2.376,9.576,3.312,14.4c1.44,4.104,1.44,4.104,1.944,6.984
		c0.6481,1.512,1.2961,3.024,1.944,4.536c0.072,0.72,0.144,1.44,0.216,2.16C421.1281,504.648,420.984,504.648,420.84,504.72
		L420.84,504.72z M236.088,503.784c-1.512-0.144-3.024-0.288-4.608-0.504c-9.072-0.144-18.216-0.288-27.36-0.432
		c-3.312-0.504-3.312-0.504-14.832-1.224c-3.096,0-6.192,0-9.36,0c-2.88-0.216-5.76-0.432-8.64-0.72
		c-4.968-0.072-9.936-0.144-14.904-0.216c-11.52-1.008-11.52-1.008-26.856-1.944c-6.768-0.144-13.608-0.288-20.448-0.504
		c-0.864-0.144-1.728-0.288-2.592-0.432c-3.6-1.944-3.6-1.944-5.544-3.384c-1.08-0.432-2.16-0.864-3.24-1.296
		c0-0.288-0.072-0.576-0.144-0.936c2.16-0.144,2.16-0.144,22.104,0.288c2.664,0.504,2.664,0.504,12.24,1.44
		c4.824,0.216,9.72,0.432,14.616,0.72c1.656-0.072,3.312-0.144,5.04-0.216c0.792,0.144,1.584,0.288,2.448,0.504
		c23.04,1.44,32.112,2.376,36.216,2.376c3.816,0.504,11.304,0.936,14.616,1.44c9.72,0.864,19.512,1.728,29.304,2.664
		c0.792-0.144,1.584-0.288,2.376-0.504c7.704,1.44,7.704,1.44,8.208,1.8c-0.0721,0.072-0.144,0.216-0.2881,0.36
		C241.704,503.28,238.896,503.496,236.088,503.784L236.088,503.784z M264.6,503.568c-0.4319-0.72-0.4319-0.72-1.1519-1.224
		c-1.0081-0.216-1.0081-0.216-4.104,0.216c-0.288,0.144-0.576,0.288-0.936,0.504c-0.936,0-1.872,0.072-2.88,0.144
		c0.072-8.352,0.144-16.776,0.288-25.2c0.504-8.856,0.504-20.376,1.008-39.6c0-25.92,0.432-38.376,0.216-41.256
		c0.144-2.088,0.288-4.176,0.504-6.264c0.072-20.952,0.144-41.904,0.216-62.856c-0.216-11.448-0.432-22.896-0.72-34.344
		c0.144-0.864,0.288-1.728,0.504-2.664c0.432-14.4,0.432-14.4,0.432-32.616c-0.216-2.16,0-46.296-0.216-48.024
		c0.144-5.184,0.288-10.368,0.504-15.552c-0.288-2.16-0.288-2.16-1.008-23.5439c-0.216-32.9041-0.216-32.9041,0-50.4001
		c0.144-0.936,0.288-1.872,0.504-2.88c0.216-17.2799,0-18,0-24.9839c0.216-2.16,0-22.752-0.216-23.7601c0-18,0-18-0.504-38.376
		c0.216-21.3839,0.216-21.3839,0-23.0399c-0.648-0.936-1.296-1.872-1.944-2.88c-3.672-0.36-3.672-0.36-4.32-0.7201
		c0-0.2879,0-0.5759,0-0.9359c0.648-0.36,1.368-0.72,2.088-1.152c3.6-0.144,7.2-0.288,10.8-0.4319
		c0.432,0.2159,0.936,0.504,1.44,0.792c-0.864,1.7279-0.864,1.7279-1.368,2.2319c-0.144,3.024-0.288,6.048-0.432,9.072
		c0.216,19.944,0.936,41.04,1.152,60.48c-0.072,15.696-0.144,31.3919-0.216,47.0879c0.144,8.6401,0.288,17.2801,0.504,25.9201
		c-0.072,7.776-0.144,15.624-0.288,23.472c0.216,5.688,0.432,11.376,0.72,17.064c0,12.744,0,12.744,0.72,39.384
		c-0.216,19.656-0.432,39.312-0.72,59.04c0.144,2.448,0.288,4.896,0.504,7.416c-0.216,16.776,0.216,77.76,0,78.984
		c-0.504,24.192-0.504,24.192-0.504,48.24c0.504,5.256,0.504,5.256,0.288,7.2c0.144,12.096,0.288,24.264,0.432,36.432
		c-0.144,2.304-0.288,4.608-0.432,6.984c0.072,7.992,0.144,15.984,0.216,23.976c-0.144,2.592-0.288,5.256-0.504,7.92
		C264.816,503.712,264.816,503.712,264.6,503.568L264.6,503.568z M252.144,502.56c-2.304-0.792-4.608-1.584-6.984-2.376
		c-2.232-0.36-4.464-0.792-6.696-1.224c-1.944,0.072-3.96,0.144-5.976,0.288c-15.408-1.728-15.408-1.728-43.92-4.104
		c-2.664,0-12.24-0.936-16.848-0.936c-6.192-0.72-17.712-1.44-18.72-1.728c-3.744,0-7.488,0-11.232,0
		c-20.448-1.872-21.384-2.16-27.072-2.448c2.16-9.36,2.16-9.36,6.48-24.768c0.504-0.936,0.72-3.096,1.224-4.032
		c7.704-29.088,11.52-45.144,13.896-53.28c0.288-0.288,0.288-0.288,1.224-5.328c3.384-10.08,3.816-12.456,4.32-13.392
		c1.944-7.92,2.88-10.368,5.256-19.44c0.504-1.008,0.72-2.448,2.664-7.488c1.944-6.48,3.816-14.4,5.76-20.592
		c0-1.224,0-1.224,0.504-2.16c1.872-6.768,1.872-6.768,3.6-11.808c1.08-4.68,2.16-9.36,3.24-14.112
		c1.008-0.144,2.016-0.288,3.096-0.4319c7.92,0.072,15.84,0.144,23.76,0.288c16.128,1.152,16.344,1.44,26.424,1.872
		c9.144,0.72,9.144,0.72,10.08,1.008c12.24,0.432,12.24,0.432,16.776,0.936c4.248,0,8.496,0.072,12.744,0.144
		c-0.144,33.624,0.072,39.096-0.36,74.88c-0.288,0.936-0.504,37.656-0.288,41.5439c-0.72,25.632-0.72,36.216-1.152,41.04
		c-0.144,8.28-0.288,16.56-0.504,24.912c-0.144,0.864-0.288,1.728-0.504,2.664C252.72,502.488,252.432,502.488,252.144,502.56
		L252.144,502.56z M277.56,502.272c0.144-16.128,0.144-16.128-0.144-26.208c0.144-0.432,0.288-0.936,0.504-1.44
		c-0.288-14.76-0.576-29.52-0.936-44.352c0.216-13.68,0.216-13.68,0-22.104c-0.288-0.504-0.288-0.504-0.288-4.32
		c0.144-0.288,0.288-0.576,0.504-0.936c-0.216-1.944-0.216-1.944-0.216-28.8c-0.36-7.416-0.792-14.832-1.224-22.32
		c0.144-2.5919,0.288-5.256,0.504-7.92c-0.288-1.728-0.288-1.728,0-8.64c-0.72-7.92-0.72-7.92-1.44-25.92
		c0-6.984-0.288-9.36-0.288-17.28c0.072-1.08,0.144-2.232,0.288-3.384c-0.144-3.888-0.288-7.776-0.504-11.7361
		c0.72-31.464,0.72-31.464,0.936-54c-0.936-30.528-1.44-36.72-1.872-52.56c0-12.312,0-24.624,0-37.008
		c-0.144-1.152-0.288-2.376-0.504-3.6c0.216-2.16-0.216-10.08,0-23.76c-0.216-7.416-0.216-7.416-0.504-8.8561
		c0.288-0.9359,0.288-3.0959,0-4.5359c-0.936-24.264-1.656-36.288-1.872-47.088c-0.288-0.4321-0.72-10.08-1.944-22.7521
		c0-0.432,0.072-0.936,0.144-1.4399c0.144,0.144,0.36,0.288,0.576,0.432c0.936,2.88,1.944,5.04,6.696,19.728
		c1.944,4.752,3.888,11.2319,6.768,18.432c0.432,0.504,0.432,0.504,5.76,19.728c0.144,1.008,0.288,2.0161,0.432,3.0961
		c1.008,2.6639,2.88,10.296,3.384,11.5199c0.288,1.3681,0.576,2.7361,0.936,4.1041c1.944,4.32,1.944,4.32,3.888,9.792
		c0.576,2.232,1.224,4.464,1.872,6.768c0.6479,3.672,1.296,7.344,1.944,11.016c0.144,0.2159,0.288,0.432,0.504,0.72
		c0.288,1.656,0.576,3.312,0.936,5.04c3.816,12.4559,3.816,12.4559,4.824,14.904c0.936,4.32,1.44,5.256,3.312,12.96
		c1.008,2.376,4.824,15.84,5.76,18.432c3.384,13.248,3.384,13.248,6.264,22.608c5.76,25.2,6.696,28.08,7.2,30.96
		c0.936,3.096,2.376,11.232,2.664,11.736c0.936,5.976,1.872,9.864,2.376,13.464c0.504,1.656,0.936,7.416,1.944,14.832
		c0.936,10.08,0.936,10.08,1.44,19.008c0,9.576,0,9.576-0.72,26.856c-0.504,6.696-1.008,9.36-1.44,15.336
		c-1.44,9.648-1.728,10.368-2.664,19.224c-0.504,0.936-0.504,0.936-1.944,8.856c-0.144,2.016-0.288,4.032-0.432,6.048
		c-0.144,0.144-0.288,0.288-0.504,0.432c-0.144,1.872-0.288,3.816-0.504,5.76c-2.52,11.232-5.04,22.536-7.632,33.84
		c-0.288,0.792-0.648,1.584-1.008,2.448c-0.432,2.88-0.432,2.88-0.936,3.816c-0.936,3.672-1.872,7.344-2.88,11.016
		c-0.648,1.512-1.296,3.024-1.944,4.608c-9.576,31.68-9.576,31.68-9.792,33.12c-0.432,1.08-0.936,2.16-1.44,3.312
		c-1.44,4.968-2.88,9.936-4.32,14.904c-2.88,8.136-2.88,8.136-3.384,8.856c-3.24,2.592-6.552,5.256-9.864,7.92
		c-1.656,0.936-3.312,1.872-5.04,2.88c-0.936,0.72-1.944,1.512-2.952,2.304C278.424,502.128,277.992,502.2,277.56,502.272
		L277.56,502.272z M245.16,315.648c-0.936-0.288-19.1519-1.008-24.4799-1.44c-0.72-0.288-18.72-1.224-30.456-2.16
		c-8.5681-0.288-17.136-0.576-25.704-0.864c0.072-0.72,0.216-1.44,0.36-2.16c1.224-3.168,2.52-6.336,3.816-9.576
		c3.888-11.52,5.76-16.344,7.2-21.384c0.504-0.936,8.208-26.136,9.144-28.296c2.304-8.352,4.608-16.776,6.984-25.2
		c0.288-0.432,0.576-0.936,0.936-1.44c0.936-3.6,6.696-21.6,7.704-23.976c0.432-2.664,0.936-4.104,1.44-7.2
		c0.936-1.944,2.016-5.76,2.376-6.048c0.144-1.08,0.288-2.16,0.504-3.312c0.936-2.16,1.872-6.048,2.376-6.768
		c0.216-1.4401,0.576-1.656,2.664-8.352c0.072-0.576,0.144-1.152,0.216-1.728c1.944-4.536,3.816-10.512,4.824-12.672
		c0.144-0.7921,0.288-1.584,0.432-2.448c3.888-8.136,3.888-8.136,4.608-9.072c0.144-0.648,0.288-1.296,0.432-1.944
		c0.648-1.2241,1.296-2.52,1.944-3.816c1.224-3.24,2.52-6.552,3.816-9.864c0.288-0.432,0.648-0.936,1.008-1.44
		c3.816-9.36,3.816-9.36,4.752-12.2401c2.232-4.968,4.464-9.9359,6.768-14.9039c1.872-5.472,3.816-9.792,4.752-12.9601
		c3.888-9.3599,3.888-9.3599,5.76-13.1759c1.944-2.8801,1.944-2.8801,5.184-8.784c0.288,0,0.576,0.072,0.864,0.144
		c0,2.16,0,2.16-0.288,3.8159c0.216,1.7281,0.432,3.5281,0.72,5.3281c-0.216,25.2-0.216,25.2,0,45.36
		c-0.432,4.5359-0.432,4.5359-0.72,16.0559c0.144,15.9841,0.288,31.9681,0.504,48.024c-0.072,0.288-0.216,0.648-0.36,1.008
		c-7.2-0.432-7.2-0.432-9.36-0.936c-0.864,0.072-1.728,0.144-2.592,0.216c-24.48-1.152-24.48-1.152-36-1.44
		c-0.216,0.144-0.432,0.288-0.648,0.432c0,0.504,0.072,1.008,0.144,1.512c3.672-0.072,7.344-0.144,11.016-0.216
		c2.232,0.216,4.464,0.432,6.768,0.72c7.416,0.288,14.832,0.576,22.32,0.936c2.952,0.36,5.904,0.72,8.856,1.08
		c0.072,3.672,0.216,7.344,0.36,11.088c-0.288,10.296-0.288,30.96,0,31.392c0,13.248-0.288,18.72-0.288,27.648
		c0.288,4.752,0.288,4.752,0.288,27.072c-0.144,2.592-0.288,5.256-0.504,7.92c-0.144,0.36-0.288,0.792-0.504,1.224
		c0,5.472,0,11.0161,0,16.5601c0.144,1.944,0.288,3.96,0.504,5.976c-0.072,0.72-0.216,1.512-0.36,2.304
		C251.928,315.648,248.544,315.648,245.16,315.648L245.16,315.648z M315.504,166.608c-0.288-0.4319-0.576-0.864-0.864-1.296
		c-0.216-1.944-0.504-2.448-0.36-3.1681c0.576,0.7201,0.576,0.7201,1.584,4.3201C315.792,166.464,315.648,166.536,315.504,166.608
		L315.504,166.608z M312.408,156.96c-0.432-0.5761-0.432-0.5761-0.864-2.736c0-0.432,0-0.936,0.072-1.44
		c0.36,0.864,0.72,1.728,1.08,2.664C312.696,156.8879,312.696,156.8879,312.408,156.96L312.408,156.96z M222.408,128.808
		c0-0.648-0.072-1.296-0.144-1.944c1.44-7.92,1.44-7.92,2.376-16.056c1.08-4.608,2.232-9.216,3.384-13.896
		c0.432-3.384,3.816-17.7841,8.352-39.6c0.504-1.224,0.72-3.168,3.6-11.52c0.504-2.88,2.448-9.648,2.88-12.024
		c1.008-2.664,2.88-9.36,3.888-11.736c0.144-0.576,0.288-1.152,0.432-1.728c2.88-5.472,3.384-5.976,3.888-7.2
		c0.936-1.512,1.872-3.024,2.88-4.536c0.288-0.072,0.576-0.144,0.864-0.216c0.072,16.7759,0.576,34.992,0.576,46.08
		c-0.144,0.72-0.288,1.4399-0.504,2.16c-2.88,5.76-3.384,6.192-4.32,8.352c-1.944,3.168-2.88,5.328-4.824,8.64
		c-0.936,3.168-0.936,3.168-3.312,8.928c-1.008,1.8719-1.944,5.256-5.76,15.3361c-1.872,4.248-3.816,8.496-5.76,12.744
		c-0.648,1.7999-1.296,3.6-1.944,5.472c-1.944,3.6-3.816,7.92-4.824,9.36C223.2,127.8719,223.2,127.8719,222.408,128.808
		L222.408,128.808z"/>
</g>
</svg>
