<?xml version="1.0" encoding="utf-8"?>
<!-- Generator: Adobe Illustrator 21.1.0, SVG Export Plug-In . SVG Version: 6.00 Build 0)  -->
<svg version="1.1" xmlns="http://www.w3.org/2000/svg" xmlns:xlink="http://www.w3.org/1999/xlink" x="0px" y="0px"
	 viewBox="0 0 101.1656 124.56" enable-background="new 0 0 101.1656 124.56" xml:space="preserve">
<g>
	<path fill-rule="evenodd" clip-rule="evenodd" d="M0.3256,124.56c-0.36-0.36-0.36-0.36-0.288-1.08
		c1.224-0.36,1.224-0.36,7.704-1.08c0.072-0.072,0.144-0.216,0.288-0.36c-0.72-0.432-1.512-0.936-2.304-1.44
		c-0.288-0.72-0.288-0.72-0.288-2.16c0.144-0.36,0.288-0.72,0.504-1.152c0.648-0.432,1.2961-0.936,1.944-1.44
		c0.144-1.296,0.288-2.592,0.432-3.888c0.72-0.432,1.512-0.864,2.304-1.296c0.288-0.504,0.648-1.008,1.008-1.584
		c7.488-20.16,7.776-20.376,18.792-49.896c0.504-0.504,0.504-0.504,4.32-10.08c0.936-3.6,1.224-3.816,1.656-5.976
		c1.008-1.728,1.944-4.32,2.88-5.76c1.944-4.824,3.5999-10.584,3.888-10.8c0.144-0.648,0.288-1.296,0.4319-1.944
		c0.648-1.152,1.2961-2.376,1.944-3.6c1.944-5.256,1.944-5.256,8.64-20.376c0.144-0.144,0.288-0.288,0.504-0.504
		c0.864,0,1.8-0.072,2.736-0.144c1.008,0.504,1.008,0.504,1.8,1.584c0.648,1.656,1.296,3.312,1.944,5.04
		c1.584,6.048,3.168,12.096,4.752,18.216c1.008,2.16,2.88,8.424,3.888,10.8c5.76,18.72,5.76,18.72,6.192,20.88
		c0.288,0.72,0.648,1.44,1.008,2.16c0.144,0.864,0.288,1.728,0.432,2.664c1.944,4.824,1.944,4.824,5.76,16.056
		c1.584,5.616,3.168,11.232,4.824,16.848c3.816,8.136,3.816,8.136,5.184,11.952c0.504,0.0721,1.08,0.216,1.656,0.36
		c0.144,0.216,0.36,0.432,0.576,0.648c0,0.792,0,1.584,0,2.376c-0.288,0.648-0.576,1.296-0.936,1.944
		c-1.44,0.936-2.88,1.872-4.392,2.808c-1.944,2.304-1.944,2.304-3.528,4.824c0,0.36,0.072,0.792,0.144,1.224
		c1.368,0,2.736,0,4.104,0.072c1.296-0.216,2.664-0.432,4.032-0.72c2.088-0.072,4.176-0.144,6.264-0.216
		c0.072,0.864,0.072,0.864-0.216,1.224c-2.016,0.144-4.032,0.288-6.048,0.432c-1.728,0.288-3.456,0.648-5.256,1.008
		c-3.672-0.144-7.344-0.288-11.016-0.504c-13.752,0.288-27.504,0.576-41.328,0.936c-6.48,0.504-6.48,0.504-26.136,1.008
		C2.2696,124.56,2.2696,124.56,0.3256,124.56L0.3256,124.56z M23.8696,121.176c-4.536-0.144-9.072-0.288-13.68-0.432
		c-1.008-0.432-2.016-0.864-3.024-1.296c0-0.288,0-0.648,0-1.008c0.36-0.288,0.72-0.576,1.08-0.864
		c4.104,0.288,4.104,0.288,22.104,0c27.072-1.44,33.12-1.44,39.6-1.872c2.88-0.504,2.88-0.504,7.92-0.72
		c2.952,0,5.904,0.0721,8.856,0.144c-0.576,1.152-1.152,2.376-1.8,3.6c-6.912,0.432-13.824,0.864-20.736,1.296
		c-5.688-0.072-11.376-0.144-17.064-0.288C28.6217,121.176,28.6217,121.176,23.8696,121.176L23.8696,121.176z M22.4296,114.84
		c0-0.36,0-0.72,0.072-1.152c0.216-0.144,0.432-0.288,0.648-0.432c0.936,0,1.872,0.072,2.808,0.144c0,0.288,0.072,0.648,0.144,1.008
		C25.7416,114.696,25.7416,114.696,22.4296,114.84L22.4296,114.84z M37.5496,114.264c-0.36,0-0.792-0.072-1.224-0.144
		c0.072-0.216,0.144-0.432,0.216-0.72c0.864-0.072,1.728-0.216,2.664-0.36c0.216,0.36,0.216,0.36-0.216,0.936
		C38.5577,114.048,38.0536,114.12,37.5496,114.264L37.5496,114.264z M44.9656,114.12c0.072-0.36,0.144-0.72,0.216-1.08
		c1.944-0.504,1.944-0.504,2.88-0.504c0.072,0.072,0.144,0.216,0.288,0.36c-0.288,0.36-0.648,0.72-1.008,1.08
		C46.5496,113.976,45.7576,114.048,44.9656,114.12L44.9656,114.12z M78.3016,111.456c-0.288-0.288-0.576-0.576-0.936-0.936
		c0-0.432,0-0.864,0-1.296c1.944-0.288,1.944-0.288,5.256-0.288c0.072,0.072,0.144,0.216,0.288,0.36
		c-0.648,0.648-1.296,1.368-1.944,2.088C80.0296,111.6,80.0296,111.6,78.3016,111.456L78.3016,111.456z M72.3256,111.096
		c-0.648-0.144-1.296-0.288-1.944-0.432c-0.072-0.288-0.144-0.576-0.216-0.864c1.512-0.072,3.024-0.144,4.536-0.216
		c-0.36,1.224-0.36,1.224-0.72,1.512C73.4776,111.096,72.9016,111.096,72.3256,111.096L72.3256,111.096z M29.8456,110.376
		c-1.08-0.072-2.16-0.144-3.24-0.288c-0.216-1.8-0.432-3.672-0.72-5.544c0.576-0.36,0.576-0.36,5.4-0.648
		c0.936,0.072,1.872,0.144,2.88,0.288c2.52-0.288,5.112-0.648,7.704-1.008c1.224,0,2.52,0,3.816,0
		c0.936,0.288,1.872,0.648,2.88,1.008c2.16,1.152,4.32,2.304,6.48,3.456c0.072,1.224,0.072,1.224-0.216,1.8
		c-2.304,0.144-4.608,0.288-6.984,0.504c-0.72-1.008-1.512-2.016-2.304-3.024c-0.504,0-1.008-0.072-1.512-0.144
		c-2.088,1.008-4.176,2.088-6.264,3.168C35.1737,110.088,32.5097,110.232,29.8456,110.376L29.8456,110.376z M42.0856,110.376
		c0-0.216-0.072-0.504-0.144-0.792c0.576-0.288,1.152-0.576,1.8-0.864c1.224,0,1.224,0,1.584,0.36c0,0.36-0.072,0.72-0.144,1.08
		C44.1737,110.232,43.1657,110.304,42.0856,110.376L42.0856,110.376z M14.5097,110.16c-0.36-0.072-0.72-0.216-1.152-0.36
		c1.728-4.752,1.728-4.752,2.16-6.912c3.888-9.864,4.32-11.52,4.824-12.24c0.936-3.384,0.936-3.384,1.944-5.328
		c2.016-5.472,4.104-11.016,6.192-16.56c0.216-0.216,0.432-0.432,0.648-0.72c-0.36,3.168-0.36,3.168-0.648,3.384
		c-0.576,2.808-1.224,5.616-1.872,8.424c-0.792,5.04-1.584,10.08-2.448,15.12c0,2.232,0,4.464,0,6.696
		c-0.216,0.216-0.432,0.432-0.72,0.72c0,0.72,0.72,1.656,1.44,5.256c0,0.72,0,1.512-0.072,2.304
		C23.8696,110.16,23.8696,110.16,14.5097,110.16L14.5097,110.16z M87.2297,109.944c-0.144-0.072-0.2881-0.216-0.432-0.36
		c0-0.288,0.072-0.576,0.144-0.864c1.0081,0,2.088,0.072,3.168,0.144c-0.432,0.36-0.936,0.72-1.44,1.08
		C88.2376,109.944,87.7337,109.944,87.2297,109.944L87.2297,109.944z M62.9656,108.648c0-0.72-0.072-1.44-0.144-2.16
		c0.36-0.2881,0.36-0.2881,0.72,0c0.072,0.576,0.144,1.224,0.216,1.8719C63.5416,108.432,63.2536,108.504,62.9656,108.648
		L62.9656,108.648z M65.6296,108.36c-0.432-0.936-0.432-0.936-2.808-14.4c-0.144-0.216-0.288-0.432-0.504-0.72
		c-1.872-27.072-2.16-27.792-4.32-62.856c0-5.256,0.288-7.92,0.288-12.24c-0.288-1.44-0.288-1.44-0.504-9.144
		c0.072-1.512,0.216-3.024,0.36-4.536c0.216,0.072,0.432,0.144,0.72,0.216c1.512,5.184,3.096,10.368,4.68,15.624
		c0.288,1.512,0.576,3.024,0.936,4.536c0.288,0.648,0.648,1.296,1.008,1.944c1.872,6.48,2.88,8.64,11.952,37.944
		c0.288,0.216,0.288,0.216,6.048,17.712c1.224,4.392,2.52,8.784,3.816,13.248c1.08,2.592,2.232,5.256,3.384,7.92
		c0.072,1.008,0.216,2.088,0.36,3.168C67.2856,108.504,67.2856,108.504,65.6296,108.36L65.6296,108.36z M59.3656,107.28
		c-0.648-0.144-1.296-0.288-1.944-0.504c-0.36-0.576-0.36-0.576-0.36-2.7361c0.072-0.288,0.216-0.576,0.36-0.936
		c0.72-0.072,1.44-0.144,2.16-0.216c0,1.44,0.072,2.88,0.144,4.32C59.6536,107.208,59.5097,107.208,59.3656,107.28L59.3656,107.28z
		 M54.5416,105.624c-1.152-0.576-2.304-1.152-3.456-1.8c0-0.216-0.072-0.432-0.144-0.72c1.5121,0.072,3.096,0.144,4.6801,0.216
		c-0.072,0.576-0.144,1.152-0.216,1.728C54.7576,105.768,54.7576,105.768,54.5416,105.624L54.5416,105.624z M29.3416,101.52
		c-1.008-0.072-2.016-0.216-3.024-0.36c-0.144-1.08-0.288-2.16-0.432-3.312c0.072-1.872,0.144-3.816,0.216-5.76
		c0.936-6.48,0.936-6.48,1.584-9.144c5.76,1.08,5.76,1.08,7.2,1.08c0.072-0.072,0.144-0.216,0.216-0.36
		c-0.216-0.216-0.4319-0.432-0.72-0.648c-3.6-0.936-3.6-0.936-5.976-1.872c-0.144-0.864-0.144-0.864,0.576-5.184
		c1.944-6.696,2.88-11.016,3.744-13.536c0.72,0,1.44,0,2.16,0c1.224,0.288,2.52,0.576,3.816,0.936c0.648,0,1.296,0,2.016-0.072
		c0-0.288,0-0.576-0.072-0.864c-1.584-0.288-3.168-0.648-4.824-1.008c-0.72-0.288-1.44-0.576-2.16-0.936
		c0-0.4319-0.072-0.864-0.144-1.296c0.648-2.592,1.296-5.256,1.944-7.92c1.944-4.536,1.944-4.536,2.88-7.416
		c0.36-0.432,0.72-0.864,1.08-1.368c4.104,0.72,4.104,0.72,7.488,0.936c0-0.216,0-0.504-0.072-0.792
		c-2.232-0.576-4.4641-1.152-6.696-1.8c0-0.288-0.072-0.576-0.144-0.864c1.44-4.32,1.44-4.32,2.88-7.416
		c0.144-0.864,0.2881-1.728,0.504-2.664c0.7921-2.088,1.656-4.176,2.5201-6.264c2.448-0.072,2.448-0.072,5.7599,0.36
		c0.144-0.144,0.2881-0.36,0.5041-0.576c-0.144-0.144-0.2881-0.36-0.5041-0.576c-2.88-0.504-2.88-0.504-4.32-1.008
		c0-0.288-0.072-0.648-0.144-1.008c2.88-6.984,3.888-8.64,6.624-14.904c0.288-0.072,0.648-0.144,1.008-0.216
		c0.576,18.936,0.576,18.936,1.728,38.16c0.288,0.936,0.72,14.832,1.44,25.2c0,2.952,0,5.904,0,8.856
		c0.216,2.232,0.432,4.464,0.72,6.696c-0.288,0.288-0.576,0.648-0.936,1.008c0,2.88,0,2.88-0.504,8.352
		c-0.432,2.088-0.864,4.176-1.296,6.336C44.0296,100.8,37.9816,101.304,29.3416,101.52L29.3416,101.52z M57.9256,100.296
		c0-0.792-0.072-1.584-0.144-2.448c0.288-1.368,0.576-2.736,0.864-4.104c0.216,0,0.432,0,0.72,0c0.072,1.584,0.216,3.168,0.36,4.824
		c-0.288,1.44-0.288,1.44-0.576,1.728C58.7896,100.296,58.3576,100.296,57.9256,100.296L57.9256,100.296z"/>
</g>
</svg>
