<?xml version="1.0" encoding="utf-8"?>
<!-- Generator: Adobe Illustrator 21.1.0, SVG Export Plug-In . SVG Version: 6.00 Build 0)  -->
<svg version="1.1" id="hu" xmlns="http://www.w3.org/2000/svg" xmlns:xlink="http://www.w3.org/1999/xlink" x="0px" y="0px"
	 viewBox="0 0 412.2884 609.2765" enable-background="new 0 0 412.2884 609.2765" xml:space="preserve">
<g>
	<path fill-rule="evenodd" clip-rule="evenodd" d="M152.7531,573.6727c5.7665,0.4286,5.7665,0.4286,10.0304,1.123
		c2.8156-0.2715,5.7033-0.5311,8.5907-0.79c3.672,0.7438,7.344,1.4876,11.0755,2.3137c1.658,0.1241,3.3157,0.248,5.0558,0.3127
		c1.2889-0.3008,4.2012-0.2642,5.703-0.5301c0.5636-1.2214,0.5636-1.2214,1.6844-2.2794c0.4728-0.2148,0.945-0.4294,1.5007-0.7041
		c1.1004-0.0393,2.2014-0.0785,3.3729-0.1071c2.1682,0.5715,4.3365,1.1437,6.4933,1.7864c9.557,1.3373,9.557,1.3373,13.9023,1.5343
		c2.6773,0.5814,5.4261,1.175,8.1623,1.8395c0.6166,0.2463,1.2322,0.4924,1.838,0.8098c1.4922,0.2427,2.9849,0.4859,4.4765,0.7288
		c2.0364,0.0397,4.0838,0.0083,6.1319-0.0232c4.2639,0.6945,10.9879,1.0596,16.4951,1.7374c5.8635,1.1733,6.609,1.0763,18.69,3.0433
		c5.0371,1.7682,5.0371,1.7682,6.1049,2.3799c-0.1505,0.9238-0.3013,1.8477-0.4629,2.8423
		c0.2727,0.1174,0.6166,0.2463,0.9601,0.3753c0.6579-1.3518,0.6579-1.3518,1.3652-2.1121c0.8529,0.1389,1.694,0.3486,2.535,0.5587
		c-0.0445,0.7223-0.089,1.4442-0.0629,2.1781c1.5458-1.4261,1.5458-1.4261,2.0398-2.2212c0.8759-0.0032,1.7518-0.0062,2.7105-0.0695
		c7.6731,0.8118,15.429,1.5638,23.1848,2.3159c0.5207-0.0609,1.1123-0.1106,1.7155-0.2313c4.051,0.6597,4.051,0.6597,7.5229,1.7354
		c0.8427,0.648,0.8427,0.648,3.8194,2.0809c1.5168,0.5388,3.0342,1.0778,4.5397,1.6875c8.9787,1.7535,10.4465,1.701,13.2891,2.1637
		c1.9883-0.114,1.9883-0.114,13.155,1.1934c7.0486,1.5123,14.0857,3.0957,21.1227,4.6791c2.7499,1.0309,5.4884,2.1339,8.2273,3.236
		c1.2787,0.2084,2.5577,0.4167,3.8486,0.5539c-0.3932-0.7208-1.5319-1.3439-1.6985-1.6628
		c-3.4974-1.3715-6.9944-2.7434-10.4913-4.1154c-1.6344-0.2659-3.2689-0.532-4.9745-0.8099
		c-0.2262-0.4017-0.2262-0.4017,0.1157-0.7106c1.3255-0.0762,2.7221-0.1406,4.1301-0.2761c0.686-0.18,1.3833-0.4312,2.0806-0.6823
		c2.1186-0.0199,4.2378-0.0397,6.368-0.1304c2.0095-0.6939,3.1547-1.4559,4.9397-2.1138c0.3421-0.3093,0.6959-0.6891,1.1205-1.0576
		c0.6857-0.18,1.3716-0.3603,2.069-0.6114c2.6807-1.6793,2.6807-1.6793,4.9583-3.5697c0.7072-0.7603,1.4261-1.5917,2.2159-2.4114
		c1.423-2.4673,1.423-2.4673,2.7122-5.9046c0.8447-5.1879,0.8447-5.1879,1.2036-10.5276c-0.2233-2.6622-0.4345-5.396-0.646-8.1292
		c-0.9683-5.7019-0.9683-5.7019-2.1929-10.2781c-2.6441-7.5064-2.6441-7.5064-5.5216-14.0298
		c-0.942-1.8309-1.955-3.6737-2.9562-5.5876c-3.1071-4.6638-3.1071-4.6638-4.3314-6.1033
		c0.2477-3.3154,0.4365-6.7133,0.6251-10.1111c-0.1953-4.6273-0.1953-4.6273,0.0496-5.6815
		c2.4625,0.1092,2.4625,0.1092,2.8639-0.1174c0.8098-1.838,0.8098-1.838,1.192-4.183c-0.0848-0.3784-0.1576-0.8275-0.301-1.2889
		c-0.6064-0.7554-1.2847-1.5225-1.9616-2.2889c-1.6841-0.8581-3.439-1.7272-5.1829-2.6677
		c-8.5822-3.2939-17.153-6.6589-25.7944-10.0352c-7.2402-2.1271-7.2402-2.1271-13.0014-4.3784
		c0.1735-1.0658,0.3586-2.2031,0.5435-3.3398c-0.0377-0.663-0.0757-1.3255-0.1848-2.0001c-0.286-0.4839-0.5717-0.9683-0.8581-1.4528
		c-0.9255-0.5882-1.91-1.2592-2.895-1.9301c-2.5582-0.4164-2.5582-0.4164-3.8358-0.1868c-0.1652,0.119-0.3305,0.2378-0.5786,0.4164
		c-0.2693,0.7588-0.6213,1.5766-0.9734,2.3947c0.0726,0.4496,0.1338,0.9703,0.2665,1.5023c-0.1638,0.557-0.328,1.1134-0.4915,1.671
		c-2.2737-0.3705-4.5479-0.7407-6.8335-1.0398c-6.2455-1.9652-6.2455-1.9652-8.8033-2.382c-0.3195,0.167-0.3195,0.167-1.3028-0.066
		l-41.2118-28.6126c-2.4678-1.4227-13.9252-9.6891-12.3517-9.7977c0.4447-1.3867,1.7501-3.5813,2.2657-4.9567
		c-0.2265-0.4014-0.5125-0.8855-0.7985-1.3697c-2.4293-0.7603-2.4293-0.7603-4.5609-1.1075
		c-0.4414-0.8745-0.8711-1.8193-1.372-2.7766c-0.3138-1.656-0.6991-3.3239-1.0721-5.0621
		c-3.3034-9.7293-3.3548-10.7595-4.7415-14.3402c-0.1451-0.8994-0.2905-1.7983-0.4958-2.7797
		c-0.4893-1.0281-0.9785-2.056-1.4556-3.1552c-1.2594-4.3631-1.9984-5.6506-2.9103-9.0085c-0.8-1.8079-1.6707-3.6278-2.5302-5.5182
		c-3.3018-9.2917-3.3018-9.2917-3.7298-9.7989c-0.0131-0.367-0.0148-0.8053-0.0167-1.243c-0.4774-1.099-0.955-2.198-1.421-3.3682
		c-4.4107-14.5786-4.8274-15.1565-7.2397-24.0845c-0.2265-0.4017-0.5241-0.815-0.8099-1.2991
		c-1.2231-4.1377-1.6509-4.6451-5.4042-17.4387c-0.4164-0.5786-1.5695-5.1432-5.6001-16.2312
		c-0.489-1.0279-0.9782-2.0557-1.4559-3.1547c-0.5771-2.2827-1.1534-4.5649-1.8011-6.8584
		c-0.7044-1.5007-1.4085-3.0013-2.1833-4.5136c-0.2662-1.5027-1.6166-4.8592-2.8755-9.222
		c-0.7387-1.2873-2.6907-7.2221-3.4886-8.5924c-0.3606-1.3717-0.7801-2.8261-1.1996-4.2803
		c-0.9436-2.2688-1.8871-4.5379-2.8313-6.8074c-0.3487-1.4428-0.7684-2.8973-1.188-4.3514
		c-1.7583-4.8818-3.5878-9.7756-5.406-14.7405c-0.5417-2.4956-0.5417-2.4956-2.5744-7.9328
		c-0.7982-1.3699-0.7982-1.3699-4.7478-12.9554c-0.337-1.5134-0.7455-3.039-1.1537-4.5643
		c-0.5009-0.957-1.0015-1.9139-1.5021-2.8706c-0.8382-2.4707-1.7464-4.9536-2.6441-7.5064c-0.3852-1.6676-0.7702-3.335-1.1435-5.074
		c-1.3864-3.5813-3.8339-12.2953-7.1379-22.0252c-0.0723-0.4493-0.133-0.97-0.1948-1.4905
		c-0.5003-0.957-1.0012-1.9138-1.4905-2.9418c-0.5765-2.2825-2.0324-5.4374-2.6093-7.7202
		c-1.3502-3.3562-2.7715-6.7241-4.1812-10.1633c-1.2594-4.3634-3.9843-11.3723-5.2089-15.9489
		c-1.3867-3.5807-1.3867-3.5807-2.6093-7.7193c-0.9666-2.1268-1.9222-4.3251-2.8775-6.5231
		c-1.0312-3.5234-2.0506-7.1183-3.0705-10.7123c-0.4774-1.0993-0.955-2.198-1.421-3.3684
		c-1.6427-5.5925-3.3568-11.1968-5.0584-16.8721c-0.8495-2.3995-1.7697-4.8113-2.679-7.2936
		c0.0102-0.5088,0.0317-1.0885,0.053-1.6688c-0.9765-1.618-0.9765-1.618-3.3911-7.8469
		c-2.5282-8.2171-3.9147-11.7987-12.9214-39.818c-0.428-0.5074-2.9217-8.9377-8.3271-23.6778
		c-2.7598-6.796-2.7598-6.796-5.4059-14.7401c-0.4805-1.9752-0.9496-4.021-1.4193-6.067c0.1618-0.995,0.4099-1.1736,0.5091-3.1269
		c-0.9884-1.5472-1.9766-3.0938-3.0243-4.7234c-0.8067-0.4235-1.601-0.9172-2.4673-1.4226
		c-1.4216-0.2319-2.8426-0.4632-4.2639-0.6945c-0.3305,0.2379-0.6729,0.5471-1.086,0.8444c-0.6857,0.1799-1.372,0.36-2.0693,0.6118
		c-1.0973,0.9153-1.0973,0.9153-2.8043,3.3364c-0.8101,1.8376-0.8101,1.8376-1.0414,3.2593c0.5703,0.53,1.8626,1.1052,4.6772,3.5334
		c0.2628,0.6262,0.2628,0.6262-0.0842,2.7584c-5.1551,7.9138-5.1551,7.9138-10.6586,17.5226
		c-0.4807,1.1617-0.9734,2.395-1.5372,3.6161c-0.4711,0.6526-1.0131,1.2938-1.5551,1.9352
		c-2.8891,6.0948-4.2659,8.2781-5.6988,11.2544c-0.6131,0.6296-3.4554,6.4407-4.7979,8.4108
		c-1.4675,3.1895-1.4675,3.1895-4.1615,7.6382c-1.5715,3.829-1.5715,3.829-2.2657,4.9564c-1.0052,3.4834-2.5781,6.8749-3.1037,8.759
		c-0.1774,0.1899-0.3538,0.3804-0.6134,0.6295c-5.591,14.6277-11.1821,29.2553-16.8565,43.9424
		c-1.3334,4.1599-2.6674,8.3201-4.0014,12.479c-2.0182,7.9147-2.0182,7.9147-3.4688,15.484
		c-4.1868,13.6162-4.1868,13.6162-6.9273,21.4863c-3.1218,16.4883-3.6028,17.6502-3.9033,19.4978
		c0.0836,0.379,0.1562,0.8278,0.3005,1.2892c-0.7572,3.3049-1.5256,6.6818-2.3647,10.0466
		c-0.4153,2.9959-0.8303,5.9922-1.2566,9.0598c-0.9173,4.7381-1.8465,9.5473-2.7751,14.3563
		c-0.4379,3.1385-0.8881,6.3482-1.3374,9.5576c-0.3733,1.3978-0.7469,2.7961-1.1917,4.1828
		c-0.8458,4.7497-1.7042,9.5706-2.5617,14.3915c-3.2068,25.52-3.2068,25.52-2.992,25.9928
		c-0.1587,1.8709-0.3291,3.8123-0.4992,5.7549c0.0213,5.6931,0.0428,11.3867,0.1352,17.0918
		c-0.3818,2.3451-0.3818,2.3451-0.1967,4.3447c0.3815,0.7917,0.3815,0.7917,0.3915,3.4192
		c-0.3206,2.8658-0.6412,5.7316-0.8906,8.6088c-0.2466,6.8901-0.5043,13.851-0.6917,20.8236
		c-0.3815,2.3451-0.7634,4.6907-1.1568,7.1061c-0.5457,9.1755-0.3141,10.8913-1.5559,30.1663
		c-0.1602,7.7063-0.2608,15.4953-0.362,23.2844c-0.2282,2.2972-0.4564,4.5944-0.6137,6.9032
		c0.1902,6.4505,0.4513,12.9121,0.7124,19.3743c-0.4283,5.7657-0.4283,5.7657-0.303,7.6833c0.648,2.2935,0.648,2.2935,1.0281,5.7841
		c-0.0927,0.5686-0.256,1.1257-0.4317,1.7535c-2.5101-0.2628-5.0913-0.5372-7.6728-0.8116
		c-3.8707,0.0267-7.7414,0.0527-11.6827,0.0678c-0.7089,0.3223-1.4182,0.644-2.2096,1.0261
		c-0.0697,0.4263-0.1508,0.9238-0.2316,1.421c0.3818,0.7917,0.3818,0.7917,1.5106,1.9242c1.9681,0.9037,3.9365,1.8082,5.8935,2.7827
		c1.0443,0.754,2.1484,1.5899,3.2525,2.4268c0.8441,1.0854,1.6889,2.1711,2.6045,3.2689c-0.0346,0.2132-0.0808,0.4972-0.1273,0.7812
		c-2.1555-0.2044-4.3103-0.4096-6.4769-0.5439c-3.7315-0.8257-3.7315-0.8257-5.472-0.8907
		c-0.2367,0.1072-0.4839,0.286-0.8033,0.4527c-0.0575,0.3557-0.1273,0.7818-0.2676,1.1965
		c0.1077,0.2364,0.2854,0.4842,0.4527,0.8033c2.2068,1.2339,2.2068,1.2339,5.8932,2.7834c2.524,0.6296,2.524,0.6296,8.9722,3.1385
		c4.1649,2.6478,4.1649,2.6478,5.436,3.803c0.1916,0.6148,0.3716,1.3005,0.5519,1.9862c0.5122,0.8861,1.0239,1.7717,1.5364,2.6575
		c1.724,5.0956,3.4359,10.2614,5.2191,15.4395c0.3371,1.5137,0.6744,3.0274,1.0114,4.5414
		c-0.4626,2.8428-0.4626,2.8428-1.3173,5.4025c-0.4034-0.2115-0.8776-0.4345-1.3518-0.6579
		c-0.2248,0.0366-0.4496,0.0728-0.7571,0.1686c-0.2446,1.0542-0.1122,1.5865-0.3339,2.4993
		c-0.2364,0.1068-0.4728,0.2143-0.7914,0.3818c-0.1386,0.8518-0.3486,1.6937-0.5587,2.535c-0.248,0.1783-0.4961,0.3566-0.8263,0.595
		c0.2823,2.7448,0.2823,2.7448,0.1321,3.6689c-0.3421,0.3087-0.6956,0.6891-1.1205,1.0573
		c-0.8875,0.0743-1.7864,0.2194-2.6855,0.3651c-1.8312,0.942-1.8312,0.942-3.1201,1.243c-1.1602-0.0431-2.3913-0.0978-3.623-0.1522
		c-0.1882,0.261-0.3764,0.5222-0.5652,0.7835c0.2149,0.4725,0.4297,0.9453,0.7155,1.4295c1.4729,1.2614,1.4729,1.2614,2.8244,1.9185
		c1.3983,0.3739,2.7964,0.7473,4.1828,1.1923c0.8444,1.0854,0.8444,1.0854,2.317,2.3466c0.5635,1.9156,0.5635,1.9156,2.1008,4.5728
		c0.3798,0.3538,0.7486,0.7781,1.1171,1.2033c1.8264,0.881,3.7233,1.7734,5.6202,2.666c1.26,1.2263,1.26,1.2263,3.7389,2.5781
		c1.5168,0.5386,3.0339,1.0778,4.5394,1.6872c0.5227,0.377,1.0329,0.8246,1.544,1.2731c1.73,0.5734,3.4603,1.1469,5.25,1.8028
		c21.7639,5.2212,22.4286,5.6208,25.7681,6.1651c1.5409,0.3969,3.081,0.7932,4.6922,1.2013
		c1.0196,0.4581,2.0276,0.9868,3.1073,1.5276c0.7832,0.5649,1.5545,1.201,2.397,1.849c1.7062,0.2778,3.4121,0.5553,5.1882,0.8447
		c1.6364,0.7041,2.4789,1.3521,8.5623,4.3121c1.671,0.4907,3.3418,0.9816,5.072,1.5551c2.274,0.3702,4.5482,0.7404,6.8933,1.1226
		c1.3519,0.6577,1.3519,0.6577,3.4838,1.0046c0.5933,0.3887,1.1863,0.777,1.7802,1.165c-0.0349,0.2134,0.0011,0.4382,0.0261,0.7339
		c-0.4728,0.2151-1.0278,0.489-1.5832,0.7637c-0.5803-0.0215-1.2311-0.0544-1.8938-0.0165c-0.815,0.5236-1.438,1.6622-2.0758,1.9962
		c0.0164,1.2427,0.0164,1.2427,0.7086,2.8145c0.2381,0.33,0.5471,0.673,0.8445,1.0857c0.4975,0.0814,0.9836,0.233,1.4695,0.3853
		c0.4839-0.2866,1.0511-0.631,1.618-0.9766c2.8077,0.6758,3.7664,0.6132,5.6503,1.1387c1.3502,0.2197,2.7006,0.4394,4.062,0.5882
		c0.0017,0.4382,0.0632,0.9589,0.1242,1.4794c1.4808,0.3141,1.4808,0.3141,2.5449,0.0499c0.9006,0.2922,1.8017,0.5851,2.7734,0.8889
		c0.2497,0.2594,0.4989,0.519,0.748,0.7784c-0.0346,0.2132-0.0689,0.4263-0.1154,0.7106c-0.3302,0.2378-0.7319,0.4644-1.1452,0.762
		c-0.0465,0.2841-0.104,0.6395-0.1618,0.9946c0.1783,0.248,0.3566,0.4964,0.5236,0.815c1.0545,0.2446,2.109,0.4896,3.2227,0.8163
		c0.1673,0.3189,0.3226,0.709,0.5488,1.1104c4.2639,0.6945,11.9832,1.222,12.3752,1.5044c1.552,0.3257,3.1034,0.6516,4.7262,0.9884
		c0.6301,0.6132,0.6301,0.6132,2.8942,1.4924C151.6161,573.4879,152.185,573.5806,152.7531,573.6727L152.7531,573.6727z
		 M153.4921,571.8243c1.2889-0.3011,1.2889-0.3011,2.497-0.1043c0.167,0.3188,5.7198,0.712,6.1118,0.9949
		c1.0063,0.0907,2.0837,0.1933,3.1612,0.2953c1.2546-0.0873,2.5801-0.1632,3.9169-0.3101c0.165-0.119,0.3305-0.2379,0.5783-0.4167
		c2.6399-0.0808,2.6399-0.0808,5.055,0.3127c0.6883,0.258,1.3759,0.5159,2.0517,0.8444c1.7056,0.2778,3.4106,0.5557,5.1877,0.8445
		c0.4016-0.2262,0.8742-0.4408,1.3583-0.7268c1.114,0.3271,2.299,0.6661,3.4841,1.0049c0.8756-0.0034,1.7626-0.0776,2.6507-0.152
		c-0.0017-0.4379,0.0085-0.947-0.0527-1.4674c-0.273-0.1177-0.5338-0.3059-0.7951-0.4941
		c-3.3996-0.6265-6.7989-1.2532-10.1982-1.8796c-0.9008-0.2925-1.8017-0.5851-2.7621-0.9601
		c-1.1747-0.8481-2.4208-1.7073-3.6672-2.5665c-1.6591-0.5621-3.3894-1.1358-5.1078-1.7805
		c-4.1105-0.7421-8.2916-1.4955-12.473-2.2493c-1.8822-0.0876-3.8356-0.1868-5.8008-0.2151
		c-5.6849-0.9255-5.6849-0.9255-10.8629-2.2791c-0.1896-0.1766-0.3804-0.3538-0.6301-0.6134
		c0.0913-1.006,0.0913-1.006,0.5159-1.3748c0.2959-0.025,0.5919-0.0493,0.8991-0.1454c0.0578-0.3552,0.0448-0.7223,0.0431-1.1602
		c-1.1384-0.6228-14.1151-4.7053-18.6548-6.3927c-0.2498-0.2596-0.5704-0.5306-0.8793-0.8728
		c-6.0307-1.4924-6.0307-1.4924-7.9841-1.5914c-0.1531,0.0479-0.3076,0.0955-0.5437,0.2032c2.3978,1.8491,2.3978,1.8491,5.72,3.8492
		c-0.0584,0.3552-0.0451,0.7217-0.0318,1.0885c-1.2974,1.248-1.2974,1.248-2.4792,1.7855c-0.1154,0.7106-0.2313,1.421-0.2872,2.2141
		c2.3695,0.6775,2.6291,0.4281,3.837,0.6251c0.3801,0.3532,0.3801,0.3532,5.6852,0.9255c0.1902,0.1769,0.3801,0.3538,0.6296,0.6131
		c1.7059,0.2778,3.4115,0.5551,5.188,0.8445c0.7583,0.2695,1.5171,0.5388,2.2637,0.8793c0.2863,0.4841,0.6316,1.0511,0.9771,1.618
		c0.7583,0.2695,1.5171,0.5386,2.2754,0.8082c-0.0808,0.4974-0.0904,1.0063-0.1122,1.5865
		c-0.1653,0.119-0.3305,0.2381-0.5074,0.4283c0.0479,0.1536,0.167,0.3186,0.2744,0.5551c0.9833,0.2333,1.9667,0.4663,3.0098,0.7818
		c0.178,0.248,0.3563,0.496,0.5947,0.8266c1.5749,0.1833,3.1499,0.3668,4.7251,0.5502c4.201-0.2639,4.201-0.2639,5.4091-0.0681
		c0.2262,0.402,0.4524,0.8033,0.7384,1.288c0.6874,0.2577,1.3754,0.5154,2.0515,0.8445c0.1071,0.2361,0.2146,0.4725,0.3815,0.7914
		C151.7865,571.5462,152.6394,571.6848,153.4921,571.8243L153.4921,571.8243z M393.8584,608.5505
		c1.6093-0.0295,3.2304-0.1301,4.9229-0.2197c0.9238,0.1505,1.8476,0.3008,2.8429,0.4629c1.1829-0.0989,2.4375-0.1865,3.7034-0.3452
		c2.1436,0.2764,4.2869,0.5519,6.4304,0.828c0.1769-0.1899,0.3535-0.3801,0.5303-0.5701c-0.0133-0.3671-0.0261-0.7336-0.0992-1.1829
		c-1.5171-0.5392-3.0342-1.078-4.5513-1.6166c-0.2832,0.3912-0.5769,0.8543-0.942,1.3054
		c-1.5018,0.2662-3.3503-0.0349-4.1301,0.2758c-1.9647-0.0281-1.9647-0.0281-2.2127,0.1506
		c-0.9952-0.1618-2.0608-0.3356-3.1272-0.5091c-0.4014,0.2264-0.8033,0.4527-1.2872,0.7386
		c-0.9603-0.375-0.9603-0.375-2.4046-0.4642c-0.3305,0.2378-0.6613,0.4759-1.0743,0.7729
		C392.8862,608.2469,393.3723,608.3986,393.8584,608.5505L393.8584,608.5505z M234.4904,577.9352
		c1.4561,0.0184,2.9123,0.0366,4.3798-0.0164c10.0182,1.1937,10.9888,1.0599,17.4535,1.6744
		c0.6764,0.3295,0.6764,0.3295,18.9743,3.0895c4.621,1.1897,5.9613,1.9193,11.1044,3.4855
		c11.2365,0.8815,11.7799,0.6777,15.5812,1.078c0.557,0.1636,1.1135,0.3268,1.6708,0.4907
		c0.8759-0.0028,1.7518-0.0068,2.6277-0.0096c4.7268,0.9882,4.7268,0.9882,8.1014,1.3187c0.8047-0.0148,1.6096-0.0292,2.4262-0.1154
		c6.3133,1.1007,12.6263,2.2017,18.9394,3.3024c9.5207,1.1126,9.5207,1.1126,16.956,1.5937
		c1.0417-0.1228,4.0972,0.375,4.6295,0.2429c0.9947,0.1619,1.99,0.3237,3.0674,0.4263c0.046-0.2846,0.1041-0.6392,0.091-1.0063
		c-4.5797-2.7882-9.2302-5.588-13.8691-8.4589c-3.5036-3.1235-7.0665-6.3295-10.6299-9.5361
		c-1.1154-0.7651-2.2907-1.6129-3.4654-2.4614c-0.2381-0.3302-0.4646-0.7316-0.762-1.1446c-3.5373-2.473-3.5373-2.473-5.4371-4.2411
		c-1.6725-0.9284-3.3452-1.8573-5.0887-2.7975c-1.4213-0.2316-2.8426-0.4629-4.2639-0.6945
		c-2.8888-0.1786-5.7773-0.3572-8.678-0.4643c-36.3237-5.4034-36.9995-5.7325-43.0039-6.491
		c-7.0951-1.2283-14.1899-2.4562-21.2845-3.6842c-1.2563-0.3503-2.5832-0.7126-3.8987-1.1455
		c-6.1821-1.0063-19.1064-3.6212-19.4372-3.3831c-7.3559-1.4167-14.7115-2.8336-22.1272-4.3322
		c-1.5993-0.4793-3.1992-0.9587-4.8583-1.5208c-4.9518-0.9519-9.9031-1.9041-14.8428-2.9268
		c-17.7477-4.3489-17.7477-4.3489-21.2198-5.4244c-3.8857-0.7789-7.8423-1.569-11.7986-2.3581
		c-2.0625-0.7745-4.1136-1.6189-6.1642-2.4633c-2.1798-0.5009-4.3597-1.0015-6.5282-1.5735
		c-3.7814-1.4182-7.6334-2.848-11.4857-4.2775c-8.2403-3.6025-16.4803-7.2056-24.7088-10.8793
		c-1.3056-0.9423-3.3678-1.7156-3.9977-2.3293c-5.9513-2.4276-6.7941-3.0756-8.6437-3.8143
		c-0.6299-0.6134-5.3728-2.8443-7.1411-4.0802c-1.7436-0.9405-3.558-1.8927-5.3728-2.8445c-1.8394-1.2481-3.75-2.5075-5.6486-3.8376
		c-1.0199-0.4581-2.1104-0.9272-3.1895-1.4678c-3.454-2.5322-7.6895-5.191-10.0168-7.0291
		c-4.6741-2.6572-4.6741-2.6572-28.1923-18.1584c-0.2134-0.0349-0.4266-0.0695-0.7225-0.0443
		c0.4663,1.1699,0.9323,2.34,1.3981,3.5102c2.2793,1.6838,4.5584,3.3681,6.9083,5.0638
		c18.2962,11.7323,19.8615,12.4251,37.4471,24.0421c1.4462,0.5272,2.8809,1.1248,4.3152,1.7238
		c1.2574,0.7883,2.5038,1.6478,3.75,2.507c1.046,1.1917,1.046,1.1917,2.7431,2.4165c6.3448,3.1482,12.7601,6.3082,19.1758,9.4686
		c0.8413,0.21,1.6824,0.4195,2.5234,0.6298c0.2364-0.1077,0.4731-0.2151,0.792-0.3818c0.4263,0.0692,0.9235,0.1502,1.4213,0.2313
		c6.3672,3.0062,6.3672,3.0062,8.0652,4.2307c0.5468,0.6727,1.0936,1.3453,1.6407,2.0182c2.5367,0.9961,5.133,2.0756,7.7295,3.1547
		c8.4977,2.9155,16.996,5.8312,25.5532,8.8288c0.6395,0.1046,1.279,0.2086,1.9188,0.3127c0.2364-0.1074,0.4728-0.2146,0.7917-0.3818
		c4.9745,0.8101,4.9745,0.8101,10.7918,2.268c0.843,0.6477,1.6739,1.3666,2.5764,2.097c0.1074,0.2361,0.2149,0.4726,0.3818,0.7914
		c1.1021,0.3986,2.2756,0.8087,3.4379,1.2895c5.9819,1.3388,12.0243,2.7604,18.0666,4.1814
		c3.6241,0.5901,7.2482,1.1804,10.8731,1.7708c0.6985,0.1862,1.3861,0.4442,2.0735,0.7018
		c-0.0578,0.3555-0.0558,0.7937-0.0541,1.2316c-0.6863,0.18-0.6863,0.18-10.6353-1.44c-14.241-3.4858-14.241-3.4858-22.7225-5.1584
		c-1.4394,1.2249-1.4394,1.2249-2.444,1.5718c-0.8646-0.0677-1.7289-0.1355-2.664-0.2148
		c-2.9052-1.4216-2.9052-1.4216-7.5166-3.1198c-1.6852-1.2963-1.6852-1.2963-2.7202-2.5591
		c-0.1074-0.2361-0.2032-0.5434-0.3702-0.8625c-3.1649-1.1719-6.4006-2.355-9.6366-3.5385
		c-3.4835-1.0049-6.956-2.0809-10.4284-3.1566c-5.2268-1.9454-10.514-3.9734-15.8009-6.0013
		c-0.4014,0.2263-0.8147,0.5239-1.2988,0.8096c-0.3668,0.013-0.8048,0.0153-1.2427,0.0167
		c-1.9916-0.7619-3.9716-1.5947-5.9513-2.4279c-0.3801-0.3541-0.8314-0.7192-1.2708-1.1554
		c-0.2511-0.6973-0.5029-1.395-0.8246-2.1036c-10.116-5.0757-10.116-5.0757-14.2294-6.694
		c-2.8823-1.563-5.7529-3.1978-8.6947-4.8441c-0.6398-0.1041-1.2909-0.1367-1.9415-0.1701
		c-0.2364,0.1075-0.4845,0.286-0.8033,0.4527c-1.6957-0.7866-3.4509-1.656-5.2061-2.5254
		c-0.4414-0.8742-0.9417-1.8312-1.4426-2.7878c-1.5318-1.3439-1.5318-1.3439-13.7435-9.6783
		c-1.6361-0.7041-1.6361-0.7041-18.5905-11.27c-3.2873-2.2127-6.5744-4.4254-9.8498-6.7099
		c-0.3557-0.0576-0.7815-0.1273-1.1965-0.2679c0.5057,2.2708,0.5057,2.2708,3.1961,9.4935c0.273,0.1171,0.5454,0.2344,0.8181,0.3515
		c0.3172-0.6049,0.6347-1.2096,1.0346-1.8743c0.3555,0.0581,0.7106,0.1159,1.137,0.1851c1.8161,1.3904,3.6323,2.7802,5.4368,4.2412
		c1.3257,3.0605,1.3257,3.0605,2.8627,5.7183c7.8234,9.2979,7.8234,9.2979,12.3157,13.9689
		c0.2143,0.4722,0.4178,1.0159,0.6919,1.5715c5.2143,4.7151,5.2143,4.7151,12.7057,10.6761
		c4.6735,2.6575,8.0646,4.2316,12.2408,6.8074c2.0991,0.9987,4.1981,1.9964,6.3678,3.0064
		c5.2075,2.9636,10.4859,5.9386,15.7643,8.9133c1.4465,0.5272,2.8925,1.0547,4.398,1.6645
		c1.9814,1.2711,1.9814,1.2711,7.1626,3.5005c0.1074,0.2358,0.2032,0.5436,0.3702,0.8625c2.251,0.5125,4.502,1.0244,6.8122,1.6198
		c1.0678,0.6114,2.1949,1.3056,3.3219,1.9995c4.6341,1.5571,9.339,3.1255,14.0443,4.6942c1.669,0.053,1.669,0.053,7.5574,1.5219
		c0.3322,0.2002,0.6528,0.4712,0.9734,0.7421c-0.1173,0.2727-0.246,0.6166-0.375,0.9604c-0.3665,0.0133-0.7342,0.0264-1.1832,0.0992
		c-0.4232,0.8065-1.0012,1.2231-1.023,1.8028c1.4805,0.3141,2.9613,0.6282,4.5136,0.9536c5.4703,0.4529,5.4703,0.4529,7.6828,0.3027
		c4.9393,1.023,5.472,0.8906,17.1895,3.7468c0.5335,0.3062,1.1384,0.6231,1.7317,1.0118c5.4723,0.8906,9.6897,1.8694,10.2334,1.6653
		c1.5883,0.5513,6.5625,1.3611,9.3359,2.2501c0.6049,0.3171,1.2093,0.6346,1.8029,1.023c2.2147,0.2874,4.4294,0.5751,6.6435,0.8626
		c1.8842,0.5258,3.8393,1.0627,5.7833,1.6713c8.3489,1.1404,8.3489,1.1404,12.4804,1.3022c2.2624,0.441,4.5249,0.8827,6.7879,1.3241
		c0.5454,0.2347,1.0905,0.4691,1.6242,0.7753C231.1736,577.2495,232.7964,577.5868,234.4904,577.9352L234.4904,577.9352z
		 M377.9779,597.2117c1.7997,0.1468,3.5989,0.2939,5.4819,0.3818c1.2889-0.301,1.2889-0.301,4.2007-0.2645
		c0.5905-0.4875,1.2515-0.9632,1.9125-1.4395c0.3784-0.0839,0.8277-0.1567,1.277-0.2296c0.1176-0.2723,0.3062-0.534,0.4947-0.795
		c1.3005-0.3719,2.6016-0.7435,3.9841-1.1747c0.8268-0.5953,1.6534-1.19,2.4795-1.785c1.0607-1.1403,2.1931-2.2691,3.3366-3.4688
		c0.4349-0.8773,0.9409-1.7435,1.4579-2.6807c0.9238-2.9863,0.9238-2.9863,1.8148-8.4586c0.1525-6.7589-0.114-8.2616-0.1123-10.9601
		c-0.3501-1.8805-0.7002-3.7613-1.0395-5.7136c-0.6344-1.9266-1.2571-3.9248-1.8805-5.923
		c-0.2015-0.1055-0.4031-0.2114-0.6758-0.3285c-0.2546,1.5633-0.438,3.1379-0.6216,4.7129c0.0295,1.6098,0.1307,3.2312,0.22,4.9235
		c-0.3127,1.9188-0.6364,3.9087-0.9607,5.8983c-0.6591,0.9139-0.6591,0.9139-3.2377,7.7891
		c-0.8359,1.1038-1.6843,2.2787-2.6027,3.4421c-5.421,3.2757-7.206,3.9333-8.4229,4.6833
		c-1.6554,0.3141-3.3112,0.6282-4.9788,1.0134c-2.2838,0.1385-4.5797,0.3486-6.8751,0.5584
		c-2.5469-0.4876-5.1645-0.9868-7.7823-1.486c-5.0374-1.7685-5.0374-1.7685-8.0024-3.2726
		c-2.3615-1.6245-4.7826-3.3315-7.2037-5.0389c-2.5305-2.382-2.5305-2.382-5.7821-4.8079c-0.8217-1.2283-1.6316-2.527-2.5123-3.8378
		c-6.3938-6.8763-6.3938-6.8763-9.2086-9.3044c-0.9247-0.5882-1.8394-1.2478-2.8242-1.9185
		c-0.6279-0.1757-1.256-0.3506-1.8842-0.5261c-0.2364,0.1074-0.4725,0.2151-0.7917,0.3821
		c-3.8352-0.1868-3.8352-0.1868-5.3382,0.0793c-2.1317-0.3467-4.2639-0.6942-6.3955-1.0414
		c-3.4441,0.0955-6.9594,0.1799-10.4746,0.2642c-9.273-1.2909-9.273-1.2909-14.4966-2.3604
		c-1.9177,0.1255-7.2227-0.4465-10.3476-0.5173c-21.037-3.8627-21.037-3.8627-25.5487-4.3781
		c-4.396-1.2266-4.396-1.2266-27.6968-5.9686c-0.3538,0.3801-0.79,0.8195-1.2263,1.2595c-0.2132-0.0352-0.4263-0.07-0.7109-0.116
		c-0.2741-0.5553-0.5369-1.1818-0.8708-1.8195c-2.4871-0.4048-5.0457-0.8212-7.6036-1.2379
		c-2.0971-0.5604-4.1945-1.1208-6.2802-1.7521c-3.9201-0.5652-7.9109-1.1421-11.9024-1.7189
		c-0.1769,0.1902-0.3541,0.3801-0.5423,0.6412c-0.2959,0.025-0.6624,0.0383-1.0295,0.0513
		c-0.2381-0.3305-0.4762-0.6613-0.7733-1.0746c-6.5991-1.5848-13.1865-3.2411-19.8451-4.9082
		c-2.2278-0.6548-4.4442-1.3805-6.7318-2.1174c-9.3821-1.9653-10.7569-2.4812-17.3673-3.9952
		c-8.0818-2.3366-8.0818-2.3366-16.662-5.1928c-0.6415-0.5417-0.6415-0.5417-12.3287-4.9249
		c-1.2098-0.6349-2.4789-1.3522-3.7482-2.0693c-2.228-0.6545-4.4561-1.3091-6.7431-2.0461
		c-4.0192-1.7487-8.0269-3.5685-12.0345-5.3878c-5.7478-1.8845-5.7478-1.8845-9.364-3.4214
		c-1.9698-1.3419-1.9698-1.3419-6.0024-3.4574c-1.2331-0.4926-2.4659-0.985-3.687-1.5486
		c-3.9512-2.613-8.8384-5.3053-14.9845-9.2237c-0.8297-0.2815-1.6594-0.5624-2.5486-0.9261
		c-0.2376-0.3302-0.476-0.6607-0.7733-1.0737c-3.5252-2.5438-3.5252-2.5438-7.7527-6.1498c-4.4487-2.694-4.4487-2.694-7.7009-5.1202
		c-0.8201-0.79-1.6396-1.5803-2.5305-2.3817c-3.9512-2.613-3.9512-2.613-5.7773-3.4943c-0.4813,1.1625-0.4813,1.1625-0.9655,1.4482
		c-0.2132-0.0349-0.4266-0.0694-0.7104-0.1157c-0.3832-1.2299-0.7671-2.459-1.1503-3.689
		c-2.5302-2.3814-2.5302-2.3814-6.3876-5.1248c-0.2846-0.0462-0.5686-0.0927-0.9238-0.1505
		c-0.402,0.2262-0.8858,0.5117-1.3703,0.7982c-3.1249-0.0712-3.1249-0.0712-4.4022,0.1584
		c-0.5063,0.8663-0.5063,0.8663-0.703,2.0741c2.0064,1.5667,4.0842,3.1453,6.1614,4.7234
		c8.1989,5.2013,16.3976,10.4023,24.6557,15.6861c3.2408,2.497,3.2408,2.497,11.4398,7.6983
		c2.9052,1.4216,6.6433,3.9997,16.4055,9.455c11.7405,5.851,11.7405,5.851,16.6275,8.5433
		c7.2913,3.157,8.3472,3.839,32.0811,13.5394c5.2027,1.6489,10.476,3.3103,15.7502,4.9711
		c1.4919,0.2429,2.9846,0.4861,4.4767,0.7294c6.7887,1.7614,13.6491,3.5351,20.5095,5.3087
		c13.3863,2.9083,26.7729,5.8173,40.1595,8.7264c8.9306,1.6002,17.9329,3.2114,26.9351,4.8234
		c2.6654,0.6522,5.3314,1.3054,7.9855,2.0293c16.5118,2.9798,16.5118,2.9798,20.6085,3.3554
		c14.023,2.137,28.1169,4.2857,42.211,6.4344c9.1868,0.4745,9.1868,0.4745,12.9532,1.0876c1.1732,0.4102,2.418,0.8317,3.651,1.324
		c0.2262,0.4017,0.5122,0.8856,0.798,1.37c2.7433,2.4163,4.7248,3.6871,7.255,6.069c0.2381,0.3303,0.4762,0.6608,0.7738,1.074
		c0.8062,0.4232,1.6126,0.8462,2.4789,1.3516c3.5745,3.1354,7.2085,6.3536,10.8428,9.5709
		c2.7167,1.6826,5.4221,3.4362,8.1275,5.1899c5.3728,2.844,5.3728,2.844,6.9282,4.0456c3.1283,0.9473,6.2453,1.9653,9.4329,2.9948
		C374.0329,596.3507,376.0112,596.7456,377.9779,597.2117L377.9779,597.2117z M103.6999,547.8871
		c1.148,0.1146,2.2969,0.2285,3.4571,0.2713c0.0459-0.2843,0.0215-0.5803-0.0037-0.8759
		c-7.5853-2.6937-7.5853-2.6937-16.1927-6.2838c-0.1896-0.1772-0.3798-0.3535-0.6296-0.6129
		c-1.1254-0.2563-2.3219-0.5242-3.5184-0.7917c-1.6016-0.9173-3.274-1.8459-4.9465-2.7748c-1.6163-1.722-1.6163-1.722-2.9565-2.4511
		c-5.1086-1.7798-5.1086-1.7798-6.4485-2.509c-0.2381-0.3305-0.4762-0.6607-0.7736-1.0737
		c-2.5979-1.5177-5.1843-3.1059-7.7709-4.6942c-2.7729-0.8892-2.7729-0.8892-6.5903-2.5322
		c-0.5939-0.3884-1.1869-0.7764-1.7685-1.236c-0.2265-0.4017-0.4527-0.8033-0.7506-1.2166
		c-0.0011-0.4371-0.0626-0.9584-0.1239-1.4788c-0.2262-0.4017-0.453-0.8031-0.7384-1.2878c-1.281-0.6461-2.6328-1.3036-3.973-2.0328
		c-0.1208-0.6031-0.3124-1.2174-0.4921-1.9034c-2.5271-1.506-5.125-3.0231-7.7233-4.5402c-1.1027-0.3983-2.1932-0.868-3.2839-1.3371
		c0.2322-1.421,0.5621-1.6594,0.9094-3.7911c-0.3685-0.4252-2.2164-0.7256-2.8454-1.3388c0.034-0.2132,0.0096-0.5088-0.0153-0.805
		c1.1917-1.046,1.1917-1.046,2.6098-1.6906c0.1613-0.9947,0.4062-2.0492,0.6508-3.1034c-0.3353-1.076-1.1089-2.1503-2.067-5.2245
		c-1.5058-0.6097-1.5058-0.6097-2.3848-1.4825c-0.853-0.1386-1.6943-0.3487-2.5353-0.5584
		c-0.1638,0.557-0.3986,1.1024-0.6333,1.6478c-0.3419,0.3093-0.684,0.618-1.1092,0.9867c-0.2577,0.6874-0.5154,1.3745-0.8445,2.0506
		c-0.2149,2.6643-0.0459,3.4211-0.2426,4.6292c-0.5919,0.0496-1.2662,0.1588-1.9403,0.2676
		c-0.542,0.6412-0.542,0.6412-1.6642,1.2609c0.3586,0.9337,0.3586,0.9337,0.3268,2.0231c-0.4442,1.3864-0.4442,1.3864-0.5083,3.1266
		c-1.2515,0.9632-1.2515,0.9632-2.1852,1.3221c-0.2004,0.3325-0.4118,0.7358-0.623,1.1387
		c-0.8762,0.0037-1.7518,0.0065-2.6277,0.0099c-0.4813,1.1622-1.0945,1.7915-1.116,2.3718
		c3.9005,1.5831,3.9005,1.5831,5.0046,2.4194c0.0014,0.4382,0.0623,0.9584,0.1239,1.4791c0.1783,0.248,0.3566,0.496,0.5947,0.8266
		c-0.0329,0.6505-0.066,1.3019-0.0992,1.9534c0.7126,0.5536,1.4131,1.178,2.1849,1.8147c0.2758,0.9935,0.2758,0.9935,0.7866,1.4412
		c0.6874,0.2576,1.3751,0.5156,2.0622,0.7733c1.8626,1.1058,3.725,2.2113,5.5763,3.3882c1.7303,0.5735,3.4605,1.1469,5.2506,1.8034
		c0.2874,0.9218,0.2874,0.9218,0.7979,1.3697c3.9101,1.0743,3.9101,1.0743,5.7481,1.8845c4.2639,0.6939,8.6598,1.9205,18.326,3.9316
		c2.7618,0.9601,5.3915,1.3884,10.711,2.7652c1.0199,0.4578,2.1107,0.9272,3.1896,1.4681c0.8546,0.5763,1.6974,1.2242,2.6113,1.8839
		c1.7056,0.2775,3.4112,0.5553,5.1877,0.8444c4.53,2.1966,5.3728,2.8443,9.6897,5.006
		C99.9315,546.8363,101.2833,547.4937,103.6999,547.8871L103.6999,547.8871z M285.2952,571.909
		c0.851-0.2993,1.7737-0.5865,2.6954-0.8742c0.0695-0.4263,0.1503-0.9241,0.2316-1.4213c-0.3456-0.567-0.3456-0.567-0.2566-2.0115
		c5.9698,0.972,11.9392,1.9437,17.968,2.9985c1.9534,0.0989,3.9779,0.21,6.014,0.2494c4.5598,0.6696,9.1905,1.3505,13.8215,2.0314
		c0.1536-0.048,0.39-0.1551,0.6264-0.2626c0.1157-0.7109,0.1157-0.7109-0.3606-1.3716c-0.4147-0.1403-0.9003-0.2928-1.3751-0.5156
		c-4.7132-0.6213-9.498-1.2549-14.2934-1.8165c-3.4211-0.0464-3.4211-0.0464-11.4863-1.1409
		c-3.8855-0.7778-7.842-1.5684-11.7867-2.4295c-3.6507-1.3239-3.6507-1.3239-7.8797-2.231
		c-3.3752-0.3311-3.3752-0.3311-5.0902-0.0995c-3.92-0.5649-7.9112-1.1423-11.9024-1.7192
		c-2.9863-0.9238-4.1136-1.6175-10.8564-3.6638c-2.5934-0.2036-2.5934-0.2036-3.3616,0.0363
		c-0.1882,0.2611-0.377,0.5222-0.6477,0.8428c-2.38-0.1687-4.7597-0.3376-7.2108-0.5176c-2.1203-0.4178-4.2406-0.8365-6.3493-1.3255
		c-0.4612,0.144-0.9933,0.2761-1.5256,0.4082c-0.2211,0.9125-0.2211,0.9125,0.0048,1.3138
		c11.0415,2.5274,11.0415,2.5274,12.9951,2.6266c0.4743,0.2231,1.02,0.4575,1.5647,0.6925
		c0.2265,0.4014,0.4417,0.8742,0.7274,1.3584c1.1265,0.6939,1.1265,0.6939,5.0618,2.0642c1.7883,0.2183,3.5768,0.4362,5.4473,0.595
		c2.069-0.6115,2.069-0.6115,2.6478-1.0278c0.2115-0.4034,0.423-0.8062,0.6344-1.2096c3.8954,0.2693,3.8954,0.2693,11.4398,1.425
		c0.5054,2.2706,0.9337,2.778,1.269,3.854c0.2495,0.2593,0.5587,0.6015,0.8677,0.9431
		C278.3889,570.4203,281.8477,571.1289,285.2952,571.909L285.2952,571.909z M373.5771,585.2607
		c0.6625-0.0377,1.3368-0.1469,2.0112-0.2559c0.0859-2.3202,0.1721-4.6406,0.2579-6.9611c-0.1338-0.97-0.2679-1.9403-0.3898-2.9815
		c-0.9357-0.0791-1.8708-0.1587-2.889-0.1783c-2.0097,0.6939-4.7894,1.1895-8.6553,2.5299
		c-1.9037,0.4924-3.8784,0.9737-5.8535,1.4542c-0.2594,0.2498-0.5187,0.4992-0.8492,0.7371
		c0.8427,0.6479,1.6857,1.296,2.5994,1.9553c1.4459,0.527,2.8806,1.1254,4.3857,1.7354
		C369.1001,584.5322,369.1001,584.5322,373.5771,585.2607L373.5771,585.2607z M379.2804,584.7305
		c2.4959-0.5424,2.4959-0.5424,3.7383-0.5585c3.662-1.8842,4.7267-2.1481,5.718-2.8622c0.0346-0.2131,0.0698-0.4266,0.1871-0.6993
		c-3.5286-0.2823-7.0569-0.5652-10.5854-0.8481c-0.3422,0.3092-0.3422,0.3092-0.6724,3.6841
		c0.0952,0.3073,0.191,0.6146,0.3466,1.0046C378.4388,584.5206,378.8654,584.5901,379.2804,584.7305L379.2804,584.7305z
		 M354.4078,577.5443c2.4956-0.542,6.3615-1.8825,11.435-3.0258c0.3305-0.2378,0.661-0.4759,1.0743-0.7733
		c1.0412-0.1221,2.1532-0.2333,3.2772-0.415c0.1653-0.1191,0.3305-0.2379,0.5071-0.428c1.1123-0.1105,2.2957-0.2098,3.4906-0.3798
		c0.0462-0.2841,0.1638-0.557,0.2812-0.8297c-0.5933-0.3884-1.258-0.7883-1.9219-1.1883c-1.6115-0.4084-3.223-0.8167-4.9057-1.2365
		c-6.3773-2.4974-6.5441-2.816-7.2547-2.9319c-0.2254,0.036-0.4615,0.1437-0.7685,0.2398c0.0476,0.1536,0.167,0.3189,0.2741,0.5551
		c-0.1403,0.415-0.2926,0.9008-0.4445,1.3867c-1.489,0.6324-1.489,0.6324-2.5634,1.4062c-1.4542,0.4199-2.9086,0.8397-4.3628,1.2592
		c-0.663,0.0382-1.3257,0.0759-1.9882,0.1141c-0.4725,0.2147-1.0284,0.4893-1.5837,0.7632
		c-0.0576,0.3552-0.1151,0.7109-0.2441,1.0547c1.4607,1.3318,2.9929,2.6757,4.5247,4.0193
		C353.5781,577.2634,353.9931,577.404,354.4078,577.5443L354.4078,577.5443z M384.2733,577.8113
		c1.2544-0.0879,1.2544-0.0879,6.9857,0.5536c-0.1573-0.8283-0.3141-1.6563-0.4595-2.5555
		c0.0496-2.5449,0.0992-5.0901,0.0895-7.7175c-0.119-0.1656-0.2384-0.3306-0.3572-0.4963c-4.087-0.8839-8.2335-1.8508-12.38-2.8174
		c-0.1948,1.6458-0.3192,3.3032-0.4547,5.032c0.053,1.4675,0.1057,2.935,0.2299,4.4144c0.1683,0.7572,0.4084,1.5256,0.6477,2.2938
		C380.4821,576.9022,382.3778,577.3563,384.2733,577.8113L384.2733,577.8113z M346.2738,570.6028
		c1.5715-0.6926,1.5715-0.6926,3.854-1.2691c1.9999-0.1848,1.9999-0.1848,6.0784-1.4907c1.1452-0.7614,1.1452-0.7614,2.8361-1.2886
		c0.0462-6.5579-0.1485-8.0484,0.119-9.2452c0.9816-0.205,1.9636-0.4099,3.0167-0.603c0.1151-0.7109,0.3141-1.4811,0.5119-2.2513
		c-0.3452-3.7034-0.3452-3.7034-1.1186-7.9146c-0.2977-0.4133-0.595-0.826-0.9519-1.3223
		c-0.2846-0.0459-0.5689-0.0924-0.9125-0.2214c-0.2114,0.4037-0.5057,0.8663-0.7996,1.3289
		c-0.0465,3.4211-0.0465,3.4211-0.3127,5.0556c-0.4841,0.286-0.4841,0.286-1.1948,0.17c-0.6083-1.1931-0.8742-2.6952-1.2198-3.2621
		c-0.4264-0.0695-0.8413-0.2101-1.3269-0.3623c-3.8653,1.3405-4.4438,1.757-5.6505,1.9982
		c-1.5009,0.7039-3.0016,1.4083-4.5136,2.183c-0.8986,0.1454-1.8093,0.3622-2.7913,0.5669
		c-0.3535,0.3801-0.7186,0.8314-1.1554,1.2708c-3.6406,1.3039-6.1478,1.9171-7.3525,2.5963
		c-0.0345,0.2134-0.0691,0.4266-0.1159,0.7109c5.0009,4.6805,5.0009,4.6805,9.2203,9.2333c1.023,1.334,2.0457,2.6674,3.0691,4.0011
		C345.7761,570.5217,345.9895,570.5569,346.2738,570.6028L346.2738,570.6028z M18.2064,511.1356
		c0.2245-0.036,0.4609-0.1437,0.7685-0.2401c-0.5686-0.0924-1.2081-0.1961-1.8479-0.3004
		C17.2826,510.9848,17.2826,510.9848,18.2064,511.1356L18.2064,511.1356z M370.3745,567.7424
		c0.6262-0.2625,0.6262-0.2625,1.2745-1.1055c2.4224-0.9907,2.4224-0.9907,3.6768-1.0789c0.5009-5.3167,0.5009-5.3167,0.3421-6.5823
		c-0.284-0.0465-0.5686-0.0927-0.9122-0.222c-0.4014,0.2265-0.8028,0.4529-1.2047,0.6797c-0.3634,0.8887-0.3634,0.8887-0.8478,1.175
		c-0.5916,0.0493-1.2546,0.0873-1.9171,0.1252c-4.462,3.2128-5.2421,3.5235-5.773,4.0936c0.1437,0.4609,0.288,0.9221,0.5026,1.3949
		C367.5668,567.0671,367.5668,567.0671,370.3745,567.7424L370.3745,567.7424z M277.9033,551.4474
		c5.5414,0.4646,6.5112,0.3306,9.3543,0.7935c3.2422-0.2015,3.2422-0.2015,5.9887-0.0465c0.6662-2.2983,1.3326-4.5975,2.0101-6.9675
		c-0.6395-0.1038-1.2793-0.2084-1.9188-0.3124c-0.0692,0.4266-0.1506,0.9241-0.3025,1.4099
		c-0.4725,0.2152-0.4725,0.2152-10.929-0.9768c-3.3996-0.6265-6.7989-1.2529-10.1985-1.8794
		c-2.3471-0.8198-4.682-1.7109-7.0883-2.6132c-2.4083-1.3402-4.8872-2.6918-7.3542-4.1151
		c-1.4134-1.1783-2.8262-2.357-4.2987-3.6179c-0.4643-0.7322-0.9286-1.4641-1.3816-2.2675c-0.0408-1.5386-0.1536-3.0886-0.2543-4.71
		c-0.474-0.2234-0.9371-0.5173-1.4709-0.8226c-20.3938-2.8831-20.3938-2.8831-24.372-3.0929
		c0.2631,3.763,0.5256,7.5263,0.8595,11.3009c-0.0261,2.403-0.053,4.8058-0.0202,7.2913c0.1902,0.1769,0.3801,0.3538,0.5587,0.6016
		c1.6574,0.1241,10.116,1.9388,10.9936,2.3737c11.3008,2.2779,11.3008,2.2779,15.4836,3.4691
		C260.7041,548.2094,260.7041,548.2094,277.9033,551.4474L277.9033,551.4474z M222.029,540.6729
		c0.6506,0.0326,1.3845,0.0065,2.1183-0.0201c0.1851-1.137,0.3815-2.3454,0.5783-3.5532
		c-0.1137-5.1248-0.1137-5.1248-0.8408-12.7571c-0.1571-0.828-0.3138-1.6557-0.542-2.4956c-1.3272-0.362-1.3272-0.362-2.7834-0.3801
		c-0.1188-0.165-0.2378-0.3306-0.4161-0.5789c-2.3454-0.3812-2.3454-0.3812-7.2108-0.5167c0.1792,0.2477,0.3569,0.4957,0.595,0.8263
		c-0.18,2.4508-0.3603,4.9017-0.5519,7.4231c-0.2365,0.108-0.4842,0.2863-0.7325,0.4648c-0.5088-0.0099-1.0891-0.0314-1.6807,0.0182
		c-2.8193-0.605-5.6389-1.2098-8.4466-1.8856c-0.4992-0.519-0.9984-1.0383-1.5681-1.5687c0.1173-3.4092,0.1173-3.4092,0.5338-5.9678
		c0.3418-0.309,0.7551-0.6063,1.1797-0.9745c0.2135,0.0346,0.4264,0.0689,0.7226,0.0439c0.0346-0.2129,0.0689-0.4258,0.1157-0.7104
		c-2.9982-0.8527-2.9982-0.8527-5.6389-1.2098c-0.7585,2.8673-0.7585,2.8673-1.0772,3.0342
		c1.7016,15.0857,1.7016,15.0857,2.0829,15.8771c0.7701,0.1984,1.5293,0.468,2.3584,0.7492c2.357,0.3104,4.7137,0.621,7.1413,0.9437
		C214.5765,538.9486,218.2621,540.0592,222.029,540.6729L222.029,540.6729z M305.2894,553.4985
		c2.2493,0.0749,4.4986,0.1494,6.8307,0.1636c4.2639,0.6951,4.2639,0.6951,9.3198,1.0069c0.591-0.0493,1.2537-0.0873,1.9281-0.1962
		c1.5633,0.2543,3.1272,0.5089,4.7614,0.7747c0.9703-0.1335,1.94-0.2673,2.9931-0.4609c3.6522-1.3751,3.6522-1.3751,5.1429-1.5698
		c1.2994-0.8096,1.2994-0.8096,1.7107-1.5454c-0.2727-0.1171-0.6046-0.3173-0.9372-0.5171
		c-0.4924-1.9037-0.4924-1.9037-0.5355-3.8803c-2.4738-0.038-2.4738-0.038-6.2237,0.5916
		c-1.6342-0.2665-1.6342-0.2665-3.4721-1.0764c-1.8-0.1469-3.5998-0.2943-5.4819-0.3815c-0.4496,0.0729-0.9817,0.2047-1.514,0.3367
		c-0.1539,3.185,0.0247,6.5699-0.1522,6.7595c-0.4266-0.0692-0.9349-0.0794-1.444-0.0891c-0.364-2.2479-0.7277-4.4954-1.0911-6.7427
		c-2.8423-0.4629-5.6848-0.9255-8.5277-1.3881c-7.1688-2.1161-7.1688-2.1161-7.8335-2.5157
		c-0.6395-0.1046-1.2906-0.1375-1.9417-0.1704c-0.4711,0.6523-2.5172,7.3956-2.6892,8.8994
		C299.1645,552.1374,302.1974,552.7766,305.2894,553.4985L305.2894,553.4985z M195.6489,535.5751
		c0.0647-1.7402,0.0695-3.5629,0.0746-5.3858c-0.2199-1.7867-0.4396-3.5728-0.7188-5.4425
		c-0.2843-0.0462-0.6395-0.1041-1.0066-0.0907c-0.4127,0.2976-0.8382,0.6661-1.3337,1.023
		c-0.3552-0.0581-0.7818-0.127-1.2075-0.1967c-0.1197-0.1653-0.2384-0.3305-0.417-0.5786c0.1157-0.7106,0.2314-1.4213,0.2875-2.2144
		c0.542-0.6415,1.1557-1.2708,1.7685-1.9006c0.1256-1.2195,0.2628-2.5104,0.4003-3.801c-0.3359-1.0764-0.3359-1.0764-0.8346-1.5948
		c-1.0661-0.1738-2.192-0.4297-3.3168-0.6863c-0.7243,2.6547-1.4482,5.3082-2.1835,8.0339
		c-0.3189,0.1667-0.6497,0.4045-0.9803,0.6426c-0.5684-0.0927-1.2081-0.1967-1.8476-0.3005
		c-0.6412-0.5425-0.6412-0.5425-1.4048-2.1257c0.1389-0.8527,0.2894-1.7765,0.3685-2.7119c0.6942-1.1274,1.5488-3.687,1.6631-4.8356
		c-0.9258-0.5885-0.9258-0.5885-1.6361-0.7039c-0.4247,0.3682-0.4247,0.3682-2.0775,4.695
		c-0.2316,1.4213-0.4629,2.8426-0.6942,4.2636c-0.1768,0.1902-0.3535,0.3804-0.6134,0.6298
		c-3.6375-0.9569-3.6375-0.9569-9.3739-2.9123c-1.0191-0.4575-2.1104-0.9275-3.1898-1.4675
		c-3.9461-1.2991-7.9637-2.6099-11.9823-3.9206c-2.2632-0.879-4.5153-1.8292-6.8392-2.7913
		c-6.9559-2.0809-6.9559-2.0809-11.5557-3.8508c-0.426-0.0695-0.8643-0.0681-1.3019-0.0663
		c-0.1619,0.995,0.7962,7.206,0.991,11.8332c0.2979,0.413,0.595,0.8264,0.8927,1.2399c13.1899,4.1168,13.1899,4.1168,22.7752,6.6251
		C174.1329,530.1754,182.9956,532.6398,195.6489,535.5751L195.6489,535.5751z M392.9131,565.0665
		c1.5591-1.0601,3.1887-2.1075,4.8181-3.1555c0.3589-2.2028,0.6463-4.4175,0.9453-6.7028
		c-0.2727-0.1179-0.6049-0.3174-0.9368-0.5176c-3.1272-0.5089-6.2651-0.9471-9.4749-1.3969
		c-0.7665,0.6774-1.5452,1.4264-2.3238,2.175c-2.0211,0.7654-4.1136,1.5194-6.217,2.3434
		c-0.5425,0.6412-0.5425,0.6412-1.3224,0.9522c-0.1156,0.7103-0.3027,1.4094-0.489,2.1084c0.2854,0.4844,0.5598,1.0397,0.8345,1.595
		C382.7511,563.4116,391.3138,564.5863,392.9131,565.0665L392.9131,565.0665z M368.5036,558.1735
		c1.1124-0.1105,2.2958-0.2095,3.4906-0.3798c1.264-0.5967,2.611-1.2524,3.9583-1.9089c0.5584-2.535,0.5584-2.535,0.3897-3.2921
		c0.2676-4.3334,0.2676-4.3334,0.002-5.8354c-0.2843-0.0465-0.557-0.1636-0.8297-0.2806c-3.1434,1.3848-7.4186,3.8982-9.2747,4.5443
		c-0.5077,0.4283-0.5077,0.4283-1.4179,0.6448c0.066,1.834,0.1321,3.6689,0.1981,5.5032
		C366.1342,557.4963,367.3188,557.835,368.5036,558.1735L368.5036,558.1735z M284.5851,543.5626
		c5.0553,0.3127,5.0553,0.3127,6.0372,0.1074c-0.6165-0.2463-1.2217-0.5635-1.8261-0.8807
		c-0.6925-1.5718-0.6925-1.5718-1.5003-2.4327c-1.7654-0.3605-3.6014-0.7324-5.4377-1.1044
		c-1.5534-0.7634-1.5534-0.7634-3.4373-1.2889c-2.2014,0.0788-2.2014,0.0788-8.8566-0.7126
		c-0.119-0.1653-0.2378-0.3305-0.4167-0.5783c0.1273-0.7817,0.2662-1.6347,0.3339-2.499c-0.3087-0.3418-0.6179-0.6843-0.9156-1.0973
		c-1.4706-0.8231-2.9418-1.6461-4.4719-2.5517c-7.5047-3.1915-7.5047-3.1915-10.2895-4.0093
		c-0.127,0.7815-0.1834,1.5746-0.2514,2.4392c0.3571,0.4958,0.3571,0.4958,0.6233,1.9982c0.904,1.1684,0.904,1.1684,3.6592,3.5132
		c2.2771,1.2464,4.5425,2.5642,6.8797,3.8923c1.3036,0.5045,2.5959,1.0794,3.8889,1.6545
		C280.0369,542.8224,280.0369,542.8224,284.5851,543.5626L284.5851,543.5626z M134.2227,518.5715
		c0.093-0.5684,0.2563-1.1254,0.4201-1.6826c-0.0527-1.4675-0.1057-2.9353-0.2301-4.4141
		c-1.5693-8.2797-1.5693-8.2797-1.8173-11.2382c-0.4541-1.2416-0.8972-2.5532-1.34-3.8656
		c-1.3634-0.5865-2.7981-1.1852-4.2211-1.8542c-1.8952-0.4544-3.8619-0.9207-5.8286-1.387
		c-1.3042-0.504-2.5965-1.0792-3.8888-1.6543c-2.109-0.4896-4.2177-0.9782-6.3264-1.4678c-4.102-1.6889-4.102-1.6889-14.4607-5.2719
		c-0.4266-0.0697-0.8648-0.068-1.3022-0.0663c0.5896,5.7861,1.1679,11.643,1.7462,17.4997c0.2265,0.4019,0.453,0.8033,0.6792,1.205
		c4.8243,1.7337,11.1209,4.7288,15.732,6.4276c4.3957,1.2266,4.3957,1.2266,8.2961,2.8098c0.5222,0.377,1.1041,0.8362,1.6858,1.2957
		C126.9698,516.0773,130.5607,517.3185,134.2227,518.5715L134.2227,518.5715z M339.1707,551.5016
		c1.8677-0.7175,1.8677-0.7175,4.5762-1.2249c2.6708-1.1699,5.4125-2.3284,8.1658-3.5578c0.1755-0.6284,0.4221-1.2447,0.6795-1.9321
		c1.358-0.7274,2.4791-1.7847,3.8375-2.5121c0.1454-2.2374,0.2908-4.4753,0.3654-6.7249c-0.1785-0.2474-0.3571-0.4955-0.5352-0.7435
		c-3.8015-0.4-3.8015-0.4-4.9745-0.8096c-1.2713-1.1551-1.2713-1.1551-2.6115-1.8842c-1.9534-0.0989-1.9534-0.0989-2.6626,0.2228
		c-0.5236,2.3221-0.7384,4.9861-0.9862,5.1647c-0.1276,0.7818-0.2548,1.5636-0.3821,2.3451
		c0.3223,0.7089,0.7151,1.4295,1.1089,2.1501c-0.2101,0.8413-0.4201,1.6826-0.6415,2.5945
		c-0.8147,0.5241-1.7005,1.0364-2.5977,1.6198c-1.1126,0.1108-2.2957,0.21-3.4906,0.3801c-0.0924,0.5683-0.1851,1.137-0.3605,1.7648
		C338.9099,551.313,338.9099,551.313,339.1707,551.5016L339.1707,551.5016z M379.6444,555.6107
		c1.7138-0.6695,3.4277-1.3385,5.1528-2.0787c0.9323-0.7965,1.876-1.6645,2.8908-2.5203c0.1043-0.6398,0.2795-1.2679,0.4544-1.8958
		c-0.0876-1.2543-0.2344-2.5914-0.3813-3.9285c0.0924-3.7051,0.1848-7.41,0.2066-11.1271c-0.3668,0.013-0.7339,0.0261-1.1834,0.0989
		c-2.7632,1.7385-2.7632,1.7385-7.9971,4.3149c-0.1738,1.0661-0.4184,2.1203-0.6628,3.1748
		c-0.0119,3.2076,0.449,6.201,0.5253,13.7996C378.9341,555.4948,379.2895,555.5529,379.6444,555.6107L379.6444,555.6107z
		 M309.6544,543.2672c2.4279,0.3223,4.8671,0.5737,7.3772,0.8368c0.1791-6.0262,0.1791-6.0262-0.1927-10.4633
		c-4.6659-0.468-9.4026-0.9473-14.15-1.3555c-0.1043,0.6392-0.208,1.279-0.3838,1.9077c-0.4345,0.877-0.9402,1.743-1.4576,2.6802
		c-0.2327,0.983-0.4662,1.9667-0.7109,3.0209c0.2976,0.4133,0.2976,0.4133,2.562,1.2926
		C307.6036,542.4227,307.6036,542.4227,309.6544,543.2672L309.6544,543.2672z M297.7997,538.5651
		c1.3507-2.9165,1.3507-2.9165,2.6214-4.8986c-0.0127-0.3665-0.0147-0.8047-0.0161-1.243c-0.498-0.0802-0.9833-0.2327-1.5403-0.3962
		c-0.544,0.2032-1.0876,0.4065-1.7025,0.5981c-0.2316,1.4219-0.4626,2.8429-0.6942,4.2642c0.0728,0.4493,0.1338,0.97,0.2661,1.5021
		C297.0893,538.4492,297.4451,538.507,297.7997,538.5651L297.7997,538.5651z M364.6584,549.0856
		c0.7569-0.1686,1.5251-0.4079,2.2929-0.6477c1.2172-0.7503,2.4336-1.5004,3.7327-2.3105c1.4774-0.5618,2.9549-1.1236,4.4442-1.7566
		c0.0689-0.426,0.2214-0.9122,0.3734-1.3983c-0.0842-0.3782-0.1571-0.8278-0.3008-1.2886
		c-0.4266-0.0698-0.8413-0.2101-1.2563-0.3501c-1.6427,0.6804-3.2853,1.3612-5.0103,2.1019
		c-1.7164,0.2308-1.7164,0.2308-2.924,0.0343c-1.6857-1.2954-1.6857-1.2954-2.2804-2.1217
		c-0.2843-0.0468-0.6398-0.1046-0.9956-0.1621c-0.3531,0.3804-0.3531,0.3804-0.3713,1.8362
		c0.489,1.0278,0.9783,2.0557,1.4559,3.1547C364.326,548.8855,364.326,548.8855,364.6584,549.0856L364.6584,549.0856z
		 M392.6858,551.6793c1.7169,0.2066,3.4455,0.3421,5.2458,0.489c0.0442-0.7217,0.0181-1.4556-0.0088-2.1895
		c-0.8093-1.2991-1.6075-2.6688-2.4769-4.051c-0.4663-1.1699-0.9323-2.34-1.387-3.581c-0.3087-0.3422-0.6061-0.7557-0.9746-1.1804
		c-1.2708-4.2917-1.2708-4.2917-1.9978-5.6503c-0.273-0.1171-0.5457-0.235-0.8187-0.3521
		c-0.2358,3.2443-0.4722,6.4885-0.7206,9.8033c0.2563,2.0118,0.5128,4.0229,0.7568,6.1053
		C391.0746,551.2708,391.8444,551.4695,392.6858,551.6793L392.6858,551.6793z M288.4691,534.4928
		c2.7105-0.0691,2.7105-0.0691,3.9282-0.3818c1.2263-1.2592,1.77-1.4624,2.0993-2.1382c-4.8081-0.491-4.8081-0.491-6.808-0.3065
		c-0.1267,0.7821-0.2659,1.6351-0.476,2.4761C287.6395,534.2119,288.0544,534.3525,288.4691,534.4928L288.4691,534.4928z
		 M279.7282,533.0698c0.3073-0.0955,0.6149-0.1919,1.0049-0.3469c1.4922,0.2426,2.9843,0.4861,4.4887,0.6573
		c0.1602-1.4326,0.1602-1.4326-0.1259-1.9168c-2.8652-0.3206-5.7311-0.6412-8.6085-0.8912c-0.8495,0.737-0.8495,0.737-1.1421,1.6381
		C276.7663,532.4417,278.2477,532.7557,279.7282,533.0698L279.7282,533.0698z M94.6534,503.0833
		c-0.1168-2.8638-0.2342-5.7277-0.3518-8.5915c-1.3379-9.7016-1.3379-9.7016-1.6602-10.4111
		c-2.7734-0.8886-2.7734-0.8886-13.6811-5.5822c-1.9695-1.3425-5.0882-2.7981-5.7181-3.4115
		c-1.4459-0.5269-2.8922-1.0545-4.3977-1.6642c-1.601-0.9173-3.2026-1.8346-4.8753-2.7635
		c-0.4266-0.0692-0.9232-0.1502-1.421-0.2313c-0.0828,0.0595-0.1769,0.1899-0.2713,0.3209
		c0.6378,2.8023,1.2764,5.6058,1.9137,8.4084c3.8438,2.3768,3.8438,2.3768,7.2354,3.9503c0.2625,0.6262,0.2625,0.6262-0.053,1.669
		c-0.5803-0.0215-1.2314-0.0547-1.8825-0.0873c-1.3518-0.6579-1.3518-0.6579-4.1366-1.4763
		c-0.0264,2.403-0.0264,2.403,0.2741,3.6924c0.7007,0.6245,2.0758,1.1401,8.8517,5.6718c0.9485,0.4462,1.9684,0.9037,2.9764,1.4329
		c0.9731,0.7421,1.9468,1.4839,2.9914,2.2377c1.8493,0.7387,2.6921,1.3864,9.273,4.4277
		C91.7022,501.9466,91.7022,501.9466,94.6534,503.0833L94.6534,503.0833z M270.0848,530.9161
		c0.045-0.7225,0.045-0.7225-0.3121-1.2181c-1.1367-0.1851-1.1367-0.1851-1.8939-0.0161
		C268.2357,530.1774,268.2357,530.1774,270.0848,530.9161L270.0848,530.9161z M211.951,520.5762
		c0.1173-0.273,0.2352-0.5457,0.3521-0.8187c-6.3728-1.1832-6.3728-1.1832-7.3429-1.0494
		C205.1388,518.9562,205.1388,518.9562,211.951,520.5762L211.951,520.5762z M268.4852,527.3002
		c0.7319-0.4646,0.7319-0.4646,1.3441-1.5318c0.7798-0.3112,1.5713-0.6928,2.3627-1.0746c0.0576-0.3552,0.1275-0.7817,0.1255-1.2197
		c-5.8648-4.7477-5.8648-4.7477-7.0897-6.1875c-1.4709-0.8231-2.9299-1.7172-4.3892-2.6112
		c-0.3801-0.3538-0.8198-0.79-1.2595-1.2263c-0.2846-0.0464-0.58-0.0212-0.8756,0.0029c-0.8583,1.6846-1.7986,3.4279-2.7394,5.1712
		c-0.5133,1.813-1.0392,3.697-1.6356,5.5695C260.7375,525.6011,263.2972,526.4552,268.4852,527.3002L268.4852,527.3002z
		 M278.4688,528.7068c2.3091,0.157,4.6292,0.2432,7.0208,0.3407c0.4408-2.2626,0.9533-4.5136,1.4774-6.8358
		c-0.5817-0.4592-0.5817-0.4592-2.2164-0.7254c-3.1895,1.6691-3.1895,1.6691-5.6687,3.454
		c-0.449,0.0728-0.9814,0.2047-1.5137,0.3373c-0.3305,0.2375-0.6724,0.5468-1.0856,0.8441
		c-0.2925,0.9009-0.2925,0.9009,0.0082,2.1898C277.1302,528.4156,277.7701,528.52,278.4688,528.7068L278.4688,528.7068z
		 M229.2562,520.4752c5.08,0.6083,10.1602,1.2169,15.2524,1.7541c2.5466,0.4875,5.1531,1.0579,7.759,1.6282
		c0.3112-0.8181,1.7926-2.3015,0.9496-2.4047l-21.6473-2.643c-0.1536,0.0473-0.3784,0.0839-0.6146,0.1913
		c-3.0577-0.9354-3.0577-0.9354-21.088-4.8923c-1.8015-0.5848-3.674-1.1818-5.5347-1.8496
		c-11.2201-2.7745-13.7684-3.7003-17.3214-4.2789c-5.6046-1.4227-5.6046-1.4227-16.9053-3.7006
		c-6.0075-1.6348-12.0858-3.2805-18.1644-4.9269c-0.2477,0.1789-0.4958,0.3569-0.8263,0.595
		c-2.8772-0.2498-2.8772-0.2498-4.7614-0.775c-0.2262-0.4017-0.1636-2.5798-0.4742-3.3599
		c-0.3555-0.0581-0.699-0.1871-1.1137-0.3274c-0.165,0.119-0.3308,0.2381-0.5077,0.428c-5.5247,0.7787-5.5247,0.7787-5.7957,1.0987
		c0.059,0.0828,0.1074,0.2364,0.1554,0.3904c6.4006,2.3547,12.8015,4.7106,19.273,7.0772c8.435,1.9568,16.859,3.9846,25.2822,6.0123
		c1.5885,0.5508,3.1652,1.1718,4.8127,1.8051c5.2727,1.2232,10.6154,2.4579,15.9466,3.7633
		C217.3884,518.5434,217.9321,518.3402,229.2562,520.4752L229.2562,520.4752z M289.5384,529.2686
		c1.7289,0.1355,3.5285,0.283,5.3282,0.4301c0.413-0.2974,0.413-0.2974,2.0146-5.6534c0.0201-1.0182,0.0397-2.0364,0.0002-3.1368
		c-3.3712-12.0019-3.3712-12.0019-3.7993-12.509c-0.765-2.0214-1.5188-4.1139-2.2722-6.2062
		c-1.0066-0.091-2.0129-0.1817-3.1019-0.2132c-0.3325-0.2001-0.6529-0.4717-0.9737-0.7424c0.0677-0.864,0.0646-1.7399,0.0612-2.6161
		c-1.2544,0.0876-1.2544,0.0876-2.8375,0.8515c-2.1668-0.1341-4.3336-0.2679-6.5117-0.3308
		c-1.8839-0.5256-3.0371-0.3163-4.9805-0.925c-0.4164-0.5782-0.4164-0.5782-0.5981-1.7022
		c0.3008-1.8476,0.3008-1.8476,0.7254-2.2161c0.7109,0.1157-0.0913-0.6304,1.8788,0.7115c0.309,0.3424,0.6891,0.6956,1.0576,1.1199
		c0.7582,0.2699,1.5171,0.5392,2.2637,0.8796c4.0972,0.3756,4.0972,0.3756,6.0143,0.2495c0.4728-0.2143,1.0281-0.489,1.5832-0.7631
		c0.3557,0.0578,0.782,0.1273,1.2195,0.1256c0.1953-1.6458,0.0269-2.4029,0.2682-4.3333c-1.6475-0.6327-1.6475-0.6327-8.1754-2.2065
		c-1.7887-0.2183-3.6476-0.4479-5.5069-0.6775c-2.1056,3.5232-2.0364,6.4772-5.6571,11.2935
		c-0.2577,0.6877-1.3173,0.6287-1.5749,1.3161c0.3087,0.3419,0.6179,0.684,0.9865,1.1086c0.3007,1.2892,0.3007,1.2892,0.2474,2.9588
		c0.3575,0.4958,0.7736,1.074,1.1903,1.6523c-0.4099,1.1735-0.4099,1.1735-0.8232,1.4712
		c-0.2959,0.0244-0.6628,0.0377-1.0295,0.0513c-0.3883,0.593-0.3883,0.593-0.4448,1.3864c0.2132,0.0346,0.4263,0.0692,0.7109,0.1157
		c0.4842-0.286,1.0508-0.6313,1.6177-0.9768c0.3555,0.0581,0.7818,0.1273,1.2082,0.1967c0.3093,0.3419,0.6066,0.7555,0.9751,1.1798
		c0.299,0.851,0.5862,1.7736,0.9454,2.7074c0.6043,0.3169,1.1979,0.7058,1.8623,1.1061c1.5157,0.1003,3.0314,0.2009,4.5463,0.3021
		c0.5227,0.3767,1.0448,0.7535,1.5551,1.2014c2.5256,1.0678,5.1216,2.1472,7.7184,3.2264c0.5222,0.377,1.0443,0.7537,1.6376,1.1418
		c0.1686,0.7569-0.5783,3.5532-1.1772,8.1244C288.2594,529.0608,288.8992,529.1646,289.5384,529.2686L289.5384,529.2686z
		 M368.1443,541.1183c1.1815-0.5372,2.3632-1.0743,3.5563-1.6824c-0.0244-0.2957-0.1213-0.6033-0.2169-0.9105
		c-1.2427,0.0167-1.2427,0.0167-3.5249,0.5933c-0.4845,0.286-1.0395,0.5601-1.5951,0.8345
		c0.0958,0.3073,0.1922,0.6148,0.3586,0.9334C367.1487,540.9561,367.6465,541.0372,368.1443,541.1183L368.1443,541.1183z
		 M359.8296,539.7644c0.3668-0.013,0.8045-0.0147,1.2425-0.0164c1.0857-0.8444,1.0857-0.8444,4.4425-2.1949
		c1.4544-0.4192,2.9089-0.8391,4.363-1.2589c1.0741-0.7736,1.0741-0.7736,1.8312-0.942c1.446,0.527,2.8922,1.0542,4.4096,1.5934
		c0.0723-5.8241,0.6415-12.005,0.5371-14.5023c-0.0961-0.3073-0.1919-0.6149-0.3473-1.0043
		c-3.8324-2.4483-3.8324-2.4483-12.1816-6.7255c-4.7744-1.1418-9.6199-2.2955-14.4655-3.4492
		c-0.5389,1.5168-1.0777,3.0339-1.6282,4.6221c-0.5108,2.689-1.0329,5.4491-1.5551,8.2086
		c1.4343,0.5986,1.4343,0.5986,2.8908,0.6168c1.0757-0.3356,1.0757-0.3356,3.4554-0.167c1.3268,0.362,2.6537,0.7242,3.9812,1.0859
		c0.309,0.3422,0.6067,0.7549,0.9746,1.1801c2.7504,1.0312,5.4887,2.1337,8.2272,3.2361c0.6066,0.7554,0.6066,0.7554,0.8825,1.7484
		c-0.3288,0.676-0.658,1.3518-1.0579,2.0165c-0.3303,0.2381-0.7438,0.5352-1.1566,0.8328
		c-3.1122,0.2953-3.1122,0.2953-4.1168,0.6429c-0.4264-0.0694-0.9241-0.1505-1.4216-0.2316
		c-0.3946,1.9783-0.3946,1.9783-0.3158,4.1797C359.5933,539.8719,359.5933,539.8719,359.8296,539.7644L359.8296,539.7644z
		 M298.5013,529.7797c13.1547,1.1934,17.2868,1.3552,20.567,1.8167c0.104-0.6395,0.2081-1.2792,0.2415-1.9304
		c-0.4167-0.5786-0.4167-0.5786-2.1356-1.2231c-3.7664-0.6129-3.7664-0.6129-11.717-2.8562
		c-2.2048-0.7963-4.4096-1.5934-6.6141-2.3896c-0.347,2.132-0.7651,4.2523-1.1832,6.3729
		C297.9437,529.6158,298.2282,529.6623,298.5013,529.7797L298.5013,529.7797z M135.5321,501.5693
		c2.5072-0.6131,2.5072-0.6131,3.9747-0.6661c0.0346-0.2134,0.0698-0.4269,0.1157-0.7109
		c-1.5647-0.6925-1.5647-0.6925-5.5695-1.6362c0.1454,0.8989,0.2909,1.798,0.4363,2.6969
		C134.845,501.311,135.1882,501.44,135.5321,501.5693L135.5321,501.5693z M231.3714,516.4429
		c2.1504-1.1086,21.6837,4.9221,23.9046,3.8254c1.9814-1.8661,3.6538-9.3969,5.6472-11.3338
		c0.0578-0.3549-16.9464-2.2569-16.9486-2.6946c-1.1384-0.6234-1.1384-0.6234-4.8354-1.6628
		c-1.4921-0.2432-2.9843-0.4861-4.5482-0.7404c-3.0804-0.7937-6.1497-1.6577-9.2894-2.5339
		c-9.8793-2.0461-10.3309-2.4114-20.6717-4.3141c-0.4028-0.2115-0.8773-0.4345-1.3399-0.7285
		c-6.8454-0.9686-13.7616-1.9485-20.6895-2.8579c-3.0096-0.7818-6.0194-1.5636-9.0882-2.4279
		c-0.5224-0.377-1.0329-0.8249-1.5435-1.2725c-1.5718-2.4446-3.2145-4.9005-4.8455-7.4273
		c-0.3552-0.0581-0.7702-0.1987-1.1849-0.339c-1.3125,0.4431-2.6955,0.8745-4.0791,1.3056
		c-1.7598,0.9536-3.5314,1.9783-5.3742,2.9911c-1.1208,1.0579-6.211,4.0955-8.477,5.9148
		c-0.1171,0.2724-0.3056,0.5338-0.4941,0.7951c0.0615,0.5204,0.1936,1.0525,0.3254,1.5848c0.5689,0.0927,1.137,0.1848,1.7056,0.2778
		c0.2974,0.413,0.5834,0.8974,0.9408,1.3929c1.6588,0.5621,3.3894,1.1353,5.108,1.7799
		c22.6414,5.6562,25.2708,6.0843,43.5161,10.5134c2.9749,0.9952,2.9749,0.9952,6.9908,1.8677
		c1.1766-1.851,1.1766-1.851,2.9103-3.5382c1.3238-0.5139,2.6592-1.099,3.9949-1.6841c5.8983,0.9607,6.6433,0.8629,14.4258,2.3488
		c0.6165,0.2463,1.2328,0.4924,1.8377,0.8098c-0.0692,0.4261-0.0677,0.8643-0.0774,1.3731
		c-0.354,0.3804-0.7194,0.8314-1.1557,1.2713c-1.9746,0.4808-1.9746,0.4808-3.2627,1.2192
		c-0.5417,0.6415-1.1548,1.2711-1.7679,1.9009c0.1188,0.165,0.2378,0.3305,0.3452,0.5669
		C226.0287,515.2084,228.706,515.7899,231.3714,516.4429L231.3714,516.4429z M277.4413,522.9221
		c0.2957-0.0244,0.6619-0.0377,1.0292-0.0505c1.2875-0.739,2.5866-1.5491,3.886-2.3587c0.0343-0.2132,0.0689-0.4266,0.0442-0.7225
		c-0.3319-0.1999-0.7358-0.4113-1.1386-0.6228c-2.3335-0.453-4.6673-0.9054-7.0716-1.37c-0.1174,0.2727-0.3062,0.5335-0.4944,0.7949
		c1.1554,1.8655,1.1554,1.8655,2.1101,4.0635C276.3043,522.737,276.8726,522.8297,277.4413,522.9221L277.4413,522.9221z
		 M271.6883,519.7244c-0.0133-0.3668-0.0858-0.8164-0.1587-1.266c-0.762-1.1452-1.5239-2.2906-2.3448-3.5184
		c0.0527-1.6693,0.0527-1.6693-0.2696-2.3782c-0.2843-0.0468-0.5684-0.0927-0.9238-0.1505
		c-0.2477,0.1786-0.4958,0.3569-0.8263,0.595c-2.2128,0.1502-2.2128,0.1502-2.6972,0.4363
		c-0.0352,0.2134-0.1406,0.415-0.2577,0.6874c1.7929,1.5321,3.5858,3.0642,5.4502,4.608
		C270.3365,519.0664,271.0126,519.3955,271.6883,519.7244L271.6883,519.7244z M312.0494,525.42
		c2.1435,0.2761,4.3705,0.493,6.5959,0.7089c0.5618-1.6591,1.1948-3.3066,1.8394-5.0255c-0.0743-0.8873-0.1488-1.7748-0.2826-2.7448
		c-0.1191-0.1653-0.2381-0.3306-0.4278-0.5074c0.0924-0.5684,0.1848-1.137,0.2775-1.7056c1.1202-1.0576,2.2524-2.1864,3.4557-3.3038
		c-0.0133-0.3668-0.0975-0.7449-0.1817-1.1237c-0.3323-0.1998-0.7356-0.4119-1.1271-0.6942
		c-0.6083-1.1934-0.6083-1.1934-0.8394-2.9086c0.3008-1.8476,0.1179-2.6152,0.4303-4.5343l-17.0541-6.4324
		c-0.4841,0.286-3.49-2.0509-7.812-2.3899c-0.8575,1.6844-1.9292,2.7904-2.7983,4.5456c-0.2682,1.1965-0.5474,2.4642-0.8977,3.7205
		c1.2937,4.1494,2.7153,7.5178,3.9495,11.5852c0.22,1.7864,0.648,2.2938,1.2595,4.3629c0.6542,0.9088,0.6542,0.9088,2.6246,2.251
		c1.5645,0.6925,3.1179,1.4559,4.743,2.2311C307.8899,524.0865,309.9756,524.7178,312.0494,525.42L312.0494,525.42z
		 M62.9096,484.7845c-0.0777-1.7634-0.0777-1.7634-0.6545-4.0456c-2.4194-1.2691-2.4194-1.2691-6.5327-2.8874
		c-1.294-1.0128-2.588-2.0265-3.882-3.0393c-0.1919-0.6148-0.1919-0.6148,0.3339-2.4984c0.4363-0.4397,0.8839-0.9505,1.3323-1.4613
		c1.631-0.6097,3.3327-1.2081,5.0468-1.8771c0.0349-0.2132-0.0014-0.4382-0.0261-0.7336c-1.2827-1.0848-1.2827-1.0848-2.6229-1.8133
		c-2.9863-0.9238-2.9863-0.9238-3.2244-1.2546c-6.3961-1.0408-6.3961-1.0408-14.5298-1.709
		c-0.1241,1.6574-0.1241,1.6574,0.142,3.1598c0.7481,0.7787,1.5681,1.5681,2.3882,2.3581c6.9426,4.8509,6.9426,4.8509,9.7568,7.2788
		c2.6456,1.6707,5.2801,3.4129,7.9146,5.1551C60.2521,483.1849,60.2521,483.1849,62.9096,484.7845L62.9096,484.7845z
		 M324.2112,526.8895c1.1305-1.5664,1.1305-1.5664,1.7685-1.9003c0.7226,0.0445,1.4443,0.089,2.1666,0.1338
		c1.2033-1.1171,1.709-1.9828,2.7947-2.8279c2.1288-0.5283,2.1288-0.5283,3.5101-1.398c1.2351-2.2059,1.2351-2.2059,3.3673-4.9952
		c0.2081-1.2798,0.345-2.5704,0.4938-3.9322c-0.2841-0.0462-0.5684-0.0924-0.9241-0.15c-1.0026,0.7846-2.0058,1.5695-3.092,2.4137
		c-1.2061,0.2415-1.2061,0.2415-1.785,0.6582c-0.0576,0.3555-0.1154,0.7106-0.2444,1.0542c0.3107,0.7798,0.6922,1.5715,1.074,2.3632
		c0.0018,0.438-0.0079,0.9468-0.0184,1.4562c-0.6721,0.5471-1.345,1.0939-2.1002,1.7008c-1.5253,0.4076-3.0507,0.8161-4.5765,1.2245
		c-0.4842,0.2855-1.0508,0.631-1.6178,0.9763c-0.7103-0.1154-1.4213-0.2313-2.1319-0.3469
		c-0.1622,0.9946-0.3952,1.978-0.6279,2.9613C322.5773,526.6236,322.5773,526.6236,324.2112,526.8895L324.2112,526.8895z
		 M133.759,495.8821c0.3387-1.1852,0.6778-2.3698,1.0162-3.5549c0.4232-0.8068,0.8464-1.6132,1.3524-2.4792
		c1.1914-1.046,2.3942-2.1634,3.6689-3.2686c0.0576-0.3555,0.1276-0.7815,0.1967-1.2081c-1.4661-2.6464-1.4661-2.6464-2.5234-3.7667
		c-1.6381-1.1421-1.6381-1.1421-2.5302-2.3817c-0.0133-0.3668-0.015-0.8047-0.0167-1.2424
		c-1.4162-2.0543-2.9035-4.1201-4.3795-6.2575c-1.5401-0.3963-15.9035-1.7864-26.1003-3.2278
		c-1.4678,0.0527-10.9888-1.0596-15.3334-1.2563c-0.2957,0.0247-0.6744,0.1094-1.0528,0.1931
		c0.2977,0.4133,0.6661,0.8379,1.0344,1.2628c-0.0692,0.4263-0.0677,0.8646-0.0774,1.3734c-0.6032,0.1208-1.218,0.3124-1.904,0.4924
		c-1.1452,0.7619-2.3618,1.512-3.5895,2.3337c-1.7155,0.231-6.9729-0.1874-9.47-0.0831c0.2381,0.3305,0.5471,0.6727,0.8447,1.0862
		c1.7433,0.94,3.558,1.8922,5.3728,2.8443c3.6158,1.5367,7.232,3.0736,10.9074,4.693c0.7815,0.1276,1.5639,0.2551,2.3445,0.3821
		c1.0996-0.4774,2.1983-0.955,3.3693-1.421c4.0504-2.4775,4.0504-2.4775,6.0681-4.1184c3.8503,0.9921,7.6895,2.0545,11.5999,3.1286
		c0.1553,0.3897,0.3107,0.7804,0.5372,1.1818c-0.3541,0.3801-0.7076,0.7602-1.1322,1.1288
		c-1.8425,1.0131-3.6853,2.0262-5.599,3.0277c-0.6018,0.5587-1.2747,1.1058-1.9587,1.7235c0.119,0.1655,0.2265,0.4019,0.3339,0.6381
		c1.5766,0.6214,3.1414,1.3138,4.7775,2.018c1.836,0.3719,3.7434,0.7554,5.6511,1.1389c0.9482,0.4462,1.9562,0.9751,2.9642,1.5038
		c1.8958,0.4544,3.8625,0.921,5.8291,1.3867C128.52,494.0079,131.1398,494.9447,133.759,495.8821L133.759,495.8821z
		 M379.7107,535.4878c3.1552-1.4556,5.3861-3.0623,7.3712-4.0521c0.0445-0.7223,0.0893-1.4443,0.1338-2.1668
		c-1.7549-0.8694-3.5101-1.7385-5.3246-2.6904c-0.7126-0.5539-1.4131-1.1786-2.1141-1.8031
		c-0.284-0.0462-0.5684-0.093-0.9119-0.2217c-0.5706,5.743-0.5706,5.743-0.6511,9.377c0.0839,0.3787,0.1681,0.7568,0.241,1.2067
		C378.881,535.2066,379.296,535.3475,379.7107,535.4878L379.7107,535.4878z M171.3949,500.8422
		c0.8266-0.5947,1.6529-1.1897,2.4795-1.7847c1.2643-0.5967,2.5994-1.1818,3.9464-1.8374c0.4825-0.724,0.4825-0.724,0.6332-1.6478
		c-0.4991-0.519-0.4991-0.519-2.5157-1.5769c-5.4023-1.3173-5.4023-1.3173-9.169-1.9304c-1.3405-0.7291-1.3405-0.7291-2.7615-0.9604
		c-1.2163,0.7503-2.5035,1.4893-3.8027,2.2986c-2.0693,0.6117-2.0693,0.6117-2.4228,0.9915
		c-0.2217,0.9125-0.4431,1.8247-0.7472,2.7967C157.3441,497.5333,157.3441,497.5333,171.3949,500.8422L171.3949,500.8422z
		 M316.211,524.0551c0.6942-1.1271,0.6942-1.1271,1.9451-2.0906c0.6251-3.8375,0.6251-3.8375,0.4564-4.5944
		c-0.5108-0.4478-0.5108-0.4478-1.5058-0.61c-0.6956,0.6894-1.4623,1.3672-2.2294,2.0447c-0.3784,0.0842-0.8278,0.157-1.2776,0.2299
		c0.2662-1.6348,0.6035-3.2576,0.9519-4.9518c-0.1069-0.2361-0.2143-0.4725-0.3813-0.7917
		c-0.8297-0.2806-1.7308-0.5732-2.6311-0.8657c-0.2285-0.8396-0.2285-0.8396-0.3767-5.7512
		c-0.5142-1.3241-1.099-2.6595-1.6727-4.066c-2.3468-0.8195-2.3468-0.8195-3.5183-0.7914
		c-0.6262,0.2625-1.2643,0.5967-1.9021,0.9303c-1.167,1.3422-1.167,1.3422-1.7192,2.4922
		c-0.2197,1.3501-0.4391,2.7003-0.6593,4.0504c0.3271,2.0231,0.6429,4.117,0.9584,6.2112c0.5111,0.4479,0.5111,0.4479,1.4343,0.5978
		c0.7917-0.3815,0.7917-0.3815,3.2777-0.4147c0.9238,0.1506,1.836,0.3719,2.819,0.605c-0.1287,0.3438-0.3286,0.676-0.5403,1.0794
		c-0.3189,0.1669-0.6378,0.3336-0.9686,0.5717c-3.6107-0.2233-3.6107-0.2233-4.2372,0.0394
		c-0.1752,0.6282-0.3504,1.256-0.5255,1.8842c0.2265,0.4014,0.5244,0.8147,0.8212,1.228c0.5454,0.2347,1.0908,0.4694,1.6361,0.7038
		c1.5041,0.1721,3.0078,0.3439,4.5116,0.5162c1.5718-0.6927,1.5718-0.6927,2.2085-1.4644c0.9468,0.0085,0.9468,0.0085,2.0738,0.7021
		c0.1092,0.6744,0.218,1.3488,0.3867,2.1058C315.7478,523.7612,315.9499,523.8666,316.211,524.0551L316.211,524.0551z
		 M263.0982,511.1039c0.0938-0.1304,0.2707-0.3206,0.4476-0.5105c0.2778-1.7059,0.4841-3.4229,0.7024-5.2107
		c-0.2131-0.0351-0.4974-0.0813-0.7817-0.1275c-0.906,1.5304-1.8113,3.0611-2.7284,4.6618
		c-0.0233,0.1423,0.013,0.3674,0.0496,0.5919C261.5579,510.7073,262.3278,510.9055,263.0982,511.1039L263.0982,511.1039z
		 M61.5345,477.9955c0.0215-0.58,0.0428-1.1602-0.0062-1.7521c-0.4085-1.525-0.8167-3.0504-1.2246-4.5762
		c-0.3555-0.0576-0.6993-0.1862-1.0432-0.3155c-2.2932,0.6477-2.2932,0.6477-3.8883,1.4822
		c-0.0584,0.3555-0.1984,0.7699-0.339,1.1852c0.5587,0.6015,1.1767,1.2858,1.7952,1.9701
		C58.4048,476.6108,59.9695,477.3033,61.5345,477.9955L61.5345,477.9955z M323.9818,519.3385
		c0.2365-0.1074,0.4729-0.2148,0.7915-0.3815c0.0346-0.2132,0.1522-0.4862,0.2696-0.7589c-0.309-0.3418-0.618-0.684-0.9865-1.1091
		c-0.4266-0.0692-0.8413-0.2098-1.3272-0.3615c-0.4481,0.5105-0.4481,0.5105-0.5635,1.2212
		c0.2378,0.3305,0.464,0.7322,0.6908,1.1335c0.1653-0.119,0.3305-0.2378,0.5786-0.4161
		C323.7455,519.446,323.7455,519.446,323.9818,519.3385L323.9818,519.3385z M388.4023,526.9093
		c0.7787-3.8854,0.7787-3.8854,1.1625-8.9294c-0.0766-1.3257-0.2118-2.7334-0.3473-4.1417c-1.256-0.3504-1.256-0.3504-3.9547-0.3521
		c-0.2596,0.2497-0.2596,0.2497-2.9582,0.2477c-0.5074,0.428-1.0151,0.8563-1.5341,1.3555
		c-0.9252,2.5478-0.9252,2.5478-1.4692,5.8881c2.7351,3.3633,2.7351,3.3633,4.0289,4.3767
		C385.0013,525.8444,386.672,526.3356,388.4023,526.9093L388.4023,526.9093z M242.1026,502.5064
		c0.1139-1.1486,0.2398-2.3686,0.2939-3.5997c-0.8209-1.2277-1.6307-2.5265-2.4403-3.8259c-0.7588-0.2693-1.5057-0.61-2.3238-0.9618
		c-1.1608-0.0428-2.3913-0.0975-3.6227-0.1522c0.2378,0.3305,0.2378,0.3305,4.5646,1.9834
		c1.0117,1.4046,1.0117,1.4046,2.3482,4.3943c-0.0924,0.5684-0.2557,1.1259-0.4312,1.7535
		C240.9886,502.1793,241.5459,502.3428,242.1026,502.5064L242.1026,502.5064z M231.4429,500.7711
		c-0.0876-1.2546-0.0876-1.2546-0.4694-2.0466c0.1273-0.7806,0.2548-1.563,0.3821-2.3448c1.5451-1.4261,1.5451-1.4261,1.8739-2.1019
		c-0.3671,0.0131-0.7336,0.0264-1.1834,0.0992c-0.3419,0.309-0.6843,0.6179-1.0378,0.998
		c-0.4572,1.0199-0.9153,2.0392-1.4562,3.1184c-0.9453,0.4297-0.9453,0.4297-2.6257,0.4479
		c-2.5483-0.9258-2.5483-0.9258-9.3608-2.5452c-0.5683-0.093-1.2198-0.1256-1.8709-0.1588
		c0.0253,0.2957,0.1089,0.6741,0.1936,1.0528C221.0293,498.4189,226.2425,499.5592,231.4429,500.7711L231.4429,500.7711z
		 M307.5398,512.7953c0.296-0.0244,0.6032-0.1204,0.9105-0.2162c0.1488-1.3621,0.2971-2.7238,0.4467-4.0853
		c-0.1573-0.8283-0.3146-1.6563-0.5425-2.4959c-0.2381-0.3305-0.5474-0.6724-0.8445-1.0857
		c-0.4975-0.0808-0.9833-0.233-1.5401-0.3965c-0.8265,0.595-0.8265,0.595-1.2843,1.6146c-0.5786,3.5533-0.5786,3.5533-0.4181,5.2569
		c0.1074,0.2364,0.2151,0.4728,0.3816,0.7917C305.5731,512.3293,306.5565,512.5623,307.5398,512.7953L307.5398,512.7953z
		 M183.0796,491.8028c1.1602,0.0428,2.3913,0.0972,3.6343,0.0808c1.8839,0.5255,16.1662,2.4131,23.2378,3.7831
		c0.2727,0.1174,0.5454,0.235,0.8892,0.364c0.5786-0.4167,1.1568-0.8331,1.8065-1.2382c0.0345-0.2129,0.0691-0.426,0.1865-0.6987
		c-10.982-2.4446-10.982-2.4446-31.4748-6.5106c-0.6165-0.2463-1.2333-0.4921-1.8493-0.7384
		c-2.5121-3.8378-2.5121-3.8378-3.0144-5.2328c0.2597-0.2495,0.519-0.4989,0.8493-0.737c1.5023-0.2662,4.4144-0.2293,5.4193-0.5768
		c2.7105-0.0692,5.5034-0.1979,8.2961-0.3271c2.0809-0.682,2.0809-0.682,3.0396-0.745c4.5959,0.8943,9.2631,1.7997,13.9187,2.7766
		c0.97-0.1338,4.8424,0.2778,5.5182,0.6066c0.9949,0.1621,1.9897,0.3243,3.056,0.4977c1.2773-0.2296,1.2773-0.2296,1.5486-0.5505
		c-0.2019-0.1057-0.392-0.2826-0.6531-0.4708c-5.8983-0.9604-5.8983-0.9604-7.6382-1.025
		c-0.6763-0.3285-1.3521-0.6579-2.0168-1.0576c0.093-0.5686,0.1854-1.1367,0.2185-1.7881c1.0741-0.7736,1.0741-0.7736,1.3323-1.461
		c-4.0606-0.1505-8.1927-0.313-12.3242-0.4745c-1.7748,0.1485-3.6324,0.3566-5.4901,0.5655
		c-2.4957,0.5414-4.9913,1.0837-7.5691,1.6849c-0.924-0.1505-1.1026-0.3983-3.2692-0.532
		c-2.7913,0.5666-2.7913,0.5666-4.7792,0.6806c-2.164,0.7421-4.398,1.4729-6.6439,2.2743c-0.0578,0.3555-0.1868,0.699-0.3277,1.114
		c1.5256,2.7283,3.3568,4.9229,4.0839,6.2813c0.4629,0.2942,0.9139,0.6599,1.4363,1.0366
		C177.3677,490.1431,180.224,490.9728,183.0796,491.8028L183.0796,491.8028z M143.1862,484.5779
		c3.155-1.4559,5.4371-2.0324,5.9445-2.4605c1.7138-0.6693,3.4279-1.3385,5.224-2.0676c3.2522-0.7107,6.5165-1.4922,9.8515-2.2623
		c2.9583-0.248,2.9583-0.248,5.0392-0.9304c1.5386-0.0411,3.0889-0.1536,4.6392-0.2659c0.0346-0.2134,0.0692-0.4263,0.1157-0.7107
		c-5.449-1.0332-5.449-1.0332-15.4673-2.2263c-1.1835,0.0989-1.1835,0.0989-7.6484-0.5159
		c-0.9207,0.7251-1.9125,1.4394-2.9038,2.1534c-0.1406,0.4147-0.2925,0.9009-0.4448,1.3867
		c0.4632,0.2939,0.9139,0.6591,1.3652,1.0242c-0.0694,0.4266-0.068,0.8649-0.0777,1.3737c-0.4017,0.2262-0.8144,0.5241-1.228,0.8212
		c-1.927,0.6346-3.9252,1.2577-5.9344,1.9519c-0.1772,0.1899-0.354,0.3801-0.6018,0.5584c0.3333,0.6381,0.7384,1.2875,1.1319,2.0081
		C142.4756,484.4622,142.8307,484.52,143.1862,484.5779L143.1862,484.5779z M71.7168,472.3588
		c0.0448-0.7226,0.0448-0.7226-0.3719-1.3011c0.093-0.5686,0.1854-1.137,0.3489-1.6937c-0.7106-0.1159-1.4329-0.1604-2.1552-0.2052
		c-0.7687,0.2395-1.5367,0.4793-2.3051,0.7189c1.2821,1.0843,1.2821,1.0843,3.0852,2.107
		C70.7454,472.0544,71.2313,472.2063,71.7168,472.3588L71.7168,472.3588z M341.4492,515.1061
		c0.8277-0.1568,1.6557-0.3135,2.5665-0.5301c0.0579-0.3552,0.1868-0.699,0.3155-1.0428c-0.9119-0.2211-1.8133-0.5142-2.7136-0.8065
		c-0.4133,0.2971-0.4133,0.2971-0.904,1.9683C341.2128,515.2136,341.2128,515.2136,341.4492,515.1061L341.4492,515.1061z
		 M215.3543,493.8474c1.2529-0.5255,1.2529-0.5255,3.2411-0.6395c8.5113-2.9911,8.5113-2.9911,13.0876-4.216
		c1.8658-1.1548,1.8658-1.1548,2.9418-1.4904c0.2843,0.0465,0.5683,0.0924,0.9241,0.1505c0.4161,0.5786,2.018-0.1499,2.1535,1.2583
		c10.6415,3.8798,28.26,4.919,35.8614,7.6102l3.3154-6.5336c-1.139-0.6228-18.1437-5.8547-23.049-7.0912
		c-3.3282-0.6145-6.7278-1.241-10.1157-1.9386c-5.7662-0.4283-14.826-1.6843-17.0042-1.747
		c-0.2577,0.6874-0.5984,1.4344-0.9388,2.1813c-0.8033,0.4527-1.6177,0.9771-2.4324,1.5007c-0.0235,0.142-0.0581,0.3555-0.0218,0.58
		c0.6641,0.4,5.1777,1.3533,6.3496,1.3255c0.1902,0.1769,0.3804,0.3538,0.6411,0.542c-0.0578,0.3557-0.0448,0.7226-0.0428,1.1605
		c-0.377,0.5219-0.7541,1.0443-1.1302,1.567c-0.5443,0.2029-1.1702,0.4655-1.7969,0.7285c-0.8051,0.0147-1.6098,0.03-2.4145,0.0448
		c-1.3833,0.4314-2.7667,0.8626-4.1499,1.2935c-0.8263,0.5952-1.6523,1.1903-2.4792,1.7852
		c-2.7085,0.5074-2.7085,0.5074-3.5002,0.8889c-0.0462,0.284-0.1633,0.5564-0.2809,0.8294
		C214.7976,493.6841,215.0816,493.7301,215.3543,493.8474L215.3543,493.8474z M376.6292,518.5729
		c1.1648-1.7802,2.0441-4.0442,3.2805-5.8124c0.6497-0.4047,1.2991-0.8101,2.0313-1.2739
		c2.4146-0.0448,3.7037-0.3458,10.8281-0.6443c0.1043-0.6398,0.2794-1.2682,0.4663-1.9667
		c-0.2979-0.4136-0.5834-0.8975-0.8699-1.3819c-1.4703-0.8232-2.9412-1.6464-4.4714-2.5517
		c-1.6475-0.6333-3.3551-1.3488-5.0624-2.0645c-0.7815-0.1273-1.5633-0.2543-2.3335-0.4527
		c-0.6806,1.4939-1.3618,2.988-2.0543,4.553c-0.699,2.9503-1.3984,5.9-2.1685,8.8384
		C376.3446,518.5264,376.3446,518.5264,376.6292,518.5729L376.6292,518.5729z M75.0915,469.5522
		c0.8643,0.068,1.7289,0.1358,2.6759,0.144c0.3651-0.4513,0.7299-0.9025,1.1781-1.4128c0.7934,0.0558,1.5865,0.112,2.3918,0.0972
		c0.826-0.595,0.826-0.595,1.2373-1.3303c-1.0066-0.0912-2.0954-0.1224-3.1842-0.1542c-0.4958,0.3575-3.2873,0.9244-6.1826,2.1305
		C73.4573,469.2863,73.4573,469.2863,75.0915,469.5522L75.0915,469.5522z M62.3001,467.4699
		c6.6268-0.3801,6.6268-0.3801,7.4072-0.6911c0.0462-0.2843,0.0927-0.5683,0.1389-0.8529
		c-0.9008-0.2923-10.0877-0.7668-11.3539-0.608c0.119,0.165,0.2265,0.4014,0.4051,0.6497
		C59.9882,466.4367,61.1501,466.9177,62.3001,467.4699L62.3001,467.4699z M211.5697,491.5533
		c2.3287-0.8606,2.3287-0.8606,4.824-1.4029c1.0516-0.6316,2.1024-1.2625,3.2247-1.8825c0.7687-0.2393,1.537-0.4791,2.3766-0.7073
		c0.0462-0.2843,0.0924-0.5683,0.1505-0.9238c-1.8955-0.4544-1.8955-0.4544-3.0229-1.1483
		c-1.9534-0.0995-7.3196-1.192-10.6943-1.5228c-4.8804-0.9403-9.7605-1.8808-14.6409-2.8213
		c-0.7687,0.2398-1.537,0.4791-2.317,0.7903c-4.0609-0.1505-5.1367,0.1851-7.7641,0.195c-4.2477,0.5479-4.2477,0.5479-4.5187,0.8688
		c0.3818,0.7917,0.8229,1.6659,1.2646,2.5401c4.2883,0.9901,8.5771,1.9803,12.8661,2.9704
		c0.0621-2.1782,0.0621-2.1782,0.4164-2.5588c0.4496-0.0729,0.9697-0.1335,1.4904-0.195c0.3305-0.2375,0.7429-0.5352,1.1562-0.8328
		c2.0863,0.6315,14.8431,2.9276,15.9452,3.325c0.0963,0.3082,0.1919,0.6154,0.3589,0.934
		c-0.5191,0.4995-1.1089,0.9868-1.6989,1.4746c-0.0351,0.2126-0.0807,0.4972-0.1276,0.7815
		C211.072,491.4723,211.2857,491.5074,211.5697,491.5533L211.5697,491.5533z M373.7126,517.2225
		c0.4309-1.7535,0.4309-1.7535,0.5187-3.6357c0.5882-0.9258,0.5882-0.9258,2.7748-8.0833c0.3172-0.6046,0.6347-1.2095,1.023-1.8031
		c0.1276-0.7815,0.1834-1.575,0.2398-2.3681c-2.7037-1.3159-2.7037-1.3159-16.2408-6.4375c-1.1254-0.256-2.3102-0.595-3.4954-0.9337
		c-0.2676,1.1968-0.9156,2.0392-3.5118,10.37c-0.6596,4.051-0.6596,4.051-0.5936,5.8853c3.2935,0.828,6.6586,1.6679,10.0117,2.5787
		C373.0014,517.1066,373.0014,517.1066,373.7126,517.2225L373.7126,517.2225z M324.9255,509.061
		c2.6476-1.0284,2.6476-1.0284,3.6394-1.7422c0.0462-0.2843,0.0218-0.5797,0.0079-0.9468
		c-3.2357-1.1835-3.2357-1.1835-4.5377-1.2495c-0.1741,1.0659-0.3592,2.2031-0.5443,3.3398
		C323.7885,508.8756,323.7885,508.8756,324.9255,509.061L324.9255,509.061z M339.3471,510.0956
		c-0.0014-0.438-0.0037-0.8759,0.0065-1.385c-3.0212-0.7107-3.0212-0.7107-3.3404-0.5437
		C337.0808,508.7789,338.22,509.4014,339.3471,510.0956L339.3471,510.0956z M33.1288,459.8025
		c0.2959-0.0252,0.2959-0.0252,0.5885-0.9255c-0.3104-0.7801-0.692-1.5715-1.0741-2.3633c-0.4394-0.4365-0.879-0.8728-1.3782-1.3918
		c-2.9764-1.4329-2.9764-1.4329-7.3259-2.9435c-0.197,1.2081-0.4053,2.4874-0.6846,3.7551c0.195,1.4907,0.195,1.4907,0.4924,1.9037
		C29.5759,459.2239,29.5759,459.2239,33.1288,459.8025L33.1288,459.8025z M42.6864,461.1396
		c0.2248-0.0363,0.4612-0.1437,0.7685-0.2396c-0.2265-0.4016-0.2265-0.4016-2.5367-0.9966
		c-0.2959,0.0249-0.5916,0.0496-0.9584,0.0626c-0.3093-0.3421-0.6891-0.6956-1.0579-1.1205
		c-1.0429-0.3157-2.1453-0.7137-3.2474-1.112c-0.0082,0.9471-0.0082,0.9471,0.6364,2.3647
		C38.4228,460.4451,40.5547,460.7924,42.6864,461.1396L42.6864,461.1396z M52.0056,462.1464c6.5001,0.4014,13,0.8034,19.5114,1.1342
		c0.0695-0.4266,0.2214-0.9122,0.3736-1.3983c-1.2708-4.2922-1.2708-4.2922-2.2377-9.5553
		c-2.0245-0.1111-4.0601-0.1508-6.0965-0.1908c-2.9928,0.4612-6.6271,0.3801-7.8452,0.6925
		c-5.8354-0.0014-16.2655-0.4598-16.7499-0.1738c0.1587,1.2657,0.1587,1.2657,1.58,4.6341
		c3.4968,1.3717,3.4968,1.3717,9.3325,4.5099C50.5845,461.9149,51.2949,462.0305,52.0056,462.1464L52.0056,462.1464z
		 M19.0321,456.7776c0.4263,0.0695,0.9235,0.1505,1.4329,0.1605c0.5882-4.0623,0.5882-4.0623,1.0329-5.4488
		c-0.2979-0.4133-0.2979-0.4133-2.5617-1.2926c-2.4877-0.4048-5.0457-0.8212-7.6039-1.2382
		c-0.2713,0.3209-0.2713,0.3209,0.051,1.0301c2.3289,2.2754,2.3289,2.2754,5.8011,6.4883
		C17.7526,456.5696,18.3923,456.6739,19.0321,456.7776L19.0321,456.7776z M136.584,475.8434
		c0.2863-2.6524,0.2863-2.6524,0.0229-3.2786c-1.9185-0.3129-1.9185-0.3129-2.4029-0.0266c0.4414,0.8745,0.942,1.8309,1.4426,2.7881
		C135.9196,475.4435,136.2518,475.6433,136.584,475.8434L136.584,475.8434z M351.8904,509.22
		c2.2876-8.6729,2.2876-8.6729,4.5102-15.6058c-1.9928-1.1999-3.8424-1.9392-4.0088-2.2584
		c-1.7059-0.2772-3.4112-0.5547-5.1763-0.915c0.0017,0.4377,0.0629,0.9584,0.1238,1.4786c1.8624,1.1061,1.8624,1.1061,3.1221,2.3323
		c0.7503,1.2166,0.7503,1.2166,1.2906,3.274c-0.1752,3.7647-0.2798,7.541-0.3838,11.3173
		C351.4986,508.9374,351.7004,509.0431,351.8904,509.22L351.8904,509.22z M343.7513,507.238
		c0.1769-0.1899,0.3538-0.3799,0.5423-0.6412c0.3668-0.0133,0.8163-0.0859,1.2654-0.1588c0.4714-0.6525,0.4714-0.6525,0.587-1.3632
		c-0.167-0.3186-0.3339-0.6381-0.5604-1.0395c0.2285-2.2972,0.4566-4.5944,0.6962-6.9627c-0.0961-0.3076-0.192-0.6149-0.3473-1.0049
		c-0.4147-0.1403-0.8294-0.2809-1.3159-0.4332c0.1256,1.9174,0.1256,1.9174-0.2211,4.049
		c-0.2115,0.4034-0.4348,0.8776-0.7288,1.3402c-0.4266-0.0689-0.864-0.0675-1.3734-0.0774
		c-0.2265-0.4019-0.2265-0.4019-0.377-2.6144c-0.3549-0.0578-0.6991-0.1871-1.0429-0.3158
		c-1.1452,0.7617-1.1452,0.7617-2.1464,1.9848c-0.9258,2.548-0.9258,2.548-1.2728,4.6803c0.0958,0.3073,0.1917,0.6148,0.347,1.0046
		c1.9786,0.3954,1.9786,0.3954,2.38,0.1689c0.1619-0.9952,0.3354-2.0611,0.5091-3.1272c0.413-0.2973,0.413-0.2973,1.3368-0.1468
		c0.2148,0.4728,0.4297,0.9453,0.633,1.489c-0.0082,0.9471-0.0168,1.8941,0.0345,2.9234
		C343.0522,507.0515,343.4074,507.109,343.7513,507.238L343.7513,507.238z M78.8944,464.1168
		c10.4204,0.9669,20.9112,1.9457,31.4141,2.8528c0.1499-0.9235,0.2296-1.8593,0.3209-2.8655
		c-0.4598-2.5549-0.9077-5.1809-1.3555-7.8069c0.1276-0.7818,0.2545-1.5636,0.3818-2.3454
		c-0.1304-0.0941-0.2497-0.2596-0.3685-0.4246c-1.5038-0.1721-3.0081-0.3439-4.5119-0.5159
		c-0.4487,0.0729-0.9697,0.1338-1.5021,0.2665c-16.8588-0.8484-16.8588-0.8484-25.0413-1.6699
		c-4.8404,0.1602-4.8404,0.1602-6.3428,0.4261c-0.0462,0.2845-0.1638,0.557-0.2809,0.8297c0.362,1.8096,0.7237,3.6193,1.0741,5.5
		c1.3399,3.8659,1.3399,3.8659,1.451,4.9779C75.6964,463.5961,77.26,463.8503,78.8944,464.1168L78.8944,464.1168z
		 M334.3791,504.7639c0.3076-0.0958,1.7204-5.1911,3.3746-9.0797c0.8847-0.9502,1.7683-1.9003,2.6646-2.9219
		c0.1156-0.7106-0.5323-3.0045-0.5868-4.9099c-6.8244-1.5488-7.2039-1.9023-9.6199-2.2961
		c-2.4891-0.8422-2.4891-0.8422-4.9995-1.1055c-0.01,0.5091-0.0315,1.0894-0.053,1.6693c2.715,7.5181,2.715,7.5181,5.8317,17.9461
		C332.1281,504.2514,333.2537,504.5079,334.3791,504.7639L334.3791,504.7639z M37.707,455.879
		c-0.078-1.7634-0.078-1.7634-0.699-3.3236c-1.7053-0.2775-3.3996-0.6262-5.1647-0.9867c-0.5219-0.3768-1.0443-0.7534-1.5548-1.2016
		c-1.1256-0.256-2.3221-0.5236-3.5183-0.7917c-0.2486,0.1788-0.5077,0.4283-0.8382,0.6664c0.1074,0.2361,0.2149,0.4725,0.3937,0.72
		c5.6664,2.382,7.6481,3.6533,9.4861,4.4629C36.4513,455.5287,37.0789,455.7039,37.707,455.879L37.707,455.879z M119.0724,468.2509
		c2.8655,0.3209,5.743,0.5703,8.6204,0.8198c-0.0133-0.3668-0.015-0.805-0.0167-1.2427c-1.1288-1.1322-2.6541-3.8605-9.4578-12.7009
		c-0.1077-0.2364-0.2152-0.4728-0.3819-0.7914c-1.919-0.3127-3.8372-0.6251-5.8272-0.9487
		c-0.1256,1.2195-0.1916,2.5217-0.258,3.8242c0.5667,2.7913,1.3385,9.7007,1.6356,10.114
		C115.2352,467.6264,117.1537,467.9385,119.0724,468.2509L119.0724,468.2509z M132.9038,469.7733
		c1.0888,0.0315,2.249,0.074,3.4205,0.0459c0.4663-1.9667,0.4663-1.9667,0.519-3.6354c-0.4859-3.2888-0.415-6.4142-0.7155-7.7032
		c0.0181-1.4561,0.0181-1.4561-0.2923-2.2362c-0.5686-0.0927-1.1965-0.2676-1.8247-0.4428
		c-8.2633-0.324-8.2633-0.324-12.0645-0.7245c-0.0825,0.0596-0.1766,0.1905-0.2707,0.3212
		c0.2032,0.5437,0.4065,1.0874,0.6692,1.7135c1.8309,2.1952,2.558,3.553,4.6508,5.9369c1.6177,2.1597,3.3063,4.3314,4.9839,6.5738
		C132.264,469.669,132.5483,469.7152,132.9038,469.7733L132.9038,469.7733z M145.7941,469.9026
		c3.1697-3.7882,6.34-7.5761,9.5213-11.4347c0.1409-0.4153,0.364-0.8893,0.5868-1.3635c-1.2078-0.197-2.4758-0.4762-3.7431-0.7554
		c-2.7468-0.1556-5.4935-0.3107-8.2403-0.4666c-0.205,2.1555,0.0612,3.6575-0.038,5.6109c0.5323,3.0045,0.7271,7.6323,0.9896,8.2585
		C145.1546,469.798,145.4392,469.8439,145.7941,469.9026L145.7941,469.9026z M294.1172,493.9781
		c0.0346-0.2131,0.0692-0.4263,0.1159-0.7109c-2.3936-0.5355-2.3936-0.5355-4.0858-0.4462
		C291.2979,493.3729,291.2979,493.3729,294.1172,493.9781L294.1172,493.9781z M155.5645,471.2743
		c0.5207-0.0612,1.0531-0.1933,1.6563-0.3141c-0.1009-1.6211-0.2013-3.2426-0.3617-4.9462
		c-0.2134-0.0349-0.4266-0.0695-0.7225-0.0451c-0.8961,1.0216-1.7915,2.0432-2.7698,3.1238
		c-0.0927,0.5683-0.1854,1.137-0.218,1.7878C153.9303,471.0081,154.7122,471.1354,155.5645,471.2743L155.5645,471.2743z
		 M160.8333,471.6215c16.6391,2.1983,16.6391,2.1983,25.6643,3.6675c1.1834-0.0992,2.4494-0.2574,3.7151-0.4161
		c0.1605-1.4329,0.1605-1.4329-1.2127-14.0576c-0.3818-0.7917-0.3818-0.7917-1.3785-1.3915
		c-3.7298-0.3886-7.4599-0.777-11.2725-1.1061c-7.4814-0.1967-7.4814-0.1967-11.3987,0.114
		c-1.6242-0.7756-1.6242-0.7756-2.7612-0.9604c-0.754,1.0448-1.5072,2.0888-2.3437,3.1932
		c-0.3518,0.8178-0.7036,1.6361-1.1384,2.5135c0.2823,2.7451,0.5647,5.4899,0.9184,8.2468
		C159.9809,471.4826,160.4075,471.5518,160.8333,471.6215L160.8333,471.6215z M17.3183,448.0367
		c1.137,0.1851,2.3564,0.3109,3.5762,0.4362c0.1738-1.0658,0.3472-2.1317,0.5323-3.2689c-1.4678,0.0527-1.4678,0.0527-7.1527-0.8728
		c-9.4697-0.0825-9.4697-0.0825-10.0253,0.1917c0.2497,0.2596,0.5706,0.5309,0.8909,0.8019
		c3.6969,1.0392,8.8846,1.8839,10.26,2.3995C16.039,447.8284,16.6788,447.9326,17.3183,448.0367L17.3183,448.0367z
		 M24.2926,448.6612c0.3898-0.1548,0.7917-0.3813,1.1931-0.6078c0.0465-0.2843,0.1043-0.6392,0.1622-0.9949
		c-1.1288-1.1319-1.1288-1.1319-2.0889-1.5072c-0.1508,0.9236-0.3013,1.8477-0.534,2.8307
		C23.4516,448.4517,23.8777,448.5212,24.2926,448.6612L24.2926,448.6612z M35.4132,450.2531
		c5.5049,0.2401,11.0812,0.4912,16.6572,0.7424c1.8462-0.1375,3.7743-0.3336,5.7033-0.5301
		c0.4975,0.0805,1.0658,0.1729,1.6342,0.2659c4.0688-0.7965,4.0688-0.7965,4.5762-1.2243c1.7291,0.1355,3.5289,0.2827,5.3286,0.4298
		c2.3071-0.2809,4.6142-0.5621,6.9211-0.8427c0.4728-0.2149,1.0168-0.4184,1.5718-0.6925
		c10.493-1.7201,10.493-1.7201,14.1965-2.0656c2.5897-0.6724,5.1911-1.4159,7.8633-2.1484
		c2.2841-0.1389,4.5799-0.3481,6.9463-0.5468c0.9235,0.1508,1.836,0.3722,2.8194,0.6049c0.1275-0.7818,0.326-1.5517,0.5355-2.393
		c-1.4559-3.155-1.4559-3.155-2.414-6.2292c-0.4269-3.206-0.6761-3.4656-1.2067-6.0318c-0.119-0.1656-0.2378-0.3308-0.4275-0.5074
		c-0.8351-4.7319-1.6696-9.4635-2.4925-14.266c-2.4492-9.1525-2.4492-9.1525-4.7109-19.004
		c-0.9933-5.9975-3.0243-14.1335-8.6134-39.846c-0.0264-0.7336-0.0527-1.4675-0.0791-2.2017
		c-1.19-4.7891-2.1019-11.2841-3.7877-18.8535c-0.0068-1.7515-0.013-3.5033-0.0794-5.3382
		c-0.1913-0.6149-0.3835-1.2294-0.646-1.8556c-0.2659-4.6389-0.2659-4.6389-0.7617-7.4188
		c0.1783-2.8888,0.3569-5.7779,0.4643-8.6783c-0.6477-2.2941-0.7271-4.4949-1.0738-5.5001c-0.1142-5.125-0.1142-5.125-0.496-9.0533
		c0.3144-7.7542,0.3144-7.7542,0.1346-30.3973c-0.3005-1.2889-0.0343-2.9236-0.1848-5.1364
		c0.2166-2.2264,0.4331-4.4524,0.6494-6.6787c-0.1684-0.7566-0.4079-1.5253-0.6483-2.2941
		c0.4833-10.1341,0.2982-12.1334,0.9595-22.0193c0.0102-6.783-0.051-13.5771-0.1001-20.4424c0.332-2.937,0.6645-5.8734,0.925-8.8217
		c-0.3084-9.7526-0.2256-19.2226-0.4289-19.7663c0.428-2.6291,1.1951-18.9907,1.0267-19.7479
		c0.4263-6.2036,0.7934-12.4902,1.1605-18.7769c-0.22-1.7867,0.3586-8.4765,0.2798-10.6779
		c0.6412-5.7316,0.6412-5.7316,1.0528-12.7402c1.0959-7.627,2.2031-15.3252,3.3106-23.0233
		c2.8741-13.1735,4.1817-21.2037,6.656-33.7125c0.6245-3.8375,1.2495-7.675,1.8856-11.5838
		c1.8045-7.9495,2.7655-10.7107,4.3489-17.7477c1.0755-3.4722,1.0755-3.4722,2.4029-9.3841
		c-0.2242,0.0366-0.4499,0.0728-0.7449,0.0978c-1.6945,2.7879-3.3885,5.576-5.1653,8.4235
		c-1.4675,3.1898-4.1615,7.6384-8.5773,16.8406c-1.2365,1.7683-2.7388,5.1713-4.0459,6.9276
		c-2.808,5.5976-4.8078,8.9195-5.6523,10.9704c-0.6415,2.5948-0.6415,2.5948-0.6131,3.7664
		c-0.3308,0.238-0.6727,0.5474-1.086,0.8444c-0.4232,0.8068-0.917,1.6016-1.4114,2.3961
		c-6.3119,15.0211-6.3119,15.0211-12.9019,31.7478c-7.1924,19.9845-7.1924,19.9845-11.0066,31.7639
		c-1.5372,6.7527-3.1575,13.5649-4.7769,20.3771c-0.8444,2.0511-1.0757,3.4728-2.7283,7.7992
		c-0.3192,0.1667-0.3192,0.1667-2.7473,9.2546c-1.0874,6.6801-2.1864,13.4311-3.2859,20.1824
		c-0.4887,2.109-0.9782,4.2174-1.5384,6.3148c-4.1635,22.8844-5.3736,31.6601-6.3621,36.3867
		c-0.3733,1.3983-0.7466,2.7964-1.1917,4.1828c-0.5967,5.0093-0.5967,5.0093-2.7768,17.0552
		c-1.8692,15.963-1.8692,15.963-2.7272,27.0573c0.1485,8.049,0.3634,8.5215,0.3155,14.6412
		c-0.1474,1.8005-0.2945,3.5994-0.3821,5.4819c0.1718,1.6331,0.415,3.2772,0.6466,4.993c-0.3328,2.9367-0.665,5.8734-0.9972,8.8101
		c-0.1023,4.2143-0.2052,8.4288-0.3076,12.6428c-0.9156,8.3129-1.957,14.709-2.4664,20.9721
		c-0.0363,6.0488-0.0363,6.0488-1.2067,22.199c-0.1721,7.7771-0.2846,15.6376-0.3971,23.4972
		c-0.2358,3.244-0.4842,6.5597-0.661,9.8867c0.3186,6.1064,0.6375,12.2128,0.9448,18.3906
		c-0.1584,1.8703-0.3288,3.8123-0.4989,5.7549c1.2705,4.2914,1.2705,4.2914,1.6872,4.8702
		c-0.2662,1.6342-0.2662,1.6342-0.233,4.1199c0.8093,1.2991,3.4719,4.2128,4.2075,4.6241c0.119,0.1653,0.2375,0.3305,0.4164,0.5786
		C31.1462,448.6836,33.2796,449.4682,35.4132,450.2531L35.4132,450.2531z M220.6964,478.9601
		c0.7566-0.1681,0.7566-0.1681,1.0279-0.4893c-1.3637-0.5865-1.3637-0.5865-4.7035-1.1302
		c-0.1539,0.0479-0.3076,0.0958-0.4728,0.2151c0.3569,0.4955,0.3569,0.4955,1.7322,1.0111
		C219.0614,478.6943,219.8435,478.8218,220.6964,478.9601L220.6964,478.9601z M327.9042,502.5886
		c-0.5128-4.5581-2.626-8.5966-5.3991-16.74c0.0807-0.4978,0.0907-1.0063,0.1122-1.5865
		c-2.3354-0.8907-17.987-4.9785-22.3948-6.1336l-13.3534-3.8271l0.335,3.8886c1.567,10.5406,1.567,10.5406,1.9486,11.3321
		C292.6942,490.1718,324.3033,501.8564,327.9042,502.5886L327.9042,502.5886z M194.4488,474.3955
		c1.0411-0.1224,2.0823-0.2452,3.2062-0.4269c6.3329,0.0828,6.3329,0.0828,17.5808,0.8932
		c5.7197,0.7123,12.0809,1.9667,13.2642,1.8677c-0.4757-3.7982-0.9519-7.596-1.4162-11.4647
		c-3.6008-0.7325-18.8186-2.6992-20.7022-3.225c-12.8265-1.8692-12.8265-1.8692-15.4429-1.9304
		c-0.0349,0.2135-0.1406,0.4147-0.2579,0.6874c0.3568,3.6326,0.7137,7.2652,1.1418,10.9094
		c0.1689,0.7566,0.4082,1.5253,0.6477,2.2941C193.11,474.1041,193.7495,474.2084,194.4488,474.3955L194.4488,474.3955z
		 M286.3463,489.2839c0.0794-0.9349,0.0876-1.8819,0.1077-2.9004c-0.3044-2.1648-1.7314-10.6702-2.1061-12.8466
		c-0.4385,0.0017-18.5012-1.8694-21.0229-2.7502c-1.359,0.7274,2.1214,9.6066-0.2021,11.7813
		C261.9859,484.414,281.5804,488.2552,286.3463,489.2839L286.3463,489.2839z M261.0128,482.2415
		c0.1615-0.9941,0.3951-1.978,0.6398-3.0325c-0.648-2.2938-0.648-2.2938-1.5239-8.5638c-1.1963-0.2681-2.3811-0.6069-3.6371-0.9572
		c-1.7405-0.0644-3.5518-0.1403-5.3745-0.1454c-4.5601-0.6696-9.1199-1.3394-13.7509-2.0203
		c-2.6767-0.5814-5.4135-1.2458-8.1504-1.9108c-0.046,0.2846-0.1752,0.6284-0.3041,0.9723
		c1.5006,8.7063,1.5006,8.7063,2.1469,10.5622c6.5259,1.1355,6.5259,1.1355,14.4243,1.9105
		C250.6357,480.1144,255.7888,481.1726,261.0128,482.2415L261.0128,482.2415z M84.727,450.6953
		c6.2524,0.5806,13.0229,0.6617,17.8537,1.0108c1.1123-0.1111,2.2362-0.2928,3.4308-0.4629
		c3.0906,0.284,6.1928,0.4972,9.3657,0.7217c-0.0014-0.4374,0.0085-0.9465-0.0527-1.4669c-0.8674-0.944-1.7235-1.959-2.5795-2.9736
		c-0.7824-0.1273-1.5633-0.2543-2.4163-0.3931c-0.4745-0.2231-1.0196-0.4578-1.5534-0.7637
		c-1.3621-0.1488-2.7238-0.2977-4.0856-0.4462c-4.1414,0.347-6.2107,0.9581-9.2038,1.4196c-0.686,0.18-1.3833,0.4315-2.0809,0.6823
		c-6.412,0.8527-8.7058,1.5007-9.7359,1.5517c-0.1531,0.0479-0.3189,0.167-0.4839,0.286c0.1188,0.165,0.2262,0.4014,0.3336,0.6378
		C83.8746,450.557,84.3007,450.6265,84.727,450.6953L84.727,450.6953z M120.7916,453.2116c0.544-0.2032,0.544-0.2032,2.7099-0.0694
		c0.3192-0.167,0.6384-0.3339,1.04-0.5602c1.3501,0.2197,2.7,0.4397,4.0504,0.6594c0.5204-0.061,1.1126-0.1109,1.7152-0.231
		c1.7059,0.2775,3.3999,0.6262,5.165,0.9865c0.0907-1.0057,0.1814-2.0126,0.2129-3.1019c-0.3467-1.0046-0.3467-1.0046-1.0624-8.7077
		c0.0199-1.0182,0.0397-2.0365,0.0714-3.1252c-0.1573-0.8283-0.3852-1.6677-0.6131-2.5075
		c-0.2415-4.3427-0.4825-8.6862-0.7948-13.041c0.0329-3.7877-0.0048-7.5872-0.0309-11.4579
		c-0.5789-2.7198-0.5789-2.7198-0.8776-6.7079c0.0017-5.8357-0.6446-13.9654-0.5454-19.0556
		c-0.3121-1.2177-0.1945-4.6273-0.576-8.5555c0.0085-0.9471,0.0164-1.8938,0.0357-2.912c-0.3648-2.6852-0.7186-5.4425-1.1432-8.2105
		c0.0479-6.1197,0.0479-6.1197-0.4822-14.9596c-0.4266-3.206-0.4592-8.8288-1.4871-17.75c0.0286-1.9647,0.0677-4.0014,0.0363-6.0486
		c-0.1604-1.7036-0.3918-3.4194-0.6111-5.2061c0.2662-1.6344,0.2662-1.6344,0.1982-7.0432
		c-0.3271-2.0231-0.6426-4.117-0.9584-6.2107c-0.1882-2.876-0.3764-5.7518-0.5649-8.6273c-0.218-1.3481-0.4955-2.7799-0.7733-4.2114
		c-0.0714-3.1476-0.2132-6.3079-0.3436-9.5389c-0.3815-0.7914-0.3815-0.7914-0.6018-2.5778
		c0.0547-1.2314,0.121-2.5333,0.1871-3.8362c-0.3473-1.0046-1.1401-19.8816-2.4321-36.1406
		c0.0366-2.9117-0.4938-8.6148-0.8413-9.6199c-0.1848-1.9996-0.1848-1.9996,0.1179-6.5463
		c-0.4643-7.0056-0.917-14.0825-1.4406-21.1708c-0.7832-6.8386-1.6376-13.6888-2.4919-20.539
		c0.0048-1.8229,0.0213-3.7167-0.0329-5.6222c-0.1222-1.0412-0.3155-2.0942-0.4978-3.2179
		c-0.2973-9.8232-0.2973-9.8232-1.8187-30.4965c0.2035-2.5931-0.1321-3.6692-0.0794-5.3382
		c-0.1687-0.7569-0.4079-1.5251-0.6477-2.2938c0.0366-6.0489-0.299-7.1246-0.6885-16.3797
		c0.0116-6.3448-0.519-12.0479-0.7121-25.6476c0.1803-2.4509,0.1803-2.4509-0.0513-4.1664
		c0.1964-1.2081,0.4053-2.4874,0.6132-3.7667c-0.1551-6.6635-0.3816-13.3387-0.5961-20.0847
		c-0.3467-1.0046-0.3467-1.0046-0.9564-12.0461c0.1006-1.5157,0.2013-3.0311,0.231-4.5582
		c-0.4606-2.9928-0.4606-2.9928-0.6803-7.9165c0.1321-2.604,0.2758-5.2802,0.3489-7.9673c-0.3076-3.041-0.6148-6.082-0.9221-9.1225
		c-0.299-0.8515-0.5984-1.7025-0.9567-2.6365c-0.4714,0.6528-0.4714,0.6528-3.2116,8.5229
		c-1.618,7.2504-2.4973,9.5145-4.117,16.3267c-1.5387,9.4516-5.3033,28.097-6.5305,35.6295
		c-0.9998,4.7977-1.9996,9.5956-3.0711,14.3813c-0.4014,3.3636-0.8144,6.7978-1.1568,10.2436
		c-0.8728,4.0158-0.8728,4.0158-1.7884,12.3284c0.015,0.8054,0.03,1.6101,0.104,2.4971c-0.2761,2.1436-0.5522,4.2872-0.828,6.4304
		c-0.3657,9.8619-0.0995,11.3638-0.4946,19.6157c-0.6596,7.1875-0.6596,7.1875-1.5888,24.5438
		c-0.1352,4.8657-0.2826,9.8019-0.4297,14.7387c0.1071,3.3727,0.2032,6.817,0.2985,10.2608
		c-0.2826,3.5291-0.5649,7.0569-0.7767,10.5973c-0.2001,16.0157-0.2001,16.0157,0.0309,17.7313
		c-0.3368,7.8965-0.6744,15.7927-0.9405,23.7008c0.1341,0.9706,0.2676,1.94,0.4612,2.9931
		c-0.1704,1.9417-0.3523,3.9546-0.4632,5.9797c0.3339,10.0477,0.1797,22.6425,0.4969,31.4478
		c-0.1358,1.7286-0.271,3.4574-0.4184,5.2574c0.4861,3.2888,0.6809,7.9155,1.5934,14.4113
		c-0.0482,2.9829-0.0249,5.9777-0.002,8.9722c0.3456,0.567,0.8875,6.1991,1.2691,6.9908c0.22,1.7867,0.22,1.7867-0.083,6.3329
		c1.1441,5.0735,1.1441,5.0735,3.0589,17.0572c6.6263,30.9875,6.6263,30.9875,8.1632,36.7821
		c0.2452,2.082,0.5604,4.176,0.8762,6.2699c3.452,14.641,3.8684,15.2198,4.3297,18.2126c0.6939,2.0094,1.6163,7.9954,2.2637,10.2892
		c0.1225,1.0414,0.233,2.1541,0.415,3.2774c1.2708,4.2922,1.2708,4.2922,2.3431,9.3538c0.7189,2.306,1.5089,4.623,2.2983,6.9401
		c2.4035,3.1632,4.8064,6.3264,7.2689,9.5723C119.9387,453.0728,120.365,453.1422,120.7916,453.2116L120.7916,453.2116z
		 M148.5184,454.5161c2.4851-0.0328,2.4851-0.0328,9.1752,0.5454c0.8019-0.8904,1.6033-1.7813,2.4049-2.6719
		c1.1653-1.7799,2.4129-3.6196,3.6604-5.4587c1.3555-1.6033,2.7816-3.1947,4.2197-4.8569c0.129-0.3441,0.2696-0.7594,0.4096-1.1738
		c4.879-5.7711,4.879-5.7711,6.444-8.2151c0.1043-0.6401,0.1369-1.2906,0.1823-2.0132c-3.7664-0.6131-4.4314-1.0131-11.3241-2.1354
		c-1.6713-0.4909-3.3421-0.9816-5.0717-1.5553c-0.9706,0.1338-0.9706,0.1338-4.4773-0.7291
		c-3.38-1.6444-6.7595-3.2887-10.1276-5.0042c-0.3802-0.3541-0.8198-0.7898-1.2595-1.2263
		c-0.3552-0.0575-0.7815-0.1273-1.1965-0.2676c0.0482,3.2905,0.0842,6.6518,0.1916,10.025c0.1834,1.5616,0.438,3.1351,0.6925,4.7086
		c0.3421,5.9644,0.684,11.9288,1.0258,17.8929c0.1556,0.3903,0.3818,0.792,0.6083,1.1937
		C145.5565,453.8883,147.0373,454.2021,148.5184,454.5161L148.5184,454.5161z M167.1455,456.6008
		c2.497-0.1043,2.497-0.1043,19.8187,1.038c6.4185,0.8989,12.8373,1.798,19.2682,2.6266c3.0096,0.7818,3.0096,0.7818,4.9748,0.8098
		c5.2812,0.7138,10.5633,1.4278,15.916,2.1538c8.2454,1.7798,8.9099,2.1801,16.1949,3.585c2.925,0.4031,5.8504,0.8062,8.7755,1.2095
		c0.663-0.0377,1.3255-0.0757,1.9998-0.1845c3.8608,0.4825,7.7213,0.9652,11.6646,1.3878c1.6937,0.3492,3.4586,0.7095,5.2121,1.1407
		c0.7149-1.0012,14.7064,0.045,15.8216,1.4581l31.3608,8.6808l-51.1183-33.9043c-0.2857-0.4839-0.6313-1.0511-0.9766-1.618
		c-0.5457-0.2347-1.1619-0.481-1.7665-0.7982c-18.2285-3.1865-18.2285-3.1865-27.0048-4.3965
		c-4.4521-0.4326-8.9158-0.7951-13.4507-1.1687c-23.521-3.3916-28.0439-3.8361-37.2826-5.3405
		c-1.6937-0.3484-3.4588-0.7087-5.2121-1.1404c-2.4149,3.1813-2.4149,3.1813-6.1747,7.4568
		c-0.8116,1.3997-1.6943,2.7878-2.5767,4.176c-2.0265,2.588-4.0524,5.1758-6.1495,7.7528c-2.035,3.5348-2.035,3.5348-2.1507,4.2454
		C164.8001,456.2186,164.8001,456.2186,167.1455,456.6008L167.1455,456.6008z M225.0386,431.2298
		c4.5233,0.4448,9.0464,0.8895,13.6525,1.2744c7.852,1.0599,15.7153,2.0484,23.5783,3.0368
		c0.068-0.8649,0.0652-1.7405,0.0732-2.6873c-0.7452-3.0393-1.5613-6.0903-2.378-9.1414c-0.6693-1.7136-1.3385-3.4276-2.0676-5.2237
		c-0.7798-2.8261-1.6194-5.735-2.4588-8.6439c-0.7985-1.3698-0.7985-1.3698-1.7569-4.4439c-0.0729-0.449-0.1338-0.9697-0.195-1.4907
		c-0.8095-1.2989-2.7961-7.0203-5.5675-13.7449c-0.6115-2.0696-1.4097-3.4393-1.9862-5.722
		c-1.3864-3.5807-3.8339-12.2955-5.2549-15.6642c-2.4939-8.4296-2.4939-8.4296-3.2213-9.7886
		c-0.1335-0.9697-0.3387-1.9514-0.5315-3.0041c-0.4184-1.0165-0.9077-2.0443-1.3853-3.1436
		c-2.5302-8.655-2.5302-8.655-3.0254-11.4347c-1.387-3.5813-2.575-7.9327-3.304-9.7293c-0.157-0.828-0.3135-1.656-0.5304-2.5665
		c-1.4213-3.3684-2.6555-7.4355-4.1114-10.5905c-0.8033-2.6838-1.6656-5.4505-2.5285-8.2168
		c-0.5122-0.8858-1.0247-1.7716-1.537-2.6577c-2.5863-7.8619-5.1726-15.7233-7.8182-23.6679
		c-0.6809-1.6427-1.3618-3.2856-2.1138-4.9399c-3.257-10.0134-3.9844-11.3718-5.29-15.4508
		c-0.3107-0.7803-0.6922-1.5718-1.0744-2.3633c-0.1482-1.7748-0.1482-1.7748-1.4539-5.8538
		c-2.7249-7.0089-5.3708-14.9533-6.4452-17.3168c-0.337-1.5137-0.7452-3.0393-1.1531-4.5643
		c-1.4562-3.1553-2.7499-7.3049-5.5213-14.0295c-0.1109-1.1126-0.2101-2.2958-0.3801-3.4906
		c-3.0059-9.3163-6.0123-18.6321-9.0896-27.9601c-1.8159-4.5264-3.7026-9.0646-5.5902-13.6032
		c-2.2278-6.9279-2.6561-7.4354-5.0241-13.9487c-0.5071-2.7083-0.5071-2.7083-3.1167-10.4283
		c-2.1484-4.7263-2.1484-4.7263-4.8637-12.2446c-0.3254-1.5848-0.722-3.1816-1.1186-4.7776
		c-0.6579-1.7849-1.3155-3.5699-2.0327-5.4373c-0.8427-3.7849-1.607-5.368-4.019-14.2958
		c-0.4893-1.0281-0.9782-2.0559-1.4559-3.1549c-2.5285-8.2173-3.9152-11.7986-4.4921-14.0808
		c-0.7268-1.3586-8.4756-25.4529-13.8002-40.6906c-1.4213-3.368-1.4213-3.368-1.616-4.8588
		c-0.6233-1.9982-1.2345-4.0672-1.9174-6.1481c-5.5559-13.8164-6.1679-15.8857-6.5954-16.3931
		c-0.6463-1.8558-1.4562-3.1547-4.0654-10.8743c-0.3966-1.5968-0.7931-3.1929-1.1781-4.8608
		c-0.3438-0.129-0.6758-0.3288-1.0083-0.5287c-0.1656,0.1191-0.3305,0.2382-0.5783,0.4164
		c-0.127,0.7814-0.2662,1.6347-0.4762,2.4754c1.6342,31.6339,1.6342,31.6339,1.5874,35.0549
		c0.7274,7.6317,0.8065,12.97,1.4528,21.0992c0.5958,20.0854,0.6287,31.981,1.1228,40.5964
		c-0.1159,3.8474-0.1159,3.8474,0.8257,30.7729c1.9006,36.2723,2.3264,39.4786,2.2796,42.8998
		c0.8776,6.7082,2.0985,22.9552,2.6407,25.4509c-0.1006,1.5154-0.2018,3.0308-0.2432,4.6292
		c0.2812,2.3071,0.5618,4.614,0.843,6.9214c0.0788,5.3379,0.8756,12.5436,1.2555,19.1707c0.2761,0.9933,0.2761,0.9933,0.5768,5.4193
		c-0.051,2.1072-0.1026,4.2139-0.0825,6.3332c0.1567,0.8277,0.3135,1.6557,0.5417,2.4953
		c0.4144,9.5508,0.6806,11.0531,0.5981,14.2495c1.4057,21.3837,1.7532,22.3886,1.8669,27.5131
		c0.7617,7.4191,0.841,12.757,1.3893,17.0045c0.114,5.1251,0.5754,8.1179,2.5095,44.1774
		c0.7617,7.4192,0.8759,12.5439,1.5565,20.4602c0.1143,5.125,0.1143,5.125,2.4092,30.0092
		c-0.0315,1.0891-0.0748,2.2487-0.1176,3.4092c0.6131,2.5073,0.6131,2.5073,1.1007,3.0969
		c15.4608,3.6116,15.4608,3.6116,23.6696,5.1667c0.864,0.0677,1.7286,0.1358,2.664,0.2152
		c1.7416,0.5023,3.5549,1.0162,5.3561,1.6013C210.6128,428.881,217.7535,429.825,225.0386,431.2298L225.0386,431.2298z
		 M272.0529,494.3429l-1.927-0.3138l-3.1374,19.2714l1.9273,0.3138L272.0529,494.3429L272.0529,494.3429z"/>
</g>
</svg>
