<?xml version="1.0" encoding="utf-8"?>
<!-- Generator: Adobe Illustrator 21.1.0, SVG Export Plug-In . SVG Version: 6.00 Build 0)  -->
<svg version="1.1" id="hun" xmlns="http://www.w3.org/2000/svg" xmlns:xlink="http://www.w3.org/1999/xlink" x="0px" y="0px"
	 viewBox="0 0 278.7963 411.7727" enable-background="new 0 0 278.7963 411.7727" xml:space="preserve">
<g>
	<path fill-rule="evenodd" clip-rule="evenodd" stroke="#000000" stroke-width="0.4998" stroke-miterlimit="2.6131" d="
		M103.3638,387.4772c3.8917,0.2894,3.8917,0.2894,6.77,0.7577c1.9006-0.1825,3.8495-0.358,5.798-0.5329
		c2.4789,0.5017,4.9575,1.0038,7.4761,1.5622c1.1191,0.0833,2.2382,0.1667,3.4129,0.2104c0.8697-0.2033,2.8358-0.1786,3.8494-0.3578
		c0.3801-0.8246,0.3801-0.8246,1.1364-1.5381c0.3192-0.1451,0.638-0.29,1.0131-0.4756c0.7427-0.0269,1.486-0.053,2.2765-0.0726
		c1.4635,0.3866,2.9276,0.7724,4.3832,1.2058c6.4507,0.9031,6.4507,0.9031,9.3835,1.0358c1.8071,0.3923,3.6624,0.7935,5.5094,1.2416
		c0.4161,0.1661,0.8316,0.3322,1.2401,0.5468c1.0071,0.1638,2.0146,0.3277,3.0217,0.4915c1.3742,0.0269,2.7567,0.006,4.1389-0.015
		c2.8783,0.4682,7.4168,0.7149,11.1342,1.1727c3.9575,0.7917,4.4609,0.726,12.615,2.0537c3.3999,1.1936,3.3999,1.1936,4.1207,1.6064
		c-0.1014,0.6236-0.2032,1.2473-0.3127,1.9188c0.1842,0.0791,0.4164,0.1661,0.6483,0.2531
		c0.4439-0.9121,0.4439-0.9121,0.9209-1.4258c0.576,0.0935,1.1438,0.2358,1.7116,0.3773c-0.0304,0.4872-0.0601,0.9745-0.0428,1.47
		c1.0437-0.9623,1.0437-0.9623,1.3774-1.4993c0.591-0.002,1.1821-0.0042,1.8289-0.047c5.1795,0.5482,10.4148,1.0559,15.6492,1.5636
		c0.3518-0.0414,0.7506-0.0748,1.1583-0.1559c2.734,0.4445,2.734,0.4445,5.078,1.1713c0.5683,0.4371,0.5683,0.4371,2.5772,1.404
		c1.0242,0.364,2.048,0.7274,3.0648,1.1392c6.0605,1.1834,7.0503,1.148,8.9694,1.4604c1.3425-0.0768,1.3425-0.0768,8.8795,0.8059
		c4.7574,1.0202,9.5074,2.0894,14.2569,3.1575c1.8567,0.6962,3.7051,1.4403,5.553,2.1844c0.8637,0.1406,1.7266,0.2815,2.5983,0.3742
		c-0.2653-0.4868-1.0341-0.9074-1.1466-1.1226c-2.3604-0.9255-4.7211-1.8516-7.0815-2.7776
		c-1.1029-0.1797-2.2062-0.3589-3.3576-0.5468c-0.1525-0.2713-0.1525-0.2713,0.0782-0.4793
		c0.8949-0.0516,1.8369-0.095,2.7876-0.1865c0.4629-0.1216,0.9334-0.2906,1.4048-0.4604c1.4301-0.0139,2.8596-0.0269,4.2976-0.0884
		c1.3569-0.4686,2.1299-0.9828,3.3344-1.4267c0.2308-0.2081,0.4694-0.4649,0.7566-0.7135c0.4626-0.1219,0.9252-0.2438,1.3966-0.4128
		c1.8094-1.1336,1.8094-1.1336,3.3463-2.4097c0.4776-0.5128,0.9629-1.074,1.4958-1.6274c0.9603-1.665,0.9603-1.665,1.8306-3.9858
		c0.57-3.5013,0.57-3.5013,0.8121-7.1056c-0.1499-1.7972-0.2928-3.642-0.4356-5.4871c-0.6537-3.8486-0.6537-3.8486-1.4803-6.9372
		c-1.7847-5.0673-1.7847-5.0673-3.7271-9.47c-0.6358-1.2356-1.3198-2.4795-1.9955-3.7718
		c-2.0968-3.1473-2.0968-3.1473-2.9234-4.1193c0.1676-2.238,0.2946-4.5309,0.4221-6.8247c-0.1321-3.1235-0.1321-3.1235,0.0334-3.835
		c1.6619,0.074,1.6619,0.074,1.9326-0.0791c0.5468-1.2407,0.5468-1.2407,0.8047-2.8233c-0.0573-0.256-0.1066-0.559-0.203-0.8702
		c-0.4096-0.5097-0.8674-1.0276-1.3241-1.5446c-1.1372-0.5794-2.3215-1.1661-3.4985-1.8009
		c-5.7929-2.2234-11.5773-4.4949-17.411-6.7734c-4.8864-1.436-4.8864-1.436-8.775-2.9551c0.1168-0.7195,0.2415-1.4876,0.3668-2.2547
		c-0.0261-0.4476-0.0513-0.8949-0.1247-1.3499c-0.1936-0.3268-0.3864-0.6539-0.5794-0.9805
		c-0.6245-0.3974-1.2895-0.8499-1.9545-1.3031c-1.7266-0.2815-1.7266-0.2815-2.5888-0.1262
		c-0.1117,0.0805-0.2228,0.161-0.3904,0.2815c-0.182,0.5119-0.4189,1.0638-0.6568,1.6163c0.0493,0.3033,0.0898,0.6548,0.1791,1.014
		c-0.1103,0.3756-0.2206,0.752-0.3308,1.1276c-1.5352-0.2502-3.0699-0.4997-4.6131-0.7018
		c-4.2148-1.3266-4.2148-1.3266-5.9423-1.6072c-0.2148,0.1125-0.2148,0.1125-0.879-0.0448l-27.8169-19.3124
		c-1.6651-0.9609-9.3988-6.5407-8.3369-6.6141c0.3002-0.9354,1.1812-2.4171,1.5292-3.3452
		c-0.1528-0.2707-0.3458-0.5978-0.5385-0.9247c-1.6398-0.5128-1.6398-0.5128-3.0787-0.7478
		c-0.2979-0.5896-0.5882-1.2277-0.9261-1.874c-0.2117-1.1174-0.4714-2.2431-0.7237-3.4164c-2.23-6.567-2.264-7.2623-3.2003-9.6794
		c-0.0981-0.6072-0.1967-1.2141-0.3345-1.8763c-0.3305-0.6939-0.6605-1.3878-0.9825-2.13c-0.8502-2.9443-1.3491-3.8137-1.9647-6.08
		c-0.5395-1.2206-1.1277-2.4491-1.7079-3.7248c-2.2286-6.2717-2.2286-6.2717-2.5172-6.6138
		c-0.0094-0.248-0.0102-0.5434-0.0116-0.839c-0.322-0.7421-0.6446-1.4839-0.9587-2.2737
		c-2.9778-9.8396-3.2584-10.2305-4.8872-16.2564c-0.1522-0.2713-0.3532-0.5497-0.5462-0.8767
		c-0.826-2.7935-1.1146-3.1357-3.6476-11.7709c-0.2815-0.39-1.0596-3.4716-3.7805-10.955c-0.33-0.6939-0.6599-1.3881-0.9828-2.1299
		c-0.3886-1.5403-0.7781-3.0807-1.2155-4.629c-0.4748-1.0131-0.9507-2.0262-1.4734-3.0467c-0.18-1.0137-1.0908-3.2794-1.9406-6.2244
		c-0.4992-0.8688-1.8161-4.875-2.3548-5.7996c-0.2432-0.9261-0.5267-1.908-0.8101-2.8891c-0.6367-1.5319-1.2736-3.0635-1.9111-4.595
		c-0.2347-0.9739-0.5185-1.9553-0.8014-2.9373c-1.1871-3.2952-2.4222-6.598-3.649-9.949c-0.3657-1.6846-0.3657-1.6846-1.7376-5.3544
		c-0.5389-0.9252-0.5389-0.9252-3.2049-8.7445c-0.2276-1.0217-0.5031-2.0515-0.7781-3.0813
		c-0.3387-0.6454-0.6767-1.2917-1.0145-1.9377c-0.5649-1.6674-1.1783-3.3433-1.7847-5.0663
		c-0.2596-1.1257-0.5193-2.251-0.7715-3.4246c-0.9357-2.4177-2.5878-8.2998-4.8178-14.8668
		c-0.0493-0.303-0.0899-0.6548-0.1312-1.0058c-0.3379-0.6462-0.6758-1.2924-1.0066-1.9857
		c-0.3894-1.5409-1.372-3.6703-1.7606-5.2106c-0.9116-2.2655-1.8712-4.5391-2.8228-6.8605
		c-0.8499-2.9451-2.689-7.6757-3.5158-10.7651c-0.9354-2.4171-0.9354-2.4171-1.7614-5.2097
		c-0.652-1.4361-1.2966-2.9197-1.9414-4.4036c-0.6962-2.378-1.3845-4.8044-2.0727-7.2303
		c-0.3226-0.7419-0.6446-1.4836-0.9593-2.2734c-1.1089-3.7749-2.2657-7.5574-3.4144-11.3882
		c-0.5737-1.6199-1.1945-3.2473-1.8079-4.9225c0.0065-0.3439,0.021-0.7354,0.0354-1.1271
		c-0.6593-1.0922-0.6593-1.0922-2.2887-5.2963c-1.7064-5.5463-2.6427-7.9642-8.7213-26.8762
		c-0.2894-0.3423-1.9726-6.0323-5.6212-15.9822c-1.8632-4.587-1.8632-4.587-3.6487-9.949c-0.3249-1.3331-0.641-2.7139-0.9578-4.0946
		c0.1088-0.6716,0.2763-0.7926,0.3436-2.111c-0.667-1.0437-1.3343-2.088-2.0412-3.1881c-0.5448-0.2858-1.0815-0.6194-1.666-0.9601
		c-0.9595-0.1567-1.9182-0.3127-2.8777-0.4686c-0.2234,0.1602-0.4538,0.3691-0.733,0.5701
		c-0.4626,0.121-0.9261,0.2429-1.3969,0.4127c-0.7404,0.6177-0.7404,0.6177-1.8927,2.2516c-0.5468,1.241-0.5468,1.241-0.7027,2.2004
		c0.3849,0.3575,1.2569,0.7462,3.157,2.3843c0.1768,0.423,0.1768,0.423-0.0576,1.8618c-3.4786,5.3425-3.4786,5.3425-7.194,11.8281
		c-0.324,0.7841-0.6571,1.6157-1.037,2.4403c-0.3183,0.441-0.684,0.873-1.0502,1.3062c-1.9499,4.114-2.8792,5.5878-3.8463,7.5967
		c-0.4136,0.4248-2.3324,4.3469-3.2383,5.6769c-0.9905,2.1532-0.9905,2.1532-2.8086,5.1554
		c-1.061,2.5846-1.061,2.5846-1.5296,3.3455c-0.678,2.3519-1.7405,4.6406-2.0951,5.9127c-0.1196,0.1276-0.2387,0.256-0.4141,0.4249
		c-3.774,9.873-7.5478,19.7458-11.3772,29.6598c-0.9006,2.808-1.8006,5.6151-2.7014,8.4231
		c-1.3618,5.342-1.3618,5.342-2.3417,10.4511c-2.8253,9.1905-2.8253,9.1905-4.6746,14.5029
		c-2.1076,11.1288-2.4324,11.9129-2.6354,13.1605c0.0573,0.2551,0.1057,0.559,0.203,0.8702
		c-0.5114,2.2305-1.0298,4.5098-1.5962,6.7804c-0.2798,2.0229-0.5607,4.0454-0.8484,6.1158
		c-0.6185,3.1975-1.2458,6.4443-1.8726,9.6902c-0.2959,2.1183-0.599,4.2846-0.9028,6.4507
		c-0.2523,0.9437-0.504,1.8879-0.8042,2.8234c-0.5714,3.2063-1.1503,6.4602-1.7291,9.7135
		c-2.1646,17.2258-2.1646,17.2258-2.0197,17.545c-0.1071,1.2626-0.2219,2.573-0.337,3.8843
		c0.0145,3.8426,0.0289,7.6855,0.0913,11.5364c-0.2574,1.5826-0.2574,1.5826-0.1326,2.9327
		c0.2574,0.5339,0.2574,0.5339,0.2647,2.3078c-0.2169,1.934-0.4331,3.8684-0.6021,5.8104
		c-0.1661,4.6508-0.3402,9.3496-0.4663,14.0554c-0.2574,1.5832-0.5156,3.1663-0.781,4.7974
		c-0.3685,6.1931-0.2117,7.3505-1.0502,20.361c-0.108,5.2019-0.176,10.459-0.2443,15.7161
		c-0.1537,1.5503-0.3081,3.1017-0.4142,4.6593c0.1284,4.3543,0.3047,8.7157,0.4808,13.077
		c-0.2892,3.8923-0.2892,3.8923-0.2044,5.186c0.4374,1.5483,0.4374,1.5483,0.6939,3.9044
		c-0.0624,0.3838-0.1732,0.7599-0.2914,1.1837c-1.694-0.1772-3.4368-0.3628-5.1795-0.5477
		c-2.6122,0.0173-5.2245,0.0355-7.8851,0.0457c-0.4788,0.2177-0.9573,0.4346-1.4919,0.6925
		c-0.0465,0.288-0.1015,0.624-0.1559,0.9595c0.2574,0.5338,0.2574,0.5338,1.0196,1.2983c1.3286,0.6097,2.6572,1.2203,3.9779,1.8782
		c0.705,0.5091,1.4505,1.0732,2.1951,1.6382c0.57,0.7325,1.1401,1.4658,1.7581,2.2062c-0.0233,0.1443-0.0544,0.3356-0.0856,0.5278
		c-1.4548-0.1383-2.9098-0.277-4.3716-0.3668c-2.5189-0.5584-2.5189-0.5584-3.6936-0.6021
		c-0.1596,0.0726-0.3271,0.193-0.5425,0.3062c-0.0391,0.2401-0.0856,0.5273-0.1806,0.807c0.0726,0.1596,0.1931,0.3271,0.3053,0.5425
		c1.4896,0.8334,1.4896,0.8334,3.9787,1.8783c1.7028,0.4252,1.7028,0.4252,6.0554,2.1191c2.8108,1.787,2.8108,1.787,3.6689,2.5665
		c0.1298,0.4147,0.2509,0.8782,0.3727,1.3408c0.3458,0.5978,0.6919,1.1959,1.0369,1.7935
		c1.1642,3.4398,2.3193,6.9264,3.5232,10.4212c0.2276,1.0219,0.4547,2.0438,0.6823,3.0657
		c-0.3124,1.9188-0.3124,1.9188-0.8889,3.6462c-0.2721-0.1428-0.5924-0.2928-0.9125-0.4439
		c-0.1514,0.0247-0.3039,0.0493-0.5111,0.114c-0.1647,0.7115-0.0754,1.0712-0.2248,1.6869
		c-0.1596,0.0725-0.3192,0.1451-0.5346,0.2573c-0.0936,0.5757-0.2356,1.1438-0.377,1.7116
		c-0.1675,0.1204-0.3351,0.2407-0.5578,0.4011c0.1908,1.8527,0.1908,1.8527,0.0893,2.4766c-0.2313,0.2086-0.47,0.4646-0.7563,0.7135
		c-0.5992,0.0507-1.2061,0.1486-1.813,0.2466c-1.2359,0.636-1.2359,0.636-2.1061,0.839c-0.7832-0.0289-1.6143-0.066-2.4454-0.1029
		c-0.1267,0.176-0.2537,0.3532-0.3813,0.5292c0.1448,0.3183,0.29,0.6375,0.4827,0.9646c0.9944,0.8513,0.9944,0.8513,1.9066,1.2951
		c0.9436,0.2523,1.8879,0.504,2.8233,0.8042c0.5701,0.7333,0.5701,0.7333,1.5645,1.584c0.3799,1.2929,0.3799,1.2929,1.4176,3.0863
		c0.256,0.2395,0.5048,0.5258,0.7534,0.8124c1.2331,0.5947,2.5138,1.1973,3.7945,1.7991c0.8498,0.8283,0.8498,0.8283,2.5231,1.7405
		c1.0239,0.3643,2.0477,0.7274,3.064,1.1393c0.3524,0.254,0.6976,0.5564,1.042,0.8589c1.1684,0.3872,2.336,0.7744,3.5442,1.2169
		c14.69,3.5244,15.1381,3.7942,17.3928,4.1613c1.0397,0.2676,2.0792,0.5357,3.1668,0.8112c0.6883,0.309,1.3686,0.6659,2.0974,1.0307
		c0.5286,0.3815,1.0494,0.8107,1.618,1.2481c1.1514,0.1877,2.3026,0.3747,3.5019,0.57c1.1047,0.4756,1.673,0.913,5.7793,2.9109
		c1.1276,0.3308,2.2552,0.6622,3.4237,1.0494c1.5347,0.2503,3.0699,0.4997,4.6522,0.758c0.9131,0.4436,0.9131,0.4436,2.3519,0.678
		c0.4003,0.2617,0.8005,0.5241,1.201,0.7861c-0.0232,0.1443,0.0014,0.2959,0.0179,0.4952
		c-0.3189,0.1451-0.6939,0.3308-1.0681,0.5156c-0.3917-0.0145-0.8311-0.0368-1.2784-0.0116
		c-0.5505,0.354-0.9706,1.1228-1.4012,1.3481c0.0108,0.8385,0.0108,0.8385,0.4785,1.8995c0.1604,0.2234,0.3693,0.4539,0.57,0.733
		c0.3359,0.0544,0.6636,0.1573,0.9913,0.2596c0.3271-0.1927,0.7095-0.4258,1.0922-0.659c1.8949,0.4561,2.5421,0.4139,3.814,0.7687
		c0.9117,0.1485,1.8224,0.2965,2.742,0.3975c0.0008,0.2951,0.0422,0.6468,0.0833,0.9977c0.9995,0.2123,0.9995,0.2123,1.7181,0.0341
		c0.6077,0.1973,1.2155,0.3946,1.8717,0.5998c0.1684,0.1754,0.3365,0.3503,0.5057,0.5258
		c-0.0241,0.1434-0.0473,0.2871-0.0786,0.4793c-0.2234,0.161-0.4938,0.3133-0.773,0.5142
		c-0.0312,0.1922-0.0703,0.4314-0.1094,0.6715c0.1202,0.1675,0.2415,0.335,0.3538,0.5496c0.7115,0.1653,1.4235,0.3308,2.175,0.5511
		c0.1131,0.2154,0.2175,0.4787,0.3705,0.75c2.8777,0.4683,8.0883,0.8246,8.3531,1.0151c1.0471,0.22,2.0951,0.4396,3.1901,0.6673
		c0.425,0.4141,0.425,0.4141,1.9531,1.0074C102.5959,387.3525,102.9803,387.4149,103.3638,387.4772L103.3638,387.4772z
		 M103.8622,386.2291c0.8702-0.203,0.8702-0.203,1.686-0.0703c0.1125,0.2155,3.8602,0.4808,4.125,0.6715
		c0.6789,0.0615,1.4062,0.1304,2.1336,0.2002c0.847-0.0596,1.7413-0.1103,2.6441-0.2095c0.1117-0.0805,0.2225-0.161,0.39-0.2815
		c1.7819-0.0544,1.7819-0.0544,3.4124,0.2109c0.4641,0.174,0.928,0.3481,1.3841,0.5701c1.1518,0.1871,2.3026,0.375,3.5023,0.57
		c0.2704-0.1531,0.5896-0.2979,0.9167-0.4909c0.752,0.2211,1.552,0.4495,2.351,0.6789c0.5919-0.0028,1.1908-0.053,1.7898-0.1032
		c-0.0014-0.2957,0.0051-0.6386-0.0354-0.9905c-0.1843-0.0791-0.3606-0.2061-0.5369-0.3336
		c-2.2944-0.423-4.5891-0.8456-6.8837-1.2685c-0.6083-0.1973-1.216-0.3946-1.8643-0.6483
		c-0.7929-0.5723-1.6339-1.1523-2.4752-1.7317c-1.1197-0.3793-2.2881-0.7668-3.4478-1.2019
		c-2.7746-0.5009-5.5964-1.0095-8.4189-1.5186c-1.2704-0.0587-2.5888-0.1261-3.9155-0.1451
		c-3.8369-0.6242-3.8369-0.6242-7.3318-1.5381c-0.1284-0.1196-0.2565-0.2387-0.4249-0.4141
		c0.0609-0.6795,0.0609-0.6795,0.3481-0.9281c0.1996-0.0167,0.3988-0.0334,0.6063-0.0981c0.0391-0.2401,0.0303-0.4873,0.0289-0.7832
		c-0.7679-0.4206-9.5269-3.1756-12.5917-4.3148c-0.1684-0.1749-0.3844-0.3583-0.5933-0.5891
		c-4.0705-1.0071-4.0705-1.0071-5.3889-1.0741c-0.1038,0.032-0.2076,0.0647-0.3671,0.1372
		c1.6189,1.2481,1.6189,1.2481,3.8611,2.5977c-0.0391,0.2401-0.0303,0.4873-0.0219,0.7353
		c-0.8753,0.8422-0.8753,0.8422-1.673,1.2047c-0.0782,0.4799-0.1559,0.9593-0.1942,1.4947
		c1.5996,0.4575,1.7751,0.2892,2.5903,0.4221c0.2568,0.2384,0.2568,0.2384,3.8369,0.6242c0.1284,0.1197,0.2568,0.2387,0.4252,0.4142
		c1.1514,0.1871,2.3026,0.375,3.5019,0.57c0.5119,0.182,1.0242,0.3634,1.5282,0.5933c0.1927,0.3271,0.4263,0.7098,0.6591,1.0922
		c0.5119,0.182,1.0241,0.364,1.5361,0.5454c-0.0545,0.3356-0.061,0.6795-0.0754,1.0709c-0.1117,0.0805-0.2234,0.161-0.343,0.2894
		c0.0326,0.1038,0.1131,0.2146,0.1856,0.3742c0.6636,0.1573,1.3269,0.3149,2.0313,0.5281c0.1202,0.1675,0.2407,0.3342,0.4009,0.5576
		c1.0632,0.1241,2.1265,0.248,3.1895,0.3713c2.8355-0.1783,2.8355-0.1783,3.6516-0.0457c0.1523,0.2713,0.3053,0.5425,0.498,0.8694
		c0.4644,0.1741,0.9284,0.3481,1.3844,0.5701c0.0726,0.1596,0.1452,0.3192,0.2574,0.5338
		C102.7113,386.042,103.287,386.1356,103.8622,386.2291L103.8622,386.2291z M266.1034,411.0189
		c1.0865-0.0204,2.1807-0.0884,3.3231-0.1485c0.6236,0.1015,1.2472,0.2029,1.9188,0.3124c0.7985-0.0666,1.6446-0.1262,2.4999-0.2327
		c1.4468,0.1865,2.8936,0.3719,4.3404,0.5584c0.1187-0.1275,0.2384-0.256,0.3575-0.3843c-0.0088-0.248-0.0173-0.4952-0.0666-0.7991
		c-1.0241-0.3634-2.048-0.7274-3.0722-1.0908c-0.1908,0.2648-0.3895,0.5766-0.6358,0.881c-1.0139,0.18-2.2612-0.0232-2.7879,0.1866
		c-1.3264-0.019-1.3264-0.019-1.4933,0.1014c-0.6715-0.1094-1.3907-0.2262-2.111-0.3438c-0.2704,0.1531-0.5417,0.3053-0.8688,0.4989
		c-0.6477-0.2537-0.6477-0.2537-1.6231-0.3138c-0.2225,0.161-0.4459,0.3211-0.7252,0.5221
		C265.4472,410.8137,265.7748,410.916,266.1034,411.0189L266.1034,411.0189z M158.5342,390.3541
		c0.9828,0.0122,1.9656,0.0246,2.956-0.0108c6.7626,0.8056,7.4168,0.7149,11.781,1.1299c0.4561,0.2225,0.4561,0.2225,12.8072,2.0854
		c3.1184,0.803,4.0235,1.2954,7.4951,2.3527c7.5844,0.5947,7.9512,0.4575,10.5172,0.7274c0.3756,0.1103,0.7511,0.2211,1.1276,0.3314
		c0.591-0.0023,1.1821-0.0043,1.7731-0.0065c3.191,0.6673,3.191,0.6673,5.4683,0.8898c0.5437-0.0094,1.0871-0.0196,1.6382-0.0777
		c4.2605,0.7427,8.5218,1.4862,12.7834,2.2285c6.4259,0.7515,6.4259,0.7515,11.4452,1.0755
		c0.7027-0.0819,2.7652,0.254,3.1241,0.1647c0.6715,0.1088,1.3433,0.2183,2.0707,0.288c0.0312-0.1922,0.0703-0.4323,0.0615-0.6795
		c-3.0914-1.8819-6.2303-3.7718-9.3617-5.7095c-2.3649-2.1084-4.7698-4.2724-7.1745-6.4364
		c-0.7529-0.517-1.5463-1.0893-2.3397-1.6614c-0.1602-0.2228-0.3132-0.4941-0.5139-0.7733
		c-2.3868-1.6685-2.3868-1.6685-3.6698-2.8624c-1.129-0.6265-2.2575-1.2538-3.4344-1.8885
		c-0.9595-0.1559-1.9191-0.3123-2.8786-0.4683c-1.9491-0.1205-3.8993-0.2415-5.8575-0.3141
		c-24.5171-3.6465-24.9732-3.869-29.0265-4.3809c-4.7885-0.8291-9.5771-1.658-14.3663-2.4869
		c-0.8478-0.2364-1.7436-0.4807-2.6311-0.773c-4.1738-0.6795-12.8965-2.4441-13.1199-2.2839
		c-4.9649-0.9556-9.9303-1.9114-14.9349-2.9239c-1.08-0.3235-2.1597-0.6469-3.2802-1.0262
		c-3.3418-0.6426-6.6835-1.2852-10.0179-1.9755c-11.9792-2.9355-11.9792-2.9355-14.3229-3.6615
		c-2.6224-0.5258-5.2934-1.0591-7.9637-1.5919c-1.3924-0.5222-2.7769-1.0922-4.1604-1.6623
		c-1.4715-0.3379-2.9429-0.6758-4.4064-1.0624c-2.552-0.9564-5.1526-1.9219-7.7525-2.8871
		c-5.5624-2.4315-11.124-4.8631-16.6785-7.3434c-0.881-0.6361-2.2728-1.1583-2.6978-1.5715
		c-4.0169-1.639-4.5862-2.0764-5.8342-2.5753c-0.4252-0.4133-3.627-1.9196-4.8197-2.7536c-1.1772-0.6352-2.4021-1.2778-3.627-1.9205
		c-1.2416-0.8419-2.5311-1.6917-3.8123-2.5903c-0.6882-0.309-1.425-0.6259-2.1532-0.9907
		c-2.3315-1.7085-5.1902-3.5033-6.7612-4.7444c-3.1547-1.7935-3.1547-1.7935-19.0287-12.2559
		c-0.1443-0.0233-0.288-0.0474-0.4881-0.0306c0.3147,0.7897,0.6296,1.5795,0.9442,2.3701c1.5381,1.1364,3.0764,2.2728,4.6624,3.418
		c12.3497,7.9185,13.4062,8.3863,25.2757,16.2272c0.9763,0.356,1.9443,0.76,2.9132,1.1639c0.8484,0.5315,1.6897,1.1117,2.5311,1.692
		c0.7056,0.8042,0.7056,0.8042,1.8513,1.631c4.2826,2.1249,8.6128,4.2577,12.943,6.3913c0.5677,0.1414,1.1355,0.2826,1.7036,0.4249
		c0.1593-0.0726,0.3189-0.1451,0.5343-0.2583c0.288,0.0471,0.6236,0.1015,0.9595,0.1568c4.2976,2.0291,4.2976,2.0291,5.4434,2.8559
		c0.369,0.4538,0.7381,0.9079,1.1075,1.3618c1.7121,0.6724,3.4651,1.4012,5.2172,2.1294
		c5.7362,1.9681,11.4721,3.9357,17.2483,5.9596c0.4314,0.0706,0.8631,0.14,1.2946,0.2103c0.1596-0.0723,0.3192-0.1449,0.5343-0.2574
		c3.3579,0.5468,3.3579,0.5468,7.2842,1.531c0.5692,0.4373,1.1304,0.9224,1.739,1.4156c0.0726,0.1596,0.1451,0.3192,0.2583,0.5338
		c0.7441,0.269,1.5358,0.546,2.3199,0.8702c4.0379,0.9037,8.1165,1.8629,12.1944,2.8224c2.4468,0.3983,4.8931,0.7971,7.3392,1.1951
		c0.4719,0.1261,0.9362,0.3002,1.3997,0.4742c-0.0385,0.2395-0.0377,0.5355-0.0363,0.8311
		c-0.4635,0.1213-0.4635,0.1213-7.1782-0.9717c-9.6125-2.3534-9.6125-2.3534-15.3374-3.4818c-0.972,0.826-0.972,0.826-1.65,1.0605
		c-0.5831-0.0457-1.1667-0.0916-1.7977-0.1452c-1.961-0.9595-1.961-0.9595-5.0735-2.1059
		c-1.1378-0.8747-1.1378-0.8747-1.8363-1.7269c-0.0726-0.1595-0.1372-0.3671-0.2495-0.5822
		c-2.1365-0.7914-4.3208-1.5897-6.5043-2.3882c-2.3519-0.6789-4.6951-1.4048-7.039-2.1313
		c-3.5283-1.3128-7.0968-2.6819-10.6656-4.0504c-0.2704,0.1531-0.5496,0.354-0.8767,0.5468
		c-0.2475,0.0088-0.5434,0.0102-0.8385,0.011c-1.3445-0.5142-2.681-1.0763-4.017-1.6389c-0.2566-0.2387-0.5613-0.4853-0.8578-0.7798
		c-0.1698-0.4706-0.3396-0.9411-0.557-1.4199c-6.8278-3.4259-6.8278-3.4259-9.6041-4.5181c-1.9457-1.055-3.8834-2.158-5.8691-3.2692
		c-0.4314-0.0703-0.8708-0.0927-1.3104-0.1154c-0.1596,0.0725-0.3271,0.1931-0.5417,0.3061
		c-1.1449-0.5315-2.3293-1.1182-3.5144-1.705c-0.2974-0.5901-0.6353-1.2356-0.9731-1.8819
		c-1.0341-0.9066-1.0341-0.9066-9.277-6.5327c-1.1044-0.4748-1.1044-0.4748-12.5484-7.6068
		c-2.2184-1.493-4.4368-2.9868-6.6478-4.5289c-0.2401-0.0391-0.5281-0.0853-0.8079-0.1805
		c0.3416,1.5324,0.3416,1.5324,2.1574,6.4074c0.1842,0.0791,0.3685,0.1588,0.5519,0.2379c0.2146-0.4085,0.4286-0.8167,0.6985-1.2648
		c0.2398,0.0385,0.4799,0.0776,0.7679,0.1247c1.2254,0.9377,2.4511,1.8763,3.6694,2.8624c0.8949,2.0662,0.8949,2.0662,1.9321,3.8596
		c5.2809,6.2759,5.2809,6.2759,8.3123,9.4284c0.1451,0.3192,0.2829,0.6859,0.4677,1.061c3.5195,3.1821,3.5195,3.1821,8.5757,7.2065
		c3.1547,1.7935,5.4434,2.8559,8.2624,4.5949c1.4171,0.6735,2.8332,1.3473,4.2982,2.0291c3.5152,2.0001,7.0781,4.0082,10.641,6.0157
		c0.9754,0.356,1.9517,0.7121,2.9684,1.1234c1.3371,0.8577,1.3371,0.8577,4.8342,2.3627c0.0726,0.1596,0.1369,0.3671,0.2503,0.5822
		c1.519,0.3461,3.0385,0.6919,4.5978,1.0936c0.7209,0.4127,1.4817,0.8813,2.2422,1.3499c3.128,1.0508,6.3037,2.1095,9.4793,3.1683
		c1.127,0.0355,1.127,0.0355,5.1012,1.0276c0.224,0.1349,0.4408,0.3177,0.6568,0.5006c-0.0788,0.184-0.1658,0.4161-0.2528,0.6483
		c-0.2481,0.0088-0.4955,0.0182-0.7994,0.0666c-0.2849,0.5449-0.6758,0.8254-0.6902,1.2169c1,0.2126,1.9993,0.4243,3.0464,0.644
		c3.6921,0.3062,3.6921,0.3062,5.186,0.2043c3.3347,0.6906,3.6935,0.6013,11.6028,2.5291c0.3597,0.2066,0.7679,0.4203,1.169,0.6823
		c3.6927,0.6018,6.5401,1.262,6.9069,1.1248c1.0717,0.3713,4.4297,0.9182,6.3014,1.5185c0.4082,0.214,0.8167,0.428,1.2169,0.6905
		c1.4947,0.1945,2.99,0.3881,4.4847,0.5822c1.2713,0.3546,2.5912,0.7172,3.903,1.1279c5.6355,0.7702,5.6355,0.7702,8.424,0.8788
		c1.5273,0.2982,3.0546,0.5961,4.5814,0.8943c0.3682,0.1582,0.7367,0.3161,1.0964,0.5227
		C156.2957,389.8915,157.3907,390.1191,158.5342,390.3541L158.5342,390.3541z M255.3842,403.3651
		c1.2152,0.0992,2.4301,0.1987,3.7007,0.2574c0.8696-0.2024,0.8696-0.2024,2.8354-0.1783c0.3983-0.3286,0.8442-0.65,1.2903-0.9712
		c0.256-0.0572,0.559-0.1057,0.8623-0.1551c0.0797-0.1842,0.2067-0.3605,0.3334-0.5369c0.8784-0.2508,1.7558-0.5017,2.6898-0.7926
		c0.5579-0.4016,1.1155-0.8036,1.6733-1.2053c0.7163-0.7693,1.4799-1.5316,2.2524-2.3409c0.2931-0.5927,0.6347-1.1772,0.9842-1.8096
		c0.6228-2.016,0.6228-2.016,1.2248-5.7096c0.1024-4.5624-0.0768-5.576-0.0762-7.3978c-0.2365-1.2691-0.4728-2.539-0.7013-3.856
		c-0.4286-1.3008-0.8493-2.649-1.2697-3.998c-0.1358-0.0717-0.2722-0.1429-0.4564-0.222c-0.1718,1.0554-0.2951,2.1184-0.419,3.1816
		c0.0201,1.0862,0.0876,2.1807,0.1477,3.3228c-0.21,1.2951-0.4292,2.6385-0.6474,3.9815c-0.4453,0.6163-0.4453,0.6163-2.1858,5.2569
		c-0.5643,0.7455-1.1364,1.5383-1.7566,2.3235c-3.6592,2.2113-4.864,2.6552-5.6849,3.1612c-1.1174,0.212-2.2357,0.4243-3.3613,0.684
		c-1.5409,0.0936-3.0909,0.235-4.6406,0.377c-1.7187-0.3291-3.4852-0.6664-5.2526-1.0029c-3.3999-1.1936-3.3999-1.1936-5.4015-2.209
		c-1.5939-1.0964-3.2278-2.2487-4.8617-3.401c-1.7079-1.6078-1.7079-1.6078-3.9033-3.2454
		c-0.5547-0.8289-1.1016-1.7059-1.6954-2.5898c-4.3166-4.642-4.3166-4.642-6.2158-6.281c-0.6245-0.3969-1.2416-0.8422-1.9066-1.2946
		c-0.4235-0.1182-0.8479-0.2372-1.2713-0.3555c-0.1596,0.0726-0.3192,0.1452-0.5344,0.2583
		c-2.5892-0.1261-2.5892-0.1261-3.6028,0.053c-1.4397-0.2344-2.8785-0.4685-4.3174-0.7027c-2.325,0.0644-4.697,0.1219-7.0699,0.1783
		c-6.2595-0.8708-6.2595-0.8708-9.7852-1.5933c-1.294,0.085-4.875-0.3008-6.984-0.3487
		c-14.1996-2.6073-14.1996-2.6073-17.2445-2.9554c-2.9676-0.828-2.9676-0.828-18.6945-4.0283
		c-0.2395,0.2565-0.5338,0.5533-0.8283,0.8498c-0.1437-0.0233-0.288-0.047-0.4794-0.0782c-0.1851-0.375-0.3625-0.7979-0.5882-1.2279
		c-1.6789-0.2733-3.4055-0.5548-5.1324-0.836c-1.4156-0.3778-2.8312-0.7566-4.2386-1.1823
		c-2.6456-0.3813-5.3399-0.7707-8.0339-1.1602c-0.1191,0.1284-0.2387,0.2569-0.3657,0.4329
		c-0.2001,0.0168-0.4473,0.0255-0.6953,0.0343c-0.1604-0.2228-0.3214-0.4462-0.5221-0.7245
		c-4.4536-1.0704-8.9005-2.1881-13.3948-3.3138c-1.5032-0.4416-2.9993-0.9317-4.5434-1.4292
		c-6.3326-1.3264-7.2607-1.6744-11.7229-2.6963c-5.4544-1.5775-5.4544-1.5775-11.2459-3.5051
		c-0.4328-0.3662-0.4328-0.3662-8.3217-3.3242c-0.8167-0.4286-1.673-0.9124-2.5305-1.3969
		c-1.5032-0.4417-3.0073-0.8833-4.5504-1.3807c-2.7131-1.1806-5.4182-2.4083-8.1233-3.6369
		c-3.8798-1.2722-3.8798-1.2722-6.321-2.3091c-1.3291-0.9059-1.3291-0.9059-4.0509-2.3338
		c-0.8326-0.3328-1.6642-0.665-2.4889-1.0457c-2.6674-1.7632-5.9655-3.5805-10.1137-6.2252
		c-0.5607-0.1902-1.1205-0.3793-1.7204-0.6253c-0.161-0.2225-0.3212-0.4458-0.5221-0.7251
		c-2.3794-1.7166-2.3794-1.7166-5.233-4.1505c-3.0025-1.8187-3.0025-1.8187-5.1976-3.4563c-0.5533-0.533-1.1067-1.0662-1.7079-1.607
		c-2.6674-1.7637-2.6674-1.7637-3.9002-2.3584c-0.3243,0.7838-0.3243,0.7838-0.6511,0.9768
		c-0.1437-0.0232-0.288-0.0464-0.4796-0.0777c-0.2588-0.8302-0.5176-1.6599-0.7767-2.4902
		c-1.7079-1.6072-1.7079-1.6072-4.3112-3.4594c-0.1916-0.0312-0.3838-0.0623-0.6236-0.1015
		c-0.2713,0.1531-0.5978,0.3459-0.9247,0.5389c-2.1098-0.0479-2.1098-0.0479-2.9721,0.1072
		c-0.3407,0.5848-0.3407,0.5848-0.4734,1.3997c1.3538,1.0573,2.7559,2.1228,4.1584,3.1881
		c5.5341,3.5107,11.0673,7.0214,16.6419,10.588c2.1872,1.6855,2.1872,1.6855,7.7213,5.1962
		c1.961,0.9595,4.4841,2.6991,11.0732,6.3819c7.9245,3.9487,7.9245,3.9487,11.2235,5.766c4.9212,2.1308,5.6342,2.592,21.6541,9.1392
		c3.5113,1.1132,7.0707,2.2346,10.6299,3.3557c1.0074,0.1638,2.0149,0.3277,3.022,0.4915
		c4.5828,1.1894,9.2132,2.3867,13.8436,3.5833c9.0354,1.9638,18.0709,3.9272,27.1069,5.8904
		c6.0281,1.0806,12.1039,2.1677,18.1803,3.2553c1.7994,0.441,3.5986,0.8818,5.3898,1.37
		c11.1453,2.0117,11.1453,2.0117,13.9104,2.2649c9.4655,1.4423,18.978,2.8927,28.4913,4.3432
		c6.2005,0.3206,6.2005,0.3206,8.7432,0.7339c0.7917,0.2769,1.6317,0.5612,2.4642,0.894c0.1531,0.2708,0.3458,0.5979,0.5389,0.9247
		c1.8516,1.631,3.1887,2.489,4.8965,4.096c0.161,0.2234,0.3215,0.4462,0.5222,0.7254c0.5448,0.2857,1.0885,0.5706,1.673,0.9121
		c2.4129,2.1161,4.8663,4.2883,7.3191,6.4602c1.834,1.1358,3.6601,2.3193,5.4862,3.5028c3.6261,1.9196,3.6261,1.9196,4.676,2.7311
		c2.1118,0.6389,4.2157,1.3264,6.3675,2.0211C252.7218,402.7843,254.057,403.0504,255.3842,403.3651L255.3842,403.3651z
		 M70.2538,370.0728c0.7752,0.0768,1.5505,0.1539,2.3337,0.1828c0.0312-0.1913,0.0145-0.3917-0.0023-0.591
		c-5.1199-1.8182-5.1199-1.8182-10.9295-4.2418c-0.1284-0.119-0.2568-0.2387-0.4252-0.4132c-0.76-0.1735-1.567-0.3541-2.3748-0.5346
		c-1.0806-0.6194-2.2099-1.2458-3.339-1.8732c-1.0908-1.1625-1.0908-1.1625-1.995-1.6543
		c-3.4484-1.2016-3.4484-1.2016-4.3529-1.6934c-0.161-0.2234-0.3212-0.4459-0.5221-0.7251
		c-1.7535-1.0242-3.4991-2.096-5.2452-3.1677c-1.872-0.6004-1.872-0.6004-4.4487-1.7093c-0.4003-0.2625-0.8005-0.5244-1.1937-0.8348
		c-0.1522-0.2704-0.3053-0.5417-0.506-0.8209c-0.0014-0.2951-0.0428-0.6469-0.0836-0.9978
		c-0.1528-0.2712-0.3059-0.5425-0.4989-0.8696c-0.8643-0.4357-1.7767-0.8796-2.6819-1.372
		c-0.0811-0.407-0.2103-0.8217-0.3319-1.2852c-1.7059-1.0159-3.4594-2.0398-5.2129-3.064c-0.7441-0.269-1.4803-0.5859-2.2161-0.9028
		c0.1559-0.9595,0.3793-1.1197,0.6134-2.5586c-0.2489-0.2871-1.4962-0.4904-1.9211-0.9037
		c0.0232-0.1443,0.0065-0.3439-0.0102-0.5432c0.8042-0.7064,0.8042-0.7064,1.7615-1.1415c0.1097-0.6715,0.275-1.3831,0.4396-2.0951
		c-0.2265-0.7259-0.7486-1.451-1.3955-3.526c-1.016-0.4113-1.016-0.4113-1.6098-1.0009c-0.5751-0.0935-1.1429-0.2347-1.7107-0.3761
		c-0.1103,0.3756-0.2693,0.7432-0.4272,1.1118c-0.2316,0.2086-0.462,0.417-0.7486,0.6655c-0.174,0.4643-0.3481,0.9284-0.57,1.3845
		c-0.1448,1.7986-0.0317,2.3091-0.1644,3.1249c-0.3988,0.0335-0.8544,0.1066-1.309,0.1806
		c-0.3662,0.4331-0.3662,0.4331-1.1234,0.8506c0.2415,0.6304,0.2415,0.6304,0.2205,1.3658
		c-0.3005,0.9362-0.3005,0.9362-0.3438,2.1104c-0.8442,0.6503-0.8442,0.6503-1.4743,0.8927
		c-0.1349,0.2242-0.2778,0.496-0.4207,0.7687c-0.591,0.0023-1.1829,0.0042-1.7739,0.0065c-0.324,0.7841-0.7381,1.209-0.7526,1.6005
		c2.6322,1.0689,2.6322,1.0689,3.3772,1.6333c0.0014,0.296,0.0428,0.6469,0.0842,0.9986c0.1202,0.1676,0.2406,0.3342,0.4017,0.5576
		c-0.0224,0.4394-0.0451,0.879-0.0675,1.3184c0.4808,0.3736,0.9536,0.7957,1.4752,1.2249c0.1857,0.6701,0.1857,0.6701,0.5309,0.9725
		c0.464,0.174,0.9281,0.3481,1.3915,0.5221c1.2575,0.7464,2.5143,1.4925,3.7638,2.2873c1.1685,0.3866,2.336,0.7739,3.5442,1.2169
		c0.1945,0.6222,0.1945,0.6222,0.5389,0.9246c2.6391,0.7254,2.6391,0.7254,3.8798,1.2722
		c2.8777,0.4683,5.8453,1.2957,12.3693,2.6535c1.8646,0.6483,3.6391,0.9369,7.2295,1.8666c0.6883,0.309,1.4253,0.6259,2.1532,0.9907
		c0.5766,0.3895,1.1461,0.8266,1.7623,1.2713c1.1517,0.1877,2.3026,0.3748,3.5022,0.5698c3.0574,1.4831,3.6261,1.9205,6.5398,3.3795
		C67.7105,369.363,68.6227,369.8075,70.2538,370.0728L70.2538,370.0728z M192.8258,386.2864
		c0.5746-0.2015,1.1974-0.396,1.8196-0.5896c0.0473-0.288,0.1017-0.6237,0.1559-0.9595c-0.2327-0.3829-0.2327-0.3829-0.1724-1.3575
		c4.0291,0.6562,8.0583,1.3119,12.1274,2.024c1.3187,0.0669,2.685,0.1414,4.0598,0.1683c3.077,0.4518,6.2028,0.9116,9.3286,1.3714
		c0.1037-0.0326,0.2631-0.1052,0.4226-0.1778c0.0785-0.4793,0.0785-0.4793-0.2429-0.926c-0.2798-0.0944-0.6078-0.1973-0.9283-0.3481
		c-3.1813-0.4193-6.4109-0.8464-9.6474-1.2257c-2.3097-0.0312-2.3097-0.0312-7.7531-0.7702
		c-2.6223-0.525-5.2925-1.0587-7.9557-1.6396c-2.4641-0.8935-2.4641-0.8935-5.3187-1.5063
		c-2.2779-0.2234-2.2779-0.2234-3.4361-0.0666c-2.6456-0.3815-5.3396-0.771-8.0337-1.1605
		c-2.0154-0.6237-2.7762-1.0922-7.3275-2.4735c-1.7501-0.1372-1.7501-0.1372-2.2691,0.0246
		c-0.127,0.1761-0.254,0.3523-0.4369,0.5692c-1.6061-0.114-3.2125-0.2276-4.8673-0.3495c-1.4309-0.282-2.8625-0.5643-4.2854-0.8949
		c-0.3112,0.0972-0.6707,0.1862-1.0299,0.2755c-0.1494,0.6157-0.1494,0.6157,0.0037,0.887
		c7.4523,1.7056,7.4523,1.7056,8.7707,1.7731c0.3206,0.1502,0.6883,0.3089,1.0568,0.4671c0.1528,0.2713,0.2979,0.5902,0.491,0.9165
		c0.7605,0.4694,0.7605,0.4694,3.4163,1.394c1.2067,0.1472,2.4142,0.2943,3.6768,0.4017c1.3969-0.4127,1.3969-0.4127,1.787-0.6939
		c0.1429-0.2721,0.2857-0.5448,0.4286-0.8167c2.6288,0.182,2.6288,0.182,7.7213,0.9615c0.3416,1.5332,0.6301,1.8754,0.8566,2.6013
		c0.1689,0.1755,0.377,0.4062,0.5859,0.6369C188.1642,385.2812,190.4994,385.76,192.8258,386.2864L192.8258,386.2864z
		 M252.4143,395.2986c0.4467-0.0255,0.9023-0.0986,1.357-0.1726c0.0587-1.5664,0.1168-3.1323,0.1746-4.6987
		c-0.0904-0.6548-0.1811-1.3096-0.2631-2.0123c-0.6318-0.0536-1.2634-0.1066-1.9502-0.1205
		c-1.3569,0.4686-3.2329,0.8036-5.8422,1.7079c-1.2852,0.3322-2.618,0.6571-3.9509,0.9814c-0.1749,0.169-0.3503,0.337-0.5737,0.4975
		c0.5692,0.4371,1.1378,0.8745,1.7549,1.3198c0.9763,0.356,1.9443,0.76,2.9605,1.1713
		C249.3923,394.8068,249.3923,394.8068,252.4143,395.2986L252.4143,395.2986z M256.2638,394.9411
		c1.6838-0.3662,1.6838-0.3662,2.5231-0.3773c2.472-1.2719,3.1901-1.4502,3.8593-1.9318c0.0241-0.1443,0.0473-0.288,0.1262-0.4722
		c-2.3814-0.1908-4.7631-0.3813-7.1447-0.5721c-0.2305,0.2089-0.2305,0.2089-0.4539,2.4866
		c0.0644,0.2075,0.129,0.4149,0.2342,0.6783C255.696,394.7988,255.9837,394.8462,256.2638,394.9411L256.2638,394.9411z
		 M239.475,390.0902c1.6849-0.3657,4.2942-1.2708,7.7184-2.0423c0.2234-0.1602,0.4462-0.3212,0.7254-0.5222
		c0.7027-0.0825,1.4533-0.1573,2.2119-0.2798c0.1117-0.0805,0.2234-0.1604,0.3421-0.2889c0.7515-0.0745,1.55-0.1411,2.3561-0.2565
		c0.0312-0.1916,0.1103-0.3756,0.1893-0.5598c-0.4002-0.2625-0.8484-0.5323-1.2966-0.8022
		c-1.0879-0.2756-2.1755-0.5511-3.3114-0.8348c-4.3047-1.6852-4.4172-1.9006-4.8966-1.9789
		c-0.1516,0.0247-0.3112,0.097-0.5193,0.1624c0.0326,0.1037,0.1131,0.2146,0.1857,0.3742c-0.095,0.2798-0.1973,0.6083-0.3002,0.9362
		c-1.0052,0.4272-1.0052,0.4272-1.7303,0.9493c-0.9814,0.2826-1.9633,0.5663-2.9452,0.8498
		c-0.4467,0.0255-0.894,0.0516-1.3416,0.0768c-0.3192,0.1451-0.6939,0.33-1.069,0.5156c-0.0385,0.2395-0.0776,0.4794-0.1647,0.7115
		c0.9856,0.8991,2.0197,1.8056,3.054,2.713C238.9152,389.9008,239.1952,389.9958,239.475,390.0902L239.475,390.0902z
		 M259.6339,390.2708c0.8461-0.0595,0.8461-0.0595,4.7151,0.3733c-0.1057-0.559-0.2123-1.1174-0.3104-1.7245
		c0.0334-1.7178,0.0669-3.4359,0.0603-5.209c-0.0799-0.1117-0.1604-0.2234-0.2409-0.3351c-2.7587-0.597-5.5573-1.2495-8.3557-1.9023
		c-0.1321,1.1109-0.2154,2.2301-0.3076,3.3968c0.0363,0.9907,0.0717,1.9814,0.1551,2.9801c0.114,0.5105,0.2758,1.029,0.4374,1.5483
		C257.0744,389.6565,258.3538,389.9632,259.6339,390.2708L259.6339,390.2708z M233.9851,385.4054
		c1.0604-0.468,1.0604-0.468,2.6014-0.8567c1.3495-0.1253,1.3495-0.1253,4.1026-1.0065c0.773-0.5142,0.773-0.5142,1.9145-0.8694
		c0.0312-4.4269-0.1006-5.4326,0.0799-6.2405c0.6628-0.1386,1.3255-0.2773,2.0364-0.407c0.0774-0.4799,0.2117-1.0001,0.3458-1.5191
		c-0.2336-2.5007-0.2336-2.5007-0.7557-5.3428c-0.201-0.2784-0.4011-0.5576-0.6426-0.8921
		c-0.1913-0.0312-0.3835-0.0629-0.6157-0.1499c-0.1429,0.2727-0.3407,0.5845-0.5395,0.8969
		c-0.0312,2.3091-0.0312,2.3091-0.2112,3.4123c-0.3269,0.1936-0.3269,0.1936-0.8065,0.1151
		c-0.4105-0.8056-0.5902-1.8195-0.8229-2.2022c-0.288-0.0464-0.5681-0.1414-0.8958-0.2437
		c-2.6093,0.9042-3.0002,1.1857-3.8137,1.3481c-1.0131,0.4751-2.0265,0.9507-3.0467,1.4737
		c-0.6072,0.0978-1.222,0.2444-1.8842,0.3827c-0.2387,0.2559-0.485,0.5607-0.7795,0.8571c-2.4576,0.8805-4.1505,1.2946-4.9635,1.753
		c-0.0233,0.1437-0.0462,0.288-0.0782,0.4793c3.3758,3.1589,3.3758,3.1589,6.2237,6.2326c0.6906,0.9,1.3808,1.8005,2.0713,2.7005
		C233.6495,385.3501,233.7929,385.3742,233.9851,385.4054L233.9851,385.4054z M12.548,345.2662
		c0.1514-0.0247,0.311-0.0972,0.5185-0.1616c-0.3835-0.0623-0.8152-0.1329-1.2467-0.2032
		C11.9244,345.1647,11.9244,345.1647,12.548,345.2662L12.548,345.2662z M250.2526,383.4747c0.4227-0.1778,0.4227-0.1778,0.86-0.7461
		c1.6353-0.6696,1.6353-0.6696,2.4818-0.7291c0.3379-3.5881,0.3379-3.5881,0.2313-4.4425
		c-0.1922-0.0312-0.3839-0.0623-0.6157-0.1494c-0.2713,0.1522-0.5425,0.3053-0.8138,0.4584
		c-0.2452,0.5995-0.2452,0.5995-0.5721,0.7925c-0.3991,0.0341-0.8464,0.0596-1.294,0.0848
		c-3.0118,2.1685-3.5382,2.3788-3.8965,2.7632c0.0972,0.3109,0.1945,0.6227,0.3393,0.9411
		C248.3568,383.0178,248.3568,383.0178,250.2526,383.4747L250.2526,383.4747z M187.8365,372.4754
		c3.7406,0.3133,4.3954,0.2234,6.3136,0.536c2.1886-0.1363,2.1886-0.1363,4.0431-0.0311c0.4496-1.552,0.8991-3.1039,1.3561-4.703
		c-0.4315-0.0703-0.8629-0.1409-1.2946-0.2112c-0.0471,0.288-0.1015,0.6237-0.2044,0.9516
		c-0.3192,0.1448-0.3192,0.1448-7.3769-0.6593c-2.2946-0.4226-4.589-0.8456-6.8837-1.2682
		c-1.584-0.5534-3.1604-1.1546-4.7843-1.7637c-1.6251-0.9051-3.2989-1.8176-4.964-2.7785
		c-0.9536-0.7949-1.9072-1.5902-2.9016-2.4418c-0.3133-0.4938-0.6265-0.9884-0.9326-1.5301
		c-0.0276-1.0384-0.1038-2.0849-0.1712-3.1794c-0.3206-0.1508-0.633-0.3487-0.9927-0.5553
		c-13.7659-1.946-13.7659-1.946-16.4509-2.0874c0.1777,2.5399,0.3549,5.0802,0.5802,7.6281
		c-0.0182,1.6214-0.0363,3.2437-0.0136,4.9212c0.1281,0.1196,0.2566,0.2384,0.377,0.4059c1.1191,0.0842,6.8278,1.309,7.4203,1.6021
		c7.6278,1.5375,7.6278,1.5375,10.451,2.3417C176.2281,370.2896,176.2281,370.2896,187.8365,372.4754L187.8365,372.4754z
		 M150.1227,365.2031c0.4394,0.0216,0.9346,0.0043,1.4301-0.0139c0.1247-0.7673,0.2583-1.5823,0.3909-2.3981
		c-0.0768-3.4594-0.0768-3.4594-0.5678-8.6105c-0.106-0.5593-0.2121-1.1177-0.3662-1.6846
		c-0.8958-0.2444-0.8958-0.2444-1.8785-0.2569c-0.0805-0.1108-0.1602-0.2225-0.2806-0.39
		c-1.5832-0.2576-1.5832-0.2576-4.8676-0.3489c0.1213,0.1667,0.2415,0.3342,0.4019,0.5576
		c-0.1219,1.6543-0.2429,3.3086-0.3727,5.0105c-0.1596,0.0726-0.3266,0.1931-0.4941,0.3135
		c-0.3436-0.0065-0.7353-0.0212-1.1342,0.0122c-1.9037-0.4082-3.8066-0.8167-5.7016-1.2728
		c-0.3373-0.3503-0.6738-0.7004-1.0588-1.0587c0.0797-2.3012,0.0797-2.3012,0.3603-4.0278
		c0.2316-0.2089,0.5099-0.4099,0.7966-0.6585c0.1443,0.0238,0.2877,0.0471,0.4878,0.0303c0.0233-0.1443,0.0465-0.288,0.0777-0.4794
		c-2.0234-0.5757-2.0234-0.5757-3.8058-0.8172c-0.5122,1.9355-0.5122,1.9355-0.7274,2.0486
		c1.1486,10.1821,1.1486,10.1821,1.4059,10.7164c0.5202,0.1335,1.0321,0.3155,1.592,0.5054c1.591,0.2098,3.1816,0.4193,4.8206,0.637
		C145.0932,364.039,147.5806,364.789,150.1227,365.2031L150.1227,365.2031z M206.3213,373.8598
		c1.5188,0.0508,3.0365,0.1009,4.6111,0.1111c2.8774,0.4683,2.8774,0.4683,6.2903,0.6795c0.3989-0.0335,0.8465-0.0595,1.3017-0.1327
		c1.0553,0.1718,2.1104,0.3436,3.2134,0.5227c0.655-0.0898,1.3098-0.1805,2.0205-0.3109c2.465-0.9283,2.465-0.9283,3.4716-1.0596
		c0.8768-0.5468,0.8768-0.5468,1.1546-1.0429c-0.1843-0.0791-0.4082-0.2146-0.6324-0.3495
		c-0.3328-1.2852-0.3328-1.2852-0.362-2.6189c-1.6693-0.026-1.6693-0.026-4.201,0.3991c-1.1032-0.1791-1.1032-0.1791-2.3431-0.726
		c-1.2149-0.0995-2.4296-0.1987-3.7001-0.2582c-0.3038,0.0493-0.663,0.1383-1.0219,0.2276
		c-0.1043,2.1495,0.0168,4.4339-0.1029,4.5624c-0.288-0.0465-0.6318-0.0536-0.9748-0.0601
		c-0.2458-1.5174-0.491-3.0345-0.7359-4.5516c-1.9191-0.3118-3.8378-0.6245-5.756-0.9368
		c-4.8393-1.4281-4.8393-1.4281-5.2878-1.6977c-0.432-0.0706-0.8716-0.093-1.311-0.1148c-0.3177,0.4402-1.6991,4.9919-1.8153,6.007
		C202.1878,372.9411,204.235,373.3726,206.3213,373.8598L206.3213,373.8598z M132.3172,361.7619
		c0.0437-1.1741,0.0474-2.4046,0.0502-3.6346c-0.1479-1.2062-0.2968-2.4123-0.4853-3.674
		c-0.1913-0.0311-0.4314-0.0703-0.6795-0.0609c-0.2784,0.201-0.5649,0.4496-0.9,0.6902c-0.2401-0.0391-0.5273-0.0862-0.8153-0.1327
		c-0.0805-0.1117-0.161-0.2234-0.2812-0.3909c0.0782-0.4793,0.1559-0.9586,0.1942-1.4947c0.3657-0.4329,0.7798-0.8578,1.1939-1.2827
		c0.0847-0.8232,0.1768-1.6943,0.2696-2.5651c-0.2262-0.7268-0.2262-0.7268-0.5636-1.0768
		c-0.7194-0.1168-1.4785-0.2903-2.2385-0.4629c-0.489,1.7912-0.9771,3.5827-1.4737,5.4224
		c-0.2154,0.1126-0.438,0.2736-0.6613,0.4337c-0.3838-0.0623-0.8159-0.1327-1.2475-0.2029
		c-0.4329-0.3657-0.4329-0.3657-0.9476-1.4346c0.0936-0.5757,0.195-1.1994,0.2486-1.8303c0.4686-0.7608,1.0451-2.4889,1.1219-3.2641
		c-0.6244-0.3969-0.6244-0.3969-1.1038-0.4751c-0.2871,0.2489-0.2871,0.2489-1.4026,3.1691
		c-0.1559,0.9595-0.3127,1.919-0.4686,2.8777c-0.1196,0.1284-0.2384,0.2566-0.4138,0.4249
		c-2.4551-0.6454-2.4551-0.6454-6.3269-1.9653c-0.6883-0.309-1.425-0.6259-2.1532-0.9907
		c-2.6637-0.8768-5.3751-1.7614-8.0875-2.6465c-1.5279-0.593-3.0487-1.2348-4.6165-1.8839c-4.695-1.4048-4.695-1.4048-7.7998-2.5991
		c-0.2877-0.0473-0.5836-0.0459-0.8791-0.0451c-0.1094,0.6716,0.5374,4.864,0.6696,7.9875
		c0.2001,0.2784,0.4011,0.5576,0.6017,0.8362c8.9028,2.7791,8.9028,2.7791,15.3732,4.4722
		C117.7941,358.1176,123.7772,359.7808,132.3172,361.7619L132.3172,361.7619z M265.4659,381.6676
		c1.0516-0.7152,2.1518-1.4221,3.251-2.1294c0.2424-1.4865,0.4368-2.982,0.6384-4.5246c-0.1834-0.0788-0.4085-0.2137-0.6324-0.3487
		c-2.1104-0.3439-4.2287-0.6398-6.395-0.9428c-0.5179,0.4569-1.0428,0.9624-1.5687,1.4678c-1.364,0.5165-2.776,1.0247-4.1959,1.5818
		c-0.3662,0.4329-0.3662,0.4329-0.8929,0.6426c-0.0782,0.4794-0.2043,0.9513-0.3299,1.4236c0.193,0.3263,0.3779,0.7013,0.5627,1.076
		C258.6063,380.5508,264.3861,381.3442,265.4659,381.6676L265.4659,381.6676z M248.9898,377.016
		c0.7506-0.0746,1.5491-0.142,2.3556-0.2566c0.8535-0.4025,1.7629-0.8459,2.6717-1.2889c0.377-1.7107,0.377-1.7107,0.2633-2.2221
		c0.1811-2.9248,0.1811-2.9248,0.0014-3.9385c-0.1916-0.0311-0.3756-0.1102-0.5598-0.1899c-2.122,0.9346-5.0077,2.6317-6.26,3.0674
		c-0.343,0.2894-0.343,0.2894-0.9573,0.4354c0.0443,1.2384,0.089,2.4763,0.1335,3.7145
		C247.3902,376.5585,248.1898,376.7869,248.9898,377.016L248.9898,377.016z M192.3465,367.154
		c3.4129,0.2103,3.4129,0.2103,4.0751,0.0726c-0.4156-0.167-0.8238-0.381-1.2323-0.5947c-0.4677-1.061-0.4677-1.061-1.0131-1.6418
		c-1.1914-0.2438-2.431-0.4946-3.6703-0.7455c-1.0479-0.5159-1.0479-0.5159-2.3198-0.8705
		c-1.4859,0.0538-1.4859,0.0538-5.978-0.4808c-0.0805-0.1117-0.161-0.2234-0.2815-0.39c0.0865-0.5281,0.18-1.1038,0.2256-1.6869
		c-0.2089-0.2313-0.4169-0.4621-0.6179-0.7404c-0.9927-0.5562-1.9854-1.1118-3.0183-1.7232
		c-5.0655-2.1538-5.0655-2.1538-6.9452-2.7057c-0.0856,0.5273-0.1241,1.063-0.1698,1.6461c0.2409,0.3345,0.2409,0.3345,0.4207,1.349
		c0.61,0.7883,0.61,0.7883,2.4701,2.3715c1.5367,0.8413,3.0663,1.7302,4.6434,2.6265c0.8805,0.3411,1.7521,0.7291,2.6246,1.1169
		C189.2768,366.6533,189.2768,366.6533,192.3465,367.154L192.3465,367.154z M90.8562,350.2855
		c0.0623-0.3844,0.1732-0.76,0.2834-1.1358c-0.0354-0.9904-0.0717-1.9811-0.1551-2.9798c-1.0596-5.5885-1.0596-5.5885-1.2271-7.5849
		c-0.3067-0.8385-0.6055-1.7238-0.9043-2.6093c-0.9204-0.396-1.8884-0.7999-2.8493-1.2518
		c-1.2793-0.3067-2.6065-0.6217-3.9342-0.9363c-0.8799-0.3402-1.7521-0.728-2.6246-1.1169c-1.4236-0.33-2.8465-0.6599-4.2701-0.9908
		c-2.7689-1.1398-2.7689-1.1398-9.7605-3.5586c-0.288-0.0462-0.584-0.0457-0.8791-0.0442
		c0.3983,3.9053,0.7884,7.8585,1.1784,11.8122c0.1531,0.2707,0.3062,0.5417,0.4592,0.813
		c3.2553,1.1707,7.5059,3.1918,10.6177,4.3384c2.9676,0.828,2.9676,0.828,5.6001,1.8964c0.3524,0.2546,0.7447,0.5649,1.1378,0.8745
		C85.9602,348.6014,88.3847,349.4399,90.8562,350.2855L90.8562,350.2855z M229.1909,372.5117
		c1.2603-0.4836,1.2603-0.4836,3.0886-0.826c1.8028-0.7897,3.6536-1.5724,5.5117-2.4018c0.1182-0.4235,0.2843-0.8399,0.4584-1.304
		c0.9172-0.491,1.6735-1.2047,2.5903-1.6957c0.0986-1.5105,0.1967-3.0203,0.2466-4.5391c-0.1205-0.1675-0.2407-0.3342-0.3611-0.5017
		c-2.5659-0.2699-2.5659-0.2699-3.3577-0.5468c-0.8581-0.7795-0.8581-0.7795-1.7623-1.2713
		c-1.3184-0.0675-1.3184-0.0675-1.7972,0.1503c-0.3538,1.567-0.4989,3.3656-0.6664,3.486
		c-0.0856,0.5279-0.1718,1.0551-0.2574,1.5832c0.2174,0.4785,0.483,0.9643,0.7484,1.451c-0.1415,0.5677-0.2835,1.1355-0.4329,1.7515
		c-0.5499,0.3529-1.148,0.699-1.7535,1.0927c-0.7506,0.0748-1.5491,0.142-2.3564,0.2568c-0.0623,0.3835-0.1247,0.767-0.243,1.1914
		C229.0146,372.3847,229.0146,372.3847,229.1909,372.5117L229.1909,372.5117z M256.5095,375.2857
		c1.1568-0.4518,2.3133-0.9037,3.4781-1.4034c0.6287-0.5372,1.2662-1.1234,1.9508-1.7014c0.0703-0.4314,0.1885-0.8549,0.3067-1.2792
		c-0.0587-0.8462-0.1579-1.749-0.2574-2.6512c0.0624-2.5013,0.1248-5.0017,0.1392-7.511c-0.2472,0.0093-0.4952,0.0181-0.7982,0.0674
		c-1.8652,1.1733-1.8652,1.1733-5.3978,2.9123c-0.1176,0.7194-0.2823,1.431-0.4476,2.1424
		c-0.0079,2.1654,0.3033,4.1859,0.3546,9.3147C256.0296,375.2074,256.2694,375.2466,256.5095,375.2857L256.5095,375.2857z
		 M209.2679,366.9543c1.639,0.2177,3.2854,0.3867,4.9794,0.5644c0.121-4.0671,0.121-4.0671-0.1298-7.0623
		c-3.1496-0.3154-6.3462-0.6395-9.5511-0.9153c-0.0703,0.4323-0.1406,0.8637-0.2588,1.2875
		c-0.2937,0.5924-0.6347,1.177-0.9842,1.8094c-0.1573,0.6636-0.3147,1.3278-0.4793,2.0392
		c0.2009,0.2792,0.2009,0.2792,1.7288,0.8726C207.8835,366.3843,207.8835,366.3843,209.2679,366.9543L209.2679,366.9543z
		 M201.2665,363.7801c0.911-1.9689,0.911-1.9689,1.7688-3.3063c-0.0085-0.2472-0.0094-0.5431-0.0108-0.8391
		c-0.3359-0.0541-0.6636-0.1564-1.04-0.2676c-0.3668,0.1372-0.7339,0.275-1.1486,0.404c-0.1559,0.9595-0.3127,1.919-0.4686,2.8786
		c0.0494,0.303,0.0908,0.6548,0.1801,1.0137C200.7866,363.7025,201.0267,363.741,201.2665,363.7801L201.2665,363.7801z
		 M246.3944,370.8815c0.5105-0.114,1.0289-0.2755,1.5483-0.4373c0.8209-0.5063,1.6418-1.0131,2.5186-1.5591
		c0.9972-0.3793,1.9944-0.7585,2.9996-1.1857c0.0471-0.288,0.1494-0.6157,0.2523-0.9436c-0.0573-0.256-0.1057-0.559-0.203-0.8702
		c-0.288-0.0471-0.5678-0.142-0.8479-0.2364c-1.1089,0.4592-2.2178,0.919-3.3823,1.4184c-1.1582,0.1559-1.1582,0.1559-1.9734,0.0232
		c-1.1378-0.8745-1.1378-0.8745-1.5395-1.4323c-0.1917-0.0312-0.4314-0.0703-0.6715-0.1086
		c-0.2387,0.256-0.2387,0.256-0.2509,1.2384c0.33,0.6942,0.6605,1.3882,0.9825,2.1299
		C246.1696,370.7466,246.1696,370.7466,246.3944,370.8815L246.3944,370.8815z M265.3122,372.6322
		c1.1588,0.1392,2.3258,0.2305,3.5405,0.33c0.0298-0.4873,0.0122-0.9828-0.006-1.478c-0.5468-0.8768-1.0854-1.8015-1.6721-2.734
		c-0.3141-0.7897-0.6287-1.5794-0.9357-2.4171c-0.2086-0.2314-0.4096-0.5099-0.6585-0.7963
		c-0.8572-2.8973-0.8572-2.8973-1.3482-3.814c-0.1839-0.0796-0.3682-0.1587-0.5525-0.2378
		c-0.1596,2.1895-0.3192,4.3795-0.4859,6.6169c0.1727,1.3575,0.3453,2.715,0.5106,4.1204
		C264.2243,372.3566,264.7444,372.4907,265.3122,372.6322L265.3122,372.6322z M194.9682,361.0317
		c1.8298-0.0465,1.8298-0.0465,2.6521-0.2574c0.8274-0.8501,1.1945-0.987,1.4162-1.4439c-3.2451-0.3308-3.2451-0.3308-4.5947-0.2061
		c-0.0856,0.5273-0.1792,1.1033-0.3214,1.6711C194.4084,360.8423,194.6881,360.9367,194.9682,361.0317L194.9682,361.0317z
		 M189.0685,360.0716c0.2075-0.0655,0.415-0.1299,0.6784-0.2344c1.0071,0.1638,2.0146,0.328,3.0296,0.4439
		c0.1083-0.9675,0.1083-0.9675-0.0847-1.2937c-1.9341-0.2169-3.869-0.4332-5.8105-0.6021
		c-0.5734,0.4975-0.5734,0.4975-0.7707,1.1061C187.0692,359.6472,188.0692,359.859,189.0685,360.0716L189.0685,360.0716z
		 M64.1482,339.8316c-0.0791-1.9335-0.1587-3.867-0.2378-5.7997c-0.9031-6.5486-0.9031-6.5486-1.1205-7.0265
		c-1.8717-0.6004-1.8717-0.6004-9.2341-3.7689c-1.33-0.9057-3.4345-1.8885-3.8596-2.3026c-0.976-0.3552-1.9522-0.7112-2.9682-1.1234
		c-1.0814-0.6185-2.162-1.2379-3.291-1.8652c-0.288-0.0462-0.6236-0.1015-0.9595-0.1559c-0.0558,0.0399-0.1188,0.1284-0.1826,0.2168
		c0.4306,1.8912,0.8606,3.7834,1.2915,5.6755c2.5948,1.6041,2.5948,1.6041,4.8835,2.666c0.1777,0.4226,0.1777,0.4226-0.0354,1.1267
		c-0.3918-0.0145-0.8311-0.0368-1.2705-0.0592c-0.9125-0.4439-0.9125-0.4439-2.7921-0.9958
		c-0.0182,1.6214-0.0182,1.6214,0.1848,2.4919c0.4728,0.4212,1.4012,0.7693,5.9743,3.8282c0.6403,0.301,1.3286,0.61,2.0095,0.9675
		c0.6571,0.5003,1.3141,1.0015,2.0191,1.51c1.2481,0.4989,1.8167,0.9363,6.2586,2.9886
		C62.156,339.0634,62.156,339.0634,64.1482,339.8316L64.1482,339.8316z M182.5598,358.6174
		c0.0298-0.4873,0.0298-0.4873-0.2112-0.8223c-0.7671-0.1248-0.7671-0.1248-1.2784-0.011
		C181.3109,358.119,181.3109,358.119,182.5598,358.6174L182.5598,358.6174z M143.321,351.6379
		c0.0788-0.1842,0.1579-0.3676,0.237-0.5518c-4.3013-0.7991-4.3013-0.7991-4.9561-0.7084
		C138.7223,350.5452,138.7223,350.5452,143.321,351.6379L143.321,351.6379z M181.4801,356.1771
		c0.4938-0.3141,0.4938-0.3141,0.9065-1.0341c0.5264-0.2098,1.0607-0.4677,1.5953-0.7254c0.0391-0.2398,0.0856-0.5278,0.0847-0.8229
		c-3.9588-3.2054-3.9588-3.2054-4.7854-4.1766c-0.993-0.5556-1.9778-1.1597-2.9625-1.7629
		c-0.2568-0.2386-0.5536-0.5332-0.8501-0.8277c-0.1922-0.0311-0.3914-0.0144-0.5919,0.0023
		c-0.5786,1.1364-1.2132,2.3134-1.8476,3.4906c-0.3475,1.2234-0.7021,2.4953-1.1047,3.7593
		C176.2505,355.0298,177.9779,355.6064,181.4801,356.1771L181.4801,356.1771z M188.2187,357.1264
		c1.5585,0.106,3.1244,0.1638,4.7384,0.2299c0.2982-1.5273,0.644-3.0467,0.9972-4.6137c-0.3923-0.3104-0.3923-0.3104-1.4952-0.4895
		c-2.1532,1.1262-2.1532,1.1262-3.8262,2.3306c-0.3039,0.0493-0.6631,0.1386-1.0219,0.2279
		c-0.2234,0.1602-0.4538,0.3691-0.733,0.5701c-0.1973,0.6075-0.1973,0.6075,0.0056,1.4777
		C187.3149,356.93,187.7467,357.0002,188.2187,357.1264L188.2187,357.1264z M155.0011,351.5705
		c3.4288,0.4104,6.8582,0.8209,10.2952,1.1835c1.7186,0.3294,3.4781,0.7146,5.2373,1.0987
		c0.2097-0.5516,1.2098-1.5526,0.6412-1.6223l-14.6115-1.7847c-0.1046,0.0326-0.256,0.0573-0.4156,0.1299
		c-2.0634-0.6316-2.0634-0.6316-14.2339-3.3027c-1.2155-0.3946-2.4795-0.7977-3.7355-1.2481
		c-7.5734-1.8731-9.2937-2.4976-11.6918-2.8885c-3.7828-0.9601-3.7828-0.9601-11.4106-2.4976
		c-4.0547-1.103-8.157-2.2142-12.2604-3.3259c-0.1667,0.1213-0.3342,0.2415-0.5576,0.4019
		c-1.9423-0.1684-1.9423-0.1684-3.2133-0.523c-0.1531-0.2712-0.1111-1.7413-0.3206-2.2677
		c-0.2392-0.0391-0.4714-0.1261-0.7515-0.2211c-0.1117,0.0805-0.2234,0.1602-0.343,0.2885c-3.729,0.5258-3.729,0.5258-3.9118,0.7418
		c0.04,0.0558,0.0725,0.1596,0.1052,0.2634c4.3203,1.5897,8.6403,3.1793,13.009,4.7769c5.6929,1.3207,11.3792,2.6898,17.0649,4.0584
		c1.0718,0.3719,2.1356,0.7911,3.2482,1.2183c3.5587,0.8252,7.1643,1.6591,10.7634,2.5404
		C146.9904,350.266,147.3575,350.1288,155.0011,351.5705L155.0011,351.5705z M195.6905,357.5057
		c1.1662,0.0912,2.3817,0.1907,3.5963,0.2899c0.2784-0.2007,0.2784-0.2007,1.3597-3.816c0.0131-0.6874,0.0269-1.3742,0-2.1175
		c-2.2757-8.1006-2.2757-8.1006-2.5642-8.4429c-0.5165-1.3641-1.0256-2.7768-1.5338-4.1888
		c-0.6797-0.0618-1.3593-0.1228-2.0937-0.1443c-0.2242-0.1349-0.4411-0.3178-0.6571-0.5006
		c0.0456-0.5836,0.0434-1.1747,0.0411-1.7657c-0.847,0.0587-0.847,0.0587-1.9151,0.5743c-1.4627-0.0907-2.9248-0.1806-4.3957-0.2234
		c-1.271-0.3546-2.0494-0.2132-3.3613-0.6237c-0.2812-0.3909-0.2812-0.3909-0.4039-1.1494
		c0.2032-1.2467,0.2032-1.2467,0.4895-1.4956c0.4802,0.0777-0.0615-0.4255,1.2685,0.4802c0.2081,0.2307,0.4649,0.4691,0.7135,0.7563
		c0.5122,0.1815,1.0241,0.3634,1.5281,0.5933c2.7652,0.2532,2.7652,0.2532,4.0598,0.1684c0.3189-0.1451,0.6931-0.3299,1.0681-0.515
		c0.2401,0.0391,0.5281,0.0856,0.8232,0.0851c0.1321-1.1112,0.0181-1.6226,0.1811-2.9248c-1.1123-0.428-1.1123-0.428-5.5188-1.4896
		c-1.2067-0.1474-2.4613-0.3025-3.7168-0.4578c-1.4212,2.3788-1.3742,4.3724-3.8179,7.6229
		c-0.174,0.464-0.8893,0.4241-1.0633,0.8884c0.2089,0.2313,0.417,0.4618,0.6659,0.7489c0.203,0.8697,0.203,0.8697,0.1675,1.9967
		c0.2406,0.3343,0.5221,0.7251,0.8028,1.1152c-0.2764,0.792-0.2764,0.792-0.5556,0.993c-0.1996,0.0167-0.4476,0.0253-0.6948,0.0349
		c-0.2625,0.4003-0.2625,0.4003-0.3002,0.9354c0.1443,0.0238,0.288,0.0471,0.4802,0.0782c0.3263-0.1927,0.7092-0.4263,1.0913-0.6591
		c0.2401,0.0392,0.5279,0.0856,0.8159,0.1327c0.2089,0.2305,0.409,0.5097,0.6579,0.7963c0.2021,0.5743,0.3958,1.1974,0.6381,1.8275
		c0.4082,0.214,0.8087,0.4765,1.2574,0.7464c1.0225,0.068,2.0458,0.1364,3.0685,0.2038c0.3524,0.2545,0.7047,0.5091,1.05,0.8113
		c1.7042,0.7202,3.4562,1.449,5.2092,2.1773c0.3524,0.2546,0.705,0.5091,1.1052,0.7708c0.1139,0.5114-0.3901,2.3984-0.794,5.4842
		C194.8268,357.3651,195.2582,357.4354,195.6905,357.5057L195.6905,357.5057z M248.7469,365.5039
		c0.7979-0.3625,1.5948-0.7251,2.4006-1.1356c-0.0167-0.2001-0.0814-0.4076-0.1465-0.6151
		c-0.8385,0.0116-0.8385,0.0116-2.3788,0.4005c-0.3271,0.1928-0.7018,0.3784-1.0769,0.5636
		c0.0646,0.2072,0.1299,0.4147,0.2424,0.6301C248.0753,365.3945,248.4112,365.4489,248.7469,365.5039L248.7469,365.5039z
		 M243.1345,364.5903c0.248-0.0093,0.5431-0.0102,0.8391-0.0116c0.7333-0.5701,0.7333-0.5701,2.9987-1.4808
		c0.9811-0.2838,1.963-0.5673,2.9444-0.8502c0.7251-0.5222,0.7251-0.5222,1.2365-0.6358c0.9763,0.356,1.9522,0.7112,2.9763,1.0754
		c0.0485-3.9314,0.4329-8.1037,0.3626-9.7889c-0.0646-0.2075-0.1298-0.415-0.2344-0.6781c-2.5866-1.652-2.5866-1.652-8.2222-4.5391
		c-3.223-0.771-6.4936-1.5499-9.7645-2.3281c-0.3631,1.0242-0.7274,2.048-1.0988,3.1198c-0.3444,1.8145-0.6967,3.6777-1.0491,5.5406
		c0.968,0.4039,0.968,0.4039,1.9508,0.4164c0.726-0.2271,0.726-0.2271,2.3321-0.1131c0.8958,0.2443,1.7915,0.4886,2.6878,0.733
		c0.2081,0.2307,0.4091,0.5099,0.6577,0.7962c1.8567,0.6962,3.7043,1.4403,5.5531,2.1844c0.4096,0.51,0.4096,0.51,0.5953,1.1806
		c-0.222,0.4564-0.4439,0.9125-0.7135,1.3607c-0.2234,0.161-0.502,0.3617-0.7812,0.5621c-2.1002,0.2002-2.1002,0.2002-2.7782,0.4343
		c-0.288-0.047-0.6237-0.1014-0.9595-0.1567c-0.2668,1.336-0.2668,1.336-0.2132,2.8213
		C242.9749,364.6629,242.9749,364.6629,243.1345,364.5903L243.1345,364.5903z M201.7397,357.8501
		c8.8792,0.8059,11.6677,0.9153,13.8826,1.2263c0.0703-0.4314,0.1406-0.8629,0.1624-1.3022
		c-0.2806-0.3909-0.2806-0.3909-1.4411-0.826c-2.5424-0.4135-2.5424-0.4135-7.9092-1.9279
		c-1.4879-0.5371-2.9756-1.0754-4.4634-1.6126c-0.2344,1.4386-0.5171,2.8704-0.7994,4.301
		C201.3638,357.7398,201.5554,357.771,201.7397,357.8501L201.7397,357.8501z M91.7403,338.8089
		c1.6917-0.4138,1.6917-0.4138,2.6825-0.4496c0.0232-0.1434,0.0471-0.288,0.0782-0.4793c-1.0564-0.4677-1.0564-0.4677-3.7593-1.1044
		c0.0978,0.6061,0.1964,1.2133,0.2942,1.8201C91.276,338.6349,91.5082,338.7219,91.7403,338.8089L91.7403,338.8089z
		 M156.429,348.8489c1.4513-0.7486,14.6355,3.3222,16.1345,2.5815c1.3379-1.2595,2.4664-6.3425,3.8118-7.6501
		c0.0391-0.2393-11.4381-1.5231-11.4395-1.8187c-0.7679-0.4207-0.7679-0.4207-3.2635-1.1219
		c-1.0072-0.1647-2.0146-0.3286-3.0696-0.5003c-2.0801-0.5355-4.151-1.1183-6.2702-1.7101
		c-6.669-1.3808-6.9735-1.6274-13.9529-2.9118c-0.2722-0.1429-0.5925-0.2931-0.9045-0.4918
		c-4.621-0.654-9.2892-1.3156-13.9652-1.929c-2.0313-0.5278-4.0626-1.055-6.1339-1.639c-0.3526-0.2545-0.6976-0.5562-1.0423-0.8586
		c-1.0607-1.6497-2.1696-3.3077-3.2706-5.0133c-0.2393-0.0391-0.5193-0.1335-0.8-0.2285c-0.8855,0.2988-1.8187,0.5896-2.7527,0.881
		c-1.188,0.6435-2.3839,1.3351-3.6275,2.0191c-0.7566,0.7135-4.1924,2.7638-5.7211,3.9923
		c-0.0799,0.1842-0.207,0.3603-0.3337,0.5366c0.0414,0.351,0.1304,0.7107,0.2197,1.0698c0.3835,0.0623,0.7674,0.1247,1.1509,0.1871
		c0.201,0.2793,0.3937,0.6064,0.6346,0.9406c1.1203,0.3792,2.2879,0.7664,3.4483,1.2016
		c15.2825,3.8177,17.0569,4.1063,29.3718,7.0963c2.0081,0.6715,2.0081,0.6715,4.7188,1.2603
		c0.7943-1.2495,0.7943-1.2495,1.9647-2.3879c0.8935-0.3467,1.7949-0.7418,2.6955-1.1364c3.9816,0.6474,4.4847,0.5822,9.7376,1.5851
		c0.4161,0.1661,0.8326,0.3322,1.2407,0.5463c-0.0471,0.288-0.0465,0.5836-0.053,0.9275c-0.2384,0.256-0.485,0.5607-0.7795,0.8572
		c-1.3328,0.3248-1.3328,0.3248-2.2017,0.8237c-0.3662,0.4323-0.7803,0.8572-1.1936,1.2824
		c0.0805,0.1117,0.1601,0.2234,0.2327,0.3827C152.8224,348.0147,154.6298,348.4078,156.429,348.8489L156.429,348.8489z
		 M187.5247,353.222c0.2001-0.0168,0.4473-0.0255,0.6947-0.0349c0.8694-0.4983,1.7461-1.0451,2.6229-1.591
		c0.0233-0.1443,0.0465-0.288,0.0298-0.4882c-0.224-0.1349-0.4961-0.2778-0.7679-0.4207c-1.5752-0.3053-3.1505-0.6114-4.7733-0.9246
		c-0.08,0.1842-0.207,0.3606-0.3337,0.5366c0.7795,1.2597,0.7795,1.2597,1.4241,2.7428
		C186.7574,353.0972,187.1409,353.1596,187.5247,353.222L187.5247,353.222z M183.6418,351.0636
		c-0.0088-0.248-0.0581-0.551-0.1074-0.8549c-0.5139-0.7733-1.0281-1.5463-1.5823-2.3746c0.0354-1.1268,0.0354-1.1268-0.182-1.6055
		c-0.1922-0.0312-0.3838-0.0624-0.6236-0.1015c-0.1675,0.1205-0.3345,0.2407-0.5578,0.4017
		c-1.4939,0.1018-1.4939,0.1018-1.8201,0.2946c-0.0241,0.1437-0.095,0.2801-0.174,0.464c1.2104,1.0344,2.4199,2.0685,3.6788,3.1099
		C182.7296,350.6191,183.1858,350.8409,183.6418,351.0636L183.6418,351.0636z M210.8845,354.908
		c1.4468,0.1862,2.9494,0.3322,4.4521,0.4785c0.3793-1.1197,0.8065-2.232,1.2415-3.3925c-0.0501-0.599-0.1-1.1979-0.1907-1.8527
		c-0.0805-0.1111-0.1605-0.2228-0.2889-0.3425c0.0624-0.3835,0.125-0.7673,0.1873-1.1508c0.7563-0.7144,1.5205-1.4757,2.3329-2.2301
		c-0.0093-0.2474-0.0661-0.5034-0.1233-0.7585c-0.2242-0.1349-0.4961-0.2778-0.7609-0.4685
		c-0.4104-0.8056-0.4104-0.8056-0.5663-1.963c0.203-1.2476,0.08-1.766,0.2908-3.0606l-11.5112-4.3418
		c-0.3263,0.193-2.3556-1.3844-5.273-1.6129c-0.5789,1.1364-1.3017,1.8833-1.8885,3.0676
		c-0.1814,0.8079-0.3699,1.6637-0.6063,2.5115c0.8739,2.8007,1.8326,5.0743,2.666,7.8191c0.1485,1.2061,0.4371,1.5485,0.8498,2.9452
		c0.4417,0.6134,0.4417,0.6134,1.7717,1.5193c1.0568,0.4677,2.1047,0.9825,3.2012,1.5063
		C208.077,354.008,209.4847,354.4337,210.8845,354.908L210.8845,354.908z M42.7217,327.4796c-0.0527-1.19-0.0527-1.19-0.4417-2.7303
		c-1.633-0.8572-1.633-0.8572-4.4099-1.9494c-0.8731-0.6832-1.7464-1.3669-2.6203-2.0509c-0.129-0.4156-0.129-0.4156,0.2256-1.6869
		c0.2945-0.2965,0.597-0.6409,0.8992-0.9862c1.101-0.4113,2.2499-0.8152,3.4064-1.2671c0.0241-0.1434-0.0006-0.2959-0.0173-0.4952
		c-0.866-0.7319-0.866-0.7319-1.7702-1.2234c-2.0163-0.6236-2.0163-0.6236-2.1765-0.847c-4.3172-0.7027-4.3172-0.7027-9.8079-1.154
		c-0.0834,1.1191-0.0834,1.1191,0.0958,2.1331c0.5054,0.5255,1.0587,1.0587,1.6121,1.5916
		c4.6865,3.2743,4.6865,3.2743,6.5857,4.9133c1.7861,1.1279,3.5646,2.3034,5.3427,3.479
		C40.9276,326.4,40.9276,326.4,42.7217,327.4796L42.7217,327.4796z M219.0939,355.9001c0.7628-1.0581,0.7628-1.0581,1.1928-1.2829
		c0.4881,0.0298,0.9754,0.0601,1.4627,0.0898c0.8124-0.7534,1.154-1.3379,1.8864-1.908c1.4366-0.3575,1.4366-0.3575,2.3692-0.9442
		c0.8334-1.4887,0.8334-1.4887,2.2728-3.3721c0.14-0.8631,0.2328-1.7339,0.3337-2.6535c-0.1922-0.0315-0.3844-0.0626-0.6237-0.1018
		c-0.6775,0.5304-1.3546,1.0596-2.0871,1.6296c-0.8144,0.1633-0.8144,0.1633-1.2047,0.4445
		c-0.0392,0.2395-0.0782,0.4794-0.1653,0.7115c0.2095,0.5264,0.4669,1.061,0.7251,1.5948c0.0009,0.2959-0.0057,0.6395-0.0121,0.9834
		c-0.4541,0.369-0.908,0.7384-1.4179,1.1472c-1.0298,0.2758-2.0597,0.5513-3.0895,0.8268c-0.3263,0.193-0.7092,0.4263-1.0914,0.6593
		c-0.4802-0.0785-0.9595-0.1559-1.4394-0.2344c-0.1089,0.6715-0.2662,1.3351-0.4238,1.9987
		C217.9901,355.7201,217.9901,355.7201,219.0939,355.9001L219.0939,355.9001z M90.543,334.9705
		c0.229-0.8,0.4576-1.5999,0.686-2.3998c0.2857-0.544,0.5714-1.0885,0.913-1.673c0.8042-0.7064,1.6158-1.4598,2.4758-2.2062
		c0.0391-0.2398,0.0865-0.5278,0.1335-0.8158c-0.9898-1.7855-0.9898-1.7855-1.7036-2.5418c-1.1058-0.771-1.1058-0.771-1.7079-1.6078
		c-0.0085-0.2472-0.0099-0.5431-0.0107-0.839c-0.9567-1.3867-1.9602-2.7805-2.9568-4.2228
		c-1.0392-0.2675-10.7337-1.2061-17.6167-2.1793c-0.9908,0.0354-7.4166-0.7152-10.3493-0.8479
		c-0.2004,0.0168-0.4555,0.0732-0.7109,0.1304c0.201,0.2787,0.4498,0.5658,0.6985,0.8524
		c-0.0471,0.2877-0.0457,0.5828-0.0522,0.9266c-0.4076,0.082-0.8223,0.2112-1.2852,0.3328
		c-0.773,0.5142-1.5945,1.0205-2.4228,1.5746c-1.1582,0.1565-4.7066-0.1255-6.3921-0.0558c0.1604,0.2234,0.369,0.4539,0.57,0.7331
		c1.1769,0.6347,2.4012,1.2773,3.6261,1.9196c2.4412,1.0378,4.8815,2.075,7.3624,3.1685c0.5278,0.0856,1.055,0.1718,1.5831,0.2574
		c0.7419-0.322,1.4837-0.6446,2.2734-0.9595c2.734-1.6716,2.734-1.6716,4.0961-2.7797c2.5991,0.6693,5.1902,1.3873,7.8293,2.1118
		c0.1052,0.2634,0.2103,0.5264,0.3625,0.7977c-0.2384,0.2568-0.4771,0.5136-0.7633,0.7622c-1.2438,0.684-2.4877,1.3677-3.78,2.0438
		c-0.4059,0.377-0.86,0.7461-1.3213,1.1631c0.0797,0.1117,0.1523,0.2712,0.2248,0.4309c1.0647,0.4192,2.1205,0.887,3.2249,1.362
		c1.2393,0.2509,2.5266,0.5096,3.814,0.7685c0.6404,0.301,1.3203,0.6579,2.0015,1.0153c1.2793,0.3067,2.6065,0.6208,3.9342,0.9358
		C87.0067,333.7048,88.7747,334.3381,90.543,334.9705L90.543,334.9705z M256.5546,361.7032
		c2.1291-0.9828,3.6355-2.0667,4.9748-2.7349c0.0298-0.4873,0.0604-0.9754,0.0907-1.4627
		c-1.1849-0.5868-2.3692-1.1733-3.5941-1.8159c-0.4808-0.3736-0.9544-0.7957-1.4272-1.2169
		c-0.1916-0.0312-0.3835-0.0623-0.6157-0.1494c-0.3853,3.8761-0.3853,3.8761-0.4396,6.3289
		c0.0566,0.2551,0.1139,0.5111,0.1633,0.8144C255.9939,361.5138,256.2745,361.6082,256.5546,361.7032L256.5546,361.7032z
		 M115.9462,338.3188c0.5579-0.4016,1.1154-0.8036,1.673-1.2053c0.8538-0.4025,1.7552-0.7971,2.6646-1.2401
		c0.3257-0.4887,0.3257-0.4887,0.4272-1.1118c-0.3373-0.3503-0.3373-0.3503-1.6977-1.0647
		c-3.6471-0.8889-3.6471-0.8889-6.1892-1.3031c-0.9042-0.4919-0.9042-0.4919-1.8638-0.6478
		c-0.8209,0.5063-1.6903,1.0046-2.567,1.5514c-1.3969,0.4125-1.3969,0.4125-1.6353,0.6693
		c-0.1494,0.6157-0.2988,1.2314-0.504,1.8879C106.4627,336.0851,106.4627,336.0851,115.9462,338.3188L115.9462,338.3188z
		 M213.693,353.9861c0.4686-0.7608,0.4686-0.7608,1.3136-1.4105c0.4212-2.5903,0.4212-2.5903,0.3073-3.1011
		c-0.3444-0.3022-0.3444-0.3022-1.0159-0.4119c-0.4691,0.4649-0.987,0.9227-1.5049,1.3802
		c-0.2551,0.0564-0.559,0.1057-0.8623,0.1545c0.18-1.103,0.4076-2.1983,0.6426-3.3417c-0.0726-0.1596-0.1448-0.3192-0.2574-0.5346
		c-0.5598-0.1891-1.1684-0.3872-1.7762-0.5845c-0.1537-0.5664-0.1537-0.5664-0.2546-3.882
		c-0.3464-0.8935-0.7409-1.7949-1.1282-2.7442c-1.584-0.5533-1.584-0.5533-2.3751-0.5338
		c-0.4229,0.1772-0.8535,0.4025-1.2835,0.6273c-0.7878,0.9059-0.7878,0.9059-1.1605,1.6826
		c-0.1486,0.9116-0.2965,1.8224-0.4453,2.734c0.2213,1.3654,0.4337,2.7791,0.6468,4.1924c0.3448,0.3016,0.3448,0.3016,0.9683,0.403
		c0.5343-0.2574,0.5343-0.2574,2.2125-0.2798c0.623,0.1015,1.2387,0.2517,1.9032,0.4082c-0.087,0.2321-0.222,0.4569-0.3648,0.7288
		c-0.2155,0.1125-0.4309,0.2257-0.6543,0.3858c-2.4375-0.1508-2.4375-0.1508-2.8602,0.027
		c-0.1182,0.4235-0.2364,0.8478-0.3546,1.2713c0.1531,0.2712,0.3538,0.5504,0.5548,0.8288
		c0.3676,0.1587,0.7361,0.3169,1.1038,0.4757c1.0154,0.1162,2.0304,0.2321,3.0458,0.3481c1.0602-0.4677,1.0602-0.4677,1.4904-0.9884
		c0.6387,0.0051,0.6387,0.0051,1.3995,0.4745c0.074,0.4547,0.1474,0.9099,0.261,1.4205
		C213.3812,353.7883,213.517,353.8592,213.693,353.9861L213.693,353.9861z M177.8438,345.2444
		c0.0629-0.0876,0.1829-0.216,0.3016-0.3444c0.1879-1.1509,0.3271-2.3105,0.4742-3.5172c-0.1434-0.0232-0.3356-0.0544-0.5272-0.0856
		c-0.6111,1.0327-1.2226,2.0653-1.8419,3.1468c-0.0159,0.0958,0.0088,0.2472,0.0334,0.3997
		C176.8038,344.9768,177.3237,345.1112,177.8438,345.2444L177.8438,345.2444z M41.7936,322.8972
		c0.0145-0.3909,0.0289-0.7826-0.0045-1.182c-0.2755-1.0298-0.551-2.0597-0.8266-3.0886c-0.2392-0.0394-0.4714-0.1265-0.7036-0.2135
		c-1.5483,0.4374-1.5483,0.4374-2.6251,1.0009c-0.0391,0.2392-0.1335,0.5193-0.2285,0.7991c0.377,0.4062,0.794,0.8682,1.211,1.33
		C39.681,321.9623,40.7368,322.4301,41.7936,322.8972L41.7936,322.8972z M218.9386,350.8031
		c0.1596-0.0723,0.3192-0.1448,0.5346-0.258c0.0233-0.1437,0.102-0.328,0.1811-0.5122c-0.208-0.2305-0.417-0.4618-0.6656-0.7484
		c-0.288-0.0465-0.5681-0.1414-0.8958-0.2444c-0.3025,0.3453-0.3025,0.3453-0.3807,0.8246c0.161,0.2234,0.3141,0.4938,0.4662,0.7651
		c0.1117-0.0805,0.2234-0.1602,0.3909-0.2806C218.779,350.8757,218.779,350.8757,218.9386,350.8031L218.9386,350.8031z
		 M262.4209,355.9131c0.5255-2.6231,0.5255-2.6231,0.7846-6.0273c-0.0516-0.8949-0.1429-1.8448-0.2344-2.7956
		c-0.8476-0.2367-0.8476-0.2367-2.6694-0.2381c-0.1754,0.169-0.1754,0.169-1.9973,0.1676c-0.3421,0.2894-0.6845,0.578-1.0349,0.9144
		c-0.6242,1.7203-0.6242,1.7203-0.9919,3.9751c1.8463,2.27,1.8463,2.27,2.7193,2.9536
		C260.1248,355.1943,261.2533,355.5259,262.4209,355.9131L262.4209,355.9131z M163.6723,339.4413
		c0.0771-0.7753,0.1619-1.5982,0.1987-2.4293c-0.5547-0.8291-1.1015-1.7059-1.6475-2.5826
		c-0.5119-0.1812-1.0168-0.411-1.5687-0.6489c-0.7832-0.0292-1.6143-0.066-2.4454-0.1032c0.161,0.2234,0.161,0.2234,3.0815,1.3388
		c0.6823,0.9485,0.6823,0.9485,1.5845,2.9662c-0.0624,0.3835-0.1726,0.7599-0.2908,1.1835
		C162.9203,339.2211,163.2962,339.331,163.6723,339.4413L163.6723,339.4413z M156.4768,338.2701
		c-0.0587-0.8462-0.0587-0.8462-0.316-1.3808c0.0856-0.5278,0.1718-1.055,0.2574-1.5831c1.0429-0.9624,1.0429-0.9624,1.2648-1.4185
		c-0.2475,0.0088-0.4955,0.0176-0.7985,0.067c-0.2307,0.208-0.462,0.417-0.7005,0.6735c-0.309,0.6883-0.6179,1.3765-0.9828,2.1048
		c-0.6381,0.29-0.6381,0.29-1.7725,0.3025c-1.72-0.6245-1.72-0.6245-6.3187-1.7181c-0.3835-0.0624-0.8232-0.0851-1.2626-0.1066
		c0.0167,0.1993,0.074,0.4547,0.1304,0.7098C149.4481,336.6826,152.967,337.4522,156.4768,338.2701L156.4768,338.2701z
		 M207.8406,346.3868c0.1996-0.0167,0.4068-0.0819,0.6143-0.1466c0.1009-0.9187,0.201-1.8382,0.3016-2.7572
		c-0.1057-0.559-0.2123-1.1175-0.3662-1.6846c-0.1602-0.2225-0.3691-0.4541-0.5698-0.7325
		c-0.3359-0.055-0.6636-0.1573-1.0395-0.2685c-0.5584,0.4019-0.5584,0.4019-0.8671,1.0902
		c-0.3903,2.3981-0.3903,2.3981-0.2823,3.5484c0.0726,0.1596,0.1451,0.3192,0.2577,0.5343
		C206.5129,346.0721,207.1765,346.2295,207.8406,346.3868L207.8406,346.3868z M123.833,332.2169
		c0.7833,0.0289,1.6144,0.0658,2.4534,0.0544c1.2714,0.3552,10.9114,1.6288,15.6847,2.554
		c0.1843,0.0791,0.3685,0.1582,0.6006,0.2452c0.3901-0.2806,0.7804-0.5621,1.2189-0.8354c0.0233-0.1437,0.0465-0.288,0.1265-0.4722
		c-7.4132-1.6498-7.4132-1.6498-21.2451-4.394c-0.4164-0.1661-0.8319-0.3323-1.2481-0.4989
		c-1.6956-2.5897-1.6956-2.5897-2.0349-3.532c0.1754-0.1681,0.3503-0.3364,0.5737-0.4974c1.0136-0.1792,2.9789-0.1545,3.6578-0.3887
		c1.8289-0.0471,3.7146-0.1341,5.5993-0.2211c1.4048-0.4606,1.4048-0.4606,2.0517-0.5026c3.1025,0.6032,6.2527,1.2147,9.3952,1.874
		c0.6548-0.0907,3.2678,0.1876,3.7247,0.4096c0.6715,0.1089,1.3431,0.2183,2.0625,0.3359c0.8623-0.1553,0.8623-0.1553,1.0449-0.3713
		c-0.1364-0.072-0.2645-0.1917-0.4408-0.3184c-3.9807-0.6486-3.9807-0.6486-5.1556-0.692c-0.4561-0.222-0.9122-0.4439-1.3612-0.7135
		c0.0633-0.3838,0.1256-0.7673,0.1474-1.207c0.7251-0.5221,0.7251-0.5221,0.8991-0.9861c-2.7405-0.1015-5.5298-0.2112-8.3183-0.3206
		c-1.1979,0.101-2.452,0.2409-3.7057,0.3815c-1.6841,0.3662-3.3687,0.7317-5.1092,1.1379c-0.6237-0.1015-0.7441-0.269-2.2059-0.3589
		c-1.8842,0.3821-1.8842,0.3821-3.2267,0.4589c-1.4599,0.5012-2.9682,0.9944-4.4839,1.5352
		c-0.0392,0.2393-0.1262,0.4714-0.2211,0.7515c1.0298,1.8419,2.2654,3.3236,2.7564,4.2401
		c0.3127,0.1987,0.6171,0.4453,0.9697,0.6993C119.9777,331.0972,121.9055,331.6571,123.833,332.2169L123.833,332.2169z
		 M96.9059,327.3405c2.1299-0.9828,3.6703-1.3719,4.0124-1.6608c1.1568-0.4516,2.3136-0.9034,3.526-1.3958
		c2.196-0.4796,4.3986-1.0069,6.6504-1.5268c1.9964-0.1675,1.9964-0.1675,3.4004-0.6279c1.0386-0.0278,2.0849-0.1037,3.1315-0.18
		c0.0232-0.1434,0.0471-0.2871,0.0782-0.4793c-3.6782-0.6971-3.6782-0.6971-10.44-1.5027
		c-0.7985,0.0666-0.7985,0.0666-5.1628-0.3481c-0.6207,0.4895-1.2903,0.9712-1.9596,1.4533
		c-0.095,0.2801-0.1978,0.6077-0.3002,0.9354c0.3127,0.1987,0.6171,0.4453,0.921,0.6919c-0.0465,0.288-0.0457,0.584-0.0522,0.927
		c-0.2712,0.1527-0.5496,0.3538-0.8288,0.5547c-1.3005,0.4277-2.6493,0.8484-4.0054,1.317
		c-0.1199,0.1284-0.2395,0.2566-0.4062,0.377c0.2248,0.4308,0.4984,0.8688,0.7637,1.3555
		C96.4266,327.2622,96.6667,327.3014,96.9059,327.3405L96.9059,327.3405z M48.6662,319.0928
		c0.0297-0.4875,0.0297-0.4875-0.2509-0.8784c0.0623-0.3835,0.1247-0.7671,0.235-1.1429c-0.4794-0.0782-0.9666-0.1086-1.4539-0.1383
		c-0.5193,0.1615-1.0378,0.3234-1.5565,0.485c0.8651,0.7318,0.8651,0.7318,2.0829,1.4221
		C48.01,318.8875,48.3385,318.9896,48.6662,319.0928L48.6662,319.0928z M230.7284,347.9467c0.559-0.106,1.1174-0.2126,1.7325-0.3583
		c0.0391-0.2401,0.1261-0.472,0.2132-0.7041c-0.6157-0.1494-1.2243-0.3467-1.8321-0.544c-0.2792,0.201-0.2792,0.201-0.6097,1.3286
		C230.5688,348.0192,230.5688,348.0192,230.7284,347.9467L230.7284,347.9467z M145.6176,333.5968
		c0.8456-0.3546,0.8456-0.3546,2.1881-0.4314c5.7444-2.0191,5.7444-2.0191,8.8336-2.8457c1.2592-0.7795,1.2592-0.7795,1.9857-1.006
		c0.1916,0.0312,0.3835,0.0624,0.623,0.1018c0.2812,0.3901,1.3626-0.1009,1.4539,0.849c7.1833,2.619,19.0752,3.3202,24.2053,5.1375
		l2.2383-4.4107c-0.7688-0.4207-12.2468-3.9518-15.5574-4.7863c-2.2468-0.415-4.5411-0.8376-6.8278-1.3085
		c-3.8923-0.2885-10.0072-1.1369-11.4778-1.1792c-0.1743,0.4643-0.4034,0.9683-0.6333,1.4723
		c-0.5425,0.3062-1.0922,0.6594-1.6418,1.0131c-0.0158,0.0958-0.0391,0.2401-0.0153,0.3917c0.449,0.2696,3.4956,0.9136,4.2859,0.894
		c0.1284,0.1196,0.2568,0.2393,0.4332,0.3662c-0.0394,0.2401-0.0306,0.4873-0.0292,0.7832
		c-0.2546,0.3524-0.5083,0.705-0.7628,1.0573c-0.3671,0.1372-0.7897,0.3149-1.2126,0.4918
		c-0.5432,0.0102-1.0862,0.0201-1.6296,0.0303c-0.9341,0.2908-1.8672,0.5825-2.8015,0.873c-0.5576,0.402-1.1152,0.8036-1.673,1.2047
		c-1.8281,0.3424-1.8281,0.3424-2.3627,0.6004c-0.0312,0.1916-0.1103,0.3759-0.19,0.5598
		C145.242,333.4866,145.4342,333.5177,145.6176,333.5968L145.6176,333.5968z M254.474,350.2861
		c0.7869-1.2016,1.3799-2.7294,2.2147-3.9234c0.438-0.2733,0.8768-0.5468,1.3706-0.8601c1.6296-0.0297,2.4999-0.2327,7.3088-0.4342
		c0.0703-0.4323,0.1885-0.8558,0.3146-1.3281c-0.2007-0.2784-0.3937-0.6055-0.5868-0.9326
		c-0.9926-0.5553-1.9854-1.1109-3.0183-1.7224c-1.1123-0.4272-2.2646-0.9102-3.4171-1.3932
		c-0.5273-0.0862-1.0551-0.1718-1.575-0.3058c-0.4592,1.0088-0.9189,2.0168-1.3867,3.0733
		c-0.4714,1.9916-0.9437,3.9821-1.4635,5.9658C254.2823,350.2549,254.2823,350.2549,254.474,350.2861L254.474,350.2861z
		 M50.9441,317.1984c0.5831,0.0456,1.167,0.0912,1.806,0.0972c0.2466-0.3047,0.493-0.6092,0.7954-0.9536
		c0.5352,0.0377,1.0712,0.0754,1.6143,0.0657c0.5578-0.4016,0.5578-0.4016,0.8354-0.8983c-0.6795-0.0609-1.4148-0.082-2.1495-0.1038
		c-0.3351,0.2415-2.219,0.6237-4.1734,1.438C49.8412,317.0187,49.8412,317.0187,50.9441,317.1984L50.9441,317.1984z
		 M42.3098,315.793c4.4739-0.2568,4.4739-0.2568,5.0003-0.4663c0.0312-0.1922,0.0624-0.3835,0.0935-0.5757
		c-0.6077-0.1972-6.8088-0.5179-7.6632-0.4104c0.0797,0.1117,0.1522,0.271,0.2727,0.438
		C40.7499,315.0954,41.534,315.4202,42.3098,315.793L42.3098,315.793z M143.0633,332.0485
		c1.5715-0.5808,1.5715-0.5808,3.2562-0.9471c0.7095-0.4257,1.4193-0.8521,2.1764-1.2705c0.5185-0.1619,1.0372-0.3234,1.6042-0.4773
		c0.0312-0.1914,0.0624-0.3836,0.1015-0.6237c-1.279-0.3067-1.279-0.3067-2.0398-0.7752c-1.3192-0.0666-4.9408-0.8042-7.2187-1.0276
		c-3.2941-0.6347-6.588-1.2691-9.8824-1.9043c-0.5187,0.1616-1.0372,0.324-1.5636,0.5334c-2.7414-0.1014-3.4673,0.125-5.2412,0.1316
		c-2.8667,0.3705-2.8667,0.3705-3.0495,0.5865c0.2574,0.5346,0.5556,1.1248,0.8535,1.7144c2.8945,0.6687,5.7895,1.3365,8.684,2.0052
		c0.0425-1.4706,0.0425-1.4706,0.2812-1.7266c0.3033-0.0493,0.6548-0.0907,1.006-0.1321c0.2234-0.1601,0.5026-0.3611,0.7809-0.5621
		c1.4077,0.4257,10.0188,1.9754,10.7629,2.2447c0.0646,0.2072,0.129,0.4147,0.2415,0.6301c-0.3503,0.337-0.7484,0.6656-1.1466,0.995
		c-0.0233,0.1434-0.0544,0.3357-0.0856,0.5278C142.7277,331.9941,142.8711,332.0174,143.0633,332.0485L143.0633,332.0485z
		 M252.505,349.3745c0.2914-1.1835,0.2914-1.1835,0.3504-2.454c0.3974-0.6245,0.3974-0.6245,1.8731-5.4558
		c0.214-0.4082,0.4286-0.8167,0.6903-1.2169c0.0865-0.5278,0.1241-1.063,0.1619-1.5982c-1.8247-0.8887-1.8247-0.8887-10.9616-4.3455
		c-0.7599-0.1726-1.5599-0.4019-2.359-0.6304c-0.1814,0.8079-0.6188,1.3765-2.3709,6.9998
		c-0.4453,2.7341-0.4453,2.7341-0.4012,3.9719c2.2235,0.5593,4.4949,1.1262,6.7584,1.7405
		C252.0257,349.2962,252.0257,349.2962,252.505,349.3745L252.505,349.3745z M219.5752,343.8659
		c1.7878-0.6939,1.7878-0.6939,2.4571-1.1755c0.0312-0.1922,0.0145-0.3918,0.0051-0.6398
		c-2.1844-0.7982-2.1844-0.7982-3.0634-0.8433c-0.1165,0.7194-0.2412,1.4873-0.3668,2.2546
		C218.8082,343.7403,218.8082,343.7403,219.5752,343.8659L219.5752,343.8659z M229.3099,344.5644
		c-0.0017-0.296-0.0031-0.591,0.0042-0.9348c-2.0392-0.4802-2.0392-0.4802-2.2546-0.3671
		C227.7804,343.6751,228.5492,344.0958,229.3099,344.5644L229.3099,344.5644z M22.6203,310.6178
		c0.2001-0.0164,0.2001-0.0164,0.3974-0.625c-0.2095-0.5264-0.4677-1.061-0.7251-1.5948c-0.2968-0.2945-0.5933-0.5896-0.9306-0.9399
		c-2.0086-0.9666-2.0086-0.9666-4.9445-1.9863c-0.1332,0.8152-0.2733,1.679-0.4618,2.5348
		c0.1313,1.0057,0.1313,1.0057,0.3319,1.2849C20.2223,310.2269,20.2223,310.2269,22.6203,310.6178L22.6203,310.6178z
		 M29.0711,311.5201c0.1522-0.0247,0.3118-0.0973,0.5193-0.1619c-0.1531-0.271-0.1531-0.271-1.7124-0.6721
		c-0.2001,0.0167-0.3994,0.0335-0.6474,0.042c-0.2081-0.2305-0.4649-0.47-0.7138-0.7563c-0.7041-0.2131-1.4474-0.4816-2.1914-0.7506
		c-0.006,0.6389-0.006,0.6389,0.4291,1.5962C26.1934,311.0515,27.6323,311.2859,29.0711,311.5201L29.0711,311.5201z
		 M35.3615,312.1995c4.3877,0.2712,8.7752,0.5425,13.17,0.7659c0.0471-0.288,0.1494-0.6157,0.2523-0.9442
		c-0.858-2.8964-0.858-2.8964-1.5106-6.4494c-1.3663-0.0754-2.7405-0.1023-4.1147-0.1284c-2.0206,0.3112-4.4734,0.256-5.2957,0.4672
		c-3.9385-0.0014-10.9789-0.3104-11.3051-0.1176c0.1066,0.8543,0.1066,0.8543,1.0658,3.128
		c2.3607,0.9261,2.3607,0.9261,6.2994,3.0444C34.4023,312.0436,34.8822,312.1213,35.3615,312.1995L35.3615,312.1995z
		 M13.1056,308.5757c0.2872,0.047,0.6231,0.1014,0.9669,0.1089c0.3974-2.7423,0.3974-2.7423,0.6976-3.6783
		c-0.201-0.2787-0.201-0.2787-1.7297-0.8725c-1.6781-0.2727-3.4055-0.5541-5.1324-0.8353
		c-0.1825,0.2169-0.1825,0.2169,0.0349,0.6953c1.5715,1.5361,1.5715,1.5361,3.9155,4.3796
		C12.2419,308.4357,12.6733,308.506,13.1056,308.5757L13.1056,308.5757z M92.4496,321.4453
		c0.1936-1.7906,0.1936-1.7906,0.0158-2.2133c-1.2951-0.2112-1.2951-0.2112-1.6217-0.0181
		c0.2974,0.5901,0.6355,1.2356,0.9734,1.8819C92.0014,321.1749,92.2253,321.3098,92.4496,321.4453L92.4496,321.4453z
		 M237.7759,343.9733c1.544-5.8541,1.544-5.8541,3.0444-10.5338c-1.3453-0.8102-2.5934-1.3082-2.7057-1.5236
		c-1.1517-0.1879-2.3026-0.375-3.494-0.6185c0.0014,0.2957,0.0428,0.6475,0.084,0.9986c1.2569,0.7461,1.2569,0.7461,2.1067,1.5744
		c0.5063,0.8209,0.5063,0.8209,0.8711,2.2096c-0.1182,2.5413-0.1885,5.0896-0.2588,7.6389
		C237.512,343.7826,237.6475,343.8535,237.7759,343.9733L237.7759,343.9733z M232.2824,342.6351
		c0.119-0.1276,0.2387-0.256,0.3657-0.432c0.248-0.0097,0.551-0.0581,0.8549-0.1075c0.3178-0.4411,0.3178-0.4411,0.3961-0.9204
		c-0.1131-0.2151-0.2256-0.4306-0.3785-0.7018c0.1542-1.5506,0.3082-3.1011,0.4698-4.6993c-0.0644-0.2075-0.129-0.415-0.2342-0.6783
		c-0.2801-0.095-0.5598-0.1899-0.8875-0.2922c0.0839,1.294,0.0839,1.294-0.1502,2.7326c-0.1423,0.2727-0.2931,0.5927-0.4918,0.9051
		c-0.2877-0.0471-0.5831-0.0456-0.9267-0.0522c-0.1531-0.2712-0.1531-0.2712-0.2545-1.7651
		c-0.2401-0.0391-0.4714-0.1261-0.7036-0.2132c-0.773,0.5142-0.773,0.5142-1.4496,1.3402
		c-0.6245,1.7195-0.6245,1.7195-0.8586,3.1589c0.0644,0.2075,0.129,0.4147,0.2341,0.678c1.3351,0.267,1.3351,0.267,1.6064,0.1139
		c0.1094-0.6715,0.2262-1.391,0.3438-2.1104c0.2784-0.201,0.2784-0.201,0.902-0.0995c0.1451,0.3192,0.2903,0.6384,0.4272,1.0051
		c-0.0051,0.639-0.0108,1.2779,0.0233,1.9735C231.8104,342.5098,232.0505,342.5481,232.2824,342.6351L232.2824,342.6351z
		 M53.5106,313.5295c7.0339,0.6528,14.1148,1.3133,21.2037,1.9261c0.1018-0.6236,0.1553-1.2552,0.2169-1.9346
		c-0.3104-1.7246-0.6125-3.4971-0.915-5.2696c0.0862-0.5278,0.1718-1.055,0.2582-1.5831c-0.0887-0.0629-0.1692-0.1747-0.2489-0.2863
		c-1.0154-0.116-2.0305-0.2321-3.0458-0.3481c-0.3033,0.0494-0.6542,0.0907-1.0139,0.1797
		c-11.3792-0.5729-11.3792-0.5729-16.9016-1.1268c-3.2681,0.108-3.2681,0.108-4.2817,0.2871
		c-0.0312,0.1922-0.1103,0.3762-0.1893,0.5599c0.2444,1.222,0.4881,2.4432,0.7245,3.7131c0.9051,2.6084,0.9051,2.6084,0.9797,3.3599
		C51.3526,313.1777,52.4077,313.3498,53.5106,313.5295L53.5106,313.5295z M225.9566,340.9658
		c0.2072-0.0652,1.1611-3.5042,2.2776-6.1288c0.597-0.6418,1.1939-1.2829,1.7986-1.9726c0.0777-0.4793-0.3597-2.0276-0.396-3.3142
		c-4.6058-1.0449-4.8625-1.2836-6.4933-1.5489c-1.6804-0.5695-1.6804-0.5695-3.3746-0.7464
		c-0.0065,0.343-0.021,0.7347-0.0355,1.1263c1.8326,5.0743,1.8326,5.0743,3.9365,12.1133
		C224.4372,340.62,225.1963,340.7926,225.9566,340.9658L225.9566,340.9658z M25.7104,307.9694c-0.0522-1.19-0.0522-1.19-0.472-2.243
		c-1.1509-0.1879-2.2947-0.4226-3.4855-0.6664c-0.3523-0.254-0.7047-0.5086-1.0499-0.8107
		c-0.7594-0.1727-1.5673-0.3541-2.3752-0.5346c-0.1667,0.1205-0.3421,0.2894-0.5649,0.4496
		c0.0726,0.1596,0.1451,0.3192,0.2653,0.4867c3.8248,1.607,5.1622,2.4651,6.4029,3.0118
		C24.8629,307.7329,25.2869,307.8512,25.7104,307.9694L25.7104,307.9694z M80.63,316.3203c1.9341,0.216,3.8763,0.3849,5.8184,0.5533
		c-0.0088-0.248-0.0102-0.5431-0.0108-0.839c-0.7622-0.7637-1.7912-2.6057-6.3842-8.5728
		c-0.0726-0.1596-0.1449-0.3189-0.2574-0.5344c-1.2951-0.2103-2.5903-0.4215-3.9336-0.6404
		c-0.0848,0.8229-0.129,1.7028-0.1741,2.5818c0.383,1.8839,0.9037,6.5478,1.1047,6.8264
		C78.0396,315.8981,79.3348,316.109,80.63,316.3203L80.63,316.3203z M89.9656,317.3478c0.7353,0.0209,1.5179,0.0501,2.3091,0.0312
		c0.3146-1.3278,0.3146-1.3278,0.3503-2.4539c-0.328-2.2201-0.28-4.3297-0.483-5.1999c0.0122-0.9827,0.0122-0.9827-0.1973-1.5091
		c-0.3835-0.0624-0.8079-0.1806-1.2313-0.2988c-5.5777-0.2191-5.5777-0.2191-8.1434-0.4887
		c-0.0559,0.0397-0.1191,0.1281-0.1828,0.216c0.1371,0.3671,0.2741,0.7347,0.4518,1.1574c1.2359,1.4808,1.7269,2.3984,3.1388,4.0067
		c1.0922,1.4579,2.232,2.9234,3.3642,4.4377C89.5341,317.2775,89.7255,317.3087,89.9656,317.3478L89.9656,317.3478z
		 M98.6668,317.4348c2.1393-2.5572,4.2787-5.1134,6.4262-7.7185c0.095-0.2798,0.2458-0.5995,0.3965-0.9201
		c-0.8158-0.1326-1.6716-0.3214-2.5265-0.5099c-1.8544-0.1043-3.708-0.2095-5.5625-0.3141
		c-0.1386,1.4541,0.0414,2.4681-0.0255,3.7871c0.3592,2.0276,0.4904,5.1511,0.6682,5.574
		C98.2351,317.3645,98.4267,317.3957,98.6668,317.4348L98.6668,317.4348z M198.7805,333.6853
		c0.0232-0.1443,0.0473-0.2877,0.0785-0.4799c-1.6158-0.3611-1.6158-0.3611-2.7581-0.301
		C196.8777,333.2771,196.8777,333.2771,198.7805,333.6853L198.7805,333.6853z M105.261,318.3609
		c0.3518-0.0414,0.7107-0.1304,1.1183-0.2117c-0.0681-1.0942-0.1364-2.1886-0.2443-3.339c-0.1437-0.0238-0.288-0.047-0.4873-0.0303
		c-0.6049,0.6896-1.2098,1.3785-1.8697,2.1081c-0.0624,0.3838-0.1253,0.7679-0.1471,1.2076
		C104.1581,318.1812,104.6859,318.2673,105.261,318.3609L105.261,318.3609z M108.8174,318.5953
		c11.2314,1.4837,11.2314,1.4837,17.3231,2.4758c0.7985-0.0674,1.6529-0.174,2.5072-0.2815
		c0.1089-0.9675,0.1089-0.9675-0.8181-9.4887c-0.2582-0.5344-0.2582-0.5344-0.9303-0.9391c-2.518-0.2617-5.036-0.5241-7.609-0.7461
		c-5.0497-0.133-5.0497-0.133-7.6938,0.0768c-1.0965-0.5236-1.0965-0.5236-1.8637-0.6483
		c-0.5091,0.7047-1.0174,1.4096-1.5818,2.1552c-0.2378,0.5519-0.4756,1.1046-0.7687,1.6963c0.1908,1.853,0.3815,3.706,0.6202,5.5667
		C108.2425,318.5018,108.5297,318.548,108.8174,318.5953L108.8174,318.5953z M11.949,302.6762
		c0.7671,0.1247,1.5902,0.2095,2.4134,0.2943c0.1174-0.7195,0.2342-1.4389,0.3597-2.206c-0.9907,0.0354-0.9907,0.0354-4.8286-0.5896
		c-6.3913-0.0558-6.3913-0.0558-6.7663,0.1298c0.1684,0.1747,0.3844,0.3575,0.6012,0.5409c2.4956,0.7013,5.997,1.2713,6.925,1.6194
		C11.0853,302.5354,11.5168,302.6057,11.949,302.6762L11.949,302.6762z M16.6562,303.098c0.2633-0.1049,0.5346-0.2579,0.805-0.4104
		c0.0312-0.1922,0.0703-0.432,0.1094-0.6715c-0.7614-0.7643-0.7614-0.7643-1.4097-1.0173
		c-0.1017,0.6236-0.2032,1.2467-0.3606,1.9108C16.0885,302.956,16.3762,303.0031,16.6562,303.098L16.6562,303.098z
		 M24.1621,304.1721c3.7159,0.1619,7.4798,0.3316,11.2431,0.5012c1.2467-0.0927,2.5484-0.2254,3.85-0.3583
		c0.3359,0.0552,0.7195,0.1176,1.1033,0.18c2.7462-0.5374,2.7462-0.5374,3.0886-0.8269c1.1667,0.0916,2.3817,0.1908,3.5963,0.2903
		c1.5576-0.1894,3.1147-0.3792,4.6718-0.5686c0.3192-0.1451,0.686-0.2821,1.061-0.4671c7.0824-1.1617,7.0824-1.1617,9.5822-1.3943
		c1.7476-0.4541,3.5034-0.9558,5.3079-1.45c1.5409-0.0941,3.0906-0.2355,4.6882-0.3691c0.624,0.1015,1.2396,0.2509,1.9032,0.4085
		c0.0856-0.5281,0.2197-1.048,0.3611-1.616c-0.9828-2.1291-0.9828-2.1291-1.6296-4.2038c-0.2881-2.1642-0.4561-2.3397-0.8144-4.0722
		c-0.0797-0.1108-0.1602-0.2226-0.2885-0.3422c-0.5636-3.1938-1.1263-6.3871-1.6818-9.6288
		c-1.6535-6.1781-1.6535-6.1781-3.1802-12.8276c-0.6707-4.0482-2.0412-9.54-5.8138-26.8951
		c-0.0176-0.4952-0.0357-0.9907-0.053-1.4859c-0.8036-3.2323-1.4193-7.6161-2.5571-12.7253
		c-0.0042-1.1829-0.0088-2.365-0.053-3.6028c-0.1299-0.4156-0.2589-0.8303-0.4366-1.2532
		c-0.1791-3.1314-0.1791-3.1314-0.5142-5.0074c0.1205-1.9494,0.2415-3.8996,0.314-5.8578
		c-0.4373-1.5483-0.4909-3.0342-0.7251-3.7123c-0.0768-3.4591-0.0768-3.4591-0.3345-6.1107
		c0.2118-5.2339,0.2118-5.2339,0.0907-20.5177c-0.2029-0.8694-0.0232-1.9732-0.1247-3.4665
		c0.1457-1.5026,0.2923-3.0053,0.438-4.5079c-0.1137-0.5111-0.2755-1.0295-0.4371-1.5483c0.3263-6.84,0.2007-8.1898,0.6474-14.8632
		c0.0065-4.5782-0.0346-9.1635-0.068-13.798c0.2248-1.9819,0.4487-3.9639,0.6251-5.9538c-0.2089-6.5826-0.1522-12.9748-0.29-13.3416
		c0.2894-1.7748,0.807-12.8183,0.6934-13.3294c0.2877-4.1876,0.5352-8.4308,0.7832-12.674
		c-0.1488-1.2059,0.242-5.7218,0.1885-7.2079c0.4329-3.8682,0.4329-3.8682,0.7107-8.5986
		c0.7398-5.1483,1.4873-10.3445,2.2351-15.5407c1.9401-8.8917,2.8225-14.3121,4.4921-22.7548
		c0.4221-2.5906,0.8433-5.1803,1.2733-7.8185c1.2183-5.3661,1.866-7.2298,2.935-11.9799c0.7259-2.3431,0.7259-2.3431,1.6223-6.3331
		c-0.1523,0.0247-0.3039,0.0485-0.5032,0.0652c-1.1438,1.882-2.2867,3.7639-3.4863,5.6857
		c-0.9904,2.1529-2.8086,5.1562-5.7892,11.3669c-0.8348,1.1937-1.8488,3.4904-2.7312,4.676
		c-1.8958,3.7784-3.2454,6.0209-3.8154,7.4053c-0.4329,1.7512-0.4329,1.7512-0.4141,2.5418
		c-0.2225,0.161-0.4538,0.3691-0.7325,0.5701c-0.2857,0.5445-0.6191,1.0811-0.9527,1.6177
		c-4.2599,10.1387-4.2599,10.1387-8.7077,21.4288c-4.8552,13.488-4.8552,13.488-7.4296,21.4393
		c-1.0378,4.5578-2.1308,9.1564-3.2244,13.7543c-0.57,1.3844-0.726,2.3439-1.8419,5.2645
		c-0.2149,0.1123-0.2149,0.1123-1.8536,6.2462c-0.7342,4.5093-1.476,9.0658-2.2187,13.623c-0.33,1.423-0.6599,2.8466-1.0383,4.2621
		c-2.8103,15.4463-3.6269,21.3698-4.2939,24.5599c-0.2517,0.9434-0.504,1.8877-0.8045,2.8234
		c-0.4022,3.3809-0.4022,3.3809-1.8737,11.5121c-1.262,10.7742-1.262,10.7742-1.8414,18.2628
		c0.1001,5.4326,0.2452,5.7518,0.2132,9.8824c-0.0995,1.2149-0.1987,2.4296-0.2583,3.7c0.1162,1.1024,0.2801,2.2119,0.4365,3.3702
		c-0.2248,1.9819-0.4487,3.9639-0.6729,5.9468c-0.0689,2.8442-0.1383,5.6891-0.2075,8.5334
		c-0.6185,5.6109-1.3212,9.9283-1.6651,14.1553c-0.0247,4.083-0.0247,4.083-0.8144,14.9837
		c-0.116,5.2498-0.1922,10.5548-0.2682,15.8604c-0.1596,2.1895-0.3266,4.4275-0.4462,6.6727
		c0.2154,4.1219,0.4309,8.244,0.6375,12.4132c-0.1066,1.2628-0.222,2.5739-0.3365,3.8843c0.858,2.8973,0.858,2.8973,1.1387,3.2874
		c-0.1792,1.1032-0.1792,1.1032-0.1573,2.7813c0.5468,0.8768,2.3437,2.8435,2.8398,3.1212c0.0805,0.1117,0.161,0.2225,0.2815,0.3901
		C21.2824,303.1128,22.7218,303.642,24.1621,304.1721L24.1621,304.1721z M149.2233,323.5483
		c0.5114-0.1131,0.5114-0.1131,0.6942-0.3299c-0.9204-0.396-0.9204-0.396-3.1751-0.7628c-0.1037,0.0326-0.2075,0.0646-0.3192,0.1451
		c0.241,0.3342,0.241,0.3342,1.169,0.6823C148.1203,323.3692,148.6476,323.4548,149.2233,323.5483L149.2233,323.5483z
		 M221.5864,339.4972c-0.3466-3.0762-1.7731-5.8022-3.6451-11.2986c0.0553-0.3359,0.0618-0.6797,0.0763-1.0712
		c-1.5766-0.6013-12.1408-3.3608-15.1154-4.1403l-9.0139-2.5832l0.2265,2.6246c1.0573,7.115,1.0573,7.115,1.3147,7.6496
		C197.8205,331.116,219.1554,339.0025,221.5864,339.4972L221.5864,339.4972z M131.5073,320.4676
		c0.7027-0.0825,1.4054-0.1652,2.164-0.2877c4.2744,0.0559,4.2744,0.0559,11.8667,0.6027c3.8607,0.4808,8.1541,1.3269,8.9526,1.2603
		c-0.3214-2.5636-0.6426-5.1264-0.9558-7.738c-2.4301-0.4946-12.702-1.8215-13.9734-2.177
		c-8.6576-1.262-8.6576-1.262-10.4236-1.3034c-0.0233,0.1446-0.0949,0.2809-0.174,0.4643c0.2409,2.452,0.4816,4.904,0.771,7.3638
		c0.1131,0.5105,0.2755,1.0298,0.4374,1.5483C130.6036,320.2711,131.0351,320.3415,131.5073,320.4676L131.5073,320.4676z
		 M193.5353,330.517c0.0536-0.631,0.0593-1.2705,0.0731-1.9573c-0.2052-1.4612-1.169-7.2029-1.4221-8.6715
		c-0.2951,0.0009-12.4874-1.2617-14.1894-1.8564c-0.9176,0.491,1.4315,6.4839-0.1363,7.9517
		C177.0932,327.2302,190.3183,329.8228,193.5353,330.517L193.5353,330.517z M176.4361,325.7633
		c0.1095-0.671,0.2668-1.3351,0.4315-2.0467c-0.4371-1.5483-0.4371-1.5483-1.0284-5.7806c-0.8071-0.1806-1.607-0.4091-2.4548-0.6463
		c-1.1747-0.0434-2.3975-0.0941-3.6281-0.0978c-3.077-0.4518-6.1548-0.9037-9.2806-1.3635
		c-1.8071-0.3923-3.6545-0.841-5.5015-1.2892c-0.0311,0.1913-0.1182,0.4235-0.2052,0.6554
		c1.0126,5.8765,1.0126,5.8765,1.4483,7.1297c4.4056,0.7665,4.4056,0.7665,9.7367,1.2895
		C169.432,324.3281,172.9102,325.0416,176.4361,325.7633L176.4361,325.7633z M57.448,304.4712
		c4.2199,0.3914,8.7902,0.4459,12.0509,0.6814c0.7504-0.0746,1.5092-0.197,2.3153-0.3123c2.0858,0.1922,4.1803,0.3356,6.3219,0.4881
		c-0.0014-0.2959,0.0057-0.6397-0.0355-0.9907c-0.5862-0.6376-1.1642-1.3221-1.7413-2.0075
		c-0.5281-0.0856-1.0554-0.1718-1.631-0.2654c-0.3206-0.1502-0.6883-0.309-1.0486-0.5151
		c-0.9189-0.1006-1.8385-0.2007-2.7572-0.3016c-2.7958,0.2341-4.1924,0.6469-6.213,0.9581
		c-0.4626,0.1216-0.9334,0.2914-1.404,0.4612c-4.3279,0.5752-5.8765,1.0123-6.5718,1.0471c-0.1038,0.032-0.2146,0.1125-0.3263,0.193
		c0.0805,0.1117,0.1522,0.271,0.2248,0.4306C56.8722,304.3767,57.1599,304.4238,57.448,304.4712L57.448,304.4712z M81.7904,306.1688
		c0.3668-0.1372,0.3668-0.1372,1.8295-0.0465c0.2149-0.1131,0.4303-0.2256,0.7013-0.3787c0.9116,0.1488,1.8227,0.2974,2.734,0.4453
		c0.3518-0.0414,0.7506-0.0746,1.1582-0.1559c1.1508,0.1871,2.2946,0.4229,3.4861,0.6658c0.0609-0.6789,0.1227-1.3583,0.1437-2.0936
		c-0.2341-0.6781-0.2341-0.6781-0.7172-5.8779c0.0136-0.6868,0.0266-1.3743,0.0479-2.109c-0.106-0.559-0.2597-1.1253-0.4136-1.6926
		c-0.163-2.9313-0.3254-5.8626-0.5366-8.8018c0.0224-2.5572-0.0028-5.1214-0.021-7.7343c-0.3903-1.8363-0.3903-1.8363-0.5925-4.5275
		c0.0014-3.9387-0.4345-9.4263-0.3676-12.8616c-0.2103-0.8223-0.1315-3.1235-0.3889-5.7756
		c0.0051-0.6389,0.011-1.2778,0.0241-1.9652c-0.2461-1.8125-0.4853-3.6732-0.7716-5.5421
		c0.0326-4.1301,0.0326-4.1301-0.3257-10.0973c-0.288-2.1639-0.3098-5.959-1.0038-11.9803c0.019-1.3266,0.0457-2.7009,0.0247-4.0831
		c-0.108-1.1503-0.2639-2.3076-0.4127-3.5135c0.18-1.1032,0.18-1.1032,0.1344-4.7546c-0.2214-1.3654-0.4337-2.7791-0.6469-4.1915
		c-0.127-1.9415-0.2546-3.8823-0.3816-5.8235c-0.1474-0.9102-0.3345-1.8762-0.5221-2.8422
		c-0.0479-2.1249-0.1437-4.2578-0.2322-6.4384c-0.2574-0.5344-0.2574-0.5344-0.4053-1.7405
		c0.0362-0.8311,0.081-1.7101,0.1256-2.5889c-0.2344-0.6783-0.7697-13.4194-1.6413-24.394
		c0.0247-1.9653-0.3336-5.8153-0.5677-6.4937c-0.1247-1.3495-0.1247-1.3495,0.0791-4.4186
		c-0.3135-4.7281-0.6188-9.5046-0.972-14.2894c-0.5287-4.6159-1.1058-9.2393-1.6824-13.8631
		c0.0037-1.2308,0.0145-2.5093-0.0218-3.795c-0.0825-0.7027-0.2132-1.4134-0.3356-2.1722c-0.201-6.6304-0.201-6.6304-1.228-20.5844
		c0.1372-1.7498-0.089-2.4766-0.0536-3.6028c-0.1139-0.5111-0.2755-1.0298-0.4374-1.5483c0.0247-4.0831-0.2015-4.809-0.4649-11.0557
		c0.0079-4.2825-0.3501-8.1326-0.4807-17.3118c0.1219-1.6539,0.1219-1.6539-0.0341-2.8123c0.1327-0.8152,0.2733-1.679,0.4142-2.5426
		c-0.1052-4.4969-0.2583-9.0026-0.4026-13.5562c-0.2344-0.6783-0.2344-0.6783-0.6463-8.1312
		c0.0683-1.0225,0.1364-2.0457,0.1568-3.0764c-0.3112-2.0203-0.3112-2.0203-0.4598-5.3433
		c0.0893-1.7578,0.1862-3.5643,0.2356-5.3782c-0.2072-2.0524-0.4147-4.1046-0.6222-6.1572
		c-0.2024-0.5749-0.4039-1.1495-0.646-1.7795c-0.3177,0.441-0.3177,0.441-2.1676,5.7531
		c-1.0922,4.8938-1.6855,6.4216-2.7791,11.0194c-1.0386,6.38-3.5796,18.9653-4.4078,24.0497
		c-0.6744,3.238-1.3496,6.476-2.0727,9.7066c-0.2713,2.2701-0.5496,4.5879-0.7809,6.9138
		c-0.5887,2.7108-0.5887,2.7108-1.2067,8.3217c0.0102,0.5431,0.0196,1.0862,0.0703,1.6854
		c-0.1865,1.4468-0.3727,2.8936-0.5592,4.3405c-0.2464,6.6566-0.0672,7.6705-0.3333,13.24
		c-0.4453,4.8518-0.4453,4.8518-1.0727,16.5669c-0.0916,3.2836-0.1908,6.616-0.2903,9.9476
		c0.0726,2.277,0.1372,4.6015,0.2018,6.9265c-0.1908,2.3817-0.3816,4.7634-0.5244,7.1521
		c-0.1357,10.8108-0.1357,10.8108,0.021,11.9688c-0.2277,5.3297-0.4555,10.6594-0.6352,15.9976
		c0.0907,0.6548,0.1805,1.3091,0.3112,2.0197c-0.1148,1.311-0.2381,2.6694-0.3127,4.0357
		c0.2256,6.783,0.1219,15.2838,0.3356,21.2269c-0.0913,1.1671-0.1826,2.3337-0.282,3.5483
		c0.3279,2.2202,0.4592,5.3434,1.0749,9.7275c-0.0326,2.014-0.0167,4.0351-0.0014,6.0562c0.2333,0.383,0.5989,4.1845,0.8572,4.7188
		c0.1477,1.2053,0.1477,1.2053-0.0558,4.2744c0.7716,3.4245,0.7716,3.4245,2.0639,11.5135c4.4731,20.916,4.4731,20.916,5.51,24.8261
		c0.1656,1.4062,0.3787,2.819,0.5919,4.2324c2.3301,9.8824,2.6107,10.2727,2.9219,12.293c0.4683,1.3569,1.0908,5.3972,1.5279,6.9454
		c0.0828,0.7027,0.1573,1.4533,0.2801,2.2119c0.8578,2.8973,0.8578,2.8973,1.5817,6.3136c0.485,1.5565,1.0188,3.1206,1.552,4.6842
		c1.6214,2.1351,3.2437,4.2701,4.9059,6.4607C81.2145,306.0753,81.5025,306.1223,81.7904,306.1688L81.7904,306.1688z
		 M100.5051,307.0498c1.6775-0.0224,1.6775-0.0224,6.1934,0.3676c0.5408-0.6012,1.0819-1.2025,1.6228-1.8034
		c0.7869-1.2019,1.6291-2.4426,2.4709-3.6842c0.9153-1.082,1.8777-2.1569,2.848-3.2788c0.087-0.2318,0.182-0.5119,0.2769-0.7917
		c3.2933-3.8951,3.2933-3.8951,4.3492-5.5451c0.0703-0.432,0.0927-0.8717,0.123-1.359c-2.5424-0.4141-2.9905-0.684-7.6436-1.4411
		c-1.1277-0.3314-2.2552-0.6627-3.4237-1.05c-0.6548,0.0907-0.6548,0.0907-3.022-0.4918c-2.2808-1.1103-4.5623-2.2198-6.8352-3.3781
		c-0.2565-0.2384-0.5533-0.5329-0.8506-0.8274c-0.2393-0.0392-0.527-0.0862-0.807-0.1812c0.032,2.2212,0.0567,4.4898,0.129,6.7669
		c0.1241,1.0536,0.296,2.1161,0.4672,3.1779c0.2313,4.0255,0.4621,8.0518,0.6925,12.0776c0.1052,0.2634,0.2583,0.5346,0.4105,0.8056
		C98.5064,306.6255,99.5059,306.8375,100.5051,307.0498L100.5051,307.0498z M113.0781,308.4561
		c1.6855-0.0698,1.6855-0.0698,13.3773,0.7013c4.3325,0.6069,8.6647,1.2141,13.0051,1.7722
		c2.0313,0.5281,2.0313,0.5281,3.3579,0.5468c3.5651,0.4825,7.1302,0.9641,10.743,1.4542c5.5655,1.201,6.0143,1.4715,10.9312,2.4193
		c1.9741,0.2727,3.9487,0.5446,5.9236,0.8167c0.4467-0.0255,0.894-0.051,1.3496-0.125c2.6056,0.3257,5.2115,0.652,7.873,0.9372
		c1.1435,0.2355,2.3351,0.4785,3.5186,0.7701c0.4821-0.6758,9.9261,0.0304,10.6787,0.9842l21.1674,5.859l-34.5033-22.8841
		c-0.1927-0.3271-0.4258-0.7101-0.6591-1.0922c-0.3685-0.1588-0.7841-0.3249-1.1923-0.5389
		c-12.304-2.1509-12.304-2.1509-18.2276-2.9676c-3.0053-0.2922-6.0177-0.5366-9.0788-0.7889
		c-15.8763-2.2896-18.9295-2.5897-25.1649-3.6042c-1.1438-0.2358-2.3344-0.4788-3.5181-0.7701
		c-1.6302,2.1472-1.6302,2.1472-4.1678,5.0329c-0.5474,0.9448-1.1435,1.8819-1.7391,2.8188
		c-1.3677,1.7469-2.7354,3.4943-4.151,5.2333c-1.3729,2.386-1.3729,2.386-1.451,2.8653
		C111.495,308.1987,111.495,308.1987,113.0781,308.4561L113.0781,308.4561z M152.1546,291.3317
		c3.0532,0.3002,6.1064,0.6004,9.2154,0.8609c5.2991,0.7149,10.6067,1.3822,15.9146,2.0494c0.0457-0.584,0.0436-1.175,0.0488-1.8139
		c-0.5026-2.0517-1.054-4.1111-1.605-6.1702c-0.4518-1.1565-0.9037-2.3134-1.3952-3.526c-0.5267-1.908-1.0931-3.871-1.66-5.8343
		c-0.5388-0.9247-0.5388-0.9247-1.1857-2.9994c-0.0488-0.3039-0.0902-0.6548-0.1313-1.0066
		c-0.5471-0.8768-1.8878-4.7387-3.7582-9.2778c-0.4127-1.3966-0.9515-2.3213-1.3408-3.8616
		c-0.9357-2.4171-2.5878-8.2993-3.5473-10.573c-1.6832-5.6899-1.6832-5.6899-2.1741-6.6073
		c-0.0899-0.6548-0.2282-1.317-0.3589-2.0276c-0.282-0.6863-0.612-1.3802-0.9349-2.122c-1.7079-5.8416-1.7079-5.8416-2.0421-7.7184
		c-0.9362-2.4171-1.7376-5.3543-2.23-6.5667c-0.106-0.5593-0.2118-1.1177-0.3575-1.7326c-0.9595-2.2737-1.7929-5.0184-2.7754-7.1478
		c-0.5425-1.8114-1.1248-3.6788-1.7065-5.5463c-0.3461-0.5984-0.6919-1.196-1.0378-1.7943
		c-1.7456-5.3062-3.4911-10.6127-5.2776-15.9749c-0.459-1.1086-0.9187-2.2177-1.4264-3.3344
		c-2.198-6.7589-2.689-7.6757-3.5702-10.4286c-0.2095-0.5265-0.4677-1.0608-0.7251-1.5953
		c-0.1001-1.1979-0.1001-1.1979-0.982-3.9509c-1.8391-4.7314-3.6247-10.0936-4.3498-11.6884
		c-0.2279-1.0216-0.5034-2.0514-0.7789-3.0812c-0.9828-2.1294-1.8558-4.9309-3.727-9.4697
		c-0.0746-0.7506-0.1414-1.5492-0.256-2.3556c-2.0291-6.2884-4.0583-12.5768-6.1353-18.8723
		c-1.2254-3.0551-2.4996-6.1185-3.7732-9.1819c-1.504-4.676-1.7926-5.0184-3.3911-9.4144c-0.3424-1.8292-0.3424-1.8292-2.1038-7.039
		c-1.4496-3.1909-1.4496-3.1909-3.2823-8.2653c-0.2197-1.0698-0.4881-2.1472-0.7557-3.225
		c-0.4439-1.2047-0.8875-2.4092-1.3719-3.6697c-0.5687-2.5548-1.0843-3.6229-2.7125-9.6494
		c-0.33-0.6942-0.6605-1.3876-0.9825-2.1293c-1.7073-5.5463-2.6428-7.9634-3.0322-9.5046
		c-0.491-0.9167-5.7212-17.1797-9.3146-27.4644c-0.9595-2.2737-0.9595-2.2737-1.0913-3.2803
		c-0.4198-1.3481-0.8334-2.745-1.2937-4.1497c-3.7503-9.3253-4.1627-10.7222-4.4515-11.0645
		c-0.4365-1.2526-0.9825-2.1294-2.7442-7.34c-0.2676-1.0775-0.5352-2.1552-0.7954-3.2808c-0.2322-0.0871-0.4561-0.222-0.6803-0.3569
		c-0.1117,0.0798-0.2234,0.1604-0.39,0.2809c-0.0865,0.5278-0.18,1.1035-0.3214,1.6708
		c1.1024,21.3522,1.1024,21.3522,1.0712,23.6613c0.491,5.1515,0.5446,8.7543,0.9806,14.2418
		c0.4025,13.5565,0.4243,21.5858,0.7577,27.4014c-0.0782,2.5969-0.0782,2.5969,0.5578,20.7706
		c1.2821,24.4831,1.5701,26.6473,1.5381,28.9564c0.5924,4.5275,1.4171,15.494,1.7827,17.1786
		c-0.0683,1.0227-0.1363,2.046-0.1638,3.1243c0.1891,1.5571,0.3792,3.1147,0.5683,4.6718c0.0539,3.6028,0.591,8.4668,0.8478,12.9398
		c0.1865,0.6702,0.1865,0.6702,0.3895,3.6582c-0.0349,1.4221-0.0697,2.8442-0.0558,4.2744
		c0.1057,0.5589,0.2117,1.1174,0.3654,1.6846c0.2801,6.4465,0.4597,7.4601,0.4039,9.6177
		c0.9487,14.4331,1.1829,15.1121,1.2597,18.5712c0.5142,5.0068,0.5677,8.6105,0.9385,11.4772
		c0.0768,3.4594,0.3881,5.4791,1.6934,29.8185c0.5142,5.0077,0.591,8.4668,1.0508,13.8104
		c0.0768,3.4591,0.0768,3.4591,1.6259,20.2549c-0.0212,0.7353-0.0501,1.518-0.0791,2.3012
		c0.4133,1.6926,0.4133,1.6926,0.7427,2.0909c10.4358,2.4375,10.4358,2.4375,15.9763,3.4874
		c0.5831,0.0457,1.1667,0.0913,1.7978,0.1451c1.1764,0.3388,2.3998,0.686,3.6159,1.0806
		C142.4173,289.7463,147.2371,290.3838,152.1546,291.3317L152.1546,291.3317z M183.8876,333.9313l-1.3003-0.2118l-2.1175,13.0079
		l1.3002,0.2118L183.8876,333.9313L183.8876,333.9313z"/>
</g>
</svg>
