<?xml version="1.0" encoding="utf-8"?>
<!-- Generator: Adobe Illustrator 21.1.0, SVG Export Plug-In . SVG Version: 6.00 Build 0)  -->
<svg version="1.1" id="Hun" xmlns="http://www.w3.org/2000/svg" xmlns:xlink="http://www.w3.org/1999/xlink" x="0px" y="0px"
	 viewBox="0 0 427.176 602.64" enable-background="new 0 0 427.176 602.64" xml:space="preserve">
<g>
	<path fill-rule="evenodd" clip-rule="evenodd" d="M7.344,602.64C1.08,602.208,1.08,602.208,0,601.848c0-0.36,0-0.792,0-1.224
		c0.576-0.36,0.576-0.36,3.744-0.576c0.288,0.216,0.576,0.4319,0.936,0.72c11.736-0.2881,11.736-0.2881,15.12,0
		c2.664-0.72,2.664-0.72,2.88-1.0801c-0.432-0.504-0.864-1.08-1.368-1.656c0-0.72,0-0.72,3.888-8.64
		c1.224-2.232,2.52-4.4641,3.816-6.768c1.872-2.592,3.816-5.256,5.76-7.92c1.944-1.872,2.376-2.592,4.824-4.536
		c1.008-1.008,2.016-2.0161,3.096-3.096c0.144-0.36,0.288-0.792,0.504-1.224c0.144-2.304,0.288-4.608,0.432-6.984
		c-0.216-0.36-0.432-0.72-0.72-1.152c-0.144-2.16-0.288-4.32-0.432-6.48c-1.944-13.68-1.944-13.68-2.448-15.84
		c0.144-1.728,0.288-3.528,0.504-5.328c-0.072-0.72-0.216-1.512-0.36-2.304c-1.008-0.144-2.016-0.288-3.096-0.432
		c-0.216-0.144-0.432-0.36-0.648-0.576c0-0.72,0-0.72,0.432-1.152c18,0,20.16,0.288,30.24,0.288c4.752-0.504,4.752-0.504,29.52-1.44
		c0.792-0.2159,1.584-0.432,2.376-0.72c0.216,0.144,0.432,0.288,0.72,0.432c18.216-0.216,18.216-0.216,19.224-0.432
		c0.072-0.072,0.144-0.216,0.216-0.36c-0.288-0.648-0.576-1.296-0.864-1.944c-1.944-2.376-4.104-4.32-5.976-6.696
		c-0.648-0.648-1.296-1.296-1.944-1.944c-0.288-0.504-0.576-1.08-0.936-1.656c-0.576-0.504-1.152-1.08-1.728-1.656
		c-0.144-0.648-0.288-1.296-0.432-1.944c-0.432-0.36-0.864-0.792-1.368-1.224c-0.504-0.936-1.008-1.872-1.512-2.88
		c-0.72-0.792-1.44-1.584-2.16-2.376c-0.864-0.648-1.728-1.296-2.664-1.944c-5.256-5.976-6.264-7.632-7.92-9.36
		c-0.144-0.432-0.288-0.936-0.504-1.44c-1.584-1.44-3.168-2.88-4.752-4.32c0-0.432,0-0.936,0-1.44c1.872-3.6,2.376-4.032,4.032-7.92
		c-0.072-0.864-0.144-1.728-0.216-2.592c-1.368-1.152-2.736-2.304-4.176-3.528c-2.88-0.432-5.76-0.936-8.64-1.44
		c-0.36-0.36-0.72-0.72-1.08-1.08c0-0.432,0-0.936,0-1.44c0.576-0.576,1.224-1.224,1.872-1.872
		c3.888-15.624,5.76-24.768,12.528-52.128c1.872-9.576,1.872-9.576,3.6-16.776c0.144-1.224,0.288-2.52,0.432-3.816
		c2.88-12.744,4.824-19.44,7.92-32.904c3.888-21.6,3.888-21.6,7.2-38.376c0.576-1.512,1.152-3.024,1.728-4.608
		c0.576-2.736,1.224-5.544,1.872-8.352c0.144-0.144,0.288-0.288,0.504-0.504c5.76-22.104,7.704-28.296,9.576-36.216
		c3.888-12.96,4.824-17.28,5.328-18.504c0.288-1.368,0.576-2.736,0.936-4.104c0.648-1.728,1.296-3.456,1.944-5.256
		c3.816-15.336,3.816-15.336,6.192-23.544c0.504-0.936,1.44-4.32,1.944-5.256c2.88-11.52,2.88-11.52,4.824-17.496
		c0.288-1.728,0.576-3.528,0.936-5.328c1.944-6.192,1.944-6.192,5.184-18.936c0.288-0.216,0.576-0.432,0.936-0.648
		c0.864-1.728,0.864-1.728,4.176-11.376c1.944-4.032,5.76-14.112,13.464-32.4c1.224-2.7361,2.52-5.544,3.816-8.352
		c0.288-1.08,0.648-2.232,1.008-3.384c1.872-3.096,1.872-3.096,5.76-11.52c3.816-6.264,3.816-6.264,9.576-16.776
		c1.944-2.6641,3.816-6.048,8.64-13.248c0.288-0.576,0.576-1.224,0.936-1.8719c2.016-2.5921,4.032-5.256,6.048-7.92
		c1.872-3.168,1.872-3.168,3.816-7.488c1.944-2.376,3.816-5.256,5.76-7.416c1.944-2.88,1.944-2.88,3.816-6.264
		c3.888-5.112,7.848-10.224,11.808-15.3361c1.944-2.2319,3.96-4.4639,5.976-6.696c0.288-0.576,0.576-1.152,0.936-1.728
		c1.296-1.4401,2.592-2.88,3.888-4.3201c0.864-0.5759,1.728-1.2239,2.592-1.8719c0.792-0.864,1.584-1.728,2.448-2.664
		c0-0.216,0-0.432,0-0.72c-1.08-0.936-1.08-0.936-4.608-2.88c-0.216-0.288-0.432-0.5759-0.72-0.936c0-0.432,0-0.9359,0-1.4399
		c0.36-0.36,0.72-0.792,1.08-1.224C243.504,1.4401,245.016,0.72,246.6,0c1.368,0,2.736,0,4.104,0
		c1.152,0.432,2.376,0.936,3.6,1.4401c0.792,2.0879,0.792,2.0879,1.728,6.408c-0.216,5.976-0.216,5.976,0,13.176
		c0.72,9.864,0.72,9.864,1.008,10.584c0.432,17.496,0.936,27.144,0.936,35.496c0.936,2.8799,0.936,2.8799,2.88,6.7679
		c0.288,1.152,0.576,2.376,0.936,3.6c1.296,2.88,2.592,5.76,3.8879,8.64c1.872,5.7599,2.16,5.9759,6.912,20.5919
		c1.008,2.16,2.88,8.928,3.888,11.0881c2.8799,10.7999,2.8799,10.7999,3.312,13.392c1.296,3.816,2.592,7.632,3.8879,11.52
		c4.752,17.28,4.752,17.28,6.696,23.328c1.944,5.04,3.816,11.5201,14.904,41.76c0.936,1.656,1.8719,4.536,2.88,6.696
		c1.872,6.84,3.816,13.752,5.76,20.664c3.168,8.928,6.336,17.856,9.5759,26.856c3.816,12.744,7.704,24.264,11.5201,36.72
		c1.4399,3.384,1.4399,3.384,1.6559,4.824c0.288,0.504,0.648,1.08,1.008,1.656c1.872,6.264,2.16,6.48,2.592,8.64
		c1.0081,1.944,1.0081,1.944,2.88,7.92c0.72,3.384,1.728,5.76,2.16,7.704c0.648,1.512,1.296,3.024,1.944,4.536
		c0.648,2.232,1.296,4.464,1.944,6.696c0.432,0.936,0.936,1.872,1.44,2.88c1.872,6.48,2.88,8.928,4.752,16.128
		c1.944,5.976,3.888,13.68,5.7599,19.44c0.504,0.432,0.504,0.432,3.384,7.632c0.936,5.328,0.936,5.328,2.88,13.464
		c5.256,16.56,5.76,17.28,7.2,22.32c0.504,0.72,5.256,16.056,6.264,18.504c1.224,4.032,2.52,8.136,3.816,12.24
		c2.088,5.616,4.176,11.304,6.264,16.992c3.816,12.24,3.816,12.24,4.752,14.4c0.648,2.52,1.296,5.112,1.944,7.704
		c2.016,6.12,4.032,12.24,6.12,18.36c4.824,0.216,4.824,0.216,6.048,0c1.872,0.432,1.872,0.432,2.16,0.72
		c0.504-0.072,1.08-0.144,1.656-0.288c1.728,0.144,3.456,0.288,5.256,0.504c0.36,0.36,0.36,0.36,0.36,1.584
		c-0.1439,0.144-0.36,0.288-0.5759,0.504c-1.44,0.072-4.824-0.432-8.4241-0.432c-3.312,2.52-3.312,2.52-3.816,3.2401
		c0,0.504-0.072,1.008-0.144,1.512c0.936,3.816,0.936,3.816,1.944,6.192c0.6479,3.168,1.296,6.336,2.0159,9.576
		c0.576,0,1.152,0.072,1.728,0.144c4.824-0.72,9.72-1.4401,14.616-2.16c0.144,0.072,0.36,0.216,0.576,0.36
		c-0.072,0.576-0.144,1.152-0.216,1.728c-3.24,1.728-3.24,1.728-7.56,4.608c-1.008,0.288-2.0161,0.6479-3.0959,1.0079
		c-1.2961,0.144-2.592,0.288-3.8881,0.432c-1.872,3.24-2.736,5.688-3.744,7.632c-0.9359,1.152-1.8719,3.312-3.816,6.48
		c-1.944,4.3199-1.944,4.3199-2.88,5.7599c-5.76,13.8961-5.76,13.8961-8.64,21.816c-0.936,3.6-0.936,3.6-2.232,7.2001
		c6.552-0.6481,13.104-1.368,19.656-2.088c0.216,0.144,0.432,0.288,0.72,0.504c0,0.36,0,0.72,0.072,1.08
		c-0.576,0.36-11.088,1.296-25.7761,3.024c-0.432-0.144-0.936-0.288-1.44-0.504c-2.304-0.072-4.608-0.144-6.912-0.2161
		c-15.408,0.936-18.288,1.4401-21.6,1.656c-1.44-0.2159-2.88-0.432-4.32-0.72c-3.816-0.072-7.632-0.144-11.52-0.216
		c-3.528,0.144-7.056,0.288-10.584,0.4319c-1.3679,0.432-2.736,0.936-4.1039,1.4401c-1.8,0-3.6,0-5.472,0
		c-7.632-0.72-15.336-1.4401-23.04-2.16c-1.944,0.288-4.3199,0-12.24,0c-2.304,0.864-4.608,1.728-6.984,2.6641
		c-1.944,0.072-3.96,0.1439-5.976,0.2159c-5.7599-0.2159-11.52-0.432-17.28-0.72c-7.704,0.288-9.144,0-18,0
		c-5.76,1.008-5.76,1.008-11.304,2.448c-3.096,0-10.8-1.008-20.664-1.44c-2.52-0.216-5.04-0.432-7.632-0.72
		c-3.168,0-6.408,0-9.648,0c-6.192,0.936-7.92,1.4401-14.112,2.16c-3.168,0.072-6.408,0.144-9.648,0.216
		c-4.104-0.288-8.28-0.576-12.456-0.936c-4.608,0.2159-9.216,0.4319-13.896,0.72c-3.888,0.72-3.888,0.72-16.848,2.16
		c-1.872,0.0719-3.816,0.1439-5.76,0.2159c-1.944-0.288-3.96-0.576-5.976-0.936c-6.12-0.144-12.312-0.288-18.504-0.504
		c-11.952,0.72-11.952,0.72-19.656,1.6559c-1.44,0.288-2.88,0.648-4.32,1.008c-1.008,0-2.016,0-3.096,0
		c-0.36-0.144-0.792-0.288-1.224-0.504c-3.312-0.216-6.696-0.432-10.08-0.72c-2.664,0.504-2.664,0.504-11.736,0.936
		c-5.76,1.008-11.52,2.088-17.28,3.168C17.424,602.3521,12.384,602.496,7.344,602.64L7.344,602.64z M39.024,591.408
		c-4.824-0.504-4.824-0.504-11.304-0.504c0-0.2161-0.072-0.504-0.144-0.792c0.936-2.16,0.936-2.16,2.88-5.328
		c2.232-3.0961,4.536-6.192,6.84-9.36c8.064-7.6321,8.064-7.6321,10.44-9.576c5.976-3.816,5.976-3.816,12.6-7.56
		c1.368-0.648,2.736-1.296,4.104-1.944c3.384-0.936,3.384-0.936,8.64-2.88c0.936-0.144,1.872-0.288,2.88-0.504
		c19.944-0.9359,19.944-0.9359,22.104-0.72c8.928-0.2159,17.856-0.432,26.856-0.72c3.168-0.288,6.336-0.576,9.576-0.936
		c4.68-0.144,9.432-0.288,14.184-0.504c4.824-0.432,9.72-0.936,14.616-1.44c5.544,0.72,5.544,0.72,5.76,1.008
		c2.16-0.216,4.32-0.4319,6.48-0.72c6.984,0,6.984,0,17.568-0.504c2.376,0.072,4.752,0.144,7.2,0.216
		c11.664-0.36,23.328-0.72,34.992-1.152c1.44,0.072,2.88,0.144,4.32,0.216c0.864-0.144,1.728-0.288,2.664-0.504
		c7.632-0.144,15.336-0.288,23.04-0.432c3.168-0.288,6.336-0.648,9.576-1.008c29.304-1.152,29.304-1.152,29.52-0.936
		c10.368,0.216,10.368,0.216,12.024,0.504c7.416-0.504,10.08-1.008,13.4641-1.008c0.504,0.072,1.08,0.144,1.6559,0.288
		c12.4561-0.432,24.912-0.936,37.44-1.44c3.096-0.504,4.824-0.504,8.424-1.008c9.792-0.432,13.176-0.936,32.112-2.016
		c-0.864,2.376-1.7999,4.752-2.736,7.2c-2.2321,4.032-4.4641,8.136-6.768,12.24c-1.872,4.536-3.816,9.072-5.76,13.6801
		c-1.44,4.608-2.376,6.48-3.312,9.36c-1.584,0.36-1.584,0.36-8.496,0.864c-10.872,0.36-21.744,0.72-32.688,1.152
		c-15.336,0-18.72,0.288-27.576,0.288c-2.16,0.2161-4.32,0.4321-6.48,0.72c-12.024-0.288-15.624,0-20.6641,0
		c-1.8719-0.144-3.816-0.288-5.7599-0.504c-11.016,0.72-11.016,0.72-11.52,0.936c-6.9839,0.216-14.04,0.432-21.096,0.72
		c-4.32-0.144-8.64-0.288-12.96-0.432c-47.736,1.152-50.184,1.4399-59.76,1.656c-1.224,0.2159-24.264,0.2159-60.48,1.224
		c-14.4,0.936-14.4,0.936-18.504,0.936c-1.008,0.144-2.016,0.288-3.096,0.504c-5.832,0.2161-11.664,0.432-17.496,0.72
		C69.264,591.408,54.144,591.408,39.024,591.408L39.024,591.408z M114.84,568.584c-3.888-0.072-7.776-0.144-11.736-0.2159
		c-1.944-1.08-1.944-1.08-2.664-1.944c-4.824-0.2161-20.16,0-21.6-0.2161c-3.6,0-7.2,0-10.8,0c-0.504-0.504-0.504-0.504-0.648-1.296
		c0.216-0.2159,0.432-0.4319,0.648-0.6479c5.04-0.504,5.04-0.504,8.856-0.504c3.888,0.504,3.888,0.504,12.24,0.72
		c7.92-0.432,7.92-0.432,11.52-0.936c1.008-1.0801,1.008-1.0801,1.44-1.9441c1.008-0.4319,1.008-0.4319,3.888-0.9359
		c4.32,0.2159,4.32,0.2159,14.616,0c0.648,0.288,1.296,0.5759,1.944,0.9359c0.216,0.2881,0.432,0.6481,0.72,1.0081
		c0.72,0.216,18.432,0.432,30.456,1.152c8.856-0.432,8.856-0.432,12.96-0.936c6.984,0,6.984,0,20.88-0.72
		c7.416-0.72,7.416-0.72,31.896-1.944c21.168-0.72,21.168-0.72,27.36-1.152c1.224-0.504,2.88-1.944,4.104-2.448
		c5.04-0.432,5.04-0.432,16.056-0.72c0.288,0.144,0.648,0.288,1.008,0.504c0.36,0.576,0.72,1.152,1.152,1.8
		c4.3199,0.144,4.3199,0.144,21.6-0.36c1.872-0.288,3.816-0.576,5.76-0.936c11.304-0.72,14.688-1.224,35.9999-2.664
		c20.6641-1.944,35.784-2.88,44.6401-3.816c1.008,0,2.088,0.072,3.168,0.144c0,0.36-0.072,0.72-0.144,1.152
		c-0.36,0.288-0.72,0.5759-1.08,0.864c-5.976,0.576-11.952,1.224-18,1.872c-7.704,0.432-15.48,0.936-23.256,1.44
		c-8.928,1.008-16.56,1.44-20.88,1.944c-6.264,0.2159-10.584,0.72-12.96,0.72c-10.08,0.936-10.08,0.936-12.528,1.44
		c-6.48,0.288-12.96,0.576-19.44,0.936c-0.936,0.2161-1.872,0.432-2.8799,0.648c-0.4321,0.576-0.936,1.152-1.44,1.8
		c-2.16,0-4.32,0-6.48,0c-6.696,0.72-6.696,0.72-10.08,0.72c-0.792-0.288-1.584-0.648-2.376-1.008
		c-0.36-0.36-0.792-0.72-1.224-1.152c-11.016,0.4319-11.016,0.4319-15.552,0.2159c-4.824,0.504-4.824,0.504-27.36,1.4401
		c-0.936,0.1439-1.872,0.288-2.88,0.504c-5.04,0-13.248,0.72-28.368,1.44c-2.304,0-4.608,0-6.912,0
		c-2.304,0.216-4.608,0.432-6.984,0.72c-3.312,0-6.696,0-10.08,0c-3.024-0.216-6.048-0.432-9.144-0.72
		c-5.04,0.216-5.04,0.216-17.712,0c-0.36,0.432-0.792,0.936-1.224,1.4399c-0.792,0.432-1.584,0.936-2.376,1.4401
		C117.576,568.44,116.208,568.512,114.84,568.584L114.84,568.584z M45.936,564.192c0.072-3.0959,0.216-6.192,0.36-9.36
		c0.288-2.376,0.576-4.752,0.864-7.128c7.416-0.7921,14.832-1.584,22.32-2.376c5.688-0.144,11.376-0.288,17.064-0.504
		c2.232-0.288,4.464-0.576,6.696-0.936c1.296,0,2.592,0.072,3.96,0.144c0.072,1.152,0.144,2.376,0.216,3.6
		c-0.216,0.648-0.504,1.296-0.792,2.016c-5.76,0.432-11.808,0.432-21.6,0.936c-2.016,0.6479-4.032,1.296-6.048,1.944
		c-3.744,1.584-7.488,3.168-11.232,4.752c-2.88,1.944-9.648,5.76-10.8,6.768C46.656,564.048,46.296,564.12,45.936,564.192
		L45.936,564.192z M99.216,549.864c0-1.8-0.072-3.6-0.144-5.4c0.144-0.288,0.288-0.576,0.432-0.864
		c1.656-0.1439,3.312-0.288,5.04-0.4319c1.152-0.504,1.152-0.504,4.032-1.008c3.816-0.288,7.632-0.576,11.52-0.936
		c1.728-0.504,1.728-0.504,5.328-0.936c1.656,0.072,3.312,0.144,5.04,0.216c1.728,3.96,1.728,3.96,3.312,6.408
		c0.288,0,0.648,0,1.008,0.072c0-0.432,0-0.864,0.072-1.296c-1.44-2.6639-1.44-2.6639-1.944-4.3199c0-0.36,0-0.792-0.072-1.224
		c3.888-0.216,7.776-0.432,11.736-0.72c0.144,2.664-0.144,3.888-0.144,8.424c-1.296,0.36-12.528,0.792-18.576,1.296
		C117,549.36,108.144,549.576,99.216,549.864L99.216,549.864z M44.064,549.504c-1.872-12.672-1.872-12.672-2.088-15.552
		c0.072-2.088,0.216-4.248,0.36-6.408c15.84-0.216,21.6,0,27.36-0.216c1.368-0.144,2.736-0.288,4.104-0.504
		c15.12-0.216,17.28,0,23.976-0.216c0.072,0.72,0.216,1.512,0.36,2.304c-0.072,2.376-0.144,4.752-0.216,7.2
		c-0.72,5.256-0.72,5.256-1.08,5.616c-1.512,0.144-3.024,0.288-4.536,0.432c-1.44,0.288-2.88,0.6479-4.32,1.008
		C70.2,543.6,70.2,543.6,69.48,543.888c-10.8,0.936-10.8,0.936-13.68,1.44c-3.528,0.144-7.056,0.288-10.584,0.432
		C44.856,546.192,44.352,549.288,44.064,549.504L44.064,549.504z M146.736,547.704c-0.144-1.08-0.36-2.16-0.576-3.2401
		c0.144-1.656,0.288-3.312,0.432-5.04c0.144-0.072,0.288-0.216,0.432-0.36c7.632-0.504,7.632-0.504,12.96-0.504
		c0.288-0.2161,0.576-0.432,0.936-0.72c0.36,0,0.792,0,1.224,0c0.432,0.864,0.432,0.864,0.792,4.464
		c0.288,0.36,0.576,0.72,0.864,1.08c1.44,0.2159,9.144-0.504,19.224-0.72c0.216-0.432,0.504-0.864,0.792-1.296
		c0.072-1.8,0.144-3.672,0.216-5.544c-0.144-0.432-0.36-0.936-0.576-1.44c-0.288-0.072-0.576-0.216-0.936-0.36
		c-5.544,0.072-11.16,0.144-16.776,0.2159c-6.48,1.4401-6.48,1.4401-6.768,1.728c-8.856,0.72-8.856,0.72-11.952,0.576
		c0.072-1.8,0.144-3.672,0.216-5.544c0.216-0.072,0.432-0.2159,0.72-0.36c11.016-0.216,12.24,0,61.704-1.296
		c-0.432,5.328-0.864,10.728-1.368,16.1281c-0.576,0.2159-1.152,0.504-1.8,0.792c-3.6-0.072-7.2-0.144-10.8-0.216
		c-8.352,0.432-8.352,0.432-10.512,0.216c-13.68,0-14.184,0.216-19.44,0.216C153.504,547.488,153.504,547.488,146.736,547.704
		L146.736,547.704z M211.32,545.76c-0.072-0.072-0.216-0.144-0.36-0.288c0-0.576,0-1.152,0.072-1.728
		c1.368-0.288,2.736-0.576,4.104-0.864c5.7599-0.432,5.7599-0.432,9.36-0.432c0.072,0.144,0.216,0.36,0.36,0.576
		c0,0.72,0,1.512-0.072,2.304c-1.08,0.144-2.232,0.288-3.384,0.432C218.088,545.76,214.704,545.76,211.32,545.76L211.32,545.76z
		 M227.664,545.328c-0.072-0.864-0.144-1.8-0.288-2.736c1.656,0.144,3.312,0.36,5.04,0.576c0.144-0.072,0.36-0.216,0.576-0.36
		c0.504-3.384,0.504-3.384,0.72-9.5759c-0.432-1.224-0.432-1.224-0.792-1.584c-1.728,0-3.528-0.072-5.328-0.144
		c-0.36-0.936-0.36-0.936-0.36-2.376c0.648-0.36,0.648-0.36,5.688-0.648c1.944,0.144,3.96,0.288,5.976,0.4319
		c0,0.72,0.0721,1.4401,0.144,2.16c-0.432,0.288-0.864,0.576-1.368,0.936c-0.36,0.504-0.72,1.08-1.08,1.6559
		c-0.072,0.72-0.144,1.44-0.216,2.16c0.504,2.664,0.504,5.04,0.936,6.48c0.288,0.216,0.648,0.432,1.008,0.72
		c0,1.0079,0,1.0079-0.288,1.728C237.456,545.04,237.456,545.04,227.664,545.328L227.664,545.328z M250.416,544.824
		c-3.2401-0.072-6.552-0.216-9.864-0.36c0-0.432,0-0.936,0.072-1.4399c8.64-0.648,17.28-1.296,25.92-2.016
		c16.272,0,16.272,0,20.592-0.288c0.072,0.144,0.216,0.288,0.36,0.432c-0.216,1.6559-0.216,1.6559-0.576,2.016
		c-3.384,0.216-9.36,0-14.184,0.4319c-0.936,0.288-0.936,0.288-6.192,0.72C261.216,544.464,255.816,544.608,250.416,544.824
		L250.416,544.824z M200.016,543.168c-0.504-0.504-1.008-1.008-1.584-1.584C198,537.552,198,537.552,198,533.952
		c0.432-0.72,0.432-0.72,1.08-1.152c3.384-0.432,3.384-0.432,7.2-0.432c0.144,0.144,0.288,0.288,0.504,0.432
		c0.144,1.656,0.36,3.312,0.576,4.968c-0.288,1.152-0.648,2.376-1.008,3.6c-0.648,0.432-1.296,0.864-2.0161,1.296
		C201.456,543.168,201.456,543.168,200.016,543.168L200.016,543.168z M191.16,542.88c-0.648-0.144-1.296-0.288-1.944-0.432
		c-1.152-1.008-1.152-1.008-1.656-1.8c-0.36-2.664-0.36-2.664-0.36-5.544c0.936-1.656,0.936-1.656,1.512-2.16
		c1.728,0,3.528-0.072,5.328-0.144c1.224,1.08,1.224,1.08,1.512,1.8719c0,3.6,0,3.6-0.432,6.192
		c-0.144,0.36-0.288,0.792-0.504,1.224c-0.4319,0.216-0.864,0.504-1.296,0.792C192.6,542.88,191.88,542.88,191.16,542.88
		L191.16,542.88z M289.8,542.88c0-0.504-0.072-1.008-0.144-1.512c0.936-5.76,0.936-5.76,0.936-7.704
		c-0.216-0.144-0.504-0.288-0.7921-0.4319c-0.072-0.36-0.144-0.7921-0.216-1.224c1.296-0.432,2.6641-0.864,4.032-1.368
		c2.16,0,2.16,0,8.4241,0.72c1.656,0.504,34.776,4.3201,35.496,4.608c2.16,0,2.16,0,10.08,1.152
		c1.728,0.432,3.5281,0.936,5.3281,1.4401c-0.144,0.144-0.288,0.288-0.504,0.504c-2.088,0.36-4.176,0.792-6.264,1.224
		c-3.672,0.072-7.344,0.144-11.016,0.216c-2.304,0.216-4.608,0.432-6.984,0.72c-12.672,0.216-12.672,0.216-24.48,0.936
		c-0.864,0.144-1.728,0.288-2.592,0.504C297.36,542.736,293.616,542.808,289.8,542.88L289.8,542.88z M99.216,541.44
		c-0.144-2.448,0.36-5.832,0.576-14.256c0.144-0.072,0.288-0.216,0.432-0.36c1.944-0.144,3.96-0.288,5.976-0.504
		c4.968-0.072,9.936-0.144,14.904-0.216c0.576,0.792,1.224,1.584,1.872,2.376c0.864,1.728,1.8,3.456,2.736,5.184
		c1.944,2.664,1.944,2.664,2.664,4.32c-0.072,0.072-0.216,0.216-0.36,0.36c-4.536,0.2161-17.28,1.944-21.312,2.16
		c-1.44,0.288-2.88,0.576-4.32,0.936C101.376,541.44,100.296,541.44,99.216,541.44L99.216,541.44z M356.76,538.5601
		c-0.288-0.576-0.576-1.152-0.864-1.728c-0.504-0.288-1.008-0.648-1.584-1.008c-4.536-0.864-20.808-2.736-21.528-3.024
		c-26.928-3.312-38.16-5.04-41.544-5.256c-0.36-0.144-0.792-0.288-1.2239-0.504c-0.072-0.216-0.2161-0.504-0.36-0.792
		c0-3.816,0-3.816,0.36-4.6801c6.5519-0.432,13.1039-0.936,19.728-1.4399c12.96-1.584,25.92-3.168,38.88-4.824
		c19.44-1.44,19.44-1.44,26.64-1.584c-1.944,3.024-3.888,5.184-7.704,10.584c-0.576,1.296-1.152,2.592-1.8,3.888
		c-0.648,0.864-1.296,1.728-1.944,2.592c-0.864,1.728-1.728,3.528-2.6641,5.3279c-0.4319,2.16-0.4319,2.16-0.7919,2.4481
		C359.208,538.5601,357.984,538.5601,356.76,538.5601L356.76,538.5601z M134.28,538.344c-1.08-0.144-2.232-0.288-3.384-0.504
		c-3.816-5.112-4.32-6.12-4.824-6.552c-1.08-2.664-1.08-2.664-2.016-3.816c-0.072-0.36-0.144-0.792-0.216-1.224
		c6.552-0.216,13.176-0.432,19.8-0.648c0.36,0.144,0.72,0.288,1.152,0.432c0.36,8.352,0.36,8.352,0.144,10.8
		C144.36,537.12,144.36,537.12,134.28,538.344L134.28,538.344z M363.456,538.488c0.36-1.656,0.36-1.656,0.36-3.096
		c1.872-3.744,3.816-7.488,5.76-11.304c2.52-3.168,5.112-6.336,7.7039-9.576c0.576-0.432,1.152-0.864,1.8-1.368
		c4.104-0.072,8.28-0.144,12.456-0.216c3.024,0.072,6.048,0.216,9.144,0.36c0.576,1.44,1.152,2.88,1.8,4.32c0,0.504,0,1.08,0,1.656
		c-2.88,4.392-5.76,8.784-8.64,13.248c-1.944,2.16-1.944,2.16-3.384,4.32c-1.296,0.288-1.296,0.288-15.696,1.296
		C371.0161,538.2,367.272,538.344,363.456,538.488L363.456,538.488z M402.12,537.768c1.944-0.648,1.944-0.648,4.536-1.08
		c1.656,0,3.312,0,5.04,0.072c-0.072,0.072-0.1439,0.216-0.2159,0.36c-1.8,0.216-3.672,0.432-5.5441,0.72
		C404.712,537.84,403.416,537.84,402.12,537.768L402.12,537.768z M414.576,537.264c0.072-0.432,0.144-0.864,0.2881-1.296
		c3.0959-0.288,3.0959-0.288,3.6,0c-0.576,0.288-1.152,0.576-1.728,0.936C416.0161,536.976,415.296,537.12,414.576,537.264
		L414.576,537.264z M393.696,536.544c0.072-0.36,0.216-0.72,0.36-1.152c1.08-1.44,2.232-2.88,3.384-4.32
		c1.872-3.096,3.816-6.192,5.76-9.36c0.36,0,0.72,0,1.08-0.072c1.8,4.824,1.8,4.824,2.7361,8.424c0,1.368,0,2.736,0,4.104
		C406.44,534.528,406.44,534.528,393.696,536.544L393.696,536.544z M218.304,532.584c-0.216-0.144-0.432-0.288-0.72-0.504
		c-1.8,0-3.672,0-5.544,0c0-0.864-0.072-1.8-0.144-2.736c0.648-0.36,0.648-0.36,2.304-0.576c7.2,0,7.2,0,10.8,0.36
		c0.072,1.4399,0.072,1.4399-0.36,2.88c-0.72,0.144-1.512,0.36-2.304,0.5759C221.04,532.584,219.672,532.584,218.304,532.584
		L218.304,532.584z M251.136,531.36c-3.168-0.072-6.336-0.144-9.576-0.2159c-0.072-0.072-0.216-0.216-0.36-0.36
		c0-0.72,0.072-1.512,0.144-2.304c4.752-0.288,9.576-0.576,14.4-0.936c1.512,0.072,3.024,0.144,4.536,0.216
		c3.312-0.216,6.696-0.432,10.08-0.72c4.536,1.008,5.5441,1.44,7.2,1.584c-0.072,0.288-0.144,0.576-0.216,0.864
		c-1.728,0.216-3.528,0.432-5.328,0.72C265.104,530.568,258.12,530.928,251.136,531.36L251.136,531.36z M161.424,528.48
		c-4.464-0.072-8.928-0.144-13.464-0.216c-0.288-0.072-0.576-0.216-0.864-0.36c0-1.656,0-1.656,0.36-2.0161
		c7.2,0,8.928-0.288,19.728-0.288c4.896-0.216,9.864-0.432,14.832-0.72c0.648,0.144,1.296,0.288,1.944,0.504
		c1.008,0,2.016,0,3.096,0c1.944-0.504,1.944-0.504,11.52-1.224c2.592-0.072,5.256-0.144,7.92-0.216
		c1.08,0.072,2.232,0.216,3.384,0.36c-0.072,0.864-0.216,1.728-0.36,2.664C207.504,527.328,169.344,528.48,161.424,528.48
		L161.424,528.48z M221.4,526.824c-3.096-0.216-3.096-0.216-9.576-0.072c0.072-0.792,0.144-1.584,0.216-2.448
		c12.24-0.864,12.24-0.864,13.032-0.72c0,1.0081,0,2.0161-0.072,3.024C223.848,526.6801,222.624,526.752,221.4,526.824
		L221.4,526.824z M227.664,526.32c-0.144-1.512-0.144-1.512,0.216-3.096c3.744-0.144,7.488-0.36,11.304-0.576
		c0,0.864-0.0721,1.728-0.144,2.664C238.68,525.6,238.68,525.6,227.664,526.32L227.664,526.32z M285.264,526.32
		c-1.44-0.432-6.048-0.936-10.08-1.872c-2.376-0.144-4.824-0.36-7.272-0.576c0.072-0.864,0.216-1.728,0.3599-2.664
		c0.216-0.072,0.432-0.216,0.6481-0.36c3.816,0.216,7.632,0.432,11.52,0.72c1.224-0.144,2.52-0.288,3.816-0.504
		c1.08,0.216,2.2319,0.432,3.384,0.648c0.072,3.312,0.072,3.312-0.216,4.608C286.704,526.32,285.984,526.32,285.264,526.32
		L285.264,526.32z M242.064,525.384c-0.288-0.144-0.576-0.36-0.864-0.576c0-0.792,0.072-1.584,0.144-2.376
		c1.872-0.432,1.872-0.432,15.552-1.368c0.072,0.072,0.216,0.216,0.36,0.36c0,0.576,0,1.152-0.072,1.8
		c-4.32,0.936-4.32,0.936-5.544,1.44C248.472,524.88,245.304,525.096,242.064,525.384L242.064,525.384z M123.48,523.944
		c-0.648-0.072-1.296-0.144-1.944-0.216c-0.936-1.224-0.936-1.224-1.8-3.24c-1.44-1.44-2.88-2.88-4.32-4.32
		c-1.944-2.376-3.96-4.752-5.976-7.2c-1.944-3.6-2.88-4.824-3.888-6.984c-0.576-0.792-1.224-1.584-1.872-2.376
		c-1.44-1.224-2.88-2.52-4.32-3.816c-1.008-1.44-3.168-3.384-5.04-6.048c-0.432-0.36-0.936-0.72-1.44-1.152
		c-0.504-1.008-0.504-1.008-4.104-4.608c-0.072-0.36-0.144-0.72-0.216-1.152c2.88-5.76,2.88-5.76,3.96-8.712
		c14.616-0.576,24.984-0.576,33.12-1.08c5.04-0.144,10.08-0.288,15.12-0.432c4.464,0.072,8.928,0.144,13.464,0.216
		c3.312,0.504,20.16,1.944,20.592,2.16c14.904,0.936,14.904,0.936,29.52,2.376c0.72,0.288,1.44,0.648,2.16,1.008
		c11.088,9.936,11.088,9.936,12.024,11.016c2.376,1.512,4.752,3.024,7.2,4.536c0.072,0.216,0.216,0.432,0.36,0.648
		c0.072,2.232,0.144,4.464,0.216,6.696c-0.144,1.296-0.288,2.592-0.504,3.888c-0.792,0.792-1.584,1.584-2.376,2.376
		c-1.8,1.224-3.672,2.52-5.544,3.816c-3.024,2.592-6.12,5.256-9.216,7.92c-4.32,2.736-4.32,2.736-5.256,3.024
		c-11.016,0.432-19.656,1.152-20.664,0.936c-9.72,0.216-19.44,0.432-29.232,0.72C143.424,523.728,143.424,523.728,123.48,523.944
		L123.48,523.944z M212.544,522c-0.288-0.144-0.648-0.288-1.008-0.432c-0.792,0-1.584,0.072-2.376,0.144c0-0.216,0-0.432,0.072-0.72
		c2.4481-1.944,6.264-5.7599,9.864-8.64c4.464-2.88,4.464-2.88,5.904-4.248c0.216,0,0.432,0,0.72-0.072c0,1.728,0,3.456,0.072,5.256
		c-0.216,2.592-0.504,5.184-0.792,7.776c-0.432,0.144-0.936,0.288-1.44,0.504C219.888,521.712,216.216,521.856,212.544,522
		L212.544,522z M227.664,521.064c-0.144-3.672,0.288-9,0.288-14.256c0.144-0.504,0.288-1.08,0.504-1.656
		c1.44-1.44,2.9521-2.952,4.464-4.464c0.36,0,0.792,0,1.224,0c1.656,1.224,3.312,2.52,5.04,3.816
		c0.144,0.504,0.36,1.008,0.576,1.584c0,4.392,0,8.784,0,13.176c-0.216,0.288-0.432,0.6479-0.648,1.008
		c-1.368,0.216-2.808,0.504-4.248,0.792C232.488,521.064,230.112,521.064,227.664,521.064L227.664,521.064z M241.776,519.984
		c0-4.104,0-8.28,0-12.456c0.288,0,0.648,0,1.008,0.072c5.472,4.104,7.2,5.04,8.136,6.048c1.872,1.08,3.816,2.16,5.76,3.312
		c0.216,0.36,0.432,0.72,0.72,1.08c-0.1439,0.216-0.288,0.432-0.504,0.6479C248.544,519.624,248.544,519.624,241.776,519.984
		L241.776,519.984z M279,519.408c-2.952-0.216-5.904-0.432-8.856-0.72c-0.504-0.864-0.504-0.864-1.2239-1.4399
		c-0.36,0-0.792-0.072-1.224-0.144c-0.072-1.224-0.216-2.52-0.36-3.816c-0.216-34.344-0.216-34.344,0-41.544
		c-0.504-25.632-0.936-33.84-0.936-39.096c-0.288-1.44-0.288-1.44-0.288-5.976c-0.288-1.728-0.576-3.528-0.936-5.328
		c0-5.76,0-5.76-1.2239-24.912c0-14.184,0-14.184,0.288-17.568c-0.288-6.912-0.6479-13.896-1.008-20.88
		c-0.216-11.16-0.432-22.32-0.72-33.552c-0.216-3.168-0.432-6.408-0.72-9.648c-0.4321-57.6-0.72-59.976-0.72-66.96
		c-0.144-1.8-0.288-3.6-0.432-5.472c0-5.328,0-10.728,0-16.128c-0.144-2.016-0.288-4.104-0.504-6.192
		c-0.936-59.544-0.936-59.544-1.224-61.2c-0.144-6.12-0.288-12.312-0.432-18.504c0.072-8.136,0.144-16.272,0.216-24.48
		c-0.144-0.432-0.288-0.936-0.504-1.44c0.288-2.16,0.288-2.16-0.072-39.096c0.216,0.072,0.504,0.144,0.7921,0.2159
		c3.8879,9.5761,4.824,11.3041,5.7599,14.4001c1.008,2.1599,3.384,9.576,3.888,10.296c1.872,6.4799,1.872,6.4799,6.696,20.664
		c0.432,2.376,0.936,4.752,1.44,7.2c4.824,15.12,4.824,15.12,5.256,17.28c0.288,0.6479,0.648,1.296,1.008,1.944
		c2.88,10.296,2.88,10.296,3.816,14.616c0.36,0.864,0.792,1.7279,1.224,2.6639c0.144,0.8641,0.288,1.728,0.432,2.592
		c0.288,0.648,0.648,1.296,1.008,1.944c0.576,2.304,1.224,4.608,1.872,6.984c7.2,19.656,8.208,21.5999,13.968,37.1519
		c0.4319,0.936,0.936,1.872,1.44,2.88c1.224,4.32,2.52,8.64,3.816,12.96c0.288,1.512,0.576,3.024,0.936,4.608
		c3.168,9,6.408,18,9.6479,27.072c3.816,12.744,3.816,12.744,13.392,42.48c1.944,4.824,3.8879,11.304,5.3279,14.688
		c1.2241,4.176,2.5201,8.424,3.816,12.672c1.944,4.824,7.2,21.168,7.704,21.888c1.8719,7.416,3.816,13.392,5.7599,21.096
		c0.864,2.664,1.728,5.4,2.592,8.136c0.72,0.72,0.72,0.72,1.728,2.88c0.936,2.88,4.752,18.504,6.912,26.208
		c0.504,0.72,0.72,1.656,1.008,1.872c0.432,2.16,0.936,2.88,8.64,26.208c0.432,1.872,0.936,2.592,1.872,6.912
		c0.648,2.16,1.296,4.32,1.944,6.48c1.944,4.32,2.376,6.048,4.32,11.088c0.936,3.312,1.944,5.472,4.3199,12.456
		c0.216,1.44,0.72,2.16,1.656,4.824c0.288,0.216,4.104,13.896,5.04,16.272c0,0.288,0,0.576-0.072,0.864
		c-1.152,0.144-2.376,0.288-3.6,0.432c-2.16,1.296-4.32,2.592-6.48,3.888c-0.288,0.36-0.576,0.72-0.936,1.08
		c-1.08,2.232-2.16,4.464-3.312,6.696c-6.552,0.864-6.552,0.864-25.056,2.304c-15.9841,1.872-31.968,3.816-47.952,5.76
		c-7.3441,0.432-14.688,0.936-22.104,1.44C284.76,519.408,281.88,519.408,279,519.408L279,519.408z M256.896,514.584
		c-1.656-1.368-3.312-2.736-5.04-4.176c-1.872-1.296-3.816-2.592-5.76-3.96c-1.296-1.152-2.664-2.304-4.032-3.528
		c0.288-7.128,0.576-7.848,1.008-16.272c0.288-1.368,0.576-2.808,0.864-4.248c7.704,0.72,7.704,0.72,13.6799,1.728
		c0.0721,1.008,0.216,2.016,0.36,3.024c-0.144,3.456-0.288,6.984-0.504,10.512c0,5.616,0,11.232,0,16.848
		C257.112,514.728,257.112,514.728,256.896,514.584L256.896,514.584z M387,510.264c-0.432,0-0.936,0-1.44-0.072
		c0-0.432,0-0.936,0.072-1.44c1.008-1.584,2.016-3.168,3.024-4.824c1.368-0.936,2.736-1.872,4.104-2.88
		c0.792-0.36,1.584-0.72,2.376-1.08c0.72,0.072,1.44,0.144,2.16,0.216c0.36,0.36,0.72,0.72,1.08,1.08
		c0.648,2.232,1.296,4.464,1.944,6.768c-0.072,0.576-0.144,1.224-0.288,1.872c-0.432,0.072-0.864,0.216-1.296,0.36
		C394.848,510.264,390.96,510.264,387,510.264L387,510.264z M228.384,502.704c0.072-1.944,0.144-3.96,0.216-5.976
		c0.432,0.072,0.936,0.216,1.44,0.36c0.432,0.432,0.936,0.936,1.44,1.44c0,0.288,0,0.576,0.072,0.864
		c-0.576,0.864-1.224,1.728-1.8719,2.592C229.248,502.2,228.816,502.416,228.384,502.704L228.384,502.704z M238.896,500.688
		c-1.1519-0.936-2.376-1.872-3.6-2.88c-1.296-0.648-2.664-1.296-4.032-1.944c-1.008-0.72-2.016-1.44-3.024-2.232
		c-0.288-1.44-0.288-1.44-0.504-6.48c0-2.376,0.072-4.752,0.144-7.2c1.224-0.144,1.224-0.144,4.104,0.288
		c0.36,0.144,0.72,0.288,1.152,0.504c2.88,0.36,5.7599,0.72,8.64,1.08c0,0.648,0.072,1.296,0.144,1.944
		c-0.144,0.432-0.288,0.936-0.504,1.44c-0.504,7.2-0.504,7.2-1.44,15.336C239.616,500.544,239.256,500.616,238.896,500.688
		L238.896,500.688z M225.216,491.328c-2.592-1.944-2.592-1.944-4.536-3.888c-1.0081-0.576-2.016-1.224-3.096-1.872
		c-2.376-2.16-4.752-4.32-7.2-6.48c-0.072-0.288-0.144-0.576-0.288-0.864c1.008,0,2.088-0.072,3.168-0.144
		c11.016,1.44,11.016,1.44,12.096,1.872c0.432,9.072,0.432,9.072,0.216,11.232C225.504,491.184,225.36,491.256,225.216,491.328
		L225.216,491.328z M254.736,475.488c-9.072-1.008-9.072-1.008-9.936-1.296c0.216-13.68,0.72-20.16,1.152-32.4
		c0.144-0.936,0.288-1.872,0.504-2.88c0-2.016,0-4.032,0-6.048c0.2881-2.304,0.576-4.608,0.864-6.912c0.216,0,0.432,0,0.72,0
		c0.072,1.872,1.08,6.48,2.016,12.672c0.648,2.16,1.2961,4.32,1.944,6.48c0.576,2.88,1.224,5.76,1.872,8.64
		c1.08,3.6,2.232,7.2,3.384,10.8c0.1439,1.296,0.288,2.592,0.504,3.888c-0.288,6.192-0.288,6.192-0.576,7.056
		C256.392,475.488,255.6,475.488,254.736,475.488L254.736,475.488z M239.4,474.048c-3.744-0.288-7.4879-0.576-11.304-0.864
		c-0.144-2.232-0.36-4.464-0.576-6.696c-0.288-16.344-0.288-16.344,0-17.064c0.144-8.28,0.288-16.56,0.432-24.912
		c0.216-4.392,0.432-8.784,0.72-13.248c0-4.608,0.0721-9.216,0.144-13.896c2.16,0,4.32-0.072,6.48-0.144
		c2.52,0.288,5.112,0.576,7.704,0.936c0.36,0.432,0.36,0.432,3.24,15.264c0,4.608-0.288,5.544-0.288,9.36
		c-0.288,2.016-0.576,4.032-0.936,6.048c-1.44,24.912-1.44,24.912-2.88,44.136c-0.144,0.288-0.288,0.576-0.504,0.936
		C240.912,473.904,240.192,473.976,239.4,474.048L239.4,474.048z M222.624,472.824c-38.448-3.384-38.448-3.384-45.864-3.816
		c-1.656,0-3.312,0-5.04,0c-11.016-1.008-11.016-1.008-17.064-1.944c-13.392-0.936-22.536-1.944-28.512-2.16
		c-3.6-0.504-12.528-0.936-13.68-1.224c-3.888-0.288-7.848-0.576-11.808-0.936C83.88,462.24,83.88,462.24,81,461.952
		c0-0.288-0.072-0.648-0.144-1.008c3.816-16.776,4.824-22.32,5.76-25.2c3.096-14.616,3.096-14.616,3.6-15.552
		c1.944-7.92,6.696-30.9601,7.704-34.128c1.584-0.072,3.24-0.216,4.896-0.36c5.904,0.504,11.808,1.08,17.784,1.656
		c1.944,0.288,3.96,0.648,5.976,1.008c6.984,0.432,6.984,0.432,14.184,1.44c20.952,1.584,41.904,3.168,62.856,4.752
		c5.04,0.72,11.304,1.008,21.6,2.448c0.36,0.072,0.72,0.216,1.08,0.36c0.072,3.816,0.144,7.632,0.216,11.52
		c-0.432,10.8-0.72,11.736-0.72,14.904c-0.144,1.512-0.288,3.024-0.432,4.536c0,18-0.288,23.544,0,27.144
		c-0.072,0.288-0.144,0.576-0.288,0.936c0.216,5.256,0.432,10.512,0.72,15.84c-0.072,0.144-0.144,0.36-0.288,0.576
		C224.568,472.824,223.632,472.824,222.624,472.824L222.624,472.824z M94.176,471.888c-2.16-1.008-2.16-1.008-3.744-2.304
		c0-0.216,0-0.432-0.072-0.72c3.096-0.144,10.296,0.36,23.256,0.576c3.096,0.432,6.192,0.864,9.36,1.368
		c-0.072,0.072-0.144,0.216-0.216,0.36c-1.872,0.144-3.816,0.288-5.76,0.432C97.776,471.6,97.776,471.6,94.176,471.888
		L94.176,471.888z M256.896,456.048c-1.8-6.336-2.736-11.16-4.68-17.856c-1.08-5.976-2.232-11.952-3.384-18
		c-0.144-1.8-0.288-3.672-0.432-5.544c0.36-5.112,0.72-10.224,1.152-15.336c0.144-0.288,0.288-0.576,0.432-0.864
		c3.312,0.216,3.312,0.216,5.472,0.72c0.36,2.016,0.5761,10.44,0.864,12.096c0.72,16.848,0.72,16.848,1.152,44.424
		C257.328,455.76,257.112,455.904,256.896,456.048L256.896,456.048z M246.6,403.848c-0.864-3.816-0.864-3.816-0.936-5.544
		c0.576,0.072,1.152,0.144,1.728,0.288c-0.072,1.656-0.144,3.312-0.216,5.04C247.032,403.704,246.816,403.776,246.6,403.848
		L246.6,403.848z M253.8,396.288c-1.08-0.144-2.232-0.288-3.384-0.504c0-1.8-0.072-3.6-0.144-5.4c0.72-7.416,0.72-7.416,0.72-11.736
		c1.008-7.2,1.44-14.4,2.448-22.536c0.072-0.144,0.216-0.288,0.36-0.504c0.072,5.544,0.576,12.744,1.08,26.856
		c0.216,0.72,0,10.8,0.216,12.96c-0.072,0.216-0.144,0.432-0.216,0.72C254.52,396.144,254.16,396.216,253.8,396.288L253.8,396.288z
		 M244.944,395.784c-0.144-0.072-0.288-0.216-0.432-0.36c-1.656-8.136-2.016-8.856-4.032-20.376
		c-1.008-4.536-2.088-9.072-3.168-13.68c0-2.664,0-2.664-0.936-10.296c-0.288-1.008-0.576-2.088-0.936-3.168
		c-0.864-6.48-1.728-12.96-2.664-19.44c-0.504-6.912-0.504-6.912-0.36-8.7841c4.32,0,4.32,0,12.96,0.72
		c5.544,1.0081,5.544,1.0081,8.496,1.872c-0.072,6.768-0.144,13.536-0.216,20.376c-0.504,1.656-0.936,5.976-1.944,10.584
		c-0.792,8.136-1.584,16.272-2.376,24.48c-0.288,5.472-0.576,11.016-0.936,16.56c-0.144,0.432-0.288,0.936-0.504,1.44
		C246.96,395.712,245.952,395.712,244.944,395.784L244.944,395.784z M238.896,395.568c-3.6-0.504-3.6-0.504-9.576-0.72
		c-0.072-0.144-0.216-0.36-0.36-0.576c0-11.304-0.288-11.808-0.504-24.264c0.0721-2.448,0.144-4.896,0.216-7.416
		c-0.144-1.08-0.288-2.232-0.432-3.384c0.216-20.664,0.216-20.664,0.864-39.384c0.216,0.072,0.504,0.144,0.792,0.288
		c2.88,23.256,2.88,23.256,3.816,28.8c0.288,1.152,0.648,2.376,1.008,3.6c0.792,5.832,1.584,11.664,2.376,17.496
		c0.144,0.288,0.288,0.576,0.504,0.936c1.584,8.064,3.168,16.128,4.752,24.264c-0.144,0.072-0.36,0.216-0.576,0.36
		C240.84,395.568,239.904,395.568,238.896,395.568L238.896,395.568z M221.4,394.56c-3.816-0.432-4.32-0.72-14.616-1.44
		c-2.376-0.288-4.752-0.576-7.2-0.936c-30.744-1.944-30.744-1.944-53.28-3.816c-27.648-3.168-33.624-3.6-38.664-4.32
		c-2.88-0.216-5.76-0.432-8.64-0.72c-0.072-0.36-0.216-0.72-0.36-1.08c0.216-1.5121,0.432-3.024,0.72-4.536
		c1.872-6.768,3.816-16.344,5.256-21.6c0.288-2.376,0.576-4.752,0.936-7.2c1.008-4.104,2.88-14.4,4.824-22.32
		c0.216-1.728,0.504-2.16,0.936-6.768c0.288-0.432,0.288-0.432,0.504-2.592c0.144-0.144,0.288-0.288,0.504-0.504
		c0.576-2.232,1.224-4.464,1.872-6.696c0.216-0.144,0.432-0.288,0.648-0.432c3.24-0.072,6.552-0.144,9.864-0.216
		c8.928,0.648,17.856,1.296,26.856,1.944c7.416,0.936,7.416,0.936,21.816,2.16c3.672,0.144,7.344,0.288,11.088,0.432
		c2.376,0.288,4.752,0.648,7.2,1.008c4.752,0.288,9.576,0.576,14.4,0.936c19.44,2.88,19.44,2.88,20.232,3.24
		c0.216,5.76,0,10.08,0.216,12.528c-0.432,4.752-0.432,4.752-0.72,23.256c0.144,2.376,0.288,4.752,0.504,7.2
		c0.216,21.384,0.216,21.384-0.072,32.472C224.64,394.56,223.056,394.56,221.4,394.56L221.4,394.56z M251.424,319.248
		c-2.016-0.2881-4.032-0.648-6.048-1.008c-4.464-0.288-8.928-0.648-13.392-1.008c-0.864-5.328-0.864-5.328-1.368-6.7679
		c0-0.576,0.0721-1.152,0.144-1.8c0.864-0.072,1.728-0.144,2.664-0.216c13.896,1.44,13.896,1.44,20.376,1.8
		c0,2.88-0.072,5.76-0.144,8.64c-0.072,0.072-0.216,0.216-0.36,0.36C252.72,319.248,252.072,319.248,251.424,319.248
		L251.424,319.248z M225.504,316.368c-8.208-1.008-8.208-1.008-13.464-1.944c-18.72-1.656-23.76-2.376-30.24-2.88
		c-2.52-0.072-5.112-0.144-7.704-0.216c-38.376-3.384-38.376-3.384-46.512-3.888c-3.816-0.072-7.632-0.144-11.52-0.216
		c-0.432-0.36-0.432-0.36-0.432-1.08c0.504-1.152,0.504-1.152,4.32-17.496c3.888-13.464,5.04-18.936,8.928-32.4
		c0.936-4.32,0.936-4.32,3.816-13.464c0.504-0.936,1.656-5.976,2.664-9.072c0.576-2.52,1.224-5.112,1.872-7.704
		c1.296-3.888,2.592-7.776,3.888-11.736c1.872-7.92,1.872-7.92,4.752-17.28c0.648-2.952,1.296-5.904,1.944-8.928
		c1.296-4.752,2.592-9.576,3.96-14.4c1.728,0,3.528-0.0721,5.328-0.144c8.784,0.36,17.568,0.792,26.352,1.224
		c7.8481,0.6479,15.696,1.296,23.544,1.944c5.184,0.576,10.368,1.224,15.624,1.872c2.16,0.432,4.32,0.864,6.552,1.368
		c0.216,4.32,0.216,4.32,0,18c-0.144,3.096-0.288,6.192-0.504,9.36c-0.072,7.704-0.144,15.48-0.216,23.256
		c-0.504,5.04-0.936,21.384-1.44,26.424c0.072,7.9919,0.144,15.9839,0.216,23.976c-0.432,24.264-0.216,28.584-0.432,33.408
		c-0.072,0.648-0.216,1.296-0.36,2.016C226.152,316.368,225.864,316.368,225.504,316.368L225.504,316.368z M246.096,307.44
		c-4.392-0.432-8.784-0.936-13.176-1.44c-0.72,0-1.44,0.072-2.16,0.144c0.072-7.632,0.072-7.632,0.36-10.8
		c0.576-2.016,1.224-4.104,1.872-6.192c2.88-13.968,2.88-13.968,3.888-17.064c1.872-7.92,1.872-7.92,2.88-13.68
		c1.872-6.48,3.312-13.6801,3.672-13.8961c0.216,0.72,0.432,1.44,0.648,2.16c0.576,5.112,1.224,10.224,1.872,15.336
		c0.936,4.32,1.872,8.64,2.88,12.9601c0.504,4.8239,2.448,14.904,3.384,21.6c0.072,1.08,0.144,2.232,0.216,3.384
		c0.288,1.44,0.648,2.88,1.008,4.32c0,1.008-0.072,2.088-0.144,3.168C250.92,307.44,248.544,307.44,246.096,307.44L246.096,307.44z
		 M229.536,292.248c-0.144-4.104,0.144-10.584-0.144-16.344c0-6.984,0-14.04,0-21.096c0.144-1.368,0.2881-2.7361,0.504-4.104
		c0.36-13.896,0.7921-27.792,1.224-41.76c-0.072-1.224-0.144-2.52-0.288-3.816c0.288-6.408,0.576-12.816,0.864-19.224
		c0.216-0.072,0.432-0.144,0.72-0.216c0.864,5.256,0.864,5.256,2.304,11.736c0.288,0.864,0.576,1.728,0.936,2.664
		c3.816,19.44,3.816,19.44,4.824,23.0399c0.504,3.528,1.08,7.056,1.656,10.584c-0.072,1.728-0.144,3.456-0.216,5.256
		c-1.008,5.7599-1.44,9.864-2.448,13.896c-0.936,2.448-1.152,4.32-2.16,7.92c-2.592,12.744-2.592,12.744-2.88,12.96
		c-0.936,3.384-0.936,3.384-1.872,9.864c-0.288,0.72-0.648,1.44-1.008,2.16c-0.936,5.256-0.936,5.256-1.44,6.264
		C229.968,292.104,229.752,292.176,229.536,292.248L229.536,292.248z M251.856,282.384c-1.8-10.296-2.304-11.736-4.176-20.88
		c-0.288-0.432-0.288-0.432-3.384-27.072c0.648-3.744,1.296-7.488,1.944-11.304c0.576-5.0399,1.224-10.08,1.872-15.12
		c1.008-5.832,2.0161-11.664,3.024-17.496c0.216,0,0.432,0,0.72,0c0.144,12.816,0.36,25.704,0.576,38.592
		c-0.216,34.848,0,42.768-0.216,53.064C252.144,282.24,252,282.312,251.856,282.384L251.856,282.384z M243,227.232
		c-0.864-5.04-1.8-8.424-4.68-23.04c-0.144-1.296-0.288-2.592-0.504-3.888c-0.792-2.88-1.584-5.76-2.376-8.64
		c-0.576-3.672-1.152-7.344-1.728-11.0161c0.648,0,1.368-0.0719,2.088-0.1439c6.264,0.936,9.144,0.936,15.12,1.584
		c-1.8,8.856-1.8,8.856-4.68,25.7039c-1.944,15.552-1.944,15.552-2.664,19.152C243.432,227.016,243.216,227.088,243,227.232
		L243,227.232z M247.104,179.7841c-8.208-0.936-8.208-0.936-13.68-1.9441c-0.432-0.2879-0.432-0.2879-0.864-1.7279
		c-0.072-0.7921-0.144-1.5841-0.288-2.448c1.44-0.144,2.952-0.36,4.464-0.5761c10.8,0.4321,10.8,0.4321,13.968,0.2161
		c0.144,0.216,0.36,0.432,0.576,0.648c0.072,1.656,0.144,3.312,0.216,5.04c-0.072,0.2159-0.216,0.504-0.36,0.792
		C249.84,179.7841,248.472,179.7841,247.104,179.7841L247.104,179.7841z M227.376,176.904c-19.44-2.376-19.44-2.376-22.032-2.88
		c-18.288-1.44-18.288-1.44-51.408-3.2399c0-0.36-0.072-0.72-0.144-1.152c1.944-5.76,5.76-14.688,7.704-19.944
		c0.504-0.7201,12.456-30.024,12.96-30.456c0.936-2.16,0.936-2.16,1.44-4.32c1.944-3.3841,1.944-3.3841,5.76-11.5201
		c3.168-5.688,6.336-11.376,9.576-17.064c3.888-5.7599,7.704-12.024,8.64-13.176c1.008-1.944,2.88-4.1039,4.824-7.4879
		c0.648-0.5761,1.296-1.224,1.944-1.872c3.816-6.7681,3.816-6.7681,5.76-9.648c2.16-2.592,2.592-3.6,4.536-5.76
		c1.08-1.8721,2.232-3.816,3.384-5.76c1.224-1.584,2.52-3.168,3.816-4.752c3.456-5.328,4.104-5.7599,5.0399-7.488
		c1.944-2.16,1.944-2.16,3.816-4.7521c0.72-0.6479,1.44-1.2959,2.16-1.944c0.072-0.36,0.216-0.792,0.36-1.224
		c0.648-0.5759,1.368-1.2239,2.088-1.8719c0.432-1.0081,0.432-1.0081,4.32-5.544c1.08-0.864,1.08-0.864,2.304-1.368
		c0.792-0.792,1.584-1.584,2.376-2.376c0.288,0,0.576,0,0.936-0.072c0.288,2.304,0.576,4.6079,0.864,6.912
		c0.0721,3.888,0.144,7.848,0.216,11.808c-0.504,2.88-0.504,2.88-0.504,4.752c0.504,2.16,0.72,7.2001,1.008,8.6401
		c0,13.6799,0,13.6799,0.216,16.344c-0.936,5.544-0.936,5.544-3.816,18.504c-0.648,4.608-1.296,9.216-1.944,13.8959
		c-1.944,8.6401-1.944,8.6401-2.88,11.736c-1.944,10.368-1.944,10.368-4.824,22.824c-3.312,23.76-3.6,24.4801-4.032,29.3041
		c-1.944,13.176-1.944,13.176-2.736,20.952C228.528,176.904,227.952,176.904,227.376,176.904L227.376,176.904z M232.704,171.144
		c-0.216,0-0.432,0-0.72-0.072c0.288-3.384,0.576-4.1041,0.576-7.2c0.432-4.608,0.936-6.048,1.872-13.248
		c0.504-1.872,1.44-10.512,2.448-15.336c0.288-2.664,0.576-5.4,0.936-8.136c0.648-3.312,1.296-6.6959,1.944-10.08
		c0.432-1.584,0.936-3.168,1.44-4.824c0.432-3.384,0.432-3.384,4.32-19.944c1.008-6.048,2.016-12.096,3.096-18.2161
		c0.0721-0.072,0.216-0.1439,0.36-0.2159c0.072,0.288,0.216,0.576,0.36,0.936c0.504,15.12,0.936,49.176,1.944,82.5839
		c-0.144,4.3201-0.288,8.64-0.504,12.9601c-0.576,0.288-0.576,0.288-3.96,0.792c-3.24-0.144-6.48-0.288-9.792-0.504
		C235.584,170.7841,234.144,170.928,232.704,171.144L232.704,171.144z"/>
</g>
</svg>
