<?xml version="1.0" encoding="utf-8"?>
<!-- Generator: Adobe Illustrator 21.1.0, SVG Export Plug-In . SVG Version: 6.00 Build 0)  -->
<svg version="1.1" id="Na" xmlns="http://www.w3.org/2000/svg" xmlns:xlink="http://www.w3.org/1999/xlink" x="0px" y="0px"
	 viewBox="0 0 129.24 110.592" enable-background="new 0 0 129.24 110.592" xml:space="preserve">
<g>
	<path fill-rule="evenodd" clip-rule="evenodd" d="M126.72,110.592c0-0.216-0.072-0.504-0.144-0.792
		c0.792-0.288,1.656-0.576,2.52-0.936c0,0.36,0.0721,0.72,0.144,1.152C128.88,110.376,128.88,110.376,126.72,110.592L126.72,110.592
		z M50.904,109.872c-7.704-0.432-8.64-0.72-17.28-1.152c-3.096,0.072-6.192,0.144-9.36,0.216c-1.728-0.504-1.728-0.504-5.04-0.936
		c-4.32,0.072-8.64,0.144-12.96,0.216c-2.088-0.144-4.176-0.36-6.264-0.576c0-0.288,0-0.576,0.072-0.936
		c0.288-0.144,0.576-0.288,0.864-0.504c1.728,0.36,1.728,0.36,3.6,0.36c1.944-2.664,1.944-2.664,4.608-5.328
		c0.72-0.432,1.44-0.864,2.232-1.296C11.88,98.784,12.6,98.28,15.48,93.744c0.144-0.36,0.288-0.7921,0.432-1.224
		c0.36-0.288,0.72-0.576,1.152-0.864c10.08-0.216,11.52,0,15.84,0c0.216-0.144,0.432-0.36,0.72-0.576
		c0.144-0.648,0.36-1.296,0.576-1.944c0-0.648-0.072-1.296-0.144-2.016c-2.592-0.648-5.256-1.296-7.92-2.016
		c-0.36-0.432-0.72-0.936-1.08-1.44c0-0.216,0.072-0.432,0.144-0.648c0.792,0,1.584,0,2.376,0
		C28.44,64.224,28.44,64.224,28.872,59.4c2.88-13.176,3.888-16.344,4.824-21.384c3.816-9.576,3.816-9.576,5.256-14.112
		c1.944-3.384,2.88-5.544,4.824-8.64c2.88-3.384,3.816-5.04,5.976-7.2c1.656-1.224,3.312-2.448,4.968-3.744
		c0.72-0.288,1.44-0.648,2.16-1.008c0.648-0.072,1.296-0.144,1.944-0.288c0,0.288-0.0721,0.576-0.144,0.936
		c-2.736,1.296-2.736,1.296-3.744,1.512c-1.944,1.584-3.96,3.168-5.976,4.824c-0.36,0.792-0.792,1.656-1.224,2.52
		c4.176,0.504,8.352,1.008,12.528,1.584c0.072-3.24,0.072-3.24-0.648-12.096C59.904,1.584,60.192,0.792,60.48,0
		c0.288,0,0.576,0,0.936,0.072c0.36,1.224,0.36,1.224,0.864,1.728c0,3.384,0,3.384,0.432,6.48
		C67.536,18.36,68.04,18.864,73.8,30.816c0.936,1.224,0.936,1.224,8.64,16.56c0.576,1.512,1.224,3.024,1.872,4.608
		c4.824,9.36,6.768,13.68,22.608,43.632c0.144,2.5201,0.288,5.112,0.432,7.704c0.216,1.152,0.432,2.376,0.648,3.6
		c1.584,0,3.168,0,4.824,0.072c2.16,0.72,2.16,0.72,4.896,1.152c0,0.936,0,0.936-0.36,1.296c-1.44,0-2.376-0.288-12.024-0.504
		c-3.024,0.288-6.048,0.576-9.072,0.936c-4.104-0.216-7.488-0.72-11.304-0.936c-3.6,0.504-3.6,0.504-10.08,0.936
		c-3.24-0.36-6.552-0.72-9.864-1.152c-1.8,0.072-3.6,0.144-5.472,0.216c-1.44,0.504-1.44,0.504-4.104,0.936
		C53.928,109.872,52.416,109.872,50.904,109.872L50.904,109.872z M92.376,107.28c-2.8799-0.288-2.8799-0.288-27.36-0.504
		c-6.264,0.072-12.6,0.144-18.936,0.216c-15.336-0.72-15.336-0.72-24.264-0.72c-12.96-0.936-12.96-0.936-13.824-1.296
		c0-0.288,0-0.576,0-0.936c1.224-0.72,2.448-1.512,3.744-2.304c1.656-0.144,3.312-0.288,5.04-0.504
		c4.32,0.288,4.32,0.288,6.264,0.72c1.728-0.072,3.456-0.144,5.256-0.216c3.528,0.144,7.056,0.288,10.584,0.504
		c0.144,0.144,0.288,0.288,0.504,0.432c5.76-0.216,11.52,0,25.92-0.432c2.16,0.072,4.32,0.144,6.48,0.216
		c0.288,0.144,0.576,0.288,0.936,0.504c11.016-0.288,21.384,0,21.816-0.288c3.6,0,4.824-0.216,11.16,0.144
		c0.216,3.384,0.216,3.384-0.072,3.744C101.232,106.776,96.84,106.992,92.376,107.28L92.376,107.28z M86.904,101.736
		c-9.648-0.504-9.864-0.72-12.96-0.72c-0.504,0.216-22.104,0.216-22.608,0c-0.792,0-1.584,0-2.376,0
		c-0.36,0.144-0.792,0.288-1.224,0.504c-6.192-0.72-6.192-0.72-8.136-0.72c-0.5041,0.216-0.5041,0.216-13.464-0.288
		c-1.008-0.144-2.016-0.288-3.096-0.432c-1.944-2.88-1.944-2.88-3.96-5.184c-0.144-0.576-0.36-1.224-0.576-1.872
		c0.792-0.144,1.584-0.288,2.376-0.432c6.264,0,7.2,0.288,12.24,0.288c1.08,0.144,2.232,0.288,3.384,0.432
		c0.576,0.72,1.152,1.512,1.728,2.304c0.144,0.648,0.288,1.2961,0.504,1.944c0.36,0.36,0.792,0.792,1.224,1.224
		c0.864,0.216,1.8,0.504,2.736,0.792c23.544-0.216,23.544-0.216,24.264,0c0.144-0.144,0.288-0.288,0.504-0.504
		c17.28,0,20.16,0.288,24.192,0.288c4.536,0.36,9.072,0.72,13.68,1.08c-0.144,0.144-0.288,0.36-0.432,0.576
		c-3.312,0.144-6.696,0.288-10.08,0.504c-1.44-0.288-1.44-0.288-1.944-0.72c-1.44,0.216-1.44,0.216-2.664,0.936
		C89.136,101.736,88.056,101.736,86.904,101.736L86.904,101.736z M17.784,100.08c-0.864,0-1.728-0.072-2.664-0.144
		c0.072-0.216,0.144-0.432,0.216-0.72c1.008-0.36,1.008-0.36,3.888-0.36c0.36,0.216,0.72,0.432,1.1519,0.72
		c-0.144,0.144-0.288,0.288-0.4319,0.504C19.224,100.08,18.504,100.08,17.784,100.08L17.784,100.08z M100.296,98.64
		c-0.36-0.36-4.176-9.936-5.616-12.6c-1.872-4.608-3.816-9.216-5.76-13.896c-2.448-4.608-2.448-4.608-6.264-13.248
		c-0.216-0.936-2.16-4.752-3.096-7.2c-1.008-1.656-5.328-11.52-5.76-11.952c-3.384-7.92-3.384-7.92-3.888-8.64
		c-1.872-5.328-1.872-5.328-2.88-7.488c-1.152-4.536-1.152-4.536-0.936-4.752c0.5041,0.432,4.32,7.92,7.2,12.672
		c2.52,5.04,5.112,10.08,7.704,15.12c1.872,4.824,1.872,4.824,3.816,8.928c0.648,1.008,1.2961,2.016,1.944,3.096
		c7.632,15.336,9.576,18.72,13.392,26.856c1.944,3.384,1.944,3.384,5.328,10.368c0,0.36,0,0.72,0,1.152
		c-1.296,0.504-2.592,1.008-3.96,1.584C101.16,98.64,100.728,98.64,100.296,98.64L100.296,98.64z M97.2,98.352
		c-1.584-0.144-3.168-0.288-4.824-0.432c-1.224-2.088-2.448-4.176-3.744-6.336c-1.872-4.824-1.872-4.824-9.576-21.6
		C76.536,64.8,73.944,59.616,71.352,54.36c-0.936-1.512-1.872-3.024-2.88-4.536C67.896,48.24,67.248,46.656,66.6,45
		c-0.2881-0.36-0.648-0.792-1.0081-1.224c0-15.336-0.216-17.28-0.072-19.44c1.08,1.728,7.776,16.848,8.28,17.28
		c3.816,8.928,3.816,8.928,17.28,37.944c1.872,5.04,4.32,10.08,7.2,18c0,0.216-0.072,0.504-0.144,0.792
		C97.848,98.352,97.56,98.352,97.2,98.352L97.2,98.352z M59.976,98.136c-0.72-0.576-0.72-0.576-1.08-1.296
		c-0.072-0.72-0.144-1.44-0.216-2.16c-0.288-0.2159-0.576-0.4319-0.864-0.72c-1.008-0.2159-2.016-0.4319-3.024-0.72
		c0-0.36,0-0.792,0-1.224c0.144-0.072,0.288-0.216,0.432-0.36c5.04,0.72,5.04,0.72,9.36,1.656c0.288,0.216,0.576,0.432,0.936,0.6479
		c0,1.152,0,2.376,0.072,3.6C64.584,97.92,64.584,97.92,59.976,98.136L59.976,98.136z M80.64,98.136
		c-6.984-0.216-6.984-0.216-9.36-0.576c-0.936-12.6-1.872-25.272-2.808-37.944c-0.288-2.664-0.6479-5.4-1.008-8.136
		c0.216,0,0.432,0,0.72,0.072c0.576,0.936,1.224,1.872,1.872,2.88c7.56,15.048,7.56,15.048,15.4799,32.112
		c1.944,5.04,1.944,5.04,4.824,10.8c0,0.216-0.072,0.504-0.144,0.792C87.048,98.136,83.88,98.136,80.64,98.136L80.64,98.136z
		 M15.336,97.344c0.36-1.224,0.36-1.224,1.224-2.304c0.288,0,0.576,0,0.936,0c0.288,0.504,0.648,1.008,1.008,1.512
		c-0.216,0.216-0.432,0.432-0.72,0.648C16.992,97.2,16.2,97.272,15.336,97.344L15.336,97.344z M68.4,97.2
		c-0.216-1.728-0.432-3.456-0.648-5.184c-0.432-13.896-0.936-21.6-1.08-33.84c0.36,0.2881,0.36,0.2881,0.648,1.224
		c0.432,7.704,0.72,8.856,0.72,12.456c0.504,6.336,1.08,12.672,1.656,19.008c0,2.088,0,4.176-0.072,6.336
		C69.264,97.2,68.832,97.2,68.4,97.2L68.4,97.2z M51.336,93.096c-6.48-0.216-7.416-0.504-14.112-0.72
		c-0.648-0.216-1.368-0.504-2.088-0.792c0.288-1.224,0.576-2.448,0.864-3.744c0.864,0,1.728,0,2.664,0
		c14.4,3.312,14.4,3.312,14.616,3.672c-0.072,0.504-0.144,1.008-0.216,1.584C52.488,93.096,51.912,93.096,51.336,93.096
		L51.336,93.096z M64.296,91.44c-3.096-0.648-6.192-1.296-9.36-2.016c0-0.432-0.072-0.936-0.144-1.44
		c1.008-4.32,1.008-4.32,2.088-11.304c0.936,0,1.872,0,2.88,0.0721c1.656,0.36,3.312,0.72,5.04,1.152
		c0.36,6.696,0.36,6.696,0.216,13.536C64.8,91.44,64.584,91.44,64.296,91.44L64.296,91.44z M51.336,88.992
		c-6.48-0.936-6.48-0.936-10.296-1.872c-0.936-0.504-0.936-0.504-3.096-0.864c0.072-0.36,0.144-0.72,0.288-1.152
		c0.648-0.648,1.296-1.296,1.944-1.944c3.816-5.544,4.824-6.48,5.256-7.416c0.216-0.216,0.432-0.432,0.648-0.648
		c3.6,0.216,3.6,0.216,4.536,0.504c0.36,0.576,2.016,10.44,2.448,11.016c0.216,0,0.432,0.0721,0.72,0.144
		c-0.144,1.224-0.144,1.224-0.648,2.16C52.56,88.92,51.984,88.92,51.336,88.992L51.336,88.992z M35.28,85.68
		c-1.368-0.288-2.736-0.6479-4.104-1.008c-0.504-0.36-1.08-0.72-1.656-1.08c-0.072-0.36-0.216-0.72-0.36-1.152
		c0-2.88,0.072-5.76,0.144-8.64c4.536,0.216,9.072,0.504,13.68,0.792c0.432,0.144,0.864,0.288,1.296,0.432c0,0.216,0,0.432,0,0.72
		c-1.872,2.52-3.816,5.04-5.76,7.632c-0.72,0.72-1.512,1.512-2.304,2.304C35.928,85.68,35.64,85.68,35.28,85.68L35.28,85.68z
		 M53.784,84.816c-0.432-2.016-0.864-4.104-1.368-6.192c0-0.936,0-1.872-0.072-2.88c2.376,0.288,2.376,0.288,2.952,0.72
		c-0.216,4.032-0.216,4.032-0.936,8.136C54.216,84.672,54,84.744,53.784,84.816L53.784,84.816z M61.704,76.032
		c-1.44-0.144-2.88-0.36-4.32-0.576c0.288-2.88,0.288-2.88,2.16-11.304c1.44,0,2.88,0,4.32,0.072
		c0.288,2.16,0.288,2.16,0.576,11.736C63.576,75.96,62.64,75.96,61.704,76.032L61.704,76.032z M53.496,74.592
		c-1.656-0.216-1.656-0.216-2.016-0.576c-0.288-1.152-0.648-2.376-1.008-3.6c-0.36-0.144-0.72-0.288-1.152-0.432
		c3.096-5.76,3.096-5.76,3.744-6.408c1.152,0.072,2.376,0.144,3.6,0.216c0,1.08,0,2.16,0.072,3.312
		C55.8,73.08,55.8,73.08,55.296,74.52C54.72,74.52,54.144,74.52,53.496,74.592L53.496,74.592z M48.024,73.872
		c-0.216,0-0.432,0-0.72-0.072c0.072-0.504,0.144-1.08,0.288-1.656c0.432-0.576,0.864-1.152,1.368-1.728
		c0.36,0.288,0.36,0.288,1.08,3.384C49.392,73.8,48.744,73.8,48.024,73.872L48.024,73.872z M42.696,73.44
		c-4.32-0.36-8.64-0.72-12.96-1.08c-0.144-2.664-0.144-2.664,0.504-11.088c0.864,0,1.728,0,2.664-0.072
		c4.392,0.576,8.784,1.224,13.176,1.872c1.8,0.072,3.672,0.144,5.544,0.288c0.072,0.072,0.144,0.216,0.216,0.36
		c-0.576,1.08-1.152,2.232-1.8,3.384c-1.44,2.016-2.88,4.104-4.32,6.192C44.712,73.296,43.704,73.368,42.696,73.44L42.696,73.44z
		 M61.2,62.64c-0.36,0-0.792-0.072-1.224-0.144c0.288-2.232,0.576-4.464,0.864-6.696c0.72-1.44,0.72-1.44,1.296-4.32
		c0.216,0,0.432,0,0.72,0c0.36,1.44,0.36,1.44,0.576,11.016C62.712,62.496,61.992,62.568,61.2,62.64L61.2,62.64z M51.336,62.352
		c-2.304-0.144-4.608-0.288-6.912-0.432c-4.536-0.792-9.144-1.656-13.752-2.52c0-1.008,0.072-2.016,0.144-3.096
		c1.656-7.488,1.656-7.488,2.088-8.064c0.216-0.072,0.432-0.144,0.72-0.288c19.152,1.44,19.152,1.44,19.656,1.728
		c1.584,0.144,3.168,0.36,4.824,0.576c-0.144,0.72-0.2881,1.44-0.432,2.16c-2.88,6.264-3.816,7.488-4.752,9.36
		C51.552,62.496,51.552,62.496,51.336,62.352L51.336,62.352z M54.504,62.352c0-0.504-0.072-1.008-0.144-1.512
		c0.432-0.648,0.936-1.296,1.44-1.944c0.144-0.504,0.288-1.08,0.432-1.656c0.36-0.144,0.72-0.288,1.152-0.504
		c-0.432,4.824-0.432,4.824-0.72,5.616C55.944,62.352,55.224,62.352,54.504,62.352L54.504,62.352z M58.824,56.016
		c0.216-1.44,0.4319-2.952,0.72-4.464c0.216,0,0.504,0.072,0.792,0.144c-0.216,2.664-0.216,2.664-0.72,3.888
		C59.4,55.728,59.112,55.872,58.824,56.016L58.824,56.016z M53.784,48.672c-6.768-0.72-13.536-1.44-20.304-2.232
		c0.216-2.664,0.216-2.664,0.72-3.816c0.936-4.32,0.936-4.32,1.584-6.048c0.288-0.072,0.576-0.216,0.936-0.36
		c4.32,0.216,8.64,0.432,12.96,0.72c1.656,0.504,1.656,0.504,9.36,1.44c-0.072,3.096-0.216,6.192-0.36,9.288
		c-0.144,0.288-0.288,0.576-0.504,0.936C56.736,48.6,55.296,48.6,53.784,48.672L53.784,48.672z M60.264,45.72
		c0-0.936-0.072-1.872-0.144-2.88c0.144-1.368,0.36-2.736,0.576-4.104c0.36,0,0.792-0.072,1.224-0.144
		c0.36,0.648,0.36,0.648,0.576,3.312c-0.504,0.936-0.936,2.88-1.44,3.6C60.84,45.576,60.552,45.648,60.264,45.72L60.264,45.72z
		 M56.88,37.152c-2.808-0.432-5.616-0.936-8.424-1.44c-3.744-0.288-7.488-0.576-11.232-0.936c0-0.576-0.0721-1.152-0.144-1.8
		c0.432-1.008,0.936-2.016,1.44-3.096c0.936-3.6,0.936-3.6,1.872-5.544c0.576-0.072,1.224-0.216,1.872-0.36
		c2.88,0.216,5.472,0.72,13.896,1.656c3.384,0,3.384,0,4.32,0.36c0.072,1.512-0.864,10.584-1.224,11.16
		C58.464,37.152,57.672,37.152,56.88,37.152L56.88,37.152z M61.2,36.936c0-1.08,0-2.16,0-3.24c0.216,0,0.432,0,0.72,0
		c0.072,2.448,0.072,2.448-0.144,3.168C61.416,37.08,61.416,37.08,61.2,36.936L61.2,36.936z M63.576,32.76
		c-0.144-2.952-0.288-5.904-0.504-8.856c0.36,0.216,0.36,0.216,0.864,3.096c0.072,1.728,0.144,3.456,0.216,5.256
		C64.008,32.4,63.792,32.544,63.576,32.76L63.576,32.76z M57.384,24.48C54,23.976,47.016,23.472,45.576,23.04
		c-1.296-0.072-2.664-0.216-4.032-0.36c0.072-0.504,0.144-1.08,0.288-1.656c0.648-1.2961,1.296-2.592,1.944-3.888
		c0.792-1.008,1.656-2.016,2.52-3.024c2.448,0,2.448,0,14.184,1.584c0.576,6.768,0.576,6.768,0.36,8.208
		C60.48,24.192,60.48,24.192,57.384,24.48L57.384,24.48z"/>
</g>
</svg>
