<?xml version="1.0" encoding="utf-8"?>
<!-- Generator: Adobe Illustrator 21.1.0, SVG Export Plug-In . SVG Version: 6.00 Build 0)  -->
<svg version="1.1" id="Na" xmlns="http://www.w3.org/2000/svg" xmlns:xlink="http://www.w3.org/1999/xlink" x="0px" y="0px"
	 viewBox="0 0 146.304 144.288" enable-background="new 0 0 146.304 144.288" xml:space="preserve">
<g>
	<path fill-rule="evenodd" clip-rule="evenodd" d="M70.2,144.288c-6.192-0.936-7.92-1.44-11.016-1.872
		c-2.448,0.072-4.896,0.144-7.416,0.216c-0.864,0.144-1.728,0.288-2.664,0.504c-4.32,0-5.76-0.288-9.144-0.288
		c-4.176-0.36-8.424-0.72-12.672-1.152c-2.16,0.216-4.32,0.432-6.48,0.72c-1.8-0.072-3.672-0.144-5.544-0.288
		C6.408,142.632,3.528,142.416,0,142.776c0-0.288,0.072-0.576,0.144-0.864c1.656-0.504,1.656-0.504,5.544-0.936
		c0.288-1.08,0.288-1.08,3.168-5.904c0.216-0.144,0.432-0.36,0.648-0.576c0.864-0.144,1.728-0.288,2.664-0.504
		c0.576-0.288,1.224-0.576,1.872-0.936c0.864-1.584,0.864-1.584,1.296-3.024c3.888-5.256,4.824-6.912,5.4-7.416
		c1.008-0.36,1.008-0.36,12.312-0.864c3.312,0,6.696,0,10.08,0c0.216-1.152,0.504-2.304,0.792-3.456
		c-0.072-1.008-0.144-2.016-0.216-3.096c-1.44-0.432-2.952-0.864-4.464-1.368c-0.4319-0.576-0.9359-1.152-1.44-1.8
		c0.2881-0.504,0.2881-0.504,1.2961-0.936c1.008-8.856,1.008-8.856,1.944-14.616c0.936-13.248,1.224-13.464,1.656-19.008
		c0.288-0.72,0.72-5.76,1.728-12.456c0.432-0.936,0.432-0.936,1.44-7.704c1.224-5.04,2.52-10.08,3.816-15.12
		c1.224-3.384,2.52-6.84,3.816-10.296c1.872-4.032,3.816-8.136,5.76-12.24c1.944-2.88,3.888-5.04,7.7039-10.584
		c0.72-0.792,1.44-1.584,2.16-2.376c1.656-1.224,3.312-2.448,4.968-3.744c2.5919-0.936,2.5919-0.936,3.6-0.936
		c0.792-1.8,0.792-1.8,1.152-2.016c0.432,0.144,0.936,0.288,1.44,0.432c0.432,4.68,0.864,9.432,1.296,14.184
		c0.936,2.16,1.872,4.32,2.88,6.48c0.648,0.936,1.2961,1.872,1.944,2.88c1.944,4.32,3.816,7.704,12.456,26.856
		c0.288,0.432,0.648,0.936,1.008,1.44c0.576,1.584,1.224,3.168,1.872,4.824c1.944,3.384,1.944,3.384,6.84,13.68
		c2.088,3.096,3.024,5.04,3.528,5.544c1.008,2.232,2.016,4.464,3.096,6.696c0.36,0.504,0.792,1.08,1.224,1.656
		c0.432,1.44,1.44,2.88,2.232,4.824c0.648,0.72,2.52,5.256,5.4,10.08c0.288,0.864,0.648,1.728,1.008,2.664
		c0.936,1.152,0.936,1.152,4.752,8.856c5.7599,14.4,5.7599,14.4,6.768,16.056c0.72,2.88,0.72,2.88,0.72,4.824
		c-0.504,1.44-0.504,1.44-1.224,5.76c0,1.368,0.072,2.736,0.144,4.176c3.096,0,6.192,0,9.36,0c0.216,0.144,0.432,0.36,0.72,0.576
		c-0.216,0.36-0.216,0.36-1.44,0.648c-8.208,0.216-16.416,0.432-24.696,0.72c-0.648-0.144-1.296-0.288-1.944-0.504
		c-3.6,0.288-7.2,0.576-10.8,0.936c-4.032-0.288-8.136-0.576-12.24-0.936c-2.52,0-5.112,0-7.704,0
		c-1.152,0.144-2.376,0.288-3.6,0.504C79.344,144,74.808,144.144,70.2,144.288L70.2,144.288z M106.704,141.408
		c-16.056-0.432-36-0.432-44.424-0.72c-4.32-0.72-4.32-0.72-7.92-0.936c-2.88,0.144-5.76,0.288-8.64,0.504
		c-2.376-0.144-4.752-0.288-7.2-0.504c-3.456,0-6.9839,0-10.512,0c-1.224-0.504-1.224-0.504-3.168-0.72
		c-0.792,0.288-1.584,0.576-2.376,0.936c-2.376,0.288-2.376,0.288-9.864,0.288c-1.44-0.072-2.88-0.216-4.32-0.36
		c0.072-0.648,0.216-1.296,0.36-1.944c0.576-0.648,1.152-1.296,1.8-2.016c1.224-0.288,20.664-0.72,22.608-1.008
		c5.976,0.288,5.976,0.288,9.36,0.72c4.032-0.216,9.36,0,10.512-0.216c29.088,0.504,29.088,0.504,30.24,0.216
		c3.816-0.072,7.632-0.144,11.52-0.216c3.6,0.504,12.2401,0.72,13.248,0.936c0.216-0.216,0.216-0.216,17.712-0.936
		c1.08,0.0721,2.232,0.144,3.384,0.216c0.072-0.072,0.144-0.216,0.216-0.36c-0.216-0.144-0.4319-0.36-0.72-0.576
		c-5.7599-0.216-9.072,0-23.256-0.216c-8.424,0.216-8.424,0.216-8.64,0c-2.376-0.288-10.584-0.288-13.68,0
		c-1.224-0.504-1.224-0.504-3.384-0.72c-0.288,0.2881-0.576,0.576-0.936,0.936c-2.52-0.072-5.112-0.144-7.704-0.216
		c-0.144-1.08-0.144-1.08,0.288-3.24c2.16,0.144,4.32,0.36,6.48,0.576c18.936,0,19.656,0.216,42.696,0.216
		c0.216,0.216,0.432,0.432,0.72,0.72c1.008,0,2.016,0,3.096,0c3.24,0.432,6.552,0.936,9.864,1.44
		c0.216,0.216,0.432,0.432,0.72,0.648c-0.144,0.936,0.072,1.224-0.144,5.544c-0.072,0.144-0.216,0.36-0.36,0.576
		C124.2,141.408,124.2,141.408,106.704,141.408L106.704,141.408z M63.504,134.208c-1.44-0.432-1.44-0.432-2.88-0.432
		c-0.216,0.216-0.216,0.216-5.544,0.216c-1.296-0.144-2.664-0.288-4.032-0.504c-0.216,0.144-0.432,0.288-0.72,0.504
		c-2.16,0-4.32,0-6.48,0c-1.008-0.504-1.008-0.504-2.88-0.72c-0.216,0.144-0.432,0.2881-0.72,0.504
		c-9.864,0-10.368-0.288-12.024-0.288c-0.504,0.288-8.856,0.288-9.144,0c3.888-0.432,3.888-0.432,5.04-0.936
		c3.744-0.144,7.488-0.288,11.304-0.504c0.648-0.288,1.296-0.576,1.944-0.936c1.656-2.376,3.312-4.752,5.04-7.2
		c0.288,0,0.576,0,0.936-0.072c0,0.792,0,1.584,0.072,2.376c0.504,1.224,1.008,4.104,1.368,4.392c0.504,0,1.08,0,1.656,0
		c0.36-0.36,0.792-0.72,1.224-1.08c0.072-4.968,0.072-4.968-0.216-6.696c1.152,0.216,1.152,0.216,2.16,0.864
		c0.576,1.44,1.152,2.952,1.728,4.464c0.432,0.792,0.936,1.584,1.44,2.376c0.648,0.36,1.368,0.72,2.088,1.08
		c3.384,0,3.384,0,7.2-0.504c2.448,0,4.896,0.072,7.416,0.144c0,0.288,0.072,0.576,0.144,0.936
		c-0.288,0.648-0.576,1.296-0.864,2.016C67.032,134.208,65.304,134.208,63.504,134.208L63.504,134.208z M134.28,132.768
		c-0.288,0-0.576,0-0.936-0.072c0.072-0.288,0.144-0.576,0.216-0.936c0.936-0.504,0.936-0.504,2.16-0.72
		c-0.144,1.44-0.144,1.44-0.432,1.728C135,132.768,134.64,132.768,134.28,132.768L134.28,132.768z M26.784,131.256
		c-0.072-0.72-0.216-1.44-0.36-2.16c-1.008-1.656-1.008-1.656-3.888-4.824c0-0.288,0-0.576-0.072-0.936
		c6.12-0.144,12.312-0.288,18.504-0.504c0,0.36-0.072,0.7921-0.144,1.224c-1.296,1.872-2.592,3.816-3.888,5.76
		c-1.296,0.936-1.296,0.936-2.448,1.296C31.968,131.112,29.376,131.184,26.784,131.256L26.784,131.256z M100.224,131.112
		c-3.096-0.216-3.6-0.504-6.984-0.936c-1.872-0.576-3.816-1.152-5.7599-1.8c-0.36-1.584-0.72-3.168-1.08-4.824
		c-0.216-6.4799-0.504-7.2-1.44-26.352c-0.144-1.872-0.288-3.816-0.504-5.76c0-3.024,0-6.048,0-9.144
		c-1.152-18.936-1.44-19.656-1.512-25.2c0.216,0,0.432,0,0.72,0.072c0.288,0.36,0.576,0.72,0.936,1.08
		c3.744,9.144,7.56,17.568,10.44,24.984c0.504,0.504,0.936,1.944,1.44,2.448c1.944,4.32,1.944,4.32,2.88,7.2
		c0.648,1.008,1.296,2.016,1.944,3.096c2.376,5.544,2.376,5.544,2.88,5.976c0.288,1.008,0.576,2.088,0.936,3.168
		c3.816,8.136,3.816,8.136,10.584,23.976c0,0.216,0,0.432,0,0.72c-0.648,0.504-0.648,0.504-2.016,0.792
		C109.224,130.752,104.76,130.896,100.224,131.112L100.224,131.112z M129.528,131.112c-1.872-3.456-1.872-3.456-4.752-9.72
		c-0.936-2.88-1.872-5.76-2.88-8.64c-0.576-1.152-1.224-2.376-1.872-3.6c-2.232-5.544-4.464-11.16-6.768-16.776
		c-3.816-7.416-5.256-11.016-5.76-11.52c-0.288-0.864-0.576-1.728-0.936-2.664c-1.656-3.168-3.312-6.336-5.04-9.576
		c-3.6-8.64-5.0399-11.52-5.256-12.744c-0.288-0.432-0.648-0.936-1.008-1.44c-0.432-1.656-2.376-5.76-10.08-24.696
		c-1.224-3.384-2.448-6.84-3.672-10.296c0.216,0.072,0.432,0.144,0.72,0.216c3.096,5.832,6.264,11.664,9.432,17.496
		c0.936,2.376,1.872,4.752,2.88,7.2c3.888,7.7039,5.76,12.24,11.52,23.544c0.504,0.504,0.504,0.504,10.08,19.224
		c0.432,0.576,0.936,1.224,1.4399,1.8719c0.936,2.232,1.872,4.464,2.88,6.768c0.288,0.36,0.648,0.72,1.008,1.152
		c3.816,7.92,3.816,7.92,7.2,14.184c3.816,10.08,3.816,10.08,6.696,16.776c0,0.288,0,0.648,0,1.008
		c-1.296,0.936-1.296,0.936-4.68,2.232C130.32,131.112,129.96,131.112,129.528,131.112L129.528,131.112z M76.68,130.608
		c-0.504-0.072-1.008-0.144-1.584-0.288c0-0.432,0-0.936,0-1.44c0.288-0.36,0.648-0.792,1.008-1.224
		c-0.072-0.288-0.216-0.576-0.36-0.864c-0.288-0.072-0.576-0.216-0.936-0.36c-0.36-0.504-0.7921-1.008-1.224-1.584
		c-0.504-0.144-1.08-0.288-1.656-0.432c-0.072-0.648-0.144-1.296-0.288-2.016c4.176,0.864,8.352,1.8,12.528,2.736
		c0.576,2.736,0.576,2.736,0.576,4.896c-0.36,0.144-0.72,0.36-1.08,0.576C81.36,130.608,79.056,130.608,76.68,130.608L76.68,130.608
		z M54.864,130.392c-0.288-0.144-0.576-0.288-0.936-0.504c-0.864-1.296-0.864-1.296-0.864-2.016c0.144-0.072,0.36-0.216,0.576-0.36
		c3.888-0.072,7.848-0.144,11.808-0.216c1.656,0.072,3.312,0.216,5.04,0.36c-0.144,1.44-0.144,1.44-0.504,2.016
		c-3.024,0.072-6.048,0.144-9.144,0.216c-0.792,0.144-1.584,0.288-2.376,0.504C57.312,130.392,56.088,130.392,54.864,130.392
		L54.864,130.392z M118.008,130.392c-0.216-0.072-0.432-0.216-0.648-0.36c-2.88-6.192-6.696-15.552-10.08-22.536
		c-2.88-7.2-3.816-8.64-4.824-11.304c-0.72-1.224-1.44-2.52-2.16-3.816c-0.576-1.728-1.224-3.456-1.872-5.256
		c-1.296-2.592-2.592-5.256-3.888-7.92c-0.144-0.648-0.288-1.296-0.432-1.944c-0.288-0.432-0.648-0.936-1.008-1.44
		c-1.872-4.824-3.816-8.856-7.632-18.72c-0.504-0.504-0.504-0.504-2.88-6.984c-1.008-21.6-1.008-21.6-0.864-23.7599
		c0.288,0.072,0.576,0.144,0.864,0.288c4.752,11.304,9.576,22.68,14.4,34.056c8.64,18.504,9.072,18.936,11.52,23.976
		c0.432,1.728,0.432,1.728,2.376,5.76c0.504,0.504,0.504,0.504,4.32,9.36c1.224,3.24,2.52,6.552,3.816,9.864
		c0.648,1.152,1.2961,2.376,1.944,3.6c1.224,3.528,2.5201,7.056,3.816,10.584c0.288,0.504,0.648,1.08,1.008,1.656
		c0.144,1.0081,0.288,2.016,0.432,3.096c-2.232,0.864-2.232,0.864-6.768,1.8C119.016,130.392,118.512,130.392,118.008,130.392
		L118.008,130.392z M71.928,129.888c0-0.648,0-1.296,0-2.016c0.72,0,1.44,0,2.16,0c0,0.288-0.0721,0.648-0.144,1.008
		c-0.288,0.288-0.648,0.576-1.008,0.936C72.648,129.816,72.288,129.816,71.928,129.888L71.928,129.888z M45.504,129.312
		c-0.36-2.16-0.36-2.16-0.864-3.312c0-0.576,0.072-1.224,0.144-1.872c0.432,0,0.936,0,1.44,0c0.36,0.6479,0.36,0.6479,0.576,4.464
		c-0.144,0.216-0.288,0.432-0.504,0.72C46.08,129.312,45.792,129.312,45.504,129.312L45.504,129.312z M17.928,129.096
		c0.072-0.36,0.144-0.792,0.288-1.224c1.008-1.152,1.44-2.16,1.872-2.52c0.288,0,0.648,0.072,1.008,0.144
		c1.008,2.376,1.44,2.88,1.368,3.456C20.952,128.952,19.44,129.024,17.928,129.096L17.928,129.096z M64.728,126.288
		c-3.312-0.0721-6.696-0.144-10.08-0.288c0-0.216,0-0.432,0.072-0.72c0.72-0.504,0.72-0.504,2.088-0.648
		c0.144,0.144,0.288,0.288,0.4319,0.504c8.64,0,8.64,0,12.96,0.432c0.288,0.36,0.288,0.36,0,0.72
		C68.4,126.288,66.6,126.288,64.728,126.288L64.728,126.288z M51.264,124.488c-0.864-1.872-0.864-1.872-1.656-2.952
		c-1.512,0-3.024-0.072-4.608-0.144c-0.144-0.936-0.144-0.936,0.288-5.76c3.024,0.576,6.048,1.152,9.072,1.8
		c1.8,0.648,3.672,1.2961,5.544,1.944c3.528,0.792,7.056,1.656,10.584,2.52c-0.072,0.648-0.144,1.296-0.288,2.016
		c-3.672,0-7.344,0-11.016,0c-0.72-0.216-1.44-0.432-2.16-0.72c-0.648,0-1.296,0.072-1.944,0.144
		c-0.576,0.432-1.224,0.864-1.872,1.296C52.56,124.632,51.912,124.56,51.264,124.488L51.264,124.488z M82.44,121.752
		c-8.136-1.944-8.136-1.944-9.36-2.52c-0.144-0.576-0.36-1.224-0.576-1.872c0-1.008,0-2.088,0-3.168
		c1.152-8.136,1.152-8.136,1.872-11.52c0.144-0.144,0.288-0.36,0.432-0.576c5.76,0.432,6.48,0.72,8.352,0.864
		c0.576,13.68,0.864,14.832,0.864,17.496c-0.0721,0.432-0.216,0.864-0.36,1.296C83.304,121.752,82.872,121.752,82.44,121.752
		L82.44,121.752z M69.048,118.872c-8.64-1.944-15.624-3.816-17.784-4.176c0.216-0.792,0.504-1.584,0.792-2.376
		c3.888-5.328,3.888-5.328,7.704-9.864c0.288-0.576,0.576-1.152,0.864-1.8c1.224-0.072,2.52-0.144,3.816-0.288
		c1.008,0.072,2.088,0.216,3.168,0.36c0.864,3.672,1.8,7.344,2.736,11.088c0.072,1.656,0.144,3.312,0.216,5.04
		c-0.072,0.648-0.216,1.296-0.36,2.016C69.84,118.872,69.48,118.872,69.048,118.872L69.048,118.872z M48.384,113.832
		c-6.696-1.944-6.696-1.944-7.704-2.52c-0.144-2.592-0.144-2.592,0.72-12.96c2.664,0.36,2.664,0.36,4.608,1.08
		c7.416,0.504,7.632,0.216,13.68,0.648c-0.288,0.792-0.576,1.584-0.864,2.376c-3.888,4.536-3.888,4.536-9,11.376
		C49.392,113.832,48.888,113.832,48.384,113.832L48.384,113.832z M70.488,108.432c-1.368-5.76-1.368-5.76-1.44-7.416
		c1.008,0.144,2.016,0.288,3.096,0.504c0,0.936-0.072,1.872-0.144,2.88c-0.288,1.152-0.576,2.376-0.936,3.6
		C70.92,108.144,70.704,108.288,70.488,108.432L70.488,108.432z M80.568,101.592c-2.664-0.216-2.664-0.216-5.544-0.792
		c0.504-5.616,1.08-11.232,1.6559-16.848c1.584,0.216,3.24,0.432,4.896,0.72c0.288,1.44,0.288,1.44,0,4.608
		c0.288,1.728,0.648,3.456,1.008,5.256c0.072,2.304,0.144,4.608,0.216,6.984C82.08,101.52,81.36,101.52,80.568,101.592
		L80.568,101.592z M71.928,100.152c-1.152-0.072-2.376-0.216-3.6-0.36c-0.72-2.376-1.512-4.752-2.304-7.2
		c0.072-0.72,0.144-1.44,0.2159-2.16c0.936-2.232,1.872-4.536,2.808-6.84c1.512,0.072,3.024,0.144,4.536,0.216
		c0.144,0.216,0.36,0.432,0.576,0.648c-1.224,13.68-1.224,13.68-1.656,15.624C72.144,100.296,72.144,100.296,71.928,100.152
		L71.928,100.152z M64.944,99.432c-0.936-0.072-1.872-0.216-2.808-0.36c0-0.72,0-0.72,2.304-5.256
		c0.288-0.072,0.648-0.144,1.008-0.216c0.504,1.8,1.008,3.6,1.512,5.472C66.6,99.432,66.6,99.432,64.944,99.432L64.944,99.432z
		 M60.12,98.928c-12.672-1.44-12.672-1.44-18-1.728c-0.144-1.008,0.36-10.368,0.864-15.12c0.072-0.288,0.216-0.648,0.36-1.008
		c1.224-0.144,1.224-0.144,24.264,1.8c0.072,0.288,0.144,0.576,0.288,0.864c-0.576,1.8-1.224,3.672-1.8719,5.544
		c-1.944,3.096-1.944,3.096-3.888,7.416C60.336,99.072,60.336,99.072,60.12,98.928L60.12,98.928z M74.304,94.032
		c0.36-4.32,0.36-4.32,0.576-4.032c0,2.88,0,2.88-0.216,3.816C74.592,93.888,74.448,93.96,74.304,94.032L74.304,94.032z
		 M79.344,83.088c-0.72-0.072-1.512-0.144-2.304-0.288c0.216-3.384,0.216-3.384,1.944-14.904c0.288-0.36,0.576-0.72,0.864-1.08
		c0.288,0,0.576-0.072,0.936-0.144c0.36,11.088,0.792,14.904,0.72,16.416C80.784,83.088,80.064,83.088,79.344,83.088L79.344,83.088z
		 M72.36,82.656c-0.792-0.072-1.656-0.216-2.52-0.36c0.072-0.432,0.144-0.936,0.216-1.44c3.384-5.76,3.384-5.76,4.032-7.488
		c0.216-0.072,0.4319-0.144,0.72-0.216c-0.144,5.76-0.144,5.76-0.72,9.504C73.512,82.656,72.936,82.656,72.36,82.656L72.36,82.656z
		 M67.824,81.936c-8.064-0.72-16.128-1.512-24.264-2.304c-0.144-0.936,0.36-4.32,0.576-8.136c0.288-2.232,0.648-4.464,1.008-6.696
		c0.288-0.72,0.576-1.44,0.864-2.232c0.576,0,1.224,0,1.872-0.072c4.104,0.936,4.104,0.936,14.4,2.376
		c4.32,0.216,4.824,0.504,12.96,1.44c0,0.504,0.0721,1.008,0.144,1.584c-1.944,5.256-1.944,5.256-3.888,9.144
		c-0.936,1.584-1.944,3.24-2.952,4.896C68.328,81.936,68.112,81.936,67.824,81.936L67.824,81.936z M75.24,82.08
		c0.2881-4.32,0.576-8.64,0.864-12.96c0.36-0.72,0.72-1.44,1.08-2.2321c0.36,0,0.792,0,1.224,0c0.072,0.144,0.144,0.288,0.216,0.504
		c-0.432,2.016-0.864,4.032-1.368,6.048c0,0.936,0,1.872,0,2.88c-0.432,0.72-0.432,0.72-1.152,5.256
		C75.816,81.72,75.528,81.864,75.24,82.08L75.24,82.08z M76.68,64.296c0.0721-2.88,0.216-5.76,0.36-8.64
		c0.288-1.512,0.576-3.024,0.864-4.536c1.224,0.072,1.224,0.072,1.944,0.576c0.288,2.016,0.288,2.016,0.288,6.84
		c-0.936,1.656-1.872,4.104-2.88,5.544C77.112,64.152,76.896,64.224,76.68,64.296L76.68,64.296z M70.92,63.936
		c-2.16-0.144-4.32-0.288-6.48-0.504c-0.36-0.144-0.72-0.288-1.152-0.504c-3.96-0.288-7.992-0.576-12.024-0.936
		c-1.584-0.288-3.168-0.576-4.824-0.936c0-0.792-0.072-1.656-0.144-2.52c0.36-1.872,0.7921-3.816,1.224-5.76
		c0.5041-0.72,0.936-3.096,1.44-4.32c0.0721-0.792,0.144-1.584,0.216-2.376c0.648-2.088,1.2961-4.176,1.944-6.264
		c0.504-0.504,2.376-5.976,3.816-8.856c1.584-0.144,1.584-0.144,7.848,0.288c0.432,0.144,0.936,0.288,1.44,0.504
		c9.864,0.936,9.864,0.936,14.184,1.584c-0.144,4.32-0.648,6.696-0.864,11.52c-0.288,0.504-0.288,0.504-0.576,3.456
		c-3.168-0.216-4.104-0.504-14.4-1.44c-3.312-0.648-6.696-1.296-10.08-1.944c-0.72,0-1.44,0.072-2.16,0.144
		c0,0.36,0,0.792,0.072,1.224c0.648,0.36,8.064,1.296,9.504,1.8c12.24,2.376,16.56,2.88,16.92,3.24
		c-0.72,8.136-1.008,8.856-1.44,12.456C73.944,63.792,72.432,63.864,70.92,63.936L70.92,63.936z M78.12,48.528
		c-0.144-1.008-0.144-1.008,0.36-7.272c0.072-0.072,0.216-0.144,0.36-0.216c0.36,0.432,0.36,0.432,0.864,5.04
		c0,0.792-0.072,1.584-0.144,2.448C79.128,48.528,78.624,48.528,78.12,48.528L78.12,48.528z M74.52,31.752
		c-12.24-1.944-12.24-1.944-18.2159-2.52c0-0.36-0.0721-0.72-0.144-1.152c0.432-0.936,0.936-1.872,1.44-2.88
		c0.072-0.432,0.144-0.936,0.216-1.44c3.888-6.48,3.888-6.48,5.328-8.208c0.864-0.144,10.656,1.8,13.824,2.0161
		c0.648,0.288,1.296,0.576,2.016,0.864c0.216,5.76,0.216,5.76-0.144,13.32C77.4,31.752,75.96,31.752,74.52,31.752L74.52,31.752z
		 M77.688,16.632c-1.728-0.504-7.488-1.44-9.864-2.16c-0.936,0-1.872,0-2.88-0.072c0-0.2881,0-0.648,0.072-1.008
		c1.944-3.096,1.944-3.096,3.888-5.472c2.16-1.944,2.16-1.944,5.112-3.888c0.72-0.288,1.44-0.576,2.2321-0.864
		c0.576,0,1.224,0,1.872-0.072c0.864,12.744,0.864,12.744,0.72,13.536C78.48,16.632,78.12,16.632,77.688,16.632L77.688,16.632z"/>
</g>
</svg>
