<?xml version="1.0" encoding="utf-8"?>
<!-- Generator: Adobe Illustrator 21.1.0, SVG Export Plug-In . SVG Version: 6.00 Build 0)  -->
<svg version="1.1" id="ocea" xmlns="http://www.w3.org/2000/svg" xmlns:xlink="http://www.w3.org/1999/xlink" x="0px" y="0px"
	 viewBox="0 0 373.3199 469.9631" enable-background="new 0 0 373.3199 469.9631" xml:space="preserve">
<g>
	<path fill-rule="evenodd" clip-rule="evenodd" d="M8.3639,469.9603c-1.5735-0.3628-3.2905-0.4995-4.8861-0.6262
		c-1.2407-0.0981-2.4097-0.1913-3.39-0.381L0,468.9362v-0.089c0-0.3039,0.0751-0.5289,0.1499-0.7537l0.0332-0.0992l0.0992,0.0295
		c4.2676,1.2643,10.0253,0.5505,15.4015-0.1159c1.9148-0.2373,3.7826-0.4694,5.5171-0.6035
		c0.6679-1.6982,0.7087-3.833,0.7489-5.9323c0.0303-1.5744,0.0609-3.13,0.3526-4.4782c-0.1876-0.0629-0.3694-0.1259-0.4986-0.1905
		l0.0482-0.2041c0.3934,0,4.5822-5.4661,6.9778-8.5921c0.6942-0.9059,1.2379-1.6154,1.5063-1.9511l0.0122-0.013
		c3.9824-3.5728,7.0968-7.6286,9.0315-12.1847c1.796-4.2296,2.5764-8.8929,2.0931-14.0049l-0.0045-0.051l0.0354-0.0354
		c0.7815-0.7815,1.5063-0.9278,2.6127-1.1509c0.2319-0.0468,0.4825-0.0978,0.7659-0.1613
		c5.777-16.4415,11.7655-33.0205,17.9056-49.4819c5.7878-15.5163,11.7099-30.9243,17.716-46.0094
		c0.3282-0.9119,0.6534-1.7966,0.9802-2.6535c0.3305-0.8674,0.6718-1.7295,1.0321-2.594c0.2412-1.2869,4.2457-12.992,7.7119-22.2423
		c2.2184-5.9207,4.2247-10.8457,4.9003-11.4162c10.8482-32.6704,23.8362-66.0884,36.3694-98.337
		c1.4406-3.7071,2.876-7.3993,4.3004-11.0724c2.5577-7.3849,5.186-14.6574,7.8576-21.8722
		c2.6765-7.2281,5.394-14.3898,8.1272-21.547l0.0411-0.0516c0.2594-0.1729,5.2359-12.4625,9.1996-23.1746
		c2.4114-6.5178,4.4413-12.4455,4.7939-14.696l0.0054-0.021c3.2037-8.6036,6.4083-17.1904,9.6211-25.7668
		c3.2261-8.6134,6.45-17.1851,9.6736-25.71c1.385-4.9277,3.6924-10.1276,6.0097-15.3508h0.0003
		c0.6902-1.5558,1.3807-3.1135,2.0486-4.6667c0.671-1.8804,1.4791-3.798,2.3142-5.6978c1.8054-4.8163,3.0855-9.504,3.0855-13.8505
		V2.0986l0.0317-0.0318c0.565-0.5649,1.6739-1.0346,3.0609-1.3813c2.109-0.5273,4.8759-0.7772,7.3551-0.655
		c2.4928,0.1229,4.7035,0.6255,5.682,1.604l0.0003,0.0003c0.2489,0.2489,0.4204,0.5298,0.4986,0.8422l0.013,0.0524l-0.034,0.0417
		c-0.6634,0.8141-0.2886,3.85,0.4977,7.2839c1.0312,4.5045,2.7771,9.6729,3.8313,11.4573l0.0108,0.0244
		c1.728,5.8929,3.202,11.0364,4.4388,15.3525c2.7808,9.7044,4.3619,15.2206,4.8756,15.5471l0.0457,0.0604
		c5.7404,19.3898,11.88,38.7904,18.1142,58.4908l2.4052,7.6029l0.0005,0.0025c0.8414,2.9069,1.7411,5.7436,2.64,8.5791
		c1.6302,5.1426,3.2601,10.2827,4.5612,15.904c5.0809,16.1581,9.9749,32.3881,14.8881,48.6833
		c4.1472,13.7534,8.3081,27.555,12.6017,41.3804c3.0623,6.2884,5.1108,13.8932,6.9377,21.8313
		c0.6478,1.4136,3.2619,9.7404,6.3354,19.8252c5.3683,17.6125,12.1533,40.6063,12.2999,41.4374
		c0.1879,0.3384,0.731,1.9698,1.2999,3.8191c0.6327,2.0563,1.3093,4.3918,1.5721,5.5058
		c2.3533,1.6245,4.7508,11.3669,7.2073,21.3523c1.7238,7.0067,3.4775,14.1335,5.2534,18.633l0.006,0.0218
		c1.2722,7.7159,4.1627,15.7184,7.0917,23.8272c2.1957,6.0789,4.4132,12.2188,5.989,18.3456
		c2.1866-0.0068,4.4921-0.2775,6.848-0.555c2.4857-0.2922,5.0289-0.5919,7.5552-0.5964l0.832-1.2478l0.032-0.0482h0.0578
		c0.2222,0,0.4448,0.0003,0.7461,0.0754l0.1301,0.0323l-0.0601,0.1205c-0.1182,0.237-0.2375,0.4734-0.3135,0.7509
		c1.6766-0.3112,3.34-0.5686,5.0607-0.6908c1.7787-0.1261,3.6218-0.108,5.6103,0.1448l0.1503,0.019l-0.0677,0.136
		c-0.1058,0.2115-0.1945,0.4243-0.2739,0.6452c-0.0785,0.2186-0.1505,0.4516-0.2225,0.7041l-0.0213,0.0734l-0.0762,0.0048
		c-2.3508,0.1423-4.7029,0.2849-6.9698,0.4955c-0.0256,0.1406-0.0601,0.2594-0.0927,0.3688h-0.0003
		c-0.0683,0.2305-0.1259,0.4247-0.0397,0.7265l0.0303,0.1069l-0.108,0.0272c-0.2642,0.0658-0.4664,0.1307-0.6613,0.1956
		c-0.1497,0.4223-0.6154,1.2452-1.1761,2.2354c-1.4128,2.4928-3.4407,6.0735-2.4492,6.7346l-0.0805,0.1959
		c-0.3288-0.0655-0.6619-0.0697-0.9949-0.07c-0.1653,0.311-0.3146,0.5675-0.4518,0.8022h-0.0005
		c-0.4425,0.7571-0.7617,1.3025-0.9281,2.5041c1.5032-0.0689,3.0104-0.121,4.5267-0.165c1.5537-0.0448,3.1221-0.0811,4.7078-0.1171
		l0.0754,0.0289c1.7343,1.6212,1.2725,2.721,0.0828,3.4727c-1.1223,0.7095-2.912,1.0897-4.0394,1.3085
		c-2.3474,5.576-5.2472,11.425-8.1145,17.2083l-1.1426,2.3068c-0.0105,2.4035-1.5024,5.0043-3.1264,7.8358
		c-1.7373,3.0288-3.6274,6.3238-3.9911,9.8915c3.7037,0.148,7.4979,0.3937,11.3423,0.6421
		c7.5033,0.485,15.2016,0.9828,22.737,0.7934l0.1105-0.0028v0.1105v0.504v0.1077h-0.1079c-7.8538,0-15.6487-0.2764-23.3881-0.5502
		c-9.9309-0.3518-19.7711-0.7002-29.5178-0.4581c-7.1354,1.7671-14.1703,2.8168-21.1671,3.4381
		c-6.3309,0.6931-12.9014,0.79-18.0947,0.8663l-1.0713,0.0159h-0.0057l-0.5606-0.0275c-2.0892,0.0204-4.1797,0.0278-6.2748,0.0278
		l-0.0071-0.0003c-6.77-0.4606-13.6194-1.1571-20.4809-1.8544c-17.7539-1.8043-35.5932-3.6179-52.5648-1.3881
		c-2.4193,1.0017-9.8824,1.8238-17.8339,2.3748c-10.8649,0.7529-22.661,0.9969-23.7586,0.5083
		c-11.6223,0.2582-22.9518-0.6877-34.1807-1.6254c-10.5474-0.8804-21.0081-1.7541-31.5272-1.6152
		c-3.8713,0.413-7.7947,1.0196-11.7292,1.6282c-7.0552,1.0905-14.1503,2.1881-21.0376,2.1881l-0.0541-0.0147
		c-0.7945-0.4615-5.0735-0.7104-10.2039-0.8294c-8.9668-0.2086-20.4959-0.0374-20.6257,0.0924l-0.0572,0.0298
		c-3.3358,0.6066-6.4605,0.5893-9.5791,0.572c-2.0676-0.0113-4.1343-0.0229-6.2606,0.1488c-1.082,0.3376-2.0546,0.597-2.8554,0.7758
		c-0.9082,0.2032-1.6004,0.3053-1.9879,0.3053L8.3639,469.9603L8.3639,469.9603z M195.6867,16.0834
		c-0.7056,1.8813-1.4905,3.7811-2.3102,5.688c-0.7506,2.1055-1.3263,4.1619-1.5695,6.0894l-0.006,0.0237
		c-2.639,7.0594-5.3532,14.129-8.0674,21.1998c-6.1305,15.9695-12.2655,31.9499-17.7075,48.2766l-0.0011,0.0037
		c-0.2569,0.6848-0.6945,1.7136-1.2144,2.9361c-1.6331,3.839-4.0845,9.6024-4.2421,12.4461
		c2.8746-3.1057,4.9144-10.5316,6.8703-17.6499c1.9883-7.2374,3.8909-14.1585,6.5259-15.9781
		c0.2988-1.2382,0.9204-2.4182,1.537-3.5884c0.6004-1.1387,1.1971-2.2703,1.4777-3.4285l0.0459-0.0649
		c1.2751-0.8305,5.0973-9.5236,9.1418-19.6279c5.6197-14.0394,11.6555-30.7874,11.9058-32.9978l0.0085-0.0315
		c0.3557-0.8071,0.8343-1.6571,1.317-2.5146c0.9657-1.7164,1.9508-3.467,1.9845-4.9253c-0.1828-0.0657-0.3129-0.1318-0.4431-0.1967
		l0.0196-0.1998c1.2835-0.3564,3.1198-0.9799,4.1998-2.0778c0.3818-0.3881,0.6676-0.837,0.7999-1.3583
		c-0.4325-0.8527-0.3926-1.3499-0.0703-1.6186c-0.1698-0.561-0.4898-1.1804-0.9966-1.8635
		c-1.5321-0.0677-3.0708-0.0695-4.542-0.0695c-0.7537,2.7638-2.1815,5.9599-3.6646,9.2801
		C196.3533,14.5795,196.0177,15.3305,195.6867,16.0834L195.6867,16.0834z M290.7414,254.68
		c-2.3309-7.2292-4.6088-14.4502-6.8491-21.6629c-0.5581-1.146-1.15-2.2476-1.7807-3.2987l-0.0145-0.0391
		c-0.7143-4.7089-2.6498-9.4966-4.5555-14.2112c-2.3088-5.7112-4.5742-11.317-4.5893-16.5685
		c-1.3306-1.1401-4.8645-14.1152-6.8675-21.4705l0.0005-0.0003c-0.7532-2.7649-1.2892-4.733-1.4014-4.9575l-0.0094-0.0266
		c-0.2656-1.2838-2.0599-7.8908-3.6516-13.03c-0.9885-3.1918-1.8947-5.8108-2.2952-6.2113l-0.028-0.0487
		c-3.1989-12.0305-7.1382-24.0812-11.0531-36.0593c-4.1893-12.8163-8.352-25.55-11.5529-38.0925
		c-5.0094-10.0239-8.0405-22.1227-11.0461-34.1206c-2.5186-10.0545-5.0201-20.0396-8.651-28.6631h-0.4377
		c-0.5014,1.0644-0.8966,3.5234-1.2878,5.9573c-0.4717,2.9333-0.9382,5.8311-1.6231,6.3079c0,10.5324,0.0008,21.2629,0.2698,32.066
		c0.2696,10.834,0.8099,21.7585,1.8893,32.6622l0.0005,0.0071c0.1066,3.1589,0.3416,10.3711,0.6732,20.5881
		c2.3491,72.2732,9.5865,294.9414,11.0928,297.4022c1.2271-0.0219,2.7232-0.6407,4.2024-1.2529
		c0.9068-0.3756,1.8082-0.7486,2.6425-0.9833c1.8048-0.5074,3.3029-0.3801,3.9076,1.6943l0.3662,0.1831
		c16.1955-0.0003,32.4048-0.2701,48.6893-0.7827c16.2813-0.5125,32.6475-1.2679,49.1595-2.2388
		c0.125-0.1176,0.248-0.1865,0.3707-0.2491v-0.7832c-5.5723-19.6132-11.7241-39.2272-17.8455-58.7458
		c-5.8986-18.8079-11.77-37.5287-17.068-56.0713c-4.2789-8.5632-6.6544-19.3921-9.0114-30.1405
		c-0.5173-2.3584-1.0344-4.714-1.5701-7.0401c-0.0198-0.0369-0.0363-0.0632-0.0494-0.0763L290.7414,254.68L290.7414,254.68z
		 M296.5961,467.7765c0.8459-0.0632,1.6912-0.1327,2.5378-0.2081c5.106-0.5593,10.0511-1.5083,13.9788-3.1493
		c-0.701-0.6205-1.5451-0.6304-4.6984-0.6681c-1.4052-0.017-3.2653-0.0397-5.7623-0.1241v0.0003
		c-13.5533,0-27.002,0.2888-40.2724,0.5735c-7.6512,0.1638-15.2447,0.3268-22.7636,0.4326v0.3685
		c6.0049,0.3637,12.0623,0.9811,18.1913,1.6058c7.0872,0.7228,14.2719,1.4547,21.5969,1.8159
		C285.1396,468.3672,290.8588,468.2051,296.5961,467.7765L296.5961,467.7765z M302.7189,467.3204
		c-1.1776,0.1791-2.3741,0.3322-3.5799,0.4643L302.7189,467.3204L302.7189,467.3204z M35.8866,467.2464
		c6.7414-0.0275,13.8022-0.0562,20.751,0.7733c7.8775,0.4422,16.5022-0.9023,25.0362-2.2326
		c3.9356-0.6137,7.8528-1.2246,11.6623-1.6552l0.0119-0.0009c10.6384,0,21.2539,0.8997,31.9711,1.808
		c9.1658,0.777,18.4073,1.5602,27.7909,1.7923c1.9899,0,21.9883-0.155,36.0473-1.2518c7.0739-0.5519,12.6292-1.3334,13.5805-2.4338
		c-10.4057-0.7104-20.9809-0.3186-31.4027,0.0672c-6.1039,0.2259-12.1559,0.4501-18.0831,0.4501h-0.055l-0.0329-0.0457
		c-0.1197-0.1672-9.6466-0.5255-21.5878-0.9025c-18.2049-0.5749-41.9882-1.169-46.724-1.2121l-60.8156,0.8637
		c-0.2495,0.1349-0.5117,0.7538-0.7297,1.5038c-0.2755,0.9499-0.4688,2.0999-0.4819,2.7819c1.006,0.4093,3.2893,0.0238,4.9561-0.258
		l0.3889-0.0655l0.0195-0.0014C30.6904,467.2674,33.2649,467.2569,35.8866,467.2464L35.8866,467.2464z M237.096,464.6351v0.36h1.368
		v-0.36H237.096L237.096,464.6351z M225.1228,459.628c11.9094-0.0728,24.1109-0.1474,36.3523,0.7594l37.2133-0.216
		c5.1265-0.197,16.1589-0.3946,25.2029-0.5562c7.2697-0.1298,13.2536-0.2375,13.8401-0.3016
		c0.8091-0.9998,1.2892-2.2549,1.7357-3.4254c0.4427-1.1608,0.8549-2.2411,1.5335-2.9344
		c0.7923-3.9135,3.4665-8.3563,6.1636-12.8384c3.2684-5.4309,6.5719-10.9199,6.5719-15.5483v-0.0966l0.0961-0.0105
		c0.6454-0.0717,1.4536-0.1616,2.3051-0.3229c0.826-0.1562,1.694-0.3813,2.4948-0.7214c0.0002-0.1176,0.0017-0.2231,0.0093-0.3234
		c0.0057-0.0748,0.0142-0.1477,0.0295-0.2191c-0.5114-0.0057-1.1591-0.04-1.8836-0.0785c-2.9844-0.1599-7.2802-0.3904-8.3282,1.0443
		l-0.0408,0.0555l-0.0671-0.0133c-0.3498-0.0697-0.7042-0.07-0.9871-0.07h-0.0887l-0.0173-0.087
		c-0.0652-0.3271-0.1301-0.5916-0.1942-0.8484c-4.6766,0.0573-9.318,0.5355-13.9493,1.0123
		c-1.658,0.1706-3.316,0.3416-4.9898,0.4938c-0.0576,0.0771-0.1114,0.1528-0.1616,0.222h-0.0002
		c-0.4984,0.6846-0.6248,0.8586-1.7731,0.7912l-0.0621-0.0037l-0.0278-0.0558c-0.1352-0.2704-0.2086-0.5366-0.2753-0.8014
		l-1.9318,0.0663c-11.8043,0.4051-23.858,0.8189-34.8837,2.5186c-2.9942,1.9601-13.8405,1.7802-24.4904,1.6038
		c-11.2692-0.1868-22.3195-0.3699-23.4746,1.9406l-0.0388,0.0771l-0.0834-0.0207c-0.2741-0.0683-0.5561-0.0686-0.8379-0.0686
		h-0.0842l-0.0204-0.0819c-0.064-0.2568-0.1292-0.515-0.1916-0.7155c-4.8132-0.3257-10.1115,0.1364-15.2592,0.5851
		c-5.9094,0.515-11.6232,1.0131-16.2025,0.2843c-2.2607,0.0717-4.6486,0.1621-6.988,0.3419
		c-2.3369,0.1797-4.6194,0.4493-6.6643,0.8796l-0.0252,0.0023c-2.5727-0.0876-11.5901,0.4207-21.4549,0.9765
		c-14.1556,0.7979-30.0549,1.6934-31.271,1.0426c-4.8285,0.5057-9.9241,0.8691-14.9377,1.1123
		c-5.6497,0.2736-11.1949,0.3954-16.1393,0.3966c-0.0366,0.1219-0.0377,0.2954-0.0377,0.4683v0.0802l-0.0771,0.0233
		c-0.7103,0.2129-1.1007-0.2656-1.2328-0.4277l-0.0011-0.0012c-1.4318-0.0235-8.3659,0.1605-16.1249,0.3923
		c-11.4205,0.3416-24.6146,0.7722-24.6438,0.8014l-0.0363,0.0363l-0.0513-0.0054c-2.4602-0.2633-9.7021-0.5269-15.3737-0.167
		c-3.5853,0.2274-6.5327,0.6988-7.2102,1.5662l-0.0275,0.0247c-2.6629,1.6699-10.7382,7.1654-16.3111,12.5374
		c-3.2445,3.1272-5.6367,6.2059-5.6007,8.441c5.2954,0.4938,11.7405,0.2347,18.129-0.0224
		c4.5318-0.1826,9.0363-0.364,13.0876-0.2747l142.3987-0.216c1.3451-0.3761,5.5244-0.4178,9.5349-0.2072
		c3.64,0.1916,7.1498,0.593,8.2879,1.1429C218.7652,459.6671,221.934,459.6476,225.1228,459.628L225.1228,459.628z M33.948,444.6787
		c-2.5228,1.8646-5.1693,3.8211-5.9627,6.711c1.1163-0.4969,2.6493-2.1617,3.6471-3.2454h0.0006l0.3643-0.394l0.0252-0.0207
		c3.7579-2.1473,7.4217-5.4938,10.9857-8.7491c1.6687-1.5242,3.3165-3.0291,4.9439-4.3835c0-1.4803-0.0025-1.5364-0.2613-2.7023
		c-1.2067,0.2679-1.8383,0.6579-2.664,1.1673l-0.1055,0.0649c-0.0703,0.5632-0.1414,1.1293-0.21,1.7481l-0.0136,0.1224
		l-0.1196-0.0298c-0.2741-0.0683-0.5553-0.0686-0.7659-0.0686h-0.0771l-0.0249-0.0743c-0.1318-0.3954-0.2634-0.7923-0.3407-1.1321
		c-0.2571,0.0468-0.4538,0.0658-0.6134,0.0802c-0.4017,0.0374-0.5553,0.0518-1.0678,0.5587v2.8355v0.0575l-0.0482,0.0323
		c-0.8439,0.5624-1.688,1.1251-2.4123,1.2954C38.8313,441.0679,36.4493,442.8299,33.948,444.6787L33.948,444.6787z
		 M99.0612,445.6161c-2.0551-0.9941-2.0713-1.0298-2.7113-2.4483v-0.0003c-0.0581-0.1292-0.1213-0.2704-0.1902-0.4204
		c-1.7932,0.0043-6.1744,0.1721-11.6481,0.3813c-14.614,0.5587-37.0117,1.4151-38.8142,0.2489l-0.0411-0.0269l-0.0071-0.0479
		c-0.0635-0.4467,1.0256-0.7971,2.9319-1.0692c8.2658-1.1806,32.3629-1.3589,43.0064-1.4377
		c2.814-0.0204,4.6868-0.0352,5.0661-0.0578c0.8674-2.4375,6.7294-1.8882,10.0097-1.5803c0.7889,0.074,1.4264,0.1338,1.8048,0.1338
		h0.0502l0.0326,0.0391c0.3467,0.4161,0.769,0.9082,1.1917,1.4012c8.9535-0.0023,18.0927-0.5842,27.2866-1.169
		c14.1383-0.9,28.4088-1.8079,42.3635-0.6313c1.7793-0.0712,3.5595-0.1423,5.3331-0.144c0.4238-0.7314,1.0497-1.3527,1.8085-1.8547
		c1.3623-0.9006,3.1584-1.4193,4.9875-1.5004c1.8295-0.0811,3.697,0.2741,5.2027,1.1194c0.8623,0.4842,1.6067,1.1293,2.1588,1.9449
		c1.3521-0.0689,2.7003-0.0692,4.0473-0.0692c3.2114-0.1854,6.4721-0.3625,9.7552-0.5406
		c17.0209-0.9232,34.6527-1.8796,51.0701-4.3543l0.0497,0.0043l0.1825,0.0595v0.0003c0.783,0.2526,1.3207,0.4272,1.6691,1.8788
		c14.0657-0.0048,28.4553-1.2186,42.8493-2.4321c10.3913-0.8762,20.7862-1.7532,31.0774-2.1756h0.0105
		c0.3016,0.0181,0.5972,0.034,0.8943,0.0496c2.1205,0.1114,4.3668,0.2302,6.8417,1.1818l0.0697,0.0266v0.0737
		c0,0.2081,0.0003,0.4164,0.066,0.6143l0.0397,0.1193l-0.1238,0.0207c-0.2109,0.0352-0.4062,0.0709-0.5958,0.1159
		c-0.1854,0.0442-0.3611,0.0967-0.5341,0.1658l-0.0462,0.0077c-13.0657-0.8039-25.5969,0.6389-38.0148,2.0685
		c-9.8135,1.1299-19.5579,2.2518-29.4429,2.2518l-0.0156-0.0011c-1.7495-0.2622-5.574-0.6843-8.6057-0.6676
		c-1.9083,0.0108-3.496,0.1922-4.0278,0.6908c-1.114,3.8103-6.1747,3.5147-9.8181,3.3018
		c-0.7464-0.0437-1.4332-0.0839-2.0129-0.0839h-0.0638l-0.0306-0.0564l-1.2659-2.3207
		c-10.3414-0.1426-20.6839-0.0695-31.0275,0.5765c-3.6349,0.5378-7.3794,0.5267-11.0495,0.5154
		c-4.1595-0.0125-8.2259-0.0249-11.9236,0.7665c-0.1429,0.3739-0.3345,0.7141-0.5683,1.0208
		c-1.1032,1.4454-3.1371,2.1676-5.3116,2.374c-2.1628,0.2052-4.4706-0.0992-6.1345-0.7064
		c-0.6389-0.2333-1.1852-0.5122-1.5941-0.824l-0.0414-0.0694c-0.373-2.4517-27.9003-1.0386-43.2195-0.2523
		c-4.5941,0.2359-8.0938,0.4156-9.4427,0.4161c-2.715,0.4453-6.5744,0.2996-10.436,0.1545
		c-4.8333-0.1817-9.6721-0.3637-12.2349,0.6114c-0.9646,3.2153-5.1364,2.937-8.4557,2.7156
		c-0.8728-0.0581-1.6866-0.1125-2.3582-0.0978L99.0612,445.6161L99.0612,445.6161z M50.4065,435.493l1.1886,0.1981
		c0.7509-0.0003,9.2497-0.0315,15.1826-0.1945c2.9546-0.0811,5.2699-0.1919,5.6543-0.3379
		c-0.0003-0.6248-0.0128-0.6718-0.3985-1.701l-0.5465-0.0156c-1.1319-0.0349-3.636-0.1122-6.5526-0.1122
		C58.7183,433.3299,50.6625,433.6714,50.4065,435.493L50.4065,435.493z M74.9483,435.1735c0.0542,0.053,0.1134,0.1063,0.2101,0.1576
		c5.8994-0.0003,12.3704-0.0723,18.8972-0.2968c6.5024-0.2231,13.0674-0.5984,19.1886-1.2036
		c-0.0564-0.5133-0.0592-1.0247-0.0595-1.5352c-5.006-0.5533-11.2204-0.7019-17.5198-0.5845
		c-7.4211,0.1386-14.961,0.648-20.7845,1.3042c0,0.3354,0.0006,0.6854,0.0085,1.027
		C74.897,434.415,74.9151,434.7948,74.9483,435.1735L74.9483,435.1735z M48.8962,431.4445
		c0.1375,0.8271,0.2699,1.6872,0.4022,2.5475c1.1557-0.4754,2.8794-1.446,4.5556-2.5067c1.6869-1.0675,3.3253-2.226,4.2863-3.0614
		c-1.4386,0.0482-3.4112,0.4445-5.207,1.0208C51.2115,429.9972,49.6556,430.7138,48.8962,431.4445L48.8962,431.4445z
		 M118.0562,431.5562c-1.4576,0.1256-2.7153,0.7727-2.647,2.2561c2.1807-0.1383,4.4359-0.2095,6.692-0.2798
		c0.3265-0.3481,0.2704-0.6911-0.0247-0.9862c-0.3305-0.3305-0.9411-0.6109-1.6636-0.7926
		C119.6833,431.5704,118.8411,431.4888,118.0562,431.5562L118.0562,431.5562z M124.2074,432.8724
		c0.0195,0.157,0.0623,0.2664,0.1216,0.2985c0.8906-0.0012,2.2062-0.0697,3.5297-0.2313c0.9159-0.1117,1.836-0.2687,2.6195-0.4776
		c-0.7523-0.3172-1.6495-0.4657-2.543-0.5142c-1.4363-0.0782-2.8616,0.1043-3.6814,0.2707
		C124.1991,432.4644,124.1853,432.6943,124.2074,432.8724L124.2074,432.8724z M55.0857,432.2351
		c0.254,0.0011,0.5145,0.0091,0.8314,0.0714c1.9162-0.1057,3.8273-0.1137,5.764-0.1216c3.255-0.013,6.5869-0.0272,10.1659-0.5111
		c-0.1233-1.2319-0.1361-1.3014-0.354-1.5225c-0.6282,0.0697-1.2574,0.1423-1.8816,0.2809l-0.1766,0.0391l0.0496-0.1738
		c0.1497-0.5238,0.1536-0.5349,1.1926-1.4358l-0.0349-0.0558c-0.0258-0.0419-0.0468-0.0788-0.0615-0.1145
		c-1.5063-0.265-10.1004-0.4042-10.997-0.4161c-0.3569,0.9377-1.4213,1.5199-2.4367,2.0744
		C56.1305,430.9051,55.165,431.4321,55.0857,432.2351L55.0857,432.2351z M146.1835,431.1509
		c0.0581,0.2917,0.1162,0.5893,0.1758,0.9403h3.9378c0.0709-0.1783,0.1797-0.3512,0.2937-0.523
		c-0.7642-0.6248-3.0282-0.4944-4.0728-0.4345L146.1835,431.1509L146.1835,431.1509z M152.5686,431.3133
		c0.0003,0.3067,0.0031,0.6134,0.0536,0.9173c0.6577-0.0261,1.9242-0.0569,3.56-0.0978c7.1071-0.1766,21.2117-0.5281,22.8076-1.3777
		c-0.966-0.574-5.8011-0.7115-11.0826-0.612C160.9789,430.2736,153.3064,430.8127,152.5686,431.3133L152.5686,431.3133z
		 M72.93,430.6534c0.0802,0.2715,0.2205,0.5511,0.4501,0.7914c8.9563,0.3135,18.3413-0.2208,27.7257-0.7546
		c3.3953-0.1933,6.7915-0.3869,10.1761-0.5403c0.055-0.0975,0.11-0.161,0.1638-0.2168c-0.4723-2.0251-0.489-2.084-0.8717-2.5957
		c-2.4644-0.0615-5.1245-0.0728-7.8908-0.0334c-4.4067,0.4586-9.2191,0.5497-13.7214,0.5789
		c-5.7558,0.4028-11.3652,1.0094-16.1118,1.8176C72.8195,429.9181,72.8186,430.2778,72.93,430.6534L72.93,430.6534z
		 M88.941,427.6677c0.5805-0.0406,1.1625-0.0785,1.7456-0.1151c4.0408-0.2537,8.1198-0.4088,11.9914-0.4643
		c2.4826-0.2591,4.8345-0.6346,6.9262-1.1834c-1.8006-0.7481-7.4688-0.8076-13.5244-0.4876
		c-7.0058,0.3702-14.5174,1.2521-17.1717,2.1699c0.1278,0.0474,0.2647,0.1049,0.424,0.1834
		c2.1002-0.0703,4.5009-0.0799,7.0546-0.0901h0.0003C87.2232,427.6773,88.0767,427.6733,88.941,427.6677L88.941,427.6677z
		 M41.3456,429.1714c-0.2778,0.6466-0.5683,1.3235-0.6486,2.2085c0.4572-0.415,0.7855-0.9933,1.0256-1.6135
		c0.2563-0.6616,0.4142-1.3737,0.5207-1.9871c-0.1406,0.0182-0.2846,0.0627-0.4277,0.11
		C41.7036,428.3389,41.5267,428.7499,41.3456,429.1714L41.3456,429.1714z M44.6335,428.9566
		c-0.0646,0.5839-0.1284,1.1696-0.1366,1.8102c0.4198-0.0947,0.7761-0.1437,1.0786-0.1854
		c1.0482-0.1449,1.4079-0.1956,1.3719-1.9431C45.1962,428.7032,45.127,428.7111,44.6335,428.9566L44.6335,428.9566z
		 M124.2672,429.8773c1.0684,0.2129,2.1798,0.4218,3.2905,0.6299c0.2732,0,0.6794,0.0026,1.1154,0.0048
		c3.706,0.021,10.393,0.0592,13.693-1.2745c0.3555-1.0224,0.3464-1.8278,0.0584-2.4528c-0.3991-0.8662-1.3399-1.402-2.5934-1.7033
		c-1.2733-0.3061-2.8678-0.369-4.549-0.2894c-4.9779,0.2364-10.6832,1.7082-11.1535,1.8553
		C124.1314,427.6804,124.1986,428.7783,124.2672,429.8773L124.2672,429.8773z M48.5076,428.7581
		c-0.1585,0.2038-0.4249,0.5465,0.0292,1.0276c0.3662-0.0119,1.2388-0.1601,2.0265-0.4065c0.4663-0.1454,0.9014-0.3251,1.175-0.527
		c-0.4176-0.1443-0.7055-0.1451-3.1913-0.1451L48.5076,428.7581L48.5076,428.7581z M211.8217,426.9715
		c0.184,1.0182,0.43,1.9494,0.7446,2.4557h0.58c0.0646-0.2223,0.131-0.4323,0.2055-0.6392c0.0822-0.2288,0.1743-0.4493,0.284-0.669
		l0.0278-0.0558l0.0615-0.0037c2.3428-0.1477,4.7455-0.265,7.1844-0.3841c5.8195-0.2838,11.851-0.5788,17.9186-1.3323
		c0.0683-1.3039,0.1383-2.6064,0.2058-3.8319c-1.9267-0.0547-4.1343-0.1899-6.4746-0.3333
		c-7.3701-0.4518-16.0572-0.9848-21.1674,0.6681C211.401,423.5968,211.5351,425.3869,211.8217,426.9715L211.8217,426.9715z
		 M158.3308,429.0592c0.0522,0.0508,0.1097,0.1018,0.2018,0.1511c0.445-0.0119,1.4709,0.0184,2.8568,0.0595
		c5.6988,0.1681,17.5155,0.5168,19.9035-1.1568l-0.2075-3.7383c-1.019-0.0901-9.1128-0.1905-15.5767,0.1454
		c-3.6167,0.1879-6.715,0.5111-7.7553,1.046c0.0107,0.3328,0.106,0.5905,0.2163,0.8861
		C158.1681,426.9862,158.4125,427.643,158.3308,429.0592L158.3308,429.0592z M210.4588,427.5551
		c0.0125,0.218,0.0581,0.4725,0.1097,0.7333c0.0212-0.0901,0.0623-0.2911,0.1511-0.7333H210.4588L210.4588,427.5551z
		 M243.2764,428.0637c0.0626,0.0193,0.1273,0.0403,0.1922,0.0621c0.184-0.0553,0.362-0.0649,0.5395-0.0666v-0.2472
		C243.7571,427.8953,243.5088,427.9795,243.2764,428.0637L243.2764,428.0637z M202.4827,427.3848v-0.0005
		c0.2492,0.0592,0.5357,0.1273,0.828,0.2423c5.0366-0.2069,5.2047-0.2146,5.5809-0.4c0.2761-0.8388,0.4337-1.6279,0.5122-2.3647
		c0.076-0.7089,0.0791-1.3723,0.049-1.9868c-2.7479,0-5.4958,0.0011-8.2287,0.0694c-0.0536,0.4623,0.1794,1.0253,0.4485,1.6764
		c0.3237,0.7829,0.699,1.6914,0.7183,2.7414L202.4827,427.3848L202.4827,427.3848z M45.3367,423.8831
		c-0.2679,1.0729-0.5374,2.1478-0.8087,3.2958c0.5675-0.0627,1.1361-0.1213,1.7045-0.1276c0.0615-0.817,0.0414-0.9082-0.4946-3.1198
		C45.5953,423.8931,45.4521,423.8846,45.3367,423.8831L45.3367,423.8831z M47.1399,424.6057
		c0.214,1.0814,0.5077,2.0256,0.8949,2.4452c15.2614-0.1418,15.4202-0.144,16.4599-0.3515
		c0.1607-0.1724,0.1579-0.4394,0.0907-6.6481c-3.488-0.5383-8.6822-0.3484-13.0734-0.1874
		c-1.8153,0.0663-3.4948,0.1273-4.8549,0.1307C46.6679,420.8912,46.8045,422.9103,47.1399,424.6057L47.1399,424.6057z
		 M255.223,426.2345c1.948-0.0711,5.7401-0.2095,7.3556,0.8167c0.3909,0.0011,1.1937,0.0221,2.2657,0.0496
		c5.575,0.1437,18.5099,0.4774,19.9828-0.779c-0.0649-0.6826-0.0671-1.2968-0.0671-1.9083
		c-1.249-0.6852-5.3745-1.0627-10.2212-1.2535c-8.6837-0.3424-19.65-0.0884-20.6011,0.0527
		c-0.0343,0.5652,0.0462,0.9306,0.2035,1.6469c0.0779,0.3555,0.1749,0.7979,0.2874,1.3983
		C254.6286,426.2555,254.901,426.2461,255.223,426.2345L255.223,426.2345z M69.3388,424.2976
		c0.2704,0.847,0.8255,1.6631,1.7169,2.2467c1.614-0.1392,3.3055-0.2118,4.9978-0.282c0.0442-0.2673-0.0346-0.6696-0.1477-1.2538
		c-0.0901-0.4671-0.2021-1.0491-0.2926-1.7733c-0.1576,0.0011-0.3076,0.0079-0.4093,0.049
		c-0.3518,0.4947-0.707,1.0619-1.0604,1.6279l-0.0278,0.0445l-0.0527,0.0056c-0.1874,0.0193-0.3662,0.0284-0.5363,0.0284
		c-1.1429,0-1.9826-0.4056-2.5571-1.0117c-0.5732-0.6046-0.8807-1.4088-0.9627-2.2082v-0.0005
		c-0.0111-0.112-0.0179-0.2228-0.021-0.3319c-0.2038,0.0136-0.3716,0.0658-0.5369,0.1202
		C69.0914,422.3045,69.027,423.321,69.3388,424.2976L69.3388,424.2976z M241.4738,424.3148
		c0.0303,0.4212,0.0677,0.9394,0.0831,1.5843c0.369,0.0006,0.7379,0.0045,1.1111,0.0578c0.1321-0.4836,0.3637-1.0409,0.5885-1.5832
		c0.2845-0.6866,0.559-1.3507,0.6012-1.7867h-0.0808v-0.0003c-1.4102-0.0003-2.018-0.0005-2.2289,0.2948
		C241.3871,423.1073,241.4185,423.5461,241.4738,424.3148L241.4738,424.3148z M78.6129,422.45
		c0.184,0.9539,0.5318,1.9692,1.1183,3.1535c1.0519-0.1154,2.1487-0.2432,3.2621-0.3722c4.9992-0.5805,10.3538-1.2025,15.518-1.2042
		c1.9196-0.7937,2.4965-1.9034,3.1337-3.1303c0.2596-0.4998,0.5301-1.0199,0.904-1.5491
		c-2.4993-1.2175-16.2402-0.2101-21.8905,0.2038c-1.0417,0.0763-1.808,0.1318-2.185,0.1502
		C78.4105,420.6298,78.4324,421.5122,78.6129,422.45L78.6129,422.45z M287.3375,424.6377c-0.2426,0.2812-0.394,0.646-0.4152,1.11
		c1.0272-0.0686,2.387-0.2367,3.6133-0.4173c1.3892-0.2047,2.5977-0.4181,2.9432-0.5153c-0.3541-0.3648-1.2487-0.718-2.2709-0.8994
		c-0.722-0.1281-1.5046-0.1678-2.2028-0.0627C288.3186,423.9566,287.7148,424.2,287.3375,424.6377L287.3375,424.6377z
		 M115.4378,423.8307c-0.3265,0.3266-0.3098,0.7481,0.2747,1.347c1.9899-0.0697,3.9719-0.0706,6.0217-0.0706
		c0.1672-0.2293,0.1823-0.362,0.4507-2.7122l0.0111-0.0958h0.0961h0.72h0.0887l0.0173,0.087l0.4125,2.0628
		c1.4607-0.1553,2.853-0.1466,4.1833-0.1386c3.8891,0.0232,7.2542,0.0425,10.2574-4.0972
		c-1.9715-0.9269-11.1702-0.6902-14.8187-0.5961l-0.5967,0.015c0.1434,1.785-2.2442,2.4713-4.3577,3.0773
		C117.0043,423.0515,115.8999,423.3687,115.4378,423.8307L115.4378,423.8307z M43.56,423.0965v1.3626h0.1247
		c0.2982-0.4184,0.307-0.4578,0.3073-1.2552C43.8469,423.156,43.7023,423.1121,43.56,423.0965L43.56,423.0965z M105.4086,423.7556
		c0.0003,0.2412,0.0042,0.4859,0.0542,0.7753c2.6025,0,2.7601-0.0025,3.1062-0.1709c-0.1882-1.6279-0.6026-2.0965-1.093-2.0429
		c-0.4637,0.0505-1.0227,0.5411-1.5293,0.985C105.7589,423.4665,105.5778,423.6249,105.4086,423.7556L105.4086,423.7556z
		 M137.8672,423.4055l1.2175,0.4059h3.1462c0.1714-0.5375,0.2075-1.2008,0.1754-1.8428c-0.0487-0.9785-0.256-1.9012-0.3872-2.2612
		c-2.0874,0.0184-2.7165,0.8271-3.6664,2.0509l-0.0002-0.0003c-0.1696,0.2188-0.3495,0.4499-0.544,0.6866
		C137.8089,422.7663,137.8111,423.0877,137.8672,423.4055L137.8672,423.4055z M148.0121,423.8007l0.1999,0.0105
		c0.627,0,0.9757-0.072,1.1132-0.1922l-0.0003-0.0003c0.0859-0.0754,0.0553-0.1933-0.0576-0.3362
		c-0.1451-0.184-0.4119-0.3965-0.7498-0.6185v0.0003c-1.3107-0.8603-3.657-1.8386-4.3752-1.9406
		c-0.0049,0.1477-0.0188,0.3152-0.0327,0.4969c-0.0552,0.7135-0.1284,1.66,0.2126,2.4466
		C145.5301,423.6697,146.7417,423.7338,148.0121,423.8007L148.0121,423.8007z M313.6071,423.804l0.2049,0.0074v-0.0003
		c3.0365,0,5.9925-0.2548,9.254-0.536c0.9567-0.0825,1.9403-0.1678,2.9738-0.25c0.1301-0.4595,0.2129-0.7943,0.2375-1.0857
		c0.0238-0.2803-0.0051-0.5241-0.0924-0.8062c-5.3005-0.9986-11.2567-1.5877-17.115-1.7498
		c-5.859-0.1619-11.6218,0.1032-16.5339,0.813v0.3155c1.5519,0.1967,3.0954,0.212,4.6139,0.2259
		c3.8005,0.0352,7.4554,0.0697,10.7972,2.9293C309.8066,423.668,311.6752,423.7352,313.6071,423.804L313.6071,423.804z
		 M72.1627,423.6051c0.1001,0.0091,0.2109,0.0269,0.3214,0.0618c0.5545-0.0031,0.8456-0.161,0.9865-0.4278
		c0.1378-0.2602,0.1483-0.6347,0.1219-1.0726c-0.3708,0.0496-0.5774,0.1469-0.8521,0.2752
		c-0.1635,0.0765-0.3506,0.1644-0.6097,0.2611c-0.0595,0.2988-0.1165,0.5973-0.1279,0.8926
		C72.051,423.5966,72.104,423.5997,72.1627,423.6051L72.1627,423.6051z M151.2176,422.1835
		c0.4825,0.424,0.9819,0.8631,2.0529,1.2674c0.6585-0.0028,1.7609-0.1602,3.0073-0.3376c2.9681-0.4232,6.7422-0.9615,7.4761,0.1927
		c1.9851-0.0343,4.238,0.0173,6.6228,0.072c7.018,0.1604,15.1852,0.3466,21.0133-1.5582c0.1959-0.9808,0.1996-1.0295,0.1349-2.1949
		c-1.395-0.1366-2.7298-0.2072-4.0638-0.2775c-8.6989,1.9069-19.3002,1.5526-28.885,1.2328
		c-3.3945-0.1131-6.6614-0.2225-9.6789-0.2251c0.0017,0.1599,0.0096,0.3263,0.0538,0.5267
		C150.1671,421.2597,150.683,421.7132,151.2176,422.1835L151.2176,422.1835z M287.136,422.5268
		c2.4177,0.2843,4.8356,0.5706,7.2459,0.9247c0.1029,0.0006,0.2628,0.0071,0.4641,0.015c1.0902,0.0442,3.4427,0.1392,4.2293-0.3937
		c-0.8059-0.4054-2.3324-0.6843-4.0468-0.8756c-3.0027-0.3353-6.5744-0.3985-7.8925-0.4019V422.5268L287.136,422.5268z
		 M273.1,421.8102c3.8446,0.5593,3.8832,0.5672,4.7333,0.921c6.3284,0,6.7524-0.0006,6.9911-0.1582
		c-0.1248-0.9369-0.136-0.9833-0.3611-1.2101c-1.5225-0.002-2.8633-0.0978-4.1369-0.1894c-2.359-0.1689-4.4886-0.322-7.1135,0.176
		C273.1617,421.5046,273.1144,421.6588,273.1,421.8102L273.1,421.8102z M331.4933,421.5428
		c-1.6608-0.3628-2.7014-0.5896-3.1439,1.3139c0.8076-0.0987,1.6248-0.1828,2.4539-0.2597
		c0.8845-0.0819,1.7351-0.1525,2.5948-0.2214c0.0799-0.1678,0.059-0.2018-0.2024-0.5156
		C332.5688,421.7776,332.0031,421.654,331.4933,421.5428L331.4933,421.5428z M114.084,420.7117
		c0,0.3694,0.0009,0.6404,0.8753,1.2818c0.5374-0.2662,1.1347-0.5318,1.7354-0.7379c-0.0459-0.2305-0.0533-0.453-0.0541-0.6367
		c-1.3006-0.3249-1.3663-0.3342-2.5739-0.271C114.0843,420.4838,114.084,420.6023,114.084,420.7117L114.084,420.7117z
		 M104.2052,420.2656c0.2591,0.4493,0.519,0.9967,0.5516,1.6447c0.8909-0.2336,1.6923-0.8149,2.5458-1.4346
		c0.2914-0.2115,0.5899-0.428,0.9023-0.6384c-0.0527-0.2945-0.0592-0.5414-0.0604-0.7818
		c-1.5874-0.0445-2.4077,0.0519-3.3449,0.1621c-0.3424,0.0403-0.7002,0.0816-1.1047,0.1185
		c0.0411,0.1548,0.1658,0.3594,0.3146,0.6029C104.0712,420.0394,104.1369,420.1471,104.2052,420.2656L104.2052,420.2656z
		 M270,421.4354v0.485c1.2144-0.1945,1.5276-0.2478,1.6849-0.364C271.0925,421.4969,270.5451,421.4422,270,421.4354L270,421.4354z
		 M193.6601,419.9226c-0.0842,0.428-0.2738,1.5415,0.2892,1.7286c1.0139,0.0005,2.2161,0.045,3.5118,0.093
		c3.8897,0.1443,8.6338,0.3192,11.8607-0.576c0.0558-0.2245,0.1125-0.4465,0.1703-0.6347
		c-2.9151-0.8966-9.7642-0.7393-13.7197-0.6489C194.9023,419.9044,194.1698,419.9209,193.6601,419.9226L193.6601,419.9226z
		 M42.9738,420.3551c-0.0544,0.5502-0.0456,0.5992,0.167,0.9207c0.2358-0.0584,0.4759-0.1128,0.7597-0.1259
		c-0.0442-0.282-0.051-0.5576-0.0519-0.7948H42.9738L42.9738,420.3551z M211.32,421.2191c1.0432,0,2.0874,0.0025,3.1334,0.072
		c0.6066-0.0292,2.0157-0.0496,3.8651-0.0765c6.4539-0.0935,18.2925-0.2653,20.1784-1.1633h0.0006
		c0.0995-0.0473,0.1627-0.0921,0.1868-0.1327l-1.4684-0.0638c-8.2267-0.36-18.8958-0.8274-25.8474,0.8427
		C211.3271,420.8521,211.3208,421.0173,211.32,421.2191L211.32,421.2191z M342.6936,420.3115
		c0.2299,0.3192,0.4672,0.6488,0.6948,0.9796h4.1919c0.2305-0.5437,0.4782-1.2025,0.6551-1.8014
		c0.1341-0.4538,0.2274-0.8736,0.2421-1.1786c-0.9828-0.2823-2.2906-0.4351-3.5566-0.4841
		c-1.4457-0.0558-2.8347,0.0224-3.621,0.1964C341.4512,418.588,342.0408,419.4058,342.6936,420.3115L342.6936,420.3115z
		 M67.2035,420.682c0.0263,0.0757,0.0538,0.1522,0.0862,0.2483c0.3189-0.0045,0.3495-0.0397,0.4184-0.1205
		c0.0774-0.091,0.1911-0.2239,0.5332-0.4048c-0.0473-0.2302-0.0547-0.4561-0.0558-0.6817
		c-0.4226,0.0607-0.8413,0.1256-1.2067,0.2358C67.0326,420.1902,67.1142,420.4254,67.2035,420.682L67.2035,420.682z
		 M73.6288,419.6808c-0.0397,0.1437-0.0893,0.3246,0.4686,0.8904h0.5644c-0.0422-0.9258-0.6333-0.94-1.0199-0.9374L73.6288,419.6808
		L73.6288,419.6808z M243.398,420.4272c-0.3382,0.0003-0.4411,0.006-0.5891,0.1032c0.1984,0.0195,0.4561,0.0315,0.5689-0.0329
		C243.3988,420.4855,243.4076,420.4629,243.398,420.4272L243.398,420.4272z M333.7653,420.2182
		c1.5474,0.1633,3.1975,0.2781,4.8867,0.3529h1.381c0.2693-0.4215,0.4051-0.7812,0.4289-1.0862
		c0.042-0.5451-0.2858-0.9252-0.8442-1.1812c-0.5867-0.2696-1.4241-0.4059-2.3618-0.4558
		c-2.8086-0.1494-6.4953,0.4774-7.1685,0.6208c-0.2435,0.5485-0.2517,0.5885-0.1927,1.1837
		C331.077,419.8854,332.3821,420.0722,333.7653,420.2182L333.7653,420.2182z M117.9428,419.2751
		c0.1808,0.002,0.3702,0.0122,0.6097,0.0697c0.392-0.0629,0.7801-0.0692,1.1667-0.0697c-0.0493-0.3529-0.0542-0.6579-0.0547-0.9581
		c-0.1004-0.0193-0.2041-0.0278-0.3081-0.0278c-0.3166,0-0.6349,0.087-0.8901,0.2426c-0.2486,0.1519-0.438,0.3699-0.5043,0.6358
		v0.0003C117.9533,419.2029,117.9473,419.2383,117.9428,419.2751L117.9428,419.2751z M321.1398,418.9245
		c1.6895,0.1409,3.382,0.2829,5.1316,0.4226c0.3223-0.002,0.8373-0.2903,1.2118-0.6647c0.1312-0.1313,0.2446-0.2733,0.3237-0.415
		c0.0757-0.1358,0.1205-0.2724,0.1205-0.3994c0-0.1136-0.038-0.2234-0.1228-0.3211l-0.5085-0.0034
		C325.2642,417.5256,321.4962,417.4916,321.1398,418.9245L321.1398,418.9245z M154.152,418.761
		c0.0888,0.0887,0.18,0.1769,0.29,0.2653c0.0105-0.6514,0.067-1.2594,0.1267-1.8632c-0.5403,0.197-0.5275,0.3152-0.4748,0.7665
		C154.118,418.1365,154.1497,418.4043,154.152,418.761L154.152,418.761z M156.234,418.7091l4.2214,0.4223
		c3.8503-0.0839,7.8043-0.2327,11.8085-0.3835c6.2884-0.2367,12.704-0.4785,19.0588-0.4807
		c0.0552-0.2764,0.1114-0.5505,0.1678-0.792H189.9h-0.0578l-0.032-0.0482c-0.1338-0.2007-0.2084-0.4011-0.2755-0.5998
		c-3.5679,0.0031-7.1983,0.2251-10.8334,0.4467c-7.3426,0.4482-14.7079,0.8977-21.6312-0.4445
		c-0.2559,0.0638-0.5102,0.1301-0.7018,0.2472C156.1756,417.7189,156.1708,417.7578,156.234,418.7091L156.234,418.7091z
		 M204.1302,419.0603c1.1518,0.0184,2.2782,0.0366,3.3333,0.0709c0.6293-0.0697,1.2597-0.14,1.8899-0.144
		c0.235-0.3552,0.2429-0.4235,0.3067-1.8938c-3.4001-0.7189-7.5396-0.4368-11.1396-0.1925
		c-1.6053,0.1091-3.1045,0.2106-4.3852,0.2137c-0.301,0.4748-0.311,0.3972-0.3112,1.2447
		C196.7,418.9415,200.5444,419.0033,204.1302,419.0603L204.1302,419.0603z M264.8347,418.7635
		c5.0746,0.0689,10.1954,0.1386,15.3579,0.3679l0.4501,0.0017h0.0003c1.1716,0.0065,2.3323,0.013,3.8035-0.4005
		c-0.0391-0.1627-0.0453-0.3215-0.0465-0.4793c-2.1104-0.2676-18.5649-1.7615-30.5603-2.4786
		c-6.6759-0.3991-11.9568-0.5647-12.5691-0.1559c-0.0017,0.093-0.0065,0.1899-0.0119,0.2877
		c-0.0357,0.6125-0.0766,1.3085,0.9496,2.0032C249.6503,418.5574,257.1911,418.66,264.8347,418.7635L264.8347,418.7635z
		 M151.7465,418.9857l0.0419,0.0011c0.1299-0.059,0.2538-0.0697,0.3756-0.0717c0.1831-0.6134,0.1848-0.6806,0.121-2.0214
		c-1.3714-0.0686-2.8085-0.1009-4.1666-0.0309c-1.3549,0.0697-2.6314,0.2412-3.6865,0.5817v0.9176
		C146.4131,418.8409,149.1455,418.9154,151.7465,418.9857L151.7465,418.9857z M211.2531,418.609l0.5684,0.3787l0.394,0.0026h0.0006
		c1.6942,0.0139,6.3065,0.0524,7.2301-0.726c-0.0612-0.3005-0.1225-0.5485-0.1826-0.79c-0.9456-0.0096-1.9746-0.1738-2.9738-0.3334
		c-0.6826-0.1091-1.3521-0.2163-1.9752-0.2693C212.6863,416.733,211.4226,416.9788,211.2531,418.609L211.2531,418.609z
		 M67.3169,417.8473c0.5604,0.0771,1.2053,0.2395,2.2969,0.8504c0.2597-0.0193,0.7688-0.3206,1.4502-0.7237
		c1.3246-0.7838,3.284-1.9437,5.4944-2.2258l0.0595-0.0076l0.0377,0.0462c0.6486,0.7928,0.6571,0.8028,1.2881,2.2048
		c4.7225,0.9179,9.9145,0.3813,15.1053-0.1556c5.2126-0.5392,10.4267-1.0786,15.1815-0.1511
		c1.3326-0.8597,2.3496-1.2716,3.435-1.2444c1.076,0.0269,2.2088,0.4867,3.7735,1.3708c0.5485-0.4819,0.9796-0.949,1.3487-1.3482
		c0.3101-0.3353,0.5769-0.6245,0.8359-0.8393c0.9768-0.8116,1.7864-0.5893,3.9986,2.067c1.6319-0.0113,2.6433-0.5885,3.6592-1.1676
		c1.4117-0.8048,2.8318-1.6149,5.8785-0.9916c10.7975,0.4572,11.0636,0.0998,12.7117-2.1195
		c0.9465-1.2742,2.3392-3.1493,6.3046-5.8116c-0.2835-1.0372-0.9303-2.7726-1.673-4.7673
		c-1.8094-4.86-4.1879-11.2533-3.3304-12.9804c-2.1133-0.6639-4.0861-0.6582-5.9471-0.6531
		c-0.9933,0.0028-1.9562,0.0054-2.8956-0.0927c-0.2288,0.0003-1.0123,0.0306-2.236,0.0777
		c-10.1211,0.3903-50.3249,1.9403-56.067-2.6121c-0.8422-0.6676-0.9839-1.459-0.2435-2.3927l0.0666-0.0391
		c0.4334-0.072,0.8856-0.1448,1.3445-0.2075c0.4329-0.0592,0.8736-0.1114,1.3127-0.1474c0.845-7.3752,2.9084-14.4794,4.9609-21.5459
		c1.1262-3.8769,2.2498-7.7443,3.1666-11.6413c2.571-14.3632,6.2252-27.8975,9.9193-41.5826
		c1.0703-3.9657,2.145-7.9452,3.1856-11.916l0.0448-0.0629c0.4399-0.2931,3.6145-12.8772,6.889-25.8587
		c1.1937-4.7313,2.4007-9.5156,3.5062-13.822l0.0039-0.0122c1.5831-4.1091,2.6155-8.4948,3.6425-12.8593
		c1.1642-4.9468,2.3227-9.8686,4.2744-14.3498c1.7773-8.1236,4.394-17.4864,7.3902-26.6281
		c2.954-9.013,6.2785-17.8137,9.5315-25.0007c1.5228-5.8014,4.1434-11.8755,6.7487-17.9143
		c3.2961-7.6402,6.569-15.2263,7.5563-22.1159c-0.0913,0.0006-0.1758,0.0017-0.2543,0.008
		c-0.0312,0.0022-0.0607,0.0056-0.0902,0.0099c0.0582,0.0425,0.1208,0.0924,0.1854,0.157l0.1057,0.1057l-0.1338,0.0666
		c-1.3195,0.6596-1.8765,2.9722-2.3233,4.8277v0.0002c-0.0737,0.3058-0.1451,0.6015-0.2126,0.8629l-0.006,0.0164
		c-0.5794,1.3036-2.4866,6.5302-4.6015,12.3264c-3.0537,8.3701-6.54,17.9249-7.1373,18.644
		c-2.3273,6.4984-4.7687,12.9611-7.2516,19.5338c-1.5783,4.1785-3.174,8.4024-4.7667,12.7054l-0.0414,0.0527
		c-0.1117,0.0743-1.4119,3.3032-2.5588,6.3618c-0.8257,2.2022-1.5656,4.3121-1.715,5.0885l-0.0051,0.0178
		c-3.5294,9.3637-6.9849,18.722-10.4397,28.0791l-0.0442,0.0545c-0.8977,0.561-13.3441,34.9449-18.7634,49.9169
		c-1.3031,3.5998-2.2017,6.082-2.4327,6.6935l-0.0247,0.0383c-0.0864,0.0864-0.9068,2.2601-1.7595,4.5201
		c-0.8784,2.3289-1.7915,4.7491-2.0299,5.1556c-2.6739,9.61-6.6178,19.3615-10.565,29.1237
		c-3.3908,8.3843-6.785,16.7783-9.379,25.0923l-0.0431,0.0578c-0.0791,0.0527-0.7934,1.9273-1.5069,3.8004
		c-0.6721,1.7643-1.3445,3.5288-1.5486,3.8535c-1.8062,5.3342-4.0275,10.781-6.2782,16.2989
		c-3.5694,8.7514-7.2128,17.6862-9.3818,26.6128c0.7495,0.0196,1.5112,0.0425,2.2856,0.0646
		c4.9133,0.1426,10.3499,0.3002,15.6861-0.0612c-0.0011-0.7084-0.0119-1.3691-0.0221-2.0084
		c-0.051-3.1382-0.0938-5.773,1.0386-8.5153l0.0278-0.0672h0.0717h0.936h0.0794l0.0235,0.0763
		c0.6392,2.0594,0.7908,7.2255,0.8643,9.7404L67.3169,417.8473L67.3169,417.8473z M127.7342,417.7674
		c0.0573,0.4567,0.0697,0.4765,0.3484,0.6437h7.4194c-0.0156-0.343-0.1054-0.6287-0.254-0.8651
		c-0.341-0.5426-0.9998-0.8371-1.7918-0.9595c-0.8082-0.1247-1.7544-0.0706-2.6504,0.0825
		C129.4285,416.904,128.1784,417.3677,127.7342,417.7674L127.7342,417.7674z M137.3771,417.1069
		c0.0082,0.4331,0.0675,0.8688,0.1293,1.3045c0.2197,0.002,0.4184,0.0117,0.6007,0.0199c0.8339,0.0383,1.3232,0.0598,2.4063-0.7356
		c-0.5099-0.8195-2.6175-0.6338-3.1272-0.5891h-0.0006L137.3771,417.1069L137.3771,417.1069z M220.5216,417.1154
		c-0.0618,0.4417-0.1245,0.9326-0.1866,1.4278c1.4408-0.1332,2.8752-0.2032,4.3092-0.2716c0.0136-0.1531,0.0558-0.3036,0.104-0.4532
		c-0.8538-0.1021-1.5806-0.2563-2.232-0.3951C221.7778,417.2657,221.1358,417.1282,220.5216,417.1154L220.5216,417.1154z
		 M235.9449,417.499c0.2542,0.0632,0.5153,0.1276,0.8379,0.1922c1.7753-0.0003,1.7784-0.0606,1.864-2.1016
		c0.0079-0.195,0.0167-0.4082,0.0275-0.6344h-1.614c-0.1037,0.254-0.2577,0.4847-0.4204,0.726l-0.0003-0.0003
		C236.321,416.1542,235.9675,416.678,235.9449,417.499L235.9449,417.499z M302.8246,417.1061
		c3.8936,0.0805,7.7025,0.1593,10.6302,0.5845c0.8716-0.0689,1.8138-0.1313,2.7924-0.1956
		c4.0247-0.2648,8.6797-0.5718,12.5447-1.6608c0.7832-1.1809,1.4633-2.4948,2.1013-3.7293
		c0.3918-0.7582,0.7679-1.4873,1.1435-2.1367c-0.1105-0.1117-0.2156-0.2237-0.2877-0.341
		c-7.6102,0.0014-15.2552,0.2713-22.8271,0.7107c-7.5597,0.4388-15.0421,1.0468-22.3424,1.7254l0.0803,0.4309
		c0.1794,0.9677,0.3668,1.9777,0.6038,2.9931C290.7428,416.8558,296.8832,416.9833,302.8246,417.1061L302.8246,417.1061z
		 M231.6172,413.9916c-0.0284,0.7773-0.1145,3.1275,0.4847,3.3375c0.5547-0.0672,1.1072-0.07,1.6585-0.07
		c1.1112-1.7739,1.7022-2.8834,1.4562-3.4005c-0.2404-0.504-1.3337-0.4785-3.5955-0.004L231.6172,413.9916L231.6172,413.9916z
		 M228.0237,416.7968l0.3424,0.1712c0.5463-0.0652,1.1512-0.0686,1.7592-0.0689c0.1248-0.9383,0.123-0.9978-0.0649-1.9375
		c-0.6143,0.0482-1.0511,0.0125-1.3649-0.0133c-0.2962-0.0247-0.4714-0.0391-0.5496,0.0315
		c-0.127,0.1145-0.1259,0.4938-0.123,1.4182L228.0237,416.7968L228.0237,416.7968z M332.1003,416.5392
		c0.125,0.0017,0.2577,0.0113,0.4431,0.0706c1.0454-0.108,2.0823-0.1973,3.1218-0.2772c1.031-0.0791,2.0781-0.1514,3.1431-0.2222
		c0.29-0.4604,0.1987-1.3286-0.059-2.2881c-0.4479-1.6665-1.3983-3.5855-1.7436-4.1947c-0.4805,0.0088-0.9564,0.1211-1.4136,0.3138
		c-1.0179,0.4286-1.9451,1.256-2.6172,2.2379c-0.6718,0.9808-1.0888,2.1149-1.0888,3.1584
		C331.8859,415.7593,331.9537,416.165,332.1003,416.5392L332.1003,416.5392z M339.679,409.5775
		c-0.8384,0.2645-0.5198,1.5644,1.0664,6.5962c1.0352-0.0641,1.9749-0.1006,2.8236-0.1341c5.5117-0.216,7.1847-0.2838,9.2057-7.0282
		c-0.172-0.0567-0.335-0.1043-0.4427-0.1043h-0.108v-0.108v-0.3926c-0.0034,0.0056-0.0063,0.0096-0.0079,0.0102v0.0005
		c-0.0891-0.0085-0.2279-0.0125-0.4093-0.0119h-0.0003c-0.8646,0.0028-2.6785,0.1148-4.8515,0.3557
		c-2.5985,0.9309-4.5621,0.8356-5.8748,0.7719C340.4597,409.503,339.9871,409.4803,339.679,409.5775L339.679,409.5775z
		 M164.3749,415.6681c1.8833,0.0128,3.8767,0.0266,5.8,0.2231c4.8239,0,9.8626-0.072,14.9777-0.3056
		c5.116-0.2336,10.3127-0.6296,15.4525-1.2762c0.4504-0.1194,0.885-0.239,1.3278-0.3606h0.0003
		c1.9245-0.5301,4.0677-1.1211,6.2005-1.3689c-0.4589-0.0329-1.1432-0.0836-2.0216-0.1726c-1.764-0.1786-4.258-0.4207-7.1963-0.6959
		c-14.8694-1.3927-41.2821-3.6621-42.918-3.0444c-1.5712,3.6819-0.904,5.4128,0.9936,6.228
		C158.7005,415.6292,161.403,415.6479,164.3749,415.6681L164.3749,415.6681z M212.256,415.6851
		c0.6979,0.0692,1.4476,0.1381,2.1963,0.2061c0.1097,0,0.2773,0.0074,0.4796,0.0159c1.0369,0.0445,3.0526,0.1307,3.7894-0.5176
		c-0.0465-0.1681-0.0556-0.3282-0.0573-0.4552c-0.5885-0.1148-1.5123-0.1145-2.4843-0.0618
		c-1.6155,0.0876-3.3579,0.3226-3.9237,0.4238V415.6851L212.256,415.6851z M144.7282,415.6751
		c0.1819,0.002,0.3724,0.0128,0.6146,0.0714c2.8828-0.1517,5.7835-0.3053,7.0495-1.3606c1.0893-0.9077,0.9547-2.5268-1.4936-5.478
		c-0.8255,0.0442-2.1631,1.1662-3.384,2.5121C146.0911,412.9887,144.8362,414.8517,144.7282,415.6751L144.7282,415.6751z
		 M220.6658,415.3406c0.4051,0.1327,0.8835,0.2704,1.3618,0.4068c0.2628,0.0006,0.5236,0.0133,0.7775,0.0252
		c0.364,0.0173,0.7169,0.0343,1.033,0.0142c0.7903-0.051,1.3561-0.3518,1.311-1.5483c-0.4422,0.0159-0.9091,0.0136-1.3751,0.011
		c-1.2076-0.0068-2.4117-0.0145-3.166,0.3067C220.6083,414.7992,220.6128,415.0467,220.6658,415.3406L220.6658,415.3406z
		 M256.9167,413.9644c8.7261,0.2146,17.6054,0.4334,26.5156,1.4227h0.6486c0.9406-1.9165,0.5791-2.9395-0.4133-3.4353
		c-1.7535-0.877-5.434-0.1993-7.5623,0.1922c-0.5618,0.1035-1.0176,0.1877-1.3059,0.2183l-0.0113,0.0005
		c-5.506,0-10.7796,0.0723-15.9814,0.2069c-5.1633,0.1341-10.2609,0.3305-15.4466,0.58v0.3705
		C247.8288,413.7405,252.3524,413.8524,256.9167,413.9644L256.9167,413.9644z M219.1,384.6522
		c0.5445,14.9621,1.0593,26.4594,1.36,26.9152c0.7574-0.072,1.5273-0.1431,2.2726-0.2029c0.7469-0.0601,1.5052-0.1125,2.2694-0.1485
		c0.1778-9.0006,0.1953-18.0374-0.0377-26.9663c-0.2336-8.9623-0.72-17.8163-1.5474-26.4164l-0.0006-0.0073
		c-1.468-50.0792-3.6284-100.1659-5.7855-150.1872c-1.1032-25.5844-2.2065-51.1512-3.2156-76.6936
		c-0.5488,0.4337-1.1089,0.6905-1.6807,0.8476c-0.699,0.1922-1.4097,0.2347-2.135,0.2696c-0.0031,0.875-0.0474,1.8524-0.0944,2.8848
		c-0.1502,3.3024-0.326,7.164,0.7523,10.0775c0.04-0.0267,0.0859-0.0476,0.1432-0.0592c0.3578-4.0077,0.7166-8.0156,1.1443-11.9376
		l0.0105-0.0966h0.0966c0.7527,0,0.7529,0.0003,1.2119,0.3061l0.0403,0.0269l0.0068,0.0482
		c0.182,1.311-0.2018,7.2556-0.7202,12.9926c-0.5054,5.5916-1.1421,10.9967-1.5106,11.7436
		c0.18,17.7724,0.648,35.5649,1.3048,53.4217c0.6557,17.8282,1.4998,35.7245,2.4338,53.7298
		c0.2075,0.0085,0.4422-0.0028,0.6899-0.0153c0.8881-0.0445,1.9516-0.0981,2.7397,0.69l0.0709,0.0709l-0.0658,0.076
		c-0.475,0.5482-0.879,0.9516-1.3776,1.2379v-0.0003c-0.4807,0.2761-1.044,0.4399-1.8349,0.5176
		c0.0706,6.3771,0.2095,12.7582,0.3498,19.2053l0.006,0.2769c0.146-0.0468,0.2934-0.0867,0.4431-0.0998
		c0.1307-1.5985,0.2078-3.2281,0.2846-4.8578c0.2135-4.5482,0.4275-9.1051,1.8026-12.8596l0.0258-0.0709h0.0754
		c0.5482,0,0.5488,0.0002,0.8683,0.3197l0.0317,0.0318v0.0445c0,6.2045-0.6681,12.4897-1.345,18.8578
		c-0.9094,8.5552-1.8352,17.2635-1.1753,26.1346v0.0057C217.144,321.6429,218.1458,358.4394,219.1,384.6522L219.1,384.6522z
		 M214.613,130.4899l0.0515-0.049l-0.0561-0.0627L214.613,130.4899L214.613,130.4899z M210.9447,128.7103
		c1.0693,0.1103,2.3639,0.2452,3.4274,1.1404c-1.5443-39.1947-2.8647-78.3307-3.6258-117.3756h-0.2965
		c-0.6457,11.3782-1.237,22.5062-1.569,33.6806c-0.3316,11.1782-0.4042,22.4107-0.0127,33.9994h0.904h0.1531l-0.0519,0.1443
		c-1.0468,2.9064-1.5676,6.5389-1.7538,10.5662c0.0932,4.3828,0.1803,8.7916,0.2659,13.2092
		c0.2361,3.6122,0.5615,7.2635,0.8745,10.7835c0.4462,5.0219,0.8691,9.777,0.9774,13.7691
		C210.456,128.6602,210.6944,128.6843,210.9447,128.7103L210.9447,128.7103z M208.1695,104.0713
		c-0.2988-4.5776-0.455-9.0939-0.2653-13.2029c-0.1556-7.3145-0.3285-14.5593-0.5408-21.6573h-0.3974
		c-0.5743,1.55-0.5015,4.3739-0.4368,6.8849c0.0198,0.7644,0.0388,1.5007,0.0388,2.1512l-0.0153,0.0547
		c-0.7954,1.3377-1.1676,13.0967-1.1169,24.9404c0.0487,11.3754,0.4907,22.8178,1.3244,25.1762
		c0.1987,0.0627,0.4572,0.1281,0.7169,0.1928c0.9632,0,1.0227-0.0003,1.1781-0.1519c-0.1417-6.5466-0.2687-13.1452-0.3954-19.7345
		L208.1695,104.0713L208.1695,104.0713z M211.6091,407.2267c4.8711,2.8939,4.913,2.9183,6.4537,3.6187
		c0.2636-0.0595,0.5731-0.0655,0.8875-0.0663c-0.2132-12.9393-0.216-13.0272-0.7838-25.4517c-0.8404,0.269-1.55,0.559-2.2218,0.8323
		c-1.074,0.4374-2.0531,0.8354-3.3338,1.0587c-0.2245,4.1868-0.3963,7.0586-0.5315,9.3144
		C211.8268,400.7516,211.7024,402.8263,211.6091,407.2267L211.6091,407.2267z M181.4505,408.8034
		c7.2459,0.301,14.5358,0.604,21.8444,1.3277c4.0079-0.127,4.4252-0.1412,4.5499-0.2647c-0.6942-1.353-2.9823-2.4744-3.7406-2.846
		l-0.1395-0.0686l-0.0338-0.0252c-2.9922-3.3959-6.9063-5.614-10.7804-7.8092c-4.405-2.4962-8.7607-4.9651-11.681-9.1069
		c-1.7502-1.366-5.5913-1.9678-9.887-2.1288c-6.3709-0.239-13.7279,0.493-16.7865,1.1336
		c-0.1967,4.1536,0.2239,8.3852,0.663,12.7936c0.1715,1.7252,0.3466,3.4787,0.4861,5.2379
		C164.3573,408.093,172.8746,408.4474,181.4505,408.8034L181.4505,408.8034z M153.7806,407.22
		c-0.0728,0.269-0.1241,0.5403-0.1706,0.8118l0.1996-0.0998C153.9065,407.591,153.9187,407.5153,153.7806,407.22L153.7806,407.22z
		 M201.2663,403.3002c2.0818,1.5358,4.2537,3.1388,6.7337,4.6698c0.1193-0.0037,0.1899-0.0309,0.2154-0.0788h0.0002
		c0.1205-0.2262-0.3172-0.843-1.0808-1.6393c-0.7923-0.8263-1.9341-1.8241-3.1808-2.7774c-2.7709-2.1183-6.0503-4.0263-7.1053-3.325
		C198.324,401.1292,199.7728,402.1981,201.2663,403.3002L201.2663,403.3002z M153.5669,405.9554
		c0.0856,0.002,0.1763,0.0088,0.2857,0.0338c-0.0581-0.7943-0.0601-1.5885-0.0601-2.3822
		c-0.0845-0.0485-0.1435-0.0958-0.1939-0.1429c-0.07,0.0607-0.1188,0.1536-0.1664,0.248
		C153.4337,404.4627,153.4994,405.2094,153.5669,405.9554L153.5669,405.9554z M200.8134,399.5936
		c2.9749,2.0296,5.6616,3.8622,7.5248,4.9796c0.1102-0.0442,0.2165-0.0553,0.3214-0.0578c0.1075-2.9131,0.1608-5.7702,0.1489-8.5133
		c-0.011-2.6053-0.0822-5.1126-0.2188-7.4721l-26.7885-0.2143c0.0009,0.0456,0.0025,0.0947,0.007,0.1429v0.0003
		c0.0063,0.0706,0.0182,0.1457,0.0383,0.222C185.1684,388.9212,193.7942,394.8056,200.8134,399.5936L200.8134,399.5936z
		 M209.8805,388.424l0.2132,16.1178c0.0752-0.0184,0.1483-0.0247,0.2214-0.0264c0.0558-1.6038,0.2925-3.6034,0.5377-5.6874
		c0.4802-4.0751,0.9978-8.4736,0.28-10.8003c-0.4274,0.0108-0.6304,0.1091-0.8892,0.2339
		C210.138,388.3126,210.0223,388.3679,209.8805,388.424L209.8805,388.424z M149.3098,400.3159
		c0.5335,1.2725,0.9842,2.3443,1.1449,2.9033h0.0966c-0.032-2.9429-1.3697-6.2969-2.4406-8.9827
		c-0.3183-0.7985-0.6131-1.54-0.8433-2.1917c-0.2724-0.0428-0.4244,0.0833-0.4816,0.3342c-0.2837,1.2419,1.332,5.0941,2.524,7.9367
		V400.3159L149.3098,400.3159z M195.048,398.9297c0.1814,0.0612,0.3637,0.1281,0.5471,0.2412
		c0.0853-0.0422,0.1735-0.0853,0.2798-0.1276c-0.2659-0.212-0.5318-0.4181-0.7962-0.5885
		C195.0514,398.5953,195.0486,398.748,195.048,398.9297L195.048,398.9297z M149.1738,393.0997
		c0.8388,1.6087,1.7722,3.3973,1.9967,4.8132c0.1528-0.15,0.3064-0.2923,0.4615-0.4028v-0.0944h0.0003
		c0.0006-1.8544,0.0017-5.0162-0.8802-6.7805c-0.5564-1.1126-1.4788-1.6594-3.0059-0.9224
		C147.7854,390.4355,148.443,391.6983,149.1738,393.0997L149.1738,393.0997z M188.6196,395.141
		c1.0741,0.8306,2.4318,1.6098,3.5311,2.0296c0.4561,0,0.5091-0.0037,0.7435-0.2327c-0.7512-0.468-1.4275-0.9275-2.0707-1.3646
		c-1.3297-0.9034-2.5168-1.7113-3.9178-2.2859C187.1357,393.8331,187.7916,394.5003,188.6196,395.141L188.6196,395.141z
		 M88.535,387.7077c2.3459,0.1298,4.7752,0.2645,7.13,0.8235c4.9629,0,9.8354-0.0723,14.7589-0.3506
		c4.9297-0.2786,9.913-0.7648,15.0911-1.5916l0.0195-0.0014c0.6319,0.0164,1.9967,0.1919,3.7346,0.4153
		c5.8071,0.7458,15.8196,2.0316,16.2448-0.2549l0.0167-0.0887h0.0893h1.008h0.108v0.108c0,0.396,0.0632,0.8575,0.1293,1.3235
		c1.5298-0.1358,3.1175-0.2066,4.7058-0.2758c0.1922-1.7946,0.2123-1.9443,0.4459-2.3043
		c-1.6381-0.788-9.2939-1.1029-18.9694-1.1029c-10.2288,0-22.703,0.356-32.7175,0.8802
		c-9.6267,0.5037-16.9676,1.1505-17.8194,1.7691C84.3692,387.4764,86.4187,387.5909,88.535,387.7077L88.535,387.7077z
		 M154.9315,386.6829c-0.0247,0.423-0.0167,0.707,0.0156,0.7682l53.7004-0.4308c-0.0607-0.8564-0.0632-1.6532-0.0635-2.4475
		c-7.2465,0.1415-14.4383,0.1477-21.5764,0.1537c-10.7348,0.0082-21.352,0.0173-31.8674,0.4886
		C155.0214,385.7691,154.9553,386.281,154.9315,386.6829L154.9315,386.6829z M152.9929,385.5531
		c-0.0598,0.6639-0.0547,0.7285,0.1791,1.6086c0.3498-0.2752,0.5031-0.5579,0.54-0.8319c0.0383-0.2846-0.0459-0.5669-0.1664-0.8226
		c-0.1142,0.0003-0.218,0.0014-0.3127,0.0088C153.1483,385.5222,153.0694,385.5332,152.9929,385.5531L152.9929,385.5531z
		 M209.88,384.483v2.2414c1.0516-0.0618,1.1038-0.0748,1.6563-0.3813c0.0008-0.1894,0.0053-0.3552,0.0093-0.504
		c0.0179-0.678,0.0261-0.9921-0.3787-1.4119C210.7171,384.4272,210.2689,384.4286,209.88,384.483L209.88,384.483z
		 M213.2971,384.4272c-0.2367,0.5335-0.2449,0.5788-0.1868,1.1665c0.3654,0.0496,0.9584-0.0094,1.5554-0.1392
		c0.5754-0.1248,1.1509-0.3152,1.529-0.5352l-0.1641-0.4921H213.2971L213.2971,384.4272z M82.1574,383.4667
		c0.4328,0.2441,0.5927,0.2656,4.3554,0.7444c6.4298-0.0003,12.9055-0.3079,19.4301-0.6177
		c9.2619-0.4396,18.623-0.8841,28.0851-0.4623c0.5604,0,1.9789,0.0862,3.8217,0.1981c5.4445,0.3305,14.6185,0.8878,16.3205,0.1205
		c1.8097-6.2306,2.4682-13.5607,3.1212-20.8364c0.7943-8.8489,1.5823-17.619,4.4238-24.2589
		c0.8101-6.3978,1.9607-12.9495,3.094-19.4037c0.8821-5.0253,1.7547-9.9927,2.448-14.783l0.0006-0.002
		c0.6916-4.197,1.4998-8.4937,2.312-12.8152c1.7294-9.201,3.4815-18.519,4.1666-27.136l0.0014-0.0088
		c1.7252-10.3984,3.661-20.8525,5.5978-31.3124c1.0826-5.8467,2.166-11.6943,3.2128-17.5357
		c1.4618-8.8478,2.9256-17.6933,4.39-26.5357c1.0383-7.0677,1.94-14.1041,2.6385-21.0895l0.0017-0.011
		c2.751-13.2636,4.7662-26.608,6.753-39.7667c0.9202-6.0928,1.8344-12.1461,2.8208-18.1811
		c0.6511-8.4612,2.1421-16.9089,3.6294-25.3366c1.9679-11.1501,3.9303-22.2676,3.9303-33.334h0.0003
		c-0.2622-7.1505-0.3439-13.3693-0.4124-18.6104c-0.0493-3.7899-0.0924-7.0696-0.1925-9.824
		c-0.2495-6.861-0.8434-10.4125-2.7573-10.41c-2.4712,3.7298-4.3396,9.2919-6.1891,14.8011
		c-1.2535,3.7324-2.4993,7.4413-3.9212,10.5475c-0.9011,2.7022-2.2819,5.6718-3.7038,8.7307
		c-2.2215,4.7786-4.5456,9.7778-5.2897,14.2863l-0.0164,0.0422c-1.7881,2.7011-3.0138,5.8516-4.241,9.0066
		c-1.0896,2.8023-2.1821,5.6091-3.672,8.1176c-2.4843,5.8331-4.9317,11.9146-7.3137,18.0811
		c-2.3856,6.1756-4.7075,12.4393-6.938,18.6276l-0.0068,0.0156c-1.0687,1.9321-3.3868,7.5645-5.1746,12.7579
		c-1.334,3.8746-2.3717,7.5005-2.3717,9.1502l-0.017,0.0569c-2.9747,4.7523-4.6882,10.4522-6.4151,16.1964
		c-1.6911,5.6267-3.3962,11.298-6.3173,16.185c-0.9014,4.602-2.8579,9.5244-4.8246,14.4728
		c-1.9723,4.9621-3.956,9.953-4.892,14.6696l-0.0074,0.0224c-0.5329,1.2186-1.2586,3.581-2.0673,6.2161
		c-1.4715,4.7937-3.2204,10.4902-4.6295,11.9389c-0.3844,1.5389-0.7716,3.1119-1.1673,4.7231
		c-2.3825,9.6936-5.1123,20.7997-8.6868,29.8034c-0.0247,0.9502-1.7524,8.2063-3.4826,14.7172
		c-1.3215,4.9737-2.6464,9.5187-3.2185,10.4995c-1.2421,6.2683-3.2839,12.7171-5.3439,19.224
		c-2.6013,8.2159-5.2325,16.5262-6.3159,24.6725l-0.0145,0.0414c-2.5342,4.2355-3.2599,10.8692-3.9764,17.422
		c-0.7033,6.4304-1.3986,12.7837-3.7882,16.759c-0.6449,4.3072-1.9908,8.5992-3.354,12.9461
		C84.312,372.3538,82.603,377.804,82.1574,383.4667L82.1574,383.4667z M187.1478,188.8737
		c-1.2935,8.8022-2.7984,17.6536-4.3872,26.5215c-8.2596,49.9895-16.4586,100.0604-24.4344,150.1489l-0.0017,0.0091
		c-0.6831,2.7335-1.385,5.7737-1.9154,8.8841c-0.5236,3.0708-0.8804,6.2119-0.8886,9.1979c1.0428,0,2.0863,0.0025,3.1317,0.0717
		c1.0956-0.1075,3.8883-0.1077,10.1517-0.1077c6.2966,0,16.0938-0.0003,31.0995-0.1077c7.8712-0.3421,8.2392-0.3589,8.6119-0.5374
		c0.0856-1.6322,0.1154-2.5761-0.1168-26.2029c-0.358-12.4855-0.415-24.9877-0.3835-37.4647l-0.4388-41.9556
		c-0.3404-9.1936-0.3583-9.6617-0.5264-9.9083c-0.8149-0.068-1.6313-0.136-2.4716-0.2123l-0.1247-0.0114l0.0297-0.121
		c0.9343-3.81,1.5282-7.8738,1.9145-11.946c0.3864-4.072,0.5667-8.1561,0.6743-12.0064l-1.5109-111.2905
		c-0.8294-0.14-1.5085-0.2826-2.0704-0.4759c-0.591-0.203-1.0547-0.4632-1.4272-0.8357l-0.0318-0.0318v-0.0445
		c0-0.4373,0.0003-0.8753,0.074-1.2449l0.0145-0.0728l0.0737-0.0125c0.0615-0.0102,0.1619-0.0235,0.2897-0.0403
		c0.7492-0.0978,2.4871-0.3254,2.9322-0.8286c-0.0005-5.9006-0.1287-15.9052-0.2922-24.8326
		c-0.1491-8.1298-0.3288-15.3734-0.4678-17.8223c-0.3724,1.1224-0.5518,2.6116-0.7316,4.1028
		c-0.2389,1.982-0.4791,3.9685-1.1775,5.1483c-2.4528,14.8015-4.9125,29.6153-7.3726,44.4388
		C192.6323,155.801,189.8884,172.3327,187.1478,188.8737L187.1478,188.8737z M217.4451,383.308
		c0.0947,0.1596,0.2007,0.3376,0.333,0.5145l0.0037,0.0048c0.0743,0.1114,0.0799,0.1194,0.2344,0.0048
		c-0.002-13.8107-0.6993-27.4884-1.3833-40.9139c-0.1653-3.2403-0.3302-6.4673-0.4842-9.6832h-0.324
		c-0.0598,0.1829-0.1128,0.3725-0.1128,0.612l-0.0003,0.0017c-0.1301,7.1612-0.5836,14.4777-1.0414,21.8685
		c-0.5536,8.9362-1.114,17.9827-1.1183,26.9875c1.1902,0.07,2.3836,0.1429,3.6479,0.2832l0.0499,0.0054l0.028,0.0422
		C217.3309,383.1155,217.3864,383.2088,217.4451,383.308L217.4451,383.308z M208.2305,319.2875
		c0.172,16.4996,0.2962,28.5684,0.3835,37.4417c0.2495,8.6927,0.6449,17.3784,1.2586,26.0419h1.6387
		c2.3335-3.7103,1.9865-20.5611,1.8581-26.7778c-0.019-0.9266-0.0335-1.6194-0.0335-1.9862l0.0088-0.0417
		c1.9298-4.5513,1.6004-10.6401,1.2714-16.7307c-0.3192-5.9066-0.6389-11.8165,1.0953-16.3661
		c-0.2877-8.9535-0.6293-17.9827-0.998-26.9144c-0.368-8.9149-0.7634-17.7352-1.1585-26.2867
		c-1.0176-0.6299-3.2417-0.4604-4.5459-0.3609c-0.288,0.0219-0.5326,0.0397-0.7121,0.0457
		c0.1358,12.094,0.0695,24.2679,0.0031,36.4816C208.2722,308.9791,208.2435,314.131,208.2305,319.2875L208.2305,319.2875z
		 M209.6081,220.4874c-0.7671,19.8615-1.4901,45.0218-1.3878,45.2838c0.2049,0.0009,0.4561,0.0099,0.7339,0.0193
		c1.3207,0.0456,3.2882,0.1136,4.7409-0.5553c-0.2058-13.0929-0.8305-26.1238-1.4496-39.0441
		c-0.4671-9.758-0.9326-19.4539-1.2115-29.077c-0.0337-0.019-0.0621-0.038-0.0879-0.0539l-0.0193-0.011
		C210.5527,198.7604,210.0637,208.6836,209.6081,220.4874L209.6081,220.4874z M207.72,225.5951v1.1614
		c0.0706-0.0312,0.1425-0.0567,0.2165-0.0706c0.0088-0.3648,0.0644-0.7282,0.1242-1.0908H207.72L207.72,225.5951z
		 M207.1712,199.5207c0.1815,13.8013,0.4065,24.3969,0.6704,25.3661l0.0184-0.3456c-0.0068-0.4864-0.0414-1.3907,0.0136-2.6093
		c0.4235-9.364,1.6609-36.7297,3.1584-39.3112c-0.0003-8.5632-0.1595-17.0524-0.4691-25.4313
		c-0.3135-8.4929-0.7824-16.8817-1.3958-25.1289c-0.8578-0.0618-1.658-0.0646-2.4551-0.0649
		C206.7132,141.5321,206.8546,175.4103,207.1712,199.5207L207.1712,199.5207z M152.2341,134.7609
		c-0.1015,0.2554-0.2001,0.5105-0.2687,0.7642c0.036-0.0119,0.0723-0.0235,0.1108-0.0331c0.0652-0.0162,0.1349-0.0284,0.2044-0.0349
		c0.0009-0.2251,0.0074-0.4464,0.053-0.6355c-0.0249-0.0142-0.0473-0.0289-0.0674-0.0414L152.2341,134.7609L152.2341,134.7609z
		 M152.5135,133.8967c0.002,0.1272,0.0533,0.2407,0.18,0.3041c0.2038-0.449,0.2307-0.8501,0.2342-1.1208
		c-0.0468,0.0303-0.1091,0.0949-0.1718,0.178c-0.0671,0.0887-0.1295,0.1973-0.1737,0.3098
		c-0.0434,0.1105-0.0703,0.2251-0.0686,0.3282V133.8967L152.5135,133.8967z M154.0063,129.2858
		c-0.5553,1.6656-0.8527,2.9251-0.5921,3.2309c0.5468-1.4655,1.1458-2.9718,1.7481-4.4866c1.4366-3.6108,2.897-7.278,3.7105-10.5678
		c-0.1355,0.019-0.2741,0.0618-0.4124,0.1071c-0.1432,0.788-0.9748,2.829-1.929,5.1707
		C155.6416,124.9238,154.6444,127.3715,154.0063,129.2858L154.0063,129.2858z M206.1422,6.5794
		c0.1488,0.5627,0.1534,1.0698,0.0453,1.5273c0.2846,0.5233,0.7597,1.1985,1.4749,2.0642c0.2174-0.0063,0.4649-0.053,0.6607-0.1877
		l0.0006-0.0004c0.1545-0.106,0.28-0.271,0.335-0.5189l0.0142-0.0649l0.0649-0.0164c0.0445-0.011,0.0975-0.0334,0.1553-0.057V9.3253
		c0.3243-0.1343,0.7696-0.3192,1.1639,0.4232c0.3773,0.0536,0.4127,0.051,0.6106-0.0957C210.6031,8.7685,210.6,7.8864,210.6,7.0663
		c-0.3688-0.0382-0.8549-0.1431-1.3785-0.2553C208.0692,6.5637,206.7279,6.2769,206.1422,6.5794L206.1422,6.5794z M207.36,37.3151
		v1.0137l0.2166-0.108c0.0068-0.3044,0.0601-0.6057,0.1193-0.9057H207.36L207.36,37.3151z M207.229,35.143
		c0.0627,0.7554,0.108,1.3082,0.1247,1.5962h0.3711c0.0482-0.936,0.1635-2.3953,0.3019-4.1551
		c0.5468-6.9627,1.4641-18.6392,0.1052-20.6821c-1.2935,0.1069-1.6801,3.9487-1.6801,8.5814
		C206.4518,25.7807,206.977,32.105,207.229,35.143L207.229,35.143z M212.76,21.94v0.9876c0.1434-0.0718,0.2418-0.1471,0.2985-0.2659
		c0.0748-0.1574,0.093-0.402,0.0681-0.8206c-0.0544,0.0059-0.1077,0.0153-0.1588,0.028
		C212.8932,21.8876,212.8215,21.9131,212.76,21.94L212.76,21.94z M212.3269,7.9658c0.0692,3.7922,0.1698,9.3279,0.959,11.454
		c0.0992-0.0468,0.1995-0.0868,0.3044-0.0999c2.3128-4.7162,1.353-7.5857,0.3028-10.7239c-0.3513-1.05-0.7138-2.1302-0.9686-3.3208
		h-0.6642C212.2894,5.9523,212.3073,6.8892,212.3269,7.9658L212.3269,7.9658z M206.928,4.509
		c0.0006,0.1706,0.0051,0.3455,0.0508,0.5584l0.0046,0.0005h0.0009c0.4314,0.0456,2.4718,0.2634,2.872-0.2529
		c-0.326-0.3987-0.7704-0.5796-1.222-0.6309h-0.0003C207.9618,4.1075,207.2764,4.3121,206.928,4.509L206.928,4.509z M201.0041,2.913
		c0.4048,0.0674,0.8105,0.1392,1.2212,0.2741h2.6688c0.1602-0.2177,0.1727-0.2976,0.294-1.5078l-0.36,0.0133
		c-1.5653,0.0564-2.6733,0.0972-3.8761,0.5264C200.9523,2.4524,200.9565,2.6854,201.0041,2.913L201.0041,2.913z M206.5838,1.8152
		c-0.0921,0.2843-0.2273,0.7029,0.6857,1.0125l0.1128,0.0017h0.0005c0.7093,0.0139,3.8367,0.0739,4.3883-0.4977
		c-1.5426-0.6968-3.3934-0.6761-4.7206-0.6611l-0.4255,0.0043C206.6147,1.7194,206.6,1.7652,206.5838,1.8152L206.5838,1.8152z"/>
</g>
</svg>
