<?xml version="1.0" encoding="utf-8"?>
<!-- Generator: Adobe Illustrator 21.1.0, SVG Export Plug-In . SVG Version: 6.00 Build 0)  -->
<svg version="1.1" id="O" xmlns="http://www.w3.org/2000/svg" xmlns:xlink="http://www.w3.org/1999/xlink" x="0px" y="0px"
	 viewBox="0 0 382.1041 534.744" enable-background="new 0 0 382.1041 534.744" xml:space="preserve">
<g>
	<path fill-rule="evenodd" clip-rule="evenodd" d="M12.384,534.744c-6.696-0.936-6.696-0.936-12.384-2.232
		c0.072-0.432,0.144-0.936,0.288-1.44c0.144-0.144,0.36-0.288,0.576-0.432c3.312,0.432,6.696,0.936,10.08,1.44
		c1.296,0,2.592,0,3.888,0c0.144-0.144,0.288-0.288,0.432-0.432c2.304,0.216,4.608,0.432,6.984,0.72
		c0.216-0.288,0.432-0.648,0.72-1.0081c9.36,0.72,9.36,0.72,13.68,0.72c3.816,0.72,5.256,0.72,6.264,1.008c0.792,0,1.584,0,2.376,0
		c0.36-0.2159,0.792-0.432,1.224-0.72c1.584,0,3.168,0,4.752,0c0.216-0.36,0.432-0.7921,0.72-1.224
		c1.368-0.2161,2.736-0.432,4.104-0.72c0.072-0.072,0.144-0.216,0.216-0.36c-1.296-0.5039-2.664-1.0079-4.032-1.584
		c-6.48-0.936-10.08-1.8719-20.448-3.6c-0.792,0-1.584,0.072-2.376,0.144c-0.144,0.144-0.288,0.36-0.504,0.576
		c-0.864-0.072-1.728-0.144-2.592-0.2161c-2.448-0.936-2.448-0.936-6.984-3.384c-2.88-0.936-2.88-0.936-5.04-2.016
		c-1.224-1.08-1.224-1.08-2.16-2.376c-0.864-2.376-1.368-2.88-2.808-6.48c-0.144-0.792-0.288-1.584-0.432-2.376
		c0.216-4.32,0.216-4.32,0.72-7.2c0.576-1.224,0.576-1.224,0.936-1.44c0-1.728,0-1.728,0.936-6.984
		c0.648-1.584,1.296-3.168,1.944-4.824c1.584-2.664,3.168-5.4,4.824-8.136c0-0.72-0.288-0.936-0.288-4.824
		c-0.144-1.008-0.288-2.016-0.432-3.096c-1.008-2.16-1.944-3.384-3.888-8.136c0-0.432,0-0.936-0.072-1.44
		c15.84,0.288,15.84,0.288,17.064,0.576c1.152-0.288,1.152-0.288,26.136-1.728c7.2,0,7.2,0,11.016-0.432
		c0.72-0.288,9.648-0.72,20.664-1.728c1.656-0.432,1.656-0.432,9.144-1.152c1.872-3.168,2.736-4.176,3.168-5.4
		c1.44-2.376,2.88-4.752,4.32-7.2c1.944-5.04,1.944-5.04,2.16-6.264c0.648-0.72,1.296-1.44,1.944-2.16
		c0.864-2.016,1.728-4.104,2.664-6.192c0-1.152,0-2.376,0-3.6c0.288-1.728,0.576-3.528,0.936-5.328
		c-0.072-0.792-0.144-1.584-0.216-2.376c-0.216-0.504-0.432-1.08-0.72-1.6559c0-0.432,0-0.936,0-1.44
		c1.872-3.168,1.872-3.168,4.752-6.984c0.648-0.504,1.296-1.08,1.944-1.656c3.816-6.48,5.76-9.144,7.704-12.528
		c1.872-4.536,3.816-8.352,4.752-11.016c0.288-0.504,0.648-1.08,1.008-1.656c0.288-1.44,0.576-2.88,0.936-4.32
		c0.936-1.728,0.936-1.728,1.944-2.88c3.816-9.36,3.816-9.36,5.76-13.464c1.872-5.76,2.88-7.704,4.752-13.176
		c1.584-3.816,3.168-7.632,4.824-11.52c0.6479-2.448,1.296-4.968,1.944-7.488c3.816-10.296,7.632-19.656,8.64-22.752
		c0.936-1.944,1.872-4.824,3.816-9.36c0.648-2.016,1.296-4.032,1.944-6.048c0.288-0.36,0.576-0.72,0.936-1.152
		c1.944-6.2639,1.944-6.2639,3.816-10.8c0.288-0.432,0.648-0.936,1.008-1.44c0.576-2.088,1.224-4.176,1.872-6.264
		c0.648-1.08,1.296-2.232,1.944-3.384c0.936-3.312,4.824-13.176,6.696-19.152c1.008-2.16,1.008-2.16,2.88-8.424
		c0.648-1.368,1.296-2.736,1.944-4.104c1.44-4.752,1.944-5.472,2.88-8.64c1.944-4.32,1.944-4.32,8.424-22.032
		c0.936-3.168,0.936-3.168,9.072-23.328c0.144-0.864,0.288-1.728,0.504-2.592c0.648-1.512,1.296-3.024,1.944-4.608
		c0.936-3.6,1.44-4.32,3.816-11.52c0.288-0.36,0.576-0.72,0.936-1.152c3.384-10.08,4.824-13.248,6.768-18.72
		c1.224-3.024,2.52-6.048,3.816-9.144c11.52-31.6801,13.464-36.216,13.896-37.944c0.648-1.08,1.296-2.16,1.944-3.312
		c2.376-5.328,4.752-10.728,7.2-16.1281c2.376-7.2,2.88-7.92,3.6-10.8c0.648-1.08,1.296-2.1599,1.944-3.312
		c0.432-1.944,0.72-2.16,4.536-12.744c1.944-4.3201,1.944-4.3201,2.376-6.264c2.88-5.256,3.888-7.92,4.824-9.576
		c0.936-2.88,2.88-6.696,3.816-9.144c1.296-2.376,2.592-4.752,3.888-7.2c1.872-5.472,1.872-5.472,2.592-6.696
		c-0.072-1.0081-0.144-2.016-0.216-3.096c-0.504-0.936-1.08-1.872-1.656-2.88c0.072-1.008,0.144-2.0881,0.216-3.168
		c1.08-1.152,1.08-1.152,2.88-2.16c1.728-0.288,3.4561-0.576,5.184-0.864c2.664,0.288,2.664,0.288,4.104,0.72
		c0.288,0.216,0.576,0.432,0.936,0.648c0.216,0.504,0.504,1.08,0.792,1.6559c-0.072,0.864-0.144,1.728-0.216,2.6641
		c-0.936,1.44-0.936,1.44-1.584,1.944c-0.288,0.072-0.576,0.1439-0.936,0.2159c0,1.8-0.072,3.672-0.144,5.5441
		c6.264,10.296,7.2,12.4559,11.088,18.432c1.8719,4.104,3.816,7.2,5.7599,11.304c0.936,1.44,1.44,2.8799,5.256,10.08
		c7.704,18.72,8.64,20.16,10.584,24.984c0.72,1.152,1.656,4.5359,3.6,8.856c1.872,5.976,3.816,11.952,5.76,18
		c0.936,4.32,1.44,5.5439,1.872,8.856c0.288,0.504,0.72,3.168,1.224,3.888c1.944,6.48,1.944,6.48,3.384,10.08
		c0.4319,2.88,2.376,9.576,3.312,14.4c1.944,6.912,2.88,11.9519,4.32,16.56c2.664,13.68,2.664,13.68,2.88,15.84
		c0.144,0.288,0.288,0.576,0.504,0.936c0.216,2.664,2.16,12.024,4.1039,23.256c0.288,0.792,0.576,1.584,0.936,2.448
		c0.936,8.3521,0.936,8.3521,1.4399,9.7921c1.944,12.528,1.944,12.528,2.8801,16.56c0.936,8.208,0.936,8.208,1.944,14.184
		c0.72,10.08,0.72,10.08,0.936,20.376c0.72,6.48,0.936,11.304,1.224,12.24c0.72,7.704,0.72,7.704,0.936,16.56
		c-0.216,6.048,0,11.5201-0.216,14.4c0.072,4.176,0.144,8.352,0.216,12.528c0.144,1.08,0.288,2.16,0.504,3.312
		c0.432,14.688,0.432,14.688,0.72,15.624c0.432,6.696,0.936,30.96,0.72,34.56c0.216,4.824,0,7.2,0.72,31.464
		c0.432,7.2,1.152,12.96,1.872,26.136c0.072,0.36,0.144,0.792,0.288,1.224c-0.144,4.752-0.288,9.576-0.504,14.4
		c0.072,1.44,0.216,2.88,0.36,4.32c8.64-1.584,12.528-1.872,13.4641-2.304c1.08,0,2.232,0,3.384,0
		c0.216,0.144,0.4319,0.288,0.72,0.432c0,0.288,0,0.576,0.072,0.864c-0.2161,0.288-0.504,0.576-0.7921,0.864
		c-0.432,0.144-0.936,0.288-1.44,0.432c-2.16,2.664-2.16,2.664-4.32,4.824c-0.432,0.288-0.936,0.576-1.44,0.936
		c-3.024,3.456-6.048,6.984-9.072,10.512c0.144,0.72,0.144,0.72,0.6479,0.936c1.872-0.288,3.816-0.576,5.76-0.864
		c0.936-0.288,1.872-0.576,2.88-0.936c0.36,0,0.72,0.072,1.08,0.144c0,0.36,0,0.72,0,1.152c-1.44,2.16-1.44,2.16-4.32,5.328
		c-1.2241,0.936-1.2241,0.936-12.744,14.4c-7.704,11.232-11.52,17.28-12.96,19.152c-1.512,2.736-3.024,5.472-4.536,8.208
		c0,0.432,0,0.936,0.072,1.44c1.008,0.504,2.016,1.08,3.024,1.6559c0.072,0.4321,0.144,0.936,0.216,1.4401
		c0.6479,0.432,1.368,0.936,2.088,1.4399c3.384,0.072,3.384,0.072,4.32,0.36c9.576-0.288,11.016,0,17.784,0
		c1.008,0.144,2.0161,0.288,3.096,0.432c0,0.4319,0,0.864,0,1.368c-4.824-0.144-4.824-0.144-7.2,0.072
		c-1.224-0.144-2.52-0.288-3.816-0.432c-6.048,0.216-10.584,0-13.248,0.216c-0.36-0.072-0.72-0.144-1.152-0.216
		c-3.6-2.88-3.6-2.88-4.824-4.32c-5.256,0.432-5.256,0.432-9.864,0.432c-0.72,0.288-1.44,0.648-2.16,1.008
		c-2.376,0.144-4.752,0.288-7.2,0.432c-1.656,0.504-5.976,1.008-8.856,1.944c-2.088,0.216-4.176,0.432-6.264,0.72
		c-0.792,0.288-1.584,0.576-2.376,0.936c-1.584-0.072-3.168-0.144-4.824-0.216c-0.72,0.144-1.44,0.288-2.16,0.504
		c-0.72,0.432-1.44,0.936-2.16,1.44c-0.864,0.216-1.728,0.432-2.592,0.72c-1.368,0-2.736,0-4.104,0
		c-1.656-0.504-1.656-0.504-2.376-1.008c-1.0081,0-2.088,0-3.168,0c-2.16,1.008-3.312,1.944-4.032,2.16
		c-1.08-0.072-2.232-0.144-3.384-0.2161c-4.104-0.936-4.104-0.936-5.7599-1.6559c-2.2321,0.216-4.4641,0.432-6.696,0.72
		c-1.872,0-3.816,0-5.76,0c-3.888,1.872-3.888,1.872-5.544,2.376c-0.864-0.072-1.728-0.1439-2.664-0.2159
		c-0.936-0.504-0.936-0.504-4.536-1.008c-0.648,0-1.296,0-1.944,0c-0.216,0.144-0.432,0.288-0.72,0.504
		c-8.136,1.44-8.136,1.44-12.96,2.664c-3.744,0.144-7.488,0.288-11.232,0.432c-0.864,0.216-1.728,0.4319-2.664,0.72
		c-2.664,0.072-5.4,0.1439-8.136,0.288c-1.584,0.216-3.168,0.432-4.824,0.72c-2.664,0-5.4,0-8.136,0
		c-2.16,0.2161-4.32,0.432-6.48,0.72c-3.96-0.288-7.992-0.648-12.024-1.008c-5.04,0-5.04,0-9.144-0.432
		c-11.952,0.432-25.2,0.432-33.12,0.72c-10.8,0-13.392-0.288-16.992-0.288c-1.944,0.288-10.08,0.288-11.808,0
		c-8.136,0-10.8,0.288-21.816,0.288c-1.224,0.288-2.52,0.576-3.816,0.936c-1.296,0.072-2.592,0.144-3.888,0.216
		c-1.728-0.216-3.456-0.432-5.256-0.72c-1.8,0-3.672,0-5.544,0c-2.88,0.504-2.88,0.504-6.48,0.72
		c-0.36,0.36-0.72,0.7921-1.152,1.224c-1.44,0.504-1.44,0.504-4.608,0.936c-0.216,0.144-0.432,0.288-0.72,0.504
		c-2.304,0-4.608,0-6.912,0c-4.392-0.288-8.784-0.576-13.248-0.936c-0.432,0.288-0.936,0.576-1.44,0.936
		c-4.752-0.216-4.752-0.216-8.136-0.72c-1.872,0.072-3.816,0.144-5.76,0.216c-0.288,0.144-0.576,0.288-0.936,0.504
		C14.04,534.744,13.248,534.744,12.384,534.744L12.384,534.744z M185.904,529.92c-4.32-0.432-7.2-0.432-10.8-0.936
		c-7.416-0.216-28.8,0.216-44.352,0.216c-0.936,0.072-1.872,0.144-2.88,0.288c-3.528-0.144-7.056-0.288-10.584-0.504
		c-0.936-0.216-1.872-0.432-2.88-0.72c-3.384,0.2159-3.384,0.2159-12.24-0.2161c-1.44-0.288-12.96-0.72-13.464-1.0079
		c-9.072,0.504-9.072,0.504-19.152,0.72c-11.088-1.656-11.088-1.656-15.408-2.592c-0.864,0-1.728,0-2.592,0
		c-0.936-0.288-1.872-0.6479-2.88-1.0079c-6.984-0.936-8.64-1.44-11.808-1.872c-0.216-0.072-0.432-0.216-0.72-0.36
		c-0.072-0.2159-0.144-0.432-0.216-0.72c2.376-0.576,4.752-1.152,7.2-1.8c6.264-2.88,7.704-3.888,9.864-4.824
		c0.72-0.6479,1.44-1.296,2.16-1.944c1.872-1.224,3.816-2.52,5.76-3.816c2.16-1.944,2.16-1.944,10.512-7.704
		c1.8-0.936,3.672-1.872,5.544-2.88c1.8-0.432,3.672-0.936,5.544-1.44c20.16-0.432,20.16-0.432,22.536-0.72
		c13.896,0.288,23.256,0,46.08,0c16.344,0.288,27.864,0,33.336,0.288c7.704,0,7.704,0,19.944-0.504
		c1.656-0.144,3.312-0.288,5.04-0.504c9.36-0.144,18.72-0.288,28.08-0.432c19.44-1.008,19.44-1.008,44.856-2.88
		c15.84-1.944,15.84-1.944,26.64-2.88c6.408-0.936,12.816-1.872,19.224-2.88c2.88-0.648,5.76-1.296,8.64-1.944
		c6.048-1.728,12.096-3.456,18.216-5.256c2.448-1.008,4.968-2.088,7.488-3.168c0.4319,0,0.936,0,1.44-0.072
		c-0.288,0.648-0.576,1.296-0.864,1.944c-1.8,1.944-3.6,3.888-5.4,5.832c-10.296,2.88-10.296,2.88-14.9041,3.816
		c-1.7999,0.648-3.5999,1.296-5.472,1.944c-8.64,1.656-8.64,1.656-32.688,5.544c-19.152,2.376-19.152,2.376-20.88,2.88
		c-3.6719,0.288-7.344,0.576-11.016,0.936c-0.144-0.216-0.288-0.432-0.504-0.72c-1.08-0.144-2.16-0.288-3.312-0.504
		c-1.008,0.144-2.088,0.288-3.168,0.504c-1.872,0-3.816,0-5.7599,0c-0.576,0.936-1.224,1.872-1.872,2.88
		c-1.08,0.144-2.232,0.288-3.384,0.504c-4.464,0.144-8.928,0.288-13.464,0.432c-1.656,0.216-3.312,0.432-5.04,0.72
		c-6.624,0.36-13.248,0.792-19.872,1.224c-5.688-0.144-11.376-0.288-17.064-0.504c-8.136,0.504-8.136,0.504-16.056,0.504
		c-2.808-0.36-5.6161-0.792-8.424-1.224c-1.656,0.216-3.312,0.432-5.04,0.72c-6.984,0-7.7039,0.288-21.6,0.288
		c-0.936,0.144-1.872,0.288-2.88,0.432c-15.624,0-15.624,0-23.04,0.288c-2.952-0.288-5.904-0.648-8.856-1.008
		c-2.664,0-5.328,0.072-7.992,0.144c-0.072,0.36-0.144,0.792-0.216,1.224c3.168,0.36,3.168,0.36,8.928,0.36
		c2.88,0.288,5.76,0.576,8.64,0.936c6.192-0.216,6.192-0.216,23.976,0c7.92-0.288,15.84-0.576,23.76-0.936
		c0.792-0.144,1.584-0.288,2.376-0.504c1.296,0,2.592,0,3.888,0c1.872,0.288,3.816,0.576,5.76,0.936
		c7.056-0.144,14.184-0.288,21.312-0.432c5.76,0.432,9.864,0.432,10.368,0.72c12.96-0.72,14.112-1.008,22.032-1.44
		c1.08-0.144,2.232-0.288,3.384-0.504c15.12-0.216,15.12-0.216,17.784,0c0.216,0.144,0.432,0.288,0.72,0.504
		c6.696,0.216,6.696,0.216,9.576,0c2.16-1.944,2.16-1.944,3.6-2.88c5.5439-1.008,13.464-1.944,13.6799-2.16
		c8.64-1.08,17.28-2.232,25.92-3.384c1.08-0.288,2.232-0.576,3.384-0.936c7.776-1.296,15.624-2.592,23.472-3.888
		c1.8-0.576,3.672-1.224,5.544-1.872c5.04-1.008,5.04-1.008,9.144-2.16c0.864,0,1.728,0,2.592,0.072
		c-15.264,23.832-15.264,23.832-17.136,27.144c-0.72,0.36-1.512,0.72-2.304,1.08c-0.792,0-1.584,0-2.376,0
		c-0.72-0.504-0.72-0.504-1.44-0.504c-1.44,1.008-1.44,1.008-3.6,1.944c-1.6559-0.144-1.6559-0.144-1.944-0.504
		c-1.656,0.288-1.656,0.288-3.096,0.864c-0.072,0.072-0.144,0.216-0.216,0.36c-4.104,0.2161-4.104,0.2161-6.984,0
		c-0.72,0.432-1.44,0.936-2.16,1.44c-1.512,0.144-3.024,0.288-4.536,0.504c-0.792-0.144-1.584-0.288-2.448-0.504
		c-0.936,0.936-0.936,0.936-1.872,1.44c-0.648,0.072-1.296,0.144-1.944,0.216c-0.288-0.144-0.576-0.288-0.936-0.432
		c-1.512,0.216-3.024,0.432-4.608,0.72c-1.872,0.936-2.376,1.44-4.32,2.16c-1.152,0-2.376,0-3.6,0
		c-1.8719-0.504-1.8719-0.504-2.88-1.224c-3.312,0-3.312,0-4.3199,0.216c-1.152,0.72-2.376,1.44-3.6,2.16
		c-1.08-0.072-2.16-0.144-3.312-0.216c-3.384-0.936-3.384-0.936-5.3279-1.944c-1.728,0.216-3.4561,0.432-5.256,0.72
		c-2.304,0-4.608,0-6.984,0c-0.288,0.2159-0.576,0.432-0.936,0.72c-0.288,0-0.576,0-0.936,0c-0.504,0.504-0.504,0.504-3.168,1.944
		c-2.448-0.288-4.896-0.576-7.416-0.936c-0.216-0.144-0.432-0.288-0.72-0.504c-0.648,0-1.296,0-1.944,0
		c-0.936,0.36-1.872,0.7919-2.88,1.2239c-5.256,0.936-5.256,0.936-5.472,1.152c-0.288-0.072-0.648-0.144-1.008-0.216
		c-1.656,0.504-1.656,0.504-2.16,0.936c-1.008,0.144-2.016,0.288-3.096,0.504c-2.664,0-5.4,0-8.136,0
		c-0.288,0.144-0.648,0.288-1.008,0.504c-1.872,0-4.32,0.432-13.392,0.936c-2.376,0-4.752,0-7.2,0
		c-0.648-0.144-1.2961-0.288-1.944-0.504c-0.144,0.144-0.288,0.288-0.504,0.504C188.064,529.92,188.064,529.92,185.904,529.92
		L185.904,529.92z M25.848,520.344c-2.304-0.288-4.608-0.576-6.984-0.936c-1.008-0.288-2.016-0.648-3.096-1.008
		c-1.224-0.936-1.224-0.936-2.088-2.016c-1.872-4.032-1.872-4.032-2.88-7.416c0.072-1.584,0.144-3.168,0.288-4.824
		c1.44-6.48,1.44-6.48,1.872-10.08c0.648-1.584,1.296-3.168,1.944-4.752c1.08-2.016,2.232-4.032,3.384-6.048
		c0.504,0,1.008-0.072,1.584-0.144c0.216,1.152,0.504,2.304,0.792,3.528c0,0.936,0,1.872,0,2.88
		c0.504,0.936,0.504,0.936,0.504,1.656c-0.288,0.432-0.648,0.936-1.008,1.44c0.072,0.36,0.216,0.792,0.36,1.224
		c1.584,0.936,1.584,0.936,2.16,1.656c0.216-0.144,0.432-0.288,0.648-0.432c0-0.36,0-0.792,0-1.224
		c-0.216-0.288-0.432-0.576-0.72-0.936c0.216-1.728,0.216-1.728-0.144-7.488c2.448,0.576,2.664,0.864,6.048,1.296
		c1.224,0.36,2.52,0.72,3.816,1.152c0,0.432,0,0.936,0.072,1.44c-0.936,1.44-0.936,1.44-1.872,3.816
		c-0.576,3.24-1.152,6.552-1.728,9.864c0,4.032,0.288,4.536,0.504,7.2c-1.8,0.792-1.8,0.792-2.736,0.792
		c-0.864-1.08-0.864-1.08-1.368-2.52c-0.432-0.288-0.864-0.576-1.296-0.936c-0.288-0.504-0.576-1.08-0.864-1.656
		c-0.144-1.728-0.288-3.528-0.432-5.328c-0.576-0.504-1.152-1.08-1.8-1.656c0-0.216-0.072-0.432-0.144-0.72
		c0.648-0.432,1.296-0.936,1.944-1.44c0-0.216-0.072-0.432-0.144-0.648c-0.432,0-0.936,0-1.44,0
		c-2.376,1.008-2.376,1.008-3.096,1.584c0,0.36-0.072,0.792-0.144,1.224c0.36,0.36,0.792,0.792,1.224,1.224
		c0.576,0.216,1.152,0.504,1.8,0.792c0.072,5.688,0.36,6.12,0.36,7.128c-0.504,0.432-0.504,0.432-1.008,1.656
		c-1.296,0.072-2.592,0.216-3.888,0.36c0,0.504-0.072,1.008-0.144,1.584c1.584,0.576,1.584,0.576,4.464,2.232
		c1.44,0.072,2.88,0.144,4.32,0.216c0.144,0.288,0.288,0.576,0.432,0.864c1.728,0.144,6.48-0.36,11.808-0.144
		c0.432-0.144,0.936-0.288,1.44-0.4319c0.216-0.576,0.432-1.152,0.72-1.728c1.512-0.288,3.024-0.576,4.536-0.936
		c1.872-1.224,3.816-2.52,5.76-3.816c1.512-1.44,3.024-2.88,4.536-4.32c1.656-1.296,3.312-2.592,5.04-3.888
		c1.512-0.792,3.024-1.584,4.608-2.376c0.144-0.288,0.288-0.576,0.432-0.864c-0.144-0.216-0.288-0.504-0.432-0.792
		c-3.24-0.936-6.552-1.872-9.864-2.88c-1.08-0.432-2.232-0.936-3.384-1.44c-0.936-1.008-0.936-1.008-1.872-1.44
		c-0.216-0.576-0.432-1.152-0.72-1.728c-1.44,0-1.44,0-4.104,0.504c-0.648-0.072-1.296-0.144-1.944-0.216
		c-4.032-1.944-4.032-1.944-5.256-2.88c-1.008,0.072-2.016,0.144-3.096,0.216c-0.144-0.144-0.288-0.288-0.504-0.504
		c-0.792,0-1.584,0-2.376,0c-0.864-0.432-1.728-0.936-2.664-1.44c-1.44-0.288-2.88-0.576-4.32-0.936
		c-0.504-0.216-1.08-0.504-1.656-0.792c0-0.216,0-0.432,0-0.72c3.816,0.288,5.76,0.792,9.792,1.296
		c0.36,0.288,0.792,0.576,1.224,0.936c1.224-0.504,1.224-0.504,2.16-0.504c0.648,0.432,1.296,0.936,1.944,1.44
		c1.008,0.288,2.016,0.648,3.096,1.008c2.088,0.072,4.176,0.144,6.264,0.216c2.88,1.224,5.76,2.52,8.64,3.816
		c0.36,0.288,0.72,0.648,1.152,1.008c1.152,0.504,2.376,1.08,3.6,1.656c8.424,2.376,8.424,2.376,8.64,2.664
		c2.016,0.432,4.032,0.864,6.12,1.296c-0.072,0.288-0.144,0.648-0.216,1.008c-6.552,4.464-13.176,8.928-19.8,13.392
		c-0.648,0.648-1.368,1.296-2.088,1.944c-3.456,1.8-4.608,2.736-8.928,4.68c-4.608,1.44-7.2,1.872-7.704,2.16
		C32.616,519.696,29.232,519.984,25.848,520.344L25.848,520.344z M34.704,510.264c-1.08-0.36-2.16-0.72-3.312-1.08
		c-0.432-0.936-0.432-0.936-0.504-3.096c3.6-0.144,3.6-0.144,7.2,0.072c1.224-0.432,1.44-0.72,2.16-0.792
		c-0.072,0.792-0.216,1.584-0.36,2.376c-0.648,0.792-1.296,1.584-1.944,2.448C36.864,510.192,35.784,510.192,34.704,510.264
		L34.704,510.264z M41.472,510.264c-0.144-0.792,0.288-1.512,0.792-4.392c0.288-3.744,0.576-7.488,0.936-11.304
		c0.144-0.288,0.288-0.576,0.432-0.864c1.08-0.504,2.16-1.08,3.312-1.656c0.432,0,0.936,0,1.44,0c0.432,0.36,0.936,0.72,1.44,1.152
		c4.608,1.944,4.608,1.944,9.36,3.384c0,0.288,0.072,0.576,0.144,0.864c-1.008,0.576-2.016,1.152-3.024,1.8
		c-0.936,1.152-3.6,3.096-7.632,7.2c-1.008,0.432-2.16,1.44-3.168,1.872c-0.36,0.288-0.72,0.648-1.152,1.008
		C43.416,509.616,42.48,509.904,41.472,510.264L41.472,510.264z M93.312,505.944c-1.728-0.144-3.528-0.288-5.328-0.504
		c0-0.648-0.072-1.296-0.144-2.016c0.144-0.216,0.288-0.432,0.504-0.72c3.024-0.36,5.688-0.36,6.12-0.144
		c3.888,0.288,4.824,0.72,7.488,1.08c0.072,0.504,0.144,1.008,0.288,1.512c-0.864,0.216-1.8,0.504-2.736,0.792
		C94.248,505.728,94.248,505.728,93.312,505.944L93.312,505.944z M31.392,503.568c-0.288-0.144-0.288-0.144-0.432-1.296
		c0.144-1.296,0.288-2.592,0.432-3.888c4.32,1.296,4.32,1.296,5.976,2.16c0,0.432,0,0.936,0.072,1.44
		c-0.216,0.432-0.504,0.864-0.792,1.296C35.928,503.568,35.928,503.568,31.392,503.568L31.392,503.568z M32.328,495.504
		c0-0.576,0-1.224,0.072-1.872c0.36-0.72,0.72-1.44,1.152-2.232c0.36,0,0.72,0,1.152-0.072c0.648,0.504,1.296,1.08,1.944,1.656
		c0,0.36,0,0.72,0.072,1.08c-0.576,0.36-0.576,0.36-2.448,0.36C33.048,495.36,33.048,495.36,32.328,495.504L32.328,495.504z
		 M87.048,494.424c-1.728-0.144-3.456-0.288-5.256-0.504c-0.144-1.296-0.144-1.296,0.288-2.952c2.304-0.144,2.304-0.144,4.968,0.072
		c0.216-0.36,0.432-0.72,0.72-1.08c0.72,0,1.44,0,2.16-0.072c1.44,0.936,1.44,0.936,3.6,1.872c2.376,0.504,2.376,0.504,6.264,0.72
		c0.216,0.144,0.504,0.288,0.792,0.432c0,0.216,0,0.504-0.072,0.792C95.472,494.208,95.472,494.208,87.048,494.424L87.048,494.424z
		 M185.184,493.92c-4.752,0-9.576,0-14.4-0.072c0-0.216,0-0.432,0-0.72c1.44-0.36,4.104-0.36,5.544-0.648
		c8.064-0.144,16.128-0.288,24.264-0.432c0.144,0.144,0.288,0.288,0.432,0.432c0.432-0.144,0.936-0.288,1.44-0.432
		c3.024,0,6.048,0,9.144,0c1.08-0.288,2.232-0.648,3.384-1.008c20.376-1.152,20.376-1.152,22.032-1.44
		c10.8,0,11.088,0.288,12.528,0.288c0.432-0.288,0.432-0.288,11.016-1.008c11.016-1.656,11.016-1.656,19.656-2.592
		c2.376-0.648,4.752-1.296,7.2-1.944c7.704-1.44,10.584-1.656,16.344-2.664c5.184-0.288,10.368-0.576,15.624-0.936
		c1.728-0.288,3.4561-0.576,5.256-0.936c0.792-0.864,0.792-0.864,1.224-2.304c7.92-0.864,7.92-0.864,11.016-1.584
		c1.872-0.072,3.816-0.144,5.76-0.288c0,0.432,0,0.936,0.072,1.44c0.216,0.144,0.432,0.288,0.648,0.432
		c0.792-0.432,0.792-0.432,2.376-2.592c6.984-0.864,6.984-0.864,10.584-1.584c3.384,0.216,3.6,0,5.544,0.072
		c-0.504,0.648-0.504,0.648-1.944,1.584c-1.512,0.648-3.024,1.296-4.536,1.944c-6.552,1.872-13.104,3.816-19.728,5.76
		c-3.312,0.432-7.2,1.44-25.92,4.32c-12.672,0.936-15.12,1.44-32.112,3.096c-5.76,0.36-11.52,0.792-17.28,1.224
		c-44.208,1.872-52.344,1.872-68.4,2.592C189.72,493.92,187.488,493.92,185.184,493.92L185.184,493.92z M75.024,493.704
		c-1.872-0.288-3.816-0.576-5.76-0.936c-3.24-1.008-6.48-2.016-9.792-3.024c0-0.216,0-0.432,0-0.72
		c1.728,0.144,3.456,0.36,5.256,0.576c2.304,0,4.608,0,6.984,0c1.44,0.288,2.88,0.648,4.32,1.008c1.224,0,2.52,0.072,3.816,0.144
		c-0.36,2.376-0.36,2.376-0.72,2.952C77.76,493.704,76.392,493.704,75.024,493.704L75.024,493.704z M103.608,493.488
		c-0.072-0.288-0.144-0.576-0.216-0.864c0.576,0,1.224-0.072,1.872-0.144c0.144,0.216,0.288,0.432,0.504,0.648
		c-0.072,0.072-0.144,0.216-0.216,0.36C104.904,493.488,104.256,493.488,103.608,493.488L103.608,493.488z M108.144,493.632
		c0-0.288,0-0.648,0-1.008c0.648,0.072,1.296,0.216,1.944,0.36C109.152,493.488,109.152,493.488,108.144,493.632L108.144,493.632z
		 M117.288,493.344c1.656-0.36,1.656-0.36,1.944-0.144C118.944,493.488,118.944,493.488,117.288,493.344L117.288,493.344z
		 M129.312,493.632c0-0.216,0-0.432,0-0.72c1.44,0,2.88,0,4.32,0.072c-0.144,0.144-0.288,0.288-0.504,0.504
		C131.904,493.488,130.608,493.56,129.312,493.632L129.312,493.632z M134.784,493.344c0.72-0.144,1.44-0.36,2.16-0.576
		c0.36,0,0.792,0.072,1.224,0.144c0.072,0.216,0.144,0.432,0.216,0.72C137.232,493.56,136.008,493.488,134.784,493.344
		L134.784,493.344z M138.888,493.632c0-0.216,0-0.432,0-0.72c0.792,0.072,1.584,0.144,2.376,0.288
		C141.048,493.488,141.048,493.488,138.888,493.632L138.888,493.632z M39.744,492.984c-0.144-0.072-0.36-0.216-0.576-0.36
		c0-0.288,0-0.576,0.072-0.936c0.648,0,1.296-0.072,1.944-0.144c0.072,0.36,0.216,0.72,0.36,1.08
		C41.184,492.984,41.184,492.984,39.744,492.984L39.744,492.984z M111.528,491.328c-0.936-0.288-1.872-0.576-2.808-0.864
		c0-1.008,0.072-2.016,0.144-3.096c2.448,0.072,6.264,0.792,8.424,0.792c0.36-0.216,0.72-0.504,1.08-0.792
		c0.432-1.44,0.432-1.44,1.152-2.376c-0.072-0.288-0.144-0.648-0.216-1.008c-0.576-0.36-3.456-0.576-4.176-0.864
		c-0.864,0-1.728,0-2.664,0c-1.656,0.648-2.16,1.224-2.88,1.368c0.144-1.152,0.36-2.376,0.576-3.6
		c0.144-0.072,0.288-0.216,0.432-0.36c8.352-0.504,12.96-0.504,13.896-0.72c4.536,0,6.696-0.288,18-0.504
		c7.2,0.216,9.576,0,15.84,0.144c-0.36,0.936-0.36,0.936-1.368,1.944c-1.08,0.576-2.16,1.224-3.24,1.872
		c-2.232,2.376-4.536,4.752-6.84,7.2c-0.72,0.072-1.44,0.216-2.232,0.36c-21.6,0.216-21.6,0.216-25.2,0
		C116.856,490.968,114.192,491.112,111.528,491.328L111.528,491.328z M154.224,491.04c-1.152,0-2.376,0-3.6-0.072
		c0.072-0.432,0.216-0.936,0.36-1.44c0.6479-0.864,1.296-1.728,1.944-2.664c4.392-3.816,7.056-5.616,8.784-7.344
		c3.888,0,7.776,0.072,11.736,0.144c-0.072,3.528-0.216,7.056-0.36,10.584c-0.144,0.072-0.36,0.216-0.576,0.36
		c-2.16-0.288-2.16-0.288-4.32,0c-0.216,0.144-0.432,0.288-0.72,0.432C163.08,491.04,158.688,491.04,154.224,491.04L154.224,491.04z
		 M96.408,490.32c-0.792-0.144-1.584-0.288-2.376-0.432c-1.728-1.008-1.728-1.008-2.16-1.584c0-0.288-0.072-0.576-0.144-0.936
		c1.08-0.36,1.08-0.36,8.28-0.864c0.432,0.432,0.864,0.864,1.296,1.368c-0.072,0.504-0.144,1.08-0.216,1.656
		c-0.216,0.216-0.432,0.432-0.648,0.72C99.144,490.248,97.776,490.248,96.408,490.32L96.408,490.32z M103.608,490.464
		c0-1.152,0-2.376,0.072-3.6c-0.576-0.72-0.576-0.72-1.44-1.152c-0.936-1.728-0.936-1.728-1.44-2.16c0-0.72,0-1.44-0.072-2.232
		c0.936-0.36,3.096-0.36,5.76-0.792c0.432,0.072,0.936,0.144,1.44,0.216c0.072,1.08-1.368,9-1.656,9.36
		C105.408,490.176,104.544,490.32,103.608,490.464L103.608,490.464z M177.048,490.32c-0.432-0.072-0.936-0.144-1.44-0.288
		c-0.072-0.288-0.216-0.648-0.36-1.008c0.072-2.304,0.144-4.608,0.216-6.912c0.144-0.792,0.288-1.584,0.504-2.448
		c4.248,0,8.496-0.072,12.816-0.144c1.872,0.288,3.744,0.576,5.616,0.864c0,3.168,0.288,3.384,0.288,5.328
		c-1.008,3.816-1.008,3.816-1.296,4.176C187.992,490.032,182.52,490.176,177.048,490.32L177.048,490.32z M196.488,489.888
		c-0.216,0-0.432-0.072-0.72-0.144c0.216-1.872,0.432-3.816,0.72-5.76c1.152,0,2.376,0.072,3.6,0.144
		c0.216,0.648,0.504,1.296,0.792,2.016c-0.072,1.08-0.144,2.232-0.216,3.384c-0.072,0.072-0.216,0.216-0.36,0.36
		C199.08,489.888,197.784,489.888,196.488,489.888L196.488,489.888z M205.632,489.888c-0.792,0-1.584-0.072-2.448-0.144
		c-0.072-1.872-0.144-3.816-0.216-5.76c3.6-0.144,3.6-0.144,4.176-0.432c0-0.288,0-0.648,0-1.008
		c-0.576-0.36-0.576-0.36-3.6721-0.864c-2.376-0.072-4.752-0.144-7.128-0.288c0-0.36,0.072-0.72,0.144-1.152
		c6.48,0,6.48,0,10.08,0.288c2.664,2.16,2.664,2.16,8.424,5.976c4.752,0,8.64,0.504,11.52,0.504
		c1.728-0.144,3.456-0.288,5.256-0.504c0.216-0.144,0.432-0.36,0.72-0.576c0-0.36,0-0.792,0.072-1.224
		c-0.504-1.152-1.08-2.376-1.656-3.6c0-0.504,0.072-1.08,0.144-1.656c0.864-0.072,1.728-0.216,2.664-0.36
		c0.936,1.512,0.936,1.512,2.448,5.904c0.216,0.144,0.432,0.288,0.648,0.432c4.104,0.36,4.104,0.36,9.864,0.36
		c0.936-0.504,0.936-0.504,1.656-0.576c0.072,1.44,0.072,1.44-0.216,2.232c-10.8,0-10.8,0-11.52,0.288
		c-14.904,0.936-14.904,0.936-15.1201,1.152c-1.8,0-3.672,0-5.5439,0c-1.368,0.288-2.7361,0.648-4.104,1.008
		C209.808,489.888,207.72,489.888,205.632,489.888L205.632,489.888z M162.864,489.384c0-0.432-0.072-0.864-0.144-1.296
		c0.288-0.504,0.648-1.08,1.008-1.656c1.296-1.44,2.664-2.88,4.032-4.32c0.432,0,0.864,0,1.368-0.072
		c-0.936,1.368-0.936,1.368-1.944,2.304c-0.072,0.648-0.216,1.368-0.36,2.088c-0.144,0.144-0.288,0.288-0.504,0.432
		c-0.144,0.792-0.288,1.584-0.432,2.448C164.88,489.312,163.872,489.312,162.864,489.384L162.864,489.384z M181.584,488.448
		c-1.44-1.008-1.44-1.008-2.304-2.016c-0.072-0.72-0.144-1.44-0.216-2.16c0.072-0.288,0.216-0.648,0.36-1.008
		c0.36-0.072,0.792-0.216,1.224-0.36c4.8239,0.216,4.8239,0.216,6.9839,0.72c0.2881,0.576,0.648,1.152,1.008,1.8
		c0,0.432,0,0.936,0,1.44c-0.576,0.288-1.152,0.648-1.8,1.008C184.032,488.448,184.032,488.448,181.584,488.448L181.584,488.448z
		 M137.448,488.16c-2.88-0.432-2.88-0.432-3.24-0.792c-0.288-1.44-0.288-1.44-0.288-3.384c0.144-0.216,0.288-0.432,0.504-0.72
		c0.864-0.144,5.904,0.36,7.848,0.864c0.72,0.504,1.44,1.008,2.16,1.512c0.072,1.008,0.072,1.008-0.288,1.8
		c-0.576,0.216-1.224,0.432-1.872,0.72C140.688,488.16,139.104,488.16,137.448,488.16L137.448,488.16z M71.712,487.944
		c-3.528-0.288-7.056-0.576-10.584-0.936c-1.44,0-2.88,0-4.32,0.072c-0.072,0.072-0.144,0.216-0.216,0.36
		c-1.44-0.216-2.16-0.72-3.6-1.08c-0.504-0.936-0.504-0.936-0.648-2.808c0.144-0.648,0.288-1.296,0.504-1.944
		c0.36,0,0.72-0.072,1.08-0.144c3.384,0.792,6.84,1.584,10.296,2.376c5.04,1.944,5.04,1.944,8.208,2.88
		c0.288,0.432,0.288,0.432,0.216,1.224C72.36,487.944,72.072,487.944,71.712,487.944L71.712,487.944z M77.472,487.728
		c-0.576-0.144-1.152-0.288-1.728-0.504c-0.936-1.224-0.936-1.224-2.88-2.664c-4.536-1.152-5.256-1.656-12.24-3.6
		c-5.04-0.936-5.04-0.936-6.48-1.512c0-0.288-0.072-0.576-0.144-0.936c0.288-0.792,0.648-1.584,1.008-2.448
		c0.288,0,0.576-0.072,0.864-0.144c0.288,0.144,0.576,0.288,0.936,0.504c19.224,2.88,19.44,3.096,24.264,3.528
		c0,1.872-0.072,3.816-0.144,5.76c-0.504,1.656-0.504,1.656-0.864,2.016C79.2,487.728,78.336,487.728,77.472,487.728L77.472,487.728
		z M82.728,487.44c0-2.232,0-4.464,0.072-6.768c0.216-0.216,0.432-0.432,0.648-0.72c1.368,0,2.736-0.072,4.104-0.144
		c3.24,0.36,6.48,0.72,9.792,1.152c0.864,1.584,0.864,1.584,1.08,3.024c-0.072,0.144-0.216,0.36-0.36,0.576
		c-5.256,0.504-5.256,0.504-10.296,0.504c-2.16,1.944-2.16,1.944-3.096,2.376C84.024,487.44,83.376,487.44,82.728,487.44
		L82.728,487.44z M250.992,487.44c-0.432-1.296-0.432-1.296-0.432-2.952c2.52-1.656,5.112-3.312,7.704-5.04c0-0.432,0-0.936,0-1.44
		c-0.2159-0.144-0.4319-0.288-0.72-0.504c-0.072-0.36-0.216-0.72-0.36-1.152c1.296,0,2.592-0.072,3.8879-0.144
		c1.152,0.216,2.376,0.432,3.6,0.72c-0.144,0.144-0.288,0.288-0.504,0.432c-0.072,2.448-0.216,4.896-0.36,7.344
		c-0.288,0.576-0.6479,1.152-1.008,1.728c-0.4319,0.144-0.864,0.36-1.296,0.576C258.048,487.152,254.52,487.296,250.992,487.44
		L250.992,487.44z M265.608,486c-0.144-0.792,0.36-2.016,0.576-7.776c-0.216-0.144-0.432-0.288-0.72-0.432
		c-0.072-0.288-0.216-0.648-0.36-1.008c0.72,0,1.44,0,2.16,0c0.36,1.44,0.576,5.328,1.0081,7.704
		c0.936,0.072,0.936,0.072,1.296-0.216c0.072-0.576,0.144-1.152,0.216-1.728c-0.504-2.16-0.504-2.16-0.792-5.76
		c2.736,0,5.544,0,8.352,0c-0.144,1.8-0.36,3.672-0.576,5.544c0.144,0.432,0.288,0.936,0.432,1.44
		c0.864,0.072,1.368-0.36,2.16-0.216c0,0.216,0,0.504-0.072,0.792c-3.6,0.504-7.2,1.08-10.8,1.656
		C267.552,486,266.616,486,265.608,486L265.608,486z M49.392,484.56c-0.648-0.288-1.296-0.576-1.944-0.936
		c-0.936-0.144-1.872-0.36-2.88-0.576c0-0.36,0-0.792,0.072-1.224c0.576-0.792,1.224-1.656,1.872-2.52
		c1.296,0.36,2.664,0.72,4.032,1.08c0.072,0.576,0.216,1.152,0.36,1.728c-0.216,0.792-0.504,1.584-0.792,2.448
		C49.896,484.56,49.68,484.56,49.392,484.56L49.392,484.56z M280.944,483.768c0.864-5.04,0.864-5.04,0.72-6.12
		c-0.36,0-0.72-0.072-1.152-0.144c-0.288,1.152-0.5759,2.376-0.864,3.6c-0.216,0.36-0.432,0.792-0.72,1.224
		c-0.144-0.288-0.2881-0.576-0.504-0.936c0.2159-1.944,0.2159-1.944,1.08-4.824c1.944-0.36,1.944-0.36,6.768-0.648
		c1.224,0.144,2.52,0.288,3.816,0.432c0.144,0.216,0.288,0.504,0.504,0.792c0.3599,0.144,0.72,0.288,1.152,0.504
		c1.008,0,2.088-0.072,3.168-0.144c-0.144,1.944-0.144,1.944-0.648,3.384c-0.792,0.36-3.456,0.792-4.8959,1.296
		C285.768,482.688,282.672,483.624,280.944,483.768L280.944,483.768z M40.248,483.12c-0.792-0.288-1.584-0.576-2.376-0.936
		c-0.36-0.36-0.792-0.792-1.224-1.224c-0.648-0.144-1.296-0.36-1.944-0.576c0.288-1.368,0.648-2.736,1.008-4.104
		c3.096-0.144,6.192-0.288,9.36-0.432c-0.144,0.648-0.288,1.296-0.432,1.944c-0.936,1.728-1.872,3.456-2.88,5.256
		C41.256,483.048,40.752,483.048,40.248,483.12L40.248,483.12z M296.784,480.672c0.144-2.88,0.144-2.88,0.504-3.312
		c1.2239-0.144,2.52-0.288,3.816-0.432c0.72-0.288,1.44-0.648,2.16-1.008c0.144-0.216,0.288-0.432,0.504-0.72
		c2.304-0.288,4.608-0.576,6.984-0.936c5.7599-0.216,5.7599-0.216,7.632-0.504c0.36,0.144,0.792,0.288,1.2239,0.504
		c0.7921,1.008,1.584,2.016,2.376,3.096c0,0.288,0.072,0.576,0.144,0.864c-0.144,0.072-0.36,0.216-0.576,0.36
		c-12.024,0.936-12.96,1.224-19.944,1.44C299.952,480.528,299.952,480.528,296.784,480.672L296.784,480.672z M31.608,480.024
		c-5.976-0.936-6.984-1.44-7.92-1.512c0-0.216,0-0.432,0-0.72c1.224-0.288,2.52-0.576,3.816-0.864
		c2.016-0.144,4.032-0.36,6.048-0.576c-0.288,1.152-0.576,2.376-0.864,3.6C32.328,479.952,31.968,479.952,31.608,480.024
		L31.608,480.024z M100.728,479.232c-0.36-3.168-0.36-3.168-0.864-4.824c-0.144-0.216-0.288-0.432-0.504-0.72
		c-0.288,0-0.648-0.072-1.008-0.144c-0.144,0.144-0.288,0.36-0.504,0.576c-0.072,0.936-0.144,1.872-0.216,2.808
		c-1.368,0-2.736,0-4.104,0c-0.216-0.216-0.432-0.432-0.72-0.72c-8.64-0.288-8.64-0.288-9.288-0.576
		c0.144-1.584,0.288-3.168,0.432-4.824c3.744,0,7.488-0.072,11.232-0.144c1.728,0.936,1.728,0.936,10.584,3.816
		c0.792,0.432,1.656,0.864,2.52,1.368c0.072,0.864,0.144,1.728,0.216,2.664C105.048,479.088,105.048,479.088,100.728,479.232
		L100.728,479.232z M110.808,478.584c0-0.648-0.072-1.296-0.144-2.016c0.216-0.072,0.432-0.216,0.648-0.36
		c3.6-0.144,7.2-0.288,10.8-0.504c0.144-0.072,0.36-0.216,0.576-0.36c-0.072-0.36-0.216-0.72-0.36-1.08
		c-3.816-0.504-3.816-0.504-10.224-0.792c0.216-1.944,0.216-1.944,0.648-2.592c6.696,0,6.696,0,7.416,0.288
		c12.528-0.216,25.056-0.432,37.656-0.72c2.304,0.144,4.608,0.288,6.984,0.432c0.504,0.72,0.504,0.72,0.576,1.872
		c-1.296,1.512-2.592,3.024-3.96,4.608c-1.584,0.144-3.168,0.288-4.752,0.504c-24.48,0-24.48,0-31.68,0.216
		C123.264,478.368,123.264,478.368,110.808,478.584L110.808,478.584z M51.264,478.368c-0.72-0.36-1.44-0.792-2.16-1.224
		c0-0.216-0.072-0.504-0.144-0.792c0.432-0.432,1.584-0.864,1.944-1.44c0.072-0.576,0.144-1.152,0.216-1.728
		c0.432-0.36,0.432-0.36,1.584-0.36c0.144,0.144,0.288,0.288,0.504,0.504c0,0.576,0,1.152,0.072,1.8
		c-0.432,1.08-0.864,2.16-1.296,3.24C51.768,478.368,51.552,478.368,51.264,478.368L51.264,478.368z M177.048,477.864
		c-0.216,0-0.432,0-0.72-0.072c-0.072-2.304-0.144-4.608-0.216-6.984c1.584,0,3.168-0.072,4.752-0.144
		c1.08,0.144,2.232,0.288,3.384,0.504c0.36-0.36,0.36-0.36,0.216-1.296c-1.872-0.864-1.872-0.864-2.376-1.368
		c9.576,0,12.456,0.216,24.2639-0.072c-0.288,0.504-0.576,1.08-0.864,1.656c-0.648,0.648-1.368,1.296-2.088,1.944
		c-1.008,0.072-2.016,0.144-3.096,0.288c-0.432,1.08-0.864,2.16-1.296,3.312c-0.648,0.72-1.296,1.44-1.944,2.16
		C181.584,477.648,181.584,477.648,177.048,477.864L177.048,477.864z M229.608,477.648c-0.36-0.504-0.72-1.008-1.08-1.584
		c-0.36-1.44-0.72-2.88-1.08-4.32c-1.656-0.144-1.656-0.144-9.36,0.864c-2.88-0.288-2.88-0.288-8.64-0.36
		c0-0.216,0-0.432,0.072-0.72c1.008-0.648,2.016-1.296,3.024-1.944c1.008-0.288,2.088-0.576,3.168-0.864
		c4.464-0.288,8.9279-0.576,13.392-0.936c1.512,0.072,3.024,0.144,4.608,0.216c1.728,0.288,3.456,0.648,5.256,1.008
		c9.36,0.936,9.36,0.936,9.936,1.296c0,0.432,0,0.936,0,1.44c-0.576,0.36-0.576,0.36-2.016,0.576c-4.32-0.216-8.64-0.432-12.96-0.72
		c-1.944,0.504-1.944,0.504-2.304,0.864c-0.072,0.792-0.144,1.584-0.216,2.448c0.432,0.72,0.432,0.72,0.72,2.16
		C231.336,477.216,230.472,477.432,229.608,477.648L229.608,477.648z M73.152,477.144c-5.04-0.792-10.08-1.584-15.12-2.376
		c-0.288-0.144-0.648-0.288-1.008-0.504c-1.296-2.232-1.296-2.232-1.296-2.952c0.144-0.144,0.36-0.288,0.576-0.432
		c1.656-0.216,3.312-0.432,5.04-0.72c3.024-0.072,6.048-0.144,9.144-0.216c5.256,0.504,9.144,0.504,12.744,1.08
		c-0.288,0.36-0.576,0.792-0.864,1.224c-0.144,1.08-0.288,2.232-0.504,3.384c-0.576,0.288-0.576,0.288-6.84,0.288
		c-0.288,0.36-0.576,0.792-0.936,1.224C73.8,477.144,73.512,477.144,73.152,477.144L73.152,477.144z M173.232,476.568
		c-0.144-0.288-0.288-0.576-0.504-0.864c-0.36-0.144-0.792-0.288-1.224-0.504c-1.728,0-3.456,0.072-5.256,0.144
		c0.072-0.36,0.144-0.72,0.216-1.08c1.008-0.288,2.088-0.576,3.168-0.936c0.432-0.288,0.864-0.576,1.2961-0.864
		c0.072-0.504,0.216-1.008,0.36-1.584c0.432,0,0.936,0,1.44,0c0.36,0.36,0.792,0.792,1.224,1.224c0,1.44,0,2.952,0.072,4.464
		C173.808,476.568,173.52,476.568,173.232,476.568L173.232,476.568z M20.592,476.208c-0.072-1.08-0.144-2.16-0.288-3.24
		c2.16,0.072,3.384,0.576,6.264,1.08c0.216,0.36,0.216,0.36-0.216,0.936C24.48,475.344,22.536,475.776,20.592,476.208
		L20.592,476.208z M252.144,474.768c-0.2881-0.072-0.576-0.216-0.864-0.36c0-0.864,0-1.728-0.072-2.664
		c0.936,0.36,0.936,0.36,2.736,1.944c0,0.72,0,0.72-0.36,1.08C253.152,474.768,252.648,474.768,252.144,474.768L252.144,474.768z
		 M263.232,474.768c-0.72-0.288-0.72-0.288-5.04-0.72c-2.88-1.944-2.88-1.944-4.752-3.744c0-0.288,0-0.576-0.072-0.936
		c1.44-0.36,1.944-0.864,3.384-1.08c0.432-0.288,7.92,0,36.216-0.72c0.792,0,1.656,0.072,2.52,0.144
		c-0.288,5.76-0.288,5.76-0.576,6.336c-0.792,0.144-1.584,0.288-2.448,0.432c-2.376-0.072-4.752-0.144-7.2-0.216
		c-2.4479,0.144-4.8959,0.288-7.416,0.504C273.024,474.768,268.128,474.768,263.232,474.768L263.232,474.768z M322.272,474.048
		c-0.072-0.36-0.144-0.72-0.288-1.08c2.016,0,4.032-0.072,6.048-0.144c2.592-0.432,5.256-0.936,7.92-1.44
		c3.0959-0.144,6.192-0.36,9.36-0.576c-0.216,0.648-0.432,1.296-0.72,2.016c-1.152,0.288-2.376,0.576-3.6,0.936
		c-3.168,0-3.6-0.216-10.08,0C328.752,474.048,328.752,474.048,322.272,474.048L322.272,474.048z M37.584,473.76
		c-0.288,0-0.576,0-0.936-0.072c0.144-1.728,0.36-3.456,0.576-5.256c-0.504-1.008-0.504-1.008-1.08-1.368
		c-5.472-0.504-5.472-0.504-5.904-0.792c0-0.432,0.072-0.864,0.144-1.368c9.288-0.504,18.576-1.08,27.864-1.656
		c0.072,3.456,0.072,3.456-0.216,5.04c-2.448,0.432-3.6,0.936-6.48,1.152c-1.008-0.432-1.008-0.432-1.944-0.432
		c-0.36,0.576-0.36,0.576-0.36,2.736c-0.72,0.576-1.512,1.152-2.304,1.8C43.848,473.616,40.752,473.688,37.584,473.76L37.584,473.76
		z M31.824,473.544c-0.144-0.072-0.36-0.216-0.576-0.36c-0.288-1.44-0.288-1.44-0.144-4.32c0.936,0,1.872-0.072,2.88-0.144
		c0.288,0.144,0.576,0.288,0.936,0.432c0,0.72,0.072,1.44,0.144,2.16c-0.216,0.72-0.504,1.44-0.792,2.232
		C33.48,473.544,32.688,473.544,31.824,473.544L31.824,473.544z M297.288,473.544c-0.072-0.36-0.216-0.72-0.36-1.08
		c0.072-1.152,0.144-2.376,0.216-3.6c0.144-0.432,0.36-0.936,0.576-1.44c0.864,0,1.728-0.072,2.664-0.144
		c1.152,0.288,2.376,0.648,3.6,1.008c2.16,0.288,4.32,0.576,6.48,0.936c3.168,0.936,5.544,1.944,6.048,2.376
		c-0.1439,0.144-0.288,0.288-0.504,0.504c-5.256,0.216-5.256,0.216-11.304,0.936C303.984,473.328,303.984,473.328,297.288,473.544
		L297.288,473.544z M107.928,473.328c-1.512-0.648-3.024-1.296-4.608-2.016c-0.072-0.216-0.144-0.432-0.216-0.72
		c2.016,0.072,4.032,0.144,6.048,0.216c-0.144,0.72-0.288,1.44-0.432,2.16C108.144,473.472,108.144,473.472,107.928,473.328
		L107.928,473.328z M28.008,472.608c-1.656-0.36-3.312-0.792-5.04-1.224c-0.288-0.216-0.576-0.432-0.936-0.72
		c-0.936-0.072-1.872-0.216-2.88-0.36c-0.288-0.72-0.576-1.44-0.864-2.16c-0.216-0.144-0.432-0.288-0.72-0.432
		c-0.144-0.648-0.36-1.296-0.576-1.944c1.8,0.216,3.6,0.504,5.472,0.792c2.088,0.576,4.176,1.224,6.336,1.872
		c0.288,1.152,0.288,1.152,0.288,3.816C28.728,472.608,28.728,472.608,28.008,472.608L28.008,472.608z M347.472,472.464
		c0-0.432,0-0.936,0.072-1.44c0.144-0.144,0.36-0.288,0.576-0.432c2.304-0.288,4.608-0.576,6.984-0.864
		c1.296,0,2.592,0.072,3.96,0.144c0,0.216,0,0.432,0,0.72c-0.576,0.432-0.576,0.432-7.272,1.728
		C350.352,472.32,348.912,472.392,347.472,472.464L347.472,472.464z M365.184,471.168c-2.16-0.504-2.16-0.504-2.736-0.864
		c0.072-0.36,0.144-0.72,0.216-1.152c0.648-0.432,0.648-0.432,5.184-1.152c0.648,0,1.296,0,1.944-0.072
		c-0.144,0.72-0.144,0.72-1.368,1.944c-0.432,0.288-0.936,0.576-1.44,0.936C366.408,470.88,365.832,471.024,365.184,471.168
		L365.184,471.168z M320.328,470.88c-2.304-0.936-4.608-1.872-6.984-2.88c-1.296-0.216-2.664-0.504-4.032-0.792
		c0-0.216,0-0.432,0-0.72c6.192-0.432,12.456-0.936,18.72-1.44c-0.576,1.512-1.2241,3.024-1.872,4.536
		c-0.288,0.36-0.576,0.792-0.936,1.224C323.64,470.808,321.984,470.808,320.328,470.88L320.328,470.88z M328.752,470.448
		c-0.288-0.144-0.288-0.144-0.432-0.864c0.648-1.656,1.296-3.312,1.944-5.04c15.264-2.736,16.488-3.24,19.08-3.744
		c0.648,0,1.296,0,1.944-0.072c-0.288,0.792-0.576,1.584-0.864,2.376c-0.936,1.656-1.872,3.312-2.88,5.04
		C346.752,468.504,346.752,468.504,328.752,470.448L328.752,470.448z M89.928,468.72c-0.288-0.072-0.288-0.072-0.36-1.008
		c0.936-1.008,0.936-1.008,2.88-4.32c0.576-0.432,1.152-0.864,1.8-1.368c3.168,0.216,6.336,0.432,9.576,0.72
		c1.008,0.504,3.168,0.936,13.968,5.4c-0.144,0.144-0.288,0.36-0.504,0.576c-6.552-0.072-13.104-0.144-19.656-0.216
		c-1.296-0.144-2.592-0.288-3.888-0.504c-0.216,0.144-0.432,0.288-0.72,0.504C92.016,468.576,91.008,468.648,89.928,468.72
		L89.928,468.72z M350.064,468.144c0.072-0.576,0.216-1.224,0.36-1.872c0.648-1.368,1.296-2.736,1.944-4.104
		c0.072-0.72,0.2159-1.44,0.36-2.16c1.44-0.36,1.44-0.36,2.88-0.288c-0.576,1.224-1.152,2.448-1.8,3.672
		c-0.288,0.288-0.6479,0.576-1.008,0.936c-0.936,2.376-0.936,2.376-1.728,3.672C350.784,468,350.424,468.072,350.064,468.144
		L350.064,468.144z M61.848,467.784c-1.44-0.216-1.44-0.216-1.8-0.576c0.216-2.88,0.216-2.88,0.72-4.104
		c3.384-0.288,6.768-0.576,10.224-0.864c13.176-0.432,13.176-0.432,13.68-0.72c4.536-0.432,5.04-0.72,6.48-0.576
		c-2.808,4.824-2.808,4.824-3.384,5.328c-1.44,0.144-2.88,0.36-4.32,0.576c-5.256-0.288-5.256-0.288-6.264,0
		C69.264,467.28,66.168,467.784,61.848,467.784L61.848,467.784z M353.952,467.712c0.072-0.432,0.144-0.936,0.288-1.44
		c3.888-6.984,3.888-6.984,4.968-8.352c1.6559-0.936,5.256-2.376,7.2-2.88c1.944-0.936,4.824-1.872,6.696-2.88
		c0.432,0,0.936,0,1.44-0.072c-0.072,0.288-0.216,0.576-0.36,0.936c-1.368,1.368-2.736,2.736-4.104,4.104
		c-3.816,4.824-3.816,4.824-7.92,9.144c-1.512,0.792-1.512,0.792-3.456,1.296C357.12,467.568,355.536,467.64,353.952,467.712
		L353.952,467.712z M176.328,466.56c0-0.432-0.072-0.864-0.144-1.296c0.216-0.288,0.432-0.576,0.72-0.936
		c0-0.936,0-0.936-0.36-1.944c1.44,0.288,2.88,0.576,4.32,0.864c2.232,0.936,4.464,1.872,6.768,2.88
		C187.344,466.344,187.344,466.344,176.328,466.56L176.328,466.56z M195.552,466.344c-3.168-0.936-5.328-1.944-7.488-2.376
		c-2.52-1.08-5.112-2.16-7.704-3.24c0-0.72,0.36-0.936,0.792-1.944c-0.648-0.144-1.2961-0.36-1.944-0.576
		c-3.024-0.072-6.048-0.144-9.144-0.288c-1.44-0.288-2.88-0.648-4.32-1.008c0.072-0.288,0.144-0.576,0.288-0.864
		c0.576,0,1.224,0,1.872,0c0.144,0.144,0.288,0.288,0.504,0.432c9.144-0.72,9.144-0.72,11.52-1.152
		c1.584-0.72,3.168-1.44,4.824-2.16c1.008,0,2.016,0.072,3.096,0.144c-0.864,1.656-0.864,1.656-1.08,3.096
		c0.36,0.36,0.36,0.36,1.8,0.792c2.376-0.216,2.376-0.216,7.416,0c0.4319,0.432,0.864,0.864,1.296,1.368c0,0.72,0,0.72-0.36,0.936
		c-0.144-0.144-0.36-0.288-0.576-0.432c-3.024-0.216-6.12-0.432-9.216-0.648c-0.144,0.648-0.144,0.648,0.216,1.368
		c2.448,0.216,4.968,0.504,7.488,0.792c0.288,0.144,0.576,0.288,0.936,0.504c0.936,0.072,1.872,0.144,2.88,0.216
		c0.432-0.432,0.864-0.864,1.296-1.296c0-0.432,0-0.936,0-1.44c-0.144-0.144-0.288-0.288-0.504-0.504
		c-0.216-1.872-0.216-1.872-0.576-2.16c-0.216-0.792-0.432-1.584-0.72-2.376c1.44,0.216,2.88,0.504,4.32,0.792
		c0.072,0.648,0.216,1.368,0.36,2.088c0.792,0.72,1.656,1.44,2.52,2.16c0.144,0.36,0.288,0.72,0.504,1.08
		c2.88,0,5.76,0.072,8.64,0.144c-0.0721,0.36-0.216,0.72-0.36,1.152c-1.656,1.584-3.312,3.168-4.968,4.824
		c-0.36,0.072-0.72,0.216-1.152,0.36C203.904,466.2,199.728,466.272,195.552,466.344L195.552,466.344z M216.864,466.128
		c-1.152-0.072-2.376-0.216-3.6-0.36c0.072-0.432,0.216-0.936,0.36-1.44c6.12-5.976,6.12-5.976,7.344-6.84c0.936,0,1.872,0,2.88,0
		c0.216,0.36,0.432,0.72,0.72,1.152c1.44,0.504,1.944,1.08,3.096,1.224c0.504-0.216,0.504-0.216,4.608-0.216
		c2.52,0.576,5.04,1.224,7.632,1.872c1.512,0.144,3.024,0.288,4.608,0.504c1.872,0.936,1.872,0.936,2.376,1.44
		c0,0.288,0,0.576,0.072,0.864c-0.576,0.36-0.576,0.36-5.112,0.792c-4.104,0-7.704,0.504-17.28,0.504
		C222.048,465.768,219.456,465.912,216.864,466.128L216.864,466.128z M27.072,465.84c-1.728-0.432-1.728-0.432-2.16-0.792
		c1.008,0,2.016-0.072,3.096-0.144c0.144,0.216,0.288,0.432,0.504,0.72C28.224,465.84,28.224,465.84,27.072,465.84L27.072,465.84z
		 M257.472,465.84c0-1.008-0.072-2.088-0.144-3.168c0.864,0,1.8-0.072,2.736-0.144c0.72,0.288,1.44,0.576,2.16,0.936
		c0.288,0.36,0.576,0.72,0.864,1.08c0,0.72,0,0.72-0.36,1.08C261,465.696,259.272,465.768,257.472,465.84L257.472,465.84z
		 M301.104,465.12c-5.256-0.72-5.256-0.72-9.36-0.936c-0.072-0.072-0.216-0.216-0.36-0.36c0.072-0.576,0.144-1.224,0.216-1.872
		c0.288-0.504,0.576-1.008,0.864-1.584c3.744-0.216,7.488-0.432,11.304-0.72c1.152,0.216,2.376,0.432,3.6,0.72
		c4.1039,0,4.1039,0,21.96,1.296c0,0.216,0,0.432,0,0.72c-0.576,0.36-0.576,0.36-11.376,1.8
		C312.336,464.472,306.72,464.76,301.104,465.12L301.104,465.12z M161.208,464.904c-2.88-0.936-2.88-0.936-4.104-1.656
		c-4.752,0.216-4.752,0.216-6.912,0.72c-1.296,0-2.592-0.072-3.888-0.144c0.36-1.656,0.36-1.656,0.288-3.816
		c0.432,0,0.936,0,1.44,0.072c0.216,0.144,0.432,0.288,0.72,0.504c0.936-0.216,0.936-0.216,3.096-1.656
		c0.936-1.224,0.936-1.224,1.944-1.944c1.008,0,2.016,0,3.096,0c2.16,0.504,4.32,1.008,6.48,1.584c0,1.368,0,2.736,0.072,4.104
		c-0.288,0.72-0.576,1.44-0.936,2.16C162.072,464.832,161.64,464.832,161.208,464.904L161.208,464.904z M114.912,464.688
		c-0.792-0.144-1.584-0.288-2.448-0.504c-1.512-0.72-3.024-1.44-4.536-2.232c-0.072-0.216-0.144-0.432-0.216-0.72
		c3.816-0.36,7.632-0.72,11.52-1.152c0.072,0.072,0.144,0.216,0.216,0.36c-0.432,1.08-0.864,2.232-1.368,3.384
		C115.632,464.688,115.632,464.688,114.912,464.688L114.912,464.688z M123.048,463.68c-0.144-0.144-0.288-0.288-0.504-0.432
		c0-0.864-0.072-1.8-0.144-2.736c0.216-0.216,0.432-0.432,0.648-0.648c1.44-0.072,2.88-0.144,4.32-0.216
		c0.648,0.144,1.296,0.36,1.944,0.576c-1.008,1.656-1.008,1.656-1.368,2.88C126.36,463.248,124.704,463.464,123.048,463.68
		L123.048,463.68z M266.112,463.68c-1.008-0.72-2.016-1.44-3.024-2.232c0-0.288,0.072-0.576,0.144-0.864
		c7.416,0.216,7.416,0.216,16.776,0c7.92-0.504,7.92-0.504,10.08-0.36c-0.288,1.008-0.576,2.088-0.864,3.168
		C287.712,463.68,279.504,463.464,266.112,463.68L266.112,463.68z M242.784,459.864c-3.096-0.504-3.096-0.504-4.32-0.936
		c-0.072-0.072-0.144-0.216-0.216-0.36c0.72-0.36,0.72-0.36,2.88-0.36c1.008,0.144,2.0161,0.288,3.096,0.432
		c0,0.288,0.072,0.576,0.144,0.864C243.864,459.576,243.36,459.72,242.784,459.864L242.784,459.864z M334.008,459.864
		c-0.504-0.144-1.08-0.288-1.656-0.504c-6.48,0-10.08-0.432-23.544-0.936c-11.808-1.584-23.616-3.168-35.496-4.824
		c-2.88,0-4.824-0.432-11.808-0.936c-1.656-0.504-1.656-0.504-16.56-2.376c-4.032-1.008-9.576-1.944-11.232-2.448
		c-3.168-0.432-3.168-0.432-4.824-0.936c0-0.36-0.072-0.72-0.144-1.08c0.936-2.88,0.936-2.88,1.944-4.536
		c0.576-2.088,1.224-4.176,1.872-6.264c0.648-1.08,1.296-2.16,1.944-3.312c1.224-2.952,2.52-5.904,3.816-8.928
		c1.152-3.672,2.376-7.344,3.6-11.016c1.08-2.52,2.232-5.112,3.384-7.704c6.696-21.816,6.696-21.816,8.64-29.232
		c0.792-2.16,1.584-4.32,2.376-6.48c0.288-1.44,0.648-2.88,1.008-4.32c0.432-1.152,0.936-2.376,1.44-3.6
		c0.144-0.792,0.288-1.584,0.432-2.448c0.288-0.576,0.648-1.2241,1.008-1.872c1.152-5.328,1.152-5.328,1.44-5.544
		c3.816-12.96,7.2-22.824,9.072-30.024c2.4479-6.192,3.384-9.7921,6.768-19.152c2.232-8.712,4.4639-17.424,6.696-26.208
		c4.824-21.096,5.76-26.64,7.704-34.992c0.432-5.76,0.936-7.7039,1.44-12.744c0.576-3.024,1.224-6.048,1.872-9.144
		c0.504-5.0399,1.4399-9.576,2.448-18.432c0-4.824,0.936-25.704,1.44-31.968c0.072-2.304,0.144-4.6081,0.216-6.912
		c-0.936-28.584-1.2241-31.248-1.44-42.264c-0.216-0.504-0.216-5.76-0.504-7.416c0.072-0.216,0.144-0.432,0.288-0.72
		c-0.72-6.048-0.72-6.048-1.728-23.04c-0.936-6.48-1.152-9.648-1.44-10.08c-0.432-3.8879-1.4399-8.64-3.312-20.6639
		c-0.288-0.504-0.72-4.824-1.728-9.36c-0.288-2.232-0.576-4.464-0.936-6.696c-0.288-1.008-0.576-2.0881-0.936-3.168
		c-0.504-4.536-0.504-4.536-1.44-9.072c-0.72-9.648-0.72-9.648-0.576-10.8c0.216,0,0.432,0,0.72,0.072
		c1.224,1.944,2.52,3.888,3.816,5.9041c0.792,1.944,4.176,7.2,7.56,13.176c3.168,6.192,6.336,12.456,9.576,18.72
		c1.656,4.608,2.16,5.04,2.376,6.2639c0.504,0.7201,4.3199,10.2961,8.2079,18.936c1.872,5.184,3.816,10.368,5.76,15.624
		c0.432,2.16,1.44,4.536,5.256,20.376c0.6479,1.8,1.296,3.6721,1.944,5.544c4.752,17.28,5.256,20.376,5.76,21.6
		c1.44,5.976,2.376,11.52,3.816,17.784c0.504,0.936,4.824,22.032,5.256,23.04c0.432,3.456,0.936,6.984,1.44,10.5121
		c0.6479,2.592,1.296,5.256,1.944,7.92c0.648,4.752,1.296,9.576,1.944,14.4c0.792,3.9601,1.584,7.992,2.376,12.024
		c0.648,5.904,1.296,11.808,1.944,17.784c0.144,4.608,0.288,9.216,0.432,13.896c1.44,15.12,1.44,18.504,1.944,23.76
		c-0.216,7.416-0.216,7.416-0.504,9.144c0.504,7.416,1.008,24.912,1.944,41.976c0.144,7.2,0.288,14.4,0.504,21.6
		c-0.072,0.72-0.144,1.44-0.288,2.16c0.504,21.6,1.008,28.08,1.224,43.2c1.224,12.24,1.656,21.096,2.16,26.136
		c0,7.704,0,7.704-0.504,16.344c0.288,1.224,0.288,1.224,0.288,3.384c-0.504,0.72-0.504,0.72-1.224,1.152
		c0,0.36,0.072,0.792,0.144,1.224c0.144,0.144,0.36,0.288,0.576,0.504c0.072,0.576,0.144,1.224,0.216,1.872
		c-1.152,0.648-2.304,1.296-3.456,1.944c-2.52,0.864-5.04,1.8-7.632,2.736c-2.232,0.36-4.464,0.792-6.768,1.224
		C340.92,459.72,337.464,459.792,334.008,459.864L334.008,459.864z M267.264,459.144c-3.024-0.216-6.048-0.432-9.072-0.72
		c-0.288-0.144-0.648-0.288-1.008-0.504c-0.144-1.512-0.144-1.512,0.36-3.672c0.72,0,1.512-0.072,2.304-0.144
		c2.6639,0.504,8.856,0.72,10.8,1.224c3.672,0.288,7.344,0.576,11.016,0.936c1.44,0.504,1.44,0.504,8.64,1.656
		c-0.216,0.288-0.216,0.288-12.456,1.008C274.32,459,270.792,459.072,267.264,459.144L267.264,459.144z M109.152,459.072
		c0-0.216,0-0.432,0-0.72c0.576,0,1.224,0,1.872,0.072C110.088,458.928,110.088,458.928,109.152,459.072L109.152,459.072z
		 M100.728,457.632c0-0.36,0-0.792,0.072-1.224c2.88-5.04,2.88-5.04,3.384-5.544c1.872-4.032,3.816-8.136,5.76-12.24
		c0.288-0.288,0.576-0.576,0.936-0.936c0.648-1.224,1.296-2.52,1.944-3.816c0.36-0.36,0.792-0.792,1.224-1.224
		c0.144-0.36,0.288-0.792,0.432-1.224c0.432-0.288,0.864-0.576,1.368-0.864c0.36-4.176,0.36-4.176,0.792-5.616
		c0.72-0.072,1.512-0.216,2.304-0.36c25.488,0.216,28.584,0.504,53.28,0.936c2.448,0.288,2.448,0.288,5.04,1.008
		c7.848,0.144,15.696,0.288,23.544,0.432c0.432,0.144,0.864,0.288,1.296,0.432c0.072,0.792,0.216,1.584,0.36,2.448
		c0.648,0.144,1.296,0.288,1.944,0.504c0.72,0.648,1.44,1.296,2.16,1.944c0.648,0.288,1.296,0.576,1.944,0.936
		c2.376,1.944,15.336,10.8,16.56,12.024c0.36,0,0.72,0.072,1.152,0.144c-0.36,2.376-0.36,2.376-0.36,4.32
		c-2.088,1.872-4.176,3.744-6.336,5.616c-8.136-0.288-8.136-0.288-10.296-0.72c-1.44-0.648-2.88-1.296-4.32-1.944
		c-4.104-0.936-4.104-0.936-9.144-1.44c-1.512,0.072-3.024,0.144-4.536,0.216c-3.888-0.432-3.888-0.432-6.768-0.432
		c-1.728,0.792-3.456,1.584-5.256,2.376c-2.16,0.504-2.16,0.504-7.92,0.936c-3.6-0.216-5.76,0-15.12-0.216
		c-2.376,0.216-2.376,0.216-3.384,0.72c-0.936,1.224-0.936,1.224-2.16,2.16c-7.416,0-7.416,0-8.64-0.216
		c-0.072-0.36-0.216-0.72-0.36-1.08c0.216-1.944,0.216-1.944,0.72-3.6c-0.072-0.288-0.144-0.576-0.216-0.936
		c-0.72-0.648-1.512-1.368-2.304-2.088c-1.872-0.936-1.872-0.936-5.256-1.944c-0.36-0.288-0.792-0.576-1.224-0.936
		c-1.872-0.504-1.872-0.504-4.32-0.504c-1.08,0.288-2.16,0.648-3.312,1.008c-0.72,0.648-1.44,1.296-2.16,2.016
		c-0.648,1.008-1.296,2.016-1.944,3.024c-0.504,1.44-1.08,2.88-1.656,4.32c-9.648,0.432-9.648,0.432-10.08,0.72
		C106.848,457.056,103.824,457.344,100.728,457.632L100.728,457.632z M129.312,456.48c-1.44-0.432-1.44-0.432-6.624-0.792
		c0.072-0.432,0.144-0.936,0.216-1.44c0.72-1.512,1.44-3.024,2.16-4.536c1.152-0.576,2.304-1.224,3.528-1.872
		c0.936,0,1.872,0,2.88,0c1.872,1.008,3.6,1.44,3.888,1.872c-0.504,1.872-1.08,3.816-1.656,5.76
		c-0.216,0.288-0.504,0.648-0.792,1.008C131.76,456.48,130.536,456.48,129.312,456.48L129.312,456.48z M226.944,456.264
		c-1.152-0.504-1.152-0.504-3.096-0.792c0.072-0.36,0.216-0.792,0.36-1.224c1.512-1.512,3.024-3.024,4.536-4.536
		c1.368-0.144,1.368-0.144,3.528,0.288c0.936,1.296,1.872,2.592,2.88,3.888c2.16,0.936,2.16,0.936,3.6,1.872
		c-0.144,0.144-0.288,0.288-0.504,0.504c-8.64-0.72-8.856-0.936-9.864-0.936c-0.144,0.216-0.288,0.432-0.432,0.72
		C227.664,456.12,227.304,456.192,226.944,456.264L226.944,456.264z M243.792,453.888c-0.72-0.432-1.44-0.864-2.232-1.296
		c-0.072-0.216-0.144-0.432-0.216-0.72c1.08,0.072,2.232,0.144,3.384,0.288c0,0.504,0,1.008,0.072,1.584
		C244.512,453.744,244.152,453.816,243.792,453.888L243.792,453.888z M364.464,453.312c0.144-1.728,0.144-1.728,0.504-2.088
		c1.656-0.36,3.312-0.792,5.04-1.224c0.72,0,1.44,0,2.16,0c-0.36,0.288-0.792,0.648-1.224,1.008
		C366.192,452.88,366.192,452.88,364.464,453.312L364.464,453.312z M228.168,439.704c-3.24-1.872-6.552-3.816-9.864-5.76
		c-1.728-1.224-3.456-2.52-5.256-3.816c-0.432-0.648-0.936-1.296-1.44-1.944c0-0.216,0-0.504,0-0.792
		c10.8-0.432,10.8-0.432,22.392-0.288c-0.216,1.728-0.216,1.728-1.152,4.104c-0.648,1.08-1.296,2.232-1.944,3.384
		c-0.576,1.656-1.152,3.384-1.8,5.112C228.816,439.704,228.528,439.704,228.168,439.704L228.168,439.704z M236.592,419.04
		c-3.6-0.432-3.6-0.432-6.48-1.152c-12.024,0.216-12.024,0.216-19.728,0c-1.152-0.288-7.416-0.504-9.576-1.008
		c-3.528-0.288-7.056-0.576-10.584-0.936c-3.816,0-7.632,0-11.52,0c-11.952-0.72-18.216-0.72-28.296-1.44
		c-14.184,0.72-14.616,0.504-28.584,1.368c0.864-2.592,1.8-5.256,2.736-7.92c1.944-4.104,2.88-6.984,6.768-15.408
		c0.288-1.44,0.576-2.88,0.936-4.32c1.08-2.52,2.232-5.04,3.384-7.632c2.88-8.64,3.816-10.368,4.032-11.304
		c0.504-0.72,0.504-0.72,1.44-3.816c0.288-0.36,0.648-0.792,1.008-1.224c1.44-5.0399,1.44-5.0399,1.872-5.544
		c1.08-3.024,2.232-6.048,3.384-9.072c1.944-3.888,1.944-3.888,4.824-11.52c1.224-4.392,2.52-8.784,3.816-13.248
		c0.936-1.656,0.936-1.656,7.2-17.712c0.936-1.44,1.44-3.168,1.944-3.888c1.872-4.536,2.88-8.3521,3.816-10.8
		c0.36-0.72,0.792-1.44,1.224-2.16c0.216-1.656,0.72-2.592,1.656-6.192c0.432-1.152,0.936-2.376,1.44-3.6
		c0.288-0.36,0.576-0.792,0.936-1.224c0.504-1.944,1.008-2.88,1.944-6.48c0.648-1.224,1.296-2.52,1.944-3.816
		c2.376-6.984,3.312-8.64,6.192-16.56c0.504-2.664,0.504-2.664,1.008-3.384c1.44-3.816,1.44-3.816,2.376-7.2
		c0.6479-1.368,1.296-2.736,1.944-4.104c0.936-3.024,1.872-6.048,2.88-9.072c0.792-1.656,1.584-3.312,2.376-5.04
		c1.44-4.32,1.44-4.32,1.944-5.04c0.288-1.296,0.576-2.592,0.936-3.888c0.648-1.44,1.296-2.88,1.944-4.32
		c1.224-3.672,2.52-7.344,3.816-11.0161c2.232-5.184,4.464-10.368,6.696-15.624c1.008-3.312,1.944-5.04,2.16-5.976
		c0.504-0.72,0.504-0.72,1.44-4.824c0.504-0.432,0.504-0.432,1.944-4.032c0.072-0.576,0.144-1.152,0.216-1.728
		c1.944-3.816,1.944-3.816,3.888-9.072c0.576-2.376,1.224-4.752,1.872-7.2c5.76-14.184,5.76-14.184,6.264-16.128
		c0.288-0.36,0.576-0.72,0.936-1.152c1.008-2.6641,1.44-4.824,6.264-18.504c0.504-0.72,2.376-6.48,3.384-8.64
		c0.144-0.648,0.288-1.296,0.432-1.9441c0.144-0.144,0.288-0.2879,0.504-0.4319c0.288-1.08,0.576-2.232,0.936-3.384
		c1.944-4.3199,3.888-7.704,7.704-16.56c0.504-0.72,1.44-3.5999,2.88-5.976c0.936-3.384,0.936-3.384,3.816-11.52
		c0.288-0.576,0.648-1.152,1.008-1.728c3.8161-11.016,4.32-11.736,6.192-16.992c1.008-1.944,1.44-3.6,1.944-4.1041
		c4.824-10.296,5.256-12.0239,8.136-17.7839c1.944-3.0961,1.944-3.0961,3.384-5.9761c0.288-0.0719,0.576-0.1439,0.864-0.2159
		c-1.08,17.712-1.08,17.712-1.368,27.3599c-0.288,2.5921-0.576,5.2561-0.936,7.9201c-0.936,17.496-0.936,17.496-0.936,23.04
		c-0.72,6.9119-1.2239,16.7759-1.728,21.816c-0.288,8.208-0.576,16.416-0.936,24.696c-0.936,10.08-1.44,19.224-1.944,22.104
		c0,1.7279,0,3.456,0,5.256c-1.872,23.328-2.88,41.04-4.32,58.104c-2.88,49.464-2.88,49.464-3.312,62.64
		c-0.144,0.864-0.2881,1.728-0.504,2.664c-0.072,3.6-0.144,7.2-0.216,10.8c-0.72,7.416-0.72,7.416-1.008,7.92
		c-0.144,5.328-0.288,10.656-0.432,16.056c-0.504,2.88-0.72,8.856-2.448,24.48c-0.432,6.264-0.936,9.576-2.592,34.56
		c-0.288,0.216-0.288,0.216-3.168,9.864c-0.432,2.592-0.936,3.5999-1.656,6.696c-1.44,4.248-2.88,8.496-4.32,12.744
		c-0.216,1.08-0.432,2.16-0.72,3.312c-1.944,4.608-1.944,4.608-6.264,16.848C236.808,419.184,236.808,419.184,236.592,419.04
		L236.592,419.04z M117.792,415.728c-0.72-0.072-1.44-0.216-2.232-0.36c0-0.36,0.072-0.792,0.144-1.224
		c2.16-2.88,3.384-3.816,5.256-6.192c0.288-0.072,0.576-0.144,0.864-0.288c-0.36,1.944-1.296,3.888-1.8,6.048
		c-0.288,0.576-0.576,1.2241-0.936,1.872C118.656,415.584,118.224,415.656,117.792,415.728L117.792,415.728z M271.368,311.688
		c-0.144-2.88,0.792-21.096,0.576-22.536c0.936-23.76,0.936-23.76,1.2239-24.48c0.72-8.64,0.72-13.68,1.8721-27.144
		c0.504-13.68,0.504-20.664,0.72-22.824c-0.072-0.504-0.144-1.08-0.216-1.656c0.144-0.936,0.288-1.872,0.504-2.88
		c-0.072-1.512-0.144-3.024-0.288-4.536c0.216-1.512,0.432-3.024,0.72-4.608c0.288-11.952,0.288-11.952,0.72-19.152
		c0.288-0.72,1.008-12.24,1.008-15.624c0.144-0.504,0.288-1.08,0.4319-1.656c0.2881-12.744,0.2881-12.744,0-14.184
		c1.0081-13.464,1.7281-30.744,1.944-31.464c0-3.24,0-6.48,0-9.792c0.432-4.032,0.936-8.136,1.44-12.24
		c-0.072-2.088-0.144-4.176-0.216-6.264c1.0081-17.784,2.016-35.64,3.024-53.496c0.2159,0,0.4319,0,0.72,0
		C286.776,43.7759,288,50.4,289.224,57.024c1.584,10.152,3.168,20.304,4.824,30.528c0.936,18,0.936,18,1.4401,22.032
		c0,2.9519,0,5.904,0,8.928c0.72,10.512,1.1519,27.576,1.44,29.52c0.072,5.184,0.144,10.368,0.216,15.552
		c-0.2881,9-0.576,18.072-0.936,27.144c-0.144,1.008-0.288,2.016-0.504,3.096c0,1.872,0,3.816,0,5.7599
		c-0.936,8.208-1.44,9.864-2.376,17.28c-0.72,3.528-1.44,7.056-2.16,10.584c-0.144,0.144-0.288,0.288-0.504,0.504
		c-0.288,4.104-0.576,8.28-0.936,12.456c-2.0881,10.008-4.176,20.016-6.264,30.024c-5.76,21.6-5.76,21.6-7.704,29.952
		c-1.224,3.672-2.52,7.344-3.816,11.088C271.8,311.544,271.584,311.616,271.368,311.688L271.368,311.688z"/>
</g>
</svg>
