<?xml version="1.0" encoding="utf-8"?>
<!-- Generator: Adobe Illustrator 21.1.0, SVG Export Plug-In . SVG Version: 6.00 Build 0)  -->
<svg version="1.1" id="Sa" xmlns="http://www.w3.org/2000/svg" xmlns:xlink="http://www.w3.org/1999/xlink" x="0px" y="0px"
	 viewBox="0 0 365.76 568.7999" enable-background="new 0 0 365.76 568.7999" xml:space="preserve">
<g>
	<path fill-rule="evenodd" clip-rule="evenodd" d="M134.352,568.7999c-0.432-0.72-0.936-1.4399-1.44-2.16
		c0-0.792-0.072-1.584-0.144-2.448c-1.872-5.112-3.816-10.224-5.76-15.408c-3.888-7.5599-7.776-15.12-11.664-22.752
		c-0.792-0.216-1.584-0.432-2.376-0.648c-6.192,0.072-12.456,0.144-18.72,0.216c-18.216,1.584-36.432,3.168-54.72,4.824
		c-1.584,0-3.168-0.072-4.824-0.144c-1.8-3.312-1.8-3.312-7.56-16.056c-7.704-13.392-7.704-13.392-15.336-27.36
		C1.728,470.304,1.728,470.304,0,467.928c0-0.36,0-0.792,0-1.224c0.648-0.864,1.296-1.728,1.944-2.592
		c3.024-1.944,3.024-1.944,8.784-4.752c0.648-0.72,1.296-1.44,2.016-2.232c3.816-7.92,7.2-13.896,7.416-14.904
		c1.008-1.44,1.008-1.44,6.768-14.112c3.816-9.504,7.632-19.008,11.52-28.584c3.816-8.136,3.816-8.136,7.632-17.064
		c7.704-20.592,15.408-40.032,18.72-49.1761c3.888-8.136,3.888-8.136,7.704-17.064c1.944-5.76,1.944-5.76,17.28-44.856
		c1.944-4.104,1.944-4.104,8.136-20.376c0.144-1.296,0.288-2.592,0.504-3.888c3.816-9.576,7.704-18,8.136-19.44
		c2.52-5.472,5.112-11.016,7.704-16.56c5.112-12.384,10.224-24.768,15.336-37.152c2.52-6.912,5.112-13.896,7.704-20.88
		c1.872-4.536,3.816-9.072,5.76-13.68c0.072-0.72,0.144-1.44,0.216-2.16c7.704-17.7839,13.464-31.968,15.408-36
		c2.52-6.3359,5.04-12.6719,7.632-19.008c1.296-3.816,2.592-7.632,3.888-11.52c7.632-19.44,7.632-19.44,17.28-42.696
		c3.816-11.016,4.752-14.9041,6.696-20.6641c0.288-1.4399,0.576-2.88,0.936-4.3199c0.288-0.504,0.648-1.08,1.008-1.656
		c0.576-0.432,1.152-0.864,1.8-1.368c0.72,0,1.44,0,2.16,0c7.416,3.888,23.544,11.52,51.84,25.92
		c1.224,1.008,4.536,2.88,10.08,6.768c6.696,3.816,6.696,3.816,12.456,7.632c3.24,2.5919,6.552,5.256,9.864,7.92
		c1.224,1.296,2.5201,2.592,3.816,3.888c6.048,5.328,12.168,10.656,18.288,16.056c1.296,1.368,2.664,2.736,4.032,4.176
		c2.592,3.456,5.256,6.912,7.92,10.44c2.232,3.312,4.4641,6.696,6.768,10.08c0.792,1.8719,0.792,1.8719,11.808,19.5839
		c1.296,2.448,2.5919,4.9681,3.888,7.488c4.752,12.672,4.752,12.672,8.64,21.6c3.816,11.232,3.816,11.232,7.632,23.7599
		c1.44,7.2,1.44,7.2,1.944,8.64c0.648,3.96,1.296,7.92,1.944,11.952c0.936,7.92,1.872,15.84,2.88,23.76
		c0.432,6.768,0.432,6.768,0.936,9.864c0.288,7.272,0.576,14.544,0.936,21.816c-0.144,10.0081-0.288,20.0161-0.432,30.024
		c-0.504,2.664-0.504,2.664-2.88,22.824c-0.288,0.576-0.648,1.224-1.008,1.872c-0.288,2.808-0.576,5.6161-0.936,8.424
		c-0.6479,3.24-1.296,6.552-1.944,9.864c-3.816,13.176-3.816,13.176-7.632,27.576c-1.296,3.6-2.592,7.2-3.888,10.8
		c-1.584,3.24-3.168,6.552-4.752,9.864c-3.384,4.32-4.104,4.752-6.048,7.2c-2.52,1.872-5.04,3.816-7.632,5.76
		c-2.016,1.224-4.032,2.52-6.048,3.816c-4.536,3.816-4.536,3.816-6.48,5.976c-2.736,1.8-2.736,1.8-3.888,2.88
		c-0.864,2.16-0.864,2.16-1.872,6.768c-0.288,3.096-0.576,6.192-0.936,9.36c0.072,3.24,0.144,6.48,0.216,9.792
		c0.288,2.376,0.648,4.752,1.008,7.2c0.792,3.6,1.584,7.2,2.376,10.8c0.504,3.816,1.08,7.632,1.656,11.52
		c0.216,0.072,0.432,0.216,0.648,0.36c8.136-0.216,8.136-0.216,26.64-1.44c1.44,1.224,1.44,1.224,1.944,2.016
		c0,0.36,0,0.792,0.072,1.224c-0.6479,0.792-1.296,1.584-1.944,2.448c-5.616,5.112-11.304,10.224-16.992,15.336
		c-7.92,7.92-7.92,7.92-15.624,16.344c-5.112,6.336-10.224,12.744-15.336,19.152c-3.312,4.464-6.696,8.928-10.08,13.4641
		c-0.144,0.6479-0.288,1.296-0.504,1.944c-0.864,0.432-0.864,0.432-1.8,1.512c-3.24,0.072-6.48,0.144-9.792,0.2161
		c-1.872,0.288-3.816,0.6479-5.76,1.0079c-4.68,0.288-9.432,0.576-14.184,0.936c-4.32,0.432-8.64,0.936-12.96,1.44
		c-2.88,1.944-2.88,1.944-7.2,5.76c-5.112,7.488-10.224,14.976-15.336,22.5359c-1.224,1.2241-1.224,1.2241-1.944,1.368
		c-0.072,0.432-0.216,0.936-0.36,1.4399c-0.288,0.36-0.576,0.72-0.864,1.0801c-1.44,0.432-13.896,2.376-24.192,4.3199
		C156.168,563.7599,136.512,568.584,134.352,568.7999L134.352,568.7999z M60.912,513.36c-3.816-0.288-7.632-0.576-11.52-0.936
		c-1.008-0.288-2.088-0.576-3.168-0.936c-1.656-0.936-3.312-1.872-5.04-2.88c-0.864-1.8-0.864-1.8-1.8-5.184
		c0-0.576,0-1.224-0.072-1.872c1.656,0,3.312-0.072,5.04-0.144c12.24,0.72,12.24,0.72,19.152,0.72c7.92-1.008,14.4-1.44,17.28-1.944
		c17.856-0.792,35.712-1.584,53.568-2.376c9.432-0.216,18.864-0.432,28.296-0.72c8.856-1.008,8.856-1.008,10.08-1.44
		c18-1.008,18-1.008,29.304-1.944c13.32-0.432,26.64-0.936,40.032-1.44c13.392-0.072,26.856-0.144,40.32-0.216
		c0.288,0.072,0.648,0.216,1.008,0.36c-8.64,11.16-8.64,11.16-10.08,12.6c-2.16,0.432-2.16,0.432-6.984,0.72
		c-5.904,0-11.808,0-17.784,0c-18.936,0.936-18.936,0.936-24.696,1.44c-9.432,0.288-18.864,0.576-28.296,0.936
		c-4.68,0.36-9.432,0.792-14.184,1.224c-6.264,0-6.264,0-19.944,0.72c-1.8-0.072-3.6-0.144-5.472-0.288
		c-3.888,0.216-7.848,0.432-11.808,0.72c-0.72,0.288-1.44,0.648-2.16,1.008c-7.632,0.432-7.632,0.432-15.84,0.432
		c-4.608,0.288-9.216,0.648-13.896,1.008C95.184,513.072,78.048,513.2159,60.912,513.36L60.912,513.36z M28.944,488.16
		c-1.152-0.936-1.152-0.936-3.096-3.456c-0.936-1.8-1.872-3.6-2.808-5.472c-0.216-0.864-0.504-1.728-0.792-2.664
		c12.888-0.288,25.776-0.576,38.664-0.864c29.016-2.376,31.896-2.88,34.56-2.88c1.944-0.216,3.96-0.432,5.976-0.72
		c36.216,0,36.216,0,43.92,0.216c6.48-0.432,6.48-0.432,9.36-0.936c1.512,0,3.024,0,4.536,0c0.576-0.144,1.152-0.288,1.728-0.504
		c13.896-0.72,13.896-0.72,21.6-0.72c0.144-0.144,0.288-0.288,0.432-0.432c3.168-0.144,6.408-0.288,9.6479-0.504
		c0.36-0.288,0.72-0.576,1.152-0.936c3.6-0.504,6.48-0.504,31.248-3.6c6.264-0.072,12.6-0.144,18.936-0.288
		c1.8,0.144,3.672,0.288,5.544,0.504c4.176,0,8.424,0,12.672,0c13.248-0.936,13.248-0.936,43.2-2.376
		c2.52,0,5.112,0.072,7.704,0.144c-0.36,0.936-0.36,0.936-4.248,5.76c-1.872,1.872-1.872,1.872-3.816,3.096
		c-0.144,0.36-0.288,0.792-0.504,1.224c-0.504,0.432-1.008,0.864-1.512,1.296c-1.656-0.288-1.656-0.288-4.32-0.288
		c-5.976,0.792-11.952,1.584-18,2.448c-7.2,0-14.4,0-21.5999,0c-8.856,0.432-17.712,0.936-26.64,1.44
		c-18.72,1.872-45.144,3.816-51.12,4.536c-17.784,0.936-23.256,0.936-37.224,1.944c-7.56,0.288-15.12,0.576-22.752,0.936
		c-3.168,0.504-6.48,0.504-10.584,0.936c-9.36,0.144-18.72,0.288-28.08,0.504c-6.768,0.432-13.536,0.936-20.376,1.44
		C51.048,488.16,31.392,487.944,28.944,488.16L28.944,488.16z M59.904,458.2079c-1.584-0.216-3.168-0.432-4.752-0.648
		c0.216-0.36,9.072-4.176,9.792-4.68c6.408-2.52,12.816-5.04,19.224-7.632c1.656-1.008,1.656-1.008,5.256-2.448
		c0.576,0,1.152,0.072,1.8,0.144c-0.072,0.72-0.144,1.44-0.216,2.16c-3.384,10.08-3.384,10.08-4.176,11.664
		c-3.6,0.288-7.2,0.576-10.8,0.936C70.704,457.848,65.304,457.9919,59.904,458.2079L59.904,458.2079z M138.672,455.184
		c0.072-0.288,0.144-0.576,0.288-0.936c17.064-11.52,17.064-11.52,19.584-12.888c0.288,0,0.648,0,1.008-0.072
		c-0.432,2.376-0.432,2.376-0.864,7.92c-0.288,1.44-0.648,2.88-1.008,4.32c-0.432,0.144-0.864,0.36-1.296,0.576
		C149.688,454.3199,149.688,454.3199,138.672,455.184L138.672,455.184z M105.048,453.384c-0.144-2.016-0.144-2.016,0.36-5.616
		c0.288-0.792,0.576-1.584,0.936-2.376c0.792-3.888,1.584-7.848,2.376-11.808c0.144-0.216,0.288-0.432,0.504-0.72
		c3.96-1.872,7.92-3.744,11.88-5.616c10.584-3.888,10.584-3.888,29.088-11.5201c2.736-1.296,5.544-2.592,8.352-3.888
		c0.36,0,0.792,0,1.224-0.072c-0.072,4.968-0.216,9.936-0.36,14.904c-1.512,0.864-3.096,1.8-4.68,2.736
		c-4.32,1.872-11.304,5.76-15.84,7.632c-3.6,1.944-5.976,2.88-12.744,6.768c-5.112,2.52-10.224,5.04-15.336,7.632
		c-1.584,0.648-3.168,1.296-4.824,1.944C105.696,453.384,105.408,453.384,105.048,453.384L105.048,453.384z M32.832,451.152
		c0.072-0.432,0.144-0.936,0.288-1.44c2.52-5.4,5.112-10.872,7.704-16.344c11.52-27.864,11.52-27.864,13.464-31.896
		c0.288-0.36,0.576-0.792,0.936-1.224c1.872-5.832,3.816-11.664,5.76-17.496c3.816-10.08,7.704-19.008,15.336-39.168
		c1.944-4.32,1.944-4.32,2.448-4.752c0.576-2.088,1.224-4.176,1.872-6.264c6.408-16.56,12.816-33.12,19.224-49.68
		c7.704-18.72,7.704-18.72,10.584-24.696c0.576-2.304,1.224-4.608,1.872-6.984c3.816-9.576,7.632-19.152,11.52-28.8
		c3.888-8.64,5.76-13.464,9.648-21.816c7.632-18,7.632-18,12.456-30.528c0.936-1.872,1.872-3.816,2.88-5.76
		c0.288-1.296,0.576-2.664,0.936-4.032c1.944-4.32,1.944-4.32,7.704-19.728c1.944-3.816,3.816-8.64,5.76-12.24
		c7.704-18.432,7.704-18.432,20.52-47.304c0.216-0.072,0.432-0.1441,0.72-0.216c-2.0161,11.8799-4.032,23.832-6.12,35.784
		c-0.936,1.944-0.936,1.944-1.944,5.0399c-0.288,1.8-0.576,3.6721-0.936,5.544c-0.504,0.72-2.376,8.64-4.32,15.3361
		c-7.704,32.184-7.704,32.184-11.52,46.296c-1.944,6.264-1.944,6.264-3.816,13.68c-0.216,0.288-0.432,0.648-0.648,1.008
		c0,0.504,0,1.08-0.072,1.656c-6.768,23.76-6.768,23.76-8.64,29.52c-1.944,8.424-1.944,8.424-3.168,12.024c0,0.864,0,1.728,0,2.592
		c0.144,0.216,0.288,0.432,0.504,0.72c-0.216,1.728-0.216,1.728-9.36,36.504c-1.944,5.544-9.576,30.024-14.616,47.304
		c0,1.44,0,2.88,0,4.32c-7.704,28.08-9.648,34.056-11.52,41.256c-3.816,12.384-7.632,24.768-11.52,37.224
		c-1.944,4.752-2.448,6.696-3.384,8.856c-1.08,0.7921-1.08,0.7921-17.136,7.56c-5.04,1.872-13.464,5.76-23.256,9.576
		c-8.64,3.816-8.64,3.816-16.344,7.704C35.424,450.576,34.128,450.864,32.832,451.152L32.832,451.152z M173.664,450.72
		c-0.216,0-0.432,0-0.72-0.072c0.216-2.808,0.432-5.616,0.72-8.424c0.72,0.072,1.44,0.216,2.16,0.36
		c3.312,1.224,6.696,2.52,10.08,3.816c12.744,3.888,12.744,3.888,12.528,4.104C192.384,450.288,192.384,450.288,173.664,450.72
		L173.664,450.72z M251.928,448.344c-3.168-0.288-6.336-0.576-9.576-0.936c-2.88-0.792-5.76-1.584-8.64-2.448
		c-1.296-0.144-2.592-0.288-3.888-0.432c-5.4-1.872-10.8-3.816-16.272-5.76c-9.936-3.816-19.872-7.632-29.808-11.52
		c-2.448-0.792-4.896-1.584-7.416-2.448c-0.216-1.944-0.432-3.888-0.648-5.832c0-14.904,0-14.904,0.288-15.624
		c15.9839-7.56,17.424-8.496,20.016-9.504c1.44-0.936,1.44-0.936,27.144-12.96c5.256-1.872,9.36-3.816,20.88-8.136
		c0.432-0.072,0.936-0.144,1.44-0.216c0.36,0.36,0.72,0.72,1.152,1.08c2.088,13.176,2.088,13.176,4.968,36
		c0.432,5.256,0.432,5.256,1.152,8.64c0,10.584,0,10.584,0.288,11.52c0.072,0.072,0.216,0.144,0.36,0.216
		c0.36,4.32,0.36,16.344,0.576,18.288C253.296,448.272,252.648,448.272,251.928,448.344L251.928,448.344z M298.944,445.608
		c-0.504-1.368-1.008-2.736-1.584-4.104c-0.072-1.008-0.144-2.016-0.216-3.096c0.072-0.216,0.216-0.432,0.36-0.648
		c0.792,0,1.584,0,2.448,0c0.36,0.144,0.72,0.288,1.152,0.504c1.944,2.52,1.944,2.52,2.304,3.528c0,0.504,0,1.08,0,1.656
		c-0.288,0.72-0.648,1.44-1.008,2.16C301.248,445.608,300.096,445.608,298.944,445.608L298.944,445.608z M274.248,444.24
		c-0.936-1.296-1.872-2.592-2.808-3.888c-0.936-2.448-0.936-2.448-2.88-5.76c-0.432-2.376-0.936-4.752-1.44-7.2
		c-0.432-6.264-0.432-11.304-1.872-36.72c0.072-1.44,0.144-2.88,0.216-4.32c0.072-0.144,0.216-0.288,0.36-0.432
		c0.792-0.144,1.584-0.288,2.448-0.432c2.376,0.072,4.752,0.216,7.2,0.36c0.432,5.472,0.864,11.016,1.296,16.56
		c1.872,9.36,2.88,12.96,3.816,17.784c0.144,1.44,0.288,2.88,0.504,4.32c0,3.456,0,6.984,0,10.512
		c-1.944,5.76-1.944,5.76-2.88,7.488c-0.504,0.504-1.008,1.008-1.584,1.512C275.832,444.0959,275.04,444.168,274.248,444.24
		L274.248,444.24z M112.248,418.248c3.672-16.56,3.672-16.56,7.56-31.896c2.88-9.72,5.76-19.512,8.64-29.304
		c1.224-5.832,2.52-11.664,3.816-17.496c1.872-7.488,3.816-15.048,5.76-22.608c3.816-11.52,3.816-11.52,11.52-37.44
		c3.816-15.84,3.816-15.84,5.76-22.752c0.648-3.456,1.296-6.912,1.944-10.368c3.816-14.616,7.632-30.672,9.576-37.44
		c0.648-1.656,1.296-3.312,1.944-5.04c0.936-3.96,1.872-7.92,2.88-11.952c0.936-2.16,0.936-2.16,3.816-11.52
		c0.288-1.368,0.576-2.736,0.864-4.104c0.216,0,0.432,0,0.72,0c0.072,0.36,0.216,0.792,0.36,1.224
		c-0.72,10.8-2.664,28.296-4.608,49.176c-0.936,16.776-1.44,20.664-3.312,48.96c-1.944,23.544-1.944,23.544-2.88,38.16
		c-0.576,14.688-1.152,29.376-1.728,44.136c-2.88,27.144-2.88,27.144-3.816,38.16c-0.144,0.216-0.36,0.432-0.576,0.72
		c-2.088,1.08-4.176,2.16-6.264,3.24c-0.936,0.288-1.872,0.576-2.88,0.936c-7.416,3.888-7.416,3.888-10.296,5.76
		c-8.928,3.672-17.856,7.344-26.856,11.088C113.544,417.96,112.896,418.1039,112.248,418.248L112.248,418.248z M290.088,415.7279
		c-1.8-7.56-1.8-7.56-6.12-29.88c0-0.648,0.072-1.368,0.144-2.088c0.936,0,0.936,0,4.896,1.584c0.432,1.728,0.432,1.728,1.44,3.6
		c0.288,2.7361,0.576,5.472,0.936,8.208c0.072,2.664,0.144,5.4,0.216,8.136c1.008,7.92,1.008,7.92,1.008,9.576
		c-0.504,0.288-1.008,0.576-1.584,0.864C290.736,415.7279,290.448,415.7279,290.088,415.7279L290.088,415.7279z M300.384,387.648
		c-0.648-0.72-1.296-1.512-2.016-2.304c0-0.288,0-0.576,0.072-0.936c2.088-2.664,2.088-2.664,2.664-3.024
		c1.368,0,2.736,0.072,4.104,0.144c0,1.08,0,2.232,0.072,3.384c-1.44,2.376-1.44,2.376-2.016,2.736
		C302.328,387.648,301.392,387.648,300.384,387.648L300.384,387.648z M176.544,386.64c-0.072-0.072-0.216-0.144-0.36-0.288
		c0.36-2.88,0.792-5.76,1.224-8.64c0.144-0.288,0.36-0.648,0.576-1.008c0.648-0.288,1.296-0.576,1.944-0.864
		c19.944-4.752,26.424-6.696,37.44-9.216c-0.072,0.36-0.216,0.792-0.36,1.224c-2.304,1.224-4.68,2.448-7.056,3.672
		c-10.728,4.968-21.456,9.936-32.184,14.904C177.408,386.496,176.976,386.568,176.544,386.64L176.544,386.64z M300.672,370.08
		c-2.16-2.952-2.16-2.952-3.024-4.608c-2.088-2.16-2.088-2.16-4.104-3.6c-0.216-1.224-0.216-1.224-0.216-7.92
		c0.432-5.76,0.432-5.76,0.936-8.424c4.824-1.872,9.648-3.744,14.544-5.688c1.152-0.576,2.376-1.224,3.6-1.872
		c0.216,0,0.504,0.072,0.792,0.144c-1.656,13.68-1.872,18.216-2.16,19.152c-0.144,1.584-0.288,3.168-0.432,4.824
		c-1.368,1.368-2.736,2.736-4.104,4.104c-2.88,1.872-3.816,2.88-5.616,4.032C300.816,370.2239,300.744,370.152,300.672,370.08
		L300.672,370.08z M265.608,369.648c-1.944-1.008-1.944-1.008-3.384-1.224c-0.936,0.072-1.872,0.144-2.88,0.216
		c0-0.648-0.072-1.2961-0.144-2.016c2.52-1.872,2.52-1.872,4.608-3.816c0.792-1.008,1.584-2.016,2.376-3.096
		c0.36,0,0.72,0,1.08-0.072c0.504,1.224,1.008,2.448,1.584,3.672c0,0.36,0,0.72,0,1.152c-1.944,4.8239-1.944,4.8239-2.304,5.184
		C266.256,369.648,265.968,369.648,265.608,369.648L265.608,369.648z M281.664,369.144c-0.216-0.072-0.216-0.072-0.216-7.776
		c0.288,0,0.576,0,0.936,0.072c0.648,0.792,1.296,1.656,1.944,2.52c0.576,1.368,1.152,2.736,1.8,4.104
		c0,0.288-0.072,0.576-0.144,0.864C284.544,368.9999,283.104,369.072,281.664,369.144L281.664,369.144z M319.608,367.128
		c0.216-1.152,0.504-2.376,0.792-3.6c1.296-3.816,2.592-7.632,3.888-11.52c2.376-8.856,2.376-8.856,3.4561-14.616
		c0.864,0,1.728-0.072,2.664-0.144c0.648,0.288,1.296,0.576,1.944,0.936c2.376,1.944,2.376,1.944,4.176,3.96
		c0.432,1.44,0.936,2.88,1.44,4.32c0.072,1.08,0.144,2.232,0.216,3.384c-0.2881,0.936-0.576,1.872-0.936,2.88
		c-1.2961,2.088-2.592,4.1761-3.888,6.264c-1.872,1.872-1.872,1.872-6.912,5.76c-1.584,0.936-1.584,0.936-3.744,1.728
		C321.696,366.696,320.688,366.912,319.608,367.128L319.608,367.128z M177.048,362.6639c0-1.08-0.072-2.16-0.144-3.24
		c0.144-0.792,0.288-1.584,0.504-2.376c0.576-9,1.224-18.072,1.872-27.144c0.288-2.592,0.648-5.256,1.008-7.92
		c0.288-5.4,0.576-10.8,0.936-16.272c0.072-4.968,0.144-9.936,0.216-14.904c0.288-4.392,0.648-8.784,1.008-13.176
		c3.816-30.96,3.816-30.96,4.032-35.28c0.504-0.72,0.504-0.72,1.008-2.448c0-5.76-0.288-6.192,0-11.232
		c-0.072-1.656-0.144-3.312-0.288-5.04c0.72-9.648,1.728-17.28,2.664-27.36c0.6479-20.16,1.296-40.32,1.944-60.48
		c0.432-3.6,1.44-7.2,2.376-14.184c0.288-7.128,0.576-14.2559,0.936-21.384c1.44-18.936,1.44-18.936,4.32-47.52
		c0.216-1.08,0.432-2.232,0.648-3.384c0.216-0.072,0.432-0.144,0.72-0.2161c0.864,4.752,1.8,9.576,2.736,14.4
		c7.704,54.72,7.704,54.72,8.64,59.328c0.144,0.2159,0.288,0.432,0.504,0.72c0.936,5.04,0.936,5.04,1.872,12.456
		c0.504,6.984,0.504,6.984,2.448,22.824c1.224,8.856,2.5201,17.712,3.816,26.64c3.816,20.16,3.816,20.16,7.704,43.632
		c3.816,29.088,3.816,29.088,5.256,42.264c0.288,0.864,0.576,1.728,0.936,2.664c1.008,6.192,1.008,6.192,6.048,49.392
		c0,7.488,0,15.048,0,22.608c-0.648,0.432-2.016,0.792-2.52,1.296c-1.224,0.432-2.5201,0.936-3.816,1.44
		c-43.92,11.52-43.92,11.52-52.128,13.392C180.576,362.304,178.848,362.4479,177.048,362.6639L177.048,362.6639z M288.648,331.92
		c-0.432-0.072-0.936-0.144-1.44-0.216c-0.216-0.144-0.432-0.36-0.648-0.576c-0.144-1.008-0.288-2.016-0.432-3.096
		c-1.224-1.224-1.224-1.224-3.888-2.88c0-1.944,1.008-6.768,1.8-13.248c7.992-2.304,16.344-4.176,25.992-7.056
		c11.016-3.888,11.016-3.888,12.24-4.608c0.432,0,0.936,0,1.44-0.072c0,1.44,0,2.88,0.072,4.32c-0.144,1.224-0.288,2.52-0.504,3.816
		c-1.224,3.168-2.52,6.408-3.816,9.648c-2.16,2.16-2.16,2.16-4.68,3.888c-7.416,3.888-11.952,5.76-13.68,6.768
		c-3.024,0.936-6.048,1.872-9.072,2.88C290.952,331.632,289.8,331.7759,288.648,331.92L288.648,331.92z M254.592,326.808
		c-0.432-0.936-1.368-9.36-1.872-11.016c-1.152-11.304-2.16-17.28-3.096-26.928c-0.432-2.736-0.936-5.544-1.44-8.352
		c-0.288-4.176-0.576-8.352-0.936-12.528c-0.288-0.864-0.648-1.728-1.008-2.592c-0.144-1.728-0.2881-3.528-0.432-5.328
		c-1.944-10.296-5.76-35.7119-6.768-40.536c-0.432-5.76-0.936-7.92-1.44-13.176c-0.072-2.808-0.144-5.616-0.216-8.424
		c-0.144-0.72-0.288-1.44-0.504-2.16c-0.36-0.36-0.72-0.792-1.152-1.224c-0.288-1.08-0.648-2.16-1.008-3.312
		c-0.792-5.04-1.584-10.08-2.376-15.12c0-1.368,0-2.736-0.072-4.1039c0.216,0.072,0.432,0.144,0.72,0.2159
		c0.864,3.024,1.8,6.048,2.736,9.144c0.936,5.04,2.88,12.744,4.752,21.816c1.008,3.6,2.88,13.68,3.888,17.28
		c3.816,21.168,3.816,21.168,4.32,22.824c0,4.104,0,4.104,0.432,7.704c1.008,4.032,1.944,9.36,2.448,10.512
		c0.432,3.6,0.936,5.544,1.872,14.688c0.288,1.152,0.648,2.376,1.008,3.6c0.576,4.896,1.224,9.864,1.872,14.832
		c1.008,4.176,2.088,8.352,3.168,12.528c0.936,9.792,0.936,9.792,1.152,15.552c-2.16,1.944-2.16,1.944-5.328,4.176
		C255.096,326.8799,254.88,326.8799,254.592,326.808L254.592,326.808z M343.584,325.2239c-2.304-2.16-4.608-4.32-6.912-6.48
		c-1.656-1.224-3.312-2.448-4.968-3.672c0.072-0.7921,0.144-1.584,0.216-2.448c1.296-3.384,2.592-6.84,3.888-10.296
		c2.232-7.488,4.464-14.976,6.696-22.536c1.224-5.328,2.52-10.7281,3.816-16.128c0.648-3.744,1.296-7.488,1.944-11.232
		c0.504-5.76,1.08-11.52,1.656-17.28c0.144-6.696,0.288-13.392,0.504-20.16c-0.432-8.208-0.864-16.488-1.296-24.768
		c0.216,0.072,0.432,0.144,0.72,0.216c1.8,6.984,1.8,6.984,4.68,21.168c0.288,3.24,0.576,6.552,0.936,9.864
		c0,5.04,0,5.04,0.216,5.256c0.288,2.664,0.648,5.4,1.008,8.136c0,27.648-0.288,30.24,0,33.408
		c-0.864,9.576-1.728,19.152-2.664,28.8c-0.648,2.952-1.2961,5.904-1.944,8.856c-1.44,4.464-2.88,8.928-4.32,13.464
		c-0.288,0.288-0.576,0.576-0.936,0.936c-2.376,4.536-2.376,4.536-3.024,5.04C343.728,325.368,343.656,325.296,343.584,325.2239
		L343.584,325.2239z M271.872,274.032c-1.224-5.112-2.448-10.224-3.744-15.408c-1.2961-4.176-2.592-8.424-3.888-12.672
		c-4.752-18.72-4.752-18.72-5.256-21.888c-0.936-2.376-0.936-2.376-4.824-17.28c-4.752-20.16-4.752-20.16-5.256-23.76
		c-7.704-27.36-8.64-31.68-10.584-38.16c-2.376-9.576-2.88-10.512-3.816-15.3361c-0.648-2.1599-1.296-4.3199-1.944-6.48
		c-0.576-3.0959-1.224-6.192-1.872-9.3599c-0.648-1.152-1.2961-2.376-1.944-3.6c-1.944-7.704-1.944-7.704-3.816-17.28
		c-1.296-4.536-2.592-9.072-3.888-13.68c-3.168-15.264-6.336-30.5281-9.576-45.864c-0.216-1.944-0.504-3.96-0.7921-5.9761
		c2.16-0.1439,2.16-0.1439,3.312,0.2161c3.744,7.2,7.56,15.624,9.504,19.2239c2.52,5.7601,5.04,11.5201,7.632,17.2801
		c1.296,2.304,2.592,4.608,3.888,6.984c7.632,18.72,7.632,18.72,9.576,22.752c2.52,7.416,5.112,14.832,7.7039,22.32
		c2.5201,8.136,5.04,16.272,7.632,24.48c1.584,5.9041,3.168,11.808,4.824,17.7841c0.936,5.5439,0.936,5.5439,3.816,17.064
		c0.432,3.168,0.936,6.336,1.44,9.576c0.288,3.744,0.648,7.4879,1.008,11.304c3.6,22.536,3.6,22.536,4.536,29.952
		c0.216,0.648,0.432,1.296,0.72,1.944c0.072,2.88,0.144,5.76,0.216,8.64c-0.144,2.376-0.288,4.752-0.432,7.2
		c-1.08,9.792-2.232,19.656-3.384,29.52C272.448,273.672,272.16,273.8159,271.872,274.032L271.872,274.032z M286.992,270.7199
		c-0.288-0.072-0.288-0.072-0.432-2.232c0.504-6.984,0.504-12.744,1.368-23.04c1.224-0.36,1.656-0.864,17.784-6.624
		c4.608-2.52,9.216-5.112,13.896-7.704c3.744-2.52,7.488-5.0399,11.304-7.632c1.584-1.296,3.168-2.592,4.752-3.888
		c0.36,0,0.792,0.072,1.224,0.144c0.216,0.504,0.216,0.504-0.144,23.328c-0.144,2.16-0.2881,4.32-0.504,6.4799
		c-0.288,1.512-0.576,3.024-0.936,4.536c-0.288,0.648-0.576,1.296-0.936,1.944c-3.312,1.872-6.624,3.744-9.936,5.616
		c-8.928,3.816-8.928,3.816-14.184,5.76c-2.304,0.576-4.608,1.224-6.984,1.872c-6.696,1.008-6.696,1.008-12.456,1.44
		C289.584,270.7199,288.288,270.7199,286.992,270.7199L286.992,270.7199z M283.104,204.48c-0.36-2.232-0.36-2.232-0.864-3.456
		c-1.584-12.6-3.168-25.2-4.752-37.872c-0.936-4.1761-1.872-8.352-2.88-12.528c-3.888-12.24-6.768-19.872-10.584-32.112
		c-0.288-1.6561-0.576-3.312-0.936-5.04c-1.944-6.048-2.88-7.92-4.824-13.968c-0.432-0.72-0.936-1.44-1.44-2.16
		c-2.52-6.84-5.112-13.68-7.704-20.592c-1.872-4.248-3.816-8.496-5.76-12.744c-2.52-6.768-5.04-13.536-7.632-20.376
		c-1.584-3.456-3.168-6.912-4.8239-10.368c-0.576-1.8-1.152-3.6-1.8-5.472c4.104,1.728,4.104,1.728,7.488,3.672
		c0.432,0.504,0.432,0.504,10.296,6.264c2.304,1.7281,4.608,3.4561,6.984,5.256c0.936,0.288,1.872,0.576,2.88,0.936
		c1.224,0.9359,2.52,1.8719,3.816,2.88c5.76,5.256,11.52,10.512,17.28,15.84c10.8,11.088,10.8,11.088,12.024,12.024
		c3.816,4.608,7.632,9.2161,11.52,13.824c0.576,1.08,1.224,2.16,1.872,3.2399c1.296,1.6561,2.592,3.312,3.888,5.0401
		c2.448,4.608,4.968,9.2159,7.488,13.824c3.888,8.856,3.888,8.856,7.704,18.72c1.584,4.608,3.168,9.2159,4.824,13.8961
		c3.816,14.184,3.816,14.184,6.192,24.264c0,0.5039,0,1.08,0,1.656c-1.296,1.7279-2.664,3.456-4.032,5.256
		c-3.888,4.1039-3.888,4.1039-8.28,7.92c-5.328,3.816-10.656,7.632-15.984,11.52c-6.336,3.888-6.336,3.888-13.32,7.704
		c-2.2321,0.864-4.464,1.8-6.696,2.736C284.4,204.3359,283.752,204.408,283.104,204.48L283.104,204.48z"/>
</g>
</svg>
