<?xml version="1.0" encoding="utf-8"?>
<!-- Generator: Adobe Illustrator 21.1.0, SVG Export Plug-In . SVG Version: 6.00 Build 0)  -->
<svg version="1.1" id="Sai" xmlns="http://www.w3.org/2000/svg" xmlns:xlink="http://www.w3.org/1999/xlink" x="0px" y="0px"
	 viewBox="0 0 410.184 370.296" enable-background="new 0 0 410.184 370.296" xml:space="preserve">
<g>
	<path fill-rule="evenodd" clip-rule="evenodd" d="M336.672,370.296c-18.288-2.88-18.288-2.88-33.84-4.824
		c-9.648-0.936-9.648-0.936-19.008-2.376c-32.832-1.944-32.832-1.944-37.656-1.944c-8.64-0.936-22.32-2.88-40.824-4.752
		c-3.6-0.432-7.2-0.936-10.8-1.44c-35.496-3.384-37.656-3.888-70.056-6.768c-9.36-0.432-9.36-0.432-17.496-0.432
		c-6.048-1.008-11.088-1.44-11.808-1.728c-6.192-0.576-12.456-1.224-18.72-1.872c-24.12-0.648-48.24-1.296-72.432-1.944
		c-0.792-0.144-1.584-0.288-2.448-0.504c-0.72-0.72-0.72-0.72-1.44-1.008c0-0.216-0.072-0.432-0.144-0.72
		c0.504-0.504,1.008-2.16,1.44-2.664c0.936-0.2159,1.872-0.4319,2.808-0.6479c0.36,0.072,0.792,0.144,1.224,0.288
		c40.752-0.72,40.752-0.72,260.352-6.48c45.792-1.296,91.6559-2.592,137.52-3.888c0.864-0.144,1.728-0.288,2.664-0.432
		c0.72-0.576,1.44-1.152,2.16-1.728c0.432,0,0.864,0.072,1.296,0.144c0.216,0.432,0.432,0.936,0.72,1.44c0,0.36,0,0.792,0,1.224
		c-0.6479,0.792-1.296,1.656-2.016,2.52c-1.44,0.432-1.656,0.72-2.88,1.152c-1.008,0-2.0161,0-3.0961,0
		c-1.584,0.288-3.168,0.648-4.824,1.008c-6.4799,2.52-12.96,5.04-19.4399,7.632c-6.696,3.888-6.696,3.888-10.584,5.76
		c-2.952,1.872-5.904,3.816-8.856,5.76c-0.936,1.008-3.816,2.88-8.424,6.84c-3.384,3.456-6.84,6.912-10.296,10.44
		c-0.36,0.648-0.7921,1.296-1.224,1.944C337.968,370.296,337.32,370.296,336.672,370.296L336.672,370.296z M109.152,312.192
		c-0.36-0.432-0.72-0.864-1.152-1.296c-0.432-1.872-1.44-3.6-2.376-6.912c-0.432-0.864-0.936-1.728-1.44-2.664
		c-0.072-0.432-0.144-0.936-0.216-1.44c0.288-0.432,0.576-0.936,0.864-1.44c0.288-0.072,0.576-0.216,0.936-0.36
		c10.296-0.288,10.296-0.288,30.24-0.288c5.184-0.288,10.368-0.576,15.624-0.936c51.84-1.224,51.84-1.224,67.176-1.224
		c4.4641,0.144,8.928,0.288,13.4641,0.504c6.696-0.216,11.52-0.72,26.352-1.224c0.504,0.288,1.008,0.576,1.584,0.864
		c0,1.008-0.288,1.44-0.288,2.448c1.008,2.376,1.008,2.376,3.888,7.2c0,0.576,0,1.224,0,1.872c-0.144,0.144-0.288,0.288-0.504,0.504
		c-2.952,0.072-2.952,0.072-9.72-0.36c-2.664,0.216-5.4,0.432-8.136,0.72c-8.64,0.072-17.28,0.144-25.92,0.216
		c-8.28-0.216-16.632-0.432-24.9839-0.72c-6.624,0.072-13.248,0.144-19.872,0.216c-8.64,0.72-24.48,1.44-35.568,2.448
		c-1.872,0.288-3.816,0.576-5.76,0.936C125.28,311.5439,117.216,311.8319,109.152,312.192L109.152,312.192z M98.064,261.792
		c-0.36-0.216-0.72-0.504-1.08-0.792c-0.288-2.88-0.576-5.76-0.936-8.64c0-1.512,0-3.024,0-4.536
		c0.144-0.576,0.288-1.152,0.432-1.728c0.504-0.504,1.008-1.008,1.584-1.584c0.432-0.144,0.936-0.288,1.44-0.432
		c0.144-0.288,0.288-0.576,0.504-0.864c1.08,0.288,2.232,0.576,3.384,0.864c4.752,0,4.752,0,10.8,0.432c10.152,0,20.304,0,30.456,0
		c7.848-0.36,15.696-0.72,23.544-1.152c11.592-0.216,23.184-0.432,34.776-0.72c4.248-0.216,8.496-0.432,12.744-0.72
		c5.616,0,11.304,0,16.992,0c4.68-0.216,9.432-0.432,14.184-0.72c0.936-0.504,0.936-0.504,2.664-0.72
		c0.432,0.432,0.432,0.432,0.576,1.8c-0.144,0.36-0.288,0.792-0.504,1.224c-0.504,5.76-0.504,5.76-0.504,11.736
		c0.216,1.08,0.432,2.232,0.72,3.384c-0.432,0.216-0.864,0.504-1.296,0.792c-1.152,0-2.376,0-3.6,0
		c-0.216-0.216-0.432-0.432-0.72-0.72c-0.864,0-1.728-0.072-2.592-0.144c0.432-0.72,0.432-0.72,0.216-1.08
		c-0.72-0.216-0.72-0.216-0.936-0.576c0.0721-0.144,0.144-0.2881,0.216-0.5041c-0.144-0.144-0.288-0.36-0.504-0.576
		c-0.72,0.072-1.44,0.144-2.16,0.216c-1.08,0.432-2.16,0.864-3.312,1.368c0.144,0.4319,0.288,0.936,0.432,1.44
		c-1.512,0-3.024-0.0721-4.536-0.144c-0.504,0.216-1.08,0.432-1.656,0.72c-0.504-0.504-0.504-0.504-1.944-0.936
		c-1.8,0-3.672,0-5.544,0c-0.432,0.144-0.936,0.288-1.44,0.432c-6.4799-0.216-6.4799-0.216-10.512-0.72
		c-38.448,0.72-38.448,0.72-74.664,1.728c-12.96,0.72-22.32,0.936-28.296,1.44C102.384,261.36,102.384,261.36,98.064,261.792
		L98.064,261.792z M103.824,216.72c-0.864-2.016-0.864-2.016-1.296-4.464c0-2.952,0-5.904,0-8.856c0.288-1.44,0.576-2.88,0.936-4.32
		c0.36-0.288,0.72-0.576,1.08-0.864c2.376-0.072,4.752-0.144,7.2-0.216c3.168,0.216,6.408,0.432,9.648,0.72
		c6.12-0.072,12.24-0.144,18.432-0.288c3.24-0.216,6.552-0.432,9.864-0.72c97.92-1.656,97.92-1.656,99.36-1.872
		c0.504,0.576,0.504,0.576,0.792,1.584c-0.72,2.376-0.72,2.376-1.44,7.632c0,2.232,0,4.464,0,6.768
		c-0.576,0.432-0.576,0.432-1.512,0.576c-0.216-0.0721-0.432-0.144-0.72-0.2881c-68.904,1.224-68.904,1.224-103.464,2.16
		c-10.296,0.432-20.592,0.936-30.96,1.44c-1.152,0.288-2.376,0.648-3.6,1.008C106.704,216.72,105.264,216.72,103.824,216.72
		L103.824,216.72z M111.312,174.24c-0.72-0.504-1.728-0.72-2.304-1.2961c0.072-0.792,0.144-1.584,0.216-2.448
		c0.648-2.16,1.296-4.32,1.944-6.48c3.816-7.92,3.816-7.92,6.192-11.952c0.288-0.144,0.576-0.288,0.864-0.504
		c0.288,0.216,0.576,0.432,0.864,0.72c3.456,0.072,3.456,0.072,13.104-0.648c8.712,0.072,17.424,0.144,26.136,0.288
		c9.144-0.504,33.84-1.008,50.904-1.728c25.632,0.288,27.072,0,46.08,0.504c0.216-0.144,0.432-0.288,0.72-0.504
		c0.36,0,0.72,0,1.152,0c0.072,0.144,0.216,0.288,0.36,0.432c-0.0721,0.576-0.144,1.224-0.216,1.872
		c-0.504,0.504-0.504,0.504-2.448,6.048c-0.936,3.744-1.872,7.488-2.88,11.232c-0.216,0.072-0.504,0.216-0.792,0.36
		c-46.08,0.936-46.08,0.936-95.256,2.376c-3.24,0.216-6.552,0.432-9.864,0.72c-5.688,0.072-11.376,0.144-17.064,0.288
		C117.792,174.24,117.792,174.24,111.312,174.24L111.312,174.24z M128.088,129.0959c-0.36-0.144-0.72-0.36-1.08-0.576
		c0.072-0.432,0.144-0.936,0.216-1.44c0.936-1.584,1.872-3.168,2.88-4.824c0-1.152,0-1.152,0.504-2.88
		c0.792-0.432,1.656-0.864,2.52-1.296c1.224-1.512,2.52-3.024,3.816-4.608c4.104-4.032,4.104-4.032,4.896-5.112
		c-0.072-0.792-0.144-1.584-0.216-2.376c0.072-0.144,0.216-0.288,0.36-0.432c1.008-0.144,2.088-0.288,3.168-0.432
		c5.4,0.072,10.8,0.144,16.272,0.216c3.6-0.144,7.2-0.288,10.8-0.504c2.016,0.072,4.032,0.144,6.048,0.288
		c5.472-0.504,5.472-0.504,13.176-0.504c9.576-0.936,9.576-0.936,15.336-1.224c9.144,0,9.144,0,52.344-1.656
		c3.384,0.288,6.84,0.576,10.296,0.864c0,0.432,0.072,0.936,0.144,1.44c-0.648,1.152-1.296,2.376-1.944,3.6
		c-0.648,2.448-1.296,4.896-1.944,7.416c-0.432,3.24-0.936,6.552-1.44,9.864c-0.216,0.144-0.504,0.288-0.792,0.504
		c-17.496,0.288-24.696,0.792-97.704,2.448C132.192,129.0959,131.688,128.8799,128.088,129.0959L128.088,129.0959z M166.248,82.296
		c-0.36-0.576-0.36-0.576-0.6479-2.952c4.104-4.104,7.4879-6.984,8.424-8.2081c2.376-1.8719,2.376-1.8719,10.8-9.5759
		c3.528-2.88,7.056-5.76,10.656-8.64c0.36-0.432,0.792-0.936,1.224-1.44c3.816,0,7.632-0.072,11.52-0.144
		c1.152-0.144,2.376-0.288,3.6-0.504c11.016-0.216,22.032-0.4321,33.12-0.72c20.448,0.2879,20.448,0.2879,22.824,0
		c9.864-0.144,19.8-0.2881,29.736-0.432c0.216-0.2161,0.432-0.432,0.72-0.7201c0.36,0,0.72,0.0721,1.08,0.1441
		c-0.072,0.576-0.144,1.2239-0.216,1.8719c-0.576,0.432-1.152,0.936-1.728,1.44c-0.144,0.288-0.288,0.648-0.432,1.0081
		c-0.648,0.576-1.2961,1.2239-1.944,1.8719c-3.816,5.5439-5.256,8.208-5.76,8.64c-1.872,3.672-3.816,7.344-5.76,11.088
		c-0.72,0.72-1.44,1.44-2.16,2.16c0.072,0.792,0.216,1.584,0.36,2.376c-2.16,0.0721-2.16,0.0721-4.536,0.576
		C167.688,82.08,167.688,82.08,166.248,82.296L166.248,82.296z M225.288,40.536c-0.36-0.1441-0.792-0.36-1.224-0.5761
		c0-0.3599-0.072-0.7919-0.144-1.2239c0.144-0.36,0.288-0.72,0.504-1.152c6.12-3.8879,6.12-3.8879,13.104-7.632
		c2.592-1.224,5.256-2.52,7.92-3.816c2.88-0.9359,3.096-1.2239,6.48-2.6639c1.152-0.288,2.376-0.576,3.5999-0.936
		c14.9041-5.7601,14.9041-5.7601,20.16-7.416c14.616-3.888,14.616-3.888,17.28-4.32c0.72-0.504,0.72-0.504,5.256-1.44
		c7.2-1.944,7.2-1.944,24.264-5.76c4.968-0.936,9.936-1.872,14.904-2.88c2.52-0.216,5.04-0.432,7.632-0.72
		c0.144,0.144,0.288,0.36,0.504,0.576c0,0.36,0,0.792,0.072,1.224c-0.36,0.36-0.72,0.792-1.08,1.2239
		c-5.4,3.816-7.56,5.7601-9.72,7.2001c-1.224,1.44-2.52,2.88-3.816,4.32c-4.536,4.032-4.536,4.032-11.16,10.8
		c-1.2961,1.512-2.592,3.024-3.96,4.5359c-3.816,5.5441-3.816,5.5441-5.112,7.056c-25.272,0.936-50.5439,1.872-75.888,2.88
		C231.696,40.032,228.528,40.248,225.288,40.536L225.288,40.536z"/>
</g>
</svg>
