<?xml version="1.0" encoding="utf-8"?>
<!-- Generator: Adobe Illustrator 21.1.0, SVG Export Plug-In . SVG Version: 6.00 Build 0)  -->
<svg version="1.1" id="Sa" xmlns="http://www.w3.org/2000/svg" xmlns:xlink="http://www.w3.org/1999/xlink" x="0px" y="0px"
	 viewBox="0 0 405.36 520.272" enable-background="new 0 0 405.36 520.272" xml:space="preserve">
<g>
	<path fill-rule="evenodd" clip-rule="evenodd" d="M1.08,520.272c-0.216-0.144-0.432-0.36-0.72-0.576
		C0,518.5439,0,518.5439,0,515.6639c0.288-0.36,0.576-0.792,0.936-1.2239c0.504-0.288,1.008-0.576,1.584-0.864
		c7.416-0.72,7.416-0.72,8.136-0.504c0.936,0,1.872,0,2.88,0c0.288-0.504,0.576-1.008,0.864-1.512c0-0.432-0.072-0.936-0.144-1.44
		c-0.36-0.36-0.72-0.792-1.08-1.224c0.072-0.864,0.144-1.728,0.216-2.592c0.936-1.656,1.872-3.312,2.88-5.04
		c1.944-5.328,1.944-5.328,5.328-12.528c0.144-0.792,0.288-1.584,0.432-2.376c0.288-0.144,0.576-0.288,0.864-0.504
		c5.328-1.08,10.728-2.16,16.128-3.24c3.672-6.84,3.672-6.84,4.608-9.432c0.936-3.456,1.872-6.912,2.88-10.368
		c0.648-1.44,1.296-2.88,1.944-4.32c0.936-3.6,0.936-3.6,2.88-8.352c1.224-2.448,2.52-4.968,3.816-7.488
		c2.232-6.12,4.464-12.24,6.768-18.432c0.432-0.72,0.936-1.44,1.44-2.16c0.144-0.648,0.288-1.296,0.432-1.944
		c1.944-3.096,3.888-7.2,4.824-8.64c1.944-4.32,1.944-4.32,3.816-7.704c1.296-3.168,2.592-6.336,3.888-9.576
		c3.816-7.704,5.76-12.24,6.192-12.744c1.296-2.736,2.592-5.544,3.888-8.352c0.576-1.728,1.224-3.528,1.872-5.328
		c1.08-2.448,2.232-4.896,3.384-7.416c0.288-1.656,0.576-3.312,0.936-5.04c0.648-1.8,1.296-3.672,1.944-5.544
		c1.872-3.888,3.816-7.776,5.76-11.736c0.288-1.0081,0.576-2.016,0.936-3.096c1.944-3.384,5.76-11.808,11.52-23.04
		c1.944-4.608,3.888-8.208,5.76-12.528c0.432-1.656,0.936-3.312,1.44-5.04c1.584-3.168,3.168-6.336,4.824-9.576
		c2.52-6.192,5.112-12.4561,7.704-18.72c0.144-0.7921,0.288-1.584,0.432-2.376c2.88-6.768,3.888-8.424,5.76-13.464
		c0.648-1.224,1.296-2.52,1.944-3.816c0.288-1.008,0.576-2.088,0.936-3.168c1.296-2.664,2.592-5.4,3.888-8.136
		c1.224-3.168,2.52-6.336,3.816-9.576c0.288-1.152,0.576-2.376,0.936-3.6c1.296-2.448,2.592-4.968,3.888-7.488
		c3.312-9.072,4.32-10.8,5.256-13.896c4.824-9.36,5.256-10.8,6.264-12.456c0.576-1.656,1.224-3.312,1.872-5.04
		c2.52-5.328,5.112-10.728,7.7039-16.128c0.648-1.008,1.2961-2.016,1.944-3.096c3.816-8.856,5.76-12.456,9.576-21.6
		c1.584-3.1681,3.168-6.336,4.824-9.576c3.816-9.1441,5.76-12.9601,9.576-21.6c5.76-10.584,7.704-14.904,8.136-15.408
		c0.648-2.232,1.2961-4.4641,1.944-6.696c0.5041-0.504,3.384-6.984,4.32-8.136c0.936-1.8,1.872-3.672,2.88-5.544
		c0.288-0.936,0.576-1.872,0.936-2.88c2.232-4.3201,4.464-8.6401,6.768-12.96c1.872-4.968,3.816-9.936,5.76-14.904
		c0.936-1.44,0.936-1.44,1.872-3.816c0.216-1.0801,0.432-2.232,0.72-3.384c1.944-4.536,1.944-4.536,5.76-15.336
		c1.296-2.664,2.592-5.4,3.888-8.136C246.96,9,250.776,1.8,251.28,1.296c0.864-0.288,1.8-0.5761,2.736-0.864
		c1.44-0.144,2.88-0.288,4.32-0.432c1.296,0.072,2.592,0.144,3.888,0.216c0.72,0.5039,0.72,0.5039,2.88,0.9359
		c1.152,1.0081,1.152,1.0081,2.016,2.3041c0.288,3.312,0.576,6.6959,0.936,10.08c-0.2159,4.3201-0.4319,8.6401-0.72,12.96
		c-0.216,18.288-0.216,18.288-0.504,21.6c0.144,1.584,0.288,3.168,0.504,4.824c0,13.176,0.504,26.424,0.936,52.056
		c0.288,0.288,0.6481,0.6481,1.0081,1.0081c0.936,2.592,0.936,2.592,3.6,8.352c0.288,1.152,0.576,2.376,0.936,3.6
		c7.704,20.16,9.576,25.92,11.52,30.744c0.288,1.368,0.576,2.736,0.936,4.104c1.296,3.096,2.592,6.192,3.8881,9.36
		c0.936,2.88,1.872,5.76,2.88,8.64c0.936,2.232,1.872,4.464,2.88,6.696c2.376,7.2,2.88,7.704,3.816,10.584
		c0.648,1.08,1.296,2.16,1.944,3.312c0.576,1.656,1.2241,3.312,1.872,5.04c0.648,1.08,1.296,2.232,1.944,3.384
		c1.2241,3.744,2.5201,7.488,3.816,11.304c2.52,6.624,5.112,13.248,7.704,19.872c0.288,1.152,0.576,2.376,0.936,3.6
		c1.944,4.608,4.824,13.464,5.328,14.184c0.144,0.72,0.288,1.44,0.4319,2.16c1.0081,1.944,1.944,4.824,2.8801,6.696
		c0.36,0.288,0.792,0.648,1.224,1.008c0,0.864,0,1.728,0,2.592c0.6479,1.368,1.296,2.736,1.944,4.104
		c1.872,5.5439,2.88,7.416,7.632,19.656c0.144,0.792,0.288,1.584,0.504,2.448c0.648,1.584,1.296,3.168,1.944,4.752
		c0.576,2.16,1.2241,4.32,1.8721,6.48c3.888,10.368,3.888,10.368,5.76,16.56c0.792,1.728,1.584,3.528,2.448,5.328
		c0.288,1.296,0.5759,2.664,0.936,4.032c0.648,1.44,1.296,2.88,1.944,4.32c7.2,20.448,7.2,20.448,7.632,22.32
		c1.944,4.32,2.88,7.2,3.888,9.36c0.576,1.8,1.224,3.672,1.872,5.544c1.296,2.592,2.592,5.256,3.888,7.92
		c0.432,2.664,0.432,2.664,2.592,9.36c0.504,0.72,2.448,6.264,5.328,12.456c1.728,4.752,3.456,9.576,5.256,14.4
		c0.936,3.888,0.936,3.888,2.88,9.36c0.6479,1.44,1.296,2.88,1.944,4.32c0.216,0.216,0.432,0.432,0.72,0.72
		c1.224,3.96,2.52,7.992,3.816,12.024c3.816,10.08,5.7599,16.056,7.704,20.88c1.656,3.312,3.312,6.696,5.04,10.08
		c-0.72,2.376-0.72,2.376-1.728,4.32c-0.432,0.432-0.936,0.936-1.44,1.44c-0.576,1.368-1.224,2.736-1.872,4.104
		c-1.008,0.936-1.44,1.872-2.16,2.376c-4.4641,5.688-8.928,11.376-13.464,17.064c-1.944,3.096-1.944,3.096-3.816,5.472
		c-2.16,2.16-2.16,2.16-6.768,7.704c0,0.36,0,0.792-0.072,1.224c6.5519,0,13.104-0.072,19.6559-0.144
		c4.1041,0.432,4.1041,0.432,11.304,0.432c0.36,0.432,0.36,0.432,0.216,1.44c-0.288,0.144-0.576,0.288-0.936,0.504
		c-5.9041,0.504-11.808,1.08-17.784,1.6559c-5.544-0.288-11.16-0.5759-16.776-0.9359c-0.864-0.36-1.728-0.7921-2.664-1.2241
		c-1.872,0.288-3.816,0.648-5.76,1.008c-5.544,0.288-11.16,0.576-16.776,0.936c-1.728,0.288-3.456,0.576-5.256,0.936
		c-3.672-0.216-7.344-0.432-11.088-0.72c-5.76-0.072-11.52-0.1439-17.28-0.2159c-11.736,0.936-11.736,0.936-23.7599,1.44
		c-2.592,0.504-2.592,0.504-10.296,0.936c-19.872-0.288-39.816-0.576-59.76-0.936c-5.256,0.144-10.512,0.288-15.84,0.504
		c-4.032-0.072-8.136-0.144-12.24-0.288c-21.744,0.576-43.488,1.152-65.304,1.728c-0.72-0.072-1.44-0.144-2.16-0.2881
		c-11.664,0.144-23.328,0.2881-34.992,0.504c-2.448,0.288-4.968,0.576-7.488,0.936c-2.664,0-5.4,0-8.136,0
		c-0.36-0.144-0.792-0.288-1.224-0.432c-20.88,0.432-24.696,0.72-59.04,1.152c-0.288-0.144-0.576-0.288-0.936-0.432
		C6.84,519.984,3.96,520.1279,1.08,520.272L1.08,520.272z M17.856,512.856c0-0.432-0.072-0.864-0.144-1.296
		c0.216-0.288,0.432-0.576,0.648-0.936c4.824-0.216,9.72-0.432,14.616-0.648c2.88,0.288,5.76,0.576,8.64,0.936
		c1.656,0.36,3.312,0.792,5.04,1.224c-0.216,0.144-0.432,0.288-0.72,0.504C36.576,512.712,27.216,512.784,17.856,512.856
		L17.856,512.856z M54.576,510.192c-13.392-2.376-18-2.88-18.864-3.168c0-2.664,0-2.664,0.72-7.488
		c0.144-0.36,0.288-0.72,0.432-1.152c4.752-0.648,4.752-0.648,16.056-1.368c17.28-0.216,22.104-0.504,49.464-0.936
		c29.016,0,32.832,0.216,47.52,0.216c1.872,0.216,1.872,0.216,44.856,0.216c16.344-0.72,16.344-0.72,27.36-0.72
		c7.128,0.216,14.256,0.432,21.384,0.72c1.296-0.144,2.664-0.288,4.032-0.432c0.216-0.144,0.432-0.288,0.72-0.504
		c10.368,0,10.368,0,13.464-0.216c0.216-0.144,0.432-0.288,0.72-0.504c19.224-0.72,42.696-1.224,51.84-1.656
		c5.256-0.504,5.256-0.504,11.736-0.72c6.9839-1.008,6.9839-1.008,16.848-1.944c3.744-0.216,7.488-0.432,11.232-0.72
		c18.504,0.216,20.16,0.504,23.328,0.504c2.16-0.432,4.32-0.936,6.48-1.44c1.2241-0.576,2.52-1.152,3.816-1.728
		c0.504,0,1.08,0,1.6559-0.072c-0.0719,0.36-0.2159,0.792-0.3599,1.224c-7.704,9.36-7.704,9.36-8.64,11.016
		c-2.16,2.16-3.0961,3.6-4.176,4.392c-0.792-0.144-1.584-0.288-2.376-0.432c-7.92,0.72-7.92,0.72-11.304,1.44
		c-3.816,0-7.2-0.504-17.28-0.504c-0.936,0.144-1.872,0.288-2.88,0.504c-13.8961,0.432-25.92,0.432-36.504,0.936
		c-20.592,0.504-20.592,0.504-43.632,0.504c-0.6479,0.144-1.296,0.288-1.944,0.432c-9.144-0.216-17.28,0-25.416-0.216
		C225,506.88,225,506.88,196.2,507.312c-6.984-0.2159-24.696,0-29.736,0.288c-1.296-0.072-2.592-0.144-3.888-0.288
		c-44.64,0.72-44.64,0.72-63.576,1.44c-6.984-0.216-6.984-0.216-17.496,0c-0.936,0.144-1.872,0.288-2.88,0.504
		c-16.128,0-16.128,0-17.28,0.216c-0.216,0.144-0.432,0.288-0.72,0.504C58.608,510.048,56.592,510.12,54.576,510.192L54.576,510.192
		z M23.4,507.312c-2.16-0.072-4.32-0.144-6.48-0.2159c-0.072-0.072-0.216-0.216-0.36-0.36c0.072-0.432,0.144-0.936,0.216-1.44
		c0.648-1.224,1.296-2.52,1.944-3.816c0.936-3.384,0.936-3.384,1.872-5.544c1.944-3.312,2.88-5.472,4.464-7.92
		c2.448-0.864,2.448-0.864,7.2-1.8c1.08-0.072,2.232-0.216,3.384-0.36c-0.864,6.48-0.864,8.64-1.8,15.84
		c-0.288,1.512-0.648,3.024-1.008,4.608c-0.144,0.216-0.36,0.432-0.576,0.72C29.304,507.096,26.352,507.168,23.4,507.312
		L23.4,507.312z M81.216,486c-0.072-0.288-0.144-0.576-0.216-0.864c2.52,0.072,5.112,0.216,7.704,0.36
		c-0.432,0.144-0.936,0.288-1.44,0.504C85.248,486,83.232,486,81.216,486L81.216,486z M100.44,485.712
		c-1.944-0.216-1.944-0.216-2.88-0.576c0.504-0.36,0.504-0.36,6.696-0.864c10.512-0.216,21.096-0.432,31.68-0.72
		c0.144,0.072,0.288,0.216,0.504,0.36c-0.216,0.216-0.432,0.432-0.72,0.648c-5.472,0.36-11.016,0.72-16.56,1.152
		C112.968,485.712,106.704,485.712,100.44,485.712L100.44,485.712z M204.624,484.992c-14.184-0.432-31.968-0.432-39.888-0.72
		c-2.736,0.072-5.544,0.144-8.352,0.288c-5.184-0.144-10.368-0.288-15.624-0.504c-0.072-0.072-0.144-0.216-0.216-0.36
		c1.512-0.144,3.024-0.36,4.536-0.576c10.08-0.216,20.16-0.432,30.24-0.72c3.384-1.008,3.384-1.008,5.04-1.224
		c13.896,0,13.896,0,17.784,0.216c15.984-0.576,31.968-1.224,47.952-1.872c3.096,0,6.192,0,9.36,0
		c0.216-0.216,0.432-0.432,0.72-0.72c11.0881-0.504,15.1201-0.288,20.4481-0.72c0.4319-0.288,0.4319-0.288,12.456-1.224
		c11.664-0.144,23.328-0.288,35.064-0.504c13.176-0.936,13.176-0.936,36-1.872c30.2399-0.288,30.2399-0.288,30.456,0
		c-0.36,0.288-0.792,0.576-1.2241,0.936c-2.376,0.648-4.752,1.296-7.2,1.944c-3.456,0.432-6.984,0.936-10.512,1.44
		c-10.728,0.72-21.456,1.44-32.184,2.16c-65.52,1.872-73.224,2.376-109.656,3.312c-0.72,0.288-9.36,0.288-17.064,0.72
		C210.096,484.992,207.36,484.992,204.624,484.992L204.624,484.992z M42.624,481.536c0.072-0.432,0.144-0.936,0.288-1.44
		c0.288-0.432,0.648-0.936,1.008-1.44c1.872-5.256,1.872-5.256,3.816-12.672c0.936-2.304,1.872-4.608,2.88-6.984
		c0.144-0.864,0.288-1.728,0.504-2.664C54,449.64,54,449.64,57.816,441.72c1.224-3.672,2.52-7.344,3.816-11.016
		c2.88-6.048,3.384-6.48,5.328-10.368c0.576-1.584,1.224-3.168,1.872-4.752c1.872-3.744,3.816-7.488,5.76-11.304
		c1.296-3.24,2.592-6.552,3.888-9.864c1.872-3.312,7.632-16.272,9.576-19.872c2.88-7.2,2.88-7.2,4.32-9.864
		c0.936-3.6,1.872-7.2,2.88-10.8c1.728-3.672,3.456-7.344,5.256-11.016c0.288-0.36,0.648-0.792,1.008-1.224
		c0.576-1.656,1.224-3.312,1.872-5.04c0.648-0.7921,1.296-1.584,1.944-2.376c0-0.792,0-1.584,0-2.448
		c0.504-0.432,0.504-0.432,1.44-2.592c0.288-1.008,0.576-2.088,0.936-3.168c0.648-1.008,1.296-2.016,1.944-3.096
		c3.528-7.272,7.056-14.544,10.584-21.816c0.576-2.088,1.224-4.176,1.872-6.264c7.704-16.344,7.704-16.344,11.52-25.2
		c1.944-5.544,5.76-14.184,6.768-17.064c0.576-1.152,1.224-2.376,1.872-3.6c0.936-2.592,1.872-5.256,2.88-7.92
		c0.504-0.432,0.504-0.432,4.32-8.64c1.296-3.384,2.592-6.84,3.888-10.296c0.576-1.152,1.224-2.376,1.872-3.6
		c1.2961-3.6,2.592-7.2,3.888-10.8c3.816-8.856,5.76-12.456,6.192-13.896c0.288-0.432,0.648-0.936,1.008-1.44
		c3.816-9.36,7.632-17.28,9.072-20.88c1.944-3.6,2.88-4.824,4.824-8.64c0.936-2.664,1.224-2.8799,1.656-4.32
		c1.296-2.5919,2.592-5.256,3.888-7.92c2.016-4.968,4.104-9.936,6.192-14.9041c0.288-0.3599,0.648-0.7919,1.008-1.2239
		c2.376-5.976,3.312-7.416,9.072-20.592c2.232-4.1761,4.464-8.352,6.768-12.528c0.288,0,0.576,0,0.864,0
		c-2.304,6.48-2.808,7.2-4.752,13.248c-0.576,1.44-1.224,2.8799-1.872,4.3199c-0.936,3.312-1.872,6.696-2.88,10.08
		c-2.88,6.6959-3.888,8.1359-6.768,14.616c-1.224,3.672-2.52,7.344-3.816,11.016c-0.648,1.152-1.296,2.376-1.944,3.6
		c-1.872,4.752-3.816,9.576-5.76,14.4c-0.288,1.728-0.576,3.528-0.936,5.328c-0.936,2.592-0.936,2.592-1.944,7.2
		c-0.576,1.296-1.224,2.664-1.872,4.032c-0.432,2.16-0.936,4.32-1.44,6.48c-3.888,8.64-3.888,8.64-5.76,13.464
		c-1.296,3.96-2.592,7.992-3.888,12.024c-0.288,1.44-0.576,2.88-0.936,4.32c-0.648,1.512-1.296,3.024-1.944,4.536
		c-1.872,6.696-3.6,11.52-5.472,18.216c-0.7921,1.512-1.584,3.024-2.4481,4.608c-0.288,1.44-0.576,2.88-0.936,4.32
		c-0.936,1.44-0.936,1.44-1.224,2.376c0.288,0.504,0.288,0.504,0.288,1.944c-1.944,3.6-1.944,3.6-2.88,6.192
		c-1.944,7.704-1.944,7.704-3.888,13.68c-0.072,1.296-0.144,2.592-0.216,3.888c-1.944,5.256-2.88,8.856-3.816,10.8
		c-8.64,26.136-8.64,26.136-9.648,28.296c-3.312,12.744-3.312,12.744-3.816,13.68c-1.944,9.36-1.944,9.36-2.376,10.08
		c-1.44,8.856-1.728,9.36-3.168,18.504c-0.792,2.376-1.584,4.752-2.376,7.2c-0.072,1.008-0.144,2.016-0.216,3.096
		c-2.88,11.736-2.88,11.736-4.32,19.656c-1.944,15.624-1.944,15.624-1.944,18.288c-0.432,2.592-0.864,5.184-1.296,7.776
		c-2.88,0.216-5.76,0.432-8.64,0.72c-0.36,0.36-0.36,0.36-0.36,1.296c0.576,0.792,1.224,1.584,1.872,2.448
		c2.16,1.8,4.32,3.6,6.48,5.472c-0.216,5.616-0.432,11.232-0.72,16.848c-0.144,0.72-0.288,1.44-0.432,2.16
		c0.072,4.176,0.144,8.424,0.216,12.672c0.504,0.72,0.504,0.72,0.936,3.168c0,1.224,0,2.448-0.072,3.672
		c-3.888,0.432-7.776,0.936-11.736,1.44c-5.472,0.144-11.016,0.288-16.56,0.504c-20.664,1.44-20.664,1.44-23.04,1.872
		c-1.44,1.08-2.88,2.232-4.32,3.384c-0.648,0.144-1.296,0.288-1.944,0.504c-0.288,0.288-0.576,0.576-0.936,0.936
		c-0.72,0.288-1.44,0.576-2.16,0.936C46.44,481.392,46.44,481.392,42.624,481.536L42.624,481.536z M65.376,478.8
		c-1.224-0.072-2.448-0.216-3.744-0.36c0-0.216,0-0.432,0-0.72c0.36-0.288,0.72-0.576,1.152-0.864
		c8.928-0.648,17.856-1.296,26.856-1.944c3.96-0.144,7.992-0.288,12.024-0.432c4.32-0.432,8.64-0.936,12.96-1.44
		c12.672-0.504,12.672-0.504,19.656-0.504c1.368-0.144,2.736-0.288,4.104-0.504c22.032-0.432,23.976-0.72,33.12-0.72
		c0.288-0.144,0.576-0.288,0.936-0.432c0.072-2.16,0.144-4.32,0.216-6.48c1.44-0.288,1.44-0.288,10.8-0.36
		c-0.072,0.288-0.216,0.576-0.36,0.936c-1.8,1.872-3.672,3.816-5.544,5.76c-0.216,0.792-0.432,1.584-0.72,2.448
		c0,0.792,0,1.584,0,2.376c-0.144,0.144-0.288,0.288-0.432,0.504c-5.904,0.216-11.88,0.504-17.856,0.792
		c-12.528,0-33.624,0.72-43.488,0.72C88.704,478.512,88.704,478.512,65.376,478.8L65.376,478.8z M117,470.88
		c-0.504-0.072-1.008-0.216-1.584-0.36c-0.072-1.08-0.144-2.232-0.216-3.384c-0.432-1.584-0.936-3.168-1.44-4.752
		c0-3.312,0-6.696,0-10.08c0.36-6.336,0.72-12.672,1.152-19.008c0.144-0.36,0.288-0.72,0.432-1.08
		c0.792-0.144,1.584-0.288,2.376-0.504c16.776-0.432,16.776-0.432,30.456-1.152c2.088-0.216,4.176-0.432,6.264-0.72
		c0.792,0.072,1.584,0.144,2.376,0.216c8.928-0.72,8.928-0.72,18-0.936c0.936-0.144,1.872-0.288,2.88-0.504c4.032,0,8.136,0,12.24,0
		c2.232-0.432,4.464-0.936,6.768-1.44c8.64,0,8.64,0,27.792-0.936c1.008-0.288,8.928-0.288,14.4,0
		c10.584-1.008,10.584-1.008,14.688-1.008c0.792,0.288,1.584,0.576,2.448,0.864c0.1439,1.296,0.288,2.592,0.504,3.888
		c-0.216,4.032-0.216,4.032-0.504,4.536c0,9.144,0,9.144-0.432,13.464c-0.504,2.16-0.504,2.16-0.864,6.048
		c-2.16,0-2.16,0-11.232-1.44c-18.72-0.216-18.72-0.216-28.584,0c-2.88-0.144-5.76-0.288-8.64-0.432
		c-11.232,0.216-22.536,0.432-33.84,0.72c-1.944,0.432-1.944,0.432-2.664,0.936c-0.144,0.864-0.144,0.864,0.36,2.088
		c-0.504,11.52-0.504,11.52-0.72,12.456c-0.36,0.144-0.72,0.36-1.08,0.576c-8.64,0.504-8.64,0.504-30.672,0.936
		c-1.08,0.144-2.232,0.288-3.384,0.504C126.576,470.376,126.576,470.376,117,470.88L117,470.88z M265.536,470.16
		c-1.44-0.504-1.44-0.504-5.256-1.008c-4.1041-1.872-5.76-2.88-9.864-4.752c-0.576-0.432-1.152-0.864-1.8-1.296
		c0-0.216,0-0.432-0.072-0.72c2.664,0.072,5.4,0.144,8.136,0.288c10.296,1.944,24.696,5.328,27.576,5.76
		c0.432,0.288,0.936,0.576,1.44,0.864c-0.072,0.072-0.144,0.216-0.216,0.36C278.856,469.8,272.232,469.944,265.536,470.16
		L265.536,470.16z M299.16,469.44c-1.944-0.432-3.96-0.936-5.976-1.44c-0.72-0.288-1.44-0.648-2.16-1.008
		c-4.3199-1.08-8.64-2.16-12.96-3.312c-1.8-0.144-3.672-0.288-5.544-0.504c-6.264-1.44-6.264-1.44-7.704-1.44
		c-3.816-0.648-7.632-1.296-11.52-1.944c-9.792-0.432-10.08-0.72-11.232-0.72c-0.504,0.288-0.504,0.288-11.304,1.008
		c-5.688,0.072-11.376,0.144-17.064,0.216c-1.44,0.144-2.88,0.288-4.32,0.504c-5.256,0.072-10.512,0.144-15.84,0.216
		c-6.696-0.504-6.696-0.504-21.096-0.792c0.36-2.448,0.36-2.448,0.216-4.608c5.112-0.288,10.224-0.576,15.408-0.864
		c18.432,0.288,18.432,0.288,22.752,0c17.568-0.216,18.72,0,33.408,0c2.952,0.432,5.904,0.936,8.856,1.44
		c2.52,0.936,5.112,1.872,7.704,2.88c13.6801,2.88,16.992,3.888,20.16,4.32c1.08,0.288,2.16,0.648,3.312,1.008
		c8.424,1.44,9.3599,1.872,16.344,2.88c10.296,0.432,10.296,0.432,17.064,1.152c0.216,0.36,0.216,0.36,0,0.72
		C314.064,469.44,314.064,469.44,299.16,469.44L299.16,469.44z M335.88,466.2c0.072-0.072,0.144-0.216,0.216-0.36
		c2.448,0,2.448,0,2.664,0.216C338.544,466.272,338.544,466.272,335.88,466.2L335.88,466.2z M323.64,466.056
		c-7.704-0.432-15.48-0.936-23.256-1.44c-1.728-0.504-1.728-0.504-5.76-0.936c-4.32-1.944-4.32-1.944-7.704-3.888
		c-2.376-1.872-2.376-1.872-2.88-2.736c-0.072-0.36-0.144-0.72-0.216-1.152c0.72,0.216,1.44,0.504,2.16,0.792
		c2.88,1.944,2.88,1.944,6.696,3.816c1.728,0.576,3.4561,1.152,5.256,1.728c3.096,0.144,6.192,0.288,9.36,0.432
		c5.328,0.576,10.728,1.152,16.128,1.728c0.936,0.216,1.872,0.432,2.88,0.72c5.472,0.432,5.472,0.432,5.76,0.72
		C331.776,466.056,331.776,466.056,323.64,466.056L323.64,466.056z M377.136,465.12c-4.176-0.216-8.424-0.432-12.6721-0.72
		c-2.232,0.072-4.464,0.144-6.7679,0.216c-11.52-0.936-11.52-0.936-22.536-1.44c-7.704-0.936-12.96-1.944-18.504-2.664
		c-11.736-0.936-11.736-0.936-18-1.152c-1.224-0.288-2.52-0.648-3.816-1.008c-1.44-0.576-2.8799-1.224-4.3199-1.872
		c-1.872-1.296-3.816-2.592-5.76-3.96c-1.944-2.088-1.944-2.088-3.024-3.816c-0.504-0.288-1.008-0.648-1.512-1.008
		c-0.288-0.432-0.576-0.936-0.864-1.44c-0.504-2.376-1.008-3.096-1.944-7.2c-0.216-0.144-0.432-0.288-0.72-0.432
		c-0.216-2.448-0.216-17.064-0.504-17.568c-0.936-23.76-0.936-23.76-1.44-49.68c0.144-1.152,0.288-2.376,0.504-3.6
		c0-4.104,0-8.28,0-12.456c0.504-0.72,0.504-0.72,0.72-2.16c-0.216-1.152-0.432-2.376-0.72-3.6c0-3.96,0.072-7.992,0.1439-12.024
		c4.968-0.072,9.936-0.216,14.9041-0.36c0.288-0.36,0.288-1.8,0-2.16c-4.248-0.072-8.496-0.144-12.744-0.216
		c-0.216-0.144-0.4319-0.288-0.72-0.504c-0.504,0-1.08,0-1.656,0c-0.144-0.144-0.288-0.36-0.432-0.576
		c-0.72-13.464-0.72-13.464-1.44-34.776c-0.432-27.144-0.432-27.144-0.288-45.648c8.136-0.36,8.136-0.36,11.952-0.144
		c0.288-0.216,0.648-0.504,1.008-0.792c-0.144-0.288-0.288-0.576-0.504-0.864c-1.872-0.216-3.816-0.432-5.76-0.72
		c-5.04,0-5.04,0-7.416-0.36c-0.432-0.936-0.432-0.936-0.864-5.04c-0.072-6.552-0.144-13.104-0.288-19.656
		c0.2159-2.088,0.4319-4.176,0.72-6.264c0-14.112,0-14.112,0.288-23.04c-0.504-4.032-1.008-16.56-1.44-21.312
		c0-2.232,0.072-4.4641,0.144-6.768c1.872,0.864,1.872,0.864,5.976,2.016c0.792,0,1.584,0,2.376,0c0.36-0.216,0.72-0.504,1.08-0.792
		c0-0.216,0-0.432,0-0.72c-0.144-0.144-0.36-0.288-0.576-0.504c-6.696-1.584-6.696-1.584-7.704-1.584
		c-0.288,0.144-0.576,0.288-0.936,0.432c-0.144-6.264,0.072-12.24-0.36-19.944c0.288-3.744,0.576-7.488,0.936-11.304
		c-0.216-6.696-0.216-6.696,0.144-13.68c0.2161,0,0.432,0,0.72,0c0.072,0.72,1.08,2.16,6.336,15.84
		c0.288,1.0801,0.576,2.2321,0.936,3.384c3.168,7.992,6.408,15.984,9.6479,23.976c0.936,3.096,1.872,6.192,2.88,9.36
		c4.752,12.528,4.752,12.528,7.632,19.224c1.008,1.44,1.008,1.44,2.88,5.7599c0.216,0.936,0.432,1.872,0.72,2.88
		c1.296,2.88,2.592,5.76,3.888,8.64c1.872,7.92,2.376,8.64,3.312,12.24c0.288,0.648,0.6479,1.296,1.008,1.944
		c0.144,0.72,0.288,1.44,0.432,2.16c1.944,4.32,2.88,7.2,3.888,8.856c1.224,3.096,2.52,6.192,3.816,9.36
		c1.224,3.744,2.52,7.488,3.816,11.304c0.288,0.576,0.6481,1.224,1.0081,1.872c0.576,2.16,1.224,4.32,1.872,6.48
		c1.296,3.456,2.592,6.912,3.888,10.368c0.144,0.792,0.288,1.584,0.432,2.376c0.4319,0.36,0.4319,0.36,2.088,0.792
		c1.872,6.192,3.744,12.384,5.616,18.648c3.168,8.856,6.336,17.712,9.576,26.64c0.288,0.504,0.6479,1.08,1.008,1.656
		c7.632,20.88,8.64,23.04,9.072,24.768c0.504,0.936,4.3199,13.392,6.624,19.872c0.288,0.144,0.576,0.288,0.864,0.504
		c1.872,5.544,3.816,9.864,4.752,12.744c0.216,0.144,0.432,0.288,0.72,0.432c1.296,4.392,2.592,8.784,3.888,13.248
		c1.08,2.664,2.16,5.4,3.312,8.136c1.008,1.44,1.008,1.44,2.88,5.976c2.88,8.64,3.888,10.8,5.76,16.56
		c1.008,2.16,1.944,5.544,2.448,6.264c2.592,7.128,5.256,14.256,7.92,21.384c0,2.016,0,4.104,0,6.192
		c-1.08,1.008-1.08,1.008-2.808,1.944c-1.584,0.216-3.168,0.504-4.752,0.792c-1.152-0.072-2.376-0.144-3.6-0.216
		C383.256,464.76,380.232,464.904,377.136,465.12L377.136,465.12z M283.824,461.952c-1.224-0.432-1.224-0.432-6.192-1.296
		c0-1.728,0.072-3.456,0.144-5.184c0.216,0,0.432,0,0.72,0c0.936,1.368,1.8719,2.736,2.88,4.104c1.152,0.72,2.376,1.44,3.6,2.16
		C284.76,461.952,284.76,461.952,283.824,461.952L283.824,461.952z M272.736,459.36c-0.504-0.216-1.08-0.432-1.656-0.648
		c-0.072-9.144-0.216-18.36-0.36-27.576c0.432-4.536,0.432-4.536,0.432-10.08c-0.288-0.576-0.576-1.224-0.936-1.872
		c-0.288-3.528-0.576-7.056-0.936-10.584c-0.288-12.96-0.288-12.96,0-18.72c-0.144-1.584-0.288-3.168-0.504-4.824
		c0.216-10.08,0.72-18,0.72-23.976c-0.504-2.88-0.936-8.856-1.2241-9.576c0-2.808,0-5.616,0-8.424
		c-0.1439-1.008-0.288-2.016-0.4319-3.096c0-2.304,0-4.608,0-6.984c-0.216-1.584-0.432-3.168-0.72-4.824
		c0.072-6.192,0.144-12.456,0.216-18.72c-0.72-9.36-0.72-9.36-0.936-19.44c0.216-0.432,0.432-0.936,0.72-1.44
		c0.072-3.096,0.144-6.192,0.216-9.36c-0.144-0.432-0.288-0.936-0.504-1.44c-0.1439-5.472-0.288-11.016-0.432-16.56
		c0.2881-3.384,0.576-6.84,0.936-10.296c-0.216-12.456-0.216-12.456-0.936-27.576c-0.504-4.32-0.504-4.32-0.72-9.648
		c0.432-14.832,0.432-14.832,0.72-18c-0.072-2.448-0.1439-4.896-0.288-7.416c0.144-0.792,0.288-1.584,0.504-2.376
		c0-1.368,0-2.736,0-4.104c-0.504-1.224-0.504-1.224-0.504-2.664c0.144-0.432,0.288-0.936,0.504-1.44
		c0.72-8.352,0.72-8.352,1.2241-19.152c0.2159-13.3919,0.504-26.856,0.792-40.32c0.216,1.296,0.432,2.6641,0.648,4.032
		c0.072,4.5359,0.144,9.072,0.216,13.68c-0.72,6.768-0.72,6.768-0.936,11.52c0.144,2.592,0.288,5.256,0.432,7.92
		c-0.144,6.12-0.288,12.312-0.432,18.504c0.288,3.24,0.576,6.552,0.936,9.864c-0.072,2.0161-0.144,4.104-0.216,6.192
		c0.216,1.656,0.4319,3.312,0.72,5.04c0,18.288,0,18.288-0.288,24.984c-0.2159,2.448-0.4319,4.896-0.72,7.416
		c0.288,1.008,0.288,1.008,0.504,6.7679c-0.072,2.448-0.144,4.8961-0.216,7.416c0.4319,8.136,0.936,10.8,1.44,21.384
		c0.072,11.376,0.144,22.824,0.216,34.272c0.72,15.84,0.72,15.84,0.936,29.808c0.288,4.68,0.648,9.36,1.008,14.112
		c0,27.144-0.288,28.8-0.288,48.024c0.144,5.184,0.288,10.368,0.504,15.624c0.144,0.576,0.288,1.224,0.504,1.872
		c0.216,26.928,0.216,26.928,0.72,40.104c-0.288,10.08-0.288,10.08-0.576,12.6C273.456,459.36,273.096,459.36,272.736,459.36
		L272.736,459.36z M266.544,457.56c-0.072-0.72-0.144-1.44-0.288-2.16c-1.008-0.288-2.0161-0.576-3.096-0.864
		c-0.936,0-1.872,0-2.88,0c-0.144-1.08,1.512-11.376,1.44-12.096c-0.36,0-0.7921,0-1.224,0.072
		c-0.864,2.088-0.864,2.088-1.296,2.592c-0.288-13.248,0-14.184,0-19.944c0.288-0.72,0.576-1.44,0.936-2.16
		c0.504-3.384,0.504-3.384,0.936-4.32c-0.072-0.36-0.144-0.792-0.216-1.224c-1.296-1.08-1.296-1.08-2.376-1.44
		c-0.288-1.44-0.288-4.752,0-5.76c0.144-2.448,0.288-4.896,0.432-7.416c0-6.48,0-12.96,0-19.44c0.1439-1.08,0.288-2.232,0.504-3.384
		c-0.072-4.68-0.144-9.36-0.216-14.112c0.144-0.216,0.288-0.432,0.432-0.72c0-6.048,0.288-8.208,0.288-19.44
		c-0.288-1.944-0.288-1.944-0.288-6.768c0.288-4.896,0.648-9.864,1.008-14.832c0-7.2,0-7.2-0.288-12.528
		c0.504-4.752,1.44-31.68,1.728-32.4c0.144-2.52,0.288-5.04,0.432-7.632c-0.144-7.56-0.288-15.192-0.432-22.8239
		c0.216-6.264,0.432-12.6,0.72-18.936c-0.288-1.728-0.288-1.728,0-10.368c0.072-0.288,0.216-0.576,0.36-0.936
		c0.576,1.656,0.576,1.656,1.08,6.48c0.144,5.76,0.288,11.52,0.432,17.28c-0.216,15.336-0.432,16.056-0.432,29.52
		c0.144,4.104,0.288,8.28,0.432,12.456c-0.288,0.648-0.576,1.296-0.936,1.944c0,3.816,0,7.632,0,11.52
		c0.288,2.952,0.576,5.904,0.936,8.856c-0.216,10.08,0,15.12-0.216,19.008c0.216,2.592,0.432,5.256,0.72,7.92
		c0,6.912,0.504,11.952,0.72,20.592c0.288,2.52,0.576,5.112,0.936,7.704c-0.288,7.704-0.5759,15.48-0.936,23.256
		c0.144,1.728,0.288,3.528,0.504,5.328c-0.288,2.16-0.288,2.16-0.504,13.68c0.936,8.856,0.936,11.736,1.656,19.152
		c0.072,11.376,0.144,22.752,0.288,34.128C267.408,457.416,266.976,457.488,266.544,457.56L266.544,457.56z M118.224,422.856
		c-1.944-0.216-1.944-0.216-2.304-0.576c0.36-4.464,0.72-8.928,1.152-13.464c1.728-10.8,1.728-10.8,2.16-11.52
		c0-4.032,0-4.032,0.504-7.632c1.656-6.984,1.656-6.984,2.16-7.704c0.432-2.808,0.936-5.616,1.44-8.424
		c1.944-5.256,1.944-5.256,2.88-9.072c0.936-7.2,1.224-7.704,2.16-13.464c0.144-0.288,0.288-0.576,0.504-0.936
		c6.336-0.576,12.672-1.224,19.08-1.872c3.6-0.072,7.2-0.144,10.8-0.216c3.6,0.144,7.2,0.288,10.8,0.504
		c0.216-0.144,0.432-0.2881,0.72-0.504c0-0.432,0-0.864,0.072-1.296c-1.224-0.432-2.448-0.864-3.672-1.368
		c-1.0081-0.144-2.016-0.288-3.096-0.432c-7.92,0.216-12.744,0.72-25.488,1.152c-7.2,1.0081-7.2,1.0081-8.28,0.864
		c0.072-1.008,0.144-2.016,0.216-3.096c1.584-6.12,3.168-12.312,4.824-18.504c0.864-2.448,1.728-4.896,2.664-7.416
		c0.144-0.7921,0.288-1.584,0.432-2.376c1.944-4.608,1.944-4.608,5.76-15.624c1.44-5.04,1.44-5.04,4.32-12.96
		c0.504-3.384,0.504-3.384,1.44-6.984c1.008-2.592,1.008-2.592,3.888-13.176c1.872-3.816,1.872-3.816,2.304-4.248
		c3.816,0.72,6.696,1.728,12.24,2.88c2.232,0.792,4.464,1.584,6.696,2.448c8.856,1.872,12.24,2.88,16.776,3.816
		c1.224,0.504,1.224,0.504,1.944,0.504c0.216-0.144,0.432-0.288,0.72-0.504c0-0.504,0-1.008,0.072-1.512
		c-0.504-0.288-1.008-0.576-1.512-0.864c-1.44-0.144-2.88-0.288-4.32-0.504c-20.376-5.76-20.376-5.76-29.304-8.64
		c-0.72-0.288-1.44-0.576-2.16-0.936c0-0.648-0.072-1.296-0.144-2.016c1.0081-3.6,1.0081-3.6,3.888-10.584
		c1.872-7.2,2.376-8.136,2.592-9.36c0.504-0.72,0.504-0.72,2.88-8.424c0.288-0.504,0.648-1.08,1.008-1.656
		c2.376-8.856,2.376-8.856,5.256-17.496c2.664-5.544,3.6-8.208,4.104-8.928c0.576-1.512,1.224-3.024,1.872-4.536
		c0.792-2.808,1.584-5.616,2.448-8.424c0.288-0.36,0.576-0.72,0.936-1.152c0.432-2.304,0.936-4.608,1.44-6.984
		c1.44-3.816,1.44-3.816,1.584-4.8239c1.8,0.144,3.672,0.36,5.544,0.576c2.16,1.008,2.16,1.008,13.896,4.824
		c3.672,0.936,7.344,1.872,11.016,2.88c2.016,0.216,4.032,0.4319,6.048,0.72c0.288-0.36,0.288-0.36,0.288-1.5121
		c-0.144-0.144-0.36-0.288-0.576-0.504c-7.632-1.8-10.296-2.808-19.1519-4.68c-11.088-3.888-11.088-3.888-16.1281-5.328
		c0-0.288-0.072-0.648-0.144-1.008c0.936-2.808,1.872-5.616,2.88-8.424c1.296-2.808,2.592-5.616,3.888-8.424
		c1.224-3.456,2.52-6.9839,3.816-10.512c2.88-6.48,4.824-9.864,6.696-14.4c0.648-2.376,1.296-4.7521,1.944-7.2
		c3.816-9.864,4.824-13.248,7.704-19.944c0.576-1.872,1.224-3.816,1.872-5.76c0.648-1.2241,1.296-2.5201,1.944-3.816
		c0.504,0,1.008-0.072,1.584-0.144c6.12,1.584,12.312,3.168,18.504,4.752c1.872,0.6481,3.816,1.296,5.76,1.9441
		c3.168,0.792,6.336,1.584,9.576,2.376c0.648-0.072,1.296-0.144,1.944-0.216c0-0.4321,0-0.8641,0.072-1.2961
		c-0.432-0.2879-0.864-0.5759-1.296-0.8639c-4.68-1.224-9.432-2.52-14.184-3.8161c-0.72-0.2879-1.44-0.6479-2.16-1.008
		c-3.816-0.864-7.632-1.7279-11.52-2.5919c-4.752-1.944-4.752-1.944-6.192-2.88c0-0.432-0.072-0.864-0.144-1.296
		c3.816-11.088,7.2-19.44,7.632-21.384c3.888-8.136,11.52-25.704,13.464-29.52c0.648-1.0081,1.296-2.0161,1.944-3.096
		c0.576-1.512,1.224-3.024,1.872-4.608c3.888-7.416,3.888-7.416,7.7039-15.5519c1.944-2.16,1.944-2.16,3.816-5.04
		c0.72-0.648,1.512-1.296,2.304-1.944c0.432-0.072,0.936-0.144,1.44-0.216c0.288,1.152,0.576,2.376,0.864,3.6
		c0.936,12.96,0.936,12.96,1.44,16.272c0.216,14.4001,0,20.6641,0.216,24.048c-0.216,0.2159-0.216,7.632-0.504,9.792
		c0.144,3.4561,0.288,6.912,0.504,10.368c-0.144,3.2399-0.288,6.4799-0.504,9.7919c0.144,5.4001,0.288,10.8721,0.504,16.3441
		c0.144,1.2239,0.288,2.52,0.504,3.816c0.072,3.2401,0.144,6.552,0.2161,9.864c0.144,0.792,0.288,1.584,0.504,2.376
		c0,13.248,0.216,16.3439,0,28.584c0.144,1.728,0.288,3.456,0.432,5.256c-0.216,11.52-0.432,12.96-0.432,28.584
		c-0.144,0.432-0.288,0.936-0.504,1.44c0.216,2.664,0.216,2.664-0.504,30.744c-0.216,1.728-0.432,3.456-0.72,5.256
		c-0.432,13.68-0.216,17.784-0.72,35.496c0,7.848,0,15.696,0,23.544c-0.144,0.288-0.288,0.576-0.432,0.936
		c0.216,3.6,0,12.528-0.288,14.688c0,3.8159,0,7.632,0,11.52c-0.36,5.256-0.72,10.512-1.152,15.84c0.216,7.2,0.216,7.2,0,14.832
		c-0.216,3.168-0.432,6.408-0.72,9.648c0.072,2.52,0.144,5.04,0.216,7.632c-0.144,4.608-0.288,9.288-0.504,13.968
		c-0.288,0.288-0.576,0.576-0.936,0.936c-0.072,0.72-0.144,1.44-0.216,2.16c0.36,0.144,0.72,0.288,1.08,0.432
		c0.072,0.504,0.216,1.008,0.36,1.512c0,16.992-0.288,19.656-0.504,33.336c-0.144,0.864-0.288,1.728-0.504,2.664
		c0,7.92-0.216,9.072-0.216,14.832c-0.072,0.288-0.216,0.576-0.36,0.864c-0.936,0.216-0.936,0.216-20.592,0.432
		c-2.016,0.216-4.032,0.432-6.048,0.72c-5.472,0-9.792,0.504-31.896,1.44c-0.936,0.288-19.656,1.008-32.904,1.224
		c-2.232,0.144-4.464,0.288-6.696,0.504c-6.264,0.072-12.6,0.144-18.936,0.216C122.04,422.856,122.04,422.856,118.224,422.856
		L118.224,422.856z M268.2,117.7199c0.072-1.6559,0.072-1.6559,0.432-1.944c0.072,0.072,0.216,0.144,0.36,0.2881
		c-0.072,0.4319-0.144,0.936-0.216,1.4399C268.632,117.576,268.416,117.648,268.2,117.7199L268.2,117.7199z M268.416,114.552
		c-0.144-1.008-0.288-2.0161-0.432-3.096c0.216,0.072,0.504,0.1439,0.792,0.288c0.144,0.432,0.288,0.936,0.504,1.44
		c-0.144,0.4319-0.288,0.936-0.504,1.44C268.704,114.624,268.56,114.624,268.416,114.552L268.416,114.552z"/>
</g>
</svg>
