<?xml version="1.0" encoding="utf-8"?>
<!-- Generator: Adobe Illustrator 21.1.0, SVG Export Plug-In . SVG Version: 6.00 Build 0)  -->
<svg version="1.1" id="Sa" xmlns="http://www.w3.org/2000/svg" xmlns:xlink="http://www.w3.org/1999/xlink" x="0px" y="0px"
	 viewBox="0 0 440.136 594" enable-background="new 0 0 440.136 594" xml:space="preserve">
<g>
	<path fill-rule="evenodd" clip-rule="evenodd" d="M280.224,594c-3.024-0.936-6.048-1.8721-9.144-2.88
		c-1.368-0.144-2.736-0.288-4.1039-0.504c-2.0161,0-4.104,0-6.192,0c-2.016-0.288-4.032-0.576-6.048-0.936
		c-2.304-0.6479-4.608-1.296-6.912-1.944c-1.152-0.576-2.376-1.224-3.6-1.872c-1.8-1.296-3.672-2.592-5.544-3.888
		c-4.536-2.52-9.072-5.04-13.68-7.632c-4.32-1.944-4.32-1.944-11.52-5.76c-3.024-1.296-6.048-2.592-9.144-3.8881
		c-7.2-1.8719-7.2-1.8719-8.136-2.376c-9.36-1.656-9.36-1.656-9.576-1.944c-1.584,0-3.168,0.072-4.824,0.144
		c0,0.288-0.072,0.648-0.144,1.008c4.32,4.176,8.64,8.4241,12.96,12.672c0.504,1.008,0.504,1.008,0.72,3.6
		c-0.36,0.36-0.36,0.36-1.512,0.36c-1.728-1.584-1.728-1.584-6.264-6.696c-2.376-2.232-4.752-4.464-7.2-6.7681
		c-1.944-0.5759-3.96-1.2239-5.976-1.8719c-1.656-0.936-3.312-1.8719-5.04-2.88c-0.288-0.504-0.576-1.0081-0.864-1.584
		c-3.168-0.864-6.336-1.8-9.504-2.736c-2.232-1.008-4.464-2.088-6.696-3.168c-0.72,0.144-0.72,0.144-1.944,1.368
		c0,0.216-0.072,0.432-0.144,0.72c1.008,1.944,1.008,1.944,1.728,4.104c0,0.432,0,0.936,0,1.44
		c-0.288,0.432-0.576,0.8641-0.864,1.296c-0.504,0-1.08,0-1.656,0c-1.224-1.368-1.224-1.368-2.16-3.168
		c-3.816-4.032-3.816-4.032-8.136-7.92c-1.8-1.224-3.672-2.52-5.544-3.816c-2.808-1.224-5.616-2.52-8.424-3.816
		c-3.672-1.296-7.344-2.592-11.016-3.8879c-1.224-0.936-1.224-0.936-2.376-1.4401c-4.536-0.936-9.072-1.8719-13.68-2.88
		c-1.728-0.576-3.528-1.224-5.328-1.8719c-0.144-0.144-0.288-0.288-0.432-0.504c-8.64-1.44-8.64-1.44-10.08-1.944
		c-0.288-0.504-0.648-1.0081-1.008-1.512c-0.144-1.224-0.144-1.224,0.36-2.88c0.36-0.36,0.36-0.36,1.8-0.864
		c3.816,0.504,7.632,1.08,11.52,1.656c6.84,1.872,13.752,3.816,20.664,5.76c5.544,1.944,5.544,1.944,7.704,2.304
		c0.36-1.152,0.72-2.304,1.152-3.456c0.432,0,0.936,0,1.44,0c2.304,1.224,4.608,2.52,6.984,3.816
		c2.664,1.944,2.664,1.944,11.736,7.704c8.208,3.816,11.808,5.76,16.128,7.632c1.872,0.648,3.816,1.296,5.76,1.944
		c5.472,0.936,5.472,0.936,11.736,1.6559c0.864,0,1.728,0,2.6639,0c1.656,1.008,1.656,1.008,2.592,2.16
		c2.88,0.2881,5.76,0.6481,8.64,1.0081c4.896,1.224,9.792,2.52,14.688,3.816c2.88,1.2239,5.76,2.52,8.64,3.8159
		c3.312,1.9441,3.312,1.9441,11.736,5.76c6.696,3.8881,10.584,5.76,17.784,10.08c2.736,0.432,5.544,0.936,8.352,1.44
		c5.76,0.072,11.5201,0.144,17.28,0.288c1.296-0.144,2.592-0.288,3.888-0.504c4.32-1.9441,4.32-1.9441,6.696-2.6641
		c0.72,0,1.44,0,2.16,0c1.44-0.936,1.44-0.936,6.48-2.88c1.224-0.792,2.52-1.656,3.816-2.52c-0.7919-0.36-1.584-0.72-2.376-1.08
		c-12.96-3.816-12.96-3.816-34.344-9.576c-3.96-1.2241-7.92-2.52-11.952-3.816c-9.36-2.52-18.72-5.112-28.08-7.704
		c-4.392-0.648-8.784-1.296-13.248-1.944c-3.672-0.144-7.344-0.288-11.016-0.4319c-0.288,0.144-0.576,0.288-0.936,0.4319
		c-0.936-0.072-1.872-0.144-2.88-0.2159c-12.528-7.2-12.96-7.704-19.944-11.52c-2.376-1.944-5.544-3.816-13.896-10.08
		c-1.008-0.648-2.088-1.296-3.168-1.944c-2.376-1.872-4.752-3.816-7.2-5.76c-0.72,0-1.44,0-2.16,0
		c-5.976-3.816-5.976-3.816-7.92-4.752c-5.472-1.728-11.016-3.528-16.56-5.328c-2.592-0.432-2.592-0.432-9.792-2.376
		c-4.536-0.792-9.072-1.584-13.68-2.376c-2.592,0.072-5.256,0.144-7.92,0.216c-2.088,0.432-4.176,0.936-6.264,1.44
		c-6.984,0.216-6.984,0.216-19.224-0.216c-3.96-0.432-7.92-0.936-11.952-1.44c-1.296,0-2.664,0.072-4.032,0.144
		c0,1.44,0.288,1.872,0.504,4.752c-0.144,0.432-0.288,0.936-0.504,1.44c-0.432,0.288-0.864,0.576-1.296,0.864
		c-0.936,0-1.872,0-2.88,0c-1.872-0.648-3.816-1.296-5.76-1.944c-3.816-1.944-5.04-2.88-19.872-10.584
		c-4.32-1.872-4.32-1.872-9.864-3.816c-1.08-0.648-2.232-1.296-3.384-1.944c-0.576-1.008-1.152-2.088-1.8-3.168
		c-0.072-0.864-0.144-1.728-0.216-2.664c0.288-0.36,0.576-0.792,0.936-1.224c1.08-0.36,2.304-1.296,4.464-2.304
		c2.88-0.936,5.76-1.872,8.64-2.88c3.24-0.432,6.552-0.936,9.864-1.44c2.16-0.144,4.32-0.288,6.48-0.432
		c2.232,0.072,4.464,0.144,6.696,0.216c24.264,2.376,26.64,2.88,37.944,3.816c11.376,1.872,22.824,3.816,34.272,5.76
		c8.64,3.888,8.64,3.888,9.144,3.888c0.144-0.216,0.288-0.432,0.504-0.648c-0.216-0.648-0.432-1.368-0.648-2.088
		c0.288-0.936,0.576-1.872,0.864-2.808c4.536-0.288,9.072-0.576,13.68-0.936c5.976,0.216,5.976,0.216,16.056,0
		c1.008-0.288,1.008-0.288,1.224-0.648c-1.224-1.08-1.224-1.08-4.536-2.952c-2.376-0.936-4.752-1.872-7.2-2.88
		c-3.24-1.872-6.552-3.816-9.864-5.76c-2.808-1.296-5.616-2.592-8.424-3.888c-4.32-3.168-8.64-6.336-12.96-9.576
		c-2.592-3.024-5.256-6.12-7.92-9.216c-1.872-2.52-3.816-5.112-5.76-7.704c-0.576-1.224-1.152-2.52-1.8-3.816
		c-0.648-2.448-1.296-4.896-1.944-7.416c-0.288-2.088-0.576-4.176-0.936-6.264c-0.144-3.24-0.288-6.552-0.504-9.864
		c0.792-3.24,1.584-6.48,2.448-9.792c0.144-1.4399,0.288-2.8799,0.432-4.3199c0.648-1.584,1.296-3.168,1.944-4.824
		c0.936-1.224,0.936-1.224,2.88-5.04c2.88-3.384,3.6-3.816,4.536-5.04c3.384-2.88,3.384-2.88,4.968-3.744
		c3.096-0.216,3.6,0,10.584,0.216c0-0.504,0-1.008,0.072-1.512c-6.696-16.776-8.64-20.664-10.584-25.416
		c-3.168-11.448-6.336-22.896-9.576-34.344c-1.944-8.424-1.944-8.424-3.816-19.44c-1.08-4.752-2.232-9.576-3.384-14.4
		c-0.648-5.184-1.296-10.368-1.944-15.624c-0.936-22.536-0.936-22.536-1.152-39.096c0.144-3.816,0.288-7.632,0.432-11.52
		c0.648-5.688,1.296-11.376,1.944-17.064c1.224-8.136,2.52-16.272,3.816-24.48c5.76-20.88,6.768-23.472,7.2-25.92
		c3.168-8.3521,6.408-16.7761,9.648-25.2c3.816-7.6321,3.816-7.6321,7.632-14.112c3.888-9.144,3.888-9.144,5.76-12.528
		c1.872-2.52,3.816-5.04,5.76-7.632c4.68-4.896,9.432-9.7921,14.184-14.688c1.8-1.08,3.672-2.16,5.544-3.312
		c0.288-0.576,0.576-1.152,0.936-1.728c0.288-0.072,0.576-0.2159,0.864-0.3599c1.872,0,3.816,0,5.76,0
		c8.208,0.936,16.416,1.8719,24.696,2.8799c20.88,0.936,25.704,1.44,32.688,1.6559c31.392,0,31.392,0,34.056,0.2881
		c0.144-0.36,0.36-0.72,0.576-1.08c0.144-2.952,0.288-5.904,0.504-8.856c1.872-11.0881,3.816-26.208,5.76-37.944
		c1.224-5.9041,2.52-11.808,3.816-17.7841c2.8799-9.5759,2.8799-9.5759,3.816-11.52c1.944-2.16,1.944-2.16,3.312-3.024
		C267.696,0,267.696,0,268.92,0c0.72,0.648,1.44,1.296,2.16,1.944c0.216,0.648,0.504,1.296,0.7921,2.016
		c0.072,0.936,0.144,1.872,0.288,2.88c-0.216,1.728-0.432,3.528-0.72,5.3279c-0.504,23.76-0.504,23.76-0.288,31.6801
		c-0.2159,30.24-0.2159,30.24,0,36.936c1.2241,0,2.4481,0,3.744,0.0719c1.44-0.2159,2.88-0.4319,4.32-0.7199
		c6.984,0.288,16.56,0.288,47.304,1.2239c2.16,0.2881,4.32,0.576,6.48,0.936c5.832,0.288,11.664,0.648,17.496,1.0079
		c4.752,0,9.576,0,14.4,0c13.248,0.936,13.248,0.936,17.28,1.44c21.6,0.936,21.6,0.936,41.328,1.44
		c2.88-0.2879,7.632-0.2879,11.0161-0.7199c0.36,0.288,0.792,0.576,1.224,0.936c1.152,0,2.376,0,3.5999,0
		c0.7921,2.088,0.7921,2.088,0.7921,3.24c-0.36,0.36-0.72,0.792-1.08,1.224c-13.104,2.16-26.2079,4.3199-39.312,6.552
		c-19.224,3.8879-19.224,3.8879-26.9279,5.76c-8.7841,2.8799-17.5681,5.7599-26.3521,8.64c-3.024,1.296-6.048,2.592-9.144,3.888
		c-11.0161,3.816-11.0161,3.816-14.904,4.752c-6.696,2.52-13.392,5.112-20.16,7.704c-3.816,1.944-6.696,3.816-10.8,5.76
		c-5.472,3.8159-17.712,11.52-24.696,16.344c-0.072,4.68-0.216,9.3599-0.36,14.0399c0.432,3.816,0.432,3.816,0.72,18
		c-0.216,1.3681-0.432,2.7361-0.72,4.1041c0.144,1.296,0.288,2.664,0.432,4.032c-0.072,9.72-0.144,19.512-0.216,29.304
		c-0.288,7.416-0.5759,14.832-0.936,22.32c0,13.68,0.432,27.576,0.216,28.8c-0.072,5.544-0.144,11.16-0.216,16.776
		c-0.36,7.776-0.792,15.552-1.224,23.328c-0.936,8.136-0.936,8.136-1.944,23.76c-0.936,23.976-0.936,23.976-1.656,34.992
		c0,5.976,0,11.952,0,18c0.216,3.744,0.432,7.488,0.72,11.304c-0.216,4.104-0.216,4.104-0.576,4.68
		c-1.512,0.576-3.024,1.224-4.536,1.872c-3.888,3.024-7.848,6.048-11.808,9.144c-5.112,5.544-10.224,11.16-15.336,16.776
		c-3.816,5.04-3.816,5.04-7.704,9.36c-2.52,3.528-5.04,7.128-7.632,10.728c-7.704,11.952-7.704,11.952-13.464,20.016
		c-2.16,4.32-4.392,8.712-6.624,13.104c0,0.216,0.072,0.504,0.144,0.792c7.92-0.216,7.92-0.216,27.144-1.656
		c7.416,0,7.416,0,14.4-0.504c0.72,0.504,2.88,1.008,4.752,2.088c0.504,0.792,0.504,0.792,0.576,1.656
		c-3.816,4.608-3.816,4.608-11.52,14.904c-2.376,3.384-4.752,6.84-7.2,10.296c-0.072,0.36-0.144,0.792-0.216,1.224
		c2.592,0.216,5.184,0.504,7.848,0.792c2.016,0.432,4.104,0.936,6.192,1.44c3.024,0.288,6.048,0.648,9.144,1.008
		c17.064,3.816,17.064,3.816,32.4,7.632c14.616,2.088,29.232,4.176,43.92,6.264c3.6719,0.072,7.344,0.144,11.0159,0.216
		c6.624-0.576,13.248-1.224,19.944-1.872c1.8-0.288,3.672-0.648,5.544-1.008c3.672-1.08,7.344-2.16,11.016-3.312
		c3.528-1.584,7.056-3.168,10.584-4.824c2.592-1.944,2.592-1.944,5.76-3.816c7.2-5.76,7.632-6.48,10.296-8.424
		c7.704-10.44,7.704-10.44,11.5201-16.344c1.3679-1.584,2.736-3.168,4.1039-4.752c1.872-3.24,3.744-6.48,5.616-9.72
		c0.936-4.536,0.936-4.536,1.8-7.128c0.936,0,0.936,0,1.944,0.504c0.432,1.08,0.864,2.16,1.296,3.24c0,0.864,0,1.728,0,2.664
		c-1.008,3.384-1.008,3.384-2.8799,7.416c-3.888,6.48-3.888,6.48-7.2,11.304c-0.432,1.656-0.936,3.312-1.44,5.04
		c-3.168,4.752-6.408,9.576-9.6481,14.4c-0.576,0.72-1.224,1.4399-1.8719,2.16c-1.728,1.224-3.456,2.52-5.184,3.816
		c-1.368,1.296-2.736,2.592-4.176,3.888c-1.8719,1.224-3.744,2.52-5.688,3.816c-2.52,1.224-5.04,2.448-7.632,3.672
		c-4.752,1.8721-9.576,3.816-14.4,5.76c-3.6,1.0081-3.6,1.0081-21.384,4.4641c0,0.216-0.072,0.4319-0.144,0.72
		c-0.72,0.504-0.72,0.504-3.8879,1.08c-26.4241,0.72-26.4241,0.72-38.88,0.72c-6.12-0.6479-12.312-1.296-18.504-1.944
		c-22.536-3.816-22.536-3.816-36.504-5.76c-6.12-0.576-12.24-1.224-18.432-1.872c-12.744-0.72-12.744-0.72-13.68-0.576
		c0.072,0.432,0.144,0.936,0.288,1.44c0.648,0.72,1.296,1.44,1.944,2.16c0.864,0.576,1.8,1.224,2.736,1.872
		c2.52,1.224,5.112,2.448,7.704,3.744c5.04,1.872,5.04,1.872,12.024,3.816c8.856,1.944,8.856,1.944,15.1201,2.88
		c15.624,3.816,15.624,3.816,33.12,7.704c5.976,0.792,11.952,1.584,18,2.376c1.8,0.072,3.672,0.144,5.5439,0.216
		c1.872,0.288,3.816,0.6479,5.7601,1.008c4.104-0.072,8.28-0.144,12.4559-0.288c1.584-0.288,3.168-0.576,4.824-0.936
		c1.8-0.648,3.6-1.296,5.472-1.944c0.864-0.432,1.728-0.936,2.664-1.44c1.44,0,1.44,0,2.16,0.432c0,0.72-0.072,1.44-0.144,2.16
		c-0.288,0.7921-0.5759,1.5841-0.936,2.376c-0.864,0.576-1.8,1.152-2.736,1.8c-1.656,0.576-3.312,1.224-5.04,1.872
		c-1.512,0.288-3.024,0.648-4.608,1.008c-2.736,0.288-5.5439,0.576-8.3519,0.864c-0.072,0.288-0.144,0.6479-0.288,1.008
		c-3.816,0.504-3.816,0.504-5.04,1.008c-0.864,0.864-0.864,0.864-1.296,1.8c0,0.2159,0,0.4319,0.072,0.72
		c5.3281,1.512,10.728,3.096,16.128,4.68c4.536,0.936,9.072,1.872,13.6801,2.88c6.048,0.792,12.0959,1.584,18.2159,2.376
		c8.2081,0,16.488,0,24.768,0c1.872-0.144,3.816-0.2881,5.7601-0.504c3.312,0.288,3.312,0.288,3.6719,0.6479
		c-0.216,2.16-0.216,2.16-0.72,3.816c-0.576,0.72-0.576,0.72-2.016,1.296c-1.8,0.144-3.672,0.288-5.544,0.504
		c-11.952-0.216-11.952-0.216-21.312,0c-3.24-0.216-6.552-0.432-9.864-0.72c-13.176-1.944-13.176-1.944-23.256-3.816
		c-5.76-1.584-11.52-3.1681-17.28-4.824c-1.296,0-2.592,0-3.8881,0c-3.168-0.936-6.336-1.872-9.5759-2.88
		c-0.8641-0.072-1.728-0.216-2.664-0.36c-0.288,0.72-0.576,1.44-0.864,2.16c-1.008,0.864-5.1121,2.736-6.7681,3.744
		c-1.728,0.576-3.528,1.224-5.3279,1.872c-1.44,0.936-2.88,1.872-4.32,2.8799c-0.36,0.6481-0.36,0.6481-0.36,2.088
		c0.576,0.432,1.152,0.936,1.8,1.4401c0.288,0.504,0.576,1.08,0.864,1.656c0.072,0.6479,0.144,1.296,0.216,1.944
		c-0.216,0.36-0.504,0.72-0.7919,1.152C281.664,593.856,280.944,593.928,280.224,594L280.224,594z M190.944,533.448
		c-0.144-4.104,0.288-10.8,0.216-30.168c7.2-0.216,14.4-0.432,21.6-0.72c0.072,0.072,0.144,0.216,0.216,0.36
		c-0.576,1.152-1.224,2.304-1.872,3.456c-5.112,7.272-10.224,14.616-15.408,21.96c-1.296,1.656-2.664,3.312-4.032,4.968
		C191.448,533.304,191.232,533.376,190.944,533.448L190.944,533.448z M167.184,522c-3.168-2.52-6.408-5.1121-9.648-7.704
		c-4.032-3.816-8.64-7.632-10.296-9.36c-0.072-0.288-0.144-0.648-0.216-1.008c6.48,0,12.96-0.072,19.44-0.144
		c0.144,0.36,0.36,0.72,0.576,1.08c0.432,9.576,0.72,11.52,0.72,17.064C167.4,522.144,167.4,522.144,167.184,522L167.184,522z
		 M182.304,483.048c0.0721-1.512,0.144-3.024,0.2881-4.608c1.944-9.792,1.944-9.792,3.384-15.552c0.072-1.152,0.144-2.376,0.216-3.6
		c-0.216-0.216-0.432-0.432-0.72-0.72c0.216-1.872,0.432-3.816,0.72-5.76c0.432-1.8,0.936-3.672,1.44-5.544
		c2.664-1.944,5.184-3.24,6.408-4.248c2.16-0.936,2.16-0.936,13.68-7.632c0.36,0,0.792-0.072,1.224-0.144
		c-0.864,2.16-0.864,2.16-4.752,8.64c-2.52,5.256-5.04,10.512-7.632,15.84c-2.232,3.816-4.464,7.632-6.768,11.52
		c-0.576,1.8-1.224,3.672-1.872,5.544c-0.936,1.872-1.872,3.816-2.88,5.76C184.176,482.688,183.24,482.832,182.304,483.048
		L182.304,483.048z M160.704,480.456c-1.512-1.224-3.024-2.52-4.608-3.816c-1.872-1.944-3.816-3.96-5.76-5.976
		c-3.744-5.184-7.56-10.44-11.376-15.696c-0.72-8.424-0.72-8.424-0.72-12.24c0.576-0.504,0.576-0.504,3.024-1.368
		c0.36,0,0.72,0,1.152,0c3.888,6.84,11.376,21.528,13.32,24.84c1.224,1.8,2.52,3.672,3.816,5.544
		c1.944,3.816,1.944,3.816,2.88,6.264c0.072,0.504,0.144,1.08,0.288,1.656C161.424,480.456,161.424,480.456,160.704,480.456
		L160.704,480.456z M145.296,479.016c-0.792-0.288-1.584-0.576-2.376-0.936c-0.072-1.08-0.216-2.16-0.36-3.24
		c-0.288-0.936-0.648-1.872-1.008-2.88c0-1.08,0.072-2.16,0.144-3.312c0.216,0,0.432,0,0.72,0.072c1.872,2.52,3.744,5.04,5.616,7.56
		c0,0.288,0,0.648,0,1.008c-0.504,0.504-1.08,1.08-1.656,1.656C146.016,478.944,145.656,478.944,145.296,479.016L145.296,479.016z
		 M136.224,474.264c-6.768-3.888-6.768-3.888-10.584-5.616c0-0.432-0.072-0.936-0.144-1.44c2.088-1.872,4.176-3.816,6.264-5.76
		c0.36,0,0.72-0.072,1.08-0.144c1.8,3.456,1.8,3.456,2.736,6.336c0.936,4.32,0.936,4.32,1.656,6.48
		C136.944,474.12,136.584,474.192,136.224,474.264L136.224,474.264z M176.04,467.2079c-0.936-4.248-1.872-8.496-2.808-12.744
		c-0.432-3.168-0.936-6.336-1.44-9.576c-0.432-7.92-0.936-11.808-2.16-31.968c4.32-1.512,8.712-3.096,13.104-4.68
		c1.584-0.216,3.168-0.504,4.824-0.792c-0.072,1.44-0.216,2.88-0.36,4.32c-0.648,2.88-1.296,5.76-1.944,8.64
		c-0.216,5.0399-0.216,5.0399-0.72,7.2c-0.288,2.592-0.576,5.256-0.936,7.92c-5.76,27.576-5.76,27.576-6.768,30.96
		C176.616,466.704,176.328,466.92,176.04,467.2079L176.04,467.2079z M120.6,463.1039c-0.576-1.44-1.152-2.88-1.8-4.32
		c-0.576-0.648-1.152-1.296-1.8-1.944c0-0.36-0.072-0.72-0.144-1.152c0.648-0.72,1.296-1.44,1.944-2.16
		c1.872-1.368,3.744-2.808,5.616-4.248c0.288,0.072,0.648,0.144,1.008,0.216c1.296,1.872,2.664,3.744,4.032,5.688
		c-1.224,1.368-2.52,2.736-3.816,4.176c-1.512,1.224-3.024,2.52-4.536,3.816C120.96,463.176,120.816,463.176,120.6,463.1039
		L120.6,463.1039z M108.144,455.256c-2.16-2.736-4.392-5.472-6.624-8.208c0-0.216-0.072-0.432-0.144-0.72
		c1.008-0.288,2.088-0.576,3.168-0.864c0.36-0.288,0.72-0.648,1.152-1.008c0.216,0,0.432,0,0.72,0c0.576,1.08,1.152,2.16,1.8,3.312
		c0.36,1.512,0.792,3.024,1.224,4.536c0,0.792,0,1.584,0,2.376C108.936,455.184,108.936,455.184,108.144,455.256L108.144,455.256z
		 M160.416,451.44c-3.744-7.056-3.744-7.056-7.56-15.48c-0.936-2.52-1.872-5.04-2.88-7.632c0.072-0.288,0.144-0.648,0.216-1.008
		c2.088-1.872,4.176-3.816,6.264-5.76c0.36,0,0.72-0.072,1.08-0.144c0.864,3.744,0.864,3.744,1.8,9.792
		c1.224,13.392,1.224,13.392,1.44,20.16C160.704,451.368,160.56,451.368,160.416,451.44L160.416,451.44z M133.056,450.504
		c-0.864-1.224-1.8-2.448-2.736-3.744c0-0.288,0-0.576,0.072-0.936c0.72-0.432,1.44-0.864,2.232-1.368c0.36,0,0.72,0,1.152-0.072
		c0,1.944-0.072,3.96-0.144,5.976C133.272,450.6479,133.272,450.6479,133.056,450.504L133.056,450.504z M114.12,448.704
		c-1.8-4.824-1.8-4.824-2.808-6.696c0-0.576,0-1.152,0-1.728c2.088-1.584,4.248-3.168,6.408-4.752c0.36,0,0.792,0,1.224-0.072
		c0.864,2.088,1.8,4.176,2.736,6.264c0.072,0.648,0.144,1.296,0.216,1.944c-2.304,1.656-4.68,3.384-7.056,5.112
		C114.624,448.776,114.408,448.776,114.12,448.704L114.12,448.704z M99.216,443.52c-0.576-0.936-1.152-1.944-1.8-2.952
		c-1.224-4.608-1.224-4.608-1.224-5.76c0.504-0.288,1.008-0.576,1.584-0.864c0.792-0.792,1.584-1.584,2.448-2.448
		c0.216,0,0.432,0,0.72,0c0.864,1.656,1.8,3.312,2.736,4.968c0.072,0.648,0.144,1.296,0.216,1.944
		c-2.376,1.872-2.376,1.872-4.104,3.816c-0.072,0.36-0.144,0.792-0.216,1.224C99.504,443.4479,99.36,443.4479,99.216,443.52
		L99.216,443.52z M127.08,440.424c-1.152-2.592-2.304-5.184-3.528-7.776c0-0.288,0-0.648,0-1.008c1.872-1.224,3.816-2.52,5.76-3.816
		c0.432,0,0.864,0,1.368,0c0.576,1.224,1.152,2.52,1.8,3.816c0.216,0.936,0.432,1.872,0.72,2.88c0,1.368,0,2.736,0,4.104
		c-1.512,0.576-3.096,1.152-4.68,1.8C128.088,440.424,127.584,440.424,127.08,440.424L127.08,440.424z M191.88,437.904
		c0.072-2.664,0.576-4.824,1.512-12.24c0.432-1.8,0.936-3.672,1.44-5.544c17.28-11.52,17.28-11.52,23.688-15.336
		c30.2401-15.768,30.2401-15.768,31.6801-16.2c0.36,0,0.72,0.072,1.08,0.144c-0.144,4.176-0.288,8.424-0.504,12.672
		c-4.392,2.52-8.784,5.112-13.176,7.704c-11.16,7.704-14.328,9.576-25.56,17.28C205.056,430.2,192.6,437.7599,191.88,437.904
		L191.88,437.904z M108.576,434.304c-1.08-2.088-2.16-4.176-3.24-6.264c0-0.216,0-0.432,0-0.72c2.016-1.512,4.032-3.096,6.12-4.68
		c0.216,0,0.432,0,0.72,0c1.08,1.944,2.232,3.888,3.384,5.904c0,0.36,0,0.792,0.072,1.224c-2.088,1.512-4.176,3.024-6.336,4.608
		C109.08,434.376,108.864,434.376,108.576,434.304L108.576,434.304z M137.376,430.0559c-0.576-1.368-1.152-2.736-1.8-4.176
		c-0.072-0.504-0.144-1.08-0.216-1.656c1.944-1.368,3.888-2.808,5.904-4.248c0.288,0,0.576,0.072,0.936,0.144
		c0.432,1.44,0.864,2.88,1.296,4.32c-0.072,0.288-0.144,0.648-0.216,1.008c-1.728,1.512-3.456,3.024-5.184,4.608
		C137.88,430.0559,137.664,430.0559,137.376,430.0559L137.376,430.0559z M94.896,427.176c-0.36-2.448-0.36-2.448-0.216-4.752
		c0.216,0,0.432,0,0.72,0.072c0.432,0.72,0.864,1.44,1.296,2.232c0.072,0.504,0.144,1.08,0.216,1.656
		c-0.288,0.216-0.648,0.504-1.008,0.792C95.616,427.176,95.256,427.176,94.896,427.176L94.896,427.176z M120.6,426.024
		c-0.936-1.368-1.872-2.736-2.808-4.176c-0.936-2.448-0.936-2.448-0.936-3.168c2.52-1.872,2.52-1.872,6.624-4.32
		c0.36,0,0.792,0,1.224,0c2.736,5.04,2.736,5.04,3.168,6.264c0,0.36,0,0.792,0,1.224c-1.944,1.224-3.888,2.52-5.832,3.816
		C121.608,425.736,121.104,425.88,120.6,426.024L120.6,426.024z M101.664,422.136c-1.584-2.232-3.168-4.4641-4.752-6.768
		c0-0.288,0.072-0.576,0.144-0.864C98.28,414,98.28,414,104.76,409.68c0.288,0,0.576,0,0.936,0c1.08,2.16,2.16,4.392,3.24,6.624
		c0,0.288,0,0.576,0,0.936c-2.16,1.584-4.32,3.168-6.48,4.824C102.24,422.064,101.952,422.064,101.664,422.136L101.664,422.136z
		 M148.176,420.264c-0.36-0.36-0.36-0.36-1.08-3.744c3.456-1.872,6.912-3.744,10.44-5.616c1.08-0.2881,2.232-0.648,3.384-1.008
		c0.288,0,0.576,0.072,0.936,0.144c-5.472,3.744-5.472,3.744-10.296,7.704c-0.864,0.792-1.728,1.656-2.664,2.52
		C148.68,420.264,148.464,420.264,148.176,420.264L148.176,420.264z M132.624,418.32c-0.432-0.36-0.432-0.36-3.744-6.84
		c0-0.216,0-0.432,0-0.72c2.52-1.872,2.52-1.872,5.832-3.816c0.36,0,0.792-0.072,1.224-0.144c1.08,2.16,2.16,4.392,3.24,6.624
		c0,0.288,0,0.576,0,0.936c-1.8,1.296-3.6,2.592-5.4,3.888C133.416,418.248,133.056,418.248,132.624,418.32L132.624,418.32z
		 M113.616,413.4959c-1.152-2.016-2.304-4.032-3.456-6.048c0-0.4319,0-0.936,0-1.4399c2.52-1.728,5.04-3.528,7.56-5.328
		c0.36,0,0.792-0.072,1.224-0.144c1.728,4.752,2.736,6.624,2.952,8.064c-2.52,1.944-2.52,1.944-7.344,4.824
		C114.264,413.424,113.976,413.424,113.616,413.4959L113.616,413.4959z M144.36,411.3359c-1.224-2.232-2.448-4.464-3.744-6.7679
		c0-0.288,0-0.648,0-1.008c3.24-1.872,6.48-3.816,9.72-5.76c0.648,0,1.296-0.072,1.944-0.144c0.72,0.144,1.44,0.288,2.16,0.504
		c0.072,0.288,0.216,0.576,0.36,0.864c-0.576,1.008-1.152,2.016-1.728,3.096c0,1.584,0,3.168,0,4.824
		c-2.52,1.44-5.04,2.88-7.56,4.32C145.152,411.264,144.792,411.264,144.36,411.3359L144.36,411.3359z M197.136,410.5439
		c0.072-1.368,0.216-2.736,0.36-4.104c0.936-3.96,1.872-7.92,2.88-11.952c8.64-5.832,17.28-11.664,25.92-17.568
		c5.328-3.168,10.656-6.336,15.984-9.504c2.592-0.936,5.256-1.872,7.92-2.88c0.432,0,0.936,0,1.4399-0.072
		c-0.072,5.688-0.216,11.3759-0.36,17.064c-1.512,0.576-3.096,1.152-4.68,1.728c-9.72,5.112-19.512,10.224-29.304,15.408
		c-15.552,9.576-17.496,10.512-18.72,11.52C198.144,410.256,197.64,410.4,197.136,410.5439L197.136,410.5439z M97.344,407.16
		c0.072-0.792,0.144-1.584,0.288-2.376c0.72-1.296,1.512-2.592,2.304-3.96c0.288,0,0.648,0,1.008,0c0.936,1.8,0.936,1.8,1.296,3.24
		c-1.296,0.936-2.592,1.872-3.96,2.88C97.992,407.016,97.704,407.088,97.344,407.16L97.344,407.16z M126.144,405.144
		c-0.432-0.36-0.432-0.36-2.808-5.904c-0.072-0.576-0.144-1.224-0.216-1.872c1.8-1.44,3.6-2.88,5.4-4.32
		c0.936-0.144,0.936-0.144,2.16,0.216c2.016,5.76,2.016,5.76,2.52,8.136c-2.808,1.944-2.808,1.944-6.12,3.744
		C126.792,405.144,126.504,405.144,126.144,405.144L126.144,405.144z M159.264,404.856c0-0.216-0.072-0.504-0.144-0.792
		c0.936-3.096,0.936-3.096,1.296-3.6c0.288,0,0.648-0.072,1.008-0.144c0.864,0.792,1.728,1.656,2.592,2.52
		c0,0.2881,0.072,0.648,0.144,1.0081C161.136,404.64,161.136,404.64,159.264,404.856L159.264,404.856z M106.704,400.824
		c-0.72-1.296-1.512-2.592-2.304-3.96c0.072-0.648,0.144-1.296,0.216-1.944c1.224-1.44,2.52-2.88,3.816-4.32
		c0.864-0.144,3.312,0.36,7.488,0.72c0.432,2.16,0.432,2.16,0.432,3.6C106.92,400.968,106.92,400.968,106.704,400.824
		L106.704,400.824z M185.904,400.536c-6.264-1.152-9.864-2.16-12.528-2.592c-1.44-0.504-1.44-0.504-1.8-0.864
		c-0.504-1.656-0.504-1.656-1.224-6.912c-0.216-4.032-0.432-8.136-0.72-12.24c0.216-10.8,0.432-21.6,0.72-32.4
		c0.288-3.888,0.648-7.848,1.008-11.808c1.224-8.856,2.52-17.712,3.816-26.64c2.88-15.12,2.88-15.12,3.816-18.72
		c0.288-0.864,0.648-1.728,1.008-2.592c1.224-5.328,2.52-10.728,3.816-16.128c1.224-4.32,2.52-8.64,3.816-12.96
		c1.872-5.256,3.816-10.5121,5.76-15.84c2.52-5.328,5.112-10.656,7.704-16.056c1.224-2.232,2.52-4.464,3.816-6.696
		c11.52-17.064,13.968-20.16,14.4-21.168c2.52-3.24,5.112-6.48,7.7039-9.792c0.288-0.072,0.576-0.144,0.864-0.288
		c-1.8,9.144-1.8,9.144-3.744,17.064c-1.944,6.4799-1.944,6.4799-3.816,14.616c-6.768,39.168-7.2,43.488-9.144,53.064
		c-0.936,6.48-0.936,6.48-1.944,11.304c-0.576,5.328-1.224,10.656-1.872,16.056c-0.648,3.168-1.296,6.336-1.944,9.576
		c-3.816,26.208-3.816,26.208-5.76,36.72c-1.944,6.984-1.944,6.984-3.816,15.12c-6.768,38.88-6.768,38.88-7.2,40.104
		C187.776,400.464,186.84,400.464,185.904,400.536L185.904,400.536z M137.88,398.16c-0.288-0.504-0.576-1.008-0.864-1.512
		c-0.072-0.648-0.216-1.296-0.36-1.944c5.328,1.08,5.328,1.08,5.544,1.44c-0.504,0.576-0.504,0.576-3.384,2.016
		C138.528,398.16,138.24,398.16,137.88,398.16L137.88,398.16z M153.72,392.6159c-3.024-0.576-6.048-1.224-9.144-1.872
		c-6.48-1.944-6.48-1.944-11.736-3.888c-0.936-1.512-0.936-1.512-2.808-6.552c-1.224-2.376-2.52-4.752-3.816-7.2
		c-1.872-4.5359-3.816-9.072-5.76-13.68c-1.224-3.816-2.52-7.632-3.816-11.52c-4.824-20.664-6.768-30.024-7.704-33.12
		c-1.944-9.864-1.944-9.864-2.376-14.184c0.072-1.656,0.144-3.312,0.216-5.04c0.936-5.256,0.936-5.256,2.88-13.68
		c0.288-2.376,0.576-4.752,0.936-7.2c2.52-9.432,5.112-18.864,7.704-28.2961c1.224-3.672,2.52-7.344,3.816-11.016
		c2.52-5.904,5.112-11.808,7.704-17.784c2.52-4.824,5.112-9.72,7.704-14.616c1.872-2.664,1.872-2.664,5.76-9.648
		c2.52-3.672,5.04-7.344,7.632-11.0161c7.704-10.0799,7.704-10.0799,15.408-19.4399c0.72-0.72,1.512-1.512,2.304-2.304
		c0.216,0,0.432,0,0.72-0.072c-0.864,2.16-0.864,2.16-6.624,12.456c-3.816,8.64-7.632,17.28-11.52,25.92
		c-4.824,13.464-6.768,17.784-8.64,23.544c-0.648,1.512-1.296,3.024-1.944,4.536c-1.944,6.696-1.944,6.696-3.816,14.904
		c-2.448,21.096-2.448,21.096-3.168,29.736c0.072,5.328,0.144,10.656,0.288,16.056c0.936,8.64,0.936,8.64,1.872,14.4
		c1.296,5.328,2.592,10.728,3.888,16.128c1.224,4.392,2.52,8.784,3.816,13.1761c3.168,8.856,6.336,17.7119,9.576,26.64
		c2.88,6.264,2.88,6.264,4.824,9.576c0.936,3.384,0.936,3.384,1.224,5.544c0,2.808,0,5.616,0,8.424
		c-0.216,1.224-0.432,2.52-0.72,3.816c-0.504,0.72-0.504,0.72-2.88,7.2C154.944,392.5439,154.368,392.5439,153.72,392.6159
		L153.72,392.6159z M202.176,385.56c3.744-21.6,3.744-21.6,4.68-25.416c12.816-7.704,12.816-7.704,19.8-11.52
		c3.888-2.5201,7.776-5.112,11.736-7.704c7.272-3.744,7.272-3.744,12.528-6.12c0.504-0.072,1.08-0.216,1.656-0.36
		c-0.072,5.616-0.216,11.232-0.36,16.848c-0.216,2.016-0.432,4.1039-0.72,6.192c-4.752,1.872-9.504,3.744-14.256,5.616
		c-4.248,2.52-8.496,5.112-12.744,7.704c-11.016,7.704-14.112,9.576-19.44,13.464C203.4,385.2,203.4,385.2,202.176,385.56
		L202.176,385.56z M207.936,351.504c0.36-7.2,0.36-7.2,0.864-10.584c0.7921-2.88,1.584-5.76,2.376-8.64
		c3.528-2.52,7.056-5.04,10.584-7.632c12.096-7.704,12.096-7.704,21.744-13.392c3.24-1.584,6.48-3.168,9.792-4.752
		c0.36,0,0.792-0.072,1.224-0.144c-0.864,15.84-0.864,15.84-1.368,20.448c-5.112,2.448-10.224,4.968-15.4081,7.488
		c-6.768,3.888-6.768,3.888-15.408,9.648c-4.176,2.376-8.424,4.752-12.672,7.2C209.088,351.216,208.512,351.36,207.936,351.504
		L207.936,351.504z M213.48,322.2c1.224-7.056,2.448-14.184,3.672-21.312c11.664-7.92,11.664-7.92,26.784-17.568
		c3.456-1.728,6.912-3.456,10.368-5.184c0.936,0,0.936,0,1.152,0.36c-0.144,6.624-0.36,13.248-0.576,19.944
		c-4.824,2.52-9.648,5.04-14.544,7.56c-4.392,2.52-8.784,5.112-13.176,7.704c-4.104,2.664-8.28,5.4-12.456,8.136
		C214.344,321.912,213.912,322.0559,213.48,322.2L213.48,322.2z M163.296,299.4479c-0.864-3.8159-1.8-7.632-2.736-11.52
		c-0.792-5.832-1.584-11.664-2.448-17.568c-0.072-2.88-0.144-5.76-0.216-8.64c0.288-5.328,0.576-10.656,0.936-16.056
		c0.648-3.96,1.296-7.992,1.944-12.024c1.224-5.472,2.52-11.016,3.816-16.56c0.936-3.312,1.872-6.696,2.88-10.08
		c1.872-4.824,3.816-9.72,5.76-14.616c9.648-20.664,9.648-20.664,10.584-23.256c4.464-8.28,8.928-16.6321,13.464-24.984
		c3.816-5.328,7.632-10.656,11.52-16.056c3.816-3.888,3.816-3.888,5.616-5.184c1.224,0,1.944,0.432,5.76,0.7199
		c1.296-1.7279,2.592-3.5279,3.888-5.3279c4.32-4.032,9.072-7.92,11.952-10.8c1.584-1.2239,3.168-2.52,4.824-3.816
		c0.936-1.2239,0.936-1.2239,3.6-3.6c0.72,0,0.72,0,0.936,0.216c-2.592,2.808-5.256,5.616-7.92,8.424
		c-0.792,0.648-1.584,1.296-2.376,1.944c-3.816,4.3199-3.816,4.3199-5.7599,6.912c-0.72,0.648-1.44,1.296-2.16,1.944
		c-0.648,0.864-1.2961,1.728-1.944,2.6639c-1.08,1.0801-2.16,2.1601-3.312,3.312c-0.432,1.1521-0.432,1.1521-0.432,2.0881
		c1.44,1.2239,1.44,1.2239,2.304,1.512c1.44,0,1.944,0.288,2.664,0.288c1.368-1.368,2.736-2.736,4.104-4.104
		c3.8159-4.824,3.8159-4.824,7.632-9.144c4.32-4.032,12.24-12.4561,19.44-19.6561c1.584,0,3.168,0,4.824,0
		c0.216,0.072,0.432,0.2161,0.72,0.36c-1.224,1.872-2.5201,3.816-3.816,5.76c-1.368,1.5839-2.736,3.24-4.104,4.8959
		c-4.32,3.8881-4.32,3.8881-12.456,10.368c-3.6,2.376-3.6,2.376-4.32,2.52c-0.144,0.936-0.144,0.936-0.432,1.224
		c0,0.432,0.072,0.936,0.144,1.4399c0.576,0.2161,1.152,0.504,1.728,0.7921c1.152,0.072,2.376,0.144,3.6,0.216
		c5.472-3.816,5.472-3.816,15.12-11.52c3.816-4.32,3.816-4.32,7.632-9.4321c1.296-2.016,2.592-4.032,3.8879-6.048
		c10.944,0.504,21.888,1.0081,32.832,1.584c6.336-0.072,12.672-0.144,19.008-0.2159c4.176,0.0719,8.424,0.2159,12.672,0.36
		c-0.144,0.1439-0.288,0.36-0.432,0.5759c-3.312,1.2241-6.696,2.5201-10.08,3.816c-9,3.816-18.072,7.632-27.144,11.52
		c-14.4,7.704-14.4,7.704-27.864,15.408c-3.456,2.52-6.9839,5.04-10.512,7.632c-2.952,1.8721-5.904,3.816-8.928,5.76
		c-6.48,5.7601-12.96,11.5201-19.44,17.2801c-3.312,3.888-6.696,7.8479-10.08,11.808c-2.592,3.5999-5.184,7.272-7.776,10.944
		c-2.52,3.96-5.112,7.92-7.704,11.952c-2.52,4.464-5.112,8.928-7.704,13.464c-2.52,5.4-5.04,10.872-7.632,16.344
		c-3.888,11.016-5.7599,15.552-7.7039,21.312c0,1.08,0,2.232,0,3.384c-1.224,3.168-2.52,6.336-3.816,9.576
		c-3.168,9.288-6.408,18.576-9.648,27.864c-0.576,2.232-1.224,4.464-1.872,6.696c-0.72,1.728-1.512,3.456-2.304,5.184
		C163.8,299.304,163.584,299.376,163.296,299.4479L163.296,299.4479z M218.52,291.528c0.7921-6.768,0.7921-6.768,2.7361-17.568
		c3.816-2.52,7.632-5.04,11.52-7.632c7.344-4.464,14.76-8.9279,22.176-13.464c0.36,0,0.792-0.072,1.224-0.144
		c0,1.656,0.072,3.312,0.144,4.968c-0.144,0.864-0.288,1.728-0.504,2.592c-0.0721,3.24-0.144,6.552-0.216,9.864
		c-4.824,2.52-9.648,5.04-14.544,7.56c-6.984,4.464-14.04,8.928-21.096,13.392C219.528,291.24,219.024,291.3839,218.52,291.528
		L218.52,291.528z M223.056,264.6c1.8-12.672,1.8-12.672,2.736-16.776c1.872-1.224,3.744-2.52,5.688-3.816
		c8.064-4.464,16.128-8.928,24.2639-13.392c0.288,0,0.576,0,0.936-0.072c0,4.68-0.072,9.432-0.144,14.184
		c-4.392,2.448-8.856,4.968-13.32,7.488c-6.192,3.96-12.456,7.992-18.72,12.024C224.064,264.312,223.56,264.456,223.056,264.6
		L223.056,264.6z M227.664,238.68c2.736-14.832,2.736-14.832,3.168-15.84c3.744-2.52,7.488-5.04,11.304-7.632
		c4.68-2.808,9.36-5.688,14.04-8.568c0.432,0,0.8641,0.072,1.296,0.144c-0.2159,10.296-0.2159,10.296-0.72,16.056
		C230.256,237.6,230.256,237.6,227.664,238.68L227.664,238.68z M232.416,213.7679c0.072-1.584,0.216-3.168,0.36-4.824
		c2.88-13.176,2.88-13.176,3.384-14.4c2.592-2.16,2.592-2.16,5.832-4.104c4.68-2.16,9.432-4.392,14.184-6.624
		c0.576-0.0719,1.152-0.144,1.728-0.2159c-0.216,5.112-0.432,10.296-0.6479,15.48c-7.056,3.744-7.056,3.744-13.32,7.56
		C243.504,207.144,234.36,212.904,232.416,213.7679L232.416,213.7679z M104.976,209.4479c0.072-2.232,0.216-4.464,0.36-6.768
		c0.648-4.68,1.296-9.36,1.944-14.112c1.224-6.1201,2.52-12.312,3.816-18.5041c3.816-12.96,3.816-12.96,7.704-24.6959
		c1.872-4.608,1.872-4.608,3.816-8.424c2.52-4.3201,5.112-8.6401,7.704-12.96c2.808-4.032,5.616-8.064,8.496-12.168
		c1.008,0,1.224,0.288,4.104,1.008c0.36,0,0.792,0,1.224,0c0.576-0.792,1.224-1.584,1.872-2.448
		c16.128-15.552,16.128-15.552,23.544-22.3201c0.504,0,1.08,0,1.656,0c0.576,0.2161,1.152,0.4321,1.728,0.6481
		c-0.504,0.7919-17.28,16.2-21.168,20.2319c-0.432,0.6481-0.936,1.368-1.44,2.0881c0.576,0.6479,1.152,1.296,1.728,2.016
		c0.936,0.216,1.872,0.432,2.88,0.72c7.92-8.1361,7.92-8.1361,16.272-16.056c3.096-2.736,6.192-5.472,9.36-8.2081
		c1.944,0,1.944,0,2.88,0.36c-0.576,0.7921-1.224,1.6561-1.872,2.5201c-2.52,2.592-5.112,5.256-7.7039,7.92
		c-7.704,8.928-7.704,8.928-9.504,11.448c0,0.432,0,0.936,0,1.4399c0.144,0.2881,0.288,0.5761,0.504,0.936
		c0.864,0.36,0.864,0.36,4.176,0.576c3.816-4.464,7.632-9,11.52-13.536c3.168-3.312,6.408-6.624,9.648-9.936
		c0.72-0.4321,1.44-0.936,2.16-1.44c1.08,0,2.16-0.072,3.312-0.144c-0.072,0.36-0.216,0.792-0.36,1.224
		c-1.44,1.512-2.88,3.024-4.32,4.536c-9.144,8.208-9.576,8.928-10.8,9.864c-1.224,1.656-2.52,3.312-3.816,5.0399
		c-0.648,0.6481-1.368,1.2961-2.088,1.944c-0.216,0.576-0.504,1.2241-0.792,1.872c0.432,0.432,0.864,0.864,1.296,1.296
		c0.864,0.144,1.728,0.288,2.664,0.504c0.216,0.288,0.432,0.5759,0.72,0.864c-3.816,4.176-3.816,4.176-6.984,7.056
		c-2.52,2.88-5.04,5.76-7.632,8.64c-1.872,2.448-3.816,4.896-5.76,7.4161c-0.288,0.648-0.576,1.368-0.864,2.088
		c-1.44,1.512-2.88,3.024-4.32,4.536c-5.112,6.12-10.224,12.312-15.408,18.504c-2.52,3.5999-5.04,7.2-7.632,10.8
		c-3.168,4.1039-6.408,8.28-9.648,12.456c-3.816,6.048-5.76,8.64-6.696,10.368c-0.504,0.432-0.936,1.44-1.944,2.592
		c-1.872,3.168-1.872,3.168-5.616,8.064C105.48,209.304,105.264,209.376,104.976,209.4479L104.976,209.4479z M238.176,185.184
		c0.864-6.264,0.864-6.264,1.08-10.08c-0.072-0.3601-0.144-0.7921-0.216-1.224c0.576-0.864,1.224-1.728,1.872-2.592
		c3.744-3.96,7.488-7.992,11.304-12.024c1.872-1.728,3.744-3.4561,5.688-5.184c0.288,0,0.576,0,0.936-0.072
		c0.072,7.632,0.072,7.632-0.648,22.32c-6.048,2.808-12.168,5.616-18.288,8.496C239.328,184.896,238.752,185.0399,238.176,185.184
		L238.176,185.184z M183.744,111.528c0.072-0.36,0.144-0.7921,0.288-1.2241c4.608-4.5359,9.288-9.0719,13.968-13.68
		c1.944-2.2319,3.888-4.4639,5.904-6.768c3.816-0.5759,3.816-0.5759,7.416-1.5119c0.432,0,0.936,0,1.44,0.072
		c-0.504,0.648-2.376,1.584-10.8,7.3441C186.84,109.224,186.84,109.224,183.744,111.528L183.744,111.528z M152.784,95.976
		c-0.144-0.144-0.288-0.288-0.504-0.4319c1.944-2.448,1.944-2.448,3.816-4.32c1.008-0.7921,2.088-1.584,3.168-2.448
		c0.72,0,0.72,0,0.936,0.288C156.384,92.88,156.384,92.88,152.784,95.976L152.784,95.976z M161.856,87.336
		c-0.072-0.072-0.144-0.2161-0.216-0.36c0.36-0.4319,0.792-0.864,1.224-1.296c0.216,0,0.432,0.072,0.72,0.144
		C163.008,86.328,162.432,86.832,161.856,87.336L161.856,87.336z M257.4,79.704c-0.288-0.144-0.288-0.144-0.3599-2.304
		c0.936-3.744,1.8719-7.488,2.8799-11.2321c0.432-1.0079,0.864-2.088,1.296-3.1679c0.216-0.0721,0.432-0.1441,0.72-0.216
		c0.1439,5.544,0.3599,11.16,0.576,16.7759C260.856,79.5599,259.128,79.632,257.4,79.704L257.4,79.704z"/>
</g>
</svg>
