<?xml version="1.0" encoding="utf-8"?>
<!-- Generator: Adobe Illustrator 21.1.0, SVG Export Plug-In . SVG Version: 6.00 Build 0)  -->
<svg version="1.1" id="Sa" xmlns="http://www.w3.org/2000/svg" xmlns:xlink="http://www.w3.org/1999/xlink" x="0px" y="0px"
	 viewBox="0 0 359.208 520.4161" enable-background="new 0 0 359.208 520.4161" xml:space="preserve">
<g>
	<path fill-rule="evenodd" clip-rule="evenodd" d="M172.944,520.4161c-2.88-0.144-5.76-0.288-8.64-0.504
		c-9.792-0.072-19.656-0.144-29.52-0.216c-1.08-0.144-2.16-0.288-3.312-0.504c-0.864-1.296-0.864-1.296-1.152-2.2319
		c-0.072-5.904-0.144-11.808-0.216-17.784c0.648-1.008,1.296-2.016,1.944-3.096c1.224-1.368,2.52-2.736,3.816-4.104
		c0-0.288,0.072-0.576,0.144-0.936c-5.976-0.36-5.976-0.36-16.344-0.36c-5.4-0.288-10.8-0.648-16.272-1.008
		c-8.856,0-17.712,0-26.64,0c-2.16,2.088-4.104,4.824-8.208,9.144c-0.36,0.144-0.72,0.288-1.152,0.504c-17.28,0-17.28,0-24.48-0.288
		c-2.88,0.504-3.888,1.008-5.328,1.224c-1.296-1.296-1.296-1.296-1.584-2.016c-0.072-5.4-0.144-10.872-0.216-16.344
		c-0.36-6.984-0.792-14.04-1.224-21.096c-2.592-1.944-2.592-1.944-5.832-3.816c-4.32-1.872-4.32-1.872-10.296-3.744
		c-11.808-2.88-11.808-2.88-15.408-3.384c-0.936-0.36-1.872-0.72-2.88-1.08c0-0.576-0.072-1.224-0.144-1.872
		c1.944-2.448,1.944-2.448,3.888-5.76c0.216-0.576,0.432-1.152,0.72-1.728c-0.072-1.584-0.144-3.168-0.288-4.752
		c0.288-0.792,0.648-1.584,1.008-2.448c0.144-0.072,0.36-0.216,0.576-0.36c2.52-0.072,5.112-0.144,7.704-0.216
		c0.648-0.936,1.296-1.872,1.944-2.808c3.744-6.912,7.56-13.824,11.376-20.808c1.224-2.736,2.52-5.472,3.816-8.208
		c11.52-20.592,11.52-20.592,13.464-24.696c0.288-0.864,0.576-1.728,0.936-2.664c3.816-7.488,7.632-14.976,11.52-22.536
		c1.944-2.88,3.816-6.264,10.08-15.84c4.824-9.144,4.824-9.144,6.696-13.464c1.872-3.312,3.816-6.696,5.76-10.08
		c0.648-0.864,1.296-1.728,1.944-2.592c1.872-3.888,3.816-7.848,5.76-11.808c2.52-4.176,5.112-8.424,7.704-12.672
		c3.168-6.048,6.336-12.168,9.576-18.288c1.224-2.736,2.52-5.544,3.816-8.352c7.704-13.68,7.704-13.68,15.408-26.64
		c2.52-5.04,5.04-10.08,7.632-15.12c1.872-3.096,3.816-6.192,5.76-9.36c1.296-2.592,2.592-5.256,3.888-7.92
		c2.52-4.32,5.04-8.64,7.632-12.96c0-0.72,0-1.44,0-2.16c1.944-3.384,7.2-13.968,7.704-14.4c2.52-4.392,5.112-8.784,7.704-13.248
		c2.52-5.112,5.04-10.224,7.632-15.336c7.704-14.184,7.704-14.184,9.648-17.28c0.576-1.44,1.224-2.88,1.872-4.32
		c2.88-4.824,2.88-4.824,6.048-9.36c0.144-0.432,0.288-0.936,0.432-1.44c0.648-0.936,1.296-1.872,1.944-2.88
		c3.816-7.92,7.704-14.904,12.4561-24.696c6.7679-11.304,7.7039-13.464,9.6479-16.344c0.432-0.504,0.936-1.08,1.44-1.656
		c0.432-1.224,2.376-4.104,3.312-6.2641c2.088-3.2399,4.176-6.5519,6.264-9.8639c0.936-2.16,2.88-5.04,4.32-7.92
		c0.648-0.936,1.2961-1.872,1.944-2.88c1.44-3.312,4.32-8.352,6.192-12.6721c1.944-3.3839,3.888-7.7039,4.824-9.1439
		c0.288-0.72,0.576-1.44,0.936-2.16c0.288-0.288,0.648-0.576,1.008-0.936c1.872-4.1039,2.52-6.2639,2.8799-6.4799
		c0.144-0.432,0.288-0.936,0.432-1.44c1.008-1.0081,1.224-1.728,1.584-1.9441c0.576,0.7201,0.576,0.7201,1.584,4.3201
		c0.432,0.504,0.936,1.08,1.44,1.656c0,1.152,0,2.376,0,3.6c53.712,206.208,59.976,229.248,60.912,233.5679
		c15.408,58.752,34.56,133.92,36.504,140.4c0.936,4.536,2.88,10.512,3.816,15.12c1.44,4.536,1.44,4.536,1.728,4.752
		c0.432,2.664,0.432,2.664,2.3041,9.144c0.288,0,0.5759,0,0.936,0c-0.36,1.224-0.36,1.224-0.144,2.664
		c1.0801,0.288,1.0801,0.288,1.44,0.72c0,0.72,0,0.72-0.504,1.152c0,0.936,0,1.872-0.072,2.88c0.216,0.072,0.4319,0.144,0.72,0.216
		c-0.7921,1.008-1.584,2.016-2.376,3.024c-2.4481-0.216-2.4481-0.216-27.144,0c-0.792,0.216-1.584,0.432-2.448,0.648
		c-0.36,1.152-0.36,1.152-0.432,2.88c0.36,0,0.792,0,1.224,0.072c1.0081,1.08,1.512,2.088,2.0161,2.52
		c0.216,0.576,0.4319,1.152,0.72,1.728c-0.072,1.8-0.144,3.6-0.288,5.472c-0.936,5.04-0.936,5.04-1.8719,7.92
		c-0.648,1.296-1.2961,2.592-1.944,3.888c-1.224,1.728-2.52,3.456-3.816,5.256c-1.296,1.44-2.592,2.88-3.8879,4.32
		c-1.8,1.224-3.6,2.52-5.4,3.816c-6.696,3.744-6.696,3.744-9.072,4.68c-3.816,0.936-3.816,0.936-12.8881,2.304
		c0.72,2.376,0.72,2.376,2.16,5.544c0.072,1.44,0.144,2.88,0.288,4.32c-0.144,0.72-0.288,1.44-0.504,2.16
		c-0.648,1.008-1.296,2.016-1.944,3.096c-2.16,1.944-2.16,1.944-3.6719,2.88c-1.152,0.432-2.376,0.864-3.6,1.296
		c-0.648,0.432-1.296,0.936-1.944,1.44c-5.9761,0-28.8,0.936-31.176,1.224c-7.416,0-14.832,0-22.32,0
		c-0.432,0.072-0.936,0.216-1.44,0.36c-1.224,1.656-2.52,3.312-3.816,5.04c-6.408,7.488-12.816,14.976-19.224,22.536
		c-1.44,1.08-1.44,1.08-2.664,1.584C192.168,520.272,182.592,520.3441,172.944,520.4161L172.944,520.4161z M125.208,482.472
		c-10.08-0.432-20.16-0.936-30.24-1.44c-10.944-0.288-21.888-0.576-32.904-0.936c-18.936-1.656-18.936-1.656-20.304-2.016
		c-0.072-1.8-0.144-3.672-0.288-5.544c6.48,0.36,9.36,0.864,66.672,4.176c11.808-0.216,11.808-0.216,28.368,0
		c4.176,0.216,8.424,0.432,12.672,0.72c0.36-0.144,0.792-0.288,1.224-0.432c0.288-0.36,0.576-0.792,0.936-1.224
		c20.16,0.216,26.64,0.504,56.88,0.504c4.824-0.288,7.488,0,20.16-0.288c2.16,0.288,2.16,0.288,27.648,0.504
		c12.2401-0.936,12.2401-0.936,13.392-1.224c4.536-0.072,9.072-0.144,13.68-0.216c2.16-0.504,2.16-0.504,5.76-0.792
		c0,1.08,0.072,2.16,0.144,3.312c-0.288,0.72-0.648,1.44-1.008,2.16c-1.872,2.16-1.872,2.16-2.736,2.664
		c-0.576-0.648-1.224-1.368-1.872-2.088c-0.72-0.216-0.72-0.216-9.8641-0.216c-7.7039,0.72-7.7039,0.72-12.96,0.72
		c-3.6,0.144-7.2,0.288-10.8,0.504c-5.832-0.144-11.664-0.288-17.496-0.504c-3.2401,0.072-6.552,0.144-9.864,0.216
		c-0.144,0.216-0.288,0.432-0.504,0.72c-1.656,0.288-1.656,0.288-63.576,0.72C136.728,482.2561,136.728,482.2561,125.208,482.472
		L125.208,482.472z M215.928,467.6401c-19.44-0.432-38.88-0.936-58.32-1.44c-0.72,0.144-1.44,0.288-2.16,0.432
		c-16.344-0.216-32.76-0.432-49.176-0.72c-4.608-0.432-23.04-0.936-51.624-2.376c-8.64-0.936-10.08-1.44-14.184-2.016
		c-0.072-1.656-0.216-3.312-0.36-5.04c-0.144-0.216-0.36-0.432-0.576-0.72c-2.376-0.144-2.664,0.072-3.816,0
		c-2.88-2.088-2.88-2.088-6.48-3.96c-5.328-1.944-5.328-1.944-14.184-4.464c0-0.432-0.072-0.936-0.144-1.44
		c0.936-1.44,0.936-1.44,2.376-5.256c0.432-0.648,0.936-1.296,1.44-1.944c0.864-0.36,0.864-0.36,8.064-1.296
		c10.08,0,10.08,0,17.568,0.432c2.88,0.288,5.76,0.648,8.64,1.008c4.32,0,8.64,0,12.96,0c11.808,0.72,23.616,1.44,35.496,2.16
		c32.184,0,37.944-0.288,42.264,0c3.096,0,6.192,0,9.36,0c0.936,0.432,0.936,0.432,2.16,0.432c0.216-0.288,0.504-0.648,0.792-1.008
		c0.36-1.296,0.792-2.592,1.224-3.888c1.584-0.864,1.584-0.864,2.736-1.08c15.696,0.144,31.392,0.288,47.088,0.504
		c3.456-0.072,6.984-0.144,10.512-0.288c1.008-0.288,2.088-0.576,3.168-0.936c1.44-0.936,1.44-0.936,3.312-2.88
		c2.16-0.072,4.32-0.144,6.48-0.216c3.168,0.432,3.168,0.432,8.424,0.432c0.36-0.144,0.7921-0.288,1.224-0.432
		c5.256,0.216,5.256,0.216,46.8,0.432c2.16,0.144,4.3199,0.288,6.48,0.504c27.36,0.504,27.36,0.504,31.896,0.864
		c-0.072,1.44-0.216,2.88-0.36,4.32c-1.944,5.976-1.944,5.976-2.88,7.92c-1.872,2.376-3.816,4.752-5.76,7.2
		c-5.4,3.816-5.4,3.816-8.784,5.76c-3.816,1.8-3.816,1.8-7.92,3.24c-2.016,0.288-4.104,0.576-6.192,0.936
		c-2.736,0-5.472,0.072-8.2079,0.144c-0.216,0.432-0.432,0.864-0.72,1.296c-1.08,0.072-2.16,0.144-3.312,0.216
		c-2.88,1.008-2.88,1.008-7.704,1.944c-2.8799,0-6.4799,0.504-14.4,0.504c-0.72,0.216-0.72,0.216-13.464,0.216
		c-1.728,0.144-3.456,0.288-5.256,0.504C226.008,467.3521,226.008,467.3521,215.928,467.6401L215.928,467.6401z M118.512,434.5201
		c-5.04-0.504-5.04-0.504-11.808-0.72c-3.024,0.072-6.048,0.144-9.072,0.216c-3.6-0.288-7.2-0.576-10.8-0.936
		c-17.784-0.504-33.12-1.44-63.288-2.304c0.072-0.504,0.144-1.08,0.216-1.656c7.704-13.896,38.448-71.064,161.28-296.856
		c46.08-85.68,46.08-85.68,48.96-90.504c0.36-0.144,0.72-0.288,1.152-0.504c-0.864,4.6079-1.872,7.4879-3.744,16.344
		c-1.008,3.6-1.008,3.6-3.888,10.5839c-0.288,1.8-0.576,3.6-0.936,5.472c-0.648,1.512-1.296,3.024-1.944,4.608
		c-0.144,0.7919-0.288,1.584-0.432,2.376c-0.648,1.512-1.296,3.024-1.944,4.5359c-3.816,12.2401-3.816,12.2401-5.76,17.568
		c-1.224,4.5361-2.52,9.072-3.816,13.6801c-3.816,10.656-7.632,21.384-11.52,32.112c-11.52,35.784-11.52,35.784-13.464,40.824
		c-0.288,1.584-0.576,3.168-0.936,4.824c-3.888,11.016-3.888,11.016-4.608,14.112c-0.0721,0.72-0.144,1.44-0.216,2.16
		c-1.224,4.536-2.52,9.072-3.816,13.68c-3.816,11.664-7.632,23.328-11.52,35.064c-1.296,4.4641-2.592,8.928-3.888,13.4641
		c-1.872,5.5439-3.816,11.16-5.76,16.776c-0.288,1.512-0.576,3.024-0.936,4.536c-1.872,4.896-3.816,9.792-5.76,14.688
		c-1.224,4.68-2.52,9.36-3.816,14.112c-1.944,5.04-1.944,5.04-5.76,17.28c-0.936,3.6-1.872,7.2-2.88,10.8
		c-7.704,22.824-7.704,22.824-9.648,27.864c-3.816,12.456-3.816,12.456-4.752,14.616c0,0.792,0,1.584,0,2.448
		c0.144,0.216,0.36,0.432,0.576,0.72c0.864,0.216,1.728,0.504,2.664,0.792c0.36,0.288,0.792,0.576,1.224,0.936
		c4.104,0.216,8.28,0.432,12.456,0.72c5.904-0.288,11.808-0.576,17.784-0.936c5.832,0,11.664,0,17.496,0
		c2.376-0.216,4.752-0.432,7.2-0.72c19.44,0.216,19.44,0.216,26.496,0.648c-0.072,1.584-0.144,3.168-0.216,4.752
		c-1.008,6.048-2.8799,23.76-3.3839,25.704c-0.144,0.288-0.288,0.576-0.504,0.936c-5.184,0-10.44,0.072-15.696,0.144
		c-6.984-0.144-14.04-0.288-21.096-0.504c-2.88,0.072-5.76,0.144-8.64,0.216c-4.824,1.44-4.824,1.44-5.76,2.088
		c-0.648,1.08-1.296,2.16-1.944,3.24c-3.672-0.288-7.344-0.648-11.016-1.008C138.168,433.8,132.912,433.8,118.512,434.5201
		L118.512,434.5201z M313.632,426.6001c-21.384-0.504-21.384-0.504-29.088-1.008c-10.512,0-21.096,0-31.68,0
		c-9.648-0.144-19.296-0.36-29.016-0.576c-0.144-2.16,0.36-11.016,0.072-11.52c0.216-3.888,0.432-7.776,0.648-11.664
		c2.232,0.072,4.464,0.144,6.696,0.288c3.24-0.288,6.552-0.648,9.864-1.008c7.272-0.072,14.544-0.144,21.8161-0.216
		c9.936,0.144,19.8719,0.288,29.8079,0.504c3.2401,0.216,6.48,0.432,9.7921,0.72c8.64,0,17.28,0,25.92,0
		c3.744-0.216,7.488-0.432,11.304-0.72c3.024,0.072,6.048,0.216,9.144,0.36c0.864,3.6,1.8,7.2,2.736,10.8
		c0,0.36-0.072,0.72-0.144,1.08c-3.096,0.216-3.096,0.216-12.2399-0.288c-2.4481-0.216-4.8961-0.432-7.4161-0.72
		c-1.656,0.288-3.312,0.648-5.04,1.008c-0.936,1.152-1.872,2.304-2.8799,3.456c-0.4321,1.728-0.8641,3.528-1.368,5.328
		c0,3.816,0,3.816-0.288,4.176C319.392,426.6001,316.512,426.6001,313.632,426.6001L313.632,426.6001z M198.864,387.0001
		c-3.168-0.144-6.336-0.288-9.576-0.504c-23.76,0-23.76,0-44.136-0.504c0-0.432-0.072-0.864-0.144-1.296
		c1.224-4.032,2.52-8.136,3.816-12.24c3.816-14.112,7.632-28.296,11.52-42.48c1.584-5.112,3.168-10.224,4.824-15.336
		c0.936-6.264,0.936-6.264,2.88-14.904c3.816-12.24,5.76-17.28,7.632-23.976c1.944-5.04,1.944-5.04,3.888-11.52
		c0.576-2.664,1.224-5.4,1.872-8.136c1.872-6.624,3.816-13.248,5.76-19.944c1.296-3.6721,2.592-7.344,3.888-11.0161
		c1.872-6.408,3.816-12.816,5.76-19.224c1.224-5.472,2.52-11.016,3.816-16.56c3.816-11.736,11.52-33.336,15.336-45.36
		c1.944-7.2,3.888-13.1759,5.76-21.0959c1.728-4.824,3.456-9.6479,5.184-14.472c0.216-0.0719,0.432-0.1439,0.72-0.2159
		c-0.576,24.7679-0.576,24.7679-0.576,35.7839c-0.216,0.432-0.432,0.936-0.72,1.44c0,2.5921,0,5.256,0,7.9201
		c-0.288,1.44-0.648,2.88-1.008,4.32c-0.576,8.28-1.224,16.632-1.872,24.984c-0.504,13.392-1.008,18.432-1.44,33.84
		c-1.008,7.92-1.008,7.92-1.224,11.52c0.144,1.008,0.288,2.016,0.504,3.096c-0.648,5.04-1.2961,10.08-1.944,15.12
		c-0.288,4.968-0.576,9.936-0.936,14.904c-0.648,5.4-1.296,10.8-1.944,16.272c-0.72,12.024-0.72,12.024-0.504,12.528
		c-0.216,8.856-0.216,8.856-1.152,22.752c-0.288,1.44-0.288,1.44-1.728,37.224c-0.936,7.92-1.872,21.816-2.376,25.2
		c-0.288,3.816-0.576,7.632-0.936,11.52C205.344,387.0001,205.344,387.0001,198.864,387.0001L198.864,387.0001z M225.288,381.9601
		c-0.072-5.328-0.216-10.656-0.36-15.984c0.648-11.736,1.296-23.472,2.016-35.28c14.904-0.864,14.904-0.864,23.328-1.08
		c31.392,0.936,31.392,0.936,38.376,1.44c3.024,0.36,6.048,0.792,9.144,1.224c19.44,0.216,26.64,0,33.84,0.36
		c9.432,37.944,9.432,37.944,12.096,47.52c0,0.4319,0,0.936,0,1.44c-0.144,0.072-0.36,0.216-0.576,0.36
		c-3.312-0.144-6.696-0.288-10.08-0.504c-6.048,0.504-6.048,0.504-13.68,0.504c-24.264-0.72-24.264-0.72-25.704-1.008
		c-28.8,0.288-40.32,0.72-52.344,0.72C238.464,381.9601,238.464,381.9601,225.288,381.9601L225.288,381.9601z M233.712,305.3521
		c-1.944-0.072-3.888-0.144-5.904-0.288c-0.072-1.008-0.144-2.088-0.288-3.168c0.504-6.48,1.008-9.072,3.528-41.76
		c5.904-0.144,11.808-0.36,17.784-0.576c39.096,0,39.096,0,53.496-0.288c3.24,0.144,6.552,0.288,9.864,0.504
		c0.216,0.072,0.432,0.216,0.72,0.36c3.744,14.688,7.56,29.448,11.376,44.208c0,0.288-0.072,0.648-0.144,1.008
		c-2.304-0.144-4.608-0.288-6.912-0.432c-2.232,0.144-4.464,0.288-6.768,0.432c-16.776-0.216-16.776-0.216-30.96-0.72
		C264.24,304.8481,248.976,305.0641,233.712,305.3521L233.712,305.3521z M233.928,236.5201c-0.576-0.072-1.152-0.216-1.8-0.36
		c0.072-3.816,0.144-7.632,0.216-11.5201c0.288-3.528,0.576-7.056,0.936-10.584c0.288-6.552,0.576-13.104,0.864-19.656
		c14.256,0.216,28.512,0.504,42.768,0.792c6.408,0.432,12.816,0.864,19.296,1.368c10.08,38.88,10.08,38.88,9.936,39.456
		c-3.312-0.144-6.696-0.288-10.08-0.504c-38.16,0.288-38.16,0.288-39.816,0c-4.968,0.288-9.936,0.648-14.904,1.008
		C238.896,236.5201,236.448,236.5201,233.928,236.5201L233.928,236.5201z M265.392,171.4321
		c-12.744-0.432-12.744-0.432-26.4241-0.432c-1.08-0.144-2.232-0.288-3.384-0.504c0-1.296-0.072-2.592-0.144-3.96
		c0.792-8.64,1.584-17.28,2.448-25.92c0.144-4.608,0.36-9.216,0.576-13.896c11.592,0.432,23.184,0.864,34.848,1.296
		c1.8,0.432,3.6,0.864,5.472,1.296c7.56,28.3681,7.56,28.3681,10.44,40.6081c0,0.36,0,0.72-0.072,1.08
		C286.704,171.2161,286.704,171.2161,265.392,171.4321L265.392,171.4321z M264.168,104.0401c-18.72-1.44-18.72-1.44-24.9841-2.304
		c-0.144-4.7521-0.144-4.7521,0.36-23.472c0.288-1.6561,0.576-3.312,0.936-5.04c-0.432-2.88-0.432-2.88-0.288-5.184
		c1.152-0.072,2.376-0.144,3.6-0.2881c6.264,0.144,12.6,0.2881,18.936,0.5041c2.808,10.44,5.616,20.88,8.496,31.32
		c0.216,1.4399,0.432,2.8799,0.72,4.3199C269.352,103.8961,266.76,103.9681,264.168,104.0401L264.168,104.0401z M242.352,46.1521
		c-0.36-0.144-0.72-0.36-1.152-0.576c0.576-4.8241,1.152-9.72,1.728-14.616c-0.072-1.944-0.144-3.9601-0.288-5.9761
		c1.656-3.0959,3.312-6.192,4.968-9.36c0.288,0,0.576-0.072,0.936-0.1439c2.664,9.792,5.328,19.5839,8.064,29.376
		c0,0.432-0.072,0.864-0.144,1.296C251.784,46.1521,247.104,46.1521,242.352,46.1521L242.352,46.1521z"/>
</g>
</svg>
