<?xml version="1.0" encoding="utf-8"?>
<!-- Generator: Adobe Illustrator 21.1.0, SVG Export Plug-In . SVG Version: 6.00 Build 0)  -->
<svg version="1.1" id="Sai" xmlns="http://www.w3.org/2000/svg" xmlns:xlink="http://www.w3.org/1999/xlink" x="0px" y="0px"
	 viewBox="0 0 556.1279 469.386" enable-background="new 0 0 556.1279 469.386" xml:space="preserve">
<g>
	<path fill-rule="evenodd" clip-rule="evenodd" d="M128.808,469.386c-2.664-0.648-5.4-1.296-8.136-1.944
		c-3.672-0.576-7.344-1.224-11.088-1.872c-7.632-1.584-15.336-3.168-23.04-4.824c-1.44-0.144-2.88-0.288-4.32-0.504
		c-3.384,0-6.84,0-10.296,0c-3.96,0.432-7.992,0.936-12.024,1.44c-1.152,0.504-1.152,0.504-2.88,0.72
		c-2.304,1.08-4.608,2.232-6.912,3.384c-1.08,0.072-2.232,0.144-3.384,0.216c-0.36-1.008-0.36-1.008-0.36-2.232
		c0.072-0.432,0.216-0.936,0.36-1.44c0.504-0.432,1.08-0.936,1.656-1.44c4.608-1.8,4.608-1.8,9.648-4.248
		c1.224-0.288,2.52-0.576,3.816-0.936c3.528-0.36,7.056-0.792,10.584-1.224c3.888,0,7.776,0,11.736,0
		c11.304,1.944,11.304,1.944,20.664,3.888c7.416,1.872,7.416,1.872,17.496,3.744c0-0.216-0.072-0.432-0.144-0.72
		c-1.728-1.296-3.456-2.592-5.184-3.888c-6.192-3.744-10.008-5.616-13.176-7.56c-0.216-0.216-0.432-0.432-0.72-0.72
		c-2.52,0.072-5.04,0.144-7.632,0.216c-7.2,1.008-7.2,1.008-12.528,1.44c-4.032,1.008-4.032,1.008-7.632,1.44
		c-2.376,0.072-4.752,0.144-7.2,0.288c-0.144-0.144-0.288-0.288-0.504-0.504c0-0.936-0.072-1.944-0.144-2.952
		c0.144-0.288,0.36-0.648,0.576-1.008c0.432-0.288,0.864-0.576,1.368-0.936c0-0.216,0-0.432,0-0.72
		c-1.008-0.648-2.016-1.296-3.024-1.944c-1.44-0.576-2.88-1.152-4.32-1.8c-2.592-0.576-5.256-1.152-7.92-1.8
		c0.072,0.216,0.144,0.432,0.216,0.72c4.248,2.88,4.248,2.88,5.4,4.104c0.144,0.36,0.288,0.792,0.504,1.224
		c-0.072,0.792-0.144,1.584-0.216,2.376c-0.216,0.144-0.432,0.288-0.648,0.504c-1.152,0-2.304,0-3.528,0.072
		c-18.504-3.816-18.504-3.816-20.88-4.104c-4.032,0-8.136,0-12.24,0c-2.952,0.216-5.904,0.432-8.928,0.72
		c-3.24,0.576-6.48,1.224-9.792,1.872c-0.216-0.936-0.432-1.872-0.648-2.88c0.288-0.288,0.576-0.648,0.936-1.008
		c1.296-0.576,2.664-1.152,4.032-1.8c4.32-0.936,4.32-0.936,11.736-1.944c4.248-0.144,8.496-0.36,12.744-0.576
		c-0.144-0.288-0.288-0.576-0.504-0.864c-1.44-0.36-2.88-0.72-4.32-1.152c-3.744,0.072-7.488,0.144-11.304,0.216
		c-10.512,0.936-10.512,0.936-13.176,0.936c-0.432-0.144-0.936-0.36-1.44-0.576c0-1.08-0.072-2.16-0.144-3.312
		c0.576-0.72,1.152-1.44,1.8-2.16c2.88,0.072,5.76-0.432,19.008-1.368c0.36-0.288,0.72-0.576,1.152-0.936
		c4.32-1.008,4.32-1.008,9.864-2.88c1.8-0.792,3.672-1.584,5.544-2.448c1.944-0.288,3.96-0.576,5.976-0.936
		c1.08-0.864,2.232-1.728,3.384-2.664c4.032-0.792,8.136-1.584,12.24-2.376c8.64-0.504,8.64-0.504,11.232-0.936
		c0-0.288,0.072-0.576,0.144-0.864c-7.92-8.856-7.92-8.856-11.808-13.68c-1.44-2.376-1.44-2.376-1.656-3.312
		c-3.672-3.672-7.344-7.344-11.016-11.088c-0.864-0.36-0.864-0.36-3.024-2.016c-0.36,0-0.72,0-1.152,0
		c-1.368,1.224-2.736,2.52-4.104,3.816c-1.8,1.08-3.672,2.232-5.544,3.384c-0.504-0.072-1.08-0.144-1.656-0.288
		c-1.224-1.08-1.224-1.08-2.16-2.52c-1.944-1.08-1.944-1.08-4.104-2.952c-1.224-1.512-2.52-3.024-3.816-4.608
		c-2.16-3.528-4.392-7.056-6.624-10.656c-3.816-11.232-3.816-11.232-7.704-24.48c-0.936-3.96-1.872-7.92-2.88-11.952
		c-1.152-9.288-2.376-18.576-3.6-27.864c0-1.512,0-3.024,0-4.536c-0.432-3.096-0.936-6.192-1.44-9.36c0-6.264,0-6.264,0.504-12.024
		c0.936-5.256,1.872-10.512,2.88-15.84c0.288-2.664,0.576-5.4,0.936-8.136c1.944-10.8,1.944-10.8,3.888-19.728
		c1.872-6.192,1.872-6.192,5.76-16.56c1.872-4.608,3.816-9.216,5.76-13.896c1.224-2.232,2.52-4.464,3.816-6.696
		c0.288-0.792,0.576-1.584,0.936-2.448c0.36-0.36,0.792-0.72,1.224-1.152c1.224-2.808,2.52-5.616,3.816-8.424
		c3.888-6.984,3.888-6.984,7.704-12.744c7.704-9.36,7.704-9.36,15.336-19.152c3.6-3.888,5.76-5.76,9.648-10.08
		c6.768-6.552,13.536-13.104,20.376-19.728c3.384-2.52,6.768-5.04,10.224-7.632c6.048-3.8159,12.096-7.6319,18.216-11.5199
		c2.592-1.224,5.256-2.4481,7.92-3.744c1.872-0.648,3.816-1.296,5.76-1.944c1.224-0.936,4.104-4.32,8.64-8.856
		c1.944-2.4479,1.944-2.4479,6.264-6.7679c5.76-7.92,9.576-12.456,13.464-17.7121c1.224-1.9439,2.52-3.888,3.816-5.9039
		c7.704-9.216,7.704-9.216,12.312-15.336c0.072-0.936,0.144-1.872,0.288-2.88c-0.504-5.7601-0.504-5.7601-1.008-22.824
		c-0.936-8.1359-0.936-8.1359-1.44-10.296c0-1.584,0-3.168,0-4.824c0.648-1.08,1.296-2.16,1.944-3.312
		c0.504-0.288,1.008-0.6479,1.584-1.008c4.536-1.2239,9.072-2.448,13.68-3.744c1.512,0,3.024,0,4.536,0
		c2.88,0.7921,5.76,1.584,8.64,2.4481c2.592,0.432,5.256,0.936,7.92,1.44c2.232,0,4.464,0,6.768,0
		c1.872-0.2161,3.816-0.432,5.76-0.72c0.576-0.288,1.224-0.648,1.872-1.008c1.944-2.376,1.944-2.376,2.664-2.88
		c2.376-0.2161,2.376-0.2161,4.536,0c0.144,0.936,0.36,1.872,0.576,2.808c-0.288,0.504-0.576,1.08-0.936,1.6559
		c-0.288,2.4481-0.576,4.9681-0.936,7.488c-0.648,1.656-1.296,3.312-1.944,5.04c-0.936,1.512-1.872,3.0239-2.88,4.5359
		c-6.336,3.816-6.336,3.816-13.536,7.5601c-9.144,3.816-9.144,3.816-19.656,7.632c-0.936,0.6481-1.872,1.296-2.88,1.9441
		c-0.936,1.224-1.872,2.448-2.808,3.7439c-0.792,1.44-1.584,2.8801-2.376,4.3201c0.216,2.6639,0.72,5.04,1.152,10.7999
		c1.872,8.4241,3.816,16.9201,5.76,25.4161c1.872,6.336,3.816,12.672,5.76,19.008c2.52,7.272,5.112,14.544,7.704,21.816
		c2.52,5.976,5.112,11.952,7.704,18c0.576,2.376,1.224,4.752,1.872,7.2c3.888,9.144,3.888,9.144,11.52,25.7039
		c2.52,4.608,5.112,9.216,7.704,13.8961c3.816,7.4879,7.632,14.976,11.52,22.536c3.816,6.264,3.816,6.264,7.704,13.464
		c11.52,18.216,11.52,18.216,19.152,31.176c3.888,7.488,3.888,7.488,7.704,13.968c2.52,3.816,5.112,7.632,7.704,11.5201
		c2.5201,4.68,5.04,9.36,7.632,14.112c1.296,2.016,2.592,4.032,3.888,6.048c1.224,1.584,2.52,3.168,3.8159,4.752
		c7.704,12.024,7.704,12.024,11.736,17.784c1.008,0.936,1.008,0.936,2.88,4.104c0.72,0.72,1.512,1.44,2.304,2.16
		c9.432,6.4799,18.864,12.96,28.296,19.44c6.048,3.672,6.048,3.672,13.032,7.488c4.32,2.88,8.64,5.76,12.96,8.64
		c7.632,3.888,7.632,3.888,15.84,8.64c0.432,0.072,0.936,0.144,1.44,0.288c0.144-0.072,0.36-0.216,0.576-0.36
		c0-1.44,0-1.44,0.432-2.16c0.864-0.36,0.864-0.36,1.944-0.216c0,0.504,0,1.08-0.072,1.656c2.664-0.432,5.4-0.864,8.136-1.368
		c3.9601-0.216,7.992-0.432,12.024-0.72c15.336,0.288,15.336,0.288,19.44,0.72c4.032,0.936,8.136,1.8719,12.24,2.88
		c4.032,1.8719,8.136,3.8159,12.24,5.76c1.728,1.152,3.456,2.376,5.256,3.6c2.376-0.864,4.752-1.728,7.2-2.592
		c1.44-1.008,1.44-1.008,2.376-2.304c0.7921,0,1.584-0.072,2.448-0.144c0.576,0.216,1.224,0.432,1.872,0.72
		c7.704-0.216,7.704-0.216,19.944,0c2.304,0.288,4.6079,0.648,6.984,1.008c4.392,1.08,8.784,2.16,13.176,3.312
		c1.4399,0.648,2.8799,1.296,4.3199,1.944c13.464,7.704,13.464,7.704,17.28,9.576c5.5441,3.888,5.5441,3.888,10.296,7.704
		c3.816,2.088,7.632,4.176,11.52,6.264c0,0.288,0.072,0.576,0.1439,0.864c-0.792,0.864-1.6559,1.728-2.5199,2.592
		c-0.3601,0.072-0.7921,0.216-1.2241,0.36c-0.504-0.072-1.08-0.144-1.6559-0.216c-3.4561-1.728-6.9121-3.456-10.368-5.184
		c0,0.216,0,0.432-0.072,0.72c0.576,0.72,1.224,1.44,1.8721,2.16c0.7919,0.648,1.6559,1.296,2.5199,1.944
		c2.016,1.152,4.032,2.304,6.0481,3.456c1.1519,0.072,2.376,0.144,3.5999,0.216c0.2161,0.144,0.432,0.288,0.7201,0.504
		c0.072,1.08,0.072,1.08-0.36,2.088c-2.16,2.16-2.16,2.16-2.7361,2.448c-0.864,0-1.7279,0-2.6639,0
		c-4.3199-1.872-4.3199-1.872-7.9199-3.816c-1.656-1.224-3.312-2.52-5.0402-3.816c-1.944-2.16-1.944-2.16-2.88-2.736
		c0,0.216-0.0719,0.432-0.1439,0.72c1.944,2.592,1.944,2.592,2.88,4.32c1.368,1.224,2.7361,2.52,4.104,3.816
		c0.936,1.152,1.8721,2.376,2.88,3.6c0,0.216,0,0.432,0,0.72c-2.088,2.664-2.088,2.664-2.808,3.096
		c-0.3601,0-0.7201,0.072-1.1521,0.144c-1.584-0.648-3.1678-1.296-4.824-1.944c-13.6799-7.704-13.6799-7.704-16.5599-9.576
		c-2.592-2.304-5.256-4.608-7.92-6.984c-0.36-0.072-0.72-0.216-1.152-0.36c0.288,1.224,0.288,1.224,1.296,2.664
		c1.512,0.936,1.512,0.936,2.1599,1.656c-0.2159,0.792-0.4319,1.584-0.7199,2.448c-0.288,0.432-0.648,0.936-1.008,1.44
		c-0.432,0.216-0.864,0.504-1.296,0.792c-1.656-0.216-1.656-0.216-7.416-2.16c-8.136-3.816-8.136-3.816-15.1201-7.704
		c-0.7919-0.216-1.5839-0.504-2.376-0.792c0.072,0.36,0.144,0.792,0.288,1.224c2.376,2.016,4.752,4.104,7.2,6.192
		c-0.0719,0.72-0.1439,1.44-0.2159,2.16c-0.432,0.72-0.864,1.512-1.296,2.304c-0.8641,0.072-1.7281,0.144-2.6641,0.216
		c-5.976-1.944-5.976-1.944-10.512-2.88c-2.376-1.224-4.752-2.52-7.2-3.816c-6.048-3.888-6.048-3.888-11.088-7.704
		c-1.296-1.368-2.664-2.736-4.032-4.104c-3.096-2.664-6.192-5.4-9.36-8.136c-0.864-0.576-1.728-1.152-2.664-1.8
		c-0.648-0.936-5.328-5.04-7.8481-6.912c-1.728-0.864-1.728-0.864-6.0479-2.304c-2.52-0.288-5.112-0.6479-7.704-1.008
		c-4.536-1.44-4.536-1.44-6.696-1.872c-0.288-0.288-0.648-0.648-1.008-1.008c-1.728,0-3.456,0.072-5.256,0.144
		c0.072,0.288,0.144,0.576,0.216,0.864c3.672,0.936,7.344,1.872,11.088,2.88c2.232,0.936,4.4641,1.872,6.696,2.88
		c0.792,0.576,1.584,1.224,2.376,1.872c1.44,1.584,2.952,3.168,4.464,4.752c0.144,0.72,0.288,1.44,0.432,2.16
		c2.592,2.736,5.256,5.544,7.92,8.352c5.4,3.888,8.568,5.76,13.104,9.144c1.008,0.216,2.016,0.432,3.024,0.72
		c0,0.36,0,0.792,0,1.224c-1.008,0.936-1.008,0.936-3.744,2.232c-0.432,0.72-0.936,1.44-1.44,2.16
		c-1.152,0.504-1.152,0.504-3.816,0.936c-1.944-0.072-3.96-0.144-5.976-0.216c-1.44-0.432-2.88-0.864-4.32-1.296
		c0.216,0.504,0.504,1.08,0.792,1.656c0.936,0.576,1.872,1.152,2.88,1.728c-0.072,1.08-0.144,2.16-0.216,3.312
		c-0.504,1.008-0.504,1.008-1.08,1.44c-1.656-0.36-1.656-0.36-3.6-1.296c-8.64-1.944-8.64-1.944-17.064-3.384
		c-5.976-0.504-5.976-0.504-9.072-0.504c-5.76,0.504-22.824,1.008-34.3441,1.944c-2.232,0.288-4.464,0.576-6.696,0.936
		c-12.24,3.888-12.24,3.888-19.008,5.76c-1.944,0.144-3.96,0.288-5.976,0.504c-1.44-0.072-2.88-0.144-4.32-0.216
		c-0.648-0.504-1.296-1.008-1.944-1.584c0-0.576-0.072-1.224-0.144-1.872c1.584-0.864,1.584-0.864,3.744-1.368
		c0.144-0.144,0.288-0.36,0.504-0.576c-1.224-0.72-1.656-1.368-2.376-1.8c-1.368,0-2.736,0-4.104,0
		c-3.96,1.512-7.92,3.096-11.88,4.68c0,0.288,0,0.576,0.072,0.936c9.144,3.744,13.464,5.904,14.184,5.904
		c0.216-0.144,0.432-0.288,0.72-0.504c2.376-0.072,4.752-0.144,7.2-0.216c0.216-0.144,0.432-0.288,0.72-0.504
		c3.456-0.504,6.912-1.08,10.368-1.656c0.432-0.72,0.432-0.72,2.16-1.728c2.664-0.936,5.4-1.872,8.136-2.88
		c5.04-0.936,5.04-0.936,16.776-2.376c5.832-0.072,11.664-0.144,17.568-0.216c3.024,0.576,6.048,1.224,9.072,1.872
		c2.52,0.288,5.112,0.648,7.704,1.008c4.392,1.224,8.784,2.52,13.176,3.816c2.304,0.936,4.608,1.872,6.984,2.88
		c5.256,1.368,10.512,2.736,15.84,4.104c1.728,0,3.456,0,5.256,0c0.432,0.288,0.936,0.576,1.44,0.936
		c0.432,0.72,0.9359,1.44,1.44,2.16c5.544,2.376,5.544,2.376,6.48,3.024c0,0.648,0.072,1.296,0.144,1.944
		c-1.08,0.792-1.08,0.792-3.456,1.512c-2.88-0.936-2.88-0.936-5.04-1.944c-0.648-0.792-1.296-1.584-1.944-2.376
		c-2.232,0-4.464,0.072-6.696,0.144c0.216,0.36,0.216,0.36,7.92,4.176c0.432,0.504,0.864,1.008,1.296,1.584
		c0.072,0.504,0.144,1.08,0.216,1.656c-0.936,1.44-0.936,1.44-1.944,2.448c-0.792,0.288-6.336,0.288-8.712,0.576
		c-4.824,0-4.824,0-9.36-0.504c-2.16-0.648-4.32-1.296-6.48-1.944c-9.576-3.816-9.576-3.816-15.12-6.336
		c0,0.216-0.072,0.432-0.144,0.72c1.152,1.008,2.376,2.088,3.6,3.168c0.216,0.936,0.216,0.936-0.216,2.88
		c-0.288,0.288-0.576,0.648-0.864,1.008c-0.504-0.072-1.08-0.144-1.656-0.216c-1.584-1.08-3.168-2.232-4.824-3.384
		c-1.656-0.432-10.296-1.152-10.584-1.008c0,0.288,0,0.576-0.072,0.936c2.16,1.944,2.16,1.944,4.752,4.824
		c-0.216,2.376-0.216,2.376-0.72,3.312c-0.144,0.072-0.36,0.216-0.576,0.36c-1.44-0.216-11.5201-4.104-45.0721-15.624
		c-2.16-0.576-4.32-1.224-6.48-1.872c-2.232-0.36-4.464-0.792-6.768-1.224c-1.008,0-2.016,0.072-3.096,0.144
		c4.104,2.952,4.104,2.952,6.984,5.616c4.32,0.144,8.64,0.288,12.96,0.504c0.576,0.144,1.224,0.288,1.872,0.432
		c0.432,0.432,0.864,0.864,1.296,1.368c-0.072,1.008-0.144,2.016-0.216,3.096c-0.144,0.144-0.36,0.288-0.576,0.504
		c-4.536,0-9.072-0.072-13.68-0.144c-3.528-0.648-7.056-1.296-10.584-1.944c-6.912-1.872-11.952-3.6-13.176-3.672
		c0.36,1.224,0.36,1.224,0.936,1.944c0.504,0.288,1.08,0.576,1.656,0.936c0,0.72,0.072,1.44,0.144,2.16
		c-0.144,0.36-0.288,0.792-0.504,1.224c-0.72,0.432-0.72,0.432-1.152,1.152c-0.576,0-1.152,0.072-1.8,0.144
		c-1.08-0.648-2.232-1.296-3.384-1.944c-0.936-0.288-1.872-0.576-2.88-0.936c-3.384-1.872-6.84-3.816-10.296-5.76
		c-1.08-0.936-2.232-1.872-3.384-2.88c-0.216,0-0.432,0-0.72,0.072c-0.36,2.448-0.36,2.448-0.864,3.168
		c-0.216,0.144-0.504,0.288-0.792,0.504c0,0.288,0,0.576,0,0.936c1.944,1.08,1.944,1.08,5.4,2.376c0,1.008,0,2.088,0,3.168
		c-0.576,0.432-1.152,0.936-1.8,1.44c-0.36,0-0.792,0-1.224,0.072c-1.872-0.936-1.872-0.936-5.04-1.944
		c-7.632-3.816-16.056-7.632-23.76-11.52c-1.584-0.576-3.168-1.224-4.752-1.872c-1.512-0.288-3.024-0.648-4.608-1.008
		c-3.888-0.432-7.776-0.936-11.736-1.44c-3.24,0-6.552,0-9.864,0c-1.872-0.144-3.816-0.36-5.7599-0.576
		c0.072,0.432,0.216,0.936,0.36,1.44c0.288,0.288,0.576,0.576,0.864,0.864c2.808,0.144,5.616,0.288,8.424,0.432
		c3.672,1.296,7.344,2.592,11.016,3.888c2.232,1.08,4.464,2.16,6.696,3.312c0.36,0.288,0.792,0.648,1.224,1.008
		c0.864,0.144,1.728,0.288,2.664,0.432c1.656,1.008,1.656,1.008,8.856,3.888c1.44,0.216,2.88,0.432,4.32,0.72c1.152,0,2.376,0,3.6,0
		c0.432,0.144,0.936,0.288,1.44,0.432c1.512,0,3.024,0,4.536-0.072c0.144,1.44,0.144,1.44-0.144,3.384
		c-0.936,0.936-0.936,0.936-1.728,1.296c-12.744-0.72-12.744-0.72-15.624-1.224c-0.936-0.288-1.872-0.576-2.88-0.936
		c-14.184-6.768-14.184-6.768-15.624-7.704c-6.912-2.88-6.912-2.88-8.352-3.816c-0.864,0.072-1.728,0.216-2.664,0.36
		c0,0.288,0,0.576,0.0721,0.936c1.008,0.648,2.016,1.296,3.024,1.944c8.208,3.672,8.208,3.672,9.864,4.68
		c0.936,0.288,1.872,0.576,2.8799,0.936c0.36,0.36,0.72,0.72,1.08,1.08c0,0.72,0,1.44,0,2.16c-0.144,0.288-0.288,0.648-0.504,1.008
		c-0.576,0.432-1.152,0.864-1.8,1.296c-0.72,0-0.72,0-2.16-0.504c-3.672-0.072-7.344-0.144-11.016-0.216
		c-4.104-1.872-8.28-3.816-12.456-5.76c-3.816-2.232-7.632-4.464-11.52-6.768c-0.576-0.144-1.152-0.36-1.728-0.576
		c0.36,1.224,0.36,1.224,1.296,2.664c0.576,0.504,1.152,1.08,1.728,1.656c0.072,1.008,0.144,2.088,0.216,3.168
		c-0.36,0.432-0.72,0.936-1.08,1.44c-0.576,0.072-1.224,0.144-1.872,0.288c-1.008-0.576-2.088-1.224-3.168-1.872
		c-5.832-2.088-11.664-4.176-17.496-6.336c0.072,0.72,0.072,0.72,0.792,1.656c0,0.792,0,1.584,0,2.376
		c-0.936,1.224-0.936,1.224-1.512,1.584c-0.36,0.072-0.792,0.144-1.224,0.216c-2.592-1.944-2.592-1.944-5.472-3.384
		c-0.36,0-0.792,0.072-1.224,0.144c1.368,1.368,2.736,2.736,4.104,4.104c1.656,3.024,3.384,6.048,5.112,9.144
		c0.072,0.864,0.144,1.728,0.216,2.592c-0.144,0.288-0.288,0.648-0.432,1.008c-0.432,0.216-0.864,0.504-1.296,0.792
		c-0.36,0-0.792,0-1.224,0c-0.504-0.36-1.08-0.792-1.656-1.224c-0.432,0-0.936,0.072-1.44,0.144c0.288,0.72,0.288,0.72,0.072,3.168
		c-0.936,1.44-0.936,1.44-1.512,1.728c-1.656,0-3.312,0-5.04,0c-1.44,0.504-1.44,0.504-4.104,0.72
		c-7.2-1.872-7.2-1.872-13.176-3.816c-1.872-0.936-3.816-1.872-5.76-2.88c-0.576,0-1.152-0.072-1.728-0.144
		c0.504,0.648,0.504,0.648,2.88,2.16c0,1.008,0.072,2.088,0.144,3.168c-0.36,0.36-0.72,0.792-1.08,1.224
		c-4.104,0.288-5.04,0.576-10.8,0.792c-5.544-0.216-6.264-0.504-14.616-0.936c-5.472-1.872-11.016-3.744-16.56-5.616
		c0.288,1.152,0.792,1.872,1.296,4.032c-0.072,0.648-0.144,1.296-0.288,1.944c-0.288,0.432-0.576,0.936-0.936,1.44
		c-0.432,0.288-0.864,0.576-1.296,0.936C130.248,469.098,129.528,469.242,128.808,469.386L128.808,469.386z M159.984,461.682
		c-2.016-0.144-4.104-0.288-6.192-0.432c-1.512-0.288-3.024-0.648-4.608-1.008c-5.04-1.872-5.04-1.872-8.856-2.88
		c-2.232-0.936-4.464-1.872-6.696-2.88c-1.872-0.576-3.816-1.224-5.76-1.872c-1.152-0.648-2.376-1.296-3.6-1.944
		c-1.728-0.648-3.528-1.296-5.328-1.944c-0.576-0.072-1.224-0.144-1.872-0.216c-1.224,0.504-1.224,0.504-2.16,0.504
		c-0.72-0.288-1.44-0.648-2.16-1.008c-0.288-0.288-0.576-0.648-0.864-1.008c0-0.216,0-0.432,0.072-0.72
		c3.024-1.944,3.96-2.88,4.824-3.168c0,1.152-0.072,2.376-0.144,3.6c0.432,0.36,0.432,0.36,15.768,2.736
		c2.952,0.936,5.904,1.872,8.856,2.88c8.64,3.888,20.16,8.64,20.664,9.144C161.712,461.682,161.712,461.682,159.984,461.682
		L159.984,461.682z M189.792,460.026c-2.016-0.648-4.032-1.296-6.048-1.944c-7.92-3.816-20.88-9.576-23.472-10.512
		c-1.08-0.144-2.232-0.288-3.384-0.504c-10.584-2.88-10.584-2.88-15.12-3.816c-2.52-0.288-5.112-0.576-7.704-0.864
		c-0.072-0.216-0.144-0.432-0.216-0.72c1.944-0.144,3.96-0.36,5.976-0.576c8.208,0.936,9.864,1.44,16.344,2.376
		c2.808,0.936,5.616,1.872,8.424,2.88c1.08,0.648,2.16,1.296,3.312,1.944c2.88,0.936,2.88,0.936,6.768,2.88
		c0.72,0.144,1.44,0.288,2.16,0.432c3.6,1.872,7.2,3.816,10.8,5.76c1.08,0.792,2.16,1.584,3.312,2.448
		C190.728,460.026,190.728,460.026,189.792,460.026L189.792,460.026z M194.832,449.73c-5.04-2.448-10.08-4.32-13.968-6.264
		c-7.2-2.376-14.4-4.752-21.6-7.2c0-0.216-0.072-0.504-0.144-0.792c0.648-0.288,1.368-0.576,2.088-0.864
		c1.656-0.288,3.312-0.648,5.04-1.008c0.864,0,1.728,0,2.664,0c1.584,0.648,3.168,1.296,4.752,1.944
		c16.128,9.576,16.128,9.576,21.888,13.464c0.072,0.072,0.144,0.216,0.216,0.36C195.48,449.442,195.192,449.586,194.832,449.73
		L194.832,449.73z M448.4879,447.57c-1.944-0.144-3.96-0.288-5.976-0.504c-3.384-0.936-3.384-0.936-13.248-4.824
		c-7.632-3.816-16.272-7.632-19.872-9.576c-1.8-0.792-3.672-1.584-5.544-2.376c-0.432,0-0.936,0.072-1.44,0.144
		c-0.36,2.376-0.36,2.376-0.144,4.32c0.936,0.936,0.936,0.936,2.664,1.872c1.512,1.728,3.024,3.528,4.536,5.328
		c-2.52,0.072-2.52,0.072-3.672-0.144c-0.72-0.648-1.44-1.296-2.16-1.944c-3.528-1.872-7.056-3.816-10.584-5.76
		c-1.728-0.648-3.4561-1.296-5.256-1.944c-1.44-0.288-2.88-0.576-4.32-0.936c-1.656,0-3.312,0-5.04,0
		c-0.144,0.144-0.288,0.288-0.504,0.504c-1.6559-0.144-3.312-0.288-5.0399-0.504c-0.216-0.36-0.216-0.36,0-0.72
		c1.512-0.288,3.024-0.576,4.536-0.936c3.96-0.288,7.992-0.648,12.024-1.008c4.32,0,8.64,0,12.96,0
		c9.576,1.944,16.56,2.88,20.664,3.888c0.576,0.288,1.224,0.576,1.872,0.936c0.288,0.576,0.576,1.152,0.864,1.8
		c0.36,0.288,0.72,0.648,1.152,1.008c3.456,1.872,6.984,3.744,10.512,5.616c10.08,3.816,10.08,3.816,13.176,5.256
		c-0.144,0.144-0.288,0.288-0.504,0.504C449.64,447.57,449.064,447.57,448.4879,447.57L448.4879,447.57z M80.352,445.41
		c-3.384-1.944-3.384-1.944-14.904-7.704c-13.896-3.816-13.896-3.816-18.72-4.824c-2.016-0.216-4.032-0.504-6.048-0.792
		c0-0.216,0-0.432,0-0.72c1.224-0.36,1.224-0.36,5.544-0.864c3.312-0.072,6.696-0.144,10.08-0.216
		c1.872,0.288,3.816,0.576,5.76,0.936c2.952,0.936,5.904,1.872,8.928,2.88c1.584,1.224,3.168,2.52,4.752,3.816
		c1.944,2.16,4.32,4.104,6.12,6.408c0,0.216,0,0.432,0,0.72C81.288,445.41,81.288,445.41,80.352,445.41L80.352,445.41z
		 M88.488,444.042c-0.864-1.656-0.864-1.656-0.936-2.592c1.224,0.216,2.52,0.504,3.816,0.792c0.648,0.432,1.296,0.864,1.944,1.368
		c-0.288,0.36-0.288,0.36-2.664,0.576C89.928,444.186,89.208,444.114,88.488,444.042L88.488,444.042z M389.232,443.97
		c-12.024-3.888-12.024-3.888-19.728-6.768c-0.072-0.072-0.144-0.216-0.216-0.36c3.384,0.144,3.384,0.144,8.64,1.08
		c5.04,1.944,5.04,1.944,11.5201,5.184C389.52,443.826,389.52,443.826,389.232,443.97L389.232,443.97z M244.512,442.746
		c-9.864-5.76-9.864-5.76-13.968-7.704c-1.656-0.432-1.656-0.432-9.144-3.888c-0.072-0.288-0.144-0.648-0.216-1.008
		c0.792,0,1.584,0.072,2.448,0.144c1.008,0.576,2.016,1.224,3.096,1.872c2.88,0.648,5.7599,1.296,8.64,1.944
		c2.16,0.936,2.16,0.936,5.256,2.88c0.72,0.648,1.44,1.296,2.16,1.944c0.72,1.152,1.44,2.304,2.16,3.456
		C244.8,442.458,244.656,442.602,244.512,442.746L244.512,442.746z M326.304,442.53c-2.16-1.296-4.32-2.592-6.48-3.888
		c-5.04-4.032-5.976-5.04-9-7.272c0-0.216,0-0.432-0.072-0.72c2.592,0.36,5.256,0.36,9.576,0.792
		c1.872,0.648,3.8159,1.296,5.7599,1.944c4.104,1.944,4.104,1.944,8.856,3.816c1.008,0.648,2.088,1.296,3.168,1.944
		c-0.288,0.216-0.288,0.216-2.448,0c-2.5201-1.152-5.04-2.376-7.632-3.6c-0.72,0-1.44,0.072-2.16,0.144
		c0,0.792-0.072,1.584-0.144,2.376c0.504,1.44,1.08,2.88,1.656,4.32C327.024,442.386,326.664,442.458,326.304,442.53L326.304,442.53
		z M105.768,442.242c-2.664-1.872-2.664-1.872-4.608-3.672c-0.072-0.216-0.144-0.432-0.216-0.72c6.48,1.8,6.48,1.8,9.144,2.88
		c-0.216,0.36-1.944,0.792-2.664,1.296C106.92,442.098,106.344,442.17,105.768,442.242L105.768,442.242z M298.008,438.93
		c-4.104-1.944-4.104-1.944-7.488-3.96c-0.072-0.36-0.144-0.792-0.216-1.224c1.008,0.432,2.088,0.864,3.168,1.296
		c1.728,1.152,3.456,2.376,5.256,3.6C298.512,438.93,298.512,438.93,298.008,438.93L298.008,438.93z M198.432,436.482
		c-11.808-3.816-11.808-3.816-14.832-5.112c0-0.288,0.072-0.576,0.144-0.864c5.976-0.072,11.952-0.144,18-0.216
		c0.144,0.216,0.288,0.432,0.504,0.72c2.592,1.08,5.256,2.16,7.92,3.312c0.864,0.648,1.728,1.296,2.664,1.944
		c-0.288,0.216-7.488-1.44-8.928-1.44c-0.576-0.432-1.224-0.936-1.872-1.44c-0.648,0.216-1.296,0.432-1.944,0.72
		c-0.072,0.576-0.216,1.152-0.36,1.8C198.648,436.626,198.648,436.626,198.432,436.482L198.432,436.482z M85.824,435.042
		c-2.88-0.72-2.88-0.72-6.192-0.936c-2.16-2.16-2.16-2.16-4.608-4.104c-1.008-0.576-2.016-1.224-3.096-1.872
		c-2.088-0.648-4.176-1.296-6.264-2.016c0-0.216,0-0.432,0-0.72c7.2-0.864,7.2-0.864,12.024-1.152
		c0.504,0.144,1.08,0.288,1.656,0.504c3.456,2.52,6.912,5.112,10.368,7.704c0,0.576,0,1.152,0.072,1.8
		c-0.144,0.216-0.288,0.432-0.504,0.72C88.128,434.97,86.976,434.97,85.824,435.042L85.824,435.042z M300.384,433.386
		c-3.888-2.304-7.776-4.608-11.7361-6.984c-1.368,0-2.736,0-4.104,0c-1.152-0.936-2.376-1.872-3.6-2.88
		c-0.7921,0.144-1.584,0.288-2.376,0.504c-0.864,2.088-0.864,2.088-0.864,3.024c0.144,0.36,0.288,0.792,0.504,1.224
		c0.432,0.36,0.936,0.72,1.44,1.152c0,0.144-0.072,0.36-0.144,0.576c-0.36,0.072-0.72,0.144-1.152,0.288
		c-6.264-1.008-6.264-1.008-17.064-1.944c-1.728,0-3.456,0-5.256,0c-3.672-0.36-7.344-0.72-11.088-1.08c0-0.288,0-0.576,0-0.936
		c6.48-1.8,6.48-1.8,17.784-4.248c15.12,0.288,15.12,0.288,21.6,0.72c3.528,0.792,7.056,1.584,10.584,2.448c0.792,0,1.584,0,2.376,0
		c0.936,0.432,1.872,0.936,2.88,1.44c0.072,1.368,0.216,2.736,0.36,4.176c0.216,0.576,0.432,1.152,0.72,1.728
		c0,0.216-0.072,0.504-0.144,0.792C300.888,433.386,300.672,433.386,300.384,433.386L300.384,433.386z M311.904,424.962
		c-2.16-0.648-4.32-1.296-6.48-2.016c0-0.216,0-0.432,0-0.72c12.528-0.864,12.528-0.864,15.408-0.864
		c0.072,0.072,0.144,0.144,0.216,0.288c-0.72,0.432-0.72,0.432-4.32,1.44c-1.152,0.576-2.376,1.224-3.6,1.872
		C312.768,424.962,312.336,424.962,311.904,424.962L311.904,424.962z M352.512,422.37c-0.288-0.144-0.648-0.36-1.008-0.576
		c0-0.288,0-0.576,0-0.864c1.944-0.288,1.944-0.288,6.48-0.144c-0.216,0.36-0.216,0.36-3.312,1.296
		C353.952,422.154,353.232,422.226,352.512,422.37L352.512,422.37z M398.5919,415.17c-0.4319,0-0.936-0.072-1.44-0.144
		c0-0.432,0-0.936,0.0721-1.44c0.72-0.792,1.512-1.656,2.304-2.52c0.936-0.216,0.936-0.216,5.256,0
		c4.32,1.008,8.64,2.016,12.96,3.096c-0.216,0.288-0.216,0.288-12.672,1.008C402.912,415.17,400.752,415.17,398.5919,415.17
		L398.5919,415.17z M526.248,414.882c-1.8721-1.224-3.816-2.52-5.76-3.816c-4.1041-3.816-4.1041-3.816-5.0402-5.04
		c-11.3039-8.64-11.3039-8.64-13.6799-10.8c-1.8721-1.224-3.816-2.52-5.76-3.816c-2.736-1.368-5.472-2.736-8.2079-4.176
		c0-0.216,0-0.432,0-0.72c1.728-0.432,1.728-0.432,4.824-0.432c5.7599,1.008,5.7599,1.008,6.984,1.44c0,1.008,0,2.016,0.072,3.024
		c1.0081,1.008,1.0081,1.008,4.248,2.88c1.44,0.576,2.88,1.152,4.32,1.8c2.0879,1.224,4.1759,2.52,6.2639,3.816
		c1.4399,1.368,2.88,2.736,4.3199,4.104c2.6641,3.816,5.4,7.632,8.1361,11.52C526.752,414.738,526.536,414.81,526.248,414.882
		L526.248,414.882z M445.104,413.01c-4.536-1.944-4.536-1.944-7.92-3.888c-4.104-3.168-8.28-6.336-12.456-9.576
		c-0.792-0.864-1.584-1.728-2.376-2.664c-1.8-1.224-3.672-2.52-5.544-3.816c-2.16-0.936-2.16-0.936-5.544-1.944
		c-3.096,0-3.096,0-3.456-0.288c-0.144-1.8-0.36-3.672-0.576-5.544c1.512,0.216,3.024,0.504,4.536,0.792
		c2.88,1.008,6.696,1.944,9.144,2.88c1.512,0.936,3.024,1.872,4.536,2.88c2.592,3.096,5.256,6.192,7.92,9.288
		c1.944,1.944,3.9601,3.888,5.976,5.832c5.04,3.888,5.04,3.888,7.92,5.76C447.048,413.01,447.048,413.01,445.104,413.01
		L445.104,413.01z M428.544,411.57c-3.528-1.08-7.056-2.16-10.656-3.24c0-0.216-0.0721-0.432-0.144-0.72
		c1.656,0,3.312-0.072,5.04-0.144c0.144-0.144,0.288-0.288,0.504-0.504c0.36,0,0.792,0,1.224,0c1.728,1.44,3.456,2.88,5.256,4.32
		C429.552,411.57,429.552,411.57,428.544,411.57L428.544,411.57z M476.568,409.626c-2.304-1.224-4.608-2.52-6.984-3.816
		c-1.656-1.296-3.312-2.592-5.04-3.888c-1.512-1.512-3.024-3.024-4.536-4.536c-2.304-1.872-4.608-3.816-6.984-5.76
		c-0.288-0.36-0.576-0.792-0.936-1.224c-1.8-1.368-3.6-2.736-5.4-4.176c0-0.216,0-0.432,0.072-0.72
		c1.44,0.432,2.88,0.864,4.392,1.296c2.88,1.944,2.88,1.944,3.672,2.808c0.144,0.36,0.36,0.792,0.576,1.224
		c1.224,0.792,1.224,0.792,2.232,1.008c3.96,2.52,7.92,5.112,11.952,7.704c1.872,0.936,3.816,1.872,5.76,2.88
		c0.72,2.16,1.512,4.392,2.304,6.624c0,0.144-0.072,0.36-0.144,0.576C477.216,409.626,476.9279,409.626,476.568,409.626
		L476.568,409.626z M497.232,407.25c-16.848-8.64-20.16-10.584-24.264-12.528c-2.808-1.872-5.616-3.816-8.424-5.76
		c0-0.216-0.072-0.504-0.144-0.792c1.368-0.432,2.8079-0.864,4.248-1.368c0.792-0.072,1.584-0.144,2.376-0.216
		c7.92,3.816,7.92,3.816,10.08,5.256c1.368,1.296,2.736,2.592,4.1039,3.888c0.864,0.576,1.7281,1.224,2.6641,1.872
		c8.856,7.92,8.856,7.92,10.08,9.36C497.736,407.034,497.5199,407.106,497.232,407.25L497.232,407.25z M533.6639,404.082
		c-2.448-1.224-4.896-2.52-7.4159-3.816c-1.368-1.008-2.7361-2.016-4.1041-3.024c0.432,0,0.936,0.072,1.4401,0.144
		c3.168,1.944,3.168,1.944,7.2,3.816c1.0801,0.792,2.2319,1.656,3.384,2.52C534.024,403.794,533.8799,403.938,533.6639,404.082
		L533.6639,404.082z M404.352,402.93c-0.72,0-1.44-0.072-2.16-0.144c0.072-0.72,0.144-1.44,0.288-2.16
		c0.432-0.504,0.864-1.008,1.368-1.584c0.72,0,0.72,0,6.696,3.024c-0.216,0.144-0.432,0.36-0.72,0.576
		C408.024,402.714,406.224,402.786,404.352,402.93L404.352,402.93z M94.464,399.33c-5.04-0.504-5.04-0.504-19.872-1.08
		c0.144-0.36,0.288-0.72,0.432-1.08c3.384-1.008,3.384-1.008,13.68-2.88c1.728-0.216,3.528-0.432,5.328-0.72
		c4.896,0.072,9.864,0.144,14.832,0.216c1.728,0.288,3.528,0.576,5.328,0.936c6.912,1.944,6.912,1.944,7.92,2.52
		c-0.072,0.072-0.144,0.216-0.288,0.36c-8.136,1.008-8.136,1.008-14.4,1.44C103.104,399.114,98.784,399.186,94.464,399.33
		L94.464,399.33z M142.992,397.602c-1.08-0.072-2.232-0.144-3.384-0.216c-0.504-0.576-0.504-0.576-0.648-1.512
		c1.944-4.104,1.944-4.104,3.384-6.264c0.288-1.008,0.576-2.016,0.936-3.096c2.52-4.32,5.112-8.64,7.704-12.96
		c1.224-2.448,2.52-4.968,3.816-7.488c15.408-23.472,19.224-29.952,20.592-31.824c0.216,0,0.504,0.072,0.792,0.144
		c1.944,38.664,1.944,43.488,2.88,59.544c-0.072,0.72-0.144,1.44-0.216,2.16c-0.144,0.072-0.36,0.216-0.576,0.36
		c-7.416,0.36-14.832,0.72-22.32,1.152C151.632,397.602,147.312,397.602,142.992,397.602L142.992,397.602z M192.672,395.226
		c-0.432-0.36-0.432-0.36-0.648-1.296c0-1.08,0.072-2.232,0.144-3.384c2.16-0.36,2.16-0.36,23.256-1.296
		c9.144-1.008,18.288-1.44,22.824-1.944c4.824,0,9.72,0,14.616,0c4.4641-0.432,8.928-0.936,13.4641-1.44
		c4.3199-0.144,8.64-0.288,12.96-0.504c10.368-0.936,20.736-1.872,31.176-2.88c1.8-0.288,3.672-0.576,5.544-0.936
		c5.256-0.216,7.2,0,23.256,0.216c3.888,0.288,3.888,0.288,4.32,0.504c1.656-0.072,3.312-0.144,5.04-0.216
		c0.432,0.576,0.864,1.152,1.296,1.8c0,0.288,0,0.576,0,0.936c-0.576,0.36-0.576,0.36-3.888,0.864
		c-2.952,0.144-5.904,0.288-8.9279,0.432c-2.4481,0.288-4.896,0.648-7.416,1.008c-42.48,3.6-51.624,4.032-55.224,4.536
		c-8.352,0.432-16.776,0.936-25.2,1.44c-4.464,0.072-8.928,0.144-13.392,0.216c-3.096,0.288-6.192,0.648-9.36,1.008
		c-5.904,0.288-11.808,0.576-17.784,0.936C203.4,395.226,198.072,395.226,192.672,395.226L192.672,395.226z M58.032,390.69
		c-4.32-3.888-4.32-3.888-7.848-6.624c0-0.288,0-0.576,0-0.936c3.384-2.376,6.84-4.752,10.296-7.2
		c0.36-0.072,0.72-0.144,1.152-0.216c-1.872,11.016-1.872,11.016-2.808,14.616C58.248,390.834,58.248,390.834,58.032,390.69
		L58.032,390.69z M134.352,389.826c-0.576-1.08-1.224-2.16-1.872-3.312c-0.936-2.304-1.872-4.608-2.88-6.984
		c-1.224-4.464-2.52-8.928-3.816-13.464c-0.432-2.448-0.936-4.896-1.44-7.416c0.072-2.232,0.144-4.464,0.216-6.696
		c0.36-2.376,0.792-4.752,1.224-7.2c4.32-1.872,8.712-3.744,13.104-5.688c5.76-1.944,5.76-1.944,18.936-5.76
		c2.736-0.648,5.472-1.296,8.208-1.944c1.08,0,2.16,0,3.312-0.072c-0.072,0.4319-0.216,0.9359-0.36,1.44
		c-0.36,0.504-0.792,1.08-1.224,1.656c-0.144,0.432-0.288,0.936-0.432,1.44c-4.824,8.208-5.328,8.64-7.2,12.024
		c-2.52,3.744-5.112,7.488-7.704,11.304c-3.816,6.696-3.816,6.696-7.704,14.4c-3.816,6.192-8.64,15.336-9.432,16.416
		C135,389.97,134.712,389.898,134.352,389.826L134.352,389.826z M32.112,387.09c-2.448-2.16-2.448-2.16-4.608-4.68
		c-0.576-0.936-1.224-1.872-1.872-2.88c0-0.432-0.072-0.936-0.144-1.44c0.288-0.648,0.576-1.296,0.936-1.944
		c1.08-1.008,2.232-2.016,3.384-3.096c1.224-1.6559,2.52-3.312,3.816-5.0399c1.728-1.224,3.456-2.5201,5.184-3.816
		c1.296-1.296,2.592-2.592,3.96-3.888c3.312-2.592,6.624-5.256,9.936-7.92c3.096-1.872,6.192-3.816,9.36-5.76
		c11.52-5.688,23.04-11.376,34.56-17.136c1.872-0.648,3.816-1.296,5.76-1.944c1.368-0.648,2.736-1.296,4.104-1.944
		c6.264-1.872,6.264-1.872,8.64-2.88c2.448-0.576,4.896-1.224,7.416-1.872c7.488-1.296,15.048-2.592,22.608-3.888
		c5.904-0.216,11.808-0.432,17.712-0.72c1.296,1.08,2.592,2.232,3.888,3.384c1.872,0.936,3.816,1.872,5.76,2.88
		c0.288,0.36,0.576,0.72,0.936,1.08c-0.072,0.072-0.144,0.216-0.216,0.36c-3.024,0.288-6.048,0.576-9.144,0.936
		c-7.344,1.872-14.688,3.816-22.104,5.76c-1.872,0.648-3.816,1.296-5.76,1.944c-8.856,3.816-20.376,8.136-20.592,8.424
		c-18.72,7.632-24.264,9.576-33.12,13.392c-5.976,3.168-11.952,6.408-18,9.648c-10.584,7.632-10.584,7.632-11.52,8.64
		c-3.384,1.872-3.384,1.872-11.808,7.632c-1.44,1.368-2.88,2.7361-4.32,4.104c-1.152,0.864-2.376,1.728-3.6,2.664
		C32.904,387.09,32.544,387.09,32.112,387.09L32.112,387.09z M191.664,383.922c-0.72-4.32-1.512-8.64-2.304-13.032
		c0-1.584,0-3.168,0-4.824c0.504-1.872,0.504-1.872,2.448-6.696c0.288-1.44,0.576-2.88,0.936-4.32
		c0.936-1.944,0.936-1.944,1.944-5.256c0.288-1.512,0.576-3.024,0.936-4.608c1.224-3.888,2.52-7.776,3.816-11.736
		c1.872-6.984,3.816-14.04,5.76-21.096c1.296-3.24,2.592-6.552,3.888-9.864c1.872-7.2,2.88-9.576,4.752-16.344
		c1.944-5.472,7.704-24.912,9.648-30.456c1.224-4.248,2.52-8.496,3.816-12.744c3.816-10.8,5.76-15.336,8.784-24.48
		c0.288,0,0.576,0.072,0.936,0.144c1.944,2.952,5.616,9.936,9.504,15.984c0,0.288,0,0.576,0,0.936
		c-0.288,0.288-0.648,0.576-1.008,0.936c-3.816,13.248-3.816,13.248-7.632,24.768c-2.5201,7.056-5.112,14.184-7.704,21.312
		c-3.816,12.744-5.76,18-9.576,30.024c-1.944,4.824-1.944,4.824-3.888,11.016c-0.576,2.52-1.224,5.112-1.872,7.704
		c-1.008,2.376-2.88,8.424-3.888,10.584c-0.936,3.168-1.872,6.336-2.88,9.576c-1.152,6.2639-1.44,6.696-3.312,16.056
		c-0.936,3.6-1.872,7.2-2.88,10.8c-1.944,4.824-1.944,4.824-2.304,5.184C196.992,383.634,194.328,383.778,191.664,383.922
		L191.664,383.922z M357.768,383.85c-0.072-0.648-0.216-1.296-0.36-1.944c-1.44-1.872-1.44-1.872-10.08-10.296
		c-4.536-5.04-9.072-10.08-13.6801-15.12c-2.232-2.808-4.464-5.616-6.768-8.424c-0.144-0.432-0.36-0.936-0.576-1.44
		c0.72,0.288,1.44,0.576,2.16,0.864c3.816,2.5201,7.632,5.04,11.52,7.632c4.32,2.52,8.64,5.112,12.96,7.704
		c3.888,2.52,7.848,5.112,11.808,7.704c16.776,9.576,16.776,9.576,17.28,10.152c-0.144,0.216-0.288,0.432-0.504,0.648
		C363.528,383.202,361.1519,383.706,357.768,383.85L357.768,383.85z M206.784,383.13c0.36-1.656,0.36-1.656,2.304-6.264
		c1.872-9.072,3.816-16.776,4.752-21.816c2.52-7.848,5.112-15.696,7.704-23.544c0.648-2.88,1.296-5.76,1.944-8.64
		c2.88-7.416,2.88-7.416,9.576-27.576c1.224-4.392,2.52-8.784,3.816-13.176c2.52-6.912,5.112-13.896,7.704-20.88
		c1.944-6.336,3.888-12.672,5.904-19.008c0.288,0.072,0.576,0.216,0.936,0.36c2.52,4.032,5.04,8.064,7.56,12.168
		c0,0.36,0,0.72,0,1.152c-0.144,0.144-0.288,0.288-0.504,0.504c-0.576,2.52-1.224,5.112-1.872,7.704
		c-1.008,2.376-1.008,2.376-8.64,28.296c-3.888,11.016-5.76,15.624-6.768,18.936c-0.576,2.736-1.224,5.472-1.872,8.208
		c-0.648,1.44-1.296,2.88-1.944,4.32c-2.5201,7.776-5.112,15.624-7.704,23.472c-3.816,13.464-3.816,13.464-4.752,17.784
		c-1.872,5.688-3.816,11.376-5.76,17.064c-0.648,0.144-1.296,0.36-2.016,0.576C213.696,382.842,210.24,382.986,206.784,383.13
		L206.784,383.13z M226.512,381.474c0.072-0.72,0.144-1.44,0.288-2.16c1.008-2.448,1.008-2.448,4.824-14.904
		c3.816-14.4,4.824-17.064,5.256-19.224c1.944-4.752,2.88-8.136,4.824-13.392c0.648-2.16,1.2961-4.32,1.944-6.48
		c0.576-1.44,1.224-2.88,1.872-4.32c1.944-8.928,1.944-8.928,2.88-11.808c1.944-4.536,1.944-4.536,5.76-15.552
		c7.7039-25.704,7.7039-25.704,9.072-29.304c0.216,0,0.432-0.072,0.72-0.144c3.816,6.624,3.816,6.624,8.64,14.04
		c-1.8719,5.544-3.744,12.528-7.632,24.048c-1.872,7.92-1.872,7.92-5.76,21.312c-3.816,11.52-4.752,15.12-6.696,20.664
		c-0.7921,3.24-1.584,6.552-2.376,9.864c-3.888,8.136-3.888,8.136-4.824,10.8c-0.648,2.88-1.296,5.76-1.944,8.64
		c-0.72,2.232-1.44,4.464-2.232,6.768C236.304,380.682,231.408,381.042,226.512,381.474L226.512,381.474z M248.328,380.61
		c0-0.72-0.072-1.512-0.144-2.304c0.936-2.592,0.936-2.592,2.88-11.232c0.6479-1.728,1.296-3.528,1.944-5.328
		c0.936-1.872,1.872-3.816,2.88-5.76c0.576-2.664,1.224-5.4,1.872-8.136c5.76-18.72,5.76-18.72,7.704-23.76
		c3.816-13.68,3.816-13.68,5.76-21.6c0.6479-1.656,1.296-3.312,1.944-5.0399c1.08-3.816,2.16-7.632,3.312-11.5201
		c0.288,0,0.576-0.072,0.864-0.144c1.944,3.024,2.736,4.968,7.056,12.888c-0.072,0.792-0.144,1.584-0.216,2.3759
		c-5.76,20.376-5.76,20.376-9.576,32.4001c-0.648,3.24-1.296,6.5519-1.944,9.864c-2.5201,6.552-5.112,13.104-7.704,19.656
		c-1.872,6.48-1.872,6.48-3.816,11.736c-0.288,1.512-0.576,3.024-0.936,4.608c-3.456,0.792-3.456,0.792-8.064,1.296
		C250.92,380.61,249.624,380.61,248.328,380.61L248.328,380.61z M266.832,378.81c0.216-1.224,0.504-2.52,0.792-3.816
		c1.944-5.328,1.944-5.328,3.816-11.808c2.232-5.544,4.464-11.16,6.7679-16.776c0.576-3.024,1.224-6.048,1.872-9.144
		c1.296-4.104,2.592-8.28,3.888-12.456c1.224-4.824,2.52-9.72,3.816-14.616c0.432-1.152,0.864-2.304,1.368-3.528
		c0.216,0,0.432,0,0.72,0c0.576,0.72,1.224,1.44,1.872,2.16c2.52,3.96,5.112,7.992,7.704,12.024c0,0.288,0,0.576,0.072,0.864
		c-0.288,0.432-0.576,0.936-0.936,1.44c-1.224,4.176-2.52,8.424-3.816,12.672c-1.296,3.24-2.592,6.552-3.888,9.864
		c-1.224,3.96-2.52,7.992-3.816,12.024c-0.648,1.512-1.296,3.024-1.944,4.536c-1.584,5.184-3.168,10.368-4.752,15.624
		c-0.144,0.144-0.288,0.288-0.504,0.432C276.408,378.666,276.408,378.666,266.832,378.81L266.832,378.81z M287.7119,377.73
		c0-0.504-0.072-1.008-0.144-1.584c0.576-2.448,1.224-4.896,1.872-7.416c1.296-3.384,2.592-6.84,3.888-10.296
		c1.224-3.96,2.52-7.992,3.8159-12.024c0.648-1.44,1.2961-2.88,1.944-4.32c1.44-4.68,2.88-9.432,4.32-14.184
		c0.36,0,0.72-0.072,1.08-0.144c2.88,4.248,5.76,8.568,8.712,12.888c-0.072,0.792-0.144,1.584-0.216,2.376
		c-3.816,10.584-5.76,16.848-11.52,32.904c-0.144,0.144-0.288,0.288-0.504,0.504C295.848,377.226,295.848,377.226,287.7119,377.73
		L287.7119,377.73z M308.5919,375.786c0-0.216-0.072-0.504-0.144-0.792c1.872-6.048,1.872-6.048,5.76-16.56
		c0.288-1.368,0.576-2.736,0.936-4.104c0.792-2.088,1.584-4.176,2.376-6.264c0.288,0,0.576-0.072,0.864-0.144
		c3.168,3.816,6.408,7.632,9.6479,11.52c0.144,0.504,0.36,1.0081,0.576,1.584c-6.768,12.024-6.768,12.024-7.2,13.248
		c-3.384,0.504-6.768,1.0081-10.224,1.512C310.32,375.786,309.456,375.786,308.5919,375.786L308.5919,375.786z M331.128,375.066
		c-1.08,0-2.232,0-3.384-0.072c0.072-0.648,0.216-1.296,0.36-1.944c1.944-3.384,1.944-3.384,4.32-6.696
		c0.36,0,0.72-0.072,1.08-0.144c0.72,0.576,1.44,1.224,2.16,1.872c1.8,2.16,3.672,4.392,5.544,6.624
		c-0.072,0.072-0.144,0.216-0.216,0.36C337.392,374.85,337.392,374.85,331.128,375.066L331.128,375.066z M188.784,345.474
		c-0.144-5.688-0.36-11.376-0.576-17.064c0-7.344,0-14.688,0-22.104c6.696-21.096,6.696-21.096,10.512-34.056
		c3.888-10.296,3.888-10.296,6.768-18.936c1.872-6.768,1.872-6.768,7.632-24.048c0.648-2.664,1.296-5.4,1.944-8.136
		c2.952-8.568,5.976-17.136,9-25.704c0.216,0,0.432-0.072,0.72-0.144c2.16,4.176,4.392,8.424,6.624,12.672
		c0,0.72-0.504,1.152-1.224,3.8159c0.072,1.008,0.144,2.0161,0.216,3.096c-0.576,2.376-1.224,4.752-1.872,7.2
		c-1.296,3.24-2.592,6.552-3.888,9.864c-1.872,5.76-3.816,11.5201-5.76,17.28c-7.632,25.704-11.52,37.656-12.456,41.256
		c-1.944,5.328-1.944,5.328-2.88,9.36c-1.224,3.312-2.52,6.696-3.816,10.08c-1.872,6.84-3.816,13.752-5.76,20.664
		C189.144,345.186,189.144,345.186,188.784,345.474L188.784,345.474z M11.448,335.826c-0.72-5.616-1.512-11.304-2.304-16.992
		c-0.072-2.592-0.144-5.256-0.216-7.92c0.144-0.792,0.288-1.584,0.432-2.448c3.888-3.168,7.776-6.336,11.664-9.576
		c6.12-3.816,12.312-7.632,18.504-11.52c5.184-2.52,10.368-5.04,15.624-7.56c26.352-11.52,26.352-11.52,29.232-12.528
		c3.816-0.936,7.632-1.872,11.52-2.88c5.832-1.08,11.664-2.16,17.568-3.312c1.8,0,3.6,0,5.472,0c1.8,3.024,1.8,3.024,2.736,5.184
		c2.52,4.032,5.112,8.136,7.704,12.2401c1.584,2.232,3.168,4.464,4.824,6.696c0.072,0.288,0.144,0.576,0.216,0.936
		c-2.088,0.144-4.176,0.36-6.336,0.576c-11.52,1.944-11.52,1.944-29.736,5.76c-4.464,1.296-8.928,2.592-13.464,3.888
		c-5.112,1.872-10.224,3.816-15.336,5.76c-5.112,2.52-10.224,5.04-15.408,7.632c-6.264,3.816-12.6,7.632-18.936,11.52
		c-1.728,1.296-3.456,2.592-5.256,3.888c-5.76,3.6-11.52,7.2-17.28,10.8C12.312,335.97,11.88,335.898,11.448,335.826L11.448,335.826
		z M174.672,318.906c-0.792-0.288-1.584-0.576-2.448-0.936c-4.752-4.104-7.632-6.048-9.792-7.92
		c-0.288-0.144-0.648-0.288-1.008-0.504c-1.872-2.376-6.192-6.624-14.4-16.056c-3.816-4.824-3.816-4.824-11.376-15.264
		c-2.808-4.392-5.616-8.784-8.424-13.176c0.504-5.04,1.08-10.08,1.656-15.12c1.296-6.552,2.592-13.104,3.888-19.656
		c1.224-4.896,2.52-9.792,3.816-14.688c7.704-23.256,7.704-23.256,11.52-33.552c0.288-0.072,0.576-0.144,0.864-0.288
		c0.216,3.312,0.504,6.696,0.792,10.08c0.648,4.608,1.296,9.288,1.944,13.968c0.648,3.096,1.296,6.192,1.944,9.36
		c0.576,1.872,1.224,3.816,1.872,5.76c1.584,3.168,3.168,6.336,4.824,9.576c1.44,2.088,2.88,4.176,4.32,6.264
		c1.224,0.936,1.224,0.936,4.824,4.752c0.864,0.6479,1.8,1.296,2.736,1.944c0.648,0.72,1.296,1.44,2.016,2.16
		c-0.216,7.2-0.432,14.4-0.72,21.6c0.288,0.936,1.224,17.496,1.44,25.92c0.288,2.16,0.288,2.16,0.72,25.2
		c-0.072,0.144-0.144,0.36-0.288,0.576C175.176,318.906,174.96,318.906,174.672,318.906L174.672,318.906z M187.128,286.65
		c-0.36-18.504-0.36-18.504-0.864-26.424c-0.936-8.136-0.936-8.136-1.224-13.896c0.144-0.144,0.288-0.288,0.504-0.504
		c1.224-4.032,2.52-8.136,3.816-12.24c1.944-4.536,1.944-4.536,8.64-23.976c1.296-3.024,2.592-6.048,3.888-9.144
		c5.76-18,7.632-25.2,9.216-30.024c0.288,0,0.648,0,1.008,0c3.672,7.992,3.672,7.992,7.992,16.344
		c-0.072,0.576-0.144,1.1519-0.216,1.728c-3.528,10.152-7.056,20.304-10.584,30.456c-1.944,8.136-1.944,8.136-3.816,14.4
		c-4.824,14.184-5.76,18-9.648,29.52c-0.576,1.512-1.224,3.024-1.872,4.536c-2.016,6.336-4.032,12.672-6.12,19.08
		C187.632,286.506,187.416,286.578,187.128,286.65L187.128,286.65z M11.664,254.466c0.864-6.696,0.864-6.696,1.8-11.232
		c0.936-2.808,1.872-5.616,2.88-8.424c2.52-6.408,5.112-12.816,7.704-19.224c0.288-0.432,0.576-0.864,0.864-1.296
		c0.432-0.2881,0.936-0.648,1.44-1.008c0.576-0.864,1.224-1.728,1.872-2.592c2.736-2.592,5.472-5.256,8.208-7.92
		c3.384-2.52,6.84-5.112,10.296-7.7039c4.824-2.88,4.824-2.88,5.256-3.384c4.608-2.52,9.288-5.04,13.968-7.632
		c8.64-3.888,8.64-3.888,22.752-9.648c3.96-1.152,7.992-2.376,12.024-3.6c0.288,0,0.576,0.072,0.936,0.144
		c0,4.536,0.072,9.072,0.144,13.68c0.288,2.808,0.576,5.616,0.936,8.424c0,1.8,0,3.672,0,5.544c0.72,5.256,1.44,10.512,2.16,15.84
		c-3.456,0.576-6.912,1.152-10.44,1.728c-5.04,1.296-10.08,2.592-15.12,3.888c-1.8,0.576-3.6,1.224-5.472,1.872
		c-11.16,5.112-22.392,10.224-33.624,15.408c-2.376,1.224-4.752,2.52-7.2,3.816c-1.728,1.224-3.456,2.52-5.256,3.816
		c-4.896,3.024-9.792,6.048-14.688,9.144C12.672,254.178,12.168,254.322,11.664,254.466L11.664,254.466z M174.672,238.266
		c-1.44-0.936-1.44-0.936-5.76-5.256c-0.648-0.936-1.296-1.872-1.944-2.808c-2.376-4.752-4.752-9.504-7.128-14.328
		c-1.872-10.8-1.872-10.8-3.816-25.704c-0.936-18.216-0.936-18.216-0.936-23.544c-0.144-0.72-0.288-1.44-0.504-2.16
		c0.216-1.656,1.224-4.032,3.096-10.08c1.296-3.384,2.592-6.84,3.888-10.296c1.224-2.52,2.52-5.112,3.816-7.704
		c0.648-0.576,1.296-1.224,1.944-1.872c0.864-1.296,1.8-2.6639,2.736-4.032c0.288,0,0.576,0.072,0.864,0.144
		c0.144,1.08,0.288,2.232,0.432,3.384c0.144,11.592,0.288,23.184,0.504,34.776c1.08,19.8,2.232,39.672,3.384,59.544
		c0,3.24,0,6.552,0,9.864C174.888,238.41,174.888,238.41,174.672,238.266L174.672,238.266z M185.184,225.162
		c-0.36-12.672-0.36-12.672-0.864-20.376c0-5.184,0-10.368,0-15.552c1.296-3.312,2.592-6.696,3.888-10.08
		c4.752-14.4,5.76-16.56,7.632-23.04c1.944-5.544,1.944-5.544,4.464-11.592c0.288,0,0.648,0,1.008,0
		c3.672,10.368,5.616,14.904,5.832,16.128c-1.872,6.984-3.816,14.04-5.76,21.096c-1.872,5.904-3.816,11.808-5.76,17.784
		c-3.816,9.144-3.816,9.144-7.704,19.656c-0.936,3.168-0.936,3.168-2.376,6.048C185.472,225.234,185.328,225.234,185.184,225.162
		L185.184,225.162z M108.432,192.042c-0.144-0.216-0.288-0.432-0.432-0.648c-0.288-3.24-0.576-6.552-0.936-9.864
		c0.504-10.584,0.504-10.584,0.504-20.88c0.936-4.68,1.872-9.432,2.88-14.184c1.224-4.392,2.52-8.784,3.816-13.176
		c0.648-1.584,1.296-3.168,1.944-4.824c1.872-3.096,2.376-4.536,3.312-5.976c0.936-2.304,1.872-4.6081,2.88-6.984
		c1.872-2.448,3.816-4.8959,5.76-7.416c5.184-5.544,10.368-11.16,15.624-16.7761c3.816-4.824,5.76-7.7039,9.576-12.0239
		c3.888-5.256,3.888-5.256,7.704-11.304c2.52-3.024,5.112-6.048,7.704-9.072c0.288,0,0.576,0,0.864-0.072
		c0.144,9.72,0.36,19.512,0.576,29.304c-0.288,10.7999,0,14.688,0,19.728c-2.16,2.16-6.984,5.976-10.8,9.792
		c-3.888,4.608-3.888,4.608-19.224,24.48c-0.936,1.728-1.944,2.88-3.816,6.264c-3.888,5.256-4.32,6.264-7.704,10.8
		c-3.816,6.48-3.816,6.48-13.464,21.384c-2.016,3.816-4.032,7.704-6.048,11.592C108.936,192.186,108.72,192.114,108.432,192.042
		L108.432,192.042z M183.024,172.674c-0.576-10.656-1.152-21.312-1.8-31.968c0.144-0.504,0.288-1.08,0.504-1.656
		c0-1.224,0-2.52,0-3.8159c0.504-0.2881,1.008-0.6481,1.584-1.0081c3.672-10.08,3.672-10.08,6.48-16.56
		c0.216,0,0.432-0.072,0.72-0.144c2.016,5.04,4.032,10.152,6.048,15.264c-0.216,1.584-0.432,3.168-0.72,4.824
		c-1.872,5.976-1.872,5.976-5.76,16.056c-1.872,6.48-1.872,6.48-6.192,18.72C183.6,172.458,183.312,172.53,183.024,172.674
		L183.024,172.674z M180.864,120.906c-0.36-1.8-0.36-1.8-1.584-24.12c1.008-0.936,1.008-0.936,2.808-3.456
		c0.216,0,0.432,0,0.72,0.072c1.296,4.248,2.592,8.496,3.96,12.744c0,0.6479,0,1.296,0,1.944c-1.584,3.96-3.168,7.992-4.824,12.024
		C181.08,121.05,181.08,121.05,180.864,120.906L180.864,120.906z M179.424,92.0341c-0.072-3.0241-0.144-6.048-0.216-9.144
		c0.216,0,0.432,0,0.72,0c1.296,5.76,1.296,5.76,1.296,7.416C180.288,91.53,180.288,91.53,179.424,92.0341L179.424,92.0341z"/>
</g>
</svg>
