<?xml version="1.0" encoding="utf-8"?>
<!-- Generator: Adobe Illustrator 21.1.0, SVG Export Plug-In . SVG Version: 6.00 Build 0)  -->
<svg version="1.1" id="Sa" xmlns="http://www.w3.org/2000/svg" xmlns:xlink="http://www.w3.org/1999/xlink" x="0px" y="0px"
	 viewBox="0 0 487.44 519.624" enable-background="new 0 0 487.44 519.624" xml:space="preserve">
<g>
	<path fill-rule="evenodd" clip-rule="evenodd" d="M63.936,519.624c-0.36-0.36-0.36-0.36-0.36-2.016
		c0.648-0.36,0.648-0.36,8.064-0.864c0.792-0.288,1.584-0.576,2.376-0.936c0-0.288,0.072-0.576,0.144-0.864
		c-1.08-0.864-1.08-0.864-3.96-2.304c-0.504-0.792-0.504-0.792-0.648-2.232c0.504-0.72,0.504-0.72,2.088-1.584
		c0.648-0.144,1.296-0.288,1.944-0.504c4.176,0.072,8.424,0.144,12.672,0.288c1.944-1.008,1.944-1.008,4.608-1.728
		c4.32,0,4.32,0,6.912-0.432c0.072-0.072,0.216-0.216,0.36-0.36c-0.072-0.36-0.144-0.792-0.216-1.224
		c-1.008-0.576-2.016-1.152-3.024-1.8c-3.312-0.648-6.696-1.296-10.08-1.944c-16.776-1.872-16.776-1.872-23.04-2.88
		c-4.752-0.144-9.576-0.288-14.4-0.432c-2.376-0.792-4.752-1.584-7.2-2.448c-7.632,0.72-7.632,0.72-11.952,0.72
		c-0.144-0.144-0.288-0.288-0.504-0.432c0-0.432-0.072-0.864-0.144-1.296c0.144-0.144,0.36-0.288,0.576-0.504
		c8.928-0.864,8.928-0.864,13.248-0.864c1.944,0.648,3.96,1.296,5.976,1.944c4.104,0.432,4.104,0.432,18.288,1.152
		c3.6,0.576,7.2,1.152,10.8,1.728c14.112,1.152,14.112,1.152,14.616,0.936c2.592,0.072,5.256,0.144,7.92,0.216
		c0.72-0.144,1.44-0.288,2.16-0.432c5.688-0.216,11.376-0.432,17.064-0.72c1.656-0.504,1.656-0.504,2.16-1.008
		c0-0.216,0-0.504,0.072-0.792c-0.288-0.432-0.576-0.936-0.936-1.44c-1.008-0.936-2.088-1.872-3.168-2.88
		c-0.36-0.504-0.72-1.08-1.152-1.656c0-0.432,0-0.936,0-1.44c0.36-0.36,0.72-0.72,1.08-1.152c1.656-0.432,3.312-0.936,5.04-1.44
		c1.656,0,3.312,0,5.04,0c0.36,0.144,0.792,0.288,1.224,0.504c9.576-0.216,9.576-0.216,16.56,0c1.584,0.288,3.168,0.576,4.752,0.936
		c13.968,0.504,19.44,1.008,25.488,1.224c1.656,0.504,1.656,0.504,15.12,2.376c5.76,0,6.48-0.216,11.952,0
		c1.08,0.144,2.232,0.288,3.384,0.504c4.464,0.072,8.928,0.144,13.464,0.216c1.656-0.576,3.312-1.224,5.04-1.872
		c0.72-0.648,0.72-0.648,1.008-1.296c-0.072-0.36-0.144-0.792-0.216-1.224c-1.224-0.936-1.224-0.936-5.4-2.808
		c-2.0161-0.36-4.104-0.72-6.192-1.152c-2.52,0-5.112,0-7.704,0c-1.08-0.144-2.232-0.288-3.384-0.504
		c-1.44-0.648-2.88-1.296-4.32-1.944c-2.952-1.872-5.904-3.816-8.856-5.76c-1.224-0.576-2.52-1.224-3.816-1.872
		c-1.368-0.288-2.736-0.648-4.104-1.008c-4.32,0-4.32,0-8.136,0.504c-2.88,0.936-2.88,0.936-9.36,3.816
		c-0.432,0.288-0.936,0.648-1.44,1.008c-2.304,0.936-4.608,1.872-6.984,2.88c-1.224,0.144-2.52,0.288-3.816,0.432
		c-0.864-0.072-1.728-0.144-2.664-0.216c-0.648-0.288-1.296-0.576-1.944-0.936c-0.432-0.72-0.864-1.512-1.296-2.304
		c0.216-0.936,0.216-0.936,0.792-1.44c2.232-0.864,2.232-0.864,2.664-1.296c1.584-0.288,3.168-0.648,4.824-1.008
		c5.04-1.872,5.04-1.872,6.984-2.88c2.592-1.872,2.592-1.872,4.752-4.032c3.384-1.944,7.92-3.888,8.64-4.464
		c-0.216-0.072-0.432-0.216-0.72-0.36c-7.2,0.216-7.2,0.216-11.52,0.72c-1.008,0.288-2.016,0.576-3.096,0.936
		c-8.136,3.888-8.136,3.888-11.304,5.76c-1.44,1.296-2.88,2.592-4.32,3.888c-0.936,0.432-1.872,0.936-2.88,1.44
		c-1.224,0.072-2.52,0.144-3.816,0.216c-3.816-0.504-3.816-0.504-4.536-0.936c0-0.504-0.072-1.008-0.144-1.584
		c0.144-0.216,0.288-0.432,0.432-0.72c0.648-0.36,1.296-0.72,1.944-1.152c0-0.504,0-1.008-0.072-1.584
		c-1.008,0.216-2.088,0.432-3.168,0.72c-5.976,0-6.696,0.216-18.72,0.72c-5.04-0.144-10.08-0.288-15.12-0.504
		c-1.584-0.648-3.168-1.296-4.752-1.944c-0.288-0.216-0.576-0.504-0.864-0.792c0-0.432,0-0.936,0-1.44
		c0.432-0.432,0.864-0.864,1.296-1.368c9.36,1.008,9.36,1.008,14.904,1.224c4.104-0.504,4.104-0.504,14.184-0.936
		c3.816-0.432,7.632-0.936,11.52-1.44c1.152-0.504,1.152-0.504,6.696-1.44c2.448-1.296,4.896-2.592,7.416-3.888
		c5.76-1.872,5.76-1.872,10.584-3.816c1.944-0.432,3.96-0.936,5.976-1.44c2.736-0.216,5.472-0.432,8.208-0.72
		c1.872,0.216,1.872,0.216,7.632,0c1.512,0.648,3.024,1.296,4.608,1.944c0.432,0,0.936,0,1.44,0c4.032-1.944,4.032-1.944,5.76-2.448
		c1.872-0.288,3.816-0.576,5.76-0.936c0.72-1.08,1.44-2.16,2.232-3.24c0.072-0.864,0.144-1.728,0.216-2.592
		c-0.288-0.648-0.576-1.296-0.936-1.944c-2.304-2.16-2.304-2.16-4.392-3.528c-4.824-1.872-4.824-1.872-8.208-2.88
		c-0.936-0.144-1.872-0.288-2.88-0.432c-2.376,0.216-2.376,0.216-7.632,1.656c-2.304,0-4.608,0-6.984,0
		c-1.224-0.288-2.52-0.576-3.816-0.936c-0.576-0.288-1.152-0.648-1.728-1.008c-0.288,0-0.576,0-0.936,0
		c-2.448,2.232-4.896,4.536-7.416,6.84c-0.288,0.648-0.576,1.296-0.864,1.944c-1.08,1.008-2.664,1.944-7.056,5.4
		c-1.584,0.288-3.168,0.576-4.824,0.936c-1.152-0.072-2.376-0.144-3.6-0.216c-2.448-0.648-4.896-1.296-7.416-1.944
		c-10.368-3.816-10.368-3.816-13.68-4.752c-3.168-0.504-3.168-0.504-7.704-0.72c-0.576,0.072-1.152,0.216-1.728,0.36
		c0,0.216,0,0.432-0.072,0.72c1.08,0.576,2.16,1.152,3.24,1.8c3.6,0.936,3.6,0.936,5.976,2.016c0.144,0.288,0.36,0.648,0.576,1.008
		c-0.216,0.936-0.216,0.936-1.152,2.592c-0.288,0.144-0.576,0.288-0.864,0.504c-0.576,0-1.224,0-1.872,0.072
		c-1.44-0.288-2.88-0.576-4.32-0.936c-2.592-1.224-5.256-2.52-7.92-3.816c-1.8-1.296-3.672-2.592-5.544-3.888
		c-9.144-3.816-9.144-3.816-14.904-5.76c-1.512-0.072-3.024-0.216-4.536-0.36c-0.432,0.936-0.864,1.944-1.368,2.952
		c0,0.288,0.072,0.648,0.144,1.008c1.08,0.648,2.232,1.296,3.384,1.944c2.088,1.584,4.176,3.168,6.264,4.824
		c1.584,0.144,3.168,0.288,4.752,0.432c0.72,0.432,1.512,0.864,2.304,1.368c0,0.504,0,1.08,0,1.656
		c-0.288,0.36-0.648,0.792-1.008,1.224c-0.72,0.144-1.44,0.36-2.232,0.576c-1.512-0.072-3.024-0.144-4.536-0.216
		c-4.032-1.008-8.136-2.088-12.24-3.168c-5.328,0-5.328,0-11.808,0.504c-4.536,0.936-4.536,0.936-11.016,2.88
		c-2.376,0.216-2.376,0.216-3.024-0.072c-0.072-0.792-0.144-1.584-0.216-2.448c0.504-0.648,1.008-1.296,1.584-2.016
		c2.376-0.648,4.752-1.296,7.2-1.944c1.08-0.648,2.16-1.296,3.312-1.944c1.152-0.936,2.376-1.872,3.6-2.88
		c1.944-0.936,1.944-0.936,3.888-1.44c2.016-0.144,4.104-0.288,6.192-0.432c0.576-2.304,0.576-2.304,0.504-3.24
		c-0.864,0-1.728-0.072-2.664-0.144c-6.192,0.936-6.192,0.936-10.08,1.944c-1.728,0.576-3.456,1.224-5.256,1.872
		c-11.016,1.44-11.016,1.44-12.24,1.368c-0.36-0.936-0.36-0.936-0.36-3.096c0.36-0.36,0.72-0.792,1.08-1.224
		c1.512-0.576,3.024-1.152,4.536-1.8c0.216-0.288,0.432-0.576,0.72-0.864c-0.288-0.072-0.576-0.216-0.936-0.36
		c-1.584,0-3.168,0-4.824,0c-7.416,1.944-9.576,2.88-11.52,3.384c-1.728,0-3.456,0-5.256,0c-1.656,0.432-1.656,0.432-6.696,0.72
		c-2.232-0.072-4.464-0.144-6.768-0.288c-0.216-0.144-0.432-0.36-0.72-0.576c-0.072-0.36-0.216-0.72-0.36-1.152
		c0.072-0.648,0.144-1.296,0.216-1.944c0.288-0.36,0.576-0.792,0.864-1.224c3.744-0.072,7.488-0.216,11.304-0.36
		c2.88-0.936,12.24-4.824,15.12-5.76c2.16-0.216,4.32-0.432,6.48-0.72c1.944,0.288,3.96,0.576,5.976,0.936
		c5.544,1.944,8.424,3.384,9.864,3.6c1.08-0.72,2.232-1.44,3.384-2.16c1.872-0.576,3.816-1.224,5.76-1.872
		c1.944-0.144,3.96-0.288,5.976-0.504c0.072-3.456,0.072-3.456-0.36-6.84c-1.584-0.864-6.84-2.736-17.64-7.56
		c-3.096-0.936-3.096-0.936-7.92-1.944c-1.368,0-2.736,0-4.104,0c-2.16,0.648-4.32,1.296-6.48,1.944
		c-1.224,0.648-2.52,1.296-3.816,1.944c-1.728,0.576-3.456,1.224-5.256,1.872c-0.864,0.072-1.728,0.144-2.664,0.288
		c-0.792-0.144-1.584-0.288-2.376-0.504c-1.8-1.152-3.672-2.304-5.544-3.456c-0.36-0.72-0.36-0.72-0.36-3.384
		c0.144-0.216,0.36-0.432,0.576-0.72c1.368,0,2.736-0.072,4.104-0.144c0.432,0.144,0.936,0.288,1.44,0.504
		c2.376-0.72,2.376-0.72,6.264-2.664c0.72-0.576,1.44-1.224,2.16-1.872c2.52-1.584,5.04-3.168,7.632-4.824
		c2.448-0.936,2.448-0.936,8.496-4.176c0-0.72-0.432-1.656-0.72-3.6c1.008-2.376,1.008-2.376,1.224-3.6
		c0.216-0.072,0.432-0.216,0.648-0.36c2.376,0.216,4.032,0.72,7.2,0.936c1.728-0.288,3.456-0.576,5.256-0.936
		c0.936-0.288,1.872-0.648,2.88-1.008c0.144-0.144,0.288-0.36,0.504-0.576c-1.872-4.32-1.872-4.32-2.808-7.2
		c-0.36-1.944-0.792-3.96-1.224-5.976c0.288-12.24,0.288-12.24,0.144-14.904c0.36-0.144,0.792-0.36,1.224-0.576
		c0.576-2.016,1.152-4.032,1.8-6.12c0-0.504,0-1.08,0-1.656c-0.504-0.72-0.504-0.72-1.44-4.32
		c-3.24-0.144-16.416,0.288-38.304,0.072c-11.016,0.216-12.96,0.504-23.256,0.72c-0.504-0.216-1.008-0.504-1.584-0.792
		c-0.504-1.224-0.504-1.224-0.936-4.104c0.216-0.936,0.216-0.936,1.296-2.16c1.8-0.936,1.8-0.936,3.6-2.376
		c3.6-0.144,22.608,0.288,37.44,0.288c6.696-0.144,13.392-0.288,20.16-0.4319c0.36-0.36,0.36-0.36,1.224-2.5201
		c0.288,0,0.576-0.072,0.936-0.144c0.72,0.576,0.72,0.576,2.16,2.664c5.976,0.072,11.952,0.144,18,0.216
		c7.704-8.64,7.704-8.64,9.648-11.16c0.072-0.288,0.144-0.576,0.288-0.936c0.936-0.288,1.872-0.576,2.808-0.864
		c3.816-0.144,7.632-0.288,11.52-0.504c0.792-1.512,6.552-8.496,7.056-9.648c0.504-3.384,0.504-3.384,0.504-5.76
		c-0.36-0.648-0.72-1.2961-1.08-1.944c-0.216,0-0.432-0.072-0.72-0.144c-0.432,0.432-0.936,0.936-1.44,1.44
		c-0.36,0.144-0.792,0.288-1.224,0.504c-0.576,0-1.224,0-1.872,0c-0.216-0.288-0.504-0.576-0.792-0.864
		c0.072-1.872,0.144-3.816,0.288-5.76c-2.376-0.36-2.376-0.36-3.096-0.864c-0.432-1.296-0.432-1.296-0.432-3.168
		c0.288-1.008,0.288-1.008,0.288-3.5999c-0.288-0.576-0.576-1.224-0.864-1.872c-1.152-0.432-1.152-0.432-1.872-1.08
		c0-0.4319-0.072-0.864-0.144-1.368c0.936-1.44,0.936-1.44,1.44-3.168c0-0.72-0.072-1.44-0.144-2.16c-1.152,0-2.376-0.072-3.6-0.144
		c-0.504-0.36-1.08-0.72-1.656-1.08c-0.288-0.504-0.576-1.08-0.864-1.656c-2.16-2.16-2.16-2.16-3.096-3.6
		c-0.288,0-0.576-0.072-0.864-0.144c-1.44,1.008-1.44,1.008-3.816,1.944c-0.36,0.072-0.792,0.144-1.224,0.216
		c-0.432-0.288-0.936-0.576-1.44-0.936c-1.8-3.96-1.8-3.96-2.592-5.184c-0.288,0-0.648,0-1.008-0.072
		c-3.096,2.88-3.096,2.88-4.32,3.6c-0.36,0-0.72,0-1.152,0c-0.36-0.36-0.792-0.72-1.224-1.08c-0.144-0.504-0.288-1.08-0.504-1.656
		c-1.008,0.576-2.016,1.152-3.096,1.728c-1.944,1.944-1.944,1.944-3.816,3.384c-0.36,0-0.792,0-1.224,0
		c-0.36-0.36-0.72-0.72-1.08-1.08c-0.072-1.008-0.144-2.016-0.288-3.096c0.144-0.936,0.288-1.872,0.504-2.88
		c1.44-3.816,1.44-3.816,1.584-5.04c-0.72,0-1.44-0.072-2.16-0.144c-0.144,0.216-0.288,0.432-0.504,0.72
		c-1.44,0.504-1.44,0.504-2.592,0.504c-0.288-0.144-0.648-0.288-1.008-0.504c-0.288-0.432-0.576-0.864-0.864-1.296
		c0-0.288,0-0.576,0-0.936c0.432-0.936,0.936-1.872,1.44-2.88c0.504-2.448,0.504-2.448,0.72-6.048
		c-0.072-0.36-0.144-0.72-0.288-1.08c-0.288,0-0.648,0-1.008,0c-0.576,0.72-1.224,1.44-1.872,2.16
		c-0.864,0.648-1.728,1.296-2.664,1.944c-0.504,0.144-1.08,0.288-1.656,0.432c-0.432-0.072-0.936-0.144-1.44-0.216
		c-0.432-0.576-0.864-1.152-1.368-1.8c0-0.216,0-0.432,0-0.72c0.72-0.72,1.44-1.44,2.16-2.16c0.288-0.5041,0.576-1.08,0.936-1.656
		c1.08-3.312,2.232-6.696,3.384-10.08c0.936-1.512,1.872-3.024,2.88-4.5359c0.432-2.0161,0.936-4.032,1.44-6.048
		c0-1.008,0-2.016-0.072-3.096c-0.216,0-0.432,0-0.72,0.072c-1.872,2.736-3.816,5.472-5.76,8.208c-1.152,0-2.376,0.072-3.6,0.144
		c-0.144-1.008-0.432-1.224-0.432-2.448c1.944-3.096,1.944-3.096,3.888-5.472c1.152-2.088,2.376-4.176,3.6-6.264
		c0-1.008-0.072-2.016-0.144-3.096c-0.36,0.072-0.72,0.144-1.152,0.288c-0.648,0.72-1.296,1.512-1.944,2.304
		c-1.512,2.736-3.096,5.472-4.68,8.208c-0.72,0.144-1.512,0.36-2.304,0.576c-0.36-0.072-0.72-0.216-1.152-0.36
		c-0.144-0.72-0.144-0.72-0.648-1.224c0-0.36,0-0.72,0-1.152c1.224-2.304,2.52-4.608,3.816-6.984
		c1.296-1.656,2.592-3.312,3.888-5.04c-0.072-0.36-0.216-0.72-0.36-1.08C56.736,216,56.736,216,54.576,216
		c-0.504,0.144-1.08,0.288-1.656,0.504c-0.72-0.072-1.44-0.144-2.16-0.216c-0.36-0.864-0.36-0.864-0.864-1.296
		c-0.072-1.008-0.216-2.088-0.36-3.168c-0.216,0-0.432,0.072-0.72,0.144c-0.432,0.792-0.936,1.584-1.44,2.376
		c-0.936,0.504-0.936,0.504-3.312,0.864c0-0.288-0.072-0.576-0.144-0.936c-0.216-0.216-0.432-0.432-0.72-0.72
		c0.072-0.792,0.144-1.584,0.216-2.448c0.792-1.44,1.584-2.88,2.376-4.32c0-0.144,0-0.36-0.072-0.576
		c-0.36,0.072-0.792,0.144-1.224,0.216c-1.512,1.656-3.024,3.312-4.536,5.04c-0.792-0.072-1.584-0.144-2.376-0.216
		c-0.144-0.216-0.288-0.432-0.504-0.648c0-0.576-0.072-1.224-0.144-1.872c1.944-2.88,3.384-4.32,3.528-5.04
		c-0.864,0-1.728,0-2.664,0.072c-3.384,1.944-3.384,1.944-4.32,2.88c-0.576,1.008-1.152,2.016-1.8,3.024
		c-0.432,1.872-0.936,3.816-1.44,5.76c-1.008,1.224-1.008,1.224-1.8,1.584c-1.224,0-1.224,0-2.376-0.504
		c-1.224-0.936-2.16-2.16-4.824-4.176c-0.072-0.288-0.216-0.576-0.36-0.936c0.072-1.368,0.144-2.736,0.216-4.104
		c0.648-2.52,1.296-5.112,1.944-7.7039c0.576-1.224,1.224-2.52,1.872-3.816c1.296-1.728,2.592-3.456,3.888-5.256
		c0.792-0.6479,1.584-1.296,2.376-1.944c1.152-0.576,2.304-1.152,3.528-1.8c1.8-0.648,3.6-1.296,5.472-1.944
		c0.936-0.144,1.872-0.288,2.88-0.504c2.304,0,4.608,0,6.984,0c0.864,0.144,1.728,0.288,2.664,0.504
		c7.92,3.816,7.92,3.816,11.232,5.76c2.448,1.944,2.448,1.944,6.264,5.7599c1.368,1.512,2.736,3.096,4.104,4.6801
		c0.576,1.152,1.224,2.376,1.872,3.6c0.576,1.728,1.152,3.528,1.8,5.328c0.936,4.536,0.936,4.536,2.664,16.992
		c0,1.08,0,2.232,0,3.384c-1.008,5.76-1.008,5.76-1.44,9.864c-1.512,4.32-3.024,8.64-4.608,12.96c0,1.152,0,1.152,0.36,1.44
		c0.648-0.144,1.296-0.288,1.944-0.432c1.656,0.216,3.312,0.432,5.04,0.72c1.728,0.648,3.528,1.296,5.328,1.944
		c2.88,1.944,2.88,1.944,5.04,3.816c0.72,0.864,1.44,1.728,2.16,2.664c0.288,0,0.576,0,0.936,0c0.936-1.152,1.872-2.376,2.88-3.6
		c1.656-0.936,1.656-0.936,4.536-1.944c0.648-0.072,1.296-0.144,1.944-0.216c0.936,0.288,1.872,0.576,2.88,0.936
		c0.792,0.72,1.584,1.512,2.376,2.304c0.648,1.152,1.296,2.376,1.944,3.6c2.16,0.144,3.384-0.144,5.04-0.144
		c0.864,0.432,1.728,0.936,2.664,1.44c0.216,0.432,0.504,0.864,0.792,1.368c0.432,1.656,0.864,3.312,1.368,5.04
		c1.152,0.144,2.376,0.36,3.6,0.576c4.32,1.944,4.32,1.944,7.632,3.816c0.576,0.648,1.152,1.368,1.8,2.088
		c0.072,0.792,0.144,1.584,0.216,2.376c-0.936,2.448-0.936,2.448-1.296,4.608c2.88-0.432,2.88-0.432,4.608-0.432
		c3.6,1.944,3.6,1.944,4.752,2.88c0.288,0,0.648,0,1.008,0c1.224-1.224,2.52-2.52,3.816-3.816c2.664-1.944,4.536-3.816,6.984-5.76
		c2.016-1.944,4.104-3.96,6.192-5.976c0.864-0.648,1.728-1.296,2.664-1.944c1.224-1.512,2.52-3.024,3.816-4.536
		c5.76-4.824,6.768-5.328,8.928-7.488c1.8-1.224,3.6-2.52,5.472-3.816c1.44-1.224,2.88-2.52,4.32-3.816
		c4.824-5.328,8.928-9.144,10.8-11.304c3.312-3.168,6.696-6.336,10.08-9.576c1.584-1.2961,3.168-2.592,4.824-3.888
		c16.776-15.336,16.776-15.336,23.544-21.096c24.48-23.256,32.616-31.464,36.936-35.28c10.08-7.704,10.08-7.704,13.464-10.584
		c0.432-0.72,4.536-4.536,9.36-10.08c2.88-1.872,2.88-1.872,5.256-3.816c9.576-10.296,9.576-10.296,17.496-18.2161
		c2.088-1.8719,4.176-3.816,6.264-5.7599c15.84-16.3441,15.84-16.3441,23.976-24.264c8.28-7.632,16.632-15.336,24.984-23.04
		c23.76-23.04,23.76-23.04,31.176-30.744c10.8-9.792,18-16.9921,22.608-20.88c0.432-0.72,0.432-0.72,1.152-1.152
		c0.072-0.6481,0.216-1.296,0.36-2.016c2.16-2.448,4.104-5.328,7.92-9.6481c1.008-0.9359,2.016-1.8719,3.096-2.88
		c1.944-5.976,1.944-5.976,2.448-6.48c0.432,0,0.864-0.072,1.296-0.1439c0.936,0.6479,1.872,1.296,2.88,1.944
		c0.792,0.864,1.584,1.728,2.4481,2.664c0.36,0.144,0.72,0.288,1.152,0.432c1.008,1.008,2.088,2.088,3.168,3.1679
		c3.888,5.4001,9.216,13.8241,11.088,16.2001c1.296,1.368,2.592,2.736,3.888,4.104c1.6559,1.224,3.384,2.52,5.112,3.816
		c0.72,0.2159,1.44,0.5039,2.2319,0.792c1.4401,0.072,2.88,0.1439,4.32,0.288c0.4321,0.4319,0.4321,0.4319,0.576,1.584
		c-0.504,0.72-0.504,0.72-3.24,2.4481c-1.368,0.36-2.736,0.792-4.1041,1.224c-1.5839,0-3.1679,0-4.752,0
		c-3.024-0.936-6.048-1.872-9.144-2.88c-8.424-5.7601-8.424-5.7601-14.184-9.1441c-1.44-0.432-2.88-0.9359-4.32-1.4399
		c-2.16-0.216-2.16-0.216-4.32-0.072c-1.296,7.416-1.296,7.416-1.152,8.28c0.72,0.144,1.44,0.288,2.16,0.4319
		c0.4319,0.5041,0.4319,0.5041,0.792,1.872c0,0.7921,0,1.584,0,2.376c-0.504,0.7201-0.504,0.7201-0.936,3.0961
		c-0.36,0.072-0.72,0.144-1.08,0.288c-0.072,0.72-0.216,1.44-0.36,2.16c-0.504,0.432-0.504,0.432-1.224,2.592
		c-0.072,1.2959-0.144,2.592-0.216,3.888c-0.36,0.36-0.792,0.7199-1.224,1.1519c-0.144,0.6481-0.288,1.2961-0.504,1.944
		c-0.216,0.2161-0.432,0.432-0.72,0.7201c-0.936,7.92-0.936,7.92-1.872,12.96c-3.888,13.176-3.888,13.176-7.2,25.704
		c-0.504,4.7521-1.44,8.8561-1.944,12.9601c-1.944,5.4719-5.76,18.2159-9.576,29.736c-1.584,5.688-3.168,11.376-4.824,17.064
		c-0.216,2.592-0.504,3.096-0.936,6.696c-1.44,5.256-1.944,5.976-2.88,9.144c-0.288,0.504-0.648,1.08-1.008,1.656
		c-0.936,3.384-1.44,4.104-2.376,6.984c-0.144,0.144-0.288,0.288-0.504,0.432c-2.88,9.648-3.312,12.24-5.256,19.224
		c-1.584,3.816-3.168,7.632-4.824,11.52c-1.872,5.76-1.872,5.76-7.632,20.664c-0.216,1.08-0.432,2.16-0.72,3.312
		c4.536,3.888,4.536,3.888,6.48,6.048c0.936,1.296,1.872,2.664,2.88,4.032c0.504,1.44,1.08,2.88,1.656,4.32
		c-0.072,2.088-0.144,4.176-0.216,6.264c-1.008,2.664-1.008,2.664-2.448,5.04c0,0.288,0,0.576,0,0.936
		c0.288,0.36,0.6479,0.792,1.008,1.224c0.576,1.584,1.224,3.168,1.8719,4.824c0.432,1.872,0.864,3.744,1.368,5.616
		c0.792-0.216,1.584-0.432,2.376-0.72c1.872,0.072,3.816,0.144,5.76,0.216c1.5121,0.288,3.024,0.576,4.608,0.936
		c0.7921,0.288,1.584,0.648,2.376,1.008c2.664,1.872,2.664,1.872,4.824,3.96c0.936,1.44,0.936,1.44,2.736,5.976
		c0.576,2.376,1.224,4.752,1.872,7.2c0.288,2.016,0.648,4.032,1.008,6.048c0.432,7.2,0.432,7.2,0.864,8.712
		c5.256,1.944,5.256,1.944,9.072,3.816c1.728,1.152,3.528,2.304,5.328,3.528c0.576,0.864,1.224,1.8,1.872,2.736
		c1.44,1.512,2.88,3.024,4.32,4.536c3.888,5.544,3.888,5.544,5.6161,8.7841c1.296,3.312,2.592,6.696,3.888,10.08
		c0.288,1.368,0.576,2.736,0.864,4.176c2.304,0.144,4.608,0.288,6.912,0.504c7.704-0.216,10.08-0.504,18.72-0.72
		c2.448,0.072,4.9681,0.144,7.4881,0.216c1.6559,0.504,1.6559,0.504,3.0959,1.44c0.504,0.864,0.504,0.864,0.7921,2.592
		c-0.072,0.4319-0.144,0.936-0.216,1.44c-0.936,1.152-0.936,1.152-2.232,2.016c-0.936,0.216-1.872,0.432-2.88,0.72
		c-3.312,0-6.696,0-10.08,0c-10.0801,0.504-20.16,1.08-30.2401,1.656c-6.264-0.216-6.264-0.216-61.92,0
		c-18.72-0.504-18.72-0.504-24.48-0.936c-7.488-0.072-15.048-0.144-22.608-0.288c-5.04-0.432-5.04-0.432-8.352-0.432
		c-0.432,0.576-0.432,0.576-0.864,2.016c-0.648,0.792-1.296,1.584-1.944,2.448c-0.648,1.152-1.296,2.376-1.944,3.6
		c-1.8719,2.52-3.816,5.04-5.7599,7.632c-1.872,3.168-2.88,4.32-5.256,8.928c-0.936,0.936-2.376,3.6-2.88,4.032
		c-0.288,0.792-0.576,1.584-0.936,2.448c-3.888,6.192-3.888,6.192-5.328,9.072c0,0.576,0,1.152,0,1.728
		c1.224,0.936,1.224,0.936,2.808,1.512c1.8-0.072,3.672-0.144,5.544-0.216c1.152-0.288,2.376-0.648,3.6-1.008
		c1.512-0.072,3.024-0.144,4.536-0.216c4.32,1.944,4.32,1.944,5.04,2.52c0.144,1.008,0.36,2.088,0.576,3.168
		c-0.72,0.648-1.44,1.296-2.232,2.016c-1.224,0-2.16-0.504-3.168-0.504c-0.72,0.504-0.72,0.504-3.6,1.44
		c-2.88,0.504-4.536,0.504-6.912,0.936c-1.296,0-2.592,0-3.888,0c-1.296,0.432-2.664,0.936-4.032,1.44
		c-0.36,0.288-0.792,0.648-1.224,1.008c0,0.288-0.072,0.576-0.144,0.864c4.968,1.296,4.968,1.296,7.344,2.232
		c0.36,0.36,0.72,0.72,1.08,1.08c0.072,0.576,0.144,1.152,0.216,1.728c-0.288,0.72-0.576,1.44-0.936,2.16
		c-0.72,0.576-1.512,1.224-2.304,1.872c-0.936,0.288-1.872,0.576-2.88,0.864c-5.472,0.432-5.472,0.432-14.616,0.432
		c-4.032,1.44-8.136,2.88-12.24,4.32c-2.088,0.144-4.176,0.288-6.264,0.504c-0.936,0.648-1.872,1.296-2.88,1.944
		c-1.728,0.72-3.456,1.512-5.184,2.304c0,0.72,0.504,1.44,0.72,4.752c-0.288,0.72-0.576,1.44-0.936,2.16
		c-0.936,1.368-1.872,2.736-2.88,4.104c-1.08,1.08-2.16,2.232-3.24,3.384c-1.584,0.864-3.168,1.728-4.824,2.592
		c0,0.288,0,0.648-0.072,1.008c5.4,2.88,6.624,3.168,12.096,6.336c12.528-0.288,12.528-0.288,17.784,0
		c4.8239,0.72,9.72,1.44,14.616,2.16c7.2,0,7.2,0,10.584-0.288c10.8,1.944,10.8,1.944,11.376,2.304c0,0.576,0,1.152,0,1.728
		c-1.656,1.224-3.312,2.52-5.04,3.816c-1.08,0.576-2.16,1.152-3.24,1.8c-1.8,0.288-3.6,0.576-5.472,0.936
		c-1.008,0.504-2.088,1.008-3.168,1.584c0,0.288-0.072,0.576-0.144,0.936c0.72,0.288,1.512,0.576,2.304,0.864
		c5.112,0.288,10.224,0.576,15.408,0.936c1.8,0.36,3.5999,0.792,5.472,1.224c1.728,0.072,3.528,0.144,5.328,0.216
		c1.08,0.216,2.16,0.432,3.312,0.72c6.336-0.072,12.672-0.144,19.008-0.216c1.44,0.432,1.44,0.432,3.312,1.44
		c2.88,0.576,5.76,1.224,8.64,1.872c0.864,0.288,1.728,0.648,2.664,1.008c0.576,0.432,1.152,0.864,1.8,1.296
		c0,0.72,0,0.72-0.504,1.224c-1.08,0-2.16,0-3.24,0.072c-1.656,1.008-1.656,1.008-4.032,1.944c-1.728,0.36-3.528,0.792-5.328,1.224
		c-1.8,0.072-3.6,0.144-5.472,0.216c-1.44,0.936-1.44,0.936-2.304,2.088c0,0.216,0,0.432,0.072,0.72
		c0.864,0.216,1.728,0.504,2.664,0.792c3.168,0.432,6.408,0.936,9.648,1.44c1.008,0.288,2.0161,0.576,3.096,0.936
		c6.984,1.008,6.984,1.008,12.24,1.44c0.936,0.288,1.872,0.648,2.88,1.008c0.792,1.08,0.792,1.08,1.8,3.744c0,0.36,0,0.72,0,1.152
		c-0.504,0.72-0.504,0.72-1.368,1.224c-0.216-0.216-0.504-0.432-0.792-0.72c-0.432-1.152-0.936-2.376-1.44-3.6
		c-0.576-0.36-14.544-2.304-15.696-2.808c-18.504-3.312-18.504-3.312-18.864-3.672c0-0.36,0-0.792,0-1.224
		c0.576-0.36,0.576-0.36,2.736-0.864c1.224-1.08,1.728-1.872,2.88-2.88c0.792-0.288,1.584-0.576,2.448-0.936
		c2.232-0.072,4.464-0.144,6.696-0.216c1.584-0.432,3.168-0.936,4.824-1.44c0.432-0.36,0.936-0.72,1.44-1.08
		c-0.288-0.36-0.288-0.36-8.208-2.304c-0.72-0.36-1.44-0.792-2.16-1.224c-15.552,0.288-15.552,0.288-20.592,0
		c-1.008-0.216-2.088-0.432-3.168-0.72c-3.096,0-3.096,0-6.192-0.432c-1.368-0.288-2.736-0.648-4.104-1.008
		c-4.752-0.216-9.576-0.432-14.4-0.72c-1.944-0.432-3.96-0.936-5.976-1.44c-4.608-0.432-5.328-0.72-7.92-0.72
		c-1.008-0.432-2.088-0.936-3.168-1.44c0-0.288-0.072-0.648-0.144-1.008c1.08-1.008,1.08-1.008,1.872-1.368
		c3.672-0.432,7.344-0.936,11.0161-1.44c1.224,0,2.52,0,3.816,0c1.512-0.288,3.024-0.576,4.608-0.936
		c4.32-1.944,4.32-1.944,4.752-2.448c0-0.216,0.072-0.504,0.144-0.792c-1.296-0.864-1.296-0.864-5.4-2.304
		c-5.976,0.216-5.976,0.216-11.736,0c-7.704-0.936-8.424-1.224-17.784-2.16c-3.888,0-7.776,0-11.736,0
		c-0.72,0.576-1.584,2.088-2.664,3.24c-0.36,0.072-0.792,0.216-1.224,0.36c-1.8-0.072-3.6-0.144-5.472-0.216
		c-8.208-1.44-8.64-1.728-11.088-2.16c-5.04-1.944-5.472-2.448-14.616-6.48c-1.8,0.072-3.672,0.144-5.5439,0.216
		c-3.24,1.224-6.48,2.52-9.7921,3.816c-3.312,2.232-6.696,4.464-10.08,6.768c-2.664,0.936-2.664,0.936-7.344,1.8
		c0,0.216,0.072,0.504,0.144,0.792c2.952,1.584,5.904,3.168,8.856,4.824c1.656,0.648,3.312,1.296,5.04,1.944
		c6.984,1.872,10.296,2.376,12.96,3.096c1.44-0.216,1.656-0.504,3.6-0.504c0.648,0.432,1.296,0.936,1.944,1.44
		c0.36,0,0.72,0,1.152,0c2.448,1.008,2.448,1.008,2.664,1.368c-0.288,0.576-0.576,1.152-0.936,1.8
		c-4.608,0.432-4.608,0.432-5.04,0.72c-4.824,0.936-4.824,0.936-13.464,1.872c-0.864-0.072-1.728-0.144-2.664-0.216
		c-0.936-0.288-1.872-0.576-2.88-0.936c-1.872-0.936-3.816-1.872-5.76-2.88c-0.864-0.648-1.728-1.296-2.592-1.944
		c-2.16-0.936-4.32-1.872-6.48-2.88c-0.72-0.072-1.44-0.216-2.16-0.36c0,0.216,0,0.432,0.072,0.72c3.96,2.736,5.184,3.96,13.32,9.72
		c1.656,0.936,3.312,1.872,5.04,2.88c3.24,0.936,6.552,1.872,9.864,2.88c1.728,0.288,3.456,0.576,5.256,0.936
		c1.152,0.648,2.376,1.296,3.6,1.944c0.864,0.864,1.728,1.728,2.664,2.664c0,0.432,0,0.864,0.0721,1.296
		c-0.2881,0.648-0.576,1.296-0.936,1.944c-0.7921,0.648-1.656,1.296-2.52,2.016c-1.584,0.504-3.168,1.08-4.752,1.656
		c-4.896,0-9.792,0-14.688,0c-3.096-0.432-3.096-0.432-3.6-0.72c-3.888,0-7.776,0-11.736,0c-5.472-0.72-11.016-1.44-16.56-2.16
		c-9.36-0.432-11.304-0.72-22.32-0.936c-2.592-0.36-5.256-0.792-7.92-1.224c-5.472,0.216-11.016,0.432-16.56,0.72
		c-0.36,0.144-0.792,0.288-1.224,0.504c-0.072,0.288-0.216,0.576-0.36,0.864c6.84,3.672,6.84,3.672,8.064,4.68
		c0.216,0.36,0.504,0.72,0.792,1.08c-0.072,0.648-0.144,1.296-0.216,1.944c-0.864,0.576-1.8,1.224-2.736,1.872
		c-1.224,0.288-2.52,0.576-3.816,0.864c-4.68,0.288-9.432,0.576-14.184,0.936c-2.232,0-4.464,0-6.696-0.072
		c0.072,0.36,0.144,0.72,0.288,1.152c2.808,1.944,2.808,1.944,4.752,2.736c6.12,1.296,12.24,2.592,18.432,3.888
		c6.48,0.936,6.48,0.936,12.96,1.44c3.672,0,7.344,0,11.088,0c0.72,0.144,1.44,0.288,2.16,0.432
		c0.288,0.432,0.288,0.432,0.288,1.584c-0.144,0.144-0.36,0.288-0.576,0.504c-2.592,0.144-5.256,0.36-7.92,0.576
		c-0.936-0.144-1.872-0.288-2.88-0.504c-0.936,0.072-1.872,0.144-2.88,0.288c-9.792-1.4399-10.296-1.728-15.12-2.6639
		c-1.44-0.504-9.792-1.656-13.392-2.664c-1.152-0.144-2.376-0.288-3.6-0.432c-0.648,0.72-1.296,1.44-1.944,2.16
		c-0.504,0.216-1.08,0.432-1.656,0.72c-3.96,0.288-7.992,0.576-12.024,0.936c-1.728,0.288-3.528,0.576-5.328,0.864
		c0.072,1.152,0.216,2.376,0.36,3.6c-0.504,0.432-1.008,0.864-1.512,1.296C76.176,519.12,76.176,519.12,63.936,519.624
		L63.936,519.624z M142.2,441.144c-5.544-1.224-5.544-1.224-5.76-1.584c0.072-0.072,0.144-0.216,0.216-0.36
		c1.152-0.144,2.376-0.36,3.6-0.576c1.224-1.296,1.224-1.296,2.304-3.312c0-0.576,0-1.152,0-1.728
		c-0.36-0.288-0.72-0.576-1.08-0.864c-5.544-1.872-5.544-1.872-6.264-2.448c-0.072-0.216-0.144-0.432-0.216-0.72
		c2.304-0.288,4.608-0.576,6.984-0.864c3.024-0.792,6.048-1.584,9.072-2.448c1.008-0.072,2.088-0.144,3.168-0.216
		c1.656,0.504,1.656,0.504,2.592,1.08c-1.08,1.008-1.08,1.008-1.584,2.16c-0.072,0.72-0.144,1.44-0.216,2.16
		c0.072,0.36,0.216,0.792,0.36,1.224c0.288,0.144,0.576,0.288,0.864,0.504c0,0.216,0,0.432,0,0.72
		c-4.104,4.032-4.104,4.032-6.624,5.976c-1.44,0.432-2.88,0.864-4.32,1.296C144.288,441.144,143.28,441.144,142.2,441.144
		L142.2,441.144z M242.064,438.9839c-2.88-1.944-2.88-1.944-6.264-3.816c-0.792-0.216-1.584-0.432-2.376-0.72
		c-2.088,0-4.176,0-6.264,0c-6.4799,0.936-6.4799,0.936-10.8,1.872c-0.792,0.288-1.584,0.648-2.376,1.008
		c-0.864,0.144-1.728,0.288-2.664,0.432c-0.72-0.072-1.44-0.144-2.16-0.216c-0.648-0.288-1.296-0.576-1.944-0.936
		c-4.32-3.96-4.32-3.96-8.136-7.92c-2.304-1.296-4.608-2.592-6.984-3.96c0-0.432-0.072-0.936-0.144-1.44
		c0.576-0.288,1.152-0.576,1.728-0.936c0.144-0.936,0.288-1.872,0.432-2.88c1.872-1.296,3.744-2.592,5.688-3.888
		c4.536-2.304,6.264-2.736,7.92-3.744c0.504-0.144,1.08-0.288,1.656-0.432c3.168-1.944,3.168-1.944,4.608-2.448
		c0.432,0,0.936,0,1.44,0c3.096,1.944,5.256,3.888,7.92,5.76c1.296,1.368,2.664,2.808,4.032,4.248
		c1.296,1.872,2.592,3.816,3.96,5.76c0.36,0.288,0.72,0.576,1.08,0.936c0.36,0,0.792,0.072,1.224,0.144
		c2.88-1.944,9.864-5.76,20.664-12.528c3.312-2.376,6.696-4.32,14.616-10.08c2.376-2.16,3.384-2.592,11.016-8.352
		c1.656-1.656,3.312-3.312,5.04-5.04c0.288-0.144,0.648-0.2881,1.008-0.504c4.032-4.32,5.256-5.256,7.2-7.704
		c11.736-12.456,15.84-17.28,19.44-20.88c0.216,0.072,0.432,0.144,0.72,0.288c-1.224,2.088-2.448,4.176-3.744,6.336
		c-0.288,0.288-0.648,0.648-1.008,1.008c-7.632,13.392-7.632,13.392-8.64,14.6161c-0.576,1.368-1.224,2.736-1.872,4.104
		c-0.288,0.36-0.648,0.72-1.008,1.152c-0.72,1.944-0.72,1.944-0.72,3.168c0.432,0.72,0.936,1.44,1.44,2.16
		c1.368,0.72,2.808,1.44,4.248,2.232c1.368,0,2.736,0,4.104,0c1.872-0.432,3.816-0.936,5.76-1.44c1.224,0,2.52,0.072,3.816,0.144
		c0.36,0.504,0.36,0.504,0.36,1.224c-0.792,0.432-1.656,0.864-2.52,1.296c-4.248,0.432-8.496,0.936-12.744,1.44
		c-1.152,0.288-2.376,0.576-3.6,0.936c-2.88,1.944-2.88,1.944-3.816,3.024c0,0.792-0.0721,1.584-0.144,2.376
		c0.432,0.648,0.936,1.296,1.44,1.944c6.408,1.8,6.408,1.8,6.84,2.232c0,0.288,0.072,0.576,0.144,0.864
		c-1.0081,1.008-1.0081,1.008-3.024,2.016c-3.816,0-3.816,0-7.632,0.504c-3.888-0.216-3.888-0.216-8.208,0
		c-3.456,1.368-6.984,2.736-10.512,4.104c-2.016,0.144-4.032,0.288-6.048,0.432c-2.376,1.008-2.376,1.008-3.6,1.944
		c-1.8,0.648-3.6,1.296-5.472,1.944c-6.048,0.936-6.048,0.936-9.144,1.152c-0.504,0.288-1.008,0.576-1.584,0.864
		c0,0.36,0,0.792,0,1.224c0.288,0.144,0.576,0.288,0.864,0.504c4.536,0.288,4.536,0.288,6.984,0.792
		c0.36,0.288,0.72,0.576,1.152,0.936c0,0.648,0.072,1.368,0.144,2.088c-0.6479,1.08-1.296,2.232-1.944,3.384
		c-3.816,4.032-3.816,4.032-5.184,5.04c-0.648,0.072-1.368,0.144-2.088,0.288c-1.08,0.648-2.232,1.296-3.384,1.944
		C242.712,438.9839,242.424,438.9839,242.064,438.9839L242.064,438.9839z M92.52,434.8799c-2.088-1.224-4.176-2.52-6.264-3.816
		c-2.664-1.224-5.4-2.52-8.136-3.816c-0.144-2.304-0.288-4.68-0.504-7.056c1.584,0,3.168-0.072,4.824-0.144
		c0.36-0.288,0.792-0.648,1.224-1.008c0.216-0.504,0.504-1.008,0.792-1.512c0-0.936,0.072-1.872,0.144-2.88
		c0.72,0.072,2.664,1.08,6.48,2.016c2.232-0.072,4.464-0.144,6.696-0.216c6.768-1.008,6.768-1.008,8.64-1.008
		c1.296,0.648,2.592,1.296,3.888,1.944c2.376,2.016,2.376,2.016,4.536,4.536c1.872,2.736,3.816,5.472,5.76,8.208
		c1.152,1.224,2.376,2.52,3.6,3.816c-0.216,0.216-0.216,0.216-1.656,0c-1.872-0.648-3.816-1.296-5.76-1.944
		c-6.768-1.44-6.768-1.44-11.088-1.872c-1.44,0.072-2.88,0.144-4.32,0.216c-3.312,0.936-3.312,0.936-5.256,1.944
		c-1.44,1.08-1.44,1.08-2.664,2.592C93.168,434.8799,92.88,434.8799,92.52,434.8799L92.52,434.8799z M177.48,425.304
		c-1.512-0.288-3.024-0.576-4.536-0.936c-0.792-0.288-1.584-0.648-2.448-1.008c-0.288-0.576-0.576-1.152-0.864-1.728
		c-1.872-9.36-1.872-9.36-2.376-10.8c0.072-1.656,0.216-3.312,0.36-5.04c2.448-1.368,11.304-5.184,17.568-8.568
		c3.384-2.52,6.84-5.112,10.296-7.704c1.44-1.44,2.88-2.88,4.32-4.32c0.36-0.072,0.792-0.144,1.224-0.288
		c-0.216,2.952-0.432,5.904-0.648,8.856c-1.656,7.704-1.656,7.704-2.16,8.64c-0.936,3.024-1.872,6.048-2.88,9.144
		c-3.816,7.92-3.816,7.92-5.76,11.232c-0.36,0.36-0.72,0.792-1.08,1.224c-0.936,0-1.872-0.072-2.88-0.144
		C178.416,425.304,178.416,425.304,177.48,425.304L177.48,425.304z M134.28,424.08c-1.08-0.144-2.232-0.288-3.384-0.432
		c-0.36-0.432-0.72-0.864-1.08-1.296c-0.936-2.808-1.872-5.616-2.88-8.424c-1.368-1.8-2.736-3.672-4.104-5.544
		c-2.16-2.16-2.16-2.16-4.896-4.032c-3.816-1.368-3.816-1.368-6.696-1.8719c-1.224,0-2.52,0-3.816,0
		c-1.656,0.216-3.312,0.432-5.04,0.72c-1.008-0.936-1.008-0.936-6.768-8.352c-3.816-5.544-3.816-5.544-5.76-7.704
		c-0.792-0.648-1.584-1.296-2.376-1.944c-5.544-1.872-5.544-1.872-7.92-2.376c-1.368,0.072-2.736,0.144-4.104,0.216
		c-3.816,1.008-3.816,1.008-6.696,2.16c-0.36-0.288-0.36-0.288-2.808-5.832c-0.216-1.08-0.432-2.232-0.72-3.384
		c-0.072-2.52-0.144-5.04-0.216-7.632c0.072-1.152,0.216-2.304,0.36-3.528c1.152,0.216,2.376,0.432,3.6,0.72
		c3.312,1.224,6.696,2.52,10.08,3.816c2.52,1.296,5.112,2.592,7.704,3.888c0.936,0.288,1.872,0.576,2.88,0.936
		c1.8,0.936,3.672,1.872,5.544,2.88c0.864,0.72,1.8,1.512,2.736,2.304c0.288,2.16,0.576,4.32,0.936,6.48
		c0.648,1.8,1.296,3.672,1.944,5.544c0.576,1.008,1.224,2.016,1.872,3.096c2.304,2.16,2.304,2.16,5.184,4.104
		c1.8,0.6479,3.672,1.296,5.544,2.016c4.68-0.144,9.432-0.288,14.184-0.504c1.152,0.288,2.376,0.576,3.6,0.936
		c4.32,1.944,4.32,1.944,5.472,2.88c0.288,0.576,0.648,1.152,1.008,1.8c0.576,2.52,1.152,5.112,1.728,7.704
		c0.288,0.792,0.648,1.584,1.008,2.448c1.872,2.376,1.872,2.376,2.952,3.312c1.008,0,2.088,0.072,3.168,0.144
		c3.384-1.44,3.384-1.44,3.816-1.944c0.432-0.072,0.936-0.144,1.44-0.216c0.72,0.792,1.512,1.656,2.304,2.52
		c0,0.36-0.072,0.72-0.144,1.08c-5.04,0.936-5.04,0.936-12.672,2.88C137.376,424.08,137.376,424.08,134.28,424.08L134.28,424.08z
		 M166.176,421.704c-1.152-0.288-2.376-0.576-3.6-0.936c-0.144-0.144-0.36-0.36-0.576-0.576c-1.944-6.264-1.944-6.264-2.448-6.984
		c-0.072-0.72-0.144-1.44-0.216-2.16c1.44-0.936,2.952-1.872,4.464-2.88c0.36-0.072,0.792-0.144,1.224-0.216
		c0.792,5.472,1.728,9.072,2.448,13.68C167.04,421.632,166.608,421.632,166.176,421.704L166.176,421.704z M235.584,421.704
		c-0.432-1.8-0.864-9.432-1.368-13.752c0-2.16-0.936-6.768-1.224-12.96c1.944-5.328,1.944-5.328,4.824-11.808
		c3.816-7.416,4.824-8.64,6.696-12.456c1.944-3.096,5.76-10.296,7.704-13.176c2.376-4.608,2.88-5.04,8.64-16.56
		c0.504-0.504,0.504-0.504,14.904-27.36c2.88-7.704,2.88-7.704,3.816-9.36c0.216-0.936,0.432-1.872,0.72-2.88
		c0-0.792-0.072-1.584-0.144-2.448c-0.288,0-0.576-0.072-0.936-0.144c-0.576,0.648-1.152,1.368-1.8,2.088
		c-0.648,1.368-1.296,2.736-1.944,4.104c-2.52,4.176-5.04,8.424-7.632,12.672c-2.736,2.736-5.472,5.472-8.208,8.208
		c-0.288,0.432-0.576,0.936-0.936,1.44c-8.856,7.632-18.72,15.336-25.416,21.096c-11.448,7.704-11.448,7.704-12.384,7.992
		c-0.36-0.072-0.72-0.144-1.152-0.216c-1.008-0.936-2.088-1.872-3.168-2.88c0-0.36-0.0721-0.72-0.144-1.08
		c1.656-1.944,3.312-3.96,4.968-5.976c4.176-3.816,4.176-3.816,6.12-5.976c0.576-0.864,1.224-1.728,1.872-2.664
		c0.36-0.288,0.792-0.576,1.224-0.936c3.024-3.816,6.048-7.632,9.144-11.52c0.144-0.36,0.288-0.792,0.432-1.224
		c3.168-3.816,5.04-6.696,8.928-11.52c0.288-0.648,0.576-1.296,0.936-1.944c1.44-1.8,2.88-3.6,4.32-5.472
		c0.432-0.936,0.936-1.872,1.44-2.88c1.944-2.16,1.944-2.16,11.52-15.624c3.816-6.48,3.816-6.48,11.52-18.216
		c0.288-0.864,0.576-1.728,0.936-2.664c1.08-1.008,2.232-2.016,3.384-3.096c3.816-5.0399,3.816-5.0399,10.584-12.96
		c0.576-1.008,1.224-2.088,1.872-3.168c2.808-1.8,2.808-1.8,7.344-5.616c3.888-4.68,3.888-4.68,7.92-8.928
		c1.512-1.368,3.024-2.736,4.608-4.176c2.5201-2.808,5.04-5.616,7.632-8.496c0.576-0.864,1.152-1.8,1.8-2.736
		c0.576-0.432,1.152-0.936,1.8-1.44c0,0.216,0.072,0.432,0.144,0.72c-1.008,1.44-2.88,5.76-5.544,10.296
		c0.072,0.792,0.144,1.584,0.216,2.376c1.872,2.736,3.816,5.472,5.76,8.208c0.648,1.296,1.296,2.664,1.944,4.032
		c1.224,3.744,2.52,7.488,3.816,11.304c1.008,4.32,2.88,16.344,4.824,26.136c0.864,6.048,1.728,12.168,2.664,18.288
		c0.432,7.2,0.432,7.2,0.432,14.112c0.288,0.288,0.648,0.648,1.008,1.008c0,0.36,0,0.72,0,1.152
		c-1.872,3.816-3.816,7.632-5.76,11.52c-3.888,5.76-5.76,9.144-12.24,18.504c-0.432,0.072-0.864,0.216-1.296,0.36
		c-0.288,0.432-0.648,0.864-1.008,1.296c-0.072,0.864-0.216,1.728-0.36,2.664c-2.88,3.3839-3.6,3.816-7.56,8.424
		c-1.368,1.296-2.736,2.664-4.176,4.032c-15.84,18-15.84,18-22.32,24.984c-1.224,0.936-2.16,2.16-4.608,4.104
		c-1.224,1.224-2.52,2.52-3.816,3.816c-6.552,5.112-13.104,10.224-19.656,15.336c-11.88,7.704-11.88,7.704-22.176,13.824
		C236.592,421.5599,236.088,421.632,235.584,421.704L235.584,421.704z M157.104,421.632c0-0.432-0.072-0.936-0.144-1.44
		c-0.648-1.008-1.296-2.088-1.944-3.168c-0.432-0.432-0.936-0.936-1.44-1.44c0-0.288,0-0.576,0-0.936
		c0.936-0.576,1.872-1.152,2.808-1.8c0.288,0,0.576,0,0.936,0.072c0.72,2.016,1.44,4.032,2.232,6.048c0,0.576,0,1.152-0.072,1.8
		C158.688,421.056,157.896,421.344,157.104,421.632L157.104,421.632z M81.72,414c-12.024-5.76-12.024-5.76-15.12-7.632
		c-1.368-1.368-2.736-2.736-4.104-4.104c-0.432-0.648-0.864-1.296-1.296-2.016c0-0.2881,0-0.576,0.072-0.936
		c1.008-0.432,5.544-1.368,9.864-2.808c1.296-0.216,2.592-0.432,3.888-0.72c1.584,0,3.168,0,4.752,0
		c1.08,0.288,2.232,0.576,3.384,0.936c1.224,0.648,2.52,1.296,3.816,1.944c1.512,1.224,3.024,2.52,4.608,3.816
		c0.72,0.864,1.44,1.728,2.232,2.592c0,0.216,0,0.432,0,0.72c-1.368,0.432-2.736,0.864-4.176,1.296c-1.368,0-2.736,0-4.104,0
		c-0.216,0.144-0.432,0.288-0.72,0.432c-0.432,1.008-0.864,2.016-1.296,3.024c0.144,3.24,0.144,3.24-0.144,3.456
		C82.872,414,82.296,414,81.72,414L81.72,414z M228.096,413.28c-2.16-2.16-7.2-5.976-11.88-10.152
		c0.864-3.816,1.728-7.632,2.664-11.52c0.144-1.368,0.288-2.736,0.432-4.104c0.648-3.024,1.296-6.048,1.944-9.072
		c0.936-7.488,0.936-7.488,1.944-12.528c0.216-4.752,0-5.256,0-6.912c11.016-7.704,13.32-9.648,18.936-13.464
		c5.04-3.816,9.864-7.92,14.76-11.664c0.216,0,0.432,0,0.72-0.072c-1.872,3.672-3.744,7.3441-5.616,11.0161
		c-1.872,3.168-3.816,6.336-5.76,9.576c-7.704,15.624-7.704,15.624-9.648,19.008c-1.872,5.04-3.816,10.08-5.76,15.12
		c-2.88,6.192-2.88,6.192-3.312,7.92c-0.0721,1.512-0.144,3.024-0.288,4.536c0.504,3.3839,0.504,3.3839,1.944,9.576
		c-0.0721,0.864-0.144,1.728-0.216,2.664C228.672,413.2079,228.384,413.2079,228.096,413.28L228.096,413.28z M152.784,411.8399
		c-0.216-0.504-0.432-1.008-0.648-1.512c0-1.152,0-2.376-0.072-3.6c0.288,0,0.576,0,0.936,0.072
		c0.648,0.792,1.296,1.584,1.944,2.448c0,0.432,0,0.864,0.072,1.296C153,411.9839,153,411.9839,152.784,411.8399L152.784,411.8399z
		 M157.32,408.744c-1.944-2.52-1.944-2.52-4.104-4.536c-0.504-0.144-1.08-0.288-1.656-0.504c-0.576-1.584-1.152-3.2401-1.8-4.896
		c-1.944-3.384-1.944-3.384-4.104-6.264c-1.296-0.936-1.296-0.936-4.176-2.304c-3.6-0.72-3.6-0.72-7.92-0.936
		c-1.44-0.936-2.376-1.944-19.944-13.464c-4.32-2.376-4.32-2.376-4.752-2.88c-0.432-1.296-0.432-1.296-0.504-3.456
		c1.008,0.288,2.016,0.576,3.096,0.864c3.6,1.872,8.928,5.256,19.008,11.016c0.792,0.288,1.584,0.576,2.376,0.936
		c0.36,0.36,0.792,0.792,1.224,1.224c10.8,6.696,10.8,6.696,14.4,8.64c2.376,1.944,2.376,1.944,4.032,2.88
		c6.48,5.976,8.64,8.424,10.368,9.864c0,0.288,0,0.576,0.072,0.864c-1.44,0.936-2.952,1.872-4.464,2.88
		C158.112,408.6719,157.752,408.6719,157.32,408.744L157.32,408.744z M205.056,404.064c0.36-2.16,0.36-2.16,0.72-2.736
		c0.216,0,0.432-0.072,0.72-0.144c0,0.648,0.072,1.296,0.144,1.944C205.776,403.92,205.776,403.92,205.056,404.064L205.056,404.064z
		 M165.744,403.704c-6.768-5.76-6.768-5.76-8.928-7.2c-0.576-0.72-1.224-1.44-1.872-2.16c-1.728-1.224-3.528-2.52-5.328-3.816
		c-3.6-2.088-7.2-4.1761-10.8-6.264c-0.936-0.936-7.632-4.824-8.856-5.76c-2.52-1.224-5.112-2.52-7.704-3.816
		c-5.976-3.888-5.976-3.888-9.36-5.76c-2.592-1.008-3.816-1.944-5.472-2.664c-1.872-3.672-3.744-7.416-5.688-11.16
		c-1.944-2.88-5.76-7.2-9.576-12.24c0-0.216-0.072-0.432-0.144-0.72c2.016,0.072,4.032,0.216,6.048,0.36
		c1.8,0.288,3.6,0.576,5.472,0.936c6.984,1.944,6.984,1.944,16.128,3.888c4.32,1.224,8.64,2.52,12.96,3.816
		c4.752,1.944,4.752,1.944,21.6,7.704c2.448,1.08,4.896,2.16,7.416,3.312c2.16,0.648,4.32,1.296,6.48,1.944
		c2.088,0.936,4.176,1.872,6.264,2.88c1.152,0.936,1.152,0.936,5.04,2.88c2.016,0.792,4.104,1.584,6.192,2.376
		c0.36,0.2881,0.792,0.648,1.224,1.0081c4.104,1.872,7.416,3.816,9.864,4.752c1.152,0.72,2.304,1.512,3.456,2.304
		c0,0.216,0,0.432,0,0.72c-0.648,0.864-1.296,1.728-1.944,2.664c-1.944,1.656-1.944,1.656-3.816,3.816
		c-4.968,3.888-4.968,3.888-13.32,9.504c-4.752,2.232-9.576,4.4641-14.4,6.696C166.392,403.704,166.104,403.704,165.744,403.704
		L165.744,403.704z M119.16,393.84c-0.936-0.864-1.872-1.728-2.88-2.592c-0.072-0.2881-0.144-0.576-0.216-0.864
		c0.504,0.072,1.08,0.216,1.656,0.36c3.6,1.944,3.6,1.944,3.816,2.304c-0.216,0.144-0.432,0.36-0.72,0.576
		C120.312,393.696,119.736,393.7679,119.16,393.84L119.16,393.84z M123.696,391.6799c-4.032-1.8719-4.032-1.8719-11.952-6.192
		c-1.008-1.368-1.008-1.368-1.872-3.24c-0.216-1.944-0.504-3.96-0.792-5.976c0.504,0.072,1.08,0.144,1.656,0.288
		c17.784,11.52,17.784,11.52,19.224,12.744c-0.504,0.504-3.384,1.44-5.256,2.376
		C124.416,391.6799,124.056,391.6799,123.696,391.6799L123.696,391.6799z M207.216,391.824c0.072-0.936,0.216-1.872,0.36-2.88
		c0.792-0.792,1.584-1.584,2.376-2.376c0.288,0,0.576-0.072,0.864-0.144c0,0.936,0.072,1.872,0.144,2.808
		C209.736,390.096,208.512,390.9599,207.216,391.824L207.216,391.824z M207,377.9279c0-0.792-0.072-1.584-0.144-2.376
		c2.88-3.168,2.88-3.168,5.256-5.04c0.36,0,0.72-0.072,1.152-0.144c0,0.792,0,1.656,0.072,2.52
		c-0.432,0.216-0.864,0.504-1.296,0.792c-0.936,1.368-0.936,1.368-3.816,3.888C207.864,377.64,207.432,377.784,207,377.9279
		L207,377.9279z M96.624,375.624c-1.8-0.936-3.672-1.872-5.544-2.88c-1.728-0.6479-3.456-1.296-5.256-1.944
		c-3.384-1.872-7.2-3.312-8.928-4.32c-7.416-2.88-7.416-2.88-8.856-3.816c-0.288-0.432-0.576-0.864-0.936-1.296
		c-0.432-1.656-0.432-1.656-0.504-5.328c1.656,0.144,4.104,1.08,11.304,3.024c7.632,3.384,7.632,3.384,9.36,3.816
		c7.416,3.888,7.416,3.888,10.872,6.192c-0.216,2.16-0.432,4.32-0.72,6.48C97.2,375.5519,96.912,375.5519,96.624,375.624
		L96.624,375.624z M196.2,371.304c-1.656-1.224-1.656-1.224-3.888-2.232c0-0.36,0-0.792-0.072-1.224
		c1.872-2.376,1.872-2.376,10.512-11.016c0.432,0,0.864-0.072,1.368-0.144c4.1039,1.872,4.1039,1.872,5.5439,2.952
		c0.2881,0.504,0.2881,0.504,0.0721,1.512c-1.5121,1.44-3.024,2.88-4.536,4.32c-2.592,1.872-5.256,3.816-7.92,5.7599
		C196.92,371.2319,196.56,371.2319,196.2,371.304L196.2,371.304z M96.336,365.5439c-0.432-0.504-0.432-0.504-8.136-4.32
		c-9.144-3.816-9.144-3.816-9.864-4.32c-3.6-1.152-7.2-2.304-10.8-3.456c-0.144-0.936-0.144-0.936,0.288-1.8c0.504,0,1.08,0,1.656,0
		c0.36-0.288,0.792-0.648,1.224-1.008c1.008,0.216,2.016,0.432,3.096,0.72c16.776,6.768,19.944,7.704,22.824,9
		c0.792,4.104,0.792,4.104,0.72,5.184C97.056,365.5439,96.696,365.5439,96.336,365.5439L96.336,365.5439z M183.96,365.04
		c-1.656-0.72-3.312-1.44-4.968-2.232c0.072-0.432,0.144-0.936,0.288-1.44c3.096-3.528,6.192-7.056,9.36-10.584
		c0.36,0,0.72-0.072,1.08-0.144c0.36,0.288,0.792,0.648,1.224,1.008c0.864,0.288,1.8,0.576,2.736,0.864
		c-0.072,0.432-0.144,0.936-0.288,1.44c-2.88,3.672-5.76,7.344-8.64,11.0161C184.536,364.968,184.248,364.968,183.96,365.04
		L183.96,365.04z M170.496,358.848c-1.728-0.648-3.456-1.296-5.256-1.944c0-0.432-0.072-0.864-0.144-1.296
		c2.232-3.024,4.464-6.048,6.696-9.144c0.36-0.288,0.792-0.576,1.224-0.936c0.432,0,0.864-0.0721,1.368-0.144
		c3.6,0.936,3.6,0.936,5.472,1.8c0,0.36,0.072,0.792,0.144,1.224c-0.648,0.936-1.296,1.872-1.944,2.88
		c-4.32,4.536-6.264,6.984-7.344,7.704C170.64,358.9919,170.568,358.92,170.496,358.848L170.496,358.848z M95.4,358.128
		c-4.32-1.944-10.08-3.888-13.896-5.76c-3.6-1.44-7.2-2.88-10.8-4.32c-0.432-0.576-0.432-0.576-0.432-1.584
		c0.144-0.144,0.288-0.36,0.432-0.576c2.016-0.432,4.104-0.936,6.192-1.44c3.24-0.36,6.552-0.72,9.864-1.08
		c0,0.288,0,0.576,0.072,0.936c5.76,7.92,7.704,10.08,9.648,12.96c0,0.288-0.072,0.576-0.144,0.864
		C96.048,358.128,95.76,358.128,95.4,358.128L95.4,358.128z M155.88,352.8c-1.08-0.432-2.16-0.864-3.24-1.296
		c0.072-0.36,0.144-0.72,0.216-1.152c1.872-2.952,3.816-5.904,5.76-8.928c1.8-0.144,1.8-0.144,4.68,0.36
		c0,0.288,0.072,0.576,0.144,0.864c-0.288,0.72-0.648,1.44-1.008,2.16c-5.832,7.92-5.832,7.92-6.336,8.136
		C156.024,352.944,155.952,352.872,155.88,352.8L155.88,352.8z M212.976,350.568c0.072-0.432,0.216-0.936,0.36-1.44
		c3.384-3.384,3.384-3.384,4.104-3.816c1.296-1.584,2.664-3.168,4.032-4.824c1.872-2.808,3.816-5.616,5.76-8.424
		c0.6479-1.296,1.296-2.664,1.944-4.032c1.944-2.448,2.88-4.32,6.696-10.08c1.872-4.032,3.816-8.136,5.76-12.24
		c0.432-1.44,0.936-2.88,1.44-4.32c13.32-11.808,13.32-11.808,17.064-14.688c2.592-2.664,5.256-5.4,7.92-8.136
		c0.432-0.144,0.864-0.288,1.368-0.504c-0.864,2.16-1.872,3.384-3.744,7.2c-1.2961,1.584-2.592,3.168-3.888,4.824
		c-3.816,5.76-5.76,8.136-6.192,9.144c-2.88,4.032-3.888,5.04-9.144,12.9601c-7.704,10.08-7.704,10.08-9.576,12.96
		c-3.8159,4.464-7.632,8.928-11.52,13.392C217.152,346.752,217.152,346.752,212.976,350.568L212.976,350.568z M208.944,348.7679
		c-7.4879-3.888-7.4879-3.888-14.184-6.84c0-0.216-0.072-0.432-0.144-0.72c1.944-2.88,1.944-2.88,14.544-18.504
		c3.744-2.16,7.488-4.392,11.304-6.624c2.664-1.224,5.4-2.52,8.136-3.816c2.376-1.944,8.424-5.76,8.856-6.264
		c0.288,0,0.6479,0.072,1.008,0.144c-1.872,3.6-1.872,3.6-3.744,8.424c-1.296,2.376-2.592,4.752-3.888,7.2
		c-1.224,1.728-2.52,3.456-3.816,5.256c-1.224,2.232-2.52,4.464-3.816,6.7679c-0.936,1.2961-1.872,2.664-2.88,4.032
		c-0.144,0.432-0.288,0.936-0.504,1.44c-3.168,3.096-6.336,6.192-9.504,9.36C209.88,348.624,209.448,348.696,208.944,348.7679
		L208.944,348.7679z M143.136,347.5439c-0.576-0.072-1.152-0.216-1.8-0.36c0.216-0.72,0.432-1.44,0.72-2.16
		c1.44-2.232,2.88-4.464,4.32-6.696c0.936,0,1.872-0.072,2.808-0.144c0,0.432,0,0.864,0.072,1.368
		c-2.88,4.752-3.816,6.912-4.68,7.992C144.144,347.5439,143.64,347.5439,143.136,347.5439L143.136,347.5439z M129.24,344.4479
		c-0.216-0.072-0.432-0.216-0.648-0.36c0.072-0.504,0.144-1.08,0.288-1.656c3.816-6.048,4.32-6.48,4.464-7.2
		c0.576,0,1.224,0,1.872,0c-0.288,0.864-0.576,1.728-0.864,2.592c-0.936,1.728-1.872,3.528-2.88,5.328
		c-0.432,0.432-0.864,0.864-1.296,1.296C129.888,344.4479,129.6,344.4479,129.24,344.4479L129.24,344.4479z M407.88,342
		c-5.256-0.288-10.512-0.576-15.84-0.936c-27.864,0-35.064-0.216-63.576,0.144c0.072-0.36,0.144-0.792,0.288-1.224
		c3.888-6.192,7.704-12.96,9.144-14.832c0.936-2.16,4.824-9.144,6.696-13.464c1.008-1.44,1.008-1.44,1.44-2.88
		c1.008-0.936,1.008-0.936,1.944-2.376c0.288-1.296,0.576-2.592,0.936-3.888c0.648-1.08,1.296-2.16,1.944-3.312
		c7.704-17.28,7.704-17.28,13.464-29.52c0.576-1.8,1.224-3.672,1.872-5.544c1.08-2.232,2.16-4.536,3.312-6.84
		c0.72-0.144,1.44-0.288,2.16-0.504c1.152-1.44,2.376-2.88,3.6-4.32c0.288,0,0.576,0,0.936,0c0.36,0.648,0.36,0.648,0.576,3.24
		c-0.936,2.88-0.936,2.88-1.944,7.488c-0.4319,1.008-0.936,2.0161-1.44,3.096c-0.072,0.72-0.144,1.44-0.2159,2.16
		c0.288,0.864,0.576,1.728,0.9359,2.664c0.2881,0.288,0.576,0.576,0.864,0.936c0,0.36,0.072,0.792,0.144,1.224
		c-1.0081,2.88-1.0081,2.88-1.0081,4.032c0.36,0.648,0.72,1.296,1.08,1.944c0.576,0,1.152,0,1.728,0.072
		c0.36-0.288,0.792-0.576,1.224-0.936c0.864-1.512,1.728-3.024,2.592-4.536c0.216,0,0.432-0.072,0.72-0.144
		c-0.36,4.104-0.864,5.76-0.864,6.768c0.288,0.576,0.576,1.224,0.864,1.872c0.216,0.072,0.432,0.216,0.72,0.36
		c0.6479-0.072,1.296-0.144,1.944-0.216c0.504-0.2881,1.08-0.648,1.656-1.0081c0.936,0,1.872,0,2.88,0
		c0.36,0.2881,0.72,0.576,1.08,0.864c0.288,0.792,0.576,1.584,0.936,2.448c0.864,0.936,1.728,1.872,2.664,2.88
		c0.072,0.432,0.144,0.936,0.216,1.44c-1.008,1.296-2.016,2.664-3.096,4.032c0,0.72,0,1.44,0,2.16
		c0.144,0.36,0.288,0.792,0.504,1.224c0.864,0.36,0.864,0.36,1.8,0.36c2.376-1.944,2.376-1.944,4.32-4.104
		c0.936-1.44,0.936-1.44,1.944-2.376c0.216,0,0.432-0.072,0.72-0.144c-0.144,0.576-0.288,1.1519-0.432,1.728
		c-0.72,1.08-1.44,2.16-2.16,3.312c0,0.72,0,1.44,0,2.16c0.216,0.432,0.432,0.936,0.72,1.44c0.648,0.36,0.648,0.36,1.872,0.36
		c1.44-1.656,2.88-3.312,4.32-5.04c0.216,0,0.432,0,0.72-0.072c0,0.72-0.072,1.44-0.144,2.1599
		c-0.648,1.224-1.296,2.5201-1.944,3.816c-2.088,2.088-4.176,4.176-6.264,6.264c-0.072,0.216-0.144,0.432-0.216,0.72
		c0.288,0.72,0.576,1.44,0.864,2.16c0.72,0.288,0.72,0.288,2.16,0.072c1.44-0.936,1.44-0.936,7.2-6.264
		c0.36-0.072,0.792-0.144,1.224-0.288c-0.432,1.512-0.864,3.024-1.368,4.536c0.216,2.664,0.504,2.88,0.504,3.816
		c-0.504,1.008-0.504,1.008-4.824,5.544c0,0.36,0,0.792,0,1.224c0.36,0.576,0.72,1.152,1.08,1.728
		c0.648-0.072,1.296-0.144,1.944-0.216c1.152-1.08,2.376-2.232,3.6-3.384c0.432-0.144,0.936-0.36,1.44-0.576
		c0,0.36,0,0.792,0.072,1.224c0.36,0.648,0.72,1.296,1.08,1.944c0.648,0,1.296,0,1.944,0.072c0.648-0.36,1.296-0.792,1.944-1.224
		c0.36,0,0.792,0,1.224,0c0.576,0.2881,1.152,0.576,1.728,0.864c0.504,1.44,0.504,1.44,0.72,3.384
		c-0.792,0.936-1.584,1.872-2.376,2.88c0.216,1.44,0.72,2.16,0.864,3.096c0.792,0,1.584-0.072,2.376-0.144
		c2.16-2.376,2.16-2.376,4.104-4.032c0.288,0,0.576,0,0.936,0.072c-0.072,0.288-0.216,0.648-0.36,1.008
		c-0.864,1.008-1.728,2.016-2.664,3.096c0,0.648,0,1.296,0,1.944c0.288,0.504,0.576,1.008,0.864,1.512
		c0.432,0.072,0.936,0.144,1.44,0.288c0.432-0.288,0.936-0.648,1.44-1.008c1.944-2.52,1.944-2.52,2.664-3.096
		c0.36-0.072,0.792-0.216,1.224-0.36c-0.432,1.224-0.432,1.224-1.152,2.16c0,0.432,0,0.936,0,1.44
		c0.504,0.72,0.504,0.72,0.864,1.944c0.648-0.072,1.296-0.216,1.944-0.36c1.944-1.944,1.944-1.944,3.6-3.168
		c0.216,0,0.504,0.072,0.792,0.144c0.072,1.44,0.144,2.88,0.288,4.32c1.152,2.448,2.376,4.968,3.6,7.488
		c-0.36,0.288-0.36,0.288-29.376,0.072c-0.36,0.288-0.792,0.576-1.224,0.936C408.384,342,408.168,342,407.88,342L407.88,342z
		 M118.944,341.28c-0.216-0.072-0.432-0.144-0.648-0.288c0.216-1.728,0.216-1.728,1.224-4.104c0.72-1.152,1.512-2.304,2.304-3.528
		c0.504,0,1.08,0.072,1.656,0.144c0,0.576-0.072,1.152-0.144,1.728c-0.936,1.872-1.872,3.816-2.88,5.76
		C119.88,341.28,119.88,341.28,118.944,341.28L118.944,341.28z M106.704,338.4c-0.216-0.072-0.432-0.144-0.648-0.288
		c0.072-0.432,0.144-0.936,0.216-1.44c0.648-1.296,1.296-2.592,1.944-3.888c0.648-0.36,0.648-0.36,3.024-0.432
		c-0.072,0.576-0.216,1.224-0.36,1.872c-0.792,1.368-1.584,2.736-2.448,4.104C107.856,338.3279,107.28,338.3279,106.704,338.4
		L106.704,338.4z M185.184,338.4c-1.08-0.288-2.232-0.576-3.384-0.936c0-0.216-0.072-0.504-0.144-0.792
		c4.968-1.872,4.968-1.872,6.624-2.808c0.36,0,0.792,0.072,1.224,0.144c-1.152,1.44-2.376,2.88-3.6,4.392
		C185.688,338.4,185.472,338.4,185.184,338.4L185.184,338.4z M176.544,335.5199c-1.728-0.4319-1.944-0.72-5.328-1.656
		c-1.296-0.576-2.592-1.152-3.96-1.8c0-0.288,0-0.576,0-0.936c6.48-5.976,6.48-5.976,10.44-10.08c7.776-5.976,8.856-7.2,10.44-8.136
		c2.592-2.232,5.256-4.4641,7.92-6.768c0.504-0.288,1.08-0.576,1.656-0.936c1.368-1.368,2.808-2.736,4.248-4.104
		c11.88-9.576,11.88-9.576,13.752-11.52c0.936-0.576,1.872-1.224,2.88-1.872c5.328-4.824,6.264-6.048,9.36-8.928
		c0.576-0.288,1.1519-0.576,1.8-0.936c2.52-2.088,5.112-4.176,7.704-6.264c0.288,0,0.6479,0,1.008,0
		c-7.704,9.72-7.704,9.72-15.408,20.016c-1.224,1.44-2.52,2.88-3.816,4.32c-3.888,5.4-7.776,10.872-11.7361,16.344
		c-3.168,4.032-6.408,8.136-9.6479,12.24c-0.792,0.648-1.584,1.296-2.376,1.944c-3.384,1.872-4.536,2.88-11.52,6.696
		C181.584,334.08,179.136,334.584,176.544,335.5199L176.544,335.5199z M162.576,330.9839c-0.936-0.216-1.872-0.504-2.88-0.792
		c0-0.36-0.072-0.792-0.144-1.224c1.296-1.224,2.592-2.5201,3.888-3.816c1.224-1.584,2.448-3.168,3.744-4.752
		c0.504-0.144,1.08-0.288,1.656-0.432c0.72-0.432,1.44-0.936,2.16-1.44c3.024-2.7361,6.048-5.472,9.144-8.208
		c11.952-12.24,11.952-12.24,14.112-14.112c1.944-2.448,3.168-3.384,3.6-4.104c1.584-1.296,3.168-2.592,4.824-3.96
		c3.096-3.744,4.32-4.68,6.2639-7.2c4.752-4.68,6.192-5.616,11.5201-10.656c0.504-0.792,1.008-1.656,1.512-2.52
		c1.368-1.224,2.736-2.52,4.104-3.816c1.152-1.44,2.304-2.88,3.456-4.32c4.464-3.888,4.464-3.888,6.84-6.4799
		c0.144-0.288,0.288-0.648,0.504-1.008c1.44-0.936,2.376-2.16,9.576-8.352c2.88-3.168,5.76-6.408,8.64-9.648
		c2.304-1.872,2.304-1.872,6.84-6.48c1.008-0.576,2.016-1.224,3.024-1.872c6.696-5.7599,7.632-6.9839,11.736-10.8
		c3.816-4.104,3.816-4.104,9.36-9.36c1.944-2.664,1.944-2.664,4.104-4.8239c1.08-0.7921,2.16-1.584,3.2401-2.376
		c0.144,0.144,0.36,0.288,0.576,0.432c-0.216,0.72-0.216,0.72-4.104,5.544c-0.72,0.72-1.44,1.44-2.16,2.16
		c-2.52,3.888-5.04,7.776-7.632,11.7361c-6.048,7.4879-6.984,9.144-10.8,13.464c-2.52,3.384-5.112,6.84-7.704,10.296
		c-10.584,12.744-11.016,13.68-14.184,17.064c-1.512,1.8-3.024,3.672-4.536,5.544c-0.792,0.432-1.656,0.864-2.52,1.2961
		c-0.432,0.72-1.44,1.152-11.232,9.36c-2.664,1.872-2.664,1.872-6.048,4.752c-1.872,2.16-1.872,2.16-6.48,6.264
		c-0.72,0.432-1.44,0.936-2.16,1.44c-0.864,0.864-1.728,1.728-2.592,2.664c-0.288,0.144-0.6479,0.288-1.008,0.432
		c-4.536,4.104-4.536,4.104-9.792,8.208c-1.296,1.224-2.592,2.52-3.888,3.816c-5.04,3.816-16.272,13.464-17.28,13.896
		c-1.584,1.296-3.168,2.592-4.752,3.888c-3.6,3.384-7.2,6.84-10.8,10.296C163.728,330.9839,163.152,330.9839,162.576,330.9839
		L162.576,330.9839z M156.384,329.04c-1.296-0.144-2.592-0.36-3.888-0.576c0.36-0.936,1.08-1.44,1.584-2.88
		c0.288-2.376,0.576-4.752,0.864-7.2c0.72-0.072,1.44-0.216,2.16-0.36c0.216-0.144,0.432-0.36,0.72-0.576
		c0.072-0.792,0.144-1.584,0.288-2.376c0.432-0.432,3.528-1.368,4.968-2.304c0.144-0.432,0.288-0.864,0.432-1.296
		c1.944-0.864,1.944-0.864,2.952-1.728c-0.072-0.288-0.144-0.576-0.288-0.936c1.44-0.36,1.44-0.36,2.16-0.864
		c0-0.72,0.072-1.44,0.144-2.232c0.576-0.576,1.224-1.152,1.872-1.728c0-0.792,0-1.584,0-2.376c2.088-1.44,2.088-1.44,2.304-1.944
		c2.88-0.576,2.88-0.576,4.104-1.08c0.144-0.144,0.288-0.288,0.504-0.504c0.072-0.792,0.144-1.584,0.288-2.448
		c0.72-0.432,1.512-0.864,2.304-1.368c0.144-1.08-0.144-1.8-0.144-2.952c0.144-0.144,0.288-0.288,0.504-0.504
		c0-0.72,0.072-1.44,0.144-2.16c1.224-0.36,1.224-0.36,2.664-1.368c0.288-0.36,0.576-0.72,0.936-1.152
		c0.864-0.288,1.728-0.648,2.664-1.008c0.936-0.936,0.936-0.936,1.296-1.728c0.144-1.656,0.288-3.312,0.432-5.04
		c0.288-1.08,0.648-2.232,1.008-3.3839c1.872-2.664,1.872-2.664,4.032-4.824c1.224-0.576,2.448-1.152,3.744-1.8
		c1.152-0.288,2.376-0.576,3.6-0.936c0.648-0.288,1.296-0.648,1.944-1.008c0.432-0.576,0.936-1.152,1.44-1.8
		c0-1.512-0.072-3.024-0.144-4.536c1.224-2.592,2.52-5.256,3.816-7.92c1.008-1.152,1.008-1.152,2.52-2.16
		c1.656-0.576,3.384-1.152,5.112-1.8c1.152-0.648,2.376-1.296,3.6-1.944c1.728-1.728,1.728-1.728,2.232-2.736
		c-0.072-0.432-0.144-0.936-0.216-1.44c-0.864-0.648-1.8-1.296-2.736-2.016c-2.232,0.072-4.464,0.144-6.768,0.216
		c-1.512,0.288-3.024,0.576-4.536,0.936c-0.792,0.36-1.584,0.72-2.448,1.152c0-0.288,0-0.648-0.072-1.008
		c16.776-15.84,16.776-15.84,29.736-27.576c1.584-1.224,3.168-2.52,4.824-3.816c3.816-4.104,3.816-4.104,12.312-12.024
		c4.464-3.816,4.464-3.816,12.888-12.024c2.592-2.736,5.256-5.544,7.92-8.352c4.32-3.888,4.32-3.888,8.136-6.768
		c0.288,0,0.576,0,0.864,0c-3.168,4.104-6.336,8.208-9.576,12.384c-0.648,0.576-1.296,1.224-1.944,1.872
		c-1.224,1.944-2.448,3.888-3.744,5.904c-3.816,4.824-7.92,9.36-9.864,12.24c-1.872,2.16-3.816,5.04-11.736,14.904
		c-1.584,2.232-3.168,4.464-4.824,6.696c-0.288,0.72-0.576,1.44-0.936,2.16c-3.816,3.888-3.816,3.888-9.576,10.8
		c-1.008,1.728-2.16,2.88-6.48,8.928c-0.288,0.072-0.576,0.144-0.864,0.288c-1.872,2.52-3.744,5.04-5.616,7.632
		c-1.008,1.08-2.088,2.16-3.168,3.312c-0.432,1.008-2.376,3.168-4.32,6.048c-0.936,0.936-8.64,11.736-12.96,17.28
		c-0.72,0.432-0.72,0.432-16.272,20.16c-3.888,5.76-3.888,5.76-9.648,13.176c-3.816,4.104-7.632,8.856-13.032,14.616
		C156.528,329.184,156.456,329.1119,156.384,329.04L156.384,329.04z M140.04,326.4479c-3.672-0.288-7.344-0.648-11.016-1.008
		c-2.736-0.432-5.472-0.936-8.208-1.44c-1.8-0.144-3.6-0.288-5.472-0.432c0-0.288-0.072-0.576-0.144-0.864
		c3.816-4.536,3.816-4.536,4.752-6.192c1.512-1.296,3.024-2.592,4.608-3.888c0.648-0.288,1.296-0.576,2.016-0.864
		c0.792,0,1.584,0,2.448,0c0.288,0.36,0.576,0.792,0.936,1.224c0.432,0.216,0.936,0.432,1.44,0.72c2.16,0,2.16,0,4.104-0.36
		c-0.144,0.792-0.288,1.584-0.432,2.448c-0.432,0.792-0.936,1.584-1.44,2.376c0,0.648,0,1.296,0,1.944
		c0.504,0.216,1.008,0.504,1.584,0.792c0.72,0,1.44,0,2.16-0.072c0.072,0.504,0.216,1.08,0.36,1.656
		c0.288,0.432,0.576,0.936,0.936,1.44c0.72,0.144,1.512,0.36,2.304,0.576c0.144,0.576,0.36,1.152,0.576,1.8
		C141.048,326.304,140.544,326.376,140.04,326.4479L140.04,326.4479z M218.52,313.344c0-0.288,0-0.576,0.072-0.936
		c1.944-2.88,5.76-7.416,7.2-9.576c1.944-2.16,2.88-3.6,3.888-4.608c1.224-1.872,2.52-3.816,3.816-5.76
		c2.88-3.312,3.816-5.04,7.704-9.576c0.576-0.936,1.224-1.872,1.872-2.88c1.944-1.944,2.88-3.384,6.768-7.7039
		c1.872-2.88,1.872-2.88,9.576-12.6721c1.224-2.088,2.52-4.176,3.816-6.2639c2.232-2.952,4.464-5.904,6.768-8.856
		c3.456-4.176,6.984-8.352,10.512-12.528c7.848-11.232,7.848-11.232,10.368-14.4c0.288-0.0721,0.576-0.144,0.864-0.216
		c-0.144,0.72-1.152,1.656-4.968,8.136c-1.944,2.664-3.816,6.264-7.704,11.808c-1.584,2.952-3.168,5.904-4.752,8.856
		c-7.704,11.736-12.528,19.944-13.464,21.096c-7.704,13.68-7.704,13.68-11.52,21.168c-1.944,3.024-3.888,6.048-5.904,9.072
		c-1.296,0.936-2.592,1.872-3.96,2.88c-1.296,1.296-2.664,2.592-4.032,3.888c-5.616,3.672-5.616,3.672-12.384,7.488
		C221.544,312.2639,220.032,312.7679,218.52,313.344L218.52,313.344z M177.696,308.304c0.36-1.152,2.304-3.816,3.24-5.76
		c1.656-1.656,5.544-6.696,7.416-9.576c1.008-0.936,1.008-0.936,6.768-8.64c2.16-1.944,2.16-1.944,5.04-5.544
		c2.88-4.104,5.76-8.28,8.64-12.456c0.936-1.008,1.872-2.016,2.88-3.096c0.576-0.936,1.224-1.872,1.872-2.88
		c7.704-9.36,7.704-9.36,12.024-13.968c0.936-1.512,1.8719-3.024,2.88-4.536c7.776-9.864,7.776-9.864,8.424-10.296
		c1.44-1.656,2.88-3.312,4.32-5.04c9.576-12.96,9.576-12.96,10.512-14.688c1.224-0.936,1.224-0.936,3.168-3.312
		c1.584-2.376,3.168-4.752,4.752-7.2c2.16-2.16,2.16-2.16,6.048-6.768c1.224-1.8,2.52-3.6,3.816-5.472
		c4.104-4.8239,4.104-4.8239,7.92-9.864c1.224-0.936,1.224-0.936,2.16-2.376c10.08-12.024,14.904-18.288,15.984-19.224
		c0.288,0,0.576-0.072,0.936-0.144c2.664,1.9439,5.04,4.104,7.704,5.976c3.384,1.9439,3.384,1.9439,10.8,5.328
		c2.664,0.72,2.664,0.72,2.88,1.08c-0.504,0.936-0.504,0.936-11.016,11.376c-0.792,0.648-1.584,1.296-2.448,1.944
		c-1.224,1.512-2.52,3.024-3.816,4.536c-8.424,7.416-8.424,7.416-8.856,8.136c-3.888,2.88-3.888,2.88-5.76,4.824
		c-1.296,1.584-2.592,3.168-3.888,4.824c-15.84,15.84-15.84,15.84-19.152,18.72c-0.288,0.144-0.6479,0.288-1.008,0.432
		c-2.736,2.52-5.544,5.112-8.352,7.704c-1.44,1.584-2.88,3.168-4.32,4.824c-0.432,0.288-0.936,0.576-1.44,0.936
		c-1.296,1.44-2.592,2.88-3.888,4.32c-2.736,2.52-5.544,5.112-8.352,7.704c-7.704,7.92-7.704,7.92-8.928,8.856
		c-1.872,2.52-5.76,6.696-7.632,9.144c-3.672,3.24-7.344,6.48-11.088,9.792c-2.592,2.952-5.256,5.904-7.92,8.928
		c-4.32,3.816-8.136,7.92-10.296,9.792c-3.24,3.312-6.552,6.696-9.864,10.08C179.136,307.224,178.416,307.728,177.696,308.304
		L177.696,308.304z M148.176,300.9599c-0.864-4.392-0.864-4.392-1.08-7.4879c1.224-0.936,2.52-1.872,3.816-2.88
		c1.944-2.16,10.8-10.08,14.904-14.184c0.936-1.224,5.544-5.04,12.96-12.024c0.432-0.072,0.864-0.216,1.368-0.36
		c1.8-1.368,3.6-2.7361,5.472-4.104c8.208-8.28,8.208-8.28,9.36-9.792c2.448-1.944,2.448-1.944,6.048-5.544
		c0.36-0.0721,0.72-0.216,1.152-0.36c-3.744,6.768-3.744,6.768-5.616,9.648c-0.72,0.72-1.44,1.44-2.16,2.16
		c-5.904,3.816-5.904,3.816-9.648,6.696c-1.872,3.2401-3.816,6.552-5.76,9.864c-0.504,0.504-1.008,1.008-1.512,1.512
		c-2.52,0.288-5.112,0.576-7.704,0.936c-0.936,0.432-1.872,0.936-2.88,1.44c-1.872,1.944-1.872,1.944-3.816,4.824
		c-0.576,1.512-1.152,3.096-1.8,4.68c-1.008,4.608-1.008,4.608-1.944,7.488c-2.088,1.224-4.176,2.52-6.264,3.816
		C148.392,301.1039,148.392,301.1039,148.176,300.9599L148.176,300.9599z M250.2,291.528c1.224-2.592,2.448-5.256,3.672-7.92
		c1.944-3.096,1.944-3.096,5.76-10.584c11.52-18.72,11.52-18.72,13.464-21.312c3.312-5.688,6.696-11.376,10.08-17.064
		c0.36-0.36,0.792-0.792,1.224-1.224c0.576-1.152,1.224-2.376,1.872-3.6c3.888-5.472,7.704-11.52,11.088-16.272
		c1.872-3.384,3.816-6.264,5.76-9.864c0.288-0.288,0.576-0.576,0.936-0.936c0.288-0.792,0.576-1.584,0.936-2.448
		c0.288-0.36,0.648-0.72,1.008-1.152c0.144-0.432,0.288-0.936,0.432-1.44c1.296-2.088,2.592-4.176,3.888-6.264
		c4.032-4.824,7.92-8.856,11.664-13.608c0.288,0,0.576,0.072,0.936,0.144c0.864,1.728,1.8,3.528,2.736,5.328
		c0.648,1.656,1.296,3.312,1.944,5.04c0.864,1.584,1.728,3.168,2.592,4.752c-0.936,1.224-0.936,1.224-1.656,1.728
		c-1.584,2.952-3.168,5.904-4.824,8.856c-0.936,0.936-1.872,2.664-2.88,3.816c-1.872,3.168-3.816,5.76-7.632,11.808
		c-3.24,4.032-6.552,8.136-9.864,12.24c-0.936,1.872-0.936,1.872-3.816,5.76c-0.288,0.288-0.648,0.576-1.008,0.936
		c-0.576,1.08-1.224,2.232-1.872,3.3839c-7.704,10.2961-7.704,10.2961-8.784,11.232c-2.304,2.808-4.608,5.616-6.984,8.424
		c-0.432,0.288-0.864,0.576-1.296,0.936c-1.224,1.512-2.52,3.024-3.816,4.608c-2.16,1.872-2.16,1.872-6.264,6.192
		c-0.288,0.576-0.576,1.1519-0.936,1.728c-6.048,5.976-6.984,7.2-10.08,10.08c-1.584,1.224-3.168,2.52-4.824,3.816
		c-0.648,0.72-1.296,1.44-1.944,2.16C251.208,291.024,250.704,291.2399,250.2,291.528L250.2,291.528z M370.656,247.6079
		c-1.8-10.584-1.8-10.584-2.736-14.184c-1.872-4.536-3.816-9.072-5.76-13.68c-1.296-2.376-2.592-4.752-3.888-7.2
		c-7.632-11.952-7.632-11.952-11.952-18c0-0.288,0-0.576,0-0.936c1.08-0.936,3.024-1.8,5.904-3.744c2.16-2.16,2.16-2.16,3.888-4.68
		c0.2881-0.72,0.648-1.44,1.0081-2.16c0.144-1.08,0.288-2.16,0.432-3.312c-0.216-5.328-0.216-5.328-0.936-10.08
		c2.376-2.232,4.752-4.464,7.2-6.768c4.824-3.816,4.824-3.816,9.144-7.92c1.656-2.16,3.312-4.32,5.04-6.48
		c1.872-4.752,1.872-4.752,3.816-11.2319c0.288-1.512,0.576-3.0241,0.936-4.608c0.504-7.92,0.504-7.92,0.504-11.736
		c0.936-0.576,1.872-1.152,2.808-1.8c8.136-8.4239,8.136-8.4239,13.896-15.12c1.944-2.8079,1.944-2.8079,5.616-9.2159
		c0.648-1.584,1.296-3.168,1.944-4.824c0.504-2.304,1.08-4.608,1.656-6.984c0.216-4.032,0.216-4.032-0.216-11.016
		c-0.504-1.944-0.504-1.944-0.504-3.0961c2.16-1.296,4.32-2.5919,6.48-3.8879c5.04-4.032,5.04-4.032,6.984-5.976
		c1.872-2.376,1.872-2.376,6.624-10.0081c0.216,0,0.432,0,0.72-0.072c0.072,0.288,0.144,0.576,0.288,0.936
		c-0.36,4.536-0.72,9.072-1.1519,13.68c-1.728,5.976-3.528,11.952-5.328,18c-1.872,8.2079-1.872,8.2079-2.376,9.144
		c-0.288,2.664-0.576,5.4-0.936,8.136c-0.432,2.448-0.936,4.968-1.44,7.488c-5.76,18-5.76,18-6.768,20.16
		c-0.144,0.7921-0.288,1.584-0.4319,2.376c-0.648,1.6559-1.2961,3.312-1.944,5.04c-2.088,7.848-4.176,15.696-6.264,23.544
		c-0.288,0.432-0.576,0.936-0.936,1.44c-2.304,6.912-4.608,13.896-6.984,20.88c-0.144,1.008-0.288,2.016-0.432,3.096
		c-1.296,4.608-2.592,9.216-3.888,13.896c-5.76,14.4-6.192,16.344-8.136,20.664c-0.936,3.096-0.936,3.096-5.76,15.12
		c-3.816,11.52-3.816,11.52-4.824,13.896C371.52,246.744,371.088,247.1759,370.656,247.6079L370.656,247.6079z M477.216,236.6639
		c-1.152-0.144-2.376-0.288-3.6-0.504c-0.432-0.288-0.936-0.576-1.44-0.936c-1.8-2.952-2.736-5.112-4.68-7.776
		c-0.792-0.72-1.5841-1.44-2.376-2.16c-1.08-0.648-2.16-1.296-3.24-1.944c-0.72-0.144-1.44-0.36-2.16-0.576
		c-1.08,0-2.232,0-3.3841,0c-1.08,0.288-2.1599,0.576-3.312,0.936c-1.008,0.648-2.088,1.296-3.168,1.944
		c-1.512,0.576-3.024,1.224-4.536,1.8719c-1.8-0.072-3.672-0.144-5.544-0.2159c-0.936-0.648-1.8719-1.2961-2.88-1.944
		c-0.576-1.296-1.1519-2.592-1.8-3.888c-0.288-1.2961-0.576-2.592-0.936-3.888c-1.296-1.224-2.592-2.448-3.96-3.744
		c-2.88-0.936-2.88-0.936-13.464-3.312c-3.096-1.944-5.256-3.888-8.136-5.76c-2.376-2.088-2.376-2.088-3.24-3.24
		c0-0.36,0-0.7921,0-1.224c0.792-0.72,0.792-0.72,1.8-1.08c6.984-0.072,14.04-0.144,21.096-0.216
		c1.08,0.288,2.232,0.576,3.384,0.936c0.864,0.432,1.728,0.936,2.664,1.44c0.576,0.864,1.224,1.728,1.872,2.664
		c1.728,1.44,1.728,1.44,2.664,2.736c0.576,1.368,1.152,2.736,1.8,4.104c0.936,3.6,0.936,3.6,1.296,3.96c0.792,0,1.584,0,2.4481,0
		c1.08-0.288,2.16-0.648,3.312-1.008c3.6-1.872,3.6-1.872,7.1999-3.312c1.152-0.0721,2.376-0.144,3.6001-0.288
		c3.888,1.008,3.888,1.008,6.984,2.16c1.008,0.648,2.016,1.296,3.0959,1.944c1.296,1.368,2.592,2.736,3.8879,4.104
		c1.8721,3.456,1.8721,3.456,3.816,5.976c0.72,0.504,0.72,0.504,2.376,0.936c2.7361,0.216,5.472,0.432,8.2081,0.72
		c0.144,0.144,0.3599,0.288,0.576,0.432c0,0.36,0,0.72,0,1.152c-0.648,0.72-1.296,1.44-1.944,2.16
		c-0.288,0.72-0.576,1.44-0.936,2.16c-1.008,1.008-1.008,1.008-1.944,2.88c-0.432,0.288-0.864,0.6479-1.296,1.008
		C479.952,236.088,478.584,236.376,477.216,236.6639L477.216,236.6639z M305.136,233.928c0.072-0.432,0.216-0.936,0.36-1.44
		c3.816-5.256,11.016-13.896,14.904-19.44c0.576-1.08,1.224-2.232,1.872-3.384c1.512-2.016,3.024-4.104,4.608-6.192
		c0.288-0.792,0.576-1.584,0.936-2.448c1.368-2.0161,2.808-4.032,4.248-6.12c0.288,0,0.648,0.072,1.008,0.144
		c-0.072,1.008-0.144,2.016-0.216,3.096c-0.648,2.52-1.296,5.112-1.944,7.704c-3.24,3.816-6.48,7.632-9.792,11.52
		c-1.5121,1.224-3.024,2.52-4.608,3.816c-0.72,0.792-1.44,1.584-2.16,2.448c-0.144,0.576-0.288,1.224-0.432,1.872
		C305.712,233.712,305.712,233.712,305.136,233.928L305.136,233.928z M471.24,228.744c-0.648-0.792-1.296-1.584-1.944-2.376
		c-1.584-1.368-3.168-2.7361-4.752-4.104c-1.944-0.936-1.944-0.936-4.824-1.656c-1.152,0-2.376,0-3.6,0
		c-3.384,0.936-4.1039,1.44-5.5439,1.872c-1.0801,0.648-2.16,1.296-3.312,1.944c-0.7921,0.216-1.584,0.432-2.4481,0.72
		c-1.224,0-2.52,0-3.816,0c-0.648-0.288-1.296-0.576-1.944-0.936c-0.864-1.08-1.296-2.304-1.584-2.52
		c-0.432-1.656-0.936-3.312-1.44-5.04c-1.008-1.08-2.016-2.232-3.096-3.384c-0.936-0.576-1.944-1.152-2.952-1.8
		c-0.72-0.216-1.512-0.504-2.304-0.792c-0.144-0.6479-0.2881-1.296-0.504-1.944c-1.944-3.096-1.944-3.096-3.384-6.4799
		c0-0.432,0.072-0.864,0.144-1.368c1.296,0,2.592,0,3.888,0c3.312,1.008,3.312,1.008,5.04,1.944
		c1.872,2.376,1.872,2.376,4.032,4.464c0.72,1.656,1.512,3.312,2.304,5.04c0.144,0.792,0.288,1.584,0.432,2.376
		c1.008,1.224,1.008,1.224,1.8,1.728c0.864,0,1.728,0,2.664,0.072c1.152-0.288,2.376-0.576,3.6001-0.936
		c2.304-1.08,4.608-2.232,6.9839-3.384c1.08-0.072,2.232-0.144,3.384-0.216c0.864,0.144,1.728,0.288,2.5919,0.432
		c4.8241,1.944,4.8241,1.944,6.48,2.88c1.368,1.512,2.736,3.024,4.104,4.608c0.576,1.224,1.152,2.448,1.8,3.744
		c0.4319,0.504,0.9359,1.08,1.44,1.656c0.072,0.36,0.144,0.792,0.2159,1.224c-0.864,0.72-1.8,1.44-2.736,2.232
		C471.744,228.744,471.528,228.744,471.24,228.744L471.24,228.744z M103.104,221.0399c-2.736-1.224-5.472-2.52-8.208-3.816
		c-0.432-0.36-0.936-0.792-1.44-1.224c-0.72-0.144-1.44-0.288-2.16-0.432c-0.144-0.216-0.288-0.432-0.432-0.648
		c0.144-0.288,0.288-0.576,0.432-0.936c4.32-2.016,4.32-2.016,7.704-3.96c6.264-5.76,7.704-6.696,9.864-8.856
		c1.584-1.872,3.168-3.816,4.752-5.76c1.296-2.016,2.592-4.032,3.888-6.048c0.36-0.288,0.72-0.576,1.152-0.936
		c1.296-1.8,2.592-3.6,3.888-5.4c0.576-0.576,1.224-1.152,1.872-1.8c1.296,0.36,2.592,0.792,3.888,1.224
		c0.144,0.216,0.288,0.432,0.432,0.72c1.728,0.936,4.824,1.872,13.68,5.76c2.448,1.224,4.968,2.52,7.488,3.816
		c2.592,1.944,2.592,1.944,5.04,3.384c0.504,0.072,1.08,0.144,1.656,0.216c0.504-0.288,1.08-0.576,1.656-0.936
		c0.648-0.936,1.296-1.872,1.944-2.88c1.296-1.224,2.592-2.448,3.96-3.744c0.936-1.872,0.936-1.872,2.88-4.5359
		c0.288-1.5121,0.576-3.024,0.936-4.536c0.936-1.584,1.872-3.168,2.88-4.824c0.576-0.432,1.152-0.864,1.8-1.368
		c1.368,0.072,2.736,0.144,4.104,0.288c3.096,0.576,6.192,1.224,9.36,1.872c5.184,0.576,10.368,1.152,15.624,1.728
		c8.856,0,8.856,0,18.216-0.504c0.72,0.576,0.72,0.576,1.224,1.584c-0.864,2.376-0.864,2.376-1.872,4.104
		c-4.032,3.816-4.032,3.816-6.552,5.7599c-0.576,0.288-1.152,0.576-1.728,0.936c-2.808,0.648-5.688,1.296-8.568,2.016
		c-2.88,0-5.76,0-8.64,0c-4.32-0.936-6.768-1.944-10.368-2.88c-0.792,0.072-1.584,0.144-2.376,0.216
		c-1.872,0.648-3.816,1.296-5.76,1.944c-1.656,0.936-3.312,1.8719-5.04,2.88c-1.296,1.512-2.592,3.096-3.96,4.68
		c-1.008,2.448-1.944,3.888-2.88,6.264c-1.944,2.88-2.88,3.816-3.384,4.824c-0.36,0.216-0.72,0.504-1.08,0.7921
		c-0.576-0.0721-1.224-0.144-1.872-0.216c-2.16-2.16-2.16-2.16-7.704-6.48c-1.008-0.648-2.016-1.296-3.096-1.944
		c-5.76-1.944-10.368-3.816-10.584-4.104c-0.936-0.288-1.872-0.576-2.88-0.936c-2.232-0.288-4.464-0.576-6.696-0.936
		c-0.576,0.072-1.152,0.144-1.728,0.216c-0.936,0.648-1.872,1.296-2.88,1.944c-0.072,2.592-0.216,5.184-0.36,7.776
		c-1.224,2.448-2.52,4.968-3.816,7.488c-1.296,1.512-2.592,3.024-3.96,4.536c-0.792,0.6479-1.584,1.296-2.448,1.944
		c-1.8,0.576-3.6,1.152-5.472,1.728C104.688,221.0399,103.896,221.0399,103.104,221.0399L103.104,221.0399z M157.536,207.144
		c-1.008-0.936-2.016-1.872-3.096-2.88c-1.656-0.936-2.88-2.16-5.76-4.104c-3.6-1.44-5.544-1.872-7.416-2.88
		c-7.488-2.88-7.488-2.88-11.088-3.816c-1.872-0.072-3.816-0.144-5.76-0.216c-1.872,0.936-1.872,0.936-5.04,3.456
		c-0.072,2.232-0.144,4.536-0.216,6.84c-2.88-0.072-5.76-0.216-8.64-0.36c0.216-0.576,0.504-1.224,0.792-1.872
		c1.296-1.584,2.592-3.168,3.888-4.824c1.872-3.096,1.872-3.096,2.592-3.6c2.016-2.736,4.104-5.472,6.192-8.28
		c0.864,0.072,1.728,0.144,2.592,0.216c3.168,1.44,3.168,1.44,4.608,1.656c6.192,2.88,12.456,5.76,18.72,8.64
		c1.872,1.728,2.88,2.16,4.752,3.6c0.72,0,1.44,0,2.16,0c1.08-0.576,2.232-1.224,3.384-1.872c0.648-1.008,1.296-2.016,1.944-3.024
		c0.72-0.72,1.44-1.44,2.16-2.16c1.584-2.304,3.24-4.608,4.896-6.912c0.432-1.224,0.432-1.224,0.936-4.824
		c1.008-1.368,2.016-2.736,3.024-4.104c0.936-0.144,0.936-0.144,11.736,1.8c5.76,0.576,11.52,1.152,17.28,1.8
		c-0.0721,0.936-0.216,1.8719-0.36,2.88c-0.288,0.864-0.576,1.728-0.936,2.664c-1.008,0.936-2.088,1.872-3.168,2.88
		c-0.216,0.432-0.504,0.864-0.792,1.296c-1.512-0.0721-3.024-0.144-4.536-0.216c-3.384-1.008-3.384-1.008-6.768-2.448
		c-1.224-0.072-2.52-0.144-3.816-0.216c-2.952,0.936-5.904,1.872-8.856,2.88c-1.728,1.224-3.528,2.52-5.328,3.816
		c-0.864,1.224-1.8,2.448-2.736,3.744c-1.944,3.888-2.448,4.32-4.32,7.92c-0.72,0.792-1.512,1.656-2.304,2.52
		C158.04,207.144,157.824,207.144,157.536,207.144L157.536,207.144z M344.016,191.304c0-0.576-0.072-1.152-0.144-1.8
		c0.648-2.88,1.296-5.76,1.944-8.64c0.648-1.872,1.296-3.816,1.944-5.76c0.576-1.224,1.224-2.52,1.872-3.816
		c1.296-1.728,2.592-3.456,3.888-5.256c0.216-1.08,0.432-2.2319,0.72-3.3839c-1.2961-3.168-2.592-6.336-3.888-9.576
		c-1.224-2.304-2.52-4.608-3.816-6.984c0-0.3599,0-0.7919,0-1.2239c2.88-4.5359,2.88-4.5359,3.816-6.696
		c11.52-16.056,15.408-20.88,23.04-31.68c4.6801-5.544,9.36-11.0881,14.112-16.704c0.216,0,0.432,0.072,0.72,0.144
		c-3.744,7.416-3.744,7.416-15.264,32.4c-1.872,3.168-3.816,6.336-5.76,9.5759c-3.384,6.7681-4.32,7.92-6.264,11.52
		c-0.072,0.7919-0.144,1.584-0.216,2.448c0.288,0.432,0.576,0.864,0.864,1.296c0.576,0,1.224,0,1.872,0
		c3.384-1.944,3.384-1.944,4.608-3.024c0.936-1.296,0.936-1.296,4.6079-9.072c0.2881-0.9359,0.648-1.8719,1.0081-2.8799
		c3.816-6.48,3.816-6.48,5.616-10.152c0.36,0,0.72,0,1.08,0.072c0.216,0.7199,0.432,1.44,0.72,2.16
		c-0.072,2.664-0.144,5.4-0.216,8.136c-0.648,2.592-1.296,5.256-1.944,7.92c-0.648,1.728-1.296,3.456-1.944,5.2559
		c-0.576,1.0801-1.224,2.2321-1.872,3.384c-1.2961,1.5841-2.592,3.1681-3.888,4.824c-13.536,11.448-13.536,11.448-13.968,12.096
		c-1.08,0.36-2.232,0.72-3.384,1.152c-0.072,0.216-0.216,0.432-0.36,0.6479c0.432,2.088,0.936,4.176,1.44,6.264
		c0,2.448,0,4.896,0,7.416c-0.2881,0.936-0.648,1.872-1.008,2.88c-0.576,0.864-1.224,1.728-1.872,2.664
		c-1.296,0.864-2.592,1.8-3.96,2.736c-2.16,0.936-2.16,0.936-2.88,1.656C344.88,191.304,344.448,191.304,344.016,191.304
		L344.016,191.304z M208.656,174.744c-1.656-0.936-1.656-0.936-2.592-1.944c-1.296-0.576-2.592-1.224-3.888-1.872
		c-0.2881-0.432-0.576-0.864-0.936-1.368c0.288-0.504,0.576-1.008,0.936-1.512c3.096-2.52,6.192-5.112,9.36-7.704
		c0.288-0.4319,0.576-0.864,0.864-1.296c0.936-5.76,0.936-5.76,1.44-12.9601c0.936-4.3199,0.936-4.3199,0.936-5.5439
		c-0.792-0.576-1.656-1.152-2.52-1.8c-1.512-0.288-3.024-0.576-4.536-0.936c-3.8159-1.944-3.8159-1.944-11.016-4.824
		c-6.264-0.936-6.264-0.936-7.92-1.44c-0.576-0.288-1.152-0.576-1.728-0.936c-1.152-1.0801-2.376-2.16-3.6-3.24
		c-0.288-0.576-0.576-1.1521-0.936-1.7281c-0.36-0.36-0.792-0.7199-1.224-1.0799c-1.08-0.072-2.16-0.144-3.312-0.216
		c-1.656,0.9359-3.312,1.8719-5.04,2.88c-1.944,0.504-1.944,0.504-2.88,0.504c-0.72-0.648-1.44-1.296-2.16-1.944
		c-1.08-0.432-2.232-0.936-3.384-1.44c-0.792,0.072-1.584,0.144-2.376,0.216c-0.72,0.288-1.44,0.6479-2.16,1.008
		c-0.576,0.72-1.152,1.4399-1.728,2.16c-0.72,0-0.72,0-1.44-0.36c-0.144-0.72-0.144-0.72,0.36-2.376
		c0.936-1.008,0.936-1.008,2.304-1.944c1.008-0.36,2.016-0.72,3.096-1.0801c1.152,0,2.376,0,3.6,0
		c1.944,0.936,1.944,0.936,3.888,2.3761c0.936-0.216,0.936-0.216,2.88-1.656c0.288-0.36,0.576-0.792,0.936-1.2241
		c1.008-0.6479,2.016-1.296,3.096-1.944c0.864-0.2159,1.728-0.432,2.664-0.7199c0.648,0,1.296,0,1.944,0
		c0.432,0.216,0.936,0.432,1.44,0.648c0.216,0.36,0.504,0.792,0.792,1.224c0.504,2.376,0.504,2.376,0.936,3.312
		c2.448,2.16,2.448,2.16,4.608,4.608c5.904,1.728,5.904,1.728,13.104,3.168c10.08,3.8881,10.08,3.8881,11.736,4.8241
		c0.288,0.36,0.576,0.72,0.936,1.08c0.288,0,0.648,0.072,1.008,0.144c0.432-0.504,0.432-0.504,1.44-1.008c1.008,0,2.016,0,3.096,0
		c4.104,1.944,4.104,1.944,5.76,3.1679c0.72,0,1.44,0,2.16,0c2.88-1.944,2.88-1.944,5.04-2.88
		c0.648,0.0721,1.296,0.1441,1.944,0.2161c1.44,0.792,2.88,1.584,4.32,2.376c3.24,2.952,6.4799,5.9039,9.792,8.928
		c0.792,0.288,1.584,0.576,2.448,0.936c6.48,0.936,6.48,0.936,7.632,1.44c0.432,0.432,0.864,0.864,1.296,1.368c0,0.72,0,1.44,0,2.16
		c-0.576,1.08-1.224,2.16-1.872,3.312c-2.16,2.16-2.16,2.16-4.608,4.104c-0.648,0.216-1.296,0.504-2.016,0.7919
		c-1.872,0.2881-3.816,0.6481-5.76,1.0081c-2.16-0.288-2.16-0.288-3.312-0.72c-1.224-1.224-1.224-1.224-2.664-2.16
		c-0.936-1.512-1.872-3.0959-2.808-4.68c-0.144-0.864-0.288-1.728-0.432-2.664c-1.008-1.656-1.008-1.656-1.44-3.312
		c-0.576-0.648-1.152-1.368-1.8-2.088c-0.288,0-0.576,0-0.936,0c-2.16,2.16-2.16,2.16-3.168,2.664
		c-1.944,0.144-3.96,0.36-5.976,0.576c-0.864,2.8799-0.864,2.8799-1.8,7.92c-1.944,5.328-1.944,5.328-3.888,9.144
		c-0.576,0.7921-1.224,1.584-1.872,2.376c-2.52,1.944-2.52,1.944-5.4,3.744C210.456,174.5999,209.592,174.6719,208.656,174.744
		L208.656,174.744z M320.544,163.9439c-0.792-0.288-1.584-0.576-2.448-0.936c-1.152-1.008-7.632-4.824-10.296-6.768
		c-1.512-1.512-3.096-3.024-4.68-4.608c0.072-0.288,0.144-0.648,0.216-1.008c4.104-4.5361,8.424-8.64,10.296-10.8
		c2.448-2.16,2.88-2.88,5.0399-4.7521c3.888-4.104,8.424-8.2079,12.24-12.24c2.448-2.1599,4.464-4.6079,28.8-28.7999
		c4.608-3.8881,4.608-3.8881,9.648-8.64c1.872-2.16,10.512-10.08,28.296-27.8641c1.224-0.9359,1.224-0.9359,2.088-1.0799
		c0.072,0.0719,0.144,0.144,0.216,0.216c-2.52,3.528-5.04,7.128-7.56,10.728c-1.872,3.312-3.816,6.6959-5.76,10.08
		c-11.52,16.0559-12.528,16.9919-15.408,20.88c-0.288,0.576-0.576,1.2239-0.936,1.872c-5.76,7.704-6.696,9.36-7.704,10.3679
		c-2.88,4.5361-6.696,9.36-14.4,20.16c-2.88,3.6-2.88,3.6-4.752,6.48c-1.944,1.8719-1.944,1.8719-5.76,6.9119
		c-1.0081,1.728-1.0081,1.728-4.824,6.264c-4.104,4.32-4.104,4.32-9.864,11.016c-0.936,1.728-0.936,1.728-1.728,2.52
		C321.048,163.9439,320.832,163.9439,320.544,163.9439L320.544,163.9439z M218.304,161.568c-1.008-0.504-1.008-0.504-3.384-1.08
		c-0.144-0.72,0.792-6.984,1.296-13.8961c0.288-1.3679,0.576-2.736,0.936-4.1039c0.288-0.6481,0.648-1.296,1.008-1.944
		c0.36-0.288,0.72-0.576,1.08-0.936c0.432,0,0.936-0.072,1.44-0.144c0.864,0.288,1.728,0.576,2.664,0.936
		c1.152,1.0081,1.152,1.0081,2.88,1.9441c0.72,0.072,1.44,0.144,2.16,0.216c0.72-0.2881,1.44-0.576,2.16-0.936
		c0.864-0.648,1.728-1.296,2.592-1.944c0.432-0.072,0.936-0.144,1.44-0.2161c1.656,0.936,3.312,1.872,5.04,2.8801
		c1.656,1.584,3.312,3.168,5.04,4.824c1.008,0.432,1.008,0.432,2.664,2.016c0,0.432,0,0.936,0.072,1.44
		c-0.432,0.72-0.432,0.72-1.656,1.728c-1.152,0.216-2.304,0.504-3.456,0.792c-0.648,0-1.368,0-2.088-0.072
		c-0.144-0.4319-0.288-0.9359-0.432-1.44c-0.288-0.288-0.648-0.648-1.008-1.008c-0.288-0.7921-0.576-1.584-0.936-2.376
		c-0.864-0.936-1.8-1.872-2.736-2.88c-0.432,0-0.936-0.072-1.44-0.144c-0.36,0.144-0.792,0.288-1.224,0.504
		c-0.576,0.72-1.224,1.44-1.872,2.16c-0.72,0.216-1.44,0.432-2.16,0.72c-1.728,0-3.528,0-5.328,0c-0.36,0.288-0.72,0.576-1.08,0.864
		c-0.216,2.376-0.72,3.816-1.656,8.856c-0.504,0.72-1.008,2.88-1.296,3.24C218.808,161.568,218.592,161.568,218.304,161.568
		L218.304,161.568z M381.24,118.512c0.792-2.16,1.8-3.888,3.672-8.4241c6.768-12.4559,7.704-14.9039,8.208-15.3359
		c1.872-3.888,2.376-4.32,10.08-19.2241c0.792-1.3679,1.584-2.7359,2.376-4.1039c0.36,0,0.72,0,1.08,0
		c0.36,1.008,0.864,7.488,0.864,10.584c-0.432,2.088-0.936,4.176-1.44,6.264c-0.648,1.656-1.296,3.312-1.944,5.04
		c-1.224,2.16-2.52,4.32-3.816,6.48c-1.296,1.7279-2.592,3.456-3.888,5.256c-3.672,3.888-7.344,7.776-11.016,11.736
		c-0.504,0.2879-1.008,0.6479-1.584,1.008C382.968,118.0079,382.104,118.224,381.24,118.512L381.24,118.512z M410.544,64.512
		c0.072-0.432,0.144-0.936,0.288-1.4401c2.52-4.6799,5.112-9.432,7.704-14.184c3.816-5.7599,3.816-5.7599,9.576-13.6801
		c1.296-1.4399,2.592-2.8799,3.96-4.3199c0.288-0.072,0.648-0.144,1.008-0.2159c-0.432,1.512-0.864,3.0239-1.368,4.5359
		c-0.216,0.2161-0.432,0.432-0.72,0.7201c-0.072,0.36-0.144,0.792-0.216,1.2239c-0.216,0.144-0.432,0.2881-0.72,0.432
		c-0.504,2.6641-0.936,3.168-2.664,9.144c-1.728,3.024-3.456,6.048-5.256,9.144c-1.224,1.224-2.52,2.52-3.816,3.816
		c-1.8,1.224-3.6,2.5199-5.4,3.816C412.128,63.792,411.336,64.1519,410.544,64.512L410.544,64.512z M438.12,18.864
		c0.216-1.44,0.504-2.88,0.792-4.32c1.944-4.752,3.384-9.792,4.032-10.8c0.432,0,0.936-0.072,1.4401-0.144
		c0.4319,0.6479,0.4319,0.6479,1.008,3.744c-0.288,1.584-0.576,3.168-0.936,4.824c-0.2881,0.6479-0.576,1.296-0.936,1.944
		c-1.368,1.44-2.736,2.8799-4.104,4.3199C438.984,18.5759,438.552,18.72,438.12,18.864L438.12,18.864z"/>
</g>
</svg>
