<svg xmlns="http://www.w3.org/2000/svg" viewBox="0 0 100 100"><title>charge-second_side</title><g id="Layer_2" data-name="Layer 2"><g id="Layer_1-2" data-name="Layer 1"><path d="M100,50A50,50,0,1,1,50,0,50,50,0,0,1,100,50ZM25.27,70.1c5.69,5.44,13.68,9,25.16,9,15.21,0,23.63-7.57,23.63-19,0-12.84-12.92-15.56-22.27-17.51C45.5,41.46,42,40.44,42,37.46,42,35,43.88,33,48.73,33a26.36,26.36,0,0,1,16,5.87l8-10.46c-6-5.18-13.94-7.9-23-7.9-14.53,0-22.61,8.24-22.61,17.76,0,13.43,13.09,15.81,22.44,17.68,6,1.28,9.69,2.55,9.69,5.78,0,2.72-3.06,4.85-8.07,4.85A25.62,25.62,0,0,1,33,59.14Z"/></g></g></svg>