<svg xmlns="http://www.w3.org/2000/svg" viewBox="0 0 90.76 58.9"><defs><style>.cls-1{fill:#9e9d9f;}.cls-10,.cls-11,.cls-12,.cls-13,.cls-14,.cls-15,.cls-16,.cls-17,.cls-18,.cls-19,.cls-2,.cls-9{fill:none;}.cls-2{stroke:#636466;}.cls-14,.cls-2,.cls-9{stroke-width:0.5px;}.cls-21,.cls-3{font-size:4px;}.cls-20,.cls-3,.cls-5,.cls-8{fill:#231f20;}.cls-20,.cls-21,.cls-22,.cls-3,.cls-5{font-family:MyriadPro-Bold, Myriad Pro;font-weight:700;}.cls-4{letter-spacing:-0.05em;}.cls-22,.cls-5{font-size:3.5px;}.cls-6{letter-spacing:-0.05em;}.cls-7{letter-spacing:-0.05em;}.cls-10,.cls-11,.cls-12,.cls-13,.cls-9{stroke:#fff;}.cls-10,.cls-11,.cls-12,.cls-13,.cls-14,.cls-15,.cls-16,.cls-17,.cls-18,.cls-9{stroke-miterlimit:2.61;}.cls-10,.cls-15{stroke-width:0.75px;}.cls-12,.cls-17{stroke-width:1.5px;}.cls-13,.cls-18{stroke-width:2px;}.cls-14,.cls-15,.cls-16,.cls-17,.cls-18{stroke:#231f20;}.cls-20{font-size:4.75px;}.cls-21,.cls-22{fill:#fff;}</style></defs><title>info-linethickness</title><g id="Layer_2" data-name="Layer 2"><g id="Layer_1-2" data-name="Layer 1"><path class="cls-1" d="M12.25.25s-12,0-12,12v34.4s0,12,12,12H78.51s12,0,12-12V12.25s0-12-12-12Z"/><path class="cls-2" d="M12.25.25s-12,0-12,12v34.4s0,12,12,12H78.51s12,0,12-12V12.25s0-12-12-12Z"/><text class="cls-3" transform="translate(10.71 8.83)">2p<tspan class="cls-4" x="4.61" y="0">t</tspan><tspan x="5.86" y="0">.</tspan></text><text class="cls-3" transform="translate(28.75 16.83)">1p<tspan class="cls-4" x="4.61" y="0">t</tspan><tspan x="5.86" y="0">.</tspan></text><text class="cls-5" transform="translate(17.55 12.58)">1.5p<tspan class="cls-6" x="6.89" y="0">t</tspan><tspan x="7.98" y="0">.</tspan></text><text class="cls-3" transform="translate(34.61 20.87)">.75p<tspan class="cls-4" x="7.87" y="0">t</tspan><tspan x="9.12" y="0">.</tspan></text><text class="cls-3" transform="translate(46.02 24.28)">.5p<tspan class="cls-7" x="5.65" y="0">t</tspan><tspan x="6.91" y="0">.</tspan></text><rect class="cls-8" x="7.71" y="27.32" width="64.03" height="25.28"/><line class="cls-9" x1="53.96" y1="47.61" x2="71.59" y2="47.61"/><line class="cls-10" x1="44.96" y1="44.03" x2="71.58" y2="44.03"/><line class="cls-11" x1="35.96" y1="40.2" x2="71.74" y2="40.2"/><line class="cls-12" x1="26.84" y1="36.39" x2="71.53" y2="36.39"/><line class="cls-13" x1="17.96" y1="32.53" x2="71.54" y2="32.53"/><line class="cls-14" x1="53.96" y1="22.94" x2="71.89" y2="22.94"/><line class="cls-15" x1="44.96" y1="19.37" x2="71.89" y2="19.37"/><line class="cls-16" x1="35.96" y1="15.53" x2="71.89" y2="15.53"/><line class="cls-17" x1="26.96" y1="11.72" x2="71.69" y2="11.72"/><line class="cls-18" x1="17.96" y1="7.87" x2="71.71" y2="7.87"/><rect class="cls-19" x="7.71" y="6.87" width="64.18" height="45.72"/><text class="cls-20" transform="translate(79.53 21.27) rotate(-90)">Black<tspan x="0.16" y="5.7">Lines</tspan></text><text class="cls-20" transform="translate(79.27 44) rotate(-90)">White<tspan x="0.74" y="5.7">Lines</tspan></text><text class="cls-21" transform="translate(10.71 33.28)">2p<tspan class="cls-4" x="4.61" y="0">t</tspan><tspan x="5.86" y="0">.</tspan></text><text class="cls-22" transform="translate(17.55 37.03)">1.5p<tspan class="cls-6" x="6.89" y="0">t</tspan><tspan x="7.98" y="0">.</tspan></text><text class="cls-21" transform="translate(28.75 41.28)">1p<tspan class="cls-4" x="4.61" y="0">t</tspan><tspan x="5.86" y="0">.</tspan></text><text class="cls-21" transform="translate(34.61 45.32)">.75p<tspan class="cls-4" x="7.87" y="0">t</tspan><tspan x="9.12" y="0">.</tspan></text><text class="cls-21" transform="translate(46.01 48.73)">.5p<tspan class="cls-7" x="5.65" y="0">t</tspan><tspan x="6.91" y="0">.</tspan></text></g></g></svg>