<svg xmlns="http://www.w3.org/2000/svg" viewBox="0 0 300.22 330.54"><defs><style>.cls-1{fill:#9e9e9e;stroke:gray;}.cls-1,.cls-11,.cls-3{stroke-miterlimit:2.61;}.cls-2,.cls-3,.cls-6,.cls-7,.cls-8{fill:#fff;}.cls-11,.cls-3,.cls-4,.cls-6,.cls-7,.cls-8{stroke:#000;}.cls-11,.cls-4{fill:none;}.cls-4{stroke-dasharray:6;}.cls-5{fill:#b70000;}.cls-6,.cls-7{stroke-miterlimit:2.61;}.cls-7,.cls-8{fill-rule:evenodd;}.cls-8{stroke-linejoin:round;}.cls-9{fill:#a6a6a6;}.cls-10{fill:#bababa;}</style></defs><title>info-layouts-stacked</title><g id="Layer_2" data-name="Layer 2"><g id="Layer_1-2" data-name="Layer 1"><rect class="cls-1" x="98.33" y="232.5" width="103.57" height="97.54" rx="9" ry="9"/><path class="cls-2" d="M106.56,236.77a8.9,8.9,0,0,1,1.46-.13,2.38,2.38,0,0,1,1.71.61,2.11,2.11,0,0,1,.46,1.36,3.29,3.29,0,0,1-.93,2.3,3,3,0,0,1-2,.76,2.19,2.19,0,0,1-.46,0l-.6,3.13h-1.17Zm.46,3.85a1.4,1.4,0,0,0,.37,0c1.16,0,1.58-1.15,1.58-1.95,0-.63-.26-1.06-1-1.06a1.68,1.68,0,0,0-.41,0Z"/><path class="cls-2" d="M110,244.76l1.57-8.3h1.22l-1.58,8.3Z"/><path class="cls-2" d="M115.22,244.76c0-.32,0-.63.08-1h0c-.52.87-1.06,1.14-1.51,1.14-.77,0-1.19-.66-1.19-1.7,0-1.78.91-4.33,3.31-4.33a4.07,4.07,0,0,1,1.33.21l-.67,3.29a14.17,14.17,0,0,0-.24,2.43Zm.63-5a1.29,1.29,0,0,0-.33,0c-1.12,0-1.75,2-1.76,3.09,0,.61.1,1,.48,1s1-.88,1.21-2Z"/><path class="cls-2" d="M120.07,237.47l-.27,1.45h1.09l-.17.89h-1.1l-.56,3a4.42,4.42,0,0,0-.07.6c0,.33.16.47.43.47a2.55,2.55,0,0,0,.39,0l-.14.92a2.77,2.77,0,0,1-.76.08,1,1,0,0,1-1.18-1.12,4.94,4.94,0,0,1,.11-.91l.56-3h-.68l.17-.89h.69l.2-1Z"/><path class="cls-2" d="M124,244.49a3.52,3.52,0,0,1-1.54.34c-1.35,0-1.83-.94-1.83-2.12,0-1.65.92-3.88,2.69-3.88a1.36,1.36,0,0,1,1.39,1.47c0,1.52-1.26,2.12-2.88,2.1a2.33,2.33,0,0,0,.1.9.83.83,0,0,0,.84.56,2.28,2.28,0,0,0,1.13-.3Zm-.38-4.09c0-.36-.15-.58-.47-.58-.48,0-.94.61-1.18,1.64.85,0,1.65-.3,1.65-1.05Z"/><path class="cls-2" d="M124.87,243.66a1.75,1.75,0,0,0,.93.25.77.77,0,0,0,.8-.8,1.26,1.26,0,0,0-.59-1,1.94,1.94,0,0,1-.74-1.42,1.87,1.87,0,0,1,2-1.87,1.91,1.91,0,0,1,1,.22l-.28.9a1.36,1.36,0,0,0-.69-.18.76.76,0,0,0-.85.76,1.07,1.07,0,0,0,.49.83,2,2,0,0,1,.85,1.53,1.86,1.86,0,0,1-2.09,1.94,2.23,2.23,0,0,1-1.16-.3Z"/><circle class="cls-3" cx="151.96" cy="285.33" r="39" transform="translate(-82.79 63.08) rotate(-18.53)"/><circle class="cls-4" cx="152.02" cy="285.32" r="18.45" transform="matrix(0.92, -0.38, 0.38, 0.92, -97.62, 79.89)"/><path class="cls-5" d="M140.58,287.1a3.23,3.23,0,0,1-1.3.22,2.37,2.37,0,0,1-2.56-2.53,2.53,2.53,0,0,1,2.68-2.65,2.75,2.75,0,0,1,1.22.23l-.2.73a2.32,2.32,0,0,0-1-.2,1.67,1.67,0,0,0-1.76,1.85,1.65,1.65,0,0,0,1.75,1.81,2.44,2.44,0,0,0,1-.19Z"/><path class="cls-5" d="M141.86,285.69a1,1,0,0,0,1.11.94,2.62,2.62,0,0,0,1-.17l.13.64a3.52,3.52,0,0,1-1.26.22,1.71,1.71,0,0,1-1.87-1.83,1.79,1.79,0,0,1,1.77-1.95,1.57,1.57,0,0,1,1.56,1.76,1.85,1.85,0,0,1,0,.39Zm1.59-.64a.78.78,0,0,0-.75-.89.89.89,0,0,0-.84.89Z"/><path class="cls-5" d="M145.05,284.7c0-.42,0-.77,0-1.08h.81l0,.54h0a1.33,1.33,0,0,1,1.16-.62c.63,0,1.29.41,1.29,1.55v2.15h-.92v-2c0-.52-.19-.92-.69-.92a.77.77,0,0,0-.72.54.92.92,0,0,0,0,.3v2.12h-.93Z"/><path class="cls-5" d="M150.33,282.58v1h.87v.68h-.87v1.61c0,.43.12.67.47.67a1.55,1.55,0,0,0,.36-.05v.7a2,2,0,0,1-.66.09,1,1,0,0,1-.79-.3,1.4,1.4,0,0,1-.29-1V284.3h-.52v-.68h.52v-.82Z"/><path class="cls-5" d="M152.5,285.69a1,1,0,0,0,1.11.94,2.62,2.62,0,0,0,1-.17l.13.64a3.52,3.52,0,0,1-1.26.22,1.71,1.71,0,0,1-1.87-1.83,1.79,1.79,0,0,1,1.77-1.95A1.57,1.57,0,0,1,155,285.3a1.72,1.72,0,0,1,0,.39Zm1.59-.64a.78.78,0,0,0-.75-.89.9.9,0,0,0-.84.89Z"/><path class="cls-5" d="M155.69,284.79c0-.49,0-.84,0-1.17h.79l0,.69h0a1.08,1.08,0,0,1,1-.77.78.78,0,0,1,.22,0v.86a1.85,1.85,0,0,0-.27,0,.81.81,0,0,0-.82.7,2,2,0,0,0,0,.28v1.87h-.92Z"/><path class="cls-5" d="M158.93,285.69a1,1,0,0,0,1.12.94,2.57,2.57,0,0,0,1-.17l.13.64a3.52,3.52,0,0,1-1.26.22,1.71,1.71,0,0,1-1.87-1.83,1.79,1.79,0,0,1,1.77-1.95,1.57,1.57,0,0,1,1.57,1.76,2.94,2.94,0,0,1,0,.39Zm1.59-.64a.78.78,0,0,0-.75-.89.9.9,0,0,0-.84.89Z"/><path class="cls-5" d="M165.47,282v4.26c0,.38,0,.78,0,1h-.82l0-.57h0a1.33,1.33,0,0,1-1.19.66,1.66,1.66,0,0,1-1.54-1.86,1.72,1.72,0,0,1,1.62-1.93,1.14,1.14,0,0,1,1,.47h0V282Zm-.92,3.17a1,1,0,0,0,0-.24.8.8,0,0,0-.79-.65c-.59,0-.91.53-.91,1.2s.32,1.15.9,1.15a.8.8,0,0,0,.79-.65.77.77,0,0,0,0-.27Z"/><rect class="cls-1" x="0.5" y="116.5" width="299.22" height="97.54" rx="9" ry="9"/><path class="cls-2" d="M10.82,128.67a3.1,3.1,0,0,1-1.09.16c-1.87,0-2.23-1.67-2.23-2.78A6.42,6.42,0,0,1,9,121.6a3.17,3.17,0,0,1,2.3-1,2.1,2.1,0,0,1,.87.15l-.35,1.07a1.66,1.66,0,0,0-.67-.11,1.82,1.82,0,0,0-1.34.71,5.4,5.4,0,0,0-1.05,3.33c0,1.17.3,2,1.21,2a2.48,2.48,0,0,0,.83-.14Z"/><path class="cls-2" d="M16.29,122.92l-.74,3.9c-.15.76-.22,1.43-.28,1.94H14.2l.07-.84h0a1.83,1.83,0,0,1-1.55,1c-.73,0-1-.58-1-1.28a6,6,0,0,1,.12-1.08l.67-3.58h1.21L13,126.4a5.47,5.47,0,0,0-.1.92c0,.31.13.53.42.53.46,0,.95-.64,1.12-1.55l.64-3.38Z"/><path class="cls-2" d="M16,131.07l1.16-6.16c.14-.75.24-1.45.32-2h1l-.11.89h0a1.87,1.87,0,0,1,1.49-1c.95,0,1.16.86,1.16,1.73,0,1.9-1,4.3-2.72,4.3a1.52,1.52,0,0,1-.71-.16h0l-.45,2.37Zm1.81-3.32a.75.75,0,0,0,.48.18c1.1,0,1.57-2.3,1.57-3.16,0-.48-.07-.9-.49-.9s-1,.75-1.14,1.64Z"/><path class="cls-2" d="M21.45,127.66a1.75,1.75,0,0,0,.93.25.77.77,0,0,0,.8-.8,1.26,1.26,0,0,0-.59-1,1.94,1.94,0,0,1-.74-1.42,1.87,1.87,0,0,1,2-1.87,1.91,1.91,0,0,1,1,.22l-.28.9a1.36,1.36,0,0,0-.69-.18.76.76,0,0,0-.85.76,1.07,1.07,0,0,0,.49.83,2,2,0,0,1,.85,1.53,1.86,1.86,0,0,1-2.09,1.94,2.23,2.23,0,0,1-1.16-.3Z"/><rect class="cls-6" x="32.34" y="202.52" width="42" height="6.24"/><polygon class="cls-7" points="74.95 201.44 81.84 132.93 25.1 132.93 31.72 201.47 74.95 201.44"/><polygon class="cls-8" points="32.69 202.6 74.68 202.59 74.93 201.47 31.73 201.46 32.69 202.6"/><path class="cls-7" d="M24.2,131.79H82.74c.23,0,.42.27.42.59h0c0,.33-.19.6-.42.6H24.2c-.23,0-.42-.27-.42-.6h0C23.78,132.06,24,131.79,24.2,131.79Z"/><path class="cls-5" d="M43.32,156.23h0l-.88.45-.16-.69,1.18-.58h.77v4.83h-.89Z"/><path class="cls-5" d="M47.61,159.25a2.51,2.51,0,0,0,1.21.32c.59,0,.92-.28.92-.69s-.26-.6-.9-.83c-.82-.3-1.35-.74-1.35-1.46s.68-1.45,1.77-1.45a2.59,2.59,0,0,1,1.21.26l-.23.73a2.24,2.24,0,0,0-1-.23c-.58,0-.83.31-.83.6s.29.57,1,.83c.87.32,1.3.76,1.3,1.49s-.61,1.5-1.91,1.5a3,3,0,0,1-1.35-.31Z"/><path class="cls-5" d="M52.43,155.61a.49.49,0,0,1-.52.49.5.5,0,1,1,.52-.49Zm-1,4.63v-3.62h.92v3.62Z"/><path class="cls-5" d="M56.71,155v4.26c0,.38,0,.78,0,1h-.82l0-.57h0a1.33,1.33,0,0,1-1.19.66,1.67,1.67,0,0,1-1.55-1.86,1.73,1.73,0,0,1,1.63-1.93,1.15,1.15,0,0,1,1,.47h0v-2Zm-.92,3.17a1,1,0,0,0,0-.24.8.8,0,0,0-.79-.65c-.59,0-.91.53-.91,1.2s.32,1.15.9,1.15a.8.8,0,0,0,.79-.65.77.77,0,0,0,0-.27Z"/><path class="cls-5" d="M58.34,158.69a1,1,0,0,0,1.12.94,2.66,2.66,0,0,0,1-.17l.13.64a3.58,3.58,0,0,1-1.27.22,1.72,1.72,0,0,1-1.87-1.83,1.8,1.8,0,0,1,1.78-2,1.57,1.57,0,0,1,1.56,1.76,1.85,1.85,0,0,1,0,.39Zm1.6-.64a.79.79,0,0,0-.76-.89.91.91,0,0,0-.84.89Z"/><path class="cls-5" d="M64.88,155v4.26c0,.38,0,.78,0,1h-.82l0-.57h0a1.3,1.3,0,0,1-1.18.66,1.66,1.66,0,0,1-1.55-1.86,1.72,1.72,0,0,1,1.62-1.93,1.14,1.14,0,0,1,1,.47h0v-2ZM64,158.13a2.12,2.12,0,0,0,0-.24.81.81,0,0,0-.79-.65c-.59,0-.92.53-.92,1.2s.33,1.15.91,1.15a.81.81,0,0,0,.79-.65,1.12,1.12,0,0,0,0-.27Z"/><rect class="cls-6" x="104.34" y="202.52" width="42" height="6.24"/><polygon class="cls-7" points="146.96 201.44 153.84 132.93 97.1 132.93 103.72 201.47 146.96 201.44"/><polygon class="cls-8" points="104.69 202.6 146.68 202.59 146.93 201.47 103.73 201.46 104.69 202.6"/><path class="cls-7" d="M96.2,131.79h58.54c.23,0,.42.27.42.59h0c0,.33-.19.6-.42.6H96.2c-.23,0-.42-.27-.42-.6h0C95.78,132.06,96,131.79,96.2,131.79Z"/><path d="M113.88,160.24v-.55l.58-.53c1.14-1.06,1.67-1.64,1.68-2.28a.76.76,0,0,0-.86-.81,1.75,1.75,0,0,0-1,.4l-.27-.65a2.42,2.42,0,0,1,1.49-.5,1.44,1.44,0,0,1,1.59,1.47c0,.85-.61,1.53-1.45,2.32l-.42.36v0h2v.75Z"/><path d="M119.61,159.25a2.51,2.51,0,0,0,1.21.32c.59,0,.92-.28.92-.69s-.26-.6-.9-.83c-.82-.3-1.35-.74-1.35-1.46s.68-1.45,1.77-1.45a2.59,2.59,0,0,1,1.21.26l-.23.73a2.24,2.24,0,0,0-1-.23c-.58,0-.83.31-.83.6s.29.57,1,.83c.87.32,1.3.76,1.3,1.49s-.61,1.5-1.91,1.5a3,3,0,0,1-1.35-.31Z"/><path d="M124.43,155.61a.49.49,0,0,1-.52.49.5.5,0,1,1,.52-.49Zm-1,4.63v-3.62h.92v3.62Z"/><path d="M128.71,155v4.26c0,.38,0,.78,0,1h-.82l0-.57h0a1.33,1.33,0,0,1-1.19.66,1.67,1.67,0,0,1-1.55-1.86,1.73,1.73,0,0,1,1.63-1.93,1.15,1.15,0,0,1,1,.47h0v-2Zm-.92,3.17a1,1,0,0,0,0-.24.8.8,0,0,0-.79-.65c-.59,0-.91.53-.91,1.2s.32,1.15.9,1.15a.8.8,0,0,0,.79-.65.77.77,0,0,0,0-.27Z"/><path d="M130.34,158.69a1,1,0,0,0,1.12.94,2.66,2.66,0,0,0,1-.17l.13.64a3.58,3.58,0,0,1-1.27.22,1.72,1.72,0,0,1-1.87-1.83,1.8,1.8,0,0,1,1.78-2,1.57,1.57,0,0,1,1.56,1.76,1.85,1.85,0,0,1,0,.39Zm1.6-.64a.79.79,0,0,0-.76-.89.91.91,0,0,0-.84.89Z"/><path d="M136.88,155v4.26c0,.38,0,.78,0,1h-.82l0-.57h0a1.3,1.3,0,0,1-1.18.66,1.66,1.66,0,0,1-1.55-1.86,1.72,1.72,0,0,1,1.62-1.93,1.14,1.14,0,0,1,1,.47h0v-2Zm-.91,3.17a2.12,2.12,0,0,0,0-.24.81.81,0,0,0-.79-.65c-.59,0-.92.53-.92,1.2s.33,1.15.91,1.15a.81.81,0,0,0,.79-.65,1.12,1.12,0,0,0,0-.27Z"/><rect class="cls-6" x="168.17" y="202.52" width="42" height="6.24"/><polygon class="cls-7" points="210.79 201.44 217.68 132.93 160.93 132.93 167.56 201.47 210.79 201.44"/><polygon class="cls-8" points="168.52 202.6 210.51 202.59 210.76 201.47 167.57 201.46 168.52 202.6"/><path class="cls-7" d="M160,131.79h58.55c.23,0,.41.27.41.59h0c0,.33-.18.6-.41.6H160c-.23,0-.42-.27-.42-.6h0C159.61,132.06,159.8,131.79,160,131.79Z"/><path d="M177.72,160.24v-.55l.57-.53c1.14-1.06,1.67-1.64,1.68-2.28a.76.76,0,0,0-.86-.81,1.75,1.75,0,0,0-1,.4l-.27-.65a2.44,2.44,0,0,1,1.49-.5,1.44,1.44,0,0,1,1.6,1.47c0,.85-.61,1.53-1.45,2.32l-.43.36v0h2v.75Z"/><path d="M183.44,159.25a2.54,2.54,0,0,0,1.21.32c.59,0,.92-.28.92-.69s-.25-.6-.9-.83c-.82-.3-1.35-.74-1.35-1.46s.69-1.45,1.77-1.45a2.56,2.56,0,0,1,1.21.26l-.22.73a2.24,2.24,0,0,0-1-.23c-.58,0-.84.31-.84.6s.29.57,1,.83c.88.32,1.3.76,1.3,1.49s-.61,1.5-1.91,1.5a3,3,0,0,1-1.35-.31Z"/><path d="M188.27,155.61a.52.52,0,1,1-.52-.5A.49.49,0,0,1,188.27,155.61Zm-1,4.63v-3.62h.92v3.62Z"/><path d="M192.54,155v4.26c0,.38,0,.78,0,1h-.82l0-.57h0a1.31,1.31,0,0,1-1.18.66,1.66,1.66,0,0,1-1.55-1.86,1.72,1.72,0,0,1,1.62-1.93,1.14,1.14,0,0,1,1,.47h0v-2Zm-.91,3.17a1.05,1.05,0,0,0,0-.24.8.8,0,0,0-.79-.65c-.58,0-.91.53-.91,1.2s.33,1.15.91,1.15a.81.81,0,0,0,.79-.65,1.12,1.12,0,0,0,0-.27Z"/><path d="M194.18,158.69a1,1,0,0,0,1.11.94,2.62,2.62,0,0,0,1-.17l.13.64a3.52,3.52,0,0,1-1.26.22,1.71,1.71,0,0,1-1.87-1.83,1.79,1.79,0,0,1,1.77-2,1.57,1.57,0,0,1,1.56,1.76,1.85,1.85,0,0,1,0,.39Zm1.59-.64a.78.78,0,0,0-.75-.89.89.89,0,0,0-.84.89Z"/><path d="M200.72,155v4.26c0,.38,0,.78,0,1h-.82l0-.57h0a1.33,1.33,0,0,1-1.19.66,1.67,1.67,0,0,1-1.55-1.86,1.72,1.72,0,0,1,1.63-1.93,1.17,1.17,0,0,1,1,.47h0v-2Zm-.92,3.17a2.12,2.12,0,0,0,0-.24.8.8,0,0,0-.79-.65c-.59,0-.92.53-.92,1.2s.33,1.15.91,1.15a.81.81,0,0,0,.79-.65,1.12,1.12,0,0,0,0-.27Z"/><rect class="cls-6" x="233.51" y="202.52" width="42" height="6.24"/><polygon class="cls-7" points="276.12 201.44 283.01 132.93 226.26 132.93 232.89 201.47 276.12 201.44"/><polygon class="cls-8" points="233.85 202.6 275.84 202.59 276.1 201.47 232.9 201.46 233.85 202.6"/><path class="cls-7" d="M225.36,131.79h58.55c.23,0,.42.27.42.59h0c0,.33-.19.6-.42.6H225.36c-.22,0-.41-.27-.41-.6h0C225,132.06,225.14,131.79,225.36,131.79Z"/><rect class="cls-9" x="223.22" y="151.04" width="62.83" height="28.55"/><path class="cls-2" d="M247.46,160.24l-1.23-5h1l.48,2.27c.13.62.25,1.26.33,1.75h0c.08-.52.23-1.12.37-1.75l.54-2.27h1l.5,2.3c.13.6.23,1.16.31,1.7h0c.09-.55.21-1.12.34-1.73l.52-2.27h.94l-1.35,5h-1l-.52-2.36a16,16,0,0,1-.27-1.59h0c-.09.54-.18,1-.33,1.59l-.58,2.36Z"/><path class="cls-2" d="M252.92,157.79c0-.49,0-.84,0-1.17h.8l0,.69h0a1.07,1.07,0,0,1,1-.77.68.68,0,0,1,.21,0v.86a1.57,1.57,0,0,0-.27,0,.8.8,0,0,0-.81.7,1.14,1.14,0,0,0,0,.28v1.87h-.92Z"/><path class="cls-2" d="M257.55,160.24l-.06-.4h0a1.32,1.32,0,0,1-1.07.49,1.08,1.08,0,0,1-1.14-1.08c0-.92.81-1.38,2.15-1.37v-.06c0-.24-.09-.64-.73-.64a2,2,0,0,0-1,.27l-.18-.59a2.56,2.56,0,0,1,1.31-.32,1.35,1.35,0,0,1,1.5,1.52v1.31a6.93,6.93,0,0,0,.05.87Zm-.12-1.77c-.65,0-1.27.13-1.27.68a.48.48,0,0,0,.52.52.75.75,0,0,0,.72-.5.69.69,0,0,0,0-.2Z"/><path class="cls-2" d="M259.29,157.83c0-.48,0-.87,0-1.21h.81l0,.56h0a1.4,1.4,0,0,1,1.24-.64,1.65,1.65,0,0,1,1.53,1.84,1.74,1.74,0,0,1-1.66,2,1.21,1.21,0,0,1-1-.49h0v1.88h-.92Zm.92.9a.69.69,0,0,0,0,.25.82.82,0,0,0,.8.64c.58,0,.92-.48.92-1.2s-.31-1.16-.9-1.16a.91.91,0,0,0-.85.91Z"/><rect class="cls-1" x="0.5" y="0.5" width="299.22" height="97.54" rx="9" ry="9"/><path class="cls-2" d="M7.21,12.76,8.74,4.68H9.87l.72,3.73c.18,1,.32,1.73.4,2.42h0c.11-.87.23-2.06.46-3.24L12,4.68h1.05l-1.53,8.08H10.48L9.74,9.21a18,18,0,0,1-.4-2.6h0c-.11.83-.28,2-.5,3.21l-.56,2.94Z"/><path class="cls-2" d="M15.63,12.76c0-.32,0-.63.07-1h0c-.52.87-1.06,1.14-1.51,1.14-.77,0-1.19-.66-1.19-1.7,0-1.78.91-4.33,3.31-4.33A4.07,4.07,0,0,1,17.61,7l-.67,3.29a13.23,13.23,0,0,0-.24,2.43Zm.63-5a1.29,1.29,0,0,0-.33,0c-1.13,0-1.75,2-1.76,3.09,0,.61.09,1,.48,1s1-.88,1.21-2Z"/><path class="cls-2" d="M17.22,15.07l1.16-6.16c.14-.75.24-1.45.32-2h1.05l-.11.89h0a1.87,1.87,0,0,1,1.49-1c1,0,1.16.86,1.16,1.73,0,1.9-1,4.3-2.72,4.3a1.52,1.52,0,0,1-.71-.16h0l-.45,2.37ZM19,11.75a.75.75,0,0,0,.48.18c1.1,0,1.57-2.3,1.57-3.16,0-.48-.07-.9-.49-.9s-1,.75-1.14,1.64Z"/><path class="cls-2" d="M22.59,12.76l1.57-8.3h1.19l-.93,4.92h0c.14-.22.3-.44.41-.64l1.26-1.82h1.33L25.52,9.44l1,3.32H25.27l-.7-2.68-.38.52-.42,2.16Z"/><path class="cls-2" d="M27,12.76l1.12-5.84h1.21l-1.12,5.84ZM29,6.13c-.39,0-.57-.29-.56-.68a.76.76,0,0,1,.72-.79.59.59,0,0,1,.6.68.76.76,0,0,1-.75.79Z"/><path class="cls-2" d="M29.43,12.76l.73-3.9c.15-.75.24-1.42.32-1.94h1l-.08.83h0A1.93,1.93,0,0,1,33,6.83c.78,0,1.07.57,1.07,1.23a5.63,5.63,0,0,1-.12,1l-.7,3.66H32.08l.71-3.7a3.2,3.2,0,0,0,.07-.7c0-.31-.13-.53-.42-.53s-1,.66-1.2,1.77l-.6,3.16Z"/><path class="cls-2" d="M34.59,11.66a1.75,1.75,0,0,0,.93.25.77.77,0,0,0,.8-.8,1.26,1.26,0,0,0-.59-1A1.94,1.94,0,0,1,35,8.7a1.87,1.87,0,0,1,2-1.87,1.91,1.91,0,0,1,1,.22l-.28.9A1.39,1.39,0,0,0,37,7.77a.76.76,0,0,0-.85.76,1.07,1.07,0,0,0,.49.83,2,2,0,0,1,.85,1.53,1.86,1.86,0,0,1-2.09,1.94,2.23,2.23,0,0,1-1.16-.3Z"/><rect class="cls-2" x="232.45" y="6.88" width="42.29" height="84.57"/><rect class="cls-10" x="232.5" y="71.45" width="42.14" height="19.9"/><rect class="cls-11" x="232.45" y="6.88" width="42.29" height="84.57"/><path d="M255.78,64.64l-5,1.62v-1l2.28-.68c.63-.2,1.22-.36,1.83-.49v0a18.41,18.41,0,0,1-1.82-.51l-2.29-.73v-1l5,1.74Z"/><path d="M254.22,61a1,1,0,0,0,.94-1.12,2.79,2.79,0,0,0-.16-1l.63-.14a3.41,3.41,0,0,1,.22,1.27A1.72,1.72,0,0,1,254,61.86a1.79,1.79,0,0,1-2-1.78,1.58,1.58,0,0,1,1.76-1.56,2.79,2.79,0,0,1,.39,0Zm-.64-1.59a.78.78,0,0,0-.89.75.91.91,0,0,0,.89.84Z"/><path d="M253.32,57.78c-.49,0-.84,0-1.17,0V57l.69,0v0a1.07,1.07,0,0,1-.77-1,1.25,1.25,0,0,1,0-.21H253a1,1,0,0,0,0,.27.79.79,0,0,0,.69.81,1.18,1.18,0,0,0,.28,0h1.88v.91Z"/><path d="M251.12,53.91h1V53h.69v.87h1.6c.44,0,.67-.12.67-.47a1.06,1.06,0,0,0-.05-.36h.7a2,2,0,0,1,.09.66,1.05,1.05,0,0,1-.3.79,1.44,1.44,0,0,1-1,.28h-1.7v.52h-.69V54.8h-.82Z"/><path d="M251.14,51.37a.49.49,0,0,1,.49.52.48.48,0,0,1-.49.5.51.51,0,0,1,0-1Zm4.64,1h-3.63v-.92h3.63Z"/><path d="M255.67,47.77a2.64,2.64,0,0,1,.18,1A1.73,1.73,0,0,1,254,50.66a1.87,1.87,0,0,1-1.94-2,2.24,2.24,0,0,1,.17-.89l.69.16a1.58,1.58,0,0,0-.15.7A1.09,1.09,0,0,0,254,49.73a1.08,1.08,0,0,0,1.17-1.11,1.83,1.83,0,0,0-.14-.72Z"/><path d="M255.78,45.05l-.4.06v0a1.34,1.34,0,0,1,.48,1.07,1.08,1.08,0,0,1-1.08,1.14c-.92,0-1.38-.81-1.37-2.15h-.06c-.24,0-.63.1-.63.74a1.87,1.87,0,0,0,.27,1l-.6.18a2.67,2.67,0,0,1-.32-1.31,1.36,1.36,0,0,1,1.53-1.5h1.31a5.59,5.59,0,0,0,.87-.05Zm-1.77.12c0,.64.12,1.26.67,1.26a.48.48,0,0,0,.52-.52.73.73,0,0,0-.49-.71.53.53,0,0,0-.21,0Z"/><path d="M250.49,43.3v-.92h5.29v.92Z"/><path d="M276.14,61.37V59h.62v1.64h1.14V59.08h.62v1.53h1.76v.76Z"/><path d="M278.76,55.59a1.48,1.48,0,0,1,1.59,1.54,1.45,1.45,0,0,1-1.54,1.5,1.48,1.48,0,0,1-1.59-1.55A1.44,1.44,0,0,1,278.76,55.59Zm0,2.26c.58,0,1-.28,1-.75s-.42-.73-1-.73-1,.21-1,.73S278.29,57.85,278.79,57.85Z"/><path d="M275.92,55v-.76h4.36V55Z"/><path d="M275.92,50.63h3.52l.84,0v.67l-.47,0v0a1.07,1.07,0,0,1,.54,1,1.37,1.37,0,0,1-1.53,1.28,1.42,1.42,0,0,1-1.6-1.34,1,1,0,0,1,.39-.84h-1.69Zm2.62.76a.71.71,0,0,0-.74.67c0,.48.43.76,1,.76s.95-.28.95-.76a.68.68,0,0,0-.53-.65.86.86,0,0,0-.23,0Z"/><path d="M279,48a.81.81,0,0,0,.77-.92,2.41,2.41,0,0,0-.13-.83l.52-.11a3,3,0,0,1,.18,1.05,1.41,1.41,0,0,1-1.51,1.54,1.48,1.48,0,0,1-1.61-1.46,1.3,1.3,0,0,1,1.46-1.3,2,2,0,0,1,.32,0Zm-.53-1.31a.63.63,0,0,0-.73.62.73.73,0,0,0,.73.69Z"/><path d="M275.92,42.62h3.52c.31,0,.64,0,.84,0v.68l-.47,0h0a1.08,1.08,0,0,1,.54,1,1.37,1.37,0,0,1-1.53,1.28,1.43,1.43,0,0,1-1.6-1.34,1,1,0,0,1,.39-.85h-1.69Zm2.62.75-.2,0a.67.67,0,0,0-.54.65c0,.49.43.76,1,.76s.95-.27.95-.75a.66.66,0,0,0-.53-.65.85.85,0,0,0-.23,0Z"/><path d="M277.29,39.07l.86,0h1.69a1.46,1.46,0,0,1,1.73,1.6,2.14,2.14,0,0,1-.24,1.05l-.57-.17a1.81,1.81,0,0,0,.22-.87.8.8,0,0,0-.9-.86h-.26a1,1,0,0,1,.44.87A1.33,1.33,0,0,1,278.8,42a1.44,1.44,0,0,1-1.58-1.36.93.93,0,0,1,.47-.87h0l-.4,0Zm1.2.78-.21,0a.64.64,0,0,0-.48.62c0,.42.37.74,1,.74s.92-.26.92-.74a.65.65,0,0,0-.46-.61,1.18,1.18,0,0,0-.27,0Z"/><path d="M279,37.75a.81.81,0,0,0,.77-.92,2.43,2.43,0,0,0-.13-.84l.52-.11a3,3,0,0,1,.18,1,1.41,1.41,0,0,1-1.51,1.54A1.48,1.48,0,0,1,277.22,37a1.3,1.3,0,0,1,1.46-1.29l.32,0Zm-.53-1.32a.65.65,0,0,0-.73.62.74.74,0,0,0,.73.7Z"/><rect class="cls-2" x="176.94" y="6.88" width="42.29" height="84.57"/><rect class="cls-10" x="176.99" y="71.45" width="42.14" height="19.9"/><rect class="cls-11" x="176.94" y="6.88" width="42.29" height="84.57"/><path class="cls-5" d="M187.24,64.29a2.58,2.58,0,0,0,1.22.32c.58,0,.91-.28.91-.69s-.25-.6-.89-.83c-.83-.3-1.36-.74-1.36-1.46s.69-1.45,1.77-1.45a2.56,2.56,0,0,1,1.21.26l-.22.73a2.22,2.22,0,0,0-1-.24c-.58,0-.83.32-.83.61s.29.56,1,.82c.87.33,1.29.77,1.29,1.49s-.61,1.51-1.9,1.51A2.93,2.93,0,0,1,187,65Z"/><path class="cls-5" d="M193.57,64.78h0a1.25,1.25,0,0,1-1.12.59,1.65,1.65,0,0,1-1.52-1.84,1.73,1.73,0,0,1,1.62-2,1.14,1.14,0,0,1,1.06.55h0l0-.48h.88c0,.32,0,.67,0,1.05v4.05h-.91Zm0-1.63a.83.83,0,0,0,0-.22.8.8,0,0,0-.78-.63c-.59,0-.92.5-.92,1.18s.32,1.16.9,1.16a.8.8,0,0,0,.78-.6.92.92,0,0,0,0-.28Z"/><path class="cls-5" d="M198.72,64.2q0,.64,0,1.08h-.81l0-.55h0a1.3,1.3,0,0,1-1.16.64c-.66,0-1.27-.4-1.27-1.58V61.66h.92v2c0,.6.19,1,.68,1a.78.78,0,0,0,.7-.49.82.82,0,0,0,.05-.28V61.66h.92Z"/><path class="cls-5" d="M201.75,65.28l-.06-.4h0a1.39,1.39,0,0,1-1.08.49,1.07,1.07,0,0,1-1.13-1.08c0-.92.81-1.38,2.15-1.38v0c0-.24-.1-.64-.74-.64a1.91,1.91,0,0,0-1,.27l-.17-.59a2.5,2.5,0,0,1,1.31-.32,1.35,1.35,0,0,1,1.49,1.52v1.31a5.3,5.3,0,0,0,.06.87Zm-.12-1.77c-.65,0-1.27.13-1.27.68a.48.48,0,0,0,.52.52.7.7,0,0,0,.75-.7Z"/><path class="cls-5" d="M203.49,62.83c0-.5,0-.85,0-1.17h.8l0,.69h0a1.08,1.08,0,0,1,1-.77.78.78,0,0,1,.22,0v.86a1.85,1.85,0,0,0-.27,0,.8.8,0,0,0-.82.69,1.29,1.29,0,0,0,0,.29v1.87h-.92Z"/><path class="cls-5" d="M206.73,63.73c0,.65.53.93,1.11.93a2.61,2.61,0,0,0,1-.16l.13.63a3.3,3.3,0,0,1-1.26.23,1.71,1.71,0,0,1-1.87-1.83,1.79,1.79,0,0,1,1.77-2,1.57,1.57,0,0,1,1.57,1.76,3.1,3.1,0,0,1,0,.39Zm1.59-.64a.78.78,0,0,0-.75-.89.89.89,0,0,0-.84.89Z"/><path d="M220.63,61.37V59h.62v1.64h1.15V59.08H223v1.53h1.76v.76Z"/><path d="M223.25,55.59a1.48,1.48,0,0,1,1.59,1.54,1.44,1.44,0,0,1-1.54,1.5,1.49,1.49,0,0,1-1.59-1.55A1.44,1.44,0,0,1,223.25,55.59Zm0,2.26c.58,0,1-.28,1-.75s-.43-.73-1-.73-1,.21-1,.73S222.78,57.85,223.28,57.85Z"/><path d="M220.41,55v-.76h4.37V55Z"/><path d="M220.41,50.63h3.52l.85,0v.67l-.48,0v0a1.07,1.07,0,0,1,.54,1,1.37,1.37,0,0,1-1.53,1.28,1.42,1.42,0,0,1-1.6-1.34.94.94,0,0,1,.4-.84h-1.7Zm2.62.76a.68.68,0,0,0-.2,0,.65.65,0,0,0-.53.65c0,.48.43.76,1,.76s.94-.28.94-.76a.67.67,0,0,0-.53-.65.78.78,0,0,0-.22,0Z"/><path d="M223.49,48a.81.81,0,0,0,.77-.92,2.19,2.19,0,0,0-.13-.83l.52-.11a2.74,2.74,0,0,1,.19,1.05,1.42,1.42,0,0,1-1.52,1.54,1.48,1.48,0,0,1-1.61-1.46,1.3,1.3,0,0,1,1.46-1.3,2,2,0,0,1,.32,0ZM223,46.7a.63.63,0,0,0-.73.62A.73.73,0,0,0,223,48Z"/><path d="M220.41,42.62h3.52c.31,0,.64,0,.85,0v.68l-.48,0h0a1.08,1.08,0,0,1,.54,1,1.37,1.37,0,0,1-1.53,1.28,1.43,1.43,0,0,1-1.6-1.34,1,1,0,0,1,.4-.85h-1.7Zm2.62.75-.2,0a.67.67,0,0,0-.53.65c0,.49.43.76,1,.76s.94-.27.94-.75a.65.65,0,0,0-.53-.65.78.78,0,0,0-.22,0Z"/><path d="M221.78,39.07l.86,0h1.7a1.71,1.71,0,0,1,1.36.45,1.74,1.74,0,0,1,.36,1.15,2.14,2.14,0,0,1-.24,1.05l-.57-.17a1.81,1.81,0,0,0,.23-.87.8.8,0,0,0-.91-.86h-.26a1,1,0,0,1,.45.87A1.34,1.34,0,0,1,223.29,42a1.44,1.44,0,0,1-1.58-1.36.93.93,0,0,1,.47-.87h0l-.4,0Zm1.2.78-.2,0a.63.63,0,0,0-.49.62c0,.42.37.74,1,.74s.92-.26.92-.74a.64.64,0,0,0-.45-.61,1.24,1.24,0,0,0-.27,0Z"/><path d="M223.49,37.75a.81.81,0,0,0,.77-.92,2.21,2.21,0,0,0-.13-.84l.52-.11a2.74,2.74,0,0,1,.19,1,1.42,1.42,0,0,1-1.52,1.54A1.48,1.48,0,0,1,221.71,37a1.3,1.3,0,0,1,1.46-1.29l.32,0ZM223,36.43a.65.65,0,0,0-.73.62.74.74,0,0,0,.73.7Z"/><rect class="cls-3" x="107.18" y="24.51" width="53.55" height="53.55"/><rect class="cls-10" x="151.73" y="24.53" width="9.01" height="53.54"/><rect class="cls-10" x="107.14" y="68.88" width="53.6" height="9.19"/><rect class="cls-11" x="151.73" y="24.53" width="9.01" height="53.54"/><rect class="cls-11" x="107.14" y="68.88" width="53.6" height="9.19"/><path d="M118.27,49.2a2.58,2.58,0,0,0,1.22.32c.58,0,.91-.28.91-.69s-.25-.6-.89-.83c-.83-.3-1.36-.74-1.36-1.46s.69-1.45,1.77-1.45a2.56,2.56,0,0,1,1.21.26l-.22.73a2.24,2.24,0,0,0-1-.23c-.58,0-.83.31-.83.6s.29.56,1,.83c.87.32,1.29.76,1.29,1.48s-.61,1.51-1.9,1.51a3.07,3.07,0,0,1-1.36-.31Z"/><path d="M124.6,49.7h0a1.24,1.24,0,0,1-1.12.58,1.65,1.65,0,0,1-1.52-1.84,1.73,1.73,0,0,1,1.62-1.95,1.14,1.14,0,0,1,1.06.55h0l0-.48h.88c0,.33,0,.67,0,1v4.05h-.91Zm0-1.64a.83.83,0,0,0,0-.22.8.8,0,0,0-.78-.63c-.59,0-.92.5-.92,1.18s.32,1.16.9,1.16a.79.79,0,0,0,.78-.6.92.92,0,0,0,0-.28Z"/><path d="M129.75,49.11q0,.64,0,1.08H129l0-.55h0a1.3,1.3,0,0,1-1.16.64c-.66,0-1.27-.4-1.27-1.58V46.57h.92v2c0,.6.19,1,.68,1a.78.78,0,0,0,.7-.49.82.82,0,0,0,.05-.28V46.57h.92Z"/><path d="M132.78,50.19l-.06-.4h0a1.35,1.35,0,0,1-1.07.49,1.07,1.07,0,0,1-1.14-1.08c0-.92.81-1.38,2.15-1.37v-.06c0-.24-.1-.64-.74-.64a1.91,1.91,0,0,0-1,.27l-.17-.59a2.5,2.5,0,0,1,1.31-.32A1.35,1.35,0,0,1,133.55,48v1.31a5.3,5.3,0,0,0,.06.87Zm-.12-1.77c-.65,0-1.27.13-1.27.68a.49.49,0,0,0,.53.52.7.7,0,0,0,.74-.7Z"/><path d="M134.52,47.74c0-.5,0-.84,0-1.17h.79l0,.69h0a1.08,1.08,0,0,1,1-.77.78.78,0,0,1,.22,0v.86a1.85,1.85,0,0,0-.27,0,.8.8,0,0,0-.82.7,2,2,0,0,0,0,.28v1.87h-.92Z"/><path d="M137.76,48.64a1,1,0,0,0,1.12.94,2.57,2.57,0,0,0,1-.17l.13.64a3.52,3.52,0,0,1-1.26.22,1.71,1.71,0,0,1-1.87-1.83,1.79,1.79,0,0,1,1.77-1.95,1.57,1.57,0,0,1,1.57,1.76,2.94,2.94,0,0,1,0,.39Zm1.59-.64a.78.78,0,0,0-.75-.89.89.89,0,0,0-.84.89Z"/><path d="M99.89,64.12V61.73h.62v1.63h1.15V61.84h.62v1.52H104v.76Z"/><path d="M102.51,58.35a1.49,1.49,0,0,1,1.6,1.53,1.45,1.45,0,0,1-1.55,1.5A1.47,1.47,0,0,1,101,59.83,1.43,1.43,0,0,1,102.51,58.35Zm0,2.25c.58,0,1-.28,1-.74s-.43-.73-1-.73-1,.21-1,.72S102.05,60.6,102.54,60.6Z"/><path d="M99.67,57.73V57H104v.77Z"/><path d="M99.67,53.39h3.53c.3,0,.64,0,.84,0V54l-.48,0h0a1.07,1.07,0,0,1,.55,1,1.38,1.38,0,0,1-1.54,1.28A1.42,1.42,0,0,1,101,55a1,1,0,0,1,.39-.84v0h-1.7Zm2.62.75-.2,0a.67.67,0,0,0-.53.65c0,.49.43.76,1,.76s1-.27,1-.75a.66.66,0,0,0-.54-.65.78.78,0,0,0-.22,0Z"/><path d="M102.75,50.77a.82.82,0,0,0,.78-.92,2.1,2.1,0,0,0-.14-.83l.53-.11a2.86,2.86,0,0,1,.18,1,1.42,1.42,0,0,1-1.51,1.54A1.48,1.48,0,0,1,101,50a1.3,1.3,0,0,1,1.45-1.29l.32,0Zm-.53-1.32a.65.65,0,0,0-.73.62.75.75,0,0,0,.73.7Z"/><path d="M99.67,45.37h3.53l.84,0V46l-.48,0v0a1.06,1.06,0,0,1,.55,1,1.37,1.37,0,0,1-1.54,1.28A1.41,1.41,0,0,1,101,47a1,1,0,0,1,.39-.84h-1.7Zm2.62.76a.71.71,0,0,0-.2,0,.65.65,0,0,0-.53.65c0,.48.43.75,1,.75s1-.27,1-.75a.68.68,0,0,0-.54-.65.78.78,0,0,0-.22,0Z"/><path d="M101,41.82c.21,0,.45,0,.86,0h1.7a1.74,1.74,0,0,1,1.36.44,1.71,1.71,0,0,1,.36,1.16,2.1,2.1,0,0,1-.24,1l-.57-.16a1.82,1.82,0,0,0,.23-.88.8.8,0,0,0-.9-.86h-.26a1,1,0,0,1,.44.88,1.33,1.33,0,0,1-1.46,1.27A1.43,1.43,0,0,1,101,43.39a1,1,0,0,1,.46-.87h0l-.4,0Zm1.2.78a.64.64,0,0,0-.2,0,.62.62,0,0,0-.49.61c0,.43.37.74,1,.74s.92-.26.92-.73a.63.63,0,0,0-.45-.61,1.26,1.26,0,0,0-.27,0Z"/><path d="M102.75,40.5a.82.82,0,0,0,.78-.92,2.17,2.17,0,0,0-.14-.83l.53-.11a2.9,2.9,0,0,1,.18,1,1.42,1.42,0,0,1-1.51,1.55A1.49,1.49,0,0,1,101,39.76a1.3,1.3,0,0,1,1.45-1.29,2,2,0,0,1,.32,0Zm-.53-1.31a.64.64,0,0,0-.73.62.74.74,0,0,0,.73.69Z"/><rect class="cls-3" x="27.22" y="24.29" width="53.55" height="53.55" transform="translate(-20.29 53.1) rotate(-44.97)"/><rect class="cls-10" x="65.24" y="40.06" width="9.01" height="53.54" transform="translate(67.68 -29.74) rotate(45)"/><rect class="cls-10" x="11.5" y="62.15" width="53.6" height="9.19" transform="translate(58.41 -7.53) rotate(45)"/><rect class="cls-11" x="65.24" y="40.06" width="9.01" height="53.54" transform="translate(67.68 -29.74) rotate(45)"/><rect class="cls-11" x="11.5" y="62.15" width="53.6" height="9.19" transform="translate(58.41 -7.53) rotate(45)"/><path class="cls-5" d="M40,43.54a9,9,0,0,1,1.46-.11,3.1,3.1,0,0,1,2.05.58,2.26,2.26,0,0,1,.78,1.85,2.61,2.61,0,0,1-.78,2,3.36,3.36,0,0,1-2.27.68A9.43,9.43,0,0,1,40,48.47Zm.92,4.25a3.86,3.86,0,0,0,.51,0,1.71,1.71,0,0,0,1.89-1.92,1.58,1.58,0,0,0-1.77-1.74,3,3,0,0,0-.63.05Z"/><path class="cls-5" d="M46,43.85a.49.49,0,0,1-.52.49.48.48,0,0,1-.5-.49.51.51,0,0,1,1,0Zm-1,4.64V44.86H46v3.63Z"/><path class="cls-5" d="M49,48.49l-.06-.4h0a1.34,1.34,0,0,1-1.07.48,1.08,1.08,0,0,1-1.14-1.08c0-.92.81-1.38,2.16-1.37v-.06c0-.24-.1-.63-.74-.63a1.91,1.91,0,0,0-1,.27l-.18-.6a2.67,2.67,0,0,1,1.31-.32,1.36,1.36,0,0,1,1.5,1.53v1.31a7.17,7.17,0,0,0,0,.87Zm-.12-1.77c-.65,0-1.27.12-1.27.67a.48.48,0,0,0,.52.52.74.74,0,0,0,.72-.49.82.82,0,0,0,0-.21Z"/><path class="cls-5" d="M54,44.86c0,.25,0,.55,0,1V48A1.74,1.74,0,0,1,52.07,50a2.54,2.54,0,0,1-1.27-.29l.21-.69a2.09,2.09,0,0,0,1.05.28,1,1,0,0,0,1-1.1v-.31h0a1.23,1.23,0,0,1-1.06.54,1.61,1.61,0,0,1-1.54-1.78,1.74,1.74,0,0,1,1.65-1.91,1.14,1.14,0,0,1,1,.57h0l0-.49Zm-.95,1.45a.93.93,0,0,0,0-.24.76.76,0,0,0-.74-.59c-.52,0-.9.45-.9,1.18s.31,1.12.89,1.12a.77.77,0,0,0,.74-.55,1.19,1.19,0,0,0,0-.33Z"/><path class="cls-5" d="M58.44,46.64a1.8,1.8,0,0,1-1.86,1.93,1.76,1.76,0,0,1-1.82-1.87,1.79,1.79,0,0,1,1.88-1.92A1.74,1.74,0,0,1,58.44,46.64Zm-2.73,0c0,.7.34,1.23.9,1.23s.88-.52.88-1.25c0-.56-.25-1.21-.87-1.21S55.71,46.08,55.71,46.68Z"/><path class="cls-5" d="M59.19,45.94c0-.42,0-.77,0-1.08H60l0,.55h0a1.28,1.28,0,0,1,1.15-.63c.63,0,1.29.41,1.29,1.56v2.15h-.92V46.44c0-.52-.19-.92-.69-.92a.77.77,0,0,0-.71.54.91.91,0,0,0,0,.3v2.13h-.93Z"/><path class="cls-5" d="M65.5,48.49l-.06-.4h0a1.38,1.38,0,0,1-1.08.48,1.08,1.08,0,0,1-1.14-1.08c0-.92.82-1.38,2.16-1.37v-.06c0-.24-.1-.63-.74-.63a1.91,1.91,0,0,0-1,.27l-.18-.6a2.68,2.68,0,0,1,1.32-.32,1.35,1.35,0,0,1,1.49,1.53v1.31a7.17,7.17,0,0,0,0,.87Zm-.12-1.77c-.65,0-1.27.12-1.27.67a.48.48,0,0,0,.52.52.74.74,0,0,0,.72-.49.82.82,0,0,0,0-.21Z"/><path class="cls-5" d="M67.24,43.2h.93v5.29h-.93Z"/><path d="M20.84,36.11l1.69-1.7.44.44L21.81,36l.81.81,1.08-1.08.44.44-1.08,1.08L24.3,38.5l-.53.54Z"/><path d="M26.77,33.88a1.48,1.48,0,0,1,0,2.21,1.44,1.44,0,0,1-2.15,0,1.48,1.48,0,0,1,0-2.22A1.43,1.43,0,0,1,26.77,33.88ZM25.2,35.49c.41.41.92.52,1.24.2s.22-.82-.21-1.25-.85-.56-1.22-.19S24.85,35.14,25.2,35.49Z"/><path d="M25.2,31.43l.54-.54L28.83,34l-.54.54Z"/><path d="M28.27,28.36l2.49,2.49c.22.22.46.44.62.58l-.48.48-.36-.31h0a1.08,1.08,0,0,1-.31,1.08,1.37,1.37,0,0,1-2-.18,1.43,1.43,0,0,1-.19-2.08,1,1,0,0,1,.88-.32h0l-1.2-1.2Zm1.32,2.39a.93.93,0,0,0-.15-.13.67.67,0,0,0-.84.08c-.34.35-.23.84.16,1.24s.86.48,1.2.14a.68.68,0,0,0,.09-.84,1.15,1.15,0,0,0-.14-.17Z"/><path d="M32.3,28.69a.81.81,0,0,0,1.2-.11A2.13,2.13,0,0,0,34,27.9l.45.29a2.67,2.67,0,0,1-.61.87,1.41,1.41,0,0,1-2.16,0,1.47,1.47,0,0,1-.1-2.17,1.29,1.29,0,0,1,1.94.12,1.76,1.76,0,0,1,.21.24Zm.56-1.31a.65.65,0,0,0-1-.08.74.74,0,0,0,0,1Z"/><path d="M33.94,22.69l2.49,2.49c.22.22.46.45.61.58l-.47.48-.36-.31h0A1.07,1.07,0,0,1,35.89,27a1.37,1.37,0,0,1-2-.18,1.42,1.42,0,0,1-.19-2.08.93.93,0,0,1,.88-.31h0l-1.2-1.2Zm1.32,2.39L35.1,25a.64.64,0,0,0-.83.09c-.35.34-.23.83.16,1.23s.86.48,1.2.14a.66.66,0,0,0,.08-.84.7.7,0,0,0-.13-.17Z"/><path d="M37.42,21.15a8.62,8.62,0,0,0,.59.63l1.2,1.2a1.75,1.75,0,0,1,.65,1.27,1.75,1.75,0,0,1-.56,1.08,2.16,2.16,0,0,1-.91.57l-.29-.52a1.86,1.86,0,0,0,.78-.46.8.8,0,0,0,0-1.25l-.18-.18h0a1,1,0,0,1-.31.93,1.33,1.33,0,0,1-1.93-.14,1.43,1.43,0,0,1-.16-2.08,1,1,0,0,1,.94-.28h0l-.26-.3Zm.29,1.4a.67.67,0,0,0-.16-.12.62.62,0,0,0-.78.09c-.3.3-.26.78.17,1.21a.8.8,0,0,0,1.17.14.65.65,0,0,0,.12-.76,1.73,1.73,0,0,0-.17-.21Z"/><path d="M39.56,21.43a.81.81,0,0,0,1.2-.11,2.13,2.13,0,0,0,.49-.68l.45.29a2.67,2.67,0,0,1-.61.87,1.41,1.41,0,0,1-2.16,0,1.47,1.47,0,0,1-.1-2.17,1.29,1.29,0,0,1,1.94.12A1.76,1.76,0,0,1,41,20Zm.56-1.31a.64.64,0,0,0-1-.07.73.73,0,0,0,0,1Z"/></g></g></svg>