<svg xmlns="http://www.w3.org/2000/svg" viewBox="0 0 724.73 98.54"><defs><style>.cls-1{fill:#9e9e9e;stroke:gray;}.cls-1,.cls-23,.cls-5{stroke-miterlimit:2.61;}.cls-2{font-size:12px;font-family:MyriadPro-SemiboldCondIt, Myriad Pro;font-style:italic;}.cls-14,.cls-15,.cls-16,.cls-19,.cls-2,.cls-21,.cls-5{fill:#fff;}.cls-17,.cls-19,.cls-2,.cls-26,.cls-7{font-weight:700;}.cls-3{letter-spacing:0.01em;}.cls-4{letter-spacing:-0.01em;}.cls-14,.cls-15,.cls-16,.cls-23,.cls-5,.cls-6{stroke:#000;}.cls-23,.cls-6{fill:none;}.cls-6{stroke-dasharray:6;}.cls-17,.cls-19,.cls-7{font-size:7.45px;}.cls-7{fill:#b70000;}.cls-17,.cls-19,.cls-26,.cls-7{font-family:MyriadPro-Semibold, Myriad Pro;}.cls-8{letter-spacing:-0.02em;}.cls-9{letter-spacing:0em;}.cls-10{letter-spacing:-0.01em;}.cls-11{letter-spacing:-0.01em;}.cls-12{letter-spacing:0em;}.cls-13{letter-spacing:-0.01em;}.cls-14,.cls-15{stroke-miterlimit:2.61;}.cls-15,.cls-16{fill-rule:evenodd;}.cls-16{stroke-linejoin:round;}.cls-18{fill:#a6a6a6;}.cls-19{letter-spacing:-0.02em;}.cls-20{letter-spacing:-0.01em;}.cls-22{fill:#bababa;}.cls-24{letter-spacing:-0.04em;}.cls-25{letter-spacing:0.02em;}.cls-26{font-size:6.15px;}.cls-27{letter-spacing:-0.03em;}.cls-28{letter-spacing:0.01em;}.cls-29{letter-spacing:0em;}</style></defs><title>info-layouts</title><g id="Layer_2" data-name="Layer 2"><g id="Layer_1-2" data-name="Layer 1"><rect class="cls-1" x="620.67" y="0.5" width="103.57" height="97.54" rx="9" ry="9"/><text class="cls-2" transform="translate(627.22 12.76)">Pl<tspan class="cls-3" x="7.48" y="0">a</tspan><tspan class="cls-4" x="12.44" y="0">t</tspan><tspan x="15.49" y="0">es</tspan></text><path class="cls-5" d="M674.3,92.33a39,39,0,1,0-39-39A39.08,39.08,0,0,0,674.3,92.33Z"/><circle class="cls-6" cx="674.35" cy="53.32" r="18.45"/><text class="cls-7" transform="translate(658.79 55.24)"><tspan class="cls-8">C</tspan><tspan x="4.26" y="0">e</tspan><tspan class="cls-9" x="8.11" y="0">n</tspan><tspan class="cls-10" x="12.33" y="0">t</tspan><tspan x="14.9" y="0">e</tspan><tspan class="cls-11" x="18.75" y="0">r</tspan><tspan class="cls-12" x="21.33" y="0">ed</tspan></text><rect class="cls-1" x="310.17" y="0.5" width="299.22" height="97.54" rx="9" ry="9"/><text class="cls-2" transform="translate(316.72 12.76)"><tspan class="cls-13">C</tspan><tspan x="4.3" y="0">ups</tspan></text><rect class="cls-14" x="342.01" y="86.52" width="42" height="6.24"/><polygon class="cls-15" points="384.62 85.44 391.51 16.93 334.76 16.93 341.39 85.47 384.62 85.44"/><polygon class="cls-16" points="342.35 86.6 384.34 86.58 384.6 85.47 341.4 85.46 342.35 86.6"/><path class="cls-15" d="M333.86,15.79h58.55c.23,0,.42.27.42.6h0c0,.33-.19.6-.42.6H333.86c-.23,0-.42-.27-.42-.6h0C333.45,16.06,333.64,15.79,333.86,15.79Z"/><text class="cls-7" transform="translate(351.23 44.24)">1 Sided</text><rect class="cls-14" x="414.01" y="86.52" width="42" height="6.24"/><polygon class="cls-15" points="456.62 85.44 463.51 16.93 406.76 16.93 413.39 85.47 456.62 85.44"/><polygon class="cls-16" points="414.35 86.6 456.34 86.58 456.6 85.47 413.4 85.46 414.35 86.6"/><path class="cls-15" d="M405.86,15.79h58.55c.23,0,.42.27.42.6h0c0,.33-.19.6-.42.6H405.86c-.23,0-.42-.27-.42-.6h0C405.45,16.06,405.64,15.79,405.86,15.79Z"/><text class="cls-17" transform="translate(423.23 44.24)">2 Sided</text><rect class="cls-14" x="477.84" y="86.52" width="42" height="6.24"/><polygon class="cls-15" points="520.46 85.44 527.35 16.93 470.6 16.93 477.22 85.47 520.46 85.44"/><polygon class="cls-16" points="478.19 86.6 520.18 86.58 520.43 85.47 477.23 85.46 478.19 86.6"/><path class="cls-15" d="M469.7,15.79h58.55c.23,0,.42.27.42.6h0c0,.33-.19.6-.42.6H469.7c-.23,0-.42-.27-.42-.6h0C469.28,16.06,469.47,15.79,469.7,15.79Z"/><text class="cls-17" transform="translate(487.06 44.24)">2 Sided</text><rect class="cls-14" x="543.17" y="86.52" width="42" height="6.24"/><polygon class="cls-15" points="585.79 85.44 592.68 16.93 535.93 16.93 542.56 85.47 585.79 85.44"/><polygon class="cls-16" points="543.52 86.6 585.51 86.58 585.76 85.47 542.57 85.46 543.52 86.6"/><path class="cls-15" d="M535,15.79h58.55c.23,0,.42.27.42.6h0c0,.33-.19.6-.42.6H535c-.23,0-.42-.27-.42-.6h0C534.61,16.06,534.8,15.79,535,15.79Z"/><rect class="cls-18" x="532.89" y="35.04" width="62.83" height="28.55"/><text class="cls-19" transform="translate(555.78 44.24)">W<tspan class="cls-11" x="6.31" y="0">r</tspan><tspan class="cls-12" x="8.9" y="0">ap</tspan></text><rect class="cls-1" x="0.5" y="0.5" width="299.22" height="97.54" rx="9" ry="9"/><text class="cls-2" transform="translate(7.05 12.76)"><tspan class="cls-20">N</tspan><tspan x="5.71" y="0">apkins</tspan></text><rect class="cls-21" x="232.45" y="6.88" width="42.29" height="84.57"/><rect class="cls-22" x="232.5" y="71.45" width="42.14" height="19.9"/><rect class="cls-23" x="232.45" y="6.88" width="42.29" height="84.57"/><text class="cls-17" transform="translate(255.78 66.31) rotate(-90)"><tspan class="cls-24">V</tspan><tspan class="cls-12" x="4.2" y="0">e</tspan><tspan class="cls-25" x="8.04" y="0">r</tspan><tspan x="10.87" y="0">tical</tspan></text><text class="cls-26" transform="translate(280.28 61.8) rotate(-90)"><tspan class="cls-27">F</tspan><tspan x="2.96" y="0">old edge</tspan></text><rect class="cls-21" x="176.94" y="6.88" width="42.29" height="84.57"/><rect class="cls-22" x="176.99" y="71.45" width="42.14" height="19.9"/><rect class="cls-23" x="176.94" y="6.88" width="42.29" height="84.57"/><text class="cls-7" transform="translate(186.74 65.28)"><tspan class="cls-28">S</tspan><tspan class="cls-12" x="3.91" y="0">qua</tspan><tspan class="cls-11" x="16.27" y="0">r</tspan><tspan x="18.85" y="0">e</tspan></text><text class="cls-26" transform="translate(224.78 61.8) rotate(-90)"><tspan class="cls-27">F</tspan><tspan x="2.96" y="0">old edge</tspan></text><rect class="cls-5" x="107.18" y="24.51" width="53.55" height="53.55"/><rect class="cls-22" x="151.73" y="24.53" width="9.01" height="53.54"/><rect class="cls-22" x="107.14" y="68.88" width="53.6" height="9.19"/><rect class="cls-23" x="151.73" y="24.53" width="9.01" height="53.54"/><rect class="cls-23" x="107.14" y="68.88" width="53.6" height="9.19"/><text class="cls-17" transform="translate(117.77 50.19)"><tspan class="cls-28">S</tspan><tspan class="cls-12" x="3.91" y="0">qua</tspan><tspan class="cls-11" x="16.27" y="0">r</tspan><tspan x="18.85" y="0">e</tspan></text><text class="cls-26" transform="translate(104.04 64.56) rotate(-90)"><tspan class="cls-27">F</tspan><tspan x="2.96" y="0">old edge</tspan></text><rect class="cls-5" x="27.22" y="24.29" width="53.55" height="53.55" transform="translate(-20.29 53.1) rotate(-44.97)"/><rect class="cls-22" x="65.24" y="40.06" width="9.01" height="53.54" transform="translate(67.68 -29.74) rotate(45)"/><rect class="cls-22" x="11.5" y="62.15" width="53.6" height="9.19" transform="translate(58.41 -7.53) rotate(45)"/><rect class="cls-23" x="65.24" y="40.06" width="9.01" height="53.54" transform="translate(67.68 -29.74) rotate(45)"/><rect class="cls-23" x="11.5" y="62.15" width="53.6" height="9.19" transform="translate(58.41 -7.53) rotate(45)"/><text class="cls-7" transform="translate(39.43 48.49)"><tspan class="cls-29">D</tspan><tspan x="5.11" y="0">iagonal</tspan></text><text class="cls-26" transform="translate(23.46 39.29) rotate(-45)"><tspan class="cls-27">F</tspan><tspan x="2.96" y="0">old edge</tspan></text></g></g></svg>