<svg xmlns="http://www.w3.org/2000/svg" viewBox="0 0 563.76 212.4"><defs><style>.cls-1{fill:#231f20;fill-rule:evenodd;}</style></defs><title>Cruisr3</title><g id="Layer_2" data-name="Layer 2"><g id="Layer_1-2" data-name="Layer 1"><path class="cls-1" d="M6.84,212.4a4.7,4.7,0,0,1-2.09-1.3c-.07-.5-.14-1.08-.22-1.66.94-1.22,3.24-3.17,9.36-10.08a8,8,0,0,0-.14-1.22c-.58-.43-1.15-.94-1.8-1.44v-2.16c.65-1.08,1.3-2.23,1.94-3.38a35.44,35.44,0,0,0,.94-6.48c1-2.38,3.89-6.91,4.32-8.14a2,2,0,0,0-.07-.65c-1.22,0-4.1,1-13,2.45-1.15.43-2.38.94-3.6,1.44H1.3c-.36-.36-.79-.72-1.22-1.08A13.31,13.31,0,0,0,0,177a6.34,6.34,0,0,0,.43-.72,13.74,13.74,0,0,0,3.74-2.81c.29-.5.65-1,1-1.58.86-3,1.8-6,2.74-9.07a134.65,134.65,0,0,1,7.63-12l3.89-4.75c1.87-1.44,1.87-1.44,2.52-2.45a10.81,10.81,0,0,1-1.44-.14c-.94.5-5.54,1.44-12,3.38-1.08.43-2.16.94-3.31,1.44H3c-.36-.36-.79-.72-1.22-1.08a14.06,14.06,0,0,0-.14-1.66,27.06,27.06,0,0,0,3.82-5c.29-.86.65-1.73,1-2.66.94-4.75.94-4.75,1.87-7.2.5-.43.5-.43,1-1.44,1.08-.72,2.16-1.51,3.24-2.3l1.94-.22c.43.14.94.29,1.44.5h2.16c3.6-2.88,3.6-2.88,4.75-3.38,1.37-1.22,2.74-2.52,4.1-3.82,4.32-2.88,4.32-2.88,5.76-3.38a14.91,14.91,0,0,1,4.54,1.94,5.55,5.55,0,0,0,1.08-.14l-.22-2.16c1.08-.14,2.52.14,4.9.14,3.6-3.89,3.6-3.89,4.32-4.32.14-.65.36-1.3.58-2-1.87-6.48-1.87-6.48-3.31-9.86-.36-.29-.79-.58-1.22-.94C43,98.5,42.48,97.7,42,96.84V94.25c.72-.94,1.44-1.87,2.16-2.88l7.06-5.76c2.3-1.22,4.61-2.45,7-3.74,4.82-1.94,13-5.76,26.64-11.52a66.49,66.49,0,0,0,9.65-3.89c13-4.32,13-4.32,13.18-4.68-2.59-2.81-5.26-5.62-7.92-8.5-9.14-8.64-13-12.74-17.06-16.56-1.94-2.09-4-4.18-6-6.34-3.82-5.33-3.82-5.33-5.18-7.92l.22-4.32a18.57,18.57,0,0,1,2.88-4.32c1.15-.79,2.38-1.58,3.6-2.38C86,8.64,88,7.7,98.28,4.32l8.64-2.38h2.38L118.94,0l5.47.22c1,.29,2.09.65,3.17,1l1.15.94,1.22.22L148.18,0l3.6.22c1.37.29,2.74.65,4.1,1A32.6,32.6,0,0,1,162.14,5a10.3,10.3,0,0,0,.79,1.08c.22.94.43,1.87.72,2.88-.5.5-1,1-1.51,1.58L159.7,11c-.5.5-1.08,1-1.66,1.58a8,8,0,0,1-.14,1.22c6.62,3.67,22,13.32,30.17,18.07l1.44-.22c2.16-1.22,4.32-2.52,6.48-3.82,2.59-2.23,5.26-4.46,7.92-6.77,1.3-.29,2.66-.58,4-.94,2.59-.29,5.26-.58,7.92-.94,7.49-1.58,15-3.17,22.61-4.82h1.66c1.8-.65,3.67-1.3,5.54-1.94,2.16-.29,4.32-.58,6.48-.94l2.38.22c7,1.94,17.78,4.32,18.72,4.82,3.31.72,6.7,1.44,10.08,2.16,5.4,1.87,10.87,3.82,16.34,5.76.43.65.86,1.37,1.3,2.09v4c.14.79.36,1.58.58,2.45,5.69,0,11.38,0,17.06.07,2.66-.5,2.66-.5,8.64-.94a38.66,38.66,0,0,1,7.7-2.45l8.14-.43c.36-.14.79-.29,1.22-.5,8.35-.94,8.35-.94,8.86-1.22,10.08-.43,10.58-.72,16.78-1.15a50.45,50.45,0,0,1,8.64-.72l1.73.22,17.28-2.38c13.68-.72,14.62-1,27.07-1.94H429a15.65,15.65,0,0,0,1.73-.5l11-.22c1.22-.14,2.52-.29,3.82-.5,16.13.29,17.06.5,36.29,1,1.22.22,2.52.43,3.82.72h5.76c4.25-.43,8.5-.94,12.74-1.44,6.91-1.58,13.9-3.17,20.88-4.82l12.46-1.94c3.82,0,6-.43,8.14-.43a19.3,19.3,0,0,0,1.94-.5l5.26.22a19.3,19.3,0,0,1,1.94.5A31.31,31.31,0,0,1,558,18.86V21c-.29.43-.65.94-1,1.44l-2.38,1.94-9.94,3.67L535.82,30c-10.37,1.44-10.37,1.44-11.52,1.87-1.87,3.74-1.87,3.74-5.69,13.39A34,34,0,0,0,517.1,52c8.35-.86,14.11-1.8,24.7-2.81L555,47h2.88a8.63,8.63,0,0,0,3.6,1.44,8.24,8.24,0,0,1,2.16,2.3,8,8,0,0,0,.14,1.22c-1.08.79-1.08.79-6.12,2.74l-6.26,1.94c-5.33,1.22-10.66,2.52-16.06,3.82-1.37.14-2.74.29-4.1.5-.79.29-1.58.58-2.38.94-6.7,1.44-7.7,1.94-16.06,3.82-.29.29-4.1,1.22-6.26,2.16-2.88,1.87-5.76,3.82-8.64,5.76-5.76,4.82-6.7,6-7.42,6.48-.72.86-1.44,1.73-2.16,2.66-2.09,1.94-4.18,4-6.26,6-7.7,9.14-7.7,9.14-14.4,17.93a78.78,78.78,0,0,1-5.76,8.28c-.72.43-2.66,2.88-6.7,7.2-.86.58-1.73,1.22-2.66,1.87-.43.58-.94,1.15-1.44,1.73-1.66.94-3.82,2.88-6.7,4.75a10,10,0,0,1-2.45,1.94c-2.16.94-3.6,1.94-6,2.88-3.31,2.52-6.7,5.11-10.08,7.7-3.1,1.87-6.19,3.82-9.36,5.76-4.1,1.87-4.54,2.38-8.42,4.32a42.93,42.93,0,0,0-6.7,1.87c-1.66,1-4.1,1.94-6.41,3.53-.14.43-.29.94-.43,1.44l-1.8,2c-1.94.43-4,.94-6,1.44-4,.29-8,.58-12,.94-1.94.5-3.1.5-6.7,1.22-2.16,0-2.16,0-7.92.94-.29.14-.65.29-1,.5h-2.59c-2.09.43-4.18.94-6.26,1.44l-1.94,1.08c-.07.29-.14.65-.22,1,2.52.58,5.11,1.15,7.7,1.73.94.5,1.87,1,2.88,1.58.36.43.72.86,1.15,1.3a52.19,52.19,0,0,0,8.93,1.44c.29.14.58.29.94.5a9.18,9.18,0,0,0,.07,1.37c-.72.43-1.44.86-2.23,1.3-6.62,1.15-13.25,2.38-19.94,3.6-2.59-.07-5.26-.14-7.92-.29-.43-.29-.94-.58-1.44-.94l-9.79.22c-1,.22-2.09.43-3.17.72-.36.29-.72.65-1.15,1a95.34,95.34,0,0,0-12.74,1.66c-.43.29-.86.58-1.37.86v.72c.58.65,1.22,1.3,1.87,2,1.87.65,3.82,1.3,5.76,1.94l2.23,1.8c.65.86,1.3,1.73,1.94,2.66,0,1.44,0,1.44-.29,1.66a11.11,11.11,0,0,1-.36,1.22c-.43.43-.86.86-1.37,1.3h-6c-5.47-1-9.58-1.44-11-1.94-4.1-.5-4.1-.5-12.46-2.38-1.58-.65-3.17-1.3-4.82-1.94-2.52-.65-5.11-1.3-7.7-1.94-1.44-.94-1.44-.94-4.32-1.87-4.54-1-8.14-1.44-11.74-2.45l-2.16-.22c-.72-.29-1.44-.58-2.16-.94l-12.46-1.94c-3.6.22-3.6.22-4.82.65a3.17,3.17,0,0,1-.14.72c.72.79,1.51,1.58,2.3,2.38,2.23,1.44,4.54,2.88,6.84,4.32,0,.79.07,1.58.14,2.38-2.16.14-2.16.14-7-.36-.29-.14-.58-.29-.94-.5-7-1.15-7.2-1.44-12.74-2.16h-7c-.43-.29-.94-.58-1.44-.94a22,22,0,0,1-6-1.44c-.43-.29-.94-.58-1.44-.94-1.22-.29-2.52-.65-3.82-1h-4.82c-1.22.29-2.52.58-3.82.86a7.4,7.4,0,0,0,.07,1.22c1.94,2.66,4.1,4.82,6,7.2a13.35,13.35,0,0,1,1.44,3.38c-.14.94-.29,1.87-.43,2.88a8.63,8.63,0,0,0-.86.79l-1.44.22c-4.18-.94-8.42-1.87-12.67-2.88-5-1.87-5-1.87-18-7.63-.72-.07-1.44-.14-2.16-.29l-1.73.43c-.14,1.15-.36,2.38-.58,3.6-.5.22-1,.5-1.58.79-1.44.07-2.88.22-4.32.36a14,14,0,0,0,.36,1.44,59.36,59.36,0,0,1,6,7c0,.94,0,.94-.79,2.52H167.4l-11.52-1.94c-2.3-.94-4.61-1.87-7-2.88-1-.65-2-1.3-3.1-2-1.87-2.38-3.82-4.75-5.76-7.13a9.18,9.18,0,0,0-2.88-1.66l-4.82-.22c-1.58.14-3.17.36-4.75.58,0,1.08,0,2.23.07,3.38a10.3,10.3,0,0,1-.79,1.08h-1l-2.59-1.94c-3-1.44-5.9-2.88-8.93-4.32-.79-.22-1.58-.43-2.38-.72-3.1,0-3.1,0-4.25.36v.72l3.17,3.17a5.69,5.69,0,0,1,.43,2.38c-.22.43-.5.94-.79,1.44-.5-.22-1.22.07-7.7.72a3.17,3.17,0,0,1-.14.72c.65,1,1.3,2,1.94,3.1.43,1.15.94,2.38,1.44,3.6l-.22,1.73c-.5.36-1,.72-1.58,1.15-1.66-.58-3.31-1.15-5-1.8A28.45,28.45,0,0,1,94,205a20.77,20.77,0,0,1-2.3-4c-1.58-1.66-3.24-3.31-4.9-5l-2.16-.65c-1.94,0-1.94,0-2.16.29l-1.94.43c-.43.5-.43.5-2.16,1.44a12.73,12.73,0,0,0-1.44.29c-.29-.14-.58-.29-.94-.5h-3.1c-2.88.94-4.82,1.94-8.21,2.88a39.18,39.18,0,0,1-7.2,0c-2.59,1.94-2.59,1.94-3.82,2.38-1.58-.22-3.17-.43-4.82-.72-1.15-.43-2.38-.94-3.6-1.44-5.47-.43-6-.72-7.92-.72-5.26,2.52-10.51,5.11-15.84,7.7-13.39,4.82-13.39,4.82-14.62,5Zm93.82-6c-1.15-.5-1.15-.5-3.6-2.45-.58-1-1.15-2.09-1.8-3.17-2.16-1.94-4.1-4.32-6.34-6.48-3.38-1.87-3.38-1.87-4.32-2.09l-11.52.22a3.45,3.45,0,0,1-1.22,1.44c-5.47.5-5.47.5-5.9.86l-.22,1.73c-.65.14-1.3.36-2,.58H59.9c-.72-.14-1.44-.29-2.16-.5-2.45.22-2.45.22-3.6.72l-1.94,1.94c-1.22-.22-2.52-.43-3.82-.72a21.83,21.83,0,0,0-4.61-1.73l-3.6-.22c-.22-.14-.43-.29-.72-.5l-2.16-.22c-.79.29-1.58.58-2.38.94-.94.65-1.87,1.3-2.88,1.94-4.82,2.23-9.72,4.46-14.62,6.7-1.15.29-2.38.58-3.6.86a9,9,0,0,1,.29-1.15c1.94-2.66,3.89-4.61,5.76-7a18.42,18.42,0,0,1,.36-1.94c1.73-.86,13.46-5.18,15.19-5.62,2.16-1,6-1.94,8.35-2.88.86-.65,1.73-1.3,2.66-1.94,1.51-.43,3-.94,4.54-1.44,13.68-1.66,13.68-1.66,14-1.94,5.26-.94,6.48-1.44,11.52-2.38,3.1-.94,3.1-.94,3.6-1.44a102.59,102.59,0,0,1,12.24-1.22,9.94,9.94,0,0,0,3.31,1.22l6-.22c2.38-.65,4.75-1.3,7.2-1.94,3.24-1.08,6.48-2.23,9.79-3.38,3-.5,5.9-1.08,8.93-1.66,3-.29,6-.58,9.07-.94h4.61c.94.58,1.87,1.22,2.88,1.87,10.3-.43,10.3-.43,10.51-.72,2.88-.36,5.76-.72,8.64-1.15l6.48.22c2.23-.43,4.46-.94,6.77-1.44,10.08-.94,12.24-1.44,20.16-2.38,1.66-.5,1.66-.5,16.06-2.45L232,160.06c3.1-.29,6.19-.58,9.36-.94l5.47.22c14.69-.72,14.69-.72,14.9-.43l1.94.22c1.08-.29,2.16-.58,3.31-.94,3.38,0,8.93-.5,10.58-.29.94-.22,3.82-.22,4.32-.43,13.9-1,13.9-1,19.22-1.73a38.53,38.53,0,0,1,6.7.29c1.87-.29,3.82-.65,5.76-1,19.66-1.87,22.82-1.87,29.52-2.38a102.92,102.92,0,0,1,12.74-1.44c24-2.38,24.19-2.66,34.78-3.82,8.86-1.44,10.3-1.44,12.74-1.94,1.66,0,1.66,0,12.46-1.94a17.66,17.66,0,0,1,1.94.14c-1.8,1.3-3.67,2.59-5.54,4-1.58.43-3.17.94-4.82,1.44-.36.36-.72.79-1.15,1.22-.79.22-1.58.43-2.45.72a29.88,29.88,0,0,0-6.19.43c-.29.36-.65.79-1,1.22l-3.1.22-1.8,1.58c-.5,2.16-.5,2.16-.86,2.52l-5.47.22a7.66,7.66,0,0,1-.79.65c-.14.79-.36,1.58-.58,2.38-.58.29-1.15.65-1.8,1-.29-.14-.58-.29-.94-.43-3.82,0-3.82,0-4.32.29-17.5,2.38-17.5,2.38-19.22,2.88-5.54.43-11.16.94-16.78,1.44-.29.36-.58.72-.94,1.15a7.18,7.18,0,0,1-.14,1.15c1.22,1.22,2.45,2.52,3.67,3.82,1.73,1.08,6,3,7.49,4,1.44.43,2.16.94,4.1,1.51.29.22.58.43.94.72a7.4,7.4,0,0,0,.07,1.22c-1,.36-1,.36-9.22,1.3-1.94-.22-4-.43-6-.72-2.16.29-13.18.29-17.5,0-2.88-.72-2.88-.72-4.32-.72-.29.36-.65.79-1,1.22-.07.5-.14,1.08-.22,1.66-2.3.14-4.61.29-7,.5-2.88-.22-5.26-.72-9.07-.94l-.86,1.3.22,1.73c.65.72,1.3,1.44,2,2.16,1.73,1.22,3.53,2.52,5.33,3.82,2.66,1.58,5.4,3.17,8.14,4.75.29.43.65.86,1,1.37-.29.14-.65.29-1,.43l-4.32-.22c-4.75-.94-8.86-1.44-17.28-3.38-4-1.22-8.14-2.52-12.24-3.82-14.83-3.82-14.83-3.82-28.3-7.7l-10.58-2.16c-6.48-.22-6.48-.22-7.42,0-.29.36-.58.72-.86,1.15-.22.94-.43,1.87-.72,2.88-.43.29-.94.58-1.44.94-.07.36-.14.79-.22,1.22.14.36.29.72.43,1.15l2.45,2.45a3.71,3.71,0,0,1-.14.79h-3.1c-8.42-1.94-16.06-3.38-19.22-4.32-2-.86-4.1-1.73-6.19-2.66a111.72,111.72,0,0,0-12.24,0c-1,.5-1,.5-1.37,1.15.07.5.14,1.08.22,1.66,1.3,1.8,2.59,3.67,3.89,5.54,1.94,2.3,4,4.61,6,6.91a15.66,15.66,0,0,1-.07,1.8l-2.45-.22c-3.6-.94-7.2-1.87-10.8-2.88-4.32-1.94-7.2-2.88-13.18-5.76-3.53-.94-7.06-1.87-10.58-2.88a45.45,45.45,0,0,0-6-3.17c-.65,1.15-.65,1.15-.65,1.87.29.5.65,1.08,1,1.66a23.13,23.13,0,0,1,4,4.32,3.23,3.23,0,0,1-.07.79h-2.38c-2.16-.5-4.32-1.08-6.48-1.66l-.5.5a12.93,12.93,0,0,1-.14,1.58c.65.94,1.3,1.87,1.94,2.88,2,2.23,4.1,4.46,6.19,6.7,0,.72,0,.72-.29,1.08-1.94,0-1.94,0-7.2-1-7.2-2.88-7.2-2.88-8.64-3.82-.79-.72-1.58-1.51-2.45-2.3-3.82-4.9-4.75-6.48-6-7.78-.43-.29-.94-.58-1.44-.94a12.93,12.93,0,0,0-1.58.14c-.14.29-.29.58-.5.94-2.09-.07-4.18-.22-6.34-.36-4.75-1-4.75-1-5.76-1a6.33,6.33,0,0,1-.72.43c-.14,1-.29,2.09-.43,3.17-1.22-.22-1.22-.22-9.14-4-1.08-.29-2.23-.65-3.38-1l-6.91-.22c-3.6.5-3.6.5-4.61.94l-.43.65a9.81,9.81,0,0,0,.29,1.22c.79.79,1.66,1.58,2.52,2.38,1.94,1.08,3.89,2.16,5.83,3.31-.07.07-.14.22-.29.36l-3.6-.22c-1.87-.43-3.82-.94-5.76-1.44a8,8,0,0,0-1.22.14,17.55,17.55,0,0,1-.07,1.94c.58,1.08,1.22,2.16,1.87,3.31.94,1.08,1.87,2.23,2.88,3.38a7.94,7.94,0,0,1,1.22,3.1,5.56,5.56,0,0,0-1.08.14ZM19.08,191.3a12.61,12.61,0,0,1-.65-4.68l1.94-4.32a62.44,62.44,0,0,0,4.32-7.2c.07-.72.22-1.44.36-2.16-1.08-.43-2.16-.86-3.31-1.37H20.3a46.72,46.72,0,0,1-8.42,2.88c-1,0-2,.07-3.1.14a65.33,65.33,0,0,0,2.45-10.08c1.87-3.1,3.82-6.19,5.76-9.36,3.89-4.75,3.89-4.75,7.7-8.86,2.52-1.87,5-3.74,7.56-5.69,8.64-3.82,8.64-3.82,12-5.76.86-.65,1.73-1.3,2.66-2,.07-.36.14-.72.22-1.15-1.94-.86-2.38-1.37-3.38-1.58-2.88,1.22-5.76,2.52-8.64,3.82l-6.7,4.1-4.54.43c-6,1.94-6,1.94-7.92,2.88-2.09.36-4.18.79-6.26,1.22a3.72,3.72,0,0,0-.14-.79c.65-2.59,1.3-5.26,1.94-7.92.29-.72.58-1.44.94-2.16a7.28,7.28,0,0,1,3-1.87l4.54-.43c1.51-.94,3-1.87,4.61-2.88a31,31,0,0,1,4-4.1c1.15-.79,2.38-1.58,3.6-2.38a14.48,14.48,0,0,1,4.1-.29c1,.65,2,1.3,3.1,1.94,2.16-.22,4.32-.43,6.48-.72.72-.5,1.44-1.08,2.16-1.66h2.45L52.92,123c0,1,0,2.09.07,3.17-1.58,5.9-3.17,11.81-4.75,17.78-.22,2.59-.43,5.26-.72,7.92-1,3.6-1.94,9.36-2.45,10.8-2.88,15.55-2.88,15.55-3.31,19.15-.29.86-.58,1.8-.86,2.74-.86.14-1.73.29-2.59.5-1.58.65-3.17,1.3-4.82,1.94l-2.66.43a2.7,2.7,0,0,1-1.15,1.22c-2.88.94-3.89.94-10.58,2.66Zm27.86-9c0-1-.07-2-.14-3.1.86-5.47,1.73-11,2.59-16.56.29-1.15.65-2.38,1-3.6,1.08-.79,2.16-1.58,3.31-2.45l4.46-.86c19.44-1.87,19.44-1.87,36-3.82.79-.14,1.58-.29,2.45-.5,6-.29,12.1-.58,18.22-.94l22.1-1.94h10.8c9.07-.94,9.07-.94,18.94-1.44,11.16-1.22,22.39-2.52,33.62-3.82,5-.29,10.08-.58,15.12-.94,1.87-.5,4.54-.5,4.75-.72,2.88-.5,6.48-.5,12.24-1,4.1-.94,10.58-1.87,12.53-2.38,3-.29,6-.58,9.07-.94,1.44-.5,8.42-1.44,9.14-1.73,12.74-1.15,12.74-1.15,13.18-1.44.72.07,1.44.14,2.16.29,4.1-1,4.1-1,4.82-1.44a8.15,8.15,0,0,0,3.6-.29c5.54-.43,19.94-2.38,40.54-4.32,9.86-1.44,9.86-1.44,10.08-1.66,10.08-.94,10.58-1.22,19.73-2.38.94-.5,3.1-.72,3.31-1,6.77-.94,6.77-.94,17.06-2.88,3.6-.36,7.2-.72,10.8-1.15.94-.5,3.1-.86,3.6-1.22h2.38c5.76-1.44,5.76-1.44,7.2-1.44a8.73,8.73,0,0,1,1,.36v-.72a6.65,6.65,0,0,1,3.1-.22l.22.22a5,5,0,0,1,.29-.72c1,0,.94.22,1.87.5a4.06,4.06,0,0,1,.29-.86,19.62,19.62,0,0,1,2.59-.5c-.43.29-.94.58-1.44.86.72.14.72.14,1.66-.22a6.69,6.69,0,0,1,.29-.94c1.22-.22,2.52-.43,3.82-.72.07.22.14.43.22.72.14-.22.29-.43.5-.72a3.51,3.51,0,0,0,.5.22c.07-.14.22-.29.36-.5.07.07.22.14.36.29.79-.36,1.58-.72,2.38-1.15,8.21-1.22,16.49-2.52,24.77-3.82,4.46-.86,8.93-1.73,13.39-2.66,1.73,0,3.53,0,5.33-.07a30.31,30.31,0,0,1-2.81,5.54c-1.87,2.23-3.82,4.46-5.76,6.7-2.23,2.09-4.54,4.18-6.84,6.26l-8.86,6.7c-2.38,1.22-4.75,2.45-7.2,3.67-3.82,1.3-7.63,2.59-11.52,3.89-10.08,1.87-10.08,1.87-36.5,5.76-35.71,3.82-52.56,5.26-70.78,7.2-8.42.58-16.92,1.22-25.42,1.87-7.13.22-14.26.43-21.38.72-.5.14-1.08.29-1.66.5-8.21.5-8.21.5-11.3.94-5.11.14-10.22.29-15.34.5-9.86,1.66-9.86,1.66-17.78,3.38-.94.43-.94.43-11.74,2.38-31.68,3.82-31.68,3.82-37.73,4.82-2.59,0-3.6-.29-6.91-.29l-11.81,1.94-6.91.22c-1.44-.58-2.88-1.22-4.32-1.87-5.33.22-8.64.72-14.4,1.15-2,.29-4,.65-6,1-3.74,1.22-7.49,2.52-11.23,3.82l-8.21,1.94-5,.22c-1.22-.29-2.52-.58-3.82-.94-1.22-.07-2.52-.14-3.82-.29-2.3.29-4.61.65-7,1-4.82,1.22-9.72,2.52-14.62,3.82-9.65,1.94-9.65,1.94-13.46,2.38-5.26,1.44-5.26,1.44-6,1.37ZM52.2,147c.22-1.58.5-3.17.79-4.82,1.44-5.26,2.88-10.51,4.32-15.84,0-2.38,0-2.38-.43-3.6-.29-.29-.65-.58-1-.94-.43-.94-.94-1.87-1.44-2.88v-1.22c.43-.36.43-.36,2.81-.86,11.88-.36,23.83-.72,35.78-1.15,2.88-.5,13-1.44,19.66-2.45h7.2c16.56-1.66,21.6-1.87,24.26-2.38h4.75l20.16-2.38c5.62-.14,11.23-.29,16.85-.5,3.31-.5,3.31-.5,12.46-.94h7.42c.65-.29,1.3-.65,1.94-1,1.8-.29,3.67-.58,5.54-.94l29-1.94,21.6-2.38,13.18-1.94c6.26-.43,13-1.44,19.44-1.87,1.73-.43,3.53-.94,5.33-1.44,3.82-.5,3.82-.5,11.52-.72l11.23-2.16c14-1,24.77-1.44,29.3-1.94,2.16-.5,2.16-.5,24.26-2.38,1.87-.29,3.82-.65,5.76-1l7.42-.43c6-1,6-1,14.62-1.94,8.93-.5,8.93-.5,11.81-.94.36-.14.72-.29,1.15-.5a94.64,94.64,0,0,0,11.81-1.94c6.91-.43,15.34-1.44,22-1.87l13.46-1.94c13-.94,13-.94,22.82-2a3.17,3.17,0,0,1-.14.72L475.06,90.94c-13.9,3.38-13.9,3.38-16.78,4.32-.65.29-1.3.65-1.94,1-4.54.94-4.54.94-6.48.94l-6.91,1.94-4.1.43c-1.15.29-2.38.65-3.6,1l-4.54.43c-3.67.79-7.34,1.58-11.09,2.45-3.89.58-7.78,1.22-11.74,1.87-16.56,3.89-16.56,3.89-25.7,5.76-3.1.43-6.19.94-9.36,1.44-3.6,1-8.64,1.94-11.52,2.88-3,.22-6,.43-9.07.72-4.68.94-9.43,1.87-14.18,2.88L323.86,121c-11.52,1-23,2-34.56,3.1-9.43,1.51-18.86,3-28.3,4.61-17.28,1.87-31.18,3.82-49,5.76-4.61.29-9.22.58-13.9.94-1.87.29-3.82.58-5.76.94q-23.65,2.38-47.3,4.82-28.62,1.4-57.38,2.88l-35.5,3Zm149.54-21.24c-.36-.36-.72-.72-1.15-1.08l-.43-1.94c.22-.43.43-.94.72-1.44.72-.43.72-.43,2.59-2.88a22.74,22.74,0,0,0,2.81-5.76c.5-.29,1.08-.58,1.66-.86,4.61-.43,15.84-2.16,18-2.16.65.58,1.3,1.15,1.94,1.8l.22,1.73c.22.07.43.14.72.22a5,5,0,0,1-.94-.14c-.5,2.09-1.58,4-1.8,5-1.73,2.66-1.73,2.66-2.16,4.1-.58.22-1.15.5-1.8.79-3,.14-5.9.29-8.86.5-10.08,2.16-10.08,2.16-11.52,2.16Zm79.92-9.14c-.36-.14-.79-.29-1.22-.5-.29-.65-.58-1.3-.86-2,.07-.5.14-1.08.22-1.66,1.94-3.1,1.94-3.1,6.62-9h2.45c3.67-.86,7.34-1.73,11-2.66h5.76c2.66,1.94,2.66,1.94,3.1,2.66a7.94,7.94,0,0,0,.14,1.3c-1.58,2.45-3.17,5-4.82,7.49-.65.43-1.3.94-2,1.44-2.3.22-4.61.5-7,.79L285,116.42l-3.31.22Zm-226.8-7.42c-.43-.36-.86-.72-1.37-1.08-.43-1.58-.94-3.17-1.44-4.82l-.22-2.38c1.58-.65,3.24-1.37,4.9-2.09,2.09-.29,4.18-.58,6.26-.94.29-.43.58-.94.94-1.44a47.47,47.47,0,0,1,7.7-.72,13.43,13.43,0,0,1-.36,4.25c-1,2.59-1,2.59-1,3.6.29.22.29.22.72,1.66a7.63,7.63,0,0,1,.86.72v.58c-3.31.94-3.31.94-9.58,1.94-2.45.22-4.9.43-7.42.72Zm22.54-3.6c-.14-.86.36-5.18.36-10.94,9-1.8,11.88-2.74,17.64-3.74,4.82-1.44,4.82-1.44,6.26-1.51l-2.81,6.7a23.91,23.91,0,0,1-1.94,5.54v1.44c.14.29.29.58.5.94-.07.22-.14.43-.22.72-1.08.36-6.84.58-8.5.86Zm307.66-1.22c-1.44-.22-1.44-.22-2.16-.72-.29-.58-.58-1.15-.86-1.8v-1.66c3.89-5.76,3.89-5.76,4.82-7.7.72-.5,1.51-1,2.3-1.58,1.73-.58,3.46-1.22,5.26-1.87,2.09-.29,4.18-.65,6.26-1,8.64-.43,9.36-.72,11.52-.72a11,11,0,0,1,2.23,2.81c-.07.5-.14,1.08-.22,1.66a32.6,32.6,0,0,0-3.82,6.26c-.65.36-1.3.72-2,1.08l-6,.43c-1.73.29-3.46.65-5.26,1-6.26,1.87-11.3,3.82-12,3.82Zm-282.67-.72a5.56,5.56,0,0,0-.14-1.08c.94-4.32.94-4.32,1.87-6.7a7.18,7.18,0,0,0,1.15-.14,6.39,6.39,0,0,0,2.38,1.44l2.16.22c1.44-.43,1.44-.43,1.8-.79a8,8,0,0,0-.14-1.22c-.86-.58-1.8-1.22-2.74-1.87-.86-.22-1.73-.43-2.66-.72.22-2.16.22-2.16,1.66-7.2,2.52-2.3,5-4.61,7.63-6.91a7.18,7.18,0,0,1,1.15.14c-.43,3.31-.86,6.7-1.3,10.08-1.44,4.46-2.88,8.93-4.32,13.46l-8.5,1.3Zm15.55-2c.72-3.6,1.51-7.2,2.3-10.8.43-4.32.94-8.64,1.44-13-.36-2.52-.79-5.11-1.22-7.7-.94-1.44-2.88-3.31-10.3-12.46-3.82-3.74-7.63-7.49-11.45-11.3-.86-.72-1.8-1.44-2.74-2.16-.5-.72-1.08-1.44-1.66-2.16a20.87,20.87,0,0,1-4.1-3.31c-.14-.43-.29-.94-.5-1.44-2-1.87-2-1.87-3-2.3-5.26-5.76-5.26-5.76-7.7-7.92-1.3-2.09-2.59-4.18-4-6.34-.14-.79-.29-1.58-.5-2.45a12.72,12.72,0,0,1,.29-1.44,14.59,14.59,0,0,0,1.3-.94c3.46-1.22,6.91-2.45,10.37-3.74,5.18-1.58,10.37-3.17,15.55-4.82,2.81-.29,5.62-.58,8.42-.94,1.8-.36,3.67-.79,5.54-1.22.79,0,1.58.07,2.38.14-2.66,2-8.42,5.4-8.86,5.9-1,.43-7.49,1.87-10.08,2.88-1.58.29-3.17.58-4.82.94-1.08.65-2.23,1.3-3.38,1.94-1.51,1.3-3,2.59-4.54,4L87,23.18a19.87,19.87,0,0,1,1.94.58c3.24,3.1,6.55,6.19,9.86,9.36,1.08.65,2.16,1.3,3.31,1.94,4.32,3.82,5.76,4.75,10.37,8.71l1.15,1.37c2.66,1.87,3.6,2.88,6.26,4.75a165.77,165.77,0,0,0,12.46,11.3,15,15,0,0,0,3.38,3.1c.72.29,1.44.65,2.16,1,.65.58,1.3,1.22,1.94,1.87.79.43,1.58.94,2.38,1.44a6.59,6.59,0,0,0,.07,1.15c-.58,1.44-1.22,2.88-1.87,4.32-2.23,8.28-4.46,16.56-6.77,24.91-.79.36-7.49,1.3-11.59,2.3-1.37.07-2.74.22-4.1.36ZM139.82,100c.29-2.16.58-2.66,1.15-6,1-.14,1.73.14,21.89-1.58,10.8,0,10.8,0,19.87-.43,4.32-.5,4.32-.5,26.64-1.94,7.92.22,7.92.22,14.9,0,11-1.94,11-1.94,18.22-2.88,7.49-.5,11.81-1.22,17.57-1.44,2.59-.5,2.59-.5,10.08-.94.5-.14,1.08-.29,1.66-.5h2.66c1.08-.22,2.16-.43,3.31-.72,5-.22,7.7-.72,22.32-1.94h5.76c2.09-.36,4.18-.72,6.26-1.15.43-1.08.43-1.08.79-1.3l-.22-1.94c-.65-1.15-1.3-2.38-1.94-3.6a41.88,41.88,0,0,0-4.54-5.26c-.86-.65-1.8-1.37-2.74-2.09h-1.22c-.22.14-.43.29-.72.5-1.58.29-3.17.58-4.75.94-10.08.94-10.08.94-12.53,1.44H279.5c-1,.14-2.09.29-3.17.5l-9.79.22c-.94-.14-1.87-.29-2.88-.5-5.33.22-10.73.43-16.13.72-1.87.29-3.82.65-5.76,1-3.31,1.44-3.31,1.44-12.67,4.32-1.73.22-2.66,0-7.49,0-3.82.43-3.82.43-22,1.44H183.24c-12,.94-24,1.87-36,2.88-.72,0-1.44-.07-2.16-.14a10.82,10.82,0,0,0-.14-1.44c.94-2.88,1.94-4.75,2.38-6.91.14-.29.29-.65.5-1,1.8-.36,1.8-.36,10.94-.58,2.09-.29,4.18-.65,6.26-1,4,0,7.2.29,12.67.29,1.22-.29,4.82,0,9.14-.29,4.1-.72,10.08-1.15,18.22-2.16l6.77-.43c.58-.14,1.22-.29,1.87-.5l5.76-.22c3.17-.36,6.41-.79,9.65-1.22h7.42a19.32,19.32,0,0,1,5.26-.72L243,64.58l8.86.43c7.92-.22,12.24-.72,46.58-2.59,11.59-.94,23.18-1.87,34.78-2.88,27.86-3.89,27.86-3.89,60.26-7.92.36.36.79.72,1.22,1.15l1.51,2.59L396,57.53c-2.74,6.19-5.47,12.46-8.21,18.72-52.63,5.62-57.46,6.34-60,6.34a1.82,1.82,0,0,0-1.73,0L313.78,83c-3.1.5-3.1.5-4,1-4.82.43-7,.94-11.52,1.15-4.61.79-9.29,1.58-14,2.45-4.1.29-8.28.58-12.46.94C260.5,90,260.5,90,239.4,91.94c-4.39.29-8.78.58-13.18.94-2.16.29-4.32.58-6.48.94C202,95.26,202,95.26,193.32,96.26c-5.33.29-10.66.58-16.06.94-3.17.36-6.41.79-9.65,1.22-20.38.94-20.38.94-27.79,1.58ZM142,91.37c.07-.94.14-1.87.29-2.88a26.19,26.19,0,0,0,1.37-5.33l18.5-.86c6.84-.5,13.68-1.08,20.59-1.66,12,0,30.53-.72,35.06-.58-1.66,1.08-1.66,1.08-7.7,4-2.88.94-2.88.94-3.6,1.44a6,6,0,0,1-.58.86c-1.51.22-3.1.5-4.68.79-17.06.94-17.06.94-20.88,1.44-8,.29-16,.58-24,.94-9.65,1-9.65,1-14.4,1.87Zm-72.5-4.25c-1.15-.07-2.38-.22-3.6-.36A2.7,2.7,0,0,1,66,86c1.58-.72,3.17-1.51,4.75-2.3l2.16-.22c0,1.08,0,2.16.07,3.24a6.64,6.64,0,0,0-.58.36Zm10.58-1.3c.07-2,.14-4,.22-6.12a38.37,38.37,0,0,1,6-1.73,17.66,17.66,0,0,1,1.94.14c-.22,1-.43,2.09-.65,3.17.36.58.79,1.22,1.22,1.87-.07.29-.14.65-.22,1a60.13,60.13,0,0,1-8.5,1.66Zm15.12-4.46a43.3,43.3,0,0,1,.07-6.84c2.16-1.22,4.39-2.45,6.62-3.74,4.54-1.87,9.14-4.32,9.86-4.32,1.22,1.44,2.45,3,3.67,4.46-.07.29-.14.65-.22,1A24.39,24.39,0,0,0,111,75.6a5.38,5.38,0,0,0-2.66,0c-1.37.94-2.74,1.87-4.1,2.88-8.14,2.88-8.14,2.88-9.07,2.88ZM329.62,79.2c-.72-.14-1.44-.29-2.16-.5a33.76,33.76,0,0,0-4.32-3.82,59.88,59.88,0,0,1-6-7.78,11.08,11.08,0,0,1,.94-.86c6-.22,6-.22,7.2-.5,7.56.07,15.19.14,22.82.29l20.66,2.38c1,.36,2,.79,3.1,1.22l1.94.22a3.13,3.13,0,0,1,.43.5c0,.86.07,1.8.14,2.74-.79.29-1.66.58-2.52.86-5,.72-11.52,1.15-15.12,1.66-2.38.14-4.75.29-7.2.5-3.31.72-6.7,1.44-10.08,2.16h-3.82c-2,.29-4,.58-6,.94Zm64.08-3.46c.86-2.88.86-2.88,4.68-11.52.65-1.15,1.3-2.38,1.94-3.6.43-1.22.86-2.45,1.3-3.74l4.61.22C420.34,60,420.34,60,423.72,61c.79.36,1.58.72,2.38,1.15h2.45a12.91,12.91,0,0,0,3.1-1.87c.22-.72.5-1.51.79-2.3,1.73-1.51,3.46-3.1,5.18-4.68l5-.22c3.89.43,7.85.94,11.81,1.44,3.82.94,6.7,1.15,6.91,1.44,3.6.43,3.6.43,5,.94.36.36.36.36.36,1.37-.5.43-.5.43-3.38,7.63-3.46.86-3.46.86-13.75,2.74-13,1.44-13,1.44-14.62,1.94-1.87.29-3.82.58-5.76.94a150.88,150.88,0,0,0-15.62,1.44c-1.44.5-7.2,1.44-7.7,1.73-8.64.94-8.64.94-12.24,1.08Zm-248.4-10c-1.66-.94-1.66-.94-6.7-5.26a7.46,7.46,0,0,1-3.38-1.22,3.09,3.09,0,0,1-.58-1.73C159.26,43.2,159.26,43.2,159.7,42.7a79.81,79.81,0,0,1,10.58-4.32c1.87-.29,3.82-.58,5.76-.94,2.3-.65,4.61-1.3,7-1.94,1.66.29,1.66.29,2.16.72h4c.79-.29,1.58-.58,2.45-.94l1.87-1.66,3.89-1.94c2.66-2.16,5.4-4.32,8.14-6.48A27,27,0,0,0,210.82,24c4.39-.58,8.78-1.22,13.25-1.87,3.31-1,12.24-2.88,12.67-3.17l4.32-.43a43.1,43.1,0,0,1,4.61-2.45,54.59,54.59,0,0,1,7.63-.43c15.41,3.82,15.41,3.82,29.52,7.63,4,1.44,8.14,2.88,12.24,4.32.14,2.3.36,4.61.58,6.91-.94.22-1.94.5-3,.79-1,.65-2,1.3-3.1,1.94-8.64,3.82-12,5.76-14.4,6.7-.86.14-1.73.36-2.66.58v.36c-3,1.37-6,2.74-9.14,4.1-.22-.07-.43-.14-.72-.22a3.61,3.61,0,0,1-.14.86,10.59,10.59,0,0,0-3,2l-2.38.43a40.25,40.25,0,0,0-6.77,3.89c-4.54,1.87-4.54,1.87-5.26,2.38-5.76.94-6.26,1.22-7,1.08a3.51,3.51,0,0,1-.22-.5c.65-.58,1.3-1.22,2-1.87l-.22-1.94c-2.16-.86-4.39-1.8-6.62-2.74-3.46-1.87-7-3.82-10.51-5.76L207.5,40.1h-6c-4,.36-8.14.72-12.24,1.15a6.49,6.49,0,0,1-.72.65c0,1.37-.07,2.74-.14,4.1.5,2.59,1,3.6,1.94,7.42.14,1.08.29,2.23.5,3.38C193,59,193,59,193.54,59.26c10.8-.43,15.12-.22,16.56-.43,19.73.43,20.88.72,25.92.72,1.44-.29,1.44-.29,1.73,0-.86.22-1.73.43-2.66.72h-7.42c-32,2.88-33.84,3.31-46.08,4.32a12.72,12.72,0,0,1-1.44-.29c-2.23.14-4.46.29-6.77.5a61.72,61.72,0,0,0-8.64-.5,48.74,48.74,0,0,1-7.2,1,105.42,105.42,0,0,0-12.24.43Zm324.5-.58c.86-2.3,1.73-4.61,2.66-7,3.82.07,7.63.22,11.52.36l15.84-.22c4.32-.5,12.24-.94,13.9-1.22,10.58-.43,10.58-.43,16.06-.94a9.13,9.13,0,0,1,3.38-.5,1,1,0,0,1,.22.29L513.72,60.7a58.71,58.71,0,0,0-8.86,0c-.86.14-1.73.29-2.66.5h-5c-13.68,1.94-17.06,2.66-21.82,3.1a31,31,0,0,1-5.54.86ZM149.4,61.92c-.65-.29-1.3-.58-1.94-.94a39.52,39.52,0,0,1-4.54-4.61,3.72,3.72,0,0,0-.14-.79c.58-.5.58-.5,4.46-1.8,7.42-3.89,7.42-3.89,8.64-4.82,1.22-1.37,2.52-2.74,3.82-4.1l3.89-.43c.5-.29,1.08-.65,1.66-1,1.94-.43,4-.94,6-1.44l9.65-.22A2.7,2.7,0,0,1,182,43c.07,5.4.22,10.8.36,16.2-.14.43-.29.94-.5,1.44a7,7,0,0,0-.79.36c-1.66-.29-5.76-.29-6.7-.5-11.3.22-12.74.5-21.89.94a6.26,6.26,0,0,1-3.1.5Zm103.18-.36c.07-.22.14-.43.22-.72a57.07,57.07,0,0,1,6.77-3.74c1.58-.58,3.17-1.22,4.82-1.87,2.52-1.3,5-2.59,7.63-3.89,3.74-1.58,7.49-3.17,11.3-4.75,2.66-1.66,5.4-3.31,8.14-5l1.22.22c.86-.14,1.73-.29,2.66-.5l7.2-.22c7.2.5,7.2.5,19.44.65a3.17,3.17,0,0,1-.14.72c-3.46,1.87-6.91,3.74-10.44,5.62-.94.79-1.87,1.66-2.88,2.52.22.5.5,1.08.79,1.66,1.08,1.15,2.16,2.3,3.31,3.46l5.47-.43c2.38-.65,4.75-1.3,7.2-1.94,3.67-.14,7.34-.29,11.09-.5.43-.14.94-.29,1.44-.43h7.42a1.57,1.57,0,0,1,.22.36c-.22.14-.43.36-.72.58L328,55.66Q295.13,58,262.22,60.48a63.91,63.91,0,0,1-9.65,1.08ZM130,54.22c-.94-.72-1.87-1.44-2.88-2.16l-.86-1.3c-.58-.29-1.15-.58-1.8-.86-1.15-1-2.38-2-3.6-3.1-.29-.43-.58-.94-.94-1.44a95.59,95.59,0,0,1-9.14-7.7c-.58-.29-1.22-.58-1.87-.94-2.66-2.3-2.66-2.3-2.88-2.74L104,32.9l-2.38-2.16L99.5,29.66c-.65-.65-1.3-1.37-1.94-2.09-.65-.43-1.37-.86-2.09-1.3a4.06,4.06,0,0,0-.29-.86A22.2,22.2,0,0,1,91.08,22c.36-.5.72-1.08,1.08-1.66,7.06-1.8,7.78-2.3,12.6-3.53h1.66l1.3,2.59,3.89,4.54c.72.43,1.44.94,2.16,1.44a15.66,15.66,0,0,1,1.8.07c2.3-.94,4.61-1.87,7-2.88l4.32-.43a12.53,12.53,0,0,1,.79-1.3c-.07-.43-.14-.94-.22-1.44l-1-1V16.49a4.94,4.94,0,0,1,1.87-1.37h.94c2.38,2.16,3.82,3.1,8.42,7.7,3.67,2.52,7.34,5,11,7.63,4.32,3.89,7,5.76,9.86,8.64-2.38,1.58-4.75,3.17-7.2,4.82-.79.29-1.58.58-2.45.94L146.3,46.8,142,48.74c-1.8,1.08-3.67,2.16-5.54,3.31C131.18,54,131.18,54,130,54.22Zm357.12-.43a7.93,7.93,0,0,0-.14-1.3c.94-3.38,1.94-5.54,5.76-17.06.14-.22.29-.43.5-.72,16.42-1.8,16.42-1.8,22.46-2.09a17.72,17.72,0,0,1,1.87.14c-.29,1.08-.58,2.23-.86,3.38-3.82,9.36-3.82,9.36-5.76,15.12a10.3,10.3,0,0,1-.79,1.08c-11.3.94-11.3.94-23,1.44Zm-12-.29a2.7,2.7,0,0,1-.72-.07c3.74-13.18,3.74-13.18,4.32-14,2-.79,4-1.58,6-2.45a13.32,13.32,0,0,0,1.66-.07c-1.8,7.2-1.8,7.2-2.81,10.08-.29.43-.58.94-.94,1.44-1.44,4.82-1.44,4.82-1.8,5.11Zm-8.64-.72c-3.82-.94-3.82-.94-21.6-3.6H436c-.29-.22-.58-.5-.94-.79-.58-.14-1.22-.29-1.87-.5a4.43,4.43,0,0,0-.07-.94l10.3-.86,9.36-1.94c6.41-.94,12.82-1.94,19.22-3-.36,2.38-.36,2.38-2.3,8.42-.43,1-.94,2-1.44,3.1a15.66,15.66,0,0,0-1.8.07ZM350.06,52.2c.07-.22.14-.43.22-.72A76.33,76.33,0,0,0,358.56,45V43.85l-1-1a6.59,6.59,0,0,0-.07-1.15c3.74.22,7.49.5,11.3.79,2.3.36,4.61.79,6.91,1.22h12.53c3.82.43,7.63.94,11.52,1.44.22.36.22.36,0,.72-37,4.75-37,4.75-42.77,5.76-2.3.14-4.61.36-6.91.58Zm-101.81-.36L236.74,49.9a71.49,71.49,0,0,1-8.64-3.82c-2-1.22-4.1-2.52-6.19-3.82-1.08-.29-2.23-.65-3.38-1-2.66-1.87-2.66-1.87-3.53-3-.43-1.22-.94-1.66-1.87-3.6l-.5-.5v-.94c1.58-.94,4-1.8,11.45-5.69,6.19-1.87,6.19-1.87,22.32-5.76h7.92c3.67.94,7.34,1.87,11,2.88,2.09.29,4.18.65,6.26,1,5.11,1.22,10.22,2.52,15.34,3.82C290,31,290,31,290.52,31.46a15.66,15.66,0,0,0,.07,1.8l-.94.94c-3.24.86-6.48,1.8-9.72,2.74-2.45.94-4.9,1.87-7.42,2.88-5.18,2.52-10.37,5.11-15.62,7.7-1.87.79-3.82,1.58-5.76,2.38-.58.65-1.22,1.3-1.87,1.94Zm162.5-8.14c-.94-1.44-.94-1.44-1.44-1.73-6-.43-6-.43-7.7-.94-6.7-.94-6.7-.94-17.28-1.94-3,.07-6,.14-9.07.29a48.21,48.21,0,0,0-7.92-1.58,16.06,16.06,0,0,1,.29-1.66c1.08-1.08,2.16-2.23,3.24-3.38V30.6c1.22-.36,1.22-.36,19.51-1.8,1.87-.5,1.87-.5,12.46-1.44,5-.29,10.08-.58,15.12-.94,1.58,0,3.17.07,4.75.14a3.17,3.17,0,0,0,.14.72A37.52,37.52,0,0,0,419,34c-.65,1.58-1.3,3.17-1.94,4.82-.86,1.51-1.8,3-2.74,4.61-1.15.07-2.38.14-3.6.29Zm12-.72a10.81,10.81,0,0,1-1.44-.14,43.14,43.14,0,0,0,1.73-6.7L427,29.66c.58-.72,1.22-1.44,1.87-2.16l.65-1.94C434,25.2,434,25.2,456.12,25c8.71.29,17.42.58,26.14.94,3.17.5,4.82,1.22,6,1.22.29-.22.58-.43.94-.72l1.94.22c3.67-.36,7.34-.79,11-1.22,9.14-1.87,9.58-2.16,27.58-6,3.24-.36,6.55-.79,9.86-1.22,8.64-.43,10.08-.72,13.68-.72.72.29.72.29.94.65-.36.36-.72.72-1.15,1.08-3.67,1.44-7.34,2.88-11.09,4.32-5.47.94-6.91,1.44-22.75,3.82-4.82.5-8.64.5-26.93,2.38-1.73.29-3.46.65-5.26,1C477,34.56,477,34.56,472.18,36c-9.36,1.94-21.6,3.82-31.9,6h-8.42c-2.38.5-2.38.5-9.07,1Zm-259.2-6c-4.61-3.82-9.29-7.63-14-11.52A82.38,82.38,0,0,0,142,20.66l-4.32-4.1c-1.44-1.94-1.44-1.94-2.45-2.66v-1A20.47,20.47,0,0,1,141,11.74h4.1c2.23,1.87,2.23,1.87,2.74,2.81,2.66,1.22,5.33,2.45,8.06,3.67C164.3,23,164.3,23,170.06,26.86c.79.29,1.58.65,2.38,1,2.52,1.8,5.11,3.6,7.7,5.4-.29.36-.29.36-4.1,1.3-1.8.14-3.67.29-5.54.5-6,1.87-6,1.87-6.91,1.87Zm194.11,0c-2.74-.29-5.54-.58-8.35-.94h-7.92a22.62,22.62,0,0,0-5.33-1.08V34.2a98.21,98.21,0,0,0,10.58-1.3c1.66-.5,1.66-.5,10.08-1.44,2.88-.07,5.76-.22,8.64-.36-.65,1.22-1.37,2.52-2.09,3.82a9.18,9.18,0,0,1,.14,2ZM155.88,7.06c-.36-.43-.79-.86-1.22-1.3a8.41,8.41,0,0,0-2.88-.58V4.46c1.08,0,2.23,0,3.38.07,1.08.65,2.23,1.3,3.38,1.94a2,2,0,0,1-1.22.72,10.82,10.82,0,0,1-1.44-.14Z"/></g></g></svg>