<svg xmlns="http://www.w3.org/2000/svg" viewBox="0 0 551.66 304.34"><defs><style>.cls-1{fill:#231f20;fill-rule:evenodd;}</style></defs><title>Crusr</title><g id="Layer_2" data-name="Layer 2"><g id="Layer_1-2" data-name="Layer 1"><path class="cls-1" d="M244.94,304.34a7.94,7.94,0,0,0-.14-1.3c3-1.94,3-1.94,8.5-4.68.29-.5.58-1,.86-1.58a6.64,6.64,0,0,0-.36-.58c-.72-.07-1.44-.22-2.16-.36-.14-.43-.29-.94-.5-1.44a49.52,49.52,0,0,0-8.86,1.8,4.2,4.2,0,0,1-2.16.86l.22-2.16c-20.59,1.73-30.67,2.23-37.66,3h-3.6c-.36-.36-.36-.36-.36-1.3.36-.22.72-.43,1.15-.72.14-.58.29-1.15.43-1.8a56.49,56.49,0,0,0,8.35-1.94,12.53,12.53,0,0,1,1-.86c-3.6,0-7.2.07-10.8.14-1.3.14-2.59.29-3.89.5-1.15-.07-2.38-.14-3.6-.29l-.58-.58v-1.44c-3.17-.58-6.34-1.15-9.5-1.8l-3.31-.22c-.5.43-.5.43-1.37.36.07-.43.14-.94.22-1.44.22-.14.43-.29.72-.5-.07-.43-.14-.94-.22-1.44-1.3,0-2.59-.07-4-.14-.72.14-1.44.29-2.16.5-13-.5-13-.5-13.32-.79a7.41,7.41,0,0,0-.07-1.22c2.59.07,3.82.36,7.2.36a8.45,8.45,0,0,1,3.82,0c.14-.22.29-.43.5-.72l9.79.22c.72-.5.72-.5,1.44-.5a4,4,0,0,0,.58.43,7.18,7.18,0,0,0,.14,1.15,14.75,14.75,0,0,1,1.73.36l.43.86c-.79.14-1.58.29-2.38.5.07.22.14.5.22.79,8.21,1.66,8.21,1.66,8.42,1.94,2.38,0,2.38,0,3.6.43a4,4,0,0,0,.5.65l12.24-.65c2.52.07,5,.14,7.63.29.29.14.65.29,1,.43a6.59,6.59,0,0,0,.07,1.15l-.94.94c-4.18,1.8-4.18,1.8-5.33,2.66a10.14,10.14,0,0,1-.07,1.44l11.3-.43L245.66,293c.22.14.43.29.72.5,2.23-.36,4.46-.79,6.7-1.22h4.82a4,4,0,0,0,.58.43c0,.72-.29.94-.36,1.66l3.6.22a11.11,11.11,0,0,1-.36,1.22c-.58.36-4,1.3-5.9,2.23a7.17,7.17,0,0,1-2.16,2.45,3.17,3.17,0,0,0-.72.14v.72a78.87,78.87,0,0,0,10.58-1.87,17.73,17.73,0,0,1,1.87.14,7.39,7.39,0,0,0,.29,1,10.14,10.14,0,0,1,1.44.07c2.16-.43,4.32-.94,6.48-1.44h15.34c.94.14,1.87.29,2.88.5,2.38-.07,4.75-.14,7.2-.29a4,4,0,0,0,.5.65c-.14.36-.29.79-.5,1.22,1.94.07,5-.43,7.2-.43.5.29.5.29,3.6,0a17.59,17.59,0,0,0,1.73-.72h4.75c2.88-.58,5.76-1.22,8.64-1.87l12.53-3.89c3.6-1.87,8.14-3.82,11.74-5.76,1.22-.94,3.1-1.87,5.76-3.82,2.66-1.44,3.6-2.38,9.86-6.26,1.3-.58,2.66-1.22,4-1.87l2.16-1.94a114.71,114.71,0,0,0,7.2-9.58c.29.07.65.14,1,.22a6.34,6.34,0,0,1,.43.72h1.94c.36.65.36.65.36,3-.86.79-1.73,1.58-2.66,2.38a8.73,8.73,0,0,1-.36,1,20.25,20.25,0,0,1,4.61-2.59h1.66a9.38,9.38,0,0,0,.72,1.08,10.74,10.74,0,0,1-.14,1.51c1.44.07,3,.14,4.46.29.36,1.37.36,1.37.72,1.58,1.37-.14,2.74-.36,4.1-.58a14.88,14.88,0,0,0,.29,1.58,5.61,5.61,0,0,1,1.44,2.16l.86.43c.14-.22.36-.43.58-.72a7.18,7.18,0,0,0,1.15-.14,74.58,74.58,0,0,1,8.64,2.88,69.79,69.79,0,0,0,8.64.5c.94-.22,1.87-.43,2.88-.72l4,.22c1.37.29,2.74.65,4.1,1a29.16,29.16,0,0,0,6-.36V280c-.58-.43-1.15-.94-1.8-1.44-.07-.43-.14-.94-.22-1.44.36-.72.36-.72,1.15-1.22.65,0,1.37-.07,2.09-.14,2.66.5,3.38,1,6.7,1.73.72,0,1.51-.07,2.3-.14a14.07,14.07,0,0,1,.14-1.66c.72-.07,1.44-.22,2.16-.36.5-.29,1.08-.65,1.66-1,2.38-.29,4.75-.58,7.2-.94,1.8-.5,3.67-1.08,5.54-1.66a16.91,16.91,0,0,1,1.87.07,4,4,0,0,0,.5.65,34.19,34.19,0,0,0,6.26-1.73c10.3-1.87,10.3-1.87,14.11-2.88,1.58-.79,3.17-1.58,4.82-2.38a4.43,4.43,0,0,0,.94-.07,8.74,8.74,0,0,1,.36-1c2-1.22,4-2.52,6.12-3.82,8.42-3.74,8.42-3.74,16.13-7.56,3-.43,5.9-.94,8.86-1.44,3.38-1,3.38-1,11.3-2.45,5-.43,5-.43,11.74-1.44.36.43.36.43.36,1.37-.58.36-.58.36-10.66,1.3-13.68,2.88-13.68,2.88-22.1,4.32-2.16.94-3.6,1.94-7.7,3.82-1.66,1-1.66,1-6.19,2.88-3.82,2.23-7.63,4.46-11.52,6.77-1.15.43-2.38.94-3.6,1.44-1.87.43-3.82.94-5.76,1.44l-4.82.43a97.38,97.38,0,0,1-10.8,2.88c-1.66,0-1.66,0-1.94-.22-3,.43-6,.86-9.07,1.37.07.22.14.43.22.72.86.14,1.73.36,2.66.58a3.13,3.13,0,0,0,.43-.5h1a9.39,9.39,0,0,0,.72,1.08,7.61,7.61,0,0,1-.72.86c-1.73,0-1.73,0-6.26-.72-.29.36-.58.72-.94,1.15-1,.29-1,.29-4.61.29-1.8-.43-3.6-.94-5.47-1.44-1.08,0-2.23-.07-3.38-.14a2.7,2.7,0,0,0,.07.72,9.36,9.36,0,0,0,3.31,1.3c1.87.07,3.82.14,5.76.29a1.31,1.31,0,0,1,0,1.44,108.1,108.1,0,0,0-10.8,1.44c-2.09-.07-4.18-.14-6.26-.29-.94-.29-1.87-.58-2.88-.94-3.82.22-6,.72-10.3.94-.5.29-.5.29-2.16.29-1.15-.43-2.38-.94-3.6-1.44a7.18,7.18,0,0,0-1.15.14,7.38,7.38,0,0,1-.29,1h-1.94a71.59,71.59,0,0,0-7.2-3.46c-.36-.5-.79-1-1.22-1.58-.43-.14-.94-.29-1.44-.43-.22-.29-.43-.65-.72-1-1.3.07-2.66.14-4,.29l-.86-1.3c-1.22-.22-2.45-.5-3.74-.79-.36-.43-.36-.43-.43-1.87a2.7,2.7,0,0,0-.72.07c-2.66,1.94-6.48,3.89-7.7,4.82a6.32,6.32,0,0,1-2.38,2.16l-1.22-.22a7.63,7.63,0,0,0-.72-.86,5,5,0,0,1-.94-.14l-4.32,1.94c-2.16,1.22-4.32,2.52-6.48,3.82-.79.65-1.58,1.3-2.45,1.94-3.17,1.87-6.34,3.82-9.58,5.76-6.7,2.88-7.2,3.38-12,5.26-6.91,1.94-6.91,1.94-10.51,3.38-11.09,1.94-12.53,1.94-17.06,2.88-2.66-.22-6.48,0-10.58-.14-.14-.5-.29-1.08-.43-1.66-1.37,0-2.74.07-4.1.14-1.15-.14-2.38-.29-3.6-.5H273.24c-15.12,2.88-15.12,2.88-17.78,3.1-.29-.22-.58-.43-.94-.72h-2.16a50.15,50.15,0,0,1-7.42,1.22Zm-114-23c-5.47-.5-13-.5-13.54-.79,0-1.22,0-1.22.36-1.58,1.22-.22,2.52-.43,3.82-.72l.5-.5h3.82c1-.29,2.09-.58,3.17-.94,13.68.43,13.68.43,15.34.22a1.57,1.57,0,0,0,.22-.36c-10.8-4-10.8-4-24.7-9.72-10.08-4.82-19.22-8.64-19.66-9.14-.79-.29-1.58-.58-2.45-.94-13.39-7.7-13.39-7.7-15.34-9.14l-1.66-.22c-2.52.43-5.11.94-7.7,1.44-6.48,0-6.48,0-7-.22-9.36.72-15.84,1.66-26.35,2.59-2.66.5-3.89,1-8.64,1.94-2.45.65-5,1.3-7.49,1.94H20.74l-.36-.36c.07-.36.14-.79.22-1.22.65-.36,2.09-.58,2.3-.94l-.43-.65c-1.94-.43-1.94-.43-2.3-.79a9.84,9.84,0,0,1,.14-1.37l1.87-.22a17.56,17.56,0,0,1,1.73.72h3.31c3.17-.94,3.17-.94,3.38-1.3A3.84,3.84,0,0,0,28.66,248v-1.3c.86-.29,1.73-.58,2.66-.86,1.66-.14,3.31-.29,5-.5.94-.65,1.87-1.3,2.88-1.94.22-.43.43-.94.72-1.44l2.88-.43.72-.72c1.44-.07,2.88-.14,4.32-.29l.72-.72H52c.29-.5.58-1.08.94-1.66,2.16-.22,2.16-.22,2.52-.58.14-.36.29-.79.43-1.22.36-.22.79-.43,1.22-.72A1.79,1.79,0,0,0,57,235c-1-.29-1-.29-24-.72-1.58-.43-3.17-.94-4.75-1.44-3.6-1.94-3.6-1.94-4.1-2.45-1.66-.58-3.31-1.22-5-1.87a35.45,35.45,0,0,0-6.26-3.38c-.29-.58-.58-1.15-.86-1.8-.86-.58-1.8-1.22-2.74-1.87a10.7,10.7,0,0,1-2-3.89v-3.1c.29-1.08.58-2.23.94-3.38.94-1.66,1.87-3.31,2.88-5,.36-.36.79-.72,1.22-1.15.94-1.94,1.87-2.88,3.82-6l-.22-2.59c-1.3-2.38-2.59-4.75-3.89-7.2-.14-1-.29-2.09-.43-3.17-4.46-.86-8.28-1.3-9.5-1.8a10.5,10.5,0,0,1-2-3.24,17.66,17.66,0,0,1,.14-1.94c.5-.14,1.08-.36,1.66-.58,1.44-1.8,2.88-3.67,4.32-5.54a15,15,0,0,0,3.1-3.1c4.82-3.82,4.82-3.82,7-6,1.94-1,1.94-1,9.86-6.77l4-3.6c1.73-.94,1.73-.94,10.8-7.92a55.37,55.37,0,0,0,6.26-3.82c11-5.76,11.52-6.26,13.9-7.2,3.17-1.94,7-3.82,9.36-5.54,1.44-.43,4.61-2.38,13.46-6.19,1.66-1,4.54-1.94,6.48-2.88a17,17,0,0,0,4.82-1.94l1.66-.22a33.47,33.47,0,0,1,6-2.45c3.6-.94,3.6-.94,4.32-1.44l3.38-.43c.5-.5.5-.5,11.52-4.32a60,60,0,0,1,5.54-2.45c6.48-2.16,9.07-2.59,15.12-4.54.94-.5,5.26-1.44,14.83-4.82,16.13-3.82,19.44-4.32,20.16-4.75,2.09-.14,4.18-.29,6.26-.5.36-.22.79-.43,1.22-.72l2.38.22c.36-.22.79-.43,1.22-.72,19.87-3.82,23.47-4.75,32.62-6.19l4.1-1.94c1.8-1.37,3.6-2.74,5.47-4.1,6.48-5.76,8.42-7.92,10.8-9.79,2.16-2.3,6.48-5.76,8.64-7.92,1.94-2.45,1.94-2.45,3-3.24.07-.58.22-1.15.36-1.8A19.87,19.87,0,0,1,258.62,54c32.11-.43,32.62-.72,39.6-.72,1.87.22,3.82.43,5.76.72a5.1,5.1,0,0,1,.07-1l-1.94-3.89c-.58-.86-1.22-1.73-1.87-2.59-1.3-2.38-2.59-4.75-3.89-7.2-5.76-12.53-5.76-12.53-6.48-14.9V22.46c.29-.79.65-1.58,1-2.38.58-.72,1.22-1.44,1.87-2.16,3.24-.94,6.48-1.87,9.79-2.81a16.94,16.94,0,0,0,4.54-.43c6,.72,12.46,1.15,15.62,1.66l3.6.22c.72-.43,2.59-3.24,4.39-5.33v-1c-.58-.36-3-.58-3.67-.86-19.73-1.87-19.73-1.87-20.3-2.23V5.9a23.16,23.16,0,0,0,1.87-4.75c.36-.29.72-.58,1.15-.86,1.87-.07,3.82-.14,5.76-.29,7.92.5,7.92.5,25.42,2.45,1.44.43,1.44.43,10.08,1.15C364.18,6,364.18,6,364.75,6.41c-.07.43-.14.94-.22,1.44-.79,1.22-1.58,2.52-2.38,3.82-4.68.14-8.06-.14-16.42-.14a61.6,61.6,0,0,1-6.19,7.13,5,5,0,0,0,.14.94c3.6.36,4.82.86,17.28,2.74,5.33,1.3,10.73,2.59,16.13,3.89,9.14,2.52,18.36,5,27.58,7.63,4.46,1.58,8.93,3.17,13.46,4.82,3.1,1.94,5.26,3.82,15.84,11.52,5.26,4.82,7.92,6.7,10.08,8.64,1.44.94,13.39,12,15.84,13.9,3.31,3.6,6.7,7.2,10.08,10.8,2.23.29,4.46.65,6.7,1,5,1.22,10.08,2.52,15.12,3.82,7,2.38,7,2.38,8.86,3.38,1.58,1.3,3.17,2.66,4.82,4a77.86,77.86,0,0,0,6,7.85c.94.86,1.87,1.8,2.88,2.74,2.88.72,5.76,1.51,8.64,2.3.22.29.43.58.72.94,1.94.86,4.32,1.3,6.77,2.3,1.22.29,2.52.58,3.82.94,1.08.65,2.23,1.3,3.38,1.94.22.36.43.72.72,1.15a12.73,12.73,0,0,1,1.44.29l.58.58c.58,3.24,1.22,6.55,1.87,9.86,0,4.68,0,9.43-.07,14.18,1.51-.43,3-.86,4.54-1.37l3.89-2.38c.94,0,.94,0,1.3.36v.94c-1.58.94-3.17,1.87-4.82,2.88-.94.29-1.94.58-3,.86-1.44.94-1.44.94-3.31,3-.43,2.38-.43,2.38-.79,2.74-.36.14-.79.29-1.22.43-.94,1.15-1.87,2.38-2.88,3.6l-1.3,2.59c-.07.79-.22,1.58-.36,2.38l2.38-.86a12.17,12.17,0,0,1,2.74-3.46c2.88-1.94,5-3.82,7.34-5.18l5.33-.22c.43-.22.94-.43,1.44-.72h1.66c.14.22.29.5.5.79a5.37,5.37,0,0,1-.5.86c-1.08.36-2.23.79-3.38,1.22l-5.47.43c-1,.5-1,.5-2.45,2.16-1.15.65-2.38,1.3-3.6,1.94a29.43,29.43,0,0,1-1.66,3.6c-1,.43-2,.94-3.1,1.44-.94,1.37-1.87,2.74-2.88,4.1-.58.29-1.15.58-1.73.94a9.58,9.58,0,0,1-2.88,2.66l-6.7,2.38c-1.15.14-2.38.29-3.6.5-2.16.94-2.16.94-9.86,2.88a12.12,12.12,0,0,1-4.54-.5l-7.2.22c-2.59.65-5.26,1.3-7.92,1.94-1.8.65-3.67,1.3-5.54,1.94-2.52,1.22-5,2.52-7.63,3.82-.94.65-1.87,1.3-2.88,1.94l-6.48,5.83c-.79.5-1.58,1-2.45,1.58l-4.32,4.1c-1.15.58-2.38,1.22-3.6,1.87-3,.94-5.9,1.87-8.86,2.88-3.82.5-3.82.5-16.78,1.44-1.51.65-3,1.3-4.61,1.94-3.1,1.94-3.1,1.94-11.23,6h-2.88c-.65-.36-1.3-.72-1.94-1.15h-2.66c-1.94.58-4,1.22-6,1.87-2.38,1.3-4.75,2.59-7.2,3.89-.94.72-1.87,1.44-2.88,2.16l-15.34,6.7c-9.86,2.88-9.86,2.88-10.58,3.38-2.88.58-5.76,1.22-8.64,1.87-1.51.07-3,.14-4.54.29-5.33,1.87-7.49,2.88-23.76,8.64-3.17.58-6.41,1.22-9.65,1.87-2.16,1-4,1.44-5,1.94l-1.87.22c-1.3.43-2.59.94-3.89,1.44H300.6l-4.54,1.94c-4.18,1.22-8.35,2.52-12.53,3.82-1.3.14-2.66.29-4,.5l-3.89,2.38c-1.22.29-2.52.65-3.82,1-.43.29-.94.58-1.44.94-.94,1.44-.94,1.44-3.1,3.46-.29.72-.58,1.44-.86,2.23-1.44,1.73-2.88,3.46-4.32,5.26-.29.86-.65,1.73-1,2.66-.43.72-.94,1.44-1.44,2.16-.72.22-1.44.5-2.23.79l-4.54.22c-2.45-.43-2.45-.43-9.36-.94-4.32-.94-7.49-1.94-16.85-3.82-1.94-.07-4-.14-6-.29-4.75.43-9.58.94-14.4,1.44a31.2,31.2,0,0,1-5.76,1.94c-1.73.94-3.46,1.87-5.26,2.88-2.38,1-4.75,2-7.2,3.1l-7-.43c-2.45.58-4.9,1.22-7.42,1.87-.72.29-1.44.65-2.16,1a132.25,132.25,0,0,1-14.4,2.59c-.72.5-4.82,1.44-5.76,1.94-4.54.07-9.07.22-13.68.36a12.72,12.72,0,0,0,.29,1.44,6.65,6.65,0,0,0-.58.36Zm1.22-1.66c-.29-.14-.29-.14-.5-.86a19.85,19.85,0,0,1,1.94.58c-.22.29-.22.29-1.44.29Zm65.3-26.42c-30-.94-30-.94-41.54-.94-.72-.14-1.44-.29-2.16-.5-5.76-.14-11.52-.29-17.28-.5-6.84-.43-13.75-.94-20.66-1.44a87.74,87.74,0,0,0-12.46-1.15c-4.1-1-7.2-1.44-10.8-2.45-5.54-.94-5.54-.94-8.42-1.87-3.24-1.87-6.48-3.82-9.79-5.76-1.37-.58-2.74-1.15-4.1-1.8v-.94c2.16-.14,14.62.79,23.26.79,7.2.5,7.2.5,23.33.94,18.94,0,29.52.29,30,0,6,.14,12.17.29,18.29.5l7.2-.22c9.07-1,9.07-1,24.7-1.94,9.43-.94,18.86-1.87,28.3-2.88.5-.5.5-.5,1.08-1.8v-.94a6.64,6.64,0,0,1-.58-.36l-22.32,2.59C184,234,184,234,183,234.29l-11.52.43c-39.89,0-39.89,0-57.6.29-24-1-30-1-36.29-1.44-3.6-.43-7.2-.94-10.8-1.44-2.38-.07-4.75-.14-7.2-.29-3.31.5-8.64.72-9.36,1-6-.14-12-.29-18-.5-3.31-1.44-3.82-1.94-6-2.88a9.27,9.27,0,0,1-2.38-2.38c-2.66-1-2.66-1-3.38-1.58a1.57,1.57,0,0,0,.22-.36H36.58c5.62-.29,11.23-.58,16.85-.94,8.35-1,20.59-1.94,37.15-3.89,5.33-.94,14.4-1.87,20.66-2.88l6-.43c5-.79,9.94-1.58,14.9-2.45l22.32-2.38c6.26-1.44,6.26-1.44,18.22-3.38,7.7-.43,8.64-.72,10.8-.72,10.8-1.87,19-3.82,29.52-5.76,5.76-1.44,11.52-2.38,15.12-3.31,2.88-.43,5.76-.94,8.64-1.44,2.45-1,2.45-1,8.93-2.88Q267,189.94,288.58,185c4.32-1.44,6.77-1.87,22.61-6.19h1.87c5.76-1.94,7.49-2.88,13-4.82,3.6-.94,6-1.94,10.37-2.88,11.52-3.38,12.24-3.82,33.34-9.58,5.54-1.94,7-2.16,9.14-3.17,12.67-3.82,12.67-3.82,16.78-4.75,28.3-9.65,28.3-9.65,30.46-10.08,12-3.89,37.94-11.52,60.77-18.72h2.59c6-2.52,12.17-5.11,18.29-7.7a31.69,31.69,0,0,0,4.54-3.38H513c1.94,2.45,2.88,4.1,3.6,4.61,3.82,6.19,5.76,8.86,7.7,12.24.29,1.3.65,2.59,1,4-.58.72-1.22,1.44-1.87,2.16-1.51,1.22-3,2.52-4.61,3.82-3.82,5.33-3.82,5.33-5.76,7.49-1.44,1.22-2.88,2.52-4.32,3.82l-5.62,3.67c-6.62,2.23-13.25,4.46-19.87,6.77-9.86,2.88-9.86,2.88-17.57,4.75-25.2,7.7-25.2,7.7-44.14,14-7.56,2.23-15.19,4.46-22.82,6.7-1.87.94-1.87.94-13.9,4.82-2.3.58-4.61,1.22-7,1.87l-4.32,1.94c-12,3.82-12,3.82-17.28,5.26-.94,0-.94,0-11.52,3.38-4.75.94-7.63,1.94-22.32,5.76-5,.94-8.35,1.94-13,2.88-6,1.94-6,1.94-13,3.82-4.54.94-9.07,1.87-13.68,2.88-.94.29-1.87.65-2.88,1-19.15,3.82-22.75,4.75-28.8,5.76C243,228,243,228,238.46,229c-.43.43-.43.43-.43,1.37.43.36.43.36,2.81.58,6.26-.5,6.26-.5,8.42-.94,1.15-.5,24.19-4.32,29-5.33,6.7-.94,6.7-.94,16.34-2.88,19.15-4.75,19.15-4.75,26.64-6.91.72-.29,1.44-.65,2.16-1,7.63-1.87,41.26-11.52,45.58-12.46.94-.5,23.76-7.2,24.7-7.7,1.37-.29,2.74-.58,4.1-.94.5-.36,1.08-.79,1.66-1.22,1.15-.29,2.38-.58,3.6-.94,2.88-1.08,5.76-2.23,8.64-3.38,2.45-.58,5-1.22,7.49-1.87.58-.29,1.22-.65,1.87-1,3.89-.94,3.89-.94,18.72-5.76,1.51-.29,3-.58,4.61-.94,5.47-1.94,32.62-10.08,33.34-10.58l2.38-.43c3.74-1.3,7.49-2.59,11.3-3.89A91.37,91.37,0,0,1,502,158a12.72,12.72,0,0,0,1.44-.29,3.12,3.12,0,0,1,.43.5,7,7,0,0,0,2.88-.72l2.16-1.94c6.77-3.82,6.77-3.82,7.2-4.32.79-.29,1.58-.58,2.45-.94a18.15,18.15,0,0,1,3.6-2.38l7.42-7c1.51-1.08,3-2.23,4.54-3.38,1.22,0,1.22,0,1.94.43a16.9,16.9,0,0,0,.07,1.87c-.29,1.44-.58,2.88-.94,4.32-.94,1.73-4.82,6.77-5.76,8.42-1.94,5.54-1.94,5.54-2.88,7.42-.94,1.08-1.87,2.23-2.88,3.38-.43.29-.94.58-1.44.94-.5,1.44-.5,1.44-.94,1.94-1.73.58-3.46,1.15-5.18,1.8h-1.66c-2.88.94-2.88.94-3.38,1.44-1.87.43-3.82.94-5.76,1.44l-4.54.22a19,19,0,0,0-4.82-.5c-.72.29-.72.29-6,.72-3.38.94-6.84,1.87-10.3,2.88l-8.21,3.89a78.43,78.43,0,0,0-8.86,6.7c-1,.29-2,.58-3.1.94a55.59,55.59,0,0,1-8.42,3.89,35.08,35.08,0,0,1-7.2,1.87c-2.16,1-2.16,1-7.92,2.88a89.93,89.93,0,0,0-11.74,3.17c-.36.29-.79.58-1.22.94-2.88,1.22-5.76,2.52-8.64,3.82-7,1.94-7,1.94-7.92,2.45l-4.54.22c-.36.22-.79.43-1.22.72a15.79,15.79,0,0,0-4.54,1.22c-2.45,1.22-5,2.52-7.49,3.82l-2.59,1.94c-6,2.88-7.7,3.31-9.14,4.32-2.23.94-4.46,1.87-6.7,2.88-2.38.58-4.75,1.22-7.2,1.87-1.15.43-2.38.94-3.6,1.44l-9.36,1.94H347.4c-6,1.94-7.7,2.88-18.22,6.26l-2.66.43-1.22,1c-2.38.94-2.38.94-8.64,2.38l-2.59.22c-2.45,1-4.82,1.44-5.54,1.94-1.87.5-3.82,1.08-5.76,1.66h-2.38a3.13,3.13,0,0,0-.5-.43l-1.44.22c-1.66.94-4.1,1.66-4.32,1.94-16.06,3.6-16.06,3.6-25.92,5.47-4.1.5-5.76,1-10.3,1.44l-9.36,1.94-4.1.22c-.86.29-1.73.65-2.66,1-8.86,1.15-8.86,1.15-12,1.87-10.8.14-21.6.29-32.4.5Zm-158.9-4.1c-.5-.43-.5-.43-3.38-1a4.06,4.06,0,0,1,.29-.86c4.54-1.44,4.54-1.44,4.75-1.73,1.51-.29,3-.58,4.61-.94a6.33,6.33,0,0,0,.43-.72c.79-.29,1.58-.58,2.45-.94,2.3-.29,4.61-.65,6.91-1a7.7,7.7,0,0,1,2.74-2.45c.14-.36.29-.79.5-1.22,2.3-1.8,2.3-1.8,3-2.81,1.37.22,2.74.43,4.1.72.86.29,1.73.65,2.59,1,2.45,1.87,3.38,3.1,9.65,8.28-.22.14-.43.36-.72.58-7.2.22-7.2.22-18.29,1.22-1.66.29-3.31.58-5,.94-4.82.29-9.72.58-14.62.94ZM24.62,223l-7.49-.22a27.42,27.42,0,0,1-5-1.94c-.79-.65-1.58-1.3-2.38-2-.36-1.22-.36-1.22-.36-4.54.29-1,.58-2.09.94-3.17,1.22-1.94,2.52-4,3.82-6,1.3-1.66,2.59-3.31,3.89-5,2.66-2.52,5.33-5.11,8-7.7,1.58-.94,1.58-.94,6.12-5A16.2,16.2,0,0,0,33.7,187c.65,1.15,1.3,2.38,1.94,3.6,1.51,2,3,4,4.54,6.12-.22.14-.43.36-.72.58-9.79-.22-9.79-.22-14.11,0-.5.29-1,.58-1.58.86.07.29.14.65.22,1a2.56,2.56,0,0,1,.65.29l8.86-.43a63,63,0,0,0,9.14,0c.79.58,1.58,1.22,2.38,1.87,3,3.82,6,7.63,9.14,11.52a10.63,10.63,0,0,0,1.51-.07v-.94c-3-3.74-6-7.49-9.14-11.3-.07-.36-.14-.79-.22-1.22.86-.36,15.77-1.3,16.2-1.58,5.54-.94,5.54-.94,7.92-.94,25.49-4.82,25.49-4.82,27.14-4.82,5.26,6.77,6,7.2,7.92,9.5.22.65.5,1.3.79,1.94a5.37,5.37,0,0,1,.86.5,5.37,5.37,0,0,0,.86-.5c-.58-1.15-1.15-2.38-1.73-3.6-2-2.38-4.1-4.75-6.19-7.2a5,5,0,0,0-.14-.94c6-1.37,6-1.37,6.77-1.87,11.74-2.38,16.06-2.88,19.66-3.82,7.2-.94,18.5-2.88,22.82-3.38l6.48-.22c.58,1,1.22,2,1.87,3,.36.36.79.72,1.22,1.08,2.88,4.54,2.88,4.54,4.1,5.76.72.22.72.22,1.3-.14v-1.15c-1.94-2.45-1.94-2.45-5.76-8.64a3.61,3.61,0,0,1,.14-.86c7.42-1.94,17.5-3.89,20.59-4.82,9.36-1.94,11.52-2.66,19.94-4.54a72.76,72.76,0,0,1,9.86-1.3,16.06,16.06,0,0,0,.29,1.66c2.45,4.1,2.45,4.1,2.88,5.54.43.5.86,1,1.37,1.51h.72c.14-.14.29-.36.5-.58-.86-2.16-2.81-5.26-4.25-8.64v-.72c.65-.36,4.25-.86,5.18-1.37,7.42-1.87,7.42-1.87,8.42-2.38,16.27-3.38,19.44-4.32,31.9-6.7h1.94a11,11,0,0,1,1.3,4.18,16.35,16.35,0,0,1,1.87,3.6,1.89,1.89,0,0,0,1.37.36c.36-.36.36-.36.36-1.3-.65-1.08-1.3-2.23-1.94-3.38-.36-1.3-.72-2.66-1.08-4,17.28-3.74,17.28-3.74,33.12-6.62a39.59,39.59,0,0,1,7-1.73,5,5,0,0,1,.94.14c.86,1.51,1.8,3,2.74,4.61,1.37.29,1.37.29,1.73,0v-1c-.58-1-1.15-2-1.73-3.1a8,8,0,0,1,.14-1.22c5.54-1.8,12.74-3.74,18.5-5.62,9.14-3.89,9.14-3.89,17.78-7.2a10.14,10.14,0,0,1,1.44.07c1,1.66,2,3.31,3.1,5,.94,0,.94,0,1.22-.36-.72-1.15-1.51-2.38-2.3-3.6-.14-.5-.29-1.08-.5-1.66a4.4,4.4,0,0,1,.36-.86c6-2.16,12-4.32,18-6.48,1.44-.29,2.88-.65,4.32-1a109.86,109.86,0,0,1,11.81-3.82l2.16-.22a36,36,0,0,1,3.67,6.34,1.89,1.89,0,0,0,1.37.36c.29-.36.29-.36.29-1.08-.94-1.44-.94-1.44-2.88-5.76a3.17,3.17,0,0,1,.14-.72c2.45-.86,7-1.8,7.7-2.3l23.76-4.75c1.22-.07,2.52-.14,3.82-.29a20,20,0,0,1,2.52,4.46,5.56,5.56,0,0,1,1.08.14l.36-.36-.22-1.94c-.29-.5-.65-1.08-1-1.66a9.84,9.84,0,0,1,.14-1.37c4.61-.94,19-2.88,28.58-4.75,1.08-.29,2.23-.65,3.38-1,1.37-.07,2.74-.14,4.18-.29a16.2,16.2,0,0,1,.58-1.73,12.54,12.54,0,0,1,1-.86l2.59-.22c.5-.5.5-.5,6.26-2.38,8.14-1.94,14.9-3.89,23.26-5.76a17.63,17.63,0,0,1,4.32-1.94c.29-.36.65-.79,1-1.22h.94c.94.72,1.87,1.44,2.88,2.16,1.8,2.16,3.67,4.32,5.54,6.48.43.72.86,1.51,1.3,2.3v1.22l-1.44,1.44a38.42,38.42,0,0,1-5.9,2.74c-1.3.29-2.66.58-4,.94-1.51.65-3,1.3-4.61,1.94-1.44.29-2.88.58-4.32.94l-4.32,1.94c-3.6.94-14.11,4.82-20.88,6.7-.36.43-.36.43-.22,1.44l3.1-.22c3-.94,6-1.87,9.14-2.88.5-.29,1.08-.58,1.66-.94,8.64-2.88,8.64-2.88,10.8-3.89,3.89-.94,9.14-2.88,15.41-4.75,1.94-.94,4-1.87,6-2.88l1.22-1.22h1.15c.79,1.15,1.58,2.3,2.45,3.46a5.1,5.1,0,0,0,.07,1,34.31,34.31,0,0,1-5.11,3.67c-4.1,1.94-4.1,1.94-15.84,6.77l-3.89.43c-2.38,1-6,1.94-6.91,2.45-1.94.43-2.66.94-20.16,6.19-1,.5-1,.5-14.9,4.32-2.23.79-4.46,1.58-6.7,2.45l-1.94.22-21.38,6.7c-.58.29-1.22.65-1.87,1-3.6.94-3.6.94-16.56,5.26l-2.66.22c-.72.29-1.44.65-2.16,1-31,9.58-31,9.58-33.62,10.08-10.08,2.88-12.24,3.82-19.66,5.76-2.66.94-6.7,1.87-9.14,2.88-1.22.29-2.52.58-3.82.94-3.38,1.22-6.84,2.52-10.3,3.82h-1.22c-8.14,2.23-16.27,4.46-24.48,6.77-17.5,3.82-33.34,7.63-45.14,10.08-2.59.94-2.59.94-13.68,3.82-5.76.94-7.2,1.44-35.28,7.2a66,66,0,0,0-9.79,1.94c-4.68.29-9.43.58-14.18.94-4.32.94-17.78,3.1-18.22,3.38-10.8,1.15-11.3,1.44-21.17,2.38l-12.67,1.94c-9.86.94-12.24,1.44-21.38,2.38-13.9,1.94-23.54,2.88-26.42,3.38L60.62,221c-2.3.29-4.61.65-7,1-5.76.29-11.52.58-17.28.94Zm145.44-4.54c-.72-.29-1.44-.65-2.16-1a10.75,10.75,0,0,0-.14-1.51c.29-.5.58-1.08.94-1.66a33.43,33.43,0,0,1,7.13-2.81,87,87,0,0,1,10.3-.72c.5.14,1.08.29,1.66.5a3.13,3.13,0,0,1,.36,1.8,13.29,13.29,0,0,1-3.46,2.88c-7.92,1.8-7.92,1.8-9.86,2.52ZM64.66,209.3c-.29-.07-.58-.14-.94-.22a5.37,5.37,0,0,0-.5-.86,7.63,7.63,0,0,1,.72-.86l4.61-.43c1.44-.29,2.88-.65,4.32-1,5-.43,5-.43,7.06-.29v.72a21.67,21.67,0,0,1-4.9,2.23c-1.15.22-2.38.43-3.6.72-.29-.22-.65-.43-1-.72-4.32.72-4.32.72-5.76.72ZM44.28,197.06a10.3,10.3,0,0,1-1.08-.79c-.65-1-1.3-2.09-1.94-3.17-1.8-2.23-3.67-4.46-5.54-6.7-.07-.36-.14-.79-.22-1.22a6.63,6.63,0,0,1,.36-.58,74.64,74.64,0,0,1,10.08-1.22c.29.22,3.17,0,5.54-.5,9.14-.94,11-1.44,17.78-2.38,1.58-.29,3.17-.58,4.75-.94.79-.29,1.58-.65,2.45-1,6.48-.43,7.63-.72,10.37-.58.5,1,.5,1,4.32,5,.43.79.94,1.58,1.44,2.45.86.86,1.73,1.73,2.66,2.59.14.43.29.94.5,1.44-.58.36-.58.36-9,2.3-2.09.29-4.18.58-6.26.94-.29.14-.58.29-.94.5-9.36,1.44-14.62,1.87-16.06,2.38-1.3.22-2.59.43-3.89.72-6.7.22-7.63.5-15.34.72Zm-26.14-.36c-1.37-2.45-2.81-4.9-4.25-7.42-.5-2.38-.5-2.38-.36-3.24,7.7-.5,7.7-.5,17.57-.65-4.1,4-7.7,6.84-8.64,8.06l-3.6,3.38a3.17,3.17,0,0,1-.72-.14Zm80.14-7.56c-1.22-1.22-3-4.18-6.84-8.71l-1.94-1.94v-.72c.65-.36,13.82-1.8,14.54-2.09,4.75-.58,9.58-1.22,14.4-1.87,22.82-3.89,22.82-3.89,26.42-4.82h1.87c.29.29.65.58,1,.94l6,9.29a3.23,3.23,0,0,1-.07.79c-9.14,1-10.3,1.44-18,2.45-4.1.94-9.14,1.44-12.74,2.38-4,.5-8.14,1.44-13.68,2.16-1.87.65-3.82,1.3-5.76,1.94l-5.26.22Zm87.12-1.22c-.14-.22-.29-.5-.5-.79a9.45,9.45,0,0,1,3.38-2.09c9.86-1.44,9.86-1.44,11.16-1.3v1c-1.58.58-3.24,1.15-4.9,1.73-2.3.43-4.61.94-7,1.44ZM12.1,184.1c-2.45-.29-4.9-.58-7.42-.94a6.69,6.69,0,0,1,.22-3c-.29-.07-.58-.14-.94-.22a8,8,0,0,0-.14-1.22c1.94-2.38,4-4.75,6-7.2l9.86-7.92c1.15-.72,2.3-1.51,3.53-2.3a5,5,0,0,1,.94.14c3.67,10.08,6.55,19.22,7.06,20.16a12.2,12.2,0,0,1-.07,1.58c-13.25.94-13.25.94-19,.94ZM34,182.66a10.86,10.86,0,0,1-1.87-3.24l-.43-2.59c-1.94-5.33-2.88-8.93-5.33-15.62-.07-.5-.14-1.08-.22-1.66,1.44-1.37,3-2.74,4.46-4.1,5.4-3.82,5.4-3.82,7.56-5.76,3.1-2.09,6.26-4.18,9.43-6.26a10.74,10.74,0,0,0,1.51-.14c.58,1.37,1.15,2.81,1.73,4.25a47.86,47.86,0,0,1,3.89,6c1.87,4.1,1.87,4.1,5.26,10.37-.07.22-.14.43-.22.72-3.74,2.52-7.49,5-11.3,7.63-4.54,3.46-9.14,6.91-13.75,10.44Zm5.26-.58a4.43,4.43,0,0,1,.07-.94c10.37-7.7,10.37-7.7,13.39-9.5,3.74-2.52,7.49-5.11,11.23-7.7,10.37-5.76,14.4-7.7,39.17-21.1,4.54-1.94,12.24-5.76,21.1-9.65,1.73-.58,3.46-1.22,5.26-1.87,1.44-1,8.21-3.89,11.52-5.76,18.29-7.7,28.37-11.52,32.69-13.46,7.63-2.88,7.63-2.88,12-4.82,12.53-3.82,12.53-3.82,19.22-6.19,7.7-5.76,7.7-5.76,10.58-7.49h.72c.94,1.3,1.87,2.59,2.88,3.89,2.3,1.22,4.61,2.52,6.91,3.82,4.18,1.58,8.35,3.17,12.53,4.82l23.76,4.75c1,.29,2,.65,3.1,1,9.86,1.44,9.86,1.44,30.74,3.6h9.07c2.45-.22,5-.43,7.49-.72.94-.5.94-.5,3.31-1l18-.43a19.28,19.28,0,0,0,1.94-.5h6.48c8.71-1.22,17.42-2.52,26.14-3.82,2.38-.43,4.75-.94,7.2-1.44.22-.14.43-.29.72-.5a78.84,78.84,0,0,0,11.3-2.88c1.94-.94,5.76-1.94,7.92-2.88,1.8-.43,3.67-.94,5.54-1.44,3.1-1.44,6.19-2.38,19.87-8.14,2.16-.5,3.89-1.44,7.7-2.45a12.32,12.32,0,0,0,3-2.45c-.22-1.44-.22-1.44-2.16-6.48-3.82-7.2-4.75-8.42-5.76-10.58-.94-.94-.94-.94-2.88-4.1-.14-.43-.29-.94-.43-1.44-3.89-5.26-7.7-9.79-10.58-13.68-2.38-2.38-3.82-3.31-8.42-7.2-2-1.22-4-2.45-6-3.74-1.51-.58-3-1.22-4.61-1.87C384.91,36,379,34.2,373.1,32.4L369.94,32c-2-.65-4.1-1.3-6.19-1.94-8.57-1.87-17.14-3.82-25.7-5.76-11.3-1.94-11.3-1.94-13.68-2.66-6.12-.43-12.31-.94-18.5-1.44h-7.2a14.58,14.58,0,0,0-.94-1.3c.22-.14.43-.36.72-.58,1.73-.36,3.46-.79,5.26-1.22.72.22,2.66-.22,6-.22,3.24.29,6.48.58,9.79.94,2.38.36,4.75.79,7.2,1.22,2.3-2.74,4.61-5.47,7-8.21l1.22-.22a39.5,39.5,0,0,0,7.63.94c.07.07.14.22.29.36-.65.79-1.3,1.66-1.94,2.52l-5.69,5.47v.72c.65.43.65.43,5.9,1.3h2.45c3.82.58,7.63,1.22,11.52,1.87,13,2.88,13.39,3.17,21.1,5,7,1.87,14,3.82,21.1,5.76a66.83,66.83,0,0,0,8.93,2.88c2.23.94,4.46,1.87,6.7,2.88,8.14,5.76,11.3,7.7,16.34,11.52,9.36,7.7,9.36,7.7,18.22,15.62,3.82,3.82,8.42,7.7,12.46,11.74,1.51,1.87,3,3.74,4.61,5.69-.14.94-.14.94.22,1.51a6.68,6.68,0,0,1,.94.29c1.94,2.59,3.17,3.67,5,6.55.43.43.94.86,1.44,1.37l1.94.43c.36.65.36.65.58,2.59a7.63,7.63,0,0,1,.86.72,3,3,0,0,1,1.66-.65,3.61,3.61,0,0,0,.14.86c-1.51.58-3.1,1.15-4.68,1.8-2.66.58-5.4,1.22-8.14,1.87-2.45.79-5,1.58-7.49,2.45a14.06,14.06,0,0,1-1.66-.14,10.33,10.33,0,0,0-2.66-2.74c-4.75.43-4.75.43-6.19.94l-9.65.22c-6.7,1-6.7,1-26.14,2.88-1.66.5-1.66.5-7.42,1-5.33,1.08-10.73,2.16-16.13,3.31-2.88,1-2.88,1-4,1-16.56,3.82-23.76,5.76-26.42,6.19-.5.29-.5.29-12,2.66-6,1.94-9.79,2.88-19.66,6.26-9.36,2.38-10.3,2.88-17.28,4.75-2.66,1-5,1.44-7.7,2.45-3.6.94-7.2,1.87-10.8,2.88-.36.22-.72.43-1.15.72a38.91,38.91,0,0,0-5.76,1.66c-2.81.43-5.62.94-8.42,1.44-.5.29-1.08.58-1.66.94-3,.65-5.9,1.3-8.93,1.94-.72.29-1.44.58-2.16.94-1.87,0-3.6.5-7.92,1-.72.29-1.44.58-2.16.94l-9.79,1.94c-2.16.58-4.32,1.22-6.48,1.87-5.69.94-11.38,1.87-17.06,2.88-6,1.3-12,2.59-18,3.89-3.53.94-7.06,1.87-10.58,2.88-6.26,1.15-12.6,2.38-18.94,3.6l-6.48.43L153,165.38c-5.33,1.22-10.66,2.52-16.06,3.82-12.1,1.8-24.19,3.67-36.29,5.54-13.68,1.44-16.78,1.44-19.87,1.94l-5.54.43-6.48,1.73c-3.53.29-7.06.58-10.58.94l-13.39,1.94c-1.8.07-3.67.22-5.54.36Zm117.36-2.81c-1.22-1.94-2.52-4-3.82-6-1.08-1.37-2.23-2.74-3.38-4.18a5,5,0,0,0-.14-.94c.65-.43.65-.43,16.2-3.31l5.76-.43c8.64-1.94,8.64-1.94,19.73-3.89l9.07-2.38a16.47,16.47,0,0,1,1.8.14c1.94,2.88,3.82,6.26,4.32,6.7.94,1.94.94,1.94.94,2.66-.29.36-.29.36-3,1.3-1.22.14-2.52.29-3.82.5-5,1.22-9.94,2.52-14.9,3.82-1.8.29-3.67.58-5.54.94-7.2,1.94-7.2,1.94-20.88,4.82l-2.38.22Zm126.72-4.75c-.79-.14-1.58-.29-2.38-.5-.43-.43-.94-.86-1.44-1.3,0-.79-.07-1.58-.14-2.38.29-.36.58-.79.94-1.22.94-.58,1.87-1.15,2.81-1.8,1.08-.29,2.16-.65,3.31-1,4.61-.43,4.61-.43,7-.22.65.22,1.3.43,1.94.72.43.72.43.72.58,2.3-.65.94-1.37,1.87-2.09,2.88-1.15.58-2.3,1.15-3.53,1.8-.94.22-1.87.43-2.88.72Zm-73.66-7.7a76.29,76.29,0,0,1-5.69-8.71,2.7,2.7,0,0,0-.07-.72c8.14-1.87,11.23-2.3,18.94-4,3.89-.58,7.78-1.22,11.74-1.87,2.38-.65,4.75-1.3,7.2-1.94,3-.43,5.9-.94,8.93-1.44l1.44.22c1.73,3.31,2.74,4.46,4.18,7.34,0,1,0,1-.36,1.3-14.18,2.88-15.34,3.38-29.74,6.26l-6,1.94c-2.59.5-5.26,1.08-7.92,1.66Zm109.87-2.16c-1.08-.29-2.16-.58-3.31-.94-1.22-1.08-1.22-1.08-1.58-1.8.07-.5.14-1.08.22-1.66,1.15-1,2.3-2.09,3.46-3.17,1.44-.5,2.88-1,4.39-1.58,1.87.07,3.82.14,5.76.29.86.58,1.8,1.15,2.74,1.8l.22,1.94a4.93,4.93,0,0,1-1.08,2.16c-1.44.72-2.88,1.44-4.32,2.23a32.4,32.4,0,0,1-6.48.72ZM61.56,163a106.86,106.86,0,0,1-6.12-11.38l-3.89-6.48c-.22-2.66-.22-2.66,0-3.6,6.62-3.74,10.73-5.69,18.86-10.51,1.8-.94,3.67-1.87,5.54-2.88a3.17,3.17,0,0,1,.72.14c.29.58.58,1.15.94,1.8,1,1,2.09,2,3.17,3.1,1.87,2.88,3.67,6.41,7.78,12.89.43,1.44.43,1.44.22,2.16C77.4,154.8,73.3,156.74,70,158.69c-3.89,1.87-7.92,4.32-8.42,4.32Zm196.78-6.77c-.58-1.22-1.15-2.45-1.8-3.67a22,22,0,0,1-2.88-4.54,7.18,7.18,0,0,1,.14-1.15c5.9-1.22,11.81-2.52,17.78-3.82,1.08-.36,2.16-.79,3.31-1.22l3.6-.43c7.2-1.94,7.2-1.94,14.4-4.32a13.87,13.87,0,0,1,1.73.07c1.73,3.17,1.73,3.17,4.61,9.43a5.1,5.1,0,0,1-.07,1c-3.53.94-7.06,1.87-10.58,2.88l-11.52,1.94c-5.26,1.44-7.42,1.66-8.64,2.16-2.3.43-4.61.94-6.91,1.44l-3.17.22Zm166.32-1.87c-.43-.5-.43-.5-.58-2a7,7,0,0,1,1.87-2.88,24.56,24.56,0,0,1,5.47-2.81l5,.22,1.51.86v1.73c-1.15.94-2.38,1.87-3.6,2.88-1.44.58-2.88,1.15-4.39,1.73a25,25,0,0,1-5.33.29ZM323.14,151c-.36-.36-.36-.36-.36-1.08a63.85,63.85,0,0,1,9.5-3.24c.94,0,.94,0,1.3.36-.07.29-.14.65-.22,1-.86.43-3,.79-3.74,1.3-4.75,1.44-4.75,1.44-6.48,1.66Zm191.81-1.3a9.81,9.81,0,0,1,.29-1.22c3.89-5,3.89-5,4.82-6.7,2.23-1.87,4.46-3.82,6.7-5.76.22-.43.43-.94.72-1.44a1.89,1.89,0,0,1,1.37-.36,8.52,8.52,0,0,1,1.51,3.46,70.2,70.2,0,0,0-7.27,7c-1.73,1.22-3.46,2.52-5.18,3.82-.94.36-1.94.79-3,1.22Zm-213.41-2.88c-.86-1.44-4.68-9.86-4.68-10.58,6.84-2.3,10.94-3.24,19.58-6.12,7.7-1.94,17.28-4.82,19.22-5,1.37,2.74,2.74,5.47,4.18,8.28v.72a10.61,10.61,0,0,1-2.74,1.8c-1.15.29-2.38.58-3.6.94-4.1,1.94-7.2,2.88-11.3,4.82a23.91,23.91,0,0,0-5.54,1.94c-7.92,1.87-10.8,2.88-13.68,3.31a10.14,10.14,0,0,1-1.44-.07Zm-210.46-.14-5.18-7.78c-1.22-2.52-2.52-5.11-3.82-7.7l-3.17-3.6a3.17,3.17,0,0,1,.14-.72c3.17-1.8,5.76-2.74,7.49-3.74,10.08-3.82,10.08-3.82,21.6-7.63,1.73-.43,3.46-.94,5.26-1.44a10.75,10.75,0,0,1,1.51.14c.5,1.15.5,1.15,4.32,6.48.94,2.16,1.87,4.32,2.88,6.48.72,1.08,1.44,2.16,2.16,3.31v1c-1.3.79-4.18,1.73-11.09,4.61-7.49,3.89-11.81,5.76-16.13,8.21-1.44.43-1.44.43-4.75,2.38Zm439.7-.22a13.84,13.84,0,0,0-1-1.08,5.37,5.37,0,0,1,.5-.86c.94,0,.94,0,1.3.36v1.22c-.58.5-.58.5-.79.36ZM358.7,143.78c-.43-.36-.43-.36-.43-1.3.65-.5.65-.5,2.09-.86l2.88-.22c6.26-1.44,12.6-2.88,18.94-4.32,1.66-.65,3.31-1.3,5-1.94a110,110,0,0,1,13-3.1c.86-.29,1.73-.65,2.66-1,1.58-.29,3.17-.58,4.82-.94a127.25,127.25,0,0,1,13-3.82c1.66-.65,3.31-1.3,5-1.94,6.7-1.44,6.7-1.44,7.63-1.94l4.1-.43c1.15-.29,2.38-.65,3.6-1,3.82-.43,7.92-1.44,9.14-1.44.5.22,1.08.43,1.66.72a5.37,5.37,0,0,0,.5.86c-.43.36-.94.72-1.44,1.08a67.34,67.34,0,0,0-9.65,2.38c-.72.29-1.44.65-2.16,1-9.36,1.87-16.56,3.82-25.92,5.76-47.52,11.52-47.52,11.52-52.78,12.46Zm173.23-8.06a9,9,0,0,1-2.16-3,7.93,7.93,0,0,0-.14-1.3c.29-.58.65-1.15,1-1.73a35.46,35.46,0,0,0,4.68-4.18,2.7,2.7,0,0,1,.72.07,11.52,11.52,0,0,0,.36,1.51v7.63c-.36.36-.36.36-3,1.08a10.82,10.82,0,0,1-1.44-.14Zm-190.3-2.52c-2.81-5.33-2.81-5.33-4-8.5a2.7,2.7,0,0,1,.07-.72c2.23-.86,12.31-3.24,13.25-3.74,9.14-1.87,16.56-3.82,25-5.62a10.82,10.82,0,0,1-.14,1.44c2.16,4.82,2.16,4.82,2.16,5.54-.58.36-3.24.79-10.66,3.24-.65.29-1.3.58-1.94.94-5.76,1.44-7.92,2.38-11.52,3.1L345,132.77l-3.38.43Zm-215.78-2.88c-1.08-1.73-2.16-3.53-3.24-5.33a19.3,19.3,0,0,0-.5-1.94,14.37,14.37,0,0,1-1.87-3.82c-1.15-1.8-2.38-3.67-3.6-5.54a4.43,4.43,0,0,1,.07-.94C126.86,109,126.86,109,129,108c11.52-3.31,22-6.7,23.26-6.77.07.5.22,1.08.36,1.66,1.87,2.66,3.82,6.26,4.75,7.42a21.91,21.91,0,0,0,2.45,4.32v.72c-1.8.86-3.6,1.8-5.4,2.74-.72.14-1.44.29-2.16.5-2.16,1.22-5,2.16-8.64,4.1-1.44.36-2.88.72-4.32,1.15-3.1,1.94-6.26,3.38-11.74,6.48Zm254.66-9.79c-.65-.79-1.3-1.58-1.94-2.45-.36-.86-.72-1.8-1.08-2.74a7.17,7.17,0,0,1,.14-1.15c13.9-3.31,13.9-3.31,25.92-5.69,5.76-.5,7.7-.94,10.08-.94.79,1.08.79,1.08,2.74,5.18a1.91,1.91,0,0,1-.36.43c-5.26.86-13,2.74-16.06,3.24-1.22.5-7,1.44-8.42,1.94-2.59.43-2.59.43-8.86,2.16Zm151.92-.5c-.86-.65-1.73-1.3-2.66-1.94l-2.38-.43c-.43-.29-.94-.65-1.44-1-1.44,0-2.38-.43-9.14-1.15-1.08-1.37-2.16-2.74-3.24-4.18a5.1,5.1,0,0,0-.07-1c1.66.43,3.31.86,5,1.3.58.29,1.22.65,1.87,1l3.38.43a29.63,29.63,0,0,0,5,1.94,43.25,43.25,0,0,1,4.9,4c-.07.29-.14.65-.22,1a5.45,5.45,0,0,0-1.08.07Zm-371-5.54a8.08,8.08,0,0,1-1.73-3c-.22-.07-.43-.14-.72-.22a10.82,10.82,0,0,1,.14-1.44c-4.82-8.21-4.82-8.21-5.33-8.64a3.17,3.17,0,0,1,.14-.72c1.73-.58,3.53-1.22,5.33-1.87,18-3.82,18-3.82,19.44-4.32a41.36,41.36,0,0,0,7.63-1.44l3.89-.22c.58,1.22,1.15,2.45,1.73,3.74a28.55,28.55,0,0,0,1.73,5.26,7.93,7.93,0,0,1-.14,1.3c-3,.94-6,1.87-9.07,2.88-1.94,1-14.69,5.76-16.56,6.77a29.74,29.74,0,0,0-5.33,1.87Zm135.36-.94c-3.89-.5-3.89-.5-16.85-1.44-4.82-.72-9.72-1.44-14.62-2.23a5.65,5.65,0,0,0-.14-1c.65-.94,1.3-1.87,1.94-2.88.72-.58,1.44-1.22,2.23-1.87,1-.14,3.89.58,7.49.58,2.3.94,4.61,1.87,7,2.88,6.48,1.87,6.48,1.87,9.58,2.38.79.36,1.58.79,2.38,1.22l2.16.43c.65.36,1.3.72,2,1.15a4.25,4.25,0,0,1-.29.58l-2.88.22Zm10.51-.94a58.16,58.16,0,0,0-6.19-1.44c-4.1-1.44-4.1-1.44-5.76-2.45-2.52-.58-5.11-1.22-7.7-1.87-5.76-1.94-5.76-1.94-6.48-2.45-.07-.22-.14-.5-.22-.79,6.19-.86,6.19-.86,12.24-1.37,21.31-.43,21.31-.43,33.12-.94,5.76-.94,5.76-.94,10.8-1.44l13.18-.22,4.1.43c.86.43,1.8.86,2.74,1.37v.72c-1.58,1.87-3.17,3.82-4.82,5.76-.14.36-.29.79-.5,1.22-3.17.79-8,1.3-9.43,1.73-6.26,0-7.2.29-26.64,1-1,.22-2,.43-3.1.72Zm111.6,0c-.86-1.51-1.8-3.1-2.74-4.68a2.7,2.7,0,0,1,.07-.72c1-.36,1-.36,20.23-2.3l9.36-.22a22.47,22.47,0,0,1,5.26-.72c.5.14,1.08.29,1.66.43a9.38,9.38,0,0,0,.72,1.08l-.43.65c-2.3.79-4.61,1.58-7,2.38-5.76.94-5.76.94-7.42,1.44h-2.88c-7,1.22-7,1.22-10.58,1.44a25.43,25.43,0,0,1-6.26,1.22Zm-160.06-4.32c-15.62-2.88-15.62-2.88-20.16-4,.22-.65.5-1.3.79-1.94l5-4.75a5,5,0,0,0,.94-.14c8.64,1.87,8.64,1.87,12,2.88,1.94.94,1.94.94,6.48,2.38a3.51,3.51,0,0,0,.07.86c-1.87,1.94-1.87,1.94-2.59,2.38-.43.65-.86,1.3-1.3,2a9.82,9.82,0,0,0-1.22.29Zm99.86.14a9.8,9.8,0,0,1,.29-1.22c.94-1.37,1.87-2.74,2.88-4.1a12.93,12.93,0,0,0,1.58-.14c6,1.94,7.7,2.16,8.42,2.59v.79l-10.3,1.94c-.94,0-1.87.07-2.88.14Zm-124.85-5.69c-3-1.22-5.9-2.52-8.86-3.82-3.38-1.94-3.38-1.94-4.54-3a6.69,6.69,0,0,0-.29-.94c11.3-.14,11.3-.14,13.68.07,1.8.43,3.67.94,5.54,1.44a4.4,4.4,0,0,0,.36.86c-1.58,1.44-3.17,2.88-4.82,4.32-.5,1-.5,1-.86,1.22-.07,0-.14-.07-.22-.14Zm39.38-.5a13.3,13.3,0,0,1-1.66-.07,9.81,9.81,0,0,1,.29-1.22,33.21,33.21,0,0,1,4-4.32,8,8,0,0,0,1.22-.14c11.81,2.88,11.81,2.88,13.46,3.6-.72.5-.72.5-2.88,1-8.86.94-8.86.94-14.4,1.15Zm-77-.22c-.43-.65-.86-1.3-1.37-2-.43-2.88-.94-3.82-2-7.92,2.59-.58,5.26-1.15,7.92-1.8,1.8-.22,3.67-.43,5.54-.72,2.59-.65,5.26-1.3,7.92-1.94,1,0,2-.07,3.1-.14-.5.5-1,1-1.58,1.51-.07.5-.14,1.08-.22,1.66l-1.94,1.94-7.78,5.62c-1.08.58-2.16,1.22-3.31,1.87L196.2,102Zm69.12-.94c-.72-.5-6.48-1.94-7.2-2.45-1.94-.43-2.88-.94-7.7-1.87-.94-.36-1.87-.72-2.88-1.08a5,5,0,0,0-.14-.94l4-4.25h2.16c.72.5,1.44,1.08,2.16,1.66,2.45.29,4.9.65,7.42,1,1.44.43,2.88.94,4.32,1.44,1.37.14,2.74.36,4.1.58-.14.43-.29.94-.43,1.44l-4.32,4.32a10.74,10.74,0,0,0-1.51.14Zm213.84-3-.65-2.59V90.65c-.94-1.94-.94-1.94-1-2.66,2.74.58,5.54,1.15,8.35,1.8,2.45.94,4.9,1.87,7.42,2.81a7.18,7.18,0,0,0,.14,1.15c-1.51.72-3.1,1.51-4.68,2.3a86.46,86.46,0,0,1-9.58,2ZM284,96.26c-1.8-.43-3.67-.94-5.54-1.44a3.71,3.71,0,0,0-.14-.79l6.26-6.26a5.56,5.56,0,0,0,1.08-.14c.14,2.09.14,2.09-.22,8.64Zm-43-1.44c-1.08-.36-2.16-.72-3.31-1.08V93c4.54-.86,4.54-.86,6.19-.94-.36.94-.36.94-1.8,2.66a5.45,5.45,0,0,0-1.08.07Zm168.26-.5c-1.37-.36-2.74-.72-4.1-1.15-2.38-.14-4.75-.29-7.2-.5-4.54-.86-9.07-1.8-13.68-2.74a5,5,0,0,0-.14-.94c1.08-2.74,2.23-5.47,3.38-8.21,1.51,0,3.1-.07,4.68-.14,4.46.43,8.93.94,13.46,1.44,16.34,2.45,16.34,2.45,21.82,2.88.29.14.65.29,1,.5a9.18,9.18,0,0,0,.07,1.37l-.94.94c-1.08.22-2.16.5-3.24.79-1.94,1-4.82,1.94-6.48,2.88-7.7,2.88-7.7,2.88-8.64,2.88Zm-137-.94c-.86-.14-1.73-.29-2.66-.5-.5-.36-1.08-.72-1.66-1.15l-7.92-1.3v-.72c5-.86,17.5-2.3,18.72-2.23l-1.94,2.81-3.1,3.1Zm-49.25-.5c-1.66-.07-3.31-.14-5-.29a14,14,0,0,1,.36-1.44l4.1-3.89c5.11-3.82,5.11-3.82,8.5-5.76a74.89,74.89,0,0,1,10.8-3.74c2.45-.58,5-1.22,7.49-1.87H254c1.8.43,3.67.86,5.54,1.3a2.7,2.7,0,0,0,.07.72c-6.91,7-8.14,7.92-11.09,10.94a105.26,105.26,0,0,0-12,1.87c-.94.58-1.87,1.15-2.88,1.73a75.07,75.07,0,0,1-10.58.43Zm157.68-3.1-3.6-.22c-1.15-.29-2.38-.58-3.6-.86a7.18,7.18,0,0,0-.14-1.15c1.73-2.38,3.53-4.75,5.33-7.2a24,24,0,0,1,5.76.22V84c-.94,1.87-1.87,3.82-2.88,5.76a3.51,3.51,0,0,0-.86.07ZM254.3,88.49a6.69,6.69,0,0,1,.29-.94c9.14-7.7,9.14-7.7,10.94-9.5,6,.72,6,.72,11.3,1.66,2.23.58,4.46,1.15,6.7,1.8a3.17,3.17,0,0,0,.14.72c-.29.43-.65.94-1,1.44-.65.43-1.3.86-2,1.3-1.51.29-3,.65-4.54,1-14.4,1.87-14.4,1.87-21.82,2.52Zm113.26-.86-3.38-.22C360.36,86.4,359.64,86,351,84a28.12,28.12,0,0,1-5.76-1.22,15,15,0,0,1-4-.29V81.29l-1.08-.65c-5.76-.43-11.52-1.44-16.56-1.87a11.1,11.1,0,0,1-1.22-.36V77.33c1.08-.14,2.23-.29,3.38-.5,6,.29,12,.58,18,.94,4,.36,8.14.79,12.24,1.22l17.5.86a14,14,0,0,1-.36,1.44c-1.37,2.09-2.74,4.18-4.18,6.34Zm54.22-5.26c-4.75-1-4.75-1-15.55-2.45-19-1.66-19-1.66-29.09-2.16-12.24-.22-12.24-.22-15.55,0-.86-.22-1.73-.43-2.66-.72-3.6,0-3.6,0-23.54-1.73v-.72C353.16,73.22,357.7,73.22,358,73c7.27.36,14.54.72,21.82,1.15l15.84,1.73,16.78,2.59,6.48,1.94c5.76.94,5.76.94,7.7,1.58a1.57,1.57,0,0,0-.22.36Zm2.66-2.88c-1.94-.5-1.94-.5-6-.72-1-.5-1-.5-8.93-2.45-3.82-.58-7.63-1.22-11.52-1.87H394.2c-1.94-.5-1.94-.5-9.86-1.44-6-.29-12-.65-18-1-1.66-.22-3.31-.43-5-.72-16.06,1-16.06,1-24.48,1.22-1.66.5-6.19.94-14.4,2.38-.22-.07-.43-.14-.72-.22a8.52,8.52,0,0,1-1.3-3.24c-.72-.58-1.44-1.22-2.16-1.87a21.08,21.08,0,0,0-1.94-4.32c-2.16-1.87-4.32-3.82-6.48-5.76a13.67,13.67,0,0,0-1.94-3.6l-.43-1.94c-1-1.22-1.94-3.38-6-9.36-1.87-4.1-2.38-4.54-4.32-9.14-1.87-3.31-2.88-6-4.32-8.35a18.08,18.08,0,0,0-.29-1.94,8.08,8.08,0,0,0,.94-.36c.43-.58.94-1.15,1.44-1.73,2.88-.22,5.76-.43,8.64-.72.94.07,1.87.14,2.88.29,2.88,3.1,5.76,6.19,8.64,9.36,3.82,4.9,5.76,6.91,13.46,16.56C334.22,55,334.22,55,342.14,64.8l4.54,3.89a4.78,4.78,0,0,0,2.38.43,6.32,6.32,0,0,1,.72-.43l8.64.22,26.21,2.38,10.8,1.94c3.6.29,7.2.58,10.8.94,4.32,1,7.63,1.44,15.84,3.38.43.22.94.43,1.44.72.86,0,1.73,0,2.59-.07a7.18,7.18,0,0,0,.14,1.15,16.46,16.46,0,0,0-1.8.14ZM284.76,77.54C274,76.1,274,76.1,272.88,75.74a3.17,3.17,0,0,0-.14-.72c.72-.07,1.44-.22,2.16-.36l5.33.22,4.32-.43c2.3.07,4.61.22,6.91.36A7.12,7.12,0,0,1,289.3,77c-1.51.14-3,.29-4.54.5Zm-49.46-.07a8.74,8.74,0,0,1,.36-1c8.42-8.14,13-12,17.78-16.78a5.56,5.56,0,0,0,1.08-.14c.22.5.5,1,.79,1.58.72.43,1.44.94,2.16,1.44v.94l-2.16,1.94c-3.82,4.82-5.76,6.7-7.2,8.64-2,.79-6.55,1.8-9.22,2.74l-3.6.65ZM311.18,77c-5-.14-10.08-.36-15.19-.58a4.43,4.43,0,0,0-.07-.94c.43-.43.86-.86,1.3-1.37H302c1.37.29,2.74.65,4.1,1l5.26.43c.94.5.94.5,4.32,1a3.13,3.13,0,0,1-.5.43Zm112-1.15C408.1,73,408.1,73,406.44,72.5c-4.25-.43-8.5-.94-12.74-1.44-2.74-.43-5.54-.94-8.35-1.44-2.45-.22-5-.43-7.49-.72l-3.1.22c-6.84-1-13.75-2-20.66-3.1l-7.42.22c-.43-.29-.94-.58-1.44-.94-2.81-3.1-5.62-6.19-8.42-9.36-4-5.18-8.14-9.58-12-14.54-.72-.58-2.66-3.46-4.61-5.62-1.87-2.66-1.87-2.66-9.94-12.1a4.43,4.43,0,0,1,.07-.94,15,15,0,0,1,5.11.29c2.45.14,4.9.29,7.42.5,4.32.94,4.32.94,11,1.94,16.56,3.82,20.16,4.32,30,6.7,4.54,1.44,9.36,2.38,22.54,6.26a76.43,76.43,0,0,1,9.14,3.82l4.1,2.38c2.45,2,4.9,4,7.42,6,2.66,3.31,5.4,6.7,8.14,10.08,3.89,5.62,3.89,5.62,7.7,11.74,1.3,2.81,1.3,2.81,1.22,3.38Zm-107-1.73c-.22-.14-.43-.36-.72-.58h3.1a1.57,1.57,0,0,0-.22.36l-2.16.22Zm-63.36-.43a3.17,3.17,0,0,1-.72-.14,9,9,0,0,1,.29-1.15c5.76-7,5.76-7,6.91-7.85,1.66.36,3.31.79,5,1.22a5.45,5.45,0,0,0,.07,1.08,39.39,39.39,0,0,0-4.32,5.54c-1.66.43-3.38.86-5.11,1.3Zm18-.29a3.71,3.71,0,0,0-.14-.79c.94-1.08,1.87-2.23,2.88-3.38.79,0,1.66-.07,2.52-.14A85,85,0,0,0,286,71.06c1.15.43,2.38.94,3.6,1.44-.29.14-.65.29-1,.5-10.8.22-10.8.22-13.39,0l-4.32.43Zm-7.7-.72a7.93,7.93,0,0,0-.14-1.3l3.53-4.18c1,.14,2,.36,3.1.58a4.71,4.71,0,0,1-1.37,2.45c-1,.79-2,1.58-3.1,2.38a19.55,19.55,0,0,0-2,.07ZM302,72c-10.3-1.87-10.3-1.87-14.4-2.38-.94-.5-.94-.5-5-1.44-2.38-.22-3.38-.72-9.36-1.66-1.44-.43-3-.86-4.46-1.3v-1l5-6.26A65.31,65.31,0,0,1,283.1,59l17.28,4.32c.5.29,1.08.65,1.66,1,8.14,2.88,8.14,2.88,10.58,4l1.66-.22c.72.86,1.44,1.8,2.16,2.74a1.58,1.58,0,0,0-.22.36c-9.14.72-9.14.72-14.18.72Zm-36.5-7.92c-1.08-.43-2.16-.94-3.31-1.44a5.65,5.65,0,0,0-.14-1c1.15-1.51,2.3-3,3.46-4.61,1.94-.14,1.94-.14,5.76.36a3.62,3.62,0,0,0,.14.86c-1.51,1.94-3.1,3.89-4.68,5.83Zm43.7-1.15c-.86-.29-1.73-.65-2.66-1C301,60.7,295.42,59.4,289.8,58.1c-1.94-.29-4-.58-6-.94l-2.59-.86a2.7,2.7,0,0,0-.07-.72c3.24-.14,6.55-.36,9.86-.58l7.63.22c1.73.29,3.53.58,5.33.94a5.77,5.77,0,0,0,2.38,1c.94,1.08.94,1.08,1.8,3.24l1.66,1.66c0,.72,0,.72-.36,1-.07,0-.14-.07-.22-.14Zm-50.18-2.45-1.15-.94a7.93,7.93,0,0,0-.14-1.3c.14-.22.36-.43.58-.72,1.22-.36,1.22-.36,1.73-.86,2.38,0,2.38,0,2.88.36-1,1.15-2.09,2.3-3.17,3.46ZM293.4,20.81c.22-.94.22-.94.72-1.37a12.72,12.72,0,0,0,1.44-.29,6.68,6.68,0,0,1-.29.94,3.2,3.2,0,0,1-1.87.72Zm61-10.94c-5.9-.29-11.81-.58-17.78-.94-.65-.22-1.3-.43-1.94-.72l-1.87.22C328.68,7.7,310.68,6,310,5.69A14.05,14.05,0,0,0,309.82,4l1.08-1.94c3,0,5.9-.07,8.93-.14,3.67.29,7.34.58,11,.94,6,1,11.3,1.44,13.68,1.94,3.1.29,6.19.58,9.36.94,7.2,1.44,7.2,1.44,7.92,1.87-.14.65-.29,1.3-.5,2-.72.22-.72.22-6.91.22Z"/></g></g></svg>