<svg xmlns="http://www.w3.org/2000/svg" viewBox="0 0 504.18 218.16"><defs><style>.cls-1{fill:#231f20;fill-rule:evenodd;}</style></defs><title>DAYCR1</title><g id="Layer_2" data-name="Layer 2"><g id="Layer_1-2" data-name="Layer 1"><path class="cls-1" d="M106.2,218.16c-.79-.29-1.58-.58-2.38-.94l-6.26-3.89c-1-1.08-2-2.16-3.1-3.24-8.42-6.84-8.42-6.84-8.86-7.56-1.37-1.22-2.74-2.52-4.1-3.82-1.22-1.51-2.52-3-3.82-4.54-8.21-7.92-8.21-7.92-19.73-19.94-3.82-4.32-7.92-8.14-12-12.74-9.14-8.86-9.14-8.86-25.34-23.62v-1.44c.36-.36.72-.72,1.08-1.15.79-.36,1.66-.79,2.52-1.22v-2.88l-4.1-4.54c-.43-.29-.94-.65-1.44-1l-10.15-.86c-1.73-.29-3.53-.58-5.33-.94-.58-.29-1.22-.58-1.87-.94A11.53,11.53,0,0,1,0,119.66l.22-2.16a8.24,8.24,0,0,1,2.3-2.16A21.15,21.15,0,0,1,8.28,114L23,113.54a6.63,6.63,0,0,0,.58-.36v-3.1c-1.58-7.63-3.17-15.34-4.82-23-.43-1.3-.94-2.59-1.44-3.89-4-.14-7.92-.36-11.88-.58a12.51,12.51,0,0,0-.94-1.08c.5-.86.5-.86.94-1.08L16,80.64c1.08.14,2.23.29,3.38.5,13.68.43,18,.22,21.1.43.94.29.94.29,16.06.5a19.3,19.3,0,0,1,1.94.5H74.09c4.32-.79,8.64-1.58,13-2.45,3.6,0,5,.29,11.23.29,5-.22,10.08-.43,15.12-.72,18.29,0,19.22-.29,43.2-.5,3.17-.22,14.18-.22,15.84-.5h6.48c1-.43,1.94-1.44,2.88-1.87,1-1.22,3.6-3.17,5.54-5.33,2.16-1.87,5-3.82,12.74-10.51,2.38-2.45,4.75-4.9,7.2-7.34.58-.94,1.22-1.87,1.87-2.88.58-1.3,1.15-2.66,1.8-4,2.38-9.65,2.88-10.58,3.82-14.9.14-1.22.29-2.52.5-3.82,1.94-5.54,1.94-5.54,2.38-7.7.65-1.08,1.3-2.23,1.94-3.38a68.44,68.44,0,0,1,7.13-5.62c.86-.29,1.73-.65,2.59-1l13-2.38h3.17c4.18-.5,8.42-1.08,12.67-1.66,11.52,0,14-.29,25.7,0,.86.22,1.73.43,2.66.72,7.2.22,14.4.43,21.6.72,13.68,1.87,13.68,1.87,24.48,2.88l27.79.43,17.06-.22c.14-.14.29-.36.5-.58-.29-.86-.58-1.73-.86-2.66l.22-2.38c.29-.43.58-.94.94-1.44.79-.65,1.66-1.3,2.52-1.94.79-.29,1.58-.58,2.45-.86,2.16-.29,4.32-.58,6.48-.94,5.54.22,5.54.22,8.42.72,1.08.29,2.16.58,3.31.94,1,.65,2.09,1.37,3.17,2.09l2.16,2.38a17.92,17.92,0,0,1,1.51,4.61c-.22,1.15-.5,2.38-.79,3.6,3.1,0,6.19,0,9.36.07a3.13,3.13,0,0,1,.43.5c1.08,12.1,1.08,12.1.86,13.32a89.51,89.51,0,0,1,0,10.8c-.29.94-.72,6-1.73,12-.86,3.17-1.73,6.34-2.59,9.58l-1.94,4.32a22.77,22.77,0,0,1-1.94,5.76v1.22c1.15.22,2.3.5,3.53.79.29.36.58.79.94,1.22,2.66,1.87,2.66,1.87,3.6,3l.86,1.94L419,81c-.29.86-.58,1.73-.94,2.66-.36.36-.72.79-1.08,1.22-1.73.22-3.46.5-5.26.79-1.73,0-3.53,0-5.33-.07l1.3,4.32c1.37,1.3,2.74,2.66,4.1,4,2.52,3.1,5.11,6.19,7.7,9.36,3.82,6.26,3.82,6.26,10.08,18,12.82,2.74,13.32,3,23.18,4.9,2.66.65,5.4,1.3,8.14,1.94,1,.36,2,.79,3.1,1.22a50,50,0,0,1,7.2,1.87,44.15,44.15,0,0,1,6,3.89l7.63,7.42c.94,1.44,1.87,2.88,2.88,4.32.29.72.58,1.51.86,2.3.43,3.1.43,3.1.72,3.6-.07,4-.14,8-.29,12-.22.79-.43,1.58-.72,2.38v2.66c.22.5.43,1.08.72,1.66,1.44.86,3,1.8,4.46,2.74,1.8.5,3.67,1.08,5.54,1.66,4.1,2.88,4.1,2.88,5,4,.07,1.22.07,1.22-.22,1.58l-2.45.22c-1,.29-2,.65-3.1,1-1.8.29-3.67.58-5.54.94-.72.5-.72.5-10.8,4.32l-2.16,3.24c-.29.86-.58,1.73-.86,2.66-.14,1.87-.29,3.82-.43,5.76-.36.43-.72.94-1.08,1.44-13,.79-13,.79-23.54,1.8-6.91.94-6.91.94-17.5,1.87-7.49.43-15,.94-22.54,1.44-2.45.5-4.1.5-5,.86-.14.14-.29.36-.5.58-2.16-.22-2.16-.22-11,0-4.39.43-8.78.94-13.25,1.44-5.26,0-18.72.72-41,1.22-.94.14-1.87.29-2.88.5l-12.67.43-16.13,1.94c-6,.22-6,.22-24.19,1.66l-21.89-.22c-13.9.72-14.4.94-39.6,2.38-32.83.29-32.83.29-35,.5-6.62-.14-13.25-.29-19.94-.5-22.32.5-22.32.5-28.58,1-4.32-.29-4.32-.29-33.12-.5-.29.22-.58.43-.94.72ZM219,196.56c-.72-.14-1.44-.29-2.16-.5-11.74-.72-19.94-.94-25.2-1.44L177,194.18c-14.18-1.44-16.13-1.94-20.45-2.45-.72-.22-1.44-.43-2.16-.72-5.26-.43-8.86-1.15-13.68-1.44-.5-.22-1.08-.43-1.66-.72-4-.29-8-.58-12-.94-1.73-.29-3.46-.58-5.26-.94a26.91,26.91,0,0,1-6.48-.5c-.29-.14-.58-.29-.94-.5-4-.29-8.14-.58-12.24-.94-3.53-.43-7.06-.94-10.58-1.44-4.1-.94-8.28-1.87-12.46-2.88a112.85,112.85,0,0,1-12.53-5.26c-6.7-5.76-6.7-5.76-8.86-7.92-1.08-1.44-2.16-3-3.24-4.46-4.32-3.82-8.42-8.14-13.25-12.46-1.58-1.58-3.17-3.17-4.75-4.82a2.7,2.7,0,0,1,.07-.72c1-.14,1-.14,5.83.58h7.2c18.94,1.94,18.94,1.94,21.6,2.45,4.32.29,8.64.58,13,.94l34.06-.22c5.26.43,7.7.94,29.74,2.59.5.29.5.29,11.3,1.22,5.33.14,10.66.29,16.06.5l21.17,2.38c13.9.22,15.84.5,24.48.72,7-.29,14-.58,21.1-.94,18.72,0,18.72,0,19.94-.29,6.7-.22,6.7-.22,7.63-.43l19.73.22c5,.5,21.82.94,29.23,1.44l12.74-.22,1.94.43c10.8-.22,10.8-.22,20.88,0,1.87.29,1.87.29,10.8.5l7.63-.22,6.26.43c13.25-.22,26.5-.43,39.82-.72,1,.29,1,.29,21.89,1.22h16.56c11.52.5,20.59.5,25.92.94.36.14.72.29,1.15.43-1.8,6.19-1.8,6.19-5.62,17.5-.58,2.88-1.15,5.76-1.8,8.71h-1.66c-.72.29-1.44.65-2.16,1h-8.21c-16.78.94-27.58,1.15-28.3,1.44-14.18.22-14.18.22-21.1,0a12.72,12.72,0,0,1-3.6.94c-8.64.43-17.28.94-25.92,1.44-1.73.5-1.73.5-8.93,1.44-9.36,0-18.22.5-31.18.5-4.54.43-4.54.43-6.48.94l-7.42.22c-18.5,1.94-20.45,1.94-23.54,2.45-3.89.22-7.78.43-11.74.72-32.18-1-32.18-1-40.82-1-6.7.72-10.08.72-11.52,1-13.68.22-18.5,0-25.2.22ZM484.2,184.18l-.43-2.38c1-.29,2-.58,3.1-.86h1.94c.5.29,1.08.65,1.66,1-1.73.79-3.46,1.58-5.26,2.38a5.64,5.64,0,0,1-1-.14ZM468.36,151.7c-36.22-.72-36.22-.72-37.44-1l-11.74-.43c-.86-.14-1.73-.29-2.66-.5-14.83.5-14.83.5-24.91.5-10.8.72-10.8.72-29.09,1.15-8.78-.29-17.57-.58-26.35-.94H322.92c-25.42-.94-27.07-1.22-48.46-2.16l-5.26.22a17.58,17.58,0,0,0-1.73.72c-6.84.14-13.68.29-20.59.5-21.6-.72-21.6-.72-26.93-1.22-.43.29-.43.29-5.47.29-3.38-.5-5.33-.5-7-1-3.1,0-3.1,0-10.3-.94l-45.36-2.38c-15.84-1.44-15.84-1.44-16.56-1.73H122c-8.42-.36-16.92-.72-25.42-1.15l-7,.22a58.31,58.31,0,0,0-7.92-.5c-14.83-1.87-14.83-1.87-21.6-2.38-1-.29-2-.58-3.1-.94l-.72-.72c-2.52-.14-5.11-.29-7.7-.5l-.72-.72h-11c-2.66-.29-5.4-.58-8.14-.94-.58-.36-1.22-.72-1.87-1.08l-.22-2.16,1.08-.86c1-.36,2.09-.79,3.17-1.22,2.59-.43,5-1.44,9.58-2.45-.07,1.08-.22,2.16-.36,3.31.22.22.5.43.79.72,1.08-.94,2.23-1.87,3.38-2.88,1-.58,2.09-1.15,3.17-1.8,2.52-.94,5-1.87,7.63-2.88a9.86,9.86,0,0,1,3.6,0c5.33-.94,5.33-.94,14-1.94H82c2.45.29,4.9.65,7.42,1,8.64.43,8.64.43,23.54.72,8-.14,16-.29,24-.5,3.1-.5,3.1-.5,13.46-1.22h15.84c.22,1,.5,2,.79,3,.29.29.58.65.94,1v.72c-1.73,1.22-3.46,2.52-5.26,3.82a32.6,32.6,0,0,0-3.82,4.32,9.09,9.09,0,0,0-1.22,3.6l.22,1.94a4.84,4.84,0,0,0,2.81.58c.5-.29.5-.29,4.32-.29,7.42.5,7.42.5,17.5.72l13.25-.22c20.16.94,20.16.94,28.08.94.79.14,1.58.29,2.38.5,7.7.43,15.48.94,23.26,1.44H261c4.46.29,8.93.58,13.46.94h8.14c15.62,1,15.62,1,19,1.44.43.29.43.29,8.86.72l16.34-.43,18.72.43a6.32,6.32,0,0,1,.72-.43c18.72-1.22,18.72-1.22,32.83-1.73h11.3c5.26.72,5.26.72,5.76,1h16.78c6,.43,12.17.94,18.29,1.44,46.51,1.87,46.51,1.87,53,2.38a6.63,6.63,0,0,1,.58.36,3.5,3.5,0,0,1-.07.86c-.72.22-7.7.43-9.58.72ZM465,143.5c-10.37-.29-20.81-.58-31.25-.94-.5-.22-1.08-.43-1.66-.72-4.32-.22-5-.5-15.62-.94a67,67,0,0,0-8.35-.72c-.43.22-.94.43-1.44.72a30.47,30.47,0,0,1-6.26-.5c-.5-.58-.5-.58-2.3-5.11-1.22-1.51-2.52-3-3.82-4.61-1.15-.86-2.3-1.8-3.46-2.74a28.4,28.4,0,0,0-6.48-1.94c-6.77-.36-13.61-.79-20.45-1.22-10.3,0-10.3,0-27.07.5-3.24.29-6.55.58-9.86.94-13.18-.22-13.18-.22-23.76-.72-17.5,0-20.66.29-34.56.5l-18.94-.22c-4.61-.5-4.61-.5-4.82-.29-4,.07-8.14.14-12.24.29-.29.14-.58.29-.94.43-7,0-7,0-25.2-.94l-6.48.22c-3.89-.29-7.85-.58-11.81-.94l-15.34-.22c-.29-.43-.58-.86-.94-1.37a9.18,9.18,0,0,0-.07-1.37l1.51-.43c35.28-.43,35.28-.43,51.55-.94,1.66-.14,3.31-.29,5-.5,13.1-.36,26.21-.72,39.38-1.15,6.12.29,12.31.58,18.5.94l15.34-.22c4.1-.5,7.42-.5,9.36-1l4.82-.43c.29-.14.58-.29.94-.5,5.76.22,11.52.43,17.28.72l49,.22c5.83-.22,11.66-.43,17.5-.72,10.37.72,10.37.72,11.09,1.08,2.16,2.23,4.32,4.54,6.48,6.84,2.23,3.17,4.46,6.41,6.7,9.65.72.22,3.82.22,16.56,1.44h6L475.13,139c.72.29,1.44.58,2.16.94,2.38,1.94,2.38,1.94,2.74,2.59a3.71,3.71,0,0,1-.14.79L465,143.5ZM27,123.62c-6-.43-12.1-.94-18.22-1.44-1.08-.29-2.23-.65-3.38-1a4.64,4.64,0,0,1-1.66-1.8,14.06,14.06,0,0,0-.14-1.66c.36-.36.36-.36,2.09-.86L9,116.42c22.32-.5,22.32-.5,30.53-.29,15.55,1.44,15.55,1.44,20.16,2.16l.43.65c-.36.36-.72.72-1.15,1.08a63.58,63.58,0,0,1-9.86,2.38,93.41,93.41,0,0,0-12.74,1.22ZM423.29,121a19.29,19.29,0,0,1-1.94-.5c-1.22-1.66-2.52-3.31-3.82-5l-2.66-.43-1.22-1c-.65-1-1.3-2.09-2-3.17-2.52-5.18-5.11-10.37-7.7-15.62a19.88,19.88,0,0,0-.58-1.94,4.61,4.61,0,0,1,2.38,1.3c2,2.23,4,4.54,6,6.84,6,8.42,7.27,10.87,9.22,13.46.94,1.51,1.87,3,2.88,4.61.07.36.14.72.22,1.15-.58.5-.58.5-.79.36ZM85.82,117.58c-1.73-.14-3.46-.36-5.26-.58a9,9,0,0,1,.29-1.15c1.08-1,2.16-2.09,3.24-3.17,1-.58,2.09-1.15,3.17-1.8l1.94-.22c.72.43.72.43,3.6,4.39,0,.79,0,1.58.07,2.45-2.3,0-4.68,0-7.06.07Zm12.24,0c-.36-.79-.36-.79-.86-5.83-.36-1.15-.79-2.38-1.22-3.6a8,8,0,0,1,.14-1.22c1.15-.58,2.38-1.15,3.6-1.8,1.87-.65,3.82-1.3,5.76-1.94,5-1.22,10.08-2.52,15.12-3.82,6.77-.94,7.2-1.22,9.65-1.66h2.16c.72.43.72.43,7.42,9.36,1.3,2.45,2.59,4.9,4,7.34v1.44c-.86.22-1.8.5-2.74.79-23.76.72-23.76.72-43,.94ZM153,117c-2.74-6-3.24-6.48-4.68-10.3a4.43,4.43,0,0,0-.07-.94l17.71-.43c5.47-.36,11-.72,16.56-1.15H192.6a4.41,4.41,0,0,1,.86.36c.94,2.16,1.87,3.6,4.32,9.86a3.71,3.71,0,0,1-.14.79l-34.27,1.94c-6.77-.29-9.14,0-10.37-.14Zm252-2.3c-5.9-.22-11.81-.43-17.71-.72H360.86c-3,.14-6,.29-9.14.5-21.6-1.66-21.6-1.66-22.54-1.94-2.81-6.55-2.81-6.55-8.06-20.45a5.65,5.65,0,0,1,.14-1c1.87,0,3.82-.07,5.76-.14,9.79,1,19.66,2.09,29.52,3.17l12.24.22a52.93,52.93,0,0,1,7.2-.72c1.22.22,1.22.22,20.88-.22,4.68,8.28,4.68,8.28,5.11,9.72,1.51,3.38,3,6.84,4.61,10.3a5.56,5.56,0,0,1-.14,1.08l-1.44.22Zm-359-.22c-10.37-.94-10.37-.94-11.59-1.3-.94-5-1.94-9.94-3-14.9-3.89-13.18-3.89-13.18-4-14.4,1.8,0,3.67-.07,5.54-.14,9.79.94,19.66,1.87,29.52,2.88,2.74.43,5.54.94,8.35,1.44,4.1,5.18,4.1,5.18,5.9,8.06.94,5.76.94,5.76,1.66,13.25-.14.22-.29.43-.5.72-.14.94-.29,1.87-.43,2.88-.14.22-.29.43-.5.72a7.82,7.82,0,0,1-1.3-.07c-.65-.86-1.3-1.8-1.94-2.74l-1.66-1.44c-1.73-.29-3.46-.58-5.26-.94l-12,.22c-.72.29-1.44.58-2.16.94-.29.36-.58.72-.86,1.15l-1.3,3.67Zm157.39-.14-.86-2.59a40.34,40.34,0,0,1-3.31-6.26,5.56,5.56,0,0,1,.14-1.08c9.72-.14,19.44-.29,29.23-.5.36.43.72.86,1.08,1.37.65,1.58,1.3,3.17,1.94,4.82.22,1,.43,2,.72,3.1-3.74.36-15.48.36-22.9.79-4.1.5-4.1.5-6,.36ZM63.29,114a5.1,5.1,0,0,1-1-.07c.22-.94.43-1.87.72-2.81h2.88c.29.43.65.94,1,1.44a3.5,3.5,0,0,0,.07.86c-1.22.14-2.45.36-3.67.58Zm178.56-.43c-.79-.14-1.58-.29-2.45-.5-1-2.38-2-4.82-3-7.27a9.84,9.84,0,0,1,.14-1.37c3.89-.22,3.89-.22,15.84,0,3.24-.14,6.55-.29,9.86-.5,3.82.22,7.63.43,11.52.72.5.14,1.08.29,1.66.5.72,1.44,1.51,3,2.3,4.46l.22,2.16-.36.36c-5.4.36-10.8.72-16.27,1.15-4.82-.22-4.82-.22-19.44.29Zm78.19-.72c-12-.5-12-.5-31.18-.86l-.86-2.59c-1.94-3.38-1.94-3.38-2.38-4.82a3.62,3.62,0,0,1,.14-.86c9.58,0,10.3-.22,14.62,0,1.66.86,3.31,1.73,5,2.66a11.52,11.52,0,0,0,3.38-.72l1.15-1.37a14.06,14.06,0,0,1,.14-1.66,96.89,96.89,0,0,0-6.77-9.36,16.19,16.19,0,0,1-1.73-.58c-.72.43-.72.43-2.16,2.16-3.6.43-4.32.72-8.93,1.15-7.92-.72-7.92-.72-9.79-1.15-1.22-1.22-5-7.13-6.91-9.22a7.4,7.4,0,0,0-.07-1.22c1.94-.14,4.1.07,15.12-.14,8.42.5,15.62,1.44,20.38,1.66a8.88,8.88,0,0,1,2.88,1l1.94,3.24c2,5.11,4,10.22,6.12,15.34.72,2.38,1.44,4.75,2.16,7.2-.72,0-1.51.07-2.3.14Zm-226.3-.72-1.94-1.94a5.56,5.56,0,0,0-.14-1.08,1.91,1.91,0,0,0,.43-.36,7.18,7.18,0,0,1,1.15.14,6.67,6.67,0,0,1,1.08,3.1c-.36.29-.36.29-.58.14Zm-10.08-4c-1.8-14.9-1.8-14.9-2.09-15.12-.43-1.44-1.44-2.88-1.73-4.1.5.07,1.08.22,1.66.36.36.65.79,2.81,2.74,7.13,2.38,7.2,2.38,7.2,2.88,7.92.07.5.14,1.08.22,1.66-.94.72-1.94,1.44-3,2.23a2.7,2.7,0,0,1-.72-.07ZM91.58,103a40.71,40.71,0,0,1-3.74-5.83C86.9,95,86,92.81,85,90.65a9.84,9.84,0,0,1,.14-1.37c.72-.22.72-.22,17.28.22.29-.22.58-.43.94-.72,10.37.29,10.37.29,13.68.72l1.58,1.58c-.07.94-.14,1.87-.29,2.88-.14.14-.36.29-.58.5a7.18,7.18,0,0,1-1.15-.14c-2.38.94-4.75,1.87-7.2,2.88-.79.14-1.58.29-2.45.5-2.3.94-4.61,1.87-6.91,2.88l-1.73.22c-.79.36-1.58.79-2.38,1.22-1.44.29-2.88.58-4.32.94Zm69.34-4.54c-4.54-.29-4.54-.29-16.56-.29l-3-3.67c0-.72,0-.72.43-1.08,2.38-.58,4.75-1.15,7.2-1.73,4.18-.58,8.42-1.22,12.67-1.87,10.58-1,10.58-1,16.56-1.22,1.08.14,2.23.29,3.38.5.72.58,1.44,1.22,2.16,1.87,1.58,1.94,3.17,3.89,4.82,5.9a5.1,5.1,0,0,0,.07,1c-4.9,0-9.79,0-14.76.07a128.66,128.66,0,0,1-13,.5Zm34.34-.72c-2.16-3-4-6.12-5-7.34a12.71,12.71,0,0,0-.29-1.44c13.39-.86,13.39-.86,27.58-1.3,2.16,2.66,4.32,5.33,6.55,8.06a5.1,5.1,0,0,1-.07,1c-10.58,0-10.58,0-12.46.29-5.4.22-10.87.43-16.34.72Zm73.94,0c-2.74-.14-5.47-.29-8.21-.5L231.77,97c-3.74-5.4-4.25-6.62-5.69-8.5a7.41,7.41,0,0,0-.07-1.22c9.58-.14,25.42.07,36.72-.14l2.38.22c.72.79,1.44,1.66,2.16,2.52,1.22,2.09,2.52,4.18,3.82,6.26a10.82,10.82,0,0,0,.14,1.44c-.65,0-1.3.07-2,.14Zm-146.45-6a12.54,12.54,0,0,1-.86-1c0-1.44,0-1.44.43-2.09,2.16-.22,2.16-.22,8.64-.22.22.5.5,1,.79,1.58-.07.22-.14.43-.22.72-1.37.22-2.74.5-4.18.79l-4.61.22Zm-17.5-7.2C91.58,84,91.58,84,90.14,83.74a1.57,1.57,0,0,1-.22-.36,1.91,1.91,0,0,0,.43-.36c10.08-.22,10.08-.22,17.78-.72,2.45,0,4.9.07,7.42.14a5.65,5.65,0,0,1-.14,1c-.58.29-.58.29-4.61.79l-5.54.22Zm19.66-.72c-.86-.07-1.8-.14-2.74-.29a3.61,3.61,0,0,1,.14-.86c2.38-.29,17-.5,21.6-.29a1,1,0,0,1,.22.29,6.32,6.32,0,0,1-.72.43c-13.18.72-13.18.72-18.5.72Zm249.41-.58a4.93,4.93,0,0,1-.43-2.59,14.74,14.74,0,0,1,.36-1.73,5.65,5.65,0,0,0,1-.14c.22.58.5,1.22.79,1.87a5.07,5.07,0,0,1-.72,2.59Zm-189.86-.58c-1.94-1-1.94-1-2.3-1.58V79.34c1.73-1.37,3.46-2.81,5.18-4.25l6.48-.22c3.53.29,7.06.58,10.58.94a3.13,3.13,0,0,1,.43.5h3.38c17.28,1.94,31.68,3.1,32.4,3.38,4,.22,8,.43,12,.72.72.14,1.44.36,2.16.58-.07.07-.14.22-.29.36-6.62-.14-13.25-.29-19.87-.5-1.44.29-30.24,1.22-35.28,1.73Zm159.34-.5a4.41,4.41,0,0,1-.86-.36,12.72,12.72,0,0,0-.29-1.44,14,14,0,0,1,1.44.36c.43.36.94.72,1.44,1.08-.29.36-.29.36-1.73.36Zm-30-1.22-9.14-.22c-6.48-.72-11.3-.94-12.24-1.22-8.28-.43-16.63-.94-25-1.44-6.7-.94-8.64-.94-18.94-2.23a13.31,13.31,0,0,1,.07-1.66c.65-1.51,1.3-3,1.94-4.61,3.82-6.7,3.82-6.7,5.76-9.36l3.6-4a9.84,9.84,0,0,0,1.37-.14c2.59.58,5.26,1.22,7.92,1.87,4,1.3,7.92,2.59,12,3.89,10.37,2.38,10.37,2.38,13.25,3.31L303,68.9c2.88,1.87,3.82,2.88,6,4.32,1.44.58,2.88,1.22,4.32,1.87.65.58,1.3,1.22,2,1.87,1.8.29,1.8.29,2.52.79a3.61,3.61,0,0,0,.14.86c-.43.65-.86,1.3-1.3,2l-2.88.22Zm47-.07v-3.1a4.43,4.43,0,0,1,.94.07,2.92,2.92,0,0,0,.36.65c-.22,1.44-.22,1.44-.72,2.16a5,5,0,0,1-.58.22ZM233.21,74.66a14.74,14.74,0,0,1-1.73-.36,5,5,0,0,0-.14-.94c3.89-5,11.52-16.34,14.83-20.81l2.88.22c1.15.29,2.38.65,3.6,1a5.45,5.45,0,0,0,.07,1.08c-3.82,5.76-5.26,8.42-7.2,11-1.73,2.88-3.46,5.76-5.26,8.64-2.3,0-4.68.07-7.06.14Zm-11.09-1.22c-13.9-1.66-17.5-2.38-27.36-3.46a11.11,11.11,0,0,1,.36-1.22c4.82-4.32,5.26-5,9.86-8.86a57.71,57.71,0,0,0,5.76-6.7l2.59-1.94c.5-.72,1-1.51,1.58-2.3l2.45-.22c4.32.29,8.64.58,13,.94a57.12,57.12,0,0,1,8.14,1.58,17.54,17.54,0,0,0,.07,1.94c-1.22,2.16-2.52,4.32-3.82,6.48-3.17,4.54-6.34,9.07-9.58,13.68-1,0-2,0-3,.07ZM397.58,71.5l-7.92-1.3a7.18,7.18,0,0,0-.14-1.15c.65-2.45,1.3-5,1.94-7.49.65-1.58,1.3-3.17,2-4.82,4-.58,8-1.22,12-1.87-.36,2.38-.86,3.38-4.1,16.42l-3.82.22Zm-47.74-.72a7.94,7.94,0,0,0-.14-1.3c1.8-3.89,3.6-7.78,5.47-11.74.5-.65,1-1.3,1.58-1.94,1.08-.29,2.23-.58,3.38-.86,2,0,4,.07,6.12.14,0,1,0,1-3.89,13-.29.72-.58,1.44-.94,2.16-3.82.14-7.7.36-11.59.58Zm28.3-.22c-2.45-.07-5-.22-7.49-.36,0-.72.07-1.44.14-2.16,1.22-4.18,2.52-8.42,3.82-12.67,1.73-4.54,3.53-9.07,5.33-13.68.29-1.15.58-2.38.94-3.6.94-1.44.94-1.44,2.3-5,8.86-.5,8.86-.5,12.31-.36-.22.94-.43,1.87-.72,2.88C391,45.29,387.14,55,383.26,64.73c-.86,1.87-1.8,3.74-2.74,5.62l-2.38.22Zm-56.38-1.44c-1.94-.5-6-.94-10.37-1.94-4.75-.43-5.47-.72-7.42-.72-4-1.58-8.14-3.17-12.24-4.75-4-.94-8-1.87-12-2.88-2.38-1-6-1.94-12.1-4.18.07-3.67.14-7.34.22-11.09.29-2.16.58-4.32.94-6.48,1-3.6,1-3.6,1.44-4.32.65-.36.65-.36,7.85-1.08,23.76.22,34.34,0,38.38.22,1.87.36,3.82.72,5.76,1.15,1.3,33.55,1.3,33.55,1.08,36a10.63,10.63,0,0,0-1.51.07Zm21.1-1.44c-.86-2.74-.86-2.74-1.8-4.18-1.15-.58-2.3-1.15-3.46-1.8-.43-.43-.86-.86-1.37-1.3-.5-1.73-.5-1.73-.94-7.2.43-16.13.43-16.13.86-19.94.5-.07,1.08-.22,1.66-.36,7.56,0,15.12.07,22.75.14.14.72.14.72-.36,2.16-.43.43-1.44,3.1-3.31,6.48-2.52,5.4-5.11,10.8-7.7,16.27-5.76,9.65-5.76,9.65-6.12,9.86-.07,0-.14-.07-.22-.14Zm-86.4-15.62c-1.58-.29-3.17-.65-4.82-1l2.16-6a3.17,3.17,0,0,0,.72-.14l1.22,1.44c.58,1.37,1.15,2.81,1.8,4.25a10.74,10.74,0,0,1-.14,1.51Zm108-4.39a13.3,13.3,0,0,1,.07-1.66c1.94-4.32,2.88-7.49,3.53-8.64a11,11,0,0,1,4.1-.43c.22.36.22.36-2.09,8.78-.94,1.22-.94,1.22-1.51,1.58-1.37.07-2.74.22-4.1.36Zm35.78-.36a7.93,7.93,0,0,0-.14-1.3c.72-1.94,1.15-5,1.66-6.26,2.23-.36,4.54-.79,6.84-1.22-.14,1.66-.36,3.31-.58,5-.29,1-.65,2.09-1,3.17a10.21,10.21,0,0,0-1.3.58ZM238.46,43.42c-.07-.07-.22-.14-.36-.29-.07-2.45-.14-5-.29-7.49.14-4.39.29-8.78.5-13.18a9.84,9.84,0,0,0,1.37-.14c3.82,1.94,3.82,1.94,5.47,2.38.5.65.5.65.86,2.81-.72,9.86-.72,9.86-1.44,14.18-.36.36-.72.72-1.08,1.15-1.66.14-3.31.36-5,.58ZM230,43.34c.07-1.51.14-3.1.29-4.68a2.7,2.7,0,0,1,.72.07c.07,3.17.07,3.17-.29,4.46a3.17,3.17,0,0,0-.72.14Zm-6.48-8.86c.14-1.87.36-3.82.58-5.76.43-.43.43-.43,1.87-.72a17.72,17.72,0,0,1-.14,1.87c-.43,1.44-.94,2.88-1.44,4.32a4.06,4.06,0,0,0-.86.29Zm183.6-5.9c-.86-.07-1.8-.22-2.74-.36.22-1.22.22-1.22.72-1.66.43-.94.94-1.87,1.44-2.88.29-1,.58-2.09.86-3.17.86.07,1.8.14,2.74.29v5c-.14.58-.29,1.22-.5,1.87l-1.3.86Zm-13-20.16c-.72-.29-.72-.29-13.9-1.22a7.93,7.93,0,0,0-.14-1.3,11.54,11.54,0,0,1,3-1.8,37.41,37.41,0,0,1,7.2-1.44l5.26.43c1.51.29,3,.65,4.61,1a21.39,21.39,0,0,1,3.82,3.1,5.37,5.37,0,0,0,.5.86c-.07.07-.14.22-.29.36Z"/></g></g></svg>