<svg xmlns="http://www.w3.org/2000/svg" viewBox="0 0 301.06 215.2"><defs><style>.cls-1{fill:#231f20;fill-rule:evenodd;}</style></defs><title>sund37</title><g id="Layer_2" data-name="Layer 2"><g id="Layer_1-2" data-name="Layer 1"><path class="cls-1" d="M48.74,215c8.35-4.18,30-4.46,34.78-14-14.18-2.81-30.31-19-37.73-29.66-2-1.3-7.34-9.22-7.34-10.8-1.51-1.22-1.44-2.45-1.73-3.6-1.08-.36-.94-.65-1.08-.86,6-6,14.69-9.65,14.69-19.87-9.07,0-17.35,4.9-25.49,7.56-8.21,1.08-16.27,5.62-24.48,7.56A1.57,1.57,0,0,1,0,151.1v-.58c1.94,1.94,18.72-7.13,24.26-7.49,8.57-2.45,16.63-7.78,26.28-7.78a6.74,6.74,0,0,0,.86-4c1.3-.5,2.59-1,4-1.51.5-1.08,1.51-.72,2.88-.72,1.94-3.82,5-9.58,5-13.61,1.3-1,1.3-2.09,2.23-3.24,7.34-5.9,13.32-11.23,22-14.62,0-4.82,16.92-29.3,21.89-34.85a31.88,31.88,0,0,0,4.54-3.82c0-18.86-23-38.66-35.06-50.18a1.68,1.68,0,0,1,.07-1.51c13,8.42,33.26,33,38.45,48.6l.36.36c8.28-5.9,15.34-14.11,24.84-7.78,5.26,0,9.5-5,16.56-5.54,20.74-10.58,41.4-21.24,63.72-30a66.34,66.34,0,0,1,10.08-3.6c4-4,22.39-6.12,28.44-7.13,1.51-.72,3.89-.14,5.62-1.3a3.51,3.51,0,0,0,.5.22A120.8,120.8,0,0,1,298,.91a1.16,1.16,0,0,0-.5.29c3.38,4.75,5.11,13.32,1.73,19,.36,4.32.72,8.71,1.08,13.1a5.46,5.46,0,0,0-1.15,4.32,1.51,1.51,0,0,0-.43.29,1.58,1.58,0,0,1,.22.36c-.14.14-.5.22-.22.5-1.08,1.94-2.66,3.67-3.6,6.19l-.65.22a1.58,1.58,0,0,0,.36.22c-.43.72-4.1,6.26-4.9,5.9v.36a.26.26,0,0,1,.22.07,2.58,2.58,0,0,0-.79.29,1.4,1.4,0,0,0,.07.5.56.56,0,0,1,.29-.29c0,.07.07.14.14.29-.58.58-.72.72-.86,1.3-2.16-.72-3.89,3.53-3.89,5.18-.22-.14-.36-.29-.5-.36a1.2,1.2,0,0,0-.22,1.8,1,1,0,0,1,.22-.29l-.22.65a3.61,3.61,0,0,0-.86-.14c-1,2-12,17.14-13.68,17.64l-.22.86c-1.15.36-1.15,1.66-2.23,1.87a.26.26,0,0,0,.07.22,1,1,0,0,0-.43.14v.5c-.79,0-.72.14-1,.65l.29.29a1.41,1.41,0,0,0-.5-.07c-10.51,12.17-23.18,20.74-34.42,31.61v.43C220.25,126,204.19,134.32,193,145.55c0,0-37.22,27-37.87,26.71a1.29,1.29,0,0,1,.36-.5c-.94,0-23.47,15.55-25.56,17.14a14.65,14.65,0,0,0-7.49,1.87,3.65,3.65,0,0,0-.14.94c-4.18,1.08-9.86,1.8-13.18,3.67,0-3.1-30,10.44-31,10.87-3.1,4.1-24.26,10-29.38,8.78Zm32.9-14.76c-1-.22-1-.22-1.37-.5.79.07,1.66.22,2.52.36a5.59,5.59,0,0,0-1.15.14Zm2.74-1.08c-1-.29-1.94-.58-2.88-.86.72-.29,1.44-.5,2.16-.72a2.23,2.23,0,0,0,.14.58,2.22,2.22,0,0,1,.58.14,4.16,4.16,0,0,1,.36-1c9.36-1.51,21-4.61,26.42-13.46,1.15-.86,2.3-1.73,3.46-2.52a3.17,3.17,0,0,0-.72-.14,1.13,1.13,0,0,1,.65-1c.58-2.52,5.26-9.79,6.62-10.44,0-4.82,22.54-23.83,28.37-26.14,7.56-4.75,14.9-11.3,22.9-15,1.37-1.08,7.42-3.89,8.28-5.62,4.32,0,14.9-10.15,18.14-12.89a4.13,4.13,0,0,1,.5.29c11.45-9.14,24.48-17.5,37.08-25.34C242.14,81,273.1,60,273.89,60.38c-5.9,6.34-15,12.46-22.18,17.71-8.28,4.1-16.27,12.1-24.26,16.92-21.82,15.7-44.71,28.44-65.52,45.5-4.18,2.09-25.92,20.59-27.36,23.54-7.2,3.6-13.18,17.35-20.52,22.61-1.22,2.09-3,3.53-3.67,6.26a78.41,78.41,0,0,1-26,6.26Zm-7.2-2.74c-11.38-3.74-35.14-26.57-37.51-37.3-2.52-5,5.83-10.44,9.43-13,10.3,9.36,18.86,21.53,30,31.25,4.61,3.1,10.15,6.77,15.62,10,1.08.43,5.18,1.44,6.48,2.74-1.58,2.09-15.34,4.54-16.06,4.54l-.22-.43c-2.66.94-5.26,2.16-7.7,2.16Zm36.72-4.25c2.66-6.7,14.33-18.22,19.58-24,8.42-7.56,18.22-15.48,26.06-23.33,9.07-5.18,18.14-15.19,28.08-18.86.36-.79,3.53-2,4.18-2.38,0-1.58,35.14-25.06,39.46-29.38,9.58-5.11,18.43-13.46,27.72-19.44.72-1.44,20-15.55,23.62-16.27C276.91,70,260,87.45,249.62,95.95a3.51,3.51,0,0,1,.22.5c-.5.79-3.82,4.25-4.61,4-1.08,2.74-9.07,7.42-12.38,9.72-3.82,3.24-51.48,38.09-55.8,37.37-12.24,11-29.52,17.86-41,29.3-5.69,3.67-16.56,14.26-22.18,15.34Zm-11.3-3.1c-1.51-.58-1.15-1-1.37-1.51a12.4,12.4,0,0,0-1.51-.5c-4.61-2.66-9.14-5.33-13.68-7.92a.37.37,0,0,1,.14-.29c-2.81-2.81-7.49-4.68-10.08-7.92-5.4-2.66-24.91-25.78-24.91-27.5a1.57,1.57,0,0,1,.58-.36c-.29-.07-.5-.14-.72-.22-.36.36-.43.29-.58.22.07-.79.14-1.58.29-2.38a1,1,0,0,1,.5-.14,1.83,1.83,0,0,0-.5-.14c.43-1.8.86-3.53,1.37-5.26a1.4,1.4,0,0,1,.58-.07c8.28,16.63,18.72,26.71,34.2,37.15,5.18,5.18,14.62,9.29,22.9,9.86,0,2.3-5.69,5-6.62,6.91a1.4,1.4,0,0,0-.58.07Zm7.92-9.36a92.58,92.58,0,0,1-16.34-5.54,3.51,3.51,0,0,1-.07-.86c-7.34-3.67-15.91-6.84-20.38-13.54-8.35-6.84-17.06-19.3-20.52-28,1.08-.36,2.16-.72,3.31-1.08-1,6.12,5,3.1,8.64,3.1,2.81,7.13,27.43,29.16,37.73,33a12.82,12.82,0,0,0,5.4,2.88c0,4.1-4.32,5.83,2.38,9.43,0,.72,0,.72-.14.65Zm1.8-.07a2.13,2.13,0,0,1,.14-.72c.07,0,.14.07.29.14a1,1,0,0,0-.14.5c-.14,0-.22,0-.29.07Zm-2.88-2.59c-2.09-2.09-1.15-7.06,1.37-7.06.29.29.86.43,2,.58a1,1,0,0,1,.22.29,8,8,0,0,1,1.22.14c5-13.9,23.26-29.38,36.36-33.7a1.22,1.22,0,0,1-.14-.36,1.07,1.07,0,0,1,.5-.07v.29l.22-.43a1.07,1.07,0,0,1,.5-.07c-.14-.14-.29-.22-.36-.29,4.75-.43,16.06-10.8,18.94-15.12a7.4,7.4,0,0,1,1,.29c2.88-2.88,13.75-10.44,17.64-11.74-.65,2.74-1.94,5.9-2.74,8.57-8.78,3.74-17.5,11.52-26,15.77-14.26,10.66-28.73,17.06-39,33.41a80.77,80.77,0,0,0-6.48,8.93c-1.8.14-3.6.36-5.33.58Zm-15.91-3c-.86-.5-1.66-1-2.45-1.44.86.22,1.73.5,2.66.79-.07.72-.07.72-.22.65Zm18.22-5.26a1.59,1.59,0,0,1-.43-1.08,4,4,0,0,1,.58-.43c.29.36.29.36,1.15.72-.07.07-.07.14-.07.29h-.5c-.14.14-.58.65-.72.5Zm-3.1-.65C100.51,163.05,93.82,160,86.33,154c-6.91-6.91-13.75-13.68-18.86-21.17a1.36,1.36,0,0,0-.58.14c-.94-1.44,1.94-10.37,2-10.37,4.46,2.23,10.37,11.45,17,15.26.36.65,1.8.65,2.52,2.16a1.51,1.51,0,0,1,.43-.29c7.78,5.4,17.5,9.36,26.5,14.33-2.23,4.68-4.46,9.43-6.7,14.18Zm4.54-.5c-3.53-1.15-.79-4.54.79-5.76a5.1,5.1,0,0,1-.07-1,.55.55,0,0,0-.36.14,1.79,1.79,0,0,1-.07-.58.72.72,0,0,1,.36-.29,1.5,1.5,0,0,1,.43.29c.36-2.38,3.17-4.9,4.68-6.41a1,1,0,0,0-.22-.29c1-1.37.94-1.73,3-2.09a.26.26,0,0,1-.07-.22H123c.5-2.16,2.23-1.44,4-2.88,1.22.43-.14,2.09-.79,2.59,0,1.8-11.66,16.49-13.1,16.49Zm1.8-15.55c-1.94-1.94-9.36-4.32-11.88-6.26-11-5-34.7-18.79-36.14-30.31a1.4,1.4,0,0,0-.58.07c-3.53-3.53,22.82-16.85,22.82-18.29-1.87-1.87,13.1-21.17,12.82-21.82a17.52,17.52,0,0,0-1.44,1.8c0-.58,8.28-13.9,10.66-13.9,0,.07.07.14.14.22-6.55,10.94-15.91,22.18-20.59,34.42-2.16,3-17.14,13.46-21.67,14.54,0,4.18,5,8.21,5,10.87,5.9,4,38.88,33.55,45.43,22.61a2,2,0,0,1,.65.07,1.51,1.51,0,0,1-.29-.43c3.74-4.68,17.93-19.15,23.4-19.15.72,1.44-2.66,6.34-3.17,8.93-.29.29-.29.07-.5.72a1.07,1.07,0,0,0-.5.07,1.83,1.83,0,0,1,.5.14,5,5,0,0,0,.29.72,1.4,1.4,0,0,0-.58.07,1.07,1.07,0,0,1,.07-.5c-.14-.07-.22-.14-.29-.14a.78.78,0,0,0,.07.36.37.37,0,0,0-.29.14,10.26,10.26,0,0,0,.36,1.15,1,1,0,0,0-.22.29c-.07-.07-.14-.14-.22-.14v.72c-1.66.79-3.67,3.38-5.47,3.38.36.86-11.45,6.62-13,8.14a6.34,6.34,0,0,0-.43-.72c-.22.94-.86.79-1.51.86,0,1.3-3.17,1.37-3.46,1.37Zm19.58-1.8c-1.8-1.8-.79-2.59.94-2.88.86.86,1,1.58,0,2.88Zm-6.48-1.58c-.22-.36-.43-.72-.65-1,.29-.58.79-.72,1.66.14a3,3,0,0,0-.5.79,1.07,1.07,0,0,0-.5.07Zm-14.69-1.22c-9-3.74-16-11.74-24.84-14.83-2.38-1.87-7.7-5.11-7.7-7.06,7.34-.65,7.34-.65,7.85-.86,9.07,0,21.89,11.81,29.3,18.14,0,1.37-2.66,3.31-3.6,4.61Zm5.76-6c-5.18-6-22.9-19.22-29.59-18.5-3.38-.36-6.41.79-9.29.14v-.5a36.37,36.37,0,0,1,7-3c10.8,7.2,30.24,1.15,31.68-13.18h.58c.72,1.37.86,2.09,1.51,1.8a.91.91,0,0,1,.07-.43c3.82-.43,17.42-11.3,18-11,.36,2.23.79,4.46,1.22,6.7-13.9,9.22-12.6,13.9,1.51,21.6a.91.91,0,0,0,.07.43c-7.34,5.4-14.76,8.71-21.74,15.7-.36.07-.72.14-1,.22Zm21.53-1.73a1.57,1.57,0,0,1-.36-.22V139c1.22-1.22.79-3.67,2.16-5,0-4,9.86-25.49,12.89-27.94,0-1.3,11.16-20,11.23-19.94a14.43,14.43,0,0,0,.29,1.73c.36,0,.07-2.3,0-3.38,2.09-2.09-2.3-8.14-2.88-9.14-5.76-1.87-11.23-6.84-15.7-9.43a1.41,1.41,0,0,1-.07-.5c2.16-.86,5.47-2.45,8.14-3,.94.94,4.61,2.81,6.48,4a6.85,6.85,0,0,0,.36,3h.86c.14-.29.14-1.51.36-1.8,2.3,0,12.17,4.18,11.52,7.7a3.61,3.61,0,0,0-.86.14l.86.22c-.07.07-.14.14-.14.22a5.37,5.37,0,0,1,.86.5c0,2.3-1.66,8.21-2.38,10.94,1.87,6.26-4.39,14.76-3.31,20.45a1.22,1.22,0,0,0-.36-.14.91.91,0,0,0-.07.43,2.22,2.22,0,0,1,.72-.07,7.38,7.38,0,0,1-.29-1,2.13,2.13,0,0,1,.72-.14v.5H172v-1.08c8.71-5.26,17-10,25.42-16.27,3.6-1.37,5.54-4.25,8.5-5.69a1.91,1.91,0,0,1-.36-.43,22.93,22.93,0,0,1,2.3-1.15,1.91,1.91,0,0,1-.36-.43c.43-.22.29-.29,1.22-.29a1.58,1.58,0,0,1,.22.36,11.31,11.31,0,0,1,3.38-.65c.43-.43,10-4,12.1-4.18.43-.86,2.81-1.94,4.32-1.94.36-.36.22-.5.94-.29-.07.07-.5.14-.22.72a.72.72,0,0,1,.29-.36c.07.07.22.14.36.29a6,6,0,0,1,1.08-.29c.07.22.14.43.22.72C228.67,81,221,83,216.65,87.38c-15.62,10.37-30.31,23.69-46.37,32.83l-.43-.22c-.14.14-.58.58-.86.43a1,1,0,0,0-.22.29,1.07,1.07,0,0,0-.5.07,3.72,3.72,0,0,0,.14.79H168l.22.22c-.29.22-1.15.58-.72,1-7.06,7.49-17.57,10.94-26.06,16.85-.29.07-.58.14-.79.22Zm-81.14-6.34a6.65,6.65,0,0,0-.58-.36v-1.73c2.38-1.58,4.39-13.25,7.06-13.25,3,3.82.58,4-.65,8.5a1,1,0,0,0-.29.22,5,5,0,0,0,.14.94c-2.74,4.18,1.15,5-5.69,5.69Zm84.74-8.28c-.72-.43-1.44-.86-2.09-1.22a1.68,1.68,0,0,1,.5-.5c-2.81-.36-9.36-6.12-11.38-7.92.22-3.38,7-11.09,10.44-11.09,14.26,7.92,6.48,8.28,2.81,20.59a.37.37,0,0,0-.29.14Zm-5.76-2.52c-.43-.43-.86-.79-1.22-1.15.29,0,.79.22,1.58,1a.55.55,0,0,0-.36.14ZM77,121.94c-1.3-1-2.23-2.3-1.94-2.88-1.22-1.8-2.88-3.82-3.46-5.33,2.52-3.74,19.51-11.81,19.8-14,2.52-1.15,5-2.23,7.56-3.31,0-.43,8.28-5.76,10.22-5.33a10.46,10.46,0,0,1,.58,4c-6.12,2.74-21,8.21-23.47,14a2.25,2.25,0,0,0-.72.36v2H85.1c-.5.5-.22.22-.43.86a7.83,7.83,0,0,1,1.3.07c0,.86,1,3.67,1.08,6-3.38,1.15-6.77,2.3-10.08,3.53Zm111.31-5.33c-.58-3,6.62-11.16,8.78-10.08a.78.78,0,0,0,.07.36c.79-.5.79-.5,1.37-.58,1.51,4.68-8.42,10.3-10.22,10.3Zm-89.5-2.16c-3,0-7,.14-8.42-2,8.78,0,12.74-.86,19.94-6.26,2.3-.29,5.18-3.24,7.06-3.24a10.14,10.14,0,0,0,.07,1.44c-6.48,3-11.09,9.36-18.65,10.08Zm-4.18-3c-2.45-1.22-5.4.07-6-1.66a8,8,0,0,0-1.22-.14c0-4.32,19.15-12.53,23.4-13,.43.43,4.9,3.38,6.34,3.74a2,2,0,0,0,.07.65c-3.89,3.89-17,10.37-22.61,10.37Zm56-1.08a9.35,9.35,0,0,0-3.82-3.31v-.72c-4.61-1.15-10.58-10.15-4.46-10.15,2.09,2.59,8.42,6.84,11.66,9.29-1,1.58-2,3.24-3,4.9Zm40.1-.79c0-.86.72-1.94,1.37-1.94a5.1,5.1,0,0,0,.07,1,9.88,9.88,0,0,0-1.44.94Zm9.94-2.23c0-.94.07-1.87.14-2.81,2.74-1.94,5.47-3.89,8.21-5.76,0-.43,9.14-7.63,10.51-7.2,0,6.34-15.12,14.54-18.86,15.77ZM193.1,107a25,25,0,0,1,5.69-4.61c0,2.88-3.38,2.88-5.62,4.82a.26.26,0,0,1-.07-.22Zm-71.28-.36c-1,0-1.37-11.23-1.37-12.53,2.38-.94,14.76-9.65,15-9.5-.07.07-.14.14-.14.22.5,0,.36-.5.5-.72,1.15,0,2.81-1.44,4.25-2,0-1.15.79-1.22,1.37-1.73l.65.22a51.16,51.16,0,0,1,1.94,6.48c-4,2.3.29,6.41-5.54,8.06-.36.22-12.74,10-13,10.87a16.35,16.35,0,0,1-3.74.65Zm-2.38-1.58c0-9.29-8.28-4.82-8.28-13.82,1.58.79,6.41,2.23,7.92,4.1-.65,1.15.65,6.91.65,9.58a.37.37,0,0,0-.29.14ZM154.08,104c-3.17-3.17-10.94-6.62-11.59-10,3.1-1.87,4.25,3.89,8.71,4.75,1,2,3.24,1.87,4.68,3.31-.5.86-.94,1.66-1.8,1.94Zm19.73-1.08c0-3.38,2.09-7.2,2.3-10.22,1.15-.72,2.45-2.3,4.18-2,0,5.47.58,10.87-6.48,12.24Zm27.22-.86a9.18,9.18,0,0,1,.07-1.44c1.66-1,18.43-12.46,18.65-12.38a7.41,7.41,0,0,0,.07,1.22c-2.66,2.16-18,13.1-18.79,12.6Zm-45.14-.5c-.79-4-3.89-1.51-2-6.19,1.94,0,2.52.5,4.82,2-.5.79-2,3.82-2.81,4.18ZM92.81,97.31c-1.44-3,18-30.89,21.89-36.14,2-1.44,6.77-5.4,9.65-4.46,0,.86-1.8,5.9-2.74,6.48,0,2.81-1,9.79.58,12.38.5,0,1.22.5,1.66.5,0-2.59,4.9-4.75,7.13-5.76,0-1,5.62-3.1,5.11-4.1a13.65,13.65,0,0,1,3.6-3.1c.86.58,1.8,1.22,2.74,1.87v.72c-8.42,6-17.28,11.59-25.7,17.78-5,5-17.93,12.17-23.9,13.82ZM182.52,97a36.58,36.58,0,0,1,.58-5.33c4.32,0,4.18,5.33-.58,5.33Zm2.16.07c0-1.15.94-1.37,1.66-1.8.07.14.22.29.36.5-.72.43-1.37.86-2,1.3Zm-25.92-.94C157,93.57,155.3,93,153.5,93c-1.22-1.22-2.16-2.16-2.38-3,6.41-2.74,15.55-4.61,8.06,6.12a.37.37,0,0,0-.29.14c-.07-.07-.14-.14-.14-.22ZM150.62,96c-3-1-6.7-4.46-7.06-6.7,1.8-1.8,6.84,2.45,8.28,4.61a17.22,17.22,0,0,0-.94,2c-.14,0-.22,0-.29.07ZM189,94.07l-.22-.65c-.86,0-5.69-5.33-5.62-5.4a6.63,6.63,0,0,1-.36-.58,44.72,44.72,0,0,1,5.54-3.89c2.23,1.08,2.59,4.61,7.27,5.26,4-5-9.72-7.06.5-10.44,0-.65.07-.29.72-.5-.07-.14-.14-.22-.14-.29,2.88-1.73,6.19,1.58,9.14,3.82-.79,1.22-15.62,12.67-16.85,12.67Zm-69.55-.65c-.29-.65-7.42-3-8.06-3.67,1.87-2.59,8.14-8,11.16-8.57a2.1,2.1,0,0,1,.14-.65c.43-.22.86-.94,1.44-.65a1,1,0,0,0-.29.22,1.41,1.41,0,0,1,.5.07c.29-.58.5-.58,1-.94v-.58c8.42-3.6,5.9-9.14,15.7-2.66a2.92,2.92,0,0,0-.65.36c.58.29,1.15.65,1.73,1-2.45,2.52-21.6,16.56-22.68,16.06Zm102,.14.65-4.32c5.26-3.67,11.23-8.21,17.06-11.09.07.07.22.14.36.29.86-.58,3.67-3.17,4.61-2.74,0,4.32-5.9,6.84-9.29,8.93-4.32,2.16-9.29,7.56-13.39,8.93Zm-44.5-4a3.5,3.5,0,0,1-.07-.86,1.58,1.58,0,0,1,.22-.36H178a1.91,1.91,0,0,0,.36.43,9.22,9.22,0,0,0-1.44.79Zm-28.3-.43a9.43,9.43,0,0,1-3.17-2.23,1.94,1.94,0,0,1,.58-.5c-.65-4-2.52-6.26-2.09-9.72-1.44-1.44-7.13-4.61-7.34-5.11,4.68-7.85,10.37-5.26,16.13-.29-.43,7.78-2.23,9.79,4.18,14v.43c-1.87.5-7.06,3.38-8.28,3.38Zm14.47-.36C155.3,81,153,85,153.65,73.05c2.52-1.66,12.24,5.11,11.66,9.36.22.72-1.15,7.49-2.23,6.41Zm59.33-1.37c-2.59,0,17.93-12.67,21-15a5.65,5.65,0,0,1,1,.14c-2.81,3-19.15,14.18-22,14.83Zm-41.54-.36c-.86,0-3.1-1.3-3.53-1.37.29-2.38.43-4.54,1.22-6.19.58,0,5.11,2.74,7.13,3.24,0,1.22-4,4.1-4.82,4.32Zm32.4-4.9a2.22,2.22,0,0,1,.72-.07c0,.29-.5.14-.72.07Zm-24.34-1.73c0-2.81-8.28-2.81-9.72-2.38-.07,0-3.38-6.55-5.4-7.92a2,2,0,0,1-.07-.65c1.44-.94,9.94-10.3,9.86-10.44a6.49,6.49,0,0,0-.72.65,1.41,1.41,0,0,1-.07-.5c3.89-4.18,1.87-3.67,8.5-1.66,3.17,1.58,6.91,1.73,10.94,4.75,0,1.22-1.58,8.28-3.38,7.7a2.13,2.13,0,0,1,.14-.72c-4.61-3.1-10.15-3.82-14.69-4-.22.94-.72.65-1.44.79,1.66,1.66,4.46,2.23,7.13,4a.87.87,0,0,0-.36.36c.65.22,1.73.07,1.73,1.87a1.57,1.57,0,0,1,.22-.36c1.3.94,1.22,1.44,1.87,1.15.07.22.14.43.22.72h.65a2.56,2.56,0,0,0-.29.65,1,1,0,0,0-.22-.29,1.91,1.91,0,0,0-.36.43,2.23,2.23,0,0,1,.58.14c-.72.36-.29.14-.5,1-.07-.07-.14-.14-.22-.14a3.51,3.51,0,0,0,.07.86c-1.37.65-2.38,3.31-4.46,4ZM149.4,79a10.29,10.29,0,0,0-2.88-1.37l-.22-.86c1.58,0,5.18,2.23,3.1,2.23Zm59.76,0c-2.59-1.73-6.77-7-7.34-8.71a48.79,48.79,0,0,0,3-5.76c.94-.36,9.94,4.39,8.93,8.57-.79,1.44-2.81,5.33-4.54,5.9Zm4.1-.43c0-2,4.61-4.18,3-8.14,0-.79.07-1.58.14-2.3a1.57,1.57,0,0,1,.36-.22c.36.22.36.22.43.58h.29c0-1.8.36-2.23,2-2.52.5-2.52,34.27-24.19,36.22-25.7.14-.36.29-.72.43-1,4.32,0,14.18-11.81,20.3-13.54.07-.43.14-.79.22-1.15l-.94-.94a5.39,5.39,0,0,0-1.15.29C270,20.42,264.38,20,259.78,18.69c-.29-.72-.29-.72-.22-1.22,4.46-2.23,15.77-3.17,21.38-2.38-1.22,1.22-3.38,3-2,5.76,5.47-.29,3.38-.07,6.12-2.81-1-.65-.79-1.08-.79-1.15A6.3,6.3,0,0,0,286,14.73a15.66,15.66,0,0,1,1.8.07v-.58c1.94,0,3.6.65,5.9,1.15,6.7,10-1.08,12.6-6.91,21-1.66.29-11,8.5-11.16,9.07-.86.65-41,32-43.06,31.39,10.8-10.8,26.71-19.3,38.88-29.88C280,42,285,34.24,284.26,24.88a.54.54,0,0,0-.29-.07,4.42,4.42,0,0,0-1.15,1.87c0,11.66-20.59,25-29.09,31.39-2.74.86-15.84,11.3-17,13.18-3.24.86-21.31,6.41-21.67,7.13a14,14,0,0,0-1.8.14Zm33-1.73c-.14-.07-.22-.14-.29-.14.86-5.76,16-13.1,20.38-17.5,1.58-1.15,3.17-2.3,4.82-3.38a33.48,33.48,0,0,1,0,4.68C267,63,260.5,62,260.5,67.65c-.07.07-13.61,9.43-14.26,9.14ZM123.48,73.34c-.65-2.09-1.22-7.49-.36-8.35a1,1,0,0,0,.29.22,2.22,2.22,0,0,0-.07.72c.07,0,.14.07.22.14,4.25-3.38,10.15-10,14.62-3.31-2.09,1.66-13.54,10.58-14.69,10.58Zm26.21-.86c-1.22-.58-2.45-1.08-3.67-1.58a1.4,1.4,0,0,1,.07-.58A5.7,5.7,0,0,1,150.41,72a1.29,1.29,0,0,0-.36.5Zm97.42-1.58a5.1,5.1,0,0,1-.07-1c1.87-1.44,10.66-9,11.88-9a3.51,3.51,0,0,1,.22.5c2.09-1.3,11.23-9.58,12.67-9.58a16.9,16.9,0,0,0,.07,1.87c-1.94,1.58-23,18.07-24.77,17.21Zm-17.64-1.15c-2-.5-2.23-1.94-4.18-2.16-.5-1.58-.86-3.24.29-2.09,5.26-2.59,3.24-2.23,9.43.86v.58c-.86.65-4.68,2.81-5.54,2.81Zm-15.26-.79c0-1.37-4.32-3.53-4.9-4.46-1.51,0-2.88-1.51-3.74-2-.29-1.58-.58-3.17-.79-4.68,4.82,0,9.43,5.4,9.86,10.66a3.13,3.13,0,0,0-.43.5ZM172,68.66c-2.09-1.44-7.63-3-7.63-4.9a13.3,13.3,0,0,1,10.94,1.51c-1,1.08-1.94,2.23-2.88,3.38Zm58-.5a17,17,0,0,0-2.88-1.58v-.5c1.51-1.51,3-1.22,5,.36v.5A19.83,19.83,0,0,0,230,68.15Zm32.62-2.3c-.07-.07-.14-.14-.14-.22S265,63,265.82,63.91c-.36.79-2.38,1.73-3.24,1.94ZM123.12,64.77c.65-3.38,2.09-5.33,2.66-7.7a12.72,12.72,0,0,1,1.44.29,1,1,0,0,1,.14-.5,16.48,16.48,0,0,1,5,1.44,8.07,8.07,0,0,0,.36.94,1.29,1.29,0,0,0-.5.36c-1.37-1.37-7.7,4.61-9.14,5.18ZM176,64.19a56.26,56.26,0,0,0-7.85-2.66c0-5,8.5-2.88,10.73-.22a14.46,14.46,0,0,1-2.3,2.88ZM147,63.33a21.63,21.63,0,0,1-5.47-1.08c-.5-1.73-1-3.53-.72-4.68a2.92,2.92,0,0,1,.65.36c3.1-1.51,9.43,2.52,13-2.23a2.22,2.22,0,0,1,.72-.07c-.07,1.8-.14,3.6-.14,5.4a18,18,0,0,1-8,2.3Zm68.9-.07a8.08,8.08,0,0,1-.36-.94c-2.09,0-13-8.28-15.41-9.22-.07-.29-.14-.5-.22-.72,3.53-5.33,14.69,5.83,17.86,9.36-.43.86-.86,1.51-1.87,1.51Zm-54.72-.72c-5.62-2.09-5.69-4.82-4.54-10.66,2-3.1,24,1.58,27.07,3.82-1.3,1.44-2.52,2.88-3.74,4.32-3-1-5.9-1.94-8.86-2.88-1.08,0-2.09,0-3.1.07-.86.86-2.45,3.74-4,3.38,0-2.81,2.45-5-1.73-6-1.94,1.94-.72,4-.07,6.55a4.06,4.06,0,0,0-.86.29c.58.86.58.86.5,1.08Zm-21.89-1.08c-1.73-.86-2.74-1.51-2.45-2.74-1.94-.72-8.06-3.89-9.07-3.6a.26.26,0,0,0-.07.22c-3.67-1.22-7.56.72-7.85.58,1.94-1.3,11-8.14,12.89-8.14a4.94,4.94,0,0,1,.22.58c1.15.36,1.22,2.23,3.38,3.1a.91.91,0,0,0-.07.43c.65,0,1.51.65,2.81.86a9.61,9.61,0,0,1-.58,3.6c.72.36,1.15,3.6,1.37,5a1.4,1.4,0,0,0-.58.07Zm62.28-1.58c-.14-.36-8.42-3.31-9.36-3.53a3.17,3.17,0,0,1-.14-.72c-2.16-1.08-2.38-3.82-3.46-4.18l-.22-.86a2.37,2.37,0,0,1,1.44.22,3.61,3.61,0,0,0,.14.86l.43.22c1.44-.94,3.24-.36,5.18.58a.37.37,0,0,0-.29.14,1.07,1.07,0,0,0-.07.5c2.59,0,7.63,3.17,7.27,6.7a3.8,3.8,0,0,0-.94.07Zm-86.4-1.08c-2.3-2.3-2.09-6.91-1.87-9.14.29,0,3.46,5,3.6,6.84a1.57,1.57,0,0,0-.36.22,1.93,1.93,0,0,0,.14,1.3c-.65.29-.5.22-.65.79Zm158-.14c0-1.58.07-3.1.14-4.61,3.89-3,13.46-13.32,16.27-13.32a6.24,6.24,0,0,1-.07,2.81c3.74,3.74-16.27,15.19-16.34,15.12Zm-8.64-1.87c-.07-.14-.14-.22-.14-.29.22-.22,3.31-3.24,3.67-2.45a19.84,19.84,0,0,1-3.53,2.74Zm-37.58-.72c-3.38-3-10.73-8.42-14-10a1.41,1.41,0,0,1-.07-.5c2.09-.79,12.74-6.91,13.18-7.78,6.12-2.88,15.84-12,22.32-5.47,1.87.43,3.74,2.09,6.26,3.31a1.79,1.79,0,0,0,.07.58c-4.18,2.09-8.78,6.34-13,8.78-.43,1.87-12.46,10.37-14.76,11.09Zm-83.74-.29c-9.14-1.08,3-5.47,5-6.12,8.78-.43,8.78,4.68.22,6-1.8,0-3.53,0-5.26.07Zm-18.72-.72v-.43a2.7,2.7,0,0,1,.72.07v.36Zm63.36-.72c-6.19-1.51-12.74-4-17.93-4.9a31.16,31.16,0,0,1-2.38-4.25,23.5,23.5,0,0,1,6.19.36,2.23,2.23,0,0,0,.14.58,2,2,0,0,1,.65.07c1-1,6.77,1.51,8.64,2.16a3.52,3.52,0,0,1,.22.5c2.45.58,4.1,1.87,5,5.33a1,1,0,0,0-.5.14Zm85.9-2.3c-.5-3.89,11.38-11.59,14.83-14.76,0,.07.07.14.14.29-4.39,5.26-9.14,10.8-15,14.47ZM138.17,50.87c-1.51-1.15-2.59-2.23-2.3-3.53.72-.36,5.54.29,5.54,2.23-1.51,0-1.87,1.3-3.24,1.3Zm57.31,0c-5.4-1.44-10.94-4-15.84-5.54l41-19.44c10.51-2.74,27.43-10.15,38.16-8.06-.36.36-12.1,5.26-13.39,5.54C229,32.51,212,41.08,196.2,50.87Zm-39.6-1.08c-.86-.86-1.73-1.8-1.73-2.3,1.3-.72,15.55-6,13.61,1.94-3.6.36-8.64.36-11.88.36Zm39.6-1.3c-1.66,0-2.38-3.31-5.47-2.3l-.65-.43c3.53-4.25,5.26-2.3,10.22-1.73a8.83,8.83,0,0,1,.65,2.45c-2.23,0-3.82,2-4.75,2Zm0-1.73c-.79-.58-1.51-1.08-2.23-1.58v-.5c1.22-.58,2.23-.79,4,.43a1.79,1.79,0,0,0,.07.58,2.83,2.83,0,0,1-1.87,1.08Zm98.21-.22a1,1,0,0,1-.29-.22,1.29,1.29,0,0,1,.36-.5H294a2.25,2.25,0,0,0-.36.72ZM177.77,43.82c-.58-.58-.43-2.45-.43-2.81.29-.14,21.53-11,22.32-10.8-.14,1.08-.22,2.16-.29,3.31-4.54,3.17-15.7,8.14-21.6,10.3Zm-4.46-.36c-.07-.14-.14-.22-.14-.29.29-.14.22-.36,1.08-.36,0,.07.07.14.14.22-.22.5-.79.43-1.08.43Zm-6.12-.65H165a4.25,4.25,0,0,1,.14-1c1.87-1.15,6.91-4.25,9.22-4.25a9.27,9.27,0,0,1,.43,2.74h-.36a1,1,0,0,0-.22-.29,5.45,5.45,0,0,0,.07,1.08,4.66,4.66,0,0,0-.65-.58,4.43,4.43,0,0,0,.07.94c-.07,0-.14.07-.22.14l-.43-.86a10.52,10.52,0,0,1-5.9,2.09Zm124.56.07c.29-2.3-.07-4.68.5-6.48a46,46,0,0,0,5-7.2h.65c0,6.91-3.6,8.86-5.62,13.61a1.07,1.07,0,0,0-.5.07ZM172,41.87c.43-.22.07-.58.72-.29a.65.65,0,0,1-.72.29Zm5.4-2.66c-.07-1.22-.14-2.45-.22-3.6,4-2.59,18.43-9.65,23.11-10.73l-.22,3c-2.52,2.52-19.73,11.3-22.68,11.3Zm24.12-6.91c-.58-7.63,7-5.76,12-8.57.94-.29,8.35-3.38,10-3,0,.72.07,1.44.14,2.16-3.6,1.94-19.08,8.64-19.51,8.57l-2.59.86Zm.36-5.47a10.11,10.11,0,0,0-.07-2.74c2.81-1.87,21-10.66,22.75-10.22a21.86,21.86,0,0,1-.79,4.68c-1,.65-21,8.71-21.89,8.28Zm23.62-4.61c-7.27-3.6,24.12-9.72,25-9.79-2.45,8.93-4.46.94-9.36,5.83-4.54,1.22-11.3,3.53-15.62,4Zm55.8-2.81a5,5,0,0,0-.22-.58,2.19,2.19,0,0,1,1.44-1.22,3.25,3.25,0,0,1-.36,1.8Zm16.06-.22c-3.46-8.64-9.94-6.12-18.36-6.12-1.08-1.08,1.37-3.53,1.8-4.46-.5-.29-1-.58-1.44-.79-.72.72-8.71.58-10.3.72a1,1,0,0,0-.22-.29,26,26,0,0,0-3.6.43c-3.89.36-7.78.79-11.66,1.22.43-1.37.86-2.74,1.37-4.1,9.94-1.73,19.15-3.46,29.59-3.74a1.83,1.83,0,0,0,.14.5h1.08V2.13c2.81,0,6.62.65,10.08.36,1.3,1.3,3.31,7.27,3,10.44-1.15,1.15.43,5.33-1.51,6.26Zm-71.5-1.58c0-7.7,9-7.27,15.48-9.22,3.53,0,7.34-2.66,11.38-2.66.07.07.29.07.29.79-.29.07-.5.14-.72.22-.36,1.15-.65,2.3-.94,3.53a162.74,162.74,0,0,1-25.49,7.34Zm27.94-.79c-1.08-.79-1.3-.72-2-.58a2.22,2.22,0,0,1-.14-.58,3.5,3.5,0,0,1,.86.07,38.5,38.5,0,0,1,.58-4c3.89-.29,7.85-.5,11.81-.72a2.92,2.92,0,0,0-.65-.36v-.36c1.73-.86,10.58-.94,13.82-.94.22.36-.5,2.52-.65,3.6-5.54,1.37-18.65,3.89-23.62,3.89Z"/></g></g></svg>