<?xml version="1.0" encoding="utf-8"?>
<!-- Generator: Adobe Illustrator 21.1.0, SVG Export Plug-In . SVG Version: 6.00 Build 0)  -->
<svg version="1.1" xmlns="http://www.w3.org/2000/svg" xmlns:xlink="http://www.w3.org/1999/xlink" x="0px" y="0px"
	 viewBox="0 0 410.9041 465.84" enable-background="new 0 0 410.9041 465.84" xml:space="preserve">
<g>
	<path fill-rule="evenodd" clip-rule="evenodd" d="M172.224,465.84c-2.376-0.792-4.752-1.584-7.2-2.376
		c-3.096-0.504-3.096-0.504-7.2-0.72c-2.952,0.288-5.904,0.576-8.856,0.936c-1.224,0.288-2.52,0.576-3.816,0.936
		c-1.728-0.216-1.728-0.216-4.608-1.152c-0.576-0.288-1.224-0.648-1.872-1.008c-0.864-0.792-1.728-1.584-2.664-2.376
		c-2.88-0.648-5.76-1.296-8.64-1.944c-2.88,0-5.04,0.288-9.576,0.288c-0.432,0.072-0.936,0.144-1.44,0.216
		c-3.6-0.504-3.6-0.504-7.92-0.72c-0.576,0.36-1.152,0.792-1.728,1.224c-0.72,0-1.872-0.504-5.472-0.72
		c-1.44,0.144-2.88,0.288-4.32,0.432c-3.96-0.288-7.992-0.576-12.024-0.936c-2.664,0-5.4,0-8.136,0
		c-1.512,0.36-3.024,0.792-4.608,1.224c-0.72,0-1.44,0-2.16,0c-1.584-1.008-3.168-2.088-4.752-3.168c-1.008,0-2.088,0-3.168,0
		c-1.44,0.648-2.88,1.296-4.32,1.944c-7.92,0.504-10.512,0.936-16.992,1.44c-4.752,0.072-9.576,0.144-14.4,0.216
		c-2.088,0.216-4.176,0.432-6.264,0.72c-0.648-0.216-1.368-0.504-2.088-0.792c0-0.36,0-0.792,0-1.224
		c0.144-0.072,0.288-0.216,0.432-0.36c0.792,0.072,1.584,0.144,2.376,0.216c1.512-0.216,3.024-0.432,4.536-0.72
		c5.976-0.144,11.952-0.288,18-0.432c4.464-0.432,8.928-0.936,13.464-1.44c1.224-0.504,1.656-1.008,4.104-2.16
		c1.296,0,2.664,0,4.032,0c0.576,0.144,1.152,0.288,1.728,0.432c0.72,0.648,1.44,1.296,2.16,1.944
		c0.576,0.288,1.224,0.576,1.872,0.936c2.664-0.216,2.664-0.216,5.04-0.936c3.744,0,7.488,0,11.304,0
		c0.072-0.072,0.144-0.216,0.216-0.36c-3.096-1.296-6.192-2.592-9.36-3.96c-2.304-1.224-4.608-2.52-6.912-3.816
		c-2.736-2.232-5.472-4.464-8.208-6.768c-0.288-0.432-0.576-0.936-0.936-1.44c-6.48-5.04-8.136-6.696-9.576-7.632
		c-2.16-2.16-2.16-2.16-4.824-4.104c-5.76-2.88-5.76-2.88-6.264-3.456c-0.072-0.432-0.144-0.936-0.216-1.44
		c-0.648-0.072-1.296-0.216-1.944-0.36c-0.432-0.432-0.936-0.936-1.44-1.44c0-0.432-0.072-0.864-0.144-1.296
		c0.648-0.504,0.648-0.504,1.872-0.648c5.256,0.504,5.256,0.504,8.208,0.36c-0.072-0.432-0.144-0.936-0.216-1.44
		c-1.584-1.872-3.168-3.816-4.824-5.76c-1.152-0.504-2.376-1.08-3.6-1.656c0-0.72,0-1.44,0-2.16c-0.576-1.152-1.224-2.376-1.872-3.6
		c-2.88-1.944-2.88-1.944-7.2-5.76c-2.808-2.952-5.616-5.904-8.424-8.856c-5.976-7.704-5.976-7.704-7.92-10.8
		c-3.816-7.704-4.824-9.144-6.696-12.96c-0.936-2.376-1.872-4.752-2.88-7.2c-0.72-3.6-1.728-6.264-2.664-10.584
		c-0.504-7.704-0.504-11.736-0.936-17.28c0-13.896,0-13.896-0.288-17.496c0.792-11.448,1.584-22.896,2.448-34.344
		c0.432-2.52,0.936-5.112,1.44-7.704c0.576-5.256,1.224-10.512,1.872-15.84c1.944-7.92,2.88-13.176,6.768-29.52
		c0.144-0.936,0.288-1.872,0.432-2.88c1.008-3.24,2.088-6.48,3.168-9.792C18,206.28,18,206.28,19.944,200.304
		c0.648-1.584,1.296-3.168,1.944-4.824c1.224-4.104,2.52-8.28,3.816-12.456c0.936-2.52,1.872-5.112,2.88-7.7039
		c0.936-3.816,0.936-3.816,2.88-8.856c1.224-2.376,1.656-4.32,3.6-8.424c0.936-2.88,0.936-2.88,2.88-7.416
		c0.648-1.152,1.296-2.376,1.944-3.6c5.76-13.68,5.76-13.68,9.576-21.6c11.016-19.224,11.52-19.6559,13.464-23.04
		c1.872-4.104,1.872-4.104,3.816-7.2c3.384-7.704,3.384-7.704,4.32-9.144c5.76-14.4,5.76-14.4,6.696-16.056
		c0.648-1.872,1.296-3.816,1.944-5.76c3.816-6.696,4.824-9.144,6.696-12.024c1.872-3.6,3.816-7.2,5.76-10.7999
		c5.76-8.3521,5.76-8.3521,8.208-11.2321c0.576-1.08,1.224-2.232,1.872-3.384c1.296-1.656,2.592-3.312,3.888-5.04
		c4.464-4.392,8.928-8.7839,13.392-13.176c-0.072-0.936-0.144-1.872-0.216-2.88c-0.648-0.6479-1.296-1.296-1.944-1.944
		c0-0.2159,0-0.432,0-0.72c1.008-1.44,1.008-1.44,2.304-2.52c2.16,0,3.168-0.288,7.92-0.504c0.936,0.144,1.872,0.2881,2.88,0.504
		c0.36,0.432,0.792,0.864,1.224,1.296c0.072,0.5759,0.216,1.1519,0.36,1.728c-1.008,1.44-1.008,1.44-2.16,2.376
		c0,0.3599,0,0.7919,0,1.224c3.816,6.48,6.696,10.8,10.512,17.496c3.888,8.136,3.888,8.136,5.76,11.52
		c1.008,0.936,1.008,0.936,2.448,2.88c0.288,0.792,0.576,1.584,0.936,2.376c1.224,2.088,2.52,4.1759,3.816,6.264
		c7.704,14.9039,7.704,14.9039,9.648,18.2159c7.632,16.1281,8.136,16.5601,9.072,19.008c1.008,1.6561,1.44,2.8801,1.944,3.312
		c2.88,6.048,2.88,6.048,6.696,15.1201c5.112,10.296,10.224,20.592,15.408,30.96c0.36,1.08,0.72,2.232,1.152,3.384
		c1.944,3.384,11.52,23.7599,12.528,25.416c2.52,5.472,5.04,11.016,7.632,16.56c12.528,24.264,12.528,24.264,12.96,25.704
		c5.76,12.024,6.768,13.68,14.4,30.024c1.944,3.312,5.76,11.7361,13.464,26.136c3.816,7.704,9.5759,21.096,10.584,22.824
		c0.432,1.44,8.136,17.496,9.072,18.936c1.872,4.752,3.816,9.576,5.7599,14.4c6.408,13.68,12.816,27.36,19.224,41.04
		c0.7921,1.944,1.584,3.96,2.376,5.976c0.2881,0.144,0.576,0.288,0.8641,0.504c0.144-6.696-0.36-16.776-0.576-46.296
		c-0.2881-1.944-0.2881-1.944-0.504-27.864c0.072-5.256,0.144-10.512,0.2159-15.84c0.216-1.224,0.432-2.52,0.72-3.816
		c0-3.168,0.504-7.2,0.504-10.08c0.36-4.536,0.792-9.072,1.224-13.68c0-3.888,0-7.848,0-11.808c0.432-5.04,0.936-10.08,1.44-15.12
		c0.072-6.12,0.144-12.24,0.216-18.432c0.216-3.456,0.432-6.912,0.72-10.368c0.216-10.08,0.432-20.16,0.72-30.24
		c-0.216-7.416-0.216-7.416,0-15.84c-0.36-0.576-0.792-1.224-1.224-1.872c0-0.288,0-0.648,0-1.008c0.36-0.288,0.72-0.576,1.08-0.936
		c0.936-0.288,1.944-0.576,2.952-0.864c4.032,0.216,4.032,0.216,5.976,0.72c0.144,0.144,0.288,0.36,0.504,0.576
		c0.072,0.648,0.144,1.296,0.288,1.944c-0.504,0.648-1.08,1.296-1.656,1.944c0.072,1.944,0.144,3.9601,0.216,5.976
		c0.432,3.312,0.936,6.696,1.44,10.08c0.144,0.288,0.288,0.648,0.504,1.008c0.144,1.8,0.288,3.6,0.504,5.472
		c0.4319,2.16,0.936,4.32,1.44,6.48c0.288,0.288,0.576,0.6479,0.936,1.008c3.384,7.2,3.816,8.64,4.824,10.08
		c2.52,6.768,5.04,13.536,7.632,20.376c5.7599,12.744,7.2,16.776,9.144,20.664c1.944,5.04,5.76,13.68,9.576,23.472
		c1.008,1.728,2.88,6.984,4.824,10.8c0.936,2.664,4.824,11.52,5.256,13.248c0.936,2.0161,1.872,4.104,2.88,6.192
		c0.288,1.296,0.648,2.592,1.008,3.888c0.936,2.376,1.872,4.752,2.88,7.2c1.872,5.904,3.816,11.808,5.76,17.712
		c1.8719,4.104,1.8719,4.104,3.816,9.36c0.288,1.08,0.576,2.232,0.936,3.384c6.264,15.624,6.264,15.624,7.2,18.72
		c0.936,1.944,1.8719,3.96,2.88,5.976c0.72,2.664,0.72,2.664,6.48,17.064c0.648,1.224,1.2961,2.52,1.944,3.816
		c3.384,10.584,3.384,10.584,3.816,11.088c3.384,8.352,3.384,8.352,4.032,9.216c1.1519,0.432,1.1519,0.432,1.728,1.08
		c0.144,0.504,0.288,1.08,0.504,1.656c-0.0721,0.576-0.144,1.152-0.2161,1.728c-0.288,0.216-0.5759,0.504-0.864,0.792
		c-1.1519,0.216-11.2319,0.216-18.72,0.504c-0.936,1.296-2.736,5.4-3.744,6.84c-2.88,5.544-4.752,9.864-5.76,11.52
		c-0.144,0.504-0.288,1.08-0.432,1.656c-1.008,1.44-1.008,1.44-1.944,3.6c0,0.432,0,0.936,0,1.44c0.216,0.216,0.432,0.432,0.72,0.72
		c-0.216,1.728-0.72,3.168-0.72,4.104c0.504,0.504,1.08,1.08,1.656,1.656c1.296,0.072,2.664,0.216,4.032,0.36
		c0.36,0.36,0.72,0.72,1.1519,1.08c0.2881,0.648,0.576,1.296,0.8641,1.944c0,0.936,0,1.872,0,2.88
		c-0.288,0.792-0.648,1.584-1.008,2.376c-0.936,1.296-1.872,2.592-2.88,3.888c-0.216,0.072-0.504,0.144-0.792,0.288
		c-1.944,2.448-1.944,2.448-4.104,4.608c-7.92,4.752-9.072,5.76-19.152,11.52c-4.608,1.152-5.7599,1.656-12.744,3.024
		c-0.072,0.216-0.144,0.432-0.216,0.72c3.4561,0.432,6.9841,0.864,10.512,1.296c2.232-0.216,4.464-0.432,6.768-0.72
		c1.224-0.288,2.52-0.648,3.816-1.008c7.416-0.936,7.416-0.936,9.36-1.44c7.416,0.288,11.52,0.72,16.056,0.72
		c1.728-0.216,3.528-0.432,5.3281-0.72c0.936,0.288,0.936,0.288,1.296,0.864c0,0.288-0.072,0.576-0.144,0.864
		c-5.04,0.432-5.04,0.432-7.92,0.936c-3.888-0.216-7.776-0.432-11.736-0.72c-1.368,0.072-2.736,0.144-4.104,0.216
		c-1.44,0.504-4.536,0.72-8.856,1.728c-2.88,0.432-5.76,0.936-8.64,1.44c-6.408-0.576-12.816-1.152-19.224-1.728
		c-9.576,0.72-9.576,0.72-24.192,1.224c-0.144,0.144-0.288,0.288-0.504,0.504c-3.672,0.072-7.344,0.216-11.016,0.36
		c0,0.216-0.072,0.432-0.144,0.72c-1.368,0.576-2.736,1.152-4.176,1.8c-1.152-0.216-2.376-0.432-3.6-0.72
		c-1.368-0.576-2.736-1.152-4.1041-1.728c-6.5519,0.216-13.1039,0.432-19.656,0.72c-4.176,0.288-8.3519,0.648-12.528,1.008
		c-6.48,0.072-12.96,0.144-19.44,0.216c-2.376-0.504-5.04-0.72-5.256-0.504c-1.8,0-3.672,0-5.544,0
		c-6.048,0.432-12.096,0.936-18.216,1.44c-1.656,0-3.312,0-5.04,0c-0.432-0.144-0.936-0.288-1.44-0.432
		c-1.152,0.072-2.376,0.144-3.6,0.216c-1.152-0.288-2.376-0.576-3.6-0.936c-5.04-0.288-5.04-0.288-6.264,0
		C179.208,465.1201,176.544,465.624,172.224,465.84L172.224,465.84z M172.728,463.8961c-3.816-0.936-7.704-2.376-10.584-2.88
		c-1.8-0.072-3.6-0.144-5.472-0.216c-2.736,0.288-5.472,0.576-8.208,0.936c-1.152,0.288-2.376,0.648-3.6,1.008
		c-2.88-0.72-2.88-0.72-5.04-1.728c-1.08-0.936-2.16-1.872-3.312-2.88c-3.384-0.432-3.384-0.432-8.928-1.872
		c-3.672,0.144-7.344,0.288-11.016,0.432c-3.024-0.36-6.048-0.72-9.144-1.152c-0.504,0.216-1.08,0.432-1.656,0.72
		c-2.88-0.216-5.76-0.432-8.64-0.72c-10.08-2.88-10.08-2.88-15.336-4.824c-4.32-1.944-4.32-1.944-7.704-3.816
		c-1.8-1.296-3.672-2.592-5.544-3.888c-2.88-2.88-4.32-3.816-5.256-5.04c-9.36-7.632-9.36-7.632-12.024-10.296
		c-0.072-0.216-0.144-0.504-0.216-0.792c4.104,0.792,5.256,1.296,9.36,2.232c11.304,3.816,11.304,3.816,17.496,6.264
		c2.664,0.432,5.76,1.44,10.8,2.376c1.008,0.504,9.36,2.376,10.584,2.88c11.52,1.944,11.52,1.944,26.424,3.816
		c7.2,0.504,7.2,0.504,13.176,1.44c1.224,0.504,1.224,0.504,16.56,3.384c4.824,0.432,9.72,0.936,14.616,1.44
		c5.832,0.216,11.664,0.432,17.568,0.72c6.768-0.288,13.536-0.576,20.376-0.936c11.664,0.36,23.328,0.72,35.064,1.152
		c4.896-0.144,9.864-0.288,14.832-0.432c2.376-0.288,4.752-0.648,7.2-1.008c5.4-0.144,10.872-0.288,16.344-0.432
		c9-0.648,18.072-1.296,27.144-1.944c3.96-0.648,7.92-1.296,11.952-1.944c24.48-2.88,30.024-3.816,47.304-5.76
		c2.88-0.576,5.76-1.224,8.64-1.872c0.792-0.288,1.584-0.648,2.376-1.008c0.288,0,0.576,0.072,0.864,0.144c0,0.216,0,0.432,0,0.72
		c-1.0081,1.08-2.088,2.232-3.168,3.384c-0.936,0.648-1.872,1.296-2.8799,1.944c-11.088,5.616-11.088,5.616-15.696,7.488
		c-3.312,1.008-3.312,1.008-21.312,4.824c-4.5359,0.648-9.072,1.296-13.68,1.944c-11.808,0.792-23.688,1.584-35.568,2.376
		c-1.656,0.504-1.656,0.504-7.2,0.936c-13.68,0.504-13.68,0.504-17.28,1.008c-2.304,0.144-4.608,0.288-6.912,0.432
		c-15.408,0-19.44-0.216-30.744,0c-6.48,0.36-12.9601,0.792-19.44,1.224c-0.7921-0.288-1.584-0.576-2.376-0.936
		c-0.648,0-1.296,0-1.944,0c-0.216,0.144-0.432,0.288-0.72,0.432c-1.944-0.216-3.6-0.72-6.696-1.152
		C183.744,462.744,183.744,462.744,172.728,463.8961L172.728,463.8961z M237.528,449.064c-3.168-0.144-6.336-0.288-9.576-0.504
		c-0.432-0.36-0.864-2.232-1.872-4.392c-0.216-0.936-0.432-1.872-0.72-2.88c-0.072-2.52-0.144-5.112-0.216-7.704
		c0.072-0.288,0.216-0.576,0.36-0.864c6.768-0.216,7.704-0.504,12.96-0.504c2.16,0.288,6.768,0,8.928,0.144
		c0.216,0.504,0.216,0.504-0.144,1.944c-0.072,0.072-0.216,0.216-0.36,0.36c-2.952,0.144-5.904,0.288-8.856,0.432
		c-0.792,0.144-1.584,0.288-2.448,0.504c-0.288,0.432-0.576,0.864-0.936,1.296c0.288,0.432,0.576,0.864,0.936,1.368
		c1.08,0.288,2.232,0.576,3.384,0.936c3.096,0.216,3.096,0.216,7.92-0.072c0,1.152,0,2.376,0.072,3.6
		c0.288,0.792,0.648,1.584,1.008,2.376c0.216,1.152,0.432,2.376,0.72,3.6C245.664,449.064,245.664,449.064,237.528,449.064
		L237.528,449.064z M252.432,449.064c-0.36,0-0.792-0.072-1.224-0.144c-0.72-2.376-1.512-4.752-2.304-7.2
		c0-0.864,0.072-1.728,0.144-2.592c0.144-0.144,0.36-0.288,0.576-0.504c0-0.72,0-1.44,0-2.16c-0.144-0.144-0.2881-0.288-0.504-0.504
		c0-2.16,0-2.16,0.288-3.312c0.144-0.144,0.36-0.288,0.576-0.432c1.368-0.072,2.736-0.144,4.104-0.216
		c3.8161,0.288,7.632,0.576,11.52,0.936c0,0.288,0,0.576,0.072,0.864c-0.216,0.432-0.4319,0.936-0.72,1.44
		c-0.144,0.936-0.288,1.872-0.432,2.88c0.144,3.096,0.288,6.192,0.432,9.36C264.384,447.84,264.384,447.84,252.432,449.064
		L252.432,449.064z M185.472,448.7761c-3.096-0.144-6.192-0.36-9.36-0.576c-1.368-6.192-1.584-9.072-2.088-11.232
		c0-1.584,0.072-3.168,0.144-4.824c2.88,0.072,5.76,0.216,8.64,0.36c3.6-0.288,13.176-0.288,20.16,0
		c0.072,0.288,0.216,0.576,0.36,0.864c-0.288,1.656-0.288,1.656-0.288,5.04c0.504,1.872,0.504,1.872,0.72,5.472
		c1.008,3.168,1.44,3.6,1.368,3.96c-3.096,0.504-3.096,0.504-13.176,0.936C189.792,448.7761,187.632,448.7761,185.472,448.7761
		L185.472,448.7761z M172.008,448.3441c-6.192-0.648-12.456-1.296-18.72-2.016c-1.08-4.32-1.8-9.144-2.088-9.648
		c0-0.864,0-1.728,0-2.592c0.288-0.792,0.648-1.584,1.008-2.448c1.368,0,2.736-0.072,4.176-0.144
		c1.296,0.216,2.592,0.432,3.888,0.648c-0.504,0.576-0.504,0.576-1.728,1.08c-0.288,0.432-0.576,0.864-0.936,1.296
		c0.36,1.008,0.36,1.008,1.224,1.8c0.36,0.144,0.72,0.288,1.152,0.504c0.864,0,1.728,0,2.664,0c2.376-1.008,2.376-1.008,2.88-1.584
		c0-0.792,0-1.584,0.072-2.376c-0.432-0.144-0.864-0.288-1.296-0.504c0-0.216,0-0.432,0-0.72c5.544,0.36,5.544,0.36,8.208,0.288
		c0,1.8-0.072,3.6-0.144,5.472c0.432,2.16,0.432,4.824,0.72,5.328c0.432,2.592,0.432,2.592,0.432,5.256
		C172.944,448.3441,172.944,448.3441,172.008,448.3441L172.008,448.3441z M219.312,448.3441c-4.32-0.144-8.64-0.288-12.96-0.504
		c-0.144-0.792-0.144-0.792,0.072-2.736c-0.144-0.288-0.288-0.576-0.504-0.936c-0.288-2.232-0.576-4.464-0.936-6.768
		c0.072-1.296,0.144-2.664,0.216-4.032c0.144-0.144,0.288-0.288,0.432-0.432c6.912-0.216,12.456,0,13.176-0.216
		c3.096,0,3.096,0,4.176,0.36c0,0.576,0,1.152-0.072,1.8c-3.888-0.216-4.608-0.504-6.984-0.504c-1.584,0.432-3.168,0.936-4.824,1.44
		c-0.288,0.288-0.576,0.576-0.864,0.864c0,0.36,0,0.792,0,1.224c0.36,0.288,0.72,0.576,1.08,0.936
		c1.08,0.288,2.232,0.576,3.384,0.864c2.088,0,4.176,0,6.264,0c0.432-0.216,0.936-0.432,1.44-0.72c0.36,0,0.72,0.072,1.08,0.144
		c0.144,1.656,0.288,3.312,0.432,5.04c0.36,1.224,0.792,2.52,1.224,3.816c-0.072,0.072-0.216,0.216-0.36,0.36
		C222.984,448.3441,221.184,448.3441,219.312,448.3441L219.312,448.3441z M267.552,447.48c-0.288-1.224-0.576-2.52-0.864-3.816
		c0-2.376,0-4.752,0-7.2c0.072-0.216,0.216-0.432,0.36-0.648c0.36-0.144,0.7919-0.288,1.2239-0.432
		c0.0721-0.576,0.144-1.152,0.288-1.8c0.432,0,0.864-0.072,1.368-0.144c1.44,0.288,2.88,0.576,4.3201,0.936
		c1.44,0.648,2.88,1.296,4.32,1.944c3.816,0.936,3.816,0.936,5.976,1.944c3.6,0.432,4.104,0.72,6.048,0.72
		c0.432,0.144,0.936,0.36,1.4401,0.576c0.792,3.888,0.792,3.888,1.008,6.768c-1.656,0.144-3.384,0.36-5.112,0.576
		C281.16,447.048,274.392,447.264,267.552,447.48L267.552,447.48z M301.824,445.8961c-0.216-0.072-0.216-0.072-0.36-1.512
		c1.44-2.16,2.376-4.104,2.8801-4.536c0.792-0.144,1.6559-0.288,2.52-0.432c1.224,0.144,2.52,0.288,3.816,0.432
		c0,1.656,0.072,3.312,0.144,5.04c-0.576,0.216-1.152,0.504-1.8,0.792C306.648,445.752,304.272,445.824,301.824,445.8961
		L301.824,445.8961z M149.904,445.6801c-16.992-3.816-16.992-3.816-18.432-3.96c0-2.88-0.072-5.76-0.144-8.64
		c0.288-1.008,0.576-2.016,0.936-3.096c1.368-0.144,8.784,0.36,9,0.576c-0.144,0.144-0.288,0.288-0.432,0.504
		c-1.44,0.144-2.88,0.288-4.32,0.432c-0.36,0.36-0.72,0.72-1.152,1.152c0,0.288,0,0.576,0,0.936c0.36,0.432,0.72,0.936,1.08,1.44
		c1.224,0.36,1.224,0.36,4.392,0.36c0.792-0.144,1.584-0.288,2.376-0.504c0.576-0.432,1.152-0.864,1.8-1.296c0-0.432,0-0.936,0-1.44
		c-0.504-0.504-0.504-0.504-2.52-1.224c1.512,0,3.024-0.072,4.536-0.144c0.792,0.144,1.584,0.288,2.448,0.504
		c-0.144,1.8-0.288,3.6-0.432,5.4c0.504,1.728,0.504,1.728,0.72,4.824c0.288,1.008,0.648,2.016,1.008,3.096
		c0,0.36-0.072,0.72-0.144,1.08C150.408,445.6801,150.192,445.6801,149.904,445.6801L149.904,445.6801z M313.3441,444.6
		c-0.36-0.936-0.36-0.936-0.576-4.752c3.024-0.432,3.024-0.432,10.656-0.72c-0.864,4.032-0.864,4.032-1.152,4.392
		C319.104,443.736,317.448,444.2401,313.3441,444.6L313.3441,444.6z M325.368,442.944c-0.072-0.36-0.216-0.792-0.36-1.224
		c0.216-1.872,0.216-1.872,0.72-2.88c3.456-0.36,3.456-0.36,7.56-0.432c-0.072,1.152-0.216,2.376-0.36,3.6
		c-1.224,0.216-2.448,0.504-3.744,0.792C327.96,442.8,326.664,442.872,325.368,442.944L325.368,442.944z M335.448,441.864
		c-0.072-1.224-0.144-2.448-0.2159-3.744c4.752-0.36,4.752-0.36,5.832-0.216c0,1.08,0,2.16-0.072,3.24
		C339.192,441.36,337.32,441.576,335.448,441.864L335.448,441.864z M121.608,441.144c-2.664-0.504-4.536-0.504-16.344-2.448
		c-1.08-0.288-2.16-0.576-3.312-0.936c-0.144-1.296,0.072-1.8-0.144-5.112c0.216-4.32,0.216-4.32,0.576-6.192
		c7.488,0.72,15.048,1.44,22.608,2.16c0.072,1.152,0.072,1.152-0.432,3.024c-0.504,0.936-1.08,1.872-1.656,2.88
		c0,1.008,0,2.088,0,3.168c0.648,0.936,1.296,1.872,1.944,2.88c0,0.144-0.072,0.36-0.144,0.576
		C123.696,441.144,122.688,441.144,121.608,441.144L121.608,441.144z M344.088,440.5681c0-1.152,0-2.376,0.072-3.6
		c0.4319-0.36,0.864-0.792,1.368-1.224c0.504-0.144,1.08-0.288,1.656-0.504c0.072,1.296,0.216,2.592,0.36,3.888
		c0.144,0.144,0.288,0.288,0.504,0.432c0,0.144-0.072,0.36-0.144,0.576C346.6801,440.28,345.384,440.424,344.088,440.5681
		L344.088,440.5681z M128.304,440.136c-0.864-1.008-1.296-2.016-2.304-2.952c-0.144-0.288-0.288-0.576-0.432-0.936
		c0.216-1.44,1.656-6.048,2.16-6.984c0.648,0,1.296,0,2.016,0c-0.576,5.04-0.576,9.36-0.864,10.8
		C128.52,440.28,128.52,440.28,128.304,440.136L128.304,440.136z M349.344,439.848c0.072-1.872,0.216-3.816,0.36-5.76
		c1.656-1.224,3.312-2.448,4.968-3.744c0.216,0,0.432,0,0.72,0.072c0.288,0.792,0.288,0.792,0.288,6.768
		c0.2159,0.288,0.4319,0.576,0.6479,0.936c0.288,0,0.576,0.072,0.936,0.144c0.36-0.36,0.72-0.72,1.08-1.08
		c0-1.368,0.072-2.736,0.144-4.104c0.648-0.144,1.296-0.36,1.944-0.576c0.288-0.504,0.576-1.008,0.936-1.584
		c-0.072-0.864-0.216-1.728-0.36-2.592c0.648-0.432,1.296-0.936,2.0161-1.44c0.6479,0,1.296-0.072,1.944-0.144
		c0.72,0.576,1.08,1.584,2.592,3.024c0.36,0.072,0.7921,0.144,1.224,0.288c0.36,0.648,0.36,0.648,0.576,3.312
		c-0.576,1.44-1.152,2.88-1.728,4.392C361.584,438.408,355.4641,439.1281,349.344,439.848L349.344,439.848z M184.752,437.976
		c-0.288-0.144-0.648-0.288-1.008-0.432c-0.288-0.36-0.576-0.72-0.864-1.08c0-0.288,0-0.576,0-0.936
		c0.504-0.504,1.008-1.008,1.584-1.584c0.864-0.144,1.728-0.288,2.664-0.504c0.432,0.072,0.936,0.144,1.44,0.216
		c0.36,0.648,0.72,1.368,1.08,2.088c0,0.36,0,0.792,0,1.224c-0.36,0.288-0.72,0.576-1.08,0.936
		C187.344,437.9041,186.048,437.9041,184.752,437.976L184.752,437.976z M97.128,437.04c-4.32-0.936-8.64-1.872-12.96-2.88
		c-3.96-1.224-7.992-2.52-12.024-3.816c-0.144-1.08-0.144-1.08,0.216-3.024c0.288-0.144,0.576-0.288,0.864-0.432
		c0.648-1.368,1.368-2.736,2.088-4.104c0.576,0,1.224-0.072,1.872-0.144c4.824,0.936,10.368,1.44,16.344,2.664
		c2.088,0.288,4.176,0.576,6.336,0.864c0.216,2.592,0.216,2.592,0,9.072c-0.504,0.72-0.504,0.72-0.792,1.8
		C98.424,437.04,97.776,437.04,97.128,437.04L97.128,437.04z M370.944,436.968c0.864-3.888,0.864-3.888,1.296-4.824
		c0.216-0.144,0.4319-0.288,0.72-0.504c0.144-0.792,0.288-1.584,0.504-2.376c0.6479-0.288,1.368-0.576,2.088-0.864
		c0.216,0,0.504,0.072,0.792,0.144c-0.288,1.8-0.576,3.672-0.936,5.544c0.432,0.432,0.432,0.432,1.584,0.792
		c-0.36,0.288-0.792,0.576-1.224,0.936C374.184,436.176,372.6,436.536,370.944,436.968L370.944,436.968z M331.1281,435.6
		c0-0.216,0-0.504,0-0.792c0.72-0.432,0.72-0.432,2.376-0.648c0.216,0.144,0.4319,0.36,0.72,0.576
		c-0.216,0.216-0.4319,0.432-0.72,0.648C332.712,435.4561,331.92,435.528,331.1281,435.6L331.1281,435.6z M313.848,435.024
		c0-0.288,0-0.576,0.072-0.936c0.432-0.648,0.864-1.368,1.368-2.088c0.216,0,0.432,0,0.72-0.072
		c-0.4319,0.936-0.864,1.872-1.368,2.88C314.424,434.88,314.136,434.952,313.848,435.024L313.848,435.024z M339.984,434.6641
		c-0.216-0.648-0.432-1.296-0.72-1.944c-0.288-0.072-0.576-0.144-0.936-0.216c-0.936-1.44-1.8719-2.952-2.808-4.464
		c-0.072-0.36-0.144-0.72-0.216-1.152c2.592-0.144,5.184-0.288,7.848-0.432c0.288,0.648,0.288,0.648,1.008,7.128
		c-0.216,0.144-0.504,0.288-0.792,0.504c-0.36,0-0.792-0.072-1.224-0.144C341.424,434.16,340.704,434.376,339.984,434.6641
		L339.984,434.6641z M377.712,434.808c0.792-3.6,0.792-3.6,1.728-5.76c0.216-0.144,0.432-0.288,0.648-0.432
		c0.72,0.072,1.44,0.144,2.16,0.288c0.504,0.288,1.008,0.576,1.512,0.864c-0.072,0.432-0.144,0.936-0.216,1.44
		c-2.304,1.872-2.304,1.872-4.392,3.168C378.72,434.52,378.216,434.6641,377.712,434.808L377.712,434.808z M279.7921,434.16
		c-0.72-0.216-1.512-0.504-2.304-0.792c0.144-0.72,0.288-1.44,0.432-2.16c-0.576-2.088-1.224-4.176-1.872-6.264
		c-0.432-0.504-0.936-1.08-1.44-1.656c-0.072-0.864-0.144-1.728-0.288-2.664c-0.36-0.36-0.72-0.792-1.08-1.224
		c-0.432,0-0.864-0.072-1.368-0.144c-0.36,0.36-0.792,0.792-1.224,1.224c-0.432,1.368-0.864,2.808-1.368,4.248
		c0,0.504,0,1.08,0,1.656c0.6479,1.224,1.296,2.52,1.944,3.816c-0.072,0.216-0.144,0.432-0.216,0.72
		c-0.864,0.144-3.96-0.36-9.2159-0.72c0.288-0.936,0.288-0.936,0.7919-1.44c0.072-0.864,0.144-1.728,0.2161-2.592
		c-0.36-0.288-0.72-0.648-1.08-1.008c-1.872,0.144-1.872,0.144-2.376,0.504c0,0.432-0.0721,0.936-0.144,1.44
		c0.576,0.72,1.152,1.44,1.728,2.16c0,0.144-0.072,0.36-0.144,0.576c-16.776,0.504-28.512,0.504-37.44,0.936
		c-6.12-0.072-12.24-0.144-18.432-0.216c-2.304-0.144-4.608-0.288-6.984-0.504c-5.76,0.072-11.52,0.144-17.28,0.288
		c-4.752-0.216-9.576-0.432-14.4-0.72c-2.88,0.072-5.76,0.144-8.64,0.216c-0.72-0.144-1.44-0.288-2.16-0.504
		c-7.56-0.576-15.192-1.224-22.824-1.872c-1.224-0.288-2.448-0.576-3.744-0.864c0-0.288,0-0.576,0-0.936
		c0.288-0.432,0.648-0.936,1.008-1.44c2.16-1.368,4.392-2.808,6.624-4.248c4.104-0.288,8.28-0.576,12.456-0.936
		c9.576-1.44,9.576-1.44,12.024-1.512c0.288,1.08,0.576,2.16,0.936,3.312c0.936,0.144,0.936,0.144,1.296-0.216
		c0-1.152,0.072-2.376,0.144-3.6c1.08-0.072,2.232-0.144,3.384-0.216c0.072,0.432,0.144,0.936,0.288,1.44
		c0.576,0.648,1.224,1.296,1.872,2.016c1.44,0,1.44,0,1.728-0.36c-0.072-0.648-0.144-1.296-0.216-1.944
		c-0.216-0.288-0.432-0.576-0.72-0.936c0.072-0.36,0.216-0.72,0.36-1.08c4.824-1.008,4.824-1.008,5.76-0.864
		c-0.072,0.144-0.216,0.288-0.36,0.504c0.216,1.656,0.216,1.656,0.72,2.376c0.6479,0.36,0.6479,0.36,3.528,0.576
		c0.288-0.288,0.288-0.288,0.216-1.152c-2.376-1.224-2.376-1.224-3.384-2.016c-0.072-0.216-0.144-0.432-0.216-0.72
		c3.024-0.216,6.048-0.432,9.144-0.648c0.072,0.072,0.144,0.216,0.216,0.36c-0.432,0.576-0.864,1.152-1.368,1.728
		c0,0.36,0.072,0.72,0.144,1.152c0.216,0.072,0.4319,0.216,0.72,0.36c2.016,0.072,4.032,0.144,6.048,0.216
		c2.304-0.288,4.608-0.576,6.912-0.936c1.728-1.08,1.728-1.08,1.944-1.584c0.864,0,1.728,0,2.664-0.072
		c1.008,0.648,2.016,1.296,3.096,2.016c-1.224,1.08-1.224,1.08-3.096,2.016c-0.432,0.648-0.864,1.368-1.368,2.088
		c0,0.36,0,0.792,0,1.224c0.144,0.144,0.36,0.288,0.576,0.432c0.288-0.072,0.648-0.216,1.008-0.36
		c0.216-0.288,0.432-0.576,0.72-0.936c0.216,0,0.432-0.072,0.72-0.144c0,0.288,0,0.648,0.072,1.008c0.36,0.216,0.72,0.432,1.08,0.72
		c0.864-0.504,0.864-0.504,1.944-0.648c0.432,0.072,0.936,0.144,1.44,0.216c0.72-0.432,0.72-0.432,1.224-1.296
		c0.648,0,1.296-0.072,1.944-0.144c0.576-0.792,1.224-1.584,1.872-2.376c1.728-0.936,1.728-0.936,2.448-1.656
		c10.656-0.216,21.384-0.432,32.112-0.72c1.296-0.144,2.592-0.288,3.888-0.504c2.232-4.176,2.232-4.176,3.168-5.4
		c1.944-1.512,3.888-3.096,5.904-4.68c3.384-1.944,4.32-2.88,6.048-3.816c1.656-0.288,3.312-0.648,5.04-1.008
		c2.52-0.072,5.04-0.144,7.632-0.288c-0.072,0.288-0.216,0.576-0.36,0.936c-3.168,2.52-6.336,5.112-9.576,7.704
		c-0.576,0.792-1.152,1.584-1.728,2.376c0,0.288,0,0.576,0,0.936c1.512,1.152,3.024,2.376,4.608,3.6
		c0.288,0.648,0.576,1.296,0.936,1.944c0.72,0.648,1.44,1.296,2.16,1.944c1.944,2.592,1.944,2.592,3.384,5.472
		c0.936,4.608,0.936,4.608,1.872,7.2c-0.072,0.288-0.144,0.648-0.216,1.008C280.8,434.088,280.296,434.088,279.7921,434.16
		L279.7921,434.16z M324.648,432.0001c-0.144-0.144-0.288-0.288-0.504-0.504c0-0.432-0.072-0.864-0.144-1.296
		c0.504-0.288,1.008-0.576,1.584-0.864c1.944-2.376,1.944-2.376,2.6639-2.88c1.2241,0,2.52,0,3.816,0
		c0.288,0.216,0.648,0.432,1.008,0.72c0.72,1.584,1.44,3.168,2.232,4.752c-0.072,0.072-0.216,0.144-0.36,0.216
		c-1.872-0.864-3.816-1.368-4.32-1.8c-1.152,0.216-2.376,0.432-3.6,0.72c-0.36,0.288-0.72,0.576-1.152,0.936
		C325.512,432.0001,325.08,432.0001,324.648,432.0001L324.648,432.0001z M299.952,431.28c-1.08-0.072-2.232-0.216-3.384-0.36
		c0-0.216,0-0.432,0-0.72c1.224-0.144,2.52-0.36,3.816-0.576c0.288,0.144,0.648,0.288,1.008,0.432
		c0.072,0.864,0.072,0.864-0.288,1.224C300.744,431.28,300.384,431.28,299.952,431.28L299.952,431.28z M284.112,431.064
		c-0.864-1.296-0.864-1.296-1.368-2.736c-0.072-0.72-0.144-1.44-0.216-2.16c1.44-1.008,1.44-1.008,2.88-2.664
		c0.072-0.432,0.144-0.936,0.216-1.44c-0.144-0.144-0.288-0.288-0.504-0.504c-0.576,0-1.152-0.072-1.728-0.144
		c-0.432,0.36-0.936,0.792-1.44,1.224c-0.288-0.072-0.648-0.144-1.008-0.216c-1.872-2.808-1.872-2.808-4.536-6.12
		c0.936-0.144,0.936-0.144,4.824,0.36c4.752-0.504,4.752-0.504,5.256-0.288c4.1039,0,4.5359-0.216,6.696,0
		c0.504,0.432,1.008,0.864,1.584,1.368c0,0.216,0,0.432,0,0.72c-1.008,1.224-1.008,1.224-1.8,2.736
		c-0.72,0.072-1.44,0.216-2.16,0.36c0-0.576,0-1.224,0.072-1.872c-0.144-0.144-0.36-0.288-0.576-0.432c-0.432,0-0.936,0-1.44,0
		c-0.36,0.648-0.36,0.648-0.576,2.808c0.288,0.36,0.576,0.792,0.936,1.224c0.864,0.072,1.08-0.144,1.944,0
		c0.936,2.592,1.44,3.312,1.656,4.32c-2.52,0.576-2.52,0.576-4.176,0.576c-0.144,0.216-0.288,0.432-0.504,0.72
		C286.848,429.624,285.48,430.3441,284.112,431.064L284.112,431.064z M310.464,430.3441c-0.216-0.144-0.4319-0.288-0.72-0.504
		c0-0.864-0.072-1.8-0.144-2.736c0.144-0.216,0.288-0.432,0.504-0.72c4.4641-0.36,4.4641-0.36,6.264-0.216
		c0,0.504-0.072,1.008-0.144,1.512c-3.816,0.504-3.816,0.504-4.176,0.864c-0.144,0.432-0.288,0.936-0.504,1.44
		C310.68,430.488,310.68,430.488,310.464,430.3441L310.464,430.3441z M350.064,430.3441c-0.3599-1.08-0.3599-1.08-0.5759-3.456
		c1.08-0.432,1.08-0.432,3.744-0.648c0.288,0,0.576,0.072,0.936,0.144c-0.072,0.36-0.216,0.792-0.36,1.224
		c-0.648,0.72-1.368,1.44-2.0881,2.16C350.28,430.488,350.28,430.488,350.064,430.3441L350.064,430.3441z M68.832,429.1201
		c-5.76-1.944-5.76-1.944-12.744-3.816c-0.36-0.432-0.792-0.936-1.224-1.44c0-0.36,0-0.72,0-1.08c9.144-0.648,9.144-0.648,14.4-0.72
		c0.144,1.44-0.144,2.16-0.144,3.384c0.504,1.872,0.504,1.872,0.432,3.672C69.336,429.1201,69.12,429.1201,68.832,429.1201
		L68.832,429.1201z M196.992,429.1201c-0.432-0.072-0.936-0.216-1.44-0.36c-0.072-0.576-0.144-1.224-0.288-1.872
		c2.016,0,4.032,0,6.048,0c0,0.288-0.072,0.576-0.144,0.936c-0.504,0.288-1.008,0.576-1.584,0.936
		C198.72,428.832,197.856,428.976,196.992,429.1201L196.992,429.1201z M208.944,429.1201c-0.288-0.072-0.576-0.216-0.864-0.36
		c0-0.432,0-0.936,0-1.44c0.216-0.144,0.432-0.288,0.72-0.432c1.656,0,3.312-0.072,4.968-0.144c0,0.36,0,0.72,0.072,1.08
		c-0.576,0.432-1.152,0.864-1.728,1.296C211.104,429.1201,210.024,429.1201,208.944,429.1201L208.944,429.1201z M217.872,429.1201
		c-0.864-0.216-1.728-0.504-2.592-0.792c0-0.432,0.072-0.864,0.144-1.368c1.44-0.216,1.44-0.216,4.824,0
		c0.144,0.216,0.36,0.432,0.576,0.648c-0.072,0.36-0.144,0.72-0.216,1.152C219.744,428.832,218.808,428.976,217.872,429.1201
		L217.872,429.1201z M224.784,428.9041c-0.36-0.072-0.72-0.216-1.152-0.36c0.072-0.432,0.144-0.936,0.216-1.44
		c1.224-0.144,1.224-0.144,1.872,0.216c0,0.36,0.072,0.792,0.144,1.224C225,429.048,225,429.048,224.784,428.9041L224.784,428.9041z
		 M230.112,428.9041c-0.864-0.072-1.728-0.216-2.664-0.36c0-0.36-0.072-0.792-0.144-1.224c0.36-0.144,0.72-0.36,1.08-0.576
		c1.368,0.072,2.736,0.216,4.104,0.36c0,0.36,0,0.792,0.072,1.224C231.984,428.76,231.984,428.76,230.112,428.9041L230.112,428.9041
		z M203.904,428.616c-0.36-0.072-0.72-0.144-1.08-0.288c0-1.008,0-1.008,0.36-1.368c0.864,0,1.728,0,2.664-0.072
		c0,0.432-0.0721,0.936-0.144,1.44C205.128,428.616,205.128,428.616,203.904,428.616L203.904,428.616z M243.072,428.4
		c-2.2321-0.072-4.464-0.144-6.768-0.216c-0.072-0.144-0.216-0.36-0.36-0.576c0.072-0.288,0.144-0.648,0.216-1.008
		c0.576-0.288,1.224-0.576,1.872-0.864c1.512,0,3.024,0,4.536,0c2.664,0.504,2.664,0.504,2.952,0.864c0,0.288,0,0.648,0,1.008
		c-0.288,0.216-0.648,0.504-1.008,0.792C244.08,428.4,243.576,428.4,243.072,428.4L243.072,428.4z M190.008,428.184
		c0-0.504-0.072-1.008-0.144-1.584c0.288-0.144,0.576-0.288,0.864-0.432c1.08,0,2.232,0,3.384,0.072
		c0.144,0.288,0.288,0.576,0.432,0.864c-0.432,0.576-0.432,0.576-1.656,1.08C191.952,428.184,191.016,428.184,190.008,428.184
		L190.008,428.184z M171.072,427.8961c-0.864-0.576-1.728-1.152-2.592-1.728c-0.072-0.576-0.144-1.152-0.216-1.728
		c1.152-0.72,2.304-1.512,3.528-2.304c5.976-0.72,5.976-0.72,6.192-0.936c1.728,0.216,1.944,0.504,3.888,0.936
		c0.936-0.072,1.872-0.144,2.88-0.216c0.288,0.072,0.648,0.216,1.008,0.36c0,0.36,0,0.792,0,1.224
		c-1.728,0.792-1.728,0.792-5.112,3.24c-2.304,0.072-4.608,0.144-6.984,0.216c-0.504,0.288-1.08,0.576-1.656,0.936
		C171.72,427.8961,171.432,427.8961,171.072,427.8961L171.072,427.8961z M159.768,427.176c-0.72-0.432-0.72-0.432-4.5359-1.152
		c-0.576,0.144-1.152,0.288-1.728,0.432c-2.592-0.072-5.256-0.144-7.92-0.216c-0.144-0.072-0.36-0.216-0.576-0.36
		c0-0.936,0-0.936,0.36-1.296c0.288-0.072,0.576-0.144,0.936-0.288c9.648,0.504,9.864,0.288,12.96,0.504
		c1.44,0.504,1.44,0.504,3.744,0.864c0,0.288,0,0.576,0,0.936c-0.36,0.144-0.72,0.36-1.08,0.576
		C161.208,427.176,160.488,427.176,159.768,427.176L159.768,427.176z M140.112,426.4561c-1.008-0.072-2.088-0.144-3.168-0.216
		c-0.36-0.36-0.36-0.36-0.36-1.296c0.504-0.504,0.504-0.504,2.088-0.864c1.08,0,2.16,0,3.312,0c0.144,0.072,0.36,0.216,0.576,0.36
		c-0.216,1.224-0.216,1.224-0.72,1.944C141.264,426.384,140.688,426.384,140.112,426.4561L140.112,426.4561z M124.272,426.2401
		c-8.136-0.864-16.272-1.8-24.48-2.736c0-0.216,0-0.432,0-0.72c4.752-0.072,9.576-0.216,14.4-0.36
		c12.456-1.008,12.456-1.008,15.84-1.008c-0.72,0.648-1.44,1.296-2.16,1.944c-0.648,0.936-1.296,1.872-1.944,2.88
		C125.424,426.2401,124.848,426.2401,124.272,426.2401L124.272,426.2401z M254.088,425.736c-0.72-0.144-1.44-0.288-2.16-0.432
		c0-0.432-0.072-0.864-0.144-1.296c0.72-0.648,1.44-1.296,2.16-1.944c0.288-0.504,0.576-1.08,0.936-1.656
		c0.432-0.288,0.936-0.648,1.44-1.008c0.432,0,0.864-0.072,1.368-0.144c0.072,1.152,0.216,2.304,0.36,3.528
		c-0.4321,0.72-0.936,1.44-1.44,2.16c-0.432,0.216-0.864,0.504-1.296,0.792C254.952,425.736,254.52,425.736,254.088,425.736
		L254.088,425.736z M371.952,425.52c-0.864-2.232-0.864-2.232-1.008-3.24c0.216,0,0.4319,0.072,0.72,0.144
		c0.288,0.432,0.576,0.864,0.864,1.296c0.072,0.576,0.216,1.152,0.36,1.8C372.6,425.52,372.312,425.52,371.952,425.52
		L371.952,425.52z M333.7921,423.864c-1.224-1.584-2.16-3.528-4.104-5.904c-4.6801-8.136-4.6801-8.136-5.688-9.36
		c-0.936-2.376-1.8719-3.816-4.752-10.512c0.216-3.024,0.432-6.048,0.72-9.144c0-3.6,0-7.2,0-10.8
		c0.72-9.36,1.656-31.176,2.88-52.056c0.216-16.344,0-29.52,0.216-48.24c-0.216-25.704-0.216-25.704-0.504-26.64
		c-0.072-1.368-0.144-2.7361-0.288-4.104c0.216,0,0.432,0,0.72,0c5.616,43.416,5.616,43.416,7.056,52.344
		c0.432,8.352,0.432,8.352,2.376,28.8c1.944,17.28,2.664,21.6,3.384,28.512c0.144,2.448,0.288,4.968,0.432,7.488
		c1.0079,3.816,1.0079,3.816,1.944,9.576c0.648,6.12,1.296,12.312,1.944,18.504c0.36,6.336,0.72,12.744,1.1519,19.152
		c1.44,8.208,1.44,8.208,1.728,11.808C342.432,423.576,342.432,423.576,333.7921,423.864L333.7921,423.864z M361.152,423.864
		c0-0.36-0.072-0.72-0.144-1.08c0.288-0.36,0.576-0.72,0.864-1.08c0.432-0.072,0.936-0.144,1.44-0.288c0,0.36,0,0.72,0.072,1.152
		C361.368,424.0081,361.368,424.0081,361.152,423.864L361.152,423.864z M49.824,423.36c-0.36-0.288-0.72-0.576-1.152-0.864
		c0.504,0,1.08,0,1.656-0.072c0.144,0.216,0.288,0.432,0.504,0.72C50.544,423.216,50.184,423.288,49.824,423.36L49.824,423.36z
		 M324.432,423.36c-1.872-0.072-3.816-0.216-5.76-0.36c-0.144-5.976-0.144-5.976,0.216-19.656c0.216,0,0.432,0,0.72,0.072
		c2.52,4.608,5.04,9.216,7.56,13.824c1.08,1.656,2.16,3.312,3.312,5.04c0,0.36,0,0.72-0.072,1.08
		C328.464,423.36,326.448,423.36,324.432,423.36L324.432,423.36z M349.1281,423.504c-0.288-1.512-0.576-3.024-0.864-4.536
		c-0.072-2.232-0.144-4.464-0.216-6.768c-0.144-0.576-0.288-1.224-0.504-1.872c-0.432-5.616-0.936-11.232-1.44-16.848
		c0.072-0.288,0.216-0.576,0.36-0.864c1.944,0,2.8799,0.288,17.28,0.72c2.664,0.288,2.664,0.288,24.048,0.864
		c0,0.432-0.072,0.936-0.144,1.44c-3.888,6.984-12.024,23.04-12.528,23.544c-0.216,0-0.504,0-0.7921,0.072
		c-0.504-0.288-1.08-0.576-1.656-0.936c-0.4319-0.504-0.936-1.08-1.4399-1.656c-1.944-0.504-1.944-0.504-6.264-0.72
		c-0.936,0.432-0.936,0.432-6.48,1.44c-0.648,0.576-1.296,1.152-1.944,1.8c-0.072,1.224-0.216,2.52-0.36,3.816
		c-0.144,0.072-0.36,0.216-0.576,0.36C353.448,423.36,351.288,423.432,349.1281,423.504L349.1281,423.504z M310.248,423.144
		c-0.288-0.072-0.576-0.216-0.864-0.36c-0.504-17.496-0.72-37.656-1.08-45.36c0.216,0.072,0.432,0.144,0.72,0.216
		c3.744,9.36,3.744,9.36,5.616,14.904c0.792,1.656,1.584,3.312,2.448,5.04c0.216,3.6,0.216,3.6,0,16.776
		c-0.504,4.824-0.504,4.824-0.504,8.424c-0.072,0.072-0.2161,0.216-0.36,0.36C314.28,423.144,312.264,423.144,310.248,423.144
		L310.248,423.144z M263.952,422.856c-0.288-0.36-0.648-0.72-1.008-1.08c-0.36-1.656-0.36-1.656-0.36-3.528
		c0.504-0.288,1.0081-0.648,1.584-1.008c0.432,0,0.936-0.072,1.44-0.144c0.36,0.288,0.72,0.576,1.08,0.864c0,0.72,0,1.44,0,2.16
		c-0.432,0.864-0.936,1.728-1.44,2.664C264.816,422.7841,264.384,422.7841,263.952,422.856L263.952,422.856z M94.968,420.264
		c-5.904-0.648-11.808-1.296-17.784-1.944c-3.312-0.936-3.312-0.936-8.856-1.944c-12.456-3.816-12.456-3.816-14.4-4.752
		c-2.88-1.944-6.48-3.888-9.144-5.76c-6.912-3.888-6.912-3.888-9.576-5.76c-2.88-2.88-5.76-5.76-8.64-8.64
		c-3.528-4.392-7.128-8.856-10.728-13.32c-1.872-3.816-2.88-5.04-4.752-9.144c-1.008-1.656-1.008-1.656-2.88-5.976
		C4.32,351.288,4.32,351.288,3.6,348.1201c-0.432-11.16-0.936-22.32-1.44-33.552c0.72-14.904,0.72-14.904,1.008-15.624
		c0.432-4.536,0.432-7.704,0.72-8.136c0.216-3.168,0.432-6.408,0.72-9.648c1.656-10.512,1.656-10.512,3.096-23.76
		c0.432-1.8,0.936-3.6,1.44-5.472c0.432-2.88,0.936-5.76,1.44-8.64c0.432-1.44,0.936-2.88,1.44-4.32
		c0.288-1.872,0.576-3.816,0.936-5.7599c3.888-16.128,3.888-16.128,6.768-26.424c1.224-3.312,2.52-6.696,3.816-10.08
		c1.224-4.104,2.52-8.28,3.816-12.4561c1.08-2.952,2.232-5.904,3.384-8.9279c0.288-1.2961,0.576-2.664,0.936-4.032
		c3.888-9.864,5.76-13.968,7.704-19.224c1.944-3.6,5.76-12.456,6.264-13.176c0.432-1.728,0.432-1.728,2.376-6.048
		c0.936-1.44,1.944-4.032,5.76-11.232c3.816-6.408,7.632-12.816,11.52-19.224c0.648-1.4401,1.296-2.88,1.944-4.3199
		c1.224-2.16,2.52-4.3201,3.816-6.48C72,88.488,72,88.488,74.88,81c3.888-8.856,3.888-8.856,7.704-18.432
		c0.648-0.9359,1.296-1.8719,1.944-2.88c0.576-1.3679,1.224-2.736,1.872-4.1039c0.648-0.864,1.296-1.728,1.944-2.664
		c1.944-4.032,1.944-4.032,5.76-10.8c1.224-1.4399,3.096-4.5359,7.848-10.6559c0.216,0,0.432,0,0.72,0.072
		c-0.936,1.8-1.872,3.672-2.808,5.544c-0.288,0.936-0.576,1.8719-0.936,2.88c-0.648,1.08-1.296,2.2319-1.944,3.384
		c-0.288,0.936-0.576,1.872-0.936,2.88c-0.288,0.36-0.648,0.792-1.008,1.2239c-0.432,1.8721-0.936,3.816-1.44,5.7601
		c-0.144,1.296-0.288,2.664-0.432,4.032c-0.288,0.864-0.648,1.728-1.008,2.664c-1.656,11.304-1.656,11.304-2.376,14.616
		c-0.072,2.3039-0.144,4.608-0.216,6.9839c-0.288,1.944-0.648,3.96-1.008,5.976c0,5.76,0,5.76-0.72,20.448
		c-0.144,0.72-0.288,1.44-0.432,2.16c-0.216,5.976-0.432,11.952-0.72,17.9999c0.72,5.976,0.72,5.976,0.936,12.2401
		c0.504,1.656,1.44,10.08,2.376,14.832c0.216,2.16,0.432,4.32,0.72,6.48c0.288,0.792,0.648,1.584,1.008,2.448
		c1.656,9.36,2.16,11.0161,2.592,14.6161c0.288,0.936,0.648,1.872,1.008,2.88c1.872,10.296,1.872,10.296,2.376,11.304
		c0.792,3.096,1.584,6.192,2.376,9.36c3.888,11.5201,4.824,13.392,6.768,19.152c3.816,9.648,4.32,10.08,6.192,15.408
		c1.008,1.656,1.944,4.536,2.88,6.192c1.944,5.544,2.88,7.2,4.824,12.024c1.944,3.6,2.376,5.04,2.88,5.544
		c3.816,9.792,3.816,9.792,4.824,13.392c1.44,2.88,5.256,12.528,9.072,20.664c1.008,1.656,1.008,1.656,4.824,10.8
		c1.872,3.672,3.816,7.344,5.76,11.016c0.648,0.864,1.296,1.728,1.944,2.664c0.936,2.376,1.872,3.6,2.88,5.76
		c0.288,1.008,0.576,2.016,0.936,3.096c1.944,3.6,1.944,3.6,6.696,14.184c1.944,2.88,1.944,2.88,7.704,13.68
		c2.88,6.696,3.384,7.2,4.32,9.864c1.944,4.032,1.944,4.032,2.88,6.696c0.936,1.656,1.8719,3.312,2.88,5.04
		c0.936,3.6,0.936,3.6,2.88,8.424c0.504,0.432,0.504,0.432,1.44,2.592c0.288,1.008,0.576,2.088,0.936,3.168
		c1.296,2.376,2.592,4.752,3.888,7.2c0.576,1.512,1.224,3.024,1.872,4.536c0.936,1.44,1.872,2.88,2.88,4.32
		c0,0.576,0,1.152-0.072,1.8c-12.24,2.376-19.44,3.312-29.736,5.256c-4.392,0.648-8.784,1.296-13.248,1.944
		c-11.232,0.936-20.16,2.16-31.68,3.096C104.112,419.976,101.232,420.264,94.968,420.264L94.968,420.264z M51.768,419.544
		c-2.88-4.104-2.88-4.104-3.096-4.896c1.152,0.072,2.376,0.144,3.6,0.288c1.296,0.648,2.664,1.296,4.032,1.944
		c4.824,1.44,4.824,1.44,5.04,1.8c-0.216,0.36-0.216,0.36-2.88,0.864C56.232,419.544,54,419.544,51.768,419.544L51.768,419.544z
		 M306.648,418.824c-1.008-0.432-2.016-0.936-3.096-1.44c-1.008-0.792-2.088-1.656-3.168-2.52c-0.144-1.008-0.36-2.016-0.576-3.096
		c-0.216-0.144-0.4319-0.288-0.6479-0.504c-0.576,0-1.2241-0.072-1.872-0.144c-0.936,0.792-1.872,1.584-2.88,2.376
		c-0.504,0-1.08,0-1.656,0c-1.656-1.224-3.312-2.52-5.04-3.816c-1.728-1.728-3.528-3.456-5.3279-5.256c0-0.432,0-0.864,0-1.296
		c0.432-0.288,0.864-0.648,1.296-1.008c2.088-0.864,4.248-1.8,6.408-2.736c0.36-0.576,0.36-0.576,0.36-1.296
		c-0.2159-0.216-0.4319-0.432-0.6479-0.72c-0.4321,0-0.8641-0.072-1.368-0.144c-1.08,0.216-2.232,0.432-3.384,0.72
		c-4.104,0.288-8.28,0.576-12.456,0.936c-1.728,0.504-1.728,0.504-4.824,0.936c-0.792,0.288-1.584,0.648-2.376,1.008
		c-2.376,1.728-4.824,3.456-7.272,5.184c-0.144-0.792-0.36-1.584-0.576-2.448c-0.216,0-0.504-0.072-0.792-0.144
		c-0.72,0.648-2.088,3.312-2.592,3.744c-0.432,1.008-0.936,1.44-1.872,3.168c-0.504,0.504-1.008,1.008-1.584,1.512
		c-1.512,0-3.024,0-4.536-0.072c0.072-1.44,0.36-1.944,0.36-4.32c-0.288-0.288-0.576-0.576-0.864-0.864
		c-0.288,0-0.576,0.072-0.936,0.144c-0.792,1.224-1.584,2.448-2.376,3.672c-2.664-0.216-3.168-0.504-4.104-0.504
		c-1.008,0.792-2.016,1.584-3.096,2.448c-0.72,0-1.44,0-2.16,0c-1.728,0.432-3.528,0.936-5.328,1.44c-2.448,0-4.896,0-7.416,0
		c-0.216-0.216-0.432-0.432-0.72-0.72c-0.504,0-1.08,0-1.656,0.072c-0.216,0.576-0.432,1.152-0.72,1.8c-1.152,0-2.376,0-3.6,0
		c-1.656-0.288-3.312-0.576-5.0399-0.936c-1.368-0.648-2.7361-1.296-4.104-1.944c-0.936-0.144-1.872-0.288-2.88-0.432
		c-0.792-0.288-1.584-0.648-2.376-1.008c-0.864-0.144-1.728-0.288-2.664-0.432c-3.744-6.624-3.744-6.624-4.248-7.056
		c0-0.216,0-0.432,0-0.72c2.16-2.16,4.608-4.104,6.48-6.264c6.048-5.04,6.048-5.04,6.408-5.688c2.664,0,7.92,0.504,37.944,1.44
		c2.016,0.288,4.104,0.648,6.192,1.008c2.736,0.144,5.472,0.288,8.208,0.432c9.576-0.432,9.576-0.432,19.656-0.432
		c5.328,0.288,10.6559,0.576,16.056,0.936c2.664-0.72,2.664-0.72,3.96-1.512c0.216-1.944,0.216-1.944,0-2.664
		c-0.72-0.432-1.44-0.864-2.232-1.368c-1.224,0-2.6641,0.504-5.472,0.432c-0.144-0.576-0.288-1.152-0.432-1.728
		c-1.584-2.88-3.168-5.76-4.824-8.64c-0.288-0.936-0.576-1.872-0.936-2.88c-0.72-0.72-1.728-3.096-4.608-7.92
		c-1.872-4.32-2.88-5.76-18.72-38.592c-0.4321-1.44-0.4321-1.44-2.376-4.608c-5.256-12.672-5.76-13.176-6.264-14.4
		c-1.872-2.88-1.872-2.88-5.76-10.8c-0.576-1.656-1.224-3.312-1.872-5.04c-2.736-5.616-5.472-11.304-8.208-16.992
		c-0.432-1.728-4.32-11.52-4.752-13.248c-1.584-3.024-3.168-6.048-4.824-9.072c-0.144-0.648-0.288-1.296-0.504-1.944
		c-1.224-2.232-2.5201-4.464-3.816-6.696c-7.704-16.56-7.704-16.56-13.464-29.808c-0.936-1.656-1.872-3.312-2.88-5.04
		c-6.192-15.552-6.696-16.056-8.64-21.6c-3.816-8.352-6.696-15.84-8.64-19.872c-0.144-0.648-0.288-1.296-0.432-1.944
		c-1.296-2.664-2.592-5.4-3.888-8.136c-2.376-5.832-4.752-11.664-7.2-17.568c-1.872-3.96-3.816-7.92-5.76-11.952
		c-0.576-1.728-1.224-3.528-1.872-5.328c-2.448-4.752-2.448-4.752-12.528-27.792c-0.288-1.0081-0.576-2.088-0.936-3.168
		c-0.936-1.728-1.872-3.4561-2.88-5.2561c-0.936-2.6639-1.944-4.3199-5.76-12.96c-0.288-1.08-0.576-2.232-0.936-3.384
		c-1.296-3.024-2.592-6.048-3.888-9.072c-1.224-2.304-2.52-4.608-3.816-6.984c-1.224-2.952-2.52-5.904-3.816-8.8561
		c-0.36-0.288-0.792-0.6479-1.224-1.0079c-1.44-16.776-2.88-28.8-3.24-34.776c0.216,0,0.432,0,0.72,0.072
		c2.736,4.968,2.736,4.968,7.56,12.672c1.944,4.3199,2.88,5.7599,4.824,10.08c1.296,1.872,2.664,3.816,4.032,5.76
		c1.872,3.24,3.816,6.48,5.76,9.792c3.888,7.92,7.704,14.9039,8.208,15.408c7.632,16.056,7.632,16.056,15.336,31.392
		c0.936,2.664,2.88,6.48,3.816,9.144c9.648,18.72,11.52,23.04,15.408,30.456c4.752,10.584,4.752,10.584,20.16,42.264
		c5.112,10.224,10.224,20.448,15.336,30.744c3.816,8.64,3.816,8.64,11.52,24.48c3.816,7.2,7.704,15.552,17.28,34.056
		c1.944,4.536,1.944,4.536,3.816,8.136c0.648,1.728,1.296,3.528,1.944,5.328c3.816,7.416,9.576,20.16,10.584,21.816
		c0.936,2.88,4.752,11.304,6.696,16.56c3.816,7.92,6.696,14.616,8.64,18c2.52,5.328,5.1119,10.6559,7.704,16.056
		c3.816,9.648,4.32,10.368,5.256,13.248c0.6479,1.44,1.296,2.88,1.944,4.32c0.288,8.928,0.576,17.856,0.936,26.856
		c0,6.768,0,13.536,0,20.376C306.864,418.968,306.864,418.968,306.648,418.824L306.648,418.824z M275.472,413.496
		c-0.72-0.144-1.44-0.288-2.16-0.432c-0.144-0.144-0.288-0.288-0.504-0.504c0-0.432-0.072-0.864-0.144-1.296
		c0.72-0.792,1.44-1.584,2.16-2.376c1.368-1.08,2.808-2.16,4.248-3.312c0.936,0,0.936,0,1.872,0.504
		c1.44,1.656,2.88,3.312,4.32,5.04c0.7919,0.72,1.584,1.44,2.4479,2.16C287.424,413.496,283.392,413.28,275.472,413.496
		L275.472,413.496z M44.064,409.6801c-0.432-0.216-0.864-0.504-1.296-0.792c0-0.216-0.072-0.432-0.144-0.72
		c0.36,0.072,0.792,0.144,1.224,0.288c0.288,0.288,0.576,0.648,0.936,1.008C44.568,409.536,44.352,409.608,44.064,409.6801
		L44.064,409.6801z M190.944,400.104c-0.936-1.224-0.936-1.224-4.68-8.784c-0.144-0.72-0.36-1.44-0.576-2.16
		c2.16,0,4.32-0.072,6.48-0.144c3.168,0.432,6.336,0.864,9.576,1.368c0,0.216-0.072,0.432-0.144,0.72
		c-3.24,2.952-6.48,5.904-9.792,8.856C191.52,399.96,191.232,400.032,190.944,400.104L190.944,400.104z M317.2321,393.48
		c-0.8641-1.656-6.624-16.776-9.072-22.032c-0.216-7.056-0.432-14.112-0.72-21.168c-0.72-51.552-0.72-51.552-0.72-75.096
		c1.008-8.64,1.44-16.776,2.448-27.144c0-3.384,0-6.84,0-10.2961c1.44-17.28,1.44-17.28,1.872-27.864c0-2.664,0-5.4,0-8.136
		c0.72-8.64,0.72-8.64,1.728-28.584c0-5.112,0.072-10.224,0.144-15.336c0.216,0,0.432,0,0.72,0
		c1.872,15.912,3.744,31.824,5.616,47.736c0.144,2.448,0.288,4.968,0.432,7.488c0.36,2.736,0.7921,5.544,1.224,8.352
		c-0.144,8.28-0.288,16.632-0.504,24.984c0.504,5.544,0.504,5.544,1.008,17.28c0,40.824,0,40.824-0.288,66.456
		c-0.4319,7.92-0.72,9.144-2.592,46.08c-0.504,16.344-0.504,16.344-0.72,17.28C317.448,393.768,317.448,393.768,317.2321,393.48
		L317.2321,393.48z M358.992,389.52c-4.32-0.216-5.544-0.504-10.368-0.504c-0.864-0.144-1.728-0.36-2.592-0.576
		c-0.144-2.016-0.288-4.104-0.4319-6.192c-0.432-2.016-0.936-4.032-1.44-6.048c-0.936-8.352-0.936-8.352-1.4401-10.512
		c-1.6559-21.168-1.6559-21.168-1.6559-23.76c-0.432-3.744-0.936-7.488-1.44-11.304c0.216-1.656,0.216-1.656-0.504-11.016
		c-0.72-2.448-0.72-2.448-1.152-5.544c-0.504-8.856-0.504-8.856-1.44-17.28c-0.288-1.728-0.648-3.456-1.008-5.256
		c-0.288-3.168-0.576-6.408-0.936-9.648c-0.504-1.44-0.504-1.44-1.44-9.36c-2.376-26.64-2.376-26.64-2.88-29.016
		c-0.144-0.288-0.288-0.576-0.504-0.936c-0.288-3.24-0.576-6.552-0.936-9.864c-0.936-6.624-1.872-13.248-2.88-19.944
		c-0.504-7.2-1.08-14.4-1.656-21.6c-0.144-0.576-0.288-1.224-0.504-1.872c-0.072-1.584-0.144-3.168-0.2159-4.824
		c0.072-0.36,0.2159-0.72,0.36-1.08c0.216,0,0.432,0,0.72,0.072c2.232,4.608,2.232,4.608,2.736,6.552
		c7.704,18.936,13.464,32.112,14.4,34.992c0.648,1.152,1.296,2.376,1.944,3.6c1.872,5.04,6.696,16.128,7.632,19.008
		c5.3279,12.672,5.3279,12.672,5.3279,13.392c-1.44,1.008-1.44,1.008-14.5439,7.56c-0.36,0.864-0.36,0.864-0.576,2.808
		c0.4319,1.152,0.4319,1.152,0.864,1.512c0.432,0,0.936,0,1.44,0c3.096-1.224,6.192-2.52,9.36-3.816
		c1.728-0.936,3.4559-1.872,5.256-2.88c0.288,0,0.5759,0,0.936,0.072c1.8,3.888,1.8,3.888,10.944,27.432
		c0.36,1.728,0.72,3.456,1.152,5.256c-1.152,0.648-2.376,1.296-3.6,1.944c-5.112,1.728-5.112,1.728-9.648,3.672
		c-3.6,1.944-3.6,1.944-4.32,2.736c0,0.792-0.072,1.584-0.144,2.448c0.432,0.576,0.864,1.152,1.296,1.8c0.432,0,0.936,0,1.44,0
		c2.16-0.648,4.32-1.296,6.48-1.944c1.44-0.936,3.168-1.44,6.9839-3.384c0.72-0.216,1.44-0.432,2.16-0.72
		c0.576,0,1.152,0.072,1.8,0.144c0.432,1.728,0.936,2.664,1.44,4.824c0.576,1.224,1.224,2.52,1.872,3.816
		c2.88,8.424,2.88,8.424,8.928,24.048c0,0.288,0,0.576,0,0.936c-8.784,4.68-11.16,5.616-12.6,6.552
		c-3.096,0.504-3.096,0.504-4.32,1.008c-0.072,0.144-0.216,0.36-0.36,0.576c0,1.296,0,2.592,0,3.888
		c0.36,0.144,0.72,0.36,1.08,0.576c1.2241,0,1.2241,0,4.32-1.008c4.4641-2.016,8.928-4.104,13.4641-6.192c0.288,0,0.576,0,0.936,0
		c1.296,3.24,2.232,4.896,4.68,10.944c0.432,1.8719,0.432,1.8719,4.32,11.232c0.936,1.728,0.936,1.728,3.816,9.864
		c0.144,0.792,0.288,1.584,0.504,2.376c0.936,1.728,1.872,4.608,2.376,5.328c0.36,1.224,0.792,2.52,1.224,3.816
		c-1.08,0.36-1.08,0.36-11.376,0.792c-5.04-0.216-5.04-0.216-20.88,0C364.968,389.52,364.968,389.52,358.992,389.52L358.992,389.52z
		 M265.104,388.584c-2.16-0.288-4.32-0.648-6.48-1.008c-23.976-0.936-48.24-2.376-51.84-2.376
		c-6.336-0.648-12.744-1.296-19.152-1.944c-1.512-0.288-3.024-0.576-4.608-0.936c-0.288-0.36-0.576-0.72-0.936-1.08
		c-0.576-1.872-1.152-3.816-1.8-5.76c-0.792-1.224-1.584-2.52-2.448-3.816c-1.872-4.824-5.76-13.176-6.696-15.84
		c-3.816-6.696-7.92-14.904-8.856-16.056c-2.088-4.896-4.1761-9.7921-6.264-14.688c-0.648-4.176-1.296-8.424-1.944-12.672
		c-0.072-3.024-0.144-6.048-0.216-9.144c-0.72-6.984-2.376-18.72-4.104-36.216c-0.432-7.704-0.72-8.424-2.592-34.344
		c-0.288-0.936-0.72-7.416-1.944-16.776c-0.648-9.432-1.296-18.864-1.944-28.368c-0.432-4.464-0.936-8.928-1.44-13.392
		c-0.576-12.168-1.224-24.336-1.872-36.504c-0.504-3.096-4.824-57.816-5.328-60.984c-0.72-13.176-0.72-13.176-0.72-20.88
		c0.288,0,0.576,0,0.864,0c3.744,7.2,3.744,7.2,7.56,15.624c1.224,3.312,2.52,6.6959,3.816,10.08
		c2.52,5.544,5.112,11.16,7.704,16.776c0.936,2.88,1.44,3.6,2.376,6.264c2.88,5.976,3.384,7.704,5.76,12.4559
		c0.504,0.504,2.448,5.5441,4.32,9.144c0.648,1.7281,1.296,3.4561,1.944,5.256c8.64,18.288,8.64,18.288,10.08,22.104
		c0,0.36,0,0.72-0.0721,1.08c-2.232,0.576-4.464,1.224-6.768,1.872c-3.888,1.872-7.776,3.816-11.736,5.76
		c0,0.504-0.072,1.008-0.144,1.584c0.144,0.216,0.36,0.432,0.576,0.72c0.576,0,1.152,0.072,1.728,0.144
		c4.752-1.872,9.576-3.816,14.4-5.76c1.224-0.216,2.5201-0.432,3.816-0.72c1.224,2.52,2.448,5.04,3.744,7.56
		c7.632,18.72,11.52,27.36,15.336,36.936c1.944,4.104,3.816,8.928,7.704,16.848c7.632,17.496,7.632,17.496,9.072,20.16
		c0.072,0.504,0.144,1.08,0.288,1.656c-1.08,0.648-2.16,1.296-3.2401,1.944c-4.32,1.728-5.976,2.736-11.016,4.608
		c-3.6,1.944-3.6,1.944-6.048,2.88c-0.576,0.504-1.152,1.008-1.8,1.584c0,0.288,0,0.648,0,1.008c0.504,0.432,0.504,0.432,1.8,0.576
		c1.296-0.288,2.592-0.648,3.888-1.008c8.856-3.816,12.672-5.76,17.28-7.632c0.432,0,0.936-0.072,1.44-0.144
		c0.288,1.224,0.288,1.224,9.936,20.16c0.432,1.944,0.432,1.944,5.256,14.184c2.52,5.256,5.112,10.512,7.704,15.84
		c0.576,1.8,1.224,3.672,1.872,5.544c1.944,3.816,2.448,4.32,6.264,11.952c-0.0721,0.288-0.144,0.648-0.216,1.008
		c-3.168,1.224-6.336,2.448-9.504,3.672c-1.224,0.648-2.52,1.296-3.816,1.944c-0.648,0.144-1.296,0.288-1.944,0.432
		c-4.032,1.944-4.032,1.944-4.752,2.52c0,0.2881-0.072,0.648-0.144,1.008c0.504,0.36,1.008,0.72,1.584,1.08c0.504,0,1.08,0,1.656,0
		c1.44-0.648,2.88-1.296,4.32-1.944c4.608-1.512,9.216-3.024,13.896-4.536c0.432,0,0.936,0,1.44,0.072
		c1.224,2.952,2.448,5.904,3.744,8.928c0.936,1.224,1.872,3.6,4.752,8.64c2.88,6.696,3.888,8.424,4.32,9.864
		c1.008,1.872,1.44,3.312,2.448,4.752c1.224,2.808,2.52,5.616,3.816,8.424c3.168,6.0479,6.336,12.096,9.576,18.216
		c0.6479,1.584,1.296,3.168,1.944,4.824c0.936,1.728,1.872,3.456,2.88,5.256c0.072,0.432,0.144,0.936,0.2159,1.44
		C278.928,388.4401,272.0161,388.512,265.104,388.584L265.104,388.584z M141.984,296.64c-0.864-1.296-7.056-14.976-7.344-15.192
		c-1.872-5.328-2.88-7.488-4.752-13.248c-1.944-4.32-1.944-4.32-2.88-7.416c-3.888-7.92-5.76-12.456-6.264-13.176
		c-5.76-13.968-5.76-13.968-6.696-17.064c-3.888-8.64-4.824-11.5201-5.76-13.464c-4.824-14.112-5.76-18-7.92-24.192
		c-0.504-3.6-1.44-7.488-2.16-12.24c-0.288-0.936-0.648-1.872-1.008-2.88c-0.576-3.672-1.224-7.3441-1.872-11.088
		c-0.648-2.304-1.296-4.608-1.944-6.912c-0.936-6.624-1.872-13.248-2.88-19.944c-0.288-3.96-0.576-7.992-0.936-12.024
		c0.72-18.432,0.72-18.432,1.152-21.312c-0.072-1.656-0.144-3.312-0.216-5.04c0.144-0.936,0.288-1.872,0.504-2.88
		c0.36-7.5599,0.72-15.192,1.152-22.824c1.944-11.016,2.448-15.3359,2.88-17.064c0.504-0.936,1.44-6.192,2.88-11.2321
		c2.52-5.184,5.112-10.3679,7.704-15.624c8.136-10.5839,8.136-10.5839,13.176-16.56c0.36-0.072,0.72-0.144,1.152-0.2159
		c0.216,2.664,0.504,5.4,0.792,8.136c0.144,5.04,0.288,10.0799,0.504,15.12c1.44,15.12,2.376,30.9599,2.88,33.624
		c0.936,15.84,1.44,19.152,2.88,44.352c0.504,5.4,1.08,10.872,1.656,16.344c0.288,7.416,0.576,14.832,0.936,22.32
		c0.288,3.096,0.648,6.192,1.008,9.36c0.576,9.864,1.224,19.8,1.872,29.7361c0.144,0.576,0.288,1.1519,0.504,1.728
		c1.944,18.936,1.944,18.936,3.816,41.472c0,2.736,0,5.472,0,8.208c0.432,4.68,0.936,9.36,1.44,14.112
		c0.288,1.152,0.648,2.376,1.008,3.6c0.288,3.96,0.576,7.992,0.936,12.024c0.288,1.44,0.576,2.88,0.936,4.32
		c1.008,9.576,1.008,9.576,1.44,17.064C142.2,296.784,142.2,296.784,141.984,296.64L141.984,296.64z M322.488,245.88
		c0-0.72-0.072-1.44-0.144-2.16c0.072-0.072,0.2159-0.144,0.36-0.216c0,0.792,0.072,1.584,0.144,2.376
		C322.776,245.88,322.632,245.88,322.488,245.88L322.488,245.88z"/>
</g>
</svg>
