<?xml version="1.0" encoding="utf-8"?>
<!-- Generator: Adobe Illustrator 21.1.0, SVG Export Plug-In . SVG Version: 6.00 Build 0)  -->
<svg version="1.1" id="Cli" xmlns="http://www.w3.org/2000/svg" xmlns:xlink="http://www.w3.org/1999/xlink" x="0px" y="0px"
	 viewBox="0 0 429.12 397.152" enable-background="new 0 0 429.12 397.152" xml:space="preserve">
<g>
	<path fill-rule="evenodd" clip-rule="evenodd" d="M35.208,397.152c-2.592-0.288-5.256-0.576-7.92-0.936
		c-2.88-0.648-5.76-1.296-8.64-1.944c-4.032-1.224-8.136-2.52-12.24-3.816c-1.8-0.792-3.672-1.584-5.544-2.376
		c-0.288-0.648-0.576-1.296-0.864-2.016c0.504-1.584,1.08-3.168,1.656-4.824c0.792-1.368,1.584-2.736,2.448-4.104
		c0.72-0.432,0.72-0.432,1.8-0.576c1.656,0.576,3.312,1.224,5.04,1.872c4.68,1.296,9.432,2.592,14.184,3.888
		c5.76,0.936,5.76,0.936,15.336,1.872c5.04-0.216,8.424-0.72,22.824-1.656c4.536-0.936,4.536-0.936,14.4-3.816
		c2.16-1.008,7.92-2.88,17.28-6.768c5.328-1.872,10.656-3.816,16.056-5.76c3.744-0.936,7.488-1.872,11.304-2.88
		c2.736-0.432,5.544-0.936,8.352-1.44c3.888-0.072,7.848-0.144,11.808-0.216c4.176,0.288,8.424,0.576,12.672,0.936
		c2.304,0.288,4.608,0.648,6.984,1.008c2.448,0.576,4.896,1.224,7.416,1.872c9.864,3.888,9.864,3.888,23.76,8.64
		c1.152,0.648,2.376,1.296,3.6,1.944c2.088,0.432,4.176,0.936,6.264,1.44c13.464,0.504,13.464,0.504,30.744,0.72
		c3.6-0.288,7.2-0.576,10.8-0.936c9.36-1.944,9.36-1.944,12.672-2.88c2.52-1.296,5.112-2.592,7.704-3.888
		c0.936-0.72,1.872-1.44,2.88-2.16c8.568-4.464,17.136-8.928,25.704-13.392c3.96-1.296,7.92-2.592,11.952-3.888
		c1.512-0.288,3.024-0.576,4.608-0.936c5.472-0.648,11.016-1.296,16.56-1.944c2.88,0.576,5.76,1.152,8.64,1.728
		c5.832,1.872,11.664,3.816,17.496,5.76c2.664,1.224,5.4,2.52,8.136,3.816c6.048,1.944,6.048,1.944,9.864,2.88
		c1.584,0.648,3.168,1.296,4.824,1.944c10.296,2.88,10.296,2.88,15.12,3.816c1.44,0.144,2.88,0.288,4.32,0.504
		c2.664,0,5.4,0,8.136,0c4.464-0.648,8.9279-1.296,13.464-1.944c1.944-0.648,3.96-1.296,5.976-1.944
		c1.584-0.72,3.168-1.44,4.824-2.16c0.2159,0,0.504,0.072,0.792,0.144c0.216,0.36,0.432,0.792,0.72,1.224c0,0.792,0,1.584,0,2.376
		c-0.144,0.36-0.288,0.792-0.504,1.224c0.144,1.872,0.288,3.816,0.504,5.76c-0.216,0.648-0.432,1.296-0.72,1.944
		c0,0.432,0,0.936,0,1.44c-0.432,0.504-0.864,1.008-1.296,1.512c-5.544,1.944-5.544,1.944-12.744,3.816
		c-3.384,0.432-6.84,0.936-10.2961,1.44c-4.32,0.144-8.64,0.288-12.96,0.504c-0.648,0.144-1.296,0.288-1.944,0.504
		c-3.168-0.576-6.336-1.152-9.576-1.728c-3.024-1.224-6.048-2.52-9.144-3.816c-3.888-2.232-7.776-4.464-11.736-6.696
		c-5.256-1.944-5.256-1.944-18.504-7.704c-4.608-0.864-9.216-1.728-13.896-2.664c-4.32,0-4.32,0-8.856,0.504
		c-4.104,0.936-4.104,0.936-16.848,4.824c-5.472,2.52-11.016,5.04-16.56,7.632c-14.616,7.704-14.616,7.704-18.936,9.648
		c-2.808,0.792-5.616,1.584-8.424,2.376c-1.224,0.144-2.52,0.288-3.816,0.504c-1.656,0.576-3.312,1.224-5.04,1.872
		c-3.528,0.792-7.056,1.584-10.584,2.448c-9.36,0.432-9.36,0.432-23.976,0.432c-5.976-0.936-10.08-1.872-19.224-3.312
		c-2.52-0.792-5.04-1.584-7.632-2.448c-1.512-0.144-3.024-0.288-4.608-0.432c-3.096-1.296-6.192-2.592-9.36-3.888
		c-4.68-1.584-9.36-3.168-14.112-4.752c-1.584-0.288-3.168-0.648-4.824-1.008c-8.64-0.936-8.64-0.936-20.16-1.656
		c-3.168,0.216-6.336,0.432-9.576,0.72c-1.728,0.288-3.528,0.576-5.328,0.936c-2.304,0.648-4.608,1.296-6.912,1.944
		c-12.24,4.464-24.48,8.928-36.72,13.464c-7.704,1.872-8.928,2.376-14.184,3.312c-1.152,0.288-2.376,0.648-3.6,1.008
		c-2.88,0.288-5.76,0.576-8.64,0.936C43.992,397.008,39.6,397.08,35.208,397.152L35.208,397.152z M224.28,372.24
		c-0.432-0.288-0.432-0.288-13.68-1.224c-4.752-0.936-6.192-1.44-14.112-2.88c-0.72-0.504-0.72-0.504-8.208-2.376
		c-10.8-3.888-10.8-3.888-14.112-5.328c-4.176-1.224-8.352-2.52-12.528-3.816c-3.6-0.648-7.2-1.296-10.8-1.944
		c-3.888-0.432-7.776-0.936-11.736-1.44c-4.032-0.072-8.136-0.144-12.24-0.216c-5.688,0.936-11.376,1.872-17.064,2.88
		c-0.864,0.288-1.728,0.576-2.592,0.936c-6.048,3.888-6.048,3.888-8.208,5.544c-1.08,0-2.16,0-3.312,0
		c-0.648-0.288-1.296-0.576-1.944-0.936c-1.584-1.296-3.168-2.592-4.824-3.888c-2.88-3.312-5.76-6.696-8.64-10.08
		c-2.16-2.016-4.32-4.104-6.48-6.192c-7.416-5.76-7.416-5.76-10.512-7.704c-5.472-2.52-11.016-5.112-16.56-7.704
		c-4.68-1.872-9.432-3.816-14.184-5.76c-3.888-1.224-7.776-2.52-11.736-3.816c-1.512-0.792-3.024-1.584-4.608-2.376
		c-0.36-0.576-0.36-0.576-0.576-2.5201c0.288-0.864,0.576-1.728,0.936-2.664c1.944-2.592,1.944-2.592,3.24-3.6
		c1.728-0.36,1.728-0.36,6.048-0.36c2.88,0.936,11.952,4.824,14.4,5.544c0.432,0,0.936,0,1.44,0c0.144-0.216,0.288-0.432,0.432-0.72
		c3.456-2.52,6.912-5.112,10.368-7.704c9.36-7.7039,9.36-7.7039,18.216-15.624C78.552,278.136,86.4,270,94.248,261.792
		c7.632-9.576,9.576-11.5201,13.392-16.272c0.648-0.648,1.296-1.296,1.944-1.944c2.016-2.952,4.032-5.976,6.12-9
		c0.072-0.792,0.144-1.584,0.216-2.376c0.288-0.36,0.576-0.72,0.864-1.08c1.152-0.288,2.376-0.6479,3.6-1.008
		c4.464-0.576,8.928-1.224,13.464-1.872c14.4-3.888,14.4-3.888,19.872-5.76c4.968-1.872,9.936-3.816,14.904-5.76
		c2.592-1.296,5.256-2.592,7.92-3.888c3.2401-1.872,6.552-3.816,9.864-5.7599c8.856-3.816,8.856-3.816,11.736-4.752
		c3.384-1.8,6.84-3.672,10.296-5.544c0.864-0.144,1.728-0.288,2.664-0.504c0.504,0.072,1.08,0.144,1.656,0.288
		c1.224,1.08,1.224,1.08,1.584,1.8c0,1.656-1.008,6.264-1.44,10.296c-0.648,3.24-1.2961,6.552-1.944,9.864
		c-7.704,30.024-7.704,30.024-9.576,36c-3.888,9.576-3.888,9.576-5.76,15.12c-0.288,1.368-0.648,2.736-1.008,4.104
		c-0.936,1.656-0.936,1.656-9.0721,23.256c-3.888,7.416-3.888,7.416-8.64,17.28c-1.944,2.16-1.944,2.16-4.32,4.104
		c-3.672,1.224-7.416,2.448-11.16,3.672c-17.064,4.824-17.064,4.824-19.656,5.76c-3.168,0.648-6.408,1.296-9.648,1.944
		c-0.72,0-1.44,0-2.16,0c-0.792-0.648-1.584-1.296-2.376-1.944c-0.432-0.648-0.936-1.296-1.44-2.016
		c0-0.648-0.072-1.296-0.144-1.944c0.936-2.376,0.936-2.376,1.944-7.2c0.576-1.44,1.224-2.88,1.872-4.32
		c0.432-0.576,0.864-1.152,1.368-1.8c1.008-0.072,2.016-0.144,3.096-0.216c0.144-0.144,0.288-0.288,0.504-0.504
		c2.448-0.648,4.896-1.296,7.416-1.944c4.608-1.872,4.608-1.872,8.424-3.816c2.52-1.872,5.112-3.816,7.704-5.76
		c1.224-1.368,2.52-2.736,3.816-4.104c1.512-2.232,3.096-4.464,4.68-6.768c2.376-6.408,4.752-12.816,7.2-19.224
		c0.576-2.448,1.224-4.896,1.872-7.416c0.288-0.576,0.6479-1.152,1.008-1.728c2.88-9.36,2.88-9.36,3.816-11.52
		c3.816-15.336,3.816-15.336,5.76-21.6c0.144-1.08,0.288-2.16,0.504-3.312c0.936-2.448,0.936-2.448,2.736-9.36
		c-0.576,0.072-1.224,0.144-1.872,0.288c-3.384,1.944-3.384,1.944-4.4641,3.024c-0.288,0.936-0.648,1.872-1.008,2.88
		c-1.08,5.472-2.16,11.0161-3.312,16.56c-1.872,7.344-3.816,14.688-5.76,22.104c-3.888,11.0161-3.888,11.0161-5.76,15.624
		c-2.52,5.256-5.112,10.512-7.704,15.84c-1.296,1.656-2.592,3.312-3.96,5.04c-0.72,0.72-1.512,1.44-2.304,2.16
		c-0.576,0.936-1.224,1.872-1.872,2.88c-2.736,1.728-2.736,1.728-4.896,2.736c-3.168,0.936-3.168,0.936-12.24,2.88
		c-3.888,1.224-7.848,2.5201-11.808,3.816c-9.864,1.872-19.8,3.816-29.736,5.76c-4.968,0.648-9.936,1.296-14.904,1.944
		c-9.36,1.8719-9.36,1.8719-11.304,2.52c0,0.288,0,0.576,0,0.936c3.168,1.224,6.408,2.448,9.648,3.744
		c4.536,1.224,9.072,2.52,13.68,3.816c10.584,2.52,21.24,5.112,31.896,7.704c23.04,3.816,23.04,3.816,33.12,5.76
		c3.168,0.936,3.168,0.936,12.96,2.88c3.456,0.144,6.912,0.288,10.368,0.432c2.232,0.288,4.464,0.648,6.696,1.008
		c4.104-0.288,8.136,0,13.176-0.288c3.96,0.072,7.992,0.144,12.024,0.288c1.008-0.144,2.016-0.288,3.096-0.504
		c1.44,0.072,2.88,0.144,4.32,0.216c1.368-0.144,2.736-0.288,4.104-0.432c4.824,0.216,4.824,0.216,13.464,0
		c8.136-1.44,8.136-1.44,11.952-2.448c2.016-0.144,4.032-0.288,6.048-0.432c0.36-0.144,0.72-0.288,1.152-0.504
		c2.808-0.288,5.616-0.576,8.424-0.936c11.016-1.944,18-2.88,23.256-3.888c1.44,0.288,1.44,0.288,11.304,0.72
		c7.272-0.216,14.544-0.432,21.816-0.72c2.16-0.288,4.32-0.576,6.48-0.936c5.544-0.216,5.544-0.216,6.48,0
		c0.504,1.512,1.008,3.096,1.584,4.68c0,0.576,0,1.152,0,1.728c-0.288,0.4319-0.648,0.936-1.008,1.44
		c-0.72,0.144-1.44,0.36-2.232,0.576c-0.7921-0.144-1.584-0.288-2.376-0.504c-4.608,0-9.288,0-13.968,0
		c-2.16,0.144-4.32,0.288-6.48,0.504c-5.112,1.224-10.224,2.52-15.336,3.816c-3.168,1.224-6.336,2.52-9.576,3.816
		c-4.248,2.52-8.496,5.112-12.744,7.704c-3.888,1.872-7.776,3.816-11.736,5.76c-6.984,1.944-6.984,1.944-15.84,3.816
		c-2.2321,0.288-4.464,0.648-6.768,1.008c-1.944,0.576-3.96,1.224-5.976,1.872C228.024,372.024,226.152,372.0959,224.28,372.24
		L224.28,372.24z M211.104,341.712c-27.36-2.376-27.36-2.376-30.456-2.88c-4.104-1.872-4.104-1.872-7.2-2.88
		c-0.792-0.576-1.584-1.224-2.448-1.872c-0.576-1.008-1.152-2.016-1.8-3.024c0.072-0.864,0.144-1.728,0.216-2.592
		c0.648-1.08,1.296-2.232,1.944-3.384c1.224-1.512,2.52-3.024,3.816-4.536c4.104-3.888,4.104-3.888,7.92-8.208
		c1.872-2.88,3.816-5.7599,5.76-8.64c1.296-2.664,2.592-5.4,3.888-8.136c3.816-9.576,3.816-9.576,11.52-31.176
		c1.872-6.768,1.872-6.768,5.76-24.048c3.816-23.472,4.752-31.68,5.76-37.1519c0.288-3.096,0.576-6.192,0.936-9.36
		c0.288-0.432,0.576-0.936,0.936-1.44c0.792-0.648,1.584-1.296,2.448-1.944c0.936-1.08,1.872-2.232,2.88-3.384
		c0.576-1.44,1.224-2.88,1.872-4.32c1.944-6.696,1.944-6.696,3.384-12.96c0.936-1.656,0.936-1.656,2.16-2.88
		c2.736-1.224,5.472-2.448,8.28-3.744c3.168-1.728,6.408-3.456,9.6479-5.256c10.5121-7.7039,10.5121-7.7039,20.376-14.4
		c0.36,0.072,0.792,0.144,1.224,0.216c0.432,0.288,0.936,0.648,1.44,1.008c0.216,0.504,0.504,1.008,0.792,1.584
		c-0.144,4.464-0.288,8.928-0.504,13.392c0.288,5.544,0.288,5.544,0.288,13.464c-1.008,11.52-1.944,18.936-2.16,23.544
		c-1.008,5.04-1.44,10.08-1.944,12.456c-0.2881,2.808-0.576,5.616-0.936,8.424c-1.2961,7.416-2.592,14.832-3.888,22.32
		c-3.816,15.12-3.816,15.12-7.632,28.296c-1.296,4.032-2.592,8.136-3.888,12.24c-3.168,8.136-6.336,16.272-9.576,24.48
		c-1.08,3.6-2.232,7.2-3.384,10.8c-0.144,1.152-0.288,2.376-0.432,3.6c-0.144,0.216-0.288,0.432-0.504,0.72
		c-3.096,0.576-6.264,1.152-9.432,1.8c-5.688,0.576-11.376,1.224-17.064,1.872c-2.52,0.648-5.112,1.296-7.704,1.944
		c-3.744,1.224-7.488,2.52-11.2321,3.816c-0.504,0.504-0.504,0.504-0.648,1.368c1.296,0.576,2.592,1.152,3.96,1.8
		c1.656,0.216,3.312,0.432,5.04,0.72c2.952,0,5.904,0,8.928,0c16.272-1.44,16.272-1.44,18.216-1.944
		c4.32-3.816,4.32-3.816,8.424-7.92c3.816-4.824,3.816-4.824,5.76-7.7039c1.872-3.6721,1.872-3.6721,5.616-13.248
		c1.8719-5.904,3.816-11.808,5.76-17.784c1.872-5.184,3.816-10.368,5.76-15.624c1.872-6.912,3.816-15.84,7.632-30.456
		c0.648-3.024,1.296-6.048,1.944-9.144c0.432-4.464,0.936-8.928,1.44-13.392c2.88-16.848,2.88-16.848,3.816-24.048
		c0.504-0.936,0.504-0.936,1.368-1.44c0.936,0,1.8719-0.072,2.88-0.144c1.008,0.144,2.016,0.288,3.096,0.504
		c1.44,0.432,2.88,0.936,4.32,1.44c1.656,1.5121,3.312,3.024,5.04,4.536c0.288,0,0.648,0,1.008,0
		c1.224-1.728,2.448-3.528,3.672-5.328c0.504-3.6,1.44-17.28,2.376-26.424c0.144-3.96,0.288-7.992,0.504-12.024
		c0.648-6.696,1.296-13.392,1.944-20.16c0.144-3.816,0.288-7.632,0.432-11.52c-0.432-22.752-0.432-22.752-0.36-42.912
		c-0.36,1.512-0.72,3.024-1.08,4.5359c-0.432,18.2161-0.432,18.2161-0.72,19.2241c-0.576,6.696-1.224,13.392-1.872,20.16
		c-0.288,6.264-0.648,12.6-1.008,18.936c-1.872,17.28-3.816,30.456-4.752,40.32c-0.288,0.504-0.288,0.504-0.72,7.704
		c-0.432,0.504-0.864,1.008-1.296,1.512c-1.152,0-2.376,0-3.6,0c-1.296-0.648-2.592-1.296-3.888-1.944
		c-1.296-0.936-2.664-1.872-4.032-2.88c-1.08-0.432-2.232-0.864-3.384-1.2961c-0.216-0.4319-0.432-0.936-0.648-1.44
		c0.576-6.0479,1.152-12.096,1.728-18.216c0.36-7.488,0.72-14.976,1.152-22.536c-0.144-1.728-0.36-3.528-0.576-5.328
		c-5.4,2.52-10.8,5.04-16.272,7.56c-9.648,5.76-12.24,7.704-15.624,9.576c-2.952,1.872-5.904,3.816-8.856,5.76
		c-0.432,0.072-0.936,0.144-1.44,0.288c-0.576-0.288-1.152-0.648-1.728-1.008c-0.576-0.792-1.224-1.584-1.872-2.376
		c0-0.576-0.072-1.152-0.144-1.8c3.816-7.92,3.816-7.92,7.632-14.616c15.408-22.32,18.288-26.136,22.104-31.896
		c2.52-3.24,5.112-6.552,7.704-9.864c0.792-1.44,1.584-2.88,2.376-4.3199c0.072-0.504,0.144-1.0801,0.216-1.656
		c-0.288-0.576-0.576-1.152-0.936-1.728c-0.864-0.72-1.728-1.44-2.664-2.16c-0.216-0.432-0.432-0.936-0.72-1.44
		c0-0.576,0-1.2241,0-1.872c1.008-2.448,2.88-5.328,10.584-20.1599c1.224-2.592,2.52-5.2561,3.816-7.92
		c2.52-4.608,5.112-9.288,7.704-13.968c2.232-5.832,4.464-11.664,6.696-17.4961c0.144-0.864,0.288-1.7279,0.504-2.6639
		c-0.072-2.6641-0.144-5.4-0.216-8.136c0.144-1.152,0.288-2.376,0.432-3.6c0.648-1.512,1.296-3.024,1.944-4.5361
		c0.648-0.936,1.296-1.8719,1.944-2.8799c0.72-0.648,1.44-1.296,2.16-1.9441c1.512-0.7199,3.096-1.5119,4.68-2.304
		c1.8-0.072,3.672-0.144,5.544-0.2159c1.224,0.288,2.52,0.5759,3.816,0.936c0.432,0.288,0.936,0.576,1.44,0.936
		c3.816,5.76,3.816,5.76,4.536,6.264c1.728,0.5039,1.728,0.5039,5.76,0.936c1.512,0,3.024,0,4.608,0
		c0.216,0.288,0.504,0.576,0.792,0.864c0,0.36,0,0.792,0,1.224c-1.944,2.376-3.816,5.256-5.904,7.416
		c-1.44,1.0081-1.44,1.0081-3.096,1.584c-1.8-0.7919-3.6-1.584-5.472-2.448c-2.016-0.2159-4.032-0.432-6.048-0.7199
		c-0.576,0.144-1.224,0.2879-1.872,0.504c-1.008,0.936-1.008,0.936-1.944,2.304c-0.288,0.7199-0.576,1.44-0.864,2.16
		c-0.072,0.864-0.144,1.728-0.216,2.664c0.72,0.72,1.44,1.44,2.16,2.16c3.312,5.04,3.312,5.04,4.32,6.192
		c2.52,4.32,5.04,8.64,7.632,12.96c1.944,4.608,1.944,4.608,3.888,8.424c1.224,3.816,2.52,7.632,3.816,11.52
		c1.08,4.824,2.232,9.72,3.384,14.616c1.44,8.64,2.88,17.28,4.32,25.92c-0.288,6.48-0.288,6.48-1.008,11.304
		c0.72,0.936,0.72,0.936,0.648,1.44c-6.408,5.76-9.144,7.704-23.184,19.44c-0.432,0.504-0.936,1.08-1.44,1.656
		c0,0.288,0,0.648-0.072,1.008c1.728-0.576,3.456-1.224,5.256-1.872c3.528-1.872,7.056-3.816,10.584-5.76
		c1.8-0.576,3.6-1.224,5.472-1.872c2.088-0.936,4.176-1.872,6.264-2.88c0.288-0.504,0.576-1.008,0.936-1.584
		c4.104-4.176,8.424-8.064,10.368-10.224c1.224-0.576,2.52-1.224,3.816-1.872c0.936,0.072,1.872,0.144,2.88,0.216
		c0.936,0.504,0.936,0.504,4.32,1.44c2.664,1.944,2.664,1.944,4.536,2.88c1.44,1.368,2.88,2.736,4.32,4.104
		c2.664,1.872,2.664,1.872,5.04,4.032c0.288,0.504,0.576,1.008,0.864,1.584c0,0.72,0,1.44,0,2.16
		c-0.432,1.368-0.936,2.7361-1.44,4.104c-0.288,0.36-0.576,0.72-0.864,1.08c-0.72,0.072-1.44,0.144-2.16,0.216
		c-0.936-0.648-1.872-1.296-2.88-1.944c-2.736-0.576-5.544-1.224-8.352-1.872c-0.288-0.36-0.648-0.72-1.008-1.08
		c-0.288-0.864-0.576-1.728-0.864-2.664c1.224-2.88,1.224-2.88,1.944-3.6c0-0.36,0-0.72-0.072-1.08
		c-0.432,0.072-0.936,0.144-1.44,0.216c-0.792,0.72-1.584,1.512-2.448,2.304c-0.72,1.152-1.512,2.376-2.304,3.6
		c0.36,3.024,0.792,6.048,1.224,9.144c0.4319,7.632,0.936,15.336,1.44,23.04c0,3.816,0,7.632,0,11.52
		c0.144,2.376,0.288,4.752,0.504,7.2c-0.288,8.64,0,20.664-0.288,23.76c-0.144,6.84-0.288,13.752-0.432,20.664
		c-0.288,4.032-0.648,8.136-1.008,12.24c-2.592,53.496-2.88,53.712-2.88,55.152c0.072,0.216,0.216,0.432,0.36,0.72
		c1.728-0.504,3.528-1.008,5.328-1.584c2.664,0,2.664,0,5.256,0.504c0.576,0.288,1.152,0.576,1.728,0.936
		c0.576,1.296,1.152,2.664,1.728,4.032c0,1.44,0,1.44-0.432,2.88c-0.6479,0.792-1.296,1.584-1.944,2.376
		c-0.936,0.576-1.944,1.152-2.952,1.8c-3.096,1.224-6.192,2.5201-9.36,3.816c-6.624,1.584-13.248,3.168-19.944,4.824
		c-1.584,0.144-3.168,0.288-4.824,0.432c-4.824,1.296-9.72,2.592-14.616,3.888c-2.952,0.936-5.904,1.872-8.856,2.88
		c-1.08,0.576-2.232,1.224-3.384,1.872c-0.072,0.288-0.144,0.576-0.216,0.864c1.152,0.144,2.376,0.36,3.6,0.576
		c3.24-0.072,6.48-0.144,9.792-0.216c15.84-3.384,15.84-3.384,17.064-3.384c0.576,1.44,1.1519,2.952,1.8,4.464
		c-0.072,0.792-0.144,1.584-0.288,2.448c-0.432,0.432-0.864,0.864-1.296,1.296c-0.7921,0.216-1.584,0.432-2.376,0.72
		c-1.584,0.144-3.168,0.288-4.824,0.432c-8.856,1.944-8.856,1.944-15.12,2.88c-0.936,0.288-1.872,0.648-2.88,1.008
		c-1.872,0.288-3.816,0.576-5.76,0.936c-4.464,0.072-8.928,0.144-13.392,0.216c-2.592-0.216-5.256-0.4319-7.92-0.72
		c-5.472,0-11.0161,0-16.56,0c-1.584,0.144-3.168,0.288-4.824,0.504c-4.608,1.2241-9.216,2.5201-13.896,3.816
		c-0.144,0.144-0.288,0.288-0.504,0.504c-4.104,0.936-4.104,0.936-7.704,1.4399c-5.4,0.288-10.8,0.576-16.272,0.936
		C216.288,341.712,213.696,341.712,211.104,341.712L211.104,341.712z M112.464,228.24c-0.792-0.432-1.584-0.936-2.376-1.44
		c-0.432-0.864-0.432-0.864-0.432-2.736c0.648-0.864,1.296-1.728,1.944-2.664c2.52-2.52,5.112-5.112,7.704-7.7039
		c4.464-5.256,8.928-10.512,13.392-15.84c8.64-11.736,10.584-13.896,18.288-24.192c15.336-22.824,15.336-22.824,19.152-29.088
		c3.888-5.256,3.888-5.256,7.704-11.016c3.816-6.984,7.632-14.04,11.52-21.096c0.936-2.448,4.824-10.368,8.64-19.44
		c1.08-2.16,2.232-4.32,3.384-6.48c0.144-0.576,0.288-1.152,0.432-1.728c1.872-3.96,3.816-7.92,5.76-11.952
		c1.944-2.88,1.944-2.88,3.384-6.048c1.224-2.304,2.52-4.608,3.816-6.912c3.888-8.928,3.888-8.928,4.32-10.7999
		c5.76-11.52,5.76-11.52,6.768-12.9601c4.752-10.5839,5.76-12.24,9.576-21.384c0.936-1.6559,1.944-2.6641,2.88-4.104
		c0.432-0.288,0.864-0.576,1.368-0.864c2.016-0.432,4.104-0.936,6.192-1.44c1.656,0,3.312,0,5.04,0
		c0.864,0.2879,1.728,0.648,2.664,1.008c2.376,2.376,3.384,2.88,4.32,4.176c1.656,1.152,3.312,2.304,5.04,3.4561
		c2.664-0.1441,5.4-0.288,8.136-0.432c0.432,0.432,0.864,0.864,1.296,1.296c0,0.576,0,1.152,0,1.728
		c-0.576,0.792-1.224,1.584-1.872,2.376c-0.792,0.648-1.584,1.296-2.448,1.944c-0.864,0.432-1.8,0.864-2.736,1.296
		c-2.88,0.432-3.816,0.936-8.64,1.872c-4.32,0.288-4.32,0.288-5.04,0c-1.872-0.144-3.816-0.36-5.76-0.576
		c0,4.896-0.072,9.792-0.144,14.688c0.648,4.392,1.296,8.7839,1.944,13.176c0.6479,2.52,1.296,5.1119,1.944,7.704
		c1.224,3.384,2.52,6.84,3.816,10.296c1.872,3.96,3.816,7.992,5.76,12.024c1.872,2.592,3.816,5.256,5.76,7.92
		c0,0.576,0,1.224,0,1.872c-0.432,0.72-0.936,1.44-1.44,2.16c-0.792,0.648-1.584,1.2961-2.376,1.944
		c-3.888,4.536-3.888,4.536-7.92,8.64c-1.296,1.728-2.592,3.456-3.888,5.256c-1.8719,3.384-3.816,6.048-7.632,12.9601
		c-3.888,7.92-3.888,7.92-4.68,8.784c-0.792,0-1.584,0-2.376,0c-0.72-0.288-1.44-0.648-2.16-1.008
		c-0.144-1.512-0.144-1.512,1.2961-15.408c0.216-6.336,0.432-12.672,0.72-19.008c0.072-14.616,0.144-29.232,0.216-43.92
		c-0.144-1.6559-0.288-3.312-0.504-5.04c0-3.2399,0-6.4799-0.072-9.7919c-0.504,0-1.08,0-1.656,0.072
		c-0.432,0.648-0.432,0.648-0.864,2.808c-0.216,8.28-0.432,16.56-0.72,24.9119c0,6.0481,0,12.1681,0,18.2881
		c0.216,3.024,0.432,6.048,0.72,9.072c0,2.16,0,4.32,0,6.48c-1.08,17.424-2.2321,34.848-3.384,52.344
		c-1.944,16.56-2.376,22.104-2.88,24.48c-0.936,1.944-0.936,1.944-1.44,2.376c-0.288,1.008-0.576,2.088-0.936,3.168
		c-0.72,0.72-1.44,1.44-2.16,2.16c-1.872,1.224-3.8159,2.52-5.7599,3.816c-3.384,1.872-6.768,3.744-10.224,5.616
		c-3.24,1.224-6.48,2.52-9.7921,3.816c-2.736,1.296-5.472,2.592-8.2079,3.888c-3.4561,1.872-6.984,3.816-10.5121,5.76
		c-8.2079,3.816-8.2079,3.816-21.888,9.576c-3.744,1.224-7.488,2.52-11.232,3.816c-4.536,1.296-9.072,2.592-13.68,3.888
		c-4.464,0.72-8.928,1.44-13.464,2.16C114.912,228.24,113.688,228.24,112.464,228.24L112.464,228.24z M300.168,73.584
		c-0.144-2.664,0.288-12.528,0.792-17.0641c0.072-0.1439,0.216-0.2879,0.36-0.5039c0.072,0.9359,0.216,1.8719,0.36,2.88
		c-0.288,4.6799-0.576,9.432-0.936,14.184C300.6,73.224,300.384,73.368,300.168,73.584L300.168,73.584z"/>
</g>
</svg>
