<?xml version="1.0" encoding="utf-8"?>
<!-- Generator: Adobe Illustrator 21.1.0, SVG Export Plug-In . SVG Version: 6.00 Build 0)  -->
<svg version="1.1" id="k" xmlns="http://www.w3.org/2000/svg" xmlns:xlink="http://www.w3.org/1999/xlink" x="0px" y="0px"
	 viewBox="0 0 448.0664 531.0176" enable-background="new 0 0 448.0664 531.0176" xml:space="preserve">
<g>
	<path fill-rule="evenodd" clip-rule="evenodd" stroke="#000000" stroke-width="0.4998" stroke-miterlimit="2.6131" d="
		M444.8807,530.6924c-30.024-1.8-59.832-1.5839-89.064-3.24c-0.072,0.432-0.144,0.936-0.216,1.44
		c-0.072-0.504-0.144-1.008-0.216-1.44c-8.568,0.144-17.136-1.08-24.984-1.584c-22.968,1.656-46.296,1.944-68.904,1.656
		c0,0-17.424-1.584-20.376-2.376c-11.16-1.6561-21.816-4.824-32.616-4.824c-17.064,3.96-36.288,8.496-53.28,5.544
		c-19.512-0.864-39.384-5.544-58.32-5.544c-21.384,3.672-42.984,5.616-64.08,4.608c-9.936,1.2241-19.872,2.4481-29.808,3.6721
		c0.504-0.072,27.72-3.528,27.72-5.472c-3.456-3.0959-7.416-4.464-10.656-4.968c-0.072,0.072-0.144,0.144-0.216,0.288
		c-1.296-0.72-1.872-2.016-2.088-2.52c-1.44-0.144-1.512-0.144-2.016,0.936c-1.008-0.72-1.008-0.72-1.008-1.152
		c0.144-0.216,0.288-0.36,0.504-0.504c0.144,0.072,0.288,0.144,0.504,0.216c0.072-0.936,0.072-0.936-0.504-2.88
		c-0.288,0.144-0.504,0.288-0.72,0.504c-0.504-0.216-0.504-0.216-0.576-0.72c1.584-1.584-4.464-10.728-5.616-11.016
		c0-1.728-2.52-5.256-3.024-6.48c-0.36,0-0.72,0-1.08,0c-1.008-2.592-2.088-2.952-2.088-4.824
		c2.952-2.952,1.872-13.248,1.872-16.344c-1.224-0.36-1.224-0.36-1.44-0.72c1.872-2.232,4.752-1.008,8.136-1.296
		c0-4.104-4.032-12.024-5.04-16.128c-1.44-0.072-2.88-0.144-4.32-0.216c-3.456-5.184,1.944-5.544,5.4-6.12
		c11.232-67.608,27.936-134.928,41.976-201.6c7.2-27.144,10.224-55.368,17.28-82.08c3.168-22.5359,9.936-45,14.4-66.96
		c-0.144-2.952-0.288-5.9039-0.36-8.856c10.656-2.376,10.152-0.288,9,11.304c0.576,59.1841,2.448,118.44,3.096,178.272
		c0.288,3.6721,0.648,7.344,1.008,11.088c-0.144,0.072-0.288,0.144-0.36,0.216c0,8.352,0.72,17.496,1.296,26.64
		c-3.168,1.872,2.232,48.312,3.384,57.096c0.288,8.784-0.648,28.44,3.24,36.288c2.808-2.232,6.048-20.736,7.056-24.984
		c10.44-29.88,23.472-59.472,33.12-89.28c2.808-6.912,6.192-13.536,9.36-19.944c13.968-38.664,26.856-77.544,40.536-116.136
		c5.328-11.9519,11.664-24.624,15.408-36.7199c11.592-29.664,19.656-60.048,32.4-88.776c2.736-8.064,11.16-24.768,8.64-33.624
		c1.152-1.8,4.896-0.36,7.056,0.072c1.584,4.824,0.576,19.5839,0.576,25.848c5.688,5.688,11.16,29.808,14.184,38.664
		c6.048,14.904,14.976,30.816,19.44,47.0159c9.792,21.1681,17.64,44.7841,26.136,67.6801c6.624,12.456,11.088,29.16,16.848,43.2
		c2.376,1.584,9.72,26.64,12.24,30.24c9.072,24.408,18.216,48.816,27.36,73.224c9.36,17.856,14.688,39.744,23.04,59.256
		c7.416,22.824,19.8719,45.216,26.496,69.12c3.816-0.144,10.944-2.52,14.5441-1.656c0,0.432,0,0.936,0,1.44
		c-0.576,0.288-6.1201,1.296-12.6,3.168c0,4.392,3.168,3.888,7.704,3.888c0.432,0.432,0.432,0.432,0.576,1.296
		c-1.008,0.648-2.376,0.792-3.456,1.008c-3.6,10.872,10.008,5.256-3.3121,15.84c-23.472,13.536-46.1519,29.16-69.408,43.056
		c-1.368,1.08-3.168,2.952-4.824,2.736c0,0.216,0,0.432,0,0.72c31.392,0.504,63.432,1.296,95.5441,3.168
		C445.0967,530.8365,445.0967,530.8365,444.8807,530.6924L444.8807,530.6924z M446.3207,530.5485
		c0.072-0.144,0.144-0.288,0.216-0.36c0.432,0,0.936,0.072,1.44,0.144C447.0407,530.6924,447.0407,530.6924,446.3207,530.5485
		L446.3207,530.5485z M166.2407,526.5884c-22.68-2.304-44.928-5.256-66.744-6.9839c-15.48,2.232-45.216,8.64-57.312,1.944
		c-9-2.088-14.256-1.872-22.968-5.112c0.432-7.2-0.144-15.696-5.544-20.16c0-0.288,0.072-0.576,0.144-0.864
		c21.024,0.648,44.424-0.792,65.808,2.52c0.072,0.288,0.144,0.576,0.288,0.936c0.864,0.144,1.584-0.144,11.232-0.144
		c24.768-1.296,49.536,1.44,74.88-0.72c22.968,0,47.376-4.536,70.272-2.16c0.072,0.288,0.144,0.576,0.288,0.864
		c-54.72,2.736-110.304,8.928-164.448,4.176c-15.12-0.216-29.52,0-39.816-0.216c-3.456-0.504-6.912-1.296-9.864-1.08
		c18.576,5.472,40.536-0.144,60.264,3.024c4.248,0.072,8.496,0.216,12.816,0.36c0,0.216,0.072,0.432,0.144,0.72
		c3.816-1.44,10.008-1.008,14.616-1.368c8.424,0.288,80.496,1.224,84.96-2.16c9.72-1.08,20.448-1.44,30.816-1.512
		c0,0.144,0.072,0.288,0.144,0.504c2.088-0.792,7.92-2.304,10.368-0.864c-0.144,0.072-0.216,0.216-0.288,0.36
		c1.44,0.216,3.168,0.792,5.04,0.576c-0.072,0.072-0.144,0.216-0.216,0.36c0.144,0,0.288,0.072,0.504,0.144
		c0.864-0.576,0.936-1.152,2.376-0.864c0.144,0.288,0.288,0.648,0.432,1.008c0.144-0.36,0.288-0.72,0.504-1.008
		c0.288,0.288,0.576,0.648,0.936,1.008c0.072-0.36,0.144-0.72,0.288-1.008c1.728-0.288,3.096-0.288,5.4-0.216
		c0.0721,0.216,0.216,0.432,0.36,0.72c0.144-0.288,0.288-0.576,0.504-0.864c10.08-0.936,10.08-0.936,13.176-0.936
		c0.144,0.216,0.288,0.432,0.504,0.72c11.664-2.016,27-1.8,39.816-1.944c22.752-2.448,46.08-4.824,68.904-9.576
		c0.072-0.144,0.144-0.288,0.216-0.36c-0.72-0.144-10.8,1.8-30.024,4.68c-31.68,3.528-63.288,3.816-95.04,5.184
		c0-0.288,0-0.504,0-0.72c24.9839-3.6,51.264-3.168,76.32-7.848c2.088-0.144,10.728-2.016,12.528-0.72
		c14.472,0.648,28.872-3.672,43.632-4.68c-3.744,11.376-14.4,26.928-26.136,28.656c-28.8,12.888-58.536,11.016-89.064,12.24
		c-20.448,1.728-37.44-0.216-56.88-3.6C196.4088,521.8365,179.9927,526.5884,166.2407,526.5884L166.2407,526.5884z
		 M354.8807,522.1965c0.288-1.656,0.576-1.296,1.8-2.16c9.36-9.576,23.688-25.56,27.216-37.944
		c7.992-0.504,16.344-0.792,24.984-0.648c1.224-0.072,9.936-1.944,12.24-0.792c-0.36,0.36-0.6479,0.72-0.936,1.08
		c-20.088,11.664-42.0479,24.336-60.4799,37.872C356.1047,521.5485,355.6007,522.0524,354.8807,522.1965L354.8807,522.1965z
		 M17.7047,514.1324c-2.736-3.672-9.864-14.616-10.584-17.64c0.216-0.144,0.432-0.216,0.72-0.288
		c-0.36-0.432-0.36-0.432-0.504-1.368c9.288,0,10.944,11.016,11.16,18.936C17.9207,514.2765,17.9207,514.2765,17.7047,514.1324
		L17.7047,514.1324z M243.7847,501.0285c0.144-0.216,0.288-0.36,0.432-0.504c-0.432-0.432-0.36-0.648-0.216-0.216
		c0.144-0.072,0.288-0.144,0.432-0.216c0,0.504,0,0.504-0.432,1.224C243.9287,501.1725,243.8568,501.1005,243.7847,501.0285
		L243.7847,501.0285z M237.3047,496.5645c-0.144-0.144-0.216-0.288-0.288-0.36c3.384-0.36,3.384-0.36,4.32-0.216
		c-0.144,0.144-0.288,0.36-0.432,0.576C239.6807,496.5645,238.4567,496.5645,237.3047,496.5645L237.3047,496.5645z
		 M152.3447,493.6845c-3.6-0.432-3.6-0.432-12.024-0.792c-0.216-2.16-0.432-4.32-0.648-6.48c5.76,0,11.448-0.072,17.712,0.216
		c-0.144,2.016-0.288,4.032-0.432,6.048C155.2247,493.5405,154.0007,493.6125,152.3447,493.6845L152.3447,493.6845z
		 M103.6007,492.7485c-2.088-2.088-15.48,0.648-17.928-1.8c0.072-1.152,0.216-2.232,0.36-3.312c1.224-0.144,1.224-0.144,1.8,0.216
		c0.144,0.72,0.288,1.44,0.432,2.16c0.216,0,0.432,0,0.72,0c0-0.72,0-1.44,0-2.16c3.744-0.072,22.824-1.872,25.632-0.504
		c0.216,0.936,1.512,3.744,0.72,5.4C111.3767,492.7485,107.4887,492.7485,103.6007,492.7485L103.6007,492.7485z M117.2807,492.3885
		c-0.648-2.232-0.864-3.168-0.72-4.68c3.168-0.144,6.336-0.288,9.576-0.36C126.1367,494.4045,124.8407,492.6045,117.2807,492.3885
		L117.2807,492.3885z M173.6567,492.0285c-0.936-0.144-1.8-0.288-2.664-0.36c-0.36-4.032-0.36-4.032-0.216-5.472
		c1.944-1.296,11.736-0.072,15.84,0.72c0,1.296,0.0721,2.664,0.144,4.032C185.9687,491.7405,174.6647,492.0285,173.6567,492.0285
		L173.6567,492.0285z M3.5207,491.5245c-0.072-0.432-0.144-0.864-0.216-1.296c0.36,0,0.72,0,1.152,0
		C4.3127,490.8045,3.8807,491.3085,3.5207,491.5245L3.5207,491.5245z M83.2247,491.3085c-11.304-0.504-11.304-0.504-11.664-0.792
		c0.072-0.576,0.144-1.152,0.216-1.728c2.736-1.368,9.36-1.08,12.888-1.08c0.432,0.936,0.288,2.016,0.072,3.528
		C84.2327,491.2365,83.7287,491.2365,83.2247,491.3085L83.2247,491.3085z M60.1847,490.8045c-22.104-0.72-22.104-0.72-37.224-0.72
		c-0.72-1.152-0.576-1.656-0.648-2.448c2.016-2.016,28.152-0.432,36.648,0.648c0.144,0.288,0.288,0.576,0.504,0.864
		c0.144-0.072,0.36-0.072,0.576-0.072c0.072-0.288,0.216-0.576,0.36-0.864c3.024,0,6.048,0.072,9.144,0.144
		C69.1847,492.4605,62.9207,490.8045,60.1847,490.8045L60.1847,490.8045z M200.8008,490.3725c-1.152-1.152-0.648-3.528-0.648-4.464
		c3.168-1.728,14.616-1.152,19.584-0.864c0.36,0.792,0.864,3.528-0.216,4.968
		C213.2567,490.0845,206.9927,490.2285,200.8008,490.3725L200.8008,490.3725z M17.7047,489.8685
		c-8.424-0.72-8.424-0.72-10.872-1.296c-0.072-0.432-0.072-0.864-0.072-1.224c0.792-0.792,14.76-2.448,13.536,2.52
		C19.4327,489.8685,18.5687,489.8685,17.7047,489.8685L17.7047,489.8685z M231.7607,489.8685c-0.792-0.144-2.376-6.192,2.88-5.616
		C234.6407,488.8605,235.6487,489.5805,231.7607,489.8685L231.7607,489.8685z M236.5847,489.3645c-1.08-1.08-0.648-3.6-0.648-4.608
		c0.792-0.792,0.36-0.72,1.944-0.504c0.072,1.44,0.144,2.88,0.216,4.32C237.5927,489.2925,237.0167,489.2925,236.5847,489.3645
		L236.5847,489.3645z M241.1207,489.1485c-1.44-0.936-0.72-3.672-0.72-4.896c1.944,0,3.9601,0,5.976,0
		c0.144,1.944,0.36,2.16,0.144,4.824C246.1607,489.2925,246.1607,489.2925,241.1207,489.1485L241.1207,489.1485z M247.8167,488.7885
		c0-1.656,0.864-3.456,1.008-4.752c0.648,0.072,1.296,0.144,2.016,0.216c-0.216,1.368-0.36,2.736-0.504,4.104
		C249.4727,488.7885,249.4727,488.7885,247.8167,488.7885L247.8167,488.7885z M259.8407,488.0685c-0.36-2.88-0.36-2.88-0.216-4.464
		c13.392-0.432,13.392-0.432,14.688-0.288c0.072,1.224,0.144,2.52,0.288,3.816
		C273.3767,488.3565,261.9287,488.1405,259.8407,488.0685L259.8407,488.0685z M57.5207,487.4925
		c-12.96-0.504-12.96-0.504-15.12-0.864c-1.08-4.536-4.464-4.464-5.256-7.416c-0.288,0-0.504,0-0.72,0
		c-0.432,3.096-0.432,3.096-0.864,4.32c-1.584,0.36-1.584,0.36-2.304,0.936c0.576,0,1.152,0.072,1.728,0.144
		c0.072,0.864,0.072,0.864-0.288,1.656c-1.152,0.216-1.152,0.216-12.456-0.36c-0.576-8.424-0.504-15.912-10.08-14.256
		c-1.008-3.744-4.968-13.752-4.608-16.2c24.624,0,49.536-0.504,74.232-0.144c0.288,0.072,0.648,0.216,1.008,0.36
		c0.792,8.136-8.352,23.184-12.456,31.68c-3.528,0-6.984,0-10.44,0c0-3.96-0.288-8.28-0.72-11.736c-0.288,0-0.504,0-0.72,0
		c0,2.376-0.72,8.28-0.216,10.44c0.288,0,0.576,0.072,0.936,0.144c-0.072,0.288-0.144,0.648-0.216,1.008
		C58.4567,487.2765,57.9527,487.3485,57.5207,487.4925L57.5207,487.4925z M72.8567,487.3485c0.792-8.28,7.992-20.448,10.8-28.224
		c0.288-0.072,0.648-0.072,1.008-0.072c0.144,8.712,1.44,18.432,0.072,27.36C80.7767,486.7005,76.8167,486.9885,72.8567,487.3485
		L72.8567,487.3485z M275.4647,487.3485c-0.072-1.224-0.144-2.448-0.144-3.6c1.152-1.152,11.376-0.216,13.824-0.144
		c0.288,1.152,0.288,1.152,0.216,2.448C284.6807,486.4845,280.0727,486.9165,275.4647,487.3485L275.4647,487.3485z
		 M38.8007,486.7725c-0.792-0.072-1.584-0.144-2.376-0.144c0.072-1.728,0.144-3.384,0.216-5.04c2.16,0.504,4.896,1.872,4.536,5.184
		C40.3847,486.7725,39.5927,486.7725,38.8007,486.7725L38.8007,486.7725z M86.3207,486.4845c-0.216-0.144-0.432-0.216-0.648-0.288
		c0-12.024-0.432-28.584-0.216-30.528c0.792-0.216,0.792-0.36,2.376-0.216c1.296,6.624,1.656,23.544-0.072,31.032
		C87.2567,486.4845,86.7527,486.4845,86.3207,486.4845L86.3207,486.4845z M91.5767,486.6285c-0.576-15.552,0.36-31.392-0.36-46.512
		c0.936-2.88,0.936-2.88,2.808-6.984c0.216,0,0.504,0,0.792,0c0.72,17.136,0.936,35.352,0.504,53.064
		C94.9607,486.4845,94.9607,486.4845,91.5767,486.6285L91.5767,486.6285z M97.1207,486.4845c-2.376-1.872-0.576-51.984-0.864-59.328
		c1.08-3.024,2.16-5.976,3.24-8.928c0.216-0.072,0.432-0.144,0.72-0.216c0.72,9.288,2.16,19.8,3.024,30.024
		c-0.936,12.024-0.576,24.336,1.08,36.936c0.216,0,0.432,0,0.72,0c-0.216-1.872-0.36-3.744-0.504-5.544
		c1.512,0,20.664,1.224,22.104,2.16c-0.648,0.792-1.296,1.656-1.944,2.52C115.0487,485.0445,106.5527,486.4845,97.1207,486.4845
		L97.1207,486.4845z M291.3047,485.7645c-0.432-0.576-0.432-0.576-0.432-1.728c1.44-1.44,4.104,0.144,6.624-1.944
		c-2.016-3.024-14.184-1.296-16.776-1.224c0.288-1.224,0.36-1.008,1.224-1.656c-0.576-0.288-1.08-0.504-1.584-0.72
		c0-0.36,0-0.648,0.072-0.936c4.392-0.432,4.392-0.432,12.024-0.648c0.216,0.216,0.432,0.432,0.72,0.72
		c1.008-0.216,1.224-0.504,4.824-0.864c-2.232-2.232-20.16-0.072-23.256,0.288c-0.504-4.104-1.008-8.208-1.44-12.24
		c8.424,0.216,19.8,1.944,28.512,3.24c1.368,4.968,0.936,10.368,0.864,16.2C301.8167,485.1165,292.6007,485.6205,291.3047,485.7645
		L291.3047,485.7645z M6.6167,485.4765c-0.072-0.936-0.144-1.8-0.216-2.664c0.792-0.072,1.584-0.144,2.376-0.144
		c0,0.792,0.072,1.656,0.144,2.52C8.1287,485.2605,7.3367,485.3325,6.6167,485.4765L6.6167,485.4765z M10.0007,485.4765
		c0-1.008,0-1.944,0-2.88c1.728-0.072,3.456-0.144,5.256-0.144c0.432,0.432,1.728,1.296,1.44,2.88
		C14.4647,485.3325,12.2327,485.4045,10.0007,485.4765L10.0007,485.4765z M18.4247,484.4685c-0.504-0.864-0.504-0.864-0.72-2.16
		c0.36,0.072,0.72,0.144,1.152,0.216c0.072,0.648,0.216,1.296,0.36,1.944C18.9287,484.4685,18.6407,484.4685,18.4247,484.4685
		L18.4247,484.4685z M89.7047,484.7565c-0.144-1.728-0.144-1.728,0.216-3.168C89.9927,484.4685,89.9927,484.4685,89.7047,484.7565
		L89.7047,484.7565z M127.5767,484.3245c-0.216-0.072-0.216-0.072-0.216-1.296c0.864-0.864,1.152-1.44,1.296-2.16
		c-3.312-2.232-6.768-0.288-9.72-1.44c2.808-3.456,33.336-3.24,40.824-3.096c-0.432,1.944-1.08,5.112-2.664,7.056
		c-4.608,0.216-12.96,1.08-16.92,0.144c0.216-1.224,1.224-3.096,2.088-5.544c-0.792,0.144-1.584,0.288-2.304,0.504
		c-0.432,1.656-0.864,3.384-1.296,5.112C134.0567,484.1085,134.0567,484.1085,127.5767,484.3245L127.5767,484.3245z
		 M306.8568,483.9645c-2.16-4.824-0.936-10.512-0.432-15.048c13.032,1.656,26.496,3.6,40.032,6.048
		c0.36,2.808,0.36,2.808,0.288,4.32C334.5768,482.3805,319.0247,484.2525,306.8568,483.9645L306.8568,483.9645z M158.3207,483.7485
		c0.72-2.448,1.44-4.896,2.16-7.344c3.816-0.072,7.632-0.144,11.52-0.216C172.0007,484.6845,163.9367,483.4605,158.3207,483.7485
		L158.3207,483.7485z M171.2807,482.8845c-0.288-0.072-0.504-0.072-0.72-0.072c0.216-2.448,1.8-4.536,2.736-6.48
		c3.168-0.288,18.504-2.88,9.504,6.12C178.9128,482.5965,175.0967,482.7405,171.2807,482.8845L171.2807,482.8845z
		 M184.4567,482.8845c0-2.664,0.576-4.104,1.296-6.336c0.576-0.072,1.224-0.144,1.8719-0.216c0.2881,1.44,0.2881,1.44,0.216,6.336
		C187.1207,482.8845,187.1207,482.8845,184.4567,482.8845L184.4567,482.8845z M190.9367,482.8845
		c-0.648-0.072-1.296-0.072-1.872-0.072c-0.216-2.16-0.36-4.32-0.504-6.48c8.136,0,17.136,1.08,25.704,2.016
		c0.288,1.152,0.864,2.016,0.576,3.528C206.9207,482.9565,198.4247,482.7405,190.9367,482.8845L190.9367,482.8845z
		 M218.0807,482.1645c-0.288-0.072-0.144-2.448-0.36-3.672c-4.32-2.88-23.616-3.096-29.16-3.6c-0.072-0.792-0.144-1.584-0.144-2.376
		c-0.36-0.288-0.36-0.288-0.864,0c-0.144,0.792-0.288,1.584-0.432,2.448c-3.888,0-7.7039,0.072-11.52,0.144
		c-0.144-1.44-0.36-1.656-0.504-5.544c-0.288,0-0.504,0-0.72,0c-0.648,1.656,0.432,4.464,0,5.4c-1.44,0.288-1.44,0.288-16.992,0.432
		c0-6.912,0.648-12.96,0.936-19.224c16.128-0.144,33.048-0.648,49.68,0.576c0.072-0.144,0.144-0.288,0.216-0.36
		c8.496-0.288,17.784,0.432,26.928-0.216c0,0.864-0.216,23.04-2.448,25.272C221.4647,482.1645,221.4647,482.1645,218.0807,482.1645
		L218.0807,482.1645z M241.6247,482.1645c-2.16-0.216-4.32-0.432-6.4799-0.576c0.432-2.304,2.664-4.176,4.752-4.536
		c0.072,1.152,0.144,2.376,0.216,3.6c0.072-0.072,0.216-0.144,0.36-0.216c0.144-1.584,0.288-3.096,0.504-4.608
		c3.528-2.304,6.48-5.904,10.728-6.912c0.864,3.6,0.576,7.92,0.576,12.24C251.7047,481.4445,251.7047,481.4445,241.6247,482.1645
		L241.6247,482.1645z M254.2967,481.4445c-0.288-0.216-0.576-0.432-0.864-0.576c0.288-4.608,0-9.144-0.216-13.392
		c1.08-0.864,1.08-0.864,1.8-1.008c0-0.288,0-0.504,0-0.72c0.288,0.072,0.576,0.144,0.936,0.288
		c1.008-1.584,0.792-2.304,2.808-1.944c0.432,13.176,0.432,13.176,0.216,16.56
		C257.0327,481.1565,255.7367,481.4445,254.2967,481.4445L254.2967,481.4445z M262.7207,481.0125
		c-0.504-0.144-0.936-0.288-1.368-0.36c-0.576-7.056-0.936-12.384-0.216-18.72c1.656-1.008,8.2079-4.248,9-5.904
		c0.36-0.072,0.792-0.144,1.224-0.144c0,0.864,0,1.728,0.072,2.664c-3.456,0.288-4.248,1.368-2.88,4.824
		c-0.72,5.616-1.584,11.592-3.456,17.352C264.1607,481.0125,264.1607,481.0125,262.7207,481.0125L262.7207,481.0125z
		 M266.8247,480.7245c-1.296-0.648-0.072-3.096,2.592-16.2c0.864-0.072,1.728-0.144,2.664-0.216
		c0.504,5.328,1.008,10.728,1.512,16.128C272.8008,480.7245,272.8008,480.7245,266.8247,480.7245L266.8247,480.7245z
		 M89.7047,480.5085c-0.072-0.432-0.144-0.864-0.144-1.296c0.072,0.072,0.216,0.144,0.36,0.216
		C89.9207,480.6525,89.9207,480.6525,89.7047,480.5085L89.7047,480.5085z M275.1767,480.6525c-0.072-0.576-0.144-1.152-0.144-1.656
		c0.864-0.432,0.864-0.432,2.592-0.432c0.2881,0.648,0.2881,0.648,0.216,1.944
		C276.9047,480.5085,276.0407,480.5805,275.1767,480.6525L275.1767,480.6525z M6.6167,479.2845c0-2.016-0.072-3.672,0.288-5.112
		c0.792-0.072,1.584-0.144,2.376-0.216c-0.144,1.656-0.288,3.312-0.36,5.04C8.1287,479.0685,7.3367,479.1405,6.6167,479.2845
		L6.6167,479.2845z M349.6247,479.2845c-3.24-1.08-1.8-2.304-1.944-4.896c0.72,0,1.44,0,2.16,0c0-0.288,0-0.504,0-0.72
		c-0.576-0.072-1.152-0.144-1.656-0.216c0-1.44,0-1.08,0.72-1.8c0.504,0.072,1.08,0.144,1.656,0.216
		c0.36,2.016,0.288,4.824,0.216,7.416C350.3447,479.2845,349.9847,479.2845,349.6247,479.2845L349.6247,479.2845z M10.2167,479.0685
		c0-1.728,0-3.456,0-5.112c1.584,0,2.664,2.592,3.456,4.752C12.5207,479.2845,11.2247,479.0685,10.2167,479.0685L10.2167,479.0685z
		 M15.7607,479.0685c-1.512-2.16-1.8-3.6-2.376-5.4c1.944,0,2.304,0.072,5.04,0.936c0.216,1.296,0.864,2.664,0.576,4.392
		C17.9207,478.9965,16.8407,478.9965,15.7607,479.0685L15.7607,479.0685z M352.2167,479.2125c0-2.448,0-4.824,0-7.2
		c0.72-0.36,0.72-0.36,3.168-0.36c0.576,0.576,1.224,1.224,1.872,1.872c2.664-0.216,2.664-0.216,3.888-0.576
		C359.9207,479.7885,358.9847,477.9165,352.2167,479.2125L352.2167,479.2125z M89.9207,478.8525
		c-0.288-0.144-0.288-0.144-0.504-1.296c0.216,0,0.432,0,0.72,0C90.0647,477.9885,89.9927,478.4205,89.9207,478.8525
		L89.9207,478.8525z M234.8568,478.7085c0-7.632,0.792-15.048,1.296-22.32c10.08-5.544,3.6,17.064,3.384,19.44
		C238.2407,476.8365,236.2247,478.7085,234.8568,478.7085L234.8568,478.7085z M104.3207,478.7085
		c-1.224-15.768,0.288-30.744-2.088-45.576c-0.936-11.304-0.936-11.304-1.152-18.936c5.256-16.488,9.576-33.192,14.76-49.248
		c0.36-0.072,0.792-0.144,1.224-0.216c0.936-10.872,10.152-24.336,13.968-34.56c5.256-10.296,11.232-23.4,12.744-34.56
		c10.8-27.36,21.456-55.584,29.52-83.52c3.312-8.424,6.768-17.28,9.576-25.704c3.888-9.36,15.408-40.032,15.984-40.752
		c0.144,0.3599,0.288,0.72,0.504,1.152c0.072-0.072,0.216-0.144,0.36-0.216c0.792-7.776,7.776-17.064,7.2-22.536
		c14.616-34.8481,23.184-72,38.88-106.128c0.288-1.656,0.072-2.736,1.584-3.096c0.288,16.128-6.912,32.616-11.664,48.744
		c-10.512,21.024-14.328,46.8-23.328,68.832c-6.336,31.32-19.224,61.2-28.296,92.16c-14.688,37.224-23.472,78.408-36,117.144
		c-1.656,0.792-3.96,10.944-5.544,14.616c-6.264,24.264-15.048,49.248-23.04,73.44c-0.72,5.688,0.072,12.24,0.504,18.504
		c-1.368,1.368-11.376,0.288-13.824,1.224c-0.648,8.496,14.256,5.256,21.168,5.616c9.792,0.936,19.584,1.44,30.024,1.512
		c-1.512,3.456-1.656,9-2.304,13.248c-0.144,0.072-0.288,0.144-0.36,0.216c-4.68-4.104-6.696-9.432-10.584-12.672
		c-1.44,1.08-2.448,0-3.096-0.144c-1.224,1.224,11.448,12.816,13.752,15.696c-0.144,0.648-0.288,1.296-0.432,1.944
		c-2.952,1.44-21.096,1.296-23.616,1.296C123.4727,476.8365,111.0167,476.4765,104.3207,478.7085L104.3207,478.7085z
		 M365.4647,476.9085c-0.936-0.432,0.216-5.04,0.288-5.616c5.328-0.576,23.472-4.968,27.288-2.16
		c-0.864,4.32-0.864,4.32-1.368,5.256C384.1847,476.4045,373.2407,476.6205,365.4647,476.9085L365.4647,476.9085z
		 M427.6007,476.4045c-0.072-0.432-0.144-0.864-0.2159-1.296c0.576,0,1.224,0,1.8719,0
		C428.3207,476.1885,428.3207,476.1885,427.6007,476.4045L427.6007,476.4045z M256.2407,475.6125
		c-0.288-0.216-0.288-0.216-0.72-2.16c0.216,0.072,0.432,0.144,0.72,0.216C256.0967,474.3885,256.4567,475.8285,256.2407,475.6125
		L256.2407,475.6125z M400.0247,475.2525c-1.224-0.216-2.448-0.432-3.672-0.576c0-11.304,10.0081-8.568,19.512-8.208
		c0.864,0.864-0.72,5.904-1.368,7.704C410.6087,475.4685,403.8407,475.0365,400.0247,475.2525L400.0247,475.2525z
		 M240.9047,474.8925c0-6.984,0.576-12.96,1.656-19.368c5.76-0.432,5.76-0.432,8.64-0.288
		C251.4167,469.0605,253.2167,466.0365,240.9047,474.8925L240.9047,474.8925z M418.7448,474.6765
		c0.792-5.04,0.792-5.04,1.8719-8.928c2.2321,0.432,3.672,4.896,4.824,7.776C421.1207,474.5325,421.1207,474.5325,418.7448,474.6765
		L418.7448,474.6765z M343.1447,473.3085c-19.008-1.656-38.16-7.92-56.448-7.92c-5.616-0.864-11.232-1.728-16.776-2.52
		c-0.504-1.656-0.936-1.656-0.72-2.52c2.736-0.792,14.616,2.016,16.776,2.376c19.8719,2.376,40.32,5.904,60.984,8.64
		c0.072,0.072,0.144,0.216,0.216,0.36c-0.288,0.432-0.504,0.864-0.72,1.368C345.3047,473.1645,344.2247,473.2365,343.1447,473.3085
		L343.1447,473.3085z M178.4807,472.9485c-0.144-1.44-0.216-2.88-0.288-4.32c0.576,0.432,0.864,2.52,0.864,4.104
		C178.8407,472.8045,178.6247,472.8765,178.4807,472.9485L178.4807,472.9485z M358.9847,472.0125
		c-0.072-0.432-0.144-0.864-0.144-1.224c0.7921,0,2.088-0.504,3.2401,0.216C361.6487,471.7965,359.4887,471.9405,358.9847,472.0125
		L358.9847,472.0125z M350.7767,470.6445c-5.76-1.872-15.984-2.232-21.312-2.88c-18.936-3.672-38.232-5.832-56.88-8.496
		c-0.432-2.88-0.432-2.88-0.288-4.752c9.504-6.696,20.016-13.32,29.088-20.592c2.664-0.36,8.352,1.656,11.232,3.168
		c8.64,1.656,38.5201,5.904,42.336,9.72c1.296,3.96,2.592,7.992,3.888,12.024c-0.216,0.144-0.36,0.288-0.504,0.432
		c0.432,0.864,0.72,7.992,0.648,9.936C355.8167,469.2045,353.6567,470.6445,350.7767,470.6445L350.7767,470.6445z
		 M361.3607,468.9885c-2.376-1.152-1.872-3.528-1.944-4.896c0.36,0.072,0.72,0.144,1.08,0.216
		C360.7847,465.2445,362.5127,470.1405,361.3607,468.9885L361.3607,468.9885z M367.1207,467.4765c0-9.576,21.744-7.2,27.36-7.2
		c0,0.792,0.288,3.888-1.224,4.608C385.0487,464.3085,374.8967,466.6125,367.1207,467.4765L367.1207,467.4765z M362.2967,466.2525
		c-2.88-5.04-4.248-13.752-5.76-19.224c7.128,0.936,31.68,6.264,37.944,9.864c-0.072,0.072-0.144,0.216-0.216,0.36
		c-10.08,0.504-19.08,1.44-28.368,2.88c-1.944,1.512-1.944,3.96-2.88,6.192C362.7287,466.2525,362.5127,466.2525,362.2967,466.2525
		L362.2967,466.2525z M253.1447,466.0365c-1.44-14.832,0.144-30.168-1.368-44.64c1.224-33.048,0.504-66.384,0.504-98.928
		c0.144-0.144-1.008-80.712-1.008-81.576c-4.176-36.648,3.096-74.808-1.656-111.096c-1.296-32.4,0.216-64.152-0.72-95.76
		c0.216-10.44-1.08-21.96,0.36-31.464c2.448-0.144,2.448-0.144,4.104,0.2159c-0.864,26.136-1.224,53.4241,0.072,80.208
		c0.288,56.736,2.952,114.1921,1.944,171.576c1.368,25.416,1.512,51.84,1.656,77.544c-3.528,12.384,2.016,30.456,0.504,44.352
		c1.008,6.192,0.792,13.32,0.936,20.16c-0.216,0.144-0.432,0.288-0.576,0.504c-1.296-1.296-1.512-10.728-1.656-13.68
		c-0.288,0.072-0.504,0.144-0.72,0.216c0.144,1.296,0.36,2.592,0.576,3.888c-0.216,0.144-0.36,0.288-0.504,0.432
		c0,0.648,0.072,1.2961,0.144,1.944c0.072-0.072,0.216-0.144,0.36-0.216c0,1.656,0,1.656-0.216,1.872
		c-0.144-0.072-0.288-0.144-0.36-0.216c-0.072,0.216-0.144,0.432-0.216,0.72c0.36,0.0721,0.72,0.216,1.152,0.36
		c-1.008,1.728-0.648,1.8-0.504,4.464c0.576-0.576,0.288-2.664,0.36-3.168c4.104,21.744,1.944,46.008,2.448,68.688
		c-1.368,0.936-1.368,0.936-2.304,1.152c-0.216-0.864-0.36-1.728-0.504-2.592
		C255.7367,463.2285,255.7367,465.0285,253.1447,466.0365L253.1447,466.0365z M399.0167,463.5885
		c0.072-1.08,0.144-2.088,0.216-3.096c5.76-0.288,11.4479-0.792,17.784-0.936c0,0.792,0.36,1.728-0.36,2.88
		C401.1767,463.2285,401.1767,463.2285,399.0167,463.5885L399.0167,463.5885z M261.2807,460.7085
		c-0.936-27-2.016-54.432-1.08-80.856c-0.648-15.552-1.944-31.104-1.944-46.296c1.152-50.112-0.432-100.224-0.936-149.76
		c0.072-0.288,0.216-0.504,0.36-0.72c2.232,19.512,0.36,40.536,2.736,60.912c1.44,47.736,5.256,95.4,6.9839,143.568
		c0,22.032,2.304,44.784,3.6,67.176C268.1207,456.6765,264.3767,459.4125,261.2807,460.7085L261.2807,460.7085z M255.5208,459.9885
		c-0.072-0.72-0.144-1.44-0.216-2.16c0.288,0,0.576,0,0.936,0C255.7367,459.9885,255.7367,459.9885,255.5208,459.9885
		L255.5208,459.9885z M89.4167,458.8365c-0.36-1.944-0.36-1.944-0.216-3.384c0.288,0,0.576,0,0.936,0
		c0,1.008,0.072,2.016,0.144,3.096C89.9927,458.6205,89.7047,458.6925,89.4167,458.8365L89.4167,458.8365z M397.8647,457.2525
		c-0.576-0.072-1.152-0.144-1.728-0.144c3.456-10.44,2.52-27.144,2.736-37.656c0.72-7.704,0.72-7.704,0.648-11.736
		c-3.2401,3.24-0.576,40.032-3.528,47.5201c-2.088,1.224-36.288-8.424-40.032-9.36c-4.248-11.304-13.752-33.408-9.864-43.2
		c7.632-5.04,16.128-10.296,23.256-16.344c2.088-1.368,3.744-3.24,6.4081-3.6c-0.216,21.672-3.312,43.848-4.248,66.24
		c0.216,0.144,0.432,0.288,0.648,0.504c0-20.808,4.176-40.968,4.176-60.984c0.504-5.976,0.504-5.976,0.864-7.2
		c1.944-1.584,8.424-7.344,10.8-7.344c6.48,7.416,6.84,22.896,12.816,31.32c4.176,10.44,13.032,29.232,14.616,41.544
		c0.864,1.872,3.024,4.824,2.664,7.704c0.36,0.072,0.72,0.144,1.08,0.216C418.6727,457.3965,399.3767,457.2525,397.8647,457.2525
		L397.8647,457.2525z M190.2167,455.5245c-24.048-0.36-47.376-0.504-70.992-1.872c-3.168,0-12.096,1.512-10.512-3.024
		c8.136-2.088,18.648-0.36,28.008-0.36c25.344,1.368,51.48-2.376,77.256-0.504c13.68-0.432,20.448-0.936,21.744-0.792
		c0,0.36,0.216,5.328-0.576,6.12C220.1687,455.0205,205.1927,454.8765,190.2167,455.5245L190.2167,455.5245z M236.2967,455.2365
		c0.144-2.088,0.288-4.176,0.504-6.264c1.584,0.216,3.168,0.504,4.8239,0.792c0,1.44,0,2.952,0.0721,4.464
		C239.8967,454.5165,238.0967,454.8765,236.2967,455.2365L236.2967,455.2365z M5.4647,454.5885
		c-1.152-0.072-2.304-0.072-3.384-0.072c-0.216-1.08-0.36-2.16-0.504-3.168c26.352-2.088,54-1.368,81.144-0.576
		c0.72,0.72,0.576,1.656,0.576,3.024c-0.576,0.288-0.576,0.288-3.96,0.576c-6.624-2.016-17.64-0.576-24.48,0.216
		C20.5847,454.5885,12.3767,454.3725,5.4647,454.5885L5.4647,454.5885z M242.5607,454.5165c0-1.728-0.216-3.096,0.504-4.248
		c2.592,0,5.256,0.072,7.92,0.144c0,1.08,0,2.232,0.072,3.384C248.1767,454.0125,245.3687,454.2285,242.5607,454.5165
		L242.5607,454.5165z M271.5768,453.7965c-1.2961-22.32-4.032-44.424-3.4561-66.24c-0.792-10.296-2.16-22.68-1.08-31.968
		c0.072-0.072,0.216-0.144,0.36-0.216c-1.656-17.352-2.52-34.4879-2.8799-51.12c-5.256-43.992-2.448-89.064-6.984-132.48
		c-0.144-0.072-0.288-0.144-0.36-0.216c-0.576-35.28-0.576-35.28-0.432-38.88c3.24,0.792,19.512,61.2,21.456,69.12
		c1.296,11.16,8.64,22.032,8.64,33.84c4.6801,27.288,4.248,56.304,5.976,84.96c0.216,16.776,1.368,33.408,3.816,50.616
		c1.656,20.448,2.232,40.968,4.104,61.92c-6.696,6.696-19.296,10.728-23.976,17.28
		C272.8727,453.2925,272.8727,453.2925,271.5768,453.7965L271.5768,453.7965z M256.0247,451.8525
		c-0.288-0.216-0.504-0.36-0.72-0.504c0.144-0.648,0.288-1.296,0.432-1.872c0,0.72,0,1.44,0,2.16
		C256.4567,451.8525,256.4567,451.8525,256.0247,451.8525L256.0247,451.8525z M26.3447,450.0525
		c-17.28-0.504-17.28-0.504-18.72-0.864c0.792-8.568,3.096-16.704,5.112-24.48c15.336,0,32.76,0,48.384,1.728
		c0.072-0.288,0.144-0.504,0.216-0.72c-16.272-1.584-32.616-1.08-48.456-1.944c2.376-12.456,6.048-24.984,8.856-37.08
		c15.552-3.096,35.28-1.296,52.128-0.288c0.288,0.144,0.576,0.288,0.936,0.432c0.072-0.288,0.144-0.504,0.216-0.72
		c-3.096-0.432-3.096-0.432-8.352-0.648c-34.344,0-44.424,0.216-44.784-0.072c7.056-31.896,9.216-66.168,19.872-96.768
		c1.008-9.072,4.68-18.288,6.192-26.64c0.288-0.072,0.576-0.144,0.936-0.216c-0.072-0.36-0.144-0.72-0.216-1.08
		c0.144-0.144,0.288-0.288,0.432-0.36c-0.288-0.072-0.504-0.144-0.72-0.216c0-0.36,0-0.72,0-1.008c0.216,0,0.432,0,0.72,0
		c0-10.512,3.24-20.664,4.68-30.456c4.464-23.832,9.36-47.448,14.904-70.56c2.664-17.2079,6.768-34.704,11.592-50.9041
		c2.232,4.5361,1.08,26.424,1.08,33.8401c3.456,102.168,5.4,204.912,1.728,307.728
		C64.2167,449.3325,44.7767,449.6205,26.3447,450.0525L26.3447,450.0525z M146.8007,449.5485
		c-4.032-0.432-24.192-0.576-25.128-1.512c-1.944-18.576,1.8-33.12,9.648-49.68c9.72-33.624,20.952-66.312,30.672-99.648
		c2.52-7.416,14.256-39.24,13.824-40.536c-0.576,0.72-0.576,0.72-3.24,6.984c1.512-14.112,9.576-29.664,13.176-43.488
		c7.344-18.936,14.4-37.728,19.728-56.88c0-2.664,1.656-9.072,2.16-11.52c7.92-26.352,15.768-53.136,25.416-78.696
		c4.104-13.68,7.416-29.664,13.32-42.12c0.288-0.072,0.648-0.144,1.008-0.144c0.36,34.488-2.232,70.416,0.792,105.12
		c0.288,27.576,0.216,55.584,0.216,84.024c-3.6,16.848-1.872,36.504-5.76,53.064c-0.2881,0.144-0.5041,0.288-0.72,0.432
		c-0.432,3.6-0.432,8.424-0.72,9.36c-0.144-0.072-0.2881-0.144-0.36-0.216c0.144,3.6-0.36,10.8-0.576,23.544
		c1.8719,33.48-1.8,69.12-3.6,103.176c-0.936,7.704-1.656,11.016-1.584,12.24c0.36,0.072,0.792,0.144,1.224,0.216
		c-0.144,7.992-0.288,15.984-0.36,24.048c-22.896,3.24-47.016,0.288-69.48,2.016
		C159.9047,449.4045,153.3527,449.4765,146.8007,449.5485L146.8007,449.5485z M85.0967,449.0445
		c-0.288-0.144-0.576-0.216-0.864-0.288c-1.008-11.664-0.792-25.344,1.008-36c-0.072-16.056-2.736-36.432,1.296-51.624
		c0.936,1.944,2.736,41.544,0.864,44.424c-0.648,7.2,1.296,39.6-1.296,43.488C85.7447,449.0445,85.3847,449.0445,85.0967,449.0445
		L85.0967,449.0445z M249.7607,449.1885c0-0.432,0-0.792,0-1.152c-0.792,0-1.584,0-2.376,0.072c-0.216-0.288-0.36-0.504-0.504-0.72
		c-1.224,0.144-2.448,0.288-3.6,0.504c-2.592-1.728-0.216-45.504-0.144-53.424c2.16-33.408,5.4-66.888,5.976-99.576
		c0.144-0.288,0.288-0.576,0.432-0.864c0.216-0.072,0.432-0.072,0.72-0.072c-0.288,51.192-0.648,103.248,0.792,155.016
		C250.6247,449.0445,250.1927,449.1165,249.7607,449.1885L249.7607,449.1885z M417.3047,448.9725
		c-0.4319-0.504-0.4319-0.504-0.864-2.664c0.072-0.072,0.216-0.144,0.36-0.216
		C417.1608,446.5965,417.5928,448.9725,417.3047,448.9725L417.3047,448.9725z M89.2007,448.9725
		c-0.072-0.576-0.144-1.152-0.144-1.656c0.072-0.144,0.216-0.216,0.36-0.288c0,0.576,0.072,1.152,0.144,1.728
		C89.4167,448.8285,89.2727,448.9005,89.2007,448.9725L89.2007,448.9725z M236.8008,448.0365c-0.144-9.36-1.152-19.944,0.72-28.152
		c-0.36-0.072-0.648-0.144-0.936-0.216c0.504-4.104,1.728-45.36,3.888-47.016c-1.08-16.992,0.792-34.92,1.224-51.624
		c-0.288-12.888,1.224-24.408,2.304-36.72c0.072-0.072,0.216-0.144,0.36-0.216c0.576-15.12,0.936-31.68,3.816-45.864
		c3.456,3.456,1.224,45,0.216,55.728c-2.232,12.168-1.584,23.832-2.16,36.432c-0.72,0.72-0.288,3.24-0.216,5.04
		c-2.16,36.936-5.112,74.592-4.32,112.104C240.9047,447.8925,240.9047,447.8925,236.8008,448.0365L236.8008,448.0365z
		 M353.6567,445.2285c-5.04-0.936-8.136-1.944-10.512-2.232c0-9,0.576-16.992,1.44-25.2c0.216,0,0.432,0,0.72,0
		c1.656,8.568,7.848,17.64,8.928,27.36C353.8727,445.3725,353.8727,445.3725,353.6567,445.2285L353.6567,445.2285z
		 M255.7367,443.7165c-0.144-1.224-0.144-1.224,0.216-1.944C255.9527,443.7165,255.9527,443.7165,255.7367,443.7165
		L255.7367,443.7165z M341.4167,442.5645c-12.888-3.6-25.56-4.896-37.584-9.432c0-0.36,0-0.648,0-0.936
		c5.688-3.6,33.12-27.576,37.944-26.424c3.024,11.52,1.512,24.264,0.216,36.72
		C341.6328,442.7085,341.6328,442.7085,341.4167,442.5645L341.4167,442.5645z M90.6407,437.4525
		c-3.6-31.176,2.016-64.8-3.528-94.824c-0.648-70.272-2.664-140.904-4.032-210.672c-1.584-12.312-1.944-28.152-1.944-40.104
		c1.224-1.224,4.248-1.08,6.408-0.72c2.448,26.424-2.304,55.584,2.016,82.8c0.36,18.0721-0.576,36.216,0.216,54.72
		c1.944,15.624,3.744,46.8-0.504,61.704c3.456,4.32,1.728,35.352,1.728,42.192c1.368,18.936,1.8,38.16,1.656,57.888
		C92.8727,396.9884,97.4807,435.2205,90.6407,437.4525L90.6407,437.4525z M256.0247,435.7965c-0.072-0.864-0.072-1.656-0.072-2.448
		c0.36,1.44,0.36,1.44,0.288,2.448C256.1687,435.7965,256.0967,435.7965,256.0247,435.7965L256.0247,435.7965z M301.8167,432.0525
		c-3.168-9.36-2.016-18-2.016-27.216c-1.728-35.208-7.488-70.056-7.488-104.688c-2.304-19.8,0.072-41.112-4.32-60.192
		c-0.216-1.872-0.432-3.744-0.576-5.544c0.216,0.072,0.4319,0.144,0.72,0.216c10.008,37.0079,23.112,74.808,35.856,112.104
		c2.016,13.32,9.504,26.136,11.52,41.04c2.016,4.968,4.968,10.728,5.544,16.776
		C327.9527,413.6925,314.8487,422.8365,301.8167,432.0525L301.8167,432.0525z M256.2407,428.8125
		c0.072-0.576,0.144-1.152,0.216-1.656C256.4567,428.8125,256.4567,428.8125,256.2407,428.8125L256.2407,428.8125z
		 M256.2407,425.2125c0-1.512,0-3.024,0-4.536c0.36,3.6,0.36,3.6,0.216,4.536
		C256.3847,425.2125,256.3127,425.2125,256.2407,425.2125L256.2407,425.2125z M96.1847,423.0525
		c-3.096-19.368-1.728-39.456-2.304-58.536c0.072-0.648,0.216-1.296,0.36-1.944c2.808,2.808,2.52,27.288,2.52,30.744
		C98.1287,399.4364,102.3047,418.4445,96.1847,423.0525L96.1847,423.0525z M255.7367,419.8845c0.144-1.08,0.288-2.088,0.504-3.096
		c0.216,0.792,0.504,2.232-0.288,3.384C255.8807,420.0284,255.8087,419.9565,255.7367,419.8845L255.7367,419.8845z
		 M256.0247,414.9885c0-3.024-0.504-8.208,0.432-10.152c0,3.312,0.072,6.696,0.144,10.08
		C256.2407,415.1325,256.2407,415.1325,256.0247,414.9885L256.0247,414.9885z M343.8647,405.2685
		c-0.144-0.432-0.216-0.792-0.288-1.152c0.288,0,0.6479,0,1.008,0c-0.072,0.288-0.144,0.576-0.144,0.936
		C344.2247,405.1245,344.0087,405.1964,343.8647,405.2685L343.8647,405.2685z M256.0247,403.8285
		c0.072-1.872,0.144-3.672,0.216-5.472C256.2407,398.3565,256.9607,403.8285,256.0247,403.8285L256.0247,403.8285z
		 M343.1447,402.9644c-12.6-39.096-26.136-78.048-37.152-116.712c-1.224-9.216-7.848-17.784-9.072-26.64
		c-5.688-17.496-9.36-29.952-9.36-47.304c-4.032-36.288-3.456-72.9361-7.2-108.72c0-5.256,0-5.256,0.36-6.624
		c0.216,0,0.432,0,0.72,0c6.336,12.744,8.64,31.464,17.136,43.632c12.3839,32.76,25.9919,66.024,37.656,99.792
		c10.512,23.112,21.816,49.752,28.368,75.168c8.352,17.856,13.248,36.72,22.536,54.936c0.072,0.7921,0.144,1.584,0.2159,2.376
		c-3.24,2.304-6.4799,4.608-9.72,6.984c-0.072-0.504-0.144-1.008-0.216-1.44c-0.288,0.072-0.504,0.144-0.72,0.216
		c-4.536,12.6-25.992,14.976-32.616,24.264C343.7207,402.8925,343.4327,402.8925,343.1447,402.9644L343.1447,402.9644z
		 M256.0247,382.9485c-0.216-0.648-0.36-1.224-0.504-1.8c-0.288-0.072-0.504-0.072-0.72-0.072c0-1.152,0.648-1.08,1.152-1.44
		C256.2407,382.9485,256.2407,382.9485,256.0247,382.9485L256.0247,382.9485z M255.0167,378.1965
		c-0.36-1.008-0.36-1.008-0.216-1.728c0.144,0.072,0.288,0.144,0.432,0.288c0-1.152,0.144-1.152,0.72-1.728
		C256.0967,375.7485,255.9527,377.2605,255.0167,378.1965L255.0167,378.1965z M254.8008,374.0925
		c0.216-0.072,0.432-0.144,0.72-0.216c0.072-0.288,0.144-0.504,0.216-0.72c0.36,0.432,0.36,0.432,0.216,0.936
		C254.9447,373.5884,255.1607,374.4525,254.8008,374.0925L254.8008,374.0925z M255.7367,370.9244c-1.152-0.36-1.152-0.36-1.44-0.72
		c0.648-0.864,0.432-1.368,0.72-1.8c0.216-0.072,0.432-0.072,0.72-0.072C255.7367,368.6925,255.9527,371.2124,255.7367,370.9244
		L255.7367,370.9244z M255.5208,358.8285c-0.072-0.144-0.144-0.288-0.216-0.36c0.288-0.504,0.576-1.008,0.936-1.44
		C255.7367,358.9725,255.7367,358.9725,255.5208,358.8285L255.5208,358.8285z M131.8967,325.1325
		c1.656-4.752,3.312-9.504,5.04-14.184c0.36,0,0.792,0,1.224,0C136.5047,315.4844,134.7047,320.8845,131.8967,325.1325
		L131.8967,325.1325z M304.6967,286.6125c-0.576-1.728-1.08-3.024-0.936-4.176c0.504,1.152,1.08,2.16,1.296,4.032
		C304.9128,286.4685,304.7687,286.5405,304.6967,286.6125L304.6967,286.6125z M286.2647,223.2525
		c-4.968-9.936-7.488-21.888-9.072-31.824c-6.336-23.616-13.608-46.2239-20.376-68.832c-1.152-1.152-0.648-6.84-0.36-8.208
		c-0.288,0-0.504,0-0.72,0c-1.8-26.712-0.792-55.224-0.576-81.36c0.072-0.36,0.216-0.72,0.36-1.08c0.216,0,0.432,0.072,0.72,0.144
		c6.552,13.896,11.016,31.392,16.2,46.8c4.68,8.424,8.136,12.96,6.912,22.824c3.024,17.496,1.8,36,3.6,54.432
		C283.2407,165.0044,287.9927,222.3885,286.2647,223.2525L286.2647,223.2525z M256.9607,129.2925
		c-0.216-1.008-0.36-1.944-0.504-2.88c0.216,0,0.432,0,0.72,0c0,0.936,0.072,1.872,0.144,2.88
		C257.1767,129.2925,257.0327,129.2925,256.9607,129.2925L256.9607,129.2925z"/>
</g>
</svg>
