<?xml version="1.0" encoding="utf-8"?>
<!-- Generator: Adobe Illustrator 21.1.0, SVG Export Plug-In . SVG Version: 6.00 Build 0)  -->
<svg version="1.1" id="pie" xmlns="http://www.w3.org/2000/svg" xmlns:xlink="http://www.w3.org/1999/xlink" x="0px" y="0px"
	 viewBox="0 0 428.8842 583.4192" enable-background="new 0 0 428.8842 583.4192" xml:space="preserve">
<g>
	<path fill-rule="evenodd" clip-rule="evenodd" stroke="#000000" stroke-width="0.216" stroke-miterlimit="2.6131" d="
		M356.7761,583.1639c-0.216-0.36-0.216-0.36-1.8-0.792c-0.072-0.288-0.072-0.504-0.072-0.72c-0.648-0.144-1.296-0.216-1.872-0.288
		c-0.072-0.288-0.072-0.504-0.072-0.72c-1.08,0-2.088,0-3.096,0c0-0.288,0-0.504,0-0.72c0.432-0.144,0.936-0.288,1.44-0.36
		c0.072-0.36,0.144-0.72,0.216-1.08c-38.52-2.952-77.688-4.392-115.416-9.72c-6.984-0.36-13.968-0.6479-20.88-0.936
		c-30.168-2.664-60.624-6.264-90.288-7.2c-29.52-4.32-59.976-5.5439-88.056-13.248c-2.88,0-8.496-0.936-9.576-2.736
		c-4.824-0.072-10.008-0.504-13.968-0.936c0-0.288,0-0.504,0-0.72c3.384,0,8.064,0.6481,12.24,0.72
		c-0.576-1.872-14.688-10.512-16.344-11.736c-4.896-7.1281-11.88-19.152-7.992-26.928c0.144-0.72,0.288-1.44,0.432-2.16
		c18.072-16.92,4.32-28.8,1.728-48.24c-4.032-4.032-0.864-5.184,2.88-6.48c28.8-145.44,28.8-145.44,60.336-307.872
		c-0.36-0.144-0.648-0.2161-0.936-0.288c0.504-1.0081,0.216-0.936,1.296-1.152c3.744-19.728,9-39.384,9.288-59.04
		c2.88-1.008,5.112-1.4401,8.64-1.584c0,0.2879,0,0.576,0.072,0.864c-0.216,0.144-0.36,0.288-0.504,0.432
		c0,47.736,1.944,95.9041,1.944,144.288c0.504,3.816,0.504,3.816,0.36,4.536c0.216,0.072,0.432,0.144,0.72,0.216
		c1.368,51.984-2.952,106.848,1.224,159.1201c0.36-0.648,0.72-1.2961,1.08-1.872c48.024-127.152,96.12-254.3041,144.216-381.384
		c-0.072-0.288-0.072-0.576-0.072-0.864c-0.288-0.144-0.504-0.288-0.72-0.36c0.288-0.072,0.576-0.144,0.936-0.2159
		c0-1.0081,0-1.9441,0-2.88c1.872,0,3.816,0,5.76,0c0,2.16,0,4.3199,0.072,6.48c35.496,100.584,64.656,204.624,101.088,305.784
		c5.112,15.84,10.224,31.68,15.336,47.52c13.896,41.4,27.072,81.288,40.824,123.12c1.224,1.224,14.256-2.448,16.416-0.288
		c-0.072,0.072-0.144,0.216-0.216,0.36c-14.4,1.08-14.616,5.4-10.008,18.36c0.36,0.072,0.72,0.144,1.152,0.288
		c-0.36,2.736,0,3.888,1.152,7.2c7.2,0.576,15.192,0.648,23.04,0.72c0,5.832-24.5521,3.384-29.0161,4.032
		c-10.152,15.048-20.664,30.096-30.888,44.928c-0.144,0.36-0.216,0.72-0.288,1.152c-0.288,0-15.984,19.4399-16.1281,20.16
		c0.36,0.072,0.72,0.144,1.08,0.288c0,0.2159,0.072,0.432,0.144,0.72c0.576,0.072,1.152,0.144,1.8,0.216
		c0,0.216,0.072,0.432,0.144,0.72c1.44,0.072,1.656,0.432,8.352,0.72c0,0.216,0,0.432,0,0.72
		C361.5282,583.236,359.1522,583.1639,356.7761,583.1639L356.7761,583.1639z M319.6241,560.6279
		c-34.56-0.648-69.624-2.088-103.464-2.664c-5.472,3.384-19.656,0.36-26.136-0.504c-30.888-0.648-61.272-3.744-91.728-6.48
		c-17.712-2.52-36.072-2.376-52.776-7.2c-17.64-2.16-29.448-2.952-39.24-19.008c-2.52-5.472-3.672-8.136-4.176-13.248
		c26.352,4.536,53.496,9.432,80.856,10.944c20.376,0.144,40.032,2.088,60.696,3.6c42.336-2.808,85.392-0.504,128.448-0.504
		c22.968-1.584,47.808-5.904,71.28-4.896c0-0.288,0-0.504,0-0.72c-23.184,0.864-47.304,1.944-69.624,4.896
		c-21.096,0-42.48-0.432-62.856-1.44c-31.104,2.2321-62.352,1.944-92.88-0.216c-0.216-0.288-0.36-0.504-0.504-0.72
		c-4.032,0.504-8.424,0.216-12.024-0.504c-27.072-0.2159-62.28-0.504-87.552-9.36c-3.168-0.504-9.864-0.936-16.344-2.016
		c0-3.024,0.072-4.32,0.72-6.696c19.656,3.672,27.864,5.616,49.176,9.432c58.104,6.84,119.88,5.328,178.848,4.104
		c2.88-0.216,5.4-0.504,8.856-0.36c0,0.288,0,0.576,0,0.936c0.432,0,1.008-0.504,1.44-1.08c3.672-0.216,7.344-0.36,11.016-0.504
		c23.472-2.736,47.52-2.304,71.784-2.376c0.36,0.36,0.36,0.36,0.504,1.584c0.216,0,0.432,0,0.72,0
		c0.072-0.4319,0.144-0.864,0.216-1.224c1.224-0.36,13.68-1.296,16.56-1.8c17.712-0.936,35.496-1.8,53.28-2.664
		c4.536,0.288,4.536,0.288,5.544,0.648c0.072,0.144,0.144,0.288,0.216,0.432c-10.008,14.544-20.16,29.808-30.384,44.424
		c-2.952,5.5439-14.4,4.464-19.8,4.896C340.0721,560.4119,329.8481,560.4839,319.6241,560.6279L319.6241,560.6279z
		 M10.7441,542.6279c-0.288-0.4319-0.504-0.864-0.72-1.296c0.936,0.072,1.152,0.432,1.872,0.72c0,0.216,0,0.432,0,0.72
		C11.4641,542.7,11.1041,542.6279,10.7441,542.6279L10.7441,542.6279z M162.6641,517.86c-18.864-1.0081-38.304-1.656-56.664-2.16
		c-34.488,1.944-69.336-5.832-102.24-12.528c-0.072-0.288-0.144-0.504-0.144-0.72c6.624-4.104,30.096,0.648,38.52,2.952
		c30.384,0,62.064,9.216,92.88,5.976c23.904,1.512,48.672,4.392,73.224,4.968c0,0.216,0,0.432,0,0.72
		C201.7601,516.924,173.4642,517.86,162.6641,517.86L162.6641,517.86z M227.6801,516.204c-1.152-0.144-2.304-0.288-3.384-0.36
		c2.304-7.704-1.368-7.272-8.136-6.12c0,8.136,2.52,1.872,5.544,5.616c-1.728,1.728-28.512-1.08-32.904-1.08
		c-1.296-1.296-5.472-0.936-6.696-1.008c0-5.688-4.104-4.896-7.92-3.384c0,1.008,0,2.016,0.072,3.096
		c-0.864,0.864-4.104-0.072-4.68-0.2159c0.072-0.216,0.144-0.36,0.288-0.504c-0.72-0.144-0.72-0.144-4.248,0.288
		c0-0.36,0-0.72,0-1.008c18.216-8.712,32.688-6.768,53.424-6.624c8.496,1.152,17.568,0.792,26.712,1.584
		C244.0242,517.0679,235.8881,516.0599,227.6801,516.204L227.6801,516.204z M242.0801,515.7c0-4.608,5.688-7.56,7.416-10.512
		c12.024-0.864,23.904-2.232,36.504-2.664c2.376,2.88,4.032,6.192,5.4,10.44c-2.736,1.368-18.72,1.296-21.888,0.72
		c-0.144-1.152-0.288-2.232-0.432-3.312c-1.008-1.008-5.976-0.648-6.84-0.648c-0.72,0.72-1.512,1.584-2.664,1.8
		c-0.288,1.008-0.504,2.016-0.72,3.024C252.8802,515.34,247.5521,515.7,242.0801,515.7L242.0801,515.7z M300.9041,513.324
		c-3.6-0.072-9.504,1.152-8.424-3.384c10.368,0,20.808,0.648,31.68,0c0,0.864,0,1.728,0.072,2.592
		C319.9122,514.692,305.5841,513.324,300.9041,513.324L300.9041,513.324z M325.6002,513.252c0.072-1.944,0.072-1.944,0.576-3.168
		c8.568-0.072,23.4001-2.16,32.04,0.504c-0.072,0.072-0.144,0.216-0.216,0.36C347.1281,511.308,335.9682,512.892,325.6002,513.252
		L325.6002,513.252z M156.9041,512.1c-6.264-0.72-12.528-1.368-18.792-2.016c0-5.328-10.872-3.816-12.312-2.88
		c0,0.864,0,1.728,0,2.664c-15.048,2.952-36.576-1.152-51.264-3.96c0-1.728-0.504-2.664,0.288-3.888c23.616,0,47.592,3.888,72,3.888
		c2.952-1.584,20.952-1.224,25.056,0.144c-0.072,0.216-0.144,0.504-0.144,0.792C165.9041,510.012,163.1681,512.1,156.9041,512.1
		L156.9041,512.1z M360.8802,509.724c-11.592-0.576-23.256-0.792-34.344-0.792c0.36-2.808,0.504-5.4,1.44-7.704
		c22.392-1.656,44.712-3.744,67.68-3.744c0.072,0.072,0.144,0.216,0.288,0.36c-5.472,12.6-8.064,11.304-21.888,11.664
		C373.6241,509.22,373.6241,509.22,360.8802,509.724L360.8802,509.724z M310.4802,509.22c-6.336-0.432-12.96-0.936-18.864-0.792
		c0-0.36,0-0.648,0-0.936c0.504-0.504,0.504-0.504,1.8-0.864c1.368-6.984,27.864-5.184,32.4-5.328
		c0.144,0.864-0.36,2.808-0.864,7.344C322.5042,509.868,313.0002,509.22,310.4802,509.22L310.4802,509.22z M392.7761,509.22
		c-0.792-0.144-1.584-0.288-2.376-0.36c2.664-1.728,3.888-4.032,5.976-5.472c-0.72-0.144-0.72-0.144-1.152,0.072
		c0.576-2.52,1.8-4.824,2.88-6.84c0.288-0.072,0.576-0.144,0.936-0.216c0.072-0.72,0.144-1.368,0.216-2.016
		c0.216-0.072,0.432-0.144,0.72-0.144c1.44,4.68,2.952,9.432,4.464,14.184c-0.144,0.144-0.288,0.36-0.36,0.576
		C400.2642,509.076,396.5201,509.1479,392.7761,509.22L392.7761,509.22z M289.8162,505.908c-1.008-1.728-1.512-2.232-1.656-3.456
		c1.512,0,3.024,0,4.536,0.072c0.072,0.072,0.144,0.216,0.288,0.36c-1.008,1.584-1.728,2.016-2.448,3.024
		C290.2482,505.908,290.0322,505.908,289.8162,505.908L289.8162,505.908z M70.7201,505.62c-1.296-0.144-2.592-0.288-3.816-0.432
		c0-4.464,1.224-5.328,6.192-3.456c0,1.296,0,2.592,0,3.888C72.3041,505.62,71.5121,505.62,70.7201,505.62L70.7201,505.62z
		 M140.7761,505.404c-7.272-0.216-8.136-0.432-8.352-0.936c-19.44-0.72-38.808-2.304-57.384-3.456c0.72-6.192,3.6-6.552,10.08-7.128
		c15.192,2.088,31.392,2.808,47.52,3.816c17.496,0,44.496-6.192,60.984-0.072C177.8561,507.4919,158.0562,505.404,140.7761,505.404
		L140.7761,505.404z M63.0161,504.9c-4.392-0.432-8.784-0.792-13.176-1.152c-1.368-1.368,0.288-3.672,0.936-4.68
		c3.456-0.432,9.576,0.36,13.968,1.8c0,1.296,0,2.592,0.072,3.96C64.1681,504.8279,63.5921,504.8279,63.0161,504.9L63.0161,504.9z
		 M223.8641,504.9c-11.592-1.08-22.752-1.224-33.624-0.792c-0.144-0.288-0.216-0.504-0.2881-0.72
		c-1.224,1.656-4.536,1.152-5.976,1.224c0.072-0.36,0.144-0.72,0.216-1.008c13.032-7.416,24.84-5.328,40.392-5.184
		c8.136-0.432,16.848-0.648,25.632,0c0,1.872-2.304,4.536-3.6,6.264C240.4241,504.9,229.1201,504.684,223.8641,504.9L223.8641,504.9
		z M249.4962,503.964c-0.072-0.36-0.144-0.72-0.144-1.08c4.3199-5.112,3.168-4.464,10.512-4.464
		c7.704,0.936,16.2,1.008,24.192,2.664C273.4001,503.964,260.1522,503.244,249.4962,503.964L249.4962,503.964z M41.2001,503.028
		c-10.368-1.008-21.096-1.872-30.744-3.456c0.792-4.248,7.848,0.072,9.144,0.072c0.072-0.144,0.144-0.288,0.216-0.36
		c-0.936-1.296-0.936-1.296-1.08-2.16c4.752-2.592,22.032-0.504,27.36,1.224c-0.144,1.656-0.504,2.664-1.512,4.68
		C43.4321,503.028,42.2801,503.028,41.2001,503.028L41.2001,503.028z M288.6642,501.084c-2.736-0.216-3.384-1.224-5.04-1.656
		c-9.792-0.432-20.016-1.656-29.088-2.016c0-0.432,0.072-0.864,0.144-1.224c4.248-2.808,9.504-3.312,14.976-3.096
		c0,0.288,0,0.576,0,0.936c16.128-0.648,16.128-0.648,17.784-1.008c-3.096-0.144-6.12-0.288-9.144-0.432
		c1.584-1.08,6.624-1.008,9.144-1.08c0.072,0.288,0.144,0.576,0.216,0.864c4.032-0.216,8.136-0.36,12.24-0.504
		c-0.288-0.144-0.504-0.288-0.72-0.36c3.4561-0.432,6.912-0.576,10.8-0.648c-1.44,2.16-10.728,7.992-13.392,9.504
		C293.9202,500.58,291.2562,500.796,288.6642,501.084L288.6642,501.084z M72.1601,500.58c-1.368-0.144-2.736-0.216-4.104-0.288
		c0.72-2.52,1.512-5.04,2.304-7.488c1.296-0.144,9.504,0.576,9.72,0.864c-4.68,2.304-5.328,1.656-6.12,6.84
		C73.3121,500.508,72.7361,500.508,72.1601,500.58L72.1601,500.58z M301.8401,500.1479c-0.288-0.144-0.288-0.144-0.504-0.864
		c6.336-1.8,16.776-1.08,24.048-1.224c0.072,0.072,0.144,0.216,0.216,0.36C317.2482,499.572,309.5441,499.9319,301.8401,500.1479
		L301.8401,500.1479z M64.2401,499.644c-2.376-0.504-12.024-1.44-12.6-1.8c0.216-2.736,1.008-4.464,2.232-6.48
		c3.168-0.072,10.584-0.936,13.752,1.44c-0.432,2.088-1.224,4.608-2.304,6.768C64.9601,499.572,64.6001,499.572,64.2401,499.644
		L64.2401,499.644z M333.0161,499.14c-1.008-1.008-2.376-0.288-3.0959-0.288c0-0.432,0-0.864,0-1.224c3.528,0,19.8-1.512,22.824,0
		C351.5922,498.78,335.6801,499.068,333.0161,499.14L333.0161,499.14z M8.8001,497.844c0.432-1.512,1.008-2.52,1.944-3.456
		c1.296,0.144,2.664,0.288,4.032,0.432c0.36,0.648,0.36,0.648,0.288,1.44C12.9761,496.7639,10.8882,497.2679,8.8001,497.844
		L8.8001,497.844z M303.0641,497.844c4.536-7.992,16.128-6.768,24.48-6.48c-0.288,1.728-0.504,3.456-0.72,5.184
		C318.7601,497.2679,310.6241,497.628,303.0641,497.844L303.0641,497.844z M356.0561,497.4839c-0.504-0.144-1.008-0.288-1.44-0.36
		c5.832-1.944,30.888-4.464,37.008-1.44C391.1922,496.116,360.7361,497.34,356.0561,497.4839L356.0561,497.4839z M45.3041,497.2679
		c-5.976-0.72-11.88-1.368-17.784-2.016c0-0.288,0-0.504,0-0.72c7.632-1.152,12.096-4.896,21.816-3.888
		c-0.144,1.8-1.44,4.32-2.304,6.48C46.4561,497.124,45.8801,497.196,45.3041,497.2679L45.3041,497.2679z M247.6241,497.412
		c0.072-0.288,0.144-0.576,0.216-0.864c2.88-0.504,2.88-0.504,5.04-0.576c-0.144,0.36-0.288,0.72-0.36,1.152
		C250.8641,497.196,249.2081,497.2679,247.6241,497.412L247.6241,497.412z M209.8961,496.7639c-3.312-0.216-3.816-0.576-5.976-0.792
		c0.072-0.432,0.144-0.792,0.216-1.152c7.56-1.656,19.584-9.072,27.864-3.312c0.072,3.96,0.072,3.96-0.216,4.32
		C224.0081,496.62,216.9521,496.62,209.8961,496.7639L209.8961,496.7639z M334.7441,496.7639c-1.944-0.144-3.816-0.288-5.688-0.36
		c0.072-1.584,0.144-3.168,0.216-4.752c9.864-1.44,20.448-2.016,30.888-2.304c30.24-3.168,35.064-3.888,36.72-3.888
		c2.376,2.808,2.304,6.696,0,9.864c-16.128-0.936-29.232-0.936-45.144,0.936C346.0482,496.404,340.3602,496.5479,334.7441,496.7639
		L334.7441,496.7639z M238.9841,496.188c0.072-0.144,0.144-0.288,0.216-0.36c0.648,0,1.296,0,1.944,0
		C240.5681,496.404,239.2001,496.188,238.9841,496.188L238.9841,496.188z M117.7361,495.8279
		c-9.936-0.792-19.872-1.584-29.736-2.304c0-0.36,0-0.648,0-0.936c15.12-4.464,24.48-5.616,40.536-3.024
		c3.528,0.216,7.056,0.432,10.584,0.72c0.072,0.072,0.144,0.216,0.216,0.36c9.936,0.72,32.688-0.432,40.824,4.104
		c-0.072,0.072-0.144,0.216-0.216,0.36C159.2082,495.108,138.4721,495.396,117.7361,495.8279L117.7361,495.8279z M197.6562,495.5399
		c-10.944-1.08-21.168-3.096-31.392-4.536c-20.664-1.44-20.664-1.44-22.608-1.8c-0.72-1.872-0.72-2.736-0.864-4.032
		c10.656-0.936,26.496,1.584,38.088,2.736c32.616,1.44,32.616,1.44,33.336,1.656
		C212.9201,491.1479,199.8162,495.3239,197.6562,495.5399L197.6562,495.5399z M234.3762,495.108
		c-0.216-5.76-2.16-15.264,6.768-13.824c0.936,1.656,1.08,10.224,0.288,12.744C240.8561,494.388,236.3202,495.108,234.3762,495.108
		L234.3762,495.108z M19.8161,494.388c-1.08-0.144-2.088-0.288-3.096-0.36c0-0.504,0-1.008,0.072-1.44
		c7.344-2.52,9.864-3.672,18.432-2.808c-1.224,0.504-1.224,0.504-7.2,1.584c-0.072,0.288-0.144,0.648-0.144,1.008
		C25.2881,493.164,22.1922,494.388,19.8161,494.388L19.8161,494.388z M243.7361,493.74c-0.288-3.024-1.8-11.736-0.4319-13.752
		c17.9279-6.624,34.92-15.048,51.552-24.984c0.72-0.072,1.44-0.144,2.16-0.216c71.28,10.08,90.288,12.456,94.32,13.32
		c4.68,14.184,4.68,14.184,4.68,15.12c-0.36,0.216-0.72,0.432-1.08,0.72c-10.8-2.16-31.608,2.664-42.696,3.672
		c-24.552,1.368-48.6,2.16-72.72,2.16c-12.384,1.368-22.392,1.44-34.344,1.224c-0.36,0.288-0.6479,0.576-0.936,0.864
		c4.104,0,8.208-0.144,12.744,0.72C254.6081,494.172,246.5441,493.8839,243.7361,493.74L243.7361,493.74z M82.9601,492.6599
		c-0.288-0.072-0.504-0.072-0.72-0.072c0-0.576,0-1.152,0-1.656c1.368,0,2.664-0.216,4.32,0.576
		C85.4801,492.588,84.1841,492.588,82.9601,492.6599L82.9601,492.6599z M80.2961,492.444c-4.536-0.504-4.536-0.504-8.28-1.296
		c0-0.288,0.072-0.576,0.144-0.864c2.736-0.144,5.4,0.072,8.64,0.576c0,0.36,0,0.792,0.072,1.224
		C80.6561,492.1559,80.4401,492.3,80.2961,492.444L80.2961,492.444z M11.4641,491.868c0.144-1.224,0.288-2.448,0.432-3.6
		c0.288,0,0.648,0,1.008,0c0.144,0.936,0.36,1.872,0.576,2.88C12.8322,491.6519,12.8322,491.6519,11.4641,491.868L11.4641,491.868z
		 M89.2241,490.86c-0.432-0.36-0.792-0.648-1.152-0.936c0.504-3.744,6.264-2.448,8.568-0.936
		C95.2002,489.9959,90.0882,491.076,89.2241,490.86L89.2241,490.86z M15.2801,490.788c-0.648-1.512-0.864-2.088-0.72-2.88
		c2.448,0.072,4.392,0.072,6.984,1.08C20.3201,490.2119,16.5761,490.788,15.2801,490.788L15.2801,490.788z M67.8401,490.5
		c-4.176-0.576-8.352-1.152-12.456-1.728c0.072-0.36,0.144-0.72,0.216-1.008c4.248-0.072,9,0.504,13.68,1.08
		c0.144,0.288,0.288,0.576,0.504,0.864c-0.216,0.216-0.36,0.504-0.504,0.792C68.7762,490.5,68.2721,490.5,67.8401,490.5
		L67.8401,490.5z M323.9442,490.4279c0.144-0.288,0.288-0.576,0.432-0.864c1.296,0,2.592,0.072,3.888,0.144
		C327.1841,490.788,324.8802,490.4279,323.9442,490.4279L323.9442,490.4279z M329.4161,490.284
		c-0.072-0.288-0.144-0.576-0.216-0.792c1.656-0.072,3.312-0.144,5.04-0.144c0.072,0.288,0.144,0.576,0.216,0.864
		C332.7281,490.2119,331.0721,490.2119,329.4161,490.284L329.4161,490.284z M83.4642,490.068c-0.504-0.216-0.936-0.432-1.368-0.576
		c-0.072-3.456-0.144-6.912-0.216-10.368c1.944-0.936,3.168-1.728,5.616-2.16c-0.864,4.176-0.864,8.28-1.08,12.96
		C85.4081,489.924,84.4002,489.9959,83.4642,490.068L83.4642,490.068z M231.2802,490.068c-5.256-2.448-5.256-2.448-5.976-2.52
		c0.936-3.96,9.6479-1.944,6.696,2.52C231.7122,490.068,231.4962,490.068,231.2802,490.068L231.2802,490.068z M79.3601,489.348
		c-5.256-1.008-5.256-1.008-5.688-1.296c-0.072-0.288-0.072-0.504-0.072-0.72c2.448-0.216,4.104-1.368,6.84,0.432
		C80.4401,488.628,80.3682,489.348,79.3601,489.348L79.3601,489.348z M136.9601,489.06c-11.304-0.936-11.304-0.936-11.88-1.296
		c0.072-1.368,0.432-2.088,0.36-3.312c4.68,0,9.432,0,14.184,0.072c0.576,0.72,2.736,2.52,2.376,4.536
		C140.2721,489.06,138.6161,489.06,136.9601,489.06L136.9601,489.06z M45.5201,488.628c-0.288-0.144-0.288-0.144-0.504-1.08
		c1.8-0.288,3.672-0.504,5.544-0.72c-0.072,0.504-0.144,1.008-0.216,1.512C48.6881,488.412,47.1041,488.4839,45.5201,488.628
		L45.5201,488.628z M215.9442,488.628c-7.2-1.008-14.544-0.648-21.168-0.504c-16.056-0.936-16.056-0.936-29.232-2.016
		c0-0.36,0-0.648,0-0.936c-7.632,0-16.776,0.72-23.328-1.224c-9.432-19.08-27-17.28-45.36-20.088
		c-2.808-0.072-6.408,0.36-8.28,0.144c-0.216-68.4,0-68.832,0-73.152c30.744-82.08,30.744-82.08,40.32-106.848
		c0.504-0.72,29.304-77.472,29.736-79.2c49.968-130.752,50.4-132.696,54.288-142.272c5.328-14.688,10.296-30.528,16.92-44.424
		c0.216,0,0.432,0,0.72,0c-35.712,138.816-72.648,278.28-109.08,417.6c0,0.72,0,1.44,0.072,2.16
		c31.896-122.328,63.864-244.656,95.832-366.984c0.72-0.144,0.72-0.144,0.936-0.504c-0.144-0.144-0.288-0.288-0.36-0.4321
		c1.656-7.416,1.656-7.416,15.12-58.1039c0.288-0.144,0.576-0.288,0.864-0.432c-0.288,136.728-0.36,273.456-1.368,410.4
		c-0.432,5.04-0.144,23.04-2.52,25.92c-7.92,1.368-17.352,1.008-24.912,1.008c-22.176,2.304-42.912,4.896-64.8,5.04
		c-7.632,0.504-14.832,0.432-21.672,1.584c0.288-3.96,2.088-8.352,2.304-11.952c0.36-0.288,0.36-0.288,0.864,0
		c0.504-2.376,0.504-3.528,0.432-5.544c-1.8,4.68-2.736,10.728-4.176,16.344c-0.288,0-0.576,0-0.792,0.072
		c-0.792,1.584-2.88,1.368-4.104,1.368c0.072,1.152,0.072,1.152,0.432,1.656c2.16-2.16,23.328-2.376,25.704-2.52
		c22.752,0,44.064-3.528,66.528-4.32c3.312,3.312,19.368-2.376,24.552-1.08c0.072,1.368,0.144,2.736,0.216,4.104
		c-4.536,2.232-8.136,1.296-12.312,2.736c-33.048,1.512-69.624,10.8-102.024,5.04c-0.504-0.288-1.008-0.576-1.44-0.864
		c0,0.288,0,0.648,0,1.008c0.36,0.072,0.792,0.144,1.224,0.288c-0.072,0.072-0.144,0.216-0.216,0.36
		c18.936,5.112,46.44-0.36,66.456-0.36c11.808,8.856,24.768,17.208,38.664,24.768c0.072,0.288,0.144,0.576,0.288,0.864
		C220.1201,487.908,216.5201,488.628,215.9442,488.628L215.9442,488.628z M358.9362,488.628c-0.072-0.288-0.144-0.576-0.216-0.864
		c3.384,0.144,3.384,0.144,3.6,0.36C361.1682,488.2679,360.0161,488.412,358.9362,488.628L358.9362,488.628z M69.7841,488.34
		c-8.64-0.936-8.64-0.936-11.52-1.512c0.072-0.216,0.144-0.36,0.216-0.504c-0.432-0.072-0.864-0.144-1.224-0.144
		c-0.144-0.288-0.288-0.576-0.432-0.792c4.824,0,9.72,0.36,14.832,0.504c0,0.216,0,0.432,0,0.72c0.216,0,0.432,0,0.72,0
		C71.8721,488.34,71.1521,488.196,69.7841,488.34L69.7841,488.34z M37.3842,488.124c-1.224-0.216-2.448-0.36-3.6-0.504
		c-0.144-0.36-0.216-0.72-0.288-1.008c4.752-0.792,10.296-3.168,15.408-2.664C48.9041,486.396,39.6161,488.124,37.3842,488.124
		L37.3842,488.124z M399.0402,487.9799c-0.648-1.296-0.576-1.872-0.504-2.808c0.6479-0.072,1.296-0.144,1.944-0.144
		c0.072,0.864,0.072,0.864-0.72,3.096C399.4722,488.052,399.2562,487.9799,399.0402,487.9799L399.0402,487.9799z M99.5201,487.908
		c-3.816-0.36-7.56-0.72-11.304-1.008c-0.72-1.512-0.288-2.376-0.216-3.6c6.696-2.016,24.84,1.08,33.624,1.44
		c0.144,0.576,0.36,1.224,0.576,1.872C114.2802,486.612,106.8641,487.908,99.5201,487.908L99.5201,487.908z M365.9202,488.052
		c0.072-0.288,0.144-0.504,0.216-0.72c5.616-0.864,11.232-1.656,17.28-2.088C384.4961,486.5399,376.2881,486.972,365.9202,488.052
		L365.9202,488.052z M21.7601,487.5479c0-0.288,0-0.504,0-0.72c-0.936,0-1.8,0-2.664,0c0.72-3.168,19.512-4.752,21.168-4.824
		c0.072-0.288,0.144-0.576,0.216-0.864c2.952-0.36,5.904-0.72,8.856-1.008c0,0.72,0.072,1.44,0.144,2.16
		C41.3441,484.956,29.7521,487.0439,21.7601,487.5479L21.7601,487.5479z M222.8561,486.18c-13.824-6.768-26.856-15.84-38.736-24.048
		c-0.072-0.36-0.144-0.72-0.144-1.008c5.76-1.008,10.008,3.6,15.12,7.344c6.336,3.816,12.672,7.632,19.008,11.52
		c8.856,3.816,8.856,3.816,9.576,4.392C226.8881,485.6039,224.0801,486.0359,222.8561,486.18L222.8561,486.18z M79.1441,485.964
		c-1.296-0.216-2.592-0.36-3.888-0.504c-0.072-0.288-0.144-0.576-0.144-0.792c0.576-0.576,0.648-0.72,1.584-0.936
		c0.072-0.288,0.144-0.576,0.288-0.864c1.224,0,2.52,0.072,3.816,0.144c-0.144,0.936-0.288,1.872-0.36,2.88
		C80.0082,485.892,79.5761,485.892,79.1441,485.964L79.1441,485.964z M13.6241,485.892c-2.16-10.296-7.92-20.664-8.568-30.528
		c19.008-1.656,39.6-0.144,59.184-3.096c-3.168,8.424-6.336,16.92-9.504,25.416c-1.368,0.216-2.304,0.216-3.24,0.144
		c-0.288-0.72-0.504-1.368-0.72-2.016C43.5041,484.5959,23.4161,479.412,13.6241,485.892L13.6241,485.892z M52.9361,485.6039
		c0.072-0.504,0.216-1.008,0.36-1.44c0.36-0.072,0.72-0.144,1.08-0.144c0.072,0.072,0.144,0.216,0.288,0.36
		C54.1601,485.028,53.5121,485.46,52.9361,485.6039L52.9361,485.6039z M68.0562,485.028c-8.856-1.44-9.072-1.728-10.44-2.016
		c0.36-2.52,2.952-2.52,2.664-4.104c14.976-18.504,37.224-14.256,58.896-11.448c0.576,0.288,1.152,0.648,1.728,1.008
		c-1.512,1.512-23.112,5.112-27.648,6.48c-9.144,1.584-11.016,3.024-18,8.352C74.3201,485.532,69.6401,484.956,68.0562,485.028
		L68.0562,485.028z M118.7441,483.804c-9.144-2.016-21.672-1.08-30.744-1.8c0-2.376,0.36-3.672,0.72-5.616
		c6.984-2.088,17.208-5.328,24.696-5.328c1.152,1.728,5.904,2.736,5.904,6.408c1.008,1.296,1.512,3.6,2.16,5.976
		C120.6881,484.236,119.1042,483.804,118.7441,483.804L118.7441,483.804z M229.1201,483.804c-13.104-5.544-27.72-14.04-38.16-22.536
		c-1.224-0.288-1.224-0.288-1.44-0.648c0.792-1.296,38.3759-4.68,40.536-4.536c0.432,8.352,2.304,17.424,2.304,26.64
		C231.3522,483.3,229.9841,483.732,229.1201,483.804L229.1201,483.804z M131.2002,483.588c-2.16-0.144-4.32-0.216-6.48-0.288
		c-1.224-2.088-2.232-5.544-2.448-7.056c3.384-0.72,6.768-1.44,10.152-2.16c0.072,0.216,0.144,0.432,0.216,0.72
		c1.872-1.872,7.056,5.184,7.056,7.92C138.1121,484.308,132.8561,483.588,131.2002,483.588L131.2002,483.588z M54.8801,482.868
		c-0.36-0.072-0.648-0.144-0.936-0.144c0.072-0.576,0.144-1.152,0.288-1.656c1.368-0.36,1.368-0.36,2.448-0.216
		c0,0.288,0,0.576,0,0.936C55.0961,483.012,55.0961,483.012,54.8801,482.868L54.8801,482.868z M50.7761,482.724
		c0.072-0.432,0.216-0.792,0.36-1.152c1.08-0.432,1.08-0.432,1.944-0.288C53.0801,482.6519,51.4961,482.6519,50.7761,482.724
		L50.7761,482.724z M79.3601,481.572c0-0.288,0-0.504,0.072-0.72c0.648-0.432,0.648-0.432,1.368-0.504
		c-0.072,0.36-0.144,0.72-0.216,1.08C80.1521,481.4279,79.7201,481.5,79.3601,481.572L79.3601,481.572z M235.3842,481.14
		c-3.96-1.296-1.224-68.4-1.728-84.528c0.648-0.072,1.296-0.144,1.944-0.144c0.072-0.144,0.144-0.288,0.216-0.36
		c-0.648-0.072-1.296-0.144-1.872-0.144c0.432-0.144,0.936-0.288,1.44-0.36c-0.576-0.216-1.152-0.36-1.728-0.504
		c0.216-0.792,0.432-1.584,0.72-2.376c-0.288-0.072-0.504-0.144-0.72-0.216c0.144-25.128,0.288-50.256,0.504-75.384
		c1.224-0.216,1.224-0.216,1.656-0.72c-1.44-0.36-1.44-0.36-1.656-0.72c0.216-0.072,0.432-0.144,0.72-0.216
		c-1.008-1.008-0.72-2.448-0.72-3.384c0.504-0.072,1.08-0.144,1.656-0.216c-0.576-0.072-1.152-0.144-1.656-0.216
		c0.072-1.008,0.144-2.016,0.216-3.024c0.864,0,1.728,0,2.664,0c0.072-0.144,0.144-0.288,0.216-0.36
		c-1.008-0.072-1.944-0.144-2.88-0.216c-0.072-13.608-0.144-27.216-0.216-40.824c0.216-0.144,0.432-0.216,0.72-0.288
		c-0.288-0.072-0.504-0.144-0.72-0.216c0.072-4.176,0.144-8.352,0.216-12.456c0.216-0.216,0.432-0.36,0.72-0.504
		c-0.36-0.072-0.648-0.144-0.936-0.216c0.216-83.52-0.576-168.696,1.08-251.784c1.224-0.072,2.448-0.144,3.744-0.144
		c0.288,4.2479,1.728,274.032,2.232,321.264c0.072,44.856,0.144,89.712,0.216,134.64c-0.144,6.768-0.288,13.608-0.432,20.448
		C239.4161,479.916,237.5441,480.348,235.3842,481.14L235.3842,481.14z M52.5041,480.2039c-0.36-0.072-0.72-0.072-1.008-0.072
		c0.072-0.288,0.144-0.576,0.288-0.864c0.576-0.072,1.224-0.144,1.872-0.144c-0.144,0.288-0.288,0.648-0.36,1.008
		C53.0082,480.132,52.7201,480.132,52.5041,480.2039L52.5041,480.2039z M57.5441,478.5479c-0.648-0.072-1.296-0.144-1.944-0.144
		c0-5.976,7.272-20.016,9.576-26.064c3.384-1.008,10.728-0.144,15.624-0.576c-0.072,4.608-0.144,9.216-0.216,13.824
		c-10.224,3.744-13.536,4.752-20.88,12.96C58.9841,478.5479,58.2641,478.5479,57.5441,478.5479L57.5441,478.5479z M243.0161,477.684
		c-0.072-9.864-0.144-19.728-0.216-29.52c16.488,1.44,33.48,3.024,50.184,6.264C292.3361,457.74,246.5441,478.332,243.0161,477.684
		L243.0161,477.684z M247.6241,477.5399c-0.144-0.144-0.216-0.288-0.288-0.36c0.792-0.36,3.96-2.16,4.824-1.296
		C250.6482,476.388,249.1362,476.964,247.6241,477.5399L247.6241,477.5399z M118.7441,474.228c-1.224-1.512-2.664-2.376-2.88-3.744
		c5.688-0.936,8.568,0.072,14.4,1.44c-0.144,0.36-0.216,0.72-0.288,1.08C126.0882,473.508,122.3441,474.228,118.7441,474.228
		L118.7441,474.228z M389.6801,466.308c-31.176-3.6-61.344-7.992-91.944-12.096c0.288-1.584,23.76-16.632,25.488-17.928
		c9.936-4.536,39.672-26.856,44.64-36.792c-3.672,0.72-12.96,10.872-16.344,14.976c-2.88,2.376-52.128,38.592-54.288,37.08
		c-2.664,4.32-44.856-3.168-54.36-5.04c-1.08-145.296-2.304-290.088-2.952-434.664c0.216,0.072,0.504,0.144,0.792,0.288
		c39.024,113.3281,77.616,228.456,113.544,343.656c12.024,36.36,24.264,72.432,36.216,109.44c-0.072,0.36-0.072,0.72-0.072,1.08
		C390.1121,466.308,389.8961,466.308,389.6801,466.308L389.6801,466.308z M82.0242,464.9399
		c-1.944-18.576-0.576-37.944-0.648-55.872c1.8-4.536,3.6-9,5.4-13.464c0.216-0.072,0.432-0.144,0.72-0.216
		c0,22.68,0.432,45.864-0.216,68.976C83.1761,465.084,83.1761,465.084,82.0242,464.9399L82.0242,464.9399z M5.2001,454.284
		c-0.72-0.504-1.44-1.008-2.16-1.512c-0.072-0.648-0.144-1.296-0.144-1.944c2.304-1.368,2.304-1.368,3.024-1.368
		c0.216,0.36-0.144,1.584,0,3.312c0.576-0.432,0.936-2.664,1.44-3.384c17.28-0.72,35.208-1.296,53.064-3.024
		c1.944,0,3.96,0.072,5.976,0.144c-0.576,1.512-1.152,3.096-1.656,4.68C45.5201,454.788,24.4241,453.924,5.2001,454.284
		L5.2001,454.284z M65.8961,451.0439c0.432-1.368,0.864-2.736,1.296-4.032c3.888-0.432,7.776-0.792,11.664-1.152
		c0.072-0.144,0.144-0.288,0.288-0.36c-3.528-0.864-7.632,0-10.872,0.072c0-6.624,9.072-25.416,11.592-32.184
		c0.216,0,0.432,0,0.72,0c0,11.88,0,23.832,0.072,35.784C75.3281,450.468,70.7921,450.972,65.8961,451.0439L65.8961,451.0439z
		 M9.0161,448.308c-0.576-0.144-1.08-0.288-1.584-0.36c11.16-64.872,25.2-130.392,38.16-194.4
		c9.576-52.128,19.656-104.256,30.24-155.52c0.072-0.072,0.216-0.144,0.36-0.216c0.072,0.288,0.216,0.5759,0.36,0.9359
		c1.728,107.0641,1.728,107.0641,2.664,149.976c0.36,53.856,0.792,107.712,1.224,161.568c-4.536,11.664-9,23.328-13.464,34.992
		C47.6081,447.3,27.6642,448.308,9.0161,448.308L9.0161,448.308z M81.3041,406.692c-0.288-23.616-0.504-47.232-0.72-70.848
		c0.216-0.072,0.432-0.144,0.72-0.216c-0.288-0.072-0.504-0.144-0.72-0.216c-0.288-36-0.576-72-0.864-108
		c-0.288-3.888-1.008-87.624-0.72-88.128c0-0.936,0-0.936-0.504-2.88c-2.304-3.024-1.944-44.928-0.144-50.4
		c1.368-0.576,3.096-0.8641,4.824-0.8641c0.072,0.2161,0.216,0.432,0.36,0.6481c1.584,84.312,2.88,168.9839,4.104,253.6559
		C87.6401,346.4999,91.8161,396.18,81.3041,406.692L81.3041,406.692z M77.7041,84.2039c-7.56-1.8719,3.672-4.8239,5.472-4.6799
		c0,1.296,0.072,2.592,0.144,3.888C81.3041,83.6999,80.8001,83.988,77.7041,84.2039L77.7041,84.2039z"/>
</g>
</svg>
