<svg xmlns="http://www.w3.org/2000/svg" viewBox="0 0 100 100"><defs><style>.cls-1{fill:#f9f9f9;}</style></defs><title>charge-white_ink-th</title><g id="Layer_2" data-name="Layer 2"><g id="Layer_1-2" data-name="Layer 1"><path class="cls-1" d="M47,71.47a6.26,6.26,0,0,1,.5,2.49,5.4,5.4,0,0,1-1.58,3.82,5.41,5.41,0,0,1-7.8,0A5.4,5.4,0,0,1,36.55,74a6.26,6.26,0,0,1,.5-2.49,22.9,22.9,0,0,1,1.33-2.16,22,22,0,0,0,2.82-5.14.85.85,0,0,1,1.66,0,22.72,22.72,0,0,0,2.82,5.14A22.9,22.9,0,0,1,47,71.47ZM100,50A50,50,0,1,1,50,0,50,50,0,0,1,100,50ZM79.55,63.17a28.87,28.87,0,0,0-3-12.78,86.91,86.91,0,0,0-7-11.21q-5.24-7.39-7.89-11.87A83.21,83.21,0,0,1,55,11.37a4.74,4.74,0,0,0-2.82-3.24,5.22,5.22,0,0,0-4.24,0A5.29,5.29,0,0,0,45,11.37a67.9,67.9,0,0,1-6.64,15.77q-2.66,4.48-7.89,12a90.72,90.72,0,0,0-7,11.29,29.58,29.58,0,0,0-3,12.78,28.76,28.76,0,0,0,4,14.77,29.8,29.8,0,0,0,10.79,10.8,29.43,29.43,0,0,0,29.56,0,29.8,29.8,0,0,0,10.79-10.8A28.76,28.76,0,0,0,79.55,63.17Z"/></g></g></svg>