<svg xmlns="http://www.w3.org/2000/svg" viewBox="0 0 100 100"><defs><style>.cls-1{fill:#b3b3b3;}</style></defs><title>charge-hotstamp-legend</title><g id="Layer_2" data-name="Layer 2"><g id="Layer_1-2" data-name="Layer 1"><path class="cls-1" d="M50,0a50,50,0,1,0,50,50A50,50,0,0,0,50,0Zm0,11c7.3,0,13.21,6.85,13.21,15.31,0,4.2-1.45,15.63-3.81,18.39,0,0-1.26,6.18-2.07,10.16H42.67L40.6,44.74C38.24,42,36.79,30.55,36.79,26.35,36.79,17.9,42.7,11,50,11ZM80.09,78.87A4.09,4.09,0,0,1,76,83H24a4.09,4.09,0,0,1-4.08-4.09V75.78H80.09Zm3.91-10A4.06,4.06,0,0,1,82.57,72a4.15,4.15,0,0,1-1.24.72,4.27,4.27,0,0,1-1.25.25H19.91a4,4,0,0,1-1.24-.25A4.15,4.15,0,0,1,17.43,72,4.09,4.09,0,0,1,16,68.91V61.78a4.08,4.08,0,0,1,4.08-4.08H79.92A4.08,4.08,0,0,1,84,61.78Z"/></g></g></svg>