<svg xmlns="http://www.w3.org/2000/svg" viewBox="0 0 100 100"><defs><style>.cls-1{fill:#b3b3b3;}</style></defs><title>charge-second_side-legend</title><g id="Layer_2" data-name="Layer 2"><g id="Layer_1-2" data-name="Layer 1"><path class="cls-1" d="M50,0a50,50,0,1,0,50,50A50,50,0,0,0,50,0ZM82.23,80a3.64,3.64,0,0,1-.07.74A3.69,3.69,0,0,1,81.6,82a3.73,3.73,0,0,1-1,1,3.77,3.77,0,0,1-1.32.55,3.57,3.57,0,0,1-.74.08H44a3.57,3.57,0,0,1-.74-.08,3.94,3.94,0,0,1-.69-.21,3.7,3.7,0,0,1-2.18-2.65,3.64,3.64,0,0,1-.07-.74V33.06a3.63,3.63,0,0,1,1.08-2.6,3.46,3.46,0,0,1,1.17-.79A3.58,3.58,0,0,1,44,29.38H78.55a3.57,3.57,0,0,1,.74.07,3.61,3.61,0,0,1,1.32.56,3.67,3.67,0,0,1,1.62,3.05Zm-61.4-16.5V16.56a3.68,3.68,0,0,1,3.68-3.68H59.09a3.68,3.68,0,0,1,3.68,3.68v8.82H44a7.68,7.68,0,0,0-7.68,7.68v34.1H24.51A3.68,3.68,0,0,1,20.83,63.48Z"/></g></g></svg>