<?xml version="1.0" encoding="utf-8"?>
<!-- Generator: Adobe Illustrator 21.1.0, SVG Export Plug-In . SVG Version: 6.00 Build 0)  -->
<svg version="1.1" id="bay" xmlns="http://www.w3.org/2000/svg" xmlns:xlink="http://www.w3.org/1999/xlink" x="0px" y="0px"
	 viewBox="0 0 502.5812 211.7655" enable-background="new 0 0 502.5812 211.7655" xml:space="preserve">
<g>
	<path fill-rule="evenodd" clip-rule="evenodd" d="M450.7645,71.3101c1.995-0.6069,4.3245-1.0043,6.7589-1.3547L450.7645,71.3101
		L450.7645,71.3101z M18.3387,193.3779h0.0003H18.3387L18.3387,193.3779z M79.0183,71.7078l-0.0011,0.0003l-0.0031,0.0005
		L79.0183,71.7078L79.0183,71.7078z M79.0189,71.7078h-0.0005H79.0189L79.0189,71.7078z M262.8805,26.7132h0.0002H262.8805
		L262.8805,26.7132z M267.2606,39.9463l-0.0003-0.0003l-0.0735-0.0502l0.1758-0.1757l0.0009-0.0009l-0.1026,0.2273L267.2606,39.9463
		L267.2606,39.9463z M267.4664,39.4921l0.0734,0.0501l-0.1758,0.1758l-0.0009,0.0009l0.1026-0.2274L267.4664,39.4921
		L267.4664,39.4921z M267.4661,39.4918l0.0003,0.0003L267.4661,39.4918L267.4661,39.4918z M122.0624,35.3992l0.0005-0.0003
		L122.0624,35.3992L122.0624,35.3992z M162.9638,65.9813l-0.0003-0.0003l-0.0462-0.0357l0.1754-0.1754l0.0011-0.0012l-0.1298,0.2129
		L162.9638,65.9813L162.9638,65.9813z M163.224,65.5561l0.0462,0.0357l-0.1755,0.1754l-0.0011,0.0012l0.1299-0.2129L163.224,65.5561
		L163.224,65.5561z M163.2237,65.5558l0.0003,0.0003L163.2237,65.5558L163.2237,65.5558z M211.8566,160.2075h0.0003H211.8566
		L211.8566,160.2075z M257.3748,105.3429l0.002-0.0002L257.3748,105.3429L257.3748,105.3429z M257.3728,105.3432l0.002-0.0003
		L257.3728,105.3432L257.3728,105.3432z M65.3547,126.2223l0.0028-0.0003L65.3547,126.2223L65.3547,126.2223z M238.5298,85.7533
		l-0.0012,0.0003L238.5298,85.7533L238.5298,85.7533z M297.1588,98.6444c11.446-1.6143,22.9073-3.2681,34.3749-5.1009
		c14.4221-2.3055,28.8723-4.8989,43.348-8.0623c0.2574-0.0997,1.0063-0.2823,2.0883-0.5187
		c1.2668-0.2764,3.0161-0.6347,4.9816-1.0253c2.7734-0.5514,6.0353-1.1817,8.981-1.7436c4.3152-0.8232,7.8982-1.4899,8.2522-1.5443
		l0.0147-0.0012l0.0094-0.0009l0.0068-0.0008c0.3152-0.0201,0.6852-0.0403,1.0936-0.0609l1.2988-0.0629
		c2.7122-0.1288,6.3791-0.3033,9.7668-0.7305c3.2958-0.4158,6.3315-1.0692,7.9591-2.1487c0.1236-2.5892,2.698-6.6518,4.8183-9.9984
		l0.0003,0.0003l0.0028-0.0045l0.0048-0.0076l-0.0003-0.0003c0.745-1.1758,1.4329-2.2614,1.929-3.1479
		c-0.7347-0.2367-2.0645-0.4595-3.7601-0.6596c-2.1957-0.2591-4.9836-0.478-7.8817-0.6409c-3.3463-0.1885-6.8375-0.305-9.7424-0.328
		c-2.5826-0.0204-4.7061,0.0335-5.8527,0.1735c0.0088,0.2571,0.0921,0.5488,0.2322,0.8543c0.1959,0.428,0.5012,0.8773,0.8742,1.2951
		c0.3835,0.4297,0.8393,0.826,1.3224,1.1328c0.4365,0.2775,0.8918,0.4793,1.33,0.5632v-0.0006l0.0723,0.0128l0.0629,0.0096v0.0002
		l0.0834,0.012l0.195,0.028l0.0179,0.1973l0.0076,0.0854h0.0009c0.2132,2.4525,0.849,3.0832,2.3933,4.6136h0.0009l0.0008,0.0008
		l-0.0005,0.0006c0.2282,0.2262,0.4771,0.4723,0.745,0.7444c0.271,0.2752,0.5612,0.5763,0.8694,0.9082l0.0399,0.0576l0.0273,0.0536
		l0.0224,0.0663c0.1503,0.7886-0.3741,1.4099-1.3192,1.8987c-0.8651,0.4473-2.1045,0.7914-3.4894,1.055
		c-1.7825,0.3393-3.8143,0.5536-5.5851,0.6894c-1.7546,0.1347-3.2751,0.1939-4.0226,0.2225l-0.2685,0.0108
		c-3.9257,1.2844-8.0416,1.6625-12.0433,2.0298l-0.0048,0.0009l-0.004,0.0003v-0.0003c-3.7902,0.3478-7.4783,0.6866-10.7699,1.7867
		c-3.2721,1.0934-6.1674,2.9449-8.4104,6.3213l-0.0564,0.0604l-0.0562,0.0431l-0.0734,0.0391
		c-1.2552,0.4136-2.1393,0.5553-2.7445,0.504c-0.6922-0.0589-1.0565-0.36-1.2031-0.8045v-0.0008
		c-0.1454-0.4425-0.0326-1.0069,0.1882-1.5919c0.2084-0.5522,0.5122-1.1262,0.777-1.6259l0.002-0.0028L297.1588,98.6444
		L297.1588,98.6444z M358.0651,84.3005c0.1312-0.248,0.2515-0.4759,0.3413-0.6636c-8.6179,0.7316-17.2491,2.3343-25.8551,3.9317
		l-0.0017,0.0003c-4.5212,0.8393-9.0368,1.6781-13.5428,2.3893c-4.5051,0.7109-8.9966,1.2946-13.4646,1.6237
		c-0.5728,0.1165-1.334,0.6437-2.1736,1.3612c-0.8699,0.7438-1.8161,1.6875-2.7314,2.6008l0.0002,0.0006l-0.0034,0.0034h-0.0009
		c-1.2858,1.2827-2.5152,2.509-3.4744,3.0966L358.0651,84.3005L358.0651,84.3005z M358.0654,84.3008l-0.0003-0.0003
		L358.0654,84.3008L358.0654,84.3008z M332.4592,87.0793l0.0016-0.0005L332.4592,87.0793L332.4592,87.0793z M294.9032,95.1051
		l0.0003-0.0006L294.9032,95.1051L294.9032,95.1051z M472.17,65.3662h-0.0002H472.17L472.17,65.3662z M495.6911,48.1715
		l-0.0012-0.0016L495.6911,48.1715L495.6911,48.1715z M145.7084,19.2341v0.0005l0.0031,0.036h-0.2463h-0.0037l0.2469-0.0371V19.2341
		L145.7084,19.2341z M145.2147,19.3072l-0.0031-0.036h0.2463h0.0037l-0.2469,0.0371V19.3072L145.2147,19.3072z M145.2147,19.3077
		v-0.0005V19.3077L145.2147,19.3077z M424.3068,71.7745c-1.3654,2.1277-2.4678,4.2432-2.759,5.7724
		c2.4494-0.6103,4.9882-1.2036,7.5957-1.7682c2.5566-0.5536,5.1849-1.0817,7.8667-1.576c3.2494-0.9802,7.3808-1.7323,11.6742-2.5132
		c0.6902-0.1256,1.3845-0.2512,2.0801-0.3793L424.3068,71.7745L424.3068,71.7745z M430.0988,64.3346
		c-1.4514,1.4593-3.8792,4.4592-5.7921,7.4398L430.0988,64.3346L430.0988,64.3346z M456.5038,64.6904
		c-3.7271-0.1151-7.9719-0.1936-11.9915-0.2475c-1.6659,0.019-3.3123,0.0122-4.9136-0.0556c-4.2585-0.0399-7.8023-0.0524-9.5-0.0527
		L456.5038,64.6904L456.5038,64.6904z M467.17,65.4507c-0.9017-0.3481-5.2299-0.5922-10.6662-0.7603L467.17,65.4507L467.17,65.4507z
		 M467.2318,66.8292c-0.0593-0.4615-0.0615-0.9204-0.0618-1.3785L467.2318,66.8292L467.2318,66.8292z M0,211.3949v-0.864h0.0011
		l0.0003-0.1012l0.0009-0.2339l0.2324-0.015l0.1009-0.0065c4.7823-0.3102,9.0258-1.421,13.3058-2.5407l0.002-0.0009l0.0091-0.0023
		v0.0002c2.7916-0.7302,5.6007-1.4655,8.5816-1.9888c2.8911-0.5074,5.9533-0.8181,9.3331-0.7379
		c-0.6908-1.811-4.1995-8.2939-5.576-10.8388l-0.0085-0.0156l-0.0011-0.002l-0.2803-0.5185
		c-2.3505-0.0595-4.8481,0.1446-7.2995,0.3444l-0.0023,0.0003l-0.0108,0.0009c-2.6014,0.212-5.1537,0.4207-7.4753,0.3079
		c-2.9395-0.1426-5.4876-0.8-7.2555-2.5999c-1.7637-1.7955-2.7309-4.7118-2.5044-9.3646l0.0068-0.0471l0.0093-0.0383l0.0148-0.0428
		c0.2781-0.6256,0.6967-1.3745,1.2033-2.2138c0.498-0.824,1.0973-1.76,1.7348-2.7561c1.7121-2.6748,3.7106-5.7971,4.9453-8.6494
		c1.2095-2.7938,1.692-5.3255,0.4425-6.8936l-0.0312-0.0496l-0.0215-0.0462l-0.0184-0.0567
		c-0.3002-1.5026-1.4207-4.1352-2.7439-7.2437l-0.0011-0.002l-0.0028-0.0068h0.0003c-1.8405-4.3234-4.0683-9.5581-5.0769-14.0777
		c-1.0253-4.5927-0.788-8.4532,2.3633-9.9292c3.0716-2.6031,6.243-5.0579,9.5111-7.371c3.2754-2.3184,6.6424-4.4904,10.0979-6.5219
		c3.4591-2.0339,7.0104-3.9305,10.6503-5.696c3.6292-1.7603,7.3536-3.3939,11.1693-4.9065
		c0.4711-0.3186,1.3484-0.5857,2.4934-0.8062c1.3002-0.2506,2.9574-0.4482,4.7563-0.6004c2.2558-0.1911,4.7594-0.3144,7.0668-0.3855
		c2.8905-0.0893,5.4655-0.0958,6.8545-0.0547c0.8481-2.0829,1.6846-4.2253,2.5265-6.3808l0.0011-0.0011l0.0091-0.0227
		l-0.0006-0.0003c3.24-8.2916,6.5636-16.7986,11.2796-23.8549c0.1684-0.4419,0.3629-0.8354,0.5482-1.1948l-0.002-0.0011
		l0.1182-0.2251l0.0028-0.0053l0.0006,0.0002c0.146-0.28,0.2812-0.5377,0.3804-0.773c-0.9383,0.0428-1.7175,0.2004-2.4182,0.343
		l-0.0048,0.0005l-0.0332,0.0068v0.0003c-0.32,0.0649-0.6245,0.1276-0.9238,0.1746c-0.089,0.3444-0.2594,0.6435-0.4893,0.8964
		c-0.2818,0.3098-0.6548,0.5473-1.0823,0.7101h-0.0009c-0.2676,0.1015-0.559,0.1746-0.8634,0.2172
		c-0.3033,0.0425-0.6211,0.0555-0.9428,0.038h-0.0009c-0.3237-0.0176-0.6537-0.0672-0.9782-0.1474
		c-0.3161-0.0782-0.629-0.1871-0.9281-0.3254c-0.6681-0.3095-1.2756-0.7715-1.7271-1.3921l0.0008-0.0005
		c-0.3892-0.5346-0.6622-1.1841-0.7594-1.9533c-0.7948-0.8439-1.2637-2.0237-1.5066-3.3616
		c-0.2446-1.3493-0.2619-2.861-0.1568-4.3489c0.1015-1.4423,0.3181-2.8683,0.5508-4.1023c0.2064-1.0944,0.4261-2.0353,0.5896-2.704
		l-0.5193-0.1298l-0.0964-0.0241l-0.2228-0.0556l0.0371-0.2265l0.0161-0.0984l0.1026-0.6089h0.0003
		c0.0235-0.1364,0.0488-0.2701,0.0734-0.4023c-1.3884-1.0256-2.7502-2.131-4.1023-3.2287l-0.002-0.0019l-0.0051-0.0043v0.0002
		c-3.5263-2.8627-7.001-5.6831-10.8023-6.9502l-0.0207-0.0068l-0.0204-0.0088l-0.0264-0.0136
		c-0.3319-0.1927-0.7036-0.3991-1.1047-0.6171c-0.4011-0.218-0.8524-0.4589-1.3257-0.7121l-0.0068-0.0034
		c-3.5045-1.8723-8.3248-4.4473-9.2877-6.5341c-0.0644,0.002-0.131,0.0045-0.1979,0.0082
		c-0.1307,0.0074-0.2594,0.0179-0.3832,0.0298c-0.1137,0.0108-0.2512,0.0272-0.3977,0.0453v-0.0009
		c-0.104,0.013-0.2412,0.0323-0.3866,0.053l-0.1233,0.0179L40.68,35.984v-0.2883v-0.1247c0-0.6392-0.7707-1.7314-2.0517-3.1013
		c-1.5134-1.618-3.7276-3.5938-6.234-5.6628c-3.4166-2.8207-7.3718-5.8076-10.8437-8.3058
		c-4.3285-3.1147-7.8953-5.4646-8.7196-5.7798l-0.0244-0.0116l-0.0215-0.011l-0.0255-0.0147
		c-0.7551-0.5035-1.2132-1.01-1.4133-1.5163v-0.0011c-0.2236-0.5672-0.1318-1.1208,0.2251-1.6569l0.0006-0.0022
		c1.5574-2.336,8.8914-4.3126,16.3083-5.7637c7.3774-1.4428,14.8388-2.3763,16.7221-2.6116l0.3523-0.0442l0.0108-0.0009
		l0.0071-0.0006h0.006c2.8298-0.1655,5.3912-0.3432,7.7142-0.5037l0.1667-0.0117l0.0167-0.0011h0.0003
		C68.36-0.5033,73.2583-0.8398,89.6159,6.8656c4.1403,0.9947,8.0561,2.1323,11.9421,3.2607h0.0011l0.0173,0.0051v0.0003
		c3.9733,1.154,7.9183,2.3,12.0331,3.2731c4.1034,0.9706,8.3679,1.7674,12.9824,2.2252c3.1241-0.0006,6.2518-0.1768,9.3929-0.4411
		c3.1496-0.265,6.3009-0.6196,9.4765-0.9759l0.0179-0.002c3.5992-0.404,7.2323-0.8121,10.9139-1.0978
		c3.505-0.9853,7.0614-1.9508,10.6512-2.9078c3.5379-0.9431,7.2034-1.9032,10.8859-2.8669
		c2.2504-0.5891,4.5156-1.1826,7.0132-1.8411c2.321-0.612,4.6689-1.2362,7.0586-1.8799v0.0003
		c0.4167-0.123,0.8164-0.2446,1.2078-0.3654c0.3373-0.1041,0.7798-0.2429,1.2251-0.3824l0.0003,0.0006l0.0011-0.0003l0.0037-0.0019
		c3.6774-1.152,7.5276-2.3582,11.6941-2.3582V0.5089h0.0445h0.1032l0.0734,0.0734l0.0317,0.0318
		c0.5999,0.5998,0.8116,1.3785,0.8266,2.2546c0.0142,0.8382-0.1528,1.7597-0.3223,2.6969c-0.0794,0.4363-0.1593,0.8776-0.222,1.3252
		c-0.0538,0.3878-0.0924,0.7702-0.1026,1.1361c3.1099,2.1444,6.8383,3.689,10.8708,4.9303c4.0876,1.2585,8.498,2.207,12.8934,3.1524
		c2.9716,0.6389,5.938,1.277,8.7896,2.0063c2.8602,0.7316,5.6208,1.5596,8.1851,2.5795l0.0176,0.0077l0.0156,0.0076l0.0184,0.0099
		c0.5275,0.3152,1.0769,0.6194,1.6447,0.9128c0.5601,0.2888,1.1364,0.5672,1.7274,0.8351c1.9267,0.6375,3.9447,1.3156,6.0301,2.0387
		c2.0549,0.7129,4.1154,1.4507,6.1212,2.2059c2.4171,0.7381,4.856,1.4865,7.2246,2.3156c2.3862,0.8356,4.7118,1.7563,6.8907,2.8378
		h0.0011l0.0604,0.03l0.1386,0.0692v0.1545v0.0667c0,0.1854,0.0003,0.3906,0.0077,0.5677v0.0012
		c0.0085,0.1942,0.0255,0.3965,0.0587,0.5972l0.0091,0.055l0.0207,0.1265l-0.0901,0.0901l-0.0391,0.0391
		c-0.3943,0.3943-0.974,0.836-1.6656,1.2943c-0.7643,0.506-1.6668,1.0338-2.6076,1.5409c-1.0673,0.5752-2.1892,1.1273-3.2176,1.5937
		c-1.0026,0.4552-1.9199,0.8305-2.6127,1.067c-0.0034,0.0241-0.0054,0.0479-0.0074,0.0732l-0.0057,0.0691l0.4195,0.1896
		l0.0006,0.0006c4.2656,1.9318,8.992,4.0728,14.2676,4.0728l0.0595,0.0079l0.0482,0.0119l0.0519,0.0195
		c1.1115,0.5556,2.3116,1.1214,3.5807,1.6832c1.1988,0.5309,2.4494,1.053,3.7338,1.5542c1.2104,0.4726,2.4503,0.9267,3.7046,1.3513
		c1.1492,0.3892,2.317,0.7569,3.4929,1.0939c2.0072-1.5055,15.9463-2.9633,32.1477-4.1924
		c16.5075-1.2526,35.4163-2.2838,46.3524-2.88c1.8331-0.0998,3.4407-0.1877,4.8169-0.2645
		c1.3281-0.0737,2.3896-0.1355,3.1368-0.1828c3.3466-0.4621,12.9739-1.6725,23.7401-2.9154
		c7.2964-0.8425,15.1368-1.7019,21.9314-2.3568c5.1293-0.4941,9.6511-0.8669,12.8761-1.0196
		c2.7195-0.1287,4.5488-0.0913,5.0947,0.1709c3.797-0.0029,7.6519-0.1829,11.5328-0.3629l0.0105-0.0005h0.002l0.0062-0.0003
		c8.7069-0.4045,17.5575-0.8156,26.4209,0.7279l0.0723,0.0244l0.0581,0.0301l0.0615,0.045c0.3951,0.3949-0.4059,2.406-1.7946,5.2053
		c-1.3447,2.7111-3.2272,6.2054-5.0901,9.6633l-0.0005-0.0003l-0.0017,0.0034v0.0012c-2.9135,5.4073-5.7796,10.7268-6.4347,12.6833
		c0.7716,0.0201,1.5715,0.0487,2.3936,0.0822c0.9485,0.0388,1.9191,0.0836,2.9111,0.1298v-0.0008h0.0017l0.0108,0.0011
		c5.46,0.2526,11.6172,0.5378,16.5928-0.0383c-0.0654-0.5663-0.305-1.0114-0.604-1.3663c-0.3461-0.4116-0.7855-0.7183-1.1282-0.957
		l-0.1075-0.0748v-0.0009c-0.0969-0.0681-0.1813-0.129-0.2363-0.1718l-0.0516-0.0558l-0.0363-0.0524l-0.0323-0.0652
		c-0.0709-0.2194-0.1236-0.4314-0.1579-0.6344c-0.0364-0.2129-0.054-0.4164-0.054-0.6106c0-0.4708,0.1002-0.8989,0.2824-1.2867
		c0.1934-0.4116,0.4776-0.7736,0.83-1.0902h0.0011c0.3175-0.2849,0.6902-0.5341,1.1016-0.7506
		c0.4427-0.233,0.9332-0.4312,1.4498-0.5981c0.9735-0.3149,2.0475-0.5229,3.0785-0.6579c1.4774-0.1933,2.8619-0.2387,3.7443-0.2387
		h0.0771h0.1786l0.0576,0.1709l0.0249,0.0743v0.0011l0.216,0.648l0.0011,0.0008l0.0161,0.0493l0.0372,0.1137l-0.0655,0.1
		l-0.0284,0.0434h-0.0011c-1.1758,1.7901-0.574,4.4436,0.0233,7.0758l0.0002,0.0014c0.4759,2.0996,0.9496,4.1891,0.5746,5.9284
		c-0.3818,1.7714-1.6172,3.1507-4.5474,3.7613c-0.3141,0.2435-0.9794,0.4881-1.8813,0.7279
		c-1.0591,0.2814-2.4633,0.5655-4.0125,0.8353c-2.0268,0.3535-4.3262,0.6891-6.4279,0.9683
		c-2.9688,0.3943-5.5275,0.6743-6.3632,0.7325c-1.0139,0.2773-2.1569,0.5241-3.3644,0.7555
		c-1.2237,0.2344-2.5087,0.4527-3.795,0.671c-1.8734,0.3177-3.7532,0.6372-5.4286,1.0037c-1.6234,0.3552-3.0464,0.7537-4.066,1.2356
		c-2.1523,3.494-4.4124,6.9679-6.7294,10.436c-2.342,3.5051-4.7095,6.9565-7.0844,10.4185l-0.0009,0.0011
		c-5.3541,7.8046-10.7481,15.6674-15.6487,23.8351l-0.0292,0.04l-0.0292,0.032l-0.038,0.0343
		c-0.3396,0.2469-0.663,0.582-0.9604,0.974c-0.3237,0.4267-0.6193,0.9244-0.875,1.4547c-0.271,0.5618-0.4961,1.1594-0.6622,1.747
		c-0.1647,0.584-0.2722,1.1585-0.3076,1.6787l-0.009,0.1287l-0.021,0.2974l-0.2883-0.072l-0.1247-0.0312v-0.0002
		c-0.1102-0.0272-0.2106-0.0425-0.3044-0.0504l-0.0011-0.0009c-0.0564-0.0049-0.1117-0.0082-0.1653-0.0096
		c-0.4226,0.4881-1.0448,1.1265-1.7875,1.8564c-0.7863,0.7733-1.703,1.6478-2.6603,2.5597l0.0002,0.0003l-0.0011,0.0011
		l-0.0048,0.004c-3.3196,3.1635-7.1337,6.798-7.3837,7.967l-0.0185,0.0856l-0.0428,0.1985h-0.2012h-0.087l-0.0334,0.0002
		l0.0301,0.0601l0.085,0.1707l-0.1429,0.1273l-0.0615,0.0547h-0.0009c-0.4459,0.3934-1.6234,1.5284-2.9341,2.8777
		c-0.9139,0.9408-1.8924,1.9857-2.7298,2.9537c-0.6194,0.716-1.1614,1.3881-1.5384,1.9377
		c-0.2653,0.387-0.4456,0.7013-0.5048,0.9114c0.0663,0.0759,0.1429,0.1805,0.2021,0.3155l0.0006-0.0003
		c0.0916,0.2075,0.1417,0.4839,0.0547,0.8317l-0.0187,0.074l-0.0434,0.1712l-0.1763,0.0164l-0.0763,0.0071
		c-1.3756,0.125-2.6986,0.6738-3.9986,1.4366c-1.3127,0.7707-2.6113,1.7674-3.9183,2.7706
		c-1.236,0.9487-2.4812,1.9046-3.7735,2.6977c-1.2798,0.7854-2.6048,1.4094-4.0056,1.707c-0.9113,0.881-2.3519,1.7632-4.1417,2.6229
		c-2.0509,0.985-4.5686,1.9457-7.2765,2.8482c-3.36,1.1197-7.0118,2.1515-10.4253,3.0311
		c-4.8773,1.2569-9.2701,2.2053-11.6391,2.6606c-0.1627,0.1596-0.2874,0.2617-0.6267,0.4309
		c-0.3184,0.1588-0.872,0.3946-1.9247,0.8413v0.0646c2.9245,0.0697,5.8516,0.1409,8.7846,0.2191
		c3.009,0.0802,6.0222,0.1698,9.0425,0.2761h0.0309c10.6472,0,21.5476-0.5054,32.5619-1.0157l0.0354-0.0017h0.0009
		c12.7469-0.5911,25.6488-1.1892,38.4574-1.0239c12.8146,0.1653,25.5274,1.0952,37.8782,3.5603v0.0002l0.1971,0.0392l0.4575,0.091
		l-0.3288,0.3297l-0.1426,0.1429v0.0009c-0.1147,0.1148-0.2307,0.2307-0.2746,0.3629v0.0011l-0.025,0.074l-0.0573,0.1689
		l-0.1789,0.0009l-0.0771,0.0003v0.0012c-9.8458,0-19.8519-0.9281-29.7482-1.8454v0.0006l-0.0102-0.0008l-0.002-0.0009
		l-0.0369-0.0034c-7.0755-0.6556-14.0972-1.307-20.9715-1.6072c-3.5509,0.0717-7.073,0.1752-10.5743,0.3044
		c-3.4943,0.1293-6.9727,0.2849-10.442,0.4603c-3.4486,0.1743-6.8998,0.3708-10.3581,0.5814
		c-3.4339,0.2092-6.8845,0.4351-10.353,0.6695l-0.0167,0.0012h-0.0054v-0.0012c-4.6119,0.0729-9.2452,0.0822-13.8844,0.0601
		c-4.6406-0.0224-9.2871-0.0765-13.9288-0.1304c-9.1194-0.1057-18.226-0.2115-27.2325-0.0765
		c-8.9867,0.1343-17.8775,0.5096-26.5881,1.3643c-5.5704,2.3077-11.6183,3.4297-17.7381,3.9583
		c-6.1129,0.5284-12.3103,0.4652-18.1749,0.4051l-0.1726-0.0017c-1.6926-0.0167-3.3579-0.0337-5.1862-0.0337v-0.0005
		c-2.0203,0.11-4.1287,0.1661-6.2913,0.1953c-2.1588,0.0286-4.3716,0.0306-6.6058,0.0323
		c-5.0094,0.0034-10.1333,0.0079-15.0477,0.3217c-4.8969,0.3124-9.5786,0.9343-13.7132,2.1719l-0.0301,0.0068l-0.0255,0.0042
		l-0.0284,0.0029c-1.1877,0.0626-2.8391,0.1856-4.6559,0.3716c-1.4477,0.1483-3.0042,0.3373-4.5159,0.5675
		c-0.7776,0.1931-1.6498,0.396-2.5929,0.6038l-0.0003-0.0011c-1.0168,0.2242-2.124,0.4572-3.2935,0.6951
		c-0.2721,0.0947-0.5236,0.1927-0.7481,0.2922v0.0011c-0.2231,0.0984-0.421,0.1987-0.5885,0.2993l-0.038,0.0187l-0.0338,0.013
		l-0.04,0.0116c-10.0556,2.0472-19.8876,3.5388-29.6864,4.7603c-9.7742,1.2183-19.5611,2.1725-29.5061,3.1416l-0.2452,0.0238
		l-0.0031,0.0009l-0.0102,0.0009l-0.0204,0.0011c-3.7497,0-7.9682-0.1023-12.4107-0.2097h-0.0057l-0.0059-0.0003
		c-8.7738-0.2126-18.4346-0.4465-27.6812,0.0542c-9.231,0.5-18.0471,1.7331-25.1456,4.4521l-0.0312,0.0088l-0.0261,0.0063
		l-0.0292,0.006c-2.1305,0.2486-3.1966,0.373-3.742,0.4566c-0.4391,0.0675-0.4485,0.0808-0.4657,0.1066l-0.0635,0.0654
		l-0.0629,0.0445l-0.0811,0.0371c-2.7794,0.7223-9.6715,2.3667-17.4351,3.8528c-4.9558,0.9491-10.269,1.8346-15.0979,2.3766
		c-3.8622,0.4334-7.4223,0.6469-10.2552,0.4983c-2.4766-0.1298-4.4102-0.5411-5.5256-1.3269
		c-7.1229-0.669-12.9382,0.9383-18.6769,2.5245h-0.0003v0.0006l-0.002,0.0005h-0.0011l-0.0026,0.0009l-0.0023,0.0006v-0.0003
		c-4.3772,1.2098-8.714,2.4086-13.574,2.5954l-0.1117,0.0043L0,211.7655v-0.2585V211.3949L0,211.3949z M262.455,27.3278
		c-2.1107-0.6446-4.2044-1.2841-6.2042-1.9607c-2.0132-0.6814-3.9552-1.4074-5.7691-2.2266c-0.8124-0.269-1.4941-0.4938-2.137-0.705
		l-2.0755-0.6804l-2.2552-0.739c-0.6163-0.2027-1.3065-0.4309-2.1728-0.7194c-2.2689-0.2959-4.6981-0.7251-7.2011-1.249
		c-2.7456-0.5743-5.58-1.2628-8.392-2.0152c-3.1252-0.8365-6.2436-1.7589-9.1973-2.6985c-3.2372-1.0298-6.2654-2.0775-8.881-3.0529
		l-0.0255-0.0108l-0.0224-0.0114l-0.0255-0.0147c-0.1927-0.1284-0.4113-0.2758-0.6384-0.4297h-0.0012l-0.5553-0.3778
		c-0.6503-0.4433-1.1273-0.7687-1.5021-0.9791c-0.3458-0.1939-0.5984-0.2877-0.8237-0.2877c-0.394,0-0.8331,0.3008-1.6537,0.8629
		l-0.002,0.0017l-0.0009,0.0006v-0.0003l-0.0028,0.002l-0.0028,0.002c-0.468,0.3203-1.0536,0.7214-1.8485,1.2115l-0.0292,0.0156
		l-0.0272,0.0122l-0.034,0.0128c-3.1104,0.8824-6.241,1.6985-9.3654,2.4769c-3.1533,0.7852-6.2524,1.5222-9.3223,2.2516
		c-2.2575,0.5363-4.4989,1.0692-6.5778,1.5758c-2.16,0.5261-4.2973,1.0602-6.4004,1.6118
		c-0.4595,0.2398-2.4242,1.0908-4.9133,2.1254c-2.1297,0.8855-4.655,1.9108-6.9605,2.8077
		c-1.7192,0.6687-3.3137,1.2665-4.5244,1.6807c-1.0142,0.3469-1.7719,0.5686-2.1302,0.6001
		c-2.3882,1.108-4.8365,2.1645-7.3188,3.1507c-2.4199,0.9615-4.8603,1.8522-7.2955,2.6535
		c-2.3511,0.7736-4.716,1.4709-7.0736,2.0764c-2.2524,0.5782-4.4853,1.0703-6.6796,1.461l-0.0068,0.0045l-0.004,0.0031
		l-0.053,0.0374l-0.0057,0.0037c-0.8155,0.5397-3.6272,0.7361-7.4786,0.65c-4.0187-0.0904-9.1908-0.4791-14.4093-1.0975
		c-5.493-0.6511-11.0546-1.5579-15.4004-2.6408c-3.7409-0.932-6.5939-2.0018-7.755-3.1628
		c-0.0595-0.0595-0.1165-0.1216-0.1701-0.1854l0.0003-0.0003c-0.0323-0.0385-0.0615-0.0754-0.0899-0.1125
		c-5.1749-1.2847-10.0142-3.901-14.6506-6.4077l-0.0009-0.0011l-0.002-0.0011l-0.0003,0.0005c-1.5245-0.8246-3.0282-1.6376-4.5-2.38
		c-1.4715-0.7421-2.9253-1.4218-4.3639-1.9868c-3.5802-1.0049-6.7896-2.414-9.9065-3.7823l-0.0031-0.0012l-0.0057-0.0025
		l-0.0031-0.0017c-5.1375-2.2552-10.0264-4.4011-15.8865-4.4011h-0.1721l-0.0612-0.1632l-0.0706-0.1891l-0.0604-0.1622
		l0.1307-0.1131c1.3844-1.1962,3.4143-2.2034,5.8657-3.0492c2.7592-0.9521,6.0565-1.7028,9.5692-2.2921
		c4.2732-0.7166,8.8736-1.1979,13.2188-1.5157c6.1926-0.4527,11.8783-0.574,15.3558-0.574V2.2369h0.2605h0.6032l-0.4266,0.4266
		l-0.1842,0.1843c-0.0513,0.0513-0.1037,0.1037-0.1491,0.1947l-0.0006-0.0003l-0.0264,0.0536l-0.0627,0.127l-0.1406,0.0116
		l-0.0604,0.0051c-1.0324,0.0887-2.0871,0.1805-3.1655,0.2749c-1.1605,0.102-2.2192,0.1964-3.0506,0.2727
		c-0.9986,0.0913-2.0075,0.1868-3.0277,0.2863c-0.9034,0.0879-1.8213,0.1814-2.7556,0.2789l0.0286,0.0933
		c4.9938,3.0124,10.1064,5.6223,15.2617,8.2533l0.0051,0.0028l0.0017,0.0009h0.0003c7.162,3.6555,14.4108,7.3556,21.5739,12.2536
		c2.4996-0.7433,5.0553-1.3549,7.6416-1.8998c2.6031-0.5482,5.2611-1.0335,7.9237-1.5188c2.9605-0.5397,5.9287-1.0811,8.9034-1.7291
		c2.5965-0.5655,5.1707-1.2075,7.6958-1.9936c-1.4913-0.0634-3.0248-0.1587-4.5641-0.2866
		c-1.7961-0.1491-3.6179-0.3444-5.4122-0.5876c-1.6954-0.2299-3.3551-0.5023-4.9311-0.8173
		c-1.4925-0.2984-2.9189-0.6372-4.2401-1.0168l-0.0819-0.0411l-0.0621-0.0468l-0.0615-0.0672
		c-0.0873-0.14-0.9493-0.538-2.3193-1.1012c-1.6279-0.669-3.9385-1.5413-6.5174-2.4809c-3.5907-1.3079-7.7085-2.7468-11.2439-3.9552
		c-4.4801-1.5315-8.0093-2.6895-8.3253-2.7377l-0.0448-0.0116l-0.0366-0.0128l-0.04-0.0176
		C76.4198,2.369,72.2149,1.4884,67.9629,1.297c-4.2653-0.1919-8.5932,0.3098-12.8554,0.8039l-0.493,0.0573L54.599,2.159
		l-0.0105,0.0006h-0.0088c-2.8267,0.051-8.2826,0.3612-14.3549,0.9987C35.8761,3.6149,31.214,4.2399,26.9824,5.058
		c-3.3446,0.6466-6.4176,1.4136-8.8464,2.3116c-2.0611,0.7625-3.6499,1.616-4.5323,2.5639l0.0008,0.2736
		c0.0009,0.1227,0.0031,0.2497,0.0071,0.3787c0.0034,0.1185,0.0099,0.2475,0.0196,0.3864c0.0062,0.0924,0.0153,0.1879,0.0258,0.286
		c1.1917,0.8901,2.4077,1.7825,3.6417,2.6796c1.391,1.0111,2.6201,1.8964,3.8616,2.7907l0.0028,0.002
		c8.1232,5.8513,16.7961,12.0985,24.0432,19.336c2.145,0.993,4.7395,2.7437,7.4384,4.5652l0.0037,0.0023
		c1.9508,1.3164,3.958,2.6708,5.8637,3.787c1.9001,1.1135,3.7128,2.0005,5.2923,2.3953l0.055,0.0139l0.1273,0.0323l0.0457,0.123
		l0.0198,0.0533c0.1074,0.2866,0.5516,0.8504,1.1786,1.5242c0.637,0.6843,1.4548,1.4695,2.2992,2.1872
		c0.6979,0.5933,1.4111,1.1384,2.0489,1.5381c0.5445,0.3413,1.0321,0.5765,1.4012,0.6423l0.0009,0.0011l0.0734,0.0134l0.1695,0.0309
		l0.0315,0.1693l0.0133,0.072h0.0003c0.0978,0.5216,0.1964,1.046,0.3113,1.6259h0.0003c0.0536,0.2708,0.1094,0.542,0.1669,0.813
		c0.0556-0.1205,0.1233-0.2316,0.2137-0.322l0.0751-0.0508l0.07-0.0315l0.0867-0.0215c0.6548-0.0408,1.9619-0.2852,3.7114-0.6576
		c1.7742-0.3779,3.9691-0.8805,6.4006-1.4369h0.0009l0.0054-0.0011v-0.0003c8.7231-1.9961,20.4761-4.6856,26.0578-4.6856
		c1.0437,0,1.8887,0.0975,2.4803,0.3135c0.6684,0.2438,1.0343,0.6378,1.0343,1.2087v0.0538v0.1236l-0.1006,0.0754l-0.0431,0.0323
		c-0.3042,0.2279-0.8983,0.3563-1.6526,0.4346c-0.7163,0.0745-1.5979,0.1086-2.5095,0.1431
		c-1.1543,0.0439-2.3615,0.0907-3.3216,0.2194c-0.8918,0.1199-1.5522,0.2982-1.6988,0.5879l0.0003,0.0003l-0.0269,0.0544
		l-0.0626,0.127l-0.1406,0.0116l-0.0603,0.0051c-0.6772,0.0578-3.0895,0.5151-6.2479,1.162
		c-3.3466,0.6854-7.5231,1.5834-11.363,2.4474c-3.132,0.7044-6.0486,1.3858-8.1085,1.9074
		c-1.6886,0.4275-2.749,0.7101-2.7833,0.7512h0.0003l-0.0283,0.0641l-0.0661,0.1494H73.508h-0.07
		c-0.5567,0-1.1103,0.0003-1.5619,0.0074c-0.4345,0.0068-0.8716,0.0207-1.3139,0.0442c0.0085,0.5553,0.0062,1.0876,0.0043,1.6081
		h0.0011v0.0244h-0.0011c-0.0034,1.0476-0.0068,2.0534,0.0777,3.1425c0.0797,1.0298,0.2401,2.1288,0.5545,3.3962
		c0.1259,0.0071,0.248,0.0179,0.3713,0.0318c0.1783,0.0204,0.3733,0.049,0.5777,0.0785l0.1888,0.0272h0.0008l0.0927,0.0136
		l0.214,0.0314v0.2155v0.0932c0,0.0114,0.0025-0.0022,0.0054,0.0119l0.0009,0.0028l0.004,0.0198l0.0003,0.0014
		c0.017,0.0797,0.0391,0.1866,0.0479,0.3087c0.0145,0.2072-0.0085,0.4427-0.1412,0.6497c-0.1038,0.1607-0.2676,0.2974-0.521,0.3761
		c0.1732,1.0778,0.4941,1.7337,0.9357,2.0962c0.4575,0.3756,1.0724,0.4456,1.8017,0.356c0.3787-0.0468,0.7832-0.1338,1.2078-0.2426
		c0.4218-0.1086,0.8881-0.2463,1.3731-0.3892v0.0002l0.0045-0.0014l0.0028-0.0011c1.3581-0.4003,2.8692-0.8453,4.4581-0.9474
		c0.4209-0.2225,1.7685-0.5624,3.7018-0.9666c2.3414-0.4898,5.5457-1.0834,8.9955-1.6852l0.0031-0.0003
		c4.5414-0.7923,9.5227-1.6049,13.5269-2.2201c3.9107-0.6007,6.9018-1.0134,7.6595-1.0364c2.2068-0.72,4.6808-1.1514,7.3103-1.4389
		c2.628-0.2874,5.4179-0.432,8.2522-0.578c3.6621-0.1891,7.4021-0.3824,10.9667-0.8972c3.5498-0.5125,6.927-1.3447,9.8802-2.8111
		l0.0459-0.0176l0.0408-0.011l0.0488-0.0076c0.7872-0.0505,2.9631-0.2342,5.4677-0.4692c1.8995-0.178,4.0076-0.3881,5.866-0.5944
		c1.3824-0.1531,2.6079-0.3022,3.4705-0.4289c0.7058-0.104,1.1389-0.1774,1.1653-0.2038h0.0009l0.0471-0.0468l0.1086-0.1077
		l0.1451,0.0482l0.0629,0.0209c0.0587,0.0196,0.2381,0.0797,0.4482,0.1738c0.2188,0.0981,0.4774,0.2355,0.6911,0.4084v0.0009
		c0.057,0.0462,0.1097,0.0927,0.155,0.1381l0.036,0.0368V56.091v-0.1021v-0.2355l0.2364-0.0133l0.1021-0.0057
		c6.9058-0.3816,14.0525-1.0071,21.314-1.8445c7.4755-0.862,15.0676-1.9486,22.6397-3.2247
		c7.7321-1.3029,15.4534-2.8066,23.0176-4.4722c7.628-1.6801,15.0829-3.5226,22.2162-5.489
		c1.2472-0.4813,2.5529-1.0003,3.8919-1.5568c1.3425-0.5579,2.7048-1.1483,4.0547-1.7674c1.3416-0.6154,2.6856-1.2663,4.0048-1.9514
		c1.2654-0.6568,2.4999-1.3416,3.6788-2.052c-0.0131-0.0995-0.0207-0.1968-0.0261-0.2903
		c-0.0048-0.0845-0.0076-0.1689-0.0088-0.2543c-1.7249-0.9351-3.6592-1.8572-5.7265-2.7575
		c-2.1164-0.9218-4.3724-1.8221-6.6841-2.692l-0.1758-0.0542V27.3278L262.455,27.3278z M170.2485,57.3119
		c0.004,0.2332-0.0808,0.4816-0.2911,0.7418l-0.0003-0.0003c-0.0453,0.0562-0.0947,0.1108-0.1463,0.1624l-0.0811,0.0538
		l-0.0751,0.0315l-0.0927,0.0185c-1.2141,0.0176-2.4117,0.0493-3.5926,0.0989c-1.1651,0.0485-2.3202,0.1162-3.4662,0.2069
		c-1.1268,0.0887-2.2235,0.199-3.2888,0.3334c-0.993,0.1256-1.9712,0.2741-2.9353,0.4471c0.1009,0.5711,0.3025,0.9992,0.5505,1.3448
		c0.2849,0.3971,0.6409,0.699,0.976,0.9831c0.3036,0.2571,0.5927,0.5025,0.8271,0.8024c0.2126,0.2719,0.3742,0.5809,0.4473,0.9649
		c0.6324,0.1548,1.2747,0.4269,1.9361,0.7699c0.7107,0.368,1.4428,0.8164,2.2074,1.2847l0.0005,0.0006
		c1.8527,1.1341,3.9098,2.3941,6.2586,2.8559l0.0284,0.0077l0.0201,0.0065l0.0184,0.0069c3.0461,1.2563,6.2816,2.8111,9.6401,4.4251
		l0.002,0.0009l0.0134,0.0065l0.002,0.0011l0.0017,0.0009c9.2957,4.4668,19.5539,9.3969,29.4242,9.7217
		c4.0756-0.5003,4.0918-0.5037,11.4676-1.9358l0.0028-0.0006l0.0165-0.0029l0.0122-0.0016l0.0159-0.002
		c1.9817-0.1477,10.8751-0.8912,20.8168-1.9287c5.7368-0.5987,11.8244-1.296,17.1394-2.0333
		c4.0873-0.5669,7.7188-1.1574,10.3784-1.7425c1.9809-0.4357,3.4013-0.8595,4.0371-1.2578
		c-0.9989-0.6766-2.5387-1.372-4.2083-2.0239c-1.8479-0.7214-3.8383-1.3858-5.4425-1.9207l-0.0209-0.0071
		c-1.6248-0.542-2.8673-0.9558-3.242-1.2195c-1.5911-0.4147-6.2632-2.2431-11.924-4.5471
		c-5.6996-2.3199-12.4338-5.1361-18.0207-7.4721v-0.0003l-0.0247-0.0102h-0.0009c-6.3189-2.6422-11.0591-4.7029-11.1019-4.6817
		l-0.0422,0.0168l-0.0403,0.0116l-0.0507,0.0096c-6.7346,0.5154-13.5715,1.5463-20.3933,2.5742h-0.0012l-0.0153,0.0023
		l-0.0102,0.0014v0.0002c-9.3368,1.4071-18.6503,2.8109-27.6996,2.8939L170.2485,57.3119L170.2485,57.3119z M216.0309,185.8539
		c0.2276-0.0394,0.481-0.0822,0.7656-0.1278c0.288-0.0462,0.5451-0.0871,0.7713-0.121c0.7418-0.1832,1.366-0.3512,1.8451-0.5004
		l0.0751-0.0238c-2.9463-0.3308-6.6591,0.0663-10.6288,0.8076c-4.4065,0.8229-9.1429,2.0744-13.5043,3.2267v0.0003l-0.0105,0.0028
		h-0.0009c-3.0234,0.7986-5.8674,1.5497-8.3157,2.0812c2.0262-0.2827,4.9377-0.7402,8.2114-1.2892
		c4.2662-0.7158,9.1426-1.586,13.4702-2.425v-0.0003l1.3938-0.2729v-0.0003l1.3261-0.2653
		c0.5947-0.2041,1.2702-0.3929,2.0004-0.5664C214.2357,186.1887,215.1156,186.013,216.0309,185.8539L216.0309,185.8539z
		 M13.0632,189.4299c0.5505,0.0062,1.1109,0.0127,1.6673,0.0241c0.5672,0.0116,1.1356,0.0289,1.6951,0.0561l0.4757,0.0031h0.0011
		l0.1264,0.0011c1.0293,0.0094,2.3562,0.0213,3.6128-0.1536c1.1735-0.1633,2.2859-0.4901,3.0195-1.135
		c-0.0805-0.4328-0.1746-0.8663-0.2832-1.2952c-0.1171-0.4617-0.2514-0.9068-0.4053-1.3223
		c-0.1556-0.4198-0.3314-0.8087-0.529-1.1514l-0.0005,0.0003c-0.1964-0.3401-0.4175-0.6409-0.6659-0.8892l-0.0318-0.0318
		l-0.0734-0.0734v-0.1032v-0.0445c0-0.5667-0.4745-1.7238-1.2132-3.1833c-0.7532-1.4885-1.7768-3.2758-2.8553-5.0746l-0.2299-0.383
		l-0.0006,0.0003c-1.5531-2.5753-3.1638-5.0939-4.2517-6.7955l-0.0003,0.0003l-0.047-0.0734v-0.0009l-0.6608-1.0346
		c-0.1429-0.2248-0.267-0.4244-0.3713-0.5933h-0.0777c-1.6047,3.5206-3.4849,6.7617-5.3802,10.0293l-0.0006,0.0011
		c-0.6267,1.0805-1.2563,2.1656-1.8593,3.2312c-0.6032,1.0664-1.2007,2.1484-1.783,3.2559
		c-0.2047,2.5248,0.3487,4.0887,1.4221,5.0553c1.0896,0.981,2.7337,1.3734,4.6721,1.54c0.633,0.0544,1.2832,0.0859,1.9477,0.1046
		C11.6626,189.414,12.3571,189.4222,13.0632,189.4299L13.0632,189.4299z M17.8636,174.1074l0.2424,0.4025v0.0012l0.2401,0.4011
		l0.0003-0.0002c1.3286,2.1798,2.6164,4.0158,3.7888,5.3036c1.0327,1.1339,1.9624,1.8335,2.7318,1.95
		c8.8747-0.1774,17.8478-0.7441,26.8668-1.5034c9.0391-0.7611,18.0947-1.7147,27.1446-2.6674
		c1.9635-0.2064,3.928-0.4138,5.8938-0.6186c1.94-0.2021,3.9013-0.4051,5.9012-0.6074l3.4124-0.5437l3.4143-0.5431v-0.0003
		l0.0028-0.0005l0.0096-0.0012c20.2635-3.2205,40.6846-6.4667,61.0917-10.9839c0.127-0.0992,0.1386-0.1446,0.2387-0.5457
		l0.0005-0.0017l0.0173-0.0689l0.04-0.1593l0.1621-0.0263l0.0683-0.011v-0.0003c0.9332-0.1553,1.8896-0.2579,2.8672-0.3336
		c0.9587-0.0746,1.963-0.125,2.9889-0.1761c1.114-0.0552,2.2558-0.1125,3.4455-0.2089c1.1715-0.0947,2.3689-0.2273,3.5864-0.4334
		l0.0411-0.0039h0.0352l0.04,0.0039c7.1478,1.1832,17.0096-0.0221,26.3134-1.159v0.0002l0.0028-0.0006l0.0436-0.0053
		c4.7313-0.5777,9.3198-1.1387,13.3617-1.3584c12.9072-1.5202,25.9313-3.613,39.0121-5.7152l0.0748-0.0122l0.0346-0.0057h0.0009
		c17.2775-2.7763,34.6584-5.5704,51.9511-7.0829c5.269-1.023,10.6415-1.9207,16.0795-2.7564
		c5.4142-0.8322,10.9474-1.6112,16.5095-2.3942c10.4539-1.4714,21.0155-2.9588,31.4025-4.8923
		c10.389-1.9338,20.6149-4.3169,30.4044-7.5799l0.0049-0.002l0.0111-0.0034l0.0215-0.0059
		c1.9551-0.4218,4.1718-1.0942,6.5449-1.9015c2.3916-0.8133,4.9241-1.7572,7.5102-2.7204
		c4.0172-1.4965,8.1674-3.0428,12.0648-4.2109c3.9206-1.1752,7.6031-1.9755,10.6744-1.9755h0.066h0.1528l0.0697,0.1378
		l0.0301,0.0596c0.0116,0.0232,0.0292,0.0499,0.0496,0.0785l0.0009,0.0009l0.0261,0.0348c0.9967-1.0556,1.9185-2.3371,2.7922-3.7199
		c0.934-1.4788,1.8187-3.0816,2.6823-4.6479l0.0009-0.0014c0.9672-1.7538,1.9117-3.4656,2.8859-4.9306
		c1.7393-4.3401,5.0438-8.3152,8.3662-12.3114l0.0148-0.0176l0.0005-0.0006c1.7221-2.071,3.4498-4.1497,4.9545-6.2751
		c1.4169-2.0015,2.6427-4.0527,3.4914-6.1922c-2.8304,0.447-15.0613,2.3737-24.0188,3.6981
		c-5.0652,0.7486-9.129,1.3116-9.9663,1.3218c-5.3116,0.5525-10.6206,1.3351-15.8423,2.105h-0.0009l-0.0196,0.0028l-0.0867,0.0128
		c-3.5192,0.5187-7.0022,1.0323-10.4987,1.4729c-0.5164,0.1933-2.6155,0.6241-5.6783,1.1923
		c-3.6185,0.6712-8.5581,1.5327-13.8053,2.4199c-6.6155,1.1186-13.7708,2.2918-19.4099,3.185
		c-5.1554,0.8167-9.0255,1.3969-10.0302,1.4828c-0.9408,0.5366-2.1512,0.8557-3.4866,1.0647
		c-1.347,0.2104-2.8125,0.309-4.2545,0.4056c-1.3513,0.0905-2.6838,0.18-3.8605,0.358c-1.1543,0.1749-2.1547,0.434-2.8647,0.8635
		l-0.0423,0.0196l-0.0374,0.0139l-0.0447,0.0127c-0.9045,0.1562-2.071,0.3127-3.4101,0.4729
		c-1.3068,0.1562-2.8349,0.3228-4.4498,0.4989c-3.5858,0.3906-7.6104,0.83-11.0549,1.366c-3.431,0.5341-6.2986,1.1642-7.6036,1.9374
		l-0.042,0.0193l-0.0374,0.0136l-0.045,0.0119c-5.2271,0.8589-10.5219,1.5506-15.8482,2.1572
		c-5.3025,0.6043-10.675,1.1288-16.045,1.6526c-7.8956,0.7705-15.7884,1.5412-23.5531,2.5778
		c-7.7221,1.0312-15.3272,2.327-22.699,4.1505c-0.0468,0.0958-0.0924,0.1925-0.1315,0.2885h-0.0003
		c-0.0513,0.127-0.0956,0.2622-0.1253,0.4108h-0.0003l-0.0249,0.1261l-0.0584,0.2945l-0.2784-0.11l-0.1205-0.0476
		c-0.7872-0.3115-2.6881-0.4754-5.1687-0.5204c-2.7882-0.0505-6.3003,0.0518-9.7931,0.2636
		c-3.4535,0.2095-6.8825,0.5264-9.567,0.9085c-2.3737,0.3382-4.1519,0.7228-4.8221,1.1216l-0.045,0.0216l-0.042,0.0147
		l-0.0527,0.0127c-1.8745,0.2242-3.742,0.4711-5.6026,0.7336c-1.885,0.2659-3.7599,0.5471-5.6265,0.8371v0.0002
		c-2.4644,0.5363-4.9708,0.9987-7.507,1.4029c-2.5396,0.4051-5.0933,0.7506-7.6558,1.0533v-0.0003
		c-4.1213,0.6611-8.2239,1.2867-12.2794,1.8045c-4.0544,0.5176-8.0524,0.9266-11.9568,1.1534
		c-1.3096,0.1749-3.3247,0.3577-5.728,0.5757l-0.0009,0.0009l-0.023,0.002v-0.0009c-4.2094,0.3812-9.6168,0.8717-14.5536,1.6228
		c-4.9054,0.7461-9.3251,1.7473-11.5756,3.1468l-0.0643,0.0283l-0.057,0.0162l-0.0675,0.0088
		c-8.5842,0-17.1181,1.1358-25.5007,2.2513l-0.0065,0.0009l-0.0042,0.0005c-6.8346,0.9094-13.5712,1.806-20.1691,2.0662
		c-14.883,2.1929-29.696,3.631-44.3965,5.0585v0.0003l-0.0025,0.0003h-0.0037c-3.9489,0.3833-7.8911,0.7662-11.8587,1.1662
		c-3.8466,0.3878-7.7003,0.7906-11.571,1.2228c0.2404,1.9168,1.5624,5.9964,3.4662,10.844
		c1.8845,4.7982,4.335,10.3371,6.8683,15.2713c0.4944,0.9627,0.9981,1.9137,1.508,2.8429
		C16.8928,172.4333,17.3798,173.2899,17.8636,174.1074L17.8636,174.1074z M174.3191,121.7524
		c0.9544-0.1528,1.9616-0.3164,2.9863-0.4833l3.0013-0.4919v-0.0002l0.0204-0.0034h0.0011
		c3.0058-0.4935,6.0171-0.9884,9.0737-1.4641v-0.0003c1.1965-0.2599,2.3825-0.5374,3.5555-0.8334
		c1.1832-0.2985,2.351-0.6154,3.5013-0.9516l0.0105-0.0028l0.0139-0.0034l0.0216-0.0048c3.047-0.4666,6.1103-0.8513,9.1862-1.1954
		c3.0492-0.3407,6.1433-0.6451,9.2472-0.9499c4.5357-0.445,9.0967-0.8935,13.6641-1.4738
		c4.5728-0.5808,9.1769-1.2971,13.8177-2.2808l0.0193-0.0028l0.0128-0.0017l0.0099-0.0011
		c3.7613-0.3419,14.5355-1.789,26.2179-3.3579l0.0105-0.0014c8.7568-1.1758,18.0216-2.42,25.1544-3.3075
		c7.0529-0.8773,12.197-1.4253,13.1046-1.2617c15.8607-2.3332,31.8056-5.0959,47.8004-7.8667l0.0768-0.0133l0.0082-0.0014
		c25.9186-4.4904,51.9744-9.0051,78.0437-11.7638l0.0052-0.0008l1.6046-0.2287h0.0009l1.6543-0.2328
		c4.0912-0.5749,8.3909-1.1792,12.6686-1.9701c4.2777-0.7908,8.5482-1.7708,12.5954-3.0985l0.0284-0.0068l0.0223-0.0045
		l0.0233-0.0039c4.9501-0.5173,9.845-1.6679,14.7711-2.8259l0.0102-0.0026l0.0037-0.0008
		c5.9816-1.4055,12.014-2.8233,18.3016-3.1453c3.4784-1.1537,5.118-1.9806,5.7739-2.7913v-0.0009
		c0.6021-0.7441,0.3209-1.5406-0.0652-2.634c-0.1797-0.5096-0.3807-1.0777-0.54-1.7436c-0.159-0.6659-0.2724-1.415-0.2724-2.2686
		v-0.0448V62.927l0.0734-0.0734l0.0314-0.0314c0.0445-0.0445,0.0895-0.0896,0.1545-0.1338h0.001
		c0.0321-0.0218,0.0658-0.0405,0.1035-0.0573c0.0876-0.286,0.1369-0.4529,0.1536-0.5581V62.072l0.0003-0.0048
		c-0.732,0.015-1.36,0.0916-1.9403,0.2018c-0.6356,0.1208-1.218,0.2837-1.8173,0.451l-0.0059,0.002l-0.0012,0.0003V62.722
		c-0.3149,0.0882-0.6372,0.1786-0.9771,0.2654c0.0074,0.0907,0.0142,0.1873,0.0178,0.2914
		c0.0068,0.1931,0.0052,0.3997-0.0116,0.6072c-0.0195,0.2427-0.0601,0.4947-0.1306,0.7416
		c-0.0717,0.2517-0.1755,0.4992-0.3204,0.7271h-0.0011l-0.0346,0.0541l-0.0799,0.125l-0.1466-0.0099l-0.0629-0.0043
		c-1.9247-0.1259-3.7722-0.1982-5.5659-0.2135c-1.7952-0.0156-3.5479,0.0247-5.2809,0.1234
		c-1.7286,0.0983-3.4325,0.2551-5.1344,0.4711c-1.6852,0.2143-3.3809,0.4896-5.1089,0.8266
		c-1.7056,0.9998-3.8276,1.6727-6.1421,2.1795c-2.3098,0.5057-4.8237,0.847-7.3043,1.1838l-1.1772,0.1607v0.0003
		c-0.375,0.0515-0.7608,0.1063-1.1616,0.1638c-1.1067,0.2498-2.2202,0.4822-3.3321,0.7024
		c-1.0905,0.216-2.2328,0.4315-3.3878,0.6441c-0.5593,0.1707-1.0953,0.36-1.6007,0.5711c-0.5034,0.2107-0.9717,0.442-1.3975,0.6962
		l-0.0488,0.0224l-0.0439,0.0147l-0.0527,0.0119c-1.1222,0.1222-3.4653,0.5264-6.266,1.0658
		c-2.7847,0.5367-6.0123,1.2056-8.937,1.8644c-2.3707,0.5338-4.5491,1.0618-6.1368,1.5069
		c-1.3484,0.3779-2.2436,0.6832-2.421,0.8606l-0.0476,0.0371l-0.0442,0.0266l-0.0547,0.0244
		c-3.795,1.1883-7.5444,1.9959-11.2646,2.6118c-3.7213,0.6163-7.4013,1.04-11.0696,1.4618
		c-3.2533,0.3742-6.499,0.7478-9.7194,1.2476c-3.2338,0.5017-6.4707,1.1335-9.7189,2.0256l-0.0079,0.002l-0.013,0.0031
		l-0.0224,0.0049c-10.3329,1.476-20.7216,3.7054-31.1071,5.9341h-0.0017l-0.0179,0.0037l-0.0011,0.0009l-0.0043,0.0008v-0.0003
		c-14.9187,3.2017-29.836,6.4031-44.6164,7.382c-3.7511,0.7262-7.5481,1.279-11.3542,1.7425
		c-3.7885,0.4612-7.6235,0.8384-11.4336,1.2132c-4.485,0.4408-8.9382,0.879-13.2851,1.4536
		c-4.3489,0.5746-8.6046,1.2875-12.7052,2.2785l-0.0187,0.004l-0.0156,0.0025l-0.0176,0.002
		c-11.5883,1.0502-23.1866,2.7437-34.7227,4.4283l-0.004,0.0005l-0.006,0.0009c-12.9297,1.8876-25.7834,3.7644-38.497,4.7158
		l-0.0142,0.0011c-10.9304,1.1214-21.6692,2.5124-32.3351,3.894l-0.0088,0.0011l-0.0031,0.0003l-0.0465,0.006
		c-11.2442,1.4564-22.4107,2.9026-33.6025,4.0085c-2.6337,1.54-6.9299,1.4825-11.1897,1.4247v0.0011h-0.0051h-0.004l-0.0028-0.0011
		c-3.8925-0.053-7.7559-0.1057-10.1367,1.0681l-0.0252,0.0105l-0.0235,0.0085l-0.0295,0.0088
		c-5.2359,1.2138-10.9843,1.0015-16.6453,0.7915v0.0009h-0.002l-0.0088-0.0012c-2.5676-0.0952-5.1188-0.1899-7.5844-0.1499
		c-2.459,0.0403-4.843,0.2151-7.0906,0.6576l-0.0235,0.0032l-0.0173,0.0016l-0.0164,0.0009
		c-7.6561,0.2574-15.1557,1.4616-22.5612,2.6501l-0.0031,0.0009l-0.0077,0.0011v-0.0002c-3.5198,0.5649-7.0203,1.1267-10.516,1.5837
		c-3.4883,0.4558-6.965,0.8056-10.4374,0.9471c-1.6736,0.3742-3.2851,0.563-4.8104,0.6571
		c-1.5214,0.0938-2.9679,0.0947-4.3044,0.0952c-0.6372,0-1.2512,0.0009-1.8385,0.0116c-0.5752,0.0105-1.1293,0.0323-1.6628,0.0746
		c-1.8541,0.1482-3.3077,0.5627-4.2202,1.7322c-0.9085,1.1642-1.3125,3.0949-1.0891,6.2719l0.9794,0.1633
		c25.7216-1.4156,51.7283-4.7614,77.7719-8.1116v-0.0002l0.0261-0.0034h0.0011l0.0768-0.0099
		c8.4569-1.0877,16.92-2.1767,25.1663-3.1751l0.0125-0.0009l0.0085-0.0005h0.0071c1.5026-0.0638,3.0396-0.2577,4.5774-0.4516
		l0.0048-0.0011l0.0079-0.0009v0.0003l0.0068-0.0008h0.002c1.8964-0.2387,3.7984-0.4782,5.6628-0.4822
		c11.922-3.1663,24.8499-4.1972,37.8116-5.2296l0.0023-0.0002l0.0108-0.0009c3.0912-0.2461,6.1849-0.493,9.1607-0.7585
		c3.0283-0.2704,6.0585-0.5704,9.0879-0.9287V121.7524L174.3191,121.7524z M15.7731,125.6897
		c-0.9493,0.5695-1.8136,1.1404-2.4577,1.6498c-0.3368,0.2661-0.61,0.5114-0.8008,0.7274c1.1846-0.0346,2.3335,0.0011,3.4103,0.034
		h0.0011l0.0179,0.0006c0.8756,0.0269,1.7042,0.0524,2.4576,0.0371c0.7441-0.0151,1.4193-0.0706,2.0021-0.2038
		c0.9541-0.218,1.6597-0.6596,2.0151-1.514c0.3563-0.8561,0.3844-2.1302-0.007-4.002c-0.6551,0.2137-1.6577,0.6452-2.7856,1.1926
		C18.3915,124.2103,17.0113,124.947,15.7731,125.6897L15.7731,125.6897z M23.9873,122.8015
		c-0.0462,0.7766-0.0972,1.6438-0.0737,2.4474c0.021,0.724,0.1032,1.402,0.3027,1.9239c0.9658,0.0666,2.3188,0.1239,3.7843,0.1295
		c1.1993,0.0045,2.4837-0.0247,3.7063-0.1091c0.9848-0.0681,1.9236-0.1726,2.7343-0.3243c0.6426-0.1202,1.2056-0.2707,1.6455-0.4555
		c0.2038-3.4832,0.4569-7.9333-0.0173-10.8669c-0.7486,0.1511-1.576,0.3907-2.4412,0.6931c-1.048,0.3659-2.1569,0.8277-3.255,1.3393
		c-1.2294,0.5726-2.4335,1.2022-3.5178,1.8281c-1.0752,0.6202-2.0404,1.2405-2.806,1.8026c0.0065,0.4383-0.0261,0.978-0.0607,1.567
		l-0.0014,0.0238V122.8015L23.9873,122.8015z M13.9467,123.7395c-0.9689,0.678-1.8527,1.3637-2.4984,1.9621
		c-0.2996,0.2775-0.5445,0.5318-0.7192,0.7526c0.7657-0.2495,1.7453-0.6497,2.78-1.1537c1.1344-0.5525,2.3298-1.2263,3.3729-1.9562
		c0.8121-0.5686,1.5335-1.1716,2.0608-1.7768h0.0011c0.3178-0.3645,0.5638-0.7282,0.7109-1.0805
		c-0.6015,0.2262-1.3711,0.6015-2.2093,1.0638C16.3188,122.1728,15.0744,122.9503,13.9467,123.7395L13.9467,123.7395z
		 M38.0514,116.6665c-0.0862,1.6115-0.1947,3.6431-0.1927,5.4609c0.0023,1.6901,0.0986,3.2009,0.3937,4.0201
		c0.7325-0.0054,2.5047-0.0334,4.4804-0.1194c1.2832-0.0558,2.6495-0.136,3.8625-0.2494c0.9267-0.0865,1.766-0.1931,2.4086-0.3212
		c0.4431-0.0884,0.7801-0.1842,0.9649-0.2837c-0.0173-2.302-0.3662-4.8124-0.7075-7.2743l-0.0011-0.004l-0.0009-0.0068
		l-0.0005-0.0093c-0.2823-2.0381-0.5598-4.045-0.6446-5.8941c-0.3665-0.053-0.6996-0.0963-1.0241-0.0963h-0.108h-0.25v-0.2501
		v-0.108c0-0.4816,0.1004-0.8252,0.2427-1.0905c0.1372-0.2557,0.3073-0.4281,0.4654-0.5843
		c-0.2786,0.0737-0.5984,0.1761-0.9471,0.3002c-0.7203,0.2565-1.5576,0.6043-2.4256,0.9918c-1.171,0.523-2.4078,1.124-3.5016,1.6795
		c-1.2861,0.6537-2.3675,1.2413-2.912,1.567c-0.0088,0.5352-0.0508,1.3048-0.0989,2.2079L38.0514,116.6665L38.0514,116.6665z
		 M51.2419,120.4295l0.0357,0.2186c0.2254,1.3847,0.4757,2.9191,0.7209,4.5374c1.4757-0.1256,2.2606-0.1953,3.0135-0.303
		c0.7758-0.1111,1.5287-0.2636,2.9602-0.5562c0.3719-1.0942,1.2056-3.0379,2.1433-5.2242h0.0003l0.0011-0.0026l0.0011-0.0037
		c0.8977-2.0922,1.8916-4.4087,2.6606-6.398c0.6863-1.7751,1.1942-3.2845,1.29-4.1227l-1.8825-0.0029
		c-3.4517-0.0079-6.0012-0.0139-7.8418,0.1956c-1.7751,0.2021-2.8624,0.6015-3.4455,1.3955
		c-1.0876,1.4814-0.5967,4.4977,0.3413,10.256h0.0003l0.0003,0.0014L51.2419,120.4295L51.2419,120.4295z M60.9103,123.6511
		c-0.0385,0.1233-0.0547,0.2276-0.036,0.2945c0.0045,0.0173,0.0159,0.0317,0.0337,0.0433c1.7008-0.0345,3.401-0.0524,5.099-0.0615
		c1.8661-0.0096,3.4424-0.0105,4.9997-0.0105c0.1707-0.2809,0.3447-0.5718,0.508-0.8589c0.1894-0.3325,0.3711-0.6712,0.5295-1.0052
		c0.1483-0.313,0.2761-0.6205,0.3685-0.9108c0.0573-0.1805,0.1029-0.3563,0.131-0.5227c-0.3509,0.0171-0.7115,0.0318-1.076,0.0431
		c-0.4501,0.0142-0.9181,0.0255-1.3861,0.0363l-0.0048,0.0011h-0.0006v-0.0011c-1.4199,0.0331-2.846,0.0669-4.2097,0.2038
		c-1.3218,0.1327-2.5827,0.3632-3.7168,0.7861c-0.0269,0.0371-0.0584,0.0774-0.093,0.1222l-0.0127,0.0165l-0.0003-0.0003
		l-0.0014,0.0026C61.7451,122.2133,61.0977,123.0513,60.9103,123.6511L60.9103,123.6511z M77.0964,121.3834
		c-0.2546,0.4501-0.5321,0.9411-0.752,1.442c-0.1718,0.3912-0.3059,0.7846-0.3611,1.1625
		c3.2153-0.0317,6.6875-0.4578,10.2039-0.8895h0.0028v-0.0002l0.0091-0.0012c3.2358-0.3971,6.5109-0.7988,9.7013-0.9045
		c3.4135-1.3255,7.7828-0.8824,12.1479-0.4394l0.0065,0.0006c3.7987,0.3855,7.5951,0.7707,10.6719-0.0383
		c2.9585-0.7778,5.2721-2.679,6.3125-6.7944c-9.8651,0.2197-20.1943,1.7195-30.308,3.1879v-0.0003l-0.0025,0.0003l-0.0028,0.0009
		c-2.9112,0.4226-5.8056,0.843-8.7077,1.2345c-2.8315,0.3821-5.6288,0.7302-8.3747,1.0157
		c-0.0618,0.1338-0.1332,0.2747-0.2109,0.4195C77.3382,120.9561,77.2189,121.1665,77.0964,121.3834L77.0964,121.3834z
		 M265.5114,121.1036c-0.8745-0.0581-1.7039-0.1661-2.4432-0.3257c-0.7073-0.1528-1.3391-0.3552-1.8561-0.6084
		c-0.3014-0.1474-0.5661-0.3141-0.7875-0.5003c-0.2194-0.1845-0.396-0.3898-0.5227-0.614c-0.1375-0.2441-0.2154-0.508-0.2256-0.7915
		c-0.0093-0.2678,0.0423-0.5516,0.1613-0.849c0.1134-0.2835,0.2906-0.5833,0.5369-0.8977c0.2313-0.2951,0.5267-0.6061,0.8901-0.9318
		l0.03-0.0235l0.0269-0.0176l0.0323-0.0176c1.1498-0.5241,3.5533-1.2974,6.4415-1.98c2.2708-0.5369,4.8478-1.0202,7.3576-1.2855
		c1.3691-0.1446,2.7224-0.2248,3.9988-0.2135c1.1645,0.0102,2.264,0.0972,3.2508,0.2804c1.1027,0.2044,2.0716,0.5303,2.8445,1.0041
		c0.7328,0.449,1.2923,1.0309,1.6277,1.7668h0.0008c0.0844,0.1857,0.1554,0.3821,0.2101,0.588
		c0.0533,0.1993,0.0924,0.4102,0.1157,0.6307l0.0054,0.0507l0.0125,0.1174l-0.0839,0.0847l-0.0363,0.0366v0.0008
		c-0.8876,0.8875-2.4327,1.5988-4.3155,2.1679c-1.857,0.5616-4.0538,0.9901-6.2717,1.317c-2.2048,0.3251-4.4311,0.5511-6.3624,0.709
		c-1.9167,0.1567-3.5631,0.2478-4.5972,0.3019l-0.0127,0.0011h-0.0125L265.5114,121.1036L265.5114,121.1036z M124.7814,119.2562
		c-0.1392,0.2104-0.218,0.3374-0.2622,0.4666c-0.0312,0.0919-0.0499,0.1982-0.0666,0.3513l0.021-0.0034
		c0.0799-0.0139,0.1621-0.0252,0.246-0.0326c0.057-0.0916,0.0913-0.1627,0.1134-0.2579h0.0003
		c0.0264-0.1142,0.0431-0.2756,0.0627-0.5383c-0.0343,0.0031-0.0674,0.0076-0.0964,0.0121L124.7814,119.2562L124.7814,119.2562z
		 M129.1774,116.4293l-0.0014,0.0017c-0.9204,1.0431-1.9012,2.156-2.0733,3.3678c9.5794-0.3753,19.6909-1.8082,29.8128-3.2423
		l0.0051-0.0011l0.0071-0.0009v0.0003c6.4301-0.9111,12.867-1.8232,19.1914-2.4673c0.0289-0.8824,0.1786-1.4703,0.4025-1.9151
		c0.2452-0.4867,0.5664-0.7878,0.9142-1.1118l0.0003-0.0003l0.0068-0.006c0.2047-0.1907,0.4227-0.394,0.6316-0.6531
		c-0.0266-0.0641-0.0508-0.125-0.0714-0.1837c-0.0128-0.036-0.0244-0.0743-0.0366-0.112h-0.0023l-0.0346-0.1094
		c-0.6659-0.0411-1.3314,0.0462-7.7445,0.8799l-0.004,0.0011l-0.0048,0.0005l-0.0088,0.0009l-0.0105,0.0009h-0.0116
		c-12.3177,0.3907-24.4706,2.0248-36.2838,3.613h-0.002l-0.0133,0.0017v0.0002l-3.4653,0.4649
		c-0.1585,0.2296-0.3373,0.4586-0.5273,0.688C129.6487,115.8952,129.4143,116.1608,129.1774,116.4293L129.1774,116.4293z
		 M268.412,118.7309v0.3419c1.0091-0.0544,2.2762-0.1327,3.6666-0.2571c1.5149-0.1355,3.1876-0.3263,4.8552-0.599
		c1.6733-0.2735,3.3401-0.6307,4.8311-1.0975c1.4099-0.4417,2.66-0.9819,3.6057-1.6413c-0.1097-0.2319-0.4595-0.4467-0.9933-0.6398
		c-0.7594-0.2747-1.8561-0.4776-3.1569-0.6043c-0.8079-0.0788-1.6906-0.1273-2.6164-0.1437
		c-0.9297-0.0167-1.9083-0.002-2.9041,0.0445c-1.0058,0.0467-2.033,0.1272-3.0487,0.2415
		c-0.9765,0.1095-1.9372,0.2503-2.8505,0.4216c-2.1334,0.4-4.0306,0.9666-5.3212,1.7019c-1.0034,0.5721-1.6294,1.239-1.6849,1.997
		c0.4567,0.1738,1.0262,0.2285,1.6611,0.2186c0.72-0.0113,1.5426-0.1086,2.389-0.2086l0.0034-0.0003l0.1091-0.0127
		c0.3331-0.0388,0.6698-0.0785,1.0619-0.1177l0.1184-0.0119l0.2744-0.0278v0.2758V118.7309L268.412,118.7309z M67.0453,106.8376
		c-0.7302,1.55-2.0857,4.4274-3.1697,7.0075c-0.9822,2.3386-1.7498,4.3793-1.6013,4.7429c1.0258-0.0002,1.9996-0.0045,2.9024-0.0173
		c0.9873-0.0142,1.9752-0.0391,2.9823-0.0794c0.9918-0.0394,2.0083-0.0955,3.0682-0.1726c1.0128-0.0737,2.0577-0.1675,3.1479-0.2846
		c1.1064-1.8663,2.2757-3.6451,3.4861-5.391c1.2348-1.7813,2.5027-3.5152,3.7885-5.2736l0.409-0.5596
		c1.3207-2.6918,1.8763-7.5489,2.4568-12.6278v-0.002l0.0003-0.0023h0.0003c0.5023-4.3968,1.0239-8.9589,2.0877-12.4971
		c1.0845-3.6085,2.7383-6.1602,5.5089-6.4319v-0.0002l0.004-0.0005l0.0204-0.002c4.4759-0.2777,10.0446-1.1132,15.9177-1.9933
		v-0.0003l0.0207-0.0031h0.0011c5.3909-0.8084,11.0404-1.6557,16.3724-2.1506c5.3348-0.4955,10.3377-0.6353,14.4167-0.0258
		l0.0655,0.0196l0.0533,0.0238l0.0575,0.0352c1.8085,1.497,3.7928,3.05,5.8924,4.6018c2.0044,1.4814,4.1213,2.9673,6.2989,4.4081
		c2.0461,1.3541,4.1423,2.6666,6.2444,3.8963c1.9684,1.1511,3.9444,2.232,5.8921,3.2085c1.8173-0.0884,6.8958-0.5389,12.6751-1.1787
		c4.2642-0.4719,8.909-1.0482,12.9013-1.6585c2.8811-0.4406,5.4142-0.8929,7.1977-1.3266c0.9964-0.2424,1.7487-0.4677,2.1796-0.6696
		c-3.6247-0.4836-7.4705-2.3587-11.0821-4.1193l0.0003-0.0009l-0.0042-0.002l-0.0003,0.0009
		c-3.3797-1.6475-6.5545-3.1952-9.0615-3.3602l-0.0737-0.0049l-0.1709-0.011l-0.0516-0.1627l-0.0224-0.0709v-0.0008
		c-0.2903-0.9289-3.9243-2.7692-8.0558-4.6015c-4.1856-1.8564-8.8671-3.6839-11.175-4.5847l-0.6758-0.2642l-0.4751-0.1874
		l-0.002-0.0011l-0.051-0.0204l-0.1182-0.047l-0.0312-0.1227l-0.0136-0.0536v-0.002c-0.0354-0.1426-0.0561-0.2707-0.0672-0.39
		c-0.0043-0.0434-0.0062-0.0856-0.0085-0.1273c-0.396-0.1024-0.7438-0.2503-1.0463-0.43c-0.3889-0.2313-0.7064-0.5193-0.9609-0.8374
		c-0.288-0.36-0.4941-0.7583-0.633-1.1594c-0.1346-0.3889-0.2069-0.7815-0.2333-1.1458c-1.3581-0.1726-2.5943-0.263-3.765-0.2684
		c-1.2277-0.0057-2.3888,0.0805-3.5498,0.2599c-1.1727,0.1811-2.3536,0.4601-3.6122,0.8356
		c-1.2628,0.377-2.5991,0.851-4.0805,1.4219l-0.042,0.0125l-0.0371,0.0074l-0.0439,0.0039
		c-1.3666,0.0261-6.9452,0.4604-13.5164,1.1095c-4.7061,0.4646-9.9167,1.04-14.4456,1.654c-3.3777,0.4581-6.378,0.936-8.4997,1.4015
		c-1.7779,0.39-2.899,0.7452-3.0385,1.0335l-0.0003-0.0003l-0.0258,0.0538l-0.0607,0.127l-0.1395,0.0136l-0.0604,0.006
		c-1.3252,0.1324-2.7471,0.2874-4.2151,0.466c-1.2708,0.1548-2.5589,0.326-3.8231,0.5137
		c-1.4108,0.2092-2.7984,0.4405-4.1088,0.6933c-1.1418,0.2209-2.2266,0.4592-3.2204,0.7141
		c-0.1508,0.4978-0.4195,1.0216-0.7016,1.5732v0.0012l-0.0085,0.0164l-0.0005-0.0002c-0.2027,0.3957-0.4139,0.8079-0.591,1.2345
		c-0.1715,0.4124-0.3076,0.8317-0.364,1.2484l-0.0065,0.0485l-0.015,0.112l-0.0952,0.0626l-0.04,0.0264l0.0003,0.0005
		c-1.7402,1.1532-3.5578,4.307-5.3056,8.1683c-1.7629,3.8948-3.4472,8.4969-4.9156,12.511l0.0006,0.0003l-0.0014,0.0039
		l-0.0011,0.0012c-1.8825,5.1454-3.4191,9.3455-4.4552,10.0205c-0.0782,0.1737-0.2287,0.4921-0.4308,0.9207L67.0453,106.8376
		L67.0453,106.8376z M24.0673,118.1947c0.3308-0.0482,0.6744-0.1446,1.023-0.279c0.5054-0.1944,1.0222-0.4683,1.5299-0.784
		c0.5003-0.3107,0.9907-0.6625,1.4545-1.0208l0.1758-0.1372c-0.5941,0.3115-1.1823,0.6225-1.7654,0.932l0.0003,0.0003
		C25.5506,117.4021,24.7893,117.808,24.0673,118.1947L24.0673,118.1947z M79.7868,116.9443l0.0488,0.0045h0.0009
		c0.1015,0.0099,0.2112,0.0266,0.3311,0.0541c4.5504-0.2704,9.0876-0.7013,13.6284-1.1322l0.036-0.0034l0.0147-0.0014
		c6.3697-0.6044,12.7514-1.2107,19.165-1.3794c0.4527-0.045,0.8702-0.0822,1.2714-0.1162c0.407-0.0343,0.8334-0.0684,1.2589-0.1018
		c2.8035-0.2211,5.622-0.4448,8.1238-1.2838c2.3698-0.7948,4.4728-2.1495,6.0409-4.5936c-0.7588-0.0445-1.5197-0.0629-2.2799-0.0621
		c-0.8938,0.0012-1.7986,0.0312-2.7074,0.0803c-1.1594,0.2242-2.3519,0.3792-3.5691,0.4827
		c-1.2067,0.1029-2.4517,0.1565-3.7213,0.1788c-1.1423,0.121-2.2643,0.237-3.3378,0.3271
		c-1.0667,0.0895-2.1127,0.1564-3.1346,0.1831c-1.0893,0.4527-2.7054,0.7197-4.6414,0.8937c-1.944,0.1749-4.214,0.258-6.5985,0.345
		c-4.5714,0.167-9.5723,0.3504-13.4328,1.2212C82.6231,112.8675,79.9957,114.308,79.7868,116.9443L79.7868,116.9443z
		 M117.3795,108.3581l0.6761-0.0714l0.0366-0.004c2.1235-0.2262,4.3075-0.4595,6.4976-0.5814
		c3.2097-0.6247,6.1399-1.7997,8.6182-3.9566c2.4318-2.116,4.4362-5.1826,5.8524-9.608c-0.1772-0.0122-0.3506-0.0207-0.5193-0.025
		c-0.2271-0.0063-0.5026-0.006-0.7807-0.006c-3.7094,0.754-7.4783,1.3289-11.2649,1.8128c-3.812,0.4872-7.6116,0.8796-11.3896,1.269
		c-4.1344,0.4263-8.2451,0.851-12.2607,1.3862c-3.9855,0.5309-7.8976,1.1741-11.6855,2.0404
		c-0.3852,0.612-0.9734,1.4391-1.6382,2.3766l-0.0437,0.0615l-0.0028,0.0034h0.0003c-1.6846,2.3749-3.8602,5.442-4.4022,7.2267
		c2.0628-0.574,5.1891-0.6245,7.725-0.6659l0.004-0.0012h0.0025v0.0012l0.6914-0.0119l0.6242-0.0134
		c2.7238-0.7636,5.5672-1.1151,8.4498-1.2602c2.88-0.1449,5.8022-0.0836,8.6851-0.0233c1.0409,0.0218,2.0781,0.0436,3.0974,0.055
		C115.3709,108.374,116.382,108.3754,117.3795,108.3581L117.3795,108.3581z M177.8661,113.6876l-0.0652,0.2656H177.8l-0.0077,0.0343
		c0.1851-0.0326,0.3625-0.074,0.5278-0.1281c0.2571-0.0836,0.4853-0.1961,0.6613-0.3481c0.1701-0.1466,0.2971-0.3385,0.3597-0.5868
		c0.0561-0.2228,0.0641-0.4935,0.0091-0.8195h-0.2384l-0.0516,0.0802l-0.0003-0.0002l-0.1154,0.1859
		c-0.1553,0.2523-0.307,0.4977-0.4862,0.7279C178.2913,113.3134,178.1011,113.5124,177.8661,113.6876L177.8661,113.6876z
		 M180.5445,113.488c0.036,0.0501,0.0907,0.0992,0.1644,0.1451v0.0008c0.0717,0.0451,0.1621,0.0871,0.2701,0.1259
		c11.9888-1.0273,24.3666-2.7443,36.6758-4.4516v-0.0002l0.0116-0.0017h0.0017l0.1973-0.0275
		c4.8246-0.6687,9.6404-1.3368,14.4822-1.9681c0.5729-0.8955,1.135-1.7728,1.6333-2.5441l0.0009-0.0011
		c0.5304-0.8198,1.0573-1.6271,1.5764-2.4083l-0.0255-0.0287v-0.0009c-0.0202-0.0229-0.0391-0.0462-0.0581-0.0703
		c-9.7892,0.8802-19.4681,2.4038-29.0948,3.9192l-0.0009,0.0009l-0.0184,0.0028v-0.0005
		c-3.5246,0.5544-7.0441,1.1092-10.4675,1.6169c-3.4832,0.5168-6.9591,1.0018-10.423,1.4218
		c-0.2616,0.0839-1.0749,0.5247-1.984,1.1214l-0.0006-0.0009c-0.6639,0.4363-1.3742,0.9553-1.9465,1.478
		c-0.216,0.1968-0.411,0.3935-0.5732,0.5834c-0.1449,0.1695-0.2645,0.3353-0.3495,0.4921c-0.076,0.1403-0.1222,0.2687-0.129,0.3784
		c-0.0051,0.0819,0.0125,0.1559,0.0564,0.2171H180.5445L180.5445,113.488z M131.6305,111.2172
		c0.0649,0.1313,0.1678,0.269,0.3109,0.4116h0.0009c0.1361,0.136,0.307,0.2747,0.5128,0.4161
		c1.7855,0.1259,3.6771,0.0612,5.6353-0.1009c2.0058-0.1661,4.0544-0.4312,6.1308-0.6993l0.0153-0.002
		c3.5609-0.4598,7.2045-0.9301,10.7498-0.9326c0.4802-0.0417,1.0962-0.0748,1.8153-0.1046
		c0.6999-0.0289,1.5055-0.0547,2.3817-0.0822c4.2041-0.1327,10.0823-0.3195,14.9122-1.2416
		c4.6332-0.8844,8.2916-2.4352,8.4875-5.2464c-0.7336-0.1125-3.5801,0.053-7.4367,0.3569
		c-4.2917,0.3379-9.7245,0.8433-14.9286,1.3274l-0.0425,0.004c-7.6328,0.7101-14.7736,1.3745-17.0132,1.3799
		c-0.4632,0.0561-2.6167,0.3898-4.9561,0.9516c-1.3374,0.3215-2.7397,0.7183-3.9257,1.1818
		c-0.506,0.1975-0.9709,0.4073-1.3691,0.6261c-0.3603,0.1982-0.6667,0.4042-0.8997,0.616c-0.2214,0.2007-0.3725,0.404-0.4337,0.6052
		C131.5258,110.8541,131.5392,111.0326,131.6305,111.2172L131.6305,111.2172z M52.005,106.4915
		c-2.5447,0.2296-4.7268,0.4272-6.8542,1.1259c-1.9227,0.6313-3.8126,1.6773-5.9074,3.5379
		c0.3798-0.0882,0.8221-0.2021,1.2881-0.3297c0.7894-0.216,1.6696-0.4774,2.4469-0.72c0.8104-0.2531,1.4947-0.4822,1.8366-0.6143
		c1.8207-1.4958,4.0059-2.2368,6.3819-2.5988c2.3621-0.36,4.9158-0.3441,7.4866-0.328c1.1146,0.0068,2.2343,0.0136,3.342-0.0104
		c1.0556-0.023,2.1044-0.076,3.132-0.1843c0.1097-0.1865,0.2183-0.3622,0.3265-0.532c0.0729-0.1143,0.1437-0.2217,0.2129-0.3268
		c-0.3495-0.1109-0.7784-0.1939-1.2532-0.2515c-0.7041-0.0851-1.5004-0.1151-2.2935-0.1018
		c-0.97,0.0162-1.9409,0.0956-2.7411,0.2144c-0.7708,0.1142-1.3677,0.261-1.6279,0.4169l-0.0428,0.0204l-0.0383,0.0139
		l-0.0459,0.0119c-1.0582,0.1687-2.0475,0.2948-2.9812,0.3974h-0.0008C53.7556,106.3331,52.8599,106.4144,52.005,106.4915
		L52.005,106.4915z M185.0037,107.5928c0.0814,0.0096,0.169,0.0249,0.2653,0.0464c4.2594-0.674,8.532-1.3493,12.9104-2.0356
		c4.43-0.6942,8.7429-1.3654,12.8511-1.9956c4.2815-0.6568,8.5978-1.3105,12.9719-1.9602
		c4.3158-0.6412,8.6746-1.2767,13.0944-1.9057c1.5956-1.2118,3.7247-3.8463,5.7971-6.6999
		c2.1036-2.8967,4.1462-6.0177,5.5202-8.1173l0.4125-0.629c-1.6424-0.0198-3.2905,0.142-4.9317,0.3974
		c-1.7844,0.2775-3.5833,0.6706-5.3566,1.0581l-0.004,0.0009l-0.0045,0.0008c-3.1513,0.6885-6.2286,1.3609-9.1743,1.3666
		c-4.5068,0.9343-9.2599,1.3896-13.9833,1.8411v0.0003l-0.0077,0.0009h-0.0037c-3.2513,0.3104-6.4905,0.6205-9.6293,1.0865
		c-3.0997,0.4601-6.095,1.0735-8.8934,1.9911c-0.7055,0.8453-1.5919,1.8374-2.5724,2.9367h-0.0011l-0.0167,0.0187
		c-1.7827,1.9976-3.8801,4.3481-5.656,6.6478C186.929,103.7952,185.5547,105.8945,185.0037,107.5928L185.0037,107.5928z
		 M235.1494,105.9544c-0.239,0.3728-0.3722,0.5836-0.4459,0.7486c-0.0408,0.0916-0.0649,0.1749-0.0833,0.2761h0.0465l0.0301-0.0003
		c0.2792-0.0023,0.6131-0.0063,0.9453-0.0641c0.1389-0.0244,0.2778-0.0589,0.4108-0.1071l-0.1315-0.0445l-0.0289-0.1403
		l-0.0125-0.0609l-0.0009-0.0011c-0.034-0.1718-0.0539-0.3302-0.0646-0.4799c-0.004-0.0555-0.0056-0.1105-0.0077-0.1664
		c-0.0981,0.0014-0.1962,0.0034-0.2931,0.008C235.3858,105.9283,235.2631,105.939,235.1494,105.9544L235.1494,105.9544z
		 M239.3827,103.8247c-0.4283,0.4808-0.8127,0.9941-1.1222,1.518c-0.2177,0.3685-0.398,0.7415-0.5304,1.112
		c1.1602-0.0919,2.3445-0.2177,3.5487-0.3625c1.3703-0.1647,2.7017-0.3456,4.0493-0.5281c1.8759-0.2546,3.7848-0.5136,5.6999-0.7226
		c1.9185-0.2089,3.8625-0.371,5.8241-0.4339c5.1948-0.7829,10.4346-1.5452,15.6971-2.2969
		c5.1988-0.7424,10.4715-1.482,15.7481-2.2215c2.4557-0.3445,4.9108-0.688,7.3675-1.0338
		c-0.0839-0.0603-0.1573-0.1403-0.2216-0.2398c-0.1259-0.1947-0.2064-0.4677-0.2333-0.8314
		c-0.2279-0.0502-0.4258-0.1001-0.6213-0.1491l-0.053-0.0133v-0.0003l-0.0632-0.0156l-0.1488-0.0368l-0.0346-0.1486l-0.015-0.0644
		c-0.1814-0.7733,0.214-1.4941,0.6265-2.2458l0.002-0.0037l0.0009-0.0014c0.1571-0.2861,0.3177-0.5783,0.4369-0.8606
		c0.0791-0.1874,0.1422-0.3745,0.1808-0.5627c-4.4754,0.1145-8.9972,0.6154-13.5392,1.3113
		c-4.6431,0.7115-9.3039,1.6265-13.9595,2.5401v0.0003l-0.0014,0.0003H268.02c-8.528,1.6741-17.0441,3.3463-25.4319,3.7658
		c-0.5264,0.2605-1.0846,0.6185-1.6302,1.046C240.4086,102.7762,239.8686,103.279,239.3827,103.8247L239.3827,103.8247z
		 M142.8778,94.6376c-1.0817,1.6554-2.8664,4.3874-4.3208,6.7955c-1.3068,2.1639-2.3542,4.0391-2.3684,4.5204
		c1.0568,0.144,3.3046,0.0873,6.2592-0.1038c3.6088-0.2336,8.2633-0.6695,13.091-1.1888
		c5.9936-0.6446,12.2408-1.4113,17.0779-2.0755c4.1023-0.563,7.1839-1.048,8.2222-1.3184
		c-6.0996-6.3777-11.416-9.1434-17.1128-9.9334c-5.7937-0.8039-12.0152,0.4292-19.8578,1.9837l-0.1519,0.03
		c-0.1599,0.254-0.4085,0.6327-0.7271,1.12L142.8778,94.6376L142.8778,94.6376z M377.4311,104.0339
		c-0.7183-0.129-1.3201-0.2546-1.8207-0.4071c-0.5187-0.1579-0.9329-0.3464-1.2595-0.5972
		c-0.3452-0.2656-0.5876-0.5933-0.7427-1.0151c-0.1494-0.4056-0.216-0.8952-0.216-1.4995v-0.0448v-0.1032l0.0734-0.0734
		l0.0314-0.0315c2.4551-2.4551,4.9105-3.6788,7.6428-4.2845c2.7139-0.6021,5.6854-0.5902,9.2041-0.5757l0.1171,0.0006
		c0.3314,0.0011,0.625,0.0025,1.5769,0.0025h0.0502h0.1154l0.076,0.091l0.0326,0.0391c0.2953,0.3555,0.5326,0.6976,0.7155,1.0259
		c0.1927,0.3461,0.3274,0.6794,0.4076,0.998c0.1551,0.6157,0.1143,1.1801-0.0862,1.6962c-0.212,0.546-0.6026,1.0316-1.1268,1.4619
		c-0.4623,0.3793-1.0284,0.7155-1.6656,1.0126c-0.6902,0.3214-1.4734,0.6015-2.306,0.8438
		c-1.5809,0.4603-3.3398,0.7849-4.9833,1.0086c-2.5897,0.3529-4.8943,0.4586-5.7733,0.4586l-0.0215-0.002l-0.019-0.0017
		L377.4311,104.0339L377.4311,104.0339z M87.4593,85.9647c-0.5919,2.937-1.1594,6.2022-1.6166,9.1103
		c-0.4708,2.994-0.8251,5.61-0.9706,7.0988c0.6591-0.5661,1.3573-1.4941,2.0441-2.4071l-0.0003-0.0003l0.0014-0.002l0.004-0.0048
		c0.3591-0.4776,0.7163-0.9521,1.0701-1.3782c0.3589-0.4323,0.7141-0.8141,1.0616-1.0953l0.0456-0.0292l0.042-0.021l0.051-0.0196
		c5.4213-1.3553,11.0078-2.3196,16.6856-3.0883c5.6744-0.7685,11.4338-1.3419,17.2123-1.9165
		c4.1973-0.4175,8.4064-0.8365,12.6385-1.3371c4.2018-0.4969,8.3877-1.0718,12.5286-1.7998l0.0167-0.0019l0.013-0.0014
		l0.0136-0.0009c0.2129-0.0114,0.4737-0.0227,0.7676-0.034l0.9371-0.0331h0.0008c1.6438-0.0564,3.8228-0.1318,5.8122-0.3291
		c1.8731-0.1857,3.5688-0.478,4.4544-0.9598V87.598c-0.7225-0.4975-2.6413-1.7861-4.8132-3.2142
		c-1.5727-1.0341-3.3007-2.1566-4.8433-3.1323c-1.1682-0.739-2.215-1.3853-2.979-1.8278c-0.6307-0.3648-1.04-0.5828-1.1185-0.5828
		h-0.0445h-0.1032l-0.0734-0.0734l-0.0318-0.0317c-8.1972-8.1972-17.5303-6.5679-27.4034-4.8438l-0.0108,0.0011l-0.0008,0.0009
		c-3.8086,0.665-7.6983,1.3441-11.6569,1.4879c-1.47,0.4298-3.005,0.686-4.5623,0.8535c-1.5562,0.1675-3.1439,0.2478-4.7146,0.3268
		c-1.4337,0.072-2.8559,0.1443-4.231,0.2826c-1.3371,0.1349-2.6314,0.3342-3.8506,0.6599c-0.2866,0.3566-0.6265,1.2622-0.991,2.5308
		C88.3942,81.6005,87.9188,83.6851,87.4593,85.9647L87.4593,85.9647z M375.5724,101.2457c0.1488,0.1948,0.4453,0.3816,0.9119,0.5533
		c0.466,0.1721,1.0913,0.3232,1.8961,0.4459c0.7759,0,1.9392-0.0053,3.2482-0.0814c1.3235-0.0765,2.8162-0.2259,4.2557-0.5145
		l0.2508-0.0502c1.3159-0.2806,2.5728-0.6826,3.5893-1.2571c1.0139-0.5734,1.7867-1.3192,2.1334-2.2901
		c-0.6304-0.8316-2.0036-1.2072-3.6975-1.2634c-2.1753-0.072-4.858,0.3872-7.2096,1.0876
		c-0.9029,0.2688-1.7547,0.5729-2.5064,0.8947c-0.7328,0.3138-1.3731,0.6454-1.8754,0.9785
		c-0.1089,0.0723-0.2083,0.142-0.2957,0.2075c-0.3472,0.261-0.5956,0.515-0.718,0.7506c-0.0947,0.1819-0.1046,0.3512-0.011,0.4983
		h0.0002l0.0284,0.04L375.5724,101.2457L375.5724,101.2457z M177.7663,96.513c0.9151,0.6577,1.8332,1.3181,2.7768,2.0934
		c0.9159,0.7523,1.8536,1.6112,2.8281,2.6765c0.131-0.0179,0.2645-0.029,0.4031-0.0352h0.0009
		c0.1525-0.0071,0.2945-0.0091,0.4391-0.0096c0.2155-0.2855,0.4133-0.544,0.6032-0.7884c0.1905-0.2449,0.4552-0.5811,0.7243-0.9232
		l-0.0003-0.0003l0.002-0.0025l0.0011-0.0009c1.4329-1.8199,3.0116-3.8239,3.9725-5.6704l-0.0448-0.0578l0.0006-0.0005
		l-0.0003-0.0003l-0.0048-0.0057l-0.0788-0.1032c-2.3374,0.146-4.5881,0.4357-6.7873,0.7188v0.0003l-0.0093,0.0011v0.0003
		l-0.0122,0.0017h-0.0031c-2.2153,0.2852-4.3821,0.5653-6.5302,0.6866v0.0023c0.0048,0.0541,0.0136,0.1131,0.0252,0.1754
		c0.5763,0.438,1.1327,0.8377,1.6892,1.2379L177.7663,96.513L177.7663,96.513z M244.0624,98.9811l1.6891,0.169
		c2.2311-0.0031,4.8674-0.6627,7.5339-1.3297l0.0102-0.0025l0.0493-0.0125c0.5972-0.1491,1.1993-0.3002,1.8105-0.4459l0.0128-0.002
		l0.0139-0.0025l0.0192-0.0031c5.4941-0.5749,11.1115-1.6741,16.7758-2.7816v-0.0003l0.0198-0.0039v0.0002l0.002-0.0005
		c8.4002-1.643,16.9073-3.3069,25.3618-3.3344c0.3609-0.6237,1.0483-1.4528,1.9258-2.4103c0.9406-1.0264,2.0832-2.1849,3.28-3.3979
		c1.7901-1.8145,3.7046-3.7554,5.188-5.4936c1.3207-1.5477,2.2941-2.9233,2.5163-3.8781c-1.7844,0.0891-6.2943,0.396-11.4307,0.8116
		c-3.8549,0.3121-8.0504,0.6848-11.6881,1.0701c-2.787,0.2954-5.2506,0.5973-6.9848,0.8813
		c-1.4525,0.2381-2.3599,0.4416-2.4568,0.587l-0.0567,0.0604l-0.0558,0.0422l-0.0723,0.0371
		c-1.345,0.4482-2.8182,0.7756-4.3628,1.0426c-1.5242,0.2636-3.1482,0.4731-4.7889,0.6845
		c-3.9143,0.5043-7.931,1.0219-11.2017,2.3956c-3.2292,1.3564-5.7373,3.5575-6.6996,7.4325l-0.0204,0.0547l-0.0224,0.0434
		l-0.0315,0.0459c-0.2537,0.3014-0.6829,0.7708-1.2053,1.3419l-0.0153,0.0167c-0.9128,0.9981-2.1132,2.3106-3.1461,3.5635
		C245.1436,97.2395,244.3858,98.2645,244.0624,98.9811L244.0624,98.9811z M168.2099,90.4174
		c1.6449,0.9598,3.2941,1.9221,5.0479,2.9738c0.8045,0.0012,1.6348,0.0125,2.4653,0.0244l0.1108,0.0017
		c3.4914,0.0527,6.9868,0.1052,10.0913-0.6588c2.9897-0.7356,5.6305-2.2348,7.5787-5.2387
		c-1.9083-0.5497-6.9154-0.0851-12.0759,0.6349c-5.3084,0.7404-10.7668,1.7538-13.2256,2.2145l0.006,0.0419v0.0009L168.2099,90.4174
		L168.2099,90.4174z M305.6836,89.3544c-0.1877,0.2668-0.3384,0.4873-0.4427,0.6503c5.7019-0.0323,11.6623-0.6545,17.7313-1.5704
		c6.2214-0.9388,12.5549-2.1866,18.8459-3.4262c3.0801-0.6066,6.1512-1.2121,9.2735-1.7921c3.054-0.5672,6.0715-1.0936,9.025-1.5406
		c1.2027-1.2104,2.4018-2.5796,3.5804-4.0048c1.2087-1.4621,2.382-2.965,3.5192-4.4221h-0.0003l0.0125-0.0161l0.0012-0.0011
		c1.0701-1.3705,2.1104-2.7032,3.0943-3.8948l-0.0315-0.11l-0.0009-0.0008l-0.0065-0.0201c-2.461,0.116-9.7472,0.6715-18.1635,1.438
		c-6.2728,0.5714-13.1857,1.2622-19.2076,1.9771c-4.5476,0.5397-8.562,1.0888-11.364,1.601
		c-2.3795,0.4349-3.8588,0.8164-3.9983,1.1044l-0.0204,0.0352l-0.0207,0.0294l-0.0275,0.0332
		c-0.5417,0.5417-2.5444,2.7793-4.7886,5.3734c-1.6928,1.9573-3.5243,4.1184-4.9714,5.9097
		c-0.4235,0.5241-0.815,1.0179-1.1597,1.4641C306.2222,88.6129,305.9243,89.0125,305.6836,89.3544L305.6836,89.3544z
		 M199.8116,87.5238c-0.4839,0.9077-0.7467,1.402-0.9094,1.7606c-0.1043,0.2299-0.1647,0.4016-0.2183,0.5944
		c8.771-1,17.4921-2.4548,26.2327-3.9112l0.0445-0.0074v-0.0002l0.0028-0.0006l0.0077-0.0011
		c8.3174-1.3864,16.6555-2.7765,25.0665-3.784c0.129-0.1179,0.2684-0.225,0.4119-0.3245c0.1145-0.0794,0.2316-0.1528,0.3501-0.2254
		c-0.0049-0.0343-0.0082-0.0691-0.0114-0.1032l-0.0017-0.0161c-6.1761,0.019-12.5847,0.5462-19.0408,1.3181
		c-6.5602,0.7844-13.1383,1.8167-19.5747,2.827l-0.074,0.0116C207.9096,86.3188,203.7804,86.9676,199.8116,87.5238L199.8116,87.5238
		z M274.6551,76.9814c-4.7418,0.8484-9.3637,1.8071-12.6785,2.738c-2.0974,0.5893-3.6519,1.152-4.3418,1.6435
		c1.8848-0.2106,5.7665-0.7489,10.3711-1.4337c4.7452-0.7059,10.2541-1.5679,15.131-2.3896
		c3.5408-0.5964,6.7405-1.1682,9.0601-1.637c1.548-0.3129,2.7048-0.5786,3.3106-0.7738c-0.0576-0.049-0.1106-0.1018-0.1656-0.163
		c-0.1323-0.1474-0.267-0.3416-0.4935-0.6803l-0.0349-0.0023c-0.9986-0.045-3.969,0.2517-7.8372,0.7685
		C283.3543,75.5355,278.9538,76.2124,274.6551,76.9814L274.6551,76.9814z M368.132,79.9139v0.0326
		c1.9287-0.2653,7.9064-1.101,14.5182-2.0818c3.9909-0.5919,8.1924-1.235,11.8262-1.8309c2.6129-0.4286,4.9436-0.8342,6.7062-1.1803
		c1.4343-0.282,2.4741-0.5184,2.9583-0.6902c-2.2995-3.8647-6.0571-5.5581-10.258-6.1812
		c-4.3271-0.6418-9.1332-0.1548-13.3146,0.2693l-0.087,0.0088c-0.9972,0.1012-1.9605,0.199-2.8134,0.2715
		c-0.5582,0.6423-1.1191,1.3085-1.6824,1.9885c-0.6225,0.7518-1.2053,1.4664-1.791,2.1847
		c-0.9226,1.1319-1.8558,2.2762-2.7839,3.3738c-0.8778,1.0383-1.7586,2.0438-2.6339,2.9732l0.1143,0.1143l0.1346,0.1347
		l0.3115,0.3118l-0.4277,0.1068l-0.1848,0.0462L368.132,79.9139L368.132,79.9139z M439.6189,63.9231l2.4018,0.0247l2.5121,0.0309
		c1.1517-0.013,2.321-0.0394,3.4894-0.0658l0.1457-0.0031c2.1776-0.0488,4.3575-0.0975,6.4851-0.0695
		c2.1221,0.0278,4.1907,0.1321,6.1495,0.3878l0.013-0.0014c2.1022-0.2098,4.2064-0.4195,6.3629-0.5616
		c0.3187-0.4005,0.9692-1.5236,1.8057-3.0725c1.0474-1.9392,2.3698-4.5145,3.6992-7.1739c1.4973-2.9948,3.0093-6.1038,4.1573-8.5456
		c0.887-1.8871,1.5559-3.3712,1.8303-4.0901c-9.4127,0.618-20.573,4.354-29.8607,7.4633l-0.004,0.002l-0.0054,0.0016l-0.0003-0.0005
		l-0.1754,0.0587c-1.1619,0.3889-2.2824,0.7642-2.9795,0.9947l-0.0252,0.0068l-0.021,0.0045l-0.0236,0.004
		c-0.9135,0.1103-2.1412,0.7296-3.4891,1.6566c-1.5227,1.0474-3.1915,2.4854-4.7375,4.0315
		c-1.5687,1.569-3.005,3.2417-4.0277,4.7228c-0.8488,1.2282-1.4117,2.3161-1.5231,3.0858c1.1503,0.3325,2.3678,0.5749,3.6346,0.7503
		C436.7784,63.7513,438.1804,63.8624,439.6189,63.9231L439.6189,63.9231z M296.6885,73.4877l2.7618,1.1835
		c0.7942,0.0028,1.6543,0.047,2.5497,0.0935l0.0213,0.0011h0.0011c2.1442,0.1123,4.5099,0.2364,6.5841-0.1805
		c1.9975-0.4014,3.7378-1.3096,4.765-3.2315l-0.0091-0.0173c-1.5448-0.1252-3.1756-0.0224-4.8393,0.1948
		c-1.7065,0.2228-3.4634,0.5692-5.1965,0.9108c-1.19,0.2347-2.3701,0.4674-3.5376,0.6599
		C298.7291,73.2766,297.6905,73.416,296.6885,73.4877L296.6885,73.4877z M261.1049,67.1435
		c4.9479,1.8712,10.0015,3.7828,15.0605,5.9318c1.582-0.2293,3.3497-0.5763,5.1627-0.9312v-0.0003l0.0057-0.0011h0.0009
		c1.0491-0.2055,2.1161-0.4144,3.2462-0.6183c1.0134-0.1826,2.0186-0.349,2.9937-0.4816l0.0034-0.0377v-0.0009l0.0031-0.0385
		c-0.6395-0.1866-1.665-0.5502-2.9361-1.0284c-1.6367-0.616-3.691-1.4273-5.8541-2.3006c-2.922-1.1798-6.0622-2.4834-8.6465-3.5759
		c-2.7978-1.1826-4.9362-2.1144-5.4337-2.3709l-0.0292-0.0116c-2.7916-1.1163-5.5392-2.0341-8.1675-2.9117l-0.0059-0.002
		l-0.0023-0.0008c-1.0471-0.3495-2.0761-0.6931-3.1028-1.048c-1.0222-0.3529-2.0109-0.7067-2.9506-1.0664
		c-5.036-1.0434-8.371-2.6887-11.2765-4.1222l-0.0012-0.0011l-0.002-0.0011l-0.0003,0.0006
		c-2.4455-1.2068-4.5833-2.2618-7.1742-2.6566c-2.558-0.3898-5.5783-0.1423-9.8101,1.2257v0.0797
		c1.3127,0.5513,2.6421,1.1415,3.9855,1.7538c1.3683,0.6237,2.7723,1.2816,4.1868,1.944h0.0009l0.0054,0.0025l-0.0003,0.0003
		c5.6392,2.6414,11.4608,5.3683,17.6255,7.1363l0.0136,0.0048l0.0122,0.0042l0.0136,0.0049
		c2.1175,0.8875,4.267,1.7444,6.4423,2.5889c2.1728,0.8433,4.3914,1.6823,6.63,2.5291L261.1049,67.1435L261.1049,67.1435z
		 M349.7133,64.6811c-6.4372,0.8788-13.9557,1.9057-19.8986,3.3001c-5.5857,1.3104-9.7574,2.9237-10.2348,4.9944
		c9.8263-0.9119,20.0345-2.1093,30.3117-3.3146l0.0859-0.0102h0.0008l0.1035-0.0121c7.3805-0.8654,14.7991-1.7359,22.2086-2.5132
		c0.3362-0.339,1.2878-1.309,2.3151-2.4208c0.6279-0.6789,1.2925-1.4204,1.8771-2.1189c0.4243-0.5077,0.7988-0.9825,1.071-1.3762
		c0.1408-0.2038,0.2534-0.3838,0.3313-0.5341c-1.319-0.2443-3.035-0.1743-4.86,0.0406c-1.9797,0.233-4.0802,0.6358-5.946,0.9935
		v0.0003l-0.0215,0.0043h-0.0012c-1.6912,0.324-3.1929,0.6117-4.2488,0.7058c-1.0329,0.3775-2.804,0.7382-5.059,1.1049
		C355.4847,63.8933,352.7152,64.2715,349.7133,64.6811L349.7133,64.6811z M271.0551,62.8621
		c3.2386,1.3181,6.4947,2.6442,9.7585,3.8974c3.2854,1.2617,6.6416,2.4766,10.1194,3.5906c2.1013-0.0039,4.3126-0.254,6.5423-0.7217
		c2.2714-0.4768,4.5633-1.1812,6.7788-2.0837c2.1677-0.8833,4.2613-1.9568,6.1903-3.1918c1.7935-1.1486,3.4458-2.4375,4.8855-3.8452
		c-0.2262-0.2213-0.7163-0.5045-1.3975-0.8271c-0.9944-0.4711-2.3729-1.0069-3.9235-1.5545
		c-2.128-0.7517-4.5695-1.5199-6.7981-2.1813c-3.0869-0.9158-5.7648-1.627-6.6444-1.8082l-0.0176-0.0039l-0.015-0.0042
		l-0.0176-0.006c-2.0081-0.7325-4.0799-1.4729-6.1795-2.2155c-2.1892-0.7744-4.2211-1.486-6.2521-2.1972
		c-3.7508-1.3133-7.4917-2.6235-11.1484-3.9478c-3.657-1.3241-7.2266-2.6615-10.631-4.0275l-0.0643-0.038l-0.0496-0.0403
		l-0.0499-0.0547c-0.0425-0.0633-1.5916,0.4739-4.0782,1.0502c-2.882,0.6678-6.8173,1.6033-10.6399,2.5268
		c-3.3103,0.7996-6.535,1.5965-8.9268,2.2124c-1.8439,0.4745-3.1944,0.8428-3.7086,1.021v0.0525
		c3.0095,1.6308,6.6093,3.3355,10.4777,5.1681l0.0198,0.0094l0.356,0.1686c4.4785,1.1767,8.7591,2.5963,12.9541,4.142
		C262.8029,59.5027,266.9159,61.1771,271.0551,62.8621L271.0551,62.8621z M312.7682,64.325
		c-1.2679,0.8238-2.5299,1.6432-3.5313,2.3576c-0.7005,0.4995-1.2714,0.9445-1.6181,1.2937
		c0.203,0.0042,0.4286,0.0102,0.6729,0.0173c0.3368,0.0096,0.7166,0.0209,1.1132,0.0292c0.373,0.0076,0.7957,0.0136,1.2818,0.0136
		c1.4386,0,3.0141-0.0621,4.2191-0.3081c1.1106-0.2271,1.8941-0.5967,1.8941-1.1974h0.0011v-0.1103v-0.2545l0.2537,0.0056
		l0.11,0.0025c9.97,0.2316,21.2357-2.1676,31.8311-4.424l0.0028-0.0008l0.0042-0.0009v0.0003
		c1.2084-0.2571,2.4149-0.5142,3.6839-0.7807c1.0764-0.2256,2.1255-0.4425,3.127-0.6452c-2.5583-0.0927-6.065-0.4519-9.9077-0.8439
		l-0.0357-0.0037c-1.2932-0.1321-2.6183-0.2673-3.9039-0.3924c-1.2974-0.1261-2.6268-0.2497-3.9863-0.3636v-0.0003l-1.5636-0.0119
		v0.0011h-0.0201l-0.0009-0.0011c-3.6575-0.0252-7.2309-0.0502-10.3904-0.3691c-1.078,0.0678-2.0625,0.1809-2.9239,0.3498
		c-0.8558,0.1675-1.5871,0.3894-2.1654,0.6752l-0.0425,0.021l-0.0992,0.049l-0.1017-0.0403l-0.0439-0.0173v-0.0003
		c-0.275-0.1066-0.5468-0.1862-0.8085-0.2406c-0.2792-0.0581-0.5462-0.0887-0.7909-0.0941h-0.0011
		c-0.243-0.0057-0.468,0.0128-0.6648,0.0511c-0.1298,0.0252-0.2466,0.0598-0.3466,0.1006c0.0062,0.0278,0.0156,0.0567,0.0264,0.0882
		l0.0028,0.007l0.0014,0.0037l0.0363,0.0961c0.0326,0.0862,0.0697,0.1854,0.1069,0.3039c0.038,0.1222,0.0768,0.2648,0.1106,0.434
		v0.0008l0.011,0.0564l0.0255,0.1307l-0.0938,0.0939l-0.0408,0.0408c-0.9876,0.9876-3.2205,2.4384-5.4303,3.8744l0.0002,0.0006
		l-0.0017,0.0011L312.7682,64.325L312.7682,64.325z M326.0347,57.6236c1.6887-0.1032,3.5989-0.0986,5.6308-0.0229
		c2.0449,0.0766,4.1989,0.224,6.368,0.4059v0.0003c1.7504,0.015,3.509,0.0399,5.2344,0.1063
		c1.7433,0.0669,3.4577,0.1758,5.1027,0.3583c0.1074,0.0005,0.2709,0.0039,0.4819,0.0096l0.8557,0.0256v-0.0009h0.002l0.0068,0.0011
		c4.8886,0.1522,20.4166,0.6364,20.8021-1.4017l0.0144-0.0496l0.017-0.0408l0.0244-0.045c0.5446-0.7991,1.2986-1.7538,2.1164-2.7896
		l0.0173-0.0219c1.1758-1.4888,2.4883-3.1501,3.5138-4.7786c0.945-1.501,1.6458-2.9696,1.7611-4.2347
		c-4.0403,0.0102-8.1238,0.1939-12.2156,0.4635c-4.1567,0.2738-8.3517,0.6406-12.5172,1.0043v-0.0009l-0.019,0.0017v0.0008
		c-8.0413,0.7018-15.978,1.3955-23.599,1.4094c-0.2407,0.5173-0.6092,1.0497-1.0516,1.5985
		c-0.4791,0.5944-1.042,1.205-1.6231,1.8346l-0.0069,0.0076l-0.0014,0.0014c-1.6699,1.8116-3.4954,3.7925-3.663,5.7722
		c0.4023,0.0743,0.8158,0.1414,1.2382,0.2015C325.0185,57.51,325.5228,57.5715,326.0347,57.6236L326.0347,57.6236z
		 M388.4633,66.8241c1.5724,0.0266,3.1632,0.0539,4.7551,0.0964c1.6021,0.0425,3.2085,0.1009,4.8033,0.1893
		c0.0281-0.0023,0.0995-0.0133,0.1947-0.0439c0.0553-0.0178,0.1149-0.0417,0.1715-0.0734l0.0289-0.0176
		c0.0423-0.0258,0.0833-0.0579,0.1185-0.095l0.0213-0.0243c-0.0134-0.0349-0.0261-0.0655-0.0383-0.0933h-0.0011l-0.0403-0.0848
		c-1.3187-0.4442-2.3862-0.9264-3.3086-1.4167c-0.9434-0.5012-1.7411-1.0142-2.5007-1.5027
		c-1.1679-0.7509-2.2471-1.4445-3.6564-1.9471c-1.3895-0.4955-3.1121-0.8118-5.576-0.826c-0.0493,0.0652-0.1094,0.1426-0.1791,0.231
		c-0.1355,0.1712-0.2571,0.3226-0.3898,0.4878c-0.5667,0.7061-1.3833,1.7235-2.0746,2.7088
		c-0.5732,0.8169-1.0573,1.6049-1.2237,2.1458c2.8599,0.1628,5.8371,0.2135,8.8781,0.2654L388.4633,66.8241L388.4633,66.8241z
		 M469.4684,66.1327c-0.0559,0.036-0.1091,0.0732-0.1585,0.1097c0.2475-0.0346,0.5349-0.0811,0.8371-0.1369
		c0.4535-0.084,0.942-0.1917,1.3802-0.3186c0.3195-0.0924,0.6099-0.1948,0.8334-0.3031l-0.0002-0.0006
		c0.0453-0.0221,0.0867-0.0434,0.1244-0.0649c-0.0901-0.0269-0.1965-0.0445-0.3146-0.0522h-0.0006
		c-0.1893-0.0125-0.4028-0.0014-0.6259,0.0286c-0.2375,0.032-0.491,0.0873-0.7438,0.1596
		c-0.2498,0.0714-0.4958,0.1599-0.7235,0.2588C469.8539,65.9101,469.6464,66.0185,469.4684,66.1327L469.4684,66.1327z
		 M416.764,62.2322l1.2677,0.0601c2.5013,0.1188,5.0051,0.2384,7.4863,0.3532v-0.0006c0.6721,0,1.3989-0.2874,2.139-0.7704
		c0.8646-0.5644,1.7436-1.3924,2.5779-2.3439c1.0201-1.1637,1.9726-2.5124,2.7556-3.7982c0.7914-1.3,1.4065-2.5299,1.743-3.4359
		c-1.8918,0.1092-4.3203,0.4586-6.7825,1.1112c-2.1019,0.5567-4.2242,1.3328-6.0508,2.3644
		c-1.4933,0.8433-2.7904,1.8598-3.7139,3.0671C417.4251,59.8338,416.9171,60.962,416.764,62.2322L416.764,62.2322z
		 M386.8815,59.7309l23.379,2.338h3.8858c0.4269-0.7532,1.2174-1.8383,2.0256-2.9466h0.0003l0.0026-0.0037l0.002-0.0032
		c0.5865-0.805,1.1835-1.6242,1.658-2.34c0.3302-0.4977,0.5919-0.9314,0.733-1.2495c-2.5826,0.0766-5.182,0.2254-7.7851,0.438
		c-2.7249,0.2223-5.4346,0.5125-8.1159,0.8586c-2.6886,0.3469-5.3736,0.7546-8.0376,1.2101
		c-2.6056,0.4453-5.1769,0.936-7.6992,1.4587c-0.0136,0.0581-0.0253,0.1156-0.036,0.1729L386.8815,59.7309L386.8815,59.7309z
		 M492.5517,60.2329c0.2277,0.1624,0.4414,0.3141,0.6228,0.4453c0.2078,0.1508,0.4388,0.3212,0.7143,0.5273
		c1.3088-0.0241,2.9583-0.4518,4.5845-0.8731l0.1193-0.0309h0.0009l0.6721-0.1724c0.0593-0.8937,0.0891-1.3793,0.0822-1.7949
		c-0.0068-0.3954-0.0468-0.7486-0.1245-1.3507l-0.2009,0.0187h-0.0009l-0.1156,0.0105c-1.38,0.1276-2.9954,0.2778-4.2568,0.7588
		C493.4874,58.2147,492.6237,58.9485,492.5517,60.2329L492.5517,60.2329z M377.7574,51.291
		c-0.9125,1.04-1.8411,2.0985-2.6762,3.1961c-0.7299,0.9586-1.3856,1.9443-1.8887,2.9656c1.3255-0.1763,2.6569-0.3535,3.9911-0.5292
		l4.4748-0.5887c6.6688-0.8762,13.4328-1.7654,20.2825-2.7261c6.7836-0.9513,13.6128-1.969,20.435-3.1042
		c0.5221-0.631,1.2552-1.5219,2.0605-2.5319c0.8402-1.0536,1.764-2.243,2.6207-3.4149c0.8234-1.1268,1.5885-2.2411,2.1606-3.206
		c0.4512-0.7611,0.7786-1.4207,0.9139-1.9075c-5.4,0.7149-10.8082,1.3493-16.2026,1.9417
		c-5.5068,0.6046-11.0248,1.1685-16.505,1.728h-0.0011l-0.1188,0.0121c-5.0099,0.5119-9.9912,1.0214-14.9386,1.5599
		c-0.3954,1.1146-1.0469,2.196-1.8372,3.2684C379.7113,49.0636,378.7427,50.168,377.7574,51.291L377.7574,51.291z M317.6512,55.0909
		c0.195,0.3564,0.3934,0.7186,0.7296,1.048c0.3314,0.3246,0.8076,0.6296,1.5656,0.8901h0.4901l0.1732-0.2299l0.0017-0.002
		l0.0011-0.0017c1.3337-1.7668,4.9609-6.5738,5.4836-8.4092c-1.3436,0.0068-3.6558,0.0507-6.1024,0.2296
		c-1.7016,0.1244-3.4633,0.3146-4.9932,0.6024c-1.2289,0.2313-2.3057,0.5232-3.0716,0.8904
		c-0.6248,0.299-1.0307,0.6389-1.1188,1.0221l-0.0414,0.1794l-0.1832,0.0139l-0.2052,0.0159l-0.1817,0.0141l-0.068-0.1703
		l-0.0419-0.1013l0.0085,0.0749l0.0006,0.0051v0.0028c0.0507,0.5091,0.0607,0.6165,0.2228,0.9261l0.5579-0.2789l0.1304-0.0652
		l0.3016-0.1508l0.0558,0.3322l0.0241,0.1434c0.019,0.1139,0.0085,0.2208-0.0176,0.3263c-0.0216,0.0881-0.0544,0.1712-0.0884,0.2593
		l-0.002,0.0065v0.0003l-0.0003,0.0009c-0.0689,0.1771-0.153,0.3937-0.0802,0.6917h0.1299h0.0663h0.72h0.108h0.25v0.25v0.108v0.8631
		c0.2424,0.1179,0.5596,0.2534,0.9218,0.3966c0.4269,0.1686,0.9144,0.3452,1.4179,0.5108c0.4583,0.1508,0.9297,0.2928,1.3799,0.4116
		c0.2549,0.0672,0.5051,0.1281,0.7455,0.1797c-0.1142-0.1944-0.3008-0.4921-0.5891-0.9479l-0.1046-0.1652l-0.2423-0.3827h0.4532
		h0.1956h0.504h0.0618h0.1431l0.0726,0.1242l0.0314,0.0538l-0.0009,0.0006c0.0357,0.0615,0.066,0.1139,0.0927,0.1624l0.0924,0.1678
		V55.0909L317.6512,55.0909z M310.043,50.973l-0.0218-0.0535h-0.0003l-0.0145-0.0338v-0.0009l-0.0142-0.0334h-0.0003l-0.0797-0.1851
		l-0.0409,0.0408l-0.1856,0.1857l0.0184,0.0039l0.1995,0.0448L310.043,50.973L310.043,50.973z M309.5424,50.8605l-0.0836-0.252
		l-0.055-0.1658h-0.0011l-0.0094-0.0284l0.0012-0.0002c-0.0357-0.1077-0.0726-0.214-0.1003-0.3158l-0.421-0.021l-0.2512-0.0127
		v0.0005h-0.0002h-0.0005l-0.0117-0.0011c-2.6345-0.1335-4.9785-0.252-7.2216,0.6485v0.059c0.1364,0.0198,0.3135,0.0374,0.508,0.057
		h0.0011l0.0108,0.0011c0.4626,0.0474,1.0165,0.1046,1.5015,0.2395c0.4402,0.1225,0.8221,0.3116,1.0406,0.6131
		c0.1556-0.0405,0.3342-0.0671,0.5258-0.0717c0.2477-0.006,0.5236,0.0218,0.8073,0.0944l0.0003-0.0009
		c0.2543,0.065,0.519,0.1676,0.782,0.3144h0.0009c0.184,0.1029,0.3671,0.2299,0.5462,0.3824l0.1659-0.0845v-0.0011l0.0847-0.0422
		l0.1942-0.0967l0.1233,0.1809l0.0516,0.076l0.0003-0.0003l0.004,0.004l-0.0006,0.0005l0.0006,0.0005
		c0.0014,0.0023-0.0003-0.0008,0-0.0008l0.0385,0.0402l0.0009,0.002c0.093,0.0924,0.2582,0.2344,0.4603,0.3844h0.0012
		c0.1619,0.1207,0.3458,0.2457,0.5318,0.352c0.2137,0.1228,0.4289,0.2223,0.6069,0.2617c0.055,0.0122,0.1043,0.019,0.1462,0.0184
		c-0.0096-0.167-0.0297-0.322-0.0547-0.4655c-0.0334-0.1913-0.0774-0.3645-0.1171-0.5215v-0.0012l-0.0003-0.0011
		c-0.138-0.5471-0.2401-0.9519,0.0856-1.4947l0.0927-0.1545L309.5424,50.8605L309.5424,50.8605z M307.7365,52.4371v-0.0003V52.4371
		L307.7365,52.4371z M286.7372,49.3765c4.0498,1.3978,8.1417,2.7301,12.1697,3.962c3.9688,1.2141,7.8865,2.3335,11.6526,3.3256
		c0.2288-0.0292,0.4717-0.0462,0.7209-0.055h0.0008c0.1962-0.007,0.3793-0.0091,0.557-0.0102
		c0.004-0.0674,0.011-0.1244,0.0227-0.1763l0.0065-0.0281c-1.3981-0.5689-5.0349-1.8555-9.7197-3.4582
		c-5.3824-1.8417-12.157-4.1054-18.5125-6.183c-5.3604-1.7521-10.4017-3.369-14.0295-4.4847
		c-2.4662-0.7586-4.2812-1.2875-5.0967-1.4737c3.2899,1.4326,6.793,2.8647,10.4213,4.2681
		C278.7647,46.5459,282.7346,47.9952,286.7372,49.3765L286.7372,49.3765z M427.3563,47.6154
		c-0.1256,0.3767-0.2237,0.7557-0.2911,1.1335l0.0011,0.0003c-0.0493,0.2769-0.0833,0.5522-0.1,0.824
		c2.7096-0.3155,8.2105-1.4888,14.648-3.0028c8.8747-2.0871,19.5318-4.8243,27.1162-6.8584
		c1.5319-0.4107,2.869-0.7738,3.9872-1.0817c1.1584-0.3189,2.209-0.6137,3.1195-0.8753c0.4193-0.1204,0.8107-0.2307,1.1574-0.3285
		c-2.399-0.2055-4.8745-0.3047-7.3928-0.3132c-3.2358-0.0105-6.5543,0.1273-9.8785,0.377
		c-3.7494,0.282-7.4994,0.7064-11.1455,1.2197c-4.1718,0.5871-8.2165,1.2929-11.9752,2.0359l-0.1483,0.0294l-0.3427,0.0683
		l0.0479-0.3464l0.0207-0.15c0.1004-0.7353,0.8583-1.1622,1.8887-1.4286c0.9536-0.2463,2.1501-0.3637,3.2448-0.4706v-0.0003
		l0.0133-0.0014h0.0028l0.002-0.0003c-0.2639-0.0213-0.5315-0.0323-0.803-0.0323c-1.3405,0-2.7133,0.2605-4.0451,0.7234
		c-1.4094,0.4901-2.7745,1.2061-4.0093,2.0801c-1.2254,0.8669-2.3238,1.8899-3.2122,3.0016l0.0006,0.0005
		c-0.8552,1.0707-1.516,2.2227-1.9066,3.3948V47.6154L427.3563,47.6154z M495.7407,48.2407l-0.0508-0.0709l-0.0782-0.1018
		c-0.0391-0.0505-0.0759-0.0978-0.1102-0.1463l-0.0012-0.0011c-0.0374-0.0533-0.0717-0.1072-0.1009-0.1653l-0.0352-0.0695
		l-0.0816-0.1613l0.1275-0.1276l0.055-0.055c0.0743-0.0743,0.1672-0.1505,0.271-0.2209v-0.0008l0.0502-0.0323l-0.1448-0.1446
		l0.1758-0.4266h0.2607h0.504h0.1077h0.248l0.0009,0.25l0.0003,0.108h0.0012c0,0.0912,0.0618,0.2769,0.1233,0.4615l0.0017,0.0037
		h0.0002l0.0008,0.0023l0.0004,0.0009l0.0008,0.0028l0.0156,0.0476l0.0403,0.123l-0.0774,0.1035l-0.0334,0.0448h-0.0012
		c-0.0955,0.1272-0.1786,0.2605-0.2543,0.3957h-0.001c-0.0729,0.1292-0.1443,0.2724-0.2151,0.4139l-0.0669,0.1338l-0.1548,0.3095
		l-0.2443-0.2452l-0.1052-0.1051l-0.0003,0.0003l-0.0032-0.0031C495.8745,48.4731,495.7821,48.3813,495.7407,48.2407
		L495.7407,48.2407z M98.6136,33.7846c1.2575,0.1669,2.4565,0.3265,3.4798,0.4753c1.0434,0.1517,1.9653,0.3008,2.6983,0.4502
		c8.0901-0.004,10.0613-1.4258,14.3495-4.5196l0.0029-0.0009l-0.0006-0.0012l0.0096-0.0068l0.0003,0.0003
		c1.319-0.9516,2.8556-2.0602,4.8529-3.3355l0.0119-0.0079l0.0136-0.0076l0.0193-0.0096c0.4261-0.1922,1.0667-0.4711,1.8703-0.8175
		c0.6463-0.2787,1.7093-0.7336,2.8817-1.2354l0.0366-0.0156c6.5027-2.7833,17.0328-7.2905,20.0755-9.0814
		c-0.4156,0.0043-0.8728,0.0221-1.3425,0.0547c-0.7418,0.0513-1.516,0.1383-2.2124,0.2588
		c-0.6106,0.106-1.1562,0.2355-1.5545,0.3858c-0.3081,0.1162-0.5133,0.2327-0.5635,0.3416l-0.0003-0.0003l-0.0286,0.0624
		l-0.0672,0.1465h-0.1593h-0.0689c-2.0197,0-9.8362,1.7098-17.5615,3.3996V20.32l-0.0167,0.0037l-0.002,0.0011l-0.0105,0.0023
		c-8.2134,1.7969-16.3171,3.5705-17.5374,3.219c-0.6865,0.0247-2.4523,0.4212-4.7302,1.0292
		c-2.4485,0.6537-5.4703,1.5483-8.3755,2.4869c-2.4307,0.7854-4.7849,1.6041-6.6575,2.3397
		c-1.4196,0.5579-2.5546,1.0655-3.2241,1.47c0.8073,0.6083,2.7099,1.1293,5.0655,1.5871
		C92.5245,32.9756,95.7311,33.4016,98.6136,33.7846L98.6136,33.7846z M116.9099,34.654l0.0079,0.0003
		c0.1012,0.0102,0.2112,0.0283,0.3322,0.0558c2.1838-0.004,5.356-0.3844,8.9081-1.0517c3.4364-0.6451,7.2249-1.5596,10.817-2.6617
		c3.0484-0.9352,5.9567-2.0069,8.386-3.1646c2.0432-0.9737,3.7431-2.0055,4.8932-3.064c-0.2733-0.2656-0.5423-0.5165-0.7954-0.7523
		l-0.0011-0.0012l-0.0096-0.0091l-0.0057-0.0048l-0.0011-0.0012l0.0003-0.0003c-1.2577-1.171-2.2048-2.0551-2.3298-3.4481
		l-0.0932-0.0119v0.0009l-0.2713-0.0329l-0.002-0.0002c-0.6514-0.0774-0.9629-0.1151-1.1925-0.3121
		c-0.1227-0.1049-0.1942-0.2285-0.2435-0.3923c-0.0402-0.1341-0.0641-0.2908-0.0947-0.4944v-0.0011l-0.0428-0.2789l-0.0082-0.0522
		c-1.91,0.6624-5.8104,2.2728-10.1324,4.2775c-3.4098,1.5815-7.0767,3.4066-10.2257,5.2004
		c-2.3785,1.355-4.4606,2.6889-5.9043,3.8784C117.8235,33.2199,117.11,34.0139,116.9099,34.654L116.9099,34.654z M72.1105,25.2971
		l0.0232,0.0113l-0.0003,0.0008c3.1036,1.4894,6.1634,2.958,9.1579,4.3605c0.7441-0.0087,1.7184-0.1448,2.8108-0.3724
		c1.1928-0.2489,2.5217-0.6078,3.8438-1.0318c1.2863-0.4124,2.5639-0.8861,3.7023-1.3796c0.9326-0.4045,1.7742-0.8229,2.4506-1.2328
		c-1.5041-1.3419-4.5516-3.2241-8.2726-5.3203c-3.9617-2.2315-8.6428-4.6837-13.0541-6.9937l-0.0003,0.0006l-0.0164-0.0085
		L72.7546,13.33c-7.5997-3.9801-14.4057-7.545-15.3785-8.9331c-1.709,0.042-4.7636,0.3065-8.1907,0.72
		c-3.0886,0.3722-6.4698,0.8646-9.4283,1.4201c-2.2365,0.4198-4.2313,0.8734-5.6704,1.3332
		c-0.925,0.2953-1.6078,0.5836-1.9582,0.8532c12.8202,3.5396,26.8038,10.2501,39.9736,16.5705v-0.0003l0.0054,0.0026
		L72.1105,25.2971L72.1105,25.2971z M150.0999,20.8098c0.5267,0.6072,1.0247,1.2447,1.4111,1.8335
		c0.2974,0.4532,0.5329,0.8838,0.669,1.2569c1.3192-0.0958,3.7259-0.8566,6.3805-1.8301c2.8057-1.0287,5.8728-2.2915,8.2434-3.2672
		l0.0859-0.0354c1.4017-0.5763,2.5543-1.0508,3.2641-1.3147l0.0176-0.006l0.0156-0.0045l0.0176-0.0048l0.616-0.1265l0.8382-0.1695
		c3.3593-0.6781,10.4292-2.1048,17.3239-4.0255c6.8655-1.9126,13.5493-4.3112,16.1697-6.9316
		c0.6486-0.6486,1.0327-1.3045,1.0822-1.9593c0.0474-0.6225-0.2075-1.2628-0.8246-1.9182c-1.2044,0.0352-3.7624,0.476-7.0209,1.156
		c-3.8251,0.7976-8.6136,1.9258-13.3177,3.1124c-4.9243,1.2422-9.752,2.5461-13.2752,3.6c-3.0966,0.9258-5.154,1.6342-5.3204,1.8975
		l-0.0272,0.0434l-0.0629,0.1009l-0.1176,0.0144l-0.0499,0.0063V12.237c-3.31,0.4317-6.8241,1.7824-10.1863,3.0747l0.0003,0.0003
		l-0.0088,0.0034l-0.0048,0.0016l-0.0062,0.0023v-0.0003c-3.1918,1.2271-6.2498,2.4032-8.9204,2.7176v0.0119
		c0.3076,0.159,0.7325,0.4836,1.2062,0.9099C148.8583,19.4625,149.4998,20.1182,150.0999,20.8098L150.0999,20.8098z"/>
</g>
</svg>
