<?xml version="1.0" encoding="utf-8"?>
<!-- Generator: Adobe Illustrator 21.1.0, SVG Export Plug-In . SVG Version: 6.00 Build 0)  -->
<svg version="1.1" id="Ca" xmlns="http://www.w3.org/2000/svg" xmlns:xlink="http://www.w3.org/1999/xlink" x="0px" y="0px"
	 viewBox="0 0 510.696 250.128" enable-background="new 0 0 510.696 250.128" xml:space="preserve">
<g>
	<path fill-rule="evenodd" clip-rule="evenodd" d="M494.28,250.128c-7.92-1.944-7.92-1.944-17.784-3.888
		c-11.016-1.656-22.032-3.312-33.1201-5.04c-4.3199,0-8.64,0-12.96,0c-2.304,0.288-4.608,0.648-6.912,1.008
		c-3.168,0.936-6.408,1.872-9.648,2.88c-3.312,0.792-6.696,1.584-10.08,2.376c-2.304-0.072-4.608-0.144-6.912-0.216
		c-4.752-0.648-9.576-1.296-14.4-1.944c-2.52-0.648-5.112-1.296-7.704-1.944c-5.976-0.792-11.952-1.584-18-2.376
		c-1.872,0-3.816,0-5.76,0c-2.088,0.432-4.176,0.936-6.264,1.44c-5.472,0.504-10.8,0.504-16.056,0.936
		c-2.088,0.288-4.176,0.648-6.264,1.008c-6.912,0-8.64-0.288-12.96-0.288c-1.08,0.288-2.16,0.648-3.312,1.008
		c-0.072,0.288-0.144,0.576-0.288,0.864c2.16,0.288,2.16,0.288,2.664,0.648c-1.08,0-2.232,0.072-3.384,0.144
		c-13.32-1.728-26.64-3.456-40.032-5.256c-1.8-0.648-3.672-1.296-5.544-1.944c-2.88-0.216-7.704,0.216-15.624,0
		c-1.8719,0.648-3.816,1.296-5.7599,1.944c-3.9601,0.576-7.92,1.224-11.952,1.872c-0.2881,0.216-0.648,0.432-1.0081,0.72
		c-3.312-0.216-3.312-0.216-16.776-2.16c-4.032-1.224-8.136-2.52-12.24-3.816c-5.76-0.936-5.76-0.936-14.616-1.944
		c-2.448-0.576-4.968-1.224-7.488-1.8719c-3.816-1.944-3.816-1.944-6.48-2.88c-8.64-1.944-9.792-2.448-14.832-3.384
		c-2.664-0.936-2.664-0.936-4.104-1.944c-4.32-0.576-8.64-1.224-12.96-1.872c-2.952-0.648-5.904-1.296-8.856-1.944
		c-0.072-0.216-0.144-0.504-0.288-0.792c-2.016,0-4.104,0-6.192,0.072c-2.376-0.288-4.752-0.576-7.2-0.936
		c-0.864-0.504-1.728-1.008-2.664-1.584c0-0.288-0.072-0.576-0.144-0.936c1.008,0,2.016-0.072,3.024-0.144
		c4.824,0.936,4.824,0.936,11.52,1.656c0.72-0.072,1.44-0.144,2.16-0.216c0.36-0.432,0.792-0.936,1.224-1.44
		c16.56,1.224,16.56,1.224,23.976,2.16c3.816,0.144,7.632,0.288,11.52,0.504c2.52,0.288,5.112,0.576,7.704,0.936
		c0.576,0.288,1.224,0.576,1.872,0.936c0.432,0.576,0.936,1.152,1.44,1.728c0.432,0.216,0.936,0.432,1.44,0.72
		c5.328,0.432,5.328,0.432,7.704,0.936c5.976-0.216,5.976-0.216,10.8-0.72c1.8-0.288,3.672-0.576,5.544-0.936
		c29.016-0.504,30.24-0.288,39.6-0.504c3.024-0.288,6.048-0.576,9.072-0.936c1.512-0.288,3.024-0.648,4.608-1.008
		c2.16-0.144,4.32-0.288,6.48-0.432c3.312-1.008,5.976-1.44,8.64-2.448c2.88,0,3.6,0.288,6.696,0.288
		c1.8-0.288,3.672-0.648,5.544-1.0081c0.6479-0.792,1.296-1.584,2.016-2.448c3.024-1.008,6.048-2.088,9.072-3.168
		c0-0.288,0.072-0.576,0.144-0.936c-1.08,0-2.16-0.072-3.312-0.144c-5.688,0.648-11.376,1.296-17.064,1.944
		c-11.088,0.504-22.176,1.08-33.336,1.656c-2.88-0.144-5.76-0.288-8.64-0.504c-3.888,1.008-3.888,1.008-5.688,1.872
		c-0.072,0.216-0.216,0.504-0.36,0.7921c-2.664-0.216-5.4-0.432-8.136-0.72c-3.888-0.72-7.776-1.44-11.736-2.16
		c-1.728,0.072-3.528,0.144-5.328,0.216c-0.504,0.144-1.08,0.288-1.656,0.504c-2.808-0.072-5.616-0.144-8.424-0.216
		c-1.44-0.288-2.88-0.648-4.32-1.008c-22.032-1.872-22.032-1.872-25.632-2.376c-3.456,0-6.912,0-10.368,0
		c-9.864,0.792-19.8,1.584-29.736,2.376c-3.96,0.576-7.992,1.152-12.024,1.728c-0.936,0-1.872,0-2.88,0
		c-3.168-0.936-6.336-1.872-9.576-2.88c-0.648-0.288-1.296-0.648-1.944-1.008c-2.16-0.576-4.32-1.224-6.48-1.872
		c-5.256-1.872-10.512-3.816-15.84-5.76c-7.416-3.888-7.416-3.888-8.856-4.32c-6.696-3.888-7.92-4.32-14.184-8.208
		c-7.92-7.632-16.272-16.272-23.976-23.472c-1.584-1.8-3.168-3.672-4.824-5.544c-0.504-0.288-1.08-0.576-1.656-0.936
		c-0.288-0.504-0.576-1.008-0.864-1.584c-2.016-2.016-4.032-4.104-6.12-6.192c-1.872-1.368-3.744-2.736-5.616-4.104
		c-1.08-1.224-2.232-2.52-3.384-3.816c-0.072-0.4319-0.144-0.936-0.216-1.44c0.576-0.864,1.224-1.728,1.872-2.664
		c1.44-0.936,1.44-0.936,6.048-5.0399c9.936-6.624,11.16-7.128,11.376-7.488c-1.8-2.592-2.304-3.816-3.24-4.968
		c-1.44-2.808-2.88-5.616-4.32-8.424c-1.224-0.432-2.448-0.864-3.672-1.368c-1.728,0-1.728,0-5.76-0.936
		c-0.432-0.216-0.864-0.504-1.368-0.792c0-0.288,0-0.648,0-1.008c1.08-0.576,1.584-1.296,3.528-2.304
		c2.16-1.872,2.16-1.872,7.92-5.76c2.16-1.224,4.32-2.52,6.48-3.816c1.224-0.432,2.52-0.936,3.816-1.44
		c2.232-1.224,4.464-2.52,6.696-3.816c8.928-3.888,14.4-5.76,16.56-6.768c5.328-1.872,5.328-1.872,12.528-3.816
		c1.584-0.648,3.168-1.296,4.752-1.944c12.24-2.88,14.904-3.816,16.848-4.032c0.072-0.072,0.144-0.216,0.216-0.36
		c0.648,0,1.296-0.072,1.944-0.144c0.288-0.216,0.576-0.432,0.936-0.72c1.44-0.432,2.88-0.936,4.32-1.44
		c1.44-0.144,2.88-0.288,4.32-0.504c0.504-0.432,2.376-0.72,2.664-1.08c0.432,0,0.936,0,1.44-0.072
		c0.216-0.144,0.432-0.288,0.72-0.504c4.32-0.216,4.536,0,5.256,0c0.36-0.144,0.792-0.288,1.224-0.504
		c8.136-0.432,8.136-0.432,8.352-0.72c2.448-0.432,4.608-0.432,6.768-0.936c2.376-0.288,4.752-0.576,7.2-0.936
		c0.864,0.072,1.728,0.144,2.592,0.216c1.728-0.504,7.704-0.936,7.92-1.224c4.608-0.432,4.608-0.432,6.048-0.936
		c2.016-0.072,4.104-0.144,6.192-0.216c0.288,0.144,0.648,0.288,1.008,0.432c1.224-0.144,2.52-0.288,3.816-0.432
		c2.448,0.144,4.896,0.288,7.416,0.432c2.376-0.072,4.752-0.144,7.2-0.216c4.032-2.952,8.136-5.904,12.24-8.856
		c1.512-0.648,3.024-1.296,4.608-1.944c1.944-1.08,3.96-2.232,5.976-3.384c3.096-0.936,7.704-2.88,9.36-3.312
		c1.44-1.008,2.88-1.44,4.536-2.448c1.656-0.576,3.312-1.224,5.04-1.872c1.872-0.936,3.816-1.8719,5.76-2.88
		c0-0.432,0.072-0.864,0.144-1.296c-0.504-1.44-0.504-1.44-0.72-3.888c0.432-0.864,0.936-1.728,1.44-2.592
		c0.792-0.504,2.52-0.864,3.456-1.368c3.096-0.432,6.192-0.936,9.36-1.44c8.928-0.216,17.928-0.432,26.928-0.72
		c6.696,0.216,7.416,0.504,22.752,0.936c3.168-0.144,6.408-0.288,9.648-0.432c2.376-1.944,2.376-1.944,4.32-4.104
		c1.152-1.512,2.304-3.096,3.456-4.68c0.144-0.504,0.288-1.0801,0.432-1.656c1.008-1.656,2.088-3.312,3.168-5.04
		c0-0.216,0-0.4319,0-0.72c-0.288-0.4319-0.648-0.9359-1.008-1.44c-0.432-2.88-0.432-2.88-0.432-5.256
		c0.432-0.7921,0.936-1.584,1.44-2.448c0.576-0.2881,1.152-0.576,1.8-0.864c0.936-0.072,1.872-0.144,2.88-0.216
		c0.288,0.288,0.576,0.576,0.936,0.936c0.36-0.0721,0.792-0.1441,1.224-0.216c1.368-1.368,2.736-2.7361,4.104-4.1041
		c4.032-1.872,4.032-1.872,7.416-2.8799c1.728,0.216,3.456,0.432,5.256,0.72c2.016,0.6479,4.032,1.296,6.048,1.944
		c4.32,1.944,4.32,1.944,5.76,2.88c1.8719,0.504,1.8719,0.504,3.6,1.44c1.44-0.216,1.44-0.216,1.872-0.504
		c4.536,0.5759,9.072,1.1519,13.68,1.728c3.312,0.576,6.696,1.224,10.08,1.872c0.504,0.504,3.6,1.4399,5.544,2.448
		c3.096,0.936,7.92,2.8799,15.336,5.256c0.72,0.504,6.768,2.376,15.408,5.76c2.376,0.5039,2.376,0.5039,7.632,2.376
		c7.92,3.888,12.96,6.768,15.408,7.704c3.312,1.944,5.472,2.88,11.52,6.696c0.576,0.432,1.224,0.936,1.872,1.44
		c2.664,1.008,2.664,1.008,7.92,3.888c0.36,0.36,0.792,0.72,1.224,1.152c0.72,0.288,1.44,0.648,2.16,1.008
		c0.504,0.504,1.08,1.008,1.656,1.512c0,0.864,0.072,1.728,0.144,2.664c-0.288,0.288-0.648,0.648-1.0081,1.008
		c-3.4559,0.7921-3.4559,0.7921-10.6559,1.656c-0.144,1.944,0.36,6.696,1.296,40.536c-0.432,9.36-0.432,9.36-0.216,13.68
		c1.152,0.72,2.304,1.512,3.528,2.304c3.96,1.872,7.92,3.8159,11.952,5.7599c1.0081,0.288,2.088,0.576,3.168,0.936
		c1.008,0.648,2.016,1.296,3.096,1.944c1.44,0.576,2.88,1.224,4.32,1.872c0.648,0,1.2961,0,1.944,0
		c0.864,0.648,1.7281,1.296,2.592,1.944c7.704,3.816,7.704,3.816,9.144,4.824c0.648,0.144,1.296,0.288,1.944,0.432
		c0.864,0.648,1.728,1.296,2.592,1.944c2.8799,3.096,2.8799,3.096,3.744,4.464c0.432,1.656,1.44,3.6,2.88,9.144
		c0.432,3.6,0.432,3.6,1.44,7.92c1.224,1.872,2.52,3.816,3.816,5.76c1.44,1.584,2.88,3.168,4.32,4.752
		c0.72,1.44,1.512,2.952,2.304,4.4641c2.16-0.216,4.32-0.432,6.4799-0.72c1.44,0.216,1.44,0.216,1.8,0.576c0,0.36,0,0.792,0,1.224
		c-0.6479,0.504-0.6479,0.504-2.304,0.792c-0.864,0-1.728,0-2.592,0c-2.2321,0.432-4.4641,0.936-6.768,1.44
		c-0.36,0.288-0.72,0.648-1.152,1.008c-2.16,0.432-4.32,0.936-6.48,1.44c-7.704,0.936-7.704,0.936-12.744,1.872
		c-0.648,0.288-1.296,0.648-1.944,1.008c-3.8161,0.936-4.7521,1.44-10.8,3.024c0,0.216,0,0.432,0,0.72
		c2.448,0,4.968-0.072,7.488-0.144c2.304-0.288,4.608-0.648,6.912-1.008c3.168-0.936,3.168-0.936,8.2079-1.872
		c3.312-0.288,3.312-0.288,4.032,0c13.4639,0.936,13.4639,0.936,15.84,1.44c0.216,0.144,0.432,0.36,0.72,0.576
		c0,0.288,0.072,0.648,0.144,1.008c-0.072,0.0721-0.216,0.144-0.3601,0.288c-1.944-0.216-3.9599-0.432-5.9759-0.72
		c-3.744-0.144-7.488-0.288-11.304-0.432c-1.944,0.216-3.96,0.432-5.9761,0.72c-7.4879,1.872-7.4879,1.872-10.7999,2.376
		c-4.248,0.072-8.496,0.144-12.744,0.216c-2.448-0.288-4.896-0.576-7.416-0.936c-2.304-0.648-4.6081-1.2961-6.984-1.944
		c-7.92-0.936-7.92-0.936-12.744-1.152c-3.816,0.432-5.472,0.936-8.136,1.152c-0.216-0.216-0.216-0.216-4.3199,0.504
		c-0.936,0.432-1.872,0.936-2.88,1.44c-0.72,0.072-1.44,0.144-2.16,0.216c-1.512,0.4319-3.024,0.9359-4.536,1.44
		c-1.944,0-1.944,0-3.888,0.504c-1.08-0.0721-2.16-0.144-3.312-0.216c-1.08-0.288-2.232-0.648-3.384-1.008
		c-3.024-0.288-6.048-0.576-9.144-0.936c-6.048,0.36-12.096,0.792-18.216,1.224c-3.6,0.936-7.2,1.872-10.8,2.88
		c-1.512,0.576-3.024,1.224-4.536,1.872c-0.864,0.144-1.728,0.288-2.664,0.504c-2.664,0.072-5.4,0.144-8.136,0.216
		c-2.16,0.504-7.704,1.008-9.648,1.44c-3.024,1.44-6.048,2.88-9.072,4.32c-2.664,1.944-2.664,1.944-13.968,8.64
		c-0.288,0.288-0.576,0.648-0.936,1.008c-3.816,1.872-4.32,2.376-8.424,4.3199c-0.864,0.72-1.728,1.44-2.592,2.16
		c-1.368,0.792-2.736,1.584-4.104,2.376c-1.8,0.288-3.672,0.576-5.544,0.936c-1.08,0.648-2.16,1.296-3.312,1.944
		c-2.304,0.792-4.608,1.584-6.984,2.376c-0.864,0.792-1.728,1.584-2.664,2.448c-1.8,0.216-3.6,0.432-5.472,0.72
		c-2.088-0.072-4.176-0.144-6.264-0.288c-3.384,0.792-6.84,1.584-10.296,2.448c-2.016,0.144-4.032,0.288-6.048,0.432
		c-1.44,0.288-2.88,0.648-4.32,1.008c-3.24,0.288-6.48,0.576-9.792,0.936c-8.424,0.216-10.368,0-28.8,0.216
		c-4.176,0.144-8.352,0.288-12.528,0.504c-5.04,0.936-5.04,0.936-10.08,1.368c0,0.216,0,0.432,0,0.72
		c0.936,0.072,1.872,0.144,2.88,0.288c0.792,0.288,1.584,0.648,2.448,1.008c0.792,0.72,1.584,1.44,2.376,2.16
		c0.648,0.288,1.296,0.576,1.944,0.936c1.584-0.072,3.168-0.144,4.752-0.216c1.008,0.216,2.088,0.432,3.168,0.72
		c1.656,0.936,1.656,0.936,7.632,2.88c0.792,0.144,1.584,0.288,2.448,0.4319c1.44-0.144,2.88-0.288,4.32-0.4319
		c0.288,0.36,0.576,0.72,0.936,1.152c1.008,0.144,2.016,0.288,3.096,0.504c1.512,0.6479,3.024,1.296,4.608,1.944
		c1.944,0.288,3.96,0.576,5.976,0.936c1.08-0.072,2.232-0.144,3.384-0.216c1.728-0.576,3.456-1.152,5.256-1.728
		c2.88-0.216,10.08,0,14.904-0.216c0.792,0.072,1.584,0.144,2.376,0.216c5.544,1.944,5.544,1.944,7.704,2.448
		c1.8,0.072,3.6,0.144,5.472,0.216c0.648-0.288,1.296-0.576,1.944-0.936c1.008,0,2.016,0,3.096,0
		c4.608-1.008,4.608-1.008,7.488-1.944c6.768-3.168,13.536-6.336,20.376-9.576c2.088-0.648,4.176-1.296,6.264-1.944
		c1.152-0.144,2.376-0.288,3.6-0.504c5.76,0.144,11.52,0.288,17.28,0.504c2.664-0.36,5.4-0.792,8.136-1.224
		c0.144,0.36,0.288,0.72,0.432,1.152c1.296-0.288,2.592-0.576,3.888-0.864c4.824-2.232,9.72-4.464,14.616-6.768
		c1.944-0.432,2.16-0.72,3.888-1.152c2.664-1.2961,5.4-2.592,8.136-3.888c6.264-1.872,6.264-1.872,10.584-2.88
		c2.52-0.072,5.04-0.144,7.632-0.216c2.52,0.144,5.112,0.288,7.704,0.504c5.904-0.144,11.808-0.288,17.784-0.504
		c2.736,0.072,5.544,0.144,8.352,0.216c6.048-0.936,10.08-1.872,11.088-1.872c2.376-0.72,4.752-1.44,7.2-2.16
		c0.432-0.504,0.432-0.504,2.88-1.44c2.232-0.432,4.464-0.936,6.696-1.44c0.72,0,1.44,0,2.16,0c0.216-0.144,0.432-0.288,0.72-0.504
		c3.312,0,6.696,0,10.08,0c4.104,0.72,4.104,0.72,5.544,1.224c4.608,0.36,9.216,0.72,13.8961,1.152
		c4.968-0.144,9.9359-0.288,14.904-0.432c0.36-0.144,0.7199-0.288,1.152-0.504c1.512-0.144,3.024-0.288,4.608-0.504
		c0.144-0.144,0.288-0.288,0.4319-0.432c0.576,0,1.152,0,1.728,0c0.2161,0.144,0.4321,0.36,0.72,0.576
		c-0.504,0.576-0.504,0.576-1.944,1.08c-2.304,0.36-4.608,0.792-6.984,1.224c-4.176,0.144-8.4241,0.288-12.672,0.432
		c-6.048-0.72-6.048-0.72-14.1841-1.152c-4.3199-1.008-4.3199-1.008-8.136-1.44c-2.5919-0.072-5.256-0.144-7.92-0.288
		c-2.088,0.216-4.176,0.432-6.264,0.72c-3.6,1.296-7.2,2.592-10.8,3.888c-3.96,0.936-7.992,1.872-12.024,2.88
		c-6.192,0.936-6.192,0.936-7.2,0.792c-0.072-0.288-0.144-0.576-0.216-0.936c-4.536,0.144-9.072,0.36-13.68,0.576
		c-6.696-0.072-13.392-0.144-20.16-0.216c-2.16,0.288-4.32,0.576-6.48,0.936c-5.976,1.944-5.976,1.944-10.8,3.888
		c-3.816,1.872-3.816,1.872-6.696,2.88c-0.936,0.144-1.872,0.288-2.88,0.432c-3.312,1.872-6.696,3.816-10.08,5.76
		c-2.448,0.792-4.968,1.584-7.488,2.448c-2.16,0.072-4.32,0.144-6.48,0.216c-0.216-0.288-0.4319-0.576-0.72-0.936
		c-7.416,0-12.24-0.288-19.1519-0.288c-2.376,0.648-4.752,1.296-7.2,1.944c-16.344,7.704-16.344,7.704-24.048,11.016
		c-1.224,0.36-2.52,0.72-3.816,1.152c0.0721,0.216,0.144,0.432,0.216,0.72c10.8,1.728,10.8,1.728,22.608,3.168
		c0.504,0,1.008,0,1.512-0.072c0.072-0.36,0.144-0.7921,0.216-1.224c0.648-0.2881,1.368-0.576,2.088-0.864
		c3.816-0.432,3.816-0.432,7.416-0.432c0.648-0.144,1.2961-0.288,1.944-0.504c2.16-0.072,4.32-0.144,6.48-0.216
		c2.376-0.648,4.752-1.296,7.2-1.944c6.48-0.504,6.48-0.504,8.424-0.936c0.864-0.576,1.728-1.152,2.592-1.728
		c0.864-0.072,1.728-0.144,2.664-0.216c1.728,0.4319,3.456,0.936,5.256,1.44c18.72,1.944,18.72,1.944,26.64,3.096
		c2.664,1.008,2.664,1.008,6.264,1.944c12.744,1.944,12.744,1.944,17.496,2.376c1.44-0.072,2.88-0.144,4.32-0.216
		c15.408-3.816,18.288-4.824,22.608-5.76c3.6-0.144,7.2-0.288,10.8-0.504c2.016,0.072,4.104,0.144,6.192,0.288
		c22.608,3.816,29.808,4.752,30.024,5.04c1.512,0.072,3.0239,0.144,4.536,0.216c0.36-1.08,0.36-1.08,0.72-1.44
		c1.944,0.216,4.824,1.224,11.088,2.16c2.5201,0.072,5.04,0.144,7.6321,0.216c1.296-0.144,2.592-0.288,3.888-0.432
		c3.0959,0,6.264,0.072,9.432,0.144c0,0.216,0,0.432,0,0.72c-0.5761,0.288-7.5601,0.288-12.312,0.792
		c-3.5281,0-7.056-0.072-10.5841-0.144c1.4401,0.648,7.2001,2.088,7.4161,2.448C494.784,250.128,494.784,250.128,494.28,250.128
		L494.28,250.128z M220.464,242.424c-2.736-0.288-5.472-0.576-8.208-0.936c-6.912-1.944-12.672-3.888-16.272-4.824
		c-13.464-1.944-13.464-1.944-18-2.88c-1.008-0.288-2.088-0.576-3.168-0.936c-1.584-0.792-3.168-1.584-4.752-2.448
		c-3.6-0.936-6.048-1.152-12.96-3.096c-1.584-0.288-3.168-0.576-4.824-0.936c-1.944-1.008-1.944-1.008-4.824-1.944
		c-2.664-0.288-5.4-0.576-8.136-0.936c-2.664-0.576-5.4-1.152-8.136-1.8c0.144-0.288,0.288-0.576,0.432-0.864
		c1.728-0.144,3.528-0.288,5.328-0.504c2.016,0.432,4.104,0.936,6.192,1.44c3.024,0,6.048,0,9.144,0
		c0.144,0.144,0.288,0.288,0.504,0.504c3.744-0.072,7.488-0.144,11.232-0.216c2.232,0.288,4.464,0.576,6.768,0.936
		c1.656,0.936,3.816,2.88,5.04,3.384c2.016,0.144,4.104,0.288,6.192,0.432c0.288,0.288,0.648,0.648,1.008,1.008
		c0.504,0.072,1.08,0.144,1.656,0.216c0.864,0.432,1.728,0.936,2.664,1.44c1.44,0.288,2.88,0.576,4.32,0.936
		c2.592,1.944,2.592,1.944,5.256,3.384c1.944,0.072,3.96,0.144,5.976,0.216c1.728,0.504,1.728,0.504,3.384,1.44
		c2.952,0.792,5.904,1.584,8.856,2.448c1.008,0,2.088,0,3.168,0.072c0.432,0.36,0.432,0.36,4.32,0.864
		c5.04,1.944,5.04,1.944,5.976,2.664C227.376,241.92,227.376,241.92,220.464,242.424L220.464,242.424z M338.544,241.632
		c0.072-0.216,0.144-0.432,0.216-0.72c0.864-0.576,1.728-1.224,2.664-1.872c0.576-0.072,1.224-0.144,1.872-0.216
		c1.368,0.432,2.736,0.864,4.104,1.296c-0.216,0.36-0.216,0.36-2.16,0.864C343.008,241.2,340.776,241.416,338.544,241.632
		L338.544,241.632z M202.464,211.464c-2.88-0.504-2.88-0.504-16.344-1.44c-26.136-0.936-27.144-1.224-38.16-1.44
		c-2.448,0.144-4.896,0.288-7.416,0.504c-0.288-0.144-0.648-0.288-1.008-0.504c-26.64-3.816-28.296-4.32-35.28-5.256
		c-7.776-1.584-15.624-3.168-23.472-4.824c-6.048-1.944-8.64-2.376-22.104-6.12c0-0.216,0-0.432,0-0.72
		c4.32,0.864,8.64,1.8,12.96,2.736c6.984,1.008,6.984,1.008,11.52,1.944c1.224,0.504,1.224,0.504,6.984,1.44
		c1.224,0.072,2.52,0.144,3.816,0.216c2.088,0.648,4.176,1.296,6.264,1.944c2.88,0.288,5.76,0.576,8.64,0.936
		c1.44,0.288,2.88,0.648,4.32,1.008c4.032,0.288,8.136,0.576,12.24,0.936c3.96,0.648,7.92,1.296,11.952,1.944
		c2.088,0.144,4.176,0.288,6.264,0.432c5.544,1.008,5.544,1.008,9.864,1.44c2.592,0,3.312,0.288,8.856,0.288
		c0.792,0.216,1.584,0.432,2.376,0.72c12.888,0.216,25.776,0.432,38.664,0.72c0.936-0.288,18.216-0.72,18.936-1.008
		c7.488-0.432,8.208-0.72,18.72-1.152c1.008-0.144,2.088-0.288,3.168-0.504c18.936-0.936,18.936-0.936,36.72-2.376
		c0.72-0.288,0.72-0.288,19.44-2.16c4.104-0.72,8.28-1.44,12.456-2.16c1.152,0,2.376,0,3.6,0.072
		c-0.4319,0.36-0.9359,0.72-1.44,1.08c-6.912,1.296-13.896,2.592-20.88,3.888c-4.32,0.576-8.64,1.224-12.96,1.872
		c-31.896,2.664-34.776,3.168-42.48,3.6c-5.544,1.008-5.544,1.008-11.016,1.44C222.336,210.96,220.176,211.248,202.464,211.464
		L202.464,211.464z M185.904,205.488c-6.12-0.144-12.312-0.288-18.504-0.504c-0.72-0.144-1.44-0.288-2.16-0.504
		c-13.464-0.936-13.464-0.936-21.816-1.872c-1.944-0.504-1.944-0.504-12.24-1.44c-1.224-0.504-1.224-0.504-7.704-1.44
		c-2.808-0.144-5.616-0.288-8.424-0.504c-5.256-0.7921-10.512-1.584-15.84-2.376c-1.8-0.432-3.6-0.936-5.472-1.44
		c-5.04-0.504-5.04-0.504-9.864-1.44c-0.288-0.144-0.576-0.288-0.936-0.504c-30.528-5.976-30.528-5.976-31.68-6.48
		c-1.8-0.36-3.672-0.792-5.544-1.224c-0.648,0-1.296,0-1.944,0c-8.64-8.64-11.016-11.52-12.456-12.6
		c-6.984-6.84-7.416-7.56-8.64-8.64c-0.072-0.36-0.144-0.72-0.216-1.152c1.656,0.0721,1.656,0.0721,5.472,1.08
		c2.448,0,6.48,0.72,12.528,1.152c11.232,1.944,11.232,1.944,19.872,3.888c15.408,1.872,17.28,2.376,31.968,4.32
		c9.576,0.936,12.456,1.44,22.752,2.16c47.088,0.216,53.568,0.432,71.28,0.216c15.12-0.72,27.144-0.936,46.08-1.944
		c11.088-0.936,11.088-0.936,37.728-2.592c2.592-0.504,16.992-1.44,25.2-2.448c1.152,0,2.376,0,3.6,0
		c3.6-0.936,3.6-0.936,4.536-1.44c4.392-0.36,8.784-0.72,13.176-1.152c14.184-1.944,24.48-2.88,27.36-3.384
		c3.672-0.2881,7.344-0.576,11.088-0.936c6.192-1.008,14.832-1.944,16.992-2.448c0.288-0.216,0.648-0.432,1.008-0.72
		c8.352-0.936,12.672-1.152,14.616-1.656c3.096-0.216,4.104-0.504,10.08-0.936c0.936-0.288,24.48-2.16,32.616-3.168
		c2.088-0.144,4.176-0.288,6.264-0.432c1.872-0.288,3.816-0.648,5.76-1.008c12.24-0.936,12.24-0.936,27.3599-2.592
		c0.504-0.288,0.504-0.288,18-1.008c0.3601,0.432,1.2961,4.752,2.2321,6.912c2.52,3.24,5.112,6.4799,7.7039,9.792
		c-0.2159,1.008-0.2159,1.008-1.08,2.016c-4.032,0.648-8.136,1.296-12.24,1.944c-4.392,0.432-8.784,0.936-13.176,1.44
		c-1.224,0.432-2.52,0.936-3.816,1.44c-4.464,0.648-8.928,1.296-13.464,1.944c-3.096,0.576-6.192,1.224-9.36,1.872
		c-2.16,0-3.384,0.288-12.456,0c-1.296,0.288-2.592,0.648-3.888,1.008c-0.504-0.072-1.08-0.144-1.656-0.288
		c-3.384,0.72-3.6,1.008-6.264,1.44c-0.216,0.288-0.216,0.288-6.912,2.16c-5.04,1.008-5.04,1.008-6.48,1.008
		c-1.44-0.504-1.44-0.504-10.8-1.944c-2.52-0.072-5.112-0.144-7.704-0.216c-3.816,0.288-7.632,0.576-11.52,0.936
		c-1.872,0.288-3.816,0.576-5.76,0.936c-4.464,1.44-8.9279,2.88-13.464,4.32c-4.032,0-4.032,0-10.512,0.504
		c-2.16,0.504-2.16,0.504-6.768,0.936c-5.04,1.944-5.04,1.944-10.8,4.824c-1.296,0.936-2.664,1.872-4.032,2.88
		c-4.104,0.504-8.208,1.44-27.864,4.32c-10.584,0.936-10.584,0.936-18.72,2.16c-6.264,0.216-6.984,0.504-37.944,2.376
		c-0.72,0.288-0.72,0.288-13.176,0.72c-0.216,0.144-0.432,0.288-0.72,0.504c-4.536,0.216-7.2,0.72-14.184,0.936
		c-4.536-0.216-4.536-0.216-8.352,0C203.4,205.488,192.6,205.2,185.904,205.488L185.904,205.488z M132.624,174.24
		c-23.544-0.936-23.544-0.936-28.8-1.44c-0.936-0.216-1.872-0.504-2.88-0.792c1.44-1.08,1.44-1.08,1.728-1.656
		c0-0.288,0-0.648,0-1.008c-0.648-0.432-1.296-0.864-2.016-1.296c-3.024-0.288-6.048-0.648-9.072-1.008
		c-5.04,0.288-5.04,0.288-6.264,0.72c-0.36,0.432-0.36,0.432-0.36,1.584c0.144,0.144,0.288,0.288,0.432,0.504
		c-0.144,0.216-0.36,0.432-0.576,0.72c-9-1.224-18-2.448-27.072-3.744c-2.88-0.648-5.76-1.296-8.64-1.944
		c-3.456-0.504-6.912-1.08-10.368-1.656c-1.296-0.0721-2.664-0.144-4.032-0.216c-1.44-0.504-1.44-0.504-9.36-1.44
		c-3.168-1.008-3.168-1.008-4.32-1.08c0-0.648-0.072-1.296-0.144-1.944c-1.08-1.44-1.944-1.872-6.048-6.192
		c0-0.216,0-0.432-0.072-0.72c1.728,0.072,3.456,0.144,5.256,0.288c5.184,1.296,10.368,2.592,15.624,3.888
		c17.496,2.592,17.784,2.88,20.376,3.312c1.944,0,3.6,0.504,21.6,2.88c2.808,0.432,5.616,0.936,8.424,1.44
		c9.144,0.36,18.36,0.792,27.576,1.224c14.688-0.216,22.104,0,27.36-0.216c1.008-0.288,1.008-0.288,48.528-0.72
		c16.128-0.936,32.256-1.872,48.456-2.88c11.52-1.44,17.784-1.944,20.88-2.448c10.08-0.936,10.08-0.936,13.176-1.44
		c9.36-0.432,18-1.152,25.488-1.44c0.864-0.144,1.728-0.288,2.5919-0.432c2.16,0,4.32,0,6.48,0c0.072,0.072,0.144,0.216,0.288,0.36
		c-1.224,2.448-2.448,4.896-3.744,7.416c0.216,1.224,0.216,1.224,0.72,1.728c-0.288,0.432-0.288,0.432-1.296,0.7921
		c-0.792,0.072-1.584,0.144-2.448,0.216c-0.36,0.288-0.72,0.648-1.1519,1.008c-0.648,0.144-1.296,0.288-1.944,0.432
		c-2.16,0-4.32,0-6.48,0c-0.504,0.144-1.08,0.288-1.656,0.504c-14.688,1.224-19.944,1.944-27.864,2.376
		c-0.504,0.288-0.504,0.288-3.816,0.72c-12.528,0.72-12.528,0.72-14.688,0.504c-3.744,0.288-7.4879,0.576-11.232,0.936
		c-6.552,0.216-13.104,0.432-19.728,0.648c0.216-0.72,0.864-1.224,1.296-2.376c0-0.36,0-0.792,0-1.224
		c-0.504-0.288-1.008-0.576-1.512-0.864c-0.936-0.144-1.872-0.288-2.88-0.504c-2.232,0.216-4.464,0.432-6.696,0.72
		c-1.08,0.432-2.232,0.936-3.384,1.44c-0.144,0.288-0.288,0.576-0.504,0.864c0.072,0.36,0.216,0.792,0.36,1.224
		c0.216,0.144,0.432,0.288,0.72,0.504c0,0.144,0,0.36-0.072,0.576c-8.928,0.432-8.928,0.432-9.864,0.72
		c-19.944,0.432-28.8,0.216-30.024,0.432C141.696,174.024,141.696,174.024,132.624,174.24L132.624,174.24z M304.92,165.312
		c0.072-0.216,0.144-0.432,0.216-0.72c2.448-0.864,2.448-0.864,6.984-1.8719c3.6-0.432,3.816-0.72,40.104-5.04
		c0.36-0.288,0.72-0.576,1.1519-0.936c0.7921-1.8,1.656-3.6,2.52-5.4c0-0.576,0-1.224,0-1.872c-0.144-0.144-0.288-0.288-0.504-0.504
		c-0.72,0-1.44,0-2.2321,0c0.0721-0.288,0.144-0.576,0.216-0.864c2.0161-0.288,4.032-0.576,6.048-0.936c3.816,0,3.816,0,10.08-0.504
		c2.952-0.432,5.904-0.936,8.856-1.44c7.92-0.7921,15.84-1.584,23.76-2.376c1.944-0.288,3.96-0.648,5.976-1.008
		c4.104,0,4.104,0,16.848-0.936c1.8-0.288,3.6-0.576,5.472-0.936c11.736-0.72,23.472-1.44,35.28-2.16
		c3.672-0.36,7.3441-0.792,11.088-1.224c0.288-0.144,0.576-0.288,0.936-0.504c0-0.216,0-0.504,0.072-0.792
		c-1.224,0-2.448-0.072-3.6721-0.144c-8.3519,0.432-16.7759,0.936-25.1999,1.44c-0.72,0.144-1.44,0.288-2.16,0.504
		c-4.32,0-4.32,0-17.784,0.936c-2.16,0.288-4.32,0.576-6.48,0.936c-6.624,0.432-13.248,0.936-19.8719,1.44
		c-15.84,1.944-18,1.944-31.68,3.6c-0.2881,0.144-0.648,0.288-1.0081,0.504c-4.1039,0.216-8.28,0.4319-12.456,0.72
		c-10.8,1.944-15.336,2.376-23.544,3.744c1.8-7.2,2.304-8.136,4.1761-15.12c0.288-0.432,0.648-0.936,1.008-1.44
		c0.432-2.16,0.432-2.16,0.72-8.136c0.36-1.8,0.72-3.672,1.152-5.544c0.288-0.648,0.648-1.2961,1.008-1.944
		c0.432-2.16,0.432-2.16,3.96-11.7361c4.68-1.224,9.432-2.448,14.184-3.744c0.936-0.072,1.872-0.144,2.88-0.216
		c2.16-1.008,2.16-1.008,3.312-1.944c0.288-0.432,0.576-0.864,0.864-1.296c0.072-1.656,0.144-3.312,0.216-5.04
		c2.88-21.384,3.096-25.2,3.384-25.92c0.144-1.872,0.288-3.816,0.432-5.76c1.44-7.92,1.44-7.92,1.872-8.784
		c0.216,0,0.432,0,0.72-0.072c0.288,1.44,0.288,1.44,0.576,1.656c0,2.376-1.008,8.64-1.944,22.104c0,1.008,0,2.016,0,3.096
		c-1.944,11.304-1.944,11.304-2.88,19.224c-0.144,0.288-0.288,0.576-0.504,0.936c-0.936,6.624-1.872,13.248-2.88,19.944
		c-0.216,9.072-0.216,9.072,0,17.712c0.288,1.728,0.288,1.728,0.72,2.664c0.36,0,0.72,0,1.152,0.072
		c0.216-0.144,0.432-0.36,0.72-0.576c0.288-4.32,0.072-9.36,0.288-11.52c3.888-11.232,4.608-12.456,8.424-23.976
		c1.224-4.68,2.5201-9.432,3.816-14.184c1.008-2.376,1.944-5.7599,6.768-17.712c0.36-1.584,0.72-3.168,1.152-4.8239
		c0.288-0.288,0.6479-0.576,1.008-0.936c1.872-9.36,1.872-9.36,2.304-10.512c1.296,0,2.592,0.072,3.888,0.144
		c0.072,0.216,0.144,0.432,0.288,0.72c-0.216,2.52-0.432,5.112-0.72,7.704c-3.888,24.696-4.824,29.016-5.04,31.896
		c0.288,0.36,0.576,0.792,0.936,1.224c0.504,0.072,1.008,0.216,1.584,0.36c2.952,0,5.904,0,8.856,0
		c0.576-0.144,1.152-0.288,1.728-0.504c5.976,0,5.976,0,13.176-0.504c1.656-0.288,3.312-0.576,5.04-0.936
		c4.3199-0.216,4.3199-0.216,6.264-0.72c1.224-0.144,2.52-0.288,3.816-0.504c1.944-0.936,1.944-0.936,2.664-0.936
		c0.144,0.144,0.288,0.288,0.432,0.504c0.648,0,1.296-0.072,1.944-0.144c-0.144,12.744-0.144,12.744-0.648,21.888
		c0.288,1.08,0.648,2.16,1.008,3.312c0.936,1.224,7.2,13.968,7.56,14.256c3.096-0.072,6.192-0.144,9.36-0.216
		c0.648-0.144,1.296-0.288,1.944-0.504c7.92-0.432,11.016-0.936,21.816-1.44c1.44,0.936,2.88,1.872,4.32,2.88
		c0.648,0.792,1.296,1.584,1.944,2.448c0.864,2.592,1.8,5.184,2.736,7.776c0,0.36-0.072,0.72-0.144,1.08
		c-3.312,0.504-3.312,0.504-17.4961,1.44c-5.3279,0.6479-10.6559,1.296-16.0559,1.944c-2.52,0.144-5.112,0.288-7.704,0.432
		c-7.416,1.008-7.416,1.008-15.12,1.584c0.072-0.36,0.216-0.72,0.36-1.152c0-2.304,0-4.608,0-6.984
		c-0.504-0.504-0.504-0.504-1.584-0.648c-28.8,3.384-28.8,3.384-45.576,5.76c-0.504,0.432-1.008,0.864-1.584,1.368
		c-0.432,2.16-0.936,4.32-1.44,6.48c-0.792,0.36-9.432,1.296-11.592,1.8c-0.36,0.216-0.792,0.432-1.224,0.72
		c-1.8,0.144-3.672,0.288-5.544,0.432c-3.672,0.648-7.344,1.296-11.016,1.944c-7.2,0.648-14.4,1.296-21.6,1.944
		C321.768,163.296,313.344,164.304,304.92,165.312L304.92,165.312z M109.296,162.72c-11.52-0.936-18.72-1.152-27.072-1.872
		c-19.224-3.384-20.88-3.384-21.168-3.6c-1.872,0-23.976-3.384-25.056-3.744c0-0.72,0-0.72,0.72-2.376
		c-3.888-7.416-7.704-13.896-11.088-20.664c0-0.432,0.072-0.936,0.144-1.44c2.304-1.512,4.608-3.096,6.984-4.68
		c2.808-1.224,5.616-2.52,8.424-3.816c12.672,1.656,12.672,1.656,22.32,2.592c0.936,1.224,2.736,5.184,5.616,10.512
		c1.728,3.672,3.456,7.344,5.256,11.016c0.648,1.008,1.296,2.0161,1.944,3.096c0.288,0.792,0.576,1.584,0.936,2.448
		c1.944,3.096,1.944,3.096,2.808,3.888c0.72,0,0.72,0,1.152-0.432c0-0.432,0.072-0.864,0.144-1.296
		c-2.52-4.608-5.112-9.288-7.704-13.968c-1.08-2.4481-2.232-4.8961-3.384-7.416c-0.144-0.792-0.288-1.584-0.432-2.376
		c-0.864-1.368-1.728-2.736-2.664-4.104c0-0.288,0.072-0.576,0.144-0.864c1.872,0.072,3.816,0.144,5.76,0.216
		c2.16,0.504,5.04,0.72,6.48,1.224c23.544,2.376,23.544,2.376,25.704,2.88c2.664,0.144,5.4,0.288,8.136,0.504
		c7.56,14.0399,8.496,16.2,12.312,22.68c0.648,0.792,1.296,1.584,1.944,2.376c0.288,0.6479,0.576,1.296,0.936,1.944
		c0.432,0.288,0.864,0.576,1.368,0.936c0.144-0.144,0.36-0.288,0.576-0.432c0.072-0.36,0.144-0.792,0.216-1.224
		c-0.936-1.656-2.88-3.816-6.696-10.08c-1.872-3.6-3.816-7.2-5.76-10.8c-0.936-2.664-1.944-4.32-2.016-5.256
		c1.008,0,2.016-0.072,3.096-0.144c3.816,0.36,7.632,0.72,11.52,1.152c1.8,0,3.672,0,5.544,0c9.504,0.864,19.008,1.728,28.584,2.664
		c1.368,2.736,2.736,5.472,4.176,8.28c0.288,1.008,0.576,2.088,0.936,3.168c1.224,2.448,2.52,4.8961,3.816,7.416
		c0.576,0.792,1.224,1.656,1.872,2.52c0.936,0,0.936,0,1.296-0.36c-0.072-0.432-0.144-0.936-0.288-1.44
		c-1.224-2.088-2.52-4.176-3.816-6.264c-1.224-2.88-2.52-5.76-3.816-8.64c-0.144-1.08-0.288-2.16-0.504-3.312
		c-0.504-0.504-0.504-0.504-0.792-1.44c1.656,0.072,3.312,0.144,5.04,0.288c2.16,0.648,4.32,1.296,6.48,1.944
		c5.976,0.504,10.296,0.504,19.152,1.224c9.648-0.504,9.648-0.504,16.56-0.504c0.288,0.432,0.648,0.864,1.008,1.2961
		c0.576,1.728,1.152,3.528,1.728,5.3279c3.888,8.856,3.888,8.856,6.624,14.256c0.2881,0,0.648,0,1.0081,0
		c0.4319-0.576,0.4319-0.576,0.576-1.8c-0.648-1.008-1.296-2.0161-1.944-3.096c-1.224-2.664-2.52-5.4-3.816-8.136
		c-2.448-6.9839-2.448-6.9839-2.52-7.92c2.952-0.216,5.904-0.432,8.856-0.648c7.632-0.144,15.336-0.288,23.04-0.504
		c0.288,0.144,0.648,0.288,1.008,0.504c2.16,2.376,2.16,2.376,3.816,3.6c1.656,0.288,3.312,0.576,5.04,0.936
		c0.288,0.432,0.576,0.864,0.936,1.368c1.2241,3.0959,2.4481,6.192,3.744,9.36c0.432,0.792,0.936,1.584,1.44,2.376
		c0.432,0,0.864,0.072,1.296,0.144c0.072-0.072,0.216-0.216,0.36-0.36c-0.072-0.648-0.144-1.296-0.216-1.944
		c-0.288-0.432-0.648-0.936-1.008-1.44c-0.936-2.304-1.872-4.608-2.88-6.912c-0.072-0.936-0.144-1.872-0.216-2.88
		c1.296-0.288,2.592-0.576,3.96-0.864c23.328-1.944,26.208-2.448,31.968-2.664c1.512,5.112,3.024,10.2961,4.608,15.48
		c0.432,0.36,0.432,0.36,1.368,0.36c0.36-0.36,0.36-0.36,0.36-1.8c-0.288-0.216-1.224-3.816-1.728-4.536
		c-1.872-6.9839-1.872-6.9839-2.232-9.576c9.576-0.864,13.464-0.864,26.64-1.584c1.944-0.504,1.944-0.504,6.696-0.864
		c-2.304,8.928-2.304,8.928-2.736,11.808c-0.648,1.584-1.296,3.168-1.944,4.752c-1.296,0.36-2.952,0.36-4.392,0.864
		c-4.824,0.432-5.328,0.72-26.424,2.592c-0.648,0.144-1.296,0.288-1.944,0.504c-1.944,0.072-3.96,0.144-5.976,0.216
		c-0.504,0.144-1.08,0.288-1.656,0.504c-3.6,0-3.6,0-15.624,0.72c-14.904,1.656-14.904,1.656-16.56,2.16
		c-3.6,0.504-16.776,1.44-23.04,2.16c-14.688,0.864-29.376,1.728-44.136,2.664c-11.304-0.288-11.304-0.288-12.024,0
		c-20.376,0.216-21.384,0.432-31.68,0.432C123.696,162.72,123.696,162.72,109.296,162.72L109.296,162.72z M307.584,160.848
		c0-0.288-0.072-0.576-0.144-0.864c0.936-1.872,0.936-1.872,1.8-2.736c0.216,0,0.432-0.072,0.72-0.144
		c-0.216,0.36-0.432,0.792-0.648,1.224c0,0.72,0,1.4399,0,2.1599C308.52,160.848,308.52,160.848,307.584,160.848L307.584,160.848z
		 M310.896,159.7679c0.576-0.936,1.152-1.872,1.728-2.8799c0.36,0,0.72,0,1.152,0c-0.288,0.432-0.576,0.936-0.936,1.44
		C312.192,158.76,311.544,159.264,310.896,159.7679L310.896,159.7679z M315.216,159.552c0.864-2.448,0.864-2.448,1.224-2.808
		c0.432,0,0.936,0,1.44-0.072c-0.432,0.864-0.864,1.728-1.368,2.592C316.08,159.336,315.648,159.408,315.216,159.552
		L315.216,159.552z M320.256,158.832c0.36-1.44,0.36-1.44,0.864-2.16c0.432,0,0.864-0.072,1.296-0.144
		c0.072,0.072,0.144,0.216,0.288,0.36c-0.432,0.576-0.936,1.152-1.44,1.8C320.976,158.688,320.616,158.76,320.256,158.832
		L320.256,158.832z M324.864,158.4c0-0.432-0.072-0.864-0.144-1.296c0.936-1.152,0.936-1.152,1.8-1.584c0.504,0,1.08,0,1.656-0.072
		c-0.072,0.504-0.216,1.08-0.36,1.656c-0.216,0.36-0.504,0.72-0.792,1.08C326.304,158.256,325.584,158.328,324.864,158.4
		L324.864,158.4z M333.936,157.392c0.144-0.864,0.36-1.728,0.576-2.664c0.6479-0.36,0.6479-0.36,2.088-0.504
		c-0.864,2.448-0.864,2.448-1.368,2.88C334.8,157.176,334.368,157.248,333.936,157.392L333.936,157.392z M330.12,157.104
		c0.072-1.44,0.072-1.44,0.504-2.016c1.152,0,1.152,0,1.44,0.36c-0.288,0.432-0.648,0.864-1.008,1.296
		C330.768,156.816,330.48,156.96,330.12,157.104L330.12,157.104z M345.24,156.024c0-0.36-0.072-0.72-0.144-1.08
		c0.504-0.72,1.008-1.44,1.584-2.16c0.648-0.0721,1.296-0.144,1.944-0.216c-0.144,0.72-0.144,0.72-1.584,3.096
		C346.464,155.736,345.888,155.88,345.24,156.024L345.24,156.024z M349.776,155.448c0.36-0.936,0.36-0.936,1.296-1.944
		c0.36,0,0.72,0,1.152,0c-0.432,1.224-0.432,1.224-1.008,1.728C350.784,155.304,350.28,155.3759,349.776,155.448L349.776,155.448z
		 M320.544,153.6479c-0.072-0.072-0.144-0.216-0.288-0.36c0.576-0.216,1.152-0.432,1.728-0.648c4.032-0.432,6.192-0.936,8.64-0.936
		c-1.008,0.504-1.008,0.504-5.328,1.44C323.712,153.288,322.128,153.4319,320.544,153.6479L320.544,153.6479z M33.48,152.9279
		c-4.032-0.936-8.136-1.872-12.24-2.88c-6.264-1.008-10.8-1.44-11.016-1.728c-1.728-0.288-3.528-0.576-5.328-0.936
		c-0.576-0.648-1.152-1.2961-1.8-2.0161c0.072-0.36,0.144-0.792,0.216-1.224c4.32-3.8159,4.32-3.8159,9.288-7.632
		c2.952-1.8,5.904-3.6,8.856-5.472c0.432,0,0.936,0,1.44,0c1.008,1.44,1.008,1.44,4.68,8.784c0.936,1.44,1.872,2.88,2.88,4.32
		c1.368,2.88,2.736,5.76,4.104,8.64C34.2,152.784,33.84,152.856,33.48,152.9279L33.48,152.9279z M405.216,150.7679
		c-0.072-0.288-0.216-0.576-0.36-0.864c0.504-0.72,0.504-0.72,0.864-2.304c3.24-0.432,6.5519-0.936,9.864-1.44
		c7.2-0.432,7.2-0.432,9.792-0.936c0.936,0.072,1.872,0.216,2.88,0.36c0.36,0.72,0.36,0.72,0.36,1.944
		c-0.144,0.144-0.36,0.288-0.576,0.504c-1.8,0.432-3.672,0.864-5.544,1.2961C415.08,149.76,415.08,149.76,405.216,150.7679
		L405.216,150.7679z M10.224,144.288C9,143.784,9,143.784,8.496,143.2079c0-0.288-0.072-0.576-0.144-0.936
		c0.432-0.288,0.864-0.648,1.368-1.008c4.32-1.8,4.32-1.8,9.36-3.24c3.816-0.504,3.816-0.504,5.976-0.504
		c0.144,0.216,0.36,0.432,0.576,0.648c0,0.648,0,1.296,0,1.944c-0.72,0.576-1.44,1.224-2.232,1.872
		c-1.656,0.36-1.656,0.36-4.824,0.36C10.944,144.288,10.944,144.288,10.224,144.288L10.224,144.288z M256.68,135.864
		c-0.648-0.432-1.296-0.936-1.944-1.44c0-0.216-0.072-0.504-0.144-0.792c0.216-0.144,0.432-0.288,0.648-0.432
		c1.944,0.288,1.944,0.288,2.52,0.648c0.072,0.648,0.144,1.296,0.216,1.944C257.544,135.792,257.112,135.792,256.68,135.864
		L256.68,135.864z M261.216,135.864c-0.4319-0.72-0.4319-0.72-0.576-2.016c0.864-0.072,1.8-0.216,2.736-0.36
		c4.464,0.072,8.928,0.144,13.464,0.216c-0.216,0.144-0.432,0.288-0.72,0.504C265.824,135.144,265.824,135.144,261.216,135.864
		L261.216,135.864z M44.064,135.144c-0.432-0.216-0.864-0.504-1.368-0.792c-0.072-0.36-0.144-0.792-0.216-1.224
		c0.144-0.216,0.36-0.432,0.576-0.72c2.448-0.864,2.448-0.864,5.328-1.368c1.08-0.072,2.16-0.144,3.312-0.216
		c0.144,0.144,0.288,0.288,0.504,0.504c0,0.432,0,0.864,0.072,1.296c-0.144,0.144-0.288,0.288-0.432,0.504
		c-3.024,0.792-3.024,0.792-6.12,2.016C45.216,135.144,44.64,135.144,44.064,135.144L44.064,135.144z M277.344,134.064
		c0.072-0.0721,0.144-0.216,0.216-0.36c1.008,0,2.016,0,3.096,0c-0.144,0.144-0.288,0.288-0.4319,0.504
		C279.288,134.2079,278.352,134.136,277.344,134.064L277.344,134.064z M210.384,131.904c0.072-0.288,0.144-0.576,0.288-0.936
		c1.512-0.936,3.024-1.872,4.608-2.88c0.72-0.6479,1.44-1.296,2.232-1.944c17.784-10.44,17.784-10.44,19.944-11.376
		c0.936-0.792,1.872-1.584,2.88-2.448c2.232-0.072,4.464-0.144,6.768-0.216c0.072,0.288,0.144,0.576,0.288,0.864
		c-2.232,1.296-2.232,1.296-7.776,5.4c-11.232,6.696-11.232,6.696-18.432,10.512c-2.448,1.008-2.448,1.008-3.528,1.872
		c-0.144,0.288-0.288,0.576-0.504,0.936C214.92,131.76,212.688,131.832,210.384,131.904L210.384,131.904z M261.216,131.76
		c-2.232-0.144-4.464-0.36-6.696-0.576c0.216-2.52,0.504-5.04,0.792-7.632c1.008-3.888,1.008-3.888,1.44-7.2
		c0.432-1.44,0.936-2.88,1.44-4.32c0.432-0.144,0.864-0.288,1.368-0.432c9.72-0.72,19.512-1.44,29.304-2.16
		c0.216,0.288,5.76,0,9.36,0.144c-0.648,5.112-1.368,10.224-2.088,15.408c-0.648,2.16-1.296,4.32-1.944,6.48
		c-1.008,0.288-3.168,0.072-21.888,0.288C263.88,131.544,263.88,131.544,261.216,131.76L261.216,131.76z M181.08,131.544
		c-0.648-0.072-1.296-0.216-1.944-0.36c0-0.288-0.072-0.576-0.144-0.936c4.104-2.52,8.208-5.04,12.384-7.56
		c3.744-1.872,7.488-3.816,11.304-5.76c1.152-0.792,2.376-1.584,3.6-2.448c0.432-0.144,0.936-0.288,1.44-0.432
		c2.592-1.584,5.256-3.168,7.92-4.8239c0.072-0.216,0.216-0.504,0.36-0.7921c1.08-0.144,3.456,0.2881,4.896,0
		c0,0.216,0,0.432,0,0.72c2.88,0.2881,2.88,0.2881,3.6,0.648c-0.144,0.216-0.288,0.432-0.4319,0.648
		c-1.296,0.576-2.592,1.224-3.888,1.872c-0.72,0.648-1.44,1.296-2.16,1.944c-1.44,0.504-3.816,1.944-5.04,2.376
		c-0.216,0.288-5.04,2.16-8.352,4.104c-7.92,3.816-9.36,4.824-20.448,10.08C183.168,131.04,182.16,131.256,181.08,131.544
		L181.08,131.544z M301.824,131.328c-0.792-0.144-1.584-0.288-2.448-0.504c-0.144-1.08,1.2961-11.376,1.584-12.096
		c0.288-2.5201,0.576-5.112,0.936-7.704c0.576-1.44,0.576-1.44,1.08-1.8c2.952-0.0721,5.904-0.144,8.928-0.216
		c3.312-0.504,3.312-0.504,8.856-0.72c0.072,2.304,0.072,2.304-0.36,5.616c-1.08,5.616-2.232,11.232-3.384,16.848
		c-0.36,0.144-0.72,0.36-1.08,0.576C311.256,131.328,306.576,131.328,301.824,131.328L301.824,131.328z M249.696,130.608
		c-0.216,0-0.432-0.072-0.72-0.144c0.864-5.472,1.8-11.016,2.736-16.56c0.288-0.576,0.648-1.224,1.0081-1.872
		c0.6479,0,1.296-0.072,2.016-0.144c0,0.36,0.072,0.72,0.144,1.08c-0.504,1.224-0.504,1.224-3.888,17.496
		C250.56,130.464,250.128,130.536,249.696,130.608L249.696,130.608z M160.416,129.888c-6.84-0.648-13.68-1.2961-20.592-1.944
		c-4.536-0.144-9.072-0.2881-13.68-0.504c-2.376-0.2881-4.752-0.576-7.2-0.936c-4.32-0.0721-8.64-0.144-12.96-0.216
		c-1.8-0.288-3.672-0.648-5.544-1.008c-12.024-1.152-12.456-1.44-18.216-1.872c-0.432-0.144-0.936-0.288-1.44-0.504
		c-2.664,0-2.664,0-14.4-1.44c-0.72-0.216-1.44-0.432-2.16-0.72c-0.504,0.216-12.528-0.936-18.288-1.8c0-0.216,0-0.432,0-0.72
		c1.44-0.864,10.368-4.1761,11.088-4.68c5.472-1.944,5.472-1.944,31.896-9.576c7.92-1.944,7.92-1.944,11.304-2.448
		c2.232-0.144,4.464-0.288,6.696-0.432c4.392-0.6479,8.784-1.296,13.176-1.944c1.08-0.288,2.232-0.576,3.384-0.936
		c2.88-1.44,2.88-1.44,3.816-1.584c0.864,4.32,0.864,4.32,1.296,5.04c1.008,3.3839,1.008,3.3839,1.944,5.3279
		c0.72,0.864,1.44,1.7281,2.16,2.592c2.304,2.016,4.608,4.032,6.984,6.048c4.536,2.88,4.536,2.88,5.616,3.168
		c3.6,1.944,4.104,2.448,11.52,6.264c2.664,0.936,4.32,1.944,6.048,2.376c2.88,1.44,2.88,1.44,3.096,1.8
		c-0.216,0.216-0.432,0.432-0.72,0.648C163.656,129.888,162.072,129.888,160.416,129.888L160.416,129.888z M466.704,129.384
		c-0.504-0.72-0.504-0.72-6.264-4.536c-1.872-0.72-3.816-1.44-5.76-2.16c-5.112-2.664-10.296-5.328-15.48-8.064
		c0-0.72-0.072-1.44-0.144-2.16c0.576,0.072,1.152,0.216,1.728,0.36c2.448,1.224,4.896,2.52,7.416,3.816
		c5.976,2.52,11.952,5.112,18,7.704c0.504,0.072,1.08,0.144,1.656,0.216c0.864,0.648,1.7281,1.296,2.664,1.944
		c4.104,1.944,4.104,1.944,4.32,2.304c-0.072,0.072-0.144,0.216-0.216,0.36C472.032,129.24,469.368,129.312,466.704,129.384
		L466.704,129.384z M20.52,127.224c-0.936-1.2961-1.872-2.592-2.88-3.96c-0.936-1.872-1.872-3.816-2.808-5.76
		c0-0.36,0-0.72-0.072-1.152c0.36,0,0.792,0,1.224,0.072c0.72,0.72,0.72,0.72,2.448,3.744c1.44,3.816,1.44,3.816,1.944,4.5359
		c0.144,0.792,0.288,1.584,0.504,2.448C20.808,127.1519,20.664,127.1519,20.52,127.224L20.52,127.224z M24.336,126.72
		c-0.216-0.144-0.432-0.2881-0.72-0.432c-1.008-2.016-2.016-4.032-3.024-6.12c-0.072-0.792-0.144-1.584-0.288-2.376
		c4.896,0.72,9.864,1.44,14.832,2.232c0.072,0.072,0.144,0.216,0.288,0.36c-0.72,0.576-3.168,1.584-10.584,6.336
		C24.696,126.72,24.552,126.72,24.336,126.72L24.336,126.72z M368.496,119.88c-0.144-0.936-0.144-0.936,1.2961-12.168
		c2.448-13.464,2.88-18,3.528-21.384c0.36,0,0.792,0,1.224,0.072c0.864,0.648,1.728,1.296,2.592,1.944
		c0.576,0.144,1.152,0.288,1.728,0.504c0,0.432,0,0.864,0.072,1.296c-0.792,2.952-1.584,5.904-2.376,8.928
		c-0.792,2.16-1.584,4.32-2.448,6.48c-0.576,2.304-1.224,4.608-1.872,6.912c-1.008,1.944-1.008,1.944-2.88,7.2
		c-0.216,0.144-0.432,0.288-0.648,0.504C368.64,120.096,368.568,120.024,368.496,119.88L368.496,119.88z M150.624,118.8
		c-0.792-0.432-1.584-0.936-2.448-1.44c0-0.288,0-0.648,0-1.008c0.72-0.432,0.72-0.432,3.888-1.368
		c6.192-3.8159,10.08-5.7599,10.512-6.2639c2.448-1.224,4.968-2.52,7.488-3.816c1.728-1.224,3.456-2.52,5.256-3.816
		c7.2-3.888,7.2-3.888,8.136-4.608c0.288,0,0.648,0,1.008,0c0.504,0.432,1.08,0.864,1.656,1.368c-0.936,1.08-0.936,1.08-3.384,2.592
		c-0.144,0.288-0.288,0.576-0.432,0.864c-0.864,0.648-1.728,1.296-2.664,1.944c-14.616,8.136-14.616,8.136-15.624,8.352
		c-1.296,0.648-2.664,1.296-4.032,1.944c-1.44,1.224-1.44,1.224-8.424,5.256C151.272,118.8,150.984,118.8,150.624,118.8
		L150.624,118.8z M36.864,118.08c-9.144-0.936-9.144-0.936-13.968-1.872c-1.872-0.648-3.816-1.296-5.76-1.944
		c-3.312-0.504-3.312-0.504-4.536-0.936c-0.936-1.584-1.872-3.24-2.808-4.896c0-0.36,0.072-0.792,0.144-1.224
		c3.096-1.872,6.192-3.816,9.36-5.7599c1.368-0.576,2.736-1.152,4.104-1.8c0.936-0.6479,1.872-1.296,2.88-1.944
		c4.104-1.944,4.104-1.944,9.576-4.104c0.288,0,0.648,0,1.008,0c3.096,5.904,6.264,11.808,9.432,17.712
		c0.36,0.288,0.72,0.576,1.08,0.936c0.288-0.144,0.576-0.288,0.864-0.504c0.072-0.216,0.144-0.432,0.216-0.72
		c-1.944-3.312-1.944-3.312-3.816-7.416c-0.936-1.368-1.872-2.736-2.88-4.104c-1.44-3.6-1.44-3.6-2.88-5.976c0-0.36,0-0.792,0-1.224
		c9.72-3.744,11.664-4.176,14.04-5.184c2.304-0.576,4.608-1.224,6.984-1.872c2.16-0.792,4.32-1.584,6.48-2.448c0.72,0,1.44,0,2.16,0
		c3.672,7.128,3.672,7.128,5.616,10.008c3.816,6.696,3.816,6.696,5.04,8.136c0.432,1.728,0.432,1.728,0.936,2.16
		c0,0.288,0,0.576-0.072,0.864c-2.16,0.432-2.88,0.936-11.304,3.312c-0.72,0.504-2.376,0.72-8.424,2.664
		c-4.752,1.944-4.752,1.944-8.136,2.88c-8.856,3.816-8.856,3.816-11.52,5.256C39.456,118.08,38.16,118.08,36.864,118.08
		L36.864,118.08z M6.84,112.608c-0.72-0.144-1.44-0.36-2.16-0.576c0-0.216-0.072-0.432-0.144-0.72
		c0.864-0.648,1.8-1.296,2.736-1.944c0.288,0,0.648-0.072,1.008-0.144c0.504,0.576,0.504,0.576,1.08,2.088
		c0,0.288-0.072,0.648-0.144,1.008C8.424,112.392,7.632,112.464,6.84,112.608L6.84,112.608z M238.68,109.728
		c-4.536-1.008-16.344-2.88-26.136-4.824c-2.088-0.648-4.176-1.296-6.264-1.944c-1.368-0.576-2.736-1.224-4.104-1.872
		c-2.232-0.6479-4.464-1.296-6.696-1.944c-2.232-1.08-4.464-2.232-6.696-3.384c-0.72-0.144-1.44-0.288-2.16-0.432
		c-0.36-0.288-0.792-0.648-1.224-1.008c-1.44-0.576-2.88-1.224-4.32-1.872c-1.368-0.936-2.736-1.872-4.104-2.88
		c-1.224-0.648-2.52-1.296-3.816-1.944c-0.648-0.792-1.296-1.584-1.944-2.376c-0.504-0.288-1.08-0.648-1.656-1.008
		c-0.936-1.08-1.872-2.16-2.88-3.24c-0.432-1.0081-0.864-2.0161-1.368-3.096c0-0.432,0-0.936,0-1.44
		c0.504-0.72,0.504-0.72,1.44-3.312c0.648-0.792,1.296-1.584,1.944-2.448c1.44-1.224,2.88-2.52,4.32-3.8159
		c2.592-1.872,5.184-3.744,7.848-5.688c0.504-0.144,1.08-0.288,1.656-0.432c3.24-1.728,6.552-3.528,9.864-5.3279
		c3.312-1.224,6.696-2.52,10.08-3.816c3.816-1.944,8.352-3.816,13.176-6.264c0.432-0.072,0.936-0.144,1.44-0.216
		c0.72,0.576,2.664,3.24,6.984,7.416c2.5919,1.944,2.5919,1.944,5.76,3.888c2.16,0.936,5.04,2.88,8.856,4.752
		c1.728,0.432,3.456,0.936,5.256,1.44c1.944,1.008,1.944,1.008,6.264,2.448c3.384,1.872,3.384,1.872,3.816,2.376
		c1.152,0.288,2.376,0.576,3.6,0.936c9.144,3.888,10.8,4.32,12.528,5.328c1.584,0.288,3.168,0.576,4.752,0.936
		c3.168,0.072,6.408,0.144,9.648,0.216c4.752-0.432,4.752-0.432,20.88-0.936c0.144,0.144,0.288,0.288,0.432,0.504
		c2.88,0,3.168-0.288,5.04,0c9.72,0,19.512,0,29.304,0c0.792-0.144,1.584-0.288,2.376-0.504c4.32,0.216,5.544,0,17.784,0.36
		c0.216,1.152,0.504,2.376,0.792,3.6c0.648,1.584,1.2961,3.168,1.944,4.824c0.504,2.664,0.936,8.136,1.44,11.016
		c-0.072,1.08-0.144,2.232-0.216,3.384c-0.504,0.432-1.008,0.864-1.584,1.296c-1.224,0.144-2.52,0.288-3.816,0.504
		c-2.376,0.936-12.456,3.312-13.68,3.816c-1.08,0.144-2.232,0.288-3.384,0.504c-0.432,0.432-0.432,0.432-4.032,1.44
		c-13.68,1.44-18.504,1.656-24.768,2.376c-21.096,0.936-21.6,1.224-23.472,1.224c-0.288,0.216-1.224,0-2.16,0.36
		c0-0.216,0-0.432,0-0.72c-18,0.7921-23.76,1.2961-32.904,1.5121C253.08,109.224,245.88,109.728,238.68,109.728L238.68,109.728z
		 M132.336,104.904c-1.296-3.672-1.296-3.672-1.44-4.896c0.864-0.0721,1.728-0.216,2.664-0.36c2.16-1.008,3.384-1.944,7.704-3.888
		c4.536-2.52,9.072-5.04,13.68-7.632c4.32-1.944,7.2-2.88,9.072-3.888c0.648-0.144,1.296-0.288,1.944-0.432
		c0.576,0.576,1.152,1.152,1.8,1.8c0,0.216,0,0.432,0,0.72c-11.664,5.616-11.664,5.616-12.096,6.12
		c-6.984,3.816-14.688,7.632-16.128,8.64c-4.32,1.872-4.32,1.872-5.76,2.88c-0.144,0.216-0.288,0.432-0.432,0.72
		C133.056,104.76,132.696,104.832,132.336,104.904L132.336,104.904z M82.656,102.96c-1.224-1.8-2.52-3.6-3.816-5.4
		c-1.8-3.528-5.688-9.792-8.064-14.616c0-0.36,0.072-0.72,0.144-1.08c1.44-0.504,1.44-0.504,4.104-0.936
		c1.584-0.6479,3.168-1.296,4.752-1.944c2.304-0.648,4.608-1.296,6.984-1.944c2.088-0.36,4.176-0.72,6.264-1.152
		c0.576-0.288,1.224-0.648,1.872-1.008c2.52-0.216,5.112-0.432,7.704-0.72c1.44,1.44,2.88,2.88,4.32,4.32
		c1.368,1.8,2.736,3.6,4.104,5.4c3.672,6.264,3.672,6.264,7.776,12.312c0,0.216-0.072,0.504-0.144,0.792
		c-1.872,0.504-4.32,0.504-11.232,1.944c-2.448,0.144-4.968,0.288-7.488,0.432c-2.016,0.288-4.104,0.648-6.192,1.008
		C86.76,102.24,86.76,102.24,82.656,102.96L82.656,102.96z M121.536,96.264c-0.36-0.288-0.72-0.576-1.152-0.936
		c-1.872-3.24-3.744-5.616-7.632-11.88c-2.16-2.808-4.32-5.616-6.48-8.424c0-0.288,0.072-0.576,0.144-0.936
		c4.32-0.36,6.264-0.864,17.064-2.088c0.216-0.216,12.24-1.152,13.464-1.44c0.936,0,1.872,0,2.88,0
		c1.152,1.296,2.304,2.664,3.456,4.032c0.288,0.936,0.576,1.872,0.936,2.88c1.944,3.096,2.88,5.256,3.96,6.696
		c0.288,0.072,0.648,0.216,1.008,0.36c-0.144,0.36-0.144,0.36-6.768,4.032c-3.6,1.584-7.2,3.168-10.8,4.824c-0.72,0-1.44,0-2.16,0
		c-1.008,0.288-2.016,0.576-3.096,0.936c-1.224,0.648-2.52,1.296-3.816,1.944C122.256,96.264,121.896,96.264,121.536,96.264
		L121.536,96.264z M398.304,95.328c-2.448-0.504-2.448-0.504-4.824-0.576c0.072-2.88,0.072-2.88,2.016-16.128
		c0.504-1.656,0.936-5.76,1.44-7.92c0.432,0,0.864-0.072,1.368-0.144c2.592,1.08,5.256,2.232,7.92,3.384
		c3.312,1.944,3.312,1.944,9.072,4.464c0.864,0.648,1.728,1.296,2.664,2.016c1.944,1.008,3.96,2.0161,5.976,3.096
		c7.92,5.76,7.92,5.76,8.856,6.192c0,0.2881,0.072,0.576,0.144,0.936c-0.288,0.288-0.576,0.576-0.936,0.936
		c-3.456,0.864-13.824,2.304-14.04,2.52c-2.664,0.216-2.664,0.216-2.88,0.504c-4.824,0-4.824,0-9.864,0.432
		C404.496,95.328,404.496,95.328,398.304,95.328L398.304,95.328z M433.296,87.624c-1.584-1.224-3.168-2.52-4.752-3.816
		c-6.48-3.888-8.64-4.824-19.944-11.52c-3.528-1.728-7.056-3.456-10.584-5.1841c0-0.72-0.072-1.4399-0.144-2.1599
		c0.432-3.168,0.936-6.336,1.44-9.576c1.368-0.36,6.624-0.36,12.672-1.08c13.68,0,14.112,0.216,21.528,0.36
		c0.36,1.944,0.36,1.944,1.08,29.52c-0.144,1.08-0.288,2.232-0.432,3.384C433.872,87.552,433.584,87.552,433.296,87.624
		L433.296,87.624z M379.08,86.688c-3.6-1.944-3.6-1.944-5.04-3.024c0-0.72-0.072-1.44-0.144-2.16
		c0.504-2.592,0.504-2.592,1.44-11.7361c0-3.384,0-3.384,0.36-6.9839c0.648,0.072,1.296,0.216,1.944,0.36
		c3.024,1.224,6.048,2.5201,9.144,3.816c0.072,1.152,0.072,1.152-0.864,4.464c-1.008,1.944-2.88,7.704-4.824,12.2401
		c-0.288,0.936-0.576,1.872-0.936,2.8799C379.8,86.5439,379.44,86.616,379.08,86.688L379.08,86.688z M436.896,84.528
		c-0.072-2.088-0.144-4.176-0.216-6.336c0.216,0,0.432,0,0.72,0c0.072,4.536,0.072,4.536-0.144,6.192
		C437.184,84.384,437.04,84.456,436.896,84.528L436.896,84.528z M149.616,84.384c0-0.432,0.072-0.936,0.144-1.44
		c-1.296-1.944-2.592-3.9601-3.888-5.976c-0.288-0.864-0.576-1.728-0.936-2.664c-0.648-1.08-1.296-2.16-1.944-3.312
		c0-0.36,0-0.792-0.072-1.224c6.984-0.36,6.984-0.36,13.896-0.144c0.72,0.216,0.72,0.216,7.92,0.504
		c0.144,0.072,0.288,0.216,0.504,0.36c-1.8,3.816-2.304,5.76-3.24,7.2c-2.664,1.944-2.664,1.944-9,5.616
		C150.624,84.24,150.624,84.24,149.616,84.384L149.616,84.384z M365.904,82.944c-1.872-4.032-1.872-4.032-2.808-7.2
		c-0.216-2.88-0.216-2.88-0.504-3.6c-0.792-0.432-0.792-0.432-2.232-0.72c0-0.504,0-1.08,0.072-1.656
		c0.936-2.952,1.872-5.904,2.88-8.856c1.008-4.824,1.008-4.824,1.944-7.92c0.288-0.36,0.576-0.792,0.936-1.224
		c0.288-0.072,0.576-0.216,0.864-0.36c2.448,0.216,2.448,0.216,3.0959,0.576c0.144,1.224-1.8,15.84-2.232,21.888
		c-0.432,2.952-0.936,5.904-1.44,8.856C366.336,82.8,366.12,82.8719,365.904,82.944L365.904,82.944z M190.944,75.888
		c-0.576-0.504-1.224-1.008-1.872-1.584c0-0.216,0-0.432,0-0.72c0.72-0.432,1.512-0.936,2.304-1.44
		c-0.72-0.144-0.72-0.144-2.16,0.36c-1.224-0.0721-2.52-0.144-3.816-0.216c-0.648-0.72-1.296-1.44-1.944-2.16
		c-0.288-0.792-0.576-1.656-0.864-2.52c-0.216,0-0.504-0.072-0.792-0.144c-0.288,0.288-0.576,0.576-0.936,0.936
		c-1.44,0.432-2.88,0.936-4.32,1.44c-0.36,0-0.72,0-1.152-0.072c0-0.504,0-1.08,0-1.656c1.152-1.152,1.152-1.152,3.312-2.592
		c2.304-0.936,4.608-1.872,6.912-2.88c1.224-0.936,1.224-0.936,3.168-1.872c0.792-0.072,1.584-0.144,2.376-0.288
		c0.432,0.144,0.936,0.288,1.44,0.504c0,0.432,0,0.864,0.072,1.368c-1.152,0.576-2.304,1.224-3.456,1.872c0,0.36,0,0.792,0,1.224
		c1.296,0.432,2.592,0.864,3.888,1.296c0.504,0.432,1.008,0.864,1.512,1.368c0,0.432,0,0.936,0,1.44
		c-0.432,0.432-0.864,0.864-1.296,1.368c0.288,0,0.576,0.072,0.936,0.144c0.864-0.648,1.728-1.2961,2.664-1.944
		c3.384-0.936,3.384-0.936,5.976-1.152c0.72,0.576,0.72,0.576,1.08,1.296c0,0.432,0,0.936,0,1.44
		c-0.576,0.504-5.616,2.304-11.592,5.1841C191.952,75.888,191.448,75.888,190.944,75.888L190.944,75.888z M305.136,72.72
		c-2.376-0.2881-4.752-0.576-7.2-0.936c-0.504-0.648-1.008-1.2961-1.584-2.0161c-0.216-1.008-0.504-2.016-0.792-3.0959
		c3.024-0.288,6.048-0.576,9.144-0.864c0.504,0.072,1.08,0.144,1.656,0.216c0.144,0.144,0.288,0.288,0.504,0.504
		c0,1.296,0,2.592,0.072,3.96c-0.144,0.504-0.288,1.08-0.504,1.656C305.352,72.864,305.352,72.864,305.136,72.72L305.136,72.72z
		 M279.72,72.504c-1.008-0.0721-2.016-0.144-3.096-0.216c-0.36-0.288-0.792-0.648-1.224-1.008
		c-0.936-1.2961-1.872-2.592-2.808-3.888c0-0.216,0-0.432-0.072-0.72c1.152,0.216,2.376,0.504,3.6,0.792
		c0.504,0.432,1.08,0.936,1.656,1.44c2.016,1.008,4.032,2.016,6.048,3.096C283.536,72.288,283.536,72.288,279.72,72.504
		L279.72,72.504z M310.176,72.504c-0.432,0-0.936,0-1.44-0.0721c0.36-3.384,0.144-4.608,0.288-6.408
		c1.944-0.216,3.96-0.504,5.976-0.792c0,0.216,0,0.432,0.072,0.72c0.216,0.144,0.432,0.288,0.72,0.432
		c1.008,2.16,1.008,2.16,2.448,4.32c0.072,0.432,0.144,0.936,0.216,1.44C315.72,72.216,312.984,72.36,310.176,72.504L310.176,72.504
		z M321.48,72.504c-0.288,0-0.576,0-0.936-0.0721c-0.864-3.168-0.864-3.168-1.872-5.328c-0.288-0.36-0.576-0.72-0.936-1.152
		c0-0.288,0-0.648-0.072-1.008c3.384-0.0721,6.84-0.216,10.296-0.36c0.36-0.144,0.792-0.288,1.224-0.504
		c3.096,0,4.032,0.288,6.912,0.288c4.32-1.008,4.32-1.008,7.488-1.44c3.6,0.216,3.6,0.216,5.472,0
		c0.144-0.072,0.36-0.216,0.576-0.36c1.944-4.824,1.944-4.824,5.328-15.624c0.144-0.216,0.36-0.432,0.576-0.72
		c0.36,0.288,0.72,0.648,1.08,1.008c3.024,0.792,3.024,0.792,4.248,1.368c0.432,0.648,0.432,0.648,1.296,1.008
		c0.0721,1.152,0.144,2.376,0.216,3.6c-0.6479,2.88-1.296,5.76-1.944,8.64c-1.44,3.6-1.44,3.6-2.376,7.416
		c-0.432,0.792-0.864,1.656-1.296,2.52c-2.664,0.072-5.4,0.144-8.136,0.216c-1.44-0.432-1.44-0.432-5.328-0.72
		c-1.44,0.288-1.44,0.288-3.816,0.288c-0.648,0.216-1.296,0.432-1.944,0.72C325.8,72.504,323.856,72.288,321.48,72.504
		L321.48,72.504z M292.68,72c-1.872-0.36-3.816-0.72-5.76-1.152c-1.584-0.648-3.168-1.296-4.824-1.944
		c-1.1519-0.72-2.376-1.44-3.6-2.232c-0.072-0.216-0.144-0.432-0.216-0.72c1.44-0.144,2.88-0.288,4.32-0.432
		c3.168,0.288,6.336,0.648,9.576,1.008c0.504,0.72,1.224,1.152,1.728,1.872c0.288,1.152,0.288,1.152,1.296,2.808
		c0,0.216-0.072,0.504-0.144,0.7921C294.264,72,293.472,72,292.68,72L292.68,72z M271.296,71.28
		c-1.08-0.2881-2.16-0.576-3.312-0.936c-2.952-1.224-5.904-2.52-8.928-3.816c-1.152-0.288-2.376-0.648-3.6-1.008
		c-1.296-2.736-1.296-2.736-1.8-3.168c0-0.36,0.0721-0.72,0.144-1.152c7.416,2.16,7.416,2.16,9.864,3.168
		c2.88,0.432,2.88,0.432,5.256,1.152c0.936,1.44,1.656,2.088,3.6,5.4C272.304,71.28,272.304,71.28,271.296,71.28L271.296,71.28z
		 M186.624,69.408c-0.432-0.576-0.432-0.576-0.504-1.8c0.72,0.216,1.44,0.504,2.16,0.792c0,0.288,0,0.576,0.072,0.864
		C187.776,69.264,187.2,69.336,186.624,69.408L186.624,69.408z M436.464,64.728c-0.144-0.72-0.288-1.44-0.432-2.16
		c0.072-0.144,0.216-0.288,0.36-0.504c0.36,0.504,0.36,0.504,0.36,2.448C436.68,64.584,436.608,64.656,436.464,64.728
		L436.464,64.728z M292.176,64.368c-6.696-0.504-6.696-0.504-7.2-0.72c-5.976,0-6.912-0.288-8.352-0.288
		c-0.72,0.288-0.72,0.288-5.544,0.432c0-0.864,0-1.728,0.072-2.664c1.008-4.536,1.008-4.536,1.44-7.92
		c1.368-1.944,2.808-3.888,4.248-5.904c0.648,0.072,1.296,0.144,1.944,0.216c3.816,1.944,3.816,1.944,5.976,3.384
		c0.504,0.144,1.08,0.288,1.656,0.504c3.168,2.16,3.168,2.16,5.04,3.096c0.36,0.072,0.792,0.144,1.224,0.216
		c3.6,1.944,3.6,1.944,4.104,2.448c0,0.432,0,0.864,0.072,1.296c-0.288,0.288-0.576,0.648-0.936,1.008
		c-0.648,1.584-1.296,3.168-1.944,4.752C293.4,64.224,292.824,64.296,292.176,64.368L292.176,64.368z M296.28,64.368
		c0-0.36-0.072-0.72-0.144-1.08c0.936-0.936,0.936-0.936,3.24-4.68c1.944,0,1.944,0,6.984-0.72c-0.072,1.944-0.216,3.888-0.36,5.904
		c-0.576,0.288-5.184,0.288-6.336,0.576C298.584,64.368,297.432,64.368,296.28,64.368L296.28,64.368z M309.744,63.864
		c-0.288-0.144-0.576-0.36-0.864-0.576c-0.288-1.656,0-4.536-0.288-4.824c0.072-1.008,0.144-2.016,0.288-3.096
		c-0.504-0.504-2.304-0.864-3.96-1.8c-2.664-1.008-2.664-1.008-5.04-1.44c-3.6-1.944-7.92-4.824-13.968-8.064
		c0-0.216,0-0.432,0-0.72c1.08-0.288,2.232-0.576,3.384-0.864c1.08,0.072,2.232,0.144,3.384,0.288c2.88-0.144,5.76-0.288,8.64-0.504
		c0.216-0.144,0.432-0.288,0.72-0.504c4.104-0.432,4.104-0.432,6.264-0.936c5.04,0.216,5.04,0.216,7.416,0.72
		c1.008,0.648,2.016,1.2961,3.096,1.944c1.584,0.576,3.168,1.224,4.824,1.872c7.416,3.888,13.896,7.704,16.056,8.64
		c2.664,1.728,5.328,3.456,8.064,5.184c0,1.008,0,1.008-0.36,1.296c-0.72,0-1.44,0-2.16,0c-7.2,1.44-7.2,1.44-8.424,1.944
		c-2.448,0-4.896,0-7.416,0c-0.648,0.144-1.296,0.288-1.944,0.504c-0.432,0.36-0.864,0.72-1.2961,1.08
		c-0.072-0.216-0.2159-0.432-0.36-0.72c-0.144,0.144-0.288,0.288-0.504,0.504c-0.072-0.216-0.144-0.432-0.216-0.72
		c-1.656,0-3.312-0.072-5.04-0.144C316.656,63.216,313.2,63.504,309.744,63.864L309.744,63.864z M250.2,62.64
		c-3.744-1.224-7.488-2.52-11.304-3.816c-1.296-0.648-2.664-1.296-4.032-1.944c-0.36-0.504-0.72-1.008-1.152-1.512
		c0-0.432,0-0.936-0.072-1.44c11.016,3.672,13.176,4.68,14.904,5.112c0.576,0.288,1.224,0.648,1.872,1.008
		c0.864,2.016,0.864,2.016,0.72,2.592C250.848,62.64,250.56,62.64,250.2,62.64L250.2,62.64z M266.544,62.64
		c-4.104-0.936-6.768-1.872-9.144-2.376c-3.744-1.224-7.488-2.52-11.304-3.816c-1.872-1.008-3.6-1.44-5.256-2.448
		c-1.152-0.2881-2.376-0.576-3.6-0.936c-7.92-3.816-7.92-3.816-11.304-5.76c-0.288-0.216-0.576-0.504-0.864-0.792
		c0-0.216,0-0.432-0.072-0.72c3.024-0.432,6.048-0.864,9.144-1.368c0.576-0.288,1.224-0.576,1.872-0.936
		c7.488-0.288,8.928,0,24.264-0.288c1.656,0.504,1.656,0.504,2.16,1.008c5.976,0,9.144-0.288,14.4,0
		c-0.648,0.576-1.296,1.224-1.944,1.872c-1.296,1.872-2.592,3.744-3.96,5.688c-0.288,0.864-0.576,1.728-0.936,2.664
		c-0.504,4.536-0.504,4.536-1.44,8.136C267.912,62.568,267.264,62.568,266.544,62.64L266.544,62.64z M387.72,62.64
		c-3.384-1.872-3.384-1.872-6.696-4.32c-1.224-1.44-1.224-1.44-4.248-3.672c0-2.16,0-2.16-0.36-3.384
		c1.296,0.144,2.592,0.36,3.888,0.576c3.168,0.936,6.336,1.872,9.576,2.808c-0.36,2.304-0.72,4.608-1.08,6.984
		C387.936,62.784,387.936,62.784,387.72,62.64L387.72,62.64z M379.08,60.7679c-1.224-0.504-1.224-0.504-2.88-0.576
		c0.072-0.576,0.144-1.152,0.216-1.728c0.216,0,0.432-0.072,0.72-0.144c0.864,0.648,1.728,1.368,2.664,2.088
		C379.584,60.7679,379.584,60.7679,379.08,60.7679L379.08,60.7679z M348.84,56.664c-6.984-3.816-7.416-4.32-11.52-6.264
		c-3.24-1.872-6.552-3.816-9.864-5.76c-1.44-0.432-1.872-0.936-7.632-3.312c-0.576-0.288-1.152-0.648-1.728-1.008
		c-0.288-0.36-0.576-0.72-0.936-1.152c-2.88-1.944-2.88-1.944-4.824-3.888c-0.144-0.216-0.288-0.504-0.432-0.792
		c0-1.368-0.072-2.736-0.144-4.104c0.576-2.52,1.152-5.112,1.8-7.704c3.096,0.144,5.544,0.648,7.2,0.648
		c0.72-0.288,0.72-0.288,2.664-0.288c3.312,1.944,5.976,3.888,12.456,7.704c10.584,5.256,11.016,5.76,14.904,7.704
		c0.72,0.432,1.44,0.936,2.16,1.44c0.72,0.072,1.44,0.2159,2.16,0.36c-1.872,5.544-1.872,5.544-2.304,7.92
		c-1.08,2.808-2.16,5.616-3.24,8.496C349.344,56.664,349.128,56.664,348.84,56.664L348.84,56.664z M299.16,56.448
		c-0.936-0.648-1.872-1.2961-2.88-1.944c-2.592-1.224-5.256-2.5201-7.92-3.816c-5.04-3.168-5.04-3.168-6.984-3.96
		c0-0.288,0-0.576,0-0.936c0.936,0,1.872-0.072,2.88-0.144c1.224,0.432,1.224,0.432,10.368,5.256
		c0.792,0.648,1.584,1.296,2.376,1.944c1.224,0.432,1.44,0.72,4.824,1.656c0.36,0.144,0.72,0.36,1.152,0.576
		c-0.144,0.216-0.288,0.432-0.432,0.648C301.464,55.944,300.312,56.16,299.16,56.448L299.16,56.448z M230.04,54.288
		c-1.656-1.008-1.656-1.008-5.04-3.96c0.072-0.072,0.144-0.216,0.2159-0.36c0.432,0.072,0.936,0.144,1.44,0.216
		c1.5121,0.792,3.024,1.656,4.608,2.52c0.216,0.504,0.216,0.504-0.144,1.44C230.76,54.144,230.4,54.216,230.04,54.288L230.04,54.288
		z M388.944,53.064c-1.872-0.72-3.816-1.44-5.76-2.16c-3.024-0.792-6.048-1.584-9.144-2.376c-1.44-1.008-4.104-1.944-6.264-3.384
		c-0.288,0-0.576,0-0.936-0.072c0.792-5.544,1.08-6.048,1.512-9.144c0.288-0.936,0.648-1.8719,1.008-2.88
		c0.216-2.088,0.432-4.176,0.72-6.2639c-0.288-0.576-0.648-1.224-1.008-1.872c-1.44-1.296-2.88-2.592-4.392-3.888
		c-2.88-1.872-5.04-2.736-7.92-4.68c-2.88-1.224-5.76-2.52-8.64-3.816c-0.648-0.504-1.368-1.0081-2.088-1.5841
		c0-0.2159,0-0.4319-0.072-0.7199c4.32,0.432,8.64,0.864,12.96,1.296c1.224,0.288,2.52,0.648,3.816,1.0081
		C378.36,18.288,390.096,22.1039,408.6,28.8c4.536,2.448,5.976,2.88,20.16,10.584c1.944,1.368,3.96,2.736,5.976,4.104
		c2.952,1.584,5.904,3.168,8.9279,4.752c0.7921,0.648,1.584,1.368,2.376,2.088c0,0.216,0,0.504,0,0.792
		c-1.944,0.504-1.944,0.504-5.7599,1.008c-6.48,0-7.2,0.216-12.744,0.432c-0.144,0.072-0.288,0.144-0.432,0.288
		c-0.72-0.216-1.44-0.432-2.16-0.72c-2.16,0.216-3.384,0-14.4,0.216c-1.44,0.144-2.88,0.288-4.32,0.504
		c-11.088,0.216-14.688,0-15.12,0.216C390.384,53.064,389.664,53.064,388.944,53.064L388.944,53.064z M224.28,49.968
		c-0.504-0.576-1.08-1.152-1.656-1.8c0.288,0,0.576-0.072,0.936-0.144c0.288,0.288,0.576,0.576,0.936,0.936
		c0,0.288,0.0721,0.576,0.144,0.864C224.568,49.824,224.424,49.896,224.28,49.968L224.28,49.968z M367.776,48.96
		c-0.576-0.072-1.152-0.144-1.8-0.288c0-0.288,0-0.648-0.072-1.008c2.592,0.576,2.592,0.576,2.88,0.936
		C368.496,48.96,368.496,48.96,367.776,48.96L367.776,48.96z M362.016,47.304c-1.44-0.936-3.096-1.44-4.752-2.376
		c-0.36,0-0.792,0.0721-1.224,0.144c0-0.432-0.072-0.936-0.144-1.44c0.936-3.024,1.872-6.048,2.88-9.144
		c0.936-2.088,1.872-4.176,2.88-6.2639c0.0721-0.72,0.144-1.44,0.216-2.16c-0.144-0.432-0.288-0.936-0.432-1.44
		c-2.088-2.16-2.088-2.16-3.744-3.24c-0.864-0.288-1.728-0.576-2.592-0.936c-1.224-1.008-3.168-1.9439-4.32-2.88
		c-8.424-3.888-8.424-3.888-9.864-4.32c-2.232-1.296-4.464-2.5919-6.696-3.8879c-3.024-0.936-6.048-1.872-9.144-2.88
		c-1.008-0.432-2.016-0.936-3.096-1.44c-1.512-0.288-3.024-0.648-4.608-1.008c0-0.2161,0-0.432,0-0.72
		c0.36-0.144,0.7921-0.288,1.224-0.4321c1.944,0.36,3.96,0.7921,5.976,1.2241c4.104,1.44,4.104,1.44,19.008,8.136
		c0.288,0.36,0.576,0.792,0.936,1.224c0.648,0.36,1.296,0.7919,1.944,1.2239c0.936,0.2881,1.872,0.576,2.88,0.936
		c1.152,0.9361,1.152,0.9361,4.32,2.3761c0.576,0.144,1.224,0.288,1.872,0.504c0.936,0.648,1.872,1.296,2.88,1.9439
		c1.368,0.576,2.736,1.224,4.104,1.872c0.936,1.0081,1.944,1.44,4.32,3.528c0.36,2.16,0.36,2.16,0.36,5.544
		c-1.08,4.608-2.232,9.216-3.384,13.896c-0.288,0.648-0.576,1.296-0.936,1.944C362.592,47.232,362.304,47.232,362.016,47.304
		L362.016,47.304z M221.904,44.2079c-2.448-1.944-2.448-1.944-4.752-4.464c0-0.432,0-0.936,0-1.44
		c0.432-0.288,0.864-0.576,1.368-0.936c3.816-0.864,3.816-0.864,6.264-1.08c1.728,3.96,1.728,3.96,2.736,5.616
		c0.072,0.432,0.144,0.936,0.216,1.44C223.776,43.7039,223.776,43.7039,221.904,44.2079L221.904,44.2079z M230.544,42.9839
		c-0.36-0.432-0.792-0.864-1.224-1.296c-0.864-1.944-0.864-1.944-2.304-4.104c-0.072-0.504-0.144-1.08-0.216-1.656
		c0.864-0.216,1.8-0.4319,2.736-0.648c3.6-0.072,7.2-0.144,10.8-0.216c0.864,1.08,2.736,4.968,3.24,5.4c0,0.144,0,0.36-0.072,0.576
		c-2.448,0.144-4.968,0.288-7.488,0.504c-0.936,0.36-1.872,0.792-2.88,1.224C232.272,42.84,231.408,42.912,230.544,42.9839
		L230.544,42.9839z M263.16,42.0479c-0.936-1.584-1.872-3.24-2.808-4.896c-0.072-0.6479-0.144-1.2959-0.288-1.944
		c4.536-0.144,4.536-0.144,17.496,0.36c0.792,1.296,0.792,1.296,1.8,4.68c0,0.36-0.072,0.72-0.144,1.08
		c-2.592,0.432-2.592,0.432-11.232,0.72C265.104,41.7599,264.384,42.0479,263.16,42.0479L263.16,42.0479z M246.816,41.5439
		c-0.504-0.36-1.008-0.72-1.584-1.08c-0.576-1.152-1.224-2.376-1.872-3.6c-0.072-0.576-0.216-1.224-0.36-1.872
		c3.744,0,7.488-0.072,11.304-0.144c0.216,0.144,0.432,0.288,0.72,0.432c0.936,0,1.872,0,2.88,0c0.216,0.288,0.432,0.576,0.72,0.864
		c1.296,4.104,1.296,4.104,1.296,4.824c-0.288,0.144-0.576,0.288-0.864,0.504C249.696,41.328,249.696,41.328,246.816,41.5439
		L246.816,41.5439z M283.824,41.5439c-0.576-0.144-1.152-0.288-1.728-0.504c-0.432-0.432-0.936-0.936-1.44-1.44
		c-0.864-1.728-0.864-1.728-1.8-2.952c0-0.288,0-0.576-0.072-0.936c0.72,0.072,1.44,0.144,2.16,0.288
		c0.36,0.288,0.72,0.648,1.1519,1.008c2.16,0.144,4.32,0.288,6.48,0.432c0.36-0.144,0.792-0.2881,1.224-0.432c1.152,0,2.376,0,3.6,0
		c1.8-0.288,3.672-0.648,5.544-1.008c1.656-0.72,1.656-0.72,3.096-0.792c-0.288,0.792-0.576,1.584-0.864,2.376
		c-0.72,0.792-1.44,1.656-2.232,2.52c-1.08,0.288-2.2321,0.576-3.384,0.936c-4.104-0.216-4.104-0.216-7.704,0
		C287.64,41.328,287.64,41.328,283.824,41.5439L283.824,41.5439z M354.816,39.168c-1.152-1.008-6.192-3.888-7.416-4.824
		c-4.104-1.944-4.104-1.944-14.9041-8.136c-0.144-1.296-0.144-1.296,0.288-3.168c0.72-0.2161,0.72-0.2161,7.2-0.2161
		c2.592-0.9359,2.592-0.9359,3.096-1.4399c0-0.576,0-1.152,0.072-1.8c-0.432-1.08-0.864-2.16-1.296-3.312
		c1.224,0.288,1.224,0.288,7.92,3.312c1.584,1.008,3.168,2.016,4.824,3.024c1.368,0.576,2.736,1.224,4.104,1.872
		c0.288,0.504,0.576,1.008,0.936,1.584c0,0.576,0,1.152,0.072,1.728c-1.368,3.744-2.736,7.56-4.176,11.376
		C355.32,39.168,355.104,39.168,354.816,39.168L354.816,39.168z M302.976,38.304c0.288-1.008,0.576-2.016,0.864-3.096
		c0.936-1.44,0.936-1.44,2.88-6.48c3.312-5.04,3.312-5.04,3.672-5.256c0,0.36,0.072,0.72,0.144,1.152
		c-0.432,2.376-0.936,4.752-1.44,7.1999c-0.216,3.384-0.216,3.384,0,4.608C307.08,37.008,305.064,37.656,302.976,38.304
		L302.976,38.304z M328.896,23.7599c-1.44-1.1519-3.312-2.16-4.32-3.0959c-3.312-1.944-3.312-1.944-5.616-3.672
		c0-0.216-0.072-0.432-0.144-0.72c2.304,0.144,4.608,0.36,6.984,0.576c0.504,0.432,5.544,2.376,5.76,2.736
		c-1.224,1.224-1.224,1.224-1.656,2.16c0.072,1.44,0.072,1.44-0.288,2.016C329.4,23.7599,329.184,23.7599,328.896,23.7599
		L328.896,23.7599z M315.72,19.944c-1.224-0.216-1.224-0.216-1.584-0.576c-0.072-0.432-0.144-0.936-0.216-1.44
		c0.36,0,0.72-0.0719,1.08-0.144c0.72,0.648,1.44,1.296,2.16,1.944C316.944,19.944,316.944,19.944,315.72,19.944L315.72,19.944z
		 M338.256,19.728c-0.432-0.288-0.936-0.648-1.44-1.008c-2.448-1.008-4.896-2.088-7.416-3.168c0-0.576,0-1.224,0-1.8721
		c0.432,0,0.936,0,1.44,0c0.72,0.504,3.6,1.4401,5.544,2.448c1.008,0.864,2.016,1.7281,3.096,2.592c0,0.288,0,0.576,0.072,0.864
		C339.12,19.584,338.688,19.6559,338.256,19.728L338.256,19.728z M301.104,13.6799c-0.432-0.5759-0.432-0.5759-0.864-2.4479
		c0.072-0.432,0.144-0.936,0.216-1.44c0.504-0.2881,1.008-0.648,1.584-1.008c0.36,0,0.792-0.072,1.224-0.144
		c0.216,0.144,0.504,0.288,0.792,0.4319c-0.216,0.7201-0.432,1.4401-0.72,2.1601C301.32,13.824,301.32,13.824,301.104,13.6799
		L301.104,13.6799z M323.64,13.6799c-1.368-0.1439-2.736-0.36-4.104-0.5759c0-0.2881,0-0.576,0-0.864
		c1.296-0.288,2.592-0.576,3.888-0.936c0.792,0,1.584,0.072,2.376,0.144c0.216,0.4319,0.216,0.4319-0.144,1.944
		C325.008,13.464,324.36,13.536,323.64,13.6799L323.64,13.6799z"/>
</g>
</svg>
