<?xml version="1.0" encoding="utf-8"?>
<!-- Generator: Adobe Illustrator 21.1.0, SVG Export Plug-In . SVG Version: 6.00 Build 0)  -->
<svg version="1.1" id="Ca" xmlns="http://www.w3.org/2000/svg" xmlns:xlink="http://www.w3.org/1999/xlink" x="0px" y="0px"
	 viewBox="0 0 383.544 122.4" enable-background="new 0 0 383.544 122.4" xml:space="preserve">
<g>
	<path fill-rule="evenodd" clip-rule="evenodd" d="M37.08,122.4c-1.512-0.144-3.024-0.288-4.536-0.504
		c-10.8,0.216-10.8,0.216-19.224,0c-1.44-0.216-2.952-0.504-4.464-0.792c0-0.288,0.072-0.648,0.144-1.008
		c1.944-0.144,3.6,0.144,14.4,0.36c2.088-0.144,4.176-0.288,6.264-0.504c2.304,0.216,4.608,0.432,6.984,0.72
		c2.16-0.144,4.32-0.288,6.48-0.432c0.144-0.216,0.288-0.432,0.432-0.648c-1.152-1.08-3.096-2.016-6.696-4.392
		c-0.648-0.792-1.296-1.584-1.944-2.448c-0.936-0.576-1.872-1.224-2.88-1.872c-0.288-0.4319-0.576-0.936-0.936-1.44
		c-1.44-1.08-2.88-2.232-4.32-3.384c-0.072-0.216-0.216-0.504-0.36-0.792c-0.576-0.288-1.152-0.648-1.728-1.008
		c-1.872-2.5919-1.872-2.5919-4.032-4.752c-0.504-0.288-1.008-0.576-1.584-0.864c-0.936-1.152-1.872-2.376-2.88-3.6
		c-0.72-0.576-1.44-1.152-2.16-1.8c-0.936-1.584-2.16-2.664-2.52-3.6c-4.176-4.32-4.176-4.32-5.544-5.256
		C5.4,83.304,4.752,82.152,4.104,81c-1.008-0.936-1.008-0.936-3.24-1.944C0.72,78.12,0.72,78.12,1.08,77.76
		c1.44-0.504,1.44-0.504,3.6-0.72c2.16-1.008,2.16-1.008,5.328-1.944c0-0.576,0-1.1519,0.072-1.8c-0.936-2.88-0.936-2.88-2.376-5.76
		C7.416,67.248,7.056,66.96,6.696,66.6c-2.376-4.32-2.376-4.32-2.952-4.968C0.36,61.2,0.36,61.2,0,60.84
		c0-0.288,0.072-0.576,0.144-0.864c1.656-0.216,1.656-0.216,20.664,0c2.232,0.216,4.464,0.432,6.696,0.72
		c3.312,0.072,6.696,0.144,10.08,0.216C41.688,60.48,48.6,60.48,57.24,59.976c9.36-0.216,18.72-0.432,28.08-0.72
		c0.936,0.144,1.872,0.288,2.88,0.504c4.824-0.288,10.08,0,13.248-0.288c4.032-1.872,5.256-2.88,8.64-4.32
		c0-0.216,0-0.504-0.072-0.792c-2.088-0.36-2.088-0.36-2.736-0.72c0-0.504,0-1.08,0-1.656c0.648-0.72,1.296-1.44,2.016-2.16
		c4.896-2.52,9.792-5.04,14.688-7.632c4.824-2.232,9.72-4.464,14.616-6.696c2.16-0.504,2.16-0.504,6.048-0.936
		c1.872-1.944,1.872-1.944,2.376-2.808c0-0.288,0-0.576,0.072-0.936c-0.6479-0.288-1.296-0.576-2.016-0.936
		c-0.36-0.72-0.36-0.72-0.36-2.16c0.216-0.072,0.432-0.216,0.648-0.36c8.352,0.432,16.776,0.936,25.2,1.44
		c3.312-0.288,3.312-0.288,4.752,0c6.048,0.216,12.96,0,16.56,0.216c1.224-0.216,1.224-0.216,12.24,0
		c2.304-0.288,4.608-0.576,6.984-0.936c0.504-0.504,1.296-2.304,3.24-4.68c0.936-2.16,1.44-2.664,4.752-10.296
		c3.888-6.768,3.888-6.768,4.608-8.424c0-0.432-0.072-0.936-0.144-1.44c-0.36-0.288-0.72-0.576-1.08-0.936c0-0.36,0-0.792,0-1.224
		c0.288-0.288,0.576-0.576,0.864-0.864c1.008-0.072,2.016-0.144,3.096-0.216c1.08,0.288,2.2321,0.576,3.384,0.936
		c0.432,0.36,0.936,0.72,1.44,1.08c0.792,3.888,1.512,11.808,1.872,12.744c36.792,0.792,36.792,0.792,52.848,0.792
		c0.216,0.288,0.504,0.576,0.792,0.864c0,0.288,0,0.648,0,1.008c-0.4319,0.216-0.864,0.504-1.296,0.792
		c-0.648,0.072-1.296,0.216-1.944,0.36c-0.072,1.224-0.072,1.224,0.864,4.824c0.936,2.376,4.824,16.56,6.264,20.664
		c0.936,5.976,2.88,15.12,3.312,18.216c1.008,3.816,1.008,3.816,2.88,8.424c1.08,1.44,1.728,1.872,3.6,4.32
		c0.36,0.288,0.72,0.576,1.08,0.936c1.368,0.432,2.736,0.864,4.104,1.296c2.16,0,4.32,0,6.48,0c0.576-0.144,1.152-0.288,1.728-0.504
		c3.816,0.288,7.632,0.648,11.52,1.008c3.24,0.936,6.48,1.872,9.792,2.88c1.728,0.936,1.728,0.936,3.168,1.152
		c0.216-0.216,0.216-0.216,1.44-0.216c0.288,0.432,0.576,0.864,0.936,1.296c0.576,1.656,1.152,3.384,1.8,5.112
		c2.232,4.536,4.464,9.072,6.696,13.68c2.16,2.16,2.16,2.16,6.696,5.976c0.144,0.288,0.288,0.576,0.504,0.936
		c-0.072,0.288-0.144,0.648-0.216,1.008c-0.648,0.432-0.648,0.432-3.744,0.792c-0.504,0.288-1.08,0.576-1.6559,0.936
		c-0.72,1.152-1.512,2.304-2.304,3.528c0,0.216,0.072,0.432,0.144,0.72c1.008,0.144,2.016,0.36,3.096,0.576
		c3.312,0.072,6.696,0.144,10.08,0.216c3.096,0.36,6.192,0.792,9.36,1.224c2.016,0,4.032,0,6.048,0
		c0.576-0.144,1.224-0.288,1.872-0.504c1.44,0,2.952,0.072,4.464,0.144c0,0.36,0,0.792,0,1.224c-0.144,0.072-0.36,0.216-0.576,0.36
		c-3.6001,0-5.3281,0.432-9.1441,0.432c-4.392-0.36-8.784-0.72-13.176-1.152c-12.24,0-12.24,0-22.104-0.504
		c-12.744,0.216-24.984,0.936-40.824,1.44c-3.096-0.216-15.336,0-33.84-0.504c-2.232,0.144-4.464,0.288-6.696,0.504
		c-15.336,0-15.336,0-19.224,0.216c-0.216,0.144-0.432,0.288-0.72,0.504c-9.72,0.144-19.44,0.288-29.232,0.504
		c-13.68-0.72-13.68-0.72-15.624-1.008c-27.144,0.504-32.904,0.288-46.296,0.72c-5.328,0.288-10.728,0.6479-16.128,1.008
		c-6.696-0.072-13.392-0.144-20.16-0.288c-0.216,0.216-0.432,0.432-0.72,0.72c-7.632,0.288-7.632,0.288-8.856,0
		c-9.36-0.432-9.36-0.432-19.656-0.432c-2.448-0.504-2.448-0.504-9.648-1.008c-1.872,0.072-3.816,0.144-5.76,0.288
		c-1.944,0.288-3.96,0.576-5.976,0.936c-1.656-0.216-1.656-0.216-8.136-0.216C39.744,122.4,39.744,122.4,37.08,122.4L37.08,122.4z
		 M97.56,117.36c-0.72-0.288-5.04-0.288-5.976-0.504c-26.136-0.936-27.576-1.224-30.024-1.224
		c-5.184-0.576-10.368-1.224-15.552-1.872c-1.224-0.504-1.224-0.504-9.36-1.944c-1.008-0.792-2.088-1.584-3.168-2.376
		c-0.72-0.792-1.44-1.584-2.16-2.448c-1.512-1.224-3.024-2.52-4.536-3.816c-1.224-1.44-2.52-2.88-3.816-4.32
		c-2.448-1.944-2.448-1.944-6.48-5.976c-1.44-1.944-1.44-1.944-1.728-3.024c4.248,0.576,8.496,1.152,12.744,1.8
		c3.888,0.0721,7.776,0.144,11.736,0.216c9.144,1.008,9.144,1.008,15.624,1.44c11.736-0.216,11.736-0.216,25.704,0
		c5.904-0.216,11.808-0.432,17.712-0.72c2.016,0.0721,4.032,0.144,6.048,0.288c0.36,0.144,0.72,0.2881,1.152,0.432
		c19.944-0.432,26.64-0.216,59.328-0.936c6.48,0.216,47.736-0.216,50.616-0.504c6.48,0,12.96,0,19.44,0
		c2.448-0.288,4.896-0.576,7.416-0.936c5.4,0.0721,10.872,0.144,16.344,0.216c12.744,0.72,12.744,0.72,13.464,0.504
		c15.12,0,16.776-0.216,56.16-0.216c12.24,0.216,12.24,0.216,13.896,0.432c1.8,3.024,1.8,3.024,5.616,10.728
		c1.368,1.5121,2.736,3.024,4.104,4.536c0,0.144,0,0.288,0,0.504c-1.152,0.936-2.376,1.872-3.6,2.88
		c-0.576,0.792-1.152,1.656-1.8,2.52c-2.592,0.432-5.256,0.936-7.92,1.44c-2.16,0-2.16,0-5.04,0.432
		c-3.096-0.216-6.264,0-10.8-0.216c-2.664,0.216-5.4,0.432-8.136,0.72c-11.952,0.288-23.976,0.576-36,0.936
		c-13.464-0.216-29.808,0-32.688-0.216c-4.392,0.144-8.784,0.288-13.176,0.504c-2.52-0.216-5.112-0.432-7.704-0.72
		c-0.72-0.504-0.72-0.504-1.656-0.504c-0.144,0.144-0.288,0.288-0.504,0.504c-0.936,0.216-1.872,0.432-2.88,0.72
		c-18.432,0-18.432,0-27.36-0.288c-10.512,0.504-10.512,0.504-32.4,0.72c-6.48-0.216-6.48-0.216-16.992,0
		c-1.944,0.288-1.944,0.288-12.96,0.288c-0.72-0.144-1.44-0.288-2.16-0.504c-5.76-0.216-5.76-0.216-27.144,0.216
		C100.008,117.36,100.008,117.36,97.56,117.36L97.56,117.36z M54.864,91.44c-1.224-0.288-4.536-0.288-13.464-1.224
		C28.728,90,28.728,90,28.224,89.712c-4.824-0.432-5.544-0.72-11.016-1.152c-0.288-0.144-0.648-0.288-1.008-0.504
		c-0.576,0-1.224,0-1.872,0c-0.144,0.144-0.288,0.288-0.504,0.504c-0.504-0.144-0.504-0.144-5.76-5.328
		c-0.936-1.44-0.936-1.44-1.08-2.448c2.52-0.144,2.52-0.144,10.44,0.288C17.712,81.36,18,81.72,18.36,82.08
		c1.44,0,1.728-0.36,3.888-0.504c0.792,0.144,1.584,0.288,2.376,0.504c15.624,0.72,15.624,0.72,39.096,1.152
		c3.6-0.216,3.6-0.216,38.16-0.432c2.376,0.144,4.752,0.36,7.2,0.576c0,0.216,0,0.432,0,0.72c-2.304,0.36-4.608,0.7921-6.984,1.224
		c-0.36,0.72-0.36,0.72-0.36,1.44c1.368,0.792,1.368,0.792,3.024,1.08c2.016-0.072,4.032-0.144,6.048-0.288
		c0.36-0.288,0.72-0.576,1.152-0.936c0-0.36,0.072-0.72,0.144-1.08c-0.72-0.432-1.512-0.864-2.304-1.296
		c-0.072-0.288-0.144-0.576-0.216-0.864c6.624-0.072,13.248-0.216,19.944-0.36c1.44-0.144,2.88-0.288,4.32-0.504
		c1.584,0.072,3.168,0.144,4.752,0.288c12.744-0.504,12.744-0.504,26.424-0.504c0.36-0.144,0.792-0.288,1.224-0.504
		c13.68,0.288,13.68,0.288,18.216,0.648c-0.072,0.432-0.216,0.936-0.36,1.44c-1.08,1.584-2.232,3.168-3.384,4.824
		c0,0.72,0.5041,1.152,0.36,1.512c-1.008,0-2.016,0-3.096-0.072c0.216-0.72,0.504-1.44,0.792-2.16
		c0.7921-1.152,1.584-2.376,2.4481-3.6c0-0.2881,0.072-0.648,0.144-1.0081c-0.432,0.0721-0.936,0.216-1.44,0.36
		c-0.936,1.08-1.872,2.232-2.88,3.384c-0.216,0-0.432,0.072-0.72,0.144c0.144-0.72,0.36-1.44,0.576-2.16
		c-0.072-0.288-0.216-0.576-0.36-0.864c-0.216,0-0.432,0-0.72,0c-0.936,1.368-1.872,2.736-2.808,4.176
		c-0.144,0.72-0.288,1.44-0.432,2.16c-8.208,0.144-16.416,0.36-24.624,0.576c-25.416-0.216-28.8,0-37.656-0.216
		c-3.6,0.216-4.536,0-37.656,0.504C59.4,91.152,57.744,91.44,54.864,91.44L54.864,91.44z M182.304,90.576
		c0-0.288,0-0.576,0.072-0.936c1.008-1.224,1.944-3.096,2.88-4.104c0.432-1.008,0.936-2.016,1.44-3.096
		c0.648-0.144,1.368-0.288,2.088-0.504c-0.072,0.36-0.216,0.7921-0.36,1.224c-0.648,0.792-1.296,1.584-1.944,2.376
		c-0.936,1.944-0.936,1.944-2.88,4.608C183.168,90.288,182.736,90.432,182.304,90.576L182.304,90.576z M187.344,90.432
		c0-0.648-0.072-1.296-0.144-2.016c0.288-0.72,0.576-1.44,0.936-2.16c0.648-0.792,1.296-1.584,1.944-2.376
		c0.216-1.224,0.216-1.224,0-1.944c1.08-0.144,1.08-0.144,3.384,0.288c0,0.216,0,0.432,0,0.72c-0.648,1.008-1.296,2.016-1.944,3.096
		c-0.864,0.936-1.728,1.872-2.664,2.88c-0.432,1.224-0.432,1.224-0.792,1.512C187.848,90.432,187.632,90.432,187.344,90.432
		L187.344,90.432z M174.888,90.216c0-0.216-0.072-0.504-0.144-0.792c0.288-0.504,0.576-1.008,0.864-1.584
		c0.216,0,0.432-0.072,0.72-0.144c0,0.792,0,1.584,0.072,2.448C175.896,90.144,175.392,90.144,174.888,90.216L174.888,90.216z
		 M191.16,90.36c0.0721-0.432,0.216-0.936,0.36-1.44c0.648-0.72,1.296-1.44,1.944-2.16c1.872-3.6,1.872-3.6,2.016-4.536
		c0.72,0.072,1.512,0.144,2.304,0.216c0,0.288,0,0.576,0,0.936c-3.888,4.824-3.888,4.824-5.184,6.84
		C192.168,90.216,191.664,90.288,191.16,90.36L191.16,90.36z M199.368,90.36c0.072-0.72,0.144-1.44,0.288-2.16
		c1.2961-1.584,2.592-3.168,3.888-4.824c0.072-0.432,0.216-0.864,0.36-1.296c0.864,0,1.8,0.072,2.736,0.144
		c0,0.72-0.504,1.152-0.936,2.16c-0.504,0.4319-2.448,4.32-3.384,5.472C201.384,90,200.376,90.144,199.368,90.36L199.368,90.36z
		 M195.984,90c0-0.288-0.072-0.576-0.144-0.864c0.432-0.648,0.864-1.296,1.368-1.944c0.216-0.072,0.432-0.144,0.72-0.216
		c-0.288,0.792-0.576,1.584-0.864,2.448C196.2,90.144,196.2,90.144,195.984,90L195.984,90z M205.344,90
		c0-0.288-0.072-0.576-0.144-0.864c0.936-2.16,0.936-2.16,3.816-6.696c0.936,0,1.872,0,2.808,0
		c-1.944,2.016-1.944,2.016-4.824,5.832c-0.288,0.576-0.576,1.152-0.936,1.728C205.848,90,205.632,90,205.344,90L205.344,90z
		 M208.728,90.144c0.072-0.36,0.144-0.792,0.288-1.224c0.288-0.36,0.648-0.792,1.008-1.224c0.288,0,0.576,0,0.864,0
		c-0.36,0.72-0.792,1.512-1.224,2.304C209.376,90,209.088,90.072,208.728,90.144L208.728,90.144z M212.544,90
		c0-0.36-0.072-0.72-0.144-1.08c3.816-4.824,3.816-4.824,4.68-6.408c3.888,0,7.488-0.432,23.76-0.432
		c0.72-0.288,0.72-0.288,6.264-0.504c6.264,0.216,6.264,0.216,15.84,0c2.304,0.144,4.608,0.36,6.984,0.576
		c-0.288,0.36-0.288,0.36-2.88,0.648c-8.928,0-17.928,0-26.928,0c-2.376,0.936-2.376,0.936-2.736,1.296
		c-0.504,1.44-0.504,1.44-0.864,5.4c-0.792,0.144-1.584,0.288-2.376,0.504C226.944,90,219.744,90,212.544,90L212.544,90z
		 M324.864,89.712c-25.704-0.216-25.704-0.216-41.544-0.072c0.864-2.376,0.864-2.376,0.864-3.6c-0.36-0.36-0.72-0.792-1.08-1.224
		c-4.104-1.8-4.104-1.8-4.824-1.872c0-0.216,0-0.432,0-0.72c0.792-0.144,1.584-0.288,2.448-0.432c7.416,0,12.24-0.432,16.056-0.432
		c1.512-0.288,3.024-0.648,4.536-1.008c10.368-0.432,16.56-0.216,23.04-0.432c7.488,1.872,8.64,2.376,10.08,2.592
		c1.44,0.792,2.88,1.584,4.32,2.448c0.576,1.152,1.152,2.304,1.8,3.456c0,0.288,0,0.576-0.072,0.864
		C334.224,89.712,334.224,89.712,324.864,89.712L324.864,89.712z M261.288,88.272c-0.432-0.576-0.432-0.576-0.72-2.7361
		c15.336-0.36,15.336-0.36,17.496-0.144c0.936,0.288,1.872,0.648,2.88,1.008c0,0.288,0,0.576,0.0721,0.864
		C269.64,88.056,269.64,88.056,261.288,88.272L261.288,88.272z M41.4,87.552c-1.44-0.432-1.44-0.432-1.872-0.936
		c-0.144-1.08-0.144-1.08,0.288-2.0161c2.736,0,5.544,0,8.352,0.0721c0.576,0.144,1.224,0.288,1.872,0.504
		c0,0.432,0.072,0.864,0.144,1.368c-1.08,0.792-1.08,0.792-2.016,1.008C45.936,87.552,43.704,87.552,41.4,87.552L41.4,87.552z
		 M211.32,86.832c-0.144-0.144-0.288-0.288-0.432-0.432c0.36-0.36,0.72-0.792,1.152-1.224c0.216,0,0.432,0.072,0.72,0.144
		C212.328,85.824,211.824,86.328,211.32,86.832L211.32,86.832z M199.368,85.104c0.216-0.864,0.432-1.728,0.72-2.664
		c0.432-0.072,0.936-0.144,1.44-0.216c0,0.288-0.072,0.576-0.144,0.936C199.944,84.816,199.944,84.816,199.368,85.104
		L199.368,85.104z M272.088,82.656c0-0.216,0-0.432,0-0.72c2.16,0.36,2.16,0.36,1.872,0.576
		C273.384,82.512,272.736,82.584,272.088,82.656L272.088,82.656z M118.728,81.36c-6.048-0.216-12.168-0.432-18.288-0.72
		c-3.6,0.216-9.576,0-34.056,0.144c0.072-2.16,0.072-2.16-0.36-3.6c-1.008-1.44-1.008-1.44-2.16-4.104c0-0.36,0-0.792,0.072-1.224
		c1.008-0.36,1.008-0.36,7.488-1.296c4.32-0.072,8.64-0.144,12.96-0.288c0.648,0.792,1.296,1.584,1.944,2.448
		c0.72,1.584,1.44,3.24,2.232,4.896c0.576,0.72,1.152,1.512,1.8,2.304c0.288,0,0.648,0,1.008,0c0.216-0.72,0.504-1.512,0.792-2.304
		c-0.072-0.36-0.144-0.72-0.216-1.152c-0.36-0.36-0.792-0.792-1.224-1.224c-2.88-5.256-2.88-5.256-3.384-5.76
		c0-0.36,0-0.792-0.072-1.224c4.536-0.864,4.536-0.864,7.704-1.08c1.512,0.144,3.024,0.288,4.536,0.504
		c1.224-0.288,1.224-0.288,14.184-0.288c0.504,0.216,1.08,0.432,1.656,0.648c0.216,0.72,0.504,1.44,0.792,2.16
		c0.936,1.584,1.872,3.168,2.88,4.824c1.944,2.16,1.944,2.16,3.024,2.952c0.288,0,0.648,0,1.008,0c0.216-0.36,0.432-0.72,0.72-1.08
		c-0.288-0.504-0.648-1.008-1.008-1.584c-0.432-0.288-0.936-0.576-1.44-0.936c-1.008-1.656-2.016-3.384-3.024-5.112
		c0-0.36,0.072-0.72,0.144-1.152c3.888,0.288,11.808,0.288,24.768,1.224c0.864,2.448,1.8,4.896,2.736,7.344
		c0.936,1.44,0.936,1.44,1.8,2.232c0.288,0,0.576,0,0.936,0c0.072-0.144,0.216-0.36,0.36-0.576c-0.072-0.432-0.144-0.936-0.216-1.44
		c-0.504-0.432-0.504-0.432-1.44-2.592c0-0.36-0.072-0.792-0.144-1.224c1.008,0.072,1.008,0.072,3.384,1.296
		c1.584-0.072,3.168-0.144,4.824-0.216c1.8-0.288,3.6-0.648,5.472-1.008c8.424-0.432,8.424-0.432,12.24-0.216
		c0.504,0.576,0.504,0.576,1.2961,3.528c1.08,1.152,1.08,1.152,1.872,1.512c0.72,0,0.72,0,1.008-0.36c0-0.432,0-0.936,0-1.44
		c-0.936-0.936-0.936-0.936-1.44-2.16c0-0.432,0.072-0.864,0.144-1.296c2.088-0.144,4.176-0.288,6.264-0.504
		c6.048-0.072,12.096-0.144,18.216-0.216c0.36,0.864,0.864,6.336,1.296,7.344c0,0.144,0,0.36-0.072,0.576
		c-4.536,0.216-14.4,0-15.84,0.216c-5.544-0.144-11.16-0.288-16.776-0.504c-6.048,0.288-6.048,0.288-7.92,0.72
		c-4.968,0-9.936,0-14.904,0C137.16,80.64,127.944,81,118.728,81.36L118.728,81.36z M59.904,80.856
		c-10.8-0.216-14.4-0.504-19.44-0.504c-0.432-0.072-0.936-0.144-1.44-0.216c-1.224-1.44-1.224-1.44-2.808-4.392
		c0-0.36,0-0.792-0.072-1.224c3.816-0.432,7.632-0.864,11.52-1.368c0.648-0.216,1.296-0.432,1.944-0.72
		c3.888-0.072,7.776-0.144,11.736-0.216c0.792,2.088,2.736,5.688,3.24,7.344c0.216,0.288,0.432,0.576,0.72,0.936
		c-0.144,0.072-0.36,0.216-0.576,0.36C63.144,80.856,61.56,80.856,59.904,80.856L59.904,80.856z M214.2,80.352
		c-3.672-0.144-7.344-0.36-11.016-0.576c0.072-0.72,0.36-0.936,0.36-5.256c-0.072-0.72-0.144-1.44-0.288-2.16
		c0.432-0.36,0.432-0.36,2.808-0.648c0.648-0.936,1.296-1.944,1.944-2.952c1.224-2.664,2.448-5.4,3.672-8.136
		c0.936-1.584,1.872-3.168,2.808-4.752c4.032,0,4.032,0,8.136-0.432c3.6-1.944,3.6-1.944,4.824-2.88
		c0.288-0.576,0.288-0.576,0.792-3.744c0.072-2.52,0.144-5.04,0.216-7.632c-0.576-1.656-1.224-3.312-1.872-5.04
		c-0.36-0.648-0.792-1.296-1.224-1.944c0-0.504,0-1.08,0-1.656c0.144-0.288,0.288-0.648,0.504-1.008
		c1.44-0.432,2.952-0.864,4.464-1.296c0.144-0.144,0.288-0.288,0.432-0.504c0.072-2.592,0.216-5.184,0.36-7.776
		c0.288-0.504,0.576-1.008,0.864-1.584c0.936-0.216,0.936-0.216,7.2-0.072c0.576,6.48,0.576,6.48,1.512,26.352
		c0.504,1.0081,0.504,1.0081,1.44,1.944c3.312,0.7921,3.312,0.7921,8.568,1.296c2.808,0,5.616,0,8.424,0
		c2.376,0.504,2.376,0.504,5.976,0.72c2.664-0.216,3.6,0,10.296,0c7.704,0.504,7.704,0.504,10.368,0.936
		c0.216,0.216,0.432,0.432,0.72,0.648c0.288,1.224,0.288,1.224,0.288,7.2c0.648,3.6,1.2961,7.2,1.944,10.8
		c0.432,1.08,0.936,2.232,1.44,3.384c0.648,0.792,1.2961,1.584,1.944,2.376c2.592,1.944,2.592,1.944,4.464,2.952
		c-0.288,0.288-0.288,0.288-7.704,1.008c-5.544,0-6.984-0.288-9.36,0c-11.52,0-14.4-0.288-34.56-0.504
		c-1.44,0.144-2.88,0.288-4.32,0.504c-11.52,0.216-11.52,0.216-15.12,0c-1.008,0.144-2.016,0.288-3.096,0.432
		C219.672,80.352,216.936,80.352,214.2,80.352L214.2,80.352z M27.72,79.92c-4.032-0.504-4.032-0.504-8.64-1.44
		c0-0.432-0.072-0.864-0.144-1.296c1.368-0.432,1.368-0.432,8.064-0.864c4.32-1.008,4.32-1.008,6.48-1.224
		c0.576,1.08,1.152,2.16,1.8,3.24c0.072,0.36,0.144,0.792,0.216,1.224c-0.432,0.072-0.864,0.216-1.296,0.36
		C32.04,79.92,29.88,79.92,27.72,79.92L27.72,79.92z M297,76.32c-0.936-0.648-1.872-1.296-2.8799-1.944
		c-2.16-2.664-2.16-2.664-3.024-4.392c-0.936-3.888-0.936-3.888-2.16-12.24c0.144-1.368,0.288-2.736,0.504-4.104
		c0.2881-0.072,0.576-0.144,0.864-0.216c0.792,5.256,0.792,5.256,2.736,13.896c0.648,1.512,1.2961,3.024,1.944,4.536
		c0.936,1.296,1.872,2.592,2.88,3.888c0,0.144-0.072,0.36-0.144,0.576C297.504,76.32,297.288,76.32,297,76.32L297,76.32z
		 M12.6,74.736c0-0.792,0-1.584,0-2.376c0.432,0.432,0.864,0.936,1.296,1.44c0,0.216,0,0.504-0.072,0.792
		C13.464,74.592,13.032,74.664,12.6,74.736L12.6,74.736z M16.488,74.016c-1.872-3.096-3.744-5.472-6.624-10.512
		c0-1.224,0-1.224,0.36-1.584c0.936-0.288,0.936-0.288,10.08-0.288c0.648,0.144,1.296,0.288,1.944,0.504
		c1.728,5.184,3.672,10.008,3.888,11.16c-1.008,0.36-1.008,0.36-6.768,0.864C18.432,74.16,17.496,74.088,16.488,74.016
		L16.488,74.016z M28.944,72.936c-0.432-0.6479-0.864-1.296-1.368-2.016c-0.792-1.944-1.584-3.96-2.376-5.976
		c-0.144-0.864-0.36-1.728-0.576-2.664c2.16,0.072,2.16,0.072,3.096,0.36c1.8,4.176,1.8,4.176,4.176,8.28
		c0.072,0.432,0.144,0.936,0.288,1.44C31.608,72.72,31.608,72.72,28.944,72.936L28.944,72.936z M151.56,72.216
		c-0.72-0.288-1.44-0.576-2.16-0.936c-1.296-1.224-2.664-2.448-4.032-3.744c-0.072-0.576-0.144-1.224-0.288-1.8719
		c9.648,0.576,9.648,0.576,25.704,0.792c0.504,0.576,0.504,0.576,1.296,3.24c0,0.288,0,0.576-0.072,0.864
		c-3.024,0.144-6.048,0.288-9.144,0.432C159.12,71.352,155.376,71.784,151.56,72.216L151.56,72.216z M34.704,71.712
		c-1.224-1.944-2.448-3.888-3.744-5.832c-0.144-1.008-0.36-2.016-0.576-3.096c5.256-0.144,5.256-0.144,7.2,0.072
		c0.792-0.144,1.584-0.288,2.376-0.504c3.96,0,7.992,0,12.024-0.072c0.792,3.096,1.8,5.256,2.016,6.984
		c-7.056,0.792-7.056,0.792-9.432,1.296c-0.576,0.288-1.152,0.576-1.728,0.936C40.176,71.568,37.44,71.64,34.704,71.712
		L34.704,71.712z M180.144,70.272c-0.36,0-0.792,0-1.224-0.072c0-1.008-0.072-2.016-0.144-3.096c4.104,0,8.208,0,12.384,0
		c-0.144,2.376-0.144,2.376-0.4319,2.736C185.4,70.272,185.4,70.272,180.144,70.272L180.144,70.272z M174.6,69.552
		c-0.288-0.432-0.576-0.864-0.936-1.2961c0-0.36-0.072-0.72-0.144-1.152c0.432,0,0.864-0.072,1.368-0.144
		c0.288,0.576,0.288,0.576,0.072,2.52C174.888,69.48,174.744,69.48,174.6,69.552L174.6,69.552z M56.808,68.472
		c-0.864-1.584-1.728-3.168-2.592-4.752c0-0.504,0.072-1.08,0.144-1.656c1.152,0,2.376-0.072,3.6-0.144
		c0.864,3.24,1.8,5.184,1.8,6.12c-0.504,0.144-1.008,0.36-1.512,0.576C57.816,68.616,57.312,68.544,56.808,68.472L56.808,68.472z
		 M62.064,68.04c-0.432-1.584-0.864-3.168-1.368-4.824c0-0.432,0.072-0.864,0.144-1.296c1.368-0.144,2.736-0.288,4.104-0.504
		c3.672,0,7.344,0,11.016-0.072c0.576,1.728,1.152,3.456,1.8,5.256c0,0.36,0,0.72-0.072,1.08c-1.224,0.216-5.76,0.216-6.48,0.432
		C68.184,68.112,65.16,68.112,62.064,68.04L62.064,68.04z M80.568,67.68c-1.008-1.584-1.008-1.584-2.808-5.616
		c0.072-0.288,0.216-0.576,0.36-0.864c0.648,0.072,1.296,0.144,1.944,0.216c0.792,1.512,1.656,3.096,2.52,4.68
		c0,0.36-0.072,0.72-0.144,1.08C81.288,67.68,81.288,67.68,80.568,67.68L80.568,67.68z M137.448,66.672
		c0-0.216-0.072-0.504-0.144-0.7921c0.144-0.2159,0.36-0.4319,0.576-0.6479c0.648,0,1.296,0.072,1.944,0.144c0,0.36,0,0.72,0,1.08
		C139.032,66.528,138.24,66.6,137.448,66.672L137.448,66.672z M85.32,65.736c-0.72-1.152-1.512-2.304-2.304-3.456
		c0-0.36,0-0.792-0.072-1.224c4.536,0.36,4.536,0.36,12.744,0.36c0.216,0.072,0.432,0.216,0.72,0.36
		c-1.008,1.08-1.008,1.08-4.824,3.456C89.496,65.376,87.408,65.52,85.32,65.736L85.32,65.736z M117.72,65.88
		c0.072-0.36,0.216-0.792,0.36-1.224c0.72-0.432,1.512-0.864,2.304-1.296c0.432,0,0.936,0.072,1.44,0.144
		c0,0.216,0,0.432,0.072,0.72c-0.792,0.432-1.584,0.936-2.376,1.44C118.944,65.736,118.368,65.808,117.72,65.88L117.72,65.88z
		 M97.56,65.52c-0.072-0.288-0.216-0.576-0.36-0.864c1.512-0.936,3.096-1.872,4.68-2.88c0.864,0,1.728,0,2.664,0
		c-0.072,0.288-0.216,0.648-0.36,1.008c-0.792,0.432-1.584,0.936-2.448,1.44c-0.432,0.72-0.432,0.72-1.008,1.008
		C99.72,65.304,98.64,65.376,97.56,65.52L97.56,65.52z M173.16,65.016c-7.92-0.288-15.84-0.576-23.76-0.936
		c-1.944-0.288-3.96-0.648-5.976-1.008c0-0.864-0.072-1.8-0.144-2.736c0.36-1.368,0.72-2.736,1.08-4.104
		c4.176-0.072,8.352-0.216,12.528-0.36c3.816,0.288,5.256,0,12.96,0c3.6-0.432,3.6-0.432,5.472-0.216
		c0,0.936,0.072,1.872,0.144,2.808c-0.504,2.592-0.504,2.592-0.504,6.192C174.384,64.728,173.808,64.872,173.16,65.016
		L173.16,65.016z M182.52,65.016c-1.224,0-2.5201,0-3.816-0.072c-0.072-0.7921-0.216-1.584-0.36-2.448
		c0-2.232,0.072-4.464,0.144-6.696c6.696,0.072,6.696,0.072,13.608,0.72c0,0.504,0.072,1.08,0.144,1.656
		c-0.288,2.232-0.576,4.464-0.936,6.768C188.424,64.944,185.472,64.944,182.52,65.016L182.52,65.016z M139.608,63.072
		c-0.576-0.072-1.224-0.144-1.872-0.288c0-0.576,0-1.152,0-1.728c0.504-1.656,1.008-3.312,1.584-5.04
		c0.792-0.072,1.584-0.144,2.448-0.216c-0.432,2.304-0.864,4.608-1.368,6.984C139.824,63.216,139.824,63.216,139.608,63.072
		L139.608,63.072z M126.144,61.632c-0.36,0-0.792,0-1.224-0.072c0.072-0.288,0.216-0.576,0.36-0.936
		c3.168-1.584,6.336-3.168,9.504-4.752c0.504,0,1.08,0,1.656-0.072c-0.072,0.216-0.144,0.504-0.216,0.792
		c-1.872,0.936-3.816,1.872-5.76,2.88c-1.656,1.44-1.656,1.44-2.88,1.944C127.152,61.488,126.648,61.56,126.144,61.632
		L126.144,61.632z M107.64,59.76c0-0.288-0.072-0.576-0.144-0.864c3.528-1.8,3.528-1.8,6.408-3.744c0.504,0,1.08,0,1.656,0
		c0.072,0.072,0.144,0.216,0.288,0.36c-0.504,0.648-0.504,0.648-5.76,3.528C109.296,59.256,108.504,59.472,107.64,59.76
		L107.64,59.76z M187.344,54.432c-1.08-0.216-2.232-0.504-3.384-0.792c0.72-0.36,0.72-0.36,6.768-0.648
		c0.936,0.288,0.936,0.288,12.96,0.288c2.376-0.504,2.376-0.504,5.04-0.504c0.36,0.36,0.72,0.72,1.1519,1.08
		c-0.072,0.072-0.144,0.216-0.216,0.36C201.24,54.432,198.36,54.216,187.344,54.432L187.344,54.432z M150.408,54.216
		c-11.736-0.432-23.472-0.936-35.28-1.44c-1.512-0.144-3.024-0.36-4.608-0.576c0.072-0.36,0.216-0.792,0.36-1.224
		c1.368-0.864,1.368-0.864,3.744-1.8c4.104,0.216,4.104,0.216,12.456,1.224c1.512,0.288,3.024,0.576,4.608,0.936
		c13.176,0.504,13.176,0.504,18.216,0.936c1.656,0.504,1.656,0.504,5.256,1.008c6.984,0.216,6.984,0.216,7.488,0.432
		C162.36,54,162.36,54,150.408,54.216L150.408,54.216z M180.36,54c-0.216-0.072-0.432-0.216-0.72-0.36
		c0.72-0.36,0.72-0.36,2.664-0.36c0.144,0.072,0.288,0.216,0.504,0.36c-0.072,0.072-0.144,0.216-0.288,0.36
		C181.8,54,181.08,54,180.36,54L180.36,54z M163.584,51.84c-0.792-0.144-1.584-0.288-2.376-0.504
		c-3.096-0.072-6.192-0.144-9.36-0.216c-0.936-0.216-1.872-0.432-2.88-0.72c-5.4-0.216-10.872-0.432-16.344-0.72
		c-5.544-1.008-5.544-1.008-10.8-1.44c-0.792-0.288-1.656-0.576-2.52-0.864c0-0.216,0-0.4319,0.072-0.72
		c3.24-1.872,15.624-7.56,19.224-9.504c1.44-0.432,7.2-0.936,10.584-1.656c3.312,0,6.696,0,10.08,0
		c1.224,0.144,2.52,0.288,3.816,0.504c7.272,0.216,14.544,0.432,21.888,0.72c18.936-1.008,18.936-1.008,22.536-1.44
		c0.36-0.144,0.792-0.288,1.224-0.504c2.52-3.744,5.04-7.56,7.632-11.376c1.224-2.592,2.448-5.256,3.744-7.92
		C223.92,9,223.92,9,227.304,2.52c0.864-0.144,0.864-0.144,2.016,0.36c0.36,0.576,0.36,0.576,1.296,6.336
		c-0.072,1.8-0.144,3.672-0.216,5.544c-0.216,0.144-0.432,0.288-0.72,0.504c-0.072,1.224-0.144,2.52-0.216,3.816
		c-1.296,2.88-2.592,5.76-3.888,8.64c-2.376,3.096-2.376,3.096-3.096,4.536c0,0.792,0,1.584,0,2.448
		c0.648,1.008,1.296,2.016,1.944,3.096c0.432,1.152,0.936,2.376,1.44,3.6c0.216,1.944,0.216,1.944-0.288,7.704
		c-0.144,0.432-0.288,0.936-0.432,1.44c-5.616,0.288-5.616,0.288-8.064,0.792c-3.456-0.144-6.984-0.288-10.512-0.504
		c-1.728,0.144-3.528,0.288-5.328,0.504c-11.5201-0.216-11.5201-0.216-22.536,0c-1.944,0.144-3.96,0.288-5.976,0.504
		C169.704,51.84,166.68,51.84,163.584,51.84L163.584,51.84z M283.824,49.176c-1.944-0.216-3.96-0.432-5.976-0.72
		c-5.4-0.072-10.872-0.144-16.344-0.216c-0.864-0.144-1.728-0.288-2.664-0.504c-2.304,0-4.608,0-6.912,0
		c-2.592-0.288-5.256-0.576-7.92-0.936c-0.2881-0.36-0.576-0.72-0.864-1.08c-0.144-0.792-0.288-1.584-0.504-2.376
		c-0.504-11.52-0.504-11.52-0.504-22.608c0.144-0.072,0.288-0.216,0.432-0.36c5.256-0.216,16.992,0.216,34.056,0
		c0.144,0.144,0.288,0.36,0.504,0.576c1.728,6.768,2.736,9.648,5.616,22.104c1.872,5.328,1.872,5.328,1.8,6.12
		C284.328,49.176,284.112,49.176,283.824,49.176L283.824,49.176z M287.928,47.592c-0.864-1.368-0.864-1.368-2.808-6.696
		c-1.44-5.976-1.944-6.912-2.88-10.296c-0.936-2.16-1.44-4.32-1.944-5.256c-0.288-1.728-0.648-3.528-1.008-5.328
		c0.504,0,1.08,0.072,1.656,0.144c0.216,0.432,0.5041,0.864,0.7921,1.296c2.232,8.136,4.464,16.272,6.768,24.48
		c0,0.576,0,1.152,0,1.7281C288.144,47.88,288.144,47.88,287.928,47.592L287.928,47.592z M178.92,34.992
		c-1.44-0.072-2.88-0.144-4.32-0.216c-0.504-0.792-1.08-1.656-1.656-2.52c-0.072-0.504-0.144-1.08-0.216-1.656
		c1.296,0.072,2.664,0.216,4.032,0.36c3.816-0.072,7.632-0.144,11.52-0.288c1.152,0.144,2.376,0.288,3.6,0.504
		c0.432,0.792,0.864,1.656,1.2961,2.52c0,0.36,0,0.72-0.072,1.08C188.424,34.848,183.672,34.92,178.92,34.992L178.92,34.992z
		 M195.984,34.56c-0.432-0.792-0.936-1.656-1.44-2.52c0-0.36,0-0.792,0-1.224c4.824-0.144,5.976,0.144,9.144,0.144
		c0.576-0.144,1.224-0.288,1.872-0.504c0.936,0,1.872,0.072,2.88,0.144c-0.072,0.504-0.216,1.08-0.36,1.656
		c-0.288,0.288-0.576,0.648-0.936,1.008c-2.232,0.432-4.536,0.864-6.84,1.296C198.864,34.56,197.424,34.56,195.984,34.56
		L195.984,34.56z M161.928,34.272c-4.392-0.144-8.784-0.36-13.248-0.576c0.36-0.936,0.36-0.936,2.448-3.456
		c6.12,0.144,12.24,0.288,18.432,0.432c0.432,0.936,0.864,1.872,1.296,2.808c0,0.216,0,0.504-0.072,0.792
		C167.832,34.272,164.88,34.272,161.928,34.272L161.928,34.272z M243,18.144c0-0.216,0-0.432,0-0.72
		c3.384,0.072,3.384,0.072,3.6,0.288C246.384,18,246.384,18,243,18.144L243,18.144z"/>
</g>
</svg>
