<?xml version="1.0" encoding="utf-8"?>
<!-- Generator: Adobe Illustrator 21.1.0, SVG Export Plug-In . SVG Version: 6.00 Build 0)  -->
<svg version="1.1" id="Chr" xmlns="http://www.w3.org/2000/svg" xmlns:xlink="http://www.w3.org/1999/xlink" x="0px" y="0px"
	 viewBox="0 0 516.0864 282.1258" enable-background="new 0 0 516.0864 282.1258" xml:space="preserve">
<g>
	<path fill-rule="evenodd" clip-rule="evenodd" d="M135.8901,282.1258c-3.2431-0.1122-6.4956-0.2228-9.7532-0.3325
		c-30.0898-1.0162-60.7008-2.0503-90.1312-5.4283l-0.0224-0.004c-5.0119-1.0596-9.7889-2.4625-14.4125-3.8206
		c-3.5546-1.0439-7.0197-2.0624-10.4343-2.8766l-0.1341-0.032l-0.0445-0.133c-0.1222-0.3668-0.2441-0.735-0.324-1.059
		c-1.241-0.0859-1.4896-0.9737-1.6322-1.4831l-0.0051-0.0209c-2.6694,0.0283-3.42,0.6829-4.5456,1.665
		c-0.5856,0.5117-1.2696,1.1083-2.3451,1.7538l-0.3779,0.2268v-0.4405v-0.576v-0.1131l0.087-0.0754
		c1.8828-1.6331,3.2635-2.5135,4.2318-3.1309c0.9369-0.5975,1.4675-0.9357,1.6659-1.4623c0.2704-0.7169,0.0156-1.9049-0.5704-4.6375
		c-0.1825-0.8527-0.3985-1.8582-0.6565-3.132l-0.0048-0.0312c-0.2543-3.4512-0.8756-6.8638-1.4836-10.2022
		c-0.597-3.2805-1.1817-6.4911-1.3961-9.595c-1.5789-11.5461-1.5191-23.0876-1.4615-34.1966
		c0.0096-1.9214,0.0198-3.8364,0.0201-6.0333l-2.077-1.8692L0,195.0115v-0.1106c0-1.9482,0.6571-2.7841,1.349-3.6637
		c0.3694-0.4697,0.7503-0.9536,1.0273-1.6388c0.0037-5.6511,0.6698-11.4995,1.6506-17.2125
		c0.9816-5.7189,2.2796-11.3063,3.541-16.4245l0.0088-0.0272c0.5352-1.4332,1.2453-3.3469,1.9661-5.29
		c3.8064-10.2609,7.6533-20.6306,12.0807-30.2236l0.0128-0.0235c1.8042-3.0073,2.086-3.475,2.2116-3.9569
		c-2.3193-0.131-3.9169-0.7449-4.9351-1.665c-0.9541-0.862-1.3989-1.9862-1.4513-3.2327c-0.0513-1.2209,0.2761-2.5588,0.8677-3.8786
		c1.3088-2.9208,3.9243-5.7787,6.5786-7.0906l0.0604-0.0204l1.8998-0.3903c8.9884-1.8499,20.8692-4.2956,29.6861-4.2956h0.1789
		l0.0572,0.1721c0.2568,0.771,0.2568,0.7713-0.0371,1.1633l-0.0652,0.0873l-0.1075,0.0114
		c-4.7758,0.5117-9.4178,1.2492-14.0372,1.9826c-5.1236,0.8141-10.2206,1.6237-15.4395,2.1172l-0.5993,0.2957
		c-5.8666,2.8922-7.0622,3.4826-7.0682,11.069c1.7719,3.9841,29.8565-2.3669,38.3207-4.2812
		c1.2812-0.2897,2.1183-0.4791,2.3578-0.5174l0.004-0.0009c9.6185-1.3688,19.3634-2.3057,29.2156-2.9539
		c9.8365-0.6475,19.7915-1.0078,29.8392-1.2237v-0.0003c5.7654-0.4822,11.6569-0.9136,17.5986-1.3482
		c13.4833-0.9861,27.231-1.9924,40.7115-3.6898l0.0215-0.002c9.7112-0.3594,19.5239-0.2202,29.3783-0.0805
		c13.8098,0.1958,27.7038,0.3929,41.5301-0.7835l0.0547,0.002c2.1302,0.2965,3.6374,1.3212,4.9019,2.1809
		c2.0203,1.3734,3.3738,2.2927,5.8023-1.529c-1.2662-3.3009-1.9072-3.5946-4.1687-4.6265l-0.1551-0.0706
		c-19.7288-2.1688-39.3825-0.7982-58.9158,0.5641c-5.6492,0.394-11.2884,0.7874-16.9418,1.0952
		c-11.5614,2.8542-24.1501,3.2681-36.4825,3.6726c-8.1953,0.269-16.2788,0.5346-23.8595,1.5109l-0.0145,0.002
		c-12.2502,0.8286-24.4789,1.6931-36.5981,2.7712c-12.1297,1.0789-24.1826,2.3746-36.0955,4.0657l-0.7532,0.1582
		c-4.2644,0.8969-8.8642,1.8647-12.966,1.933l-0.2911,0.0051l0.0403-0.2883c0.5204-3.7182,56.7737-7.3839,66.5768-8.0226
		l0.6092-0.0397c12.1635-1.6475,24.3661-2.3604,36.6265-3.0761c14.5276-0.8484,29.139-1.7022,43.8506-4.1213l0.034-0.0028
		c8.2329-0.199,16.5461-0.737,24.9273-1.2793c9.7427-0.6301,19.5792-1.2665,29.5365-1.3842
		c3.7003-1.3524,8.5717-0.5899,13.4385,0.1718c2.855,0.4464,5.7093,0.894,8.3015,0.9076c0.6168-0.777,1.6163-1.5389,2.6603-2.3346
		c2.3746-1.8099,4.9978-3.8106,3.4243-6.3419c-4.4634-1.0641-8.9994-1.857-13.5851-2.437
		c-6.3811-0.4107-12.7721-0.8359-18.9808-1.3184c-11.7927-0.2494-23.6905,0.381-35.3089,0.997
		c-7.2113,0.3824-14.3158,0.7591-21.238,0.9167c-0.4748,0.0198-0.9655,0.0372-1.4581,0.0545
		c-3.022,0.1068-6.1705,0.2185-8.5536,1.0128l-0.0683,0.0128c-12.7366,0.5037-25.0444,1.3856-37.2362,2.582
		c-12.1884,1.1962-24.2637,2.7083-36.5383,4.472l-0.0536,0.002c-0.9209-0.0706-1.7835-0.0709-2.6456-0.0709h-0.2489v-0.2501
		c0-2.1314,0.1148-4.3662,0.2301-6.6198c0.269-5.246,0.5434-10.6015-0.6137-14.8411c-1.9848-0.4011-7.3029,0.1219-12.8911,0.9471
		c-7.348,1.0854-15.1282,2.6847-16.4205,3.3902c-0.9031,4.6332-0.8263,9.0893-0.7467,13.6868
		c0.0502,2.9151,0.1015,5.8878-0.0924,8.9955l-0.0128,0.2078l-0.2058,0.0255c-0.794,0.0992-1.2419-0.9414-1.4556-2.6518
		c-0.5343-4.2752,0.2089-13.0488,0.6018-17.6893c0.1344-1.5905,0.2276-2.6932,0.2146-2.9333l-0.0091-0.1644l0.1477-0.0729
		c2.9789-1.4689,2.2833-8.8824,1.7138-14.9522c-0.3852-4.1049-0.7138-7.615,0.2441-8.494
		c1.4131-17.619,1.6997-17.7531,12.3636-22.6802c1.8417-0.851,3.9994-1.8479,6.5574-3.1216l0.0363-0.0145
		c7.9622-2.5115,16.003-5.2636,24.1013-8.0353c13.7529-4.7073,27.6752-9.4723,41.5653-13.1862
		c1.8921-2.3979,9.6367-1.4848,14.0099-0.9689c0.7988,0.0941,1.4842,0.1751,1.9962,0.2197l0.0184,0.0028
		c7.2442,1.1757,15.0188,1.3669,22.8932,1.5599c4.1655,0.1021,8.3599,0.2053,12.5056,0.4533l0.1463,0.0088l0.0635,0.1318
		c0.2557,0.5295,4.0325,1.1196,8.9096,1.8813c7.8239,1.222,18.4297,2.8792,22.4288,5.8699
		c1.7569,1.3142,2.2938,2.8738,0.8932,4.7464l-0.1642,0.0975c-1.0638,0.1595-2.7612,3.2227-4.394,7.0971
		c-1.0721,3.1669-2.1977,6.3391-3.3386,9.515c-0.7815,2.7788-1.2453,5.1432-1.1381,6.3374
		c1.9327,1.4947,5.0998,4.7744,8.0078,8.2434c2.596,3.0966,4.993,6.353,6.1317,8.636c0.7594,0.4913,1.4941,0.6542,2.1418,0.798
		c1.5897,0.3529,2.7117,0.6026,2.7391,4.4141c0.9638,0.5468,2.1164,1.1713,3.3823,1.8573
		c9.4533,5.1242,25.274,13.6993,25.274,24.2067l-0.0128,0.0771c-0.5757,1.766-2.0225,2.8057-3.3919,3.7902
		c-1.1954,0.8592-2.3306,1.6755-2.6824,2.8741c0.5453,0.4277,1.0729,1.0876,1.5621,1.8817
		c0.6055,0.9822,1.1591,2.1736,1.6274,3.3831l0.0723,0.187l-0.167,0.1106c-2.7122,1.7969-2.0707,4.4904-0.3027,7.1592
		c1.6796,2.5347,4.3674,5.0553,6.2425,6.8128l0.468,0.4393c1.8159,0.7475,3.5138,3.3687,5.3583,6.217
		c2.7122,4.1884,5.7524,8.8821,9.7458,8.5079l0.2123-0.0198l0.0521,0.2075c0.0573,0.229,0.1644,0.5134,0.2804,0.8056
		c23.3172-1.8312,47.4343,0.4425,71.386,2.7008c9.5091,0.8963,18.993,1.791,28.4043,2.425
		c0.7639-0.0176,1.5661-0.0338,2.3901-0.0496c9.0573-0.1747,21.0036-0.4054,28.0143-4.5655l0.6058-0.968
		c1.4414-2.3091,2.0673-3.312,3.1215-3.8229c0.8011-0.3883,1.7972-0.4612,3.556-0.5887c1.1753-0.0853,2.6986-0.1964,4.7463-0.4445
		c12.3194-2.3046,25.2641-3.8891,38.3309-5.0049c13.0615-1.1154,26.2625-1.7637,39.0903-2.196l0.0831,0.0116
		c0.3663,0.1162,0.7957,0.174,1.2379,0.233c1.4786,0.197,3.0966,0.4136,3.6812,2.7518l0.0455,0.1829l-0.1646,0.0941
		c-1.3541,0.7736-2.9738,0.9315-4.489,1.0783c-1.8677,0.1814-3.5702,0.3475-4.2533,1.6688
		c-0.1741,0.7764-1.6124,6.2668-2.8021,10.2728c-0.6287,2.1175-1.2051,3.8401-1.5236,4.2947
		c-0.6409,2.7246-1.7314,5.6058-2.8355,8.5227c-1.4842,3.9209-2.9945,7.9095-3.4515,11.6365
		c1.4874-0.036,3.3633-0.3444,5.3618-0.6729c3.1217-0.5136,6.5412-1.076,9.3087-0.7447c3.5571,0.4261,6.0329,2.2875,5.4794,7.4761
		c0.1661,0.0581,0.3447,0.1284,0.5615,0.2367l0.3093,0.1548l-0.2441,0.2443c-0.1236,0.1236-0.2483,0.2483-0.3005,0.4054
		l-0.0529,0.1582l-0.1647,0.0127c-0.7733,0.0593-2.4242,2.56-4.3719,6.1251c-1.1148,2.7703-2.694,5.7039-4.2863,8.6584
		l-0.5987,1.1109c-2.9857,6.3978-5.6111,12.7462-6.1461,14.8547h0.9845h0.2497l0.0002,0.25v0.504v0.2501h-0.2499
		c-2.128,0-7.6354,11.4009-12.2457,21.6462c-2.2728,5.3768-4.9119,11.5186-7.0864,16.2621
		c-1.7617,6.6767-4.848,13.2693-7.9525,19.8998c-3.2241,6.8859-6.4695,13.816-8.2576,20.9126
		c7.8862,0.5286,15.44,0.8821,23.053,0.9884c7.7134,0.1077,15.5021-0.0363,23.7795-0.504l0.1902,0.4255
		c-2.7099,2.7099-23.9996,1.4919-37.7938,0.7027c-4.5905-0.2627-8.3475-0.4779-10.3045-0.4853
		c-0.5505,0.4549-2.5966,0.8617-5.0746,1.1919c-4.4532,0.5939-10.3782,1.0032-11.2158,0.9681
		c-25.5289,2.9588-51.2822,2.1631-76.9649,1.37c-22.4124-0.6919-44.7724-1.3828-66.8834,0.4289h-0.0244
		c-4.919-0.1043-9.7546-0.1627-14.5397-0.2199c-3.4127-0.0411-6.8003-0.0819-10.1738-0.1389h-8.1856v-0.1794l-0.0207-0.0005
		l-0.0496,0.1692c-0.2582-0.0762-0.5256-0.1406-0.7977-0.1936c-8.4421-0.2491-16.8565-0.6934-25.4183-1.5956
		c-17.7661,0.0003-35.3457,1.0355-52.8613,2.0667c-16.4296,0.9672-32.8039,1.9315-49.2276,2.0361H135.8901L135.8901,282.1258z
		 M229.4096,79.5535c6.3811,0.1352,12.7332,0.5281,18.9967,1.3192l4.7985,0.3067c2.5486,0.1624,5.0876,0.3257,7.6053,0.4895
		c0.0225-1.5701-2.6016-4.1525-6.1534-6.9117c-6.5775-5.1094-16.2967-10.7319-18.5604-11.8899
		c-3.3928-1.1186-3.1487-1.7878-2.7964-2.7544c0.1715-0.4697,0.3775-1.0321-0.1279-1.8448
		c-0.9011-0.0629-1.7509,0.082-2.5064,0.2121c-1.1701,0.2012-2.1325,0.3671-2.8502-0.273c-4.7112,0-9.4933,0.0006-14.1083,0.0884
		c-4.6658,0.0893-9.2568,0.2679-13.6275,0.6236c-3.4231,3.0283-6.0761,3.1578-9.7611,3.3358
		c-0.686,0.0332-1.4097,0.0686-2.2028,0.1267h-0.0136c-8.8815,0.1437-17.39,0.6837-25.7825,1.5202
		c-8.3375,0.8309-16.5574,1.9548-24.9151,3.274c-0.0249,0.1959,0.0079,0.3787,0.0434,0.5687
		c0.0334,0.1814,0.0683,0.3688,0.0683,0.5802v0.25h-0.25c-0.1157,0-0.2319,0.0003-0.3206,0.0445l-0.1114,0.0558l-0.1103-0.0547
		c-4.4487-2.2036-15.2192-0.4845-23.7875,0.8833c-6.0021,0.9575-10.9395,1.7464-12.0662,0.8578l-0.0099,0.0397
		c-0.6086,2.4346-2.7349,5.4105-4.8872,8.4225c-2.3936,3.35-4.8209,6.7476-5.1574,9.3943c5.112-0.326,10.5163-1.2472,16.0262-2.1861
		h0.0009c2.2028-0.375,4.4229-0.7537,6.6974-1.1052l0.0145-0.002c16.9994-1.6205,34.4832-3.2054,52.0447-4.3838
		c17.5779-1.1798,35.2431-1.9542,52.5948-1.9542l0.0236,0.002C221.8465,78.9381,225.593,79.257,229.4096,79.5535L229.4096,79.5535z
		 M57.4606,63.1534c0.0479,1.2107,0.053,2.3862-0.013,3.477c0.0567,1.8437,0.2449,3.0645,0.6174,3.3165
		c0.5834-0.0009,0.6537-0.0184,1.9162-0.4989c0.0488-2.3207,0.0748-4.7591,0.1015-7.2507
		c0.0882-8.1802,0.1831-16.9492,1.0976-23.9681c-0.3728-0.1802-0.5343-0.2097-1.7376-0.3674
		c-0.0624,0.667-0.1429,1.4905-0.2358,2.4458C58.6562,45.9672,57.6525,56.295,57.4606,63.1534L57.4606,63.1534z M219.392,24.5197
		c0.2636-0.6783,0.5346-1.3433,0.8079-1.9885c0.7336-2.1674,1.4423-4.3339,2.1149-6.4987c-0.968,0.0502-1.0831,0.0732-1.5319,0.2708
		c-0.9655,3.8653-2.6411,7.7941-4.3472,11.7961c-2.4163,5.6676-4.896,11.4834-5.4817,17.426l-0.0119,0.1224l-0.1043,0.0649
		c-0.4541,0.2838-1.2274,2.2173-1.9582,4.4512c-0.8592,2.6249-1.6376,5.6361-1.7875,6.9287
		c0.1616-0.021,0.3291-0.0419,0.5034-0.0587c0.229-0.0224,0.4623-0.0377,0.6925-0.0437c2.158-7.1589,4.7407-14.3181,7.3163-21.4574
		c0.4266-1.1826,0.8532-2.3643,1.2778-3.5458C217.5463,29.6269,218.4313,26.9901,219.392,24.5197L219.392,24.5197z
		 M501.3403,174.7718c0.739-1.4717,1.4717-2.8749,2.1739-4.1516c0.7308-1.8057,1.2603-3.5357,1.4587-5.1463
		c-1.2444,0.2455-2.4959,0.5159-3.7394,0.7832c-3.4455,0.741-6.8287,1.4689-9.9998,1.6767l-0.2656,0.0173v-0.2662v-0.504v-0.1406
		l0.1222-0.0731l0.239-0.1434c-5.5848,0.2511-11.2269,0.6516-16.8528,1.0894c-8.6128,0.8002-17.2618,1.4711-25.8713,2.1053
		c-15.3243,2.0914-30.6433,2.897-45.8846,3.697c-12.8441,0.674-25.6334,1.3462-38.3278,2.7841
		c-15.6719,3.1144-31.8654,3.9727-47.895,4.8215c-8.4333,0.4464-16.8225,0.8912-25.0571,1.6599l-0.0224,0.002
		c-22.608,0-45.2511,1.7263-67.8214,3.4467c-20.9073,1.5937-41.7538,3.183-62.4702,3.3919
		c-1.7691,0.3665-6.8729,1.0034-11.1078,1.3881c-3.0555,0.2775-5.6843,0.4091-6.3728,0.1976
		c-12.947,0.5034-25.8194,0.8853-38.6464,1.266c-18.2976,0.5425-36.5043,1.0831-54.7486,1.9715
		c-6.9752,1.3785-14.2217,1.1917-21.3531,1.0072c-1.821-0.0471-3.6335-0.0944-5.4326-0.1151
		c-3.5645,0.1763-7.1274,0.322-10.688,0.4187c-2.075,0.2352-4.1091,0.587-6.0894,1.1021c-0.055,0.1179-0.11,0.2491-0.1596,0.3883
		H6.5268c-0.0516,0.1437-0.0964,0.2979-0.1279,0.4558l-0.0374,0.188l-0.1927,0.0122c-0.2225,0.0136-0.4649,0.0201-0.703,0.0258
		c-0.8271,0.0201-1.616,0.0399-1.8703,0.438c0.0723,8.716,0.3067,17.4903,0.9085,26.3427
		c0.5975,8.7984,1.5593,17.6689,3.0858,26.6281c22.2273,0.478,44.5825,0.6146,67.0045,0.7506
		c24.5815,0.1497,49.2454,0.3,73.9037,0.9009v-0.0009c7.3446,0,14.9286-0.2628,22.6105-0.5284
		c7.9174-0.2738,15.9398-0.5516,23.8277-0.5516c14.8969-1.0766,30.3029-0.9263,45.6211-0.7767
		c2.076,0.0201,4.1513,0.0408,6.2226,0.0578h0.0184c3.4874,0.2874,7.0432,0.4135,10.6378,0.3149
		c3.5958-0.0984,7.2385-0.4218,10.9006-1.0321l0.0331-0.0028c2.2176-0.0751,6.5339-0.0425,11.7522-0.0031
		c14.7348,0.1114,36.6931,0.2775,38.6952-1.7246l0.083-0.0834l0.1179,0.0119c3.6893,0.3637,7.9894,0.2378,12.2364,0.1137
		c1.6123-0.0474,3.2173-0.0944,4.7868-0.1142c23.5392-2.2924,47.3011-3.1456,71.1236-4.0009
		c21.0245-0.7545,42.0978-1.5114,63.1261-3.2632c0.6608-0.7427,2.0945-3.6195,3.8497-7.452
		c0.0695-0.2636,0.1378-0.5269,0.2029-0.7909l0.0196-0.0527c0.4915-0.9677,1.5293-3.3372,2.8862-6.4369
		c1.137-2.5968,2.497-5.7041,3.952-8.9328c1.4202-3.3596,2.7014-6.4287,3.64-8.6771c0.809-1.9389,1.364-3.2672,1.5409-3.6624
		l0.0096-0.0204c0.1678-0.2982,0.4059-0.7107,0.6534-1.1401c1.1735-2.0353,2.601-4.5122,3.003-6.3825
		c-1.7665,0.1431-3.5362,0.1666-5.2798,0.1891c-3.683,0.0476-7.2508,0.0944-10.3831,1.2807l-0.0575,0.0147
		c-22.4623,2.7626-45.1148,3.0178-67.5088,3.2695c-9.112,0.1021-18.1829,0.2044-27.1868,0.4751l-3.5181,0.3172
		c-8.3197,0.7517-16.189,1.4632-24.3343,1.8422c-2.5566,0.4138-7.0245,0.5131-11.63,0.6143
		c-6.5862,0.1451-13.4561,0.2971-15.2693,1.3686l-0.0898,0.032c-15.9852,2.4231-32.0956,2.4636-48.1088,2.5039
		c-11.1098,0.0275-22.1737,0.0556-33.1259,0.8821l-0.0564-0.0028c-10.357-1.6044-20.8976-0.8365-31.2222-0.0842
		c-4.9181,0.3583-9.7886,0.7132-14.5894,0.8067c-2.2822,0.2027-5.8465,0.5791-10.1265,1.0309
		c-18.3087,1.9332-49.7344,5.2512-52.5606,2.425l-0.2443-0.2443l0.3095-0.1548l1.296-0.648l0.1086-0.0264l1.3759-0.0212
		c18.0196-0.279,35.7849-0.5539,54.0298-3.3608l0.0195-0.002c12.4126-0.8994,24.8556-1.5296,37.385-2.0251
		c12.5118-0.4947,25.1169-0.8549,37.8658-1.2149l0.1562,0.0499c2.6368,1.9775,22.9278,0.6911,34.2499-0.0264
		c3.0974-0.1964,5.5256-0.3509,6.7581-0.3832c7.8588-0.9729,16.0742-1.7711,24.4033-2.3137
		c7.6887-0.5009,15.4638-0.7835,23.1323-0.7838c2.3472-0.2699,5.866-0.4771,9.7328-0.7044
		c8.4561-0.4975,18.5859-1.0936,21.7029-2.6521l0.165-0.0204c0.6415,0.1426,1.2835,0.2852,1.9312,0.4983
		c12.0773,0.1429,24.3374-0.0371,36.6613-0.4773c12.3234-0.4402,24.7195-1.1421,37.069-2.0421
		c3.069-0.368,6.275-0.9034,9.5427-1.4483c6.3-1.0511,12.8314-2.1407,19.031-2.1537c0.3257-0.3918,0.8961-1.4704,1.3632-2.3551
		c0.3175-0.6012,0.5902-1.1196,0.7549-1.3309c0.9561-3.4622,2.8857-7.1949,4.8846-10.9184
		C499.5547,178.4001,500.4539,176.5361,501.3403,174.7718L501.3403,174.7718z M263.4645,279.1222
		c2.9542,0.087,5.9114,0.1502,8.8792,0.2007h2.8902c-1.5712-0.3503-5.3742-0.6032-9.3126-0.7342
		c-4.2758-0.1426-8.6865-0.1476-10.5517,0.0176c1.1033,0.2265,2.4293,0.2344,3.799,0.2413
		C260.6103,278.8546,262.101,278.8617,263.4645,279.1222L263.4645,279.1222z M506.9713,275.5956
		c0.3149-0.1182,2.0931-0.2702,4.0492-0.3796c1.8933-0.1057,3.97-0.1758,5.0455-0.14l0.0204,0.4969
		c-1.785,0.2061-3.757,0.3634-5.4105,0.4558c-1.8258,0.1021-3.2718,0.1239-3.6666,0.045L506.9713,275.5956L506.9713,275.5956z
		 M287.7361,273.8662c0.879,0.0677,1.7589,0.1406,2.6391,0.2758l0.0116,0.002c0.4629,0.0924,0.8054-0.0235,1.1608-0.144
		c0.0879-0.03,0.1763-0.0612,0.2687-0.0893c0.0012-0.0734,0.0045-0.1432,0.0099-0.2151l0.0051-0.0646h-4.1193
		C287.7157,273.7057,287.7228,273.7834,287.7361,273.8662L287.7361,273.8662z M12.7315,195.4585
		c3.4787-0.3931,7.0674-0.4615,10.7121-0.4201c6.0072-0.2971,12.0249-0.6809,18.0575-1.0664
		c13.8393-0.8845,27.7551-1.7734,41.821-1.6243c7.5606-0.9933,15.5106-1.1534,23.5638-1.3153
		c6.5273-0.1309,13.1241-0.2639,19.6305-0.8436l0.0215-0.002c2.0228,0,4.282,0.0476,6.6362,0.0975
		c8.4141,0.1774,18.0595,0.3813,25.7034-1.5295l0.0516-0.0068c34.4265-1.2475,69.2595-3.5059,104.0777-5.7622
		c19.3981-1.2575,38.7927-2.515,58.1334-3.5977h0.0088c5.3152-0.1077,10.8564-0.396,16.4844-0.8011
		c5.6273-0.4048,11.3286-0.9267,16.9716-1.5015c19.3698-3.4837,39.9124-4.3503,60.2476-5.2075l4.5618-0.1936v-0.0003
		c6.6997-0.5343,13.5111-1.0273,20.3627-1.5228c2.9197-0.2112,5.8464-0.4237,8.7783-0.6397
		c0.841-0.1148,1.6827-0.2328,2.5234-0.3555l0.0204-0.002c5.6401-0.3337,11.4219-0.7977,17.2479-1.2648
		c2.0276-0.1627,4.0604-0.3257,6.0965-0.4842c9.2531-0.8598,18.4629-1.8689,27.5335-3.1442
		c0.684-0.1287,1.9813-0.4365,3.1393-0.8929c0.705-0.2778,1.3527-0.6098,1.7626-0.9836c-0.0125-1.1064-0.2177-1.9985-0.5126-2.7658
		c-0.2874-0.7475-0.6672-1.3907-1.0368-1.997c-4.4391-0.191-9.0295,0.2653-13.373,0.6967
		c-1.6685,0.1656-3.3016,0.3277-4.8603,0.4473c-0.0209,0.1375-0.0204,0.2948-0.0204,0.4853v0.3452l-0.328-0.1091
		c-0.174-0.0578-0.3722-0.0581-0.5701-0.0581l-0.1533-0.0003l-0.0692-0.1383c-0.0408-0.0814-0.0822-0.1633-0.1136-0.2404
		c-9.8535-1.0193-20.8296,0.5908-31.2375,2.118c-4.4118,0.6472-8.7233,1.2796-12.8163,1.6918v0.4952v0.2874l-0.2852-0.0405
		c-0.572-0.0816-0.6077-0.0876-0.9587-0.576c-5.4448-0.0859-12.7094,0.4124-20.0979,1.2747
		c-2.0007,0.3615-3.9957,0.7481-5.9783,1.1319c-5.3801,1.0412-10.6667,2.0645-15.7233,2.5257
		c-1.165,0.2781-2.2626,0.5618-3.2797,0.8489c0.0048,0.2044,0.1531,0.3867,0.338,0.6131c0.2996,0.3671,0.6766,0.8289,0.8359,1.6648
		l0.0562,0.2959h-0.301c-0.1823,0-0.3467,0.0003-0.4802,0.0079c-0.0703,0.004-0.1389,0.0102-0.2058,0.0196v0.4425v0.3194
		l-0.3104-0.0774c-0.2866-0.0714-0.5125-0.1471-0.7376-0.222l-0.2729-0.091l0.1284-0.2565c0.0983-0.197,0.1934-0.3586,0.2874-0.5063
		l-0.0246-0.0116c-0.9009-0.4263-0.9244-0.4374-1.8726-0.5638l-0.2177-0.0292v-0.2177v-0.1602
		c-3.6054-0.7648-7.1813-0.1701-10.469,0.3762c-0.6817,0.1131-1.3518,0.2245-1.989,0.3188l-0.0193,0.002
		c-14.5511,1.0103-29.1263,1.7498-43.6113,2.4843c-11.2725,0.5715-22.4918,1.1407-33.6356,1.8351
		c-22.5904,2.5096-45.3135,4.3501-67.9147,6.1801c-13.6854,1.1081-27.3271,2.2127-40.7863,3.4523
		c-0.0522,0.1797-0.1077,0.4-0.1627,0.6197l-0.0459,0.1837l-0.1902,0.0048c-13.4963,0.3373-26.9944,0.2231-40.2752,0.1105
		c-6.4916-0.0547-12.9319-0.1094-19.4907-0.1094v-0.0003c-12.5872,0.7552-25.0379,1.4389-37.4573,1.9701
		c-12.401,0.5307-24.7615,0.9085-37.1806,1.0528c-9.1488,1.7178-18.6267,1.6577-28.0182,1.5982
		c-7.9112-0.0499-15.7623-0.0995-23.2903,0.9173c-0.1293,0.0541-0.3475,0.1242-0.6367,0.2152
		c-1.7379,0.5493-6.406,2.0253-6.5951,3.1606c-0.0689,0.4136,0.6539,0.8224,2.7388,1.1713
		C6.681,195.5878,9.7053,195.5407,12.7315,195.4585L12.7315,195.4585z M463.1088,198.4689h0.0003H463.1088L463.1088,198.4689z
		 M305.3452,251.574l0.1426,0.0306l0.0207,0.0005h0.0009c0.083,0.0026,0.2438,0.0065,0.4067-0.0428
		C305.7157,251.555,305.5464,251.5575,305.3452,251.574L305.3452,251.574z M22.3682,216.4258
		c-0.737-0.4485-1.3218-1.1478-1.7566-1.8839c-0.5921-1.0038-0.9108-2.0911-0.9544-2.7034l0.0088-0.0839
		c0.8682-3.14,1.2515-5.4788,1.5352-7.215c0.3725-2.278,0.5814-3.5509,1.5038-4.2968c1.1421-0.9235,3.2783-0.9045,8.1179-0.8618
		c1.1407,0.0102,2.444,0.0219,4.1312,0.0219h0.123l0.0751,0.0987c1.0307,1.3507,1.4859,4.216,1.4859,7.228
		c0,3.2882-0.5394,6.7765-1.4604,8.6568l-0.0728,0.1488l-0.1644-0.0094c-2.838-0.1621-5.1313,0.1602-7.3284,0.4692
		c-1.692,0.2378-3.329,0.468-5.114,0.468L22.3682,216.4258L22.3682,216.4258z M60.1342,215.8243
		c-0.5916-0.5176-1.0945-1.0205-1.5967-1.5228l-0.0479-0.0671c-0.7906-1.6212-1.0128-5.3924-0.6523-8.7704
		c0.3155-2.9565,1.0885-5.6381,2.3329-6.3847l0.0995-0.0343c0.4011-0.047,0.7838-0.0983,1.2033-0.1539
		c4.1329-0.5505,11.3567-1.512,13.4487,2.7397l0.0244,0.0839c1.2087,11.0517,0.4255,13.2693-3.1978,13.6653
		c-0.8788,0.0961-1.9284,0.0757-3.164,0.0521c-2.1532-0.0416-4.8813-0.0941-8.2471,0.451l-0.1145,0.0184L60.1342,215.8243
		L60.1342,215.8243z M298.7258,201.3174c-2.1867-1.0621-1.9639-3.5972-1.798-5.483c0.0374-0.4292,0.0723-0.8235,0.0723-1.1495
		l0.002-0.0303c0.0972-0.7954,0.4669-1.4797,1.0497-2.0625c1.4213-1.4219,4.1323-2.2309,7.2235-2.5912
		c3.0602-0.3566,6.5046-0.2772,9.4297,0.0803c3.1747,0.3878,5.7611,1.1145,6.6257,1.9791l0.0723,0.1599
		c0.4547,6.8213-0.8697,8.513-3.054,8.6587c-0.8586,0.0573-1.8312-0.1375-2.8786-0.3473c-2.1869-0.4379-4.7183-0.9448-6.9828,0.7603
		l-0.1494,0.0511h-9.504v-0.25L298.7258,201.3174L298.7258,201.3174z M341.8574,199.1095c-1.7986-1.7986-2.3018-3.3372-1.887-4.6295
		c0.4073-1.269,1.7019-2.2663,3.5206-3.0178c1.7751-0.7333,4.0601-1.2404,6.5001-1.5423c7.185-0.8895,15.7816,0.0249,16.8185,2.1356
		l0.0233,0.0743c0.0374,0.2636,0.0916,0.5434,0.1468,0.8314c0.2696,1.402,0.5786,3.0095-0.5604,4.4019l-0.0587,0.0515
		c-3.2785,2.1033-14.5717,1.9154-21.2023,1.8054c-1.2314-0.0201-2.3023-0.0383-3.1244-0.0383h-0.1042L341.8574,199.1095
		L341.8574,199.1095z M398.6705,167.4726c5.3592-1.2764,12.1252-2.4403,18.9644-3.3182c0.9082-0.1165,1.817-0.2285,2.7246-0.3347
		c5.6818-1.0262,11.4131-1.8522,17.04-1.8556c0.6479-0.1619,0.7458-0.1897,0.949-0.4204c-1.9953-3.0623-6.0428-5.527-9.7781-7.8004
		c-3.0665-1.8666-5.9258-3.6076-7.3309-5.4817c-1.8808-0.2446-3.4764,0.0239-4.9609,0.2733
		c-0.8314,0.1398-1.6308,0.2738-2.4376,0.3121c-0.0121,0.0341-0.0223,0.0709-0.0314,0.1075
		c-0.0176,0.0714-0.0295,0.1491-0.0295,0.2264v0.2376l-0.2392,0.0113c-1.5078,0.07-3.3318,0.5454-5.0007,0.9805
		c-1.7325,0.4515-3.3035,0.8606-4.2554,0.7466l-0.4557-0.0547l0.2936-0.3523c0.2259-0.2713,0.476-0.5134,0.7359-0.743
		c-1.5784,0.0031-1.7368,0.0294-2.7845,0.2619c-0.4984,0.5944-1.2345,1.4295-2.1047,2.4157
		c-3.6298,4.1125-9.6092,10.887-9.8688,13.2627c1.1611,0.5516,2.3182,1.1636,3.4736,1.7754
		C395.2412,167.7204,396.9414,167.6293,398.6705,167.4726L398.6705,167.4726z M5.2436,182.7321
		c-0.3311,3.4106-0.4088,6.2425,0.0921,6.9517c14.7274-0.0039,29.8157-0.7463,44.9445-1.4902
		c13.1037-0.6446,26.2392-1.2911,39.2173-1.4601c0.1083-0.106,0.2234-0.2081,0.3753-0.2849
		c0.1982-2.0628,0.4105-4.066,0.6211-6.0508c0.792-7.463,1.5579-14.6787,1.2456-21.8347
		c-3.8092-0.1749-7.5991-0.3118-11.3043-0.2503c-3.7471,0.0624-7.414,0.3274-10.9372,0.9618
		c-0.4462,0.5219-0.9221,2.0877-1.0179,3.6082c-0.0729,1.1557,0.0768,2.2677,0.6347,2.8256l0.1766,0.1766l-0.1766,0.1766
		c-0.0351,0.0352-0.0706,0.0706-0.0706,0.1114v0.25h-0.25c-5.2013,0-10.5868-0.1619-15.8763-0.3206
		c-3.3557-0.1003-6.6736-0.2004-9.8844-0.2562c-4.9717,0.5414-10.0973,0.5674-15.1832,0.593
		c-7.0004,0.0349-13.928,0.0703-20.2705,1.4565C7.0991,169.7245,5.7994,177.0061,5.2436,182.7321L5.2436,182.7321z
		 M91.7036,186.5654c0.2242,0.0581,0.4504,0.1248,0.6843,0.2344c2.4829-0.1454,5.0417-0.299,7.6093-0.4529
		c18.3762-1.1041,37.1744-2.2329,55.8765-1.9939c-0.0677-2.1696-0.1329-4.3376-0.1361-6.4482
		c-1.0641-0.5956-3.1901-0.358-4.8334-0.1747c-0.6693,0.0746-1.262,0.1409-1.6863,0.1409h-0.2211l-0.0269-0.2197
		c-0.3215-2.6359,3.9855-8.3141,6.033-11.0129c0.309-0.4076,0.5664-0.7458,0.7521-1.0023c0.6517-2.6862,0.5108-5.7895,0.3713-8.8571
		c-0.1259-2.7643-0.2498-5.5015,0.2021-7.9121c-7.287,0.3161-14.4598,1.1191-21.5175,1.9091
		c-4.5961,0.5142-9.1449,1.0233-13.6452,1.3893c-0.3523,0.053-1.3053,0.1823-2.6303,0.3617
		c-6.7887,0.9195-23.61,3.198-24.5849,4.0932c-0.159,3.0816-0.6154,6.6683-1.0916,10.4117
		C92.0101,173.7082,91.097,180.8873,91.7036,186.5654L91.7036,186.5654z M159.8514,182.399
		c-0.0292,1.0369-0.0119,1.8615,0.0964,2.0242c7.6671-0.4255,15.4055-0.853,23.1432-1.2785
		c-0.0335-1.1976-0.0695-2.3201-0.1287-3.4041c-0.0587-1.0698-0.14-2.0925-0.2662-3.0937
		c-4.0309,0.0057-7.8228,0.1698-11.5538,0.3308c-3.6326,0.1567-7.2088,0.311-10.8391,0.3166
		C160.1595,178.2397,159.9021,180.6012,159.8514,182.399L159.8514,182.399z M186.5815,183.502
		c0.1015,0.009,0.2137,0.0266,0.3277,0.0609c10.1546-0.0022,20.9106-0.987,31.6301-1.968
		c6.8675-0.6284,13.7206-1.2561,20.3862-1.6234c0.0332-0.0513,0.0655-0.093,0.0978-0.1292
		c-0.2625-1.5185-0.3634-3.1414-0.4572-4.6517c-0.0732-1.1792-0.1418-2.2904-0.2795-3.2159
		c-8.8696,0.36-17.4903,0.9514-26.0561,1.6923c-8.564,0.7413-17.0555,1.6319-25.6824,2.5931v7.2386L186.5815,183.502
		L186.5815,183.502z M197.4793,174.5782c4.9104-0.5094,9.8011-0.9845,14.7081-1.4091L197.4793,174.5782L197.4793,174.5782z
		 M241.8945,177.594c0.042,0.7504,0.0825,1.4647,0.0919,2.0713c8.6899-0.3603,17.513-1.2232,26.4393-2.0959
		c7.4625-0.7299,14.9981-1.4667,22.5876-1.9236c1.4788-0.4343,3.9235-0.6148,6.4968-0.8051
		c3.2986-0.2435,6.8122-0.504,8.6708-1.3223c-0.8518-4.1397-0.7543-8.5119-0.6644-12.5529
		c0.0255-1.1696,0.0508-2.3116,0.0522-3.4073c-0.2384-0.159-1.3224-0.1678-2.6592-0.1071c-2.6777,0.1216-6.2479,0.5884-6.5175,0.678
		l-0.07,0.0128c-5.5953,0.1913-11.1152,0.7109-16.5195,1.2189c-4.7024,0.4422-9.3195,0.8762-13.8289,1.08
		c-0.7885,0.8901-1.574,1.7563-2.3691,2.6314c-2.6393,2.9055-5.3824,5.925-7.6215,9.1474l-0.0876,0.1256l-0.1517-0.0213
		c-3.5339-0.4966-7.2878-0.4406-10.7611-0.3887c-1.0114,0.0147-2.0024,0.0295-2.865,0.0312
		C241.6476,173.1561,241.7783,175.5156,241.8945,177.594L241.8945,177.594z M152.936,171.8249
		c-1.1421,1.7126-2.1322,3.5926-2.3482,4.6142l0.1556,0.0039c1.2572,0.0267,4.14,0.0876,4.9932-0.5904
		c0-2.4665,0.0009-4.9331,0.0615-7.3874c-0.7798,0.5284-1.8717,1.8743-2.8613,3.3588L152.936,171.8249L152.936,171.8249z
		 M159.9959,173.3618c0.1483,1.2532,0.7727,2.2924,2.4117,2.4257c1.7005-0.0391,3.5447-0.0182,5.459,0.0039
		c4.9048,0.0564,10.2728,0.1176,14.8388-0.8297c0.3597-1.7291,0.2526-3.596,0.1613-5.2019
		c-0.017-0.3013-0.0332-0.5941-0.0465-0.8841c-2.3808,0.059-4.9127-0.0133-7.4585-0.0865
		c-5.3453-0.1542-10.7569-0.3098-14.9236,0.7566C160.1629,170.6006,159.846,172.0936,159.9959,173.3618L159.9959,173.3618z
		 M186.5469,168.3236v6.1075c9.2888,0.4464,19.9275-0.7503,30.5334-1.9432c6.9718-0.7844,13.9309-1.5673,20.4999-1.8819
		c0.3027-0.1213,0.6083-0.2435,0.9691-0.368c0.1043-1.3941,0.2069-2.8329,0.2667-4.2108c0.0584-1.3487,0.0786-2.6595,0.0222-3.8483
		c-6.357,0.1429-13.0972,0.627-19.8848,1.336c-2.8159,0.3325-5.6259,0.6624-8.4337,0.9882
		C202.1698,165.5822,193.9686,166.9292,186.5469,168.3236L186.5469,168.3236z M210.4653,164.0067
		c1.3995-0.1808,2.8021-0.3538,4.2066-0.5185c1.4057-0.165,2.8131-0.322,4.2185-0.4688c3.5065-0.4141,7.0237-0.8325,10.5585-1.2532
		c3.022-0.3594,6.0582-0.7217,9.1103-1.0826c1.1976-2.2379,0.8492-8.6819,0.6873-11.6804
		c-0.0252-0.4706-0.0453-0.8592-0.0555-1.1321c-6.2101,0.6109-12.4333,1.1089-18.584,1.5091
		c-6.7416,0.4386-13.4107,0.7606-19.8915,0.9854v0.0003c-0.2061,0.0145-0.5301,0.0357-0.93,0.0612
		c-3.0705,0.1967-10.7034,0.6859-12.4875,1.5882c-0.0105,0.0397-0.0224,0.0879-0.0334,0.1437
		c-0.2265,1.1344-0.4017,4.7792-0.4773,8.1573c-0.07,3.1396-0.1021,6.0216-0.0502,6.3175
		C194.6682,165.8106,202.553,164.9249,210.4653,164.0067L210.4653,164.0067z M309.4727,164.7272
		c0.0992,2.8347,0.5375,5.7563,1.2192,8.5357c8.4744-0.2086,16.933-0.6605,25.4358-1.114
		c9.3068-0.4966,18.6685-0.9964,28.2004-1.1846c1.1541-0.171,2.8636-0.2041,4.8013-0.2415
		c6.1116-0.1185,14.5585-0.2829,14.5585-4.9819v-0.1788l0.1721-0.0573l0.4436-0.1479c-0.0332-0.2364-0.0386-0.4417-0.0397-0.6421
		c-0.6536-0.4725-1.3362-0.8753-1.9658-1.1602c-0.6174-0.2795-1.178-0.4437-1.6002-0.4437h-0.2502l0.0002-0.25v-0.326h-0.254
		h-0.1788l-0.0573-0.1721l-0.1741-0.5224c-1.483-0.4267-2.8593-1.2082-4.1797-1.9579c-1.472-0.8359-2.8737-1.6319-4.2272-1.8147
		l-0.1537-0.021l-0.0493-0.148c-0.0567-0.1706-0.0765-0.3336-0.0831-0.4697c-1.0851-0.3461-2.162-0.8751-3.1635-1.3672
		c-0.9462-0.4649-1.8258-0.8972-2.5588-1.097l-0.1845-0.0504v-0.1896v-0.5669c-0.1851-0.0919-0.3643-0.1789-0.5128-0.2378
		c-0.0204,0.0161-0.0399,0.0348-0.0595,0.0544c-0.0456,0.0457-0.0842,0.0959-0.1071,0.1418l-0.1923,0.3843l-0.2381-0.3571
		c-0.1318-0.1976-0.2086-0.3926-0.2752-0.5854c-2.6365-0.7909-6.0656-1.0477-9.7549-0.9901
		c-3.9713,0.4946-9.9587,1.0534-16.2845,1.5849c-1.7283,0.2619-3.3148,0.5218-4.6856,0.746l-0.0196,0.0028
		c-2.0098,0.169-4.0992,0.3002-6.1991,0.432c-5.7977,0.364-11.6852,0.7333-16.7272,1.9729
		C309.5753,159.5903,309.3815,162.1234,309.4727,164.7272L309.4727,164.7272z M337.4771,153.6914
		c3.3154-0.5057,7.1674-1.0267,11.0175-1.3393c2.0197-0.1642,4.0396-0.271,5.9839-0.288c2.1427-0.2679,3.5657-0.5094,3.9368-0.7067
		c-0.0026-0.2279-0.0182-0.2838-0.129-0.4017c-0.9723,0.1058-1.4375-0.3589-1.5967-0.5181l-0.0735-0.0734v-0.1032
		c0-0.2174,0.0347-0.3963,0.082-0.5616l-0.0898-0.03c-0.7917-0.2645-1.1506-0.3844-1.4074-0.4345v-0.0003
		c-0.1979-0.0383-0.3458-0.0346-0.6143-0.0281c-0.1578,0.0037-0.3489,0.0085-0.5283,0.0085h-0.4034l0.1808-0.3615
		c0.0207-0.0414,0.0442-0.0822,0.0709-0.1213c-0.5479-0.0519-1.0964-0.0933-1.6484-0.0933l-0.1386-0.4578l0.1316-0.0876
		c-0.2297-0.0093-0.5724,0.0088-1.2053,0.0403l-0.2617,0.013v-0.2619v-0.47h-0.2914c-0.0502,0.1542-0.1003,0.3212-0.1525,0.5304
		l-0.4745,0.0284c-0.1497-0.3889-0.4198-0.599-0.7042-0.7112c-0.0272-0.0108-0.0555-0.0212-0.0831-0.0304l0.0678,0.0678
		l-0.4277,0.1071c-0.2889,0.072-0.4961,0.1414-0.7025,0.2101l-0.3279,0.1091v-0.3452v-0.5
		c-3.0206-0.3779-6.5132-0.8235-10.0052-1.2691l-0.2188-0.028v-0.2188v-0.5222c-2.3571-0.538-4.2358-0.5927-6.1648-0.6494
		l-0.648-0.0196l-0.3901-0.0119l0.1743-0.3484c0.0187-0.0374,0.0397-0.0746,0.0632-0.1103
		c-1.4383-0.1105-2.9586-0.2508-4.5028-0.3937c-5.5604-0.5148-11.4379-1.0596-15.9679-0.3952v12.839
		C313.6374,155.5016,326.0926,154.6316,337.4771,153.6914L337.4771,153.6914z M242.0589,170.1859
		c2.3862,0.1445,4.748,0.3532,7.1093,0.5616c4.5876-0.1412,4.6401-0.1437,6.4421-0.4207c0.8699-0.6265,3.0302-3.0611,4.8705-5.4156
		c1.3915-1.7801,2.5937-3.4991,2.8973-4.3185c-3.6164,0.0368-7.0038,0.1094-10.3444,0.2491
		c-3.4016,0.1423-6.7516,0.3558-10.2393,0.6741c-0.8943,1.0636-0.8073,5.1696-0.7549,7.6567
		C242.0479,169.5623,242.0558,169.9147,242.0589,170.1859L242.0589,170.1859z M388.2458,167.876
		c0.0207,0.1497,0.032,0.1891,0.0581,0.2069h0.2945c0.0105-0.0938,0.027-0.1854,0.0462-0.2729
		c-0.0547,0.0059-0.1074,0.0139-0.1596,0.0221C388.4048,167.8445,388.3238,167.8592,388.2458,167.876L388.2458,167.876z
		 M166.3294,154.1206c-3.9623,1.9681-6.1897,5.9244-5.7166,13.7464c1.4459,0.0051,3.1198,0.055,4.894,0.1074
		c5.6424,0.1673,12.3177,0.3645,17.1686-0.7767c0.2118-3.9829,0.1307-7.9645,0.0511-11.8783
		c-0.021-1.0306-0.0417-2.0585-0.0573-3.0855C176.1061,152.1301,170.3245,152.1366,166.3294,154.1206L166.3294,154.1206z
		 M33.5449,156.6301c-1.0318,2.77-1.6988,4.5606-1.7915,8.1249c0.9499-0.0592,1.9046-0.1194,2.9024-0.1786
		c-1.3382-3.4804,0.3555-11.7757,1.7388-18.5485c0.6709-3.2856,1.2688-6.2112,1.4065-8.0254l0.0723-0.1582
		c0.0921-0.0922,1.2552-7.3338,2.257-13.9808c0.705-4.6792,1.3184-9.0485,1.4037-10.4162
		c-2.8769,0.1797-3.1297,0.2015-3.6062,0.4056c-0.4504,5.9942-1.1528,12.1558-1.8629,18.3912
		c-0.8889,7.8055-1.7921,15.7289-2.23,23.5743l-0.0156,0.0731L33.5449,156.6301L33.5449,156.6301z M385.2576,163.069
		c0.0587,0.0331,0.121,0.0709,0.1905,0.1154c1.0437-0.0607,2.5834-1.444,4.1649-3.2712c2.5784-2.9789,5.2194-7.1113,6.1129-8.7432
		l-0.2285-0.2285l-0.1766-0.1766l0.0366-0.0366c-4.877,0.0215-9.7752,0.2324-14.5975,0.5556
		c-4.9172,0.3291-9.7597,0.7753-14.4196,1.258l0.1669,0.167l-0.1459,0.146c0.4099,0.1109,0.8524,0.2217,1.2932,0.332l0.4277,0.1069
		l-0.3115,0.3118l-0.0193,0.0179c0.408,0.1958,0.4941,0.1882,1.0423,0.1335l0.17-0.017l0.0769,0.1536
		c0.0589,0.1179,0.1153,0.2727,0.1714,0.4374h0.902h0.2501v0.25c0,0.0895,0.0442,0.2389,0.0966,0.3991
		c0.5449,0.2724,1.0944,0.5454,1.6979,0.8135l0.1494,0.0663v0.161v0.3013c0.7316,0.1687,1.4667,0.5213,2.2422,0.8932
		c0.8734,0.419,1.8031,0.8646,2.8154,1.0814l0.1984,0.0426v0.2015v0.3344l0.0403,0.0176c0.3702,0.161,1.218,0.5304,1.7753,0.4799
		l0.1959-0.0179l0.0626,0.188c0.0601,0.1803,0.1205,0.3603,0.1789,0.5726c0.4186,0.062,0.8461,0.1593,1.3031,0.2631l0.3526,0.0793
		l0.1752,0.0394l0.0182,0.1792l0.0079,0.0847c0.0904-0.0442,0.2067-0.0893,0.3345-0.121c0.1102-0.0272,0.2288-0.0454,0.3455-0.0454
		h0.1786l0.0576,0.1721c0.0992,0.2976,0.2812,0.7444,0.6729,1.1114c0.3912,0.3668,1.0018,0.6605,1.9709,0.6605l0.1115,0.4725
		C385.3171,163.0256,385.287,163.0449,385.2576,163.069L385.2576,163.069z M430.6193,153.8034
		c4.0016,3.2372,8.4387,6.6946,10.1174,7.793c3.8622-0.337,7.7684-0.8433,11.7238-1.3558
		c7.1601-0.9278,14.4836-1.8771,21.8316-1.8777c8.1485-0.6622,8.7477-0.7118,9.2137-0.9264c0.4785-2.59,1.4595-5.2016,2.4245-7.7715
		c1.233-3.2851,2.4403-6.5018,2.5149-9.4824c-7.4702,1.1027-14.8533,2.1858-22.1899,3.0903
		c-7.435,0.917-14.8495,1.6548-22.3084,2.0517c-3.0892,0.6097-6.3451,0.7914-9.5618,0.97
		c-3.8911,0.216-7.7264,0.4291-11.1155,1.3997c0.5185,0.5295,3.7613,3.2071,7.3488,6.1089H430.6193L430.6193,153.8034z
		 M243.1083,152.5589c-0.2914,2.5934-0.3915,5.4544-0.3991,7.5203c7.3545-0.3538,14.7101-0.7064,22.1533-0.9907
		c0.5775-0.7914,1.4493-1.8326,2.4137-2.9863c2.4772-2.9633,5.5814-6.6784,5.7408-8.5076
		c-1.5497-0.7832-7.3998-1.1182-13.4782-1.1035c-6.7439,0.0161-13.7373,0.4666-15.4443,1.2163
		C243.6387,148.8944,243.3223,150.6541,243.1083,152.5589L243.1083,152.5589z M267.2651,159.0109
		c0.8266,0.0012,1.6617,0.0088,2.563,0.0726c10.2706-0.322,21.0734-1.5049,31.7764-2.6767
		c1.2481-0.1367,2.4953-0.2741,3.7401-0.4088c0.3115-0.3895,0.5156-2.323,0.6343-4.6157c0.1786-3.4489,0.1333-7.6507-0.0116-8.7877
		c-5.0788,0.1239-10.1083,0.3728-15.09,0.6188c-6.8436,0.3379-13.5998,0.6718-20.285,0.6735
		c-0.6296,0.2999-1.4432,0.521-2.3959,0.682c3.9756-0.0249,7.2031,0.2489,8.5904,1.0862l0.1968,0.1185l-0.1032,0.2066
		c-0.5426,1.0851-2.6492,3.7693-4.7684,6.4698C269.9141,155.2508,267.7011,158.0692,267.2651,159.0109L267.2651,159.0109z
		 M250.63,145.649c2.8256-0.2424,6.0103-0.5165,9.1741-0.7277c-1.6682-0.0354-3.3888-0.1012-5.0822-0.1664
		c-4.4759-0.1723-8.7528-0.337-11.2624,0.0922c0.0604,0.3869,0.1483,0.7762,0.2421,1.1905l0.0331,0.1471
		C245.4302,146.0945,247.8569,145.8868,250.63,145.649L250.63,145.649z M160.05,158.2305l0.0411,0.4532
		c0.9071-0.5085,2.5906-2.3862,4.1998-4.1814c1.1815-1.3178,2.3241-2.5926,3.1249-3.2789l0.1253-0.1075l0.1483,0.0743
		c1.5565,0.7784,9.3373-0.0383,13.0193-0.4244c0.7971-0.0836,1.4051-0.1479,1.7249-0.1715
		c0.0978-0.1542,0.1324-0.5814,0.3552-3.5334c-2.067,0.084-5.6625,0.7572-9.2288,1.4244c-4.8804,0.913-9.7106,1.8165-10.7441,1.1613
		c-2.2723,0-2.4197,0.0026-3.4693,0.2339C159.5429,152.6613,159.7941,155.4203,160.05,158.2305L160.05,158.2305z M94.6049,153.9809
		c0.0816,0.0093,0.1726,0.0264,0.2803,0.0592c8.3903-0.7892,17.2593-1.705,26.1967-2.7763
		c8.9396-1.0712,17.9198-2.2949,26.5122-3.697l0.0156-0.002c1.2742-0.1273,2.0922-0.3578,2.6181-0.5057
		c0.3903-0.11,0.6375-0.1791,0.8391-0.1392l0.4584,0.091l-0.1959,0.1959l0.1406,0.0062c0.1233,0.0054,0.2503,0.0134,0.3781,0.0264
		v-0.2186v-0.6032l0.4266,0.4267l0.2619,0.2619l-0.0638-0.1916l0.3453,0.0002c0.1154,0,0.3019,0.038,0.5295,0.0842v0.0003
		c0.2713,0.055,0.61,0.1235,0.9272,0.1448c0.417,0.0278,0.7926-0.0297,0.8144-0.356l0.0159-0.2333h0.233
		c1.4199,0,2.8409-0.0003,4.286,0.0607v-0.0267v-0.2055l0.2032-0.0394c1.8275-0.3543,5.0564-0.2914,8.5955-0.2223
		c5.8601,0.1146,12.5833,0.2464,14.9947-1.4638l0.2747-0.195l0.106,0.32c0.0337,0.1017,0.0278,0.1885,0.0218,0.2761
		c-0.0011,0.0199-0.0028,0.0411-0.0028,0.0689c0,0.0173,0.0119,0.0329,0.0709,0.0439v-0.023v-0.2336l0.2333-0.0153
		c0.6131-0.0408,0.9845-0.1819,1.3014-0.3025c0.2344-0.089,0.4436-0.1686,0.701-0.2007l0.2803-0.0352v0.2832v0.218
		c0.398-0.104,1.0633-0.1077,3.8375-0.108c-0.0105-0.0391-0.0176-0.076-0.0176-0.11v-0.2047l0.2013-0.0403
		c0.4289-0.0856,0.4717-0.0947,1.1254,0.436c0.102-0.1766,0.2004-0.3249,0.2996-0.4737l0.2826-0.4237l0.1613,0.4844
		c0.0575,0.1732,0.1159,0.3464,0.1723,0.5479h0.2945c0.0272-0.2052,0.0836-0.3764,0.1409-0.5479h0.4723
		c0.0556,0.1672,0.1123,0.3345,0.1667,0.5273c0.2466-0.0351,0.6826-0.1165,1.0491-0.252v-0.0003
		c0.2384-0.0884,0.4346-0.1907,0.4788-0.2945l0.1454-0.3399l0.2605,0.2608c0.0405,0.0406,0.076,0.0884,0.1157,0.1443
		c0.0867-0.0992,0.1723-0.1913,0.2602-0.2792l0.0003,0.0006c0.1565-0.1568,0.3263-0.307,0.5162-0.4592l0.2404-0.1922l0.1372,0.275
		c0.0431,0.0862,0.1264,0.2157,0.2206,0.3586c0.1494-0.0669,0.3107-0.1145,0.4751-0.1573c0.0266-0.1803,0.0839-0.3541,0.1417-0.5278
		l0.1279-0.3835l0.2849,0.2849c0.0249,0.025,0.0513,0.0488,0.0799,0.0735c0.1111-0.1052,0.2253-0.2002,0.3521-0.2634l0.3614-0.1808
		v0.4034c0,0.1017-0.04,0.1805-0.0828,0.2653l-0.0003-0.0003c-0.0201,0.0399-0.0422,0.0844-0.0428,0.0975
		c-0.0011,0.0275,0.0899,0.0566,0.4595,0.0836l-0.0244-0.0544l-0.0003,0.0002c-0.0235-0.0544-0.0459-0.1055-0.0615-0.1366
		l-0.1936-0.3872l0.4309,0.0269c1.0811,0.0674,2.1478,0.1953,3.2122,0.3279c0.0284-0.1919,0.0825-0.3541,0.1369-0.517l0.0516-0.1542
		l0.1601-0.0159c0.6905-0.0689,1.3666-0.0737,2.0412-0.074c0.0624-0.0947,0.1225-0.1545,0.1826-0.2146l0.1494-0.0714
		c0.6655-0.0737,1.3187-0.074,1.9712-0.074h0.1332l0.0746,0.1122c0.0598,0.0899,0.1143,0.1814,0.1715,0.2784l0.0425,0.0703
		l0.0082,0.0003l-0.0051,0.0051c0.0453,0.076,0.0935,0.1554,0.1448,0.2339c0.1092-0.0692,0.2191-0.1335,0.3336-0.1866
		c0.0023-0.2471,0.0136-0.4955,0.0786-0.756l0.4646-0.0511c0.0505,0.1012,0.102,0.2021,0.1537,0.3288l0.8711-0.1743l0.1908,0.3572
		c0.7121,0.0125,1.4315,0.0685,2.196,0.1273l0.0207,0.0017c0.0853-0.1815,0.1995-0.3527,0.3135-0.5238l0.1055-0.1582l0.1814,0.0606
		c0.2369,0.0791,1.1129,0.1573,1.9843,0.123c0.4924-0.0193,0.9768-0.0757,1.3241-0.1885c-0.0363-0.2381-0.0374-0.4586-0.0374-0.6344
		v-0.2217l0.2208-0.0264c2.3864-0.2829,5.0972-1.0244,7.9208-1.7966c2.1254-0.5814,4.316-1.1801,6.4743-1.6154v-0.1437
		c-3.7751-0.3257-7.6342-0.1375-11.2952,0.0411c-2.3205,0.1137-4.5627,0.2228-6.6666,0.1956
		c-22.6788,0.7427-44.4852,3.0696-66.6513,5.4351l-4.3906,0.468l-0.0108,0.0009c-2.1685,0.1366-4.3852,0.2426-6.6016,0.3484
		c-5.4797,0.2611-10.9624,0.5227-16.0398,1.277l0.3331,0.0377l0.1582,0.0173l0.0508,0.1527
		c0.2568,0.7708,0.2571,0.771-0.0371,1.1634l-0.0677,0.0901l-0.1117,0.0094c-6.719,0.5496-13.8625,0.5295-20.4956,0.5108
		c-1.1242-0.0028-2.2337-0.0065-3.3245-0.0068c-0.2563,0.7424-0.4402,1.675-0.5652,2.6858
		C94.6772,151.3936,94.6123,152.7273,94.6049,153.9809L94.6049,153.9809z M362.3582,150.685l0.6047,0.2619
		c5.7818-0.0005,11.4689-0.1264,17.1895-0.4668c5.7178-0.3399,11.4809-0.8943,17.422-1.7507
		c0.7943-0.7719,3.1779-3.5255,4.9533-5.8748c1.0383-1.3739,1.8635-2.5895,2.016-3.1348
		c-19.0344-4.9601-36.5848-2.9308-54.5088-0.8572c-6.3011,0.7288-12.6499,1.4641-19.1367,1.9029
		c0.1102,0.1469,0.2514,0.2316,0.3963,0.3198c0.29,0.1766,0.5944,0.3619,0.8113,0.8736c0.1669-0.0482,0.3481-0.0839,0.5683-0.0839
		h0.6032l-0.2318,0.2319c0.3186-0.0165,0.6446-0.0159,0.9966-0.0159h0.1531l0.0695,0.1386
		c0.0513,0.1026,0.1024,0.2049,0.1548,0.3342C341.0762,141.4585,355.1831,147.5739,362.3582,150.685L362.3582,150.685z
		 M186.8638,148.6786h0.0003c0.123,0.4465,0.2574,0.9315,0.3625,1.4763c0.9323,0.0002,1.8694,0.0051,2.882,0.0714
		c9.4161-1.0594,19.0599-1.6702,28.81-2.2873c6.7317-0.4261,13.515-0.8564,20.3315-1.4412c0.1431-0.4405,0.1496-0.57,0.1499-1.6826
		c-0.2596-0.0941-0.487-0.1519-0.7118-0.2084c-14.775,0.0009-29.4347,0.8453-43.7063,1.6668
		c-2.8335,0.163-5.652,0.3251-8.4529,0.4796C186.5007,147.3569,186.6685,147.968,186.8638,148.6786L186.8638,148.6786z
		 M115.6281,145.628v0.2012c0.1111-0.0059,0.2381-0.0176,0.3671-0.0431c0.1162-0.0232,0.2364-0.0581,0.3489-0.1091
		C116.2077,145.6614,115.9889,145.6484,115.6281,145.628L115.6281,145.628z M98.3801,120.1159
		c-1.1222,10.3413-2.4868,22.9209-2.4222,23.9905c6.728-0.0105,13.7568-0.6579,20.8488-1.3113
		c7.2972-0.6726,14.6619-1.3513,21.8146-1.3521c16.3125-2.5688,33.952-4.464,51.6628-5.4158
		c16.5325-0.889,33.1299-0.9567,48.7712,0.015c6.2663-1.2532,12.6581-2.4919,19.1718-3.657
		c6.4298-1.1503,12.9339-2.2206,19.4811-3.1487c-0.1959-1.87-5.7248-8.9138-11.9174-15.6847
		c-6.2802-6.8666-13.2233-13.42-15.9599-13.9808c0.5539,2.2612,2.306,3.8974,4.0584,5.5341
		c1.5571,1.4536,3.1144,2.9098,3.8954,4.8282c2.4642,2.0742,4.7078,4.7489,7.0126,7.4973c2.6747,3.1895,5.4343,6.4797,8.7021,9.0171
		l0.0955,0.0742v0.123c0,0.6129-1.0273,1.4537-2.0012,2.2505c-0.553,0.4524-1.0886,0.8906-1.3694,1.2226l-0.0919,0.1086
		l-0.1395-0.0235c-0.4079-0.0677-0.8317-0.068-1.2549-0.068h-0.1406l-0.0731-0.1222c-2.9035-4.8393-24.9434-3.1654-37.5264-2.2096
		c-2.8984,0.2197-5.2968,0.4023-6.8692,0.4578c-2.2053,0.4195-6.0483-2.755-10.1721-7.1671
		c-7.0245-7.5155-14.9488-18.6528-16.7825-21.4948c-1.0046-0.0578-2.0245-0.0629-3.045-0.0635
		c0.0556,0.6395,0.1247,0.7943,0.741,2.1501c1.0661,1.6333,4.9178,5.8173,9.0164,10.2693
		c5.6756,6.1648,11.8216,12.8407,11.8216,14.186v0.3047l-0.2988-0.0598l-0.777-0.1553c0.0042,0.1248,0.0125,0.2532,0.0312,0.3909
		c0.2619,0.0229,0.5524,0.0805,0.8433,0.1386l0.32,0.0641l-0.1462,0.2923c-0.0443,0.0887-0.0445,0.2769-0.0445,0.4646v0.1806
		l-0.1729,0.0567c-5.6855,1.87-12.4685,1.7334-19.0163,1.6013c-6.0984-0.1227-11.9928-0.2415-16.5509,1.2776l-0.1463,0.0487
		l-0.1083-0.1083c-1.0145-1.0145-1.9885-2.2203-2.886-3.331c-0.7557-0.9357-1.4576-1.8045-2.082-2.429l-0.0372-0.0488
		c-2.1053-3.5087-5.1154-6.8289-8.0768-10.0953c-3.6652-4.0425-7.2567-8.0037-9.0127-12.1782
		c-3.2052-0.0641-3.4214-0.0643-4.7078,0.167c0.5102,1.7178,2.3624,3.7029,4.3234,5.8036c2.2768,2.4392,4.6964,5.0323,5.4238,7.6451
		h0.3118h0.1627l0.0658,0.1494c0.4051,0.9181,2.0775,3.1263,3.9753,5.6324c3.0609,4.0416,6.7023,8.8489,6.7023,10.5242v0.2673
		l-0.2668-0.0185c-5.0885-0.3475-19.442,1.2617-34.153,2.9112c-18.7262,2.0994-38.0319,4.2636-39.8069,2.4886l-0.1083-0.1083
		l0.0488-0.1463c0.0524-0.1579,0.1304-0.2789,0.2174-0.3847c-0.0927-0.0589-0.1857-0.1145-0.2727-0.1661
		c-0.097-0.0573-0.1885-0.1117-0.2784-0.1715l-0.0984-0.0655l-0.0119-0.1179c-0.0391-0.3938-0.0014-0.6353,0.1593-1.6552
		c0.1534-0.9749,0.4221-2.6816,0.8498-5.9616l0.0703-0.1443c0.182-0.182,0.4292-3.3239,0.6619-7.2439
		c0.337-5.6826,0.6126-12.9557,0.6321-15.3663c-0.5596,0.0125-1.1166,0.0635-1.673,0.1185
		C99.6676,108.2586,99.0689,113.7671,98.3801,120.1159L98.3801,120.1159z M222.0455,143.9368
		c-1.5843-0.0439-2.9231-0.0028-4.2182,0.0748c1.3969-0.028,2.7964-0.0476,4.1984-0.0487L222.0455,143.9368L222.0455,143.9368z
		 M408.0946,142.223c-0.3538,0.3266-0.7861,0.7257-0.8569,1.647l0.1165-0.0068c0.2491-0.0159,0.5803-0.0378,0.9292-0.0692
		c1.3875-0.1259,3.3896-0.4246,3.4844-1.2469c-0.6761-0.4402-1.1974-0.6797-1.6904-0.8011
		c-0.4733-0.1163-0.9346-0.1265-1.4882-0.101C408.4772,141.8678,408.2964,142.0367,408.0946,142.223L408.0946,142.223z
		 M238.1298,141.8423c0.1316,0.1973,0.3093,0.4362,0.4924,0.6803c12.0906-0.0054,24.6234-0.7792,37.2733-1.5602
		c12.8245-0.7917,25.7689-1.5914,38.4979-1.6058c-0.0261-0.0845-0.0413-0.1664-0.0413-0.2557v-0.1032l0.0734-0.0734
		c0.0983-0.0984,0.2622-0.1806,0.4252-0.2619l0.2109-0.1054l0.1171,0.205c0.2055,0.3597,0.5074,0.748,0.8342,1.023
		c0.1984,0.1669,0.4028,0.2903,0.5919,0.3322c0.155,0.0346,0.3044,0.0096,0.4325-0.1017l-0.0002-0.0003
		c0.0791-0.0689,0.1545-0.1695,0.2225-0.3056l0.2225-0.445l0.2225,0.445c0.0562,0.1128,0.1125,0.2271,0.2129,0.3855
		c2.3199,0.303,10.6206-0.2806,20.2906-1.1628c14.6058-1.3328,32.2895-3.3023,37.2153-3.9498
		c-2.3936-0.3163-3.8705-0.5717-5.548-0.8609c-1.1512-0.1981-2.3984-0.4133-4.1117-0.6766
		c-14.3654-1.08-28.8201-2.1424-43.2164-2.7802c-14.3994-0.6378-28.7631-0.8541-42.963-0.2443
		c-2.1852,0.7146-4.7304,1.1602-7.2632,1.6035c-3.3282,0.5826-6.6362,1.1622-9.0176,2.3326l-0.0782,0.0233
		c-10.9063,1.3893-22.5683,4.1255-32.76,6.5165l-0.8612,0.2021v0.3064v0.2501h-0.25c-0.1361,0-0.256-0.0006-0.3557,0.0065
		l0.0014,0.0039c0.0808,0.1752,0.1701,0.3648,0.2741,0.5536c0.2778-0.0301,0.5669-0.0595,0.8629-0.0819
		c0.2367-0.0182,0.4774-0.0329,0.7172-0.0405c-0.0391-0.1091-0.0717-0.2129-0.1015-0.3087l-0.0005,0.0003l-0.0519-0.1641
		l-0.0901-0.2857l0.2979-0.0374c0.6568-0.0819,0.6577-0.0819,1.2342,0.2475l0.4042,0.2307l-0.4167,0.2084
		c-0.0295,0.0147-0.0598,0.0349-0.0905,0.0601c0.4822,0.1956,1.1849,0.1723,2.0628,0.142c0.3291-0.011,0.6831-0.0241,1.0267-0.0267
		c0.0365-0.0706,0.0099-0.1134-0.0842-0.2701l-0.1387-0.2316l0.241-0.1199c0.0916-0.0453,0.2104-0.0924,0.3419-0.125
		c0.11-0.0272,0.2282-0.0453,0.3455-0.0453h0.25v0.25v0.5123c0.3799-0.1307,0.9842-0.2971,1.4099-0.1279l0.0448-0.0474
		l-0.0003-0.0005c0.0797-0.0797,0.1746-0.1502,0.2722-0.199l0.1975-0.0989L238.1298,141.8423L238.1298,141.8423z M409.8251,140.031
		c1.6586,0.8272,3.3857,1.6563,5.1132,2.4851c3.7227-0.4521,7.3412-0.9215,10.993-1.3955
		c9.0272-1.1713,18.2593-2.3698,27.4663-3.1326h0.0164c5.9635-0.1077,12.007-0.3781,18.1117-0.8461
		c6.082-0.4663,12.2176-1.1296,18.3867-2.0251c0.2593-0.1964,0.7548-1.7439,1.2906-3.6944
		c0.9178-3.3415,1.8924-7.7933,2.1002-8.9124c-19.5891,0.5235-38.8834,2.5917-57.9714,4.638
		c-5.0901,0.5457-10.1667,1.0905-15.2808,1.6081c-0.4866,0.4768-1.2676,1.1361-2.1874,1.9134
		C414.7461,133.3035,409.9975,137.3156,409.8251,140.031L409.8251,140.031z M225.2565,141.6564
		c-0.0227,0.076-0.0474,0.167,0.3756,0.381c0.0757,0.0238,0.1732,0.0456,0.2891,0.0227c0.0785-0.0156,0.1692-0.0522,0.2713-0.1197
		C225.7815,141.7059,225.5664,141.664,225.2565,141.6564L225.2565,141.6564z M227.0803,141.5316
		c0.1375,0.1806,0.2827,0.3705,0.4504,0.5806c0.0621-0.0714,0.1111-0.1494,0.15-0.2322v-0.0008
		c0.0547-0.1159,0.0904-0.2424,0.1094-0.3683C227.5464,141.5121,227.306,141.5163,227.0803,141.5316L227.0803,141.5316z
		 M329.2248,141.4455c0.0471,0.1017,0.1038,0.2245,0.1684,0.4104c0.3513-0.0314,0.7016-0.0445,1.0633-0.0496
		c-0.1315-0.1119-0.231-0.2137-0.3067-0.3073c-0.1043-0.129-0.1675-0.2446-0.2032-0.3481h-0.8235
		C329.142,141.2694,329.1777,141.3437,329.2248,141.4455L329.2248,141.4455z M400.4076,137.3488
		c1.7096,0.4403,3.3956,0.8751,4.968,1.2059c0.4346-0.1885,1.3164-1.1163,2.1348-2.1357c0.756-0.9419,1.4437-1.946,1.6679-2.5086
		c-1.8261-0.2089-5.8833-0.0978-9.8071,0.1981c-3.7556,0.2832-7.3749,0.7342-8.7738,1.2317
		c-0.0102,0.0224-0.0198,0.0451-0.0286,0.0683C393.4412,135.5548,396.9725,136.4642,400.4076,137.3488L400.4076,137.3488z
		 M242.1828,125.458c-2.5966,0.0601-5.569,0.489-7.079,0.8748l0.3192,0.0062c2.5784,0.0527,9.5709,0.1962,10.9389-0.3467
		C245.611,125.5485,243.9961,125.4158,242.1828,125.458L242.1828,125.458z M87.7995,87.1552
		c-0.0125,0.5219-0.0229,0.9941-0.0306,1.3958c0.2888-0.0456,0.578-0.0842,0.8694-0.0961
		c1.3717-3.4954,3.7426-6.9998,6.0761-10.4479c1.7873-2.6407,3.5535-5.2503,4.8172-7.7774l0.0694-0.1386h0.1531h0.864h0.0746
		l0.0865-0.1154c0.1673-0.2225,0.8677-0.4059,1.7365-0.633c0.6752-0.1763,1.4612-0.3812,2.1345-0.6267
		c0.9249-4.4065,5.3603-10.2036,8.7095-14.5803c0.6126-0.8003,1.19-1.5534,1.6869-2.2215c-0.123-0.4731-1.362-2.0583-2.9574-3.9532
		c-2.734-3.2477-6.5047-7.3477-7.6059-8.4651c-1.5571,0.1261-4.8971,0.1179-8.5113,0.1103
		c-6.0517-0.0131-12.8863-0.0276-13.1312,0.4623l-0.0686,0.1375H82.618c-2.7629,0-5.5553-0.0705-8.3259-0.1397
		c-4.0226-0.1009-8.0005-0.201-11.757-0.0827c-0.4413,3.6448-0.3322,7.9818-0.2203,12.4208
		c0.1593,6.3298,0.3251,12.8682-1.0876,17.9719c1.3612-0.278,2.7774-0.5842,4.1995-0.8901
		c6.387-1.3754,12.9042-2.7791,19.7113-2.7791l0.1338,0.0403C88.2411,68.6367,87.9409,81.2192,87.7995,87.1552L87.7995,87.1552z
		 M107.6012,66.2023c-0.5536,1.1472-0.8113,1.9474-0.5836,2.1557c3.7429-0.2852,7.6654-0.5893,11.66-0.9391
		c3.8925-0.341,7.8285-0.7242,11.6796-1.1749c-0.6279-1.2708-2.8985-3.903-5.2727-6.3499
		c-2.5549-2.6331-5.1982-5.0377-5.9967-5.2682c-0.2835,0.3748-0.7359,0.9938-1.3034,1.7728
		c-2.859,3.9254-8.6063,11.8162-9.9663,11.8162h-0.3138l0.0709-0.3056c0.4972-2.1388,2.3043-4.4408,3.9869-6.5849
		c0.8064-1.0278,1.5854-2.02,2.1662-2.9262l0.1335-0.1026c1.7016-0.5505,5.4496-5.8045,9.6608-12.5249
		c7.5061-11.9787,16.4211-28.5738,17.985-31.7012l0.0459-0.0652c0.2826-0.2827,0.5465-0.618,0.7534-0.959
		c0.1131-0.1862,0.2101-0.3736,0.2838-0.5545c-0.701,0.1378-1.0142,0.2208-1.7305,0.764
		c-0.9799,2.7997-7.2879,13.8541-13.1035,23.1299c-4.4501,7.0982-8.644,13.1695-10.0239,13.7798
		c-0.3552,0.9051-1.9386,3.2352-3.7928,5.9641C111.6074,59.5622,108.8413,63.6333,107.6012,66.2023L107.6012,66.2023z
		 M127.2104,60.1957c1.6424,1.8167,3.3525,3.7077,5.3943,5.4312h0.3909c0.0042-0.0329,0.0105-0.0658,0.0187-0.0995
		c-1.2609-1.0482-2.7664-2.8307-4.3013-4.648c-2.2995-2.7227-4.6678-5.5261-6.241-5.9372c0.0051,0.1596,0.0167,0.3246,0.0479,0.5068
		C124.1762,56.8404,125.6647,58.4864,127.2104,60.1957L127.2104,60.1957z M127.1945,57.3135
		c3.2014,3.4792,6.8834,7.1668,8.4248,8.3134c2.9903-0.0057,6.1702-0.3271,9.3926-0.8422c3.2-0.511,6.4474-1.2135,9.5936-1.9876
		c0.3217-2.9954,0.1925-6.9546,0.0799-10.4253c-0.0524-1.6147-0.1015-3.1264-0.1015-4.351v-0.25h0.25
		c0.2446,0,0.5488,0.0763,0.8524,0.1519l0.1897,0.0476v0.1945c0,0.9816-0.0615,2.1668-0.1276,3.4435
		c-0.1868,3.6079-0.4119,7.9679,0.6281,10.9225h0.8045c0.0371-2.5481,0.0921-5.093,0.155-7.6377
		c-0.0215-0.485-0.034-0.9666-0.034-1.4363h0.0011c0-0.8501,0.04-1.6656,0.1338-2.4126l0.1001-3.6062l0.0034-0.119l0.0941-0.0723
		c2.632-2.0191,5.1386-3.9305,7.7519-5.6968c2.6096-1.7637,5.3289-3.3848,8.3911-4.8282c2.7142-2.3074,6.6858-4.0096,10.7756-5.5984
		c3.6431-1.8264,7.1073-3.2967,9.8184-4.0241c1.8887-0.9428,3.5217-1.9709,4.7097-3.1589l0.0737-0.0731l0.1029-0.0004
		c3.282,0,6.9075-2.1321,10.5041-4.2471c2.4142-1.4199,4.8166-2.8318,7.1189-3.6077c0.0394-0.4476,0.0318-0.5181-0.0952-0.6534
		c-4.7603-0.3563-9.3668-0.9053-13.9422-1.4499c-7.5209-0.8957-14.9596-1.7818-22.8095-1.7818h-0.1324l-0.0745-0.1115
		c-0.0587-0.0881-0.1185-0.1647-0.1726-0.2339c-0.0445-0.057-0.0853-0.1091-0.1222-0.1627
		c-3.3452-0.0853-6.4721-0.0349-9.5332,0.0154c-1.8604,0.0306-3.6972,0.0607-5.4451,0.0607h-0.1786l-0.0575-0.1721l-0.159-0.4771
		l-0.9876-0.0156c-1.1217-0.0184-2.8661-0.0473-4.9558-0.0473c-5.8669,0-13.7874,0.2206-13.7874,1.5421l-0.0451,0.1406
		c-0.1409,0.2052-0.3424,0.5114-0.5956,0.9047c-1.8093,2.8146-5.9754,9.6968-9.5697,15.9489
		c-3.4231,5.9544-6.3643,11.3068-6.2643,11.8491c4.8356,0.1857,9.5992,0.8147,14.3974,1.6917
		c4.8416,0.885,9.7004,2.0188,14.7007,3.206l0.1925,0.046v0.197v0.648v0.25h-0.25h-1.656l-0.0663-0.0099
		c-4.9229-1.3654-9.7021-2.3717-14.4258-3.1169c-4.6842-0.7393-9.3209-1.2223-13.9941-1.5461
		c-1.4238,1.4545-2.5866,3.4654-3.7417,5.4647c-0.4663,0.8073-0.9318,1.6137-1.4173,2.3873
		C121.9473,51.3822,124.3814,54.256,127.1945,57.3135L127.1945,57.3135z M194.5639,27.561
		c-2.3187,1.1548-5.0023,2.1787-7.7185,3.2159c-0.6996,0.2673-1.4009,0.5357-2.0988,0.807
		c-0.6316,0.3167-1.2691,0.644-1.9086,0.9805c-7.3236,3.8526-14.9618,8.843-18.3331,11.897l-0.0459,0.0332l-0.4932,0.2744
		c-1.4856,0.8235-2.4579,1.3632-3.5345,2.7561l-0.0754,0.0978h-0.1219c-1.3839,0-2.0438,1.4202-2.2992,3.4231
		c-0.0346,1.2722-0.0683,2.5438-0.0998,3.8154c0.1086,2.5109,0.47,5.1443,0.7268,7.0121l0.0876,0.6432
		c23.6871-1.5695,23.7016-1.5699,27.1446-1.5699v0.0003c0.809-0.0601,8.3339-1.3751,13.9207-2.8018
		c3.0291-0.7736,5.4643-1.5616,5.864-2.158c0.485-1.6889,1.2567-3.6731,2.0591-5.7356c1.5721-4.0405,3.2635-8.3875,3.1122-11.348
		c-2.1348-2.4494-4.305-4.6171-6.5259-6.5624c-2.2175-1.9429-4.4926-3.6684-6.8403-5.2373
		C196.5994,27.1137,195.6461,27.2747,194.5639,27.561L194.5639,27.561z M212.0014,50.4613c-0.9799,3.3103-1.821,6.4948-1.631,6.8856
		c3.1981-0.0037,6.2796-0.1919,9.4657-0.3857c1.9398-0.1179,3.9203-0.2384,6.0052-0.322c-0.2092-0.5341-1.302-2.0605-2.7153-3.9169
		c-2.9999-3.9413-7.4358-9.2477-8.1414-10.0672h-0.3833C214.2131,43.4891,213.0183,47.0268,212.0014,50.4613L212.0014,50.4613z
		 M221.6316,48.8537c2.8837,3.6919,5.8949,7.2241,6.8468,7.7732h0.6503c-0.0479-1.1798-2.3635-4.4195-5.1168-7.7094
		c-3.0118-3.5985-6.5342-7.2207-8.2134-8.2933C216.5783,42.1245,219.0467,45.5448,221.6316,48.8537L221.6316,48.8537z
		 M108.7075,42.8386c3.3092,3.5988,6.1416,6.4939,7.05,6.9347c0.1877-0.0459,0.3969-0.055,0.6097-0.057
		c0.1049-0.2659,0.1505-0.5301,0.1505-0.7804h-0.0011c0-0.4034-0.1162-0.775-0.2903-1.0727
		c-0.1695-0.2897-0.3912-0.5071-0.6097-0.6111l0.0003-0.0006c-0.0845-0.0403-0.1661-0.0618-0.239-0.0618h-0.1687l-0.0627-0.1562
		c-0.0419-0.1046-0.0845-0.2049-0.125-0.3002c-0.0867-0.2041-0.165-0.3892-0.2203-0.5763
		c-2.0633-1.4828-5.2466-5.0006-8.5354-8.6344c-4.6519-5.14-9.5185-10.5171-11.4891-10.5619
		C95.9808,28.4601,103.0238,36.6571,108.7075,42.8386L108.7075,42.8386z M114.0506,43.4475c1.4236,1.2773,2.9752,2.67,3.6482,3.9113
		c0.6083,0.0403,1.2952-0.504,1.9395-1.2671c0.9782-1.1588,1.8295-2.8,2.2178-3.7805c-1.4496,0.0657-2.8979,0.1318-4.3064,0.1987
		l-0.2962,0.0142l0.0366-0.2934c0.0278-0.2228,0.0757-0.3861,0.1182-0.5315h0.0003c0.0496-0.1698,0.0913-0.3104,0.0612-0.5261
		c-1.1869-0.2659-2.2805-0.4524-3.3171-0.5721c-0.9953-0.1151-1.9386-0.1686-2.8661-0.1763
		C111.3781,41.0488,112.6491,42.1895,114.0506,43.4475L114.0506,43.4475z M111.3888,39.1771
		c3.4299-0.0766,7.4319-0.1658,10.8986,1.9698h0.3804c2.4035-3.3424,6.5809-9.6744,10.0956-15.7131
		c2.4146-4.1484,4.5142-8.1541,5.5023-10.9456c-0.43,0.062-0.8518,0.1182-1.247,0.1712c-2.6297,0.3529-4.0612,0.5456-6.7393,2.3904
		l-0.1211,0.0836l-0.1318-0.066c-0.0643-0.032-0.1145-0.0632-0.1568-0.0893c-0.0252-0.0156,0.0043-0.0272-0.0199-0.0272
		l-0.2044,0.0002l-0.0405-0.2015c-0.051-0.2563-0.0672-0.4741-0.0731-0.6795c-1.0321,0.2251-2.6328,0.709-4.2327,1.1926
		c-2.1546,0.6514-4.3095,1.3033-5.1647,1.3425c-3.4529,2.2804-7.9393,3.4549-12.4398,4.6321
		c-3.3715,0.8821-6.7521,1.7668-9.6865,3.117c0.3702,1.5792,5.9783,7.1336,9.4258,10.548c1.0054,0.9958,1.83,1.8121,2.2915,2.3006
		C110.3006,39.2015,110.8366,39.189,111.3888,39.1771L111.3888,39.1771z M63.8915,38.2156
		c0.6523,0.0658,1.3107,0.1371,2.0358,0.2673c4.0246-0.0003,8.0592-0.1015,12.1345-0.2035
		c8.2239-0.2065,16.6187-0.4167,24.9497,0.1785c-0.6043-1.7146-2.7213-4.1173-5.0862-6.2433
		c-2.8568-2.5676-6.0477-4.7155-7.3545-4.7509c-1.2844,0.4091-2.5268,0.7906-3.7551,1.1673
		c-5.1469,1.5798-10.0618,3.0887-14.7368,5.5704l-0.2597,0.1381l-0.0935-0.2806c-0.0391-0.1176-0.0782-0.2356-0.108-0.3464
		c-1.3949,0.3606-2.7298,0.936-4.0017,1.622c-1.3172,0.7106-2.5696,1.5417-3.755,2.3757
		C63.8623,37.8814,63.8671,38.0509,63.8915,38.2156L63.8915,38.2156z M205.3423,32.0678c2.3822,2.2133,4.6922,4.2806,5.5108,4.8328
		c0.2177,0.0079,0.4325,0.0499,0.6752,0.1c0.0093-0.0671,0.0136-0.1377,0.0136-0.2097c0-1.5848-2.2399-3.9416-4.8812-6.0417
		c-2.6731-2.1254-5.7433-3.9685-7.3565-4.5063c-0.0405-0.0136-0.0794-0.0252-0.1179-0.0368
		C200.0951,27.1304,202.7591,29.668,205.3423,32.0678L205.3423,32.0678z M60.0318,36.1489c0.2917,0.2281,0.7359,0.4121,1.3626,0.534
		h0.8926c0.2004-0.532,0.4059-1.0601,0.6744-1.5298l0.0723-0.1261h0.1443c0.7668,0,4.8583-1.3743,9.2092-2.9495
		c5.4709-1.9806,11.3193-4.2474,11.4542-4.4836l0.0573-0.0998l0.1105-0.0221c10.336-2.0588,20.6907-5.224,31.0941-8.4036
		c7.789-2.3802,15.6067-4.7702,23.4547-6.7097c2.9058-1.1702,4.9941-2.2314,6.2447-3.7882c1.2135-1.5106,1.6546-3.5192,1.3127-6.599
		L60.0318,36.1489L60.0318,36.1489z M59.633,34.8781c-0.1171,0.5003-0.0196,0.9431,0.3988,1.2708L59.633,34.8781L59.633,34.8781z
		 M60.6498,33.056c-0.5054,0.6358-0.8867,1.2659-1.0168,1.8221L60.6498,33.056L60.6498,33.056z M65.0965,29.0186
		c-0.7475,0.5261-3.0546,2.2862-4.4467,4.0374L65.0965,29.0186L65.0965,29.0186z M71.2055,26.5326
		c-2.0466,0.8479-4.0808,1.6914-6.109,2.486L71.2055,26.5326L71.2055,26.5326z M91.8819,19.5379
		c-7.2391,1.4258-14.0287,4.2397-20.6765,6.9947L91.8819,19.5379L91.8819,19.5379z M91.9191,19.527l-0.0371,0.0108L91.9191,19.527
		L91.9191,19.527z M204.7538,27.8133c2.7476,2.3524,6.4633,5.3416,7.6541,6.2649c0.4567-0.6574,1.5545-3.445,2.6938-6.5742
		c1.4709-4.0417,2.9886-8.6209,3.2921-9.9641c-2.6133,0.7018-5.4745,2.2491-8.3389,3.7991
		c-2.8072,1.519-5.6191,3.0413-8.2454,3.7939C202.2092,25.5927,203.3515,26.6129,204.7538,27.8133L204.7538,27.8133z
		 M221.2538,14.277l0.6902,0.0848h0.0012c1.5312-0.1276,2.4318-0.2029,2.2719-2.0969c-1.2526-1.4728-5.6163-2.8774-10.9069-4.094
		c-9.2151-2.1195-21.1943-3.6397-24.6291-4.0111c-0.0601,0.5644-0.0967,0.5999-0.4065,0.9097l-0.0723,0.0723h-0.1043
		c-2.9333,0-10.11-0.894-17.5995-1.8265c-10.0426-1.2507-20.6504-2.5716-22.1412-1.9273c-0.104,0.4589-0.2806,1.1381-0.481,1.9148
		c-0.5085,1.9684-1.1821,4.5751-1.2764,5.9108c0.4439-0.0607,0.9037-0.1191,1.3638-0.1766l0.2804-0.0349v0.2829v0.809
		C171.4414,8.144,197.5473,11.3576,221.2538,14.277L221.2538,14.277z"/>
</g>
</svg>
