<?xml version="1.0" encoding="utf-8"?>
<!-- Generator: Adobe Illustrator 21.1.0, SVG Export Plug-In . SVG Version: 6.00 Build 0)  -->
<svg version="1.1" id="Cru" xmlns="http://www.w3.org/2000/svg" xmlns:xlink="http://www.w3.org/1999/xlink" x="0px" y="0px"
	 viewBox="0 0 510.48 219.816" enable-background="new 0 0 510.48 219.816" xml:space="preserve">
<g>
	<path fill-rule="evenodd" clip-rule="evenodd" d="M106.416,219.816c-5.112-0.2881-10.224-0.576-15.336-0.936
		c-6.48-1.008-6.48-1.008-14.904-1.944c-14.616-0.504-14.616-0.504-35.496-0.504c-4.824,0.792-9.72,1.584-14.616,2.448
		c-6.984-0.288-8.208,0-9.864,0c-0.504-0.36-1.008-0.72-1.584-1.08c-0.072-1.152-0.144-2.376-0.216-3.6
		c0.36-0.36,0.36-0.36,11.376-2.304c2.376-1.224,4.752-2.52,7.2-3.816c0.144-0.216,0.288-0.432,0.504-0.648
		c-0.504-0.36-0.504-0.36-3.816-0.576c-1.872,0.216-3.816,0.432-5.76,0.72c-0.72-0.216-1.44-0.432-2.16-0.72
		c-0.72,0.072-1.44,0.144-2.16,0.216c-0.288-0.36-0.648-0.72-1.008-1.152c-0.864-2.304-0.864-2.304-1.08-3.96
		c0.432-1.44,0.864-2.952,1.368-4.464c6.696-0.72,6.696-0.72,7.416-0.504c2.16-0.072,4.32-0.144,6.48-0.216
		c0.36-0.36,1.296-5.4,2.232-8.712c0.216-3.096,0.432-6.192,0.72-9.36c-0.288-1.368-0.576-2.736-0.936-4.104
		c-0.072-1.872-0.144-3.816-0.216-5.76c-0.792-1.944-1.584-3.96-2.448-5.976c0-0.792,0-1.584,0-2.448
		c0.504-1.656,0.504-1.656,0.72-4.032c-0.144-0.144-0.288-0.288-0.432-0.504c-0.288-2.16-0.648-4.32-1.008-6.48
		c-0.792-2.88-1.584-5.76-2.448-8.64c-0.36,0-0.792-0.072-1.224-0.144c-3.096,0.936-5.04,1.944-6.48,2.376
		c-1.656,1.296-3.312,2.592-5.04,3.888c-2.952,1.728-5.904,3.456-8.856,5.256c-1.08,0.288-2.232,0.576-3.384,0.936
		c-0.504-0.072-1.08-0.144-1.656-0.216c-0.72-1.152-1.512-2.304-2.304-3.456c1.656-3.384,1.656-3.384,2.592-5.976
		c0.216-1.656,0.432-3.312,0.72-5.04c0.288-0.648,0.648-1.2961,1.008-1.944c2.376-2.664,2.376-2.664,4.752-4.824
		c3.888-8.856,3.888-8.856,4.824-10.296c1.368-0.936,2.808-1.872,4.248-2.808c0.864-0.216,1.8-0.504,2.736-0.792
		c-0.288-0.936-0.576-1.872-0.864-2.88c0.648,0,1.296,0,1.944,0.072c0.936,0.576,1.872,1.152,2.88,1.728
		c2.736,5.184,2.736,5.184,4.68,9.72c1.224,4.464,2.52,8.928,3.816,13.4641c0.864,2.376,1.8,4.752,2.736,7.2
		c0.504-0.4319,1.008-0.936,1.584-1.44c1.944-3.888,1.944-3.888,2.88-5.04c0.792-0.288,1.656-0.576,2.52-0.864
		c1.728,0.216,1.728,0.216,6.48,0c2.664-1.008,2.664-1.008,4.104-1.224c0.36,0.144,0.792,0.288,1.224,0.504
		c1.08-0.072,2.16-0.144,3.312-0.288c0.288-0.36,0.648-0.72,1.008-1.08c1.008-2.664,2.088-5.4,3.168-8.136
		c1.944-2.88,1.944-2.88,5.76-10.08c-0.072-0.2881-0.144-0.576-0.288-0.864c-1.296-0.144-2.592-0.288-3.888-0.432
		c-1.296-0.648-2.664-1.296-4.032-1.944c-1.296-0.936-2.592-1.872-3.888-2.88c-0.288-0.504-0.576-1.008-0.864-1.512
		c-0.216-1.008-0.432-2.088-0.72-3.168c1.08-1.008,2.16-2.016,3.24-3.096c0.864-0.432,1.728-0.864,2.664-1.368
		c3.168-0.576,6.408-1.224,9.648-1.872c3.096-0.216,6.192-0.432,9.36-0.72c12.456-0.216,24.912-0.432,37.44-0.72
		c5.976-0.576,12.024-1.152,18.072-1.8c0.072-0.72,0.144-1.44,0.216-2.16c0.648-1.008,1.296-2.016,1.944-3.096
		c1.944-1.944,3.816-4.608,11.736-13.248c1.08-0.72,2.16-1.512,3.312-2.304c1.656-0.432,3.312-0.936,5.04-1.44
		c7.416,0,22.536-0.72,35.28-0.936c7.416-0.504,7.416-0.504,22.536-0.936c0.864-0.144,1.728-0.288,2.664-0.504
		c0-0.648,0-1.2961,0.072-2.0161c-3.816-12.744-3.816-12.744-7.704-24.48c-0.576-1.368-1.224-2.736-1.872-4.104
		c-2.88-10.512-2.88-10.512-3.384-11.5201c-0.936-0.576-1.872-1.224-2.88-1.8719c-0.72-1.152-1.44-2.376-2.16-3.6
		c0.072-1.296,0.144-2.592,0.216-3.888c0.648-1.44,1.296-2.88,1.944-4.32c0.72-0.936,1.44-1.872,2.16-2.88
		c-0.072-1.7281-0.144-3.4561-0.216-5.256c0.36-0.288,0.72-0.576,1.08-0.864c1.08,0,2.232,0,3.384,0
		C209.016,9.288,209.808,9,210.6,8.64c0.072-2.88,0.144-5.76,0.216-8.64c0.792,0,1.584,0,2.448,0c0.36,0.144,0.72,0.36,1.152,0.576
		c0.144,1.296,0.36,2.592,0.576,3.8879c1.08,0.576,2.16,1.152,3.312,1.728c0.432,0.72,0.936,1.512,1.44,2.304
		c10.8,0.144,10.8,0.144,15.552-0.144c1.152,0.432,2.376,0.936,3.6,1.44c0,0.432,0.072,0.864,0.144,1.368
		c-1.944,4.104-4.824,9.144-5.328,9.576c-1.7281,0.144-1.7281,0.144-3.456-0.216c0.144,0.864,0.36,1.728,0.576,2.664
		c0,1.152,0,2.376,0,3.6c-0.144,0.432-0.288,0.936-0.432,1.44c-0.504,0.432-1.008,0.936-1.584,1.44
		c-0.504,0.144-1.08,0.36-1.656,0.576c-0.936,0-1.872-0.072-2.88-0.144c1.8,3.888,1.8,3.888,3.672,7.2
		c1.944,2.664,3.888,6.264,6.768,10.584c0.936,0.936,2.88,4.104,8.136,11.016c2.52,4.248,5.112,8.496,7.704,12.744
		c3.024,0.0721,3.024,0.0721,12.096-0.864c0.288-0.144,0.648-0.288,1.008-0.504c6.696-0.936,7.92-1.44,13.896-2.376
		c4.104-0.936,4.104-0.936,5.04-1.44c5.544-0.936,6.984-1.44,16.56-3.384c4.824-1.44,9.864-2.376,11.016-2.88
		c2.88-0.432,2.88-0.432,5.04-0.432c1.008,0.936,2.664,1.872,3.6,2.736c0,0.792,0.072,1.584,0.144,2.448
		c0.288,0.72,0.576,1.44,0.936,2.16c3.816,4.752,7.704,9.072,11.52,14.112c1.944,1.944,1.944,1.944,5.76,6.9839
		c1.44,1.224,2.88,2.5201,4.32,3.816c1.8,1.296,3.6,2.592,5.4,3.888c2.592,1.512,5.256,3.024,7.92,4.608
		c0.36,0.36,0.792,0.792,1.224,1.224c1.224,2.952,2.448,5.976,3.672,9c0.144,1.008,0.288,2.088,0.504,3.168
		c0.9359,1.584,1.8719,3.168,2.88,4.752c0.288,0.936,0.576,1.872,0.936,2.88c0.288,1.8,0.576,3.672,0.864,5.5439
		c2.232-0.216,4.464-0.432,6.768-0.648c4.392-0.072,8.784-0.144,13.176-0.216c0.792,0.144,1.584,0.288,2.376,0.504
		c8.928-0.72,8.928-0.72,23.76-1.44c16.848-1.944,34.128-3.384,49.68-5.328c6.984-0.432,9.648-0.936,19.224-1.872
		c4.68-0.792,9.432-1.584,14.184-2.448c0.792-1.728,0.792-1.728,2.736-7.776c0.4319-0.792,0.9359-1.584,1.44-2.376
		c0.288-1.368,0.576-2.736,0.936-4.104c0.864-0.36,0.864-0.36,3.024-0.36c1.656,0.936,1.656,0.936,2.88,1.224
		c0.2159,0.504,0.504,1.008,0.792,1.584c0.288,1.584,0.648,3.168,1.008,4.752c0.144,3.6,0.288,7.2,0.432,10.8
		c1.008,5.688,2.088,11.376,3.168,17.064c0,2.88,0,2.88-0.504,5.04c-0.648,0.432-1.296,0.864-2.016,1.296c-0.936,0-1.872,0-2.88,0
		c-0.36-0.288-0.792-0.576-1.224-0.936c-4.032,0.72-4.032,0.72-4.68,1.08c-2.5201,4.608-5.112,9.216-7.704,13.8961
		c-4.752,9.6479-4.752,9.6479-5.256,10.08c-2.52,4.752-5.112,9.576-7.704,14.4c-3.816,8.208-3.816,8.208-7.632,17.784
		c-0.864,3.168-1.728,6.336-2.664,9.576c0,0.4319,0.072,0.936,0.144,1.44c2.16,0.36,18.504,1.296,22.32,1.8
		c4.248,0.072,8.496,0.144,12.744,0.216c0.5041,0.288,1.0081,0.576,1.5121,0.864c0.504,1.44,0.504,1.44,0.72,3.384
		c-0.216,0.72-0.216,0.72-0.792,1.08c-4.464-0.072-8.928-0.144-13.464-0.288c-9.8641-0.936-9.8641-0.936-23.04-1.656
		c-0.504,0.144-1.08,0.288-1.656,0.504c-3.672-0.072-7.344-0.144-11.088-0.288c-4.536,0.504-4.536,0.504-9.792,0.72
		c-4.608,1.008-4.608,1.008-12.2401,1.944c-2.376,0.072-4.752,0.144-7.2,0.216c-7.992-0.576-15.984-1.224-24.048-1.872
		c-11.376-0.432-22.824-0.936-34.272-1.44c-8.064,0.072-16.128,0.144-24.264,0.216c-5.472,0.288-11.016,0.576-16.56,0.936
		c-21.096,1.944-21.096,1.944-29.52,2.448c-15.624,0.216-15.624,0.216-27.144,0c-9.648-0.648-19.296-1.2961-29.016-1.944
		c-12.888,0.072-25.776,0.144-38.664,0.216c-13.968,0.792-27.936,1.584-41.976,2.448C142.92,219.816,128.736,219.6,106.416,219.816
		L106.416,219.816z M80.496,203.472c-0.576-0.216-1.224-0.432-1.872-0.72c-3.24,0-6.552,0-9.864,0
		c-4.752-0.432-9.576-0.936-14.4-1.44c-0.36-0.2159-0.72-0.504-1.08-0.792c0-0.288,0-0.576,0.072-0.936
		c0.216-0.144,0.432-0.288,0.648-0.504c0.936-2.16,1.872-6.264,2.88-8.424c0.144-0.504,0.288-1.08,0.432-1.656
		c-0.144-1.44-0.36-2.88-0.576-4.32c2.736,0,5.472-0.072,8.208-0.144c12.672,1.224,12.672,1.224,22.32,1.656
		c25.416-0.216,25.416-0.216,41.472,0c5.472-0.36,11.016-0.72,16.56-1.152c3.024,0,6.048,0,9.144,0
		c1.44-0.144,2.88-0.288,4.32-0.504c8.64,0,8.64,0,18.504-0.504c1.008-0.144,2.016-0.288,3.096-0.432c5.76,0.216,6.696,0,13.464,0
		c5.256-0.288,10.512-0.648,15.84-1.008c6.984-0.144,14.04-0.2881,21.096-0.432c11.016-0.72,11.016-0.72,28.08-1.224
		c1.152-0.144,2.376-0.288,3.6-0.504c7.344,0,14.688,0,22.104,0c8.136-0.432,8.136-0.432,31.392-0.936
		c3.384-0.504,3.384-0.504,6.48-0.504c0.216,0.288,0.432,0.648,0.72,1.008c0.864,0.144,1.728,0.288,2.664,0.432
		c6.984-0.72,6.984-0.72,21.816-1.656c8.424-0.216,9.864-0.504,14.904-0.504c4.824-0.432,4.824-0.432,7.704-0.216
		c4.608-0.072,9.216-0.144,13.896-0.216c1.152-0.144,2.376-0.288,3.6-0.504c7.2-0.288,14.4-0.576,21.6-0.936
		c5.4-0.648,10.872-1.296,16.344-1.944c2.304,0.072,4.608,0.144,6.912,0.216c5.976-0.36,11.952-0.72,18-1.152
		c3.024-0.36,6.048-0.792,9.144-1.224c3.384-0.072,6.84-0.144,10.296-0.216c2.52-0.288,5.112-0.576,7.704-0.864
		c-1.8,4.32-1.8,4.32-6.12,12.528c-0.864,0.0721-0.864,0.0721-1.584-0.432c-4.464,0.216-8.928,0.432-13.392,0.72
		c-16.128,1.944-18.504,2.448-23.76,2.88c-1.944,0.504-6.264,1.008-9.648,1.944c-3.096,0.504-4.32,0.936-18,2.88
		c-14.4,0.936-14.4,0.936-23.04,1.944c-3.672,0.144-7.344,0.288-11.016,0.432c-6.768,0.576-13.536,1.152-20.376,1.728
		c-5.112,0.072-10.224,0.144-15.408,0.216c-3.096,0.504-3.096,0.504-16.992,1.44c-3.168,0.072-6.408,0.144-9.648,0.216
		c-2.232,0.288-4.464,0.648-6.696,1.008c-3.096,0.144-6.192,0.288-9.36,0.432c-11.592-0.072-23.184-0.144-34.776-0.216
		c-4.104,0.504-4.104,0.504-8.424,0.504c-1.008-0.144-2.016-0.288-3.0959-0.504c-4.8961,0.072-9.792,0.144-14.688,0.216
		c-1.584,0.144-3.168,0.288-4.752,0.504c-4.032,0.072-8.136,0.144-12.24,0.216c-2.088,0.288-4.176,0.648-6.264,1.008
		c-3.888-0.0721-7.776-0.144-11.736-0.288c-4.608,0.504-4.608,0.504-10.368,0.504c-0.936-0.144-1.872-0.2881-2.88-0.504
		c-1.512,0-3.024,0-4.536,0c-1.8,0.288-3.672,0.648-5.544,1.008c-3.096,0-6.192,0-9.36,0c-1.296,0.144-2.664,0.288-4.032,0.432
		c-21.384-0.432-28.8-0.216-31.68-0.432c-7.2,0.216-12.744,0-28.08,0.432c-3.888,0.504-12.24,1.008-15.624,1.44
		C83.232,203.472,81.864,203.472,80.496,203.472L80.496,203.472z M49.536,197.28c-0.72-0.288-1.44-0.648-2.16-1.008
		c-1.44-0.288-2.88-0.576-4.32-0.936c-1.008,0-2.016,0-3.096-0.072c0.432-2.088,0.864-4.1761,1.296-6.264
		c0.072-1.44,0.216-2.88,0.36-4.32c2.088-0.072,4.176-0.216,6.264-0.36c1.224,0.144,2.52,0.288,3.816,0.432
		c0,0.504,0.072,1.008,0.144,1.584c-0.72,3.024-1.44,6.048-2.16,9.144c0.144,0.432,0.288,0.936,0.432,1.4399
		C49.752,197.424,49.752,197.424,49.536,197.28L49.536,197.28z M87.984,180.72c-4.176-0.072-8.352-0.144-12.528-0.288
		c-4.824-0.36-9.72-0.72-14.616-1.152c-1.368,0.072-2.736,0.144-4.104,0.216c-1.008-0.144-2.016-0.288-3.096-0.504
		c-0.72-2.016-1.512-4.032-2.304-6.048c0.072-1.008,0.144-2.088,0.216-3.168c0.144-0.36,0.288-0.72,0.504-1.152
		c1.44,0,2.952-0.072,4.464-0.144c5.472,0.288,11.016,0.576,16.56,0.936c4.032,0.36,8.136,0.792,12.24,1.224
		c19.224-0.288,21.096-0.504,48.96-0.504c3.6-0.216,7.2-0.432,10.8-0.72c3.6,0.072,7.2,0.144,10.8,0.216
		c4.248-0.144,8.496-0.288,12.744-0.432c0.216-0.216,0.432-0.432,0.72-0.72c3.24-0.144,6.48-0.288,9.792-0.504
		c12.744,0.216,12.744,0.216,14.4,0.504c5.472-0.216,11.016-0.432,16.56-0.72c4.032,0,8.136,0,12.24,0
		c2.304-0.144,4.608-0.288,6.984-0.504c4.824,0,9.72,0,14.616,0c18.288-0.72,28.8-0.72,35.568-1.224
		c11.016-0.288,22.032-0.576,33.12-0.936c0.216-0.144,0.432-0.2881,0.72-0.504c2.88-0.144,5.76-0.2881,8.64-0.432
		c27.072,0,27.072,0,28.8-0.288c3.672-0.144,7.344-0.2881,11.016-0.432c0.936-0.144,1.872-0.288,2.88-0.504
		c6.264-0.288,12.6-0.576,18.936-0.936c9.648,0,9.648,0,22.104-0.504c2.952-0.288,5.904-0.576,8.856-0.936
		c18.288-0.504,25.92-1.008,39.168-1.44c4.68-0.576,9.36-1.152,14.112-1.728c5.832-0.216,11.664-0.504,17.568-0.792
		c-1.8719,4.536-1.8719,4.536-4.2479,9.144c-0.288,0.216-0.576,0.432-0.864,0.72c-0.576-0.504-1.224-1.008-1.872-1.584
		c-2.52,0.36-5.112,0.72-7.704,1.152c-3.816,0.144-7.632,0.288-11.52,0.504c-3.168,0.36-6.336,0.792-9.576,1.224
		c-7.92,0.432-8.856,0.72-16.056,1.152c-5.7599-0.216-5.7599-0.216-12.024,0c-4.752,0.648-9.576,1.296-14.4,1.944
		c-19.656,0.936-19.656,0.936-24.48,1.44c-22.32,0.216-24.984,0.504-29.016,0.504c-6.48,0.432-10.368,0.432-16.56,0.936
		c-1.872,0-3.816,0-5.76,0c-0.288-0.216-0.648-0.432-1.008-0.72c-3.744,0.072-7.488,0.144-11.232,0.216
		c-1.152,0.144-2.376,0.288-3.6,0.504c-31.464,0.936-31.464,0.936-33.12,1.224c-7.92-0.288-7.92-0.288-22.104,0
		c-1.872,0.216-3.816,0.432-5.76,0.72c-4.968,0.072-9.936,0.144-14.904,0.216c-16.776,0.936-16.776,0.936-31.68,1.224
		c-3.096,0.288-6.192,0.576-9.36,0.936c-13.68,0.216-15.336,0.504-21.096,0.504c-9.36,0.432-10.8,0.72-22.824,0.936
		c-0.72-0.144-1.44-0.288-2.16-0.504c-5.328,0.36-10.656,0.792-16.056,1.224c-6.048,0.144-12.096,0.288-18.216,0.504
		C115.344,180.432,115.344,180.432,87.984,180.72L87.984,180.72z M46.944,179.496c-1.8-0.072-3.6-0.216-5.472-0.36
		c-0.288-0.936-0.576-1.872-0.936-2.88C40.032,171,40.032,171,40.176,169.2c1.44-0.288,1.44-0.288,6.624-0.144
		c1.872,7.2,2.88,9.648,2.736,10.224C48.672,179.352,47.808,179.424,46.944,179.496L46.944,179.496z M81.936,165.312
		c-5.328-0.288-10.656-0.576-16.056-0.936c-5.976-0.0721-11.952-0.144-18-0.216c-3.384,0.072-6.768,0.216-10.224,0.36
		c-0.072-0.864-0.144-1.728-0.216-2.664c0.288-1.44,0.576-2.88,0.936-4.32c0.432-0.648,0.864-1.2961,1.368-2.0161
		c5.04,0.72,5.04,0.72,24.912,2.16c8.424,0.216,10.08,0,34.344,0.432c15.336,0.72,15.336,0.72,16.776,1.008
		c7.488,0,14.4-0.504,45.864-1.008c1.944-0.216,1.944-0.216,65.304-0.936c9.576-0.72,9.576-0.72,13.896-1.44
		c7.416,0,8.424,0.216,14.904,0.216c1.512-0.216,3.024-0.432,4.536-0.72c5.256-0.072,10.512-0.144,15.84-0.216
		c0.72,0.144,1.44,0.288,2.16,0.504c3.024-0.216,6.048-0.432,9.144-0.72c3.024,0,6.048,0,9.0721,0
		c3.528-0.288,7.056-0.648,10.584-1.008c8.64,0,47.016-1.44,54.72-1.44c3.384-0.432,6.984-0.432,8.64-0.72
		c3.6-0.144,7.2-0.288,10.8-0.432c0.72-0.144,1.44-0.288,2.16-0.504c9.72-0.288,19.512-0.576,29.304-0.936
		c18.72-1.224,22.536-1.728,32.4001-2.16c7.92-0.72,7.92-0.72,13.392-0.72c1.728,0.216,1.728,0.216,8.928,0.216
		c2.016-0.432,4.104-0.936,6.192-1.44c5.328-0.216,7.9199-0.72,11.8079-0.936c0.936-0.288,0.936-0.288,6.1921-0.36
		c-0.072,0.36-0.216,0.792-0.36,1.224c-2.16,2.16-2.16,2.16-3.6001,4.032c-5.616,0.864-12.8159,1.296-14.0399,1.584
		c-2.952,0.144-5.904,0.288-8.856,0.432c-4.824,0.648-9.72,1.296-14.616,1.944c-1.656-0.072-3.312-0.144-5.0399-0.216
		c-4.608,0.288-9.288,0.576-13.968,0.936c-6.696,0-6.696,0-19.656,0.504c-2.088,0.288-4.176,0.576-6.264,0.936
		c-11.016,0.504-11.016,0.504-22.32,0.504c-20.16,1.152-23.76,1.656-35.28,2.376c-3.96,0-7.92,0-11.952,0
		c-6.984,0.504-6.984,0.504-10.584,0.504c-1.944-0.288-5.76-0.288-7.704,0c-16.056,0.432-28.296,1.152-51.336,1.872
		c-6.264-0.216-6.264-0.216-13.896,0c-1.944,0.288-1.944,0.288-27.648,0.72c-1.008,0.144-2.016,0.288-3.096,0.504
		c-4.032,0-8.136,0-12.24,0c-4.68,0.288-9.432,0.576-14.184,0.936c-5.904-0.144-11.808-0.288-17.712-0.432
		c-3.672,0.144-7.344,0.288-11.088,0.432c-2.88,0.504-2.88,0.504-10.512,1.008c-5.112-0.0721-10.224-0.144-15.408-0.288
		c-4.464,0.288-8.928,0.6479-13.392,1.008C111.888,165.024,96.912,165.168,81.936,165.312L81.936,165.312z M113.616,153.576
		c-8.352-0.504-8.352-0.504-34.992-0.936c-3.24,0.072-6.552,0.144-9.864,0.216c-16.776-0.72-16.776-0.72-17.928-1.08
		c-0.072-0.72-0.144-1.44-0.216-2.16c0.936-1.368,1.872-2.736,2.808-4.176c0.936-0.216,1.872-0.432,2.88-0.72
		c18.936,0.216,23.76,0,55.872,0.216c2.88,0.216,5.76,0.432,8.64,0.72c2.304,0,4.608,0,6.984,0c0.36-0.144,0.792-0.288,1.224-0.504
		c9.792-0.432,9.792-0.432,11.016-0.216c3.312,0.072,6.696,0.144,10.08,0.216c2.16,0.216,4.32,0.432,6.48,0.72
		c7.272-0.144,14.544-0.2881,21.816-0.432c1.512,0.144,3.024,0.288,4.608,0.432c41.76-0.72,41.76-0.72,49.68-1.152
		c3.816-0.504,16.776-1.008,30.2401-1.944c2.736,0,5.5439-0.072,8.352-0.144c-0.72,0.648-0.72,0.648-1.872,1.08
		c0,0.36-0.072,0.72-0.144,1.152c0.36,0.504,0.72,1.08,1.152,1.656c0,0.288,0,0.576,0,0.936c-0.144,0.072-0.36,0.216-0.576,0.36
		c-6.48,0.288-12.96,0.576-19.44,0.936c-9.792,1.008-9.792,1.008-18.432,2.448c-39.168,0.936-39.168,0.936-58.608,1.152
		c-3.168-0.072-6.336-0.144-9.576-0.216c-11.304,0.504-11.304,0.504-37.44,0.936C120.096,153.576,120.096,153.576,113.616,153.576
		L113.616,153.576z M44.064,151.416c-0.576,0-1.152,0-1.728-0.072c0.072-0.576,0.216-1.152,0.36-1.728
		c0.576-1.224,1.152-2.448,1.8-3.744c0.216,0,0.432,0,0.72,0c0.072,0.2159,0.216,0.4319,0.36,0.6479c0,1.512,0,3.024,0,4.536
		C45.216,151.416,45.216,151.416,44.064,151.416L44.064,151.416z M302.976,148.176c-0.072-0.72-0.216-1.44-0.36-2.16
		c-0.144-0.144-0.288-0.288-0.504-0.432c0-0.36,0-0.792,0-1.224c0.144-0.144,0.288-0.288,0.504-0.504
		c-0.072-0.36-0.144-0.72-0.216-1.152c-0.576-0.576-1.152-1.152-1.728-1.728c0-0.288,0-0.576-0.072-0.936
		c8.424-0.36,8.424-0.36,15.12-0.216c-0.144,3.312,0.072,4.3199,0,7.992C314.496,148.032,314.496,148.032,302.976,148.176
		L302.976,148.176z M289.296,146.88c-2.448-0.144-4.896-0.288-7.416-0.504c-0.864-3.672-0.864-3.672-0.864-4.68
		c0.648-0.36,0.648-0.36,4.248-0.864c1.656,0,3.312,0,5.04-0.072c0.288,1.656,0.792,2.376,1.008,4.3199
		c0.288,0.504,0.288,0.504,0.288,1.44C291.024,146.88,291.024,146.88,289.296,146.88L289.296,146.88z M418.176,142.92
		c0.072-0.072,0.144-0.216,0.288-0.36c1.152,0,2.376,0,3.6,0.072c-0.072,0.072-0.144,0.216-0.288,0.36
		C420.624,142.992,419.4,142.992,418.176,142.92L418.176,142.92z M464.256,141.12c-0.288,0-0.576-0.072-0.936-0.144
		c0.216-0.792,0.504-1.584,0.792-2.376c6.768-12.9601,6.768-12.9601,7.3441-13.608c2.88-0.144,5.76-0.36,8.6399-0.576
		c0,0.288,0.072,0.648,0.144,1.008c-0.288,1.008-0.648,2.016-1.008,3.096c-0.936,1.8-1.872,3.672-2.88,5.544
		c-0.936,3.312-0.936,3.312-1.872,5.04c-2.736,0.648-5.472,1.296-8.28,2.016C465.552,141.12,464.904,141.12,464.256,141.12
		L464.256,141.12z M197.64,139.536c0-0.216,0-0.432,0.072-0.72c6.768-9.36,10.584-14.112,17.784-23.976
		c0.072-0.504,0.216-1.08,0.36-1.656c3.168-0.432,3.168-0.432,5.328-0.432c0.792,0.144,1.584,0.288,2.376,0.432
		c-0.576,1.224-1.152,2.52-1.8,3.816c-2.52,3.816-5.112,7.632-7.704,11.52c-0.648,0.72-1.296,1.44-1.944,2.16
		c-1.224,2.088-2.52,4.176-3.816,6.264c-0.072,0.648-0.216,1.296-0.36,2.016C204.552,139.104,201.096,139.32,197.64,139.536
		L197.64,139.536z M137.88,139.176c-3.6-0.216-3.6-0.216-5.544-0.072c0.072-0.36,0.216-0.792,0.36-1.224
		c11.52-15.336,13.464-18.504,15.336-20.664c0-0.72,0.072-1.44,0.144-2.16c2.232-0.144,4.464-0.288,6.768-0.432
		c0,0.288-0.072,0.576-0.144,0.936c-4.176,5.4-8.352,10.872-12.528,16.344c-0.936,1.8-1.872,3.6-2.88,5.472
		c-0.072,0.576-0.144,1.1519-0.288,1.8C138.744,139.176,138.312,139.176,137.88,139.176L137.88,139.176z M69.984,138.96
		c-1.224-0.072-2.448-0.216-3.672-0.36c0-0.432,0-0.936-0.072-1.44c0.576-1.728,1.224-3.456,1.872-5.256
		c1.944-2.88,1.944-2.88,5.76-10.08c1.44-3.888,1.44-3.888,1.872-4.392c1.08-0.144,2.16-0.36,3.312-0.576c8.64,0,8.64,0,14.688-0.36
		c-0.144,0.36-0.288,0.792-0.432,1.224c-2.52,3.096-5.04,6.192-7.632,9.36c-2.664,3.816-5.328,7.704-8.064,11.592
		C76.896,138.96,76.896,138.96,69.984,138.96L69.984,138.96z M480.8159,138.816c0.2881-1.224,0.576-2.5201,0.864-3.816
		c0.936-1.944,1.872-3.96,2.88-5.976c0.936-3.384,0.936-3.384,1.152-5.544c0.432-0.36,0.432-0.36,2.808-0.864
		c2.088-0.072,4.176-0.216,6.264-0.36c-0.936,4.896-1.8719,9.792-2.808,14.688c-0.144,0.216-0.36,0.432-0.576,0.72
		c-1.152,0.216-2.376,0.504-3.6,0.792C485.496,138.528,483.192,138.672,480.8159,138.816L480.8159,138.816z M412.92,137.16
		c0.072-1.224,0.072-1.224-0.36-2.88c-0.36-0.432-0.792-0.936-1.224-1.44c-0.504-0.144-1.008-0.288-1.584-0.504
		c-0.072-0.288-0.144-0.576-0.216-0.936c36.288-3.744,36.288-3.744,38.664-3.816c-0.36,1.656-0.36,1.656-2.304,5.976
		c-0.072,0.072-0.216,0.216-0.36,0.36c-2.16,0.144-4.32,0.288-6.48,0.432c-4.752-0.216-4.752-0.216-5.616-0.576
		c0-0.432,0.072-0.936,0.144-1.44c-0.216-0.072-0.432-0.144-0.72-0.216c-0.144-0.288-0.288-0.648-0.504-1.008
		c-0.36,0-0.792,0-1.224,0.072c-0.072-0.216-0.144-0.432-0.216-0.72c-1.08,0.936-1.08,0.936-2.376,2.736
		c-1.296,0.072-2.592,0.216-3.888,0.36c-0.072,0.72-0.2159,1.44-0.36,2.16c-0.576,0.432-1.152,0.864-1.8,1.296
		C418.176,136.8,418.176,136.8,412.92,137.16L412.92,137.16z M258.84,136.512c0-0.216-0.072-0.504-0.144-0.792
		c1.224-2.52,2.52-5.112,3.816-7.704c1.296-1.944,2.592-3.96,3.888-5.976c1.584-2.9521,3.168-5.904,4.752-8.856
		c0.072-0.648,0.216-1.296,0.36-1.944c2.088-0.288,4.176-0.576,6.264-0.864c1.368,0,2.736,0.072,4.104,0.144
		c0,0.504-0.072,1.08-0.144,1.656c-3.816,9.144-5.76,12.744-8.64,19.728c0,1.08,0,2.16,0,3.312
		c-1.872,0.432-3.744,0.864-5.616,1.296C264.6,136.512,261.72,136.512,258.84,136.512L258.84,136.512z M459,135.216
		c-0.216-0.432-0.432-0.864-0.72-1.2961c-2.232,0-4.464-0.072-6.696-0.144c1.728-4.536,1.728-4.536,2.376-7.056
		c3.6-0.288,7.2-0.576,10.8-0.864c-0.072,0.432-0.216,0.936-0.36,1.44c-1.944,2.88-1.944,2.88-4.68,8.064
		C459.504,135.36,459.288,135.288,459,135.216L459,135.216z M498.816,134.496c0.432-2.664,0.864-5.4,1.2959-8.136
		c1.0081-2.376,1.0081-2.376,1.1521-3.5999c0.216,0,0.432,0,0.7199,0c0.432,2.232,0.864,4.464,1.2961,6.696
		c0.072,1.152,0.1439,2.376,0.216,3.6C501.264,133.92,501.264,133.92,498.816,134.496L498.816,134.496z M65.88,112.32
		c-1.368-0.288-2.808-0.576-4.248-0.864c0-0.216,0.072-0.432,0.144-0.72c0.432-0.288,0.936-0.576,1.44-0.936
		c3.168-0.864,3.168-0.864,12.24-2.304c23.76-0.72,23.76-0.72,44.208-0.936c3.744-0.288,7.488-0.648,11.232-1.008
		c4.68-0.072,9.432-0.144,14.184-0.216c0.432,0.144,0.936,0.288,1.44,0.504c3.096,0,3.096,0,3.6-0.288
		c1.08-0.144,2.232-0.288,3.384-0.432c5.184,0.144,10.368,0.288,15.552,0.432c6.48-0.432,8.928-0.216,11.808-0.432
		c1.296,0.072,2.664,0.144,4.032,0.216c4.896-0.216,9.792-0.432,14.688-0.72c2.376-0.504,2.376-0.504,14.4-1.44
		c5.904-0.144,11.808-0.288,17.712-0.504c0.936-0.144,1.872-0.288,2.88-0.432c10.08,0.72,10.08,0.72,17.064,0.72
		c1.08-0.144,2.232-0.288,3.384-0.504c6.912,0.216,6.912,0.216,24.696-0.216c1.08-0.144,2.232-0.288,3.384-0.504
		c23.976-0.216,23.976-0.216,34.272,0c5.76-0.504,19.44-0.72,19.728-0.936c0.432,0.0721,0.936,0.144,1.44,0.216
		c0.72,0.432,1.44,0.864,2.16,1.296c-0.504,0.648-0.504,0.648-1.728,1.08c-4.104,0.36-8.28,0.792-12.456,1.224
		c-1.152-0.144-2.376-0.288-3.6-0.504c-2.664,0.288-2.664,0.288-10.8,0.288c-0.504-0.144-1.08-0.288-1.656-0.504
		c-12.96,0.216-17.064,0.504-22.608,0.504c-1.152-0.144-2.376-0.288-3.6-0.504c-6.696,0.216-10.08,0.72-26.856,1.224
		c-3.024,0.288-6.048,0.576-9.144,0.936c-5.904,0.072-11.808,0.144-17.712,0.216c-1.872,0.144-3.816,0.288-5.76,0.504
		c-5.04-0.216-5.04-0.216-12.528,0c-1.008,0.144-2.016,0.288-3.096,0.504c-6.984,0-6.984,0-12.456,0.432
		c-7.488-0.216-7.488-0.216-22.824,0c-21.6,0.72-28.8,1.224-47.016,1.728c-1.656,0.216-3.312,0.432-5.04,0.72
		c-33.624,0.432-35.568,0.72-42.984,0.72C74.52,111.312,70.2,111.816,65.88,112.32L65.88,112.32z M146.016,99.792
		c-0.36-0.216-0.72-0.432-1.152-0.72c-1.296,0-2.592,0-3.888-0.072c0.072-0.36,0.216-0.792,0.36-1.224
		c1.944-2.592,3.096-3.6,7.2-8.352c4.104-3.888,4.104-3.888,7.344-6.264c1.944-0.36,1.944-0.36,3.384-0.144c2.016,0,4.104,0,6.192,0
		c0.864-0.36,0.864-0.36,0.72-0.144c1.008,0.144,3.6-0.0721,10.08,0.144c0.288,0.216,0.288,0.216,5.76-0.216
		c11.304,0.936,14.904,0.936,23.76,1.872c3.168,0.792,6.408,1.584,9.648,2.448c0,0.288,0,0.576,0.072,0.864
		c-4.104,4.536-5.976,7.2-7.92,9.36c-6.552,0.792-6.552,0.792-11.16,1.728c-3.312,0.144-6.696,0.288-10.08,0.504
		c-5.256-0.216-5.256-0.216-25.2,0.216c-6.48-0.432-6.48-0.432-10.8-0.432C149.904,99.576,149.904,99.576,146.016,99.792
		L146.016,99.792z M223.56,96.84c0.072-0.432,0.216-0.936,0.36-1.44c1.152-1.368,2.376-2.736,3.6-4.104
		c0.072-1.008,0.216-2.016,0.36-3.096c6.9839,0.216,14.0399,0.504,21.096,0.792c3.528,0.288,7.056,0.648,10.584,1.008
		c8.208-0.36,16.416-0.792,24.696-1.224c7.272-0.144,14.544-0.288,21.888-0.504c3.888-0.36,7.776-0.72,11.7361-1.152
		c1.224,1.8,2.52,3.6,3.816,5.472c0.72,0.6479,1.44,1.296,2.16,1.944c-0.216,0.144-0.432,0.288-0.72,0.504
		c-6.696,0.216-6.696,0.216-18.216,0c-10.224,0.288-20.448,0.576-30.744,0.936c-1.08,0.144-2.16,0.288-3.312,0.504
		c-4.896-0.072-9.792-0.144-14.688-0.288c-2.304,0.144-4.608,0.288-6.912,0.504c-13.248-0.216-13.248-0.216-16.344-0.504
		C229.536,96.696,229.536,96.696,223.56,96.84L223.56,96.84z M224.784,73.872c-0.144-0.144-0.288-0.2881-0.504-0.432
		c-9.504-28.944-10.44-30.816-11.88-35.136c-1.008-4.104-1.008-4.104-1.224-6.48c1.008-0.648,2.016-1.296,3.024-1.944
		c0.936,0,1.872,0,2.88,0c6.552,11.304,6.552,11.304,7.056,11.736c0.432,1.008,0.936,2.088,1.44,3.168
		c6.696,10.08,6.696,10.08,10.584,15.12c2.376,3.888,4.752,7.776,7.2,11.736c0,0.72,0,0.72-0.36,1.08
		c-5.976,0.72-11.5201,0.936-12.024,1.152C228.96,73.872,226.872,73.872,224.784,73.872L224.784,73.872z M206.064,28.296
		c-0.432-1.512-0.432-1.512-0.432-3.24c0.792-1.728,1.584-3.4561,2.448-5.256c1.512-0.288,3.096-0.576,4.68-0.864
		c9.144,0,9.144,0,10.08,0.216c1.656,1.44,1.656,1.44,2.016,2.088c0.144,1.224,0.288,2.5201,0.504,3.816
		c-0.504,1.008-0.504,1.008-1.08,1.296c-7.416-0.432-7.416-0.432-12.96-0.432C209.592,26.712,207.864,27.504,206.064,28.296
		L206.064,28.296z M228.816,16.776c-1.296-0.36-2.664-0.792-4.032-1.224c-3.6,0-6.048-0.432-15.624-0.72
		c-0.36-0.576-0.36-0.576-0.504-2.016c1.512-0.144,3.024-0.36,4.608-0.576c7.92,0.216,8.856,0.432,12.672,0.432
		c1.8,0.144,3.6,0.288,5.4,0.432c-0.504,1.224-1.008,2.448-1.512,3.672C229.536,16.776,229.176,16.776,228.816,16.776
		L228.816,16.776z"/>
</g>
</svg>
