<?xml version="1.0" encoding="utf-8"?>
<!-- Generator: Adobe Illustrator 21.1.0, SVG Export Plug-In . SVG Version: 6.00 Build 0)  -->
<svg version="1.1" xmlns="http://www.w3.org/2000/svg" xmlns:xlink="http://www.w3.org/1999/xlink" x="0px" y="0px"
	 viewBox="0 0 518.976 298.8" enable-background="new 0 0 518.976 298.8" xml:space="preserve">
<g>
	<path fill-rule="evenodd" clip-rule="evenodd" d="M200.88,298.8c-1.512-0.432-3.024-0.936-4.536-1.44
		c-13.464,0.288-25.704,0-29.736,0.288c-0.576,0.144-1.152,0.288-1.728,0.432c-1.872-0.216-3.816-0.432-5.76-0.72
		c-5.04,0-10.08-0.432-14.616-0.432c-4.104,0.72-4.104,0.72-6.48,0.72c-0.648-0.216-1.296-0.432-1.944-0.72
		c-6.912,0.216-10.08,0.72-13.176,0.72c-3.816,0.432-5.04,0.936-7.2,0.936c-0.36-0.36-0.36-0.36-0.216-1.224
		c2.376-0.72,2.376-0.72,2.592-1.08c-0.072-0.072-0.144-0.216-0.216-0.36c-3.096-0.4319-3.096-0.4319-15.84-1.152
		c-6.264-1.008-6.264-1.008-7.416-1.44c-2.808,0.144-5.616,0.288-8.424,0.432c-1.44,0.288-2.88,0.648-4.32,1.008
		c-1.728,0.144-3.456,0.288-5.256,0.432c-0.144-0.072-0.288-0.144-0.432-0.288c0-0.36,0-0.792,0-1.224
		c0.576-0.216,1.152-0.432,1.728-0.72c0.144-0.288,0.288-0.576,0.432-0.936c1.368-0.4319,1.368-0.4319,5.472-0.6479
		c0.936,0.216,1.656,0.72,2.88,0.936c5.76-0.72,5.76-0.72,8.64-0.72c0.432,0.288,0.936,0.6479,1.44,1.008
		c1.44,0.288,2.88,0.576,4.32,0.936c2.016,0.144,4.104,0.288,6.192,0.504c4.392-0.072,8.784-0.144,13.248-0.288
		c0.072-0.576,0.144-1.152,0.288-1.728c0.72,0,1.512-0.072,2.304-0.144c3.888,0.432,7.848,0.936,11.808,1.44
		c0.216-0.144,0.432-0.288,0.72-0.504c4.608,0,9.216,0,13.896,0c8.136-0.72,8.136-0.72,11.736-0.72
		c1.152-0.36,2.376-0.792,3.6-1.224c2.16,0,2.16,0,2.664,0.288c3.6-0.216,7.2-0.432,10.8-0.72c0.288-0.144,0.576-0.288,0.936-0.504
		c2.664,0.216,2.664,0.216,11.304,0c1.944,0.432,3.96,0.936,5.976,1.44c2.88-0.216,3.168,0,5.76,0
		c1.584,0.6479,3.168,1.296,4.824,1.944c1.224,0,2.52,0.072,3.816,0.144c0.072,0.36,0.144,0.72,0.216,1.152
		c0.864,0,1.728,0.072,2.664,0.144c0.576-0.36,0.576-0.36,0.72-1.08c0.72-0.216,1.512-0.432,2.304-0.72c0-0.288,0-0.576,0-0.936
		c-0.432-0.36-0.936-0.792-1.44-1.224c-0.072-0.288-0.216-0.648-0.36-1.008c-2.664-0.36-3.384-0.792-5.256-1.08
		c-3.888,0-3.888,0-4.464-0.288c-0.072-0.648-0.216-1.2961-0.36-1.944c-4.536-0.36-4.536-0.36-5.04-0.72c0-0.648,0-1.296,0-1.944
		c0.36-0.072,0.792-0.216,1.224-0.36c0.216-0.432,0.504-0.864,0.792-1.296c-0.072-0.36-0.144-0.792-0.216-1.224
		c-1.008-0.288-2.016-0.576-3.024-0.864c-0.36-0.216-0.72-0.504-1.08-0.792c0.216-1.44,0.216-1.44,0.648-1.8
		c5.04-0.504,5.04-0.504,6.696-1.008c1.152,0,2.376,0,3.6,0c0.144-0.216,0.288-0.432,0.504-0.72c1.656,0,1.656,0,4.752,0.72
		c0.144,0.144,0.288,0.288,0.504,0.504c7.704,0.72,7.704,0.72,9.576,1.224c3.384-0.2881,5.328-0.72,8.208-0.72
		c2.88-0.504,2.88-0.504,3.816-1.008c0-0.216,0-0.504,0.0721-0.792c-0.36-0.504-0.72-1.08-1.08-1.656
		c-2.808-0.4319-2.808-0.4319-8.136-0.648c-1.152,0.072-2.376,0.144-3.6,0.216c-5.76-0.432-5.76-0.432-12.672-1.44
		c-3.384,0-3.384,0-6.984-0.432c-0.72-0.288-0.72-0.288-2.376-0.288c-0.288,0.36-0.648,0.792-1.008,1.224
		c-0.72,0.144-1.44,0.288-2.16,0.504c-8.352-1.44-9.576-1.944-14.112-2.88c-1.44-0.648-2.88-1.296-4.32-1.944
		c-1.728-0.216-2.664-0.72-11.304-2.664c-1.08-0.144-2.232-0.288-3.384-0.432c-1.512-0.432-3.024-0.936-4.536-1.44
		c-0.36,0-0.792,0-1.224,0c-1.728-0.648-3.456-1.296-5.256-1.944c-2.088-0.288-4.176-0.576-6.264-0.936
		c-0.288-0.216-0.576-0.432-0.936-0.72c-7.416-1.0081-7.416-1.0081-16.344-2.88c-1.152-0.288-2.376-0.648-3.6-1.008
		c-4.32-0.432-5.04-0.72-9.792-1.152c-0.288-0.144-0.648-0.288-1.008-0.504c-4.536-0.504-11.52-1.944-16.56-2.376
		c-4.464-1.08-8.928-2.232-13.392-3.384c-12.528-0.936-12.528-0.936-13.248-1.224c-2.592,0-5.256,0-7.92,0
		c-4.32,0.504-4.32,0.504-6.48,1.008c-0.72,0.432-0.72,0.432-2.16,0.72c-0.72-0.144-1.44-0.288-2.16-0.504
		c-1.872-1.944-1.872-1.944-4.32-3.816c-2.88-0.288-2.88-0.288-7.632-0.288c-2.16-0.792-4.32-1.584-6.48-2.376
		c-3.24-0.504-6.552-1.08-9.864-1.6559c-0.216-0.144-0.432-0.288-0.72-0.504c-1.152-0.144-2.376-0.288-3.6-0.504
		c-1.8-0.576-3.672-1.224-5.544-1.872c-0.432-0.504-0.432-0.504-2.16-1.44c-1.008-0.072-2.016-0.144-3.096-0.288
		c-1.44-0.432-2.88-0.936-4.32-1.44c-1.512,0-3.024,0-4.536,0C1.008,234,1.008,234,0,233.568c0-0.576,0-1.152,0-1.8
		c1.872,0,3.816-0.0721,5.76-0.144c0.288,0.288,0.648,0.576,1.008,0.936c4.536,1.44,7.416,1.944,12.24,3.384
		c1.224,0.648,2.52,1.296,3.816,1.944c2.592,0.36,5.256,0.72,7.92,1.152c0.936,0.504,0.936,0.504,1.44,0.504
		c0.072-0.072,0.144-0.216,0.216-0.36c-1.08-2.52-2.16-5.04-3.24-7.632c-0.216-1.08-0.504-2.232-0.792-3.384
		c-0.792-0.072-1.584-0.216-2.448-0.36c-3.312-1.44-8.64-3.024-8.856-3.384c-1.224-0.504-1.224-0.504-5.256-1.44
		c-0.72-0.36-1.44-0.792-2.16-1.224c-1.944-0.432-1.944-0.432-2.808-1.008c0.216-1.008,0.216-1.008,0.648-1.368
		c0.72,0,1.44,0,2.16,0c0.432,0.36,0.936,0.792,1.44,1.224c3.6,0.936,8.856,2.88,12.96,3.816c2.592,1.44,2.592,1.44,3.168,1.368
		c-0.432-7.488-0.432-7.488-0.432-15.12c0.144-0.648,0.288-1.296,0.432-1.944c0.648-0.936,1.296-1.872,1.944-2.88
		c0.288-0.864,0.576-1.728,0.936-2.664c0.648-0.792,1.296-1.584,1.944-2.376c0.288-0.792,0.576-1.584,0.936-2.376
		c1.656-1.872,3.312-3.816,5.04-5.76c2.952-2.52,5.976-5.112,9-7.704c7.704-5.688,7.704-5.688,10.872-7.56
		c7.92-3.888,8.352-4.32,11.016-5.328c1.512-1.008,3.024-2.016,4.536-3.096c1.008-0.432,2.088-0.936,3.168-1.44
		c0.936-1.224,0.936-1.224,1.656-1.656c0.072-2.016,0.072-2.016-1.584-16.704c-1.224-6.984-2.52-14.04-3.816-21.096
		c-1.008-11.304-1.008-11.304-1.224-17.064c-0.576-0.36-1.8-0.576-2.232-1.08c-0.288-0.144-0.648-0.288-1.008-0.504
		c-0.432-0.648-0.864-1.296-1.296-2.016c-0.144-0.864-0.288-1.728-0.504-2.592c0.072-0.576,0.144-1.152,0.216-1.728
		c2.592-3.024,5.256-6.048,7.92-9.072c1.8-1.728,3.672-3.528,5.544-5.3279c3.672-2.16,7.416-4.392,11.16-6.624
		c2.52-1.224,5.112-2.52,7.704-3.816c2.16-0.7921,4.32-1.584,6.48-2.376c7.704-1.944,18.216-3.888,21.096-4.824
		c11.088-1.44,11.088-1.44,12.384-1.8c-0.72-4.032-1.728-7.416-2.664-12.672c-1.944-4.824-1.944-4.824-3.816-10.584
		c-0.432-1.872-0.936-3.816-1.44-5.76c-1.944-4.536-3.384-9.3601-4.32-11.304c-0.36-2.16-0.792-4.3199-1.224-6.4799
		c0.504-0.432,0.504-0.432,1.8-0.5761c0.144,0.2881,0.36,0.5761,0.576,0.864c0.288,1.8,0.648,3.6001,1.008,5.472
		c1.44,3.888,2.88,7.848,4.32,11.808c0.576,2.4481,1.224,4.8961,1.872,7.416c0.792,2.232,1.584,4.464,2.448,6.696
		c1.368,4.896,2.736,9.792,4.176,14.76c2.88,0,19.008-1.656,27.36-2.16c1.656,0,3.312,0,5.04,0c3.384-0.504,3.384-0.504,3.96-0.792
		c-0.216-1.944-0.216-1.944-3.096-11.808c-0.432-1.152-0.936-2.376-1.44-3.6c0-1.152,0-1.152,0.36-1.584
		c0.432,0,0.936,0.072,1.44,0.144c0.792,1.944,0.792,1.944,1.8,3.6c3.312,10.8,3.312,10.8,3.816,13.248
		c0.36,0.072,0.72,0.144,1.08,0.288c3.96-0.144,7.992-0.288,12.024-0.432c5.76,0.432,6.264,0.72,9.36,0.936
		c0.432-0.072,0.864-0.216,1.296-0.36c-1.224-5.976-1.584-6.48-3.6-14.616c-0.288-0.72-0.576-1.44-0.936-2.16
		c-1.296-5.04-2.592-10.08-3.888-15.12c-4.752-21.384-4.752-21.384-5.04-21.816c-2.88-11.304-2.88-11.304-2.88-12.24
		C188.928,0,188.928,0,189.864,0c0.216,0.36,0.504,0.72,0.792,1.152c2.592,11.232,5.256,22.5359,7.92,33.84
		c1.944,6.48,1.944,6.48,3.6,13.68c0.288,0.792,0.648,1.584,1.008,2.376c0.36,1.656,0.72,3.312,1.152,5.0399
		c0.648,1.4401,1.296,2.8801,1.944,4.3201c0.432,1.8,0.936,3.672,1.44,5.544c0.504,0.432,0.504,0.432,0.648,1.44
		c1.512,0.072,3.024,0.144,4.536,0.288c0.864,0.648,1.728,1.296,2.664,1.944c0,1.008,0,2.016,0.072,3.024
		c-0.504,0.936-0.504,0.936-0.936,2.88c-1.008,1.224-2.088,2.52-3.168,3.816c0.36,1.08,0.792,2.232,1.224,3.384
		c0.504,3.384,1.44,6.264,2.376,10.8c1.008,3.096,1.008,3.096,1.944,4.824c1.8,1.44,3.6,2.88,5.4,4.392c0.792,0,1.584,0,2.448,0
		c2.88,0.936,3.6,1.44,10.296,3.384c3.024,1.224,6.048,2.5201,9.144,3.816c2.16,1.08,4.32,2.232,6.48,3.384
		c0.576,0.144,1.224,0.288,1.872,0.432c5.328,2.88,7.488,3.6,21.168,10.8c1.728,1.296,3.4561,2.592,5.256,3.96
		c0.576,0.864,1.152,1.728,1.8,2.664c0.216,1.44,0.216,1.44,0,4.32c1.152,1.152,2.376,2.376,3.6,3.6
		c1.8,0.864,1.8,0.864,3.744,2.304c0.72,0,1.44,0,2.16,0c4.032-1.008,4.032-1.008,9.576-1.944c0.936,0,1.872,0,2.88,0
		c1.944-0.504,12.744-1.656,13.176-1.944c6.048-0.576,12.168-1.224,18.288-1.872c12.96-0.72,16.992-0.72,21.816-1.224
		c2.304,0.144,4.608,0.288,6.9839,0.504c4.608-0.144,9.216-0.288,13.8961-0.504c5.7599,0.072,11.52,0.144,17.28,0.216
		c1.44,0.216,2.88,0.432,4.32,0.72c2.448,0,4.896,0,7.416,0c2.664,0.504,2.664,0.504,18.504,1.944
		c3.024,0.432,6.048,0.936,9.144,1.44c2.592,0.936,2.592,0.936,7.2,1.944c19.872,7.632,19.872,7.632,29.0161,11.5201
		c3.384,1.872,6.2639,3.816,7.704,4.32c3.096,0.432,3.096,0.432,13.896,0.72c5.904,0,11.8079,0,17.784,0
		c1.512,0.216,3.0239,0.432,4.536,0.72c1.656,0.936,1.656,0.936,2.664,1.872c0,0.72,0,1.512,0.072,2.304
		c-0.288,0.432-0.576,0.936-0.9361,1.44c-3.0239,1.8-3.0239,1.8-5.6159,2.736c-0.936,0.144-1.872,0.288-2.88,0.504
		c-2.592,0.072-5.2561,0.144-7.92,0.216c-2.808,2.736-5.616,5.472-8.424,8.28c-1.8,2.448-1.8,2.448-1.944,3.168
		c8.2079,0.576,16.488,1.1519,24.768,1.8c1.4399,0.432,2.88,0.936,4.3199,1.44c0.2161,0.432,0.504,0.864,0.7921,1.296
		c0.072,0.648,0.144,1.296,0.216,1.944c-0.576,1.08-1.224,2.232-1.8719,3.384c-1.0801,0.792-1.0801,0.792-3.2401,1.728
		c-1.08,0.288-2.232,0.648-3.384,1.008c-6.3361,0.576-12.744,1.224-19.152,1.872c-4.1041,1.008-4.1041,1.008-9.648,1.944
		c-0.792,0.288-1.584,0.576-2.376,0.936c-1.512,1.296-3.024,2.592-4.536,3.888c-1.728,0.936-1.728,0.936-2.664,2.016
		c-0.288,0.576-0.576,1.152-0.864,1.728c-1.368,1.44-2.736,2.88-4.104,4.32c-1.8719,2.88-2.88,3.816-6.696,9.36
		c-0.288,0.576-0.576,1.224-0.936,1.872c-2.448,2.88-2.8799,3.888-3.384,4.32c-0.648,1.08-1.296,2.232-1.944,3.384
		c-0.72,0.792-1.44,1.584-2.16,2.376c-1.584,2.304-3.1681,4.608-4.752,6.984c-1.728,1.44-3.528,2.88-5.328,4.32
		c-0.504,0.648-1.08,1.296-1.656,1.944c-2.664,1.872-5.328,3.816-8.064,5.76c-4.536,2.232-4.968,2.736-14.832,7.488
		c-0.36,0.288-0.792,0.648-1.224,1.008c-0.72,0.144-1.44,0.288-2.16,0.432c-1.656,0.936-3.312,1.872-5.04,2.88
		c-2.376,0.648-4.752,1.2961-7.2,1.944c-0.576,0.288-1.224,0.576-1.872,0.936c-4.104,1.008-9.144,2.88-13.68,3.888
		c-1.44,0.432-2.88,0.936-4.32,1.44c-8.424,0.936-8.424,0.936-9.864,1.44c-2.664,0.432-3.096,0.72-12.456,2.16
		c-4.32,0-4.824-0.288-9.36,0c-0.864,0.144-1.728,0.288-2.664,0.432c-8.208,0.216-16.416,0.432-24.696,0.72
		c-0.432,0.144-0.936,0.288-1.44,0.504c-3.384,0-6.768,0.504-19.728,1.44c-18.72,0.216-18.72,0.216-21.816,0.504
		c-1.656-0.288-6.48-0.288-8.136,0c-2.6639,0-3.3839-0.288-5.7599-0.288c-0.36-0.144-0.792-0.288-1.224-0.432
		c-1.152,0.072-2.376,0.144-3.6,0.216c-0.288,0.216-0.576,0.432-0.936,0.72c-2.16,0.072-4.32,0.144-6.48,0.216
		c-0.36,0.144-0.792,0.288-1.224,0.504c-1.224-0.144-2.52-0.288-3.8159-0.504c-0.216,0.144-0.432,0.288-0.72,0.504
		c-1.44,0.072-2.88,0.144-4.32,0.216c-1.224,0.504-1.224,0.504-8.424,2.088c-0.432,0.36-0.936,0.72-1.44,1.08
		c-3.096,0-3.096,0-6.696,0.4319c-0.72,0.288-0.72,0.288-3.168,0.288c-0.504-0.216-1.08-0.432-1.656-0.72
		c-2.88-0.432-5.76-0.936-8.64-1.44c-2.5201,0.072-5.112,0.2159-7.704,0.36c0.36,1.224,0.36,1.224,0.864,1.656
		c7.56,1.8,7.56,1.8,8.784,2.304c0.072,0.864,0.072,0.864-0.432,1.584c-3.096,0.072-6.264,0.144-9.432,0.216
		c0.216,0.36,0.216,0.36,1.944,0.792c0.864,0.648,1.728,1.296,2.592,1.944C216,288,216,288,217.008,288.504
		c0.288,0.36,0.576,0.792,0.936,1.224c1.44,0.288,2.88,0.576,4.32,0.936c0.432,0.288,0.936,0.576,1.44,0.936
		c0.072,0.864,0.072,0.864-0.36,1.584c-1.008,0.432-2.016,0.936-3.024,1.44c0,0.432,0.072,0.936,0.144,1.44
		c-0.36,0.288-0.72,0.648-1.08,1.008c-3.816,0.792-3.816,0.792-9.576,1.512C206.856,298.656,203.904,298.728,200.88,298.8
		L200.88,298.8z M178.56,296.208c-1.224-0.144-2.52-0.288-3.816-0.504c-0.144-0.144-0.288-0.288-0.504-0.504
		c-1.152,0-2.376,0.504-5.04,0.72c-3.6-0.216-7.92,0-17.496-0.4319c-0.864-0.144-1.728-0.288-2.664-0.504
		c-5.04,0.216-7.2,0.72-10.512,0.936c-1.44-0.4319-1.44-0.4319-2.448-1.08c0.288-0.36,0.288-0.36,1.224-0.576
		c3.744,0,7.488,0,11.304,0c4.896-0.288,9.864-0.576,14.832-0.936c0.648-0.144,1.296-0.288,1.944-0.504
		c5.472-0.36,11.016-0.7921,16.56-1.224c2.88,0,5.76,0,8.64,0c8.856,1.944,8.856,1.944,10.08,2.448
		c0.072,1.08,0.072,1.08-0.216,1.872c-1.584-0.144-3.168-0.288-4.824-0.4319c-1.368,0.144-2.736,0.288-4.104,0.4319
		c-1.872-0.144-3.816-0.288-5.76-0.4319c-1.152,0.216-2.376,0.4319-3.6,0.72C181.008,296.208,179.784,296.208,178.56,296.208
		L178.56,296.208z M124.128,295.848c0-0.216,0-0.432,0.072-0.72c2.304-1.44,2.304-1.44,3.24-1.584
		c6.48,0.936,6.48,0.936,7.488,1.296c-0.072,0.072-0.144,0.216-0.288,0.36C132.264,295.2,128.448,295.704,124.128,295.848
		L124.128,295.848z M240.48,261.36c-6.048-0.072-12.096-0.144-18.216-0.216c-13.896-0.72-13.896-0.72-17.496-1.224
		c-13.248-0.216-13.248-0.216-18.72-0.72c-1.728-0.4319-1.728-0.4319-1.944-0.216c-4.104-0.216-15.624-1.944-18.216-1.944
		c-5.328-0.936-5.328-0.936-8.208-1.152c-3.456-0.792-6.984-1.584-10.512-2.448c-1.512-0.144-3.024-0.288-4.608-0.432
		c-1.296-0.288-2.664-0.648-4.032-1.008c-18-1.872-18-1.872-48.024-5.76c-11.016-0.936-21.816-1.44-31.176-2.376
		c-3.672-0.792-7.344-1.584-11.088-2.376c-1.872-1.008-1.872-1.008-5.256-1.944c-5.04-0.936-5.04-0.936-8.136-1.8
		c-1.872-3.6-1.872-3.6-2.808-5.976c-0.648-2.448-1.296-4.896-1.944-7.416c0-1.8,0-3.672-0.072-5.544
		c2.232,0.72,4.464,1.44,6.696,2.232c3.168,0.504,5.04,0.504,9.36,1.44c12.528,1.08,25.128,2.232,37.728,3.384
		c9.792,1.44,9.792,1.44,20.16,2.376c4.68-0.072,9.36-0.144,14.112-0.216c4.536-0.432,9.072-0.936,13.68-1.44
		c2.304,0.216,4.608,0.432,6.984,0.72c10.8-0.216,10.8-0.216,13.176-0.504c8.784,0,17.568,0,26.424,0
		c0.864-0.144,1.728-0.288,2.664-0.432c2.232,0.216,4.464,0.432,6.696,0.72c9.144-0.288,9.144-0.288,36.72-0.288
		c2.52,0.144,5.112,0.288,7.704,0.504c7.632-0.144,15.336-0.288,23.04-0.504c11.5201,0.288,11.5201,0.288,24.192,1.008
		c8.136,0,16.272,0,24.48,0c17.784-0.72,19.728-1.008,31.68-1.44c1.8-0.216,3.672-0.432,5.544-0.72
		c4.032-0.144,8.136-0.2881,12.24-0.504c15.336-1.656,15.84-1.944,25.704-2.88c4.32-0.936,8.64-1.44,16.272-2.88
		c1.224-0.504,4.824-0.936,13.68-3.384c3.6-0.432,3.888-0.72,12.744-2.592c10.08-3.384,13.68-4.32,18.936-6.264
		c1.8-0.504,3.672-1.08,5.544-1.656c16.344-6.768,19.44-7.704,25.92-10.584c0.504-0.504,3.6-1.44,4.32-1.944
		c0.72,0,1.44,0,2.1599-0.072c-0.0719,0.288-0.2159,0.576-0.36,0.936c-0.3599,0.288-0.7919,0.648-1.2239,1.008
		c-0.7921,0.288-1.6561,0.648-2.52,1.008c-0.432,0.864-0.432,0.864-2.8801,3.168c-1.8719,3.096-1.8719,3.096-2.8799,4.032
		c-3.96,5.184-4.4641,6.192-6.6241,8.784c-0.432,1.008-2.376,3.168-4.32,6.48c-3.816,5.04-5.7599,8.208-7.92,10.8
		c-0.576,0.432-1.152,0.864-1.728,1.296c-0.864,0.144-1.728,0.288-2.664,0.504c-1.656,0.648-3.312,1.296-5.04,1.944
		c-12.96,3.816-12.96,3.816-18.504,5.76c-8.64,1.872-8.64,1.872-15.336,3.816c-0.792,0.2881-1.584,0.576-2.376,0.936
		c-3.888,0.504-5.328,1.008-11.088,1.944c-3.6,0.936-3.6,0.936-12.672,2.376c-2.16,1.08-2.16,1.08-2.664,1.728
		c-2.16,0.432-2.16,0.432-3.096,0.936c-7.488,0-7.488,0-9.648,0.216c-1.44,0.432-2.88,0.936-4.32,1.44
		c-11.952,1.44-12.456,1.728-17.28,2.16c-2.592,0.504-2.592,0.504-3.6,1.008c-8.136,0.936-8.136,0.936-13.176,1.872
		c-11.52,0.72-11.52,0.72-30.744,2.448c-2.16,0-4.32,0-6.48,0c-0.36,0.144-0.72,0.288-1.152,0.4319
		c-15.624,0.72-20.664,0.72-22.104,1.0081c-2.664-0.2881-2.664-0.2881-4.104,0C242.64,261.144,242.64,261.144,240.48,261.36
		L240.48,261.36z M110.664,226.08c-9.864-0.432-9.864-0.432-20.16-1.44c-2.088-0.288-4.176-0.576-6.264-0.9359
		c-1.44,0-2.88,0-4.32,0c-8.856-0.7921-17.712-1.584-26.64-2.376c-4.608-0.648-9.216-1.296-13.896-1.944
		c-1.872-0.648-3.816-1.296-5.76-1.944c-2.88-1.872-2.88-1.872-3.744-2.736c0-1.44,0-2.88,0-4.32
		c3.816-6.912,3.816-6.912,5.976-10.08c0.144-0.72,0.288-1.44,0.504-2.16c1.224-1.512,2.52-3.024,3.816-4.536
		c2.16-1.872,4.32-3.816,6.48-5.76c1.872-1.224,3.744-2.448,5.688-3.744c0.936-0.936,1.872-1.872,2.88-2.88
		c2.16-0.936,2.16-0.936,5.04-2.88c2.88-0.936,2.88-0.936,5.04-1.944c0.72-0.72,0.72-0.72,3.384-2.16
		c1.44-0.432,1.44-0.432,2.16-0.936c0.576,0,1.152,0.072,1.728,0.144c0,0.288,0,0.576,0,0.936C66.24,178.272,62.64,180,58.32,182.88
		c-1.08,0.432-2.16,0.936-3.312,1.44c-2.664,1.944-2.664,1.944-6.048,3.888c-1.872,2.16-5.976,5.976-10.296,10.872
		c-0.432,0.648-0.864,1.296-1.368,1.944c-0.936,2.088-1.872,4.176-2.88,6.264c-0.072,1.44-0.144,2.88-0.216,4.32
		c0.504,1.656,0.504,1.656,0.864,2.016c1.656,0.504,2.88,1.44,4.32,1.944c1.656-0.288,1.656-0.288,15.12,0
		c0.72,0.216,1.44,0.432,2.16,0.72c1.512,0.072,3.024,0.144,4.536,0.216c1.296,0.288,2.592,0.576,3.888,0.936
		c2.376-0.72,2.376-0.72,4.032-0.72c0.144,0.072,0.288,0.144,0.504,0.288c5.76-1.224,5.76-1.224,8.136-2.16
		c0.936-0.72,1.872-1.44,2.88-2.16c2.088-2.376,4.176-4.752,6.264-7.2c2.16-3.744,4.32-7.56,6.552-11.376
		c0.288-0.864,0.648-1.728,1.008-2.664c0.144-1.224,0.288-2.52,0.432-3.816c-0.072-2.376-0.144-4.752-0.288-7.2
		c-0.216,0-0.432-0.072-0.72-0.144c-0.936-0.792-1.872-1.656-2.88-2.52c0-0.288-0.072-0.576-0.144-0.936
		c2.016-0.144,2.016-0.144,13.32,0.288c3.384-0.144,6.84-0.288,10.296-0.432c7.704,0.72,7.704,0.72,20.664,1.152
		c5.544,1.008,5.544,1.008,6.696,1.44c-0.144,0.144-0.288,0.288-0.432,0.504c-2.52,0.648-5.112,1.296-7.704,1.944
		c-3.312,1.08-6.696,2.16-10.08,3.312c-1.44,0.648-2.88,1.296-4.32,1.944c-1.8,1.224-3.672,2.52-5.544,3.816
		c-0.936,1.08-1.872,2.16-2.88,3.24c-0.36,1.512-0.36,1.512-0.144,3.384c1.008,1.224,1.008,1.224,2.304,2.16
		c0.936,0.144,1.872,0.36,2.88,0.576c12.744,0.72,12.744,0.72,19.944,0.72c1.224,0.144,2.52,0.288,3.816,0.504
		c7.92-0.216,7.92-0.216,9.144,0c10.296,0.216,10.296,0.216,17.496,0.72c4.248-0.216,8.496-0.432,12.744-0.72
		c6.48,0.216,7.92,0.504,21.816,0.72c2.016-0.144,4.032-0.288,6.048-0.504c2.592,0.288,2.592,0.288,19.152,0.288
		c1.368,0.144,2.736,0.288,4.104,0.432c3.6,1.008,3.6,1.008,6.4799,1.44c0.648,0,1.2961,0,1.944,0
		c0.432-0.432,0.432-0.432,0.576-1.512c-0.864-0.72-0.864-0.72-2.0161-1.08C236.16,200.16,235.08,199.08,234,198
		c-0.936-0.432-1.872-0.936-2.88-1.44c-0.288-0.432-0.576-0.864-0.864-1.296c-4.608-3.6-9.288-7.272-13.968-10.944
		c-0.648-0.288-1.296-0.576-1.944-0.936c-0.432-0.432-0.936-0.936-1.44-1.44c-0.072-0.216-0.144-0.504-0.216-0.792
		c2.376,0.072,4.752,0.144,7.2,0.288c1.152,0.504,1.152,0.504,6.48,1.44c1.296,0.072,2.664,0.144,4.032,0.288
		c2.088-0.216,4.176-0.432,6.2639-0.72c2.664-0.864,5.4001-1.728,8.136-2.664c3.024-1.872,6.048-3.816,9.144-5.76
		c15.1201-12.744,16.56-13.68,17.28-14.616c0.648-0.288,1.2961-0.648,1.944-1.008c0.2881-0.36,0.576-0.72,0.936-1.152
		c1.728-1.296,3.456-2.592,5.256-3.888c2.304-1.224,4.608-2.52,6.984-3.816c3.5999-1.44,3.5999-1.44,5.5439-1.944
		c0.7921-0.072,1.584-0.144,2.376-0.216c1.944,0.936,3.96,1.872,5.976,2.88c3.168,0.9359,3.168,0.9359,6.984,2.664
		c1.368,0.072,2.736,0.144,4.104,0.216c5.76-0.504,5.76-0.504,23.04-0.936c11.592,0.36,23.184,0.72,34.776,1.152
		c2.52,0.216,5.112,0.432,7.704,0.72c1.728-0.072,3.456-0.144,5.256-0.216c14.4,0.72,16.344,0.504,22.104,0.936
		c1.584,0.288,3.168,0.648,4.752,1.008c5.04,0.576,10.08,1.224,15.12,1.872c15.84,3.384,15.84,3.384,18,3.6
		c4.32,1.296,8.64,2.592,12.96,3.888c4.104,1.872,6.264,2.376,7.2,3.096c-0.432,0.504-2.16,0.936-4.032,1.944
		c-2.088,0.576-4.176,1.224-6.264,1.872c-3.168,1.296-6.336,2.592-9.576,3.888c-10.368,3.312-12.528,4.32-18,5.976
		c-2.808,0.648-5.616,1.296-8.424,1.944c-3.0959,0.936-6.192,1.872-9.36,2.88c-5.04,0.936-5.04,0.936-13.176,2.88
		c-7.2,0.936-7.2,0.936-7.488,1.152c-1.008,0-2.016,0-3.096,0c-0.936,0.504-6.696,1.44-10.296,2.448
		c-25.2,3.816-25.2,3.816-33.408,4.752c-4.536,1.008-4.536,1.008-16.56,2.88c-3.816,0-4.536,0.288-6.912,0.288
		c-2.88,0.432-21.6,1.44-55.728,3.816c-6.192-0.216-6.192-0.216-17.496,0c-5.112,0.432-10.224,0.936-15.336,1.44
		c-2.016,0-4.032,0-6.048,0c-1.944,0.288-3.96,0.576-5.976,0.936c-3.6,1.152-7.2,2.376-10.8,3.6
		c-4.68,2.52-9.432,5.112-14.184,7.704c0,0.432-0.072,0.864-0.144,1.368c0.36,0,0.72,0,1.152,0.072
		c1.944-1.224,3.96-2.52,5.976-3.816c9.576-4.824,10.584-5.04,10.8-5.4c6.48-2.088,6.48-2.088,9.144-2.52
		c22.32-1.44,26.352-1.44,26.856-1.728c1.152,0,2.376,0,3.6,0c0.072,0.0721,0.144,0.216,0.216,0.36
		c-1.944,2.736-3.888,5.472-5.904,8.208c-1.44,1.368-2.88,2.736-4.32,4.104c0,0.288,0.072,0.576,0.144,0.936
		c0.288,0,0.648,0,1.008,0.072c2.16-2.016,2.16-2.016,5.976-6.48c3.816-5.112,3.816-5.112,5.76-7.2
		c1.944-0.216,1.944-0.216,15.84-0.216c3.888-0.216,7.776-0.504,11.736-0.792c-1.8,3.096-1.8,3.096-5.616,8.352
		c-1.944,2.16-1.944,2.16-3.888,5.04c0,0.144,0,0.288,0,0.504c0.288,0.144,0.576,0.288,0.864,0.504
		c1.44-1.728,2.952-3.528,4.464-5.3279c1.728-2.592,3.456-5.256,5.256-7.92c1.224-1.152,1.224-1.152,2.088-1.584
		c7.416-0.4319,7.416-0.4319,15.84-1.44c4.752,0,9.576,0,14.4-0.072c-0.432,1.224-0.432,1.224-4.248,6.696
		c-1.944,2.52-3.96,5.112-5.976,7.704c0,0.36,0.0721,0.72,0.144,1.152c0.288,0,0.576,0.072,0.936,0.144
		c1.944-2.376,3.816-5.256,4.824-6.264c1.872-2.808,3.744-5.616,5.688-8.496c0.36-0.36,0.792-0.72,1.224-1.152
		c0.864-0.216,1.728-0.432,2.664-0.648c1.368,0,2.736,0,4.104,0c4.32-0.648,8.64-1.296,12.96-1.944
		c2.664-0.576,5.4-1.224,8.136-1.872c2.376,0,4.32-0.504,8.424-0.648c-1.944,2.52-5.76,6.408-14.832,16.848
		c0,0.504,0.072,1.008,0.144,1.512c1.44-0.216,1.44-0.216,2.16-0.72c1.944-2.952,5.76-7.416,6.768-9.072
		c1.44-1.368,1.872-2.16,5.256-5.544c0.936-1.44,0.936-1.44,2.88-3.6c1.224-0.504,7.2-1.44,8.856-1.944c2.16,0,2.16,0,10.584-1.152
		c8.64-1.944,10.584-2.16,10.8-2.448c1.224,0,2.5201,0.072,3.816,0.144c-2.592,2.952-5.256,5.904-7.92,8.856
		c-3.816,4.968-3.816,4.968-8.136,11.52c0.072,0.144,0.144,0.288,0.216,0.504c0.288,0,0.648,0.072,1.008,0.144
		c1.872-2.52,2.232-3.456,7.992-11.88c3.24-3.312,6.48-6.624,9.72-10.008c10.584-1.872,10.584-1.872,21.384-4.32
		c1.008-0.4319,2.016-0.936,3.096-1.44c3.024-0.576,6.048-1.152,9.144-1.728c-3.744,6.48-4.248,6.912-6.12,10.08
		c-1.944,2.376-2.664,3.816-3.384,4.32c-1.944,3.5999-1.944,3.5999-4.824,7.632c0,0.288,0.072,0.576,0.144,0.864
		c0.216,0,0.4319,0,0.72,0c1.08-1.44,2.232-2.9521,3.384-4.464c0.576-1.152,1.152-2.376,1.8-3.6c1.872-2.376,1.872-2.376,3.816-5.76
		c0.36-0.36,0.792-0.72,1.224-1.152c1.224-1.872,2.52-3.816,3.816-5.76c0.936-1.08,1.872-2.232,2.88-3.384
		c10.44-3.744,10.44-3.744,18.144-6.12c3.24-1.296,6.552-2.592,9.864-3.888c0.432,0,0.936,0,1.44,0
		c0.072,0.072,0.144,0.216,0.2161,0.36c-4.752,7.632-9.576,15.264-14.4001,22.968c-0.072,0.504-0.144,1.008-0.216,1.584
		c0.36,0,0.72-0.0721,1.152-0.144c3.888-6.12,5.616-9.504,15.696-25.56c1.368-0.864,1.368-0.864,4.752-2.088c0.72,0,1.44,0,2.16,0
		c1.152,1.0081,4.32,2.88,5.472,3.888c2.232,1.224,4.4639,2.52,6.768,3.816c1.944,0.648,3.96,1.368,5.976,2.088
		c-0.288,0.576-0.576,1.224-0.864,1.872c-1.08,1.08-2.232,2.232-3.384,3.384c0,0.432,0.072,0.864,0.1439,1.296
		c0.288-0.072,0.6481-0.144,1.0081-0.216c0.5039-0.432,1.08-0.936,1.656-1.44c1.08-1.44,2.232-2.88,3.384-4.32
		c11.952,0.72,14.616,1.152,23.256,1.656c6.2639,0.936,6.2639,0.936,7.416,1.44c0.072,0.216,0.216,0.432,0.36,0.648
		c-0.072,0.504-0.144,1.08-0.216,1.656c-0.288,0.36-0.648,0.792-1.008,1.224c-0.7921,0.432-1.584,0.864-2.448,1.2961
		c-3.384,0.936-3.384,0.936-8.208,1.656c-6.264,0.432-12.6,0.936-18.936,1.44c-8.424-0.936-8.856-1.224-9.576-1.224
		c-0.9359,0.648-1.8719,1.296-2.8799,1.944c-2.6641,0.936-6.48,2.88-17.568,7.704c-5.472,1.872-5.472,1.872-10.08,3.816
		c-20.88,6.696-20.88,6.696-21.6,7.2c-4.464,0.864-8.928,1.728-13.392,2.664c-5.04,1.224-10.08,2.52-15.12,3.816
		c-3.24,0.648-6.552,1.296-9.864,1.944c-11.736,1.44-11.736,1.44-31.176,3.096c-13.464,0.72-18,1.224-21.168,1.224
		c-0.288,0.144-0.576,0.288-0.936,0.4319c-10.728,0.648-21.456,1.296-32.184,1.944c-13.896-0.216-13.896-0.216-43.416-1.44
		c-8.856,0.216-17.712,0.432-26.64,0.72c-1.656-0.144-3.312-0.288-5.04-0.504c-11.52,0.0721-23.04,0.144-34.56,0.2881
		c-2.376-0.216-4.752-0.432-7.2-0.72c-5.76,0-5.76,0-11.52,0.4319c-34.056,0-34.776-0.216-43.2,0
		c-7.704,1.0081-7.704,1.0081-13.896,1.44C113.4,226.08,112.032,226.08,110.664,226.08L110.664,226.08z M107.064,222.984
		c-0.936-0.072-1.872-0.144-2.88-0.216c-0.216-0.144-0.432-0.288-0.72-0.504c0-0.36-0.072-0.72-0.144-1.08
		c0.216-0.144,0.432-0.36,0.648-0.576c2.376,0,4.752,0,7.2,0c0.144,0.504,0.36,1.008,0.576,1.584
		c-0.432,0.216-0.864,0.504-1.296,0.792C109.368,222.984,108.216,222.984,107.064,222.984L107.064,222.984z M65.304,215.28
		c-1.08-0.288-2.232-0.576-3.384-0.936c-1.8-0.144-3.6-0.288-5.472-0.504c0-0.216-0.072-0.504-0.144-0.792
		c3.168-2.664,6.336-5.4,9.576-8.136c3.528-2.52,7.128-5.0399,10.728-7.632c1.368-1.872,2.736-3.744,4.176-5.616
		c0.216-3.096,0-7.92,0.36-12.96c3.816-0.144,3.816-0.144,6.48,0.144c2.376,2.016,2.376,2.016,4.32,3.096
		c0.072,0.36,0.216,0.72,0.36,1.08c0,2.304,0,4.608,0,6.984c-0.288,0.936-0.648,1.872-1.008,2.88
		c-1.872,2.88-5.76,10.08-6.192,11.304c-2.232,2.592-4.536,5.256-6.84,7.92c-0.864,0.432-1.728,0.864-2.664,1.296
		C70.848,214.56,70.848,214.56,65.304,215.28L65.304,215.28z M117.648,214.56c-0.72-0.216-0.72-0.216-12.24-0.432
		c-0.504-0.288-1.008-0.576-1.512-0.864c0-1.44,0-2.88-0.072-4.32c0.288-0.432,0.576-0.936,0.936-1.44
		c3.744-0.144,6.12,0.144,14.76,0.36c0.144,0.072,0.36,0.216,0.576,0.36c0.504,2.16,0.504,2.16,0.72,5.328
		c-0.288,0.288-0.576,0.576-0.936,0.936C119.16,214.488,118.44,214.488,117.648,214.56L117.648,214.56z M126.72,214.344
		c-1.44-0.216-1.44-0.216-2.16-0.72c-0.864-3.24-0.864-3.24-0.864-4.392c0.216-0.216,0.432-0.432,0.648-0.648
		c1.224,0.216,4.824,0.216,9.576,0.72c2.088,0.072,4.176,0.144,6.264,0.216c0.648,0.144,1.296,0.288,1.944,0.504
		c1.08-0.144,2.16-0.288,3.312-0.504c0.504,0.504,0.504,0.504,0.576,1.368c-0.144,0.216-0.288,0.432-0.432,0.72
		c-1.8,0.432-3.6,0.864-5.4,1.296c-1.656,0-4.32,0.504-9.144,0.936C130.32,214.128,130.32,214.128,126.72,214.344L126.72,214.344z
		 M97.488,213.624c-0.144-0.144-0.288-0.288-0.504-0.504c-5.76-0.432-6.48-0.72-10.8-1.152c-0.072-0.072-0.216-0.216-0.36-0.36
		c0.072-0.648,0.144-1.296,0.216-1.944c1.08-1.152,2.16-2.304,3.24-3.456c1.296,0,2.592,0,3.888,0
		c1.152,0.4319,1.152,0.4319,7.2,0.936c0.144,0.36,0.36,0.72,0.576,1.08c-0.072,1.44-0.144,2.88-0.288,4.32
		c-0.432,0.288-0.864,0.648-1.296,1.008C98.784,213.552,98.136,213.552,97.488,213.624L97.488,213.624z M26.208,203.76
		c-0.288-0.288-0.648-0.576-1.008-0.936c-4.608-1.44-9.216-2.88-13.896-4.32c-0.288-0.288-0.576-0.576-0.936-0.936
		c0-0.288-0.072-0.576-0.144-0.864c0.216-0.216,0.432-0.432,0.72-0.72c0.36,0,0.72-0.0721,1.08-0.144
		c0.648,0.576,1.296,1.152,1.944,1.728c5.472,0.936,5.472,0.936,9.072,1.872c1.512,0.792,3.024,1.584,4.608,2.448
		c0.288,0.576,0.288,0.576,0.216,1.872C27.36,203.76,26.784,203.76,26.208,203.76L26.208,203.76z M98.424,202.608
		c-0.792-0.144-1.584-0.288-2.376-0.504c-0.216-0.144-0.432-0.36-0.648-0.576c0-0.936,0-1.872,0-2.88
		c0.144-0.216,0.288-0.432,0.504-0.72c0.432,0,0.864-0.0721,1.296-0.144c0.72,0.576,0.72,0.576,1.224,1.584
		c1.44,0.36,1.44,0.36,1.8,0.72c0.072,0.36,0.144,0.792,0.216,1.224c-0.216,0.288-0.504,0.648-0.792,1.008
		C99.288,202.392,98.856,202.464,98.424,202.608L98.424,202.608z M182.448,198.288c-0.288-0.144-0.648-0.288-1.008-0.504
		c-0.36-0.792-0.36-0.792-0.864-5.112c-1.44-4.608-1.44-4.608-2.16-8.424c0-1.008,0-2.016,0-3.096
		c0.144-0.216,0.288-0.432,0.432-0.648c0.936,0,1.872,0.072,2.88,0.144c-0.144,2.664-0.144,2.664,0.288,8.856
		c0.504,1.008,0.504,1.008,1.728,6.768c0,1.656,0,1.656-0.36,2.016C183.096,198.288,182.808,198.288,182.448,198.288
		L182.448,198.288z M40.104,182.664c-1.008-0.144-2.016-0.288-3.096-0.504c-0.36-0.288-0.792-0.576-1.224-0.936
		c-0.864-0.072-1.728-0.144-2.664-0.216c-0.864-0.288-1.728-0.648-2.592-1.008c-2.016-0.144-4.032-0.288-6.048-0.432
		c-2.592-0.864-5.256-1.728-7.92-2.664c0-0.216-0.072-0.504-0.144-0.792c0.288-0.288,0.576-0.648,0.864-1.008
		c0.648,0.288,1.296,0.576,1.944,0.864c5.256,0.936,5.256,0.936,8.64,1.872c1.656,0.144,3.312,0.288,5.04,0.504
		c0.792,0.288,1.584,0.576,2.376,0.936c2.52,0.288,5.112,0.648,7.704,1.008c1.368,0,2.736,0,4.104,0
		c0.72,0.432,1.44,0.936,2.16,1.44c0,0.288,0,0.576,0.072,0.864c-0.432,0-0.864,0-1.296,0.072c-0.216-0.144-0.432-0.288-0.72-0.504
		c-1.368-0.072-2.736-0.144-4.104-0.216c-0.36,0.216-0.72,0.432-1.152,0.72C41.4,182.664,40.752,182.664,40.104,182.664
		L40.104,182.664z M215.28,179.064c-1.512-0.144-3.024-0.288-4.536-0.504c-12.456,0-16.56,0.288-27.576,0
		c-4.32-0.432-7.92-0.432-15.12-0.936c-9.144-0.216-9.144-0.216-16.344,0c-12.24-1.656-12.744-1.944-18.504-2.88
		c-0.072-0.072-0.144-0.216-0.216-0.36c0.144-0.072,0.288-0.216,0.504-0.36c4.032-0.216,8.136-0.432,12.24-0.72
		c24.264-0.072,48.6-0.144,72.936-0.216c0.864-0.144,1.728-0.288,2.664-0.504c3.096-1.44,6.192-2.88,9.36-4.32
		c0.936-0.648,1.872-1.296,2.88-1.944c1.296-0.576,2.664-1.224,4.032-1.872c6.264-4.32,6.768-5.04,9.864-6.984
		c2.376-1.944,5.256-3.816,7.416-5.76c1.44-0.936,1.44-0.936,5.76-5.04c0.432-0.72,0.936-1.44,1.44-2.16
		c0.72-0.648,1.44-1.296,2.16-1.944c1.944-2.736,1.944-2.736,6.048-7.416c0.72-1.368,1.44-2.736,2.232-4.176
		c0.216-1.656,0.216-1.656,0.72-2.664c0.288,0,0.576-0.072,0.864-0.144c0.504,0.288,1.08,0.648,1.656,1.008
		c0.72,0.864,1.512,1.8,2.304,2.736c0,1.152,0,2.376,0,3.6c-0.504,1.944-0.504,1.944-0.504,4.608
		c-4.32,4.536-5.544,5.472-5.976,6.192c-8.424,8.424-9.648,9.36-10.8,10.8c-9.504,7.704-9.504,7.704-14.76,11.52
		c-4.32,2.736-6.696,3.744-10.08,5.616c-1.872,0.792-3.816,1.584-5.7599,2.448c-2.304,0.576-4.608,1.224-6.984,1.872
		C219.384,179.064,219.384,179.064,215.28,179.064L215.28,179.064z M485.568,177.624c-1.584-0.288-3.168-0.576-4.824-0.936
		c-6.984-3.888-6.984-3.888-12.888-7.56c0-0.288,0.072-0.576,0.144-0.864c2.88-0.648,5.76-1.296,8.64-1.944
		c3.6-0.072,7.2-0.144,10.8-0.216c7.2,0.72,7.2,0.72,7.704,1.08c-5.04,5.616-5.904,6.984-9.36,10.584
		C485.712,177.768,485.64,177.696,485.568,177.624L485.568,177.624z M124.128,174.96c-1.08-0.072-2.232-0.144-3.384-0.288
		c0-0.216,0-0.432,0-0.72c3.024,0,6.048-0.072,9.144-0.144c0.432,0.144,0.936,0.288,1.44,0.432
		c-0.288,0.144-0.648,0.288-1.008,0.504C128.304,174.816,126.216,174.888,124.128,174.96L124.128,174.96z M96.048,174.528
		c-1.296-0.144-2.592-0.288-3.888-0.504c-3.96,0.072-7.92,0.144-11.952,0.216c-0.864-0.144-1.728-0.288-2.664-0.432
		c-0.504-0.288-1.008-0.576-1.584-0.864c0-0.216,0-0.432,0-0.72c1.224-1.152,1.656-2.16,2.664-3.096c0.576,0,1.152-0.072,1.8-0.144
		c0.288-0.36,0.576-0.72,0.936-1.08c0.648-0.144,1.296-0.36,1.944-0.576c0.216-0.648,0.504-1.2961,0.792-2.016
		c0.648-0.576,1.368-1.224,2.088-1.872c1.224-0.432,1.656-0.936,8.856-4.752c1.296-0.792,2.592-1.584,3.888-2.448
		c5.04-1.656,10.08-3.312,15.12-5.04c5.04-0.9359,7.632-1.8719,16.992-4.032c0.792,0,1.584,0,2.448,0
		c0.504,1.728,1.008,3.456,1.512,5.184c-0.36,0.288-0.36,0.288-14.472,3.168c-5.76,1.944-6.48,2.448-15.408,5.328
		c-1.08,0.576-2.16,1.224-3.312,1.872c-1.944,2.16-1.944,2.16-2.592,3.528c0,0.648,0,1.296,0,1.944
		c1.08,1.44,1.08,1.44,2.592,2.7361c2.592,0.936,2.592,0.936,6.912,1.872c6.984,0.72,6.984,0.72,9.36,0.72
		c0.288,0.144,0.648,0.288,1.008,0.504c-0.288,0.216-6.048,0-21.168,0.216C97.2,174.528,97.2,174.528,96.048,174.528L96.048,174.528
		z M442.08,172.8c-0.432-0.576-0.432-0.576-0.216-0.936c0.288-0.072,0.576-0.216,0.936-0.36c0.144,0.216,0.288,0.432,0.504,0.72
		c0.432-0.432,0.432-0.432,0.72-0.216c-0.216,0.072-0.432,0.144-0.72,0.216c0,0.216,0,0.432,0,0.72
		C442.944,172.944,442.512,172.872,442.08,172.8L442.08,172.8z M119.304,171.36c-3.96-0.36-7.992-0.72-12.024-1.152
		c-1.08-0.2881-2.16-0.648-3.312-1.0081c-0.648-0.504-1.296-1.008-1.944-1.512c0-0.504-0.072-1.08-0.144-1.656
		c0.648-0.648,1.296-1.296,1.944-1.944c1.152-0.576,2.304-1.152,3.456-1.8c8.424-2.88,8.424-2.88,10.584-3.384
		c0.504-0.288,1.08-0.576,1.656-0.936c8.208-1.944,8.208-1.944,15.84-3.168c0.36,0.432,1.296,3.312,1.8,4.032
		c2.376,9.072,2.376,9.072,2.88,10.08c0.36,0,0.72,0,1.08,0.0721c0.072-0.144,0.216-0.36,0.36-0.576
		c-0.216-3.096-0.216-3.096-0.72-5.04c-0.936-1.944-0.936-1.944-2.376-6.984c0-0.576-0.072-1.224-0.144-1.872
		c2.448-0.288,4.968-0.576,7.488-0.864c4.752-0.0721,9.576-0.144,14.4-0.288c0.792,2.808,0.792,2.808,1.728,8.352
		c1.44,4.3199,1.44,4.3199,1.944,6.912c0.216,0.288,0.432,0.576,0.648,0.864c0.72,0,0.72,0,1.152-0.504
		c0-0.504,0.072-1.0081,0.144-1.5121c-1.008-4.104-1.008-4.104-1.944-6.4799c-0.432-2.5201-0.864-5.112-1.296-7.704
		c1.728,0,3.456,0,5.256,0.072c0.648,0.144,1.296,0.288,1.944,0.504c4.824-0.504,4.824-0.504,10.8-0.504
		c1.944,0.288,6.48,0.288,7.2,0c2.304-0.144,4.608-0.288,6.984-0.432c1.8-0.7921,3.6-1.584,5.472-2.448
		c1.44-1.152,8.928-5.04,14.4-8.352c7.488-6.048,10.368-7.92,12.96-10.368c0.288-0.144,0.6479-0.288,1.008-0.432
		c5.976-6.048,5.976-6.048,6.552-6.336c0.216-0.72,0.936-1.224,1.944-2.88c1.44-1.44,1.872-2.448,4.752-6.264
		c0.288-0.288,0.648-0.576,1.008-0.936c0.288-0.6479,0.576-1.296,0.936-1.944c0.288,0,0.576-0.072,0.864-0.144
		c7.488,3.672,14.976,7.344,22.536,11.016c1.224,0.72,2.448,1.512,3.744,2.304c0,0.432,0,0.936,0,1.44
		c-1.008,2.664-1.008,2.664-2.88,6.048c-1.368,1.584-2.736,3.168-4.104,4.752c-0.288,0.576-0.576,1.152-0.936,1.728
		c-2.16,2.16-2.16,2.16-3.168,3.6c-0.216,0.072-0.504,0.144-0.792,0.216c-0.072,0.288-0.216,0.576-0.36,0.936
		c-4.32,4.104-4.32,4.104-9.504,8.208c-1.656,0.936-6.336,4.752-11.5201,8.496c-3.096,1.872-4.752,2.376-7.632,4.32
		c-4.104,1.872-5.544,2.88-7.704,3.816c-1.44,0.36-2.88,0.792-4.32,1.224c-21.096,0.432-24.696,0.216-28.584,0.432
		c-5.76-0.216-15.84,0-37.872-0.216c-1.224,0.216-1.224,0.216-20.448,0.216c-0.72-0.144-1.44-0.288-2.16-0.432
		C122.904,171.144,122.184,171.36,119.304,171.36L119.304,171.36z M464.688,166.824c-0.648-0.432-1.368-0.864-2.088-1.296
		c0.072-0.36,0.144-0.792,0.216-1.224c3.8881-5.04,5.76-8.136,7.2-9.576c0.288,0,0.576-0.072,0.864-0.144
		c1.008,0.648,2.088,1.296,3.168,1.944c0.432,0.432,0.936,0.936,1.44,1.44c15.84,0.72,15.84,0.72,25.992,0.864
		c0,0.36,0,0.72,0,1.152c-2.376,2.664-2.376,2.664-3.6,3.6c-0.144,0.36-0.288,0.792-0.504,1.224c-0.36,0.216-0.7201,0.432-1.08,0.72
		c-5.256-0.288-10.512-0.576-15.768-0.864c-5.76,0.216-5.76,0.216-9.144,0.72C468.288,166.32,468.288,166.32,464.688,166.824
		L464.688,166.824z M503.064,165.6c-0.504,0-1.08,0-1.656-0.072c0.072-0.36,0.144-0.792,0.288-1.224
		c1.512-1.728,3.024-3.456,4.608-5.256c1.8,0,3.6-0.0721,5.4-0.144c0.864,0.288,1.728,0.576,2.6639,0.936
		c0.216,0.288,0.504,0.576,0.792,0.864c-0.072,0.4319-0.144,0.936-0.2159,1.44c-0.2881,0.288-0.576,0.576-0.864,0.864
		c-1.8,0.792-3.6,1.584-5.472,2.376C506.808,165.456,504.936,165.528,503.064,165.6L503.064,165.6z M498.528,165.312
		c0.216-0.576,0.5039-1.152,0.792-1.728c0.36-0.36,0.792-0.72,1.224-1.152c0.144,0.144,0.288,0.288,0.4319,0.432
		c-0.504,0.72-1.008,1.512-1.512,2.304C499.176,165.168,498.888,165.24,498.528,165.312L498.528,165.312z M460.08,164.16
		c-1.44-0.432-1.44-0.432-3.312-0.432c-0.576-0.288-1.152-0.648-1.728-1.008c-2.592-0.432-8.856-2.376-15.336-3.888
		c0-0.288-0.072-0.648-0.144-1.008c3.816-4.32,7.704-9.36,9.864-11.736c0.504,0,1.008-0.072,1.584-0.144
		c9.576,3.816,9.576,3.816,16.9919,7.2c0.072,0.288,0.216,0.576,0.36,0.864c-0.936,1.944-0.936,1.944-3.816,5.976
		c-1.224,1.368-2.448,2.736-3.744,4.176C460.584,164.16,460.368,164.16,460.08,164.16L460.08,164.16z M83.808,159.408
		c-0.288-0.504-0.576-1.008-0.864-1.584c-1.008-6.48-1.944-15.12-1.944-17.712c2.16-2.16,5.976-6.984,8.136-8.928
		c0.36-0.144,0.72-0.36,1.152-0.576c0.936-1.008,1.872-2.088,2.88-3.168c1.656-0.936,1.656-0.936,4.032-2.88
		c1.584-0.576,3.168-1.224,4.824-1.872c3.024-1.584,6.048-3.168,9.144-4.824c3.024-0.936,6.048-1.872,9.072-2.88
		c0.72,0,1.44,0,2.16,0c0.072,0.072,0.216,0.2159,0.36,0.36c0.72,7.488,0.72,7.488,0.936,13.968c-2.16,1.584-4.32,3.168-6.48,4.752
		c-0.864,0.432-1.8,0.864-2.736,1.296c-0.576,0.72-1.224,1.44-1.872,2.16c-7.704,5.76-7.704,5.76-12.024,8.64
		c-0.72,0.792-1.44,1.584-2.16,2.448c-2.664,1.872-3.6,2.88-10.296,7.632c-1.152,1.008-2.376,2.088-3.6,3.168
		C84.312,159.408,84.096,159.408,83.808,159.408L83.808,159.408z M435.888,158.184c-1.728-0.504-4.824-0.936-6.048-1.44
		c-5.112-0.792-10.224-1.656-15.336-2.52c0.072-0.432,0.216-0.936,0.36-1.44c3.456-3.96,6.984-7.92,10.512-11.952
		c0.144-0.36,0.288-0.792,0.504-1.224c0.648,0,1.368-0.072,2.088-0.144c1.8,0.288,3.6,0.576,5.472,0.936
		c0.864,0.288,1.728,0.648,2.664,1.008c3.384,0.432,3.384,0.432,5.04,0.936c0.72,0.504,3.6,1.44,5.04,1.656
		c0.504,0.36,1.08,0.72,1.656,1.08c-3.816,5.184-3.816,5.184-9.792,12.168c-0.36,0.288-0.792,0.576-1.224,0.936
		C436.536,158.184,436.248,158.184,435.888,158.184L435.888,158.184z M93.888,155.952c0.072-0.288,0.144-0.648,0.288-1.008
		c4.824-4.032,4.824-4.032,8.928-8.136c1.44-0.936,2.88-1.872,4.32-2.88c0.144-0.216,0.288-0.432,0.432-0.72
		c1.368-0.936,2.808-1.872,4.248-2.808c0.432-0.144,0.936-0.288,1.44-0.432c1.224-1.008,1.224-1.008,2.376-1.44
		c0.072-0.504,0.216-1.008,0.36-1.584c2.88-1.872,5.76-3.816,8.64-5.76c2.088-0.864,2.088-0.864,3.96-1.08
		c0.576,2.16,1.152,4.392,1.8,6.624c0,0.432,0,0.936,0,1.44c-2.304,2.304-4.608,4.608-6.984,6.984
		c-0.288,0.504-0.576,1.08-0.936,1.656c-0.936,0.432-1.944,0.864-2.952,1.296c-2.736,0.648-5.472,1.296-8.208,1.944
		c-5.256,1.8719-12.24,3.816-14.112,4.752C94.824,155.52,94.608,155.808,93.888,155.952L93.888,155.952z M79.488,154.584
		c-0.144-0.648-0.288-1.296-0.432-2.016c0.072-0.072,0.216-0.144,0.36-0.216c0.36,0.72,0.36,0.72,0.36,2.16
		C79.704,154.512,79.632,154.512,79.488,154.584L79.488,154.584z M409.968,153.648c-1.44-0.288-2.88-0.648-4.32-1.008
		c-2.736-0.216-5.472-0.432-8.208-0.72c-1.296,0.0721-2.664,0.144-4.032,0.2881c-3.384-0.504-3.384-0.504-6.264-0.576
		c0-0.36-0.072-0.792-0.144-1.224c4.104-3.816,4.104-3.816,10.728-10.944c1.08-0.792,2.16-1.584,3.312-2.376
		c5.544,0.216,5.544,0.216,22.104,1.872c0.36,0.648,0.36,0.648,0.36,1.368c-3.888,5.04-3.888,5.04-9.6479,11.52
		c-0.72,0.576-1.44,1.152-2.232,1.8C411.12,153.648,410.544,153.648,409.968,153.648L409.968,153.648z M140.4,152.208
		c-0.936-0.0721-1.872-0.144-2.88-0.2881c-0.504-1.296-1.008-2.5919-1.584-3.888c0-0.432,0.072-0.864,0.144-1.368
		c1.08-0.144,2.232-0.288,3.384-0.504c18.216-0.216,18.216-0.216,18.936,0c0.288,0.864,0.576,1.728,0.864,2.592
		c0,0.792,0,1.584,0,2.376c-0.072,0.072-0.216,0.216-0.36,0.36c-5.76,0.216-5.76,0.216-7.92,0
		C147.456,151.704,143.928,151.92,140.4,152.208L140.4,152.208z M168.768,151.92c-6.768-0.72-6.768-0.72-7.128-1.008
		c-0.504-2.16-0.504-2.16-0.576-5.04c2.88-0.144,8.136,0.072,12.456-0.144c1.872,1.152,3.816,2.376,5.76,3.6
		c0.72,0,0.72,0,1.224-0.504c0-0.504,0-1.008,0.072-1.512c-0.72-0.432-1.44-0.936-2.16-1.44c0-0.216,0.072-0.432,0.144-0.72
		c1.296-0.36,2.592-0.72,3.888-1.152c1.656-0.144,3.312-0.288,5.04-0.432c7.2-1.944,7.2-1.944,7.92-2.448
		c0.864-0.288,1.728-0.576,2.592-0.936c2.952-1.584,5.904-3.168,8.928-4.824c2.16-1.728,4.32-3.456,6.48-5.256
		c0.576-0.288,1.224-0.576,1.872-0.936c3.816-3.456,7.632-6.912,11.52-10.368c0.6479-0.864,1.296-1.8,1.944-2.736
		c0.216-1.224,0.504-2.52,0.792-3.816c-0.432-2.88-0.432-2.88-0.288-5.184c5.76,1.656,5.76,1.656,10.512,3.528
		c0,0.36,0.072,0.72,0.144,1.152c-0.648,1.152-1.296,2.376-1.944,3.6c-1.944,2.736-3.96,5.472-5.976,8.208
		c-1.224,0.936-3.168,3.096-5.544,5.04c-0.792,0.864-1.584,1.728-2.376,2.592c-11.88,9.864-12.816,10.296-13.32,10.944
		c-2.232,1.224-4.464,2.5201-6.696,3.816c-3.672,1.584-7.344,3.168-11.088,4.824c-1.944,0.216-3.96,0.4319-5.976,0.72
		c-3.96,0-7.992,0-12.024,0C171.144,151.92,171.144,151.92,168.768,151.92L168.768,151.92z M381.888,151.488
		c-1.944-0.2881-20.664-0.72-22.392-1.08c0-0.216,0-0.432-0.072-0.72c2.592-2.52,5.256-5.112,7.92-7.7039
		c1.44-1.8,2.952-3.6721,4.464-5.544c1.656-0.36,1.656-0.36,8.856-0.36c1.872,0.144,3.816,0.288,5.76,0.504
		c6.696-0.216,6.696-0.216,9.144,0c0.432,0.288,0.936,0.576,1.44,0.864c-6.48,7.272-6.48,7.272-13.248,14.04
		C383.184,151.488,382.536,151.488,381.888,151.488L381.888,151.488z M308.448,150.48c-9.6479-3.6-9.6479-3.6-11.52-4.032
		c-4.104-1.944-4.104-1.944-5.544-2.88c-0.072-0.288-0.144-0.576-0.216-0.864c2.7361-0.576,5.544-1.152,8.3521-1.8
		c5.76-0.504,7.488-0.936,15.624-1.44c10.584-1.656,10.584-1.656,15.624-2.16c2.16,0,4.32,0.072,6.48,0.144
		c-1.296,1.512-2.592,3.096-3.888,4.68c-2.52,2.448-5.04,4.896-7.632,7.416C316.368,150.048,315.864,150.264,308.448,150.48
		L308.448,150.48z M342,150.48c-7.416-0.72-7.416-0.72-13.176-0.792c0.072-0.36,0.216-0.792,0.36-1.224
		c3.816-4.32,3.816-4.32,10.656-11.016c0.72-0.36,0.72-0.36,6.984-1.08c6.696,0,7.704,0.216,22.824-0.144
		c-0.288,0.648-0.576,1.296-0.864,1.944c-1.296,1.512-2.592,3.024-3.96,4.536c-4.248,3.888-4.68,4.6079-8.424,7.776
		C351.648,150.48,346.824,150.48,342,150.48L342,150.48z M78.768,147.384c-0.432-0.576-0.432-0.576-0.72-2.952
		c0.216,0,0.432,0,0.72,0C79.056,147.312,79.056,147.312,78.768,147.384L78.768,147.384z M148.104,144
		c-0.504-0.216-0.504-0.216-3.816-0.288c-0.432-5.328-0.432-5.328-0.864-6.48c0.072-0.648,0.144-1.296,0.216-1.944
		c0.648-0.36,0.648-0.36,5.184-0.864c2.304,0,4.608,0,6.984-0.072c0.792,3.312,0.792,3.312,1.512,9.36
		C153.648,144,153.648,144,148.104,144L148.104,144z M166.608,144c-1.872-0.144-3.816-0.288-5.76-0.432
		c0-1.584-0.072-3.24-0.144-4.896c0.36-0.36,0.72-0.72,1.08-1.152c0.36,0,0.792,0,1.224,0c2.232,1.8,4.464,3.6,6.768,5.472
		c0,0.216,0,0.504-0.072,0.792C168.696,143.856,167.688,143.928,166.608,144L166.608,144z M174.96,143.28
		c-0.72-0.288-1.44-0.576-2.16-0.936c-4.752-3.816-6.48-4.896-7.56-6.12c0.072-0.36,0.144-0.72,0.216-1.152
		c4.608-3.888,4.608-3.888,8.64-7.92c1.656-1.2961,3.312-2.592,4.968-3.888c3.816-2.52,7.632-5.04,11.52-7.56
		c0.648,0.072,1.296,0.144,1.944,0.216c2.232,1.296,4.464,2.592,6.696,3.888c1.44,0.576,2.88,1.224,4.32,1.872
		c5.544,3.384,5.544,3.384,9.432,6.192c0,0.216,0,0.432,0,0.72c-0.792,0.792-2.736,1.728-3.888,2.736
		c-1.008,0.432-1.008,0.432-3.6,2.88c-2.88,1.584-5.76,3.168-8.64,4.752c-6.984,1.944-6.984,1.944-7.92,2.448
		c-2.52,0.288-5.112,0.576-7.704,0.936c-1.224,0.288-2.52,0.576-3.816,0.936C176.616,143.28,175.824,143.28,174.96,143.28
		L174.96,143.28z M77.04,137.952c-0.576-5.544-0.576-5.544-0.864-5.76c-0.72-4.104-0.936-4.32-1.152-6.9839
		c-0.144-0.7921-0.288-1.584-0.504-2.376c-0.072-3.744-0.216-7.488-0.36-11.304c0.432,0.072,0.864,0.144,1.296,0.216
		c0.432,4.536,0.936,9.072,1.44,13.68c0,1.728,0,3.528,0,5.328c0.288,2.376,0.576,4.752,0.864,7.2
		C77.544,137.952,77.328,137.952,77.04,137.952L77.04,137.952z M132.768,135.36c-0.864-1.728-0.864-1.728-1.368-3.456
		c-0.072-1.008-0.144-2.016-0.216-3.096c0.864-0.36,0.864-0.36,4.68-0.864c1.008,0.072,2.016,0.216,3.096,0.36
		c-0.072,0.288-0.216,0.648-0.36,1.008c-1.944,1.872-3.816,4.536-5.616,6.192C132.912,135.504,132.84,135.432,132.768,135.36
		L132.768,135.36z M162,133.92c-1.584-1.296-3.24-2.592-4.896-3.888c-0.288-1.152-0.648-2.376-1.008-3.5999
		c-0.072-1.08-0.144-2.2321-0.216-3.384c0.792-0.648,1.584-1.2961,2.376-1.944c1.152-0.576,2.304-1.152,3.528-1.8
		c5.04-3.816,5.04-3.816,5.832-4.68c0.288-0.504,0.576-1.008,0.864-1.584c0.36-0.144,0.792-0.288,1.224-0.432
		c0.288-0.288,0.576-0.648,0.936-1.008c1.224-0.432,1.224-0.432,2.448-1.44c0.72,0,1.44,0,2.16,0c7.416,1.944,7.416,1.944,9.36,2.16
		c1.008,0.576,2.088,1.224,3.168,1.872c0,0.288,0,0.576,0,0.936c-0.576,0.288-1.152,0.576-1.8,0.936
		c-0.36,0.36-0.72,0.792-1.152,1.224c-8.424,5.616-9.36,6.552-12.24,8.496c-4.32,4.104-4.32,4.104-8.856,7.92
		C163.152,133.776,162.576,133.848,162,133.92L162,133.92z M145.44,131.904c0.072-0.288,0.216-0.576,0.36-0.936
		c1.152-1.008,2.304-2.016,3.528-3.024c0.36,0.072,0.72,0.144,1.152,0.216c2.664,1.944,2.664,1.944,3.456,2.808
		c0,0.216,0,0.504-0.072,0.792C151.056,131.76,148.248,131.832,145.44,131.904L145.44,131.904z M79.92,130.248
		c-0.864-6.696-0.864-6.696-1.656-18.216c1.512-0.216,3.024-0.432,4.536-0.648c15.84,0,15.84,0,19.728-0.216
		c0.288-0.072,0.576-0.144,0.936-0.288c2.376,0.144,4.752,0.288,7.2,0.504c0.072,0.072,0.144,0.216,0.216,0.36
		c-0.288,0.36-0.576,0.72-0.936,1.08c-1.152,0.648-2.376,1.296-3.6,1.944c-0.648,0.144-1.296,0.288-1.944,0.4319
		c-0.432,0.5041-7.416,3.384-8.136,3.888c-1.44,0.432-1.44,0.432-4.824,2.376c-4.752,3.816-4.752,3.816-6.696,5.76
		c-0.36,0.144-0.792,0.288-1.224,0.504c-0.792,0.72-1.584,1.44-2.376,2.16C80.784,129.96,80.352,130.104,79.92,130.248
		L79.92,130.248z M88.848,128.088c0.072-0.432,0.144-0.936,0.288-1.44c2.16-1.944,2.16-1.944,6.408-4.6801
		c1.44-0.36,2.88-0.792,4.32-1.224c0.504-0.504,0.504-0.504,2.88-1.44c0.36,0,0.792,0.072,1.224,0.144
		c-0.36,0.36-0.792,0.72-1.224,1.08c-1.656,0.576-3.312,1.224-5.04,1.872C91.728,126.288,90.72,126.72,88.848,128.088
		L88.848,128.088z M126.72,127.584c-0.288-1.584-0.576-3.168-0.864-4.752c-0.072-1.872-0.144-3.816-0.288-5.76
		c0.216,0,0.432,0,0.72,0c1.008,5.256,1.008,5.256,1.512,6.696c0.216,3.384,0.216,3.384-0.072,3.672
		C127.44,127.44,127.08,127.512,126.72,127.584L126.72,127.584z M152.928,126.72c-0.216-0.072-0.432-0.144-0.648-0.288
		c0.072-0.36,0.144-0.792,0.216-1.224c0.36,0,0.72,0,1.152,0c0,0.36,0,0.792,0.072,1.224
		C153.144,126.864,153.144,126.864,152.928,126.72L152.928,126.72z M130.608,126c-0.432-0.576-0.432-0.576-2.808-10.368
		c-0.072-1.368-0.216-2.736-0.36-4.104c0.864,0.216,1.728,0.504,2.664,0.792c1.512,1.296,3.024,2.592,4.536,3.888
		c1.584,1.08,3.168,2.16,4.824,3.312c1.8,1.584,3.672,3.168,5.544,4.824c-0.216,0.144-0.432,0.288-0.72,0.504
		c-0.936,0.144-1.872,0.288-2.88,0.432c-0.576-0.144-1.152-0.288-1.728-0.432C136.656,125.208,133.632,125.568,130.608,126
		L130.608,126z M146.88,122.4c-5.256-3.816-7.416-5.76-10.296-7.632c-1.296-1.152-2.592-2.304-3.96-3.4561
		c0-0.216,0-0.432,0.072-0.72c3.096-0.288,6.264-0.576,9.432-0.864c2.664,0.072,5.4,0.144,8.136,0.216
		c0.576,0.864,0.576,0.864,1.512,3.96c0.504,3.888,0.504,3.888,0.288,4.824c-2.088,1.944-2.088,1.944-4.464,3.672
		C147.384,122.4,147.168,122.4,146.88,122.4L146.88,122.4z M155.088,120.024c0-0.36-0.072-0.72-0.144-1.08
		c1.44-1.512,2.88-3.024,4.392-4.536c1.008-0.36,1.008-0.36,5.112-3.528c1.008-0.936,2.016-1.872,3.096-2.88
		c2.16-0.72,2.16-0.72,3.096-0.72c0.144,0.072,0.288,0.144,0.504,0.288c-0.936,0.936-2.664,1.872-3.6,2.88
		c-0.72,0.432-1.44,0.936-2.16,1.44c-0.504,0.144-1.08,0.288-1.656,0.432c-0.288,0.432-0.576,0.864-0.864,1.368
		c-0.504,2.16-0.504,2.16-1.008,2.88c-3.456,1.8-3.456,1.8-5.832,3.456C155.736,120.024,155.448,120.024,155.088,120.024
		L155.088,120.024z M225.36,115.92c-1.008-0.936-2.016-1.872-3.096-2.88c-4.536-0.72-4.536-0.72-5.976-0.72
		c-0.288,0.288-19.44,0.504-21.168,0.288c-0.72,0.072-1.44,0.144-2.16,0.216c-0.864-0.144-1.728-0.36-2.592-0.576
		c-0.504-0.864-0.504-0.864-1.44-1.368c-1.152-0.288-2.376-0.576-3.6-0.936c-1.44-0.936-1.44-0.936-2.448-1.944
		c-1.872-1.008-3.744-2.088-5.616-3.168c0-0.288,0-0.648,0-1.008c0.432-0.288,0.864-0.576,1.296-0.936
		c0.432,0,0.936-0.072,1.44-0.144c1.656,1.44,3.312,2.88,5.04,4.32c1.08,0.072,2.232,0.144,3.384,0.216
		c0.288,0.144,0.576,0.288,0.936,0.504c1.368,0,2.736,0,4.104,0c1.728-0.288,3.456-0.576,5.256-0.936
		c17.28-0.72,18-1.008,24.048-1.008c0.576,0.432,1.224,0.936,1.872,1.44c0.576,0.144,1.152,0.288,1.728,0.504
		c0.288,1.728,0.648,3.456,1.008,5.184c-0.144,0.648-0.288,1.2961-0.432,1.944c-0.288,0.288-0.576,0.648-0.864,1.008
		C225.864,115.92,225.648,115.92,225.36,115.92L225.36,115.92z M154.08,114.84c-0.864-3.096-0.864-3.096-0.936-4.536
		c1.008,0,2.016-0.072,3.096-0.144c3.168,0.504,3.168,0.504,3.6,0.864c-1.296,1.224-2.664,2.448-4.032,3.744
		C154.8,114.984,154.8,114.984,154.08,114.84L154.08,114.84z M115.704,114.408c0-0.216,0-0.432,0.072-0.72
		c0.648-0.36,0.648-0.36,1.368-0.36c0.144,0.072,0.288,0.216,0.504,0.36C117.36,114.048,117.36,114.048,115.704,114.408
		L115.704,114.408z M118.368,113.472c0.792-1.944,0.792-1.944,1.152-2.304c1.008,0,2.088-0.072,3.168-0.144
		c-0.072,0.432-0.144,0.864-0.288,1.296C121.104,112.68,119.736,113.04,118.368,113.472L118.368,113.472z M77.04,109.008
		c-3.312-0.504-3.312-0.504-5.976-1.44c-0.36-0.288-0.72-0.576-1.08-0.864c-0.504-1.656-0.504-1.656-0.504-2.88
		c3.816-4.32,4.536-4.752,6.48-7.416c2.016-1.8,4.032-3.672,6.12-5.544c3.024-1.872,6.048-3.744,9.144-5.616
		c1.368-0.648,2.736-1.296,4.104-1.944c0.864-0.648,1.728-1.296,2.592-1.944c11.088-3.816,11.088-3.816,18-5.76
		c8.424-1.44,8.424-1.44,9.648-1.872c4.176-0.576,8.424-1.152,12.672-1.728c0.72,0,1.44,0.072,2.16,0.144
		c0.144,1.008,0.36,2.088,0.576,3.168c1.296,4.104,2.592,8.28,3.888,12.456c2.88,11.736,3.456,13.176,4.752,19.656
		c-2.952,0.36-10.152,0.36-17.352,0.864c-5.256-0.288-5.256-0.288-5.904-0.576c-1.944-6.768-1.944-6.768-5.256-21.6
		c-0.144-0.216-0.36-0.432-0.576-0.648c-0.36,0-0.792,0.072-1.224,0.144c0,0.72-0.072,1.44-0.144,2.16c4.32,18,4.32,18,4.536,19.944
		c-1.944,0.216-3.888,0.504-5.832,0.792c-10.08,0-10.08,0-13.176-0.216c-2.376,0.144-4.752,0.288-7.2,0.432
		c-7.704-0.216-7.704-0.216-15.624,0C81.144,109.008,81.144,109.008,77.04,109.008L77.04,109.008z M158.184,108.288
		c-1.872-0.144-3.816-0.288-5.76-0.504c-0.36-0.36-0.36-0.36-2.304-6.336c-2.448-9.792-4.896-19.656-7.416-29.52
		c1.296-0.36,1.296-0.36,19.584-2.304c10.512-0.288,21.096-0.576,31.68-0.936c16.056,1.44,16.056,1.44,18.432,1.872
		c0.072,0.144,0.216,0.288,0.36,0.432c-0.216,1.152-0.432,2.376-0.72,3.6c-0.288,0.432-0.576,0.936-0.936,1.44
		c-2.88,2.592-12.96,10.2961-16.344,13.392c-4.68,3.24-9.36,6.48-14.04,9.72c-3.024,1.584-6.048,3.168-9.072,4.824
		c-1.512,0.576-3.024,1.224-4.608,1.872c-1.08,0.648-2.16,1.296-3.312,1.944c-0.72,0.144-1.44,0.288-2.16,0.504
		C160.488,108.288,159.336,108.288,158.184,108.288L158.184,108.288z M174.96,107.064c-0.432,0-0.936,0-1.44-0.072
		c0-0.288,0-0.648,0-1.008c0.432,0,0.936-0.0721,1.44-0.144c1.008,0.504,1.008,0.504,1.44,1.008
		C176.184,107.064,176.184,107.064,174.96,107.064L174.96,107.064z M190.368,105.408c-1.584-0.288-3.168-0.648-4.824-1.008
		c-0.864-0.936-1.728-1.872-2.664-2.88c0-0.216-0.072-0.504-0.144-0.792c0.648-0.648,1.368-1.296,2.088-1.944
		c3.96-2.448,7.992-4.896,12.024-7.344c0.432-0.432,0.936-0.936,1.44-1.44c0.288,0,0.576,0,0.936,0
		c1.656,1.008,2.88,1.44,9.144,5.328c1.944,1.368,3.888,2.736,5.832,4.176c0.504,1.728,0.504,1.728,0.72,4.104
		c-7.776,0.576-9.216,0.36-12.6,0.792c-1.224,0-2.52,0-3.816,0c-1.728,0.288-3.456,0.648-5.256,1.008
		C192.312,105.408,191.376,105.408,190.368,105.408L190.368,105.408z M171.648,101.52c-0.432-0.504-0.864-1.008-1.368-1.512
		c0.216-1.656,0.72-2.664,0.936-4.104c0.144-0.144,0.288-0.36,0.432-0.576c0.288,0,0.576,0,0.936,0
		c0.144,0.144,0.36,0.36,0.576,0.576c0.936,3.6,0.936,3.6,0.936,4.608c-0.144,0.216-0.288,0.432-0.432,0.72
		C173.016,101.304,172.368,101.376,171.648,101.52L171.648,101.52z M211.968,94.608c-3.456-2.088-6.912-4.176-10.368-6.264
		c0-0.216-0.072-0.504-0.144-0.792c0.72-0.72,1.44-1.44,2.16-2.16c1.512-1.08,3.024-2.232,4.608-3.384
		c0.36-0.072,0.72-0.144,1.08-0.216c0.216,1.296,0.504,2.664,0.792,4.032c2.448,7.704,2.448,7.704,2.448,8.64
		C212.184,94.752,212.184,94.752,211.968,94.608L211.968,94.608z M189.144,83.808c-0.288-0.36-0.576-0.72-0.864-1.08
		c-0.936-6.264-1.44-7.416-1.656-10.584c0.36-0.36,0.36-0.36,1.8-0.432c1.08,3.312,1.08,3.312,2.016,8.352
		c0.072,0.864,0.144,1.728,0.216,2.664c-0.216,0.36-0.504,0.72-0.792,1.08C189.648,83.808,189.432,83.808,189.144,83.808
		L189.144,83.808z"/>
</g>
</svg>
