<?xml version="1.0" encoding="utf-8"?>
<!-- Generator: Adobe Illustrator 21.1.0, SVG Export Plug-In . SVG Version: 6.00 Build 0)  -->
<svg version="1.1" id="h" xmlns="http://www.w3.org/2000/svg" xmlns:xlink="http://www.w3.org/1999/xlink" x="0px" y="0px"
	 viewBox="0 0 564.1881 274.6017" enable-background="new 0 0 564.1881 274.6017" xml:space="preserve">
<g>
	<path fill-rule="evenodd" clip-rule="evenodd" d="M232.4188,274.5997c-1.957-0.2531-3.8993-0.5009-5.8269-0.7458
		c-13.9564-1.7757-27.2016-3.462-40.6111-6.8114c-2.6617-0.0043-3.8829-0.584-5.5607-1.3805
		c-0.1831-0.087-0.3736-0.1783-0.5961-0.2818c-8.8883-0.976-18.2066-2.3428-27.3232-4.0895
		c-8.3772-1.605-16.5855-3.5317-24.1344-5.7708c-22.5856-1.3518-45.7226-5.7816-67.2792-9.9085l-0.8935-0.1709
		c-1.5701-0.0695-3.1711-0.4091-4.7126-0.7359c-1.7014-0.3608-3.3304-0.7072-4.7251-0.6457v0.7019v0.25h-0.25H49.93h-0.25v-0.25
		c0-0.1253-2.0248-0.7535-4.5179-1.527c-3.4305-1.0641-7.7105-2.3927-9.1619-3.5657c-2.7578-0.4388-5.5372-0.5865-8.3044-0.7331
		c-3.1447-0.1664-6.2759-0.3336-9.3665-0.9255c0.2755,0.1162,0.6443,0.3198,1.3368,0.7007l0.2914,0.1602l-0.235,0.235
		c-0.0584,0.0584-0.1176,0.1176-0.1701,0.2228l-0.0893,0.1789l-0.1936-0.0482c-1.482-0.3705-2.8383-1.0012-4.0034-1.5429
		c-0.6452-0.2999-1.2311-0.5731-1.7348-0.7532c-1.5086,0.0057-3.0461,0.3351-4.5113,0.6489
		c-1.3723,0.2939-2.6838,0.5751-3.8741,0.5751l-0.1531-0.0002l-0.0694-0.1384c-0.0525-0.1052-0.1117-0.1644-0.1701-0.2228
		l-0.3594-0.3597l0.5048-0.0638c0.0859-0.0108,0.159-0.0181,0.2583-0.0281h0.0011c0.8688-0.0882,3.225-0.3279,4.0771-1.1137
		c-0.3932-0.2452-0.7823-0.4261-1.1676-0.5545c-1.1288-0.0518-2.2414-0.0811-3.4118-0.053
		c-0.5017,0.1103-0.9955,0.2509-1.4805,0.3889c-1.0026,0.2852-1.9712,0.5613-2.9254,0.5613H0v-0.2501v-0.576l0.0003-0.216
		l0.2146-0.0309c1.6072-0.2325,3.028-0.3407,4.3705-0.3745c1.1492-0.2517,2.3443-0.3523,3.5926,0.0564
		c0.6279,0.0295,1.2603,0.0663,1.9117,0.1037c1.7362,0.0998,3.6034,0.2061,5.8575,0.2107c0.019-0.029,0.0377-0.0545,0.0564-0.0777
		l-0.2679-0.5026c-0.5026-0.9397-0.7736-1.4471-0.8986-2.0724l-0.0352-0.176l0.1571-0.0893
		c4.1592-2.3698,8.2698-6.1934,12.047-9.7075c1.7816-1.6572,3.4908-3.2471,5.0981-4.5859c-0.2424-3.1425-0.974-6.3221-1.6926-9.4476
		c-0.8495-3.6946-1.6824-7.3162-1.6824-10.7464v-0.1043l0.0723-0.0723c1.5494-1.5494,1.1531-6.4981,0.7588-11.4174
		c-0.341-4.2514-0.6797-8.4824,0.2534-10.6429c0.6163-6.5282,2.4106-9.1029,5.4275-13.4303h0.0008
		c0.5468-0.7844,1.1358-1.6285,1.7686-2.5704c0.0896-2.024,3.6241-6.4437,6.8559-10.4843c2.1515-2.6904,4.1681-5.2112,4.9051-6.6855
		l0.078-0.0916c3.0807-2.2048,4.6545-5.3637,6.1852-8.4373c2.0934-4.203,4.1108-8.2511,9.7461-9.6566
		c0.4975-0.4513,2.7927-1.7725,5.2441-3.0821c2.4454-1.3059,5.0621-2.6178,6.1894-3.047c-0.4552-2.1574-2.4661-3.9543-4.3149-5.606
		c-1.662-1.4848-3.1978-2.8579-3.4659-4.35h-1.2645c-2.9341,2.908-4.6774,3.0742-5.7314,2.0202
		c-1.2807-1.2807-1.4105-4.4181-1.4944-6.4559c-0.0295-0.7149-0.0524-1.2855-0.106-1.5403H59.146H58.993l-0.0694-0.1386
		c-1.5712-3.1425-2.3927-8.2496-3.0285-12.2037c-0.1599-0.9949-0.3084-1.9182-0.4498-2.6957l-0.0383-0.2115l0.2052-0.0686
		c0.1775-0.0592,0.4003-0.1182,0.6341-0.144c0.2049-3.5498,0.635-6.84,1.0457-9.9785c0.1854-1.4178,0.3674-2.8051,0.5261-4.2125
		l0.0281-0.248l0.2472,0.0272l1.944,0.216l0.1417,0.0159l0.0584,0.1307c0.7512,1.6812,1.4845,3.2375,2.4656,4.7446
		c0.9774,1.5018,2.2051,2.9605,3.9492,4.4555l0.0292,0.0303c3.8157,4.5788,4.8637,5.2937,5.6871,4.6077
		c0.2503-0.2086,0.5043-0.5479,0.8042-0.9485c1.0134-1.3535,2.5313-3.3814,6.5815-4.1754c2.5053-0.8292,5.0644-0.6628,7.6853-0.4924
		c1.6691,0.1086,3.3639,0.2191,5.0692,0.0711c0.2968-0.8354,1.2965-1.8306,2.5157-2.7451c1.5296-1.1469,3.422-2.1878,4.6786-2.6194
		c0.0621-0.1834,0.1236-0.3603,0.1885-0.4904l0.1375-0.1227c0.8977-0.3249,2.0619-0.9218,3.3721-1.5934
		c4.7937-2.4571,11.5056-5.8972,14.9598-1.1622c0.2818,0.2013,1.1341,0.9236,2.2842,1.8978
		c3.3843,2.8672,9.3762,7.9435,10.5225,8.0431l0.1775,0.0156l0.0431,0.1729c0.0652,0.2611,0.131,0.5238,0.1956,0.8337
		c1.2713,0.6571,4.0728,0.3518,6.7079,0.0655c1.3825-0.15,2.7201-0.2957,3.7984-0.2957h0.1551l0.0686,0.1375
		c0.095,0.1902,0.3212,0.4042,0.6588,0.5851c0.3067,0.1641,0.6999,0.2976,1.1659,0.3594l0.1227,0.0527
		c1.4034,1.1225-0.4201,4.4379-2.0801,7.4563c-1.1217,2.0398-2.1637,3.9382-2.0373,4.7307c0.5386,0.2279,1.131,0.1579,2.0577,0.0493
		l0.4362-0.0501l0.2316-0.0264l0.0417,0.2304c0.0819,0.4518,0.3521,1.0834,0.661,1.8071c0.1874,0.4385,0.3898,0.9116,0.5746,1.4015
		c1.4499,0.254,3.0263,0.3883,4.7276,0.4011c-0.021-0.2727-0.0335-0.5465-0.04-0.8147c-0.0099-0.3946-0.0102-0.7174-0.0102-1.023
		v-0.1032l0.0734-0.0735c0.1262-0.1262,0.2537-0.252,0.4306-0.3453c-0.0062-1.4196-0.0935-2.6887-0.1766-3.9059
		c-0.1327-1.9437-0.2568-3.7598-0.0374-5.8226l0.0714-0.1502c0.2684-0.2684,0.5386-0.4771,0.8611-0.68
		c-0.0147-0.6041-0.1261-1.0352-0.2194-1.3981c-0.1091-0.4243-0.197-0.7676-0.1159-1.1829l-0.4272-0.1423l-0.1678-0.0559
		l-0.0031-0.1763l-0.0031-0.18c-0.0706-4.2806-0.1772-10.7-2.8046-13.3274l-0.0723-0.1638c-0.231-4.3296-1.6668-5.7776-3.204-5.6954
		c-0.995,0.053-2.0455,0.7274-2.8511,1.6708c-0.8107,0.949-1.3663,2.1642-1.3663,3.2916c0,1.7291,1.3606,3.2613,5.2316,3.278
		c0.1542-0.0839,0.305-0.1344,0.4527-0.153c0.7761-0.0987,1.3561,0.6483,1.7813,1.9624c0.3912,1.2095,0.6707,2.9299,0.8654,4.9093
		c0.6809,6.9185,0.3413,17.0623,0.1641,19.5412l-0.0099,0.1414l-0.1276,0.0635c-0.1052,0.0525-0.1644,0.1117-0.2228,0.1701
		l-0.1766,0.1766l-0.1766-0.1766c-0.9581-0.9581-0.8297-5.7393-0.6897-10.9576c0.1627-6.0571,0.3416-12.7157-1.0426-14.3132
		c-1.3578-0.015-2.543-0.3076-3.5957-0.7484c-1.0741-0.4499-2.0095-1.0548-2.8517-1.6772l-0.1006-0.0742v-0.1259
		c0-1.2745-0.1077-2.344-0.197-3.2312c-0.0643-0.6426-0.1199-1.1922-0.1199-1.6569h0.0011c0-2.1294,0.9975-2.7059,6.4686-2.7059
		l0.1514,0.0518c4.4189,3.3667,5.1457,12.2471,5.6444,18.3464l0.0672,0.8167c0.0468,0.1794,0.1261,0.3671,0.2154,0.5766
		l0.0723,0.1701c1.3192,0.1306,2.3666,0.1372,3.2995,0.1429c2.427,0.0156,4.0989,0.0272,7.5555,2.0829
		c4.1221,0.7194,4.6295-0.9987,5.146-2.7527c0.4359-1.4803,0.8799-2.9835,3.0994-3.3653c1.069-0.6877,1.8116-0.4479,2.3729,0.4008
		c0.7064,1.0675,1.0678,3.166,1.4749,5.5329c0.7793,4.5276,1.7337,10.0706,5.5029,10.7374l0.4861-0.5938
		c5.1097-6.2487,6.8644-8.3931,16.2692-11.7414c0.8237-0.658,1.6807-0.7759,2.5469-0.8941
		c0.8093-0.1105,1.6288-0.2228,2.3961-0.8277c0.3997-1.5109,0.7109-3.2531,0.8694-5.0599c0.2628-2.9982,0.1052-6.1718-0.7671-8.763
		c-0.8589-2.5515-2.4146-4.5383-4.9518-5.218c-0.4028-0.108-0.8322-0.184-1.2881-0.2237l-0.1171-0.042
		c-1.2331-0.8289-3.3565-1.4406-5.489-2.0548c-2.8619-0.8246-5.7407-1.6543-6.6915-3.0795l-0.0003,0.0003
		c-0.8804-1.3204-0.1616-3.0532,3.5833-5.5562c1.2878-1.5565,4.6859-2.609,8.1062-3.6678c2.3499-0.7271,4.7115-1.4581,6.3584-2.3409
		c0.0814-9.0433-0.4249-17.8857-0.9278-26.6771c-0.3177-5.5516-0.6347-11.0845-0.8016-16.6561l-0.0031-0.1077l0.0754-0.0757
		c0.157-0.157,0.3149-0.3149,0.4972-0.4059l0.3076-0.1537l0.0508,0.3401c1.6685,11.1487,3.018,22.8781,3.8375,34.725
		c0.7362,10.6467,1.0451,21.3919,0.773,31.8986c0.0666,0.8793,0.0292,2.2258-0.0128,3.746
		c-0.0901,3.2451-0.2021,7.299,0.6412,9.1931c1.4958,0,2.9937,0.0028,4.519,0.0691c1.419-1.216-0.1185-30.844-1.0375-48.5572
		c-0.3039-5.8595-0.5408-10.419-0.5763-12.2417l-0.0048-0.2548h0.2537c0.1585,0,0.3966,0.0003,0.654,0.0859l0.1644,0.055
		l0.0065,0.1723c0.2426,6.287,0.6392,12.7183,1.0389,19.2056c0.6639,10.7784,1.3382,21.7159,1.3382,32.4992l-0.0431,0.1386
		c-0.0388,0.0584-0.0292,1.819,0.0014,3.7865c0.0312,1.9933,0.0969,4.1777,0.165,5.0528c3.5631,0.1669,5.8907,0.1238,8.0459-0.3209
		c2.1969-0.4539,4.2332-1.3295,7.2374-2.8315l0.1173-0.0264c5.9374,0.1431,6.0117,0.1454,6.734,0.3617
		c2.0452,0.1236,6.1248-0.0536,9.6018-0.8113c2.3111-0.5037,4.3452-1.2589,5.2962-2.3425
		c-0.0088-2.8352-0.4181-10.0664-0.9071-18.7144c-1.0681-18.8755-2.5163-44.4764-0.9635-46.0292l0.1766-0.1766l0.1766,0.1766
		c0.0584,0.0584,0.1176,0.1176,0.2228,0.1701l0.1261,0.0631l0.0114,0.1398c0.7367,8.9668,0.8716,18.0663,1.0071,27.2381
		c0.18,12.2134,0.3637,24.558,1.98,36.9204c1.497-0.3736,2.4568-1.411,3.331-2.3553c1.6317-1.7617,2.9895-3.2278,6.692-0.2749
		l0.0579,0.0655c1.2863,2.1135-2.2295,4.8881-5.5437,7.5036c-2.1964,1.7326-4.2996,3.3942-4.7455,4.6244
		c0.5471,0.4145,1.0343,1.0469,1.584,1.7612c0.8932,1.1602,1.9596,2.5455,3.6774,3.4597c0.0277-0.0652,0.0567-0.1315,0.089-0.1961
		c0.6191-1.2379,2.0591-2.2502,3.6102-2.8633c1.5503-0.6128,3.2284-0.8331,4.322-0.4879c0.1284,0.0406,0.25,0.0893,0.3611,0.1446
		l0.1451,0.0725l-0.0076,0.1619l-0.0329,0.7016c-0.2667,5.6934-0.3603,7.6719-1.1234,8.011l-0.1253,0.0558l-0.1131-0.0753
		c-0.3447-0.2296-0.6429-0.4348-0.9196-0.6248v-0.0012c-1.0536-0.7243-1.7972-1.2348-2.6325-1.444
		c-0.2409,1.9868,2.6971,4.6715,5.7336,7.4441c2.5461,2.325,5.1593,4.7118,6.111,6.9052c1.8521-0.0793,3.7786,0.1199,5.7381,0.3229
		c2.2794,0.2361,4.6049,0.4774,6.8811,0.2829v-1.0689v-0.1409l0.1222-0.0728c4.0082-2.3885,10.724-4.371,17.0215-4.5096
		c5.0176-0.1103,9.7809,0.9487,12.731,3.8988l0.047,0.0671c0.6843,1.3944,0.345,2.7618,0.0298,4.0343
		c-0.1007,0.4059-0.1993,0.8025-0.2577,1.184c-0.2534,1.6532,0.3107,3.0362,5.2223,3.8262c0.1678-1.137,0.0244-7.052-0.2367-13.2536
		c-0.2872-6.8296-0.724-13.9836-1.0494-15.5019l-0.0048-0.0508c-0.0269-4.9138-0.0235-9.9295-0.0202-14.9471
		c0.0051-8.3526,0.0108-16.713-0.1236-24.6254c-0.3549-1.859-0.2483-4.2471-0.1443-6.5769
		c0.1225-2.7559,0.2418-5.4292-0.4158-6.9537c-4.8796-0.0229-8.3517-1.0893-11.8029-2.1483
		c-1.8423-0.5652-3.6791-1.1293-5.7243-1.5285l-0.2021-0.0394v-0.2055c0-2.3253,9.214-7.3026,14.7484-10.2924
		c1.6909-0.913,3.0339-1.6387,3.6454-2.0319c0.9547-3.5521,0.0223-11.2957-0.5763-16.2691
		c-0.1278-1.0613-0.2407-1.9962-0.3195-2.7742l-0.0278-0.273L316.186,0c3.0305,0,3.1989,36.0031,3.3106,59.9263
		c0.0524,11.2819,0.093,19.8604,0.3778,20.5838l0.0165,0.0799c0.2874,6.2887,0.6477,12.6584,1.0981,19.1101
		c0.449,6.4318,0.9876,12.9317,1.6328,19.4972c0.3747,0.7501,0.3736,0.7594,0.2903,1.2606l-0.0349,0.2089h-0.2112
		c-0.0774,0-0.1551,0.0119-0.2265,0.0295c-0.0227,0.0056-0.0457,0.0125-0.0674,0.0195c0.1329,0.5465,0.5459,1.1642,1.0238,1.8808
		c0.936,1.4031,2.1121,3.1657,2.1121,5.6682l-0.0411,0.1358c-0.2735,0.4227-0.6636,0.8858-1.0735,1.3731
		c-0.6925,0.8229-1.4488,1.7207-1.758,2.5793c2.7896,0.2834,6.2215,4.0634,9.8821,8.0971
		c4.4198,4.8702,9.182,10.1169,13.3149,9.8138l0.0176-0.0011c7.3802,0,14.7523,0.2097,22.144,0.4204
		c10.4516,0.2974,20.9443,0.5961,31.7052,0.3007h0.0156c5.0933,0.1843,10.2197,0.1919,15.3794,0.199
		c10.9819,0.0159,22.1213,0.032,33.3929,1.7469l0.1015,0.0392c1.6226,1.0817,10.0451,1.1899,18.9045,1.3039
		c10.4,0.1332,21.3976,0.2747,23.0587,2.1192c1.1987,0.1043,2.4709,0.3325,3.7689,0.5644c1.586,0.2835,3.2128,0.5746,4.7568,0.6514
		l0.037,0.004c3.566,0.7132,7.4345,1.9012,11.4035,3.1201c6.8296,2.0973,13.9621,4.2877,20.3582,4.2908
		c4.9912-0.6148,9.8297-0.5984,15.0045-0.5808c0.688,0.0023,1.3386,0.0043,2.5527,0.0043c0.9833-0.8346,3.6255-0.7784,5.6508-0.7353
		c0.3876,0.0079,0.7515,0.0159,1.1416,0.0159h0.103l0.0735,0.0734c0.1134,0.1134,1.3036,0.5459,2.5685,0.7188
		c0.5768,0.0788,1.1597,0.0984,1.6464-0.0003c0.4468-0.0904,0.8092-0.2823,0.9944-0.6242l0.0011-0.0009
		c0.1102-0.2032,0.1627-0.4671,0.1412-0.8016c-1.3737-0.3507-2.6455-0.2021-3.795-0.0689c-2.004,0.2324-3.6598,0.4246-4.9738-1.8745
		l-0.0294-0.0839c-0.6342-3.8418,0.8654-5.9911,3.2631-7.2366c2.3451-1.2184,5.5436-1.5466,8.4126-1.7643l0.2682-0.0204
		l0.0002,0.2693c0,1.2412-0.155,2.5455-0.3147,3.8917c-0.3585,3.0218-0.7432,6.2623,0.582,9.4037l0.0208,0.0966v1.08v0.1378
		l-0.1195,0.074c-1.184,0.7313-2.8027,1.2314-4.4186,1.5007c-1.7883,0.2979-3.5867,0.3146-4.7959,0.0515
		c-7.1064,0.7685-14.1655,1.1976-20.8944,1.6059c-1.3992,0.0847-2.7833,0.1687-4.182,0.2568
		c-0.0369,0.0414-0.072,0.0901-0.1052,0.1568l-0.0646,0.1287l-0.1432,0.0088c-1.1797,0.0714-2.3445,0.1434-3.5168,0.225
		c-1.1146,0.0777-2.2153,0.163-3.3015,0.2631c-0.2527,0.6774-0.6837,1.6194-1.1691,2.679
		c-1.2915,2.8182-2.9744,6.4911-2.6292,8.0977c1.6736,0.2676,3.9659,0.9879,6.364,1.7408c3.3274,1.0449,6.8644,2.1557,9.1674,2.1906
		c0.718-0.8081,1.4841-1.9309,2.087-3.0586c0.5664-1.059,0.9883-2.1177,1.0874-2.9128l0.0165-0.1321l0.1202-0.0601
		c0.3781-0.1891,2.0426-3.5518,3.4075-6.3091c0.8127-1.6424,1.5214-3.0742,1.823-3.5402l0.0632-0.0981l0.1154-0.0142
		c0.7281-0.091,0.7285-0.091,0.9581,0.2534l0.0924,0.1386l-0.0924,0.1386c-0.5358,0.804-2.3851,4.3597-4.1976,7.9532
		c-1.8711,3.7094-3.7029,7.4395-3.9996,8.1927c2.7255,1.4281,2.8579,3.3789,1.8229,5.47c-0.9631,1.9457-2.9622,3.996-4.7599,5.8405
		c-1.2242,1.2558-2.3552,2.416-2.9778,3.3588l-0.0583,0.0612c-4.6713,3.5034-9.3679,11.2963-13.5349,20.2816
		c-5.9828,12.9008-10.8621,28.2427-13.021,36.9215c3.0192,0.5284,8.0005,0.5911,12.9665,0.6528
		c6.4375,0.0805,12.8521,0.161,15.0634,1.2665l0.2222,0.1111l-0.1111,0.2228c-0.3584,0.7166-1.1344,0.7477-1.8918,0.7778
		c-0.587,0.0232-1.1616,0.0464-1.3453,0.4402l-0.0673,0.1434H528.01c-3.4205,0-6.9392-0.3118-10.4005-0.6182
		c-4.1567-0.3679-8.233-0.7288-11.9067-0.5338l-0.2628,0.0139v-0.2627v-0.3419c-6.2915-0.3869-12.4382-0.5984-18.5258-0.6602
		c-6.1643-0.0627-12.2777,0.0272-18.4278,0.2424v0.0005c-11.6756,1.0044-22.4326,3.932-33.0225,6.8142
		c-1.4972,0.4073-2.9911,0.8141-4.5896,1.2421l-0.0496,0.0076c-7.5319,0.451-11.4111,0.6832-13.4254,0.8198
		c1.0978,0.0213,2.2825,0.0933,3.2941,0.5788l-0.0587,0.4694c-0.3643,0.0726-4.0445-0.0516-8.4977-0.2024
		c-4.2199-0.1429-9.1415-0.3098-12.5717-0.3563l-4.3982,0.2758c-2.8888,0.3112-5.815,0.6483-8.7531,0.9859
		c-11.9583,1.3748-24.1192,2.772-35.8481,2.685h-2.7v-0.0474l-0.0235-0.0005l-0.0057,0.047l-0.5173-0.0629
		c-3.0546-0.0984-6.0746-0.307-9.0501-0.6562c-2.1906,0-4.3812,0.0003-6.5064,0.0689c-1.0497,0.7495-7.3641,0.4084-9.9453,0.2687
		c-0.5287-0.0283-0.894-0.0484-1.0236-0.0484h-0.1837l-0.0544-0.1769c-0.3331-1.0822-11.6229-0.8079-19.9143-0.6064
		c-4.0487,0.0981-7.3927,0.1794-8.4589,0.0612l-0.1165-0.013l-0.0641-0.0964c-0.1131-0.1695-0.2268-0.3399-0.3118-0.5196
		c-16.8361,1.7479-33.6252,2.3289-50.1044,2.8987c-3.047,0.1054-6.084,0.2106-9.1273,0.3232L232.4188,274.5997L232.4188,274.5997z
		 M397.906,268.7029c0.4961,0,1.0528,0.0039,1.6583,0.0125l2.5024-0.1562c10.1818-0.6372,20.4078-1.2776,30.6644-2.0098
		c0.7228-0.4995,4.4175-1.6628,8.0263-2.5991c3.1345-0.813,6.2277-1.4649,7.2819-1.3742c5.3708-2.9809,13.887-4.2044,22.5222-4.6091
		c8.6315-0.4042,17.3848,0.0074,23.2208,0.295c0.5082-0.1137,2.4641-0.0612,4.28-0.0125c1.336,0.0357,2.5951,0.0689,3.0931,0.0363
		c1.7598-10.3688,6.0055-19.7214,10.1988-28.9579c2.6028-5.7331,5.1855-11.4222,7.1317-17.261l0.035-0.0695
		c0.0939-0.1284,0.2671-0.3568,0.5032-0.6684c1.7771-2.347,7.151-9.4456,7.5581-11.5571c-1.8136,0.0139-7.979,2.7442-11.3298,4.2278
		c-0.9802,0.434-1.7229,0.7631-2.0577,0.8904l-0.0331,0.0096c-13.0527,3.0266-23.6296,9.61-34.5856,16.4288
		c-1.5111,0.9405-3.0302,1.8861-4.5802,2.8372l-0.1298,0.0371c-2.0628,0-7.6368,1.7875-13.2415,3.9093
		c-6.5384,2.4752-13.0952,5.3946-14.1579,6.4573l-0.1367,0.0695c-1.4924,0.244-2.9838,0.5763-4.4722,0.9813
		c-0.2857,0.1143-0.5777,0.2299-0.8739,0.3444c-2.5957,1.0035-5.5383,2.0112-7.7179,2.6978
		c-4.0944,1.7328-8.174,3.7896-12.2394,5.8391c-7.1842,3.6218-14.3243,7.2206-21.4478,8.9901
		c-10.696,5.7217-23.6996,8.9464-36.3495,12.0827c-7.6994,1.9089-15.2685,3.7859-22.0923,6.1705
		c-0.0184,0.0462-0.0346,0.0978-0.0474,0.1497l-0.0006,0.0023c2.0753,0.1984,4.1743,0.449,6.2748,0.7033
		c1.114,0.0357,2.2323,0.057,3.3548,0.0641h1.4468c0.0936-0.178,0.2214-0.305,0.3481-0.4317l0.1687-0.0723
		c0.2639-0.0088,0.5601-0.017,0.8734-0.0252c2.1274-0.0575,5.0264-0.1363,7.2023-0.758l0.0488-0.0088
		c11.3105-0.8963,22.7741-1.6458,34.31-2.3731c0.9218-0.0992,1.8434-0.1959,2.7641-0.29L397.906,268.7029L397.906,268.7029z
		 M433.084,238.1972c2.8636-1.2112,5.7365-2.2654,8.6205-3.0518c1.7889-0.7144,3.327-1.404,4.1935-1.942
		c-2.6663,0.0099-6.2507,0.1214-7.4953,1.366l-0.0734,0.0734h-0.1032c-0.7398,0-1.5265-0.0916-2.3097-0.1826
		c-1.8436-0.2143-3.674-0.4266-4.7137,0.6131l-0.1162,0.116l-0.1531-0.0612c-0.1097-0.0439-0.2123-0.0876-0.3098-0.129
		c-0.2035-0.0868-0.3875-0.165-0.5621-0.2123c-11.6818,0.3999-23.464,0.9658-35.1411,1.5259
		c-7.2074,0.3459-14.3754,0.6899-21.4847,0.993h-0.0116c-7.1617-0.0717-14.2529-0.0536-21.2711,0.0451
		c-7.0132,0.0986-13.9601,0.2789-20.8381,0.5309l-0.0088,0.0011c-16.0591,0-32.2262-0.9102-48.3103-1.815
		c-15.9001-0.8943-31.7194-1.785-47.3057-1.785l-0.0284-0.002c-5.5514-0.6426-11.4049-0.8232-17.2483-1.0023
		c-8.5674-0.2634-17.1159-0.5264-24.6603-2.238c-9.7191-0.4895-19.4272-1.5352-29.1019-2.577
		c-13.1281-1.4133-26.1958-2.8208-39.1212-2.8208l-0.0604-0.0079c-3.0912-0.7727-10.0919-1.2147-17.0841-1.6558
		c-8.464-0.5334-16.9172-1.0681-18.5823-2.2294c-8.4203-0.4218-16.9098-1.5293-25.3165-2.6255
		c-6.8553-0.8943-13.6553-1.7821-20.3187-2.283c-1.4372-0.049-2.9041-0.1225-4.2984-0.2668
		c-1.9576-0.0935-3.9025-0.1457-5.8306-0.1474c-0.6466,0.7506,0.8291,7.157,2.1645,12.9495
		c0.9074,3.9376,1.7518,7.5963,1.8062,9.116c3.1975,1.7521,9.1256,2.207,13.8422,2.5685c1.216,0.0933,2.3527,0.18,3.3556,0.2832
		c10.2248,0.286,20.4908,1.7672,30.8517,3.261c10.5993,1.5287,21.2995,3.0719,32.1327,3.3628l0.0371,0.0028
		c0.5125,0.0901,2.7788,0.3832,6.0837,0.8096c12.7514,1.6452,40.8575,5.2727,43.0736,6.9661
		c9.6746,0.2795,19.5384,1.2305,29.4491,2.1858c10.8037,1.0412,21.6646,2.0883,32.3784,2.2757l0.0439,0.004
		c6.268,1.2371,12.9214,1.6701,19.7359,2.1129c5.0607,0.3291,10.2107,0.6641,15.3723,1.3394
		c13.6071,0.4272,27.4187,1.165,41.3033,1.9069c7.2207,0.3855,14.4624,0.7727,21.6881,1.1169l0.1854,0.0088l0.045,0.1797
		c0.0593,0.2372,0.1726,0.5327,0.2934,0.8359c3.238,0.3538,6.5871,0.7821,9.9357,1.2095l0.0284,0.489
		c-0.1378,0.0343-0.9482,0.0383-2.1711,0.0437c-4.167,0.0184-13.233,0.0598-15.5024,1.1945
		c-0.2506,0.1253-0.3952,0.254-0.4037,0.3867c1.1608,0.1811,4.2477,0.4901,6.7238,0.4901c1.5664,0,2.8655-0.114,3.1972-0.4456
		l0.0777-0.0779l0.1106,0.0057c2.95,0.1437,5.9473,0.3577,8.9436,0.5714c0.1043-0.0419,0.2018-0.0587,0.2968-0.0649
		c0.0564-0.1658,0.1142-0.3223,0.1735-0.4411l0.0564-0.1131l0.123-0.0215c0.7331-0.1293,2.329-0.4941,3.695-0.983
		c0.8677-0.3107,1.6359-0.6678,2.0035-1.0355l0.0735-0.0734h0.1032c1.0681,0,2.186-0.5338,3.3624-1.095
		c1.1259-0.5372,2.3046-1.0999,3.5872-1.2779l0.284-0.0397l0.0003,0.2866v0.553c4.1295-0.921,8.8648-2.0492,13.5959-3.403
		c4.8319-1.3833,9.6449-2.9993,13.7715-4.8654l0.1026-0.0227c1.8876,0,7.0376-1.4998,12.1017-3.3106
		c5.0241-1.7966,9.9482-3.8937,11.5033-5.1307l0.155-0.0547c1.0293,0,6.615-2.2315,12.3974-4.7316
		c6.736-2.9129,13.7089-6.1688,14.0329-6.673l0.1542-0.1083C430.9268,238.8523,431.886,238.5742,433.084,238.1972L433.084,238.1972z
		 M39.8823,216.0754c1.4426,0.0692,2.8922,0.1601,4.3489,0.2698c0.6528,0.0221,1.2991,0.0403,1.9298,0.057
		c2.5177,0.0669,4.7812,0.127,6.1863,0.4643c1.0057,0.0912,2.0239,0.1899,3.0713,0.2908c4.0235,0.3878,8.4736,0.8172,12.7332,0.9306
		l0.0284,0.002c26.8977,3.8177,54.3172,5.9627,81.8368,8.1153c6.732,0.5264,13.4708,1.0537,20.1725,1.6028l0.1216,0.0479
		l0.002-0.0029c0.1698,0.1111,2.9166,0.703,5.847,1.0817c2.9021,0.3747,5.9457,0.5349,6.6938-0.2132
		c0.0264-0.0264,0.0493-0.0539,0.0672-0.0813l0.0876-0.1341l0.1573,0.0238c16.9756,2.5438,34.5172,3.3937,52.183,4.2492
		c9.8294,0.4756,19.6979,0.9538,29.5061,1.7237c4.3586,0.0003,8.7129,0.226,13.1445,0.4553
		c3.0847,0.1596,6.2082,0.3214,9.3872,0.4096c1.8924-0.0454,10.4247-0.0326,17.1136,0.4068
		c3.8033,0.2495,7.0276,0.6423,8.1499,1.2484c16.2397-0.0008,32.6288-0.2701,49.0328-0.7189h0.0009
		c16.4347-0.4493,32.9148-1.0794,49.2919-1.7989c4.7175-1.0822,10.5999-1.1296,16.6485-1.1783
		c8.0161-0.0644,16.3284-0.1313,22.5329-2.6212l0.034-0.0108c2.6224-0.633,16.187-5.199,26.1516-9.5913
		c5.8048-2.5583,10.3672-5.0329,10.745-6.5702l0.0272-0.1114l0.1035-0.0516c0.4405-0.2202,0.9706-0.4694,1.5474-0.7404
		c1.8172-0.8538,4.1119-1.933,5.5859-3.0493v-0.735c-1.4412-0.1261-4.2341,0.4434-7.0504,1.1642l-0.0002-0.0009
		c-2.9696,0.7602-5.9783,1.6974-7.4563,2.166l-0.0224,0.006c-12.606,2.7337-24.9933,3.6896-37.3164,4.6403
		c-5.2226,0.4028-10.4341,0.8054-15.6308,1.3397l-0.0158,0.0009c-0.7662,0.0317-2.0333,0.0462-3.5496,0.0632
		c-5.2361,0.059-13.4912,0.1522-14.4275,1.0885l-0.0901,0.0898l-0.1265-0.0204c-4.1346-0.6729-9.4263-0.2769-14.1491,0.0763
		c-2.2601,0.1692-4.3911,0.3285-6.2246,0.3566c-0.0984,0.1014-0.1879,0.2078-0.2302,0.335l-0.0575,0.1721h-0.1786
		c-6.1115,0-11.5645,0.0156-16.9957,0.0309c-18.1775,0.0519-36.0536,0.1027-54.1361-0.3917
		c-26.6589,1.146-53.2159-0.4768-79.626-2.0912c-20.0347-1.2243-39.9858-2.444-59.8422-2.444l-0.0918-0.0187
		c-4.426-1.7569-11.4199-1.508-18.2974-1.2637c-7.6507,0.2719-15.1597,0.538-18.9887-1.9641
		c-5.0613-0.4275-10.2223-0.7957-15.4284-1.1673c-15.0061-1.071-30.386-2.1694-44.2769-4.7322
		c-8.384-0.5397-16.8446-1.2778-25.2063-2.1059c-8.2599-0.8177-16.3956-1.7214-24.268-2.6073
		c0.6225,2.6966,1.2473,5.3943,1.9346,8.0756l0.0009,0.1202c-0.6684,2.725,1.2396,4.0878,4.1227,4.7948
		C37.6897,215.7944,38.7607,215.958,39.8823,216.0754L39.8823,216.0754z M420.84,269.7448v-0.504v-0.25h0.25
		c0.2316,0,0.5582,0.0258,0.9335,0.0555c1.1185,0.0884,2.7031,0.214,3.3958-0.2313l0.233-0.15l0.1241,0.2484
		c0.0791,0.1585,0.1548,0.3844,0.2296,0.6094l0.1091,0.328h-0.3452c-0.8105,0-1.5959,0.0178-2.359,0.0439
		c-0.7704,0.0264-1.5489,0.0629-2.3094,0.0989l-0.2617,0.0122V269.7448L420.84,269.7448z M263.285,229.9286
		c-0.7892-0.4581-3.2683-0.7713-6.2476-0.9839c-5.1199-0.3657-11.6617-0.4229-13.7874-0.4229h-0.1043l-0.0723-0.0723
		c-0.9777-0.9776-3.5076-0.8691-5.8975-0.7668c-1.925,0.0822-3.7647,0.1613-4.7654-0.3393l-0.1199-0.0601l-0.0167-0.1321
		c-0.216-1.73-0.3609-3.39-0.5049-5.0488l-0.0099-0.1159l0.0822-0.0822c0.1571-0.157,0.3149-0.3149,0.4972-0.4059l0.1179-0.059
		l0.1145,0.0638c2.7522,1.529,7.6771,1.317,12.7321,1.0996c5.4652-0.235,11.0815-0.4763,14.4303,1.4607
		c0.6814-0.0029,1.3283-0.0519,1.959-0.0995c1.705-0.1292,3.2969-0.25,5.4745,0.5468l0.1724,0.0629l-0.0085,0.182
		c-0.0706,1.5587-0.0709,3.1504-0.0709,4.7412v0.235l-0.2353,0.0139c-1.2238,0.0717-2.4483,0.1443-3.6,0.216L263.285,229.9286
		L263.285,229.9286z M264.28,227.1971c0.1332,0.5335,0.237,0.894,0.2775,0.9686c0.1346-0.0009,0.3209-0.0063,0.5108-0.0468
		c0.1786-0.0382,0.3688-0.1091,0.5292-0.2361c-0.1063-0.9922-0.3027-1.6172-0.6176-2.0109
		c-0.2549-0.3186-0.6038-0.4946-1.0616-0.6021C264.0175,225.9947,264.1479,226.6685,264.28,227.1971L264.28,227.1971z
		 M260.3914,227.6611l0.9034,0.3611c1.0508-0.0068,1.3666-0.2659,1.3666-0.6443h0.0011c0-0.3288-0.1859-0.775-0.3784-1.2367
		c-0.0958-0.2302-0.1931-0.4651-0.2735-0.6987c-0.6361,0.0581-1.2685,0.1204-1.8598,0.2253
		C260.2119,226.3342,260.2783,227.0012,260.3914,227.6611L260.3914,227.6611z M256.0737,227.4046
		c0.4533,0.0635,0.9556,0.1341,1.4598,0.2577c0.1712-0.0003,0.4153-0.0023,0.6548-0.0482c0.2044-0.0395,0.4142-0.1128,0.5797-0.2444
		c-0.0003-0.8938-0.0114-0.9788-0.3016-2.027l-0.0272-0.0017c-0.9743-0.0609-1.899-0.1196-2.8279-0.1292
		c0.0547,0.8983,0.0862,1.0318,0.4329,2.1886L256.0737,227.4046L256.0737,227.4046z M251.9833,225.8793
		c-0.0584,0.902-0.0853,1.3192,1.9366,1.5675h0.4706c0.0904-2.0103-0.4618-2.3961-1.3453-2.4533
		c-0.2503-0.0159-0.5227-0.0111-0.8116-0.0057l-0.2239,0.0028C252.0198,225.3248,252,225.6193,251.9833,225.8793L251.9833,225.8793z
		 M247.7444,226.688c0.5782,0.1284,1.1653,0.258,1.8663,0.3986c0.5899,0,0.7226-0.0014,0.8546-0.0788
		c-0.1196-0.6585-0.2404-1.3176-0.3708-1.9777c-0.9839-0.1843-1.9687-0.3665-2.9614-0.5012
		C247.1862,225.0227,247.2721,225.6602,247.7444,226.688L247.7444,226.688z M428.9162,227.5681
		c-1.6945-0.6902-1.4573-1.7487-1.2251-2.7834h0.0002c0.0593-0.2644,0.1185-0.5289,0.1339-0.7747l0.0125-0.2036l0.2013-0.0286
		c1.6087-0.2296,3.2332-0.3914,4.854-0.5525l1.2305-0.1236c1.9735-0.2015,3.9398-0.4297,5.8731-0.8095
		c0.2534-0.5454,0.3078-0.5437,0.6554-0.5355c0.106,0.0023,0.265,0.006,0.5386-0.0621l0.182-0.0456l0.0941,0.1647
		c0.2047,0.3586,0.2758,1.1163,0.3382,1.7867c0.0354,0.3832,0.0686,0.737,0.1193,0.9399l0.038,0.152l-0.1219,0.1006
		c-3.5912,2.9611-6.8893,2.8961-10.8391,2.8185c-0.6176-0.0121-1.2529-0.0246-1.991-0.0246L428.9162,227.5681L428.9162,227.5681z
		 M240.1308,224.6136c0.0071,0.5326,0.0153,1.1092,1.0162,1.9443c0.3983-0.1052,0.794-0.1695,1.1889-0.2271
		c-0.0482-0.6993-0.0545-1.389-0.0553-2.0367c-0.731,0.0567-1.4423,0.1157-2.1512,0.1749
		C240.1308,224.5169,240.1302,224.5654,240.1308,224.6136L240.1308,224.6136z M244.0621,226.3031
		c0.0876,0.0088,0.1854,0.0269,0.3036,0.0635c1.0948,0,1.2858-0.0017,1.4423-0.0947c-0.0009-0.7364-0.019-0.8294-0.3646-1.9261
		c-0.2018-0.0017-0.4158-0.0056-0.6052-0.009c-0.5956-0.0114-0.8702-0.0168-0.9185,0.049
		c-0.0479,0.0652-0.0201,0.3047,0.0315,0.7469C243.9862,225.4311,244.0307,225.8112,244.0621,226.3031L244.0621,226.3031z
		 M233.2678,223.8179c-0.0241,0.7115-0.0669,2.0012,0.6789,2.4044c0.8008,0,0.9088-0.0034,1.0613-0.1426
		c-0.0017-0.5681-0.0318-0.6837-0.58-2.4508c-0.4105,0.0107-0.7864,0.0573-1.1569,0.1088L233.2678,223.8179L233.2678,223.8179z
		 M236.2663,224.1986c-0.0672,0.474-0.1264,1.2126,0.4504,1.8609c0.6639-0.1142,1.3229-0.1808,1.9811-0.2412
		c-0.4051-1.8-0.5295-1.7867-1.3938-1.6942C237.0288,224.1536,236.6927,224.1893,236.2663,224.1986L236.2663,224.1986z
		 M199.1469,224.1989c-0.47-0.0757-1.2237-0.1304-2.1064-0.1936c-3.2896-0.2364-8.3285-0.5995-8.3285-2.8605v-0.1032l0.0734-0.0734
		c1.7-1.7,9.2004-0.9278,13.4512-0.4901c0.491,0.0505,0.9451,0.0975,1.2929,0.1306l0.1678,0.0891
		c0.2302,0.2761,0.2599,0.8254,0.2007,1.4516c-0.0556,0.5839-0.1825,1.237-0.2911,1.7801l-0.0403,0.2013h-0.2047
		c-1.4442,0-2.8171,0.0003-4.1633,0.0709L199.1469,224.1989L199.1469,224.1989z M463.3285,223.2462
		c-0.4998-0.214-0.059-1.4576,0.371-2.461c0.0955-0.2228,0.1984-0.4533,0.2846-0.6469c0.1171-0.2634,0.1998-0.4181,0.1998-0.4334
		v-0.1562l0.1417-0.0683c1.2515-0.6041,4.3152-1.6172,7.0818-2.0982c1.9318-0.3359,3.7366-0.4124,4.7299,0.0842l0.2172,0.1086
		l-0.1021,0.2194c-0.0805,0.1729-0.1644,0.3702-0.2593,0.5938h-0.0004c-0.5958,1.4054-1.6115,3.7987-3.0628,3.7987h-0.1032
		l-0.0734-0.0734c-0.715-0.7149-3.8359,0.011-6.3153,0.5879c-1.2994,0.3025-2.4301,0.5655-3.0121,0.5655L463.3285,223.2462
		L463.3285,223.2462z M153.3566,221.2965c-1.3073-0.6415-2.6918-0.6228-3.922-0.6063c-2.4131,0.0323-4.2826,0.0573-4.2826-4.2253
		v-0.1562l0.1406-0.0683c1.525-0.7438,3.8948-0.766,6.3658-0.4825c2.4398,0.2801,4.9898,0.8589,6.9063,1.3289l0.1647,0.0403
		l0.0235,0.1667c0.2189,1.5319,0.2189,1.5321,0.146,3.572l-0.0082,0.2304l-0.231,0.0096l-5.184,0.216l-0.0097-0.2489
		L153.3566,221.2965L153.3566,221.2965z M112.2494,216.5694c-0.51-0.5099-3.3857-0.4666-6.1424-0.4246
		c-2.0543,0.0309-4.0448,0.0612-5.0377-0.1559l-0.1582-0.0349l-0.0332-0.1584c-0.1446-0.6945-0.3161-1.2674-0.4663-1.7711
		c-0.2236-0.7487-0.4036-1.3521-0.4036-2.0237v-0.1556l0.1417-0.0688c2.0373-0.991,6.4395-0.254,10.1871,0.3739
		c1.3125,0.2197,2.5444,0.4263,3.5564,0.5386l0.1446,0.0159l0.0575,0.1346c0.2662,0.6216-0.5457,1.0789-0.9147,1.2608
		c0.0003,0.7396,0.0042,1.4789,0.0694,2.1983l0.0249,0.2724h-0.273c-0.1876,0-0.3759,0.0003-0.4646,0.0445l-0.1613,0.0805
		L112.2494,216.5694L112.2494,216.5694z M301.4416,213.9803c8.8538,0.4232,20.1286,0.961,21.4195,1.4437
		c3.1595,0,6.3235,0.0023,9.4907,0.0043c34.2661,0.0221,68.959,0.0448,103.4793-2.5242c4.6536-0.4984,9.2942-1.1342,13.9583-1.7725
		c7.4855-1.0245,15.0344-2.058,22.7455-2.5464c7.9081-1.5823,15.8106-3.8656,23.6495-6.1296
		c2.5061-0.7239,5.0071-1.4468,7.4922-2.1418c0.4594-0.2665,1.95-0.8952,3.3676-1.4326c1.3427-0.5094,2.6433-0.9541,2.9659-0.9541
		h0.1031l0.0734,0.0734c0.5695,0.5695,6.4329-0.9011,12.5096-2.8009c6.0928-1.9049,12.3562-4.2593,13.7506-5.4615
		c-0.0298-0.1554-0.0405-0.2894-0.0448-0.4159c-0.8778-0.1179-1.7087-0.1842-2.5372-0.248c-0.26,0.2605-0.5183,0.5261-0.7645,0.8339
		l-0.1085,0.1355l-0.1637-0.0544c-0.1947-0.0649-0.3903-0.1301-0.498-0.1301h-0.4985l0.2997-0.3994
		c0.5337-0.7118,0.5322-0.9875,0.5272-1.3626c-1.2574-0.7191-3.4152-1.3419-5.7632-1.844
		c-3.4291-0.7339-7.2512-1.2064-9.2976-1.3507c-1.2198,3.4438-2.4385,6.8873-3.6083,10.2597l-0.131,0.3764l-0.2809-0.2809
		c-0.8143-0.8144,0.3124-4.0482,1.2966-6.8728c0.5581-1.6024,1.069-3.0694,1.1406-3.8004
		c-2.8425-1.2186-9.3461-3.3922-14.6557-4.4442c-3.4994-0.6928-6.4539-0.9071-7.4067-0.0394
		c-0.1774,0.5176-0.4484,1.3771-0.7857,2.4446c-1.9219,6.0849-6.0032,19.0032-9.3447,20.3269l-0.4518,0.1789l0.1179-0.4706
		c0.7834-3.1337,2.3976-6.4406,4.0266-9.7784c2.0726-4.2466,4.17-8.5459,4.5768-12.5417
		c-4.7503,0.8042-9.5692,1.6447-14.3907,2.4852c-10.0261,1.7475-20.0656,3.4974-29.8785,4.9915
		c-0.2495,4.0623-0.2188,8.3001-0.188,12.6391c0.0204,2.8318,0.0409,5.7079-0.0153,8.6046l-0.0068,0.3388l-0.32-0.1066
		c-0.1741-0.0578-0.3722-0.0581-0.57-0.0581h-0.1548l-0.0688-0.1397c-1.472-2.9866-1.05-7.8772-0.6531-12.4736
		c0.2835-3.2854,0.5539-6.42,0.106-8.5363c-3.6456,0.3532-7.058,0.6718-10.3875,0.9434c-3.4101,0.278-6.7754,0.5122-10.2779,0.6928
		c-8.9577,0.8816-11.3102,2.6827-11.0985,4.8367c0.137,1.3918,1.3196,2.9827,2.5002,4.5698
		c1.6364,2.2005,3.2701,4.3979,2.321,6.2963l-0.0555,0.1108l-0.1222,0.0227c-1.6277,0.2997-3.9379-1.5987-6.1906-3.4495
		c-1.6285-1.3386-3.2281-2.6527-4.4294-3.0314c-0.0513,0.9703,0.0162,2.9928,0.0867,5.1438
		c0.1108,3.3639,0.2319,7.0418-0.089,7.6835l-0.0896,0.1789l-0.1933-0.0482c-0.256-0.0638-0.5301-0.0641-0.8036-0.0641h-0.1559
		l-0.0686-0.1417c-0.9901-2.0384-0.792-7.8539-0.6642-11.6158c0.0317-0.9369,0.0592-1.745,0.0621-2.3558
		c-7.0716-6.9863-18.8805-6.4092-28.8802-5.9196c-2.3434,0.1145-4.589,0.2242-6.6626,0.2313
		c-0.5513,3.0041-0.3722,6.2838-0.1907,9.608c0.1924,3.5285,0.3878,7.1078-0.275,10.4956l-0.0306,0.1556l-0.1539,0.0385
		c-0.2883,0.072-0.5774,0.1446-0.7744,0.21L369,212.7061v-0.3452c0-0.4898,0.0581-1.1775,0.1245-1.961
		c0.1698-2.0134,0.3951-4.6808-0.1913-6.1478c-0.3492-0.8728-1.0239-1.296-2.2544-0.8039l-0.0927,0.0187
		c-4.9496,0-9.7492-0.1862-14.476-0.3693c-4.5516-0.1761-9.0363-0.3504-13.5896-0.3506c-2.6867,0.3342-3.022,1.7388-2.814,3.4375
		c0.0652,0.5358,0.1794,1.0911,0.2942,1.6515c0.4729,2.3051,0.9652,4.7095-1.5593,5.9715l-0.1615,0.0805l-0.1264-0.1264
		c-0.1982-0.1982-0.4045-0.3359-0.61-0.4728l-0.1114-0.0743v-0.1335c0-0.7362,0.0655-1.758,0.1363-2.8704
		c0.1894-2.9613,0.421-6.5919-0.3804-7.1036c-7.1229-0.0011-14.2628-0.1978-21.1592-0.3872
		c-2.4443-0.0672-4.8591-0.1338-7.2247-0.1899l-0.2559-0.0062l0.013-0.2543c0.1221-2.4046,1.4978-4.3103,2.8355-6.1637
		c1.0023-1.3889,1.9834-2.7496,2.3593-4.2403c-0.4325-0.0122-0.8549-0.0284-1.2744-0.0448
		c-2.4548-0.0961-4.7993-0.1888-6.6982,0.6301c-0.8198,3.4614-0.8309,7.7508-0.8419,12.0215
		c-0.0065,2.6115-0.0136,5.218-0.2024,7.6204l-0.0252,0.3169l-0.3016-0.1003c-0.1741-0.0578-0.3722-0.0581-0.57-0.0581h-0.2501
		v-0.25c0-2.6793,0.167-5.4394,0.3303-8.1434c0.2486-4.1153,0.4895-8.1025,0.1165-11.5138
		c-0.8158-0.3368-8.8903-1.0505-16.6833-1.5318c-6.3108-0.3901-12.4149-0.6132-14.3235-0.3393
		c-0.2801,2.0548-0.3283,4.9255-0.3782,7.9327c-0.0825,4.9958-0.1721,10.3705-1.3425,13.117l-0.0649,0.1526h-0.1645h-0.792h-0.2367
		l-0.0122-0.2384c-0.1732-3.462,0.2474-7.0747,0.655-10.5763c0.4352-3.7409,0.8567-7.3562,0.5165-10.4876
		c-5.036-1.6328-7.0396-0.7849-7.6981,1.2095c-0.5369,1.6271-0.2373,4.0306,0.07,6.4959c0.4224,3.3908,0.8597,6.8976-0.8073,8.898
		l-0.0757,0.091h-0.1157c-2.8471,0-5.6727-0.3895-8.4234-0.7685c-2.1226-0.2922-4.2015-0.5791-6.2033-0.6727l-0.0987-0.0252
		c-3.5232-1.7317-2.7218-8.1817-2.1671-12.6471c0.1344-1.082,0.2542-2.0469,0.2931-2.7766
		c-0.6378-0.3575-1.6143-0.4938-2.6391-0.5043c-1.531-0.0156-3.1498,0.2509-3.9543,0.4913
		c-0.2517,1.0647-0.3643,4.062-0.4873,7.3797c-0.2007,5.4107-0.4331,11.662-1.4845,12.1626l-0.1593,0.0757l-0.1247-0.1244
		c-0.675-0.6749,0.1627-13.2183,0.4705-17.8294c0.0499-0.7486,0.0865-1.2852,0.0992-1.5211
		c-0.7506-0.3965-5.3351-0.794-11.1612-1.1469c-11.0089-0.667-26.35-1.1285-28.98-1.1744l-0.1726-0.0723
		c-0.5547-0.5547-9.2217-1.0836-13.6185-1.3518c-1.1911-0.0726-2.0721-0.1273-2.4069-0.1591
		c-7.1935,0.3824-14.5397-0.0312-21.7264-0.4356c-3.5626-0.2004-7.0872-0.3994-10.5177-0.4969
		c-1.2166,2.5481-1.2002,5.6832-1.1823,8.9342c0.0181,3.2769,0.0366,6.6725-1.1871,9.7685l-0.0423,0.1068L142.6,204.317
		c-3.7213,1.2404-33.1013-1.7493-44.818-2.9418c-2.0837-0.2117-3.6127-0.3677-4.3135-0.4303l-0.0204-0.002
		c-1.7456-0.3008-3.3945-0.4252-4.9516-0.5423c-2.1577-0.1621-4.1434-0.3121-6.0018-0.8991
		c-5.4621-0.7588-10.9063-1.3173-16.3111-1.8714c-7.9013-0.8099-15.7218-1.6118-23.4264-3.0243l-0.1834-0.0338l-0.0198-0.1857
		c-0.1545-1.468-0.1352-3.6822-0.1143-6.063c0.0366-4.1961,0.0785-8.9195-0.8178-10.8828
		c-2.2561-0.5105-4.5442-0.7367-6.6949-0.9499c-1.2645-0.1253-2.4823-0.2466-3.6258-0.4178c-0.0065,0.441,0.049,1.04,0.11,1.6874
		c0.1553,1.6461,0.3404,3.6-0.3827,4.4563c0.0349,1.9913,0.0516,4.2077,0.0252,6.4763c-0.0264,2.2674-0.0961,4.5828-0.2341,6.7731
		c0.7106,0.5321,0.7398,0.5392,1.3751,0.6659l0.1573,0.1043c0.3333,0.4875,5.4227,0.8322,11.6019,1.2509
		c8.2687,0.5601,18.4652,1.2509,22.2112,2.8105c8.8741-1.0236,18.5392,0.5111,28.2736,2.0576
		c7.1895,1.1421,14.4187,2.2907,21.3752,2.4126l0.1511,0.0536c2.7247,2.1705,14.7574,2.3737,24.4355,2.5365
		c5.0667,0.0853,9.4921,0.1601,11.641,0.5049c7.8265,0.0011,15.8176,0.7741,23.8873,1.5542
		c10.8374,1.0483,21.8183,2.1101,32.7436,1.3269h0.0235c10.8768,0.2594,21.7757,0.7384,32.7223,1.2189
		c16.3888,0.7194,32.887,1.4439,49.5677,1.4439l0.0272,0.002C292.1723,213.5375,296.4155,213.7405,301.4416,213.9803
		L301.4416,213.9803z M82.9896,215.1949c-1.103-0.2758-2.1983-0.4765-3.2644-0.6713c-1.745-0.3192-3.4169-0.6253-4.9019-1.2104
		l-0.1327-0.0524L74.668,213.12c-0.1576-0.9862-0.4745-1.7349-0.7452-2.3752c-0.2206-0.5216-0.4127-0.9754-0.4796-1.4449
		l-0.0383-0.2693l0.2724-0.0147c0.1681-0.0091,0.3954-0.0235,0.6545-0.0399c0.9445-0.0596,2.2963-0.1451,3.7344-0.1451
		c3.7627,0,8.1859,0.584,8.1859,3.674v0.1032l-0.0734,0.0734c-0.3538,0.3538-0.3334,0.5215-0.3056,0.7551
		c0.0326,0.2696,0.072,0.6006-0.1417,1.171l-0.0507,0.1355l-0.1414,0.0238c-0.9045,0.1505-1.6753,0.2912-2.4452,0.4309
		L82.9896,215.1949L82.9896,215.1949z M65.7553,211.3857c-0.4272-0.0258-1.0842-0.0289-1.8728-0.0318
		c-2.1634-0.0085-5.3107-0.0213-7.4285-0.5099c-1.4868-0.3427-2.4905-0.9297-2.4092-1.9182
		c-0.9799-0.3977-0.7909-1.1052-0.7061-1.4207h0.0003c0.0071-0.0272,0.013-0.0309,0.013-0.0402v-0.1993l0.1953-0.0436
		c2.3531-0.5281,4.8421-0.3643,7.4863-0.1899c1.3649,0.0898,2.7726,0.1829,4.2324,0.1829h0.161l0.0663,0.1494
		c0.2911,0.6554,0.6375,1.4394,0.8728,2.1268c0.2529,0.7399,0.3818,1.3984,0.2024,1.7572l-0.0692,0.1386H66.346H65.77v-0.25
		L65.7553,211.3857L65.7553,211.3857z M102.7862,199.1296c15.3068,1.1815,34.755,2.6204,37.133,2.7567l0.0184-0.0026v0.0003
		c1.535-0.2455,2.0968-2.8726,2.2136-5.9267c0.1207-3.1508-0.2466-6.7431-0.5125-8.7582c-0.0496-0.3764-0.0952-0.6979-0.1338-0.9501
		c-1.7209-0.7829-6.19-1.26-11.0271-1.5126c-7.4523-0.3889-15.7201-0.2664-16.1657,0.0978l-0.2078,0.1701l-0.1545-0.2208
		c-1.7853-2.5563-6.5146-2.4384-10.9803-2.327c-3.1711,0.0793-6.2132,0.155-8.0841-0.7291
		c-9.3433,0.9068-19.4857-0.2248-29.4846-1.3405c-7.1881-0.8022-14.3028-1.5965-20.9849-1.6158
		c-0.0011,0.6953,0.0655,1.815,0.1417,3.0739c0.1865,3.0844,0.4227,6.997-0.2092,7.9214c0.0034,0.9927,0.066,1.9783,0.1312,2.9633
		c1.408,0.4042,2.9826,0.5976,4.5796,0.792h0.0011c1.8507,0.2256,3.7318,0.4555,5.4556,1.0256
		c3.1408,0.326,6.2983,0.7242,9.4669,1.1234c6.5384,0.8243,13.1298,1.6551,20.0117,1.8972l0.1287,0.0042l0.0703,0.106
		C84.2017,197.6902,92.5503,198.3393,102.7862,199.1296L102.7862,199.1296z M413.471,199.4167
		c0.8022,0.4448,1.5179,0.8873,1.9812,1.2668c-0.0388-0.0735-0.0847-0.1539-0.1383-0.2424
		c-0.226-0.3725-0.5723-0.8376-0.9944-1.3467c-1.6688-2.0117-4.4728-4.6649-5.7234-5.0199
		c0.0005,1.0035,0.0051,2.0064,0.0609,2.9942C409.3384,197.3548,411.6438,198.4033,413.471,199.4167L413.471,199.4167z
		 M366.2719,195.2419c0.8629,0.9677,1.7739,1.9899,2.3485,3.1235c0.0326-0.0201,0.0646-0.0388,0.0972-0.0562
		c0.0681-2.0367,0.1372-4.0737,0.2668-6.0951c-1.6325-0.1247-3.2499-0.1927-4.8665-0.2577
		C364.2625,192.9877,365.2308,194.0743,366.2719,195.2419L366.2719,195.2419z M402.654,193.1261
		c1.1571,0.65,2.3658,1.4304,3.6086,2.2807h0.2208c0.2401-1.2679,0.2407-1.4028,0.1763-3.7298
		c-1.624-1.2289-3.8758-0.798-5.7702-0.436c-0.5071,0.0969-0.991,0.1885-1.4375,0.2451v0.1727
		C400.464,191.9911,401.5366,192.499,402.654,193.1261L402.654,193.1261z M410.4882,191.8426
		c0.3481,0.4558,0.7925,0.9536,1.199,1.3958c0.4785-0.0698,1.2609-0.5961,1.9281-1.2357c0.5593-0.536,1.0256-1.1412,1.1461-1.6038
		c-0.9176-0.1117-1.8558-0.1177-2.7099-0.0269c-0.8266,0.0881-1.5718,0.267-2.1356,0.5301
		C409.9864,191.1353,410.205,191.4715,410.4882,191.8426L410.4882,191.8426z M502.9353,191.9848
		c0.0281-0.263,0.256-0.9107,0.5834-1.6883c0.366-0.8688,0.8506-1.944,1.2906-2.8242c0.4578-0.9156,0.8864-1.6381,1.1293-1.7592
		l0.1114-0.0264c1.8287,0,1.8289,0.0003,3.3004,0.368l0.1726,0.0431l0.0159,0.1775c0.1265,1.436,0.4326,2.2158,0.7786,3.0979
		c0.2371,0.6041,0.493,1.2566,0.7266,2.1912l0.0482,0.1933l-0.1789,0.0896c-0.1052,0.0524-0.1644,0.1117-0.2228,0.1701
		l-0.1965,0.1961l-0.1743-0.2166c-0.7693-0.9558-1.1378-1.6495-1.4003-2.1438c-0.4793-0.9026-0.5522-1.0381-2.7173-0.8702
		c-0.2401,0.4119-0.8343,1.2537-1.4252,1.9998c-0.5082,0.6421-1.0228,1.2243-1.3252,1.4258l-0.1701,0.1131l-0.1443-0.1443
		c-0.1086-0.1086-0.2175-0.2174-0.2175-0.3926H502.9353L502.9353,191.9848z M297.7161,189.0329
		c0,0.0779,0.0119,0.1584,0.0309,0.2406c0.5712-0.4164,0.8711-0.5887,2.0676-0.1306c5.451-0.0012,11.0798-0.2291,16.7706-0.459
		c5.8643-0.237,11.795-0.4771,17.6009-0.4771h0.1531l0.0695,0.1386c0.1247,0.2495,0.2495,0.4983,0.4232,0.7974
		c1.0261,0.006,2.0599,0.0751,3.0934,0.1437c9.9286-0.8564,20.0089-0.8082,30.1946-0.7597
		c5.9712,0.0286,11.9798,0.0564,18.0193-0.0973c0.0031-0.0765,0.0094-0.1539,0.0219-0.2327
		c-1.1373-0.3342-2.2757-0.6647-3.4118-0.9326c-10.6514-0.5394-21.1008-0.989-31.479-1.3036
		c-10.3947-0.3146-20.7249-0.4949-31.1242-0.4949h-0.1125l-0.074-0.0839c-1.6126-1.8278-3.2454-3.5861-4.8518-5.2288
		c-1.6055-1.6415-3.1821-3.1654-4.6845-4.5255c-2.9526-1.6891-5.2055-5.1679-7.4035-8.5627
		c-2.545-3.9296-5.0162-7.7459-8.3364-8.3871l-0.1202-0.0595c-2.2722-2.0503-4.0708-3.7999-5.584-5.2716
		c-6.7048-6.5216-7.74-7.5265-20.8854-5.9122c-0.0496,0.0819-0.0975,0.1715-0.1392,0.2628l0.0003,0.0002l-0.0202,0.0465
		c0.7699,0.006,1.6333,0.0303,2.5415,0.0552c1.882,0.0519,3.9612,0.1094,6.0991,0.0168l0.2608-0.0114v0.2603v0.5596
		c1.468,0.771,8.5144,6.4298,13.9969,11.4205c3.8648,3.5187,6.9749,6.7386,6.8811,7.7704l-0.021,0.2276h-0.2271
		c-2.2606,0-3.9518-0.0422-5.3597-0.0771c-1.6682-0.0414-2.9339-0.0732-4.4184-0.0099c0.0368,0.1151,0.0859,0.212,0.1279,0.2965
		l-0.0009,0.0006c0.1678,0.3354,0.2769,0.5553-0.1083,0.9405l-0.0833,0.0831l-0.1177-0.0116
		c-0.7775-0.0777-0.7985-0.0808-1.3192-0.5264c-3.407-0.9482-7.1087-0.9853-10.696-1.0208
		c-3.6522-0.036-7.1878-0.0714-10.2135-1.0556l-0.1469-0.0479l-0.0229-0.1534c-0.4686-3.1368-0.8294-6.2226-0.9561-9.2424
		c-0.1264-3.0217-0.0176-5.9726,0.453-8.8336l0.0346-0.2101h0.2115c0.2914,0,1.0712-0.1032,1.7124-0.3563h0.0011
		c0.2107-0.083,0.4042-0.1814,0.5514-0.294c-1.5083-0.1749-3.4222,0.1174-5.2333,0.3929c-1.222,0.186-2.399,0.3645-3.3931,0.3929
		c0.3158,6.1798,0.51,12.5586,0.6254,19.0287c0.1171,6.5526,0.1536,13.1364,0.1542,19.6779
		c0.6962,0.2135,5.9454,0.5346,12.3675,0.847c9.9947,0.4864,22.7852,0.9189,25.8304,0.9189h0.2501V189.0329L297.7161,189.0329z
		 M389.6964,186.5667c1.8263,0.9079,3.7346,1.8567,6.1985,2.0007c1.76-0.07,3.5206-0.1406,5.2506-0.1445l0.0045-0.0063
		c-2.4298-1.9372-5.9278-3.039-9.1718-4.0609c-2.0251-0.6375-3.9529-1.245-5.4876-2.0123l-0.1386-0.0695v-0.1531
		c0-2.751,7.8449-11.2107,14.4536-16.8006c1.9006-1.6078,3.7018-2.9824,5.1848-3.918c1.5282-0.9641,2.7477-1.4692,3.4393-1.3026
		h0.0011c0.2287,0.0553,0.4065,0.1747,0.5269,0.3637l0.2444,0.0975c1.4281,0.5661,7.1926,2.8505,8.6422,2.9081
		c-2.9457-2.158-6.3221-3.5223-9.773-4.3529c-3.5685-0.8589-7.2229-1.1477-10.5673-1.1531
		c-4.068,3.6972-29.4962,1.0842-42.8817-0.2917c-2.8448-0.2926-5.144-0.5292-6.5741-0.637
		c-1.3122,1.451-2.6348,2.9339-3.9739,4.4526c-1.3479,1.5287-2.6736,3.051-3.9855,4.5754c-1.3303,2.6238-5.3773,5.8836-9.299,9.0423
		c-3.9345,3.1688-7.7426,6.2345-8.4382,8.3327c13.1604-0.7098,26.8098,0.0632,40.5414,0.8408
		c7.6703,0.4345,15.3677,0.8708,23.0028,1.0499l0.078,0.0147C387.9105,185.6786,388.7941,186.1183,389.6964,186.5667
		L389.6964,186.5667z M413.6208,181.491c-2.295,2.2748-5.4052,5.3569-5.8949,6.6064c1.0808-0.2336,2.6878-1.5607,4.1751-3.1374
		c0.7948-1.2115,1.7779-2.3893,2.8383-3.5663c0.1497-0.2342,0.2852-0.4583,0.4023-0.6707c0.3001-0.5445,0.4796-0.9898,0.493-1.2682
		C415.1679,179.9557,414.4465,180.6726,413.6208,181.491L413.6208,181.491z M415.1364,181.6973
		c-0.3373,0.5236-0.7449,1.0911-1.1993,1.6668l0.0005,0.0002c-0.4975,0.631-1.0514,1.2728-1.6274,1.8817
		c-0.5425,0.83-0.9933,1.6727-1.3124,2.5384c1.05,0.0284,4.1618,0.074,4.4657-0.5839l0.0573-0.1247l0.1369-0.0179
		c2.5407-0.3362,4.3682-2.0582,5.9874-3.5838c1.3924-1.3121,2.6382-2.4865,4.1035-2.6022c0.0873-2.0908-0.4518-5.2262-0.9026-7.8437
		c-0.233-1.3533-0.4433-2.5705-0.532-3.445c-0.1077-0.0176-0.2064-0.024-0.3016-0.0269c-1.1628,3.899-4.1749,7.1087-7.0767,10.2005
		C416.325,180.4076,415.7184,181.0525,415.1364,181.6973L415.1364,181.6973z M506.5351,187.427
		c0.0793,0.0099,0.1672,0.0281,0.2712,0.0601l0.1296,0.0071c0.235,0.0127,0.6185,0.0326,0.866-0.1105
		c-0.5525-0.2551-0.6976-0.2404-0.9525-0.2146c-0.076,0.0076-0.1604,0.015-0.2576,0.0201
		C506.5688,187.2649,506.5489,187.3431,506.5351,187.427L506.5351,187.427z M422.9189,186.421
		c-0.0442,0.0958-0.0717,0.1664-0.0754,0.2012c1.9185-0.0025,3.9337-0.0731,6.0449-0.1961
		c2.1609-0.1262,4.4258-0.3061,6.7952-0.5213l0.0224-0.002c5.7802,0,11.6895-0.9759,17.6343-1.9579
		c6.0193-0.9941,12.0762-1.9948,18.0825-2.0021c2.11-1.241,4.2-1.436,5.892-1.5939c0.9048-0.0844,1.6929-0.1584,2.2785-0.3773
		c1.4763-0.5525,1.7441-2.1776-0.3679-7.8565c-1.3912-0.2659-2.7422-0.5972-4.0433-0.917c-1.7731-0.4354-3.4551-0.8492-5.0012-1.036
		c0.0332,0.6021-0.0343,1.3938-0.2259,2.1742c-0.1857,0.756-0.4893,1.5106-0.931,2.088l-0.1658,0.0956
		c-1.7184,0.229-2.2552-0.6696-2.4154-1.8726c-0.0683-0.5131-0.0621-1.0789-0.0561-1.6282
		c0.0076-0.6852,0.0139-1.3467-0.1279-1.7966c-3.2783-0.8961-6.2608-1.1273-9.1996-1.3553
		c-0.3906-0.0301-0.7806-0.0612-1.1511-0.0912c0.0655,1.834,0.1321,3.6737,0.1984,5.599h0.2633h0.2565l-0.0076,0.2568
		c-0.0712,2.357-0.1429,4.7146-0.1429,7.1212v0.3195l-0.3104-0.0774c-0.2559-0.0638-0.5281-0.064-0.7316-0.064h-0.1956
		l-0.0465-0.1914c-0.5465-2.2467-0.5369-3.1784-0.5185-4.9818c0.0028-0.2699,0.0051-0.5664,0.0059-1.0137
		c-2.0316-0.6041-7.4565-1.3329-12.4126-1.7377c-4.1049-0.3354-7.8693-0.4521-9.0663-0.0941
		c0.2673,0.7988,0.9513,1.6574,1.7096,2.609c1.3765,1.728,2.99,3.7531,2.99,6.4556v0.2404l-0.2421,0.0085
		c-10.2889,0.3498-10.5526,0.3586-11.4047,0.5539l-0.2172,0.2041v0.0011C425.2958,183.6768,423.3421,185.5037,422.9189,186.421
		L422.9189,186.421z M200.382,184.532c9.3606,0.3886,18.7537,0.779,28.0987,1.3703c0.5933-0.0703,1.292-0.1732,2.0506-0.2849
		c2.4021-0.3541,5.4059-0.7974,7.5603-0.5766l0.1743,0.0179l0.0422,0.1698c0.046,0.1845,0.1281,0.3779,0.2203,0.5938l0.0638,0.15
		c2.912-0.0618,3.1655-0.0711,3.7097-0.2288c0.1043-1.5511,0.3679-15.8987,0.1278-26.5592
		c-0.1295-5.737-0.3966-10.3796-0.8963-11.3026c-0.2903-0.004-0.5519-0.019-0.7798-0.0323
		c-0.7495-0.0439-1.0636-0.0632-1.2855,0.6134c0.0009,3.7528,0.121,7.4784,0.2432,11.2799
		c0.1287,4.0088,0.2607,8.1014,0.2607,12.2981v0.1531l-0.1386,0.0694c-0.8637,0.4317-3.6527,0.3659-6.6498,0.0859
		c-3.8412-0.3591-8.066-1.0684-8.981-1.5258l-0.1386-0.0695v-0.1531c0-0.9409-0.0003-6.5866-0.1519-12.0802
		c-0.146-5.29-0.4209-10.4941-0.9402-11.3544c-0.3464,0.0113-0.6781,0.0028-0.9859-0.0051c-0.87-0.0235-1.5437-0.0423-1.8133,0.4561
		c0.2234,9.1312,0.447,13.4858,0.6358,17.1652c0.1145,2.23,0.2166,4.2134,0.2985,6.8916l-0.0164,0.0966
		c-1.5644,4.0136-23.4867,1.4984-31.7962,0.5451c-0.9088-0.1043-1.6557-0.1902-2.1577-0.2429l-0.1511-0.0715
		c-1.7464-1.7464-1.5469-8.8619-1.3621-15.4539c0.1446-5.1579,0.2807-9.991-0.5017-11.5126
		c-1.4941-0.4289-2.1504-0.4615-3.1722-0.4641c0.4394,11.0359,0.7461,15.4539,0.8946,17.5992
		c0.0683,0.9898,0.1041,1.5013,0.1041,1.9508l-0.0031,0.0323c-0.0366,0.2758-0.1392,0.6854-0.2597,1.1693
		c-0.3645,1.461-0.9091,3.6434-0.2426,4.3098l0.1525,0.1522l-0.1301,0.1738c-0.9799,1.3068-8.3925,0.8459-15.1382,0.4266
		c-4.5377-0.2818-8.7701-0.5448-10.4349-0.2579l-0.2917,0.0501l-0.0003-0.2962v-0.3487c-0.9221-0.0799-1.8561-0.1372-2.7711-0.1939
		c-2.124-0.1316-4.1528-0.2574-5.8904-0.6546l-0.1032-0.0238l-0.055-0.0913c-0.2166-0.3608,5.845-7.3769,11.5906-14.0269
		c4.0448-4.6815,7.9325-9.1815,9.3401-10.9358c-0.9558-0.4314-3.0637-0.6327-5.4768-0.7027
		c-4.5337-0.1321-10.1027,0.2109-11.2944,0.3557c-0.4258,0.5094-1.3887,1.5199-2.5826,2.7734
		c-3.0146,3.1643-7.5192,7.8925-8.4637,9.8674c-0.1593,0.3331-0.2163,0.5423-0.1361,0.5806l0.1358,0.0646l0.0057,0.1511
		c0.231,6.0693,0.0913,12.6485-0.0473,19.179c-0.0323,1.5279-0.0641,3.0537-0.0913,4.5623l9.8306,0.2106l0.2452,0.0051v0.2438
		c0,0.133,0.0363,0.2741,0.0811,0.4179C167.0814,183.149,183.6814,183.8387,200.382,184.532L200.382,184.532z M122.7671,182.0435
		c5.0037,0.0558,10.9522,0.1224,14.6659,1.688c0.2438-0.0493,0.5153-0.059,0.792-0.0607c0.6783-2.6909,1.0678-7.1087,1.2294-11.6255
		c0.1998-5.5797,0.0516-11.3029-0.3305-14.1083c-0.4853-0.2585-0.8949-0.0284-1.2421,0.5045
		c-0.9859,1.5143-1.5123,5.2058-1.9023,7.9433c-0.237,1.6639-0.4258,2.9857-0.6656,3.3457l-0.0677,0.1018l-0.1216,0.0093
		c-0.5026,0.0378-1.0647,0.0658-1.6458,0.0941c-3.5714,0.1749-7.9194,0.3889-8.5677,3.8069l-0.023,0.1213l-0.1105,0.0553
		c-0.593,0.2965-2.666,2.4001-4.4592,4.4373c-1.311,1.489-2.4627,2.9211-2.7493,3.538
		C119.0387,182.0009,120.8316,182.0216,122.7671,182.0435L122.7671,182.0435z M313.4585,176.7279
		c2.4863,2.2465,4.8778,4.407,5.8796,5.923c1.2725-0.2092,4.9252-3.2873,9.1978-7.2853
		c7.1374-6.6787,15.9409-15.9063,18.4124-18.7316c-0.7007-1.6293-21.4662-19.4675-25.1821-22.6593l-0.4867-0.419
		c-1.245,0.0139-1.77,0.3209-1.77,0.8385h-0.0011c0,1.7824,4.7021,5.8235,9.1502,9.6462c4.1885,3.5995,8.1578,7.0113,7.9333,8.4543
		l-0.0272,0.1741l-0.1729,0.0329c-1.7869,0.3379-3.6218,2.1407-5.3348,3.8239c-0.7526,0.7395-1.4828,1.4572-2.1861,2.0284
		l-0.163,0.1321l-0.1579-0.138c-2.2204-1.9395-4.2939-3.8112-6.3173-5.6381c-3.2488-2.933-6.3731-5.7538-9.5891-8.3971
		l-0.0887-0.161c-0.2713-2.1025-1.2028-2.9804-2.3397-3.2542c-1.1328-0.2724-2.4931,0.0267-3.6269,0.3314
		c-0.0122,0.0686-0.0153,0.1559-0.0165,0.248c1.6356,1.2438,9.0108,7.4177,14.4697,12.4582
		c3.3293,3.0742,5.959,5.7487,6.1864,6.6867l0.0677,0.2801l-0.2874,0.0266c-2.4772,0.2288-7.5498,1.4981-11.8681,2.8839
		c-3.7375,1.1994-6.8891,2.4628-7.2258,3.1675l-0.0595,0.1239l-0.1346,0.0167c-1.1976,0.1465-1.6427,0.5825-1.5656,1.2144
		C306.3739,170.3268,310.0096,173.6115,313.4585,176.7279L313.4585,176.7279z M390.9458,181.9757
		c0.7251,0.1522,1.5307,0.3665,2.4611,0.6866c1.0156-0.0641,3.8766-2.6929,6.9188-5.868
		c4.3175-4.5063,8.9555-10.0621,9.2651-11.0069c-0.7498-0.8073-0.8447-1.6844-0.9309-2.4865
		c-0.0323-0.2997-0.065-0.5891-0.1321-0.8499c-1.4996,0.2483-3.8421,1.7082-5.8266,3.403c-1.993,1.7022-3.609,3.6201-3.609,4.7469
		v0.1063l-0.0803,0.0751c-1.3881,1.2988-4.9042,4.6411-7.3567,7.4315c-1.2926,1.4704-2.2799,2.7661-2.4673,3.4733
		C389.7301,181.7549,390.3058,181.8419,390.9458,181.9757L390.9458,181.9757z M93.2797,179.9404
		c6.9321,0.2313,13.9323,0.4655,20.6025,1.6416c2.1053-0.0318,7.1898-6.4171,12.1224-12.6114
		c3.7604-4.7225,7.4333-9.3348,9.7231-11.0103c0.5774-0.6962,1.8233-2.0061,3.3299-3.5898
		c3.7567-3.9492,9.1522-9.6208,9.6568-11.4599c-7.4046-0.0782-14.8014-0.4359-22.0949-0.9688
		c-7.2558-0.5304-14.4147-1.2345-21.3843-2.0092c0.5037,1.1174,2.1002,2.7814,3.7715,4.5218
		c2.3394,2.4364,4.8214,5.021,4.8214,6.7065v0.1786l-0.1721,0.0575c-0.1675,0.0558-0.3566,0.178-0.5465,0.3045
		c-3.602,5.5074-8.9323,10.749-14.0471,15.779c-2.5821,2.539-5.11,5.025-7.3318,7.4642l-0.0749,0.0822H91.546
		c-0.7169,0-0.9717-0.2583-1.1804-0.4692v-0.0011c-0.0567-0.0573-0.1089-0.1103-0.1551-0.1332l-0.1386-0.0694v-0.1531
		c0-4.8654,0.7177-9.5596,1.3802-13.8949c0.0981-0.6409,0.1936-1.2654,0.2775-1.8252l0.0567-2.3372
		c0.1139-4.8464,0.2347-9.9256,0.7067-14.4516c-0.8314,0.0107-1.6152,0.0674-2.3947,0.127
		c-0.3575,1.9452-0.4048,6.5942-0.4567,11.7842c-0.0941,9.4005-0.2064,20.556-2.3601,21.0566l-0.0555,0.006
		c-0.2639,0-0.7279,0.0107-1.3405,0.0241c-5.0201,0.1131-19.9667,0.449-20.6484-2.9602l-0.0051-0.0488
		c0-3.9438,0.1763-8.0393,0.3518-12.1345c0.271-6.3062,0.542-12.6153,0.1656-18.4802c-1.2084-0.2687-2.4163-0.5334-3.5873-0.741
		c-1.4182,0.1891-5.2248,4.0048-9.4178,8.754c-6.4009,7.2507-13.6426,16.649-14.7617,18.758l-0.1122,0.1083l-0.6769,0.3288
		c-2.8627,1.3853-4.8282,2.3369-5.4694,5.4797c0.8793,0.085,3.0623,0.4422,5.0349,0.8209c1.7246,0.3311,3.3032,0.6834,3.7417,0.8952
		c6.3564,0.6627,12.9073,1.1081,19.5831,1.5613c3.4376,0.2333,6.9092,0.4694,10.3847,0.7367l0.0372,0.006
		C77.6126,179.4166,85.4031,179.6774,93.2797,179.9404L93.2797,179.9404z M511.1011,179.945
		c2.4145,0.6035,4.5051,1.2039,5.2872,1.6254c0.3096-0.0525,0.6143-0.0587,0.9606-0.0595c0.5409-1.0344,1.3241-3.1995,1.9919-5.3731
		c0.5988-1.9488,1.1022-3.8988,1.2529-5.0358c-6.7295,2.2192-13.4504,4.4365-19.656,6.5044l0.0339,0.093v0.0009l0.0077,0.0224
		C502.3423,177.9576,507.1669,178.9614,511.1011,179.945L511.1011,179.945z M425.8418,170.003
		c0.3095,3.3676,0.6999,7.6062,1.5587,10.8598h0.9658c0.2033-0.3237,0.4142-0.5936,0.6832-0.8626l0.0734-0.0734h0.1032
		c0.3611,0,0.8651,0.0053,1.3374,0.0099c1.8184,0.0182,3.1122,0.0309,3.6726-0.3401c0.6696-0.4434,0.2596-1.6282-1.6008-4.4399
		c-0.9193-0.8181-1.8651-1.8677-2.8011-2.9055c-1.482-1.6435-2.9392-3.2598-4.1383-3.8013
		C425.742,168.929,425.7913,169.4554,425.8418,170.003L425.8418,170.003z M481.4938,175.8446
		c0.089,1.2776,0.2486,2.602,0.4921,3.8469c0.2426-0.0201,0.5474-0.0394,0.894-0.0615c1.8703-0.1202,5.0037-0.3223,5.9238-1.0729
		l-0.4183-9.415c-0.5732-0.087-1.5715,0.1758-2.6405,0.5701c-1.7739,0.6545-3.7006,1.6679-4.2933,2.0973
		C481.3835,172.9607,481.3914,174.3707,481.4938,175.8446L481.4938,175.8446z M499.3804,170.1439
		c-1.2592,2.6212-2.4508,5.1004-2.5101,6.1387c1.5858-0.163,3.4759-0.6395,5.3757-1.1191c1.069-0.2696,2.1407-0.5411,3.1768-0.7599
		c1.3641-1.3057,4.1324-1.8261,7.0537-2.3752c4.9073-0.9227,10.264-1.9313,9.5453-6.8788
		c-2.3053-1.1299-5.9794-2.2748-9.6924-3.1567c-3.8625-0.9176-7.7593-1.5489-10.1925-1.5808
		c-0.1673,0.6307-0.2086,0.8172-0.1933,1.1273l0.0351-0.017l0.2263-0.1134l0.1097,0.2276
		C502.8917,162.8353,501.0761,166.6151,499.3804,170.1439L499.3804,170.1439z M490.6253,175.3786
		c0.4841,0.2245,1.2682,0.5882,1.9607,0.5882c1.0446,0,2.478-2.2362,3.8111-5.0522c1.8539-3.9158,3.4614-8.915,3.6293-10.7535
		c-2.4358-0.3225-5.7694-0.9238-9.4348-1.5845c-9.0709-1.635-20.1833-3.6391-24.611-2.6821l0.0014,0.1703
		c0.0156,1.4349,0.0573,5.22-0.7954,6.0727l-0.1267,0.1264l-0.1613-0.0805c-0.1823-0.091-0.2682-0.1768-0.3532-0.2619
		l-0.0723-0.1687c-0.07-2.0347-0.0728-4.0292-0.0731-6.0205c-3.7809,0.0369-8.1768-0.3625-12.5935-0.7639
		c-6.5977-0.6001-13.2432-1.2044-17.8932-0.3557c-0.4195,3.3571-0.2064,7.0637,0.0091,10.8232
		c0.0896,1.5619,0.1791,3.1337,0.2251,4.7086c0.8218,0.0513,3.1311,0.2914,5.9323,0.5822
		c5.6945,0.5913,13.4408,1.3955,14.6664,1.2654c-0.1122-3.6088-0.2645-4.5207-0.3588-5.0854
		c-0.0267-0.1596-0.0491-0.2925-0.0655-0.4575l-0.0221-0.2214l0.2174-0.047c0.9071-0.197,2.6371-0.8833,4.1139-1.6611
		c1.1461-0.6041,2.1286-1.2532,2.42-1.7487l0.0728-0.1241h0.142c4.8433,0,10.194,1.0922,15.6376,2.2033
		c4.5303,0.9247,9.1273,1.8629,13.54,2.1898l0.4265,0.0315l-0.2363,0.3552c-1.0939,1.6412-0.8887,3.1705-0.6101,5.2435
		c0.1036,0.771,0.2167,1.6155,0.2798,2.5656C490.3949,175.2718,490.5023,175.3217,490.6253,175.3786L490.6253,175.3786z
		 M283.4005,175.9609c-2.1152-0.2197-4.4118-0.197-6.7087-0.1749c-3.7315,0.0363-7.4676,0.0729-10.4789-0.9158l-0.0927-0.0547
		c-1.226-1.1426-1.6497-2.1271-1.4664-2.9571c0.3251-1.472,2.5841-2.3536,5.6427-2.7326c2.9744-0.3685,6.7343-0.2792,10.1744,0.1925
		c5.243,0.7186,9.7571,2.3564,9.7571,4.6667v0.1222l-0.0998,0.076c-1.0777,0.8175-2.2278,1.2634-3.3755,1.504
		c-1.1404,0.239-2.2711,0.2758-3.3268,0.2758L283.4005,175.9609L283.4005,175.9609z M271.23,174.0951
		c0.2747,0.0031,0.5511,0.0167,0.8342,0.07c0.6982-0.0634,1.3961-0.1261,2.0869-0.1397c-0.0547-0.5352-0.1122-1.0542-0.1695-1.5709
		c-0.8572-0.2353-1.4629-0.6027-1.8995-0.8677h-0.0009c-0.2616-0.159-0.4541-0.2761-0.5499-0.2798
		C271.3688,171.3004,271.3206,171.9212,271.23,174.0951L271.23,174.0951z M286.5561,172.4275v1.5397
		c0.5315-0.106,1.0754-0.2134,1.6974-0.328c-0.2355-1.3019-0.7719-1.2679-1.4553-1.2251L286.5561,172.4275L286.5561,172.4275z
		 M266.6132,172.8008c0.0978,0.0966,0.2015,0.1922,0.3322,0.286h0.8396c0.2483-0.5582,0.4974-1.1135,0.7441-1.6152l-0.0094-0.0136
		l-0.019-0.0326h-0.0266C267.1157,171.4235,266.6353,171.4223,266.6132,172.8008L266.6132,172.8008z M281.3922,172.7949
		l0.0453,0.1502c0.0559-0.0281,0.108-0.0624,0.1542-0.1043c0.0156-0.0141,0.0301-0.0298,0.0448-0.0459H281.3922L281.3922,172.7949z
		 M50.6069,172.7189c-2.0154-0.3518-4.1902-0.4901-6.3045-0.6236c-2.6436-0.1672-5.1951-0.3294-7.2539-0.8943l-0.1491-0.0411
		l-0.0303-0.1502c-0.0768-0.3852-0.0771-0.6851-0.0771-0.9848l0.0635-0.1658c0.6922-0.777,1.2115-1.3643,1.7493-1.9721
		c3.6397-4.1139,7.5997-8.5904,11.5674-12.0665c1.4352-2.1632,3.4438-4.4278,5.4405-6.6785
		c2.3261-2.6223,4.6378-5.2276,5.9808-7.6071l0.0726-0.1281h0.144h0.936h0.2435l0.0054,0.2452l0.0028,0.1276
		c0.0485,2.1076,0.6789,29.5399-0.4351,30.6539l-0.1726,0.0723c-3.9597,0.0717-7.8483,0.1443-11.736,0.216L50.6069,172.7189
		L50.6069,172.7189z M414.6727,158.5374c5.9213,2.5645,11.2314,6.6027,16.0903,11.8729c0.4291-0.049,0.4876-0.0726,0.8283-0.3147
		c0.4501-2.45,0.5896-5.4703,0.5808-8.3959c-0.0082-2.8732-0.1616-5.6667-0.3019-7.7372c-0.7186-0.1301-1.4363-0.2551-2.1526-0.3209
		c-14.0738,0-28.2189-0.1261-42.2994-0.3331c-13.9425-0.2047-27.8203-0.4895-41.5029-0.8093
		c0.142,0.1871,0.3603,0.432,0.6316,0.7033v0.0009c0.5582,0.5584,1.3269,1.1985,2.1209,1.6642
		c0.7665,0.4498,1.5497,0.735,2.1651,0.612c0.2245-0.0448,0.4283-0.1471,0.6007-0.3195l0.0927-0.093l0.1299,0.0247l0.7262,0.1378
		c1.2858,0.2426,2.6153,0.4944,3.9521,0.798c2.5319,0.3189,16.6629,1.1506,27.0774,1.0145
		c5.9915-0.0782,10.7209-0.4527,11.1739-1.3827l0.0612-0.1262l0.1418-0.0125C402.139,154.8691,408.7134,155.9562,414.6727,158.5374
		L414.6727,158.5374z M466.992,167.726c4.8047,0.8447,10.0179,1.9976,11.7323,2.6912c0.5814-0.0683,1.186-0.1366,1.8224-0.1993
		c0.5768-0.0567,1.161-0.1075,1.7464-0.1432c0.0264-0.1479,0.055-0.2874,0.0871-0.4223c0.047-0.1985,0.1048-0.3901,0.1825-0.5843
		l0.0868-0.2177l0.2225,0.0742c0.184,0.0612,0.9218-0.1346,1.6481-0.4184c0.4612-0.1805,0.9034-0.3957,1.1786-0.6007
		c-1.5078-0.7659-7.3174-1.9448-13.2517-2.5792c-3.3089-0.3535-6.6487-0.5338-9.2932-0.3731
		c-2.5761,0.1565-4.4699,0.6239-4.9702,1.5509c-0.0323,0.0598-0.059,0.1216-0.0788,0.1862
		C459.4433,166.5592,463.0935,167.0406,466.992,167.726L466.992,167.726z M467.9961,169.5974v0.6947
		c0.339-0.0742,0.601-0.1673,0.8246-0.5717C468.5358,169.6793,468.2568,169.6382,467.9961,169.5974L467.9961,169.5974z
		 M523.3734,167.6052c-0.1594,0.5893-0.2472,1.2676-0.2881,2.1537l0.7306-0.0456c6.1168-0.3765,35.8469-2.2076,38.3351-3.647
		c-1.7084-0.4175-3.4143-0.3022-5.0184-0.1942c-1.7467,0.1179-3.3785,0.2267-4.8248-0.3464
		c-5.5055,0.4107-11.0657,0.3716-16.5217,0.3325c-3.9623-0.0281-7.8712-0.0564-11.6685,0.0901
		C523.7736,166.4957,523.5355,167.006,523.3734,167.6052L523.3734,167.6052z M35.5034,165.3091
		c-0.6568,0.7637-1.1775,1.6177-1.2861,2.5562c1.4074-0.7262,5.1582-4.7664,9.3246-9.6114
		c6.7694-7.8715,14.5905-17.799,15.3028-19.1704c-0.6058-0.2021-1.1585-0.4198-1.6631-0.6191
		c-0.8447-0.3333-1.5554-0.6151-2.0815-0.6568c-1.3105,1.9585-3.3715,4.5859-5.6185,7.4509
		c-4.902,6.2501-10.6996,13.6423-11.4747,17.6142l-0.0779,0.1375c-0.123,0.1108-0.311,0.2755-0.5026,0.4433
		C36.8065,163.9969,36.0984,164.6172,35.5034,165.3091L35.5034,165.3091z M410.7552,163.1256
		c-0.0264,1.0587-0.0513,2.0664,1.4031,2.9767c0.8146-0.0037,1.7728-0.0737,2.7683-0.1803c1.1971-0.1287,2.4531-0.3124,3.587-0.4978
		c-1.3947-0.6514-2.7411-1.1948-4.0405-1.6531c-1.2816-0.4518-2.5195-0.8215-3.7108-1.1282
		C410.7625,162.8047,410.7591,162.966,410.7552,163.1256L410.7552,163.1256z M209.9628,144.5221
		c8.7103,0.4677,17.4855,0.8095,26.2911,1.0613c7.4548-0.5927,14.9675-0.6919,22.4699-0.7903
		c19.736-0.2597,39.4121-0.5191,58.0436-9.8255c0.2517-0.2126,0.559-0.4683,0.866-0.724c3.3877-2.8207,6.6739-5.5576,4.5357-9.9416
		l-0.5607-0.6083c-4.72-5.1279-7.5835-8.2363-13.8444-5.8292c-0.0694,0.3541-0.1567,0.7149-0.2634,1.0706
		c-0.3512,1.1713-0.9187,2.3347-1.7571,3.1451c-0.8578,0.8294-1.9905,1.2886-3.4521,1.0194
		c-0.0817-0.015-0.1644-0.0315-0.2469-0.0508c0.0213,0.4076,0.0779,0.8524,0.1335,1.2977l0.0173,0.1406l-0.1131,0.087
		c-2.2178,1.7062-4.1567,1.5897-6.0996,1.4732c-0.5434-0.0323-1.0879-0.0649-1.629-0.0558
		c-0.4193,0.5836-0.8016,1.4284-1.1602,2.221c-0.4003,0.8844-0.7727,1.707-1.1667,2.101l-0.084,0.0839l-0.1182-0.0125
		c-1.1032-0.1148-2.253-0.2769-3.3809-0.4998c-0.311,0.0573-0.6472,0.1046-1.0352,0.1398l-0.1726-0.049
		c-0.2512-0.1899-0.4961-0.3716-0.7336-0.5468c-0.8416-0.233-1.645-0.5082-2.3788-0.8305
		c-1.4034-0.6165-2.5563-1.4105-3.2386-2.4256c-0.6959-1.0355-0.9026-2.2879-0.3912-3.7964
		c0.3382-0.9987,0.9947-2.1115,2.037-3.3492c0.0125-0.5136,0.0054-0.9675-0.0017-1.3751c-0.0278-1.5727-0.0442-2.5098,1.078-3.6717
		c-0.0079-0.5723-0.0805-0.8759-0.1522-1.1715c-0.036-0.1485-0.0723-0.2951-0.1006-0.4689
		c-1.9605,0.195-5.2634-0.0731-8.0037-0.2948c-1.1778-0.0952-2.2509-0.1814-3.0543-0.2194c0.2401,0.5119,0.5771,1.1174,0.9703,1.76
		c0.5318,0.8688,1.1628,1.7994,1.7917,2.6507l0.0627,0.0847l-0.0167,0.1026c-0.1684,1.0454-1.1718,2.6328-2.4055,4.1814
		c-1.4709,1.8468-3.2811,3.6593-4.3829,4.4246c-0.0621,0.3144-0.1197,0.6332-0.1197,1.0029v0.1661l-0.1545,0.0643
		c-0.8552,0.3563-1.711,0.7135-2.4933,1.0684c-5.69,4.0337-9.7101,6.88-13.9856,8.6516h-0.0008
		c-4.2914,1.7782-8.8232,2.4681-15.5225,2.1785l0.0011-0.0261c-1.1004,0.1769-6.8502,0.5414-13.0192,0.8723
		c-7.0651,0.3787-14.713,0.7378-16.4911,0.7378l-0.0731-0.0107c-6.2943-1.9562-12.4282-1.84-18.5652-1.724
		c-4.2072,0.0793-8.4166,0.1593-12.6913-0.4241c-0.8478,0.0002-2.6064,0.0266-5.0474,0.0629
		c-13.6052,0.2035-47.9293,0.716-50.2807-1.2323c-0.9904-0.1414-2.3147,1.1878-3.1283,2.0047
		c-0.1497,0.1506-0.2829,0.2838-0.3949,0.3898c0.0009,0.0442,0.0023,0.0898,0.006,0.1315v0.0009
		c0.0045,0.0533,0.0136,0.108,0.0264,0.1644c1.821,0.0513,9.9173,0.3855,19.9145,0.8399v-0.5238l0.0003-0.25h0.2497
		c1.0086,0,2.018,0.0003,3.0415,0.0732l0.1656,0.0116l0.053,0.1593l0.216,0.648l0.0178,0.0533
		c7.8953,0.3654,16.5776,0.7886,24.1296,1.197c10.5194,0.5689,18.8779,1.0993,19.9332,1.3882
		C192.6388,143.4611,201.2706,144.0552,209.9628,144.5221L209.9628,144.5221z M286.7239,128.973
		c0.5606,0.1528,1.1387,0.2869,1.7234,0.4045c0.4617-0.0896,0.8716-0.2021,1.3201-0.3246c0.4173-0.114,0.8677-0.2364,1.4029-0.3563
		l0.1097-0.2407c0.8541-1.8661,4.7242-10.3227,4.0975-11.1515c-0.0156-0.0207-0.1253,0.0434-0.3532,0.2155l-0.3249,0.2458
		l-0.0714-0.4008c-0.1865-1.0452-0.7081-1.7558-1.1532-2.3621c-0.3441-0.4692-0.6483-0.8822-0.756-1.3595
		c-2.4318,0.3348-4.1286,0.2908-5.3393,0.2608c-2.6544-0.067-2.768-0.0701-3.4906,5.0351l-0.0331,0.0936
		c-3.2924,5.5069-2.8752,5.8073,1.2798,8.7885l0.0003-0.0005C285.615,128.1645,286.1422,128.544,286.7239,128.973L286.7239,128.973z
		 M87.5583,139.3067c4.6913,0.2945,9.4768,0.5958,13.8841,1.5982l0.0845,0.013c0.3019,0.0468,1.4357,0.222,2.005-0.1151
		c-0.6265-0.7297-3.6984-1.2906-7.6008-1.7116c-6.9792-0.7535-16.5427-0.9885-19.8309-1.0001v0.0471
		C79.6465,138.8086,83.5688,139.0558,87.5583,139.3067L87.5583,139.3067z M61.0858,137.6623
		c1.0245,0.3058,2.1294,0.6987,2.9384,1.08c0.6939-0.0034,3.3749-0.0663,5.4867-0.3628c0.7075-0.0992,1.3482-0.2231,1.8156-0.3742
		c-1.1392-0.1219-2.4324-0.2888-3.7636-0.4617h-0.0011c-3.2187-0.4184-6.6682-0.8675-8.7327-0.7603
		c-0.0286,0.0992-0.0581,0.2103-0.0882,0.3271C59.2866,137.1773,60.1588,137.3856,61.0858,137.6623L61.0858,137.6623z
		 M75.0084,138.1881c-0.3971,0.0748-0.7404,0.1343-1.0324,0.1837C74.3811,138.3834,74.77,138.3463,75.0084,138.1881
		L75.0084,138.1881z M103.7636,137.7144c0.8527,0.0689,1.7374,0.1406,2.5648,0.3084h7.2527
		c1.4119-0.8608,5.5157-4.1329,8.6533-7.0565c1.9534-1.8201,3.5243-3.4829,3.7964-4.2849
		c-0.3886-0.0255-0.7078,0.0618-0.9564,0.2276c-0.3447,0.2299-0.5683,0.6125-0.6696,1.0514l-0.0394,0.171l-0.1732,0.0215
		l-1.728,0.216l-0.2529,0.0318l-0.0255-0.2554c-0.0434-0.4345,0.0076-0.6942,0.0746-1.0341
		c0.0408-0.2066,0.0881-0.4465,0.121-0.7818c-1.573-0.1559-5.2061-0.584-8.0609-1.006c-1.9732-0.2917-3.5946-0.5876-3.9637-0.8028
		l-0.125-0.0729v-0.1429v-0.504v-0.1531l0.1386-0.0695c1.3178-0.6588,2.302-1.2138,3.1107-1.6693
		c3.045-1.7161,3.6431-2.0517,11.1682-1.8884c0.0482-0.0901,0.104-0.1678,0.1647-0.2384c-1.3062-1.182-2.6209-2.3703-4.0935-3.6964
		c-0.0723,0.0805-0.14,0.1604-0.2035,0.2435c-0.112,0.1463-0.2154,0.301-0.3175,0.4714l-0.0907,0.1517l-0.1718-0.0346
		c-0.3342-0.0666-0.6109-0.0669-0.8873-0.0669h-0.2013l-0.0428-0.1984c-0.1176-0.5488,0.5355-2.507,1.2512-4.6528
		c0.6786-2.035,1.4165-4.2429,1.5885-5.4621c-4.1505,1.5911-8.3001,3.1848-12.3834,4.8439
		c-0.3314,1.6404-1.9049,6.262-3.7088,9.7812c-1.2141,2.3684-2.5529,4.2543-3.7395,4.4671l-0.3677,0.0661l0.0808-0.3645
		c0.5187-2.3352,1.7813-4.8025,2.9937-7.1717c1.0831-2.1169,2.1268-4.1553,2.5427-5.9173c-1.8442,0.419-3.8262,1.4083-5.8085,2.3984
		c-2.4367,1.2172-4.8764,2.4355-7.1407,2.6385l-1.6492,0.5522c-7.1915,2.4131-9.233,3.098-15.3595,1.9372
		c-0.0391,0.1556-0.0694,0.3296-0.0694,0.5042v0.1463l-0.1281,0.0715c-2.001,1.1197-3.7868,2.0457-5.4386,2.9018
		c-4.7693,2.4721-8.4223,4.3665-13.0771,8.791c0.0629,1.3848,0.0743,1.4718,0.3796,2.6345
		c5.3768,1.0372,11.7567,1.645,18.3073,1.9304c7.8001,0.3401,15.8454,0.2245,22.7333-0.1644l0.1355-0.0077l0.0802,0.1111
		C100.584,137.4567,102.1122,137.5809,103.7636,137.7144L103.7636,137.7144z M56.3468,135.6457
		c0.2251,0.3889,0.7775,0.8388,1.3932,1.2671c0.0215-0.0065,0.0434-0.0125,0.0646-0.017c-0.3595-1.0465-0.7957-1.5587-1.1126-1.9295
		C56.2564,135.1445,56.1952,135.3838,56.3468,135.6457L56.3468,135.6457z M207.6772,135.8441
		c4.504,0.1077,8.3038,0.4161,9.5621,1.0925c0.9275-0.0871,2.353-0.0034,3.9053,0.0873c3.0325,0.1772,6.5617,0.3835,7.5288-0.5837
		l0.1542-0.0714c0.7027-0.0638,1.8791-0.1097,3.3542-0.167c6.8358-0.2653,20.1733-0.7838,22.0056-4.4485l0.1131-0.1131
		c2.8015-1.3649,7.0744-3.6088,10.844-6.3575c3.7148-2.7088,6.9471-5.9077,7.7936-9.229c-0.6441-1.2294-4.1505-5.9788-7.3622-9.5244
		c-1.9695-2.1745-3.8041-3.8843-4.7333-3.9997c-2.2813,2.2691-5.0686,4.5329-8.0994,6.2317
		c-2.5407,1.4244-5.2554,2.4523-7.9886,2.7553c-5.5738,2.3369-9.985,4.064-14.5573,5.2093
		c-4.5176,1.1316-9.1825,1.6929-15.2632,1.709c0.0184,0.142,0.0493,0.2911,0.0833,0.4558v0.0009l0.0043,0.021
		c0.9394,0.2319,1.9825,0.9091,3.1394,1.66c1.1954,0.7764,2.5172,1.6345,3.9308,2.1291l0.148,0.0519l0.0181,0.1551
		c0.0842,0.7175-0.1304,1.7779-0.6057,2.6819c-0.3946,0.7492-0.972,1.4014-1.7136,1.6837l-0.2914,0.1111l-0.0442-0.3093
		c-0.0655-0.4601-0.1315-0.9196-0.1973-1.326c-0.7177-0.4669-1.3275-0.8832-1.8751-1.2569
		c-2.3839-1.6262-3.6034-2.4582-6.3207-2.4582h-0.25v-0.25c0-0.7943,0.0003-1.5888,0.074-2.3284l0.0125-0.1248l0.1077-0.0646
		c0.1295-0.0777,0.2673-0.1451,0.409-0.2075c-1.0871-0.1837-2.1331-0.309-3.1314-0.3816c-1.2929-0.0941-2.5078-0.1012-3.6368-0.0394
		c-0.1006,0.4711-0.2991,1.0704-0.5613,1.6342c-0.2511,0.5406-0.5641,1.0536-0.9111,1.4006l-0.0944,0.0947l-0.131-0.0264
		c-0.3342-0.0666-0.6108-0.0669-0.8872-0.0669h-0.1664l-0.064-0.1554c-0.1137-0.2758-0.2129-0.5287-0.3124-0.7818
		c-0.3612-0.9204-0.7144-1.8207-0.9698-2.0165c-2.5994-0.0249-10.347-0.0326-19.2923-0.0411
		c-15.573-0.0147-34.755-0.0327-36.9621-0.2948l-0.021,0.1165c-0.8447-0.1533-1.5412-0.2931-2.2368-0.432l-0.1567-0.0311
		l-0.0374-0.1562c-0.1848-0.777,0.4289-1.2816,1.7084-1.5863c2.7496-0.6542,8.8727-0.4609,16.7581-0.2121
		c4.9317,0.1559,10.5576,0.3337,16.5183,0.3388v-0.398v-0.153l0.1386-0.0695c0.8819-0.4411,7.0143-0.0079,12.9966,0.4144
		c4.3271,0.3053,8.5765,0.6061,10.6401,0.5729c0.589-9.6582-0.1973-12.0864-3.3352-12.2825h-0.0009
		c-1.1823-0.074-2.7079,0.1479-4.6077,0.424c-2.5296,0.3679-5.7183,0.8317-9.6775,0.8317h-0.1324l-0.0745-0.1114
		c-0.0587-0.0881-0.1185-0.1646-0.1726-0.2338c-0.0808-0.1035-0.1514-0.1944-0.203-0.2974l-0.0689-0.1372l0.0924-0.1236
		c0.1908-0.2545,0.383-0.5082,0.6194-0.7619l-0.0295-0.0675c-0.8297-0.0181-1.6563-0.0394-2.4837-0.0604
		c-12.5535-0.3172-25.7193-0.6491-34.8562,8.462c-1.5522,3.0812-6.9191,7.0443-12.1705,10.9219
		c-5.408,3.9932-10.6917,7.8959-11.4253,10.5126c1.9026,0.6619,4.7237,1.0961,7.679,1.2722
		c3.1331,0.1868,6.4123,0.0819,8.9039-0.3515l0.1814-0.0315l0.0831,0.1661c0.0516,0.1031,0.1607,0.2707,0.2775,0.4467
		c8.4824,0.5519,17.3089,0.5564,26.2171,0.5607c7.1643,0.0034,14.3838,0.0074,21.5121,0.2943
		C188.2494,136.1279,199.2277,135.642,207.6772,135.8441L207.6772,135.8441z M92.9806,132.1358
		c-0.373-0.2798-0.3736-0.2803-0.4586-0.9606l-0.0349-0.2804H92.77c0.3801,0,0.762,0.0008,1.1517,0.0496
		c0.3952-0.8535,0.5068-1.628,0.616-2.3825c0.1355-0.9374,0.2673-1.8485,0.8994-2.8758l0.0737-0.1194H95.65
		c2.8219,0,3.1,2.0892,3.4628,4.858c0.0649,0.0085,0.125,0.0133,0.1826,0.0184c0.5817,0.0536,0.9473,0.0876,1.3448,1.3465
		l0.0533,0.1686l-0.1431,0.1066c-1.4451,1.0765-2.3083,0.917-2.8196,0.2307c-0.7257-0.9738-0.5947-3.085-0.5437-3.9073
		l0.0043-0.0578c-0.2874-0.0482-0.5683-0.0955-0.8203-0.1429c-0.2959,0.6675-0.4144,1.2787-0.5148,1.8028
		c-0.2594,1.3561-0.4204,2.1951-2.7261,2.1951L92.9806,132.1358L92.9806,132.1358z M288.362,125.2652
		c-0.0691-0.6942-0.0737-1.3096-0.074-1.9205l-0.2134-0.1695c-1.7153-1.3643-1.8587-1.4782-3.3942-1.2863l-0.2792,0.0352v-0.2832
		c0-0.6004,0.2055-0.9842,0.5397-1.1829c0.2532-0.1505,0.5703-0.1837,0.9188-0.1173c0.3192,0.0607,0.6707,0.208,1.0244,0.4261
		c1.1792,0.7271,2.4299,2.2802,2.6221,4.0878l0.0209,0.199l-0.191,0.0635c-0.1794,0.0598-0.3838,0.1961-0.5873,0.3316
		l-0.3455,0.2305L288.362,125.2652L288.362,125.2652z M295.7071,124.4885l1.0791,0.3597l0.1095,0.0003h0.0008
		c0.8354,0.0039,2.7091,0.0127,3.6218-0.7869c-0.0516-0.5592-0.0714-0.6318-0.3115-1.019c-0.2191-0.002-0.4768-0.0094-0.7385-0.0164
		c-0.2854-0.0074-0.5771-0.0153-0.9198-0.0153C297.1281,123.0108,295.8154,123.194,295.7071,124.4885L295.7071,124.4885z
		 M215.2922,121.3367c1.4887,0.8002,3.2176,1.7303,4.82,2.9766c0.0714-0.0181,0.1474-0.0283,0.2245-0.0343
		c-0.0105-0.0916-0.0142-0.1819-0.0153-0.271c-0.6239-0.4096-1.1968-0.8064-1.7311-1.1766c-1.8893-1.3087-3.31-2.293-5.1673-2.5373
		C213.967,120.6246,214.6037,120.9665,215.2922,121.3367L215.2922,121.3367z M296.5896,118.5426
		c-0.1054,0.9343-0.3277,2.9058,0.2092,3.2752c1.0134-0.0981,2.0117-0.0706,2.9724-0.0434c2.851,0.0808,5.3705,0.1525,6.8887-3.3505
		c-0.8912-0.1672-7.6742-0.1429-9.7591-0.1355l-0.284,0.0008L296.5896,118.5426L296.5896,118.5426z M130.6049,120.5867
		c0.324,0.2752,0.8322,0.521,1.6228,0.6579c0.9298-0.1644,1.9018-0.9612,2.8735-1.7574c0.2789-0.2282,0.559-0.4567,0.8459-0.6766
		c-0.2364-0.2191-0.4116-0.351-0.5377-0.4451v-0.0011c-0.1999-0.1499-0.311-0.2336-0.3657-0.3745
		c-0.7634,0.2123-1.4749,0.5908-2.1793,0.9666c-0.8611,0.4595-1.7147,0.9159-2.6787,1.0883
		C130.2684,120.2235,130.3988,120.4115,130.6049,120.5867L130.6049,120.5867z M288.0734,120.9535
		c-0.8359-0.836-1.3674-1.7978-1.6894-2.7519c-0.4226-1.2529-0.4821-2.4944-0.398-3.4231l0.0329-0.3631l0.3265,0.163
		c1.7722,0.8861,1.6252,1.9959,1.4908,3.0092c-0.1545,1.1636-0.2883,2.1733,4.2358,2.2924l0.2441,0.0066v0.2424v0.648v0.3123
		l-0.3047-0.0694c-1.0327-0.2344-1.8544-0.15-2.6243-0.0709c-0.3855,0.0394-0.7594,0.078-1.137,0.078h-0.1032L288.0734,120.9535
		L288.0734,120.9535z M78.4429,117.4912c0.7472,0.7084,1.6801,1.5928,2.825,1.8119c0.2129-0.0096,0.4819-0.0128,0.7818-0.0156
		c1.6387-0.0153,4.2899-0.0411,4.7231-1.3949l0.0513-0.1596l0.1675-0.0131c4.2798-0.3322,11.8494-2.6241,17.4404-6.1716
		c3.8911-2.469,6.8117-5.5386,6.9466-8.9564l-0.0309-0.0002h-0.0011c-0.4785-0.0054-0.5836-0.0063-0.7072,0.2826l-0.0794,0.1854
		l-0.1967-0.038c-1.4819-0.2849-2.3111,0.0485-3.3029,0.4479c-0.2151,0.0868-0.4385,0.1769-0.6684,0.2613l-0.0184,0.006
		c-4.3982,1.2413-9.6001,2.2567-14.8144,2.9676c-5.3901,0.7347-10.7975,1.1452-15.349,1.1452h-0.25v-0.2489v-0.576v-0.2274
		l0.2276-0.0207c0.1959-0.0176,0.4136-0.0187,0.6423-0.0198c0.4745-0.002,1.0071-0.0042,1.4474-0.1729
		c-1.6004-0.2682-2.8216-0.3464-3.9991-0.1593c-1.292,0.2052-2.5509,0.7336-4.2239,1.6804
		c0.0771,2.6374,2.2856,3.0785,4.6644,3.0785v0.0011c0.6415,0,1.3073-0.0323,1.9482-0.0632l0.3793-0.0179l0.3725-0.9314
		l0.2061-0.5145l0.2477,0.4958c0.1208,0.2418,0.3033,0.4933,0.4915,0.7447c1.7467,0.2517,3.7567-0.3368,5.7294-0.9142
		c1.9256-0.5636,3.8183-1.1172,5.4689-0.902l0.5023,0.0658l-0.358,0.3577c-0.0352,0.0352-0.0706,0.0706-0.0706,0.1114v0.1786
		l-0.1709,0.0576c-2.897,0.9777-5.4848,1.5749-8.043,1.9638c-2.4576,0.3734-4.8935,0.5553-7.5538,0.6971
		c0.1865,0.5558,0.5763,1.1418,1.0993,1.7458c0.5783,0.6681,1.3204,1.356,2.1305,2.0457c0.1134-0.1545,0.2404-0.301,0.4133-0.4164
		l0.1142-0.0402c1.569-0.1568,3.1836-0.7243,4.8379-1.3054c2.1064-0.7401,4.2786-1.5035,6.5625-1.5035l0.1474,0.4499
		c-1.4664,1.0806-4.2228,1.6875-6.6892,2.2303c-2.0041,0.4411-3.8112,0.8399-4.4714,1.3706
		C78.152,117.2157,78.2935,117.3495,78.4429,117.4912L78.4429,117.4912z M130.47,114.2042
		c-0.2789,1.1086-0.1267,2.3108,0.7795,3.7536c1.461-0.5332,2.9208-1.6228,4.2233-2.9974
		c-0.1565,0.0592-0.3498,0.0905-0.5828,0.0905h-0.2177l-0.0292-0.2177c-0.2401-1.8008-0.7937-2.6248-1.4349-3.5793l-0.2526-0.379
		h-0.6052C131.4987,112.0034,130.756,113.068,130.47,114.2042L130.47,114.2042z M136.0381,114.0312
		c0,0.1264-0.0127,0.2443-0.0411,0.3512c0.1746-0.2013,0.3455-0.4073,0.5131-0.6174c1.69-2.1194,2.9798-4.6434,3.4413-6.8241
		c-1.6387-2.1379-3.6159-1.4052-5.1599-0.8017c-0.1349,0.3141-0.284,0.5975-0.4289,0.8742
		c-0.3713,0.7095-0.7186,1.3745-0.7336,2.4579l0.0876,0.1162C134.2412,110.2938,136.0381,112.7117,136.0381,114.0312
		L136.0381,114.0312z M296.3126,116.7928c1.1239,0.0745,2.302,0.2131,3.4778,0.3512l0.7534,0.0014
		c5.5298,0.0139,11.0648,0.0281,11.2125-6.7445c-0.4638,0.0652-0.8056,0.222-3.0269,1.2424l-0.0323,0.0128
		c-2.8939,0.868-5.4116,1.3751-7.8327,1.6107c-2.2618,0.2202-4.4345,0.2038-6.7453,0.0238
		C294.8218,114.4326,295.5668,115.6118,296.3126,116.7928L296.3126,116.7928z M204.1784,106.4451
		c-0.1777,3.1318-0.521,9.2027,0.3333,10.228c6.0548,1.9811,17.9654,0.5721,29.414-2.7119
		c10.8436-3.1099,21.2527-7.8976,25.8539-13.0725c-1.0545-1.4411-4.3041-5.1267-7.1898-8.1811
		c-2.2558-2.3879-4.2602-4.3824-4.7415-4.5709c-0.7869,0.5703-2.1912,1.3464-3.746,2.2065
		c-3.0486,1.6863-6.6917,3.7032-7.1719,4.9116h0.1996h0.3456l-0.1094,0.3279c-0.0649,0.1947-0.1301,0.3903-0.1301,0.5701v0.1505
		l-0.1338,0.0701c-0.7073,0.3713-1.4298,0.7174-2.1328,1.0539c-3.3256,1.5913-6.2141,2.9746-6.2989,6.762
		c1.5443,0.6497,1.9619,2.8961,1.8042,4.9374c-0.0491,0.6372-0.1539,1.256-0.2968,1.7975
		c-0.1454,0.5511-0.3316,1.0267-0.5408,1.3672c-0.3101,0.5046-0.6871,0.7438-1.095,0.5808l-0.1499-0.0598l-0.0071-0.1607
		c-0.0292-0.6732-0.0113-1.1582,0.006-1.6382c0.0235-0.6545,0.0479-1.3011-0.0538-2.429c-0.2537,0.0164-0.523,0.0366-0.7906,0.0567
		c-0.6216,0.0474-1.2427,0.0952-1.8388,0.0952v0.0012c-1.7629,0-3.1547-0.4189-3.1547-2.4327l0.0003-0.104l0.072-0.0726
		c0.0014-0.0014,0.4912-0.489,1.2543,0.1874c1.6435-0.4677,1.6058-1.118,1.5267-2.4848c-0.0173-0.3008-0.0357-0.6324-0.0428-0.9907
		c-0.8657,0.1071-2.2116,0.3492-3.5872,0.5972c-2.2207,0.4005-4.5184,0.8153-5.1832,0.6676v0.0009
		c-2.6212-0.1746-4.2208-0.1321-4.8901,0.6349c-0.6684,0.7662-0.4776,2.3355,0.4641,5.231l0.0377,0.1154l-0.0672,0.1003
		c-0.1358,0.2035-0.2718,0.4079-0.3316,0.5873l-0.0779,0.2347l-0.2344-0.0754c-1.7453-0.561-1.6997-2.1833-1.6554-3.7542
		c0.0207-0.7362,0.0411-1.4615-0.1412-2.0084c-0.3552-1.0658-1.58-1.5315-5.4397-0.2698
		C204.2478,105.2296,204.2164,105.7708,204.1784,106.4451L204.1784,106.4451z M139.7548,112.5385
		c-0.0125,0.0125-0.0238,0.0258-0.0349,0.0391c0.1142-0.0402,0.2545-0.1193,0.4402-0.2225c0.2214-0.123,0.4997-0.2772,0.8719-0.4453
		c-0.0476-0.5122-0.0544-0.9768-0.0556-1.4348c-0.6457-0.0859-0.7404,0.2052-0.9042,0.7188
		c-0.0593,0.1857-0.125,0.3949-0.2163,0.6202c0.0538,0.085,0.1029,0.184,0.1525,0.2835l0.1114,0.2228l-0.2225,0.1111
		c-0.0473,0.0235-0.0969,0.0615-0.1417,0.1063L139.7548,112.5385L139.7548,112.5385z M128.4344,111.6031
		c0.1911,0.2404,0.3906,0.4921,0.5936,0.7546c1.1849-1.0508,1.1863-2.6328,1.1869-3.674c0.0003-0.2936,0.0011-0.5488,0.0278-0.7571
		c-0.7588,0.0158-1.3748,0.0896-1.9094,0.2625c-0.559,0.1811-1.0397,0.476-1.5174,0.9306
		C127.0188,109.8172,127.6617,110.6288,128.4344,111.6031L128.4344,111.6031z M284.7711,111.1623
		c0.0456,0.8829,0.0652,1.0096,0.2029,1.1607l0.2234,0.0077c0.678,0.0249,2.2816,0.0847,3.3888,0.0788
		c-0.6296-0.187-1.1883-0.3869-1.7328-0.5802C286.1688,111.5863,285.5075,111.3516,284.7711,111.1623L284.7711,111.1623z
		 M289.5659,110.823c2.0472,0.4232,4.2106,0.8717,5.5851,1.639c0.7932-0.0173,5.6344-0.3206,9.1984-0.9632
		c1.9242-0.347,3.4557-0.7747,3.6921-1.2693l0.0558-0.1174l0.1276-0.0212c0.6307-0.1049,1.1732-0.2276,1.6917-0.4434
		c0.4464-0.1862,0.8804-0.4436,1.3476-0.8228c-2.4273-1.9817-6.4454-2.7148-10.6982-2.6799
		c-5.614,0.0459-11.6178,1.4309-14.946,3.0506v0.6171C286.6054,110.2115,288.0541,110.5103,289.5659,110.823L289.5659,110.823z
		 M142.8968,111.8809c0.142,0.0487,0.2911,0.1043,0.4646,0.1842c0.2325-0.1783,0.4796-0.4329,0.7384-0.6982
		c0.6279-0.644,1.3178-1.3507,2.1767-1.4182c1.5537-2.1793,6.4542-4.1369,9.9683-5.54c1.5435-0.616,2.8111-1.1214,3.352-1.4463
		c-1.2492-0.2517-4.9014-0.4912-8.4178-0.5981c-3.4118-0.1035-6.6716-0.083-7.4469,0.1684
		c-0.6554,2.0367-1.0029,3.1603-1.1152,4.3705C142.5047,108.1128,142.6232,109.4411,142.8968,111.8809L142.8968,111.8809z
		 M75.9025,85.2026c-6.1149,5.6633-17.1352,15.8726-14.0703,24.0729c0.8855-0.1017,1.7373-0.2304,2.5262-0.5309
		c0.8325-0.3175,1.6067-0.8339,2.2944-1.728l0.0652-0.0842l0.1057-0.0116c2.9463-0.3155,5.7716-1.3632,8.6026-2.4128h0.0009
		c2.9364-1.0885,5.8805-2.1804,9.0099-2.48c1.866-0.5884,3.6371-1.1565,5.4377-1.7337c7.9064-2.5347,16.3831-5.2523,24.4398-7.1204
		l0.0555-0.007c0.3393,0,0.7464-0.0054,1.2617-0.0122c3.8344-0.0505,13.4997-0.1772,15.0284,0.9496h0.0187h0.0009
		c0.7928,0.0031,3.1345,0.0128,3.7842-0.9822c-0.0408-0.0782-0.0802-0.1463-0.1105-0.1766l-0.1766-0.1766l0.1766-0.1766
		c0.2965-0.2965,1.1585-0.6848,2.2382-1.1713c1.3592-0.6123,3.0756-1.3858,4.3515-2.2731c1.3635-0.9485,2.217-2.027,1.4882-3.1575
		c-4.4447-1.6843-7.1232-0.8376-10.9984,0.3884c-0.5896,0.1865-1.2079,0.3824-1.8717,0.5814l-0.3212,0.0964v-0.3356
		c0-0.1173,0.0181-0.2356,0.0453-0.3456c0.0326-0.1315,0.0797-0.2503,0.125-0.3419l0.1446-0.1247
		c0.0462-0.0153,0.125-0.0357,0.2322-0.0621v-0.0002c0.4371-0.11,1.4057-0.3529,1.8386-0.6678
		c-2.8089-1.908-5.2195-4.0561-7.4659-6.0577c-7.1172-6.3416-12.581-11.2093-23.8147-1.8567l-0.0907,0.0488
		c-3.0793,0.8796-4.8974,3.5209-6.6024,5.9981c-1.6036,2.3301-3.1116,4.5207-5.5043,5.0919l-0.3949,0.0944l0.0952-0.3951
		c0.2509-1.0398,1.0043-1.9358,1.7323-2.8012c0.7115-0.8461,1.398-1.6617,1.4896-2.4965c-2.4534-0.6571-4.8745-0.6664-7.1946-0.3549
		c-2.3735,0.3186-4.646,0.9732-6.7436,1.6123C76.8042,84.3684,76.3662,84.7732,75.9025,85.2026L75.9025,85.2026z M114.0262,102.5892
		c-2.1132,4.455-2.4959,5.2657-2.6019,5.7818c1.6594-0.3458,5.0043-1.3994,7.5926-2.6935c1.6313-0.8158,2.9515-1.7136,3.3115-2.5591
		c-0.8096-0.1259-2.3392-0.2607-3.9014-0.3631C116.68,102.6408,114.8961,102.5671,114.0262,102.5892L114.0262,102.5892z
		 M127.1571,103.5014c-2.9568,1.5457-3.0662,1.7336-3.9444,4.8676l0.2764-0.0471c3.4597-0.5811,10.0159-1.6829,9.9343-5.5253
		c-1.2779-0.5465-2.9534-0.3347-4.4068-0.1511c-0.5981,0.0757-1.1608,0.1471-1.6478,0.1624
		c-0.0428,0.1426-0.0768,0.2931-0.0768,0.4728v0.1502L127.1571,103.5014L127.1571,103.5014z M79.9268,105.3833
		c0.284,0.0587,0.5695,0.127,0.8629,0.2395c0.826-0.007,1.6787-0.2168,2.5628-0.4339c1.0023-0.2461,2.0438-0.5021,3.1535-0.5021
		h0.25v0.2501c0,0.1259,0.0332,0.2605,0.0746,0.3963c0.4266-0.006,0.9581-0.0063,1.5678-0.0054
		c4.25,0.0049,12.3568,0.0142,15.4647-2.2592c-0.6401-0.0411-1.5146-0.1193-2.5537-0.2115
		c-2.9109-0.2588-7.1286-0.6333-11.0778-0.6333C84.9416,102.2238,80.1692,102.8828,79.9268,105.3833L79.9268,105.3833z
		 M136.3473,103.9413c1.3561,0.0329,2.3134,0.0567,4.2251,1.3161c0.2288-0.0471,0.4065-0.3376,0.5428-0.7146
		c0.2693-0.7444,0.3467-1.789,0.362-2.2507c-1.2112-0.4677-3.4722-0.1681-5.0134,0.0363c-0.2854,0.0377-0.5474,0.0729-0.7719,0.0989
		l-0.165,1.4854C135.8272,103.9291,136.0945,103.9354,136.3473,103.9413L136.3473,103.9413z M187.3491,103.5394
		c5.394,0.0632,5.9156,0.0732,6.1747,0.2835c3.2621-0.0049,5.3756-0.2495,6.4287-1.3278c1.0437-1.069,1.0913-3.02,0.244-6.4554
		c-0.7197-0.3325-1.5259-0.4836-2.3726-0.4836c-1.8992,0-3.9983,0.754-5.8184,1.9035c-1.8207,1.1497-3.3574,2.6912-4.1326,4.2647
		C187.5733,102.3326,187.3896,102.9455,187.3491,103.5394L187.3491,103.5394z M204.2598,102.7704
		c0.6463,0.0768,1.283,0.2032,1.9188,0.3302c1.0783-0.1346,2.1577-0.269,3.2513-0.3441c0.29-1.1616,0.4688-2.5623,0.5301-3.886
		c0.0615-1.3311,0.0045-2.5821-0.1788-3.4342c-4.1474-0.6758-5.3612-0.2755-5.6279,1.3253
		c-0.1239,0.7444-0.0697,1.7509-0.0017,3.0141C204.1985,100.656,204.2529,101.6591,204.2598,102.7704L204.2598,102.7704z
		 M211.7452,97.5124c-0.1414,1.4249-0.2943,2.9681,0.0233,4.5c0.9442-0.0998,2.109-0.8859,3.1371-1.914
		c0.6973-0.6973,1.3269-1.5035,1.7805-2.2833c0.4436-0.7631,0.7174-1.4952,0.7174-2.0645c0-0.2633-0.0604-0.4867-0.1939-0.6542
		c-0.8155-0.0695-2.2623-0.0561-3.4801,0.0519c-0.851,0.0751-1.5724,0.1894-1.8377,0.3379
		C211.8838,96.1225,211.8155,96.8031,211.7452,97.5124L211.7452,97.5124z M178.6388,101.3913
		c0.2934,0.0258,0.6108,0.0782,0.9289,0.131c2.6756,0.2443,4.6105-0.1072,6.3471-0.993c1.7235-0.879,3.2709-2.2927,5.1582-4.176
		c-0.0561-0.4102-0.057-0.8095-0.057-1.2084v-0.2118l0.21-0.0343c1.554-0.2528,3.1034-0.4875,4.6579-0.7117
		c1.4715-0.2126,2.9886-0.4218,4.5298-0.6319c0.2494-1.4179,0.5533-3.6638,0.5533-5.3824c0-1.091-0.1077-1.9417-0.4093-2.1416
		c-3.7264-0.1916-8.7548,1.9052-13.1014,4.9898C183.3089,93.9645,179.7951,97.7995,178.6388,101.3913L178.6388,101.3913z
		 M93.7392,101.0522c1.4122,0.1335,2.8522,0.2642,4.2922,0.3951c0.5054-0.0244,2.0021-0.2511,3.8784-0.5352
		c4.4033-0.667,10.8725-1.6458,12.022-1.0525c0.57-0.0542,2.1257-0.7597,3.8891-1.5594c2.1356-0.9678,4.5703-2.0707,6.0667-2.3635
		c0.034-0.133,0.0686-0.2642,0.1032-0.3881c-0.5261-0.1114-1.0443-0.2115-1.5531-0.3096c-1.6747-0.3223-3.2774-0.631-4.5199-1.2118
		c-2.3887,0.0215-8.458,1.5157-13.955,3.187C99.0357,98.7128,94.5802,100.3121,93.7392,101.0522L93.7392,101.0522z M175.1,100.3288
		v0.8521c0.5885-0.1026,1.1778-0.1641,1.7671-0.2234c0.5034-0.7552,1.0103-1.5083,1.5678-2.2153
		c-0.661-0.3872-1.1653-0.665-1.6316-0.8671c-0.5184-0.2245-1.006-0.3636-1.6345-0.4682l-0.1488-0.0247l-0.0473-0.1443
		c-0.6673-2.0321-1.1815-4.5573-1.6866-7.0393c-0.6772-3.3273-1.3394-6.5781-2.3253-8.4095
		c-1.7079,0.0431-2.7332,0.8399-3.3313,2.0117c-0.6352,1.2444-0.8096,2.9169-0.8096,4.576v0.1789l-0.1721,0.0572
		c-0.1698,0.0564-0.3396,0.1137-0.5057,0.2098c-0.0425,0.2032-0.0485,0.3759,0.0017,0.5587
		c0.057,0.2072,0.1868,0.4448,0.4122,0.7639c0.773,0.0235,1.6716,0.2506,2.6529,0.4986c1.1548,0.292,2.4285,0.6149,3.7038,0.652
		l0.3909,0.0116l-0.1741,0.3487c-0.0329,0.0664-0.0663,0.15-0.0882,0.2381c-0.0176,0.0714-0.0295,0.1491-0.0295,0.2265v0.1533
		l-0.1386,0.0692c-0.32,0.1599-1.2716,0.1559-2.6028,0.1503c-0.5562-0.0023-1.1806-0.004-1.8519,0.0039l0.1976,0.0233l0.1536,0.0193
		l0.0513,0.1457c0.1216,0.3447,0.3716,0.8569,0.661,1.45c0.7112,1.4576,1.6577,3.3965,1.6577,4.8251v0.4045l-0.3614-0.1808
		c-0.5077-0.2537-1.031-1.0256-1.4851-1.9219c-0.5888-1.1617-1.0791-2.5563-1.2558-3.2536l-0.4025,0.1006
		c0.197,1.69,0.4504,2.9112,0.6389,3.8191c0.1593,0.7671,0.2738,1.3175,0.2738,1.7521v0.1593l-0.1457,0.0672
		c-0.5513,0.2543-0.83,0.1656-1.046-0.3025c-0.1145-0.2483-0.1936-0.6186-0.3036-1.1353c-0.0933-0.4372-0.2095-0.9831-0.3846-1.6348
		h-0.2333c-0.0116,0.1471-0.0173,0.3025-0.0224,0.4603c-0.0329,1.0287-0.0689,2.1271-1.51,2.0585l-0.1454-0.0068l-0.0655-0.1307
		c-0.3776-0.7551,0.1794-3.2547,0.438-4.4141l0.0556-0.2477c-0.7569,0.0686-1.423,0.2041-2.0529,0.3319
		c-1.1449,0.2325-2.179,0.4425-3.4452,0.2166l-0.1454-0.0258l-0.0476-0.1423c-0.0788-0.2364-0.1579-0.4737-0.1579-0.654v-0.267
		l0.2668,0.0182l0.0496,0.0034c1.0378,0.0694,4.2894,0.2872,5.1231-1.2762c-1.2699-0.1984-4.5329-0.9643-7.4211-1.6413
		c-2.408-0.5646-4.496-1.1185-4.8742-1.1894c-0.1026,1.5922,0.0315,3.1952,0.1667,4.7979c0.1026,1.2192,0.2052,2.4389,0.2052,3.6584
		l-0.0479,0.1465c-0.1826,0.2512-0.3634,0.3875-0.5409,0.4247v0.0002c-0.3572,0.0757-0.6134-0.1953-0.7883-0.7058h-0.0003
		c-0.1364-0.3974-0.2364-0.9697-0.307-1.6364c-0.2597-2.446-0.1295-6.2674-0.0011-7.382c-0.2631-0.0406-0.434-0.0584-0.5545-0.0414
		c-0.1006,0.0142-0.1814,0.066-0.2863,0.1633c-0.1009,1.8014,0.11,3.6366,0.3297,5.5451c0.1942,1.6871,0.3954,3.4316,0.3954,5.2858
		v0.195l-0.1893,0.047c-0.0734,0.0182-0.1469,0.0431-0.2203,0.0711c3.5076,1.0542,10.2498,0.5188,16.2377,0.0439
		c3.0047-0.2384,5.8212-0.462,7.971-0.462h0.25V100.3288L175.1,100.3288z M167.8,92.5642c0.0425-0.0255,0.0819-0.0454,0.123-0.0593
		l-0.1361,0.0028L167.8,92.5642L167.8,92.5642z M219.956,101.1348v0.0669l0.4456-0.0457c0.9108-0.0893,1.8485-0.1814,2.721-0.6177
		l0.1616-0.0805l0.1264,0.1264c0.1227,0.1228,0.2406,0.2846,0.356,0.4541c0.6835-0.2573,1.0772-0.5935,1.2989-1.0148
		c0.2033-0.3866,0.2727-0.8623,0.29-1.4249c-0.7588,0.2976-1.624,0.7687-2.4559,1.2223
		C221.7728,100.4349,220.7038,101.0191,219.956,101.1348L219.956,101.1348z M58.5578,95.9757
		c0.2636,1.6042,0.7705,3.2389,1.5602,4.8728c0.2769-0.1692,0.5156-0.3787,0.714-0.603c0.2231-0.2523,0.3957-0.5224,0.5111-0.7789
		c-3.3032-1.3666-2.5764-7.194-2.1796-10.3726c0.0814-0.6503,0.1488-1.1871,0.163-1.5298c-0.3552-0.261-0.6004-0.411-0.8113-0.4938
		c-0.1395-0.055-0.2693-0.0797-0.415-0.0907c0.0085,1.0619,0.0686,2.1382,0.1312,3.2669l0.006,0.106
		c0.0414,0.0369,0.0887,0.0723,0.1559,0.1058l0.1627,0.0814l-0.0272,0.1783C58.2718,92.4083,58.2616,94.1743,58.5578,95.9757
		L58.5578,95.9757z M132.745,99.3016c-0.337,0.3657-0.5561,0.8121-0.6134,1.33c1.0542-0.0828,2.1762-0.0553,3.3395-0.0263
		c1.8346,0.0459,3.7755,0.0944,5.6897-0.2946c-0.8478-1.084-2.0642-1.7552-3.333-2.0588c-0.9904-0.2373-2.0129-0.2506-2.9169-0.0629
		C134.022,98.3732,133.251,98.7519,132.745,99.3016L132.745,99.3016z M119.5951,100.2804c0.0025,0.0286,0.0071,0.0592,0.0116,0.0891
		c0.322,0.0048,0.6531,0.019,0.9737,0.0334c0.3342,0.0151,0.6571,0.0301,0.987,0.0301c1.3153,0,2.2737-0.2939,2.342-2.1855
		c-1.5514-0.1264-2.8899,0.862-4.0164,1.6952l-0.303,0.2239c0.0011,0.0385,0.002,0.0771,0.0051,0.1131V100.2804L119.5951,100.2804z
		 M126.6744,97.7632c-0.3439,1.8185-0.4192,2.2241-0.4127,2.3377c1.0222,0.1018,3.2556-1.095,4.8918-1.9718
		c0.3495-0.1871,0.6735-0.3591,0.9505-0.5014C130.2338,97.6336,128.4523,97.6978,126.6744,97.7632L126.6744,97.7632z
		 M218.5299,98.5549c-0.4269,0.4187-1.1565,1.1367-0.8464,1.5517c0.0581,0.011,0.1194,0.0141,0.1826,0.0105v-0.0003
		c0.3141-0.0198,0.6687-0.2086,0.9765-0.4867v-0.0009c0.3169-0.2857,0.5786-0.6613,0.6956-1.0425
		c0.0247-0.08,0.0428-0.1602,0.0536-0.2398h-0.8535C218.6802,98.4087,218.609,98.477,218.5299,98.5549L218.5299,98.5549z
		 M227.7014,96.9536c0.1262,0.5264,0.2982,1.1092,0.474,1.6963c1.0741,0.0082,2.2669-0.8586,3.3137-1.6192
		c0.1908-0.1386,0.3784-0.2733,0.5587-0.3997c-1.0173-0.8187-2.4888-0.8722-3.2032-0.8756
		C228.5306,96.2597,228.2465,96.701,227.7014,96.9536L227.7014,96.9536z M61.8843,93.8166c0.1684,1.235,0.4011,2.5532,0.6959,3.9237
		c0.2066-0.0473,0.3095-0.1397,0.6951-0.5247c-0.2404-1.8899-0.6608-3.3055-1.0806-4.7206
		c-0.2032-0.6845-0.4062-1.3688-0.5913-2.1161l-0.0374-0.007C61.6099,91.4221,61.7156,92.5801,61.8843,93.8166L61.8843,93.8166z
		 M222.5401,96.9655c0.0352,0.042,0.0763,0.0856,0.1194,0.1298c0.6307-0.1891,1.6789-0.5272,2.641-0.9629
		c0.7846-0.3555,1.5097-0.7708,1.876-1.2073c-0.8223,0.0924-1.7167,0.3447-2.5262,0.69
		C223.7738,95.989,223.0036,96.4692,222.5401,96.9655L222.5401,96.9655z M132.116,95.6208c3.4466,0.066,3.5527,0.0737,4.1105,0.2818
		c0.2744-0.0105,0.54-0.1284,0.8084-0.2469c0.5539-0.2446,1.1194-0.4938,1.9179-0.0964c0.2132-0.1979,0.4269-0.3648,0.6409-0.5264
		c-0.2676-2.306,0.5511-3.0447,1.3059-3.7239c0.3881-0.3492,0.7569-0.6803,0.8963-1.2475
		c-0.5692,0.1817-2.2334,1.2138-4.0527,2.3431c-2.0704,1.2849-4.335,2.6918-5.6273,3.1382V95.6208L132.116,95.6208z
		 M64.8629,94.4736c-0.0417,0.2083-0.0567,0.4229-0.0626,0.6389c0.8048-0.5287,0.6154-1.8062,0.1939-3.1068
		c-0.216-0.6661-0.4955-1.3419-0.7413-1.9377c-0.2616-0.6339-0.4867-1.1804-0.5718-1.5608
		c-0.0842-0.0145-0.1723-0.0199-0.2619-0.0221c-0.1021,0.4595,0.0323,1.8008,0.322,3.1124c0.25,1.1313,0.6185,2.2159,1.0534,2.6507
		l0.0947,0.0947L64.8629,94.4736L64.8629,94.4736z M258.1263,93.0693c0.9672,0.3181,1.9647,0.6465,2.9761,1.0168
		c0.1037-0.036,0.2015-0.0479,0.2965-0.0525c0.2514-0.4124,0.2784-0.5788,0.5145-2.4659c-1.1126-0.3988-2.3264-0.7738-3.2338-0.6931
		c-0.8322,0.0743-1.406,0.5802-1.364,1.9278l0.8098,0.2668H258.1263L258.1263,93.0693z M230.1696,92.9885l1.1339,0.7557
		l0.1803,0.0009c1.4675,0.0088,5.4456,0.0326,6.5203-1.5477l0.1457-0.1026c2.0438-0.5108,6.0165-3.2755,9.9164-6.3953
		c4.8546-3.8837,9.5817-8.2749,10.317-9.5388c-4.8464-0.08-7.6411,2.4981-10.7167,5.3382
		c-2.2017,2.0333-4.5471,4.1987-7.8899,5.6543c-1.084,0.7858-2.6844,1.3867-4.2838,1.9871
		C232.7862,90.1561,230.0808,91.1732,230.1696,92.9885L230.1696,92.9885z M203.9003,91.0403
		c-0.1012,1.247,0.5103,1.8641,3.7137,2.1263c0.7126-0.0649,1.4256-0.1281,2.1305-0.1406c0.0159-0.5185,0.0377-1.0185,0.059-1.5029
		c0.0887-2.0004,0.1661-3.7485-0.2667-4.8489c-0.5108-1.2977-1.8252-1.6895-4.9207-0.5006
		c-0.0366,1.3768-0.2744,2.5075-0.4691,3.4387C204.0333,90.1573,203.9335,90.6335,203.9003,91.0403L203.9003,91.0403z
		 M212.476,92.5262c1.3178-0.123,3.3522-0.3123,4.4371,0.3625c1.8227,0.2109,5.872-0.7668,10.0259-2.1467
		c4.4186-1.4678,8.9391-3.3882,11.0248-4.8211l-0.0553-0.1109c-5.2857-0.2823-10.5449-0.2129-15.6969-0.1448
		c-3.7035,0.049-7.3528,0.0981-10.9171,0.0147c-0.0374,0.6755,0.0167,2.1098,0.1131,3.5283c0.0952,1.4026,0.231,2.7802,0.356,3.3778
		C211.9578,92.5758,212.2002,92.552,212.476,92.5262L212.476,92.5262z M66.8642,91.1188c0.1103,0.309,0.212,0.5448,0.2631,0.6069
		c0.1865-0.011,0.2996-0.0748,0.3628-0.1819c0.0788-0.133,0.1103-0.3388,0.1168-0.6012c-0.5034-0.4113-0.6398-0.5148-0.9595-0.6256
		C66.6987,90.5935,66.7769,90.8736,66.8642,91.1188L66.8642,91.1188z M154.3229,88.9546c1.6316,0.8022,3.6147,1.3354,5.2855,1.692
		l0.6015-0.0239h0.0009c1.3754-0.0522,2.7774-0.1051,4.3625-0.4907c-0.0448-0.4975-0.0519-0.951-0.0527-1.3977
		c-2.344-0.3813-4.1494-1.0528-5.7886-1.6628c-2.4452-0.9096-4.515-1.679-7.4826-1.0939c0.3617,1.2668,1.5673,2.2354,3.0739,2.9767
		L154.3229,88.9546L154.3229,88.9546z M69.0367,89.5223c0.0383,0.0807,0.0808,0.1667,0.1236,0.2528
		c0.0774-0.0164,0.1287-0.0641,0.2341-0.206C69.3301,89.5515,69.2252,89.5385,69.0367,89.5223L69.0367,89.5223z M59.641,85.9839
		c0.5663,0.3313,1.1758,0.7472,1.8649,1.2606c0.9102-0.2353,1.0732-1.0335,0.8682-2.0596
		c-0.2752-1.3774-1.1851-3.1473-1.9465-4.6276c-0.5312-1.0332-0.9916-1.9295-1.1347-2.5002
		c-0.0587-0.019-0.1159-0.0368-0.1684-0.051c-0.4184,1.95-0.9972,4.6848-1.0231,7.2434c0.5023,0.1811,1.004,0.4209,1.5395,0.7336
		V85.9839L59.641,85.9839z M66.1955,85.4373c0.2529,0.2036,0.5363,0.4323,0.7792,0.7455h0.8136l0.0303-0.0433
		c-0.267-0.3235-0.5034-0.6177-0.7364-0.9085c-0.419-0.042-0.8133-0.0541-1.1999-0.0578
		C65.9724,85.2576,66.0798,85.3443,66.1955,85.4373L66.1955,85.4373z M223.9322,83.103l0.0009,0.0006
		c-0.1123,0.1823-0.1877,0.3951-0.218,0.638l0.1973,0.0054c1.2342,0.0399,3.7585,0.1224,4.5975-1.1078
		c-0.6432-0.3376-1.4502-0.5227-2.2223-0.5227v0.0012c-0.5111,0-1.0043,0.0802-1.4208,0.2483
		C224.4668,82.5278,224.1366,82.7713,223.9322,83.103L223.9322,83.103z M256.748,74.8133l-0.0207,0.0709
		c0.0723-0.0167,0.1313-0.0329,0.1812-0.0502C256.8538,74.8256,256.8008,74.8187,256.748,74.8133L256.748,74.8133z
		 M194.7697,62.7621c1.8615,0.9207,3.6992,1.8295,5.4695,2.1725c0.1103-0.042,0.2137-0.0561,0.3138-0.0609
		c0.5352-1.0176,0.7438-3.3622,0.7668-5.9519c0.0346-3.8503-0.3473-8.2091-0.6778-9.6324
		c-0.1568-0.0176-0.3314-0.0269-0.5193-0.0269c-2.1943,0-6.1214,1.1928-9.5936,2.9126c-3.4404,1.7045-6.4185,3.9124-6.7584,5.9525
		c-0.0139,0.0845-0.0224,0.1704-0.0269,0.2566c0.1227,0.1057,0.2676,0.239,0.4306,0.3886c0.8643,0.7935,2.2558,2.071,3.6281,2.2008
		c0.0295-0.1584,0.0802-0.3129,0.1315-0.4666l0.0652-0.1948l0.2013,0.0247l0.0113,0.0014l-0.0306-0.0439
		c-0.0269-0.0388-0.0476-0.0825-0.0624-0.1304l-0.0011-0.002c-0.1602-0.5341,0.6426-2.2246,1.6033-3.8517
		c0.9456-1.6016,2.0531-3.1762,2.5282-3.5092l-0.0003-0.0003c0.0575-0.0405,0.1142-0.0694,0.1689-0.0859l0.3104-0.0938l0.0108,0.324
		c0.0312,0.9423,0.4167,1.9086,0.8254,2.9353c0.506,1.2699,1.0477,2.6294,1.0477,4.2007v0.1032l-0.0734,0.0734
		c-0.2892,0.2892-0.2894,0.2895-0.9686,0.2895l-0.0956-0.0196c-1.7416-0.7253-2.8105-0.5034-3.7695-0.3041
		c-0.3691,0.0765-0.7231,0.151-1.0945,0.1734C190.6855,60.7427,192.7423,61.7595,194.7697,62.7621L194.7697,62.7621z
		 M307.2807,32.8311c2.3513,0.6554,4.5127,1.292,5.002,1.5122l0.8553,0.0046c2.6461,0.0178,2.9203,0.0207,2.9401-2.2187
		c-0.3297,0.1177-0.373,0.1883-0.5097,0.4107h-0.0011c-0.0635,0.1032-0.1429,0.2322-0.2571,0.3955l-0.127,0.0947
		c-3.9112,1.2863-5.9099-0.0284-6.5608-2.0067c-0.3181-0.9675-0.3036-2.0948-0.0264-3.1481c0.2769-1.052,0.8181-2.0367,1.552-2.7199
		c1.3757-1.2804,3.3987-1.5244,5.6137,0.7339c0.0746-0.0644,0.1565-0.125,0.2534-0.1749c0.1267-3.0404,0.1423-3.331,0.3733-3.8174
		c-0.1018-0.0671-0.2506-0.0995-0.4408-0.0995c-0.8167,0-2.2068,0.5689-3.8259,1.4292c-1.6492,0.8762-3.5181,2.0469-5.265,3.2301
		c-2.956,2.0021-5.5681,4.0008-6.1433,4.6426C301.7381,31.3273,304.6382,32.0944,307.2807,32.8311L307.2807,32.8311z"/>
</g>
</svg>
