<?xml version="1.0" encoding="utf-8"?>
<!-- Generator: Adobe Illustrator 21.1.0, SVG Export Plug-In . SVG Version: 6.00 Build 0)  -->
<svg version="1.1" id="H" xmlns="http://www.w3.org/2000/svg" xmlns:xlink="http://www.w3.org/1999/xlink" x="0px" y="0px"
	 viewBox="0 0 388.4399 120.6" enable-background="new 0 0 388.4399 120.6" xml:space="preserve">
<g>
	<path fill-rule="evenodd" clip-rule="evenodd" d="M0.144,120.528c0-0.36-0.072-0.792-0.144-1.224
		c0.288-0.288,0.576-0.576,0.936-0.936c1.512-0.504,3.024-1.08,4.608-1.656c-0.216-1.656-0.432-3.312-0.72-5.04
		c-1.008-2.88-1.008-2.88-1.008-4.104c0.648-1.44,1.296-2.88,1.944-4.32c1.44-2.16,2.88-4.32,4.32-6.48
		c0.936-2.16,4.824-8.856,5.76-11.304c0.936-1.656,0.936-1.656,2.016-2.88c0.576-0.288,1.152-0.576,1.8-0.936
		c0.648-1.08,1.296-2.232,1.944-3.384c2.88-3.6,4.104-4.536,5.976-7.2c3.888-4.32,4.824-5.76,5.472-6.12c0.576,0,1.224,0,1.872,0
		c1.584,0.432,3.168,0.936,4.824,1.44c1.584,0.144,3.168,0.288,4.824,0.504c0.72-0.72,1.44-1.44,2.16-2.16
		c1.872-2.52,3.816-5.04,5.76-7.56c1.872-3.384,1.872-3.384,3.816-6.264c0-0.36,0-0.72,0.072-1.152
		c-4.896-0.144-10.656,0.072-30.096,0.072c-0.432-0.504-0.432-0.504-0.576-1.296c1.872-3.384,2.88-5.976,3.312-6.48
		c0.936-0.288,1.872-0.576,2.808-0.864c6.048-0.36,12.096-0.792,18.216-1.224c0.72,0.288,0.72,0.288,8.928,0
		c2.16-0.288,4.32-0.576,6.48-0.936c0.288-0.36,0.576-0.792,0.936-1.224c1.656-0.936,1.656-0.936,4.824-3.816
		c0.576-0.936,1.152-1.944,1.728-2.952c0.36-0.288,0.72-0.648,1.08-1.008c2.232-0.864,5.112-1.296,5.832-1.8
		c9.936-2.088,19.944-4.176,29.952-6.264c0.576-0.288,1.152-0.576,1.728-0.936c0-0.576,0-1.152,0.072-1.8
		c-0.936-1.512-1.872-3.024-2.88-4.536c-3.384-2.88-4.32-4.104-12.456-11.52c-0.504-0.72-0.504-0.72-0.504-1.656
		c0.144-0.144,0.288-0.288,0.504-0.504c3.456-0.072,6.912-0.216,10.44-0.36c0.144-0.216,0.288-0.432,0.504-0.648
		c0.36,0,0.72,0.072,1.152,0.144c1.008,1.224,1.008,1.224,6.264,5.76c0.36,0.144,0.792,0.288,1.224,0.504
		c4.752,4.032,4.752,4.032,5.76,5.256c2.952,2.304,5.904,4.608,8.856,6.984c0.432,0.072,0.936,0.144,1.44,0.216
		c2.16-0.288,4.32-0.576,6.48-0.9359c3.6-1.0081,13.896-2.88,17.496-3.888c6.264-0.936,16.56-1.872,19.728-2.376
		c0.864,0,1.728,0,2.5919,0c1.728-0.504,15.4081-2.376,20.88-3.6c0.288,0.144,0.648,0.288,1.008,0.504
		c0.072,0.576,0.144,1.152,0.288,1.8c1.944,3.6,2.448,5.04,3.024,5.76c5.328,1.8,5.328,1.8,12.024,4.68
		c1.44,0.936,3.816,1.872,16.056,8.136c0.504,0.504,0.504,0.504,8.208,4.32c2.592,1.944,2.592,1.944,3.6,2.376
		c0.072,0.432,0.144,0.864,0.288,1.368c-0.72,0.36-1.44,0.792-2.16,1.224c0,0.288,0,0.576,0,0.936
		c1.44,0.936,1.44,0.936,3.024,2.664c6.984,3.672,6.984,3.672,7.488,4.176c0.504,0.144,1.08,0.288,1.656,0.432
		c5.04,3.888,5.04,3.888,8.424,6.048c2.592,0.432,2.592,0.432,5.04,1.44c2.16,0,6.192-0.504,14.616-0.72
		c0.36-0.144,0.792-0.288,1.224-0.504c1.152,0.216,1.152,0.216,4.752,0c2.4481-0.504,2.4481-0.504,11.088-0.936
		c11.952-1.944,26.352-3.888,33.552-5.328c4.176-0.576,8.352-1.224,12.528-1.872c0.864-0.288,1.728-0.648,2.592-1.008
		c2.736,0,5.472,0,8.2079,0c3.096-0.432,9.576-0.432,12.96-0.936c0.432-0.144,0.936-0.288,1.44-0.504c1.656,0,3.312,0,5.04,0
		c1.656-0.432,6.696-0.936,8.64-1.44c1.296-0.072,2.664-0.144,4.032-0.216c0.2161,0.288,0.432,0.576,0.72,0.864
		c-0.4319,0.576-0.4319,0.576-1.4399,1.08c-3.312,0.432-3.312,0.432-4.32,0.936c-2.16,2.232-4.32,4.464-6.48,6.696
		c-1.728,2.088-3.4559,4.248-5.184,6.408c0,0.288,0,0.576-0.072,0.936c8.424-1.296,8.424-1.296,10.296-1.296
		c4.32-1.008,4.32-1.008,5.544-1.008c0.144,0.288,0.288,0.576,0.504,0.864c-1.0081,1.44-1.0081,1.44-1.872,3.384
		c-0.2881,0.216-0.648,0.504-1.0081,0.792c-5.7599,0.504-7.488,1.008-10.584,1.44c-3.6,1.008-3.6,1.008-8.64,1.944
		c-1.44,1.224-2.88,2.52-4.32,3.816c-0.936,1.4399-4.824,5.3279-12.744,14.184c-3.888,5.4-7.776,10.8-11.736,16.2
		c-1.8,3.384-3.744,6.048-4.68,7.92c-0.072,0.432-0.216,0.936-0.36,1.44c2.808,0.288,5.616,0.576,8.424,0.864
		c3.888,0.144,7.776,0.288,11.736,0.432c0.144,0.144,0.36,0.288,0.576,0.432c0,0.288,0,0.648-0.072,1.008
		c-14.904,0-14.904,0-21.888-0.432c-0.792,0.216-1.584,0.432-2.376,0.72c-0.504-0.72-0.504-0.72-1.224-1.008
		c-3.312-0.144-6.696-0.288-10.08-0.432c-4.104,0.0721-8.28,0.144-12.4561,0.216c-3.6,0.504-12.4559,0.936-13.176,1.224
		c-7.272,0-14.544,0-21.888,0c-24.192,0.936-29.52,1.44-36.72,1.44c-1.1519,0.144-2.376,0.288-3.6,0.432
		c-8.136-0.216-8.136-0.216-13.68,0c-0.936,0.288-0.936,0.288-19.8719,1.008c-5.04-0.288-12.024-0.288-13.68,0
		c-3.888,0-13.464,0.936-25.704,1.44c-2.376-0.072-4.752-0.144-7.2-0.288c-7.92,0.144-15.84,0.288-23.76,0.504
		c-5.832,0.288-11.664,0.576-17.496,0.936c-0.792,0.144-1.584,0.288-2.448,0.504c-2.88-0.072-5.76-0.144-8.64-0.216
		c-1.728,0.216-3.456,0.432-5.256,0.72c-3.024,0.072-6.048,0.144-9.144,0.216c-0.216-0.144-0.432-0.288-0.72-0.504
		c-5.976,0.288-8.352,0.72-24.192,1.44c-1.008,0.288-17.568,0.72-18.504,1.008c-1.008,0-2.016,0-3.096,0
		c-0.36-0.288-0.792-0.648-1.224-1.008c-2.808,0-5.616,0-8.424,0c-8.352,1.008-8.352,1.008-21.312,1.944
		c-0.864,0.288-1.728,0.576-2.664,0.936C1.152,120.6,0.648,120.6,0.144,120.528L0.144,120.528z M15.264,114.408
		c-2.448-0.216-4.896-0.432-7.416-0.648c0-0.864-0.072-1.728-0.144-2.592c0.36-0.072,0.72-0.216,1.08-0.36
		c19.656-0.504,25.704-1.008,38.664-1.44c1.152-0.288,18.72-0.504,21.096-0.72c4.968,0,9.936,0,14.904,0
		c3.312-0.144,6.696-0.288,10.08-0.504c1.152-0.504,1.152-0.504,3.096-0.72c0.504-0.504,0.504-0.504,0.576-1.512
		c-0.216-0.144-0.504-0.288-0.792-0.432c-4.464,0.216-8.928,0.432-13.464,0.72c-13.464,0-15.624,0.288-34.056,0.504
		c-17.064,0.936-17.064,0.936-17.784,1.224c-8.136,0.144-16.272,0.36-24.48,0.576c0.216-1.008,0.504-2.016,0.792-3.096
		c1.296-2.304,2.592-4.608,3.888-6.984c0.648-0.072,1.296-0.216,2.016-0.36c6.984,0.216,22.104-0.216,31.968-0.216
		c5.04-0.288,5.04-0.288,45.36-1.008c1.08-0.144,2.16-0.288,3.312-0.432c0.792-0.288,1.584-0.648,2.448-1.008
		c1.944,0.072,3.96,0.144,5.976,0.288c8.856-0.504,8.856-0.504,18.504-0.504c10.584-0.72,21.24-1.44,31.896-2.16
		c5.4-0.072,10.872-0.144,16.344-0.216c2.736-0.288,5.544-0.648,8.352-1.008c4.896-0.144,9.7921-0.288,14.688-0.432
		c5.976-0.6479,11.952-1.296,18-1.944c8.64-0.504,17.28-1.08,25.92-1.656c14.4,0.432,14.4,0.432,18.72,0.216
		c1.584-0.288,3.168-0.576,4.752-0.936c18-1.944,30.024-2.88,31.968-3.384c2.16-0.144,4.3199-0.288,6.48-0.504
		c5.04-0.936,5.04-0.936,15.84-2.16c12.2401-0.936,12.2401-0.936,23.76-2.376c0.72-0.144,1.44-0.288,2.16-0.504
		c2.952-0.072,5.904-0.216,8.856-0.36c-5.256,7.344-5.256,7.344-5.976,7.848c-1.872,2.304-1.872,2.304-10.368,15.12
		c-20.376,2.16-20.376,2.16-23.04,2.16c-0.432-0.072-0.936-0.144-1.44-0.288c-6.48,0.504-7.632,0.288-13.176,0.504
		c-3.2401,0.288-6.5521,0.576-9.8641,0.936c-6.4799,0-6.4799,0-18,0.504c-9.072,0.936-9.072,0.936-11.2319,0.936
		c-1.44-0.432-1.44-0.432-2.448-0.432c-0.216,0.144-0.432,0.288-0.72,0.432c-7.632,0.288-7.632,0.288-11.952,0
		c-1.44,0.216-2.88,0.432-4.32,0.72c-12.744,0.72-12.744,0.72-29.088,1.008c-0.432-0.288-0.432-0.288-11.5201,0.216
		c-1.656,0.144-3.312,0.288-5.04,0.504c-7.416,0-24.696,0.936-25.632,0.72c-12.24,0.72-12.24,0.72-21.6,0.936
		c-5.328-0.216-5.328-0.216-15.624,0c-1.584,0.216-3.168,0.432-4.824,0.72c-4.608,0.0721-9.216,0.144-13.896,0.216
		c-4.536,0.288-9.072,0.648-13.68,1.008c-25.416,0.72-26.136,0.936-39.096,1.44c-2.88-0.072-5.76-0.144-8.64-0.288
		C30.384,113.4,28.944,113.688,15.264,114.408L15.264,114.408z M18.36,95.904c-1.512-0.144-3.024-0.36-4.536-0.576
		c0-0.216-0.072-0.432-0.144-0.72c3.816-7.2,3.816-7.2,5.184-9.288c0.792-0.072,1.584-0.144,2.376-0.216
		c1.008,0.216,2.088,0.432,3.168,0.72c18-0.216,20.16-0.504,23.976-0.504c2.664,0.288,2.664,0.288,19.656,0.288
		c12.96-0.72,40.608-1.44,45.864-1.944c11.52-0.216,12.744-0.504,23.544-0.504c4.104-0.144,8.28-0.288,12.456-0.432
		c3.816-0.288,7.632-0.648,11.52-1.008c12.744-0.432,12.744-0.432,23.04-0.432c9.576-0.72,10.08-1.008,29.016-2.448
		c17.064-1.872,17.064-1.872,19.728-2.376c21.312-1.44,21.312-1.44,28.8-1.656c7.632-1.008,7.632-1.008,18-1.944
		c1.008-0.216,2.016-0.4319,3.096-0.72c3.312,0,6.696,0,10.08,0c2.8799-0.288,5.7599-0.576,8.64-0.936
		c1.512-0.288,3.024-0.648,4.536-1.008c4.824-0.432,4.824-0.432,7.488-0.936c2.952-0.072,5.9041-0.144,8.856-0.216
		c2.88-0.288,5.76-0.648,8.64-1.008c2.304-0.432,4.608-0.936,6.984-1.44c5.04-0.432,5.04-0.432,10.08-1.44
		c2.232-0.144,4.4641-0.288,6.696-0.432c1.224-0.288,2.52-0.648,3.816-1.008c0.504,0,1.008,0.072,1.584,0.144
		c0,0.216,0,0.432,0,0.72c-0.576,0.432-1.152,0.936-1.728,1.44c-0.288,0.576-0.576,1.152-0.936,1.728
		c-2.2321,2.376-4.4641,4.752-6.696,7.2c-5.688,0.576-11.376,1.152-17.136,1.728c-1.44,0.288-2.88,0.648-4.32,1.008
		c-10.368,0.72-10.368,0.72-12.24,0.576c0.576-0.36,1.224-0.72,1.8719-1.08c0.8641-1.296,0.8641-1.296,0.8641-2.016
		c-0.36-0.36-0.36-0.36-2.736-0.864c-1.944,0.216-1.944,0.216-3.6,0.72c-0.36,0.36-0.7919,0.72-1.2239,1.08
		c0,0.288-0.072,0.648-0.144,1.008c0.144,0.216,0.36,0.432,0.576,0.72c1.512,0.288,1.512,0.288,1.728,0.576
		c-0.936,0.432-0.936,0.432-3.384,0.936c-9.576,0.936-9.576,0.936-24.192,2.88C261,84.6,261,84.6,258.12,85.104
		c-1.224,0-2.52,0-3.816,0c-0.936,0.504-0.936,0.504-2.88,0.72c-12.024-0.216-12.024-0.216-14.4-0.504
		c-9.864,0.504-16.344,1.224-30.456,2.1599c-2.952,0.288-5.904,0.648-8.928,1.008c-12.96,0.432-13.896,0.72-24.192,1.152
		c-0.792,0.144-1.584,0.288-2.448,0.504c-5.976,0.144-11.952,0.2881-18,0.504c-22.032,1.872-25.416,1.872-30.456,2.376
		c-6.912,0.144-13.896,0.288-20.88,0.504c-1.656-0.288-1.656-0.288-6.696-0.288c-2.664,0.504-2.664,0.504-3.384,1.008
		c-5.976,0-5.976,0-12.024,0.36c-0.36-3.6-0.36-3.6-1.08-6.48c-0.576-0.216-1.152-0.432-1.8-0.648
		c-3.312,0.216-6.696,0.432-10.08,0.72c-0.576,0.432-1.152,0.864-1.8,1.368c-0.072,1.728-0.144,3.456-0.216,5.256
		c-0.072,0.072-0.216,0.216-0.36,0.36c-5.976,0.216-5.976,0.216-6.408-0.072c0-1.44,0-2.88,0-4.32
		c-0.144-0.288-0.288-0.648-0.432-1.008c-1.296-0.864-1.296-0.864-2.304-1.08c-2.376,0.0721-4.752,0.144-7.2,0.216
		c-0.936,0.144-1.872,0.288-2.88,0.504c-0.36,0.288-0.72,0.576-1.08,0.864c-0.144,1.656-0.288,3.312-0.504,5.04
		c-0.432,0.072-0.864,0.216-1.296,0.36C34.2,95.688,32.76,95.904,18.36,95.904L18.36,95.904z M25.56,83.664
		c-1.08-0.144-2.232-0.36-3.384-0.576c0-0.432,0-0.936-0.072-1.44c3.312-4.32,6.696-8.64,10.08-12.96
		c0.36-0.288,0.72-0.576,1.08-0.864c1.08,0.072,2.232,0.144,3.384,0.216c1.152,0.288,2.376,0.648,3.6,1.008
		c1.8,0.072,3.6,0.144,5.472,0.216c8.64-0.936,16.344-1.44,18.72-1.944c4.824-0.432,4.824-0.432,14.904-0.72
		c0.36,0.072,0.792,0.144,1.224,0.288c22.032-0.72,22.032-0.72,33.336-0.72c4.32-0.504,4.32-0.504,26.424-1.944
		c19.656-0.72,21.816-0.504,30.672-0.936c3.888,0.216,3.888,0.216,12.024,0c0.72-0.288,0.72-0.288,2.88-0.144
		c0.072,2.088,0.216,4.1761,0.36,6.264c-0.72,5.76-1.008,5.976-1.296,9.216c-7.272,0.288-14.544,0.576-21.888,0.936
		c-3.672,0.288-7.344,0.648-11.016,1.008c-39.816,1.152-39.816,1.152-42.264,1.44c-21.6,0.936-21.6,0.936-22.752,0.72
		c-10.368,0.216-18.288,0.72-31.464,0.936C43.56,83.448,41.4,83.664,25.56,83.664L25.56,83.664z M187.848,78.624
		c-0.432-1.8-0.432-1.8-0.432-2.952c0.288-0.504,0.288-0.504,1.008-7.704c-0.072-1.008-0.144-2.016-0.288-3.096
		c0.144-0.288,0.288-0.648,0.504-1.008c1.368-0.36,7.848-0.576,10.728-1.08c0.504,0,1.008,0.072,1.512,0.144
		c0.072,0.936,0.144,1.872,0.216,2.88c-0.432,2.664-0.936,5.4-1.4399,8.136c0,1.296,0,2.592,0,3.888
		C195.768,78.048,191.808,78.336,187.848,78.624L187.848,78.624z M202.68,77.688c-0.216,0-0.432-0.072-0.72-0.144
		c0-1.44-0.072-2.88-0.144-4.32c0.504-3.672,1.008-7.344,1.584-11.016c2.376-0.216,4.752-0.432,7.2-0.648
		c1.08,0,2.16,0.072,3.24,0.144c-0.216,5.04-0.504,6.48-0.936,14.904C212.04,76.968,212.04,76.968,202.68,77.688L202.68,77.688z
		 M218.088,76.104c0.072-0.36,0.144-0.72,0.288-1.152c1.44-1.728,2.88-3.528,4.32-5.328c0.504-0.288,1.008-0.576,1.584-0.864
		c1.944-2.376,1.944-2.376,3.168-3.312c1.584-2.16,3.168-4.32,4.752-6.48c2.16-0.504,2.16-0.504,12.024-1.728
		c1.08,0,2.232,0,3.384-0.072c0,0.288-0.072,0.576-0.144,0.936c-1.296,1.728-2.592,3.528-3.888,5.328
		c-1.872,2.232-3.816,4.464-5.76,6.696c-0.936,1.44-1.872,2.88-2.88,4.32C229.824,75.24,229.824,75.24,218.088,76.104
		L218.088,76.104z M237.96,74.232c0.072-0.576,0.216-1.152,0.36-1.728c3.816-4.32,3.816-4.32,4.8961-5.976
		c1.08-1.008,2.16-2.016,3.24-3.096c0.648-1.08,1.296-2.2321,1.944-3.384c0.792-1.008,1.656-2.088,2.52-3.168
		c2.7361-0.072,5.4721-0.216,8.208-0.36c1.152,0.072,2.376,0.144,3.6,0.288c0.072,0.072,0.144,0.216,0.216,0.36
		c-3.816,4.896-4.824,5.832-5.688,7.2c-0.144,0.432-0.288,0.936-0.432,1.44c-1.44,1.944-1.728,2.88-2.448,3.384
		c-2.592,3.816-2.592,3.816-3.168,4.176C246.816,73.656,242.424,73.944,237.96,74.232L237.96,74.232z M215.424,73.944
		c0.072-9.576,0.072-9.576,0.36-12.672c4.176-0.864,4.176-0.864,8.496-1.152c1.512,0,3.024,0.072,4.608,0.144
		c-1.872,2.232-3.816,4.536-5.76,6.84c-2.304,2.232-4.608,4.464-6.984,6.696C215.928,73.8,215.712,73.872,215.424,73.944
		L215.424,73.944z M257.184,73.368c-0.792-0.072-1.656-0.2159-2.52-0.36c0.072-0.36,0.144-0.792,0.216-1.224
		c3.096-4.536,3.096-4.536,4.104-6.696c1.872-2.232,3.816-4.464,5.7601-6.696c0.432-1.224,0.432-1.224,1.08-1.872
		c1.44,0,1.44,0,7.2,1.44c2.88,0,2.88,0,4.68,0.432c0,0.72,0,0.72-0.504,1.152c-0.936,1.728-1.44,2.16-2.376,4.32
		c-2.16,2.16-2.664,3.168-5.04,6.048c-0.504,1.656-0.504,1.656-0.864,2.016C265.032,72.36,261.144,72.864,257.184,73.368
		L257.184,73.368z M272.088,71.064c0.072-0.36,0.144-0.72,0.288-1.152c7.704-10.8,7.704-10.8,8.352-11.232
		c1.44,0.072,2.88,0.144,4.3201,0.288c0.2159-0.288,0.4319-0.648,0.72-1.008c1.944,0,3.96,0,5.976,0
		c0.72,0.144,1.44,0.288,2.16,0.504c0,0.288,0,0.576,0.072,0.864c-3.816,5.04-5.7599,7.2-7.632,9.864
		c-4.68,0.792-7.56,1.008-9.504,1.512C275.256,70.776,273.672,70.92,272.088,71.064L272.088,71.064z M289.8,68.7599
		c0-0.216-0.072-0.504-0.144-0.792c3.888-5.04,3.888-5.04,6.624-8.136c0.5759,0,1.152-0.072,1.728-0.144
		c0.936,0.288,1.872,0.576,2.88,0.936c2.376,1.512,4.824,3.096,7.272,4.68c-0.072,0.288-0.144,0.648-0.216,1.008
		c-1.44,0.432-2.952,0.864-4.464,1.296c-3.6,0.432-3.6,0.432-5.472,0.936C295.272,68.616,292.5359,68.688,289.8,68.7599
		L289.8,68.7599z M49.608,66.384c-0.216,0-0.432,0-0.72-0.072c0.072-0.36,0.144-0.792,0.288-1.224
		c3.888-5.544,3.888-5.544,4.824-6.48c3.816-6.48,3.816-6.48,5.688-9c3.096-0.144,6.192-0.288,9.36-0.504
		c1.872-0.504,1.872-0.504,6.192-0.72c0,0.288,0.072,0.576,0.144,0.864c-0.432,0.864-0.936,1.728-1.44,2.664
		c-3.168,4.32-6.408,8.64-9.648,12.96c-0.792,0.216-1.584,0.504-2.448,0.792C57.816,65.88,53.712,66.096,49.608,66.384
		L49.608,66.384z M310.68,64.728c-0.288-0.288-0.576-0.576-0.864-0.864c0-0.288,0-0.576,0-0.936
		c3.888-5.76,7.704-10.584,8.568-12.168c12.024-1.872,12.024-1.872,13.68-2.376c0.4321,0,0.864,0.072,1.296,0.144
		c-0.072,0.36-0.144,0.792-0.216,1.224c-3.528,4.536-7.056,9.072-10.584,13.68c-3.456,0.288-5.832,0.792-7.272,0.792
		C312.84,64.728,312.84,64.728,310.68,64.728L310.68,64.728z M325.584,63.6479c0.216-0.72,0.504-1.44,0.792-2.16
		c3.888-4.536,3.888-4.536,8.64-10.8c0.432-0.936,0.864-1.872,1.368-2.808c2.664-0.72,9.144-1.656,10.296-2.16
		c2.16-0.216,2.16-0.216,2.88-0.0721c-0.072,0.36-0.216,0.7921-0.36,1.224c-4.5359,5.184-9.072,10.368-13.6799,15.552
		C330.624,63.288,330.624,63.288,325.584,63.6479L325.584,63.6479z M306.864,62.064c-0.648-0.288-1.296-0.576-1.944-0.936
		c-0.144-0.216-0.288-0.432-0.432-0.72c-1.944-0.864-3.888-1.8-5.832-2.736c0-0.288,0-0.648-0.072-1.008
		c0.864-1.152,1.8-2.304,2.736-3.456c4.536-0.648,9.072-1.296,13.6801-2.016c-0.072,0.432-0.216,0.936-0.36,1.44
		c-2.2319,3.096-4.4639,6.192-6.696,9.36C307.584,61.992,307.224,61.992,306.864,62.064L306.864,62.064z M339.264,61.7039
		c0.072-0.432,0.216-0.936,0.36-1.44c3.816-4.536,11.736-12.96,13.392-14.4c1.152-0.36,3.312-0.36,5.688-0.864
		c1.512,0,3.024,0,4.536,0c0.144,0.072,0.288,0.216,0.504,0.36c-8.4241,9-8.4241,9-13.176,14.76
		c-0.288,0.144-0.648,0.288-1.008,0.504C346.176,60.984,342.72,61.344,339.264,61.7039L339.264,61.7039z M191.88,60.048
		c0-0.216,0.072-0.432,0.144-0.72c1.8-0.864,1.8-0.864,12.096-3.744c5.616-0.4319,11.232-0.936,16.848-1.44
		c6.84-0.144,13.68-0.288,20.592-0.504c2.376-0.288,4.752-0.576,7.2-0.936c1.152-0.288,2.376-0.576,3.6-0.936
		c1.944-1.008,1.944-1.008,3.384-1.224c1.44,1.224,2.88,2.448,4.32,3.744c-0.072,0.072-0.144,0.216-0.216,0.36
		c-6.48,0.216-10.368,0-15.624,0.432c-5.76,1.008-10.296,1.44-14.904,2.448c-6.2639,0.576-12.6,1.224-18.936,1.872
		C200.088,59.904,197.208,59.688,191.88,60.048L191.88,60.048z M354.6,59.328c0.072-0.648,0.216-1.296,0.36-1.944
		c2.592-2.88,5.256-5.76,7.92-8.64c1.4399-1.224,2.8799-2.52,4.3199-3.816c1.152-0.36,2.304-0.72,3.528-1.08
		c1.44,0.072,2.88,0.144,4.32,0.216c2.16-0.504,2.16-0.504,4.752-0.576c-0.072,0.288-0.216,0.576-0.36,0.936
		c-3.816,4.104-5.04,5.04-6.984,7.2c-1.872,2.664-1.872,2.664-4.608,5.904c-1.512,0.288-3.024,0.576-4.608,0.936
		C360.36,58.752,357.48,59.04,354.6,59.328L354.6,59.328z M295.56,56.52c-1.44-0.216-2.88-0.432-4.32-0.72
		c-2.52,0-5.04,0-7.632-0.072c0.072-0.072,0.144-0.216,0.216-0.36c4.104-0.504,4.104-0.504,6.264-1.224
		c2.4479-0.072,4.8959-0.144,7.416-0.216c0,0.288,0,0.576,0.072,0.864C295.776,56.664,295.776,56.664,295.56,56.52L295.56,56.52z
		 M38.808,47.448c-2.952,0-5.904-0.072-8.928-0.144c0.072-0.72,0.216-1.44,0.36-2.16c0.36-0.4319,0.72-0.936,1.08-1.44
		c5.184-0.432,10.368-0.864,15.624-1.296c3.168,0,6.336,0,9.576,0c3.096-0.288,6.192-0.648,9.36-1.008
		c10.584,0,10.584,0,22.824-0.432c6.264-0.504,6.264-0.504,37.656-1.44c3.24,0.072,6.552,0.144,9.864,0.216
		c8.424-0.504,14.904-1.224,22.104-1.44c3.096-0.216,6.192-0.432,9.36-0.72c6.48-0.144,12.96-0.288,19.44-0.504
		c7.416-0.432,14.832-0.936,22.32-1.44c5.544-0.576,11.16-1.224,16.776-1.872c2.16-0.432,4.32-0.936,6.48-1.44
		c0.504,0.072,1.08,0.144,1.656,0.216c1.296,0.648,2.592,1.296,3.888,1.944c0.504,0.432,1.008,0.864,1.512,1.296
		c0,0.216,0,0.432,0,0.72c-2.016,0.864-2.016,0.864-5.4,1.8c-11.232,1.44-17.28,1.944-18.936,2.376
		c-4.32,0.36-8.64,0.792-12.96,1.224c-5.76,0-7.2-0.216-21.384,0.216c-1.152,0.288-9.36,1.008-11.52,1.44
		c-11.736,0-13.176,0.288-15.552,0.288c-1.08,0.144-2.232,0.288-3.384,0.432c-6.984,0.144-14.04,0.288-21.096,0.504
		c-4.824,0.504-6.48,0.936-14.4,1.44c-22.32,0.216-25.2,0.504-29.808,0.504c-3.312-0.504-3.312-0.504-8.64-0.72
		c-6.192,0.432-8.352,0.936-15.84,1.44C53.496,47.448,46.152,47.448,38.808,47.448L38.808,47.448z M72.144,39.24
		c-0.432,0-0.936,0-1.44-0.072c0-0.288,0-0.576,0.072-0.936c1.08-1.008,2.232-2.088,3.384-3.168
		c0.936-0.288,1.872-0.576,2.808-0.864c3.888-0.576,7.776-1.224,11.736-1.872c9.864-1.008,10.296-1.224,14.184-1.44
		c5.76-1.008,10.8-1.44,12.672-1.944c9.144-0.936,11.304-0.936,14.904-1.44c4.536-0.216,4.536-0.216,7.704,0
		c2.376-0.288,4.752-0.576,7.2-0.936c0.72-0.288,1.44-0.648,2.16-1.008c1.872-0.144,3.816-0.288,5.76-0.432
		c1.008-0.288,2.016-0.648,3.096-1.008c2.664,0,2.664,0,10.584-1.152c1.44-0.504,1.44-0.504,10.08-1.44
		c0.36-0.144,0.72-0.288,1.1519-0.504c9.648-0.936,9.648-0.936,16.3441-1.944c7.92-0.432,7.92-0.432,9.36-0.72
		c5.544,1.944,5.544,1.944,14.4,5.76c3.816,2.088,7.632,4.176,11.52,6.264c-0.216,0.144-0.432,0.288-0.72,0.504
		c-12.24,1.44-18,1.872-20.16,2.376c-6.624,0.432-13.248,0.936-19.944,1.44c-17.712,0.504-17.712,0.504-42.192,1.656
		c-0.504,0.288-0.504,0.288-8.64,0.72c-16.128-0.216-16.128-0.216-28.8,0C80.064,39.024,80.064,39.024,72.144,39.24L72.144,39.24z
		 M82.944,30.024c0.072-0.072,0.144-0.216,0.216-0.36c19.008-3.816,19.008-3.816,25.488-4.824c2.88-0.936,2.88-0.936,5.112-2.232
		c0.144-0.72,0.288-1.44,0.504-2.16c-0.216-0.864-0.432-1.728-0.72-2.664c-1.008-1.152-1.944-3.096-2.88-4.32
		c-1.512-1.224-3.024-2.52-4.608-3.816c-1.872-1.872-3.816-3.816-5.76-5.76c0-0.288,0-0.576-0.072-0.936
		c2.232,0,4.464-0.072,6.696-0.144c0.72,0.144,1.44,0.288,2.16,0.432c0.72,0.792,1.44,1.584,2.16,2.448
		c2.88,1.872,2.88,1.872,6.984,5.04c2.376,2.376,4.824,4.32,6.696,6.192c1.008,0.504,1.008,0.504,4.32,3.384
		c0.072,0.288,0.216,0.576,0.36,0.864c1.224,0.936,1.224,0.936,2.16,2.376c0,0.432,0,0.864-0.072,1.296
		c-16.344,1.44-16.344,1.44-18.72,1.944c-14.184,1.656-14.184,1.656-25.92,3.384C85.68,30.168,84.312,30.096,82.944,30.024
		L82.944,30.024z"/>
</g>
</svg>
