<?xml version="1.0" encoding="utf-8"?>
<!-- Generator: Adobe Illustrator 21.1.0, SVG Export Plug-In . SVG Version: 6.00 Build 0)  -->
<svg version="1.1" id="Ina" xmlns="http://www.w3.org/2000/svg" xmlns:xlink="http://www.w3.org/1999/xlink" x="0px" y="0px"
	 viewBox="0 0 524.16 276.264" enable-background="new 0 0 524.16 276.264" xml:space="preserve">
<g>
	<path fill-rule="evenodd" clip-rule="evenodd" d="M471.744,276.264c-0.36-0.144-0.72-0.288-1.152-0.504
		c-1.872,0.072-3.816,0.144-5.76,0.288c-1.6561-0.288-3.312-0.6479-5.04-1.008c-1.656-0.072-3.312-0.144-5.04-0.216
		c-0.72,0.144-1.44,0.288-2.16,0.504c-3.672-0.216-7.344-0.432-11.088-0.72c-2.16-1.0081-2.16-1.0081-4.032-1.44
		c-1.008-1.224-1.008-1.224-3.6-3.168c-0.936-1.08-1.872-2.16-2.88-3.312c-0.864-0.288-1.728-0.648-2.664-1.008
		c-1.44-1.584-2.88-3.24-4.32-4.896c-1.224-1.872-2.52-3.816-3.816-5.76c-1.728-1.08-2.16-1.8-3.6-2.736
		c-1.008-1.224-1.008-1.224-3.6-3.168c-0.576-0.288-1.152-0.576-1.728-0.936c-0.936-1.224-0.936-1.224-2.376-2.16
		c-1.368-0.648-2.736-1.296-4.104-1.944c-1.728-0.072-3.456-0.144-5.256-0.216c-1.656,0.216-3.312,0.432-5.04,0.72
		c-1.944-0.648-3.96-1.296-5.976-1.944c-0.864-0.072-1.728-0.144-2.664-0.216c-0.36,0.288-0.7921,0.576-1.224,0.936
		c-0.144,0.36-0.36,0.72-0.576,1.152c-2.52,1.296-2.52,1.296-3.744,1.656c-0.144,0.72-0.288,1.44-0.432,2.16
		c0.936,0.0721,0.936,0.0721,1.152,0.432c-0.216,0.36-5.04,2.304-6.696,3.24c-0.936,1.008-0.936,1.008-4.104,3.168
		c-0.432-0.072-0.936-0.144-1.44-0.288c-0.504,0.288-1.08,0.648-1.656,1.008c-1.872,0.576-3.816,1.224-5.76,1.872
		c-1.368,0.144-2.736,0.288-4.104,0.504c-1.44,0.36-2.88,0.7921-4.32,1.224c-4.032,0-4.032,0-5.976-0.288
		c-5.04,0.576-10.08,1.152-15.12,1.728c-11.0161,0.432-12.2401,0.72-20.376,0.72c-1.584-0.072-3.168-0.144-4.824-0.288
		c-4.32-0.936-4.32-0.936-10.584-2.88c-1.08-0.144-2.16-0.288-3.312-0.432c-1.872,0.0721-3.816,0.144-5.76,0.216
		c-2.16,0.936-2.16,0.936-6.048,1.944c-1.224-0.072-2.52-0.144-3.816-0.288c-5.256-1.656-5.256-1.656-5.544-2.016
		c-1.872-0.144-3.312,0.144-5.472,0.144c-1.152-0.288-2.376-0.6479-3.5999-1.008c-1.152,0-2.376,0-3.6,0
		c-0.648,0.144-1.2961,0.288-1.944,0.504c-0.432,0.36-0.936,0.7921-1.44,1.224c-0.504,0.144-1.08,0.2881-1.656,0.432
		c-5.544-0.432-5.544-0.432-5.76-0.72c-3.168-0.936-5.0399-1.872-12.528-4.32c-3.096-2.232-3.096-2.232-8.352-5.256
		c-0.648,0.072-1.296,0.144-1.944,0.216c-4.104,1.944-4.536,2.448-5.544,2.88c-0.792,0.072-1.584,0.144-2.376,0.288
		c-1.008-0.144-2.016-0.288-3.096-0.504c-1.728-0.936-8.208-3.384-10.08-3.816c-1.728,0.216-3.528,0.432-5.328,0.72
		c-0.144,0.216-0.288,0.432-0.432,0.72c-0.792,0.36-1.584,0.72-2.448,1.152c-0.432,0.6479-0.936,1.296-1.44,1.944
		c-1.656,0.936-3.312,1.872-5.04,2.8799c-2.304,0.36-4.608,0.792-6.912,1.224c-3.24,0-6.552,0-9.864,0
		c-2.52-0.432-5.112-0.936-7.704-1.44c-0.576-0.288-1.224-0.648-1.872-1.008c-1.728-0.4319-3.528-0.936-5.328-1.4399
		c-4.752-0.432-5.472-0.72-9.792-0.936c-1.944-0.504-1.944-0.504-5.544-0.936c-1.656,0.072-3.312,0.144-5.04,0.216
		c-1.584,0.432-3.168,0.936-4.824,1.44c-13.68-0.216-13.68-0.216-16.776-0.504c-5.688,0.288-11.376,0.648-17.064,1.008
		c-0.504,0.144-1.08,0.288-1.656,0.432c-6.696-0.216-6.696-0.216-12.24,0c-3.384,0.504-11.016,0.72-15.12,1.224
		c-5.04,0.144-10.08,0.288-15.12,0.504c-0.36-0.288-0.792-0.648-1.224-1.008c-0.576-0.144-1.224-0.288-1.872-0.4319
		c-2.952-0.072-5.904-0.144-8.928-0.288c-3.6-0.432-7.2-0.936-10.8-1.44c-4.536,0-4.536,0-7.416-0.432
		c-1.08-0.288-2.232-0.648-3.384-1.008c-11.016,0.72-11.016,0.72-14.616,1.224c-1.08,0.432-2.232,0.936-3.384,1.44
		c-0.936,0.072-1.872,0.216-2.88,0.36c0-0.36-0.072-0.72-0.144-1.152c0.216-0.216,0.432-0.432,0.648-0.72
		c1.8-0.936,3.672-1.872,5.544-2.808c6.696-0.936,6.696-0.936,7.416-1.224c1.8-0.072,3.672-0.144,5.544-0.216
		c0.144-0.072,0.36-0.216,0.576-0.36c0-1.584,0-3.168,0-4.752c-0.144-0.72-0.288-1.44-0.504-2.16
		c-0.432-0.432-0.936-0.936-1.44-1.44c-0.144-0.36-0.288-0.792-0.504-1.224c0-0.936,0-1.872,0-2.88
		c1.584-3.168,3.168-6.336,4.824-9.576c1.224-2.952,2.52-5.904,3.816-8.928c0.072-0.864,0.144-1.728,0.288-2.592
		c-0.432-0.288-0.864-0.576-1.296-0.864c0-0.36-0.072-0.72-0.144-1.08c1.08-0.36,1.08-0.36,2.736-0.36
		c1.008-1.368,1.8-3.456,5.184-8.784c1.08-1.944,2.16-3.888,3.24-5.904c0.648-0.144,1.296-0.288,1.944-0.432
		c5.544,0.216,11.16,0.432,16.776,0.72c2.808,0.288,5.616,0.576,8.424,0.936c15.12,0.504,15.12,0.504,25.2,0.504
		c1.224-2.52,2.448-5.04,3.672-7.56c0.792-1.224,1.584-2.52,2.376-3.816c1.008-2.664,2.88-5.76,6.768-14.4
		c0.072-0.432,0.144-0.936,0.216-1.44c-0.504-0.288-1.008-0.576-1.512-0.864c-5.328-0.432-10.728-0.936-16.128-1.44
		c-2.376,0-4.752,0-7.2,0c-0.288-0.288-0.576-0.576-0.864-0.864c0-0.36,0-0.72,0-1.152c0.648-1.512,1.296-3.024,1.944-4.608
		c0.72-0.936,1.44-1.872,2.16-2.88c-0.072-1.08-0.144-2.16-0.216-3.312c-0.288-0.576-0.648-1.152-1.008-1.728
		c-11.52-30.24-11.52-30.24-13.392-36c-0.504-2.592-0.504-2.592-0.504-4.752c0.936-1.728,0.936-1.728,1.944-2.664
		c0.72-0.432,1.512-0.864,2.304-1.368c8.352-1.872,8.352-1.872,11.952-2.376c0.144-0.144,0.288-0.288,0.504-0.504
		c0.072-1.296-0.36-4.392-0.144-6.768c-0.072-1.44-0.144-2.88-0.216-4.32c-1.296-1.8-2.592-3.672-3.888-5.544
		c-0.936-1.008-1.872-2.016-2.88-3.096c-0.432-0.7921-0.936-1.584-1.44-2.4481c0-0.936,0-0.936,0.432-1.296
		c0.36,0.072,0.72,0.144,1.152,0.216c0.648,1.08,1.296,2.16,1.944,3.24c0.936,1.08,1.872,2.16,2.88,3.24
		c0.288,0.072,0.576,0.216,0.936,0.36c0-2.448,0.072-4.896,0.144-7.416c-0.288-2.16-0.648-4.32-1.008-6.48
		c-0.144-2.808-0.288-5.616-0.432-8.424c-0.648-4.32-1.296-8.64-1.944-12.96c-0.36-1.656-0.792-3.312-1.224-5.04
		c0-4.536,0-4.536-0.432-6.912c-0.504-1.224-1.44-5.328-2.448-8.208c-0.432-3.6-2.376-12.456-3.312-18
		C68.4,14.112,67.464,9.792,65.52,4.752c-0.216-1.368-0.432-2.7361-0.72-4.1041C64.944,0.432,65.088,0.216,65.232,0
		c0.288,0,0.576,0,0.936,0c0.216,0.432,0.504,0.864,0.792,1.368c0.288,1.5119,0.648,3.024,1.008,4.5359
		c0.432,1.008,0.936,2.088,1.44,3.168c0.936,4.5361,1.44,5.472,5.256,25.2c0.864,3.168,1.728,6.336,2.664,9.576
		c0.144,1.944,0.288,3.96,0.432,5.976c0.648,2.592,1.296,5.256,1.944,7.92c0.216,4.824,0.72,6.984,3.096,34.848
		c0.144,0.936,0.288,1.872,0.504,2.88c0.936,1.872,4.824,7.2,7.2,11.016c1.44,0,2.952,0,4.464,0.072
		c0.144-0.144,0.288-0.36,0.504-0.576c0-0.288-0.072-0.576-0.144-0.936c0.432-0.864,0.936-1.728,1.44-2.664
		c1.368-0.504,2.736-1.008,4.176-1.584c2.448,0,2.448,0,4.32,0.504c1.224,1.224,1.224,1.224,2.88,3.816
		c3.456,0.072,6.912,0.144,10.368,0.288c0.792-1.296,0.792-1.296,2.016-2.304c-0.36-3.096-0.792-6.192-1.224-9.36
		c-0.72-16.776-0.72-16.776-1.44-25.92c-1.656-10.512-2.16-11.736-5.976-35.496c-0.648-2.8799-1.296-5.7599-1.944-8.64
		c-1.8-6.48-3.672-12.96-5.544-19.4399c0-0.4321,0-0.936,0-1.44c0.504-0.504,0.504-0.504,1.368-0.648
		c0.144,0.144,0.288,0.2879,0.504,0.504c1.872,6.696,3.744,13.392,5.616,20.088c1.872,9.36,2.88,16.056,3.312,17.496
		c0.504,3.6,1.008,4.5359,2.448,15.12c0.432,1.44,0.432,1.44,2.88,19.224c0.432,9.792,0.936,14.112,0.936,16.992
		c0.72,4.752,1.44,9.576,2.16,14.4c0.936,1.008,0.936,1.008,1.944,2.88c0.936,0.864,1.872,1.728,2.88,2.664
		c1.872,2.88,1.872,2.88,5.76,7.416c0.72,0.648,1.44,1.296,2.16,1.944c1.08,1.368,2.16,2.736,3.312,4.104
		c4.608,3.816,5.544,5.04,8.784,7.416c0.072-0.072,0.216-0.144,0.36-0.216c-0.72-5.544-1.224-6.768-2.16-13.968
		c-1.944-10.08-4.536-27.576-5.76-34.056c-0.936-8.424-0.936-8.424-0.936-11.52c-1.008-6.48-1.008-8.136-1.44-9.36
		c-1.224-7.416-1.224-7.416-1.44-10.584c-0.288-1.08-0.648-2.16-1.008-3.312c-0.576-3.4561-1.224-6.912-1.872-10.368
		c-0.504-0.936-0.504-0.936-2.448-7.92c-1.08-5.04-2.16-10.0801-3.312-15.12c0-1.152,0-2.376,0-3.6
		c0.072-0.144,0.216-0.36,0.36-0.5759c0.72,0,0.72,0,1.08,0.36c0.432,3.5999,0.936,4.824,1.44,8.64
		c0.936,3.0959,1.152,4.8239,1.44,5.04c0.432,3.096,0.432,3.096,3.312,14.616c0.504,1.224,0.504,2.88,2.448,11.304
		c0.144,1.8,0.288,3.672,0.432,5.544c0.648,3.384,1.296,6.84,1.944,10.296c2.88,23.544,3.384,25.416,4.32,33.336
		c1.08,5.184,2.232,10.368,3.384,15.624c0.432,3.816,0.432,3.816,0.936,5.04c1.944,9.576,1.944,9.576,2.376,12.96
		c0.936,0.072,1.872,0.216,2.808,0.36c0.432,0.216,0.936,0.432,1.44,0.72c7.704,0,25.92-0.72,27.36-1.008
		c3.024-0.072,6.048-0.144,9.144-0.216c0.504-0.144,1.08-0.288,1.656-0.504c0.072-1.512-1.8-14.688-3.744-26.208
		c-1.44-10.368-1.656-14.184-2.664-20.16c0-0.864,0-1.728,0-2.664c-0.432-0.72-0.432-0.72-0.936-2.664
		c-0.144-1.728-0.288-3.456-0.504-5.256c-0.216-0.648-0.432-1.296-0.72-1.944c-0.432-4.032-0.432-4.032-0.936-5.976
		c0-2.88-0.216-3.096-0.36-4.536c-0.36-0.504-0.36-1.944-1.296-6.048c-0.288-2.304-0.648-4.608-1.008-6.912
		c-3.816-16.344-5.76-23.544-6.696-28.584c-0.648-2.376-1.296-4.752-1.944-7.2001c0-0.7199,0-1.44,0-2.1599
		c0.144-0.072,0.288-0.2161,0.432-0.36c0.36,0.072,0.72,0.1439,1.152,0.2159c0.288,0.5761,0.576,1.1521,0.864,1.8
		c1.872,10.368,1.872,10.368,2.16,10.8c1.872,8.208,3.312,13.248,3.816,16.56c0.504,1.224,0.504,1.224,1.44,5.544
		c0.936,6.264,1.44,7.92,3.384,20.664c0.216,3.312,0.432,3.6,0.72,6.48c0.432,1.44,0.936,5.76,1.44,6.912
		c0.792,7.704,1.152,8.208,1.152,9.648c3.6,22.32,4.104,23.976,4.608,27.792c0.216,0.288,1.872,12.528,2.376,14.184
		c1.08,0,2.16,0,3.24,0.072c5.328-0.936,11.52-1.44,16.848-2.376c6.48-0.6479,12.96-1.296,19.44-1.944
		c7.92-1.44,7.92-1.44,12.24-1.872c1.224,0.072,2.5201,0.144,3.816,0.216c1.152,0.288,2.376,0.576,3.6,0.936
		c5.904,0.648,11.808,1.2961,17.784,1.944c13.176,3.816,13.176,3.816,13.896,4.32c4.392,1.584,8.784,3.168,13.176,4.824
		c4.032,1.224,8.136,2.52,12.24,3.816c1.512,0.648,3.024,1.296,4.608,1.944c5.256,3.024,10.512,6.048,15.8401,9.072
		c0.144,0.216,0.288,0.432,0.432,0.648c1.008,0.504,2.088,1.008,3.168,1.512c0.144,0.288,0.288,0.576,0.432,0.864
		c3.384,2.0161,7.92,5.4,21.384,14.04c1.944,0.936,4.536,2.88,8.64,5.04c4.392,0.072,8.784,0.144,13.176,0.216
		c0.864,0.288,1.728,0.6479,2.664,1.008c2.664,1.872,2.664,1.872,5.76,4.536c3.816,0.216,7.704,0,17.064,0.216
		c1.4399,0.288,1.4399,0.288,1.6559,0c1.512-0.072,3.024-0.144,4.536-0.216c5.328,0.216,10.728,0.432,16.128,0.72
		c0.792-0.144,1.584-0.288,2.376-0.504c5.112,0.216,10.224,0.432,15.336,0.72c0.72,0.144,1.44,0.288,2.16,0.504
		c11.376,0.648,22.7521,1.2961,34.1281,1.944c10.296,1.152,10.8,1.44,16.992,1.872c1.944,0.504,1.944,0.504,23.7599,2.88
		c0,0.288,0.072,0.576,0.144,0.864c-0.6479,0.288-1.296,0.576-2.0159,0.864c-0.8641,0.864-1.7281,1.8-2.592,2.736
		c0,0.216,0,0.432-0.072,0.72c1.368,0,2.736-0.072,4.1041-0.144c0.2159,0.144,0.504,0.288,0.792,0.432
		c0.072,0.504,0.144,1.08,0.2159,1.656c-0.144,0.36-0.288,0.792-0.432,1.224c-0.864,0.576-1.7999,1.152-2.736,1.728
		c-2.376,0.936-4.752,1.872-7.2001,2.88c-5.0399,3.888-5.0399,3.888-6.0479,4.32c-2.592,2.232-5.256,4.464-7.92,6.768
		c-5.256,3.816-5.256,3.816-9.576,7.632c-4.464,4.896-8.928,9.792-13.464,14.688c-2.376,2.016-16.56,16.632-18.4319,18.936
		c-4.608,4.104-8.424,8.136-11.088,10.296c-1.872,2.16-1.872,2.16-4.896,4.752c0,0.216,0,0.432,0.072,0.72
		c4.824,0.576,4.824,0.576,9.432,0.576c1.872-0.504,1.872-0.504,5.256-0.72c0.576,0.576,0.576,0.576,0.72,1.296
		c3.888,0.288,7.776,0.576,11.7361,0.864c1.7999-0.144,3.6719-0.288,5.5439-0.504c2.16,0.072,4.32,0.144,6.48,0.216
		c2.6641-0.72,2.6641-0.72,5.04-0.936c0.1439,0.144,0.288,0.36,0.504,0.576c-0.144,0.216-0.288,0.432-0.504,0.648
		c-1.368,0.432-2.7361,0.936-4.104,1.44c-2.88-0.288-2.88-0.288-7.416-0.288c-0.72,0.144-1.44,0.288-2.16,0.504
		c-0.144,0.216-0.288,0.432-0.5039,0.72C472.248,276.264,472.032,276.264,471.744,276.264L471.744,276.264z M429.984,263.088
		c-0.504-0.144-1.08-0.288-1.656-0.504c-0.648-0.72-1.296-1.44-1.944-2.16c-1.224-1.872-2.52-3.816-3.816-5.76
		c-4.32-4.104-5.76-5.04-6.696-6.264c-1.656-1.224-3.312-2.52-5.04-3.816c-2.376-1.008-4.752-2.016-7.2-3.096
		c-0.648,0-1.296,0-1.944,0c-0.36,0.216-0.792,0.432-1.224,0.72c-4.032,0.432-4.032,0.432-5.76,0.936
		c-0.432-0.072-0.936-0.144-1.44-0.216c-0.432-0.504-0.432-0.504-2.736-1.8c0-0.288,0-0.576,0-0.936
		c0.72-0.504,0.72-0.504,1.656-1.944c-0.072-0.36-0.144-0.792-0.216-1.224c-0.288-0.072-0.576-0.144-0.864-0.216
		c-0.36-1.224-0.36-1.224-0.72-1.584c-1.44-0.216-1.44-0.216-5.256,0.216c-1.152,0.648-2.376,1.296-3.6,1.944
		c0,0.432-0.072,0.864-0.144,1.368c1.944,1.44,3.024,1.728,3.24,2.088c-0.2881,0.432-0.576,0.864-0.936,1.368
		c-0.648,0.432-1.2961,0.936-1.944,1.44c-0.792,0.288-1.584,0.576-2.376,0.936c-0.936,0.648-1.872,1.296-2.88,2.016
		c-0.288,0.504-0.576,1.008-0.936,1.584c-6.048,3.816-6.048,3.816-11.808,6.984c-3.312,0.504-6.696,1.08-10.08,1.656
		c-1.512-0.072-3.024-0.144-4.536-0.216c-1.368,0.144-2.7361,0.288-4.104,0.432c-0.216,0.144-0.432,0.288-0.72,0.504
		c-2.376,0.432-4.752,0.936-7.2,1.44c-3.6,0-8.856,0.504-18.216,0.936c-4.32-0.072-8.64-0.144-12.96-0.216
		c-3.168-0.936-6.336-1.872-9.576-2.88c-1.08-0.144-2.2321-0.288-3.384-0.504c-3.816,0.288-3.816,0.288-6.48,0.864
		c-0.072,0.072-0.144,0.216-0.216,0.36c-0.36-0.072-0.792-0.144-1.224-0.216c-0.504,0.2881-1.08,0.576-1.656,0.936
		c-0.792,0.144-1.584,0.288-2.448,0.504c-3.312-0.288-3.312-0.288-5.256-0.72c-0.216-0.288-0.216-0.288-4.824-1.224
		c-7.632-0.936-7.632-0.936-9.072-1.44c-1.656,0.216-3.312,0.432-5.04,0.72c-0.648,0.36-1.296,0.792-1.944,1.224
		c-4.824,0-4.824,0-7.416-0.288c-1.728-0.936-1.728-0.936-9.864-3.816c-9.576-5.76-9.576-5.76-11.016-6.264
		c-0.288,0-0.648,0-1.008,0c-1.656,1.008-3.096,1.44-4.32,2.448c-0.576,0.288-1.224,0.576-1.872,0.936
		c-1.008,0.072-2.088,0.144-3.168,0.216c-1.44-0.36-2.88-0.72-4.32-1.152c-0.576-0.288-1.224-0.648-1.872-1.008
		c-5.04-1.512-5.04-1.512-6.048-2.16c-0.36,0-0.72,0-1.152,0c-0.216,0.144-0.432,0.288-0.72,0.504c-0.72,0-1.44,0-2.16,0
		c-1.008,0.504-1.44,1.224-4.824,3.096c-0.288,0.36-0.576,0.792-0.936,1.224c-2.88,1.944-2.88,1.944-4.824,2.88
		c-4.32,0.936-4.32,0.936-8.64,1.4399c-2.664-0.072-5.4-0.144-8.136-0.216c-4.104-1.008-4.104-1.008-7.2-1.44
		c-1.944-1.008-1.944-1.008-5.328-1.944c-6.696-0.936-8.352-1.44-16.776-2.664c-4.104,0-4.104,0-7.92,0.504
		c-0.864,0.288-1.728,0.576-2.664,0.936c-3.96,0-7.92,0-11.952,0c-4.32-0.432-4.32-0.432-8.208-0.432
		c-1.512,0.216-3.024,0.432-4.536,0.72c-5.4,0.072-10.872,0.144-16.344,0.216c-5.328-0.144-10.656-0.288-16.056-0.504
		c-5.4-0.36-10.872-0.72-16.344-1.152c-13.392-0.288-13.392-0.288-18.936-0.72c-17.064-2.88-17.064-2.88-17.64-3.24
		c-0.504-4.536-0.504-4.536-1.008-6.264c-1.656-1.656-1.656-1.656-1.872-2.16c0-0.792,0-1.584,0-2.376
		c1.872-4.536,3.816-7.92,7.2-15.336c0.432-1.368,0.936-2.736,1.44-4.104c1.8-0.144,4.464,0.36,12.816,0.792
		c3.888,0.504,20.664,1.44,32.184,2.448c2.304-0.072,4.608-0.144,6.984-0.288c4.032,0.504,11.952,1.008,16.056,1.728
		c4.536,0,7.416,0.432,10.08,0.432c3.6,0.504,6.984,0.504,10.584,1.008c6.192,0.2881,12.456,0.576,18.72,0.936
		c8.928,0.144,17.856,0.288,26.856,0.504c3.384,0.432,6.264,0.432,8.856,0.936c2.88,0.0721,5.76,0.144,8.64,0.216
		c2.448,0.504,2.448,0.504,7.92,0.72c0.792-0.072,1.584-0.144,2.448-0.216c48.456,2.88,48.456,2.88,53.28,3.384
		c0.216,0.576,0.432,1.152,0.648,1.8c1.728,0.36,1.728,0.36,3.672,0.36c2.16-1.008,3.816-1.44,4.32-1.944
		c0.936-0.216,0.936-0.216,8.136-0.216c18.216,0.72,18.216,0.72,25.92,0.72c0.792-0.072,1.584-0.144,2.376-0.288
		c9.432,0.144,18.864,0.288,28.368,0.504c8.928-0.072,17.856-0.144,26.856-0.216c6.84-0.216,13.752-0.432,20.664-0.72
		c7.272,0.072,14.544,0.144,21.816,0.216c16.344-0.72,16.776-0.504,24.4799-0.72c35.784-2.376,35.784-2.376,40.104-2.88
		c1.8,0,3.6,0,5.472,0c16.848-1.656,17.568-1.944,30.96-3.24c-0.072,0.288-0.216,0.648-0.36,1.008
		c-2.5919,2.952-5.256,5.904-7.9199,8.856c-10.584,10.8-12.456,13.176-15.624,16.056c-2.592,2.808-5.256,5.616-7.92,8.424
		c-2.448,2.304-4.896,4.608-7.416,6.984c-4.68-0.144-10.8719,0.288-14.976,0.288C432.432,263.088,432.432,263.088,429.984,263.088
		L429.984,263.088z M276.192,240.048c-1.08-0.144-2.232-0.288-3.384-0.504c-0.36-0.36-0.72-0.72-1.08-1.08
		c-0.072-0.864-0.144-1.728-0.288-2.592c0.432-0.36,0.936-0.792,1.44-1.224c1.152,0,2.304-0.072,3.528-0.144
		c0.792,0.144,1.584,0.288,2.376,0.504c0.36,0.288,0.72,0.576,1.08,0.864c0,0.72,0,1.44,0,2.16c-0.504,0.432-0.936,1.44-1.44,1.872
		C277.704,239.904,276.984,239.976,276.192,240.048L276.192,240.048z M226.512,237.6c-1.08-0.144-2.232-0.288-3.384-0.432
		c-1.656-1.08-1.656-1.08-2.088-1.8c0-0.864,0-1.728,0-2.664c0.216-0.216,0.432-0.432,0.648-0.72c1.224-0.36,1.224-0.36,4.104-0.36
		c2.592,0.504,2.592,0.504,3.312,0.936c0.072,0.6479,0.216,1.368,0.36,2.088c0.144,0.144,0.288,0.288,0.504,0.504
		c0,0.36,0,0.72,0,1.152c-0.216,0.216-0.432,0.432-0.648,0.72C228.384,237.168,227.448,237.384,226.512,237.6L226.512,237.6z
		 M213.264,237.384c-0.432-0.072-0.936-0.144-1.44-0.216c-0.936-1.224-0.936-1.224-1.8-3.24c-0.072-0.648-0.144-1.296-0.216-1.944
		c0.144-0.144,0.36-0.36,0.576-0.576c4.104,0.216,4.104,0.216,7.488,0.72c0.432,0.504,0.864,1.008,1.296,1.584
		c0,0.72-0.288,0.936-0.72,2.88c-0.648,0.432-0.648,0.432-2.52,0.792C215.064,237.384,214.2,237.384,213.264,237.384
		L213.264,237.384z M153.504,233.784c-0.432-0.36-0.936-0.72-1.44-1.08c-0.144-1.152-0.36-2.376-0.576-3.6
		c0.432-0.288,0.864-0.576,1.296-0.936c1.512,0,3.024-0.072,4.608-0.144c2.376,0.504,2.376,0.504,2.88,0.936
		c0,0.72,0,1.512,0.072,2.304c0.144,0.144,0.288,0.288,0.504,0.504c0,0.2881,0,0.576,0,0.936c-0.504,0.504-0.504,0.504-2.304,1.08
		C156.888,233.784,155.232,233.784,153.504,233.784L153.504,233.784z M89.712,230.4c-1.008-0.432-1.008-0.432-1.44-1.08
		c-0.648-2.088-0.648-2.088-0.648-3.312c0.36-0.504,0.72-1.08,1.08-1.656c1.944-0.144,1.944-0.144,7.488,0.288
		c0.216,0.216,0.432,0.432,0.72,0.648c0,1.512,0,3.024,0.072,4.5359c-0.144,0.0721-0.36,0.216-0.576,0.36
		C94.176,230.256,91.944,230.328,89.712,230.4L89.712,230.4z M73.584,228.96c-1.584-0.072-3.168-0.144-4.752-0.216
		c-0.144-0.144-0.288-0.288-0.504-0.504c0-0.432-0.072-0.864-0.144-1.296c0.504-0.432,0.504-0.432,1.44-3.312
		c1.584-0.144,1.584-0.144,6.624,0.288c0.792,0.864,0.792,0.864,1.08,1.584c0,0.648,0,1.296,0,1.944
		c-0.432,0.288-0.864,0.576-1.368,0.936C75.168,228.528,74.376,228.744,73.584,228.96L73.584,228.96z M314.568,227.088
		c-15.336-0.144-30.6721-0.288-46.08-0.504c-3.312-0.216-6.696-0.432-10.08-0.72c-4.032-0.072-8.136-0.144-12.2401-0.216
		c-2.448-0.216-4.896-0.432-7.416-0.72c-20.16-0.504-20.16-0.504-35.064-1.224c-4.104-0.504-4.104-0.504-21.096-1.224
		c-0.792-0.216-1.584-0.432-2.448-0.72c-5.616-0.216-11.304-0.432-16.992-0.72c-7.488-0.072-15.048-0.144-22.608-0.216
		c-17.712-0.936-17.712-0.936-45.36-2.8799c-1.512-0.216-3.024-0.432-4.536-0.72c-1.872-0.072-3.816-0.144-5.76-0.216
		c-0.504-0.144-1.08-0.288-1.656-0.504c-4.32-0.216-4.32-0.216-10.8,0c-24.984-1.944-27.648-1.944-37.44-2.88
		c-1.656-0.216-3.312-0.504-5.04-0.792c0.216-1.08,0.504-2.2321,0.792-3.384c2.88-4.824,2.88-4.824,3.816-6.984
		c3.024-3.816,3.024-3.816,3.744-4.176c12.528,0.432,12.528,0.432,16.128,0.936c0.72,0.504,0.72,0.504,1.656,1.944
		c3.384,0.432,3.384,0.432,26.424,1.872c0.936,0.504,0.936,0.504,2.16,0.72c13.68,0.288,13.68,0.288,18.216,0
		c3.384,0.144,6.84,0.288,10.296,0.504c6.336,0.648,12.672,1.2961,19.008,1.944c8.712,0.576,17.424,1.224,26.136,1.872
		c29.52,0.72,30.456,1.008,35.28,1.008c6.48,0.432,10.8,0.432,13.68,0.72c12.456,0.144,24.912,0.288,37.44,0.432
		c4.104,0.216,8.28,0.432,12.456,0.72c4.464-0.072,8.9279-0.144,13.464-0.216c3.312,0.216,6.696,0.432,10.08,0.72
		c2.808,0,5.616,0,8.424,0c18.72,1.44,18.72,1.44,26.856,1.656c2.16-0.216,10.8,0,50.184-0.432c2.448,0.072,4.896,0.144,7.416,0.216
		c5.04-0.216,10.08-0.432,15.12-0.72c3.384,0.216,3.384,0.216,8.856,0c0.936-0.144,1.872-0.288,2.88-0.504
		c33.12-1.872,34.128-2.16,43.488-2.592c0.432-0.288,4.032-0.288,19.152-1.728c15.12-1.872,21.1681-2.376,32.1841-4.032
		c0.216-0.288,8.1359-1.224,11.736-2.16c0.288-0.144,0.6479-0.288,1.008-0.504c2.2321-0.216,4.4641-0.432,6.696-0.72
		c-5.5439,3.816-7.704,5.76-9.36,6.696c-4.752,3.888-9.576,7.848-14.4,11.808c-4.824,0.432-10.296,1.44-16.0559,1.872
		c-5.112,0.648-10.224,1.296-15.4081,1.944c-9.576,0.216-9.576,0.216-31.392,1.656c-1.224,0.288-1.224,0.288-18.288,1.44
		c-3.384,0-6.84,0-10.296,0c-7.416,0.288-14.832,0.648-22.32,1.008c-2.52-0.072-5.112-0.144-7.704-0.288
		C342.864,226.8,342.864,226.8,314.568,227.088L314.568,227.088z M444.168,221.544c-1.368-0.072-2.736-0.144-4.104-0.216
		c-0.216-0.144-0.432-0.288-0.72-0.504c0-0.216-0.072-0.504-0.144-0.792c0.648-0.504,0.648-0.504,1.872-0.864
		c1.728,0,3.456,0,5.256,0c0.72-0.144,1.44-0.288,2.16-0.504c0.36,0.072,0.792,0.144,1.224,0.216c0,0.576,0,1.224,0.072,1.872
		c-0.36,0.288-0.36,0.288-2.952,0.792C445.968,221.544,445.104,221.544,444.168,221.544L444.168,221.544z M309.312,210.96
		c-2.376-0.144-4.752-0.36-7.2-0.576c0.288-1.4399,0.288-1.4399,1.2961-3.0959c0.36-0.288,0.72-0.576,1.08-0.936
		c5.976-0.144,11.952-0.288,18-0.504c-0.864,2.16-1.8,3.6-2.16,4.896C316.656,210.816,312.984,210.888,309.312,210.96
		L309.312,210.96z M332.352,210.96c-3.528,0-7.056,0-10.584-0.072c0-0.288,0-0.576,0.072-0.936c0.432-0.792,0.936-1.584,1.44-2.448
		c0.504-0.504,1.008-1.008,1.584-1.584c5.76-0.072,11.52-0.144,17.28-0.216c1.296,0.144,2.592,0.288,3.888,0.504
		c0,0.288,0,0.576,0.072,0.864c-0.72,1.224-1.44,2.448-2.232,3.672C340.056,210.816,336.24,210.888,332.352,210.96L332.352,210.96z
		 M346.968,210.744c-0.216,0-0.432,0-0.72-0.072c0.792-2.448,0.792-2.448,1.296-3.168c1.08-0.36,1.08-0.36,1.584-0.864
		c1.944,0,7.92,1.008,23.976,2.808c-0.072,0.288-0.216,0.576-0.36,0.936C361.584,210.744,361.584,210.744,346.968,210.744
		L346.968,210.744z M375.552,210.528c-0.288-0.144-0.288-0.144-0.288-1.008c1.8,0.144,3.672,0.288,5.544,0.504
		c-0.216,0.144-0.432,0.288-0.72,0.504C378.576,210.528,377.064,210.528,375.552,210.528L375.552,210.528z M296.784,210.024
		c-4.464-0.216-9-0.504-13.536-0.792c0.216-1.224,0.216-1.224,1.152-3.168c0.144-0.072,0.288-0.216,0.4319-0.36
		c9.36-0.216,9.36-0.216,17.496,0.144c-0.864,2.16-0.864,2.16-2.16,4.176C299.088,210.024,297.936,210.024,296.784,210.024
		L296.784,210.024z M277.848,209.304c-5.976-0.504-5.976-0.504-12.4561-0.504c-0.216-0.144-0.432-0.36-0.6479-0.576
		c0-1.008,0-2.016-0.0721-3.096c7.416-0.144,16.776,0.072,18,0.36c0.0721,0.0721,0.144,0.216,0.216,0.36
		c-0.288,0.432-0.576,0.936-0.864,1.44c-0.072,0.432-0.144,0.936-0.216,1.44c-0.144,0.144-0.288,0.288-0.504,0.504
		C280.152,209.232,279,209.232,277.848,209.304L277.848,209.304z M257.472,208.8c-4.68-0.216-9.36-0.504-14.112-0.792
		c0-1.944,0-1.944,0.432-4.104c6.48,0.216,12.96,0.432,19.44,0.72c0,1.296,0,2.592,0.072,3.888
		C262.728,208.8,262.728,208.8,257.472,208.8L257.472,208.8z M407.952,208.584c-3.528-0.072-7.056-0.216-10.584-0.36
		c0.072-0.432,0.216-0.936,0.36-1.44c0.216-0.144,0.432-0.288,0.72-0.432c0.144-0.36,0.36-0.792,0.576-1.224
		c1.224-0.36,9.36-0.864,13.248-1.368c2.304,0,4.608,0,6.912-0.072c-1.8,3.384-1.8,3.384-2.736,4.536
		C413.208,208.584,413.208,208.584,407.952,208.584L407.952,208.584z M420.192,208.584c-0.648,0-1.296,0-1.944-0.072
		c0-0.216,0-0.432,0.072-0.72c2.88-3.888,2.88-3.888,3.528-4.248c5.688-0.36,11.376-0.72,17.064-1.08
		c-0.432,1.224-0.432,1.224-1.872,3.168c0,0.72,0.504,1.152,0.432,1.512C431.712,207.576,425.952,208.08,420.192,208.584
		L420.192,208.584z M392.832,208.368c-5.112-0.288-10.224-0.648-15.408-1.008c0-0.216-0.072-0.504-0.144-0.792
		c0.144-0.144,0.288-0.288,0.504-0.504c2.304-0.36,2.304-0.36,18.144-1.08c0.288,0.0721,0.576,0.216,0.936,0.36
		c-0.504,0.864-1.08,1.8-1.656,2.736C394.272,208.368,394.272,208.368,392.832,208.368L392.832,208.368z M238.032,208.08
		c-10.368-0.432-10.368-0.432-14.184-0.288c0.072-2.88,0.072-2.88,0.504-4.248c11.52,0,11.52,0,18,0.36
		c0,0.936-0.072,1.872-0.144,2.88c-0.144,0.36-0.288,0.792-0.504,1.224C240.48,208.008,239.256,208.008,238.032,208.08
		L238.032,208.08z M205.128,207.648c-1.584-0.144-3.168-0.288-4.824-0.504c-0.144-0.792-0.144-0.792,0.36-4.176
		c0.072-0.072,0.216-0.216,0.36-0.36c3.096,0,6.192,0,9.36,0c4.032,0.288,8.136,0.576,12.24,0.864
		c-0.36,3.816-0.36,3.816-0.72,4.176C216.36,207.648,210.744,207.648,205.128,207.648L205.128,207.648z M195.984,207.144
		c-3.24-0.216-6.48-0.432-9.792-0.72c-2.808,0-5.616,0.072-8.424,0.144c0.072-3.096,0.072-3.096,0.504-4.464
		c0.576-0.144,1.224-0.288,1.872-0.504c6.192,0.288,12.456,0.576,18.72,0.864c0,0.864,0.072,1.728,0.144,2.664
		c-0.144,0.504-0.288,1.08-0.504,1.656C197.712,206.856,196.848,207,195.984,207.144L195.984,207.144z M371.232,207.144
		c-1.944-0.216-1.944-0.216-2.16-0.576c0.936-0.36,0.936-0.36,5.472-0.504c-0.072,0.36-0.144,0.72-0.216,1.08
		C373.32,207.144,372.312,207.144,371.232,207.144L371.232,207.144z M438.408,207.288c0.792-1.944,1.8-3.384,2.16-4.824
		c18.72-1.296,18.72-1.296,19.512-1.152c0,0.288,0,0.576,0,0.936c-0.936,1.152-1.944,2.304-2.952,3.456
		C450.936,206.208,444.672,206.712,438.408,207.288L438.408,207.288z M174.384,206.424c-0.936-0.216-9.072-0.216-15.336-0.504
		c0-1.512,0-3.024,0-4.608c2.16-0.144,8.856,0.288,17.784,0.432c-0.288,1.44-0.576,2.88-0.864,4.32
		C175.464,206.136,174.96,206.28,174.384,206.424L174.384,206.424z M153.288,205.704c-3.888-0.36-7.776-0.72-11.736-1.08
		c0.072-1.008,0.144-2.016,0.288-3.096c0.144-0.288,0.288-0.576,0.504-0.936c1.008,0,2.016-0.072,3.024-0.144
		c4.032,0.288,8.136,0.576,12.24,0.936c0.072,1.584,0.072,1.584-0.36,4.248C155.952,205.632,154.656,205.632,153.288,205.704
		L153.288,205.704z M365.184,205.2c-3.456-0.216-6.984-0.432-10.512-0.72c-2.16,0.288-4.104,0-7.704,0
		c-2.88-0.432-2.88-0.432-12.744-2.88c-11.016-1.152-11.736-1.44-16.992-1.872c-2.16-0.504-2.16-0.504-6.264-0.72
		c-0.936-0.504-0.936-0.504-6.264-1.44c-1.44-1.008-1.44-1.008-7.2-3.888c-2.16-2.16-2.16-2.16-9.36-7.92
		c-1.008-0.576-2.016-1.224-3.096-1.872c-2.448-1.872-4.896-3.816-7.416-5.76c-1.008-1.224-2.448-2.16-2.88-2.88
		c-3.672-2.52-7.344-5.112-11.088-7.704c-4.896-2.808-9.864-5.616-14.832-8.424c-1.728-0.432-3.384-1.44-5.7599-2.376
		c-5.76-3.816-5.76-3.816-15.624-9.576c-2.232-1.728-4.464-3.456-6.696-5.184c0-0.36,0-0.72-0.072-1.1519
		c0.792-0.432,0.792-0.432,7.272-1.872c1.44-0.144,2.88-0.288,4.32-0.432c1.152-0.504,7.632-1.44,11.52-2.448
		c3.456-0.36,6.984-0.72,10.512-1.152c3.384-1.008,3.384-1.008,9.144-1.944c2.664-0.072,5.4-0.144,8.136-0.216
		c0.864,0.144,1.728,0.288,2.664,0.432c4.032,1.296,8.136,2.592,12.24,3.888c20.88,7.632,20.88,7.632,29.52,10.512
		c6.264,3.888,6.264,3.888,19.224,11.088c3.672,2.592,7.344,5.256,11.016,7.92c4.032,2.52,8.136,5.04,12.24,7.632
		c0.792,0.648,1.584,1.296,2.376,1.944c2.376,1.224,4.752,2.52,7.2,3.816c2.88,0.288,4.824,0,9.648,0
		c1.224,0.144,2.52,0.288,3.816,0.504c1.728,1.224,3.456,2.52,5.256,3.8159c4.104,1.008,15.12,2.88,20.664,4.32
		c4.248,0.648,8.496,1.296,12.744,1.944c23.04,1.656,24.192,1.944,27.072,1.944c17.784,1.872,17.784,1.872,31.6801,3.816
		c0.2159,0.144,0.432,0.36,0.72,0.576c-0.072,0.072-0.144,0.216-0.216,0.36c-1.8,0.288-3.672,0.648-5.544,1.008
		c-7.632,0.792-15.336,1.584-23.04,2.376c-12.744,0.648-25.56,1.296-38.376,1.944c-7.2,0.72-7.2,0.72-19.224,1.152
		C391.824,203.544,391.824,203.544,365.184,205.2L365.184,205.2z M460.224,205.344c0.072-0.432,0.216-0.936,0.3601-1.44
		c0.936-0.936,0.936-0.936,1.944-2.88c13.824-1.8,13.824-1.8,18.5759-2.16c-0.864,1.728-0.864,1.728-3.0959,4.464
		c-7.416,0.936-7.416,0.936-9.576,1.44C465.696,204.912,462.96,205.128,460.224,205.344L460.224,205.344z M305.928,204.984
		c-9.864-0.504-20.664-0.504-24.48-0.936c-0.72-0.288-0.72-0.288-38.16-1.44c-0.936,0.432-0.936,0.432-1.44,0.216
		c-29.52-0.936-49.896-1.944-56.16-1.944c-9.576-0.432-9.576-0.432-14.904-0.216c-11.664-0.648-23.328-1.296-34.992-1.944
		c-37.728-0.432-37.728-0.432-44.64-0.72c0-0.288-0.072-0.648-0.144-1.008c0.936-1.944,0.936-1.944,1.152-3.168
		c0.576-0.864,1.224-1.8,1.872-2.736c12.96,0.216,13.896,0.432,47.736,0.72c1.8,0.216,3.672,0.432,5.544,0.72
		c17.712,0,17.712,0,39.096,0.432c1.872,0.144,3.816,0.288,5.76,0.504c9.648,0.216,19.296,0.432,29.016,0.72
		c3.312,0.216,6.696,0.432,10.08,0.72c7.416,0.072,14.832,0.144,22.32,0.216c6.408,0.36,12.816,0.792,19.224,1.224
		c2.16-0.288,4.32-0.576,6.48-0.936c0.72-1.152,1.44-2.304,2.232-3.456c-0.072-0.648-0.144-1.296-0.216-1.944
		c-2.232-1.728-4.464-3.456-6.696-5.256c-1.44-1.368-2.88-2.736-4.32-4.104c-2.52-1.872-5.04-3.816-7.56-5.76
		c-0.432-0.216-0.936-0.432-1.44-0.648c-3.816-0.144-7.632-0.288-11.52-0.432c-0.432,0.144-0.936,0.288-1.44,0.432
		c-2.376,3.168-2.376,3.168-3.096,3.6c-2.232,0.144-4.464,0.288-6.768,0.504c-19.44-0.216-20.88-0.504-36.432-0.936
		c-3.456,0-6.912,0-10.368,0c-5.616-0.432-11.304-0.936-16.992-1.44c-7.2,0.216-27.144,0-39.384,0.216
		c-29.52-0.72-29.52-0.72-32.688-1.08c0-0.432,0-0.936-0.072-1.44c0.432-1.008,0.936-2.016,1.44-3.096c0-0.936,0-0.936-0.36-1.584
		c-4.032-0.6479-8.136-1.296-12.24-1.944c-11.016-0.936-11.016-0.936-11.88-1.296c0.072-0.432,0.144-0.936,0.216-1.44
		c0.936-1.656,1.944-2.592,3.384-5.04c0-0.36,0-0.72,0-1.1519c-3.888-9.144-3.888-9.144-8.64-21.6
		c-0.144-0.792-0.288-1.584-0.504-2.448c-3.384-7.632-4.32-10.512-4.824-11.232c-0.576-1.872-1.224-3.816-1.872-5.76
		c-0.072-1.152-0.144-2.376-0.288-3.6c1.008-1.008,1.008-1.008,2.592-1.872c4.536-0.936,4.536-0.936,15.336-2.16
		c0.936,0.144,1.872,0.288,2.88,0.504c-0.36,0.144-0.792,0.288-1.224,0.504c-3.816,0-3.816,0-9.792,0.432
		c-0.864,0.288-1.728,0.648-2.664,1.008c-1.224,1.08-1.224,1.08-1.584,1.8c0.072,0.432,0.144,0.936,0.216,1.44
		c1.008,1.224,1.008,1.224,2.448,2.376c0.936,1.584,1.872,3.168,2.88,4.824c1.872,2.16,1.872,2.16,5.76,7.92
		c1.872,3.384,1.872,3.384,2.88,5.976c3.816,6.048,5.76,8.64,6.696,10.368c0.36,0.36,0.72,0.72,1.08,1.152
		c2.88,0.36,2.88,0.36,5.328,0.144c0.432-0.288,0.432-0.288,7.632-0.72c4.032-0.648,8.136-1.296,12.24-1.944
		c3.96,0,7.992,0,12.024,0c2.88-0.504,22.824-1.656,23.544-1.944c4.32-0.144,8.64-0.288,12.96-0.432
		c5.976,0.144,11.952,0.288,18,0.432c5.256-0.432,16.776-0.432,28.08-0.936c4.032,1.944,4.032,1.944,5.472,2.376
		c5.328,3.888,5.328,3.888,12.24,8.208c1.224,0.432,6.984,4.32,11.808,7.2c1.584,0.576,3.168,1.224,4.752,1.872
		c1.44,1.008,10.584,5.7599,11.808,6.7679c6.192,3.816,6.192,3.816,11.52,7.632c4.536,4.104,4.536,4.104,11.52,9.864
		c3.6,2.16,3.6,2.16,8.64,5.976c1.008,1.008,2.016,2.088,3.096,3.168c4.32,2.88,4.32,2.88,6.4799,3.816
		c6.048,0.936,12.096,1.872,18.216,2.88c4.68,0.432,9.432,0.936,14.184,1.44c0.288,0.216,0.576,0.432,0.936,0.72
		c-0.216,0.216-0.216,0.216-5.04,0.504c-8.64-0.288-8.64-0.288-11.736,0C317.952,204.984,317.952,204.984,305.928,204.984
		L305.928,204.984z M135.072,204.48c-3.6-0.432-7.2-0.864-10.8-1.296c0.288-2.592,0.288-2.592,0.72-3.24
		c5.256,0,10.512,0.072,15.84,0.144c-0.288,1.44-0.576,2.88-0.864,4.32C138.384,204.408,136.728,204.408,135.072,204.48
		L135.072,204.48z M118.944,202.824c-5.04-0.504-5.04-0.504-12.24-0.792c0.072-0.72,0.216-1.44,0.36-2.16
		c0.288-0.144,0.576-0.288,0.864-0.432c4.968,0.216,9.936,0.432,14.976,0.648c-0.072,0.864-0.144,1.728-0.216,2.664
		C121.464,202.752,120.24,202.752,118.944,202.824L118.944,202.824z M480.888,202.968c0.2159-0.72,0.504-1.44,0.792-2.16
		c1.008-1.224,1.008-1.224,1.368-2.304c3.6-0.504,3.6-0.504,9.576-0.72c0.936,0.072,1.872,0.216,2.88,0.36
		c0,0.288,0.072,0.648,0.144,1.008c-0.504,0.72-0.72,1.872-1.08,2.232C488.304,202.32,488.304,202.32,480.888,202.968
		L480.888,202.968z M92.592,201.888c-0.936,0-1.872-0.072-2.88-0.144c0.072-0.576,0.144-1.224,0.288-1.872
		c1.872-0.216,3.744-0.432,5.688-0.648c3.168,0.144,6.336,0.288,9.576,0.504c0.144,1.296,0.144,1.296-0.216,1.872
		C100.944,201.672,96.768,201.744,92.592,201.888L92.592,201.888z M496.944,200.592c0.36-1.224,0.36-1.224,0.864-1.944
		c0.864-0.144,0.864-0.144,5.616,0.72c-0.2159,0.144-0.4319,0.36-0.72,0.576C500.832,200.16,498.888,200.376,496.944,200.592
		L496.944,200.592z M508.968,197.064c-0.72-0.072-1.44-0.216-2.16-0.36c0-0.216,0-0.432,0-0.72c4.536-0.864,4.536-0.864,9.576-2.304
		c0.576,0,1.1519,0.072,1.7279,0.144c-0.6479,0.7921-1.296,1.656-1.9439,2.5201c-0.648,0.144-1.296,0.288-1.9441,0.504
		C512.496,196.92,510.768,196.992,508.968,197.064L508.968,197.064z M493.128,195.624c-0.36,0-0.792,0-1.224-0.072
		c0.432-1.296,0.864-2.592,1.296-3.888c0.6479-0.792,1.296-1.584,1.944-2.376c1.8-0.144,1.8-0.144,9.504,0.72
		c-0.072,0.864-0.216,1.728-0.36,2.664c-0.432,0.576-0.8641,1.152-1.296,1.728C496.728,195.408,496.728,195.408,493.128,195.624
		L493.128,195.624z M485.424,195.12c-1.7999-0.144-3.5999-0.288-5.4719-0.432c-0.936-0.288-1.872-0.648-2.88-1.008
		c0-0.216-0.072-0.504-0.144-0.792c1.8719-5.256,1.8719-5.256,2.304-5.688c1.224,0,2.52,0,3.816,0
		c3.384,0.432,6.84,0.864,10.296,1.368c-1.7999,4.104-1.7999,4.104-3.24,6.48C488.592,195.048,487.008,195.048,485.424,195.12
		L485.424,195.12z M505.152,194.328c0.288-1.656,0.288-1.656,0.72-2.448c0.288-0.144,0.648-0.288,1.008-0.432
		c0.144-0.36,0.288-0.72,0.432-1.08c5.256,0.72,5.256,0.72,9.072,1.656c-0.504,0.288-1.08,0.576-1.6561,0.936
		c-1.512,0.288-3.024,0.648-4.5359,1.008C508.5359,194.04,506.88,194.184,505.152,194.328L505.152,194.328z M470.592,193.248
		c-3.096-0.432-6.192-0.936-9.36-1.44c0-0.36-0.072-0.72-0.144-1.08c0.432-0.936,0.936-1.872,1.44-2.88
		c0.504-0.504,1.008-1.008,1.584-1.584c4.392,0.288,8.784,0.576,13.176,0.864c-0.36,2.16-0.36,2.16-0.864,2.88
		c-0.288,0.936-0.576,1.872-0.936,2.88c-0.144,0.072-0.36,0.216-0.576,0.36C473.472,193.248,472.032,193.248,470.592,193.248
		L470.592,193.248z M297.504,191.52c-1.224-0.936-2.52-1.872-3.816-2.88c-0.936-1.296-0.936-1.296-4.824-5.04
		c-10.512-7.632-10.512-7.632-11.52-8.136c0-0.504-0.072-1.008-0.144-1.512c0.648-0.432,11.448-2.808,12.384-3.312
		c0.432,0,0.936,0,1.44,0c2.664,1.944,6.984,6.048,9.648,7.92c3.312,2.88,4.32,4.248,7.2,6.7679c0.72,0.432,1.44,0.936,2.16,1.44
		c0.576,0.144,1.224,0.2881,1.872,0.432c0.2159,0.216,0.4319,0.432,0.72,0.648c-0.432,0.432-0.936,0.864-1.44,1.296
		c-0.864,0.072-1.728,0.144-2.592,0.216c-2.52,0.648-5.112,1.296-7.704,1.944C299.808,191.376,298.656,191.448,297.504,191.52
		L297.504,191.52z M458.064,191.52c-4.392-0.288-8.784-0.648-13.176-1.008c0.216-1.152,0.504-2.376,0.792-3.6
		c0.288-0.576,0.576-1.152,0.864-1.728c1.944-0.144,1.944-0.144,14.688,0.576c0.144,0.0721,0.2881,0.216,0.432,0.36
		c-1.8,4.392-1.8,4.392-2.304,5.112C458.928,191.304,458.496,191.376,458.064,191.52L458.064,191.52z M440.784,190.368
		c-3.312-0.504-3.312-0.504-15.84-1.584c0.072-0.936,0.216-1.872,0.36-2.88c0.216-0.36,0.432-0.792,0.6479-1.224
		c1.8-0.216,3.6-0.504,5.472-0.792c4.32,0.216,8.64,0.432,12.96,0.72c0.072,0.36,0.216,0.72,0.36,1.08
		c-0.432,1.44-0.936,2.88-1.44,4.32C442.512,190.08,441.648,190.224,440.784,190.368L440.784,190.368z M420.624,188.64
		c-4.104-0.648-8.28-1.296-12.456-2.016c0.216-0.72,0.504-1.44,0.7921-2.16c0.2159-0.144,0.4319-0.288,0.6479-0.432
		c2.88,0,5.76-0.072,8.64-0.144c1.944,0.144,3.96,0.288,5.976,0.432c0,0.36,0.072,0.72,0.144,1.152
		c-0.288,1.008-0.648,2.016-1.008,3.096C422.496,188.568,421.56,188.568,420.624,188.64L420.624,188.64z M317.952,187.92
		c-2.016-1.296-4.032-2.664-6.0479-4.032c-4.536-3.888-7.2-5.76-8.856-7.488c-5.04-3.816-5.04-3.816-6.264-5.04
		c0-0.216-0.072-0.504-0.144-0.792c0.144-0.216,0.288-0.432,0.504-0.72c1.584-0.36,1.584-0.36,8.28-0.864
		c1.368-0.36,2.736-0.792,4.104-1.224c0.504,0.504,0.504,0.504,0.792,1.368c5.328,3.816,5.328,3.816,10.008,7.704
		c3.168,2.16,6.336,4.32,9.576,6.5519c1.008,0.216,1.008,0.216,1.296,0.648c0,0.36,0,0.72,0,1.152
		c-0.576,0.36-4.176,0.864-11.376,2.736C319.248,187.92,318.6,187.92,317.952,187.92L317.952,187.92z M405.504,186.048
		c-1.44-0.504-1.44-0.504-5.616-1.296c0-0.216-0.072-0.432-0.144-0.72c4.32-0.144,4.32-0.144,7.56,0.216
		c-0.216,1.224-0.216,1.224-0.576,1.8C406.368,186.048,405.936,186.048,405.504,186.048L405.504,186.048z M334.944,185.04
		c-5.76-3.816-5.76-3.816-10.8-7.632c-4.536-4.104-9.576-7.92-10.44-9c0-0.288,0-0.576,0-0.936c0.576-0.36,1.152-0.72,1.8-1.152
		c3.384-0.432,3.6-0.72,5.76-1.152c0.72-0.504,0.72-0.504,1.728-0.504c0.432,0.504,0.432,0.504,0.792,1.584
		c6.048,4.536,12.096,9.072,18.144,13.68c0.648,0.216,1.296,0.504,1.944,0.792c0.576,0.864,0.576,0.864,0.576,1.368
		c-0.288,0.216-0.576,0.504-0.864,0.792c-2.16,0.648-4.32,1.296-6.48,1.944C336.384,184.896,335.664,184.968,334.944,185.04
		L334.944,185.04z M347.904,182.88c-0.72-0.576-0.72-0.576-1.152-1.512c-2.448-1.8-4.968-3.6-7.488-5.4
		c-1.44-1.296-2.88-2.592-4.32-3.888c-0.72-0.288-1.44-0.576-2.16-0.936c-4.32-4.32-4.32-4.32-5.4-5.112
		c-0.072-0.36-0.144-0.792-0.216-1.224c0.144-0.144,0.288-0.288,0.432-0.504c1.944-0.432,3.888-0.864,5.904-1.296
		c0.792,0,1.584,0,2.448,0.072c0.072,0.36,0.144,0.792,0.288,1.224c9.288,7.704,9.288,7.704,10.368,8.928
		c2.664,1.872,5.328,3.744,8.064,5.616c0.72,0.144,1.44,0.288,2.16,0.432c0.0721,1.152,0.0721,1.152-0.288,1.728
		C348.912,182.88,348.912,182.88,347.904,182.88L347.904,182.88z M211.824,162.504c-0.072-0.072-0.216-0.216-0.36-0.36
		c0.216-3.096,0.216-3.096,0.72-4.536c0.72-0.288,1.512-0.576,2.304-0.864c2.448-0.072,4.896-0.144,7.416-0.216
		c1.728,1.224,3.528,2.52,5.328,3.816c0.288,0.648,0.288,1.8,0,2.16c-1.512-0.216-3.024-0.432-4.608-0.72
		c-2.592,0.072-5.256,0.144-7.92,0.216C213.264,162.504,213.264,162.504,211.824,162.504L211.824,162.504z M98.352,141.12
		c-2.016-0.144-4.032-0.288-6.048-0.432c-2.664-4.752-5.328-9.504-8.064-14.256c0-1.44,0.504-2.664,0.72-8.208
		c-0.432-2.88-0.432-2.88-0.36-4.536c2.448-0.288,4.968-0.576,7.488-0.864c21.816-0.72,21.816-0.72,23.04-0.504
		c0.36,0.288,0.792,0.648,1.224,1.008c3.816,5.256,3.816,5.256,7.632,11.52c0,0.288,0.072,0.576,0.144,0.864
		c-0.144,0.288-0.288,0.576-0.504,0.936c-0.072,0.864-0.144,1.728-0.216,2.664c0.936,5.76,0.936,5.76,1.44,11.016
		c-0.072,0.0721-0.216,0.216-0.36,0.36c-3.384,0.216-15.624,0.216-17.784,0.432C103.968,141.12,101.16,141.12,98.352,141.12
		L98.352,141.12z M127.872,140.184c-0.144-0.216-0.288-0.504-0.432-0.792c-0.432-5.04-0.936-6.984-0.792-7.8481
		c0.216,0,0.432,0,0.72,0c0.648,0.864,1.296,1.728,1.944,2.664c0.648,1.512,1.296,3.096,2.016,4.68c0,0.36-0.072,0.72-0.144,1.08
		C130.104,140.04,129.024,140.112,127.872,140.184L127.872,140.184z M134.568,139.248c-0.576-1.08-1.152-2.16-1.8-3.24
		c-0.144-0.648-0.288-1.296-0.504-1.944c-1.08-1.728-2.232-3.456-3.384-5.256c-0.288-0.936-0.576-1.872-0.936-2.88
		c-1.08-1.44-2.232-2.88-3.384-4.32c-0.288-0.72-0.576-1.44-0.936-2.16c-1.44-1.944-2.88-3.96-4.32-5.976
		c-0.072-0.576-0.216-1.152-0.36-1.728c1.44-0.144,1.44-0.144,6.048,0.36c2.16,2.0161,5.976,6.696,13.68,15.12
		c3.6,3.312,7.2,6.696,10.8,10.08c-0.144,0.144-0.288,0.288-0.504,0.504C136.512,139.248,136.512,139.248,134.568,139.248
		L134.568,139.248z M81.504,122.688c-1.872-2.448-1.872-2.448-4.68-7.344c0-0.288,0.072-0.576,0.144-0.936
		c0.936-0.504,0.936-0.504,3.816-0.864c0.36,0,0.72,0.0721,1.08,0.144c0.504,2.664,0.504,2.664,0.72,6.696
		c-0.072,0.648-0.144,1.2961-0.216,1.944C81.72,122.832,81.72,122.832,81.504,122.688L81.504,122.688z M100.512,109.728
		c-0.216-0.072-0.432-0.216-0.72-0.36c0.504-0.216,1.08-0.432,1.656-0.648c0.936-0.072,1.872-0.144,2.88-0.216
		c0.72,0.072,1.44,0.216,2.16,0.36c-0.072,0.072-0.144,0.216-0.216,0.36C102.888,109.728,102.888,109.728,100.512,109.728
		L100.512,109.728z M109.368,109.224c0-0.216,0-0.504,0-0.792c1.44-0.432,1.44-0.432,4.32-0.432c0.72,0.288,7.2,0.288,7.416,0.504
		c-0.216,0.144-0.432,0.288-0.72,0.504C117.792,109.224,117.792,109.224,109.368,109.224L109.368,109.224z M84.384,106.848
		c-0.144-0.144-0.36-0.36-0.576-0.576c-0.504-4.608-0.504-4.608-0.36-5.544c0.216,0,0.432-0.072,0.72-0.144
		c0.936,1.584,1.872,3.24,2.88,4.896c0,0.36,0,0.792,0.072,1.224C86.256,106.704,85.32,106.776,84.384,106.848L84.384,106.848z"/>
</g>
</svg>
