<?xml version="1.0" encoding="utf-8"?>
<!-- Generator: Adobe Illustrator 21.1.0, SVG Export Plug-In . SVG Version: 6.00 Build 0)  -->
<svg version="1.1" id="Ma" xmlns="http://www.w3.org/2000/svg" xmlns:xlink="http://www.w3.org/1999/xlink" x="0px" y="0px"
	 viewBox="0 0 425.088 258.696" enable-background="new 0 0 425.088 258.696" xml:space="preserve">
<g>
	<path fill-rule="evenodd" clip-rule="evenodd" d="M213.552,258.696c-2.016-0.288-4.032-0.576-6.048-0.936
		c-2.664-0.936-5.4-1.872-8.136-2.88c-2.16-0.432-4.32-0.936-6.4799-1.44c-4.104-1.728-4.104-1.728-6.264-2.16
		c-8.352-4.104-8.352-4.104-16.992-7.92c-5.976-1.2961-11.952-2.592-18-3.888c-3.24,0-6.552,0-9.864,0
		c-2.16,0.504-2.16,0.504-3.816,1.44c-2.736,0.648-5.472,1.296-8.208,1.944c-4.032,1.44-4.032,1.44-6.192,1.944
		c-1.08,0-2.232,0-3.384,0c-2.88-1.008-2.88-1.008-7.704-1.944c-0.504-0.288-1.08-0.576-1.656-0.936
		c-0.288-0.36-0.576-0.792-0.936-1.224c-4.824-2.88-4.824-2.88-6.984-3.816c-1.224-1.08-1.224-1.08-2.088-2.52
		c-0.072-0.36-0.144-0.792-0.288-1.224c-1.872-0.432-3.816-0.864-5.76-1.296c-0.864,0.072-1.728,0.144-2.664,0.216
		c-0.144-0.144-0.288-0.288-0.504-0.504c-2.376-0.432-4.752-0.936-7.2-1.44c-3.168-0.144-6.336-0.288-9.576-0.432
		c-6.984-1.944-16.056-3.888-18.936-4.824c-5.328-0.936-5.328-0.936-8.64-1.944c-5.184-0.792-10.368-1.584-15.624-2.376
		c-1.728,0-3.456,0-5.256,0c-1.584,0.216-3.168,0.432-4.824,0.72c-3.6-0.216-6.264-0.72-16.776-1.656
		c-0.288-0.072-0.648-0.144-1.008-0.288c-0.144-0.216-0.288-0.504-0.432-0.792c0.144-0.2881,0.288-0.576,0.432-0.864
		c2.448,0.216,2.448,0.216,7.704,1.44c1.656-0.072,3.312-0.144,5.04-0.216c0.864,0.216,1.728,0.432,2.664,0.72
		c4.32-0.288,4.32-0.288,6.48-0.72c2.448,0.072,4.896,0.144,7.416,0.216c12.744,1.944,12.744,1.944,22.32,3.816
		c0.864,0.288,1.728,0.648,2.664,1.008c13.68,2.88,13.68,2.88,18.72,4.32c2.376,0,4.752,0,7.2,0c1.224,0.288,2.52,0.576,3.816,0.936
		c5.76,0.504,5.76,0.504,8.64,0.504c1.008-0.216,2.016-0.432,3.096-0.72c1.08,0,2.232,0,3.384,0
		c0.144,0.144,0.288,0.288,0.504,0.432c1.08,0,2.16,0,3.312,0c0.936-0.288,1.872-0.576,2.88-0.936
		c1.224,0.216,1.728,0.72,3.168,1.224c1.44,0.072,2.88,0.144,4.32,0.216c1.08-0.432,2.16-0.936,3.312-1.44
		c1.8,0.072,3.672,0.144,5.544,0.216c0.864-0.288,1.728-0.576,2.664-0.936c0.864-0.648,1.728-1.2961,2.592-1.944
		c0.36,0,0.792,0,1.224,0c0.216,0.36,0.216,0.36,0,1.368c1.584-0.072,3.168-0.216,4.824-0.36c2.664-0.72,5.4-1.44,8.136-2.16
		c0.504,0,1.08,0,1.656,0c0.144,0.216,0.288,0.432,0.504,0.72c2.88-0.288,2.88-0.288,5.04,0c0.432,0.216,0.936,0.432,1.44,0.72
		c4.824,0.216,7.704,0,8.64,0.144c-0.072,0.36-0.216,0.72-0.36,1.152c-0.216,0.144-0.432,0.288-0.72,0.504
		c0,0.216,0.072,0.504,0.144,0.792c0.72,0.288,0.72,0.288,9.576,0.504c1.656-0.072,3.312-0.144,5.04-0.216
		c0.072,0.648,0.144,1.296,0.216,2.016c4.608-0.864,12.024-2.736,15.12-3.24c1.44,0.216,1.728,0.504,2.88,0.72
		c2.376-0.0721,4.752-0.144,7.2-0.216c5.544-1.0081,5.544-1.0081,15.12-1.944c0.936-0.2881,1.872-0.576,2.88-0.936
		c1.08-0.648,2.232-1.2961,3.384-1.944c6.408-1.368,12.816-2.736,19.224-4.104c0.072-0.072,0.144-0.216,0.216-0.36
		c-1.08-0.144-2.232-0.36-3.384-0.576c-0.864-0.648-1.728-1.296-2.592-1.944c-2.664-0.936-2.664-0.936-5.328-1.44
		c-4.32-0.216-8.64-0.432-12.96-0.72c-5.184,0-10.368,0-15.552,0c-7.92,1.008-7.92,1.008-13.248,1.224
		c-2.0161-0.072-4.104-0.144-6.192-0.216c-8.928-1.944-8.928-1.944-18-4.3199c-2.16,0-2.16,0-6.48-0.504
		c-1.008-0.2881-2.088-0.576-3.168-0.936c-0.648-0.432-1.296-0.864-2.016-1.2961c0-0.36-0.072-0.792-0.144-1.224
		c-2.016-0.288-4.104-0.576-6.192-0.864c-10.08-0.504-10.08-0.504-13.464-0.936c-0.144-0.288-0.288-0.576-0.504-0.864
		c-2.016-0.288-4.104-0.576-6.192-0.864c-0.72-0.576-0.72-0.576-1.152-1.512c-2.16-0.216-4.32-0.432-6.552-0.648
		c-0.36-0.36-0.792-0.72-1.224-1.152c-1.44-0.072-2.88-0.144-4.32-0.288c-0.504-0.216-1.008-0.504-1.584-0.792
		c0.072-0.432,0.144-0.936,0.288-1.44c0.288-0.288,0.576-0.648,0.864-1.008c-1.368,0-2.736,0.072-4.104,0.144
		c-1.872,0.288-3.816,0.576-5.76,0.936c-1.368,0-2.736,0-4.104,0c-0.216-0.144-0.432-0.36-0.72-0.576
		c-0.072-0.432-0.144-0.936-0.216-1.44c-13.464,1.8-13.464,1.8-15.84,1.8c-0.36-0.576-0.36-0.576-0.36-1.512
		c0.576-0.576,1.152-1.152,1.8-1.728c-2.376-0.144-6.48,0.36-13.176,0.576c-1.224-0.432-1.224-0.432-1.584-1.008
		c0.072-0.648,0.144-1.296,0.216-1.944c0.936-1.224,0.936-1.224,3.6-3.6c0-0.216,0.072-0.432,0.144-0.72
		c-4.104,0.072-8.424,0.576-15.12,0.792c-0.36-0.576-0.36-0.576-0.36-2.016c0.288-0.36,0.576-0.792,0.864-1.224
		c-0.792,0-1.584,0-2.448-0.072c-1.728,0.288-3.456,0.576-5.256,0.936c-1.584,0.072-3.168,0.144-4.824,0.216
		c-0.216-0.144-0.432-0.36-0.72-0.576c0-0.36-0.072-0.72-0.144-1.152c0.36-0.576,0.72-1.152,1.152-1.728
		c-0.72,0-1.44-0.0721-2.16-0.144c-1.872,0.288-3.816,0.648-5.76,1.008c-0.936,0-1.872,0-2.88,0c-0.432-0.576-0.432-0.576-0.432-1.8
		c0.288-0.36,0.576-0.7921,0.864-1.224c-0.576,0-1.224-0.0721-1.872-0.144c-1.8,0.288-3.672,0.648-5.544,1.008
		c-1.152,0-2.376,0-3.6,0c-0.936-0.504-0.936-0.504-1.368-1.08c0-0.72,0.072-1.44,0.144-2.16c-1.8,0-3.6-0.072-5.472-0.144
		c-0.432-0.576-0.432-0.576-0.504-1.8c-2.304,0-4.608,0.072-6.984,0.144c-0.504-0.144-1.08-0.288-1.656-0.504
		c-0.216-0.288-0.432-0.576-0.72-0.936c-2.088,0.216-4.176,0.432-6.264,0.72c-0.72,0-1.512-0.072-2.304-0.144c0-0.36,0-0.72,0-1.152
		c0.576-0.288,1.224-0.576,1.872-0.864c0.432,0.072,0.936,0.144,1.44,0.216c5.04-0.72,6.696-1.224,7.776-1.08
		c0,0.72-0.288,1.008-0.36,1.944c3.096,0.072,3.096,0.072,12.024-0.648c0,0.36,0,0.72,0.072,1.152
		c-0.504,0.432-0.504,0.432-0.504,1.152c0.072,0.072,0.216,0.144,0.36,0.288c1.512-0.432,1.512-0.432,6.552-0.648
		c0.072,0.288,0.144,0.576,0.288,0.864c-1.08,0.792-2.16,1.584-3.312,2.376c0,0.216-0.072,0.432-0.144,0.72
		c7.704-0.864,7.704-0.864,10.8-1.584c1.008,0,2.088,0,3.168,0c0.288,0.432,0.288,0.432,0.072,1.584
		c-0.504,0.432-1.08,0.936-1.656,1.44c0,0.216-0.072,0.4319-0.144,0.72c4.968-0.7921,9.936-1.656,14.904-2.5201
		c0.144,0.144,0.288,0.36,0.504,0.576c-0.288,0.36-0.648,0.72-1.008,1.08c-3.6,1.944-3.6,1.944-4.68,2.808
		c0,0.216,0,0.432-0.072,0.72c1.656-0.072,3.312-0.216,5.04-0.36c4.32-0.936,8.64-1.872,12.96-2.88
		c0.36,0.0721,0.72,0.144,1.152,0.216c0,0.288,0.072,0.576,0.144,0.864c-2.088,1.152-4.248,2.376-6.408,3.6
		c-0.072,0.216-0.144,0.432-0.216,0.72c3.096-0.288,6.192-0.576,9.36-0.864c1.728,0.072,3.528,0.144,5.328,0.216
		c0.288,0.432,0.288,0.432,0.072,2.088c-1.368,1.368-2.736,2.7361-4.104,4.104c0,0.288,0.072,0.648,0.144,1.008
		c2.088-0.072,4.176-0.144,6.264-0.216c3.384-0.432,6.84-0.936,10.296-1.44c0.792,0.072,1.584,0.216,2.448,0.36
		c-0.288,0.432-0.576,0.936-0.864,1.44c-1.08,0.576-2.16,1.152-3.24,1.728c-0.072,0.216-0.144,0.432-0.216,0.72
		c2.52-0.288,5.04-0.576,7.632-0.864c3.024-0.792,6.048-1.584,9.144-2.448c0.504,0,1.008,0.072,1.512,0.144
		c-0.072,0.288-0.144,0.648-0.216,1.008c-0.72,0.432-1.44,0.936-2.16,1.44c-0.072,0.288-0.216,0.576-0.36,0.936
		c4.824-0.36,10.584-1.368,18.288-2.088c0.144,0.144,0.36,0.288,0.576,0.432c0,0.216,0,0.432,0,0.72
		c-1.368,0.72-2.736,1.44-4.176,2.232c-0.072,0.288-0.144,0.576-0.288,0.864c4.176,0,8.352,0,12.528,0c0,0.432,0,0.936,0,1.44
		c0.792,0,1.584,0,2.376,0.072c0.144,0.144,0.36,0.288,0.576,0.432c-0.072,0.576-0.216,1.224-0.36,1.872
		c9.648,0.864,9.648,0.864,10.296,1.224c0.144,0.216,0.288,0.504,0.504,0.792c6.768,0.504,9.36,1.008,14.4,1.44
		c1.008,0.504,1.008,0.504,1.944,1.44c0.072,0.864,0.072,0.864-0.216,1.872c3.816,0.576,7.632,0.7921,13.176,1.728
		c3.384,1.008,6.48,1.44,9.576,2.448c2.448,0.432,2.448,0.432,10.584,0.72c3.528-0.36,7.056-0.792,10.584-1.224
		c6.336,0.072,12.744,0.144,19.152,0.216c4.32,0.288,8.64,0.648,12.96,1.008c0.864,0.288,1.728,0.576,2.664,0.936
		c1.008,0.648,2.016,1.296,3.096,1.944c2.16,0,2.448-0.288,3.888-0.288c0.216,0.144,0.432,0.288,0.72,0.504
		c0.072,0.864,0.072,0.864-0.288,2.088c12.024-0.144,12.024-0.144,20.16,0.072c0.432,0.144,0.936,0.288,1.44,0.504
		c2.88,0.072,5.76,0.144,8.64,0.216c4.824-0.504,4.824-0.504,6.768-0.936c3.312-1.944,5.76-2.88,7.2-3.888
		c0.072-0.216,0.144-0.504,0.216-0.792c-5.544-1.224-11.16-2.448-16.776-3.744c-2.952-0.432-5.904-0.936-8.9279-1.44
		c-4.392-0.216-8.784-0.432-13.176-0.72c-5.112,0.072-10.224,0.144-15.336,0.216c-2.592-0.576-5.256-1.224-7.92-1.872
		c-7.92-2.88-7.92-2.88-14.184-4.824c-6.12-1.224-12.312-2.52-18.504-3.816c-5.184-0.432-10.368-0.936-15.552-1.44
		c-5.3279-0.936-10.728-1.872-16.128-2.88c-0.936-0.504-0.936-0.504-8.136-1.944c-1.656-0.648-3.312-1.2961-5.04-1.944
		c-9.144-1.872-12.744-2.88-24.984-5.256c-2.88-0.216-2.88-0.216-4.752-0.72c-0.216-0.144-0.432-0.288-0.72-0.504
		c-8.928-1.872-8.928-1.872-10.368-2.376c-0.36-0.36-0.72-0.792-1.152-1.224c-12.528-5.256-12.96-5.76-15.12-6.696
		c-5.256-1.584-10.512-3.168-15.84-4.824c-1.368-0.576-2.736-1.224-4.104-1.872c-3.816-0.504-3.816-0.504-13.464-1.008
		c-7.416,0-9.072,0.288-16.776,0c-10.08,0.504-10.08,0.504-13.176,0.288c-1.08-0.288-2.232-0.648-3.384-1.008
		c-4.536,0-4.536,0-5.544,0.288c-0.36-0.36-0.72-0.792-1.152-1.224c-3.888-1.944-5.328-2.376-9.144-4.32
		c-3.096-0.936-3.096-0.936-4.824-1.944c-3.816-0.936-3.816-0.936-4.176-1.296c0-0.936,0-0.936,0.36-1.296
		c1.08,0.216,2.232,0.432,3.384,0.72c4.32,1.872,6.48,2.376,8.856,3.312c1.44,1.008,1.44,1.008,5.544,2.88
		c4.32,1.008,4.32,1.008,8.352,1.44c1.008,0.288,2.088,0.648,3.168,1.008c2.16-0.288,2.16-0.288,2.376-0.6479
		c-0.504-6.336-1.008-12.744-1.584-19.152c0.648-0.864,1.296-1.728,1.944-2.664c4.032-4.032,4.032-4.032,6.48-5.976
		c3.24-1.872,6.48-3.744,9.72-5.688c4.32-1.872,4.32-1.872,12.024-5.76c10.08-3.816,11.952-4.752,13.896-5.256
		c0.432-0.216,0.864-0.504,1.296-0.7921c0.144-0.792,0.288-1.584,0.504-2.448c1.512-1.224,3.096-2.52,4.68-3.8159
		c0.576-0.288,1.152-0.576,1.8-0.936c0.72-0.648,1.44-1.296,2.16-1.944c4.68-2.88,9.36-5.76,14.112-8.64
		c-0.072-0.36-0.144-0.792-0.216-1.224c-3.816-5.472-3.816-5.472-10.08-13.176c-1.944-3.384-5.76-8.64-13.464-20.376
		c-9.576-13.464-10.512-14.4-11.592-16.128c-0.648-0.432-2.52-2.88-4.464-4.752C51.84,34.92,49.968,32.04,46.08,27.504
		c-0.792-1.08-1.656-2.232-2.52-3.384c-0.576-0.36-1.152-0.792-1.8-1.224c-2.304-2.5919-4.608-5.256-6.912-7.9199
		c-0.072-0.288-0.144-0.576-0.288-0.936c0.288-0.2161,0.576-0.432,0.864-0.7201c2.808,2.88,5.616,5.76,8.424,8.6401
		c2.016,2.664,4.176,4.824,9.936,12.456c0.936,1.728,0.936,1.728,5.976,8.208c4.104,4.32,5.04,5.76,6.048,6.696
		c1.872,2.664,1.872,2.664,2.88,3.6c0.576,1.08,1.224,2.232,1.872,3.384c3.528,4.752,7.056,9.576,10.584,14.4
		c0.936,1.872,6.696,9.792,9.576,14.616c3.168,3.816,3.168,3.816,4.248,4.536c0.576-0.432,0.576-0.432,3.456-5.04
		C104.688,81,104.688,81,108.72,78.12c2.52-1.368,5.112-2.736,7.704-4.1039c-0.216-2.304-0.504-4.608-0.792-6.912
		c-1.008,0-2.088,0-3.168,0.072c-2.376-0.504-2.376-0.504-3.312-0.936c-0.216-0.288-0.432-0.576-0.72-0.864
		c0.072-0.36,0.144-0.72,0.288-1.152c0.36-0.288,0.72-0.6479,1.08-1.008c1.44-0.36,2.952-0.72,4.464-1.152c0-0.792,0-1.584,0-2.448
		c-3.816-15.84-3.816-15.84-6.696-26.352c-1.008-2.88-1.008-2.88-1.944-7.704c-1.368-3.744-2.736-7.488-4.104-11.304
		c0-0.936,0-0.936,0.432-1.584c0.216,0,0.432,0,0.72,0c0.792,1.368,0.792,1.368,4.608,12.888c1.44,6.696,1.44,6.696,1.944,7.704
		c1.728,6.48,3.456,12.96,5.256,19.44c2.592,0.072,2.592,0.072,3.888-0.288c-0.072-0.72-0.144-1.44-0.288-2.16
		c-1.08-1.44-1.08-1.44-2.16-2.16c-0.072-0.864-0.144-1.728-0.216-2.592c0.36,0,0.72-0.072,1.08-0.144
		c0.864,0.504,1.728,1.08,2.664,1.656c1.224,0.288,2.52,0.576,3.816,0.936c0.936,1.296,1.872,2.592,2.88,3.888
		c1.224,0,1.224,0,2.304-0.36c-0.216-1.512-0.432-3.024-0.72-4.536c-1.224-3.384-1.224-3.384-5.04-17.784
		c-3.96-4.608-7.992-9.216-12.024-13.896c-2.376-2.16-2.376-2.16-5.4-4.1039c-1.368-1.368-2.736-2.736-4.176-4.104
		c-1.584-1.872-3.168-3.816-4.824-5.76c0.072-0.36,0.144-0.7201,0.216-1.1521c0.36,0,0.72-0.0719,1.152-0.1439
		c7.92,7.632,7.92,7.632,9.792,9.792c0.864,0.6479,1.728,1.296,2.664,1.944c1.44,1.44,2.88,2.88,4.32,4.32
		c0.648,0.864,1.296,1.728,1.944,2.664c1.44,0.936,1.44,0.936,2.88,1.296c-0.504-2.016-1.008-4.104-1.584-6.192
		c0.36-0.432,0.36-0.432,1.296-0.432c0.288,0.504,0.648,1.0081,1.008,1.584c1.224,3.6,2.448,7.2,3.672,10.8
		c1.368,1.224,2.808,2.52,4.248,3.816c1.872,2.664,3.096,3.744,4.032,5.184c1.008,0.936,1.008,0.936,1.944,2.304
		c0.216,0.72,0.504,1.44,0.792,2.16c4.176,4.608,8.352,9.216,12.528,13.896c0.72,0.6479,1.44,1.296,2.232,1.944
		c2.16,2.52,4.392,5.112,6.624,7.7039c-0.216,1.656-0.216,1.656-0.72,2.376c0,1.8,0,3.672,0,5.544
		c-1.224,1.44-1.656,2.592-2.16,3.096c-0.792,0.072-0.792,0.072-1.296-0.36c-0.144-1.584-0.144-1.584,0.504-6.84
		c-4.608-0.36-4.608-0.36-7.2-0.144c-2.448,0.936-2.448,0.936-4.824,2.376c0,0.432-0.072,0.864-0.144,1.368
		c0.648,1.008,1.296,2.016,1.944,3.096c0,0.576,0,1.152,0,1.728c-0.432,0.288-0.864,0.576-1.368,0.936
		c-0.936,0.144-1.872,0.36-2.808,0.576c-2.232-0.072-4.464-0.144-6.768-0.216c-0.432-0.288-0.936-0.648-1.44-1.008
		c-0.792-0.936-1.584-1.872-2.376-2.88c-1.08,0.216-2.232,0.432-3.384,0.72c-2.304,0.936-4.608,1.872-6.912,2.88
		c-0.36,0.288-0.792,0.648-1.224,1.008c-1.44,0.432-2.88,1.44-5.04,2.376c-1.44,0.936-2.376,1.944-4.104,2.88
		c-0.792,0.6479-1.584,1.296-2.376,1.944c-1.152,0.576-2.376,1.224-3.6,1.872c-0.648,0.792-1.296,1.656-1.944,2.52
		c-0.072,0.504-0.144,1.008-0.216,1.512c1.224,0.288,1.224,0.288,9,0.72c0.072,0.576,0.144,1.224,0.216,1.872
		c-1.944,4.608-1.944,4.608-3.816,7.92c-0.144,0.144-0.288,0.288-0.504,0.504c0.216,0.792,0.432,1.584,0.72,2.376
		c7.704,12.24,10.584,17.28,11.376,18c2.088,0.432,4.176,0.864,6.264,1.296c2.664,1.008,2.664,1.008,7.2,1.944
		c4.392,0.504,8.784,1.08,13.248,1.656c2.592,1.008,2.592,1.008,6.696,1.944c1.44,0.072,2.88,0.144,4.32,0.216
		c7.416,1.44,15.624,3.384,24.264,4.824c2.16,0.6479,4.32,1.296,6.48,1.944c2.232,0.288,4.464,0.576,6.696,0.936
		c2.16-0.216,2.16-0.216,6.48-1.224c0.432-0.2881,0.936-0.576,1.44-0.936c3.6-0.936,4.536-1.44,11.736-3.384
		c4.32-1.872,4.32-1.872,7.92-3.816c6.264-1.944,11.304-3.816,13.968-4.536c0.36-0.288,0.72-0.648,1.152-1.008
		c4.32-1.872,7.488-3.816,11.808-5.76c1.8-1.224,3.6-2.52,5.472-3.816c0.648-0.648,1.296-1.296,1.944-2.016
		c0-0.504,0-1.08,0.072-1.656c-5.616-2.16-11.232-4.392-16.848-6.624c-0.432-0.288-0.936-0.648-1.44-1.008
		c-18.288-6.696-18.288-6.696-19.944-7.632c-0.36,0-0.792,0-1.224,0c-1.872,2.16-1.872,2.16-4.032,4.032
		c-2.88,1.944-2.88,1.944-5.04,3.888c-7.272,3.744-14.544,7.488-21.888,11.232c-1.728,0.648-3.456,1.296-5.256,1.944
		c-1.728,0.288-3.456,0.576-5.256,0.936c-2.304,0-4.608,0-6.984,0c-7.488-0.792-14.976-1.584-22.536-2.376
		c-0.864-0.216-1.728-0.432-2.664-0.72c-2.664,0-2.664,0-8.424-0.936c-4.32-1.008-4.32-1.008-7.632-1.44
		c-9.144-2.448-12.024-2.88-12.672-3.24c0-0.504,0-1.08,0-1.656c4.824-4.104,4.824-4.104,6.408-4.968
		c2.088-2.088,4.176-4.176,6.264-6.264c14.832,1.224,16.992,1.728,20.88,1.944c3.096-0.216,3.096-0.216,10.8-1.656
		c3.6-1.872,7.2-3.816,10.8-5.76c1.656-0.648,3.312-1.296,5.04-1.944c0.36-0.288,0.72-0.576,1.152-0.936
		c0.936-0.288,1.872-0.648,2.88-1.008c5.04-2.88,5.04-2.88,7.488-3.816c1.584-1.224,3.168-2.5201,4.752-3.816
		c0.288-0.504,0.576-1.008,0.864-1.584c0-1.44,0-1.44-0.36-2.0161c-3.6-1.008-3.6-1.008-5.76-1.944
		c-2.664-0.648-5.4-1.296-8.136-1.944c-2.304-0.144-4.608-0.288-6.984-0.432c-1.008-0.288-2.016-0.648-3.096-1.008
		c-3.384-0.432-3.384-0.432-7.2-0.432c-0.432-0.576-0.432-0.576-0.432-1.296c0.504-0.504,0.504-0.504,2.088-0.864
		c1.224,0.072,2.52,0.144,3.816,0.216c1.44,0.288,2.88,0.576,4.32,0.936c3.312,0.288,6.696,0.648,10.08,1.008
		c1.656,0.36,3.312,0.72,5.04,1.152c1.152,0.432,2.376,0.936,3.6,1.44c0.936,0.144,1.872,0.288,2.88,0.504
		c1.728,0.936,1.728,0.936,2.448,1.8c0.576,1.44,0.576,1.44,0.792,3.384c0.288,0.288,0.576,0.576,0.936,0.936
		c2.088,0.864,2.088,0.864,7.632,4.176c0.936,1.008,4.752,3.384,7.2,5.688c1.584,1.152,3.168,2.304,4.752,3.456
		c1.296,0.288,2.592,0.576,3.888,0.936c9.0721,3.888,13.392,5.328,22.032,9.144c9.864,3.816,9.864,3.816,14.688,5.256
		c0.864,0.432,1.728,0.936,2.592,1.44c0.864,1.584,0.864,1.584,1.296,3.024c1.368,0.864,3.024,1.296,4.464,2.304
		c0.576,0.216,1.1519,0.432,1.728,0.72c9.072,0,9.072,0,19.44,0.432c2.592,0.504,4.752,0.504,6.696,1.008
		c1.944,0.144,3.96,0.288,5.976,0.432c1.08,0.216,2.232,0.432,3.384,0.72c2.664,0,2.664,0,2.88,0.288
		c1.08,0.216,2.232,0.432,3.3839,0.72c1.656,0,3.312,0,5.04,0c5.04,0.936,5.04,0.936,10.08,1.44c3.6,0.936,8.136,1.44,21.816,4.32
		c0.864,0.288,1.728,0.576,2.664,0.936c2.52,0.432,5.04,0.936,7.632,1.44c2.448,0.936,5.544,1.44,7.704,2.376
		c6.48,1.944,14.904,3.888,22.824,6.264c0.936,0.504,12.672,4.32,17.712,6.264c6.048,1.872,6.768,2.376,8.928,2.8799
		c0.504,0.432,1.08,0.936,1.656,1.44c1.44,0.576,2.88,1.224,4.32,1.872c0.36,0.288,0.792,0.648,1.224,1.008
		c0.792,0.144,1.584,0.288,2.376,0.432c0.2161,0.288,0.504,0.576,0.792,0.864c0.072,0.432,0.144,0.936,0.288,1.44
		c-0.288,0.792-0.648,1.584-1.008,2.448c-2.88,4.032-2.88,4.032-4.752,5.976c0,0.288,0,0.576,0.072,0.936
		c7.272,4.176,7.272,4.176,9.864,6.12c0.4319,0.504,0.936,1.008,1.44,1.584c0,0.288,0.072,0.576,0.144,0.936
		c-0.432,0.288-0.864,0.648-1.368,1.008c-9.072,3.672-17.496,6.552-19.152,7.488c-6.264,1.944-6.264,1.944-8.424,2.88
		c0,0.288-0.072,0.576-0.144,0.864c0.216,0.288,0.432,0.648,0.648,1.008c4.104,0.576,4.104,0.576,8.136,0.792
		c1.44,0.504,1.44,0.504,4.104,0.936c1.44,0,2.88,0,4.32,0c0.288,0.144,0.576,0.288,0.936,0.504
		c3.168,0.288,6.408,0.576,9.648,0.936c0.288,0.432,0.288,0.432,0.288,1.368c-0.144,0.072-0.36,0.216-0.576,0.36
		c-6.48-0.72-6.48-0.72-17.496-1.224c-2.952-0.504-5.904-1.08-8.856-1.656c-0.864,0.072-1.728,0.144-2.664,0.216
		c-1.368,1.44-2.736,2.88-4.104,4.32c-1.44,0.936-1.44,0.936-2.88,2.376c-0.072,0.432-0.144,0.864-0.216,1.368
		c1.44,0.36,5.04,2.232,9.576,4.176c0.72,0.576,1.512,1.152,2.304,1.8c0,0.288,0,0.648,0,1.008c-1.8,0.792-3.96,1.296-5.904,2.232
		c-0.432,0.072-0.936,0.144-1.44,0.216c-0.504,0.288-1.08,0.648-1.656,1.008c-0.7921,0.144-1.584,0.288-2.376,0.432
		c-5.04,1.944-8.64,2.88-9.36,3.384c-7.704,2.16-9.864,2.376-14.4,3.816c-4.824,1.008-7.2,1.944-14.184,3.384
		c-3.816,1.08-7.632,2.16-11.52,3.24c0,0.216,0,0.432,0,0.72c2.952,0.576,5.904,1.152,8.856,1.8c0.576,0.36,1.152,0.792,1.728,1.224
		c1.44,0.144,2.88,0.288,4.32,0.432c2.448-0.072,4.896-0.144,7.416-0.216c0.288,0.144,0.576,0.288,0.936,0.504
		c5.04,0.216,5.04,0.216,7.2,0c0.144,0.072,0.36,0.216,0.576,0.36c0,0.432,0,0.936,0,1.44c-0.144,0.072-0.36,0.216-0.576,0.36
		c-3.096-0.216-6.192-0.432-9.36-0.72c-2.232,0-4.464,0-6.696,0c-2.2321-0.288-4.464-0.648-6.696-1.008
		c-2.952-0.792-5.904-1.584-8.928-2.376c-1.584-0.144-3.168-0.288-4.752-0.504c-1.368-0.576-2.736-1.224-4.104-1.872
		c-1.008-1.08-2.016-2.232-3.096-3.384c-0.864-0.288-1.728-0.576-2.664-0.936c-3.6-0.504-3.6-0.504-7.2-0.504
		c-4.032,1.08-8.136,2.232-12.24,3.3839c-3.384,0.432-3.384,0.432-11.304,0.864c-0.072,0.288-0.216,0.576-0.36,0.936
		c-3.24,1.512-6.48,3.096-9.72,4.68c-0.792,0.216-1.584,0.432-2.376,0.72c-9.36,0.432-9.36,0.432-12.24,0.216
		c-0.792-0.144-1.584-0.288-2.376-0.504c-6.048-0.072-12.168-0.144-18.288-0.216c-4.32,0.648-8.64,1.296-12.96,1.944
		c-3.24,0.792-6.48,1.584-9.792,2.376c-1.08,0.648-2.232,1.296-3.384,1.944c-3.384,0.936-3.384,0.936-6.696,1.44
		c-2.016,0.144-4.032,0.288-6.048,0.432c-2.2321,0.36-4.464,0.792-6.696,1.224c-6.696,0-7.416-0.216-12.744,0
		c-3.816,0.936-5.976,1.944-8.3521,2.664c-2.376,0-4.752,0-7.2,0c-0.504-0.504-0.504-0.504-0.864-1.8
		c-2.52-0.36-5.904-0.36-11.376-0.864c-1.008-0.504-1.008-0.504-1.368-1.08c0-0.288,0-0.576-0.072-0.936
		c-1.728-0.072-3.528-0.216-5.328-0.36c-1.152-0.504-1.152-0.504-3.816-0.72c-2.664,0.4319-2.664,0.4319-7.416,0.4319
		c-4.824,1.0081-4.824,1.0081-8.64,1.44c-1.08,0-2.232,0-3.384,0c-0.72,0.288-1.44,0.648-2.16,1.008
		c-2.592,0.576-5.256,1.224-7.92,1.872c-2.16,0-4.32,0-6.48,0c-0.864-0.144-1.728-0.288-2.664-0.432
		c-2.736,0.072-5.544,0.216-8.352,0.36c0.072,0.936,0.144,1.872,0.288,2.88c0.792,0.6479,1.656,1.296,2.52,1.944
		c1.944,0.792,3.384,1.728,5.832,2.736c0.792,0.144,1.584,0.288,2.376,0.432c0.36,1.584,0.36,1.584,0.72,1.944
		c1.008,0.144,2.016,0.288,3.096,0.504c2.088-0.144,4.176-0.288,6.264-0.504c0.216,0.216,0.432,0.432,0.72,0.72
		c4.32-0.72,4.32-0.72,13.464-3.096c1.656-1.008,1.656-1.008,2.88-1.224c3.24-0.072,6.48-0.144,9.792-0.216
		c12.744,2.592,12.96,2.88,18.288,3.816c14.4,6.264,14.4,6.264,18,8.136c5.256,1.584,10.512,3.168,15.84,4.824
		c1.656,0.936,1.656,0.936,3.312,1.44c4.824,0.504,6.768,0.936,7.704,0.864c-2.088-1.008-4.176-2.0161-6.264-3.024
		c-1.152-0.216-2.304-0.504-3.456-0.792c-0.072-0.36-0.144-0.792-0.288-1.224c0.432-0.36,0.432-0.36,2.592-0.504
		c0-0.216,0-0.432,0-0.72c-4.608-1.296-4.608-1.296-5.112-1.656c0-0.432,0-0.936-0.072-1.44c0.072-0.072,0.216-0.216,0.36-0.36
		c1.512,0,3.024,0.072,4.536,0.144c-0.144-0.288-0.288-0.576-0.432-0.864c-0.936-0.2881-1.872-0.648-2.88-1.0081
		c-1.728-0.144-3.528-0.36-5.328-0.576c0-0.288-0.072-0.576-0.144-0.936c0.144-0.216,0.288-0.432,0.432-0.648
		c2.88-0.72,2.88-0.72,4.32-0.72c8.064,2.736,16.128,5.472,24.192,8.208c2.448,0.576,4.968,1.224,7.4879,1.872
		c1.584,0.648,3.168,1.296,4.752,1.944c1.152,0.216,2.376,0.432,3.6,0.72c0.288-0.144,0.648-0.288,1.008-0.504
		c2.16,0.288,2.16,0.288,8.64,0c0.288-0.072,0.648-0.144,1.008-0.288c-0.072-0.288-0.144-0.648-0.216-1.008
		c-2.16-1.224-4.32-2.448-6.552-3.744c0-0.432,0-0.864,0-1.296c0.432,0,0.936-0.072,1.44-0.144c1.44,0.504,1.44,0.504,3.6,0.72
		c0.216-0.216,1.872,0,3.312,0.504c13.248,1.944,13.248,1.944,14.904,1.944c0.144,0.288,0.288,0.576,0.432,0.864
		c0.144-0.288,0.288-0.648,0.504-1.008c0.144,0.072,0.288,0.144,0.504,0.288c4.32-1.368,4.824-1.872,6.912-2.448
		c0.144,0.216,0.288,0.432,0.504,0.72c0.144-0.144,0.288-0.36,0.504-0.576c3.168-0.288,6.336-0.648,9.576-1.008
		c0.072-0.216,0.144-0.504,0.288-0.792c-0.576-0.216-1.224-0.432-1.872-0.72c0-0.936,0-0.936,0.432-1.584
		c1.584,0.288,3.168,0.576,4.752,0.864c-0.072-0.288-0.216-0.576-0.36-0.936c-2.304-1.296-4.68-2.592-7.056-3.888
		c0-0.36-0.072-0.72-0.144-1.152c0.144-0.216,0.36-0.432,0.576-0.72c0.576-0.216,1.152-0.432,1.8-0.72c0-0.288,0-0.648,0-1.008
		c-0.432-0.2881-0.936-0.576-1.44-0.936c-0.216-0.36-0.432-0.7921-0.72-1.224c0-1.152,0-1.152,0.432-1.8
		c1.008,0.144,2.016,0.288,3.0959,0.504c5.256,0,5.256,0,5.544-0.288c1.872-0.216,1.872-0.216,2.16-0.576
		c0-0.36-0.072-0.72-0.144-1.152c0.144-0.216,0.36-0.432,0.576-0.72c1.008-0.144,2.088-0.288,3.168-0.432
		c0.072-0.072,0.144-0.216,0.216-0.36c-0.36-0.432-0.72-0.864-1.08-1.368c0.216-1.224,0.216-1.224,0.576-1.728
		c0.792-0.144,1.584-0.36,2.448-0.576c0.288-0.288,0.576-0.648,0.936-1.008c1.872-0.072,3.816-0.144,5.76-0.216
		c1.224-0.504,1.224-0.504,3.816-0.936c0.288-0.288,0.648-0.648,1.008-1.008c1.08-0.288,2.16-0.576,3.312-0.936
		c1.944,0.504,6.264,0.936,6.48,1.224c9.144,0.432,9.144,0.432,12.744,0.936c2.304-0.072,4.608-0.144,6.984-0.216
		c0.432,0.36,9.072,1.512,10.8,2.16c4.32-0.288,4.32-0.288,6.912-0.72c0.288-0.288,5.76,0,6.48-0.288
		c0.432,0.072,0.936,0.144,1.44,0.288c0.144-0.216,0.288-0.432,0.504-0.72c0.504-0.072,1.08-0.144,1.656-0.288
		c2.664,0.504,2.664,0.504,5.544,0.504c0.216-0.216,0.216-0.216,3.096,0c1.512,0.36,3.024,0.792,4.608,1.224c0.936,0,1.872,0,2.88,0
		c2.376-1.008,2.376-1.008,3.096-1.584c-0.648-0.36-1.2961-0.72-1.944-1.08c-1.728-0.216-3.456-0.432-5.256-0.72
		c-9.36,0-9.36,0-12.24-0.36c0-0.36-0.0721-0.72-0.144-1.152c0.216-0.216,0.432-0.432,0.648-0.648c0.432,0,0.936,0,1.44,0
		c0.504,0.288,1.08,0.576,1.656,0.864c0.72,0,1.44,0,2.16,0.072c0.36-0.288,0.792-0.576,1.224-0.936
		c7.416-0.216,8.136,0,8.856-0.216c1.512,0,3.024,0.072,4.536,0.144c0.072,0.576,0.144,1.224,0.288,1.872
		c3.312,0.576,5.976,1.584,9.576,2.52c0.72,0,1.44,0,2.232-0.0721c0-1.224,0-1.224,0.432-1.872c3.096,0.288,3.096,0.288,7.632,1.44
		c0.144,0.144,0.2881,0.288,0.504,0.504c2.664,0.216,2.664,0.216,4.104,0.72c0.288,0.216,0.576,0.4319,0.936,0.72
		c2.664,0.2159,2.88,0.504,4.32,0.6479c0.072,0.936,0.072,0.936-0.216,1.2961c-4.896-0.216-9.792-0.432-14.688-0.72
		c-1.872-0.504-1.872-0.504-8.136-1.224c-0.216,0.2159-0.432,0.4319-0.72,0.72c-0.864,0-1.728,0-2.664,0
		c-0.504-0.144-1.08-0.2881-1.656-0.5041c-2.88,0-2.88,0-3.096,0.2881c-0.792,0.216-1.584,0.432-2.448,0.72
		c-3.096,0-3.096,0-6.48-0.504c-1.656-0.5041-1.656-0.5041-5.472-0.864c0.072-0.144,0.144-0.288,0.216-0.432
		c-0.36-0.072-0.792-0.144-1.224-0.216c0,0.216,0,0.432,0,0.72c-2.88-0.144-2.88-0.144-3.312-0.432
		c-2.664,0.288-2.664,0.288-3.888,0.72c-2.664,0.144-5.4,0.2881-8.136,0.5041c-1.6559,0.504-1.6559,0.504-3.8159,0.504
		c-1.656-0.288-3.312-0.648-5.04-1.0081c-1.296,0-2.592,0-3.888,0c-1.08-0.288-2.16-0.576-3.312-0.9359
		c-4.608,0.216-4.608,0.216-16.344-0.216c-0.72-0.144-1.44-0.288-2.16-0.504c-6.9839,0.216-6.9839,0.216-12.456,0.72
		c-1.008,0.504-1.008,0.504-5.04,1.08c-0.144,1.008-0.144,1.008-0.648,1.44c-1.296,0.072-2.592,0.144-3.96,0.288
		c0.072,0.216,0.144,0.432,0.216,0.72c1.728,0.936,1.728,0.936,2.808,1.872c0,0.504,0,0.504-0.648,1.008
		c-1.152,0.072-2.304,0.144-3.528,0.216c0.072,0.288,0.144,0.576,0.288,0.936c0.288,0.216,0.648,0.432,1.008,0.72
		c0,0.504,0,0.504-0.504,1.008c-0.576,0.144-1.152,0.288-1.8,0.432c-0.36,1.224-0.36,1.224-0.72,1.584c-0.576,0-1.224,0-1.872,0
		c-3.168-1.008-3.168-1.008-5.544-1.44c-0.792,0-1.584,0.072-2.376,0.144c0.288,1.152,0.288,1.152,1.008,1.872
		c-0.072,0.288-0.144,0.648-0.2159,1.008c-0.648,0.36-1.296,0.72-2.0161,1.152c0,0.288,0,0.648,0,1.008
		c1.224,0.576,2.5201,1.152,3.816,1.728c2.88,2.16,2.88,2.16,3.96,3.312c0,0.936,0,0.936-0.36,1.2961
		c-0.792,0.144-1.584,0.288-2.376,0.432c-0.36,0.36-0.792,0.792-1.224,1.224c-0.792,0.144-1.584,0.288-2.376,0.504
		c-9.864,0.432-9.864,0.432-12.744,0.936c-0.576,0.36-1.224,0.792-1.872,1.224c-0.792,0.216-1.584,0.432-2.448,0.72
		c-1.8,0.072-3.6,0.144-5.472,0.216c-2.88-0.36-5.76-0.792-8.64-1.224c-0.72,0.288-0.72,0.288-3.384,0.432
		c0.144,0.936,0.36,1.872,0.576,2.88c-0.36,0.288-0.72,0.648-1.08,1.008c-0.72,0.144-1.44,0.288-2.16,0.504
		c-7.2,0.216-7.92,0.504-10.08,0.504c-3.816-1.008-3.816-1.008-8.352-2.88c-2.52-0.648-5.112-1.296-7.7039-1.944
		c-3.24-1.224-6.552-2.52-9.864-3.816c-0.864-0.144-1.728-0.36-2.592-0.576c0,0.432-0.072,0.936-0.144,1.44
		c-0.648,0.432-0.648,0.432-1.584,0.576c-0.288-0.144-0.576-0.288-0.936-0.504c-0.504,0-1.08,0.072-1.656,0.144
		c0.288,1.224,0.576,1.44,0.648,3.384c0.72,0.432,1.44,0.864,2.232,1.296c3.312,0.936,3.312,0.936,5.256,1.872
		c0.288,0.288,0.576,0.648,0.936,1.008c0.144,1.08,0.144,1.08-0.216,1.656C216.576,258.696,215.064,258.696,213.552,258.696
		L213.552,258.696z M330.624,214.56c-2.16-1.944-3.096-3.168-4.536-4.104c-1.44-0.504-2.88-1.08-4.32-1.656
		c-1.44-0.144-2.88-0.288-4.32-0.504c-1.0081,0.072-2.016,0.144-3.096,0.216c-2.664,1.008-5.328,1.44-6.264,1.944
		c-4.32,0.936-4.32,0.936-5.256,1.44c-2.232,0.216-4.4641,0.432-6.768,0.72c-0.288-0.144-0.576-0.288-0.936-0.504
		c-2.664,0-2.664,0-4.536,0.288c-8.64-1.944-16.848-3.384-18-3.888c-3.672-0.504-7.344-1.08-11.088-1.656c-2.016,0-4.104,0-6.192,0
		c-0.936-0.144-1.872-0.288-2.88-0.504c-9.6479,0-15.408,0.288-19.728,0c-3.312-0.864-6.696-1.728-10.08-2.592
		c-1.224-0.648-2.52-1.296-3.816-1.944c-2.16-0.648-4.32-1.296-6.48-1.944c-9.36-1.872-9.36-1.872-12.744-2.88
		c-3.816-0.432-4.32-0.72-10.8-1.152c-2.592-0.504-2.592-0.504-10.2961-1.008c-2.664-0.432-5.4-0.936-8.136-1.44
		c-0.864-0.288-1.728-0.576-2.664-0.936c-1.44-0.0721-2.88-0.144-4.32-0.216c-3.096-1.008-10.8-2.88-17.064-4.824
		c-8.64-1.944-8.64-1.944-24.912-4.824c-0.72-0.288-1.44-0.576-2.16-0.936c-5.328-0.936-5.328-0.936-8.928-1.944
		c-3.312-1.872-3.312-1.872-16.272-7.632c-6.048-1.944-6.048-1.944-11.088-3.888c-4.032-0.936-4.032-0.936-7.2-2.016
		c-1.872-1.08-1.872-1.08-3.6-1.584c-10.08-0.936-10.08-0.936-15.12-1.152c-7.2,0.432-7.2,0.432-21.6,0.432
		c-0.864-1.512-0.864-1.512-1.296-3.168c-1.008-10.584-1.008-10.584-0.864-11.952c0.864,0,1.728,0,2.664,0
		c18.072,3.528,36.144,7.056,54.216,10.584c2.448-0.216,2.448-0.216,4.608-0.72c0.792-0.432,1.584-0.936,2.376-1.44
		c1.224,0,1.44,0.216,4.824,0.216c13.248,3.312,26.496,6.696,39.816,10.08c6.48,1.008,6.48,1.008,11.736,1.44
		c0.936,0.288,1.872,0.648,2.88,1.008c11.664,2.52,23.328,5.04,35.064,7.632c20.88,3.888,20.88,3.888,29.016,5.76
		c4.248,0.648,8.496,1.296,12.744,1.944c6.408,1.224,12.816,2.52,19.224,3.816c21.816,3.384,21.816,3.384,23.472,3.888
		c5.472,0.576,11.016,1.224,16.56,1.872c4.032,0.648,8.136,1.296,12.24,1.944c3.168,0.288,6.408,0.576,9.648,0.936
		c2.16,0,4.32,0,6.48,0c11.016,0.648,22.032,1.296,33.12,1.944c10.152,0.144,20.304,0.36,30.456,0.576
		c-0.144,0.216-0.288,0.432-0.504,0.648c-4.68,1.584-9.36,3.168-14.112,4.752c-1.368,0.144-2.736,0.288-4.104,0.504
		c-8.568,2.232-17.136,4.464-25.704,6.696c-0.72,0.504-1.656,0.504-6.192,1.728C332.784,214.56,331.704,214.56,330.624,214.56
		L330.624,214.56z M372.888,197.712c-11.16-0.288-22.3921-0.576-33.624-0.936c-20.376-1.44-20.376-1.44-29.52-1.656
		c-9.072-1.008-14.112-1.944-33.84-4.32c-6.336-0.936-12.744-1.872-19.152-2.88c-19.224-3.888-19.224-3.888-30.24-5.76
		c-4.608-0.504-4.608-0.504-9.144-1.44c-3.096-1.008-3.096-1.008-7.2-1.944c-7.488-1.224-14.976-2.52-22.536-3.816
		c-18-3.888-32.688-7.488-37.944-8.424c-0.936,0-1.872,0-2.88,0c-5.76-1.224-11.52-2.52-17.28-3.816
		c-8.064-2.16-16.128-4.392-24.264-6.624c0-0.216,0-0.432,0-0.72c0.648-0.072,1.296-0.216,1.944-0.36
		c9.144,0.72,9.144,0.72,15.336,1.656c1.368,0.288,2.736,0.648,4.104,1.008c3.384,0.432,6.84,0.936,10.296,1.44
		c3.168,0.936,22.608,4.752,26.208,5.76c10.08,1.872,10.08,1.872,15.84,2.592c5.4001,1.512,10.8,3.024,16.272,4.608
		c1.872,0.288,3.816,0.576,5.76,0.936c1.584,0.072,3.168,0.144,4.824,0.216c7.92,1.944,7.92,1.944,8.856,2.448
		c3.6,0.432,25.488,4.752,26.64,5.256c2.16,0.288,4.32,0.576,6.48,0.936c1.08,0.288,2.232,0.648,3.384,1.008
		c11.52,1.872,20.376,2.88,24.984,3.816c13.176,1.656,13.176,1.656,14.832,2.16c10.584,0.936,10.584,0.936,11.304,1.224
		c17.784,0.936,17.784,0.936,35.784,2.376c2.232,0,4.464,0,6.696,0c7.632,0.432,15.336,0.936,23.04,1.44
		c18,1.656,18,1.656,21.384,1.656c1.08,0.288,2.16,0.576,3.312,0.864c-0.072,0.072-0.144,0.216-0.216,0.36
		c-2.952,0.288-5.904,0.576-8.856,0.936C379.944,197.712,376.416,197.712,372.888,197.712L372.888,197.712z M379.584,192.96
		c-11.88-0.7921-23.76-1.584-35.712-2.448c-5.544,0-5.544,0-9.648-0.2881c0.072-0.36,0.216-0.792,0.36-1.224
		c4.104-4.104,4.104-4.104,7.344-8.064c4.32,0.216,5.04,0.504,15.336,0.936c0.936,0.144,1.872,0.288,2.88,0.504
		c5.04,1.944,5.04,1.944,6.048,2.088c0,0.36-0.072,0.72-0.144,1.152c-0.936,1.368-1.872,2.736-2.88,4.104
		c0,0.288,0.072,0.576,0.144,0.936c0.36,0.072,0.72,0.216,1.152,0.36c1.008-0.936,2.88-3.816,4.104-5.04
		c0.36-0.072,0.792-0.144,1.224-0.216c4.104,1.512,8.28,3.096,12.456,4.68c0,0.288,0,0.576,0.072,0.936
		c-0.216,0.432-0.504,0.864-0.792,1.296C380.88,192.744,380.232,192.816,379.584,192.96L379.584,192.96z M239.688,190.8
		c-0.288-0.144-0.288-0.144-0.36-1.08c0.072-0.072,0.216-0.216,0.36-0.36c1.944,0.216,1.944,0.216,2.16,0.576
		c-0.144,0.144-0.288,0.36-0.504,0.576C240.84,190.584,240.264,190.656,239.688,190.8L239.688,190.8z M329.904,190.08
		c-3.6-0.504-3.6-0.504-13.176-1.224c-3.96-0.144-7.992-0.288-12.024-0.504c0-0.216-0.072-0.504-0.144-0.792
		c1.944-3.096,1.944-3.096,3.888-5.544c0.936-0.936,1.872-1.872,2.88-2.88c1.296-0.144,1.296-0.144,16.2,1.584
		c3.744,0.072,7.488,0.144,11.304,0.216c0.144,0.072,0.288,0.216,0.432,0.36c-7.632,8.496-7.632,8.496-8.136,8.784
		C330.768,190.08,330.336,190.08,329.904,190.08L329.904,190.08z M384.192,188.856c-3.384-1.296-6.768-2.592-10.152-3.96
		c0-0.216,0-0.432,0-0.72c1.368-0.432,2.736-0.864,4.104-1.296c4.32-0.288,8.64-0.576,12.96-0.864
		c-0.072,0.36-0.216,0.792-0.36,1.224C388.08,185.904,384.408,189,384.192,188.856L384.192,188.856z M298.944,187.632
		c-9.36-0.936-11.52-1.44-15.12-1.656c-6.48-0.936-6.48-0.936-7.344-1.296c0-0.216,0-0.432,0-0.72c1.08-1.44,3.384-3.6,4.824-5.544
		c0.792-0.576,1.584-1.224,2.376-1.872c0.144-0.288,0.288-0.648,0.504-1.008c0.936,0,1.872-0.072,2.808-0.144
		c3.096,0.648,6.192,1.296,9.36,1.944c11.232,0.936,11.232,0.936,12.24,1.224c0.072,0.072,0.144,0.216,0.216,0.36
		c-1.944,2.232-2.376,3.096-7.2,8.712C300.744,187.632,299.88,187.632,298.944,187.632L298.944,187.632z M171.072,184.032
		c-1.728-0.72-1.728-0.72-4.104-1.152c-0.432-0.36-0.936-0.72-1.44-1.08c0-0.36-0.072-0.7921-0.144-1.224
		c0.72-0.432,1.512-0.936,2.304-1.44c1.872,0.864,3.816,1.8,5.76,2.736c0.072,1.368,0.072,1.368-0.216,1.728
		C172.512,183.744,171.792,183.888,171.072,184.032L171.072,184.032z M271.872,184.032c-14.184-1.872-14.184-1.872-16.344-2.376
		c-0.288-0.144-0.576-0.288-0.936-0.504c-2.088-0.288-4.176-0.648-6.264-1.008c0-0.216,0-0.432,0.072-0.72
		c3.888-4.32,3.888-4.32,7.128-8.568c13.464,1.656,13.464,1.656,24.984,3.6c0.288,0.072,0.576,0.216,0.936,0.36
		c0,0.216,0,0.432,0.072,0.72c-3.816,4.32-5.976,6.264-7.776,8.496C273.168,184.032,272.52,184.032,271.872,184.032L271.872,184.032
		z M364.968,180.216c-1.368,0-2.736,0-4.104-0.072c0-0.216,0.072-0.432,0.144-0.72c0.864-0.648,1.728-1.296,2.5919-1.944
		c2.448-1.152,4.896-2.304,7.344-3.528c1.728,0,1.728,0,2.52,0.432c-0.216,0.72-0.432,1.44-0.72,2.16
		c-0.864,1.152-1.8,2.304-2.736,3.456C368.352,180.072,366.696,180.144,364.968,180.216L364.968,180.216z M377.712,180.216
		c-1.512,0-3.024,0-4.608-0.072c0.288-0.72,0.576-1.44,0.864-2.16c0.576-0.864,1.224-1.728,1.872-2.664
		c0.36-0.288,0.72-0.576,1.152-0.864c1.008,0.072,2.016,0.144,3.096,0.216c6.984,1.944,6.984,1.944,9.36,2.88
		c-0.144,0.144-0.2881,0.288-0.504,0.504c-2.52,0.72-5.04,1.44-7.632,2.16C380.16,180.216,378.936,180.216,377.712,180.216
		L377.712,180.216z M351.504,179.712c-3.312-0.432-3.312-0.432-4.536-0.936c-2.232-0.144-4.464-0.288-6.696-0.504
		c-0.288,0.144-0.648,0.288-1.008,0.504c-1.656,0.072-3.312,0.144-5.04,0.216c-4.68-0.288-9.36-0.576-14.112-0.936
		c-4.896-0.648-9.792-1.296-14.688-1.944c-2.232-0.144-4.464-0.288-6.696-0.432c-6.48-1.008-10.584-1.944-17.064-2.88
		c-0.432-0.216-0.936-0.432-1.44-0.648c4.68,0,9.4319,0.072,14.184,0.144c3.168,0.4319,6.336,0.936,9.576,1.44
		c3.96,0.216,7.992,0.432,12.024,0.72c10.8,0,10.8,0,12.96,0.216c1.728-0.144,3.456-0.288,5.256-0.432
		c4.68,0.072,9.432,0.144,14.184,0.216c5.184-0.144,10.368-0.36,15.624-0.576c0,0.288-0.072,0.576-0.144,0.936
		c-0.36,0.288-0.72,0.648-1.08,1.008c-1.872,0.864-3.816,1.8-5.76,2.736c-0.936,0.144-1.872,0.288-2.88,0.432
		c-0.216,0.216-0.432,0.432-0.72,0.72C352.8,179.712,352.152,179.712,351.504,179.712L351.504,179.712z M244.944,179.496
		c-9.0721-1.944-14.832-2.88-18-3.672c0-0.216-0.0721-0.432-0.144-0.72c0.432-0.72,0.936-1.44,1.44-2.16
		c1.8-1.656,3.672-3.312,5.544-5.04c1.8-0.144,1.8-0.144,5.184,0.288c1.656,0.504,1.656,0.504,13.896,2.304
		c0,0.216,0.072,0.432,0.144,0.72c-2.448,2.736-4.896,5.472-7.344,8.28C245.448,179.496,245.232,179.496,244.944,179.496
		L244.944,179.496z M392.544,177.12c-1.584-0.936-3.168-1.872-4.752-2.88c-1.944-0.504-5.76-2.448-7.704-2.88
		c-0.504-0.504-0.504-0.504-0.648-1.2961c0.504-0.432,1.008-0.864,1.584-1.368c1.728-0.72,3.528-1.44,5.328-2.16
		c0.936,0,1.872,0,2.88,0c2.88,0.504,5.76,1.08,8.64,1.656c4.32,0.288,4.32,0.288,12.672,0.288c4.6081-0.72,4.6081-0.72,7.2-0.72
		c0.288,0.36,0.288,0.36,0,0.72c-20.88,7.632-20.88,7.632-24.192,8.64C393.264,177.12,392.904,177.12,392.544,177.12L392.544,177.12
		z M224.064,175.392c-0.72-0.216-1.44-0.432-2.16-0.72c-6.48-0.936-7.92-1.44-10.8-1.872c-1.656-0.576-3.312-1.152-5.04-1.728
		c-0.864-0.072-1.728-0.144-2.592-0.288c0-0.36,0-0.792,0.072-1.224c1.944-1.872,3.888-3.816,5.904-5.76
		c0.864,0,1.728-0.0721,2.664-0.144c6.2639,1.08,12.5999,2.232,18.936,3.384c0,0.288,0,0.576,0.072,0.864
		c-1.944,1.944-3.96,3.96-5.976,5.976c0,0.432,0,0.936,0,1.44C224.784,175.32,224.424,175.32,224.064,175.392L224.064,175.392z
		 M320.328,172.8c-5.904-0.288-11.808-0.648-17.784-1.008c-2.736-0.36-5.544-0.72-8.352-1.152c-2.88,0-5.76,0-8.64,0
		c-13.464-1.944-13.464-1.944-19.728-2.448c-1.656-0.432-3.312-0.936-5.04-1.44c-7.416-0.936-7.416-0.936-18.72-1.872
		c-6.696-1.44-6.696-1.44-8.856-2.304c0.504-0.36,9.36-2.0161,9.576-2.304c2.448-0.432,2.664-0.72,3.888-0.72
		c7.416-2.376,8.136-2.88,10.8-3.816c16.776-9.576,18-10.584,20.16-11.5201c1.44-0.936,2.376-1.944,7.632-5.7599
		c1.296-1.224,2.592-2.4481,3.96-3.6721c0.504-1.944,0.504-1.944,0.504-4.32c-0.936-1.728-1.872-3.528-2.88-5.328
		c0-0.36-0.072-0.72-0.144-1.152c3.528,0.504,7.056,1.008,10.584,1.512c2.664,0.648,5.4,1.2961,8.136,1.944
		c3.816,1.224,7.632,2.5201,11.52,3.816c3.96,1.584,7.9919,3.168,12.024,4.824c5.76,1.8,11.52,3.6,17.28,5.472
		c5.4,2.232,10.872,4.464,16.344,6.768c0.792,0.144,1.584,0.288,2.376,0.432c1.944,1.008,7.2,2.88,9.864,4.104
		c-0.504,0.504-0.504,0.504-5.544,2.376c-2.16,2.088-2.16,2.088-3.024,3.312c-0.144,0.432-0.288,0.936-0.504,1.44
		c-0.36,3.6-0.72,7.2-1.152,10.8c-0.216,0.216-0.432,0.432-0.648,0.72c-2.664,0.216-5.4,0.504-8.136,0.7921
		c-11.52,0.216-20.16,0-24.192,0.216C330.624,172.8,330.624,172.8,320.328,172.8L320.328,172.8z M367.128,171
		c0.072-1.224,0.144-2.448,0.216-3.744c1.008,0.216,1.008,0.216,1.728,0.72c0.288,0.504,0.648,1.008,1.008,1.584
		c0,0.36,0,0.72-0.072,1.08C369.072,170.712,368.136,170.856,367.128,171L367.128,171z M308.808,170.64
		c-5.544-1.008-5.544-1.008-5.904-1.296c0-0.36,0-0.792,0-1.224c1.152-0.936,2.304-1.872,3.528-2.808
		c2.592,0.216,5.184,0.432,7.776,0.648c0,0.36,0,0.792,0,1.224c-1.08,0.936-2.16,1.872-3.24,2.8799
		C310.248,170.208,309.528,170.424,308.808,170.64L308.808,170.64z M197.424,170.352c-10.296-2.376-12.96-3.312-15.336-3.6
		c-0.144-0.072-0.288-0.144-0.504-0.288c0-0.36-0.072-0.792-0.144-1.224c1.368-1.584,2.736-3.168,4.104-4.824
		c0.432-0.288,0.864-0.576,1.368-0.864c1.584,0.072,3.168,0.144,4.752,0.288c0.576,0.216,1.152,0.432,1.728,0.72
		c2.592,0.288,5.256,0.576,7.92,0.936c5.76,1.224,5.76,1.224,5.976,1.584c-2.304,2.376-4.608,4.824-6.984,7.272
		C199.368,170.352,198.432,170.352,197.424,170.352L197.424,170.352z M261.072,169.416c-1.008-0.072-2.088-0.144-3.168-0.216
		c-0.36-0.216-0.72-0.432-1.152-0.648c1.656,0,3.312,0.072,5.04,0.144c0.36,0.144,0.72,0.288,1.152,0.504
		C262.728,169.416,262.728,169.416,261.072,169.416L261.072,169.416z M372.384,168.48c-1.008-1.008-2.016-2.016-3.096-3.024
		c-0.144-0.7921-0.288-1.584-0.504-2.376c3.888,1.296,3.888,1.296,6.768,1.8c0.504,0.288,1.08,0.576,1.656,0.864
		c0,0.216,0,0.432,0.072,0.72c-0.936,0.576-1.944,1.224-2.952,1.872C373.68,168.336,373.032,168.408,372.384,168.48L372.384,168.48z
		 M252.432,168.192c-1.44-0.216-1.44-0.216-2.16-0.576c0.504,0,1.08-0.072,1.656-0.144c0.864,0.216,1.728,0.432,2.664,0.648
		C253.872,168.12,253.152,168.12,252.432,168.192L252.432,168.192z M404.064,166.536c-2.664-0.288-5.4001-0.576-8.136-0.936
		c-2.376-0.432-4.752-0.936-7.2-1.44c-2.592,0.144-5.256,0.288-7.92,0.432c-5.976-1.872-8.424-2.376-11.52-3.6
		c-0.144-0.216-0.288-0.504-0.504-0.792c0-0.648-0.072-1.296-0.144-1.944c1.008-1.152,1.008-1.152,2.304-2.016
		c2.304-0.648,4.608-1.2961,6.984-1.944c0.72,0.072,1.44,0.144,2.16,0.216c4.104,1.944,5.256,2.16,6.192,2.808
		c0,1.08,0.072,2.232,0.144,3.384c0.288,0.792,0.576,1.584,0.864,2.448c0.216,0,0.432,0,0.72,0c0.36-0.576,0.36-0.576,1.224-4.176
		c0.4319,0,0.936-0.072,1.44-0.144c0.864,0.432,1.8,0.864,2.736,1.368c0.144,0.432,0.288,0.936,0.432,1.44
		c0.216,0.144,0.4319,0.288,0.648,0.504c0.936-0.504,0.936-0.504,2.88-0.648c7.416,2.88,7.416,2.88,10.8,3.816
		c0.216,0.216,0.432,0.432,0.72,0.648c-0.072,0.072-0.144,0.216-0.216,0.36C407.16,166.392,405.648,166.464,404.064,166.536
		L404.064,166.536z M413.208,166.032c-0.36-0.432-0.792-0.936-1.224-1.44c-1.656-0.432-1.656-0.432-3.024-1.296
		c0-0.216,0-0.432,0-0.72c0.72-0.72,1.44-1.44,2.16-2.16c0.576,0,1.2241-0.072,1.8719-0.144c1.872,1.08,3.816,2.232,5.7601,3.384
		c0.288,0.36,0.576,0.72,0.936,1.08c-0.2159,0.144-0.432,0.36-0.72,0.576C417.096,165.528,415.152,165.744,413.208,166.032
		L413.208,166.032z M176.112,165.6c-2.448-0.504-3.6-1.008-6.264-1.44c-0.504-0.288-0.504-0.288-7.92-1.584
		c0-0.432-0.072-0.936-0.144-1.44c3.816-4.32,3.816-4.32,4.968-5.184c5.04,0.72,9.072,1.728,16.848,3.024
		c-0.072,0.36-0.144,0.792-0.216,1.224c-1.368,1.656-2.736,3.312-4.104,5.04C178.272,165.312,177.192,165.456,176.112,165.6
		L176.112,165.6z M222.408,163.656c-5.544-0.936-5.544-0.936-6.696-1.44c-0.72,0-1.44,0-2.16,0c-1.44-0.504-4.824-0.936-8.208-1.944
		c-10.08-1.44-14.4-2.376-18.936-2.88c-1.44-0.432-6.264-0.936-17.496-3.312c-7.2-1.008-8.64-1.44-15.12-2.448
		c-4.104-0.936-4.104-0.936-5.328-1.44c-4.536-0.432-8.136-0.432-11.232-0.936c-6.984-0.216-6.984-0.216-14.4,0
		c-1.944,0.504-10.368,1.44-15.408,2.376c-1.296,0.432-2.664,0.936-4.032,1.44c-1.08,0-2.232,0-3.384,0
		c-1.224,0.504-1.656,1.008-7.2,3.888c-1.368,0-2.736,0-4.104,0c-13.896-2.88-13.896-2.88-17.496-3.888
		c-0.144-0.072-0.288-0.216-0.504-0.36c0.72-0.36,1.44-0.72,2.16-1.08c1.8-0.432,3.672-0.936,5.544-1.44
		c2.376-1.872,2.376-1.872,2.736-2.448c0.072-0.36,0.144-0.792,0.216-1.224c1.728-0.936,3.456-1.872,5.184-2.808
		c1.368-1.224,2.736-2.52,4.104-3.816c1.008-1.224,2.016-2.52,3.096-3.816c0.864-2.0161,0.864-2.0161,1.584-5.184
		c0-1.152,0-2.376,0-3.6c-0.288-0.432-0.648-0.936-1.008-1.44c-2.52-1.872-2.52-1.872-3.672-2.304
		c-2.52-0.144-5.112-0.288-7.704-0.432c-1.656-1.008-1.656-1.008-3.6-2.8799c-0.072-0.504-0.144-1.008-0.216-1.584
		c1.728,0,3.456-0.072,5.256-0.144c6.48,0.504,6.48,0.504,11.088,0.504c2.376,0.6479,4.752,1.296,7.2,1.944
		c1.152,0.144,2.376,0.288,3.6,0.432c0.792,0.288,1.584,0.648,2.376,1.008c1.44,0.288,2.88,0.576,4.32,0.936
		c0.936,1.08,0.936,1.08,3.24,5.4c0,0.36,0,0.792,0,1.224c-2.448,2.1599-4.32,4.5359-6.264,6.4799
		c-0.288,0.432-0.576,0.936-0.936,1.44c0,0.36,0,0.792,0,1.224c0.144,0.144,0.36,0.36,0.576,0.576
		c3.24,0.288,6.552,0.576,9.864,0.936c9.864,1.944,9.864,1.944,15.336,3.384c4.464,0.504,8.928,1.08,13.464,1.656
		c3.816,0.936,10.296,1.944,23.256,4.824c1.656,0.144,3.312,0.288,5.04,0.432c3.888,1.008,6.264,1.944,17.568,4.824
		c2.16,0.936,2.16,0.936,4.32,1.44c1.872,0.144,3.816,0.288,5.76,0.504c1.152,0.432,2.376,0.936,3.6,1.44
		c5.328,1.08,10.656,2.16,16.056,3.312c0.72,1.008,0.72,1.008,0.504,1.224C223.704,163.656,223.056,163.656,222.408,163.656
		L222.408,163.656z M279.288,163.44c-1.44-0.216-2.88-0.432-4.32-0.72c-0.504-0.504-0.504-0.504-0.648-1.584
		c1.08-1.152,2.664-2.16,4.104-3.6c0.36,0,0.72-0.072,1.08-0.144c4.104,1.008,4.104,1.008,6.264,1.224
		c0.144,0.144,0.288,0.288,0.504,0.504c0,0.36,0,0.72,0.072,1.08c-1.08,0.936-2.952,1.8-4.896,3.24
		C280.728,163.44,280.008,163.44,279.288,163.44L279.288,163.44z M405.288,162.432c-2.448-0.936-4.896-1.872-7.416-2.88
		c0-0.288-0.072-0.648-0.144-1.008c0.792-1.368,1.584-2.736,2.376-4.104c0.288,0,0.576-0.072,0.864-0.144
		c2.52,1.224,5.112,2.52,7.704,3.816c0,0.36,0,0.72,0.072,1.152c-0.792,1.008-1.584,2.016-2.376,3.096
		C406.008,162.36,405.648,162.36,405.288,162.432L405.288,162.432z M157.104,161.712c-3.312-0.936-9.576-1.872-10.8-2.376
		c-1.584-0.288-3.168-0.576-4.752-0.936c0-0.288-0.072-0.576-0.144-0.864c0.936-1.44,2.16-2.592,4.032-5.04
		c0.648-0.36,0.648-0.36,3.528-0.36c7.92,1.944,11.304,2.376,14.904,3.384c0.072,0.072,0.144,0.216,0.216,0.36
		c-0.648,0.792-1.296,1.656-1.944,2.5201c-0.72,0.576-1.44,1.224-2.16,1.872c-0.072,0.432-0.216,0.864-0.36,1.368
		C158.832,161.64,157.968,161.64,157.104,161.712L157.104,161.712z M224.784,160.056c-8.856-1.656-8.856-1.656-12.672-2.664
		c-1.152-0.072-2.376-0.144-3.6-0.288c-0.144-0.36-0.288-0.792-0.432-1.224c-1.296-0.576-2.592-1.152-3.888-1.8
		c-1.584-1.2961-3.168-2.592-4.824-3.888c-3.096-1.872-4.104-2.88-7.2-4.752c-0.792-0.6479-1.584-1.296-2.376-1.944
		c-0.72-0.864-1.44-1.728-2.16-2.664c-2.88-0.288-5.76-0.576-8.64-0.936c-1.08-0.36-2.232-0.792-3.384-1.224
		c-6.984-0.936-6.984-0.936-11.736-1.872c-2.016-0.576-4.032-1.152-6.048-1.728c-1.296,0-2.664,0-4.032,0
		c-13.248-2.88-13.248-2.88-16.56-3.816c-2.88-0.432-5.76-0.936-8.64-1.44c-0.648-0.288-1.296-0.576-1.944-0.936
		c-4.32-1.008-7.704-1.44-8.64-1.944c-0.288-0.504-0.576-1.008-0.864-1.512c0-0.288,0.072-0.576,0.144-0.864
		c4.32,0.72,7.416,1.656,12.024,2.592c2.016,0.144,4.104,0.288,6.192,0.504c3.888,0.936,3.888,0.936,7.488,1.44
		c1.512,0.432,3.024,0.936,4.536,1.44c8.136,0.936,8.136,0.936,8.424,1.224c0.72,0.144,1.44,0.288,2.16,0.432
		c1.872,1.008,1.872,1.008,5.04,1.944c3.6,0.288,7.2,0.576,10.8,0.936c3.744,1.008,7.488,2.088,11.232,3.168
		c2.52,0.144,5.112,0.288,7.704,0.432c5.976-1.872,11.016-3.816,17.784-5.76c2.88-1.224,5.7599-2.52,8.64-3.816
		c10.8-3.816,10.8-3.816,15.336-5.76c1.44-0.936,1.44-0.936,9.36-4.824c0.504-0.144,1.08-0.2881,1.656-0.432
		c1.872-1.2961,3.816-2.592,5.76-3.888c0.864-0.792,1.728-1.584,2.664-2.376c0.504-0.072,1.08-0.144,1.656-0.216
		c2.448,0.936,4.608,2.376,13.68,6.192c7.704,3.888,12.744,6.7679,15.12,7.7039c1.08,1.872,2.16,3.744,3.24,5.688
		c-0.072,0.72-0.144,1.44-0.216,2.16c-1.008,1.44-1.008,1.44-3.384,3.6c-2.52,1.872-5.04,3.816-7.56,5.76
		c-12.672,7.488-12.672,7.488-20.16,11.376c-3.456,1.224-6.984,2.52-10.512,3.816c-3.312,0.648-6.696,1.296-10.08,1.944
		C232.2,159.912,228.528,159.984,224.784,160.056L224.784,160.056z M392.832,157.896c-1.008-0.432-2.088-0.936-3.1681-1.44
		c0-1.8,0-3.6,0-5.4c0.648-0.144,1.2961-0.36,1.944-0.576c2.16,0.216,2.16,0.216,3.096,0.72c0.072,0.36,0.216,0.72,0.36,1.08
		c-0.072,1.152-0.144,2.376-0.216,3.6c-0.288,0.648-0.576,1.296-0.864,2.016C393.624,157.896,393.264,157.896,392.832,157.896
		L392.832,157.896z M137.232,157.392c-1.944-0.432-3.888-0.432-6.264-0.936c-2.664-0.216-11.304-2.16-18.216-3.096
		c-0.144-0.072-0.288-0.216-0.504-0.36c0.072-0.072,0.144-0.216,0.216-0.36c4.392-0.576,8.784-1.152,13.248-1.728
		c2.52,0,5.04,0,7.632,0c3.24,0.288,6.552,0.576,9.864,0.864c-0.072,0.36-0.216,0.792-0.36,1.224c-1.44,1.44-2.952,2.88-4.464,4.392
		C138.024,157.392,137.664,157.392,137.232,157.392L137.232,157.392z M410.328,156.672c-5.04-2.88-6.48-3.312-7.56-4.176
		c0-0.72,0-0.72,0.36-1.08c1.728,0,3.456,0,5.256,0c2.16,0.504,2.16,0.504,5.76,0.864c-0.864,1.44-1.7999,2.88-2.736,4.32
		C411.048,156.6,410.688,156.6,410.328,156.672L410.328,156.672z M386.352,155.232c-1.728-0.432-1.728-0.432-3.888-1.44
		c0-0.216-0.072-0.504-0.144-0.7921c0.936-0.288,1.872-0.576,2.808-0.864c0.792,0,1.584,0,2.376-0.0721
		c-0.072,1.008-0.216,2.0161-0.36,3.096C386.928,155.16,386.64,155.16,386.352,155.232L386.352,155.232z M377.424,151.92
		c-4.176-1.584-8.424-3.168-12.672-4.824c-1.152-0.288-2.376-0.576-3.6-0.936c-1.728-0.792-3.528-1.584-5.328-2.448
		c-0.72-0.144-1.44-0.288-2.16-0.432c-1.872-1.008-1.872-1.008-8.856-3.888c-8.424-2.88-8.424-2.88-14.904-4.752
		c-4.032-1.944-4.032-1.944-5.472-2.304c0-0.216,0-0.432,0-0.72c3.456,0.72,6.984,1.512,10.512,2.304
		c1.296,0.144,2.5919,0.288,3.888,0.432c1.8,0.576,3.6,1.152,5.472,1.728c1.008,0.144,2.088,0.288,3.168,0.432
		c22.032,5.76,22.032,5.76,28.296,7.7039c5.256,1.944,8.64,2.88,10.584,3.816c0,0.288,0,0.576,0.072,0.864
		c-0.864,0.576-1.8,1.152-2.736,1.8c-1.368,0.36-2.736,0.792-4.104,1.224C378.864,151.92,378.144,151.92,377.424,151.92
		L377.424,151.92z M412.9919,150.192c-8.2079-0.936-8.2079-0.936-8.9279-1.296c0-0.36-0.072-0.72-0.144-1.152
		c2.16-2.16,2.16-2.16,2.664-3.168c0.288,0,0.576-0.0721,0.864-0.144c1.44,1.008,1.44,1.008,8.136,4.248
		c0.144,0.72,0.144,0.72-0.216,1.08C414.576,149.904,413.7841,150.048,412.9919,150.192L412.9919,150.192z M398.088,148.32
		c-1.944-0.144-3.96-0.288-5.976-0.504c-3.744-1.368-7.488-2.736-11.2321-4.176c0-0.36,0-0.792,0-1.224
		c3.888-4.536,3.888-4.536,4.824-5.976c0.432,0,0.864-0.072,1.368-0.144c7.416,2.376,11.952,4.32,17.496,6.2639
		c0,0.36,0,0.72,0.072,1.08c-0.288,0.648-0.576,1.296-0.936,1.944c-0.792,0.864-1.584,1.728-2.376,2.592
		C400.248,148.176,399.168,148.248,398.088,148.32L398.088,148.32z M333.072,146.88c-0.288-0.144-0.648-0.288-1.008-0.504
		c-0.864,0-1.728,0-2.592,0c-0.432-0.576-0.432-0.576-0.432-1.296c0.72-0.72,1.512-1.512,2.304-2.304
		c2.52,0,5.112,0.072,7.704,0.144c0,0.36,0,0.792,0.072,1.224c-0.792,0.864-1.584,1.728-2.376,2.592
		C335.52,146.736,334.296,146.808,333.072,146.88L333.072,146.88z M70.992,144c-0.504-0.288-4.104-0.72-5.544-1.224
		c-3.384-0.504-3.384-0.504-7.92-0.72c-3.096,0.504-3.096,0.504-15.624,1.08c0-0.216,0.072-0.432,0.144-0.72
		c4.176-2.88,5.184-3.24,6.192-4.032c0-1.44,0-1.44-0.288-1.8719c-0.288,0-0.648,0-1.008,0c-1.512,0.72-3.024,1.512-4.536,2.304
		c0-0.216-0.072-0.432-0.144-0.72c0.72-0.72,1.512-1.44,2.304-2.16c9.576-5.616,9.576-5.616,13.68-7.56
		c5.04-1.944,5.04-1.944,13.464-5.76c0.144-0.144,0.288-0.288,0.432-0.504c0.216,0,0.432,0.072,0.72,0.144
		c0,0.576-0.072,1.152-0.144,1.728c0.144,0.432,0.288,0.936,0.504,1.44c2.16,2.16,2.16,2.16,2.808,2.448
		c2.232,0.144,4.464,0.288,6.696,0.504c0.936,1.44,0.936,1.44,1.656,1.944c0,0.432,0.072,0.864,0.144,1.296
		c-0.216,0.72-0.432,1.44-0.72,2.16c0,0.432,0,0.936,0.072,1.44c0.288,0,0.648,0.072,1.008,0.144c0.216-0.216,0.432-0.432,0.72-0.72
		c0.648,0,1.296,0,1.944,0c0.432-0.504,0.864-1.008,1.296-1.584c0-0.792,0-1.584,0-2.376c-0.504-1.224-1.008-1.656-2.16-4.104
		c0-0.432,0.072-0.864,0.144-1.2961c1.08,0.072,2.16,0.144,3.312,0.216c1.728,0.936,1.728,0.936,2.88,2.0161
		c0,1.008,0.072,2.088,0.144,3.168c-0.504,2.664-0.504,2.664-1.44,4.8239c-1.296,1.44-2.592,2.88-3.888,4.32
		c-1.224,0.936-2.448,1.872-3.672,2.88c-1.008,0.432-2.016,0.864-3.096,1.296C77.76,144,74.376,144,70.992,144L70.992,144z
		 M378.144,142.56c-4.536-1.296-9.072-2.592-13.68-3.96c0-0.288-0.072-0.576-0.144-0.936c0.432-1.008,0.936-2.088,1.44-3.168
		c0.72-1.08,1.512-2.232,2.304-3.384c0.576,0,1.152,0,1.728-0.072c1.44,0.288,2.88,0.576,4.32,0.936
		c5.0399,1.944,5.0399,1.944,8.64,2.88c0.36,0.288,0.72,0.576,1.152,0.864c-1.728,2.232-3.456,4.536-5.256,6.84
		C378.504,142.56,378.36,142.56,378.144,142.56L378.144,142.56z M309.744,141.12c-0.792-0.216-1.584-0.432-2.376-0.72
		c-1.44,0-2.88,0-4.32,0c-0.36-0.36-0.36-0.36-0.36-1.296c0.36-0.36,0.72-0.792,1.152-1.224c1.008-0.576,2.016-1.152,3.024-1.8
		c2.232,0.144,4.464,0.288,6.768,0.432c0.432,0.504,0.432,0.504,0.576,1.584c-1.152,0.936-2.304,1.872-3.528,2.88
		C310.392,140.976,310.104,141.048,309.744,141.12L309.744,141.12z M360.648,137.736c-10.8-2.88-10.8-2.88-11.52-3.384
		c0-0.288-0.072-0.648-0.144-1.008c1.224-2.16,2.52-4.32,3.816-6.48c0.36,0,0.72-0.072,1.152-0.144
		c3.816,0.936,3.816,0.936,12.312,3.744c-0.216,0.792-0.432,1.584-0.72,2.376c-1.152,1.584-2.376,3.168-3.6,4.824
		C361.512,137.664,361.08,137.664,360.648,137.736L360.648,137.736z M28.008,136.296c-0.144-0.216-0.288-0.432-0.504-0.72
		c-2.16-0.504-2.16-0.504-2.88-0.936c-0.072-0.36-0.216-0.72-0.36-1.08c-0.432-0.288-0.864-0.576-1.296-0.864
		c-3.096-0.936-5.256-1.944-6.984-2.376c-0.864-0.648-1.728-1.296-2.592-1.944c-4.104-0.936-5.328-1.44-6.768-1.656
		c-0.144-0.072-0.36-0.216-0.576-0.36c0.216-1.656,0.216-1.656,0.72-2.664c0.144-0.144,0.36-0.288,0.576-0.432
		c1.152,0,2.376-0.072,3.6-0.144c0.648,0.432,1.296,0.936,1.944,1.44c0.432,0.072,0.936,0.144,1.44,0.216
		c0.144,0.288,0.288,0.576,0.504,0.864c-0.072,0.36-0.144,0.792-0.288,1.224c0.792,0.072,1.584,0.144,2.448,0.288
		c0.144,0.288,0.288,0.576,0.432,0.864c0.36,0.144,0.792,0.36,1.224,0.576c0.36,0.864,0.36,0.864,1.08,1.368
		c1.872,0.144,3.744,0.36,5.616,0.576c0.288,0.432,0.648,0.936,1.008,1.44c1.296,0.072,2.664,0.144,4.032,0.216
		c1.44,0.504,1.44,0.504,1.728,0.864c0.504,0,1.08,0.072,1.656,0.144c0.648-0.144,1.296-0.288,1.944-0.504
		c0.432,0.072,0.936,0.144,1.44,0.216c0,0.288,0,0.576,0.072,0.864c-0.216,0.288-0.504,0.576-0.792,0.864
		c-1.44,0.432-1.44,0.432-1.944,0.936C29.664,136.296,29.664,136.296,28.008,136.296L28.008,136.296z M344.304,133.632
		c-4.824-1.224-9.648-2.448-14.544-3.672c0-0.216,0-0.432,0-0.72c1.584-2.304,3.168-4.608,4.824-6.984
		c0.288,0,0.576-0.072,0.864-0.144c5.184,1.224,10.44,2.448,15.696,3.744c-0.072,0.36-0.144,0.792-0.216,1.224
		c-1.44,2.16-2.88,4.32-4.32,6.4799C345.888,133.56,345.096,133.56,344.304,133.632L344.304,133.632z M325.872,129.312
		c-7.488-1.872-12.744-2.88-15.264-3.672c0-0.216,0-0.432,0-0.72c1.224-1.656,2.52-3.312,3.816-5.04
		c0.432-0.36,0.864-0.72,1.368-1.08c1.224,0.072,2.52,0.144,3.816,0.216c4.248,0.792,8.496,1.584,12.744,2.376
		c0.216,0.36,0.216,0.36-0.144,1.368c-3.888,5.04-3.888,5.04-5.4,6.48C326.52,129.24,326.232,129.24,325.872,129.312
		L325.872,129.312z M80.064,125.712c-1.152-0.072-2.376-0.144-3.6-0.216c-0.36-0.36-0.72-0.72-1.08-1.08
		c-0.504-1.44-0.504-1.44-1.224-2.16c0-0.288,0.072-0.576,0.144-0.936c1.224-0.36,1.224-0.36,2.664-0.36
		c1.584,1.44,3.168,2.8799,4.824,4.392C81.504,125.712,81.504,125.712,80.064,125.712L80.064,125.712z M306.144,124.776
		c-7.2-1.656-11.52-2.376-11.952-2.664c-0.36,0-0.792,0-1.224-0.072c0.216-0.72,0.504-1.44,0.792-2.16
		c0.72-1.08,1.512-2.16,2.304-3.24c1.512,0,3.024,0,4.608,0c1.008,0.216,2.016,0.432,3.096,0.72c2.52,0.144,5.112,0.288,7.704,0.432
		c0.432,0.2159,0.936,0.4319,1.44,0.6479c-3.888,5.4-3.888,5.4-4.824,6.336C307.44,124.776,306.792,124.776,306.144,124.776
		L306.144,124.776z M289.872,121.68c-2.448-0.504-2.448-0.504-9.864-1.008c-1.44-0.936-1.44-0.936-4.824-2.376
		c0-0.432-0.072-0.864-0.144-1.2961c0.576-0.72,1.224-1.512,1.872-2.304c1.512-0.072,3.024-0.144,4.536-0.216
		c3.816,0.36,7.632,0.72,11.52,1.152c0.144,0.144,0.36,0.288,0.576,0.432c0,0.288,0,0.576,0,0.936
		C290.088,121.824,290.088,121.824,289.872,121.68L289.872,121.68z M33.552,120.96c-2.304-0.432-4.608-0.936-6.984-1.44
		c-1.512-0.648-3.024-1.2961-4.536-1.944c-0.936-0.72-1.872-1.44-2.88-2.16c-4.824-1.944-4.824-1.944-7.2-3.384
		c-1.656-0.216-3.312-0.504-5.04-0.792c0-0.36,0-0.792,0.072-1.224c0.576-0.432,0.576-0.432,2.304-0.864c0.792,0,1.584,0,2.376,0
		c0.432,0.432,0.936,0.936,1.44,1.44c0.36,0.144,0.792,0.288,1.224,0.504c0.288,0.36,0.576,0.792,0.936,1.224
		c2.16,0.936,2.16,0.936,5.328,1.872c0.72,0.648,1.44,1.296,2.16,1.944c0.72,0.288,1.44,0.576,2.16,0.936
		c1.656,0.216,3.312,0.4319,5.04,0.72c0.504,0.4319,1.08,0.9359,1.656,1.44c1.728,0.144,3.456,0.288,5.256,0.504
		c0.144,0.144,0.288,0.36,0.504,0.576c-0.144,0.216-0.288,0.432-0.504,0.648C35.784,120.96,34.704,120.96,33.552,120.96
		L33.552,120.96z M109.872,120.456c-3.168-0.936-8.64-1.944-13.248-3.2401c0-0.504-0.072-1.08-0.144-1.656
		c1.944-4.8239,3.888-8.424,4.824-11.016c0.288,0,0.576-0.072,0.864-0.144c0.504,0.432,2.232,3.744,3.24,4.896
		c0.432,1.008,0.936,1.44,5.76,9.6479c0.072,0.432,0.144,0.936,0.216,1.44C110.88,120.384,110.376,120.384,109.872,120.456
		L109.872,120.456z M58.248,117.72c-0.504-0.864-0.504-0.864-1.44-1.368c-13.464-3.816-13.464-3.816-17.784-4.752
		c-8.352-2.88-11.52-3.6-11.736-3.888c-0.792-0.144-1.584-0.288-2.376-0.432c-0.72-0.288-1.44-0.648-2.16-1.008
		c-1.296-0.288-2.592-0.576-3.888-0.936c-2.88-1.44-2.88-1.44-3.312-1.944c-5.544-0.936-5.544-0.936-6.192-1.296
		c0-0.288,0-0.576,0-0.936c0.648-0.432,1.368-0.864,2.088-1.368c0.504,0,1.08,0,1.656,0c0.504,0.504,0.864,1.584,1.44,1.944
		c1.44,0.144,2.88,0.288,4.32,0.504c0.216,0.288,0.432,0.576,0.72,0.936c0.792,0.072,1.584,0.144,2.448,0.216
		c0.288,0.288,0.576,0.648,0.936,1.008c2.16,0.936,2.16,0.936,3.6,1.872c2.376,0.648,4.752,1.296,7.2,1.944
		c0.144,0.144,0.288,0.288,0.504,0.504c2.88,0.576,5.76,1.224,8.64,1.872c0.72,0.288,1.44,0.648,2.16,1.008
		c11.016,2.88,11.016,2.88,13.392,3.816c0.288,0.288,0.576,0.576,0.864,0.864c0,1.224,0,1.224-0.36,1.5121
		C58.752,117.792,58.536,117.792,58.248,117.72L58.248,117.72z M91.152,116.64c-1.008-0.288-1.008-0.288-5.328-0.504
		c-0.288-0.144-0.576-0.288-0.936-0.504c-1.08-0.072-2.232-0.144-3.384-0.288c0.072-0.36,0.216-0.792,0.36-1.224
		c2.88-1.944,2.88-1.944,4.68-3.5999c7.92-4.6801,7.92-4.6801,9.144-5.688c1.008-0.288,2.016-0.648,3.096-1.008
		c-0.288,0.936-0.576,1.872-0.864,2.88c-1.512,3.168-3.024,6.408-4.608,9.648C92.592,116.64,92.592,116.64,91.152,116.64
		L91.152,116.64z M271.584,116.352c-0.792-0.432-1.656-0.864-2.52-1.296c0-0.216,0-0.432-0.072-0.72
		c1.584,0,3.168,0.072,4.752,0.144c0.072,0.072,0.144,0.216,0.288,0.36c-0.288,0.504-0.648,1.008-1.008,1.512
		C272.592,116.352,272.088,116.352,271.584,116.352L271.584,116.352z M177.552,111.096c-0.288-0.432-0.648-0.936-1.008-1.44
		c-0.504-0.144-1.08-0.288-1.656-0.504c-4.824-3.816-12.96-9.576-14.184-10.8c-1.08-0.576-2.16-1.224-3.312-1.872
		c0-0.288-0.072-0.576-0.144-0.864c0.864-0.504,1.8-1.008,2.736-1.584c0.216,0,0.432,0,0.72,0c1.008,1.224,1.008,1.224,11.088,9.36
		c5.256,3.888,5.256,3.888,8.352,6.624c-0.432,0.576-0.432,0.576-1.656,1.08C178.2,111.096,177.912,111.096,177.552,111.096
		L177.552,111.096z M79.128,107.712c-2.16-0.936-6.264-1.872-11.736-3.816c-6.768-1.944-12.24-3.096-18.504-5.04
		c-0.432-0.288-0.936-0.576-1.44-0.936c-3.384-0.72-3.6-1.008-7.92-1.944c-0.72-0.288-1.44-0.576-2.16-0.936
		c-0.144-0.216-0.288-0.432-0.504-0.72c-2.16-1.008-2.16-1.008-7.2-2.448c-1.8-0.144-3.6-0.288-5.472-0.432
		c-0.288-0.288-0.648-0.576-1.008-0.864c0.36-0.36,0.792-0.72,1.224-1.08c1.656-0.504,1.656-0.504,4.536-0.72
		c0.288,0.072,0.576,0.216,0.936,0.36c0.144,0.288,0.288,0.576,0.504,0.864c0.576,0.0721,1.152,0.144,1.728,0.216
		c0.432,0.36,0.936,0.792,1.44,1.224c1.512,0.576,3.024,1.224,4.536,1.872c0.36,0.288,0.792,0.648,1.224,1.008
		c3.312,0.864,6.696,1.728,10.08,2.592c0.432,0.504,0.432,0.504,3.816,1.944c4.32,0.936,4.32,0.936,8.136,1.44
		c3.744,1.224,7.488,2.52,11.304,3.816c2.16,0.432,4.32,0.936,6.48,1.44c0.72,0.504,0.72,0.504,1.08,1.152c0,0.72,0,0.72-0.36,1.008
		C79.632,107.712,79.416,107.712,79.128,107.712L79.128,107.712z M188.784,106.056c-0.2881-0.432-0.576-0.864-0.864-1.296
		c-5.256-3.816-5.256-3.816-16.632-11.448c-1.08-0.864-2.16-1.8-3.24-2.736c0-0.216,0-0.432,0-0.72
		c0.432-0.288,0.864-0.576,1.296-0.864c0.648,0,1.296,0,1.944,0c11.304,7.704,11.304,7.704,15.12,10.728
		c1.368,0.648,2.736,1.2961,4.104,2.0161c0.864,0.648,1.728,1.296,2.592,2.016c-0.432,0.648-0.432,0.648-1.872,1.584
		C190.44,105.552,189.648,105.768,188.784,106.056L188.784,106.056z M199.584,100.152c-1.656-1.296-3.312-2.592-5.04-3.96
		c-3.312-1.872-4.536-2.88-7.92-4.752c-2.448-1.944-4.896-3.888-7.344-5.904c0-0.216,0-0.432,0-0.72
		c0.576-0.432,1.224-0.864,1.872-1.296c0.288,0,0.576,0,0.936,0c0.216,0.36,0.432,0.72,0.72,1.152
		c5.544,3.888,5.544,3.888,10.584,6.768c3.312,2.88,4.3199,3.312,9.072,7.56c-0.504,0.432-1.08,0.864-1.656,1.2961
		C200.448,100.296,200.016,100.224,199.584,100.152L199.584,100.152z M101.448,98.856c-1.224-1.656-2.448-3.384-3.744-5.112
		c0-0.288,0-0.648-0.072-1.008c1.656-0.144,1.656-0.144,6.192,0.36c0.288,0.072,0.576,0.216,0.864,0.36
		c-0.072,0.576-0.144,1.152-0.288,1.728c-0.576,1.152-1.224,2.376-1.872,3.6C102.168,98.784,101.808,98.784,101.448,98.856
		L101.448,98.856z M208.728,94.176c-0.0721-0.36-0.216-0.72-0.36-1.152c-12.96-9.144-12.96-9.144-14.688-10.08
		c-1.44-1.1519-2.88-2.376-4.32-3.6c-0.072-0.288-0.144-0.648-0.216-1.008c0.504-0.432,0.504-0.432,1.368-0.576
		c2.16,1.224,4.32,2.52,6.4799,3.816c4.392,3.312,8.784,6.696,13.1761,10.08c0,0.36,0,0.72,0.072,1.08
		C209.304,93.96,209.304,93.96,208.728,94.176L208.728,94.176z M157.608,83.52c-4.824-1.44-4.824-1.44-5.184-1.8
		c0.072-0.432,0.144-0.936,0.216-1.44c1.08-0.576,2.16-1.152,3.312-1.8c0.936-0.072,1.872-0.144,2.88-0.288
		c0.288,0.144,0.576,0.288,0.936,0.504c0.36,1.08,0.36,1.08,0.36,2.52c-0.504,1.008-0.504,1.008-1.8,2.304
		C158.112,83.52,157.896,83.52,157.608,83.52L157.608,83.52z M166.032,78.696c-1.152-0.432-2.376-0.936-3.6-1.44
		c0-0.504-0.072-1.008-0.144-1.512c0.576-0.432,2.304-0.864,3.024-1.368c0.936,0.216,1.872,0.432,2.88,0.72
		c0.432,0.504,0.432,0.504,0.576,1.368c-0.576,0.72-1.152,1.44-1.8,2.232C166.68,78.696,166.392,78.696,166.032,78.696
		L166.032,78.696z M133.344,73.152c-0.504-0.144-1.08-0.288-1.656-0.432c-1.224-2.16-2.448-4.392-3.744-6.624
		c-0.72-0.792-1.44-1.584-2.16-2.376c0-0.36,0-0.792,0-1.224c0.144-0.144,0.288-0.288,0.504-0.432
		c0.072-0.4319,0.144-0.936,0.216-1.44c-1.944-4.104-1.944-4.104-2.736-5.184c-0.504-0.288-1.008-0.576-1.584-0.864
		c-0.36-1.5121-0.72-3.024-1.08-4.536c0.216,0,0.432,0,0.72,0.072c1.008,1.584,1.008,1.584,1.8,3.528
		c0.36,0.288,0.792,0.576,1.224,0.936c1.224,1.872,2.52,3.816,3.816,5.76c0.504,0.288,1.008,0.648,1.584,1.008
		c1.008,0.216,2.016,0.432,3.096,0.648c-0.288,0.432-0.576,0.864-0.936,1.368c0,0.432-0.072,0.864-0.144,1.296
		c3.816,5.328,3.816,5.328,4.824,6.264c0.216,0.648,0.432,1.296,0.72,1.944C136.728,73.152,136.728,73.152,133.344,73.152
		L133.344,73.152z M119.664,72c-0.432-0.864-0.432-0.864-0.864-3.024c0-0.72,0.072-1.512,0.144-2.304c2.16-0.216,2.16-0.216,4.608,0
		c0.648,0.504,1.296,1.008,2.016,1.584c0.072,0.432,0.144,0.936,0.216,1.44c-1.296,0.864-1.296,0.864-4.896,2.304
		C120.528,72,120.096,72,119.664,72L119.664,72z M137.952,66.672c-0.288-0.36-0.648-0.72-1.008-1.08
		c0-0.288-0.072-0.576-0.144-0.936c1.008-0.792,2.088-1.584,3.168-2.376c0.432-1.224,0.432-1.224,0.432-2.8799
		c-0.576-0.72-0.576-0.72-1.296-1.08c-1.944,0.072-3.96,0.144-5.976,0.216c-0.288-0.432-0.576-0.864-0.864-1.296
		c-1.944-6.696-2.376-9.36-4.32-15.336c-0.576-2.736-1.152-5.472-1.8-8.208c0.288,0.072,0.648,0.216,1.008,0.36
		c2.592,3.024,5.256,6.048,7.92,9.144c5.472,5.472,9.36,10.08,13.392,14.112c1.08,1.224,2.16,2.448,3.24,3.744
		c0,0.864,0,1.8-0.072,2.7361c-4.824,0-4.824,0-8.64,0.504c-1.296,0.792-2.592,1.584-3.888,2.376
		C138.744,66.672,138.384,66.672,137.952,66.672L137.952,66.672z M116.568,60.84c-0.144-1.08-0.288-2.232-0.504-3.384
		c1.224,0.36,1.224,0.36,5.328,0.576c0.36,0.576,0.72,1.152,1.152,1.8c-0.144,0.216-0.288,0.432-0.432,0.648
		c-0.432,0.144-0.936,0.288-1.44,0.432C119.304,60.912,117.936,60.912,116.568,60.84L116.568,60.84z"/>
</g>
</svg>
