<?xml version="1.0" encoding="utf-8"?>
<!-- Generator: Adobe Illustrator 21.1.0, SVG Export Plug-In . SVG Version: 6.00 Build 0)  -->
<svg version="1.1" id="Mo" xmlns="http://www.w3.org/2000/svg" xmlns:xlink="http://www.w3.org/1999/xlink" x="0px" y="0px"
	 viewBox="0 0 507.7816 230.904" enable-background="new 0 0 507.7816 230.904" xml:space="preserve">
<g>
	<path fill-rule="evenodd" clip-rule="evenodd" d="M2.304,230.7599c-0.144-0.216-0.288-0.432-0.504-0.72
		c1.44-0.648,2.88-1.296,4.32-2.016c3.096-0.216,3.096-0.216,8.424-1.224c5.472-1.872,5.472-1.872,7.2-2.88
		c2.16-0.432,3.312-0.936,9.072-1.872c0.864-0.432,1.728-0.936,2.664-1.44c3.096-0.504,3.096-0.504,4.536-1.008
		c2.088-0.144,4.176-0.288,6.264-0.432c0.216-0.144,0.432-0.288,0.72-0.504c0-0.216,0-0.504,0.072-0.792
		c-0.72-0.864-1.44-1.728-2.16-2.664c-1.872-4.104-2.376-4.536-7.2-15.12c-0.432-2.16-0.936-4.32-1.44-6.48
		c-1.872-3.816-2.376-5.544-2.88-6.264c-0.576-2.52-1.224-5.04-1.872-7.632c0-2.376,0-4.752,0-7.2
		c0.936-6.48,0.936-6.48,1.872-10.368c1.944-4.32,1.944-4.32,2.88-5.76c0.864-0.72,1.728-1.512,2.592-2.304
		c3.6-0.936,7.2-1.872,10.8-2.88c10.08-1.872,20.16-3.816,30.24-5.7599c0.792,0,1.584,0,2.376,0c3.384-0.936,6.84-1.872,10.296-2.88
		c3.096-0.576,6.192-1.224,9.36-1.872c0.72-0.288,1.44-0.648,2.16-1.008c0-3.312,0.072-6.624,0.144-9.936
		c-0.288-3.024-0.648-6.048-1.008-9.072c0.216-2.16,0.432-4.32,0.72-6.48c0.648-1.008,1.296-2.088,1.944-3.168
		c0.72-0.72,1.44-1.44,2.16-2.16c0.936-0.576,1.872-1.224,2.88-1.872c0.072-0.36,0.144-0.7921,0.216-1.224
		c-0.72-1.656-1.152-3.6-5.04-12.744c-0.792-2.232-1.584-4.464-2.376-6.696c0-0.72,0-1.44,0-2.16
		c-1.944-1.944-1.944-1.944-5.76-6.984c-1.944-3.6-1.944-3.6-2.88-4.752c-0.288-1.296-0.576-2.592-0.936-3.888
		c0.072-1.296,0.144-2.664,0.216-4.032c0.936-2.088,1.872-4.176,2.88-6.264c2.376-2.16,2.376-2.16,5.184-3.96
		c4.104-1.944,4.104-1.944,7.992-3.24c0-0.216,0-0.432,0-0.72c-2.88-1.944-2.88-1.944-10.872-6.624
		c-8.136-3.816-13.464-6.696-21.6-10.584C53.856,21.6,52.92,20.88,51.48,20.448c-21.6-11.52-21.6-11.52-22.104-12.024
		c-0.072-0.36-0.144-0.72-0.216-1.08c1.008,0.288,2.016,0.5759,3.096,0.864c2.52,1.2239,5.112,2.5199,7.704,3.816
		c4.464,2.52,8.928,5.112,13.464,7.7039c2.664,1.2241,5.4,2.52,8.136,3.816c4.752,2.52,9.576,5.1121,14.4,7.704
		c7.848,3.816,15.696,7.6321,23.544,11.5201c4.104,2.376,8.28,4.752,12.456,7.2c0.864,0,1.728,0,2.664,0
		c4.32-1.008,10.512-1.944,41.472-7.704c4.032-0.936,8.136-1.872,12.24-2.88C181.8,37.44,181.8,37.44,183.24,37.008
		c0.072-0.072,0.144-0.216,0.216-0.36c-0.432-0.216-0.936-0.4319-1.44-0.648c-0.36-1.296-0.36-1.296-0.864-7.9919
		c-0.288-1.44-0.576-2.88-0.936-4.32c-0.432-1.152-0.936-2.376-1.44-3.6c-0.144-1.368-0.288-2.7361-0.504-4.104
		c-0.936-2.16-2.88-9.3601-5.04-14.832c0-0.36,0.072-0.72,0.144-1.152c0.288,0,0.648,0,1.008,0c1.728,3.312,1.728,3.312,3.672,8.064
		c1.944,6.264,5.76,20.664,6.264,21.6c0.432,2.16,0.936,4.32,1.44,6.48c0.36,0.144,0.72,0.36,1.08,0.576
		c6.264-0.432,8.64-0.936,11.304-0.936c2.88-0.504,12.24-0.936,15.336-1.44c1.656-0.072,3.312-0.144,5.04-0.216
		c0.792,0.144,1.584,0.288,2.376,0.4319c1.872,0.936,3.816,1.872,5.76,2.8801c2.16,2.1599,2.16,2.1599,3.168,3.5999
		c0.576,1.7281,1.152,3.456,1.728,5.184c-0.072,2.376-0.144,4.752-0.216,7.2c-0.936,3.384-1.44,4.32-1.656,5.76
		c8.136,5.76,9.072,6.768,21.456,15.48c2.88,0.216,2.88,0.216,13.248,0c2.736,0.288,5.544,0.576,8.352,0.936
		c2.016,0.648,4.032,1.296,6.048,1.944c0.864,0.432,1.728,0.936,2.5919,1.44c4.104,4.104,4.104,4.104,5.328,5.76
		c0.432,0.072,0.936,0.144,1.44,0.216c0.36,0.288,0.72,0.648,1.152,1.008c5.328,1.872,5.328,1.872,9.864,3.816
		c1.08,0.648,2.232,1.296,3.384,1.944c0.432,0,0.936,0,1.44,0c0.72-0.504,0.72-0.504,5.04-1.728c5.04-0.432,5.472-0.72,12.456-1.656
		c1.656-0.504,3.6-0.504,4.536-0.936c1.08-0.144,2.232-0.288,3.384-0.504c0.936-0.432,1.872-0.936,2.88-1.44
		c1.584-0.144,3.168-0.288,4.824-0.504c0.864-0.288,1.728-0.576,2.592-0.936c1.152-0.144,2.376-0.288,3.6-0.504
		c0.288-0.216,0.648-0.432,1.008-0.72c2.16-0.432,2.592-0.72,11.232-2.16c4.32-1.44,4.32-1.44,13.248-3.816
		c11.952-1.656,21.096-3.384,25.416-3.816c5.76-1.008,8.856-1.944,16.776-3.384c3.168-0.288,6.408-0.576,9.648-0.936
		c4.104-0.144,8.28-0.288,12.456-0.504c2.088-0.288,4.176-0.576,6.264-0.936c4.608-0.144,9.216-0.288,13.896-0.504
		c5.832,0.216,11.664,0.432,17.496,0.72c0.936,0.144,1.872,0.288,2.88,0.504c6.048,0,6.048,0,10.8,0.432
		c4.968,0.936,9.936,1.872,14.9041,2.88c1.368-0.072,2.736-0.144,4.104-0.216c0.2159,0.216,0.4319,0.432,0.72,0.72
		c0,0.432,0,0.864,0.072,1.368c-0.576,0.288-1.152,0.576-1.8,0.936c-7.56,12.24-8.496,14.184-9.504,15.336
		c-0.432,1.224-16.056,27.144-19.872,32.904c-0.792,1.008-1.584,2.016-2.448,3.096c-0.144,0.36-0.288,0.7921-0.432,1.224
		c-1.872,2.592-3.816,5.256-5.76,7.92c-2.52,2.664-5.112,5.4-7.704,8.136c0,0.2881,0,0.648-0.0719,1.008
		c8.136-1.368,8.136-1.368,16.2719-3.312c0.936-0.288,1.8721-0.576,2.8801-0.936c0.7919-0.648,1.584-1.296,2.448-1.944
		c1.2239-0.576,2.52-1.224,3.816-1.872c1.152-0.288,2.376-0.648,3.6-1.008c2.592-0.288,5.256-0.576,7.92-0.936
		c5.976-1.44,5.976-1.44,8.136-2.376c1.656-0.936,3.312-1.872,5.04-2.88c0.288,0.072,0.648,0.144,1.008,0.216
		c0.072,0.864,0.072,0.864-0.288,1.44c-0.936,0.288-1.8721,0.576-2.88,0.936c-0.504,0.432-1.08,0.936-1.656,1.44
		c-4.536,1.44-4.536,1.44-10.584,2.88c-1.8719,0.144-3.816,0.288-5.7599,0.504c-1.08,0.288-2.16,0.576-3.312,0.936
		c-1.368,0.648-2.736,1.296-4.104,1.944c-0.36,0.36-0.792,0.792-1.224,1.224c-0.576,0.288-1.2241,0.576-1.872,0.936
		c-2.52,0.648-5.112,1.368-7.704,2.088c-0.072,0.2159-0.144,0.504-0.216,0.792c-0.648,0.288-1.296,0.576-1.944,0.936
		c-0.936,1.008-0.936,1.008-2.664,1.944c-1.872,0.504-1.872,0.504-3.6,1.44c-2.448,0.648-4.896,1.296-7.416,1.944
		c-1.584,0.576-3.168,1.224-4.824,1.872c-2.376,1.944-2.376,1.944-5.76,3.888c-1.512,0.432-3.024,0.936-4.536,1.44
		c-0.36,0.288-0.792,0.576-1.224,0.936c-2.016,0.504-4.104,1.08-6.192,1.656c-0.72,0.288-1.44,0.6479-2.16,1.008
		c-2.88,0.432-2.88,0.432-4.32,0.936c-0.36,0.288-0.792,0.576-1.224,0.936c-5.256,1.944-6.696,2.88-8.136,3.312
		c-0.144,0.792-0.288,1.584-0.432,2.376c-1.008,0.792-1.008,0.792-1.728,0.936c-0.288,0.648-0.576,1.296-0.864,1.944
		c-1.512,0.216-3.096,0.504-4.6801,0.792c-4.1039,0-4.3199-0.216-7.2-0.36c-1.44-0.36-1.44-0.36-2.16-0.216
		c-0.36,1.224-0.36,1.224-0.72,1.584c-2.52,0.504-5.112,1.08-7.704,1.656c-0.072,0.216-0.216,0.432-0.36,0.648
		c0.072,0.864,0.144,1.728,0.216,2.592c-0.288,0.36-0.648,0.72-1.008,1.08c-2.664,0.936-2.88,1.224-4.608,1.656
		c-0.216,0.144-0.432,0.288-0.72,0.504c0,0.288-0.072,0.576-0.144,0.864c0.288,0.288,0.648,0.576,1.008,0.936
		c0.072,0.432,0.144,0.936,0.216,1.44c-0.504,0.72-0.504,0.72-2.016,1.656c0.216,0.216,0.432,0.432,0.72,0.648
		c1.44,0,1.44,0,3.384,0.576c0.072,0.144,0.144,0.288,0.216,0.504c-1.224,1.08-1.224,1.08-2.16,1.44c0,0.288,0,0.576,0,0.936
		c1.656,0.36,1.656,0.36,3.24,1.224c0,0.936,0,0.936-0.36,1.296c-1.584,0.216-3.168,0.432-4.824,0.648c0,0.216,0,0.432,0,0.72
		c0.576,0.072,1.152,0.144,1.8,0.216c0,0.216,0,0.432,0,0.72c-0.144,0.144-0.36,0.288-0.576,0.504
		c-2.232,0.216-4.4641,0.504-6.696,0.792c-2.304,0.072-4.608,0.144-6.984,0.216c-0.72,0.72-1.44,1.44-2.16,2.16
		c-1.44-0.216-1.44-0.216-5.04,0c-0.648,0.432-0.864,1.152-1.44,1.44c-2.808,0.144-5.616,0.288-8.424,0.504
		c-1.152,0.216-2.376,0.432-3.5999,0.648c0,0.504-0.072,1.08-0.144,1.656c-0.288,0.36-0.648,0.72-1.008,1.08
		c-2.52,0.36-5.112,0.72-7.704,1.152c-0.36,0.648-0.36,0.648-0.648,2.592c1.872,0.792,1.872,0.792,2.88,1.656
		c0,1.44-0.216,1.656-0.288,2.88c1.872,0.36,2.592,0.792,4.536,1.08c0.504,0.432,4.104,1.44,5.04,2.016
		c0.36,0.936,0.792,1.872,1.224,2.88c6.48,3.024,6.48,3.024,7.632,3.24c0.504,0.648,0.504,0.648,0.576,1.8
		c-0.144,0.072-0.36,0.216-0.576,0.36c-2.592-0.216-2.592-0.216-3.816-0.72c-1.44-1.584-1.44-1.584-2.664-2.376
		c-0.72-0.144-1.44-0.36-2.16-0.576c-0.072-0.288-0.144-0.576-0.216-0.864c-0.216-0.072-0.432-0.144-0.72-0.288
		c-0.648-0.936-1.296-1.872-1.944-2.88c-1.44-0.432-1.872-0.936-5.256-1.872c-0.936-0.504-0.936-0.504-3.6-1.008
		c-1.944,0-1.944,0-3.384-0.288c0-0.432-0.072-0.936-0.144-1.44c0.648-0.432,0.648-0.432,2.88-0.72c0-0.216,0-0.432,0-0.72
		c-0.936-0.432-1.944-0.864-2.952-1.368c-2.088-0.288-4.176-0.576-6.264-0.864c0-0.936,0-1.872,0-2.808
		c0.144-0.144,0.288-0.288,0.504-0.432c2.592-0.144,5.256-0.288,7.92-0.432c0.216-0.144,0.432-0.288,0.72-0.504
		c0.36-2.016,0.36-2.016,0.72-2.376c1.8-0.144,3.672-0.288,5.544-0.504c0.864-0.432,1.728-0.936,2.592-1.44
		c0.936,0.072,1.872,0.144,2.88,0.216c0.504-0.432,0.504-0.432,2.16-0.936c1.656-0.144,3.312-0.288,5.04-0.504
		c0.36-0.36,0.792-0.72,1.224-1.08c1.8-0.36,3.672-0.72,5.544-1.08c1.44-0.936,2.376-1.152,2.592-1.44
		c0.216,0,0.432,0.072,0.72,0.144c0.0721,0.432,0.144,0.936,0.288,1.44c3.168-0.144,6.336-0.36,9.576-0.576
		c0.144-0.216,0.288-0.432,0.504-0.648c-0.504-0.936-0.504-0.936-0.288-1.296c1.44-0.504,1.44-0.504,6.264-1.224
		c0.216-0.36,0.216-0.36,0-0.72c-1.656-0.432-4.824-0.432-5.544-0.792c0-0.288-0.072-0.576-0.144-0.936
		c0.288-0.288,0.576-0.648,0.864-1.008c-1.44-0.576-1.44-0.576-2.16-1.224c0.144-0.216,0.288-0.504,0.504-0.792
		c1.224-0.72,2.448-1.512,3.672-2.304c0-0.36,0.072-0.72,0.144-1.152c-1.44-0.504-1.44-0.504-2.592-1.368
		c0-0.216,0-0.504-0.072-0.792c1.944-0.864,5.832-1.872,7.488-2.808c0.144-0.144,0.288-0.36,0.504-0.576
		c0.072-1.152,0.144-2.376,0.288-3.6c1.008-0.288,2.016-0.576,3.024-0.864c0.216-0.288,0.432-0.576,0.72-0.864
		c-0.36-0.936-0.36-0.936-0.216-2.2321c3.384,0,4.32-0.288,7.2-0.288c2.376,0.216,4.752,0.432,7.2,0.648c0-0.36,0-0.792,0-1.224
		c0.864-0.288,1.728-0.576,2.664-0.936c-0.216-0.144-0.432-0.288-0.648-0.504c-0.0721-0.36-0.144-0.72-0.216-1.152
		c0.432-0.504,0.432-0.504,3.24-1.368c0.648-0.432,1.296-0.936,1.944-1.44c3.816-0.72,3.816-0.72,5.256-0.72
		c0.864-0.792,1.728-1.584,2.664-2.376c1.584-0.36,3.168-0.792,4.752-1.224c0.216,0.072,0.432,0.144,0.72,0.216
		c0.648-0.432,1.296-0.936,1.944-1.44c2.376-0.432,2.376-0.432,3.6-0.936c0.504-0.504,1.656-0.936,1.944-1.296
		c-3.168-0.36-4.824-0.864-8.64-1.08c-0.36,0.144-0.792,0.288-1.224,0.432c-0.504,0.576-1.08,1.152-1.656,1.728
		c-2.88,1.872-2.88,1.872-5.328,2.88c-1.08,0.288-2.16,0.576-3.312,0.936c-5.976-0.288-11.952-0.576-18-0.936
		c-2.88,0.432-7.92,0.432-11.52,0.936c-2.376,0.648-4.752,1.296-7.2,1.944c-6.984,2.88-6.984,2.88-8.64,3.816
		c-0.432,0.504-0.936,1.08-1.44,1.656c-2.664,1.008-3.168,1.44-6.768,2.448c-3.816,0-3.816,0-8.856-0.504
		c-2.304,0.0721-4.608,0.144-6.984,0.216c-2.664,0.648-5.4,1.2961-8.136,1.944c-1.224,0.648-2.52,1.2961-3.816,1.944
		c-1.872,0.432-3.816,0.936-5.76,1.44c-8.208-1.224-8.208-1.224-9.36-1.728c-0.216-0.288-0.432-0.576-0.72-0.936
		c-0.648,0.072-1.2961,0.144-1.944,0.216c-1.008,0.936-2.016,1.872-3.096,2.88c-1.728,1.008-1.728,1.008-6.48,2.88
		c-2.304,0.576-4.608,1.152-6.984,1.728c-4.824,0.288-9.72,0.576-14.616,0.936c-5.04-0.504-5.04-0.504-6.48-0.936
		c-0.432-0.288-0.936-0.648-1.44-1.008c-1.944-0.432-1.944-0.432-4.32-1.44c-0.576-0.432-1.152-0.936-1.728-1.44
		c-1.224-0.432-2.52-0.936-3.816-1.44c-1.8-0.216-3.672-0.432-5.544-0.72c-1.656,0.432-3.312,0.936-5.04,1.44
		c-1.44,0.72-2.88,1.512-4.32,2.304c-1.44,1.152-2.952,2.376-4.464,3.6c-0.144,0.432-0.288,0.936-0.432,1.44
		c-0.288,0.288-0.648,0.648-1.008,1.008c-2.0161,0.792-4.392,1.296-6.336,2.232c-2.88,0.648-5.76,1.2961-8.64,1.944
		c-0.432,0.432-3.096,1.44-4.32,2.376c-2.376,0.936-2.376,0.936-6.696,1.944c-1.944-0.216-3.96-0.432-5.976-0.72
		c-0.216-0.216-0.432-0.432-0.72-0.72c-2.664,0.216-2.664,0.216-5.04,0.72c-0.864,0.576-1.728,1.224-2.664,1.872
		c-2.808,1.296-5.616,2.592-8.424,3.888c-4.32,1.44-8.64,2.88-12.96,4.32c-3.312,0.072-6.696,0.144-10.08,0.216
		c-5.04-1.44-5.04-1.44-5.4-1.8c-0.072-0.936-0.216-1.872-0.36-2.88c-0.576,0.0721-1.224,0.216-1.872,0.36
		c-1.872,2.16-3.816,4.32-5.76,6.4799c-1.728,0.936-1.728,0.936-4.608,1.944c-11.016,1.08-22.032,2.16-33.12,3.312
		c-11.016,2.88-11.016,2.88-13.68,3.888c-2.952,0.576-5.904,1.224-8.856,1.872c-1.224,0.072-2.52,0.144-3.816,0.288
		c-0.72-0.144-1.44-0.288-2.16-0.504c-2.736-0.072-5.472-0.144-8.208-0.216C81.72,216,81.72,216,75.456,216.504
		c-3.096,0.936-3.096,0.936-8.856,1.944c-13.464,0.936-13.464,0.936-22.536,1.8719c-3.528,0.648-7.056,1.296-10.584,1.944
		c-1.872,0.648-3.816,1.2961-5.76,1.944c-0.936,0.144-1.872,0.2881-2.88,0.432c-2.952,1.08-5.904,2.232-8.856,3.384
		c-9.864,1.944-9.864,1.944-12.744,2.88C2.952,230.904,2.664,230.832,2.304,230.7599L2.304,230.7599z M2.736,223.7039
		c-0.216-0.144-0.432-0.288-0.72-0.504c0-0.216-0.072-0.504-0.144-0.792c0.216-0.216,0.432-0.432,0.648-0.648
		c5.976-1.872,5.976-1.872,6.984-1.872c0.216,0.216,0.432,0.432,0.72,0.72c0.36,0,0.72,0,1.152,0
		c0.576-0.288,1.152-0.648,1.728-1.008c1.584-0.144,3.168-0.288,4.752-0.432c0.936-0.288,1.872-0.648,2.88-1.008
		c3.816-0.72,7.632-1.44,11.52-2.16c1.584,0,3.168,0.072,4.824,0.144c0.072,1.224,0.072,1.224-0.216,1.584c-1.44,0-2.88,0-4.32,0
		c-1.728,0.432-1.728,0.432-2.448,0.936c-5.76,0.936-6.696,1.44-16.272,2.8799c-1.008,0.504-1.008,0.504-8.208,1.944
		C4.68,223.56,3.744,223.632,2.736,223.7039L2.736,223.7039z M46.224,215.064c-0.36-0.432-0.792-0.864-1.224-1.296
		c-2.88-5.04-4.68-9.144-6.624-12.24c-0.648-1.656-1.296-3.312-1.944-5.04c0-0.72,0-1.44-0.072-2.16
		c2.16-0.144,2.16-0.144,9.144-1.8c0.216-0.144,0.432-0.288,0.72-0.504c21.312-3.816,21.312-3.816,27.072-4.536
		c3.6-1.008,6.768-1.44,8.208-1.944c1.44-0.072,2.88-0.144,4.32-0.216c7.92-1.944,13.896-2.88,20.16-4.32
		c7.632-1.008,7.632-1.008,11.232-1.728c2.16-0.144,4.32-0.288,6.48-0.432c0.72-0.504,2.16-0.72,2.664-1.224
		c10.584-1.944,11.52-2.376,23.76-4.32c0.288-0.144,0.576-0.288,0.936-0.504c3.6-0.432,5.04-0.936,12.24-1.872
		c0.648-0.288,1.296-0.6479,1.944-1.008c1.152-0.144,2.376-0.288,3.6-0.432c0.216-0.144,0.432-0.288,0.72-0.504
		c3.6-0.216,4.104-0.504,11.52-1.44c8.136-1.944,11.52-2.376,12.456-2.88c3.888-0.504,3.888-0.504,8.208-1.44
		c3.6-1.44,3.6-1.44,5.76-1.944c1.224-0.144,2.52-0.288,3.816-0.432c2.376-1.008,2.376-1.008,4.104-1.44
		c3.096-0.288,6.192-0.648,9.36-1.008c0.36-0.216,0.72-0.432,1.1519-0.72c1.152-0.144,2.376-0.288,3.6-0.432
		c1.944-1.008,1.944-1.008,12.528-4.824c3.888-0.792,7.776-1.584,11.736-2.376c2.664-1.008,5.04-1.44,6.264-1.944
		c2.376-0.216,4.32-0.72,6.696-0.936c0.504-0.288,5.976-1.224,8.856-2.16c9.864-1.944,10.8-2.448,16.344-3.384
		c2.664-0.936,2.664-0.936,2.88-1.224c1.44-0.288,2.88-0.576,4.32-0.936c1.44-0.936,1.44-0.936,2.376-1.224c1.08,0,2.232,0,3.384,0
		c3.6-0.576,7.2-1.224,10.8-1.872c6.696-1.944,6.696-1.944,7.416-2.448c1.152-0.144,2.376-0.288,3.6-0.432
		c2.88-1.008,6.9839-1.944,8.928-2.88c3.672-0.648,7.344-1.296,11.016-1.944c0.936-0.504,10.584-2.376,13.176-3.096
		c2.52-0.288,5.112-0.648,7.704-1.008c4.032-0.936,8.136-1.872,12.24-2.88c5.544-1.872,5.544-1.872,9.576-2.88
		c2.304-0.288,4.608-0.576,6.984-0.936c7.704-1.944,10.8-2.376,11.016-2.664c4.536-0.936,9.072-1.872,13.68-2.88
		c0.36-0.216,0.792-0.432,1.224-0.72c1.728-0.36,3.456-0.72,5.256-1.152c0.432-0.288,0.936-0.648,1.44-1.008
		c1.008-0.144,2.088-0.288,3.168-0.432c2.88-1.008,5.256-1.44,13.176-4.32c0.144-0.144,0.288-0.288,0.504-0.504
		c1.224-0.288,2.52-0.576,3.816-0.936c4.536-1.872,9.072-3.816,13.68-5.76c3.744-1.872,7.488-3.816,11.304-5.76
		c6.192-3.888,9.792-5.76,11.952-7.2c1.296-0.648,2.592-1.296,3.888-1.944c2.16-1.944,2.16-1.944,5.472-4.32
		c0.432-0.072,0.936-0.216,1.44-0.36c-0.576,1.296-1.152,2.592-1.8,3.888c-4.968,8.424-9.936,16.92-14.904,25.416
		c0,0.216,0,0.432,0,0.72c-1.152,1.224-1.152,1.224-12.672,18.504c-6.984,3.024-13.968,6.12-21.024,9.216
		c-0.864,0.144-1.728,0.288-2.592,0.432c-16.128,5.04-16.344,5.328-38.88,12.024c-1.8,0.648-3.672,1.296-5.544,1.944
		c-0.864,0.144-1.728,0.288-2.664,0.432c-7.92,2.88-7.92,2.88-11.736,3.888c-1.008,0.144-2.016,0.288-3.096,0.432
		c-3.24,0.936-6.552,1.872-9.864,2.88c-2.52,0.288-5.112,0.648-7.704,1.008c-2.88,0.936-2.88,0.936-6.48,1.44
		c-0.72,0.288-1.44,0.576-2.16,0.936c-9.36,1.44-9.36,1.44-17.496,3.096c-1.656,0.144-3.312,0.288-5.04,0.504
		c-2.376,0.648-4.752,1.296-7.2,1.944c-9.576,1.152-10.08,1.44-13.464,1.872c-0.504,0.144-1.08,0.288-1.656,0.504
		c-1.08,0-2.232,0-3.384,0c-1.44,0.504-9.36,1.44-16.056,2.88c-3.096,0.936-3.096,0.936-3.384,1.224
		c-6.912,0.936-6.912,0.936-7.2,1.152c-4.536,0.288-9.072,0.648-13.68,1.008c-0.72-0.504-2.592-1.008-3.312-1.44
		c-1.656-0.216-3.312-0.432-5.04-0.72c-1.008,0.432-2.088,0.936-3.168,1.44c-1.152,0.144-2.376,0.288-3.6,0.432
		c-1.44,1.224-1.44,1.224-4.752,3.168c-1.728,0-3.384,0.432-6.768,0.432c-0.144,0.144-0.288,0.288-0.432,0.504
		c-6.048,1.44-6.048,1.44-6.984,1.944c-1.944,0.144-3.96,0.288-5.976,0.432c-1.872,0.576-3.816,1.152-5.76,1.728
		c-2.664,0.216-7.704,1.152-8.928,1.152c-14.112,2.448-18,2.88-20.16,3.384c-1.872,0-1.872,0-5.472-0.504
		c-5.76,0.288-5.76,0.288-11.808,0c-0.216,0.144-0.432,0.288-0.72,0.504c-2.376,0.0721-4.752,0.144-7.2,0.216
		c-3.312,0.36-6.696,0.792-10.08,1.224c-2.52,1.08-5.04,2.232-7.632,3.384c-4.68,1.224-9.432,2.52-14.184,3.816
		c-1.944,0.936-1.944,0.936-8.424,2.88c-5.616,1.224-11.304,2.52-16.992,3.816c-2.16,0.288-4.32,0.648-6.48,1.008
		c-1.728,0.432-3.528,0.936-5.328,1.44c-3.6,0.432-5.256,0.936-20.592,2.88c-4.68,0.792-9.432,1.584-14.184,2.376
		c-2.592,0.648-5.256,1.296-7.92,1.944c-2.52,0.144-5.112,0.288-7.704,0.432c-0.432,0.648-0.936,1.296-1.44,1.944
		C46.512,215.064,46.368,215.064,46.224,215.064L46.224,215.064z M8.28,212.688c-0.36-0.576-0.36-0.576-0.36-1.8
		c0.36-0.288,0.72-0.576,1.08-0.864c2.088-0.288,4.176-0.576,6.264-0.936c0.72-0.504,0.72-0.504,2.16-0.72
		c0.144,0.144,0.288,0.36,0.432,0.576c1.44,0.144,1.44,0.144,7.2-0.36c1.872-0.432,3.816-0.936,5.76-1.44
		c0.288-0.216,0.648-0.432,1.008-0.72c0.288,0,0.648,0.0721,1.008,0.144c0,0.36,0,0.792,0,1.224
		c-1.296,0.792-4.176,1.728-4.608,2.232c-4.824,0.504-8.208,1.224-10.8,1.224c-0.648-0.072-1.296-0.144-1.944-0.288
		c-1.512,0.288-3.024,0.648-4.536,1.008c-0.36,0.216-0.792,0.432-1.224,0.72C9.288,212.688,8.784,212.688,8.28,212.688L8.28,212.688
		z M1.584,204.048c-0.288-0.144-0.288-0.144-0.432-1.296c0.504-0.288,1.008-0.576,1.584-0.864c3.168-0.648,6.408-1.296,9.648-1.944
		c1.152,0.072,2.376,0.144,3.6,0.216c0.72-0.432,1.44-0.936,2.16-1.44c0.216,0,0.432,0,0.72,0c0.144,0.216,0.288,0.432,0.432,0.72
		c2.664-0.216,4.608-0.72,8.208-0.936c0.216,0.36,0.504,0.72,0.792,1.08c-0.216,1.944-0.216,1.944-0.576,2.304
		c-0.72,0-0.72,0-1.224-0.504c-2.448,0.144-4.896,0.288-7.416,0.504c-1.224-0.144-2.52-0.288-3.816-0.504
		c-0.432,0.288-0.936,0.576-1.44,0.936c-4.104,1.008-4.104,1.008-8.928,1.728C3.816,204.048,2.736,204.048,1.584,204.048
		L1.584,204.048z M41.4,188.2079c-0.72-0.72-1.44-1.512-2.16-2.304c-1.8-4.32-1.8-4.32-2.088-5.976c0-2.304,0-4.608,0-6.984
		c0.288-2.016,0.648-4.104,1.008-6.192c0.576-1.656,1.224-3.312,1.872-5.04c0.648-1.152,1.296-2.376,1.944-3.6
		c0.504-0.504,1.008-1.008,1.584-1.584c0.288,0,0.576-0.072,0.936-0.144c0.36,1.728,0.36,1.728,3.24,8.64
		c-0.216,1.44-0.216,1.44-2.664,7.92c-0.936,5.76-0.936,5.76-1.872,14.4C41.904,188.2079,41.904,188.2079,41.4,188.2079
		L41.4,188.2079z M117,176.688c0-0.72-0.072-1.512-0.144-2.304c-0.576-0.72-0.576-0.72-1.08-0.936c0-0.216-0.072-0.432-0.144-0.72
		c3.384-6.264,3.384-6.264,5.328-9.144c0.936-0.936,0.936-0.936,11.016-15.552c1.944-3.6,1.944-3.6,3.816-6.264
		c0.648-1.44,1.296-2.88,1.944-4.32c0.648-0.36,9.288-1.8,10.944-2.304c7.2-0.936,17.064-2.88,18.72-2.952
		c-0.072,0.288-0.216,0.576-0.36,0.936c-2.52,2.88-5.112,5.76-7.704,8.64c-1.152,1.584-2.376,3.168-3.6,4.824
		c0,1.872,0,1.872,0.36,2.592c1.728,0.144,1.728,0.144,16.128-1.296c2.448-0.648,4.896-1.296,7.416-1.944
		c0.144-0.144,0.288-0.288,0.504-0.504c4.536-0.936,9.072-1.872,13.68-2.88c2.52-0.216,5.04-0.432,7.632-0.72
		c6.264-1.152,6.768-1.44,10.584-1.872c1.944-0.432,3.96-0.936,5.976-1.44c1.8-0.144,3.672-0.288,5.544-0.504
		c6.696-1.44,6.696-1.44,9.864-2.376c1.656-0.144,3.312-0.288,5.04-0.504c1.152-0.504,4.32-0.936,10.8-2.376
		c1.152-0.504,1.152-0.504,9.792-2.448c3.312-0.576,6.696-1.224,10.08-1.872c1.296-0.072,2.592-0.144,3.888-0.288
		c2.448-0.576,4.896-1.224,7.416-1.872c1.584-0.144,3.168-0.288,4.824-0.504c1.152-0.504,1.152-0.504,11.232-2.376
		c0.216-0.144,0.432-0.288,0.72-0.504c1.944-0.216,2.448-0.504,8.424-1.44c2.88-0.936,2.88-0.936,3.6-1.44
		c0.072-0.576,0.216-1.152,0.36-1.8c0.72-1.008,1.44-2.016,2.16-3.096c0.288-1.656,0.576-3.312,0.936-5.04
		c0.072-2.592,0.144-5.256,0.216-7.92c-0.432-0.72-0.432-0.72-1.152-1.224c-0.432-1.152-0.936-2.376-1.44-3.6
		c-1.512-1.008-3.024-2.016-4.608-3.096c0-0.288,0-0.576-0.072-0.936c1.44-0.432,2.88-0.864,4.32-1.368
		C322.2,90,322.2,90,330.84,88.128c0.792-0.288,1.584-0.648,2.376-1.008c3.6-0.432,3.6-0.432,3.888-0.72
		c8.136-1.872,8.136-1.872,9.36-2.376c5.76-0.936,5.976-1.224,9.36-1.656c3.816-1.08,7.632-2.232,11.52-3.384
		c16.056-2.376,16.56-2.664,31.68-5.04c5.976-1.44,5.976-1.44,15.12-2.88c15.12-0.936,15.12-0.936,19.152-0.936
		c2.088-0.288,4.176-0.648,6.264-1.008c4.68-0.144,9.4319-0.288,14.184-0.432c9.3599,0.504,18.72,1.08,28.0799,1.656
		c5.472,0.936,11.0161,1.872,16.5601,2.88c0.072,0.288,0.144,0.576,0.288,0.864c-3.456,2.592-6.912,5.256-10.44,7.92
		c-13.176,7.56-14.328,8.496-15.048,8.712c-0.144,0.216-0.288,0.432-0.504,0.72c-0.648,0.144-1.296,0.288-1.944,0.504
		c-2.52,1.224-5.04,2.52-7.632,3.816c-7.704,2.88-7.704,2.88-13.968,5.76c-3.6,1.008-3.6,1.008-13.68,4.824
		c-2.592,0.648-5.256,1.296-7.92,1.944c-0.36,0.216-0.72,0.432-1.152,0.72c-4.104,0.936-6.48,1.872-10.8,2.88
		c-3.168,0.432-4.824,0.936-8.208,1.44c-1.656,0.72-4.536,1.152-6.192,1.872c-2.664,0.288-6.048,1.224-8.64,1.44
		c-0.504,0.288-4.104,0.72-7.488,1.728c-0.936,0-0.936,0-17.28,4.32c-1.224,0.144-2.52,0.288-3.816,0.432
		c-1.08,0.288-2.232,0.648-3.384,1.008c-1.656,0-2.88,0.432-6.192,0.936c-1.224,0.504-5.04,0.936-6.264,1.44
		c-4.104,0.936-4.104,0.936-4.32,1.224c-2.664,0-2.664,0-4.104,0.432c-0.216,0.288-0.216,0.288-2.592,0.288
		c-4.176,1.224-8.352,2.52-12.528,3.816c-0.432,0-0.936,0-1.44,0c-2.232,0.648-4.464,1.2961-6.696,1.944
		c-5.76,0.936-7.416,1.44-10.8,1.872c-1.224,0.288-2.52,0.648-3.816,1.008c-0.72,0-1.44,0-2.16,0
		c-13.248,3.816-13.248,3.816-17.28,4.752c-3.888,0.504-4.104,0.72-5.544,0.72c-5.76,1.44-5.76,1.44-5.976,1.728
		c-6.768,0.936-6.768,0.936-11.304,1.872c-0.936,0.504-0.936,0.504-18.216,4.3199c-11.088,3.888-11.088,3.888-14.4,5.328
		c-5.544,1.152-5.544,1.152-5.76,1.44c-1.728,0-1.728,0-8.424,1.152c-0.72,0.504-0.72,0.504-4.104,1.224
		c-0.144,0.144-0.288,0.288-0.432,0.504c-2.664,0-2.664,0-4.824,0.432c-2.376,1.008-2.376,1.008-5.04,1.728
		c-1.368,0.144-2.736,0.288-4.104,0.432c-3.096,1.008-8.352,1.944-9.576,2.52c-0.072,0.072-0.144,0.216-0.216,0.36
		c-0.72-0.072-1.44-0.144-2.16-0.216c-8.928,1.44-8.928,1.44-10.08,1.944c-4.608,0.432-4.824,0.72-7.92,1.152
		c-2.664,1.008-2.664,1.008-4.608,1.44c-1.008,0-2.016,0-3.096,0c-2.88,0.648-5.76,1.2961-8.64,1.944
		c-2.808,0.288-5.616,0.576-8.424,0.936c-1.08,0.288-2.16,0.648-3.312,1.008C118.44,176.688,118.44,176.688,117,176.688L117,176.688
		z M5.4,169.7039c-0.216-0.216-0.432-0.4319-0.72-0.72c-1.44,0-2.88,0-4.32,0C0,168.624,0,168.624,0,167.688
		c0.72-0.432,1.512-0.864,2.304-1.368c1.512-0.288,3.024-0.576,4.536-0.936c0.144-0.144,0.288-0.288,0.504-0.504
		c5.76-0.936,5.76-0.936,15.552-3.312c0.576-0.288,1.152-0.648,1.728-1.008c0.504,0,1.08,0,1.656-0.0721
		c-0.072,0.432-0.216,0.936-0.36,1.44c-2.304,1.008-4.608,2.016-6.984,3.096c-0.072,0.36-0.144,0.792-0.216,1.224
		c-0.36,0.216-0.72,0.504-1.08,0.792C7.56,169.4879,7.56,169.4879,5.4,169.7039L5.4,169.7039z M49.536,163.728
		c-0.576-1.152-1.152-2.304-1.8-3.456c-0.432-1.44-0.936-2.88-1.44-4.32c0-0.432,0-0.936,0-1.44c0.36-0.288,0.72-0.576,1.08-0.864
		c9-1.728,18.072-3.528,27.144-5.328c0.936-0.288,1.872-0.576,2.88-0.936c0.864,0,1.728,0,2.664,0
		c4.32-0.936,5.472-1.44,11.016-2.88c2.376-0.216,3.384-0.72,7.2-1.224c1.08-0.288,2.232-0.576,3.384-0.936
		c2.232-0.288,4.464-0.576,6.696-0.936c0.216-0.144,0.432-0.288,0.72-0.504c0.216,0,0.504,0.072,0.792,0.144
		c0.288,0.936,0.288,2.88,1.224,9.576c0.144,0.36,0.288,0.792,0.504,1.224c0,0.504-0.072,1.008-0.144,1.512
		c-4.32,1.008-7.632,1.44-9.072,1.944c-5.76,0.936-5.76,0.936-7.2,1.44c-1.944,0-2.16-0.216-4.824,0
		c-1.656,0.504-23.976,4.32-30.96,5.76c-1.224,0-2.52,0-3.816,0C52.2,163.44,52.2,163.44,49.536,163.728L49.536,163.728z
		 M124.704,154.08c-0.216-0.576-0.432-1.152-0.648-1.728c0.216-7.704,0.216-7.704,0.504-8.64c-0.288-3.384-0.288-3.384,0-4.824
		c1.584-0.36,1.584-0.36,10.44-0.936c-0.288,0.792-0.576,1.584-0.864,2.376c-1.728,3.024-3.456,6.048-5.256,9.144
		c-1.008,0.936-2.88,3.816-3.96,4.752C124.848,154.224,124.776,154.152,124.704,154.08L124.704,154.08z M441.72,153.144
		c-0.072-0.072-0.144-0.216-0.216-0.36c0.36-0.36,0.72-0.72,1.152-1.08c0.432,0,0.936,0.0721,1.44,0.144
		c-0.36,0.36-0.72,0.72-1.152,1.08C442.584,153,442.152,153.072,441.72,153.144L441.72,153.144z M454.68,147.024
		c0.072-0.216,0.144-0.432,0.2159-0.72c2.4481-0.864,2.4481-0.864,4.1041-1.152c0,0.216-0.072,0.432-0.144,0.72
		C456.84,146.664,456.84,146.664,454.68,147.024L454.68,147.024z M317.664,144.864c-0.144-0.72-0.432-0.936-0.432-1.8719
		c0.216-0.2881,0.432-0.648,0.648-1.0081c3.816-0.864,3.816-0.864,7.416-1.296c0.216,0.36,0.432,0.72,0.72,1.08
		c-0.36,0.36-0.72,0.72-1.152,1.08C321.264,143.784,318.816,144.72,317.664,144.864L317.664,144.864z M104.976,138.024
		c-0.36-0.36-0.36-0.36-0.576-1.512c0-2.736-0.072-5.472-0.144-8.208c0.288,0.072,0.648,0.216,1.008,0.36
		c6.192,6.696,6.192,6.696,6.912,7.2c0,0.36,0.072,0.72,0.144,1.08c-1.152,0.288-2.304,0.576-3.456,0.864
		C107.568,137.88,106.272,137.952,104.976,138.024L104.976,138.024z M117,137.448c0-0.36,0-0.792,0.072-1.224
		c0.792-0.576,1.584-1.224,2.448-1.872c1.944-2.088,3.96-4.176,5.976-6.264c2.52-1.944,2.52-1.944,11.016-9.864
		c2.088-1.584,4.248-3.168,6.408-4.752c0.648-0.288,1.296-0.576,1.944-0.864c1.8-1.44,3.6-2.88,5.472-4.32c0.72,0,1.44,0,2.16,0
		c0.504-0.504,0.504-0.504,0.864-2.016c1.368-0.576,2.736-1.224,4.176-1.872c8.928-2.88,8.928-2.88,9.648-3.312
		c2.016-0.432,4.104-0.936,6.192-1.44c0.432,0.072,0.936,0.144,1.44,0.216c1.8,1.368,3.672,2.736,5.544,4.104
		c0.36,0,0.792,0,1.224,0c0.144-0.288,0.288-0.576,0.432-0.864c-0.288-0.432-0.576-0.864-0.936-1.296
		c-2.88-1.944-2.88-1.944-3.24-2.52c0-0.216,0-0.432,0.072-0.72c2.736-0.648,5.472-1.368,8.208-2.088
		c6.696-0.936,6.696-0.936,13.68-2.376c16.776-4.824,16.776-4.824,17.496-5.256c3.528-0.648,7.056-1.296,10.584-1.944
		c1.656,0.216,3.312,0.432,5.04,0.72c1.656,0.936,1.656,0.936,10.08,3.816c2.376,0.648,4.752,1.296,7.2,1.944
		c12.456,4.824,28.584,10.584,30.24,11.52c3.096,0.936,3.096,0.936,3.384,1.296c-0.144,0.216-0.288,0.432-0.504,0.648
		c-1.224,0.576-2.52,1.224-3.816,1.872c-7.488,1.944-7.488,1.944-8.424,2.448c-2.592,0.288-5.256,0.576-7.92,0.936
		c-3.024,0.648-6.048,1.296-9.144,1.944c-0.504,0.216-1.08,0.432-1.656,0.72c-3.6,0.432-7.2,1.44-11.736,1.872
		c-1.224,0.504-6.048,1.44-9.36,2.448c-9.36,1.44-11.304,1.44-13.68,1.872c-2.448,0-2.88,0.288-6.048,0.288
		c-1.44,0.432-7.632,0.936-12.24,1.872c-4.392,0.432-8.784,0.936-13.176,1.44c-1.656,0.288-3.312,0.648-5.04,1.008
		c-1.584,0.576-3.168,1.224-4.824,1.872c-1.872,0.288-3.816,0.648-5.76,1.008c-0.432,0.288-0.936,0.576-1.44,0.936
		c-2.952,0.648-5.904,1.296-8.856,1.944c-9.36,1.584-18.72,3.168-28.08,4.752C127.08,136.512,122.04,136.944,117,137.448
		L117,137.448z M114.336,134.64c-2.232-2.232-4.536-4.464-6.84-6.768c-0.936-3.24-1.872-6.552-2.88-9.864c0-0.792,0-1.584,0-2.376
		c0.144-0.432,0.288-0.936,0.504-1.44c2.736-2.16,2.736-2.16,4.68-3.312c0.36,0,0.792,0,1.224,0c0.576,1.44,1.152,2.952,1.728,4.464
		c1.944,3.384,1.944,3.384,6.768,13.68c0.072,0.648,0.144,1.296,0.216,1.944c-1.44,1.224-2.88,2.448-4.392,3.672
		C115.056,134.64,114.696,134.64,114.336,134.64L114.336,134.64z M374.76,130.608c-0.288-0.144-0.288-0.144-0.288-1.584
		c1.728-0.504,3.528-1.008,5.328-1.584c1.224,0,2.52,0,3.816,0c0.36,0.432,0.36,0.432,0.36,1.368c-0.36,0.36-3.24,0.792-4.176,1.296
		C378.144,130.248,376.488,130.392,374.76,130.608L374.76,130.608z M121.536,128.304c-3.744-7.632-3.744-7.632-8.064-17.712
		c0-0.288,0-0.648,0-1.008c1.944-0.864,3.888-1.8,5.904-2.736c4.536-1.512,9.072-3.024,13.68-4.608c0.36,0,0.792,0,1.224,0
		c1.224,0.432,2.52,0.936,3.816,1.44c0,3.6,0.072,7.272,0.144,10.944c-0.504,0.288-1.008,0.576-1.584,0.864
		c-0.936,0.936-1.872,1.872-2.88,2.88c-0.72,0.432-1.44,0.936-2.16,1.44c-4.32,4.32-4.32,4.32-8.856,8.136
		C122.4,128.016,121.968,128.16,121.536,128.304L121.536,128.304z M140.256,112.608c0-2.088-0.072-4.176-0.144-6.336
		c0.144-0.504,0.288-1.0081,0.432-1.584c1.656,0.216,3.312,0.432,5.04,0.72c0.864,0.36,1.728,0.72,2.592,1.08
		c0,0.36,0.072,0.7921,0.144,1.224c-3.888,2.88-3.888,2.88-7.344,4.896C140.76,112.608,140.544,112.608,140.256,112.608
		L140.256,112.608z M112.464,107.424c0.072-0.288,0.144-0.576,0.216-0.936c1.08-0.6479,2.16-1.296,3.24-1.944
		c1.296-1.44,2.664-2.88,4.032-4.32c1.08-1.872,2.16-3.096,3.168-5.04c0.936-1.008,1.872-2.016,2.88-3.096
		c2.016-1.224,4.032-2.448,6.12-3.744c0.504-0.072,1.08-0.144,1.656-0.216c0.144,4.176,0.144,4.176-0.36,10.944
		c-0.072,0.144-0.216,0.36-0.36,0.576c-0.504,0.144-1.08,0.288-1.656,0.432c-0.432,0.288-0.936,0.648-1.44,1.008
		c-3.744,1.224-7.488,2.52-11.304,3.816c-1.152,0.648-2.376,1.296-3.6,1.944C114.192,106.992,113.328,107.208,112.464,107.424
		L112.464,107.424z M150.12,105.12c-1.44-0.936-1.44-0.936-4.536-2.16c-1.584-0.288-3.168-0.576-4.824-0.936
		c-0.072-0.432-0.216-0.864-0.36-1.296c0.288-2.736,0.576-5.472,0.864-8.208c0.792,0,1.584,0.072,2.376,0.144
		c9.864,5.76,9.864,5.76,11.592,7.128c0.072,0.504,0.144,1.08,0.288,1.656c-0.144,0.648-0.288,1.296-0.504,1.944
		c-1.224,0.576-2.448,1.152-3.672,1.728C150.984,105.12,150.552,105.12,150.12,105.12L150.12,105.12z M111.024,103.824
		c-1.368-3.312-2.808-6.696-4.248-10.08c-0.936-4.032-0.936-4.032-1.224-7.2c0.36-0.288,0.792-0.576,1.224-0.936
		c2.808-0.864,2.808-0.864,4.68-1.8c5.832-1.296,11.664-2.592,17.568-3.888c6.912-0.936,6.912-0.936,8.136-1.44
		c0.864,0,1.728,0,2.664-0.072c0,1.368-0.072,2.736-0.144,4.104c-1.44,0.864-2.952,1.8-4.464,2.736
		c-3.096,0.936-3.096,0.936-5.04,1.872c-1.152,1.008-4.536,2.88-7.632,5.328c-0.432,0.144-0.936,0.288-1.44,0.432
		c-1.008,1.008-1.368,1.872-4.248,5.472c-0.288,0.576-0.576,1.224-0.936,1.872c-1.296,1.224-2.592,2.448-3.96,3.744
		C111.672,103.968,111.384,103.896,111.024,103.824L111.024,103.824z M284.976,103.68c-18-6.192-18-6.192-36-12.96
		c-6.912-1.872-6.912-1.872-12.456-3.816c-1.44-0.648-2.88-1.296-4.32-1.944c-0.576-0.072-1.152-0.144-1.728-0.288
		c0-0.216,0-0.432-0.072-0.72c0.144-0.144,0.36-0.288,0.576-0.432c1.512-0.144,3.024-0.288,4.608-0.432
		c2.16-1.008,8.64-2.88,15.336-5.328c8.136-0.72,8.136-0.72,12.24-0.72c1.656,0.288,5.976,0.288,8.424,0.72
		c2.232,0.648,4.464,1.2961,6.696,1.944c2.664,1.944,2.664,1.944,4.824,4.104c0.936,1.296,1.872,2.592,2.88,3.96
		c0.432,1.008,0.864,2.016,1.296,3.096c0.144,2.304,0.288,4.608,0.432,6.984c-0.72,3.096-0.72,3.096-1.656,5.76
		C285.696,103.608,285.336,103.608,284.976,103.68L284.976,103.68z M158.04,102.168c0-0.936,0-1.872,0.072-2.88
		c1.584-0.864,4.968-1.8,6.912-2.808c0.432-0.144,0.936-0.288,1.44-0.432c0.216-0.432,0.504-0.864,0.792-1.296
		c0.36,0,0.72-0.072,1.08-0.144c2.664,1.872,2.664,1.872,3.888,3.24c-0.216,0.144-0.432,0.36-0.72,0.576
		C168.12,99.144,162.36,101.088,158.04,102.168L158.04,102.168z M137.664,100.8c-0.36-0.144-0.792-0.288-1.224-0.432
		c0-2.592-0.072-5.184-0.144-7.776c0.072-0.72,0.216-1.44,0.36-2.232c1.224-0.072,1.224-0.072,2.16,0.36
		c0.072,0.432,0.216,0.864,0.36,1.368c-0.216,5.976-0.216,5.976-0.72,8.424C137.88,100.944,137.88,100.944,137.664,100.8
		L137.664,100.8z M175.104,97.2c-2.16-1.656-4.392-3.384-6.624-5.112c0.216-2.376,0.216-2.376,0.72-4.104
		c0.576-0.36,0.576-0.36,5.4-1.296c0.792,0,1.584,0,2.376,0.072c0.648,2.304,1.296,4.608,2.016,6.984c0,2.448,0,2.448-0.288,2.736
		C177.552,96.696,176.328,96.912,175.104,97.2L175.104,97.2z M155.664,96.9839c-3.168-1.8719-6.408-3.816-9.648-5.76
		c-1.44-0.648-2.88-1.296-4.32-1.944c0-1.2961-0.072-2.592-0.144-3.888c2.088-0.864,6.408-1.872,8.064-2.592
		c0.792,0.072,1.584,0.144,2.448,0.288c1.44,0.72,1.44,0.72,3.816,1.152c0.288,0.288,0.576,0.648,0.936,1.008
		c0.36,0.144,0.792,0.288,1.224,0.432c4.32,3.6,5.256,4.824,7.2,6.264c0,0.576,0,1.152,0.072,1.8
		c-0.36,0.288-0.72,0.648-1.152,1.008c-1.8,0.648-3.6,1.296-5.4,2.0161C157.752,96.84,156.744,96.912,155.664,96.9839
		L155.664,96.9839z M182.016,95.5439c-0.36-0.36-0.576-3.24-1.584-8.28c0-0.4319,0.072-0.864,0.144-1.296
		c2.592-0.576,5.256-1.152,7.92-1.728c2.52-0.072,5.112-0.144,7.704-0.216c1.224,1.224,1.224,1.224,3.096,4.104
		c1.224,0.936,1.224,0.936,3.168,1.872c0.216,0.36,0.432,0.72,0.72,1.08c-0.288,0.216-0.648,0.432-1.008,0.648
		C193.824,93.5999,183.024,95.5439,182.016,95.5439L182.016,95.5439z M206.064,90.432c0-0.216-0.072-0.432-0.144-0.72
		c-0.936-0.648-1.872-1.296-2.88-1.944c-0.792-0.7921-1.584-1.584-2.448-2.376c-0.288-0.648-0.576-1.296-0.936-1.944
		c-1.944-2.16-1.944-2.16-3.744-3.6c-1.368-0.72-2.808-1.512-4.248-2.304c-2.952-0.792-5.904-1.656-8.928-2.52
		c-0.072-0.288-0.144-0.576-0.216-0.936c2.448-0.576,4.896-1.152,7.416-1.8c1.44-0.648,2.88-1.296,4.32-1.944
		c3.6-0.936,7.704-1.44,8.64-1.944c1.296-0.144,2.592-0.288,3.888-0.432c0.288-0.144,0.576-0.288,0.936-0.504
		c0.864-0.072,1.728-0.144,2.664-0.216c0.648,2.88,1.296,5.832,2.016,8.784c0.72,8.64,0.72,8.64,0.72,12.456
		C211.104,89.28,211.104,89.28,206.064,90.432L206.064,90.432z M165.456,89.568c-0.576-0.576-1.152-1.152-1.8-1.8
		c0-0.2881,0.072-0.576,0.144-0.864c0.864,0,1.728,0.072,2.592,0.144c0.144,1.44,0.144,1.44-0.216,2.52
		C165.96,89.568,165.744,89.568,165.456,89.568L165.456,89.568z M217.296,86.688c-0.576-2.808-1.152-5.616-1.8-8.496
		c-0.504-8.64-0.504-8.64-0.36-12.528c2.88-0.864,2.88-0.864,5.04-1.08c0.36,0.36,0.36,0.36,4.464,11.16c0,2.88,0,2.88-0.504,5.76
		c-0.288,0.72-0.576,1.44-0.936,2.16c-0.792,0.648-1.584,1.296-2.448,1.944c-0.72,0.36-1.44,0.72-2.232,1.08
		C218.16,86.688,217.728,86.688,217.296,86.688L217.296,86.688z M170.496,85.464c-5.04-0.504-5.04-0.504-6.912-0.936
		c-0.648-0.288-1.296-0.648-1.944-1.008c-0.864-0.144-1.728-0.288-2.664-0.432c-0.864-0.432-1.8-0.864-2.736-1.296
		c0-0.216,0-0.432,0.072-0.72c1.224-0.432,2.448-0.864,3.672-1.368c1.584-0.288,3.168-0.576,4.752-0.9359
		c2.664-1.0081,2.664-1.0081,8.208-2.4481c0.864-0.072,1.728-0.144,2.592-0.216c0.36,0.864,0.36,0.864,0.864,4.248
		c0,1.152,0,2.376,0,3.6C176.04,84.24,172.44,85.248,170.496,85.464L170.496,85.464z M180.144,83.52
		c-0.432-1.872-0.864-3.744-1.368-5.616c0-0.432,0.072-0.864,0.144-1.296c1.44,0.216,3.6,1.152,11.016,3.096
		c2.16,0.936,2.16,0.936,3.168,1.8c-0.072,0.072-0.144,0.216-0.288,0.36C187.776,82.368,186.84,82.8,180.144,83.52L180.144,83.52z
		 M225.936,83.232c0.0721-2.592,0.216-5.256,0.36-7.92c-1.224-3.312-2.5201-6.696-3.816-10.08c0-0.36,0-0.792,0-1.224
		c0.576-0.36,0.576-0.36,2.016-0.36c0.72,0.648,1.44,1.296,2.16,2.016c0.864,1.584,1.8,3.168,2.736,4.824
		c0.504,1.944,0.504,1.944,0.72,5.544c-0.288,1.296-0.576,2.664-0.936,4.032c-0.936,1.44-0.936,1.44-1.944,2.448
		C226.8,82.728,226.368,82.944,225.936,83.232L225.936,83.232z M441.936,83.088c-0.576-1.008-1.152-2.016-1.8-3.024
		c-0.216-0.144-0.432-0.288-0.72-0.432c-0.288-0.576-0.576-1.152-0.936-1.728c0-0.36,0-0.72,0-1.152
		c0.576-0.504,2.304-0.864,4.464-1.8719c2.16-0.36,4.32-0.72,6.48-1.152c1.152,1.44,2.376,2.88,3.6,4.32
		c0,0.432,0,0.864,0.072,1.296c-0.144,0.144-0.288,0.288-0.504,0.504c-2.088,0.576-4.176,1.152-6.336,1.8
		c-1.008,0.432-2.016,0.936-3.096,1.44C442.8,83.088,442.368,83.088,441.936,83.088L441.936,83.088z M103.824,82.8
		c-0.432-0.288-0.936-0.576-1.44-0.936c-1.368-1.656-2.736-3.312-4.104-5.04c-1.08-1.656-2.16-3.384-3.24-5.112
		c-0.288-1.08-0.648-2.232-1.008-3.384c0-1.008,0-2.016,0-3.096c1.008-1.944,1.944-4.608,2.88-6.048
		c0.792-0.72,1.656-1.44,2.52-2.16c3.384-1.8,3.384-1.8,8.208-3.744c2.88-0.72,2.88-0.72,4.536-0.72
		c3.888,2.376,7.848,4.752,11.808,7.2c6.12,4.464,12.24,8.928,18.432,13.4641c0.36,0.4319,0.792,0.864,1.224,1.296
		c-0.144,0.216-0.288,0.432-0.504,0.648c-0.72,0-1.44,0-2.16,0c-0.288,0.216-0.576,0.432-0.936,0.72
		c-5.328,0.936-10.656,1.872-16.056,2.88c-7.488,1.8719-7.488,1.8719-17.28,3.816C105.768,82.6559,104.832,82.728,103.824,82.8
		L103.824,82.8z M142.2,81.864c-0.288-0.072-0.288-0.072-0.36-3.672c0.144-0.216,0.36-0.432,0.576-0.648
		c1.584-0.072,3.168-0.144,4.824-0.216c0.72,0.432,0.72,0.432,1.08,1.08c0,0.648,0,1.296,0,1.944c-1.08,0.432-2.16,0.864-3.24,1.296
		C144.144,81.72,143.208,81.792,142.2,81.864L142.2,81.864z M231.696,80.28c-0.144-1.368-0.144-1.368,0.36-3.528
		c-0.216-4.824-0.216-4.824-0.72-6.768c-3.816-6.48-3.816-6.48-4.824-7.632c0-0.72,0-0.72,0.504-1.224
		c0.504,0,1.008-0.072,1.584-0.144c6.984,4.896,7.416,5.544,8.424,5.976c9.072,6.768,9.072,6.768,11.088,8.568
		c0,0.216,0,0.504-0.072,0.792c-6.984,1.944-9.864,2.4481-15.336,4.104C232.416,80.424,232.056,80.352,231.696,80.28L231.696,80.28z
		 M151.344,76.968c0.144-0.288,0.288-0.576,0.432-0.864c0.576,0.072,1.152,0.144,1.728,0.216
		C152.784,76.824,152.784,76.824,151.344,76.968L151.344,76.968z M146.736,74.664c-0.576-0.648-1.224-1.296-1.872-1.944
		c-5.184-3.816-10.368-7.632-15.624-11.52c-4.32-2.88-8.64-5.7599-12.96-8.64c-0.072-0.288-0.144-0.648-0.216-1.008
		c12.96-2.808,19.152-3.744,23.256-4.752c4.392-0.576,8.784-1.224,13.176-1.872c7.704-1.944,7.704-1.944,16.848-3.888
		c12.96-1.8719,12.96-1.8719,14.616-1.8c0.288,0.36,0.576,0.72,0.936,1.08c0.288-0.072,0.648-0.144,1.008-0.216
		c0.144-0.504,0.288-1.008,0.432-1.512c10.656-0.864,21.312-1.728,31.968-2.592c0.792,0.144,1.584,0.2881,2.376,0.504
		c1.224,0.648,2.52,1.296,3.816,1.944c2.448,2.16,2.448,2.16,3.384,3.312c0.432,1.224,0.864,2.448,1.296,3.744
		c0.144,1.368,0.288,2.736,0.504,4.104c-0.216,1.8-0.432,3.672-0.72,5.544c-1.944,3.312-1.944,3.312-2.88,4.32
		c-1.224,0.72-2.448,1.44-3.744,2.232c-3.312,0.648-6.696,1.2961-10.08,1.944c-1.152,0.576-1.152,0.576-1.656,1.152
		c-1.08,0.288-2.232,0.648-3.384,1.008c-11.736,1.872-13.392,2.376-20.88,3.312c-0.216,0.288-0.216,0.288-9.072,1.008
		c-1.008-0.504-1.008-0.504-1.944-0.504c-0.144,0.216-0.288,0.432-0.504,0.72c-1.44,0.504-5.976,0.936-19.656,3.384
		C150.336,74.16,147.96,74.664,146.736,74.664L146.736,74.664z"/>
</g>
</svg>
