<?xml version="1.0" encoding="utf-8"?>
<!-- Generator: Adobe Illustrator 21.1.0, SVG Export Plug-In . SVG Version: 6.00 Build 0)  -->
<svg version="1.1" id="MYAC" xmlns="http://www.w3.org/2000/svg" xmlns:xlink="http://www.w3.org/1999/xlink" x="0px" y="0px"
	 viewBox="0 0 428.7407 145.8226" enable-background="new 0 0 428.7407 145.8226" xml:space="preserve">
<g>
	<path fill-rule="evenodd" clip-rule="evenodd" d="M300.35,144.8169c-0.1077,0.1343-0.4306,0.2067-0.8966,0.2336
		c-0.3781,0.0218-0.8629,0.0215-1.4046,0.0053c-0.5431-0.0159-1.1398-0.0475-1.7427-0.087
		c-2.0438-0.1346-4.1953-0.4305-4.6953-0.519v0.0836h-7.9381c-0.0757,0.1157-0.2823,0.1777-0.5723,0.2015
		c-0.2067,0.017-0.4655,0.0181-0.7498,0.0082c-0.2781-0.0097-0.5853-0.0312-0.8951-0.0587
		c-0.9493-0.0845-1.9128-0.2693-2.2297-0.3722v0.053c-1.4953,0-3.2142-0.1007-5.0116-0.2055
		c-4.1281-0.2415-8.6746-0.5071-11.8792,0.3679v0.0003c-0.4592,0.1519-2.0316,0.2174-3.9229,0.2174v0.0002
		c-1.8646,0-4.0465-0.0629-5.777-0.1683c-1.5811-0.0964-2.7992-0.2427-3.0923-0.4292c-2.3303,0.3427-7.7428,0.1103-10.8692-0.2305
		c-0.7055-0.0768-1.2971-0.1599-1.7118-0.2432c-0.3503-0.0703-0.587-0.1545-0.6803-0.2515
		c-2.6422,0.3458-4.3642,0.1428-6.2697-0.0816c-1.317-0.1551-2.7232-0.3209-4.5862-0.3209h-0.1301l0.0241-0.1278
		c0.0121-0.0643-0.1248-0.1185-0.3637-0.163c-0.7911-0.1485-2.5248-0.0626-4.0901,0.0148c-1.506,0.0743-2.8613,0.1414-3.1626-0.0673
		c-0.4524-0.077-3.6272-0.2576-5.9817-0.2137c-1.3479,0.0255-2.4132,0.1125-2.484,0.311l-0.034,0.0955l-0.0973-0.0281
		c-0.3682-0.106-2.2459-0.1814-4.0201-0.1814c-0.8603,0-1.6951,0.0181-2.3198,0.0589c-0.5729,0.0375-0.9533,0.0786-0.9751,0.1183
		l-0.0134,0.0893h-0.0933c-0.4682,0-1.6098-0.0675-2.8253-0.1508c-1.6874-0.116-3.5198-0.3087-3.9765-0.3932v0.0765
		c-1.8224,0-3.1586,0.0532-4.5311,0.1074c-1.4545,0.0575-2.9521,0.1171-5.108,0.1171h-0.108v-0.108
		c0-0.0322-0.7248-0.0369-1.3252-0.0941c-0.3569-0.0339-0.6766-0.0634-0.8365-0.1204v0.0173c-1.7422,0-2.7995-0.0198-3.9113-0.0405
		c-1.2178-0.0224-2.5027-0.0466-4.9153-0.0466l-0.1074,0.0002l-0.0003-0.1082c0-0.0068-0.9536-0.0632-2.0055-0.1174
		c-0.3458-0.0178-0.7007-0.0306-1.0349-0.0345c-0.3342-0.004-0.6537,0-0.9286,0.0153c-0.4759,0.0266-0.8028,0.0703-0.8028,0.1367
		v0.1301l-0.1278-0.024c-1.9752-0.371-4.1349-0.2999-6.3504-0.2271c-0.9176,0.0303-1.8453,0.061-2.7646,0.061h-0.108v-0.108
		c0-0.1384-0.3597-0.1797-0.8665-0.1797v0.0002c-0.4176,0-0.9261,0.0358-1.4287,0.071c-0.4964,0.0345-0.9884,0.0692-1.3859,0.0692
		c-0.4966,0-0.8595-0.0615-0.9488-0.2529c-3.5864-0.3416-7.0132-0.2253-10.4301-0.1091c-1.7235,0.0584-3.4452,0.1171-5.1752,0.1171
		h-0.108v-0.108c0-0.0817-1.0879-0.1024-2.2467-0.1024c-0.8263,0-1.6679,0.019-2.2221,0.0312
		c-0.282,0.0063-0.4924,0.0111-0.5791,0.0111h-0.108v-0.1081c0-0.0867-1.0389-0.176-2.4219-0.2559
		c-2.7995-0.1619-6.961-0.1965-7.1651-0.1965h-0.108v-0.1079c0-0.0315-1.6974-0.2305-3.6986-0.4502
		c-2.5934-0.2849-5.6866-0.5626-6.393-0.5626h-0.07l-0.0287-0.0649c-0.2378-0.5425-4.6394-0.5032-5.4037-0.4966l-0.0865,0.0008
		c-0.2146,0.1064-0.7815,0.1441-1.4967,0.1441c-1.1736,0-2.7865-0.0684-3.7922-0.1109c-0.4507-0.0189-0.7792-0.0328-0.8912-0.0328
		h-0.108v-0.108c0-0.1409-0.2548-0.1769-0.5562-0.1769c-0.2032,0-0.4292,0.0193-0.625,0.036
		c-0.1545,0.0127-0.2911,0.0247-0.392,0.0247h-0.108v-0.108c0-0.0797-1.1914-0.0998-2.446-0.0998
		c-0.8773,0-1.7646,0.0179-2.3431,0.0295c-0.2914,0.0057-0.5088,0.0102-0.595,0.0102h-0.108v-0.108
		c0-0.0762-1.4006-0.0946-2.8267-0.0946c-0.9825,0-1.9525,0.0167-2.539,0.0266c-0.2664,0.0045-0.4569,0.0079-0.5227,0.0079
		l-0.1077,0.0002l-0.0003-0.1083c0-0.2594-1.7424-0.2871-2.7428-0.2871v-0.0004l-0.4394,0.0021l-0.1842,0.0009l-0.1083,0.0005
		v-0.1082c0-0.0721-1.6642-0.0893-3.3168-0.0893c-1.0604,0-2.086,0.0139-2.7167,0.0224l-0.5834,0.0068h-0.108v-0.108
		c0-0.0615-0.6137-0.1434-1.4247-0.2234c-1.5486-0.153-3.7792-0.2289-4.1275-0.2289l-0.1006,0.0002l-0.0071-0.1011l-0.0009-0.0102
		c-0.0221-0.0905-0.3268-0.1979-0.8864-0.2968c-0.6151-0.1086-1.5154-0.1826-2.668-0.1826c-1.3453,0-3.0331,0.1009-5.0097,0.3651
		l-0.0139,0.0012c-1.0168,0-2.0588-0.1976-3.0518-0.3855c-1.3926-0.2636-2.6898-0.5091-3.6499-0.1543
		c-1.0315,0.3813-1.6205,0.6963-2.065,0.9338c-0.6126,0.3273-0.9601,0.5134-1.781,0.5298
		c-0.7878,0.0158-2.5251-0.1075-4.5493-0.3615c-1.5823-0.1987-3.3432-0.4776-4.9663-0.8326
		c-1.8028-0.3939-3.7001-0.5671-5.3552-0.6105c-2.4103-0.0635-4.2979,0.1412-4.6364,0.3333
		c-0.9502,0.5398-3.6031,0.1233-4.9306-0.0847c-0.3198-0.0502-0.5613-0.0881-0.6803-0.0967l-0.1451-0.0103l0.0524-0.1362
		c0.5624-1.4545,1.7167-1.2484,2.9143-1.0342v-0.0002c0.5604,0.1001,1.1319,0.2021,1.6381,0.1233
		c0.9612-0.1502,6.5659-0.157,11.0914,0.0671c3.0163,0.1494,5.567,0.4077,5.9842,0.8034c0.3804,0.3609,1.2526,0.3901,2.2745,0.2512
		c1.499-0.2035,3.3041-0.7727,4.4059-1.1973c1.6506-0.6367,4.3982-0.6166,6.6365-0.6001c0.2772,0.0016,0.5386,0.004,0.8391,0.0045
		c-3.4824-12.8573-32.6532-45.4943-42.4208-56.4225l-0.4881-0.5461c-2.6388-1.4594-9.2829-2.4832-14.525-3.2908
		c-1.7767-0.2736-3.3939-0.523-4.6488-0.758c-1.5891-0.2973-2.5946-0.5908-2.6096-0.9188
		c-0.2438-0.6361,0.0822-1.0225,0.6608-1.2537c0.8858-0.3544,2.3905-0.3252,3.1989-0.3099l0.1976,0.004
		c-0.2367-0.8898-0.8215-3.2635-1.51-6.0577c-1.0431-4.2366-2.3264-9.4441-2.9934-11.9074L0,53.3747l0.1278-0.012
		c1.1747-0.1088,6.6935,0.3002,13.5085,0.8935c12.1003,1.0533,28.3388,2.6904,31.5215,3.024
		c2.2382-2.4055,5.8037-2.4035,7.3964-2.4023v-0.0003h0.0989l0.0085,0.0003c1.2297,0.1,2.9577,0.6335,4.6491,1.4246
		c1.5358,0.7186,3.0467,1.653,4.1298,2.6705c1.1064,0.1743,5.0922,0.7086,10.4482,1.4266
		c12.6247,1.6924,32.8677,4.4066,41.0732,5.8521c2.2326,0.1523,9.0309,0.6724,16.0291,1.2198
		c6.7377,0.5272,13.6602,1.0797,16.8823,1.355c1.8091-1.2546,7.0438-5.063,12.4815-9.0527
		c5.6316-4.1321,11.478-8.4569,13.9606-10.3431h-0.3538h-0.108v-0.108v-0.0605h-0.5086h-0.108v-0.1079v-0.0601h-1.1251h-0.108
		v-0.108v-0.116h-0.5644h-0.108v-0.108V48.702h-0.7325h-0.108v-0.108V48.534h-0.6208l-0.1077,0.0002l-0.0003-0.1083V48.31h-0.3402
		h-0.108v-0.1081v-0.0603h-0.3966h-0.108v-0.1081v-0.0601h-0.2282h-0.1077l-0.0003-0.108v-0.1159h-0.1721h-0.108v-0.108v-0.0604
		h-0.1724h-0.108v-0.108v-0.0601h-0.1162h-0.0839l-0.0207-0.0822c-0.0468-0.1883-0.0935-0.3359-0.1409-0.4782h-0.0907h-0.0763
		l-0.0255-0.072l-0.0437-0.1234h0.0003c-0.0266-0.0726-0.0488-0.1346-0.0621-0.197h-0.0728h-0.108v-0.108
		c0-0.4623,0.1406-0.7212,0.2676-0.9559l0.0006-0.0005c0.0938-0.1729,0.18-0.332,0.18-0.5567v-0.108h0.108h0.0601v-0.0601v-0.0782
		l0.0751-0.0244c3.6187-1.1713,10.3819-3.1873,20.5631-4.8345c10.1783-1.6467,23.7747-2.9254,41.0616-2.624h0.0045
		c20.8015,1.2365,39.1734,3.3763,58.9318,5.6772c3.8854,0.4524,7.825,0.9119,11.8468,1.3711v-0.0477v-0.0606l0.0527-0.0317
		c2.6876-1.6172,6.4508-4.2599,10.7122-7.2521c11.412-8.0132,26.3971-18.535,34.0432-18.7065
		c-0.1003-0.1613-0.2072-0.3223-0.3129-0.4815c-0.8132-1.2226-1.5919-2.3936,0.0927-4.3489l-0.4062,0.0043
		c-1.3558,0.02-2.4241,0.0357-2.9738-0.8414l-0.0051-0.0088c-0.2095-0.4189-0.2846-0.8387-0.275-1.1951
		c0.0125-0.4554,0.1681-0.818,0.364-0.9586l0.0003,0.0002c0.3997-0.2987,2.9276-0.9054,5.9828-1.5557
		c3.0538-0.6503,6.6342-1.3475,9.1352-1.8252l0.0017-0.0002c0.0629-0.0111,0.1672-0.0017,0.2979,0.0283
		c0.3812,0.0879,1.0559,0.3611,1.6696,0.8158c0.6191,0.459,1.1801,1.1053,1.3283,1.9387c0.057,0.3217,0.0527,0.671-0.034,1.0466
		l-0.0093,0.0251c-0.1369,0.265-0.6849,0.5106-1.3513,0.6942c-0.5097,0.1406-1.095,0.2504-1.6149,0.3064
		c0.5663,0.1494,0.9961,0.3107,1.2824,0.8008l0.0042,0.0085c0.2347,0.4989,0.1856,1.3975,0.028,2.3406
		c-0.1451,0.8674-0.3832,1.7782-0.5743,2.4446c0.1451-0.0023,0.3169-0.0074,0.4921-0.0123c0.2367-0.0065,0.4813-0.0133,0.671-0.0148
		c0.828-1.8762,2.0151-4.827,3.1853-7.853c1.2755-3.2989,2.5327-6.6929,3.2836-8.8866l0.0094-0.0201
		c0.1502-0.254,0.4538-0.4431,0.7452-0.4961c0.1284-0.0232,0.2574-0.0212,0.3717,0.0116c0.121,0.0349,0.2265,0.1046,0.301,0.2141
		c0.1086,0.1593,0.1482,0.4014,0.0689,0.7418l-0.0051,0.0161c-1.7824,4.3855-3.8769,10.3212-5.6381,15.3125l-0.4232,1.1993
		c0.8889,0.0944,1.7583,0.2179,2.5594,0.3639c0.8405,0.1528,1.6072,0.33,2.2467,0.5214l0.0624,0.049
		c0.1536,0.2634,0.2815,0.7754,0.2701,1.2578c-0.009,0.3793-0.104,0.7469-0.3384,0.9774
		c-3.6952,3.6337-11.2487,10.5281-18.0125,16.7014c-4.487,4.0948-8.6284,7.8752-11.048,10.1585
		c0.4819,0.021,1.0233,0.0932,1.595,0.1701c0.7393,0.0992,1.5312,0.206,2.3071,0.2148c0.0377-0.5484,0.3557-1.0802,0.7948-1.5139
		c0.5304-0.5241,1.2433-0.9099,1.8471-1.0086h0.0002c0.2418-0.0388,0.54-0.058,0.853-0.058c0.4921,0,1.0284,0.0473,1.4493,0.1395
		c0.417,0.0912,0.7305,0.2367,0.809,0.4374c0.6979,0.0428,1.3413,0.0978,1.972,0.1522c1.0667,0.0921,2.1019,0.182,3.2482,0.1993
		c0.0967-0.207,0.4479-0.4391,0.9015-0.6251c0.4912-0.2013,1.1118-0.3629,1.6469-0.3869c0.9819-0.0443,1.7639,0.1102,2.3417,0.3685
		c0.7089,0.3166,1.1177,0.7939,1.222,1.2596l0.0017,0.0097c0.0445,0.3356,0.0745,0.6347,0.0963,0.9307
		c0.0199,0.2636,0.0335,0.5346,0.0471,0.832c3.5563,0.2404,6.9361,0.5028,10.2878,0.7817
		c3.3032,0.2747,6.7062,0.5777,10.2427,0.8932l0.0987,0.009l-0.0003,0.0984c-0.011,2.414-0.0045,5.5156,0.002,8.6419
		c0.0071,3.4119,0.0136,6.8548-0.002,9.4683c4.741,0.3914,7.2184,0.5482,11.2325,0.8013l0.5474,0.0346l0.0314,0.0068
		c0.8056,0.3073,1.9958,1.2924,2.8239,2.4722c0.6474,0.9221,1.078,1.9677,0.9434,2.912l-0.0117,0.0811l-0.0813,0.0104
		c-0.9128,0.1191-1.8148,0.2419-2.7017,0.3624c-2.4823,0.337-4.8547,0.6593-7.5597,0.9178
		c-0.0817,5.9839,0.1448,12.0107,0.3685,17.9647c0.0331,0.8909,0.0669,1.7819,0.0989,2.6691
		c3.5702,0.8115,9.0638,2.1356,14.2957,3.4608c4.3404,1.0992,8.5031,2.2003,11.2413,3.0095l0.053,0.0159l0.0184,0.0522
		c4.0958,11.6835-1.8482,30.899-3.496,36.2268c-0.131,0.4235-0.2358,0.7599-0.3047,0.9949
		c1.6438-0.1786,2.9608-0.3081,4.3795-0.3294c1.4624-0.0215,3.0314,0.0723,5.1769,0.3461c0.8084,0.0045,4.3441,1.1551,5.25,1.4499
		v0.0003l0.2109,0.0677c1.4564,0.4,3.0631,0.2457,4.7016,0.089c0.3563-0.034,0.7163-0.0687,1.0292-0.0941h0.0156l0.2016,0.0135
		c1.2061,0.0786,3.99,0.2612,4.1022,1.7675l-0.0026,0.0323c-0.0448,0.1919-0.6871,0.0771-1.5522-0.0774
		c-0.942-0.1681-2.1702-0.3881-3.0858-0.3995c-0.6084,0.0505-1.067,0.0615-1.9375,0.0823
		c-0.6554,0.0153-1.5477,0.0371-2.9279,0.0856c-1.192,0.3446-2.3862-0.2027-3.5102-0.7178c-0.7792-0.3572-1.525-0.699-2.1903-0.699
		l-0.0128-0.0009c-0.4662-0.055-3.4435,0.1049-6.2764,0.3143c-2.3992,0.1774-4.691,0.3912-5.2608,0.5397l-0.0147,0.0028
		c-3.0399,0.3581-5.5786,0.6387-8.0399,0.8292c-2.4648,0.1907-4.8583,0.2925-7.6082,0.2925h-0.2373l0.1292-0.1483
		c-0.5329-0.2806-4.8753-0.1588-9.6982-0.0233c-5.7875,0.1627-12.2626,0.3447-13.8041-0.165
		c-0.5686-0.0003-1.5996-0.0153-2.8769-0.0335c-2.0869-0.03-4.841-0.0697-7.4256-0.0697c-3.8067,0-7.1697,0.0681-7.1697,0.3316
		v0.1217l-0.1208-0.0145l-0.1894-0.0223c-1.4437-0.1562-4.4558-0.1823-7.1153-0.1046c-2.5965,0.0757-4.8481,0.2274-4.9039,0.4213
		v0.2511l-0.1843-0.1842l-0.0014-0.0015l-0.0014-0.0016c-0.2024-0.2109-3.2488-0.1072-6.3533,0.1346
		c-3.1065,0.2421-6.2532,0.629-6.6577,0.9861l-0.0054,0.0051l-0.0743,0.0301l-0.5355-0.0071
		c-0.6358-0.0093-1.7204-0.0259-2.831-0.0259c-1.629,0-3.2505,0.0182-3.2505,0.0931v0.108h-0.108
		c-2.2833,0-4.5167-0.2667-6.6847-0.5255C304.2057,145.0565,302.2427,144.8226,300.35,144.8169L300.35,144.8169z M75.2896,143.8049
		c-0.5051,0-1.3394-0.1749-2.3185-0.3796c-1.6994-0.3557-3.8424-0.8044-5.3997-0.5742l-0.0156,0.0009
		c-0.1094,0-0.371,0.0212-0.7194,0.0488c-1.3895,0.1111-4.1575,0.3331-4.9207-0.2166h-0.0419v-0.0002
		c-0.8804-0.0005-4.3143-0.0038-4.8929,0.5315l-0.0513,0.0266c-0.1256,0.0258-0.2421,0.0536-0.3532,0.08l-0.0006,0.0005
		c-0.6188,0.1463-1.1304,0.2673-2.0596-0.085l-0.07-0.0264v-0.0745c0-0.1931-0.2724-0.2477-0.6185-0.2477
		c-0.292,0-0.6333,0.0416-0.9298,0.0776c-0.1882,0.0229-0.3592,0.0444-0.4932,0.0519c-0.0196,0.0598-0.0564,0.112-0.1054,0.1588
		c-0.0901,0.0856-0.2268,0.1483-0.3799,0.1882c-0.1463,0.038-0.311,0.057-0.4657,0.057v-0.0002
		c-0.265,0.0002-0.5131-0.0579-0.6202-0.1707l-0.0241-0.04c-0.1635-0.4907,0.0697-0.6636,0.5017-0.8073
		c0.0998-0.033,0.1984-0.0618,0.3033-0.0916l0.2135-0.0623c1.3995-0.5525,3.8112-0.6664,5.8283-0.7611
		c1.5143-0.0711,2.8046-0.1324,3.2377-0.3538l0.0363-0.0114c1.0293-0.1219,1.9426-0.1729,2.8525-0.1678
		c0.9082,0.0051,1.8142,0.0661,2.8309,0.1678l0.0196,0.0037c0.1599,0.0462,0.373,0.1136,0.6049,0.1873v-0.0002
		c0.6143,0.1945,1.3677,0.4337,1.6656,0.4438c0.6925-0.2684,1.4434-0.0244,2.156,0.2081c0.4904,0.1598,0.9632,0.3138,1.3623,0.2781
		l0.0085-0.0005l0.3081-0.0029c1.3133-0.0159,5.2625-0.0638,5.987,0.8158c0.254,0.1925,0.7041,0.3937,1.5024,0.5554
		c0.8186,0.1658,1.997,0.2879,3.6918,0.3132v-0.0003c0.0672,0,0.163-0.0128,0.288-0.0286c0.5545-0.0726,1.6571-0.2158,3.5385,0.2534
		c0.2667,0.0036,0.4173,0.0981,0.4847,0.2276c0.0377,0.072,0.0482,0.1536,0.0377,0.2336c-0.0099,0.0745-0.0388,0.1505-0.0799,0.2173
		c-0.1006,0.1648-0.2835,0.29-0.4666,0.265l-0.5811-0.011c-0.75-0.0153-2.0237-0.0419-2.7264-0.0419v0.0003
		c-0.1854,0-0.3195-0.0907-0.3727-0.1043l-0.0204,0.0005c-0.0034,0.0026-0.0054,0.0073-0.0054,0.0139v0.1111l-0.1108-0.0034
		c-1.2285-0.0352-3.0118-0.2409-4.6383-0.4777c-1.8734-0.2727-3.5461-0.6159-3.9776-0.8047V143.8049L75.2896,143.8049z
		 M63.9987,129.2626c0.3696,0.5479,0.7829,1.0363,1.1902,1.4749c5.8391,2.8602,69.4758,6.0605,143.9263,7.8063
		c65.531,1.5367,139.4328,1.9448,189.671,0.0014l0.0037-0.0003c0.0692,0,0.0989-0.0253,0.0989-0.0685h-0.0003
		c0-0.4842-1.3538-2.0182-1.9267-2.6674c-0.0972-0.11-0.1752-0.1973-0.2242-0.2617c-53.1403,1.3201-123.1075,1.6022-189.646,0.0091
		c-53.8005-1.2881-105.3598-3.8027-143.9717-7.9861C63.349,128.192,63.6551,128.753,63.9987,129.2626L63.9987,129.2626z
		 M39.5805,96.1823c8.9793,11.3309,18.6712,24.0656,22.0598,28.864c96.6163,9.7651,187.9356,9.2266,279.6761,8.6854
		c21.0512-0.1239,42.1251-0.2486,63.2174-0.2489c1.0834-3.3497,1.9216-8.2244,2.3638-13.0657
		c0.4391-4.805,0.4895-9.5757,0.0054-12.7891c-7.585-0.0014-15.4545-0.1678-23.2722-0.3331
		c-7.7071-0.1627-15.3655-0.3248-22.6672-0.3263c-0.1469,1.6765-0.1857,3.0504-0.2265,4.514
		c-0.0306,1.0978-0.0632,2.2468-0.1432,3.6057l-0.0062,0.1015h-0.1015c-8.2639,0-16.679-0.212-25.1294-0.4244
		c-8.5167-0.214-17.0703-0.4294-25.5527-0.4294h-0.1116l0.004-0.1114c0.028-0.8436,0.0615-1.6762,0.0941-2.501
		c0.0802-2.0123,0.1585-3.9835,0.1554-5.8649c-43.0268-2.4514-93.043-5.4513-143.0907-9.9088
		c-49.9521-4.4489-99.9209-10.3498-142.975-18.604C26.9796,80.5453,33.0942,87.9972,39.5805,96.1823L39.5805,96.1823z
		 M311.3303,105.8666c-0.0519,2.2805-0.0527,4.809-0.0527,7.1575c7.1893,0.2526,15.3726,0.5071,23.7124,0.6985
		c8.3461,0.191,16.8529,0.3199,24.6822,0.3212c0.0431-1.1231,0.0876-2.2978,0.129-3.4722c0.0434-1.2234,0.0851-2.4451,0.1233-3.611
		c-8.1955-0.1616-16.5685-0.3615-24.9083-0.5596C327.0269,106.2108,319.0663,106.0211,311.3303,105.8666L311.3303,105.8666z
		 M323.839,110.6325v-0.2243v-0.1079h0.108h0.9527h0.108v0.1079v0.2243v0.108h-0.108h-0.9527v-0.108H323.839L323.839,110.6325z
		 M345.752,108.7763c-0.2234-0.0059-0.3926-0.1777-0.4734-0.392c-0.0309-0.0826-0.0499-0.1735-0.0527-0.2625
		c-0.0028-0.0907,0.0099-0.182,0.0405-0.2639h0.0003c0.0689-0.1837,0.2234-0.3243,0.4831-0.337h0.0062
		c1.4428,0.0201,2.8709,0.0457,4.2857,0.0703c2.3247,0.0408,4.6159,0.0814,6.8658,0.0978c0.2874,0.0012,0.5145,0.2007,0.6236,0.4294
		c0.0372,0.078,0.0618,0.161,0.0703,0.2415c0.0091,0.0837,0.0012,0.1659-0.0261,0.2385v0.0005
		c-0.0539,0.1432-0.1766,0.2463-0.3821,0.2583l-0.0059,0.0002c-1.5228,0-3.4546-0.0196-5.4343-0.0391
		c-2.0542-0.0204-4.163-0.0416-5.9981-0.0416L345.752,108.7763L345.752,108.7763z M330.0356,108.3647
		c-0.2234-0.0059-0.3926-0.1777-0.4734-0.392c-0.0309-0.0825-0.0499-0.1735-0.0527-0.2625
		c-0.0028-0.0907,0.0099-0.1821,0.0405-0.264h0.0003c0.0689-0.1837,0.2234-0.3242,0.483-0.337h0.0062
		c1.4428,0.0201,2.871,0.0457,4.2857,0.0703c2.3247,0.0409,4.6159,0.0814,6.8658,0.0978c0.2874,0.0012,0.5145,0.2007,0.6236,0.4294
		c0.0371,0.078,0.0618,0.161,0.0703,0.2416c0.0091,0.0836,0.0012,0.1658-0.0261,0.2384v0.0005
		c-0.0539,0.1432-0.1766,0.2463-0.3821,0.2583l-0.006,0.0003c-1.5228,0-3.4546-0.0197-5.4343-0.0391
		c-2.0543-0.0205-4.163-0.0417-5.9981-0.0417L330.0356,108.3647L330.0356,108.3647z M313.971,108.1108
		c-0.2234-0.0059-0.3926-0.1777-0.4734-0.3921c-0.0309-0.0825-0.0499-0.1734-0.0527-0.2624
		c-0.0029-0.0908,0.0099-0.182,0.0405-0.2639h0.0003c0.0689-0.1837,0.2234-0.3243,0.483-0.337h0.0063
		c1.4428,0.0201,2.8709,0.0455,4.2857,0.0703c2.3247,0.0408,4.616,0.0814,6.8658,0.0978c0.2875,0.0011,0.5145,0.2007,0.6237,0.4294
		c0.0371,0.0779,0.0618,0.161,0.0703,0.2415c0.009,0.0836,0.0011,0.1658-0.0261,0.2384v0.0005
		c-0.0538,0.1431-0.1766,0.2463-0.3821,0.2582l-0.006,0.0002c-1.5228,0-3.4545-0.0195-5.4343-0.039
		c-2.0543-0.0204-4.163-0.0417-5.9981-0.0417L313.971,108.1108L313.971,108.1108z M36.3512,76.5618
		c-2.7286,0.0459-5.8294,0.0578-9.3906,0.0088c21.0779,4.8701,69.7901,11.4732,127.3714,17.0197
		c49.6171,4.7792,105.8207,8.7744,156.6037,10.1994c26.9172,0.7551,46.5865,1.248,61.6289,1.5876
		c14.9805,0.3387,25.3763,0.5261,33.7728,0.6713c0.0023-0.3983,0.0159-0.6489,0.0255-0.8308
		c0.0235-0.4425,0.0244-0.4677-0.2358-1.4486c-0.597-0.1553-7.6711-1.8719-14.5074-3.5166
		c-4.8753-1.173-9.6398-2.3119-11.8482-2.821c-1.2441,0-2.5775-0.006-3.9975-0.0123c-1.5346-0.0065-3.1705-0.0133-5.0184-0.0139
		c0.254,0.5258,0.5887,0.9507,0.8569,1.2917v0.0003l0.1054,0.1351c1.677-0.0008,2.8647-0.0349,4.0031-0.0677
		c1.0695-0.0306,2.0979-0.0604,3.4197-0.0604l0.0258,0.0034c2.1909,0.5462,6.9857,1.7674,11.6286,2.9941
		c3.0818,0.8145,6.1053,1.6343,8.2701,2.2644l-0.0301,0.2114c-3.8874,0-7.4262-0.011-11.2714-0.0649
		c-3.8313-0.0536-7.9481-0.1508-12.9901-0.3223l-0.0261-0.004c-0.9091-0.2605-3.2967-3.3312-5.976-7.1741h-0.0005
		c-4.4079-6.3232-9.6347-14.7594-10.3189-16.1453c-0.093-0.033-0.1043-0.1338-0.1117-0.2231h-0.0198l-0.0102-0.0967
		c-0.1327-1.2411-0.0737-2.0154,0.1831-2.596c0.2599-0.5867,0.7144-0.9655,1.3714-1.4179l0.0558-0.019
		c3.3108-0.1749,6.076-0.3118,8.7945-0.4045c2.7184-0.0927,5.3827-0.1417,8.4872-0.1417c2.268-0.2384,5.5803-0.6262,8.3206-0.9842
		c2.0942-0.2735,3.8514-0.5281,4.5476-0.6854c-0.0782-0.6579-0.4153-1.3717-0.8977-1.9797
		c-0.4941-0.6226-1.1381-1.1331-1.8074-1.3618c-10.33-0.6808-20.9262-1.1174-31.6267-1.5571
		c-2.3372-0.0958-4.68-0.1927-7.0254-0.2916l-0.0686-0.0029l-0.0264-0.0633c-0.4028-0.9563-2.5569-3.6456-4.7611-5.699
		c-1.527-1.4224-3.071-2.5347-4.0504-2.5347l-0.0122-0.0009c-2.3185-0.265-5.0034-0.4825-7.503-0.6491
		c-4.0487-0.2702-7.6096-0.4088-8.3446-0.4088l-0.0244-0.0029c-0.6265-0.1461-0.9811-0.4527-1.1608-0.8946
		c-0.1741-0.4278-0.1774-0.9785-0.1066-1.6317l0.0304-0.064c4.6006-4.6776,30.3157-27.7963,38.2331-34.9144l1.0627-0.9556
		c0.2548-0.2646,0.4124-0.5045,0.4901-0.7159c0.0595-0.1627,0.0711-0.3087,0.0433-0.4358
		c-0.0272-0.1244-0.0935-0.2338-0.1893-0.3262c-0.1041-0.1003-0.2444-0.1818-0.4085-0.2433
		c-0.9343-0.085-1.7512-0.174-2.5421-0.2601c-1.6169-0.176-3.13-0.341-5.2084-0.4261l-0.1508-0.0059l0.0547-0.1406
		c0.2945-0.7566,0.7183-2.0979,0.9641-3.2624c0.1701-0.8053,0.2554-1.5205,0.1533-1.8842c-0.7707-0.5485-0.8767-0.545-1.7226-0.5148
		c-0.2614,0.0094-0.5919,0.0216-1.032,0.0216l-0.0493-0.0119l-0.0584-0.0301c-0.0391-0.0198-0.0839-0.0428-0.1261-0.0666
		c-0.2951-0.1681-0.6486-0.4771-0.252-1.1733l0.0442-0.0425c0.3282-0.1701,0.9601-0.2653,1.6812-0.3734
		c1.1239-0.1686,2.4712-0.371,3.126-0.9218c-0.019-0.5026-0.3305-1.0378-0.7671-1.4556c-0.4564-0.4365-1.0468-0.7424-1.5783-0.7458
		c-2.3601,0.4541-5.3971,1.1202-8.4464,1.7889c-1.94,0.4254-3.886,0.8527-5.6931,1.2319c-0.0963,0.0522-0.2029,0.1687-0.2659,0.3158
		c-0.0312,0.0731-0.051,0.1533-0.0522,0.2347c-0.0011,0.0805,0.0159,0.1658,0.057,0.2491c0.0791,0.1596,0.248,0.3192,0.5525,0.4529
		c0.7183-0.0002,1.3502-0.0082,1.9366-0.0152c0.5338-0.0065,1.0335-0.0131,1.4681-0.0131l0.0714,0.0275
		c0.0184,0.0161,0.0369,0.0345,0.0539,0.0544c0.1216,0.1409,0.2318,0.3935,0.2443,0.6815c0.0125,0.2869-0.0683,0.6125-0.324,0.9028
		l-0.0002-0.0002c-0.0443,0.0504-0.0938,0.0992-0.1479,0.1462l-0.0204,0.0139c-1.2144,0.6398-1.192,1.4227-0.7778,2.2093
		c0.2281,0.4334,0.5749,0.8748,0.9054,1.2954c0.3881,0.4941,0.7554,0.9621,0.9029,1.3791l0.0629,0.1786l-0.1854-0.0366
		c-7.535-1.476-27.3251,12.771-38.5013,20.8171c-2.9327,2.111-5.2738,3.7967-6.6507,4.6627
		c0.3016,0.0446,1.5313,0.1659,3.0294,0.3062c2.7766,0.26,6.448,0.5248,7.0585,0.5364c0.5142-0.4105,1.4724-1.2288,2.7505-2.3196
		c6.7122-5.7286,22.2517-18.9924,28.703-20.4401l0.0034-0.0009c2.6997-0.5165,4.3313-0.8155,5.633-0.9542
		c1.3034-0.1388,2.2715-0.1164,3.64,0.01l0.2112,0.0195l-0.1403,0.1591c-0.9244,1.0474-1.9434,2.1951-2.9628,3.2766
		c-1.0225,1.0848-2.0486,2.1061-2.9849,2.8987l-0.0697,0.0258c-0.6338,0-1.273,0.0147-1.8739,0.0369
		c-0.7637,0.0284-1.4774,0.0695-2.0455,0.1082h-0.0147c-2.9579-0.21-14.6574,9.7465-21.4311,15.5112
		c-2.4428,2.079-4.2482,3.6154-4.7851,3.9422l-0.068,0.0153c-7.5144-0.8351-15.0772-1.743-22.6962-2.657
		c-20.9665-2.5154-42.3672-5.0833-64.0505-6.309h-0.0026c-9.8824-0.7872-21.0121-0.2155-30.9943,0.9504
		c-12.6709,1.4799-23.4887,3.916-27.5638,5.7452c6.4973,0.2628,13.2775,0.5358,18.7512,0.7435
		c5.6015,0.2129,9.8524,0.3589,11.0659,0.3589h0.1139l-0.0062,0.1133c-0.1375,2.6164-0.2874,5.842-0.4428,9.1879
		c-0.2302,4.9584-0.4734,10.1835-0.705,14.0562l-0.0062,0.1071l-0.1069-0.0057c-5.4521-0.2791-12.2998-0.9453-19.2759-1.6236
		c-5.4907-0.5341-11.0628-1.0761-16.1178-1.4443l-0.2492-0.0181l0.184-0.169c2.1764-1.9952,7.6881-7.2042,12.4404-11.6957
		c3.653-3.4524,6.8593-6.4814,7.7579-7.3029c-0.2424-0.1105-2.1861-0.1304-3.6734-0.1304c-0.61,0-1.1078,0.0048-1.4202,0.0076
		l-0.2775,0.0022c-1.3649,1.075-5.0896,3.8779-9.5006,7.176c-7.0177,5.2469-15.8805,11.8265-19.6285,14.6038
		c8.8999,0.8779,25.5453,2.581,43.2201,4.3895c23.2141,2.3754,48.2031,4.9325,59.7109,6.0358l0.0624,0.0062l0.0258,0.0576
		c0.966,2.1758,2.3896,5.2526,3.8211,8.3466c1.4899,3.221,2.9888,6.4627,3.996,8.738c0.3997,0.0023,0.83,0.0237,1.258,0.0453h0.0003
		c0.3869,0.0197,0.7741,0.0395,1.1432,0.0446c-2.0095-4.0975-4.405-8.7706-6.8456-13.4359
		c-2.4647-4.7112-4.9884-9.4391-7.2091-13.5635l-0.0017-0.0037c-0.1882-0.3835-0.1344-0.7693,0.0706-1.0432
		c0.0952-0.1273,0.2239-0.2307,0.3756-0.2974c0.1505-0.066,0.3246-0.0972,0.5108-0.0813c0.4992,0.0428,1.1007,0.4232,1.6135,1.3645
		c2.3531,3.5811,6.1331,9.4527,9.5953,14.8817c3.418,5.3597,6.529,10.2911,7.6595,12.1708
		c1.5063,0.0023,2.8562,0.0848,4.1522,0.1641c1.1406,0.0698,2.2408,0.1378,3.3732,0.1454c-0.991-1.4709-3.6323-6.1196-6.408-11.0035
		c-3.0784-5.417-6.3224-11.1246-7.6535-13.0938l-0.1197-0.1767l0.2135,0.0085c8.9696,0.3638,30.1997,1.2575,49.4739,2.0765
		c18.5902,0.7897,35.3608,1.5111,37.5596,1.6223l0.0565,0.0031l0.03,0.0477c1.595,2.558,3.7573,5.8456,6.0605,9.3467
		c3.2422,4.9295,6.764,10.2841,9.3521,14.5848l0.0975,0.1622l-0.1896,0.0009c-16.6884,0.0779-31.4699,0.0516-45.6004-0.1951
		c-14.1338-0.2466-27.6157-0.7137-41.701-1.516c-40.4986-2.3077-91.6126-6.084-137.6722-10.6172
		c-37.4312-3.6839-71.5221-7.868-93.8596-12.1696C41.8615,76.4205,39.329,76.5119,36.3512,76.5618L36.3512,76.5618z
		 M373.5825,101.1126c0.3801,0.4448,0.8093,0.9471,1.4051,1.6705c1.8456,0.0023,5.1557,0.1263,8.57,0.2545
		c3.8262,0.1434,7.7842,0.2932,9.955,0.2804c-4.8926-1.0634-8.7704-2.0282-13.2534-3.1428l-1.2166-0.3022
		c-1.8749-0.0918-4.5204-0.043-5.9074-0.0176l-0.6004,0.0108C372.899,100.3135,373.2194,100.6877,373.5825,101.1126
		L373.5825,101.1126z M222.531,88.719c-0.0986,1.7731-0.2141,3.5903-0.3526,5.5618c6.3604,0.4714,12.149,0.9,17.8027,1.3163
		c5.6293,0.4142,11.1265,0.8184,16.9245,1.2407c-0.5672-1.3702-1.4085-3.3153-2.2768-5.2905v-0.0002
		c-1.1733-2.67-2.3925-5.3864-3.0464-6.8128l-1.2662-0.0439c-10.2325-0.3529-17.485-0.6038-27.5332-1.2357
		C222.711,85.24,222.6291,86.9581,222.531,88.719L222.531,88.719z M365.9732,90.4257c1.5312,2.4333,2.9534,4.6222,3.7763,5.7197
		c1.3501,0.0008,2.6628,0.0366,3.9744,0.072h0.0003c1.2844,0.0352,2.5688,0.0703,3.9146,0.0722
		c-0.0045-3.3406-0.2151-6.6392-0.424-9.9141c-0.2067-3.2324-0.4119-6.4435-0.4164-9.6523
		c-5.1183,0.0036-9.2495,0.2667-13.7954,0.5562c-0.8717,0.0555-1.7614,0.1125-2.6912,0.1693
		c-0.326,0.3529-0.5834,0.6771-0.6953,1.0973c-0.1157,0.4334-0.0817,0.9794,0.1831,1.7781
		C360.8152,82.0448,363.5348,86.5499,365.9732,90.4257L365.9732,90.4257z M199.495,87.5319
		c-0.1052,1.7231-0.2398,3.4248-0.424,5.2166c3.0855,0.2803,6.4409,0.5568,10.0613,0.7869
		c3.6255,0.2307,7.505,0.4152,11.6235,0.5108c0.0553-0.9332,0.1327-1.9075,0.2129-2.9115c0.2035-2.5361,0.4226-5.2671,0.3186-7.8599
		c-2.5183-0.142-5.15-0.2557-7.8542-0.3716c-4.4368-0.1899-9.0712-0.389-13.6831-0.7359
		C199.6784,84.0582,199.6007,85.8101,199.495,87.5319L199.495,87.5319z M165.6125,84.9024
		c-0.1916,1.6324-0.4292,3.2964-0.7036,4.9714c1.605,0.1466,3.1901,0.2928,4.7594,0.4374
		c9.5193,0.8784,18.4691,1.7047,27.9221,2.2742c0.2347-1.9471,0.4128-3.736,0.546-5.4776c0.1329-1.7385,0.2219-3.4272,0.278-5.1766
		c-5.5908-0.1888-10.9162-0.3975-16.2263-0.652c-5.3167-0.2548-10.62-0.5568-16.1606-0.9329
		C165.9351,81.8314,165.7936,83.3547,165.6125,84.9024L165.6125,84.9024z M132.4372,82.7719
		c-0.1763,1.277-0.2854,2.6161-0.29,4.1666c3.1071,0.2939,6.137,0.5927,9.0967,0.8843c7.9021,0.7791,15.3116,1.5095,22.2231,1.9602
		c0.2693-1.5199,0.472-3.0762,0.6358-4.6386c0.1627-1.5525,0.288-3.1215,0.4023-4.6723c-4.0059-0.2112-7.5226-0.4402-10.8136-0.6542
		c-7.0518-0.4587-13.0723-0.8502-20.5614-0.8533c-0.2724,1.3087-0.5165,2.5273-0.6928,3.8069V82.7719L132.4372,82.7719z
		 M111.5807,82.4272c-0.078,0.6219-0.1616,1.2906-0.2991,2.1025c2.6864,0.3651,5.9581,0.678,9.328,1.0001
		c3.4469,0.3297,6.9973,0.6703,10.1194,1.084c0.2506-2.3403,0.4912-4.5502,0.7407-6.7383c0.248-2.173,0.5074-4.3435,0.7977-6.6299
		c-3.0288,1.0797-6.4517,2.3272-9.7107,3.528c-4.265,1.5721-8.2638,3.07-10.7433,4.0117
		C111.7179,81.3412,111.651,81.8662,111.5807,82.4272L111.5807,82.4272z M94.9354,81.0711
		c-13.648-1.7552-25.8131-3.3199-36.1137-4.015l-0.0065,0.0003H58.809l-0.1531-0.0034h-0.0006
		c-0.5667-0.0145-2.4628-0.0638-3.7293,0.1446c7.3375,1.0554,16.2519,2.2694,24.7972,3.4072
		c13.5266,1.8006,26.1621,3.4144,30.1555,3.9033c0.0547-0.9255,0.1978-2.2039,0.3053-3.1617l0.0323-0.2892
		c-1.8774,0.0063-3.5663,0.0031-5.1772,0.0012c-3.2468-0.0045-6.1823-0.0088-9.7271,0.0601l-0.0153-0.0008L94.9354,81.0711
		L94.9354,81.0711z M223.0892,78.4094c-0.0559,1.2268-0.1165,2.5585-0.1205,3.5405c4.4708,0.2775,9.1457,0.5278,13.8104,0.7441
		c4.8172,0.2233,9.6256,0.4113,14.1899,0.5555c-0.1253-0.3739-0.3027-0.7801-0.4694-1.1591
		c-0.2199-0.5009-0.4215-0.9567-0.4612-1.2524c-4.4844-0.4719-8.9339-0.9326-13.3983-1.368
		c-4.4507-0.4343-8.9427-0.8458-13.5433-1.2245L223.0892,78.4094L223.0892,78.4094z M200.2102,77.2863
		c-0.1899,1.0877-0.3869,2.2207-0.3988,3.3168c3.3222,0.1417,6.8431,0.3254,10.4887,0.5318
		c3.6541,0.2069,7.433,0.4376,11.2632,0.6724c0.0026-1.1406,0.0392-2.0245,0.0825-3.0577l0.0252-0.6089l-2.7575-0.2468
		c-6.3808-0.5721-12.4764-1.1191-18.559-1.4507c-0.0468,0.2865-0.0958,0.5641-0.1443,0.843V77.2863L200.2102,77.2863z
		 M166.432,76.3217c-0.0666,1.0403-0.1292,2.0211-0.2183,2.9194c3.6763,0.1431,7.6153,0.3297,11.677,0.5221
		c6.7388,0.3195,13.8183,0.6554,20.55,0.8328c0.1743-0.7625,0.3031-1.5134,0.3901-2.2125c0.0955-0.7639,0.1426-1.468,0.1471-2.064
		c-2.9392-0.3092-5.7572-0.6127-8.5567-0.9135c-7.5129-0.8079-14.8966-1.6024-23.7421-2.4254
		C166.5729,74.1285,166.5,75.2564,166.432,76.3217L166.432,76.3217z M96.8788,70.7881c-0.4181,3.3764-0.8915,7.0983-1.1472,9.0814
		h14.4377c0.381-2.2377,0.7917-5.9236,1.1455-9.097c0.1426-1.2809,0.2767-2.4786,0.3937-3.4532
		c-0.898-0.1544-1.8031-0.3137-2.7349-0.4761c-3.668-0.6404-7.719-1.3482-11.3947-1.874
		C97.4214,66.3712,97.1606,68.5139,96.8788,70.7881L96.8788,70.7881z M78.2453,71.799c2.9829,2.6884,6.6152,6.0265,7.4421,6.8057
		c0.8671,0.1075,1.8337,0.2606,2.829,0.4182c2.0418,0.3232,4.2066,0.6667,5.9579,0.6789c0.3266-2.4576,0.6253-4.9539,0.9008-7.4543
		c0.2758-2.506,0.5281-5.0076,0.758-7.4755c-2.5634-0.33-5.3561-0.7263-8.2463-1.1362c-4.407-0.6247-9.0442-1.2818-13.3912-1.7818
		c-0.0536,1.1336-0.0944,2.1549-0.1281,3.1796c-0.0343,1.0494-0.0618,2.1036-0.0893,3.2831
		C74.8321,68.7464,76.4181,70.1518,78.2453,71.799L78.2453,71.799z M133.6014,74.0596c-0.1698,1.1477-0.3546,2.3967-0.3674,3.4009
		c2.778,0.0266,21.1544,0.9981,28.4873,1.3859l2.808,0.1479c0.1015-0.6613,0.218-1.5882,0.3294-2.5574
		c0.1533-1.3279,0.2973-2.7215,0.3829-3.6286c-1.1931-0.1049-2.3556-0.2067-3.4886-0.3047
		c-5.9508-0.515-11.1367-0.9638-16.173-1.7053c-0.1723,0.2999-0.9269,0.7115-1.806,1.0806
		c-1.1559,0.4856-2.5415,0.9196-3.0549,0.9196v-0.0009c-0.2401,0.1012-0.8586,0.1369-1.6424,0.1369
		c-1.2155,0-2.8698-0.0561-4.0448-0.0958c-0.5576-0.0188-1.0063-0.0338-1.2512-0.0374
		C133.7304,73.1959,133.6663,73.6208,133.6014,74.0596L133.6014,74.0596z M112.6466,73.4553
		c-0.2931,1.931-0.5789,3.9189-0.7662,5.4104c2.4489-0.8163,4.9816-1.7038,7.2595-2.5522c2.0616-0.7682,3.9146-1.5043,5.3025-2.1282
		c-0.0014-0.7748-0.0238-1.6364-0.0587-2.5005c-0.0403-0.9995-0.0981-2.0098-0.1596-2.8989
		c-1.4715-0.1248-2.8392-0.2898-4.1976-0.4536c-2.0523-0.2475-4.087-0.4924-6.4553-0.5947
		C113.3566,68.9315,112.9966,71.1481,112.6466,73.4553L112.6466,73.4553z M73.9072,73.0993
		c-0.0975,1.4553-0.2044,2.8998-0.2891,3.9813c1.6852,0.1893,3.3472,0.3914,5.0128,0.6035
		c1.5877,0.2018,3.1731,0.4127,4.7852,0.6281c-0.9525-0.8561-1.9089-1.7322-2.8707-2.6136
		c-2.0869-1.9119-4.2066-3.8534-6.4474-5.7356C74.0489,70.9132,73.9803,72.0087,73.9072,73.0993L73.9072,73.0993z M55.8629,72.1225
		c1.1954,1.0355,2.082,2.3975,2.2635,3.9943c0.5318,0.0128,2.1549,0.1122,4.138,0.2338c3.6113,0.222,8.4161,0.5176,9.9536,0.4938
		l0.002-0.0247c0.1038-1.3238,0.5355-6.813,0.5516-7.8274c-1.1109-0.7987-2.4729-1.8107-3.8908-2.8635
		c-2.8687-2.1305-5.9692-4.4333-7.6929-5.4933c-1.2861-0.1462-6.1804-0.6738-9.9771-1.0504
		c-2.2178-0.2203-4.0666-0.3892-4.6103-0.402c-0.2415,0.4033-0.5255,1.065-0.7954,1.8357c-0.2772,0.7923-0.5403,1.6999-0.7285,2.561
		l-0.0003,0.0009c-0.2095,0.923-0.2846,2.3133-0.2846,3.6814c0,1.7804,0.1275,3.5181,0.2512,4.1416
		c0.7438-0.4351,1.654-0.7945,2.6427-1.0464c1.021-0.2599,2.1285-0.4071,3.2258-0.4071l0.0102,0.0009
		C52.5629,70.1115,54.4357,70.8859,55.8629,72.1225L55.8629,72.1225z M253.2864,69.1151c-0.3028-0.0482-0.4919-0.2095-0.5836-0.4133
		c-0.0525-0.1166-0.0729-0.2466-0.0638-0.3756c0.0085-0.1267,0.0456-0.2551,0.1069-0.3699c0.1259-0.2375,0.3575-0.4244,0.661-0.4485
		h0.013c17.934,0.8292,35.1198,1.7244,52.2411,2.6158c22.3123,1.1619,44.517,2.3182,68.0947,3.3148
		c0.7109-0.0142,1.1537,0.2063,1.3521,0.4637c0.074,0.0961,0.1162,0.1987,0.1276,0.2985v0.0003
		c0.0116,0.1038-0.0102,0.2054-0.0638,0.2939c-0.102,0.1684-0.3195,0.2858-0.6372,0.2798h-0.0012
		c-20.9928-0.5873-40.2343-1.3414-59.7594-2.2786c-19.5316-0.9374-39.3454-2.0584-61.4767-3.3796L253.2864,69.1151L253.2864,69.1151
		z M36.218,67.8404c-0.1023,2.6351-0.1695,5.1584-0.1587,6.9854h7.3996c-0.0394-1.1571-0.1001-2.247-0.1573-3.2853
		c-0.2537-4.5856-0.4521-8.1922,1.4071-13.0978c-0.6905-0.0637-1.3453-0.1332-1.991-0.2015
		c-1.9151-0.2024-3.765-0.3978-5.9947-0.4036C36.5661,60.3773,36.3589,64.2177,36.218,67.8404L36.218,67.8404z M20.1552,73.5001
		c1.4102,0.2367,2.8165,0.4725,4.1046,0.7682l0.0839,0.0193v0.0859c0,0.0459,1.383-0.0405,3.1496-0.0123
		c2.484,0.0397,5.7186,0.0709,7.0688,0.0723c0.18-1.8607,0.3158-4.314,0.417-6.895c0.1372-3.5028,0.2112-7.2366,0.2443-10.0491
		c-1.2104-0.1338-2.3984-0.269-3.577-0.4017c-4.606-0.5195-9.091-1.0255-14.4264-1.4861c-0.3282,4.5777-0.6038,9.7518-0.8745,14.853
		l-0.1233,2.3176C17.4713,73.0501,18.8155,73.2755,20.1552,73.5001L20.1552,73.5001z M125.9048,71.3233
		c0.0195,0.8368,0.0397,1.6824,0.0425,2.3567l0.4589-0.1729c2.5943-0.9779,3.53-1.3305,5.7784-2.0173
		c0.0252-0.2756,0.0502-0.6877,0.0757-1.0988v-0.0005c0.0241-0.3873,0.0493-0.7747,0.0743-1.0593
		c-0.8918-0.006-1.9341-0.0759-3.0098-0.1479c-1.1619-0.0779-2.3644-0.1582-3.46-0.1633
		C125.8668,69.6787,125.8858,70.497,125.9048,71.3233L125.9048,71.3233z M253.7516,66.0208
		c-0.5598,0.0003-0.9043-0.1902-1.0673-0.4331c-0.0683-0.1017-0.1057-0.2137-0.1134-0.3246
		c-0.0077-0.1114,0.0139-0.2228,0.0618-0.3237h0.0003c0.1051-0.2219,0.3376-0.3968,0.6659-0.4229h0.0136
		c17.841,0.8538,35.4062,1.8627,52.8381,2.8632c26.2522,1.5074,52.2068,2.998,78.325,3.9158h0.0028
		c0.4615,0.0284,0.7458,0.222,0.8716,0.4501c0.0508,0.0924,0.0766,0.1917,0.0777,0.288v0.0004
		c0.0009,0.0969-0.023,0.1933-0.0697,0.2781c-0.1012,0.1831-0.309,0.3183-0.6052,0.3197h-0.0028
		c-30.4245-0.7974-57.3231-2.3932-85.127-4.0422C284.8093,67.7111,269.7378,66.8168,253.7516,66.0208L253.7516,66.0208z
		 M3.7749,63.5884c0.8167,2.9792,1.6529,5.8411,2.3258,7.878c0.4728,0.0275,2.2088,0.2509,4.0334,0.4859
		c1.9429,0.25,3.9884,0.5139,4.6996,0.5655c0.0714-0.807,0.2801-4.8282,0.4859-8.7919c0.1877-3.611,0.3739-7.1745,0.4504-8.2231
		c-1.993-0.1117-4.1202-0.308-6.2756-0.5068c-2.7057-0.2491-5.4592-0.5031-8.0736-0.5995
		C2.0305,57.005,2.8922,60.368,3.7749,63.5884L3.7749,63.5884z M139.3563,69.7977c-2.4066-0.2078-4.7662-0.3793-5.3822-0.4017
		c-0.0059,0.28-0.0348,0.5219-0.0646,0.782c-0.0386,0.3347-0.0808,0.7024-0.0825,1.2206c0.8572,0.1355,1.7127,0.214,2.6436,0.2584
		c0.9607,0.0463,2.0078,0.0562,3.225,0.0562c1.0494-0.0839,2.8831-0.8719,3.8285-1.3215c0.1193-0.0567,0.2242-0.1071,0.3101-0.15
		C142.6941,70.1015,141.0157,69.9412,139.3563,69.7977L139.3563,69.7977z M144.1735,70.1758l-0.0003,0.0021v0.0002L144.1735,70.1758
		L144.1735,70.1758z M216.3076,71.4118c0.32-5,0.4558-11.0738,0.5811-16.7037c0.0609-2.7338,0.1199-5.364,0.1959-7.71l0.0034-0.1046
		h0.1043c2.2329,0,4.8051,0.1284,7.5104,0.2631c2.9953,0.149,6.1557,0.3067,9.2072,0.3067h0.0717l0.0278,0.0672
		c0.959,2.3209,2.2445,5.373,3.6222,8.644c2.5594,6.0778,5.4385,12.9141,7.1665,17.2972l0.0618,0.1573l-0.1684-0.0106
		c-4.9451-0.3062-9.5222-0.6672-14.419-1.053c-4.2415-0.3343-8.7236-0.6877-13.8642-1.0392l-0.1075-0.0071L216.3076,71.4118
		L216.3076,71.4118z M198.9116,69.8787c0.222-2.9403,0.5992-8.9367,0.8802-14.1888c0.2162-4.0464,0.3764-7.6544,0.3665-9.0898
		l-0.0005-0.1149l0.1145,0.0069c3.2278,0.1947,9.3231,0.2259,12.8614,0.2438c1.7073,0.0088,2.8431,0.0128,2.8431,0.1395h-0.0003
		c0.0287,4.9623-0.025,9.3322-0.1414,13.3234c-0.1165,3.996-0.2962,7.6108-0.5185,11.0585l-0.0062,0.101h-0.1015
		c-0.4762,0-2.7876-0.1801-5.5831-0.4152c-3.7253-0.3135-8.35-0.7299-10.6166-0.949l-0.1051-0.01L198.9116,69.8787L198.9116,69.8787
		z M215.7574,46.8671c-0.0229-0.0233-0.1497-0.0207-0.3648-0.0076C215.5541,46.8615,215.6766,46.8643,215.7574,46.8671
		L215.7574,46.8671z M357.9319,64.0128c0.358,1.2444,0.4788,2.5495,0.4765,3.9197h5.3385c0.1973-3.3,0.1749-6.9117,0.1534-10.3646
		c-0.0065-1.0536-0.0133-2.0945-0.0139-3.0478c-1.2705,0.0414-2.9126,0.1409-4.5464,0.2404
		c-1.2277,0.0748-2.4526,0.15-3.5204,0.1993c-0.0352,0.9808,0.0357,2.6129,0.1031,4.1819c0.0182,0.4215,0.036,0.8402,0.0519,1.2421
		C356.9539,61.5347,357.5665,62.7423,357.9319,64.0128L357.9319,64.0128z M365.2792,62.189
		c-0.0292,1.9984-0.0584,3.9662-0.0692,5.7341c1.5035,0.1007,3.1496,0.1792,4.7841,0.241c1.6389,0.0621,3.2672,0.1083,4.7324,0.1423
		c0.104-1.9278,0.1857-4.5581,0.2242-7.1606c0.036-2.446,0.0343-4.8711-0.019-6.6708c-1.3178,0.0014-2.9344,0.0261-4.585,0.0516
		c-1.7444,0.0272-3.5263,0.055-4.9895,0.0565C365.3561,56.9129,365.3175,59.5783,365.2792,62.189L365.2792,62.189z
		 M352.3539,66.2584c-0.0114,0.509-0.0278,1.031-0.0476,1.4369c0.3311,0.025,0.72,0.043,1.0956,0.0562h0.0003
		c0.5898,0.0207,1.1543,0.03,1.4335,0.032c-0.0286-0.4976-0.0564-1.0624-0.0765-1.6138c-0.0159-0.4388-0.0272-0.8649-0.029-1.2382
		c-0.3965-0.0009-0.913-0.0048-1.3859-0.0082h-0.0005c-0.354-0.0029-0.6891-0.0048-0.9672-0.0053
		C352.3717,65.2731,352.3649,65.7606,352.3539,66.2584L352.3539,66.2584z M349.9053,64.1562
		c-0.0283,1.2407-0.0448,2.5166-0.0459,3.4498c0.3989,0.0207,0.8734,0.0453,1.4128,0.0482c0.0232-0.9103,0.0014-2.0642-0.0207-3.21
		c-0.0222-1.1378-0.0445-2.2691-0.0219-3.1498c-0.3212-0.004-0.8022-0.0222-1.0911-0.0326l-0.1341-0.0046
		C349.9631,62.0526,349.9297,63.0961,349.9053,64.1562L349.9053,64.1562z M356.0114,67.2655l0.0034,0.5197
		c0.1128,0.0103,0.3016,0.0275,0.5094,0.0479c0.3495,0.0341,0.756,0.0743,0.9406,0.0893c0.104-0.8705-0.0913-2.2097-0.4142-3.3871
		c-0.2937-1.071-0.6862-2.0024-1.0423-2.3094C355.9802,62.9935,356.0023,65.9483,356.0114,67.2655L356.0114,67.2655z
		 M64.9627,60.645l-0.7945-0.1182c1.7198,1.4119,4.9309,3.8537,7.0858,5.4921c0.6783,0.516,1.2572,0.9559,1.6313,1.2433
		c0.0045-0.5244,0.0238-1.0667,0.0434-1.6201c0.0456-1.2699,0.0938-2.6008-0.0352-3.9775
		C69.8698,61.3777,67.3807,61.0058,64.9627,60.645L64.9627,60.645z M253.6084,62.7122c-0.3042-0.0107-0.5196-0.1698-0.6134-0.3755
		c-0.0453-0.0992-0.0627-0.2103-0.0482-0.3195v-0.0005c0.0147-0.1085,0.061-0.2174,0.1406-0.3141v-0.0006
		c0.1953-0.2361,0.601-0.4042,1.2631-0.3259c19.5548,1.2711,40.4203,2.3414,60.8533,3.389
		c8.1975,0.4204,16.3264,0.8376,24.2722,1.2623v0.0002c0.4411,0.0006,0.7892,0.2593,0.9502,0.5616
		c0.0592,0.1108,0.0944,0.2293,0.1,0.3427c0.006,0.1188-0.0187,0.2344-0.0791,0.3353c-0.1208,0.2027-0.3807,0.3407-0.813,0.3206
		h-0.0005c-14.2838-0.7001-28.1809-1.4493-42.3091-2.258C283.1907,64.5208,268.8245,63.6516,253.6084,62.7122L253.6084,62.7122z
		 M343.7853,58.2381c-0.0275,0.9476-0.0431,1.9072-0.0465,3.0959c0.7863,0.512,1.6259,1.2626,2.4245,2.0829
		c0.9765,1.0035,1.8936,2.1146,2.5812,3.0203c0.0011-1.7098,0.0091-3.5889,0.0168-5.4666c0.0076-1.957,0.0158-3.9144,0.0161-5.6818
		c-0.7529-0.0005-1.5699-0.0079-2.3927-0.015c-0.8254-0.0069-1.6586-0.0139-2.4795-0.0145
		C343.8519,56.3847,343.8122,57.3083,343.7853,58.2381L343.7853,58.2381z M352.3145,62.3078
		c-0.0114,0.3912-0.0238,0.7971-0.0272,1.0383c0.29-0.0063,0.7339-0.0334,1.1766-0.0598c0.4482-0.0269,0.8966-0.0536,1.1891-0.0596
		l-0.0014-0.2546c-0.0037-0.5012-0.0091-1.1834,0.0233-1.5803c-0.5185,0.0009-0.9938,0.0051-1.4236,0.0093
		c-0.3413,0.0031-0.6565,0.0068-0.9133,0.0074C352.3345,61.6067,352.3249,61.9517,352.3145,62.3078L352.3145,62.3078z
		 M352.2946,57.0968c-0.0207,1.0723-0.0425,2.1721-0.0153,3.1586l1.0097,0.0034c0.42,0.0021,0.8676,0.0043,1.3756,0.0045
		c0.0227-0.8268,0.0221-1.667,0.0037-2.491c-0.021-0.9436-0.066-1.8714-0.1228-2.7411c-0.5074-0.0008-0.9655-0.0074-1.3779-0.0133
		c-0.2973-0.0039-0.5695-0.0076-0.847-0.0084c0.0014,0.657-0.0122,1.3662-0.0261,2.087V57.0968L352.2946,57.0968z M341.4589,56.1367
		c-0.0468,1.0089-0.0978,2.0999-0.127,3.3944c0.155,0.061,0.4345,0.2032,0.7143,0.3677c0.2057,0.1211,0.4152,0.2557,0.5799,0.3776
		c0.0536-0.7866,0.0822-1.6415,0.0967-2.4969c0.0147-0.8845,0.015-1.7952,0.015-2.6309c-0.2276-0.0261-0.4652-0.0391-0.6922-0.0507
		c-0.1891-0.0099-0.3722-0.0193-0.5392-0.0361C341.4917,55.4156,341.4756,55.7708,341.4589,56.1367L341.4589,56.1367z
		 M349.8491,58.5099c-0.0176,0.7872-0.0334,1.4811-0.0371,1.7855h1.4315c-0.0165-0.2824-0.0301-0.8915-0.0417-1.5994
		c-0.0224-1.3578-0.0363-3.0688-0.0386-3.5778l-0.6185,0.0385l-0.6353,0.0408C349.9104,55.7109,349.8772,57.2343,349.8491,58.5099
		L349.8491,58.5099z M338.4748,56.1699c-0.1034,0.8104-0.216,1.6946-0.2891,2.6422c0.3271,0.0374,0.6553,0.0762,0.9992,0.1295
		c0.337,0.0524,0.6817,0.1182,1.0417,0.2072c0.0573-0.7321,0.0973-1.4156,0.1219-2.0837c0.0246-0.6727,0.0346-1.338,0.0357-2.0302
		h-1.7705C338.5735,55.3949,338.5253,55.7738,338.4748,56.1699L338.4748,56.1699z M53.261,56.706
		c-0.7115-0.0681-4.7741-0.4576-5.2912,0.9283c0.7789,0.0731,1.5474,0.1429,2.3238,0.213c2.6493,0.2395,5.3824,0.4881,8.1859,0.845
		c-1.5009-1.108-2.6983-1.383-3.8455-1.6461c-0.4263-0.0978-0.847-0.1939-1.2773-0.3311l-0.095-0.0085L53.261,56.706L53.261,56.706z
		 M326.4426,55.0769c-1.0513,0.6483-2.7774,1.7132-2.2983,2.7734c2.086,0.1505,4.1003,0.2933,6.1569,0.4166
		c2.0577,0.1234,4.1661,0.2285,6.4446,0.3042c0.1063-0.6353,0.1964-1.2447,0.2687-1.8561c0.0715-0.6041,0.1259-1.2108,0.1636-1.8483
		h-10.3975C326.6864,54.9266,326.5682,54.9995,326.4426,55.0769L326.4426,55.0769z M344.014,51.5491
		c-0.0301,0.76-0.0607,1.5293-0.0638,2.1881c0.6911-0.0009,1.4323-0.0097,2.2008-0.0181c0.8671-0.0099,1.769-0.0196,2.6056-0.0204
		c0.0383-0.6939,0.0352-1.4828,0.015-2.2083c-0.0198-0.7049-0.0558-1.3563-0.0833-1.8056
		c-1.1208-0.0048-2.3794-0.0882-3.5348-0.1644c-0.3745-0.0246-0.7396-0.0479-1.078-0.068
		C344.0721,50.0655,344.0432,50.8035,344.014,51.5491L344.014,51.5491z M350.0402,51.673
		c-0.0094,0.6874-0.0196,1.3821,0.0031,2.0262l0.8543,0.0042c1.0681,0.0074,2.5572,0.0181,3.5544-0.0085
		c0.0014-0.6809,0.0025-1.3878-0.0043-2.0524c-0.0068-0.6522-0.0221-1.2662-0.0516-1.7792
		c-0.3577-0.0159-0.7115-0.0345-1.0667-0.0519c-1.08-0.0539-2.1742-0.108-3.293-0.1114
		C350.0589,50.3143,350.0498,50.991,350.0402,51.673L350.0402,51.673z M329.8193,51.6393
		c-0.6276,0.6143-1.2521,1.2253-1.7819,1.7238c0.9947,0.0024,2.3326,0.0167,3.7763,0.0319
		c1.8428,0.0202,3.8616,0.0421,5.5939,0.0429c0.0499-0.2612,0.1176-0.5928,0.1891-0.9451c0.2195-1.0814,0.4831-2.3835,0.5423-3.187
		c-0.2685-0.0133-0.8209-0.0626-1.4879-0.1213c-1.3227-0.1162-3.0952-0.2715-3.9325-0.2679
		C332.0705,49.4365,330.9373,50.5457,329.8193,51.6393L329.8193,51.6393z M339.3754,49.598h0.0002
		c-0.1168,0.459-0.2132,0.8332-0.5683,3.7639h1.6844c0.0485-0.5899,0.0969-1.2189,0.1445-1.8468
		c0.0581-0.7643,0.116-1.529,0.1729-2.196h-1.3651C339.4191,49.4257,339.3969,49.5133,339.3754,49.598L339.3754,49.598z
		 M341.6916,51.3416c-0.0493,0.7316-0.1086,1.4904-0.1686,2.1467c0.3254,0.0023,0.5763,0.0139,0.7968,0.0244
		c0.1474,0.0071,0.2806,0.0141,0.4192,0.0164c0.004-0.5043,0.0352-1.3358,0.0647-2.1544c0.0283-0.79,0.0564-1.5692,0.0604-2.0281
		l-0.7044-0.0241l-0.3566-0.012C341.7803,49.8869,341.7406,50.6066,341.6916,51.3416L341.6916,51.3416z M355.6667,51.9236
		c0.0145,0.6349,0.0312,1.2373,0.0505,1.7084c1.5142-0.0558,2.8391-0.1176,4.1485-0.1941c1.2991-0.0757,2.5866-0.1664,4.0365-0.2819
		c-0.0207-0.4033-0.0139-0.89-0.0079-1.3693c0.0057-0.4697,0.0114-0.9326-0.009-1.3068c-2.6076-0.0649-5.133-0.2596-7.579-0.4473
		l-0.6783-0.0519C355.6386,50.5955,355.6516,51.277,355.6667,51.9236L355.6667,51.9236z M365.3357,51.4243
		c0.024,0.6033,0.0482,1.2048,0.0725,1.706c1.6498-0.0015,3.3182-0.0323,4.9536-0.0624c1.5797-0.0289,3.1291-0.0572,4.5672-0.0586
		l-0.0003-0.1376c-0.0017-0.4521-0.0042-1.0226,0.0329-1.449c-1.8091-0.2034-3.4517-0.3867-5.0182-0.5341
		c-1.567-0.1473-3.0801-0.2619-4.6431-0.3316L365.3357,51.4243L365.3357,51.4243z M173.5155,48.3777l0.1236,0.2477l0.7041-0.2817
		c0.1191-0.3278,0.2543-0.4085,0.3818-0.4836c0.0938-0.0551,0.1834-0.1071,0.2551-0.3543l-0.0377-0.0378
		c-1.8181-0.051-3.6482-0.0541-5.4323-0.0544c0.3036,0.0406,0.6276,0.0803,0.9516,0.1208l0.0947,0.0119v0.0952
		c0,0.0229,0.0003,0.0465,0.0048,0.0701l0.0006,0.0002c0.0028,0.0156,0.0085,0.0341,0.0167,0.055
		c0.7719,0.1023,1.6211,0.2089,2.4721,0.3152l0.0006,0.0002l0.1009,0.0127l0.0941,0.012v0.0949c0,0.023,0.0003,0.0466,0.0048,0.0701
		l0.0006,0.0002c0.0026,0.0133,0.0068,0.0287,0.0131,0.0457h0.1542h0.0669L173.5155,48.3777L173.5155,48.3777z M349.9835,48.1444
		l0.0028,0.3425c0.5511,0.0051,1.3357,0.0468,2.1282,0.089c0.8133,0.0431,1.6364,0.0872,2.2272,0.092
		c0.0119-0.191,0.0221-0.4127,0.0212-0.6456c-0.0012-0.2753-0.0182-0.5752-0.0629-0.8749l-0.0009-0.0152
		c-0.0014-0.1349-0.288-0.3028-0.6763-0.4468c-0.4516-0.1672-1.0299-0.2871-1.4879-0.2891h-0.0023
		c-0.0522-0.0012-0.1071-0.0005-0.1627,0.0017h-0.0003c-0.4493,0.0178-0.9584,0.1462-1.3552,0.3112
		c-0.3674,0.1528-0.6321,0.3254-0.6381,0.4496h0.0002v0.0096C349.9767,47.5279,349.9807,47.8703,349.9835,48.1444L349.9835,48.1444z
		 M344.128,47.374c0.0031,0.2287,0.006,0.4714-0.0207,0.7664c0.921,0.0038,1.6744,0.048,2.4114,0.0914
		c0.7044,0.0416,1.3958,0.0827,2.2056,0.0862c-0.0005-0.1339-0.0025-0.2914-0.0048-0.4514
		c-0.0037-0.2516-0.0082-0.5097-0.0057-0.6956c-1.0267-0.0077-2.3431-0.116-3.3412-0.1979
		c-0.5397-0.0441-0.987-0.0801-1.2399-0.0889C344.1229,47.0525,344.1257,47.2101,344.128,47.374L344.128,47.374z M339.6693,47.8701
		l-0.0161,0.0575c0.3158,0.0076,0.8365,0.0383,1.3839,0.0706c0.6605,0.0391,1.3618,0.0811,1.7904,0.0867
		c0.095-0.6301,0.0811-0.9717,0.07-1.2313v-0.0002c-0.0034-0.0851-0.0074-0.1616-0.0068-0.2379
		c-0.4504-0.123-0.8407-0.176-1.1775-0.176c-0.7376,0-1.2184,0.2517-1.5284,0.5558C339.874,47.2995,339.73,47.6582,339.6693,47.8701
		L339.6693,47.8701z M146.1589,96.7158l7.996,0.727h0.0023l0.0822,0.0095l0.0025,0.0002c0.4005,0.0544,0.7472,0.2299,0.9859,0.4725
		c0.2446,0.2485,0.3779,0.5692,0.3473,0.9076v0.0023l-0.0048,0.0425l-0.0003,0.0026l-0.2146,1.5752
		c-0.0485,0.3572-0.2735,0.6647-0.5967,0.8711c-0.3161,0.2018-0.7285,0.3076-1.1593,0.2687l-7.9957-0.7271h-0.0023l-0.0822-0.0093
		l-0.0025-0.0003c-0.4005-0.0544-0.7472-0.2299-0.9859-0.4726c-0.2446-0.2485-0.3779-0.5691-0.3472-0.9076v-0.0023l0.0048-0.0425
		l0.0003-0.0025l0.2146-1.5753c0.0485-0.3572,0.2735-0.6648,0.5967-0.8711C145.3156,96.7827,145.728,96.677,146.1589,96.7158
		L146.1589,96.7158z M97.369,91.8119l7.996,0.7271h0.0023l0.0822,0.0093l0.0026,0.0003c0.4005,0.0544,0.7472,0.2299,0.9859,0.4725
		c0.2446,0.2486,0.3779,0.5692,0.3473,0.9077v0.0023l-0.0048,0.0425l-0.0003,0.0026l-0.2146,1.5751
		c-0.0485,0.3572-0.2736,0.6648-0.5967,0.8712c-0.3161,0.2018-0.7285,0.3076-1.1594,0.2687l-7.9957-0.7271h-0.0023l-0.0822-0.0093
		l-0.0025-0.0004c-0.4006-0.0544-0.7472-0.2299-0.9859-0.4725c-0.2446-0.2486-0.3779-0.5693-0.3473-0.9077V94.572l0.0048-0.0425
		l0.0003-0.0026l0.2146-1.5753c0.0485-0.3571,0.2735-0.6647,0.5967-0.871C96.5257,91.8788,96.9381,91.773,97.369,91.8119
		L97.369,91.8119z M75.8188,88.4794l7.996,0.7272h0.0023l0.0822,0.0093l0.0026,0.0004c0.4005,0.0544,0.7472,0.2299,0.9859,0.4725
		c0.2446,0.2486,0.3778,0.5692,0.3472,0.9077v0.0023l-0.0048,0.0425l-0.0003,0.0026l-0.2146,1.5752
		c-0.0485,0.3572-0.2736,0.6648-0.5967,0.8712c-0.3161,0.2018-0.7285,0.3076-1.1593,0.2686l-7.9957-0.727h-0.0023l-0.0822-0.0093
		l-0.0025-0.0004c-0.4005-0.0544-0.7472-0.2299-0.9859-0.4725c-0.2446-0.2486-0.3779-0.5693-0.3473-0.9077v-0.0023l0.0048-0.0425
		l0.0003-0.0026l0.2146-1.5752c0.0485-0.3572,0.2735-0.6647,0.5967-0.8711C74.9756,88.5463,75.388,88.4406,75.8188,88.4794
		L75.8188,88.4794z M172.0165,99.1457l7.996,0.727h0.0023l0.0822,0.0094l0.0025,0.0003c0.4005,0.0544,0.7472,0.2299,0.9859,0.4725
		c0.2446,0.2487,0.3779,0.5693,0.3473,0.9077v0.0023l-0.0048,0.0425l-0.0003,0.0026l-0.2146,1.5752
		c-0.0485,0.3572-0.2735,0.6647-0.5967,0.8711c-0.3161,0.2018-0.7285,0.3075-1.1594,0.2687l-7.9957-0.7271h-0.0023l-0.0822-0.0093
		l-0.0026-0.0003c-0.4005-0.0544-0.7472-0.2299-0.9859-0.4725c-0.2446-0.2486-0.3779-0.5692-0.3472-0.9077v-0.0023l0.0048-0.0425
		l0.0003-0.0026l0.2146-1.5751c0.0485-0.3572,0.2735-0.6647,0.5967-0.8712C171.1732,99.2125,171.5856,99.1068,172.0165,99.1457
		L172.0165,99.1457z M197.8741,101.0517l7.996,0.727h0.0023l0.0822,0.0094l0.0026,0.0003c0.4005,0.0544,0.7472,0.2299,0.9859,0.4725
		c0.2446,0.2486,0.3778,0.5692,0.3472,0.9077v0.0023l-0.0049,0.0425l-0.0002,0.0026l-0.2146,1.5752
		c-0.0485,0.3572-0.2736,0.6647-0.5967,0.8711c-0.316,0.2018-0.7285,0.3075-1.1594,0.2687l-7.9957-0.7271h-0.0023l-0.0822-0.0094
		l-0.0025-0.0002c-0.4005-0.0544-0.7472-0.2299-0.9859-0.4726c-0.2446-0.2485-0.3778-0.5692-0.3472-0.9076v-0.0023l0.0048-0.0426
		l0.0003-0.0024l0.2146-1.5753c0.0485-0.3571,0.2736-0.6647,0.5967-0.8711C197.0308,101.1186,197.4433,101.0128,197.8741,101.0517
		L197.8741,101.0517z M223.7318,102.9577l7.9959,0.7271h0.0023l0.0822,0.0094l0.0026,0.0002
		c0.4005,0.0544,0.7472,0.23,0.9859,0.4726c0.2446,0.2485,0.3778,0.5692,0.3472,0.9077v0.0023l-0.0048,0.0425l-0.0003,0.0026
		l-0.2146,1.5752c-0.0485,0.3572-0.2735,0.6647-0.5967,0.8711c-0.316,0.2018-0.7285,0.3076-1.1594,0.2687l-7.9957-0.7271h-0.0023
		l-0.0822-0.0094l-0.0025-0.0002c-0.4006-0.0544-0.7472-0.2299-0.9859-0.4725c-0.2446-0.2486-0.3779-0.5692-0.3472-0.9077v-0.0023
		l0.0048-0.0425l0.0003-0.0024l0.2146-1.5753c0.0485-0.3571,0.2735-0.6646,0.5967-0.871
		C222.8885,103.0246,223.3009,102.9188,223.7318,102.9577L223.7318,102.9577z M345.8242,110.7677
		c-0.2234-0.0059-0.3926-0.1777-0.4734-0.3921c-0.0309-0.0825-0.0499-0.1734-0.0527-0.2625
		c-0.0028-0.0907,0.0099-0.1819,0.0406-0.2639h0.0003c0.0689-0.1838,0.2234-0.3244,0.483-0.337h0.0062
		c1.4429,0.0201,2.8709,0.0456,4.2857,0.0703c2.3247,0.0408,4.6159,0.0813,6.8658,0.0978c0.2874,0.001,0.5145,0.2007,0.6236,0.4294
		c0.0371,0.0779,0.0618,0.161,0.0703,0.2415c0.0091,0.0836,0.0012,0.1658-0.0261,0.2383v0.0007
		c-0.0538,0.1431-0.1766,0.2463-0.3821,0.2582l-0.006,0.0002c-1.5228,0-3.4546-0.0195-5.4343-0.0392
		c-2.0543-0.0203-4.163-0.0416-5.9981-0.0416L345.8242,110.7677L345.8242,110.7677z M330.1078,110.3562
		c-0.2234-0.006-0.3926-0.1777-0.4734-0.3922c-0.0309-0.0824-0.0499-0.1734-0.0527-0.2624
		c-0.0028-0.0908,0.0099-0.182,0.0406-0.2639h0.0002c0.0689-0.1837,0.2234-0.3243,0.4831-0.337h0.0062
		c1.4429,0.0201,2.871,0.0457,4.2857,0.0703c2.3247,0.0408,4.616,0.0814,6.8658,0.0978c0.2874,0.0012,0.5145,0.2007,0.6236,0.4294
		c0.0371,0.0779,0.0618,0.161,0.0703,0.2415c0.009,0.0836,0.0011,0.1658-0.0261,0.2384v0.0005
		c-0.0538,0.1431-0.1766,0.2463-0.3821,0.2582l-0.006,0.0002c-1.5228,0-3.4546-0.0195-5.4343-0.0391
		c-2.0543-0.0204-4.163-0.0417-5.9981-0.0417L330.1078,110.3562L330.1078,110.3562z M314.0433,110.1021
		c-0.2234-0.0059-0.3926-0.1777-0.4734-0.392c-0.0309-0.0825-0.0499-0.1735-0.0527-0.2625
		c-0.0029-0.0908,0.0099-0.1821,0.0405-0.2639h0.0003c0.0689-0.1837,0.2234-0.3243,0.483-0.3371h0.0063
		c1.4428,0.0201,2.8709,0.0457,4.2857,0.0703c2.3246,0.0409,4.6159,0.0814,6.8658,0.0979c0.2874,0.0011,0.5145,0.2007,0.6236,0.4294
		c0.0371,0.0779,0.0618,0.161,0.0703,0.2415c0.0091,0.0836,0.0011,0.1658-0.0261,0.2385v0.0005
		c-0.0539,0.1431-0.1766,0.2463-0.3821,0.2582l-0.0059,0.0003c-1.5228,0-3.4546-0.0197-5.4343-0.0392
		c-2.0543-0.0204-4.163-0.0416-5.9981-0.0416L314.0433,110.1021L314.0433,110.1021z M345.6385,112.759
		c-0.2234-0.006-0.3926-0.1777-0.4734-0.392c-0.0309-0.0825-0.0499-0.1735-0.0527-0.2626
		c-0.0028-0.0906,0.0099-0.1819,0.0405-0.2639h0.0003c0.0689-0.1837,0.2234-0.3242,0.483-0.337h0.0063
		c1.4428,0.0201,2.8709,0.0457,4.2857,0.0703c2.3247,0.0408,4.6159,0.0814,6.8658,0.0978c0.2875,0.0011,0.5145,0.2007,0.6237,0.4294
		c0.0371,0.078,0.0618,0.1611,0.0703,0.2416c0.0091,0.0836,0.0011,0.1658-0.0261,0.2384v0.0005
		c-0.0539,0.1432-0.1766,0.2463-0.3821,0.2582l-0.006,0.0003c-1.5228,0-3.4546-0.0195-5.4343-0.0391
		c-2.0543-0.0204-4.163-0.0417-5.9981-0.0417L345.6385,112.759L345.6385,112.759z M329.9221,112.3474
		c-0.2233-0.006-0.3926-0.1777-0.4733-0.392c-0.0309-0.0825-0.0499-0.1736-0.0527-0.2626c-0.0028-0.0906,0.0099-0.182,0.0405-0.2639
		h0.0003c0.0689-0.1836,0.2234-0.3242,0.483-0.337h0.0063c1.4428,0.0202,2.8709,0.0457,4.2857,0.0703
		c2.3247,0.0409,4.6159,0.0814,6.8658,0.0978c0.2874,0.0012,0.5145,0.2007,0.6236,0.4294c0.0371,0.078,0.0618,0.1611,0.0703,0.2416
		c0.0091,0.0836,0.0011,0.1658-0.026,0.2384v0.0005c-0.0539,0.1432-0.1766,0.2463-0.3821,0.2582l-0.0059,0.0004
		c-1.5228,0-3.4546-0.0196-5.4344-0.0391c-2.0542-0.0204-4.1629-0.0417-5.9981-0.0417L329.9221,112.3474L329.9221,112.3474z
		 M313.8577,112.0935c-0.2234-0.0059-0.3926-0.1777-0.4734-0.392c-0.0309-0.0825-0.0499-0.1735-0.0527-0.2625
		c-0.0028-0.0907,0.0099-0.182,0.0406-0.2639h0.0003c0.0688-0.1837,0.2233-0.3243,0.483-0.337h0.0063
		c1.4428,0.0201,2.8709,0.0457,4.2857,0.0703c2.3247,0.0408,4.6159,0.0813,6.8658,0.0978c0.2874,0.0011,0.5145,0.2007,0.6236,0.4294
		c0.0372,0.0779,0.0618,0.161,0.0703,0.2415c0.0091,0.0836,0.0012,0.1658-0.0261,0.2383v0.0006
		c-0.0538,0.1431-0.1766,0.2463-0.3821,0.2582l-0.006,0.0003c-1.5228,0-3.4546-0.0196-5.4343-0.0391
		c-2.0543-0.0204-4.163-0.0417-5.9981-0.0417L313.8577,112.0935L313.8577,112.0935z"/>
</g>
</svg>
