<?xml version="1.0" encoding="utf-8"?>
<!-- Generator: Adobe Illustrator 21.1.0, SVG Export Plug-In . SVG Version: 6.00 Build 0)  -->
<svg version="1.1" id="MYAC" xmlns="http://www.w3.org/2000/svg" xmlns:xlink="http://www.w3.org/1999/xlink" x="0px" y="0px"
	 viewBox="0 0 466.3264 148.4873" enable-background="new 0 0 466.3264 148.4873" xml:space="preserve">
<g>
	<path fill-rule="evenodd" clip-rule="evenodd" stroke="#000000" stroke-width="0.216" stroke-miterlimit="2.6131" d="
		M158.2523,95.8013h9.7376c0.2874,0,0.5224,0.1985,0.5224,0.441v0.3782c0,0.2426-0.235,0.441-0.5224,0.441h-9.7376
		c-0.2874,0-0.5224-0.1984-0.5224-0.441v-0.3782C157.7299,95.9998,157.9649,95.8013,158.2523,95.8013L158.2523,95.8013z
		 M159.1685,97.8258h9.7376c0.2874,0,0.5224,0.1984,0.5224,0.441v0.3782c0,0.2427-0.235,0.4411-0.5224,0.4411h-9.7376
		c-0.2874,0-0.5224-0.1984-0.5224-0.4411v-0.3782C158.6461,98.0242,158.881,97.8258,159.1685,97.8258L159.1685,97.8258z
		 M160.0846,99.8503h9.7376c0.2874,0,0.5224,0.1985,0.5224,0.4411v0.3782c0,0.2426-0.235,0.441-0.5224,0.441h-9.7376
		c-0.2874,0-0.5224-0.1985-0.5224-0.441v-0.3782C159.5622,100.0488,159.7972,99.8503,160.0846,99.8503L160.0846,99.8503z
		 M171.7594,95.5972h9.7376c0.2874,0,0.5224,0.1984,0.5224,0.441v0.3781c0,0.2427-0.235,0.441-0.5224,0.441h-9.7376
		c-0.2874,0-0.5224-0.1984-0.5224-0.441v-0.3781C171.237,95.7956,171.472,95.5972,171.7594,95.5972L171.7594,95.5972z
		 M172.6756,97.6217h9.7376c0.2874,0,0.5224,0.1984,0.5224,0.441v0.3782c0,0.2427-0.235,0.441-0.5224,0.441h-9.7376
		c-0.2874,0-0.5224-0.1984-0.5224-0.441v-0.3782C172.1531,97.8201,172.3881,97.6217,172.6756,97.6217L172.6756,97.6217z
		 M173.5917,99.6463h9.7376c0.2874,0,0.5224,0.1984,0.5224,0.441v0.3782c0,0.2426-0.235,0.441-0.5224,0.441h-9.7376
		c-0.2874,0-0.5225-0.1984-0.5225-0.441v-0.3782C173.0693,99.8447,173.3043,99.6463,173.5917,99.6463L173.5917,99.6463z
		 M185.5466,95.3931h9.7375c0.2874,0,0.5224,0.1984,0.5224,0.441v0.3782c0,0.2427-0.235,0.4411-0.5224,0.4411h-9.7375
		c-0.2874,0-0.5224-0.1984-0.5224-0.4411v-0.3782C185.0241,95.5916,185.2591,95.3931,185.5466,95.3931L185.5466,95.3931z
		 M186.4627,97.4177h9.7376c0.2874,0,0.5224,0.1983,0.5224,0.441v0.3782c0,0.2426-0.235,0.441-0.5224,0.441h-9.7376
		c-0.2875,0-0.5224-0.1984-0.5224-0.441v-0.3782C185.9403,97.616,186.1753,97.4177,186.4627,97.4177L186.4627,97.4177z
		 M187.3789,99.4422h9.7376c0.2874,0,0.5224,0.1984,0.5224,0.441v0.3782c0,0.2426-0.235,0.441-0.5224,0.441h-9.7376
		c-0.2874,0-0.5225-0.1984-0.5225-0.441v-0.3782C186.8564,99.6405,187.0914,99.4422,187.3789,99.4422L187.3789,99.4422z
		 M17.2403,135.3571c0-0.0636,0-0.1273,0-0.1911c-0.828,0-1.5922,0-2.3564,0c0-0.1273,0-0.191,0-0.2545c-0.4459,0-0.8918,0-1.2739,0
		c0-0.0638,0-0.1276,0-0.191c-0.7642,0-1.5284,0-2.2292,0c0-0.0638,0-0.1276,0-0.1911c-1.5922,0-3.1844,0-4.7766,0
		c0-0.1275,0-0.1913,0-0.2548c-0.1911,0-0.3821,0-0.5094,0c0,0.0635,0,0.1273,0,0.2548c-0.1276,0-0.1911,0-0.2548,0
		c0-0.1275,0-0.1913,0-0.2548c-1.5284,0-2.9934,0-4.4581,0c0-0.0638,0-0.1276,0-0.191c-0.3821,0-0.7007,0-1.019,0
		c0-0.0638,0-0.1276,0-0.191c-0.1276,0-0.1911,0-0.2549,0c0-0.3187,0-0.637,0-0.8918c0.1911,0,0.3821,0,0.6369,0
		c0-0.0635,0-0.1273,0-0.191c0.5094,0,1.019,0,1.5922,0c0,0.0637,0,0.1275,0,0.191c0.5094,0,1.0191,0,1.5284,0
		c0-0.0635,0-0.1273,0-0.191c0.191,0,0.3821,0,0.6369,0c0,0.0637,0,0.1275,0,0.191c0.3183,0,0.6369,0,1.0191,0
		c0-0.0635,0.0635-0.1273,0.1273-0.191c0,0.0637,0,0.1275,0,0.191c0.0638,0,0.1273,0,0.1911,0c0-0.0635,0-0.1273,0-0.191
		c0.3183,0,0.7007,0,1.0828,0c0,0.0637,0.0635,0.1275,0.1273,0.191c0-0.0635,0-0.1273,0-0.191c0.0638,0,0.1911,0,0.3183,0
		c0,0.0637,0,0.1275,0,0.191c0.828,0,1.7198,0,2.6113,0c0,0.0638,0,0.1276,0,0.2548c0.0638,0,0.1275,0,0.2548,0
		c0-0.1273,0-0.191,0-0.2548c0.0638,0,0.1273,0,0.1911,0c0,0.0638,0,0.1276,0,0.2548c1.4012,0,2.8023,0,4.267,0
		c-0.8773-10.9684-2.1277-23.94-2.42-35.2834c0.1086-1.5463,3.5694-8.0407,6.0857-12.299c1.5625-0.4399,4.4053-0.6299,6.5883-0.6299
		c8.2962-16.3344,17.2159-34.6716,24.9659-48.8492c-9.1772,0.1104-8.3103-9.7384,2.4551-8.8585
		c0-0.4266,64.4987-1.7485,70.6655-1.7485c-2.5266-7.4454-5.9465-20.5506-5.6279-21.9611
		c2.3717-4.0212,15.9287-3.8628,19.9981-3.0625c9.8064,1.3195,26.5533,17.8449,32.0525,25.4407
		c27.0692,0,50.349-2.1019,76.6174-2.1019c9.8342,5.9831,57.9115,31.3835,61.3094,34.7507c0,0.8357-0.9547,0.8105-2.4951,0.8105
		c-5.7189-5.0018-37.0897-22.1003-44.4844-25.1799c-6.3791,0.6956-15.1302,1.0825-18.4697,1.0825
		c3.0795,1.3034,34.3176,15.8365,39.4868,24.8386c7.9679,0,16.6068-0.8281,24.8559-0.8281c1.7597,1.8306,3.3582,3.3738,4.568,4.4584
		c56.1504,0,108.5763,0.7177,154.9542,0.8279c0.3132,0.4352,0.8737,1.4165-0.2486,2.2346c-1.3507,0-2.9219,0.1219-4.0184,0.1219
		c-1.7282,4.5561-3.9069,11.4323-5.0952,15.9221c0.1652,0,10.2175,2.8619,6.942,6.1371
		c-2.3094,2.2606-26.0427,2.3335-27.1947,2.3335c0,0.0638-35.1144,39.3925-48.071,54.9702c0-0.0638,2.8522,0.3112,2.8522,0.2477
		c0.8914,0,1.7833,0,2.6747,0c0-0.1275,0-0.1913,0-0.2548c0.6369,0,1.2739,0,1.9743,0c0-0.0637,0-0.1275,0-0.191
		c0.3821,0,0.828,0,1.2739,0c0-0.0638,0-0.1275,0-0.1911c0.0635,0,0.1273,0,0.2545,0c0,0.0635,0,0.1273,0,0.1911
		c0.0638,0,0.191,0,0.3186,0c0-0.0638,0-0.1275,0-0.1911c0.3821,0,0.828,0,1.2736,0c0,0.0635,0,0.1273,0,0.1911
		c0.0638,0,0.1276,0,0.191,0c0-0.0638,0-0.1275,0-0.1911c0.1276,0,0.2548,0,0.4459,0c0,0.0635,0,0.1273,0,0.1911
		c0.7007,0,1.4012,0,2.1019,0c0-0.0638,0-0.1275,0-0.1911c0.2546,0,0.5094,0,0.8277,0c0,0.0635,0,0.1273,0,0.1911
		c0.5097,0,1.019,0,1.5922,0c0.0638,0.2545,0.1276,0.5094,0.2548,0.828c-0.1273,0-0.191,0-0.2548,0c0,0.0635,0,0.1273,0,0.2546
		c-0.4456,0-0.8915,0-1.3374,0c0,0.0638,0,0.1275,0,0.191c-2.1016,0-4.1397,0-6.1778,0c0,0.0638,0,0.1276,0,0.1911
		c-0.7642,0-1.5284,0-2.2292,0c0,0.0637,0,0.1276,0,0.2548c-0.5094,0-0.9553,0-1.4008,0c0,0.0637,0,0.1273,0,0.1911
		c-0.8918,0-1.7198,0-2.5478,0c0,0.0638,0,0.1273,0,0.191c-0.1273,0-0.2545,0-0.3821,0c-0.0635-0.0638-0.1273-0.1273-0.1273-0.191
		c0,0.0638,0,0.1273,0,0.191C260.1683,149.2962,130.3268,141.9238,17.2403,135.3571L17.2403,135.3571z M16.708,131.3449
		c0-0.1621,0.0711-0.6732,0.5556-1.588c127.2552,5.4275,253.6767,7.3293,381.5345-0.5778c0,0.8839-0.6902,2.115-1.9146,3.4096
		C271.8547,144.3798,140.936,136.3963,16.708,131.3449L16.708,131.3449z M16.9855,126.5683
		c-2.0299-1.0148-3.5887-26.2883-3.5028-27.7682c0.0782-1.3436,3.782-9.9159,5.6044-10.8271
		c1.2118-3.6355,383.4973,3.6302,413.4659,3.6302c-7.0954,10.1495-29.3139,33.558-29.8063,33.755
		C307.2869,134.2802,114.4304,128.1296,16.9855,126.5683L16.9855,126.5683z M26.8571,85.0432
		c3.9997-7.8003,9.3175-17.4894,12.037-23.1188c30.3783,0,63.788-0.6695,99.0357-1.2739
		C132.101,45.481,115.8211,5.3583,119.2056,3.522c1.6818-0.8989,8.0969-3.4407,19.425-1.6324
		c7.4645,1.6495,21.4526,14.5091,28.1503,23.9235c-4.6704,0-9.985,0-15.2852,0c-3.1896-4.2571-8.477-11.3619-11.3366-14.6486
		c-1.2149-0.2197-1.8757-0.504-4.0354-0.834c-0.9898-1.0604-3.8619-4.5836-3.8619-5.089c-0.1823,0-1.9108-1.4227-1.9108,0
		c0.0638,0,53.7857,69.0228,58.2752,75.1523c35.0433,0,70.6002-0.4455,105.3408-0.4455c0-0.3286,3.2479-1.5421,3.2479-1.9108
		c9.2886,0,20.0982-0.6367,29.2966-0.6367c0-0.0638-1.0142,1.7739-3.3355,5.4866c0.0643,0.266,0.8076,1.0965,2.0001,0.2988
		c1.3467-1.7388,2.3783-3.7612,3.5011-5.3398c2.1622,0.6599,3.8897,1.3609,5.7319,1.9108c0,0.1769,16.7567,0.6366,18.6608,0.6366
		c-0.3742,0.931-0.9358,1.5747-1.6263,3.2863c0.7075,0.8419,1.5216,0.6505,2.1356,0.0892c0.5616-0.6493,1.6042-2.2263,2.1654-3.3493
		c9.506,0.2803,17.8579,0.5213,28.2141,0.8018c-0.4678,1.2249-0.7554,1.9639-1.3255,3.095
		c0.3365,0.3741,0.6044,1.0253,1.9624,0.0895c0.7308-1.1641,1.3822-1.8728,2.0378-3.1844c6.795,0,12.3849-0.0039,18.6648-0.0039
		c-1.1225,2.0982-1.0165,1.8108-1.8587,3.7854c0.6279,1.1228,1.5188,0.1154,1.9066,0.1154
		c1.1228-1.7076,2.3088-3.3795,2.3088-3.7097c12.0846,0.4677,36.4275,1.5865,51.1378,3.6343c0,0.2952,4.8076,1.5132,1.1464,3.3755
		C363.1774,89.0889,66.5904,85.1581,26.8571,85.0432L26.8571,85.0432z M418.0918,80.3981c0.6548-1.112,1.3266-2.2195,1.8468-3.5408
		c9.5734,0.2806,19.6636,0.3563,29.6192,0.5435c0.8419,1.5768,2.4446,3.9968,2.9934,5.095
		C440.3636,82.0281,428.9205,80.772,418.0918,80.3981L418.0918,80.3981z M451.6597,77.2095
		c1.5721-0.1962,3.0773-0.2585,4.5854-0.2585c-0.4601,1.8745-0.9471,3.2278-1.5922,5.0613
		C453.7159,80.7959,452.5016,78.7665,451.6597,77.2095L451.6597,77.2095z M409.0261,79.7572
		c0.7486-1.4976,1.5327-2.5937,2.0001-3.4393c2.5121,0,4.5681,0.1613,6.8148,0.2549c-0.0657,0.1536-2.1274,3.4307-2.1274,3.6343
		C413.3951,79.9265,411.3848,79.7572,409.0261,79.7572L409.0261,79.7572z M388.4167,79.5024
		c0.9357-1.0698,1.9256-2.7924,2.6751-3.8214c3.8352,0.1451,16.0965,0.4498,17.6715,0.4498c-0.7282,1.1559-1.55,2.196-2.213,3.5546
		C400.1689,79.6855,394.4889,79.5024,388.4167,79.5024L388.4167,79.5024z M383.6401,79.3113
		c1.1962-1.7906,1.8527-2.5426,2.8661-4.0084c0.4697,0,1.4335-0.004,2.2291-0.004c-0.9354,1.8901-1.6982,2.8188-2.675,4.0124
		C385.4126,79.3113,384.3592,79.3113,383.6401,79.3113L383.6401,79.3113z M363.9008,78.6704
		c0.9354-1.4383,1.6979-2.3099,2.3524-3.3715c6.1149,0,11.844-0.1613,18.1514-0.2548c-1.0349,1.4272-2.1515,3.0897-2.8063,4.0801
		C375.683,79.1242,369.0425,78.8574,363.9008,78.6704L363.9008,78.6704z M339.8224,78.4834
		c0.8422-1.2217,1.4134-2.395,1.9743-3.1844c4.9804,0,9.5859,0.191,14.2662,0.191c-0.4675,1.0576-1.2203,2.2451-2.0718,3.087
		C351.4654,78.7316,341.2658,78.4834,339.8224,78.4834L339.8224,78.4834z M357.082,78.4834c0.299-1.3456,1.847-2.9296,1.847-2.9935
		c1.5673,0,3.3863,0.1912,4.6494,0.1912c-0.2693,0.8079-1.222,1.9794-1.8768,2.9216
		C360.3507,78.6027,358.4109,78.4834,357.082,78.4834L357.082,78.4834z M335.2708,78.3898
		c-1.2161-0.6733-3.8315-1.6041-5.1805-2.0718c0.3744-0.703,0.7265-0.883,1.0068-1.2739c2.8485,0,5.9726,0.0677,8.5005,0.0677
		c-0.4366,0.8742-1.421,2.3949-2.45,3.3715C336.5107,78.4834,335.844,78.3898,335.2708,78.3898L335.2708,78.3898z M421.0892,74.853
		c2.1838-3.0949,4.0482-5.7357,5.4133-8.1859c5.6583,0,11.5422,0.3524,17.1324,0.3524c1.4043,2.8467,2.9336,5.392,4.5219,8.6616
		C439.2326,75.4004,429.6804,75.1337,421.0892,74.853L421.0892,74.853z M450.4536,75.4004
		c-1.1225-2.0837-3.0778-5.8431-4.5261-8.1899c4.4702,0,8.8315-0.191,13.502-0.191c-0.6984,2.5616-1.4173,5.5689-2.5435,8.2037
		C455.2362,75.2232,453.5178,75.4004,450.4536,75.4004L450.4536,75.4004z M412.3381,74.853
		c1.4964-2.2621,4.2596-6.3151,5.6004-8.1859c1.8711,0.0059,5.724-0.0975,6.4624-0.0975c-1.1226,1.9576-3.5161,5.343-5.4691,8.373
		C417.0504,74.9426,414.5298,74.853,412.3381,74.853L412.3381,74.853z M392.3654,74.051c1.4658-2.2169,3.6677-5.8677,4.8024-7.5889
		c6.2906,0,11.8139,0.1831,18.1256,0.1831c-0.8209,1.3687-4.0958,6.5021-5.2186,7.8296
		C404.3064,74.2881,397.6645,74.051,392.3654,74.051L392.3654,74.051z M343.1979,73.5794c1.0913-1.6528,6.4667-8.1326,6.2753-7.8695
		c0-0.1276,12.7234,0.0079,15.1521,0.0079c-1.5902,1.8845-5.1171,6.832-6.3332,8.0527
		C353.1206,73.7705,348.1152,73.5794,343.1979,73.5794L343.1979,73.5794z M333.008,73.5794
		c2.6642-3.0242,4.6182-5.3977,6.4961-7.9373c2.9135,0,5.3249-0.0258,7.6606-0.0258c-1.1443,1.7167-4.5122,6.0865-6.1957,7.963
		C338.3714,73.5794,335.6002,73.5794,333.008,73.5794L333.008,73.5794z M360.5851,73.7705
		c1.9188-2.5319,4.0708-5.5378,5.5029-7.9631c2.2323,0.0936,3.6323,0.2767,5.567,0.2767c-1.7354,2.0778-4.5377,5.639-6.4086,7.7761
		C363.5915,73.8601,362.0608,73.7705,360.5851,73.7705L360.5851,73.7705z M368.2275,73.7705
		c1.7773-2.4134,4.2463-5.5386,5.9571-7.4695c5.332-0.1222,13.6327-0.0709,16.4276,0.0638
		c-1.3323,2.4072-3.5753,5.3067-4.6154,7.0237C379.8528,73.5953,373.705,73.6389,368.2275,73.7705L368.2275,73.7705z
		 M387.8518,73.4859c0.8419-1.6443,3.7865-5.4646,4.6491-7.0239c1.0754,0.0008,1.7751,0.0631,2.6552,0.0935
		c-1.1874,1.7773-4.6375,6.8253-4.6375,7.0239C389.9622,73.5794,388.4051,73.4859,387.8518,73.4859L387.8518,73.4859z
		 M324.8558,73.5794c-2.3386-1.5411-10.0409-6.3152-12.0988-7.9948c7.9047,0,17.1797,0.0535,24.3907,0.0535
		c-2.2799,2.8531-5.4082,6.2825-7.3242,7.9412C328.1675,73.5794,326.5115,73.5794,324.8558,73.5794L324.8558,73.5794z
		 M176.2126,60.6506c0,0.0638-16.4211-20.3525-26.6508-33.118c6.0687,0,12.1266-0.0579,18.597-0.0579
		c0,0.8362,6.7105,7.3857,6.7105,7.8914c20.677,0,40.8481,0.191,62.6057,0.191c3.8494,1.593,17.6893,8.6279,23.1191,11.7188
		c-28.6895,0-46.1914,0.191-72.6049,0.191c-1.516,0.0984-1.9562,2.9358,1.5922,2.5985c21.3741-0.28,47.1733-0.5598,72.8796-0.8399
		c0,0.0638,1.1202,0.407,3.9206,1.0947c-27.3535,0.7402-52.6172,0.9388-75.5266,0.9681c-0.6999,0.8317-0.6744,1.8847,1.0828,1.8847
		c20.5847-0.1241,73.6308-1.0567,78.3369-1.0567c0,0.3381,7.729,6.5412,8.5981,8.2794
		C242.1023,60.3958,208.6441,60.6506,176.2126,60.6506L176.2126,60.6506z M47.6833,34.5383
		c-2.1107,0.0074-4.8903-5.1911,1.465-5.7319c0-0.1698,68.9607-1.6387,74.649-1.6387c0.6446,2.0634,1.5318,3.8076,2.1132,5.842
		C101.3247,33.6696,73.1568,34.0982,47.6833,34.5383L47.6833,34.5383z M147.9523,25.622c-2.3493-3.2-8.9572-11.324-10.8269-13.5946
		c0.5094,0.0637,1.8987,0.3472,2.4721,0.411c1.2098,1.3521,7.9736,9.7515,10.1381,13.1836
		C149.5446,25.622,148.1434,25.622,147.9523,25.622L147.9523,25.622z M45.2719,96.3223h5.5945c0.5734,0,1.0423,0.4689,1.0423,1.0423
		v2.084c0,0.5735-0.4688,1.0424-1.0423,1.0424h-5.5945c-0.5735,0-1.0423-0.4689-1.0423-1.0424v-2.084
		C44.2296,96.7912,44.6984,96.3223,45.2719,96.3223L45.2719,96.3223z M121.8521,94.9968h5.5944
		c0.5735,0,1.0423,0.4689,1.0423,1.0423v2.084c0,0.5735-0.4689,1.0423-1.0423,1.0423h-5.5944c-0.5735,0-1.0423-0.4688-1.0423-1.0423
		v-2.084C120.8098,95.4657,121.2786,94.9968,121.8521,94.9968L121.8521,94.9968z M227.1739,95.4265h5.5945
		c0.5734,0,1.0423,0.4689,1.0423,1.0424v2.084c0,0.5734-0.4689,1.0423-1.0423,1.0423h-5.5945c-0.5735,0-1.0423-0.4689-1.0423-1.0423
		v-2.084C226.1316,95.8955,226.6004,95.4265,227.1739,95.4265L227.1739,95.4265z"/>
</g>
</svg>
