<?xml version="1.0" encoding="utf-8"?>
<!-- Generator: Adobe Illustrator 21.1.0, SVG Export Plug-In . SVG Version: 6.00 Build 0)  -->
<svg version="1.1" id="MYAC" xmlns="http://www.w3.org/2000/svg" xmlns:xlink="http://www.w3.org/1999/xlink" x="0px" y="0px"
	 viewBox="0 0 465.8526 218.6704" enable-background="new 0 0 465.8526 218.6704" xml:space="preserve">
<g>
	<path fill-rule="evenodd" clip-rule="evenodd" stroke="#000000" stroke-width="0.216" stroke-miterlimit="2.6131" d="
		M79.6265,217.4498c-17.2528-3.8109-69.3408-21.0146-79.5101-24.3782c-0.3957-2.0801,13.3738-2.3786,17.5311-2.7746
		c0-1.6132-0.0056-2.9149-0.1491-4.4963c-0.1772,0-0.6454,0-0.8226,0c-0.8938-0.1851-0.7724-2.7289,0-2.715
		c0.1772,0,0.6939,0.0487,0.93,0.0487c0.3161-2.211,0.2095-4.5901,0.396-6.827c-0.2937,0-0.6494,0.1446-0.6494-0.1768
		c-0.6406,0.1944-0.7707-1.5735-0.1706-2.7743c0.3543,0,0.5247,0,0.938,0c0-2.3613,0.059-4.7223,0.1179-7.0835
		c-0.1179,0-0.2358,0-0.2951,0c0-0.059,0-0.1179,0-0.1772c-0.2951,0-0.5902,0-0.8263,0c-0.0589-1.0034-0.0589-1.6526,0.1179-2.1838
		c0.2954,0,0.5905,0,0.8856,0c0.1179-3.4826,0.4618-5.9196,0.4618-8.812c-0.1179,0-0.4297-0.0972-0.4887-0.0972
		c-0.5774,0.1573-0.5618-2.0875,0.2778-2.0875c0-0.1332,0.3622,0.0176,0.5165,0.0176c0.1225-2.8335,0.1772-5.4306,0.1182-7.6736
		c-0.2463,0-0.2256,0.0456-0.4683-0.0901c-0.4932,0-0.311-1.537,0.0284-1.6807c0.5905,0-0.0323,0,0.5579,0
		c0.2911-2.55,0.6083-5.2325,0.993-7.9897c-0.3407-0.0485,0.0887-0.0797-0.5372-0.0797c-0.6789-0.0403-0.2622-1.4238,0.4337-1.375
		c0,0.1556,0.3376,0.0314,0.468,0.0314c1.2915-10.0697,16.2918-31.8358,21.6632-32.3194c2.4375,0.0969,4.2165,0.1698,6.0418,0.413
		c4.5334-5.4763,10.3158-35.6976,9.1874-38.9582c-0.0941-0.2827-0.364-0.5902-0.5902-0.5902
		c0-6.1004,24.6146-12.5728,24.6146-12.632c19.7762,0,43.8486-0.1769,67.8815-0.1769c-0.8697-1.8086-6.6231-15.1458-4.8401-17.8856
		c2.7397-4.2094,23.9151-6.2096,36.479-6.6549c0.1763-7.2702,0.1389-15.1789-0.059-22.5048
		c0.0729-1.3277,1.3604-0.5905,1.4624-0.1448c0.2866,6.8542,0.2619,15.4018,0.3084,22.8115
		c3.6768,0.3713,7.5827,0.8833,10.802,1.1807c2.5997,0.3988,15.4063,20.2464,15.5245,20.2464
		c-0.0618-12.5118-0.2982-24.9877-0.2954-37.3646c0.3629-0.4952,0.6012-0.4949,1.0034,0
		c0.2993,12.6008,0.5887,26.7752,0.8113,39.3296c5.4362,8.4327,14.1174,20.7345,18.9632,27.5488
		c2.0985,0,4.3492-0.0286,6.3199-0.1771c-0.3713-24.8361-0.8949-50.6038-1.1846-75.7914c0.3456-0.3963,0.6018-0.3963,1.0625,0
		c0.699,24.8116,1.3255,51.1481,1.7711,75.5552c8.8189-0.6766,18.1672-0.9649,26.6377-1.8348
		c0.0854-5.1406-0.0609-10.0522,0.0425-15.1702c0.3719-0.3867,0.4657-0.4995,1.1542-0.1128
		c0.0967,3.5846,0.2758,10.3397,0.2036,15.1702c2.7916,0,2.5364,0.0802,5.1559,0.0802c5.1916,0.5516,12.4441,7.5932,12.5523,7.5932
		c0-8.5507-0.2389-17.5657-0.5904-26.149c0.4566-0.5159,0.6554-0.5156,1.1806,0c0.6264,7.806,0.951,19.1566,1.2986,27.9198
		c11.8349,10.7294,34.9231,30.5051,34.8264,33.6459c0.1554,1.4498-5.6494,1.0034-8.382,1.0034c0,0.059,0,0.1182,0,0.1772
		c0.0592,0,0.1182,0,0.1771,0c0,0.059,0,0.1179,0,0.1772c0.7846,0,5.6792,5.1029,6.4151,5.1029
		c32.9547-0.2837,121.2624-0.354,147.5881-0.735c-3.6613,6.5897-8.9938,16.0645-12.1008,21.4271
		c4.1286,0,4.9521,0.2557,5.3002,3.5416c-0.5445,3.1088-3.6411,3.0385-4.4178,3.1751c-7.1912,0.4008-15.6744,0.1318-20.0474,2.7337
		c-10.6205,6.3193-34.0815,39.7321-47.4772,57.4279c0.6349,0,1.5967,0.4133,2.5974,0.4133c0,0.059,0,0.1179,0,0.1769
		c0.6492,0,1.2986,0,1.948,0c0-0.059,0-0.1179,0-0.1769c0.4723,0,0.9442,0,1.4757,0c0-0.0592,0-0.1182,0-0.1772
		c0.4131,0,0.8264,0,1.2986,0c0-0.1182,0-0.1772,0-0.2361c0.5312,0,1.0624,0,1.6526,0c0-0.059,0-0.1182,0-0.1772
		c0.3543,0,0.7084,0,1.0627,0c0-0.0589,0-0.1179,0-0.1772c0.1769,0,0.3541,0,0.5902,0c0-0.9264,11.7465-0.5533,11.7465,0
		c0.4133,0,0.8263,0,1.2396,0c0,0.0592,0,0.1182,0,0.1772c0.5312,0,1.1217,0,1.7119,0c0,0.059,0,0.1182,0,0.1772
		c1.0624,0,2.1248,0,3.2465,0c0,0.0589,0,0.1179,0,0.2361c0.1771,0,0.354,0,0.5901,0c-0.1179,0.2361-0.1769,0.4722-0.2361,0.7673
		c-0.1179,0-0.2361,0-0.354,0c0,0.059,0,0.1179,0,0.1772c-0.2951,0-0.5902,0-0.8856,0c0,0.0589,0,0.1179,0,0.2361
		c-0.2361,0-0.472,0-0.7081,0c0-0.1182,0-0.1772,0-0.2361c-0.2361,0-0.4723,0-0.7084,0c0,0.0589,0,0.1179,0,0.2361
		c-0.2361,0-0.4722,0-0.6494,0c0-0.1182,0-0.1772,0-0.2361c-0.4133,0-0.7673,0-1.1214,0c0-0.0593,0-0.1182,0-0.1772
		c-0.6494,0-1.2396,0-1.83,0c0-0.0589,0-0.1182,0-0.1772c-0.5312,0-1.0034,0-1.4757,0c0-0.1179,0-0.1768,0-0.2361
		c-0.7081,0-1.3575,0-2.0069,0c0-0.059,0-0.1179,0-0.1769c-2.1248,0-4.1908,0-6.2569,0c0,0.059,0,0.1179,0,0.1769
		c-0.1179,0-0.2361,0-0.2951,0c0-0.059,0-0.1179,0-0.1769c-0.1771,0-0.295,0-0.4132,0c0,0.059,0,0.1179,0,0.1769
		c-0.2951,0-0.5312,0-0.7674,0c0,0.0592,0,0.1182,0,0.2361c-0.2951,0-0.5901,0-0.8263,0c0,0.059,0,0.1183,0,0.1772
		c-0.2951,0-0.5312,0-0.7673,0c0,0.059,0,0.1179,0,0.1772c-0.3541,0-0.7084,0-1.0035,0c0,0.0589,0,0.1179,0,0.2361
		c-0.5312,0-1.0624,0-1.5347,0c0,0.059,0,0.1179,0,0.1769c-0.1182,0-0.1772,0-0.2361,0c0-0.059,0-0.1179,0-0.1769
		c-0.059,0-0.1182,0-0.1772,0c0,0.059,0,0.1179,0,0.1769c-0.2951,0-0.5312,0-0.7674,0c0,0.0592,0,0.1182,0,0.1772
		c-0.5312,0-1.0034,0-1.4757,0c0,0.0589,0,0.1179,0,0.2361c-0.7673,0-1.5346,0-2.302,0c0-0.1182,0-0.1772,0-0.2361
		c-0.1772,0-0.354,0-0.4722,0c0,0.0589,0,0.1179,0,0.2361c-0.059,0-0.1179,0-0.1772,0c0-0.1182,0-0.1772,0-0.2361
		c-0.413,0-0.7673,0-1.1214,0c0-0.059,0-0.1179,0-0.1772c-0.4722,0-0.9445,0-1.3578,0c0-0.059,0-0.1179,0-0.1769
		C288.0112,218.801,182.468,219.6821,79.6265,217.4498L79.6265,217.4498z M80.6557,211.0973c0-0.3084-1.2917-3.092-0.4388-3.092
		c0-0.0587,199.3788,3.0197,315.2667-10.4476c-0.1987,0-1.8147,2.0145-3.6008,2.9662
		C285.4442,213.0246,176.899,211.0973,80.6557,211.0973L80.6557,211.0973z M77.8557,203.4603
		c0,0.0589-2.5971-17.3619-2.5971-26.1494c126.0774,1.3394,230.2886-0.4969,340.5894-8.0867
		c0,0.1769-16.941,22.8439-16.9999,22.8439C365.251,204.7948,107.3388,203.4603,77.8557,203.4603L77.8557,203.4603z
		 M38.3554,201.8643c-13.2066-3.5206-24.7056-6.757-34.9926-9.2061c-0.3396-0.5876,11.1064-1.1492,14.2846-1.1492
		c0,0.4045,0.1012,0.4745,0.1012,0.8819c0.3053,0,1.544,0.21,1.544-0.1284c0.2103,0,0.1281-0.6009,0.1281-0.8093
		c1.0035,0,1.5216-0.0975,2.5843-0.0975c0.059,0.1769,0.0695,0.8892,0.1284,1.1254c0.491,0.1944,0.9811,0.1944,1.5137,0
		c0.0589-0.2951-0.1242-0.9794-0.0652-1.2155c0.6134,0,2.0786-0.1596,2.9786-0.1596c0,0.059,44.0986,12.1278,47.1422,12.9666
		C65.1312,203.9308,38.3554,201.9236,38.3554,201.8643L38.3554,201.8643z M26.5367,190.0368
		c-0.7294-4.6766-1.662-9.913-2.0523-12.9515c0.248,0,0.4195-0.053,0.6619-0.1874c0.4306-0.1258,0.1752-2.3519-0.1857-2.5381
		c-0.1769,0-0.5856,0-0.7036,0c-0.2421-3.3792-0.3631-5.0584-0.4116-7.4965c14.9122,3.0611,34.8627,7.4321,49.8784,10.0346
		c0.8263,8.441,1.3575,17.2361,2.0659,26.3852C59.1232,198.9971,40.9168,194.0166,26.5367,190.0368L26.5367,190.0368z
		 M19.4753,190.4742c0-1.2668-0.1865-2.7816-0.114-4.0904c0.354,0.0592,1.8343,0.3127,2.2476,0.3716
		c0.1179,1.1806,0.0524,2.3613,0.2296,3.5416C21.1891,190.3563,20.0655,190.4152,19.4753,190.4742L19.4753,190.4742z
		 M23.4154,189.884c-0.0397-1.0126-0.1329-1.8593-0.1814-2.9276c0.5312-0.059,0.8203,0.0765,1.4105,0.0175
		c0.0592,0.8853,0.3603,1.9655,0.4785,2.9101C24.6508,189.884,23.8877,189.884,23.4154,189.884L23.4154,189.884z M23.0614,184.3944
		c-0.0663-2.2779-0.3166-5.4456-0.3166-7.3375c0.1182,0,1.3938,6.1883,1.573,7.5146
		C23.7669,184.5716,23.6312,184.4913,23.0614,184.3944L23.0614,184.3944z M19.2958,183.7067c0.0981-1.531,0.383-5.5083,0.3736-7.045
		c0.354,0,1.29,0,1.6441,0.059c0.059,2.302-0.0275,4.9935,0.0314,7.3545C21.0499,184.0752,19.5909,183.6478,19.2958,183.7067
		L19.2958,183.7067z M75.2586,175.9534c-1.0945-4.5964-0.9482-9.654-1.4757-14.4029c115.8903,0,244.9097-2.5452,358.5872-8.7956
		c-2.8123,1.2507-9.9788,9.7764-13.8657,13.754C304.2078,176.331,188.0055,175.9534,75.2586,175.9534L75.2586,175.9534z
		 M23.7272,165.7025c0.0686-3.2244,0.3195-6.4119,0.3195-9.5128c0.9624,0,1.4607-1.6396-0.0573-1.7927
		c-0.1344-0.3359,0.21-0.7611,0.21-0.8742c16.4185,2.7553,31.3412,5.3796,48.1076,8.441c0.563,3.6779,0.8246,9.8795,1.2986,13.9896
		C57.2656,172.7387,38.9604,168.6109,23.7272,165.7025L23.7272,165.7025z M19.8673,173.6234
		c0.053-1.8567,0.0788-4.7716,0.1077-6.1022c0.0589,0,1.6319,0.1463,1.7498,0.1463c0.0641,1.5815,0.0085,4.5805,0.0085,6.0321
		C21.3793,173.6996,20.1624,173.5644,19.8673,173.6234L19.8673,173.6234z M254.1471,171.3148
		c-0.5834-0.1732-0.7747-2.7695-0.0349-3.2712c0.5836-0.2911,32.9771-1.0182,33.5869-0.7673
		c0.4172,0.5854-0.1735,3.3279-0.5901,3.5416C286.4425,170.9852,254.9368,171.4821,254.1471,171.3148L254.1471,171.3148z
		 M349.0045,166.8434c-0.4167-0.6797,0.2327-3.5535,0.7327-3.8761c0.7376-0.3348,8.6216-0.7475,9.5624-0.4133
		c0.417,0.5689-0.9777,3.5963-1.5939,4.1321C357.0155,167.1878,349.9743,167.3452,349.0045,166.8434L349.0045,166.8434z
		 M405.6297,165.6778c-0.6298-0.6452,1.8791-4.3152,2.6147-4.9167c0.8626-0.3957,5.8499-0.6755,6.5526-0.2216
		c0.47,0.5743-2.645,4.5794-3.2034,4.9578C410.9144,165.7124,406.3364,166.1311,405.6297,165.6778L405.6297,165.6778z
		 M20.0215,164.1063c0.1321-2.1461,0.3923-6.2127,0.4907-8.5074c0.5479,0,1.1304,0.1877,1.7396,0.2852
		c0.059,2.4792-0.0484,5.5278-0.3436,8.3611C21.2316,164.2452,20.9791,164.1063,20.0215,164.1063L20.0215,164.1063z
		 M23.9044,152.1061c-0.1809-2.1747-0.0907-4.2664,0-6.444c0.3841,0,0.1312,0.017,0.7696,0.017
		c0.1454-0.0609,0.5649-0.9947,0.3226-1.3924c-0.4501-0.0975-0.2067-0.1287-0.7886-0.1287
		c1.0222-1.5251,2.4426-3.1969,3.1791-4.4476c3.5132,0,6.5157,0.9184,8.8432,0.9184c0-0.3472,4.2341-6.6492,4.7923-7.7658
		c13.8523,2.2961,28.6024,4.6783,40.4339,5.9029c-2.6022,6.8-6.3822,15.1676-9.3266,21.4271
		C56.1927,157.4378,39.6684,154.2491,23.9044,152.1061L23.9044,152.1061z M73.9007,160.1931
		c2.4494-4.8305,9.2293-20.2025,9.8578-21.2499c46.9749,0,96.109-0.0728,144.4998,0c3.6414,4.5153,8.7392,11.317,11.6875,14.6463
		c74.6702,1.3391,149.3935,0.7756,216.4544-8.1533c1.6097,0.3186,0.8699,3.7068-0.2951,3.9549
		C315.8389,160.0607,176.6014,158.2343,73.9007,160.1931L73.9007,160.1931z M103.2966,153.5229
		c1.2248-3.3318,2.9075-7.7664,4.132-10.8609c22.9181,0,48.3503-0.3544,73.9026-0.3544c-1.0715,3.0294-2.4554,6.719-4.8544,10.4528
		C167.4755,152.9596,120.9582,154.1352,103.2966,153.5229L103.2966,153.5229z M259.3657,151.9292
		c-0.208-2.3513-0.4719-4.9584-0.5902-6.9063c10.51,0,17.8121-0.1037,28.8057-0.354c0.0779,2.5027,0.1179,4.9453,0.1179,7.4373
		C278.3541,152.1061,268.6169,151.9292,259.3657,151.9292L259.3657,151.9292z M289.352,152.1061
		c-0.0901-2.715-0.0694-4.8401-0.1772-7.2603c6.122,0.2508,12.9779,0.6001,19.3609,0.7673
		c-1.453,2.0262-2.6277,3.9543-4.4269,6.3162C298.7899,151.9292,293.873,152.1061,289.352,152.1061L289.352,152.1061z
		 M20.2783,153.0169c0-0.4133,0.1454-2.0911,0.1454-2.4454c0.7572-0.8269,1.3768-1.7997,1.9522-2.6266
		c0,0.7084,0.0108,4.2871-0.0757,5.1032C21.7285,153.048,20.629,153.0169,20.2783,153.0169L20.2783,153.0169z M240.5742,151.6633
		c-0.8334-1.1494-3.1419-4.2883-4.6423-6.2271c5.8258,0,14.4941-0.1772,21.2499-0.1772c0.1642,0.739,0.5987,4.5703,0.413,6.493
		C255.4278,151.872,241.9839,151.6633,240.5742,151.6633L240.5742,151.6633z M305.8796,151.9292
		c1.3096-1.5449,3.8149-4.9932,4.6877-6.2473c6.0846-0.0683,26.1941-0.2457,28.3678-0.2457
		c-0.8414,1.9638-2.136,3.9889-3.3644,5.9026C325.403,151.5894,315.5169,151.9292,305.8796,151.9292L305.8796,151.9292z
		 M337.4593,151.3388c1.5007-1.8834,3.1572-4.7274,4.2951-6.3995c1.584,1.2249,5.5114,4.4467,7.6876,6.3995
		C345.5763,151.3388,341.5123,151.3388,337.4593,151.3388L337.4593,151.3388z M352.4804,151.3288
		c4.8342-1.5483,12.2272-3.9447,14.9649-3.9447c-0.601,1.4057-1.3992,2.6966-2.0659,3.5416
		C360.0543,151.0927,357.3506,151.3288,352.4804,151.3288L352.4804,151.3288z M367.1503,150.9258
		c0.7747-1.2523,1.8958-2.9693,2.4792-4.1321c5.343-1.2541,9.8255-2.533,13.6944-0.9445
		c3.1675,0.3228,10.0355,0.3543,10.9792,0.3543c-0.3058,1.3768-0.798,2.3097-1.2396,3.5416
		C384.6624,150.2466,377.1234,150.6746,367.1503,150.9258L367.1503,150.9258z M350.6226,150.1584
		c0-0.0589-7.0897-5.6571-8.1459-6.493c1.0823-1.6562,1.7028-2.5792,2.4792-4.132c11.5773-0.2505,17.1669-0.6789,27.8022-1.1806
		c-1.167,2.0086-2.8468,5.5715-4.0139,7.2603C362.8986,146.9508,355.9815,148.7371,350.6226,150.1584L350.6226,150.1584z
		 M37.3959,148.5574c1.931-4.0379,3.4415-7.0914,5.2203-11.1387c3.0909,0.5397,4.3475,0.6922,6.59,1.0863
		c-1.1509,2.4381-3.8299,8.759-5.0425,11.1115C42.049,149.422,39.5281,149.0438,37.3959,148.5574L37.3959,148.5574z
		 M394.8932,149.5679c0.5006-1.2724,0.8476-2.213,1.1807-3.1283c5.0369,0.4181,10.9233,0.5162,16.3613,0.7674
		c0,0.443-0.6775,1.3164-0.6775,1.692C405.789,149.2335,400.3326,149.5679,394.8932,149.5679L394.8932,149.5679z M413.8967,148.8891
		c0.3339-0.7024,0.462-1.1375,0.7118-1.7561c3.1178-0.2508,22.7472-1.0349,30.9988-1.2736
		C434.5964,147.0295,424.5563,147.8859,413.8967,148.8891L413.8967,148.8891z M20.5125,147.9602
		c0.1454-0.9933,0.1349-1.8264,0.2636-2.524c0.4686,0,1.4927-0.0176,1.7796-0.0176
		C22.3459,145.8801,21.6426,147.0358,20.5125,147.9602L20.5125,147.9602z M396.7822,145.259
		c0.8251-1.6685,3.1479-6.6558,3.6598-7.9098c2.7508-0.2155,14.7889-0.9493,17.4722-1.2002
		c-1.9077,4.1386-2.2799,4.839-4.9272,9.5479C407.8215,145.5294,402.2307,145.5099,396.7822,145.259L396.7822,145.259z
		 M414.9038,145.8492c2.0004-4.396,3.7224-7.5431,4.6389-9.6855c4.2763,0,8.7859-0.3492,14.3088-0.3492
		c-1.02,1.785-4.1489,7.8109-5.0659,9.6066C424.0112,145.4212,420.6372,145.8492,414.9038,145.8492L414.9038,145.8492z
		 M370.8101,145.259c0.919-1.6826,2.9296-5.1815,3.7919-6.9063c3.556-0.0836,7.7743-0.2458,11.6492-0.3294
		c-1.584,2.2878-3.1808,4.9689-3.9308,6.0551C379.0147,143.2425,375.9433,143.7541,370.8101,145.259L370.8101,145.259z
		 M383.501,144.6688c1.3207-1.5208,4.0005-5.4896,4.9377-6.9109c2.9171,0.0434,10.1786-0.1726,10.2914-0.1726
		c-0.6703,1.4113-3.6008,6.4544-3.6008,7.4375C391.5035,145.0229,387.8695,145.003,383.501,144.6688L383.501,144.6688z
		 M430.6296,145.1703c1.5837-3.0535,4.3575-8.0907,5.1075-9.7687c3.4041,0,5.938-0.0941,9.2707-0.1772
		c-1.2501,2.611-3.5734,6.8933-4.8401,9.4445C437.416,144.9192,433.6023,145.1703,430.6296,145.1703L430.6296,145.1703z
		 M441.8202,144.6688c1.3116-2.283,3.4563-6.8298,4.8404-9.3855c3.4547-0.0751,6.6813-0.1281,10.3298-0.2951
		c-1.7067,3.2173-3.4075,6.2884-5.1945,9.1494C448.199,144.4103,445.7901,144.5852,441.8202,144.6688L441.8202,144.6688z
		 M20.953,143.8423c0.2427-2.4149,0.4499-5.087,0.8266-7.8506c0.5956,0,1.2257,0.1772,1.5347,0.1772
		c-0.3535,2.5997-0.6058,4.9776-0.9445,7.6734C21.8975,143.8423,21.4252,143.8423,20.953,143.8423L20.953,143.8423z
		 M337.7547,139.3562c1.5072,0,3.0322,0.0099,5.3124,0.1771c-0.4717,0.9703-1.1529,2.0761-1.6529,2.7743
		C340.5596,141.4717,339.005,140.4279,337.7547,139.3562L337.7547,139.3562z M24.0924,141.8705
		c0.1939-0.8853,0.3458-1.9831,0.4362-2.5143c0.3543,0.0592,1.1931-0.0278,1.5474,0.0312
		C25.3002,140.2874,24.8231,141.1397,24.0924,141.8705L24.0924,141.8705z M335.883,137.9397
		c-0.8334-0.7849-2.2323-1.5253-2.8993-2.3613c4.3671,0,8.9011-0.1768,12.8577-0.1768c-0.4924,0.8107-1.7118,2.3746-1.7118,2.6067
		C340.9031,138.0083,339.6675,137.9397,335.883,137.9397L335.883,137.9397z M345.9902,138.0919
		c0.7504-1.2739,1.584-2.3006,1.9171-2.8675c8.9833-0.1673,18.4297-0.4921,27.1528-0.8263c-0.2106,0.421-1.4165,2.251-1.7499,2.7743
		C365.079,137.4229,352.6873,137.9247,345.9902,138.0919L345.9902,138.0919z M28.7279,137.9085
		c1.5959-2.3315,3.5881-5.2098,4.267-6.2258c0.9632,0.0482,1.5267,0.2806,2.4055,0.3779c-0.4952,0.8668-3.0209,5.2568-3.6028,6.1396
		C30.8717,138.0542,29.8008,137.9085,28.7279,137.9085L28.7279,137.9085z M24.7899,137.5854
		c0.059-0.354,0.1179-0.7084,0.2361-1.0035c0.354,0,0.7673,0,1.1803,0c0-0.413,0-0.8263,0.0592-1.1803
		c-0.4785,0-0.239-0.1772-0.7673-0.1772c0.142-2.8758,14.4343-32.4652,18.8887-32.4652c0.5905,1.1804,0.6494,2.9515,0.8855,4.8991
		c-0.0108,0-15.9704,26.1681-18.2988,29.9271C26.1217,137.5854,25.6421,137.5854,24.7899,137.5854L24.7899,137.5854z
		 M375.5323,136.9951c0.6667-1.0346,1.2464-1.8221,1.6075-2.4202c2.4171-0.0244,10.9675-0.1768,12.0974-0.1768
		c-0.3688,0.737-1.1815,1.6637-1.7606,2.2427C383.1773,136.8917,379.8506,136.9951,375.5323,136.9951L375.5323,136.9951z
		 M389.3552,136.5918c0.6542-1.0071,1.1911-1.618,1.5242-2.3612c3.6686-0.2509,6.7218-0.2657,9.7396-0.5162
		c-0.1514,0.7583-1.2535,2.4284-1.2535,2.6215C396.4228,136.3359,393.3353,136.5082,389.3552,136.5918L389.3552,136.5918z
		 M401.3862,135.8145c0.0944-0.6619,0.8266-1.9122,0.8266-2.1005c2.3799-0.062,14.5528-0.2228,16.5867-0.2509
		c-0.059,0.1772-0.5347,1.0823-0.5936,1.3184C412.2866,135.1161,407.6369,135.4801,401.3862,135.8145L401.3862,135.8145z
		 M21.9397,134.6339c0.3583-9.5621,15.5897-28.9826,16.6961-28.9826c-5.4624,9.7971-11.3871,19.1271-14.7314,29.1597
		C23.0963,134.8111,22.7096,134.6339,21.9397,134.6339L21.9397,134.6339z M330.9663,133.8076c0-0.0587-2.8437-2.2924-2.9024-2.2924
		c1.7867-2.5636,3.2629-4.9484,4.2012-6.3255c7.2187,0,13.7307-0.2361,21.0138-0.2361c-1.374,2.1603-4.451,6.4097-5.7847,8.6768
		C342.3156,133.6304,337.141,133.8076,330.9663,133.8076L330.9663,133.8076z M420.0255,134.9832
		c0.1667-0.4626,0.4164-1.2005,0.6664-1.6036c5.3844-0.0836,8.5984-0.0833,14.4689-0.1669
		c-0.0593,0.1179-0.9763,1.3229-0.9763,1.5001C429.6511,134.7127,425.0221,134.9832,420.0255,134.9832L420.0255,134.9832z
		 M447.3447,134.0585c0-0.1182,0.3095-0.5709,0.4515-0.856c2.1218,0,8.3208,0.1771,9.7651,0.1771
		c0,0.0589-0.2501,0.6197-0.2501,0.6789C455.566,134.0585,449.2622,134.0585,447.3447,134.0585L447.3447,134.0585z
		 M349.1469,133.8076c1.4482-2.2665,4.3985-6.6909,6.0208-8.854c1.9749,0,23.1523-0.2548,26.4444-0.3543
		c-2.0977,3.0257-3.7228,5.6058-5.4445,8.382C366.72,133.3158,359.2716,133.6237,349.1469,133.8076L349.1469,133.8076z
		 M436.2983,134.4664c0-0.059,0.4175-0.787,0.8337-1.3476c1.3578,0,7.4421,0,8.8586,0c-0.1667,0.6188-0.3782,0.7089-0.7118,1.1905
		C442.2916,134.3093,439.4416,134.4664,436.2983,134.4664L436.2983,134.4664z M378.1883,133.2174
		c2.0084-3.4024,4.1375-6.7357,5.4601-8.8174c4.9643,0.0235,10.2915,0.0366,12.8838-0.0471
		c-2.1509,3.3086-4.0703,6.0851-6.0659,8.7463C386.3343,133.0993,382.2615,133.1585,378.1883,133.2174L378.1883,133.2174z
		 M392.522,132.8827c2.3065-3.4248,4.4555-6.0951,5.9131-8.5195c1.917-0.0465,6.1991-0.0688,6.906-0.0688
		c-1,1.9927-2.9268,6.1401-4.1317,8.0373C398.8257,132.5972,394.0867,132.767,392.522,132.8827L392.522,132.8827z M402.8619,132.273
		c1.2501-2.0463,3.452-6.109,4.25-8.0867c5.5644,0,10.6325,0,15.8196,0c-0.7501,1.6991-2.6674,6.1798-3.4237,8.0867
		C414.2549,132.273,408.3292,132.273,402.8619,132.273L402.8619,132.273z M420.9836,132.273
		c1.167-2.2845,2.8876-5.832,3.7188-7.9098c3.5578,0,11.2751-0.0933,16.4027-0.0933c-1.8335,2.626-3.6836,5.6265-5.1843,7.7669
		C430.8492,132.0368,425.7313,132.273,420.9836,132.273L420.9836,132.273z M448.2542,132.1105
		c1.5001-2.5693,3.3849-6.0758,4.309-7.9242c4.072,0,7.6204,0,11.0383,0c-0.4881,0.976-4.2564,6.715-5.0904,8.0867
		C454.6603,132.1057,452.246,132.1105,448.2542,132.1105L448.2542,132.1105z M437.6918,131.9531
		c1.7538-2.7648,3.1967-5.0125,4.7222-7.6736c1.9919,0,6.0611-0.1304,8.3784-0.1869c-0.8929,1.7864-2.8468,5.6154-4.0139,7.816
		C444.1599,132.1454,440.1274,131.979,437.6918,131.9531L437.6918,131.9531z M326.7163,130.5022
		c-1.1665-1.0843-3.4866-2.9514-3.6006-2.9514c0-0.32,0.9836-2.0364,1.1806-2.4301c1.8185,0,3.8217,0.0788,6.2431,0.0788
		C330.0606,126.1575,327.9669,128.9964,326.7163,130.5022L326.7163,130.5022z M136.7653,128.9085
		c-0.1534-4.5439-0.6296-11.5121-0.6296-15.3474c10.7739,0.2509,21.3545,0.4328,33.8621,0.7673
		c0.2854,5.3025,0.5462,9.6857,0.7084,15.4361C159.9816,129.4298,148.3913,129.3263,136.7653,128.9085L136.7653,128.9085z
		 M172.3591,129.6759c0-5.2322-0.5349-10.1909-0.6494-15.3474c6.0846,0,17.1559,0.1497,22.7849,0.1772
		c0.9167-1.6549,2.4514-4.8643,3.0694-6.6703c2.0551,0,4.4178,0.1724,6.0797,0.1724c0,7.147-0.0003,14.0179-0.3053,21.2102
		C200.7543,129.2181,172.6499,130.2578,172.3591,129.6759L172.3591,129.6759z M81.2794,128.9085
		c2.3417-4.6131,6.0075-11.5674,7.9787-15.5098c4.3038,0.3344,8.6199,0.6788,11.5792,0.8461
		c0.3297,3.2969,0.7668,11.5563,0.9836,15.2538C94.215,129.3314,87.9697,128.9921,81.2794,128.9085L81.2794,128.9085z
		 M103.5327,129.4987c-0.1499-2.8409-0.659-12.2737-0.8263-15.3473c8.7094-0.0275,22.2557-0.413,31.7078-0.413
		c0.307,5.0768,0.7109,9.8852,0.7574,14.993C124.3954,129.0658,114.1028,129.3099,103.5327,129.4987L103.5327,129.4987z
		 M204.9076,129.3215c0-7.0948,0.339-14.1035,0.2117-21.2346c2.571,0,20.243,0.4175,32.7603,0.752
		c-2.1078,5.5704-5.616,13.3761-8.913,20.4825c0,0.059,0,0.1182,0,0.1772C219.4581,129.4987,213.1422,129.3215,204.9076,129.3215
		L204.9076,129.3215z M46.63,125.3666c2.1577-3.7485,5.8578-10.0894,7.8582-13.3991c10.8292,0.418,21.9427,0.7523,33.1662,1.0035
		c-2.4409,4.6641-5.6427,11.0562-8.3126,15.8587C69.3718,127.9101,58.3388,126.7879,46.63,125.3666L46.63,125.3666z
		 M319.751,124.9536c0.8856,0,1.8301,0,2.7746,0c-0.0941,0.2347-0.7083,1.5349-0.7083,1.5937
		C321.4949,126.5473,319.751,125.1781,319.751,124.9536L319.751,124.9536z M36.7046,124.5298
		c1.5528-2.7014,5.9607-9.5595,7.6788-12.592c0.4842,0,2.3074,0.0541,3.1827,0.0541c-1.5336,3.2496-6.2175,10.7175-7.488,12.7845
		C39.2747,124.7764,37.6176,124.6004,36.7046,124.5298L36.7046,124.5298z M249.0949,115.0905c0-4.0595-6.8156-7.4664-7.7327-7.6091
		c-14.4056-0.3347-29.7504-1.0035-42.7498-1.0035c0.6667-0.9479,1.2396-1.7747,1.4896-2.5384
		c36.2052,0.7623,68.6854,1.5724,107.9617,2.7153c0-0.9185,10.2115,8.0963,10.2115,9.8577
		C294.1601,116.3221,270.696,115.8526,249.0949,115.0905L249.0949,115.0905z M236.9944,114.7418
		c0.8337-1.8212,2.1348-4.6284,2.5971-5.9028c2.7635,0,7.1093,3.3905,7.5558,6.0698
		C243.2227,114.9088,240.127,114.7418,236.9944,114.7418L236.9944,114.7418z M176.3627,113.3052
		c0.1236-2.054,0.2466-4.0842,0.4966-6.0701c6.2822,0.2509,12.5824,0.3495,18.7566,0.6003c-0.3589,0.718-2.7256,5.298-2.7256,5.4797
		C187.4042,113.3151,181.6156,113.3052,176.3627,113.3052L176.3627,113.3052z M145.7968,112.3806
		c-0.0593-1.4165-0.1772-2.5333-0.0593-3.5369c0.2738-0.32,0.8847-1.1712,1.3014-1.682c7.7644,0.1669,14.9865,0.4918,22.6188,0.4918
		c0.2361,1.5347-0.1123,3.7972,0.1239,5.3911C161.7082,112.7935,152.7374,112.4642,145.7968,112.3806L145.7968,112.3806z
		 M113.3312,112.7938c0.1083-2.0069-0.0833-3.8613-0.0391-5.8094c6.0568,0,15.2019,0.2921,21.1221,0.4969
		c-0.119,1.5764-0.1038,3.3058-0.0099,4.8992C126.298,112.6308,121.4738,112.7102,113.3312,112.7938L113.3312,112.7938z
		 M90.3893,111.9675c1.3927-1.9823,3.4642-5.8292,3.5073-5.8292c2.5923,0.0079,6.9361,0.1624,7.5702,0.1624
		c-0.0763,2.1365,0.0062,4.1463-0.2951,6.257C97.923,112.5577,94.1659,112.2181,90.3893,111.9675L90.3893,111.9675z
		 M102.9426,112.5577c0-1.4649-0.0845-3.6618,0.1772-5.6667c2.3224,0,4.9266,0,6.9061,0c-0.0145,1.3578,0.1182,3.9943,0,5.8241
		C107.6651,112.715,105.0246,112.5577,102.9426,112.5577L102.9426,112.5577z M136.0569,112.3806
		c-0.0677-1.8111-0.0147-3.0365-0.059-4.8992c2.6563,0,5.3127,0,7.9688,0c0.059,1.5936,0.1182,3.2466,0.1772,4.8992
		C141.5125,112.3806,138.4,112.3806,136.0569,112.3806L136.0569,112.3806z M172.1159,113.0594
		c-0.0607-1.9877-0.1276-3.7411-0.0697-5.7455c1.3425,0,2.2342,0.015,3.3268,0.015c-0.0831,2.2144-0.0686,3.7133-0.2356,5.8141
		C175.0191,113.143,172.2338,113.0594,172.1159,113.0594L172.1159,113.0594z M70.8765,111.2785
		c0.5839-1.0933,1.9839-4.0434,2.7292-5.2138c4.7511,0.0358,17.4294-0.1771,18.5939-0.1771
		c-0.5386,1.3464-3.9549,5.8439-3.9549,5.9028C82.1966,111.4555,76.7618,111.5287,70.8765,111.2785L70.8765,111.2785z
		 M50.3636,110.4637c-0.4133-1.7708-0.4281-3.2496-0.7821-5.0204c2.1263,0.1457,4.0481,0.2985,6.6112,0.4442
		c-0.4995,1.2484-1.7787,3.7125-2.3613,4.7883C52.9247,110.6758,51.6613,110.6098,50.3636,110.4637L50.3636,110.4637z
		 M47.5366,110.5125c-0.1772-1.1807-0.2571-2.2638-0.3753-3.4445c0.3572-0.5745,0.6281-1.066,0.993-1.5522
		c0.2954,1.2396,0.5803,3.0591,0.7742,4.9478C48.574,110.4637,47.8316,110.5125,47.5366,110.5125L47.5366,110.5125z
		 M55.4843,110.6098c0.8124-1.9151,1.1662-2.5665,1.9826-4.4714c3.4271,0,9.6095-0.0737,14.1908-0.0737
		c-0.4774,1.075-1.8017,4.0532-2.552,5.0366C64.5538,110.9343,60.6505,110.7769,55.4843,110.6098L55.4843,110.6098z
		 M147.8479,106.1384c3.435-4.4521,15.1849-20.0339,17.1377-22.9714c1.5301-0.2509,2.9625-0.3101,4.3631-0.4774
		c0.1812,7.0739,0.3149,16.7995,0.3149,23.6111C162.1147,106.3007,154.93,106.1384,147.8479,106.1384L147.8479,106.1384z
		 M177.0813,105.8923c0.1672-2.9212,0.3388-6.6036,0.5901-9.4493c3.2395,0,6.9911,0.4133,9.9757,0.4133
		c0-0.1072,0.8226-1.926,0.9445-2.5971c0.7937,0,1.7492-0.1772,2.4792-0.1772c0.1463-1.0969,0.0473-3.486,0.4132-4.3089
		c2.4506,0,4.5655-0.064,6.67-0.064c0.004,2.5242,0.0462,11.0007,0.0589,13.4779c-0.248,0.7458-1.1905,2.5854-1.7742,3.1138
		C190.1411,106.3007,183.6614,106.0593,177.0813,105.8923L177.0813,105.8923z M113.2332,105.4744
		c-0.0009-12.7106-0.0782-26.4648-0.0788-38.9582c14.9505,0,30.4455,0.8947,42.3819-1.9479
		c2.5608,5.7623,5.1905,11.8009,7.9095,17.8852c-4.0422,5.4164-14.3929,19.2909-17.8214,23.434
		C135.0928,105.8875,125.0171,105.4744,113.2332,105.4744L113.2332,105.4744z M172.1969,105.8776
		c-0.0411-5.2186-0.2242-18.3237-0.2018-23.6061c0.059-0.059,2.6612,0.0148,3.5515,0.0148c0,1.8343,0.0924,4.0323,0.2066,6.07
		c5.0746,0,9.5536-0.0836,14.6977-0.0836c-0.1962,1.3138-0.4578,2.8522-0.7033,4.4518c-0.6494,0.118-1.4068,0.2358-1.997,0.3541
		c0,0.059-1.0066,2.414-1.107,2.7153c-3.9155-0.3915-6.7473-0.4527-10.4476-0.4527c-0.1105,1.9503-0.5629,8.1624-0.6936,10.5364
		C175.0302,105.8776,172.6099,105.8776,172.1969,105.8776L172.1969,105.8776z M94.6787,104.7072
		c2.8338-11.5662,5.559-26.6562,7.3783-38.9585c3.1989,0,5.5281,0.2658,8.2639,0.2658c0.0595,12.8812,0.0385,26.3733-0.2951,39.2828
		C104.6382,105.2973,100.6329,105.0413,94.6787,104.7072L94.6787,104.7072z M58.4358,104.884
		c4.5009-11.3494,9.2707-26.2482,10.2708-40.7437c4.8464,0.5016,9.4283,1.0281,14.0485,1.1954
		c-2.4463,15.8176-7.4469,31.9291-10.448,39.4647C67.3941,104.8004,63.6081,104.884,58.4358,104.884L58.4358,104.884z
		 M49.2864,104.2938c-0.059-0.4133-0.059-0.8264-0.059-1.1807c6.192-7.357,9.269-33.3206,10.0936-39.9026
		c2.6524,0.2508,4.7888,0.61,7.6737,0.9445c-0.5,14.853-5.3765,28.1716-10.0939,40.5522
		C54.1439,104.7072,51.9212,104.4608,49.2864,104.2938L49.2864,104.2938z M73.7828,104.884
		c5.2793-13.0682,8.115-26.0642,10.3297-39.5483c5.6588,0,11.1118,0.413,16.1737,0.413
		c-1.459,12.0347-4.2942,27.3318-7.3783,38.9585C86.1118,104.7072,80.9242,104.884,73.7828,104.884L73.7828,104.884z
		 M201.8139,102.6067c-0.417-0.2302-0.735-0.9745,0-1.4414c35.3721,0,65.8758,2.5514,102.1169,2.5514
		c0,0.059,2.1354,1.7011,1.8995,1.7011C305.8304,105.4768,212.2536,102.6067,201.8139,102.6067L201.8139,102.6067z
		 M46.4849,106.3784c-0.2424-1.8175-0.2506-1.0547-0.6939-3.2722c0.1179,0,1.3495,0.142,2.1739,0.3293
		C47.4824,104.3114,46.8891,105.5998,46.4849,106.3784L46.4849,106.3784z M204.6471,96.8563
		c3.0563-4.2693,7.4214-9.3159,7.9098-13.2222c-2.0367-4.4215-7.7647-15.9273-10.2708-21.0138c3.1955,0,5.3518-1.2966,5.6667-4.3682
		c0.0828-5.5312-6.0296-4.7863-11.7468-5.0763c-1.7725-3.4155-13.1097-23.9176-14.6976-24.2176
		c-10.2955-0.8702-20.8228,1.6348-24.6736,4.1483c-1.4162,4.324,4.4461,12.9186,7.6734,17.8853
		c-4.1632-0.2971-9.896-0.6605-13.7534-0.8835c-1.8218-5.4667-6.5296-14.9854-5.0173-17.9249
		c2.8701-2.848,20.2955-5.639,34.1181-5.5698c2.5415-0.0369,11.8695,0.934,13.1366,1.209
		c0.4292,0.0564,37.6563,50.8796,38.2176,53.6867c5.4935-0.2902,11.5237-0.7957,17.1178-1.2339c0-0.3532-0.1023-2.4937,0.574-2.7209
		c0.6098-0.3867,7.312,5.6046,7.2176,5.9025c2.5194,0,4.5967,0.1772,7.5558,0.1772c0.2095,2.6,0.2378,10.4548,0.2951,12.9861
		c0.2242,0.2577,1.0168,0.5479,1.3739,0c0.1965-3.1031-0.1196-10.241-0.0164-12.9861c5.4417,0,12.2785-0.1712,16.8452-0.1712
		c0,0.059,13.303,11.6183,18.1043,15.5186C267.9518,98.4979,234.1331,97.7263,204.6471,96.8563L204.6471,96.8563z M206.241,91.3078
		c-0.0544-1.3099-0.8265-2.4735-0.8265-2.863c-3.7729-0.9431-8.3617-0.3586-12.8679-0.4424
		c0.0201-0.0052,1.4363-4.3481,1.7708-5.7257c0.295,0,0.5901,0,0.8852,0c0.7302,1.1984,1.4457,2.1688,2.1841,3.3055
		c4.1321,0.059,8.2639,0.1179,12.3959,0.1771C209.5077,86.5844,206.6886,91.0229,206.241,91.3078L206.241,91.3078z
		 M177.1992,86.9989c0.0592-1.535-0.1327-3.3596-0.0737-4.8353c4.5423,0,10.2782,0.1131,15.126,0.1131
		c0.0802,1.5131-0.1395,3.0855-0.4133,4.7384C187.5193,87.015,182.6656,86.9989,177.1992,86.9989L177.1992,86.9989z
		 M164.3903,81.096c-1.8366-4.837-5.1287-12.4965-6.9653-17.1181c3.7279-0.6766,7.3194-1.3578,11.2153-1.9375
		c0.0459,4.1978,0.354,14.137,0.4722,18.2882C167.6555,80.6186,166.0795,80.9027,164.3903,81.096L164.3903,81.096z
		 M171.7689,79.9154c-0.1315-5.9585-0.1772-11.7355-0.1772-17.7084c3.6604,4.0598,15.5242,18.0034,15.5242,18.1216
		C181.9906,80.232,176.6176,80.012,171.7689,79.9154L171.7689,79.9154z M189.804,80.5058
		c-1.9332-2.209-12.0495-14.2875-16.0282-18.7821c2.1575,0,5.2838,0.1128,7.7276,0.1128
		c2.2232,3.483,10.1849,17.5946,10.6625,18.6693C191.6936,80.5058,190.2173,80.5058,189.804,80.5058L189.804,80.5058z
		 M194.0223,80.5058c-3.4951-6.9086-6.5968-12.2162-10.2118-18.7118c5.4796,0.3866,11.3116,0.7344,16.7048,1.0034
		c2.5954,4.8555,5.8209,11.592,8.4305,17.1238C204.0589,80.1654,198.846,80.2645,194.0223,80.5058L194.0223,80.5058z
		 M155.2628,62.9508c-26.9714-4.6911-63.7716-6.8-95.2271-2.2767c4.5232-4.1879,16.8656-7.7709,22.011-9.5052
		c51.5503-0.8376,69.6626,0.6588,122.2237,3.8417c3.3831,0.1585,2.2161,5.6027,0.1998,5.6027
		C188.6367,59.702,163.3925,57.8896,155.2628,62.9508L155.2628,62.9508z M166.4562,51.1689
		c-3.7695-5.8654-9.3042-13.0135-8.3228-17.1181c4.0493-2.6099,13.3177-4.1318,22.0121-4.1318
		c2.1266,0.7036,10.0494,15.8533,13.9947,23.2568C185.071,52.5817,176.0498,51.9116,166.4562,51.1689L166.4562,51.1689z"/>
</g>
</svg>
