<?xml version="1.0" encoding="utf-8"?>
<!-- Generator: Adobe Illustrator 21.1.0, SVG Export Plug-In . SVG Version: 6.00 Build 0)  -->
<svg version="1.1" id="MYAC" xmlns="http://www.w3.org/2000/svg" xmlns:xlink="http://www.w3.org/1999/xlink" x="0px" y="0px"
	 viewBox="0 0 469.8987 229.3003" enable-background="new 0 0 469.8987 229.3003" xml:space="preserve">
<g>
	<path fill-rule="evenodd" clip-rule="evenodd" d="M15.7432,224.9639c0-0.0632-14.0975-6.7533-14.8337-9.6991
		c-0.0635,0-0.1267,0-0.1902,0c-4.8816-10.7393,16.4778-9.5088,22.1133-9.5088c-0.4663-5.042-1.4051-10.1977-2.018-15.4678
		c-4.553-2.5673-6.5682-9.3217,0-10.5234c3.5116-0.11,7.1101,0.6716,8.5581,2.7261c9.8016-0.3495,21.3534-0.896,34.1053-1.7118
		c0.9944-1.002,3.0331-3.0773,3.9937-3.9938c0.8152-4.7381,2.1376-13.7755,2.9795-18.8274
		c1.2957-2.4962,11.3822-23.6982,12.5104-26.3199c-1.6736-0.233-2.9599-0.2375-4.4597-0.4709
		c-4.5051-0.0629-3.1385-10.1897,0.5397-10.1893c2.0971-0.1188,7.8026-0.1681,8.6525-0.1681
		c1.5562-3.8021,6.664-17.2594,8.2409-20.7292c5.9805,0,12.5402,0,20.3491,0c4.1125-6.3505,14.2645-23.6188,18.1936-29.9849
		c-0.5329,0-2.3542-2.6598-2.5415-3.5969c0.6228-3.2065,22.47-6.3264,28.9763-6.9897c-0.1845-18.5677-0.6018-40.5667-1.2677-58.9552
		c0.709-0.7073,0.7308-0.7529,1.3311-0.0457c0.4187,16.4018,0.9715,41.4249,1.3947,58.8107c6.1126,0,15.2022,0.4263,20.6895,0.824
		c-0.0527-16.9577-0.3439-35.5016-0.7844-52.2471c0.5389-1.3475,0.8748-0.7664,1.2044-0.3687
		c0,15.7756,0.5658,36.3381,0.8875,53.0598c0.6568,0,0.718,0.1901,1.4581,0.1901c0.663-14.9788,0.1364-35.2672,0.765-50.403
		c0.6202,0,0.4646,0.1902,0.8875,0.1902c-0.3702,16.2465-0.0147,34.1583-0.0677,50.4031c8.8976,1.4593,16.1045,2.863,24.5962,4.057
		c1.8791,3.9673-1.8782,7.6918-2.8069,8.3868c-0.8571,0-2.67-0.3243-4.8001-0.5894c-0.4266,5.4927-0.9411,10.476-1.3312,16.2919
		c0.2101,0,1.3312,1.4374,1.3312,1.6481c3.6589-0.7957,6.8516-1.6186,10.7767-2.2822c-0.9286,2.4023-2.8797,7.179-5.1346,11.6011
		c0.9034,0.6632,2.1107,1.8146,3.2329,2.876c2.9185-0.0573,8.4333-0.0587,10.0794-0.0587c0.269,2.0506,0.4813,4.8847,0.6857,6.8817
		c4.3758,3.1838,11.1206,9.1261,15.4794,12.0447c6.8984-0.1177,25.1564,0.2509,25.9912,3.1694c0,1.4828-3.4991,4.0101-5.7056,5.0714
		c3.1839,3.0288,8.6456,8.0433,13.8198,12.6785c64.131,0,128.6396,0.3112,192.5869,0.4439
		c1.3975-0.0804,1.4089,1.1183,0.5707,1.2677c-1.3209,0.1397-3.2565,0.33-4.7546,0.33c-1.6772,2.812-4.3699,7.9957-6.4661,11.5246
		c4.1589-0.4193,7.5464-0.798,11.0435-0.938c1.4304-0.2171,5.5823,2.2518,1.635,4.4881c0.2061-0.0037-26.0447,7.4474-27.449,8.2408
		c-14.9494,8.4467-28.1531,38.4996-33.2178,53.6936C277.1299,232.3085,126.7862,230.221,15.7432,224.9639L15.7432,224.9639z
		 M127.3146,221.6043c0-0.0672,6.1175-1.6161,7.9872-2.2811c-41.3277-1.6778-69.3459-1.2387-109.5423-4.6922
		c-0.8768-6.7221-2.4137-16.7173-3.2964-22.8214c13.1014,0.3696,25.0549,0.737,37.7187,1.0142
		c1.1854-1.6313,4.2091-5.798,5.3249-7.3536c121.1428,0,251.1947,12.8855,368.3115-13.5661
		c-7.6467,7.1249-21.1907,30.0597-26.3078,43.5509C317.2469,221.1904,218.4799,221.6043,127.3146,221.6043L127.3146,221.6043z
		 M1.9872,214.1872c-0.0751-7.691,14.2121-6.783,21.5535-6.783c0.2534,2.8528,0.5071,5.7688,0.824,8.6848
		c19.9823,1.5466,99.1043,4.0003,102.657,4.1273c-0.1902,0-0.5547,0.2378-1.6316,0.9502
		c-16.1918-0.2461-84.6224-1.0214-114.0647-1.9877C6.1998,217.9635,2.8317,216.3384,1.9872,214.1872L1.9872,214.1872z
		 M113.4313,192.8239c-0.2724-0.2491-0.163-3.4906,0-3.8035c0.3316-0.1638,8.7123-0.2183,9.1287,0
		c0.2724,0.2461,0.218,3.4946,0,3.8035C122.2216,193.0427,113.8424,192.988,113.4313,192.8239L113.4313,192.8239z
		 M145.2911,193.9407c-0.2724-0.2492-0.163-3.4906,0-3.8035c0.3316-0.1638,8.7123-0.2183,9.1287,0
		c0.2724,0.2461,0.218,3.4946,0,3.8035C154.0813,194.1595,145.7021,194.1048,145.2911,193.9407L145.2911,193.9407z
		 M177.788,194.5797c-0.2724-0.2492-0.163-3.4906,0-3.8035c0.3316-0.1639,8.7123-0.2183,9.1287,0
		c0.2724,0.246,0.218,3.4945,0,3.8035C186.5782,194.7985,178.199,194.7437,177.788,194.5797L177.788,194.5797z M363.3376,189.8225
		c-0.2043-0.1097-0.1224-1.817,0-1.9936c0.2486-0.1111,6.5339-0.7812,6.8463-0.6985c0.204,0.108,0.1633,1.8148,0,1.9933
		C369.9299,189.2646,363.6458,189.8772,363.3376,189.8225L363.3376,189.8225z M381.8156,187.9125
		c-0.2044-0.1097-0.1225-1.817,0-1.9936c0.2486-0.1111,6.5338-0.7812,6.8462-0.6984c0.2041,0.108,0.1633,1.8147,0,1.9933
		C388.4079,187.3547,382.1237,187.9672,381.8156,187.9125L381.8156,187.9125z M205.5777,194.8999
		c-1.1755-0.2492-0.7038-3.4906,0-3.8035c1.4295-0.1638,37.575-0.2183,39.3704,0c1.1744,0.246,0.9397,3.4945,0,3.8035
		C243.4886,195.1187,207.3494,195.0641,205.5777,194.8999L205.5777,194.8999z M22.7799,190.098
		c-1.3703-0.1913-8.5419-7.2065-2.1263-8.962c1.8479-0.0615,5.5344,0.0445,7.475,1.9887c0.0896-0.1312,0.3322,3.3069,0.3566,4.8813
		c10.0267,0.2772,20.7113,0.9904,30.5552,1.2679c0-0.1267,5.3915-6.7527,8.3047-10.0794
		c-2.4491,4.1601-5.2486,8.7457-7.8608,12.1714C48.0862,191.366,32.825,190.098,22.7799,190.098L22.7799,190.098z M68.6522,179.3213
		c1.0698-6.747,1.7334-12.5444,2.9401-19.0179c49.3452,1.7759,97.1008,1.9018,138.513,1.9018
		c0.125,5.5772-0.0028,13.2837-0.1083,16.6722c81.9894-1.3904,157.5335-4.9096,237.6408-17.4963
		c0.5562-0.1468,0.6852-1.0695,0.1902-1.2983c-4.0751,0.781-9.2936,1.5644-13.4875,2.1223
		c0.4093-0.9779,0.9981-1.7963,1.3964-2.7258c5.5181-0.4462,10.982-0.9334,17.1625-1.2679
		c-0.0634,0.4439-0.3971,0.951-0.3971,1.4581c0.3156,0.3722,0.7521,0.3719,1.3478,0c0.3337-0.542,0.5775-1.2093,0.982-1.7115
		c1.8907-0.2486,8.8293-1.0142,10.0485-1.0142c2.232-0.6125,5.0754,1.1353-0.3172,2.092
		C369.7108,184.6649,186.4719,181.4167,68.6522,179.3213L68.6522,179.3213z M211.1733,177.6939
		c0.0876-2.5146,0.0799-13.1343,0.024-15.4888c0.5072-0.0632,2.0775-0.0632,2.6482-0.0632c0,5.042,0.0201,10.5256-0.2313,15.552
		C213.3608,177.6939,211.3635,177.6939,211.1733,177.6939L211.1733,177.6939z M235.2724,176.875
		c0-4.6913-0.0987-11.1007-0.3172-16.1277c8.1958,0,15.5228-0.4439,23.5823-0.4439c0.1091,5.0295,0.2197,10.9723-0.114,15.9781
		C251.6084,176.4212,243.7519,176.875,235.2724,176.875L235.2724,176.875z M230.0144,176.8846
		c-0.0224-4.6942,0.0839-11.3718,0.0839-15.7382c1.0052,0,1.7941-0.1027,3.3786-0.1027c0.1406,5.1492,0.3481,10.7665,0.1919,15.8522
		C232.1576,176.896,231.4308,176.8846,230.0144,176.8846L230.0144,176.8846z M260.0199,176.231
		c0.1397-4.0813,0.1567-11.2896,0.2922-15.8383c8.3061,0,16.6326-0.4193,24.4063-0.4193c-0.0635,0.6342,0.013,2.2462-0.0505,2.8803
		c-1.6531,0-10.1287,0.4003-17.9546,0.7997C266.587,163.6534,260.3916,175.2638,260.0199,176.231L260.0199,176.231z
		 M308.0844,174.4951c-0.0482-2.1073-0.2148-9.4198-0.4178-12.0753c-6.1492,0.0428-17.7602,0.3444-21.1731,0.3444
		c0-0.5071-0.1902-2.0795-0.1902-2.9043c8.7386,0,16.4534-1.1886,25.2303-2.5861c0-0.0632,0.1995,12.1796,0.3169,16.9416
		C310.3814,174.2153,309.3972,174.4951,308.0844,174.4951L308.0844,174.4951z M313.4728,174.0755
		c-0.0142-6.0378-0.4192-13.1437-0.4192-17.106c5.2157-0.5582,8.392-0.9995,15.9247-1.7963
		c3.2839,1.5738,8.2296,4.2616,9.9408,5.0984c0,4.0573,0.2537,7.361,0.127,11.9251
		C329.9807,173.1752,321.517,173.3444,313.4728,174.0755L313.4728,174.0755z M340.6942,172.1133
		c-0.0663-2.9248-0.1264-9.5598-0.1902-11.9367c0.4876-0.0487,9.5494-1.0548,9.7053-1.2107c0.127,2.4088,0.184,5.3694,0.3109,7.8417
		c2.344-0.0105,6.9327-0.4694,8.3803-0.6089c-0.0697-3.0986-0.07-5.4728-0.0949-8.6213c0.6548-0.0932,1.6279-0.0343,2.3454-0.1837
		c0.019,4.0573,0.146,8.6655,0.2092,13.1031C354.8865,171.0546,347.6711,171.708,340.6942,172.1133L340.6942,172.1133z
		 M362.7041,170.516c-0.1071-3.8236-0.1964-12.1992-0.1964-15.8925c0.1267,0,1.8572-0.2092,2.0475-0.2092
		c0,4.9462,0.1743,11.0492,0.1967,15.9052C364.5617,170.3196,362.8308,170.4528,362.7041,170.516L362.7041,170.516z
		 M365.9498,170.0724c-0.0564-2.923-0.2766-12.8222-0.2599-15.842c0.3773,0,2.1138-0.1202,2.7448-0.1202
		c0.332,5.1021,0.5885,10.5812,0.5768,15.569C368.2343,169.8686,367.131,169.9168,365.9498,170.0724L365.9498,170.0724z
		 M370.2987,169.4576c-0.1902-3.994-0.1018-8.761-0.2285-12.6913c11.2691-0.1429,14.4295-0.2858,21.6045-0.2855
		c0,3.8673,0.1012,7.2703,0.1012,11.1761c-1.6937,0.2092-5.9212,0.7137-8.2222,0.9383
		C378.3956,168.9439,375.4535,169.1784,370.2987,169.4576L370.2987,169.4576z M393.0312,167.6128
		c-0.019-0.6655,0.0127-0.9065,0-1.4834c0.4853,0,1.4749-0.0303,2.1869,0.0442c-0.1267,0.5072,0.019,0.8748-0.0443,1.3819
		C394.6032,167.5555,393.5383,167.5493,393.0312,167.6128L393.0312,167.6128z M396.5875,167.4223
		c0-0.8249,0.2472-1.3257,0.2472-1.5721c2.0387,0,11.6958-0.4082,17.6927-0.5134
		C408.8675,166.0342,401.2012,167.0042,396.5875,167.4223L396.5875,167.4223z M351.9398,165.4448
		c-0.0139-0.8716-0.0252-1.3549-0.0252-2.162c1.1906,0,2.4627-0.1395,3.6136-0.1395c0.6973-0.1856,0.6905-1.5655-0.3932-1.5655
		c0-0.0633-2.7482-0.0065-3.2205-0.0065c-0.3169-1.0143-0.1267-2.1555-0.1267-2.7258c1.1347,0,2.442-0.2537,3.4866-0.2537
		c0.5579-0.2174,0.6465-1.4199-0.1902-1.5466c-1.0361,0-1.6265,0.0884-3.0427,0.0884c-0.0635-0.3801-0.127-1.1092-0.127-1.4261
		c1.9083-0.1397,3.5646-0.2664,5.2617-0.4756c0.2086,2.2994,0.4077,7.4004,0.4184,9.9275
		C355.3349,165.2294,353.8232,165.4448,351.9398,165.4448L351.9398,165.4448z M392.8599,164.9502c0-1.1412,0.07-2.7005,0.07-3.7783
		c1.6877,0,1.7779-0.0445,2.8525-0.0445c-0.1395,0.951-0.2852,2.4724-0.4436,3.8038
		C394.4309,164.9312,393.4694,164.9502,392.8599,164.9502L392.8599,164.9502z M396.7967,164.9312
		c0.2092-1.4516,0.3169-2.5359,0.5706-3.8038c6.8459-0.1395,14.5298-0.4368,21.056-0.5763
		c-0.3804,0.8875-1.0239,2.605-1.3408,3.5558C410.9904,164.4556,403.3481,164.7914,396.7967,164.9312L396.7967,164.9312z
		 M418.9843,164.1069c0.4266-1.1223,1.0024-2.6974,1.3547-3.6544c4.7288-0.2664,8.7114-0.3696,13.4399-0.8158
		c-0.2636,0.6588-0.8952,2.0543-1.3402,2.7134C427.0846,163.1616,424.1995,163.5068,418.9843,164.1069L418.9843,164.1069z
		 M113.2414,160.3034c7.7596-8.6826,19.8238-21.316,25.1629-26.9399c2.5642,0,5.7172,0.2352,7.7153,0.2352
		c-3.5081,4.2634-11.6776,14.7745-16.2059,20.5558c10.4992,0,22.2304,1.2676,33.2178,1.2676c0-3.6309,0.2588-15.0882,0.6055-21.3369
		c0.8357,0,2.0396,0.0411,2.5639,0.0411c-0.1063,7.3548-0.4436,13.9606-0.4436,21.2958c8.4705,0.2126,17.8733,0.444,27.5553,0.444
		c0.1227-7.2482,0.2704-14.3218,0.6279-21.4696c1.1356,0,2.4256,0.1063,3.64,0.1063c0,6.1174-0.0082,14.7415-0.2126,21.4591
		c2.4281,0.1063,7.8324,0.0737,10.7169-0.0618c0.1922-6.2257,0.1741-14.3311,0.1171-21.1439c1.7719,0,4.2375-0.0445,5.5437-0.0445
		c0,8.3298,0.1689,17.5589,0,26.0356C183.8896,160.7473,146.4393,160.7288,113.2414,160.3034L113.2414,160.3034z M85.6651,159.263
		c5.9125-6.243,14.7926-16.7703,21.0447-23.9176c-1.5418-1.382-2.5688-1.9302-3.7381-2.9307
		c10.3595,0.4251,22.0397,0.8201,33.7249,0.8201c-3.4019,3.6685-18.4907,19.8739-25.0364,26.6213
		C102.6826,159.6432,93.9911,159.263,85.6651,159.263L85.6651,159.263z M397.502,159.7025
		c0.4436-2.6626,1.0063-5.4848,1.5137-8.0839c9.0896-1.0602,16.1374-1.8332,24.6271-2.9489
		c-0.7239,1.8105-3.5212,8.1298-4.6891,10.4485C412,159.366,404.1396,159.7025,397.502,159.7025L397.502,159.7025z
		 M72.0033,158.1462c2.6272-5.832,10.1078-21.2564,12.384-26.2751c6.4117,0,11.0676,0.3393,16.5129,0.4456
		c0,0.1837,2.7935,2.2581,3.9098,3.0735c-1.9806,2.7701-20.3601,23.6231-20.5376,23.6231
		C80.544,158.6579,75.0001,158.496,72.0033,158.1462L72.0033,158.1462z M392.93,159.6695c-0.0635-1.4581-0.127-3.1314-0.127-4.5261
		c-1.1135,0-2.9979,0.0885-4.4373,0.0885c0-0.6973,0.0632-1.6733,0.1267-2.3706c2.5926-0.3487,6.1424-0.7101,8.875-0.989
		c-0.3118,2.6496-0.6239,5.2217-1.2679,7.7972C394.7039,159.6695,394.095,159.6695,392.93,159.6695L392.93,159.6695z
		 M230.0739,159.6695c-0.0502-7.9118-0.317-17.4929-0.317-25.4934c0.4944,0,2.0245-0.0516,2.6328-0.0516
		c0.3041,5.3187,0.3932,11.1706,0.4527,15.9642c6.4709,0,21.6116-0.2962,28.7601-0.425
		c-2.6638-2.5613-14.1752-14.1686-16.6065-16.5262c1.3652-0.2832,3.5932-0.631,3.7154-0.5366
		c0,0.9799,16.1243,14.8646,17.75,16.1651c3.4923-1.3265,5.3059-2.4088,7.7151-3.6028c1.061,1.0182,5.7495,5.1361,6.9919,6.4554
		c15.3493,0,33.0556,0.8115,45.9382,2.6685c-8.1482,0.487-27.8685,3.2321-33.1962,3.9243
		C271.4379,158.8974,249.4957,159.2968,230.0739,159.6695L230.0739,159.6695z M420.9111,159.0212
		c1.9102-4.2744,2.9177-7.0767,4.5382-10.5724c1.7365-0.1114,3.5943-0.2129,5.5162-0.3801
		c-0.8433,2.9276-2.4693,8.4149-3.1918,10.7206C425.1372,159.0128,422.9792,159.0212,420.9111,159.0212L420.9111,159.0212z
		 M340.6118,158.9152c0-0.5136-0.0507-1.6154-0.0507-2.4344c3.2828-0.2092,6.8354-0.4499,9.769-0.6591c0,0.5071,0,1.2869,0,1.8572
		C347.3831,158.2369,344.4709,158.4968,340.6118,158.9152L340.6118,158.9152z M429.0637,158.5918
		c1.0386-3.2539,2.4211-7.8029,3.3597-10.7768c2.8323-0.3347,5.4544-0.6565,8.2411-1.0471
		c-2.395,4.3345-4.1403,7.7207-6.1492,11.4435C432.6771,158.3384,430.8385,158.4651,429.0637,158.5918L429.0637,158.5918z
		 M436.4171,157.958c1.6169-2.9163,5.2191-9.591,6.2759-11.4109c2.0716-0.1111,4.0919-0.2687,6.4026-0.3801
		c-1.0012,2.7224-2.9758,8.2185-4.3107,11.2989C441.8004,157.6331,439.4292,157.8466,436.4171,157.958L436.4171,157.958z
		 M338.9506,158.763c-0.9068-0.5995-2.9478-1.5559-4.0632-2.2124c0.8113,0,3.3661,0.0003,4.0317-0.0697
		C338.9033,157.2422,338.8795,157.8565,338.9506,158.763L338.9506,158.763z M446.5601,157.3239
		c1.3495-3.3979,3.6343-9.0615,4.691-11.4106c3.2293-0.2792,6.132-0.4893,8.6213-0.8241
		c-1.2705,2.7604-5.1001,9.4201-6.4349,11.8239C451.1989,157.0251,449.1863,157.2125,446.5601,157.3239L446.5601,157.3239z
		 M358.7356,156.5444c0-0.3169,0-1.2679,0-1.5214c0.6342,0,1.5469-0.1398,2.181-0.1398c-0.0635,0.2537,0.0822,1.2745,0.0822,1.5914
		C360.0945,156.4747,359.5081,156.5444,358.7356,156.5444L358.7356,156.5444z M370.1213,155.6758
		c-0.1205-0.9634-0.0193-1.5854-0.0193-1.851c5.6356-0.2685,11.2391-0.6276,16.6788-0.7671c0,0.7022,0.0944,1.4757,0.019,2.2315
		C380.2344,155.508,375.8878,155.6758,370.1213,155.6758L370.1213,155.6758z M333.4293,155.5809
		c-0.9533-0.54-5.2614-2.3253-6.6441-2.8846c0-2.6716-0.309-5.6863-0.2277-8.7863c2.3519,0,13.0598,0.108,24.1022,0.3867
		c-1.0995,0.1522-0.5023,6.5086-0.4567,10.3014C344.9556,155.0732,341.6674,155.0712,333.4293,155.5809L333.4293,155.5809z
		 M351.8324,154.0975c-0.1267-0.4439-0.0445-1.6549-0.1077-2.035c0-0.5071,0-1.0146,0-1.4581c0.9507,0,1.9712-0.2092,2.9222-0.2092
		c0.6936-0.1896,0.6208-1.5778-0.0065-1.5469c-0.7325,0-1.8595,0.0445-2.8525,0.0445c0-1.0778-0.1457-2.1555-0.0822-3.1697
		c0.5437-0.976,4.0526-1.3754,5.0774-0.1202c0.1332,1.5214,0.3424,5.5658,0.33,7.9175
		C355.3885,153.7996,354.1857,153.8883,351.8324,154.0975L351.8324,154.0975z M358.7611,153.5204
		c-0.0887-3.3225-0.2554-9.1553-1.4768-9.2616c3.856,0.0201,28.2592,0.1145,29.4965,0.1522
		c0.1826,1.7791,0.1326,5.2821,0.114,7.1569c-5.8649,0.5332-10.4706,0.9386-16.7924,1.2172
		c-0.4289-4.6727-9.2648-4.2452-9.1225,0.6086C360.2193,153.3936,359.4585,153.4571,358.7611,153.5204L358.7611,153.5204z
		 M362.324,153.2797c-0.1921-2.8578,6.1552-3.8687,6.1552-0.5134C366.9694,152.7663,363.9721,153.2797,362.324,153.2797
		L362.324,153.2797z M300.7569,150.6044c-0.0459-2.2822-0.1726-4.5817-0.1902-6.5469c8.2777,0,15.1294-0.0284,24.2793-0.0284
		c0.0881,2.9185,0.3569,5.2676,0.4439,8.2236C317.3076,151.722,309.3008,151.135,300.7569,150.6044L300.7569,150.6044z
		 M388.4923,151.4284c-0.0635-2.2187-0.0573-4.8623-0.0573-7.0174c15.9505,0,28.2285,0.241,43.3672,0.1014
		c-0.1267,0.3169-0.3932,1.4644-0.4564,1.8445C417.2997,148.1002,401.6366,149.8943,388.4923,151.4284L388.4923,151.4284z
		 M281.739,150.1607c0-0.1786-4.5017-3.9427-6.2198-5.9131c6.7317,0,16.8275-0.1327,23.1457-0.1327
		c0.1267,1.9652,0.3169,4.4609,0.5071,6.4894C294.1057,150.6044,286.9034,150.1607,281.739,150.1607L281.739,150.1607z
		 M432.8505,146.3569c-0.0159-0.5474,0.1914-1.3184,0.2949-1.6353c1.8368,0.0555,5.0793-0.0647,8.2499-0.0023
		c0.0499,0.1256-0.1338,0.447-0.3855,0.7322C438.3617,145.7492,434.6403,146.1619,432.8505,146.3569L432.8505,146.3569z
		 M80.1503,129.8749c-4.9042-0.2444-3.3027-7.8171,0-7.6071c7.0214,0,32.2543-0.4986,41.8275-0.5306
		c2.0945-2.3301,5.8819-6.9509,7.1357-8.7588c18.5216-1.2816,35.4727-2.5511,54.4938-3.8328
		c0.0505,4.4822,0.159,10.0602-0.0224,15.1404c0.7376,0.7767,1.2867,0.5865,1.5656-0.1902
		c0.0731-4.9348-0.1361-10.1642,0.1684-15.1404c5.722-0.2654,28.0828-2.2578,28.0828-4.4376c3.0532,0,6.5058-0.0295,9.0652-0.0295
		c0.1171,1.2889,0.0414,5.2016,0.4439,6.1787c0.214,0,15.7212,12.5518,15.7212,12.6785c8.4283,0,18.4337-0.0995,24.6407,1.6481
		C259.0712,139.9875,106.6922,131.1564,80.1503,129.8749L80.1503,129.8749z M89.6591,120.5563
		c1.6758-3.8304,5.8144-14.586,7.0999-18.7642c22.2109-0.233,40.7976-0.6546,59.2722-0.6546c0-0.0558,1.8505-1.6707,2.5495-2.6657
		c8.7214-1.0555,16.7326-1.9827,25.4701-3.0191c0,3.4866-0.1902,7.196-0.4436,11.1265c-18.307,1.7476-36.127,3.3973-55.4686,4.9119
		c0,0.8169-5.3575,7.2702-7.215,9.1272C115.0491,120.2958,92.2267,120.5563,89.6591,120.5563L89.6591,120.5563z M185.3823,106.2294
		c0-3.7684,0.0023-7.3344,0.2534-11.1038c10.7141-1.1974,18.8762-2.166,26.9419-4.5541c-0.0448,0.0669-3.922,10.4471-5.7793,12.1022
		C205.7419,103.8678,191.3858,106.2294,185.3823,106.2294L185.3823,106.2294z M118.3126,99.8903
		c4.6432-7.1187,14.4969-23.6324,17.1913-28.3658c7.7465,4.3781,20.9387,13.3629,26.2517,16.6794
		c0,2.9199,0.1035,5.4079,0.1386,8.3438c-0.3526,0-2.9741,0.5751-4.7216,0.7418c0,0.0632-0.9213,1.8077-2.2085,2.5067
		C146.1097,99.78,123.8311,99.8903,118.3126,99.8903L118.3126,99.8903z M164.1457,96.0867
		c-0.0635-2.0919-0.127-4.1207-0.1902-6.1492c1.4649,0.6633,6.1154,4.1394,7.7618,5.2308
		C169.3671,95.5958,166.4154,95.8214,164.1457,96.0867L164.1457,96.0867z M174.4445,94.7437c0-0.1499-9.9326-7.0599-10.1721-7.0599
		c-0.1327-5.3901-0.5292-11.2065-0.951-16.954c6.2722,0,11.6858,0.1899,19.4616,0.1899c0,6.9344-0.2608,15.2753-0.3929,22.9493
		C179.6597,94.1343,177.9017,94.4784,174.4445,94.7437L174.4445,94.7437z M185.8259,93.3017
		c0.0884-4.9893,0.7801-17.2105,1.0777-21.9382c0.5706,0,1.5775,0.0635,2.2113,0.1267c0,6.7085-0.0048,14.5197-0.1267,21.4903
		C187.6495,93.1475,187.1695,93.3017,185.8259,93.3017L185.8259,93.3017z M190.2633,92.6633
		c0.1233-5.0272,0.142-13.2219,0.2537-18.574c1.14,1.4847,10.523,14.5803,10.65,14.5803c0.1902,0.951,0.1207,1.5732,0.1959,2.9044
		C197.9253,92.1046,194.6558,92.5309,190.2633,92.6633L190.2633,92.6633z M142.2175,73.2653
		c6.5517-1.7246,11.5532-2.403,18.9827-2.403c0,5.0094,0.4054,9.5222,0.432,15.0345
		C158.9413,84.1724,142.1542,73.392,142.2175,73.2653L142.2175,73.2653z M183.5579,93.7556
		c0.1199-5.3492,0.436-17.6656,0.5031-22.6976c0.413,0.0944,0.8569,0.1185,1.2606,0.1185
		c-0.1392,5.3002-0.6553,17.2255-0.8867,22.5167C184.3082,93.6931,183.6214,93.7556,183.5579,93.7556L183.5579,93.7556z
		 M190.418,71.5596c3.3228,0.398,8.8821,0.8422,12.6507,1.262c-0.5318,4.2815-0.9893,8.8334-1.5213,13.5026
		C199.3987,83.5383,191.8427,73.4515,190.418,71.5596L190.418,71.5596z M140.1842,72.1303
		c-3.0784-1.8474-5.7005-2.4882-6.2311-5.4402c8.4246-3.5815,29.5073-7.1658,51.8729-4.6451c0,2.2819,0.1902,4.881-0.3169,7.6071
		C170.3782,69.3867,154.5875,67.6198,140.1842,72.1303L140.1842,72.1303z M187.0995,69.652
		c0.3344-2.5359,0.1961-5.1349,0.3863-7.1634c7.0353,0.796,15.5483,2.5345,23.2535,3.9938
		c1.1818,1.9967-1.3462,5.0953-2.7261,5.0258C200.8107,71.1101,194.0314,70.3153,187.0995,69.652L187.0995,69.652z
		 M145.8336,179.2844c-0.3784-0.2491-0.2268-3.4906,0-3.8035c0.4601-0.1638,12.0946-0.2183,12.6726,0
		c0.3781,0.2461,0.3025,3.4946,0,3.8035C158.0365,179.5033,146.4039,179.4485,145.8336,179.2844L145.8336,179.2844z"/>
</g>
</svg>
