<?xml version="1.0" encoding="utf-8"?>
<!-- Generator: Adobe Illustrator 21.1.0, SVG Export Plug-In . SVG Version: 6.00 Build 0)  -->
<svg version="1.1" id="MYAC" xmlns="http://www.w3.org/2000/svg" xmlns:xlink="http://www.w3.org/1999/xlink" x="0px" y="0px"
	 viewBox="0 0 464.9907 353.6117" enable-background="new 0 0 464.9907 353.6117" xml:space="preserve">
<g>
	<path fill-rule="evenodd" clip-rule="evenodd" stroke="#000000" stroke-width="0.216" stroke-miterlimit="2.6131" d="
		M91.9051,353.5037C42.8547,246.8978,27.9745,229.685,3.4322,218.976c-2.8179-5.093,8.6037-5.6163,14.1772-5.6163
		c-2.2819-6.5353-11.6759-31.6998-16.1725-44.3387c-1.2019,0-2.1966-1.9954-0.148-1.9954
		c44.5836,4.087,89.4175,8.7999,128.8046,12.7843c0-0.2398,9.4927-23.5601,10.3459-25.8641
		c-2.1495,0.142-8.3404-0.1502-10.8969-1.478c-1.3275-2.4639,24.781-42.8967,38.8091-55.1784
		c-1.8811-5.0068-3.8616-11.5602-5.3734-16.503c6.8037-1.2421,14.019-2.2755,21.4305-3.3398
		c-0.6395-17.9054-1.5052-60.7456-2.0692-76.5587c0.4081-0.9465,0.8197-1.0798,1.3303-0.1332
		c1.2711,25.0375,1.9897,50.5312,2.5127,76.3367c29.4361-0.8872,55.2702-1.5968,87.791,0c4.4305,1.08,23.4224,5.1038,29.3374,6.2076
		c-0.366-16.1121-1.1375-32.4156-1.8473-48.5513c0.3248-1.2421,0.6967-0.9312,1.478-0.2217
		c0.8796,11.3348,2.048,37.9809,2.2906,49.512c9.2821,2.1293,20.7236,4.7278,30.5941,7.3895
		c-0.1746-23.6522-1.1151-63.1643-1.9636-85.7216c0.4825,0,1.0625-1.4669,1.9066,0.2216
		c1.6375,32.2122,1.9386,67.4048,2.1937,98.8019c0.3696,0,1.7059,0,2.1492,0c0,0.0739,0,0.1477,0,0.2216
		c12.4577,1.6597,26.3571,3.7734,38.6487,5.7651c0,0.4873,2.9004,8.0212,3.4733,9.5318c3.1998-0.7767,7.2621-1.3737,11.13-2.1506
		c12.272,1.4246,57.7757,5.6054,59.2362,6.8482c1.0502,0.7242,0.6653,3.4909-0.3107,3.8747
		c-1.7439,0.6925-4.293,1.919-6.6509,2.5123c0.3106,8.1882,0.7889,16.9279,1.1085,25.1254
		c4.4125,0.9321,8.6136,2.024,13.4496,2.9559c5.8847,31.4065,6.73,43.1275-0.3697,79.5144
		C388.2634,272.7401,226.3427,353.5037,91.9051,353.5037L91.9051,353.5037z M82.0998,326.1284
		c-0.0785-0.3821,0.0196-0.9607-0.3804-0.9607c-3.3585-11.1835-33.2768-66.2604-43.3301-80.2919
		c90.2083,10.2569,301.1094,21.53,425.3545-50.2861c0,7.9371-1.6274,21.2704-3.8044,29.5591
		c-8.7976,3.8044-23.2274,9.5894-30.306,13.2205c-0.7121,0.9414-0.8918,1.7941,0.8398,2.0929
		c0-0.074,28.0763-12.7032,29.1407-12.7032c-0.5752,2.7034-0.6021,2.3777-1.2552,4.4674
		C345.2731,283.1345,206.1643,326.1284,82.0998,326.1284L82.0998,326.1284z M36.9765,241.1455c0-0.5006-2.7371-1.1021-2.2793-2.4387
		c121.1859,16.1915,319.3843,10.099,419.7503-41.6046c1.7833-0.7388,2.1606-1.5724,2.1609,0.2216
		C362.2847,249.2318,172.2727,261.1467,36.9765,241.1455L36.9765,241.1455z M28.557,223.9272
		c-3.7003-0.7115-22.9447-5.1415-22.9819-7.3899c0.6128-2.846,45.218-0.7572,68.9298-0.7572
		c2.9545,0.881,17.4574,7.8772,23.2875,9.8467c136.6756,20.3091,262.0236,0.5207,304.5419-14.4839
		c-0.1777-11.2888-0.4558-24.5767-0.8867-35.4714c19.3266-5.2812,38.8749-11.0228,48.625-13.8188c0.2956-0.665,0-0.8357,0-1.2051
		c-1.2382-0.0989-2.1416-0.4421-3.2767-0.6401c0-0.4433,0.099-1.4802,0.099-1.8499c3.8594,0.7914,8.0994,1.6702,11.9954,2.4614
		c1.8796,9.2684,3.6199,18.8597,4.1145,29.0934C391.7993,237.872,148.3347,256.5937,28.557,223.9272L28.557,223.9272z
		 M201.6326,232.48c0.0825-2.7771,0.5448-13.1327,0.8073-17.6422c11.9319-1.2808,25.2465-3.1808,39.6093-5.315
		c0,2.7306,0.032,7.1215-0.3696,9.7489c-2.1079,0-4.5601,0-6.8723,0c-1.7079,0.6741-1.476,6.308-0.148,6.1966
		c2.4281,0,3.884,0.1587,6.2816,0.1587c0,1.8474-0.2384,4.464-0.0167,6.8287C229.2491,232.4556,211.3038,232.48,201.6326,232.48
		L201.6326,232.48z M243.284,232.2336c0.3469-2.2717-0.0153-4.4243,0.4485-6.6067c2.2615,0.5692,1.997-5.9119,0.3121-5.9119
		c-0.3716-3.3438,0.0916-7.1821,0.2216-10.5673c9.8592-1.7076,20.3219-3.9717,27.4901-5.3947
		c0.5692-0.8906,0.0522-1.5837-0.5174-1.7736c-7.0937,1.423-17.2029,3.1918-26.9727,5.184c0-4.0643,0.074-7.8443,0.1476-11.8347
		c4.1508,0,8.019,0.1144,11.8114,0.1144c0.6996-2.3459,1.9145-5.2832,2.4922-7.9478c1.2217,0,2.5053,0.2217,3.4319,0.2217
		c0,2.4261-1.9772,4.9328-1.478,7.931c6.2793,0.1423,11.2666,0.1703,15.8882,0.3127c-0.1423,11.9684-0.591,22.9711-0.591,34.8743
		C264.9957,231.4045,254.3043,231.949,243.284,232.2336L243.284,232.2336z M184.3922,232.0255
		c-0.7577-1.895-3.9118-11.4335-4.9924-13.4603c3.0047-0.4269,20.675-3.21,20.675-2.9886
		c-0.2506,5.8343-0.2611,15.5192-0.3693,16.6185C194.4824,232.1951,189.4776,232.0255,184.3922,232.0255L184.3922,232.0255z
		 M277.9276,230.3891c0.2517-11.5838,0.7152-22.5507,0.849-34.1436c7.0716-0.33,16.3354,0.2392,23.1301-0.2007
		c0.0788-0.7869,0.0433-7.4531,0-9.0667c0.739,0,2.8718-0.11,3.6848-0.11c0.7554,13.7404,1.4451,28.0219,1.665,41.3813
		C297.28,229.2391,288.015,229.9492,277.9276,230.3891L277.9276,230.3891z M127.8603,227.8872
		c-1.7237-4.4433-9.0448-21.9158-11.2901-27.8291c2.3842-0.4269,6.4927-1.0511,9.3849-1.0511
		c1.4771-4.7648,4.0944-12.9935,5.9119-17.7191c1.9094,0,2.8908,0.2957,4.6556,0.2957c0,2.2495-1.256,4.4338-1.6172,6.8726
		c9.5204,0.328,20.0132,1.1248,28.779,1.6169c1.1489,1.2668,2.6183,4.2477,2.7669,4.8121c-6.77,0-14.6528,0.2216-21.8001,0.2216
		c-0.6559,0.3241-1.3008,0.2646-0.3694,1.5847c7.5314-0.1188,15.7708,0.4108,22.7605,0.4108
		c-9.9071,1.6339-19.6838,2.9309-29.3873,4.244c-2.954,0.1222-2.1036,2.6266,0.4839,2.1342
		c8.5345-0.6982,21.3993-2.405,30.3074-3.718c0,0.5173,0.4436,0.739,0.074,1.478c-0.561,0-1.6838,0.0434-3.3253,0.2956
		c-4.0349,0.8207-15.3096,7.1193-8.8679,7.6117c0-0.074,0-0.1479,0-0.2217c5.0323,0,10.1276-2.2169,15.0752-2.2169
		c1.3785,2.9539,3.9365,7.0642,4.434,10.0499c-0.7268,0.3282-1.6926,0.2957-2.5863,0.2957
		c-0.985-0.0436-0.3943,2.3561,0.6075,2.0279c0,0.2911,2.4684-0.2216,3.1036-0.2216c1.313,3.1728,3.2704,8.6003,5.061,12.943
		C161.1759,231.2344,145.0054,229.4526,127.8603,227.8872L127.8603,227.8872z M308.5577,228.1738
		c0-6.5522-0.7013-25.4985-0.9799-32.1593c0-0.074,22.2817-1.2374,23.1871-1.2374c0,5.1923,0.4987,21.9224,0.5482,30.4821
		C324.8101,226.2489,316.0295,227.4295,308.5577,228.1738L308.5577,228.1738z M333.0918,225.1836
		c0-9.7407-0.4861-20.4681-0.5913-30.5938c4.0878-0.4399,13.0575-1.6111,13.8929-2.7396c1.4324-1.9338,0.237-4.4316,0.1479-6.5715
		c1.8995,0,6.2456-0.5156,7.6717-0.5156c0.9255,12.1932,1.7073,23.4958,2.6586,36.0657
		C349.5084,222.6984,339.5556,224.1937,333.0918,225.1836L333.0918,225.1836z M93.4143,222.3385
		c-1.1937-5.7053-3.8004-12.7015-4.9493-16.9924c7.0373-0.9847,17.4538-3.3675,26.0359-4.8446
		c3.2448,8.6278,8.0838,18.627,11.1665,26.8483C119.3751,226.6933,98.2672,224.6362,93.4143,222.3385L93.4143,222.3385z
		 M281.2152,221.4886c-0.7515-1.135-1.1596-2.9429,0.1477-5.6903c1.3751,0,2.1413-0.2217,3.6949-0.2217
		c0.5173,1.1087,1.1086,3.769,0.2216,5.6163C283.746,221.193,282.6206,221.4886,281.2152,221.4886L281.2152,221.4886z
		 M357.8408,220.7496c-0.5323-9.7155-1.851-26.4084-2.511-35.7667c8.0629,0.6599,9.0173-0.6154,9.0173-1.9196
		c1.1823-0.074,1.9987-0.184,3.255-0.184c0.0777,3.6584,3.568,2.7326,5.9822,2.4027c0.3189,5.9532,0.9695,26.9767,1.0381,32.0411
		C368.3536,218.5692,364.3982,219.7598,357.8408,220.7496L357.8408,220.7496z M375.9528,217.0257
		c-0.2588-6.3351-0.6429-25.842-0.739-32.0428c8.1729-1.0999,11.4542-0.9544,11.4542-5.912
		c1.8885-0.3299,3.0955-0.4433,4.8033-0.7733c0.4399,11.011,1.1154,22.7952,1.2563,34.545
		C388.7509,214.0522,381.4455,215.8159,375.9528,217.0257L375.9528,217.0257z M178.4968,216.759
		c-0.9958-2.395-3.5683-8.1-4.6556-10.789c7.4908,0,12.5595-8.6462,0.2217-8.6462c-1.6778-0.2831-3.1244-0.8303-4.8773-1.6996
		c-1.2753-3.4631-2.7159-6.5398-3.9166-9.9022c0.0842-0.6733,0.5913-1.8584,0.5913-1.9213c1.47,0,3.5336,0.2216,5.1069,0.2216
		c-0.1641,2.9517-0.6925,4.021-0.8379,7.1691c8.0201,0.328,20.4412,1.4281,31.0544,1.9205c0,6.5253-0.3835,13.4907-1.1713,20.4698
		C193.6772,214.2928,185.7639,215.9052,178.4968,216.759L178.4968,216.759z M85.3687,218.4487
		c0-2.4466-1.6756-11.1889,1.3138-11.1889c0.8393,2.3981,3.4858,10.2002,4.7444,13.6508
		C89.0796,220.0897,86.7316,218.9409,85.3687,218.4487L85.3687,218.4487z M33.3932,214.0987c0-8.4399-0.4164-21.3477-0.4759-29.8548
		c1.3-0.4924,2.6935-0.6324,4.36-0.9606c1.8057,4.9422,9.2242,25.2275,11.0849,30.8154
		C43.4418,214.0987,38.1132,214.0987,33.3932,214.0987L33.3932,214.0987z M52.8698,214.0987
		c-0.1845-6.264-0.4269-23.1823-0.2216-29.7233c7.5691,0.4924,15.0979,1.1249,22.0218,1.2889
		c-0.267,9.6157-0.4207,18.8011-0.5913,28.4344C65.876,214.0987,60.2614,214.0987,52.8698,214.0987L52.8698,214.0987z
		 M20.3547,213.5816c-2.9883-7.8497-14.8448-39.2269-16.7119-44.3389c9.4946,4.1267,19.9599,9.8345,27.5749,13.8189
		c-0.0031,7.9827,0.6024,22.6406,0.6024,30.7527C27.718,213.8144,24.4425,213.5816,20.3547,213.5816L20.3547,213.5816z
		 M75.7046,214.0987c0-9.3793,0.1794-19.0568,0.7387-28.3768c0.5173,0,1.1086,0,1.6996,0
		c1.9074,4.2916,5.601,14.2693,7.2423,18.8441c-2.7545,4.1315-1.5934,6.0735-1.5934,12.848
		C80.7789,216.4294,77.7146,215.0838,75.7046,214.0987L75.7046,214.0987z M202.2919,213.0643
		c0.3073-5.7398,0.8617-13.2681,1.103-19.9414c0.5414,0,0.8546-0.011,1.6313-0.011c0.3597-2.1589,1.1466-4.5479,1.8476-6.651
		c1.7056,0,3.363,0.2957,4.5076,0.2957c-0.4008,2.4061-0.731,4.5595-1.0593,7.0617c11.3094,0.5688,19.8335,1.3683,31.8747,1.5106
		c0,3.5827-0.0338,8.8333-0.1477,12.1357C229.0025,209.0298,214.6986,211.3567,202.2919,213.0643L202.2919,213.0643z
		 M39.5521,183.0125c3.4538,0.4924,10.7938,0.8586,11.0271,1.0919c0.0587,9.114,0.2217,20.6442,0.2217,29.8293
		C50.5698,213.9337,41.1448,186.9796,39.5521,183.0125L39.5521,183.0125z M394.6867,212.0263
		c-0.2795-8.2939-0.9261-24.8215-1.5157-34.1377c1.3204-0.4399,5.3017-1.5536,6.6096-1.5536
		c0.7112,11.8375,0.8813,22.9056,1.0364,33.8043C399.4715,210.6889,396.3398,211.554,394.6867,212.0263L394.6867,212.0263z
		 M87.8975,203.4574c-1.9202-3.9884-5.377-13.2991-7.3896-17.9572c6.5086,0,12.1966-0.1891,19.2875-0.5173
		c-0.2931,5.5664-0.2245,10.9868-0.074,16.5531C95.6939,202.5209,92.1277,203.1292,87.8975,203.4574L87.8975,203.4574z
		 M101.5687,201.2404c0.1497-2.7457,0.1471-14.3875,0.074-16.4792c1.9213,0,3.8427,0,5.838,0
		c1.1489,2.5807,4.5989,10.04,5.9119,14.1145C109.2977,199.6964,105.4598,200.5332,101.5687,201.2404L101.5687,201.2404z
		 M115.6833,198.2845c-1.2141-2.7928-4.6808-10.6622-5.8292-13.2843c5.3365-0.5723,12.1677-1.0239,14.9927-1.1996
		c-0.074,4.3599-0.222,8.7199-0.739,13.3016C121.0433,197.4245,118.7592,197.9611,115.6833,198.2845L115.6833,198.2845z
		 M126.1607,192.3142c0.0366-2.5529,0.4448-6.3065,0.5335-8.8093c0.5802,0,1.2999-0.2216,2.2169-0.2216
		C128.4188,186.0335,127.1525,190.0022,126.1607,192.3142L126.1607,192.3142z M259.2348,185.722
		c1.1489-6.2413,6.0044-26.7821,8.318-33.7227c1.576,0,2.755,0.2469,3.6861,0.2469c-0.7857,4.1638-7.571,30.0384-8.7199,33.7713
		C261.1511,186.0175,260.4807,185.722,259.2348,185.722L259.2348,185.722z M301.905,185.0929
		c-0.1689-9.5615-1.3635-23.3014-1.7872-31.8861c0.6701,0,1.9831-0.2217,3.0297-0.2217c1.1115,6.6802,1.6591,24.994,2.2309,31.9978
		C303.8737,184.9829,303.4916,185.0929,301.905,185.0929L301.905,185.0929z M207.4898,184.7613
		c2.0528-7.6295,7.736-29.9821,9.5414-35.5776c0.7891,0,3.1793,0.1066,4.2525,0.1066c-2.626,10.8513-6.2122,25.0036-9.0156,35.4711
		C211.034,184.7613,208.9613,184.7613,207.4898,184.7613L207.4898,184.7613z M444.5303,184.0222c0-0.074,0-0.1476,0-0.2216
		c-0.074,0-0.148,0-0.2217,0c-0.074-0.2217-0.1479-0.3697-0.1479-0.5173c-0.0737,0-0.1476,0-0.2216,0
		c-0.5911-2.4387-0.0737-4.1383,0.1479-5.9119c0.0737,0,0.1476,0,0.2216,0c0-0.0737,0-0.1477,0-0.2217c0.1477,0,0.2957,0,0.5173,0
		c0-0.1477,0-0.2217,0-0.2957c0.0737,0,0.1477,0,0.2217,0c0-0.0737,0-0.1477,0-0.2217c0.0737,0,0.1477,0,0.2217,0
		c0-0.0737,0-0.1477,0-0.2217c0.2217,0,0.4434,0,0.739,0c0-0.1477,0-0.2217,0-0.2957c0.2217,0,0.4432,0,0.665,0
		c0,0.074,0,0.1479,0,0.2957c0.0739,0,0.1477,0,0.2217,0c0.665,1.626,0.4434,4.5079,0.5173,7.0942c-0.3693,0-0.739,0-1.0346,0
		c0,0.074,0,0.1477,0,0.2957c-0.2953,0-0.591,0-0.8127,0c0,0.074,0,0.1476,0,0.2216
		C445.1953,184.0222,444.8259,184.0222,444.5303,184.0222L444.5303,184.0222z M38.6651,180.4347
		c-0.9791-3.2601-2.075-5.2877-3.2352-8.5484c12.1618,0.8541,25.4554,2.0502,37.1707,3.0463
		c1.2807,1.793,3.1479,6.3224,4.2863,8.868C63.8333,183.2311,51.1738,181.4308,38.6651,180.4347L38.6651,180.4347z
		 M79.6209,183.8006c0-0.699-3.2854-6.2351-3.8427-7.9073c9.3852,0.6565,19.7436,1.783,27.572,2.4395
		c0.8206,1.187,1.7254,2.6394,2.8165,5.0571C97.122,183.3899,87.7357,183.8006,79.6209,183.8006L79.6209,183.8006z
		 M346.5413,183.2833c-1.8402-11.1149-3.7103-24.1852-5.838-36.2841c-10.7708,1.0436-47.0276,4.5488-58.6014,5.025
		c-25.1133-5.7617-134.6205-8.8375-149.3493-1.256c0-7.2369,27.4255-41.7609,29.7822-44.1173
		c47.2674-9.2943,148.6533,1.8969,215.2653,8.8676c4.5048,10.8207,17.0529,42.2394,22.7608,58.2319
		c-4.2537,1.3979-9.6973,2.7703-15.0015,3.5472c-3.3177-9.9927-8.041-21.6459-11.7496-30.5082
		c-0.536-1.4297-13.2191-4.1754-12.1196-0.9725c2.1481,11.9052,4.0125,23.1346,5.6163,35.3594
		c-1.5307,0.2631-2.4775,0.4073-3.1776,0.4073c-1.5072-9.2028-4.7089-28.7368-5.9805-36.3082
		c-3.6357-0.2582-7.299,0.1154-10.2203,0.6996c0.9904,7.1639,4.9374,30.5634,5.8553,36.8665
		C351.3446,182.9156,348.906,183.2093,346.5413,183.2833L346.5413,183.2833z M108.663,183.0616
		c0-0.1477-1.6673-3.4793-1.8224-4.0223c7.8678,1.1395,14.1307,1.6489,20.0752,2.5444
		C121.0379,182.076,114.5772,182.8975,108.663,183.0616L108.663,183.0616z M166.4515,182.0269
		c1.313-6.4782,6.4508-25.1619,9.2373-31.9728c1.5378,0,3.774-0.025,5.7639-0.025c-3.6108,10.0698-7.4327,23.0851-9.8946,32.2935
		C169.7975,182.3226,168.1741,182.0269,166.4515,182.0269L166.4515,182.0269z M32.6956,181.8847
		c0-0.0737-24.5795-12.6777-24.793-12.6777c6.4035,0.4348,20.8539,2.3043,24.4457,2.4467c0.8538,1.7396,3.0943,6.8828,4.0422,9.191
		C36.3166,180.8446,34.4049,181.6004,32.6956,181.8847L32.6956,181.8847z M132.6061,179.81
		c1.9695-6.26,7.7434-20.9749,10.3456-27.0468c2.0115,0,2.6955-0.2954,4.434-0.2954c-2.7901,7.3775-6.2014,17.074-9.9763,27.3422
		C135.9541,179.81,134.6757,179.81,132.6061,179.81L132.6061,179.81z M453.5458,179.81c0-0.0737,0-0.1476,0-0.2217
		c-0.2217,0-0.3696,0-0.5173,0c-0.074-0.2216-0.074-0.3693-0.074-0.5173c-0.1477,0-0.2217,0-0.2957,0
		c-0.3694-2.069-0.2217-3.6946,0.1479-5.3946c0.074,0,0.1477,0,0.2217,0c0-0.0737,0-0.1476,0-0.2216c0.074,0,0.2217,0,0.3694,0
		c0-0.2217,0.074-0.3694,0.1479-0.5171c0.074,0,0.1477,0,0.2217,0c0-0.074,0-0.1479,0-0.2219c0.2217,0,0.4432,0,0.7389,0
		c0-0.1477,0-0.2217,0-0.2954c0.2217,0,0.4434,0,0.6651,0c0,0.0737,0,0.1477,0,0.2954c0.074,0,0.1479,0,0.2217,0
		c0.1479,1.7736,0.2956,3.5472,0.4433,5.3945c-0.0737,0.1481-0.1477,0.2957-0.2216,0.5174c-0.0737,0-0.1477,0-0.2217,0
		c0,0.0739,0,0.1479,0,0.2217c-0.2217,0-0.4434,0-0.5911,0c0,0.0739,0,0.1479,0,0.2216c-0.1479,0-0.2217,0-0.2957,0
		c0,0.074,0,0.1479,0,0.2957c-0.0739,0-0.1479,0-0.2216,0c0,0.074,0,0.1479,0,0.2216c-0.148,0-0.2957,0-0.3697,0
		c0,0.0741,0,0.148,0,0.2217C453.7675,179.81,453.6198,179.81,453.5458,179.81L453.5458,179.81z M440.4659,158.8968
		c0-0.3991,0.0748-1.4149,0.0748-2.1929c1.8488,0.2964,2.7695,0.5411,4.2852,0.7387c0,0.4436,0,1.6531,0,2.1705
		C443.1432,159.3163,442.142,159.0946,440.4659,158.8968L440.4659,158.8968z M425.3156,156.9015
		c0-0.4114-0.064-1.3873,0.0499-2.4146c1.3504,0.1729,11.2051,1.5999,13.2528,1.8961c-0.074,0.5172-0.074,1.4053-0.074,1.9964
		C433.9153,157.984,430.0095,157.495,425.3156,156.9015L425.3156,156.9015z M411.1531,155.2019c0-0.517,0.074-1.8259,0.148-2.2692
		c0.7211,0.0215,1.6809-0.1567,2.4806-0.1259c2.8556,0.606,5.7979,0.871,9.6874,1.4584c0,0.7387,0,1.6755,0,2.4146
		C419.4084,156.3831,415.0286,155.6964,411.1531,155.2019L411.1531,155.2019z M396.6443,155.9408
		c-0.3444-1.0329-0.7098-1.1823-0.9607-2.4386c2.3009-0.2599,11.1651-0.4932,13.3778-0.4932c0,0.4229-0.1514,0.4977-0.1514,2.3419
		C406.2098,155.4596,399.3842,155.8434,396.6443,155.9408L396.6443,155.9408z M440.7026,154.9801
		c-0.2968-7.3663-0.6633-14.4385-0.6804-21.6748c0.408,0,2.4571-0.8141,3.481-1.0117c0.1548,3.9316,0.7648,16.0223,1.0757,23.5483
		C443.2846,155.5312,442.2302,155.4465,440.7026,154.9801L440.7026,154.9801z M432.2868,153.8228
		c-0.0964-6.7008-0.1465-12.4886-0.2205-18.4745c2.4582-0.4944,3.7831-1.0071,6.1063-1.6996
		c0.1494,3.3298,0.6395,18.5709,0.4456,21.0362C436.515,154.487,434.3048,154.2185,432.2868,153.8228L432.2868,153.8228z
		 M425.3167,152.9851c-0.0145-5.3481-0.1749-10.1721-0.2216-15.4437c1.7952-0.3958,2.9914-1.0585,5.0249-1.5532
		c0.1001,4.2577,0.1477,13.7441,0.1477,17.7356C428.4212,153.4274,427.3752,153.1828,425.3167,152.9851L425.3167,152.9851z
		 M414.3798,151.7289c-0.0978-3.621-0.1216-7.4888,0.0261-10.4449c2.7961-0.6924,5.8164-1.9904,9.0133-3.0786
		c0,4.8543,0.1687,9.7081,0.0261,14.5579C420.1602,152.2688,417.1419,152.0257,414.3798,151.7289L414.3798,151.7289z
		 M394.9733,151.8842c0-0.2515,0.1905-1.9522,0.1854-3.6437c3.6128-0.9323,8.2973-2.5986,14.0482-4.6179
		c0.074,2.7343,0.1227,5.0763-0.0261,7.8845C404.9546,151.6624,399.0092,151.8842,394.9733,151.8842L394.9733,151.8842z
		 M411.2022,151.7289c0-3.1039-0.1978-6.0097-0.1239-9.1135c0.3563-0.1978,0.5343-0.2956,1.0845-0.4935
		c0,3.1037,0.1729,6.4055,0.1476,9.5831C411.9383,151.705,411.872,151.7289,411.2022,151.7289L411.2022,151.7289z
		 M394.3973,146.3343c0.0068-6.5336,0.0184-19.9661,0.03-26.3818c5.7728,0.466,11.2433,1.2314,17.5802,1.804
		c0.0493,6.395-0.0663,12.1703-0.0663,18.4442C406.8034,142.22,399.9605,144.6043,394.3973,146.3343L394.3973,146.3343z
		 M391.9586,145.9949c-1.571-4.769-7.2303-20.2813-9.0156-23.9808c2.5392-0.6214,6.196-1.2847,9.2673-2.0616
		C392.2103,122.7689,392.2571,145.9949,391.9586,145.9949L391.9586,145.9949z M414.2318,139.166
		c0.2277-5.8359-0.1834-11.0974,0.148-17.0915c5.1287,0.5547,11.1484,1.2861,15.5186,1.5967
		c0.1553,3.1309,0.1086,7.4118,0.2067,10.2557C424.5043,135.9484,419.999,137.5468,414.2318,139.166L414.2318,139.166z
		 M432.1154,133.2544c-0.0349-2.5855-0.1242-7.0135-0.0989-9.2135c3.2076,0.466,7.5161,1.1537,11.1336,1.588
		c0.074,1.4041,0.1902,2.822,0.2642,4.2999C439.5597,131.2032,436.468,132.1664,432.1154,133.2544L432.1154,133.2544z
		 M301.8328,132.8107c0-0.1477,0-0.2217,0-0.2954c-0.1477,0-0.2217,0-0.2957,0c0-0.3696,0-0.6653,0-0.9606
		c-0.1476,0-0.2954,0-0.3694,0c0-0.074,0-0.1479,0-0.2219c-0.074,0-0.1477,0-0.2217,0c-0.9606-1.995,0.591-4.0644,1.2563-5.4683
		c0.0737,0,0.1477,0,0.2216,0c0-0.1477,0.074-0.2957,0.1477-0.4434c0.074,0,0.148,0,0.2217,0c0-0.1479,0-0.2216,0-0.2957
		c0.074,0,0.148,0,0.2216,0c0.074-0.2956,0.1479-0.5173,0.2957-0.7389c0.074,0,0.2217,0,0.3697,0c0-0.074,0-0.1478,0-0.2217
		c0.2216,0,0.4433,0,0.739,0c0-0.074,0-0.1477,0-0.2217c0.3694,0,0.739,0,1.1823,0c0-0.1479,0-0.2216,0-0.2956
		c0.4433,0,0.9607,0,1.478,0c0-0.074,0-0.1476,0-0.2217c1.1823,0,2.3647,0,3.621,0c0-0.0739,0-0.1476,0-0.2216
		c0.5173,0,1.1084,0,1.6996,0c0-0.1476,0.074-0.2216,0.1477-0.2956c0,0.074,0,0.1479,0,0.2956c0.813,0,1.6259,0,2.4387,0
		c0-0.1476,0-0.2216,0-0.2956c0.074,0,0.2216,0,0.3696,0c0,0.074,0,0.1479,0,0.2956c0.3694,0,0.8127,0,1.2563,0
		c0-0.1476,0-0.2216,0-0.2956c0.591,0,1.1823,0,1.8474,0c0,0.074,0,0.1479,0,0.2956c0.074,0,0.1477,0,0.2216,0
		c0,0.074,0,0.1477,0,0.2216c0.074,0,0.1477,0,0.2217,0c0,0.0741,0,0.1478,0,0.2217c0.148,0,0.2957,0,0.5173,0
		c0.2217,1.2563,0.2957,3.3993,0.2217,5.173c-0.074,0-0.1477,0-0.2217,0c0,0.0739,0,0.1476,0,0.2957c-0.074,0-0.1476,0-0.2216,0
		c0,0.0737,0,0.1476,0,0.2217c-0.2217,0-0.4434,0-0.665,0c0,0.0736,0,0.1476,0,0.2216c-0.148,0-0.2957,0-0.4437,0
		c0,0.0738,0,0.1478,0,0.2957c-0.3693,0-0.7387,0-1.0343,0c0,0.0737,0,0.1477,0,0.2217c-0.5173,0-1.0346,0-1.478,0
		c0,0.0737,0,0.1476,0,0.2217c-0.4433,0-0.8869,0-1.3303,0c0,0.0736,0,0.1477,0,0.2957c-0.2957,0-0.591,0-0.8867,0
		c0,0.0737,0,0.1477,0,0.2217c-0.665,0-1.2563,0-1.8477,0c0,0.0736,0,0.1476,0,0.2216c-1.0343,0-2.069,0-3.0296,0
		c0,0.0737,0,0.1476,0,0.2954c-0.5173,0-1.0347,0-1.478,0c0,0.074,0,0.1479,0,0.2219c-0.3694,0-0.739,0-1.1083,0
		c0,0.0737,0,0.1476,0,0.2217c-0.5913,0-1.1826,0-1.7737,0c0,0.0737,0,0.1477,0,0.2954c-0.4433,0-0.8867,0-1.3303,0
		c0,0.2219,0.074,0.4435,0.148,0.739C302.5717,132.8107,302.2024,132.8107,301.8328,132.8107L301.8328,132.8107z M445.7866,129.1161
		c-0.0491-0.937-0.0978-2.2695-0.1718-3.0084c1.4335,0.3398,4.1409,0.3172,4.6355,1.478
		C449.0308,127.8293,447.3845,128.6214,445.7866,129.1161L445.7866,129.1161z M164.2345,104.9512
		c0-0.6763,1.2186-1.7849,1.2186-2.2521c64.9208-9.9584,147.5507,1.2333,212.1993,9.8636c0,0.3589,0.2954,0.6429,0.2954,1.478
		C307.648,106.7379,220.2193,95.6566,164.2345,104.9512L164.2345,104.9512z M333.5323,103.8627c0-0.144,1.9389-3.6823,2.6631-5.3407
		c0.074,0.9606-0.0264,4.0007-0.0334,5.6902C335.1376,104.1485,334.4901,103.9265,333.5323,103.8627L333.5323,103.8627z
		 M310.7747,100.2956c0.0788-4.1899-0.1406-9.8019-0.1406-13.5567c7.9889,1.9772,18.2976,4.5056,25.2657,6.2915
		c-0.0232,0.8663-0.0737,1.3533-0.0737,2.5355c-0.7883,1.7224-2.7788,5.4655-3.9906,7.9073
		C324.7761,102.5803,316.9726,101.2523,310.7747,100.2956L310.7747,100.2956z M305.7159,98.5362
		c-0.282-5.0253-0.3257-8.2604-0.591-12.8318c1.3745,0.0638,2.3845,0.6446,3.5804,0.7724c0.2532,4.8748,0.358,8.3183,0.383,13.4291
		C307.9839,99.4591,306.6905,98.8547,305.7159,98.5362L305.7159,98.5362z M278.2592,90.1717
		c-0.665-3.5472-1.7297-8.3571-2.4312-11.4607c8.9495,2.0409,19.0797,4.3744,27.5134,6.2877
		c0.074,4.2123,0.339,8.4984,0.4127,12.7843C298.4247,95.6786,285.5194,90.1717,278.2592,90.1717L278.2592,90.1717z
		 M169.9245,97.5612c-1.2419-3.5645-4.5746-13.6777-4.951-15.7433c6.1911-1.0845,11.857-2.0361,19.4352-2.9528
		c0.0885,4.6891,0.2957,9.3558,0.2957,14.0405C179.2114,94.7972,174.6927,96.0592,169.9245,97.5612L169.9245,97.5612z
		 M174.0617,97.7861c3.8526-1.1993,10.3779-3.3415,11.7612-3.3415c1.2119,0.3979,4.1448,0.9545,6.3769,1.6387
		C188.3055,96.4728,178.1178,97.4034,174.0617,97.7861L174.0617,97.7861z M279.6633,96.7254
		c-0.1262-1.4323-0.7084-3.0804-0.8997-4.6255c1.8042-0.9564,19.7354,5.2285,23.307,6.7941
		C296.1169,98.3198,285.3941,97.2356,279.6633,96.7254L279.6633,96.7254z M244.9284,95.536
		c-0.2418-1.6997-0.4839-3.0402-0.5276-4.4036c1.9778,0,2.9909,0,4.6324,0c-0.0638-3.3257,5.6704-2.4608,5.9253,1.478
		c4.4342,0,9.208,0.739,13.6201,0.739c1.4032,0.0731,3.2919-1.2714,3.547-2.217c0.5338-0.978,3.8052-0.8901,4.3571,0.0371
		c0.1479,1.5519,0.7418,3.8055,0.9635,5.4312C266.7305,96.2818,255.9619,95.9821,244.9284,95.536L244.9284,95.536z
		 M208.5397,95.1458c-0.8492-3.4001,12.2585-4.596,17.0303-2.0186c4.6179,2.4949,7.0696,1.1447,8.3444,0.3898
		c0.1009-0.0601,1.4839-1.1333,1.4839-2.8281c2.262,0.0635,1.7476-3.7737,1.7476-4.7934c1.4318-0.6378,3.2785-0.5669,4.1136-0.1845
		c0.5961,3.257,1.1662,6.1186,1.6764,9.6332C230.038,95.3443,220.8835,95.2097,208.5397,95.1458L208.5397,95.1458z
		 M195.8629,95.3443c0-0.0181-7.325-1.9615-8.9419-2.4721c-0.2506-4.8589-0.2919-8.1221-0.4836-14.39
		c3.462,0,7.0268-0.2285,10.6818-0.3561c2.2437,5.5653,4.3557,10.8873,6.429,16.9965
		C200.8315,95.1226,198.3016,95.3443,195.8629,95.3443L195.8629,95.3443z M205.1507,95.0186
		c-0.8467-2.7785-4.7526-13.4589-5.9624-16.8925c12.9878-0.3189,28.6245-0.739,41.1613-0.739
		c0.1678,2.0171,0.57,5.1078,0.739,7.0942c-2.2147,0-5.4133-0.3002-5.3946,1.9954c0,1.3499,0.4998,2.7343-1.3907,2.7343
		c-0.1477,0.9606-0.182,2.09-0.7523,2.9557c-1.0607,1.6108-4.2361,1.8677-5.5423,0.4436
		c-1.984-2.1628-20.3755-4.1446-21.0612,2.4083C206.53,95.0186,205.6031,95.0186,205.1507,95.0186L205.1507,95.0186z
		 M255.3508,90.689c-1.3921-4.1768-6.9361-2.636-6.8723-1.2563c-1.4043,0-3.1909,0-4.595,0
		c-0.3824-3.2031-0.716-7.5739-1.0953-11.6022c10.2526,0.1276,21.4571,0.3566,31.3327,0.739
		c0.5525,3.3428,1.4868,7.1459,2.0693,10.6415c-1.0871-1.0108-3.9694-0.9805-4.6556,0.2216c0,0.6217-2.1138,2.096-3.3256,1.995
		C263.4871,91.4276,259.1291,90.689,255.3508,90.689L255.3508,90.689z"/>
</g>
</svg>
