<?xml version="1.0" encoding="utf-8"?>
<!-- Generator: Adobe Illustrator 21.1.0, SVG Export Plug-In . SVG Version: 6.00 Build 0)  -->
<svg version="1.1" id="oce" xmlns="http://www.w3.org/2000/svg" xmlns:xlink="http://www.w3.org/1999/xlink" x="0px" y="0px"
	 viewBox="0 0 500.0061 215.568" enable-background="new 0 0 500.0061 215.568" xml:space="preserve">
<g>
	<path fill-rule="evenodd" clip-rule="evenodd" stroke="#000000" stroke-width="0.216" stroke-miterlimit="2.6131" d="
		M46.0684,215.46c-4.392-1.944-3.456-6.912-7.056-7.848c0-0.216,0-0.36,0-0.504c-6.84-1.8-13.608-1.368-19.944-1.368
		c-4.752-1.8-23.688-21.528-17.856-24.408c0.36,0.36,0.648,2.376,0.792,3.6c7.704,20.16,15.12,18.432,36.864,18.432
		c2.16-0.432-18.144-19.224-20.736-22.464c-5.472,0-10.656,1.728-15.84,0.936c0-0.288,0-0.576,0-0.792
		c2.376,0,11.952,0.144,14.688-1.512c4.536-9.144,6.552-19.728,10.224-28.584c1.296-0.432,1.224-0.648,1.584-1.584
		c1.368-0.216,3.672-1.872,5.544-2.52c12.528-2.088,26.208-2.592,39.456-4.104c3.528-2.232,5.976-6.336,8.496-9.648
		c1.656-1.08,6.552-1.008,9.504-1.152c1.368-1.872,9.216-11.808,8.784-13.176c-14.256-0.432-13.608-3.744-25.416-11.232
		c-1.296-1.44-1.872-2.232-2.664-2.52c0-2.952,5.256-8.28,7.56-9.288c24.552-3.168,51.984-3.312,77.04-3.744
		c11.232-0.72,10.224,1.44,11.232-8.928c1.44-3.384,0-9.144,1.728-12.168c4.608-0.216,9.288-0.432,13.968-0.576
		c0-3.744,0.072-7.488,0.144-11.16c-5.256-5.544-9.864-8.064-9.864-16.056c1.152-1.584,7.56-2.448,10.368-2.808
		c0.144-0.288,0.144-0.288-0.216-1.008c1.944-1.944,0.504-33.912,0.504-39.024c0.072-0.072,0.216-0.144,0.36-0.144
		c1.944,1.296,1.08,34.128,0.864,40.104c1.8,0.864,11.016,1.368,12.672,3.888c3.744,0.72,15.048,11.952,17.208,11.232
		c0-18.432,0.576-36.792,0.072-54.576c0.144-0.072,0.36-0.072,0.576-0.072c2.304,2.592,0.936,54.216,0.936,56.304
		c1.656,1.656,13.536,8.352,14.9041,8.496c11.016-4.032,39.24-5.472,50.0399-0.504c4.032,0.504,10.2961,6.048,14.76,9.36
		c6.336,0.792,57.096,4.824,57.096,17.208c-0.504,0.288-1.008,0.576-1.512,0.864c-0.072,0.36-0.072,0.72-0.072,1.08
		c6.552,5.976,43.056,1.8,51.408,2.088c21.888-0.864,43.776-1.296,66.2399-1.8c4.248,0.216,8.5681,2.16,13.6801,2.304
		c2.592,1.08,14.832-2.088,15.696,1.584c-2.592,1.872-9.648,12.384-10.8721,14.904c2.592,0,5.1841,0,7.7761,0.0721
		c0.288,0.576,0.576,1.368-0.144,2.808c-7.272,1.656-15.696,0.936-21.672,4.248c-0.144,6.12-8.568,10.512-13.104,15.12
		c-5.9041,0-37.008,42.12-38.664,44.352c-1.8,2.736-4.752,6.912-6.984,9.36c-4.32,1.728-35.136,6.264-35.5681,4.896
		c-2.952-0.36-4.176,0.792-6.12,0.792c-1.44-1.44-13.608,1.08-15.48,1.44c-17.424,0-34.704,6.12-51.264,6.12
		c-6.84,0.648-13.752,4.968-20.16,3.96c-6.408,0.504-12.744,2.736-19.08,2.16c-12.6-2.52-23.76-5.832-35.64-2.52
		c-9.432,0.144-18.432-0.72-27-0.72c-11.808,2.232-21.528,6.12-32.976,3.744c-13.104-0.648-25.2,2.808-38.16,1.8
		c-15.048-2.088-28.8,1.224-43.56,1.44c-6.408,0.936-14.544,3.6-20.52,3.6C61.6204,211.644,54.1324,215.46,46.0684,215.46
		L46.0684,215.46z M53.9884,206.46c-3.528-0.144-7.056-0.36-10.296-0.288c0.792-7.92,4.104-15.192,6.048-22.68
		c0.432-2.736,1.872-9.576,3.168-11.592c8.424-1.008,17.568-1.44,26.352-2.232c0,0.144,0,0.288,0.072,0.504
		c2.088-2.088,21.384-3.168,23.976-2.808c28.728-3.816,58.248-3.168,87.12-7.92c2.16,0,14.904,0,16.92-1.008
		c-0.072-0.072-0.144-0.144-0.216-0.216c32.616-6.48,68.76-4.896,102.456-8.64c35.496-6.264,72.432-6.048,108.144-12.6
		c15.552-0.504,32.256-4.464,47.736-9c0.288,0,0.576,0,0.864,0.072c-4.8241,6.336-12.2401,12.096-18,17.568
		c-8.064,10.296-16.128,20.664-24.192,31.032c-19.008,3.96-40.608,1.44-58.752,6.768c-45.288,6.552-91.008,6.84-135.936,11.664
		c-1.368,0.288-2.664,0.576-3.96,0.936c-41.976,2.736-84.096,7.488-126.144,8.424C85.3084,207.252,67.8844,206.46,53.9884,206.46
		L53.9884,206.46z M42.8284,202.356c-4.608-4.608-22.464-18.864-23.328-24.048c2.16-9.216,5.184-17.352,8.928-25.776
		c0.144-0.072,0.288-0.144,0.504-0.144c4.464,9,15.912,10.872,23.616,15.984c-2.088,7.92-4.248,16.128-6.624,24.12
		c-0.288,1.728-1.728,8.856-2.952,10.08C42.9004,202.5,42.8284,202.428,42.8284,202.356L42.8284,202.356z M148.8124,172.26
		c-0.864-0.432-0.288-4.752-0.288-4.968c0.36-0.36,26.784-2.592,28.944-2.376c0.576,2.232,1.296,4.68-1.8,5.328
		C166.4524,170.82,157.5964,171.9,148.8124,172.26L148.8124,172.26z M157.0924,171.18c-2.448-0.072-4.824-0.072-7.2-0.072
		c-0.072-1.08-0.144-2.16-0.144-3.24c6.408-1.44,19.512-2.2321,26.64-1.656C180.0604,170.604,159.8284,170.82,157.0924,171.18
		L157.0924,171.18z M53.6284,169.452c0-1.44,0.36-1.368,0.72-2.304c16.92-2.304,34.848-3.528,52.56-3.528
		c2.376-3.312,4.536-6.048,6.984-9c0.432,0.072,0.936,0.216,1.44,0.36c0.648-0.648,3.168-0.36,4.68-0.36
		c27.216-2.016,55.152-0.432,82.656-4.32c17.136-0.504,35.136-3.456,52.92-3.456c0.864-1.728,72.7921-6.336,79.704-7.704
		c5.76,0,12.456,0.2159,18.72-0.576c22.608-3.672,45.576-5.04,68.4-8.784c6.048-1.656,15.48-3.456,22.176-3.456
		c8.28-2.232,16.5599-4.464,24.84-6.624c1.0799-0.504,2.664-1.872,4.32-1.584c-0.144,0.288-0.2881,0.576-0.3601,0.936
		c0.1441,0,0.2881,0,0.504,0c0,1.152,0,2.304,0.0721,3.456c-6.1921,5.184-22.608,9.504-29.592,9.936
		c-5.256,2.232-31.608,3.024-33.48,4.896c-17.568,0.576-35.496,3.384-52.56,4.824c-24.624,3.672-49.6801,5.832-74.16,7.92
		c-1.728,1.008-20.376,1.224-21.024,1.08c-17.856,1.368-36,3.096-53.496,5.04c-0.144,0.216-66.744,5.616-70.2,5.76
		c-0.576,0.936-25.704,2.592-28.08,3.096c-14.904,1.296-31.752,3.6-46.44,3.6c-0.216-0.36-0.432-0.72-0.576-1.008
		c-0.072,0.288-0.144,0.576-0.216,0.936C60.3964,169.092,57.2284,169.308,53.6284,169.452L53.6284,169.452z M185.1724,168.804
		c-0.288-0.36-0.504-0.72-0.72-1.008c0.648-0.6479,0.648-2.736,1.8-4.032c6.264,0,23.256-4.248,27.936-1.944
		c0.216,1.224,0.144,3.096-0.648,4.752C203.8924,167.868,194.3884,168.804,185.1724,168.804L185.1724,168.804z M186.1084,168.012
		c0.072-2.304,0.072-2.304,0.36-2.88c8.064-1.584,18.72-2.592,27.144-2.592c-0.144,0.072-0.288,0.144-0.36,0.216
		C214.2604,169.812,191.4364,167.868,186.1084,168.012L186.1084,168.012z M54.3484,166.284c-5.688,0-22.536-12.672-22.536-16.272
		c9.864-4.896,26.28-4.968,38.376-5.832c7.416-1.08,8.712-4.32,13.104-10.44c0.792-0.072,7.128-1.008,7.848-0.288
		c0.144,9.072-0.72,18.432-1.08,27.576C81.3484,165.852,62.8444,165.348,54.3484,166.284L54.3484,166.284z M48.9484,166.14
		c-2.304-0.864-25.056-16.056-17.856-15.048c4.536,5.256,11.304,11.88,18.792,14.616c-0.072,0.144-0.144,0.288-0.216,0.432
		C49.3804,166.14,49.1644,166.14,48.9484,166.14L48.9484,166.14z M221.5324,165.78c-0.72-0.216,0-2.232,0-4.968
		c5.688-1.872,20.52-2.16,27.936-2.5201c0.072,1.44,0.216,1.656,0,5.472C240.2524,165.276,230.4604,164.844,221.5324,165.78
		L221.5324,165.78z M222.8284,164.772c0.144-3.024,0.144-3.024,0.36-3.168c7.992-0.648,16.56-0.792,24.984-2.016
		c0.072,1.152,0.792,2.664-0.72,3.672C239.4604,163.476,229.8124,163.044,222.8284,164.772L222.8284,164.772z M86.3884,163.692
		c0-0.216,0.072-0.36,0.144-0.504c2.016-0.648,2.016-0.648,3.96-0.864c0.072,0.288,0.144,0.576,0.288,0.864
		C89.2684,163.332,87.8284,163.476,86.3884,163.692L86.3884,163.692z M271.4284,163.62c-2.448-0.288-3.024-1.152-3.024-2.808
		C275.6044,154.548,288.2764,162.252,271.4284,163.62L271.4284,163.62z M93.0124,162.9c-0.072-0.216-0.144-0.432-0.144-0.648
		c-3.24,0-1.152-15.12-0.216-28.152c0.792,0,10.296,4.176,10.944,5.472c0.072-0.144,0.216-0.288,0.36-0.36
		c5.76,3.024,3.456,16.2,2.952,22.968C102.0124,162.684,97.5484,162.9,93.0124,162.9L93.0124,162.9z M294.8284,161.244
		c-2.2321-0.288-2.304-1.152-3.024-1.872C291.8044,152.676,314.1964,158.508,294.8284,161.244L294.8284,161.244z M108.1324,159.948
		c0.072-6.84-0.072-14.04-0.504-20.016c5.112,0.576,10.08-0.648,15.624-0.144c0,2.592-7.848,8.208-9.72,10.584
		c0.144,0.288,0.648,1.944,0.648,3.0959C112.1644,154.62,110.0044,159.372,108.1324,159.948L108.1324,159.948z M316.5724,158.724
		c-1.8-0.36-1.8-0.36-3.096-0.936c-0.072-0.576-0.072-1.152-0.072-1.656C321.6124,147.924,330.1084,158.724,316.5724,158.724
		L316.5724,158.724z M115.5484,153.828c-1.656-5.4,13.248-18.288,16.416-23.976c2.736-3.024,6.12-7.416,7.344-10.944
		c9.72-1.152,20.016-1.368,30.384-1.44c0,4.8961-11.448,11.808-12.672,16.92c-2.88,3.816-17.424,2.592-22.248,2.376
		c-3.888,4.968-8.136,11.736-12.528,16.128c-0.072,0.216-0.144,0.432-0.216,0.648
		C119.8684,153.612,117.7084,153.684,115.5484,153.828L115.5484,153.828z M124.1884,153.252c0.72-2.592,9.072-12.816,10.944-15.408
		c4.752-0.144,9.576-0.288,14.4-0.36c0.072,0.288,0.144,0.576,0.288,0.864c-3.6,3.6-6.624,10.008-10.008,14.112
		C134.5564,152.676,129.3724,152.964,124.1884,153.252L124.1884,153.252z M144.3484,152.82c-0.36-0.216-0.36-0.216-3.24-0.288
		c0.576-2.448,9.792-15.048,12.384-15.048c0.072,0.144,0.216,0.288,0.36,0.432c-1.368,2.304-4.608,4.824-5.472,7.416
		c3.384,0.072,6.768,0.144,10.152,0.288c0.72,0.72-3.672,5.328-4.464,6.984C153.1324,152.82,153.1324,152.82,144.3484,152.82
		L144.3484,152.82z M155.2924,152.532c1.8-9.216,11.736-7.344,18.864-7.56C174.1564,153.468,160.3324,152.388,155.2924,152.532
		L155.2924,152.532z M179.7724,151.524c-2.664-0.072-5.328-0.144-7.92-0.216c0-7.992,13.896-8.064,19.8-7.704
		c0.072,0.216,0.144,0.432,0.288,0.648C188.1244,151.164,186.9724,151.308,179.7724,151.524L179.7724,151.524z M188.9884,151.164
		c-1.368-0.432,4.104-6.984,4.68-7.56c4.536-0.36,9-1.44,14.04-0.936C206.1244,150.876,195.1804,151.164,188.9884,151.164
		L188.9884,151.164z M205.1884,149.22c-1.08-0.504,3.744-5.976,4.32-6.696c3.96,0.072,7.848,0.144,12.384-0.144
		c0.216,0.144,0.432,0.36,0.72,0.576C217.8604,150.732,213.9724,149.22,205.1884,149.22L205.1884,149.22z M221.0284,148.212
		c0.216-0.864,0.216-0.864,3.096-5.76c4.896-0.36,9.792-0.72,14.688-1.08C236.2204,150.012,228.1564,147.996,221.0284,148.212
		L221.0284,148.212z M236.6524,147.132c2.9521-8.856,8.3521-6.12,17.136-6.84C252.4204,148.572,243.2764,146.916,236.6524,147.132
		L236.6524,147.132z M252.4924,145.764c0-9.288,19.728-6.12,21.096-16.416c0.36,0,0.7921,0.0721,1.224,0.144
		C270.3484,143.028,266.3164,145.764,252.4924,145.764L252.4924,145.764z M267.8284,144.468c0.648-2.808,7.632-14.184,8.784-15.12
		c0.936-0.288,0.936-0.288,14.7599-1.44c-0.216,1.728-8.424,14.4001-9.504,15.192
		C276.8284,143.748,272.3644,144.108,267.8284,144.468L267.8284,144.468z M284.1724,142.668c0.72-4.392,6.4799-11.304,9-14.976
		c4.68-0.504,9.792-2.232,14.76-1.8c-3.456,4.32-6.624,11.16-10.152,16.056C293.2444,142.164,288.7084,142.38,284.1724,142.668
		L284.1724,142.668z M299.5084,141.732c0-3.096,8.064-13.032,10.224-16.2c6.48-0.792,6.48-0.792,13.896-1.224
		c-0.936,3.5999-8.208,13.1039-10.368,15.84C308.6524,140.796,303.7564,141.444,299.5084,141.732L299.5084,141.732z
		 M314.7724,139.932c0.792-3.312,8.208-12.024,10.6559-15.48c6.8401-0.792,6.8401-0.792,12.384-1.08
		c0,1.728-9.792,13.824-11.16,15.552C322.8364,139.5,318.3004,139.716,314.7724,139.932L314.7724,139.932z M106.5484,139.644
		c-4.032-2.088-8.28-3.744-11.664-5.616c0-0.216,0-0.432,0.072-0.576c14.256-2.664,15.048-3.888,26.712,4.68
		C117.4204,141.3,110.1484,137.124,106.5484,139.644L106.5484,139.644z M328.4524,138.852c1.944-4.752,7.704-11.448,11.088-15.4799
		c2.376-1.008,9.072-1.368,12.6-1.08c0,1.8-10.008,14.328-11.952,15.912C336.3004,138.204,331.8364,138.636,328.4524,138.852
		L328.4524,138.852z M343.4284,138.564c-0.4319-0.072-0.864-0.072-1.296-0.072c0.36-3.744,9.288-12.672,11.592-16.2
		c4.608-0.936,9.216-1.368,14.328-1.584c-0.288,4.248-9.864,15.048-10.872,16.344
		C353.5084,138.636,346.8844,138.492,343.4284,138.564L343.4284,138.564z M124.3324,138.42c-1.872-2.448-7.848-5.544-9.36-6.552
		c-0.072-0.288-0.144-0.504-0.144-0.72c11.88,1.656,13.104,1.944,13.248,1.8c0,0.288,0.072,0.576,0.144,0.864
		C127.0684,135.324,125.7724,136.98,124.3324,138.42L124.3324,138.42z M358.9084,136.692c1.584-5.256,8.424-10.584,10.584-15.9839
		c3.24-1.008,8.136-0.936,12.312-0.576c0,2.7361-13.392,8.496-7.416,9.936c-0.576,1.656-2.16,3.312-2.88,5.112
		C367.2604,135.684,363.0844,136.188,358.9084,136.692L358.9084,136.692z M372.9484,134.892c1.296-5.4,4.968-3.96,9-6.192
		c0.216-0.792,0.216-0.792,0.072-2.448c-0.72-0.432-1.368-0.864-2.016-1.224c0-6.408,11.664-7.2,16.848-7.5601
		c0,2.808-7.272,12.024-9.144,15.552C382.8124,133.524,377.2684,133.884,372.9484,134.892L372.9484,134.892z M93.0124,132.732
		c0-1.944,8.28-12.384,9.36-13.968c3.672,0.072,7.344,0.144,11.016,0.288c0.216,1.296,0.216,1.296,0.072,11.16
		C106.7644,130.212,99.3484,132.156,93.0124,132.732L93.0124,132.732z M389.1484,132.732c1.656-5.112,6.48-10.872,9.144-15.48
		c8.136-1.368,8.136-1.368,10.08-1.44c0,4.392-7.488,9.936-7.488,14.616c1.008,0.504,2.16-2.952,2.376-3.456
		c0.72-0.864,3.6-6.264,6.768-11.232c3.96-0.144,7.92-0.216,11.88-0.288c-0.36,2.376-7.704,14.544-9.936,15.048
		C404.1964,131.436,396.4204,132.516,389.1484,132.732L389.1484,132.732z M415.0684,129.852c0.936-4.752,6.192-10.152,8.136-14.76
		c3.744-0.576,7.92-1.728,12.024-1.44c0,2.592-4.464,6.9839-5.76,9.648c-2.952,0.432-9.072,1.512-4.176,4.752
		C424.7164,129.204,416.1484,129.78,415.0684,129.852L415.0684,129.852z M274.0924,128.34c-7.632-20.376-40.248-14.472-56.304-12.24
		c-13.392,0.504-27.576,2.088-40.248,1.512c-0.072-0.288-0.144-0.504-0.216-0.72c30.96-2.808,62.568-3.744,94.248-5.328
		c0.072-0.576,0.072-0.576-0.144-0.864c-39.528,0-78.768,4.464-117.936,6.264c-12.456,2.448-27,0.72-39.24,0.72
		c-20.088,2.448-26.064-0.648-39.6-12.528c0-2.736,4.176-7.272,6.12-6.624c12.096,12.096,24.768,14.904,42.84,12.168
		c35.352-0.216,69.912-2.376,105.696-3.96c14.112-1.08,28.656-1.008,43.2-2.016c0-0.144,0.072-0.216,0.144-0.288
		c-0.36-0.216-2.304-0.216-3.24-0.432c-17.712,0-36.864,1.008-53.784,2.736c-28.656,0.792-57.312,4.32-85.176,3.168
		c-0.072-0.216-0.144-0.432-0.144-0.576c13.896-0.792,28.008-2.016,42.48-3.528c13.968,0,30.024-0.648,44.28-2.52
		c2.088-2.808,7.128-2.016,10.944-2.664c0.648,0,61.344-4.536,63.72-2.16c-13.32,11.088-7.344,16.704,7.56,21.384
		c16.128,0,33.192-3.8159,50.256-3.24c8.352-1.512,32.04-5.328,38.52,1.152c-1.296,1.728-46.8,3.312-52.056,4.824
		C315.2764,123.228,294.0364,128.34,274.0924,128.34L274.0924,128.34z M431.2684,127.332c0.648-2.304,2.304-1.656,0.864-3.528
		c-3.6-0.72,3.096-8.64,4.68-9c5.256,3.816,16.92,8.136,1.656,11.736C436.0204,126.756,433.6444,127.044,431.2684,127.332
		L431.2684,127.332z M446.0284,124.812c0-1.44,0.288-1.368,0.864-2.088c0.72,0,1.08,0.432,1.8,1.44
		C447.7564,124.596,446.8924,124.668,446.0284,124.812L446.0284,124.812z M451.0684,123.732c-1.008-0.792-2.016-1.584-3.024-2.304
		c0-1.656,4.68-8.496,6.264-10.584c3.384,0.216,6.9839,0.864,11.0159,2.448c-0.072,0.216-0.072,0.432-0.072,0.648
		c-3.456,0.504-5.9761,0.648-9,0.432c0,2.088,0.072,4.176,0.144,6.336c0.7921,0.072,1.872-0.288,4.536-0.216
		C460.9324,122.724,452.8684,123.588,451.0684,123.732L451.0684,123.732z M446.7484,120.204c-2.4481-2.088-8.9281-5.328-9.36-7.056
		c3.672-0.216,12.6-3.672,15.84-2.376c-1.44,2.952-3.672,6.84-5.976,9.432C447.0364,120.204,446.8924,120.204,446.7484,120.204
		L446.7484,120.204z M465.9724,119.484c-0.864-0.0721-1.728-0.0721-2.52-0.0721c0.288-0.864,0.288-0.864,2.4479-3.96
		c3.168-0.072,3.168-0.072,7.272,0.216C473.1724,117.972,467.7003,119.484,465.9724,119.484L465.9724,119.484z M457.6924,119.412
		c0.072-1.368,0.144-2.664,0.216-3.96c3.96,0.072,3.96,0.072,6.624-0.144C462.8764,119.484,461.6524,119.268,457.6924,119.412
		L457.6924,119.412z M475.1884,118.044c-0.216-0.072-0.36-0.144-0.504-0.216c0-4.896,17.064-4.248,21.168-4.176
		c0,0.216,0,0.432,0.072,0.72C494.5564,115.74,478.2844,117.684,475.1884,118.044L475.1884,118.044z M390.0124,117.54
		c-0.072-0.216-0.144-0.432-0.144-0.648c-3.528-0.432-16.7039-9.936-18.936-11.52c0-0.288,0-0.576,0-0.792
		c5.976-0.072,60.408-0.504,62.496,7.92c-14.472,2.592-28.512,2.16-42.336,5.04C390.7324,117.54,390.3724,117.54,390.0124,117.54
		L390.0124,117.54z M471.2284,113.58c-1.0801-0.504-2.088-0.936-3.0961-1.368c0-4.4641,2.88-6.408,6.48-6.984
		C474.3244,106.668,472.7404,112.86,471.2284,113.58L471.2284,113.58z M473.7484,113.652c1.368-5.544,0.6479-10.152,6.2639-11.5201
		C479.8684,103.932,475.4044,113.292,473.7484,113.652L473.7484,113.652z M478.7884,113.58c-0.216-0.216-0.216-0.216-2.5201-0.288
		c2.7361-8.568,2.5921-12.888,10.5841-13.68c-0.432,3.744-5.76,9.36-6.552,13.536
		C479.7964,113.292,479.2924,113.436,478.7884,113.58L478.7884,113.58z M482.7484,113.22c-0.3601-0.072-0.72-0.072-1.08-0.072
		c3.096-12.384,4.824-14.04,15.84-14.976C496.1404,103.356,488.2924,112.716,482.7484,113.22L482.7484,113.22z M435.9484,112.284
		c-1.08-0.504-1.008-0.936-1.08-1.152c4.464,0.0721,4.464,0.0721,5.904,0.36C440.4124,112.284,436.2364,112.284,435.9484,112.284
		L435.9484,112.284z M466.6924,111.78c-1.512-0.288-6.336-1.008-6.912-1.368c0.36-1.944,7.344-4.032,9.792-3.6
		c-0.864,1.152-2.16,3.888-2.592,4.896C466.8363,111.708,466.7644,111.708,466.6924,111.78L466.6924,111.78z M101.5084,109.98
		c-6.768-2.664-18.576-7.128-20.016-13.752c27.504-3.024,57.312-4.104,85.536-4.104c5.688,3.672,11.664,7.704,18.36,11.376
		c0,0.216,0,0.432,0.072,0.648C157.5244,106.596,128.9404,109.98,101.5084,109.98L101.5084,109.98z M432.8524,109.62
		c-3.024-2.016-4.392-1.872-7.2-2.088c0-2.664,7.3441-12.096,10.44-12.312c5.4,0,10.8,0,16.2,0c0,2.16-8.496,12.168-10.08,14.04
		C439.0444,109.332,435.9484,109.476,432.8524,109.62L432.8524,109.62z M451.5724,109.404c-2.448-0.072-4.896-0.072-7.344-0.072
		c0.864-4.608,7.344-9.936,9.576-14.04c4.608-0.072,9.288-0.144,13.968-0.144c-0.3599,2.88-5.976,7.272-6.9119,11.16
		C458.9164,108.972,454.3804,109.26,451.5724,109.404L451.5724,109.404z M461.8684,107.388c0.936-4.248,5.544-8.424,8.064-12.384
		c2.88,0,3.672,0.72,6.84,1.584c-0.072,2.304-1.296,4.68-1.5839,6.912C470.7244,104.58,466.1164,106.812,461.8684,107.388
		L461.8684,107.388z M422.7724,106.524c-5.688-1.08-11.88-0.864-16.632-1.872c0-1.656,5.184-6.552,6.696-8.064
		c5.04-1.512,13.104-1.368,18.936-1.08C431.7724,96.804,424.8604,106.02,422.7724,106.524L422.7724,106.524z M402.8284,104.364
		c-4.824-0.432-9.936-0.864-14.256-0.864c-1.08-1.08,3.096-5.976,3.96-6.84c8.28-0.216,8.28-0.216,18.216,0
		c0,0.072,0.072,0.144,0.144,0.216C409.2364,98.82,405.2764,104.364,402.8284,104.364L402.8284,104.364z M188.7724,104.004
		c-1.152-1.656-9.936-5.256-11.52-5.904c-2.88-2.016-5.76-4.032-8.64-6.048c-0.072-3.96,0-7.2,0.936-10.584
		c5.976,1.8,16.992,9.288,22.752,13.104c0.144,3.96,0.36,5.4,0.288,9.288C191.2924,103.86,189.9964,103.932,188.7724,104.004
		L188.7724,104.004z M193.8124,103.86c0-2.736-0.504-7.056,0.216-8.928c4.752-1.872,14.976-1.2961,21.24-1.584
		c0,1.44,0.72,8.136-0.576,9.432C207.4924,103.212,200.5804,103.284,193.8124,103.86L193.8124,103.86z M379.7884,103.284
		c-3.24-0.072-6.48-0.072-9.72-0.072c0-9.216,16.272-6.408,21.024-6.48c0,0.576-4.68,6.552-4.68,6.552
		C384.1804,103.284,381.9484,103.284,379.7884,103.284L379.7884,103.284z M366.8284,103.14c-2.304-1.5121-7.704-4.536-8.496-6.192
		c4.5359,0.144,9.072,0.36,13.68,0.576c0.072,0.072,0.144,0.144,0.216,0.288c-0.864,1.8-2.52,3.744-3.816,5.328
		C367.8364,103.14,367.3324,103.14,366.8284,103.14L366.8284,103.14z M476.9884,102.132c0-6.624,5.112-5.328,10.944-4.32
		C487.7884,98.1,477.2044,102.06,476.9884,102.132L476.9884,102.132z M217.0684,101.412c0-2.736,0.072-5.4,0.144-8.064
		c0.72-0.288,7.2-1.008,7.848-0.936C225.0604,93.348,218.2924,101.196,217.0684,101.412L217.0684,101.412z M221.3884,99.684
		c-0.216-0.072-0.216-0.072-0.288-0.576c2.808-2.808,15.5519-13.536,6.5519-16.488c-3.384-3.888-6.7679-6.984-10.1519-10.008
		c0-7.344,0.144-7.704,0.288-13.824c6.984,0.936,26.568,16.416,34.344,22.032c1.656,0.72,3.528,2.736,6.12,3.744
		c10.44-0.864,29.304-0.072,37.44-8.424c16.128,0,45.648,1.656,57.528,14.112c0,1.584-3.312,3.24-4.608,3.888
		C305.9884,96.156,263.4364,97.74,221.3884,99.684L221.3884,99.684z M192.9484,93.204c-4.176-2.088-7.488-4.32-10.944-6.192
		c0-17.424,24.264,5.688,24.264,5.688C201.3724,92.988,197.2684,93.204,192.9484,93.204L192.9484,93.204z M208.4284,92.484
		c-5.7599-3.816-11.016-7.992-16.344-11.376c0-1.512,21.384-0.072,23.184,0.144c0.216,2.736,0.936,7.848-0.288,11.016
		C212.7484,92.34,210.5884,92.412,208.4284,92.484L208.4284,92.484z M217.4284,91.98c-0.648-0.288-0.144-9.504-0.144-10.152
		c1.08-1.08,5.616-0.792,7.704-0.864c1.368,1.296,4.248,3.384,5.4,5.688c-0.216,0.288-1.08,0.288-1.2961,0.504
		C232.1164,91.764,218.7964,91.98,217.4284,91.98L217.4284,91.98z M179.9884,86.22c-3.456-2.016-7.344-4.104-10.296-6.048
		c-0.072-0.288-0.144-0.576-0.144-0.864c1.872,0.36,10.728,4.176,11.88,5.328c-0.36,0.5041-0.648,1.0081-0.936,1.584
		C180.2764,86.22,180.1324,86.22,179.9884,86.22L179.9884,86.22z M181.5724,83.484c-3.744-1.584-9.504-3.6-11.88-5.472
		c0.144-1.8,0.36-3.6,0.576-5.4c3.528,0,9.648,3.384,13.824,5.472C184.3084,79.092,182.3644,84.276,181.5724,83.484L181.5724,83.484
		z M259.5484,83.34c-0.936-0.936-0.648-3.312-0.576-4.032c1.872-0.936,7.344-1.656,10.08-1.512c0.648,2.592,0.648,2.592,0.792,4.752
		C266.3884,82.764,262.9324,83.052,259.5484,83.34L259.5484,83.34z M257.3884,82.62c-1.656-0.936-4.104-1.872-4.104-3.168
		c1.368-0.144,2.808-0.216,4.248-0.288c0.288,0.288,0.36,2.304,0.432,3.384C257.7484,82.548,257.5324,82.548,257.3884,82.62
		L257.3884,82.62z M271.0684,82.404c-0.288-0.432-0.288-0.432-0.864-4.752c2.304-0.648,4.248-1.512,7.128-1.512
		c0.504,0.504,2.088,3.816,2.088,5.472C277.6204,82.836,272.8684,82.26,271.0684,82.404L271.0684,82.404z M280.9324,81.54
		c-0.792-2.016-2.088-4.248-2.088-5.688c4.608-1.944,9.216-4.32,12.816,2.88C290.2204,80.172,283.0204,81.54,280.9324,81.54
		L280.9324,81.54z M203.5324,79.74c-4.248-1.8-13.608-0.648-17.64-0.432c0-0.432,0-0.864,0.072-1.296
		c-1.872-1.584-12.96-5.328-12.456-6.048c13.176-0.648,26.784-0.936,40.68-1.08c1.08,1.368,2.376,6.696,1.152,8.568
		C211.3804,79.524,207.4204,79.596,203.5324,79.74L203.5324,79.74z M219.2284,79.74c-0.576-0.144-1.152-0.288-1.656-0.36
		c0-1.656,0-3.312,0-4.896c0.864,0,4.536,2.736,5.112,4.608C221.5324,79.308,220.3804,79.524,219.2284,79.74L219.2284,79.74z
		 M250.9084,78.588c0-0.216,0.072-0.432,0.144-0.576c0.432-0.072,0.936-0.144,1.44-0.144c-0.072,0.144-0.144,0.36-0.144,0.576
		C251.8444,78.444,251.3404,78.516,250.9084,78.588L250.9084,78.588z M258.9724,78.012c0.576-1.8,20.088-13.464,17.496-2.952
		C270.9964,77.004,264.3004,77.868,258.9724,78.012L258.9724,78.012z M292.6684,77.724c-1.44-0.936-2.592-2.16-2.88-3.096
		c1.728,0.216,3.456,0.576,5.184,1.2961C294.3964,76.644,293.5324,77.508,292.6684,77.724L292.6684,77.724z M257.1724,76.644
		c-1.872-1.5121-3.816-2.5201-5.328-3.312c0-0.288,0-0.504,0-0.72c5.76-4.752,12.456-9.432,20.088-3.312
		c0,0.216,0,0.432,0.072,0.648C267.7564,71.892,261.2044,76.212,257.1724,76.644L257.1724,76.644z M278.0524,74.844
		c-0.36-1.08-0.72-2.088-1.08-3.096c1.152,0.072,2.52,0.36,4.32,1.08C281.2924,74.34,278.9164,74.7,278.0524,74.844L278.0524,74.844
		z M290.8684,73.62c-4.464-1.224-5.616-2.304-5.4-6.192c0.72,0.216,6.264,3.672,8.28,5.112c0,0.216,0,0.504,0.072,0.792
		C292.8124,73.404,291.8044,73.476,290.8684,73.62L290.8684,73.62z M243.8524,72.9c-2.16-0.36-2.448-0.288-2.664-1.368
		c3.528-0.216,6.264-2.016,10.584-1.08C250.6204,72.756,245.6524,72.9,243.8524,72.9L243.8524,72.9z M284.1724,72.828
		c0.072-0.576,0.072-0.576,0.576-1.224c0.144,0,0.288,0,0.504,0c0.216,0.216,0.7921,0.576,0.576,1.08
		C285.2524,72.684,284.6764,72.756,284.1724,72.828L284.1724,72.828z M282.2284,72.324c-2.88-1.728-6.696-2.88-9.216-3.816
		c-1.368-3.96-1.368-3.96-1.368-4.68c0.864-1.296,18.792,1.152,10.728,8.64C282.3004,72.396,282.2284,72.324,282.2284,72.324
		L282.2284,72.324z M215.0524,70.524c-12.384-12.744-20.592-22.32-37.44-25.632c0.216-0.504,0.432-1.008,0.72-1.512
		c0.792-0.144,1.296-0.432,2.808-0.288c1.8-5.544,23.544,6.552,26.928,8.568c-0.144,0.216-0.288,0.504-0.36,0.792
		c1.296,0,6.12,3.384,8.136,4.68c-0.072,4.392-0.144,8.784-0.144,13.176C215.1964,70.668,215.1964,70.668,215.0524,70.524
		L215.0524,70.524z M185.8924,70.452c-0.072-3.096-0.144-6.12-0.144-9.144c0.936,0,8.208,6.696,7.92,8.712
		C191.1484,70.164,190.2124,70.38,185.8924,70.452L185.8924,70.452z M238.3084,70.236c-1.8-1.152-3.528-2.304-5.256-3.384
		c0-0.288,0-0.576,0-0.792c2.664-0.792,6.192-2.016,9.576-1.584c0.504,1.512,1.296,3.24,1.296,5.112
		C242.2684,70.38,239.6044,70.452,238.3084,70.236L238.3084,70.236z M196.5484,70.02c-5.544-3.456-23.904-21.024-19.8-23.76
		c15.192,1.368,25.848,11.5919,36.144,23.184C211.5244,70.812,198.3484,70.02,196.5484,70.02L196.5484,70.02z M245.1484,68.652
		c-1.152-1.44-1.224-3.24-1.44-4.464c4.32-0.72,7.632-1.08,12.384-0.936c0.648,1.008,1.728,2.016,1.728,3.816
		C254.3644,69.516,248.7484,68.58,245.1484,68.652L245.1484,68.652z M270.7084,67.5c-4.32-0.864-7.2-3.384-11.016-1.08
		c-0.288-0.0721-0.504-0.144-0.72-0.144c-0.648-1.224-1.008-2.304-1.08-3.168c3.888-0.216,7.992-0.216,12.6,0.144
		c0,0.936,0.576,2.304,0.792,4.176C271.0684,67.428,270.8524,67.428,270.7084,67.5L270.7084,67.5z"/>
</g>
</svg>
