<?xml version="1.0" encoding="utf-8"?>
<!-- Generator: Adobe Illustrator 21.1.0, SVG Export Plug-In . SVG Version: 6.00 Build 0)  -->
<svg version="1.1" id="Sea" xmlns="http://www.w3.org/2000/svg" xmlns:xlink="http://www.w3.org/1999/xlink" x="0px" y="0px"
	 viewBox="0 0 482.1119 308.1601" enable-background="new 0 0 482.1119 308.1601" xml:space="preserve">
<g>
	<path fill-rule="evenodd" clip-rule="evenodd" d="M217.368,308.1601c-1.08-0.144-2.232-0.288-3.384-0.504
		c-0.288-0.36-0.576-0.72-0.936-1.152c-2.664-0.648-5.4-1.296-8.136-1.944c-0.144-0.432-0.288-0.864-0.504-1.296
		c-0.936-0.072-1.872-0.216-2.88-0.36c-0.864-0.288-1.728-0.6479-2.664-1.008c-0.144-0.216-0.288-0.432-0.432-0.72
		c-5.544-0.936-5.544-0.936-8.352-1.728c-0.144-0.288-0.36-0.576-0.576-0.864c-1.872-0.504-5.256-0.72-5.616-1.08
		c0-0.504-0.072-1.08-0.144-1.656c-8.352-1.368-8.352-1.368-8.784-1.728c0-0.72,0.504-1.152,0.72-1.872
		c-4.176-1.368-4.176-1.368-4.392-1.728c0.216-0.36,0.432-0.72,0.72-1.08c0.936-0.072,1.872-0.144,2.88-0.216
		c0.216-0.36,0.216-0.36-0.216-1.008c-0.648-0.432-1.368-0.864-2.088-1.296c0-0.576,0.072-1.224,0.144-1.872
		c-2.16-0.864-2.16-0.864-2.376-1.224c1.008-1.224,1.008-1.224,1.152-1.944c-1.656-0.576-3.312-1.152-5.04-1.8
		c-11.232-1.944-11.232-1.944-15.12-2.88c-1.08-0.432-2.16-0.864-3.24-1.296c0-0.432,0-0.936,0-1.44
		c-2.952-0.864-2.952-0.864-9.936-2.304c-1.728-0.648-3.456-1.296-5.256-1.944c-0.936-0.576-1.872-1.224-2.88-1.872
		c-1.512-0.216-3.024-0.432-4.608-0.72c-1.656-1.008-6.696-2.88-10.08-4.824c-1.656-0.648-3.312-1.296-5.04-1.944
		c-1.008-0.648-2.016-1.296-3.096-2.016c-0.144-0.288-0.288-0.576-0.504-0.864c-9.576-3.312-9.576-3.312-11.52-4.32
		c-4.536-4.392-4.536-4.392-7.56-7.992c-0.504-1.224-1.44-2.16-1.944-3.096c-0.792-0.504-1.872-1.944-6.912-5.76
		c-2.16-2.16-6.048-5.04-8.064-6.984c-4.392-3.168-8.784-6.336-13.176-9.576c-0.648-0.288-1.296-0.576-1.944-0.864
		c-0.36-0.36-0.72-0.792-1.152-1.224c-8.208-4.824-10.368-5.76-16.848-9.576c-3.096-1.296-6.192-2.592-9.36-3.888
		c-1.872-0.576-3.816-1.224-5.76-1.872c-0.432-0.504-3.096-1.44-5.04-2.448c-1.872-0.576-3.816-1.224-5.76-1.872
		c-5.472-2.88-8.352-4.824-9.576-5.328c-0.936-1.44-0.936-1.44-1.656-1.872c-0.144-1.224-0.288-2.448-0.432-3.744
		c4.176-3.24,8.352-6.48,12.528-9.792c0-5.04,0-5.04-0.504-8.64c-0.144-0.432-0.288-0.936-0.504-1.44
		c-0.216-7.56-0.432-15.192-0.72-22.824c0.288-1.512,0.648-3.024,1.008-4.536c0.432-0.36,0.864-0.72,1.296-1.152
		c2.448-0.432,4.968-0.936,7.488-1.44c1.512,0.0721,3.024,0.144,4.536,0.288c1.152,1.296,2.376,2.664,3.6,4.032
		c0.432,0.216,0.936,0.432,1.44,0.72c2.16,0,4.32,0,6.48,0c5.76-0.936,5.76-0.936,10.8-1.44c4.32,0,4.32,0,7.92-0.432
		c0.504-0.144,1.08-0.288,1.656-0.504c19.944-0.936,19.944-0.936,28.08-0.936c2.664-0.504,2.664-0.504,13.248-1.44
		c4.536,0,7.92-0.288,10.512,0c6.264,0,8.424-0.288,28.08-0.504c5.544,0.216,8.208,0,25.488,0.216
		c2.016-0.144,4.104-0.288,6.192-0.432c5.112-2.52,10.224-5.112,15.408-7.7039c4.536-1.872,9.072-3.816,13.68-5.76
		c2.88-0.936,5.76-1.872,8.64-2.88c4.32-0.936,4.32-0.936,4.752-1.224c2.088-0.216,4.176-0.432,6.264-0.72
		c0.9359-1.152,0.9359-1.152,6.264-5.256c4.32-1.944,7.632-2.88,9.36-3.816c1.152-1.008,1.152-1.008,2.016-1.296
		c0-0.216,0-0.432,0-0.72c-0.648-1.008-1.296-2.088-1.944-3.168c-0.936-1.08-1.872-2.16-2.88-3.312
		c0.072-0.288,0.144-0.648,0.216-1.008c0.288-0.288,0.576-0.576,0.864-0.864c3.168,0,5.328-0.432,11.304-0.936
		c3.312,0,6.696,0,10.08,0c1.656-0.216,3.312-0.432,5.04-0.72c0.504-0.576,0.504-0.576,1.296-2.952
		c1.944-8.928,3.384-13.68,4.3199-18.72c0.2881-0.864,0.576-1.728,0.936-2.664c0.504-3.816,1.008-5.04,1.44-8.856
		c0.648-1.584,1.296-3.168,1.944-4.824c0.936-4.536,0.936-4.536,3.384-12.96c0.432-4.3201,0.936-5.7601,1.44-9.864
		c0.72-1.6561,1.152-4.5361,1.656-5.76c0.288-1.944,0.576-3.96,0.936-5.976c0.504-0.936,1.44-4.5361,2.4479-6.696
		c0.936-3.888,1.44-5.04,2.376-9.6481c1.944-5.7599,2.376-7.9199,2.88-8.8559c0.288,0,0.576-0.072,0.864-0.1441
		c0.144,0.2881,0.288,0.5761,0.504,0.8641c-0.936,2.88-1.872,5.7599-2.808,8.64c-0.936,4.32-1.944,7.2-2.376,9.576
		c-0.288,0.72-0.6479,1.44-1.008,2.16c-1.872,7.2-2.376,10.8-2.8799,11.808c-0.144,0.936-0.288,1.8721-0.4321,2.88
		c-0.144,0.2161-0.288,0.432-0.504,0.72c-0.144,1.512-0.288,3.024-0.504,4.5359c-2.376,10.584-3.6,14.4001-4.536,18.9361
		c-0.288,0.72-0.576,1.44-0.936,2.16c-1.728,7.2-1.728,7.2-2.16,10.8c-1.0081,2.88-1.44,5.76-2.4481,9.648
		c-0.1439,0.936-0.288,1.872-0.4319,2.88c-0.216,0.36-0.432,0.72-0.72,1.152c-1.008,5.328-1.008,5.328-1.44,9.648
		c0,0.504,0,1.08,0.072,1.656c10.152-0.144,10.152-0.144,16.848-0.648c28.8,0.504,28.8,0.504,39.384,0.288
		c5.04,0.432,10.08,0.936,15.12,1.44c1.584,0,3.168,0,4.752,0c0.72-1.512,1.512-3.096,2.304-4.68
		c0.936-3.096,1.44-3.816,2.376-6.984c0.072-0.864,0.144-1.728,0.216-2.592c1.008-1.008,1.008-1.008,1.944-2.448
		c1.944-4.536,1.944-4.536,4.824-10.08c-0.288-1.656-0.72-2.592-0.72-3.6c0.144-0.144,0.288-0.288,0.4321-0.432
		c0.504-7.92,0.504-7.92,1.0079-11.088c0-1.656,0-3.312,0-5.04c0.72-5.472,0.72-5.472,0.936-10.296
		c0.288-1.6561,0.576-3.312,0.936-5.04c0.36,0,0.72-0.072,1.152-0.144c0.288,0.6479,0.288,0.6479,0.072,3.0239
		c-0.144,0.4321-0.288,0.936-0.504,1.44c-0.936,13.1761-0.936,13.1761-1.152,23.7601c0.072,0.36,0.216,0.792,0.36,1.224
		c0.648-0.792,1.296-1.584,2.0159-2.448c3.816-9.576,5.7601-13.68,8.136-19.6561c0.648-1.944,1.296-3.96,1.944-5.976
		c1.872-4.608,3.816-9.288,5.7599-13.968c0.288,0,0.576-0.072,0.864-0.144c0.072,1.584,0.072,1.584-0.36,3.0239
		c-1.008,1.7281-4.824,11.0881-5.328,11.808c-1.872,5.9761-2.88,7.92-3.816,11.52c-1.944,3.816-1.944,3.816-2.88,6.696
		c-0.936,2.304-1.872,4.608-2.8801,6.984c-0.6479,0.864-1.296,1.728-1.944,2.592c-0.072,0.648-0.144,1.296-0.288,1.944
		c9.7919,0.36,9.7919,0.36,11.952,0.792c0.288,0.36,0.576,0.72,0.864,1.152c0,0.576,0,1.224,0,1.872
		c-0.504,1.0081-0.504,1.0081-0.576,2.16c0.288,0.0721,0.576,0.216,0.936,0.36c0.7921,1.08,0.7921,1.08,1.152,2.52
		c0.072-0.072,0.216-0.144,0.36-0.216c0.72-5.256,0.72-5.256,1.224-14.616c0.288-0.216,0.576-0.432,0.864-0.72
		c0.216,0.216,0.504,0.432,0.7919,0.72c-0.4319,11.232-0.4319,11.232-0.936,14.616c0.072,1.44,0.144,2.88,0.216,4.32
		c0.144,0.144,0.288,0.36,0.432,0.576c1.296,0.2881,2.664,0.576,4.032,0.936c1.656,0.648,3.312,1.2961,5.0399,1.944
		c4.32,0.936,4.32,0.936,5.3281,1.44c0.936,1.008,1.872,2.016,2.88,3.024c-0.144,0.216-0.288,0.504-0.504,0.792
		c-6.048,0-12.096,0-18.216-0.072c0.072,0.432,0.144,0.936,0.288,1.44c1.296,1.6559,2.592,3.312,3.8879,5.04
		c1.872,3.384,1.872,3.384,3.744,6.12c0.432,0.144,0.936,0.288,1.44,0.432c0,0.648,0,1.368,0.072,2.088
		c0.288,0.216,0.576,0.432,0.936,0.72c1.944,3.6,1.944,3.6,2.88,4.824c0.72,0.4319,0.72,0.4319,1.008,0.936
		c0,0.72-0.288,1.224-0.144,2.52c5.976,0.432,11.952,0.936,18,1.44c1.08,0.576,2.232,1.224,3.384,1.872
		c0.36,0.36,0.72,0.72,1.08,1.152c0.144,0.504,0.288,1.08,0.432,1.656c-0.072,0.432-0.144,0.936-0.216,1.44
		c-4.176,3.816-4.176,3.816-5.616,4.824c-2.376,0.792-2.376,0.792-9.576,2.232c-2.4479,0.072-4.968,0.144-7.488,0.216
		c-7.2,1.224-7.2,1.224-10.8,1.44c-0.504,0.576-1.08,1.152-1.656,1.728c0,0.576-0.072,1.152-0.144,1.8
		c0.72,1.08,1.44,2.232,2.16,3.384c0.288,0.936,0.576,1.872,0.936,2.88c0.288,0.432,0.6481,0.936,1.008,1.44
		c1.08,0.144,2.16,0.36,3.2401,0.576c1.44-0.504,1.44-0.504,4.824-0.72c0.288-0.144,0.576-0.288,0.936-0.504
		c2.6641-0.144,5.4-0.288,8.136-0.504c3.384-0.936,3.384-0.936,4.32-1.44c2.088,0,4.176,0,6.264,0
		c0.7921-0.216,1.584-0.432,2.376-0.72c0.936,0,1.8719,0,2.88,0c1.944-0.936,1.944-0.936,3.8879-1.44c0.432,0,0.936,0,1.44,0
		c0.288-0.216,0.576-0.432,0.936-0.72c3.6,0.288,3.6,0.288,5.04,0.72c2.952,0,5.904,0,8.856,0c5.544-0.936,5.544-0.936,9.36-1.152
		c0.432,0.144,0.936,0.288,1.44,0.432c1.224-0.216,3.168,0,6.048-0.216c1.584-0.36,3.168-0.792,4.752-1.224c1.152,0,2.376,0,3.6,0
		c1.0081,0.504,1.0081,0.504,1.944,0.504c0.36-0.288,0.7921-0.576,1.224-0.936c0.864,0,1.728,0,2.592,0
		c0.576,0.216,1.152,0.432,1.728,0.72c2.8799,0,2.8799,0,4.752-0.288c0.432-0.216,0.9359-0.432,1.4399-0.72
		c2.4481-0.216,2.6641-0.432,5.3281-0.432c0.936-0.288,3.096-0.288,3.5999,0c0.432,0,0.936,0,1.4401,0
		c0.216-0.144,0.432-0.288,0.72-0.504c1.44,0,1.44,0,1.7279,0.36c0,0.504,0,1.008-0.072,1.584
		c-0.6479,0.144-1.296,0.288-1.944,0.432c-4.32-0.216-4.32-0.216-7.2,0c-0.288,0.144-0.576,0.288-0.936,0.504
		c-0.864,0-1.728,0-2.6641,0c-0.3599,0.216-0.72,0.432-1.152,0.72c-0.936,0-1.8719,0-2.8799,0
		c-0.2161,0.144-0.432,0.2881-0.72,0.504c-1.008-0.36-2.088-0.792-3.168-1.224c-0.504,0-1.08,0-1.6559,0
		c-0.504,0.36-1.08,0.7921-1.6561,1.224c-2.1599-0.288-2.1599-0.288-2.8799-0.72c-1.152,0.072-2.376,0.144-3.6,0.216
		c-1.0801,0.2881-2.232,0.576-3.384,0.936c-1.44,0.144-2.88,0.288-4.32,0.504c-0.144,0.216-0.288,0.432-0.504,0.72
		c-0.288,0-0.576,0-0.936,0c-1.44-0.936-1.44-0.936-3.096-1.44c-2.448,0.36-4.968,0.7921-7.488,1.224
		c-7.632,0.432-7.632,0.432-10.512,0.216c-1.944-0.504-1.944-0.504-3.6-0.504c-0.288,0.144-0.648,0.288-1.008,0.504
		c-1.152,0.0721-2.376,0.144-3.6,0.216c-0.7921,0.576-1.584,1.152-2.376,1.728c-1.152-0.072-2.376-0.144-3.6-0.288
		c-0.504,0.144-1.08,0.288-1.656,0.504c-2.0161,0-4.032,0-6.048,0c-0.936,0.36-1.872,0.792-2.88,1.224
		c-5.256,0.72-5.256,0.72-9.576,0.936c-2.88,0.936-2.88,0.936-3.096,1.224c-1.656,0-3.312,0.072-5.04,0.144
		c1.512,3.456,3.024,6.984,4.608,10.512c0.3599,0.36,0.72,0.792,1.08,1.224c0.288,0.072,0.648,0.144,1.008,0.216
		c-0.072,0.432-0.216,0.936-0.36,1.44c0.216,0.792,0.432,1.584,0.72,2.448c0.5759,1.08,1.2239,2.16,1.8719,3.312
		c0.432,0.2881,0.864,0.576,1.368,0.864c1.872,0.144,3.816,0.288,5.7599,0.432c8.28,1.44,16.632,2.88,24.984,4.3199
		c1.728,0.648,3.456,1.2961,5.256,1.944c1.44,1.368,2.88,2.7361,4.32,4.104c0.5759,1.224,1.152,2.448,1.7999,3.744
		c0.0721,0.864,0.144,1.728,0.216,2.592c0.288,0.864,0.576,1.728,0.936,2.664c1.512,1.728,3.096,3.456,4.68,5.256
		c0.36-0.216,0.36-0.216,0.864-1.44c0.432-0.072,0.864-0.216,1.368-0.36c0.072-0.216,0.144-0.504,0.288-0.792
		c0.4319,0,0.864-0.072,1.368-0.144c0.288,0.216,0.576,0.432,0.936,0.72c1.728,0.072,3.5281,0.144,5.328,0.216
		c0.504-0.288,1.08-0.576,1.656-0.936c1.944,0.072,3.96,0.144,5.976,0.216c4.104-0.504,4.104-0.504,5.544-0.936
		c0.504-0.288,1.08-0.648,1.656-1.008c1.728-0.216,1.728-0.216,8.424-0.216c1.944,0.504,1.944,0.504,3.096,0.504
		c0.288-0.576,0.648-1.152,1.008-1.728c0.936,0,0.936,0,1.296,0.432c0,0.36,0,0.72,0,1.152c-0.4319,0.72-0.936,1.44-1.4401,2.16
		c-0.2879,0-0.5759,0.072-0.8639,0.144c-0.72-0.216-1.44-0.432-2.16-0.72c-3.024,0.072-6.048,0.144-9.072,0.216
		c-1.08,0.432-2.2319,0.936-3.384,1.44c-4.104,0.504-4.104,0.504-7.416,0.504c-0.72-0.072-1.44-0.144-2.16-0.288
		c-0.432,0.288-0.936,0.648-1.4401,1.008c-1.728,0.432-1.728,0.432-8.2079,0.72c-0.72-0.144-1.44-0.36-2.16-0.576
		c0.8641,1.872,1.8,3.096,2.7361,5.256c1.0079,1.44,1.0079,1.44,1.944,3.816c1.584,0.36,1.584,0.36,3.24,1.2961
		c0.144,0.216,0.288,0.432,0.504,0.6479c0.504,3.744,1.08,7.488,1.6559,11.304c0.36,0,0.792-0.072,1.224-0.144
		c1.656-1.008,6.48-2.88,8.424-3.888c0.936,0,1.872,0,2.88,0c5.7599-1.872,5.7599-1.872,6.696-2.376c1.944-0.216,1.944-0.216,4.32,0
		c3.168-0.792,6.336-1.584,9.576-2.376c1.944,0.216,2.16,0.432,4.104,0.432c0.144,0.216,0.288,0.432,0.504,0.648
		c-0.288,0.36-0.6479,0.72-1.008,1.08c-0.5759,0.144-1.2239,0.288-1.8719,0.432c-1.4401,0-2.88,0-4.3201,0
		c-2.304,0.432-4.6079,0.936-6.9839,1.44c-1.656,0.144-3.312,0.288-5.04,0.504c-6.696,1.944-6.696,1.944-9.36,2.376
		c-2.952,1.2961-5.9041,2.592-8.8561,3.888c-1.296,0.288-2.592,0.576-3.8879,0.936c-2.952-0.072-5.904-0.144-8.856-0.216
		c-2.808,0.792-5.616,1.584-8.424,2.376c-5.7601,0.216-7.416,0.504-16.776,0.72c-5.04-0.504-5.04-0.504-9.8641-0.504
		c-0.1439-0.216-0.288-0.432-0.4319-0.72c-2.808,0.072-5.616,0.144-8.424,0.288c-2.88,0.936-2.88,0.936-7.416,1.872
		c-2.16,1.008-5.3279,1.944-8.2079,3.384c-0.432,0.504-2.16,1.44-2.592,1.944c-5.04,2.88-6.48,3.312-9.648,5.256
		c-0.792,0.648-1.584,1.296-2.376,1.944c-3.312,1.872-6.696,3.816-10.08,5.76c-1.584,0.144-3.168,0.288-4.824,0.432
		c-6.912,1.944-6.912,1.944-12.4559,3.888c-2.8801,0.432-2.8801,0.432-5.976,1.44c-1.44,0.144-2.88,0.288-4.32,0.432
		c-0.936,0.36-1.872,0.792-2.88,1.224c-1.8,0-3.672,0-5.544,0c-7.92,1.44-7.92,1.44-8.856,1.944
		c-1.0079,0.216-2.088,0.432-3.168,0.72c-5.112,0.216-10.224,0.432-15.336,0.72c-0.504-0.288-0.504-0.288-13.4641,0.216
		c-0.5759-0.144-1.224-0.288-1.8719-0.504c-3.528,0.072-7.056,0.144-10.584,0.288c-2.376-0.4319-4.752-0.936-7.2-1.44
		c-0.792,0-1.584,0-2.376,0c-1.944-1.008-1.944-1.008-6.984-2.88c-1.224-1.008-1.224-1.008-3.816-2.448
		c-3.168-0.936-3.168-0.936-12.744-2.592c-2.448,0-4.896,0-7.416,0c-2.16,1.152-2.16,1.152-5.04,2.16
		c-0.864,0.144-1.728,0.288-2.664,0.432c-1.152,0.576-2.304,1.224-3.528,1.872c0,0.432,0,0.936,0,1.44
		c-0.288,0.792-0.576,1.584-0.936,2.376c-5.04,2.52-10.08,5.04-15.192,7.56c-1.944,0.432-1.944,0.432-2.664,0.936
		c-2.52,0.432-5.112,0.936-7.704,1.44c-1.872,0-3.816,0-5.76,0c-2.88-0.504-4.752-0.504-6.48-0.936
		c-5.472-0.504-10.512-1.44-18.432-2.16c-0.288,0.144-0.648,0.288-1.008,0.432c-2.376-0.216-2.376-0.216-5.472,0
		c-0.648,0.144-1.368,0.288-2.088,0.432c-0.504,1.44-0.504,1.44-0.36,2.16c0.504,0.288,1.008,0.576,1.584,0.936
		c0,0.72,0,0.72-0.36,1.08c-0.72,0.144-1.44,0.288-2.16,0.432c-1.44,1.224-1.44,1.224-2.16,1.368
		c0.072,0.216,0.144,0.432,0.216,0.72c0.288,0.144,0.576,0.288,0.864,0.504c0.072,0.288,0.144,0.576,0.216,0.936
		c-0.36,0.216-0.72,0.504-1.08,0.792c-2.232-0.144-4.464-0.288-6.696-0.432c-4.32-1.008-4.32-1.008-6.48-1.224
		c-1.008,0.432-2.016,0.864-3.096,1.368c0.144,0.216,0.288,0.504,0.432,0.792c2.88,0.936,2.88,0.936,4.608,1.944
		c1.152,0.144,2.376,0.288,3.6,0.432c1.872,1.008,1.872,1.008,5.976,2.52c0.144,0.216,0.288,0.432,0.504,0.648
		c6.912,2.016,13.896,4.104,20.88,6.192c0.144,0.288,0.36,0.576,0.576,0.864c3.024,0.864,3.024,0.864,8.064,1.8
		c2.16,0.936,8.136,2.376,10.8,3.384c0.288,0.216,0.576,0.504,0.936,0.7921c-0.504,0.6479-0.504,0.6479-1.44,1.224
		c0.432,0.432,0.936,0.936,1.44,1.44c-0.36,0.36-0.792,0.72-1.224,1.08c0,0.288-0.072,0.576-0.144,0.864
		c0.36,0.288,0.792,0.576,1.224,0.936c0.216,1.44,0,1.728,0.144,2.7361c1.08,0.4319,2.232,0.936,3.384,1.44
		c0.432,0.432,0.936,0.936,1.44,1.44c2.016,0.648,4.104,1.296,6.192,1.944c0.216,0.2159,0.432,0.4319,0.72,0.72
		c1.584,0.432,3.168,0.936,4.824,1.44c0.144,0.144,0.288,0.288,0.504,0.504c5.472,1.152,5.472,1.152,8.136,2.1599
		c1.656,0.0721,3.312,0.144,5.04,0.216c0.216,0.288,0.432,0.576,0.72,0.936c0.504,0.144,1.08,0.288,1.656,0.504
		c0.288,0.504,0.648,1.08,1.008,1.656c1.656,0.576,3.312,1.152,5.04,1.728c3.168-0.072,6.336-0.144,9.576-0.288
		c1.656-0.216,3.384-0.504,5.112-0.792c0.144-0.432,0.288-0.936,0.504-1.44c0.288-0.288,0.576-0.576,0.936-0.936
		c0-0.216,0-0.432-0.072-0.648c-1.08-0.432-2.232-0.936-3.384-1.44c0-0.432-0.072-0.864-0.144-1.296
		c0.864-0.504,0.864-0.504,2.304-0.864c1.656-0.072,3.312-0.144,5.04-0.216c4.104,0.432,4.104,0.432,10.368,0.432
		c0.36-0.072,0.72-0.144,1.152-0.216c3.888,0.936,3.888,0.936,4.104,1.296c1.152,0,2.376,0.072,3.6,0.144
		c0.648-0.144,1.296-0.288,1.944-0.504c1.44,0.288,1.44,0.288,1.872,0.72c8.208,0.288,8.208,0.288,9.648,0
		c0.072-0.072,0.144-0.216,0.216-0.36c-0.792-0.792-1.656-1.584-2.52-2.376c0.072-0.36,0.144-0.72,0.216-1.152
		c1.008-0.288,2.016-0.648,3.024-1.008c0-0.216,0-0.432,0-0.72c-0.72-0.216-1.512-0.432-2.304-0.72c0-0.36,0-0.72,0-1.152
		c0.216-0.144,0.4319-0.288,0.6479-0.4319c7.776,0.576,15.624,1.152,23.472,1.728c2.2321,0,4.4641,0,6.7681,0
		c2.592,0.936,2.592,0.936,4.3199,1.152c10.8-0.216,10.8-0.216,14.832,0c10.368,1.4399,10.368,1.4399,17.064,1.944
		c0.288,0.144,0.5759,0.288,0.936,0.504c6.048,0.2159,6.048,0.2159,7.92,0c0.36,0.36,0.36,0.36,0.36,1.296
		c-0.36,0.288-0.36,0.288-0.576,1.008c2.664,0.288,2.664,0.288,3.6,0.792c0.072,0.864,0.072,0.864-0.216,1.8
		c1.008,0.072,2.016,0.216,3.096,0.36c0.72,0.504,0.72,0.504,1.224,1.2961c0.936,0,1.872,0.072,2.8799,0.144
		c3.096-0.504,3.096-0.504,6.696-0.504c0.4319,0.072,0.936,0.144,1.44,0.288c0.288,0.216,0.576,0.432,0.936,0.72
		c2.592,0.072,5.256,0.144,7.92,0.216c3.816-0.504,7.632-1.08,11.52-1.656c3.312-0.144,6.696-0.288,10.08-0.504
		c1.8-0.432,3.672-0.936,5.544-1.44c2.592-0.216,5.256-0.432,7.92-0.72c2.448,0,4.896,0,7.416,0
		c6.624-1.08,13.248-2.232,19.944-3.384c2.664-0.072,5.4-0.144,8.136-0.216c11.0881,0.936,11.0881,0.936,20.4481,1.224
		c0.2159-0.288,0.2159-0.288,5.04-0.504c8.856,0.504,8.856,0.504,11.736,0.936c0.36,0.432,0.36,0.432,0.36,1.152
		c-0.36,0.144-0.72,0.36-1.08,0.576c-0.432,0-0.936,0-1.44,0c-0.288-0.144-0.576-0.288-0.936-0.504
		c-2.88-0.144-5.76-0.288-8.64-0.504c-4.3201,0.072-8.64,0.144-12.96,0.288c-8.208-1.008-8.208-1.008-15.84-1.44
		c-7.488,0.72-7.488,0.72-19.44,2.592c-1.152,0.288-2.376,0.648-3.6,1.008c-8.928,0.216-8.928,0.216-15.624,0.72
		c-1.944,0.432-3.96,0.936-5.976,1.44c-4.32,0.288-8.64,0.576-12.96,0.936c-9.6479,1.656-9.6479,1.656-10.8,1.584
		c-0.072,0.216-0.144,0.4319-0.288,0.72c-0.144-0.216-0.288-0.432-0.504-0.72c-2.808,0.072-3.312-0.144-11.016-0.36
		c-0.936-0.36-0.936-0.36-1.152-0.72c-2.736,0.072-5.472,0.144-8.2079,0.216c-1.152-0.504-1.152-0.504-3.6-0.936
		c-0.216-0.216-0.4319-0.432-0.72-0.72c-1.44-0.144-2.8799-0.288-4.3199-0.504c0-0.216-0.072-0.504-0.144-0.792
		c0.432-0.36,0.864-0.792,1.368-1.224c-4.536-1.08-4.536-1.08-4.968-1.44c-0.072-0.288-0.144-0.576-0.288-0.864
		c-5.3279-0.936-5.3279-0.936-14.688-1.944c-3.24-0.216-6.48-0.432-9.792-0.72c-2.232,0.072-4.464,0.144-6.768,0.288
		c-4.3199-0.504-4.3199-0.504-6.912-1.224c-13.968-0.504-13.968-0.504-20.448-0.36c-0.36,1.008-0.36,1.008-0.936,1.44
		c-2.088,0.144-4.176,0.288-6.264,0.504c0.072,0.288,0.216,0.576,0.36,0.936c0.864,0.648,1.728,1.296,2.664,1.944
		c0,0.216,0,0.432,0,0.72c-0.36,0.216-0.72,0.504-1.08,0.792c-2.304,0.216-4.608,0.432-6.984,0.72
		c-6.912-0.432-6.912-0.432-14.832-0.432c-0.936-0.288-1.872-0.6479-2.88-1.008c-10.8-0.72-10.8-0.72-12.744-0.576
		c0.072,0.216,0.144,0.432,0.216,0.72c1.44,1.008,1.44,1.008,2.5201,2.16c-0.072,0.288-0.144,0.648-0.216,1.008
		c-0.504,0.072-1.008,0.144-1.584,0.216c0.144,0.648,0.36,1.296,0.576,1.944c-0.288,0.288-7.488,0.792-9.648,1.296
		c-2.304,0.144-4.608,0.288-6.984,0.432c-0.144,0.144-0.288,0.288-0.504,0.504C218.52,308.1601,217.944,308.1601,217.368,308.1601
		L217.368,308.1601z M134.352,259.3441c-0.144-0.288-0.288-0.576-0.504-0.864c-4.32-0.936-4.32-0.936-5.256-1.44
		c-5.76-0.936-5.76-0.936-8.208-1.584c0.072-0.072,0.144-0.216,0.288-0.36c1.08-0.0721,2.16-0.144,3.312-0.216
		c3.6,0.432,7.2,0.936,10.8,1.44c1.44,0.936,1.44,0.936,1.944,1.584c-0.288,0.504-0.576,1.008-0.936,1.512
		C135.36,259.4161,134.856,259.4161,134.352,259.3441L134.352,259.3441z M175.104,255.8161c-11.016-1.656-11.016-1.656-14.4-1.872
		c-2.952-0.576-5.904-1.152-8.856-1.728c-5.976-0.432-6.48-0.72-11.736-1.152c-0.432-0.144-0.936-0.288-1.44-0.504
		c-4.104-0.216-6.768-0.72-14.184-1.224c-3.816-0.936-9.36-1.872-15.336-3.456c0-0.216,0-0.432,0-0.72
		c7.56,0.504,15.12,1.008,22.752,1.584c0.72,0.432,0.72,0.432,5.04,1.152c4.968,0.144,9.936,0.288,14.904,0.504
		c3.096,0.504,3.096,0.504,11.736,0.936c0.216,0.144,0.432,0.288,0.72,0.504c2.448,0.072,4.968,0.144,7.488,0.216
		c0.288,0.144,0.576,0.288,0.936,0.504c5.688,0.504,11.376,1.008,17.064,1.584c0,0.216,0,0.504,0,0.792
		c-2.448,1.008-2.448,1.008-3.6,1.944C181.872,255.0961,179.424,255.6001,175.104,255.8161L175.104,255.8161z M290.592,246.9601
		c-2.4481-0.504-2.4481-0.504-3.168-0.936c-8.64,0.72-8.64,0.72-14.112,0.72c-0.504-0.288-0.504-0.288-10.8-0.288
		c-0.072-0.216-0.144-0.504-0.288-0.792c4.104-0.36,6.264-0.864,18.504-1.8c2.376-0.504,5.7599-0.72,5.976-1.008
		c3.384-0.432,3.8881-0.72,16.56-1.872c0.504-0.288,0.504-0.288,7.2-1.224c4.104,0,4.104,0,15.84-0.936
		c1.44-0.504,8.2081-1.44,12.528-2.448c0.864-0.288,1.728-0.576,2.592-0.936c2.8799,0,2.8799,0,3.168,0.216
		c-0.144,0.144-0.2881,0.288-0.504,0.504c-2.376,0.432-4.752,0.936-7.2,1.44c-1.44,0.648-2.88,1.296-4.32,1.944
		c-3.24,0.792-6.552,1.584-9.864,2.376c-0.936,0.072-1.872,0.144-2.8799,0.2159c-0.936,0.288-1.8721,0.648-2.88,1.008
		c-1.008,0-2.0161,0-3.096,0c-1.368,0.288-2.736,0.576-4.1041,0.936c-2.2319,0.144-4.4639,0.288-6.696,0.504
		c-0.288,0.288-0.576,0.576-0.936,0.936c-0.864,0.288-1.728,0.576-2.664,0.936c-0.432-0.072-0.936-0.144-1.44-0.216
		C294.624,246.744,291.312,246.744,290.592,246.9601L290.592,246.9601z M144.144,245.0161c-9.72-0.432-19.44-0.936-29.232-1.44
		c-5.76-0.576-11.52-1.224-17.28-1.872c-3.96-0.648-7.992-1.296-12.024-1.944c-5.04-3.816-9.576-7.704-12.24-9.576
		c-0.72-0.72-1.44-1.44-2.16-2.16c-2.88-1.944-4.536-3.384-7.704-5.3279c-1.224-1.008-2.448-2.088-3.744-3.168
		c0-0.216,0-0.432,0-0.72c0.648-0.5041,0.648-0.5041,3.312-1.368c6.192-0.936,7.416-1.44,10.08-1.944
		c2.16-0.144,4.32-0.288,6.48-0.432c10.8-1.944,10.8-1.944,15.84-2.448c3.096,0,4.032-0.216,14.4-0.432
		c11.736,0.432,11.736,0.432,15.336,0.936c2.952,0,5.904,0,8.856,0c1.584,0.144,3.168,0.288,4.824,0.504
		c12.024,0.216,12.024,0.216,17.496,0c0.144-0.288,0.288-0.576,0.504-0.864c-0.216-0.288-0.432-0.576-0.72-0.864
		c-4.104-0.216-4.104-0.216-9.576,0c-13.248-0.72-13.248-0.72-19.944-1.44c-1.728,0-3.456,0-5.256,0
		c-1.08-0.216-2.232-0.432-3.384-0.72c-8.64-0.144-17.28-0.288-25.92-0.432c-2.304-0.216-4.608-0.4319-6.984-0.72
		c-0.936-0.288-1.872-0.648-2.88-1.008c-8.64-0.936-10.8-1.44-15.552-1.872c-1.08-0.288-2.232-0.648-3.384-1.008
		c-5.544-0.432-11.16-0.936-16.776-1.44c-3.312-0.576-6.696-1.224-10.08-1.872c-1.584,0-3.168,0-4.824,0
		c-3.384-1.008-3.384-1.008-8.136-1.944c-1.512-0.072-3.024-0.144-4.608-0.216c-1.872-1.008-1.872-1.008-6.912-2.88
		c-1.584-0.936-3.168-1.872-4.824-2.88c-0.504-0.72-0.504-0.72-0.72-1.8c3.744,0,7.488-0.072,11.304-0.144
		c24.912,0.936,24.912,0.936,33.552,0.936c28.8,1.44,43.92,2.448,49.968,2.448c1.44,0.216,28.08-0.288,41.76-0.288
		c3.312,0.288,3.312,0.288,26.856,0.288c5.328-0.36,10.656-0.792,16.056-1.224c20.88-0.216,37.944-0.72,39.384-0.504
		c11.736,0,12.456,0.288,50.4,0c8.856-0.432,8.856-0.432,19.44-1.44c34.776-1.44,39.816-1.44,44.64-1.872
		c13.176,0,16.056-0.288,40.104-0.72c3.744-0.216,7.488-0.432,11.232-0.72c22.32-0.504,22.32-0.504,31.464-1.008
		c1.872-0.216,3.816-0.432,5.76-0.72c1.656,2.016,3.312,4.032,5.04,6.12c2.0161,3.672,2.0161,3.672,2.52,4.104
		c0.936,2.88,0.936,2.88,1.872,4.32c0.6479,0.36,0.6479,0.36,2.304,0.576c0.864,1.872,0.864,1.872,1.296,3.744
		c-0.0719,1.008-0.1439,2.088-0.2159,3.168c-17.856,2.736-17.856,2.736-22.8961,3.168c-3.312,0.072-6.696,0.144-10.08,0.288
		c-0.36,0.36-0.36,0.36-0.36,2.016c0.144,0.144,0.36,0.288,0.576,0.504c4.1039,0.072,4.1039,0.072,10.368-0.36
		c3.096-0.504,5.76-0.504,11.52-1.44c0.792,0,1.584,0,2.376,0c-2.376,0.936-6.264,1.872-8.856,2.88
		c-1.008,0.072-2.088,0.144-3.168,0.216c-0.36-0.144-0.72-0.288-1.152-0.504c-0.576,0-1.152,0-1.728,0
		c-0.288,0.216-0.5759,0.432-0.936,0.72c-1.944,0.288-8.64,0.288-8.856,0c-0.648,0.072-1.296,0.144-1.944,0.288
		c-2.376-0.216-4.752-0.432-7.2-0.648c-0.36-0.144-0.792-0.36-1.224-0.576c-2.592-0.072-5.256-0.144-7.92-0.216
		c-8.856,2.376-8.856,2.376-11.016,2.592c-1.08,0.6479-2.232,1.296-3.384,1.944c-1.224,0.432-2.5201,0.936-3.816,1.44
		c-1.152,0.936-2.376,1.872-3.6,2.88c-1.44,0.648-2.88,1.296-4.3201,1.944c-2.52,1.656-5.1119,3.312-7.7039,5.04
		c-1.44,0-1.44,0-7.416,0.936c-2.8801,0.648-5.76,1.296-8.64,1.944c-13.4641,1.872-34.344,4.032-40.104,5.04
		c-40.32,3.312-41.256,3.6-47.232,4.032c-0.864-0.072-1.728-0.144-2.664-0.216c-0.792-0.648-1.584-1.296-2.376-1.944
		c-0.72-0.144-1.44-0.36-2.16-0.576c0.072,1.08,0.144,2.16,0.216,3.24c-0.504-0.072-1.08-0.144-1.656-0.216
		c-0.936-0.648-1.872-1.296-2.88-1.944c-4.824-1.944-6.768-2.376-6.984-2.664c-4.104-0.432-4.104-0.432-4.536-0.72
		c-1.08-0.216-2.232-0.432-3.384-0.72c-9.864,0-9.864,0-12.024,0.36c-0.288,0.504-0.576,1.008-0.936,1.584
		c-1.224,0.504-1.224,0.504-4.104,0.936c-1.368,0.72-2.736,1.512-4.176,2.304c-0.144,0.432-0.288,0.936-0.504,1.44
		c-0.864,0.072-1.8,0.216-2.736,0.36C182.448,244.3681,163.296,244.6561,144.144,245.0161L144.144,245.0161z M437.184,214.0561
		c-3.0959-0.432-3.0959-0.432-3.6-0.792c-0.072-0.216-0.144-0.432-0.216-0.72c6.984-1.08,7.416-1.368,8.424-1.44
		c0,0.648,0,1.296,0.072,1.944C441.504,213.3361,441.504,213.3361,437.184,214.0561L437.184,214.0561z M237.024,206.136
		c-0.4319-0.144-0.9359-0.288-1.44-0.432c-1.296-1.08-1.296-1.08-1.584-1.8c0-0.36,0-0.792,0-1.224
		c0.288-0.432,0.648-0.936,1.008-1.44c0.648-0.288,1.296-0.576,2.016-0.864c8.208-0.432,8.208-0.432,12.96-0.216
		c1.44,0.504,1.44,0.504,1.8,0.864c0,0.504,0,1.08,0,1.656c-0.72,0.648-1.512,1.2961-2.304,1.944c-1.08,0.36-2.16,0.72-3.312,1.08
		C243.144,205.8481,240.12,205.9921,237.024,206.136L237.024,206.136z M202.752,205.9201c-1.008-0.072-2.088-0.144-3.168-0.216
		c-0.504-0.288-1.08-0.648-1.656-1.008c-0.144-1.008-0.144-1.008,0.072-2.0161c1.008-1.44,1.008-1.44,1.584-1.8
		c1.296-0.216,2.592-0.432,3.888-0.72c10.08,0,10.08,0,12.672-0.216c0.648,0.144,1.296,0.288,1.944,0.432
		c0.2159,0.432,0.504,0.864,0.792,1.368c-0.216,1.44-0.216,1.44-0.72,2.376c-0.648,0.288-1.2961,0.576-2.016,0.864
		c-2.016,0.288-4.104,0.576-6.192,0.936C207.576,205.9201,205.2,205.9201,202.752,205.9201L202.752,205.9201z M156.888,205.2001
		c-9.144-0.216-9.144-0.216-12.024-0.504c-0.72-0.432-0.72-0.432-1.08-1.008c0-1.008,0-2.088,0-3.168
		c0.504-0.288,1.008-0.576,1.584-0.864c4.32,0,6.48,0.288,10.584,0.288c1.728-0.216,3.456-0.432,5.256-0.72
		c1.08,0.288,2.232,0.576,3.384,0.936c0.288,0.36,0.576,0.72,0.936,1.08c0,0.576,0,1.152,0.072,1.728
		c-0.144,0.216-0.288,0.432-0.432,0.72c-1.008,0.432-2.016,0.864-3.024,1.296C160.416,205.0561,158.688,205.1281,156.888,205.2001
		L156.888,205.2001z M180.144,205.2001c-5.04-0.504-5.04-0.504-5.976-0.936c0-0.36-0.072-0.72-0.144-1.08
		c0.216-0.216,0.432-0.432,0.648-0.648c9.072,0.504,11.016,0.288,11.736,0.504c2.52,0,5.112,0,7.704-0.072
		c0,0.288-0.072,0.576-0.144,0.936c-0.432,0.288-0.864,0.576-1.368,0.936C188.496,204.9121,184.32,205.0561,180.144,205.2001
		L180.144,205.2001z M226.224,203.9761c-0.288-0.072-0.576-0.144-0.864-0.288c0-0.288,0-0.648,0-1.008
		c1.872-0.864,1.872-0.864,3.024-1.08c0.432,0.288,0.864,0.576,1.296,0.864c0,0.936,0,0.936-0.288,1.296
		C228.384,203.8321,227.304,203.9041,226.224,203.9761L226.224,203.9761z M257.904,203.9761c0-0.432-0.072-0.864-0.144-1.2961
		c0.504-0.288,1.008-0.576,1.584-0.864c3.24-0.216,6.552-0.432,9.864-0.72c1.8719,0.072,3.816,0.144,5.76,0.288
		c1.08-0.144,2.232-0.288,3.384-0.504c6.264-0.216,12.6-0.432,18.936-0.72c4.1039,0.216,6.696,0,11.592,0.36
		c0,0.36,0,0.7921,0,1.224c-0.144,0.144-0.288,0.2881-0.432,0.504c-10.224,0.072-10.224,0.072-12.6-0.144
		c-8.424,0.432-8.424,0.432-9.144,0.72c-6.912,0-10.8,0.432-21.6,0.432c-0.576,0.144-1.224,0.288-1.872,0.504
		C261.504,203.8321,259.704,203.9041,257.904,203.9761L257.904,203.9761z M120.672,203.0401c-0.792-0.144-1.584-0.288-2.448-0.504
		c-30.24-0.936-30.96-1.152-38.592-1.152c-2.304-0.288-4.608-0.648-6.984-1.008c-8.064-0.36-16.128-0.72-24.264-1.152
		c-0.36-0.144-0.72-0.288-1.152-0.504c-0.144-0.792-0.144-0.792,0.216-1.224c1.08-0.144,2.232-0.288,3.384-0.432
		c5.472,0.216,10.296,0.72,25.92,1.656c0.576,0.144,1.224,0.288,1.872,0.504c12.528,0.432,17.784,0.936,20.88,0.936
		c0.72,0.216,9.864,0.216,19.224,0.72c0.72,0.216,6.48,0,17.28,0.216c0.504,0.504,0.504,0.504,0.576,1.368
		c-0.072,0.072-0.216,0.216-0.36,0.36C123.552,202.8241,123.552,202.8241,120.672,203.0401L120.672,203.0401z M332.568,200.3761
		c-0.288-0.144-0.576-0.288-0.936-0.432c0-0.288-0.072-0.576-0.144-0.864c0.576-0.576,0.576-0.576,1.584-0.864
		c1.2239,0,2.52,0,3.816,0c0.144,0.216,0.288,0.432,0.504,0.648c-0.432,0.36-0.936,0.72-1.44,1.08
		C334.872,200.0881,333.72,200.2321,332.568,200.3761L332.568,200.3761z M320.328,200.1601c0-0.504,0-1.008,0-1.512
		c0.216-0.144,0.432-0.288,0.72-0.432c1.584-0.072,3.168-0.144,4.824-0.216c0.144,0.144,0.288,0.36,0.4319,0.576
		c-0.1439,0.216-0.288,0.432-0.4319,0.648C324.648,199.6561,324.648,199.6561,320.328,200.1601L320.328,200.1601z M343.368,200.1601
		c-0.288-0.072-0.288-0.072-0.36-1.08c0.432-0.432,0.432-0.432,1.584-0.864c1.224,0,2.448,0.072,3.6719,0.144
		c0,1.008,0,1.008-0.36,1.2961C345.024,200.1601,345.024,200.1601,343.368,200.1601L343.368,200.1601z M354.384,198.9361
		c0-0.288-0.072-0.648-0.144-1.008c0.144-0.144,0.288-0.288,0.432-0.432c1.224,0,2.52,0,3.816-0.072c0,0.288,0,0.576,0.072,0.936
		c-0.144,0.144-0.36,0.288-0.576,0.504C356.832,198.8641,355.608,198.8641,354.384,198.9361L354.384,198.9361z M371.664,198.5041
		c-0.432-0.504-0.432-0.504-0.576-1.584c0.576-0.36,0.576-0.36,3.24-0.864c4.464-0.072,8.928-0.144,13.464-0.216
		c1.512-0.216,3.024-0.432,4.536-0.72c0.936-0.936,0.936-0.936,1.656-1.224c5.04-0.072,10.08-0.144,15.12-0.216
		c0.072,0.0721,0.216,0.216,0.36,0.36c-0.072,0.576-0.144,1.152-0.216,1.728c-4.68,0.216-9.36,0.504-14.04,0.792
		c-0.432,0.288-0.936,0.576-1.44,0.936c-1.08,0.144-2.232,0.288-3.384,0.504C381.744,198.2161,380.088,198.5041,371.664,198.5041
		L371.664,198.5041z M414.648,195.6241c-0.216-0.216-0.432-0.432-0.72-0.648c0.072-0.288,0.216-0.576,0.36-0.936
		c4.608-0.36,9.216-0.72,13.824-1.08c0.288,0.144,0.576,0.288,0.936,0.504c0,0.288,0,0.576,0.072,0.864
		c-0.144,0.144-0.288,0.288-0.432,0.432c-1.08,0.144-2.16,0.36-3.24,0.576C416.304,195.3361,416.304,195.3361,414.648,195.6241
		L414.648,195.6241z M102.168,192.9601c-21.816-0.936-23.544-1.224-38.664-1.656c-1.584-0.144-3.168-0.288-4.752-0.504
		c-10.008-0.144-20.016-0.288-30.024-0.504c-4.752-0.288-9.576-0.576-14.4-0.936c-9.144,0-9.144,0-11.52-0.36
		c0-0.288-0.072-0.576-0.144-0.936c4.176-3.816,4.176-3.816,8.784-7.56c1.944-1.008,1.944-1.008,4.32-2.88
		c2.376-1.008,2.376-1.008,3.816-1.224c0.36,0.864,0.36,0.864,0.576,4.68c0.288,0.216,0.576,0.432,0.864,0.72
		c0.864-0.432,0.864-0.432,1.08-0.936c0-1.8,0-3.672,0-5.544c2.304-0.864,2.304-0.864,3.96-1.8c1.368-0.288,2.736-0.576,4.104-0.936
		c1.512-0.648,3.024-1.296,4.536-1.944c4.608-1.224,9.288-2.52,13.968-3.816c7.632,0.72,7.632,0.72,17.28,2.16
		c0.936,0.576,1.872,1.224,2.88,1.872c4.32,4.104,8.352,8.64,11.952,11.88c0.648,0.936,1.296,1.872,1.944,2.808
		c0.936,0,0.936,0,1.656-0.504c0-0.36,0.072-0.72,0.144-1.08c-0.72-0.864-1.44-1.728-2.16-2.592c-0.864-0.72-1.728-1.44-2.664-2.16
		c-1.224-1.512-2.52-3.024-3.816-4.608c-8.928-7.92-8.928-7.92-11.808-10.8c0-0.216,0-0.4319,0-0.72
		c6.408-1.8,6.408-1.8,9.288-2.304c0.864,0,1.728,0,2.664,0c0.504-0.288,1.08-0.576,1.656-0.936
		c10.584-1.944,10.584-1.944,25.92-4.32c2.448,0.0721,4.896,0.144,7.416,0.216c1.008,1.368,1.008,1.368,1.296,2.304
		c0.576,0.432,1.152,0.936,1.728,1.44c0,0.216,0,0.432,0,0.72c-2.52,0.864-2.52,0.864-6.624,1.8
		c-2.232,0.288-4.464,0.576-6.696,0.936c-1.872,0.432-3.816,0.936-5.76,1.44c-0.216,0.288-0.432,0.576-0.72,0.864
		c0.144,0.288,0.288,0.648,0.432,1.008c13.032,0.288,13.032,0.288,19.944,0.072c1.728-0.504,1.728-0.504,5.328-0.72
		c1.44,1.44,2.88,2.88,4.32,4.32c1.872,1.224,3.816,2.52,5.76,3.816c1.584,1.2961,3.168,2.592,4.752,3.888
		c1.8,2.232,3.672,4.464,5.544,6.696c1.224,0,1.224,0,1.512-0.36c0-0.432,0-0.936,0-1.44c-1.152-1.152-1.152-1.152-1.656-2.376
		c-0.36-0.288-0.792-0.576-1.224-0.936c-0.576-0.864-1.224-1.728-1.872-2.664c-1.44-1.224-2.952-2.52-4.464-3.816
		c-2.304-1.584-4.68-3.168-7.056-4.824c-8.64-8.856-8.64-8.856-11.088-11.016c0-0.288,0.072-0.648,0.144-1.008
		c11.808-0.36,11.808-0.36,16.344-0.144c3.816,0.504,3.816,0.504,13.176,1.008c6.768,0,13.608,0.072,20.448,0.144
		c0.288,0.936,0.288,0.936,2.376,3.6c0.504,0.216,1.08,0.504,1.656,0.792c0.504,0.72,2.16,1.656,3.6,2.88
		c0.648,0.864,1.296,1.728,1.944,2.664c0.36,0.288,0.792,0.576,1.224,0.936c0.576,0.936,1.224,1.872,1.872,2.88
		c1.512,1.368,3.024,2.736,4.608,4.176c2.88,4.464,2.88,4.464,3.168,5.328c1.224,1.152,2.448,2.304,3.744,3.456
		c0.36,0,0.792,0,1.224,0c0.504-0.504,0.504-0.504,0.576-1.2961c-1.08-1.008-2.232-2.016-3.384-3.096
		c-1.872-2.88-1.872-2.88-3.312-5.76c-2.664-1.944-2.664-1.944-4.68-4.104c-2.088-2.88-2.088-2.88-6.624-7.704
		c-4.104-2.88-4.104-2.88-4.536-3.6c0-0.288,0.072-0.576,0.144-0.864c13.896,0,13.896,0,39.816,0.72
		c1.872,0.144,3.816,0.288,5.76,0.504c1.944,2.664,2.664,3.096,6.48,7.704c0.792,1.224,1.656,2.448,2.52,3.744
		c8.136,8.64,8.136,8.64,10.08,11.232c0.792,0.648,1.656,1.2961,2.52,1.944c1.224,0.0721,1.224,0.0721,1.512-0.2159
		c0-0.36,0-0.7921,0-1.224c-0.792-0.648-1.584-1.296-2.376-1.944c-1.368-1.656-2.736-3.312-4.104-5.04
		c-1.944-2.016-3.96-4.104-5.976-6.192c-3.384-4.608-4.104-5.04-7.704-9.648c0-0.216,0.072-0.432,0.144-0.72
		c0.576-0.072,1.152-0.216,1.7281-0.36c21.312,0.504,31.68,0.504,35.136,0.864c0.072,0.648,0.216,1.296,0.36,2.016
		c1.944,0,3.9599-0.072,5.976-0.144c0.864,1.944,1.7999,3.888,2.736,5.832c1.944,2.376,5.76,8.136,8.928,11.952
		c0.5759,1.08,1.152,2.16,1.8,3.24c1.224,0,1.224,0,1.512-0.36c0-0.432,0-0.936,0-1.44c-1.872-2.88-3.816-5.04-5.76-7.92
		c-0.936-0.936-1.872-2.88-5.7601-7.92c-0.3599-0.792-0.72-1.584-1.152-2.376c0-0.432-0.072-0.936-0.144-1.44
		c2.088-0.072,4.176-0.216,6.264-0.36c4.824-0.648,9.72-1.296,14.616-1.944c0.288-0.216,0.648-0.432,1.008-0.72
		c0.72,0,1.44,0,2.16,0c0.288,0.288,0.576,0.576,0.936,0.864c1.8,0,3.672,0,5.544,0.072c1.872,2.808,1.872,2.808,3.096,4.104
		c0.432,0.288,0.936,0.576,1.44,0.936c1.08,1.152,2.2319,2.376,3.384,3.6c1.224,2.376,2.448,4.752,3.672,7.128
		c1.08,1.44,2.16,2.88,3.24,4.392c1.224,0,1.224,0,1.584-0.288c0-0.36,0-0.792,0-1.224c-0.936-1.224-1.8721-2.52-2.88-3.816
		c-1.944-4.104-1.944-4.104-3.8881-7.488c-1.08-1.1519-2.16-2.376-3.312-3.6c-1.296-1.008-2.592-2.016-3.888-3.096
		c0-0.288,0-0.576-0.072-0.936c5.904-0.216,11.808-0.432,17.784-0.648c0.216-0.216,0.432-0.432,0.72-0.72
		c1.152,0,2.376,0.0721,3.6,0.144c0.432,0.36,0.432,0.36,1.656,0.36c0.216-0.144,0.432-0.288,0.72-0.504
		c9.36-0.936,9.36-0.936,9.864-1.224c3.6,0,3.6,0,8.64-0.432c4.032,0.072,8.136,0.144,12.24,0.216
		c0.792,0.144,1.584,0.2881,2.376,0.504c5.04,0,5.04,0,7.92,0.432c1.8,4.968,1.8,4.968,2.8799,7.128
		c1.08,1.224,1.08,1.224,2.0161,3.096c0.936,2.808,1.872,5.616,2.88,8.424c0.36,0.648,0.792,1.296,1.224,1.944
		c0.2159,0.144,0.504,0.288,0.792,0.432c0.36-0.216,0.72-0.432,1.08-0.72c-0.072-0.432-0.1439-0.936-0.216-1.44
		c-0.6479-1.224-1.296-2.5201-1.944-3.816c-0.144-0.864-0.288-1.728-0.432-2.664c-0.504-0.432-1.008-2.376-1.944-3.816
		c-0.288-0.864-0.576-1.728-0.936-2.664c-0.36-0.504-0.7919-1.08-1.2239-1.656c-0.936-2.376-0.936-2.376-1.0801-3.816
		c4.1041,0.576,6.9841,0.576,12.744,1.512c1.152,0.36,2.376,0.72,3.6,1.08c2.52,5.112,5.04,10.224,7.632,15.408
		c0.6479,0.216,1.296,0.504,1.944,0.792c4.752,0.216,9.576,0.432,14.4,0.72c4.032,0,8.136,0,12.2399,0
		c0.936-0.288,1.872-0.576,2.88-0.936c1.44-1.008,1.44-1.008,2.4481-1.224c1.0079,1.08,2.016,2.16,3.096,3.24
		c0.36,0.72,0.72,1.44,1.08,2.16c0.432,3.168,0.936,4.824,0.864,5.904c-1.872,0.216-3.816,0.432-5.76,0.72
		c-38.16,1.152-38.16,1.152-44.928,1.656c-30.96,0.504-38.376,0.936-56.88,1.224c-12.096,0.576-24.264,1.224-36.432,1.872
		c-0.936,0.144-1.872,0.288-2.88,0.504c-14.472,0.0721-28.944,0.144-43.488,0.216c-4.896-0.144-9.864-0.288-14.832-0.432
		c-42.48,1.152-42.48,1.152-43.2,1.44c-8.928,0.432-8.928,0.432-27.144,0.72c-10.584-0.288-20.664,0-33.336-0.288
		C110.808,192.744,110.088,192.9601,102.168,192.9601L102.168,192.9601z M434.304,183.0961c-1.6559-1.2961-3.312-2.592-5.04-3.9601
		c0-0.432-0.072-0.864-0.144-1.368c0.072-0.072,0.216-0.144,0.36-0.288c0.504,0.36,2.6639,0.864,4.392,1.8
		c0.504,0.072,1.08,0.144,1.6559,0.216c0.216-0.432,0.504-0.864,0.7921-1.296c0.36,0,0.72-0.072,1.152-0.144
		c0.288,0.288,0.576,0.648,0.936,1.008c0.432,0.072,0.936,0.216,1.4401,0.36c0-0.432,0-0.936,0.072-1.44
		c0.288-0.144,0.576-0.288,0.864-0.504c0.504,0.288,1.08,0.648,1.656,1.008c0.288-0.36,0.648-0.72,1.008-1.152
		c0.288,0,0.576,0,0.936,0c1.008,1.008,1.008,1.008,1.944,1.44c0.144,0,0.36,0,0.576-0.072c0.216-1.656,0.216-1.656,0.648-2.304
		c0.4319,0,0.936,0,1.44,0c0.432,0.504,0.432,0.504,1.44,0.936c1.44,0,1.656-0.216,3.312,0c1.44,0.504,1.44,0.504,2.52,0.432
		c-0.504-1.944-0.504-1.944-0.36-3.312c0.36,0,0.792,0,1.224,0c0.504,0.576,1.08,1.152,1.656,1.728
		c1.296-0.072,2.592-0.144,3.8879-0.288c0.0721-0.792-0.4319-2.016-0.4319-2.736c0.144-0.072,0.288-0.216,0.4319-0.36
		c1.6561,0.216,2.376,0.72,3.312,0.936c0.072-0.504,0.2161-1.008,0.36-1.512c0.2881,0,0.576-0.072,0.8641-0.144
		c0.36,0.648,0.72,1.368,1.08,2.088c0,0.432,0,0.936,0,1.44c-0.504,0.432-0.504,0.432-2.3041,0.72
		c-0.072,0.648-0.1439,1.296-0.2159,2.016c-1.224-0.072-2.52-0.144-3.816-0.288c-0.72,0.504-0.72,0.504-2.8801,0.864
		c-0.144,1.224-0.144,1.224-0.6479,1.728c-0.36,0-0.72,0-1.08,0.072c-0.504-0.216-1.08-0.432-1.656-0.72
		c-1.224,0.144-1.44,0.504-2.88,0.504c-0.936-0.288-1.872-0.576-2.88-0.864c-0.072,0.648-0.144,1.296-0.2159,2.016
		c-2.6641-0.216-2.6641-0.216-6.264,0c-0.72,0.504-0.72,0.504-2.16,0.72c-1.656-0.432-1.656-0.432-2.376-0.936
		c-1.44,0.216-1.44,0.216-2.448,0.72c-0.144,0.288-0.36,0.576-0.576,0.864C435.384,183.024,434.88,183.024,434.304,183.0961
		L434.304,183.0961z M275.184,176.1841c-0.576-0.36-1.2241-0.72-1.872-1.08c-0.504-1.008-0.504-1.008-0.648-2.16
		c0.144-0.432,0.288-0.936,0.504-1.44c1.872-2.16,1.872-2.16,2.736-2.664c0.648,0,1.296-0.072,1.944-0.144
		c0.216,0.144,0.432,0.288,0.72,0.504c0.072,0.792,0.216,1.656,0.36,2.52c-0.288,2.16-0.288,2.16-0.72,3.168
		c-0.576,0.432-1.152,0.864-1.8,1.296C276.048,176.1841,275.616,176.1841,275.184,176.1841L275.184,176.1841z M286.992,175.8961
		c-1.008-0.432-1.008-0.432-2.088-1.512c-0.072-0.72-0.144-1.44-0.216-2.16c0.288-0.864,0.576-1.728,0.936-2.664
		c0.288-0.288,0.576-0.576,0.936-0.936c0.504,0,1.008-0.072,1.584-0.144c0.216,0.144,0.432,0.288,0.72,0.504
		c0.36,0.864,0.72,1.8,1.0801,2.736c0,0.792,0,1.584,0,2.448c-0.936,1.44-0.936,1.44-1.512,1.728
		C288,175.8961,287.496,175.8961,286.992,175.8961L286.992,175.8961z M15.048,175.6801c-0.36-1.08-0.864-6.12-1.368-7.776
		c-0.072-2.232-0.144-4.464-0.288-6.696c1.08-0.288,2.16-0.576,3.312-0.864c0.936,0,1.872-0.072,2.88-0.144
		c-0.144,2.16-0.576,2.88-0.576,3.888c0.216,0.2159,0.216,0.2159,0.432,4.536c-0.144,1.8-0.288,3.672-0.432,5.544
		C17.424,174.9601,17.424,174.9601,15.048,175.6801L15.048,175.6801z M320.328,174.024c-0.72-0.288-3.384-0.288-6.264-0.72
		c-1.0081-0.6479-2.0161-1.296-3.096-1.944c-1.152-1.08-2.304-2.16-3.528-3.24c0-0.504,0-1.08,0-1.656
		c0.432-0.36,0.432-0.36,2.808-0.648c1.0081,0,2.016,0,3.096,0c1.152-0.216,2.376-0.432,3.6-0.72c4.608,0,9.144-0.432,22.1039-0.936
		c2.16,0.216,2.16,0.216,7.92,0c3.6-0.36,7.2-0.792,10.8-1.224c0.144,0.144,0.288,0.288,0.504,0.504
		c0.288,2.088,0.288,2.088,0.072,4.464c-0.288,0.648-0.576,1.296-0.936,1.944c-0.72,0.576-1.512,1.152-2.304,1.728
		c-1.656,0.288-5.472,0.288-13.896,1.008c-0.72-0.072-1.44-0.144-2.16-0.288C332.856,172.8721,326.592,173.4481,320.328,174.024
		L320.328,174.024z M401.184,173.7361c-4.752-0.432-7.92-0.432-11.952-0.936c-0.864-1.08-0.864-1.08-2.808-5.112
		c0.072-0.288,0.2159-0.576,0.36-0.864c8.208,0.72,8.208,0.72,14.4,1.656c1.728,0.504,8.208,1.44,16.56,3.384
		c0.144,0.072,0.36,0.216,0.576,0.36c0,0.216,0,0.432,0,0.72c-0.144,0.144-0.36,0.288-0.576,0.504
		C412.272,173.5201,406.728,173.5921,401.184,173.7361L401.184,173.7361z M21.528,173.304c0-2.808,0-5.616,0-8.4959
		c5.256-0.144,5.256-0.144,10.08,0.072c6.984,0.936,6.984,0.936,9.864,1.656c-0.36,0.288-0.792,0.648-1.224,1.008
		c-1.08,0.144-2.232,0.288-3.384,0.432c-2.376,0.936-4.752,1.872-7.2,2.8799c-1.224,0.288-2.52,0.648-3.816,1.008
		c-1.008,0.432-2.016,0.936-3.096,1.44C22.392,173.304,21.96,173.304,21.528,173.304L21.528,173.304z M433.872,172.08
		c-1.152-0.36-2.376-0.792-3.6-1.224c-1.44,0-1.728,0.288-2.664,0.288c-0.7919-0.792-1.656-1.656-2.52-2.52
		c0-0.288,0.072-0.648,0.144-1.008c0.288,0,0.576,0,0.936-0.072c1.656,0.936,1.656,0.936,4.3199,1.872
		c0.36,0,0.792,0.072,1.224,0.144c-0.216-1.008-0.432-2.016-0.648-3.096c0.072-0.072,0.216-0.144,0.36-0.216
		c1.368,0.648,2.736,1.296,4.1039,2.016c0.504,0,1.08,0,1.656,0c0.216-0.216,0.432-0.432,0.72-0.72c3.6,0.72,3.6,0.72,4.464,0.576
		c0-0.72-0.504-1.44-0.72-3.096c0.144-0.144,0.36-0.288,0.576-0.504c0.648,0.648,1.296,1.2961,2.016,1.944
		c0.576,0.288,1.152,0.576,1.8,0.936c0.5759,0,1.1519,0,1.728,0c-0.36-0.72-0.36-0.72-0.288-2.376
		c0.1439-0.072,0.288-0.144,0.5039-0.2159c0.576,0.4319,1.152,0.864,1.7281,1.296c0.7919,0.072,1.5839,0.144,2.376,0.216
		c0.072-1.2961-0.144-2.0161,0-3.2401c0.144-0.072,0.288-0.144,0.432-0.216c0.72,0.504,1.8,1.944,2.952,2.736
		c0.216,0,0.504,0,0.792-0.072c0.144-1.008,0.288-2.088,0.504-3.168c0.432,0,0.864-0.072,1.296-0.144
		c0.432,0.576,0.936,1.224,1.44,1.872c1.728,0.576,1.728,0.576,5.76,1.008c1.44,0.576,2.88,1.152,4.32,1.728
		c0.504-0.288,0.504-0.288,1.728-0.288c0.936,0.504,0.936,0.504,1.296,1.152c0,0.72,0,0.72-0.504,1.152
		c-0.72,0-1.4399,0.072-2.2319,0.144c-1.656-0.648-3.312-1.296-5.04-1.944c-3.6-0.504-3.6-0.504-6.768-1.296
		c-0.36,1.224-0.36,1.224-0.864,1.944c-0.936,0-1.944,0-2.952,0.072c-0.288,0.216-0.576,0.432-0.936,0.72c-1.0081,0-2.088,0-3.168,0
		c-0.2161,0.36-0.432,0.792-0.72,1.224c-1.296-0.072-2.664-0.216-4.032-0.36c0,0.288-0.072,0.576-0.144,0.936
		c-0.144,0.072-0.36,0.216-0.576,0.36c-3.6-0.504-3.6-0.504-9.864-0.576c0,0.648,0,1.296,0.072,1.944
		C434.592,172.0081,434.232,172.0081,433.872,172.08L433.872,172.08z M61.344,165.8161c-1.008-0.072-2.016-0.144-3.096-0.288
		c0-0.216,0-0.432,0-0.72c0.936-0.432,0.936-0.432,2.664-0.432c0.36,0.36,0.72,0.72,1.152,1.08
		C61.848,165.8161,61.848,165.8161,61.344,165.8161L61.344,165.8161z M48.384,164.6641c-1.656-0.144-3.312-0.288-5.04-0.504
		c-1.728-2.232-3.456-4.536-5.184-6.84c0-0.288,0.072-0.576,0.144-0.936c1.44-0.288,2.88-0.576,4.32-0.864c3.24,0,6.552,0,9.864,0
		c4.536,4.536,4.536,4.536,6.264,6.84c-0.288,0.36-0.288,0.36-2.88,1.2961c-1.368,0.144-2.736,0.288-4.104,0.504
		c-0.288,0.144-0.576,0.288-0.936,0.504C50.04,164.6641,49.248,164.6641,48.384,164.6641L48.384,164.6641z M37.368,163.6561
		c-2.16-0.288-4.32-0.576-6.48-0.936c-7.92-0.216-7.92-0.216-9.288-0.576c0-1.44,0-1.44,0.432-2.304
		c1.728-0.432,3.456-0.936,5.256-1.44c4.32-0.504,6.696-1.224,8.424-1.224c1.224,1.656,2.448,3.312,3.672,4.968
		c0.072,0.432,0.144,0.936,0.216,1.44C38.88,163.5841,38.16,163.5841,37.368,163.6561L37.368,163.6561z M61.344,161.7841
		c-0.576-0.792-1.224-1.656-1.872-2.52c-3.384-3.024-3.384-3.024-4.32-4.248c0-0.504-0.072-1.008-0.144-1.512
		c0.864,0,1.8-0.072,2.736-0.144c2.088,0.36,4.176,0.7921,6.264,1.224c1.584,0,3.168,0,4.824,0c3.816,2.88,3.816,2.88,4.176,3.456
		c0,0.288,0,0.648,0,1.008C62.064,161.7841,62.064,161.7841,61.344,161.7841L61.344,161.7841z M13.392,159.4801
		c-0.144-5.112-0.288-10.224-0.432-15.336c1.008-2.664,1.008-2.664,1.368-3.024c1.656-0.504,5.544-0.936,7.416-1.44
		c0.648,0.072,1.296,0.144,1.944,0.216c1.224,1.008,1.224,1.008,1.512,1.584c-0.072,0.288-0.144,0.648-0.216,1.008
		c-1.656,0.936-1.656,0.936-2.664,1.872c-0.936,1.44-0.936,1.44-2.16,5.04c-0.288,2.952-0.576,5.904-0.936,8.928
		C17.28,158.6881,15.336,159.0481,13.392,159.4801L13.392,159.4801z M76.248,158.1841c-0.72-0.792-1.512-1.656-2.304-2.52
		c0.072-0.288,0.216-0.576,0.36-0.864c5.544,0.216,6.984,0.504,12.96,0.72c0.144,0.0721,0.288,0.216,0.504,0.36
		c-0.216,0.144-0.432,0.36-0.72,0.576c-2.808,0.576-5.616,1.152-8.424,1.728C77.832,158.1841,77.04,158.1841,76.248,158.1841
		L76.248,158.1841z M21.744,157.8961c-0.072-0.072-0.216-0.144-0.36-0.288c0.288-3.096,0.576-6.192,0.936-9.36
		c0.648-1.008,1.296-2.088,1.944-3.168c0.432-0.288,0.864-0.576,1.368-0.864c0.504,0.072,1.08,0.216,1.656,0.36
		c0.072,0.36,0.216,0.7921,0.36,1.224c2.016,2.9521,4.104,5.904,6.192,8.928c-0.072,0.216-0.144,0.432-0.216,0.72
		C31.104,156.2401,31.104,156.2401,21.744,157.8961L21.744,157.8961z M208.728,156.2401c-2.16-0.144-4.32-0.288-6.48-0.504
		c-29.52-0.432-38.664-0.936-56.16-0.936c-10.08-0.504-10.08-0.504-15.624-1.224c-3.744-0.072-7.488-0.216-11.232-0.36
		c0.072-0.072,0.144-0.216,0.216-0.36c3.384-0.576,6.84-1.224,10.296-1.872c5.616-0.648,11.232-1.296,16.848-1.944
		c2.592-0.432,5.256-0.936,7.92-1.44c3.024-1.872,6.048-3.816,9.072-5.76c7.92-3.816,9.36-4.824,25.488-12.456
		c0.936,0,0.936,0,1.152,0.216c-7.632,4.32-10.512,6.264-22.32,12.96c-0.288,0.36-0.576,0.72-0.864,1.08c0,0.288,0,0.648,0,1.008
		c3.528,1.728,3.528,1.728,10.224,4.176c2.16,0.432,2.16,0.432,5.76,0.432c3.888-1.872,4.32-2.376,8.424-4.32
		c2.88-1.872,9.576-5.256,22.536-12.96c0.288-0.216,0.576-0.504,0.864-0.792c0-0.216,0-0.432,0-0.72
		c-0.288-0.216-0.576-0.432-0.864-0.72c-2.376,0.072-2.376,0.072-4.752-0.36c-0.864-0.288-1.728-0.648-2.664-1.008
		c-2.88-0.432-2.88-0.432-3.384-0.72c-1.944-0.144-3.96-0.288-5.976-0.432c-3.384,0.936-5.256,1.872-6.48,2.16
		c-0.072-0.072-0.144-0.144-0.216-0.288c0.576-0.432,1.224-0.936,1.872-1.44c10.584-3.816,10.584-3.816,17.28-5.76
		c2.808-0.432,5.616-0.936,8.424-1.44c1.656-1.296,3.312-2.664,5.04-4.032c1.368-0.792,2.736-1.584,4.104-2.448
		c6.912-1.872,7.632-2.376,9.072-2.592c4.32,0.576,8.64,1.224,12.96,1.872c22.104,2.1599,23.04,2.448,27.648,2.8799
		c0.432,0.288,9.072,0.72,15.552,1.728c4.536,0.288,9.072,0.576,13.68,0.936c6.048-0.216,6.048-0.216,10.8-0.72
		c0.432-0.288,0.936-0.576,1.44-0.936c3.96-5.184,3.96-5.184,4.3199-6.048c6.264,0.288,6.264,0.288,8.928,0.72
		c0,0.288,0,0.576,0.072,0.864c-1.44,3.168-1.44,3.168-1.656,4.608c-0.504,0.864-1.0079,1.728-1.584,2.592
		c-0.576,0.288-1.224,0.576-1.8719,0.864c-0.216,0.36-0.432,0.72-0.72,1.08c0.4319,0.576,0.4319,0.576,1.44,1.08
		c0.864,0.072,1.728,0.144,2.592,0.216c0.648-0.288,1.296-0.576,1.944-0.936c0-0.504,0-1.008,0.072-1.584
		c-0.144-0.216-0.288-0.432-0.432-0.72c0.072-0.72,0.144-1.44,0.216-2.16c0.792-1.8,1.584-3.6,2.376-5.472
		c2.3041-0.144,2.3041-0.144,8.784,0.288c4.824,1.008,4.824,1.008,11.3041,1.944c15.7679,1.008,31.5359,2.016,47.304,3.096
		c0.504,0.648,1.08,1.368,1.656,2.088c0,0.648,0,1.296,0.072,1.944c-1.152,0.936-2.376,1.872-3.6,2.88
		c-0.72,0.216-1.44,0.504-2.2321,0.792c-3.096,0.504-6.192,1.08-9.36,1.656c-1.224,0-2.52,0-3.816,0
		c-0.288-0.144-0.648-0.288-1.0081-0.432c-2.16,0.216-5.04,0.936-11.736,1.872c-0.648,0.432-1.296,0.936-1.944,1.44
		c-0.432,0.648-0.936,1.368-1.44,2.088c-0.144,1.44-0.144,1.44,0.36,3.816c0.288,0.72,0.576,1.44,0.936,2.16
		c0.648,0.864,1.296,1.728,1.944,2.664c2.2321,4.68,4.4641,9.432,6.696,14.184c0,0.216,0,0.504-0.072,0.792
		c-3.6-0.144-7.2-0.288-10.8-0.504c-1.44-0.288-2.88-0.576-4.32-0.936c-3.24-0.144-6.5519-0.288-9.864-0.504
		c-0.144-0.792-0.144-0.792,0.144-2.016c-0.648-1.44-1.296-2.88-1.944-4.32c-1.728-1.656-3.456-3.312-5.256-5.04
		c-0.504-0.288-1.008-0.576-1.584-0.864c-6.4799-0.216-6.4799-0.216-6.912-0.432c-6.12,0.144-12.312,0.288-18.504,0.432
		c-0.36,0.144-0.792,0.288-1.224,0.504c-0.072,0.792-0.216,1.656-0.36,2.52c0.216,9.36,0.216,9.36-0.072,9.72
		c-1.296,0-2.592,0-3.888-0.072c-0.576-3.384-0.576-3.384-0.864-8.64c0.072-0.864,0.144-1.728,0.288-2.664
		c-0.36-0.216-0.72-0.432-1.08-0.648c-16.056,1.224-16.056,1.224-21.0959,1.224c-0.7921,0.144-1.584,0.288-2.4481,0.504
		c-0.144,0.144-0.36,0.36-0.576,0.576c-0.288,2.16-0.288,6.984,0,8.928c-0.072,0.144-0.216,0.36-0.36,0.576
		c-0.936,0.072-1.872,0.144-2.88,0.216c-0.072-0.144-0.216-0.36-0.36-0.576c-0.072-3.312-0.216-6.696-0.36-10.08
		c-0.36,0-0.7919-0.072-1.2239-0.144c-13.176,7.704-13.176,7.704-20.592,11.52c-0.936,0.2881-1.872,0.576-2.88,0.936
		c-1.368,0.144-2.736,0.288-4.104,0.504c-10.08-0.216-10.08-0.216-12.024-0.504c-6.48,0.288-9.792,0-12.24,0.288
		c-3.9601-0.072-7.92-0.144-11.952-0.288c-1.2961,0.144-2.592,0.288-3.888,0.504C212.76,156.2401,210.744,156.2401,208.728,156.2401
		L208.728,156.2401z M237.024,155.0161c-12.456-1.656-16.776-1.872-22.032-2.592c-4.68-0.144-9.432-0.288-14.184-0.504
		c-0.792-0.144-1.584-0.288-2.376-0.504c-2.16-0.072-4.32-0.144-6.48-0.216c-0.432-0.576-0.432-0.576-0.432-1.296
		c0.432-0.432,0.864-0.864,1.368-1.368c1.224-0.432,2.376-1.44,4.536-2.376c5.76-3.816,9.36-5.76,9.864-6.264
		c5.04-2.88,6.264-3.312,6.696-3.816c3.384-1.944,6.048-3.816,7.2-4.32c0.432,0,0.936,0,1.44,0c0.144,0.216,0.288,0.432,0.504,0.72
		c4.032,0.504,8.136,1.08,12.24,1.656c0.9359,0.504,4.536,1.008,11.016,2.448c8.424,1.152,8.424,1.152,9.864,1.656
		c1.8,0.0721,3.672,0.144,5.544,0.216c0.288,0.144,0.648,0.288,1.008,0.432c0,0.36,0,0.72,0,1.152
		c-1.728,0.864-1.728,0.864-7.488,4.68c-2.4481,1.224-4.968,2.52-7.488,3.816c-7.2,5.7599-7.2,5.7599-8.136,6.2639
		C238.824,154.8721,237.96,154.9441,237.024,155.0161L237.024,155.0161z M36.432,154.5841c-1.008-1.224-1.944-3.024-5.184-7.056
		c-0.072-0.432-0.144-0.936-0.288-1.44c0.216-0.144,0.432-0.2881,0.648-0.432c1.584-0.144,3.168-0.288,4.824-0.432
		c2.16,0.144,4.32,0.288,6.48,0.432c0.576,0.432,1.224,0.936,1.872,1.44c0.72,0,1.44,0,2.16,0c0.504,0.504,1.296,2.304,3.24,5.184
		c0,0.288,0,0.576-0.072,0.864C45.576,153.576,41.04,154.08,36.432,154.5841L36.432,154.5841z M87.768,153.576
		c-12.744-0.936-16.344-0.936-17.28-1.152c-2.376-2.376-4.752-4.752-7.2-7.2c-0.288-0.504-0.576-1.008-0.864-1.584
		c0-0.36,0-0.72-0.072-1.152c2.88-0.144,3.096-0.432,12.672-0.864c3.888-0.504,3.888-0.504,15.84-1.008
		c0.288,0.072,0.648,0.144,1.008,0.288c0.576,0.864,1.224,1.728,1.872,2.592c6.048,6.048,6.048,6.048,7.92,8.28
		c0,0.36,0.072,0.792,0.144,1.224c-4.68,0.36-8.496,0.36-8.784,0.576C91.296,153.576,89.568,153.576,87.768,153.576L87.768,153.576z
		 M105.768,152.4241c-1.224-1.008-3.096-3.384-7.416-7.344c-1.008-1.152-2.088-2.304-3.168-3.456c-0.072-0.36-0.144-0.72-0.216-1.08
		c1.152-0.216,2.376-0.432,3.6-0.648c18.216,0,23.256-0.216,32.4-0.072c0.648,0.792,1.296,1.656,1.944,2.52
		c1.152,1.08,2.376,2.16,3.6,3.24c0.36,0.648,0.72,1.296,1.152,2.016c-0.144,0.144-0.288,0.288-0.432,0.504
		c-13.68,1.872-18.72,2.88-29.52,4.32C107.064,152.4241,106.416,152.4241,105.768,152.4241L105.768,152.4241z M62.568,152.136
		c-1.368-0.288-2.736-0.576-4.104-0.936c-1.44-0.072-2.88-0.144-4.32-0.216c-0.936-0.504-0.936-0.504-2.592-0.864
		c-1.008-1.224-1.008-1.224-2.808-4.536c-0.36-0.288-0.72-0.576-1.08-0.936c-0.072-0.288-0.144-0.648-0.216-1.008
		c2.448-0.072,4.896-0.216,7.416-0.36c1.728-0.504,1.728-0.504,2.664-0.504c0.288,0.36,0.576,0.792,0.936,1.224
		c0.432,0.144,0.936,0.288,1.44,0.504c0.648,0.936,1.296,1.872,1.944,2.88c1.224,0.936,1.224,0.936,4.32,4.536
		C65.952,152.136,65.952,152.136,62.568,152.136L62.568,152.136z M141.048,147.6001c-0.936-1.44-2.16-2.5201-4.104-4.896
		c-2.16-1.8-2.16-1.8-2.52-2.376c0-0.288,0.072-0.576,0.144-0.864c8.712,0.072,17.424,0.144,26.136,0.216
		c0.36,0.144,0.792,0.36,1.224,0.576c-2.664,2.088-5.976,3.96-7.2,4.968C145.152,147.0961,145.152,147.0961,141.048,147.6001
		L141.048,147.6001z M291.528,136.5841c-0.864-0.144-1.728-0.288-2.6641-0.504c-6.912-0.216-7.416-0.504-28.512-0.936
		c-1.224-0.504-1.224-0.504-1.728-1.008c0-0.216-0.072-0.504-0.144-0.792c0.288-0.288,0.5759-0.576,0.864-0.864
		c6.048,0.216,6.768,0.504,14.4,0.72c0.936-0.072,1.872-0.144,2.8801-0.216c1.728,0.432,3.888,0.432,13.968,1.44
		c5.7599,0.216,10.7999,0,18.4319,0.216c0.72-0.216,0.72-0.216,13.248-0.504c5.04,0.072,10.08,0.144,15.12,0.288
		c9.576-0.504,9.576-0.504,12.96-1.008c4.032,0,8.136,0,12.2401,0c0.288,0.432,0.288,0.432,0.288,1.152
		c-0.144,0.144-0.288,0.288-0.432,0.432c-13.824,0.36-13.824,0.36-19.584,0.864c-27.3599,0.432-27.3599,0.432-30.96,0.216
		c-1.008,0.144-2.016,0.2881-3.096,0.504C303.048,136.5841,297.288,136.5841,291.528,136.5841L291.528,136.5841z M374.328,113.9761
		c-11.304-0.432-11.304-0.432-14.544-0.792c0.072-0.36,0.144-0.792,0.216-1.224c1.44-1.296,2.88-2.664,4.32-4.032
		c0.144-0.72,0.288-1.44,0.432-2.16c3.816-0.432,3.816-0.432,10.8-0.648c2.88,3.96,3.672,5.688,4.176,6.12
		c0.072,0.7921,0.144,1.584,0.216,2.448C378.072,113.7601,376.2,113.8321,374.328,113.9761L374.328,113.9761z M354.168,112.8241
		c-0.4321-0.072-0.936-0.216-1.44-0.36c-0.072-0.216-0.216-0.432-0.36-0.72c0.216-5.04,0.216-5.04,0.576-5.688
		c8.424-0.216,8.424-0.216,9.3599,0c0.0721,0.072,0.144,0.216,0.2881,0.36c-1.0081,1.08-2.088,2.16-3.168,3.2401
		c-1.152,0.504-1.152,0.504-1.872,1.368c0.216,0.432,0.216,0.432-0.144,1.656C356.328,112.6801,355.248,112.7521,354.168,112.8241
		L354.168,112.8241z M349.344,111.6001c-0.576-1.368-1.152-2.736-1.8-4.176c0-0.36,0.072-0.72,0.144-1.08
		c0.864,0,1.8,0.072,2.736,0.144c0,3.816,0,3.816-0.36,5.112C349.848,111.6001,349.632,111.6001,349.344,111.6001L349.344,111.6001z
		 M345.744,111.3841c-1.8719-0.288-3.816-0.576-5.7599-0.864c-0.864-1.8719-0.864-1.8719-0.936-2.88c0.216,0,0.4321,0,0.72,0
		c-0.072-0.432-0.144-0.936-0.216-1.44c2.448,0,4.896,0,7.416,0c-0.288,1.008-0.288,1.008-0.648,1.224
		c0.288,2.376,0.288,2.376,0.144,3.96C346.248,111.3841,346.032,111.3841,345.744,111.3841L345.744,111.3841z M335.952,110.1601
		c-0.288-0.072-0.288-0.072-0.432-1.512c0.288-0.576,0.576-1.224,0.8641-1.872c0.216,0,0.432,0,0.72-0.072
		c0,1.008,0.072,2.016,0.144,3.096C336.816,109.8721,336.384,110.0161,335.952,110.1601L335.952,110.1601z M329.688,109.6561
		c-4.824-0.432-4.824-0.432-6.696-0.936c-0.288-0.216-0.648-0.432-1.008-0.72c-0.072-0.216-0.144-0.504-0.216-0.792
		c0.864-0.144,1.728-0.288,2.664-0.432c2.736,0,5.544,0,8.352-0.072c-0.072,0.936-0.216,1.872-0.36,2.88
		C331.56,109.5841,330.624,109.5841,329.688,109.6561L329.688,109.6561z M299.448,106.5601c-3.528-0.432-7.056-0.936-10.584-1.44
		c-0.864-1.872-1.728-3.744-2.592-5.616c6.912-0.36,6.912-0.36,14.832-0.144c0.288,0.36,0.648,0.7921,1.008,1.2241
		c2.016,4.68,2.016,4.68,2.016,5.4c-0.36,0.144-0.72,0.36-1.08,0.576C301.896,106.5601,300.672,106.5601,299.448,106.5601
		L299.448,106.5601z M307.872,106.5601c-0.288-0.072-0.576-0.216-0.864-0.36c-0.864-1.944-1.728-3.96-2.664-5.976
		c0.072-0.288,0.216-0.576,0.36-0.864c4.32,0,8.64,0,12.96-0.072c-0.144,2.88-0.36,3.096-0.36,5.256
		c-0.1439,0.216-0.288,0.432-0.504,0.72c-4.176,0.792-4.176,0.792-4.608,1.08C310.752,106.416,309.312,106.4881,307.872,106.5601
		L307.872,106.5601z M319.824,105.3361c-0.144-0.072-0.36-0.144-0.576-0.288c0.36-1.656,0.72-3.384,1.08-5.112
		c1.152,0,2.376,0,3.6-0.072c2.88,0.36,5.76,0.72,8.64,1.08c0.072,1.08,0.216,2.232,0.36,3.384
		C332.568,104.6161,332.568,104.6161,319.824,105.3361L319.824,105.3361z M283.608,104.6161c-1.8-0.144-3.6719-0.288-5.5439-0.432
		c-1.584-0.288-3.168-0.648-4.752-1.008c-4.176-0.288-8.3521-0.576-12.528-0.936c-0.432-0.144-0.864-0.36-1.296-0.576
		c0-0.288,0-0.576,0-0.936c0.144-0.144,0.36-0.288,0.576-0.504c6.7679-0.144,6.7679-0.144,16.56-1.08c2.16,0,4.32,0.072,6.48,0.144
		c0.072,0.36,0.216,0.72,0.36,1.152c0.504,0.432,1.08,0.936,1.656,1.44c0.432,0.72,0.936,1.44,1.44,2.16c0,0.144,0,0.36-0.072,0.576
		C285.552,104.6161,284.616,104.6161,283.608,104.6161L283.608,104.6161z M340.488,104.6161c-1.0079-0.072-2.016-0.144-3.024-0.288
		c0-0.576,0-1.152,0-1.728c0.36-0.36,0.72-0.72,1.08-1.08c2.592,0.216,5.256,0.432,7.92,0.72c1.44,0.288,2.88,0.576,4.32,0.936
		c0.144,0.216,0.288,0.432,0.504,0.648c-0.072,0.072-0.144,0.216-0.216,0.36C345.024,104.6161,345.024,104.6161,340.488,104.6161
		L340.488,104.6161z M366.912,102.7441c-1.296-0.072-2.592-0.144-3.888-0.288c-0.36-0.288-0.72-0.576-1.152-0.936
		c-1.872-3.456-3.744-7.992-5.688-11.376c-0.288-0.792-0.576-1.584-0.936-2.376c-0.504-0.504-1.008-1.008-1.584-1.584
		c-2.16-0.504-2.16-0.504-4.752-0.72c-1.44,0-2.88,0.072-4.3199,0.144c0-0.288,0-0.648,0.072-1.008
		c0.936-0.36,1.872-0.72,2.808-1.08c1.872,0,3.816,0,5.76,0c0.216-0.4319,0.504-0.864,0.792-1.296c0-1.224-0.504-2.376-1.224-5.76
		c0-0.504,0.072-1.008,0.144-1.584c0.504-0.072,1.0079-0.216,1.5839-0.36c0-0.576,0-1.224,0-1.8719
		c-1.008-1.224-1.008-1.224-1.08-1.944c1.656,0,3.312-0.072,5.04-0.144c1.44,0.144,2.88,0.288,4.32,0.504
		c0.072,0.36,0.216,0.72,0.36,1.08c-0.2161,0.144-0.4321,0.288-0.6481,0.504c-0.6479,0.072-1.368,0.144-2.088,0.288
		c-0.216,0.36-0.432,0.72-0.72,1.08c0.432,0.648,0.936,1.368,1.44,2.088c1.08,0.144,2.16,0.288,3.312,0.432
		c0.432,2.16,0.864,4.392,1.296,6.624c0.648,0.72,0.648,0.72,1.584,1.08c1.008,0,2.088,0,3.168,0c1.152,0.288,2.376,0.576,3.6,0.936
		c1.728,0.72,3.456,1.512,5.256,2.304c-0.072,0.072-0.144,0.216-0.216,0.36c-2.16,0.216-2.16,0.216-12.528,0
		c-0.1439,0.072-0.36,0.216-0.576,0.36c0,0.72,0,1.44,0,2.16c0.288,0.648,0.576,1.2961,0.936,1.944
		c1.584,2.088,3.168,4.176,4.824,6.264c1.44,2.88,1.44,2.88,1.656,4.032C371.304,102.6001,369.144,102.6721,366.912,102.7441
		L366.912,102.7441z M255.312,101.7361c-0.936-0.144-1.872-0.36-2.88-0.576c0.72-0.288,1.44-0.576,2.16-0.864
		c0.72,0,1.44,0,2.16-0.072c0,0.36-0.072,0.792-0.144,1.224C256.176,101.5201,255.744,101.5921,255.312,101.7361L255.312,101.7361z
		 M355.608,101.7361c-1.728-0.144-3.456-0.288-5.256-0.432c-0.432-0.144-0.936-0.288-1.44-0.504
		c-8.928-0.936-8.928-0.936-9.792-1.296c0.72-2.88,0.72-2.88,1.728-4.824c0.7919-2.304,1.656-4.608,2.52-6.984
		c1.2241,0,2.52,0.072,3.816,0.144c0.936-0.144,1.872-0.288,2.8801-0.504c1.008,0.216,2.088,0.432,3.168,0.72
		c0.936,1.584,1.728,3.744,3.672,6.912c0.792,1.872,1.584,3.816,2.376,5.76c0,0.288,0,0.648-0.072,1.008
		C358.056,101.7361,356.832,101.7361,355.608,101.7361L355.608,101.7361z M346.464,81.36c0-0.36-0.072-0.72-0.144-1.08
		c1.08-2.16,2.232-4.32,3.384-6.48c0.36-0.144,0.72-0.288,1.08-0.4319c0,0.864-0.072,1.728-0.144,2.592
		c0.504,1.44,1.0081,4.32,0.8641,4.896C349.344,81.36,349.344,81.36,346.464,81.36L346.464,81.36z"/>
</g>
</svg>
