<?xml version="1.0" encoding="utf-8"?>
<!-- Generator: Adobe Illustrator 21.1.0, SVG Export Plug-In . SVG Version: 6.00 Build 0)  -->
<svg version="1.1" id="silve" xmlns="http://www.w3.org/2000/svg" xmlns:xlink="http://www.w3.org/1999/xlink" x="0px" y="0px"
	 viewBox="0 0 489.0198 286.0591" enable-background="new 0 0 489.0198 286.0591" xml:space="preserve">
<g>
	<path fill-rule="evenodd" clip-rule="evenodd" stroke="#000000" stroke-width="0.4998" stroke-miterlimit="2.6131" d="
		M364.5699,285.6386c-5.544-2.5201-12.528-1.872-16.344-5.04c-5.472-2.088-16.128-4.608-19.224-7.704
		c-16.992,0-31.392,2.664-47.304-4.536c-2.376-0.072-10.296-0.432-11.304-1.944c-0.432,0-0.864,0.072-1.224,0.144
		c0.288,0.144,0.576,0.288,0.936,0.504c-11.664-0.432-22.608-0.864-33.408-4.032c-6.768-0.144-13.68-0.72-19.224-3.312
		c-0.432,0-0.864,0-1.224,0.072c0.72,0.432,1.44,0.936,2.16,1.44c-3.168,0-9.576-3.312-12.24-4.68
		c-7.632-0.936-14.616-3.456-19.008-9.144c-13.464-2.448-30.168-6.264-41.544-11.952c-4.68-8.496-22.608-12.168-30.816-14.184
		c-2.376-1.728-7.56-0.216-11.016-1.944c-4.752-4.248-8.568-7.056-13.248-10.224c0.72-0.864,0.72-0.864,1.008-1.656
		c-6.264-2.592-11.808-2.808-17.352-4.752c-6.264-4.248-13.968-9.72-20.448-12.096c0.072-0.216,0.144-0.36,0.288-0.504
		c-2.664-1.656-6.768-2.592-9.144-3.312c-0.144,0.288-0.216,0.576-0.288,0.936c-5.472-6.48-16.488-13.176-23.976-13.608
		c-2.232-2.736-3.096-4.104-3.888-6.552c-4.32-2.16-9-7.128-11.52-10.152c-2.304-0.864-4.968-0.288-4.968-2.16
		c4.536-3.024,8.568,3.24,12.384,6.048c0.72-9.144,1.08-18.72,4.896-26.712c9.216-11.232,25.92-6.984,38.016-11.736
		c2.52-8.928,5.112-15.192,2.664-23.616c-0.504-8.496-6.84-23.904,4.464-24.624c1.224-1.224,1.224-6.192,1.08-7.56
		c2.304-1.8,2.304-1.8,4.752-3.096c-1.728-17.856-17.208-38.808-9.864-54.864c10.008-5.328,26.784-5.5439,38.376-8.7839
		c19.8,0.2159,41.976-1.8,60.336,7.2c1.8,1.44,6.696,8.2079,9.648,8.784c0,3.888,18.576,22.752,23.904,26.4959
		c1.368,7.8481,3.528,9.7201,9,16.632c6.264-0.288,13.176-1.728,19.728-2.88c7.344-0.504,26.496-4.248,32.688-3.24
		c-1.296,2.088-5.688,7.632-5.688,9.936c14.616,11.088,29.088,23.832,44.496,35.28c2.5919,2.304,5.4,4.536,7.344,8.568
		c7.992,1.368,16.2,4.536,25.056,6.192c30.312,10.08,62.568,16.128,92.304,29.592c1.152,0.936,8.64,5.04,10.584,5.76
		c6.624,7.776,22.248,16.056,33.624,19.728c7.776,1.8,20.232,2.808,21.024,13.392c-5.616,2.016-10.512,1.728-15.768,0.576
		c-3.672,3.672-15.408,17.784-18.648,18.864c0,6.912,27.72,16.632,32.832,18.576c3.312,1.368,9.2881,2.808,9.2881,8.352
		c-7.92,10.224-28.8,3.24-38.376,0.576c-16.416-1.512-24.84-8.568-35.568,4.32c-9.216,4.032-17.856,17.136-27.648,20.592
		c-0.504,1.512-15.264,11.376-16.776,11.808c0,2.88-6.408,3.384-6.984,5.832c-4.176,1.368-8.496,5.4-11.088,8.784
		c0.072,0.144,0.144,0.288,0.288,0.504c2.664,0,5.472,0.648,8.64,0.936c-0.216,0.144-0.36,0.288-0.504,0.504
		c1.872,1.224,6.552,0.432,8.496,2.376C368.8178,286.5026,365.9378,285.6386,364.5699,285.6386L364.5699,285.6386z
		 M267.0099,266.4146c0.648,0,1.296,0,1.944,0C268.3058,266.4146,267.6578,266.4146,267.0099,266.4146L267.0099,266.4146z
		 M311.9378,266.0546c1.944-0.072,1.944-0.072,1.728,0.144C313.0898,266.1266,312.5139,266.0546,311.9378,266.0546
		L311.9378,266.0546z M323.0259,260.5106c1.944-0.072,1.944-0.072,1.656,0.144
		C324.1059,260.5826,323.5298,260.5106,323.0259,260.5106L323.0259,260.5106z M329.7218,260.5106c1.44-0.072,1.44-0.072,1.224,0.144
		C330.5139,260.5826,330.0819,260.5106,329.7218,260.5106L329.7218,260.5106z M215.5298,259.7186
		c-1.512-0.36-5.112-1.368-5.472-1.944c0.0721-0.144,0.144-0.288,0.216-0.36c1.152,0.288,4.104,0.576,5.544,2.016
		C215.6739,259.5026,215.6019,259.5746,215.5298,259.7186L215.5298,259.7186z M291.2739,251.2226
		c0.072-0.288,0.144-0.576,0.216-0.864c7.92-0.288,16.128-0.72,24.552,0.216C314.8899,251.7266,293.7218,251.2226,291.2739,251.2226
		L291.2739,251.2226z M317.6979,250.3586c-14.4-4.392-33.696,3.384-47.304-1.512c-4.176,0-9.72,0.072-13.248-0.936
		c0.072-0.144,0.144-0.288,0.216-0.36c-9.36,0-21.096-2.16-29.5201-3.96c-17.7119-2.448-34.92-4.536-51.696-8.928
		c-0.432-0.072-38.664-8.424-39.888-10.08c-2.592-1.008-11.88-3.744-13.968-3.456c0.936,0.576,0.936,0.576,3.384,1.296
		c-1.008,1.008-5.184-0.864-5.832-1.152c0.216-0.216,0.504-0.432,0.792-0.6479c-4.896-1.368-9.792-1.2961-13.752-3.2401
		c-2.304-1.944-5.904-4.68-8.136-3.8159c-1.008-1.008-0.504-1.656-0.504-2.304c-1.872-0.36-2.664-1.08-3.384-1.8
		c1.584-1.152,4.248,0.072,5.328,2.016c15.912,2.952,34.128,13.608,50.976,14.544c3.456,0.72,6.768,1.152,11.088,1.368
		c0.144,0.432,0.288,0.864,0.432,1.2961c16.992,4.176,34.128,8.352,51.912,10.512c2.88,4.32,76.248,8.496,93.744,8.496
		c2.376-1.584,14.4001,0.36,19.224,0.36c-0.072-0.144-0.144-0.288-0.216-0.36c1.08,0.216,4.68,0.936,5.976-0.144
		c-0.72-0.144-0.72-0.144-3.096,0.144c0-0.216,0-0.432,0-0.576c4.608-0.072,9.288-0.072,13.968-0.072
		c-1.656,0.792-3.456,0.504-4.608,0.504c11.304,2.088,23.904-1.296,35.856-0.576c2.0161-1.368,16.848-1.224,19.728-1.296
		c-2.088,6.336-22.176,1.08-27.648,3.816c1.296,0,2.664,0.072,4.032,0.144c-0.936,0.936-5.904,0.432-6.696,0.432
		c0.216-0.144,0.432-0.288,0.72-0.36c-5.04,0.36-5.04,0.36-27.864,0.36c0.72-0.144,1.44-0.288,2.16-0.36
		C332.4579,249.9266,325.0419,250.1426,317.6979,250.3586L317.6979,250.3586z M348.0099,249.7106c0.432,0,0.936,0,1.44,0
		C348.9459,249.7106,348.4418,249.7106,348.0099,249.7106L348.0099,249.7106z M372.7778,249.4946c4.32-0.144,4.32-0.144,4.104,0.144
		C375.5139,249.5666,374.1459,249.4946,372.7778,249.4946L372.7778,249.4946z M189.3219,249.1346
		c-0.504-0.576-1.008-1.08-1.44-1.584c0.216-0.072,0.432-0.144,0.72-0.144c0.36,0.432,0.792,0.936,1.224,1.44
		C189.6099,248.9186,189.4659,248.9906,189.3219,249.1346L189.3219,249.1346z M248.0018,247.6946
		c-0.504-0.288-2.88-0.504-3.096-0.864c0.936-0.144,3.096,0.144,3.6,0.504C248.2899,247.4066,248.1459,247.5506,248.0018,247.6946
		L248.0018,247.6946z M377.0978,245.9666c0.216-0.216,0.216-0.216,4.104-0.216
		C379.8339,245.8226,378.4659,245.8946,377.0978,245.9666L377.0978,245.9666z M398.9859,242.8706
		c-3.528-2.304-80.856-0.576-89.64-0.576c0-0.36,0-0.648,0-0.936c-4.104,0.072-4.104,0.072-12.744-0.288c0-0.288,0-0.504,0-0.72
		c-23.76,1.008-47.808-2.952-70.704-4.68c-8.496-3.888-27.144-1.512-32.904-5.3279c-14.616-0.576-29.232-6.336-42.84-7.632
		c-2.592-0.864-5.328-1.8-7.2-2.952c-15.264-4.32-28.656-9.576-42.768-14.616c-10.584-6.768-25.632-11.952-36.792-15.984
		c-12.024-6.192-24.336-11.304-36.072-16.704c-2.376-2.376-5.184-2.376-7.416-2.736c-1.512-4.68-3.24-4.68-5.976-6.768
		c0-6.12,1.152-11.592,2.088-17.064c-0.36,0-0.648,0-0.936,0c3.024-18.288,11.88-16.128,27.648-19.584
		c2.664,0,6.048-1.008,9.144-0.288c-3.456,3.456-20.736,1.224-21.168,6.192c7.128,0.432,15.912,4.536,23.04,4.032
		c-0.792-6.48,5.184-22.968,6.48-28.296c18.216,1.872,13.104,4.176,18.432,22.824c1.368,11.088,7.128,15.048,18.864,17.352
		c0.936,1.224,10.656,4.464,14.4,4.824c3.816-3.528,4.68-9.792,6.984-14.184c8.424,1.656,17.496,5.112,26.712,6.912
		c0.072,0.216,0.144,0.504,0.216,0.7921c2.16,0.288,4.32,0.576,6.48,0.936c4.896,3.672,15.12,31.896,21.672,34.2
		c12.312,1.152,26.208,8.064,39.168,11.016c10.44,3.384,21.6,5.256,32.472,9.504c-0.216,0.144-0.36,0.288-0.504,0.504
		c11.9521,1.8,24.408,4.032,37.0081,7.056c36.9359,3.744,73.008,13.968,110.808,13.968c8.424,1.8,19.728,1.08,29.088,1.584
		C417.7059,228.4706,401.4338,242.8706,398.9859,242.8706L398.9859,242.8706z M231.1538,241.5746c1.8-0.216,1.8-0.216,1.728,0
		C232.3058,241.5746,231.7299,241.5746,231.1538,241.5746L231.1538,241.5746z M225.8978,240.8546c1.44-0.144,1.44-0.144,1.224,0.072
		C226.6899,240.8546,226.2579,240.8546,225.8978,240.8546L225.8978,240.8546z M224.4579,240.7106
		c-1.656-0.36-3.2401-0.72-4.824-1.08C220.4978,239.6306,226.6899,240.7106,224.4579,240.7106L224.4579,240.7106z
		 M253.5459,239.4146c1.944-0.144,1.944-0.144,1.656,0.072C254.6259,239.4146,254.0499,239.4146,253.5459,239.4146
		L253.5459,239.4146z M175.4259,235.8866c-0.936-0.144-1.8-0.288-2.664-0.432c0-0.288,0-0.576,0-0.864
		C174.4179,234.8786,180.9698,235.8866,175.4259,235.8866L175.4259,235.8866z M473.2898,232.0706
		c-24.84-3.312-49.2479-9.792-74.0879-8.208c-17.28-2.376-33.984-1.8-50.688-5.256c-0.864-0.072-20.304-3.384-20.664-3.888
		c-36.648-5.904-72.504-9.72-107.28-20.88c-11.088-2.232-22.104-6.336-31.968-9.648c-12.672-3.384-18.576-2.088-21.384-14.76
		c19.944,3.456,40.536,11.016,61.056,16.2c58.248,10.656,116.136,23.976,176.472,27.936c8.208-0.576,34.704-2.5201,43.488,2.1599
		c6.048,1.872,22.536,8.208,28.152,6.84c0-0.36,0-0.648,0-0.936c-10.368-4.968-20.448-7.848-30.312-11.952
		c-3.312-2.664-6.192-4.968-9.144-6.84c0-0.36,0-0.648,0-0.936c1.728-1.5121,3.024-3.528,5.544-3.528
		c1.008,1.152,2.016,2.304,3.024,3.528c-0.288,2.16-0.72,3.384-0.648,4.608c0.36-0.936,0.72-1.8,1.0799-2.664
		c0.2881-0.072,0.576-0.144,0.864-0.144c9.576,9.576,25.848,13.752,38.736,19.224c0.7921,0.792,3.528,3.888,2.0161,5.904
		c-0.7921,0.0721-1.512,0.144-2.2321,0.216c0.792,1.944-5.76,1.656-6.264,1.656c0.7921,0.288,1.584,0.576,2.376,0.864
		C479.1219,232.7186,475.4499,232.0706,473.2898,232.0706L473.2898,232.0706z M136.2579,227.7506
		c-1.44-0.648-3.024-1.512-3.384-2.088c1.152-0.072,2.52,0.72,4.104,2.088C136.6898,227.7506,136.4739,227.7506,136.2579,227.7506
		L136.2579,227.7506z M132.3699,224.5106c0.072-0.288,0.144-0.504,0.216-0.72c1.008,0.36,1.008,0.36,1.008,0.576
		C133.1619,224.3666,132.7299,224.4386,132.3699,224.5106L132.3699,224.5106z M128.9859,223.5026
		c1.728-0.072,1.728-0.072,1.44,0.144C129.9219,223.5746,129.4179,223.5026,128.9859,223.5026L128.9859,223.5026z
		 M472.2819,221.9906c-20.232-5.328-36.792-12.312-57.888-9.144c-18,0.36-35.496-2.0161-52.704-4.32
		c-2.232-1.44-6.912-1.008-8.64-1.008c-0.072,0.072-0.144,0.144-0.216,0.288c-29.592-4.824-31.248-5.328-32.976-5.4
		c0.072-0.36,0.144-0.72,0.216-1.008c0.288,0,0.6479,0,1.008,0c-2.16-5.688-9.288-11.4481-9.288-16.776
		c9.72-5.472,19.8-9.7921,29.952-15.768c6.192,0.072,15.192-0.504,21.888,1.152c3.888,4.968,3.888,4.968,8.136,9.576
		c0.144-0.72,0.144-0.72-0.072-2.664c-2.664-1.296-4.176-4.968-4.32-6.984c5.976-0.504,14.256,0.864,21.024,0.936
		c-7.704,6.552-17.928,9.288-16.272,20.664c-5.616,6.048-12.672,6.696-12.096,15.192c1.08-1.584,1.008-3.312,1.296-4.608
		c0.144,0.144,0.36,0.288,0.576,0.504c0.504-2.592,8.64-7.56,11.088-9.504c1.728,0.216,1.728,0.216,5.328,1.44
		c6.552,0,16.704-10.008,20.88-14.688c1.872-0.36,4.824,1.44,6.984,2.664c9.936,4.68,18,13.536,28.152,19.8
		c-2.16,1.872-7.9919,4.536-6.768,8.208c0.576-0.432,1.08-1.656,1.44-1.872c0.144,0.0721,0.2881,0.144,0.5041,0.216
		c0.792-2.736,3.3839-3.8159,5.544-5.472c2.664,0.36,5.256,3.456,8.136,5.544c6.984,6.984,21.168,7.272,30.312,12.744
		C473.2898,221.9906,473.2898,221.9906,472.2819,221.9906L472.2819,221.9906z M118.4019,220.9826
		c-1.008-0.288-1.944-0.504-2.88-0.72c3.168,0.288,3.168,0.288,3.96,0.648C119.1219,220.9106,118.7619,220.9106,118.4019,220.9826
		L118.4019,220.9826z M284.0739,220.9826c-4.824-0.792-20.0161-1.512-19.152-8.496c3.816-0.504,25.344,0.864,22.392,7.704
		C286.3778,221.1266,284.9378,220.9826,284.0739,220.9826L284.0739,220.9826z M107.1699,220.0466
		c-1.08-0.504-2.16-0.936-3.168-1.368c0.072-0.144,0.144-0.288,0.216-0.36c2.664,0.72,2.664,0.72,4.104,1.44
		C108.1059,220.0466,108.1059,220.0466,107.1699,220.0466L107.1699,220.0466z M278.8179,219.5426
		c-2.664-0.72-12.456-2.952-13.032-5.4c1.512-0.288,15.768,4.32,16.632,5.184
		C282.1299,219.5426,282.1299,219.5426,278.8179,219.5426L278.8179,219.5426z M464.5779,217.5986
		c-0.504-0.216-1.008-0.432-1.44-0.576c0.7919,0,0.7919-0.288,1.944,0.36C464.8658,217.4546,464.7219,217.5266,464.5779,217.5986
		L464.5779,217.5986z M120.8499,217.3826c0.432-0.144,0.864-0.288,1.296-0.36
		C121.7859,217.3826,121.7859,217.3826,120.8499,217.3826L120.8499,217.3826z M101.6259,215.9426
		c-0.504-0.36-1.008-0.648-1.44-0.936c-0.072-0.288-0.072-0.576-0.072-0.864c0.72,0.432,1.512,0.936,2.304,1.44
		C101.8419,216.0866,101.8419,216.0866,101.6259,215.9426L101.6259,215.9426z M115.3059,215.7266
		c-1.296-0.432-2.592-0.864-3.816-1.224c1.44,0,2.448-0.216,4.32,0.936C115.5939,215.5106,115.4499,215.5826,115.3059,215.7266
		L115.3059,215.7266z M80.4579,203.4146c0.216-0.216,1.44-0.216,1.224,0C81.2499,203.4146,80.8179,203.4146,80.4579,203.4146
		L80.4579,203.4146z M78.0819,203.1266c0-0.288,0-0.504,0-0.72c1.728,0.216,1.728,0.216,1.656,0.432
		C79.1619,202.9106,78.5859,202.9826,78.0819,203.1266L78.0819,203.1266z M318.4179,201.9746c-9.936-1.44-18.864-2.736-28.008-5.112
		c0.4319-8.424,7.4879-7.992,11.952-13.608c8.424-0.648,11.016,8.928,16.2,15.264c0.2881,1.152,0.576,2.376,0.864,3.6
		C319.0658,202.0466,318.7059,201.9746,318.4179,201.9746L318.4179,201.9746z M434.7699,201.2546
		c-10.008-5.616-22.968-20.52-33.12-22.536c0-2.016,0.936-3.888,1.152-5.688c12.528,4.824,26.2079,15.12,37.8,23.688
		c0,0.288,0,0.576,0.072,0.864C439.3058,198.5906,436.2098,201.2546,434.7699,201.2546L434.7699,201.2546z M445.6418,200.8226
		c-1.152-1.296-2.808-2.592-2.808-3.744c3.24-2.592,16.704-17.712,20.5919-14.904c-5.8319,6.192-11.5919,12.384-17.3519,18.648
		C445.9298,200.8226,445.7859,200.8226,445.6418,200.8226L445.6418,200.8226z M72.2499,200.1026c-0.864-0.72-1.728-1.44-2.592-2.16
		c0.576-0.792,2.304,1.008,3.096,1.8C72.5379,199.8146,72.3939,199.9586,72.2499,200.1026L72.2499,200.1026z M286.7379,196.7186
		c-34.56-6.408-68.6161-14.616-102.168-23.328c-0.36-0.216-0.72-0.36-1.008-0.504c-0.216-8.568-0.792-16.776-1.656-24.624
		c6.768,1.296,61.128,14.472,61.128,21.456c-4.68,3.744-11.52,8.928-11.16,15.12c0.216,0,0.432,0,0.72,0
		c0-7.416,7.704-10.224,12.024-14.832c15.48,4.536,31.104,11.592,48.6,11.592c1.728,0.288,3.456,0.576,5.256,0.864
		c-0.792,1.584-2.088,3.888-3.816,4.32c-0.576,2.376-4.032,2.16-4.464,5.04c-1.44,1.44-1.008,2.304-1.2961,4.68
		C286.9539,196.5026,286.9539,196.5026,286.7379,196.7186L286.7379,196.7186z M441.3218,196.5026
		c-3.384-2.664-16.56-10.872-16.776-12.384c4.104-4.824,4.104-4.824,7.848-9.792c3.6,0,23.256,5.184,25.56,6.696
		C457.9539,184.8386,441.3218,196.5026,441.3218,196.5026L441.3218,196.5026z M378.7538,194.0546
		c-2.376-0.576-2.952-0.864-3.24-2.52c7.4879-6.984,16.416-12.816,23.688-20.088
		C410.0018,171.4466,385.8818,193.1906,378.7538,194.0546L378.7538,194.0546z M70.0899,192.9026c-0.288-0.216-0.504-0.36-0.72-0.504
		c0.288-0.0721,1.44-0.5041,1.944,0.504C70.8819,192.9026,70.4499,192.9026,70.0899,192.9026L70.0899,192.9026z M68.4339,192.1826
		c-0.432-0.2881-0.864-0.576-1.224-0.7921c0.288-0.216,0.288-0.216,1.944,0.504C68.9379,192.1826,68.9379,192.1826,68.4339,192.1826
		L68.4339,192.1826z M373.4979,190.2386c-5.184-6.552,13.824-18.288,19.224-19.512c0.504,0.288,0.504,0.288,4.608,0.72
		c0.072,0.072,0.144,0.216,0.216,0.36C395.8178,174.0386,376.0179,190.2386,373.4979,190.2386L373.4979,190.2386z M57.3459,187.5746
		c-0.144-0.216-0.288-0.432-0.432-0.576c0.288-0.216,0.288-0.216,1.152,0.216c0,0.072,0,0.216,0,0.36
		C57.7779,187.5746,57.5619,187.5746,57.3459,187.5746L57.3459,187.5746z M47.9859,187.2146c0-0.288,0-0.504,0-0.72
		c0.432,0.072,0.936,0.216,1.44,0.36C48.9219,186.9266,48.4179,187.0706,47.9859,187.2146L47.9859,187.2146z M423.0339,183.7586
		c-6.552-4.248-13.968-7.704-19.512-11.592c1.152-1.152,12.6,0.36,15.48,0.648c-0.36,3.024-0.288,10.08,5.256,9.576
		c-0.144,0.36-0.288,0.7921-0.432,1.224C423.5378,183.6146,423.2499,183.6866,423.0339,183.7586L423.0339,183.7586z
		 M472.0659,182.7506c-1.8-0.432-3.6-0.864-5.3281-1.296c-0.0719-0.36-0.0719-0.648-0.0719-0.936
		c5.7599-6.552,5.04-9.864,12.672-3.888c-0.072,1.368,0.7199,3.24,0.432,4.68
		C476.9619,182.3186,474.5139,182.6066,472.0659,182.7506L472.0659,182.7506z M311.0018,182.3906
		c-1.8719-0.936-4.248-0.432-5.7599-0.6479c0.792-3.24,14.112-14.76,17.568-15.048c10.296,1.44,10.296,1.44,16.56,2.016
		c-1.152,2.016-13.824,7.272-16.56,8.496c-0.288-0.144-0.504-0.288-0.72-0.432
		C320.7939,178.7186,312.0099,182.6066,311.0018,182.3906L311.0018,182.3906z M424.4739,181.8146
		c-8.928-3.24-5.904-11.376,5.544-8.424C430.0179,175.1186,425.4099,182.7506,424.4739,181.8146L424.4739,181.8146z
		 M299.6979,181.0946c-2.592-0.144-10.728-1.944-11.304-1.8c0.216,0.36,0.216,0.36,0,0.576c-14.616-1.584-27-5.184-39.672-10.584
		c-0.792-0.072-1.584-0.072-2.376-0.072c0.792-4.176,8.568-8.352,10.8719-12.24c12.168,0,25.704,4.608,38.88,5.328
		c0.864,0.144,20.592,2.808,22.32,4.248C314.7458,170.2226,303.9459,181.0946,299.6979,181.0946L299.6979,181.0946z
		 M462.9219,180.8786c-8.784-1.368-21.6-4.32-29.088-7.344c0-1.44,6.552-11.448,9.36-11.952c7.92,7.128,19.728,6.408,29.376,11.232
		c-2.448,2.232-2.448,2.232-7.704,8.064C464.2179,180.8786,463.5699,180.8786,462.9219,180.8786L462.9219,180.8786z
		 M177.0819,175.7666c-3.312-0.864-6.84-1.224-7.704-3.96c2.448,0,5.4,0.792,8.424,1.584c0.36,0.648,0.36,0.648,0.36,2.088
		C177.8018,175.7666,177.8018,175.7666,177.0819,175.7666L177.0819,175.7666z M264.3459,175.7666
		c-1.944-0.792-1.944-0.792-1.656-0.936C263.1939,175.1186,263.7699,175.4066,264.3459,175.7666L264.3459,175.7666z
		 M431.1699,172.1666c-3.672-0.576-6.552-0.936-9.576-0.792c1.08-6.624,7.344-9.72,13.176-10.008
		c0.648,0.72,1.584,2.952,3.168,3.744c0,0.216,0,0.432,0.072,0.72C436.3539,167.7026,433.4739,171.7346,431.1699,172.1666
		L431.1699,172.1666z M180.9698,171.9506c-15.696-3.744-15.336-3.456-22.032-15.696c-8.28-13.248-8.28-13.248-8.928-13.752
		c-0.432-8.424-0.936-11.016-1.512-21.096c0.216,0,0.432,0,0.72,0.072c6.192,11.52,4.176,12.96,16.344,16.128
		c5.472,7.704,4.176,7.2,14.688,9.936c0.36,7.272-0.216,16.704,1.296,24.336C181.1859,172.0946,181.1859,172.0946,180.9698,171.9506
		L180.9698,171.9506z M417.7059,171.0146c-5.904-0.648-15.696,0.36-18.936-2.88c-0.648-0.288-1.296-0.576-1.944-0.864
		c-0.072-0.432-0.144-0.792-0.144-1.152c2.448-2.952,17.28-19.152,17.928-22.608c7.92,1.296,19.368,11.016,26.568,17.064
		c0,1.224-1.008,3.24-2.5199,3.6c-4.392-12.6-15.192,2.376-18.7921,6.84C419.1459,171.0146,418.4259,171.0146,417.7059,171.0146
		L417.7059,171.0146z M394.1618,170.2946c-1.296-0.648-1.008-0.936-1.08-1.296c1.368-0.864,0.936-0.936,3.024-1.152
		c0.072,0.288,0.144,0.576,0.216,0.864c0.864,0,1.512,0.144,2.664,1.08C397.3299,170.4386,395.5298,170.2946,394.1618,170.2946
		L394.1618,170.2946z M81.6819,170.0066c-6.696-1.44-16.56-1.8-21.672-4.32c-16.344-2.88-17.568-3.384-18.504-3.456
		c0.36-4.536,0.36-4.536,0.72-5.688c9.504,0,30.312,3.456,40.392,8.208c0.072,3.528,0.072,3.528-0.216,5.256
		C82.1139,170.0066,81.8979,170.0066,81.6819,170.0066L81.6819,170.0066z M381.2019,169.5746
		c-5.184-1.152-23.472-9.144-25.056-10.728c-0.144,0.216-0.288,0.432-0.432,0.72c-6.84-5.256-14.04-10.08-20.232-14.9041
		c0.288-0.072,0.648-0.144,1.008-0.216c-0.936-1.656-6.12-3.672-7.704-4.464c-0.072-0.288-0.144-0.576-0.2159-0.792
		c9.144,0.504,19.512,8.136,29.304,11.376c5.184,3.96,9.72,8.424,16.56,11.304c4.824,1.152,13.248,3.816,17.352,7.056
		C390.4179,170.2946,382.7139,169.5746,381.2019,169.5746L381.2019,169.5746z M80.2419,169.0706
		c-2.448-0.504-7.776-1.368-9.432-2.16c-0.144-1.512-0.288-3.024-0.432-4.4641c3.744,0.504,7.704,0.288,11.304,2.808
		c0.072,2.304,0.072,2.304-0.288,3.816C80.9619,169.0706,80.6019,169.0706,80.2419,169.0706L80.2419,169.0706z M371.8419,168.3506
		c-6.408-0.36-6.912-0.504-11.016-3.96c0-0.432,0-0.792,0-1.152c0.216-0.216,0.432-0.432,0.648-0.648
		c3.528,0.504,9.864,3.672,13.464,5.544C374.7218,168.3506,374.7218,168.3506,371.8419,168.3506L371.8419,168.3506z
		 M392.2178,168.1346c-6.984-4.68-29.016-8.856-30.672-17.208c6.336-5.976,12.024-13.392,18-19.872
		c6.696,0,16.056,6.768,24.984,7.704c3.024,1.296,6.048,2.592,9.144,3.888c0.072,0.288,0.144,0.576,0.288,0.864
		C410.2178,147.2546,396.4659,168.1346,392.2178,168.1346L392.2178,168.1346z M243.8978,167.8466
		c-9.504-4.32-18.576-8.208-27.36-11.664c10.512-2.592,27.648-4.032,38.952-0.0721c0.072,0.2881,0.144,0.576,0.288,0.864
		C253.6178,159.2066,247.4259,167.2706,243.8978,167.8466L243.8978,167.8466z M359.0978,167.4146c-3.816-0.36-7.56-0.72-11.304-1.08
		c0.144-0.792,6.264-4.752,7.2-4.752c4.104,3.888,4.104,3.888,5.256,5.472C360.0338,167.4146,360.0338,167.4146,359.0978,167.4146
		L359.0978,167.4146z M68.6499,166.6946c-4.032-0.504-4.032-0.504-11.808-2.304c-0.36-2.664-0.36-2.664-0.216-4.8239
		c3.816,0.432,8.064,1.656,12.6,2.664c0.504,3.384,0.504,3.384,0.288,4.32C69.2258,166.5506,68.9379,166.6226,68.6499,166.6946
		L68.6499,166.6946z M340.0898,166.6946c-6.696-0.792-17.424-0.432-22.752-2.52c-0.072-0.432-0.072-0.864-0.072-1.224
		c1.296-0.288,14.976-3.024,16.56-4.6079c-4.752-3.816-15.048-6.264-20.448-8.28c-2.016,0.432-15.984,3.096-18,4.464
		c3.96,5.328,16.992,5.112,20.16,9.288c-4.032,1.152-25.92-3.672-31.464-4.608c-12.6-1.152-25.56-4.32-37.5121-5.832
		c0-0.288,0-0.504,0-0.72c18.432-1.872,36.7921-8.424,55.8-10.512c3.96-0.792,7.992-1.584,12.024-2.376
		c6.336-4.752,8.28-2.592,14.976,2.016c-0.072,0.288-0.072,0.648-0.072,1.008c0.936,0.288,0.936,0.288,6.48,3.888
		c-0.072,0.288-0.072,0.576-0.072,0.864c0.144-0.072,0.288-0.144,0.504-0.216c5.544,3.816,11.592,7.488,17.424,12.2401
		C352.8339,162.9506,343.3299,166.6946,340.0898,166.6946L340.0898,166.6946z M53.3139,163.8146
		c-3.312-0.576-7.2-1.656-10.152-1.944c-0.576-1.152-0.288-2.304-0.216-3.456c3.384,0.792,8.064-2.016,12.528,1.152
		c-0.144,1.368-0.216,2.808-0.288,4.248C54.5379,163.8146,53.8899,163.8146,53.3139,163.8146L53.3139,163.8146z M360.0338,150.7826
		c-11.52-5.112-22.968-10.224-33.912-14.472c-0.072-0.36-0.144-0.72-0.144-1.008c7.704-9.36,7.704-9.36,12.528-15.84
		c4.824,0,30.9601,7.776,39.168,10.8C377.6739,132.2066,361.1139,150.5666,360.0338,150.7826L360.0338,150.7826z M334.7619,146.8226
		c-0.576-0.36-1.152-0.648-1.656-0.936c0.216-0.072,0.432-0.144,0.72-0.144c0.432,0.36,0.936,0.72,1.44,1.08
		C335.0499,146.8226,334.9059,146.8226,334.7619,146.8226L334.7619,146.8226z M147.7779,142.1426
		c-9.72-3.24-19.008-4.464-28.44-6.336c-3.24-7.632-8.136-13.176-9.576-20.664c7.92,0.936,15.984,2.736,24.264,3.888
		c1.728,2.808,12.816,17.28,14.544,23.04C148.2819,142.0706,147.9939,142.0706,147.7779,142.1426L147.7779,142.1426z
		 M147.7779,139.4786c-5.688-8.64-10.944-17.136-15.768-25.344c0-9.144-0.936-18.432,0-26.928c0.288-0.144,0.576-0.288,0.864-0.36
		c4.752,10.296,9.504,20.664,14.76,31.176c0,0.36,0,0.72,0,1.152c-1.584,1.584,0.288,17.712,0.432,20.232
		C147.9219,139.4066,147.8499,139.4066,147.7779,139.4786L147.7779,139.4786z M163.9059,135.6626
		c-11.808-1.44-16.92-21.384-20.592-30.384c-2.52-4.752-15.912-27.72-15.264-32.472c29.304-1.44,58.392,0.288,88.488-3.96
		c0.864,1.296,1.728,2.664,2.592,4.032c7.9919,0,9.792,3.888,14.472,10.872c0.216,0,0.432,0,0.72,0c0.792-1.08,0.792-1.08,0.936-1.8
		c0.72,0.216,0.72,0.216,1.944,1.2961c0.288-0.072,0.576-0.144,0.936-0.216c0.864-6.552-9.648-8.064-10.584-15.984
		c16.128-2.808,16.128-2.808,19.224-3.024c11.5201,8.712,23.544,17.712,34.632,28.152c4.104,1.728,14.904,10.08,16.2,15.264
		c-1.872,1.08-2.304,1.224-3.096,3.096c-13.3921,6.264-30.816,6.552-44.568,8.496c-22.896,6.768-49.32,4.608-71.856,1.008
		c-6.984-1.512-21.312-6.408-27.432-5.904C151.0179,114.9986,164.5539,135.5186,163.9059,135.6626L163.9059,135.6626z
		 M323.7458,135.6626c-5.976-0.864-14.76-14.0399-18.432-17.928c-2.952-2.304-6.408-4.536-6.84-7.416
		c-0.36-0.072-0.72-0.144-1.08-0.216c1.296-5.184,33.192,6.408,40.32,8.568c-4.032,5.832-9,10.656-12.456,16.92
		C324.7538,135.5906,324.2498,135.5906,323.7458,135.6626L323.7458,135.6626z M128.9859,130.8386c-4.68-1.368-10.44,0-9.36-6.696
		c0.288,0,0.648,0,1.008,0c2.232,2.232,6.336,1.296,9.936,2.736c0.072,1.296,0.576,2.448-0.576,3.96
		C129.6339,130.8386,129.2739,130.8386,128.9859,130.8386L128.9859,130.8386z M53.5299,125.4386
		c0.072-0.288,0.144-0.576,0.216-0.864c0.36-0.072,0.792-0.072,1.224-0.072c-0.072,0.216-0.144,0.504-0.216,0.792
		C54.3218,125.2946,53.8899,125.3666,53.5299,125.4386L53.5299,125.4386z M130.4259,115.2146c-13.896-1.44-28.008-5.04-41.112-7.92
		c-0.72-0.072-14.832-3.384-16.92-2.016c0,0.432,0,0.936,0,1.44c-3.96,0-8.352-0.792-11.808-1.224c-0.936-6.264-1.44-7.92-1.8-12.24
		c1.44-0.144,7.488,0.576,25.488,1.08c1.368-1.368,30.096,1.44,35.568,2.376c3.816,4.896,7.776,11.592,11.664,17.928
		c-0.072,0.144-0.144,0.288-0.216,0.504C131.0019,115.1426,130.7139,115.1426,130.4259,115.2146L130.4259,115.2146z
		 M129.4899,109.9586c-4.032-6.12-7.992-12.24-11.952-18.36c-0.144-12.672-5.256-19.512,8.928-18.288
		c1.44,3.168,2.88,6.336,4.32,9.576c-3.384,4.752,0.792,19.2961-0.936,26.928
		C129.7059,109.8146,129.5619,109.8866,129.4899,109.9586L129.4899,109.9586z M112.9299,94.5506
		c-7.632-0.288-6.12-1.728-10.872-4.104c-4.104,1.7281-25.488-12.888-27.072-13.8239c-0.072-0.288-0.072-0.504-0.072-0.72
		c5.904-0.72,11.304-0.936,17.568-0.936c0.072-0.144,0.144-0.288,0.216-0.36c4.536-0.144,9.144-0.216,13.752-0.288
		c3.24,4.752,8.136,11.376,10.152,17.496c0.504,0.216,1.512,1.008,1.8,2.736C116.5299,94.5506,114.7299,94.5506,112.9299,94.5506
		L112.9299,94.5506z M94.1379,92.8946c-11.304-0.576-22.608-1.152-33.912-1.728c-0.576,0.576-1.152,0.576-1.656,0.648
		c-0.648-5.328-2.448-10.296-0.144-14.904c8.64-6.912,28.944,8.856,34.56,12.816c2.376,0.936,2.376,0.936,5.76,2.88
		C98.4579,92.8946,98.4579,92.8946,94.1379,92.8946L94.1379,92.8946z M116.0258,88.7906c-1.224-1.944-6.912-11.232-7.2-12.888
		c2.304-0.648,4.32-1.44,6.984-1.224c0.144,4.536,0.36,9.144,0.576,13.752C116.2419,88.5026,116.0979,88.6466,116.0258,88.7906
		L116.0258,88.7906z M233.6019,82.3106c-0.144-0.72-0.216-1.368-0.288-2.016c0.36,0.072,0.792,0.144,1.224,0.216
		c0.072,1.44,0.072,1.44-0.216,1.8C234.0339,82.3106,233.8179,82.3106,233.6019,82.3106L233.6019,82.3106z M236.9859,81.8066
		c-0.072-0.72-0.072-1.368-0.072-2.016c0.36,0.216,0.36,0.216,0.792,2.16C237.4179,81.8786,237.2019,81.8066,236.9859,81.8066
		L236.9859,81.8066z M233.6019,78.7106c-3.456-0.864-6.12-4.032-8.208-5.688c0-0.288,0-0.576,0-0.864
		c3.672-1.224,5.904,2.592,8.64,6.192C233.8899,78.4226,233.7458,78.5666,233.6019,78.7106L233.6019,78.7106z M68.4339,74.9666
		c0-0.288,0-0.504,0-0.72c0.864-0.216,1.728-0.36,2.664-0.504c0,0.288,0,0.6479,0.072,1.008
		C70.2339,74.8226,69.2979,74.8946,68.4339,74.9666L68.4339,74.9666z M73.4739,74.8226c-0.072-0.288-0.144-0.576-0.216-0.792
		c1.656-0.144,2.376-0.648,3.096-0.72c0-0.36,0-0.72,0.072-1.008c0.648-0.36,0.648-0.36,1.656-0.36
		c-0.072,0.288-0.072,0.576-0.072,0.864c1.224-1.872,7.632-1.8,10.368-1.584c0.936,1.584,0.936,1.584,1.08,2.52
		C80.6739,74.6066,80.6739,74.6066,73.4739,74.8226L73.4739,74.8226z M107.6019,74.8226c-0.936-2.088-3.024-1.224-4.32-1.296
		c-0.864-2.88-0.864-2.88-0.864-3.6c0.144-0.216,0.288-0.36,0.504-0.504c-0.504-2.088-1.728-1.512-2.016-3.816
		c4.68,0.576,9.36,1.152,14.76,2.664c-0.072,1.656-0.144,3.384-0.144,5.112C112.8578,73.8146,110.1939,74.3186,107.6019,74.8226
		L107.6019,74.8226z M64.3299,74.0306c0-2.736,0.36-9.936,4.608-8.928c0.72,2.016,1.368,4.752,1.728,7.704
		C68.5059,73.1666,66.4179,73.5986,64.3299,74.0306L64.3299,74.0306z M93.7059,73.5266c-0.144-1.224-0.144-1.224,0.072-3.816
		c3.96-2.664,8.136-2.592,8.136,3.6C101.6259,73.5986,101.6259,73.5986,93.7059,73.5266L93.7059,73.5266z M73.6899,73.2386
		c0.432-0.0721,0.864-0.144,1.296-0.216C74.6259,73.3826,74.1939,73.3106,73.6899,73.2386L73.6899,73.2386z M90.7539,73.2386
		c-0.36-0.432-0.36-0.432-0.72-2.592c0.36,0,0.792,0,1.224,0c-0.072,0.864-0.144,1.728-0.144,2.664
		C90.9698,73.2386,90.8259,73.2386,90.7539,73.2386L90.7539,73.2386z M117.9698,73.1666c-0.216-0.144-0.432-0.288-0.648-0.36
		c0-1.512,0.072-3.024,0.144-4.464c2.088-0.792,3.312-0.936,5.76-1.224c0.648,1.296,1.728,2.736,2.016,4.752
		C122.0739,72.6626,122.0739,72.6626,117.9698,73.1666L117.9698,73.1666z M73.2579,72.1586c-0.936-0.216-2.376-7.344-2.232-8.496
		c2.808-1.296,7.416-4.68,10.656-4.68c1.44,2.16,5.328,6.696,5.328,10.224C86.4339,69.5666,86.4339,69.5666,73.2579,72.1586
		L73.2579,72.1586z M167.0019,72.1586c-4.536-0.288-9-0.576-13.464-0.792c1.8-4.104,1.8-4.104,4.176-8.136
		c4.968-0.216,17.208-2.088,21.816,0.216C173.4819,71.5106,175.4979,71.7986,167.0019,72.1586L167.0019,72.1586z M126.8259,71.5826
		c-0.792-1.728-1.944-3.528-1.656-4.68c2.88-0.504,2.88-0.504,7.92-0.72c2.736,4.464,2.736,4.464,2.736,4.968
		C135.2499,71.4386,129.7059,71.7266,126.8259,71.5826L126.8259,71.5826z M178.8099,71.5826c0.72-2.736,3.744-7.92,5.976-9
		c11.16-0.288,23.544-2.088,34.848-3.024c-1.44,5.832-2.448,7.632-7.704,8.784C200.5538,69.6386,189.7539,70.4306,178.8099,71.5826
		L178.8099,71.5826z M221.0739,71.2226c-1.008-0.36-1.944-0.72-2.88-1.08c0-0.72,0-1.44,0-2.16c2.592-0.216,5.256-0.432,7.92-0.576
		c0.648,0.792,0.864,1.08,1.08,3.024c-0.576,0.288-2.52,0.072-3.96,0.432c-0.144-1.44-0.144-1.44-0.504-1.656
		c-0.072,1.224-0.072,1.224-0.576,1.944C221.7939,71.1506,221.4338,71.1506,221.0739,71.2226L221.0739,71.2226z M137.4099,70.7186
		c-5.256-7.416-1.08-15.624,1.584-23.184c1.656-1.656,10.512,0.936,15.264-3.024c8.928-3.312,35.496-10.512,37.08,5.472
		c-0.072,3.528-0.144,7.056-0.216,10.584c-12.744,2.016-27,0.36-39.744,1.296c-0.216,0.144-0.36,0.288-0.504,0.504
		c-6.84,0.936-9.072,2.808-12.96,8.352C137.6979,70.7186,137.5539,70.7186,137.4099,70.7186L137.4099,70.7186z M147.4899,70.7186
		c-0.216-0.216-0.216-0.216-7.2-0.072c0-5.76,10.584-6.696,14.904-7.2C154.3298,66.5426,150.5859,70.4306,147.4899,70.7186
		L147.4899,70.7186z M88.8819,68.8466c-1.728-3.168-5.184-8.424-5.184-11.448c2.52-1.368,3.456-1.656,6.84-0.936
		c-0.144,2.88,0.36,6.9839,0.576,12.024C90.3219,68.8466,90.3219,68.8466,88.8819,68.8466L88.8819,68.8466z M93.2019,67.7666
		c-0.432-3.528-0.864-7.056-1.224-10.584c6.552,0,7.56,1.08,8.784,6.9839c-1.728,0.936-1.584,0.72-2.016,2.952
		C96.8739,67.3346,95.0019,67.5506,93.2019,67.7666L93.2019,67.7666z M117.4659,67.0466c-0.072-1.008-0.144-1.944-0.216-2.88
		c-0.288,0-0.504,0-0.72,0c-1.008,4.752-11.952,0.648-14.904,0.216c-0.144-2.16-0.648-3.6-0.72-4.824
		c3.816,0.792,7.632,1.584,11.52,2.448c0,0.432,0,0.936,0,1.44c2.52-0.36,8.568-0.36,10.08,2.16
		C122.1459,66.1826,117.9698,67.0466,117.4659,67.0466L117.4659,67.0466z M219.4179,66.5426c1.584-11.52,20.952-10.872,30.528-11.52
		c-0.576,1.44-2.736,6.192-4.248,7.7039C236.5538,64.3826,228.2019,65.8226,219.4179,66.5426L219.4179,66.5426z M123.9459,65.6786
		c-2.448-2.9521-6.984-3.24-10.008-4.1761c-0.072-0.288-0.072-0.504-0.072-0.72c4.68-0.288,9.432-0.504,14.184-0.72
		c0-0.288,0-0.504,0-0.72c0.504,0,1.08,0,1.656,0.072c-0.072,0.072-0.144,0.216-0.216,0.36c1.512,0.072,3.024,0.144,4.536,0.288
		C133.0899,66.9026,131.1459,65.0306,123.9459,65.6786L123.9459,65.6786z M70.0899,62.0786c-0.72-2.088-0.792-3.096-0.72-4.32
		c1.728-0.144,8.496-1.368,10.368,0C78.7299,58.7666,71.0979,62.0786,70.0899,62.0786L70.0899,62.0786z M111.4899,60.6386
		c-4.464-1.152-14.904-2.016-11.592-8.64c8.784-2.592,11.088-0.36,12.168,8.568C111.7059,60.7826,111.7059,60.7826,111.4899,60.6386
		L111.4899,60.6386z M193.2099,60.4226c-1.296-0.648-0.72-6.768-0.72-7.776c2.52,1.656,3.6,3.096,5.832,6.192
		c-0.072,0.288-0.144,0.648-0.216,1.008C196.4499,59.9906,194.7939,60.2066,193.2099,60.4226L193.2099,60.4226z M113.8659,60.2786
		c-2.664-13.608-5.976-9.504-14.904-10.44c-1.224-4.032-1.296-6.84-1.44-10.44c7.128,0.576,14.904-2.304,23.112-2.304
		c18.504-2.448,37.224-4.8959,56.52-4.4639c0.216,0.5759,1.296,4.68,1.152,5.904c-9.288,1.8-22.176,0.288-29.088,7.2
		c-13.176-0.936-11.592,0.648-14.328,11.664C127.3298,58.2626,123.0099,59.1986,113.8659,60.2786L113.8659,60.2786z
		 M133.0899,59.4146c-0.288-0.072-0.288-0.072-0.504-1.008c0.648,0,1.296,0,1.944,0c-0.072,0.288-0.144,0.648-0.216,1.008
		C133.8819,59.4146,133.4499,59.4146,133.0899,59.4146L133.0899,59.4146z M98.0258,57.2546c-11.304-2.88-11.304-2.88-12.024-2.88
		c-0.72,0.504-2.52,2.016-3.168,1.8c-5.328-12.9601-19.44-30.24-17.928-41.76c2.808-5.472,14.904-6.192,21.096-6.408
		c0.072-0.144,0.144-0.288,0.216-0.36c-1.008-0.072-1.944-0.144-2.88-0.216c2.736-2.736,56.376-6.624,59.112-3.024
		c7.488,0.9359,17.496,20.016,19.8,27.072c-0.792,0.288-7.488,0.288-11.592,0.792c-17.712,0-36.36,5.472-53.856,6.264
		c-1.296,1.296,1.656,16.272,2.016,18.648C98.5299,57.1826,98.2419,57.1826,98.0258,57.2546L98.0258,57.2546z M68.9379,56.3186
		c-0.72-0.144-3.312-10.656-3.168-11.664c5.76-0.576,5.76-0.576,9.144-0.576c0.864,1.152,6.48,10.368,4.824,11.7361
		C75.4179,55.8146,75.4179,55.8146,68.9379,56.3186L68.9379,56.3186z M65.0499,42.9986c-1.656-5.76-3.672-11.232-4.536-16.3441
		c1.872,0,3.816,0,5.76,0c0.864,1.584,6.84,14.9041,6.696,15.696C70.3058,42.5666,67.6419,42.7825,65.0499,42.9986L65.0499,42.9986z
		 M179.2419,38.5346c-0.072-1.224-0.144-2.448-0.216-3.672c1.152,0.288,2.736,2.088,4.104,3.456
		C182.8419,38.5346,182.8419,38.5346,179.2419,38.5346L179.2419,38.5346z M163.9059,29.9666
		c-3.816-4.6799-5.256-11.5919-9.072-14.832c-2.088-3.5279-5.976-7.3439-7.056-10.0799c11.88,2.088,19.44,14.4719,27.36,23.76
		c-0.072,0.072-0.144,0.2159-0.216,0.36C171.3939,29.5346,167.1459,30.1826,163.9059,29.9666L163.9059,29.9666z M59.7938,25.2866
		c-2.952-8.208-4.104-14.616,5.256-15.912c0,0.864-2.088,3.0239-2.808,3.816c0,4.3919,1.656,7.2719,2.952,11.808
		C63.8979,25.2866,63.8979,25.2866,59.7938,25.2866L59.7938,25.2866z M156.9219,16.4306c-0.864-0.432-0.36-0.7921-0.288-1.08
		c1.728,0,4.392-1.0081,6.264,0.432C162.2499,16.8626,157.7859,16.4306,156.9219,16.4306L156.9219,16.4306z"/>
</g>
</svg>
