<?xml version="1.0" encoding="utf-8"?>
<!-- Generator: Adobe Illustrator 21.1.0, SVG Export Plug-In . SVG Version: 6.00 Build 0)  -->
<svg version="1.1" id="SrEx" xmlns="http://www.w3.org/2000/svg" xmlns:xlink="http://www.w3.org/1999/xlink" x="0px" y="0px"
	 viewBox="0 0 366.9645 102.8242" enable-background="new 0 0 366.9645 102.8242" xml:space="preserve">
<g>
	<path fill-rule="evenodd" clip-rule="evenodd" stroke="#000000" stroke-width="0.216" stroke-miterlimit="2.6131" d="
		M69.732,102.6295c-13.752-0.288-27.792-3.096-41.256-1.656c-3.528,0-11.592,0.288-14.544-0.576c-0.36-1.584-1.584-2.016-1.8-3.096
		c-5.76,0-7.416,1.728-11.952,4.32c-0.072-0.216-0.072-0.36-0.072-0.504c4.824-3.312,4.752-4.176,11.52-4.68
		c2.232-13.608-1.8-25.272,16.776-27.36c1.872-7.632,3.528-10.944,12.312-10.944c13.752-10.008,16.416-18,34.56-18
		c7.704-0.576,15.48-1.08,23.256-1.584c4.752-1.008,9.792-6.0479,14.04-9c0.648-4.104-10.512-20.736-7.704-24.192
		c1.224-0.576,2.232-0.504,3.96-0.72c0-1.44-2.016-1.872-2.232-4.032c1.224-0.36,11.808-1.656,11.088,2.2321
		c-1.152,0.4319-2.232,0.936-3.312,1.44c0.072,0.72,17.352,17.28,21.024,19.872c1.8,0,5.904-1.44,7.56-1.8
		c20.232-2.664,37.944-11.88,58.32-0.72c2.808,0.648,3.456,3.096,8.136,3.384c16.776-1.368,32.76-1.584,50.184-1.584
		c4.968-1.8,27.144,1.44,34.2,1.8c18,0,35.424,1.224,53.856,1.944c4.32,0.936,9,0.072,13.824,1.008c0,0.144,0.072,0.36,0.144,0.576
		c1.152,0.216,1.152,0.216,2.016,0.648c-0.36,0.792-6.264,1.224-6.264,1.224c-0.792-0.792-1.9439-0.36-2.376-0.36
		c-1.224,1.944-5.256,10.8-5.4,13.032c0.792,0.144,17.208,0.36,17.208,4.32c-3.24,2.016-15.192,2.736-18.792,3.456
		c-0.072,0.288-0.144,0.576-0.144,0.864c-3.384,1.872-6.7679,3.744-10.1519,5.688c-4.032,3.384-38.808,24.12-40.824,30.312
		c21.96,1.224,45.864,1.8,68.184,1.368c1.08-0.36,1.08-0.36,1.656-0.288c-0.648,0.648-2.376,0.72-2.88,0.792
		c-22.176,0-45.288-0.144-67.176-1.152c0,4.752-19.656,1.728-23.904,1.872c-12.456,1.872-22.752,3.816-35.136,4.536
		c-18.864,0-46.08-1.368-64.08,3.744c-12.312,0.936-24.912,2.376-36.72,1.656c-0.432,0.504-0.792,1.008-1.152,1.512
		c-0.576-0.072-1.152-0.144-1.728-0.144c-0.216,0.72-0.216,0.72-0.576,0.864c-2.52-1.872-7.632-1.512-10.008-1.728
		C105.516,98.2375,87.228,102.1255,69.732,102.6295L69.732,102.6295z M40.212,90.7495c-5.616-3.312-18.216,0.864-23.976-3.456
		c-1.224,0-2.232-0.576-2.736-0.792c-0.36-10.0081,4.32-15.48,14.616-16.488c5.688,6.768,11.376,13.536,17.136,20.376
		C42.372,90.7495,42.372,90.7495,40.212,90.7495L40.212,90.7495z M53.316,89.8135c-1.512-0.072-5.04-0.504-5.688-1.152
		c-0.36-6.408-2.376-9.72-3.672-14.904c4.68-0.72,11.664-2.664,16.56-4.104c15.048-2.232,30.888-6.048,46.296-9
		c0.936,0,2.592-0.072,4.104-0.504c27.432-0.36,55.44-2.52,83.52-2.52c13.248-3.6,30.888-0.216,45.36-2.88
		c11.592-0.072,23.256-0.144,34.92-0.216c4.104-1.008,8.28-0.936,13.176-0.504c17.28-0.504,34.272-0.504,51.984-1.8
		c2.016-0.36,3.24-1.296,5.472-0.072c-3.816,3.816-12.24,7.776-16.992,10.656c-15.336,11.232-30.456,12.024-48.384,14.976
		c-22.752,1.296-44.712,4.392-66.816,4.104c-17.136,1.8-34.848,1.656-51.624,2.88c-15.552-0.2159-31.464,2.16-46.44,2.16
		C94.428,88.6615,73.476,89.5255,53.316,89.8135L53.316,89.8135z M45.756,88.5895c-5.76-5.76-13.896-12.6-16.272-19.152
		c0-7.848,4.104-10.872,11.448-10.152c-7.272,11.304,1.08,10.512,4.536,20.952c0.36,1.8,0.36,1.8,0.936,8.28
		C46.188,88.5175,45.972,88.5175,45.756,88.5895L45.756,88.5895z M111.132,75.7015c-1.08-1.656-1.656-0.144-1.656-2.448
		c12.888-2.088,28.44-3.744,42.336-4.104c23.4-3.6,48.672-5.4,72.864-5.4c22.68-2.448,46.08-3.024,68.976-4.68
		c11.016-2.448,22.824-1.08,34.56-2.88c1.584-0.576,1.584-0.576,2.304-0.576c0.144,0.432,0.072,0.432,0.936,0.72
		c0,0.216,0,0.432,0.072,0.648c-17.208,2.088-34.272,3.744-51.048,4.752c-36.576,5.04-74.232,3.168-110.52,7.2
		c-18.648,3.096-38.952,3.528-57.24,5.76c-0.288,0.288-0.576,0.648-0.792,1.008C111.636,75.7015,111.348,75.7015,111.132,75.7015
		L111.132,75.7015z M42.516,72.7495c-8.64-2.16-0.648-12.024-0.216-14.832c3.312-2.664,6.336-5.112,9.576-8.064
		c8.352-8.352,13.968-8.568,24.84-9c6.552-2.592,19.584,1.368,26.136-3.024c6.48-5.616,13.608-6.192,8.136-14.472
		c-1.728-5.04-3.888-9.792-5.256-14.04c5.544,0,11.592,18.792,14.472,23.4c0,1.872-6.048,7.776-7.488,7.776
		c-2.304-1.728-3.312-1.152-5.76-1.08c-9.288,5.328-37.224,1.08-40.248,6.768c0.576,3.672,2.952,7.416,4.68,11.52
		c5.256,0.936,19.728-0.288,24.624-1.728c1.512,0,6.912,0.288,8.064-0.504c19.08,0,38.52-4.176,57.96-4.176
		c0,1.44-1.8,4.104-2.664,5.76c-1.728,0.216-41.112,1.5121-41.4,1.08c-22.176,0.648-41.832,9.144-63.216,11.376
		C51.156,70.6615,45.756,72.7495,42.516,72.7495L42.516,72.7495z M46.332,67.2775c0.576-3.6,20.664-11.592,22.824-10.872
		c-1.152,2.376-17.568,6.552-21.744,10.728C47.052,67.1335,46.692,67.2055,46.332,67.2775L46.332,67.2775z M45.972,59.1415
		c0-0.864,13.752-12.096,16.92-11.52C61.956,48.8455,46.692,58.9255,45.972,59.1415L45.972,59.1415z M73.476,56.9095
		c-2.088-0.72-3.096-3.096-3.24-4.392c10.44-0.936,21.672-1.512,32.616-2.376C100.044,55.8295,79.74,56.9095,73.476,56.9095
		L73.476,56.9095z M163.116,56.6935c0-1.368,7.128-16.848,8.136-17.64c9.144-0.2159,18.504-1.44,28.08-1.1519
		c0,3.456-7.488,12.6-8.856,17.568C182.988,56.9095,170.82,56.4775,163.116,56.6935L163.116,56.6935z M192.636,55.5415
		c0-2.376,2.592-6.192,3.9601-7.992c2.448,0,13.032,0.576,12.456-4.176c-3.528-0.648-6.336-0.144-9.216-0.072
		c0-1.872,1.728-3.96,2.52-5.4c7.848-2.0161,20.088-2.7361,28.44-3.312c0,13.608-16.272,4.896-16.272,11.088
		c3.096,3.384,5.04,0.36,8.712,1.224c0,1.44-1.944,4.464-2.52,6.768C212.22,55.3255,200.844,55.3975,192.636,55.5415
		L192.636,55.5415z M103.716,54.3895c-0.504-0.216-0.504-0.216-2.304-0.288c1.368-7.128,19.656-15.12,19.656-21.6
		c-4.392-6.84-8.64-22.824-15.84-24.624c0-0.576,0-1.152,0-1.656c10.152-5.04,26.64,15.84,34.344,23.76
		c-0.288,0.36-0.288,0.36-0.288,0.936c1.296,1.008,4.608,1.224,5.184,4.32c-9.216,6.552-19.8,11.088-28.656,18.432
		C111.78,53.7415,107.748,54.3895,103.716,54.3895L103.716,54.3895z M222.516,53.4535c-0.216-0.072-0.36-0.072-0.504-0.072
		c0-0.216,0-0.36,0-0.504c1.08-0.288,10.512-16.92,11.232-18.216c4.968-0.936,22.896-3.024,26.352-0.936
		c-2.592,5.544-7.056,11.16-9.432,17.136c0.504,0,1.008,0,1.512,0.072c3.6-4.968,7.416-11.88,9.792-17.352
		c4.032-1.296,23.472-1.008,26.928,1.296c-2.808,5.616-5.616,11.232-8.352,16.92C260.964,52.2295,241.524,53.4535,222.516,53.4535
		L222.516,53.4535z M118.116,53.3815c0-2.448,19.44-13.032,24.84-16.488c7.92-1.08,17.208-0.504,26.208-0.432
		c0,3.24-3.816,13.536-8.352,13.68c-0.072-0.432-0.144-0.864-0.216-1.296C146.34,48.8455,132.084,53.1655,118.116,53.3815
		L118.116,53.3815z M292.932,52.2295c-1.872-1.08-9.2881-0.576-11.376-0.648c0-2.736,4.464-8.28,6.048-10.224
		c3.096-12.456,15.12,3.744,22.608,4.752c0.072,0.7921-1.8,3.6,0.36,3.6c3.024-3.96,5.976-2.52,10.584,0.7921
		c-0.0721,0.072-0.144,0.144-0.144,0.288C311.292,51.3655,301.932,52.2295,292.932,52.2295L292.932,52.2295z M69.516,51.3655
		c-0.936-1.728-1.368-3.528-1.296-4.968c6.12-3.024,24.264,1.368,27.936-2.304c1.872-0.072,3.744-0.144,5.616-0.216
		c0.576,2.16,0.36,1.656,0,3.744c3.096,0,4.536-0.72,1.656,2.52c-0.072-0.36-0.144-0.72-0.216-1.008c-9.216,0-18.288,1.44-27,1.44
		C70.812,51.2935,70.092,51.5095,69.516,51.3655L69.516,51.3655z M147.996,51.3655c-0.0721-0.072-0.144-0.144-0.144-0.216
		c3.24-0.792,7.056-0.864,11.16-1.296C159.012,51.2215,148.212,51.3655,147.996,51.3655L147.996,51.3655z M327.132,50.9335
		c-3.528,0-11.664-4.392-13.464-5.832c0-1.656,1.584-3.672,2.088-5.256c3.456-0.648,7.488,1.512,11.376,2.664
		c2.376,0.432,19.44,1.08,20.16,2.592c-0.288,0.576-0.288,0.576-0.36,1.656c0.648-0.144,1.512-0.936,1.584-1.8
		c4.896,0.144,9.72,0.648,15.12,1.944c-0.072,0.072-0.144,0.144-0.144,0.288C351.108,47.9095,339.012,50.4295,327.132,50.9335
		L327.132,50.9335z M179.172,49.3495c-1.8-1.08-1.008-3.6-0.36-4.536c0.216,0,0.432,0,0.72,0c0.216,1.008,0.576,2.376,0.576,4.248
		C179.676,49.3495,179.676,49.3495,179.172,49.3495L179.172,49.3495z M185.652,49.3495c-1.44-1.08-1.224-1.584-1.5121-2.448
		c-0.36,1.224-0.792,1.944-1.944,2.232c-2.088-1.368-1.152-4.68,0.936-4.68c0.432,1.008,0.432,1.008,0.504,2.088
		c0.288,0,0.576,0,0.936,0c0.216-0.648,0.432-1.224,0.72-1.8c0.288,0,0.576,0,0.936,0c0.288,1.008,0.648,2.448,0.72,4.32
		C186.516,49.3495,186.516,49.3495,185.652,49.3495L185.652,49.3495z M234.036,47.3335c-1.584-0.36-2.232-0.72-2.664-1.368
		c2.016-4.032,8.424-4.68,12.6-2.592C244.26,46.9735,235.98,47.3335,234.036,47.3335L234.036,47.3335z M106.092,46.8295
		c-0.936-0.576-1.872-1.152-2.808-1.728c0-5.976,4.608-4.248,8.568-3.744C111.636,42.1495,107.244,46.4695,106.092,46.8295
		L106.092,46.8295z M310.716,44.6695c-1.08-0.36-1.08-0.36-2.376-1.152c-0.072-0.216-0.144-0.432-0.144-0.576
		c-2.88,0-11.52-4.68-11.88-5.904c5.832,0.504,11.16,1.296,17.496,2.16c-1.368,3.384-1.368,3.384-2.448,5.184
		C311.148,44.4535,310.932,44.5255,310.716,44.6695L310.716,44.6695z M346.716,42.8695c-4.032-1.224-8.064-1.296-11.376-1.872
		c-0.288-3.024,4.104-6.912,4.536-10.08c3.672,0.144,8.28-0.504,12.816-0.72C352.476,32.0695,349.308,42.8695,346.716,42.8695
		L346.716,42.8695z M328.932,40.7095c-1.584-0.936-4.824-1.296-5.976-1.368c0.216-3.024,3.024-5.256,4.176-7.56
		c2.52-0.288,8.208-1.44,10.584-0.288c0.216,2.16-3.24,7.128-4.464,9.216C331.596,40.7095,331.236,40.4935,328.932,40.7095
		L328.932,40.7095z M319.212,38.7655c-0.864-0.144-1.728-0.216-2.592-0.288c0-2.736,1.944-4.32,2.448-6.336
		c1.008-0.288,1.008-0.288,5.904-0.504C324.468,34.4455,322.74,39.1255,319.212,38.7655L319.212,38.7655z M312.516,37.8295
		c-4.104-0.576-8.208-1.152-12.24-1.728c0-0.288,0.072-0.504,0.144-0.72c0.216-0.144,0.504-0.216,0.792-0.288
		c0.216-2.088,0.36-2.16,1.224-3.384c9.4319,0,16.416-4.104,12.096,6.12C313.812,37.8295,313.164,37.8295,312.516,37.8295
		L312.516,37.8295z M295.956,35.6695c-1.872-0.36-2.592-0.36-3.888-0.432c0-4.896,10.224-6.12,6.264,0.432
		C297.54,35.6695,296.748,35.6695,295.956,35.6695L295.956,35.6695z M203.436,35.4535c-1.44-0.432-1.152-0.072-2.304-0.072
		c0-0.216,0-0.36,0-0.504c5.4-1.512,21.24-4.464,26.424-1.872C227.052,34.0855,206.388,35.3815,203.436,35.4535L203.436,35.4535z
		 M155.772,35.0935c-3.384-0.144-7.1281-0.36-9.936-0.144c-1.512-1.512-2.88-2.736-3.168-3.888
		c0.72-0.216,28.224-2.2321,29.376-1.08c-1.224,1.224-11.736,3.816-13.752,4.032C158.004,35.2375,156.636,35.0935,155.772,35.0935
		L155.772,35.0935z M175.716,35.0935c-3.816-0.144-7.56-0.288-11.304-0.432c0-0.216,0.072-0.432,0.144-0.648
		c4.32-1.44,8.352,1.296,9.504-4.752c0.576-0.072,1.8-0.648,2.952,0.072c-1.08,1.368-1.08,0.936-0.864,3.168
		c0.288,0.216,0.288,0.216,0.576,0c0-3.312,2.52-3.168,1.008,2.448C177.012,34.9495,176.364,35.0215,175.716,35.0935
		L175.716,35.0935z M190.476,34.0135c-1.512-2.16-6.264-3.6-7.776-4.752c0-0.288,0-0.504,0-0.72
		c4.752-1.584,14.256,0.936,19.2961,3.456c-0.0721,0.144-0.144,0.36-0.144,0.576C197.82,33.1495,193.86,33.7975,190.476,34.0135
		L190.476,34.0135z M288.756,33.6535c-1.368-0.504-2.376-0.864-3.024-1.512c0.36-0.72,2.52-0.576,3.96,0
		c0.216,0.576,0.216,0.576,0.072,1.296C289.404,33.5095,289.044,33.5815,288.756,33.6535L288.756,33.6535z M258.012,32.5015
		c0.504-0.288,0.504-0.288,1.224-0.288C258.948,32.5015,258.444,32.5735,258.012,32.5015L258.012,32.5015z M204.732,31.8535
		c-4.68-1.512-9.144-3.24-13.32-3.96c-1.008,1.008-16.272-0.288-17.136-3.816c3.384-0.504,12.456-1.44,14.976-4.608
		c3.384,0,19.584,8.352,21.96,11.232C210.852,31.4215,205.38,31.8535,204.732,31.8535L204.732,31.8535z M226.836,31.7095
		c-0.504-0.216-5.4-0.36-7.2-0.6479c-0.216-1.728,1.944-3.672,2.376-4.968c7.488-0.648,14.976-0.72,23.04-0.936
		c-0.216,1.656-1.512,3.744-2.016,5.832c-3.528,0.648-6.696,0.36-9.504,0.36C233.1,31.7815,227.7,31.7095,226.836,31.7095
		L226.836,31.7095z M216.756,30.9895c-2.592-0.504-7.848-2.376-7.848-4.608c1.728-0.864,8.136-0.432,11.088-0.432
		c0,1.584-1.08,3.312-1.944,5.04C217.62,30.9895,217.188,30.9895,216.756,30.9895L216.756,30.9895z M244.836,30.7015
		c0-2.16,1.656-4.104,2.592-5.4c9.288-0.72,18.576,0.648,28.368,0.648c0,5.184-8.64,2.88-11.52,2.88
		c-0.288-0.288-0.288-0.288-0.36-1.008c-1.944,0-8.352,1.872-10.584,2.448C250.452,30.4135,247.644,30.5575,244.836,30.7015
		L244.836,30.7015z M283.356,29.9095c-2.304-0.216-4.608-0.432-6.84-0.648c0-4.752,2.448-1.872,4.536-1.872
		c0.144-0.288-0.144-0.648-0.216-1.152c2.808-0.216,18.792-0.648,20.88,0.36c0,0.864-0.504,1.872-1.008,2.88
		C298.908,30.1255,285.012,29.9095,283.356,29.9095L283.356,29.9095z M304.596,29.6935c-0.2881-0.072-0.576-0.072-0.864-0.072
		c1.152-5.832,8.28-3.024,13.104-2.232c1.152,0,7.92-0.432,9.792,0.792C326.628,30.4135,323.028,29.6215,304.596,29.6935
		L304.596,29.6935z M140.796,29.5495c0-0.216,0-0.4319,0-0.6479c7.488-1.368,15.552-2.52,23.616-3.168
		c0.504,0.432,0.72,1.584,2.16,1.944c0.144,0.36,0.288,0.792,0.504,1.224C159.444,30.4135,148.212,29.5495,140.796,29.5495
		L140.796,29.5495z M329.436,29.3335c-0.216-0.072-0.216-0.072-0.288-0.576c1.584-1.08,6.984-0.792,9.864-0.36
		c-0.144,0.216-0.216,0.4319-0.288,0.72C335.628,29.1895,332.532,29.2615,329.436,29.3335L329.436,29.3335z M167.436,29.1175
		c-0.216-1.944-1.224-2.448-1.44-3.816c5.256-0.792,5.04-2.16,9.216,2.304C174.636,28.1815,167.724,29.1175,167.436,29.1175
		L167.436,29.1175z M138.492,27.6055c-1.152-0.936-1.584-1.584-1.584-2.304c0.432-0.144,0.864-0.216,1.368-0.288
		c0.504-1.584,19.224-4.824,19.8-4.824c3.96,3.312,5.256,3.888,4.896,4.68C155.34,25.5175,145.62,28.1095,138.492,27.6055
		L138.492,27.6055z M164.916,24.5095c-1.872-1.872-3.816-3.096-5.328-4.248c0-1.872,26.136-6.48,28.08-0.504
		C182.988,22.4935,169.668,24.5095,164.916,24.5095L164.916,24.5095z M112.356,5.0695c-0.792-0.216-1.584-0.432-2.304-0.648
		c0-0.288,0.072-0.504,0.144-0.72c1.728,0,2.88-0.936,2.88,1.368C112.788,5.0695,112.572,5.0695,112.356,5.0695L112.356,5.0695z
		 M113.796,3.2695c-2.376-0.936-4.248-0.4319-5.76-0.72c-0.36-0.504-0.36-0.504-0.432-1.1519c1.296-0.648,6.912-0.576,8.928,0.4319
		c0,0.216,0,0.432,0.072,0.648C115.524,2.8375,114.444,3.2695,113.796,3.2695L113.796,3.2695z"/>
</g>
</svg>
