<?xml version="1.0" encoding="utf-8"?>
<!-- Generator: Adobe Illustrator 21.1.0, SVG Export Plug-In . SVG Version: 6.00 Build 0)  -->
<svg version="1.1" id="V" xmlns="http://www.w3.org/2000/svg" xmlns:xlink="http://www.w3.org/1999/xlink" x="0px" y="0px"
	 viewBox="0 0 207.792 49.68" enable-background="new 0 0 207.792 49.68" xml:space="preserve">
<g>
	<path fill-rule="evenodd" clip-rule="evenodd" d="M2.808,49.68C1.872,49.608,0.936,49.464,0,49.32c0-0.216,0.072-0.4319,0.144-0.72
		c1.224-0.144,1.224-0.144,5.544,0.144c3.024-0.216,6.048-0.432,9.144-0.72c0.072-0.072,0.144-0.216,0.216-0.36
		c-0.216-0.144-0.432-0.288-0.648-0.504c0-0.432,0.072-0.936,0.144-1.44c0.504-0.288,1.008-0.576,1.584-0.936
		c1.872-2.16,3.816-4.32,5.76-6.48c1.584-2.304,3.168-4.608,4.752-6.984c0.36-0.288,0.792-0.576,1.224-0.936
		c2.808-0.36,8.784-0.36,17.928-1.08c1.44-1.296,2.88-2.592,4.32-3.888c1.224-1.584,2.448-3.24,3.672-4.896
		c0.216-2.16,0.216-2.16,0-2.88c-0.36-0.288-0.72-0.576-1.08-0.864c-1.296-0.288-2.664-0.576-4.032-0.936
		c-3.528-0.216-7.056-0.432-10.584-0.72c-0.072-0.072-0.144-0.216-0.216-0.36c0.288-0.504,0.576-1.008,0.936-1.584
		c1.224-0.936,1.224-0.936,2.88-1.44c0-0.216,0-0.504,0.072-0.792C31.104,4.104,29.952,3.6,28.728,2.664
		c-0.288-0.36-0.576-0.72-0.864-1.08c0-0.288,0-0.576-0.072-0.936c6.696-0.144,6.696-0.144,9.36-0.432
		c2.016,1.08,4.104,2.232,6.192,3.384c6.624,0,13.248,0,19.944,0c2.592-0.144,5.256-0.288,7.92-0.504
		c4.752-0.936,9.576-1.872,14.4-2.88c1.44-0.072,2.88-0.144,4.32-0.216c1.224,0.936,1.224,0.936,3.096,3.096
		c0.576,0.288,1.152,0.648,1.7281,1.008c2.016,0.2881,4.104,0.576,6.192,0.936c4.032,1.224,8.136,2.52,12.24,3.816
		c0.72,0.072,1.44,0.144,2.16,0.288c0.144,0.216,0.288,0.432,0.504,0.72c4.824,1.872,12.96,5.76,15.624,6.696
		c0.216,0.144,0.4319,0.288,0.72,0.504c12.528-0.288,25.056-0.648,37.656-1.008c0.504-0.216,1.08-0.432,1.656-0.72
		c14.904-0.432,14.904-0.432,27.864-0.432c0.216-0.144,0.4319-0.288,0.72-0.504c0.36,0.072,0.792,0.144,1.224,0.216
		c0.648,0.648,0.648,0.648,0.72,1.44c-0.432,0.144-0.936,0.288-1.44,0.504c-1.512,1.944-3.024,3.888-4.608,5.904
		c0,0.36-0.072,0.792-0.144,1.224c7.128,0.792,7.128,0.792,7.704,1.152c0,0.288,0,0.576-0.072,0.864
		c-0.648,0.144-1.296,0.288-1.944,0.432c-1.656,1.008-3.096,1.44-6.264,3.384c-5.04,3.816-5.04,3.816-9.576,7.704
		c-0.576,0.648-1.1519,1.296-1.8,2.016c-0.072,0.432-0.216,0.936-0.36,1.44c4.608,1.008,9.216,2.016,13.896,3.024
		c7.2-0.288,7.2-0.288,10.08-0.72c0.072,0.072,0.144,0.216,0.288,0.36c-0.144,0.144-0.288,0.36-0.504,0.576
		c-4.536,0.504-4.536,0.504-9.576,0.72c-5.544-0.936-6.768-1.44-13.248-2.664c-0.504,0-1.08,0-1.656,0
		c-0.648,0.216-1.296,0.432-1.944,0.72c-2.304,0.072-4.608,0.144-6.912,0.288c-2.88-0.504-2.88-0.504-6.768-0.72
		c-1.296,0.288-2.664,0.576-4.032,0.936c-4.824,0.216-5.76,0.504-12.96,0.72c-1.296-0.288-2.592-0.576-3.888-0.936
		c-1.296,0-2.664,0-4.032,0c-3.888,0.936-7.488,1.44-7.704,1.656c-4.104,0.216-4.104,0.216-5.256,0.504
		c-3.384-1.008-3.384-1.008-6.48-1.44c-1.728,0.144-3.528,0.288-5.328,0.432c-7.2,1.944-7.2,1.944-13.392,3.168
		c-6.768,0-6.768,0-15.84-0.504c-2.448-0.432-4.968-0.936-7.488-1.44c-2.592,0-5.256,0-7.92,0c-3.096,0.504-3.096,0.504-10.296,0.72
		c-2.376-0.288-4.752-0.576-7.2-0.936c-2.232,0-4.464,0-6.696,0c-2.88,0.432-4.32,0.936-18.288,2.88
		c-7.92,0.72-14.112,0.936-16.776,1.44C10.008,49.536,6.408,49.608,2.808,49.68L2.808,49.68z M22.752,47.52
		c-1.8-0.288-3.672-0.576-5.544-0.936c0-0.36-0.072-0.72-0.144-1.08c2.376-3.096,2.376-3.096,4.32-5.04
		c1.872-2.664,3.816-5.4,5.76-8.136c0.576-0.36,1.152-0.72,1.8-1.152c4.68-0.0721,9.432-0.216,14.184-0.36
		c0.144,0.216,0.288,0.432,0.504,0.648c1.584,0.072,3.168,0.144,4.752,0.216c10.8-0.72,18.72-0.936,25.488-1.44
		c25.632-0.72,25.632-0.72,30.96-1.224c4.68,0.216,9.36,0.432,14.112,0.72c-0.216,0.144-0.432,0.288-0.72,0.504
		c0,0.432-0.072,0.864-0.144,1.368c0.36,0.4319,0.72,0.936,1.08,1.44c0.864,0,1.728,0,2.664,0.072
		c1.008-0.504,1.008-0.504,1.44-1.08c0-0.288,0.072-0.576,0.144-0.936c-0.216-0.2159-0.432-0.4319-0.648-0.72
		c-0.36-0.072-0.72-0.144-1.152-0.216c0-0.216,0-0.432,0-0.72c15.12-0.648,15.12-0.648,16.344-0.432
		c-0.288,0.288-0.288,0.288-1.944,0.72c-0.36,0.864-0.36,0.864-0.36,1.872c0.792,0.72,0.792,0.72,1.8,1.008c0.504,0,1.08,0,1.656,0
		c0.36-0.216,0.72-0.504,1.08-0.7921c0.216-1.44,0.216-1.44-0.072-2.088c-0.576-0.144-1.152-0.36-1.728-0.576
		c0.216-0.072,0.432-0.216,0.72-0.36c2.16,0,4.32,0.072,6.48,0.144c-1.656,1.296-1.656,1.296-2.016,1.944c0,0.2159,0,0.4319,0,0.72
		c0.432,0.2159,0.864,0.504,1.296,0.792c0.936,0.144,1.872,0.288,2.88,0.504c0.216-0.144,0.432-0.288,0.72-0.504
		c0-0.576,0.0721-1.152,0.144-1.8c-0.36-0.36-0.792-0.72-1.224-1.152c0.072-0.216,0.216-0.432,0.36-0.648
		c5.112-0.072,10.224-0.216,15.408-0.36c-0.288,0.432-0.576,0.936-0.864,1.44c0,1.0081,0,1.0081,0.36,1.2961
		c0.792,0.072,1.584,0.144,2.376,0.288c1.224-0.504,1.224-0.504,1.584-1.08c0-0.648-0.072-1.296-0.144-1.944
		c3.096-0.144,6.192-0.36,9.36-0.576c6.408,0,12.816-0.072,19.224-0.144c-0.072,0.288-0.216,0.648-0.36,1.008
		c-2.664,1.872-2.664,1.872-9.6479,7.632c-0.432,0.576-0.936,1.152-1.44,1.728c-2.088,0.216-4.176,0.504-6.336,0.792
		c-18.216,0.936-22.032,1.44-31.896,1.944c-6.48,0-6.48,0-19.944,0.72c-5.472,0.72-5.472,0.72-17.712,1.656
		c-10.8,0.072-21.6,0.144-32.4,0.216c-3.888,0.288-7.8481,0.648-11.808,1.008c-0.936-0.144-1.872-0.288-2.88-0.504
		c-3.168,0-6.336,0-9.576,0c-5.544,0.864-11.16,1.728-16.776,2.664C30.456,46.872,26.64,47.16,22.752,47.52L22.752,47.52z
		 M61.344,35.784c-0.288-0.144-0.576-0.288-0.936-0.504c-1.008,0-2.016,0-3.096-0.072c0.288-1.728,0.288-1.728,0.72-2.088
		c2.376-0.216,5.04,0,30.456-0.216c0.144,0.072,0.36,0.216,0.576,0.36c0,0.432,0,0.936,0,1.44c-0.648,0.216-1.296,0.504-2.016,0.792
		C63.072,35.496,62.352,35.784,61.344,35.784L61.344,35.784z M108.864,33.84c-0.432-0.36-0.936-0.72-1.44-1.08
		c-0.144-0.72-0.144-0.72,0.36-1.656c0.648-0.36,0.648-0.36,2.52-0.6479c0.576,0.144,1.152,0.288,1.728,0.504
		c0.144,0.648,0.36,1.368,0.576,2.088C112.248,33.336,110.088,33.84,108.864,33.84L108.864,33.84z M47.232,30.6
		c0.072-0.36,0.144-0.72,0.288-1.152c0.72-0.648,1.44-1.296,2.16-1.944c1.584-2.088,3.168-4.176,4.824-6.264
		c0.144-0.432,0.288-0.936,0.504-1.44c0-1.008-0.072-2.016-0.144-3.096C64.872,16.2,74.88,15.696,84.888,15.12
		c0.432,0.36,0.936,0.792,1.44,1.224c1.08,0.432,2.232,0.936,3.384,1.44c0.432,0.576,0.432,0.576,0.216,0.936
		c-0.864,0.144-1.728,0.288-2.664,0.504c-4.32,0-4.752-0.288-25.2-0.504c-2.16,1.944-2.16,1.944-5.04,3.96c0,0.36,0,0.72,0,1.08
		c1.08,0.0721,2.232,0.216,3.384,0.36c-0.072,0.288-0.216,0.648-0.36,1.008c-1.728,1.224-3.528,2.52-5.328,3.816
		c-0.144,0.288-0.288,0.576-0.432,0.936C52.488,30.24,52.488,30.24,47.232,30.6L47.232,30.6z M56.808,29.88
		c0.072-0.36,0.144-0.72,0.216-1.152c2.52-1.944,2.52-1.944,5.904-3.888c0.648-0.288,1.296-0.576,2.016-0.864
		c2.448,0.144,4.968,0.288,7.488,0.432c0,0.216-0.072,0.432-0.144,0.72C70.344,27,70.344,27,69.048,27.72
		c-0.216,0.504-0.432,1.008-0.72,1.584c-0.792,0.144-1.584,0.288-2.376,0.432C62.928,29.736,59.904,29.808,56.808,29.88
		L56.808,29.88z M70.488,29.304c0-0.288-0.072-0.576-0.144-0.864c2.16-1.872,3.096-3.096,4.248-3.96
		c6.696-0.216,6.696-0.216,9.792-0.72c0.144-0.072,0.36-0.216,0.576-0.36c0-0.72,0-0.72-0.72-1.872
		c0-0.288,0.0721-0.576,0.144-0.864c2.448-0.072,4.968-0.144,7.488-0.288c0.072,0.072,0.144,0.216,0.216,0.36
		c-3.816,4.968-3.816,4.968-6.48,7.848C80.568,28.8,75.528,29.016,70.488,29.304L70.488,29.304z M87.984,28.728
		c0.072-0.432,0.216-0.936,0.36-1.44c1.872-2.304,3.744-4.608,5.688-6.912c5.76-0.144,11.52-0.36,17.28-0.576
		c-0.144,0.36-0.2881,0.792-0.432,1.224c-2.016,2.232-4.032,4.536-6.048,6.84c-0.576,0-1.152,0.072-1.728,0.144
		c-0.072-0.72-0.144-1.44-0.216-2.16c-0.936-0.432-0.936-0.432-1.944-0.432c-0.288,0.144-0.576,0.288-0.864,0.432
		c0,0.36,0,0.72,0,1.152c0.648,0.504,0.648,0.504,0.648,1.08c-1.656,0-3.312,0.072-5.04,0.144c0.072-0.504,0.216-1.08,0.36-1.656
		c-0.504-0.72-0.504-0.72-1.368-1.224c-0.504,0.072-1.08,0.216-1.656,0.36c0,0.504-0.072,1.008-0.144,1.584
		c0.504,0.432,0.504,0.432,0.432,0.792C90.864,28.584,90.864,28.584,87.984,28.728L87.984,28.728z M113.472,28.296
		c-2.088-0.072-4.176-0.144-6.264-0.288c0-0.288,0-0.648,0.072-1.008c3.888-4.752,3.888-4.752,6.408-7.416
		c1.656-0.36,1.656-0.36,7.704-0.36c0.288-0.216,0.576-0.432,0.936-0.72c1.08,0,2.232,0,3.384,0c1.008,0.144,2.016,0.36,3.096,0.576
		c-0.36,1.224-0.36,1.224-1.368,2.664c-2.16,1.944-4.032,4.104-5.04,4.824c-0.144,0.432-0.288,0.936-0.432,1.44
		C120.672,28.296,120.672,28.296,113.472,28.296L113.472,28.296z M123.768,28.224c0-0.288,0-0.576,0.072-0.936
		c3.888-4.608,3.888-4.608,7.344-8.208c3.24,0,6.552-0.072,9.864-0.144c2.304,0.216,4.608,0.432,6.984,0.72
		c0.072,0.072,0.144,0.216,0.216,0.36c-0.936,1.368-0.936,1.368-7.2,7.344C133.128,27.576,133.128,27.576,123.768,28.224
		L123.768,28.224z M148.032,27.576c-1.368-0.072-2.736-0.144-4.104-0.288c0-0.288-0.072-0.648-0.144-1.008
		c2.16-2.16,4.392-4.392,6.624-6.624c2.16,0,4.32,0,6.48,0c2.952,0.504,5.904,1.008,8.856,1.584
		c-0.072,0.288-0.216,0.648-0.36,1.008c-1.368,1.656-2.736,3.384-4.176,5.112C156.816,27.432,152.424,27.504,148.032,27.576
		L148.032,27.576z M164.808,27.144c-0.432,0-0.936-0.072-1.44-0.144c0.216-0.576,0.504-1.224,0.792-1.872
		c1.152-1.152,2.376-2.376,3.6-3.6c0.504,0,1.008-0.072,1.584-0.144c5.544,0.936,5.544,0.936,11.808,1.44
		c0,0.2881,0,0.576,0.072,0.864c-0.576,0.864-1.152,1.8-1.8,2.736C174.6,26.64,169.704,26.856,164.808,27.144L164.808,27.144z
		 M187.344,26.64c-1.944,0-3.96,0-5.976-0.072c0-0.288,0-0.648,0.072-1.008c0.36-0.648,0.72-1.296,1.152-1.944
		c1.584,0,3.168,0,4.752-0.072c4.608,0.936,4.608,0.936,6.768,1.656c0.576-0.072,1.224-0.144,1.872-0.216
		c0.576,0.216,1.152,0.432,1.728,0.72c-0.144,0.144-0.288,0.288-0.504,0.432C193.968,26.28,190.656,26.424,187.344,26.64
		L187.344,26.64z M192.168,23.256c-2.592-0.288-5.256-0.6479-7.92-1.008c0-0.36,0-0.792,0.072-1.224
		c0.288-0.288,0.576-0.576,0.864-0.864c9.36-0.504,9.36-0.504,11.088-0.36c-0.72,1.152-1.44,2.304-2.16,3.456
		C193.464,23.256,192.816,23.256,192.168,23.256L192.168,23.256z M181.584,21.816c-1.872-0.432-1.872-0.432-5.976-0.792
		c0.072-0.072,0.144-0.216,0.216-0.36c2.376-0.072,4.752-0.216,7.2-0.36c-0.216,0.504-0.432,1.008-0.72,1.512
		C182.088,21.816,181.872,21.816,181.584,21.816L181.584,21.816z M164.304,19.944c-3.816-1.008-3.816-1.008-6.696-1.44
		c-1.44,0.216-1.44,0.216-4.608-0.144c-0.072-0.216-0.144-0.432-0.216-0.72c12.024-0.36,12.024-0.36,16.56-0.144
		c0.0721,0.072,0.144,0.216,0.288,0.36c-0.288,0.36-0.648,0.72-1.008,1.08c-0.72,0.288-1.44,0.648-2.16,1.008
		C165.744,19.944,165.024,19.944,164.304,19.944L164.304,19.944z M172.728,19.224c-0.648,0-1.296-0.072-1.944-0.144
		c0-0.36,0.072-0.72,0.144-1.152c0.72-0.504,0.72-0.504,1.152-1.224c4.464-0.36,4.464-0.36,13.608-0.216
		c0,0.216,0,0.432,0.0721,0.72c-0.288,0.432-0.576,0.936-0.936,1.44C180.792,18.792,176.76,19.008,172.728,19.224L172.728,19.224z
		 M186.624,18.864c0.0721-0.432,0.216-0.936,0.36-1.44c0.432-0.36,0.864-0.792,1.368-1.224c3.816-0.144,3.816-0.144,10.296,0.288
		c-0.288,0.504-0.576,1.08-0.864,1.656C195.552,18.504,195.552,18.504,186.624,18.864L186.624,18.864z M53.712,15.336
		c-4.176-0.288-8.352-0.576-12.528-0.936c-0.072-0.216-0.144-0.504-0.216-0.792c3.888,0,7.776-0.0721,11.736-0.144
		c1.44-0.144,2.88-0.288,4.32-0.504c6.768,0,11.52-0.504,36-0.72c13.464-0.72,13.464-0.72,21.6-1.44
		c0.432,0.072,0.936,0.216,1.44,0.36c0.072,0.72,0.144,1.44,0.216,2.16c0.216,0.36,0.504,0.72,0.792,1.08
		c-0.144,0.072-0.288,0.144-0.504,0.216c-3.096-1.44-3.096-1.44-4.32-2.376c-1.08-0.072-2.232-0.144-3.384-0.216
		c-8.856,0.936-8.856,0.936-22.32,1.656c-0.936-0.216-0.936-0.216-2.88,0c-0.216,0.144-0.432,0.288-0.72,0.504
		c-6.192,0.432-11.736,0.432-25.2,1.152C56.448,15.336,55.08,15.336,53.712,15.336L53.712,15.336z M45.288,12.384
		c0-0.216,0-0.432,0.072-0.72c1.656-0.72,3.312-1.512,4.968-2.304c1.872,0.072,3.816,0.144,5.76,0.216
		c15.624-0.72,15.624-0.72,19.944-1.152c0.72-0.288,0.72-0.288,8.856-1.224c2.592-0.792,5.256-1.584,7.92-2.376
		c3.096,0.72,3.096,0.72,9.576,1.656c2.808,0.936,5.616,1.872,8.424,2.88c-0.144,0.144-0.288,0.288-0.504,0.504
		c-3.6,0.288-7.2,0.576-10.8,0.936c-10.224,0.144-20.448,0.288-30.672,0.504c-4.824,0.432-11.304,0.432-15.408,0.936
		C50.76,12.24,48.024,12.312,45.288,12.384L45.288,12.384z M43.344,10.584c-6.48-3.888-8.352-5.328-10.296-6.264
		c-0.792-0.576-1.656-1.1519-2.52-1.8c0-0.216-0.072-0.432-0.144-0.72c2.448,0,4.968-0.072,7.488-0.144
		c5.04,2.88,5.04,2.88,5.976,3.168c7.416,0,7.416,0,9.576,0.216c0.144,0.0721,0.288,0.216,0.504,0.36
		c-0.504,0.504-1.08,1.008-1.656,1.584c-2.52,1.152-5.112,2.376-7.704,3.6C44.208,10.584,43.776,10.584,43.344,10.584L43.344,10.584
		z M55.584,8.424c-0.72,0-1.44-0.072-2.16-0.144c0.072-0.288,0.144-0.576,0.216-0.936c1.008-0.72,2.088-1.512,3.168-2.304
		c4.032-0.144,8.136-0.288,12.24-0.504c6.48-0.936,6.48-0.936,15.336-2.88c1.872-0.072,3.816-0.144,5.76-0.216
		c0.432,0.576,0.864,1.152,1.296,1.8c0,0.216,0,0.432,0,0.72c-2.016,0.864-2.016,0.864-7.488,2.304
		c-4.032,0.432-8.136,0.936-12.24,1.44C60.624,8.424,60.624,8.424,55.584,8.424L55.584,8.424z"/>
</g>
</svg>
