<?xml version="1.0" encoding="utf-8"?>
<!-- Generator: Adobe Illustrator 21.1.0, SVG Export Plug-In . SVG Version: 6.00 Build 0)  -->
<svg version="1.1" id="Vi" xmlns="http://www.w3.org/2000/svg" xmlns:xlink="http://www.w3.org/1999/xlink" x="0px" y="0px"
	 viewBox="0 0 251.928 56.736" enable-background="new 0 0 251.928 56.736" xml:space="preserve">
<g>
	<path fill-rule="evenodd" clip-rule="evenodd" d="M0.144,56.736c0-0.216-0.072-0.504-0.144-0.792
		c1.152-0.36,4.032-0.36,6.192-0.864c4.752,0,4.752,0,10.08-0.504c1.44-0.432,1.44-0.432,1.656-0.792
		c-0.36-0.36-0.792-0.792-1.224-1.224c-5.04-0.144-6.696,0.144-7.632-0.144c-5.544,0-5.544,0-8.352-0.288c0-0.72,0-0.72,0.504-1.44
		c1.584-0.864,1.584-0.864,5.688-2.304c1.152-1.008,7.632-4.824,13.176-8.64c1.008-0.792,2.016-1.584,3.096-2.448
		c1.944,0,3.6,0.504,6.048,0.504c0.576-0.648,1.224-1.296,1.872-1.944c0.792-0.432,1.584-0.936,2.448-1.44
		c2.232-0.432,4.464-0.936,6.696-1.44c2.52-0.288,5.112-0.576,7.704-0.936c2.52,0,5.04,0,7.632,0
		c1.512-0.144,3.024-0.288,4.608-0.504c3.6-3.456,7.2-6.912,10.872-10.368c0.216-1.08,0.432-2.232,0.648-3.384
		c-0.936-0.216-1.872-0.432-2.88-0.648C61.776,16.848,54.72,16.56,47.664,16.2c-0.432-0.144-0.936-0.288-1.44-0.504
		c-2.664-2.016-5.4-4.104-8.136-6.192c-1.08-1.152-2.232-2.376-3.384-3.6c-0.288-0.648-0.576-1.296-0.864-2.016
		C33.696,2.592,33.48,1.296,33.264,0c0.576,0.072,1.152,0.216,1.728,0.36c3.024,1.872,6.048,3.816,9.072,5.76
		c3.888,1.944,3.888,1.944,5.544,2.376c1.512,0,3.024,0,4.536,0c3.096-0.792,6.192-1.584,9.36-2.376
		c3.888-0.216,17.568-2.16,53.568-5.976c0.7921,0,1.584,0.072,2.448,0.144c0,0.288,0,0.576,0,0.936
		c-0.864,0.936-1.728,1.872-2.592,2.88c-0.072,0.36-0.216,0.792-0.36,1.224c9.576,0.072,9.576,0.072,12.96-0.144
		c4.536,0.432,4.536,0.432,10.08,1.44c3.744,1.296,7.488,2.664,11.304,4.032c5.472,2.448,5.472,2.448,5.976,2.88
		c12.24,4.824,12.24,4.824,12.744,5.328c17.712-0.72,29.016-0.72,41.04-1.224c7.2,0,7.2,0,18.72-0.504
		c9.072-0.936,9.072-0.936,22.536-1.728c-0.288,0.72-0.576,1.44-0.864,2.16c-3.816,5.04-3.816,5.04-5.256,7.416
		c0,0.36-0.0721,0.792-0.144,1.224c0.792,0.072,1.584,0.144,2.448,0.288c1.152,0.864,1.152,0.864,1.656,1.8
		c-0.144,0.288-0.288,0.576-0.504,0.864c-2.376,0.936-6.912,1.944-9.072,2.88c-4.608,3.888-9.288,7.776-13.968,11.736
		c-1.872,2.088-1.872,2.088-2.736,3.528c0,0.216,0.072,0.504,0.144,0.792c3.096,1.008,3.096,1.008,9.072,2.448
		c8.64,0.432,8.64,0.432,13.248,0.216c1.152-0.216,2.376-0.504,3.6-0.792c-0.144,0.216-0.288,0.504-0.504,0.792
		c-1.656,0.504-1.656,0.504-5.544,0.936c-2.592-0.072-5.256-0.144-7.92-0.216c-2.16-0.288-4.32-0.576-6.48-0.936
		c-2.88-0.7921-5.76-1.584-8.64-2.448c-0.864-0.072-1.728-0.144-2.592-0.216c-6.48,1.944-6.48,1.944-12.744,3.384
		c-2.16,0.072-4.32,0.144-6.48,0.216c-2.664-0.504-2.664-0.504-8.64-0.936c-0.864,0.072-1.728,0.144-2.664,0.216
		c-2.304,0.648-4.608,1.296-6.912,1.944c-3.168,0.432-3.6,0.72-7.488,1.152c-3.456,0.144-6.984,0.288-10.512,0.504
		c-3.24-0.216-6.552-0.432-9.864-0.72c-10.296-1.944-10.296-1.944-14.616-2.376c-3.024,0-6.048,0-9.144,0
		c-6.696,0.936-6.696,0.936-13.896,1.44c-6.408,0.216-12.816,0.432-19.224,0.72c-0.144-0.216-0.288-0.432-0.504-0.72
		c-1.008-0.36-2.016-0.792-3.096-1.224c-0.936,0-1.872,0-2.88,0c-2.088,0.432-4.176,0.936-6.264,1.44
		c-4.032,0.144-8.136,0.288-12.24,0.504c-10.8-0.288-10.8-0.288-15.552-0.72c-1.368-0.216-2.736-0.432-4.104-0.72
		c-2.52,0.072-5.112,0.144-7.704,0.216c-7.2,1.944-7.2,1.944-11.232,2.664c-6.048,0-8.928,0.432-10.8,0.432
		c-0.648,0.144-1.296,0.288-1.944,0.504C15.984,55.8,5.184,56.736,0.144,56.736L0.144,56.736z M20.304,54.288
		c-0.144-0.72-0.504-1.008-0.432-1.872c3.312-1.44,3.312-1.44,4.032-2.16c2.304-0.072,4.608-0.144,6.984-0.216
		c9.864,0.504,15.84,0.504,15.624,0.72c-1.8,0.288-3.672,0.576-5.544,0.936c-1.944,0.648-3.96,1.296-5.976,1.944
		c-1.296,0.144-2.592,0.288-3.888,0.504C27.504,54.144,23.904,54.216,20.304,54.288L20.304,54.288z M66.384,52.416
		c-3.168-0.144-6.336-0.288-9.576-0.432c-2.88-0.504-5.76-1.008-8.64-1.584c1.512-0.144,3.024-0.36,4.536-0.576
		c50.4-1.944,64.8-2.16,78.48-2.88c10.08,0,15.624-0.288,16.128,0c28.08-1.008,28.08-1.008,53.28-2.448c7.488,0,14.976,0,22.536,0
		c0.216,0.36,0.216,0.36,0,0.72c-2.88,0.648-5.76,1.296-8.64,1.944c-12.24,1.44-12.24,1.44-20.664,1.944
		c-1.512-0.144-3.024-0.2881-4.536-0.504c-1.656,0.288-3.312,0.576-5.04,0.9359c-8.856,0.504-8.856,0.504-20.88,1.7281
		c-3.744-0.0721-7.488-0.144-11.304-0.288c-1.656,0.144-3.312,0.288-5.04,0.504c-2.9521-0.36-5.904-0.792-8.856-1.224
		c-2.52-0.072-5.112-0.144-7.704-0.216c-3.168,0.432-6.336,0.936-9.576,1.44c-7.848,0.144-15.696,0.288-23.544,0.504
		c-2.592-0.504-2.592-0.504-4.752-1.44c-0.864-0.0721-1.728-0.144-2.664-0.2881c-3.816,1.0081-3.816,1.0081-8.856,1.944
		C76.176,52.272,71.28,52.344,66.384,52.416L66.384,52.416z M10.944,51.48c-1.944,0-3.96,0-5.976-0.072
		C4.896,51.12,4.824,50.76,4.752,50.4c0.432-0.072,0.936-0.216,1.44-0.36c2.16,0.072,4.32,0.144,6.48,0.216
		c0.216,0.144,0.432,0.2881,0.72,0.504C12.384,51.264,12.384,51.264,10.944,51.48L10.944,51.48z M18.144,50.04
		c0-0.36-0.072-0.72-0.144-1.08c1.944-2.16,1.944-2.16,6.048-5.976c2.304-1.872,4.68-3.744,7.056-5.688c0.792,0,1.584,0,2.448-0.072
		c0,0.216-0.072,0.432-0.144,0.72C25.704,46.8,25.704,46.8,22.464,50.04C21.024,50.04,19.584,50.04,18.144,50.04L18.144,50.04z
		 M14.544,49.32c-0.216,0-0.432,0-0.72-0.0721c0.072-0.36,0.216-0.792,0.36-1.224c3.672-2.952,7.344-5.904,11.016-8.856
		c0.648,0,1.368,0,2.088-0.072C17.424,47.88,16.992,48.6,15.984,49.32C15.552,49.32,15.048,49.32,14.544,49.32L14.544,49.32z
		 M33.552,49.32c-2.448-0.144-4.968-0.2881-7.488-0.5041c0-0.2159-0.072-0.504-0.144-0.792c1.44-1.656,2.88-3.312,4.32-5.04
		c0.36-0.072,0.72-0.216,1.152-0.36c15.84-0.504,23.76-1.008,52.776-1.944c5.976-0.072,11.952-0.144,18-0.216
		c0.648-0.36,1.296-0.792,1.944-1.224c3.456-0.144,6.984-0.288,10.512-0.504c1.728,0.144,3.528,0.288,5.328,0.504
		c10.368-0.216,20.736-0.432,31.176-0.72c4.392-0.288,8.784-0.576,13.176-0.936c7.776-0.216,15.552-0.432,23.328-0.72
		c5.328-0.288,10.656-0.648,16.056-1.008c8.856-0.216,17.712-0.432,26.64-0.72c1.152,0.072,2.376,0.216,3.6,0.36
		c-0.144,0.288-0.288,0.576-0.504,0.864c-5.04,4.104-5.04,4.104-7.2,6.264c-12.672,0.432-12.672,0.432-21.096,0.432
		c-7.848,0.36-15.696,0.792-23.544,1.224c-4.392,0-8.784,0-13.176,0c-1.512,0.144-3.024,0.288-4.536,0.504
		c-8.424,0-10.08,0.216-22.608,0.432c-23.976,1.224-23.976,1.224-50.4,2.16c-2.736,0-5.544,0-8.3521,0
		C50.544,48.816,50.544,48.816,33.552,49.32L33.552,49.32z M10.008,48.744c0-0.288,0-0.576,0.072-0.936
		c2.952-2.016,5.904-4.032,8.928-6.048c0.144,0.144,0.288,0.288,0.432,0.504c-4.392,3.672-4.392,3.672-7.776,6.12
		C11.16,48.456,10.584,48.6,10.008,48.744L10.008,48.744z M32.544,41.544c0.072-0.432,0.216-0.936,0.36-1.44
		c1.08-1.152,2.16-2.376,3.24-3.6c1.296-0.216,2.592-0.432,3.888-0.648c21.312,0.504,21.312,0.504,26.64,0.864
		c-0.288,1.008-0.576,2.088-0.864,3.168c-1.8,0.288-5.4,0.288-20.52,1.296C41.04,41.256,36.792,41.4,32.544,41.544L32.544,41.544z
		 M106.704,38.016c-0.72-0.072-1.512-0.144-2.304-0.288c0-1.008,0-1.008,0.648-2.664c3.96-0.288,7.992-0.576,12.024-0.864
		c5.616,0,11.304,0,16.992-0.072c-0.072,0.792-0.216,1.584-0.36,2.376c0.216,0.288,0.432,0.576,0.72,0.936
		c-0.576,0.36-0.576,0.36-3.96,0.576C116.352,38.016,111.744,37.8,106.704,38.016L106.704,38.016z M137.952,37.728
		c0-0.216,0-0.432,0.0721-0.72c0.36-0.288,0.792-0.648,1.224-1.008c0.072-0.72,0.216-1.512,0.36-2.304
		c1.008-0.144,2.016-0.288,3.096-0.432c1.728,0.072,3.528,0.216,5.328,0.36c-0.432,1.224-0.432,1.224-0.432,2.16
		c0.432,0.576,0.432,0.576,2.304,1.296c-0.216,0.216-0.216,0.216-3.096,0.504C143.856,37.584,140.904,37.656,137.952,37.728
		L137.952,37.728z M152.784,36.864c-0.072-0.072-0.144-0.144-0.216-0.288c0.288-0.288,0.576-0.576,0.936-0.936
		c0-0.216,0.072-0.504,0.144-0.792c-0.36-0.216-0.792-0.432-1.224-0.72c0-0.216,0-0.432-0.072-0.72
		c4.32-0.288,8.64-0.576,12.9601-0.864c4.608,0,9.216,0.072,13.896,0.144c-0.36,1.152-0.36,1.152-0.36,3.096
		C176.832,36.144,176.832,36.144,152.784,36.864L152.784,36.864z M183.312,35.784c0.072-0.504,0.144-1.08,0.288-1.656
		c-0.36-0.504-0.36-0.504-0.288-1.368c3.888-0.288,7.776-0.576,11.736-0.936c3.96-0.0721,7.992-0.144,12.024-0.2881
		c0.072,0.0721,0.144,0.216,0.216,0.36c-0.504,0.72-0.504,0.72-0.648,1.944c0.072,0.144,0.144,0.288,0.288,0.504
		c-0.072,0.072-0.216,0.216-0.36,0.36C198.864,35.064,191.088,35.424,183.312,35.784L183.312,35.784z M55.872,35.136
		c-4.032-0.216-8.136-0.504-12.24-0.792c0.216-0.36,0.216-0.36,3.096-0.864c5.184-0.216,10.368-0.432,15.624-0.72
		c11.736,0.216,11.736,0.216,16.272,0c2.304-0.36,4.608-0.792,6.984-1.224c7.344-0.144,14.688-0.288,22.104-0.4319
		c0.864-0.144,1.728-0.2881,2.592-0.504c8.784-0.36,17.568-0.7921,26.424-1.224c23.04-0.216,26.136-0.432,50.1841-0.432
		c11.952-0.288,11.952-0.288,31.176-0.288c2.304,0.144,4.608,0.288,6.984,0.504c2.952-0.072,5.904-0.144,8.856-0.216
		c1.944,0.072,3.96,0.216,5.976,0.36c-0.144,0.144-0.288,0.36-0.432,0.576c-1.728,0.216-11.52,0-14.904,0.216
		c-1.944-0.072-3.96-0.144-5.976-0.216c-12.6,0.504-25.272,1.08-37.944,1.6559c-5.472,0-11.016,0-16.56,0
		c-2.376,0.144-4.752,0.2881-7.2,0.504c-5.112,0-10.224,0-15.336,0c-1.296,0.144-2.592,0.288-3.888,0.504
		c-18.936,0.432-18.936,0.432-34.056,1.152C101.448,33.984,101.448,33.984,55.872,35.136L55.872,35.136z M217.152,34.704
		c-1.728,0-3.528-0.072-5.328-0.144c0-0.216,0-0.432,0-0.72c0.288-0.072,0.576-0.144,0.864-0.216c0-0.288,0-0.576,0-0.936
		c-0.648-0.72-0.648-0.72-0.864-1.728c6.984-0.144,6.984-0.144,26.208,0.504c0,0.216-0.0721,0.432-0.144,0.72
		c-0.792,0.648-1.656,1.296-2.52,1.944C232.992,33.984,232.992,33.984,217.152,34.704L217.152,34.704z M63.288,31.248
		c0-0.216,0-0.432,0.072-0.72c3.888-4.104,3.888-4.104,8.064-7.848c0.216,0,0.432,0,0.72-0.072c-0.072,0.432-0.216,0.936-0.36,1.44
		c-0.792,1.152-1.584,2.376-2.376,3.5999c-0.72,0.432-0.72,0.432-1.728,1.872c-0.144,0.36-0.288,0.792-0.432,1.224
		C66.168,31.104,66.168,31.104,63.288,31.248L63.288,31.248z M104.832,29.88c-0.432,0-0.936,0-1.44-0.0721
		c0.072-0.36,0.144-0.792,0.288-1.224c1.944-2.376,1.944-2.376,4.104-4.3199c0.936-0.576,1.872-1.152,2.808-1.8
		c0.072-0.288,0.144-0.576,0.216-0.864c8.424-0.576,8.424-0.576,9.36-0.864c2.664,0,5.4,0.072,8.136,0.144
		c-0.0721,0.288-0.216,0.6479-0.36,1.008c-4.104,3.816-4.104,3.816-6.84,7.056C110.808,29.376,107.208,29.88,104.832,29.88
		L104.832,29.88z M125.712,28.944c-0.648-0.0721-1.368-0.216-2.088-0.36c0-0.288,0-0.576,0-0.936
		c4.104-4.1039,4.104-4.1039,6.984-6.4799c0.648-0.144,1.296-0.288,2.016-0.432c7.2,0,8.64,0.288,12.96,0
		c0.216,0,0.4319,0.072,0.72,0.144c-0.36,1.224-0.36,1.224-1.2961,2.448c-1.224,0.936-1.224,0.936-4.464,4.896
		C135.648,28.44,130.68,28.656,125.712,28.944L125.712,28.944z M144.144,28.224c-0.432,0-0.936-0.072-1.44-0.144
		c0.864-1.872,0.864-1.872,1.8-3.096c1.224-0.936,3.096-3.096,4.248-3.96c4.032-0.288,4.032-0.288,5.256,0
		c3.528,0,7.056,0.072,10.584,0.144c0,0.288-0.0721,0.576-0.144,0.936c-1.296,1.8-2.592,3.672-3.888,5.5439
		C159.768,27.936,150.192,27.936,144.144,28.224L144.144,28.224z M226.008,27.936c-1.296-0.072-2.592-0.144-3.96-0.288
		c0.072-0.432,0.144-0.936,0.216-1.44c0.504-0.504,0.504-0.504,2.088-0.864c1.512,0.072,3.024,0.144,4.536,0.216
		c1.224,0.504,6.984,1.44,7.2,1.656C235.872,27.504,235.872,27.504,226.008,27.936L226.008,27.936z M162.648,27.72
		c0-0.36-0.0721-0.72-0.144-1.08c1.944-3.096,1.944-3.096,3.816-5.472c1.728,0,3.456-0.072,5.184-0.144
		c4.32,0.288,8.64,0.576,12.96,0.864c-2.736,4.032-3.24,5.256-3.816,5.616C174.672,27.576,168.696,27.648,162.648,27.72
		L162.648,27.72z M184.968,27.72c-0.648-0.072-1.368-0.216-2.088-0.36c0-0.216,0-0.432,0-0.72c1.944-2.88,1.944-2.88,3.744-4.68
		c1.008-0.072,2.088-0.144,3.168-0.216c4.392,0.288,8.784,0.576,13.1761,0.936c0.072,0.072,0.144,0.216,0.216,0.36
		c-0.576,0.792-1.224,1.656-1.872,2.52c-0.72,0.648-1.44,1.296-2.16,1.944C194.472,27.576,189.72,27.648,184.968,27.72
		L184.968,27.72z M204.408,27.72c-0.936,0-1.872,0-2.88-0.072c0-0.216,0-0.432,0.072-0.72c1.152-1.296,2.304-2.592,3.528-3.888
		c0.648,0,1.296-0.072,1.944-0.144c5.472,1.008,5.472,1.008,14.112,2.088c-0.36,1.224-0.36,1.224-1.152,2.52
		C214.848,27.576,209.664,27.648,204.408,27.72L204.408,27.72z M240.408,26.064c0-0.288-0.072-0.576-0.144-0.864
		c0.648-0.72,1.368-1.512,2.088-2.304c1.008-0.072,2.016-0.144,3.096-0.216c0,0.288,0,0.576,0.072,0.864
		c-0.936,1.656-0.936,1.656-1.728,2.52C242.712,26.064,241.56,26.064,240.408,26.064L240.408,26.064z M233.928,25.56
		c-2.232-0.432-4.464-0.864-6.696-1.296c0-0.216,0-0.432,0-0.72c3.312-0.36,3.312-0.36,13.176-0.72
		c-0.36,0.936-0.36,0.936-1.368,1.944c-0.432,0.216-0.864,0.504-1.296,0.792C236.52,25.56,235.224,25.56,233.928,25.56
		L233.928,25.56z M212.544,22.68c-1.872-0.216-3.816-0.504-5.76-0.792c0.36-0.864,0.72-1.728,1.08-2.664
		c0.648-0.36,0.648-0.36,2.304-0.648c5.76-0.072,11.52-0.144,17.28-0.288c-0.072,0.288-0.216,0.576-0.36,0.936
		c-2.448,2.16-2.88,2.88-3.456,3.24C221.688,22.68,221.688,22.68,212.544,22.68L212.544,22.68z M226.008,22.32
		c0-0.2881,0-0.576,0.072-0.936c1.152-1.08,2.304-2.16,3.528-3.24c2.232-0.288,4.464-0.648,6.696-1.008
		c2.952-0.144,5.904-0.36,8.928-0.576c-0.144,0.432-0.288,0.936-0.432,1.44c-0.936,1.152-1.872,2.376-2.88,3.6
		C237.528,21.96,237.528,21.96,226.008,22.32L226.008,22.32z M201.024,21.456c-3.96-0.432-7.92-0.864-11.88-1.296
		c0-0.288,0-0.576-0.072-0.936c4.032,0.072,12.24-0.36,17.352-0.216c0,0.216,0,0.432,0,0.72c-0.576,0.576-1.152,1.152-1.8,1.728
		C203.472,21.456,202.248,21.456,201.024,21.456L201.024,21.456z M244.728,21.456c-0.288-0.072-0.288-0.072-0.144-1.296
		c0.72-1.08,1.512-2.232,2.304-3.384c0.72-0.36,0.72-0.36,3.384-0.576c0.072,0.072,0.144,0.216,0.216,0.36
		c-1.08,1.512-2.232,3.096-3.384,4.68C246.312,21.312,245.52,21.384,244.728,21.456L244.728,21.456z M84.888,20.52
		c-1.44-0.216-9.144-0.216-11.664-0.576c0-0.648,0.072-1.368,0.144-2.088c9.864-0.72,9.864-0.72,16.056-0.72
		c3.6,0.288,3.6,0.288,18.72,0.432c0,0.504,0.072,1.08,0.144,1.656c-0.36,0.36-0.72,0.792-1.08,1.224
		C99.792,20.304,99.792,20.304,84.888,20.52L84.888,20.52z M72.432,16.416c-5.76-0.432-5.76-0.432-6.48-0.792
		c0.936-0.36,0.936-0.36,5.472-0.648c0.576,0.072,1.152,0.144,1.728,0.288c3.384-0.144,6.84-0.288,10.296-0.504
		c3.024,0.072,6.048,0.144,9.144,0.216c6.696-0.432,11.016-0.432,12.96-0.72c1.944,0,3.96,0.072,5.976,0.144
		c-0.0721,0.288-0.216,0.648-0.36,1.008c-0.504,0.216-1.008,0.504-1.584,0.792c-3.096,0.072-6.192,0.144-9.36,0.216
		c-4.824-0.144-9.72-0.288-14.616-0.432C79.344,16.416,79.344,16.416,72.432,16.416L72.432,16.416z M61.848,15.624
		c2.88-0.144,2.88-0.144,2.664,0.072C63.648,15.696,62.784,15.696,61.848,15.624L61.848,15.624z M58.032,15.48
		c-0.144-0.072-0.288-0.216-0.504-0.36c1.008,0,2.016-0.072,3.096-0.144c0.216,0.072,0.432,0.216,0.72,0.36
		C60.264,15.336,59.184,15.408,58.032,15.48L58.032,15.48z M47.448,14.256c-0.72-0.144-1.44-0.288-2.16-0.432
		c-7.2-5.76-7.2-5.76-9.36-7.92c-0.144-0.288-0.288-0.576-0.504-0.864c0.216,0,0.432-0.072,0.72-0.144
		c4.824,3.384,8.208,5.328,9.144,6.264c0.504,0.288,1.08,0.576,1.656,0.936c0.936,0.144,1.872,0.288,2.88,0.432
		c-0.072,0.288-0.216,0.576-0.36,0.936c-0.36,0.216-0.72,0.504-1.08,0.792C48.096,14.256,47.808,14.256,47.448,14.256L47.448,14.256
		z M79.128,13.824c-5.256-0.432-10.512-0.936-15.84-1.44c-3.6,0.288-7.2,0.576-10.8,0.864c0.072-0.288,0.144-0.576,0.216-0.864
		c0.792-0.144,1.584-0.288,2.448-0.504c5.04,0,5.04,0,21.816-0.936c4.6079,0.072,9.216,0.144,13.896,0.216
		c7.4879-0.504,7.4879-0.504,23.76-0.936c0.864,0.072,1.728,0.216,2.664,0.36c-0.72,0.648-1.44,1.2961-2.16,2.0161
		c-1.44,0.144-2.88,0.288-4.32,0.504c-7.416,0-9.144-0.2881-16.344-0.2881C93.528,13.104,93.528,13.104,79.128,13.824L79.128,13.824
		z M47.664,10.944c-4.248-2.736-8.496-5.472-12.744-8.28c-0.072-0.216-0.144-0.432-0.216-0.72c0.288,0,0.648,0,1.008,0.072
		c1.152,1.008,1.152,1.008,8.856,5.76c1.44,0.576,2.88,1.152,4.32,1.728c2.664,0.432,2.664,0.432,2.88,0.792
		c-0.072,0.072-0.144,0.216-0.216,0.36C50.256,10.728,48.96,10.8,47.664,10.944L47.664,10.944z M91.368,10.224
		c-5.544-0.288-5.544-0.288-13.176-0.288c-0.216-0.072-0.432-0.216-0.72-0.36c0.936-0.36,0.936-0.36,34.056-2.52
		c1.584,0.072,3.168,0.144,4.8239,0.288c1.224-0.144,2.5201-0.288,3.816-0.504c4.68,0.072,9.432,0.144,14.184,0.216
		c2.16,0.504,2.16,0.504,2.592,0.864c-0.216,0.36-0.216,0.36-2.592,0.864c-2.088,0.144-4.176,0.288-6.2639,0.432
		c-14.184,0-19.224,0.288-22.104,0C101.16,9.504,96.264,9.864,91.368,10.224L91.368,10.224z"/>
</g>
</svg>
