<svg xmlns="http://www.w3.org/2000/svg" viewBox="0 0 324 147"><defs><style>.cls-1{fill:#fff;stroke:red;}.cls-1,.cls-2,.cls-25,.cls-3{stroke-miterlimit:10;}.cls-1,.cls-2,.cls-3{stroke-width:2px;}.cls-2{fill:#d2d7f1;}.cls-2,.cls-3,.cls-40{stroke:#000;}.cls-25,.cls-3,.cls-40{fill:none;}.cls-27,.cls-4{font-size:18px;}.cls-4{font-family:MyriadPro-Regular, Myriad Pro;}.cls-5{letter-spacing:-0.03em;}.cls-6{letter-spacing:0em;}.cls-7{letter-spacing:-0.01em;}.cls-8{letter-spacing:0em;}.cls-9{letter-spacing:-0.01em;}.cls-10{letter-spacing:-0.04em;}.cls-11{font-size:11px;font-family:MyriadPro-It, Myriad Pro;}.cls-11,.cls-26{fill:#db2027;}.cls-11,.cls-27,.cls-29{font-style:italic;}.cls-12{letter-spacing:0.01em;}.cls-13{letter-spacing:0.03em;}.cls-14{letter-spacing:0em;}.cls-15{letter-spacing:-0.07em;}.cls-16{letter-spacing:-0.02em;}.cls-17{letter-spacing:0.01em;}.cls-18{letter-spacing:0em;}.cls-19{letter-spacing:0em;}.cls-20{letter-spacing:-0.03em;}.cls-21{letter-spacing:0em;}.cls-22{letter-spacing:0em;}.cls-23{letter-spacing:0.01em;}.cls-24{letter-spacing:-0.03em;}.cls-25{stroke:#db2027;}.cls-27{font-family:MyriadPro-BlackIt, Myriad Pro;}.cls-28{letter-spacing:0.02em;}.cls-29{font-size:23px;font-family:BrushScriptMT, Brush Script MT;}.cls-30{letter-spacing:0.01em;}.cls-31{letter-spacing:-0.03em;}.cls-32{font-size:16px;font-family:MyriadPro-Semibold, Myriad Pro;font-weight:700;}.cls-33{letter-spacing:0.01em;}.cls-34{letter-spacing:0em;}.cls-35{letter-spacing:-0.01em;}.cls-36{letter-spacing:-0.01em;}.cls-37{letter-spacing:0em;}.cls-38{letter-spacing:-0.01em;}.cls-39{fill-rule:evenodd;}.cls-40{stroke-miterlimit:2.61;stroke-width:0.04px;}</style></defs><title>clipart-sketch-boat</title><g id="Layer_2" data-name="Layer 2"><g id="Layer_1-2" data-name="Layer 1"><rect class="cls-1" x="1" y="1" width="322" height="145"/><rect class="cls-2" x="1" y="1" width="161" height="25"/><rect class="cls-2" x="162" y="1" width="161" height="25"/><rect class="cls-3" x="1" y="26" width="161" height="120"/><rect class="cls-3" x="162" y="26" width="161" height="120"/><text class="cls-4" transform="translate(16.9 47.25)"><tspan class="cls-5">W</tspan><tspan class="cls-6" x="14.63" y="0">el</tspan><tspan class="cls-7" x="27.9" y="0">c</tspan><tspan x="35.86" y="0">ome </tspan><tspan class="cls-8" x="73.58" y="0">A</tspan><tspan x="84.55" y="0">boa</tspan><tspan class="cls-9" x="113.35" y="0">r</tspan><tspan x="119.05" y="0">d</tspan></text><text class="cls-4" transform="translate(33.41 137.5)">ISLAND<tspan class="cls-10" x="56.52" y="0"> </tspan><tspan x="59.6" y="0">TIME</tspan></text><text class="cls-11" transform="translate(23.55 86)">Use Clip <tspan class="cls-12" x="36.84" y="0">A</tspan><tspan class="cls-13" x="43.16" y="0">r</tspan><tspan x="46.95" y="0">t</tspan><tspan class="cls-14" x="0.96" y="13.2">M</tspan><tspan class="cls-15" x="9.5" y="13.2">Y</tspan><tspan class="cls-16" x="14.38" y="13.2">A</tspan><tspan x="20.39" y="13.2">CHT35</tspan></text><text class="cls-11" transform="translate(86.74 67.75)">Use Brush <tspan class="cls-17" x="44.89" y="0">S</tspan><tspan class="cls-18" x="50.13" y="0">cript</tspan><tspan class="cls-19" x="27.74" y="13.2">B</tspan><tspan class="cls-18" x="33.48" y="13.2">old </tspan><tspan class="cls-20" x="49.52" y="13.2">T</tspan><tspan x="54.37" y="13.2">y</tspan><tspan class="cls-21" x="59.22" y="13.2">p</tspan><tspan class="cls-22" x="65.03" y="13.2">e</tspan></text><text class="cls-11" transform="translate(82.15 99.25)">Use <tspan class="cls-12" x="17.92" y="0">M</tspan><tspan x="26.58" y="0">yriad Black</tspan><tspan class="cls-23" x="30.6" y="13.2">I</tspan><tspan x="33.23" y="13.2">talic </tspan><tspan class="cls-24" x="54.11" y="13.2">T</tspan><tspan class="cls-22" x="58.96" y="13.2">y</tspan><tspan class="cls-21" x="63.81" y="13.2">p</tspan><tspan x="69.62" y="13.2">e</tspan></text><line class="cls-25" x1="83.5" y1="65" x2="57.68" y2="53.23"/><polygon class="cls-26" points="61.77 51.02 58.8 53.74 58.7 57.76 52.25 50.75 61.77 51.02"/><line class="cls-25" x1="109.35" y1="104.79" x2="94.86" y2="116.71"/><polygon class="cls-26" points="94.67 112.06 95.81 115.92 99.38 117.78 90.25 120.5 94.67 112.06"/><text class="cls-27" transform="translate(190.37 124.45)">IS<tspan class="cls-28" x="14.78" y="0">L</tspan><tspan x="24.21" y="0">AND TIME</tspan></text><text class="cls-29" transform="translate(181.05 54.25)"><tspan class="cls-30">W</tspan><tspan x="16.34" y="0">elcome</tspan><tspan class="cls-31" x="61.64" y="0"> </tspan><tspan x="67.51" y="0">Aboard</tspan></text><text class="cls-32" transform="translate(30.73 19)"><tspan class="cls-33">S</tspan><tspan x="8.4" y="0">ample </tspan><tspan class="cls-34" x="55.13" y="0">S</tspan><tspan class="cls-35" x="63.39" y="0">k</tspan><tspan x="71.42" y="0">e</tspan><tspan class="cls-36" x="79.68" y="0">t</tspan><tspan x="85.2" y="0">ch</tspan></text><text class="cls-32" transform="translate(212.96 19)"><tspan class="cls-37">C</tspan><tspan class="cls-38" x="9.36" y="0">r</tspan><tspan x="14.91" y="0">e</tspan><tspan class="cls-36" x="23.17" y="0">a</tspan><tspan x="31.2" y="0">tion</tspan></text><path class="cls-39" d="M242.52,67.39c-3.16.65-6.21,1.26-9.53,1.92-1.81-1.39-5.36,5.15-5.9,6.05-6.74.77-21.46,2.19-21.47,2.93,0,1.58.06,3.79,0,5.53-.12-.19-1.28-.15-1.29.24-.24,0-.86.31-.86.54a1.66,1.66,0,0,0-1.19,1c-.5,1.27-.35,4.87-.27,6.34,0,.64.09,2.05,1,2.05,0,.17,0,.23.08.43l.3,0c0,.11,0,.45,0,.56h-.09v0h-1.46v0h0v0h-.12v0h-1.07v0h-.45v0H200v.12h0v0h.25v0h1v0h1.87v0h.14c0,.12,0,.26,0,.32-.47.08-1.51.9-1.52,1.46a7.73,7.73,0,0,0,.57,3.13c.19.45,1.11.78,1.54.78,2.12,0,3.58,0,5.65-.07,0,.33.66.75.83.71h1v0h.27v0h.17v0h1v0h.38v0h.47v0H214v0h.27v0h.12v0h.12v0h.18v0h.4v0h.09v0s0,0,0,0h.18v0h.21v0h.24v0H216v0h.19v0h.14v0h.24v0h.18v0H217v0h.44v0h.39a.17.17,0,0,0,0,.07h-.07v0h-.08v0h-.09v0h-.12v0h-.2v0H217v0h-.18v0h-.15v0h-.2v0h-.15v0h-.09v0h-.2v0h-.15v0h-.34v0h-.18v0h-.3v0h-.21v0h-.15v0h-.18v0h-.14v0h-.14v0H214v0h-.17v0h-.15v0h-.14v0h-.09v0h-.12v0h-.18v0H213v0h-.38v0h-.36v0h-.47v0h-.57v0H211v0h-.23v0h-.53v0H210v0h-.18v0h-.2v0h-.55v0h-.52v0h-.3v0h-.12v0H208v0h-.08v0h-.18v0h-.2v0h-.19v0h-.24v0H207v0h-.26v0h-.18v0h-.18v0a0,0,0,0,1,0,0h-.11v0h-.18v0h-.21v0h-.09v0h-.08v0h-.21v0h-.34v0h-.21v0h-.14v0h0v0h0v0h-.26v0h-.15v0h-.11v0H204v0h-.14v0h-.14v0h-.07v0h-.08v0h-.32v0h-.21v0h-.2v0h-.18v0h-.09v0H202v0h-.21v0h-.23v0h-.13v0h-.08v0h-.18v.07h.56v0h.12v0h.24v0h.18v0h.15v0h.24v0H203v0h.24v0h.23v0h.09v0h.15v0h.2v0H204v0h.12v0h.09v0h.24v0h.24v0h.18v0h.21v0h.12v0h.06v0h.26v0h.27v0H206v0h.12v0h.14v0h.14v0h.3v0h.06v0a0,0,0,0,1,0,0H207v0h.37v0h.26v0h.15v0h.14v0h.2v0h.3v0h.15v0h.2v0h.21v0h.24v0h.47v0H210v0a0,0,0,0,0,0,0h.24v0h.17v0h.13v0s0,0,0,0h.06v0h.26v0a.09.09,0,0,0,0,0H211v0h.19v0h.23v0h.24v0h.37v0h.24v0h.32v0h.2v0h.07v0h.3v0h.28v0h.15v0h.15v0h.32v0h.12v0h.14v0h.18v0h.15v0h.09v0H215v0h.18v0h.18v0h.23v0H216v0h.14v0h.18v0h.15v0h.18v0h.17v0H217v0h.3v0h.13v0h.17v0h.12v0h.12v0H218v0H218v0h.07v0h.17v0h.13v0H219v0h.06v0s0,0,0,0h.31v0h.2v0h.06v0H220v0h.28v0h.42v0h.07v0h.06v0h0a.18.18,0,0,1,0-.08H221v0h.12v0h.18v0h.11v0h.07v0h.17v0H222v0h.24v0h.18v0h.17v0h.13v0h.2v0h.15v0h.06v0H224v0h.31v0h.23v0h.13v0h.28v0H225v0h.09v0h.12a.17.17,0,0,1,0-.08h.09v0h-.08v0h.11v0h0v-.08h.09v0h0v0h.09v0h.2v0h.21v0h.27v0h.23v0h.3v0h.36v0h.49v0h.17v0a0,0,0,0,1,0,0H228v0h.15v0h.74v0h0v0h-.12v0h-.08v0h-.09v0h-.24v0h-.14v0s0,0,0,0h0v0H228v0h-.18v0h-.18v0h-.07v0h-.14v0h0v0h.37v0h.18v0h.38v0h.3v0h.2v0H229v0h.13v0h.23v0h.24v0h.12v0h.21v0h.2v0h.12v0h.12v0h.09v0h.14v0h.19v0h.28v0h.45v0h.39v0h.26v0h.3v0h.65v0h.38v0h.18v0h.15v0H234v0h.19v0s0,0,0,0h0v0h.17v0h.09v0h.08v0h.07v0h.12v0h.11v0H235v0h.11v0h.12v0h.09v0h.09v0h.2v0h.21v0h.2v0h.15v0h.53v0h.5v0h.15v0h.17v0h.07a.17.17,0,0,1,0-.08h0v0h.11v0h.07v0h0v0H238v0h.18v0h.09v0h.27v0h.12v0h.79v0h.15v0h.5v0h.36v0h.24v0h.09v0h.12v0h.28v0h.07a.82.82,0,0,0,0,.12h-.11v0h0l0,.12h0v0h.06v0h.06v0h.15v0h.26v0h.38v0h.13v0h0v0h0v0h0v0H242a.17.17,0,0,1,0-.07H242v0h.47v-1c-9.82,1.41-30.38,4.31-31.69,4.3-.55-1.59-2-5.76-2.74-7.79,3,0,18-1.69,34.41-4.3V87.28c-11.86,1.9-24.21,3.57-34.74,4.66a8.49,8.49,0,0,1-3-2.94,2,2,0,0,1-.18-1.15c.06-.64.06-3,.7-3,.2.76,2.5,3.06,3.13,3,10.59-1.26,17.87-2.21,29-3.63,0,0,.15-.42.18-.55h.49a7.16,7.16,0,0,0,1.07.63c1.07-.12,2.16-.24,3.29-.39V78l-2,.2c-.33.55-.83,1.44-1.51,2.51-.39,0-1,.07-1.54.07,0-.26-.09-.67-.09-.94s-1-.36-.95.07c.05,1.35.16,2.62.25,4-4.59.55-10.36,1.24-15.79,2-.22-1.59-.47-3.46-.78-5.37,6.59-1.07,14.22-2.17,22.4-3.29V77c-3.57.48-7.16.95-10.74,1.41,0-.15.78-2.24,1-2.79a4.13,4.13,0,0,1,3.5-2.44v0l6.26-1.35V70.41l-5.85,1.45c-.39.22-.47.83-.53,1a4.55,4.55,0,0,0-3.24,1.8,10.77,10.77,0,0,0-1.65.28c-.13-1-.23-1.85-.32-2.57.15-.24.36-.5.36-.51.75-.14,2-.4,2.87-.59,0-.08.19,1.09.21,1.38s.53.12.47,0c0-.55-.13-1-.13-1.4l.77-.19c0,.24.08.47.11.71a.24.24,0,0,0,.43-.11c0-.23-.08-.56-.12-.75a1.57,1.57,0,0,1,.4-.08c.24-.42,0-1.19-.55-1.19,0,0-3.08.65-3.36.69a4.38,4.38,0,0,0,.37-.61c3.34-.74,6.57-1.44,9.75-2.11v-.19Zm0,8.31c-3.71.52-6.58.94-6.58,1-.37,0-.1.46,0,.42l6.58-.86V75.7Zm0,22.59h-.2v0h-.18v0H242v0h-.12v0h-.08v0h-.15v0h-.08v0h-.15v0h-.17v0h-.13v0H241v0h-.11v0h-.09v0h-.09v0h-.14v0h-.15v0h-.17v0h-.18v0h-.27v0h-.26v0h-.19v0h-.17v0H239v0h-.27v0h-.36v0h-.18v0h-.24v0h-.23v0h-.18v0h-.18v0h-.24v0h-.24v0h-.19v0h-.24v0h-.26v0H236v0s0,0,0,0h-.11v0h-.25v0h-.26v0h-.26v0H235v0h-.5v0h-.36v0H234v0h-.09v0h-.14v0h-.13v0h-.14v0h-.14v0h-.18v0h-.18v0h-.09v0h-.14v0h-.12v0h-.09v0h-.14v0h-.12v0h-.12v0h-.18v0h-.07v0h-.08v0h-.12v0h-.12v0h-.09v0h-.12v0h-.14v0H231v0h-.15v0h-.18v0h-.15v0h-.2v0h-.14v0H230v0h-.18v0h-.18v0h-.2v0h-.2v0h-.18v0h-.24v0h-.31v0h-.17v0h-.13v0h-.12v0h-.2v0h-.32v0h-.19v0h-.24v0H227v0h-.18v0h-.25v0h-.2v0h-.39v0h-.26v0h-.15v0h-.06v0h-.11v0h-.06v0h-.09v0h-.14v0h-.12v0h-.15v0h-.15v0h-.12v0h-.14v0h-.18v0H224v0h-.18v0h-.18v0h-.2v0h-.27v0H223v0h-.18v0h-.17v0h-.33v0h-.26v0h-.21v0h-.27v0h-.26v0H221v0h-.24v0h-.32v0h-.31v0H220v0h-.18v0h-.23v0h-.24v0H219v0h-.32v0h-.31v0h-.26v0h-.21v0h-.26v0h-.5v0h-.07v0H217v0h-.15v0h-.15v0h-.3v0h-.24v0h-.38v0h-.36v0h-.33v0h-.28v0h-.09v0h-.06v0h-.06v0h-.06v0h0v0h0v0h-.06v0h-.06v0h0v0h-.06v.08h.12v0h0v0h.06v0h.06v0h.11v0h.07v0h.08v0h1v0h.42v0h.24v0h.2v0h.18v0h.26v0h.43v0h.2v0h.2v0h.27v0h.33v0H219v0h.39v0h.2v0h.12v0h.15v0h.2v0h.2v0h.3v0h.39v0h.32v0h.19v0h.23v0h.21v0H222v0h.21v0h.32v0h0v0h0v0h.23v0H223v0h.24v0h.21v0h.26v0h.15v0h.2v0h.2v0h.18v0h.18v0h.12v0h.12v0H225v0h.15v0h.11v0h.09v0h.09v0h.06v0h.06v0h.08v0h.21v0h.2v0h.2v0h.25v0h.38v0h.32v0h.18v0h.42v0H228v0h.18v0h.15v0h.11v0h.15v0h.12v0H229v0h.28v0h.18v0h.15v0h.24v0h.2v0h.18v0h.21v0h.2v0h.13v0h.18v0h.2v0h.12v0h.09v0h.12v0h.08v0h.08v0h.18v0h.07v0H232v0h.12v0h.11v0h.15v0h.14v0h.09v0h.08v0h.15v0H233v0h.17v0h.24v0h.19v0h.18v0h.12v0H234v0h.11v0h.07v0h.08v0h.15v0h.24v0h.2v0h.38v0h.37v0h.23v0h.36v0h.24v0a0,0,0,0,0,0,0h.06v0h.17v0h.49v0h0v0h0v0h.32v0h.18v0h.12v0H238v0h.21v0h.24v0h.3v0H239v0h.26v0h.15v0h.3v0H240v0h.24v0h.09v0h.2v0h.2v0h.12v0h.07v0H241v0h.07v0h.12v0h.12v0h.11v0h.12v0h.18v0h.12v0H242v0h.14v0h.13v0h.23v0h0v-.24Zm0,1.07h-.06v0h-.18v0h-.14v0H242v0h-.18v0h-.23v0h-.21v0h-.2v0h-.27v0h-.26v0h-.19v0h-.12v0h-.14v0H240v0h-.14v0h-.15v0h-.26v0h-.24v0H239v0h-.21v0h-.26v0h-.26v0H238v0h-.25v0h-.17v0h-.19v0h-.11v0h-.13v0H237v0h-.15v0h-.17v0h-.25v0h-.23v0H236v0h-.17v0h-.15v0h-.15v0h-.18v0h-.18v0H235v0h-.18v0h-.12v0h-.12v0h-.12v0h-.09v0h-.12v0h-.15v0H234v0h-.24v0h-.21v0h-.2v0H233v0h-.21v0h-.3v0h-.18v0H232v0h-.21v0h-.36v0h-.26v0h-.24v0h-.33v0h-.21v0h-.17v0h-.15v0h-.14v0h-.19v0h-.17v0h-.13v0h-.14v0h-.14v0H229v0h-.12v0h-.14v0h-.14v0h-.15v0h-.14v0h-.25v0h-.36v0h-.18v0h-.12v0h-.08v0h-.06v0h0v0h0v0h0v0h-.06a.35.35,0,0,0,0,.12h.14v0h.08a.18.18,0,0,1,0-.08h0v0h.07v0h.14v0h.2v0h.37v0h.18v0h.14v0h.24v0h.12v0H229v0h.09v0h.12v0h.2v0h.13v0h.18v0h.17v0H230v0h.14v0h.12v0h.15v0h.2v0h.21v0h.06v0h0v0h.2v0h.33v0h.28v0H232v0s0,0,0,0h0v0h.2v0h.36v0h.21v0h.24v0h.24v0h.28v0h.19v0h.2v0h.14v0h.15v0h.09v0h.12v0h.11v0h.12v0h.13v0H235v0h.13v0h.23v0h.13v0h.17v0h.18v0H236v0h.13v0h.2v0h.27v0h.2v0h.09v0h.17v0h.18v0h.18v0h.15v0h.21v0h.2v0h.27v0h.18v0h.28v0H239v0h.3v0h.09v0h.2v0h.18v0H240v0h.2v0h.13v0h.17v0h.13v0h.06v0h.06v0h.12v0h.28v0h.15v0h.26v0h.15v0h.12v0h0v0s0,0,0,0h.3v0h.08v0h.19v0h.08v-.24Zm-35.3,4.83a.17.17,0,0,1,0-.08l.19,0v0h.06v0c.09,0,.13-.08.23-.08v0a.68.68,0,0,1,.17,0c0-.07.07,0,.14,0v0l.37,0c0-.07.13,0,.21,0v0l.34,0c0-.07.17,0,.26,0v0l.55,0c0-.07.19,0,.28,0v0l.66,0c0-.07.28,0,.39,0v0l.88,0c0-.07.14,0,.25,0v0l.5,0c0-.07.19,0,.27,0v0l.7,0c0-.07.21,0,.32,0v0l.55,0c0-.07.13,0,.21,0v0l.38,0c0-.07.09,0,.19,0v0l.43,0c0-.07.09,0,.19,0v0l.34,0c0-.07.09,0,.19,0v0l.25,0v0h.12v0l.25,0c0-.07.06,0,.15,0v0l.44,0c0-.07.19,0,.31,0v0l.72,0c0-.07.26,0,.4,0v0l.49,0c0-.07.11,0,.2,0v0l.3,0v0h.18v0l.31,0c0-.07.12,0,.23,0v0l.45,0c0-.07.11,0,.2,0v0l.55,0c0-.07.24,0,.33,0v0l.66,0v0h.3v0l.51,0c0-.07.19,0,.31,0v0l.5,0c0-.07.12,0,.23,0v0l.45,0c0-.07.11,0,.2,0v0l.69,0c0-.07.14,0,.25,0v0l.52,0c0-.07.17,0,.26,0v0l.39,0c0-.07.12,0,.23,0v0l.33,0v0h.17v0l.25,0v0h.12v0l.27,0c0-.06.08,0,.17,0v0l.33,0v0h.26v0l.58,0c0-.07.13,0,.21,0v0l.43,0v0h.11v0l.19,0v0h.11v0l.2,0c0-.06.09,0,.13,0v0l.34,0c0-.06.08,0,.17,0v0l.33,0c0-.06.08,0,.17,0v0l.27,0v0h.12v0l.25,0c0-.07.06,0,.15,0v0l.23,0c0-.06.09,0,.13,0v0l1,0c0-.07.19,0,.28,0v0l.47,0v0h.3v0l1.19,0v0h.23v0l.37,0v0h.12v0l.27,0c0-.07.07,0,.14,0v0l.25,0c0-.06.09,0,.13,0v0l.21,0v0H239v0l.21,0v0h.12v0l.43,0c0-.07,0,0,.07,0a0,0,0,0,0,0,0c0-.07.07,0,.14,0v0h.14s0,0,.06,0a.7.7,0,0,0,0,.17l-.43.07v0a1.71,1.71,0,0,0-.46.07v0l-.37.07v0l-.3.07v0l-.38.07v0l-.44.07v0l-.63.07v0l-1.39.07v0l-.77.07v0l-1.1.07v0l-.38.07v0l-.45.07v0l-.51.07v0l-.52.07v0l-.37.07v0l-.28.07v0l-.27.07v0l-.77.07v0l-.81.07v0l-.47.07v0l-.47.07v0l-.4.07v0l-.59.07v0l-.69.07v0h-.2s0,0,0,0l-.68.06v0l-.77.07v0l-.65.07v0l-.71.07v0l-.89.07v0l-.84.07v0l-.68.07v0l-.59.07v0l-.68.07v0l-.61.07v0l-.88.07v0c-.37,0-.7.06-.95.07v0l-.47.07v0l-.39.07v0l-.65.07v0l-.5.07v0l-.65.07v0l-.63.07v0l-.59.07v0l-.85.07v0l-1,.07v0l-.94.07v0l-1.1.07v0l-.81.07v0l-.68.07v0L208,104v0l-.47.07v0ZM202,102.91v0h-.18v0h-.33v0h-.11v0h-.12v0h-.13v0H201v0h0v0h0v0h-.52v0h0v0h-.12v0h-.36v0h-.69v0h-.11v0H199l0-.12h.17v0h.18v0h.75v0h.65v0h.08v0h0v0h.57v0h.11v0h.24v0H202v0h.78v0H203v0h.21v0h.2v0h.18v0h.18v0h.13v0H204v0h.14v0h.12v0h.14v0h.21v0h.21v0h.44v0h.2v0h.27v0h.18v0h.3v0h.24v0h.18v0h.26v0h.18v0h.31v0h.18v0h.14v0h.09v0H208v0h.18v0h.19v0h.18v0h.06v0H209a.4.4,0,0,1,0,.24h-.12v0h-.26v0h-.27v0h-.15v0H208v0h-.19v0h-.24v0h-.12v0h-.14v0h-.26v0h-.36v0h-.18v0h-.24v0h-.15v0h-.27v0h-.32v0h-.15v0h-.18a.06.06,0,0,0,0,0v0h-.08v0h-.42v0h-.25v0h-.14v0h-.09v0h-.12v0H204v0h-.12v0h-.2v0h-.24v0h-.13v0H203v0h-.3v0h-.51v0Zm-2-.83V102h.06v0h.06v0h0v0h0v0h.06a.3.3,0,0,1,0-.08h-.12v0H200v0h-.12a.52.52,0,0,1,0-.12h.06a.06.06,0,0,1,0,0v0h.25v0h.12v0h.11v0h.13v0h.17v0h.06l0-.2h.09v0h.06v0h0v0H201v0h.23v0h.24v0h.37v0H202v0h.14v0h.31v0h.24a.17.17,0,0,1,0-.08h0v0h0v0h.07v0h.06v0h.59v0h0v0h.69v0h0a.37.37,0,0,0,0,.12h-.42v0h-.64v0H203v0H203a1,1,0,0,0-.06.2h-.06v0h-.12v0h-.47v0h0v0H202v0h-.18v0h-.25v0h-.46v0H201v.08H201v0h.36v0h.24v0h.09v0h.08v0h0a.17.17,0,0,0,0,.08h0v0h-.21v0h-.24v0h-.06v0h-.14v0h-.56v0h-.13v0h-.12v0h-.08v0h-.06v0Zm-.57-.12v0h-.06v0h0a.17.17,0,0,1,0-.07h0v0h0v0h-.18v.08h-.18v0h-.06v0h0v0h-.36v0h-.12v0h0a1.1,1.1,0,0,1,0-.15h0v0h.06v0h.07v0h.11v0h.13v0h.18v0h0v0h0a.17.17,0,0,0,0,.07h.13v0h.18v0h.18s0,0,0,0v0h0a1.09,1.09,0,0,1,0-.2.56.56,0,0,1-.07-.36h-.18v0h-.12v0h-.07v0h0a.44.44,0,0,1,0-.12h.06v0h.59v0h.13l0,.15a.35.35,0,0,0,0,.12h0a1.09,1.09,0,0,0,0,.36l-.07.36h-.09l0,.2Zm4.43-1.34c-1.69.29-2-2.76-1.72-3.73a1.66,1.66,0,0,1,1.12-1,7,7,0,0,0,.59,4.24.32.32,0,0,0,.36,0,7,7,0,0,1-.62-4.39c.13,0,.18-.07.32-.12a6.12,6.12,0,0,0,.59,4.43c.1.13.37.16.45,0a6.24,6.24,0,0,1-.72-4.53c.58-.13,1.47-.32,2.17-.42,0,.17.26,1,.29,1.18-.16,1.09.76,2.55,1.37,3.42.06,0,.06.14.27.06-.18-.62-1-1.36-1.24-2.39a11.93,11.93,0,0,0,2.53,3.08c-2.06,0-3.83.08-5.75.08Zm15.8,0v0h.14v0Zm-9.25,0a7.8,7.8,0,0,1-3.06-3.27c-.51-1.6-1.26-4.3-1.59-5.78a13.35,13.35,0,0,0,1.95,1.31c.52,1.56,2.72,7.75,2.71,7.75Zm9.53,0v0h.18v0h.12v0h.18v0h.23v0h.42a.17.17,0,0,0,0,.07H221v0h0v0h-.06v0h-.08v0h-.08v0h0v0h-.18v0Zm-19.47-.31v0h-.12v0h-.12v0H200v0h-.3v0h-.11a.23.23,0,0,1,0-.08h0v0h-.06v0H199v0h-.38v0h0v-.08h.06v0h.09v0h.38v0h.33v0h.11v0h.12a1.32,1.32,0,0,0,.06.15h.12v0h.43v0h.14v0h.12v0h.26v0h.09v0H201v0h.13v0h.23v0h.09v0h.06v0h.08v0h.06v0h.07v.12h-.24v0h-.07v0h-.14v0h0v0h-.2v0h-.15v0h-.12v0h-.06v0Zm6.85-.24a6.26,6.26,0,0,1-1.22-4.51c.07-.08.26-.11.26,0a7.05,7.05,0,0,0,1.2,4.31c0,.19-.06.23-.24.2Zm-.58.08a6.26,6.26,0,0,1-1.22-4.51c.07-.08.26-.11.26,0A7.05,7.05,0,0,0,207,99.9c0,.19-.06.23-.24.2Zm-.58.08a6.26,6.26,0,0,1-1.22-4.51c.07-.08.26-.11.26,0a7.05,7.05,0,0,0,1.2,4.31c0,.19-.06.23-.24.2Zm-.7,0a6.13,6.13,0,0,1-1-4.46c.07-.07.26-.1.26,0a6.91,6.91,0,0,0,1,4.26c0,.18-.07.23-.24.19Zm-2,.15a5.71,5.71,0,0,1-.71-4c.06-.06.22-.08.21,0a6.45,6.45,0,0,0,.7,3.78c0,.16-.06.2-.2.16Zm-.58-.09a5.37,5.37,0,0,1-.59-3.42c0-.05.17-.07.16,0a6.07,6.07,0,0,0,.58,3.27c0,.14,0,.17-.16.14Zm-4.24-.93v0h-.06v0h0a.52.52,0,0,1,0-.12h.08v0h.09v0h.14v0H199v0h.13v0h.3v0h.32v0h.15v0H200v0h.06v0h.08v0h0v0h0v0h0a.17.17,0,0,1,0-.08h0v0h.08v0h.12v0h0v0h.09v0H201v0h.18v0h.07v0h0l0,.19h-.12v0H201v0h0v0h-.12v0h-.25v0h0a.15.15,0,0,0,0,.07h-.06v0h0v0h-.06v0h-.06v0h-.07v0h-.08v0H200v0h-.12v0h-.34v0h0v0h-.24v0H199v0h-.18v0h-.06v0Zm30.91-.2v0h0v0h.24s0,0,0,0a.3.3,0,0,0,0,.08h-.12v0Zm3.06-.56a.17.17,0,0,1,0-.07h.11c0-.07.19,0,.27,0v0l.49,0v0h.32a.09.09,0,0,0,0,.06l-.25.06v0l-.94.07Zm-34.76-.63a.53.53,0,0,1,0-.13c.11,0,0-.07.19-.07v0l.53,0v0h.14v0l.25,0c0-.07,0,0,.11,0v0l1,0a1.54,1.54,0,0,1,.12-.18h0c0-.18.11-.18.2-.2s.06,0,.15,0v0l.28,0c0-.07.07,0,.14,0v0l.3,0v0h.08a1.32,1.32,0,0,0,0,.2l-.11,0v0l-.47.07v0c-.34,0-.42.13-.55.4a.06.06,0,0,0,0,0v0l-1.31.07v0l-.31,0a0,0,0,0,0,0,0c0-.07-.23,0-.28,0v0l-.52,0Zm1.9-1.82v0h-.59v0h-.3v0h-.21v0h-.08v0h-.21v0h0v0h0v0h0v0h.07v0h.17v0h.18v0h.42v0h.63v0h.38v0h.27v0h.15v0h.46v0h.13v0h.06v0h0v0h.47v0h.3v0h.27v0h0a.82.82,0,0,0,0,.15h0v0h-.26v0H202v0H202v0h-.28v0h-.13v0h-.2s0,0,0,0v0h0v0h-1.19a.06.06,0,0,0,0,0v0h0v0Zm3.84-.71a.37.37,0,0,1,0-.09.17.17,0,0,1,0-.07h.06v0h.21a.52.52,0,0,0,0,.12l-.18,0v0Zm0-.44v-.61l.26-.07c0,.19,0,.45,0,.64l-.28,0Zm.62,0a5.81,5.81,0,0,1,0-.72s.12,0,.19,0a.54.54,0,0,0,0-.53l-.19,0c0-.34-.07-.83-.07-1.17l.19,0a.57.57,0,0,0,0-.51s-.13,0-.2,0c0-.31,0-.65,0-1l.21-.08a.5.5,0,0,0,0-.45c-.06,0-.12,0-.17,0,0-.32,0-.74,0-1h.22a4.27,4.27,0,0,0,.84,1.44c.4,1.17.67,2.55,1,3.76-.7,0-1.36.24-2,.24Zm-.63-1.15a3.16,3.16,0,0,1,0-.47c.1,0,.15,0,.28,0s0,.32,0,.45l-.28,0Zm-.94-.2c-.64-.32-.66-6.06-.33-7.56,0,0,.1-.31.13-.31,0,1.34-.08,3.19-.1,4.79a11.18,11.18,0,0,0,.23,2.24,1,1,0,0,0,.67.56c0,.31,0,.07,0,.4a1.49,1.49,0,0,1-.62-.12Zm1-.63v0h-.08v-.12h0v0h.06v0h.06v0h.11a2.19,2.19,0,0,0,0,.27Zm-.54-.17c-.75.16-.41-6.33-.3-7.48a1.69,1.69,0,0,1,.5-.32c0,.14-.05.46-.06.62l-.2.05a.53.53,0,0,0,0,.43h.13c0,.41,0,.73,0,1.14a.7.7,0,0,1-.12.07.49.49,0,0,0,0,.58.58.58,0,0,0,.18,0V89.3a.68.68,0,0,1-.26,0,.55.55,0,0,0,.06.49h.18c0,.31,0,.69,0,1l-.19.06c-.07.05-.11.52,0,.51a1.51,1.51,0,0,0,.17,0v1l-.18,0a.55.55,0,0,0,0,.42Zm.41-.58c0-.35,0-.61,0-.93l.25-.06c0,.3,0,.62,0,.91a1.31,1.31,0,0,1-.29.08Zm0-1.45c0-.4,0-.73,0-1a1.76,1.76,0,0,1,.27-.08c0,.28,0,.6,0,1-.08,0-.15.06-.28.08Zm8.81-.41A3.08,3.08,0,0,1,212.3,89a13.74,13.74,0,0,1,2.78-.27,2.06,2.06,0,0,1,0,1.21,11.31,11.31,0,0,1-2.73.36Zm9.43-1.27a3.08,3.08,0,0,1-.06-1.31,13.74,13.74,0,0,1,2.78-.27,2.06,2.06,0,0,1,0,1.21,11.31,11.31,0,0,1-2.73.36ZM233,87.51A3.08,3.08,0,0,1,233,86.2a13.74,13.74,0,0,1,2.78-.27,2.06,2.06,0,0,1,0,1.21,11.31,11.31,0,0,1-2.73.36Zm-29.5,1.72c0-.34,0-1.22,0-1.44l.28-.06c0,.4.06,1,.06,1.45a1.15,1.15,0,0,1-.34,0Zm.63-.14c0-.33,0-1.13,0-1.46.11,0,.11,0,.2-.07,0,.24,0,1.08,0,1.46,0,0-.13.06-.14.06Zm4.31-1.64a3.62,3.62,0,0,1-.68-.27,9.43,9.43,0,0,1,0-1.91,3.11,3.11,0,0,1,1.82.08c.25,0,.5,1.6.53,1.93a9.91,9.91,0,0,1-1.7.17Zm2.05-.2c-.08-.41-.43-2.09-.66-2.17a6,6,0,0,0-2.35,0c0,.31,0,1.36,0,1.88a23.23,23.23,0,0,1-1.67-2c0-1.71.08-3.56.1-5.29.5.7,1.48,1.89,2.53,1.89,3.09-.11,10.21-.91,10.94-1,.26,1.49.69,4.08.82,5.37-.09.17-8.62,1.34-9.68,1.34Zm-7-.12c0-.37,0-.76.07-1.1l.26,0c0,.36,0,.75-.06,1.11-.07,0-.15,0-.27,0Zm.84,0c-.07-.08-.16-.06-.24-.06,0-.38.06-.81.11-1.12h.12a.85.85,0,0,0,0-.47h-.07a2.77,2.77,0,0,1,.24-1.12.71.71,0,0,1,.47,0,.35.35,0,0,1,.15.24c-.62.09-.68,1.46-.79,2.56Zm-.74-1.56a6.42,6.42,0,0,1,0-.66c0-.1.39-.34.43-.31-.07.31-.14.63-.2.93a1.32,1.32,0,0,1-.27,0Zm34-2.3c-.07-.83-.11-1.46-.14-2.17.42,0,.88,0,1.29,0-.24.56-.79,1.63-1.07,2.22ZM208.49,81s-2.36-1-2.36-2.58c.49-.15,6.81-1.16,9.68-1.42.16,1.15.36,2.17.53,3.33-2.7.37-5.17.46-7.85.68Zm8.68-.79c-.07-.79-.38-2.18-.49-3.3,3.56-.44,7.22-.91,10.85-1.31,0,0,1.63.81,1.94,1-.33.73-.52,1.42-.92,2.26-1.31.17-9.5,1.26-11.38,1.4Zm14.17-5c.51-.11.92-.22,1.37-.27-.13.33-.28.66-.42,1-.27-.22-.65-.52-1-.75Zm-2.79.36c.34-.46.95-1.2,1.22-1.54,0,.25,0,.5.08.75a.72.72,0,0,0-.5.2,1.22,1.22,0,0,0-.3.77c-.2-.08-.3-.11-.5-.17Zm-.65-.24c.45-.51,1.46-1.88,1.78-2.25,0,.14,0,.28,0,.44s-1.21,1.56-1.49,1.87c-.18,0-.24-.05-.34-.05Zm-.49-.15a29,29,0,0,1,3.87-5.39c.15-.13.69-.38.61-.25-.33.47-3.64,5-4.17,5.67-.15,0-.25,0-.32,0Zm4.21-4.87c.16-.3.43-.65.48-.8s.41-.28.54,0c-.18.34-.34.52-.52.82l-.51,0Z"/><path class="cls-39" d="M264.84,72l-1.17.14c-.82-.45-6.26-4-7.49-4.81-.09-1.39-.13-2.34-.18-3.59-.21,0-2.5-.47-2.5-.49-.65,0-4,.12-5.92.2,0,0-3.76,3.64-3.76,3.68l-1.31.27v.19l2.56-.54c.86-.39,2.49-1.11,3-1.31,0,0,3.7.09,4,.09,0,0,1.58.64,1.72.71l.07,1.07-11.31,2.82v1.37c4.83-1,10-2.14,13.65-3.09a.67.67,0,0,0,.37-.77c1.17.77,5.16,3.48,6.83,4.5a10.85,10.85,0,0,1,0,1.64c-6.76,1-13.79,2-20.88,3v.29c6.1-.84,12.51-1.69,19-2.57.45.29,1.77,1.4,2.79,2.3a10.4,10.4,0,0,1-1.16.12c-.69-.57-1.62-1.36-2-1.71-.87.11-2.77.35-3.82.58.08.48.22,1.35.3,2-.34,0-.54,0-.77,0l-.22-1.93c-3.65.48-7.73,1-10.26,1.34,0,.74.15,1.42.23,2.13-.21,0-.56.12-.85.12,0-.43-.17-1.27-.24-2.07-.91.14-1.92.24-3,.35V83.9c1.14-.15,2.32-.31,3.58-.51,0-.23,0-.36-.05-.61.28,0,.68-.08,1-.12,0,.21.06.49.06.61h.18c.05.63.15,1.62.23,2.32.12.1.2.06.26,0-.05-.83-.14-1.57-.19-2.3,2.5-.46,7.72-1.2,9.33-1.46.07.67.11,1.33.18,2.1a.15.15,0,0,0,.26,0c-.05-.84-.14-2-.24-3,.22,0,.56-.1.87-.1,0,0,0,.52.08.84,2.19-.21,4.86-.59,6.77-.84v-2l-.05-.31a1.84,1.84,0,0,1-.32,0c-.38-.38-1.09-1.12-1.1-1.12.44-.06.82-.07,1.34-.13l.13.11V75.69c-.48-.49-1-1-1.3-1.3l1.3-.18v-.35l-1.17.17c0-.28,0-1.25,0-1.63l1.14-.16V72Zm0,11.32c-6.78,1.35-14.44,2.71-22.32,4v1.25c7.46-1.19,15.23-2.57,22.33-4.07V83.31Zm0,9.5-1.12.1s-3.18-.08-3.37-.08v0h-.51v0h-.56v0H258v0h-.24v0h-.24v0h-.28v0H257v0h-.18v0h-.15v0h-.15v0h-.12v0h-.11v0h-.07v0h-.08v0H256v0H256v0h-.07v0h-.08v0h-.08v0h-.07v0h-.06v0h-.08v0h-.06v0h-.08v0h-.09v0h-.08v0h-.07v0H255v0h-.07v0h-.08v0h-.06v0h-.08v0h-.12v0h-.12v0h-.12v0h-.06v0h-.12v0h-.07v0h-.06v0h-.11v0h-.12v0h-.12v0h-.12v0h-.09v0h-.09v0h-.08v0h-.14v0h-.07v0h-.17v0h-.09v0h-.14v0h-.21v0H252s0,0,0,0v0h-.37v0h-.2v0h-.08v0a14.13,14.13,0,0,0-4.33.95l-4.48.65v1h.15v0h.23v0h.45v0h.32v0H244v0h.17v0h.13v0h.12v0h.17v0h.13v0h.08v0H245v0h.12v0h.08v0h.09v0h.08v0h.07v0h.11v0h.09v0h.12v0h.09v0h.08v0H246v0h.07v0h.08v0h.08v0h.07v0h.06v0h.06v0h.11v0h.06v0h.07v0h.11v0h.06v0h.09v0H247v0h.12v0h.09v0h.11v0h.09v0h.18v0h.09v0h.17v0H248v0h.11v0h.12v0h.13v0h.12v0h.14v0h.18v0h.09v0H249v0h.15v0h.12v0h.09v0h.32v0H250v0h.18v0h.34v0h.3v0h.33v0h-.06v0h-.12v0h-.08v0h-.12v0h-.09v0h-.09v0h-.12v0h-.11v0h-.09v0h-.06v0h-.08v0H250v0h-.08v0h-.09v0h-.08v0h-.06v0h-.07v0h-.06v0h-.08v0h-.08v0h-.06v0h-.06v0h-.06v0h-.06v0h-.06v0h0v0h0v0H249v0h0v0h-.06v0h0v0h-.06v0h-.06v0h-.09v0h-.06v0h0v0h-.06v0h0v0h0v0h0v0h0v0h-.08v0h-.06v0h-.06v0H248v0h-.06v0h-.09v0h-.12v0h-.11v0h-.09v0h-.12v0h-.08v0h-.09v0h-.09v0h0v0H247a.37.37,0,0,0,0,.12h0v0h.24v0h.09v0h.11v0h.07v0h.11v0h.09v0h.12v0h.08v0H248v0h.11v0h.07v0h.06v0h.08v0h.06v0h.06v0h0v0h0v0h.06v0h.06v0h0v0h.08v0h0v0h.08v0h0v0H249v0h0v0h0v0h0v0h.06v0h0v0h.06v0h.06v0h.06v0h.08v0h.07v0h0v0h.07v0h.06v0h.06v0h.12v0H250v0h.09v0h.08v0h.09v0h.12v0h.08v0h.09v0h.06v0h.09v0h.11v0h.09v0H251v0h.11v0h.09v0h.09v0h.14v0h.18v0h.18v0H252v0h.2v0h.09v0h.32v0h.08v0h.09v0h.12v0H253v0h.14v0h.12v0h.13v0h.08v0h.09v0h.11v0h.09v0h.06v0h.09v0h.11v0h.07v0h.11v0h.09v0h.09v0h.08v0h.12v0h.12v0h.08v0h.07v0H255v0h.09v0h.08v0h.09v0h.09v0h.06v0h.06v0h.08v0h.08v0h.07v0h.08v0h.06v0H256v0H256v0h.06v0h.08v0h.06v0h.09v0h.12v0h.14v0h.15v0h.14v0h.24v0h.09v0h.27v0h.24v0h.2v0h.27v0h0v0h1.16v0h0v0h.32v0h.14v0h.57v0h1v0h.21v0h.2v0h.24v0h.59v0h.71v0a0,0,0,0,1,0,0h.3v0H264v0h.21v0h.18v0h.27v0h.16v-.64Zm0,1.47h-.34v0h-.18v0h-.24v0h-.18v0h-.15v0h-.12v0h-.09v0h-.08v0h-.06v0h-.09v0h-.12v0h-.12v0h-.23v0h-1v0h-.12v0h0v.19h.13v0h.46v0h.55v0H263v0h.12v0h.12v0h.08v0h.08v0h.07v0h.11v0h.13v0h.14v0h.12v0h.2v0h.3v0h.31v0h.1v-.24Zm0,1.66h0a.18.18,0,0,0,0,.08h-.12v0h0v0h-.42v0h-.07a.35.35,0,0,0,0,.12h-.18v0h-.3v0h-.06v0h-.24v0h-.14v0h-.09v0H263v0H263v0h-.06v0h0v.2h0a.15.15,0,0,0,0,.07H263v0H263a1.39,1.39,0,0,0-.06.24h0v0h0v0h0v0h-.06a.17.17,0,0,0,0,.07h0v0h-.06a.17.17,0,0,0,0,.07h0v0h0a.17.17,0,0,0,0,.07h-.06v0h-.33v0h-.3v0s0,0,0,0h-.15v0h0v0h0v0h-.06v0h-.06v0h-.06v0h-.08v0h-.09v0h-.36v0h-.09v0h-.08l0,.08,0,.19h0v0h.06v0h.12v0h.14v0h.08a.17.17,0,0,0,0,.07h0a.34.34,0,0,0,0,.28h0a.15.15,0,0,0,0,.07h0a.44.44,0,0,0,0,.12h0a.17.17,0,0,0,0,.08h0c0,.13-.07.26-.09.39H261v0h-.06v0h-.08v0h-.06v0h-.08v0h-.07v0h-.08v0h-.38v0h-.53v0a.09.09,0,0,1,0,0,.06.06,0,0,0,0,0h-.36v0h-.15v0H259v0h-.37v0h-.14v0h-.15v0H258v0h-.3v0h-.28v0h-.12v0h-.06v0h-.06v0h0a.6.6,0,0,0-.06.15h0a.17.17,0,0,0,0,.08h0v0H257v0h0a.52.52,0,0,0,0,.12h.21v0h.06a.17.17,0,0,1,0-.07h0v0h0v0h0a.17.17,0,0,1,0-.08h.06v0h.07v0h.14v0h.63v0h.12v0h.11v0h.13v0h.3v0H259v0h.14v0h.44v0h.15a.52.52,0,0,0,0,.12h0v0h-.13v0h-.23v0H259v0h-.19v0h-.23v0h-.31v0h-.32v0h-.12v0h-.08v.17h0v0h.06v0H258l0-.12h.08v0h.12v0h.56v0h.27v0h.21v0h.46v0h.18v0h.13v0h0v0h0a.35.35,0,0,1,0-.12h.13v0h.17v0h.18v0h.07v0h.06v0h.06v0h0v0H261v0h.07v0h.08v0h.06v0h.06v0h.06c0-.14.06-.28.09-.43h0a.35.35,0,0,1,0-.12.49.49,0,0,0-.11-.32.18.18,0,0,1,0-.08h0v0h0a1,1,0,0,1,0-.2h.12v0h.65v0h.18v0h.09v0h-.06v0h-.08v0h-.06v0h-.07v0h0v0h0v0h0a1.39,1.39,0,0,0,0,.24h0a.23.23,0,0,0,0,.08h0v0h-.06v0h0v0H262v0h-.06v0h-.06v0h0v0h-.06v0h0a1.51,1.51,0,0,0,0,.24h.13v0h.06v0h0v0H262v0h.06v0h.06v0h.06v0h.06v0h.07v0h.06v0h.06v0h.12v0h.06a.17.17,0,0,1,0-.07h0v-.17h0v0h-.06V98h.06v0h.06v0h.12v0h0v0h.08v0H263v0h.11v0h.25v0h.14v0h.09a.17.17,0,0,1,0-.07h0v0H263v0h-.11v0h-.15a.6.6,0,0,1,.06-.15h0v0h0v0H263v0h0v0H263v0h0v0h.06v0h0v0h.06v0h0a.69.69,0,0,1,.06-.17h0l0-.27h0v0h0v0h0v-.07h.06v0h.09v0h.14v0h.21v0h.14v0h0a.53.53,0,0,0-.07.47H264l.07-.19h0v0h0v0h.06v0h0a.69.69,0,0,1,.06-.17h0l0-.12h.06v0h.43v-.32ZM242.52,75.7c6.45-.91,15.44-2.17,16.41-2.33s1,.56.58.56c-1.59.24-10.4,1.42-17,2.29V75.7Zm0,22.59h.08v0h.25v0h.23v0h.18v0h.13v0h.14v0h.15v0h.12v0h.12v0H244v0h.06v0h.06v0h.06v0h.06v0h0v0h.06v0h0v0h0v0h0v0h0v0h0v0h0v0h.06v0h.06v0h.06v0h.08v0h.06v0H245v0h.08v0h.06v0h.08v0h.09v0h.12v0h.09v0h.11v0h.07v0h.08v0h.12v0H246v0h.08v0h.12v0h.18v0h.13v0h.17v0h.15v0H247v0h.09v0h.14v0h.14v0h.09v0h.09v0h.11v0h.15v0H248v0h.14v0h.08v.17h0v0h-.06v0H248v0h-.21v0h-.12v0h-.14v0h-.09v0h-.11v0h-.19v0h-.12v0h-.12v0h-.14v0h-.14v0h-.15v0h-.2v0h-.12v0H246v0H246v0h-.09v0h-.08v0h-.08v0h-.09v0h-.12v0h-.12v0h-.09v0h-.06v0h-.06v0h-.06v0h0v0H245v0h-.07v0h-.08v0h-.06v0h0v0h0a.18.18,0,0,0,0,.08h0v0h0v0h-.06v0h0v0h-.08v0h-.06v0h-.06v0h0v0h0v0h-.09v0H244v0h-.13v0h-.23v0h-.19v0h-.14v0h-.14v0H243v0h-.12v0h-.24v0h-.15v-.24Zm0,1.07h.08v0h.21v0h.2v0h.15v0h.09v0h.17v0h.12v0h.12v0h.09v0h.12v0h.06v0h.15v0h.08v0h.08v0h.07v0h.08v0h.08v0h.07v0h.08v0h.08v0h.07v0h.08v0H245v0H245v0h.09v0h.08v0h.07v0h.12v0h.08v0h.08v0h.09v0h.09v0h.08v0h.09v0H246v0h.12v0h.09v0h.12v0h.08v0h.21v0h.06V98h0v0h-.08v0h-.09v0h-.09v0h-.17v0h-.13v0H246v0h-.11v0h-.06v0h-.07v0h-.11v0h-.13v0h0v0h-.09v0h-.08v0h-.07v0h-.11v0H245v0H245v0h-.08v0h-.08v0h-.09v0h-.09v0h-.08v0h-.06v0h-.06v0h-.09v0h-.08v0h-.14v0H244v0h-.12v0h-.08v0h-.12v0h-.09v0h-.15v0h-.14v0h-.12v0H243v0h-.18v0h-.28v0h0v-.24Zm13.31-.63v0h-.26v0h-.27v0h-.62v0h-.21v0h-.14v0h-.15v0h-.06v0H254v0h-.38v0h-.15v0h-.14v0h-.2v0h-.21v0h-.33v0h-.28v0h-.09a.06.06,0,0,0,0,0v0H252v0h-.24v0h-.45v0h-.7v0h-.49v0h-.2v0h-.2v0h-.24v0h-.12v0h-.12v0h-.12v0H249v0h-.08v0h0v0h-.06v0h-.08v0h0a1.32,1.32,0,0,1,0-.2h0v0h.06v0h.08v0h.06v0H249v0h.11v0h.13v0h.28v0h.25v0h0v0h.06v0h.47v0h.43v0h.2v0h.65v0h.24v0h.3v0h.42v0H253v0h.27v0h.18v0h.17v0h.25v0h.23v0h.13v0h.12v0h.14v0h.18v0h.26v0h.57v0h.24v0h.15v0h.85v0h0a.37.37,0,0,0,0,.12h-.08v0h0s0,0,0,0v0h-.06v0h-.09v0ZM260,97.42v0h-.15v0h-.33v0h-.14v0h-.26v0H259v0h-.21v0h-.24v0h-.23v0h-.13v0H258v0h-.09v0h-.12v0h-.14v0h-.12v0h-.13v0h-.11v0h-.15v0H257v0h-.09v0h-.23v0h-.39v0h0v0h-.56v0h-.24v0h-.2l0,.12h0a.17.17,0,0,0,0,.08h-.08v0H255v0h-.12v0h-.06v0h0a2,2,0,0,1,0-.27h0v0h.07v0H255v0h.18v0h.38v0h1.08v0h0v0h.12v0h.15v0h.14v0h.12v0h.19v0h.17v0h.12v0h.13v0h.14v0H258v0h.12v0h.11v0h.15v0h.12v0h.2v0h.18v0h.19v0h.17v0h.3v0h.27v0h.2v0h.09v0h0a.52.52,0,0,0,0,.12h0v0Zm.76-.59v0h-.11v0h-.06v0h0v0h0l-.14-.43h0v0h-.11v0H260v0h-.3v0H259v0h-.49v0h0v0h-.07v0h-.32V96h0v0h.18v0h.11v0h.12v0h1.2v0H260v0h.15v0h.2v0h.09v0h.06a.3.3,0,0,0,0,.08h0l.14.39h0v0h.06v0h.91v0h.18a.35.35,0,0,0,0,.12h0v0h-.12v0h-.23v0ZM264.39,95v0h-.81v0h-.33v0H263v0h-.26v0h-.21s0,0,0,0,0,0,0,0v0h-.3v0h-.19v0h-.2v0h-.18v0h-.14v0h-.15v0h-.09v0H261v0h-.15v0h-.28v0H260v0H260v0h-.38v0h-.3v0h-.08v0h-.12v0h0v0H259v0h-.06l0-.2h0v0H259v0h.08v0h.14v0h.25v0h.06v0h.42v0H260v0h.56v0h.31v0h.18v0h.18v0h.17v0h.09v0h.15v0h.18v0h.2v0h.32v0h.18v0h.24v0h.33v0h.42v0h.85v0h.25v0h0v.12h0v0h0v0ZM246,82.54c-.07-.74-.2-1.76-.27-2.61.25,0,.59-.12.89-.12.1.76.25,1.78.36,2.57a6.34,6.34,0,0,1-1,.15Zm11.11-1.82c-.07-.91-.17-1.66-.26-2.53.31,0,.5,0,.78,0,.16,1,.23,1.65.3,2.47-.2,0-.58.1-.82.1Zm-2.88-13.13c.46-.61,1.1-1.44,1.45-2,.08.7.17,1.71.23,2a.51.51,0,0,1,.14.88l-1.83-.88Zm-.12-.31c0-.28-.06-.57-.06-.76.24-.24,1.15-1.52,1.59-2.14,0,0,0,.63,0,.88-.21.26-1.14,1.52-1.53,2Zm-9.63-.41c.41-.37,2.67-2.51,3-2.89.09.52.14,1,.21,1.6-.72.26-2.37.94-3.26,1.29Zm7.64-1.3c.59-.74,1.1-1.42,1.58-2.07.69.12,1.51.27,2,.38-.35.51-1.37,1.93-1.8,2.49-.41-.21-1.38-.65-1.78-.79Zm-4.07-.07c-.09-.68-.17-1.17-.29-1.84,2-.06,3.51-.15,5.55-.19-.44.62-1.28,1.77-1.58,2.15l-3.68-.12Z"/><path class="cls-39" d="M264.84,72c7-.85,12.64-1.7,20.21-1.7.64,0,.7.27.71.27,0,1.49-.07,3-.12,4.51a1.4,1.4,0,0,1,1.44.76,2.43,2.43,0,0,1,0,.83c-.27.69-2.23,2.14-2.23,2.21-1.8,1.13-3.51,5.66-4.09,6.88H281v0h0v0h0c0-.09.07-.2.14-.2v0h0v0h.06v0h0a.78.78,0,0,1,0-.32h.06v0h.08v0H282v0h0v0h0a4.37,4.37,0,0,1,0,.56h.12v0h.12v0h.12v0h.06v0h0a.15.15,0,0,0,0,.07h.06v0h0v0h0v0h0a1.44,1.44,0,0,0,.06.17h0a.15.15,0,0,0,0,.07h0v0h0v0h0v0h.18a.3.3,0,0,0,0,.08h0a.17.17,0,0,0,0,.08h-.2v0h-.06v0h-.06v0h0v0h-.06v-.08h0c0-.07-.06-.13-.08-.19h0a.3.3,0,0,1,0-.08h-.06v0h0v0h0v0h0v0h-.15v0h-.24v0h-.06a.3.3,0,0,1,0-.08h0c0-.18,0-.34,0-.51h-.15a1.67,1.67,0,0,0,0,.24.36.36,0,0,0,0,.12h-.08v0h-.12v0h0a.35.35,0,0,0,0,.12h0v0h0v0h-.06a.36.36,0,0,0,0,.12h0v0H281v0h-.14v0h-.07v0h0a.15.15,0,0,0,0,.07h0v0h0v0h-.06c-.06.15-.12.31-.17.47a.36.36,0,0,0,0,.12h0v0h-.07v0h-.06v0h0v0h-.06v0h-.18v-.12h0v-.2h0v0h-.09v0h-.33v0h-.11v0h-.06a1.32,1.32,0,0,0,0,.2h0a.93.93,0,0,1,.06.51h0v0h0v0h0v0h0v0h-.06v0h0v0h0v0h0v0h0l-.14.47h0a.17.17,0,0,0,0,.08h0v0h0v0h-.07v0h-.11v0h-.13v0h-.3v0h-.06v0H278v0h-.11a3,3,0,0,1-.12.63h0a.17.17,0,0,0,0,.08h-.06v0h-.06v0h-.06v0h-.06v0h-.06v0h-.07v0h-.11v0h-.07v0H277v0H277c0,.11,0,.19-.08.31h0a1.4,1.4,0,0,0,0,.24h0a1.17,1.17,0,0,0,0,.52h0v0h.07a1.09,1.09,0,0,0,0,.2h0a.37.37,0,0,0,0,.12h0v0h-.07a.35.35,0,0,0,0,.12h0a.17.17,0,0,0,0,.08h0a.35.35,0,0,0,0,.12h0v0h0v0h-.06v0h-.09v0H276v0h-.32v0h-.09v0h-.08v0h-.06v0h-.08a0,0,0,0,1,0,0v.07s0,0,0,0h-.2v0H275v0h-.14v0h-.09v0h-.12v0h-.08v0h-.07v0h-.08v0h-.08v0h-.06v0h0v0h-.08v0h-.06v0H274v0h-.2v0h-.25v0h-.26v0h-.38v0h-.42v0h-.13v0h-.08v0H272v0h-.3v0h-.3v0h-.27v0H271v0h-.12v0h-.12v0h-.08v0h-.08v0h-.06v0h-.09v0h-.08v0h-.12v0h-.06v0h-.07v0H270v0H270v0h-.06v0h-.14v0h-.12v0h-.14v0h-.15v0h-.2v0H269v0h-.3v0h-.33v0h-.21v0H268v0h-.15v0h-.26v0h-.36v0H267v0h-.14v0h-.15v0h-.47v0h-.18v0H266v0h0v0h.21v0h.2v0h.14v0h.12v0h.24v0h.33v0h.18a1.78,1.78,0,0,0,0,.24h-.23v0h-.42v0h-.15v0h-.2v0h-.12v0h-.27v0h-.24v0h-.2v0h-.13v0h-.12v0h-.23v0h-.25v0h-.07v-.64a42.14,42.14,0,0,0,12.62-3.86c0-.23.09-.45.15-.66h0v0h0v0h.12v0h.26v0h.18v0h.18v0h.09v0h.06a.17.17,0,0,1,0-.08h0c.06-.17.13-.32.2-.47h0v0h0v0h0v0h0v0h0v0h0v0h0v0h0a.79.79,0,0,0-.09-.47h0a2,2,0,0,1,0-.27h0v0h0v0h.06v0h.06v0h.06v0h0v0h.14v0h.15v0a4.64,4.64,0,0,1,.59.12c.42-1,2.14-5.65,3.51-7a149.2,149.2,0,0,1-18.9,5V83.31c7.76-1.55,14.35-3.08,18.76-4.44,1,0,3.27-1.7,3.27-2.73-.09-.62-.68-.78-1.21-.78,0,.48-.07,1-.12,1.49a.18.18,0,0,1-.27,0c0-.54.09-1.08.09-1.52h-1.62c-.34.11-.57.14-.91.26-.22,1-.49,2.2-.7,3.21a.2.2,0,0,1-.3,0c.12-.6.35-1.71.44-2.18-.5,0-1.08-.09-1.54-.15a.67.67,0,0,1,0-.32c-1.91.47-4.58,1.11-6.37,1.51.13.95.25,1.93.35,3a.21.21,0,0,1-.31,0c-.12-1-.21-2-.36-2.92-2.13.45-4.56,1-6.64,1.38a.7.7,0,0,1,0,.36h-.06v0h-.07v0h-.06v0h-.06a.3.3,0,0,1,0-.08h-.06v0h0v0H267v0h-.44v0h-.14v0h-.13v0h-.14c0,.22,0,.58,0,.71.21,0,.28.47,0,.52,0,.5.06,1.12.11,1.85-.06.1-.11.1-.23,0,0-.58-.11-1.15-.18-1.73l-1.09.14v-2l0,.13a2.27,2.27,0,0,1,.34.27c.24,0,.38-.07.59-.07a9.65,9.65,0,0,0-.11-1c-.15-.15-.6-.54-.85-.75V75.69l.61.61c1.93-.24,3.54-.37,5.51-.56L272,73.3c-2.5.29-4.78.59-7.19.92v-.35c2.34-.32,5.2-.59,7.4-.88.23-.65.46-1.11.7-1.77-2,.3-5.68.71-8.1,1V72Zm0,22.3h0v0H265v0h.14v0h0l0,.17h-.24v0h-.1v-.24Zm0,1.66h0v0h0a1.67,1.67,0,0,1,0-.24.59.59,0,0,1,0-.15h0v0h0v0h0v0h0v0h0a.92.92,0,0,1,.08-.19h0v0h.32v0h.12v0H266v0h.19v0h.08v0h.08v0h.15v0h0a.3.3,0,0,0,0,.08h0v0h-.06v0h-.06v0h-.06v0h-.06v0h-.52v0h-.12v0h-.3v0h-.06a.15.15,0,0,0,0,.07h0v0h0v0h0v0h0c0,.13,0,.26,0,.4l-.11.27H265v0h-.11v0h0v-.32Zm2.91.44v0h-.11v0h-.15v0h-.09v0h-.06v0h0a1.32,1.32,0,0,1-.06-.15h-.06v0h0v0h0a1.1,1.1,0,0,1,0-.15h.06v0h.17v0h.39v0h0a1,1,0,0,0-.06.2h0v.08h0v0h.12v0h.08v0h.06v.15Zm1.66-.08v0h0l.11-.36h0v0h.06v0h.14v0h.3v0h.15l0-.12h.26v0h.09v0h.08v0h0v0h0v0h0v0h0v0h.06v0h.28v0h.21a.17.17,0,0,1,0-.08h0v0h.08v0h.12v0h.12v0h.12v0H272v0h.34v0h.37v0h0v0h.09a.17.17,0,0,0,0,.08h0v0h-.2v0h-.13v0h-.23v0h-.18v0h-.19v0h-.32v0h-.09v0h-.11v0h-.15v0H271v0h-.31v0h-.08v0h-.06v0h0v0h0v0h0v0h-.06v0h-.08v0h-.09v0h-.15v0h-.18v0h-.18v0h-.06a.69.69,0,0,0-.06.17h0v0h0v0Zm.09-1.42v0h-.14v0h0v-.17h.26v0h.07v0h.06a.37.37,0,0,0,0,.12h-.06v0Zm-3.32,0a1.32,1.32,0,0,1,0-.2h.08v0h0v0h.17v0h.24v0h.13v0h.2v0h.09v0h.12v0h.58v0h.09v0h.18v0h.08v0h0a.17.17,0,0,1,0-.08h.06v0h.06v0h.15v0h.21v0h.18v0h.2v0h.36v0h.12v0h.12v0h.08v0h.07v0h1.31v0h0v0h0a.17.17,0,0,0,0,.07h0v0h-.42v0h-.15v0h-.26v0h-.18v0h-.3v0h-.06v0h-.3v0h-.08v0H269v0h-.15v0h-.15v0h-.12v0h-.11v0h0v0h0v0h0v0h-.13v0H268v0h-.17v0h-.55v0h-.11v0H267v0h-.2v0h-.14v0h-.12v0h-.15v0h-.15v0Zm4.81,0v0h-.21a1.62,1.62,0,0,1,0-.2h.06v0h.06v0h.23v0h.19v0h.18v0h.18v0h.23v0h.21v0h.06s0,0,0,0v0h0v0h.14v0h.19v0h.06v0h0l0-.12h.2a1.4,1.4,0,0,0,0,.24h-.06v0h0v0h0v0h-.08v0h-.09v0h-.34v0h-.33v0h-.18v0h-.24v0Zm.44-.83v0h-.23v0h-.12v0h-.18v0h-.12v0h0v0h0v0h0v0h0a.17.17,0,0,1,0-.07h-.06v0h0v0h-.14v0h-.06v0h-.06a0,0,0,0,0,0,0v0h-.32v0h-.18v0h-.21v0h-.32v0h-.09v0h-.18v0h-.12v0h-.26v0h-.18a.17.17,0,0,0,0,.07h0a.17.17,0,0,0,0,.08h-.06v0h-.15v0h0a.82.82,0,0,1,0-.15h.06l0-.12h0v0h0v0h.12v0h.26v0h.18v0h.18v0h.15v0h.14v0h.24v0h.12v0h0v0h0v0H270s0,0,0,0v0h.13v0h.53v0h.06v0h0v0h0a.3.3,0,0,0,0,.08h0c0,.06,0,.12.08.19h.18v0h.13v0h.24v0h.12v0h.08l0,.2h0v0h-.09v0h-.14v0Zm.43-.87v0h-.07v0h0a.23.23,0,0,1,0-.08h-.28v0h0v0h0v-.17h.09v0h.06v0h.2v0H272v0h0v.08h.18v0h.15a.52.52,0,0,0,0,.12h0v0h-.43v0Zm-.75-.08v0h-.26v0h-.12v0h-.07v0h-.06v0h-.06v0h0a.45.45,0,0,1,0-.12h0v0h.06v0h.15v0h.14v0h.06v0h.12v0h.06v0h.09v0h.06v0h0V93h0v0Zm3.35,0v0h-.14v0h-.26v0H274v0h-.18v0h-.07v0h0a.23.23,0,0,1,0-.08h0l0-.24h0v0h-.06a.34.34,0,0,1,0-.2h0v0h.24v0h.14v0h0c.06.13,0,.14,0,.32h0v0h.18v0h0v0h0v0h.15v0h.14l0,.19h0v0Zm2.09-.32v0h-.12v0h-.27v0H276v0h-.06c0-.11-.06-.21-.08-.31h-.09v0h-.06v0h0a1.09,1.09,0,0,1,0-.2h.06v0H276v0h.18v0h0c0,.13,0,.26,0,.39h.23v0h.07v0h.06v0h0v0h.06v0h.06v0h.07v0h0a.36.36,0,0,0,0,.12Zm-1.7-.08v0h-.06v0h-.15v0h0v-.15h.11v0h.18v0H275v0h.07a.71.71,0,0,1-.06.31Zm2.55-.43v0h-.08v0h-.07a.3.3,0,0,1,0-.08h0c-.08-.23-.07-.27,0-.39h0v0h.06v0h.08v0h.27v0h0a.23.23,0,0,0,0,.08h0l.07.24h0v0h.24a.7.7,0,0,0,0,.17h-.24v0h-.06v0h-.14v0h-.06a1.69,1.69,0,0,1-.06-.19h0v0h0v0h-.06l0,.19h.06l0,.17Zm-2.61,0v0h-.06a.82.82,0,0,1,0-.15h.06v0H275v-.15h.08v0h.12v0h.09v0h0v0h.06a.35.35,0,0,0,0,.12h0v0h-.12v0h0v0h-.06v0h-.07v0Zm4.09-.36v0h0a1.21,1.21,0,0,1,0-.51h.06v0h0v0H279v0h0v0h.06v0h.17v0h.36v0h.12v0h0v0h.09v0H280v0h.06v.12h0v0H280v0h-.11v0h0v0h-.08v0h-.15v0h0a1.1,1.1,0,0,1,0-.15h-.21v0h-.09v0h-.06v0h0v0h0v0h0l-.11.36Zm1.82-.19v0h-.09v-.12h.06v0h.2v0h.36v0h.06v0h.06v.12h0v0h-.09v0h-.47a.06.06,0,0,0,0,0Zm1.53-1.07v0h-.11v0h-.06v0H282v0h0v0h0v0h0v0h0v0h0v0h0l-.07-.28h-.08v0h-.15v0h-.08v0h-.06v0h-.06v0h0v0h-.06a.44.44,0,0,1-.06-.27h0v0h.21a.84.84,0,0,1,0-.17h0v-.07h-.07v0h-.12v0H281v0h0c-.06-.19-.06-.25,0-.36h.13a1.1,1.1,0,0,0,0,.15h0a.3.3,0,0,0,0,.08h0v0h.09v0h.11v0h0a1.33,1.33,0,0,0,.06.15h.06c0,.08.08.18,0,.27h-.07v0h-.08v.12h0v0h.06v0h.08v0h.12v0h.14v0H282v0h.06v.27h0v0h0v0h0v0h0v0h0v0h.06v0h.11v0h.27v0h.12v0h.14v0H283v0h.08v0h.13v0h.17v0h.07v0h.38v0h0v.12h0v0h-.45v0h-.11v0h0v0h-.15v0H283v0h-.09v0h-.09v0Zm-3.94-.08v0h-.06v0h0v0h0c0-.12-.07-.14-.07-.24h-.23v0h-.12v0h-.09v0h-.06v0h-.08V90.1h0v0h.06v0h.07v0h.12v0h.14v0h.2v0h.13v0h.06c0,.12,0,.24.08.36h.47v0H279v0h.09v.12h0v0h-.18v0Zm2.61,0v0h-.26v0h-.06v0h-.06v0h-.06v0h0v0h0a1.1,1.1,0,0,1,0-.15h0v0h.19v0h.11v0h0v0h.06v0h.09v0H281v0h.08a.45.45,0,0,0,0,.12h0v0H281v0ZM276,83.77a2.25,2.25,0,0,1,0-1,10.7,10.7,0,0,1,2.06-.42,1.52,1.52,0,0,1,0,.9,8.9,8.9,0,0,1-2,.49Zm9.84,6.45v0h-.15v0h-.11v0h-.09v0h-.14v0h0v0h-.06v0h-.06v0h0v0h-.06v0h0v0H285v0H285v0h-.11v0h-.06v0h0v0h0a1.85,1.85,0,0,1-.14-.71h-.06v0h-.06v0h-.08v0h-.06v0h-.07s0,0,0,0,0,0,0,0v0h-.12v0h-.18v0h-.07v0h-.06v0h-.06v0h0c-.11-.28,0-.46,0-.66h-.12v0h-.12v0h-.27v0h-.06a.93.93,0,0,1,0-.17h.12v0h.15s0,0,0,0v0h0v0h.17v0h.12v0h.12v0h.06v0h.07v0h0c0,.19-.08.37,0,.68h0v0h.08v0h.21v0h.14v0h.09v0h0v0h.08v0h.08v0h.06v0h.07v0h0c0,.24.06.47.09.71h0v0h.12v0h.06v0h.06v0h.06v0h.06v0h0v0h.06v0h.09v0h.08v0h.09v0h.08v0h.21v0h.06v0h0v0h0v0h0v0h-.06v0Zm-6.13,0v0h-.15v0h-.09v0h0v0h0v0h-.06v0h0v0h0a.73.73,0,0,1,0-.15h-.06v0h-.53v0h-.08a.82.82,0,0,1,0-.15h0v0h0v0h.24v0h.21v0h.2v0h.24v0h0a1.78,1.78,0,0,0,0,.24h0v0h0v0h.06v0h0v0h.36l0,.12h-.06v0h-.19v0h-.11v0h0a.06.06,0,0,0,0,0Zm4.33-.68v0H284a.3.3,0,0,1,0-.08h-.06v0h-.09v0h-.23v0h-.3v0h-.13v0h-.08a.17.17,0,0,1,0-.07h0a2.44,2.44,0,0,1-.06-.28h0v0h-.08a.36.36,0,0,1,0-.24h.08v0h.31a.3.3,0,0,0,0,.08h0a3,3,0,0,0,0,.32h0v0h.2v0h.18v0H284v0H284v0h.06v0h.06v0h0a1.51,1.51,0,0,0,0,.24Zm-4.43-.12c-.07-.21,0-.18.07-.28s-.08-.28,0-.39h.08v0l.11,0c.06-.13.2-.15.4-.15v0l.12,0a.7.7,0,0,0,0,.09.34.34,0,0,1-.26,0l-.11,0,0,.08H280c0,.15-.07.31-.09.47l-.11,0a.22.22,0,0,1-.15.12Zm1.21-.79v0h-.11v0h-.09a.93.93,0,0,1,0-.17h.24v0H281v0h.09a.52.52,0,0,0,0,.12h0v0Zm-1.53-.15v0h0a.76.76,0,0,1,0-.4h0v0h.08v0h.15v0h.12v0h0v0h0v0h0v0h.06v0h0v0h0v0H280v0h.06v0h.21v0h.11a.15.15,0,0,0,0,.07h.06v0h.06v0h.11v0h0a.17.17,0,0,0,0,.08h-.27v0h-.18v0h-.06v0h-.06v0H280v0H280v0h0a.17.17,0,0,0,0,.08h0v0h-.28v0h0a1.39,1.39,0,0,0-.06.24h-.08v0Zm2.69,0v0H282V88.2h0v0h.32v0h.06a.3.3,0,0,0,0,.08h0v0h-.06v0h-.21v0Zm-.93-.59v0H281v-.12h.06a.63.63,0,0,1,0-.15h0v0h0v0h.2v0h.15v0h.06v0h.06v0h0v0h0a.7.7,0,0,0,0,.17h0v0h-.06v0h0v0h-.06v0h-.07a.59.59,0,0,0,0,.15h0v0Zm.06-.83a.37.37,0,0,1,0-.09c.06-.18.12-.18.21-.27v0h.08v0h.24s0,0,.06,0v0l.69,0c0,.06.13,0,.18,0a.73.73,0,0,0,0,.17h-.46v0a3.22,3.22,0,0,1-.65-.07s-.07,0-.07.12h0a.37.37,0,0,0-.06.12Zm-15.51-7.36v0h-.06v0h0a.18.18,0,0,1,0-.08h.14v0h.12v.2Zm.45-.56v-.51l.14,0s0,0,.06,0v0a1.13,1.13,0,0,1,.3.32h-.08v0l-.42,0Zm1.23-.2c-.05-.35-.2-.81-.28-1.19-.19-.17-.4-.4-.69-.66,2.26-.42,5.69-1.09,7.47-1.35.07.61.15,1.21.24,1.83-2.14.47-4.48.95-6.74,1.38Zm1.32-1.46c-.09-.09-.08-.16,0-.2a10.27,10.27,0,0,1,1.82.53c.17.13.07.23,0,.26-.59-.16-1.42-.46-1.84-.59Zm.95-.39c0-.3,1.92-.58,2.31-.54s1.7.38,1.77.75c-.27.09-2.08.41-2.08.42a5.72,5.72,0,0,1-2-.63Zm4.77.39c-.09-.66-.16-1.15-.24-1.74l8.39-.39a1,1,0,0,0-.05.2c-1,.2-2,.46-2.88.67-.21-.45-1.6-.44-1.7-.28-.3.49.19.39.57.44,0,0,0,.09,0,.11-1.17.32-2.78.67-4.11,1Zm-8.29-.57c-.1-.12-.26-.16-.4-.29,1.47-.18,3.18-.39,4.71-.53-1.33.31-2.9.58-4.31.82ZM281.4,76c.43-.13.76-.21,1-.27a1.53,1.53,0,0,1-.1.4c-.35,0-.66-.08-.94-.13Zm-10.11-.36c.4-.94.82-1.74,1.12-2.44,2.52-.16,5.18-.32,7.76-.32a7.39,7.39,0,0,1-.43.79c-2.71.58-5.66,1.39-8.45,2Zm2.06-.22s4.49-1.06,6.24-1.48c-.15.33-.35.72-.5,1.08-1.68.16-4.12.33-5.75.4Zm6-.33c.22-.44.41-.8.59-1.24.88-.25,2-.6,2.75-.83,0,.64-.18,1.33-.18,2-1.1,0-2,0-3.17.08Zm5.15,0a2.53,2.53,0,0,0,.84-.52c0,.15,0,.35,0,.51Zm-1.66,0c.05-.61.13-1.44.19-2.14.6,0,2.12.54,2.27,1.12a2.65,2.65,0,0,1-2.46,1Zm-2.72-1.54a4.2,4.2,0,0,0,.31-.59c.49,0,1.09,0,1.7,0a14.25,14.25,0,0,1-2,.63Zm5.18,0a4.59,4.59,0,0,0-1.76-.78s1.47-.7,1.81-1.27c0,.31,0,1.29-.06,2.05Zm-12.82-.58c.26-.61.51-1.17.73-1.78,2.7-.24,5.57-.48,8.21-.59-.43.82-.75,1.27-1.17,2-2.59,0-4.9.16-7.78.34Zm8.13-.33c.42-.76.85-1.53,1.12-2.06,1.2,0,3.72-.13,3.67.2-.11.64-1.65,1.53-2.35,1.87-.81,0-2.18,0-2.43,0Z"/><path class="cls-40" d="M214.34,104.22v0h-.12v-.08h.06v0h0v0h.06v0h.06v0h0v0h0v0h.06v0h.06v0h.06v0h.09v0h.28v0h.33v0h.36v0h.38v0h.24v0h.3v0h.15v0H217v0h.11v0h.07v0h.5v0h.26v0h.21v0h.26v0h.31v0H219v0h.33v0h.24v0h.23v0H220v0h.18v0h.31v0h.32v0H221v0h.3v0h.26v0h.27v0h.21v0h.26v0h.33v0h.17v0H223v0h.15v0h.27v0h.2v0h.18v0H224v0h.18v0h.18v0h.14v0h.12v0h.15v0h.15v0h.12v0h.14v0h.09v0h.06v0h.11v0h.06v0h.15v0h.26v0h.39v0h.2v0h.25v0H227v0h.23v0h.24v0h.19v0h.32v0h.2v0h.12v0h.13v0h.17v0h.31v0h.24v0h.18v0h.2v0h.2v0h.18v0H230v0h.19v0h.14v0h.2v0h.15v0h.18v0H231v0h.14v0h.14v0h.12v0h.09v0h.12v0h.12v0h.08v0h.07v0h.18v0h.12v0h.12v0h.14v0h.09v0h.12v0h.14v0h.09v0h.18v0h.18v0h.14v0h.14v0h.13v0h.14v0H234v0h.14v0h.36v0h.5v0h.19v0h.26v0h.26v0h.25v0H236s0,0,0,0v0h.14v0h.26v0h.24v0h.19v0h.24v0h.24v0h.18v0h.18v0h.23v0h.24v0h.18v0h.36v0H239v0h.21v0h.17v0h.19v0h.26v0h.27v0h.18v0h.17v0h.15v0h.14v0h.09v0h.09v0H241v0h.12v0h.13v0h.17v0h.15v0h.08v0h.15v0h.08v0H242v0h.13v0h.18v0h.28v0h.25v0h.23v0h.18v0h.13v0h.14v0h.15v0h.12v0h.12v0H244v0h.06v0h.06v0h.06v0h.06v0h0v0h.06v0h0v0h0v0h0v0h0v0h0v0h0v0h.06v0h.06v0h.06v0h.08v0h.06v0H245v0h.08v0h.06v0h.08v0h.09v0h.12v0h.09v0h.11v0h.07v0h.08v0h.12v0H246v0h.08v0h.12v0h.18v0h.13v0h.17v0h.15v0H247v0h.09v0h.14v0h.14v0h.09v0h.09v0h.11v0h.15v0H248v0h.14v0h.08v.17h0v0h-.06v0H248v0h-.21v0h-.12v0h-.14v0h-.09v0h-.11v0h-.19v0h-.12v0h-.12v0h-.14v0h-.14v0h-.15v0h-.2v0h-.12v0H246v0H246v0h-.09v0h-.08v0h-.08v0h-.09v0h-.12v0h-.12v0h-.09v0h-.06v0h-.06v0h-.06v0h0v0H245v0h-.07v0h-.08v0h-.06v0h0v0h0a.18.18,0,0,0,0,.08h0v0h0v0h-.06v0h0v0h-.08v0h-.06v0h-.06v0h0v0h0v0h-.09v0H244v0h-.13v0h-.23v0h-.19v0h-.14v0h-.14v0H243v0h-.12v0h-.24v0h-.19v0h-.23v0h-.13v0H242v0h-.15v0h-.12v0h-.18v0h-.12v0h-.11v0h-.12v0h-.12v0H241v0h-.11v0h-.07v0h-.12v0h-.2v0h-.2v0h-.09v0H240v0h-.26v0h-.3v0h-.15v0H239v0h-.27v0h-.3v0h-.24v0H238v0h-.12v0h-.12v0h-.18v0h-.32v0h0v0h0v0h-.49v0h-.17v0h-.06a0,0,0,0,1,0,0v0h-.24v0h-.36v0h-.23v0h-.37v0h-.38v0h-.2v0h-.24v0h-.15v0h-.08v0h-.07v0H234v0h-.12v0h-.12v0h-.18v0h-.19v0h-.24v0H233v0h-.15v0h-.15v0h-.08v0h-.09v0h-.14v0h-.15v0h-.11v0H232v0h-.12v0h-.07v0h-.18v0h-.08v0h-.08v0h-.12v0h-.09v0h-.12v0h-.2v0h-.18v0h-.13v0h-.2v0h-.21v0H230v0h-.2v0h-.24v0h-.15v0h-.18v0H229v0h-.21v0h-.12v0h-.15v0h-.11v0h-.15v0H228v0h-.21v0h-.42v0h-.18v0h-.32v0h-.38v0h-.25v0h-.2v0h-.2v0h-.21v0h-.08v0h-.06v0h-.06v0h-.09v0h-.09v0h-.11v0H225v0h-.15v0h-.12v0h-.12v0h-.18v0h-.18v0h-.2v0h-.2v0h-.15v0h-.26v0h-.21v0H223v0h-.15v0h-.23v0h0v0h0v0h-.32v0H222v0h-.14v0h-.21v0h-.23v0h-.19v0h-.32v0h-.39v0h-.3v0H220v0h-.2v0h-.15v0h-.12v0h-.2v0H219v0h-.44v0h-.33v0h-.27v0h-.2v0h-.2v0h-.43v0h-.26v0h-.18v0h-.2v0h-.24v0h-.42v0h-1v0h-.08v0h-.07v0h-.11v0h-.06v0h-.06v0Zm-7.12,0a.17.17,0,0,1,0-.08l.19,0v0h.06v0c.09,0,.13-.08.23-.08v0a.68.68,0,0,1,.17,0c0-.07.07,0,.14,0v0l.37,0c0-.07.13,0,.21,0v0l.34,0c0-.07.17,0,.26,0v0l.55,0c0-.07.19,0,.28,0v0l.66,0c0-.07.28,0,.39,0v0l.88,0c0-.07.14,0,.25,0v0l.5,0c0-.07.19,0,.27,0v0l.7,0c0-.07.21,0,.32,0v0l.55,0c0-.07.13,0,.21,0v0l.38,0c0-.07.09,0,.19,0v0l.43,0c0-.07.09,0,.19,0v0l.34,0c0-.07.09,0,.19,0v0l.25,0v0h.12v0l.25,0c0-.07.06,0,.15,0v0l.44,0c0-.07.19,0,.31,0v0l.72,0c0-.07.26,0,.4,0v0l.49,0c0-.07.11,0,.2,0v0l.3,0v0h.18v0l.31,0c0-.07.12,0,.23,0v0l.45,0c0-.07.11,0,.2,0v0l.55,0c0-.07.24,0,.33,0v0l.66,0v0h.3v0l.51,0c0-.07.19,0,.31,0v0l.5,0c0-.07.12,0,.23,0v0l.45,0c0-.07.11,0,.2,0v0l.69,0c0-.07.14,0,.25,0v0l.52,0c0-.07.17,0,.26,0v0l.39,0c0-.07.12,0,.23,0v0l.33,0v0h.17v0l.25,0v0h.12v0l.27,0c0-.06.08,0,.17,0v0l.33,0v0h.26v0l.58,0c0-.07.13,0,.21,0v0l.43,0v0h.11v0l.19,0v0h.11v0l.2,0c0-.06.09,0,.13,0v0l.34,0c0-.06.08,0,.17,0v0l.33,0c0-.06.08,0,.17,0v0l.27,0v0h.12v0l.25,0c0-.07.06,0,.15,0v0l.23,0c0-.06.09,0,.13,0v0l1,0c0-.07.19,0,.28,0v0l.47,0v0h.3v0l1.19,0v0h.23v0l.37,0v0h.12v0l.27,0c0-.07.07,0,.14,0v0l.25,0c0-.06.09,0,.13,0v0l.21,0v0H239v0l.21,0v0h.12v0l.43,0c0-.07,0,0,.07,0a0,0,0,0,0,0,0c0-.07.07,0,.14,0v0h.14s0,0,.06,0a.7.7,0,0,0,0,.17l-.43.07v0a1.71,1.71,0,0,0-.46.07v0l-.37.07v0l-.3.07v0l-.38.07v0l-.44.07v0l-.63.07v0l-1.39.07v0l-.77.07v0l-1.1.07v0l-.38.07v0l-.45.07v0l-.51.07v0l-.52.07v0l-.37.07v0l-.28.07v0l-.27.07v0l-.77.07v0l-.81.07v0l-.47.07v0l-.47.07v0l-.4.07v0l-.59.07v0l-.69.07v0h-.2s0,0,0,0l-.68.06v0l-.77.07v0l-.65.07v0l-.71.07v0l-.89.07v0l-.84.07v0l-.68.07v0l-.59.07v0l-.68.07v0l-.61.07v0l-.88.07v0c-.37,0-.7.06-.95.07v0l-.47.07v0l-.39.07v0l-.65.07v0l-.5.07v0l-.65.07v0l-.63.07v0l-.59.07v0l-.85.07v0l-1,.07v0l-.94.07v0l-1.1.07v0l-.81.07v0l-.68.07v0L208,104v0l-.47.07v0Zm-6.05,0v-.07h.18v0h.08v0h.13v0h.23v0H202v0h.59v0h.09v0h.18v0h.2v0h.21v0h.32v0h.08v0h.07v0h.14v0H204v0h.13v0h.11v0h.15v0h.26v0h0v0h0v0h.14v0h.21v0h.34v0h.21v0h.08v0h.09v0h.21v0h.18v0h.11a0,0,0,0,0,0,0v0h.18v0h.18v0H207v0h.08v0h.24v0h.19v0h.2v0h.18v0H208v0h.19v0h.12v0h.3v0h.52v0h.55v0h.2v0H210v0h.27v0h.53v0H211v0h.15v0h.57v0h.47v0h.36v0H213v0h.18v0h.18v0h.12v0h.09v0h.14v0h.15v0H214v0h.25v0h.14v0h.14v0h.18v0h.15v0h.21v0h.3v0h.18v0h.34v0h.15v0h.2v0h.09v0h.15v0h.2v0h.15v0H217v0h.14v0h.2v0h.12v0h.09v0h.08v0h.07a.17.17,0,0,1,0-.07h-.39v0H217v0h-.18v0h-.18v0h-.24v0h-.14v0H216v0h-.14v0h-.24v0h-.21v0h-.18s0,0,0,0v0h-.09v0h-.4v0h-.18v0h-.12v0h-.12v0H214v0h-.39v0h-.47v0h-.38v0h-1v0h-.17v0h-.27v0h-1c-.17,0-.8-.38-.83-.71-2.06,0-3.52.06-5.65.07-.43,0-1.36-.33-1.54-.78a7.73,7.73,0,0,1-.57-3.13c0-.56,1.05-1.38,1.52-1.46,0-.06,0-.2,0-.32h-.14v0h-1.87v0h-1v0h-.25v0h0v-.12h.08v0h.45v0h1.07v0h.12v0h0v0h1.46v0h.09c0-.11,0-.45,0-.56l-.3,0c-.12-.21-.06-.27-.08-.43-.92,0-1-1.41-1-2.05-.08-1.47-.23-5.07.27-6.34a1.66,1.66,0,0,1,1.19-1c0-.23.62-.54.86-.54,0-.38,1.17-.43,1.29-.24.11-1.74,0-4,0-5.53,0-.74,14.73-2.16,21.47-2.93.53-.9,4.08-7.44,5.9-6.05,3.78-.75,7.19-1.44,10.83-2.18,0,0,3.73-3.68,3.76-3.68,1.92-.08,5.27-.2,5.92-.2,0,0,2.29.49,2.5.49.05,1.26.09,2.2.18,3.59,1.22.78,6.67,4.36,7.49,4.81,7.61-.89,13.4-1.84,21.38-1.84.64,0,.7.27.71.27,0,1.49-.07,3-.12,4.51a1.4,1.4,0,0,1,1.44.76,2.43,2.43,0,0,1,0,.83c-.27.69-2.23,2.14-2.23,2.21-1.8,1.13-3.51,5.66-4.09,6.88H281v0h0v0h0c0-.09.07-.2.14-.2v0h0v0h.06v0h0a.78.78,0,0,1,0-.32h.06v0h.08v0H282v0h0v0h0a4.37,4.37,0,0,1,0,.56h.12v0h.12v0h.12v0h.06v0h0a.15.15,0,0,0,0,.07h.06v0h0v0h0v0h0a1.44,1.44,0,0,0,.06.17h0a.15.15,0,0,0,0,.07h0v0h0v0h0v0h.18a.3.3,0,0,0,0,.08h0a.17.17,0,0,0,0,.08h-.2v0h-.06v0h-.06v0h0v0h-.06v-.08h0c0-.07-.06-.13-.08-.19h0a.3.3,0,0,1,0-.08h-.06v0h0v0h0v0h0v0h-.15v0h-.24v0h-.06a.3.3,0,0,1,0-.08h0c0-.18,0-.34,0-.51h-.15a1.67,1.67,0,0,0,0,.24.36.36,0,0,0,0,.12h-.08v0h-.12v0h0a.35.35,0,0,0,0,.12h0v0h0v0h-.06a.36.36,0,0,0,0,.12h0v0H281v0h-.14v0h-.07v0h0a.15.15,0,0,0,0,.07h0v0h0v0h-.06c-.06.15-.12.31-.17.47a.36.36,0,0,0,0,.12h0v0h-.07v0h-.06v0h0v0h-.06v0h-.18v-.12h0v-.2h0v0h-.09v0h-.33v0h-.11v0h-.06a1.32,1.32,0,0,0,0,.2h0a.93.93,0,0,1,.06.51h0v0h0v0h0v0h0v0h-.06v0h0v0h0v0h0v0h0l-.14.47h0a.17.17,0,0,0,0,.08h0v0h0v0h-.07v0h-.11v0h-.13v0h-.3v0h-.06v0H278v0h-.11a3,3,0,0,1-.12.63h0a.17.17,0,0,0,0,.08h-.06v0h-.06v0h-.06v0h-.06v0h-.06v0h-.07v0h-.11v0h-.07v0H277v0H277c0,.11,0,.19-.08.31h0a1.4,1.4,0,0,0,0,.24h0a1.17,1.17,0,0,0,0,.52h0v0h.07a1.09,1.09,0,0,0,0,.2h0a.37.37,0,0,0,0,.12h0v0h-.07a.35.35,0,0,0,0,.12h0a.17.17,0,0,0,0,.08h0a.35.35,0,0,0,0,.12h0v0h0v0h-.06v0h-.09v0H276v0h-.32v0h-.09v0h-.08v0h-.06v0h-.08a0,0,0,0,1,0,0v.07s0,0,0,0h-.2v0H275v0h-.14v0h-.09v0h-.12v0h-.08v0h-.07v0h-.08v0h-.08v0h-.06v0h0v0h-.08v0h-.06v0H274v0h-.2v0h-.25v0h-.26v0h-.38v0h-.42v0h-.13v0h-.08v0H272v0h-.3v0h-.3v0h-.27v0H271v0h-.12v0h-.12v0h-.08v0h-.08v0h-.06v0h-.09v0h-.08v0h-.12v0h-.06v0h-.07v0H270v0H270v0h-.06v0h-.14v0h-.12v0h-.14v0h-.15v0h-.2v0H269v0h-.3v0h-.33v0h-.21v0H268v0h-.15v0h-.26v0h-.36v0H267v0h-.14v0h-.15v0h-.47v0h-.18v0H266v0h0v0h.21v0h.2v0h.14v0h.12v0h.24v0h.33v0h.18a1.78,1.78,0,0,0,0,.24h-.23v0h-.42v0h-.15v0h-.2v0h-.12v0h-.27v0h-.24v0h-.2v0h-.13v0h-.12v0h-.23v0h-.25v0h-.23v0h-.27v0h-.18v0H264v0h-.23v0h-.3a0,0,0,0,0,0,0v0h-.71v0h-.59v0h-.24v0h-.2v0h-.21v0h-1v0h-.57v0h-.14v0h-.32v0h0v0h-1.16v0h0v0h-.27v0h-.2v0h-.24v0h-.27v0h-.09v0h-.24v0h-.14v0h-.15v0h-.14v0h-.12v0h-.09v0h-.06v0h-.08v0H256v0H256v0h-.12v0h-.06v0h-.08v0h-.07v0h-.08v0h-.08v0h-.06v0h-.06v0h-.09v0h-.09v0h-.08v0H255v0h-.11v0h-.07v0h-.08v0h-.12v0h-.12v0h-.08v0h-.09v0h-.09v0h-.11v0h-.07v0h-.11v0h-.09v0h-.06v0h-.09v0h-.11v0h-.09v0h-.08v0h-.13v0h-.12v0H253v0h-.12v0h-.12v0h-.09v0h-.08v0h-.32v0h-.09v0H252v0h-.15v0h-.18v0h-.18v0h-.14v0h-.09v0h-.09v0H251v0h-.09v0h-.09v0h-.11v0h-.09v0h-.06v0h-.09v0h-.08v0h-.12v0h-.09v0h-.08v0H250v0h-.11v0h-.12v0h-.06v0h-.06v0h-.07v0h0v0h-.07v0h-.08v0h-.06v0h-.06v0h-.06v0h0v0h-.06v0h0v0h0v0h0v0h-.08v0h0v0h-.08v0h0v0h-.08v0h0v0h-.06v0h-.06v0h0v0h0v0h-.06v0h-.06v0h-.08v0h-.06v0h-.07v0H248v0h-.07v0h-.08v0h-.12v0h-.09v0h-.11v0h-.07v0h-.11v0h-.09v0H247v0h0a.37.37,0,0,1,0-.12h.06v0h0v0h.09v0h.09v0h.08v0h.12v0h.09v0h.11v0h.12v0h.09v0H248v0h.09v0h.06v0h.06v0h.08v0h0v0h0v0h0v0h0v0h.06v0h0v0h.06v0h.09v0h.06v0h.06v0h0v0h.06v0h0v0H249v0h0v0h0v0h.06v0h.06v0h.06v0h.06v0h.06v0h.08v0h.08v0h.06v0h.07v0h.06v0h.08v0h.09v0H250v0h.09v0h.08v0h.06v0h.09v0h.11v0h.12v0h.09v0h.09v0h.12v0h.08v0h.12v0h.06v0h-.33v0h-.3v0h-.34v0H250v0h-.27v0h-.32v0h-.09v0h-.12v0H249v0h-.11v0h-.09v0h-.18v0h-.14v0h-.12v0h-.13v0h-.12v0H248v0h-.13v0h-.17v0h-.09v0h-.18v0h-.09v0h-.11v0h-.09v0H247v0h-.12v0h-.09v0h-.06v0h-.11v0h-.07v0h-.06v0h-.11v0h-.06v0h-.06v0h-.07v0h-.08v0h-.08v0H246v0h-.08v0h-.08v0h-.09v0h-.12v0h-.09v0h-.11v0h-.07v0h-.08v0h-.09v0h-.08v0H245v0h-.18v0h-.08v0h-.13v0h-.17v0h-.12v0h-.13v0H244v0h-.31v0h-.32v0h-.45v0h-.23v0H242v0H242a.17.17,0,0,0,0,.07h.09v0h0v0h0v0h0v0h-.13v0h-.38v0h-.26v0h-.15v0h-.06v0h-.06v0h0l0-.12h0v0h.11a.82.82,0,0,1,0-.12h-.07v0h-.28v0h-.12v0h-.09v0h-.24v0h-.36v0h-.5v0h-.15v0h-.79v0h-.12v0h-.27v0h-.09v0H238v0h-.06v0h0v0h-.07v0h-.11v0h0a.17.17,0,0,0,0,.08h-.07v0h-.17v0h-.15v0h-.5v0h-.53v0h-.15v0h-.2v0h-.21v0h-.2v0h-.09v0h-.09v0h-.12v0H235v0h-.13v0h-.11v0h-.12v0h-.07v0h-.08v0h-.09v0h-.17v0h0s0,0,0,0v0H234v0h-.14v0h-.15v0h-.18v0h-.38v0h-.65v0h-.3v0h-.26v0h-.39v0h-.45v0h-.28v0h-.19v0h-.14v0h-.09v0h-.12v0h-.12v0h-.2v0h-.21v0h-.12v0h-.24v0h-.23v0H229v0h-.24v0h-.2v0h-.3v0h-.38v0h-.18v0h-.37v0h0v0h.14v0h.07v0h.18v0H228v0h.2v0h0s0,0,0,0v0h.14v0h.24v0h.09v0h.08v0h.12v0h0v0h-.74v0H228v0h-.14a0,0,0,0,0,0,0v0h-.17v0h-.49v0h-.36v0h-.3v0h-.23v0h-.27v0h-.21v0h-.2v0h-.09v0h0v0h-.09v.08h0v0h-.11v0h.08v0h-.09a.17.17,0,0,0,0,.08h-.12v0H225v0h-.12v0h-.28v0h-.13v0h-.23v0H224v0h-.82v0h-.06v0h-.15v0h-.2v0h-.13v0h-.17v0h-.18v0H222v0h-.37v0h-.17v0h-.07v0h-.11v0h-.18v0H221v0h-.18a.18.18,0,0,0,0,.08h0v0h-.06v0h-.07v0h-.42v0H220v0h-.27v0h-.06v0h-.2v0h-.31s0,0,0,0v0H219v0h-.62v0h-.13v0h-.17v0H218v0H218v0h-.09v0h-.12v0h-.12v0h-.17v0h-.13v0H217v0h-.18v0h-.17v0h-.18v0h-.15v0h-.18v0H216v0h-.49v0h-.23v0h-.18v0H215v0h-.18v0h-.09v0h-.15v0h-.18v0h-.14v0h-.12v0h-.32v0h-.15v0h-.15v0h-.28v0h-.3v0h-.07v0h-.2v0h-.32v0h-.24v0h-.37v0h-.24v0h-.23v0H211v0h-.11a.09.09,0,0,1,0,0v0h-.26v0h-.06s0,0,0,0v0h-.13v0h-.17v0H210a0,0,0,0,1,0,0v0h-.38v0h-.47v0h-.24v0h-.21v0h-.2v0h-.15v0h-.3v0h-.2v0h-.14v0h-.15v0h-.26v0H207v0h-.17a0,0,0,0,0,0,0v0h-.06v0h-.3v0h-.14v0h-.14v0H206v0h-.18v0h-.27v0h-.26v0h-.06v0h-.12v0h-.21v0h-.18v0h-.24v0h-.24v0h-.09v0H204v0h-.14v0h-.2v0h-.15v0h-.09v0h-.23v0H203v0h-.33v0h-.24v0h-.15v0h-.18v0h-.24v0h-.12v0Zm.83-1.22v0h-.18v0h-.33v0h-.11v0h-.12v0h-.13v0H201v0h0v0h0v0h-.52v0h0v0h-.12v0h-.36v0h-.69v0h-.11v0H199l0-.12h.17v0h.18v0h.75v0h.65v0h.08v0h0v0h.57v0h.11v0h.24v0H202v0h.78v0H203v0h.21v0h.2v0h.18v0h.18v0h.13v0H204v0h.14v0h.12v0h.14v0h.21v0h.21v0h.44v0h.2v0h.27v0h.18v0h.3v0h.24v0h.18v0h.26v0h.18v0h.31v0h.18v0h.14v0h.09v0H208v0h.18v0h.19v0h.18v0h.06v0H209a.4.4,0,0,1,0,.24h-.12v0h-.26v0h-.27v0h-.15v0H208v0h-.19v0h-.24v0h-.12v0h-.14v0h-.26v0h-.36v0h-.18v0h-.24v0h-.15v0h-.27v0h-.32v0h-.15v0h-.18a.06.06,0,0,0,0,0v0h-.08v0h-.42v0h-.25v0h-.14v0h-.09v0h-.12v0H204v0h-.12v0h-.2v0h-.24v0h-.13v0H203v0h-.3v0h-.51v0Zm25.21,0v0h-.14a.35.35,0,0,1,0-.12h.06v0h0v0h0v0h0v0h.06v0h.08v0h.12v0h.18v0h.36v0h.25v0h.14v0h.15v0h.14v0h.14v0H229v0h.13v0h.14v0h.14v0h.13v0h.17v0h.19v0h.14v0h.15v0h.17v0h.21v0h.33v0h.24v0h.26v0h.36v0H232v0h.34v0h.18v0h.3v0H233v0h.3v0h.2v0h.21v0H234v0h.14v0h.15v0h.12v0h.09v0h.12v0h.12v0h.12v0H235v0h.17v0h.18v0h.18v0h.15v0h.15v0H236v0h.19v0h.23v0h.25v0h.17v0H237v0h.14v0h.13v0h.11v0h.19v0h.17v0H238v0h.3v0h.26v0h.26v0H239v0h.15v0h.24v0h.26v0h.15v0H240v0h.18v0h.14v0h.12v0h.19v0h.26v0h.27v0h.2v0h.21v0h.23v0H242v0h.19v0h.14v0h.18v0h.14v0h.21v0h.2v0h.15v0h.09v0h.17v0h.12v0h.12v0h.09v0h.12v0h.06v0h.15v0h.08v0h.08v0h.07v0h.08v0h.08v0h.07v0h.08v0h.08v0h.07v0h.08v0H245v0H245v0h.09v0h.08v0h.07v0h.12v0h.08v0h.08v0h.09v0h.09v0h.08v0h.09v0H246v0h.12v0h.09v0h.12v0h.08v0h.21v0h.06V98h0v0h-.08v0h-.09v0h-.09v0h-.17v0h-.13v0H246v0h-.11v0h-.06v0h-.07v0h-.11v0h-.13v0h0v0h-.09v0h-.08v0h-.07v0h-.11v0H245v0H245v0h-.08v0h-.08v0h-.09v0h-.09v0h-.08v0h-.06v0h-.06v0h-.09v0h-.08v0h-.14v0H244v0h-.12v0h-.08v0h-.12v0h-.09v0h-.15v0h-.14v0h-.12v0H243v0h-.18v0h-.28v0h-.12v0h-.19v0h-.08v0h-.3s0,0,0,0v0h0v0h-.12v0h-.15v0h-.26v0h-.15v0h-.28v0h-.12v0h-.06v0h-.06v0h-.13v0h-.17v0h-.13v0H240v0h-.24v0h-.18v0h-.2v0h-.09v0H239v0h-.21v0h-.28v0h-.18v0H238v0h-.2v0h-.21v0h-.15v0h-.18v0h-.18v0h-.17v0h-.09v0h-.2v0h-.27v0h-.2v0H236v0h-.18v0h-.18v0h-.17v0h-.13v0h-.23v0H235v0h-.17v0h-.13v0h-.12v0h-.11v0h-.12v0h-.09v0h-.15v0H234v0h-.2v0h-.19v0h-.28v0h-.24v0h-.24v0h-.21v0h-.36v0h-.2v0h0s0,0,0,0v0h-.25v0h-.28v0h-.33v0h-.2v0h0v0h-.06v0h-.21v0h-.2v0h-.15v0h-.12v0H230v0h-.15v0h-.17v0h-.18v0h-.13v0h-.2v0h-.12v0H229v0h-.14v0h-.12v0h-.24v0h-.14v0h-.18v0h-.37v0h-.2v0h-.14v0h-.07v0h0a.18.18,0,0,0,0,.08ZM200,102.08V102h.06v0h.06v0h0v0h0v0h.06a.3.3,0,0,1,0-.08h-.12v0H200v0h-.12a.52.52,0,0,1,0-.12h.06a.06.06,0,0,1,0,0v0h.25v0h.12v0h.11v0h.13v0h.17v0h.06l0-.2h.09v0h.06v0h0v0H201v0h.23v0h.24v0h.37v0H202v0h.14v0h.31v0h.24a.17.17,0,0,1,0-.08h0v0h0v0h.07v0h.06v0h.59v0h0v0h.69v0h0a.37.37,0,0,0,0,.12h-.42v0h-.64v0H203v0H203a1,1,0,0,0-.06.2h-.06v0h-.12v0h-.47v0h0v0H202v0h-.18v0h-.25v0h-.46v0H201v.08H201v0h.36v0h.24v0h.09v0h.08v0h0a.17.17,0,0,0,0,.08h0v0h-.21v0h-.24v0h-.06v0h-.14v0h-.56v0h-.13v0h-.12v0h-.08v0h-.06v0Zm-.57-.12v0h-.06v0h0a.17.17,0,0,1,0-.07h0v0h0v0h-.18v.08h-.18v0h-.06v0h0v0h-.36v0h-.12v0h0a1.1,1.1,0,0,1,0-.15h0v0h.06v0h.07v0h.11v0h.13v0h.18v0h0v0h0a.17.17,0,0,0,0,.07h.13v0h.18v0h.18s0,0,0,0v0h0a1.09,1.09,0,0,1,0-.2.56.56,0,0,1-.07-.36h-.18v0h-.12v0h-.07v0h0a.44.44,0,0,1,0-.12h.06v0h.59v0h.13l0,.15a.35.35,0,0,0,0,.12h0a1.09,1.09,0,0,0,0,.36l-.07.36h-.09l0,.2Zm4.43-1.34c-1.69.29-2-2.76-1.72-3.73a1.66,1.66,0,0,1,1.12-1,7,7,0,0,0,.59,4.24.32.32,0,0,0,.36,0,7,7,0,0,1-.62-4.39c.13,0,.18-.07.32-.12a6.12,6.12,0,0,0,.59,4.43c.1.13.37.16.45,0a6.24,6.24,0,0,1-.72-4.53c.58-.13,1.47-.32,2.17-.42,0,.17.26,1,.29,1.18-.16,1.09.76,2.55,1.37,3.42.06,0,.06.14.27.06-.18-.62-1-1.36-1.24-2.39a11.93,11.93,0,0,0,2.53,3.08c-2.06,0-3.83.08-5.75.08Zm7,0c-.55-1.59-2-5.76-2.74-7.79,5.84,0,56-6.25,75.63-13.4-1.37,1.31-3.1,5.95-3.51,7a4.64,4.64,0,0,0-.59-.12v0h-.15v0h-.14v0h0v0h-.06v0h-.06v0h-.06v0h0v0h0a2,2,0,0,0,0,.27h0a.79.79,0,0,1,.09.47h0v0h0v0h0v0h0v0h0v0h0v0h0v0h0c-.07.15-.14.31-.2.47h0a.17.17,0,0,0,0,.08h-.06v0h-.09v0h-.18v0h-.18v0h-.26v0h-.12v0h0v0h0c-.06.21-.11.44-.15.66a40.62,40.62,0,0,1-13.74,4s-3.18-.08-3.37-.08v0h-.51v0h-.56v0H258v0h-.24v0h-.24v0h-.28v0H257v0h-.18v0h-.15v0h-.15v0h-.12v0h-.11v0h-.07v0h-.08v0H256v0H256v0h-.07v0h-.08v0h-.08v0h-.07v0h-.06v0h-.08v0h-.06v0h-.08v0h-.09v0h-.08v0h-.07v0H255v0h-.07v0h-.08v0h-.06v0h-.08v0h-.12v0h-.12v0h-.12v0h-.06v0h-.12v0h-.07v0h-.06v0h-.11v0h-.12v0h-.12v0h-.12v0h-.09v0h-.09v0h-.08v0h-.14v0h-.07v0h-.17v0h-.09v0h-.14v0h-.21v0H252s0,0,0,0v0h-.37v0h-.2v0h-.08v0a14.13,14.13,0,0,0-4.33.95c-4.88.73-34.59,5-36.17,4.95Zm8.84,0v0h.14v0Zm-9.25,0a7.8,7.8,0,0,1-3.06-3.27c-.51-1.6-1.26-4.3-1.59-5.78a13.35,13.35,0,0,0,1.95,1.31c.52,1.56,2.72,7.75,2.71,7.75Zm9.53,0v0h.18v0h.12v0h.18v0h.23v0h.42a.17.17,0,0,0,0,.07H221v0h0v0h-.06v0h-.08v0h-.08v0h0v0h-.18v0Zm-19.47-.31v0h-.12v0h-.12v0H200v0h-.3v0h-.11a.23.23,0,0,1,0-.08h0v0h-.06v0H199v0h-.38v0h0v-.08h.06v0h.09v0h.38v0h.33v0h.11v0h.12a1.32,1.32,0,0,0,.06.15h.12v0h.43v0h.14v0h.12v0h.26v0h.09v0H201v0h.13v0h.23v0h.09v0h.06v0h.08v0h.06v0h.07v.12h-.24v0h-.07v0h-.14v0h0v0h-.2v0h-.15v0h-.12v0h-.06v0Zm6.85-.24a6.26,6.26,0,0,1-1.22-4.51c.07-.08.26-.11.26,0a7.05,7.05,0,0,0,1.2,4.31c0,.19-.06.23-.24.2Zm-.58.08a6.26,6.26,0,0,1-1.22-4.51c.07-.08.26-.11.26,0A7.05,7.05,0,0,0,207,99.9c0,.19-.06.23-.24.2Zm-.58.08a6.26,6.26,0,0,1-1.22-4.51c.07-.08.26-.11.26,0a7.05,7.05,0,0,0,1.2,4.31c0,.19-.06.23-.24.2Zm-.7,0a6.13,6.13,0,0,1-1-4.46c.07-.07.26-.1.26,0a6.91,6.91,0,0,0,1,4.26c0,.18-.07.23-.24.19Zm-2,.15a5.71,5.71,0,0,1-.71-4c.06-.06.22-.08.21,0a6.45,6.45,0,0,0,.7,3.78c0,.16-.06.2-.2.16Zm-.58-.09a5.37,5.37,0,0,1-.59-3.42c0-.05.17-.07.16,0a6.07,6.07,0,0,0,.58,3.27c0,.14,0,.17-.16.14Zm54.93-.38v0h-.06v0h0v-.17h.08v0h.12v0h.32v0h.31v0h.23v0H259v0h.42v0h.23v0h.13v0h0a.52.52,0,0,1,0-.12h-.15v0h-.44v0H259v0h-.12v0h-.3v0h-.13v0h-.11v0h-.12v0h-.63v0h-.14v0h-.07v0h-.06a.17.17,0,0,0,0,.08h0v0h0v0h0a.17.17,0,0,0,0,.07h-.06v0h-.21a.52.52,0,0,1,0-.12h0v0H257v0h0a.17.17,0,0,1,0-.08h0a.6.6,0,0,1,.06-.15h0v0h.06v0h.06v0h.12v0h.28v0h.3v0h.3v0h.15v0h.14v0H259v0h.11v0h.15v0h.36a.06.06,0,0,1,0,0,.09.09,0,0,0,0,0v0h.53v0h.38v0h.08v0h.07v0h.08v0h.06v0h.08v0H261v0h.06c0-.13.06-.26.09-.39h0a.17.17,0,0,1,0-.08h0a.44.44,0,0,1,0-.12h0a.15.15,0,0,1,0-.07h0a.34.34,0,0,1,0-.28h0a.17.17,0,0,1,0-.07h-.08v0h-.14v0h-.12v0h-.06v0h0l0-.19,0-.08h.08v0h.09v0h.36v0h.09v0h.08v0h.06v0h.06v0h.06v0h0v0h0v0h.15s0,0,0,0v0h.3v0h.33v0h.06a.17.17,0,0,1,0-.07h0v0h0a.17.17,0,0,1,0-.07h.06v0h0a.17.17,0,0,1,0-.07h.06v0h0v0h0v0h0a1.39,1.39,0,0,1,.06-.24H263v0h-.06a.15.15,0,0,1,0-.07h0v-.2h0v0H263v0H263v0h.09v0h.09v0h.14v0h.24v0h.06v0h.3v0h.18a.35.35,0,0,1,0-.12h.07v0h.42v0h0v0h.12a.18.18,0,0,1,0-.08h0v0h0a1.67,1.67,0,0,1,0-.24.59.59,0,0,1,0-.15h0v0h0v0h0v0h0v0h0a.92.92,0,0,1,.08-.19h0v0h.32v0h.12v0H266v0h.19v0h.08v0h.08v0h.15v0h0a.3.3,0,0,0,0,.08h0v0h-.06v0h-.06v0h-.06v0h-.06v0h-.52v0h-.12v0h-.3v0h-.06a.15.15,0,0,0,0,.07h0v0h0v0h0v0h0c0,.13,0,.26,0,.4l-.11.27H265v0h-.11v0h-.45v0h-.06l0,.12h0a.69.69,0,0,0-.06.17h0v0h-.06v0h0v0h0l-.07.19h-.12a.53.53,0,0,1,.07-.47h0v0h-.14v0h-.21v0h-.14v0h-.09v0h-.06v.07h0v0h0v0h0l0,.27h0a.69.69,0,0,0-.06.17h0v0h-.06v0h0v0h-.06v0h0v0H263v0h0v0h-.06v0h0v0h0a.6.6,0,0,0-.06.15h.15v0H263v0h.59v0h0a.17.17,0,0,0,0,.07h-.09v0h-.14v0h-.25v0H263v0h-.09v0h-.08v0h0v0h-.12v0h-.06v0h-.06V98h.06v0h0v.17h0a.17.17,0,0,0,0,.07h-.06v0h-.12v0h-.06v0h-.06v0h-.07v0h-.06v0h-.06v0h-.06v0H262v0h-.06v0h0v0h-.06v0h-.13a1.51,1.51,0,0,1,0-.24h0v0h.06v0h0v0h.06v0H262v0h.08v0h0v0h.06v0h0a.23.23,0,0,1,0-.08h0a1.39,1.39,0,0,1,0-.24h0v0h0v0h0v0h.07v0h.06v0h.08v0h.06v0h-.09v0h-.18v0h-.65v0h-.12a1,1,0,0,0,0,.2h0v0h0a.18.18,0,0,0,0,.08.49.49,0,0,1,.11.32.35.35,0,0,0,0,.12h0c0,.14-.07.28-.09.43h-.06v0h-.06v0h-.06v0h-.08v0H261v0h-.12v0h0v0h-.06v0h-.06v0h-.07v0h-.18v0h-.17v0h-.13a.35.35,0,0,0,0,.12h0v0h0v0h-.13v0h-.18v0h-.46v0h-.21v0h-.27v0h-.56v0h-.12v0H258l0,.12Zm-59.17-.55v0h-.06v0h0a.52.52,0,0,1,0-.12h.08v0h.09v0h.14v0H199v0h.13v0h.3v0h.32v0h.15v0H200v0h.06v0h.08v0h0v0h0v0h0a.17.17,0,0,1,0-.08h0v0h.08v0h.12v0h0v0h.09v0H201v0h.18v0h.07v0h0l0,.19h-.12v0H201v0h0v0h-.12v0h-.25v0h0a.15.15,0,0,0,0,.07h-.06v0h0v0h-.06v0h-.06v0h-.07v0h-.08v0H200v0h-.12v0h-.34v0h0v0h-.24v0H199v0h-.18v0h-.06v0Zm30.91-.2v0h0v0h.24s0,0,0,0a.3.3,0,0,0,0,.08h-.12v0Zm26.24-.39v0h-.26v0h-.27v0h-.62v0h-.21v0h-.14v0h-.15v0h-.06v0H254v0h-.38v0h-.15v0h-.14v0h-.2v0h-.21v0h-.33v0h-.28v0h-.09a.06.06,0,0,0,0,0v0H252v0h-.24v0h-.45v0h-.7v0h-.49v0h-.2v0h-.2v0h-.24v0h-.12v0h-.12v0h-.12v0H249v0h-.08v0h0v0h-.06v0h-.08v0h0a1.32,1.32,0,0,1,0-.2h0v0h.06v0h.08v0h.06v0H249v0h.11v0h.13v0h.28v0h.25v0h0v0h.06v0h.47v0h.43v0h.2v0h.65v0h.24v0h.3v0h.42v0H253v0h.27v0h.18v0h.17v0h.25v0h.23v0h.13v0h.12v0h.14v0h.18v0h.26v0h.57v0h.24v0h.15v0h.85v0h0a.37.37,0,0,0,0,.12h-.08v0h0s0,0,0,0v0h-.06v0h-.09v0Zm-23.18-.17a.17.17,0,0,1,0-.07h.11c0-.07.19,0,.27,0v0l.49,0v0h.32a.09.09,0,0,0,0,.06l-.25.06v0l-.94.07Zm-34.76-.63a.53.53,0,0,1,0-.13c.11,0,0-.07.19-.07v0l.53,0v0h.14v0l.25,0c0-.07,0,0,.11,0v0l1,0a1.54,1.54,0,0,1,.12-.18h0c0-.18.11-.18.2-.2s.06,0,.15,0v0l.28,0c0-.07.07,0,.14,0v0l.3,0v0h.08a1.32,1.32,0,0,0,0,.2l-.11,0v0l-.47.07v0c-.34,0-.42.13-.55.4a.06.06,0,0,0,0,0v0l-1.31.07v0l-.31,0a0,0,0,0,0,0,0c0-.07-.23,0-.28,0v0l-.52,0ZM260,97.42v0h-.15v0h-.33v0h-.14v0h-.26v0H259v0h-.21v0h-.24v0h-.23v0h-.13v0H258v0h-.09v0h-.12v0h-.14v0h-.12v0h-.13v0h-.11v0h-.15v0H257v0h-.09v0h-.23v0h-.39v0h0v0h-.56v0h-.24v0h-.2l0,.12h0a.17.17,0,0,0,0,.08h-.08v0H255v0h-.12v0h-.06v0h0a2,2,0,0,1,0-.27h0v0h.07v0H255v0h.18v0h.38v0h1.08v0h0v0h.12v0h.15v0h.14v0h.12v0h.19v0h.17v0h.12v0h.13v0h.14v0H258v0h.12v0h.11v0h.15v0h.12v0h.2v0h.18v0h.19v0h.17v0h.3v0h.27v0h.2v0h.09v0h0a.52.52,0,0,0,0,.12h0v0Zm.76-.59v0h-.11v0h-.06v0h0v0h0l-.14-.43h0v0h-.11v0H260v0h-.3v0H259v0h-.49v0h0v0h-.07v0h-.32V96h0v0h.18v0h.11v0h.12v0h1.2v0H260v0h.15v0h.2v0h.09v0h.06a.3.3,0,0,0,0,.08h0l.14.39h0v0h.06v0h.91v0h.18a.35.35,0,0,0,0,.12h0v0h-.12v0h-.23v0Zm7-.44v0h-.11v0h-.15v0h-.09v0h-.06v0h0a1.32,1.32,0,0,1-.06-.15h-.06v0h0v0h0a1.1,1.1,0,0,1,0-.15h.06v0h.17v0h.39v0h0a1,1,0,0,0-.06.2h0v.08h0v0h.12v0h.08v0h.06v.15Zm1.66-.08v0h0l.11-.36h0v0h.06v0h.14v0h.3v0h.15l0-.12h.26v0h.09v0h.08v0h0v0h0v0h0v0h0v0h.06v0h.28v0h.21a.17.17,0,0,1,0-.08h0v0h.08v0h.12v0h.12v0h.12v0H272v0h.34v0h.37v0h0v0h.09a.17.17,0,0,0,0,.08h0v0h-.2v0h-.13v0h-.23v0h-.18v0h-.19v0h-.32v0h-.09v0h-.11v0h-.15v0H271v0h-.31v0h-.08v0h-.06v0h0v0h0v0h0v0h-.06v0h-.08v0h-.09v0h-.15v0h-.18v0h-.18v0h-.06a.69.69,0,0,0-.06.17h0v0h0v0Zm-69.63-.19v0h-.59v0h-.3v0h-.21v0h-.08v0h-.21v0h0v0h0v0h0v0h.07v0h.17v0h.18v0h.42v0h.63v0h.38v0h.27v0h.15v0h.46v0h.13v0h.06v0h0v0h.47v0h.3v0h.27v0h0a.82.82,0,0,0,0,.15h0v0h-.26v0H202v0H202v0h-.28v0h-.13v0h-.2s0,0,0,0v0h0v0h-1.19a.06.06,0,0,0,0,0v0h0v0Zm3.84-.71a.37.37,0,0,1,0-.09.17.17,0,0,1,0-.07h.06v0h.21a.52.52,0,0,0,0,.12l-.18,0v0Zm0-.44v-.61l.26-.07c0,.19,0,.45,0,.64l-.28,0Zm60.75,0v0h-.81v0h-.33v0H263v0h-.26v0h-.21s0,0,0,0,0,0,0,0v0h-.3v0h-.19v0h-.2v0h-.18v0h-.14v0h-.15v0h-.09v0H261v0h-.15v0h-.28v0H260v0H260v0h-.38v0h-.3v0h-.08v0h-.12v0h0v0H259v0h-.06l0-.2h0v0H259v0h.08v0h.14v0h.25v0h.06v0h.42v0H260v0h.56v0h.31v0h.18v0h.18v0h.17v0h.09v0h.15v0h.18v0h.2v0h.32v0h.18v0h.24v0h.33v0h.42v0h.85v0h.25v0h0v.12h0v0h0v0Zm-60.13,0a5.81,5.81,0,0,1,0-.72s.12,0,.19,0a.54.54,0,0,0,0-.53l-.19,0c0-.34-.07-.83-.07-1.17l.19,0a.57.57,0,0,0,0-.51s-.13,0-.2,0c0-.31,0-.65,0-1l.21-.08a.5.5,0,0,0,0-.45c-.06,0-.12,0-.17,0,0-.32,0-.74,0-1h.22a4.27,4.27,0,0,0,.84,1.44c.4,1.17.67,2.55,1,3.76-.7,0-1.36.24-2,.24Zm65.26,0v0h-.14v0h0v-.17h.26v0h.07v0h.06a.37.37,0,0,0,0,.12h-.06v0Zm-3.32,0a1.32,1.32,0,0,1,0-.2h.08v0h0v0h.17v0h.24v0h.13v0h.2v0h.09v0h.12v0h.58v0h.09v0h.18v0h.08v0h0a.17.17,0,0,1,0-.08h.06v0h.06v0h.15v0h.21v0h.18v0h.2v0h.36v0h.12v0h.12v0h.08v0h.07v0h1.31v0h0v0h0a.17.17,0,0,0,0,.07h0v0h-.42v0h-.15v0h-.26v0h-.18v0h-.3v0h-.06v0h-.3v0h-.08v0H269v0h-.15v0h-.15v0h-.12v0h-.11v0h0v0h0v0h0v0h-.13v0H268v0h-.17v0h-.55v0h-.11v0H267v0h-.2v0h-.14v0h-.12v0h-.15v0h-.15v0Zm4.81,0v0h-.21a1.62,1.62,0,0,1,0-.2h.06v0h.06v0h.23v0h.19v0h.18v0h.18v0h.23v0h.21v0h.06s0,0,0,0v0h0v0h.14v0h.19v0h.06v0h0l0-.12h.2a1.4,1.4,0,0,0,0,.24h-.06v0h0v0h0v0h-.08v0h-.09v0h-.34v0h-.33v0h-.18v0h-.24v0Zm-6.05-.27v0h-.2v0h-.31v0h-.3v0h-.2v0h-.12v0h-.14v0h-.13v0h-.11v0h-.07v0h-.08v0h-.08v0h-.12v0H263v0h-.12v0h-.55v0h-.46v0h-.13v-.19h0v0h.12v0h1v0h.23v0h.12v0h.12v0h.09v0h.06v0h.08v0h.09v0h.12v0h.15v0h.18v0h.24v0h.18v0h.34v0H265v0h.14v0h0l0,.17Zm6.49-.56v0h-.23v0h-.12v0h-.18v0h-.12v0h0v0h0v0h0v0h0a.17.17,0,0,1,0-.07h-.06v0h0v0h-.14v0h-.06v0h-.06a0,0,0,0,0,0,0v0h-.32v0h-.18v0h-.21v0h-.32v0h-.09v0h-.18v0h-.12v0h-.26v0h-.18a.17.17,0,0,0,0,.07h0a.17.17,0,0,0,0,.08h-.06v0h-.15v0h0a.82.82,0,0,1,0-.15h.06l0-.12h0v0h0v0h.12v0h.26v0h.18v0h.18v0h.15v0h.14v0h.24v0h.12v0h0v0h0v0H270s0,0,0,0v0h.13v0h.53v0h.06v0h0v0h0a.3.3,0,0,0,0,.08h0c0,.06,0,.12.08.19h.18v0h.13v0h.24v0h.12v0h.08l0,.2h0v0h-.09v0h-.14v0Zm-67.81-.24a3.16,3.16,0,0,1,0-.47c.1,0,.15,0,.28,0s0,.32,0,.45l-.28,0Zm-.94-.2c-.64-.32-.66-6.06-.33-7.56,0,0,.1-.31.13-.31,0,1.34-.08,3.19-.1,4.79a11.18,11.18,0,0,0,.23,2.24,1,1,0,0,0,.67.56c0,.31,0,.07,0,.4a1.49,1.49,0,0,1-.62-.12Zm69.17-.43v0h-.07v0h0a.23.23,0,0,1,0-.08h-.28v0h0v0h0v-.17h.09v0h.06v0h.2v0H272v0h0v.08h.18v0h.15a.52.52,0,0,0,0,.12h0v0h-.43v0Zm-.75-.08v0h-.26v0h-.12v0h-.07v0h-.06v0h-.06v0h0a.45.45,0,0,1,0-.12h0v0h.06v0h.15v0h.14v0h.06v0h.12v0h.06v0h.09v0h.06v0h0V93h0v0Zm3.35,0v0h-.14v0h-.26v0H274v0h-.18v0h-.07v0h0a.23.23,0,0,1,0-.08h0l0-.24h0v0h-.06a.34.34,0,0,1,0-.2h0v0h.24v0h.14v0h0c.06.13,0,.14,0,.32h0v0h.18v0h0v0h0v0h.15v0h.14l0,.19h0v0Zm-70.77-.08v0h-.08v-.12h0v0h.06v0h.06v0h.11a2.19,2.19,0,0,0,0,.27Zm-.54-.17c-.75.16-.41-6.33-.3-7.48a1.69,1.69,0,0,1,.5-.32c0,.14-.05.46-.06.62l-.2.05a.53.53,0,0,0,0,.43h.13c0,.41,0,.73,0,1.14a.7.7,0,0,1-.12.07.49.49,0,0,0,0,.58.58.58,0,0,0,.18,0V89.3a.68.68,0,0,1-.26,0,.55.55,0,0,0,.06.49h.18c0,.31,0,.69,0,1l-.19.06c-.07.05-.11.52,0,.51a1.51,1.51,0,0,0,.17,0v1l-.18,0a.55.55,0,0,0,0,.42Zm73.4-.07v0h-.12v0h-.27v0H276v0h-.06c0-.11-.06-.21-.08-.31h-.09v0h-.06v0h0a1.09,1.09,0,0,1,0-.2h.06v0H276v0h.18v0h0c0,.13,0,.26,0,.39h.23v0h.07v0h.06v0h0v0h.06v0h.06v0h.07v0h0a.36.36,0,0,0,0,.12Zm-1.7-.08v0h-.06v0h-.15v0h0v-.15h.11v0h.18v0H275v0h.07a.71.71,0,0,1-.06.31Zm-71.29-.43c0-.35,0-.61,0-.93l.25-.06c0,.3,0,.62,0,.91a1.31,1.31,0,0,1-.29.08Zm73.84,0v0h-.08v0h-.07a.3.3,0,0,1,0-.08h0c-.08-.23-.07-.27,0-.39h0v0h.06v0h.08v0h.27v0h0a.23.23,0,0,0,0,.08h0l.07.24h0v0h.24a.7.7,0,0,0,0,.17h-.24v0h-.06v0h-.14v0h-.06a1.69,1.69,0,0,1-.06-.19h0v0h0v0h-.06l0,.19h.06l0,.17Zm-2.61,0v0h-.06a.82.82,0,0,1,0-.15h.06v0H275v-.15h.08v0h.12v0h.09v0h0v0h.06a.35.35,0,0,0,0,.12h0v0h-.12v0h0v0h-.06v0h-.07v0Zm4.09-.36v0h0a1.21,1.21,0,0,1,0-.51h.06v0h0v0H279v0h0v0h.06v0h.17v0h.36v0h.12v0h0v0h.09v0H280v0h.06v.12h0v0H280v0h-.11v0h0v0h-.08v0h-.15v0h0a1.1,1.1,0,0,1,0-.15h-.21v0h-.09v0h-.06v0h0v0h0v0h0l-.11.36ZM204.8,89a2,2,0,0,1-.18-1.15c.06-.64.06-3,.7-3,.2.76,2.5,3.06,3.13,3,10.59-1.26,17.87-2.21,29-3.63,0,0,.15-.42.18-.55h.49a7.16,7.16,0,0,0,1.07.63c2.16-.24,4.37-.51,6.86-.9,0-.23,0-.36-.05-.61.28,0,.68-.08,1-.12,0,.21.06.49.06.61h.18c.05.63.15,1.62.23,2.32.12.1.2.06.26,0-.05-.83-.14-1.57-.19-2.3,2.5-.46,7.72-1.2,9.33-1.46.07.67.11,1.33.18,2.1a.15.15,0,0,0,.26,0c-.05-.84-.14-2-.24-3,.22,0,.56-.1.87-.1,0,0,0,.52.08.84,2.65-.26,6-.76,7.85-1,.07.58.14,1.15.18,1.73.11.1.17.1.23,0-.05-.73-.09-1.35-.11-1.85.23-.05.16-.52,0-.52,0-.14,0-.49,0-.71h.14v0h.13v0h.14v0H267v0H267v0h0v0h.06a.3.3,0,0,0,0,.08h.06v0h.06v0h.07v0h.06a.7.7,0,0,0,0-.36c2.09-.42,4.51-.93,6.64-1.38.15,1,.23,1.89.36,2.92a.21.21,0,0,0,.31,0c-.1-1.08-.22-2.06-.35-3,1.79-.39,4.46-1,6.37-1.51a.67.67,0,0,0,0,.32c.46.07,1,.13,1.54.15-.08.47-.32,1.59-.44,2.18a.2.2,0,0,0,.3,0c.22-1,.48-2.21.7-3.21.34-.12.57-.15.91-.26h1.62c0,.44-.06,1-.09,1.52a.18.18,0,0,0,.27,0c0-.51.08-1,.12-1.49.53,0,1.12.17,1.21.78,0,1-2.23,2.73-3.27,2.73-14.07,4.35-50.29,10.44-75.83,13.07a8.49,8.49,0,0,1-3-2.94Zm75.9,2.61v0h-.09v-.12h.06v0h.2v0h.36v0h.06v0h.06v.12h0v0h-.09v0h-.47a.06.06,0,0,0,0,0Zm-77.15-.86c0-.4,0-.73,0-1a1.76,1.76,0,0,1,.27-.08c0,.28,0,.6,0,1-.08,0-.15.06-.28.08Zm78.68-.21v0h-.11v0h-.06v0H282v0h0v0h0v0h0v0h0v0h0v0h0l-.07-.28h-.08v0h-.15v0h-.08v0h-.06v0h-.06v0h0v0h-.06a.44.44,0,0,1-.06-.27h0v0h.21a.84.84,0,0,1,0-.17h0v-.07h-.07v0h-.12v0H281v0h0c-.06-.19-.06-.25,0-.36h.13a1.1,1.1,0,0,0,0,.15h0a.3.3,0,0,0,0,.08h0v0h.09v0h.11v0h0a1.33,1.33,0,0,0,.06.15h.06c0,.08.08.18,0,.27h-.07v0h-.08v.12h0v0h.06v0h.08v0h.12v0h.14v0H282v0h.06v.27h0v0h0v0h0v0h0v0h0v0h.06v0h.11v0h.27v0h.12v0h.14v0H283v0h.08v0h.13v0h.17v0h.07v0h.38v0h0v.12h0v0h-.45v0h-.11v0h0v0h-.15v0H283v0h-.09v0h-.09v0Zm-3.94-.08v0h-.06v0h0v0h0c0-.12-.07-.14-.07-.24h-.23v0h-.12v0h-.09v0h-.06v0h-.08V90.1h0v0h.06v0h.07v0h.12v0h.14v0h.2v0h.13v0h.06c0,.12,0,.24.08.36h.47v0H279v0h.09v.12h0v0h-.18v0Zm2.61,0v0h-.26v0h-.06v0h-.06v0h-.06v0h0v0h0a1.1,1.1,0,0,1,0-.15h0v0h.19v0h.11v0h0v0h.06v0h.09v0H281v0h.08a.45.45,0,0,0,0,.12h0v0H281v0Zm-68.54-.12A3.08,3.08,0,0,1,212.3,89a13.74,13.74,0,0,1,2.78-.27,2.06,2.06,0,0,1,0,1.21,11.31,11.31,0,0,1-2.73.36Zm9.43-1.27a3.08,3.08,0,0,1-.06-1.31,13.74,13.74,0,0,1,2.78-.27,2.06,2.06,0,0,1,0,1.21,11.31,11.31,0,0,1-2.73.36ZM233,87.51A3.08,3.08,0,0,1,233,86.2a13.74,13.74,0,0,1,2.78-.27,2.06,2.06,0,0,1,0,1.21,11.31,11.31,0,0,1-2.73.36Zm43-3.74a2.25,2.25,0,0,1,0-1,10.7,10.7,0,0,1,2.06-.42,1.52,1.52,0,0,1,0,.9,8.9,8.9,0,0,1-2,.49Zm9.84,6.45v0h-.15v0h-.11v0h-.09v0h-.14v0h0v0h-.06v0h-.06v0h0v0h-.06v0h0v0H285v0H285v0h-.11v0h-.06v0h0v0h0a1.85,1.85,0,0,1-.14-.71h-.06v0h-.06v0h-.08v0h-.06v0h-.07s0,0,0,0,0,0,0,0v0h-.12v0h-.18v0h-.07v0h-.06v0h-.06v0h0c-.11-.28,0-.46,0-.66h-.12v0h-.12v0h-.27v0h-.06a.93.93,0,0,1,0-.17h.12v0h.15s0,0,0,0v0h0v0h.17v0h.12v0h.12v0h.06v0h.07v0h0c0,.19-.08.37,0,.68h0v0h.08v0h.21v0h.14v0h.09v0h0v0h.08v0h.08v0h.06v0h.07v0h0c0,.24.06.47.09.71h0v0h.12v0h.06v0h.06v0h.06v0h.06v0h0v0h.06v0h.09v0h.08v0h.09v0h.08v0h.21v0h.06v0h0v0h0v0h0v0h-.06v0Zm-6.13,0v0h-.15v0h-.09v0h0v0h0v0h-.06v0h0v0h0a.73.73,0,0,1,0-.15h-.06v0h-.53v0h-.08a.82.82,0,0,1,0-.15h0v0h0v0h.24v0h.21v0h.2v0h.24v0h0a1.78,1.78,0,0,0,0,.24h0v0h0v0h.06v0h0v0h.36l0,.12h-.06v0h-.19v0h-.11v0h0a.06.06,0,0,0,0,0Zm4.33-.68v0H284a.3.3,0,0,1,0-.08h-.06v0h-.09v0h-.23v0h-.3v0h-.13v0h-.08a.17.17,0,0,1,0-.07h0a2.44,2.44,0,0,1-.06-.28h0v0h-.08a.36.36,0,0,1,0-.24h.08v0h.31a.3.3,0,0,0,0,.08h0a3,3,0,0,0,0,.32h0v0h.2v0h.18v0H284v0H284v0h.06v0h.06v0h0a1.51,1.51,0,0,0,0,.24Zm-4.43-.12c-.07-.21,0-.18.07-.28s-.08-.28,0-.39h.08v0l.11,0c.06-.13.2-.15.4-.15v0l.12,0a.7.7,0,0,0,0,.09.34.34,0,0,1-.26,0l-.11,0,0,.08H280c0,.15-.07.31-.09.47l-.11,0a.22.22,0,0,1-.15.12Zm-76.12-.16c0-.34,0-1.22,0-1.44l.28-.06c0,.4.06,1,.06,1.45a1.15,1.15,0,0,1-.34,0Zm77.33-.64v0h-.11v0h-.09a.93.93,0,0,1,0-.17h.24v0H281v0h.09a.52.52,0,0,0,0,.12h0v0Zm-1.53-.15v0h0a.76.76,0,0,1,0-.4h0v0h.08v0h.15v0h.12v0h0v0h0v0h0v0h.06v0h0v0h0v0H280v0h.06v0h.21v0h.11a.15.15,0,0,0,0,.07h.06v0h.06v0h.11v0h0a.17.17,0,0,0,0,.08h-.27v0h-.18v0h-.06v0h-.06v0H280v0H280v0h0a.17.17,0,0,0,0,.08h0v0h-.28v0h0a1.39,1.39,0,0,0-.06.24h-.08v0Zm2.69,0v0H282V88.2h0v0h.32v0h.06a.3.3,0,0,0,0,.08h0v0h-.06v0h-.21v0Zm-77.87.69c0-.33,0-1.13,0-1.46.11,0,.11,0,.2-.07,0,.24,0,1.08,0,1.46,0,0-.13.06-.14.06Zm76.94-1.28v0H281v-.12h.06a.63.63,0,0,1,0-.15h0v0h0v0h.2v0h.15v0h.06v0h.06v0h0v0h0a.7.7,0,0,0,0,.17h0v0h-.06v0h0v0h-.06v0h-.07a.59.59,0,0,0,0,.15h0v0Zm-72.63-.36a3.62,3.62,0,0,1-.68-.27,9.43,9.43,0,0,1,0-1.91,3.11,3.11,0,0,1,1.82.08c.25,0,.5,1.6.53,1.93a9.91,9.91,0,0,1-1.7.17Zm2.05-.2c-.08-.41-.43-2.09-.66-2.17a6,6,0,0,0-2.35,0c0,.31,0,1.36,0,1.88a23.23,23.23,0,0,1-1.67-2c0-1.71.08-3.56.1-5.29.5.7,1.48,1.89,2.53,1.89,3.09-.11,10.21-.91,10.94-1,.26,1.49.69,4.08.82,5.37-.09.17-8.62,1.34-9.68,1.34Zm-7-.12c0-.37,0-.76.07-1.1l.26,0c0,.36,0,.75-.06,1.11-.07,0-.15,0-.27,0Zm.84,0c-.07-.08-.16-.06-.24-.06,0-.38.06-.81.11-1.12h.12a.85.85,0,0,0,0-.47h-.07a2.77,2.77,0,0,1,.24-1.12.71.71,0,0,1,.47,0,.35.35,0,0,1,.15.24c-.62.09-.68,1.46-.79,2.56ZM281.16,87a.37.37,0,0,1,0-.09c.06-.18.12-.18.21-.27v0h.08v0h.24s0,0,.06,0v0l.69,0c0,.06.13,0,.18,0a.73.73,0,0,0,0,.17h-.46v0a3.22,3.22,0,0,1-.65-.07s-.07,0-.07.12h0a.37.37,0,0,0-.06.12Zm-60.27-1c-.22-1.59-.47-3.46-.78-5.37,11.5-1.88,26.18-3.8,41.42-5.86.45.29,1.77,1.4,2.79,2.3a10.4,10.4,0,0,1-1.16.12c-.69-.57-1.62-1.36-2-1.71-.87.11-2.77.35-3.82.58.08.48.22,1.35.3,2-.34,0-.54,0-.77,0l-.22-1.93c-3.65.48-7.73,1-10.26,1.34,0,.74.15,1.42.23,2.13-.21,0-.56.12-.85.12,0-.43-.17-1.27-.24-2.07-1.48.22-3.23.37-5,.56-.33.55-.83,1.44-1.51,2.51-.39,0-1,.07-1.54.07,0-.26-.09-.67-.09-.94s-1-.36-.95.07c.05,1.35.16,2.62.25,4-4.59.55-10.36,1.24-15.79,2Zm-17.29-.42a6.42,6.42,0,0,1,0-.66c0-.1.39-.34.43-.31-.07.31-.14.63-.2.93a1.32,1.32,0,0,1-.27,0Zm34-2.3c-.07-.83-.11-1.46-.14-2.17.42,0,.88,0,1.29,0-.24.56-.79,1.63-1.07,2.22Zm8.39-.68c-.07-.74-.2-1.76-.27-2.61.25,0,.59-.12.89-.12.1.76.25,1.78.36,2.57a6.34,6.34,0,0,1-1,.15ZM208.49,81s-2.36-1-2.36-2.58c.49-.15,6.81-1.16,9.68-1.42.16,1.15.36,2.17.53,3.33-2.7.37-5.17.46-7.85.68Zm48.64-.29c-.07-.91-.17-1.66-.26-2.53.31,0,.5,0,.78,0,.16,1,.23,1.65.3,2.47-.2,0-.58.1-.82.1Zm-40-.5c-.07-.79-.38-2.18-.49-3.3,3.56-.44,7.22-.91,10.85-1.31,0,0,1.63.81,1.94,1-.33.73-.52,1.42-.92,2.26-1.31.17-9.5,1.26-11.38,1.4Zm48.49-.61v0h-.06v0h0a.18.18,0,0,1,0-.08h.14v0h.12v.2Zm-.45-.4a2.27,2.27,0,0,0-.34-.27l-.07-.44a1.84,1.84,0,0,1-.32,0c-.38-.38-1.09-1.12-1.1-1.12.44-.06.82-.07,1.34-.13.18.15.81.68,1,.87a9.65,9.65,0,0,1,.11,1c-.21,0-.35.07-.59.07Zm.9-.15v-.51l.14,0s0,0,.06,0v0a1.13,1.13,0,0,1,.3.32h-.08v0l-.42,0Zm1.23-.2c-.05-.35-.2-.81-.28-1.19-.19-.17-.4-.4-.69-.66,2.26-.42,5.69-1.09,7.47-1.35.07.61.15,1.21.24,1.83-2.14.47-4.48.95-6.74,1.38Zm-35.56-.46c0-.15.78-2.24,1-2.79a4.13,4.13,0,0,1,3.5-2.44v0c6.1-1.34,14.55-3.06,19.92-4.45a.67.67,0,0,0,.37-.77c1.17.77,5.16,3.48,6.83,4.5a10.85,10.85,0,0,1,0,1.64c-10.17,1.52-20.93,3-31.62,4.36Zm36.88-1c-.09-.09-.08-.16,0-.2a10.27,10.27,0,0,1,1.82.53c.17.13.07.23,0,.26-.59-.16-1.42-.46-1.84-.59Zm.95-.39c0-.3,1.92-.58,2.31-.54s1.7.38,1.77.75c-.27.09-2.08.41-2.08.42a5.72,5.72,0,0,1-2-.63Zm4.77.39c-.09-.66-.16-1.15-.24-1.74l8.39-.39a1,1,0,0,0-.05.2c-1,.2-2,.46-2.88.67-.21-.45-1.6-.44-1.7-.28-.3.49.19.39.57.44,0,0,0,.09,0,.11-1.17.32-2.78.67-4.11,1Zm-38.44-.33c-.1,0-.36-.37,0-.42,0-.06,21.46-3,23-3.29.85-.25,1,.56.58.56-2.28.35-19.53,2.63-23.57,3.15Zm30.15-.24c-.1-.12-.26-.16-.4-.29,1.47-.18,3.18-.39,4.71-.53-1.33.31-2.9.58-4.31.82Zm-.63-.53c-.58-.56-1.47-1.5-1.91-1.92,2.91-.39,5.54-.75,8.49-1.09L271,75.74c-2,.18-3.58.32-5.51.56ZM281.4,76c.43-.13.76-.21,1-.27a1.53,1.53,0,0,1-.1.4c-.35,0-.66-.08-.94-.13Zm-50.06-.75c.51-.11.92-.22,1.37-.27-.13.33-.28.66-.42,1-.27-.22-.65-.52-1-.75Zm-2.79.36c.34-.46.95-1.2,1.22-1.54,0,.25,0,.5.08.75a.72.72,0,0,0-.5.2,1.22,1.22,0,0,0-.3.77c-.2-.08-.3-.11-.5-.17Zm42.75,0c.4-.94.82-1.74,1.12-2.44,2.52-.16,5.18-.32,7.76-.32a7.39,7.39,0,0,1-.43.79c-2.71.58-5.66,1.39-8.45,2Zm-43.4-.27c.45-.51,1.46-1.88,1.78-2.25,0,.14,0,.28,0,.44s-1.21,1.56-1.49,1.87c-.18,0-.24-.05-.34-.05Zm45.46.05s4.49-1.06,6.24-1.48c-.15.33-.35.72-.5,1.08-1.68.16-4.12.33-5.75.4Zm-46-.2a29,29,0,0,1,3.87-5.39c.15-.13.69-.38.61-.25-.33.47-3.64,5-4.17,5.67-.15,0-.25,0-.32,0Zm52-.13c.22-.44.41-.8.59-1.24.88-.25,2-.6,2.75-.83,0,.64-.18,1.33-.18,2-1.1,0-2,0-3.17.08Zm5.15,0a2.53,2.53,0,0,0,.84-.52c0,.15,0,.35,0,.51Zm-1.66,0c.05-.61.13-1.44.19-2.14.6,0,2.12.54,2.27,1.12a2.65,2.65,0,0,1-2.46,1Zm-51.63-.12c-.13-1-.23-1.85-.32-2.57.15-.24.36-.5.36-.51.75-.14,2-.4,2.87-.59,0-.08.19,1.09.21,1.38s.53.12.47,0c0-.55-.13-1-.13-1.4l.77-.19c0,.24.08.47.11.71a.24.24,0,0,0,.43-.11c0-.23-.08-.56-.12-.75a1.57,1.57,0,0,1,.4-.08c.24-.42,0-1.19-.55-1.19,0,0-3.08.65-3.36.69a4.38,4.38,0,0,0,.37-.61c4.24-.94,8.31-1.81,12.32-2.66.86-.39,2.49-1.11,3-1.31,0,0,3.7.09,4,.09,0,0,1.58.64,1.72.71l.07,1.07c-2.61.64-12.86,3.22-17.16,4.27-.39.22-.47.83-.53,1a4.55,4.55,0,0,0-3.24,1.8,10.77,10.77,0,0,0-1.65.28ZM263.67,74c0-.28,0-1.25,0-1.63,2.23-.34,6.83-.84,9.24-1.2-.24.66-.47,1.13-.7,1.77-2.58.35-6.08.66-8.57,1.06Zm16.49-.51a4.2,4.2,0,0,0,.31-.59c.49,0,1.09,0,1.7,0a14.25,14.25,0,0,1-2,.63Zm5.18,0a4.59,4.59,0,0,0-1.76-.78s1.47-.7,1.81-1.27c0,.31,0,1.29-.06,2.05Zm-12.82-.58c.26-.61.51-1.17.73-1.78,2.7-.24,5.57-.48,8.21-.59-.43.82-.75,1.27-1.17,2-2.59,0-4.9.16-7.78.34Zm8.13-.33c.42-.76.85-1.53,1.12-2.06,1.2,0,3.72-.13,3.67.2-.11.64-1.65,1.53-2.35,1.87-.81,0-2.18,0-2.43,0Zm-49.06-2.25c.16-.3.43-.65.48-.8s.41-.28.54,0c-.18.34-.34.52-.52.82l-.51,0Zm22.64-2.78c.46-.61,1.1-1.44,1.45-2,.08.7.17,1.71.23,2a.51.51,0,0,1,.14.88l-1.83-.88Zm-.12-.31c0-.28-.06-.57-.06-.76.24-.24,1.15-1.52,1.59-2.14,0,0,0,.63,0,.88-.21.26-1.14,1.52-1.53,2Zm-9.63-.41c.41-.37,2.67-2.51,3-2.89.09.52.14,1,.21,1.6-.72.26-2.37.94-3.26,1.29Zm7.64-1.3c.59-.74,1.1-1.42,1.58-2.07.69.12,1.51.27,2,.38-.35.51-1.37,1.93-1.8,2.49-.41-.21-1.38-.65-1.78-.79Zm-4.07-.07c-.09-.68-.17-1.17-.29-1.84,2-.06,3.51-.15,5.55-.19-.44.62-1.28,1.77-1.58,2.15l-3.68-.12Z"/></g></g></svg>