<svg xmlns="http://www.w3.org/2000/svg" viewBox="0 0 324 147"><defs><style>.cls-1{fill:#fff;stroke:red;}.cls-1,.cls-2,.cls-21,.cls-3{stroke-miterlimit:10;}.cls-1,.cls-2,.cls-3{stroke-width:2px;}.cls-2{fill:#d2f1e7;}.cls-2,.cls-3{stroke:#000;}.cls-21,.cls-3{fill:none;}.cls-4{font-size:18px;font-family:MyriadPro-Regular, Myriad Pro;}.cls-5{letter-spacing:-0.03em;}.cls-6{letter-spacing:0em;}.cls-7{letter-spacing:-0.01em;}.cls-8{letter-spacing:0em;}.cls-9{letter-spacing:-0.01em;}.cls-10{font-size:11px;font-family:MyriadPro-It, Myriad Pro;}.cls-10,.cls-22{fill:#db2027;}.cls-10,.cls-23,.cls-24{font-style:italic;}.cls-11{letter-spacing:0.01em;}.cls-12{letter-spacing:0.03em;}.cls-13{letter-spacing:0.01em;}.cls-14{letter-spacing:0em;}.cls-15{letter-spacing:0em;}.cls-16{letter-spacing:-0.03em;}.cls-17{letter-spacing:0em;}.cls-18{letter-spacing:0em;}.cls-19{letter-spacing:0.01em;}.cls-20{letter-spacing:-0.03em;}.cls-21{stroke:#db2027;}.cls-23{font-size:22px;font-family:MyriadPro-BlackIt, Myriad Pro;}.cls-24{font-size:23px;font-family:BrushScriptMT, Brush Script MT;}.cls-25{letter-spacing:0.01em;}.cls-26{letter-spacing:-0.03em;}.cls-27{fill-rule:evenodd;}.cls-28{font-size:16px;font-family:MyriadPro-Semibold, Myriad Pro;font-weight:700;}.cls-29{letter-spacing:0.01em;}.cls-30{letter-spacing:0em;}.cls-31{letter-spacing:-0.01em;}.cls-32{letter-spacing:-0.01em;}.cls-33{letter-spacing:0em;}.cls-34{letter-spacing:-0.01em;}</style></defs><title>clipart-sketch-aircraft</title><g id="Layer_2" data-name="Layer 2"><g id="Layer_1-2" data-name="Layer 1"><rect class="cls-1" x="1" y="1" width="322" height="145"/><rect class="cls-2" x="1" y="1" width="161" height="25"/><rect class="cls-2" x="162" y="1" width="161" height="25"/><rect class="cls-3" x="1" y="26" width="161" height="120"/><rect class="cls-3" x="162" y="26" width="161" height="120"/><text class="cls-4" transform="translate(16.9 47.25)"><tspan class="cls-5">W</tspan><tspan class="cls-6" x="14.63" y="0">el</tspan><tspan class="cls-7" x="27.9" y="0">c</tspan><tspan x="35.86" y="0">ome </tspan><tspan class="cls-8" x="73.58" y="0">A</tspan><tspan x="84.55" y="0">boa</tspan><tspan class="cls-9" x="113.35" y="0">r</tspan><tspan x="119.05" y="0">d</tspan></text><text class="cls-4" transform="translate(58.14 137.5)">N44JB</text><text class="cls-10" transform="translate(23.55 86)">Use Clip <tspan class="cls-11" x="36.84" y="0">A</tspan><tspan class="cls-12" x="43.16" y="0">r</tspan><tspan x="46.95" y="0">t</tspan><tspan x="5.96" y="13.2">K AIR300</tspan></text><text class="cls-10" transform="translate(86.74 67.75)">Use Brush <tspan class="cls-13" x="44.89" y="0">S</tspan><tspan class="cls-14" x="50.13" y="0">cript</tspan><tspan class="cls-15" x="27.74" y="13.2">B</tspan><tspan class="cls-14" x="33.48" y="13.2">old </tspan><tspan class="cls-16" x="49.52" y="13.2">T</tspan><tspan x="54.37" y="13.2">y</tspan><tspan class="cls-17" x="59.22" y="13.2">p</tspan><tspan class="cls-18" x="65.03" y="13.2">e</tspan></text><text class="cls-10" transform="translate(82.15 99.25)">Use <tspan class="cls-11" x="17.92" y="0">M</tspan><tspan x="26.58" y="0">yriad Black</tspan><tspan class="cls-19" x="30.6" y="13.2">I</tspan><tspan x="33.23" y="13.2">talic </tspan><tspan class="cls-20" x="54.11" y="13.2">T</tspan><tspan class="cls-18" x="58.96" y="13.2">y</tspan><tspan class="cls-17" x="63.81" y="13.2">p</tspan><tspan x="69.62" y="13.2">e</tspan></text><line class="cls-21" x1="83.5" y1="65" x2="57.68" y2="53.23"/><polygon class="cls-22" points="61.77 51.02 58.8 53.74 58.7 57.76 52.25 50.75 61.77 51.02"/><line class="cls-21" x1="109.35" y1="104.79" x2="94.86" y2="116.71"/><polygon class="cls-22" points="94.67 112.06 95.81 115.92 99.38 117.78 90.25 120.5 94.67 112.06"/><text class="cls-23" transform="translate(211.39 124)">N44JB</text><text class="cls-24" transform="translate(181.05 54.25)"><tspan class="cls-25">W</tspan><tspan x="16.34" y="0">elcome</tspan><tspan class="cls-26" x="61.64" y="0"> </tspan><tspan x="67.51" y="0">Aboard</tspan></text><path class="cls-27" d="M287.19,78.05l-3-.65c-7.77,2-15.77,4.85-24.92,7.76C254.7,83,248,81.38,241.2,79.32c-.62-.63-.7-1.83-1.61-1.78a.29.29,0,0,0-.29.11l.14.87a.32.32,0,0,1-.14.2c-1.12-.06-3.61-1.21-4.78-1.33l-5.95-3.45a4.76,4.76,0,0,1-1.75-2.83c-.74-1.92-1.78-3.42-2.35-5.23,0,0-.45-.42-.41-.51l.63-.44,0-.51s-.11-.18-.21-.29c2.74-1.4,6-1.62,8.91-2.82,0-.09,0-.14,0-.27-.55-.71-1.94-.73-2.9-.84a114.44,114.44,0,0,1-11.64,1.94c-.77,0-1.34-.33-2.06-.31l-.46.75L202.7,64.35a6.16,6.16,0,0,0,4.22,1.12q3.9-.41,7.69-.53l3.29-.22c1.71,4.57,2.63,9.62,4,14.45,5.63,3,9,8.14,14.56,11.46.4.26.88.33,1.07.76a.38.38,0,0,1-.11.39c-13.52,1.62-27.12,2.79-40.27,5.13a13.34,13.34,0,0,0,5.55,2.23c11,.39,22.24-4.7,32.85-.67,1.83.83,3.62,1.75,5.37,2.52,2.41,1.19,3.48,1.56,4.76,1.11,4.26.14,3.28-1.62,3.24-2.17l.92-.83a3.78,3.78,0,0,0-1.09-2.51.63.63,0,0,1-.27-.24s0-.14.06-.16A10.63,10.63,0,0,1,254,97.81c.59.9.22,2.44-.24,3.48a5.73,5.73,0,0,0,.77-3.1l.06-.16a.8.8,0,0,1,.6-.27c3,1.29,6.76.9,9.83,2a.25.25,0,0,0,.25,0c0-.11-.09-.14-.07-.28,1-.39,2.59-.06,3.42-1.21a1.48,1.48,0,0,0-.12-1.76c-.56-1.17-1.45-1.83-1.88-2.88,2.63.13,4.52,1.55,6.79,1,3.92-.27,3.9-1.35,3.76-2.22a.86.86,0,0,1,.23-.23c-.52-1.27-2.15-2.06-3-3.22-1.35-1.15-3-1.4-4.56-1.82,0,0,0,0,0-.17,5.85-2.76,12.34-5,18-8l-.61-.94-.06,0Zm-.38.36c-9.34,0-18,5.14-27.17,7.37a.25.25,0,0,0-.13.16c1.87,2.7,6.23,2.59,9.4,3.75,1.18-.09,2.51-1,3.53-1.24-1.57-.95-3.83-1-5.64-1.69-.05-.05,0-.09,0-.18l1.63.22c0-.21-.12-.26-.16-.42s0-.14.05-.23l18.33-7.49c.1.11.27.32.5.29.09-.25-.09-.43-.33-.55ZM231.95,60.84c-4.07-.46-7.75.87-11.54,1.48l2.83.92L232,60.86l-.06,0Zm47.6,23.84a6.59,6.59,0,0,1,1.54,4.07,5.53,5.53,0,0,0-1.46-4.08Zm-55.82-21c-.17,0-.16.23-.29.21a21.12,21.12,0,0,0-6.28-1.5c1.37.91,3.72.54,4.94,1.75,0,0,0,.14-.05.23-.45.44-1.2.16-1.67.37a.62.62,0,0,0-.37,0,79.79,79.79,0,0,0,4.61,11.93c.76,2.14,3.56,3.62,5.58,5.09,12.17,7,25,11.72,38.18,15.81a.47.47,0,0,0,.15-.12l-.07-.49c-1.53-2.68-3.8-4.89-6-7.36-.41-.23-.53-.59-.9-.73l-1.25.28,0,.48c-.32.27.39-.28-.2.07l-.51-.44c-.14,0-.25.09-.43.2l0,.48c-.32,0-.35-.31-.53-.48l-4,1c-.65-.46-.61-1.41-1.06-1.93-.11-.29-.38-.5-.3-.82a12.07,12.07,0,0,1,3.42-1.21.54.54,0,0,1,.32,0l1.85-.73c0-.06-.07-.1,0-.19-5-2.39-10.51-3.34-15.75-5.27l-1.38-.41c-.19-.07-.26.12-.43.2L239.92,78c-.16-.06.18.18-.07.19l.33,1.41c0,.09-.11.1-.16.15l-.43-.48a17,17,0,0,1-5.33-1.57l-6.8-4c-1-2.52-2.79-6-3.83-8.5.11-.28.51-.13.73-.33,0,0,.08-.11.1-.18,0-.27-.51-.44-.65-.74,0,0,.08-.22-.09-.25Zm57.42,22a.45.45,0,0,1,.13.23l-.13-.23Zm.41,1,.14.48-.14-.48ZM219,63.61c-5.15-1.4-10.1.59-15.06,1l1.62.54.35-.26L219,63.65l0,0ZM281.43,90l-.7,2.34.7-2.34Zm-8.3-1.09a10,10,0,0,0-3.5,1.43l-.75.18,4.25-1.61Zm2.61,2.28-1.15-.36a.23.23,0,0,0-.25.3c.09,0,.18.18.28.21l.82-.19c.1.11.17.21.32.19s0-.13,0-.15Zm-2.46-.29c-2.89,2.48-6-.09-9.43-.55a7.49,7.49,0,0,1,1.6.67c1.42,2.49,4.55,3.17,7.34,3.26A1.33,1.33,0,0,1,274.09,93a1.54,1.54,0,0,1-.33-2.16l-.48,0Zm-8.84-1.59-2.13-.59,2.13.59Zm-41.76-13.4c0,1.71,1.73,2.72,3.07,3.9,10.08,7.35,21.51,11.11,32.55,15.62,2.83.92,5.68,1.67,8.36,2.53a223.14,223.14,0,0,1-35-14.32c-3.2-2.31-7.95-4.38-9-7.74ZM252,87.55l-1.4-.35a1.85,1.85,0,0,0-.18,1.72c.17.31.48.54.77.43a2,2,0,0,0,.94-1.75l-.13,0Zm-5.23-1.88L246,85.6a1.68,1.68,0,0,0-.43,1.73c.08.17.24.41.48.43s.61-.3.84-.61c.11-.57.28-1-.09-1.46Zm-2.28-.61a.8.8,0,0,0-.66,0,1.55,1.55,0,0,0-.39,1.42c.19.36.36.67.61.66a.83.83,0,0,0,.25,0,2.09,2.09,0,0,0,.46-1.61c-.13-.23-.09-.32-.21-.4l-.06,0Zm8.3,3.22a.2.2,0,0,0-.2.07l-.24,1.3,1.14.57c.29-.11.09-.54,0-.74-.32-.37-.35-.77-.66-1.18l-.06,0Zm-10.2-3.83-.43-.09c-.42,0-.69.6-.68,1a3.34,3.34,0,0,0,.07.67.85.85,0,0,0,.63.41c.59,0,.55-.79.69-1.27a1.21,1.21,0,0,0-.25-.66Zm-2.13-.81-.13,0a.82.82,0,0,0-.77.53,1.3,1.3,0,0,0,.16,1.49l.55.06c.47-.21.45-1,.49-1.6a.61.61,0,0,0-.3-.43Zm-1.88-.51H238a1.05,1.05,0,0,0-.46,1.22.92.92,0,0,0,.49.79c.51,0,.62-.8.77-1.21s-.12-.54-.11-.75l-.13,0Zm-6.93-2.63-.35.08c-.29-.29.21.4-.08-.17-.22,0-.34.23-.39.46s0,.3.07.38l.61.48c.09,0,.15,0,.22,0l.15-.69a.5.5,0,0,0-.2-.5Zm-9.72-2.9a1.76,1.76,0,0,0,.75,1.6c5.88,3,9.19,8.59,15.14,11.72.13.12.18.18.21.29l.08.64c-.11.28-.22.59-.57.68-13.31.88-25.88,2.8-38.73,4.46l-.41.34,2.2,1c.17,0,.22-.1.43-.2l1.95.23.07-.19,27.09-3c.44.16.27.71.44,1l5.15.15a1.6,1.6,0,0,0-.67-1.25c-.46-.28-1-.42-1.21-.85A.31.31,0,0,1,234,94l7.6,2.57,3.91-1.56c.07,0,.11-.1.14-.2a1.56,1.56,0,0,0-.13-.23l-.75-.46a.13.13,0,0,1,.06-.16,3.88,3.88,0,0,1,2.29,1.11,5.37,5.37,0,0,0,2.72.74l0-.09.08-.22A41.09,41.09,0,0,0,264.64,99c.07.1,0,.25,0,.47l.23-.41,1.83-.13c-15.2-5.5-31.86-10-44.76-21.28Zm32,19.9-.48-.14.48.14Zm-10.33-3.78L241.44,93l2.21.76Zm11.25,4.47a6.51,6.51,0,0,1-1.73,4.7A5.81,5.81,0,0,0,255,98.3a.4.4,0,0,1-.08-.17l-.05.05Zm-8.2-2.74-.52-.13c-.2.25.31.12.38.14a1.06,1.06,0,0,1,.25.2c.08-.11.06-.16-.05-.23l0,0Zm1.6,1.14-.36-.1.23.44.16.06.13-.34-.16-.06Zm-2.87-.89c-2.81,1.69-6,1.47-9.06-.19A32.56,32.56,0,0,0,243.14,98c0-.29-.57-.29-.71-.59-.06,0-.07-.1-.05-.23l3-1.46Zm2.23,1.88h-.78l-.2.43c0,.17.21.4.36.67l1.89.28c.3,0,.12-.31,0-.47-.3-.33-.56-.32-.82-.56a.3.3,0,0,1-.38,0c0-.07,0-.2,0-.3Zm-1.62.25c-3,2.64-6.61-.16-9.8-.87a11.82,11.82,0,0,0-2.49,0c3.73,1.94,7.52,4.75,11.75,4.52.21-.28,0-.75.43-.95.27-.15.55-.22.57-.46-.07-.49-.3-.9-.39-1.33s.22-.59.09-.89l-.14,0Z"/><text class="cls-28" transform="translate(30.73 19)"><tspan class="cls-29">S</tspan><tspan x="8.4" y="0">ample </tspan><tspan class="cls-30" x="55.13" y="0">S</tspan><tspan class="cls-31" x="63.39" y="0">k</tspan><tspan x="71.42" y="0">e</tspan><tspan class="cls-32" x="79.68" y="0">t</tspan><tspan x="85.2" y="0">ch</tspan></text><text class="cls-28" transform="translate(212.96 19)"><tspan class="cls-33">C</tspan><tspan class="cls-34" x="9.36" y="0">r</tspan><tspan x="14.91" y="0">e</tspan><tspan class="cls-32" x="23.17" y="0">a</tspan><tspan x="31.2" y="0">tion</tspan></text></g></g></svg>